<svg xmlns="http://www.w3.org/2000/svg" version="1.1" xmlns:xlink="http://www.w3.org/1999/xlink" width="512" height="512" x="0" y="0" viewBox="0 0 68 68" style="enable-background:new 0 0 512 512" xml:space="preserve" class=""><g><ellipse cx="12.3" cy="31.6" fill="#242021" rx="2" ry="3.7" opacity="1" data-original="#242021"></ellipse><ellipse cx="58.5" cy="31.8" fill="#242021" rx="2" ry="3.7" opacity="1" data-original="#242021"></ellipse><path fill="#8313b5" d="m13.6 31.8 2.2-2.8c.3-.3.7-.5 1.2-.5l37.5-.2c.5 0 1 .2 1.3.6.7.9 1.2 2.5 1.8 3.5zM61.5 58.6c-.1 1-.1 2.1 0 3.2 0 1.7-1.4 3.1-3.1 3.1h-48c-1.5 0-2.8-1.1-3-2.5l-.6-3.3z" opacity="1" data-original="#fa9990" class=""></path><path fill="#9a0e86" d="M59.9 60.3H8.1c-1.1 0-1.9-1.1-1.5-2.2 2.2-5.9 4.3-12 6.5-17.9.1-.2.1-.4.1-.6v-6.8c0-.9.7-1.6 1.6-1.6h41.6c.9 0 1.6.7 1.6 1.6v7.9c1.3 5.8 2.2 11.8 3.5 17.6.2 1-.5 2-1.6 2" opacity="1" data-original="#ffada9" class=""></path><path fill="#cc5dfd" d="M55.1 57.6H12.9c-.9 0-1.6-.9-1.2-1.8C13.5 51 15.2 46 17 41.2c.1-.1.1-.3.1-.5v-5.6c0-.7.6-1.3 1.3-1.3h33.9c.7 0 1.3.6 1.3 1.3v6.4c1.1 4.7 1.8 9.6 2.9 14.3.1 1-.5 1.8-1.4 1.8" opacity="1" data-original="#fd625d" class=""></path><path fill="#702fed" d="M53.4 41.4H17.1c-.3 0-.5-.2-.5-.5s.2-.5.5-.5h36.2c.3 0 .5.2.5.5s-.2.5-.4.5" opacity="1" data-original="#ed2f2f" class=""></path><ellipse cx="20.4" cy="47.9" fill="#702fed" rx="1.3" ry=".5" opacity="1" data-original="#ed2f2f" class=""></ellipse><path fill="#e0e4e9" d="M20.4 48c-.3 0-.5-.2-.5-.5v-1.9c0-.3.2-.5.5-.5s.5.2.5.5v1.9c0 .3-.2.5-.5.5" opacity="1" data-original="#e0e4e9" class=""></path><path fill="#e0e4e9" d="M22.7 45.6v-.4c0-.2-.6-.4-.9-.4-.6 0-1.2.3-2.5.2-.2 0-.4-.1-.5 0-.1 0-.4.1-.5.2v.4c0 .7 1 1.2 2.2 1.2s2.2-.5 2.2-1.2" opacity="1" data-original="#e0e4e9" class=""></path><ellipse cx="20.5" cy="45.1" fill="#ffffff" rx="2.2" ry="1.2" opacity="1" data-original="#ffffff" class=""></ellipse><ellipse cx="28" cy="47.8" fill="#702fed" rx="1.3" ry=".5" opacity="1" data-original="#ed2f2f" class=""></ellipse><path fill="#e0e4e9" d="M28 47.9c-.3 0-.5-.2-.5-.5v-1.9c0-.3.2-.5.5-.5s.5.2.5.5v1.9c0 .3-.2.5-.5.5" opacity="1" data-original="#e0e4e9" class=""></path><path fill="#e0e4e9" d="M30.3 45.5v-.4c0-.7-2 0-3.4-.2-.3 0-.9-.1-1 .2v.4c0 .7 1 1.2 2.2 1.2s2.2-.5 2.2-1.2" opacity="1" data-original="#e0e4e9" class=""></path><ellipse cx="28.1" cy="45" fill="#ffffff" rx="2.2" ry="1.2" opacity="1" data-original="#ffffff" class=""></ellipse><ellipse cx="34.6" cy="47.7" fill="#702fed" rx="1.3" ry=".5" opacity="1" data-original="#ed2f2f" class=""></ellipse><path fill="#e0e4e9" d="M34.6 47.8c-.3 0-.5-.2-.5-.5v-1.9c0-.3.2-.5.5-.5s.5.2.5.5v1.9c0 .3-.2.5-.5.5" opacity="1" data-original="#e0e4e9" class=""></path><path fill="#e0e4e9" d="M36.9 45.4V45c0-.5-1.2-.3-1.6-.2-.6.1-1.2.1-1.8.1-.3 0-.9-.1-1 .2v.4c0 .7 1 1.2 2.2 1.2s2.2-.6 2.2-1.3" opacity="1" data-original="#e0e4e9" class=""></path><ellipse cx="34.7" cy="44.9" fill="#ffffff" rx="2.2" ry="1.2" opacity="1" data-original="#ffffff" class=""></ellipse><ellipse cx="41.8" cy="47.8" fill="#702fed" rx="1.3" ry=".5" opacity="1" data-original="#ed2f2f" class=""></ellipse><path fill="#e0e4e9" d="M41.8 47.9c-.3 0-.5-.2-.5-.5v-1.9c0-.3.2-.5.5-.5s.5.2.5.5v1.9c0 .2-.2.5-.5.5" opacity="1" data-original="#e0e4e9" class=""></path><path fill="#e0e4e9" d="M44.1 45.4v-.5c0-.1-.1-.1-.2-.1-.2-.1-.5-.2-.7-.2-3.8.2-2.9.1-3 .1s-.4.1-.5.2v.4c0 .7 1 1.2 2.2 1.2 1.2.2 2.2-.4 2.2-1.1" opacity="1" data-original="#e0e4e9" class=""></path><ellipse cx="41.9" cy="45" fill="#ffffff" rx="2.2" ry="1.2" opacity="1" data-original="#ffffff" class=""></ellipse><ellipse cx="49" cy="47.7" fill="#702fed" rx="1.3" ry=".5" opacity="1" data-original="#ed2f2f" class=""></ellipse><path fill="#e0e4e9" d="M49.1 47.8c-.3 0-.5-.2-.5-.5v-1.9c0-.3.2-.5.5-.5s.5.2.5.5v1.9c0 .3-.3.5-.5.5" opacity="1" data-original="#e0e4e9" class=""></path><path fill="#e0e4e9" d="M51.3 45.4v-.5c0-.1-.1-.1-.2-.1-.7-.4-1.4.2-3.2 0-.3 0-.9-.1-1 .2v.4c0 .7 1 1.2 2.2 1.2 1.3 0 2.2-.5 2.2-1.2" opacity="1" data-original="#e0e4e9" class=""></path><ellipse cx="49.1" cy="44.9" fill="#ffffff" rx="2.2" ry="1.2" opacity="1" data-original="#ffffff" class=""></ellipse><ellipse cx="20.4" cy="54" fill="#702fed" rx="1.3" ry=".5" opacity="1" data-original="#ed2f2f" class=""></ellipse><path fill="#e0e4e9" d="M20.4 54.1c-.3 0-.5-.2-.5-.5v-1.9c0-.3.2-.5.5-.5s.5.2.5.5v1.9c0 .3-.2.5-.5.5" opacity="1" data-original="#e0e4e9" class=""></path><path fill="#e0e4e9" d="M22.7 51.6v-.5c0-.1-.1-.1-.2-.1-.4-.3-1-.1-1.4 0-.6.1-1.2.1-1.8.1-.3 0-.9-.1-1 .2v.4c0 .7 1 1.2 2.2 1.2s2.2-.6 2.2-1.3" opacity="1" data-original="#e0e4e9" class=""></path><ellipse cx="20.5" cy="51.2" fill="#ffffff" rx="2.2" ry="1.2" opacity="1" data-original="#ffffff" class=""></ellipse><ellipse cx="28" cy="53.9" fill="#702fed" rx="1.3" ry=".5" opacity="1" data-original="#ed2f2f" class=""></ellipse><path fill="#e0e4e9" d="M28 54c-.3 0-.5-.2-.5-.5v-1.9c0-.3.2-.5.5-.5s.5.2.5.5v1.9c0 .3-.2.5-.5.5" opacity="1" data-original="#e0e4e9" class=""></path><path fill="#e0e4e9" d="M30.3 51.5V51c0-.1-.4-.3-.9-.3-.6 0-1.2.3-2.5.2-.3 0-.9-.1-1 .2v.4c0 .7 1 1.2 2.2 1.2 1.2.1 2.2-.5 2.2-1.2" opacity="1" data-original="#e0e4e9" class=""></path><ellipse cx="28.1" cy="51.1" fill="#ffffff" rx="2.2" ry="1.2" opacity="1" data-original="#ffffff" class=""></ellipse><ellipse cx="34.6" cy="53.8" fill="#702fed" rx="1.3" ry=".5" opacity="1" data-original="#ed2f2f" class=""></ellipse><path fill="#e0e4e9" d="M34.6 53.9c-.3 0-.5-.2-.5-.5v-1.9c0-.3.2-.5.5-.5s.5.2.5.5v1.9c0 .3-.2.5-.5.5" opacity="1" data-original="#e0e4e9" class=""></path><path fill="#e0e4e9" d="M36.9 51.4V51c0-.2-.6-.4-.9-.4-.6 0-1.2.3-2.5.2-.3 0-.9-.1-1 .2v.4c0 .7 1 1.2 2.2 1.2s2.2-.5 2.2-1.2" opacity="1" data-original="#e0e4e9" class=""></path><ellipse cx="34.7" cy="51" fill="#ffffff" rx="2.2" ry="1.2" opacity="1" data-original="#ffffff" class=""></ellipse><ellipse cx="41.8" cy="53.8" fill="#702fed" rx="1.3" ry=".5" opacity="1" data-original="#ed2f2f" class=""></ellipse><path fill="#e0e4e9" d="M41.8 53.9c-.3 0-.5-.2-.5-.5v-1.9c0-.3.2-.5.5-.5s.5.2.5.5v1.9c0 .3-.2.5-.5.5" opacity="1" data-original="#e0e4e9" class=""></path><path fill="#e0e4e9" d="M44.1 51.5V51c0-.1-.1-.1-.2-.1-.7-.4-1.4.2-3.2 0-.2 0-.4-.1-.5 0-.1 0-.4.1-.5.2v.4c0 .7 1 1.2 2.2 1.2s2.2-.5 2.2-1.2" opacity="1" data-original="#e0e4e9" class=""></path><ellipse cx="41.9" cy="51" fill="#ffffff" rx="2.2" ry="1.2" opacity="1" data-original="#ffffff" class=""></ellipse><ellipse cx="49" cy="53.8" fill="#702fed" rx="1.3" ry=".5" opacity="1" data-original="#ed2f2f" class=""></ellipse><path fill="#e0e4e9" d="M49.1 53.9c-.3 0-.5-.2-.5-.5v-1.9c0-.3.2-.5.5-.5s.5.2.5.5v1.9c0 .3-.3.5-.5.5" opacity="1" data-original="#e0e4e9" class=""></path><path fill="#e0e4e9" d="M51.3 51.4v-.5c0-.1-.1-.1-.2-.1-.7-.5-1.4.2-3.2 0-.2 0-.4-.1-.5 0-.1 0-.4.1-.5.2v.4c0 .7 1 1.2 2.2 1.2 1.3.1 2.2-.5 2.2-1.2" opacity="1" data-original="#e0e4e9" class=""></path><ellipse cx="49.1" cy="51" fill="#ffffff" rx="2.2" ry="1.2" opacity="1" data-original="#ffffff" class=""></ellipse><path fill="#c5eaff" d="M53.3 29.3c0 .3-.3.6-.6.5-9.4-1-18.5-.4-27.9.1-1.7.1-3.4.2-5.1-.1-.2 0-.4-.2-.4-.4v-.2c.7-5.7-.6-19.1-3.5-24.2-.2-.3 0-.8.4-.8 8.2-1 16.5-1.1 24.8-1 3.9 0 7.7.2 11.6.3.3 0 .5.2.5.5.1 5.8.1 19.4.2 25.3" opacity="1" data-original="#c5eaff" class=""></path><path fill="#8cd3fd" d="M53.3 29.3c0 .3-.3.6-.6.5-9.4-1-18.5-.4-27.9.1-1.7.1-3.4.2-5.1-.1-.2 0-.4-.2-.4-.4 5.6-.6 11.4-1.7 15.4-5.6 3.8-3.7 5.3-9.2 5.9-14.5.3-2.1.4-4.1.5-6.2 3.9 0 7.7.2 11.6.3.3 0 .5.2.5.5 0 5.9 0 19.5.1 25.4" opacity="1" data-original="#8cd3fd" class=""></path><path fill="#ffffff" d="M23.1 30.5c-1.4 0-2.8-.2-4.2-.7-.1 0-.2-.2-.2-.3s.2-.2.3-.2c3.1 1 5.8.6 9.1.2 8.5-.8 16-1.2 25.2-.2.1 0 .2.1.2.3 0 .1-.1.2-.3.2-15-1.5-26 .7-30.1.7" opacity="1" data-original="#ffffff" class=""></path><g fill="#fff"><ellipse cx="21" cy="37.6" rx="1.7" ry="1.1" fill="#000000" opacity="1" data-original="#000000" class=""></ellipse><path d="M21 39.2c-1.2 0-2.2-.7-2.2-1.6s1-1.6 2.2-1.6 2.2.7 2.2 1.6-1 1.6-2.2 1.6m0-2.2c-.7 0-1.2.3-1.2.6s.5.6 1.2.6 1.2-.3 1.2-.6-.5-.6-1.2-.6" fill="#000000" opacity="1" data-original="#000000" class=""></path></g><ellipse cx="49.4" cy="37" fill="#ffffff" rx="1.7" ry="1.1" opacity="1" data-original="#ffffff" class=""></ellipse><path fill="#702fed" d="M43 57.7c3.4.4 6.7.3 10.1.1 1.1 0 2.8.2 3.4-.9.8-1.3-.5-4.4-.8-5.6-.4-2.5-.6-5.1-1.5-7.6-.2-.4-.9-.3-.7.2.6 1.6.9 3.3 1.1 5 .3 1.9 1 3.9 1 5.7 0 3.1-3.4 2.5-5.6 2.6-2.4.1-4.7 0-7.1-.3-.4 0-.4.7.1.8M32.5 56.5H13.1c-.1 0-.3-.1-.3-.3s.2-.2.3-.2h19.4c.1 0 .3.1.3.3s-.1.2-.3.2M17.8 54.9h-2.7c-.1 0-.3-.1-.3-.3s.1-.3.3-.3h2.7c.1 0 .3.1.3.3s-.1.3-.3.3M40.1 55.8h-2.5c-.1 0-.3-.1-.3-.3s.1-.3.3-.3h2.5c.1 0 .3.1.3.3s-.2.3-.3.3" opacity="1" data-original="#ed2f2f" class=""></path><path fill="#702fed" d="M51.8 55.5h-2.7c-.1 0-.3-.1-.3-.3s.2-.2.4-.2h2.7c.1 0 .3.1.3.3s-.2.2-.4.2M52.1 57h-1.7c-.1 0-.3-.1-.3-.3s.1-.3.3-.3h1.7c.1 0 .3.1.3.3s-.1.3-.3.3" opacity="1" data-original="#ed2f2f" class=""></path><path fill="#c550c6" d="M60.1 60.8h-40c-.1 0-.3-.1-.3-.3s.1-.3.3-.3h40c.1 0 .3.1.3.3s-.2.3-.3.3" opacity="1" data-original="#f97e78" class=""></path><path fill="#ffffff" d="m34.7 14-2.5-1.4-1.6 2.4.3-2.9-2-.6 2-.8-.6-3.4 1.9 3L35.3 9l-2.2 2.3zM44.7 18.8l-1.5-.9-1 1.6.2-1.8-1.2-.4 1.2-.5-.4-2 1.2 1.8 1.8-.8-1.3 1.4zM27.7 23.8l-1.5-.8-1 1.5.1-1.8-1.1-.3 1.1-.6-.3-2 1.2 1.8 1.8-.8-1.3 1.4zM23 9.9 21.5 9l-1 1.6.2-1.8-1.2-.4 1.2-.5-.4-2 1.2 1.8 1.8-.8L22 8.3z" opacity="1" data-original="#ffffff" class=""></path><g fill="#fff" opacity=".44"><path d="M52.3 12.9c0 .4-.6.5-.7.1-.4 0-.5-.6-.1-.8.5-.1.8.2.8.7M46.9 6c-.1-.2 0-.5.2-.5.3-.1.4 0 .6.1.3 0 .5.2.7.5.1.2.1.4-.1.5q-.75.3-1.2-.3c-.1-.1-.2-.2-.2-.3M47.2 12.9c.1.3-.2.5-.5.4-.3.2-.7-.3-.4-.6s.7-.3.9.2M44.7 6.9c.3.3-.2.9-.5.5l-.2-.2c-.4-.3.2-.9.5-.5-.1 0 0 0 .2.2M47.8 10.9c-1-.4-2.1-1.9-.8-2.6.2-.1.3-.1.5.1.3.3.3.6.5 1 .2.3.5.4.8.6.3.3.5 1.1 0 1.2-.4.2-.7 0-1-.3M50 4.8c0-.2 0-.4.1-.5.1-.2.3-.3.5-.1.3.1.4.2.4.5 0 .2-.1.4-.3.5h-.4c-.1 0-.4-.1-.3-.4M51.3 10.6C51 10.5 50 9 50 8.9c-.6-.5-.4-1.1 0-1.2.3-.5 1.1-.2 1.3.8.7.3.7 1.2.5 1.8-.1.2-.3.3-.5.3M50.4 14.7c.3.8-.2 1.8-1.1 1.6-.3-.1-.3-.4-.2-.6 0-.1.1-.2.1-.3-.2-.1-.3-.2-.5-.3s-.3-.2-.3-.4c-.1-.3-.2-.5 0-.8-.1-.3 0-.5.2-.8.2-.2.5-.3.7 0 .1.2.2.5.3.8v.1c.1 0 .1 0 .2.1.2.1.5.2.6.6" fill="#000000" opacity="1" data-original="#000000" class=""></path></g></g></svg>