<svg height="512pt" viewBox="-128 0 512 512" width="512pt" xmlns="http://www.w3.org/2000/svg"><path d="m251.800781 442.757812c-.011719-.046874-.019531-.09375-.03125-.140624l-44.546875-198.667969c15.914063-12.277344 25.277344-31.140625 25.277344-51.449219 0-17.050781-6.554688-33.164062-18.445312-45.363281l-28.613282-29.4375c14.320313-5.28125 24.558594-19.066407 24.558594-35.199219v-37.5c0-4.144531-3.355469-7.5-7.5-7.5-16.46875 0-30.480469 10.675781-35.507812 25.464844-4.742188-5.414063-10.574219-9.855469-17.15625-12.960938 4.761718-5.3125 7.664062-12.324218 7.664062-20.003906 0-16.542969-13.457031-30-30-30s-30 13.457031-30 30c0 7.679688 2.902344 14.691406 7.664062 20-6.316406 2.984375-11.949218 7.183594-16.585937 12.304688-4.449219-15.738282-18.933594-27.304688-36.078125-27.304688-4.144531 0-7.5 3.355469-7.5 7.5v40c0 16.132812 10.238281 29.914062 24.558594 35.195312l-28.605469 29.433594c-11.898437 12.207032-18.453125 28.320313-18.453125 45.371094 0 20.308594 9.363281 39.171875 25.277344 51.449219l-44.546875 198.667969c-.011719.046874-.023438.09375-.03125.140624-2.125 10.375-3.199219 21.054688-3.199219 31.730469v30.011719c0 4.144531 3.355469 7.5 7.5 7.5h90c4.144531 0 7.5-3.355469 7.5-7.5v-7.511719h45v7.511719c0 4.144531 3.355469 7.5 7.5 7.5h90c4.144531 0 7.5-3.355469 7.5-7.5v-30.011719c0-10.675781-1.074219-21.355469-3.199219-31.730469zm-161.800781-345.257812c0-6.566406 1.703125-12.742188 4.679688-18.117188 9.75 7.074219 21.285156 10.613282 32.820312 10.613282s23.070312-3.539063 32.820312-10.613282c2.976563 5.375 4.679688 11.550782 4.679688 18.117188 0 20.679688-16.820312 37.5-37.5 37.5s-37.5-16.820312-37.5-37.5zm14.476562-29.570312c6.359376-4.960938 14.347657-7.929688 23.023438-7.929688s16.664062 2.96875 23.023438 7.929688c-13.839844 9.421874-32.207032 9.421874-46.046876 0zm75.523438 7.070312c0-9.777344 6.269531-18.117188 15-21.214844v28.714844c0 9.925781-6.460938 18.363281-15.398438 21.34375.253907-2.082031.398438-4.195312.398438-6.34375zm-67.5-45c0-8.269531 6.730469-15 15-15s15 6.730469 15 15-6.730469 15-15 15-15-6.730469-15-15zm-52.5 52.5v-31.214844c8.730469 3.097656 15 11.4375 15 21.214844v25c0 2.148438.144531 4.261719.398438 6.34375-8.9375-2.980469-15.398438-11.417969-15.398438-21.34375zm-22.5 110c0-13.117188 5.039062-25.511719 14.203125-34.90625l31.328125-32.234375c9.296875 14.785156 25.75 24.640625 44.46875 24.640625s35.171875-9.855469 44.46875-24.640625l31.335938 32.242187c9.15625 9.386719 14.195312 21.78125 14.195312 34.898438 0 13.144531-5.117188 25.492188-14.03125 34.714844l-9.066406-40.429688c-2.671875-12.621094-13.988282-21.78125-26.902344-21.78125h-80c-12.914062 0-24.230469 9.160156-26.882812 21.691406l-9.085938 40.519532c-8.914062-9.222656-14.03125-21.570313-14.03125-34.714844zm112.5 2.503906h-45v-15h45zm-45 15h45v209.984375h-45zm-15 286.996094h-75v-22.511719c0-9.644531.96875-19.289062 2.882812-28.65625l57.390626-255.941406c1.210937-5.730469 6.355468-9.886719 12.226562-9.886719h2.5zm15-15.011719v-47h45v47zm135 15.011719h-75v-316.996094h2.5c5.871094 0 11.015625 4.15625 12.246094 9.972656l57.371094 255.855469c1.914062 9.367188 2.882812 19.011719 2.882812 28.65625zm0 0"/><path d="m135 232.5c0 4.144531-3.359375 7.5-7.5 7.5s-7.5-3.355469-7.5-7.5c0-4.140625 3.359375-7.5 7.5-7.5s7.5 3.359375 7.5 7.5zm0 0"/><path d="m135 262.5c0 4.144531-3.359375 7.5-7.5 7.5s-7.5-3.355469-7.5-7.5c0-4.140625 3.359375-7.5 7.5-7.5s7.5 3.359375 7.5 7.5zm0 0"/><path d="m135 292.5c0 4.144531-3.359375 7.5-7.5 7.5s-7.5-3.355469-7.5-7.5c0-4.140625 3.359375-7.5 7.5-7.5s7.5 3.359375 7.5 7.5zm0 0"/></svg>