<?xml version="1.0" encoding="UTF-8"?>
<!-- Generator: Adobe Illustrator 26.5.1, SVG Export Plug-In . SVG Version: 6.00 Build 0)  -->
<svg xmlns="http://www.w3.org/2000/svg" xmlns:xlink="http://www.w3.org/1999/xlink" version="1.1" id="Capa_1" x="0px" y="0px" viewBox="0 0 512 512" style="enable-background:new 0 0 512 512;" xml:space="preserve" width="512" height="512">
<g>
	<path style="fill:#FFFFFF;" d="M197.234,512c-0.548,0-1.093-0.006-1.641-0.023c-18.704-0.509-34.251-11.634-38.698-27.684   c-3.004-10.844-0.714-22.517,6.449-32.869l1.692-2.445l-2.409-1.742c-2.594-1.877-4.974-4.051-7.073-6.463   c-4.813-5.527-7.962-12.097-9.108-19.003l-5.885-0.429c-14.294,44.631-39.943,51.295-53.96,51.295c-0.57,0-1.906,0-3.579-0.199   c-1.447-0.147-2.833-0.38-4.288-0.72c-33.219-7.692-43.418-58.271-42.06-99.247v-0.193c-1.327-43.234,11.42-97.892,51.174-121.636   c3.047-1.819,6.32-3.617,9.727-5.341l3.83-1.939l-28.6-27.309c-8.91-8.507-10.15-22.425-2.885-32.374l5.353-7.331l-0.915-1.687   c-20.336-37.501-23.387-67.481-9.324-91.652c12.641-21.724,32.507-33.689,55.938-33.689c1.605,0,3.253,0.058,4.898,0.172   l3.79,0.263l-0.58-3.754c-2.098-13.598-0.199-23.852,5.976-32.272C141.553,4.876,151.994,0,164.454,0   c16.165,0,39.342,8.449,70.857,25.83l1.27,0.701l1.343-0.548c15.326-6.257,32.499-9.575,51.042-9.862   c0.78-0.013,1.555-0.019,2.327-0.019c1.468,0,2.96,0.023,4.433,0.067l0.559,0.017l0.528-0.183c6.825-2.369,13.77-3.57,20.64-3.57   c14.089,0,27.558,4.879,40.035,14.5l1.352,1.042l1.593-0.614c25.275-9.734,44.485-14.465,58.73-14.465   c21.284,0,30.725,10.954,34.459,17.483c11.038,19.317-0.04,44.548-12.332,66.681c-7.799,14.046-17.173,28.204-23.663,37.609   l-0.71,1.027l0.218,1.229c2.462,13.842,3.93,28.754,4.362,44.321l0.049,1.781l1.579,0.825   c31.783,16.611,52.319,53.652,52.319,94.366c0,40.029-19.077,75.661-49.786,92.991l-1.04,0.587l-0.362,1.139   c-0.25,0.789-0.532,1.575-0.837,2.336l-0.303,0.755l0.115,0.805c3.584,25.217-0.673,50.758-11.988,71.919   c-17.998,33.666-54.987,56.285-92.041,56.285c-1.921,0-3.869-0.061-5.789-0.181c-19.407-1.21-38.697-7.948-60.708-21.202   l-2.434-1.465l-1.624,2.331c-0.728,1.045-1.504,2.092-2.307,3.111C234.312,502.889,215.954,512,197.234,512z"/>
	<g>
		<g>
			<path style="fill:#FFC666;" d="M348.668,38.138c-55.812-45.697-106.822,64.505-120.984,98.908     C201.13,108.658,116.564,26.357,80.768,87.88c-42.742,73.463,185.35,260.829,185.35,260.829l-1.32-8.839l1.591,7.487     C266.389,347.357,414.428,91.982,348.668,38.138z"/>
			<g>
				<path style="fill:none;stroke:#2E1144;stroke-width:2.7019;stroke-miterlimit:10;" d="M202.65,370.143      c13.65,14.19,14.825,38.626,2.6,54.061c-4.969,6.274-12.387,11.221-20.385,10.943c-7.999-0.278-15.846-7.288-15.02-15.249      c0.56-5.4,4.711-9.821,9.395-12.566c11.801-6.917,27.637-5.058,38.609,3.112c10.972,8.169,17.185,21.787,17.995,35.442      c0.701,11.818-2.505,24.02-9.833,33.317c-7.329,9.297-18.926,15.379-30.76,15.055c-6.273-0.172-13.386-2.972-15.062-9.019      c-1.227-4.426,0.915-9.111,3.717-12.751c5.959-7.741,14.9-12.702,24.151-15.838c11.118-3.768,23.395-5.148,34.595-1.627      c7.955,2.501,14.941,7.305,22.014,11.721c16.476,10.288,34.646,18.934,54.032,20.146c30.973,1.936,61.629-16.783,76.261-44.15      c14.633-27.367,13.695-61.836-0.145-89.613"/>
				<path style="fill:#2E1144;" d="M388.849,359.94l1.949,8.682c1.007,4.487,5.542,7.238,9.987,6.059l1.426-0.378      c4.126-1.095,6.696-5.202,5.876-9.391l-1.647-8.421L388.849,359.94z"/>
			</g>
			<g>
				<g>
					<g>
						<g>
							<path style="fill:#B179FF;" d="M392.309,130.907l-46.932-77.248c0,0,1.891-0.892,5.161-2.378         c3.053-1.378,7.349-3.242,12.375-5.35c25.29-10.537,69.844-26.668,77.68-12.969         C451.616,52.254,392.309,130.907,392.309,130.907z"/>
							<path style="fill:#FF93E2;" d="M361.485,60.085c0,0,56.568-28.054,62.086-21.155c5.519,6.899-35.872,62.546-35.872,62.546         L361.485,60.085z"/>
						</g>
						<path style="fill:#2E1144;" d="M387.688,101.483l-37.151-50.201c3.053-1.378,7.349-3.242,12.375-5.35        c1.891,3.026,4.053,6.565,6.268,10.456C376.746,69.547,385.095,86.65,387.688,101.483z"/>
					</g>
					<g>
						<g>
							<path style="fill:#B179FF;" d="M187.77,117.451l53.551-69.057c0,0-1.719-1.064-4.696-2.85         c-2.782-1.658-6.704-3.92-11.3-6.496c-23.138-12.895-64.167-33.274-73.195-20.974         C139.424,35.398,187.77,117.451,187.77,117.451z"/>
							<path style="fill:#FF93E2;" d="M225.143,52.801c0,0-51.262-33.149-57.319-27.128c-6.058,6.021,27.601,64.013,27.601,64.013         L225.143,52.801z"/>
						</g>
						<path style="fill:#2E1144;" d="M195.434,89.694l41.19-44.149c-2.782-1.658-6.704-3.92-11.3-6.496        c-2.149,2.699-4.613,5.862-7.168,9.357C209.447,60.216,199.552,75.73,195.434,89.694z"/>
					</g>
					<g>
						<g>
							<g>
								<path style="fill:#B179FF;" d="M403.927,187.734c0,14.484-0.918,26.39-1.621,33.57c-0.405,4.077-0.757,6.629-0.837,7.254          l-16.076-1.926c0.027-0.15,0.351-2.576,0.757-6.754c0.621-6.754,1.459-18.161,1.459-31.944          c0-36.096-5.566-88.727-34.53-118.694c-15.428-15.984-35.287-23.539-60.874-23.188c-7.89,0.125-15.32,0.95-22.291,2.476          c-17.4,3.702-31.882,11.732-43.231,23.939c-42.474,45.676-30.045,135.354-29.91,136.254l-16.076,2.001          c-0.513-3.577-11.132-79.896,21.534-132.102c3.513-5.628,7.538-10.956,12.132-15.909          c19.048-20.512,45.176-31.168,77.599-31.668c30.072-0.475,54.741,9.055,73.222,28.216          C397.712,92.979,403.954,149.362,403.927,187.734z"/>
							</g>
							<path style="fill:#2E1144;" d="M403.927,187.734c0,14.484-0.918,26.39-1.621,33.57c-5.404,0.775-11.024,0.35-16.157-1.426         c0.621-6.754,1.459-18.161,1.459-31.944C393.038,187.359,398.55,186.934,403.927,187.734z"/>
							<path style="fill:#2E1144;" d="M269.912,48.528c-17.4,3.702-31.882,11.732-43.231,23.939         c-42.474,45.676-30.045,135.354-29.91,136.254l-16.076,2.001c-0.513-3.577-11.132-79.896,21.534-132.102         c10.186-7.729,19.948-16.728,31.864-22.181C244.846,51.486,257.97,49.954,269.912,48.528z"/>
						</g>
						<g>
							<g>
								<path style="fill:#B179FF;" d="M261.239,283.915c0,33.945-14.888,63.562-38.799,76.294h-0.027          c-8.025,4.253-17.022,6.629-26.857,6.629c-2.351,0-4.701-0.125-6.998-0.4c-1.756-0.2-3.486-0.475-5.188-0.801          c-33.369-6.704-58.74-40.373-58.74-80.872c0-41.249,26.317-75.394,60.577-81.197c2.053-0.35,4.134-0.6,6.241-0.725          c1.351-0.1,2.729-0.15,4.107-0.15c11.564,0,22.02,3.127,31.018,8.73c0.027-0.025,0.027-0.025,0.027,0          C248.081,224.731,261.239,251.971,261.239,283.915z"/>
							</g>
							<g>
								<ellipse style="fill:#2E1144;" cx="216.042" cy="285.296" rx="50.014" ry="75.576"/>
							</g>
							<g>
								<path style="fill:#B179FF;" d="M218.792,223.13c-21.048,0-38.178,27.891-38.178,62.161c0,34.295,17.13,62.186,38.178,62.186          c21.075,0,38.205-27.891,38.205-62.186C256.997,251.021,239.867,223.13,218.792,223.13z M218.792,345.076          c-19.616,0-35.611-26.816-35.611-59.785c0-32.969,15.995-59.785,35.611-59.785c19.643,0,35.611,26.816,35.611,59.785          C254.403,318.26,238.435,345.076,218.792,345.076z"/>
							</g>
							<g>
								<path style="fill:#2E1144;" d="M188.558,366.438c-1.756-0.2-3.486-0.475-5.188-0.801          c-18.454-15.084-36.989-40.824-38.016-83.723c-1-41.174,18.778-64.838,39.853-78.346c2.053-0.35,4.134-0.6,6.241-0.725          c-22.102,12.557-44.419,35.946-43.393,79.021C149.137,326.515,169.536,352.155,188.558,366.438z"/>
							</g>
						</g>
						<g>
							<g>
								<path style="fill:#2E1144;" d="M406.44,291.99c0,38.923,31.26,57.614,1.512,65.993c-1.783,0.525-3.593,0.951-5.404,1.276          c-1.945,0.35-3.918,0.6-5.917,0.726c-1.27,0.1-2.594,0.15-3.891,0.15c-2.486,0-4.917-0.15-7.295-0.475          c-8.079-1.076-15.509-3.927-22.075-8.255c-0.027,0.025-0.027,0.025-0.027,0c-20.345-13.308-32.801-40.548-32.801-72.492          c0-33.945,14.104-63.562,36.746-76.294h0.027c5.755-3.227,12.051-5.378,18.805-6.204c2.161-0.275,2.555,38.214,4.797,38.214          c2.216,0,13.935-6.449,16.096-6.174c1.675,0.2-4.331-31.59-2.737-31.264c1.324,0.275,2.621,0.6,3.918,1          C437.863,206.72,406.44,253.192,406.44,291.99z"/>
							</g>
							<g>
								<path style="fill:#B179FF;" d="M459.91,278.062c0,38.923-22.21,71.542-51.958,79.921c-1.783,0.525-3.593,0.951-5.404,1.276          c-1.135,0.2-2.297,0.375-3.458,0.5c-0.81,0.1-1.621,0.175-2.459,0.225c-0.189,0.025-0.351,0.025-0.54,0.025          c-1.108,0.1-2.243,0.125-3.35,0.125c-2.486,0-4.917-0.15-7.295-0.475c-20.508-16.61-32.828-46.302-32.828-80.597          c0-34.72,12.591-65.538,33.504-82.648c2.161-0.275,4.377-0.425,6.62-0.425c2.216,0,4.458,0.125,6.62,0.4          c1.108,0.125,2.189,0.3,3.242,0.5c0.568,0.075,1.135,0.2,1.675,0.3c0.351,0.075,0.703,0.15,1.054,0.25          c0.973,0.2,1.918,0.45,2.864,0.75C437.863,206.72,459.91,239.264,459.91,278.062z"/>
							</g>
							
								<ellipse style="fill:none;stroke:#2E1144;stroke-width:2.5159;stroke-miterlimit:10;" cx="426.446" cy="278.057" rx="20.35" ry="51.732"/>
							<g>
								<path style="fill:#2E1144;" d="M372.044,288.092c0.568,24.339,10.24,49.354,27.046,71.667          c-0.81,0.1-1.621,0.175-2.459,0.225c-0.189,0.025-0.351,0.025-0.54,0.025c-16.563-22.413-26.101-47.478-26.668-71.867          c-0.729-29.342,10.43-60.01,33.18-91.253c0.568,0.075,1.135,0.2,1.675,0.3c0.351,0.075,0.703,0.15,1.054,0.25          C382.528,228.508,371.342,258.976,372.044,288.092z"/>
							</g>
						</g>
					</g>
				</g>
				<g>
					<g>
						<path style="fill:#FFE7DE;" d="M425.79,221.026c1.005,0.721,2.07,1.41,3.273,1.702c1.203,0.292,2.579,0.126,3.496-0.704        c0.934-0.845,1.227-2.24,0.987-3.477c-0.846-4.361-8.992-10.688-13.784-9.241C412.934,211.369,423.29,219.232,425.79,221.026z        "/>
						<path style="fill:#FFE7DE;" d="M437.763,229.084c-0.128,1.243,0.504,2.423,1.115,3.512c2.683,4.783,5.366,9.566,8.049,14.349        c0.939,1.675,2.1,3.518,3.982,3.9c0.323,0.065,0.69,0.072,0.946-0.136c0.267-0.218,0.326-0.598,0.353-0.942        c0.416-5.305-2.122-10.353-4.707-15.005c-1.114-2.005-2.269-4.022-3.881-5.653        C442.15,227.624,438.169,225.127,437.763,229.084z"/>
					</g>
					<g>
						<path style="fill:#FFE7DE;" d="M385.768,111.942c-1.497,3.415-1.41,7.488,0.232,10.836c0.473,0.965,1.181,1.952,2.236,2.159        c0.843,0.165,1.727-0.234,2.314-0.863c0.587-0.628,0.916-1.454,1.135-2.286c0.796-3.022,0.227-6.376-1.521-8.966        C389.079,111.216,386.908,109.341,385.768,111.942z"/>
						<path style="fill:#FFE7DE;" d="M387.657,144.014c0.272,1.745,0.674,3.562,1.834,4.894c1.16,1.332,3.306,1.962,4.735,0.924        c0.827-0.601,1.248-1.607,1.548-2.584c1.165-3.797,1.759-13.757-3.135-15.59C386.863,129.493,387.198,141.07,387.657,144.014z        "/>
					</g>
				</g>
			</g>
			<g>
				<g>
					<path style="fill:#2E1144;" d="M340.755,407.659c-0.142,0.057-0.312,0.113-0.453,0.17c-0.454,0.17-0.907,0.312-1.36,0.453       c-19.325,5.979-39.896-10.399-52.93-23.915c-5.723-5.95-13.034-9.946-20.883-11.674c-0.51-0.142-0.992-0.227-1.502-0.312       h-0.028c-4.59-0.85-9.379-0.935-14.111-0.198l-102.375,15.868c-3.967,0.623-7.764,1.785-11.278,3.428       c-0.567,0.255-1.105,0.538-1.643,0.85c-9.974,5.157-17.625,14.281-21.025,25.445c-5.299,17.228-15.046,36.892-32.132,36.892       c-0.312,0-0.595,0-0.907-0.056c-0.482-0.028-0.963-0.113-1.445-0.227c-28.76-6.659-40.944-134.479,16.803-168.991       c59.334-35.447,172.958-31.99,201.86-24.595C339.792,271.65,372.576,395.362,340.755,407.659z"/>
				</g>
				<g>
					<g>
						<g>
							<path style="fill:#FF93E2;" d="M144.817,361.558c-3.854,9.719-6.857,19.721-8.982,29.922         c-0.567,0.255-1.105,0.538-1.643,0.85c2.182-10.654,5.27-21.138,9.294-31.31L144.817,361.558z"/>
						</g>
					</g>
					<g>
						<g>
							<path style="fill:#FF93E2;" d="M265.128,372.694c-0.51-0.142-0.992-0.227-1.502-0.312h-0.028         c-2.465-9.634-5.809-19.013-10.031-28.052l1.303-0.595C259.207,353.057,262.635,362.748,265.128,372.694z"/>
						</g>
					</g>
					<g>
						<g>
							<path style="fill:#FF93E2;" d="M80.128,454.611c-0.482-0.028-0.963-0.113-1.445-0.227l-2.012-18.078l1.388-0.142         L80.128,454.611z"/>
						</g>
					</g>
					<g>
						<g>
							<path style="fill:#FF93E2;" d="M340.302,407.829c-0.454,0.17-0.907,0.312-1.36,0.453c-1.077-7.651-2.805-15.188-5.185-22.527         l1.332-0.453C337.468,392.642,339.225,400.179,340.302,407.829z"/>
						</g>
					</g>
				</g>
				<g>
					<path style="fill:#FF93E2;" d="M340.755,393.662c-1.02,0.397-2.012,0.708-3.032,0.963c-0.453,0.142-0.907,0.227-1.36,0.312       c-18.56,3.882-37.913-11.646-50.352-24.567c-6.772-7.084-15.811-11.362-25.332-12.411c-0.51-0.056-1.048-0.113-1.558-0.142       c-3.174-0.227-6.404-0.113-9.634,0.397l-102.375,15.84c-2.522,0.397-4.959,1.02-7.282,1.842       c-0.567,0.17-1.105,0.368-1.672,0.595c-11.901,4.704-21.138,14.706-24.992,27.287c-5.299,17.228-15.046,36.921-32.132,36.921       c-0.85,0-1.672-0.113-2.493-0.34c-0.51-0.085-0.992-0.255-1.473-0.453c-12.241-4.845-21.138-31.934-22.3-63.499v-0.227       c-1.445-39.528,9.266-85.997,40.718-104.784c12.921-7.707,28.59-13.969,45.45-18.871c0.68-0.17,1.389-0.368,2.069-0.567       c31.99-9.039,67.976-13.232,97.671-13.431h2.182c25.133,0,45.45,2.918,54.489,8.274c25.133,14.876,51.173,72.652,54.8,111.414       v0.113C353.79,376.065,350.729,389.808,340.755,393.662z"/>
				</g>
				<g>
					<path style="fill:#2E1144;" d="M248.814,334.032c2.085,6.075-0.251,12.382-5.217,14.087       c-4.967,1.705-10.684-1.838-12.769-7.914c-2.085-6.075,0.251-12.382,5.218-14.087       C241.012,324.413,246.729,327.956,248.814,334.032z"/>
				</g>
				<g>
					<g>
						<ellipse style="fill:#2E1144;" cx="119.366" cy="325.362" rx="20.257" ry="24.778"/>
					</g>
					<g>
						
							<ellipse transform="matrix(0.9458 -0.3246 0.3246 0.9458 -83.2978 105.8677)" style="fill:#2E1144;" cx="275.632" cy="302.574" rx="20.257" ry="24.778"/>
					</g>
					<g>
						<path style="fill:#2E1144;" d="M175.257,348.976c-0.924,6.357-5.885,10.897-11.082,10.142        c-5.197-0.755-8.661-6.52-7.737-12.877c0.924-6.357,5.885-10.897,11.081-10.142        C172.717,336.854,176.181,342.619,175.257,348.976z"/>
					</g>
					<g>
						<path style="fill:#FFE7DE;" d="M224.934,314.514l-48.094,6.036c-3.766,0.473-7.202-2.197-7.675-5.963v0        c-0.473-3.766,2.197-7.202,5.963-7.675l48.094-6.036c3.766-0.473,7.202,2.197,7.675,5.963v0        C231.37,310.605,228.7,314.041,224.934,314.514z"/>
					</g>
					<g>
						<path style="fill:#FFE7DE;" d="M222.981,334.166c1.538,4.481-0.185,9.132-3.848,10.39c-3.663,1.257-7.88-1.356-9.417-5.837        c-1.538-4.481,0.185-9.132,3.848-10.39C217.226,327.072,221.443,329.685,222.981,334.166z"/>
					</g>
					<g>
						<path style="fill:#FFE7DE;" d="M197.668,340.124c-0.681,4.688-4.34,8.037-8.173,7.48c-3.833-0.557-6.387-4.809-5.706-9.497        c0.681-4.688,4.34-8.037,8.173-7.48C195.795,331.184,198.35,335.435,197.668,340.124z"/>
					</g>
				</g>
				<g>
					<path style="fill:#2E1144;" d="M242.857,238.526l-3.825,17.454l-2.522,11.561c-0.085,0.425-0.454,0.765-0.907,0.822       l-82.824,10.116c-0.057,0.028-0.085,0.028-0.142,0.028c-0.425,0-0.793-0.255-0.963-0.652l-5.072-11.957l-5.667-13.374       c0.68-0.17,1.389-0.368,2.069-0.567l5.695,13.431l4.619,10.881l81.294-9.917l2.239-10.342l3.825-17.483H242.857z"/>
				</g>
				<g>
					<g>
						<path style="fill:#2E1144;" d="M333.508,349.538c0,7.725-6.262,13.987-13.987,13.987c-7.725,0-13.987-6.262-13.987-13.987        c0-7.725,6.262-13.987,13.987-13.987C327.246,335.551,333.508,341.813,333.508,349.538z"/>
					</g>
					<g>
						
							<ellipse transform="matrix(0.845 -0.5347 0.5347 0.845 -192.0142 106.944)" style="fill:#2E1144;" cx="88.499" cy="384.746" rx="13.987" ry="13.987"/>
					</g>
				</g>
			</g>
		</g>
		<g>
			<path style="fill:#FFE7DE;" d="M349.802,212.411c5.968-0.352,11.936-0.869,17.905-1.858c-5.968-0.989-11.937-1.507-17.905-1.859     c-3.008-0.192-6.016-0.307-9.023-0.385c-1.598-0.041-3.12-0.687-4.25-1.817l-0.104-0.104c-1.142-1.142-1.788-2.683-1.815-4.298     c-0.067-3.962-0.195-7.923-0.447-11.885c-0.352-5.968-0.869-11.937-1.859-17.905c-0.989,5.968-1.507,11.937-1.858,17.905     c-0.24,3.757-0.365,7.514-0.434,11.271c-0.03,1.611-0.676,3.149-1.815,4.288l-0.717,0.717c-1.132,1.132-2.656,1.777-4.256,1.817     c-3.077,0.076-6.548,0.77-9.624,0.966c-5.968,0.35-11.296,0.69-17.511,1.287c6.559,0.782,11.456,0.95,17.424,1.3     c3.145,0.2,6.77,0.882,9.914,0.958c1.601,0.038,3.127,0.684,4.26,1.817l0.616,0.616c1.113,1.113,1.753,2.606,1.81,4.179     c0.08,2.198,0.187,4.396,0.326,6.594c0.35,5.968,0.87,11.937,1.866,17.905c0.995-5.968,1.515-11.937,1.866-17.905     c0.152-2.401,0.261-4.802,0.341-7.203c0.052-1.579,0.693-3.078,1.81-4.195h0c1.131-1.131,2.655-1.777,4.254-1.817     C343.651,212.723,346.727,212.607,349.802,212.411z"/>
			<path style="fill:#FFE7DE;" d="M266.315,170.072c5.968-0.352,11.937-0.869,17.905-1.858c-5.968-0.989-11.937-1.507-17.905-1.858     c-3.008-0.192-6.016-0.308-9.023-0.385c-1.598-0.041-3.12-0.687-4.25-1.817l-0.104-0.104c-1.142-1.142-1.788-2.683-1.815-4.298     c-0.067-3.962-0.195-7.923-0.447-11.885c-0.352-5.968-0.869-11.937-1.858-17.905c-0.989,5.968-1.507,11.936-1.859,17.905     c-0.24,3.757-0.365,7.514-0.434,11.271c-0.03,1.611-0.676,3.149-1.815,4.288l-0.718,0.718c-1.132,1.132-2.656,1.777-4.256,1.817     c-3.077,0.076-6.548,0.771-9.624,0.966c-5.968,0.35-11.296,0.69-17.511,1.287c6.559,0.783,11.456,0.95,17.424,1.3     c3.145,0.199,6.77,0.882,9.914,0.957c1.602,0.038,3.127,0.684,4.26,1.817l0.616,0.616c1.113,1.113,1.753,2.606,1.81,4.179     c0.08,2.198,0.187,4.396,0.326,6.594c0.35,5.968,0.87,11.937,1.866,17.905c0.995-5.968,1.515-11.937,1.865-17.905     c0.152-2.401,0.262-4.802,0.341-7.203c0.052-1.579,0.693-3.078,1.81-4.195h0c1.131-1.131,2.655-1.777,4.254-1.817     C260.164,170.384,263.24,170.268,266.315,170.072z"/>
			<path style="fill:#B179FF;" d="M113.717,222.749l28.814-27.913l-14.071-18.655l-14.981,12.809L98.71,175.233l-14.314,19.603     l29.136,27.822c0.006,0.156,0.01,0.261,0.01,0.261l0.131-0.126l0.042,0.04C113.714,222.832,113.715,222.795,113.717,222.749z"/>
			<path style="fill:#B179FF;" d="M318.832,122.491l28.814-27.913l-14.071-18.655l-14.981,12.809l-14.769-13.758l-14.314,19.603     l29.136,27.822c0.006,0.156,0.01,0.261,0.01,0.261l0.13-0.126l0.042,0.04C318.829,122.574,318.831,122.537,318.832,122.491z"/>
		</g>
	</g>
	<path style="fill:#B179FF;" d="M307.401,456.395l33.877-32.818l-16.544-21.933l-17.613,15.06l-17.364-16.176l-16.83,23.048   l34.256,32.711c0.007,0.184,0.012,0.307,0.012,0.307l0.153-0.148l0.049,0.047C307.398,456.493,307.4,456.45,307.401,456.395z"/>
</g>















</svg>
