<?xml version="1.0" encoding="UTF-8"?>
<!-- Generator: Adobe Illustrator 27.2.0, SVG Export Plug-In . SVG Version: 6.00 Build 0)  -->
<svg xmlns="http://www.w3.org/2000/svg" xmlns:xlink="http://www.w3.org/1999/xlink" version="1.1" id="Capa_1" x="0px" y="0px" viewBox="0 0 512 512" style="enable-background:new 0 0 512 512;" xml:space="preserve" width="512" height="512">
<g>
	<g>
		<path style="fill:#FFFFFF;" d="M238.254,491.057c-3.112,0-6.269-0.123-9.385-0.365c-0.628-0.046-1.256-0.132-1.873-0.26    c-0.535-0.057-1.214-0.091-1.878-0.134c-2.281-0.148-4.107-0.269-5.969-0.752c-2.573-0.408-4.919-0.848-7.146-1.342    c-21.171-4.679-42.084-14.814-62.148-30.125c-6.289-4.757-12.683-10.21-18.958-16.172c-4.598-4.373-9.029-9.009-13.175-13.779    c-2.671-3.072-5.279-6.263-7.75-9.481c-16.799-21.824-29.373-46.957-37.406-74.759c-4.028-2.651-7.864-5.223-11.465-7.854    c-18.286-13.429-32.757-46.538-45.568-104.212l-0.165-0.742c-1.476-6.625-1.976-11.942-1.494-16.377    c-0.399-2.684-0.087-5.356,0.882-7.804L3.225,165.132c-1.139-1.456-2.01-3.125-2.563-4.946c-1.179-3.881-0.775-7.988,1.14-11.564    c2.765-5.188,7.759-9.047,13.714-10.593l-0.095-0.672c-1.731-2.906-2.435-6.294-1.987-9.71c0.526-4.01,2.582-7.578,5.787-10.045    c4.956-3.807,10.822-5.814,16.978-5.814c1.59,0,3.204,0.137,4.8,0.406c9.049,1.52,17.786,7.193,25.071,16.174    c10.936,1.469,20.148,9.356,27.35,23.268c5.253-9.4,11.198-18.611,17.742-27.493c-4.957-16.424-16.86-30.017-32.721-37.033    c-5.07-2.244-8.34-7.267-8.338-12.811c0.002-5.544,3.275-10.566,8.346-12.805c11.161-4.927,23.027-7.426,35.271-7.426    c18.198,0,35.679,5.613,50.325,15.996c41.159-31.754,88.515-49.121,134.489-49.121c24.586,0,48.497,4.92,71.067,14.625    c12.593,5.419,24.721,12.38,36.145,20.741c6.435-1.488,13.018-2.24,19.654-2.24c12.244,0,24.112,2.499,35.27,7.426    c5.072,2.24,8.344,7.261,8.346,12.805c0.002,5.544-3.267,10.567-8.337,12.81c-5.156,2.281-9.994,5.338-14.331,9.031    c12.733,16.54,22.773,34.719,29.915,54.194c0.134,0.368,0.269,0.738,0.402,1.11c0.996-0.092,1.987-0.139,2.973-0.139    c0.64,0,1.276,0.02,1.904,0.059c7.865,0.482,14.961,4.097,19.956,10.176c2.571,3.129,3.771,7.074,3.376,11.106    c-0.336,3.428-1.789,6.571-4.14,9.016l-0.238,0.622c5.45,2.848,9.446,7.734,10.976,13.435c1.053,3.911,0.516,8.004-1.512,11.518    c-0.954,1.651-2.182,3.08-3.624,4.241l-17.607,32.468c-1.631,21.366-6.131,42.426-13.392,62.644    c-13.018,36.255-33.738,59.332-59.918,66.735c-6.299,1.788-12.375,2.497-18.251,3.182c-5.057,0.59-9.833,1.148-14.035,2.355    c-12.228,3.508-23.389,13.322-35.117,30.886c-0.136,0.212-0.277,0.422-0.424,0.629c-0.737,1.092-1.458,2.183-2.16,3.296    c-1.825,2.89-3.584,5.807-5.345,8.729l-1.361,2.256c-7.567,12.549-15.391,25.523-26.181,36.625    c-1.909,1.985-4.078,4.036-6.393,6.035C288.408,482.632,264.296,491.057,238.254,491.057z"/>
	</g>
	<g>
		<g>
			<g>
				<path style="fill:#EBB1FF;" d="M474.691,241.43c-1.33,21.097-5.671,42.031-12.812,61.915      c-9.009,25.088-24.878,50.736-50.55,57.994c-10.525,2.987-21.797,2.52-32.346,5.554c-18.554,5.321-32.276,20.607-43.082,36.85      c-0.887,1.307-1.75,2.614-2.59,3.944c-2.24,3.547-4.388,7.141-6.558,10.735c-7.375,12.229-17.538,17.484-27.34,27.566      c-1.75,1.82-12.784-1.26-14.698,0.397c-23.718,20.46-46.572,21.197-75.873,13.109c-31.188-8.609-56.417-17.518-77.461-41.71      c-2.497-2.871-8.273-3.166-10.583-6.177c-17.083-22.194-29.219-47.889-36.43-75.054c-5.881-21.961-8.542-44.878-8.075-67.68      c0.14-5.788,0.467-11.575,1.003-17.34c0.863-9.615,2.334-19.16,4.341-28.542c1.984-9.218,4.481-18.273,7.538-27.095      c0.56-1.634,1.144-3.244,1.75-4.878c3.571-9.522,7.841-18.857,12.742-27.982C152.327,72.814,263.695,6.885,363.79,49.92      c45.835,19.72,81.869,59.885,99.045,106.724c1.727,4.714,3.267,9.498,4.621,14.329c0.07,0.187,0.117,0.35,0.163,0.537      c2.801,10.035,4.784,20.281,5.998,30.643C475.181,215.152,475.532,228.314,474.691,241.43z"/>
			</g>
		</g>
		<g>
			<g>
				<g>
					<polygon style="fill:#FFC945;" points="204.762,240.901 201.249,194.656 217.57,238.068 252.212,231.914 224.842,248.762        239.471,277.188 214.592,255.822 190.035,286.577 201.023,252.484 173.418,247.118      "/>
				</g>
			</g>
			<g>
				<g>
					<circle style="fill:#FBEEE5;" cx="268.083" cy="142.797" r="73.23"/>
				</g>
				<g>
					<path style="fill:#FBEEE5;" d="M454.733,209.799c-9.05,3.997-19.073,6.233-29.613,6.233c-40.444,0-73.226-32.782-73.226-73.226       c0-40.444,32.782-73.247,73.226-73.247c10.541,0,20.564,2.237,29.613,6.233c-25.699,11.369-43.633,37.11-43.633,67.014       S429.034,198.429,454.733,209.799z"/>
				</g>
				<g>
					<path style="fill:#FBEEE5;" d="M83.825,209.799c9.05,3.997,19.073,6.233,29.614,6.233c40.444,0,73.226-32.782,73.226-73.226       c0-40.444-32.782-73.247-73.226-73.247c-10.541,0-20.564,2.237-29.614,6.233c25.7,11.369,43.633,37.11,43.633,67.014       S109.524,198.429,83.825,209.799z"/>
				</g>
			</g>
			<g>
				<g>
					<g>
						<path style="fill:#FF9393;" d="M215.456,423.628c-7.888,25.952-35.427,27.865-57.388,24.808        c-6.231-4.714-0.78-16.543-6.428-21.911c-4.294-4.084-19.757-1.637-23.631-6.094c-0.233-4.784-0.56-10.035-0.98-15.31        c-0.957-11.996-2.404-24.201-4.644-31.786c-4.224-14.399-21.774-26.138-38.017-36.78c-5.414-3.547-10.689-6.978-15.286-10.339        c-22.848-16.78-36.57-79.792-40.327-96.688c-2.427-10.899-1.05-14.469,0.233-15.636c0.7-0.653,1.377-0.56,1.377-0.56        l-15.473-56.057c1.144-1.33,2.334-2.264,3.501-2.87c6.488-3.431,12.882,2.754,13.513,3.384        c0.023,0.023,0.023,0.047,0.047,0.047l-3.757-26.722c14.609-11.716,29.919,12.999,29.919,12.999        c18.974-5.088,28.892,27.772,32.813,46.909c0.98,4.738,1.587,8.635,1.867,10.899c1.447,11.436,6.931,16.477,19.65,31.949        s40.164,26.022,40.164,26.022c0.047-0.21,0.093-0.42,0.117-0.63c0.047-0.373,0.163-0.957,0.303-1.867        c0.023-0.023,0.023-0.047,0.023-0.07c0.187-1.12,0.467-2.754,0.863-5.088c0.35-2.054-0.373-5.181-1.54-9.078        c-2.404-7.865-6.744-18.857-8.098-30.432c0-0.023,0-0.07-0.023-0.093c-0.467-3.967-0.583-8.005-0.163-11.996        c0.677-6.208,2.1-10.782,3.804-14.166c4.224-8.355,10.082-9.382,10.082-9.382s50.549,117.062,56.617,134.542        c6.068,17.48-4.318,41.915-8.378,65.462c-0.397,2.241-0.63,4.504-0.7,6.721C204.604,404.817,215.456,423.628,215.456,423.628z        "/>
					</g>
					<g>
						<g>
							<path style="fill:#2F2444;" d="M136.514,318.857c-0.595,0-1.103-0.453-1.16-1.057c-0.879-9.305,4.346-23.665,9.4-37.551         c2.81-7.723,5.465-15.018,6.718-20.618c2.232-9.976-1.148-21.457-4.728-33.613c-1.833-6.226-3.729-12.664-4.911-19.104         c-3.573-19.465,15.354-30.732,15.545-30.844c0.556-0.324,1.269-0.136,1.594,0.421c0.325,0.556,0.137,1.271-0.419,1.595         c-0.177,0.104-17.699,10.571-14.425,28.406c1.16,6.32,3.038,12.698,4.854,18.867c3.667,12.454,7.13,24.217,4.766,34.782         c-1.286,5.748-3.965,13.111-6.802,20.907c-4.734,13.008-10.1,27.752-9.27,36.533c0.061,0.642-0.41,1.211-1.052,1.272         C136.588,318.855,136.551,318.857,136.514,318.857z"/>
						</g>
						<g>
							<path style="fill:#2F2444;" d="M98.058,245.873c-0.322,0-0.643-0.133-0.874-0.393c-0.72-0.812-17.69-20.056-23.265-34.684         c-2.278-5.978-4.314-16.035-6.469-26.683c-3.099-15.309-6.611-32.661-11.401-39.931         c-5.348-8.118-11.925-13.364-18.044-14.392c-3.365-0.567-6.426,0.189-9.1,2.244c-0.511,0.393-1.243,0.297-1.636-0.214         c-0.393-0.511-0.297-1.244,0.214-1.636c3.164-2.43,6.937-3.36,10.909-2.695c6.757,1.136,13.903,6.752,19.607,15.41         c5.038,7.648,8.445,24.477,11.739,40.752c2.136,10.551,4.153,20.517,6.362,26.315c5.422,14.228,22.657,33.771,22.831,33.967         c0.427,0.482,0.383,1.22-0.1,1.647C98.609,245.776,98.333,245.873,98.058,245.873z"/>
						</g>
						<g>
							<path style="fill:#2F2444;" d="M83.098,259.022c-0.292,0-0.584-0.109-0.811-0.328c-0.195-0.188-19.589-19.12-26.961-42.472         c-0.937-2.969-1.879-6.019-2.829-9.094c-6.224-20.152-13.279-42.994-21.199-48.314c-5.802-3.899-9.673-4.055-11.896-3.501         c-1.57,0.392-2.837,1.303-3.476,2.501c-0.304,0.569-1.011,0.783-1.579,0.48c-0.568-0.304-0.784-1.01-0.481-1.579         c0.949-1.779,2.76-3.115,4.97-3.667c2.686-0.67,7.251-0.549,13.764,3.827c8.604,5.781,15.479,28.038,22.127,49.563         c0.948,3.07,1.889,6.115,2.825,9.08c7.196,22.794,26.167,41.312,26.357,41.497c0.463,0.448,0.476,1.186,0.028,1.65         C83.709,258.903,83.403,259.022,83.098,259.022z"/>
						</g>
						<g>
							<path style="fill:#2F2444;" d="M70.668,276.797c-0.271,0-0.543-0.094-0.765-0.286         c-11.613-10.083-16.929-25.329-20.598-38.912c-1.433-5.304-3.1-10.857-6.305-15.338c-3.831-5.356-9.019-7.97-14.229-7.161         c-0.641,0.094-1.233-0.338-1.332-0.975c-0.098-0.637,0.338-1.233,0.975-1.331c6.118-0.942,12.122,2.012,16.484,8.11         c3.431,4.797,5.171,10.578,6.659,16.087c3.577,13.244,8.735,28.086,19.875,37.758c0.486,0.423,0.539,1.16,0.116,1.646         C71.318,276.661,70.994,276.797,70.668,276.797z"/>
						</g>
						<g>
							<path style="fill:#2F2444;" d="M64.406,289.989c-0.151,0-0.304-0.029-0.452-0.091c-0.594-0.25-0.873-0.935-0.623-1.528         c7.599-18.047,22.459-32.757,35.571-45.736l2.78-2.755c0.457-0.454,1.196-0.452,1.65,0.005         c0.454,0.458,0.452,1.196-0.005,1.65l-2.784,2.759c-12.957,12.826-27.643,27.363-35.061,44.983         C65.294,289.721,64.861,289.989,64.406,289.989z"/>
						</g>
					</g>
				</g>
				<g>
					<path style="fill:#2F2444;" d="M229.715,476.651c0,0-1.4,0.187-3.804,0.49c-0.84,0.117-1.82,0.234-2.894,0.374       c-2.777-0.397-5.531-0.887-8.262-1.494c-20.701-4.574-39.744-14.656-56.687-27.585c-6.231-4.714-12.159-9.825-17.807-15.193       c-4.294-4.084-8.378-8.355-12.252-12.812c-2.497-2.871-4.901-5.811-7.211-8.822l-0.28-7.235c0,0,2.917-0.723,6.511,0.747       c3.921,1.634,8.658,5.928,11.272,16.733c0,0,7.375-26.325,17.433-24.948c10.059,1.354,16.78,22.801,16.78,22.801       s-4.107-24.225,6.395-28.799c10.502-4.574,17.783,25.251,17.783,25.251s-2.054-27.048,8.822-32.346       c0.817-0.397,1.704-0.677,2.684-0.817l15.263,66.373L229.715,476.651z"/>
				</g>
				<g>
					<g>
						<g>
							<path style="fill:#FF9393;" d="M474.691,241.43l-5.881,10.852c0,0,0.654,0.07,1.214,0.84v0.023         c1.004,1.424,1.493,5.228-3.314,15.263c-7.468,15.613-35.077,73.887-61.098,85.066         c-20.864,8.962-52.767,16.406-62.592,33.863c-2.31,4.131-4.761,9.942-7.095,16.383l-0.023,0.023         c-0.887,1.307-1.75,2.614-2.59,3.944c-2.24,3.547-4.388,7.141-6.558,10.735c-7.375,12.229-17.141,22.251-26.943,32.333         c-23.104-0.303-56.676-3.674-58.823-35.437c0,0,9.148-9.779,14.959-23.991c2.381-5.811,4.178-12.346,4.574-19.254         c1.377-23.875-3.244-50.013,6.605-65.672c9.872-15.66,85.579-118.276,85.579-118.276s0,0,0.023,0.023         c0.397,0.163,5.461,2.614,7.585,11.202c0,0,0.023,0.023,0.023,0.047c0.933,3.687,1.33,8.518,0.56,14.796         c-0.49,3.944-1.47,7.771-2.801,11.482c0,0,0.023,0.023,0,0.023c-3.944,11.109-10.735,20.957-14.913,28.122v0.023         c-2.007,3.477-3.407,6.325-3.524,8.402c-0.14,2.427-0.233,4.084-0.303,5.228c-0.023,0.023,0,0.047,0,0.047         c-0.047,0.887-0.094,1.47-0.117,1.844c-0.023,0.21-0.023,0.42-0.023,0.63c0,0,29.126-4.061,44.995-16.266         c15.893-12.182,22.381-15.87,26.372-26.675c3.991-10.805,25.182-60.025,46.839-48.473c0,0,4.271-4.317,10.035-7.608         c6.838-3.874,15.753-6.301,22.031,1.68l-9.685,25.205c0.023,0,0.023-0.023,0.047-0.023c0.654-0.42,8.402-5.158,14.003-0.233         c0.023,0.023,0.023,0.023,0.023,0.023c0.98,0.863,1.867,2.03,2.66,3.524L474.691,241.43z"/>
						</g>
						<g>
							<g>
								<path style="fill:#2F2444;" d="M341.829,331.115c-0.122,0-0.247-0.019-0.369-0.06c-0.611-0.204-0.941-0.865-0.737-1.476          c2.791-8.368,0.895-23.943-0.778-37.685c-1.003-8.234-1.95-16.012-1.904-21.901c0.085-10.826,6.115-21.503,12.5-32.806          c3.162-5.599,6.433-11.388,8.99-17.283c7.233-16.668-7.485-30.789-7.635-30.93c-0.469-0.441-0.491-1.18-0.05-1.649          c0.442-0.469,1.18-0.492,1.649-0.05c0.161,0.152,16.055,15.403,8.176,33.558c-2.606,6.007-5.907,11.851-9.099,17.501          c-6.232,11.033-12.118,21.455-12.198,31.677c-0.045,5.738,0.894,13.444,1.887,21.602c1.786,14.67,3.634,29.839,0.675,38.705          C342.773,330.806,342.317,331.115,341.829,331.115z"/>
							</g>
							<g>
								<path style="fill:#2F2444;" d="M395.78,268.704c-0.365,0-0.725-0.171-0.952-0.491c-0.373-0.525-0.25-1.254,0.275-1.627          c0.213-0.151,21.417-15.296,29.912-27.931c3.462-5.149,7.679-14.401,12.142-24.196          c6.887-15.111,14.007-30.736,20.643-37.049c7.513-7.145,15.732-10.991,22.581-10.583c4.021,0.247,7.485,2.007,10.018,5.09          c0.409,0.498,0.337,1.233-0.161,1.643c-0.498,0.409-1.233,0.337-1.642-0.161c-2.141-2.605-4.953-4.033-8.358-4.242          c-6.185-0.378-13.785,3.244-20.828,9.944c-6.309,6-13.65,22.111-20.128,36.325c-4.505,9.885-8.76,19.222-12.328,24.53          c-8.734,12.991-29.613,27.903-30.498,28.532C396.25,268.633,396.014,268.704,395.78,268.704z"/>
							</g>
							<g>
								<path style="fill:#2F2444;" d="M407.383,284.893c-0.397,0-0.782-0.202-1.001-0.566c-0.332-0.552-0.153-1.269,0.4-1.601          c0.228-0.137,22.9-13.907,35.05-34.471c1.581-2.675,3.184-5.428,4.801-8.203c11.339-19.468,23.065-39.599,32.753-43.287          c7.335-2.793,11.811-1.878,14.272-0.619c2.027,1.036,3.49,2.747,4.013,4.694c0.167,0.622-0.202,1.262-0.824,1.429          c-0.62,0.169-1.263-0.201-1.43-0.825c-0.352-1.311-1.38-2.484-2.82-3.221c-2.043-1.044-5.847-1.765-12.381,0.722          c-8.918,3.395-20.95,24.054-31.566,42.281c-1.619,2.779-3.225,5.536-4.808,8.216          c-12.457,21.084-35.626,35.145-35.858,35.285C407.794,284.839,407.587,284.893,407.383,284.893z"/>
							</g>
							<g>
								<path style="fill:#2F2444;" d="M415.477,305.015c-0.418,0-0.822-0.225-1.032-0.621c-0.302-0.57-0.084-1.276,0.485-1.578          c13.036-6.906,21.414-20.199,27.891-32.293c2.693-5.03,5.693-10.268,10.12-14.167c5.627-4.956,12.15-6.479,17.89-4.177          c0.599,0.239,0.89,0.919,0.649,1.517c-0.239,0.598-0.922,0.89-1.517,0.649c-4.896-1.96-10.538-0.589-15.48,3.762          c-4.136,3.643-7.014,8.676-9.606,13.518c-6.642,12.403-15.264,26.054-28.855,33.253          C415.848,304.972,415.661,305.015,415.477,305.015z"/>
							</g>
							<g>
								<path style="fill:#2F2444;" d="M418.594,319.28c-0.558,0-1.051-0.401-1.15-0.969c-3.245-18.839-14.267-36.317-23.991-51.738          l-2.09-3.318c-0.343-0.546-0.178-1.266,0.368-1.609c0.544-0.342,1.266-0.178,1.608,0.368l2.087,3.314          c9.84,15.604,20.993,33.291,24.318,52.587c0.109,0.635-0.317,1.239-0.952,1.348          C418.726,319.275,418.659,319.28,418.594,319.28z"/>
							</g>
						</g>
					</g>
					<g>
						<path style="fill:#2F2444;" d="M326.753,418.423c-7.375,12.229-14.726,24.505-24.528,34.587        c-1.75,1.82-3.594,3.547-5.508,5.204c-18.18,15.683-43.035,21.891-67.119,20h-0.023c-1.283-0.373-6.059-0.418-7.226-0.744        c-7.258-2.1-8.55-3.83-8.55-3.83l9.662-24.271l25.858-65.019c3.337,1.004,5.391,3.617,6.628,6.978        c3.571,9.825,0.023,26.092-0.28,27.468c0.724-1.68,12.019-28.099,21.401-22.171c9.428,5.951,2.357,28.169,1.96,29.382        c0.583-1.19,10.222-20.117,20.024-19.93c10.152,0.163,13.443,27.305,13.443,27.305        C316.905,422.624,322.553,419.263,326.753,418.423z"/>
					</g>
				</g>
			</g>
			<g>
				<g>
					<polygon style="fill:#FFC945;" points="252.401,396.144 269.899,353.193 265.127,399.325 298.873,409.28 266.861,412.14        267.264,444.108 254.537,413.883 218.835,430.444 243.884,404.84 221.578,387.716      "/>
				</g>
			</g>
			<g>
				<path style="fill:#FFFFFF;" d="M364.557,87.065c-4.88-2.628-8.499-7.21-10.822-12.243c-2.322-5.032-3.252-9.67-4.101-15.148      c-1.162,5.778-2.924,11.483-5.805,16.625c-2.882,5.141-6.934,9.713-12.037,12.661c4.705,0.774,8.533,3.403,11.435,7.186      c1.414,1.843,2.387,3.986,3.198,6.163c1.251,3.363,2.142,6.86,2.651,10.412c1.066-5.013,2.35-10.483,5.104-14.806      C356.932,93.593,359.739,88.813,364.557,87.065z"/>
			</g>
			<g>
				<path style="fill:#FFFFFF;" d="M384.22,261.651c-4.88-2.628-8.499-7.21-10.822-12.243c-2.322-5.033-3.252-9.671-4.101-15.148      c-1.162,5.778-2.924,11.483-5.805,16.625c-2.882,5.141-6.934,9.713-12.037,12.661c4.705,0.774,8.533,3.403,11.435,7.186      c1.414,1.843,2.387,3.986,3.198,6.163c1.251,3.363,2.141,6.86,2.651,10.412c1.066-5.013,2.35-10.483,5.104-14.806      C376.595,268.18,379.402,263.4,384.22,261.651z"/>
			</g>
			<g>
				<path style="fill:#FFFFFF;" d="M181.629,322.429c-4.88-2.628-8.499-7.21-10.821-12.242c-2.322-5.033-3.252-9.671-4.101-15.148      c-1.162,5.778-2.924,11.483-5.806,16.625c-2.881,5.141-6.934,9.713-12.037,12.661c4.705,0.774,8.533,3.403,11.435,7.186      c1.414,1.843,2.388,3.986,3.198,6.163c1.251,3.363,2.142,6.86,2.651,10.412c1.066-5.013,2.35-10.483,5.104-14.806      C174.004,328.957,176.811,324.177,181.629,322.429z"/>
			</g>
		</g>
	</g>
</g>















</svg>
