<?xml version="1.0" encoding="UTF-8"?>
<!-- Generator: Adobe Illustrator 27.3.1, SVG Export Plug-In . SVG Version: 6.00 Build 0)  -->
<svg xmlns="http://www.w3.org/2000/svg" xmlns:xlink="http://www.w3.org/1999/xlink" version="1.1" id="Capa_1" x="0px" y="0px" viewBox="0 0 512 512" style="enable-background:new 0 0 512 512;" xml:space="preserve" width="512" height="512">
<g>
	<path style="fill:#FFFFFF;" d="M309.923,512c-33.046,0-67.588-7.892-99.892-22.824c-1.583-0.732-3.167-1.482-4.749-2.238   c-7.965-0.888-15.611-1.914-22.86-3.065c-12.893,18.071-19.756,23.328-28.785,23.328c-2.74,0-5.477-0.641-7.913-1.852   c-8.704-4.328-11.721-12.824-13.165-32.307c-0.482,0.007-0.956,0.009-1.426,0.009c-2.163,0-4.173-0.067-6.145-0.202   c-37.009-2.401-72.506-30.913-94.884-76.264C10.577,356.974,2.405,311.101,6.472,263.921c0.076-1.063,0.198-2.36,0.322-3.657   c3.661-36.663,14.729-72.277,32.014-103.065c0.448-0.815,0.967-1.751,1.514-2.686c3.234-5.613,6.781-11.216,10.481-16.546   c12.097-17.44,26.594-33.335,43.085-47.239c3.324-2.819,6.855-5.638,10.76-8.591c5.12-3.856,10.249-7.426,15.274-10.631   c16.899-10.868,35.518-19.581,55.29-25.866c0.712-0.238,1.638-0.516,2.564-0.79c23.588-7.198,48.673-10.865,74.434-10.865   c6.15,0,12.372,0.213,18.578,0.637C287.665,18.104,308.507,6.349,331.32,0.52c1.366-0.35,2.754-0.52,4.13-0.52   c4.256,0,8.41,1.628,11.557,4.647c4.162,3.997,5.966,9.859,4.768,15.503c-2.216,10.451-2.751,21.086-1.601,31.725   c11.546,4.34,22.773,9.431,33.486,15.191c32.381,17.406,60.23,42.87,81.07,74.025c3.694-0.513,7.32-1.222,10.845-2.124   c1.366-0.349,2.754-0.519,4.13-0.519c4.256,0,8.41,1.628,11.557,4.648c4.162,3.995,5.966,9.858,4.768,15.503   c-1.881,8.864-4.684,17.548-8.357,25.908c14.918,36.709,21.175,77.37,18.119,118.11c-2.647,34.744-11.809,68.906-26.503,98.837   c-0.437,0.956-0.899,1.889-1.365,2.818c-18.951,37.49-45.799,66.807-77.693,84.886c-1.729,0.964-3.36,1.869-5.018,2.715   c-0.884,0.471-1.951,1.028-3.06,1.543c-3.087,1.537-6.281,3.001-9.555,4.38c-1.612,4.636-4.453,9.226-9.863,11.917   c-2.43,1.21-5.167,1.851-7.909,1.851c0,0,0,0-0.001,0c-4.651,0-8.566-1.695-12.021-4.233C339.049,510.431,324.667,512,309.923,512z   "/>
	<g>
		<g>
			<path style="fill:#977BFF;" d="M489.945,301.55c-2.448,32.123-10.875,64.358-24.948,92.949c-0.389,0.862-0.807,1.696-1.224,2.531     c-16.521,32.679-40.411,60.464-70.977,77.791c-1.446,0.806-2.892,1.613-4.366,2.364c-0.89,0.473-1.78,0.946-2.698,1.363     c-52.009,26.005-114.893,20.164-167.903-4.339c-16.604-7.676-33.013-17.216-51.063-18.857     c-13.239-1.224-26.561,1.947-39.827,1.029c-35.572-2.308-64.358-33.124-81.073-67c-18.634-37.797-25.643-81.267-21.972-123.848     c0.083-1.168,0.195-2.336,0.306-3.504c3.393-33.959,13.545-67.25,29.954-96.481c0.445-0.807,0.89-1.613,1.363-2.42     c3.059-5.312,6.313-10.458,9.79-15.464c11.459-16.521,25.059-31.289,40.133-43.999c3.282-2.781,22.833,30.923,26.254,28.336     c4.617-3.477,16.819-5.789,21.658-8.876c16.131-10.374,6.205-22.348,24.144-28.049c0.751-0.25,5.068-33.824,5.819-34.047     c63.356-19.33,134.778-10.513,193.24,20.915C453.594,123.356,496.842,209.63,489.945,301.55z"/>
		</g>
		<g>
			<g>
				<g>
					<g>
						<path style="fill:#FFFFFF;" d="M464.997,394.498c-0.389,0.862-0.807,1.696-1.224,2.531        c-7.342-4.533-13.489-10.875-18.523-16.604c-1.418-1.613-2.837-3.282-4.255-4.951c-7.287-8.538-14.796-17.355-24.614-22.611        c-14.685-7.815-34.599-6.508-49.561,3.254c-7.704,5.034-13.572,11.653-16.993,19.163c-5.284,11.681-4.283,26.227,2.587,37.046        c1.697,2.67,3.755,5.201,5.757,7.621c2.67,3.282,5.451,6.675,7.454,10.569c2.475,4.756,3.699,10.012,4.867,15.102        c0.723,3.059,1.446,6.23,2.447,9.206c2.92,8.761,8.372,16.548,15.492,22.361c-0.89,0.473-1.78,0.946-2.698,1.363        c-7.064-6.035-12.46-13.99-15.436-22.862c-1.029-3.087-1.78-6.313-2.503-9.456c-1.196-5.117-2.308-9.985-4.645-14.435        c-1.863-3.615-4.422-6.758-7.148-10.068c-2.03-2.503-4.144-5.117-5.924-7.899c-7.37-11.598-8.455-27.2-2.781-39.716        c3.616-7.982,9.845-15.019,17.995-20.331c16.048-10.457,36.601-11.792,52.398-3.365c10.291,5.479,17.967,14.518,25.42,23.251        c1.418,1.669,2.809,3.31,4.255,4.951C452.176,384.097,458.044,390.188,464.997,394.498z"/>
					</g>
				</g>
				<g>
					<g>
						<path style="fill:#FFFFFF;" d="M166.154,224.816c0.361,16.826-11.486,33.264-27.59,38.214        c-15.38,4.7-31.344-0.445-46.752-5.423c-16.076-5.201-31.261-10.096-45.974-4.978c-5.896,2.058-11.236,5.702-16.409,9.206        c-1.836,1.251-3.671,2.503-5.535,3.699c0.083-1.168,0.195-2.336,0.306-3.504c1.224-0.834,2.447-1.641,3.671-2.475        c5.312-3.616,10.819-7.37,17.049-9.54c15.575-5.451,31.929-0.167,47.726,4.951c15.047,4.839,30.566,9.873,45.112,5.396        c14.935-4.589,25.949-19.83,25.615-35.489c-0.361-15.63-12.043-30.371-27.173-34.292c-7.982-2.086-16.548-1.363-24.836-0.668        c-2.197,0.167-4.394,0.362-6.591,0.473c-9.039,0.556-22.111,0.389-31.4-7.37c-2.392-2.002-4.394-4.422-6.313-6.758        c-1.613-1.919-3.282-3.949-5.118-5.646c-2.253-2.058-4.867-3.755-7.787-5.062c0.445-0.807,0.89-1.613,1.363-2.42        c3.087,1.391,5.868,3.226,8.288,5.451c2.002,1.808,3.727,3.894,5.395,5.924c1.919,2.336,3.755,4.533,5.952,6.397        c6.48,5.396,15.825,7.537,29.453,6.731c2.169-0.139,4.367-0.334,6.536-0.501c8.51-0.695,17.299-1.446,25.754,0.751        C153.194,192.108,165.765,207.989,166.154,224.816z"/>
					</g>
				</g>
			</g>
			<g>
				<g>
					<path style="fill:#F7EDE5;" d="M480.501,155.314c-4.398,20.729-14.436,40.479-30.187,56.891       c-44.964,46.85-119.405,48.405-166.255,3.44c-46.876-44.989-48.38-119.43-3.416-166.28       c15.751-16.412,35.072-27.252,55.603-32.498c-8.162,38.461,3.138,80.152,33.603,109.389       C400.313,155.495,442.408,165.048,480.501,155.314z"/>
				</g>
				<g>
					<g>
						<g>
							<g>
								<path style="fill:#302945;" d="M430.189,348.032c-0.616-5.644-4.128-10.441-8.942-12.219          c-2.425-0.897-5.137-1.081-8.545-0.582c-8.319,1.216-15.561,5.461-21.888,10.216c-0.748-2.408-1.472-4.691-2.149-6.782          c8.202-3.563,12.089-6.227,12.089-13.151v-3.734c0-7.328-5.941-13.27-13.27-13.27H125.614          c-7.329,0-13.269,5.941-13.269,13.27v3.734c0,7.329,6.341,11.633,13.269,13.27h0.982c-0.874,2.491-1.814,5.229-2.792,8.158          c-6.772-5.341-14.657-10.368-23.843-11.711c-3.408-0.499-6.119-0.314-8.545,0.582c-4.814,1.777-8.326,6.575-8.942,12.219          c-0.476,4.355,0.706,9.118,3.417,13.774c5.222,8.963,14.346,15.561,27.672,20.094c-5.651,23.03-8.821,46.6-2.174,57.52          c4.797,7.881,18.68,14.776,37.939,20.295c0.481,11.763,1.688,29.412,4.624,30.872c3.215,1.599,15.233-15.348,21.6-24.789          c49.998,9.349,118.249,11.443,167.502,2.206c5.78,8.693,19.566,28.677,23.045,26.947c3.227-1.605,4.365-22.76,4.747-34.168          c13.775-4.88,24.353-11.216,30.18-19.181c7.801-10.664,4.948-35.854-0.502-60.217c12.54-4.515,21.217-10.944,26.247-19.579          C429.483,357.15,430.665,352.386,430.189,348.032z M91.431,358.58c-1.407-2.414-2.996-6.084-2.585-9.85          c0.349-3.201,2.275-5.975,4.791-6.905c1.377-0.51,3.098-0.592,5.398-0.252c8.478,1.24,16.094,6.528,22.64,11.885          c-2.192,6.853-4.459,14.43-6.519,22.209C103.623,371.664,95.784,366.055,91.431,358.58z M421.232,358.58          c-4.155,7.135-11.485,12.569-22.167,16.531c-1.974-8.151-4.163-16.042-6.262-23.107c6.128-4.826,13.12-9.304,20.824-10.431          c2.3-0.34,4.021-0.258,5.398,0.252c2.516,0.93,4.442,3.704,4.791,6.905C424.229,352.496,422.639,356.165,421.232,358.58z"/>
							</g>
							<g>
								<path style="fill:#DBB0FF;" d="M128.708,312.194h254.863c0,0-42.136,19.227-126,18.409          C173.708,329.784,128.708,312.194,128.708,312.194z"/>
							</g>
							<g>
								<path style="fill:#DBB0FF;" d="M126.596,338.784c10.843,2.059,21.708,3.948,32.615,5.562          c10.893,1.684,21.804,3.248,32.753,4.467c21.874,2.58,43.845,4.392,65.836,4.715c21.976,0.437,44.003-0.797,65.875-3.171          c10.945-1.154,21.854-2.698,32.694-4.646c10.853-1.88,21.647-4.15,32.296-7.046c-20.972,6.957-42.783,11.214-64.693,14.139          c-10.96,1.503-21.99,2.476-33.036,3.098c-11.042,0.701-22.113,0.906-33.189,0.826c-22.131-0.593-44.212-2.368-66.095-5.481          C169.769,348.153,148.009,344.174,126.596,338.784z"/>
							</g>
							<g>
								<path style="fill:#F7EDE5;" d="M285.389,440.882c-4.733,2.303-10.054,3.582-15.683,3.582          c-19.956,0-36.15-16.169-36.15-36.125c0-19.981,16.194-36.15,36.15-36.15c5.628,0,10.95,1.279,15.683,3.582          c-12.101,5.833-20.467,18.216-20.467,32.568C264.922,422.665,273.288,435.048,285.389,440.882z"/>
							</g>
						</g>
						<g>
							<g>
								<path style="fill:#F7EDE5;" d="M371.454,353.266c-2.092,0.869-3.621,2.8-4.39,4.931c-0.769,2.131-0.853,4.452-0.68,6.711          c0.26,3.403,1.155,6.898,3.397,9.472c2.242,2.573,6.074,3.966,9.208,2.613c1.593-0.688,2.863-2.003,3.711-3.517          c1.668-2.978,1.747-6.658,0.823-9.944C382.119,358.536,378.022,350.537,371.454,353.266z"/>
							</g>
							<g>
								<path style="fill:#F7EDE5;" d="M373.968,388.494c-2.867,3.275-3.988,7.821-3.761,12.167          c0.227,4.346,1.689,8.539,3.478,12.507c1.321,2.931,3.038,5.982,5.979,7.28c4.207,1.855,9.354-0.875,11.539-4.92          c2.185-4.045,2.058-8.934,1.357-13.478c-0.737-4.779-2.048-9.47-3.894-13.939          C386.068,381.824,377.56,384.39,373.968,388.494z"/>
							</g>
						</g>
					</g>
					<g>
						<g>
							<g>
								<path style="fill:#FF9191;" d="M221.751,265.283l-0.528-0.751l-12.043-17.327v-0.028l-20.748-29.815l-0.278-0.389          l1.418,27.451v0.028c0,0,0.028,0.028,0.083,0.083c1.446,1.474,24.753,25.309,30.51,34.209          c0.028,0.028,0.028,0.028,0.056,0.056c0.028,0.056,0.056,0.139,0.111,0.195c1.724,2.781,1.53,6.035,0.362,9.234          c0,0.083-0.028,0.167-0.083,0.25c-2.336,6.258-8.177,12.182-9.484,13.517c-0.167,0.139-0.25,0.195-0.25,0.195l-12.376-9.595          l-0.417-0.334c-0.278,1.975-1.029,3.616-1.975,4.978l-0.111,0.111c-3.449,4.784-9.818,6.091-10.596,6.23          c-0.028,0-0.056,0-0.084,0.028l-0.584-0.806l-0.222-0.306l-21.721-29.37l-0.056-0.056l-0.139-0.222          c0,0-1.224-0.807-3.282-2.169l-0.111-0.056c-0.306-0.195-0.64-0.417-0.973-0.64c-12.432-8.232-47.364-31.428-50.09-34.543          c-3.31-3.783-0.946-20.831-4.255-36.434c-3.31-15.63-12.321-36.462-13.739-43.081c-1.001-4.645,9.095-30.288,15.297-52.259          c3.282-2.781,6.647-5.451,10.068-8.038c4.617-3.477,9.345-6.786,14.184-9.873c16.131-10.374,33.43-18.328,51.369-24.03          c0.751-0.25,1.502-0.473,2.253-0.695c2.976,12.988,5.896,26.255,7.203,34.293c2.92,17.577,0.306,37.741-0.361,42.191v0.028          c-0.056,0.556-0.111,0.862-0.111,0.862s18.467,26.505,22.25,37.88c0.111,0.306,0.195,0.584,0.25,0.89          c0.028,0.056,0.056,0.083,0.028,0.139c1.029,3.588,0.862,6.925,0.195,9.79c0,0.028,0,0.056-0.028,0.083          c-0.612,2.587-1.641,4.756-2.587,6.369c0,0-0.028,0.056-0.083,0.167c-1.085,1.863-2.03,2.92-2.03,2.92l0.111,0.361          l0.167,0.723l4.923,18.301c0,0,12.293,17.049,16.576,28.897C234.072,256.744,221.751,265.283,221.751,265.283z"/>
							</g>
							<g>
								<path style="fill:#302945;" d="M189.804,188.336c0,0-9.468-16.569-0.473-18.699c8.995-2.13,20.83,23.907,20.83,23.907          s-3.55,9.231-11.598,7.338l-8.285-11.125L189.804,188.336z"/>
							</g>
							<g>
								<path style="fill:#302945;" d="M210.967,301.262l-12.293-9.456c0.445-2.475,0.417-5.646-0.334-9.456          c1.807,0.167,3.81,0.807,5.868,2.253C211.857,289.942,210.967,301.262,210.967,301.262z"/>
							</g>
							<g>
								<path style="fill:#302945;" d="M170.823,280.603c0,0,8.293-3.154,13.839,4.358c5.546,7.512,1.089,17.962,1.089,17.962          L170.823,280.603z"/>
							</g>
							<g>
								<g>
									<path style="fill:#302945;" d="M164.832,275.886c-0.277,0-0.553-0.083-0.789-0.246l-56.689-39.057           c-0.633-0.436-0.792-1.301-0.356-1.934c0.433-0.629,1.302-0.792,1.934-0.356l55.959,38.553           c2.81-1.756,12.586-8.841,10.291-21.176c-2.683-14.424-33.401-30.458-33.71-30.618c-0.454-0.235-0.743-0.699-0.752-1.21           l-1.066-57.163c-0.014-0.767,0.596-1.402,1.365-1.416c0.727-0.027,1.401,0.597,1.416,1.365l1.051,56.343           c4.935,2.641,31.713,17.584,34.431,32.192c2.99,16.079-12.272,24.474-12.427,24.557           C165.283,275.832,165.057,275.886,164.832,275.886z"/>
								</g>
								<g>
									<path style="fill:#302945;" d="M185.296,304.988c-0.443,0-0.87-0.212-1.137-0.591l-20.469-29.091           c-0.443-0.627-0.292-1.495,0.337-1.937c0.628-0.447,1.495-0.292,1.937,0.337l19.831,28.184           c2.231-0.952,7.612-3.444,9.912-6.263c0.757-0.929,1.323-2.366,1.594-4.044c0.452-2.512,0.338-5.603-0.325-8.966           c-0.985-5.015-3.134-10.511-6.385-16.334c-8.708-15.668-29.457-40.362-29.665-40.609c-0.22-0.261-0.337-0.593-0.327-0.936           l1.53-54.679c0.023-0.767,0.667-1.362,1.43-1.351c0.767,0.022,1.372,0.661,1.351,1.43l-1.517,54.152           c2.757,3.304,21.413,25.862,29.627,40.64c3.394,6.076,5.642,11.848,6.685,17.15c0.739,3.749,0.853,7.105,0.337,9.969           c-0.349,2.161-1.106,4.013-2.181,5.334c-3.394,4.161-11.716,7.377-12.068,7.511           C185.63,304.959,185.463,304.988,185.296,304.988z"/>
								</g>
								<g>
									<path style="fill:#302945;" d="M210.87,303.579c-0.293,0-0.587-0.092-0.834-0.278l-10.889-8.166           c-0.615-0.461-0.74-1.332-0.278-1.946c0.462-0.615,1.335-0.738,1.946-0.278l10.024,7.517           c2.434-2.071,9.604-8.948,9.058-17.679c-0.553-8.842-22.739-29.897-31.242-37.263c-0.289-0.251-0.462-0.61-0.478-0.993           l-2.367-56.098c-0.033-0.767,0.564-1.415,1.331-1.448c0.752-0.038,1.415,0.562,1.448,1.331l2.343,55.502           c4.012,3.519,31.043,27.626,31.741,38.794c0.75,11.982-10.5,20.383-10.979,20.734           C211.449,303.489,211.16,303.579,210.87,303.579z"/>
								</g>
								<g>
									<path style="fill:#302945;" d="M199.504,202.169c-1.342,0-2.222-0.149-2.256-0.155c-0.34-0.062-0.645-0.248-0.854-0.523           l-58.584-76.336c-0.468-0.608-0.353-1.482,0.257-1.949c0.61-0.47,1.483-0.352,1.949,0.257l58.236,75.882           c2.151,0.228,10.251,0.464,12.452-8.614c3.151-13.003-2.063-22.656-5.45-27.252c-4.95-6.718-16.276-25.235-16.755-26.02           c-0.156-0.257-0.225-0.557-0.197-0.857c0.02-0.22,1.976-22.179-6.95-39.347c-0.355-0.68-0.09-1.521,0.592-1.874           c0.678-0.356,1.521-0.09,1.874,0.592c8.686,16.701,7.556,37.005,7.293,40.423c1.686,2.751,11.892,19.338,16.382,25.433           c3.676,4.985,9.331,15.457,5.914,29.556C211.093,200.922,203.377,202.169,199.504,202.169z"/>
								</g>
								<g>
									<path style="fill:#302945;" d="M179.606,179.883c-0.254,0-0.512-0.069-0.742-0.216           c-12.854-8.129-26.868-14.05-41.657-17.599c-0.747-0.179-1.207-0.93-1.028-1.677c0.178-0.748,0.925-1.207,1.677-1.028           c15.086,3.62,29.384,9.661,42.494,17.954c0.649,0.41,0.843,1.268,0.432,1.918           C180.519,179.654,180.066,179.883,179.606,179.883z"/>
								</g>
							</g>
						</g>
						<g>
							<path style="fill:#302945;" d="M143.174,258.873c0,0,6.391-6.154,14.439-1.42c8.048,4.734,8.048,16.095,8.048,16.095         L143.174,258.873z"/>
						</g>
						<g>
							<path style="fill:#302945;" d="M209.095,247.215c0,0,8.048-1.42,10.652,4.734c2.604,6.154,1.479,12.663,1.479,12.663         L209.095,247.215z"/>
						</g>
					</g>
					<g>
						<g>
							<g>
								<path style="fill:#9DD1A9;" d="M238.472,196.065c-10.57-6.299-18.445-16.965-21.354-28.922          c-2.909-11.956-0.813-25.048,5.682-35.499c10.422,8.222,20.92,16.304,24.29,29.143          C250.276,172.922,245.315,185.55,238.472,196.065z"/>
							</g>
							<g>
								<path style="fill:#302945;" d="M238.472,196.761c-0.003,0-0.007,0-0.009,0c-0.384-0.006-0.691-0.322-0.686-0.706          c0.003-0.222,0.278-22.47-3.904-36.875c-4.185-14.417-11.596-27.056-11.671-27.182c-0.196-0.33-0.086-0.757,0.245-0.952          c0.325-0.195,0.754-0.088,0.952,0.246c0.075,0.128,7.572,12.911,11.809,27.5c4.24,14.607,3.961,37.061,3.959,37.286          C239.162,196.457,238.851,196.761,238.472,196.761z"/>
							</g>
						</g>
						<g>
							<g>
								<path style="fill:#9DD1A9;" d="M204.906,254.946c1.634-12.196,8.342-23.632,18.19-31.009          c9.848-7.377,22.708-10.601,34.872-8.741c-3.459,12.816-6.76,25.646-17.239,33.796          C230.827,256.694,217.265,257.101,204.906,254.946z"/>
							</g>
							<g>
								<path style="fill:#302945;" d="M204.906,255.641c-0.273,0-0.532-0.163-0.644-0.432c-0.146-0.355,0.024-0.76,0.38-0.907          c0.205-0.084,20.768-8.583,32.366-18.094c11.608-9.519,20.312-21.305,20.399-21.423c0.229-0.312,0.668-0.375,0.972-0.149          c0.31,0.228,0.376,0.663,0.149,0.972c-0.088,0.12-8.89,12.042-20.638,21.676c-11.76,9.643-32.513,18.22-32.722,18.306          C205.084,255.624,204.994,255.641,204.906,255.641z"/>
							</g>
						</g>
						<g>
							<g>
								<path style="fill:#9DD1A9;" d="M275.286,253.789c10.891-5.728,24.099-6.878,35.815-3.118          c11.717,3.76,21.79,12.38,27.314,23.375c-12.453,4.599-24.826,9.334-37.537,5.507          C288.866,275.937,280.684,265.114,275.286,253.789z"/>
							</g>
							<g>
								<path style="fill:#302945;" d="M338.416,274.741c-0.004,0-0.007,0-0.011,0c-0.148-0.003-14.964-0.278-29.621-4.28          c-14.672-4.008-33.678-15.964-33.869-16.083c-0.325-0.205-0.421-0.636-0.216-0.96c0.208-0.323,0.636-0.417,0.96-0.216          c0.188,0.12,19.022,11.966,33.492,15.917c14.489,3.956,29.13,4.229,29.276,4.231c0.384,0.007,0.69,0.322,0.685,0.706          C339.106,274.437,338.795,274.741,338.416,274.741z"/>
							</g>
						</g>
						<g>
							<g>
								<path style="fill:#9DD1A9;" d="M205.142,320.56c2.443-12.06,9.899-23.023,20.217-29.727          c10.318-6.704,23.365-9.063,35.377-6.396c-4.306,12.557-8.455,25.139-19.454,32.572          C230.889,324.033,217.33,323.534,205.142,320.56z"/>
							</g>
							<g>
								<path style="fill:#302945;" d="M205.142,321.256c-0.291,0-0.562-0.183-0.66-0.475c-0.121-0.364,0.075-0.758,0.44-0.88          c0.211-0.07,21.294-7.18,33.5-15.897c12.218-8.725,21.689-19.902,21.783-20.015c0.25-0.294,0.684-0.33,0.981-0.084          c0.293,0.248,0.331,0.686,0.084,0.98c-0.096,0.113-9.673,11.42-22.038,20.251c-12.377,8.838-33.654,16.013-33.869,16.085          C205.29,321.245,205.215,321.256,205.142,321.256z"/>
							</g>
						</g>
					</g>
				</g>
			</g>
			<g>
				<g>
					<polygon style="fill:#F7EDE5;" points="441.365,296.586 444.003,253.497 446.055,296.879 456.9,288.085 450.451,298.344        473.608,301.275 451.038,304.207 457.486,313.293 446.641,307.431 443.71,344.95 441.365,308.017 430.227,312.707        437.261,304.207 409.122,300.396 436.968,299.224 430.519,289.551      "/>
				</g>
				<g>
					<polygon style="fill:#F7EDE5;" points="72.822,296.586 75.46,253.497 77.512,296.879 88.358,288.085 81.909,298.344        105.065,301.275 82.495,304.207 88.944,313.293 78.098,307.431 75.167,344.95 72.822,308.017 61.684,312.707 68.719,304.207        40.58,300.396 68.426,299.224 61.977,289.551      "/>
				</g>
			</g>
		</g>
	</g>
</g>















</svg>
