<?xml version="1.0" encoding="UTF-8"?>
<!-- Generator: Adobe Illustrator 25.4.1, SVG Export Plug-In . SVG Version: 6.00 Build 0)  -->
<svg xmlns="http://www.w3.org/2000/svg" xmlns:xlink="http://www.w3.org/1999/xlink" version="1.1" id="Capa_1" x="0px" y="0px" viewBox="0 0 512 512" style="enable-background:new 0 0 512 512;" xml:space="preserve" width="512" height="512">
<g>
	<g>
		<path d="M420.065,17.345c-24.907,14.415-36.184,36.707-36.393,64.345c-1.292,80.682-0.667,161.35-1.128,242.054    c-16.4,1.343-31.87,4.439-43.531,17.293c-10.448-12.474-23.959-17.187-40.494-16.045c-0.103-78.162-0.364-156.148-0.596-234.289    c1.716-26.976-9.406-56.687-33.488-70.843c-11.489-14.507,31.18-20.78,40.72-19.751c12.391,2.802,24.677,5.814,33.862,15.797    c0.503,0.528,2.777-0.023,3.799-0.709C362.53-1.31,406.2-9.271,420.065,17.345z"/>
		<path d="M167.46,316.323c20.428-21.033,57.685-33.879,78.359-7.963c2.091,2.479,0.87,4.919-2.389,4.776    c-59.842,2.305-64.576,88.693-44.471,130.299c8.547,16.444,22.107,25.397,40.669,26.931    c57.897,6.759,66.295-70.014,43.983-108.566c-1.199-7.193-16.333-14.886-10.635-21.28c21.782-14.756,52.367-7.174,66.436,14.985    c14.768-21.218,43.464-29.699,66.044-15.767c4.247,3.425,4.215,6.258-0.159,9.379c-30.96,23.425-23.87,67.083-38.87,99.712    c-29.18,89.412-196.132,82.468-212.594-11.684c-9.078-45.507,3.318-122.786-61.898-125.367    c13.947-30.262,62.225-18.903,76.792,6.31C168.305,317.499,167.882,316.911,167.46,316.323z"/>
	</g>
	<g>
		<path style="fill:#FFFFFF;" d="M334.533,375.028c4.13-2.993,8.18-6.105,12.409-8.952c7.466-5.027,14.166-1.867,14.618,7.139    c0.195,3.89-0.22,8.1-1.552,11.726c-5.438,14.8-11.252,29.465-17.121,44.102c-1.739,4.337-4.241,4.827-6.437,1.335    c-9.342-14.857-18.617-29.83-21.707-47.493c-0.751-4.291-0.698-8.966,0.15-13.234c1.251-6.298,7.563-8.741,12.5-4.687    c3.781,3.105,6.432,7.584,9.586,11.451C336.165,375.953,335.349,375.491,334.533,375.028z"/>
		<g>
			<path style="fill:#FFFFFF;" d="M353.362,38.152c-0.774,1.298-1.471,2.65-2.334,3.886c-19.023,27.232-23.493,57.539-19.452,89.818     c3.382,27.016,11.853,52.82,18.122,79.152c5.732,24.074,6.987,48.243-0.437,72.272c-2.421,7.834-5.748,15.256-12.263,20.654     c-1.68,1.392-3.869,2.171-5.824,3.232c-0.267-0.375-0.535-0.749-0.802-1.124c1.912-2.165,4.018-4.19,5.702-6.519     c6.401-8.849,8.167-19.213,9.214-29.72c2.485-24.919-2.579-48.846-9.891-72.437c-8.054-25.986-14.124-52.294-13.99-79.726     c0.138-28.308,7.742-54.075,25.615-76.397c1.361-1.7,3.352-2.895,5.05-4.325C352.503,37.329,352.933,37.74,353.362,38.152z"/>
			<g>
				<path style="fill:#FFFFFF;" d="M325.248,236.511c4.513-0.087,8.012,3.435,8.159,8.21c0.15,4.891-3.633,8.722-8.725,8.835      c-4.529,0.1-8.007-3.124-8.178-7.579C316.312,240.964,320.339,236.605,325.248,236.511z"/>
				<path style="fill:#FFFFFF;" d="M359.25,124.372c0.013,4.642-3.539,8.443-7.931,8.486c-4.401,0.043-7.994-3.711-8.011-8.369      c-0.017-4.632,3.544-8.442,7.924-8.48C355.649,115.971,359.237,119.714,359.25,124.372z"/>
			</g>
		</g>
	</g>
</g>















</svg>
