<svg id="Layer_1" enable-background="new 0 0 512 512" viewBox="0 0 512 512" xmlns="http://www.w3.org/2000/svg"><g fill="#fab03c"><path d="m186 188.5c9.4-.2 18.8 1.2 27.7 5.1 13.8 6 24.3 15.6 31.6 28.8 2.7 4.9 5.2 10 7 15.3.6 1.7.5 2.5-1.6 3.2-7.2 2.6-14.5 4.6-22.1 5.7-4.2.7-7.9 2.7-11.1 5.4-4.8 4.1-10 7.8-14 12.8-1 1.3-1.7 2.6-1.7 4.3 0 1.2-.4 2.5-.8 3.7-.6 1.8-1.5 3.5.4 5.2.6.5.4 1.5.2 2.3-.8 3.2-1.7 6.3-3.8 9-4.8 6.2-9.6 12.5-15.9 17.4-6.4 5.1-13.6 9.1-21 12.6-1 .5-1.9.2-2.8-.2-13.2-6-23.2-15.3-30.4-27.8-4.6-7.9-8.1-16.1-9.4-25.1-2.2-15.4.8-29.8 8.6-43.3 5-8.6 11-16.2 19.1-22.1 11.9-8.3 25.1-12.5 40-12.3z"/><path d="m129 149.5c2.5 0 4.6 1.1 5.8 3.3 6 10.8 12.1 21.6 18 32.4 1.7 3.2.4 6.9-2.7 8.7-3.3 1.9-7.1 1-9.1-2.2-6.3-10.4-12.5-20.8-18.7-31.2-3.5-6.1 2.1-10.8 6.7-11z"/><path d="m226.5 194.8c-5.6 0-9-5.3-6.5-9.9 5.8-10.7 11.8-21.4 17.8-32 2.1-3.6 5.9-4.5 9.5-2.4 4.1 2.3 5.4 5.9 3.1 9.7-4.5 7.8-9.2 15.4-13.9 23.1-1.7 2.8-3.2 5.5-4.9 8.3-1.2 2.1-3.1 3.1-5.1 3.2z"/><path d="m88.9 264c-5.9 0-11.9 0-17.8 0-4.5 0-7.1-2.8-7.1-7.3 0-4.6 2.6-7.3 7.1-7.3 12 .1 24.1.3 36.1.6 4 .1 6.7 2.9 6.7 6.8 0 3.8-2.8 6.7-6.7 6.7-6.1.1-12.2 0-18.3 0z"/><path d="m282.4 205.4c-.1 1.7-.7 3.5-2.4 4.7-6.6 4.7-13.8 8.5-21 12.2-3 1.5-6.5-.1-8.2-3.1-1.5-2.8-.9-6.7 1.8-8.4 6.6-4.2 13.3-8.4 20.4-11.7 4.5-2.1 9.4 1.2 9.4 6.3z"/><path d="m97.1 198.4c1.1 0 2.1.3 3 .8 6.9 3.3 13.3 7.3 19.8 11.4 3 1.9 3.7 5.7 2 8.7-1.8 3.1-5.3 4.5-8.4 2.9-6.9-3.6-13.8-7.3-20.1-11.7-2.6-1.8-3.4-4.7-2.5-7.4.7-2.8 3.3-4.7 6.2-4.7z"/><path d="m97.1 314.9c-2.8 0-5.3-1.7-6.3-4.4s-.2-5.8 2.3-7.5c2.1-1.5 4.4-2.9 6.7-4.3 4.2-2.4 8.5-4.9 12.8-7.2 3.7-2 7.4-.9 9.3 2.5 1.8 3.3.9 7-2.6 9.1-5.9 3.6-11.9 7-17.9 10.4-1.3.8-2.7 1.4-4.3 1.4z"/><path d="m193.1 164.9c0 3.5.1 6.9 0 10.4-.2 4.1-2.9 6.8-6.6 6.8-3.9 0-6.7-2.7-6.8-6.9-.1-6.7-.1-13.5-.1-20.2 0-.8.1-1.6.2-2.4.6-3.4 3.2-5.7 6.5-5.7s6.1 2.4 6.6 5.8c.6 4 .3 8.1.2 12.2z"/><path d="m139.1 325.5c3.2-7.4 8.3-9 13-4.3-4.9-.3-8.8 1.4-13 4.3z"/></g><path d="m270.5 364.1c-18 0-32.2-.3-46.4.1-13.4.4-26.8 1.2-40.2.9-13.3-.3-26.5-1.2-39.4-4.8-7.3-2-14.3-4.8-20.5-9.4-2.9-2.2-5.5-4.7-7.4-7.9-4.3-7.1-3.1-14.7 3.2-20.2 3.9-3.3 8.5-5.5 13.1-7.5 9.3-4.1 18.9-7.2 28.1-11.4 4.6-2.1 9.1-4.5 13-7.8 6-5.1 7.2-9.5 4.3-16.9-1.1-2.8-2.1-5.5-3.2-8.3-4.1-11.1-.9-20.8 9.3-26.9 7-4.2 14.8-6.1 22.7-7.6 4-.8 8.1-1 12.2-1.1 31.7-.7 63.4-.1 95.1-.4 3.6 0 6.3 1.3 8.5 4.1 4.4 5.8 2.3 13.3-4.7 15.8-3.2 1.2-6.6 1.4-10 1.5-4.7.1-9.5 0-14.2.8-1.4.2-2.6.7-3.1 2.3-.6 1.8-.2 2.9 1.7 3.6 3.2 1.1 6.4 1.4 9.7 1.4 10.6.1 21.2.2 31.8.2h43.1c4.3 0 8 1.5 10.8 5 3.9 5 2.1 12.1-3.8 14.4-4.2 1.6-8.6 2.6-13.2 1.9-3-.4-5.9-.4-8.9-.4-16.4-.1-32.9-.4-49.3-1.1-13-.5-26-1-39-1.4-4.4-.1-8.4 1.3-11.9 3.9-4 2.9-4 6.7-.1 9.8 2.7 2.1 5.9 3.1 9.2 3.2 7.8.3 15.5.6 23.3.3 6.7-.2 13.5.2 20.2.2 23.1 0 46.3.1 69.4.1 15.9 0 31.8 0 47.7-.1 3.2 0 6.2.6 9.2 1.7 2.4.9 4.1 2.4 5.3 4.7 4.1 7.7-.3 16.4-8.8 17.4-1.3.2-2.6.2-3.8.2-20.4 0-40.8.1-61.2.1-9 0-18 .3-26.9 1.2-1.8.2-3.4.9-4.9 1.9-3 2.1-3.1 5-.1 7.1 3.2 2.3 6.9 3.3 10.8 3.8 3.6.5 7.2.5 10.7 1.4 1.9.5 3.7 1 5.5 1.7 6.4 2.6 9.4 9.6 7.2 16.1-.8 2.3-2.4 3.8-4.6 4.6-2.7.9-5.5 1.7-8.5 1.7-23.3 0-46.6-.1-69.9 0-8.1.3-16.5 0-21.1.1z" fill="#aed6f2"/><path d="m146.6 297c1.6-1.2.8-2.5-.1-3.7-2.9-3.9-5.8-7.7-8.1-12-6-10.8-9.3-22.1-7.3-34.7 1.3-8.1 4.3-15.4 9-22.1.8-1.2 1.2-2.4-.1-3.4-1.3-.9-2.4-.2-3.2 1-6.8 9.5-10.2 20.1-10.4 31.8 0 2.8.3 5.6.7 8.4 2.2 12.7 8.5 23.5 16.2 33.5.8 1.2 1.8 2.3 3.3 1.2z"/><path d="m152 208.7c-2.2 1.3-4.2 2.9-6.3 4.5-1.1.8-1.2 1.9-.3 3 .9 1 2 .9 3 .1 1.9-1.4 3.8-2.7 5.7-4 .6-.4 1.1-.9 1.1-1.7.1-1.9-1.6-2.9-3.2-1.9z"/><path d="m167.2 201.9c-1.8.6-3.6 1.3-5.3 2.2-1.3.7-1.4 1.9-.5 3.1.9 1.1 2.1.8 3.1.2 1.8-1.1 4.6-.8 5.3-3.5-.4-1.4-1.1-2.4-2.6-2z"/></svg>