<?xml version="1.0" encoding="iso-8859-1"?>
<!-- Generator: Adobe Illustrator 26.5.3, SVG Export Plug-In . SVG Version: 6.00 Build 0)  -->
<svg xmlns="http://www.w3.org/2000/svg" xmlns:xlink="http://www.w3.org/1999/xlink" version="1.1" id="Capa_1" x="0px" y="0px" viewBox="0 0 512 512" style="enable-background:new 0 0 512 512;" xml:space="preserve">
<g>
	<g>
		<path d="M89.009,375.77c0.306,13.32-2.474,27.586-8.199,41.24c-3.824,9.121-9.586,16.951-16.726,23.8    c-6.9,6.618-14.286,12.599-22.969,16.682c-5.999,2.821-12.381,4.656-18.972,5.624c-0.772,0.113-1.573,0.108-2.355,0.065    c-3.021-0.167-4.252-1.202-4.718-4.197c-1.129-7.255-1.743-14.57-2.415-21.876c-1.05-11.417-1.997-22.844-3-34.265    c-0.837-9.528-1.704-19.054-2.536-28.583c-1.123-12.859-2.223-25.72-3.338-38.58c-0.996-11.489-1.998-22.977-3-34.466    c-0.233-2.676-0.482-5.351-0.718-8.027c-0.316-3.585,0.495-4.884,3.901-6.035c3.699-1.25,7.583-1.543,11.425-1.829    c14.036-1.046,27.002,2.213,38.421,10.544c9.125,6.657,15.933,15.411,21.929,24.948c8.304,13.208,11.872,27.701,12.925,43.031    C88.902,367.315,88.983,370.781,89.009,375.77z M73.573,382.193c-0.258-10.186-0.974-19.774-2.414-29.313    c-2.629-17.416-9.263-33.133-20.003-47.061c-5.894-7.643-13.734-12.201-23.338-13.644c-1.432-0.215-1.996-0.003-1.838,1.673    c0.676,7.169,1.224,14.35,1.798,21.529c0.631,7.896,1.253,15.792,1.855,23.69c0.578,7.572,1.111,15.148,1.691,22.719    c0.731,9.529,1.521,19.054,2.228,28.585c0.601,8.096,1.075,16.202,1.685,24.297c0.891,11.82,1.611,23.65,2.184,35.489    c0.114,2.347,0.121,2.34,2.342,1.331c7.166-3.255,12.772-8.479,17.66-14.438c5.469-6.668,8.88-14.56,11.62-22.621    C72.643,403.843,73.221,392.736,73.573,382.193z"/>
		<path d="M141.06,389.631c2.506,1.078,4.761,1.732,6.744,3.054c5.803,3.869,8.436,9.675,10.011,16.124    c1.044,4.274,1.632,8.625,1.648,13.034c0.023,6.227-0.072,12.456,0.047,18.68c0.108,5.649,0.602,11.257,3.152,16.462    c2.689,5.491,7.307,7.782,13.175,7.997c1.085,0.04,2.164-0.024,2.576,1.263c0.447,1.399-0.186,2.478-1.272,3.229    c-1.645,1.138-3.536,1.17-5.477,1.055c-10.05-0.599-14.475-6.536-17.149-15.238c-1.314-4.278-1.801-8.724-1.853-13.194    c-0.069-5.964,0.071-11.932-0.091-17.893c-0.161-5.905-0.855-11.739-2.964-17.347c-3.322-8.834-10.707-11.79-19.174-10.771    c-1.942,0.234-3.841,0.814-5.762,1.226c-1.416,0.303-2.077,1.136-2.142,2.615c-0.24,5.496-0.563,10.988-0.826,16.483    c-0.448,9.356-0.972,18.705-2.077,28.013c-0.202,1.702-1.093,2.53-2.673,2.516c-4.798-0.044-9.516-0.862-14.207-1.763    c-1.667-0.32-2.641-1.585-2.911-3.337c-0.464-3.002-0.269-6.02-0.209-9.027c0.188-9.301,0.435-18.6,0.701-27.899    c0.39-13.62,0.801-27.239,1.23-40.857c0.361-11.456,0.778-22.911,1.138-34.368c0.412-13.094,0.784-26.19,1.189-39.285    c0.026-0.848,0.278-1.693,0.264-2.538c-0.057-3.533,2.116-5.418,5.123-6.043c17.2-3.574,32.891-0.645,45.943,11.764    c5.937,5.645,8.624,13.206,10.535,20.995c4.478,18.254,2.666,35.971-5.27,52.929C156.258,376.529,150.303,384.32,141.06,389.631z     M155.003,338.79c0.047-10.467-1.335-19.605-3.569-28.095c-2.975-11.302-9.862-18.85-20.918-22.581    c-2.213-0.747-2.523-0.465-2.612,1.81c-0.25,6.349-0.482,12.7-0.779,19.047c-0.617,13.214-1.271,26.427-1.91,39.64    c-0.298,6.149-0.598,12.298-0.897,18.447c-0.365,7.522-0.72,15.044-1.101,22.565c-0.074,1.453,0.367,1.928,1.826,1.325    c6.507-2.69,12.41-6.264,16.917-11.783c3.896-4.771,7.738-9.562,9.585-15.643C154.165,354.892,154.607,346.009,155.003,338.79z"/>
		<path d="M425.745,312.697c-0.259,9.989-0.467,21.192-0.865,32.388c-0.322,9.036-0.571,18.071-0.797,27.109    c-0.249,9.954-0.54,19.906-0.783,29.861c-0.284,11.659-0.491,23.319-0.811,34.975c-0.245,8.899-0.235,17.815-0.993,26.698    c-0.315,3.699-0.179,3.746,3.486,3.609c7.33-0.274,14.663-0.506,21.995-0.709c7.467-0.207,14.932-0.578,22.405-0.441    c1.175,0.022,2.351,0.134,3.519,0.272c0.754,0.089,1.444,0.429,1.517,1.289c0.083,0.978-0.651,1.462-1.443,1.584    c-2.327,0.358-4.666,0.754-7.012,0.859c-13.348,0.6-26.7,1.109-40.05,1.672c-8.048,0.339-16.095,0.682-24.139,1.096    c-3.441,0.177-5.321-0.888-5.493-5.274c-0.372-9.496,0.178-18.996,0.391-28.494c0.152-6.812,0.416-13.622,0.632-20.432    c0.491-15.455,1.011-30.909,1.464-46.365c0.261-8.907,0.382-17.818,0.626-26.725c0.365-13.362,0.772-26.722,1.184-40.082    c0.085-2.75,0.674-3.536,3.422-3.867c6.307-0.761,12.631-1.392,18.953-2.018c1.816-0.18,2.716,0.696,2.773,2.737    C425.807,305.452,425.745,308.47,425.745,312.697z"/>
		<path d="M183.583,437.101c0.323-13.298,0.615-26.597,0.979-39.894c0.344-12.574,0.779-25.145,1.144-37.717    c0.291-10.02,0.499-20.043,0.816-30.063c0.333-10.541,0.7-21.081,1.165-31.617c0.147-3.329,0.358-6.671,1.079-9.957    c0.414-1.885,1.501-2.922,3.378-2.949c6.545-0.095,13.089-0.773,19.638-0.007c2.048,0.239,3.391,0.98,3.669,3.281    c0.585,4.843,0.254,9.685,0.165,14.524c-0.074,3.991-0.463,7.975-0.632,11.965c-0.442,10.405-0.834,20.812-1.258,31.218    c-0.818,20.03-1.619,40.061-2.478,60.089c-0.454,10.602-0.963,21.202-1.552,31.798c-0.247,4.443-0.769,8.871-1.163,13.306    c-0.166,1.864-1.249,2.976-3.04,2.996c-6.549,0.073-13.111,0.259-19.615-0.767c-1.622-0.256-2.367-1.657-2.342-4.013    c0.036-3.343,0.081-6.685,0.118-10.028c0.008-0.721,0.001-1.442,0.001-2.164C183.631,437.102,183.607,437.102,183.583,437.101z"/>
		<path d="M348.802,440.671c-4.452-0.149-11.463,0.01-18.476-0.138c-6.937-0.147-13.874-0.188-20.803-0.6    c-0.782-0.047-1.578-0.091-2.337-0.27c-1.911-0.452-2.368-1.342-2.108-3.297c0.651-4.889,2.862-9.26,4.602-13.765    c4.417-11.431,9.064-22.773,13.607-34.155c6.559-16.435,13.064-32.89,19.67-49.306c6.605-16.414,13.305-32.789,19.964-49.181    c0.897-2.208,0.898-2.167-1.487-2.297c-11.444-0.628-22.888-1.261-34.329-1.944c-1.428-0.085-2.85-0.423-4.254-0.734    c-1.151-0.254-2.209-0.838-2.119-2.188c0.082-1.227,1.129-1.682,2.219-1.886c3.318-0.624,6.674-0.421,10.004-0.27    c9.683,0.438,19.362,0.923,29.055,1.147c7.923,0.182,15.836,0.722,23.766,0.788c3.178,0.026,4.313,1.899,3.149,5.353    c-1.318,3.91-2.839,7.754-4.362,11.591c-5.56,14.011-11.155,28.007-16.742,42.007c-5.95,14.91-11.974,29.79-17.84,44.733    c-6.13,15.617-12.512,31.13-18.971,46.612c-0.672,1.61-0.271,1.833,1.272,1.853c8.65,0.114,17.301,0.257,25.948,0.504    c5.434,0.155,10.863,0.499,16.292,0.781c0.582,0.03,1.173,0.161,1.728,0.342c0.935,0.304,1.649,0.872,1.597,1.971    c-0.056,1.197-0.871,1.773-1.929,1.869c-2.412,0.218-4.833,0.43-7.252,0.458C362.898,440.714,357.128,440.671,348.802,440.671z"/>
		<path d="M484.437,445.394c-7.663,0.183-17.817-0.12-27.971-0.372c-4.044-0.1-5.097-1.168-5.178-5.192    c-0.246-12.258,0.501-24.503,0.498-36.759c-0.001-3.459,0.194-6.938,0.259-10.409c0.274-14.61,0.528-29.22,0.816-43.83    c0.234-11.858,0.461-23.716,0.779-35.571c0.153-5.696,0.484-11.388,0.79-17.079c0.091-1.7,0.615-3.353,0.861-5.026    c0.343-2.331,1.72-2.959,3.763-3.177c3.268-0.349,6.542-0.375,9.817-0.413c9.828-0.116,19.657-0.22,29.486-0.28    c1.631-0.01,3.268,0.189,4.895,0.356c1.112,0.114,2.126,0.535,2.151,1.852c0.023,1.229-0.946,1.686-1.961,1.826    c-2.008,0.278-4.028,0.54-6.051,0.637c-4.973,0.239-9.949,0.421-14.926,0.538c-1.715,0.04-2.408,0.588-2.386,2.442    c0.079,6.751,0.067,13.505-0.053,20.255c-0.221,12.447-0.541,24.891-0.823,37.337c-0.238,10.545-0.439,21.091-0.759,31.634    c-0.06,1.974,0.531,2.559,2.519,2.63c7.722,0.277,15.454,0.458,23.145,1.303c0.649,0.071,1.298,0.196,1.93,0.362    c0.893,0.234,1.547,0.738,1.567,1.758c0.021,1.102-0.607,1.773-1.626,1.885c-2.339,0.257-4.692,0.557-7.038,0.555    c-6.224-0.005-12.448-0.117-18.67-0.286c-1.634-0.044-2.13,0.492-2.163,2.116c-0.217,10.807-0.504,21.613-0.824,32.418    c-0.107,3.599-0.321,7.198-0.597,10.789c-0.19,2.477-0.169,2.59,2.276,2.622c9.238,0.12,18.476,0.246,27.714,0.359    c1.318,0.016,2.626,0.094,3.881,0.514c0.862,0.288,1.505,0.801,1.436,1.852c-0.064,0.982-0.597,1.577-1.511,1.826    c-1.398,0.382-2.825,0.538-4.277,0.535C499.783,445.387,493.358,445.394,484.437,445.394z"/>
		<path d="M262.181,312.161c-5.588-0.25-12.218,0.275-18.82-0.434c-0.979-0.105-1.962-0.268-2.791-0.858    c-1.312-0.933-1.285-2.158,0.125-2.945c1.53-0.855,3.257-0.978,4.962-1.007c4.975-0.085,9.946-0.22,14.928-0.195    c13.435,0.068,26.871-0.178,40.307-0.319c1.175-0.012,2.348-0.244,3.523-0.254c3.181-0.026,4.495,1.609,3.587,4.695    c-1.22,4.148-2.547,8.269-3.957,12.357c-4.745,13.756-9.578,27.481-14.319,41.238c-5.916,17.165-11.714,34.37-17.676,51.519    c-4.951,14.238-10.064,28.42-15.109,42.626c-0.726,2.044-0.733,2.115,1.434,2.04c13.494-0.467,26.991-0.786,40.494-0.674    c0.978,0.008,1.966,0.076,2.929,0.236c1.061,0.176,2.162,0.518,2.163,1.862c0,1.315-1.039,1.761-2.126,1.906    c-2.206,0.295-4.419,0.592-6.639,0.719c-13.017,0.747-26.042,1.289-39.072,1.777c-7.014,0.262-14.02,0.321-21.032,0.276    c-3.686-0.024-4.338-0.802-3.713-4.335c1.045-5.907,3.313-11.452,5.248-17.084c7.05-20.518,14.223-40.994,21.338-61.49    c8.06-23.22,15.879-46.524,24.377-69.59c0.589-1.599,0.273-2.102-1.432-2.086C275.009,312.196,269.108,312.161,262.181,312.161z"/>
	</g>
	<g>
		<g>
			<path d="M308.363,238.776c-0.172,1.443-0.61,2.817-1.148,4.152c-4.055,10.075-8.745,19.87-13.131,29.799     c-0.26,0.589-0.629,1.159-1.058,1.639c-0.627,0.702-1.445,0.868-2.319,0.44c-0.843-0.413-1.037-1.153-0.846-1.988     c0.189-0.826,0.421-1.649,0.717-2.442c3.964-10.599,7.916-21.204,12.802-31.427c0.307-0.642,0.659-1.293,1.125-1.821     c0.7-0.792,1.626-1.125,2.657-0.65C308.127,236.923,308.329,237.817,308.363,238.776z"/>
			<path d="M95.579,265.603c0.155-0.397,0.362-1.089,0.684-1.722c5.235-10.271,10.432-20.565,16.593-30.329     c0.835-1.324,1.809-2.573,2.827-3.764c0.653-0.764,1.589-1.345,2.608-0.726c0.963,0.585,0.735,1.596,0.463,2.489     c-0.655,2.144-1.714,4.119-2.816,6.046c-5.236,9.155-10.525,18.28-15.818,27.401c-0.456,0.786-1.031,1.522-1.649,2.19     c-0.532,0.575-1.278,0.652-2.001,0.331C95.787,267.22,95.568,266.618,95.579,265.603z"/>
			<path d="M250.206,238.442c-0.267,0.808-0.546,1.89-0.973,2.91c-3.977,9.504-9.019,18.478-13.801,27.581     c-0.581,1.105-1.455,2.081-2.82,1.431c-1.445-0.688-0.978-2.001-0.511-3.092c4.23-9.88,8.863-19.571,13.808-29.112     c0.336-0.648,0.809-1.202,1.438-1.584c0.577-0.35,1.205-0.552,1.864-0.218C249.943,236.73,250.14,237.409,250.206,238.442z"/>
			<path d="M105.176,154.661c0.003,0.749-0.326,1.398-0.654,2.035c-4.566,8.877-10.354,16.952-16.425,24.832     c-0.738,0.959-1.766,2.449-3.206,1.424c-1.589-1.131-0.143-2.403,0.513-3.373c5.02-7.429,9.64-15.101,14.188-22.822     c0.728-1.236,1.505-2.461,2.652-3.38c0.612-0.49,1.301-0.629,2.023-0.317C104.949,153.355,105.18,153.953,105.176,154.661z"/>
			<path d="M63.327,175.481c0.057-0.235,0.101-0.705,0.28-1.116c3.294-7.552,6.558-15.123,11.216-21.974     c0.85-1.251,1.822-3.026,3.697-1.955c1.835,1.049,0.697,2.72,0.083,4.001c-3.507,7.316-7.611,14.315-11.56,21.396     c-0.547,0.98-1.251,1.935-2.631,1.535C63.614,177.137,63.314,176.5,63.327,175.481z"/>
			<path d="M192.844,242.288c-0.324,0.88-0.648,2.096-1.2,3.197c-3.26,6.505-6.757,12.878-10.72,18.987     c-0.143,0.22-0.291,0.437-0.451,0.644c-0.742,0.958-1.576,2.041-2.905,1.263c-1.296-0.759-0.677-2-0.177-2.972     c3.567-6.933,7.164-13.85,10.794-20.75c0.419-0.796,1.046-1.507,1.68-2.156c0.534-0.547,1.276-0.673,2.005-0.336     C192.625,240.514,192.806,241.202,192.844,242.288z"/>
			<path d="M139.239,255.409c0.107-0.292,0.255-0.866,0.517-1.382c2.613-5.128,5.435-10.138,8.561-14.973     c0.606-0.937,1.295-1.818,2.181-2.504c0.871-0.674,1.834-1.118,2.851-0.295c0.964,0.78,1.016,1.846,0.511,2.848     c-0.882,1.747-1.823,3.473-2.86,5.132c-2.182,3.492-4.432,6.941-6.676,10.394c-0.641,0.987-1.332,1.967-2.368,2.581     C140.574,258.03,139.239,257.264,139.239,255.409z"/>
			<path d="M457.876,137.05c-0.228,1.609-0.774,3.088-1.406,4.525c-2.637,5.995-5.437,11.914-8.456,17.726     c-0.568,1.094-1.332,2.097-2.087,3.08c-0.562,0.733-1.416,1.116-2.254,0.6c-0.842-0.519-0.53-1.443-0.231-2.139     c0.984-2.284,2.06-4.528,3.092-6.791c2.392-5.242,4.771-10.489,7.175-15.724c0.409-0.89,0.857-1.777,1.589-2.463     c0.503-0.472,1.086-0.787,1.779-0.447C457.758,135.751,457.868,136.405,457.876,137.05z"/>
			<path d="M427.606,131.607c-0.361,1.898-1.049,3.674-1.887,5.368c-2.232,4.51-4.542,8.981-6.847,13.454     c-0.265,0.514-0.657,0.978-1.055,1.404c-0.632,0.676-1.423,1.008-2.285,0.489c-0.779-0.47-0.891-1.271-0.636-2.079     c0.353-1.118,0.725-2.237,1.184-3.314c2.203-5.169,4.39-10.347,7.08-15.29c0.374-0.687,0.75-1.39,1.487-1.779     c0.67-0.354,1.362-0.494,2.054-0.087C427.398,130.183,427.563,130.874,427.606,131.607z"/>
			<path d="M359.422,238.155c-0.299,1.646-0.972,3.361-1.755,5.001c-1.971,4.125-4.056,8.196-6.113,12.28     c-0.292,0.581-0.645,1.141-1.039,1.658c-0.664,0.874-1.487,1.651-2.64,0.954c-1.073-0.648-0.769-1.663-0.357-2.616     c1.582-3.657,3.152-7.32,4.74-10.974c0.911-2.096,1.816-4.195,2.795-6.259c0.3-0.631,0.781-1.205,1.279-1.707     c0.604-0.61,1.377-0.737,2.164-0.32C359.209,236.552,359.456,237.2,359.422,238.155z"/>
			<path d="M59.753,212.673c-1.02-0.15-1.055-1.007-0.627-1.97c1.326-2.987,2.641-5.989,4.618-8.622     c2.158-2.873,4.423-5.661,6.24-8.783c0.612-1.051,1.38-2.104,2.672-2.476c0.504-0.145,1.051-0.163,1.471,0.261     c0.411,0.415,0.24,0.82-0.061,1.221c-3.346,4.465-5.358,9.721-8.49,14.313c-1.214,1.779-2.279,3.669-3.838,5.193     C61.27,212.267,60.816,212.76,59.753,212.673z"/>
			<path d="M423.703,175.728c0.211-1.488,0.751-2.973,1.402-4.391c1.09-2.375,2.3-4.696,3.491-7.023     c0.356-0.696,0.771-1.396,1.529-1.736c0.79-0.355,1.658-0.649,2.402,0.002c0.648,0.568,0.333,1.317,0.106,2.005     c-1.104,3.346-1.732,6.858-3.427,9.997c-0.526,0.973-1.094,1.941-1.77,2.812c-0.609,0.783-1.516,1.029-2.477,0.654     C423.957,177.656,423.718,176.787,423.703,175.728z"/>
			<path d="M396.555,125.669c-0.224,0.749-0.409,1.8-0.842,2.736c-1.18,2.55-2.426,5.072-3.727,7.562     c-0.542,1.038-1.262,2.257-2.703,1.582c-1.262-0.591-1.047-1.87-0.66-2.941c1.2-3.321,2.562-6.579,4.196-9.712     c0.514-0.986,1.33-1.702,2.54-1.358C396.207,123.78,396.505,124.543,396.555,125.669z"/>
			<path d="M328.548,244.068c-0.115,1.076-0.433,2.071-0.884,3.018c-1.319,2.77-2.629,5.545-4.003,8.287     c-0.528,1.054-1.377,1.928-2.66,1.31c-1.298-0.625-0.801-1.753-0.394-2.73c1.256-3.014,2.526-6.021,3.816-9.02     c0.282-0.656,0.634-1.29,1.023-1.89c0.49-0.755,1.148-1.329,2.123-0.928C328.425,242.467,328.515,243.284,328.548,244.068z"/>
			<path d="M269.62,242.113c-0.157,1.144-0.677,2.356-1.266,3.515c-1.985,3.908-4.014,7.793-6.072,11.663     c-0.361,0.679-0.88,1.305-1.439,1.836c-0.454,0.432-1.096,0.922-1.743,0.391c-0.637-0.522-0.293-1.174,0.024-1.773     c0.825-1.561,1.62-3.137,2.456-4.693c2.073-3.86,3.558-8.018,5.934-11.724c0.312-0.487,0.598-1.111,1.35-0.84     C269.515,240.724,269.644,241.309,269.62,242.113z"/>
			<path d="M133.288,240.342c-0.207,0.517-0.407,1.218-0.75,1.84c-1.608,2.916-3.241,5.818-4.9,8.705     c-0.287,0.5-0.692,0.96-1.13,1.337c-0.638,0.55-1.411,0.772-2.142,0.186c-0.68-0.545-0.572-1.302-0.223-1.968     c1.938-3.701,3.661-7.518,5.897-11.058c0.495-0.784,1.162-1.526,2.244-1.138C133.139,238.553,133.348,239.322,133.288,240.342z"/>
		</g>
		<g>
			<path d="M156.456,139.855c-1.383,0-2.162,0.001-2.941,0c-33.045-0.03-66.09-0.056-99.135-0.1     c-1.239-0.002-2.487-0.109-3.715-0.28c-2.835-0.395-3.567-1.14-3.377-3.977c0.712-10.624,2.917-20.789,9.689-29.417     c6.306-8.033,14.268-12.806,24.807-12.414c2.188,0.081,4.294,0.605,6.332,1.316c1.642,0.573,2.303,0.254,2.603-1.545     c1.046-6.281,2.412-12.517,4.81-18.425c7.593-18.705,20.884-31.119,40.882-35.266c11.606-2.407,21.855,1.333,30.681,9.13     c5.099,4.505,8.695,10.11,11.936,15.991c1.293,2.347,1.389,2.416,3.413,0.739c6.094-5.048,12.727-9.068,20.612-10.54     c11.688-2.182,22.349-0.083,31.208,8.292c4.245,4.013,6.776,9.123,8.173,14.778c0.55,2.224,0.523,2.249,2.494,1.271     c9.73-4.825,19.965-8.045,30.803-8.858c12.74-0.956,25.133,0.574,36.732,6.42c2.298,1.158,2.322,1.117,2.786-1.301     c3.373-17.582,21.017-27.197,36.566-23.87c5.641,1.207,10.774,3.674,15.776,6.452c2.489,1.382,2.493,1.382,4.004-0.863     c7.67-11.396,18.462-17.552,32.077-18.224c8.106-0.401,15.599,2.171,22.405,6.748c8.92,5.999,14.464,14.431,18.198,24.291     c1.242,3.278,1.402,3.251,4.978,2.847c5.905-0.667,11.511,0.288,16.687,3.272c5.914,3.409,9.115,8.954,11.267,15.12     c1.688,4.836,2.634,9.87,2.508,15.054c-0.099,4.098-1.672,5.726-5.701,5.73c-35.077,0.03-70.155-0.007-105.232,0.151     c-5.829,0.026-11.651,0.063-17.475-0.131c-1.15-0.038-1.835,0.075-1.088,1.494c5.343,10.153,8.031,21.156,10.265,32.3     c0.511,2.548,0.478,2.525,2.921,1.758c9.536-2.997,17.668-0.224,24.877,6.155c8.191,7.248,11.849,16.772,13.531,27.257     c0.322,2.004,0.564,4.025,0.727,6.048c0.099,1.227,0.567,1.885,1.821,2.14c8.292,1.688,14.217,6.387,17.74,14.093     c2.685,5.873,2.856,12.033,2.034,18.293c-0.163,1.244-1.03,1.913-2.207,2.234c-1.09,0.297-2.201,0.298-3.317,0.322     c-21.827,0.475-43.658,0.353-65.487,0.348c-82.94-0.019-165.88,0.328-248.82-0.009c-2.486-0.01-4.978-0.173-7.455-0.403     c-3.524-0.327-5.389-2.292-6.369-5.946c-4.883-18.21,7.126-35.428,23.381-40.986c6.693-2.289,13.604-2.685,20.564-2.561     c2.147,0.038,3.024-0.603,3.357-2.723c0.579-3.689,1.561-7.303,2.598-10.895c2.456-8.505,7.155-15.386,14.627-20.268     C155.33,140.682,155.636,140.443,156.456,139.855z M210.512,219.229c0,0.093,0,0.186,0,0.279     c46.149,0,92.297,0.001,138.446-0.007c1.308,0,2.616-0.16,3.924-0.162c15.994-0.017,31.988-0.13,47.98,0.035     c5.633,0.058,11.27,0.093,16.904,0.199c1.025,0.019,1.571-0.377,1.591-1.494c0.111-6.31-1.465-12.035-5.571-16.976     c-2.927-3.522-6.853-5.113-11.125-6.196c-3.866-0.979-4.897-2.31-5.315-6.278c-0.234-2.215-0.455-4.44-0.872-6.624     c-1.679-8.797-4.781-16.915-11.625-23.108c-4.479-4.053-9.557-6.642-15.839-6.111c-2.249,0.19-4.35,0.895-6.474,1.57     c-3.806,1.209-5.94,0.047-6.927-3.758c-0.592-2.282-1.135-4.579-1.646-6.881c-1.593-7.175-3.35-14.315-6.32-21.058     c-4.71-10.694-11.448-19.956-20.124-27.811c-15.383-13.928-33.326-20.254-54.029-17.847     c-18.571,2.159-34.532,10.063-47.603,23.368c-9.35,9.517-16.059,20.818-20.401,33.475c-0.68,1.983-1.252,4.011-2.049,5.946     c-1.205,2.929-2.826,3.697-5.933,3.02c-0.767-0.167-1.526-0.385-2.277-0.615c-9.078-2.79-18.213-2.896-27.318-0.293     c-11.384,3.254-19.021,10.451-22.322,21.961c-0.885,3.085-1.627,6.211-2.4,9.327c-1.69,6.807-2.475,7.479-9.475,7.526     c-4.003,0.027-8.005,0.066-11.94,0.837c-10.642,2.086-18.808,7.563-23.842,17.408c-3.163,6.186-3.364,12.691-2.568,19.368     c0.126,1.054,0.582,1.432,1.69,1.337c2.544-0.218,5.099-0.417,7.65-0.419C139.97,219.22,175.241,219.229,210.512,219.229z      M80.668,98.333c-1.236,0.119-2.489,0.146-3.706,0.372c-7.804,1.45-13.21,6.266-17.57,12.562     c-4.831,6.975-6.717,15.002-8.359,23.123c-0.23,1.138-0.006,1.773,1.379,1.589c1.228-0.163,2.48-0.188,3.722-0.189     c35.792-0.03,71.583-0.053,107.375-0.061c1.781,0,3.512-0.189,5.251-0.6c7.975-1.884,15.967-2.005,23.932,0.05     c1.482,0.383,2.955,0.477,4.464,0.547c1.378,0.064,2.025-0.501,2.327-1.798c0.789-3.393,2.017-6.638,3.393-9.836     c4.42-10.274,10.23-19.621,18.199-27.55c5.089-5.063,10.707-9.444,16.839-13.172c0.821-0.499,1.743-0.92,1.472-2.241     c-1.191-5.812-3.557-11.09-8.143-14.909c-10.163-8.466-21.522-8.989-33.432-4.276c-5.184,2.051-9.389,5.694-13.87,8.874     c-3.875,2.751-5.918,2.262-8.123-1.926c-2.597-4.932-5.316-9.756-9.17-13.897c-8.159-8.768-18.044-12.29-29.828-10.095     c-7.165,1.334-13.44,4.654-19.166,9.118c-8.161,6.362-14.188,14.234-17.672,24.047c-2.113,5.952-3.149,12.176-4.907,18.214     c-1.029,3.533-2.805,4.562-6.312,3.589C86.111,99.133,83.495,98.217,80.668,98.333z M466.561,108.218     c2.622,0,5.244-0.01,7.865,0.005c1.06,0.006,1.537-0.32,1.364-1.527c-0.672-4.676-1.351-9.358-3.061-13.787     c-2.754-7.135-7.02-12.771-15.101-14.272c-3.244-0.603-6.537-0.291-9.809-0.195c-4.641,0.136-6.052-0.641-7.746-5.016     c-3.529-9.115-8.827-16.76-17.344-21.931c-6.969-4.231-14.436-6.18-22.547-4.98c-10.217,1.512-18.386,6.563-24.656,14.743     c-3.083,4.022-4.596,4.34-9.183,2.013c-3.678-1.865-7.269-3.89-11.143-5.37c-14.695-5.614-30.227,1.593-35.114,16.855     c-0.538,1.679-1.516,3.537-1.194,5.084c0.335,1.612,2.583,2.177,4.011,3.168c8.825,6.124,16.291,13.596,22.222,22.546     c1.345,2.03,2.818,2.997,5.299,2.672c4.166-0.546,8.372-0.343,12.564-0.349c6.812-0.01,13.625,0.211,20.433,0.221     c15.659,0.024,31.318,0.213,46.98-0.175C442.448,107.624,454.512,107.676,466.561,108.218z"/>
			<path d="M322.518,167.633c8.189-0.027,14.778,6.635,14.653,14.815c-0.119,7.73-6.576,13.983-14.41,13.954     c-7.841-0.029-14.316-6.607-14.308-14.535C308.461,174.035,314.762,167.659,322.518,167.633z M313.589,181.784     c-0.001,5.846,4.02,9.886,9.845,9.891c5.778,0.005,10.214-4.438,10.194-10.208c-0.018-5.418-4.475-9.8-9.973-9.807     C318.063,171.653,313.59,176.152,313.589,181.784z"/>
			<path d="M234.874,169.19c8.096-0.049,13.916,5.844,13.503,13.751c-0.236,4.505-2.728,7.678-6.434,9.982     c-5.663,3.52-14.1,2.529-18.098-2.097c-3.431-3.97-4.461-8.391-2.301-13.306c2.243-5.104,6.403-7.584,11.76-8.32     C233.818,169.129,234.35,169.19,234.874,169.19z M234.773,190.095c2.68,0.15,5.188-0.836,7.284-2.819     c2.264-2.143,3.237-4.816,2.498-7.859c-0.706-2.909-2.778-4.672-5.587-5.568c-2.467-0.787-4.914-0.641-7.321,0.274     c-4.214,1.602-6.694,5.414-6.044,9.273C226.27,187.361,229.915,190.094,234.773,190.095z"/>
			<path d="M248.099,160.281c-7.99-0.016-16.028-7.108-17.004-15.004c-0.024-0.195-0.085-0.399-0.05-0.585     c0.263-1.429-0.036-3.387,1.809-3.741c1.701-0.327,1.863,1.555,2.344,2.673c3.054,7.092,8.933,11.042,16.041,10.606     c4.174-0.256,7.439-2.29,10.042-5.465c0.912-1.113,1.741-2.294,2.633-3.424c0.548-0.694,1.201-1.338,2.156-0.773     c0.878,0.519,0.948,1.431,0.599,2.262c-2.356,5.617-5.672,10.347-11.825,12.311C252.658,159.838,250.422,160.339,248.099,160.281     z"/>
			<path d="M309.104,160.717c-7.074,0.191-12.474-2.621-16.934-7.501c-1.217-1.332-2.031-2.885-2.444-4.64     c-0.263-1.117-0.44-2.311,0.744-2.985c1.195-0.68,2.188,0.045,2.915,0.928c1.98,2.404,4.294,4.399,6.97,5.972     c4.607,2.708,9.474,3.618,14.707,2.15c2.373-0.666,4.201-2.046,5.724-3.93c0.822-1.016,1.686-2.003,2.592-2.945     c0.675-0.702,1.548-1.15,2.452-0.49c0.931,0.679,0.645,1.629,0.205,2.482C322.419,156.768,317.104,161.119,309.104,160.717z"/>
			<path d="M276.246,202.385c-8.225-0.031-15.382-8.264-14.097-16.235c0.114-0.705,0.309-1.409,0.566-2.076     c0.321-0.833,0.865-1.543,1.88-1.415c1.023,0.129,1.347,0.961,1.454,1.848c0.366,3.036,1.216,5.845,3.12,8.34     c3.835,5.025,12.853,6.397,16.202-2.163c0.62-1.584,1.195-3.187,1.837-4.761c0.336-0.823,0.858-1.543,1.903-1.344     c1.023,0.194,1.368,1.033,1.325,1.922C290.041,194.798,285.581,202.246,276.246,202.385z"/>
		</g>
	</g>
</g>
<g>
</g>
<g>
</g>
<g>
</g>
<g>
</g>
<g>
</g>
<g>
</g>
<g>
</g>
<g>
</g>
<g>
</g>
<g>
</g>
<g>
</g>
<g>
</g>
<g>
</g>
<g>
</g>
<g>
</g>
</svg>
