<?xml version="1.0" encoding="iso-8859-1"?>
<!-- Generator: Adobe Illustrator 26.5.1, SVG Export Plug-In . SVG Version: 6.00 Build 0)  -->
<svg xmlns="http://www.w3.org/2000/svg" xmlns:xlink="http://www.w3.org/1999/xlink" version="1.1" id="Capa_1" x="0px" y="0px" viewBox="0 0 512 512" style="enable-background:new 0 0 512 512;" xml:space="preserve">
<g>
	<path style="fill:#FFFFFF;" d="M255.674,512c-61.96-0.006-124.849-26.024-172.541-71.381   c-23.597-22.442-42.332-48.287-55.686-76.819c-14.016-29.947-21.361-61.374-21.83-93.413   c-2.631-51.305,8.442-98.001,32.912-138.797c20.387-33.989,49.791-62.649,85.456-83.407c-0.881-1.868-1.474-3.753-1.786-5.669   c-0.75-4.595-0.459-13.401,9.906-20.762c5.731-4.07,12.266-6.133,19.423-6.133c2.218,0,4.512,0.204,6.819,0.608   c6.371,1.114,13.195,3.8,20.334,8.002c26.151-8.12,53.252-12.234,80.626-12.234c0.133,0,0.265,0,0.398,0   c4.686-5.327,9.324-8.807,14.094-10.589C276.297,0.472,278.835,0,281.343,0c3.712,0,7.267,1.01,10.565,3.003   c4.707,2.844,7.847,7.127,9.055,12.264C356.04,23.992,404.909,49.58,442.71,89.579c32.119,31.89,54.615,82.346,61.73,138.466   c3.538,27.911,3.031,55.218-1.507,81.163c-4.855,27.751-14.113,52.477-27.52,73.5c-12.529,21.82-28.297,41.712-46.869,59.123   c-35.329,33.207-78.581,55.685-125.073,64.999c-15.611,3.43-31.685,5.17-47.775,5.17C255.687,512,255.681,512,255.674,512z"/>
	<g>
		<g>
			<g>
				<g>
					<path style="fill:#E36352;" d="M467.347,377.819c-12.121,21.154-27.465,40.455-45.25,57.129       c-33.414,31.408-75.539,53.647-120.56,62.648C162.04,528.315,17.026,412.235,15.056,270.079       C2.945,36.701,291.61-56.77,435.962,96.168C498.749,158.377,520.379,294.91,467.347,377.819z"/>
				</g>
			</g>
		</g>
		<g>
			<g>
				
					<ellipse transform="matrix(0.2229 -0.9748 0.9748 0.2229 -200.8956 577.6773)" style="fill:#FFC063;" cx="261.884" cy="414.845" rx="71.786" ry="71.786"/>
			</g>
			<g>
				
					<ellipse transform="matrix(0.7071 -0.7071 0.7071 0.7071 -68.0462 137.3738)" style="fill:#F8BDFF;" cx="131.802" cy="150.826" rx="71.786" ry="71.786"/>
			</g>
			<g>
				<circle style="fill:#B5E1E8;" cx="371.731" cy="167.207" r="71.786"/>
			</g>
			<g>
				<g>
					<g>
						<path style="fill:#412945;" d="M78.194,254.089c-0.236,0-0.476-0.059-0.697-0.185l-38.559-21.86        c-0.68-0.385-0.919-1.249-0.533-1.929c0.385-0.679,1.25-0.92,1.929-0.533l38.559,21.86c0.68,0.385,0.919,1.249,0.533,1.929        C79.166,253.831,78.687,254.089,78.194,254.089z"/>
					</g>
					<g>
						<path style="fill:#412945;" d="M73.679,262.053c-0.236,0-0.476-0.06-0.697-0.185l-38.558-21.86        c-0.68-0.385-0.919-1.249-0.533-1.929c0.386-0.679,1.249-0.919,1.929-0.533l38.558,21.86c0.68,0.385,0.919,1.249,0.533,1.929        C74.651,261.794,74.172,262.053,73.679,262.053z"/>
					</g>
					<g>
						<path style="fill:#412945;" d="M69.165,270.016c-0.236,0-0.476-0.059-0.697-0.184l-38.559-21.86        c-0.68-0.385-0.919-1.249-0.533-1.929c0.386-0.679,1.251-0.919,1.929-0.533l38.559,21.86c0.68,0.385,0.919,1.249,0.533,1.929        C70.137,269.758,69.657,270.016,69.165,270.016z"/>
					</g>
				</g>
				<g>
					<g>
						<path style="fill:#412945;" d="M232.963,453.829c-0.456,0-0.904-0.22-1.177-0.627c-0.435-0.65-0.262-1.529,0.387-1.964        l36.813-24.688c0.648-0.436,1.528-0.261,1.963,0.387c0.435,0.65,0.262,1.529-0.387,1.964l-36.813,24.688        C233.508,453.751,233.234,453.829,232.963,453.829z"/>
					</g>
					<g>
						<path style="fill:#412945;" d="M238.061,461.432c-0.456,0-0.904-0.22-1.177-0.626c-0.435-0.65-0.262-1.529,0.387-1.964        l36.813-24.688c0.649-0.437,1.529-0.261,1.964,0.387c0.435,0.65,0.262,1.529-0.387,1.964l-36.813,24.688        C238.606,461.354,238.332,461.432,238.061,461.432z"/>
					</g>
					<g>
						<path style="fill:#412945;" d="M243.16,469.034c-0.456,0-0.904-0.22-1.177-0.627c-0.435-0.65-0.262-1.529,0.387-1.964        l36.813-24.688c0.649-0.435,1.528-0.261,1.964,0.387c0.435,0.65,0.262,1.529-0.387,1.964l-36.813,24.688        C243.705,468.957,243.431,469.034,243.16,469.034z"/>
					</g>
				</g>
				<g>
					<g>
						<path style="fill:#412945;" d="M435.806,223.079c-0.302,0-0.606-0.096-0.863-0.295l-35.095-27.074        c-0.619-0.477-0.734-1.366-0.256-1.985c0.477-0.62,1.367-0.733,1.985-0.256l35.095,27.074        c0.619,0.477,0.734,1.366,0.256,1.985C436.648,222.889,436.229,223.079,435.806,223.079z"/>
					</g>
					<g>
						<path style="fill:#412945;" d="M430.215,230.327c-0.302,0-0.606-0.096-0.863-0.295l-35.095-27.074        c-0.619-0.477-0.734-1.366-0.256-1.985c0.477-0.62,1.367-0.733,1.985-0.256l35.096,27.074        c0.619,0.477,0.734,1.366,0.256,1.985C431.057,230.138,430.638,230.327,430.215,230.327z"/>
					</g>
					<g>
						<path style="fill:#412945;" d="M424.623,237.575c-0.302,0-0.606-0.096-0.863-0.295l-35.095-27.073        c-0.619-0.477-0.734-1.366-0.256-1.985c0.477-0.62,1.367-0.733,1.985-0.256l35.095,27.074        c0.619,0.477,0.734,1.366,0.256,1.985C425.466,237.385,425.047,237.575,424.623,237.575z"/>
					</g>
				</g>
				<g>
					<g>
						<path style="fill:#412945;" d="M278.535,83.143c-0.456,0-0.904-0.22-1.177-0.627c-0.435-0.649-0.262-1.528,0.387-1.963        l36.813-24.688c0.649-0.437,1.528-0.262,1.963,0.387c0.435,0.649,0.262,1.528-0.387,1.963l-36.813,24.688        C279.08,83.066,278.806,83.143,278.535,83.143z"/>
					</g>
					<g>
						<path style="fill:#412945;" d="M283.634,90.746c-0.456,0-0.904-0.22-1.177-0.627c-0.435-0.649-0.262-1.528,0.387-1.963        l36.813-24.688c0.649-0.438,1.529-0.263,1.964,0.387c0.435,0.649,0.262,1.528-0.387,1.963l-36.813,24.688        C284.179,90.669,283.905,90.746,283.634,90.746z"/>
					</g>
					<g>
						<path style="fill:#412945;" d="M288.733,98.348c-0.456,0-0.904-0.22-1.177-0.627c-0.435-0.649-0.262-1.528,0.387-1.964        l36.812-24.687c0.648-0.437,1.529-0.263,1.964,0.387c0.435,0.649,0.262,1.528-0.387,1.964L289.52,98.108        C289.278,98.271,289.004,98.348,288.733,98.348z"/>
					</g>
				</g>
				<g>
					<path style="fill:#412945;" d="M66.143,381.734c-10.543,0-19.121-8.577-19.121-19.121c0-10.543,8.578-19.121,19.121-19.121       c10.543,0,19.121,8.577,19.121,19.121C85.264,373.157,76.686,381.734,66.143,381.734z M66.143,346.323       c-8.983,0-16.29,7.307-16.29,16.29c0,8.983,7.308,16.29,16.29,16.29s16.291-7.308,16.291-16.29       C82.433,353.631,75.125,346.323,66.143,346.323z"/>
				</g>
				<g>
					<path style="fill:#412945;" d="M367.259,144.213c-8.551,0-15.507-6.956-15.507-15.507s6.956-15.507,15.507-15.507       s15.508,6.956,15.508,15.507S375.81,144.213,367.259,144.213z M367.259,116.029c-6.99,0-12.677,5.687-12.677,12.677       s5.687,12.677,12.677,12.677c6.99,0,12.677-5.687,12.677-12.677S374.249,116.029,367.259,116.029z"/>
				</g>
				<g>
					<path style="fill:#412945;" d="M436.409,393.029c-7.355,0-13.339-5.984-13.339-13.34c0-7.355,5.984-13.34,13.339-13.34       c7.355,0,13.339,5.984,13.339,13.34C449.748,387.045,443.764,393.029,436.409,393.029z M436.409,369.18       c-5.795,0-10.509,4.715-10.509,10.509c0,5.794,4.714,10.509,10.509,10.509c5.795,0,10.509-4.715,10.509-10.509       C446.917,373.895,442.203,369.18,436.409,369.18z"/>
				</g>
				<g>
					<path style="fill:#412945;" d="M467.23,286.1c-8.152,0-14.785-6.632-14.785-14.785c0-8.152,6.632-14.785,14.785-14.785       s14.785,6.633,14.785,14.785C482.015,279.468,475.382,286.1,467.23,286.1z M467.23,259.361       c-6.592,0-11.954,5.363-11.954,11.954c0,6.592,5.362,11.954,11.954,11.954s11.954-5.362,11.954-11.954       C479.184,264.724,473.821,259.361,467.23,259.361z"/>
				</g>
				<g>
					<path style="fill:#412945;" d="M80.971,176.105c-8.351,0-15.146-6.795-15.146-15.146c0-8.352,6.795-15.146,15.146-15.146       s15.146,6.795,15.146,15.146C96.117,169.31,89.323,176.105,80.971,176.105z M80.971,148.643       c-6.791,0-12.316,5.525-12.316,12.316c0,6.791,5.525,12.316,12.316,12.316s12.316-5.525,12.316-12.316       C93.287,154.168,87.762,148.643,80.971,148.643z"/>
				</g>
			</g>
			<g>
				<g>
					<g>
						<g>
							<path style="fill:#F7EDE5;" d="M433.476,342.534c0,0-43.727,8.942-103.354,4.962c-59.617-3.97-72.538-8.446-126.2-31.798         c-44.077-19.178-97.876-16.395-97.876-16.395s-1.498-9.438-12.425-40.244c-5.264-14.848,0.545-34.999,7.969-51.891         c0.292-0.656,5.667-0.92,5.96-1.564c0.146-0.321-4.795-1.028-4.646-1.345c7.716-16.775,16.551-29.667,16.551-29.667         l-16.892-73.784l93.468-13.35l2.255,5.086l0.635-5.505l34.065-4.865c0,0,10.684,93.409,43.474,126.2         c29.366,29.366,88.204,45.187,123.729,54.596c0.501,0.131-0.649,3.609-0.155,3.74c0.456,0.12,2.557-3.107,3.006-2.99         c3.065,0.817,5.935,1.576,8.572,2.296C444.403,274.959,433.476,342.534,433.476,342.534z"/>
						</g>
					</g>
					<path style="fill:#412945;" d="M429.821,333.772c-22.011,3.39-79.183,9.734-143.916-2.669       c-43.257-8.289-78.504-22.359-110.8-31.799c-23.435-6.85-53.934-11.346-68.905-13.297c-4.659-0.607-8.662,3.284-8.194,7.958       l0.036,0.357c0.324,3.236,2.742,5.865,5.942,6.448c1.676,0.305,3.706,0.678,6.034,1.111v39.656H99.583l0.994,12.918h13.415       v24.346h17.281c-10.835,8.696-17.778,22.042-17.778,37.016c0,26.206,21.244,47.45,47.45,47.45       c26.206,0,47.45-21.244,47.45-47.45c0-14.974-6.943-28.319-17.778-37.016h21.753l1.491-11.428h96.391l4.969,12.422h10.974       c-9.491,8.676-15.446,21.156-15.446,35.028c0,26.206,21.244,47.45,47.45,47.45c26.206,0,47.45-21.244,47.45-47.45       c0-13.872-5.955-26.352-15.446-35.028h14.949l6.335-25.34h9.068v-5.167c4.622-0.36,8.452-0.73,11.265-1.07       c3.31-0.401,5.923-2.999,6.349-6.306C438.79,337.094,434.622,333.033,429.821,333.772z M212.414,341.536l1.4-15.756       c18.177,5.876,40.191,11.406,61.493,15.756H212.414z"/>
					<g>
						<g>
							<g>
								<g>
									<path style="fill:#412945;" d="M215.754,317.246l-2.793,0.876c-0.195-0.623-20.093-63.022-48.768-88.788           c-21.698-19.489-50.13-22.068-62.604-22.165c0.438-0.983,0.866-1.956,1.314-2.909c13.486,0.292,41.577,3.435,63.236,22.905           C195.418,253.465,214.937,314.658,215.754,317.246z"/>
								</g>
							</g>
						</g>
						<g>
							<g>
								<g>
									<path style="fill:#412945;" d="M403.04,263.72c-2.734,6.208-11.501,20.531-34.25,20.531c-3.941,0-8.3-0.428-13.116-1.401           c-21.484-4.349-47.639-14.138-69.96-26.174c-19.071-10.275-44.379-27.04-56.727-48.563           c-8.602-14.994-21.251-48.087-32.956-120.654l2.89-0.419c11.628,72.1,24.131,104.842,32.606,119.622           c21.27,37.091,86.997,65.679,124.721,73.326c30.115,6.091,40.847-10.226,43.941-17.018           C401.152,263.224,402.106,263.477,403.04,263.72z"/>
								</g>
							</g>
						</g>
						<g>
							<g>
								<g>
									<path style="fill:#412945;" d="M230.651,114.586c-1.829-7.181-6.5-11.987-10.616-10.937           c-4.126,1.051-5.916,7.502-4.087,14.683c0.837,3.269,2.296,6.188,4.126,8.232c1.674,1.868,3.522,2.851,5.303,2.851           c0.409,0,0.798-0.049,1.197-0.146c2.141-0.545,3.697-2.501,4.408-5.488C231.604,121.115,231.488,117.846,230.651,114.586z            M228.14,123.11c-0.438,1.858-1.275,3.065-2.287,3.328c-1.022,0.263-2.335-0.409-3.61-1.82           c-1.518-1.693-2.744-4.184-3.464-7.006c-1.508-5.877-0.165-10.586,1.975-11.131c0.146-0.039,0.302-0.058,0.457-0.058           c2.141,0,5.215,3.406,6.616,8.883C228.549,118.128,228.656,120.901,228.14,123.11z"/>
								</g>
							</g>
						</g>
						<g>
							<g>
								<g>
									<path style="fill:#412945;" d="M239.262,156.65c-0.827-3.269-2.296-6.188-4.116-8.222c-2.053-2.296-4.359-3.25-6.5-2.705           c-2.141,0.545-3.707,2.491-4.408,5.488c-0.623,2.666-0.516,5.926,0.321,9.195c0.837,3.269,2.296,6.188,4.126,8.222           c1.674,1.868,3.522,2.861,5.313,2.861c0.399,0,0.798-0.059,1.187-0.156c2.141-0.545,3.698-2.491,4.408-5.488           C240.216,163.178,240.099,159.919,239.262,156.65z M236.752,165.173c-0.438,1.859-1.275,3.075-2.287,3.337           c-1.022,0.253-2.335-0.409-3.61-1.829c-1.518-1.693-2.744-4.184-3.464-6.996c-0.72-2.822-0.827-5.595-0.311-7.813           c0.438-1.849,1.265-3.065,2.287-3.328c0.146-0.039,0.292-0.049,0.448-0.049c0.944,0,2.063,0.662,3.153,1.878           c1.518,1.693,2.754,4.174,3.474,6.996C237.16,160.191,237.267,162.964,236.752,165.173z"/>
								</g>
							</g>
						</g>
						<g>
							<g>
								<g>
									<path style="fill:#412945;" d="M256.543,203.51c-0.165-1.353-0.555-2.793-1.138-4.233c-0.584-1.45-1.372-2.9-2.326-4.291           c-1.897-2.783-4.272-5.021-6.685-6.315c-2.715-1.45-5.215-1.557-7.035-0.311c-3.512,2.403-2.987,9.069,1.197,15.189           c1.897,2.783,4.281,5.03,6.694,6.315c1.46,0.788,2.861,1.177,4.126,1.177c1.08,0,2.063-0.282,2.9-0.856           C256.105,208.939,256.903,206.565,256.543,203.51z M252.631,207.772c-0.866,0.594-2.325,0.418-4.009-0.477           c-2.004-1.08-4.019-2.987-5.653-5.391c-3.425-5.011-3.785-9.895-1.965-11.141c0.341-0.224,0.769-0.341,1.265-0.341           c0.778,0,1.722,0.272,2.744,0.827c1.002,0.535,2.004,1.275,2.968,2.189c0.963,0.915,1.878,1.985,2.695,3.191           c1.644,2.403,2.695,4.972,2.968,7.23C253.867,205.758,253.497,207.178,252.631,207.772z"/>
								</g>
							</g>
						</g>
						<g>
							<g>
								<g>
									<path style="fill:#412945;" d="M286.22,229.149c-0.574-1.245-1.391-2.491-2.394-3.678           c-1.002-1.197-2.189-2.335-3.532-3.367c-2.666-2.063-5.624-3.454-8.31-3.941c-3.036-0.535-5.439,0.127-6.792,1.878           c-2.598,3.367-0.029,9.555,5.838,14.079c2.666,2.063,5.624,3.454,8.319,3.941c0.681,0.117,1.333,0.175,1.956,0.175           c2.102,0,3.785-0.701,4.826-2.053C287.475,234.432,287.514,231.942,286.22,229.149z M283.816,234.403           c-0.642,0.827-2.082,1.119-3.96,0.778c-2.238-0.399-4.739-1.596-7.045-3.376c-4.807-3.697-6.655-8.232-5.303-9.983           c0.467-0.603,1.353-0.915,2.52-0.915c0.438,0,0.924,0.039,1.44,0.136c2.238,0.399,4.739,1.596,7.045,3.376           c2.306,1.771,4.096,3.892,5.06,5.955C284.371,232.097,284.459,233.566,283.816,234.403z"/>
								</g>
							</g>
						</g>
						<g>
							<g>
								<g>
									<path style="fill:#412945;" d="M328.059,250.808c-1.469-2.306-3.892-4.505-6.811-6.188           c-6.412-3.707-13.107-3.727-15.237-0.039c-2.131,3.688,1.236,9.477,7.658,13.185c3.221,1.858,6.509,2.783,9.253,2.783           c2.734,0,4.923-0.915,5.984-2.744C330.005,255.887,329.704,253.406,328.059,250.808z M326.376,256.345           c-1.1,1.907-5.994,1.927-11.248-1.109c-5.264-3.036-7.697-7.278-6.587-9.195c0.487-0.846,1.722-1.323,3.415-1.323           c2.102,0,4.914,0.74,7.833,2.433c2.52,1.45,4.583,3.308,5.809,5.225C326.619,253.99,326.902,255.43,326.376,256.345z"/>
								</g>
							</g>
						</g>
					</g>
				</g>
				<g>
					<g>
						<g>
							<g>
								<g>
									<g>
										<path style="fill:#F8BDFF;" d="M160.945,444.852c-15.188,0-27.545-12.357-27.545-27.545            c0-15.188,12.357-27.544,27.545-27.544c15.188,0,27.544,12.356,27.544,27.544            C188.49,432.495,176.133,444.852,160.945,444.852z M160.945,392.682c-13.579,0-24.626,11.046-24.626,24.625            c0,13.578,11.047,24.626,24.626,24.626c13.578,0,24.625-11.047,24.625-24.626            C185.571,403.728,174.524,392.682,160.945,392.682z"/>
									</g>
								</g>
								<g>
									<g>
										<path style="fill:#F8BDFF;" d="M358.695,442.368c-15.188,0-27.545-12.357-27.545-27.545            c0-15.188,12.357-27.545,27.545-27.545c15.188,0,27.544,12.357,27.544,27.545            C386.239,430.011,373.883,442.368,358.695,442.368z M358.695,390.197c-13.579,0-24.626,11.047-24.626,24.626            c0,13.578,11.047,24.626,24.626,24.626c13.578,0,24.625-11.047,24.625-24.626            C383.321,401.244,372.274,390.197,358.695,390.197z"/>
									</g>
								</g>
							</g>
							<g>
								<g>
									<path style="fill:#F8BDFF;" d="M420.554,355.914H100.577c-0.806,0-1.46-0.653-1.46-1.46c0-0.806,0.653-1.46,1.46-1.46           h319.977c0.806,0,1.46,0.653,1.46,1.46C422.014,355.261,421.36,355.914,420.554,355.914z"/>
								</g>
							</g>
						</g>
						<g>
							<g>
								<path style="fill:#6E72FF;" d="M227.153,270.125c1.523,2.826,2.793,4.853,3.81,6.082c1.016,1.228,2.32,2.014,3.913,2.359          c1.593,0.344,3.279-0.087,5.062-1.289c-1.791-1.242-3.087-2.348-3.89-3.318c-2.811-3.395-4.033-6.797-3.667-10.205          c0.366-3.408,2.287-6.551,5.762-9.429c3.475-2.876,7.172-4.153,11.092-3.828c3.918,0.324,7.406,2.33,10.456,6.015          c3.051,3.686,4.159,7.658,3.326,11.917c-0.834,4.259-3.772,8.475-8.816,12.651c-6.305,5.219-12.077,8.103-17.314,8.653          c-5.239,0.55-9.691-1.39-13.357-5.818c-4.551-5.498-5.904-9.008-4.061-10.533c0.97-0.803,2.4-1.659,4.288-2.57          C225.646,269.901,226.778,269.672,227.153,270.125z M250.88,263.641c-0.856-1.036-1.85-1.561-2.981-1.578          c-1.132-0.017-2.215,0.404-3.249,1.26c-1.034,0.857-1.593,1.877-1.675,3.062c-0.082,1.184,0.305,2.293,1.161,3.328          c0.857,1.035,1.779,1.688,2.767,1.96c2.231-1.847,3.665-3.388,4.304-4.625C251.847,265.811,251.738,264.675,250.88,263.641z          "/>
							</g>
							<g>
								<path style="fill:#6E72FF;" d="M266.979,315.593c-4.922-1.875-8.256-5.21-10-10.006c-1.744-4.796-1.293-10.666,1.352-17.608          c2.644-6.942,6.21-11.59,10.7-13.945c4.49-2.354,9.215-2.586,14.177-0.697s8.299,5.182,10.015,9.877          c1.714,4.695,1.22,10.593-1.484,17.691c-2.704,7.099-6.276,11.79-10.716,14.074          C276.581,317.264,271.9,317.467,266.979,315.593z M278.788,284.588c-1.51-0.575-3.109-0.208-4.799,1.103          c-1.69,1.31-3.132,3.535-4.327,6.672c-1.195,3.138-1.61,5.731-1.245,7.778c0.365,2.048,1.342,3.374,2.931,3.979          c1.588,0.605,3.204,0.255,4.846-1.051c1.642-1.305,3.061-3.526,4.257-6.665c1.194-3.136,1.593-5.748,1.196-7.83          C281.251,286.492,280.298,285.163,278.788,284.588z"/>
							</g>
							<g>
								<path style="fill:#6E72FF;" d="M304.622,294.05c-0.588,0.024-1.178-0.036-1.771-0.18c-1.189-0.287-1.798-0.808-1.828-1.563          l-0.544-13.273c-0.031-0.755,0.848-1.336,2.638-1.746c0.873-0.203,1.771-0.324,2.694-0.362          c0.922-0.038,1.848,0.009,2.778,0.138c1.816,0.262,2.741,0.769,2.772,1.524l-3.231,13.428          c0.031,0.754-0.555,1.325-1.757,1.709C305.792,293.918,305.209,294.026,304.622,294.05z"/>
							</g>
							<g>
								<path style="fill:#6E72FF;" d="M326.631,307.959c3.912,0.698,6.787,0.694,8.628-0.015c1.176-0.452,1.606-1.09,1.289-1.913          c-0.227-0.587-1.54-0.959-3.938-1.115c-5.665-0.113-9.371-2.443-11.121-6.986c-1.116-2.899-0.909-5.519,0.618-7.86          c1.527-2.342,3.768-4.082,6.728-5.22c2.956-1.138,5.584-1.789,7.882-1.954c2.297-0.165,3.643,0.263,4.034,1.281          c0.332,0.862,0.347,2.16,0.048,3.894c-0.3,1.734-0.584,2.721-0.851,2.959c-2.046-0.292-4.049-0.061-6.007,0.692          c-1.058,0.407-1.443,0.984-1.157,1.728c0.182,0.47,0.542,0.793,1.081,0.967c0.539,0.175,1.452,0.297,2.737,0.364          c1.285,0.068,2.365,0.159,3.241,0.27c0.875,0.114,1.899,0.349,3.071,0.708c2.454,0.765,4.139,2.342,5.059,4.731          c1.206,3.134,1.143,6.069-0.187,8.807c-1.329,2.738-4.09,4.914-8.281,6.526c-2.781,1.071-5.488,1.574-8.123,1.507          c-2.633-0.066-4.267-0.921-4.899-2.567c-0.422-1.096-0.603-2.353-0.541-3.771          C326.004,309.572,326.234,308.562,326.631,307.959z"/>
							</g>
						</g>
						<g>
							<g>
								<polygon style="fill:#FFC063;" points="158.619,160.314 158.905,119.65 173.224,156.591 199.856,154.301 183.533,169.764           195.847,194.679 167.496,176.351 150.601,202.983 154.896,173.487 127.977,166.328         "/>
							</g>
						</g>
					</g>
					<g>
						<path style="fill:#412945;" d="M328.731,169.677c-3.587-20.167-17.293-37.925-34.916-45.241        c-6.5-2.699-13.467-4.073-20.204-5.403c-5.231-1.032-10.64-2.099-15.73-3.776c-10.208-3.362-22.364-11.625-23.078-23.851        c6.472-5.548,58.935-51.215,57.248-72.27c-0.281-3.505-1.968-6.216-5.015-8.057c-3.083-1.863-6.423-2.143-9.927-0.835        c-21.663,8.092-44.199,77.204-45.147,80.142c-0.1,0.308-0.085,0.629,0.02,0.918c-0.001,0.012-0.001,0.025-0.002,0.037        c-2.582-3.698-42.436-60.088-75.249-65.821c-7.258-1.269-13.701,0.052-19.154,3.924c-4.723,3.354-6.761,7.24-6.058,11.55        c3.615,22.152,84.367,48.094,97.34,52.125c-9.575,7.102-17.186,17.384-19.693,26.789c-1.962,7.358-2.175,15.179-2.38,22.743        c-0.3,11.047-0.584,21.482-5.875,30.453c-4.94,8.376-13.681,14.031-21.393,19.02c-0.656,0.424-0.844,1.301-0.419,1.957        c0.271,0.419,0.725,0.646,1.19,0.646c0.264,0,0.53-0.073,0.768-0.227c7.975-5.159,17.014-11.007,22.293-19.958        c5.663-9.601,5.97-20.894,6.267-31.814c0.201-7.401,0.409-15.054,2.285-22.091c2.501-9.38,10.486-19.736,20.385-26.48        c2.184,12.209,14.372,20.382,24.711,23.788c5.256,1.732,10.753,2.816,16.068,3.865c6.601,1.303,13.427,2.649,19.667,5.24        c16.755,6.956,29.793,23.883,33.215,43.123c0.122,0.686,0.719,1.168,1.392,1.168c0.083,0,0.166-0.007,0.25-0.022        C328.355,171.181,328.869,170.446,328.731,169.677z M278.098,12.895c1.121-0.419,2.2-0.628,3.246-0.628        c1.463,0,2.863,0.41,4.226,1.234c2.255,1.362,3.451,3.279,3.658,5.861c1.391,17.352-39.778,55.315-52.89,66.935        C241.997,70.075,260.913,19.313,278.098,12.895z M134.311,40.538c-0.522-3.199,1.082-6.073,4.903-8.786        c3.622-2.572,7.76-3.864,12.35-3.864c1.511,0,3.071,0.14,4.676,0.421c27.497,4.803,61.617,48.616,71.007,61.327        C209.238,83.87,137.444,59.737,134.311,40.538z"/>
					</g>
				</g>
			</g>
		</g>
	</g>
</g>
<g>
</g>
<g>
</g>
<g>
</g>
<g>
</g>
<g>
</g>
<g>
</g>
<g>
</g>
<g>
</g>
<g>
</g>
<g>
</g>
<g>
</g>
<g>
</g>
<g>
</g>
<g>
</g>
<g>
</g>
</svg>
