<?xml version="1.0" encoding="UTF-8"?>
<!-- Generator: Adobe Illustrator 25.3.1, SVG Export Plug-In . SVG Version: 6.00 Build 0)  -->
<svg xmlns="http://www.w3.org/2000/svg" xmlns:xlink="http://www.w3.org/1999/xlink" version="1.1" id="Capa_1" x="0px" y="0px" viewBox="0 0 512.075 512.075" style="enable-background:new 0 0 512.075 512.075;" xml:space="preserve" width="512" height="512">
<g>
	<g>
		<path style="fill:#FFFFFF;" d="M255.858,512.073c-61.425,0.222-122.596-22.71-168.573-63.365    C-53.732,325.685-18.192,95.997,153.542,21.376c123.164-55.321,275.031,0.641,332.619,122.846    C568.328,314.152,444.794,511.807,255.858,512.073z"/>
		<g>
			<g>
				<path style="fill:#5F2183;" d="M495.308,256.087c0,0.581,0,1.161-0.028,1.715c0,0.857,0,1.715-0.028,2.572      c0,1.3-0.055,2.628-0.11,3.928c0,0.138,0,0.249-0.028,0.387c-0.138,4.702-0.415,9.404-0.885,14.051      c-0.208,2.316-0.448,4.631-0.747,6.942v0.028c-7.564,63.795-42.483,123.18-93.044,161.246      c-1.906,1.435-189.694,44.29-193.533,43.492c-17.177-3.57-34.004-9.083-49.676-16.211c-0.775-0.332-1.521-0.664-2.296-1.051      c-10.483-4.863-19.857-24.027-29.474-30.391c-9.38-6.111-35.75-14.269-39.425-18.068c-25.261-25.352-44.38-55.868-56.287-89.948      c-4.586-13.072-7.995-26.632-10.234-40.631c-0.083-0.415-0.138-0.857-0.194-1.3C5.078,206.762,43.055,117.114,108.742,67.257      l0.083-0.055c60.864-46.998,132.69-59.356,197.812-44.975C348.82,31.541,360.9,160.601,360.9,160.601      s119.172-3.685,129.49,47.294c2.133,10.54,3.616,21.422,4.392,32.62C495.133,245.704,495.316,250.87,495.308,256.087z"/>
			</g>
			<g>
				<g>
					<polygon style="fill:#564BB7;" points="259.887,219.577 227.063,225.878 249.912,250.273 219.646,236.065 223.816,269.236        207.683,239.946 191.551,269.236 195.72,236.065 165.454,250.273 188.303,225.878 155.48,219.577 188.303,213.276        165.455,188.881 195.72,203.088 191.551,169.918 207.683,199.208 223.816,169.918 219.647,203.088 249.912,188.881        227.063,213.276      "/>
				</g>
				<g>
					<path style="fill:#564BB7;" d="M187.875,76.439l-28.544-13.387l3.927,31.31l-15.24-27.659l-15.213,27.659l3.928-31.31       l-28.572,13.387l21.574-23.012l-0.996-0.194c10.013-6.306,20.551-11.866,31.504-16.651c5.559-2.434,11.202-4.646,16.955-6.666       l-10.87,11.617l30.978,5.947l-30.978,5.947L187.875,76.439z"/>
				</g>
				<g>
					<path style="fill:#564BB7;" d="M495.308,256.087c0,0.581,0,1.161-0.028,1.715c0,0.857,0,1.715-0.028,2.572l-3.43,3.679       l3.291,0.636c-0.138,4.702-0.415,9.404-0.885,14.051l-2.406,0.47l2.13,2.296c-0.138,1.383-0.276,2.793-0.47,4.176v0.028       c-0.415,3.375-0.913,6.749-1.466,10.068l-9.128-4.287l3.624,28.987c-0.498,1.853-1.023,3.706-1.604,5.532l-16.429-29.844       l-19.417,35.238l5.034-39.912l-36.455,17.093l27.521-29.374l-39.525-7.579l39.525-7.579l-27.521-29.374l36.455,17.121       l-5.034-39.94l19.417,35.266l19.417-35.266l-5.007,39.94l12.198-5.725C495.252,249.393,495.308,252.74,495.308,256.087z"/>
				</g>
			</g>
			<g>
				<g>
					<path style="fill:#FF5382;" d="M400.408,446.935c-1.908,1.466-3.817,2.876-5.753,4.232c-0.387,0.304-0.802,0.608-1.217,0.885       c-29.347,20.634-63.505,34.823-100.486,40.576h-0.028c-1.162,0.194-2.323,0.359-3.513,0.498       c-8.076,1.162-16.264,1.881-24.589,2.158c-0.47,0.055-0.968,0.055-1.438,0.055c-2.49,0.111-4.979,0.138-7.468,0.138       c-12.723,0-25.253-0.995-37.45-2.932c-0.664-0.083-1.3-0.194-1.936-0.304c-3.126-0.498-6.223-1.079-9.321-1.742       c0.055-11.119,1.936-21.851,5.311-31.864c0.138-0.443,0.304-0.885,0.442-1.328c5.366-15.157,14.245-28.655,25.612-39.497       c1.107-1.079,2.213-2.13,3.375-3.125c0.387-0.36,0.774-0.691,1.189-1.023c3.043-2.6,6.279-5.006,9.626-7.219       c16.07-10.676,35.376-16.9,56.121-16.9C349.156,389.543,383.979,412.97,400.408,446.935z"/>
				</g>
				<g style="opacity:0.38;">
					<g>
						<g>
							<path style="fill:#F3C7D1;" d="M394.655,451.167c-0.387,0.304-0.802,0.608-1.217,0.885         c-3.209-15.24-15.462-29.235-33.412-37.893c-9.294-4.453-19.389-7.302-29.679-8.464c-2.019-0.249-4.066-0.387-6.085-0.498         c-9.819-0.498-19.693,0.553-29.125,3.181c-3.651,0.996-7.33,2.268-10.87,3.485c-7.136,2.462-14.549,5.034-22.211,5.698         c-4.038,0.359-8.076,0.138-12.004-0.608c-2.766-0.526-5.477-1.272-8.104-2.268c0.387-0.36,0.774-0.691,1.189-1.023         c2.351,0.83,4.785,1.494,7.247,1.936c3.817,0.691,7.689,0.913,11.562,0.581c7.496-0.664,14.798-3.181,21.879-5.615         c3.568-1.217,7.247-2.489,10.925-3.513c9.681-2.711,19.859-3.762,29.955-3.236c1.715,0.083,3.43,0.221,5.172,0.415         c10.649,1.134,21.132,4.038,30.73,8.685C378.724,421.627,391.171,435.733,394.655,451.167z"/>
						</g>
					</g>
					<g>
						<g>
							<path style="fill:#F3C7D1;" d="M355.324,456.561c-10.096,12.862-25.585,19.417-40.576,25.779         c-5.781,2.434-11.755,4.978-17.342,7.827c-1.3,0.664-2.793,1.466-4.453,2.462h-0.028c-1.162,0.194-2.323,0.359-3.513,0.498         c2.821-1.77,5.338-3.153,7.357-4.176c5.643-2.904,11.645-5.449,17.453-7.883c14.825-6.279,30.149-12.778,39.995-25.363         c1.936-2.462,7.966-11.064,4.149-18.504c-2.738-5.394-9.377-7.247-13.083-7.883c-5.338-0.913-11.036-0.747-17.148,0.498         c-0.553,0.111-1.106,0.249-1.687,0.36c-6.887,1.632-14.272,4.592-22.293,8.934c-3.927,2.13-7.855,4.453-11.644,6.693         c-8.547,5.09-17.37,10.317-26.913,13.664c-16.983,5.975-36.151,5.449-53.078-0.83c0.138-0.443,0.304-0.885,0.442-1.328         c16.623,6.196,35.487,6.721,52.166,0.858c9.404-3.319,18.2-8.519,26.691-13.553c3.789-2.241,7.717-4.564,11.672-6.721         c8.076-4.37,15.572-7.357,22.543-8.989c0.857-0.222,1.715-0.415,2.572-0.553c6.002-1.162,11.617-1.272,16.928-0.387         c3.955,0.664,11.064,2.683,14.079,8.602C362.432,442.067,360.828,449.535,355.324,456.561z"/>
						</g>
					</g>
					<g>
						<g>
							<path style="fill:#F3C7D1;" d="M264.823,495.284c-0.47,0.055-0.968,0.055-1.438,0.055c-2.49-8.187-11.451-12.778-19.03-13         c-7.579-0.249-15.71,2.821-24.34,9.044c-0.526,0.387-1.023,0.747-1.549,1.162c-0.664-0.083-1.3-0.194-1.936-0.304         c0.857-0.664,1.77-1.355,2.655-1.991c8.879-6.389,17.315-9.542,25.198-9.293         C252.597,481.205,262.306,486.294,264.823,495.284z"/>
						</g>
					</g>
				</g>
			</g>
			<g>
				<g>
					
						<ellipse transform="matrix(0.3797 -0.9251 0.9251 0.3797 -47.0045 214.6496)" style="fill:#FDBC08;" cx="136.564" cy="142.376" rx="49.434" ry="49.434"/>
				</g>
				<g>
					
						<rect x="57.425" y="150.382" transform="matrix(0.9447 -0.3281 0.3281 0.9447 -42.0484 54.3487)" style="fill:#9F6DA4;" width="165.249" height="2.825"/>
				</g>
				<g>
					
						<rect x="54.645" y="142.376" transform="matrix(0.9447 -0.3281 0.3281 0.9447 -39.576 52.9935)" style="fill:#9F6DA4;" width="165.249" height="2.825"/>
				</g>
				<g>
					
						<rect x="51.865" y="134.371" transform="matrix(0.9447 -0.3281 0.3281 0.9447 -37.1035 51.6382)" style="fill:#F3C7D1;" width="165.249" height="2.825"/>
				</g>
			</g>
			<g>
				<path style="fill:#9F6DA4;" d="M402.569,387.002c-6.56,0.195-13.229-1.659-18.994-5.757      c-14.096-10.018-17.399-29.559-7.381-43.654c10.009-14.082,29.549-17.386,43.645-7.368c5.765,4.098,9.718,9.773,11.691,16.032      c-9.481,0.272-18.726,4.817-24.647,13.148C400.962,367.733,399.699,377.972,402.569,387.002z"/>
			</g>
			<g>
				<g>
					<path style="fill:#95ABD3;" d="M188.318,245.797c-0.747-1.77-2.241-3.153-4.453-4.177c-2.185-1.023-5.034-1.659-8.464-1.964       c-17.536-1.549-50.451,5.864-88.206,20.496c-3.264,1.272-6.555,2.6-9.874,3.983c-0.94,0.36-1.908,0.775-2.848,1.162       c-21.104,8.823-39.94,18.366-55.153,27.549c0.055,0.443,0.111,0.885,0.194,1.3c15.296-9.266,34.325-18.919,55.429-27.77       c0.913-0.387,1.825-0.747,2.711-1.107c3.402-1.41,6.749-2.738,10.068-4.038c34.242-13.221,64.944-20.661,83.033-20.661       c1.3,0,2.517,0.028,3.679,0.111c3.236,0.221,5.947,0.719,8.076,1.577c2.379,0.94,3.983,2.241,4.73,4.011       c2.462,5.891-5.947,16.291-23.095,28.544c-10.732,7.662-24.147,15.572-39.221,23.179c-3.153,1.604-6.362,3.181-9.653,4.758       c-6.804,3.236-13.857,6.389-21.131,9.432c-2.96,1.245-5.919,2.434-8.851,3.596c-7.91,3.126-15.683,6.002-23.261,8.547       c-11.534,3.872-22.57,7.025-32.693,9.294c0.138,0.387,0.249,0.775,0.415,1.162c10.096-2.295,21.077-5.449,32.583-9.321       c7.634-2.545,15.489-5.421,23.455-8.602c2.932-1.134,5.864-2.323,8.796-3.568c7.302-3.043,14.411-6.223,21.242-9.487       c3.263-1.549,6.5-3.126,9.625-4.73c15.13-7.634,28.6-15.6,39.387-23.289C182.73,263.001,191.056,252.353,188.318,245.797z"/>
				</g>
				<g>
					<path style="fill:#FF5382;" d="M86.659,321.514c0,6.89-5.586,12.476-12.476,12.476c-6.89,0-12.476-5.585-12.476-12.476       c0-6.891,5.586-12.476,12.476-12.476C81.073,309.038,86.659,314.624,86.659,321.514z"/>
				</g>
				<g>
					<path style="fill:#F3C7D1;" d="M125.735,300.799c0,2.99-2.424,5.414-5.414,5.414s-5.414-2.424-5.414-5.414       c0-2.99,2.424-5.414,5.414-5.414S125.735,297.809,125.735,300.799z"/>
				</g>
				<g>
					<path style="fill:#F3C7D1;" d="M88.072,263.135c0,2.99-2.424,5.414-5.414,5.414c-2.99,0-5.414-2.424-5.414-5.414       c0-2.99,2.424-5.414,5.414-5.414C85.648,257.721,88.072,260.146,88.072,263.135z"/>
				</g>
			</g>
			<g>
				<g>
					<g>
						<path style="fill:#95ABD3;" d="M471.244,151.368c8.63,17.73,15.157,36.676,19.195,56.508        c-4.093,5.228-8.574,10.123-13.442,14.66c-2.213,2.102-4.508,4.094-6.859,6.002c-3.347,2.738-6.805,5.31-10.4,7.689        c-2.821,1.881-5.726,3.651-8.685,5.31c-1.217,0.692-2.462,1.355-3.706,1.991c-3.098,1.604-6.251,3.07-9.487,4.426        c-15.655,6.583-32.886,10.234-50.948,10.234c-18.006,0-35.155-3.596-50.754-10.123c-6.307-2.656-12.364-5.753-18.145-9.321        c-37.672-23.179-62.814-64.806-62.814-112.269c0-16.319,2.96-31.946,8.408-46.357c8.713-23.151,23.759-43.204,43.038-58.029        c22.072,4.73,43.01,12.53,62.344,22.93c43.958,33.614,43.969,42.695,66.152,86.369        C435.748,132.604,470.663,150.152,471.244,151.368z"/>
					</g>
					<g>
						<path style="fill:#F3C7D1;" d="M366.333,215.427c-1.909,11.617-14.604,17.564-23.704,25.447        c-2.544,2.185-4.813,4.536-6.472,7.192c-6.307-2.656-12.364-5.753-18.145-9.321c-37.672-23.179-62.814-64.806-62.814-112.269        c0-16.319,2.96-31.946,8.408-46.357c5.753-2.573,12.115-4.094,19.029-4.37c9.46-0.359,20.8,3.209,23.04,12.419        c1.909,7.744-3.596,15.074-7.523,22.017c-4.26,7.44-6.915,15.793-7.828,24.312c-0.249,2.268-0.332,4.674,0.636,6.749        c2.351,5.062,9.377,5.477,14.853,4.37c5.477-1.134,11.562-2.96,16.292-0.028c4.951,3.07,5.919,10.013,4.536,15.655        c-1.383,5.642-4.536,10.704-6.057,16.319c-1.024,3.845-0.996,8.574,2.13,11.036c2.572,2.019,6.168,1.743,9.404,1.549        c8.159-0.47,16.678,0.498,23.621,4.785C362.681,199.219,367.66,207.379,366.333,215.427z"/>
					</g>
					<g>
						<path style="fill:#F3C7D1;" d="M456.142,163.954c-0.194,2.821,1.217,5.449,2.738,7.827c0.083,0.138,0.166,0.277,0.276,0.415        c3.374,5.394,7.413,10.594,9.045,16.734c1.715,6.306,0.11,14.134-5.615,17.259c-7.247,3.983-16.319-2.047-19.5-9.791        c-0.194-0.498-0.36-0.996-0.526-1.521c-2.517-8.409-0.415-17.398,0.194-26.166c0.581-8.768-1.051-18.863-8.408-23.676        c-8.132-5.366-20.33-2.157-27.438-8.823c-6.777-6.334-4.481-18.061,1.521-25.115c1.604-1.881,3.457-3.706,4.038-6.112        c1.051-4.398-3.015-8.657-7.385-9.791c-4.398-1.162-9.017-0.194-13.525,0.194c-4.508,0.387-9.542-0.028-12.779-3.208        c-3.042-3.015-3.54-8.27-1.106-11.811c3.734-5.476,13.221-7.302,13.138-13.913c-0.055-3.844-3.678-6.638-7.246-8.021        c-3.568-1.383-7.551-2.074-10.455-4.536c-2.572-2.185-3.9-5.504-4.121-8.878c43.093,23.123,78.276,59.052,100.458,102.726        c0.608,1.217,1.217,2.406,1.798,3.623c-1.217,0.553-2.461,1.079-3.678,1.632c-1.162,0.526-2.351,1.079-3.485,1.687        C460.319,156.652,456.446,159.722,456.142,163.954z"/>
					</g>
					<g>
						<path style="fill:#F3C7D1;" d="M318.423,126.48c1.388,1.171,3.124,2.099,4.935,1.96c4.078-0.312,5.766-5.246,8.585-8.209        c4.233-4.45,11.51-4.518,16.172-8.516c12.782-10.963-5.245-27.576-17.927-22.207        C317.867,94.724,305.693,115.747,318.423,126.48z"/>
					</g>
				</g>
				<g style="opacity:0.14;">
					<path style="fill:#1C0231;" d="M471.244,151.368c8.63,17.73,15.157,36.676,19.195,56.508       c-4.093,5.228-8.574,10.123-13.442,14.66c-2.213,2.102-4.508,4.094-6.859,6.002c-3.347,2.738-6.805,5.31-10.4,7.689       c-2.821,1.881-5.726,3.651-8.685,5.31c-1.217,0.692-2.462,1.355-3.706,1.991c-3.098,1.604-6.251,3.07-9.487,4.426       c-15.655,6.583-32.886,10.234-50.948,10.234c-18.006,0-35.155-3.596-50.754-10.123c-6.307-2.656-12.364-5.753-18.145-9.321       c3.292,0.747,6.528,1.328,9.709,1.604c4.951,0.415,9.957,0.581,14.908,0.526c9.874-0.083,19.721-1.107,29.347-3.181       c27.3-5.836,52.995-20.136,71.112-41.295c1.19-1.383,2.351-2.821,3.485-4.287c4.84-6.251,8.989-12.917,12.585-19.914       c3.209-6.196,5.974-12.64,8.409-19.196c0.664-1.743,1.272-3.485,1.881-5.255C470.055,148.962,470.663,150.152,471.244,151.368z       "/>
				</g>
			</g>
			<g>
				<g>
					<path style="fill:#1C0231;" d="M359.867,310.613c-9.953-0.753-19.907-0.945-29.861-0.96c-0.001-0.003-0.002-0.007-0.003-0.01       c4.204-3.817,8.305-7.749,12.118-12.003c0.143-0.159,0.162-0.402,0.032-0.583c-0.15-0.209-0.441-0.258-0.651-0.108       c-4.611,3.3-8.94,6.916-13.165,10.647c-0.166-0.093-0.338-0.175-0.519-0.241c-0.011-4.334-0.056-8.669-0.1-13.003       c-0.125-5.511-0.249-11.021-0.555-16.532c-0.01-0.181-0.155-0.33-0.34-0.34c-0.199-0.011-0.369,0.141-0.38,0.34       c-0.306,5.511-0.431,11.021-0.555,16.532c-0.044,4.291-0.088,8.583-0.1,12.874c-0.206,0.048-0.409,0.107-0.6,0.189       c-1.481-1.596-2.973-3.184-4.507-4.734c-2.34-2.418-4.713-4.807-7.183-7.11c-0.083-0.078-0.213-0.087-0.307-0.017       c-0.106,0.079-0.128,0.23-0.049,0.336c2.018,2.707,4.133,5.328,6.28,7.919c1.359,1.678,2.759,3.319,4.17,4.951       c-0.182,0.279-0.315,0.589-0.414,0.915c-4.302,0.03-8.604,0.076-12.905,0.225c-5.511,0.145-11.022,0.343-16.532,0.716       c-0.133,0.009-0.243,0.115-0.252,0.252c-0.01,0.149,0.103,0.278,0.252,0.288c5.51,0.372,11.021,0.571,16.532,0.716       c4.336,0.15,8.673,0.196,13.009,0.225c0.007,0.017,0.015,0.033,0.023,0.05c-4.08,3.77-8.074,7.634-11.843,11.75       c-0.139,0.152-0.157,0.386-0.031,0.558c0.144,0.197,0.42,0.24,0.617,0.096c4.539-3.32,8.847-6.896,13.072-10.567       c0.217,0.098,0.444,0.176,0.681,0.23c0.027,4.401,0.032,8.802,0.147,13.204c0.101,5.511,0.239,11.021,0.498,16.532       c0.009,0.183,0.156,0.334,0.343,0.343c0.199,0.009,0.368-0.144,0.377-0.343c0.259-5.511,0.397-11.021,0.498-16.532       c0.116-4.444,0.12-8.889,0.147-13.334c0.126-0.046,0.247-0.097,0.366-0.156c1.513,1.688,3.017,3.384,4.573,5.034       c2.337,2.422,4.67,4.847,7.158,7.132c0.158,0.146,0.402,0.164,0.582,0.032c0.204-0.15,0.248-0.437,0.098-0.641       c-1.999-2.724-4.154-5.309-6.305-7.897c-1.485-1.746-3.023-3.445-4.552-5.153c0.058-0.106,0.126-0.207,0.173-0.319       c9.988-0.014,19.977-0.204,29.965-0.96c0.132-0.01,0.239-0.114,0.25-0.25C360.128,310.754,360.016,310.624,359.867,310.613z"/>
				</g>
				<g>
					<path style="fill:#1C0231;" d="M255.405,68.48c-9.954-0.754-19.907-0.945-29.861-0.96c-0.001-0.004-0.002-0.007-0.003-0.011       c4.204-3.817,8.305-7.75,12.118-12.003c0.143-0.159,0.162-0.401,0.032-0.583c-0.15-0.209-0.441-0.258-0.651-0.108       c-4.611,3.3-8.94,6.916-13.165,10.647c-0.166-0.093-0.337-0.175-0.519-0.241c-0.011-4.334-0.056-8.669-0.1-13.003       c-0.124-5.511-0.249-11.021-0.555-16.532c-0.01-0.181-0.155-0.33-0.34-0.34c-0.199-0.011-0.369,0.141-0.38,0.34       c-0.306,5.511-0.431,11.022-0.555,16.532c-0.044,4.291-0.088,8.582-0.1,12.873c-0.206,0.048-0.409,0.107-0.6,0.189       c-1.481-1.596-2.973-3.184-4.507-4.734c-2.34-2.418-4.713-4.808-7.183-7.11c-0.083-0.078-0.212-0.087-0.307-0.017       c-0.106,0.079-0.128,0.23-0.049,0.336c2.018,2.708,4.133,5.328,6.28,7.919c1.359,1.678,2.759,3.319,4.17,4.951       c-0.182,0.279-0.315,0.589-0.414,0.915c-4.302,0.03-8.604,0.076-12.905,0.225c-5.511,0.145-11.022,0.343-16.532,0.716       c-0.133,0.009-0.243,0.115-0.252,0.252c-0.01,0.149,0.103,0.278,0.252,0.288c5.511,0.373,11.021,0.571,16.532,0.716       c4.336,0.15,8.673,0.196,13.009,0.225c0.007,0.017,0.015,0.033,0.023,0.05c-4.08,3.769-8.074,7.634-11.843,11.75       c-0.139,0.152-0.157,0.386-0.031,0.558c0.144,0.197,0.42,0.239,0.616,0.096c4.539-3.32,8.848-6.896,13.072-10.567       c0.216,0.098,0.444,0.176,0.681,0.23c0.027,4.402,0.032,8.803,0.147,13.204c0.101,5.511,0.239,11.021,0.498,16.532       c0.009,0.183,0.156,0.335,0.343,0.344c0.199,0.009,0.368-0.145,0.377-0.344c0.259-5.511,0.397-11.021,0.498-16.532       c0.116-4.445,0.12-8.889,0.147-13.334c0.126-0.045,0.246-0.097,0.365-0.156c1.513,1.688,3.017,3.385,4.573,5.034       c2.337,2.422,4.67,4.847,7.158,7.132c0.158,0.146,0.402,0.164,0.582,0.032c0.204-0.15,0.249-0.437,0.099-0.642       c-1.999-2.724-4.154-5.308-6.305-7.896c-1.485-1.747-3.023-3.446-4.551-5.153c0.058-0.106,0.126-0.207,0.173-0.319       c9.988-0.014,19.976-0.204,29.965-0.961c0.131-0.009,0.24-0.114,0.25-0.25C255.666,68.621,255.554,68.491,255.405,68.48z"/>
				</g>
			</g>
			<g>
				<g>
					<g>
						<path style="fill:#FF8933;" d="M167.02,427.048l-4.896,23.621l-4.895,23.566c-0.775-0.332-1.521-0.664-2.296-1.051        c-1.411-0.636-2.794-1.3-4.176-1.991c-4.592-2.241-9.1-4.619-13.498-7.136c-3.374-1.936-6.693-3.955-9.957-6.03        c-0.858-0.553-1.715-1.106-2.573-1.687c-2.987-1.936-5.947-3.955-8.823-6.057c-3.292-2.379-6.528-4.813-9.681-7.357        c-2.794-2.24-5.504-4.536-8.187-6.915l-0.415-0.332l-0.028-0.028c-1.383-1.217-2.711-2.434-4.066-3.679        c-2.572-2.351-5.089-4.757-7.495-7.246l27.161-9.653l2.655-0.94l15.074-5.366l3.402,1.715l30.398,15.406L167.02,427.048z"/>
					</g>
					<g>
						<path style="fill:#FDBC08;" d="M165.36,422.844l-0.636,3.042l-4.813,23.179l-4.978,24.119c-1.411-0.636-2.794-1.3-4.176-1.991        l-4.204-14.383l-9.294,7.247c-3.374-1.936-6.693-3.955-9.957-6.03c-0.858-0.553-1.715-1.106-2.573-1.687l4.121-12.53        l-12.944,6.473c-3.292-2.379-6.528-4.813-9.681-7.357l7.44-13.581l-6.943-0.83l-17.287-2.074l25.336-8.989v-0.028l1.134-0.387        l18.421-6.555l3.928-1.383L165.36,422.844z"/>
					</g>
				</g>
				<g>
					<g>
						<g>
							<polygon style="fill:#F3C7D1;" points="201.397,299.147 159.145,344.414 139.396,342.002 108.301,338.195 199.739,299.826                 "/>
						</g>
						<g>
							<polygon style="fill:#1C0231;" points="201.397,299.147 159.145,344.414 139.396,342.002 199.739,299.826        "/>
						</g>
					</g>
					<g>
						<g>
							<polygon style="fill:#F3C7D1;" points="269.016,343.973 245.912,432.848 233.474,407.331 226.086,392.218 226.049,392.104          228.838,388.976 265.963,347.403        "/>
						</g>
						<g>
							<polygon style="fill:#1C0231;" points="265.963,347.403 233.474,407.331 226.086,392.218 228.838,388.976        "/>
						</g>
					</g>
					<g>
						<g>
							<polygon style="fill:#F3C7D1;" points="173.769,459.125 105.436,409.411 132.686,402.74 166.092,399.065 170.113,415.668                 "/>
						</g>
						<g>
							<path style="fill:#1C0231;" d="M170.113,415.668c-12.664-3.694-25.177-7.991-37.427-12.928l35.618-8.707L170.113,415.668z"/>
						</g>
					</g>
					<g>
						<path style="fill:#F3C7D1;" d="M269.729,343c-0.226,1.018-0.565,1.998-1.018,2.601l-0.339,0.452l-70.896,93.209        l-84.653-60.946l97.506-88.536c0,0,0.226-0.075,0.641-0.264c0,0.038,0,0.038,0.038,0c0.452-0.15,1.131-0.414,1.96-0.678        c16.471-5.654,45.977,13.231,45.977,13.231S270.068,341.492,269.729,343z"/>
					</g>
					<g>
						<circle style="fill:#1C0231;" cx="213.769" cy="341.975" r="16.6"/>
					</g>
					<g>
						<path style="fill:#9F6DA4;" d="M277.381,303.085c-0.641,6.558-1.772,13.079-3.091,19.562        c-1.093,5.427-2.375,10.817-3.731,16.169c-0.301,1.055-0.49,2.676-0.829,4.183c-11.872-24.348-33.319-44.023-58.722-53.483        c0.452-0.15,1.131-0.414,1.96-0.678c16.471-5.654,35.995-11.307,53.521-9.272c4.222,0.49,8.179,2.412,10.026,6.445        C278.888,291.213,277.87,297.583,277.381,303.085z"/>
					</g>
					<g>
						<path style="fill:#1C0231;" d="M176.378,424.129l-0.762-0.554l11.944-16.459c3.737-5.151,5.209-11.443,4.146-17.717        c-1.064-6.275-4.527-11.73-9.752-15.361c-9.928-6.897-23.361-5.181-31.231,4.002l-14.785,17.249l-0.716-0.613l14.784-17.249        c8.186-9.554,22.152-11.342,32.485-4.161c5.435,3.776,9.038,9.45,10.144,15.976c1.106,6.526-0.426,13.071-4.314,18.428        L176.378,424.129z"/>
					</g>
				</g>
				<g>
					<g>
						<path style="fill:#FFFFFF;" d="M238.924,354.515c-1.157,1.714-2.272,3.521-2.679,5.549c-0.407,2.027,0.021,4.339,1.563,5.717        c1.507,1.347,3.79,1.541,5.719,0.94c1.929-0.6,3.569-1.881,5.07-3.234c4.514-4.068,8.208-9.043,10.797-14.541        c0.719-1.525,1.361-3.124,1.487-4.806c0.125-1.682-0.332-3.476-1.544-4.648C252.836,333.205,241.643,350.487,238.924,354.515z        "/>
					</g>
					<g>
						<path style="fill:#FFFFFF;" d="M235.834,376.458c0.076,2.568-1.944,4.711-4.511,4.787c-2.568,0.076-4.71-1.944-4.787-4.511        c-0.076-2.568,1.944-4.711,4.511-4.787C233.615,371.87,235.758,373.89,235.834,376.458z"/>
					</g>
				</g>
			</g>
			<g>
				<line style="fill:none;" x1="78.179" y1="427.519" x2="78.151" y2="427.519"/>
			</g>
			<g>
				<polygon style="fill:#F3C7D1;" points="84.305,223.589 70.393,228.037 65.944,241.95 61.495,228.037 47.583,223.589       61.495,219.14 65.944,205.228 70.393,219.14     "/>
			</g>
			<g>
				<polygon style="fill:#F3C7D1;" points="345.597,414.261 331.684,418.71 327.236,432.622 322.787,418.71 308.875,414.261       322.787,409.812 327.236,395.9 331.684,409.812     "/>
			</g>
			<g>
				<polygon style="fill:#F3C7D1;" points="414.451,195.694 400.538,200.143 396.09,214.055 391.641,200.143 377.729,195.694       391.641,191.245 396.09,177.333 400.538,191.245     "/>
			</g>
		</g>
	</g>
	<g>
		<polygon style="fill:#564BB7;" points="259.887,219.577 227.063,225.878 249.912,250.273 219.646,236.065 223.816,269.236     207.683,239.946 191.551,269.236 195.72,236.065 165.454,250.273 188.303,225.878 155.48,219.577 188.303,213.276     165.455,188.881 195.72,203.088 191.551,169.918 207.683,199.208 223.816,169.918 219.647,203.088 249.912,188.881     227.063,213.276   "/>
	</g>
</g>















</svg>
