<?xml version="1.0" encoding="UTF-8"?>
<!-- Generator: Adobe Illustrator 25.2.0, SVG Export Plug-In . SVG Version: 6.00 Build 0)  -->
<svg xmlns="http://www.w3.org/2000/svg" xmlns:xlink="http://www.w3.org/1999/xlink" version="1.1" id="Capa_1" x="0px" y="0px" viewBox="0 0 500 500" style="enable-background:new 0 0 500 500;" xml:space="preserve" width="512" height="512">
<g>
	<g>
		<path d="M135.958,434.099c-4.428-0.627-8.872-1.154-13.279-1.904c-7.574-1.288-14.868-3.498-21.612-7.262    c-9.355-5.221-16.949-12.117-20.934-22.373c-1.903-4.898-2.586-10-2.212-15.208c0.558-7.765,4.311-13.73,10.625-18.176    c7.071-4.98,15.043-7.689,23.424-9.411c8.351-1.716,16.698-1.192,24.993,0.221c18.351,3.127,36.043,8.467,53.038,16.113    c7.392,3.326,14.883,6.432,22.302,9.701c1.307,0.576,2.435,0.559,3.771,0.09c22.984-8.086,44.829-18.638,66.128-30.388    c23.771-13.114,48.125-25.076,72.872-36.211c8.582-3.862,17.567-6.835,26.404-10.118c1.284-0.477,1.608-1.049,1.598-2.368    c-0.051-6.584,0.027-13.17,0.058-19.755c0.002-0.503,0-1.007,0-1.991c-0.51,0.862-0.796,1.328-1.065,1.804    c-5.177,9.174-11.426,17.449-19.983,23.782c-4.246,3.142-8.871,5.499-14.11,6.43c-8.023,1.426-15.013-0.848-20.63-6.623    c-2.496-2.566-4.293-5.815-6.385-8.769c-0.325-0.46-0.535-1.001-0.925-1.748c-0.418,0.7-0.73,1.218-1.039,1.739    c-4.547,7.679-10.355,14.1-18.482,18.09c-5.203,2.554-10.624,3.554-16.156,1.043c-7.169-3.254-11.788-8.775-13.67-16.399    c-1.807-7.32-1.456-14.752-0.535-22.163c1.951-15.706,6.881-30.576,12.636-45.227c3.041-7.742,5.975-15.528,8.782-23.357    c0.97-2.707,1.49-5.587,2.061-8.42c0.254-1.257,0.535-2.989-0.823-3.568c-0.947-0.404-2.512-0.007-3.537,0.532    c-4.238,2.23-7.41,5.689-10.224,9.487c-8.893,12.004-14.66,25.516-19.056,39.679c-5.077,16.356-7.998,33.159-10.01,50.116    c-0.535,4.512-0.222,9.156,0.027,13.721c0.298,5.476-1.489,7.449-7.007,7.123c-8.855-0.523-14.406-5.785-15.689-14.832    c-0.866-6.108-0.345-12.203,0.115-18.3c1.007-13.343,3.942-26.344,7.044-39.309c3.307-13.821,6.792-27.6,10.017-41.439    c0.632-2.711,0.507-5.615,0.557-8.433c0.012-0.662-0.557-1.72-1.088-1.894c-0.501-0.164-1.542,0.428-1.934,0.98    c-1.701,2.394-3.503,4.769-4.809,7.381c-3.704,7.407-5.928,15.287-7.051,23.504c-0.317,2.318-1.135,4.571-1.77,6.841    c-0.341,1.219-1.27,1.761-2.485,1.842c-5.109,0.34-13.504-3.432-13.637-10.92c-0.253-14.26,2.356-27.548,14.462-37.072    c5.619-4.42,11.838-7.085,19.108-6.597c8.893,0.597,14.724,5.508,16.211,14.304c0.791,4.683,0.573,9.537,0.792,14.314    c0.028,0.609-0.062,1.223,0.19,1.923c0.241-0.55,0.504-1.092,0.72-1.651c2.541-6.555,6.061-12.528,10.894-17.642    c4.699-4.972,10.174-8.715,17.185-9.553c9.024-1.079,15.96,2.477,20.894,9.919c3.096,4.67,4.438,9.988,4.673,15.56    c0.4,9.482-1.235,18.722-3.918,27.74c-3.813,12.815-8.077,25.496-11.921,38.302c-2.513,8.371-5.949,17.908-5.327,26.746    c0.091,1.293,0.371,2.76,1.482,3.428c0.884,0.532,2.012,0.371,3.002,0.082c7.672-2.236,12.853-10.89,15.547-17.862    c0.16-0.414,0.185-0.939,0.103-1.38c-3.096-16.638-1.022-32.852,4.09-48.787c3.85-11.999,9.397-23.122,17.567-32.819    c3.827-4.543,8.118-8.592,13.275-11.594c6.43-3.743,13.254-5.685,20.74-3.915c5.452,1.289,9.923,4.271,13.171,8.722    c2.336,3.201,4.034,6.868,5.999,10.336c0.277,0.49,0.46,1.033,0.796,1.802c2.994-18.776,5.943-37.268,8.908-55.863    c-3.265,0.756-6.519,1.56-9.795,2.261c-20.116,4.304-40.413,5.503-60.823,2.847c-16.762-2.182-33.55-3.344-50.446-2.903    c-5.078,0.132-10.076,0.826-14.982,2.163c-6.022,1.641-11.161,4.647-14.977,9.687c-1.59,2.1-3.152,4.22-4.699,6.352    c-1.099,1.515-3.103,1.986-4.524,0.758c-1.132-0.978-2.242-2.157-2.904-3.476c-4.88-9.72-4.82-19.516,0.271-29.099    c2.66-5.008,7.355-7.856,12.402-10.104c15.28-6.805,31.259-9.794,47.927-8.139c12.211,1.213,24.393,2.784,36.55,4.463    c13.203,1.823,26.341,4.127,39.55,5.896c9.347,1.251,18.761,2.102,28.213,0.896c2.695-0.344,2.651-0.352,3.389-2.929    c3.899-13.625,7.862-27.237,13.264-40.36c3.339-8.111,7.807-15.536,14.546-21.37c3.832-3.318,7.987-6.028,13.094-6.953    c8.31-1.505,16.702,3.051,19.881,10.868c2.849,7.005,3.105,14.076,0.687,21.302c-5.589,16.699-15.109,30.492-29.665,40.613    c-1.109,0.771-1.708,1.621-1.935,3.015c-5.083,31.254-10.234,62.496-15.347,93.744c-2.297,14.038-4.72,28.059-6.735,42.138    c-1.08,7.55-1.42,15.207-2.082,22.816c-0.049,0.56-0.006,1.128-0.006,1.536c3.901,0,7.631-0.088,11.354,0.021    c5.228,0.153,10.339,1.395,14.953,3.637c14.226,6.91,17.341,21.349,8.745,32.942c-10.393,14.017-29.797,18.234-46.014,7.725    c-7.688-4.981-12.767-11.803-15.408-20.516c-0.105-0.345-0.256-0.676-0.449-1.178c-2.748,1.069-5.426,2.136-8.122,3.156    c-17.336,6.563-33.694,15.182-50.053,23.8c-20.084,10.58-40.214,21.074-60.234,31.774c-7.197,3.846-14.133,8.181-21.186,12.295    c-0.177,0.103-0.336,0.237-0.749,0.533c0.607,0.182,1.001,0.341,1.41,0.418c17.278,3.241,34.699,4.553,52.01,1.1    c18.508-3.692,34.703-11.902,46.465-27.361c2.452-3.222,4.351-6.69,5.546-10.568c0.525-1.703,1.284-3.334,1.96-4.988    c0.643-1.572,1.914-2.096,3.465-1.76c1.221,0.264,2.443,0.669,3.568,1.213c10.289,4.968,16.138,13.284,17.89,24.441    c2.271,14.465-2.27,26.349-14.251,34.985c-12.515,9.021-26.696,13.448-42.001,14.586c-15.97,1.187-31.684-0.63-47.245-4.03    c-16.72-3.654-32.828-9.257-48.62-15.79c-1.256-0.52-2.199-0.454-3.382,0.177c-9.108,4.857-18.12,9.921-27.418,14.387    c-15.11,7.257-31.307,10.06-47.95,10.647c-0.731,0.026-1.459,0.154-2.189,0.235C141.228,434.099,138.593,434.099,135.958,434.099z     M191.566,394.366c-0.657-0.393-0.868-0.545-1.1-0.654c-5.674-2.655-11.321-5.372-17.033-7.944    c-10.966-4.937-22.126-9.347-34.085-11.264c-8.236-1.32-16.505-2.22-24.844-0.798c-5.507,0.939-10.632,2.576-14.436,7.043    c-3.463,4.067-3.588,8.66-0.164,12.747c2.581,3.081,5.818,5.31,9.397,7.079c5.811,2.871,12.021,4.031,18.433,4.551    c15.71,1.273,31.005-0.888,46.04-5.326C179.57,398.089,185.334,396.273,191.566,394.366z M381.66,218.462    c0.278-4.931-2.471-9.39-5.962-12.694c-0.636-0.602-1.364-1.193-2.234-1.294c-1.626-0.188-2.887,1.34-3.748,2.731    c-5.231,8.45-8.511,18.078-11.642,27.46c-3.338,10-6.079,20.199-8.184,30.529c-1.567,7.691-3.365,15.383-3.045,23.294    c0.124,3.056,0.873,6.124,1.648,9.106c0.804,3.092,3.211,3.19,5.344,1.973c1.884-1.075,3.61-2.569,5.1-4.163    c3.228-3.452,5.527-7.557,7.539-11.809c5.282-11.161,8.532-22.971,11.075-35C379.492,239.411,381.001,230.163,381.66,218.462z     M412.404,317.513c0,0.462-0.062,0.785,0.009,1.076c1.005,4.084,1.917,8.196,3.087,12.232c0.715,2.47,2.346,4.448,4.338,6.1    c2.238,1.857,4.727,2.543,7.647,2.103c4.521-0.681,7.678-3.258,10.122-6.889c3.779-5.613,2.669-9.327-3.421-12.245    c-5.599-2.683-11.585-2.918-17.594-3.014C415.206,316.854,413.813,317.286,412.404,317.513z M439.267,122.941    c0.464-0.23,0.664-0.286,0.807-0.407c0.922-0.785,1.851-1.564,2.743-2.383c7.371-6.765,11.49-15.341,13.794-24.909    c0.956-3.969,1.532-7.979,0.652-12.045c-0.411-1.897-1.712-2.823-3.471-2.084c-1.476,0.62-3.091,1.618-3.919,2.912    c-1.338,2.092-2.365,4.488-3.021,6.893c-1.842,6.752-3.473,13.563-5.099,20.372C440.851,115.066,440.126,118.884,439.267,122.941z    "/>
		<path d="M144.143,209.798c3.532-6.561,6.969-13.021,10.476-19.442c5.91-10.82,11.841-21.621,18.934-31.747    c4.768-6.806,9.867-13.305,16.185-18.721c2.334-2.001,4.935-3.85,7.703-5.156c6.628-3.127,13.148-0.665,16.511,5.871    c1.876,3.647,2.372,7.589,2.613,11.618c0.613,10.253-0.869,20.299-2.942,30.278c-5.055,24.339-10.169,48.667-15.296,72.991    c-0.244,1.157-0.008,1.986,0.709,2.882c8.142,10.181,14.116,21.57,17.286,34.165c3.547,14.093,2.833,28.023-4.126,41.19    c-3.026,5.725-7.125,10.576-12.252,14.503c-6.417,4.915-13.85,6.391-21.672,5.364c-6.073-0.798-10.692-4.263-13.836-9.546    c-4.181-7.024-5.761-14.772-6.091-22.82c-0.415-10.127,1.06-20.077,3.033-29.968c3.29-16.493,7.394-32.777,12.457-48.819    c0.194-0.615,0.134-1.68-0.263-2.057c-4.91-4.665-10.434-8.514-16.395-12.046c-0.243,0.581-0.467,1.096-0.675,1.619    c-7.788,19.578-15.389,39.232-23.429,58.705c-4.846,11.738-10.607,23.088-17.35,33.873c-3.176,5.081-6.674,9.995-10.4,14.689    c-5.668,7.139-13.054,12.253-21.178,16.204c-7.137,3.47-14.682,4.14-22.312,1.728c-16.658-5.266-27.734-16.156-33.094-32.886    c-3.208-10.015-3.999-20.25-3.138-30.618c1.532-18.453,6.481-35.941,15.583-52.144c7.121-12.677,17.004-22.614,29.933-29.358    c9.871-5.149,20.219-5.732,30.643-2.087c10.432,3.648,15.942,11.577,16.977,22.3c0.946,9.794-1.224,19.185-5.818,27.926    c-0.87,1.656-2.059,3.194-3.324,4.583c-2.429,2.667-5.353,2.316-7.07-0.864c-1.586-2.937-3.736-5.304-6.289-7.412    c-7.049-5.821-17.745-3.96-23.498,0.186c-8.432,6.076-14.989,13.687-19.269,23.188c-5.989,13.295-6.267,26.979-2.12,40.736    c1.162,3.853,3.168,7.682,5.643,10.854c3.619,4.639,10.599,7.409,17.415,5.35c5.49-1.658,10.239-4.552,13.902-8.935    c2.693-3.222,5.202-6.643,7.419-10.208c9.765-15.707,17.409-32.466,24.428-49.545c6.605-16.071,13.442-32.047,20.216-48.048    c0.393-0.928,0.251-1.364-0.558-1.91c-6.202-4.185-12.327-8.486-18.57-12.61c-5.654-3.735-10.843-7.986-15.65-12.763    c-6.434-6.394-12.677-12.882-17.906-20.388c-5.956-8.549-9.544-17.839-11.229-28.044c-1.163-7.044-2.231-14.095-1.61-21.222    c1.214-13.948,6.047-26.449,15.838-36.703c6.275-6.571,14.113-10.491,23.087-11.335c17.79-1.674,33.375,3.477,43.843,18.415    c9.911,14.144,12.908,29.929,5.904,46.605c-1.902,4.529-3.984,8.95-6.963,12.893c-7.101,9.396-16.456,15.077-28.09,16.9    c-5.731,0.898-11.249-0.132-16.5-2.478c-3.243-1.449-5.637-3.858-7.02-7.173c-1.186-2.844-0.266-4.474,2.728-5.184    c10.124-2.399,17.288-8.258,20.693-18.227c2.785-8.155,3.889-16.512,1.919-25.043c-3.45-14.938-14.987-18.673-27.109-14.609    c-7.177,2.406-12.601,7.047-15.613,14.262c-2.283,5.468-4.406,10.976-4.994,16.907c-1.098,11.077,1.25,21.539,6.58,31.213    c4.723,8.572,10.911,16.053,17.742,23.12c10.95,11.329,23.881,20.001,36.764,28.791    C143.783,209.675,143.939,209.712,144.143,209.798z M176.782,233.266c0.183-0.532,0.388-1.122,0.589-1.713    c5.08-14.896,10.152-29.794,15.24-44.687c3.274-9.567,6.832-19.07,9.779-28.745c0.922-3.028,1.465-6.346,1.402-9.514    c-0.006-0.323-0.023-0.654-0.153-0.95c-0.945-2.157-6.71,3.206-7.566,3.986c-2.82,2.568-5.144,5.541-7.25,8.707    c-12.342,18.553-20.413,39.163-28.532,59.74c-0.141,0.357,0.124,1.135,0.451,1.379    C166.015,225.396,171.328,229.27,176.782,233.266z M195.144,269.166c-0.171,0.458-0.324,0.775-0.409,1.109    c-3.243,12.747-6.542,25.48-9.689,38.25c-1.464,5.939-2.659,11.976-1.618,18.123c0.341,2.01,1.197,4.027,2.232,5.798    c1.071,1.833,2.967,2.232,4.833,1.177c1.628-0.92,3.248-2.022,4.519-3.374c4.127-4.393,6.798-9.622,7.964-15.539    c1.514-7.683,1.096-15.421,0.227-23.129C202.298,283.555,199.318,276.232,195.144,269.166z"/>
	</g>
	<g>
		<path d="M26.4,137.53c0.05-7.59,1.792-14.117,5.655-20.016c2.12-3.237,4.802-5.856,8.453-7.346    c6.52-2.661,12.773-0.072,15.415,6.457c1.66,4.101,2.163,8.452,2.463,12.822c0.573,8.353,1.039,16.714,1.692,25.06    c0.258,3.3,0.85,6.578,1.377,9.853c1.153,7.162,4.595,13.262,8.889,18.964c0.691,0.918,1.37,1.882,1.842,2.922    c0.928,2.046-0.424,3.968-2.665,3.706c-1.549-0.181-3.134-0.542-4.57-1.142c-20.436-8.541-32.59-24.052-37.911-45.263    c-0.255-1.017-0.375-2.074-0.478-3.12C26.449,139.275,26.43,138.114,26.4,137.53z"/>
		<path d="M35.829,186.825c7.296,0.289,15.254,2.845,21.909,8.81c1.13,1.013,2.115,2.196,3.113,3.347    c0.985,1.137,0.771,2.405-0.52,3.198c-0.487,0.299-1.036,0.567-1.591,0.673c-4.038,0.769-7.456,2.859-10.756,5.125    c-5.308,3.645-10.207,7.772-14.605,12.51c-2.608,2.81-5.376,5.493-8.258,8.021c-2.474,2.17-5.422,3.602-8.685,4.307    c-3.869,0.836-7.29-0.001-10.304-2.588c-6.017-5.166-7.883-14.725-4.356-22.456C7.34,195.576,20.785,186.928,35.829,186.825z"/>
	</g>
	<g>
		<path d="M485.169,184.859c0.005,4.069-1.024,7.913-2.461,11.676c-4.477,11.722-12.45,20.75-21.993,28.573    c-6.818,5.59-14.659,9.262-22.937,12.032c-1.834,0.613-3.937,0.747-5.883,0.614c-2.157-0.147-2.837-2.062-1.372-3.62    c7.194-7.651,11.455-16.931,15.006-26.628c2.714-7.411,5.333-14.862,8.288-22.177c1.387-3.434,3.241-6.737,5.289-9.831    c2.243-3.388,5.532-5.626,9.609-6.42c8.647-1.686,15.347,3.596,16.275,12.786C485.092,182.858,485.112,183.861,485.169,184.859z"/>
		<path d="M433.923,289.792c-2.264,0-4.706-0.168-6.933-0.568c-0.465-0.083-0.938-0.185-1.338-0.436    c-0.4-0.25-0.719-0.679-0.714-1.151c0.003-0.336,0.166-0.65,0.355-0.927c0.832-1.219,2.399-2.038,3.597-2.861    c1.422-0.978,2.872-1.917,4.351-2.807c2.885-1.735,5.883-3.288,8.99-4.587c6.131-2.563,12.679-4.086,19.332-4.249    c3.722-0.091,7.448,0.234,11.105,0.925c7.786,1.471,14.75,4.797,20.291,10.566c5.759,5.997,8.416,13.127,6.339,21.427    c-2.04,8.154-7.352,10.76-15.047,7.469c-2.441-1.044-4.731-2.539-6.902-4.091c-4.156-2.972-8.164-6.152-12.257-9.213    c-7.161-5.356-15.121-8.738-24.089-9.47C438.807,289.639,436.584,289.792,433.923,289.792z"/>
		<path d="M466.83,259.124c-5.349-0.891-10.71-1.962-16.104-2.254c-4.417-0.24-8.892,0.518-13.335,0.902    c-1.713,0.148-2.553-0.604-1.826-2.166c0.826-1.773,1.833-3.58,3.177-4.971c7.452-7.709,16.687-12.357,26.913-15.188    c5.775-1.598,11.643-2.211,17.478-0.528c7.143,2.059,12.743,6.011,15.011,13.54c0.301,1,0.469,2.058,0.556,3.101    c0.465,5.567-2.881,9.721-8.442,10.469c-1.3,0.175-2.625,0.174-3.938,0.254C486.294,262.396,473.315,260.204,466.83,259.124z"/>
	</g>
</g>















</svg>
