<?xml version="1.0" encoding="iso-8859-1"?>
<!-- Generator: Adobe Illustrator 26.5.1, SVG Export Plug-In . SVG Version: 6.00 Build 0)  -->
<svg xmlns="http://www.w3.org/2000/svg" xmlns:xlink="http://www.w3.org/1999/xlink" version="1.1" id="Capa_1" x="0px" y="0px" viewBox="0 0 512.001 512.001" style="enable-background:new 0 0 512.001 512.001;" xml:space="preserve">
<g>
	<path style="fill:#FFFFFF;" d="M256,512.001c-53.298,0-104.386-16.222-147.742-46.913c-42.397-30.012-74.32-71.507-92.316-119.998   c-5.356-14.411-9.416-29.376-12.063-44.475C1.305,285.991,0,270.979,0,256.001c0-68.378,26.629-132.665,74.983-181.017   C123.336,26.63,187.622,0.001,256,0.001c68.378,0,132.664,26.629,181.018,74.983c48.353,48.353,74.716,97.124,74.982,181.017   c0.083,26.25-3.961,52.136-11.773,76.938c-3.527,11.229-7.875,22.284-12.919,32.851c-20.481,43.096-52.562,79.586-92.766,105.512   C353.253,497.927,305.345,512.001,256,512.001z"/>
	<g>
		<g>
			<g>
				<g>
					<path style="fill:#6E72FF;" d="M471.583,374.148c-12.363,21.578-28.015,41.265-46.157,58.274       c-34.083,32.038-77.053,54.722-122.976,63.904C160.157,527.66,12.237,409.254,10.227,264.248       C-2.126,26.193,292.324-69.15,439.569,86.852C503.614,150.308,525.677,289.577,471.583,374.148z"/>
				</g>
			</g>
		</g>
		<g>
			<g>
				<path style="fill:#412945;" d="M478.316,284.617c-8.316,0-15.081-6.766-15.081-15.082c0-8.316,6.765-15.081,15.081-15.081      s15.081,6.765,15.081,15.081C493.397,277.851,486.632,284.617,478.316,284.617z M478.316,257.342      c-6.724,0-12.194,5.47-12.194,12.194c0,6.724,5.47,12.194,12.194,12.194s12.194-5.471,12.194-12.194      C490.509,262.812,485.039,257.342,478.316,257.342z"/>
			</g>
			<g>
				<g>
					<g>
						<g>
							
								<ellipse transform="matrix(0.2298 -0.9732 0.9732 0.2298 79.7697 303.4732)" style="fill:#F8BDFF;" cx="231.612" cy="101.34" rx="73.225" ry="73.225"/>
						</g>
					</g>
					<g>
						<g>
							
								<ellipse transform="matrix(0.7071 -0.7071 0.7071 0.7071 -96.9205 383.4695)" style="fill:#B5E1E8;" cx="414.428" cy="308.728" rx="73.225" ry="73.225"/>
						</g>
					</g>
					<g>
						<g>
							
								<ellipse transform="matrix(0.7071 -0.7071 0.7071 0.7071 -223.3885 231.4784)" style="fill:#C0D48C;" cx="167.725" cy="385.393" rx="73.225" ry="73.225"/>
						</g>
					</g>
				</g>
				<g>
					<g>
						<path style="fill:#FFC063;" d="M85.04,104.289l-23.589,42.018c0,0,55.287-11.057,53.076-11.795        C112.315,133.775,85.04,104.289,85.04,104.289z"/>
					</g>
					<g>
						<path style="fill:#FFC063;" d="M343.509,37.244l-47.615,7.4c0,0,42.844,36.652,42.058,34.457        C337.165,76.907,343.509,37.244,343.509,37.244z"/>
					</g>
					<g>
						<path style="fill:#FFC063;" d="M316.971,419.34l-47.615,7.4c0,0,42.844,36.651,42.058,34.457        C310.627,459.002,316.971,419.34,316.971,419.34z"/>
					</g>
				</g>
				<g>
					<path style="fill:#412945;" d="M57.642,226.627c-8.316,0-15.081-6.765-15.081-15.081s6.765-15.081,15.081-15.081       s15.081,6.766,15.081,15.081S65.958,226.627,57.642,226.627z M57.642,199.352c-6.724,0-12.194,5.47-12.194,12.194       s5.47,12.194,12.194,12.194s12.194-5.47,12.194-12.194S64.366,199.352,57.642,199.352z"/>
				</g>
				<g>
					<path style="fill:#412945;" d="M242.424,48.725c-8.316,0-15.081-6.765-15.081-15.081s6.765-15.081,15.081-15.081       c8.316,0,15.081,6.765,15.081,15.081S250.74,48.725,242.424,48.725z M242.424,21.45c-6.724,0-12.194,5.47-12.194,12.194       s5.47,12.194,12.194,12.194c6.724,0,12.194-5.47,12.194-12.194S249.148,21.45,242.424,21.45z"/>
				</g>
				<g>
					<path style="fill:#412945;" d="M192.788,469.891c-8.316,0-15.082-6.766-15.082-15.082c0-8.316,6.766-15.081,15.082-15.081       s15.081,6.765,15.081,15.081C207.869,463.125,201.104,469.891,192.788,469.891z M192.788,442.615       c-6.724,0-12.195,5.47-12.195,12.194c0,6.724,5.471,12.194,12.195,12.194c6.724,0,12.194-5.471,12.194-12.194       C204.982,448.085,199.512,442.615,192.788,442.615z"/>
				</g>
			</g>
		</g>
		<g>
			<g>
				<path style="fill:#F7EDE5;" d="M426.673,89.55H166.247c-11.693,0-14.003,29.338-14.003,41.032l-7.372,102.465l-43.492,39.07      c-2.06,1.02-5.029,4.421-4.423,6.634L85.162,307.5c0.558,2.04,18.533,24.268,20.641,24.326l60.444,32.326l70.256,0.161      l-45.927,34.594h197.559l-36.783-34.331l75.322,0.173c11.693,0,21.173-9.48,21.173-21.173V110.723      C447.846,99.03,438.367,89.55,426.673,89.55z"/>
			</g>
			<g>
				<path style="fill:#412945;" d="M416.556,339.935H204.173c-4.252,0-7.699-3.447-7.699-7.699V123.538      c0-4.252,3.447-7.699,7.699-7.699h212.384c4.252,0,7.699,3.447,7.699,7.699v208.698      C424.256,336.488,420.809,339.935,416.556,339.935z"/>
			</g>
			<g>
				<path style="fill:#412945;" d="M166.247,89.55v274.602l-122.745-0.279c-2.108-0.058-3.936-1.492-4.494-3.532l-25.533-93.007      c-0.606-2.213,0.443-4.562,2.502-5.582l109.483-54.328v-96.702c0-11.693,9.48-21.173,21.173-21.173H166.247z"/>
			</g>
			<g>
				<g>
					<g>
						<path style="fill:#E36352;" d="M311.325,173.671c-45.706-0.836-84.247,31.731-92.327,75.238        c-0.918,4.951-1.444,10.052-1.537,15.258l-0.011,0.42l13.533,0.247l21.432-6.806l7.781-4.505c0,0,25.876,8.368,25.883,8.191        c0.068-2.2,3.169-1.494,3.601-4.135c0.712-4.366,1.929-9.06,3.692-13.156c0.567-1.313,1.186-2.561,1.862-3.723        c2.641-4.528,6.148-7.654,10.585-7.573c4.205,0.076,10.389,0.402,16.524,1.36c10.56,1.635,20.96,5.124,20.827,12.364        c0.001,0.05,5.912,2.781,13.456,6.253c0.313,0.141,0.626,0.287,0.945,0.433c4.731,2.177,10.009,4.599,14.841,6.818        c8.656,3.978,15.865,7.304,15.866,7.365l13.533,0.247l0.005-0.425c0.004-0.254,0.008-0.508,0.013-0.763l0-0.005        C402.341,216.204,361.977,174.602,311.325,173.671z"/>
					</g>
					<g>
						<path style="fill:#FFC063;" d="M386.172,247.594c-8.112-34.084-38.439-59.721-75.099-60.389        c-37.025-0.68-68.542,24.341-77.525,58.643c-1.559,5.941-2.443,12.156-2.559,18.566l-0.005,0.42l0,0.005l15.65,0.284        l7.277-12.174l18.429,2.641c0,0,22.032-10.377,26.41-13.968c0.006,0,0.005-0.006,0.005-0.006        c2.389-1.964,5.186-3.126,8.358-3.067c2.758,0.048,5.933,0.223,9.157,0.612c10.151,1.221,20.814,4.62,20.653,13.307        c0.001,0.033,1.789,0.792,4.57,1.955c2.603,1.09,6.077,2.533,9.758,4.065c2.536,1.048,5.172,2.143,7.691,3.186        c7.339,3.052,13.684,5.689,13.686,5.755l15.65,0.29l0.011-0.426C388.411,260.508,387.671,253.906,386.172,247.594z"/>
					</g>
					<g>
						<path style="fill:#C0D48C;" d="M372.411,260.355c-0.418-4.905-1.406-9.656-2.891-14.179        c-8.128-24.749-31.206-42.824-58.731-43.327c-30.322-0.555-56.026,20.401-62.559,48.822        c-0.965,4.196-1.512,8.552-1.597,13.028c-0.002,0.144-0.004,0.282,0,0.425l10.439,0.191l0.006,0l1.818,0.034l1.271,0.021        l8.917-11.99c0,0,14.954,8.585,14.948,8.58c-0.225-0.364-2.486-3.716-2.49-3.865c0.022-1.254,0.221-2.48,0.565-3.671        c1.695-5.812,6.971-10.747,13.128-13.722c4.09-1.976,8.562-3.084,12.629-3.01c2.487,0.044,5.389,0.563,8.407,1.471        c10.841,3.246,23.15,11.451,22.986,20.403c0.001,0.039,1.597,0.659,3.879,1.526c1.339,0.511,2.918,1.104,4.547,1.724        c5.401,2.032,11.41,4.286,11.412,4.368l13.533,0.247c0.007-0.144,0.009-0.282,0.011-0.426        C372.678,264.761,372.602,262.543,372.411,260.355z"/>
					</g>
					<g>
						<path style="fill:#B5E1E8;" d="M358.942,261.676c-0.229-2.783-0.694-5.505-1.371-8.138c-0.086-0.34-0.173-0.675-0.264-1.004        l0-0.006c-5.734-20.521-24.372-35.738-46.764-36.151c-26.901-0.492-49.178,20.583-50.337,47.308        c-0.016,0.42-0.033,0.84-0.038,1.26c-0.002,0.144-0.003,0.287,0,0.425l15.644,0.284l8.221-3.695c0,0-0.368-2.364-0.372-2.518        c0.026-1.52,0.302-2.991,0.783-4.401c1.456-4.236,4.788-7.904,8.93-10.617c1.683-1.1,3.503-2.043,5.377-2.8        c0.006,0,0.005-0.006,0.005-0.006c3.536-1.42,7.288-2.188,10.78-2.127c11.445,0.214,25.078,6.296,24.87,17.741        c0.004,0.165,1.664,5.656,1.669,5.838l7.376,3.83l1.133,0.02l14.511,0.265c0.013-0.138,0.014-0.282,0.016-0.426        C359.142,265.045,359.086,263.345,358.942,261.676z"/>
					</g>
					<g>
						<path style="fill:#6E72FF;" d="M343.135,261.092c-0.321-2.3-0.878-4.533-1.641-6.667c-3.251-9.043-10.245-16.33-19.151-19.937        c-3.741-1.519-7.813-2.388-12.09-2.467c-14.744-0.27-27.456,8.94-32.326,22.022c-1.304,3.487-2.044,7.257-2.115,11.192        c-0.002,0.144,0,0.425,0,0.425l13.102,0.236c-0.004-0.144,0.003-0.282,0.005-0.42c0.001-0.177,0.639-5.259,1.499-7.392        c3.13-7.722,10.769-13.112,19.6-12.95c10.499,0.189,19.03,8.153,20.207,18.307c0.107,0.914,0.154,1.846,0.135,2.791        c-0.002,0.144-0.004,0.282-0.011,0.426l11.268,0.208l1.835,0.034c0.007-0.144,0.014-0.282,0.016-0.426        C343.5,264.645,343.386,262.847,343.135,261.092z"/>
					</g>
				</g>
				<g>
					<polygon style="fill:#F7EDE5;" points="344.542,309.809 303.922,222.312 385.797,258.61 363.512,268.801 390.369,288.659        377.041,310.652 351.466,278.772      "/>
				</g>
			</g>
		</g>
	</g>
</g>
<g>
</g>
<g>
</g>
<g>
</g>
<g>
</g>
<g>
</g>
<g>
</g>
<g>
</g>
<g>
</g>
<g>
</g>
<g>
</g>
<g>
</g>
<g>
</g>
<g>
</g>
<g>
</g>
<g>
</g>
</svg>
