<?xml version="1.0" encoding="UTF-8"?>
<!-- Generator: Adobe Illustrator 25.4.1, SVG Export Plug-In . SVG Version: 6.00 Build 0)  -->
<svg xmlns="http://www.w3.org/2000/svg" xmlns:xlink="http://www.w3.org/1999/xlink" version="1.1" id="Capa_1" x="0px" y="0px" viewBox="0 0 512 512" style="enable-background:new 0 0 512 512;" xml:space="preserve" width="512" height="512">
<g>
	<path d="M438.798,33.442c-59.485-4.135-78.432,47.377-107.516,89.184c-24.662,37.386-49.65,74.337-73.923,112.005   c171.484-19.551,33.68,278.785,165.411,238.946c0.387,0.371,0.774,0.742,1.162,1.113c-11.657,35.308-54.389,42.223-86.445,34.429   c-49.084-10.897-66.591-58.827-66.072-104.52c-3.39-32.777,14.852-146.266-44.964-123.307   c-45.074,74.284-26.045,26.142-74.979,63.003c-10.396-12.446-23.946-17.248-40.68-16.11c-0.147-82.204-0.616-164.248-0.825-246.434   c-0.634-26.071-14.134-50.017-36.766-62.745c0-0.642,0-1.283,0-1.925c20.48-23.513,57.905-18.141,79.531,0.997   c18.485-16.436,49.988-22.151,72.254-9.107c4.03,2.688,11.471,8.609,4.426,12.665c-55.919,29.556-26.976,160.908-33.908,220.108   c38.794-55.282,72.902-114.307,110.286-170.757c13.89-20.467,3.202-49.945-20.25-57.3c17.497-20.056,56.21-16.478,75.046,0.425   C383.935-3.453,433.111-4.316,438.798,33.442z"/>
	<path d="M73.202,494.407c47.508-19.264,36.214-84.475,22.931-123.297c-1.133-9.51-19.887-19.847-9.887-28.376   c22.765-12.769,51.331-6.976,65.237,16.326c15.227-21.412,46.81-31.659,68.345-14.224c1.019,1.704,1.55,5.346,0.526,6.38   c-24.222,30.991-28.78,75.94-17.197,112.86c3.677,22.643,35.087,28.187,27.977,34.741c-20.224,19.746-57.487,15.913-78.338-4.177   c-19.793,20.7-60.156,24.633-79.594,1.693C73.202,495.69,73.202,495.048,73.202,494.407z"/>
	<g>
		<path style="fill:#FFFFFF;" d="M361.757,476.028c-1.6,1.048-3.076,2.684-4.82,3.053c-17.38,3.675-32.707,0.258-44.822-13.581    c-14.023-16.019-16.407-34.837-11.864-54.636c3.683-16.052,8.775-31.782,13.31-47.636c2.621-9.161,4.584-18.356,2.427-27.913    c-0.233-1.032-0.714-2.009-1.128-3.142c-9.683,11.752-15.65,14.761-21.938,11.187c-5.098-2.897-7.923-10.849-5.792-16.299    c3.516-8.991,9.565-11.482,22.175-8.838c2.804-15.585-1.494-29.467-9.665-42.428c-8.582-13.612-21.367-20.169-37.353-21.105    c-0.047-0.451-0.094-0.902-0.142-1.352c1.355-0.442,2.701-1.231,4.068-1.272c13.792-0.412,25.495,4.838,34.751,14.649    c14.263,15.116,19.969,33.236,16.801,53.971c-0.227,1.485-0.466,3.416,0.25,4.529c7.743,12.039,7.099,25.077,4.236,38.114    c-3.812,17.36-8.572,34.511-12.397,51.869c-3.416,15.502-2.249,30.543,6.363,44.513c9.799,15.896,26.551,21.64,44.488,14.956    C361.056,475.12,361.407,475.574,361.757,476.028z M308.713,324.239c-8.284-5.289-16.04-3.353-18.979,4.028    c-1.335,3.352,0.552,9.217,3.732,10.903c3.907,2.071,6.952,0.19,8.955-2.984C304.831,332.363,306.671,328.179,308.713,324.239z"/>
		<path style="fill:#FFFFFF;" d="M148.125,377.334c4.147-3.005,8.213-6.13,12.458-8.991c7.517-5.067,14.222-1.913,14.682,7.155    c0.198,3.907-0.217,8.136-1.554,11.778c-5.458,14.866-11.295,29.596-17.185,44.298c-1.748,4.363-4.258,4.861-6.46,1.358    c-9.381-14.921-18.69-29.961-21.795-47.701c-0.754-4.31-0.703-9.006,0.146-13.293c1.253-6.33,7.587-8.791,12.543-4.723    c3.797,3.117,6.46,7.615,9.627,11.498C149.765,378.254,148.945,377.794,148.125,377.334z"/>
		<g>
			<path style="fill:#FFFFFF;" d="M160.384,45.069c-0.761,1.292-1.439,2.643-2.295,3.869c-19.119,27.37-23.629,57.833-19.564,90.285     c3.402,27.159,11.916,53.098,18.211,79.57c5.756,24.203,6.985,48.506-0.49,72.653c-2.437,7.872-5.823,15.323-12.392,20.722     c-1.681,1.382-3.902,2.106-6.121,2.686c17.563-19.845,15.998-43.449,14.066-66.997c-1.889-23.033-10.562-44.497-16.127-66.68     c-6.532-26.037-9.253-52.263-5.508-79.067c2.91-20.829,12.186-38.591,24.727-54.962c1.062-1.386,2.833-2.227,4.275-3.322     C159.572,44.241,159.978,44.655,160.384,45.069z"/>
			<g>
				<path style="fill:#FFFFFF;" d="M140.361,252.987c-0.06,4.877-4.106,8.616-9.161,8.468c-4.56-0.134-7.835-3.49-7.818-8.014      c0.019-5.023,4.285-9.249,9.193-9.105C137.075,244.468,140.42,248.185,140.361,252.987z"/>
				<path style="fill:#FFFFFF;" d="M158.129,123.3c4.426-0.117,8.103,3.602,8.177,8.273c0.074,4.667-3.424,8.529-7.835,8.65      c-4.413,0.122-8.091-3.606-8.169-8.279C150.225,127.295,153.736,123.417,158.129,123.3z"/>
			</g>
		</g>
	</g>
</g>















</svg>
