<?xml version="1.0" encoding="UTF-8"?>
<!-- Generator: Adobe Illustrator 25.2.0, SVG Export Plug-In . SVG Version: 6.00 Build 0)  -->
<svg xmlns="http://www.w3.org/2000/svg" xmlns:xlink="http://www.w3.org/1999/xlink" version="1.1" id="Capa_1" x="0px" y="0px" viewBox="0 0 500 500" style="enable-background:new 0 0 500 500;" xml:space="preserve" width="512" height="512">
<g>
	<g>
		<path d="M130.955,160.493c-0.875,0.361-1.483,0.617-2.094,0.862c-9.837,3.951-19.565,8.317-30.01,10.398    c-15.514,3.091-30.389,1.061-44.298-6.728c-11.159-6.249-18.243-15.395-20.5-28.244c-1.934-11.012-1.306-21.662,2.884-32.066    c2.718-6.75,6.747-12.595,12.438-17.11c11.191-8.878,27.404-16.541,41.944-12.957c7.646,1.885,15.307,6.72,18.965,13.825    c2.373,4.609,0.252,8.08-4.933,8.149c-8.16,0.107-16.126,1.131-23.596,4.637c-6.983,3.277-13.356,7.368-17.986,13.751    c-3.174,4.375-4.794,9.292-4.8,14.636c-0.008,7.456,3.537,13.087,9.679,17.094c5.051,3.295,10.619,4.993,16.698,4.973    c9.457-0.031,18.428-2.375,27.232-5.568c14.198-5.149,27.397-12.304,40.439-19.837c11.788-6.809,22.703-14.892,33.99-22.437    c14.975-10.011,30.003-19.957,45.255-29.537c15.109-9.491,31.524-16.439,47.947-23.287c9.134-3.809,18.542-6.886,28.31-8.551    c20.161-3.436,40.384-4.317,60.626-0.575c7.415,1.371,14.017,4.551,20.131,8.95c11.903,8.564,20.564,19.809,26.325,33.079    c7.699,17.732,5.8,35.239-3.894,51.656c-10.652,18.039-27.186,26.943-47.837,28.047c-15.368,0.822-28.029-5.381-38.475-16.455    c-4.646-4.926-7.533-10.709-8.626-17.372c-0.225-1.369-0.697-1.854-2.167-1.734c-7.941,0.646-15.92,0.935-23.825,1.861    c-4.015,0.471-8.013,1.73-11.828,3.146c-8.863,3.289-13.481,10.548-16.259,19.013c-2.608,7.949-2.034,16.07,0.199,24.058    c0.384,1.372,1.261,2.611,1.943,3.894c1.321,2.485,0.21,4.566-2.559,4.757c-13.982,0.968-28.171-9.542-30.395-23.417    c-2.732-17.05,3.057-38.028,21.258-49.602c6.003-3.818,12.666-5.32,19.622-5.903c13.724-1.15,27.084,0.912,40.265,4.563    c1.176,0.326,2.365,0.608,3.118,0.801c1.974-3.834,3.598-7.595,5.74-11.034c6.304-10.123,19.075-14.179,28.448-12.194    c11.495,2.434,16.831,16.858,9.559,26.03c-4.009,5.056-8.881,8.979-15.262,10.447c-4.632,1.065-9.382,1.624-14.082,2.385    c-0.933,0.151-1.882,0.196-3.026,0.309c1.153,3.968,2.918,7.447,5.62,10.333c10.935,11.679,34.413,12.796,43.035-6.941    c4.912-11.244,7.034-23.045,4.425-35.187c-3.178-14.79-12.485-23.676-27.252-27.188c-10.797-2.568-21.653-2.826-32.623-2.113    c-15.504,1.009-30.003,5.828-44.212,11.687c-12.882,5.312-25.128,11.876-37.332,18.604c-19.703,10.863-37.892,24.056-56.931,35.93    c-7.617,4.751-15.336,9.338-23.031,13.961c-0.807,0.485-1.233,0.94-1.167,1.96c1.436,22.12,0.254,44.217-0.787,66.304    c-0.919,19.51-2.421,38.994-3.221,58.507c-0.669,16.312-0.817,32.65-0.94,48.978c-0.042,5.532,0.441,11.088,2.375,16.417    c0.944,2.6-0.42,4.684-3.067,4.782c-10.229,0.38-19.387-1.958-26.008-10.573c-3.664-4.767-5.374-10.296-6.596-16.045    c-2.192-10.313-2.344-20.774-1.486-31.184c1.4-16.998,3.24-33.96,5.01-50.925c2.394-22.939,4.903-45.866,7.342-68.801    C130.844,164.066,130.855,162.402,130.955,160.493z M326.814,113.915c3.086,0.399,6.062,0.873,9.055,1.152    c5.141,0.48,9.744-1.118,13.929-3.997c2.842-1.955,4.289-4.732,4.104-8.185c-0.179-3.342-1.364-5.234-4.282-5.811    c-2.479-0.49-5.126-0.594-7.645-0.335C335.299,97.426,327.864,106.334,326.814,113.915z"/>
		<path d="M287.885,283.202c-2.022,4.333-3.762,8.733-6.067,12.815c-2.417,4.28-5.16,8.419-8.159,12.313    c-2.913,3.783-6.873,6.417-11.361,8.158c-4.963,1.926-9.614,1.23-13.867-1.873c-5.039-3.677-8.645-8.423-10.47-14.464    c-3.248-10.755-3.981-21.767-2.777-32.84c1.546-14.225,3.597-28.394,5.326-42.6c0.508-4.172,0.709-8.384,0.948-12.584    c0.064-1.125-0.249-2.271-0.425-3.7c-2.276,1.033-3.813,2.466-4.912,4.177c-2.935,4.567-6.073,9.067-8.412,13.938    c-4.259,8.87-6.701,18.425-9.296,27.884c-5.028,18.33-9.965,36.685-14.846,55.055c-1.366,5.139-2.332,10.383-3.663,15.532    c-0.241,0.933-1.208,1.927-2.101,2.405c-7.696,4.115-17.909,0.541-21.454-7.475c-2.378-5.376-2.975-11.135-3.386-16.916    c-0.942-13.264,0.059-26.473,1.117-39.683c1.448-18.071,2.918-36.141,4.253-54.22c1.061-14.384,1.973-28.778,2.856-43.174    c0.171-2.79-0.031-5.61-0.182-8.41c-0.106-1.968-0.509-3.843-1.859-5.47c-1.236-1.49-0.965-3.342,0.67-4.4    c4.95-3.205,10.298-4.999,16.282-3.887c3.675,0.683,6.435,2.79,8.497,5.858c3.185,4.74,4.844,10.066,5.067,15.673    c0.322,8.066,0.602,16.177,0.13,24.224c-1.194,20.395-2.818,40.765-4.267,61.145c-0.044,0.613-0.066,1.228,0.158,1.902    c0.446-1.748,0.904-3.494,1.334-5.246c2.676-10.901,5.718-21.693,9.817-32.156c2.928-7.476,7.028-14.131,13.464-19.194    c6.951-5.467,14.712-6.78,23.023-4.382c9.112,2.63,13.719,9.417,15.701,18.298c1.493,6.692,1.762,13.491,1.103,20.271    c-1.173,12.064-2.79,24.087-3.869,36.159c-0.603,6.745-0.515,13.552-0.688,20.332c-0.024,0.94,0.187,1.899,0.389,2.827    c0.427,1.96,1.247,2.397,2.734,1.034c2.171-1.989,4.335-4.114,5.962-6.542c3.729-5.564,5.549-11.975,7.276-18.373    c0.234-0.866-0.021-1.885-0.141-2.821c-1.705-13.294-0.057-26.317,3.236-39.189c3.151-12.318,8.435-23.654,16.02-33.879    c5.168-6.966,11.362-12.685,19.586-15.939c12.521-4.954,25.692-0.371,32.306,11.4c5.183,9.225,5.494,18.782,1.627,28.543    c-1.896,4.785-4.401,9.233-7.855,13.065c-7.198,7.983-16.137,11.674-26.922,10.633c-0.439-0.042-0.881-0.049-1.589-0.086    c-0.255,2.715-0.593,5.372-0.739,8.039c-0.535,9.761,0.207,19.439,2.827,28.862c0.948,3.409,2.562,6.714,4.346,9.792    c4.257,7.344,13.439,8.074,19.033,4.781c8.472-4.987,13.682-12.456,15.233-22.119c1.043-6.496-0.936-12.305-5.91-16.91    c-1.318-1.22-3.174-2.269-2.747-4.486c0.233-1.211,0.624-2.574,1.402-3.468c4.664-5.358,10.293-9.552,16.698-12.561    c5.836-2.742,12.753-0.987,16.971,3.88c4.642,5.355,5.777,11.636,4.834,18.438c-3.785,27.304-22.525,49.026-51.669,55.845    c-9.894,2.315-19.469,0.404-28.736-3.621c-9.174-3.985-16.038-10.352-20.84-19.048c-0.244-0.442-0.481-0.889-0.734-1.325    C288.117,283.348,288.005,283.298,287.885,283.202z M321.106,223.877c8.62-1.102,15.81-7.989,18.945-15.776    c1.435-3.564,2.143-7.313,1.681-11.182c-0.853-7.141-7.246-1.336-9.069,1.803c-4.508,7.762-9.276,16.479-11.625,25.164    C321.061,223.883,321.083,223.88,321.106,223.877z"/>
	</g>
	<path d="M129.352,416.674c18.509-0.045,36.01-4.483,52.605-12.514c24.005-11.617,47.335-24.5,70.264-38.099   c27.901-16.547,57.545-29.084,88.477-38.632c21.474-6.628,43.289-7.373,65.215-2.532c11.958,2.64,22.543,8.094,31.343,16.781   c10.509,10.373,14.868,23.081,14.47,37.643c-0.22,8.034-2.451,15.456-6.529,22.365c-9.482,16.065-22.711,27.411-41.023,32.073   c-14.223,3.622-28.061,1.55-41.531-3.771c-2.573-1.016-4.553-2.836-6.152-5.075c-0.131-0.183-0.257-0.369-0.375-0.559   c-1.591-2.566-1.056-4.631,1.666-5.936c2.476-1.187,5.001-2.277,7.531-3.347c9.766-4.133,16.598-11.155,21.08-20.734   c4.991-10.668,2.675-27.804-6.047-36.7c-5.244-5.349-11.749-7.645-18.847-8.824c-9.137-1.519-18.143-0.281-27.083,1.529   c-15.356,3.109-29.669,9.071-43.561,16.161c-14.462,7.382-28.223,15.955-41.995,24.518c-28.931,17.988-58.139,35.499-88.532,50.952   c-12.73,6.473-25.646,12.43-39.713,15.484c-9.522,2.067-19.087,3.562-28.877,2.897c-15.879-1.079-28.308-8.262-37.427-21.227   c-4.656-6.62-6.198-14.199-6.59-22.121c-0.468-9.447,1.845-19.816,6.012-28.309c4.109-8.373,10.902-15.676,19.586-19.08   c1.35-0.529,2.792-0.968,4.231-0.791c2.439,0.301,3.37,2.159,3.444,4.382c0.064,1.905,0.034,3.82-0.081,5.723   c-0.611,10.146,3.266,18.153,10.769,24.972c9.105,8.276,19.705,12.207,31.777,12.758   C125.421,416.751,127.388,416.674,129.352,416.674z"/>
	<g>
		<path d="M70.414,241.654c-9.941-0.359-19.823-1.23-29.277-4.669c-11.388-4.141-21.305-10.492-29.203-19.772    c-4.298-5.05-7.359-10.777-8.131-17.436c-0.291-2.509-0.169-5.2,0.423-7.649c1.313-5.437,5.632-7.942,11.118-6.891    c3.589,0.688,6.906,2.096,9.752,4.337c3.387,2.667,6.696,5.461,9.819,8.431c7.317,6.958,14.5,14.057,21.743,21.094    c5.704,5.541,11.967,10.325,19.028,14.032c1.289,0.677,2.455,1.606,3.778,2.193c1.926,0.854,2.111,2.444,1.972,4.15    c-0.133,1.625-1.46,2.097-2.786,2.147C75.908,241.727,73.16,241.654,70.414,241.654z"/>
		<path d="M30.584,283.482c-6.626-0.351-13.182-0.589-19.309-3.447c-4.038-1.884-7.707-4.251-9.681-8.454    c-2.53-5.387-2.03-10.663,1.37-15.466c3.435-4.853,8.481-6.409,14.209-5.897c6.308,0.563,12.28,2.545,18.228,4.584    c12.786,4.383,25.673,8.599,39.049,10.768c0.615,0.1,1.278,0.219,1.708,0.67c0.487,0.511,0.526,1.331,0.262,1.985    c-0.265,0.654-0.78,1.172-1.313,1.634c-1.938,1.679-4.174,2.494-6.456,3.549c-2.586,1.196-5.216,2.311-7.859,3.373    c-5.36,2.152-10.863,3.992-16.535,5.12C39.771,282.795,35.146,282.978,30.584,283.482z"/>
		<path d="M81.158,292.58c0.81,0.149,1.621,0.499,2.336,0.918c2.181,1.281,2.38,3.724,0.293,5.076    c-10.917,7.072-20.16,16.023-29.079,25.391c-4.635,4.869-9.531,9.508-14.533,14c-3.277,2.942-7.1,5.116-11.662,5.581    c-4.899,0.499-8.413-1.998-9.45-6.826c-0.789-3.673,0.052-7.176,1.488-10.505c5.766-13.36,15.426-23.091,28.163-29.911    c6.556-3.51,13.5-5.459,20.985-5.277C69.719,290.892,77.366,291.883,81.158,292.58z"/>
	</g>
	<g>
		<path d="M414.438,209.592c-0.529-0.12-1.042-0.288-1.572-0.534c-0.947-0.44-1.831-1.017-2.631-1.686    c-1.32-1.103-0.897-2.648,0.789-3.034c8.293-1.899,14.09-7.294,18.845-13.837c4.444-6.115,8.421-12.574,12.535-18.925    c2.439-3.765,4.692-7.65,7.13-11.415c2.039-3.15,4.689-5.715,7.966-7.6c6.007-3.454,13.442-3.123,18.552,0.84    c4.704,3.647,6.573,10.225,4.6,16.979c-1.982,6.788-5.966,12.46-10.854,17.396c-3.097,3.128-6.432,6.023-9.995,8.609    c-3.487,2.531-7.189,4.765-11.065,6.648c-3.886,1.888-7.941,3.421-12.1,4.587c-4.517,1.267-9.186,2.21-13.88,2.405    c-2.297,0.096-4.601,0.026-6.888-0.209C415.368,209.765,414.897,209.697,414.438,209.592z"/>
		<path d="M416.539,257.106c2.844-0.559,5.771-0.533,8.632-0.069c2.768,0.449,5.643,0.928,8.369,1.851    c10.714,3.628,20.965,8.276,29.733,15.667c6.136,5.173,11.277,11.084,14.091,18.753c1.41,3.844,1.954,7.792,1.818,11.893    c-0.242,7.305-7.965,13.201-15.448,10.812c-5.766-1.841-10.508-5.171-14.064-9.947c-5.053-6.789-9.811-13.798-14.663-20.736    c-6.056-8.658-12.294-17.146-20.753-23.701c-1.807-1.401-1.558-3.446,0.615-4.113C415.412,257.35,415.967,257.219,416.539,257.106    z"/>
		<path d="M488.507,253.818c-5.182-0.037-9.535-1.679-13.677-3.846c-12.193-6.382-25.315-9.959-38.669-12.722    c-4.125-0.854-8.458-0.674-12.684-1.087c-0.898-0.088-2.22-0.491-2.486-1.115c-0.27-0.635,0.288-1.969,0.904-2.557    c1.112-1.063,2.44-2.018,3.846-2.638c9.452-4.172,19.272-6.852,29.652-7.47c5.941-0.354,11.85-0.857,17.778,0.077    c7.22,1.138,13.871,3.626,19.633,8.214c3.329,2.651,5.805,5.901,6.819,10.133c1.651,6.899-2.253,11.724-8.824,12.826    C489.918,253.779,489.013,253.779,488.507,253.818z"/>
	</g>
</g>















</svg>
