<?xml version="1.0" encoding="UTF-8"?>
<!-- Generator: Adobe Illustrator 26.5.1, SVG Export Plug-In . SVG Version: 6.00 Build 0)  -->
<svg xmlns="http://www.w3.org/2000/svg" xmlns:xlink="http://www.w3.org/1999/xlink" version="1.1" id="Capa_1" x="0px" y="0px" viewBox="0 0 512 512" style="enable-background:new 0 0 512 512;" xml:space="preserve" width="512" height="512">
<g>
	<path style="fill:#FFFFFF;" d="M483.23,338.727c-2.967-48.342-21.897-69.552-41.144-78.447c0.069-0.898,0.132-1.795,0.189-2.693   c0.21-3.331,0.331-6.696,0.362-10.08c1.938-0.772,3.721-1.929,5.232-3.425c2.96-2.929,4.635-6.915,4.656-11.079   c0.001-0.185,0.008-17.531-6.344-40.601c2.158-5.891,5.248-14.455,8.648-24.259c8.329-23.986,14.708-44.38,18.962-60.614   c7.86-29.995,8.211-43.705,1.382-52.346c-7.283-9.288-21.578-14.403-40.252-14.403c-8.181,0-16.772,1.008-25.558,2.957   c-0.226-1.197-0.594-2.38-1.109-3.524c-2.55-5.67-8.178-9.26-14.309-9.26c-0.457,0-0.917,0.019-1.378,0.06l-30.001,2.631   L351.342,9.158C348.759,3.524,343.148,0,337.079,0c-0.709,0-1.426,0.049-2.143,0.147c-6.857,0.943-12.287,6.266-13.368,13.102   l-4.961,31.427l-29.596,9.317c-6.66,2.097-11.134,8.34-10.979,15.321c0.02,0.933,0.124,1.848,0.302,2.739   c-0.3-0.004-3.344-0.02-3.344-0.02c-17.168,0-33.504,1.781-48.73,5.304c-7.451-6.212-15.094-11.813-22.784-16.694   c-35.499-22.55-64.882-25.917-79.238-25.917c-18.315,0-32.39,5.01-39.596,14.06c-4.459,5.557-7.557,13.107-2.083,39.399   c-3.467,2.385-5.922,6.128-6.611,10.486l-4.961,31.426l-29.596,9.316c-6.659,2.096-11.134,8.34-10.979,15.321   c0.155,6.98,4.901,13.019,11.649,14.818l19.539,5.21l-2.327,24.19c-0.655,6.814,3.181,13.266,9.48,15.946   c1.988,0.846,4.074,1.254,6.14,1.254c4.485,0,8.873-1.925,11.923-5.483l17.512-20.431l0.852,0.48   c-5.946,18.469-7.263,32.033-7.417,33.813c-0.546,6.358,2.778,12.156,8.018,15.07c-0.245,2.815-0.48,5.768-0.672,8.798   c-20.252,5.839-44.703,24.171-51.531,77.232c-8.311,64.517,19.534,89.518,40.581,99.143c-0.525,20.407,3.67,34.822,12.72,43.873   c4.353,4.353,15.684,15.683,98.751,24.034C212.18,504.451,228.977,512,248.533,512c28.581,0,50.969-16.38,50.969-37.291   c0-18.412-17.363-33.297-41.021-36.595c0.699-0.574,1.367-1.194,1.97-1.898l17.512-20.43l21.873,12.361   c2.412,1.364,5.072,2.032,7.719,2.032c3.687,0,7.346-1.297,10.265-3.819c5.016-4.333,6.77-11.351,4.38-17.535l-8.441-21.849   l18.982-17.957c4.853-4.591,6.27-11.748,3.529-17.84c-2.55-5.67-8.178-9.26-14.31-9.26c-0.457,0-0.917,0.019-1.378,0.06   l-30.001,2.633l-9.352-20.405c1.049,0.453,2.111,0.872,3.192,1.225c2.575,0.833,4.991,1.238,7.386,1.238   c0.077,0,0.227,0,0.303-0.001c2.916-0.042,6.008-0.711,10.028-2.169c2.443-0.886,4.973-1.954,7.51-3.134   c3.885,4.52,9.419,7.082,15.513,7.082c0.084,0,0.266-0.003,0.35-0.004c4.67-0.075,8.939-1.675,12.359-4.531   c3.362,2.413,7.29,3.708,11.477,3.795c-0.606,6.473-0.973,13.542-1.019,21.305c-0.253,40.422,7.442,61.275,13.87,71.532   c2.138,3.482,3.983,5.444,4.891,6.305c0.378,0.358,0.774,0.696,1.187,1.016c7.723,5.973,19.483,10.15,32.357,11.467   c1.125,0.107,2.317,0.217,3.658,0.306c1.587,0.092,3.197,0.141,4.821,0.141c0.003,0,0.001,0,0.004,0   c20.593,0,39.117-7.636,52.154-21.499C477.996,400.495,485.384,373.728,483.23,338.727z"/>
	<g>
		<g>
			<g>
				<path style="fill:none;stroke:#2E1144;stroke-width:8.458;stroke-miterlimit:10;" d="M115.789,397.84      c0,0-9.358,43.91,3.599,56.866c12.957,12.957,107.255,20.155,107.255,20.155"/>
				<ellipse style="fill:#2E1144;" cx="248.957" cy="474.862" rx="35.272" ry="21.595"/>
			</g>
			<g>
				<path style="fill:none;stroke:#2E1144;stroke-width:8.458;stroke-miterlimit:10;" d="M126.876,211.433      c-0.726,7.677-1.451,15.354-2.177,23.031c-1.498,15.849-2.987,31.945-0.055,47.592"/>
				<path style="fill:none;stroke:#2E1144;stroke-width:8.458;stroke-miterlimit:10;" d="M420.64,216.502      c2.285,13.181,3.016,26.63,2.174,39.981c-0.763,12.09-2.81,24.188-1.72,36.253"/>
				<g>
					<g>
						<g>
							<path style="fill:#2E1144;" d="M219.126,93.397l-38.54,41.596l-41.109,44.418l-10.29,11.115c0,0-5.287-14.271-11.787-33.47         c-12.269-36.196-28.809-89.922-22.094-98.293c8.708-10.938,50.125-15.24,98.174,15.282         C201.864,79.366,210.449,85.769,219.126,93.397z"/>
							<path style="fill:#FF93E2;" d="M180.586,134.993l-41.109,44.418c-8.684-6.089-11.337-17.485-14.191-27.064         c-0.637-2.167-1.28-4.361-1.89-6.534c-3.78-13.068-7.087-26.22-9.962-39.505c-1.483-6.893-2.833-14.078-0.981-20.845         c0.622-2.237,1.675-4.491,3.689-5.642c1.966-1.11,4.426-0.89,6.622-0.316c6.74,1.743,12.334,6.314,17.509,10.956         c5.135,4.594,10.111,9.371,14.846,14.351C164.321,114.256,172.812,124.365,180.586,134.993z"/>
						</g>
						<path style="opacity:0.4;fill:#2E1144;" d="M219.126,93.397l-38.54,41.596l-41.109,44.418l-10.29,11.115        c0,0-5.287-14.271-11.787-33.47c1.833-3.833,3.836-7.562,5.996-11.242c8.669-14.959,19.611-28.666,31.724-41.002        c1.981-2.013,3.996-4.005,6.024-5.942c9.857-9.416,20.487-18.148,32.337-24.824C201.864,79.366,210.449,85.769,219.126,93.397        z"/>
					</g>
					<g>
						<g>
							<path style="fill:#2E1144;" d="M339.174,98.74l38.231,41.88l40.78,44.721l10.207,11.19c0,0,5.392-14.232,12.034-33.382         c12.536-36.104,29.474-89.707,22.82-98.127c-8.627-11.002-50.011-15.611-98.284,14.556         C356.539,84.837,347.907,91.176,339.174,98.74z"/>
							<path style="fill:#FF93E2;" d="M377.405,140.62l40.78,44.721c8.729-6.025,11.466-17.401,14.39-26.958         c0.653-2.162,1.313-4.351,1.938-6.52c3.876-13.039,7.28-26.167,10.253-39.43c1.534-6.882,2.938-14.057,1.135-20.837         c-0.606-2.242-1.642-4.504-3.647-5.669c-1.958-1.125-4.419-0.923-6.62-0.365c-6.753,1.693-12.38,6.222-17.59,10.826         c-5.169,4.556-10.18,9.296-14.951,14.241C393.823,120.004,385.258,130.049,377.405,140.62z"/>
						</g>
						<path style="opacity:0.4;fill:#2E1144;" d="M339.174,98.74l38.231,41.88l40.78,44.721l10.207,11.19        c0,0,5.392-14.232,12.034-33.382c-1.805-3.847-3.78-7.59-5.913-11.286c-8.558-15.022-19.399-28.81-31.42-41.235        c-1.966-2.028-3.966-4.035-5.979-5.987c-9.787-9.489-20.352-18.299-32.152-25.063        C356.539,84.837,347.907,91.176,339.174,98.74z"/>
					</g>
				</g>
				<g>
					<g>
						<path style="fill:#B179FF;" d="M170.248,344.086c-2.368,39.189-11.306,56.189-15.732,62.307        c-1.522,2.143-2.509,2.96-2.509,2.96c-5.244,3.524-14.379,6.259-24.754,6.625c-0.987,0.028-2.03,0.056-3.073,0.056        c-28.983-0.254-65.521-19.087-56.612-88.245c7.697-59.826,38.427-68.115,60.813-65.69c1.015,0.113,2.002,0.254,2.988,0.395        c12.405,1.889,21.624,6.738,21.624,6.738s0.987,0.536,2.481,2.03C160.944,276.62,173.265,294.438,170.248,344.086z"/>
					</g>
					<g>
						<path style="fill:#2E1144;" d="M170.248,344.086c-2.368,39.189-11.306,56.189-15.732,62.307        c-1.889-6.428-3.073-13.11-4.06-19.707c-2.368-16.014-3.806-32.197-4.257-48.379c-0.423-14.802-0.028-29.716,2.819-44.235        c1.494-7.81,4.314-15.224,6.456-22.808C160.944,276.62,173.265,294.438,170.248,344.086z"/>
					</g>
					<g>
						<path style="fill:#2E1144;" d="M127.254,415.979c-0.987,0.028-2.03,0.056-3.073,0.056        c-11.221-24.979-16.662-52.778-15.535-79.984c1.071-25.543,7.951-51.114,19.735-73.951c1.015,0.113,2.002,0.254,2.988,0.395        c-11.897,22.695-18.833,48.182-19.904,73.669C110.338,363.371,115.863,391.113,127.254,415.979z"/>
					</g>
				</g>
				<g>
					<g>
						<path style="fill:#B179FF;" d="M364.45,349.264c-0.247,39.259,7.538,56.817,11.547,63.216        c1.376,2.239,2.307,3.121,2.307,3.121c4.997,3.866,13.93,7.203,24.257,8.259c0.983,0.094,2.022,0.191,3.062,0.261        c28.935,1.677,66.647-14.681,62.363-84.279c-3.695-60.206-33.806-70.523-56.303-69.594c-1.02,0.045-2.014,0.12-3.008,0.195        c-12.503,1.059-22.025,5.283-22.025,5.283s-1.02,0.469-2.611,1.86C378.226,282.567,364.746,299.525,364.45,349.264z"/>
					</g>
					<g>
						<path style="fill:#2E1144;" d="M364.45,349.264c-0.247,39.259,7.538,56.817,11.547,63.216        c2.313-6.288,3.939-12.876,5.363-19.393c3.43-15.82,5.942-31.872,7.47-47.989c1.408-14.74,2.007-29.648,0.133-44.325        c-0.971-7.892-3.29-15.478-4.923-23.188C378.226,282.567,364.746,299.525,364.45,349.264z"/>
					</g>
					<g>
						<path style="fill:#2E1144;" d="M402.561,423.861c0.983,0.094,2.022,0.191,3.062,0.261        c12.86-24.177,20.14-51.551,20.827-78.772c0.632-25.558-4.529-51.53-14.767-75.101c-1.02,0.045-2.014,0.12-3.008,0.195        c10.36,23.438,15.582,49.329,14.954,74.831C422.943,372.495,415.582,399.808,402.561,423.861z"/>
					</g>
				</g>
				<g>
					<path style="fill:#FF93E2;" d="M437.253,233.078l-28.193-0.157c-0.003-4.676-1.593-115.552-133.605-116.834       c-123.62-1.119-135.118,107.768-135.547,112.407l-28.085-2.465c0.124-1.433,3.281-35.489,24.976-69.499       c20.04-31.413,59.975-68.647,136.612-68.647c0.771,0,1.539,0.004,2.315,0.011C436.193,89.452,437.261,231.642,437.253,233.078z       "/>
				</g>
			</g>
		</g>
		<g>
			<path style="fill:#2E1144;" d="M210.688,217.81c-0.438,2.389-1.152,4.875-2.145,7.456c-0.991,2.584-2.277,4.946-3.857,7.087     c-1.58,2.143-3.47,3.906-5.672,5.289c-2.201,1.386-4.731,2.101-7.588,2.146c-2.117,0.033-4.029-0.361-5.735-1.181     c-1.707-0.819-3.26-1.931-4.657-3.338c-1.399-1.407-2.615-3.027-3.649-4.865c-1.035-1.836-1.898-3.742-2.591-5.714     c-0.694-1.974-1.214-3.937-1.562-5.891c-0.35-1.952-0.537-3.776-0.563-5.469c-0.037-2.382,0.146-4.937,0.553-7.669     c0.406-2.733,1.038-5.442,1.897-8.129c0.856-2.686,1.953-5.27,3.292-7.753c1.335-2.482,2.928-4.676,4.777-6.586     c1.849-1.907,3.943-3.448,6.28-4.624c2.335-1.174,4.959-1.785,7.869-1.831c1.852-0.03,3.579,0.301,5.178,0.99     c1.598,0.69,2.989,1.62,4.173,2.793c1.181,1.171,2.116,2.573,2.804,4.203c0.688,1.63,1.046,3.344,1.075,5.143l0.011,0.714     c0.015,0.953-0.007,2.131-0.063,3.532c-0.058,1.404-0.288,2.744-0.691,4.021c-0.403,1.277-1.023,2.386-1.853,3.325     c-0.833,0.94-2.015,1.419-3.55,1.444c-1.852,0.029-3.26-0.37-4.226-1.203c-0.965-0.83-1.463-2.225-1.495-4.184     c-0.011-0.741,0.003-1.483,0.044-2.223c0.04-0.742,0.056-1.483,0.044-2.225c-0.018-1.111-0.216-1.967-0.595-2.57     c-0.381-0.602-1.155-0.895-2.318-0.876c-1.323,0.021-2.507,0.464-3.552,1.326c-1.045,0.865-1.952,1.988-2.724,3.377     c-0.772,1.389-1.436,2.961-1.989,4.716c-0.556,1.755-1.005,3.523-1.346,5.3c-0.343,1.78-0.58,3.49-0.713,5.133     c-0.132,1.644-0.19,3.048-0.172,4.211c0.015,0.951,0.085,2.049,0.212,3.29c0.124,1.243,0.368,2.428,0.731,3.561     c0.361,1.133,0.892,2.09,1.593,2.872c0.701,0.783,1.607,1.166,2.719,1.148c1.904-0.03,3.428-0.648,4.574-1.859     c1.144-1.209,1.915-2.742,2.309-4.602c-0.743-0.092-1.473-0.255-2.192-0.482c-0.717-0.227-1.385-0.559-2-0.999     c-0.617-0.439-1.114-0.988-1.494-1.644c-0.38-0.655-0.578-1.432-0.593-2.332c-0.025-1.64,0.511-2.932,1.605-3.877     c1.099-0.943,2.397-1.666,3.897-2.165s3.044-0.829,4.63-0.986c1.584-0.158,2.852-0.244,3.805-0.259     c0.687-0.011,1.695,0.025,3.019,0.11c1.324,0.085,2.638,0.29,3.941,0.613c1.301,0.325,2.431,0.796,3.395,1.415     c0.962,0.62,1.451,1.434,1.467,2.439c0.032,2.011-0.483,3.753-1.544,5.224C214.387,216.626,212.801,217.511,210.688,217.81z"/>
			<path style="fill:#2E1144;" d="M257.634,224.371c0.017,1.059-0.055,2.331-0.217,3.815c-0.163,1.484-0.497,2.906-1.004,4.265     c-0.509,1.357-1.206,2.507-2.09,3.444c-0.887,0.94-2.069,1.422-3.55,1.445c-1.958,0.032-3.436-0.659-4.438-2.072     c-1.002-1.414-1.73-3.108-2.185-5.087c-0.454-1.978-0.738-3.998-0.849-6.059c-0.113-2.064-0.205-3.703-0.277-4.919     c-3.801,0.695-7.548,1.311-11.246,1.843c-0.087,1.221-0.286,2.733-0.603,4.535c-0.315,1.806-0.816,3.546-1.505,5.224     c-0.688,1.678-1.591,3.136-2.709,4.371c-1.119,1.235-2.497,1.864-4.138,1.89c-1.269,0.021-2.27-0.427-2.998-1.342     c-0.73-0.913-1.291-2.002-1.68-3.267c-0.391-1.264-0.637-2.57-0.736-3.918c-0.102-1.349-0.16-2.472-0.173-3.373     c-0.048-3.015,0.143-5.997,0.573-8.94c0.431-2.945,0.94-5.876,1.529-8.797c0.293-1.54,0.687-3.346,1.185-5.417     c0.496-2.072,1.111-4.213,1.843-6.421c0.731-2.208,1.598-4.391,2.595-6.551c0.998-2.16,2.145-4.097,3.441-5.811     c1.295-1.714,2.781-3.111,4.459-4.199c1.677-1.083,3.546-1.644,5.61-1.675c2.011-0.033,3.764,0.39,5.261,1.265     c1.495,0.877,2.811,2.047,3.945,3.51c1.134,1.465,2.086,3.13,2.857,4.997c0.771,1.867,1.422,3.762,1.956,5.684     c0.533,1.925,0.986,3.809,1.36,5.657c0.372,1.847,0.702,3.482,0.991,4.905c0.741,3.429,1.378,6.9,1.911,10.41     C257.284,217.299,257.577,220.827,257.634,224.371z M242.01,205.325c-0.011-0.635-0.068-1.679-0.168-3.132     c-0.103-1.454-0.299-2.906-0.585-4.358c-0.289-1.451-0.719-2.74-1.293-3.87c-0.574-1.129-1.337-1.686-2.289-1.671     c-0.53,0.008-1.027,0.373-1.491,1.096c-0.464,0.721-0.874,1.629-1.227,2.719c-0.354,1.092-0.666,2.3-0.935,3.629     c-0.271,1.327-0.503,2.602-0.694,3.819c-0.193,1.223-0.336,2.324-0.424,3.303c-0.092,0.982-0.16,1.684-0.205,2.109     c3.17-0.315,6.284-0.763,9.346-1.34L242.01,205.325z"/>
			<path style="fill:#2E1144;" d="M317.131,226.528c-0.138,1.378-0.341,2.731-0.611,4.057c-0.271,1.33-0.608,2.512-1.015,3.552     c-0.409,1.037-0.938,1.865-1.59,2.483c-0.651,0.62-1.4,0.936-2.247,0.949c-0.847,0.014-1.625-0.622-2.332-1.908     c-0.709-1.284-1.386-2.994-2.026-5.128c-0.643-2.134-1.236-4.546-1.781-7.236c-0.548-2.691-1.039-5.423-1.48-8.194     c-0.442-2.773-0.815-5.478-1.121-8.121c-0.308-2.642-0.555-4.939-0.745-6.896c-0.284,2.017-0.62,4.27-1.004,6.765     c-0.384,2.494-0.847,5.03-1.388,7.603c-0.544,2.577-1.138,5.099-1.786,7.571c-0.65,2.471-1.356,4.679-2.12,6.623     c-0.763,1.945-1.586,3.506-2.467,4.683c-0.881,1.178-1.823,1.775-2.828,1.791c-0.9,0.014-1.809-0.578-2.728-1.781     c-0.92-1.203-1.819-2.79-2.695-4.762c-0.878-1.971-1.707-4.167-2.486-6.59c-0.781-2.421-1.506-4.858-2.181-7.31     c-0.672-2.449-1.265-4.769-1.776-6.957c-0.511-2.189-0.91-4.021-1.198-5.5c0.016,1.111,0.022,2.342,0.018,3.691     c-0.007,1.352-0.004,2.318,0.005,2.899c0.004,0.266,0.006,1.138,0.003,2.62c-0.004,1.481-0.067,3.254-0.194,5.322     c-0.127,2.066-0.33,4.28-0.61,6.64c-0.281,2.359-0.709,4.548-1.284,6.569c-0.578,2.021-1.306,3.727-2.183,5.114     c-0.878,1.392-1.978,2.149-3.3,2.277c-1.064-0.46-1.962-1.254-2.694-2.38c-0.732-1.125-1.35-2.45-1.85-3.979     c-0.501-1.527-0.898-3.162-1.189-4.905c-0.293-1.741-0.531-3.443-0.716-5.107c-0.186-1.664-0.303-3.212-0.351-4.641     c-0.05-1.429-0.081-2.592-0.095-3.491c-0.025-1.587,0.036-3.586,0.183-5.998c0.147-2.409,0.41-4.939,0.793-7.592     c0.381-2.653,0.895-5.307,1.542-7.965c0.646-2.655,1.44-5.037,2.387-7.143c0.944-2.105,2.055-3.83,3.333-5.172     c1.273-1.344,2.759-2.029,4.453-2.057c0.793-0.012,1.646,0.424,2.56,1.311c0.914,0.887,1.831,2.047,2.755,3.488     c0.922,1.441,1.82,3.055,2.697,4.84c0.874,1.785,1.71,3.586,2.506,5.398c0.796,1.813,1.498,3.55,2.108,5.208     c0.608,1.657,1.107,3.067,1.496,4.225c0.403-1.277,0.91-2.767,1.516-4.471c0.608-1.703,1.282-3.475,2.021-5.312     c0.738-1.837,1.556-3.648,2.455-5.436c0.896-1.788,1.838-3.391,2.822-4.809c0.983-1.418,1.985-2.57,3.003-3.461     c1.017-0.889,2.054-1.342,3.114-1.359c1.852-0.03,3.45,0.633,4.795,1.988c1.344,1.355,2.485,3.124,3.418,5.304     c0.933,2.182,1.686,4.632,2.26,7.347c0.57,2.719,1.024,5.41,1.357,8.078c0.332,2.668,0.557,5.165,0.675,7.492     c0.116,2.328,0.186,4.204,0.208,5.632c0.01,0.584,0.022,1.378,0.039,2.382c0.015,1.006,0.019,2.143,0.014,3.415     c-0.007,1.271-0.052,2.621-0.135,4.051C317.376,223.665,317.268,225.096,317.131,226.528z"/>
			<path style="fill:#2E1144;" d="M357.947,222.072c0.015,1.004-0.233,1.987-0.745,2.947c-0.516,0.909-1.744,1.988-3.681,3.235     c-1.94,1.25-4.091,2.435-6.455,3.556c-2.364,1.123-4.65,2.086-6.861,2.887c-2.211,0.801-3.845,1.213-4.902,1.229     c-0.742,0.011-1.618-0.149-2.628-0.475c-1.01-0.33-2.024-0.749-3.037-1.264c-1.015-0.509-1.937-1.105-2.767-1.78     c-0.833-0.674-1.439-1.327-1.818-1.958c-0.217-0.365-0.427-1.104-0.628-2.212c-0.204-1.108-0.384-2.402-0.538-3.882     c-0.157-1.477-0.3-3.051-0.432-4.716c-0.132-1.666-0.251-3.251-0.354-4.759c-0.102-1.506-0.178-2.843-0.222-4.005     c-0.045-1.163-0.072-2.01-0.08-2.54c-0.032-1.958,0-4.208,0.091-6.75c0.092-2.543,0.304-5.098,0.635-7.672     c0.329-2.572,0.831-5.04,1.509-7.406c0.677-2.366,1.611-4.379,2.803-6.039c0.363-0.482,1.096-0.995,2.2-1.543     c1.103-0.545,2.404-1.07,3.904-1.568c1.501-0.501,3.121-0.976,4.859-1.428c1.74-0.45,3.414-0.836,5.025-1.151     c1.608-0.317,3.073-0.578,4.391-0.785c1.32-0.205,2.325-0.314,3.013-0.325c0.793-0.012,1.55,0.147,2.27,0.481     c0.72,0.332,1.335,0.785,1.847,1.36c0.512,0.574,0.92,1.215,1.221,1.926c0.303,0.71,0.458,1.459,0.471,2.253     c0.011,0.688-0.07,1.272-0.248,1.751c-0.178,0.479-0.447,1.013-0.808,1.601c-0.52,0.697-1.617,1.535-3.296,2.514     c-1.678,0.979-3.502,1.948-5.472,2.905c-1.969,0.958-3.861,1.82-5.674,2.589c-1.814,0.771-3.091,1.32-3.826,1.648     c-0.193,1.223-0.398,2.456-0.617,3.703c-0.218,1.247-0.37,2.507-0.456,3.779c1.626-0.873,3.466-1.695,5.519-2.47     c2.053-0.774,4.005-1.174,5.856-1.203c3.757-0.061,5.665,1.764,5.723,5.465c0.015,0.9-0.145,1.697-0.478,2.39     c-0.333,0.694-0.774,1.309-1.32,1.846c-0.548,0.54-1.176,1.012-1.883,1.419c-0.709,0.409-1.404,0.804-2.086,1.184     c-1.68,0.929-3.44,1.736-5.281,2.427c-1.843,0.691-3.684,1.367-5.526,2.031c-0.1,0.425-0.198,0.892-0.296,1.395     c-0.098,0.505-0.143,0.995-0.135,1.472c0.011,0.742,0.076,1.481,0.193,2.22c0.118,0.741,0.235,1.479,0.354,2.216     c0.632-0.22,1.645-0.581,3.04-1.079c1.395-0.498,2.855-0.998,4.383-1.498c1.527-0.501,3.001-0.933,4.424-1.301     c1.423-0.368,2.479-0.556,3.168-0.567c0.794-0.012,1.538,0.147,2.232,0.482c0.692,0.335,1.282,0.774,1.766,1.322     c0.485,0.548,0.88,1.191,1.181,1.926C357.778,220.593,357.935,221.331,357.947,222.072z"/>
			<path style="fill:#2E1144;" d="M216.612,313.909c-3.227,0.051-6.043-0.712-8.45-2.286c-2.408-1.576-4.413-3.714-6.016-6.412     c-1.605-2.701-2.821-5.844-3.644-9.433c-0.823-3.583-1.268-7.362-1.33-11.331c-0.059-3.704,0.292-7.468,1.052-11.29     c0.761-3.824,1.962-7.282,3.608-10.378c1.645-3.096,3.747-5.641,6.309-7.642c2.562-1.999,5.643-3.027,9.241-3.084     c3.493-0.055,6.43,0.838,8.815,2.679c2.384,1.842,4.301,4.246,5.751,7.214c1.448,2.968,2.508,6.299,3.174,9.991     c0.666,3.696,1.03,7.397,1.089,11.098c0.065,4.127-0.284,8.035-1.046,11.727c-0.763,3.691-1.955,6.951-3.576,9.784     c-1.623,2.829-3.68,5.084-6.165,6.765C222.936,312.988,219.998,313.856,216.612,313.909z M216.865,269.605     c-1.006,0.017-1.857,0.428-2.559,1.232c-0.702,0.805-1.282,1.86-1.737,3.163c-0.456,1.305-0.778,2.766-0.962,4.383     c-0.187,1.617-0.267,3.246-0.241,4.886c0.029,1.853,0.178,3.703,0.446,5.551c0.267,1.849,0.65,3.509,1.15,4.982     c0.5,1.474,1.115,2.657,1.843,3.546c0.727,0.889,1.594,1.324,2.599,1.308c1.165-0.018,2.081-0.617,2.75-1.792     c0.669-1.171,1.191-2.585,1.561-4.232c0.37-1.645,0.608-3.345,0.714-5.091c0.103-1.751,0.147-3.205,0.129-4.369     c-0.023-1.429-0.14-2.936-0.35-4.518c-0.211-1.586-0.538-3.049-0.983-4.393c-0.445-1.342-1.019-2.457-1.721-3.347     C218.803,270.025,217.924,269.589,216.865,269.605z"/>
			<path style="fill:#2E1144;" d="M278.524,257.754c0.03,1.905-0.175,4.04-0.614,6.403c-0.438,2.362-0.995,4.766-1.671,7.211     c-0.676,2.446-1.407,4.827-2.19,7.142c-0.785,2.313-1.479,4.401-2.084,6.264c-0.407,1.17-0.847,2.62-1.321,4.349     c-0.475,1.725-1.028,3.549-1.659,5.465c-0.632,1.915-1.328,3.833-2.092,5.747c-0.764,1.918-1.611,3.639-2.54,5.162     c-0.928,1.521-1.953,2.768-3.077,3.739c-1.123,0.97-2.344,1.466-3.667,1.487c-1.111,0.018-2.19-0.47-3.238-1.458     c-1.049-0.988-2.048-2.256-2.998-3.799c-0.951-1.547-1.852-3.279-2.702-5.198c-0.851-1.92-1.62-3.799-2.311-5.643     c-0.692-1.839-1.275-3.552-1.748-5.133c-0.475-1.578-0.826-2.789-1.05-3.633c-1.125-4.112-2.194-8.262-3.213-12.454     c-1.019-4.193-1.562-8.403-1.63-12.637c-0.016-1.057,0.018-2.157,0.107-3.297c0.088-1.137,0.335-2.188,0.745-3.147     c0.408-0.958,0.99-1.748,1.748-2.37c0.757-0.618,1.823-0.942,3.199-0.962c1.165-0.019,2.247,0.613,3.247,1.894     c0.997,1.28,1.911,2.946,2.737,4.997c0.826,2.051,1.59,4.342,2.292,6.871c0.702,2.53,1.363,5.019,1.984,7.472     c0.621,2.45,1.214,4.745,1.776,6.879c0.563,2.132,1.119,3.831,1.67,5.094c0.3-1.063,0.738-2.618,1.315-4.667     c0.574-2.044,1.254-4.291,2.037-6.739c0.78-2.448,1.641-4.96,2.58-7.543c0.938-2.584,1.933-4.927,2.984-7.036     c1.052-2.105,2.15-3.83,3.293-5.172c1.141-1.341,2.322-2.022,3.541-2.042c0.899-0.014,1.642,0.187,2.232,0.602     c0.589,0.414,1.048,0.962,1.377,1.644c0.328,0.686,0.564,1.421,0.71,2.214C278.433,256.249,278.513,257.013,278.524,257.754z"/>
			<path style="fill:#2E1144;" d="M314.952,297.271c0.017,1.008-0.231,1.989-0.745,2.951c-0.516,0.909-1.743,1.985-3.681,3.232     c-1.94,1.251-4.09,2.437-6.455,3.556c-2.362,1.122-4.65,2.084-6.861,2.887c-2.21,0.801-3.845,1.213-4.902,1.229     c-0.742,0.011-1.617-0.149-2.628-0.476c-1.01-0.329-2.024-0.747-3.037-1.26c-1.015-0.514-1.937-1.107-2.767-1.783     c-0.833-0.676-1.437-1.327-1.817-1.955c-0.219-0.367-0.427-1.105-0.629-2.215c-0.204-1.107-0.384-2.401-0.538-3.879     c-0.157-1.48-0.3-3.052-0.432-4.719c-0.132-1.664-0.249-3.251-0.354-4.759c-0.102-1.507-0.176-2.84-0.222-4.005     c-0.045-1.165-0.072-2.01-0.08-2.54c-0.03-1.958,0-4.207,0.092-6.748c0.092-2.543,0.303-5.099,0.633-7.673     c0.329-2.57,0.832-5.04,1.509-7.406c0.677-2.365,1.611-4.379,2.803-6.038c0.363-0.482,1.096-0.995,2.2-1.543     c1.103-0.546,2.404-1.071,3.905-1.569c1.499-0.5,3.12-0.976,4.858-1.428c1.74-0.45,3.414-0.834,5.025-1.151     c1.609-0.317,3.073-0.577,4.393-0.785c1.32-0.205,2.325-0.314,3.014-0.325c0.793-0.012,1.55,0.147,2.269,0.48     c0.72,0.333,1.337,0.786,1.848,1.36c0.512,0.574,0.921,1.216,1.222,1.926c0.301,0.71,0.458,1.461,0.471,2.255     c0.011,0.688-0.072,1.272-0.248,1.75c-0.179,0.479-0.449,1.013-0.809,1.601c-0.519,0.697-1.618,1.535-3.296,2.514     c-1.678,0.98-3.502,1.948-5.471,2.905c-1.97,0.958-3.861,1.821-5.676,2.591c-1.813,0.771-3.089,1.32-3.826,1.646     c-0.193,1.223-0.396,2.456-0.615,3.703c-0.219,1.247-0.37,2.507-0.457,3.779c1.626-0.873,3.466-1.695,5.52-2.47     c2.051-0.772,4.003-1.174,5.855-1.203c3.757-0.059,5.665,1.763,5.724,5.467c0.014,0.9-0.146,1.696-0.479,2.388     c-0.333,0.694-0.774,1.309-1.32,1.846c-0.548,0.54-1.174,1.012-1.883,1.419c-0.708,0.41-1.404,0.805-2.086,1.185     c-1.678,0.928-3.439,1.734-5.281,2.426c-1.842,0.691-3.684,1.367-5.524,2.032c-0.102,0.427-0.198,0.891-0.297,1.393     c-0.098,0.505-0.142,0.997-0.135,1.473c0.012,0.741,0.076,1.48,0.194,2.219c0.117,0.739,0.234,1.479,0.352,2.216     c0.632-0.219,1.645-0.582,3.04-1.081c1.395-0.498,2.857-0.998,4.383-1.498c1.528-0.501,3.001-0.932,4.424-1.298     c1.423-0.367,2.479-0.557,3.168-0.569c0.794-0.012,1.538,0.15,2.232,0.483c0.692,0.333,1.282,0.772,1.766,1.322     c0.486,0.548,0.88,1.189,1.183,1.925C314.783,295.793,314.941,296.531,314.952,297.271z"/>
			<path style="fill:#2E1144;" d="M356.798,267.316c0.058,3.651-0.737,6.945-2.384,9.883c-1.649,2.936-3.857,5.538-6.627,7.804     c0.867,1.258,1.764,2.726,2.69,4.404c0.926,1.68,1.762,3.454,2.507,5.319c0.745,1.867,1.356,3.739,1.836,5.608     c0.478,1.874,0.731,3.603,0.756,5.189c0.028,1.693-0.359,3.219-1.158,4.582c-0.801,1.364-2.179,2.061-4.135,2.092     c-1.641,0.025-3.067-0.747-4.283-2.315c-1.217-1.569-2.306-3.444-3.265-5.624c-0.962-2.18-1.843-4.402-2.646-6.667     c-0.805-2.262-1.562-4.079-2.27-5.444c-0.948,0.335-1.868,0.708-2.76,1.118c-0.895,0.41-1.814,0.808-2.762,1.195     c-0.033,1.165-0.102,2.767-0.201,4.806c-0.1,2.04-0.359,4.068-0.778,6.087c-0.418,2.014-1.065,3.773-1.941,5.268     c-0.877,1.496-2.108,2.256-3.693,2.281c-1.747,0.027-3.108-0.666-4.083-2.08c-0.975-1.411-1.677-3.095-2.105-5.045     c-0.428-1.952-0.686-3.944-0.77-5.983c-0.084-2.035-0.136-3.637-0.154-4.802c-0.04-2.486-0.028-4.934,0.041-7.344     c0.069-2.408,0.083-4.855,0.043-7.344c-0.036-2.273-0.112-4.55-0.226-6.824c-0.116-2.273-0.193-4.574-0.228-6.902     c-0.01-0.527-0.019-1.203-0.033-2.024c-0.012-0.82,0.014-1.668,0.08-2.543c0.065-0.875,0.145-1.71,0.238-2.505     c0.092-0.794,0.267-1.433,0.526-1.914c0.511-1.119,1.699-2.196,3.561-3.231c1.863-1.034,3.91-1.953,6.149-2.757     c2.236-0.803,4.423-1.445,6.56-1.93c2.135-0.482,3.731-0.734,4.791-0.75c2.698-0.043,5.088,0.423,7.165,1.395     c2.081,0.975,3.82,2.31,5.224,4.007c1.404,1.697,2.467,3.665,3.19,5.904C356.376,262.467,356.759,264.83,356.798,267.316z      M342.131,268.658c-0.022-1.375-0.355-2.415-1.002-3.119c-0.646-0.705-1.684-1.045-3.112-1.021     c-1.059,0.017-2.127,0.219-3.205,0.606c-1.079,0.388-2.065,0.826-2.958,1.318c0.278,4.175,0.423,8.33,0.436,12.456     c1.105-0.387,2.236-0.881,3.391-1.481c1.152-0.599,2.214-1.331,3.18-2.194c0.965-0.86,1.758-1.827,2.376-2.895     C341.856,271.257,342.153,270.035,342.131,268.658z"/>
		</g>
		<g>
			<path style="fill:#FFE7DE;" d="M431.39,291.259c-1.226,6.39-0.753,13.097,1.357,19.251c0.75,2.187,1.728,4.345,3.292,6.048     c1.564,1.703,3.792,2.908,6.102,2.814c2.479-0.101,4.734-1.694,6.099-3.766c1.365-2.072,1.942-4.571,2.171-7.042     c0.645-6.978-1.597-16.262-6.5-21.576C439.131,281.809,432.705,284.405,431.39,291.259z"/>
			<path style="fill:#FFE7DE;" d="M433.151,349.763c-0.269,5.75,0.311,12.14,4.47,16.12c0.853,0.816,1.856,1.511,2.995,1.824     c2.22,0.61,4.651-0.35,6.305-1.952c1.654-1.602,2.653-3.756,3.441-5.92c2.883-7.915,5.612-25.754-2.141-32.265     C437.753,318.78,433.418,344.054,433.151,349.763z"/>
		</g>
		<g>
			<path style="fill:#FFE7DE;" d="M381.75,132.054c-0.719,0.684-1.044,1.708-1.041,2.7c0.002,0.992,0.302,1.96,0.678,2.878     c1.295,3.157,3.561,5.908,6.412,7.785c0.344,0.226,0.711,0.446,1.12,0.494c0.772,0.092,1.507-0.473,1.837-1.176     c0.33-0.704,0.332-1.514,0.267-2.289C390.775,139.5,386.107,127.909,381.75,132.054z"/>
			<path style="fill:#FFE7DE;" d="M396.071,151.995c-0.468,1.146-0.229,2.451,0.099,3.644c1.233,4.48,3.826,8.791,7.894,11.036     c0.848,0.468,1.774,0.846,2.743,0.878c0.969,0.032,1.988-0.331,2.566-1.109c0.467-0.629,0.598-1.445,0.613-2.229     c0.08-4.013-2.499-7.65-5.615-10.18C402.69,152.67,397.468,148.576,396.071,151.995z"/>
		</g>
		<g>
			<polygon style="fill:#FFC666;" points="259.035,367.848 265.513,326.817 281.35,361.369 322.38,357.77 295.746,382.964      307.983,414.636 274.871,395.921 248.957,426.154 252.556,388.723 220.164,380.085    "/>
			<polygon style="fill:#FFC666;" points="83.397,142.301 89.875,101.271 105.711,135.823 146.742,132.224 120.108,157.418      132.345,189.09 99.233,170.375 73.319,200.607 76.918,163.176 44.526,154.538    "/>
			<polygon style="fill:#FFC666;" points="331.018,56.882 337.496,15.851 353.332,50.403 394.363,46.804 367.729,71.998      379.966,103.671 346.854,84.955 320.94,115.188 324.539,77.757 292.147,69.119    "/>
		</g>
	</g>
	<g>
		<path style="fill:#FFE7DE;" d="M208.868,419.599c6.267-0.369,12.534-0.913,18.801-1.952c-6.267-1.039-12.534-1.582-18.801-1.951    c-3.158-0.201-6.317-0.323-9.475-0.404c-1.678-0.043-3.276-0.721-4.463-1.908l-0.109-0.109c-1.199-1.199-1.877-2.817-1.906-4.513    c-0.07-4.16-0.205-8.32-0.47-12.48c-0.369-6.267-0.913-12.534-1.952-18.801c-1.039,6.267-1.582,12.534-1.951,18.801    c-0.252,3.945-0.383,7.89-0.456,11.835c-0.031,1.692-0.71,3.307-1.906,4.503l-0.753,0.753c-1.188,1.188-2.789,1.866-4.469,1.908    c-3.231,0.08-6.875,0.809-10.106,1.014c-6.267,0.368-11.862,0.724-18.387,1.352c6.887,0.822,12.029,0.997,18.297,1.365    c3.302,0.21,7.109,0.926,10.411,1.005c1.681,0.04,3.284,0.718,4.473,1.908l0.647,0.647c1.169,1.169,1.84,2.737,1.9,4.389    c0.084,2.308,0.196,4.616,0.343,6.924c0.368,6.267,0.914,12.534,1.959,18.801c1.045-6.267,1.591-12.534,1.959-18.801    c0.16-2.521,0.274-5.043,0.358-7.564c0.055-1.658,0.728-3.232,1.901-4.405l0,0c1.188-1.188,2.787-1.866,4.467-1.908    C202.408,419.927,205.638,419.805,208.868,419.599z"/>
		<path style="fill:#FFE7DE;" d="M240.764,350.606c4.172-0.246,8.345-0.608,12.518-1.299c-4.172-0.692-8.345-1.053-12.518-1.299    c-2.103-0.134-4.206-0.215-6.309-0.269c-1.117-0.029-2.181-0.48-2.971-1.27l-0.073-0.073c-0.798-0.798-1.25-1.876-1.269-3.005    c-0.047-2.77-0.136-5.539-0.313-8.309c-0.246-4.173-0.608-8.345-1.299-12.518c-0.692,4.173-1.053,8.345-1.299,12.518    c-0.168,2.627-0.255,5.253-0.304,7.88c-0.021,1.127-0.472,2.202-1.269,2.998l-0.502,0.502c-0.791,0.791-1.857,1.242-2.976,1.27    c-2.151,0.053-4.578,0.539-6.729,0.675c-4.173,0.245-7.898,0.482-12.242,0.9c4.586,0.547,8.009,0.664,12.182,0.909    c2.199,0.139,4.733,0.617,6.932,0.669c1.119,0.027,2.186,0.478,2.978,1.27l0.431,0.431c0.778,0.778,1.225,1.822,1.265,2.922    c0.056,1.537,0.131,3.073,0.228,4.61c0.245,4.173,0.608,8.345,1.304,12.518c0.696-4.173,1.059-8.345,1.304-12.518    c0.107-1.679,0.183-3.357,0.238-5.036c0.037-1.104,0.485-2.152,1.265-2.933l0,0c0.791-0.791,1.856-1.242,2.974-1.27    C236.463,350.824,238.614,350.743,240.764,350.606z"/>
		<path style="fill:#FFE7DE;" d="M284.988,149.479c4.173-0.246,8.345-0.608,12.518-1.299c-4.172-0.692-8.345-1.053-12.518-1.299    c-2.103-0.134-4.205-0.215-6.308-0.269c-1.117-0.029-2.181-0.48-2.971-1.27l-0.073-0.073c-0.798-0.798-1.25-1.876-1.269-3.005    c-0.047-2.77-0.136-5.539-0.313-8.309c-0.246-4.173-0.608-8.345-1.299-12.518c-0.692,4.173-1.053,8.345-1.299,12.518    c-0.168,2.627-0.255,5.253-0.304,7.88c-0.021,1.127-0.472,2.201-1.269,2.998l-0.502,0.502c-0.791,0.791-1.857,1.242-2.975,1.27    c-2.151,0.053-4.578,0.538-6.729,0.675c-4.173,0.245-7.898,0.482-12.242,0.9c4.586,0.547,8.009,0.664,12.182,0.909    c2.199,0.139,4.733,0.617,6.932,0.669c1.119,0.027,2.186,0.478,2.978,1.27l0.431,0.431c0.778,0.778,1.225,1.822,1.265,2.922    c0.056,1.537,0.131,3.073,0.228,4.61c0.245,4.173,0.608,8.345,1.304,12.518c0.696-4.173,1.059-8.345,1.304-12.518    c0.107-1.679,0.183-3.357,0.238-5.036c0.037-1.104,0.485-2.152,1.265-2.933l0,0c0.791-0.791,1.856-1.242,2.974-1.27    C280.688,149.698,282.838,149.616,284.988,149.479z"/>
		<path style="fill:#FFE7DE;" d="M398.469,243.621c4.172-0.246,8.345-0.608,12.518-1.299c-4.173-0.692-8.345-1.053-12.518-1.299    c-2.103-0.134-4.206-0.215-6.309-0.269c-1.117-0.029-2.181-0.48-2.971-1.27l-0.073-0.073c-0.798-0.798-1.25-1.876-1.269-3.005    c-0.046-2.77-0.136-5.539-0.313-8.309c-0.246-4.173-0.608-8.345-1.299-12.518c-0.692,4.173-1.053,8.345-1.299,12.518    c-0.168,2.627-0.255,5.253-0.304,7.88c-0.021,1.127-0.472,2.201-1.269,2.998l-0.502,0.502c-0.791,0.791-1.857,1.242-2.975,1.27    c-2.151,0.053-4.578,0.539-6.729,0.675c-4.173,0.245-7.897,0.482-12.242,0.9c4.586,0.547,8.009,0.664,12.182,0.909    c2.198,0.14,4.733,0.617,6.931,0.669c1.12,0.027,2.186,0.478,2.978,1.27l0.431,0.431c0.778,0.778,1.225,1.822,1.265,2.922    c0.056,1.537,0.131,3.073,0.228,4.61c0.245,4.173,0.608,8.345,1.304,12.518c0.696-4.173,1.059-8.345,1.304-12.518    c0.107-1.679,0.183-3.357,0.238-5.036c0.036-1.104,0.485-2.152,1.265-2.933l0,0c0.791-0.791,1.856-1.242,2.974-1.27    C394.168,243.84,396.319,243.758,398.469,243.621z"/>
		<path style="fill:#FFE7DE;" d="M170.905,329.824c4.173-0.246,8.345-0.608,12.518-1.299c-4.173-0.692-8.345-1.053-12.518-1.299    c-2.103-0.134-4.206-0.215-6.308-0.269c-1.117-0.029-2.181-0.48-2.971-1.27l-0.073-0.073c-0.798-0.798-1.25-1.876-1.269-3.005    c-0.046-2.77-0.136-5.539-0.313-8.309c-0.246-4.173-0.608-8.345-1.299-12.518c-0.692,4.173-1.053,8.345-1.299,12.518    c-0.168,2.627-0.255,5.253-0.304,7.88c-0.021,1.127-0.472,2.201-1.269,2.998l-0.502,0.502c-0.791,0.791-1.857,1.243-2.975,1.27    c-2.151,0.053-4.578,0.538-6.729,0.675c-4.173,0.245-7.898,0.482-12.242,0.9c4.586,0.547,8.009,0.664,12.182,0.909    c2.199,0.14,4.733,0.617,6.932,0.669c1.119,0.027,2.186,0.478,2.978,1.27l0.431,0.431c0.778,0.778,1.225,1.822,1.265,2.922    c0.056,1.536,0.131,3.073,0.228,4.61c0.245,4.173,0.608,8.345,1.304,12.518c0.696-4.173,1.059-8.345,1.304-12.518    c0.107-1.679,0.183-3.357,0.239-5.036c0.037-1.104,0.485-2.152,1.265-2.933l0,0c0.791-0.791,1.856-1.242,2.974-1.27    C166.604,330.042,168.754,329.961,170.905,329.824z"/>
	</g>
</g>















</svg>
