<?xml version="1.0" encoding="UTF-8"?>
<!-- Generator: Adobe Illustrator 27.2.0, SVG Export Plug-In . SVG Version: 6.00 Build 0)  -->
<svg xmlns="http://www.w3.org/2000/svg" xmlns:xlink="http://www.w3.org/1999/xlink" version="1.1" id="Capa_1" x="0px" y="0px" viewBox="0 0 512 512" style="enable-background:new 0 0 512 512;" xml:space="preserve" width="512" height="512">
<g>
	<g>
		<path style="fill:#FFFFFF;" d="M227.167,512c-23.576,0-36.71-19.397-41.382-37.56c-0.489-0.779-0.904-1.614-1.232-2.498    c-0.662-1.804-0.924-3.656-0.832-5.458l-3.991-13.195l-0.732-1.81c-1.763-4.374-3.427-8.505-5.526-11.961    c-6.516-10.724-19.289-18.708-40.198-25.128c-3.761-1.156-7.568-2.233-11.376-3.313c-15.54-4.405-31.609-8.96-45.973-18.661    c-24.361-16.453-39.859-45.911-41.459-78.8c-1.287-26.493,5.962-54.598,21.545-83.535c12.554-23.312,29.974-43.808,51.836-60.996    l0.072-1.161c0.419-6.826,6.077-12.14,12.906-12.14c0.031,0,0.061,0,0.092,0c1.526,0.01,2.991,0.286,4.351,0.783    c-0.194-1.149-0.235-2.339-0.104-3.544c0.655-6.038,5.421-10.807,11.459-11.464l21.778-2.368    c15.874-6.84,32.464-11.953,49.422-15.233c18.189-53.053,21.965-58.724,23.425-60.917c3.131-4.702,9.627-10.308,22.797-10.308    c1.894,0,3.758,0.116,5.51,0.296c5.204-10.208,11.127-21.243,14.981-26.607c0.177-0.256,0.358-0.503,0.541-0.742    c0.049-0.068,0.1-0.136,0.152-0.202c7.076-9.214,20.413-9.408,42.51-9.729c11.868-0.173,25.319-0.367,40.171-1.877    c33.898-3.424,49.1-11.952,49.249-12.038C409.208,0.601,411.486,0,413.751,0c3.15,0,6.274,1.162,8.731,3.406    c4.222,3.859,5.351,10.065,2.859,15.213c-8.749,18.078-42.032,34.817-57.724,41.897l-4.179,27.2    c7.866,4.64,19.184,11.41,24.069,14.794c6.651,4.608,11.465,11.965,7.882,59.094c0.275,1.377,0.327,2.822,0.126,4.288l-0.044,0.32    l54.611,20.075c5.741,2.11,9.218,7.954,8.334,14.006c-0.787,5.388-4.839,9.629-10.027,10.764c0.972,2.359,1.255,5.022,0.677,7.675    l-1.281,5.877c7.814,11.877,14.181,24.307,18.984,37.06c2.412,2.619,3.683,6.176,3.378,9.833    c7.35,23.697,9.336,48.068,5.895,72.525c-6.725,47.807-35.261,93.764-76.335,122.936c-34.332,24.386-77.694,37.814-122.099,37.814    c-0.003,0-0.005,0-0.007,0c-5.771,0-11.604-0.229-17.335-0.68c-0.959-0.076-1.921-0.162-2.885-0.257l-17.382,6.281    c-0.411,0.15-0.83,0.278-1.254,0.383C234.788,511.497,230.892,512,227.167,512z"/>
	</g>
	<g>
		<g>
			<path style="fill:#A27CFF;" d="M299.632,138.879c-10.892-2.53-21.872-4.198-32.789-4.929     c-77.691-5.204-161.369,33.198-199.056,103.18c-12.696,23.576-21.313,50.03-20.013,76.775     c1.3,26.745,13.589,53.726,35.779,68.712c15.985,10.796,35.469,14.665,53.908,20.328c18.439,5.662,37.438,14.292,47.453,30.776     c5.252,8.645,7.594,18.804,12.81,27.47c12.696,21.093,39.406,29.001,63.95,30.933c45.943,3.615,93.366-8.099,130.939-34.786     c37.573-26.687,64.597-68.557,71.016-114.194C477.643,243.504,391.843,160.298,299.632,138.879z"/>
		</g>
		<g>
			<g>
				<g>
					<g>
						<g>
							<path style="fill:#2F2444;" d="M414.646,434.322l-178.648,64.557c-32.286,8.082-38.17-30.799-38.17-30.799l-79.228-261.953         l203.976-66.016l79.142,252.836l-20.088,25.967l30.39,6.944L414.646,434.322z"/>
						</g>
						<g>
							<g>
								<path style="fill:#FBEEE5;" d="M412.019,425.858c-9.074,3.384-162.487,60.477-181.173,64.227          c-1.617,0.323-3.147,0.41-4.591,0.323c-0.776-0.043-1.509-0.151-2.22-0.323c-2.371-0.517-4.461-1.595-6.272-3.039          c-0.323-0.237-0.646-0.496-0.948-0.797c-1.379-1.185-2.608-2.608-3.664-4.116c-0.237-0.302-0.431-0.604-0.647-0.927          c-0.97-1.466-1.81-2.996-2.543-4.505c-0.151-0.323-0.302-0.647-0.453-0.991c-0.776-1.681-1.379-3.319-1.875-4.785          c-0.129-0.345-0.237-0.69-0.345-1.013c-0.841-2.716-1.207-4.591-1.207-4.591l195.635-72.374l1.638,5.259l0.323,1.034          l1.53,4.893l0.323,1.013l1.552,4.914l0.323,1.034l1.53,4.893l0.302,1.013l1.207,3.858l0.323,1.034L412.019,425.858z"/>
							</g>
							<g>
								<g>
									<g>
										<path style="fill:#2F2444;" d="M403.678,399.24l-196.044,71.685c-0.129-0.345-0.237-0.69-0.345-1.013l196.066-71.706            L403.678,399.24z"/>
									</g>
								</g>
								<g>
									<g>
										<path style="fill:#2F2444;" d="M405.532,405.146l-195.57,71.555c-0.151-0.323-0.302-0.647-0.453-0.991l195.699-71.577            L405.532,405.146z"/>
									</g>
								</g>
								<g>
									<g>
										<path style="fill:#2F2444;" d="M407.407,411.094l-194.255,71.038c-0.237-0.302-0.431-0.604-0.647-0.927l194.579-71.146            L407.407,411.094z"/>
									</g>
								</g>
								<g>
									<g>
										<path style="fill:#2F2444;" d="M410.015,416.159c0.108,0.28-0.043,0.582-0.323,0.69L409.239,417l-191.475,70.047            c-0.323-0.237-0.646-0.496-0.948-0.797l192.122-70.262l0.388-0.151C409.605,415.728,409.907,415.879,410.015,416.159z"/>
									</g>
								</g>
								<g>
									<g>
										<path style="fill:#2F2444;" d="M410.769,421.892l-184.514,68.516c-0.776-0.043-1.509-0.151-2.22-0.323l186.41-69.228            L410.769,421.892z"/>
									</g>
								</g>
							</g>
						</g>
						<g>
							<path style="fill:#EBB1FF;" d="M211.591,462.278c-0.346,0-0.666-0.224-0.772-0.571         c-0.792-2.575-79.228-257.487-79.785-259.167c-0.141-0.423,0.088-0.881,0.512-1.022c0.427-0.142,0.881,0.088,1.022,0.511         c0.547,1.641,76.561,248.686,79.797,259.202c0.131,0.427-0.108,0.879-0.535,1.01         C211.749,462.266,211.669,462.278,211.591,462.278z"/>
						</g>
						<g>
							<path style="fill:#EBB1FF;" d="M197.827,468.888c-0.329,0-0.638-0.203-0.759-0.529c-0.154-0.418,0.061-0.883,0.479-1.038         l203.89-75.133c0.417-0.156,0.883,0.06,1.038,0.479c0.154,0.418-0.061,0.883-0.479,1.038l-203.89,75.133         C198.015,468.872,197.92,468.888,197.827,468.888z"/>
						</g>
					</g>
					<g>
						<g>
							<g>
								<g>
									<path style="fill:#EBB1FF;" d="M211.702,208.341l-1.831,16.245c-0.002,0.082-0.021,0.196-0.057,0.259l-0.019,0.034           c-0.008,0.057-0.044,0.12-0.08,0.184c0.015,0.049-0.008,0.056-0.002,0.081c-0.044,0.04-0.103,0.111-0.137,0.175           l-0.025,0.007c-0.061,0.072-0.088,0.161-0.179,0.216l-0.025,0.006c0,0-0.025,0.008-0.019,0.032           c-0.048,0.015-0.116,0.062-0.183,0.108c-0.025,0.007-0.051,0.014-0.051,0.014c-0.065,0.047-0.141,0.069-0.24,0.099           c-0.074,0.021-0.149,0.044-0.229,0.04c-0.05,0.015-0.076,0.021-0.076,0.021c-0.082-0.002-0.139-0.013-0.189,0.002           c-0.032-0.017-0.032-0.017-0.055-0.01c-0.107,0.003-0.204-0.049-0.267-0.083c-0.025,0.006-0.025,0.006-0.025,0.006           c-0.09-0.027-0.154-0.062-0.21-0.072c-0.031-0.019-0.031-0.019-0.072-0.061c-0.038-0.042-0.103-0.076-0.141-0.119           c-0.05,0.015-0.059-0.01-0.059-0.01c-0.063-0.035-0.118-0.126-0.164-0.195l-5.506-6.733l-0.991,8.642           c-0.002,0.082-0.023,0.196-0.034,0.253c-0.025,0.007-0.019,0.033-0.019,0.033c-0.034,0.064-0.069,0.127-0.103,0.191           c0.015,0.049-0.011,0.058-0.004,0.083c-0.042,0.038-0.078,0.102-0.112,0.166c-0.05,0.015-0.05,0.015-0.05,0.015           c-0.059,0.072-0.112,0.167-0.154,0.207c-0.025,0.007-0.025,0.007-0.025,0.007s-0.025,0.007-0.019,0.032           c-0.097,0.029-0.139,0.068-0.181,0.107c-0.025,0.007-0.05,0.015-0.076,0.022c-0.067,0.047-0.141,0.068-0.215,0.09           c-0.076,0.022-0.175,0.051-0.257,0.047c-0.025,0.007-0.051,0.015-0.074,0.022c-0.082-0.002-0.139-0.014-0.187,0.001           c-0.034-0.017-0.034-0.017-0.057-0.008c-0.082-0.004-0.204-0.049-0.267-0.084c-0.025,0.006-0.025,0.006-0.025,0.006           c-0.088-0.027-0.128-0.07-0.21-0.072c-0.032-0.018-0.032-0.018-0.072-0.06c-0.063-0.035-0.103-0.077-0.168-0.113           l-0.006-0.025c-0.065-0.034-0.118-0.126-0.189-0.186l-10.349-12.667c-0.467-0.589-0.41-1.496,0.227-1.981           c0.583-0.495,1.497-0.413,1.974,0.202l8.232,10.057l0.964-8.555c0.063-0.61,0.495-1.061,1.042-1.222           c0.522-0.153,1.128-0.007,1.536,0.465l5.437,6.674l1.463-12.903c0.093-0.782,0.794-1.338,1.6-1.251           C211.241,206.859,211.803,207.584,211.702,208.341z"/>
								</g>
								<g>
									<path style="fill:#EBB1FF;" d="M217.391,205.916c-0.225-0.77,0.196-1.541,0.964-1.766c0.743-0.219,1.564,0.187,1.791,0.957           l4.296,14.632c0.225,0.77-0.244,1.554-0.987,1.773c-0.77,0.225-1.541-0.194-1.766-0.964L217.391,205.916z"/>
								</g>
								<g>
									<path style="fill:#EBB1FF;" d="M238.291,201.287l-3.944,1.159l3.89,13.243c0.225,0.77-0.196,1.539-0.962,1.765           c-0.745,0.218-1.541-0.195-1.766-0.965l-3.89-13.243l-3.919,1.151c-0.768,0.225-1.553-0.244-1.77-0.988           c-0.227-0.769,0.194-1.54,0.962-1.765l10.589-3.111c0.745-0.219,1.541,0.196,1.766,0.964           C239.466,200.242,239.034,201.069,238.291,201.287z"/>
								</g>
								<g>
									<path style="fill:#EBB1FF;" d="M245.772,205.258c-1.417-4.918,1.528-10.12,6.481-11.602           c2.183-0.641,4.378-0.505,6.297,0.253c0.741,0.321,1.095,1.16,0.831,1.911c-0.314,0.765-1.204,1.133-1.905,0.856           c-1.353-0.572-2.856-0.644-4.395-0.191c-1.711,0.502-3.094,1.663-3.94,3.096c-0.781,1.468-1.038,3.161-0.543,4.847           c0.497,1.687,1.642,3.021,3.079,3.784c1.486,0.748,3.277,0.977,4.988,0.475c1.539-0.451,2.738-1.317,3.593-2.537           c0.446-0.589,1.393-0.759,2.065-0.309c0.627,0.488,0.791,1.41,0.335,2.056c-1.206,1.675-2.98,2.976-5.161,3.618           C252.536,212.971,247.247,210.187,245.772,205.258z"/>
								</g>
								<g>
									<path style="fill:#EBB1FF;" d="M270.379,206.249l-4.298-14.632c-0.225-0.768,0.194-1.539,0.962-1.765           c0.768-0.226,1.564,0.188,1.791,0.957l1.747,5.952l6.424-1.886l-1.747-5.952c-0.227-0.77,0.194-1.541,0.964-1.766           c0.766-0.225,1.562,0.187,1.789,0.958l4.296,14.632c0.225,0.77-0.219,1.547-0.987,1.772           c-0.77,0.225-1.541-0.194-1.766-0.964l-1.749-5.952l-6.424,1.886l1.749,5.952c0.225,0.77-0.219,1.547-0.987,1.773           C271.372,207.44,270.604,207.019,270.379,206.249z"/>
								</g>
							</g>
							<g>
								<path style="fill:#EBB1FF;" d="M264.418,416.323c-0.44,0-0.853-0.272-1.013-0.71c-0.203-0.559,0.085-1.178,0.645-1.381          l78.69-28.615c0.558-0.205,1.178,0.085,1.381,0.645c0.203,0.559-0.085,1.178-0.645,1.381l-78.691,28.615          C264.665,416.302,264.54,416.323,264.418,416.323z"/>
							</g>
						</g>
						<path style="fill:#EBB1FF;" d="M304.734,262.437c-10.868-11.079-25.218-17.315-40.406-17.56        c-0.304-0.005-0.608-0.007-0.91-0.007c-29.978,0-53.992,23.826-54.751,53.964c0,0.001,0,0.001,0,0.001c0,0,0,0.001,0,0.001        c-0.02,0.784-0.035,1.569-0.023,2.361c0.231,15.216,6.284,29.636,17.044,40.603c10.868,11.079,25.218,17.315,40.405,17.559        c0.306,0.005,0.606,0.007,0.911,0.007c19.139,0,35.849-9.715,45.63-24.582c0.151-0.037,0.288-0.122,0.38-0.257        c0.101-0.147,0.128-0.326,0.101-0.499c5.635-8.875,8.838-19.512,8.663-30.988        C321.547,287.825,315.493,273.405,304.734,262.437z M264.374,246.28c14.815,0.238,28.812,6.32,39.411,17.124        c2.199,2.241,4.182,4.637,5.968,7.15l-36.163,9.931l-23.983-32.399c4.42-1.18,9.069-1.814,13.878-1.814        C263.779,246.273,264.079,246.275,264.374,246.28z M249.49,311.854l-37.761-12.911l37.298-10.242L249.49,311.854z         M250.904,313.796l23.374,7.992l-22.569,32.204L250.904,313.796z M250.874,312.328l-0.48-24.002l22.701-6.234l14.898,20.124        l-12.892,18.396L250.874,312.328z M249.636,250.399l22.556,30.471l-21.826,5.993L249.636,250.399z M288.882,303.416        l21.712,29.33l-34.098-11.658L288.882,303.416z M274.495,281.707l34.514-9.478l-20.197,28.819L274.495,281.707z         M248.222,248.485l0.775,38.754l-38.923,10.688C211.093,274.309,226.764,254.844,248.222,248.485z M210.019,301.244        c-0.007-0.477,0.009-0.948,0.014-1.423l39.487,13.501l0.843,42.11c-8.842-2.76-16.975-7.716-23.726-14.597        C216.146,330.141,210.245,316.081,210.019,301.244z M266.937,357.965c-0.295,0-0.593-0.003-0.891-0.007        c-4.772-0.077-9.456-0.768-13.973-2.02l23.599-33.674l35.509,12.141C301.596,348.668,285.433,357.965,266.937,357.965z         M312.262,332.725L289.7,302.248l21.129-30.148c6.061,9.142,9.404,19.8,9.573,30.893        C320.569,313.975,317.563,324.167,312.262,332.725z"/>
					</g>
				</g>
				<g>
					<g>
						<g>
							<polygon style="fill:#FFC945;" points="416.35,254.518 436.823,216.898 427.703,258.746 457.65,271.351 427.977,270.686          425.061,300.066 416.487,271.019 382.018,282.549 407.639,261.624 388.927,243.616        "/>
						</g>
						<g>
							<polygon style="fill:#FFC945;" points="104.23,330.709 82.985,293.519 113.794,323.273 140.257,304.42 124.096,329.315          147.558,347.238 118.34,339.265 110.032,374.649 105.697,341.854 80.542,348.309        "/>
						</g>
					</g>
					<g>
						<polygon style="fill:#FBEEE5;" points="119.073,204.658 121.218,169.633 122.885,204.897 131.701,197.748 126.46,206.088         145.283,208.471 126.936,210.853 132.178,218.24 123.362,213.474 120.979,243.973 119.073,213.951 110.019,217.763         115.737,210.853 92.864,207.756 115.499,206.803 110.257,198.94       "/>
					</g>
					<g>
						<polygon style="fill:#FBEEE5;" points="381.999,354.593 384.144,319.568 385.812,354.831 394.628,347.683 389.386,356.022         408.209,358.405 389.862,360.788 395.104,368.174 386.288,363.409 383.905,393.907 381.999,363.885 372.945,367.698         378.663,360.788 355.79,357.69 378.425,356.737 373.183,348.875       "/>
					</g>
				</g>
			</g>
			<g>
				<g>
					<g>
						<g>
							<path style="fill:#2F2444;" d="M446.013,199.342c0,0-52.826,3.319-154.081-11.552         c-101.255-14.85-153.521-32.458-153.521-32.458l75.93-8.255c0,0,22.566-67.697,28.062-75.952         c5.496-8.255,24.764-2.737,24.764-2.737s0.302-0.625,0.841-1.703c2.931-5.884,12.716-25.346,17.522-31.941         c0.108-0.172,0.237-0.323,0.345-0.474c5.496-7.156,35.778-2.759,73.732-6.617c37.976-3.836,54.485-13.751,54.485-13.751         C405.3,32.071,356.31,52.417,356.31,52.417l-6.595,42.933c0,0,23.665,13.75,30.821,18.708         c7.155,4.957,1.099,61.619,1.099,61.619L446.013,199.342z"/>
						</g>
						<g style="opacity:0.35;">
							<path style="fill:#A27CFF;" d="M446.013,199.342c0,0-52.826,3.319-154.081-11.552         c-101.255-14.85-153.521-32.458-153.521-32.458l75.93-8.255c0,0,22.566-67.697,28.062-75.952         c5.496-8.255,24.764-2.737,24.764-2.737s0.302-0.625,0.841-1.703c2.931-5.884,12.716-25.346,17.522-31.941         c0.108-0.172,0.237-0.323,0.345-0.474c5.496-7.156,35.778-2.759,73.732-6.617c37.976-3.836,54.485-13.751,54.485-13.751         C405.3,32.071,356.31,52.417,356.31,52.417l-6.595,42.933c0,0,23.665,13.75,30.821,18.708         c7.155,4.957,1.099,61.619,1.099,61.619L446.013,199.342z"/>
						</g>
					</g>
					<g>
						<polygon style="fill:#2F2444;" points="349.712,95.347 281.477,110.021 356.683,100.116       "/>
					</g>
					<g>
						<polygon style="fill:#2F2444;" points="356.316,52.424 318.53,55.726 354.848,60.862       "/>
					</g>
					<g>
						<path style="fill:#2F2444;" d="M285.531,34.744l-4.138,33.45l-13.384-1.509C270.94,60.801,280.724,41.339,285.531,34.744z"/>
					</g>
				</g>
				<g>
					<polygon style="fill:#FFC945;" points="214.342,147.077 381.635,175.678 383.096,165.049 216.544,136.434      "/>
				</g>
			</g>
		</g>
	</g>
</g>















</svg>
