<svg height="511pt" viewBox="-105 1 511 511.99999" width="511pt" xmlns="http://www.w3.org/2000/svg"><path d="m224.589844 197.574219c43.957031-9.882813 75.910156-48.980469 75.910156-95.074219 0-4.140625-3.359375-7.5-7.5-7.5-4.144531 0-7.5 3.359375-7.5 7.5 0 39.8125-28.160156 73.460938-66.542969 80.9375-3.753906-10.722656-13.96875-18.4375-25.957031-18.4375h-70c-12.5625 0-23.179688 8.472656-26.453125 20h-51.046875v-15h22.5c4.140625 0 7.5-3.359375 7.5-7.5 0-4.144531-3.359375-7.5-7.5-7.5h-7.5v-132.5c0-1.988281-.789062-3.898438-2.195312-5.304688l-15-15c-2.929688-2.925781-7.679688-2.925781-10.609376 0l-15 15c-1.40625 1.40625-2.195312 3.316407-2.195312 5.304688v132.5h-7.5c-4.140625 0-7.5 3.355469-7.5 7.5 0 4.140625 3.359375 7.5 7.5 7.5h22.5v15h-7.5c-12.40625 0-22.5 10.09375-22.5 22.5s10.09375 22.5 22.5 22.5h15c4.140625 0 7.5-3.359375 7.5-7.5v-22.5h44.835938l-62.675782 141.507812c-8.070312 18.210938-12.160156 37.613282-12.160156 57.660157 0 3.683593 2.675781 6.820312 6.308594 7.40625 28.417968 4.566406 44.480468 10.667969 58.652344 16.046875 12.3125 4.675781 23.582031 8.953125 40.039062 11.527344v54.945312l-24.871094 8.289062c-3.929687 1.308594-6.054687 5.558594-4.746094 9.488282 1.050782 3.140625 3.976563 5.128906 7.113282 5.128906.789062 0 1.585937-.125 2.375-.386719l30-10c3.0625-1.019531 5.128906-3.886719 5.128906-7.113281v-58.632812c6.644531.515624 14.058594.800781 22.5.800781 8.4375 0 15.851562-.285157 22.5-.800781v58.632812c0 3.226562 2.0625 6.09375 5.125 7.113281l30 10c.789062.261719 1.589844.386719 2.375.386719 3.140625 0 6.066406-1.988281 7.113281-5.128906 1.308594-3.929688-.8125-8.179688-4.742187-9.488282l-24.871094-8.289062v-54.945312c16.453125-2.574219 27.726562-6.851563 40.035156-11.527344 14.175782-5.382813 30.234375-11.480469 58.652344-16.046875 3.636719-.585938 6.308594-3.722657 6.308594-7.40625 0-20.046875-4.089844-39.445313-12.15625-57.660157zm-194.089844-171.96875 7.5-7.5 7.5 7.5v129.394531h-15zm0 189.394531h-7.5c-4.136719 0-7.5-3.363281-7.5-7.5s3.363281-7.5 7.5-7.5h7.5zm75 160v-72.835938c0-11.6875 3.90625-22.980468 11.039062-32.164062h3.960938v82.5c0 4.140625 3.359375 7.5 7.5 7.5h60c4.140625 0 7.5-3.359375 7.5-7.5v-82.5h3.960938c7.132812 9.183594 11.039062 20.476562 11.039062 32.164062v72.835938zm45-105v75h-15v-75zm30 0v75h-15v-75zm15-15h-75v-35.121094c.824219.078125 1.65625.121094 2.5.121094 15.164062 0 27.5-12.335938 27.5-27.5 0-4.5-1.09375-8.746094-3.019531-12.5h21.035156c-1.921875 3.753906-3.015625 8-3.015625 12.5 0 15.164062 12.335938 27.5 27.5 27.5.839844 0 1.675781-.042969 2.5-.121094zm9.972656-63.039062c0 .15625.011719.3125.023438.46875 0 .023437.003906.046874.003906.070312 0 6.890625-5.609375 12.5-12.5 12.5-6.894531 0-12.5-5.609375-12.5-12.5 0-6.894531 5.605469-12.5 12.5-12.5 6.710938 0 12.1875 5.320312 12.472656 11.960938zm-82.472656-11.960938c6.890625 0 12.5 5.605469 12.5 12.5 0 6.890625-5.609375 12.5-12.5 12.5-6.894531 0-12.5-5.609375-12.5-12.5 0-6.894531 5.605469-12.5 12.5-12.5zm-37.214844 228.597656c-13.738281-5.214844-29.175781-11.078125-55.132812-15.734375.757812-15.707031 4.355468-30.910156 10.722656-45.28125l60.765625-137.195312c1.023437 1.195312 2.144531 2.304687 3.359375 3.308593v46.0625c-9.695312 11.988282-15 26.933594-15 42.40625v80.335938c0 4.140625 3.359375 7.5 7.5 7.5h22.5v28.949219c-13.699219-2.375-23.527344-6.101563-34.714844-10.351563zm72.214844 13.070313c-8.558594 0-15.949219-.296875-22.5-.839844v-30.828125h45v30.828125c-6.550781.542969-13.941406.839844-22.5.839844zm72.210938-13.070313c-11.1875 4.25-21.011719 7.976563-34.710938 10.351563v-28.949219h22.5c4.140625 0 7.5-3.359375 7.5-7.5v-80.335938c0-15.472656-5.308594-30.417968-15-42.40625v-46.0625c1.214844-1.003906 2.332031-2.113281 3.359375-3.308593l60.765625 137.195312c6.367188 14.375 9.964844 29.578125 10.722656 45.28125-25.957031 4.65625-41.394531 10.515625-55.136718 15.734375zm0 0"/><path d="m113 150c4.140625 0 7.5-3.359375 7.5-7.5v-8.308594c9.535156 9.746094 22.820312 15.808594 37.5 15.808594s27.960938-6.0625 37.5-15.808594v8.308594c0 4.140625 3.355469 7.5 7.5 7.5 4.140625 0 7.5-3.359375 7.5-7.5v-60c0-20.417969-11.851562-38.816406-30-47.425781v-27.574219c0-4.140625-3.359375-7.5-7.5-7.5h-30c-4.140625 0-7.5 3.359375-7.5 7.5v27.574219c-18.152344 8.609375-30 27.007812-30 47.425781v60c0 4.140625 3.359375 7.5 7.5 7.5zm45-15c-20.679688 0-37.5-16.824219-37.5-37.5v-7.5h75v7.5c0 20.675781-16.824219 37.5-37.5 37.5zm-7.5-120h15v22.5c0 .4375-.046875.863281-.117188 1.277344-.015624.09375-.035156.183594-.046874.273437-.71875 3.394531-3.734376 5.949219-7.335938 5.949219-3.605469 0-6.617188-2.554688-7.335938-5.945312-.011718-.097657-.03125-.191407-.046874-.285157-.074219-.414062-.117188-.835937-.117188-1.269531zm-11.199219 35c4.042969 6.023438 10.914063 10 18.699219 10s14.65625-3.976562 18.699219-10c9.308593 5.355469 15.890625 14.488281 18.039062 25h-73.476562c2.144531-10.511719 8.730469-19.640625 18.039062-25zm0 0"/></svg>