<?xml version="1.0" encoding="UTF-8"?>
<!-- Generator: Adobe Illustrator 27.3.1, SVG Export Plug-In . SVG Version: 6.00 Build 0)  -->
<svg xmlns="http://www.w3.org/2000/svg" xmlns:xlink="http://www.w3.org/1999/xlink" version="1.1" id="Capa_1" x="0px" y="0px" viewBox="0 0 512 512" style="enable-background:new 0 0 512 512;" xml:space="preserve" width="512" height="512">
<g>
	<g>
		<path style="fill:#FFFFFF;" d="M158.3,493.48c-5.062,0-10.03-0.325-14.769-0.964c-6.861-0.926-13.82-2.629-20.733-5.064    c-26.223-0.65-49.205-16.841-58.702-41.098c-2.864-3.139-5.61-6.338-8.194-9.54c-2.011-2.492-3.763-4.753-5.346-6.902    c-0.703-0.91-1.376-1.819-2.05-2.763C13.996,379.777-3.101,321.447,0.463,263.037c0.683-11.253,2.183-22.672,4.461-33.935    l0.644-3.045c10.528-48.819,35.774-94.527,71.103-128.769c27.048-26.24,61.402-47.356,99.343-61.062    c32.454-11.748,66.161-17.707,100.171-17.707c28.934,0,57.01,4.387,83.448,13.036c3.418,1.119,6.878,2.335,10.346,3.637    c8.7-4.181,18.231-6.361,28.02-6.361c35.75,0,64.833,29.085,64.833,64.835c0,1.005-0.024,2.016-0.073,3.028    c24.961,27.56,41.054,60.585,46.701,96.013c5.39,33.889,2.16,71.079-9.339,107.564c-0.1,0.331-1.047,3.239-1.047,3.239    c-16.012,48.883-45.64,91.84-83.39,120.839c-10.299,7.9-21.627,15.096-33.678,21.397c-0.991,0.527-2.073,1.095-3.158,1.614    c-3.113,1.594-6.398,3.173-10.03,4.824c-14.542,6.629-30.314,12.174-46.863,16.479c-17.567,4.585-35.3,6.626-50.544,8.18    l-6.992,0.71c-12.982,1.303-25.246,2.535-37.482,4.764c-6.217,1.126-12.409,2.5-18.964,3.957    c-15.936,3.544-32.418,7.205-49.674,7.205C158.3,493.48,158.302,493.48,158.3,493.48z"/>
	</g>
	<g>
		<g>
			<path style="fill:#302945;" d="M484.928,293.96c-0.146,0.496-0.321,0.993-0.467,1.489c-0.146,0.438-0.292,0.876-0.438,1.314     c-14.393,43.939-40.814,84.374-77.454,112.518c-9.78,7.503-20.232,14.072-31.122,19.765c-0.934,0.496-1.868,0.992-2.802,1.431     c-3.124,1.606-6.306,3.124-9.518,4.583c-14.16,6.452-49.804-53.18-64.84-49.267c-15.882,4.146-11.067,70.813-27.095,72.448     c-15.299,1.576-30.596,2.89-45.836,5.664c-25.925,4.7-51.821,13.605-77.921,10.072c-30.772-4.146-56.843-25.166-76.345-49.34     c-1.723-2.131-3.387-4.263-4.992-6.452c-0.613-0.788-1.197-1.576-1.781-2.394c-31.881-43.763-48.113-98.796-44.814-152.865     c0.642-10.598,2.044-21.137,4.146-31.531c0.204-0.964,0.409-1.927,0.613-2.89c9.751-45.223,32.903-87.585,66.156-119.816     c26.334-25.546,58.594-44.698,93.103-57.164c55.003-19.911,116.634-22.684,172.221-4.496     c68.17,22.305,126.298,73.98,137.976,147.26C499,227.512,495.059,261.875,484.928,293.96z"/>
		</g>
		<g>
			<g>
				<g>
					<g>
						<g>
							<g>
								<path style="fill:#F7EDE5;" d="M261.389,380.334c-74.055,0-134.304-60.249-134.304-134.304          c0-74.057,60.249-134.306,134.304-134.306c74.057,0,134.305,60.249,134.305,134.306          C395.695,320.085,335.446,380.334,261.389,380.334z M261.389,114.224c-72.677,0-131.804,59.127-131.804,131.805          c0,72.677,59.127,131.804,131.804,131.804c72.678,0,131.805-59.127,131.805-131.804          C393.195,173.351,334.068,114.224,261.389,114.224z"/>
							</g>
							<g>
								<path style="fill:#F7EDE5;" d="M345.945,347.15c-0.238,0-0.476-0.068-0.684-0.205l-84.791-55.552l-85.541,51.747          c-0.463,0.281-1.054,0.231-1.464-0.123c-0.409-0.354-0.545-0.931-0.336-1.43l35.315-84.281l-66.754-43.736          c-0.466-0.305-0.674-0.881-0.51-1.414c0.164-0.53,0.64-1.004,1.217-0.879l84.669,1.584l41.787-99.732          c0.202-0.482,0.694-0.777,1.203-0.765c0.522,0.021,0.975,0.365,1.138,0.861l33.045,101.08l76.828,1.437          c0.557,0.011,1.039,0.387,1.185,0.925c0.144,0.537-0.084,1.106-0.56,1.394l-63.637,38.497l29.079,88.953          c0.165,0.504-0.005,1.058-0.428,1.38C346.481,347.063,346.213,347.15,345.945,347.15z M262.841,289.959l80.809,52.943          l-27.794-85.015L262.841,289.959z M210.569,258.699l-33.653,80.316l81.236-49.141L210.569,258.699z M211.551,256.354          l48.971,32.085l54.537-32.991l-12.645-38.676l-73.7-1.38L211.551,256.354z M146.685,213.857l62.741,41.105l16.6-39.62          L146.685,213.857z M305.061,216.82l12.194,37.299l59.442-35.958L305.061,216.82z M229.754,212.911l71.839,1.344          l-31.731-97.063L229.754,212.911z"/>
							</g>
						</g>
						<g>
							<g>
								<g>
									<path style="fill:#9DD1A9;" d="M142.985,290.438l-0.003,0.041c-0.451-0.069-0.921-0.161-1.391-0.252           c-12.885-2.333-27.712-5.718-37.789-13.958c-0.256-0.202-0.532-0.426-0.766-0.648c-0.846-0.694-1.607-1.424-2.366-2.195           c-5.424-5.571-8.867-13.046-11.226-21.011c-0.086-0.274-0.173-0.549-0.24-0.801c-1.972-6.866-3.159-14.034-4.113-20.63           c-0.031-0.168-0.043-0.313-0.074-0.48c0.187-0.009,0.415-0.016,0.621-0.003c4.52-0.174,8.987,0.166,13.3,0.994           c0.266,0.037,0.511,0.094,0.775,0.173c6.74,1.371,13.052,3.978,18.702,7.908c0.24,0.139,0.457,0.297,0.675,0.456           c2.397,1.701,4.674,3.663,6.812,5.864C136.649,257.011,144.154,274.997,142.985,290.438z"/>
								</g>
							</g>
							<g>
								<g>
									<path style="fill:#302945;" d="M142.985,290.438l-0.003,0.041c-0.451-0.069-0.921-0.161-1.391-0.252           c-4.553-3.614-8.95-7.404-13.21-11.392c-0.43-0.399-0.88-0.82-1.329-1.241l-0.019-0.022c-2.284-2.19-4.526-4.377-6.7-6.664           c-0.157-0.134-0.273-0.265-0.408-0.418c-0.524-0.55-1.029-1.078-1.553-1.627c-2.406-2.549-4.746-5.156-7.026-7.739           c-0.541-0.613-1.082-1.225-1.582-1.836c-0.019-0.022-0.019-0.022-0.019-0.022c-0.676-0.766-1.311-1.53-1.968-2.274           l-3.494-4.003l-0.406-0.46l-18.783-21.544c-0.031-0.168-0.043-0.313-0.074-0.48c0.187-0.009,0.415-0.016,0.621-0.003           l16.583,19.007l2.239,2.58l0.019,0.022l3.842,4.397c3.395,3.935,6.929,7.981,10.595,11.871           c0.135,0.153,0.251,0.285,0.408,0.419c0.387,0.438,0.795,0.856,1.203,1.275l0.019,0.022           C127.521,277.374,135.059,284.194,142.985,290.438z"/>
								</g>
							</g>
							<g>
								<g>
									<path style="fill:#302945;" d="M111.708,260.607l-0.363,0.515l-0.068,0.099c-6.428-4.723-14.244-7.093-21.831-8.806           c-0.086-0.274-0.173-0.549-0.24-0.801c7.04,1.535,14.314,3.643,20.538,7.65c0,0,0,0,0.019,0.022           C110.421,259.679,111.074,260.154,111.708,260.607z"/>
								</g>
							</g>
							<g>
								<g>
									<path style="fill:#302945;" d="M99.714,231.668c0.232,3.924,0.754,7.824,1.528,11.658c0.595,3.057,1.411,6.231,3.238,8.786           c0.094,0.151,0.208,0.323,0.323,0.454l-0.522,0.423l-0.044,0.038c-0.135-0.153-0.249-0.326-0.343-0.476           c-0.686-0.953-1.222-1.959-1.672-3.041c-0.81-1.933-1.303-3.99-1.713-6.043c-0.789-3.938-1.303-7.962-1.571-11.971           C99.205,231.532,99.45,231.589,99.714,231.668z"/>
								</g>
							</g>
							<g>
								<g>
									<path style="fill:#302945;" d="M119.091,240.031c-0.68,6.597-0.821,13.187-0.446,19.787           c0.199,3.446,0.574,7.048,1.904,10.275c0.069,0.211,0.161,0.403,0.253,0.595l-0.469,0.219l-0.192,0.092           c-0.072-0.17-0.144-0.34-0.217-0.51c-0.255-0.553-0.447-1.124-0.598-1.692c-0.938-2.871-1.24-5.993-1.409-8.92           c-0.386-6.746-0.21-13.561,0.499-20.301C118.656,239.715,118.874,239.873,119.091,240.031z"/>
								</g>
							</g>
							<g>
								<g>
									<path style="fill:#302945;" d="M128.608,278.517l-0.227,0.317l-0.183,0.278c-3.309-2.336-7.543-2.766-11.974-3.021           c-4.266-0.245-8.436-0.381-12.422,0.178c-0.256-0.202-0.532-0.426-0.766-0.648c4.24-0.667,8.679-0.535,13.212-0.253           c3.896,0.222,7.638,0.579,10.784,2.203l0.019,0.022C127.594,277.855,128.112,278.176,128.608,278.517z"/>
								</g>
							</g>
						</g>
						<g>
							<g>
								<g>
									<path style="fill:#9DD1A9;" d="M112.793,217.083l-0.04,0.009c-0.059-0.452-0.102-0.929-0.145-1.406           c-1.345-13.026-2.221-28.209,2.888-40.181c0.123-0.302,0.261-0.63,0.409-0.916c0.431-1.006,0.92-1.94,1.45-2.884           c3.841-6.76,10.062-12.148,17.056-16.63c0.24-0.159,0.479-0.319,0.703-0.453c6.046-3.805,12.601-6.941,18.67-9.693           c0.152-0.076,0.289-0.128,0.441-0.204c0.061,0.177,0.13,0.394,0.175,0.596c1.425,4.293,2.341,8.678,2.747,13.051           c0.038,0.267,0.052,0.517,0.05,0.793c0.559,6.856-0.188,13.643-2.39,20.164c-0.067,0.269-0.158,0.522-0.25,0.775           c-0.966,2.775-2.217,5.509-3.736,8.175C143.135,201.693,127.948,213.908,112.793,217.083z"/>
								</g>
							</g>
							<g>
								<g>
									<path style="fill:#302945;" d="M112.793,217.083l-0.04,0.009c-0.059-0.452-0.102-0.929-0.145-1.406           c2.204-5.379,4.62-10.657,7.266-15.86c0.264-0.525,0.543-1.073,0.822-1.622l0.016-0.025           c1.468-2.803,2.945-5.566,4.536-8.29c0.085-0.188,0.179-0.336,0.288-0.509c0.382-0.657,0.749-1.288,1.131-1.945           c1.779-3.021,3.632-5.994,5.478-8.903c0.438-0.69,0.876-1.38,1.323-2.03c0.015-0.025,0.015-0.025,0.015-0.025           c0.548-0.863,1.104-1.685,1.636-2.523l2.872-4.47l0.329-0.518l15.465-24.038c0.152-0.076,0.289-0.128,0.441-0.204           c0.061,0.177,0.13,0.394,0.175,0.596l-13.641,21.218l-1.855,2.868l-0.015,0.025l-3.154,4.914           c-2.834,4.356-5.738,8.876-8.453,13.481c-0.11,0.173-0.203,0.32-0.288,0.508c-0.313,0.493-0.601,1.002-0.889,1.51           l-0.016,0.025C121.036,198.593,116.583,207.732,112.793,217.083z"/>
								</g>
							</g>
							<g>
								<g>
									<path style="fill:#302945;" d="M132.739,178.738l-0.596-0.205l-0.114-0.038c2.747-7.489,2.848-15.655,2.382-23.42           c0.24-0.159,0.479-0.319,0.703-0.453c0.485,7.189,0.485,14.762-1.632,21.856c0,0,0,0-0.015,0.025           C133.272,177.244,132.997,178.003,132.739,178.738z"/>
								</g>
							</g>
							<g>
								<g>
									<path style="fill:#302945;" d="M157.196,159.164c-3.704,1.314-7.305,2.902-10.771,4.712           c-2.77,1.423-5.592,3.09-7.537,5.555c-0.119,0.132-0.253,0.289-0.347,0.437l-0.551-0.385l-0.049-0.031           c0.11-0.173,0.244-0.329,0.362-0.462c0.724-0.923,1.541-1.719,2.456-2.453c1.631-1.316,3.47-2.362,5.327-3.327           c3.563-1.854,7.285-3.468,11.06-4.841C157.185,158.638,157.198,158.889,157.196,159.164z"/>
								</g>
							</g>
							<g>
								<g>
									<path style="fill:#302945;" d="M154.556,180.103c-6.526,1.183-12.894,2.881-19.13,5.078           c-3.255,1.15-6.609,2.513-9.338,4.689c-0.183,0.126-0.342,0.267-0.501,0.408l-0.341-0.389l-0.141-0.159           c0.143-0.117,0.286-0.233,0.429-0.35c0.461-0.399,0.955-0.742,1.459-1.045c2.497-1.7,5.411-2.859,8.175-3.836           c6.372-2.249,12.967-3.976,19.638-5.171C154.739,179.597,154.648,179.85,154.556,180.103z"/>
								</g>
							</g>
							<g>
								<g>
									<path style="fill:#302945;" d="M120.24,199.956l-0.367-0.13l-0.318-0.098c1.323-3.828,0.557-8.014-0.431-12.342           c-0.952-4.166-1.982-8.209-3.628-11.881c0.123-0.302,0.261-0.63,0.409-0.916c1.821,3.887,2.929,8.187,3.92,12.62           c0.871,3.803,1.57,7.497,0.886,10.971l-0.016,0.025C120.595,198.797,120.429,199.384,120.24,199.956z"/>
								</g>
							</g>
						</g>
						<g>
							<g>
								<g>
									<path style="fill:#9DD1A9;" d="M164.432,153.406l-0.038,0.016c-0.14-0.434-0.269-0.895-0.398-1.356           c-3.69-12.564-7.309-27.336-4.46-40.037c0.066-0.32,0.143-0.667,0.236-0.975c0.241-1.067,0.553-2.075,0.902-3.099           c2.549-7.345,7.687-13.774,13.751-19.452c0.206-0.2,0.413-0.4,0.608-0.573c5.254-4.84,11.13-9.114,16.598-12.923           c0.136-0.103,0.261-0.178,0.396-0.281c0.092,0.163,0.2,0.364,0.281,0.554c2.181,3.963,3.879,8.109,5.073,12.335           c0.086,0.255,0.145,0.499,0.193,0.77c1.795,6.64,2.294,13.45,1.313,20.263c-0.017,0.276-0.061,0.542-0.105,0.808           c-0.446,2.905-1.179,5.82-2.189,8.718C191.473,132.76,178.758,147.53,164.432,153.406z"/>
								</g>
							</g>
							<g>
								<g>
									<path style="fill:#302945;" d="M164.432,153.406l-0.038,0.016c-0.14-0.434-0.269-0.895-0.398-1.356           c1.189-5.689,2.607-11.319,4.263-16.915c0.164-0.563,0.339-1.154,0.514-1.744l0.011-0.027           c0.934-3.023,1.884-6.008,2.954-8.976c0.049-0.201,0.115-0.363,0.191-0.553c0.257-0.715,0.502-1.403,0.759-2.118           c1.2-3.294,2.482-6.554,3.769-9.75c0.305-0.758,0.61-1.517,0.932-2.237c0.011-0.027,0.011-0.027,0.011-0.027           c0.382-0.948,0.78-1.858,1.15-2.779l2.012-4.918l0.229-0.569l10.839-26.447c0.136-0.103,0.261-0.178,0.396-0.281           c0.092,0.163,0.2,0.364,0.281,0.554l-9.558,23.344l-1.303,3.158l-0.011,0.027l-2.208,5.405           c-1.996,4.799-4.029,9.771-5.863,14.792c-0.076,0.189-0.142,0.352-0.191,0.552c-0.218,0.542-0.409,1.094-0.6,1.647           l-0.011,0.027C169.179,133.727,166.461,143.522,164.432,153.406z"/>
								</g>
							</g>
							<g>
								<g>
									<path style="fill:#302945;" d="M177.079,112.076l-0.623-0.093l-0.119-0.017c1.341-7.863-0.044-15.912-1.913-23.463           c0.206-0.2,0.413-0.4,0.608-0.573c1.784,6.982,3.16,14.428,2.367,21.789c0,0,0,0-0.011,0.027           C177.333,110.51,177.2,111.307,177.079,112.076z"/>
								</g>
							</g>
							<g>
								<g>
									<path style="fill:#302945;" d="M197.573,88.384c-3.404,1.965-6.656,4.18-9.736,6.591c-2.466,1.903-4.938,4.055-6.402,6.832           c-0.093,0.152-0.196,0.33-0.262,0.493l-0.612-0.278L180.508,102c0.076-0.189,0.18-0.368,0.272-0.52           c0.545-1.04,1.203-1.971,1.969-2.858c1.364-1.591,2.983-2.953,4.634-4.24c3.166-2.47,6.533-4.734,9.997-6.769           C197.466,87.868,197.525,88.112,197.573,88.384z"/>
								</g>
							</g>
							<g>
								<g>
									<path style="fill:#302945;" d="M198.782,109.454c-6.202,2.349-12.156,5.176-17.889,8.47           c-2.991,1.723-6.043,3.673-8.331,6.307c-0.157,0.157-0.288,0.325-0.419,0.493l-0.406-0.321l-0.168-0.131           c0.12-0.14,0.239-0.281,0.359-0.422c0.381-0.476,0.805-0.903,1.245-1.293c2.146-2.126,4.802-3.795,7.342-5.258           c5.858-3.369,12.029-6.266,18.372-8.653C198.87,108.923,198.826,109.189,198.782,109.454z"/>
								</g>
							</g>
							<g>
								<g>
									<path style="fill:#302945;" d="M168.644,135.211l-0.385-0.06l-0.331-0.039c0.606-4.005-0.908-7.983-2.666-12.058           c-1.693-3.924-3.441-7.712-5.727-11.024c0.066-0.32,0.143-0.667,0.236-0.975c2.497,3.492,4.368,7.519,6.148,11.698           c1.548,3.582,2.906,7.087,2.865,10.627l-0.011,0.027C168.782,134.008,168.726,134.615,168.644,135.211z"/>
								</g>
							</g>
						</g>
						<g>
							<g>
								<g>
									<path style="fill:#9DD1A9;" d="M309.093,112.647l-0.004-0.041c0.456,0.001,0.935,0.021,1.413,0.041           c13.09,0.379,28.256,1.507,39.452,8.146c0.284,0.162,0.59,0.342,0.855,0.526c0.94,0.559,1.802,1.167,2.668,1.816           c6.196,4.697,10.72,11.572,14.243,19.095c0.126,0.258,0.253,0.516,0.357,0.756c2.977,6.493,5.224,13.404,7.154,19.782           c0.056,0.161,0.089,0.303,0.145,0.464c-0.183,0.037-0.408,0.077-0.613,0.096c-4.443,0.848-8.911,1.18-13.299,1.008           c-0.269,0.003-0.519-0.016-0.792-0.055c-6.87-0.348-13.5-1.98-19.675-5.021c-0.258-0.102-0.497-0.226-0.736-0.349           c-2.624-1.323-5.169-2.922-7.613-4.779C320.36,144.749,310.248,128.088,309.093,112.647z"/>
								</g>
							</g>
							<g>
								<g>
									<path style="fill:#302945;" d="M309.093,112.647l-0.004-0.041c0.456,0.001,0.935,0.021,1.413,0.041           c5.042,2.892,9.957,5.981,14.767,9.287c0.485,0.33,0.992,0.679,1.5,1.028l0.022,0.019c2.586,1.824,5.13,3.651,7.622,5.586           c0.175,0.109,0.31,0.221,0.466,0.353c0.6,0.465,1.179,0.911,1.779,1.377c2.76,2.16,5.465,4.388,8.105,6.6           c0.627,0.525,1.253,1.05,1.839,1.579c0.022,0.019,0.022,0.019,0.022,0.019c0.783,0.656,1.525,1.316,2.286,1.954           l4.054,3.435l0.47,0.394l21.796,18.491c0.056,0.161,0.089,0.303,0.145,0.464c-0.183,0.037-0.408,0.077-0.613,0.096           l-19.241-16.312l-2.599-2.216l-0.022-0.019l-4.457-3.772c-3.946-3.382-8.045-6.855-12.252-10.152           c-0.157-0.131-0.291-0.244-0.466-0.353c-0.448-0.375-0.914-0.727-1.38-1.08l-0.022-0.019           C326.338,123.249,317.864,117.634,309.093,112.647z"/>
								</g>
							</g>
							<g>
								<g>
									<path style="fill:#302945;" d="M344.482,137.461l0.282-0.564l0.053-0.108c7.062,3.708,15.145,4.881,22.903,5.44           c0.126,0.258,0.253,0.516,0.357,0.756c-7.191-0.464-14.698-1.46-21.452-4.491c0,0,0,0-0.022-0.019           C345.893,138.186,345.176,137.814,344.482,137.461z"/>
								</g>
							</g>
							<g>
								<g>
									<path style="fill:#302945;" d="M360.671,164.28c-0.816-3.845-1.916-7.623-3.255-11.298           c-1.047-2.933-2.328-5.95-4.516-8.202c-0.116-0.135-0.253-0.288-0.387-0.401l0.453-0.496l0.038-0.045           c0.157,0.131,0.295,0.285,0.41,0.42c0.82,0.84,1.502,1.754,2.108,2.757c1.091,1.79,1.885,3.751,2.598,5.719           c1.369,3.775,2.48,7.677,3.344,11.601C361.194,164.337,360.944,164.318,360.671,164.28z"/>
								</g>
							</g>
							<g>
								<g>
									<path style="fill:#302945;" d="M340.261,158.91c-0.315-6.625-1.161-13.161-2.519-19.632           c-0.712-3.377-1.622-6.882-3.42-9.874c-0.1-0.198-0.22-0.374-0.339-0.55l0.431-0.287l0.176-0.119           c0.097,0.157,0.194,0.314,0.29,0.472c0.335,0.509,0.61,1.045,0.844,1.583c1.357,2.699,2.123,5.74,2.728,8.609           c1.391,6.613,2.237,13.377,2.544,20.147C340.739,159.158,340.5,159.033,340.261,158.91z"/>
								</g>
							</g>
							<g>
								<g>
									<path style="fill:#302945;" d="M325.093,122.281l0.177-0.347l0.139-0.303c3.621,1.815,7.872,1.606,12.291,1.196           c4.255-0.396,8.398-0.886,12.255-2.034c0.284,0.162,0.59,0.342,0.855,0.526c-4.093,1.294-8.501,1.827-13.026,2.227           c-3.885,0.363-7.638,0.57-10.992-0.564l-0.022-0.019C326.194,122.785,325.634,122.544,325.093,122.281z"/>
								</g>
							</g>
						</g>
						<g>
							<g>
								<g>
									<path style="fill:#9DD1A9;" d="M404.678,233.727l0.039-0.015c0.121,0.44,0.231,0.906,0.34,1.372           c3.156,12.709,6.149,27.62,2.767,40.189c-0.079,0.317-0.171,0.66-0.276,0.964c-0.286,1.056-0.64,2.05-1.032,3.058           c-2.857,7.231-8.262,13.437-14.56,18.855c-0.215,0.191-0.43,0.382-0.632,0.547c-5.454,4.614-11.505,8.637-17.129,12.212           c-0.14,0.097-0.268,0.167-0.408,0.264c-0.085-0.167-0.185-0.371-0.257-0.565c-2.012-4.051-3.533-8.265-4.548-12.538           c-0.076-0.258-0.124-0.505-0.161-0.778c-1.513-6.71-1.724-13.535-0.457-20.3c0.029-0.276,0.084-0.539,0.139-0.803           c0.568-2.883,1.424-5.765,2.555-8.618C376.789,253.213,390.116,238.993,404.678,233.727z"/>
								</g>
							</g>
							<g>
								<g>
									<path style="fill:#302945;" d="M404.678,233.727l0.039-0.015c0.121,0.44,0.231,0.906,0.34,1.372           c-1.429,5.634-3.083,11.199-4.973,16.721c-0.188,0.556-0.387,1.139-0.587,1.721l-0.012,0.027           c-1.061,2.981-2.136,5.923-3.33,8.844c-0.058,0.198-0.13,0.358-0.214,0.544c-0.286,0.703-0.561,1.38-0.847,2.084           c-1.338,3.24-2.756,6.444-4.177,9.582c-0.337,0.745-0.674,1.489-1.026,2.196c-0.012,0.027-0.012,0.027-0.012,0.027           c-0.421,0.931-0.857,1.823-1.267,2.727l-2.218,4.828l-0.253,0.559l-11.946,25.966c-0.14,0.097-0.268,0.167-0.408,0.264           c-0.085-0.167-0.185-0.371-0.257-0.565l10.535-22.919l1.436-3.1l0.012-0.027l2.435-5.307           c2.196-4.711,4.438-9.592,6.482-14.532c0.084-0.186,0.156-0.346,0.214-0.544c0.241-0.532,0.455-1.076,0.669-1.62           l0.012-0.026C399.105,253.188,402.233,243.516,404.678,233.727z"/>
								</g>
							</g>
							<g>
								<g>
									<path style="fill:#302945;" d="M390.297,274.486l0.619,0.12l0.118,0.021c-1.672,7.8-0.628,15.9,0.921,23.523           c-0.215,0.191-0.43,0.382-0.632,0.547c-1.487-7.051-2.547-14.549-1.445-21.869c0,0,0,0,0.012-0.027           C389.978,276.04,390.144,275.25,390.297,274.486z"/>
								</g>
							</g>
							<g>
								<g>
									<path style="fill:#302945;" d="M368.821,297.292c3.484-1.82,6.827-3.896,10.006-6.174c2.544-1.797,5.104-3.842,6.685-6.556           c0.099-0.148,0.21-0.322,0.282-0.481l0.6,0.303l0.053,0.024c-0.084,0.186-0.195,0.361-0.294,0.508           c-0.588,1.016-1.285,1.918-2.088,2.772c-1.43,1.532-3.105,2.824-4.809,4.04c-3.268,2.334-6.727,4.454-10.273,6.341           C368.906,297.812,368.858,297.565,368.821,297.292z"/>
								</g>
							</g>
							<g>
								<g>
									<path style="fill:#302945;" d="M368.503,276.19c6.296-2.085,12.364-4.658,18.23-7.707c3.061-1.595,6.192-3.414,8.59-5.95           c0.164-0.15,0.301-0.312,0.439-0.474l0.392,0.337l0.162,0.138c-0.126,0.136-0.251,0.271-0.376,0.407           c-0.4,0.459-0.842,0.869-1.298,1.239c-2.234,2.033-4.957,3.589-7.557,4.943c-5.995,3.119-12.282,5.753-18.721,7.87           C368.393,276.717,368.448,276.453,368.503,276.19z"/>
								</g>
							</g>
							<g>
								<g>
									<path style="fill:#302945;" d="M399.702,251.728l0.382,0.077l0.329,0.053c-0.774,3.976,0.57,8.014,2.155,12.16           c1.526,3.991,3.112,7.85,5.256,11.256c-0.079,0.317-0.171,0.66-0.276,0.964c-2.347-3.594-4.047-7.696-5.648-11.946           c-1.395-3.644-2.604-7.204-2.414-10.739l0.012-0.027C399.513,252.924,399.594,252.32,399.702,251.728z"/>
								</g>
							</g>
						</g>
						<g>
							<g>
								<g>
									<path style="fill:#9DD1A9;" d="M321.529,387.411l0.016,0.038c-0.435,0.138-0.897,0.265-1.358,0.392           c-12.581,3.633-27.368,7.186-40.056,4.28c-0.32-0.067-0.666-0.146-0.974-0.24c-1.066-0.246-2.073-0.562-3.095-0.916           c-7.334-2.582-13.74-7.749-19.39-13.838c-0.199-0.207-0.398-0.415-0.571-0.611c-4.816-5.276-9.064-11.171-12.849-16.656           c-0.102-0.136-0.177-0.261-0.279-0.398c0.163-0.091,0.365-0.198,0.555-0.278c3.972-2.163,8.126-3.843,12.357-5.017           c0.256-0.085,0.5-0.143,0.771-0.19c6.648-1.765,13.461-2.234,20.268-1.222c0.276,0.018,0.542,0.063,0.807,0.108           c2.903,0.459,5.814,1.206,8.708,2.228C301.004,360.277,315.717,373.059,321.529,387.411z"/>
								</g>
							</g>
							<g>
								<g>
									<path style="fill:#302945;" d="M321.529,387.411l0.016,0.038c-0.435,0.138-0.897,0.265-1.358,0.392           c-5.684-1.215-11.307-2.658-16.896-4.339c-0.563-0.166-1.152-0.344-1.742-0.521l-0.027-0.011           c-3.019-0.948-5.999-1.911-8.963-2.994c-0.2-0.05-0.362-0.116-0.552-0.194c-0.714-0.259-1.401-0.508-2.115-0.768           c-3.288-1.215-6.543-2.512-9.733-3.813c-0.757-0.309-1.514-0.617-2.233-0.943c-0.027-0.011-0.027-0.011-0.027-0.011           c-0.946-0.386-1.854-0.788-2.773-1.163l-4.909-2.034l-0.568-0.232l-26.398-10.958c-0.102-0.136-0.177-0.261-0.279-0.398           c0.163-0.091,0.365-0.198,0.555-0.278l23.3,9.663l3.152,1.317l0.027,0.011l5.395,2.233           c4.79,2.017,9.753,4.073,14.766,5.929c0.189,0.077,0.352,0.143,0.552,0.194c0.541,0.22,1.092,0.414,1.644,0.607           l0.027,0.011C301.871,382.576,311.654,385.337,321.529,387.411z"/>
								</g>
							</g>
							<g>
								<g>
									<path style="fill:#302945;" d="M280.256,374.578l-0.096,0.623l-0.017,0.119c-7.857-1.376-15.912-0.027-23.471,1.807           c-0.199-0.207-0.398-0.415-0.571-0.611c6.99-1.752,14.442-3.094,21.799-2.269c0,0,0,0,0.027,0.011           C278.691,374.318,279.487,374.453,280.256,374.578z"/>
								</g>
							</g>
							<g>
								<g>
									<path style="fill:#302945;" d="M256.656,353.977c1.95,3.413,4.15,6.675,6.547,9.766c1.892,2.474,4.032,4.956,6.803,6.433           c0.151,0.093,0.329,0.197,0.491,0.264l-0.28,0.611l-0.022,0.054c-0.189-0.077-0.367-0.181-0.519-0.275           c-1.037-0.549-1.965-1.212-2.849-1.982c-1.585-1.372-2.94-2.997-4.219-4.653c-2.456-3.178-4.704-6.554-6.725-10.027           C256.14,354.082,256.385,354.024,256.656,353.977z"/>
								</g>
							</g>
							<g>
								<g>
									<path style="fill:#302945;" d="M277.732,352.864c2.321,6.213,5.121,12.179,8.389,17.927c1.709,2.999,3.645,6.059,6.27,8.36           c0.156,0.158,0.323,0.289,0.491,0.421l-0.323,0.404l-0.131,0.167c-0.14-0.12-0.28-0.24-0.42-0.361           c-0.475-0.383-0.9-0.809-1.288-1.25c-2.116-2.156-3.773-4.819-5.224-7.366c-3.343-5.873-6.212-12.057-8.57-18.41           C277.201,352.773,277.466,352.819,277.732,352.864z"/>
								</g>
							</g>
							<g>
								<g>
									<path style="fill:#302945;" d="M303.353,383.117l-0.062,0.384l-0.04,0.331c-4.003-0.624-7.987,0.872-12.07,2.612           c-3.931,1.676-7.727,3.406-11.05,5.677c-0.32-0.067-0.666-0.146-0.974-0.24c3.503-2.481,7.538-4.335,11.725-6.095           c3.589-1.531,7.1-2.874,10.64-2.817l0.027,0.011C302.15,382.974,302.757,383.032,303.353,383.117z"/>
								</g>
							</g>
						</g>
						<g>
							<g>
								<g>
									<path style="fill:#9DD1A9;" d="M208.868,366.643l-0.004,0.041c-0.448-0.087-0.914-0.196-1.38-0.306           c-12.786-2.831-27.47-6.787-37.22-15.41c-0.248-0.212-0.515-0.447-0.74-0.677c-0.819-0.726-1.551-1.485-2.279-2.285           c-5.204-5.777-8.356-13.379-10.404-21.43c-0.076-0.277-0.151-0.555-0.209-0.81c-1.704-6.937-2.613-14.146-3.312-20.774           c-0.025-0.168-0.03-0.314-0.055-0.483c0.187-0.002,0.415,0.001,0.62,0.021c4.523,0.002,8.974,0.514,13.251,1.508           c0.265,0.048,0.507,0.114,0.768,0.203c6.682,1.631,12.888,4.48,18.382,8.626c0.234,0.148,0.445,0.315,0.657,0.482           c2.329,1.792,4.529,3.841,6.58,6.124C203.831,332.996,210.634,351.259,208.868,366.643z"/>
								</g>
							</g>
							<g>
								<g>
									<path style="fill:#302945;" d="M208.868,366.643l-0.004,0.041c-0.448-0.087-0.914-0.196-1.38-0.306           c-4.41-3.787-8.657-7.745-12.76-11.895c-0.414-0.415-0.847-0.853-1.28-1.292l-0.019-0.023           c-2.197-2.277-4.353-4.549-6.437-6.918c-0.152-0.14-0.262-0.276-0.392-0.434c-0.503-0.57-0.987-1.116-1.489-1.686           c-2.306-2.64-4.543-5.336-6.721-8.005c-0.517-0.633-1.034-1.267-1.51-1.896c-0.018-0.023-0.018-0.023-0.018-0.023           c-0.646-0.792-1.251-1.579-1.879-2.348l-3.337-4.135l-0.388-0.475l-17.935-22.255c-0.025-0.168-0.03-0.314-0.055-0.483           c0.187-0.002,0.415,0.001,0.62,0.021l15.835,19.635l2.137,2.665l0.019,0.022l3.669,4.542           c3.24,4.063,6.615,8.244,10.128,12.272c0.129,0.158,0.24,0.294,0.392,0.434c0.369,0.452,0.761,0.886,1.153,1.32           l0.019,0.023C193.921,352.99,201.19,360.097,208.868,366.643z"/>
								</g>
							</g>
							<g>
								<g>
									<path style="fill:#302945;" d="M178.769,335.624l-0.383,0.501l-0.072,0.096c-6.24-4.969-13.959-7.639-21.474-9.645           c-0.076-0.277-0.151-0.555-0.209-0.81c6.975,1.806,14.162,4.194,20.227,8.439c0,0,0,0,0.018,0.023           C177.519,334.646,178.153,335.146,178.769,335.624z"/>
								</g>
							</g>
							<g>
								<g>
									<path style="fill:#302945;" d="M167.905,306.242c0.079,3.929,0.45,7.847,1.075,11.708c0.477,3.078,1.169,6.281,2.896,8.904           c0.088,0.154,0.195,0.331,0.305,0.467l-0.539,0.402l-0.045,0.037c-0.129-0.158-0.236-0.335-0.324-0.489           c-0.648-0.979-1.146-2.004-1.553-3.104c-0.735-1.963-1.147-4.038-1.477-6.105c-0.636-3.965-0.994-8.006-1.106-12.022           C167.402,306.087,167.644,306.153,167.905,306.242z"/>
								</g>
							</g>
							<g>
								<g>
									<path style="fill:#302945;" d="M186.943,315.349c-0.935,6.566-1.331,13.145-1.212,19.755           c0.065,3.451,0.301,7.065,1.505,10.34c0.061,0.214,0.145,0.409,0.229,0.604l-0.477,0.201l-0.195,0.084           c-0.066-0.173-0.131-0.345-0.196-0.518c-0.233-0.563-0.403-1.141-0.532-1.714c-0.826-2.906-1.007-6.037-1.063-8.968           c-0.125-6.756,0.315-13.559,1.285-20.267C186.521,315.016,186.732,315.183,186.943,315.349z"/>
								</g>
							</g>
							<g>
								<g>
									<path style="fill:#302945;" d="M194.963,354.175l-0.239,0.308l-0.193,0.271c-3.216-2.463-7.43-3.056-11.848-3.483           c-4.254-0.41-8.415-0.707-12.419-0.303c-0.248-0.212-0.515-0.447-0.74-0.677c4.263-0.502,8.693-0.198,13.212,0.259           c3.884,0.373,7.609,0.874,10.691,2.618l0.019,0.023C193.975,353.473,194.48,353.815,194.963,354.175z"/>
								</g>
							</g>
						</g>
						<g>
							<g>
								<g>
									<path style="fill:#9DD1A9;" d="M164.163,353.638l0.013,0.039c-0.443,0.109-0.912,0.205-1.381,0.3           c-12.795,2.786-27.787,5.344-40.253,1.598c-0.314-0.089-0.655-0.19-0.956-0.304c-1.048-0.316-2.03-0.699-3.027-1.12           c-7.145-3.066-13.192-8.649-18.424-15.101c-0.185-0.22-0.37-0.44-0.528-0.648c-4.453-5.585-8.299-11.75-11.709-17.476           c-0.093-0.143-0.159-0.273-0.252-0.415c0.169-0.08,0.377-0.174,0.572-0.241c4.108-1.893,8.364-3.292,12.664-4.182           c0.261-0.068,0.508-0.109,0.782-0.138c6.751-1.318,13.58-1.331,20.305,0.133c0.275,0.037,0.536,0.1,0.798,0.162           c2.866,0.652,5.721,1.591,8.54,2.804C145.495,325.195,159.322,338.93,164.163,353.638z"/>
								</g>
							</g>
							<g>
								<g>
									<path style="fill:#302945;" d="M164.163,353.638l0.013,0.039c-0.443,0.109-0.912,0.205-1.381,0.3           c-5.59-1.592-11.105-3.407-16.569-5.457c-0.55-0.204-1.127-0.42-1.703-0.637l-0.026-0.013           c-2.949-1.147-5.858-2.307-8.743-3.586c-0.196-0.063-0.354-0.14-0.538-0.23c-0.695-0.307-1.364-0.6-2.059-0.907           c-3.2-1.432-6.361-2.943-9.456-4.454c-0.735-0.359-1.469-0.717-2.165-1.089c-0.026-0.013-0.026-0.013-0.026-0.013           c-0.918-0.448-1.797-0.91-2.689-1.345l-4.762-2.357l-0.551-0.269l-25.608-12.695c-0.093-0.143-0.159-0.273-0.252-0.415           c0.169-0.08,0.377-0.174,0.572-0.241l22.604,11.196l3.057,1.525l0.026,0.013l5.234,2.588           c4.644,2.332,9.459,4.715,14.337,6.901c0.184,0.09,0.341,0.166,0.538,0.23c0.525,0.256,1.062,0.486,1.6,0.716l0.026,0.013           C144.871,347.502,154.449,350.91,164.163,353.638z"/>
								</g>
							</g>
							<g>
								<g>
									<path style="fill:#302945;" d="M123.838,338.079l-0.137,0.615l-0.025,0.118c-7.748-1.898-15.874-1.089-23.539,0.237           c-0.185-0.22-0.37-0.44-0.528-0.648c7.091-1.282,14.616-2.124,21.902-0.809c0,0,0,0,0.026,0.013           C122.294,337.715,123.079,337.904,123.838,338.079z"/>
								</g>
							</g>
							<g>
								<g>
									<path style="fill:#302945;" d="M101.666,315.95c1.718,3.535,3.696,6.937,5.881,10.181c1.722,2.595,3.693,5.214,6.359,6.873           c0.145,0.103,0.315,0.219,0.473,0.296l-0.321,0.591l-0.026,0.052c-0.184-0.09-0.355-0.206-0.499-0.309           c-0.998-0.617-1.88-1.34-2.71-2.168c-1.489-1.474-2.733-3.186-3.899-4.924c-2.238-3.334-4.257-6.853-6.041-10.453           C101.144,316.02,101.392,315.979,101.666,315.95z"/>
								</g>
							</g>
							<g>
								<g>
									<path style="fill:#302945;" d="M122.768,316.245c1.902,6.354,4.298,12.494,7.174,18.446           c1.505,3.107,3.233,6.289,5.698,8.759c0.145,0.168,0.303,0.311,0.461,0.453l-0.349,0.382l-0.142,0.158           c-0.132-0.129-0.264-0.259-0.395-0.388c-0.448-0.413-0.844-0.867-1.201-1.333c-1.967-2.293-3.443-5.06-4.722-7.698           c-2.944-6.083-5.394-12.444-7.323-18.941C122.245,316.12,122.507,316.183,122.768,316.245z"/>
								</g>
							</g>
							<g>
								<g>
									<path style="fill:#302945;" d="M146.314,348.141l-0.088,0.38l-0.062,0.327c-3.952-0.889-8.027,0.338-12.217,1.801           c-4.034,1.41-7.937,2.883-11.404,4.927c-0.314-0.089-0.655-0.19-0.956-0.304c3.661-2.242,7.811-3.822,12.106-5.299           c3.683-1.289,7.276-2.393,10.804-2.101l0.026,0.013C145.123,347.918,145.725,348.016,146.314,348.141z"/>
								</g>
							</g>
						</g>
						<g>
							<g>
								<g>
									<path style="fill:#9DD1A9;" d="M218.974,101.567l-0.031-0.028c0.335-0.309,0.7-0.62,1.064-0.93           c9.854-8.625,21.74-18.112,34.463-20.859c0.318-0.075,0.665-0.151,0.984-0.196c1.07-0.23,2.115-0.37,3.191-0.483           c7.737-0.771,15.729,1.193,23.428,4.312c0.268,0.104,0.537,0.207,0.776,0.312c6.599,2.736,12.945,6.274,18.699,9.637           c0.15,0.08,0.271,0.162,0.422,0.242c-0.109,0.152-0.246,0.334-0.385,0.487c-2.681,3.644-5.73,6.926-9.065,9.783           c-0.195,0.185-0.392,0.341-0.618,0.499c-5.272,4.417-11.244,7.73-17.838,9.7c-0.258,0.101-0.518,0.172-0.777,0.244           c-2.824,0.815-5.777,1.373-8.831,1.674C249.067,117.44,230.322,112.102,218.974,101.567z"/>
								</g>
							</g>
							<g>
								<g>
									<path style="fill:#302945;" d="M218.974,101.567l-0.031-0.028c0.335-0.309,0.7-0.62,1.064-0.93           c5.663-1.309,11.368-2.387,17.142-3.234c0.58-0.088,1.189-0.177,1.799-0.266l0.029-0.001           c3.136-0.422,6.244-0.812,9.387-1.088c0.203-0.04,0.377-0.048,0.582-0.059c0.757-0.067,1.484-0.133,2.241-0.201           c3.493-0.293,6.99-0.499,10.431-0.673c0.817-0.041,1.633-0.082,2.422-0.093c0.029-0.001,0.029-0.001,0.029-0.001           c1.021-0.052,2.014-0.072,3.005-0.123l5.308-0.239l0.612-0.031l28.554-1.267c0.15,0.08,0.271,0.162,0.422,0.242           c-0.109,0.152-0.246,0.334-0.385,0.487l-25.199,1.127l-3.413,0.143l-0.029,0.001l-5.833,0.265           c-5.193,0.204-10.56,0.446-15.887,0.89c-0.204,0.01-0.379,0.019-0.582,0.059c-0.583,0.029-1.165,0.088-1.746,0.147           l-0.029,0.002C238.827,97.612,228.796,99.259,218.974,101.567z"/>
								</g>
							</g>
							<g>
								<g>
									<path style="fill:#302945;" d="M261.795,95.691l-0.177-0.605l-0.035-0.115c7.699-2.084,14.423-6.721,20.491-11.588           c0.268,0.104,0.537,0.207,0.776,0.312c-5.587,4.55-11.768,8.925-18.781,11.297c0,0,0,0-0.029,0.001           C263.322,95.263,262.544,95.478,261.795,95.691z"/>
								</g>
							</g>
							<g>
								<g>
									<path style="fill:#302945;" d="M291.902,104.343c-3.213-2.264-6.589-4.286-10.07-6.069           c-2.762-1.439-5.753-2.778-8.889-2.942c-0.177-0.02-0.382-0.039-0.557-0.031l-0.005-0.672l-0.003-0.058           c0.204-0.01,0.41,0.009,0.586,0.029c1.172,0.058,2.294,0.264,3.421,0.587c2.016,0.57,3.933,1.467,5.794,2.426           c3.572,1.837,7.039,3.941,10.341,6.23C292.325,104.029,292.128,104.186,291.902,104.343z"/>
								</g>
							</g>
							<g>
								<g>
									<path style="fill:#302945;" d="M273.287,114.287c-4.736-4.643-9.802-8.859-15.198-12.679           c-2.819-1.991-5.87-3.942-9.223-4.913c-0.209-0.077-0.415-0.125-0.623-0.173l0.121-0.503l0.048-0.207           c0.178,0.049,0.356,0.099,0.534,0.148c0.592,0.146,1.158,0.351,1.696,0.587c2.83,1.056,5.46,2.764,7.855,4.456           c5.517,3.902,10.738,8.286,15.567,13.04C273.806,114.144,273.546,114.216,273.287,114.287z"/>
								</g>
							</g>
							<g>
								<g>
									<path style="fill:#302945;" d="M237.256,97.75l-0.107-0.375l-0.104-0.316c3.889-1.132,6.863-4.176,9.824-7.483           c2.85-3.184,5.554-6.361,7.601-9.826c0.318-0.075,0.665-0.151,0.984-0.196c-2.121,3.732-4.99,7.122-8.035,10.491           c-2.601,2.909-5.212,5.613-8.442,7.062l-0.029,0.001C238.406,97.37,237.831,97.574,237.256,97.75z"/>
								</g>
							</g>
						</g>
						<g>
							<g>
								<g>
									<path style="fill:#9DD1A9;" d="M398.957,148.765l0.023-0.034c0.354,0.288,0.713,0.604,1.072,0.921           c9.936,8.53,21.013,18.95,25.539,31.155c0.119,0.304,0.243,0.637,0.333,0.946c0.379,1.027,0.666,2.042,0.931,3.091           c1.861,7.549,1.051,15.739-0.944,23.803c-0.064,0.28-0.128,0.56-0.198,0.812c-1.772,6.92-4.373,13.704-6.886,19.877           c-0.058,0.16-0.122,0.292-0.18,0.452c-0.166-0.087-0.366-0.196-0.537-0.312c-3.987-2.136-7.668-4.689-10.97-7.584           c-0.211-0.167-0.393-0.34-0.581-0.541c-5.121-4.592-9.247-10.033-12.133-16.281c-0.137-0.241-0.244-0.488-0.352-0.734           c-1.207-2.679-2.179-5.524-2.91-8.504C387.515,180.805,390.139,161.493,398.957,148.765z"/>
								</g>
							</g>
							<g>
								<g>
									<path style="fill:#302945;" d="M398.957,148.765l0.023-0.034c0.354,0.288,0.713,0.604,1.072,0.921           c2.1,5.42,3.976,10.914,5.634,16.51c0.169,0.562,0.344,1.153,0.519,1.743l0.006,0.029c0.862,3.044,1.69,6.066,2.409,9.138           c0.068,0.195,0.101,0.367,0.14,0.567c0.174,0.739,0.343,1.45,0.517,2.19c0.786,3.416,1.486,6.849,2.147,10.23           c0.156,0.802,0.313,1.605,0.436,2.384c0.005,0.028,0.005,0.028,0.005,0.028c0.196,1.003,0.357,1.983,0.548,2.957l0.99,5.22           l0.118,0.602l5.307,28.085c-0.058,0.16-0.122,0.292-0.18,0.452c-0.166-0.087-0.366-0.196-0.537-0.312l-4.692-24.785           l-0.626-3.358l-0.006-0.029l-1.09-5.736c-0.939-5.112-1.94-10.389-3.136-15.599c-0.039-0.201-0.073-0.373-0.141-0.568           c-0.112-0.573-0.253-1.141-0.393-1.708l-0.005-0.029C405.69,167.856,402.636,158.16,398.957,148.765z"/>
								</g>
							</g>
							<g>
								<g>
									<path style="fill:#302945;" d="M410.85,190.318l0.574-0.261l0.109-0.051c3.156,7.326,8.7,13.323,14.378,18.639           c-0.064,0.28-0.128,0.56-0.198,0.812c-5.297-4.885-10.505-10.383-13.848-16.988c0,0,0,0-0.005-0.028           C411.491,191.77,411.168,191.03,410.85,190.318z"/>
								</g>
							</g>
							<g>
								<g>
									<path style="fill:#302945;" d="M406.559,221.349c1.785-3.502,3.307-7.13,4.578-10.829c1.032-2.938,1.934-6.089,1.651-9.217           c-0.005-0.178-0.015-0.384-0.049-0.556l0.664-0.1l0.057-0.011c0.039,0.201,0.05,0.407,0.055,0.584           c0.109,1.169,0.064,2.308-0.096,3.469c-0.278,2.077-0.895,4.101-1.579,6.079c-1.311,3.796-2.903,7.527-4.7,11.121           C406.929,221.723,406.747,221.551,406.559,221.349z"/>
								</g>
							</g>
							<g>
								<g>
									<path style="fill:#302945;" d="M394.074,204.333c3.923-5.347,7.379-10.96,10.394-16.844           c1.572-3.074,3.069-6.37,3.555-9.826c0.047-0.217,0.065-0.429,0.083-0.641l0.515,0.048l0.212,0.018           c-0.024,0.183-0.048,0.366-0.071,0.549c-0.06,0.607-0.183,1.196-0.34,1.762c-0.643,2.952-1.962,5.797-3.296,8.407           c-3.079,6.015-6.678,11.805-10.699,17.26C394.289,204.827,394.181,204.58,394.074,204.333z"/>
								</g>
							</g>
							<g>
								<g>
									<path style="fill:#302945;" d="M405.33,166.32l0.356-0.159l0.298-0.148c1.672,3.689,5.108,6.201,8.801,8.663           c3.557,2.369,7.085,4.595,10.806,6.13c0.119,0.304,0.243,0.637,0.333,0.946c-3.995-1.57-7.758-3.928-11.525-6.465           c-3.248-2.162-6.296-4.363-8.189-7.355l-0.006-0.029C405.87,167.405,405.586,166.865,405.33,166.32z"/>
								</g>
							</g>
						</g>
						<g>
							<g>
								<g>
									<path style="fill:#9DD1A9;" d="M398.09,327.435l0.041,0.003c-0.072,0.45-0.166,0.92-0.261,1.389           c-2.412,12.871-5.888,27.676-14.189,37.703c-0.204,0.255-0.43,0.529-0.652,0.762c-0.699,0.842-1.434,1.599-2.209,2.352           c-5.604,5.39-13.1,8.788-21.08,11.096c-0.275,0.085-0.549,0.17-0.803,0.235c-6.878,1.929-14.053,3.073-20.655,3.987           c-0.168,0.03-0.313,0.041-0.481,0.071c-0.008-0.187-0.013-0.415,0.001-0.621c-0.146-4.521,0.222-8.986,1.076-13.293           c0.039-0.266,0.097-0.511,0.177-0.774c1.413-6.732,4.058-13.027,8.022-18.653c0.141-0.239,0.3-0.456,0.46-0.672           c1.715-2.386,3.691-4.651,5.906-6.776C364.625,333.566,382.657,326.172,398.09,327.435z"/>
								</g>
							</g>
							<g>
								<g>
									<path style="fill:#302945;" d="M398.09,327.435l0.041,0.003c-0.072,0.45-0.166,0.92-0.261,1.389           c-3.642,4.531-7.459,8.904-11.473,13.141c-0.402,0.428-0.825,0.875-1.249,1.322l-0.022,0.019           c-2.204,2.27-4.405,4.499-6.705,6.659c-0.135,0.157-0.267,0.272-0.421,0.406c-0.553,0.521-1.084,1.023-1.637,1.543           c-2.564,2.39-5.186,4.715-7.782,6.979c-0.616,0.537-1.232,1.074-1.846,1.57c-0.022,0.019-0.022,0.019-0.022,0.019           c-0.77,0.671-1.537,1.302-2.286,1.954l-4.024,3.47l-0.462,0.403l-21.659,18.651c-0.168,0.03-0.313,0.041-0.481,0.071           c-0.008-0.187-0.013-0.415,0.001-0.621l19.109-16.466l2.594-2.223l0.022-0.019l4.42-3.815           c3.956-3.371,8.024-6.88,11.935-10.523c0.154-0.134,0.286-0.249,0.421-0.405c0.44-0.384,0.861-0.789,1.282-1.195           l0.022-0.019C384.932,342.819,391.798,335.323,398.09,327.435z"/>
								</g>
							</g>
							<g>
								<g>
									<path style="fill:#302945;" d="M368.068,358.529l0.513,0.366l0.099,0.069c-4.763,6.399-7.18,14.2-8.94,21.777           c-0.275,0.085-0.549,0.17-0.803,0.235c1.578-7.031,3.731-14.291,7.776-20.491c0,0,0,0,0.022-0.019           C367.132,359.81,367.611,359.16,368.068,358.529z"/>
								</g>
							</g>
							<g>
								<g>
									<path style="fill:#302945;" d="M339.056,370.345c3.925-0.207,7.828-0.706,11.667-1.457c3.061-0.577,6.24-1.373,8.805-3.184           c0.151-0.093,0.324-0.205,0.456-0.321l0.419,0.525l0.039,0.044c-0.154,0.134-0.327,0.246-0.479,0.34           c-0.957,0.679-1.966,1.211-3.051,1.653c-1.938,0.799-3.999,1.278-6.054,1.676c-3.942,0.765-7.969,1.254-11.98,1.497           C338.918,370.853,338.976,370.608,339.056,370.345z"/>
								</g>
							</g>
							<g>
								<g>
									<path style="fill:#302945;" d="M347.538,351.02c6.593,0.72,13.181,0.902,19.784,0.568           c3.447-0.178,7.051-0.531,10.286-1.841c0.212-0.068,0.404-0.159,0.597-0.249l0.216,0.47l0.09,0.193           c-0.17,0.071-0.341,0.142-0.511,0.213c-0.555,0.252-1.127,0.44-1.695,0.588c-2.877,0.92-6,1.203-8.928,1.354           c-6.748,0.345-13.562,0.127-20.298-0.624C347.219,351.453,347.379,351.236,347.538,351.02z"/>
								</g>
							</g>
							<g>
								<g>
									<path style="fill:#302945;" d="M386.082,341.739l0.316,0.229l0.277,0.184c-2.357,3.294-2.812,7.526-3.095,11.955           c-0.271,4.265-0.432,8.433,0.102,12.422c-0.204,0.255-0.43,0.529-0.652,0.762c-0.641-4.244-0.482-8.682-0.171-13.213           c0.246-3.894,0.626-7.634,2.268-10.77l0.022-0.019C385.413,342.749,385.738,342.233,386.082,341.739z"/>
								</g>
							</g>
						</g>
						<g>
							<g>
								<g>
									<path style="fill:#9DD1A9;" d="M250.053,392.706l0.026,0.032c-0.377,0.256-0.783,0.509-1.19,0.763           c-11.023,7.07-24.182,14.692-37.172,15.525c-0.326,0.026-0.68,0.05-1.002,0.048c-1.092,0.069-2.147,0.053-3.228,0.005           c-7.766-0.383-15.379-3.509-22.531-7.734c-0.25-0.142-0.5-0.284-0.721-0.423c-6.121-3.683-11.874-8.122-17.065-12.3           c-0.137-0.102-0.245-0.2-0.381-0.302c0.131-0.134,0.293-0.294,0.453-0.425c3.19-3.206,6.692-6,10.413-8.333           c0.221-0.154,0.439-0.28,0.685-0.402c5.868-3.588,12.264-5.98,19.078-6.951c0.27-0.061,0.538-0.094,0.804-0.126           c2.913-0.388,5.917-0.503,8.982-0.347C222.643,372.552,240.39,380.607,250.053,392.706z"/>
								</g>
							</g>
							<g>
								<g>
									<path style="fill:#302945;" d="M250.053,392.706l0.026,0.032c-0.377,0.256-0.783,0.509-1.19,0.763           c-5.795,0.456-11.596,0.677-17.432,0.659c-0.587,0.001-1.203-0.001-1.818-0.003l-0.029-0.003           c-3.164-0.047-6.296-0.121-9.445-0.314c-0.206,0.009-0.381-0.008-0.584-0.028c-0.758-0.045-1.487-0.088-2.246-0.133           c-3.498-0.227-6.987-0.541-10.416-0.879c-0.814-0.08-1.627-0.16-2.409-0.267c-0.029-0.003-0.029-0.003-0.029-0.003           c-1.017-0.1-2.002-0.227-2.99-0.324l-5.285-0.55l-0.61-0.06l-28.427-2.975c-0.137-0.102-0.245-0.2-0.381-0.302           c0.131-0.134,0.293-0.294,0.453-0.425l25.089,2.617l3.397,0.364l0.029,0.003l5.808,0.601           c5.166,0.567,10.509,1.123,15.843,1.472c0.203,0.02,0.378,0.037,0.584,0.029c0.581,0.057,1.165,0.085,1.749,0.113           l0.029,0.003C229.833,393.678,239.997,393.535,250.053,392.706z"/>
								</g>
							</g>
							<g>
								<g>
									<path style="fill:#302945;" d="M206.834,392.176l0.085,0.625l0.018,0.119c-7.923,0.921-15.259,4.511-21.981,8.426           c-0.25-0.142-0.5-0.284-0.721-0.423c6.2-3.672,12.96-7.085,20.247-8.391c0,0,0,0,0.029,0.003           C205.26,392.373,206.062,392.276,206.834,392.176z"/>
								</g>
							</g>
							<g>
								<g>
									<path style="fill:#302945;" d="M178.34,379.161c2.842,2.715,5.882,5.214,9.06,7.493c2.519,1.832,5.278,3.6,8.355,4.226           c0.172,0.046,0.372,0.095,0.546,0.113l-0.095,0.665l-0.006,0.058c-0.203-0.02-0.404-0.069-0.575-0.115           c-1.151-0.23-2.229-0.601-3.296-1.087c-1.91-0.863-3.672-2.034-5.37-3.257c-3.26-2.345-6.378-4.94-9.305-7.693           C177.876,379.409,178.093,379.283,178.34,379.161z"/>
								</g>
							</g>
							<g>
								<g>
									<path style="fill:#302945;" d="M198.223,372.083c3.997,5.293,8.382,10.213,13.153,14.79           c2.493,2.387,5.222,4.768,8.393,6.224c0.195,0.107,0.393,0.185,0.59,0.264l-0.194,0.48l-0.078,0.198           c-0.169-0.075-0.337-0.151-0.506-0.226c-0.564-0.232-1.093-0.518-1.59-0.831c-2.643-1.463-4.991-3.543-7.108-5.57           c-4.879-4.676-9.392-9.784-13.464-15.202C197.688,372.148,197.956,372.116,198.223,372.083z"/>
								</g>
							</g>
							<g>
								<g>
									<path style="fill:#302945;" d="M231.408,393.774l0.05,0.387l0.056,0.328c-4.014,0.543-7.406,3.114-10.824,5.945           c-3.29,2.727-6.435,5.468-8.972,8.592c-0.326,0.026-0.68,0.05-1.002,0.048c2.65-3.376,5.989-6.304,9.5-9.185           c3.003-2.491,5.986-4.779,9.395-5.734l0.029,0.003C230.214,393.98,230.812,393.863,231.408,393.774z"/>
								</g>
							</g>
						</g>
					</g>
					<g>
						<g>
							
								<ellipse transform="matrix(0.7071 -0.7071 0.7071 0.7071 -51.5347 138.0572)" style="fill:#F7EDE5;" cx="140.882" cy="131.236" rx="10.808" ry="10.808"/>
						</g>
						<g>
							<path style="fill:#F7EDE5;" d="M226.977,139.809c0,5.969-4.839,10.808-10.808,10.808c-5.969,0-10.808-4.839-10.808-10.808         c0-5.969,4.839-10.809,10.808-10.809C222.138,129,226.977,133.839,226.977,139.809z"/>
						</g>
						<g>
							<path style="fill:#F7EDE5;" d="M330.961,97.693c0,5.969-4.839,10.808-10.809,10.808c-5.969,0-10.808-4.839-10.808-10.808         c0-5.969,4.839-10.808,10.808-10.808C326.122,86.885,330.961,91.724,330.961,97.693z"/>
						</g>
						<g>
							
								<ellipse transform="matrix(0.2796 -0.9601 0.9601 0.2796 74.2356 487.3829)" style="fill:#F7EDE5;" cx="361.895" cy="194.223" rx="10.808" ry="10.808"/>
						</g>
						<g>
							<path style="fill:#F7EDE5;" d="M415.937,312.494c0,5.97-4.839,10.808-10.808,10.808c-5.969,0-10.809-4.839-10.809-10.808         c0-5.969,4.839-10.808,10.809-10.808C411.098,301.686,415.937,306.525,415.937,312.494z"/>
						</g>
						<g>
							<path style="fill:#F7EDE5;" d="M122.247,300.07c0,5.969-4.839,10.809-10.808,10.809c-5.969,0-10.808-4.839-10.808-10.809         c0-5.969,4.839-10.808,10.808-10.808C117.408,289.262,122.247,294.101,122.247,300.07z"/>
						</g>
					</g>
				</g>
				<g>
					<g>
						<path style="fill:#FF9191;" d="M363.127,435.06c-14.16,6.452-28.991,11.561-44.026,15.473        c-15.882,4.146-31.881,6.073-47.909,7.708c-5.547-5.138-10.773-11.532-12.291-19.677        c-3.095-16.495-27.443-121.831-27.443-121.831s10.072-10.102,20.553,6.277c0.409,0.642,0.847,1.314,1.255,2.044        c-1.197-2.686-23.385-52.434-16.437-72.199c0.087-0.292,0.204-0.584,0.35-0.846c1.226-3.007,3.211-5.226,6.189-6.365        c0,0,0.029,0.029,0.058,0.087l6.919,12.35c0,0,0.146-0.117,0.408-0.292c1.431-1.022,6.657-4.087,12.875-0.905        c3.065,1.518,6.365,4.584,9.576,10.131c0,0,0.818-0.496,2.248-0.788c3.036-0.555,8.904,0.029,16.612,8.758        c11.444,12.904,14.918,23.852,14.918,23.852s0.234-0.087,0.701-0.146c2.277-0.467,9.839-1.168,15.707,7.591        c6.948,10.452,29.312,90.942,35.764,113.802C360.295,424.112,361.667,429.279,363.127,435.06z"/>
					</g>
					<g>
						<path style="fill:#302945;" d="M268.72,375.333c-0.462,0-0.89-0.294-1.041-0.755l-16.772-51.432        c-0.898-1.952-22.948-50.736-15.034-70.899c1.448-3.689,3.832-6.247,7.082-7.601c0.442-0.189,0.967-0.056,1.271,0.322        c0.262,0.325,6.513,8.14,12.839,24.14c6.261,15.836,34.742,85.38,35.03,86.081c0.228,0.559-0.038,1.199-0.599,1.429        c-0.552,0.23-1.196-0.039-1.428-0.599c-0.287-0.7-28.773-70.258-35.038-86.107c-5.165-13.064-10.377-20.683-11.995-22.891        c-2.321,1.19-4.001,3.171-5.123,6.026c-7.578,19.303,14.805,68.808,15.032,69.305l16.816,51.548        c0.188,0.574-0.127,1.193-0.702,1.38C268.946,375.316,268.832,375.333,268.72,375.333z"/>
					</g>
					<g>
						<path style="fill:#302945;" d="M306.736,351.107c-0.441,0-0.857-0.268-1.022-0.704c-0.241-0.63-24.137-63.167-28.78-72.454        c-0.488-0.975-0.958-1.942-1.423-2.895c-3.148-6.461-5.866-12.04-11.943-16.861c-6.404-5.075-11.363-1.392-11.571-1.235        c-0.476,0.368-1.163,0.281-1.534-0.197c-0.368-0.476-0.285-1.159,0.189-1.531c0.064-0.048,6.485-4.929,14.275,1.246        c6.468,5.131,9.423,11.198,12.552,17.62c0.461,0.947,0.928,1.906,1.413,2.874c4.691,9.384,27.882,70.074,28.866,72.652        c0.217,0.565-0.067,1.198-0.631,1.413C306.998,351.084,306.865,351.107,306.736,351.107z"/>
					</g>
					<g>
						<path style="fill:#302945;" d="M325.37,350.362c-0.455,0-0.879-0.285-1.035-0.74c-0.12-0.348-11.955-34.866-14.167-41.502        c-2.584-7.755-6.934-18.368-17.703-31.712c-10.611-13.151-18.374-8.649-18.698-8.452c-0.516,0.312-1.189,0.153-1.504-0.358        c-0.316-0.51-0.164-1.18,0.345-1.5c0.391-0.243,9.658-5.812,21.561,8.935c10.99,13.617,15.433,24.465,18.077,32.394        c2.21,6.628,14.04,41.137,14.159,41.485c0.197,0.572-0.108,1.195-0.68,1.39C325.608,350.343,325.489,350.362,325.37,350.362z"/>
					</g>
				</g>
			</g>
			<g>
				<g>
					<g>
						<g>
							
								<ellipse transform="matrix(0.7071 -0.7071 0.7071 0.7071 -261.1163 212.5318)" style="fill:#DBB0FF;" cx="125.99" cy="421.461" rx="47.317" ry="47.317"/>
						</g>
					</g>
					<g>
						<g>
							<path style="fill:#302945;" d="M125.991,459.182c-20.799,0-37.722-16.922-37.722-37.721c0-20.8,16.922-37.723,37.722-37.723         s37.722,16.922,37.722,37.723C163.713,442.259,146.79,459.182,125.991,459.182z M125.991,384.899         c-20.16,0-36.561,16.401-36.561,36.562c0,20.159,16.401,36.56,36.561,36.56s36.561-16.401,36.561-36.56         C162.552,401.3,146.151,384.899,125.991,384.899z"/>
						</g>
					</g>
				</g>
				<g>
					<g>
						
							<rect x="122.674" y="414.586" transform="matrix(0.7071 -0.7071 0.7071 0.7071 -255.6157 213.7389)" style="fill:#302945;" width="15.017" height="1.641"/>
					</g>
				</g>
				<g>
					<g>
						<g>
							<path style="fill:#FFA352;" d="M127.885,417.729c0.673-6.855,1.488-14.093,5.624-19.602c2.645-3.523,6.559-6.073,10.85-7.069         c5.405-1.254,11.043-0.087,16.467,1.08c-0.348,3.63-1.078,6.5-1.426,10.13c-0.283,2.956-0.607,6.036-2.2,8.542         c-2.334,3.674-6.838,5.283-11.094,6.193C140.612,418.18,133.493,418.059,127.885,417.729z"/>
						</g>
					</g>
					<g>
						<g>
							<path style="fill:#FFFFFF;" d="M129.623,416.099c0.48-4.891,1.062-10.055,4.013-13.985c1.887-2.514,4.679-4.332,7.742-5.043         c3.856-0.895,7.879-0.062,11.749,0.771c-0.248,2.59-0.77,4.638-1.018,7.228c-0.202,2.109-0.434,4.307-1.57,6.095         c-1.665,2.621-4.879,3.769-7.915,4.418C138.704,416.42,133.625,416.334,129.623,416.099z"/>
						</g>
					</g>
				</g>
			</g>
			<g>
				<g>
					<g>
						<g>
							
								<ellipse transform="matrix(0.7833 -0.6216 0.6216 0.7833 29.0846 268.4155)" style="fill:#DBB0FF;" cx="399.554" cy="92.489" rx="47.317" ry="47.317"/>
						</g>
					</g>
					<g>
						<g>
							<path style="fill:#302945;" d="M399.554,130.21c-20.799,0-37.722-16.922-37.722-37.721c0-20.8,16.922-37.722,37.722-37.722         c20.799,0,37.721,16.922,37.721,37.722C437.276,113.287,420.353,130.21,399.554,130.21z M399.554,55.927         c-20.16,0-36.561,16.401-36.561,36.562c0,20.16,16.401,36.56,36.561,36.56c20.16,0,36.561-16.401,36.561-36.56         C436.116,72.328,419.715,55.927,399.554,55.927z"/>
						</g>
					</g>
				</g>
				<g>
					<g>
						
							<rect x="396.237" y="85.614" transform="matrix(0.7072 -0.707 0.707 0.7072 57.1169 310.7773)" style="fill:#302945;" width="15.017" height="1.641"/>
					</g>
				</g>
				<g>
					<g>
						<g>
							<path style="fill:#FFA352;" d="M401.448,88.757c0.673-6.855,1.489-14.093,5.624-19.602c2.645-3.523,6.559-6.073,10.85-7.069         c5.405-1.254,11.043-0.087,16.467,1.08c-0.348,3.63-1.078,6.5-1.426,10.13c-0.283,2.956-0.607,6.036-2.2,8.542         c-2.334,3.674-6.838,5.283-11.094,6.193C414.175,89.208,407.057,89.087,401.448,88.757z"/>
						</g>
					</g>
					<g>
						<g>
							<path style="fill:#FFFFFF;" d="M403.187,87.127c0.48-4.891,1.062-10.055,4.013-13.985c1.887-2.514,4.679-4.333,7.742-5.044         c3.856-0.895,7.879-0.062,11.749,0.771c-0.248,2.59-0.769,4.638-1.017,7.228c-0.202,2.109-0.434,4.306-1.57,6.094         c-1.666,2.621-4.879,3.769-7.915,4.418C412.267,87.449,407.188,87.362,403.187,87.127z"/>
						</g>
					</g>
				</g>
			</g>
			<g>
				<g>
					<polygon style="fill:#F7EDE5;" points="455.601,224.239 458.37,179.008 460.524,224.547 471.909,215.316 465.139,226.085        489.447,229.162 465.755,232.239 472.524,241.777 461.139,235.624 458.062,275.008 455.601,236.238 443.909,241.162        451.293,232.239 421.755,228.239 450.985,227.008 444.216,216.854      "/>
				</g>
			</g>
			<g>
				<g>
					<polygon style="fill:#F7EDE5;" points="82.899,180.508 85.668,135.278 87.822,180.816 99.206,171.586 92.437,182.355        116.745,185.431 93.052,188.508 99.822,198.047 88.437,191.893 85.36,231.277 82.899,192.508 71.207,197.431 78.591,188.508        49.053,184.508 78.283,183.277 71.514,173.124      "/>
				</g>
			</g>
			<g>
				<g>
					<g>
						<path style="fill:#F7EDE5;" d="M79.877,393.924c-2.336,8.904-7.124,17.255-13.78,24.261c-0.613-0.788-1.197-1.576-1.781-2.394        c6.16-6.569,10.569-14.335,12.729-22.597c3.912-14.919-0.117-31.122-10.218-41.253c-0.935-0.963-1.956-1.868-2.949-2.803        c-2.219-1.985-4.496-4.058-6.218-6.598c-7.795-11.415-2.073-26.421,4.116-37.019c0.555-0.963,1.11-1.898,1.664-2.832        c3.591-6.014,7.299-12.262,8.233-19.064c0.525-4,0.146-8.35-1.168-13.284c-5.605-21.05-25.254-37.136-46.858-38.946        c0.204-0.964,0.409-1.927,0.613-2.89c22.655,2.073,43.208,18.977,49.076,41.078c1.431,5.342,1.81,10.043,1.226,14.451        c-0.993,7.386-4.876,13.868-8.613,20.145c-0.555,0.934-1.109,1.868-1.664,2.802c-5.751,9.868-11.152,23.765-4.233,33.896        c1.547,2.277,3.62,4.146,5.781,6.102c1.051,0.963,2.073,1.898,3.066,2.89C79.731,360.729,84.022,378.042,79.877,393.924z"/>
					</g>
				</g>
				<g>
					<g>
						<path style="fill:#F7EDE5;" d="M484.928,293.96c-0.146,0.496-0.321,0.993-0.467,1.489c-0.146,0.438-0.292,0.876-0.438,1.314        c-5.751-0.876-12.583-0.292-20.378,1.781c-10.51,2.773-18.539,6.657-24.524,11.853c-7.299,6.394-11.561,15.123-11.328,23.385        c0.117,4.233,1.343,8.7,2.511,12.992c2.102,7.649,4.262,15.561,0.38,22.685c-4,7.416-12.262,9.926-20.261,12.35        c-2.365,0.7-4.817,1.46-7.065,2.306c-14.51,5.518-25.662,19.531-27.793,34.917c-0.467,3.328-0.497,6.686-0.117,10.014        c-0.934,0.496-1.868,0.992-2.802,1.431c-0.496-3.941-0.526-7.941,0.029-11.853c2.248-16.408,14.189-31.355,29.662-37.224        c2.336-0.905,4.817-1.664,7.24-2.394c7.766-2.336,15.123-4.584,18.568-10.919c3.299-6.131,1.372-13.138-0.642-20.553        c-1.226-4.467-2.481-9.08-2.628-13.663c-0.233-9.138,4.379-18.714,12.35-25.662c6.306-5.489,14.714-9.576,25.662-12.495        C471.294,293.464,478.681,292.88,484.928,293.96z"/>
					</g>
				</g>
			</g>
		</g>
	</g>
</g>















</svg>
