<svg clip-rule="evenodd" fill-rule="evenodd" height="512" image-rendering="optimizeQuality" shape-rendering="geometricPrecision" text-rendering="geometricPrecision" viewBox="0 0 1707 1707" width="512" xmlns="http://www.w3.org/2000/svg"><g id="Layer_x0020_1"><g id="_605758640"><path d="m481 1033 846-940c2-3 6-5 10-6l345-86c6-2 14 0 19 5s7 12 5 19l-86 345c-1 4-3 7-6 10l-940 846-83-82 547-547c8-8 8-21 0-29-8-7-20-7-28 0l-547 547zm725-513c-5 0-10-2-14-6-8-7-8-20 0-28l98-97c7-8 20-8 28 0 8 7 8 20 0 28l-98 97c-3 4-9 6-14 6z"/><path d="m638 1457c-23 0-45-9-61-25l-302-302c-17-16-26-38-26-62 0-23 9-45 26-61l47-48c8-7 21-7 28 0l397 397c8 8 8 21 0 28l-47 48c-17 16-38 25-62 25z"/><path d="m204 1393 131-146 125 125-147 130c-9-24-23-47-42-66s-42-34-67-43z"/><path d="m142 1707c-38 0-73-15-100-42-56-55-56-146 0-201 27-27 62-42 100-42s74 15 101 42c26 27 41 63 41 100 0 38-15 74-41 101-27 27-63 42-101 42z"/></g></g></svg>