<?xml version="1.0" encoding="iso-8859-1"?>
<!-- Generator: Adobe Illustrator 26.5.3, SVG Export Plug-In . SVG Version: 6.00 Build 0)  -->
<svg xmlns="http://www.w3.org/2000/svg" xmlns:xlink="http://www.w3.org/1999/xlink" version="1.1" id="Capa_1" x="0px" y="0px" viewBox="0 0 512 512" style="enable-background:new 0 0 512 512;" xml:space="preserve">
<g>
	<g>
		<path d="M65.597,462.613c0-4.275-0.038-8.549,0.019-12.823c0.022-1.619-0.57-2.225-2.225-2.132    c-8.013,0.451-16.029,0.879-24.048,1.184c-1.971,0.075-2.556,0.792-2.403,2.681c0.75,9.241,1.401,18.491,2.135,27.733    c0.242,3.039-0.39,4.262-3.287,5.076c-3.984,1.119-8.069,1.765-12.213,1.771c-3.354,0.005-4.571-1.005-4.961-4.362    c-1.299-11.19-2.911-22.341-4.005-33.558c-1.151-11.796-2.542-23.569-3.795-35.356c-1.261-11.859-2.482-23.723-3.718-35.585    c-1.48-14.206-2.848-28.425-4.965-42.558c-0.753-5.024-1.392-10.069-1.916-15.122c-0.773-7.458,0.268-8.803,7.519-10.294    c3.9-0.802,7.827-1.458,11.816-1.478c4.212-0.022,5.591,1.142,5.984,5.334c0.77,8.208,1.363,16.432,2.064,24.647    c0.827,9.682,1.711,19.36,2.534,29.043c0.661,7.775,1.26,15.555,1.9,23.332c0.84,10.198,1.708,20.395,2.539,30.594    c0.52,6.383,1.018,12.768,1.477,19.156c0.215,2.989,0.283,3.019,3.242,2.886c7.874-0.355,15.749-0.692,23.627-0.894    c1.988-0.051,2.728-0.629,2.671-2.683c-0.493-17.53-0.204-35.072-0.604-52.6c-0.282-12.379,0.042-24.76-0.422-37.127    c-0.213-5.679-0.026-11.33,0.109-16.993c0.016-0.663,0.033-1.328,0.108-1.986c0.436-3.799,1.302-4.821,5.096-4.944    c4.631-0.15,9.282-0.378,13.905,0.266c3.551,0.494,4.375,1.441,4.445,5.031c0.64,32.64,0.4,65.284,0.463,97.927    c0.035,18.056,0.016,36.113-0.081,54.168c-0.024,4.556-0.31,9.122-0.721,13.661c-0.252,2.786-1.502,3.681-4.254,3.717    c-4.648,0.059-9.266-0.374-13.882-0.85c-2.147-0.221-3.373-1.304-3.526-3.504c-0.046-0.66-0.169-1.319-0.17-1.978    c-0.011-10.459-0.008-20.918-0.008-31.377C65.897,462.613,65.747,462.613,65.597,462.613z"/>
		<path d="M401.528,476.779c0.191-2.82,0.414-5.638,0.567-8.46c0.498-9.192,0.931-18.387,1.462-27.577    c0.926-16.03,1.913-32.056,2.861-48.085c0.656-11.105,1.258-22.214,1.941-33.318c0.557-9.044,1.196-18.082,1.805-27.123    c0.055-0.815,0.214-1.61,0.682-2.306c0.626-0.931,1.475-1.453,2.621-1.273c1.116,0.175,1.885,0.805,2.171,1.931    c0.461,1.818,0.301,3.668,0.19,5.501c-0.672,11.101-1.376,22.2-2.071,33.3c-1.009,16.1-2.014,32.199-3.033,48.299    c-0.614,9.701-1.194,19.405-1.89,29.1c-1.159,16.154-1.791,32.346-3.384,48.47c-0.204,2.07-0.956,3.298-3.104,4.227    c-3.213,1.389-6.501,2.362-9.857,3.187c-3.645,0.896-5.546,0.001-7.158-3.392c-2.449-5.152-3.873-10.658-5.351-16.136    c-4.477-16.586-7.736-33.454-11.435-50.217c-5.049-22.881-9.764-45.835-14.628-68.757c-0.15-0.707-0.366-1.401-0.552-2.106    c-0.622,0.181-0.511,0.606-0.521,0.935c-0.331,10.676-0.547,21.356-1,32.027c-0.606,14.272-1.356,28.537-2.116,42.802    c-0.592,11.105-1.262,22.205-1.953,33.304c-0.663,10.654-1.397,21.303-2.104,31.954c-0.078,1.181-0.24,2.348-0.761,3.432    c-0.38,0.789-0.957,1.316-1.886,1.278c-0.928-0.038-1.49-0.609-1.784-1.424c-0.483-1.336-0.559-2.737-0.516-4.144    c0.407-13.252,0.803-26.504,1.23-39.755c0.453-14.061,0.862-28.125,1.43-42.182c0.47-11.623,1.017-23.246,1.76-34.855    c0.869-13.596,1.699-27.192,2.202-40.807c0.081-2.205,0.255-4.419,0.581-6.6c0.435-2.911,2.075-4.324,4.969-4.299    c2.655,0.023,5.299-0.111,7.949-0.201c5.684-0.192,8.151,1.629,9.443,7.15c3.209,13.704,6.343,27.425,9.446,41.153    c6.97,30.834,13.904,61.676,20.855,92.514c0.188,0.835,0.416,1.661,0.626,2.492C401.317,476.805,401.422,476.792,401.528,476.779z    "/>
		<path d="M496.285,455.585c-2.1,5.388-4.145,10.721-6.81,15.797c-3.411,6.499-7.901,12.078-13.968,16.27    c-9.53,6.583-19.68,5.832-28.321-1.886c-7.506-6.705-11.836-15.317-14.977-24.638c-3.59-10.653-4.527-21.712-4.958-32.865    c-0.497-12.847,0.598-25.597,2.444-38.259c2.111-14.476,5.402-28.684,12.603-41.652c3.567-6.424,7.68-12.395,14.009-16.509    c10.882-7.075,22.954-5.145,31.133,4.929c6.361,7.835,9.306,16.935,10.377,26.803c0.447,4.124,0.467,8.228-0.06,12.339    c-0.056,0.438-0.038,0.896-0.161,1.313c-0.325,1.099-0.425,2.609-1.995,2.467c-1.454-0.132-1.392-1.594-1.4-2.638    c-0.035-4.502-0.392-8.975-0.966-13.434c-0.927-7.207-3.527-13.801-7.433-19.889c-0.627-0.978-1.504-1.815-2.348-2.632    c-5.139-4.978-11.217-4.861-16.185,0.259c-2.72,2.803-4.454,6.222-6.038,9.712c-4,8.807-5.796,18.185-7.307,27.675    c-2.018,12.674-2.907,25.451-3.721,38.224c-0.581,9.11-0.296,18.26,0.216,27.391c0.397,7.078,1.091,14.086,3.206,20.903    c1.24,3.997,3.032,7.681,5.684,10.903c3.569,4.336,7.919,5.149,13.064,2.903c5.221-2.28,8.451-6.457,11.358-11.067    c3.382-5.364,5.461-11.267,7.173-17.298c1.508-5.311,2.716-10.708,4.069-16.063c0.883-3.496,0.552-7.059,0.35-10.565    c-0.221-3.83-0.199-7.656-0.329-11.482c-0.104-3.061-0.185-3.195-3.131-2.922c-4.912,0.454-9.822,0.933-14.723,1.483    c-2.02,0.227-3.972-0.091-5.921-0.453c-1.175-0.219-2.027-0.937-1.998-2.274c0.031-1.42,1.047-1.864,2.223-1.987    c10.173-1.07,20.272-2.851,30.524-3.162c6.853-0.208,8.04,0.654,8.861,7.382c1.046,8.577,0.547,17.216,0.769,25.828    c0.342,13.256,0.307,26.513,0.401,39.77c0.006,0.884-0.002,1.769-0.024,2.652c-0.125,5.038-1.217,6.129-6.334,6.34    c-0.294,0.012-0.589,0.023-0.884,0.029c-5.265,0.095-6.349-0.705-7.014-5.975c-0.488-3.865-0.642-7.774-0.874-11.668    C496.629,463.622,496.476,459.602,496.285,455.585z"/>
		<path d="M237.207,477.082c-0.203-8.391-0.312-17.759-0.251-27.104c0.113-17.243-0.16-34.494,0.332-51.731    c0.282-9.874,0.261-19.747,0.418-29.62c0.106-6.703,0.253-13.405,0.425-20.106c0.068-2.648,0.924-3.608,3.487-3.98    c5.704-0.828,11.47-0.626,17.202-0.789c4.452-0.127,5.893,1.662,5.838,6.115c-0.127,10.314-0.178,20.63-0.491,30.939    c-0.405,13.327-0.613,26.657-0.906,39.986c-0.264,12.001-0.585,24.003-0.907,36.003c-0.194,7.219-0.164,14.437-0.358,21.652    c-0.2,7.433-0.524,14.862-0.767,22.294c-0.096,2.932-0.033,2.945,2.892,2.987c9.207,0.133,18.415,0.254,27.621,0.441    c3.016,0.061,6.032,0.26,9.04,0.498c1.05,0.083,2.478,0.102,2.521,1.587c0.044,1.525-1.347,1.444-2.424,1.64    c-2.781,0.507-5.588,0.245-8.383,0.326c-16.354,0.475-32.713,0.443-49.072,0.438c-5.006-0.001-6.191-1.183-6.21-6.288    C237.185,494.263,237.207,486.155,237.207,477.082z"/>
		<path d="M178.109,399.13c-0.118,23.077-1.741,46.04-5.198,68.869c-0.651,4.296-1.047,8.63-1.729,12.92    c-0.671,4.217-2.346,5.769-6.584,6.036c-4.043,0.255-8.103,0.232-12.132-0.354c-3.095-0.451-4.428-2.283-4.026-5.424    c1.132-8.836,2.205-17.679,3.418-26.504c0.258-1.875-0.346-2.235-2.068-2.262c-9.647-0.151-19.291-0.593-28.942-0.206    c-1.765,0.071-3.531,0.206-5.295,0.187c-1.632-0.018-2.28,0.662-2.101,2.28c0.527,4.758,1.039,9.518,1.512,14.281    c0.4,4.028,0.796,8.059,1.075,12.097c0.105,1.517,0.202,3.409-1.899,3.656c-1.995,0.234-2.492-1.534-2.911-3.026    c-1.382-4.91-1.928-9.978-2.631-15.008c-2.491-17.828-3.991-35.738-3.186-53.743c0.664-14.87,1.786-29.712,7.007-43.888    c3.488-9.471,8.455-17.783,17.13-23.487c14.993-9.858,33.103-5.373,41.821,10.385c3.421,6.184,4.939,12.89,5.792,19.806    C178.118,383.514,178.188,391.318,178.109,399.13z M157.672,386.078c0.079-3.613-0.098-9.945-1.086-16.222    c-0.825-5.241-1.534-10.574-4.721-15.037c-2.108-2.952-4.774-5.162-8.788-5.046c-7.732,0.224-13.342,4.366-17.918,10    c-4.676,5.758-7.129,12.704-9.012,19.778c-3.262,12.252-3.819,24.862-4.335,37.437c-0.365,8.902-0.096,17.818,0.731,26.706    c0.286,3.079,0.258,2.97,3.22,2.821c5.579-0.279,11.148-0.759,16.758-0.449c6.101,0.337,12.23-0.002,18.327,0.598    c1.445,0.142,2.18-0.438,2.267-1.969c0.101-1.762,0.362-3.515,0.583-5.269C155.825,422.616,157.567,405.777,157.672,386.078z"/>
		<path d="M193.002,445.764c0-7.368-0.148-14.74,0.026-22.105c0.697-29.466,0.264-58.937,0.441-88.405    c0.022-3.679,0.21-7.361,0.44-11.034c0.272-4.346,1.69-5.812,5.914-6.206c4.253-0.397,8.513-0.685,12.792-0.592    c4.174,0.091,5.713,1.496,5.595,5.601c-0.305,10.603-0.172,21.215-0.498,31.81c-0.343,11.123-0.173,22.242-0.355,33.361    c-0.185,11.267-0.173,22.538-0.486,33.801c-0.393,14.133-0.83,28.262-0.865,42.402c-0.006,2.424-0.218,4.855-0.465,7.27    c-0.367,3.598-1.688,4.734-5.275,4.766c-4.051,0.036-8.103,0.075-12.154,0.117c-3.415,0.035-5.092-1.508-5.107-4.923    c-0.04-8.621-0.013-17.242-0.013-25.863C192.996,445.764,192.999,445.764,193.002,445.764z"/>
		<path d="M319.511,344.204c-0.445,11.928-0.199,23.87-0.549,35.793c-0.262,8.914-0.013,17.832-0.415,26.73    c-0.409,9.061-0.199,18.119-0.39,27.176c-0.226,10.674-0.434,21.35-0.899,32.015c-0.18,4.122-0.197,8.243-0.36,12.361    c-0.157,3.952-1.357,5.174-5.279,5.127c-4.635-0.055-9.285,0.336-13.902-0.403c-3.235-0.518-4.195-1.564-4.369-4.763    c-0.874-16.056,0.195-32.097,0.359-48.145c0.039-3.832,0.089-7.663,0.099-11.495c0.046-18.05,0.514-36.095,0.605-54.145    c0.04-7.874,0.086-15.761,0.32-23.638c0.209-7.039,2.348-9.143,9.462-9.187c3.242-0.02,6.486-0.019,9.727,0.052    c4.052,0.088,5.597,1.694,5.593,5.669C319.51,339.635,319.511,341.92,319.511,344.204z"/>
	</g>
	<g>
		<g>
			<g>
				<path d="M162.369,287.646c-1.89,0.072-3.533-0.596-4.851-1.851c-3.89-3.705-7.869-7.33-11.18-11.597      c-1.354-1.746-1.771-3.627-1.284-5.81c1.058-4.745,1.875-9.541,3.142-14.242c0.549-2.037,1.583-3.511,3.516-4.529      c5.815-3.062,11.943-5.405,17.955-8.013c1.893-0.821,3.566-0.646,4.966,1.034c3.727,4.47,7.464,8.931,11.229,13.369      c1.424,1.679,1.981,3.47,1.535,5.701c-1.025,5.126-1.87,10.287-2.833,15.426c-0.317,1.692-1.271,3.031-2.88,3.687      c-5.729,2.335-11.424,4.764-17.352,6.571C163.71,287.581,163.025,287.566,162.369,287.646z M165.321,264.362      c0.374-0.023,0.525-0.014,0.667-0.044c5.657-1.189,10.745-3.967,16.168-5.811c0.836-0.284,0.606-0.82,0.134-1.352      c-3.222-3.631-6.436-7.268-9.641-10.914c-0.658-0.748-1.368-1.007-2.34-0.602c-4.889,2.038-9.774,4.083-14.479,6.528      c-0.894,0.464-1.282,0.949-0.422,1.817c2.751,2.776,5.023,5.959,7.546,8.929C163.624,263.703,164.361,264.455,165.321,264.362z       M163.803,282.392c-0.415,1.5,0.606,1.274,1.834,0.797c4.455-1.73,8.905-3.474,13.374-5.165c1.477-0.559,2.136-1.554,2.4-3.098      c0.667-3.911,1.482-7.798,2.237-11.694c0.121-0.622,0.683-1.359,0.036-1.839c-0.594-0.44-1.25,0.175-1.828,0.437      c-4.759,2.154-9.59,4.128-14.516,5.865c-0.907,0.32-1.502,0.774-1.646,1.817C165.118,273.662,164.483,277.802,163.803,282.392z       M159.812,282.996c0.805-5.247,1.513-9.871,2.225-14.495c0.106-0.689-0.34-1.058-0.765-1.483      c-2.857-2.863-5.562-5.862-8.054-9.051c-0.258-0.331-0.625-0.823-0.933-0.816c-0.627,0.013-0.633,0.713-0.742,1.184      c-0.816,3.506-1.587,7.022-2.42,10.524c-0.212,0.892,0.033,1.613,0.57,2.248C152.911,274.909,156.148,278.695,159.812,282.996z"/>
				<path d="M64.192,267.46c0.486-5.345,0.96-10.691,1.463-16.035c0.223-2.368,1.372-4.126,3.496-5.278      c3.298-1.79,6.556-3.655,9.845-5.46c1.553-0.852,3.122-0.92,4.887-0.432c5.889,1.628,11.795,3.2,17.396,5.681      c3.465,1.535,3.709,2.394,3.547,6.183c-0.236,5.526-0.869,10.988-1.775,16.436c-0.463,2.787-1.858,4.698-4.446,5.846      c-4.238,1.879-8.439,3.842-12.657,5.765c-2.276,1.038-4.528,1-6.834-0.004c-4.408-1.92-8.476-4.422-12.448-7.097      C64.676,271.724,64.121,269.741,64.192,267.46z M85.289,274.518c-0.364,1.739,0.142,2.034,1.585,1.391      c3.085-1.376,6.182-2.745,9.352-3.905c2.469-0.904,3.547-2.534,3.787-5.077c0.427-4.532,1.022-9.047,1.551-13.569      c0.059-0.501,0.382-1.108-0.035-1.471c-0.573-0.499-1.097,0.116-1.555,0.393c-3.962,2.397-7.919,4.801-12.221,6.56      c-0.749,0.306-1.212,0.755-1.281,1.604C86.083,265.198,85.674,269.951,85.289,274.518z M68.453,267.354      c-0.186,1.025,0.305,1.887,1.197,2.543c3.259,2.396,6.58,4.693,10.158,6.604c1.316,0.703,1.635,0.213,1.718-1.079      c0.321-4.982,0.692-9.961,1.088-14.937c0.067-0.848-0.125-1.374-0.935-1.748c-3.469-1.603-6.924-3.235-10.367-4.893      c-1.039-0.5-1.564-0.498-1.675,0.889C69.306,258.904,68.864,263.065,68.453,267.354z M99.084,248.918      c-5.422-2.037-10.789-3.805-16.33-4.987c-0.589-0.126-1.187-0.129-1.723,0.171c-2.564,1.439-5.132,2.873-7.672,4.353      c-1.123,0.654-1.055,1.238,0.161,1.811c3.194,1.504,6.352,3.083,9.531,4.619c1.015,0.49,2.046,0.736,3.195,0.362      C90.811,253.762,94.818,251.153,99.084,248.918z"/>
				<path d="M255.164,256.814c4.97,0.626,9.854,1.709,14.706,2.929c1.454,0.366,2.356,1.467,2.927,2.81      c2.268,5.331,3.218,11.003,4.196,16.657c0.284,1.641-0.579,3.027-1.762,4.109c-4.252,3.889-9.082,7.009-13.829,10.23      c-1.279,0.868-2.764,0.872-4.249,0.353c-4.103-1.435-8.143-2.997-12.006-5.021c-2.112-1.107-3.37-2.742-4.048-4.968      c-1.333-4.381-1.983-8.902-2.832-13.383c-0.291-1.538,0.303-2.79,1.343-3.792c3.784-3.644,8.195-6.464,12.546-9.353      C253.035,256.802,254.111,256.777,255.164,256.814z M258.742,290.989c0.5-0.129,0.997-0.13,1.333-0.363      c3.812-2.641,7.701-5.181,11.186-8.263c0.965-0.854,0.533-1.374-0.452-1.694c-3.291-1.068-6.582-2.135-9.886-3.164      c-1.264-0.394-2.449-0.172-3.569,0.593c-2.19,1.495-4.436,2.907-6.623,4.407c-1.418,0.972-4.03,1.538-3.898,3.058      c0.121,1.393,2.747,1.829,4.314,2.586C253.598,289.332,256.147,290.283,258.742,290.989z M242.02,271.501      c0.575,3.183,1.137,6.369,1.734,9.549c0.14,0.745,0.399,1.202,1.321,0.594c3.75-2.473,7.534-4.895,11.333-7.291      c1.029-0.649,1.022-1.425,0.738-2.46c-0.856-3.123-1.681-6.256-2.419-9.408c-0.35-1.494-0.914-1.785-2.232-0.924      c-3.09,2.019-5.977,4.301-8.815,6.646C242.686,269.027,242.004,270.078,242.02,271.501z M273.339,278.078      c-0.859-4.535-1.687-8.477-3.037-12.296c-0.524-1.482-1.352-2.593-2.998-2.896c-2.527-0.467-5.055-0.935-7.578-1.423      c-1.29-0.249-1.751,0.04-1.361,1.481c0.786,2.903,1.391,5.854,2.109,8.776c0.185,0.752,0.194,1.697,1.187,1.944      C265.575,274.635,269.25,276.27,273.339,278.078z"/>
				<path d="M401.125,262.1c2.532-0.222,4.799,0.501,6.945,1.791c3.532,2.124,7.081,4.219,10.645,6.288      c1.83,1.062,2.483,2.35,1.775,4.545c-1.763,5.468-3.657,10.88-5.805,16.209c-1.204,2.986-3.113,4.846-6.478,5.182      c-2.776,0.277-5.535,0.805-8.272,1.368c-2.243,0.461-4.165,0.021-6.06-1.246c-3.548-2.372-7.308-4.441-10.748-6.953      c-3.911-2.856-4.087-3.262-2.78-8.501c1.339-5.365,4.143-10.212,6.635-15.14c0.666-1.317,1.906-1.831,3.224-2.085      C393.817,262.862,397.453,262.306,401.125,262.1z M390.671,269.318c-0.948-0.113-1.185,0.479-1.456,0.991      c-2.137,4.034-4.053,8.171-5.808,12.386c-0.574,1.378-0.329,2.316,0.97,3.15c3.404,2.184,6.788,4.405,10.096,6.732      c1.35,0.949,1.893,0.763,2.529-0.75c2.11-5.016,4.324-9.991,6.592-14.938c0.482-1.05,0.178-1.417-0.71-1.836      c-3.592-1.694-7.16-3.438-10.743-5.151C391.613,269.649,391.051,269.467,390.671,269.318z M417.139,274.584      c-3.02,1.048-5.604,1.055-8.145,1.379c-1.087,0.139-1.679,0.553-2.084,1.59c-1.956,5.007-4.129,9.92-6.644,14.677      c-0.229,0.434-0.674,0.905-0.29,1.416c0.36,0.478,0.947,0.311,1.444,0.227c2.395-0.402,4.783-0.838,7.179-1.236      c0.948-0.157,1.658-0.623,2.049-1.49C413.007,285.925,414.887,280.518,417.139,274.584z M394.059,267.016      c8.998,5.723,14.655,6.89,21.625,4.501c-3.8-1.905-7.465-3.74-11.128-5.578c-0.605-0.304-1.223-0.446-1.912-0.329      C399.912,266.071,397.176,266.508,394.059,267.016z"/>
				<path d="M342.769,252.403c0.742,4.613-1.314,7.549-5.224,9.782c-2.864,1.636-5.465,3.744-8.122,5.725      c-1.948,1.453-3.948,1.759-6.227,0.899c-3.524-1.331-6.925-2.905-10.169-4.82c-1.405-0.829-2.32-1.999-2.586-3.654      c-0.678-4.215-1.389-8.425-2.074-12.639c-0.363-2.232,0.343-3.962,2.176-5.403c3.59-2.822,7.104-5.736,10.806-8.418      c2.334-1.691,4.614-2.249,7.411-1.035c2.896,1.257,5.936,2.198,8.954,3.149c2.504,0.789,3.744,2.465,3.986,4.986      C342.068,244.784,342.414,248.594,342.769,252.403z M326.689,235.883c-0.903-0.088-1.483,0.053-1.961,0.417      c-3.328,2.538-6.648,5.086-9.957,7.648c-0.87,0.674-0.419,1.044,0.356,1.346c3.077,1.199,6.147,2.417,9.22,3.627      c0.618,0.243,1.305,0.597,1.834-0.037c2.94-3.523,6.543-6.318,10.049-9.221c0.757-0.627,0.653-1.148-0.242-1.388      C332.802,237.423,329.6,236.628,326.689,235.883z M312.483,250.237c0.393,2.76,0.766,5.523,1.19,8.279      c0.122,0.791,0.278,1.638,1.046,2.108c3.201,1.958,6.52,3.688,9.996,5.107c0.872,0.356,1.21,0.065,1.112-0.901      c-0.356-3.504-0.729-7.009-0.962-10.522c-0.094-1.422-0.756-2.061-2.02-2.473c-2.862-0.932-5.733-1.861-8.522-2.988      C312.638,248.166,312.353,248.763,312.483,250.237z M339.42,253.173c-0.267-3.76-0.456-6.54-0.67-9.319      c-0.039-0.501-0.066-1.115-0.58-1.345c-0.585-0.261-0.921,0.32-1.277,0.654c-2.303,2.158-4.604,4.32-6.875,6.511      c-0.915,0.883-1.708,1.9-1.49,3.279c0.484,3.066,0.26,6.154,0.361,9.232c0.043,1.319,0.371,1.604,1.506,0.775      c1.6-1.167,3.184-2.397,4.921-3.326C338.362,258.007,340.131,255.836,339.42,253.173z"/>
			</g>
			<g>
				<path d="M456.694,133.369c0.012,7.724-6.177,13.983-13.829,13.985c-7.808,0.003-14.16-6.547-14.107-14.545      c0.049-7.427,6.334-13.873,13.536-13.884C450.449,118.914,456.681,125.164,456.694,133.369z M452.507,132.359      c0.004-4.797-4.308-9.232-8.959-9.214c-4.958,0.019-9.297,4.498-9.351,9.651c-0.052,5.016,4.04,9.259,9.001,9.335      C448.339,142.208,452.503,137.837,452.507,132.359z"/>
				<path d="M39.924,156.564c-5.338-0.027-9.675-4.389-9.694-9.75c-0.019-5.374,4.664-10.164,9.953-10.179      c5.261-0.015,10.021,4.672,9.985,9.834C50.129,151.956,45.425,156.592,39.924,156.564z M40.953,140.335      c-3.351-0.039-6.204,2.885-6.226,6.38c-0.019,3.031,2.565,5.694,5.521,5.69c3.194-0.004,6.17-2.982,6.213-6.22      C46.507,142.798,44.224,140.373,40.953,140.335z"/>
				<path d="M232.022,238.478c-4.139-0.114-7.267-3.261-7.125-7.17c0.163-4.493,3.857-8.121,8.099-7.952      c3.823,0.152,6.88,3.164,6.827,6.725C239.748,235.035,236.437,238.6,232.022,238.478z M236.735,230.523      c-0.138-2.244-1.344-3.323-3.577-3.2c-2.316,0.127-3.97,1.941-3.837,4.207c0.105,1.792,1.835,3.221,3.811,3.149      C235.217,234.604,236.869,232.697,236.735,230.523z"/>
				<path d="M139.925,234.361c0.077,3.888-3.05,7.506-6.543,7.569c-4.396,0.08-8.022-3.311-8.131-7.604      c-0.095-3.734,3.313-7.098,7.219-7.126C136.453,227.171,139.847,230.43,139.925,234.361z M136.328,233.607      c-0.044-1.987-1.264-3.177-3.178-3.1c-2.044,0.082-3.809,1.875-3.764,3.823c0.042,1.819,1.73,3.443,3.581,3.444      C134.774,237.775,136.377,235.788,136.328,233.607z"/>
				<path d="M330.568,289.547c3.339,0.017,6.254,3.056,6.171,6.433c-0.09,3.669-3.03,6.583-6.641,6.584      c-3.597,0.001-6.568-2.737-6.574-6.059C323.519,292.777,326.807,289.528,330.568,289.547z M329.824,298.409      c1.642,0.006,3.222-1.557,3.1-3.03c-0.113-1.368-1.042-2.042-2.377-2.082c-1.381-0.042-2.854,1.639-2.731,3.149      C327.922,297.752,328.767,298.34,329.824,298.409z"/>
				<path d="M442.113,253.598c-0.046,3.828-2.688,6.49-6.369,6.417c-3.784-0.075-6.614-2.79-6.579-6.31      c0.036-3.606,2.641-6.501,5.831-6.482C438.908,247.248,442.155,250.156,442.113,253.598z M436.038,255.555      c1.796,0.014,2.569-1.226,2.571-2.676c0.002-1.46-1.268-2.032-2.634-2.08c-1.701-0.06-2.332,0.926-2.312,2.504      C433.684,254.879,434.558,255.525,436.038,255.555z"/>
				<path d="M384.979,239.132c0.032,3.671-2.826,6.593-6.535,6.681c-3.413,0.081-6.278-2.687-6.297-6.084      c-0.021-3.735,2.844-6.797,6.374-6.812C382.454,232.902,384.945,235.299,384.979,239.132z M379.155,236.197      c-1.926,0.074-2.448,1.381-2.508,2.987c-0.054,1.447,0.762,2.194,2.185,2.177c1.871-0.022,2.625-1.338,2.709-2.896      C381.619,237.032,380.725,236.15,379.155,236.197z"/>
				<path d="M469.355,122.036c-3.098-0.039-5.677-2.629-5.628-5.65c0.047-2.898,2.465-5.16,5.537-5.182      c2.764-0.02,5.449,2.807,5.4,5.684C474.615,119.721,472.191,122.072,469.355,122.036z"/>
				<path d="M430.231,169.07c-3.207-0.062-5.477-2.312-5.465-5.417c0.012-2.896,2.558-5.365,5.416-5.251      c2.97,0.118,5.345,2.65,5.323,5.674C435.484,166.991,433.227,169.128,430.231,169.07z"/>
				<path d="M48.9,189.485c0.011,2.795-2.253,5.122-4.961,5.102c-2.729-0.02-5.195-2.198-5.253-4.637      c-0.066-2.783,2.731-5.68,5.421-5.613C46.554,184.398,48.89,186.907,48.9,189.485z"/>
				<path d="M73.484,147.842c-3.001,0.003-5.29-2.178-5.287-5.035c0.003-2.812,2.257-5.005,5.092-4.953      c2.826,0.051,5.122,2.379,5.187,5.257C78.537,145.818,76.405,147.839,73.484,147.842z"/>
				<path d="M111.73,292.638c3.017,0.027,5.094,1.993,5.137,4.863c0.04,2.705-2.214,5.405-4.493,5.384      c-2.733-0.025-5.465-2.538-5.492-5.051C106.85,294.891,108.976,292.614,111.73,292.638z"/>
			</g>
			<g>
				<path d="M215.193,278.754c-0.043,1.312-0.118,2.5-1.461,2.84c-1.325,0.336-2.097-0.592-2.553-1.634      c-0.588-1.343-1.062-2.748-1.466-4.16c-4.141-14.448-7.492-29.096-10.942-43.717c-0.316-1.341-1.191-3.29,0.715-3.859      c2.049-0.612,2.403,1.596,2.852,2.939c3.246,9.714,5.853,19.615,8.437,29.521c1.431,5.486,2.764,10.997,4.132,16.499      C215.048,277.753,215.119,278.34,215.193,278.754z"/>
				<path d="M290.54,230.716c0.272-1.216-0.501-3.051,1.146-3.237c1.471-0.166,1.701,1.646,1.933,2.809      c1.659,8.304,3.186,16.635,4.859,24.937c1.862,9.24,3.85,18.455,5.743,27.69c0.284,1.388,1,3.34-0.819,3.864      c-2.113,0.609-2.298-1.658-2.714-3.005c-2.419-7.83-3.656-15.926-5.254-23.942c-1.728-8.669-3.275-17.369-4.564-26.114      C290.72,232.699,290.643,231.67,290.54,230.716z"/>
				<path d="M147.722,321.724c-0.056,1.131,0.137,2.162-0.902,2.546c-1.134,0.419-1.805-0.419-2.28-1.268      c-0.463-0.827-0.841-1.72-1.125-2.626c-4.408-14.04-7.983-28.303-11.283-42.637c-0.322-1.399-1.178-3.444,0.945-3.919      c1.909-0.428,2.127,1.672,2.5,3.018c3.823,13.818,7.604,27.648,11.382,41.478C147.286,319.518,147.506,320.75,147.722,321.724z"/>
				<path d="M269.578,244.82c0.011,0.747-0.101,1.426-0.841,1.684c-0.835,0.29-1.419-0.163-1.801-0.871      c-0.242-0.45-0.466-0.925-0.6-1.415c-1.762-6.442-3.575-12.872-4.778-19.452c-0.092-0.502-0.098-1.022-0.11-1.534      c-0.011-0.472,0.163-0.904,0.632-1.058c0.508-0.167,0.858,0.197,1.057,0.587c0.632,1.24,1.362,2.456,1.79,3.768      c1.889,5.798,3.224,11.744,4.562,17.688C269.538,244.431,269.554,244.652,269.578,244.82z"/>
				<path d="M111.493,239.606c-0.009,0.776-0.106,1.456-0.833,1.745c-0.864,0.344-1.458-0.191-1.8-0.865      c-0.532-1.046-1.026-2.13-1.364-3.25c-1.489-4.936-2.92-9.889-4.36-14.839c-0.143-0.493-0.232-1.007-0.297-1.518      c-0.101-0.798-0.359-1.794,0.537-2.181c1.012-0.436,1.394,0.613,1.752,1.27c0.632,1.16,1.252,2.356,1.646,3.61      c1.504,4.778,2.919,9.583,4.355,14.382C111.297,238.523,111.385,239.11,111.493,239.606z"/>
			</g>
		</g>
		<g>
			<path d="M131.477,114.909c-0.928-0.569-1.756-0.36-2.542-0.36c-30.738-0.014-61.477-0.017-92.215-0.016     c-2.874,0-5.74-0.009-8.607-0.325c-3.085-0.34-3.746-0.836-3.616-4.005c0.319-7.816,1.063-15.569,3.585-23.065     c3.022-8.982,8.059-16.504,15.663-22.219c6.841-5.141,14.323-6.596,22.535-3.823c2.975,1.005,2.994,0.942,3.766-2.129     c2.894-11.524,6.85-22.576,14.351-32.033c9.242-11.651,21.188-19,35.677-22.179c9.295-2.039,18.551-1.964,27.75,0.807     c11.776,3.548,20.18,10.97,25.548,21.917c0.817,1.666,1.418,2.114,3.283,1.167c10.61-5.385,21.552-6.712,32.883-2.253     c8.315,3.272,13.96,9.146,17.074,17.448c0.596,1.588,1.066,2.025,2.788,1.314c10.416-4.308,21.194-7.068,32.513-7.761     c11.634-0.712,22.917,0.848,33.984,4.333c4.022,1.266,7.803,3.101,11.536,5.032c1.18,0.61,1.767,0.736,1.901-0.972     c0.904-11.561,7.062-19.456,17.459-24.068c14.708-6.524,28.717-4.806,41.974,4.092c0.551,0.37,1.069,0.798,1.65,1.11     c1.478,0.794,2.561,2.767,4.218,2.549c1.505-0.198,2.352-2.084,3.477-3.227c7.16-7.274,16.079-10.686,25.969-12.062     c8.486-1.181,16.588,0.258,24.404,3.561c11.934,5.043,18.951,14.318,22.605,26.453c0.616,2.046,1.367,4.06,1.846,6.137     c0.504,2.187,1.667,2.706,3.837,2.487c8.144-0.819,15.908,0.242,22.645,5.406c6.042,4.632,9.677,10.846,11.509,18.124     c0.97,3.853,1.701,7.775,2.343,11.698c0.585,3.569-0.348,4.679-3.896,5.132c-0.946,0.121-1.91,0.133-2.866,0.134     c-31.844,0.046-63.69-0.081-95.532,0.205c-13.189,0.118-26.378,0.111-39.566,0.253c-2.531,0.027-2.518,0.036-1.752,2.472     c2.219,7.06,3.725,14.249,4.001,21.672c0.095,2.555,0.332,2.63,2.712,1.923c8.127-2.414,15.682-0.738,22.571,3.774     c10.694,7.004,16.404,17.279,18.428,29.705c0.651,3.993,0.933,8.047,1.334,12.078c0.111,1.115,0.281,1.957,1.655,2.169     c11.096,1.71,17.418,9.105,21.933,18.585c1.855,3.896,2.85,8.048,3.296,12.33c0.368,3.539-1.478,5.705-5.073,5.866     c-16.647,0.746-33.305,0.336-49.959,0.404c-21.893,0.089-43.788-0.122-65.678,0.148c-44.075,0.544-88.149,0.195-132.223,0.262     c-18.348,0.028-36.702,0.269-55.044-0.074c-13.404-0.25-26.821,0.015-40.214-0.771c-1.761-0.104-3.512-0.379-5.267-0.578     c-2.524-0.286-3.744-1.762-4.474-4.173c-5.532-18.281,3.335-39.977,26.027-45.676c5.897-1.481,11.826-2.449,17.92-1.858     c1.941,0.188,3.205-0.111,3.439-2.493c1.301-13.2,5.914-24.877,16.002-33.955C131.199,115.445,131.279,115.224,131.477,114.909z      M413.109,199.351c0,0.16-0.001,0.321-0.001,0.481c1.916,0,3.833-0.032,5.749,0.011c1.357,0.03,1.802-0.442,1.571-1.865     c-0.694-4.292-2.273-8.235-4.519-11.914c-3.095-5.069-6.87-9.376-12.76-11.361c-1.99-0.671-4.057-0.697-6.065-1.146     c-2.767-0.618-3.912-1.847-4.194-4.652c-0.353-3.518-0.6-7.046-0.983-10.56c-0.987-9.042-4.096-17.22-10.473-23.848     c-7.504-7.8-16.126-11.702-27.06-7.302c-3.852,1.55-6.257-0.25-6.479-4.527c-0.191-3.68-0.226-7.368-0.878-11.006     c-3.346-18.682-11.639-34.609-26.045-47.224c-13.887-12.16-30.044-18.616-48.405-19.671c-12.234-0.703-24.084,1.247-35.6,5.374     c-23.193,8.312-39.937,23.337-48.86,46.633c-2.116,5.525-3.565,11.229-5.251,16.873c-1.062,3.559-3.074,4.724-6.705,3.995     c-1.298-0.26-2.575-0.64-3.845-1.019c-6.244-1.865-12.541-3.162-19.133-2.513c-10.221,1.006-18.429,5.505-24.166,14.054     c-4.462,6.649-6.892,14.111-8.04,22.033c-0.952,6.566-2.348,7.705-8.925,7.742c-5.392,0.03-10.754,0.229-15.978,1.766     c-8.9,2.619-16.156,7.162-20.358,15.946c-3.474,7.261-3.882,14.676-2.677,22.429c0.295,1.899,1.079,2.225,2.751,2.125     c5.29-0.316,10.585-0.652,15.881-0.725c11.861-0.164,23.726-0.328,35.584-0.372c45.839-0.173,91.68-0.067,137.52-0.062     c9.283,0.001,18.566,0.215,27.846,0.247C332.778,199.431,372.943,199.351,413.109,199.351z M155.338,106.906     c7.046,0.091,13.708,1.549,20.105,4.169c1.615,0.661,2.193,0.353,2.529-1.343c1.119-5.643,2.715-11.15,4.727-16.553     c7.19-19.304,19.651-34.014,37.86-43.766c3.272-1.753,2.868-1.149,1.439-4.356c-3.165-7.105-8.188-12.371-15.882-14.215     c-10.338-2.478-20.475-1.367-30.214,2.975c-2.676,1.193-4.213,0.706-5.64-1.912c-0.458-0.841-0.846-1.719-1.295-2.565     c-3.644-6.87-8.506-12.642-15.664-15.968c-16.476-7.656-32.601-5.764-48.121,2.698c-11.91,6.494-19.827,16.673-25.021,29.094     c-2.454,5.867-3.878,12.054-5.846,18.071c-1.382,4.223-2.588,4.803-6.686,3.223c-6.697-2.582-13.091-2.39-19.121,1.874     c-5.403,3.82-9.581,8.67-12.579,14.568c-3.73,7.339-5.114,15.328-6.566,23.304c-0.621,3.413-0.603,3.454,2.919,3.454     c26.969-0.001,53.938-0.044,80.907,0.016c8.32,0.019,16.648-0.387,24.96,0.303c1.341,0.111,2.604-0.158,3.882-0.624     C146.355,107.777,150.84,106.995,155.338,106.906z M344.483,23.943c-1.65-0.115-3.627,0.157-5.586,0.49     c-12.93,2.192-23.163,8.978-25.283,22.803c-0.319,2.083,0.138,3.214,1.887,4.342c5.588,3.607,10.714,7.833,15.276,12.671     c6.267,6.645,11.22,14.214,15.043,22.509c0.532,1.154,1.249,1.665,2.53,1.684c4.269,0.061,8.537,0.302,12.806,0.311     c28.007,0.057,56.015,0.014,84.022,0.124c13.702,0.053,27.409-0.374,41.108,0.288c2.972,0.144,2.967,0.064,2.174-2.9     c-0.514-1.921-0.949-3.865-1.504-5.774c-1.525-5.255-3.279-10.378-7.01-14.611c-6.229-7.066-14.192-8.752-23.081-7.692     c-4.487,0.535-6.976-0.97-8.401-5.28c-1.018-3.077-1.891-6.205-2.993-9.251c-2.764-7.638-7.209-14.159-14.317-18.23     c-14.406-8.252-28.932-7.794-43.291,0.367c-3.567,2.028-6.37,4.977-9.271,7.806c-2.571,2.507-4.043,2.699-7.058,0.887     c-1.641-0.986-3.22-2.075-4.826-3.12C360.048,27.03,352.953,23.983,344.483,23.943z"/>
			<path d="M223.319,168.585c-7.089-0.025-12.701-5.634-12.61-12.605c0.089-6.877,5.877-12.439,12.905-12.4     c6.868,0.038,12.437,5.8,12.418,12.85C236.013,163.334,230.495,168.611,223.319,168.585z M232.684,155.674     c0.02-4.688-3.634-8.299-8.448-8.346c-4.666-0.046-8.507,3.685-8.552,8.308c-0.046,4.744,3.754,8.761,8.35,8.824     C228.666,164.524,232.664,160.464,232.684,155.674z"/>
			<path d="M311.244,168.583c-6.95-0.051-12.564-5.671-12.523-12.537c0.04-6.866,5.889-12.518,12.9-12.465     c6.898,0.052,12.457,5.814,12.425,12.881C324.014,163.325,318.406,168.635,311.244,168.583z M320.696,155.745     c0.045-4.622-3.677-8.36-8.383-8.418c-4.69-0.058-8.528,3.619-8.612,8.252c-0.087,4.744,3.704,8.806,8.289,8.883     C316.706,164.54,320.649,160.593,320.696,155.745z"/>
			<path d="M250.424,167.456c-0.02-1.869,0.266-3.672,1.215-5.314c0.424-0.733,0.996-1.3,1.931-1.229     c0.949,0.072,1.453,0.734,1.66,1.548c0.416,1.637,0.739,3.297,1.086,4.951c0.782,3.722,3.013,6.22,6.605,7.301     c3.647,1.098,6.796-0.037,9.46-2.696c1.871-1.868,3.036-4.135,3.888-6.594c0.265-0.765,0.492-1.544,0.792-2.294     c0.338-0.846,0.768-1.699,1.907-1.392c1.092,0.294,1.207,1.287,1.078,2.149c-0.272,1.813-0.568,3.646-1.105,5.393     c-2.533,8.236-9.867,12.891-17.75,11.359C254.703,179.377,250.377,174.081,250.424,167.456z"/>
			<path d="M316.125,130.991c-3.035-0.658-5.951-1.505-8.926-1.893c-7.56-0.985-14.613,0.546-21.007,4.809     c-1.314,0.876-2.599,2.308-4.249,0.701c-1.084-1.056-0.501-2.942,1.391-4.535c2.476-2.083,5.482-3.149,8.534-3.973     c7.821-2.112,15.633-2.677,23.302,0.696c0.733,0.322,1.465,0.699,2.101,1.178c0.688,0.518,1.021,1.265,0.616,2.142     C317.52,130.916,316.805,131.03,316.125,130.991z"/>
			<path d="M231.567,127.697c-1.873,0.172-3.483,0.346-5.097,0.455c-0.802,0.054-1.626,0.078-2.415-0.045     c-1.084-0.17-2.014-0.694-2.043-1.953c-0.026-1.111,0.729-1.725,1.709-2.05c3.553-1.175,7.233-1.587,10.915-1.164     c6.387,0.733,12.432,2.46,17.27,7.07c1.292,1.231,2.527,2.494,3.035,4.261c0.185,0.643,0.227,1.357-0.424,1.809     c-0.66,0.458-1.278,0.148-1.815-0.284c-0.804-0.646-1.574-1.333-2.368-1.992C244.809,129.219,238.166,128.188,231.567,127.697z"/>
			<path d="M281.427,124.07c-1.237-0.107-1.835-0.757-1.503-2.054c0.332-1.295,1.249-2.135,2.361-2.773     c4.083-2.344,8.356-4.265,12.841-5.706c0.209-0.067,0.427-0.11,0.643-0.147c0.959-0.162,2.079-0.324,2.526,0.697     c0.475,1.086-0.506,1.724-1.315,2.242c-0.615,0.394-1.296,0.685-1.945,1.028c-3.631,1.917-7.265,3.831-10.89,5.76     C283.298,123.567,282.459,124.012,281.427,124.07z"/>
			<path d="M247.141,114.468c0.303,0.097,0.814,0.201,1.274,0.415c4.279,1.995,8.359,4.305,11.75,7.658     c0.462,0.457,0.855,1.007,1.185,1.57c0.392,0.669,0.524,1.407-0.154,2.001c-0.631,0.553-1.253,0.211-1.811-0.163     c-4.393-2.944-8.781-5.897-13.162-8.858c-0.632-0.427-1.172-0.987-0.903-1.828C245.562,114.508,246.235,114.391,247.141,114.468z     "/>
		</g>
	</g>
</g>
<g>
</g>
<g>
</g>
<g>
</g>
<g>
</g>
<g>
</g>
<g>
</g>
<g>
</g>
<g>
</g>
<g>
</g>
<g>
</g>
<g>
</g>
<g>
</g>
<g>
</g>
<g>
</g>
<g>
</g>
</svg>
