<?xml version="1.0" encoding="UTF-8"?>
<!-- Generator: Adobe Illustrator 25.2.0, SVG Export Plug-In . SVG Version: 6.00 Build 0)  -->
<svg xmlns="http://www.w3.org/2000/svg" xmlns:xlink="http://www.w3.org/1999/xlink" version="1.1" id="Capa_1" x="0px" y="0px" viewBox="0 0 500 500" style="enable-background:new 0 0 500 500;" xml:space="preserve" width="512" height="512">
<g>
	<path d="M318.054,261.818c0.487-0.722,0.868-1.259,1.221-1.815c10.084-15.866,21.25-30.95,33.142-45.495   c7.053-8.627,15.273-16.018,24.457-22.329c7.254-4.984,15.224-8.273,23.977-9.206c13.475-1.437,24.833,3.365,33.595,13.382   c7.556,8.638,11.503,19.054,11.634,30.683c0.088,7.793-1.976,15.16-5.178,22.168c-2.011,4.401-5.258,8.006-8.836,11.257   c-0.692,0.629-1.536,1.129-2.382,1.541c-1.028,0.5-1.724,0.469-2.726-0.655c-8.096-9.079-17.437-16.091-29.866-18.316   c-7.977-1.428-15.869-2.034-23.728,0.09c-3.264,0.882-6.485,2.212-9.451,3.838c-5.222,2.864-9.957,6.501-14.214,10.675   c-6.62,6.492-13.048,13.159-17.975,21.114c-0.941,1.519-0.916,2.552,0.189,3.986c7.28,9.449,14.406,19.018,21.703,28.454   c5.331,6.895,11.861,12.565,18.857,17.713c3.664,2.696,7.838,4.216,12.325,5.353c-0.014-0.291,0.024-0.518-0.043-0.706   c-3.712-10.446-3.025-20.536,2.448-30.232c3.356-5.946,7.692-11.043,13.069-15.285c6.739-5.316,14.318-7.551,22.803-6.294   c3.506,0.519,7.104,1.074,10.388,2.326c23.176,8.84,33.284,32.013,27.78,53.027c-2.731,10.427-7.22,19.908-14.002,28.252   c-8.797,10.823-20.222,17.513-33.659,20.927c-8.526,2.167-17.173,3.222-25.831,1.321c-9.906-2.176-19.256-5.848-27.552-11.894   c-9.115-6.643-17.443-14.092-24.245-23.153c-1.74-2.318-3.511-4.618-5.362-6.848c-7.201-8.676-13.218-18.107-18.158-28.234   c-0.266-0.545-0.569-1.073-0.963-1.813c-0.42,0.726-0.728,1.247-1.024,1.774c-5.717,10.198-11.506,20.356-18.194,29.963   c-7.1,10.199-15.422,19.237-25.042,27.163c-8.797,7.248-17.876,13.989-28.01,19.272c-8.211,4.281-16.857,6.628-26.143,6.477   c-7.399-0.121-14.363-2.163-21.079-5.049c-20.769-8.924-33.73-24.821-40.701-45.976c-2.015-6.116-3.275-12.418-3.814-18.821   c-1.028-12.191-1.701-24.405,1.25-36.456c2.932-11.975,7.26-23.421,13.706-33.971c12.822-20.986,27.468-40.599,44.122-58.726   c11.865-12.914,23.494-26.045,35.26-39.051c0.772-0.853,0.894-1.55,0.523-2.643c-2.868-8.454-6.018-16.836-8.383-25.432   c-3.033-11.024-4.572-22.345-4.51-33.818c0.038-7.125,1.127-14.119,3.472-20.865c3.037-8.735,8.763-14.876,17.842-17.306   c7.195-1.925,13.729-0.489,19.625,4.338c8.65,7.081,13.272,16.043,13.809,27.196c0.502,10.425-0.766,20.688-2.686,30.891   c-2.947,15.661-7.783,30.741-14.205,45.313c-0.479,1.088-0.414,1.917,0.148,2.914c7.719,13.701,15.439,27.402,23.096,41.138   c4.024,7.218,7.805,14.573,11.914,21.741c4.865,8.488,9.965,16.843,14.967,25.253C317.554,261.209,317.748,261.417,318.054,261.818   z M255.621,195.988c-0.222,0.443-0.347,0.646-0.429,0.865c-5.298,14.146-10.798,28.22-15.833,42.459   c-5.428,15.35-8.233,31.231-7.976,47.56c0.144,9.142,1.752,17.992,6.597,25.944c4.184,6.869,10.387,9.876,18.357,8.757   c7.84-1.101,14.759-4.541,21.158-9.068c7.926-5.608,14.475-12.567,19.998-20.531c0.635-0.916,0.628-1.57,0.163-2.561   c-7.523-16.048-15.159-32.046-22.428-48.209c-6.509-14.471-12.6-29.13-18.879-43.705   C256.165,197.071,255.945,196.658,255.621,195.988z M256.732,143.199c2.712-3.855,4.76-7.655,5.807-11.963   c1.296-5.33,2.291-10.677,1.437-16.19c-0.415-2.676-1.445-5.022-3.818-6.551c-3.576-2.303-7.038,0.689-8.32,4.065   c-0.713,1.875-0.904,3.907-0.964,5.912C250.61,127.245,252.926,135.375,256.732,143.199z"/>
	<path d="M76.828,258.66c0.639,39.559,12.978,82.349,39.463,120.632c23.26,33.623,53.752,58.477,92.435,72.162   c54.219,19.182,105.696,12.376,154.057-18.523c11.743-7.503,22.302-16.498,32.054-26.443c0.931-0.95,1.847-1.925,2.864-2.776   c1.108-0.929,2.463-0.868,3.375-0.006c0.893,0.843,1.006,2.213,0.19,3.384c-0.487,0.698-1.065,1.34-1.653,1.959   c-27.198,28.63-59.854,47.707-98.715,55.369c-47.393,9.344-91.519,0.365-132.067-25.57c-33.341-21.325-57.764-50.693-74.849-86.202   c-17.657-36.697-24.964-75.509-22.685-116.125c1.96-34.916,10.891-67.956,27.544-98.748c18.781-34.729,45.142-62.13,79.973-81.051   c22.155-12.035,45.873-18.991,71.027-20.76c41.999-2.953,80.309,8.011,115.118,31.366c27.043,18.144,47.971,41.917,63.456,70.522   c0.587,1.084,1.132,2.199,1.601,3.338c0.376,0.913,1.249,2.094-0.007,2.775c-1.182,0.642-1.71-0.681-2.225-1.468   c-2.787-4.252-5.447-8.588-8.301-12.794c-19.374-28.554-43.795-51.576-74.564-67.527c-25.678-13.311-53.021-19.963-81.958-19.428   c-38.963,0.721-73.805,13.557-104.564,37.191c-35.025,26.912-58.236,62.174-71.532,104.091   C79.938,205.868,76.671,228.866,76.828,258.66z"/>
	<g>
		<path d="M284.079,1.427c5.881-0.046,10.721,4.691,10.828,10.598c0.105,5.817-4.732,10.746-10.606,10.807    c-6.009,0.062-10.833-4.676-10.853-10.659C273.427,6.248,278.15,1.474,284.079,1.427z"/>
		<path d="M203.972,5.135c5.888-0.019,10.722,4.747,10.789,10.637c0.067,5.892-4.827,10.777-10.788,10.768    c-5.921-0.009-10.671-4.77-10.672-10.698C193.301,9.919,198.049,5.155,203.972,5.135z"/>
		<path d="M323.472,9.413c5.887-0.023,10.722,4.739,10.794,10.632c0.073,5.889-4.822,10.78-10.782,10.774    c-5.923-0.006-10.674-4.765-10.677-10.693C312.804,14.202,317.549,9.436,323.472,9.413z"/>
		<path d="M164.457,42.227c-5.896-0.07-10.594-4.921-10.515-10.854c0.08-5.913,4.93-10.64,10.826-10.55    c5.906,0.09,10.723,4.98,10.633,10.792C175.309,37.58,170.443,42.298,164.457,42.227z"/>
		<path d="M361.403,43.939c-5.92-0.012-10.667-4.78-10.662-10.708c0.004-5.924,4.758-10.685,10.68-10.698    c5.939-0.013,10.866,4.918,10.78,10.789C372.114,39.231,367.314,43.951,361.403,43.939z"/>
		<path d="M131.819,40.502c5.888-0.015,10.722,4.756,10.782,10.644c0.06,5.895-4.833,10.773-10.794,10.762    c-5.92-0.011-10.668-4.777-10.665-10.705C121.145,45.279,125.896,40.517,131.819,40.502z"/>
		<path d="M395.607,46.206c5.884-0.04,10.722,4.703,10.819,10.607c0.096,5.821-4.739,10.741-10.615,10.798    c-6.008,0.059-10.829-4.684-10.844-10.667C384.952,51.018,389.68,46.247,395.607,46.206z"/>
		<path d="M100.623,69.31c5.908,0.109,10.721,5.021,10.604,10.821c-0.121,5.979-4.981,10.666-10.972,10.583    c-5.891-0.082-10.581-4.949-10.486-10.882C89.863,73.92,94.732,69.201,100.623,69.31z"/>
		<path d="M423.293,75.013c5.886-0.027,10.722,4.731,10.8,10.626c0.077,5.831-4.755,10.729-10.635,10.779    c-6.004,0.051-10.819-4.702-10.824-10.687C412.627,79.807,417.369,75.04,423.293,75.013z"/>
		<path d="M79.348,100.683c5.889-0.009,10.722,4.77,10.774,10.652c0.052,5.898-4.84,10.767-10.803,10.753    c-5.918-0.015-10.663-4.785-10.656-10.714C68.669,105.451,73.426,100.692,79.348,100.683z"/>
		<path d="M444.407,129.218c-5.921-0.01-10.67-4.774-10.668-10.702c0.002-5.924,4.752-10.686,10.674-10.703    c5.938-0.017,10.866,4.91,10.786,10.784C455.118,124.503,450.316,129.229,444.407,129.218z"/>
		<path d="M63.643,153.462c-5.921-0.01-10.67-4.774-10.668-10.702c0.001-5.924,4.751-10.687,10.673-10.704    c5.938-0.017,10.866,4.91,10.786,10.783C74.354,148.745,69.552,153.472,63.643,153.462z"/>
		<path d="M57.151,190.255c-5.933,0.016-10.703-4.709-10.736-10.634c-0.033-5.981,4.782-10.807,10.749-10.771    c5.895,0.036,10.724,4.865,10.711,10.715C67.862,185.437,63.045,190.239,57.151,190.255z"/>
		<path d="M49.061,205.642c5.882-0.046,10.721,4.691,10.827,10.599c0.104,5.817-4.733,10.746-10.607,10.806    c-6.009,0.062-10.832-4.676-10.852-10.66C38.409,210.462,43.133,205.688,49.061,205.642z"/>
		<path d="M47.934,245.002c5.884-0.036,10.722,4.711,10.814,10.613c0.091,5.824-4.744,10.737-10.621,10.793    c-6.007,0.056-10.826-4.689-10.839-10.673C37.275,249.809,42.008,245.039,47.934,245.002z"/>
		<path d="M52.159,285.79c5.911,0.125,10.722,5.054,10.581,10.843c-0.147,6.046-5.076,10.72-11.137,10.559    c-5.812-0.154-10.427-5.029-10.321-10.903C41.388,290.379,46.272,285.665,52.159,285.79z"/>
		<path d="M61.265,322.582c5.909,0.111,10.722,5.023,10.602,10.822c-0.123,5.98-4.982,10.666-10.974,10.581    c-5.891-0.083-10.581-4.951-10.485-10.884C50.504,327.191,55.374,322.472,61.265,322.582z"/>
		<path d="M74.4,359.375c5.91,0.121,10.721,5.046,10.587,10.837c-0.14,6.043-5.071,10.722-11.131,10.565    c-5.812-0.151-10.43-5.024-10.327-10.897C63.632,363.97,68.512,359.255,74.4,359.375z"/>
		<path d="M93.873,415.006c-5.92-0.011-10.668-4.777-10.665-10.706c0.003-5.923,4.755-10.685,10.678-10.7    c5.939-0.014,10.866,4.915,10.782,10.787C104.583,410.295,99.782,415.017,93.873,415.006z"/>
		<path d="M244.966,0.002c5.911,0.126,10.721,5.056,10.58,10.844c-0.148,6.046-5.077,10.719-11.138,10.557    c-5.812-0.155-10.426-5.031-10.32-10.904C234.196,4.59,239.08-0.123,244.966,0.002z"/>
		<path d="M423.297,431.548c-5.92-0.011-10.667-4.778-10.664-10.706c0.004-5.924,4.756-10.685,10.678-10.699    c5.939-0.014,10.866,4.916,10.781,10.787C434.007,426.838,429.207,431.56,423.297,431.548z"/>
		<path d="M116.121,442.672c-5.92-0.011-10.668-4.776-10.666-10.704c0.003-5.924,4.753-10.686,10.676-10.702    c5.938-0.016,10.866,4.913,10.784,10.785C126.832,437.958,122.03,442.682,116.121,442.672z"/>
		<path d="M395.822,435.243c5.909,0.109,10.722,5.021,10.604,10.821c-0.121,5.979-4.981,10.666-10.972,10.583    c-5.891-0.082-10.581-4.949-10.486-10.882C385.063,439.853,389.931,435.134,395.822,435.243z"/>
		<path d="M142.869,444.655c5.913,0.134,10.721,5.071,10.57,10.854c-0.159,6.052-5.086,10.714-11.148,10.547    c-5.811-0.16-10.422-5.041-10.31-10.914C132.094,449.233,136.984,444.522,142.869,444.655z"/>
		<path d="M362.839,477.753c-5.922-0.008-10.672-4.77-10.672-10.698c-0.001-5.924,4.747-10.688,10.67-10.708    c5.937-0.02,10.866,4.904,10.79,10.779C373.55,473.03,368.747,477.762,362.839,477.753z"/>
		<path d="M174.01,457.774c5.886-0.029,10.722,4.726,10.803,10.623c0.081,5.829-4.752,10.731-10.63,10.782    c-6.005,0.052-10.821-4.699-10.829-10.683C163.346,462.571,168.085,457.803,174.01,457.774z"/>
		<path d="M325.135,472.037c5.915,0.143,10.72,5.089,10.557,10.866c-0.172,6.058-5.097,10.707-11.16,10.534    c-5.81-0.166-10.416-5.053-10.297-10.927C314.354,476.601,319.253,471.894,325.135,472.037z"/>
		<path d="M207.013,473.462c5.909,0.113,10.722,5.028,10.599,10.825c-0.126,5.982-4.985,10.664-10.977,10.578    c-5.89-0.084-10.579-4.954-10.482-10.887C196.251,478.068,201.124,473.349,207.013,473.462z"/>
		<path d="M285.753,477.17c5.912,0.126,10.722,5.057,10.58,10.844c-0.148,6.047-5.077,10.719-11.138,10.557    c-5.812-0.155-10.426-5.031-10.32-10.904C274.982,481.757,279.866,477.044,285.753,477.17z"/>
		<path d="M244.754,500c-5.92-0.01-10.669-4.775-10.667-10.703c0.002-5.924,4.752-10.686,10.675-10.702    c5.938-0.016,10.866,4.912,10.784,10.785C255.465,495.286,250.664,500.011,244.754,500z"/>
	</g>
</g>















</svg>
