<?xml version="1.0" encoding="UTF-8"?>
<!-- Generator: Adobe Illustrator 27.2.0, SVG Export Plug-In . SVG Version: 6.00 Build 0)  -->
<svg xmlns="http://www.w3.org/2000/svg" xmlns:xlink="http://www.w3.org/1999/xlink" version="1.1" id="Capa_1" x="0px" y="0px" viewBox="0 0 512 512" style="enable-background:new 0 0 512 512;" xml:space="preserve" width="512" height="512">
<g>
	<g>
		<path style="fill:#FFFFFF;" d="M201.648,512c-9.556,0-19.134-1.048-28.469-3.113c-30.494-6.744-60.178-23.689-88.229-50.362    c-34.807-33.098-58.629-77.634-68.892-128.799c-9.667-48.183-6.312-99.803,9.449-145.346c4.431-12.802,10.065-25.58,16.747-37.973    c6.441-11.947,13.856-23.555,22.146-34.686l-3.417-1.423c-6.721-2.796-10.522-9.957-9.073-17.092    c1.443-7.1,7.686-12.196,14.923-12.196c0.034,0,23.747,0.155,23.747,0.155c7.007-7.142,14.36-13.925,21.965-20.257l6.055-47.602    c0.957-7.518,7.296-13.189,14.873-13.306C133.551,0,133.631,0,133.71,0c7.476,0,13.863,5.437,15.037,12.844l3.247,20.476    c36.956-21.397,76.399-32.607,115.281-32.607c26.739,0,52.742,5.351,77.291,15.904c52.23,22.453,95.602,69.115,116.019,124.822    c15.747,42.96,18.492,92.343,7.81,139.477c5.693,24.561,7.543,47.047,5.536,67.125l12.598,0.332    c7.311,0.193,13.452,5.557,14.628,12.775c1.176,7.218-2.945,14.252-9.815,16.758l-28.011,10.207    c-2.575,5.463-5.602,10.638-9.055,15.484l8.346,29.816c1.964,7.015-1.315,14.438-7.824,17.71c-2.18,1.098-4.52,1.624-6.834,1.624    c-4.592,0.002-9.083-2.075-12.049-5.904l-11.963-15.452c-15.198,9.035-31.283,13.618-47.812,13.618    c-1.273,0-2.558-0.027-3.849-0.082l-3.584,2.987c-2.823,2.352-6.286,3.527-9.747,3.527c-3.465,0-6.93-1.177-9.755-3.535    c-1.046-0.872-1.948-1.859-2.702-2.93c-10.925-0.354-22.123-2.63-34.414-7.025c-0.362,0.6-0.723,1.197-1.083,1.797    c-9.821,16.292-19.976,33.14-35.45,46.455C256.222,502.839,229.975,512,201.648,512z"/>
	</g>
	<g>
		<g>
			<path style="fill:#EBB1FF;" d="M56.729,154.093c-6.249,11.59-11.547,23.549-15.761,35.725     c-29.986,86.656-12.287,193.626,55.545,258.128c22.851,21.73,50.236,39.718,81.025,46.529     c30.789,6.811,65.251,1.21,89.154-19.357c17.219-14.816,27.653-35.753,39.8-54.948c12.147-19.195,27.839-38.106,49.671-44.377     c11.449-3.289,23.717-2.801,35.18-6.042c27.899-7.888,45.161-35.784,54.961-63.071c18.344-51.078,19.73-108.587,1.053-159.545     C428.679,96.179,389.483,52.5,339.622,31.066C230.759-15.733,109.638,55.965,56.729,154.093z"/>
		</g>
		<g>
			<g>
				<g>
					<g>
						<path style="fill:#A27CFF;" d="M416.928,187.899C366.266,91.109,294.797,44.222,281.443,36.056l-2.239-0.184        c-13.794,7.461-87.639,50.495-143.355,144.436c-61.697,104.024-70.306,191.547-12.913,230.287        c56.897,38.405,108.151-14.134,147.476-18.54c39.191,5.773,87.876,62.094,147.185,26.491        C476.965,382.909,473.015,295.052,416.928,187.899z"/>
					</g>
					<g>
						<polygon style="fill:#A27CFF;" points="252.661,35.872 281.443,36.056 315.021,61.04 294.216,85.073 254.4,62.116       "/>
					</g>
				</g>
				<g>
					<path style="fill:#2F2444;" d="M390.384,187.899C339.722,91.109,268.253,44.222,254.9,36.056l-2.239-0.184       c-13.794,7.461-87.639,50.495-143.355,144.436C47.608,284.332,39,371.855,96.392,410.595       c56.897,38.405,108.151-14.134,147.476-18.54c39.191,5.773,87.876,62.094,147.185,26.491       C450.421,382.909,446.471,295.052,390.384,187.899z"/>
				</g>
				<g>
					<path style="fill:#EBB1FF;" d="M339.546,410.579c-21.706,0.001-41.532-10.281-59.777-19.743       c-12.717-6.595-24.732-12.825-35.702-14.478c-10.834,1.248-22.878,6.702-35.627,12.476       c-28.805,13.044-61.452,27.829-96.873,3.92c-25.145-16.973-37.122-45.345-34.637-82.049       c2.402-35.473,18.264-78.825,45.872-125.372C172.68,101.234,238.718,62.62,251.45,55.733c0.18-0.098,0.384-0.144,0.587-0.123       l2.003,0.164c0.165,0.013,0.323,0.065,0.464,0.151c12.348,7.551,76.238,49.61,121.586,136.247       c25.097,47.947,38.635,92.081,39.15,127.63c0.533,36.785-12.934,64.482-38.944,80.095       C363.471,407.597,351.235,410.579,339.546,410.579z M244.085,374.242c0.051,0,0.102,0.004,0.153,0.012       c11.356,1.672,23.57,8.006,36.5,14.712c27.583,14.304,58.845,30.514,94.474,9.125c25.692-15.423,38.45-41.752,37.921-78.257       c-0.511-35.222-13.966-79.027-38.91-126.685c-44.834-85.655-107.835-127.45-120.605-135.296l-1.44-0.117       c-13.292,7.233-78.316,45.637-127.564,128.671c-27.44,46.265-43.202,89.296-45.582,124.44       c-2.467,36.425,8.876,63.395,33.713,80.16c34.445,23.247,66.523,8.724,94.824-4.094c12.958-5.868,25.198-11.411,36.398-12.665       C244.007,374.244,244.046,374.242,244.085,374.242z"/>
				</g>
				<g>
					<g>
						<g>
							<path style="fill:#A27CFF;" d="M259.241,138.708c0,21.832,17.765,39.808-1.117,44.634c-0.443,0.126-0.906,0.232-1.37,0.316         c-0.021,0-0.021,0-0.021,0c-3.014,0.632-6.132,0.948-9.314,0.948c-23.139,0-42.295-16.964-45.73-39.113         c-0.105-0.695-0.19-1.391-0.274-2.107c-0.19-1.644-0.274-3.33-0.274-5.036c0-0.969,0.021-1.939,0.105-2.908         c0.021-0.717,0.084-1.412,0.169-2.107c2.487-23.202,22.128-41.263,46.004-41.263c3.182,0,6.301,0.316,9.314,0.948         c0,0,0,0,0.021,0c0.464,0.084,0.927,0.19,1.37,0.316C277.006,98.204,259.241,116.855,259.241,138.708z"/>
						</g>
						<g>
							<g>
								<g>
									<path style="fill:#FBEEE5;" d="M235.933,133.334v2.107h-34.687c0.021-0.717,0.084-1.412,0.169-2.107H235.933z"/>
								</g>
							</g>
							<g>
								<g>
									<path style="fill:#FBEEE5;" d="M235.933,143.386v2.107h-34.245c-0.105-0.695-0.19-1.391-0.274-2.107H235.933z"/>
								</g>
							</g>
						</g>
						<g>
							<path style="fill:#EBB1FF;" d="M293.689,138.345c0,22.338-15.869,40.988-36.942,45.309c-0.021,0-0.021,0-0.021,0         c-21.095-4.32-36.942-22.97-36.942-45.309c0-22.359,15.847-41.01,36.942-45.33c0,0,0,0,0.021,0         C277.82,97.336,293.689,115.986,293.689,138.345z"/>
						</g>
					</g>
					<g>
						<g>
							<path style="fill:#EBB1FF;" d="M184.485,272.639l-18.944,42.273c-0.078,0.216-0.232,0.506-0.382,0.65l-0.075,0.072         c-0.076,0.144-0.225,0.286-0.377,0.43c-0.003,0.146-0.076,0.144-0.078,0.218c-0.147,0.07-0.371,0.212-0.521,0.354         l-0.073-0.002c-0.224,0.142-0.376,0.358-0.669,0.424l-0.073-0.002c0,0-0.073-0.002-0.075,0.072         c-0.147-0.004-0.368,0.066-0.59,0.134c-0.073-0.002-0.146-0.004-0.146-0.004c-0.222,0.068-0.441,0.064-0.735,0.055         c-0.22-0.004-0.439-0.01-0.657-0.089c-0.146-0.002-0.219-0.004-0.219-0.004c-0.219-0.078-0.363-0.156-0.51-0.16         c-0.071-0.074-0.071-0.074-0.144-0.076c-0.292-0.08-0.505-0.305-0.648-0.455c-0.073-0.002-0.073-0.002-0.073-0.002         c-0.216-0.15-0.36-0.3-0.504-0.379c-0.071-0.074-0.071-0.074-0.142-0.222c-0.07-0.148-0.212-0.298-0.282-0.447         c-0.147-0.002-0.145-0.076-0.145-0.076c-0.143-0.15-0.209-0.444-0.278-0.667l-9.059-22.926l-10.127,22.477         c-0.078,0.216-0.232,0.506-0.308,0.65c-0.074-0.002-0.076,0.072-0.076,0.072c-0.149,0.144-0.298,0.286-0.45,0.43         c-0.003,0.146-0.076,0.144-0.078,0.218c-0.147,0.068-0.298,0.212-0.448,0.356c-0.146-0.004-0.146-0.004-0.146-0.004         c-0.223,0.14-0.449,0.356-0.596,0.426c-0.073-0.002-0.073-0.002-0.073-0.002s-0.073-0.002-0.075,0.07         c-0.293-0.006-0.441,0.064-0.59,0.134c-0.073-0.002-0.146-0.002-0.219-0.004c-0.222,0.068-0.441,0.062-0.662,0.058         c-0.22-0.006-0.512-0.012-0.731-0.09c-0.073-0.002-0.146-0.004-0.219-0.006c-0.219-0.078-0.363-0.154-0.51-0.158         c-0.071-0.074-0.071-0.074-0.143-0.076c-0.219-0.078-0.506-0.305-0.649-0.455c-0.073-0.002-0.073-0.002-0.073-0.002         c-0.217-0.15-0.286-0.301-0.504-0.379c-0.072-0.074-0.072-0.074-0.142-0.222c-0.142-0.15-0.212-0.298-0.356-0.449         l0.002-0.074c-0.143-0.148-0.209-0.445-0.351-0.667l-17.012-43.117c-0.759-1.996,0.176-4.392,2.319-5.147         c1.998-0.833,4.392,0.175,5.149,2.245l13.558,34.243l9.975-22.259c0.696-1.595,2.255-2.439,3.866-2.402         c1.537,0.037,3.055,0.953,3.751,2.581l8.918,22.702l15.075-33.57c0.928-2.029,3.294-2.926,5.397-1.998         C184.515,268.243,185.411,270.682,184.485,272.639z"/>
						</g>
						<g>
							<path style="fill:#EBB1FF;" d="M201.896,270.997c0.053-2.27,1.851-3.986,4.121-3.933c2.198,0.051,4.06,1.852,4.007,4.122         l-1.015,43.207c-0.054,2.27-1.998,3.984-4.196,3.933c-2.27-0.053-3.985-1.852-3.932-4.122L201.896,270.997z"/>
						</g>
						<g>
							<path style="fill:#EBB1FF;" d="M262.289,276.518l-11.644-0.274l-0.918,39.106c-0.053,2.27-1.852,3.986-4.121,3.933         c-2.198-0.051-3.987-1.852-3.934-4.122l0.918-39.106l-11.57-0.272c-2.271-0.053-3.983-1.998-3.932-4.196         c0.054-2.27,1.852-3.986,4.123-3.933l31.269,0.735c2.197,0.051,3.986,1.852,3.933,4.122         C266.362,274.709,264.486,276.57,262.289,276.518z"/>
						</g>
						<g>
							<path style="fill:#EBB1FF;" d="M279.036,293.69c0.414-14.499,12.846-26.003,27.495-25.733         c6.443,0.152,12.252,2.412,16.782,6.11c1.723,1.504,1.955,4.075,0.595,5.876c-1.508,1.797-4.224,2.025-5.878,0.667         c-3.161-2.71-7.156-4.196-11.694-4.303c-5.053-0.119-9.789,1.821-13.307,4.964c-3.374,3.289-5.529,7.637-5.645,12.615         c-0.117,4.98,1.826,9.568,5.047,12.869c3.366,3.301,8.006,5.464,13.059,5.581c4.539,0.107,8.525-1.192,11.883-3.752         c1.714-1.204,4.416-0.848,5.841,0.945c1.274,1.86,0.92,4.49-0.871,5.84c-4.697,3.48-10.606,5.466-17.049,5.316         C290.645,320.341,278.766,308.265,279.036,293.69z"/>
						</g>
						<g>
							<path style="fill:#EBB1FF;" d="M344.568,317.577l1.015-43.207c0.053-2.27,1.853-3.986,4.123-3.933         c2.27,0.053,4.059,1.854,4.006,4.124l-0.413,17.575l18.967,0.446l0.413-17.577c0.053-2.27,1.851-3.986,4.122-3.933         c2.27,0.053,4.06,1.854,4.007,4.124l-1.015,43.207c-0.054,2.27-1.926,3.984-4.196,3.931         c-2.271-0.053-3.986-1.852-3.933-4.122l0.413-17.575l-18.967-0.447l-0.413,17.577c-0.054,2.27-1.925,3.984-4.195,3.931         C346.232,321.646,344.515,319.847,344.568,317.577z"/>
						</g>
					</g>
					<g>
						<g>
							<path style="fill:#EBB1FF;" d="M324.752,215.43c-0.497,0-0.939-0.353-1.034-0.858c-1.412-7.476-2.354-15.12-2.802-22.721         c-0.034-0.58,0.409-1.079,0.99-1.113c0.565-0.035,1.079,0.409,1.113,0.99c0.442,7.511,1.374,15.065,2.769,22.453         c0.108,0.571-0.268,1.123-0.84,1.23C324.883,215.424,324.816,215.43,324.752,215.43z"/>
						</g>
						<g>
							<path style="fill:#EBB1FF;" d="M335.523,218.658c-0.514,0-0.964-0.376-1.041-0.899c-1.431-9.676-3.257-19.421-5.429-28.966         c-0.129-0.567,0.227-1.132,0.794-1.261c0.563-0.128,1.131,0.227,1.261,0.794c2.185,9.597,4.02,19.395,5.458,29.124         c0.085,0.576-0.312,1.111-0.888,1.196C335.626,218.654,335.574,218.658,335.523,218.658z"/>
						</g>
						<g>
							<path style="fill:#EBB1FF;" d="M162.91,227.818c-0.01,0-0.02,0-0.029,0c-0.582-0.017-1.041-0.501-1.024-1.083         c0.287-10.436,1.054-20.979,2.28-31.337c0.068-0.577,0.589-1,1.171-0.922c0.578,0.068,0.991,0.592,0.922,1.17         c-1.218,10.295-1.981,20.774-2.266,31.147C163.947,227.365,163.478,227.818,162.91,227.818z"/>
						</g>
						<g>
							<path style="fill:#EBB1FF;" d="M175.308,231.564c-0.542,0-1.002-0.415-1.049-0.965c-0.878-10.417-0.882-20.981-0.012-31.398         c0.048-0.58,0.549-1.019,1.138-0.962c0.58,0.048,1.011,0.558,0.962,1.138c-0.86,10.3-0.856,20.745,0.012,31.045         c0.049,0.58-0.381,1.09-0.961,1.139C175.367,231.564,175.337,231.564,175.308,231.564z"/>
						</g>
						<g>
							<path style="fill:#EBB1FF;" d="M185.952,223.498c-0.501,0-0.945-0.358-1.036-0.869c-1.183-6.636-1.598-13.412-1.233-20.142         c0.032-0.58,0.526-1.021,1.109-0.995c0.581,0.031,1.026,0.527,0.995,1.108c-0.355,6.568,0.049,13.183,1.203,19.659         c0.103,0.572-0.279,1.12-0.852,1.222C186.076,223.493,186.014,223.498,185.952,223.498z"/>
						</g>
						<g>
							<path style="fill:#EBB1FF;" d="M158.949,379.548c-0.535,0-0.993-0.406-1.047-0.95l-2.826-28.502         c-0.058-0.579,0.365-1.096,0.944-1.153c0.573-0.047,1.095,0.366,1.152,0.945l2.826,28.503         c0.058,0.579-0.365,1.095-0.944,1.152C159.019,379.546,158.984,379.548,158.949,379.548z"/>
						</g>
						<g>
							<path style="fill:#EBB1FF;" d="M170.851,376.31c-0.492,0-0.933-0.347-1.032-0.848c-1.703-8.538-2.827-17.272-3.34-25.96         c-0.035-0.581,0.409-1.08,0.99-1.114c0.566-0.021,1.079,0.408,1.114,0.989c0.508,8.592,1.619,17.229,3.303,25.673         c0.114,0.57-0.256,1.126-0.827,1.239C170.989,376.304,170.919,376.31,170.851,376.31z"/>
						</g>
						<g>
							<path style="fill:#EBB1FF;" d="M178.79,367.186c-0.507,0-0.955-0.367-1.039-0.885l-2.62-16.153         c-0.093-0.575,0.297-1.116,0.872-1.209c0.571-0.099,1.115,0.297,1.209,0.871l2.62,16.153         c0.093,0.574-0.297,1.116-0.871,1.209C178.903,367.183,178.846,367.186,178.79,367.186z"/>
						</g>
						<g>
							<path style="fill:#EBB1FF;" d="M333.812,373.087c-0.012,0-0.022,0-0.034-0.001c-0.582-0.018-1.038-0.504-1.02-1.086         c0.216-6.859-0.735-13.651-2.827-20.19c-0.177-0.555,0.129-1.147,0.683-1.325c0.559-0.178,1.147,0.129,1.325,0.683         c2.164,6.767,3.148,13.799,2.925,20.898C334.847,372.637,334.379,373.087,333.812,373.087z"/>
						</g>
						<g>
							<path style="fill:#EBB1FF;" d="M346.2,373.627c-0.571,0-1.04-0.456-1.054-1.029c-0.218-9.377-1.619-18.709-4.166-27.737         c-0.158-0.561,0.168-1.143,0.728-1.3c0.56-0.161,1.142,0.166,1.3,0.728c2.596,9.199,4.023,18.707,4.246,28.261         c0.014,0.582-0.447,1.065-1.029,1.078C346.217,373.627,346.208,373.627,346.2,373.627z"/>
						</g>
					</g>
				</g>
			</g>
			<g>
				<polygon style="fill:#FFC945;" points="124.424,97.066 134.776,15.687 147.624,96.709 209.836,98.36 156.423,117.824       171.666,172.28 136.152,126.414 82.669,170.975 113.826,115.806 67.903,96.696     "/>
			</g>
			<g>
				<polygon style="fill:#FFC945;" points="401.785,362.761 412.137,281.382 424.985,362.405 487.197,364.056 433.784,383.52       449.026,437.975 413.513,392.11 360.029,436.671 391.187,381.502 345.264,362.392     "/>
			</g>
			<g>
				<polygon style="fill:#FBEEE5;" points="383.185,109.084 385.71,67.837 387.674,109.365 398.056,100.947 391.883,110.768       414.05,113.574 392.444,116.38 398.617,125.078 388.235,119.466 385.429,155.382 383.185,120.027 372.522,124.517       379.256,116.38 352.319,112.732 378.976,111.61 372.802,102.35     "/>
			</g>
			<g>
				<polygon style="fill:#FBEEE5;" points="192.287,430.324 194.813,389.077 196.777,430.605 207.159,422.186 200.986,432.007       223.153,434.814 201.547,437.62 207.72,446.318 197.338,440.706 194.532,476.622 192.287,441.267 181.625,445.757       188.359,437.62 161.422,433.972 188.078,432.849 181.905,423.59     "/>
			</g>
		</g>
	</g>
</g>















</svg>
