<?xml version="1.0" encoding="iso-8859-1"?>
<!-- Generator: Adobe Illustrator 26.5.3, SVG Export Plug-In . SVG Version: 6.00 Build 0)  -->
<svg xmlns="http://www.w3.org/2000/svg" xmlns:xlink="http://www.w3.org/1999/xlink" version="1.1" id="Capa_1" x="0px" y="0px" viewBox="0 0 512 512" style="enable-background:new 0 0 512 512;" xml:space="preserve">
<g>
	<g>
		<path d="M299.208,440.254c-0.149,3.801-2.261,8.693-6.309,12.71c-2.859,2.836-4.89,2.388-6.114-1.415    c-1.557-4.839-4.039-9.094-7.487-12.802c-6.743-7.253-15.385-10.056-24.971-10.459c-13.196-0.556-25.408,3.083-37.058,8.977    c-10.749,5.438-20.446,12.534-30.376,19.263c-9.437,6.396-19.045,12.484-30.189,15.529c-6.218,1.699-12.393,1.68-18.619-0.436    c-12.855-4.368-16.25-20.206-10.949-29.886c1.323-2.416,2.917-4.604,4.99-6.427c3.296-2.899,5.885-2.366,7.566,1.683    c2.754,6.631,7.437,11.309,14.165,13.707c5.305,1.891,10.749,1.258,16.127,0.024c7.582-1.74,14.587-4.932,21.47-8.46    c13.447-6.893,26.658-14.26,40.52-20.326c10.114-4.426,20.46-8.156,31.611-8.596c9.984-0.394,19.368,1.767,27.42,8.112    C296.007,425.395,299.262,432.166,299.208,440.254z"/>
		<g>
			<path d="M427.419,369.212c-3.103,6.208-6.856,11.784-12.203,16.181c-4.926,4.051-10.526,6.059-16.908,5.338     c-5.553-0.627-9.715-3.57-12.646-8.288c-0.813-1.309-1.585-2.644-2.57-4.292c-1.128,4.113-2.101,7.947-3.917,11.464     c-3.542,6.858-6.961,13.822-13.211,18.761c-2.699,2.133-5.634,3.902-8.911,5.042c-8.374,2.911-15.278-0.023-21.475-5.5     c-8.326-7.36-10.261-16.966-9.214-27.446c1.252-12.522,5.506-24.268,9.611-36.054c3.022-8.675,6.272-17.307,7.297-26.542     c0.312-2.812,0.295-5.602-0.372-8.366c-1.032-4.276-4.193-6.641-8.575-6.24c-7.399,0.676-12.588,5.026-16.266,10.96     c-7.04,11.355-11.298,23.882-14.653,36.773c-3.032,11.649-4.511,23.56-6.574,35.375c-0.58,3.322-1.431,4.282-4.718,4.829     c-1.917,0.319-3.863,0.549-5.804,0.632c-3.324,0.141-5.124-1.191-5.892-4.444c-1.257-5.326-1.761-10.759-2.055-16.214     c-0.301-5.589-0.621-11.177-0.964-17.332c-1.53,4.467-2.62,8.527-4.43,12.305c-4.538,9.474-9.718,18.401-18.239,25.087     c-9.949,7.806-22.422,3.514-27.393-6.467c-2.451-4.921-3.697-10.193-4.836-16.109c-1.695,4.587-3.099,8.7-5.06,12.57     c-3.746,7.393-7.766,14.596-14.154,20.145c-1.782,1.548-3.705,2.84-5.826,3.863c-7.899,3.81-15.64,1.311-20.002-6.311     c-3.466-6.058-4.604-12.696-5.232-19.486c-0.661-7.153-0.813-14.311-0.051-21.47c0.062-0.58,0.008-1.171-0.163-1.804     c-2.665,5.658-5.466,11.194-8.786,16.461c-2.023,3.21-4.525,5.963-7.541,8.224c-6.501,4.873-12.68,5.074-19.53,0.733     c-2.522-1.598-2.741-1.47-3.001,1.569c-0.67,7.845-1.306,15.708-3.886,23.221c-1.988,5.789-4.832,11.158-8.72,15.914     c-8.547,10.456-20.565,8.789-28.747-0.018c-4.2-4.52-6.958-9.923-9.151-15.649c-4.601-12.012-6.803-24.609-9.19-37.167     c-0.815-4.289-1.739-8.582-3.93-12.432c-2.102-3.693-4.886-6.485-9.548-6.438c-2.893,0.029-3.326,0.37-3.185,3.217     c0.279,5.6,0.647,11.196,1.028,16.79c0.386,5.67,0.917,11.332,1.232,17.006c0.432,7.776,0.731,15.559,1.061,23.34     c0.073,1.713,0.038,3.43,0.053,5.145c0.059,6.571-2.471,7.516-9.189,6.785c-2.12-0.231-2.363-2.326-2.614-3.99     c-0.719-4.776-1.354-9.567-1.927-14.363c-1.803-15.086-3.564-30.176-5.338-45.266c-1.656-14.083-3.271-28.172-4.976-42.249     c-1.275-10.518-2.643-21.024-4.011-31.53c-0.885-6.793,0.373-8.844,6.906-10.746c2.242-0.653,4.515-1.234,6.808-1.668     c2.791-0.528,4.551,0.727,4.988,3.502c0.923,5.852,1.287,11.764,1.734,17.664c0.935,12.346,1.831,24.694,2.714,37.043     c0.267,3.729,0.469,7.463,0.636,11.197c0.071,1.581,0.337,2.284,2.215,1.548c15.196-5.952,25.71-16.761,31.468-31.768     c5.871-15.302,6.205-30.899-0.505-46.222c-1.474-3.366-3.409-6.499-5.802-9.298c-5.294-6.191-12.396-7.789-20.07-7.441     c-9.636,0.436-17.985,4.273-25.177,10.555c-5.901,5.155-9.527,11.949-12.256,19.112c-5.557,14.591-9.1,29.619-8.781,45.388     c0.102,5.037-0.896,5.751-5.947,5.019c-1.541-0.223-3.075-0.502-4.615-0.731c-3.234-0.48-4.935-2.427-5.35-5.587     c-1.211-9.221-0.926-18.399,1.594-27.362c5.734-20.389,17.494-36.411,35.717-47.316c8.886-5.318,18.904-7.526,29.134-8.736     c8.204-0.97,16.221-0.223,23.885,2.872c12.163,4.912,19.13,14.408,22.43,26.723c3.54,13.208,1.395,25.967-3.951,38.303     c-6.991,16.13-18.952,27.547-34.228,35.771c-0.335,0.18-0.65,0.397-0.91,0.556c-0.088,0.553,0.268,0.65,0.54,0.737     c7.088,2.264,11.319,7.421,14.199,13.966c3.551,8.068,5.135,16.647,6.678,25.249c1.417,7.897,2.529,15.859,4.85,23.573     c0.812,2.701,1.882,5.269,3.328,7.702c3.527,5.933,9.303,6.115,13.213,0.414c3.031-4.419,5.167-9.249,6.663-14.361     c2.394-8.177,3.651-16.583,4.867-24.994c0.125-0.865,0.082-1.716-0.34-2.507c-5.706-10.69-6.266-22.087-4.225-33.689     c2.082-11.834,5.514-23.251,13.129-32.883c5.774-7.303,13.194-11.901,22.729-12.181c8.172-0.24,15.153,4.831,18.65,13.155     c0.414,0.985,0.803,1.98,1.353,3.342c0.758-1.653,1.323-2.987,1.972-4.279c1.104-2.198,2.771-3.467,5.385-3.36     c3.264,0.134,6.536,0.066,9.799,0.208c2.551,0.111,4.029,2.565,3.538,5.809c-0.993,6.555-2.413,13.028-3.894,19.486     c-3.822,16.671-6.48,33.498-7.219,50.617c-0.179,4.138-0.563,8.252,0.29,12.338c0.581,2.782,1.296,5.691,4.433,6.638     c3.107,0.937,5.36-0.936,7.38-2.998c2.47-2.52,4.438-5.398,6.188-8.466c5.953-10.439,10.034-21.654,13.176-33.162     c1.336-4.892,1.206-10.185,1.736-15.296c1.219-11.757,4.023-23.171,7.397-34.467c0.708-2.369,2.26-3.378,4.622-3.539     c2.952-0.2,5.903-0.443,8.842-0.774c4.391-0.494,6.685,1.714,5.774,6.026c-1.434,6.786-2.944,13.554-4.2,20.377     c-2.005,10.892-3.572,21.845-4.3,32.894c-0.401,6.091,0.271,12.161,1.788,18.084c1.928,7.532,7.863,9.282,13.726,4.122     c4.683-4.122,7.562-9.463,10.042-15.056c3.732-8.418,6.476-17.207,9.615-25.847c0.314-0.864,0.534-1.824,0.522-2.736     c-0.083-6.624,0.164-13.252-0.308-19.871c-0.273-3.824,0.178-7.634,0.436-11.438c0.229-3.366,2.105-5.654,5.45-6.511     c2.64-0.677,5.286-1.38,7.97-1.827c5.145-0.856,7.574,1.206,7.588,6.411c0.037,13.8,0.011,27.6,0.01,41.401     c0,0.821,0,1.642,0,2.463c0.118,0.009,0.237,0.018,0.356,0.027c1.109-4.354,2.085-8.748,3.354-13.055     c3.122-10.591,6.965-20.907,13.894-29.682c7.006-8.873,16.186-13.642,27.657-12.836c11.243,0.79,18.744,8.595,20.255,20.654     c1.309,10.444-0.864,20.507-3.895,30.38c-3.201,10.429-6.83,20.726-10.12,31.128c-1.959,6.194-3.227,12.532-2.357,19.099     c0.153,1.155,0.293,2.332,0.631,3.44c1.7,5.57,6.159,7.584,11.517,5.303c4.489-1.911,7.019-5.848,9.746-9.518     c5.585-7.513,8.238-16.377,11.225-25.074c0.123-0.359,0.174-0.77,0.15-1.15c-0.856-13.477,1.632-26.711,2.898-40.034     c0.826-8.687,1.925-17.368,0.737-26.105c-0.251-1.846-0.666-3.68-1.152-5.48c-0.447-1.657,0.071-2.81,1.575-3.421     c3.608-1.465,7.209-2.969,10.9-4.199c2.429-0.81,4.361,0.13,5.905,2.624c2.88,4.653,3.661,9.913,3.892,15.236     c0.371,8.526-0.963,16.942-2.011,25.365c-1.443,11.592-3.207,23.15-3.875,34.825c-0.174,3.04,0.224,6.072,1.037,9.023     c1.815,6.591,7.834,8.36,13.06,3.875c4.296-3.686,7.465-8.21,9.432-13.459c3.344-8.921,6.321-18,5.974-27.689     c-0.452-12.61-0.852-25.233-2.909-37.728c-0.661-4.013,0.485-5.361,4.54-5.902c3.166-0.423,6.319-0.949,9.483-1.386     c4.749-0.656,6.618,0.527,8.145,5.223c1.743,5.361,2.629,10.912,3.351,16.478c1.515,11.689,2.098,23.452,1.835,35.219     c-0.473,21.138-1.85,42.201-7.03,62.824c-3.258,12.971-8.015,25.408-13.451,37.601c-1.141,2.559-0.997,2.874,1.754,2.686     c22.829-1.56,40.997-11.35,53.799-30.571c1.815-2.725,3.536-5.491,4.91-8.486c1.407-3.067,3.599-3.596,6.482-1.793     c2.048,1.281,4.125,2.526,6.096,3.918c5.479,3.868,7.104,9.899,4.344,16.069c-3.294,7.364-8.66,13.103-14.71,18.225     c-9.015,7.631-19.876,11.14-31.178,13.565c-11.976,2.569-23.99,2.572-36,0.298c-1.889-0.358-3.007,0.015-4.05,1.682     c-4.683,7.485-9.938,14.56-16.16,20.843c-16.175,16.333-35.361,25.909-58.78,25.307c-9.2-0.236-17.904-2.69-25.324-8.455     c-11.002-8.546-15.354-23.122-10.904-37.057c4.438-13.9,15.147-20.745,28.558-23.753c10.54-2.364,21.249-1.313,31.859,0.171     c11.521,1.612,22.788,4.451,34.035,7.334c2.289,0.587,3.339,0.092,4.202-2.132c8.065-20.78,13.023-42.263,14.926-64.464     C427.171,378.832,427.723,374.056,427.419,369.212z M348.082,503.081c7.192,0.113,14.88-2.281,22.208-5.955     c15.903-7.972,27.258-20.454,35.52-35.993c0.879-1.652,0.071-1.957-1.262-2.314c-11.893-3.183-23.825-6.2-35.971-8.275     c-8.706-1.487-17.451-2.569-26.222-0.635c-10.112,2.23-17.828,7.732-21.211,17.752     C315.005,485.848,327.788,503.164,348.082,503.081z M142.869,360.088c-0.041,7.275,0.552,10.125,2.332,12.717     c2.047,2.981,5.753,3.841,8.842,1.985c2.587-1.554,4.644-3.663,6.166-6.273c7.998-13.715,13.223-28.376,14.738-44.23     c0.383-4.007,0.671-8.124-0.667-12.064c-1.822-5.362-6.176-6.882-10.897-3.824c-3.606,2.336-6.273,5.565-8.452,9.229     C146.881,331.164,143.372,345.944,142.869,360.088z"/>
			<path d="M231.612,283.261c-0.025-4.63,3.982-8.76,8.547-8.811c4.699-0.053,8.436,3.85,8.401,8.771     c-0.033,4.488-3.622,8.264-7.861,8.269C235.823,291.496,231.636,287.704,231.612,283.261z"/>
		</g>
	</g>
	<g>
		<g>
			<g>
				<path d="M436.317,98.633c-0.027,5.831-1.134,11.783-2.888,17.623c-0.768,2.557-1.978,4.892-3.719,6.953      c-2.68,3.172-6.529,4.379-9.768,2.988c-3.332-1.43-5.32-5.466-4.73-9.567c0.504-3.5,1.581-6.847,3.106-10.002      c2.999-6.205,6.647-11.974,12.081-16.411c2.481-2.026,4.535-1.425,5.426,1.624C436.448,93.974,436.246,96.166,436.317,98.633z       M432.069,94.47c-5.35,5.564-9.613,11.693-11.955,19.03c-0.654,2.048-0.945,4.097-0.674,6.204      c0.406,3.155,3.189,4.416,5.854,2.692c1.274-0.824,2.198-1.989,2.852-3.333C431.929,111.284,432.17,102.93,432.069,94.47z"/>
				<path d="M46.103,125.351c-0.834,8.593-2.237,17.229-7.616,24.645c-1.329,1.833-2.885,3.463-4.919,4.568      c-2.713,1.475-5.487,2.001-8.109,0.001c-2.542-1.939-3.118-4.772-2.659-7.762c0.598-3.895,2.126-7.495,4.293-10.758      c3.502-5.275,7.648-10.008,12.656-13.925c1.417-1.108,2.789-3.136,4.789-2.1C46.4,120.985,45.845,123.306,46.103,125.351z       M27.263,147.885c0.019,1.712,0.01,3.103,1.372,3.867c1.428,0.802,2.727,0.143,3.916-0.638c2.077-1.364,3.456-3.355,4.536-5.527      c2.803-5.635,4.07-11.714,4.991-17.879c0.083-0.557,0.398-1.357-0.382-1.641c-0.569-0.207-0.931,0.436-1.322,0.788      c-3.604,3.243-6.757,6.888-9.309,11.004C29.092,141.039,27.485,144.408,27.263,147.885z"/>
				<path d="M184.117,209.899c-0.469,7.769-2.614,15.217-5.942,22.326c-1.335,2.853-3.354,5.278-5.971,7.069      c-2.641,1.807-5.554,2.708-8.533,0.882c-3.014-1.847-3.45-4.879-2.904-8.034c1.326-7.662,5.586-13.782,10.693-19.349      c2.042-2.226,4.404-4.183,6.773-6.071c1.277-1.018,2.76-2.608,4.553-1.617C184.504,206.055,184.046,208.099,184.117,209.899z       M180.05,210.503c-0.827,0.517-1.326,0.744-1.723,1.09c-5.851,5.097-10.39,11.136-13.119,18.453      c-0.436,1.168-0.764,2.373-0.792,3.637c-0.031,1.424-0.093,2.905,1.406,3.691c1.509,0.791,2.92,0.212,4.137-0.708      c1.965-1.483,3.352-3.468,4.393-5.675c2.237-4.744,3.645-9.765,4.834-14.851C179.587,214.422,180.159,212.717,180.05,210.503z"/>
				<path d="M372.182,236.647c0.153,4.711-0.816,9.121-3.589,13.016c-1.962,2.757-4.918,3.79-7.727,2.771      c-3.113-1.129-4.916-3.662-4.273-7.148c1.405-7.615,5.404-13.816,11.343-18.731c1.637-1.355,2.603-0.086,3.112,1.354      C372.043,230.726,372.248,233.677,372.182,236.647z M367.435,232.435c-2.954,3.708-5.702,7.452-7.031,12.04      c-0.569,1.962-0.444,3.73,1.496,4.61c2.07,0.939,3.11-0.711,3.972-2.26C368.402,242.281,367.878,237.377,367.435,232.435z"/>
				<path d="M52.611,183.87c-0.344,4.564-1.009,9.505-3.722,13.854c-2.751,4.411-8.103,4.677-11.381,0.71      c-1.292-1.563-1.56-3.411-1.295-5.286c1.081-7.661,5.735-13.114,11.422-17.805c1.659-1.368,3.469-0.559,4.133,1.635      C52.4,179.064,52.563,181.249,52.611,183.87z M48.131,179.229c-3.23,3.477-5.784,6.787-7.404,10.721      c-0.5,1.214-0.826,2.526-1.04,3.824c-0.314,1.902,0.435,3.359,2.238,4.172c1.85,0.834,2.943-0.34,3.942-1.589      c0.736-0.92,1.127-2.024,1.486-3.15C48.76,188.796,48.468,184.301,48.131,179.229z"/>
				<path d="M327.656,212.193c-0.396,5.209-1.306,9.76-3.534,13.95c-1.267,2.384-3.144,4.057-5.956,4.333      c-3.905,0.383-6.438-1.808-6.585-5.737c-0.167-4.487,1.904-8.102,4.748-11.316c2.062-2.331,4.501-4.284,6.961-6.181      c1.589-1.226,2.978-0.799,3.594,1.127C327.33,209.759,327.473,211.246,327.656,212.193z M322.806,212.803      c-3.658,2.976-6.227,6.084-7.386,10.189c-0.435,1.539-0.744,3.214,1.138,4.001c1.809,0.757,3.051-0.471,3.779-1.86      C322.269,221.449,323.215,217.511,322.806,212.803z"/>
				<path d="M260.888,216.873c-0.354,5.399-1.149,10.587-4.273,15.133c-0.859,1.25-1.921,2.228-3.305,2.864      c-2.83,1.302-5.496,0.297-6.719-2.584c-1.268-2.988-0.878-5.948,0.3-8.847c1.886-4.642,4.847-8.495,8.77-11.596      c2.769-2.188,4.275-1.624,4.942,1.843C260.807,214.748,260.802,215.85,260.888,216.873z M256.377,215.559      c-3.256,3.62-6.297,7.353-6.791,12.42c-0.137,1.407-0.484,3.402,1.27,3.845c1.751,0.442,2.399-1.485,2.935-2.781      C255.56,224.769,256.281,220.25,256.377,215.559z"/>
				<path d="M99.412,201.464c-0.201,5.791-1.181,11.099-4.482,15.703c-1.646,2.295-3.681,4.064-6.812,3.62      c-3.56-0.505-5.603-3.579-5.076-7.611c0.446-3.415,2.077-6.328,3.991-9.093c1.913-2.763,4.277-5.137,6.788-7.349      c2.542-2.239,4.824-1.391,5.412,1.974C99.406,199.696,99.369,200.72,99.412,201.464z M95.925,202.668      c-0.184-0.552,0.503-1.62-0.269-1.98c-0.892-0.416-1.447,0.656-2.019,1.226c-2.88,2.868-5.47,5.946-6.838,9.868      c-1.004,2.878-0.509,5.287,1.241,6.013c1.664,0.69,3.607-0.56,4.95-3.274C94.809,210.847,95.631,206.914,95.925,202.668z"/>
				<path d="M372.132,97.71c-0.271-1.786,0.381-3.365,1.077-4.945c1.593-3.618,4.371-6.218,7.43-8.536      c1.361-1.031,2.681-1.153,3.5,0.849c0.42,1.026,0.752,1.989,0.73,3.127c-0.064,3.327-0.838,6.472-2.198,9.485      c-0.839,1.859-2.192,3.184-4.151,3.86C375.429,102.617,372.602,100.924,372.132,97.71z M381.014,88.734      c-2.75,1.9-4.174,4.577-5.085,7.585c-0.213,0.701-0.326,1.397,0.449,1.855c0.878,0.519,1.575-0.003,2.044-0.591      C380.49,94.992,380.717,91.86,381.014,88.734z"/>
			</g>
			<g>
				<path d="M198.457,257.232c0.493-2.66,1.355-5.169,2.381-7.609c3.952-9.408,7.938-18.801,11.963-28.178      c0.953-2.221,2.125-4.349,3.953-6.012c0.55-0.501,1.103-1.364,1.963-0.831c0.844,0.524,0.423,1.404,0.14,2.113      c-1.678,4.194-3.35,8.392-5.083,12.563c-3.498,8.415-7.029,16.817-10.559,25.219c-0.573,1.365-1.18,2.725-2.208,3.826      c-0.505,0.541-1.131,0.882-1.875,0.489C198.49,258.474,198.427,257.84,198.457,257.232z"/>
				<path d="M410.011,87.95c-0.285,0.806-0.644,1.999-1.122,3.142c-4.44,10.631-9.429,21.016-14.245,31.478      c-0.613,1.332-1.057,3.807-3.182,2.812c-1.84-0.862-0.437-2.84,0.045-4.158c4.116-11.267,8.879-22.26,14.252-32.987      c0.347-0.692,0.763-1.359,1.22-1.985c0.509-0.698,1.236-0.955,2.064-0.626C409.903,85.968,410.075,86.714,410.011,87.95z"/>
				<path d="M127.279,232.039c0.205-0.667,0.424-1.662,0.808-2.587c3.822-9.205,8.421-18.034,13.038-26.854      c0.251-0.48,0.567-0.93,0.889-1.368c0.655-0.89,1.5-1.458,2.602-0.919c1.15,0.563,1.126,1.649,0.727,2.632      c-1.225,3.025-2.42,6.071-3.836,9.008c-3.071,6.37-5.656,12.984-9.433,19.004c-0.667,1.063-1.371,2.104-2.469,2.751      C128.28,234.488,127.314,233.9,127.279,232.039z"/>
				<path d="M353.551,205.767c-0.25,0.734-0.61,1.842-1.005,2.938c-4.092,11.351-9.212,22.287-13.542,33.542      c-0.278,0.722-0.655,1.413-1.043,2.085c-0.4,0.692-0.918,1.394-1.842,1.035c-0.98-0.38-0.762-1.287-0.53-2.01      c1.025-3.183,1.991-6.393,3.194-9.51c3.447-8.927,6.99-17.817,10.52-26.712c0.4-1.007,0.913-1.979,1.458-2.918      c0.419-0.722,1.079-1.169,1.959-0.794C353.576,203.79,353.733,204.531,353.551,205.767z"/>
				<path d="M387.816,238.585c0.367-1.37,0.881-3.242,1.37-5.12c1.865-7.156,3.91-14.26,6.248-21.277      c0.467-1.401,0.909-2.826,1.786-4.043c0.488-0.677,1.18-1.109,2.019-0.804c0.878,0.319,1.015,1.151,0.881,1.95      c-0.167,0.995-0.421,1.98-0.707,2.948c-2.228,7.537-4.464,15.071-6.717,22.6c-0.539,1.8-1.42,3.453-2.382,5.057      c-0.368,0.613-0.883,1.203-1.689,0.978C387.769,240.635,387.834,239.833,387.816,238.585z"/>
				<path d="M63.948,152.727c0.146-0.425,0.306-0.945,0.5-1.452c3.12-8.157,6.832-16.055,10.592-23.928      c0.596-1.248,1.184-3.361,2.955-2.597c1.856,0.801,0.573,2.622,0.041,3.878c-3.068,7.244-6.196,14.463-9.368,21.663      c-0.56,1.271-1.382,2.435-2.152,3.602c-0.404,0.613-1.051,1.01-1.815,0.713C63.907,154.295,63.875,153.564,63.948,152.727z"/>
				<path d="M276.847,228.03c0.083-0.315,0.164-0.78,0.328-1.212c3.663-9.663,7.025-19.444,11.362-28.841      c0.39-0.845,0.816-1.683,1.321-2.462c0.464-0.716,1.087-1.557,2.048-1.155c1.209,0.506,0.433,1.523,0.173,2.205      c-2.106,5.518-4.294,11.004-6.436,16.508c-1.775,4.561-3.504,9.14-5.291,13.697c-0.309,0.789-0.768,1.528-1.223,2.249      c-0.386,0.612-0.931,1.154-1.726,0.785C276.74,229.497,276.763,228.81,276.847,228.03z"/>
				<path d="M57.363,219.185c0.072-0.379,0.098-0.695,0.193-0.988c2.396-7.43,5.446-14.583,9.139-21.459      c0.486-0.905,1.219-1.822,2.413-1.219c1.148,0.58,0.945,1.689,0.565,2.675c-2.72,7.047-5.699,13.983-8.916,20.817      c-0.197,0.418-0.483,0.804-0.779,1.161c-0.458,0.552-0.988,1.078-1.788,0.733C57.413,220.571,57.414,219.822,57.363,219.185z"/>
				<path d="M26.864,180.708c-0.151,0.516-0.288,1.295-0.597,1.998c-2.452,5.563-4.91,11.125-8.07,16.338      c-0.202,0.333-0.38,0.688-0.626,0.985c-0.674,0.812-1.27,2.101-2.574,1.373c-1.138-0.635-0.587-1.821-0.238-2.736      c2.336-6.122,5.054-12.072,8.159-17.842c0.326-0.606,0.792-1.152,1.268-1.656c0.451-0.477,1.076-0.683,1.716-0.447      C26.684,179.01,26.777,179.737,26.864,180.708z"/>
				<path d="M416.764,136.596c-0.41,2.112-1.592,3.977-2.377,5.996c-1.558,4.004-3.791,7.642-6.23,11.155      c-0.563,0.81-1.264,1.891-2.416,1.263c-1.112-0.606-0.68-1.824-0.322-2.726c0.685-1.728,1.426-3.451,2.334-5.069      c2.089-3.721,4.276-7.387,6.461-11.054c0.389-0.654,0.906-1.391,1.824-1.163C416.775,135.181,416.755,135.91,416.764,136.596z"/>
			</g>
		</g>
		<g>
			<path d="M137.235,101.609c-2.681-0.518-5.052,0.08-7.426,0.085c-32.355,0.065-64.711,0.108-97.066,0.133     c-3.898,0.003-4.675-0.73-5.03-4.818c-0.834-9.595,1.154-18.608,5.857-27.005c8.61-15.373,22.313-20.333,39.058-19.04     c1.088,0.084,2.182,0.114,3.264,0.243c4.193,0.498,4.229,0.519,5.301-3.435c1.957-7.22,3.715-14.5,7.397-21.122     c7.126-12.814,17.834-20.671,32.339-22.935c8.679-1.355,17.056,0.431,25.152,3.662c7.315,2.919,13.4,7.598,18.755,13.258     c1.481,1.566,2.518,1.703,4.241,0.305c13.744-11.15,32.733-9.35,44.105-0.551c4.505,3.486,8.312,7.552,10.265,13.044     c0.47,1.322,1.164,1.6,2.48,1.151c20.391-6.957,39.797-3.494,58.629,5.667c1.295,0.63,1.892,0.724,2.206-0.915     c1.836-9.575,7.81-15.917,16.21-20.19c13.254-6.743,26.2-5.514,38.732,1.971c1.972,1.178,2.838,1.173,4.045-1.012     C356.818,0.057,380.335-4.73,399.261,4.548c13.15,6.446,19.9,17.423,22.96,31.199c0.686,3.091,0.665,3.096,3.524,2.238     c9.605-2.882,19.353,1.288,24.559,10.575c3.712,6.621,4.768,13.794,4.051,21.256c-0.329,3.423-1.041,3.909-4.454,3.967     c-42.794,0.733-85.592,0.279-128.388,0.419c-2.891,0.009-2.98,0.123-1.794,2.655c4.07,8.691,6.209,17.946,7.977,27.308     c0.561,2.972,0.556,2.973,3.071,1.372c11.197-7.13,24.201-5.988,35.04,3.179c10.817,9.149,14.359,21.086,13.112,34.805     c-0.204,2.249-0.367,4.502-0.608,6.746c-0.141,1.316,0.569,1.777,1.686,2.068c2.569,0.671,5.083,1.514,7.424,2.794     c9.739,5.326,13.971,13.805,13.96,24.632c-0.003,2.714-0.824,3.399-3.543,3.493c-23.3,0.799-46.609,0.159-69.913,0.404     c-77.022,0.808-154.047,0.181-231.071,0.346c-3.267,0.007-6.539-0.242-9.801-0.472c-2.436-0.171-4.362-1.092-5.676-3.428     c-2.509-4.46-3.278-9.265-3.017-14.214c0.506-9.592,3.566-18.178,10.835-24.848c5.273-4.838,11.643-7.123,18.69-7.579     c3.895-0.252,7.811-0.13,11.644,0.659c2.007,0.413,2.574-0.227,2.728-2.182c0.747-9.513,3.113-18.423,9.818-25.704     C133.595,104.586,135.431,103.31,137.235,101.609z M214.786,178.4c32.032,0.303,72.643-0.322,113.255,0.299     c20.733,0.317,41.473,0.103,62.21,0.128c1.403,0.002,2.807-0.014,4.21,0.01c1.296,0.022,1.814-0.443,1.57-1.845     c-1.556-8.948-6.156-15.361-15.036-18.25c-1.481-0.482-3.01-0.814-4.497-1.279c-2.525-0.791-4.045-2.934-3.856-5.466     c0.168-2.252,0.42-4.497,0.625-6.746c0.845-9.227,0.04-18.109-5.727-25.852c-8.055-10.814-21.402-16.772-35.003-8.135     c-1.046,0.664-2.152,1.296-3.313,1.707c-2.93,1.037-4.928,0.068-5.789-2.888c-0.653-2.239-1.063-4.551-1.539-6.839     c-1.685-8.105-3.633-16.147-7.289-23.62c-10.648-21.768-27.936-35.291-51.467-40.759c-13.245-3.078-26.401-2.732-38.909,3.083     c-20.154,9.37-31.967,25.468-36.809,46.924c-0.96,4.255-1.657,8.57-2.625,12.824c-0.854,3.755-2.764,4.89-6.486,4.114     c-1.068-0.222-2.128-0.484-3.184-0.758c-4.973-1.293-9.884-2.923-15.076-3.107c-8.112-0.289-15.591,1.346-21.91,6.932     c-5.482,4.846-8.147,11.101-9.603,18.022c-0.544,2.588-0.801,5.236-1.266,7.842c-0.637,3.568-2.174,4.9-5.675,4.897     c-2.18-0.002-4.37-0.022-6.536-0.234c-10.786-1.056-19.799,1.97-25.798,11.469c-5.046,7.991-5.952,16.735-3.954,25.866     c0.337,1.538,1.184,2.237,2.814,2.092c2.326-0.207,4.662-0.412,6.993-0.413C132.147,178.393,169.178,178.4,214.786,178.4z      M69.38,55.292c-12.695,0.16-21.936,3.937-28.599,13.019c-6.037,8.23-8.181,17.702-8.698,27.683     c-0.086,1.671,0.838,1.919,2.186,1.923c6.465,0.018,12.929,0.132,19.394,0.276c10.442,0.234,20.893-0.001,31.34,0.076     c18.627,0.137,37.26-0.439,55.88,0.451c1.179,0.056,2.322-0.065,3.441-0.499c7.674-2.979,15.514-3.155,23.423-1.188     c3.475,0.864,6.897,1.956,10.314,3.037c1.36,0.43,1.994,0.219,2.197-1.313c0.368-2.779,0.891-5.539,1.368-8.303     c3.797-21.999,14.538-39.398,33.916-51.028c5.577-3.347,5.628-3.331,1.616-8.675c-10.266-13.674-30.749-16.658-45.341-6.606     c-4.9,3.376-6.338,3.265-10.786-0.751c-4.518-4.08-9.047-8.166-14.721-10.631c-11.704-5.085-23.512-6.586-35.458-0.776     c-10.835,5.27-17.816,13.918-21.688,25.16c-1.623,4.711-2.856,9.554-4.371,14.303c-1.145,3.588-2.64,4.518-6.369,4.559     C74.831,56.051,71.299,55.122,69.38,55.292z M374.339,69.846c20.548-0.237,46.882,0.234,73.217,0.438     c2.968,0.023,3.038-0.066,3.075-2.944c0.056-4.426-0.797-8.681-2.432-12.775c-3.858-9.661-12.264-14.415-21.226-12.045     c-6.403,1.693-7.63,0.938-9.138-5.62c-0.035-0.152-0.051-0.308-0.087-0.459c-2.508-10.503-7.194-19.5-16.797-25.375     c-13.332-8.156-30.015-8.285-42.351,1.245c-4.183,3.232-7.42,7.314-10.209,11.77c-0.993,1.587-2.191,2.889-4.265,2.762     c-1.533-0.093-2.811-0.913-4.058-1.699c-6.882-4.34-14.367-6.104-22.488-5.786c-10.913,0.428-23.65,8.033-27.068,19.943     c-1,3.486-1.112,3.541,1.812,5.562c8.548,5.906,16.084,12.864,21.632,21.702c1.588,2.53,3.117,3.431,6.199,3.388     C336.283,69.724,352.417,69.846,374.339,69.846z"/>
			<path d="M301.74,128.814c6.875-0.093,13.135,5.803,13.256,12.484c0.129,7.166-5.504,12.992-12.698,13.132     c-6.947,0.135-12.617-5.579-12.706-12.803C289.507,134.694,294.996,128.905,301.74,128.814z M312.083,141.711     c-0.11-5.27-3.947-9.164-8.969-9.102c-5.228,0.064-9.618,4.518-9.473,9.609c0.137,4.816,4.511,8.818,9.525,8.714     C308.154,150.828,312.186,146.658,312.083,141.711z"/>
			<path d="M271.578,146.989c0.589,6.832-4.708,13.365-13.203,13.569c-7.62,0.183-13.671-6.085-13.591-13.677     c0.012-1.182,0.198-2.325,0.65-3.419c0.339-0.821,0.772-1.627,1.808-1.539c1.052,0.09,1.316,0.959,1.452,1.844     c0.356,2.32,0.929,4.566,2.026,6.668c1.756,3.363,6.246,5.511,10.315,4.876c3.446-0.538,6.502-3.929,7.021-7.809     c0.165-1.233,0.274-2.474,0.451-3.705c0.129-0.901,0.448-1.74,1.569-1.652c1.05,0.082,1.413,0.913,1.484,1.809     C271.64,144.96,271.578,145.977,271.578,146.989z"/>
			<path d="M220.113,152.84c-6.795,0.037-11.913-4.847-11.945-11.398c-0.032-6.618,5.228-12.1,11.669-12.163     c6.351-0.062,12.179,5.838,12.195,12.346C232.047,147.853,226.786,152.804,220.113,152.84z M211.643,141.049     c-0.027,4.909,3.807,9.061,8.427,9.128c4.682,0.067,8.711-4.325,8.674-9.454c-0.034-4.754-3.49-8.081-8.412-8.098     C215.403,132.607,211.669,136.227,211.643,141.049z"/>
			<path d="M235.486,108.652c2.967-0.049,5.127,1.957,5.173,4.803c0.048,2.958-2.146,5.399-4.914,5.468     c-2.712,0.067-5.104-2.196-5.205-4.925C230.431,111.037,232.593,108.7,235.486,108.652z"/>
			<path d="M289.395,114.326c-0.052,2.586-2.076,4.617-4.608,4.625c-2.664,0.008-4.934-2.331-4.824-4.973     c0.107-2.578,2.304-4.501,5.051-4.42C287.601,109.634,289.448,111.645,289.395,114.326z"/>
		</g>
	</g>
</g>
<g>
</g>
<g>
</g>
<g>
</g>
<g>
</g>
<g>
</g>
<g>
</g>
<g>
</g>
<g>
</g>
<g>
</g>
<g>
</g>
<g>
</g>
<g>
</g>
<g>
</g>
<g>
</g>
<g>
</g>
</svg>
