<?xml version="1.0" encoding="UTF-8"?>
<!-- Generator: Adobe Illustrator 25.3.1, SVG Export Plug-In . SVG Version: 6.00 Build 0)  -->
<svg xmlns="http://www.w3.org/2000/svg" xmlns:xlink="http://www.w3.org/1999/xlink" version="1.1" id="Capa_1" x="0px" y="0px" viewBox="0 0 512 512" style="enable-background:new 0 0 512 512;" xml:space="preserve" width="512" height="512">
<g>
	<path style="fill:#FFFFFF;" d="M256.367,511.969c-24.349,0.379-48.715-2.705-72.197-9.575   C111.361,481.091,51.122,424.6,20.703,355.646c-34.135-77.375-24.97-166.92,21.017-237.716c3.339-5.141,6.864-10.161,10.57-15.044   C99.658,40.472,176.658,0.677,255.221,0.009c78.149-0.665,156.705,36.349,204.631,98.378   c65.854,85.232,69.633,213.181,8.923,302.151C421.855,469.298,339.212,510.679,256.367,511.969z"/>
	<g>
		<path style="fill:#5F2183;" d="M496.245,292.432c-21.798,148.364-177.418,245.9-324.531,191.027    c-57.165-21.2-105.137-64.534-132.213-119.254C11.248,307.921,6.566,240.182,26.493,180.452c1.303-3.916,2.694-7.774,4.17-11.574    C50.511,117.784,244.815,6.128,307.086,19.483c19.164,4.11,38.189,10.641,56.693,19.754    c66.671,32.468,114.622,95.477,129.884,166.999C497.161,222.632,497.961,280.753,496.245,292.432z"/>
		<g>
			<g>
				<polygon style="fill:#564BB7;" points="331.313,275.283 295.412,280.666 323.815,303.273 290.037,289.952 303.356,323.731       280.75,295.328 275.367,331.228 269.985,295.328 247.378,323.731 260.698,289.952 226.919,303.272 255.322,280.666       219.422,275.283 255.322,269.9 226.92,247.293 260.698,260.614 247.379,226.835 269.985,255.238 275.367,219.338       280.75,255.238 303.357,226.835 290.037,260.614 323.816,247.294 295.412,269.9     "/>
				<path style="fill:#564BB7;" d="M55.601,305.024l-33.783-13.33l13.33,33.783l-15.853-19.933c-0.223-0.989-0.42-1.978-0.618-2.968      c-0.099-0.519-0.198-1.014-0.297-1.533c-0.94-5.095-1.731-10.239-2.349-15.457c-0.297-2.473-0.544-4.946-0.767-7.444      c-0.643-7.123-0.965-14.344-0.965-21.64c0-0.569,0-1.162,0.025-1.731l20.824-26.19l-13.33,33.783l33.783-13.33L27.21,271.637      l35.885,5.391l-35.885,5.391L55.601,305.024z"/>
				<path style="fill:#564BB7;" d="M424.098,91.222l-22.604-28.416l-5.367,35.91l-5.391-35.91l-22.604,28.416l13.33-33.783      l-33.783,13.33L376.07,48.14l-35.885-5.367l23.594-3.537h0.025c3.339,1.632,6.653,3.363,9.893,5.169      c2.77,1.484,5.515,3.091,8.236,4.724c1.509,0.915,2.992,1.83,4.476,2.795c11.203,7.123,21.788,15.16,31.656,24.014l0.025,0.025      L424.098,91.222z"/>
			</g>
			<g>
				<path style="fill:#FF8933;" d="M324.134,90.752c0,5.54-0.297,11.005-0.841,16.397c-0.841,8.112-2.3,16.026-4.328,23.717      c-17.732,67.393-79.091,117.127-152.048,117.127c-4.328,0-8.582-0.173-12.811-0.519c-15.111-1.212-29.628-4.575-43.23-9.769      c-0.594-0.223-1.187-0.445-1.781-0.692c-5.861-2.3-11.574-4.971-17.065-7.963c-5.317-2.894-10.461-6.059-15.383-9.546      c-12.415-8.705-23.495-19.142-32.868-30.988c-4.897-6.109-9.299-12.588-13.231-19.414c-0.049-0.099-0.124-0.198-0.173-0.297      l0.371-0.223c1.162-3.017,2.424-6.01,3.734-8.977c2.028-4.649,4.204-9.2,6.529-13.701c5.589-10.956,12.019-21.417,19.191-31.335      c8.532-11.797,18.153-22.802,28.639-32.893c0.495-0.495,1.014-0.989,1.533-1.484c8.137-7.667,16.793-14.789,25.943-21.294      c5.194-3.685,10.536-7.172,16.026-10.461c4.452-2.646,8.977-5.169,13.627-7.518c5.688-2.943,11.5-5.663,17.46-8.137      c5.292-2.226,10.709-4.254,16.199-6.084c1.41-0.47,2.844-0.94,4.279-1.385c2.745-0.866,5.49-1.682,8.285-2.424      c5.515-1.533,11.154-2.869,16.842-3.982c2.028-0.42,4.081-0.791,6.133-1.138c5.243-0.915,10.536-1.657,15.902-2.201      c0.049-0.025,0.074-0.025,0.124-0.025c4.748-0.495,9.571-0.866,14.443-1.063c3.635-0.173,7.271-0.247,10.931-0.247      c2.251,0,4.501,0.025,6.727,0.099c7.469,0.198,14.863,0.717,22.134,1.608c6.084,0.692,12.069,1.657,18.004,2.819      c1.237,0.247,2.448,0.495,3.66,0.767c0.173,0.297,0.322,0.618,0.47,0.915c3.784,7.518,6.974,15.408,9.497,23.544      c1.533,4.922,2.844,9.967,3.883,15.086c0.618,3.067,1.162,6.158,1.608,9.299C323.59,75.666,324.134,83.159,324.134,90.752z"/>
				<g style="opacity:0.57;">
					<path style="fill:#F3C7D1;" d="M285.429,15.94L30.747,168.581c1.162-3.017,2.424-6.01,3.734-8.977       c2.028-4.649,4.204-9.2,6.529-13.701L263.295,14.332C270.764,14.53,278.158,15.049,285.429,15.94z"/>
					<path style="fill:#F3C7D1;" d="M215.168,17.77L60.201,114.568c8.532-11.797,18.153-22.802,28.639-32.893       c0.495-0.495,1.014-0.989,1.533-1.484c8.137-7.667,16.793-14.789,25.943-21.294c5.194-3.685,10.536-7.172,16.026-10.461       c4.452-2.646,8.977-5.169,13.627-7.518c5.688-2.943,11.5-5.663,17.46-8.137c5.292-2.226,10.709-4.254,16.199-6.084       c1.41-0.47,2.844-0.94,4.279-1.385c2.745-0.866,5.49-1.682,8.285-2.424c5.515-1.533,11.154-2.869,16.842-3.982       C211.062,18.487,213.115,18.116,215.168,17.77z"/>
					<path style="fill:#F3C7D1;" d="M322.551,68.37L109.095,237.013c-5.861-2.3-11.574-4.971-17.065-7.963L320.944,59.071       C321.562,62.138,322.106,65.229,322.551,68.37z"/>
					<path style="fill:#F3C7D1;" d="M317.061,43.985L76.648,219.503c-12.415-8.705-23.495-19.142-32.868-30.988L307.564,20.441       C311.348,27.959,314.538,35.848,317.061,43.985z"/>
					<path style="fill:#F3C7D1;" d="M323.293,107.149c-0.841,8.112-2.3,16.026-4.328,23.717L154.106,247.474       c-15.111-1.212-29.628-4.575-43.23-9.769L323.293,107.149z"/>
				</g>
			</g>
			<g>
				<g>
					<path style="fill:#F3C7D1;" d="M306.671,375.966c0,9.695,2.392,19.043-0.6,27.724c-2.349,6.875-5.565,13.355-9.497,19.29       c-15.284,23.148-41.549,34.432-71.375,34.432c-38.235,0-70.608-21.102-81.514-55.751c-2.547-8.112-3.932-16.743-3.932-25.696       c0-2.226,0.074-4.427,0.247-6.628c0.419-5.47,4.354-9.792,5.757-14.923c1.166-4.264-0.345-9.396,1.44-13.37       c1.781-3.982,3.858-7.815,6.208-11.451c3.751-5.795,10.179-8.105,15.172-12.817c5.64-5.322,10.003-12.881,16.929-16.514       c6.232-3.289,12.91-5.812,19.933-7.444c3.34-0.803,6.753,1.594,10.229,1.206c2.623-0.293,5.282-3.463,7.973-3.506h0.025       c0.519-0.025,1.014-0.025,1.533-0.025c11.945,0,23.322,2.448,33.659,6.9c7.294,3.116,14.063,10.225,20.14,15.152       c5.111,4.144,9.733,5.866,13.767,11.063c2.943,3.809,5.565,7.84,7.84,12.118C307.036,347.723,306.671,361.424,306.671,375.966z       "/>
					<path style="fill:#95ABD3;" d="M296.574,422.98c-15.284,23.148-41.549,38.432-71.375,38.432       c-38.235,0-70.608-25.102-81.514-59.751c14.443,6.974,25.498,19.835,40.164,26.438c15.309,6.875,32.942,6.183,49.463,3.289       c16.521-2.869,32.72-7.815,49.463-9.027C287.35,422.04,292.123,422.04,296.574,422.98z"/>
					<path style="fill:#95ABD3;" d="M310.671,375.966c0,9.695-1.608,19.043-4.6,27.724c-8.483-2.77-17.658-3.363-26.413-1.632       c-11.401,2.226-21.689,8.186-32.645,12.044c-22.332,7.889-49.141,6.232-67.294-8.977c-7.222-6.059-12.712-13.85-19.018-20.873       c-5.738-6.405-12.563-12.366-20.7-14.913c0.767-10.016,3.265-19.538,7.197-28.293c7.667,4.773,14.171,11.352,20.923,17.386       c12.638,11.302,26.636,21.071,41.598,29.01c9.25,4.922,18.994,9.175,29.307,10.956c10.338,1.756,21.343,0.89,30.593-4.006       c8.656-4.575,15.803-14.418,12.91-23.767c-2.077-6.702-8.78-11.104-15.605-12.662c-6.851-1.583-13.973-0.866-20.997-0.544       c-32.447,1.484-66.156-6.48-91.407-26.908c-0.371-0.297-0.742-0.618-1.113-0.915c7.988-12.341,19.043-22.481,32.101-29.331       c3.635,2.646,7.024,5.787,10.09,9.002c8.062,8.483,15.061,18.202,24.707,24.855c8.78,6.059,19.29,9.225,29.801,11.179       c11.599,2.152,23.915,2.894,34.921-1.41c5.441-2.127,10.412-5.441,15.581-8.161       C307.036,347.723,310.671,361.424,310.671,375.966z"/>
					<path style="fill:#95ABD3;" d="M292.766,323.61c-9.151,9.348-22.703,14.74-35.91,13.899       c-19.76-1.237-37.567-14.814-46.544-32.472c-1.509-2.968-3.537-7.494-4.872-12.217c5.861-1.41,11.945-2.201,18.202-2.3h0.025       c7.172,9.002,20.502,13.182,31.335,8.78c1.335-0.544,2.622-1.187,3.858-1.904C272.288,303.132,283.937,312.233,292.766,323.61z       "/>
				</g>
			</g>
			<g>
				<path style="fill:#FDBC08;" d="M498.836,256.501c0,11.401-0.791,22.58-2.325,33.536c-0.099,0.866-0.223,1.731-0.346,2.597      c-3.314,0.816-6.801,1.237-10.387,1.237c-24.41,0-44.195-19.785-44.195-44.195s19.785-44.195,44.195-44.195      c2.671,0,5.268,0.247,7.815,0.717c0.074,0.247,0.124,0.495,0.173,0.742c0.965,4.674,1.805,9.398,2.498,14.171      C497.945,232.66,498.836,244.482,498.836,256.501z"/>
				<path style="fill:#FDBC08;" d="M403.41,257.01c-1.105,16.244-15.174,28.52-31.418,27.414c-4.608-0.314-8.901-1.673-12.651-3.832      c10.129-4.095,17.56-13.697,18.352-25.333c0.792-11.636-5.269-22.157-14.751-27.586c4.008-1.631,8.445-2.396,13.053-2.082      C392.24,226.697,404.516,240.765,403.41,257.01z"/>
			</g>
		</g>
		<g>
			<g>
				<path style="fill:#9F6DA4;" d="M474.723,151.047c-14.74,4.501-31.903,9.2-50.501,13.899c-0.594,0.148-1.212,0.297-1.83,0.445      c-24.929,6.257-52.331,12.465-79.734,18.079c-0.396,0.099-0.791,0.173-1.212,0.247c-38.086,7.766-76.148,14.344-107.581,18.252      c-0.841,0.099-1.657,0.198-2.473,0.297c-41.178,4.971-70.459,5.144-72.562-2.943c-0.074-0.198-0.099-0.396-0.124-0.594      c-0.025-0.223-0.025-0.42,0-0.643c1.113-16.99,108.323-43.329,117.276-45.506c0.396-0.099,0.594-0.148,0.594-0.148      s0.025-0.223,0.074-0.618c0.866-5.589,8.508-48.003,46.223-56.635c37.69-8.656,64.4,25.943,67.838,30.642      c0.223,0.346,0.346,0.519,0.346,0.519s0.198-0.025,0.594-0.074c4.575-0.519,34.896-3.908,65.563-5.54      c1.237,1.805,2.448,3.611,3.611,5.466c0.272,0.396,0.519,0.791,0.767,1.212C466.413,134.996,470.79,142.885,474.723,151.047z"/>
			</g>
			<g>
				<path style="fill:#F3C7D1;" d="M292.561,153.902c-9.926,0-15.904-0.836-16.086-0.862c-0.338-0.048-0.571-0.365-0.52-0.7      c0.049-0.341,0.375-0.565,0.702-0.522c0.569,0.087,57.291,7.982,114.092-26.021c0.289-0.171,0.67-0.082,0.848,0.215      c0.176,0.292,0.081,0.671-0.212,0.848C352.5,150.134,313.637,153.902,292.561,153.902z"/>
			</g>
			<g>
				<path style="fill:#F3C7D1;" d="M283.722,146.955c0,0,1.263-16.417,13.892-30.73l10.945-2.105c0,0-7.156,15.996-5.472,32.414      C303.087,146.534,292.141,147.376,283.722,146.955z"/>
			</g>
			<g>
				<path style="fill:#F3C7D1;" d="M342.235,185.038c-0.283,0-0.539-0.196-0.603-0.483l-7.998-35.36      c-0.076-0.331,0.133-0.664,0.466-0.739c0.331-0.07,0.664,0.135,0.739,0.469l7.998,35.36c0.076,0.331-0.133,0.664-0.466,0.739      C342.326,185.033,342.28,185.038,342.235,185.038z"/>
			</g>
			<g>
				<path style="fill:#F3C7D1;" d="M423.902,166.096c-0.095,0-0.193-0.022-0.284-0.068l-53.882-27.784      c-0.303-0.157-0.423-0.531-0.266-0.833c0.157-0.304,0.532-0.423,0.833-0.268l53.882,27.784c0.303,0.157,0.423,0.531,0.266,0.833      C424.341,165.973,424.125,166.096,423.902,166.096z"/>
			</g>
			<g>
				<path style="fill:#F3C7D1;" d="M460.824,126.192c0.272,0.396,0.519,0.791,0.767,1.212l-74.738,2.077h-0.42      c-0.322,0-0.594-0.272-0.618-0.618c0-0.099,0.025-0.198,0.074-0.272c0.099-0.198,0.297-0.346,0.519-0.346h0.124l2.597-0.074      L460.824,126.192z"/>
			</g>
			<g>
				<path style="fill:#F3C7D1;" d="M231.945,203.14c-0.197,0-0.39-0.094-0.51-0.268c-0.193-0.283-0.122-0.667,0.16-0.86L304,152.339      c0.285-0.188,0.668-0.118,0.86,0.16c0.193,0.283,0.122,0.667-0.16,0.86l-72.405,49.673      C232.187,203.103,232.065,203.14,231.945,203.14z"/>
			</g>
			<g>
				<path style="fill:#F3C7D1;" d="M158.697,199.35c-0.251,0-0.488-0.155-0.58-0.403c-0.118-0.321,0.046-0.676,0.366-0.794      l123.341-45.463c0.319-0.121,0.675,0.046,0.793,0.365c0.118,0.321-0.046,0.676-0.366,0.795l-123.341,45.463      C158.841,199.338,158.769,199.35,158.697,199.35z"/>
			</g>
		</g>
		<g>
			<g>
				<path style="fill:#F3C7D1;" d="M388.858,383.021c-0.152,0-0.302-0.053-0.42-0.157c-0.157-0.14-0.234-0.348-0.208-0.558      l8.934-68.912l-75.433,25.572c-0.328,0.109-0.693-0.065-0.804-0.398c-0.111-0.331,0.065-0.691,0.398-0.804l76.394-25.895      c0.205-0.071,0.437-0.028,0.604,0.11c0.169,0.139,0.256,0.355,0.227,0.571l-8.943,68.992l36.64-9.477      c0.336-0.089,0.688,0.116,0.773,0.454c0.087,0.341-0.116,0.686-0.454,0.773l-37.549,9.711      C388.964,383.016,388.911,383.021,388.858,383.021z"/>
				<path style="fill:#F3C7D1;" d="M332.964,337.824c0,3.278-2.657,5.935-5.935,5.935c-3.277,0-5.935-2.657-5.935-5.935      c0-3.277,2.657-5.935,5.935-5.935C330.307,331.89,332.964,334.547,332.964,337.824z"/>
				<circle style="fill:#F3C7D1;" cx="397.381" cy="313.655" r="5.935"/>
				<circle style="fill:#F3C7D1;" cx="426.083" cy="373" r="5.935"/>
			</g>
			<g>
				<path style="fill:#F3C7D1;" d="M118.989,432.464c-0.343,0-0.626-0.273-0.633-0.618l-1.488-69.926l-48.262-37.451      c-0.275-0.215-0.326-0.613-0.111-0.89c0.21-0.275,0.611-0.327,0.889-0.112l48.501,37.637c0.15,0.116,0.242,0.295,0.244,0.485      l1.493,70.228c0.007,0.35-0.268,0.64-0.618,0.647C118.999,432.464,118.994,432.464,118.989,432.464z"/>
				<path style="fill:#F3C7D1;" d="M76.365,326.701c-0.764,3.403-4.142,5.542-7.544,4.778c-3.403-0.764-5.542-4.141-4.778-7.544      c0.764-3.403,4.141-5.542,7.544-4.778C74.989,319.92,77.128,323.298,76.365,326.701z"/>
				<path style="fill:#F3C7D1;" d="M123.34,362.484c-0.764,3.403-4.142,5.542-7.544,4.778c-3.403-0.764-5.542-4.142-4.778-7.544      c0.764-3.403,4.141-5.542,7.544-4.778C121.964,355.704,124.103,359.082,123.34,362.484z"/>
				<path style="fill:#F3C7D1;" d="M125.277,433.135c-0.764,3.403-4.142,5.542-7.544,4.778c-3.403-0.764-5.542-4.141-4.778-7.544      c0.764-3.403,4.142-5.542,7.544-4.778C123.901,426.355,126.04,429.732,125.277,433.135z"/>
			</g>
		</g>
		<g>
			<g>
				<g>
					<circle style="fill:#FDBC08;" cx="86.037" cy="274.491" r="4.981"/>
					<path style="fill:#FDBC08;" d="M125.793,266.156c0,2.751-2.23,4.981-4.982,4.981c-2.751,0-4.981-2.23-4.981-4.981       c0-2.751,2.23-4.981,4.981-4.981C123.563,261.175,125.793,263.405,125.793,266.156z"/>
				</g>
				<path style="fill:#FDBC08;" d="M114.297,289.148c0,2.751-2.23,4.981-4.982,4.981c-2.751,0-4.981-2.23-4.981-4.981      c0-2.751,2.23-4.981,4.981-4.981C112.067,284.166,114.297,286.396,114.297,289.148z"/>
			</g>
			<g>
				<g>
					<circle style="fill:#FDBC08;" cx="403.37" cy="195.28" r="4.981"/>
					<path style="fill:#FDBC08;" d="M443.126,186.946c0,2.751-2.23,4.982-4.982,4.982c-2.751,0-4.981-2.23-4.981-4.982       c0-2.751,2.23-4.981,4.981-4.981C440.895,181.965,443.126,184.195,443.126,186.946z"/>
				</g>
				<path style="fill:#FDBC08;" d="M431.63,209.937c0,2.751-2.23,4.981-4.982,4.981c-2.751,0-4.981-2.23-4.981-4.981      c0-2.751,2.23-4.982,4.981-4.982C429.4,204.956,431.63,207.186,431.63,209.937z"/>
			</g>
			<g>
				<g>
					<path style="fill:#FDBC08;" d="M439.171,313.397c-2.519,1.105-5.458-0.041-6.563-2.56c-1.105-2.519,0.041-5.458,2.56-6.563       c2.519-1.105,5.458,0.041,6.563,2.56C442.836,309.354,441.69,312.292,439.171,313.397z"/>
					<path style="fill:#FDBC08;" d="M460.774,341.893c-2.519,1.105-5.458-0.041-6.563-2.56c-1.105-2.519,0.041-5.458,2.56-6.563       c2.519-1.105,5.458,0.041,6.563,2.56C464.439,337.85,463.293,340.788,460.774,341.893z"/>
				</g>
				<path style="fill:#FDBC08;" d="M435.101,340.603c-2.519,1.105-5.458-0.041-6.563-2.56c-1.105-2.519,0.041-5.458,2.56-6.563      c2.519-1.105,5.458,0.041,6.563,2.56C438.767,336.56,437.62,339.498,435.101,340.603z"/>
			</g>
			<g>
				<path style="fill:#FDBC08;" d="M185.255,477.182c-2.519,1.105-5.458-0.041-6.563-2.56c-1.105-2.519,0.041-5.458,2.56-6.563      c2.519-1.105,5.458,0.041,6.563,2.56S187.774,476.077,185.255,477.182z"/>
			</g>
			<g>
				<path style="fill:#FDBC08;" d="M249.942,477.182c-2.519,1.105-5.458-0.041-6.563-2.56c-1.105-2.519,0.041-5.458,2.56-6.563      c2.519-1.105,5.458,0.041,6.563,2.56S252.462,476.077,249.942,477.182z"/>
			</g>
			<g>
				<path style="fill:#FDBC08;" d="M414.958,108.158c-2.519,1.105-5.458-0.041-6.563-2.56c-1.105-2.519,0.041-5.458,2.56-6.563      c2.519-1.105,5.458,0.041,6.563,2.56C418.624,104.114,417.477,107.053,414.958,108.158z"/>
			</g>
			<g>
				<path style="fill:#FDBC08;" d="M361.917,364.943c-2.519,1.105-5.458-0.041-6.563-2.56c-1.105-2.519,0.041-5.458,2.56-6.563      c2.519-1.105,5.458,0.041,6.563,2.56C365.583,360.899,364.436,363.837,361.917,364.943z"/>
			</g>
			<g>
				<path style="fill:#FDBC08;" d="M77.349,380.939c-2.519,1.105-5.458-0.041-6.563-2.56c-1.105-2.519,0.041-5.458,2.56-6.563      c2.519-1.105,5.458,0.041,6.563,2.56C81.015,376.895,79.869,379.834,77.349,380.939z"/>
			</g>
			<g>
				<path style="fill:#FDBC08;" d="M101.765,412.932c-2.519,1.105-5.458-0.041-6.563-2.56s0.041-5.458,2.56-6.563      c2.519-1.105,5.458,0.041,6.563,2.56C105.431,408.888,104.284,411.826,101.765,412.932z"/>
			</g>
			<g>
				<g>
					<path style="fill:#FDBC08;" d="M306.054,465.174c1.401,2.368,0.618,5.423-1.75,6.824c-2.368,1.401-5.423,0.618-6.824-1.75       c-1.401-2.368-0.618-5.423,1.75-6.824C301.597,462.023,304.653,462.806,306.054,465.174z"/>
					<path style="fill:#FDBC08;" d="M331.736,440.291c1.401,2.368,0.618,5.423-1.75,6.824c-2.368,1.401-5.423,0.618-6.824-1.75       c-1.401-2.368-0.618-5.423,1.75-6.824C327.279,437.14,330.335,437.924,331.736,440.291z"/>
				</g>
				<path style="fill:#FDBC08;" d="M333.552,465.932c1.401,2.368,0.618,5.423-1.75,6.824c-2.368,1.401-5.423,0.618-6.824-1.75      c-1.401-2.368-0.618-5.423,1.75-6.824C329.095,462.781,332.151,463.565,333.552,465.932z"/>
			</g>
		</g>
		<g>
			<g>
				<g>
					<polygon style="fill:#F3C7D1;" points="72.769,230.914 60.194,234.935 56.173,247.511 52.151,234.935 39.576,230.914        52.151,226.893 56.173,214.318 60.194,226.893      "/>
				</g>
			</g>
			<g>
				<g>
					<polygon style="fill:#F3C7D1;" points="183.902,279.745 171.327,283.767 167.305,296.342 163.284,283.767 150.709,279.745        163.284,275.724 167.305,263.149 171.327,275.724      "/>
				</g>
			</g>
			<g>
				<g>
					<polygon style="fill:#F3C7D1;" points="339.656,64.215 327.081,68.236 323.06,80.811 319.039,68.236 306.463,64.215        319.039,60.193 323.06,47.618 327.081,60.193      "/>
				</g>
			</g>
			<g>
				<g>
					<polygon style="fill:#F3C7D1;" points="347.699,217.444 335.123,221.465 331.102,234.04 327.081,221.465 314.506,217.444        327.081,213.422 331.102,200.847 335.123,213.422      "/>
				</g>
			</g>
			<g>
				<g>
					<polygon style="fill:#F3C7D1;" points="382.594,411.926 370.019,415.947 365.998,428.523 361.976,415.947 349.401,411.926        361.976,407.905 365.998,395.33 370.019,407.905      "/>
				</g>
			</g>
		</g>
	</g>
</g>















</svg>
