<?xml version="1.0" encoding="UTF-8"?>
<!-- Generator: Adobe Illustrator 26.5.1, SVG Export Plug-In . SVG Version: 6.00 Build 0)  -->
<svg xmlns="http://www.w3.org/2000/svg" xmlns:xlink="http://www.w3.org/1999/xlink" version="1.1" id="Capa_1" x="0px" y="0px" viewBox="0 0 512 512" style="enable-background:new 0 0 512 512;" xml:space="preserve" width="512" height="512">
<g>
	<path style="fill:#FFFFFF;" d="M97.614,444.622c-14.854,0-28.285-8.799-34.218-22.417L3.126,283.803   c-3.98-9.135-4.166-19.273-0.523-28.541c3.527-8.971,10.237-16.096,18.954-20.157c-1.731-5.44,0.227-11.401,4.891-14.749   L51.47,202.4l-5.053-31.145c-0.934-5.754,2.012-11.442,7.252-13.998c1.848-0.904,3.83-1.341,5.794-1.341   c3.599,0,7.14,1.47,9.703,4.237l18.376,19.837l27.647-11.853c1.682-0.721,3.453-1.069,5.207-1.069c1.626,0,3.238,0.299,4.752,0.882   c1.153-9.066,5.53-16.271,13.046-20.837c4.677-2.845,9.331-4.685,13.893-5.505c1.966-6.856,6.649-13.618,15.334-18.896   c5.99-3.643,12.211-5.492,18.485-5.492c0.075,0,0.15,0,0.224,0c2.348-5.886,6.598-10.971,12.539-14.663   c5.004-3.11,10.332-4.687,15.835-4.687c2.327,0,4.676,0.291,6.98,0.865c0.65,0.161,1.286,0.342,1.91,0.542   c3.158-3.501,7.363-6.167,12.418-7.7c1.954-0.59,3.975-0.889,6.008-0.889c4.961,0,19.013,0.002,34.201,33.585l123.514-53.79   c4.73-2.059,9.731-3.105,14.866-3.105c14.874,0,28.303,8.81,34.214,22.445l60.284,138.372c8.215,18.853-0.448,40.878-19.309,49.096   l-71.045,30.925l-0.828,0.37c2.704,1.883,4.675,4.754,5.385,8.128c1.16,5.505-1.292,11.141-6.109,14.046l-22.441,13.534   l3.615,23.336c0.855,5.52-1.849,10.979-6.756,13.643c-1.982,1.076-4.151,1.603-6.306,1.603c-3.182,0-6.333-1.147-8.814-3.363   l-2.337-2.09c2.058,6.267-0.834,13.157-6.856,16.041c-15.335,7.34-33.18,14.825-53.038,22.245   c-27.113,10.136-51.358,17.646-72.06,22.32c-0.977,0.222-1.955,0.327-2.92,0.327c-5.507,0-10.582-3.46-12.471-8.853l-11.454-32.703   l-29.225,12.722l-73.41,31.986C107.772,443.574,102.758,444.622,97.614,444.622z"/>
	<g>
		<path style="fill:#FF93E2;" d="M361.538,379.412c-12.855,6.155-29.904,13.545-51.955,21.785    c-32.013,11.967-55.148,18.376-70.346,21.808l-16.517-47.156l117.376-50.89L361.538,379.412z"/>
		<g>
			<path style="fill:#B179FF;" d="M401.218,146.85l-60.732-38.285l-5.341,2.323l-232.413,101.21l-27.859,12.125l43.915,198.07     l62.019-27.022l9.614-4.181l222.03-96.691l0.966-0.431l13.797-6.006C427.213,287.963,408.726,143.579,401.218,146.85z"/>
			<path style="fill:#2E1144;" d="M190.42,391.09l-9.614,4.181l-73.418,31.988c-12.221,5.322-26.408-0.266-31.721-12.462     l-60.268-138.4c-5.313-12.195,0.249-26.374,12.47-31.695l43.712-19.048l31.15-13.557c0.59,1.623,1.069,3.254,1.472,4.911     c3.243,13.67,1.493,27.959,0.213,41.951c-1.297,14.026-2.024,28.575,3.054,41.699c7.492,19.258,25.864,31.62,41.99,44.578     c9.3,7.478,18.154,15.5,26.176,24.363C181.468,376.031,186.965,383.168,190.42,391.09z"/>
			<path style="fill:#2E1144;" d="M484.458,263.045l-71.042,30.924l-0.966,0.431c-0.518-0.454-0.986-0.925-1.461-1.422     c-13.842-14.389-17.025-36.001-16.291-55.975c0.296-7.394,1.01-14.812,0.214-22.16c-1.271-11.99-6.723-23.486-15.148-32.103     c-6.072-6.21-13.533-10.857-19.854-16.787c-15.7-14.773-21.817-36.499-19.424-57.387l64.479-28.086     c12.195-5.313,26.39,0.301,31.669,12.479l60.294,138.392C502.241,243.545,496.652,257.731,484.458,263.045z"/>
			<g>
				<polygon style="opacity:0.28;fill:#2E1144;" points="395.955,257.832 171.017,356.103 164.594,358.93 110.525,243.196       337.846,146.821 339.987,150.902     "/>
				<polygon style="fill:#FFE7DE;" points="395.955,257.832 171.017,356.103 118.934,244.615 339.987,150.902     "/>
				<g>
					<path style="fill:#2E1144;" d="M196.851,260.011c0.338,0.827,0.372,1.649,0.103,2.471c-0.271,0.822-0.683,1.579-1.24,2.269       c-0.485,0.657-0.975,1.353-1.471,2.078c-0.5,0.73-0.921,1.49-1.267,2.279c-0.346,0.794-0.559,1.604-0.639,2.431       c-0.082,0.827,0.056,1.672,0.408,2.533c0.31,0.753,0.768,1.362,1.378,1.824c0.608,0.466,1.294,0.883,2.057,1.261       c0.762,0.38,1.588,0.757,2.47,1.128c0.886,0.37,1.746,0.832,2.583,1.392c0.836,0.558,1.632,1.248,2.388,2.065       c0.754,0.825,1.399,1.879,1.927,3.171c0.369,0.899,0.596,1.99,0.681,3.273s0.04,2.632-0.135,4.044       c-0.175,1.412-0.48,2.836-0.919,4.271c-0.438,1.438-0.978,2.78-1.62,4.025c-0.641,1.25-1.394,2.354-2.255,3.313       c-0.863,0.962-1.796,1.651-2.8,2.061c-1.112,0.456-2.224,0.552-3.335,0.297c-1.111-0.259-1.915-0.995-2.416-2.215       c-0.338-0.825-0.452-1.67-0.346-2.528c0.108-0.861,0.317-1.732,0.625-2.616c0.309-0.879,0.69-1.767,1.139-2.663       c0.451-0.899,0.837-1.768,1.162-2.611c0.322-0.847,0.547-1.683,0.67-2.505c0.122-0.827,0.029-1.616-0.279-2.369       c-0.426-1.04-1.231-1.956-2.414-2.752c-1.186-0.79-2.465-1.586-3.839-2.384c-1.374-0.798-2.679-1.656-3.915-2.575       c-1.233-0.919-2.109-2.008-2.623-3.262c-0.632-1.541-0.885-3.335-0.76-5.376c0.128-2.042,0.546-4.036,1.257-5.982       c0.713-1.946,1.684-3.717,2.915-5.31c1.233-1.595,2.637-2.713,4.216-3.36c1.254-0.514,2.483-0.581,3.69-0.192       C195.454,257.882,196.323,258.721,196.851,260.011z"/>
					<path style="fill:#2E1144;" d="M227.96,248.459c0.368,0.896,0.353,1.857-0.045,2.876c-0.398,1.022-0.976,2.014-1.735,2.975       c-0.759,0.96-1.584,1.832-2.479,2.616c-0.892,0.786-1.651,1.39-2.274,1.814c0.845,2.88,1.747,5.724,2.713,8.532       c0.962,2.811,2.008,5.595,3.141,8.359c0.602,1.472,1.234,2.909,1.894,4.313c0.661,1.408,1.283,2.828,1.871,4.259       c0.264,0.647,0.492,1.382,0.684,2.206c0.189,0.824,0.274,1.64,0.246,2.444c-0.025,0.806-0.212,1.549-0.558,2.241       c-0.348,0.683-0.915,1.19-1.704,1.514c-0.935,0.383-1.784,0.426-2.555,0.132c-0.768-0.29-1.46-0.75-2.071-1.378       c-0.614-0.63-1.146-1.343-1.601-2.142c-0.453-0.799-0.819-1.54-1.096-2.221c-0.955-2.122-1.897-4.263-2.82-6.418       c-0.926-2.157-1.837-4.329-2.733-6.516c-0.751-1.831-1.474-3.628-2.176-5.39c-0.703-1.766-1.43-3.563-2.178-5.392       c-0.473,0.278-0.963,0.539-1.468,0.788c-0.505,0.251-1.029,0.484-1.566,0.704c-0.431,0.176-1.013,0.364-1.748,0.561       c-0.736,0.197-1.475,0.312-2.215,0.34c-0.742,0.033-1.431-0.061-2.065-0.283c-0.636-0.221-1.087-0.656-1.351-1.301       c-0.44-1.076-0.403-2.191,0.106-3.342c0.514-1.152,1.303-2.293,2.37-3.422c1.067-1.128,2.314-2.227,3.741-3.291       c1.426-1.064,2.874-2.034,4.339-2.907c1.464-0.873,2.829-1.632,4.093-2.277c1.266-0.641,2.257-1.11,2.976-1.405       c0.681-0.28,1.417-0.553,2.211-0.814c0.794-0.261,1.584-0.406,2.369-0.435c0.783-0.028,1.502,0.119,2.158,0.437       C227.082,246.953,227.592,247.561,227.96,248.459z"/>
					<path style="fill:#2E1144;" d="M269.099,265.218c0.294,0.719,0.586,1.604,0.87,2.659c0.287,1.058,0.436,2.116,0.452,3.176       c0.018,1.062-0.15,2.035-0.504,2.91c-0.354,0.875-1.03,1.521-2.034,1.933c-1.328,0.542-2.523,0.468-3.582-0.229       c-1.061-0.693-2.011-1.659-2.848-2.884c-0.839-1.228-1.571-2.528-2.2-3.907c-0.624-1.377-1.125-2.47-1.499-3.28       c-2.406,1.488-4.799,2.91-7.177,4.26c0.267,0.857,0.533,1.939,0.799,3.254c0.265,1.318,0.388,2.639,0.368,3.968       c-0.023,1.325-0.249,2.562-0.682,3.701c-0.432,1.142-1.207,1.939-2.317,2.395c-0.863,0.352-1.661,0.314-2.404-0.116       c-0.742-0.425-1.415-1.022-2.019-1.778c-0.604-0.759-1.122-1.585-1.548-2.476c-0.427-0.894-0.768-1.645-1.018-2.254       c-0.839-2.045-1.503-4.13-1.995-6.253c-0.494-2.123-0.928-4.258-1.308-6.406c-0.211-1.131-0.423-2.465-0.638-4.013       c-0.215-1.546-0.368-3.168-0.456-4.871c-0.088-1.701-0.084-3.423,0.022-5.161c0.103-1.741,0.367-3.367,0.796-4.882       c0.426-1.514,1.067-2.864,1.92-4.058c0.852-1.185,1.98-2.066,3.378-2.638c1.364-0.558,2.671-0.739,3.928-0.54       c1.252,0.197,2.464,0.644,3.627,1.341c1.165,0.694,2.259,1.576,3.283,2.642c1.025,1.07,1.975,2.187,2.852,3.358       c0.877,1.169,1.689,2.336,2.439,3.495c0.746,1.159,1.406,2.185,1.984,3.081c1.422,2.142,2.782,4.335,4.081,6.59       C266.972,260.488,268.115,262.816,269.099,265.218z M253.358,256.398c-0.176-0.429-0.493-1.124-0.95-2.09       c-0.459-0.963-0.979-1.902-1.562-2.817c-0.585-0.915-1.223-1.676-1.915-2.294c-0.693-0.618-1.361-0.795-2.009-0.531       c-0.359,0.148-0.6,0.53-0.723,1.145c-0.127,0.618-0.164,1.345-0.112,2.186c0.049,0.837,0.159,1.744,0.33,2.721       c0.17,0.978,0.352,1.909,0.546,2.792c0.195,0.885,0.394,1.672,0.593,2.365c0.202,0.695,0.341,1.19,0.423,1.494       c2.078-1.062,4.086-2.201,6.019-3.41L253.358,256.398z"/>
					<path style="fill:#2E1144;" d="M296.03,230.432c1.014,2.474,1.35,4.935,1.012,7.376c-0.339,2.445-1.152,4.808-2.435,7.092       c0.925,0.627,1.931,1.39,3.01,2.286c1.08,0.903,2.125,1.886,3.129,2.963c1.006,1.072,1.923,2.184,2.75,3.333       c0.827,1.147,1.46,2.26,1.901,3.337c0.473,1.148,0.614,2.29,0.435,3.436c-0.182,1.142-0.937,1.984-2.263,2.528       c-1.112,0.456-2.292,0.312-3.54-0.431c-1.247-0.75-2.491-1.736-3.729-2.969c-1.236-1.231-2.431-2.511-3.583-3.842       c-1.151-1.328-2.153-2.364-3-3.104c-0.56,0.478-1.088,0.978-1.585,1.497c-0.5,0.518-1.022,1.035-1.565,1.551       c0.286,0.805,0.667,1.915,1.144,3.331c0.478,1.419,0.842,2.873,1.097,4.362c0.253,1.489,0.28,2.857,0.081,4.11       c-0.199,1.255-0.835,2.103-1.912,2.543c-1.182,0.486-2.295,0.378-3.339-0.328c-1.043-0.702-1.97-1.664-2.781-2.881       c-0.814-1.214-1.521-2.506-2.125-3.876c-0.599-1.364-1.062-2.442-1.384-3.231c-0.69-1.685-1.336-3.357-1.932-5.021       c-0.6-1.661-1.241-3.333-1.934-5.021c-0.63-1.542-1.289-3.073-1.973-4.593c-0.686-1.521-1.355-3.072-2.001-4.649       c-0.148-0.359-0.335-0.816-0.562-1.373c-0.229-0.555-0.436-1.141-0.623-1.753c-0.19-0.616-0.359-1.204-0.508-1.774       c-0.15-0.567-0.2-1.047-0.151-1.445c0.047-0.901,0.569-1.95,1.564-3.154c0.994-1.204,2.147-2.377,3.457-3.523       c1.31-1.144,2.633-2.168,3.96-3.068c1.329-0.899,2.348-1.497,3.067-1.792c1.829-0.751,3.584-1.067,5.262-0.961       c1.678,0.109,3.221,0.555,4.63,1.339c1.412,0.784,2.662,1.84,3.755,3.176C294.449,227.235,295.339,228.745,296.03,230.432z        M286.383,235.264c-0.382-0.932-0.887-1.555-1.515-1.862c-0.628-0.307-1.428-0.262-2.396,0.134       c-0.717,0.294-1.392,0.718-2.024,1.27c-0.633,0.553-1.189,1.115-1.664,1.686c1.302,2.776,2.51,5.571,3.623,8.382       c0.648-0.559,1.287-1.2,1.916-1.916c0.626-0.72,1.153-1.5,1.582-2.347c0.429-0.846,0.713-1.715,0.848-2.61       C286.89,237.109,286.765,236.197,286.383,235.264z"/>
					<path style="fill:#2E1144;" d="M323.256,209.409c0.368,0.896,0.353,1.857-0.045,2.876c-0.398,1.022-0.976,2.014-1.733,2.975       c-0.759,0.961-1.586,1.833-2.479,2.616c-0.894,0.786-1.651,1.389-2.273,1.814c0.843,2.88,1.747,5.724,2.711,8.532       c0.962,2.811,2.01,5.597,3.141,8.361c0.605,1.472,1.233,2.907,1.894,4.313c0.66,1.406,1.285,2.828,1.871,4.259       c0.267,0.647,0.492,1.379,0.684,2.203c0.189,0.824,0.274,1.64,0.248,2.446c-0.028,0.806-0.214,1.549-0.559,2.239       c-0.35,0.683-0.915,1.19-1.706,1.514c-0.932,0.382-1.784,0.426-2.552,0.132c-0.77-0.29-1.46-0.749-2.073-1.377       c-0.614-0.63-1.146-1.343-1.599-2.142s-0.819-1.54-1.099-2.22c-0.954-2.122-1.894-4.261-2.82-6.417       c-0.923-2.157-1.835-4.33-2.731-6.516c-0.751-1.831-1.476-3.628-2.178-5.39c-0.703-1.766-1.428-3.563-2.178-5.392       c-0.473,0.278-0.96,0.541-1.468,0.788c-0.505,0.251-1.026,0.484-1.563,0.703c-0.432,0.176-1.015,0.364-1.751,0.561       c-0.736,0.197-1.475,0.312-2.215,0.343c-0.742,0.031-1.429-0.064-2.066-0.285c-0.634-0.221-1.087-0.656-1.351-1.301       c-0.44-1.076-0.403-2.191,0.106-3.342c0.514-1.152,1.303-2.293,2.37-3.421c1.067-1.128,2.315-2.225,3.741-3.292       c1.429-1.065,2.874-2.034,4.339-2.907c1.464-0.873,2.829-1.632,4.095-2.278c1.266-0.641,2.257-1.11,2.973-1.405       c0.683-0.28,1.419-0.551,2.213-0.815c0.792-0.261,1.581-0.406,2.366-0.435c0.783-0.026,1.502,0.119,2.158,0.437       C322.378,207.905,322.89,208.51,323.256,209.409z"/>
				</g>
			</g>
			<g>
				<g>
					<g>
						<path style="fill:#FFAFA0;" d="M404.812,129.272L404.812,129.272c-4.82,1.985-10.336-0.313-12.321-5.132v0        c-1.985-4.82,0.313-10.336,5.132-12.321h0c4.82-1.985,10.336,0.313,12.321,5.132v0        C411.93,121.77,409.632,127.287,404.812,129.272z"/>
						<path style="fill:#FFAFA0;" d="M419.535,165.017L419.535,165.017c-4.82,1.985-10.336-0.312-12.321-5.132l0,0        c-1.985-4.82,0.313-10.336,5.132-12.321l0,0c4.82-1.985,10.336,0.313,12.321,5.132l0,0        C426.653,157.516,424.355,163.032,419.535,165.017z"/>
						<path style="fill:#FFAFA0;" d="M391.68,155.291L391.68,155.291c-4.82,1.985-10.336-0.313-12.321-5.132l0,0        c-1.985-4.82,0.313-10.336,5.132-12.321h0c4.82-1.985,10.336,0.313,12.321,5.132v0        C398.797,147.79,396.499,153.306,391.68,155.291z"/>
						<path style="fill:#FFAFA0;" d="M431.957,138.702L431.957,138.702c-4.82,1.985-10.336-0.313-12.321-5.132l0,0        c-1.985-4.82,0.313-10.336,5.132-12.321v0c4.82-1.985,10.336,0.313,12.321,5.132l0,0        C439.074,131.2,436.776,136.717,431.957,138.702z"/>
					</g>
					<g>
						<path style="fill:#2E1144;" d="M473.923,208.723c6.906,16.044-0.502,34.649-16.546,41.555        c-16.044,6.906-34.649-0.502-41.555-16.546c-6.906-16.044,0.502-34.649,16.546-41.555        C448.413,185.271,467.017,192.679,473.923,208.723z"/>
						<path style="fill:#FFE7DE;" d="M470.627,210.142c6.906,16.044-0.502,34.649-16.546,41.555        c-16.044,6.906-34.649-0.502-41.554-16.546s0.502-34.649,16.546-41.555C445.117,186.69,463.721,194.098,470.627,210.142z"/>
						<path style="fill:#FF93E2;" d="M451.689,241.403c0.779-2.061,12.653-34.046,0.139-36.601        c-8.098-1.653-10.348,6.108-10.94,11.617c-4.409-3.357-11.592-7.058-15.958-0.04c-6.747,10.845,24.646,24.206,26.679,25.057        l0.04,0.073c0,0,0.012-0.032,0.018-0.048c0.016,0.006,0.048,0.02,0.048,0.02L451.689,241.403z"/>
					</g>
				</g>
				<g>
					<path style="fill:#FFAFA0;" d="M125.406,374.851l-21.888,10.958c-2.928,1.466-6.489,0.281-7.955-2.647l0,0       c-1.466-2.928-0.28-6.489,2.647-7.955l21.888-10.958c2.928-1.466,6.489-0.28,7.955,2.647l0,0       C129.519,369.824,128.334,373.385,125.406,374.851z"/>
					<path style="fill:#FFAFA0;" d="M117.188,358.435L95.3,369.393c-2.928,1.466-6.489,0.281-7.955-2.647l0,0       c-1.466-2.928-0.281-6.489,2.647-7.955l21.888-10.958c2.928-1.466,6.489-0.281,7.955,2.647h0       C121.301,353.408,120.116,356.969,117.188,358.435z"/>
					<path style="fill:#FFAFA0;" d="M133.454,390.925l-21.888,10.958c-2.928,1.466-6.489,0.281-7.955-2.647l0,0       c-1.466-2.928-0.281-6.489,2.647-7.955l21.888-10.958c2.928-1.466,6.489-0.281,7.955,2.647h0       C137.566,385.898,136.381,389.459,133.454,390.925z"/>
				</g>
				<g>
					<path style="fill:#FFAFA0;" d="M70.511,291.267L70.511,291.267c-4.82,1.985-10.336-0.313-12.321-5.132v0       c-1.985-4.82,0.313-10.336,5.132-12.321h0c4.82-1.985,10.336,0.313,12.321,5.132v0       C77.629,283.765,75.331,289.282,70.511,291.267z"/>
					<path style="fill:#FFAFA0;" d="M85.234,327.012L85.234,327.012c-4.82,1.985-10.336-0.313-12.321-5.132l0,0       c-1.985-4.82,0.313-10.336,5.132-12.321l0,0c4.82-1.985,10.336,0.313,12.321,5.132v0       C92.352,319.511,90.054,325.027,85.234,327.012z"/>
					<path style="fill:#FFAFA0;" d="M57.379,317.286L57.379,317.286c-4.82,1.985-10.336-0.313-12.321-5.132l0,0       c-1.985-4.82,0.313-10.336,5.132-12.321l0,0c4.82-1.985,10.336,0.313,12.321,5.132l0,0       C64.496,309.785,62.198,315.301,57.379,317.286z"/>
				</g>
			</g>
			<polygon style="fill:#FFC666;" points="65.984,206.241 59.619,167.013 84.332,193.688 120.551,178.163 103.867,209.017      124.449,234.15 88.763,227.028 74.238,262.247 66.33,227.15 34.308,228.973    "/>
			<polygon style="fill:#FFC666;" points="349.048,313.804 363.478,276.775 371.228,312.303 410.314,317.314 380.277,335.427      385.251,367.529 358.12,343.277 327.727,366.247 338.731,331.994 310.217,317.309    "/>
		</g>
		<g>
			<path style="fill:#FF93E2;" d="M144.948,195.168c0,0-15.218-29.475,0.263-38.884c15.482-9.409,22.515,0.348,22.515,0.348     s-7.237-15.638,7.236-23.883c14.474-8.245,26.007,3.372,26.007,3.372s-8.433-19.118,7.52-24.995     c12.941-4.767,22.327,8.877,22.327,8.877s-4.273-13.885,8.977-17.894c13.249-4.009,28.144,30.075,34.733,54.929     c6.589,24.855-1.32,36.34-14.089,37.912c0,0,7.657,18.446-6.336,24.255c-13.993,5.809-20.498-2.676-20.498-2.676     s3.447,11.881-6.96,15.566c-14.656,5.189-26.739-10.525-26.739-10.525s-5.728,12.131-16.637,9.203     c-10.909-2.928-29.305-40.838-29.305-40.838l-6.469,4.176"/>
			<path style="fill:#FFE7DE;" d="M276.026,177.249c-3.418,6.169-11.033,9.696-17.948,8.313c-2.831-5.881-4.528-11.968-5.029-18.476     c-0.245-3.178-0.043-6.764,2.277-8.949c2.526-2.38,6.75-2.069,9.645-0.153c2.894,1.915,4.724,5.052,6.253,8.167     C273.005,169.785,274.788,173.395,276.026,177.249z"/>
			<path style="fill:#FFE7DE;" d="M261.671,206.66c-3.636,6.561-11.735,10.313-19.091,8.842c-3.011-6.256-4.816-12.73-5.349-19.652     c-0.26-3.38-0.046-7.194,2.421-9.519c2.687-2.531,7.18-2.2,10.258-0.163c3.079,2.037,5.024,5.373,6.65,8.687     C258.458,198.721,260.355,202.561,261.671,206.66z"/>
			<path style="fill:#FFE7DE;" d="M233.076,218.516c-3.189,6.789-11.02,11.074-18.457,10.098c-3.423-6.04-5.655-12.38-6.65-19.251     c-0.486-3.355-0.526-7.175,1.78-9.659c2.512-2.705,7.017-2.675,10.225-0.848c3.208,1.827,5.372,5.026,7.216,8.224     C229.34,210.81,231.49,214.514,233.076,218.516z"/>
			<path style="fill:#FFE7DE;" d="M198.868,218.108c-2.679,5.704-9.258,9.303-15.507,8.484c-2.875-5.075-4.751-10.401-5.587-16.173     c-0.408-2.819-0.442-6.028,1.496-8.115c2.11-2.273,5.895-2.247,8.59-0.712c2.695,1.535,4.513,4.222,6.062,6.909     C195.729,211.633,197.535,214.745,198.868,218.108z"/>
			
				<path style="fill:none;stroke:#2E1144;stroke-width:2.023;stroke-linecap:round;stroke-linejoin:round;stroke-miterlimit:10;" d="     M150.452,185.674c0,0,22.855,49.669,39.037,44.94c14.543-4.25,10.473-14.29,2.976-33.548     c-7.497-19.258-22.579-44.812-32.892-44.508"/>
			
				<path style="fill:none;stroke:#2E1144;stroke-width:2.023;stroke-linecap:round;stroke-linejoin:round;stroke-miterlimit:10;" d="     M167.198,155.359c0,0-7.717-13.201,7.764-22.611c15.482-9.409,26.643,3.108,28.667,7.984     c2.024,4.876,29.973,75.796,29.973,75.796s2.581,11.605-9.045,15.934c-11.625,4.329-22.735-7.464-24.655-10.893"/>
			
				<path style="fill:none;stroke:#2E1144;stroke-width:2.023;stroke-linecap:round;stroke-linejoin:round;stroke-miterlimit:10;" d="     M200.317,135.148c0,0-7.221-14.402,6.016-22.631c13.237-8.229,24.079,5.912,25.823,8.917c1.744,3.004,28.28,73.516,28.28,73.516     s8.649,16.046-5.84,23.055c-14.949,7.231-21.033-1.826-21.033-1.826"/>
		</g>
	</g>
</g>















</svg>
