<svg height="512pt" viewBox="-78 0 511 512" width="512pt" xmlns="http://www.w3.org/2000/svg"><path d="m352.746094 56.691406c-1.742188-1.421875-4.035156-1.992187-6.238282-1.542968l-8.742187 1.777343-14.414063-14.679687c-1.410156-1.4375-3.335937-2.246094-5.351562-2.246094-2.011719 0-3.941406.808594-5.351562 2.246094l-14.414063 14.679687-8.742187-1.777343c-2.207032-.449219-4.496094.117187-6.238282 1.542968-1.742187 1.425782-2.753906 3.558594-2.753906 5.808594v35c0 4.140625 3.359375 7.5 7.5 7.5h60c4.140625 0 7.5-3.359375 7.5-7.5v-35c0-2.25-1.011719-4.382812-2.753906-5.808594zm-12.246094 33.308594h-45v-18.324219l3.738281.761719c2.488281.507812 5.066407-.28125 6.84375-2.09375l11.917969-12.136719 11.917969 12.136719c1.777343 1.8125 4.351562 2.601562 6.84375 2.09375l3.738281-.761719zm0 0"/><path d="m155.5 87.5c0 4.140625-3.359375 7.5-7.5 7.5s-7.5-3.359375-7.5-7.5 3.359375-7.5 7.5-7.5 7.5 3.359375 7.5 7.5zm0 0"/><path d="m185.5 87.5c0 4.140625-3.359375 7.5-7.5 7.5s-7.5-3.359375-7.5-7.5 3.359375-7.5 7.5-7.5 7.5 3.359375 7.5 7.5zm0 0"/><path d="m118 120h7.5v22.5c0 4.140625 3.359375 7.5 7.5 7.5h60c4.140625 0 7.5-3.359375 7.5-7.5v-22.5h7.5c4.140625 0 7.5-3.359375 7.5-7.5v-25c0-28.949219-23.550781-52.5-52.5-52.5s-52.5 23.550781-52.5 52.5v25c0 4.140625 3.359375 7.5 7.5 7.5zm7.5-32.5c0-20.679688 16.824219-37.5 37.5-37.5 20.679688 0 37.5 16.820312 37.5 37.5v17.5h-7.5c-4.140625 0-7.5 3.359375-7.5 7.5v22.5h-45v-22.5c0-4.140625-3.359375-7.5-7.5-7.5h-7.5zm0 0"/><path d="m223 195.433594c-4.140625 0-7.5 3.359375-7.5 7.5v6c0 4.140625 3.359375 7.5 7.5 7.5s7.5-3.359375 7.5-7.5v-6c0-4.140625-3.359375-7.5-7.5-7.5zm0 0"/><path d="m223 231.867188c-4.140625 0-7.5 3.359374-7.5 7.5v6c0 4.140624 3.359375 7.5 7.5 7.5s7.5-3.359376 7.5-7.5v-6c0-4.140626-3.359375-7.5-7.5-7.5zm0 0"/><path d="m223 268.300781c-4.140625 0-7.5 3.359375-7.5 7.5v6c0 4.140625 3.359375 7.5 7.5 7.5s7.5-3.359375 7.5-7.5v-6c0-4.140625-3.359375-7.5-7.5-7.5zm0 0"/><path d="m103 216.433594c4.144531 0 7.5-3.359375 7.5-7.5v-6c0-4.140625-3.355469-7.5-7.5-7.5-4.140625 0-7.5 3.359375-7.5 7.5v6c0 4.140625 3.359375 7.5 7.5 7.5zm0 0"/><path d="m103 252.867188c4.144531 0 7.5-3.359376 7.5-7.5v-6c0-4.140626-3.355469-7.5-7.5-7.5-4.140625 0-7.5 3.359374-7.5 7.5v6c0 4.140624 3.359375 7.5 7.5 7.5zm0 0"/><path d="m103 289.300781c4.144531 0 7.5-3.359375 7.5-7.5v-6c0-4.140625-3.355469-7.5-7.5-7.5-4.140625 0-7.5 3.359375-7.5 7.5v6c0 4.140625 3.359375 7.5 7.5 7.5zm0 0"/><path d="m322.695312 122.195312-4.695312 4.699219-4.695312-4.699219c-2.929688-2.929687-7.679688-2.929687-10.609376 0-2.925781 2.929688-2.925781 7.679688 0 10.605469l7.722657 7.726563c-1.460938 28.078125-23.167969 50.875-50.761719 54.074218-3.636719-16.898437-18.6875-29.601562-36.65625-29.601562h-120c-18.109375 0-33.261719 12.902344-36.746094 30h-15.753906v-90h7.5c3.539062 0 6.597656-2.472656 7.335938-5.933594l6.984374-32.714844c.453126-2.089843.679688-4.226562.679688-6.351562 0-9.800781-4.722656-18.519531-12.015625-23.996094 2.832031-3.765625 4.515625-8.441406 4.515625-13.503906 0-12.40625-10.09375-22.5-22.5-22.5s-22.5 10.09375-22.5 22.5c0 5.0625 1.683594 9.738281 4.515625 13.503906-7.289063 5.476563-12.015625 14.195313-12.015625 23.996094 0 2.121094.230469 4.253906.675781 6.328125l6.988281 32.738281c.742188 3.460938 3.796876 5.933594 7.335938 5.933594h7.5v60h-12.5c-12.40625 0-22.5 10.09375-22.5 22.5s10.09375 22.5 22.5 22.5h12.5v109.515625c0 4.144531 3.359375 7.5 7.5 7.5s7.5-3.355469 7.5-7.5v-109.515625h15v90c0 10.230469 6.179688 19.039062 15 22.90625v134.09375c0 4.140625 3.359375 7.5 7.5 7.5h37.5v24.589844l-24.871094 8.292968c-3.929687 1.308594-6.054687 5.558594-4.746094 9.488282 1.046876 3.140625 3.976563 5.128906 7.117188 5.128906.785156 0 1.585938-.125 2.371094-.386719l30-10.003906c3.0625-1.019531 5.128906-3.886719 5.128906-7.113281v-29.996094h45v29.996094c0 3.226562 2.0625 6.09375 5.128906 7.113281l30 10.003906c.785156.261719 1.585938.386719 2.371094.386719 3.140625 0 6.066406-1.988281 7.113281-5.128906 1.3125-3.929688-.8125-8.179688-4.742187-9.488282l-24.871094-8.292968v-24.589844h37.5c4.140625 0 7.5-3.359375 7.5-7.5v-134.09375c8.820312-3.867188 15-12.675781 15-22.90625v-90.386719c35.425781-3.660156 63.351562-32.929687 64.917969-68.925781l7.882812-7.882812c2.929688-2.929688 2.929688-7.679688 0-10.605469-2.925781-2.933594-7.675781-2.933594-10.605469-.003907zm-287.195312-99.695312c0-4.136719 3.363281-7.5 7.5-7.5s7.5 3.363281 7.5 7.5-3.363281 7.5-7.5 7.5-7.5-3.363281-7.5-7.5zm-7.15625 40.683594c-.230469-1.050782-.34375-2.121094-.34375-3.183594 0-8.269531 6.730469-15 15-15 8.273438 0 15 6.730469 15 15 0 1.0625-.113281 2.132812-.34375 3.199219l-5.722656 26.800781h-17.867188zm-5.34375 131.816406c-4.136719 0-7.5-3.363281-7.5-7.5s3.363281-7.5 7.5-7.5h12.5v15zm159.332031 133.804688c-1.988281-1.40625-4.535156-1.757813-6.832031-.949219-8.039062 2.84375-16.960938 2.84375-25 0-2.296875-.8125-4.839844-.457031-6.828125.949219s-3.171875 3.6875-3.171875 6.125v34.570312c0 4.132812-3.363281 7.5-7.5 7.5s-7.5-3.367188-7.5-7.5v-46.59375c6.570312-2.878906 11.671875-8.5 13.847656-15.40625h47.273438c2.179687 6.914062 7.296875 12.535156 13.878906 15.410156v46.589844c0 4.132812-3.363281 7.5-7.5 7.5s-7.5-3.367188-7.5-7.5v-34.570312c0-2.4375-1.183594-4.71875-3.167969-6.125zm3.136719-36.304688h-44.96875v-15h44.96875zm0-112.5v82.5h-44.96875v-82.5zm-82.46875 0h22.5v88.664062c-.078125.433594-.125.878907-.125 1.335938 0 .453125.046875.898438.125 1.332031v28.667969c0 5.511719-4.484375 10-10 10-2.703125 0-5.238281-1.070312-7.140625-3.011719-1.410156-1.441406-3.34375-2.253906-5.359375-2.253906s-3.949219.8125-5.359375 2.253906c-1.898437 1.941407-4.4375 3.011719-7.140625 3.011719-5.511719 0-10-4.488281-10-10v-97.5c0-12.40625 10.09375-22.5 22.5-22.5zm97.5 269.5v-21.894531l7.804688-7.804688c2.925781-2.929687 2.925781-7.675781 0-10.605469-2.929688-2.929687-7.679688-2.929687-10.609376 0l-4.695312 4.695313-4.695312-4.695313c-2.929688-2.929687-7.679688-2.929687-10.605469 0-2.929688 2.929688-2.929688 7.679688 0 10.605469l7.800781 7.804688v21.894531h-45v-21.894531l7.804688-7.804688c2.925781-2.929687 2.925781-7.675781 0-10.605469-2.929688-2.929687-7.679688-2.929687-10.605469 0l-4.699219 4.695313-4.695312-4.695313c-2.929688-2.929687-7.679688-2.929687-10.605469 0-2.929688 2.929688-2.929688 7.679688 0 10.605469l7.800781 7.804688v21.894531h-30v-125c2.648438-.535156 5.171875-1.492188 7.5-2.84375 2.328125 1.351562 4.855469 2.308594 7.5 2.84375v45c0 12.40625 10.09375 22.5 22.5 22.5s22.5-10.09375 22.5-22.5v-25.035156c4.949219.710937 10.050781.710937 15 0v25.035156c0 12.40625 10.09375 22.5 22.5 22.5s22.5-10.09375 22.5-22.5v-45c2.648438-.535156 5.171875-1.492188 7.5-2.84375 2.328125 1.351562 4.851562 2.308594 7.5 2.84375v125zm45-149.5c0 5.511719-4.484375 10-10 10-2.703125 0-5.238281-1.070312-7.140625-3.011719-1.410156-1.441406-3.34375-2.253906-5.359375-2.253906s-3.949219.8125-5.359375 2.253906c-1.902344 1.941407-4.4375 3.011719-7.140625 3.011719-5.53125 0-10.03125-4.488281-10.03125-10v-120h22.53125c12.40625 0 22.5 10.09375 22.5 22.5zm0 0"/></svg>