<svg id="Glyph" height="512" viewBox="0 0 64 64" width="512" xmlns="http://www.w3.org/2000/svg"><path d="m55.5 50.5h-1v2.93l1 .13z"/><path d="m45.28 43.5c-.58 1.92-2.24 3.41-4.3 3.71l-1.74.25.06.08 2.71.45c2.14-.62 3.77-2.36 4.3-4.49z"/><path d="m14.55 51.78c.09-.17.26-.28.45-.28h.2c-1.57-1.64-2.51-3.75-2.67-6h-1c.16 2.47 1.16 4.77 2.87 6.58z"/><path d="m8.5 56.39 1-.2v-1.69h-1z"/><path d="m27.752 43.561 2.348.939h.532l2.721-15.428-2.955-.521z"/><path d="m34.694 44.5 2.598-14.734-2.955-.521-2.69 15.255z"/><path d="m36.672 23.667c.312.713.399 1.593.243 2.479-.156.885-.538 1.683-1.076 2.246-.031.032-.065.055-.097.086l2.012.355 2.147-1.503c.084-.059.185-.09.287-.09.029 0 .058.002.087.008l1.97.347c.226.04.396.228.412.457l.079 1.121c.096 1.363 1.003 2.509 2.268 2.933l.428-2.425c.208-1.184-.056-2.378-.746-3.363-.689-.984-1.721-1.642-2.905-1.851l-5.173-.912c.019.039.045.07.064.112z"/><path d="m36.971 11.432c-.545-.096-1.052-.297-1.514-.572l-.823 3.206 3.633.641.323-3.292c-.272.052-.548.087-.828.087-.263 0-.527-.023-.791-.07z"/><path d="m29.867 54.473c-.031.07-.072.133-.129.181l.002.006.62 1.84h4.43l4.86-4.85c.11-.11.26-.17.42-.15l6.05.86-1.45-2.91-5.75-.96c-.14-.02-.26-.1-.34-.21l-1.85-2.78h-5.259l-1.016 5.761c.824-1.064 2.099-1.761 3.545-1.761h2c.276 0 .5.224.5.5 0 2.481-2.019 4.5-4.5 4.5h-2c-.047 0-.09-.015-.133-.027z"/><path d="m35.756 24.069c-.118-.27-.388-.734-.869-.819-.051-.009-.102-.013-.151-.013-.416 0-.765.295-.946.485-.403.422-.692 1.036-.814 1.729s-.061 1.369.174 1.903c.118.27.388.733.867.819l.005.001c.478.084.891-.26 1.095-.473.403-.422.692-1.036.814-1.729.121-.693.059-1.368-.175-1.903z"/><path d="m35.464 50.5h-1.464c-1.76 0-3.221 1.306-3.464 3h1.464c1.76 0 3.221-1.306 3.464-3z"/><path d="m26.28 51.58 2.77 1.85.007.005 1.399-7.935h-.456c-.06 0-.13-.01-.19-.04l-2.71-1.09-.17-.06-1.72-.69-2.155 3.601 2.824-.706c.17-.043.351.007.475.131l2 2c.195.195.195.512 0 .707-.098.098-.226.147-.354.147s-.256-.049-.354-.146l-1.8-1.8-3.426.856-.78 3.09h4.36c.1 0 .2.03.28.08z"/><path d="m30 57.5c-.22 0-.41-.14-.47-.34l-.95-2.84-2.73-1.82h-10.54l-1.569 3.138 4.227.846 2.874-.958c.265-.088.545.054.632.316s-.054.545-.316.632l-3 1c-.051.017-.104.026-.158.026-.033 0-.065-.003-.098-.01l-4.902-.98-9.5 1.9v2.09h35.07l-3.75-3z"/><path d="m37.777 19.698-4.391-.774-.748 2.914 4.845.855z"/><path d="m25.487 26.13.458-1.026c.093-.209.314-.33.543-.289l1.969.347c.13.023.247.097.323.206l1.503 2.147 2.015.355c-.02-.04-.046-.072-.064-.114-.313-.713-.399-1.593-.243-2.479.156-.885.538-1.683 1.076-2.246.032-.033.067-.055.1-.086l-5.173-.912c-2.443-.428-4.781 1.207-5.213 3.65l-.427 2.425c1.365.065 2.576-.73 3.133-1.978z"/><path d="m54.84 57.47c-.2-.06-.34-.25-.34-.47v-2.56l-14.32-1.91-4.43 4.43 3.755 2.996 4.183-3.346c.122-.097.283-.132.434-.094l4 1c.268.067.431.338.364.606s-.342.431-.606.364l-3.76-.94-3.694 2.954h20.074v-1.14z"/><path d="m37.145 10.448c.92.164 1.85-.043 2.615-.58.766-.536 1.277-1.338 1.439-2.259.162-.92-.044-1.85-.58-2.615-.536-.766-1.338-1.277-2.259-1.439-.205-.037-.411-.055-.615-.055-.712 0-1.405.217-2 .634-.766.536-1.277 1.338-1.439 2.259-.162.92.043 1.849.58 2.615.535.766 1.338 1.277 2.259 1.44zm.924-5.07c.544.096.907.615.811 1.158s-.615.907-1.158.811-.907-.615-.811-1.158.614-.907 1.158-.811z"/><path d="m38.169 15.705-3.785-.667-.748 2.915 4.239.747z"/><path d="m60.46 46.5h-1.46c-1.76 0-3.22 1.31-3.46 3h1.46c1.76 0 3.22-1.31 3.46-3z"/><path d="m49.54 46.5c.24 1.69 1.7 3 3.46 3h1.46c-.24-1.69-1.7-3-3.46-3z"/><path d="m44 42.5h1.46c-.24-1.69-1.7-3-3.46-3h-1.46c.24 1.69 1.7 3 3.46 3z"/><path d="m51.46 39.5h-1.46c-1.76 0-3.22 1.31-3.46 3h1.46c1.76 0 3.22-1.31 3.46-3z"/><path d="m17.46 41.5h-1.46c-1.76 0-3.22 1.31-3.46 3h1.46c1.76 0 3.22-1.31 3.46-3z"/><path d="m10 44.5h1.46c-.24-1.69-1.7-3-3.46-3h-1.46c.24 1.69 1.7 3 3.46 3z"/><path d="m8 53.5h1.46c-.24-1.69-1.7-3-3.46-3h-1.46c.24 1.69 1.7 3 3.46 3z"/></svg>