<?xml version="1.0" encoding="UTF-8"?>
<!-- Generator: Adobe Illustrator 25.4.1, SVG Export Plug-In . SVG Version: 6.00 Build 0)  -->
<svg xmlns="http://www.w3.org/2000/svg" xmlns:xlink="http://www.w3.org/1999/xlink" version="1.1" id="Capa_1" x="0px" y="0px" viewBox="0 0 512 512" style="enable-background:new 0 0 512 512;" xml:space="preserve" width="512" height="512">
<g>
	<g>
		<path d="M395.459,512c-28.305-42.767-75.901-30.696-117.376-19.225c-31.893,7.986-61.695-1.377-91.03-10.425    c-16.076,16.629-36.491,18.699-57.826,17.214c-60.184-10.788,1.386-14.103-0.989-56.677c0.745-32.115,5.11-72.263-19.139-97.046    c-20.936-21.659,49.37-31.484,63.602-1.437c14.374-21.032,49.416-27.821,67.304-7.937c1.763,2.15,1.889,4.59-0.785,6.44    c-28.949,25.016-22.732,69.719-21.41,104.234c40.989,36.392,127.022,4.12,130.835-53.569c7.627-24.398-21.078-56.373-6.231-56.198    c61.201-15.187,87.344,75.75,37.783,105.136c25.964,9.235,46.479,52.224,18.063,69.491C397.326,512,396.393,512,395.459,512z"/>
		<path d="M100.015,13.821c17.953-19.906,52.818-16.115,71.168,1.174c1.271,1.476,2.721,2.622,4.557,0.34    c16.169-20.159,47.259-18.76,66.912-5.531c12.16,9.286-25.85,13.768-27.227,43.793c-7.286,88.417-1.107,177.782-3.053,266.523    c-15.18,1.323-29.627,3.411-39.168,16.832c-11.604-12.485-25.788-17.562-42.947-16.445c-0.008-80.888,0.06-161.721-0.108-242.603    C130.327,52.859,128.04,24.178,100.015,13.821z"/>
	</g>
	<g>
		<path style="fill:#FFFFFF;" d="M169.479,376.36c4.031-2.92,7.982-5.957,12.109-8.735c7.285-4.905,13.823-1.822,14.265,6.966    c0.191,3.796-0.214,7.904-1.514,11.442c-5.307,14.442-10.98,28.751-16.706,43.035c-1.697,4.232-4.139,4.71-6.281,1.303    c-9.116-14.498-18.167-29.108-21.182-46.343c-0.732-4.187-0.681-8.75,0.146-12.914c1.221-6.146,7.38-8.529,12.197-4.573    c3.689,3.03,6.277,7.4,9.354,11.174C171.071,377.262,170.275,376.811,169.479,376.36z"/>
		<g>
			<path style="fill:#FFFFFF;" d="M187.406,39.931c-0.756,1.267-1.436,2.586-2.278,3.792     c-18.562,26.572-22.924,56.146-18.981,87.644c3.3,26.363,11.566,51.542,17.684,77.237c5.593,23.491,6.818,47.076-0.426,70.523     c-2.362,7.645-5.609,14.887-11.967,20.154c-1.64,1.358-3.775,2.119-5.683,3.154c-0.261-0.366-0.522-0.731-0.783-1.097     c1.866-2.112,3.92-4.089,5.564-6.361c6.246-8.635,7.969-18.748,8.991-29.001c2.425-24.316-2.517-47.664-9.652-70.684     c-7.859-25.357-13.782-51.029-13.651-77.797c0.135-27.623,7.555-52.766,24.996-74.549c1.328-1.659,3.271-2.825,4.928-4.22     C186.568,39.129,186.987,39.53,187.406,39.931z"/>
			<g>
				<path style="fill:#FFFFFF;" d="M159.972,233.49c4.403-0.084,7.818,3.352,7.962,8.012c0.147,4.773-3.545,8.511-8.514,8.621      c-4.419,0.098-7.813-3.048-7.98-7.396C151.252,237.836,155.182,233.582,159.972,233.49z"/>
				<path style="fill:#FFFFFF;" d="M193.151,124.066c0.012,4.53-3.454,8.239-7.739,8.28c-4.294,0.042-7.8-3.621-7.817-8.167      c-0.016-4.519,3.458-8.238,7.732-8.275C189.638,115.868,193.139,119.52,193.151,124.066z"/>
			</g>
		</g>
	</g>
</g>















</svg>
