<svg id="Layer_1" enable-background="new 0 0 512 512" viewBox="0 0 512 512" xmlns="http://www.w3.org/2000/svg"><path d="m332.7 315.2c-.1-1.8-.4-3.1-.3-4.4.7-7.7-.8-15.1-2.4-22.5-2.3-10.6-6.7-20.2-16-27-7.2-5.3-14-10.9-22.4-14.4-11.3-4.7-22.9-4.3-34.6-2.3-9.6 1.7-18.9 4.6-27.5 9.3-10.6 5.8-17.7 14.8-23.4 25.3-2.8 5.2-4.2 10.6-4.9 16.3-.7 5.8-1.5 11.5-1.2 17.4.1 1.5-.1 2.4-2.1 1.6-1.7-.7-3.4.4-5.2.3-6.6-.1-13.1.4-19.6 1-7.5.7-15 .3-22.4 1-1.4.1-2.8.2-4.2.4-2.3.4-3.4-.5-4.3-2.7-2.6-6.5-2-13-1.1-19.7 4.8-36.1 23.8-63 52.8-84.1 21.6-15.7 45.7-22.9 71.9-23 18-.1 35.6 3 51.7 11.3 20.4 10.5 37.7 24.8 51.2 43.6 4.5 6.2 8.9 12.4 11.8 19.6 5.2 12.5 8.1 25.5 9.1 38.9.3 4.2-.2 8.5.3 12.7.2 1.9-1.1 3.4-3.3 3.1-9-1.3-18.1-.6-27.1-1.4-6.6-.6-13.2-1.1-19.9-.9-2.1.1-4.5-1.3-6.9.6z" fill="#29abe2"/><path d="m353.8 315.2c-4.7-.3-9.3-.6-14-.5-2.3 0-4.7-1.4-7.1.5-.1-1.8-.4-3.1-.3-4.4.7-7.7-.8-15.1-2.4-22.5-2.3-10.6-6.6-20.2-16-27-7.2-5.3-14-10.9-22.4-14.4-11.3-4.7-22.9-4.3-34.6-2.3-9.6 1.7-18.9 4.6-27.5 9.3-10.6 5.8-17.7 14.8-23.3 25.3-2.8 5.2-4.2 10.6-4.9 16.4s-1.5 11.5-1.2 17.4c.1 1.5-.1 2.4-2.1 1.6-1.7-.7-3.4.4-5.1.3-5.2-.1-10.4.2-15.6.7 1-49.9 40.1-90 88.3-90 47.9-.1 87 39.8 88.2 89.6z" fill="#db5e6e"/><path d="m371 310.8c0 1.8 0 3.5-.1 5.3-3.7 0-7.5-.1-11.2-.5-2-.2-3.9-.3-5.9-.5-1.2-49.7-40.2-89.6-88.3-89.6s-87.3 40.1-88.3 90c-1.4.1-2.7.2-4 .4-2.9.3-5.9.4-8.8.4-.1-1.8-.1-3.7-.1-5.6 0-57.1 46.3-103.4 103.4-103.4s103.3 46.4 103.3 103.5z" fill="#fab03c"/><g fill="#c6e0f7"><path d="m207.8 264c7.4-3.8 14.2-3.1 21 .5 1.5.8 2.7 1.9 3.6 3.3.9 1.5 2 2.9 3 4.3 3.8 5.1 5.9 10.7 4.9 17.2-.7 4.7-.4 4.8 4.2 4.3 2.1-.2 4.1-.2 6.2-.1 9.4.6 13.9 10.7 13.7 17.2-.1 4.8-5.4 10.9-11.3 11.7-3.1.5-6.2.9-9.4.9-46-.1-92 0-138-.1-3.2 0-6 1.8-9.3 1.2-5-1-10.5-1-14.8-4-4.6-3.3-10.1-6.1-11.6-12.4-.2-.7-.6-1.4-.9-2-7.5-12.6-6.6-25.1.5-37.4 2.1-3.6 4.8-6.8 7.4-10 5.4-6.7 12.4-8.5 20.5-6.5 1.7.4 2.6.4 2.9-1.8 1.2-9.2 6.4-16.1 13.2-21.9 4.9-4.3 10-8.4 15.8-11.6 8.4-4.6 17.4-7 26.9-6.8 4.9.1 9.9.1 14.5 2.2 15.3 6.9 28.4 16.1 34.4 32.7 1.9 5.4 2.5 11.2 2.4 16.9.2.6.2 1.3.2 2.2z"/><path d="m346.6 303.9c-.2-3.1.2-6 .7-8.8 1.5-7.7 6-13.6 12.1-18.3 8-6.2 16.8-9.3 27-7.3 6.5 1.2 12.3 4 17.3 8.2 2 1.7 4.1 3.4 6 5.3 3.3 3.3 5.7 7.1 6.5 11.8.2 1.4.6 2 2.2 1.6 5.3-1.2 9.8.1 13.3 4.5s6.9 8.8 7.8 14.5c.9 5.6 0 10.8-2.8 16-1.6 3-3.2 5.6-6 7.7-4.6 3.5-9.7 4.7-15.4 3.8-1.1-.2-2.2-.2-3.2-.2-29.5 0-58.9 0-88.4 0-2.4 0-4.8-.1-7.1-.8-6.2-1.7-8.5-7.9-5.3-13.4 2.4-4.2 5.9-5.5 10.4-5.2 4 .2 4.1.1 3.7-3.9-.3-2.7.3-5.1 1.6-7.4 2.6-4.6 5.4-8.8 11.3-9.4 2.9-.4 5.5.2 8.3 1.3z"/><path d="m424 191.7c1-.2 1.9-.5 2.8-.7 6.6-1.2 10.8 5.5 11 10.1.1 3.3.1 3.3 3.4 3.4 3.8.1 6.4 2.6 6.7 6.5.2 3.1-2.1 5.4-5.8 5.9-1.2.2-2.5.1-3.7.1-18.9 0-37.7-.1-56.6.1-3.6 0-7.2.8-10.7-.9-3.9-1.9-5.9-5.3-7.2-9.2-2.4-6.9.4-12.4 4.8-17.5 2.2-2.5 5-3.5 8.3-2.7.9.2 1.3.2 1.5-.9 1-5.6 5-9 9.3-12.1 5.6-4 11.9-6.1 18.7-4.3 9.5 2.6 18.2 10.4 17.5 22.2z"/></g><path d="m133.4 223.7c-11 5.7-18.3 14.7-21.9 26.6-.5 1.5-.9 3.4 1.3 3.9 2 .5 2.4-1.2 2.8-2.7 4.7-17 22.4-31 42.5-27.8.6.1 1.1.2 1.6.3 1.4.1 2.3-.5 2.5-1.7.2-1.3-.4-2.1-1.6-2.4-.6-.2-1.1-.2-1.7-.3-9.1-1.7-17.6 0-25.5 4.1z"/><path d="m358.1 287.1c-3.1 4.4-4.9 9.2-5.9 14.4.1 1.3.6 2.2 1.9 2.3 1.4.2 2.1-.7 2.4-2 .7-3.7 2-7.2 3.9-10.5 7.4-12.2 22.5-17.5 33.6-8.5 1 .9 2.2 1 3.1-.1 1-1.2.6-2.3-.5-3.3-2.6-2.3-5.6-3.8-9-4.6-11.1-2.5-22.2 2.1-29.5 12.3z"/><path d="m99.3 262.3c-.7 0-1.3 0-2.3.1-12.3.2-20.8 10.8-22.1 19.2-.2 1.5-.5 3.2 1.5 3.6s2.4-1.2 2.7-2.8c1.6-8.4 8.6-14.9 17.1-15.7 1.2-.1 2.3-.2 3.5-.4 1.1-.2 1.7-1 1.6-2.2-.1-1-.8-1.7-2-1.8z"/><path d="m423.7 304.6c-1.5-.8-3.4-2.5-4.7 0-1.2 2.3 1.1 2.9 2.6 3.7 7.2 4.1 9.5 10.8 6.3 18.4-.4 1-.9 2-1.5 2.9-.9 1.4-1.6 2.8.2 3.8 1.8 1.1 2.7-.4 3.5-1.7 2.2-3.5 3.3-7.2 3.4-13.3.1-5.3-3.5-10.4-9.8-13.8z"/><path d="m401.6 174.4c-1.8-.1-3.5.2-5.2.8-1.4.5-2.5 1.3-1.9 2.9.5 1.6 1.8 1.6 3.3 1.2 4-1.4 7.7-.4 11.1 2 2.5 1.8 4.2 4.2 5.7 6.9.6 1.2 1.6 1.7 2.9 1s1.3-1.8.9-3c-2.7-6.3-10.1-11.6-16.8-11.8z"/><path d="m227.2 291.7c.1 2.1 0 4.2.1 6.2.1 1.3.8 2.3 2.2 2.2 1.4 0 2.1-.9 2.1-2.3 0-1.2 0-2.3 0-3.5h.1c-.2-1.9-.2-3.8-.5-5.7-.7-4.8-3.1-8.5-7.1-11.2-1.3-.9-2.6-1.4-3.7.2-.9 1.4-.1 2.5 1.2 3.3 3.9 2.6 5.5 6.3 5.6 10.8z"/><path d="m180.1 232.3c1.3.9 3-.2 3.1-1.7 0-.7-.3-1.3-.8-1.7-2.5-2.1-5.3-3.7-8.3-5-1.1-.5-2-.1-2.6.9-.6 1.1-.4 2.2.7 2.8 2.7 1.4 5.3 3 7.9 4.7z"/><path d="m388.1 180.4c-.2.1-.7.1-1 .3-2.4 2.3-4.1 5-4.7 8.3-.2 1 .6 1.7 1.6 2 1 .2 1.9-.1 2.3-1 .9-2.3 2.3-4.4 3.7-6.5.9-1.3-.1-3-1.9-3.1z"/><path d="m403.1 288.8c-.6-.5-1.4-.3-2.1.1-.7.5-1.2 1.2-.9 1.9.8 2.3 2.2 4.3 3.8 6.1.5.6 1.4.5 2.1.1s1.1-1 1.2-2.3c-1.1-1.8-2.1-4.2-4.1-5.9z"/><path d="m190.3 243.8c1.2.9 3-.2 3-1.7 0-1.1-2.5-4.8-3.5-5.2-1.4-.4-2.9.6-2.7 2 .4 2 1.6 3.7 3.2 4.9z"/></svg>