<?xml version="1.0" encoding="UTF-8"?>
<!-- Generator: Adobe Illustrator 27.3.1, SVG Export Plug-In . SVG Version: 6.00 Build 0)  -->
<svg xmlns="http://www.w3.org/2000/svg" xmlns:xlink="http://www.w3.org/1999/xlink" version="1.1" id="Capa_1" x="0px" y="0px" viewBox="0 0 512 512" style="enable-background:new 0 0 512 512;" xml:space="preserve" width="512" height="512">
<g>
	<path style="fill:#FFFFFF;" d="M280.353,512c-10.415,0-21.202-0.582-32.055-1.729c-42.028-4.445-78.973-16.162-109.814-34.828   c-35.588-21.536-62.16-52.512-74.821-87.217c-3.888-10.636-6.455-21.627-8.452-30.974c-0.024-0.11-0.046-0.222-0.067-0.332   c-0.097-0.386-0.179-0.778-0.245-1.173c-0.504-2.418-0.995-4.841-1.486-7.265c-2.644-13.054-5.142-25.382-9.529-36.846   c-3.709-9.761-8.847-19.163-14.288-29.12c-6.402-11.715-13.022-23.826-17.62-37.249c-26.25-80.412,24.774-166.184,88.703-209.468   c0.14-0.095,0.282-0.188,0.426-0.279C138.416,11.951,178.25,0,219.501,0c10.731,0,21.616,0.833,32.373,2.476   c12.123,0.089,23.831,1.418,34.204,2.596c16.923,1.924,34.23,6.803,48.138,10.722c10.97,3.092,23.4,7.621,32.408,17.772   c6.913,7.787,10.951,18.098,11.592,29.185c26.447,22.666,49.513,50.473,67.473,81.304c1.753,0.765,3.382,1.846,4.793,3.225   l51.744,50.491c3.937,3.841,5.632,9.433,4.489,14.814l-19.402,91.409c-0.618,44.587-12.754,85.993-35.147,119.972   c-0.124,0.193-0.252,0.386-0.381,0.585c-1.025,3.175-2.975,5.946-5.536,7.986c-5.554,7.643-11.544,14.804-17.843,21.319   c-1.784,1.844-3.596,3.653-5.437,5.411c-14.206,13.6-30.074,24.657-47.138,32.833c-0.904,0.434-1.865,0.877-2.823,1.29   c-0.065,0.026-0.13,0.055-0.196,0.081c-8.91,4.076-18.393,7.518-28.255,10.263c-2.148,1.41-4.652,2.345-7.378,2.635   c-0.566,0.06-1.207,0.094-1.775,0.094c-0.5,0-0.998-0.021-1.487-0.065C317.159,510.115,299.165,512,280.353,512z"/>
	<g>
		<g>
			<path style="fill:#DBB0FF;" d="M471.629,302.363c-0.278,39.717-10.464,79.434-32.517,112.898     c-26.91,41.141-67.155-8.565-115.198,0.421c-67.588,11.043-154.168,3.28-184.338-65.995     c-7.276-14.047-65.031,19.791-68.333,4.338c-3.405-16.167-6.122-32.558-12.033-47.999c-8.637-22.729-23.826-42.811-31.714-65.835     C4.218,168.877,50.392,89.581,110.017,49.211C282.698-59.876,478.128,120.731,471.629,302.363z"/>
		</g>
		<g>
			<g>
				<path style="fill:#DB4B3D;" d="M284.61,21.14c-20.258-2.302-41.093-4.566-60.774,0.757      c-19.681,5.323-38.212,20.076-41.755,40.153c-2.085,11.812,1.131,23.837,4.156,35.444c0.592,2.27,1.171,4.713,0.356,6.912      c-1.231,3.321-5.015,4.738-8.082,6.509c-7.952,4.589-12.663,13.667-13.488,22.81c-0.826,9.144,1.827,18.316,5.882,26.553      c1.427,2.899,2.707,7.096-0.057,8.77c-1.288,0.78-2.92,0.544-4.409,0.319c-32.502-4.91-67.19,9.474-86.68,35.943      c-19.49,26.469-22.928,63.863-8.591,93.443c1.062,0,1.35-0.046,2.411-0.046h370.954c0.365-5.271-2.102-10.516-3.287-15.665      c-2.916-12.67-5.868-25.445-11.326-37.245c-5.458-11.8-13.68-22.706-24.984-29.128c-10.845-6.161-23.897-7.898-34.246-14.86      c-5.013-3.372-9.574-9.036-8.18-14.914c0.69-2.91,2.724-5.283,4.644-7.577c5.992-7.161,11.584-14.939,14.23-23.894      c2.646-8.954,1.932-19.331-3.808-26.695c-6.284-8.064-17.045-11.034-25.044-17.399c-2.143-1.705-4.211-3.908-4.43-6.638      c-0.231-2.868,1.619-5.433,3.272-7.788c5.45-7.763,9.764-16.548,10.949-25.959c1.185-9.411-1.056-19.511-7.353-26.605      c-6.275-7.069-15.665-10.415-24.763-12.979C315.493,27.215,299.798,22.866,284.61,21.14z"/>
			</g>
			<g>
				<g>
					<polygon style="fill:#FF9191;" points="287.735,153.766 262.81,179.172 281.665,205.402 279.552,223.372 216.498,217.275        223.451,120.742      "/>
				</g>
				<g>
					<path style="fill:#302945;" d="M284.687,179.732l-3.022,25.671c-6.899-2.059-31.688-12.033-37.25-51.235       C245.084,155.505,255.967,176.683,284.687,179.732z"/>
				</g>
				<g>
					<g>
						<path style="fill:#FF9191;" d="M264.355,26.454c-28.367,3.13-51.15,26.071-54.112,54.456        c-0.699,6.703-0.297,13.207,1.01,19.377c-6.163,4.093-9.47,11.918-8.611,19.283c0.879,7.534,5.778,14.335,12.327,18.161        c3.724,2.176,8.259,3.329,12.498,2.934c-0.02,1.693-0.045,3.375-0.045,5.11c0,26.736,35.683,40.177,44.483,43.086        c1.264,0.418,2.628,0.336,3.844-0.207c7.332-3.271,33.851-16.263,43.615-36.962c11.379-24.123,13.427-64.177,13.427-64.177        C332.79,51.276,301.42,22.365,264.355,26.454z"/>
					</g>
					<g>
						<g>
							<path style="fill:#302945;" d="M302.749,141.422c-0.068,0-0.137-0.005-0.205-0.016l-10.241-1.593         c-0.73-0.115-1.23-0.797-1.116-1.528c0.115-0.726,0.796-1.225,1.526-1.115l8.884,1.381l4.149-32.318         c0.095-0.734,0.76-1.256,1.496-1.157c0.732,0.094,1.251,0.765,1.157,1.496l-4.324,33.682         c-0.047,0.358-0.235,0.682-0.524,0.898C303.32,141.328,303.037,141.422,302.749,141.422z"/>
						</g>
						<g>
							<path style="fill:#302945;" d="M294.06,152.693c-2.289,0-4.588-0.63-6.539-1.823c-2.557-1.57-4.524-4.113-5.398-6.98         c-0.214-0.705,0.184-1.452,0.891-1.669c0.71-0.214,1.453,0.185,1.669,0.891c0.684,2.251,2.229,4.246,4.236,5.476         c2.008,1.23,4.485,1.69,6.802,1.287c0.731-0.115,1.421,0.355,1.55,1.081c0.129,0.728-0.355,1.423-1.082,1.551         C295.487,152.632,294.774,152.693,294.06,152.693z"/>
						</g>
						<g>
							<path style="fill:#302945;" d="M279.836,119.74c-0.248,0-0.495-0.013-0.74-0.034c-4.456-0.405-7.521-4.288-9.439-7.174         c-0.409-0.613-0.241-1.444,0.374-1.851c0.616-0.413,1.444-0.245,1.854,0.373c1.613,2.426,4.141,5.688,7.454,5.988         c1.619,0.157,3.417-0.441,5.026-1.656c1.668-1.261,2.969-3.042,3.917-4.455c0.411-0.611,1.24-0.778,1.855-0.363         c0.612,0.413,0.776,1.243,0.365,1.857c-1.064,1.582-2.541,3.593-4.523,5.092C284.065,118.964,281.911,119.74,279.836,119.74z         "/>
						</g>
						<g>
							<path style="fill:#302945;" d="M318.147,121.897c-1.251,0-2.393-0.266-3.375-0.789c-2.214-1.188-3.307-3.403-4.32-5.763         c-0.291-0.679,0.022-1.465,0.701-1.755c0.679-0.303,1.464,0.021,1.756,0.7c0.85,1.979,1.671,3.682,3.125,4.46         c1.22,0.65,2.718,0.509,3.762,0.277c2.406-0.533,4.614-1.982,6.061-3.972c0.432-0.598,1.269-0.729,1.867-0.295         c0.598,0.433,0.73,1.269,0.295,1.867c-1.824,2.51-4.609,4.338-7.641,5.011C319.606,121.811,318.859,121.897,318.147,121.897z         "/>
						</g>
						<g>
							<path style="fill:#302945;" d="M284.594,95.785c-0.172,0-0.347-0.034-0.516-0.104c-3.694-1.546-8.111-1.546-11.815,0         c-0.679,0.274-1.464-0.037-1.748-0.721c-0.285-0.682,0.038-1.465,0.72-1.75c4.413-1.838,9.47-1.836,13.875,0.005         c0.682,0.285,1.003,1.068,0.718,1.747C285.614,95.477,285.116,95.785,284.594,95.785z"/>
						</g>
						<g>
							<path style="fill:#302945;" d="M328.2,101.64c-0.304,0-0.611-0.104-0.862-0.316c-2.594-2.191-6.374-2.985-9.629-2.016         c-0.717,0.204-1.453-0.196-1.664-0.901c-0.21-0.708,0.193-1.452,0.901-1.664c4.161-1.235,8.804-0.264,12.118,2.539         c0.564,0.478,0.635,1.321,0.158,1.885C328.957,101.478,328.58,101.64,328.2,101.64z"/>
						</g>
						<g>
							<path style="fill:#302945;" d="M225.19,130.274c-0.616,0-1.171-0.428-1.306-1.058c-1.262-5.881-3.341-10.234-6.353-13.308         c-3.596-3.666-8.794-5.228-12.929-3.883c-0.702,0.222-1.456-0.154-1.684-0.859c-0.228-0.702,0.157-1.457,0.859-1.684         c5.161-1.674,11.309,0.115,15.663,4.557c3.378,3.444,5.686,8.226,7.059,14.618c0.155,0.721-0.304,1.431-1.026,1.588         C225.377,130.264,225.283,130.274,225.19,130.274z"/>
						</g>
					</g>
					<g>
						<path style="fill:#DB4B3D;" d="M288.868,22.882c0,0,5.917,20.937,2.276,35.957c-3.641,15.02-16.385,20.937-16.385,20.937        s7.738,8.648-5.462,18.661c-13.199,10.013-35.502,7.738-35.502,7.738l-1.365,14.565c0,0-14.131-22.701-21.175-20.454        c-7.045,2.247-2.038,0.427-2.038,0.427s-10.013-17.751-8.648-30.951c1.365-13.199,24.578-40.964,39.599-45.971        C255.186,18.785,288.868,22.882,288.868,22.882z"/>
					</g>
				</g>
				<g>
					<path style="fill:#977BFF;" d="M412.239,447.778c-12.595,12.06-26.981,22.302-42.999,29.976       c-36.421,17.488-78.671,20.938-118.915,16.686c-36.421-3.851-72.44-13.985-103.191-32.597s-56.075-46.154-68.055-78.992       c-3.423-9.359-5.749-19.066-7.835-28.826c-0.053-0.294-0.107-0.562-0.187-0.856c0,0,0,0,0-0.027       c5.188-26.794,10.776-51.502,15.937-65.594c15.723-42.999,70.327-71.691,122.899-73.055l4.787-25.243l72.36,8.183l0.695,17.756       c0,0,62.118,15.697,79.206,39.603C381.514,275.195,405.527,409.112,412.239,447.778z"/>
				</g>
			</g>
			<g>
				<g>
					<path style="fill:#F7EDE5;" d="M335.747,490.542c-0.337,0-0.627-0.256-0.663-0.598c-0.187-1.757-4.507-43.127,1.47-52.324       c5.59-8.599,14.005-40.071,10.824-60.524c-3.147-20.217-14.44-66.838-14.555-67.308c-0.086-0.357,0.133-0.718,0.492-0.807       c0.367-0.089,0.721,0.136,0.808,0.494c0.114,0.467,11.421,47.143,14.575,67.418c3.281,21.097-5.191,52.483-11.025,61.459       c-5.72,8.8-1.307,51.026-1.261,51.452c0.039,0.368-0.227,0.697-0.594,0.737C335.795,490.542,335.771,490.542,335.747,490.542z"/>
				</g>
				<g>
					<path style="fill:#F7EDE5;" d="M155.961,466.418c-0.007,0-0.013,0-0.02,0c-0.369-0.01-0.659-0.319-0.649-0.689l4.097-136.546       c0.012-0.368,0.328-0.645,0.688-0.648c0.37,0.01,0.659,0.318,0.649,0.689l-4.097,136.546       C156.618,466.131,156.322,466.418,155.961,466.418z"/>
				</g>
			</g>
			<g>
				<g>
					<path style="fill:#F7EDE5;" d="M252.646,467.776c-0.005,0-0.012,0-0.017,0c-0.369-0.01-0.661-0.316-0.652-0.687       c2.357-89.617,4.027-180.571,4.962-270.337c0.004-0.366,0.303-0.661,0.669-0.661c0.003,0,0.005,0,0.006,0       c0.37,0.003,0.666,0.305,0.662,0.676c-0.935,89.771-2.605,180.733-4.962,270.358       C253.306,467.489,253.008,467.776,252.646,467.776z"/>
				</g>
				<g>
					<g>
						<path style="fill:#F7EDE5;" d="M271.117,269.792c-0.151,0-0.304-0.052-0.43-0.157l-28.22-23.669        c-0.283-0.238-0.32-0.658-0.082-0.943c0.239-0.279,0.659-0.316,0.941-0.081l28.22,23.67c0.283,0.238,0.32,0.658,0.082,0.943        C271.496,269.711,271.307,269.792,271.117,269.792z"/>
					</g>
					<g>
						<path style="fill:#F7EDE5;" d="M245.173,272.066c-0.152,0-0.304-0.052-0.43-0.157c-0.283-0.238-0.32-0.658-0.082-0.943        l23.668-28.219c0.238-0.282,0.66-0.313,0.941-0.081c0.283,0.238,0.32,0.658,0.082,0.943l-23.668,28.218        C245.553,271.986,245.363,272.066,245.173,272.066z"/>
					</g>
				</g>
				<g>
					<g>
						<path style="fill:#F7EDE5;" d="M269.751,313.031c-0.151,0-0.304-0.052-0.43-0.157l-28.22-23.669        c-0.283-0.238-0.32-0.658-0.082-0.943c0.236-0.28,0.659-0.316,0.941-0.081l28.22,23.669c0.283,0.238,0.32,0.658,0.082,0.943        C270.131,312.95,269.942,313.031,269.751,313.031z"/>
					</g>
					<g>
						<path style="fill:#F7EDE5;" d="M243.807,315.306c-0.151,0-0.304-0.052-0.429-0.157c-0.283-0.237-0.32-0.658-0.082-0.943        l23.668-28.218c0.238-0.282,0.661-0.313,0.942-0.081c0.283,0.237,0.32,0.658,0.082,0.943l-23.668,28.219        C244.187,315.225,243.997,315.306,243.807,315.306z"/>
					</g>
				</g>
				<g>
					<g>
						<path style="fill:#F7EDE5;" d="M269.751,357.182c-0.151,0-0.304-0.052-0.43-0.157l-28.22-23.67        c-0.283-0.237-0.32-0.658-0.082-0.943c0.236-0.28,0.659-0.316,0.941-0.081l28.22,23.67c0.283,0.237,0.32,0.658,0.082,0.943        C270.131,357.101,269.942,357.182,269.751,357.182z"/>
					</g>
					<g>
						<path style="fill:#F7EDE5;" d="M243.807,359.456c-0.151,0-0.304-0.052-0.429-0.157c-0.283-0.238-0.32-0.658-0.082-0.943        l23.668-28.219c0.238-0.279,0.661-0.313,0.942-0.081c0.283,0.238,0.32,0.658,0.082,0.943l-23.668,28.218        C244.187,359.375,243.997,359.456,243.807,359.456z"/>
					</g>
				</g>
				<g>
					<g>
						<path style="fill:#F7EDE5;" d="M268.385,400.875c-0.152,0-0.304-0.052-0.43-0.157l-28.22-23.667        c-0.284-0.237-0.32-0.658-0.082-0.943c0.239-0.279,0.659-0.316,0.941-0.081l28.22,23.667c0.284,0.238,0.32,0.658,0.082,0.943        C268.765,400.794,268.576,400.875,268.385,400.875z"/>
					</g>
					<g>
						<path style="fill:#F7EDE5;" d="M242.441,403.152c-0.151,0-0.304-0.052-0.429-0.157c-0.283-0.238-0.32-0.658-0.082-0.94        l23.668-28.224c0.237-0.279,0.658-0.316,0.941-0.081c0.283,0.237,0.32,0.658,0.082,0.943l-23.668,28.221        C242.821,403.072,242.632,403.152,242.441,403.152z"/>
					</g>
				</g>
				<g>
					<g>
						<path style="fill:#F7EDE5;" d="M267.475,440.931c-0.151,0-0.304-0.052-0.429-0.157l-28.22-23.669        c-0.284-0.238-0.32-0.658-0.082-0.943c0.239-0.279,0.658-0.313,0.941-0.081l28.22,23.67c0.283,0.238,0.32,0.658,0.082,0.943        C267.855,440.85,267.666,440.931,267.475,440.931z"/>
					</g>
					<g>
						<path style="fill:#F7EDE5;" d="M241.531,443.206c-0.152,0-0.304-0.052-0.43-0.157c-0.283-0.238-0.32-0.658-0.082-0.943        l23.668-28.219c0.238-0.282,0.661-0.316,0.942-0.081c0.283,0.237,0.32,0.658,0.082,0.943l-23.668,28.218        C241.911,443.125,241.722,443.206,241.531,443.206z"/>
					</g>
				</g>
			</g>
			<g>
				<g>
					<g>
						<g>
							<g>
								<polygon style="fill:#F7EDE5;" points="423.15,219.839 439.619,158.887 491.363,209.377 449.997,378.269 379.854,365.588                   "/>
							</g>
							<g>
								<g>
									<polygon style="fill:#302945;" points="367.679,191.07 328.974,371.341 453.708,386.781 491.363,209.377          "/>
								</g>
								<g style="opacity:0.44;">
									<polygon style="fill:#977BFF;" points="367.679,191.07 328.974,371.341 453.708,386.781 491.363,209.377          "/>
								</g>
								<g>
									<g>
										<path style="fill:#F7EDE5;" d="M417.209,334.504c-1.889,0-3.786-0.138-5.684-0.415            c-23.31-3.421-39.185-27.273-35.388-53.17c3.8-25.897,25.849-44.189,49.167-40.769            c23.311,3.421,39.185,27.273,35.388,53.17c-1.84,12.54-7.961,23.683-17.236,31.384            C435.725,331.12,426.575,334.504,417.209,334.504z M419.682,240.579c-20.728,0-39.284,17.073-42.714,40.461            c-3.732,25.443,11.826,48.867,34.68,52.22c11.059,1.619,22.169-1.645,31.273-9.2c9.116-7.568,15.133-18.528,16.941-30.859            c3.732-25.442-11.826-48.867-34.68-52.22C423.338,240.709,421.502,240.579,419.682,240.579z"/>
									</g>
									<g>
										<path style="fill:#F7EDE5;" d="M439.892,326.383c-0.107,0-0.213-0.039-0.294-0.117l-23.802-23.328l-29.536,14.143            c-0.163,0.076-0.361,0.042-0.487-0.092c-0.124-0.133-0.149-0.332-0.061-0.491l15.457-27.895l-18.775-18.397            c-0.13-0.128-0.163-0.327-0.08-0.491c0.082-0.162,0.26-0.264,0.443-0.222l26.53,4.455l18.265-32.966            c0.086-0.154,0.269-0.243,0.443-0.209c0.178,0.034,0.315,0.175,0.34,0.355l5.21,36.896l24.074,4.045            c0.18,0.029,0.32,0.172,0.346,0.355c0.025,0.18-0.069,0.358-0.234,0.436l-22.015,10.539l4.591,32.507            c0.025,0.178-0.067,0.35-0.226,0.431C440.022,326.37,439.957,326.383,439.892,326.383z M416.602,302.554l22.703,22.249            l-4.381-31.023L416.602,302.554z M401.79,289.213l-14.707,26.545l28.078-13.444L401.79,289.213z M402.212,288.453            l13.753,13.478l18.837-9.02l-2-14.159l-23.068-3.875L402.212,288.453z M433.668,278.895l1.926,13.637l20.582-9.855            L433.668,278.895z M383.935,270.542l17.655,17.303l7.267-13.117L383.935,270.542z M410.165,274.098l22.514,3.781            l-4.998-35.395L410.165,274.098z"/>
									</g>
								</g>
							</g>
						</g>
						<g>
							<path style="fill:#FF9191;" d="M447.188,377.772c-0.027,0.16-0.027,0.294-0.027,0.401c0,0.722-0.535,3.557-1.391,7.621         c-1.551,7.354-4.171,18.772-6.658,29.468c-0.936,1.444-1.899,2.888-2.888,4.305c-5.696,8.236-17.068,4.366-24.749,8.121         H397.65c0,0-27.18,6.186-24.613-5.687c2.674-12.167,5.402-25.591,5.535-30.136c0.08-2.326,0.668-7.621,1.631-14.173         c0.535-3.61,1.15-7.621,1.872-11.712c2.941-17.034,7.22-35.859,10.696-36.501c5.829-1.096,4.038,35.672,4.038,35.672         s3.048-17.462,6.926-33.479c3.236-13.477,7.06-25.912,10.108-26.259c3.236-0.374,3.316,13.798,2.514,28.639         c-0.802,15.082-2.514,30.885-2.728,32.837c0.374-1.818,3.476-17.756,7.193-32.971c1.899-7.808,3.957-15.429,5.883-20.858         c1.685-4.706,3.262-7.781,4.546-7.915c1.872-0.214,2.46,6.043,2.38,14.681v0.027c-0.027,3.289-0.161,6.926-0.321,10.696         c-0.856,17.515-2.995,37.624-2.995,37.624s8.851-29.388,15.938-46.582v-0.027c2.968-7.247,5.615-12.354,7.166-12.14         c0.428,0.053,0.722,0.535,0.936,1.364v0.027C456.735,319.932,447.696,371.648,447.188,377.772z"/>
						</g>
						<g>
							<path style="fill:#302945;" d="M441.346,406.338c-0.076,0-0.154-0.013-0.23-0.042c-0.346-0.125-0.525-0.509-0.398-0.857         c3.315-9.061,17.138-87.601,12.818-95.099c-0.112-0.193-0.201-0.256-0.232-0.261c-0.038-0.005-0.076-0.01-0.115-0.01         c-3.715,0-14.164,29.446-22.229,58.283c-0.094,0.332-0.42,0.535-0.768,0.478c-0.341-0.065-0.576-0.379-0.54-0.726         c3.409-34.052,4.093-61.999,1.524-62.297c-0.016,0-0.031-0.003-0.046-0.003c-2.944,0-11.014,31.668-16.845,61.213         c-0.071,0.35-0.41,0.572-0.76,0.53c-0.355-0.057-0.602-0.384-0.559-0.741c1.842-15.321,5.698-56.056,1.46-60.48         c-0.23-0.24-0.407-0.248-0.531-0.251c-4.9,0.381-12.997,37.766-16.949,61.242c-0.061,0.368-0.405,0.632-0.77,0.549         c-0.364-0.06-0.61-0.405-0.548-0.77c1.737-10.31,10.771-61.78,18.165-62.352c0.424-0.039,1.024,0.055,1.601,0.658         c3.879,4.048,2.023,30.676,0.385,47.723c4.214-19.708,11.136-48.653,15.442-48.653c0.038,0,0.073,0.003,0.11,0.008         c4.822,0.559,2.106,37.264,0.346,56.513c4.925-16.867,15.936-52.251,21.63-52.251c0.078,0,0.154,0.008,0.231,0.021         c0.467,0.081,0.858,0.389,1.158,0.909c4.612,8.001-9.285,86.833-12.72,96.227         C441.875,406.171,441.619,406.338,441.346,406.338z"/>
						</g>
					</g>
					<g>
						<path style="fill:#977BFF;" d="M436.225,419.567c-5.696,8.236-12.033,16.044-19.013,23.264        c-1.631,1.685-3.289,3.343-4.974,4.947c-12.595,12.06-26.981,22.302-42.999,29.976c-0.722,0.348-1.471,0.695-2.22,1.016        l-21.633,1.337l9.332-57.385L373.037,422L436.225,419.567z"/>
					</g>
				</g>
				<g>
					<path style="fill:#F7EDE5;" d="M357.596,482.35c-0.047,0-0.095-0.005-0.144-0.016c-0.36-0.078-0.589-0.436-0.509-0.796       l13.199-60.083c0.065-0.298,0.326-0.514,0.632-0.525l65.429-2.031c0.008,0,0.014,0,0.021,0c0.36,0,0.657,0.284,0.668,0.647       c0.012,0.368-0.278,0.677-0.648,0.69l-64.91,2.016l-13.087,59.573C358.181,482.139,357.904,482.35,357.596,482.35z"/>
				</g>
			</g>
			<g>
				<g>
					<g>
						<polygon style="fill:#F7EDE5;" points="137.755,99.771 140.292,58.343 142.264,100.053 152.692,91.598 146.492,101.462         168.756,104.28 147.055,107.098 153.255,115.835 142.828,110.198 140.01,146.271 137.755,110.762 127.046,115.271         133.81,107.098 106.755,103.434 133.528,102.307 127.328,93.007       "/>
					</g>
				</g>
				<g>
					<g>
						<polygon style="fill:#F7EDE5;" points="390.026,174.53 392.563,133.102 394.535,174.812 404.963,166.357 398.763,176.221         421.027,179.039 399.326,181.858 405.526,190.594 395.099,184.958 392.281,221.031 390.026,185.521 379.317,190.03         386.081,181.858 359.026,178.194 385.799,177.067 379.599,167.766       "/>
					</g>
				</g>
				<g>
					<g>
						<polygon style="fill:#F7EDE5;" points="101.136,326.873 103.673,285.445 105.646,327.155 116.073,318.7 109.873,328.564         132.137,331.382 110.437,334.2 116.637,342.937 106.209,337.3 103.391,373.373 101.136,337.864 90.427,342.373 97.191,334.2         70.136,330.536 96.909,329.409 90.709,320.109       "/>
					</g>
				</g>
			</g>
		</g>
	</g>
</g>















</svg>
