<?xml version="1.0" encoding="iso-8859-1"?>
<!-- Generator: Adobe Illustrator 26.5.1, SVG Export Plug-In . SVG Version: 6.00 Build 0)  -->
<svg xmlns="http://www.w3.org/2000/svg" xmlns:xlink="http://www.w3.org/1999/xlink" version="1.1" id="Capa_1" x="0px" y="0px" viewBox="0 0 512 512" style="enable-background:new 0 0 512 512;" xml:space="preserve">
<g>
	<path style="fill:#FFFFFF;" d="M256,512c-53.298,0-104.386-16.222-147.742-46.913c-42.398-30.012-74.32-71.507-92.316-119.998   c-5.356-14.411-9.416-29.375-12.063-44.475C1.306,285.99,0,270.978,0,256c0-68.378,23.131-136.777,71.484-185.13   C119.837,22.517,187.622,0,256,0s136.695,26.448,185.048,74.801C489.401,123.154,512,187.622,512,256   c0,26.25-3.961,52.136-11.773,76.938c-3.527,11.229-7.875,22.284-12.919,32.851c-20.481,43.096-52.562,79.586-92.766,105.512   C353.253,497.927,305.345,512,256,512z"/>
	<g>
		<g>
			<g>
				<g>
					<path style="fill:#E36352;" d="M471.583,374.147c-12.363,21.578-28.015,41.265-46.157,58.274       c-34.083,32.038-77.053,54.722-122.976,63.904C160.157,527.659,12.237,409.253,10.227,264.247       C-2.126,26.193,292.324-69.151,439.569,86.852C503.614,150.308,525.677,289.576,471.583,374.147z"/>
				</g>
			</g>
		</g>
		<g>
			<g>
				<path style="fill:#F7EDE5;" d="M441.087,169.617l-23.589,42.018c0,0,55.287-11.057,53.076-11.795      C468.362,199.104,441.087,169.617,441.087,169.617z"/>
			</g>
			<g>
				<path style="fill:#F7EDE5;" d="M115.419,321.013l-45.437,16.045c0,0,48.862,28.132,47.685,26.12      C116.49,361.165,115.419,321.013,115.419,321.013z"/>
			</g>
			<g>
				<path style="fill:#F8BDFF;" d="M136.988,49.646l30.423,37.369c0,0,10.014-55.486,8.516-53.699      C174.43,35.102,136.988,49.646,136.988,49.646z"/>
			</g>
			<g>
				<circle style="fill:#FFC063;" cx="39.87" cy="233.75" r="25.432"/>
			</g>
			<g>
				
					<ellipse transform="matrix(0.3827 -0.9239 0.9239 0.3827 -11.5286 622.0054)" style="fill:#FFC063;" cx="459.684" cy="319.63" rx="25.432" ry="25.432"/>
			</g>
			<g>
				
					<rect x="163.713" y="415.829" transform="matrix(0.866 -0.5 0.5 0.866 -194.8854 152.9898)" style="fill:#6E72FF;" width="48.653" height="48.653"/>
			</g>
			<g>
				
					<rect x="333.92" y="57.256" transform="matrix(0.866 -0.5 0.5 0.866 7.2047 190.0527)" style="fill:#B5E1E8;" width="48.653" height="48.653"/>
			</g>
		</g>
		<g>
			<g>
				<g>
					<path style="fill:#412945;" d="M201.612,459.928c-28.493,0.001-53.313-15.095-69.399-28.093       c-16.286-13.159-26.829-26.581-32.232-41.031c-0.474-1.268-0.902-2.544-1.286-3.829c-9.698-0.395-19.577-3.266-28.448-8.414       c-13.26-7.696-23.223-19.872-27.334-33.408c-6.807-22.419-0.055-49.107,18.065-71.39c1.779-2.187,3.662-4.339,5.483-6.42       c3.908-4.465,7.948-9.083,11.046-14.175c11.857-19.495,9.27-44.833,6.291-62.195l2.846-0.488       c3.056,17.82,5.69,43.861-6.671,64.184c-3.227,5.305-7.352,10.019-11.339,14.576c-1.805,2.062-3.67,4.194-5.416,6.34       c-17.513,21.537-24.07,47.23-17.542,68.73c6.735,22.18,29.2,38.358,52.223,39.728c-3.919-16.034-0.976-32.737,8.11-44.05       c3.106-3.866,6.482-6.535,10.037-7.932c9.183-3.612,20.772,1.421,25.299,10.992c4.011,8.485,2.428,19.75-3.942,28.031       c-5.428,7.057-14.16,12.254-24.59,14.634c-3.601,0.822-7.319,1.25-11.085,1.299c0.294,0.93,0.614,1.855,0.958,2.775       c5.217,13.953,15.469,26.971,31.341,39.796c16.44,13.283,42.186,28.808,71.421,27.357c18.496-0.921,37.745-8.978,54.2-22.689       c13.654-11.376,25.848-26.702,37.276-46.854c32.183-56.745,43.508-123.759,53.498-182.883       c3.384-20.017,7.218-42.704,19.509-60.81c11.676-17.197,34.758-30.899,56.299-23.817c12.463,4.099,23.12,15.046,28.508,29.283       c4.273,11.29,5.58,24.724,3.993,41.071c-1.382,14.229-4.556,28.257-9.433,41.694c-3.611,9.948-8.242,19.882-12.72,29.489       c-10.71,22.973-21.783,46.727-19.147,71.654l-2.872,0.303c-2.719-25.724,8.527-49.847,19.402-73.177       c4.452-9.55,9.056-19.426,12.623-29.254c4.795-13.209,7.915-26.999,9.273-40.988c1.543-15.895,0.293-28.904-3.82-39.77       c-5.083-13.43-15.068-23.733-26.711-27.562c-20.176-6.635-41.94,6.394-53.008,22.697       c-11.939,17.585-15.717,39.943-19.051,59.669c-10.031,59.359-21.4,126.638-53.835,183.826       c-11.603,20.46-24.013,36.045-37.94,47.648c-16.932,14.108-36.787,22.402-55.905,23.354       C204.258,459.896,202.93,459.928,201.612,459.928z M100.898,384.136c0.052,0,0.104,0,0.155,0c3.731,0,7.458-0.398,11.117-1.234       c9.777-2.23,17.926-7.053,22.944-13.578c5.727-7.445,7.181-17.507,3.62-25.037c-3.834-8.107-13.945-12.559-21.632-9.54       c-3.08,1.211-6.055,3.585-8.842,7.054C99.581,352.607,96.894,368.724,100.898,384.136z"/>
				</g>
			</g>
			<g>
				<g>
					<g>
						<g>
							<path style="fill:#412945;" d="M276.733,278.756c-56.307,41.825-123.955,51.414-171.245,28.977         c-1.567-0.741,1.182-0.894-0.339-1.708c-2.364-1.265-8.966-3.242-11.214-4.678c-9.928-6.341-18.667-14.334-25.836-23.989         C26.76,221.705,53.143,132.102,127.029,77.227c73.879-54.885,167.287-54.258,208.626,1.395         c1.553,2.097,3.013,4.235,4.387,6.415c0.956,1.54,3.327,10.301,4.192,11.879c1.087,1.983,0.64-3.206,1.581-1.163         C371.413,151.366,343.43,229.214,276.733,278.756z"/>
						</g>
					</g>
					<g>
						<g>
							<g>
								<path style="fill:#F7EDE5;" d="M345.815,95.753c-1.69-3.668-3.617-7.241-5.773-10.716          c19.523,57.204-10.383,132.848-76.359,181.857c-50.862,37.786-110.686,50.468-157.942,38.158          c-4.036-1.051-7.979-2.282-11.808-3.705c3.696,2.359,7.552,4.492,11.553,6.385c47.966,12.319,108.431-0.519,159.799-38.682          C327.865,222.57,358.359,152.341,345.815,95.753z"/>
							</g>
						</g>
					</g>
				</g>
				<g>
					<g>
						<path style="fill:#F7EDE5;" d="M132.182,166.871l79.196-67.419c2.52-2.145,6.273-1.961,8.57,0.421l18.376,19.049        c2.387,2.475,2.334,6.411-0.12,8.82l-72.02,70.713c-2.337,2.295-6.048,2.402-8.513,0.246l-25.552-22.342        C129.239,173.84,129.269,169.351,132.182,166.871z"/>
					</g>
				</g>
				<g>
					<g>
						<g>
							<polygon style="fill:#F7EDE5;" points="224.671,200.324 246.039,221.42 253.001,194.692        "/>
						</g>
					</g>
					<g>
						<g>
							<g>
								<polygon style="fill:#F7EDE5;" points="259.548,173.587 274.474,188.324 279.337,169.653         "/>
							</g>
						</g>
						<g>
							<g>
								<polygon style="fill:#F7EDE5;" points="273.939,157.819 288.865,172.555 293.728,153.885         "/>
							</g>
						</g>
					</g>
					<g>
						<g>
							<g>
								<polygon style="fill:#F7EDE5;" points="205.156,225.86 220.727,239.913 202.367,245.843         "/>
							</g>
						</g>
						<g>
							<g>
								<polygon style="fill:#F7EDE5;" points="190.242,241.134 205.812,255.188 187.452,261.117         "/>
							</g>
						</g>
					</g>
				</g>
			</g>
		</g>
		<g>
			<g>
				<g>
					<path style="fill:#F7EDE5;" d="M342.484,194.618c-4.439-0.456-8.941-0.689-13.506-0.689       c-45.512,0-85.574,23.342-108.862,58.705c-13.524,20.541-21.391,45.127-21.391,71.549c0,69.007,53.648,125.474,121.509,129.967       c2.891,0.197,5.809,0.295,8.744,0.295c41.878,0,79.147-19.771,102.973-50.488c17.104-22.035,27.281-49.719,27.281-79.774       C459.231,256.813,408.071,201.375,342.484,194.618z M311.838,324.182c0-9.46,7.671-17.14,17.14-17.14       c9.461,0,17.14,7.679,17.14,17.14c0,9.469-7.679,17.14-17.14,17.14C319.508,341.321,311.838,333.651,311.838,324.182z"/>
				</g>
				<g>
					<g>
						<path style="fill:#FFFFFF;" d="M342.484,194.618l-10.767,104.199l-28.793,10.973l-82.808-57.156        c23.289-35.362,63.35-58.705,108.862-58.705C333.542,193.928,338.044,194.161,342.484,194.618z"/>
					</g>
					<g>
						<path style="fill:#FFFFFF;" d="M431.95,403.956c-23.826,30.717-61.094,50.488-102.973,50.488        c-2.936,0-5.853-0.099-8.744-0.295l12.853-100.485l16.46-11.653L431.95,403.956z"/>
					</g>
				</g>
				<g>
					<path style="fill:none;stroke:#B5E1E8;stroke-width:2.795;stroke-miterlimit:10;" d="M341.631,202.802       c-4.159-0.428-8.377-0.646-12.653-0.646c-42.637,0-80.168,21.868-101.985,54.996c-12.669,19.243-20.04,42.277-20.04,67.029       c0,64.647,50.259,117.548,113.833,121.757c2.708,0.185,5.442,0.277,8.192,0.277c39.233,0,74.148-18.522,96.468-47.299       c16.024-20.643,25.557-46.578,25.557-74.734C451.003,261.069,403.075,209.133,341.631,202.802z M312.921,324.182       c0-8.863,7.186-16.057,16.057-16.057c8.863,0,16.057,7.194,16.057,16.057c0,8.871-7.194,16.057-16.057,16.057       C320.106,340.239,312.921,333.053,312.921,324.182z"/>
				</g>
				<g>
					<path style="fill:#B5E1E8;" d="M328.978,288.533c-19.69,0-35.649,15.967-35.649,35.649c0,19.691,15.958,35.649,35.649,35.649       c19.691,0,35.649-15.958,35.649-35.649C364.627,304.5,348.668,288.533,328.978,288.533z M328.978,341.321       c-9.469,0-17.14-7.67-17.14-17.14c0-9.46,7.671-17.14,17.14-17.14c9.461,0,17.14,7.679,17.14,17.14       C346.117,333.651,338.438,341.321,328.978,341.321z"/>
				</g>
			</g>
			<g>
				<path style="fill:#412945;" d="M352.011,245.034c1.674,1.11,2.973,1.853,3.896,2.23c0.924,0.378,1.875,0.427,2.855,0.146      c0.979-0.281,1.783-1.016,2.411-2.205c-1.354-0.155-2.396-0.384-3.124-0.681c-2.553-1.043-4.23-2.558-5.035-4.546      c-0.805-1.987-0.673-4.287,0.395-6.9c1.067-2.612,2.729-4.409,4.987-5.386c2.257-0.978,4.772-0.901,7.541,0.231      c2.771,1.132,4.554,2.995,5.352,5.59c0.797,2.595,0.422,5.788-1.127,9.579c-1.937,4.739-4.269,8.034-6.995,9.883      c-2.728,1.849-5.755,2.094-9.085,0.734c-4.133-1.688-5.914-3.225-5.349-4.61c0.299-0.729,0.834-1.623,1.607-2.683      C351.115,245.356,351.67,244.896,352.011,245.034z M363.183,234.454c-0.778-0.317-1.482-0.314-2.11,0.011      c-0.629,0.324-1.102,0.876-1.42,1.653c-0.318,0.778-0.324,1.505-0.02,2.183c0.304,0.677,0.846,1.174,1.623,1.493      c0.778,0.318,1.479,0.406,2.105,0.265c0.684-1.678,1.021-2.951,1.008-3.822C364.356,235.366,363.961,234.772,363.183,234.454z"/>
				<path style="fill:#412945;" d="M374.343,264.791c-2.673-1.929-4.148-4.482-4.428-7.663c-0.279-3.18,0.941-6.654,3.659-10.423      c2.719-3.768,5.625-6.002,8.719-6.7c3.093-0.697,5.987-0.076,8.68,1.868s4.18,4.472,4.458,7.587      c0.278,3.113-0.974,6.598-3.754,10.452c-2.78,3.852-5.696,6.112-8.748,6.774C379.877,267.352,377.014,266.718,374.343,264.791z       M386.486,247.96c-0.82-0.592-1.846-0.627-3.078-0.109c-1.233,0.52-2.463,1.631-3.693,3.334c-1.229,1.703-1.898,3.203-2.008,4.5      c-0.111,1.297,0.266,2.257,1.128,2.878c0.863,0.623,1.895,0.672,3.099,0.148c1.204-0.523,2.419-1.637,3.649-3.34      c1.228-1.704,1.89-3.218,1.987-4.54C387.666,249.509,387.306,248.552,386.486,247.96z"/>
				<path style="fill:#412945;" d="M399.465,263.188c-0.253-0.267-0.466-0.57-0.642-0.909c-0.353-0.679-0.358-1.18-0.014-1.506      l6.038-5.707c0.343-0.325,0.978-0.149,1.907,0.526c0.455,0.329,0.882,0.702,1.278,1.123s0.755,0.876,1.075,1.367      c0.623,0.965,0.763,1.609,0.419,1.934l-7.662,3.991c-0.342,0.325-0.852,0.283-1.528-0.127      C400.009,263.686,399.717,263.455,399.465,263.188z"/>
				<path style="fill:#412945;" d="M398.79,277.664c0.157,2.48,0.588,4.227,1.292,5.24c0.45,0.647,0.901,0.812,1.354,0.498      c0.323-0.225,0.353-1.078,0.091-2.558c-0.774-3.459,0.088-6.057,2.589-7.796c1.594-1.11,3.218-1.374,4.868-0.794      c1.649,0.579,3.04,1.681,4.172,3.309c1.133,1.628,1.918,3.128,2.36,4.498c0.443,1.372,0.383,2.254-0.177,2.642      c-0.475,0.33-1.261,0.533-2.359,0.609c-1.098,0.076-1.74,0.051-1.924-0.076c-0.128-1.288-0.567-2.47-1.316-3.547      c-0.404-0.582-0.812-0.73-1.221-0.447c-0.258,0.181-0.401,0.447-0.427,0.801c-0.026,0.354,0.036,0.926,0.186,1.716      c0.15,0.792,0.256,1.461,0.319,2.01c0.061,0.549,0.07,1.205,0.027,1.972c-0.1,1.604-0.807,2.863-2.121,3.777      c-1.726,1.199-3.518,1.599-5.379,1.198c-1.862-0.401-3.594-1.755-5.197-4.06c-1.065-1.531-1.773-3.102-2.125-4.711      c-0.352-1.611-0.076-2.73,0.83-3.36c0.603-0.419,1.34-0.716,2.211-0.89C397.716,277.522,398.364,277.51,398.79,277.664z"/>
				<path style="fill:#412945;" d="M407.488,306.915c-0.222,0.08-0.708-0.912-1.457-2.971c-0.748-2.059-0.951-3.153-0.604-3.279      l25.353-9.214c0.173-0.062,0.435,0.274,0.788,1.014c0.352,0.737,0.621,1.366,0.81,1.883c0.754,2.072,0.908,3.19,0.464,3.352      l-7.403,2.69c0.922,1.229,1.512,2.201,1.773,2.916c0.681,1.876,0.72,3.538,0.116,4.987c-0.605,1.448-2.265,2.666-4.979,3.653      l-11.473,4.169c-0.223,0.081-0.684-0.841-1.384-2.765c-0.715-2.199-0.986-3.329-0.813-3.392l10.882-3.955      c1.209-0.439,1.67-1.055,1.383-1.843c-0.197-0.543-0.685-1.078-1.463-1.605L407.488,306.915z"/>
				<path style="fill:#412945;" d="M412.492,325.599c-0.207,0.04-0.542-1.117-1.008-3.474c-0.467-2.356-0.61-3.553-0.43-3.589      l18.969-3.753c0.18-0.036,0.504,1.124,0.97,3.481c0.467,2.356,0.623,3.55,0.468,3.58L412.492,325.599z M433.74,321.393      c-0.18,0.037-0.504-1.124-0.97-3.48c-0.466-2.357-0.622-3.551-0.468-3.581l5.563-1.101c0.258-0.052,0.619,1.101,1.086,3.458      c0.466,2.356,0.622,3.55,0.468,3.581L433.74,321.393z"/>
				<path style="fill:#412945;" d="M413.59,337.307c-0.313,0.022-0.546-1.068-0.699-3.268c-0.076-2.626,0.004-3.947,0.24-3.963      l13.908-0.962l-0.139-2.004c-0.037-0.523,0.849-0.849,2.656-0.973c0.472-0.033,1.051-0.027,1.738,0.017      c0.688,0.045,1.041,0.211,1.061,0.499l0.145,2.082l3.457-0.239c0.524-0.036,0.863,1.052,1.015,3.266      c0.154,2.212,0.021,3.334-0.398,3.363l-2.514,0.175l-1.098,0.116l0.231,3.339c0.031,0.444-0.871,0.73-2.704,0.858      c-1.833,0.126-2.766-0.033-2.796-0.478l-0.193-2.789L413.59,337.307z"/>
				<path style="fill:#412945;" d="M420.569,343.178c-1.475,1.999-2.27,3.614-2.382,4.843c-0.072,0.784,0.166,1.201,0.715,1.252      c0.392,0.036,0.964-0.598,1.717-1.9c1.633-3.146,3.966-4.579,6.999-4.3c1.934,0.177,3.347,1.019,4.238,2.524      c0.889,1.506,1.243,3.244,1.062,5.219c-0.181,1.974-0.544,3.628-1.088,4.961c-0.544,1.335-1.157,1.97-1.836,1.908      c-0.575-0.053-1.307-0.404-2.196-1.052c-0.89-0.649-1.364-1.082-1.424-1.298c0.731-1.067,1.156-2.254,1.276-3.56      c0.065-0.706-0.151-1.083-0.648-1.127c-0.314-0.029-0.595,0.083-0.842,0.337c-0.247,0.254-0.569,0.732-0.961,1.434      c-0.395,0.701-0.745,1.282-1.051,1.741c-0.306,0.46-0.721,0.969-1.247,1.527c-1.109,1.164-2.461,1.673-4.055,1.526      c-2.092-0.193-3.721-1.041-4.887-2.545c-1.167-1.505-1.622-3.656-1.365-6.453c0.169-1.856,0.639-3.514,1.406-4.972      c0.766-1.459,1.698-2.138,2.796-2.037c0.732,0.067,1.488,0.314,2.266,0.742C419.838,342.378,420.341,342.787,420.569,343.178z"/>
			</g>
		</g>
	</g>
</g>
<g>
</g>
<g>
</g>
<g>
</g>
<g>
</g>
<g>
</g>
<g>
</g>
<g>
</g>
<g>
</g>
<g>
</g>
<g>
</g>
<g>
</g>
<g>
</g>
<g>
</g>
<g>
</g>
<g>
</g>
</svg>
