<?xml version="1.0" encoding="iso-8859-1"?>
<!-- Generator: Adobe Illustrator 26.5.1, SVG Export Plug-In . SVG Version: 6.00 Build 0)  -->
<svg xmlns="http://www.w3.org/2000/svg" xmlns:xlink="http://www.w3.org/1999/xlink" version="1.1" id="Capa_1" x="0px" y="0px" viewBox="0 0 512 512" style="enable-background:new 0 0 512 512;" xml:space="preserve">
<g>
	<path style="fill:#FFFFFF;" d="M255.651,511.217c-34.379-0.001-69.704-7.897-102.407-22.864l-9.372,3.031   c-0.984,0.319-1.983,0.47-2.965,0.47c-4.026,0-7.774-2.543-9.126-6.562l-3.34-9.922c-36.521-21.617-67.613-51.598-90.082-86.899   C14.144,350.43,1.014,307.593,0.383,264.573C-3.26,193.525,19.161,130.328,65.228,81.808c24.493-25.797,54.293-46.04,88.572-60.165   C186.915,7.997,223.416,0.784,259.357,0.784c72.47,0,138.952,28.126,187.225,79.208c32.082,31.855,54.896,82.216,62.596,138.197   c7.836,56.974-0.773,111.031-24.25,152.741l0.334,1.553c1.039,4.834-1.75,9.668-6.455,11.189l-1.817,0.587   c-12.296,20.329-27.378,38.928-44.87,55.326c-36.062,33.899-80.216,56.845-127.679,66.353c-15.935,3.502-32.35,5.278-48.787,5.278   C255.654,511.217,255.653,511.217,255.651,511.217z"/>
	<g>
		<g>
			<g>
				<g>
					<path style="fill:#E36352;" d="M470.109,373.56c-12.373,21.595-28.037,41.298-46.193,58.319       c-34.11,32.063-77.113,54.765-123.072,63.954C158.44,527.192,10.404,408.694,8.393,263.575       C-3.97,25.334,290.71-70.084,438.07,86.04C502.165,149.546,524.245,288.923,470.109,373.56z"/>
				</g>
			</g>
		</g>
		<g>
			
				<ellipse transform="matrix(0.2372 -0.9715 0.9715 0.2372 -199.9736 568.7342)" style="fill:#FFC063;" cx="262.157" cy="411.701" rx="73.282" ry="73.282"/>
		</g>
		<g>
			
				<ellipse transform="matrix(0.7071 -0.7071 0.7071 0.7071 -73.4179 132.6905)" style="fill:#F7EDE5;" cx="123.463" cy="154.968" rx="73.282" ry="73.282"/>
		</g>
		<g>
			<circle style="fill:#B5E1E8;" cx="392.983" cy="160.87" r="73.282"/>
		</g>
		<g>
			
				<ellipse transform="matrix(0.234 -0.9722 0.9722 0.234 -242.8259 380.4429)" style="fill:#B5E1E8;" cx="120.02" cy="344.321" rx="73.282" ry="73.282"/>
		</g>
		<g>
			<g>
				<g>
					<path style="fill:#412945;" d="M67.77,250.873c-0.241,0-0.486-0.06-0.711-0.188l-39.362-22.316       c-0.694-0.393-0.938-1.276-0.544-1.97c0.393-0.693,1.276-0.938,1.969-0.544l39.363,22.316c0.694,0.393,0.938,1.275,0.544,1.97       C68.762,250.61,68.273,250.873,67.77,250.873z"/>
				</g>
				<g>
					<path style="fill:#412945;" d="M63.161,259.001c-0.241,0-0.486-0.06-0.711-0.188l-39.362-22.315       c-0.694-0.393-0.938-1.275-0.544-1.969c0.393-0.692,1.276-0.938,1.969-0.544L63.874,256.3c0.694,0.393,0.938,1.275,0.544,1.97       C64.153,258.738,63.664,259.001,63.161,259.001z"/>
				</g>
				<g>
					<path style="fill:#412945;" d="M58.552,267.131c-0.241,0-0.486-0.06-0.711-0.188l-39.362-22.315       c-0.694-0.393-0.938-1.275-0.544-1.97c0.393-0.692,1.276-0.938,1.969-0.544l39.362,22.315c0.694,0.393,0.938,1.275,0.544,1.97       C59.544,266.867,59.055,267.131,58.552,267.131z"/>
				</g>
			</g>
			<g>
				<g>
					<path style="fill:#412945;" d="M295.603,448.872c-0.466,0-0.923-0.225-1.201-0.64c-0.444-0.663-0.268-1.56,0.395-2.005       l37.58-25.202c0.663-0.445,1.56-0.266,2.004,0.395c0.444,0.663,0.268,1.56-0.395,2.005l-37.58,25.202       C296.159,448.793,295.879,448.872,295.603,448.872z"/>
				</g>
				<g>
					<path style="fill:#412945;" d="M300.807,456.633c-0.466,0-0.923-0.225-1.201-0.64c-0.444-0.663-0.268-1.56,0.395-2.005       l37.58-25.202c0.663-0.446,1.56-0.266,2.004,0.395c0.444,0.663,0.268,1.56-0.395,2.005l-37.58,25.202       C301.364,456.554,301.084,456.633,300.807,456.633z"/>
				</g>
				<g>
					<path style="fill:#412945;" d="M306.012,464.394c-0.466,0-0.923-0.225-1.201-0.641c-0.444-0.662-0.268-1.559,0.395-2.004       l37.58-25.201c0.662-0.445,1.561-0.267,2.004,0.396c0.444,0.662,0.268,1.559-0.395,2.004l-37.58,25.201       C306.569,464.315,306.289,464.394,306.012,464.394z"/>
				</g>
			</g>
			<g>
				<g>
					<path style="fill:#412945;" d="M457.424,197.576c-0.308,0-0.619-0.098-0.881-0.301l-35.826-27.637       c-0.632-0.487-0.749-1.395-0.262-2.026c0.487-0.631,1.396-0.75,2.026-0.262l35.826,27.637c0.632,0.487,0.749,1.395,0.262,2.026       C458.284,197.382,457.856,197.576,457.424,197.576z"/>
				</g>
				<g>
					<path style="fill:#412945;" d="M451.717,204.974c-0.308,0-0.619-0.098-0.881-0.301l-35.826-27.637       c-0.632-0.487-0.749-1.395-0.262-2.026c0.487-0.632,1.395-0.75,2.026-0.261l35.826,27.637c0.632,0.487,0.749,1.395,0.262,2.026       C452.577,204.781,452.149,204.974,451.717,204.974z"/>
				</g>
				<g>
					<path style="fill:#412945;" d="M446.009,212.374c-0.308,0-0.619-0.098-0.881-0.301l-35.826-27.638       c-0.632-0.487-0.749-1.395-0.262-2.026c0.487-0.631,1.396-0.75,2.026-0.261l35.826,27.638c0.632,0.487,0.749,1.395,0.261,2.026       C446.869,212.18,446.441,212.374,446.009,212.374z"/>
				</g>
			</g>
			<g>
				<g>
					<path style="fill:#412945;" d="M164.084,61.61c-0.466,0-0.923-0.225-1.201-0.64c-0.444-0.663-0.267-1.56,0.395-2.005       l37.58-25.202c0.662-0.445,1.56-0.266,2.004,0.395c0.445,0.663,0.268,1.561-0.395,2.005l-37.58,25.202       C164.641,61.531,164.361,61.61,164.084,61.61z"/>
				</g>
				<g>
					<path style="fill:#412945;" d="M169.289,69.37c-0.466,0-0.923-0.225-1.201-0.641c-0.445-0.662-0.268-1.559,0.395-2.004       l37.58-25.201c0.663-0.446,1.56-0.267,2.004,0.396c0.444,0.662,0.268,1.56-0.395,2.004l-37.58,25.201       C169.845,69.291,169.565,69.37,169.289,69.37z"/>
				</g>
				<g>
					<path style="fill:#412945;" d="M174.494,77.132c-0.466,0-0.923-0.225-1.201-0.64c-0.444-0.663-0.268-1.561,0.395-2.005       l37.58-25.202c0.662-0.444,1.56-0.266,2.004,0.395c0.444,0.663,0.268,1.56-0.395,2.005l-37.58,25.202       C175.05,77.053,174.77,77.132,174.494,77.132z"/>
				</g>
			</g>
			<g>
				<path style="fill:#412945;" d="M145.964,456.918c-10.763,0-19.52-8.756-19.52-19.519c0-10.763,8.756-19.519,19.52-19.519      c10.763,0,19.519,8.756,19.519,19.519C165.483,448.162,156.727,456.918,145.964,456.918z M145.964,420.77      c-9.17,0-16.63,7.46-16.63,16.63c0,9.17,7.46,16.63,16.63,16.63c9.17,0,16.63-7.46,16.63-16.63      C162.593,428.229,155.133,420.77,145.964,420.77z"/>
			</g>
			<g>
				<path style="fill:#412945;" d="M348.104,83.623c-8.729,0-15.831-7.101-15.831-15.831c0-8.729,7.101-15.83,15.831-15.83      s15.831,7.101,15.831,15.83C363.934,76.522,356.833,83.623,348.104,83.623z M348.104,54.852      c-7.136,0-12.941,5.805-12.941,12.941c0,7.136,5.805,12.941,12.941,12.941c7.136,0,12.941-5.805,12.941-12.941      C361.045,60.657,355.24,54.852,348.104,54.852z"/>
			</g>
			<g>
				<path style="fill:#412945;" d="M413.025,414.129c-7.509,0-13.618-6.108-13.618-13.617s6.109-13.618,13.618-13.618      c7.509,0,13.617,6.109,13.617,13.618S420.533,414.129,413.025,414.129z M413.025,389.784c-5.916,0-10.728,4.813-10.728,10.728      c0,5.915,4.812,10.727,10.728,10.727c5.915,0,10.728-4.812,10.728-10.727C423.753,394.597,418.94,389.784,413.025,389.784z"/>
			</g>
			<g>
				<path style="fill:#412945;" d="M472.781,254.041c-8.322,0-15.093-6.771-15.093-15.094s6.771-15.093,15.093-15.093      c8.322,0,15.093,6.77,15.093,15.093S481.104,254.041,472.781,254.041z M472.781,226.744c-6.729,0-12.204,5.474-12.204,12.203      s5.475,12.204,12.204,12.204c6.729,0,12.204-5.475,12.204-12.204S479.51,226.744,472.781,226.744z"/>
			</g>
			<g>
				<path style="fill:#412945;" d="M68.87,154.446c-8.525,0-15.462-6.937-15.462-15.462c0-8.525,6.936-15.461,15.462-15.461      c8.526,0,15.462,6.936,15.462,15.461C84.332,147.509,77.395,154.446,68.87,154.446z M68.87,126.412      c-6.932,0-12.572,5.64-12.572,12.572c0,6.933,5.64,12.573,12.572,12.573c6.933,0,12.572-5.64,12.572-12.573      C81.442,132.052,75.802,126.412,68.87,126.412z"/>
			</g>
		</g>
		<g>
			<g>
				<polygon style="fill:#6E72FF;" points="63.304,255.792 139.291,481.54 154.613,476.586 279.461,325.877 289.052,247.677       242.574,168.739 114.95,105.29 103.88,107.999     "/>
			</g>
			<g>
				<polygon style="fill:#412945;" points="474.227,373.828 444.215,383.527 300.118,351.944 189.816,465.79 154.786,477.117       78.793,251.362 114.95,105.29 127.866,101.9 241.591,106.032 339.674,46.297 351.02,43.32 414.463,95.706     "/>
			</g>
			<g>
				<polygon style="fill:#F7EDE5;" points="444.215,383.527 189.816,465.79 144.452,296.371 406.354,220.378     "/>
			</g>
			<g>
				<g>
					<path style="fill:#F7EDE5;" d="M339.674,46.297L297.17,57.46l1.226,8.734l-4.029-8.002L127.866,101.9l46.347,160.53       l167.377-51.231l0.004-4.261l2.75,3.423l40.366-12.357L339.674,46.297z M192.407,230.953L160.44,115.865l33.932-9.343       l35.415,111.148L192.407,230.953z"/>
				</g>
				<g>
					<g>
						<polygon style="fill:#412945;" points="344.345,210.361 341.591,211.199 294.367,58.191 297.17,57.46       "/>
					</g>
				</g>
			</g>
			<g>
				<g>
					
						<rect x="174.987" y="304.739" transform="matrix(0.9588 -0.2841 0.2841 0.9588 -74.8624 94.2754)" style="fill:#412945;" width="225.179" height="0.963"/>
				</g>
				<g>
					
						<rect x="180.397" y="330.805" transform="matrix(0.9588 -0.2841 0.2841 0.9588 -82.0458 96.8878)" style="fill:#412945;" width="225.179" height="0.963"/>
				</g>
				<g>
					
						<rect x="188.758" y="354.413" transform="matrix(0.9588 -0.2841 0.2841 0.9588 -88.4082 100.2359)" style="fill:#412945;" width="225.179" height="0.963"/>
				</g>
				<g>
					
						<rect x="196.135" y="377.529" transform="matrix(0.9588 -0.2841 0.2841 0.9588 -94.6714 103.2843)" style="fill:#412945;" width="225.179" height="0.963"/>
				</g>
			</g>
			<g>
				<g>
					<polygon style="fill:#FFC063;" points="378.954,325.643 390.324,288.076 394.461,323.726 426.384,327.864 404.084,341.461        413.848,366.533 387.446,346.313 360.996,379.959 371.265,341.226 339.834,328.983      "/>
				</g>
				<g>
					<polygon style="fill:#FFC063;" points="203.216,324.779 203.632,285.531 217.57,318.604 249.377,313.653 231.767,332.941        248.15,354.285 217.148,342.251 201.158,381.949 200.19,341.89 166.59,338.921      "/>
				</g>
				<g>
					<path style="fill:#412945;" d="M237.426,302.95c2.656,0.116,4.225,0.923,4.705,2.419c0.482,1.498,0.508,3.531,0.082,6.097       c-0.426,2.568-1.024,3.974-1.795,4.221c-0.214,0.069-0.499,0.031-0.851-0.116c-0.355-0.145-1.079-0.196-2.173-0.152       c-1.095,0.045-2.005,0.184-2.733,0.418c-2.481,0.797-4.201,2.317-5.155,4.557c-0.956,2.243-0.853,5.171,0.308,8.786       c1.161,3.617,2.803,6.05,4.928,7.302c2.125,1.255,4.385,1.496,6.781,0.726c0.984-0.316,2.042-0.809,3.172-1.479       c1.131-0.669,1.869-1.344,2.218-2.022c0.058-0.112,0.215-0.211,0.472-0.293c0.257-0.083,0.893,0.245,1.908,0.98       c1.015,0.737,2.072,1.79,3.174,3.159c1.1,1.37,1.787,2.482,2.062,3.337c0.536,1.669-0.322,3.407-2.574,5.214       c-2.251,1.81-5.131,3.278-8.638,4.404c-5.647,1.814-10.93,1.313-15.842-1.499c-4.915-2.81-8.536-7.842-10.863-15.094       c-2.329-7.252-2.288-13.554,0.124-18.906c2.412-5.351,6.419-8.928,12.023-10.727C231.88,303.279,234.77,302.837,237.426,302.95       z"/>
					<path style="fill:#412945;" d="M272.206,339.957c0.124,0.386-1.997,1.277-6.36,2.679c-3.437,1.056-5.202,1.434-5.299,1.134       l-14.031-43.703c-0.206-0.641,1.765-1.628,5.916-2.96c3.678-1.038,5.564-1.409,5.661-1.11L272.206,339.957z"/>
					<path style="fill:#412945;" d="M274.709,314.024c-1.884-1.754-3.042-3.306-3.474-4.654c-0.433-1.348-0.348-2.33,0.256-2.949       c2.096-1.853,5.271-3.462,9.528-4.83c4.257-1.366,7.581-1.336,9.975,0.089c2.392,1.427,4.215,4.088,5.464,7.98l3.256,10.139       l2.18-0.701c0.728-0.233,1.431,0.014,2.113,0.738c0.681,0.726,1.262,1.837,1.743,3.334c0.481,1.498,0.579,3.094,0.298,4.788       c-0.281,1.696-1.064,2.749-2.348,3.161c-2.31,0.742-4.37,0.719-6.181-0.07c-0.806-0.307-1.497-0.768-2.073-1.387       c-1.172,3.115-3.833,5.338-7.982,6.67c-3.124,1.003-6.112,0.735-8.966-0.804c-2.854-1.536-4.768-3.824-5.743-6.863       c-2.239-6.973,0.814-11.8,9.156-14.478l3.529-1.133l-0.206-0.641c-0.357-1.113-0.769-1.77-1.236-1.974       c-0.466-0.204-1.363-0.093-2.689,0.333C279.685,311.294,277.484,312.378,274.709,314.024z M283.635,324.183       c0.303,0.941,0.788,1.576,1.46,1.903c0.672,0.327,1.402,0.364,2.194,0.109c0.791-0.254,1.405-0.803,1.841-1.653l-1.586-4.942       l-1.797,0.578C283.694,320.837,282.99,322.172,283.635,324.183z"/>
					<path style="fill:#412945;" d="M308.963,315.981c4.139,0.984,7.212,1.153,9.223,0.507c1.284-0.412,1.781-1.068,1.494-1.966       c-0.207-0.643-1.588-1.118-4.142-1.432c-6.048-0.465-9.868-3.178-11.462-8.142c-1.016-3.165-0.637-5.954,1.138-8.365       c1.774-2.41,4.276-4.133,7.506-5.17c3.23-1.038,6.079-1.573,8.545-1.61c2.465-0.037,3.877,0.501,4.233,1.613       c0.303,0.943,0.241,2.33-0.184,4.166c-0.426,1.835-0.788,2.872-1.089,3.109c-2.17-0.435-4.324-0.309-6.463,0.377       c-1.155,0.371-1.602,0.963-1.341,1.775c0.165,0.513,0.53,0.881,1.096,1.099c0.566,0.219,1.533,0.405,2.904,0.554       c1.37,0.152,2.519,0.313,3.448,0.486c0.928,0.174,2.007,0.488,3.239,0.943c2.576,0.967,4.283,2.754,5.12,5.363       c1.1,3.423,0.854,6.557-0.733,9.402c-1.59,2.847-4.671,5.006-9.249,6.475c-3.038,0.975-5.962,1.347-8.773,1.117       c-2.811-0.23-4.505-1.244-5.082-3.042c-0.385-1.197-0.501-2.551-0.349-4.063C308.195,317.667,308.501,316.602,308.963,315.981z       "/>
					<path style="fill:#412945;" d="M337.842,306.71c4.138,0.984,7.211,1.153,9.223,0.507c1.284-0.412,1.78-1.068,1.493-1.966       c-0.206-0.642-1.587-1.118-4.14-1.431c-6.05-0.465-9.869-3.178-11.463-8.142c-1.016-3.165-0.637-5.954,1.137-8.365       c1.775-2.41,4.276-4.133,7.508-5.17c3.229-1.038,6.078-1.573,8.544-1.61c2.465-0.037,3.877,0.501,4.234,1.613       c0.302,0.943,0.241,2.33-0.184,4.166c-0.426,1.835-0.789,2.872-1.09,3.11c-2.169-0.435-4.323-0.31-6.462,0.377       c-1.155,0.371-1.603,0.963-1.342,1.775c0.165,0.513,0.531,0.881,1.097,1.099c0.565,0.219,1.533,0.404,2.904,0.554       c1.368,0.152,2.518,0.313,3.447,0.486c0.929,0.174,2.008,0.488,3.24,0.942c2.575,0.967,4.283,2.754,5.121,5.363       c1.099,3.423,0.854,6.557-0.734,9.402c-1.589,2.847-4.67,5.006-9.248,6.475c-3.038,0.975-5.963,1.347-8.774,1.117       c-2.811-0.23-4.504-1.244-5.081-3.042c-0.385-1.197-0.501-2.551-0.35-4.063C337.074,308.395,337.38,307.331,337.842,306.71z"/>
					<path style="fill:#412945;" d="M261.963,403.304c0.234,0.728-1.822,1.788-6.164,3.182c-4.343,1.394-6.63,1.729-6.864,1.001       l-10.157-31.639l-6.911,2.29c-1.283,0.412-2.584-1.435-3.902-5.543c-0.453-1.412-0.754-2.826-0.902-4.241       c-0.147-1.416,0.12-2.234,0.806-2.454l17.584-5.644c0.726-0.234,1.367-0.263,1.919-0.086c0.552,0.177,0.904,0.5,1.055,0.971       L261.963,403.304z"/>
					<path style="fill:#412945;" d="M269.765,389.684c3.414-0.387,5.935-0.843,7.56-1.365c1.625-0.522,2.926-1.506,3.902-2.952       c0.975-1.446,1.219-3.294,0.733-5.545c-1.947,1.287-3.563,2.134-4.846,2.546c-4.492,1.442-8.359,1.304-11.601-0.417       c-3.242-1.719-5.601-4.879-7.078-9.478c-1.476-4.599-1.275-8.781,0.608-12.548c1.881-3.764,5.261-6.432,10.139-7.998       c4.877-1.565,9.266-1.086,13.167,1.435c3.902,2.525,6.924,7.122,9.066,13.798c2.678,8.342,3.249,15.226,1.71,20.65       c-1.539,5.426-5.238,9.08-11.099,10.963c-7.273,2.335-11.301,2.282-12.084-0.157c-0.412-1.283-0.694-3.043-0.847-5.284       C268.944,391.093,269.165,389.877,269.765,389.684z M272.764,363.521c-1.37,0.44-2.289,1.219-2.756,2.336       c-0.467,1.117-0.48,2.361-0.041,3.729c0.44,1.37,1.232,2.33,2.378,2.883c1.144,0.552,2.401,0.609,3.771,0.169       c1.368-0.439,2.385-1.096,3.048-1.97c-0.948-2.952-1.909-4.99-2.884-6.118C275.305,363.425,274.132,363.082,272.764,363.521z"/>
					<path style="fill:#412945;" d="M306.024,378.044c3.414-0.388,5.934-0.843,7.56-1.365c1.625-0.522,2.925-1.506,3.902-2.952       c0.974-1.446,1.218-3.294,0.732-5.545c-1.947,1.287-3.562,2.134-4.846,2.546c-4.492,1.442-8.358,1.304-11.601-0.416       c-3.241-1.72-5.601-4.88-7.078-9.479c-1.476-4.599-1.274-8.781,0.608-12.548c1.882-3.764,5.262-6.432,10.139-7.997       c4.878-1.566,9.267-1.087,13.168,1.435c3.901,2.525,6.923,7.121,9.065,13.796c2.678,8.342,3.249,15.227,1.71,20.651       c-1.538,5.427-5.238,9.08-11.099,10.962c-7.273,2.335-11.3,2.282-12.084-0.157c-0.412-1.283-0.694-3.043-0.847-5.283       C305.202,379.453,305.424,378.236,306.024,378.044z M309.022,351.88c-1.369,0.44-2.287,1.219-2.755,2.336       c-0.467,1.117-0.481,2.361-0.041,3.729c0.44,1.37,1.231,2.33,2.377,2.883c1.145,0.552,2.401,0.608,3.771,0.169       c1.368-0.439,2.385-1.096,3.049-1.97c-0.948-2.953-1.91-4.99-2.885-6.118C311.562,351.785,310.389,351.441,309.022,351.88z"/>
					<path style="fill:#412945;" d="M366.98,349.626c0.427-0.137,1.161,1.409,2.197,4.639c1.037,3.231,1.341,4.915,0.914,5.052       l-4.216,1.423l2.596,8.086c0.152,0.471-0.615,1.095-2.301,1.872c-1.686,0.778-3.17,1.371-4.454,1.783l-2.672,0.717       c-2.237,0.53-3.452,0.495-3.644-0.104l-2.555-7.958l-12.771,4.1c-1.47-0.754-2.938-1.876-4.407-3.363       c-1.468-1.487-2.33-2.626-2.584-3.418c-0.254-0.791-0.328-1.464-0.223-2.017l6.06-29.413c0.061-0.395,1.294-1.075,3.7-2.036       c2.404-0.96,4.955-1.875,7.65-2.739c2.696-0.865,4.077-1.191,4.146-0.977l8.326,25.714L366.98,349.626z M351.535,354.655       l-4.306-13.413l-3.203,15.823L351.535,354.655z"/>
				</g>
			</g>
		</g>
	</g>
</g>
<g>
</g>
<g>
</g>
<g>
</g>
<g>
</g>
<g>
</g>
<g>
</g>
<g>
</g>
<g>
</g>
<g>
</g>
<g>
</g>
<g>
</g>
<g>
</g>
<g>
</g>
<g>
</g>
<g>
</g>
</svg>
