<?xml version="1.0" encoding="UTF-8"?>
<!-- Generator: Adobe Illustrator 25.3.1, SVG Export Plug-In . SVG Version: 6.00 Build 0)  -->
<svg xmlns="http://www.w3.org/2000/svg" xmlns:xlink="http://www.w3.org/1999/xlink" version="1.1" id="Capa_1" x="0px" y="0px" viewBox="0 0 512 512" style="enable-background:new 0 0 512 512;" xml:space="preserve" width="512" height="512">
<g>
	<path style="fill:#FFFFFF;" d="M255.487,511.986C34.94,509.602-85.165,235.434,71.814,75.43   C147.7-1.919,274.86-22.578,371.411,26.511c95.896,48.757,154.038,162.622,137.3,268.892   c-16.737,106.269-107.063,196.752-213.303,213.673C282.174,511.184,268.821,512.13,255.487,511.986z"/>
	<g>
		<g>
			<path style="fill:#564BB7;" d="M497.762,255.165c-0.023,16.852-1.682,33.16-5.07,49.439c-0.198,1.039-0.42,2.077-0.692,3.116     c-0.658,2.889-1.306,5.761-2.077,8.607c-1.387,5.386-2.936,10.672-4.724,15.927c-1.361,4.104-2.859,8.231-4.477,12.242     c-1.206,3.148-2.552,6.233-3.908,9.299c-0.148,0.371-0.322,0.742-0.495,1.088c-0.445,1.039-0.94,2.077-1.435,3.091     c-2.92,6.234-6.099,12.358-9.55,18.32c-2.189,3.782-35.981,47.567-36.229,47.814c-1.632,1.706-3.314,3.363-4.996,4.996     l-0.074,0.049c-2.382,2.332-5.622,2.738-8.114,4.957c-3.249,2.894-5.784,7.564-9.174,10.278l-0.025,0.025     c-12.031,9.591-24.933,18.113-38.582,25.251c-1.113,0.618-2.251,1.187-3.413,1.756c-7.441,3.841-15.185,7.161-23.001,10.19     c-2.622,0.989-5.243,1.929-7.89,2.844c0,0.025-0.025,0.025-0.025,0.025c-7.321,2.523-281.16-93.628-294.395-119.654     c-13.884-27.302-22.624-57.233-25.241-88.045C-0.562,114.909,146.275-13.916,302.33,17.416c0.322,0.074,0.668,0.124,0.989,0.198     c24.688,4.927,47.697,13.489,69.299,25.449C448.636,84.528,498.25,167.261,497.762,255.165z"/>
			<path style="opacity:0.14;fill:#95ABD3;" d="M497.762,255.165c-0.023,16.852-1.682,33.16-5.07,49.439     c-0.198,1.039-0.42,2.077-0.692,3.116c-0.658,2.889-1.306,5.761-2.077,8.607c-1.387,5.386-2.936,10.672-4.724,15.927     c-1.361,4.104-2.859,8.231-4.477,12.242c-1.206,3.148-2.552,6.233-3.908,9.299c-0.148,0.371-0.322,0.742-0.495,1.088     c-0.445,1.039-0.94,2.077-1.435,3.091c-4.772,10.188-10.237,20.082-16.447,29.456c-0.791,1.261-1.632,2.498-2.473,3.735     c-0.297,0.47-0.618,0.94-0.965,1.41c-2.83,4.085-5.75,8.147-8.854,12.02c-0.866,1.113-1.731,2.226-2.646,3.314     c-0.321,0.445-0.693,0.89-1.064,1.311c-3.068,3.731-6.213,7.362-9.547,10.882c-0.989,1.088-2.003,2.152-3.017,3.215     c-0.272,0.272-0.52,0.544-0.767,0.792c-1.632,1.706-3.314,3.363-4.996,4.996l-0.074,0.049     c-5.488,5.374-11.297,10.441-17.288,15.235l-0.025,0.025c-12.031,9.591-24.933,18.113-38.582,25.251     c-1.113,0.618-2.251,1.187-3.413,1.756c-7.441,3.841-15.185,7.161-23.001,10.19c-2.622,0.989-5.243,1.929-7.89,2.844     c0,0.025-0.025,0.025-0.025,0.025c-7.321,2.523-14.814,4.699-22.432,6.505h-0.025c-50.596,12.18-142.496-31.48-142.644-31.529     c-2.201-0.965-112.366-63.78-125.154-86.789c23.047-0.348,47.458-14.45,53.075-37.791c3.4-14.12-0.137-28.829-1.41-43.306     c-5.211-43.422,20.158-92.786,67.964-93.215c48.301,0.816,78.622,61.286,126.825,64.377     c31.063,2.003,59.456-22.753,69.225-52.308c9.794-29.555,4.106-62.251-7.296-91.212c-11.402-28.998-28.168-55.53-41.599-83.569     c-2.72-5.688-5.268-11.822-7.024-18.03c24.688,4.927,47.697,13.489,69.299,25.449C448.636,84.528,498.25,167.261,497.762,255.165     z"/>
			<path style="opacity:0.42;fill:#95ABD3;" d="M497.762,255.165c-0.023,16.852-1.682,33.16-5.07,49.439     c-0.198,1.039-0.42,2.077-0.692,3.116c-0.658,2.889-1.306,5.761-2.077,8.607c-1.387,5.386-2.936,10.672-4.724,15.927     c-1.361,4.104-2.859,8.231-4.477,12.242c-1.206,3.148-2.552,6.233-3.908,9.299c-0.148,0.371-0.322,0.742-0.495,1.088     c-0.445,1.039-0.94,2.077-1.435,3.091c-4.772,10.188-10.237,20.082-16.447,29.456c-0.791,1.261-1.632,2.498-2.473,3.735     c-0.297,0.47-0.618,0.94-0.965,1.41c-2.83,4.085-5.75,8.147-8.854,12.02c-0.866,1.113-1.731,2.226-2.646,3.314     c-0.321,0.445-0.693,0.89-1.064,1.311c-3.068,3.731-6.213,7.362-9.547,10.882c-0.989,1.088-2.003,2.152-3.017,3.215     c-0.272,0.272-0.52,0.544-0.767,0.792c-1.632,1.706-3.314,3.363-4.996,4.996l-0.074,0.049     c-5.488,5.374-11.297,10.441-17.288,15.235l-0.025,0.025c-12.031,9.591-24.933,18.113-38.582,25.251     c-1.113,0.618-2.251,1.187-3.413,1.756c-7.441,3.841-15.185,7.161-23.001,10.19c-2.622,0.989-5.243,1.929-7.89,2.844     c0,0.025-0.025,0.025-0.025,0.025c-7.321,2.523-14.814,4.699-22.432,6.505h-0.025c-50.596,12.18-107.335,6.859-154.081-14.295     c-0.198-0.074-0.371-0.173-0.52-0.222c-2.201-0.965-4.328-1.954-6.455-2.993c-0.173-0.099-0.346-0.198-0.519-0.272     c-4.872-2.363-9.674-4.871-14.345-7.568c12.035-4.228,23.322-10.726,31.261-20.824c0.074-0.074,0.124-0.173,0.198-0.247     c12.803-16.58,14.189-38.594,13.553-58.837v-0.025c-0.594-17.758-2.449-35.664,1.286-53.001     c3.748-17.688,15.512-36.227,33.66-41.055h0.025c0.495-0.148,0.965-0.272,1.459-0.396c27.294-5.461,49.127,16.828,63.116,37.642     v0.025c15.555,22.929,32.741,46.696,57.873,59.431c25.388,13.392,59.52,11.92,78.277-11.228     c12.614-15.035,18.299-34.978,20.8-54.361c3.141-25.078,2.028-50.676-3.265-75.383c-12.455-52.522-38.426-106.712,3.71-152.226     C475.303,137.692,498.116,196.322,497.762,255.165z"/>
		</g>
		<g>
			<path style="fill:#FDBC08;" d="M117.822,219.488c0,9.21-2.945,17.745-7.946,24.685c-7.687,10.676-20.216,17.616-34.369,17.616     c-23.363,0-42.3-18.938-42.3-42.3c0-23.176,18.607-41.984,41.697-42.301c0.201-0.014,0.402-0.014,0.603-0.014     C98.885,177.173,117.822,196.111,117.822,219.488z"/>
			<path style="fill:#9F6DA4;" d="M117.822,219.488c0,9.21-2.945,17.745-7.946,24.685c-0.201,0.015-0.416,0.015-0.618,0.015     c-23.363,0-42.3-18.952-42.3-42.315c0-9.21,2.946-17.745,7.946-24.685c0.201-0.014,0.402-0.014,0.603-0.014     C98.885,177.173,117.822,196.111,117.822,219.488z"/>
		</g>
		<g>
			<path style="fill:#FF5382;" d="M347.045,420.919c-0.01,22.085-4.459,43.427-13.207,63.537c0,0.025-0.025,0.025-0.025,0.025     c-7.321,2.523-14.814,4.699-22.432,6.505h-0.025c-76.672,18.492-161.04-3.194-218.631-56.389     c-21.943-19.871-40.233-43.795-53.57-70.264c11.018-29.138,30.859-54.724,56.117-72.811     C200.579,216.257,347.154,292.241,347.045,420.919z"/>
			<path style="opacity:0.31;fill:#F3C7D1;" d="M281.975,496.006c-8.681,0.94-17.535,1.435-26.488,1.435     c-4.031,0-8.063-0.099-12.044-0.297l-90.173-40.165l-69.522-30.965c-8.978-8.978-17.213-18.673-24.683-28.986l107.634,47.782     L281.975,496.006z"/>
			<path style="opacity:0.31;fill:#F3C7D1;" d="M344.325,450.375c-0.223,1.113-0.42,2.25-0.668,3.339     c-0.445,2.102-0.915,4.205-1.459,6.282c-0.297,1.187-0.618,2.374-0.94,3.561c-0.396,1.434-0.816,2.869-1.261,4.279     c-0.47,1.558-0.965,3.092-1.484,4.625c-0.445,1.286-0.891,2.548-1.385,3.809c-0.47,1.286-0.965,2.572-1.484,3.858     c-0.049,0.148-0.099,0.272-0.173,0.42c-0.519,1.311-1.063,2.597-1.632,3.908c0,0.025-0.025,0.025-0.025,0.025     c-7.321,2.523-14.814,4.699-22.432,6.505h-0.025l-134.048-68.26L68.093,367.127l-24.806-12.638     c2.993-6.554,6.43-12.836,10.264-18.846l36.134,14.27l90.767,35.787v0.025L344.325,450.375z"/>
			<path style="opacity:0.31;fill:#F3C7D1;" d="M323.154,337.028l-230.7-43.43c9.72-7.296,20.28-13.504,31.558-18.45l174.658,31.509     C308.018,315.734,316.254,325.924,323.154,337.028z"/>
		</g>
		<g>
			
				<ellipse transform="matrix(0.9006 -0.4346 0.4346 0.9006 -69.7748 202.8496)" style="fill:#FF8933;" cx="408.637" cy="253.985" rx="46.894" ry="46.894"/>
			<path style="fill:#FDBC08;" d="M411.004,251.988c-13.378,11.311-27.5,22.483-39.286,30.89c-0.196-0.225-0.374-0.461-0.533-0.707     c10.798-7.648,24.303-18.123,39.28-30.815c12.726-10.808,23.728-20.808,32.474-29.326c0.214,0.215,0.418,0.413,0.596,0.649     C434.032,231.899,422.53,242.247,411.004,251.988z"/>
			<g>
				<path style="fill:#F3C7D1;" d="M371.718,282.878c11.786-8.407,25.908-19.579,39.286-30.89      c11.527-9.742,23.029-20.089,32.53-29.31c14.689-14.25,24.6-25.842,22.459-28.427c-1.589-1.888-8.957,1.651-21.866,10.486      c-3.736,2.561-7.785,5.462-12.048,8.623c0.249,0.149,0.526,0.306,0.767,0.483c4.153-3.101,8.084-5.913,11.739-8.405      c17.945-12.28,20.452-11.017,20.776-10.647c0.02,0.037,0.058,0.063,0.078,0.1c0.887,1.608-4.147,8.341-13.757,18.36      c-2.591,2.692-5.517,5.641-8.744,8.779c-8.745,8.518-19.748,18.518-32.474,29.326c-14.976,12.693-28.481,23.168-39.28,30.815      c-14.61,10.417-24.19,15.606-25.544,14.016c-0.341-0.36-1.17-3.073,13.91-18.731c1.776-1.837,3.687-3.773,5.69-5.76      c-0.133-0.284-0.247-0.578-0.352-0.855c-2.121,2.075-4.103,4.098-5.95,6.023c-10.507,10.943-15.247,17.561-14.077,19.681      c0.03,0.055,0.07,0.128,0.129,0.191c1.03,1.22,4.524,0.079,9.66-2.753C359.219,291.463,365.098,287.602,371.718,282.878z"/>
			</g>
			<g>
				<path style="fill:#F3C7D1;" d="M390.808,297.353c11.626-8.437,25.51-19.479,38.671-30.622      c8.988-7.603,17.511-15.14,25.103-22.163c6.006-5.576,11.445-10.84,16.055-15.576c10.593-10.872,15.412-17.39,14.323-19.364      c-0.03-0.055-0.07-0.127-0.119-0.173c-1.491-1.752-8.761,1.876-21.601,10.793c-4.307,2.995-9.035,6.437-14.038,10.245      c0.149,0.227,0.28,0.465,0.411,0.703c5.031-3.8,9.767-7.27,14.093-10.275c17.846-12.416,20.226-11.298,20.521-10.936l0.03,0.055      c0.292,0.53,0.346,3.48-14.195,18.387c-4.521,4.638-9.844,9.767-15.705,15.216c-0.901,0.83-1.81,1.689-2.747,2.54      c-6.963,6.39-14.622,13.117-22.661,19.934c-14.913,12.634-28.344,23.115-39.045,30.852      c-14.633,10.548-24.188,15.913-25.434,14.431c-0.285-0.343-1.023-2.892,14.183-18.452c0.521-0.526,1.049-1.079,1.606-1.625      c-0.231-0.159-0.443-0.328-0.655-0.497c-0.521,0.525-1.041,1.051-1.543,1.567c-10.604,10.853-15.422,17.372-14.324,19.364      c0.03,0.055,0.078,0.099,0.109,0.154c0.903,1.075,4.009,0.053,8.652-2.507C377.232,306.794,383.583,302.577,390.808,297.353z"/>
			</g>
		</g>
		<g>
			<path style="fill:#F3C7D1;" d="M139.081,148.547c0,0-17.681-87.562,50.516-94.297c68.197-6.736,104.401,88.404,104.401,88.404     L139.081,148.547z"/>
			<path style="fill:#FFFFFF;" d="M222.13,80.612c0.932,13.628,7.066,26.835,16.877,36.339c2.099,2.034,4.413,3.935,7.144,4.977     c2.73,1.042,5.952,1.122,8.465-0.371c3.746-2.226,4.892-7.168,4.653-11.519c-0.643-11.737-8.434-21.748-16.368-30.421     c-3.177-3.473-8.676-10.188-13.849-10.444C223.336,68.892,221.821,76.082,222.13,80.612z"/>
			<g>
				<path style="fill:#95ABD3;" d="M115.928,149.389l224.798-8.419l16.839-47.149l-1.684,51.358l-157.239,47.324      c-10.213,3.074-21.274,1.217-29.922-5.024L115.928,149.389z"/>
				<polyline style="fill:#95ABD3;" points="230.011,162.86 231.447,163.283 298.629,183.067 271.687,153.599     "/>
			</g>
			<g>
				<path style="fill:#F3C7D1;" d="M371.879,140.326c-3.542,0-4.828-12.958-4.828-21.668s1.286-21.668,4.828-21.668      c3.542,0,4.826,12.958,4.826,21.668S375.422,140.326,371.879,140.326z M371.879,98.228c-1.254,0-3.593,7.017-3.593,20.43      s2.34,20.43,3.593,20.43s3.591-7.017,3.591-20.43S373.133,98.228,371.879,98.228z"/>
				<path style="fill:#F3C7D1;" d="M388.297,146.64c-3.999,0-6.092-14.076-6.092-27.982s2.093-27.982,6.092-27.982      c3.999,0,6.089,14.076,6.089,27.982S392.296,146.64,388.297,146.64z M388.297,91.914c-2.027,0-4.856,10.174-4.856,26.744      s2.829,26.744,4.856,26.744s4.854-10.174,4.854-26.744S390.324,91.914,388.297,91.914z"/>
			</g>
		</g>
		<g>
			<path style="fill:#FDBC08;" d="M453.17,381.101l12.144-4.798c-10.039,17.355-22.233,33.429-36.208,47.807l-0.173-1.088     l-4.823,6.084l-0.074,0.049c-5.488,5.374-11.297,10.441-17.288,15.235l10.981-27.848l-40.808,16.076l34.303-27.304l-43.355-6.505     l43.355-6.505c-3.88-3.12-29.771-23.714-34.279-27.304c1.218,0.48,41.243,16.29,40.783,16.1     c-0.217-0.483-15.351-38.973-16.076-40.808c4.335,5.45,23.362,29.366,27.279,34.303c0.338-2.253,6.373-42.443,6.505-43.355     l0.099,0.618l6.405,42.737l27.304-34.303L453.17,381.101z"/>
			<path style="fill:#FDBC08;" d="M342.025,50.285l16.076,40.808L330.821,56.79l-2.127,14.246l-4.377,29.11l-6.505-43.355     l-27.304,34.279l16.076-40.783l-40.783,16.076l34.303-27.279l-43.355-6.505l43.355-6.505L285.908,14.77     c5.54,0.692,11.006,1.583,16.422,2.646c0.322,0.074,0.668,0.124,0.989,0.198c20.379,4.056,39.819,10.684,57.972,19.563     l-12.762,1.904l34.279,27.279L342.025,50.285z"/>
		</g>
		<g>
			<g>
				<path style="fill:#FFFFFF;" d="M311.701,261.338c-9-0.682-18-0.854-27-0.868c-0.001-0.003-0.002-0.006-0.003-0.01      c3.801-3.452,7.509-7.007,10.957-10.853c0.129-0.144,0.146-0.363,0.029-0.527c-0.135-0.189-0.399-0.233-0.588-0.098      c-4.17,2.984-8.083,6.253-11.904,9.626c-0.15-0.084-0.305-0.158-0.469-0.218c-0.01-3.919-0.05-7.838-0.09-11.758      c-0.113-4.983-0.225-9.966-0.502-14.948c-0.009-0.164-0.14-0.298-0.308-0.308c-0.18-0.01-0.334,0.128-0.344,0.308      c-0.277,4.983-0.39,9.965-0.502,14.948c-0.04,3.88-0.079,7.76-0.09,11.64c-0.187,0.043-0.37,0.097-0.543,0.17      c-1.339-1.443-2.689-2.879-4.076-4.28c-2.116-2.187-4.262-4.347-6.495-6.429c-0.075-0.07-0.192-0.079-0.278-0.015      c-0.096,0.072-0.116,0.207-0.045,0.304c1.825,2.448,3.737,4.817,5.679,7.16c1.229,1.517,2.495,3.001,3.77,4.476      c-0.165,0.252-0.285,0.533-0.374,0.827c-3.89,0.027-7.779,0.069-11.669,0.203c-4.983,0.131-9.966,0.31-14.948,0.647      c-0.121,0.008-0.22,0.104-0.228,0.228c-0.009,0.135,0.093,0.252,0.228,0.261c4.983,0.337,9.965,0.516,14.948,0.647      c3.921,0.136,7.842,0.177,11.763,0.204c0.007,0.016,0.014,0.03,0.021,0.045c-3.688,3.409-7.3,6.903-10.708,10.624      c-0.126,0.138-0.142,0.349-0.028,0.505c0.13,0.178,0.38,0.217,0.557,0.086c4.104-3.002,8-6.236,11.819-9.555      c0.196,0.089,0.401,0.159,0.615,0.208c0.024,3.98,0.029,7.959,0.133,11.939c0.091,4.983,0.216,9.966,0.45,14.948      c0.008,0.166,0.142,0.302,0.31,0.31c0.18,0.009,0.333-0.131,0.341-0.31c0.234-4.983,0.359-9.965,0.45-14.948      c0.105-4.019,0.108-8.037,0.133-12.056c0.114-0.041,0.223-0.088,0.331-0.141c1.368,1.526,2.728,3.06,4.135,4.551      c2.113,2.19,4.223,4.383,6.473,6.449c0.143,0.132,0.364,0.148,0.526,0.029c0.185-0.136,0.225-0.395,0.089-0.58      c-1.808-2.463-3.756-4.8-5.701-7.14c-1.343-1.579-2.733-3.115-4.116-4.659c0.052-0.096,0.113-0.187,0.157-0.289      c9.031-0.012,18.063-0.185,27.094-0.868c0.119-0.009,0.216-0.103,0.226-0.226C311.937,261.465,311.836,261.348,311.701,261.338z      "/>
			</g>
			<g>
				<path style="fill:#FFFFFF;" d="M121.709,137.64c-9-0.681-18-0.854-27-0.868c-0.001-0.003-0.002-0.006-0.003-0.01      c3.801-3.452,7.509-7.007,10.957-10.853c0.129-0.144,0.146-0.363,0.029-0.527c-0.136-0.189-0.399-0.233-0.588-0.098      c-4.17,2.984-8.083,6.253-11.903,9.626c-0.15-0.084-0.305-0.158-0.469-0.218c-0.01-3.919-0.05-7.838-0.09-11.758      c-0.113-4.983-0.226-9.966-0.502-14.948c-0.009-0.164-0.14-0.298-0.308-0.308c-0.18-0.01-0.334,0.128-0.344,0.308      c-0.277,4.983-0.39,9.966-0.502,14.948c-0.04,3.88-0.079,7.76-0.09,11.64c-0.187,0.043-0.37,0.097-0.543,0.17      c-1.339-1.443-2.688-2.879-4.076-4.28c-2.116-2.187-4.262-4.347-6.495-6.429c-0.076-0.07-0.192-0.079-0.278-0.015      c-0.096,0.072-0.116,0.208-0.045,0.304c1.825,2.448,3.737,4.817,5.679,7.16c1.229,1.518,2.495,3.001,3.771,4.476      c-0.165,0.253-0.285,0.533-0.374,0.827c-3.89,0.027-7.78,0.069-11.669,0.203c-4.983,0.131-9.966,0.31-14.948,0.647      c-0.121,0.008-0.219,0.104-0.227,0.228c-0.009,0.135,0.093,0.252,0.227,0.261c4.983,0.336,9.966,0.516,14.948,0.647      c3.921,0.136,7.842,0.177,11.763,0.204c0.007,0.016,0.014,0.03,0.021,0.045c-3.688,3.408-7.3,6.902-10.708,10.624      c-0.126,0.137-0.142,0.349-0.028,0.505c0.13,0.178,0.38,0.217,0.557,0.086c4.104-3.002,8-6.235,11.819-9.555      c0.196,0.089,0.401,0.159,0.615,0.208c0.024,3.98,0.029,7.959,0.133,11.939c0.091,4.983,0.216,9.965,0.45,14.948      c0.008,0.165,0.141,0.302,0.31,0.31c0.18,0.008,0.333-0.131,0.341-0.31c0.234-4.983,0.359-9.966,0.45-14.948      c0.105-4.019,0.108-8.038,0.133-12.056c0.114-0.041,0.223-0.088,0.331-0.141c1.368,1.526,2.728,3.06,4.135,4.552      c2.113,2.19,4.222,4.383,6.473,6.449c0.143,0.132,0.363,0.148,0.526,0.029c0.184-0.136,0.224-0.395,0.089-0.58      c-1.808-2.463-3.756-4.8-5.701-7.14c-1.342-1.579-2.733-3.116-4.116-4.659c0.053-0.096,0.114-0.187,0.157-0.289      c9.032-0.012,18.063-0.184,27.094-0.868c0.119-0.009,0.216-0.104,0.226-0.226C121.945,137.768,121.844,137.65,121.709,137.64z"/>
			</g>
			<g>
				<path style="fill:#FFFFFF;" d="M460.551,158.972c-9-0.681-18-0.854-27-0.868c-0.001-0.003-0.002-0.006-0.003-0.01      c3.801-3.452,7.509-7.007,10.957-10.853c0.129-0.144,0.146-0.363,0.029-0.527c-0.136-0.189-0.399-0.233-0.588-0.098      c-4.17,2.984-8.083,6.253-11.903,9.626c-0.15-0.084-0.305-0.158-0.469-0.218c-0.01-3.919-0.05-7.838-0.09-11.758      c-0.113-4.983-0.226-9.966-0.502-14.948c-0.009-0.164-0.14-0.298-0.308-0.308c-0.18-0.01-0.334,0.128-0.344,0.308      c-0.277,4.983-0.39,9.966-0.502,14.948c-0.04,3.88-0.079,7.76-0.09,11.64c-0.187,0.043-0.37,0.097-0.543,0.171      c-1.34-1.443-2.688-2.879-4.076-4.28c-2.116-2.187-4.262-4.347-6.495-6.429c-0.076-0.07-0.193-0.079-0.278-0.015      c-0.096,0.072-0.116,0.208-0.044,0.304c1.825,2.448,3.737,4.817,5.679,7.16c1.229,1.518,2.495,3.001,3.77,4.476      c-0.165,0.253-0.285,0.533-0.374,0.827c-3.89,0.027-7.779,0.069-11.669,0.203c-4.983,0.131-9.966,0.31-14.948,0.647      c-0.121,0.008-0.22,0.104-0.228,0.228c-0.009,0.135,0.093,0.252,0.228,0.261c4.982,0.337,9.965,0.516,14.948,0.647      c3.921,0.136,7.842,0.177,11.763,0.204c0.007,0.016,0.014,0.03,0.021,0.045c-3.689,3.408-7.301,6.903-10.708,10.624      c-0.126,0.138-0.142,0.349-0.028,0.505c0.13,0.178,0.38,0.217,0.558,0.086c4.104-3.002,8-6.235,11.819-9.555      c0.196,0.089,0.401,0.159,0.615,0.208c0.024,3.98,0.029,7.959,0.133,11.939c0.091,4.983,0.216,9.965,0.45,14.948      c0.008,0.165,0.142,0.302,0.31,0.31c0.18,0.008,0.333-0.131,0.341-0.31c0.234-4.983,0.359-9.966,0.45-14.948      c0.105-4.019,0.108-8.038,0.133-12.056c0.114-0.041,0.223-0.088,0.33-0.141c1.369,1.526,2.728,3.06,4.135,4.551      c2.113,2.19,4.222,4.383,6.473,6.449c0.143,0.132,0.363,0.148,0.526,0.029c0.184-0.136,0.224-0.395,0.089-0.58      c-1.808-2.463-3.756-4.8-5.701-7.14c-1.343-1.579-2.733-3.116-4.116-4.659c0.053-0.096,0.113-0.187,0.156-0.289      c9.032-0.012,18.063-0.184,27.094-0.868c0.119-0.009,0.217-0.103,0.226-0.226C460.787,159.1,460.686,158.983,460.551,158.972z"/>
			</g>
			<g>
				<path style="fill:#FFFFFF;" d="M347.914,462.122c-9-0.681-18-0.854-27-0.868c-0.001-0.003-0.002-0.006-0.003-0.01      c3.801-3.452,7.509-7.007,10.957-10.853c0.129-0.144,0.146-0.363,0.029-0.527c-0.135-0.189-0.399-0.233-0.588-0.098      c-4.17,2.984-8.083,6.253-11.903,9.626c-0.15-0.084-0.305-0.158-0.469-0.218c-0.01-3.919-0.05-7.838-0.09-11.758      c-0.113-4.983-0.225-9.966-0.502-14.948c-0.009-0.164-0.14-0.298-0.308-0.308c-0.18-0.01-0.334,0.128-0.344,0.308      c-0.277,4.983-0.39,9.966-0.502,14.948c-0.04,3.88-0.08,7.76-0.09,11.64c-0.187,0.043-0.37,0.097-0.543,0.17      c-1.34-1.443-2.688-2.879-4.076-4.28c-2.116-2.187-4.262-4.347-6.495-6.429c-0.075-0.07-0.193-0.079-0.278-0.015      c-0.096,0.072-0.116,0.208-0.044,0.304c1.825,2.448,3.737,4.817,5.679,7.16c1.228,1.518,2.495,3.001,3.771,4.476      c-0.165,0.252-0.285,0.533-0.375,0.827c-3.89,0.027-7.78,0.069-11.669,0.203c-4.983,0.131-9.966,0.31-14.948,0.647      c-0.12,0.008-0.22,0.104-0.228,0.228c-0.009,0.135,0.093,0.252,0.228,0.261c4.983,0.336,9.966,0.516,14.948,0.647      c3.921,0.136,7.842,0.177,11.763,0.204c0.007,0.016,0.014,0.03,0.021,0.045c-3.689,3.408-7.301,6.902-10.708,10.624      c-0.126,0.137-0.142,0.349-0.028,0.505c0.13,0.178,0.38,0.216,0.558,0.086c4.104-3.002,8-6.236,11.819-9.555      c0.196,0.089,0.401,0.159,0.616,0.208c0.024,3.98,0.029,7.959,0.132,11.939c0.091,4.983,0.216,9.965,0.45,14.948      c0.008,0.165,0.142,0.303,0.31,0.31c0.18,0.008,0.333-0.131,0.341-0.31c0.234-4.983,0.359-9.966,0.45-14.948      c0.104-4.019,0.108-8.038,0.133-12.056c0.114-0.041,0.223-0.088,0.331-0.141c1.368,1.526,2.728,3.06,4.135,4.552      c2.113,2.19,4.223,4.383,6.473,6.449c0.143,0.132,0.363,0.148,0.526,0.029c0.185-0.136,0.225-0.395,0.089-0.58      c-1.808-2.463-3.756-4.8-5.701-7.14c-1.342-1.579-2.733-3.116-4.116-4.659c0.053-0.096,0.114-0.187,0.157-0.289      c9.031-0.012,18.063-0.184,27.094-0.868c0.119-0.009,0.216-0.104,0.226-0.226C348.15,462.25,348.049,462.132,347.914,462.122z"/>
			</g>
			<g>
				<path style="fill:#FFFFFF;" d="M93.678,338.44c-9-0.681-18-0.854-27-0.868c-0.001-0.003-0.002-0.006-0.003-0.009      c3.801-3.452,7.509-7.007,10.957-10.853c0.129-0.144,0.146-0.363,0.029-0.527c-0.135-0.189-0.399-0.233-0.588-0.098      c-4.17,2.984-8.083,6.253-11.903,9.626c-0.15-0.084-0.305-0.158-0.469-0.218c-0.01-3.919-0.05-7.838-0.09-11.758      c-0.113-4.983-0.225-9.966-0.502-14.948c-0.009-0.164-0.14-0.298-0.308-0.308c-0.18-0.01-0.334,0.128-0.344,0.308      c-0.277,4.983-0.39,9.966-0.502,14.948c-0.04,3.88-0.079,7.76-0.09,11.64c-0.187,0.043-0.37,0.097-0.543,0.17      c-1.339-1.443-2.688-2.879-4.076-4.28c-2.116-2.187-4.262-4.347-6.495-6.429c-0.075-0.07-0.192-0.079-0.278-0.015      c-0.096,0.072-0.116,0.208-0.045,0.304c1.825,2.448,3.737,4.817,5.679,7.16c1.229,1.517,2.495,3.001,3.77,4.476      c-0.165,0.252-0.285,0.533-0.374,0.827c-3.89,0.027-7.779,0.069-11.669,0.203c-4.983,0.131-9.966,0.31-14.948,0.647      c-0.121,0.008-0.22,0.104-0.228,0.228c-0.009,0.135,0.093,0.252,0.228,0.261c4.982,0.336,9.965,0.516,14.948,0.647      c3.921,0.136,7.842,0.177,11.763,0.204c0.007,0.016,0.014,0.03,0.021,0.045c-3.689,3.408-7.3,6.903-10.708,10.624      c-0.126,0.137-0.142,0.349-0.028,0.505c0.13,0.178,0.379,0.217,0.557,0.086c4.104-3.002,8-6.236,11.819-9.555      c0.196,0.089,0.401,0.159,0.615,0.208c0.024,3.98,0.029,7.959,0.133,11.939c0.091,4.983,0.216,9.965,0.45,14.948      c0.008,0.166,0.141,0.303,0.31,0.31c0.18,0.008,0.333-0.131,0.341-0.31c0.234-4.983,0.359-9.966,0.45-14.948      c0.105-4.019,0.108-8.038,0.133-12.056c0.114-0.041,0.223-0.088,0.331-0.141c1.368,1.526,2.728,3.06,4.135,4.552      c2.113,2.19,4.222,4.383,6.473,6.449c0.143,0.132,0.363,0.148,0.526,0.029c0.185-0.136,0.225-0.395,0.089-0.58      c-1.808-2.463-3.756-4.8-5.701-7.14c-1.343-1.579-2.733-3.115-4.115-4.659c0.052-0.096,0.113-0.187,0.157-0.289      c9.031-0.012,18.062-0.184,27.094-0.868c0.119-0.009,0.216-0.103,0.226-0.226C93.914,338.568,93.813,338.45,93.678,338.44z"/>
			</g>
		</g>
		<g>
			<g>
				<circle style="fill:#FDBC08;" cx="158.19" cy="227.114" r="4.982"/>
				<path style="fill:#FDBC08;" d="M197.947,218.779c0,2.752-2.23,4.982-4.982,4.982c-2.751,0-4.982-2.23-4.982-4.982      c0-2.751,2.23-4.981,4.982-4.981C195.717,213.798,197.947,216.028,197.947,218.779z"/>
			</g>
			<g>
				<path style="fill:#FDBC08;" d="M319.703,212.45c0,2.751-2.23,4.982-4.982,4.982c-2.751,0-4.981-2.23-4.981-4.982      c0-2.751,2.23-4.982,4.981-4.982C317.472,207.468,319.703,209.699,319.703,212.45z"/>
				<path style="fill:#FDBC08;" d="M121.33,81.122c0,2.751-2.23,4.982-4.982,4.982c-2.751,0-4.981-2.23-4.981-4.982      c0-2.751,2.23-4.982,4.981-4.982C119.1,76.14,121.33,78.37,121.33,81.122z"/>
				<path style="fill:#FDBC08;" d="M238.431,37.411c0,2.751-2.23,4.982-4.982,4.982c-2.751,0-4.982-2.23-4.982-4.982      c0-2.751,2.23-4.982,4.982-4.982C236.2,32.429,238.431,34.66,238.431,37.411z"/>
				<path style="fill:#FDBC08;" d="M314.205,113.186c0,2.751-2.23,4.981-4.981,4.981c-2.751,0-4.982-2.23-4.982-4.981      c0-2.752,2.23-4.982,4.982-4.982C311.975,108.204,314.205,110.434,314.205,113.186z"/>
				<path style="fill:#FDBC08;" d="M478.384,276.522c0,2.751-2.23,4.982-4.982,4.982c-2.751,0-4.982-2.23-4.982-4.982      c0-2.751,2.23-4.982,4.982-4.982C476.153,271.541,478.384,273.771,478.384,276.522z"/>
				<path style="fill:#FDBC08;" d="M45.205,287.046c0,2.751-2.23,4.982-4.982,4.982c-2.751,0-4.982-2.23-4.982-4.982      c0-2.751,2.23-4.982,4.982-4.982C42.974,282.065,45.205,284.295,45.205,287.046z"/>
				<path style="fill:#FDBC08;" d="M347.883,340.51c0,2.751-2.23,4.981-4.982,4.981s-4.982-2.23-4.982-4.981      c0-2.752,2.23-4.982,4.982-4.982S347.883,337.758,347.883,340.51z"/>
				<path style="fill:#FDBC08;" d="M478.384,305.148c0,2.751-2.23,4.982-4.982,4.982c-2.751,0-4.982-2.23-4.982-4.982      c0-2.751,2.23-4.981,4.982-4.981C476.153,300.167,478.384,302.397,478.384,305.148z"/>
				<path style="fill:#FDBC08;" d="M453.512,301.394c0,2.752-2.23,4.982-4.982,4.982s-4.982-2.23-4.982-4.982      c0-2.751,2.23-4.981,4.982-4.981S453.512,298.643,453.512,301.394z"/>
				<path style="fill:#FDBC08;" d="M354.478,204.115c0,2.751-2.23,4.982-4.982,4.982c-2.751,0-4.981-2.23-4.981-4.982      c0-2.751,2.23-4.981,4.981-4.981C352.248,199.134,354.478,201.364,354.478,204.115z"/>
			</g>
			<path style="fill:#FDBC08;" d="M186.451,241.771c0,2.751-2.23,4.981-4.982,4.981c-2.751,0-4.982-2.23-4.982-4.981     c0-2.752,2.23-4.982,4.982-4.982C184.221,236.789,186.451,239.02,186.451,241.771z"/>
		</g>
	</g>
</g>















</svg>
