<svg height="512pt" viewBox="-91 0 512 512" width="512pt" xmlns="http://www.w3.org/2000/svg"><path d="m329.996094 102.5c0-4.140625-3.355469-7.5-7.5-7.5-4.140625 0-7.5 3.359375-7.5 7.5 0 43.34375-33.605469 78.960938-76.125 82.226562-3.359375-11.386718-13.910156-19.726562-26.375-19.726562h-2.5v-67.5c0-2.515625-.1875-5.023438-.542969-7.5h23.042969c4.144531 0 7.5-3.359375 7.5-7.5s-3.355469-7.5-7.5-7.5h-27.574219c-.601563-1.261719-1.246094-2.507812-1.949219-3.722656l-38.980468-67.527344c-1.339844-2.320312-3.816407-3.75-6.496094-3.75-2.679688 0-5.15625 1.429688-6.492188 3.75l-38.980468 67.527344c-.703126 1.214844-1.347657 2.457031-1.949219 3.722656h-27.578125c-4.140625 0-7.5 3.355469-7.5 7.5 0 4.140625 3.359375 7.5 7.5 7.5h23.046875c-.355469 2.476562-.546875 4.980469-.546875 7.5v67.5h-2.5c-12.558594 0-23.175782 8.472656-26.449219 20h-31.046875v-102.5c0-4.140625-3.355469-7.5-7.5-7.5s-7.5 3.359375-7.5 7.5v102.5h-7.5c-12.40625 0-22.5 10.09375-22.5 22.5s10.09375 22.5 22.5 22.5h15c4.144531 0 7.5-3.359375 7.5-7.5v-22.5h30l-.003906 249.5c0 1.988281.792968 3.894531 2.199218 5.300781s3.3125 2.199219 5.300782 2.199219h37.5v32.09375l-24.871094 8.289062c-3.929688 1.308594-6.050781 5.558594-4.742188 9.488282 1.046876 3.140625 3.972657 5.128906 7.113282 5.128906.785156 0 1.585937-.125 2.375-.386719l30-10c3.0625-1.019531 5.125-3.886719 5.125-7.113281v-37.5h45v37.5c0 3.226562 2.066406 6.09375 5.128906 7.113281l30 10c.789062.261719 1.585938.386719 2.375.386719 3.136719 0 6.0625-1.988281 7.113281-5.128906 1.308594-3.929688-.8125-8.179688-4.742187-9.488282l-24.875-8.289062v-32.09375h37.5c4.144531 0 7.5-3.359375 7.5-7.5v-249.785156c50.273437-3.84375 90-45.976563 90-97.214844zm-299.996094 112.5h-7.5c-4.136719 0-7.5-3.363281-7.5-7.5s3.363281-7.5 7.5-7.5h7.5zm149.996094 227v-216.117188c1.453125-.894531 2.921875-1.867187 4.394531-2.929687 3.992187-2.882813 7.523437-6.082031 10.605469-9.546875v228.59375zm-60 0 .003906-228.59375c3.082031 3.46875 6.613281 6.664062 10.605469 9.546875 1.472656 1.0625 2.941406 2.035156 4.394531 2.929687v216.117188zm35.875-207.179688c.535156.117188 1.082031.179688 1.625.179688.546875 0 1.09375-.0625 1.628906-.179688.214844-.046874 2.453125-.558593 5.871094-1.765624v36.945312h-15v-36.945312c3.421875 1.207031 5.660156 1.71875 5.875 1.765624zm9.125 177.179688h-15v-127h15zm-15 15h15v15h-15zm7.5-404.5 12.988281 22.5h-25.972656zm-21.644532 37.5h43.292969l8.65625 15h-60.609375zm-15.089843 30h73.46875c.503906 2.457031.765625 4.972656.765625 7.5 0 20.675781-16.820313 37.5-37.5 37.5-20.675782 0-37.5-16.824219-37.5-37.5 0-2.527344.261718-5.042969.765625-7.5zm36.734375 60c14.679687 0 27.964844-6.0625 37.5-15.808594v38.308594c0 23.367188-13.992188 35.832031-25.25 42.085938-.550782.214843-1.066406.492187-1.542969.828124-4.585937 2.375-8.566406 3.710938-10.703125 4.332032-2.148438-.625-6.128906-1.960938-10.714844-4.339844-.472656-.328125-.984375-.605469-1.527344-.820312-11.257812-6.246094-25.230468-18.695313-25.257812-42.015626v-.070312c-.003906-.039062-.003906-38.308594-.003906-38.308594 9.539062 9.746094 22.824218 15.808594 37.5 15.808594zm-67.496094 42.5c0-6.894531 5.605469-12.5 12.496094-12.5h2.503906l-.003906 262h-15zm134.996094 249.5h-15v-262h2.5c6.894531 0 12.5 5.605469 12.5 12.5zm0 0"/></svg>