<?xml version="1.0" encoding="UTF-8"?>
<!-- Generator: Adobe Illustrator 25.4.1, SVG Export Plug-In . SVG Version: 6.00 Build 0)  -->
<svg xmlns="http://www.w3.org/2000/svg" xmlns:xlink="http://www.w3.org/1999/xlink" version="1.1" id="Capa_1" x="0px" y="0px" viewBox="0 0 512.115 512.115" style="enable-background:new 0 0 512.115 512.115;" xml:space="preserve" width="512" height="512">
<g>
	<g>
		<path d="M503.161,17.572c-24.932,14.412-36.643,36.722-36.638,64.383c-1.034,82-0.835,163.486-0.955,245.576    c-16.562-0.855-30.476,3.565-40.898,16.322c-11.811-12.814-27.17-16.164-44.263-17.366c-0.534-86.883,1.362-173.389-1.152-260.134    c-0.649-0.08-1.299-0.16-1.948-0.24c-27.258,60.291-54.022,120.807-81.414,181.037c-7.58,15.391-1.867,42.987,18.765,48.408    c14.155,7.654-32.733,35.166-58.609,1.849c-15.831,28.428-76.814,11.444-57.161-2.138c19.922-7.045,25.157-31.101,16.859-48.963    c-27.155-59.992-53.776-120.228-80.947-180.211c-0.417,0.07-0.834,0.14-1.251,0.21c-3.513,86.559-1.091,173.411-2.185,260.1    c-16.455,1.387-32.086,4.455-43.886,17.451c-10.416-12.569-24.068-17.243-40.81-16.227c-0.068-78.892-0.677-157.642-0.412-236.516    c0.215-28.811-10.408-59.858-37.302-73.542C14.035,0.85,38.668,0.62,53.355,0.197c60.684,16.095,5.882,24.393,71.428-0.004    c20.666-0.775,44.534,5.292,50.101,27.935c27.192,60.505,53.818,120.155,81.175,180.786    c29.061-64.71,58.021-128.316,87.007-192.892c16.544-23.531,59.541-19.112,78.398,0.095c0.508,0.534,2.8-0.021,3.83-0.713    C445.166-1.233,489.185-9.257,503.161,17.572z"/>
		<path d="M8.954,494.405c47.66-19.317,36.335-84.728,23.006-123.67c-1.137-9.538-19.953-19.907-9.919-28.461    c22.028-12.973,53.251-6.391,65.396,16.429c15.326-21.517,46.969-31.826,68.624-14.318c1.022,1.709,1.553,5.362,0.526,6.399    c-24.3,31.082-28.874,76.171-17.251,113.201c3.714,22.76,35.254,28.284,28.062,34.84c-20.938,19.625-58.051,15.812-77.995-3.698    C68.866,512.89,23.975,522.119,8.954,494.405z"/>
		<path d="M374.783,511.779c-6.943-0.801-39.986-9.907-28.497-19.177c14.738-5.496,22.723-16.822,27.384-31.358    c10.39-36.635,5.254-77.718-16.758-108.461c-3.259-4.313-3.285-7.179,1.04-10.511c22.025-12.967,53.249-6.392,65.393,16.43    c15.326-21.516,46.97-31.827,68.624-14.317c1.022,1.709,1.553,5.358,0.525,6.399c-27.562,34.594-40.662,124.532,10.668,143.621    c-13.59,26.394-61.616,20.572-79.659,0.299C410.087,506.061,392.272,512.438,374.783,511.779z"/>
	</g>
	<g>
		<g>
			<path style="fill:#FFFFFF;" d="M89.856,386.437c2.674-2.763,5.799-6.388,9.347-9.537c3.119-2.769,6.928-4.354,11.095-2.203     c3.976,2.052,4.824,6.009,4.625,9.914c-0.202,3.965-0.653,8.107-2.022,11.79c-5.371,14.447-11.067,28.776-16.819,43.078     c-1.792,4.455-4.293,5.069-6.455,1.656c-9.463-14.947-18.772-30.053-21.947-47.84c-0.772-4.326-0.76-9.037,0.067-13.345     c1.267-6.599,7.744-9.053,12.887-4.737C84.405,378.376,87.031,382.905,89.856,386.437z"/>
			<g>
				<path style="fill:#FFFFFF;" d="M99.656,40.578c-3.495,6.086-7.061,12.132-10.471,18.264      c-11.705,21.044-13.761,43.875-12.052,67.296c2.121,29.054,11.019,56.679,18.142,84.684c6.471,25.446,8.357,51.031,0.514,76.608      c-2.475,8.072-5.921,15.672-12.635,21.19c-1.635,1.344-3.86,1.97-6.122,2.422c15.167-15.667,15.437-35.206,15.183-54.717      c-0.309-23.762-7.639-46.152-14.278-68.648c-6.633-22.476-10.472-45.378-10.21-68.874c0.312-28.029,8.235-53.474,25.974-75.499      c1.316-1.634,3.221-2.793,4.853-4.173C98.921,39.615,99.289,40.097,99.656,40.578z"/>
				<g>
					<path style="fill:#FFFFFF;" d="M71.885,240.422c4.521,0.087,7.912,3.779,7.896,8.599c-0.016,4.905-4.019,8.678-9.11,8.583       c-4.765-0.089-8.122-3.671-7.909-8.441C62.978,244.316,67.139,240.33,71.885,240.422z"/>
					<path style="fill:#FFFFFF;" d="M105.815,127.167c0.116,4.676-3.357,8.59-7.778,8.766c-4.419,0.176-8.164-3.544-8.281-8.225       c-0.116-4.67,3.361-8.591,7.77-8.76C101.963,118.778,105.699,122.483,105.815,127.167z"/>
				</g>
			</g>
		</g>
		<g>
			<path style="fill:#FFFFFF;" d="M422.345,387.211c2.122-3.305,3.977-6.827,6.44-9.855c2.523-3.101,5.919-5.054,10.211-3.709     c4.368,1.369,5.69,5.017,6.032,9.01c0.818,9.545-1.408,18.62-5.563,27.077c-5.021,10.219-10.469,20.241-16.057,30.164     c-2.646,4.699-5.37,4.528-7.326-0.332c-5.876-14.597-11.701-29.222-17.083-44.005c-1.436-3.945-1.872-8.534-1.615-12.758     c0.516-8.495,7.159-11.568,14.297-6.826c4.39,2.917,8.45,6.332,12.657,9.523C423.673,386.07,423.009,386.641,422.345,387.211z"/>
			<g>
				<path style="fill:#FFFFFF;" d="M413.494,39.225c1.378,1.019,3.062,1.795,4.087,3.093c14.883,18.845,23.935,39.901,26.053,64.135      c2.832,32.4-3.688,63.307-13.126,93.871c-5.71,18.492-10.034,37.216-10.732,56.639c-0.441,12.276,0.231,24.549,4.532,36.089      c2.382,6.391,6.706,12.059,10.526,18.697c-2.23-1.232-4.604-2.039-6.325-3.578c-9.676-8.651-12.804-20.51-15.115-32.562      c-4.682-24.414-0.855-48.208,5.114-71.981c5.704-22.716,11.492-45.502,15.323-68.576c5.399-32.521-0.124-63.354-19.408-90.929      c-0.795-1.136-1.425-2.387-2.133-3.585C412.691,40.101,413.093,39.663,413.494,39.225z"/>
				<g>
					<path style="fill:#FFFFFF;" d="M440.547,240.422c4.942,0.094,9.002,4.491,8.809,9.541c-0.171,4.491-3.675,7.742-8.237,7.642       c-5.129-0.113-8.941-3.974-8.791-8.905C432.475,243.889,436.003,240.336,440.547,240.422z"/>
					<path style="fill:#FFFFFF;" d="M422.355,127.313c0.07,4.696-3.452,8.546-7.887,8.619c-4.414,0.074-8.091-3.693-8.171-8.371       c-0.08-4.696,3.44-8.538,7.893-8.615C418.598,118.871,422.286,122.65,422.355,127.313z"/>
				</g>
			</g>
		</g>
	</g>
</g>















</svg>
