<?xml version="1.0" encoding="UTF-8"?>
<!-- Generator: Adobe Illustrator 27.2.0, SVG Export Plug-In . SVG Version: 6.00 Build 0)  -->
<svg xmlns="http://www.w3.org/2000/svg" xmlns:xlink="http://www.w3.org/1999/xlink" version="1.1" id="Capa_1" x="0px" y="0px" viewBox="0 0 512 512" style="enable-background:new 0 0 512 512;" xml:space="preserve" width="512" height="512">
<g>
	<g>
		<path style="fill:#FFFFFF;" d="M289.332,512c-34.334-0.003-69.595-7.378-102.201-21.36h-14.153c-5.043,0-9.775-2.439-12.7-6.546    c-0.137-0.193-3.051-4.289-7.855-11.459c-33.12-20.827-52.039-46.674-54.784-74.919c-0.631-6.479-0.367-12.591-0.011-18.5    c-11.341-22.568-20.477-43.798-27.204-63.222c-1.052-1.005-2.11-1.997-3.174-2.972c-3.495-3.211-7.075-6.355-10.658-9.505    c-14.632-12.863-29.762-26.162-40.363-44.179c-17.975-30.55-19.555-70.656-4.226-107.287    c12.347-29.504,34.823-56.331,66.802-79.739c25.631-18.763,55.949-32.253,88.692-39.58c-3.048-2.903-4.827-6.954-4.839-11.249    c-0.015-5.318,2.683-10.278,7.155-13.156c7.344-4.726,15.869-7.223,24.657-7.223c15.945,0,30.12,8.095,38.316,20.714    c8.076-13.18,22.601-21.817,38.993-21.817c15.446,0,29.128,7.698,37.409,19.46C317.47,7.699,331.155,0,346.604,0    c8.789,0,17.317,2.497,24.658,7.224c4.468,2.876,7.164,7.829,7.153,13.142c-0.01,5.313-2.726,10.256-7.204,13.114    c-4.207,2.685-6.718,7.266-6.718,12.255c0,4.986,2.503,9.553,6.695,12.218c4.132,2.627,6.769,7.025,7.173,11.858    c7.761,4.967,15.364,10.413,22.715,16.279c94.277,75.176,148.395,218.507,75.771,328.238    c-32.129,48.542-87.04,83.754-146.886,94.193c-13.24,2.307-26.909,3.48-40.625,3.48C289.334,512,289.334,512,289.332,512z"/>
	</g>
	<g>
		<g>
			<path style="fill:#86DFD1;" d="M391.268,99.364c-10.542-8.406-21.628-15.92-33.131-22.382     c-81.862-45.984-192.87-47.614-270.209,8.999c-26.054,19.072-49.163,43.393-61.628,73.178     c-12.465,29.785-13.092,65.53,3.282,93.358c11.796,20.046,30.995,34.37,48.126,50.103c17.131,15.732,33.331,34.986,35.678,58.126     c1.23,12.135-1.494,24.408-0.314,36.548c2.872,29.548,27.84,52.017,53.552,66.858c48.131,27.779,105.827,39.64,160.573,30.092     c54.745-9.547,105.89-41.095,136.562-87.438C530.724,305.627,480.518,170.533,391.268,99.364z"/>
		</g>
		<g>
			<g>
				<g>
					<g>
						<path style="fill:#FBEEE5;" d="M463.978,222.303c-21.757-84.851-124.738-55.117-142.869-71.072        c-18.13-15.955-3.626-41.338-3.626-41.338h28.646c6.609,0,11.966-5.357,11.966-11.966v0c0-6.609-5.357-11.966-11.966-11.966        h-73.881h-6.256h-73.881c-6.609,0-11.966,5.357-11.966,11.966v0c0,6.609,5.357,11.966,11.966,11.966h28.646        c0,0,14.504,25.383-3.626,41.338c-18.131,15.955-121.112-13.779-142.869,71.072c-21.757,84.851,98.63,253.828,98.63,253.828        h95.729h0.996h95.729C365.347,476.131,485.734,307.155,463.978,222.303z"/>
					</g>
					<g>
						<polygon style="fill:#FFC945;" points="320.02,164.853 354.887,133.243 330.266,173.351 356.766,197.276 326.225,185.836         312.557,215.257 314.185,182.019 274.252,181.493 308.411,169.068 295.523,143.609       "/>
					</g>
					<g>
						<g>
							<g>
								<path style="fill:#2F2444;" d="M286.958,220.195c0,0-1.359-12.233-13.321-13.049c-11.961-0.815-14.136,12.505-14.136,12.505          s-14.952,11.146-13.049,27.185c1.085,9.142,6.328,14.564,13.601,17.093c-2.791,9.227-6.499,25.632-5.807,46.157          c1.087,32.259,15.223,74.305,15.223,74.305s14.861-38.421,16.311-73.943c0.825-20.214-1.753-36.076-4.129-46.001          C295.935,260.026,302.368,238.174,286.958,220.195z"/>
							</g>
						</g>
						<g>
							<g>
								<g>
									<path style="fill:#EBB1FF;" d="M268.944,268.783c0,0.405-0.021,0.809-0.064,1.235c-0.149,2.662-0.341,5.345-0.532,8.049           c-0.043,0.341-0.064,0.703-0.085,1.065c-0.128,1.597-0.277,3.216-0.426,4.813c-0.021,0.362-0.064,0.724-0.107,1.086           c-0.192,2.236-0.426,4.472-0.66,6.687c-0.043,0.405-0.085,0.809-0.128,1.193c-1.618,14.693-3.748,28.556-5.664,38.139           c-0.554,2.832-2.556,5.308-3.046,7.31c-0.192,0.767-0.693,2.719-0.906,3.443c-6.644,21.614-23.348,14.949-48.625,26.704           c-0.405,0.17-0.809,0.362-1.214,0.575c-0.064,0.021-0.128,0.064-0.192,0.085c-26.81,13.054-66.759,19.187-76.917,6.516           c-4.387-5.494-7.815-9.625-3.599-19.059c0.213-0.532,0.468-1.043,0.745-1.576c6.388-12.585,18.59-27.875,33.561-44.229           c5.92-6.452,13.842-14.353,22.636-22.785c0.298-0.277,0.596-0.553,0.894-0.852c2.044-1.959,4.153-3.94,6.261-5.941           c0.341-0.32,0.681-0.639,1.022-0.937c3.024-2.853,6.09-5.707,9.178-8.539c0.32-0.298,0.639-0.596,0.937-0.873           c6.452-5.962,12.969-11.861,19.165-17.419c0.405-0.362,0.788-0.724,1.192-1.065c0-0.021,0-0.021,0-0.021           c20.379-18.292,37.138-32.73,37.138-32.73c0.767,0,1.469,0.149,2.151,0.469c0.341,0.128,0.681,0.319,1.001,0.554           c1.959,1.448,3.428,4.365,4.493,8.348c0.149,0.596,0.298,1.214,0.447,1.853           C269.583,240.035,269.775,253.898,268.944,268.783z"/>
								</g>
								<g>
									<g>
										<g>
											<path style="fill:#2F2444;" d="M268.944,268.783c0,0.405-0.021,0.809-0.064,1.235c-1.576-0.958-2.981-2.236-3.961-3.663             c-2.47-3.514-3.577-8.198-3.386-14.374c0.085-2.619,0.32-5.153,0.703-7.602c-1.512,3.62-3.088,7.198-4.685,10.754             c-1.831,4.025-3.556,7.581-6.452,10.37c-1.682,1.64-4.28,2.96-6.431,1.789c-2.364-1.278-2.428-4.429-2.087-6.857             c0.958-6.346,3.024-12.33,5.75-18.037c-1.299,1.597-2.619,3.152-3.982,4.706c-4.174,4.749-9.348,9.86-15.992,11.776             c-1.299,0.362-3.237,0.766-4.855-0.128c-1.831-0.98-2.47-3.066-2.321-5.281c0.405-0.362,0.788-0.724,1.192-1.065             c-0.426,2.236-0.085,4.493,1.618,5.43c1.001,0.532,2.279,0.532,4.067,0.021c6.367-1.853,11.414-6.835,15.503-11.457             c2.598-2.96,5.068-6.026,7.411-9.199c3.216-5.877,7.006-11.52,10.69-17.078c0.021-0.021,0.021-0.043,0.043-0.064             l0.447-0.66c0.17-0.234,0.49-0.319,0.724-0.17c0.234,0.149,0.341,0.447,0.192,0.703c-0.128,0.255-0.256,0.49-0.405,0.745             c-3.152,5.941-6.772,11.67-10.775,17.1c-3.939,7.176-7.049,14.693-8.241,22.828c-0.256,1.704-0.383,4.727,1.533,5.771             c1.661,0.873,3.769-0.256,5.175-1.64c2.768-2.641,4.451-6.112,6.218-10.051c2.406-5.302,4.706-10.711,6.9-16.163             c0.916-3.343,2.151-6.516,3.684-9.497c0-0.043,0.021-0.064,0.042-0.106c0.149-0.256,0.447-0.362,0.703-0.234             c0.256,0.107,0.383,0.405,0.277,0.66c-0.192,0.511-0.383,1.022-0.575,1.533c-1.022,2.662-2.044,5.324-3.109,7.985             c-1.129,4.131-1.768,8.518-1.895,13.139c-0.17,5.941,0.873,10.434,3.194,13.735             C266.602,266.887,267.688,267.952,268.944,268.783z"/>
										</g>
									</g>
									<g>
										<g>
											<path style="fill:#2F2444;" d="M268.348,278.067c-0.043,0.341-0.064,0.703-0.085,1.065             c-21.082-0.085-42.142-2.236-62.798-6.41c-1.448-0.298-2.917-0.596-4.387-0.958c0.32-0.298,0.639-0.596,0.937-0.873             c1.235,0.298,2.449,0.554,3.663,0.788C226.291,275.874,247.309,278.003,268.348,278.067z"/>
										</g>
									</g>
									<g>
										<g>
											<path style="fill:#2F2444;" d="M267.837,283.945c-0.021,0.362-0.064,0.724-0.107,1.086             c-1.299,0.043-2.598,0.106-3.876,0.128c-0.256,0.021-0.49,0.021-0.724,0.021c-0.021,0-0.021,0-0.043,0             c-0.128,0.021-0.277,0.021-0.405,0c-4.067,0.128-8.156,0.192-12.223,0.192c-1.917,0-3.833-0.021-5.75-0.043h-1.001             c-6.112-0.107-12.181-0.319-18.271-0.681h-0.021c-0.383-0.021-0.767-0.043-1.15-0.085             c-6.538-0.383-13.054-0.937-19.57-1.618h-0.021c-0.149-0.021-0.277-0.043-0.426-0.043c0,0,0,0-0.021,0             c-4.472-0.49-8.901-1.043-13.352-1.661c0.341-0.32,0.681-0.639,1.022-0.937c10.988,1.512,22.04,2.598,33.113,3.237             c0.149,0.021,0.298,0.021,0.447,0.021C239.579,284.413,253.719,284.52,267.837,283.945z"/>
										</g>
									</g>
									<g>
										<g>
											<path style="fill:#2F2444;" d="M261.278,331.049c-0.554,2.832-1.107,5.302-1.597,7.304             c-6.154,24.659-23.19,21.039-50.021,34.072c-26.81,13.054-73.936,20.294-84.093,7.624             c-4.621-5.792-3.365-14.438,1.959-25c1.086,2.193,2.811,4.003,5.111,4.876c4.451,1.682,9.412-0.469,13.437-3.024             c-1.555,3.194-2.3,6.899-1.533,10.371s3.194,6.665,6.538,7.879c4.834,1.746,10.136-0.809,14.246-3.918             c4.983-3.769,9.263-8.433,12.585-13.714c-0.468,3.045-0.894,6.197-0.021,9.157c0.873,2.939,3.428,5.643,6.516,5.6             c2.087-0.021,3.94-1.235,5.579-2.513c4.195-3.322,7.751-7.496,10.349-12.159c-0.447,3.535,3.066,6.601,6.623,6.878             c3.556,0.277,6.942-1.469,9.859-3.514c7.453-5.153,13.437-12.436,17.057-20.762c0.745,3.641,2.215,7.688,5.643,9.135             c4.451,1.874,9.263-1.682,12.479-5.281C255.55,340.078,258.659,335.712,261.278,331.049z"/>
										</g>
									</g>
									<g>
										<g>
											<path style="fill:#2F2444;" d="M267.07,291.717c-0.043,0.405-0.085,0.809-0.128,1.193             c-0.703-0.405-1.363-0.937-1.938-1.576c-0.788-0.873-1.406-1.853-1.789-2.875c-0.106-0.256-0.191-0.511-0.255-0.788             c-0.277,0.724-0.618,1.427-1.022,2.151v0.021c-1.15,2.129-2.79,4.152-5.111,5.515c-1.32,0.745-2.875,1.171-4.472,1.235             c-0.149,0.021-0.319,0.021-0.469,0.021c-0.213,0-0.405,0-0.617-0.021c-2.534-0.149-4.962-1.214-6.367-3.428             c-0.724-1.129-1.086-2.406-1.214-3.705c-0.021-0.021-0.021-0.021,0-0.021c-0.043-0.298-0.064-0.596-0.085-0.894             c-0.362,0.745-0.788,1.448-1.256,2.087c-1.193,1.704-2.662,3.088-4.344,4.025c-2.555,1.448-5.579,1.81-8.177,1.065             c-0.362-0.085-0.681-0.192-1.022-0.341c-0.681-0.277-1.32-0.639-1.895-1.065c-1.64-1.214-2.704-3.045-3.109-4.962             c-0.128-0.554-0.192-1.107-0.192-1.661c-0.213,0.298-0.426,0.596-0.639,0.894l-0.021,0.021             c-1.043,1.427-2.215,2.768-3.663,3.876c-3.088,2.406-6.963,3.258-10.072,2.215c-0.341-0.107-0.66-0.234-0.98-0.426             c-0.319-0.128-0.639-0.32-0.937-0.532c-1.299-0.873-2.385-2.151-3.088-3.705c-0.469-1.001-0.745-2.044-0.809-3.088             c-0.021-0.192-0.043-0.383-0.043-0.575c-0.66,1.022-1.342,1.917-2.108,2.726l-0.021,0.021             c-1.299,1.427-2.747,2.513-4.323,3.28c-1.555,0.766-3.237,1.128-4.877,1.128c-0.383,0-0.767-0.021-1.15-0.064             c-1.597-0.17-3.13-0.703-4.365-1.576c-0.298-0.192-0.575-0.405-0.831-0.681c-0.106-0.064-0.192-0.149-0.298-0.256             c-0.788-0.788-1.342-1.81-1.661-2.917c0.298-0.277,0.596-0.553,0.894-0.852c0.234,1.15,0.767,2.215,1.533,3.024             c0.085,0.085,0.17,0.192,0.277,0.256c0.192,0.192,0.405,0.362,0.618,0.511c1.256,0.937,2.79,1.384,4.344,1.469             c0.256,0.021,0.532,0.021,0.809,0c1.512-0.021,2.981-0.405,4.238-1.001c2.981-1.448,5.515-4.238,7.517-8.262             c0.064-0.128,0.17-0.234,0.277-0.277c0.021,0,0.021,0,0.021,0c0.128-0.043,0.277-0.043,0.405,0.021             c0,0,0.021,0,0.021,0.021h0.021c0.234,0.149,0.341,0.426,0.234,0.66c-0.767,1.831-0.66,4.003,0.234,5.984             c0.916,1.98,2.492,3.492,4.365,4.11c2.811,0.916,6.282,0.128,9.114-2.044c2.406-1.895,4.174-4.536,5.579-7.027             c0-0.021,0.021-0.043,0.043-0.064c0.128-0.298,0.298-0.575,0.468-0.831c0.064-0.106,0.17-0.17,0.277-0.192             c0.149-0.064,0.298-0.042,0.447,0.021c0.234,0.149,0.319,0.468,0.17,0.724c-0.064,0.128-0.128,0.234-0.192,0.362h-0.021             c-0.064,0.149-0.149,0.319-0.256,0.468c-1.214,2.726-0.234,6.431,2.385,8.348c2.64,1.959,6.729,2.065,9.945,0.277             c2.854-1.618,5.132-4.685,6.218-8.39v-0.021h0.021c0.085-0.256,0.319-0.426,0.596-0.362             c0.192,0.043,0.341,0.192,0.383,0.362c0.043,0.064,0.043,0.149,0.043,0.213c-0.213,2.321-0.255,4.983,1.043,7.049             c2.151,3.407,7.262,3.705,10.498,1.853c3.407-1.98,5.26-5.622,6.218-8.71c0.021-0.021,0.021-0.064,0.021-0.085             c0.021-0.064,0.043-0.128,0.064-0.192c0.043-0.106,0.064-0.192,0.085-0.277c0.064-0.213,0.128-0.405,0.17-0.596             c0.085-0.277,0.362-0.447,0.639-0.383c0.277,0.064,0.447,0.341,0.405,0.618c-0.021,0.107-0.043,0.234-0.043,0.341             c-0.234,1.874,0.469,3.897,1.917,5.451C266.176,291.036,266.602,291.419,267.07,291.717z"/>
										</g>
									</g>
									<g>
										<g>
											<path style="fill:#2F2444;" d="M142.335,363.992c-0.083,0-0.167-0.019-0.246-0.06c-0.261-0.135-0.362-0.457-0.226-0.717             c15.888-30.449,29.113-52.147,44.222-72.552c0.176-0.237,0.508-0.287,0.744-0.112c0.236,0.175,0.286,0.509,0.11,0.744             c-15.073,20.359-28.272,42.016-44.133,72.411C142.712,363.888,142.526,363.992,142.335,363.992z"/>
										</g>
									</g>
									<g>
										<g>
											<path style="fill:#2F2444;" d="M174.182,371.676c-0.04,0-0.08-0.004-0.121-0.015c-0.287-0.067-0.465-0.352-0.398-0.638             c6.937-29.73,16.93-58.862,29.698-86.589c0.123-0.268,0.441-0.383,0.706-0.262c0.267,0.125,0.384,0.441,0.261,0.707             c-12.738,27.662-22.707,56.727-29.628,86.385C174.643,371.509,174.424,371.676,174.182,371.676z"/>
										</g>
									</g>
									<g>
										<g>
											<path style="fill:#2F2444;" d="M183.683,375.754c-0.042,0-0.084-0.004-0.126-0.015c-0.286-0.071-0.461-0.358-0.391-0.645             c6.702-27.49,14.857-54.963,24.24-81.656c0.098-0.277,0.401-0.416,0.679-0.327c0.278,0.098,0.423,0.403,0.325,0.68             c-9.37,26.66-17.517,54.1-24.211,81.557C184.14,375.592,183.923,375.754,183.683,375.754z"/>
										</g>
									</g>
									<g>
										<g>
											<path style="fill:#2F2444;" d="M196.23,371.89c-0.037,0-0.077-0.004-0.115-0.012c-0.287-0.065-0.468-0.349-0.404-0.636             c6.382-28.656,15.687-56.779,27.66-83.586c0.12-0.27,0.433-0.387,0.703-0.27c0.268,0.121,0.389,0.435,0.269,0.703             c-11.944,26.743-21.227,54.799-27.593,83.387C196.695,371.721,196.474,371.89,196.23,371.89z"/>
										</g>
									</g>
									<g>
										<g>
											<path style="fill:#2F2444;" d="M207.819,370.567c-0.035,0-0.073-0.004-0.109-0.01c-0.288-0.062-0.472-0.343-0.412-0.632             c5.337-25.392,12.621-50.604,21.648-74.941c0.103-0.275,0.406-0.416,0.684-0.314c0.276,0.102,0.416,0.408,0.314,0.684             c-9.009,24.287-16.278,49.45-21.605,74.792C208.287,370.395,208.067,370.567,207.819,370.567z"/>
										</g>
									</g>
									<g>
										<g>
											<path style="fill:#2F2444;" d="M231.153,354.465c-0.029,0-0.059-0.002-0.088-0.006c-0.29-0.05-0.487-0.324-0.438-0.614             c3.659-21.917,7.781-44.058,12.249-65.81c0.059-0.289,0.341-0.464,0.629-0.414c0.288,0.06,0.473,0.341,0.415,0.63             c-4.467,21.736-8.586,43.864-12.242,65.768C231.633,354.28,231.408,354.465,231.153,354.465z"/>
										</g>
									</g>
									<g>
										<g>
											<path style="fill:#2F2444;" d="M241.237,355.611c-0.036,0-0.074-0.004-0.111-0.013c-0.288-0.06-0.471-0.343-0.41-0.632             c4.133-19.282,7.692-38.954,10.579-58.469c0.043-0.293,0.322-0.489,0.604-0.449c0.291,0.042,0.492,0.314,0.448,0.603             c-2.89,19.54-6.452,39.235-10.589,58.54C241.704,355.441,241.483,355.611,241.237,355.611z"/>
										</g>
									</g>
									<g>
										<g>
											<path style="fill:#2F2444;" d="M250.067,353.479c-0.044,0-0.087-0.006-0.132-0.017c-0.285-0.073-0.456-0.362-0.384-0.647             c5.631-22.035,10.001-44.636,12.986-67.172c0.039-0.291,0.311-0.48,0.598-0.458c0.292,0.04,0.497,0.306,0.459,0.599             c-2.991,22.578-7.369,45.218-13.011,67.293C250.521,353.319,250.305,353.479,250.067,353.479z"/>
										</g>
									</g>
									<g>
										<g>
											<path style="fill:#2F2444;" d="M150.218,378.399c-0.066,0-0.134-0.012-0.201-0.039c-0.273-0.11-0.404-0.42-0.292-0.693             c7.663-18.887,18.076-39.081,28.146-58.611c4.772-9.252,9.277-17.99,13.461-26.512c0.13-0.262,0.449-0.372,0.713-0.243             c0.263,0.131,0.372,0.449,0.243,0.713c-4.189,8.53-8.698,17.275-13.471,26.531             c-10.059,19.508-20.461,39.68-28.106,58.521C150.628,378.274,150.428,378.399,150.218,378.399z"/>
										</g>
									</g>
									<g>
										<g>
											<g>
												<path style="fill:#2F2444;" d="M223.082,267.102c-1.451,1.885-3.694,2.591-5.01,1.578              c-1.316-1.013-1.206-3.362,0.245-5.247c1.451-1.885,3.694-2.592,5.01-1.579S224.533,265.217,223.082,267.102z"/>
											</g>
										</g>
										<g>
											<g>
												<path style="fill:#2F2444;" d="M236.991,268.223c-1.048,2.135-3.105,3.274-4.596,2.543              c-1.491-0.731-1.85-3.055-0.803-5.191c1.048-2.136,3.105-3.274,4.596-2.543              C237.679,263.763,238.039,266.087,236.991,268.223z"/>
											</g>
										</g>
										<g>
											<g>
												<path style="fill:#2F2444;" d="M259.156,270.147c-0.311,2.358-1.898,4.094-3.545,3.876              c-1.646-0.217-2.729-2.305-2.417-4.663c0.311-2.358,1.898-4.094,3.545-3.876              C258.386,265.701,259.468,267.788,259.156,270.147z"/>
											</g>
										</g>
									</g>
								</g>
							</g>
							<g>
								<g>
									<path style="fill:#EBB1FF;" d="M276.507,268.783c0,0.405,0.021,0.809,0.064,1.235c0.149,2.662,0.341,5.345,0.532,8.049           c0.043,0.341,0.064,0.703,0.085,1.065c0.128,1.597,0.277,3.216,0.426,4.813c0.021,0.362,0.064,0.724,0.107,1.086           c0.192,2.236,0.426,4.472,0.66,6.687c0.043,0.405,0.085,0.809,0.128,1.193c1.618,14.693,3.748,28.556,5.664,38.139           c0.554,2.832,1.107,5.302,1.597,7.304c0.192,0.767,0.405,1.512,0.618,2.236c6.644,21.614,25.085,16.163,50.362,27.917           c0.405,0.17,0.809,0.362,1.214,0.575c0.064,0.021,0.128,0.064,0.192,0.085c26.81,13.054,66.759,19.187,76.917,6.516           c4.387-5.494,7.815-9.625,3.599-19.059c-0.213-0.532-0.469-1.043-0.745-1.576c-6.388-12.585-18.59-27.875-33.561-44.229           c-5.92-6.452-13.842-14.353-22.636-22.785c-0.298-0.277-0.596-0.553-0.894-0.852c-2.044-1.959-4.152-3.94-6.261-5.941           c-0.341-0.32-0.682-0.639-1.022-0.937c-3.024-2.853-6.09-5.707-9.178-8.539c-0.32-0.298-0.639-0.596-0.937-0.873           c-6.452-5.962-12.969-11.861-19.165-17.419c-0.405-0.362-0.788-0.724-1.192-1.065c0-0.021,0-0.021,0-0.021           c-20.379-18.292-37.138-32.73-37.138-32.73c-0.767,0-1.469,0.149-2.151,0.469c-0.341,0.128-0.681,0.319-1.001,0.554           c-1.959,1.448-3.429,4.365-4.493,8.348c-0.149,0.596-0.298,1.214-0.447,1.853           C275.868,240.035,275.676,253.898,276.507,268.783z"/>
								</g>
								<g>
									<g>
										<g>
											<path style="fill:#2F2444;" d="M276.507,268.783c0,0.405,0.021,0.809,0.064,1.235c1.576-0.958,2.981-2.236,3.961-3.663             c2.47-3.514,3.577-8.198,3.386-14.374c-0.085-2.619-0.32-5.153-0.703-7.602c1.512,3.62,3.088,7.198,4.685,10.754             c1.831,4.025,3.556,7.581,6.452,10.37c1.682,1.64,4.28,2.96,6.431,1.789c2.364-1.278,2.428-4.429,2.087-6.857             c-0.958-6.346-3.024-12.33-5.75-18.037c1.299,1.597,2.619,3.152,3.982,4.706c4.174,4.749,9.348,9.86,15.992,11.776             c1.299,0.362,3.237,0.766,4.855-0.128c1.832-0.98,2.47-3.066,2.321-5.281c-0.405-0.362-0.788-0.724-1.192-1.065             c0.426,2.236,0.085,4.493-1.618,5.43c-1.001,0.532-2.279,0.532-4.067,0.021c-6.367-1.853-11.414-6.835-15.503-11.457             c-2.598-2.96-5.068-6.026-7.411-9.199c-3.216-5.877-7.006-11.52-10.69-17.078c-0.021-0.021-0.021-0.043-0.043-0.064             l-0.447-0.66c-0.17-0.234-0.49-0.319-0.724-0.17c-0.234,0.149-0.341,0.447-0.192,0.703             c0.128,0.255,0.255,0.49,0.405,0.745c3.152,5.941,6.772,11.67,10.775,17.1c3.939,7.176,7.049,14.693,8.241,22.828             c0.256,1.704,0.383,4.727-1.533,5.771c-1.661,0.873-3.769-0.256-5.175-1.64c-2.768-2.641-4.451-6.112-6.218-10.051             c-2.406-5.302-4.706-10.711-6.9-16.163c-0.916-3.343-2.151-6.516-3.684-9.497c0-0.043-0.021-0.064-0.042-0.106             c-0.149-0.256-0.447-0.362-0.703-0.234c-0.255,0.107-0.383,0.405-0.277,0.66c0.192,0.511,0.383,1.022,0.575,1.533             c1.022,2.662,2.044,5.324,3.109,7.985c1.129,4.131,1.768,8.518,1.895,13.139c0.17,5.941-0.873,10.434-3.194,13.735             C278.849,266.887,277.763,267.952,276.507,268.783z"/>
										</g>
									</g>
									<g>
										<g>
											<path style="fill:#2F2444;" d="M277.103,278.067c0.043,0.341,0.064,0.703,0.085,1.065             c21.082-0.085,42.142-2.236,62.798-6.41c1.448-0.298,2.917-0.596,4.387-0.958c-0.32-0.298-0.639-0.596-0.937-0.873             c-1.235,0.298-2.449,0.554-3.663,0.788C319.16,275.874,298.142,278.003,277.103,278.067z"/>
										</g>
									</g>
									<g>
										<g>
											<path style="fill:#2F2444;" d="M277.614,283.945c0.021,0.362,0.064,0.724,0.107,1.086             c1.299,0.043,2.598,0.106,3.876,0.128c0.255,0.021,0.49,0.021,0.724,0.021c0.021,0,0.021,0,0.043,0             c0.128,0.021,0.277,0.021,0.405,0c4.067,0.128,8.156,0.192,12.223,0.192c1.916,0,3.833-0.021,5.75-0.043h1.001             c6.112-0.107,12.181-0.319,18.271-0.681h0.021c0.383-0.021,0.767-0.043,1.15-0.085c6.538-0.383,13.054-0.937,19.57-1.618             h0.021c0.149-0.021,0.277-0.043,0.426-0.043c0,0,0,0,0.021,0c4.472-0.49,8.901-1.043,13.352-1.661             c-0.341-0.32-0.682-0.639-1.022-0.937c-10.988,1.512-22.04,2.598-33.113,3.237c-0.149,0.021-0.298,0.021-0.447,0.021             C305.872,284.413,291.732,284.52,277.614,283.945z"/>
										</g>
									</g>
									<g>
										<g>
											<path style="fill:#2F2444;" d="M284.173,331.049c0.554,2.832,1.107,5.302,1.597,7.304             c6.154,24.659,23.19,21.039,50.021,34.072c26.81,13.054,73.936,20.294,84.093,7.624c4.621-5.792,3.365-14.438-1.959-25             c-1.086,2.193-2.811,4.003-5.111,4.876c-4.451,1.682-9.412-0.469-13.437-3.024c1.555,3.194,2.3,6.899,1.533,10.371             c-0.767,3.471-3.194,6.665-6.538,7.879c-4.834,1.746-10.136-0.809-14.246-3.918c-4.983-3.769-9.263-8.433-12.585-13.714             c0.468,3.045,0.894,6.197,0.021,9.157c-0.873,2.939-3.429,5.643-6.516,5.6c-2.087-0.021-3.94-1.235-5.579-2.513             c-4.195-3.322-7.751-7.496-10.349-12.159c0.447,3.535-3.066,6.601-6.623,6.878c-3.556,0.277-6.942-1.469-9.859-3.514             c-7.453-5.153-13.437-12.436-17.057-20.762c-0.745,3.641-2.215,7.688-5.643,9.135c-4.451,1.874-9.263-1.682-12.479-5.281             C289.901,340.078,286.792,335.712,284.173,331.049z"/>
										</g>
									</g>
									<g>
										<g>
											<path style="fill:#2F2444;" d="M278.38,291.717c0.043,0.405,0.085,0.809,0.128,1.193             c0.703-0.405,1.363-0.937,1.938-1.576c0.788-0.873,1.405-1.853,1.789-2.875c0.107-0.256,0.192-0.511,0.255-0.788             c0.277,0.724,0.618,1.427,1.022,2.151v0.021c1.15,2.129,2.79,4.152,5.111,5.515c1.32,0.745,2.875,1.171,4.472,1.235             c0.149,0.021,0.32,0.021,0.469,0.021c0.213,0,0.405,0,0.618-0.021c2.534-0.149,4.962-1.214,6.367-3.428             c0.724-1.129,1.086-2.406,1.214-3.705c0.021-0.021,0.021-0.021,0-0.021c0.043-0.298,0.064-0.596,0.085-0.894             c0.362,0.745,0.788,1.448,1.257,2.087c1.193,1.704,2.662,3.088,4.344,4.025c2.555,1.448,5.579,1.81,8.177,1.065             c0.362-0.085,0.682-0.192,1.022-0.341c0.682-0.277,1.32-0.639,1.895-1.065c1.64-1.214,2.704-3.045,3.109-4.962             c0.128-0.554,0.192-1.107,0.192-1.661c0.213,0.298,0.426,0.596,0.639,0.894l0.021,0.021             c1.043,1.427,2.215,2.768,3.663,3.876c3.088,2.406,6.963,3.258,10.072,2.215c0.341-0.107,0.66-0.234,0.98-0.426             c0.319-0.128,0.639-0.32,0.937-0.532c1.299-0.873,2.385-2.151,3.088-3.705c0.469-1.001,0.745-2.044,0.809-3.088             c0.021-0.192,0.043-0.383,0.043-0.575c0.66,1.022,1.342,1.917,2.108,2.726l0.021,0.021             c1.299,1.427,2.747,2.513,4.323,3.28c1.555,0.766,3.237,1.128,4.877,1.128c0.383,0,0.767-0.021,1.15-0.064             c1.597-0.17,3.13-0.703,4.365-1.576c0.298-0.192,0.575-0.405,0.831-0.681c0.107-0.064,0.192-0.149,0.298-0.256             c0.788-0.788,1.342-1.81,1.661-2.917c-0.298-0.277-0.596-0.553-0.894-0.852c-0.234,1.15-0.767,2.215-1.533,3.024             c-0.085,0.085-0.17,0.192-0.277,0.256c-0.192,0.192-0.405,0.362-0.618,0.511c-1.256,0.937-2.79,1.384-4.344,1.469             c-0.255,0.021-0.532,0.021-0.809,0c-1.512-0.021-2.981-0.405-4.238-1.001c-2.981-1.448-5.515-4.238-7.517-8.262             c-0.064-0.128-0.17-0.234-0.277-0.277c-0.021,0-0.021,0-0.021,0c-0.128-0.043-0.277-0.043-0.405,0.021             c0,0-0.021,0-0.021,0.021h-0.021c-0.234,0.149-0.341,0.426-0.234,0.66c0.767,1.831,0.66,4.003-0.234,5.984             c-0.916,1.98-2.491,3.492-4.365,4.11c-2.811,0.916-6.282,0.128-9.114-2.044c-2.406-1.895-4.174-4.536-5.579-7.027             c0-0.021-0.021-0.043-0.043-0.064c-0.128-0.298-0.298-0.575-0.468-0.831c-0.064-0.106-0.17-0.17-0.277-0.192             c-0.149-0.064-0.298-0.042-0.447,0.021c-0.234,0.149-0.319,0.468-0.17,0.724c0.064,0.128,0.128,0.234,0.192,0.362h0.021             c0.064,0.149,0.149,0.319,0.255,0.468c1.214,2.726,0.234,6.431-2.385,8.348c-2.641,1.959-6.729,2.065-9.945,0.277             c-2.853-1.618-5.132-4.685-6.218-8.39v-0.021h-0.021c-0.085-0.256-0.319-0.426-0.596-0.362             c-0.192,0.043-0.341,0.192-0.383,0.362c-0.043,0.064-0.043,0.149-0.043,0.213c0.213,2.321,0.255,4.983-1.044,7.049             c-2.151,3.407-7.262,3.705-10.498,1.853c-3.407-1.98-5.26-5.622-6.218-8.71c-0.021-0.021-0.021-0.064-0.021-0.085             c-0.021-0.064-0.043-0.128-0.064-0.192c-0.043-0.106-0.064-0.192-0.085-0.277c-0.064-0.213-0.128-0.405-0.17-0.596             c-0.085-0.277-0.362-0.447-0.639-0.383c-0.277,0.064-0.447,0.341-0.405,0.618c0.021,0.107,0.043,0.234,0.043,0.341             c0.234,1.874-0.469,3.897-1.917,5.451C279.275,291.036,278.849,291.419,278.38,291.717z"/>
										</g>
									</g>
									<g>
										<g>
											<path style="fill:#2F2444;" d="M403.116,363.992c0.083,0,0.167-0.019,0.246-0.06c0.261-0.135,0.362-0.457,0.226-0.717             c-15.888-30.449-29.113-52.147-44.222-72.552c-0.176-0.237-0.509-0.287-0.745-0.112c-0.236,0.175-0.286,0.509-0.11,0.744             c15.073,20.359,28.272,42.016,44.133,72.411C402.739,363.888,402.925,363.992,403.116,363.992z"/>
										</g>
									</g>
									<g>
										<g>
											<path style="fill:#2F2444;" d="M371.269,371.676c0.039,0,0.08-0.004,0.121-0.015c0.287-0.067,0.465-0.352,0.398-0.638             c-6.938-29.73-16.93-58.862-29.698-86.589c-0.123-0.268-0.441-0.383-0.706-0.262c-0.267,0.125-0.384,0.441-0.261,0.707             c12.738,27.662,22.707,56.727,29.628,86.385C370.808,371.509,371.026,371.676,371.269,371.676z"/>
										</g>
									</g>
									<g>
										<g>
											<path style="fill:#2F2444;" d="M361.768,375.754c0.042,0,0.084-0.004,0.126-0.015c0.286-0.071,0.461-0.358,0.391-0.645             c-6.703-27.49-14.858-54.963-24.241-81.656c-0.098-0.277-0.401-0.416-0.679-0.327c-0.278,0.098-0.423,0.403-0.326,0.68             c9.371,26.66,17.517,54.1,24.211,81.557C361.311,375.592,361.528,375.754,361.768,375.754z"/>
										</g>
									</g>
									<g>
										<g>
											<path style="fill:#2F2444;" d="M349.221,371.89c0.037,0,0.077-0.004,0.115-0.012c0.287-0.065,0.468-0.349,0.405-0.636             c-6.382-28.656-15.687-56.779-27.66-83.586c-0.12-0.27-0.432-0.387-0.703-0.27c-0.268,0.121-0.389,0.435-0.269,0.703             c11.944,26.743,21.227,54.799,27.593,83.387C348.756,371.721,348.977,371.89,349.221,371.89z"/>
										</g>
									</g>
									<g>
										<g>
											<path style="fill:#2F2444;" d="M337.632,370.567c0.035,0,0.073-0.004,0.109-0.01c0.288-0.062,0.472-0.343,0.412-0.632             c-5.337-25.392-12.621-50.604-21.648-74.941c-0.103-0.275-0.406-0.416-0.684-0.314c-0.276,0.102-0.416,0.408-0.314,0.684             c9.009,24.287,16.278,49.45,21.605,74.792C337.164,370.395,337.384,370.567,337.632,370.567z"/>
										</g>
									</g>
									<g>
										<g>
											<path style="fill:#2F2444;" d="M314.298,354.465c0.029,0,0.059-0.002,0.088-0.006c0.29-0.05,0.487-0.324,0.438-0.614             c-3.659-21.917-7.781-44.058-12.249-65.81c-0.059-0.289-0.341-0.464-0.629-0.414c-0.288,0.06-0.473,0.341-0.415,0.63             c4.467,21.736,8.585,43.864,12.242,65.768C313.817,354.28,314.043,354.465,314.298,354.465z"/>
										</g>
									</g>
									<g>
										<g>
											<path style="fill:#2F2444;" d="M304.214,355.611c0.036,0,0.074-0.004,0.111-0.013c0.288-0.06,0.471-0.343,0.41-0.632             c-4.133-19.282-7.692-38.954-10.579-58.469c-0.043-0.293-0.322-0.489-0.604-0.449c-0.291,0.042-0.492,0.314-0.448,0.603             c2.89,19.54,6.452,39.235,10.589,58.54C303.747,355.441,303.967,355.611,304.214,355.611z"/>
										</g>
									</g>
									<g>
										<g>
											<path style="fill:#2F2444;" d="M295.384,353.479c0.044,0,0.087-0.006,0.132-0.017c0.285-0.073,0.456-0.362,0.384-0.647             c-5.632-22.035-10.001-44.636-12.986-67.172c-0.04-0.291-0.311-0.48-0.598-0.458c-0.292,0.04-0.497,0.306-0.458,0.599             c2.991,22.578,7.369,45.218,13.011,67.293C294.93,353.319,295.146,353.479,295.384,353.479z"/>
										</g>
									</g>
									<g>
										<g>
											<path style="fill:#2F2444;" d="M395.233,378.399c0.067,0,0.134-0.012,0.201-0.039c0.272-0.11,0.403-0.42,0.292-0.693             c-7.663-18.887-18.076-39.081-28.146-58.611c-4.772-9.252-9.277-17.99-13.461-26.512             c-0.13-0.262-0.449-0.372-0.713-0.243c-0.263,0.131-0.372,0.449-0.243,0.713c4.189,8.53,8.698,17.275,13.471,26.531             c10.059,19.508,20.461,39.68,28.107,58.521C394.823,378.274,395.022,378.399,395.233,378.399z"/>
										</g>
									</g>
									<g>
										<g>
											<g>
												<path style="fill:#2F2444;" d="M322.369,267.102c1.451,1.885,3.694,2.591,5.01,1.578s1.206-3.362-0.245-5.247              c-1.451-1.885-3.694-2.592-5.01-1.579C320.808,262.868,320.918,265.217,322.369,267.102z"/>
											</g>
										</g>
										<g>
											<g>
												<path style="fill:#2F2444;" d="M308.46,268.223c1.048,2.135,3.105,3.274,4.596,2.543              c1.491-0.731,1.85-3.055,0.803-5.191c-1.048-2.136-3.105-3.274-4.596-2.543              C307.771,263.763,307.412,266.087,308.46,268.223z"/>
											</g>
										</g>
										<g>
											<g>
												<path style="fill:#2F2444;" d="M286.294,270.147c0.311,2.358,1.898,4.094,3.545,3.876              c1.646-0.217,2.729-2.305,2.417-4.663c-0.311-2.358-1.898-4.094-3.545-3.876              C287.065,265.701,285.983,267.788,286.294,270.147z"/>
											</g>
										</g>
									</g>
								</g>
							</g>
						</g>
						<g>
							<g>
								<path style="fill:#2F2444;" d="M269.061,216.91c-0.391,0-0.731-0.286-0.789-0.684c-2.552-17.564-8.033-34.437-16.293-50.147          c-0.205-0.391-0.055-0.874,0.336-1.079c0.39-0.206,0.872-0.055,1.078,0.336c8.344,15.872,13.882,32.917,16.459,50.66          c0.063,0.437-0.239,0.842-0.675,0.905C269.138,216.907,269.099,216.91,269.061,216.91z"/>
							</g>
							<g>
								<path style="fill:#2F2444;" d="M275.627,216.951c-0.025,0-0.052-0.001-0.078-0.004c-0.438-0.043-0.76-0.433-0.718-0.872          c1.821-18.8,6.117-37.295,12.768-54.972c0.155-0.413,0.615-0.622,1.028-0.466c0.413,0.155,0.621,0.615,0.466,1.028          c-6.602,17.545-10.865,35.902-12.673,54.564C276.381,216.643,276.033,216.951,275.627,216.951z"/>
							</g>
						</g>
					</g>
					<g>
						<g>
							<g>
								<path style="fill:#86DFD1;" d="M258.181,445.924c6.216-5.348,10.442-12.615,14.08-19.964s6.835-14.972,11.51-21.709          c4.674-6.737,11.094-12.649,18.997-14.833C300.579,413.483,280.699,437.16,258.181,445.924z"/>
							</g>
							<g>
								<path style="fill:#86DFD1;" d="M285.029,437.136c9.412-7.874,18.824-15.747,28.236-23.621          c4.456-3.728,8.98-7.499,14.25-9.943c5.98-2.772,12.697-3.707,19.284-3.451c-4.816,11.429-15.037,18.127-26.448,22.983          C308.897,427.979,296.897,433.382,285.029,437.136z"/>
							</g>
							<g>
								<path style="fill:#86DFD1;" d="M270.975,445.566c20.268-8.611,44.451-7.406,63.764,3.175          C313.617,455.343,291.12,454.728,270.975,445.566z"/>
							</g>
							<g>
								<g>
									<path style="fill:#86DFD1;" d="M225.306,450.353c-2.676,0-5.351-0.075-8.027-0.226c-0.293-0.017-0.518-0.268-0.502-0.562           c0.018-0.293,0.248-0.531,0.562-0.501c24.086,1.354,48.305-3.479,70.023-13.993c0.266-0.128,0.584-0.018,0.712,0.247           c0.128,0.265,0.018,0.584-0.247,0.712C268.359,445.455,246.896,450.353,225.306,450.353z"/>
								</g>
								<g>
									<path style="fill:#86DFD1;" d="M288.948,450.396c-0.052,0-0.104-0.008-0.155-0.023c-8.79-2.687-17.884-5.465-27.219-4.949           c-0.288,0.001-0.546-0.209-0.562-0.503c-0.016-0.294,0.209-0.545,0.503-0.561c9.532-0.521,19.123,2.408,27.588,4.994           c0.281,0.086,0.44,0.384,0.354,0.665C289.388,450.247,289.177,450.395,288.948,450.396z"/>
								</g>
							</g>
						</g>
						<g>
							<g>
								<path style="fill:#86DFD1;" d="M419.485,254.967c-7.406-3.518-15.763-4.44-23.955-4.79          c-8.192-0.351-16.458-0.187-24.51-1.734c-8.052-1.546-16.057-5.023-21.255-11.365          C372.656,229.336,402.354,237.926,419.485,254.967z"/>
							</g>
							<g>
								<path style="fill:#86DFD1;" d="M400.579,233.977c-11.01-5.418-22.021-10.836-33.031-16.254          c-5.213-2.565-10.492-5.174-14.861-9.004c-4.957-4.345-8.531-10.108-10.964-16.235c12.4-0.224,22.663,6.409,31.724,14.877          C382.542,215.861,392.341,224.646,400.579,233.977z"/>
							</g>
							<g>
								<path style="fill:#86DFD1;" d="M413.978,243.414c-16.08-15.046-24.771-37.646-22.915-59.589          C405.651,200.465,414.198,221.285,413.978,243.414z"/>
							</g>
							<g>
								<g>
									<path style="fill:#86DFD1;" d="M439.393,291.386c-0.215,0-0.418-0.132-0.498-0.346           c-8.512-22.578-22.741-42.759-41.149-58.36c-0.224-0.19-0.252-0.526-0.062-0.751c0.19-0.225,0.526-0.251,0.751-0.061           c18.546,15.718,32.881,36.05,41.456,58.798c0.105,0.275-0.035,0.582-0.31,0.686           C439.519,291.374,439.455,291.386,439.393,291.386z"/>
								</g>
								<g>
									<path style="fill:#86DFD1;" d="M417.179,252.842c-0.193,0-0.38-0.105-0.475-0.29c-4.337-8.496-5.542-18.458-6.604-27.248           c-0.036-0.292,0.172-0.557,0.465-0.592c0.288-0.037,0.558,0.173,0.592,0.465c1.104,9.126,2.246,18.563,6.497,26.891           c0.134,0.262,0.029,0.583-0.232,0.717C417.344,252.823,417.261,252.842,417.179,252.842z"/>
								</g>
							</g>
						</g>
						<g>
							<g>
								<path style="fill:#86DFD1;" d="M146.965,254.967c7.406-3.518,15.763-4.44,23.955-4.79c8.192-0.351,16.458-0.187,24.51-1.734          c8.052-1.546,16.057-5.023,21.255-11.365C193.795,229.336,164.096,237.926,146.965,254.967z"/>
							</g>
							<g>
								<path style="fill:#86DFD1;" d="M165.871,233.977c11.01-5.418,22.02-10.836,33.031-16.254          c5.213-2.565,10.493-5.174,14.861-9.004c4.956-4.345,8.531-10.108,10.964-16.235c-12.4-0.224-22.663,6.409-31.724,14.877          C183.908,215.861,174.109,224.646,165.871,233.977z"/>
							</g>
							<g>
								<path style="fill:#86DFD1;" d="M152.472,243.414c16.08-15.046,24.771-37.646,22.916-59.589          C160.8,200.465,152.253,221.285,152.472,243.414z"/>
							</g>
							<g>
								<g>
									<path style="fill:#86DFD1;" d="M127.058,291.386c-0.062,0-0.126-0.012-0.188-0.035c-0.275-0.103-0.415-0.411-0.311-0.686           c8.575-22.748,22.91-43.08,41.456-58.798c0.225-0.189,0.56-0.163,0.751,0.061c0.19,0.225,0.162,0.561-0.061,0.751           c-18.408,15.602-32.638,35.782-41.149,58.36C127.476,291.254,127.273,291.386,127.058,291.386z"/>
								</g>
								<g>
									<path style="fill:#86DFD1;" d="M149.271,252.842c-0.082,0-0.165-0.019-0.242-0.058c-0.262-0.134-0.366-0.455-0.232-0.717           c4.252-8.33,5.393-17.766,6.496-26.891c0.035-0.292,0.305-0.503,0.592-0.465c0.292,0.035,0.501,0.3,0.465,0.592           c-1.062,8.789-2.266,18.749-6.604,27.248C149.651,252.736,149.465,252.842,149.271,252.842z"/>
								</g>
							</g>
						</g>
					</g>
					<g>
						<polygon style="fill:#FFC945;" points="194.327,402.038 171.066,361.127 204.852,393.889 233.971,373.232 216.158,400.551         241.898,420.296 209.811,411.47 200.604,450.331 195.914,414.287 168.26,421.324       "/>
					</g>
					<g>
						<g>
							<g>
								<path style="fill:#FFFFFF;" d="M416.491,200.585c-3.681,3.426-5.297,8.488-6.491,13.372          c-2.825,11.55-3.823,24.718,3.039,34.429c2.094,2.964,5.01,5.541,8.551,6.336c3.735,0.838,7.734-0.447,10.755-2.797          c3.021-2.351,5.162-5.666,6.768-9.141c5.078-10.984,5.08-24.193,0.008-35.179          C435.469,199.695,423.912,193.678,416.491,200.585z"/>
							</g>
							<g>
								<circle style="fill:#FFFFFF;" cx="421.916" cy="293.829" r="14.414"/>
							</g>
						</g>
						<g>
							<g>
								<path style="fill:#FFFFFF;" d="M132.359,338.742c-2.893,24.761,6.696,49.558,20.525,70.301          c2.41,3.615,5.028,7.218,8.615,9.669c3.587,2.451,8.356,3.576,12.349,1.863c5.154-2.211,7.462-8.235,8.331-13.775          c3.471-22.11-7.424-43.912-20.242-62.258C156.031,336.089,134.736,318.401,132.359,338.742z"/>
							</g>
							<g>
								<circle style="fill:#FFFFFF;" cx="125.753" cy="310.418" r="13.598"/>
							</g>
						</g>
					</g>
					<g>
						<polygon style="fill:#2F2444;" points="220.757,109.894 317.483,109.894 223.658,118.234       "/>
					</g>
				</g>
				<g>
					<g>
						<circle style="fill:#2F2444;" cx="271.692" cy="46.812" r="30.13"/>
					</g>
					<g>
						<path style="fill:#2F2444;" d="M362.737,72.197c-4.677,3.01-10.242,4.742-16.218,4.742c-16.651,0-30.141-13.49-30.141-30.12        c0-16.651,13.49-30.141,30.141-30.141c5.976,0,11.541,1.732,16.218,4.742c-8.38,5.348-13.923,14.724-13.923,25.399        S354.357,66.871,362.737,72.197z"/>
					</g>
					<g>
						<path style="fill:#2F2444;" d="M178.165,22.526c4.677-3.01,10.242-4.742,16.218-4.742c16.651,0,30.141,13.49,30.141,30.12        c0,16.651-13.49,30.141-30.141,30.141c-5.976,0-11.541-1.732-16.218-4.742c8.38-5.348,13.923-14.724,13.923-25.399        S186.545,27.853,178.165,22.526z"/>
					</g>
				</g>
			</g>
			<g>
				<g>
					<polygon style="fill:#FFFFFF;" points="122.667,109.836 125.253,67.601 127.264,110.123 137.895,101.504 131.574,111.56        154.271,114.433 132.148,117.306 138.469,126.213 127.839,120.466 124.965,157.243 122.667,121.041 111.749,125.638        118.644,117.306 91.063,113.571 118.357,112.422 112.036,102.94      "/>
				</g>
				<g>
					<polygon style="fill:#FFFFFF;" points="442.746,355.853 445.332,313.618 447.344,356.14 457.974,347.521 451.653,357.577        474.351,360.45 452.228,363.323 458.549,372.23 447.918,366.483 445.045,403.259 442.746,367.058 431.828,371.655        438.724,363.323 411.142,359.588 438.437,358.439 432.116,348.957      "/>
				</g>
			</g>
		</g>
	</g>
</g>















</svg>
