<?xml version="1.0" encoding="UTF-8"?>
<!-- Generator: Adobe Illustrator 25.2.0, SVG Export Plug-In . SVG Version: 6.00 Build 0)  -->
<svg xmlns="http://www.w3.org/2000/svg" xmlns:xlink="http://www.w3.org/1999/xlink" version="1.1" id="Capa_1" x="0px" y="0px" viewBox="0 0 500.022 500.022" style="enable-background:new 0 0 500.022 500.022;" xml:space="preserve" width="512" height="512">
<g>
	<g>
		<g>
			<path d="M217.262,293.979c-1.536,2.025-2.929,4.001-4.466,5.857c-3.295,3.981-7.109,7.366-12.241,8.674     c-8.005,2.04-14.666-0.804-20.367-6.279c-4.793-4.603-7.346-10.502-9.078-16.796c-2.896-10.526-2.958-21.191-1.376-31.902     c0.749-5.071,1.722-10.109,2.609-15.249c-0.133-0.014-0.412-0.089-0.683-0.066c-6.699,0.568-12.997-1.016-19.076-3.638     c-5.565-2.4-9.325-6.411-10.581-12.476c-0.776-3.746,0.178-7.097,2.694-9.945c1.289-1.459,2.931-1.275,3.834,0.437     c4.5,8.524,12.171,12.045,21.155,13.486c1.733,0.278,3.51,0.275,5.26,0.455c0.919,0.094,1.309-0.306,1.636-1.135     c1.275-3.227,2.492-6.488,3.994-9.611c3.172-6.596,7.735-11.987,14.278-15.509c2.448-1.318,5.038-2.069,7.844-1.571     c5.264,0.935,8.438,5.888,7.626,11.725c-0.516,3.706-2.164,6.88-4.373,9.812c-3.292,4.371-7.469,7.733-12.15,10.49     c-0.903,0.532-1.357,1.176-1.574,2.199c-2.928,13.829-4.471,27.823-4.758,41.94c-0.081,3.998,0.362,8.035,0.898,12.01     c0.444,3.292,2.154,6.157,4.176,8.769c2.738,3.536,7.57,4.448,11.72,2.746c4.303-1.764,6.839-5.335,9.681-8.627     c0.268-0.31,0.199-1.143-0.009-1.599c-3.451-7.553-5.416-15.482-5.834-23.758c-0.384-7.605,0.981-14.937,4.077-21.913     c1.177-2.651,2.766-5.029,5.093-6.833c4.461-3.46,9.378-2.242,11.571,2.951c1.877,4.443,2.372,9.131,2.025,13.912     c-0.567,7.818-2.211,15.415-4.67,22.854c-0.301,0.91-0.29,2.121,0.051,3.012c2.1,5.497,5.205,10.272,9.982,13.911     c6.839,5.209,12.729,2.548,15.766-4.132c2.691-5.92,3.864-12.259,4.845-18.632c2.754-17.893-0.171-35.078-6.586-51.802     c-1.675-4.366-4.04-8.336-7.567-11.499c-0.891-0.799-1.857-1.538-2.873-2.17c-1.833-1.141-2.073-2.674-0.396-3.964     c1.79-1.378,3.6-2.78,5.573-3.858c3.497-1.912,6.983-1.611,10.212,0.767c3.188,2.348,5.493,5.421,7.235,8.954     c3.672,7.448,5.371,15.44,6.669,23.567c2.65,16.587,0.997,32.807-4.094,48.718c-1.992,6.223-5.028,11.965-9.055,17.132     c-3.898,5.001-8.827,8.572-15.122,9.817c-7.897,1.56-14.465-1.116-19.889-6.863C219.676,296.996,218.55,295.512,217.262,293.979z      M225.078,239.217c-3.533,10.164-3.505,20.105-1.053,30.196c0.124-0.137,0.217-0.194,0.241-0.273     c2.17-7.159,3.699-14.428,3.263-21.959C227.372,244.487,226.792,241.832,225.078,239.217z M195.965,220.566     c5.196-3.095,9.158-7.15,10.345-13.333c0.074-0.386,0.103-0.81,0.028-1.191c-0.242-1.221-1.164-1.522-2.053-0.629     C200.07,209.646,197.743,214.936,195.965,220.566z"/>
			<path d="M390.46,244.236c2.96-0.371,5.798-0.607,8.589-1.102c5.774-1.023,11.265-2.971,16.613-5.355     c0.895-0.399,1.247-0.906,1.385-1.883c2.06-14.597,4.067-29.203,6.309-43.772c1.294-8.409,4.315-16.223,9.414-23.123     c2.748-3.719,6.224-6.561,10.578-8.234c5.596-2.151,11.024-1.861,16.259,1.162c13.164,7.602,16.805,22.443,12.943,33.556     c-2.926,8.419-9.095,13.673-18.067,14.973c-2.178,0.315-4.581-0.306-6.775-0.891c-2.445-0.652-3.817-3.423-0.794-5.644     c9.019-6.626,13.258-18.662,10.325-30.466c-0.132-0.532-0.321-1.061-0.562-1.552c-1.949-3.97-6.99-6.887-10.983-0.917     c-0.798,1.193-1.374,2.573-1.849,3.937c-3.43,9.857-5.653,20.028-7.472,30.276c-1.406,7.92-2.431,15.908-3.615,23.868     c-0.086,0.58-0.088,1.173-0.128,1.738c2.66-0.54,5.151-1.146,7.675-1.535c4.457-0.686,8.831-0.267,13.061,1.372     c5.07,1.964,8.223,5.568,8.968,10.983c0.396,2.876,0.452,5.81,0.468,8.719c0.004,0.688-0.621,1.678-1.23,1.98     c-0.52,0.258-1.699-0.023-2.127-0.488c-3.942-4.29-9.126-6.137-14.535-7.487c-4.19-1.046-8.474-1.046-12.759-0.615     c-0.719,0.072-1.186,0.246-1.267,1.131c-0.587,6.461-1.262,12.914-1.834,19.377c-0.398,4.496,0.083,8.942,1.014,13.347     c0.134,0.635,0.207,1.298,0.19,1.945c-0.053,2.036-1.331,3.106-3.372,2.885c-5.963-0.645-10.12-4.414-11.328-10.814     c-0.62-3.286-0.818-6.699-0.782-10.05c0.045-4.219,0.524-8.434,0.817-12.651c0.034-0.493,0.071-0.986,0.123-1.7     c-8.666,1.709-17.129,4.175-26.188,2.947c-0.388,2.622-0.823,5.286-1.17,7.961c-0.854,6.584-1.668,13.174-2.495,19.762     c-0.223,1.778-1.111,2.534-2.95,2.499c-3.964-0.076-6.847-2.595-7.602-6.645c-0.777-4.168-0.447-8.336,0.139-12.479     c2.18-15.395,4.425-30.78,6.624-46.172c0.427-2.986,0.768-5.985,1.129-8.981c0.227-1.884,0.693-2.314,2.612-2.318     c4.89-0.01,7.576,2.066,7.885,6.961c0.264,4.185,0.01,8.445-0.442,12.625c-0.708,6.547-1.777,13.055-2.689,19.581     C390.526,243.237,390.517,243.529,390.46,244.236z"/>
			<path d="M351.701,198.774c1.091,6.982,0.356,13.873-0.407,20.765c-2.017,18.208-4.053,36.414-6.025,54.628     c-0.308,2.847-0.38,5.724-0.444,8.59c-0.076,3.45-1.843,4.879-5.184,3.954c-5.394-1.493-8.282-5.298-9.353-10.581     c-0.98-4.836-0.796-9.747-0.163-14.59c1.926-14.717,3.993-29.415,6.038-44.116c0.908-6.529,1.896-13.046,2.842-19.57     c0.05-0.345,0.047-0.697,0.083-1.282c-2.946-0.57-5.877-1.2-8.831-1.698c-9.664-1.63-19.288-2.021-28.881,0.662     c-6.16,1.723-11.353,4.807-15.37,9.813c-0.756,0.942-1.509,1.887-2.306,2.794c-1.653,1.881-3.369,1.878-4.936-0.091     c-2.79-3.506-3.71-7.531-3.033-11.924c0.746-4.848,3.3-8.5,7.595-10.827c6.59-3.571,13.72-4.794,21.143-4.501     c9.578,0.379,18.796,2.7,27.956,5.296c8.128,2.303,16.188,4.923,24.66,5.693c13.36,1.216,25.57-2.157,36.546-9.755     c5.595-3.872,9.48-9.13,10.776-15.983c0.297-1.569,0.271-3.203,0.338-4.81c0.117-2.776,1.582-3.865,4.307-3.157     c7.012,1.822,11.021,8.855,8.973,16.051c-2.206,7.751-7.277,13.291-13.978,17.509c-8.6,5.413-18.08,7.833-28.123,7.866     c-7.69,0.025-15.382-0.474-23.074-0.737C352.461,198.763,352.071,198.774,351.701,198.774z"/>
			<path d="M289.485,250.596c1.222-11.411,2.426-22.824,3.657-34.234c0.281-2.601,0.66-5.192,0.96-7.791     c0.164-1.427,0.842-2.134,2.349-2.167c3.135-0.068,5.585,1.074,7.228,3.791c1.718,2.841,2.503,5.991,2.359,9.242     c-0.298,6.733-0.724,13.465-1.305,20.18c-1.295,14.942-2.713,29.873-4.095,44.808c-0.227,2.454-0.46,4.912-0.818,7.35     c-0.31,2.109-1.599,2.889-3.684,2.427c-5.374-1.19-8.174-4.175-8.704-9.761c-0.27-2.841-0.047-5.729-0.047-8.596     C287.177,275.829,288.585,258.998,289.485,250.596z"/>
		</g>
		<g>
			<path d="M139.695,155.441c6.421-0.54,12.609-0.865,18.744-1.618c11.88-1.46,23.733-3.148,35.592-4.78     c1.64-0.226,3.245-0.693,4.875-1.004c2.354-0.449,3.616,0.364,3.858,2.719c0.812,7.875,1.037,15.765,0.262,23.661     c-0.103,1.049-0.231,2.096-0.373,3.379c1.84-0.155,3.621-0.308,5.402-0.455c24.335-2.001,48.146-7.093,71.99-12.052     c25.946-5.396,51.884-10.865,77.938-15.701c20.993-3.897,42.224-6.266,63.615-6.606c20.674-0.329,40.964,2.323,60.731,8.51     c3.458,1.082,6.83,2.473,9.956,4.315c2.96,1.744,5.153,3.755,6.847,6.78c0.29,0.518,0.567,1.051,0.723,1.624     c0.301,1.11,0.124,2.26,0.049,3.386c-0.075,1.132-0.038,2.276-0.072,3.412c-0.077,2.545-0.156,5.09-0.236,7.635     c-0.159,5.09-0.319,10.179-0.47,15.269c-0.124,4.174-0.242,8.347-0.348,12.521c-0.532,20.934-0.919,41.872-1.487,62.805     c-0.362,13.332-0.904,26.659-1.465,39.984c-0.07,1.655-0.588,3.356-1.24,4.891c-0.28,0.659-1.379,1.11-2.197,1.375     c-4.544,1.473-9.129,2.816-13.675,4.284c-33.18,10.717-65.471,23.572-96.22,40.118c-4.031,2.169-7.974,4.502-11.982,6.715     c-1.05,0.58-2.153,1.129-3.3,1.459c-2.26,0.65-3.862-0.592-3.712-2.927c0.095-1.49,0.423-2.991,0.843-4.43     c2.094-7.182,5.591-13.714,9.951-19.714c3.809-5.241,8.083-10.145,12.157-15.192c0.403-0.499,0.85-0.964,1.586-1.793     c-2.626-0.875-4.924-1.938-7.337-2.387c-5.783-1.074-11.664-1.638-17.42-2.827c-5.209-1.076-9.956,0.672-14.829,1.675     c-25.316,5.213-50.564,10.775-75.938,15.691c-23.439,4.541-47.081,7.771-71.045,7.651c-16.889-0.085-33.689-1.239-50.262-4.719     c-9.239-1.94-18.189-4.755-26.635-9.037c-2.215-1.123-4.415-2.342-5.502-4.721c-0.482-1.055-0.792-2.288-0.804-3.444     c-0.067-6.744-0.022-13.49-0.015-20.234c0-0.544,0-1.088,0-1.781c-7.633,1.419-15.219,1.653-22.807,1.482     c-5.325-0.121-10.65-0.52-15.959-0.989c-1.716-0.151-3.434-0.779-5.05-1.437c-2.379-0.968-3.797-2.868-3.948-5.44     c-0.118-1.997,0.021-4.02,0.188-6.019c0.305-3.657,0.714-7.305,1.1-11.154c-1.486,0-2.871-0.031-4.254,0.005     c-15.126,0.389-29.896-1.818-44.364-6.141c-5.96-1.781-11.574-4.381-16.823-7.708c-1.727-1.094-3.41-2.371-4.8-3.857     c-2.283-2.441-1.981-5.289,0.67-7.328c1.546-1.19,3.253-2.197,4.972-3.131c10.72-5.829,20.645-12.771,29.227-21.462     c3.732-3.78,6.999-8.024,10.416-12.108c1.906-2.279,1.86-4.745,0.444-7.301c-2.195-3.96-4.336-7.95-6.485-11.936     c-8.282-15.357-13.588-31.669-15.619-49.012c-0.214-1.825-0.178-3.736,0.106-5.55c0.434-2.772,2.226-4.15,5.024-3.848     c3.847,0.415,7.662,1.116,11.5,1.623c13.316,1.762,26.68,2.086,40.083,1.315c14.583-0.839,29.06-2.651,43.529-4.582     c3.821-0.51,7.716-0.551,11.58-0.615c2.258-0.037,3.089,0.844,3.092,3.164c0.008,5.03-0.132,10.061-0.223,15.091     C139.835,153.684,139.759,154.426,139.695,155.441z M492.798,311.48c0-0.361-0.001-0.601,0-0.842     c0.057-9.866-0.029-19.735,0.198-29.596c0.682-29.592,1.5-59.181,2.236-88.772c0.224-9.008,0.3-18.02,0.583-27.025     c0.045-1.448-0.332-2.259-1.449-3.072c-3.581-2.609-7.522-4.485-11.708-5.822c-20.071-6.411-40.688-9.259-61.719-9.024     c-20.237,0.226-40.314,2.573-60.175,6.196c-26.466,4.828-52.828,10.249-79.174,15.706c-24.246,5.023-48.45,10.219-73.217,12.013     c-16.162,1.171-32.32,2.835-48.553,1.625c-8.022-0.598-16.035-1.418-24.017-2.423c-3.453-0.435-6.815-1.591-10.273-2.433     c-0.017,0.14-0.076,0.427-0.086,0.715c-0.285,8.653-0.622,17.305-0.834,25.961c-0.658,26.873-1.266,53.748-1.901,80.622     c-0.055,2.314-0.16,4.628-0.256,6.941c-0.169,4.066-0.356,8.132-0.525,12.198c-0.249,6.025-0.431,12.053-0.785,18.071     c-0.067,1.148,0.148,1.708,1.133,2.238c8.376,4.502,17.188,7.852,26.426,10.078c14.957,3.604,30.195,4.698,45.515,5.074     c25.291,0.622,50.255-2.445,75.021-7.105c20.655-3.886,41.195-8.38,61.783-12.622c18.519-3.816,36.961-8.062,55.568-11.382     c23.946-4.273,48.12-6.168,72.473-4.387c9.046,0.661,18.054,1.564,26.718,4.481C488.107,309.675,490.386,310.586,492.798,311.48z      M65.745,159.763c0.705-0.071,1.081-0.134,1.457-0.143c4.474-0.113,8.949-0.231,13.424-0.319c1.343-0.027,2.401-0.274,2.122-2.09     c-0.492,0-0.988-0.011-1.483,0.002c-3.622,0.091-7.243,0.235-10.864,0.252c-1.099,0.005-2.199-0.334-3.298-0.516     c0.022-0.241,0.044-0.483,0.066-0.724c5.526-0.289,11.052-0.577,16.578-0.866c-0.007-0.144-0.015-0.288-0.022-0.432     c-2.589-0.501-5.384,0.52-7.878-1c6.553-0.9,13.306-0.241,19.341-2.888c-2.061,0-4.32-0.016-6.579,0.003     c-5.535,0.048-11.069,0.144-16.604,0.141c-0.959,0-2.086-0.048-2.797-1.441c1.228-0.131,2.248-0.295,3.274-0.339     c7.034-0.305,14.071-0.566,21.105-0.88c3.517-0.157,7.034-0.343,10.542-0.621c1.598-0.126,3.176-0.505,4.763-0.769     c-0.022-0.167-0.043-0.333-0.065-0.5c-4.123,0-8.247,0-12.37,0c-0.024-0.16-0.047-0.32-0.071-0.481     c0.728-0.241,1.444-0.636,2.187-0.697c4.103-0.336,8.225-0.922,12.317-0.772c3.451,0.126,6.499-0.658,9.521-2.05     c2.695-1.24,5.401-2.457,8.096-3.697c0.475-0.219,0.922-0.499,1.382-0.752c-1.303,0.063-2.537,0.275-3.764,0.52     c-18.818,3.749-37.842,5.401-57.009,5.6c-12.482,0.13-24.793-1.518-37.072-3.52c-2.572-0.42-2.959-0.204-2.654,2.36     c0.546,4.591,1.129,9.197,2.078,13.716c3.019,14.381,8.238,27.944,15.548,40.706c1.749,3.052,3.386,6.176,4.911,9.346     c1.5,3.119,1.353,6.276-0.564,9.209c-1.401,2.145-2.822,4.298-4.447,6.271c-9.279,11.269-20.625,19.991-33.421,26.91     c-2.609,1.411-5.195,2.874-7.713,4.44c-1.741,1.082-1.812,1.709-0.118,2.859c2.821,1.915,5.713,3.768,8.738,5.331     c8.794,4.543,18.263,7.055,27.939,8.869c7.234,1.356,14.537,1.99,21.909,2.033c-1.684-0.67-3.723-0.617-5.181-2.724     c1.425,0.098,2.449,0.157,3.471,0.24c2.755,0.223,5.51,0.447,8.263,0.689c1.435,0.126,1.915-0.494,1.515-1.995     c-0.633,0-1.277,0.024-1.919-0.004c-2.106-0.092-4.215-0.167-6.315-0.34c-0.414-0.034-0.794-0.478-1.19-0.733     c0.073-0.209,0.147-0.418,0.22-0.627c3.156,0,6.312,0,9.558,0c0.109-0.953,0.186-1.633,0.287-2.515     c-2.243,0-4.35,0.086-6.446-0.024c-2.05-0.108-4.099-0.357-6.128-0.675c-0.515-0.081-0.953-0.659-1.427-1.008     c0.082-0.146,0.164-0.292,0.246-0.438c0.595-0.027,1.191-0.074,1.786-0.076c3.623-0.011,7.247-0.047,10.869,0.003     c1.23,0.017,1.651-0.394,1.266-1.711c-0.904,0-1.806,0.048-2.7-0.008c-4.664-0.294-9.332-0.553-13.986-0.972     c-1.095-0.099-2.138-0.766-3.205-1.172c0.051-0.278,0.103-0.555,0.154-0.833c6.698-0.168,13.407,0.845,20.197,0.34     c0.074-0.74,0.143-1.421,0.214-2.124c-2.307-0.142-4.505-0.239-6.693-0.448c-0.385-0.037-0.726-0.536-1.087-0.823     c0.387-0.218,0.759-0.588,1.163-0.628c1.9-0.186,3.811-0.252,5.713-0.419c1.134-0.1,1.13-0.148,1.051-1.331     c-3.291-0.79-6.794,0.16-10.042-1.242c0.648-0.43,1.294-0.614,1.944-0.631c2.365-0.061,4.733-0.017,7.094-0.134     c0.504-0.025,1.278-0.464,1.413-0.879c0.283-0.873,0.224-1.857,0.32-2.968c-0.889,0-1.635,0.038-2.376-0.007     c-2.706-0.162-5.413-0.323-8.113-0.555c-0.476-0.041-0.924-0.418-1.384-0.64c0.048-0.231,0.097-0.463,0.145-0.694     c3.961,0,7.921,0,11.926,0c0.144-1.804,0.258-3.224,0.365-4.569c-4.195-0.259-8.155-0.482-12.11-0.77     c-0.655-0.048-1.289-0.384-1.933-0.587c0.032-0.174,0.064-0.348,0.096-0.522c0.67-0.045,1.34-0.124,2.01-0.128     c3.623-0.019,7.247,0.009,10.87-0.059c0.442-0.008,1.186-0.427,1.256-0.766c0.23-1.111,0.213-2.273,0.304-3.605     c-0.683,0-1.222-0.01-1.761,0.002c-2.968,0.064-5.938,0.229-8.904,0.171c-2.557-0.05-5.114-0.297-7.658-0.58     c-0.625-0.07-1.197-0.617-1.794-0.945c0.069-0.244,0.139-0.489,0.208-0.733c6.664,0,13.328,0,20.087,0     c0.116-1.435,0.203-2.51,0.288-3.563c-3.274-0.672-6.754,0.309-9.51-1.886c0.015-0.159,0.03-0.318,0.045-0.477     c3.188,0,6.376,0,9.65,0c0.048-0.827,0.083-1.45,0.125-2.179c-0.665-0.035-1.16-0.034-1.649-0.091     c-2.743-0.319-5.491-0.609-8.223-1.008c-0.824-0.121-1.818-0.279-2.047-1.775c4.076,0.249,8.033,0.49,12.123,0.739     c0.061-0.957,0.107-1.674,0.158-2.486c-1.202-0.114-2.251-0.176-3.289-0.319c-2.985-0.413-5.978-0.788-8.939-1.334     c-0.932-0.172-1.774-0.834-2.656-1.273c0.067-0.246,0.134-0.493,0.201-0.739c4.929,0.432,9.858,0.865,14.935,1.31     c0.115-1.4,0.202-2.461,0.302-3.68c-2.041,0-3.848,0.078-5.646-0.019c-2.555-0.137-5.109-0.356-7.651-0.648     c-0.559-0.064-1.065-0.581-1.596-0.889c0.064-0.229,0.128-0.457,0.192-0.686c4.926,0,9.852,0,14.882,0     c0.072-0.972,0.118-1.586,0.172-2.313c-0.665,0-1.161,0.013-1.655-0.002c-3.62-0.105-7.242-0.175-10.86-0.348     c-1.243-0.059-2.618-0.055-3.666-1.863c5.694-0.123,11.071-0.239,16.447-0.355c0.003-0.206,0.006-0.412,0.01-0.618     c-0.495-0.041-0.991-0.117-1.486-0.119c-3.675-0.014-7.351,0.041-11.023-0.048c-1.169-0.028-2.328-0.425-3.492-0.654     c0.011-0.254,0.022-0.507,0.032-0.761c1.147-0.115,2.292-0.296,3.442-0.333c3.922-0.127,7.845-0.216,11.768-0.29     c1.091-0.021,1.24-0.545,0.93-1.547c-1.071,0-2.128,0.076-3.169-0.016c-2.046-0.181-4.101-0.364-6.119-0.731     c-0.943-0.171-2.081-0.431-2.352-1.822c4.044,0.28,7.992,0.552,12.024,0.831c0.104-1.34,0.176-2.269,0.255-3.286     c-0.557-0.046-0.948-0.062-1.335-0.113c-3.881-0.513-7.77-0.983-11.638-1.585c-0.917-0.143-1.765-0.732-2.645-1.116     c0.07-0.215,0.14-0.431,0.21-0.646c5.147,0.53,10.294,1.06,15.606,1.606c0.142-1.803,0.262-3.313,0.386-4.898     c-2.782-0.216-5.297-0.308-7.781-0.628c-4.083-0.526-8.158-1.138-12.211-1.854c-0.981-0.174-1.866-0.897-2.794-1.367     c0.068-0.236,0.136-0.471,0.205-0.707c7.568,0.717,15.135,1.434,22.825,2.162c0.096-1.431,0.164-2.457,0.242-3.626     c-2.273,0-4.376,0.004-6.48-0.001c-2.013-0.005-4.029,0.032-6.038-0.066c-0.487-0.024-0.951-0.503-1.426-0.773     c0.444-0.329,0.868-0.69,1.341-0.971c0.194-0.115,0.492-0.062,0.743-0.072c3.166-0.127,6.333-0.243,9.499-0.383     c0.882-0.039,1.761-0.146,2.667-0.225c0.052-0.774,0.092-1.356,0.138-2.036c-0.383,0.031-0.621,0.058-0.859,0.068     c-3.766,0.153-7.532,0.334-11.3,0.425c-0.555,0.013-1.12-0.399-1.68-0.614c0.035-0.17,0.069-0.34,0.104-0.509     c0.407-0.131,0.807-0.344,1.222-0.38c3.855-0.333,7.709-0.686,11.571-0.916c1.101-0.066,1.439-0.378,1.106-1.538     c-0.998-0.061-1.992-0.159-2.989-0.177c-6.136-0.115-12.273-0.19-18.408-0.347c-0.75-0.019-1.49-0.45-2.234-0.69     c0.027-0.187,0.054-0.374,0.08-0.562c0.549-0.11,1.097-0.307,1.648-0.318c6.389-0.128,12.779-0.228,19.168-0.333     c0.755-0.012,1.52,0.064,2.261-0.041c0.342-0.048,0.854-0.39,0.912-0.675c0.174-0.857,0.162-1.752,0.228-2.709     c-0.524-0.032-0.867-0.069-1.21-0.07c-4.477-0.006-8.961,0.153-13.429-0.051c-5.266-0.24-10.521-0.758-15.774-1.235     c-1.113-0.101-2.279-0.405-2.88-1.688c11.215,0.358,22.35,0.714,33.571,1.072c0.096-1.225,0.156-2.001,0.23-2.944     c-3.624,0-7.091,0.111-10.549-0.026c-5.07-0.201-10.135-0.562-15.199-0.902c-0.876-0.059-1.8-0.267-2.067-1.641     c9.405,0,18.713,0,28.141,0c0.047-0.343,0.112-0.815,0.19-1.385c-0.731,0-1.33-0.012-1.928,0.002     c-3.571,0.085-7.141,0.227-10.711,0.238C68.337,161.126,66.966,161.166,65.745,159.763z M120.013,236.216     c-0.563,0-0.91-0.004-1.256,0c-4.715,0.066-9.43,0.176-14.144,0.163c-0.89-0.002-1.779-0.491-2.669-0.756     c0.031-0.148,0.062-0.296,0.093-0.444c0.259-0.113,0.512-0.304,0.779-0.327c1.598-0.141,3.198-0.265,4.799-0.355     c3.714-0.21,7.43-0.37,11.14-0.627c0.454-0.032,1.188-0.476,1.253-0.828c0.175-0.956,0.06-1.964,0.06-2.992     c-0.893,0-1.638,0.015-2.383-0.002c-4.119-0.093-8.238-0.17-12.355-0.319c-0.596-0.022-1.179-0.4-1.769-0.613     c0.034-0.196,0.069-0.393,0.103-0.589c0.862-0.092,1.722-0.238,2.586-0.267c4.221-0.142,8.445-0.234,12.665-0.403     c0.438-0.018,1.161-0.359,1.23-0.667c0.177-0.788,0.059-1.642,0.059-2.54c-0.954,0-1.707,0.016-2.459-0.003     c-4.072-0.102-8.144-0.183-12.214-0.343c-0.927-0.037-2.011-0.054-2.614-1.683c5.911,0,11.591,0,17.356,0     c0-1.671,0-2.936,0-4.308c-4.244,0-8.369,0.126-12.484-0.035c-4.062-0.159-8.117-0.564-12.164-0.966     c-0.883-0.088-1.72-0.626-2.579-0.957c0.053-0.254,0.107-0.508,0.16-0.763c9.053,0.457,18.104,0.765,27.244,0.247     c0-1.504,0-2.835,0-4.244c-0.603,0.044-1.1,0.086-1.598,0.115c-3.209,0.185-6.417,0.415-9.629,0.527     c-1.22,0.043-2.447-0.19-3.587-1.417c0.812-0.177,1.357-0.359,1.914-0.408c3.854-0.335,7.706-0.714,11.567-0.922     c1.575-0.085,1.688-0.769,1.368-2.065c-0.625,0-1.173-0.008-1.721,0.001c-4.326,0.077-8.653,0.205-12.979,0.209     c-1.5,0.001-3.096,0-4.287-1.153c0.007-0.164,0.013-0.328,0.02-0.492c6.354-0.293,12.707-0.587,19.113-0.882     c0-1.257,0-2.388,0-3.711c-0.884,0-1.68,0.013-2.476-0.002c-5.182-0.102-10.364-0.179-15.544-0.343     c-0.95-0.03-1.889-0.42-2.833-0.644c0.034-0.236,0.068-0.473,0.102-0.709c6.892-0.785,13.829-0.385,20.797-0.363     c0-1.073,0-2.001,0-3.085c-0.692,0-1.289,0.037-1.879-0.006c-4.154-0.305-8.314-0.561-12.456-0.99     c-1.012-0.105-1.963-0.794-2.942-1.215c0.06-0.155,0.12-0.309,0.181-0.464c5.686,0.257,11.371,0.515,17.168,0.777     c0-1.267,0-2.188,0-3.157c-3.063-0.229-6.024-0.373-8.966-0.691c-2.99-0.324-5.972-0.757-8.933-1.283     c-0.801-0.142-1.511-0.796-2.263-1.215c0.072-0.172,0.144-0.344,0.215-0.516c6.662,0.467,13.323,0.933,20.049,1.405     c0-1.023,0-1.748,0-2.52c-3.923-0.449-7.773-0.797-11.592-1.354c-3.323-0.485-6.628-1.133-9.906-1.867     c-1.027-0.23-1.938-0.974-2.902-1.484c0.062-0.102,0.124-0.204,0.187-0.306c8.06,1.023,16.121,2.046,24.283,3.082     c0-1.152,0-1.915,0-2.639c-4.489-0.657-8.849-1.295-13.209-1.933c0.023-0.209,0.045-0.418,0.068-0.627     c4.446-0.769,8.811,0.752,13.216,0.846c0.246-1.954,0.237-1.845-1.607-1.992c-3.645-0.29-7.281-0.693-10.915-1.108     c-0.484-0.055-0.929-0.453-1.392-0.692c0.049-0.138,0.099-0.277,0.148-0.415c3.959,0.153,7.921,0.246,11.874,0.495     c1.21,0.076,2.235,0.305,2.765-1.159c0.121-0.333,0.697-0.538,1.099-0.725c1.024-0.474,2.067-0.904,2.99-1.303     c-2.055,0-4.172,0.131-6.264-0.037c-2.017-0.162-4.1-0.329-5.831-1.822c7.845,1.042,15.481-0.767,23.206-1.199     c-2.864-0.37-5.73-0.485-8.577-0.778c-7.649-0.784-15.293-1.611-22.929-2.51c-1.156-0.136-2.256-0.746-3.382-1.137     c0.03-0.219,0.059-0.438,0.089-0.657c0.59-0.107,1.187-0.337,1.767-0.298c2.105,0.141,4.203,0.388,6.305,0.568     c8.116,0.694,16.233,1.366,24.348,2.069c6.256,0.542,12.455,0.62,18.391-1.912c0.695-0.296,1.431-0.495,2.473-0.85     c-6.18,0.184-11.958,0.155-17.664-1.086c0.594-0.297,1.177-0.298,1.759-0.297c6.336,0.01,12.674,0.13,19.006-0.032     c2.123-0.054,4.227-0.827,6.34-1.271c-0.03-0.227-0.059-0.454-0.089-0.682c-4.191,0-8.382,0-12.573,0     c-0.004-0.149-0.007-0.299-0.011-0.448c0.477-0.076,0.953-0.208,1.432-0.22c4.524-0.106,9.049-0.177,13.572-0.295     c0.841-0.022,1.732-0.061,2.509-0.343c4.916-1.783,9.808-3.633,14.704-5.47c0.48-0.18,0.936-0.421,1.779-0.806     c-0.646,0-0.847-0.024-1.041,0.003c-9.561,1.345-19.097,2.912-28.688,3.988c-12.208,1.369-24.471,2.063-36.775,1.811     c-10.427-0.214-20.802-1.037-31.141-2.356c-1.054-0.134-1.594-0.008-1.691,1.178c-0.225,2.759-0.578,5.507-0.808,8.265     c-1.95,23.326-3.738,46.665-5.869,69.974c-1.609,17.591-3.638,35.143-5.506,52.71c-0.545,5.119-0.019,6.173,5.017,6.913     c4.967,0.73,10.002,1.053,15.019,1.365c7.797,0.484,15.579,0.191,23.402-0.935c0-0.487,0-0.952,0-1.576     c-3.918,0-7.749,0.207-11.548-0.057c-3.94-0.275-7.851-0.983-11.766-1.567c-0.549-0.082-1.043-0.536-1.562-0.818     c0.045-0.175,0.089-0.35,0.134-0.524c8.238,0.274,16.476,0.548,24.842,0.827c0-0.84,0-1.459,0-2.168     c-0.384,0-0.724-0.002-1.064,0c-3.163,0.017-6.326,0.071-9.488,0.023c-0.684-0.01-1.363-0.39-2.044-0.6     c0.041-0.162,0.081-0.325,0.122-0.487c4.175-0.275,8.351-0.55,12.623-0.832c0-1.099,0-2.072,0-2.875     c-4.569,0-9.039,0.017-13.508-0.019c-0.628-0.005-1.254-0.264-1.881-0.405c0.015-0.195,0.03-0.391,0.045-0.586     c5.036-1.281,10.3-0.52,15.467-1.364c0-1.322,0-2.593,0-3.94c-0.686,0-1.237-0.006-1.787,0.001     c-5.685,0.072-11.37,0.188-17.056,0.192c-1.49,0.001-2.981-0.342-4.471-0.527c0.011-0.237,0.023-0.474,0.034-0.712     c7.741-1.42,15.609-1.181,23.473-1.201c0-1.228,0-2.21,0-3.184c-3.935,0.144-7.771,1.176-11.634-0.099     c0.745-0.467,1.518-0.768,2.317-0.873c2.64-0.346,5.288-0.63,7.935-0.92c1.7-0.186,1.775-0.283,1.383-2.08     c-2.102,0.111-4.204,0.281-6.308,0.316c-2.09,0.035-4.218,0.088-6.032-1.141c0.008-0.156,0.015-0.311,0.023-0.467     c4.196-0.321,8.392-0.642,12.558-0.961c0-1.21,0-1.986,0-2.865c-2.817,0-5.533,0.111-8.237-0.026     c-4.064-0.206-8.122-0.552-12.175-0.923c-0.684-0.063-1.329-0.552-1.992-0.843c0.048-0.197,0.095-0.393,0.143-0.59     c3.632-1.219,7.404-0.26,11.1-0.398c3.744-0.14,7.497-0.031,11.352-0.031c0-1.441,0-2.618,0-3.904     c-0.745,0-1.394,0.013-2.042-0.002c-3.117-0.07-6.234-0.128-9.349-0.244c-0.472-0.018-0.934-0.316-1.4-0.485     c0.017-0.173,0.034-0.347,0.051-0.52c4.171-1.24,8.551-0.659,12.904-1.041c0-1.296,0-2.467,0-3.693c-0.404,0-0.699-0.001-0.994,0     c-3.674,0.008-7.349,0.042-11.022,0.01c-1.047-0.009-2.192,0.014-3.053-1.542c5.201-0.746,10.215-0.377,15.247-0.918     c0-1.08,0-2.059,0-3.13c-1.063,0.102-2.054,0.261-3.049,0.28c-4.063,0.077-8.126,0.145-12.189,0.124     c-0.632-0.003-1.261-0.485-1.892-0.745c0.037-0.215,0.074-0.431,0.111-0.646c5.705-0.433,11.41-0.866,17.168-1.303     c0-1.011,0-1.747,0-2.672c-0.653,0-1.242,0-1.831,0c-5.229,0-10.458,0.037-15.687-0.019c-1.626-0.017-3.26-0.256-4.471-1.501     c0.013-0.199,0.025-0.399,0.037-0.598c7.317,0,14.634,0,22.069,0C119.915,238.325,119.961,237.341,120.013,236.216z      M441.952,327.974c-4.06,1.131-8.141,2.192-12.175,3.408c-10.15,3.06-20.274,6.202-30.42,9.275     c-1.1,0.333-2.271,0.433-3.409,0.641c-0.055-0.166-0.111-0.333-0.166-0.499c0.696-1.147,1.982-1.461,3.15-1.862     c17.544-6.019,35.209-11.65,53.129-16.455c5.4-1.448,10.805-2.882,16.207-4.322c-0.18-0.171-0.331-0.214-0.469-0.187     c-11.596,2.259-23.208,4.442-34.782,6.811c-10.188,2.085-20.333,4.382-30.501,6.567c-0.453,0.097-0.946,0.013-1.42,0.013     c-0.046-0.206-0.092-0.412-0.137-0.618c1.211-0.514,2.378-1.222,3.64-1.514c16.059-3.711,32.126-7.388,48.206-11.01     c3.331-0.75,6.719-1.243,10.081-1.854c-20.5,1.173-40.525,5.399-60.57,9.489c-0.211-0.311-0.421-0.621-0.632-0.932     c0.466-0.182,0.937-0.354,1.398-0.548c1.474-0.62,2.893-1.449,4.424-1.841c13.899-3.559,27.991-6.219,42.187-8.184     c8.053-1.115,16.23-1.328,24.351-1.951c0.394-0.03,0.786-0.094,1.178-0.142c-19.005-1.484-37.855,0.254-56.767,1.999     c1.057-0.705,2.166-1.314,3.327-1.44c8.834-0.964,17.673-1.905,26.523-2.705c5.454-0.493,10.931-0.728,16.398-1.079     c-31.359-3.347-62.2,0.585-92.907,6.594c0.921,0.272,1.844,0.392,2.767,0.508c4.963,0.622,9.843,1.588,14.36,3.842     c3.691,1.842,4.224,4.341,1.637,7.512c-1.495,1.832-3.108,3.567-4.63,5.378c-7.168,8.53-13.297,17.691-17.087,28.264     c-0.196,0.547-0.34,1.114-0.65,2.144C391.731,348.563,416.541,337.627,441.952,327.974z M191.639,170.064     c0.022,0.32,0.045,0.639,0.067,0.959c-9.773,2.569-19.902,3.231-29.802,5.255c6.519-0.132,13.033-0.357,19.527-0.836     c4.658-0.344,9.288-1.059,13.938-1.536c0.782-0.08,1.602,0.211,2.405,0.33c-0.003,0.166-0.006,0.331-0.008,0.496     c-0.263,0.199-0.499,0.511-0.794,0.581c-11.649,2.786-23.52,3.527-35.443,3.788c12.744,1.008,25.415-0.161,38.246-1.075     c0-8.643,0-17.161,0-25.87c-16.615,7.049-33.382,13.106-50.573,18.003c6.206-1.281,12.398-2.61,18.469-4.36     c9.85-2.84,19.618-5.965,29.431-8.935c0.725-0.219,1.535-0.156,2.305-0.224c0.076,0.232,0.152,0.465,0.228,0.697     c-0.756,0.476-1.455,1.107-2.275,1.404c-5.955,2.152-11.919,4.279-17.911,6.326c-3.616,1.235-7.287,2.311-10.933,3.458     c0.224,0.102,0.42,0.091,0.609,0.048c9.488-2.2,18.974-4.411,28.469-6.583c0.439-0.1,0.956,0.143,1.436,0.226     c-0.356,0.353-0.697,0.723-1.076,1.049c-0.141,0.121-0.369,0.147-0.562,0.2c-8.568,2.359-17.097,4.869-25.717,7.022     c-5.977,1.493-12.077,2.493-17.724,3.633c0.068,0,0.571,0.047,1.063-0.007c6.794-0.74,13.594-1.443,20.379-2.262     c4.539-0.548,9.055-1.29,13.589-1.884C189.848,169.852,190.752,170.024,191.639,170.064z M136.033,155.731     c0-5.635,0-10.924,0-16.219c-6.43,2.84-12.601,5.565-18.772,8.29c4.345-0.844,8.65-1.837,12.961-2.805     c1.127-0.253,2.266-0.482,3.412-0.609c0.381-0.042,0.801,0.267,1.204,0.416c-0.228,0.406-0.357,0.991-0.704,1.183     c-0.78,0.433-1.652,0.724-2.515,0.98c-2.217,0.659-4.449,1.268-6.675,1.897c2.726,0.191,5.322-1.235,8.145-0.282     c-0.547,0.619-1.134,1.159-1.821,1.365c-1.681,0.504-3.4,0.893-5.12,1.255c-3.131,0.66-6.274,1.266-9.412,1.894     c0.014,0.107,0.029,0.215,0.043,0.322c6.324-0.368,12.649-0.736,19.122-1.112c-0.338,1.688-1.506,1.697-2.398,1.822     c-3.034,0.425-6.085,0.73-9.133,1.055c-1.901,0.203-3.806,0.36-5.794,0.546C124.511,155.731,130.338,155.731,136.033,155.731z"/>
			<path d="M58.215,241.613c0.719-0.051,1.439-0.151,2.157-0.144c2.048,0.021,4.1,0.028,6.141,0.177     c0.44,0.032,0.838,0.638,1.255,0.98c-0.444,0.23-0.89,0.664-1.33,0.657c-2.095-0.034-4.194-0.137-6.28-0.326     c-0.711-0.065-1.393-0.454-2.088-0.696C58.118,242.045,58.167,241.829,58.215,241.613z"/>
			<path d="M58.558,235.308c2.07-0.185,3.944-0.369,5.822-0.497c0.213-0.015,0.531,0.249,0.641,0.464     c0.066,0.128-0.172,0.6-0.285,0.604c-1.958,0.071-3.918,0.098-5.878,0.11C58.8,235.99,58.741,235.735,58.558,235.308z"/>
			<path d="M57.077,252.204c0.626-0.556,4.303-1.117,4.902-0.653c0.172,0.133,0.171,0.859-0.006,1.007     C61.146,253.249,58.124,252.977,57.077,252.204z"/>
			<path d="M62.347,257.012c-1.324,1.007-3.44,0.02-4.52-2.094C59.26,255.581,60.693,256.245,62.347,257.012z"/>
			<path d="M97.95,246.297c0.85,0,1.707-0.063,2.547,0.029c0.364,0.04,0.692,0.399,1.037,0.614c-0.293,0.289-0.58,0.822-0.88,0.829     c-1.792,0.042-3.59,0.002-5.379-0.112c-0.301-0.019-0.571-0.526-0.856-0.808c0.327-0.167,0.645-0.449,0.984-0.477     c0.844-0.069,1.697-0.023,2.547-0.023C97.95,246.332,97.95,246.314,97.95,246.297z"/>
			<path d="M92.505,233.652c1.084-0.135,2.166-0.299,3.253-0.397c1.093-0.099,2.192-0.18,3.287-0.163     c0.291,0.005,0.647,0.353,0.83,0.636c0.075,0.116-0.208,0.682-0.362,0.697c-2.339,0.23-4.688,0.507-6.998-0.068     C92.511,234.121,92.508,233.887,92.505,233.652z"/>
			<path d="M97.828,254.384c1.443-0.38,2.728-0.886,4.048-1.005c0.854-0.077,0.964,0.765,0.531,1.416     C101.738,255.802,98.893,255.704,97.828,254.384z"/>
			<path d="M394.939,343.469c-0.624,0.454-1.224,0.947-1.877,1.355c-3.356,2.093-6.709,4.191-10.109,6.21     c-0.44,0.262-1.145,0.079-1.727,0.102c0.076-0.601,0.047-1.244,0.264-1.788c0.148-0.371,0.602-0.676,0.986-0.889     c2.887-1.606,5.756-3.251,8.707-4.731c1.051-0.527,2.315-0.63,3.482-0.926C394.755,343.024,394.847,343.246,394.939,343.469z"/>
			<path d="M412.686,312.978c-1.379,0.319-2.752,0.672-4.139,0.949c-3.789,0.758-7.582,1.5-11.381,2.201     c-0.403,0.074-0.865-0.164-1.299-0.257c0.142-0.452,0.152-1.057,0.457-1.319c0.47-0.405,1.12-0.726,1.734-0.821     c4.165-0.648,8.337-1.254,12.516-1.801c0.669-0.088,1.387,0.19,2.082,0.299C412.665,312.478,412.675,312.728,412.686,312.978z"/>
			<path d="M412.484,316.906c-0.837,0.351-1.646,0.824-2.517,1.031c-3.471,0.823-6.959,1.571-10.446,2.326     c-0.386,0.084-0.828,0.135-1.194,0.03c-0.341-0.098-0.79-0.377-0.871-0.666c-0.08-0.29,0.15-0.781,0.4-1.018     c0.312-0.296,0.767-0.536,1.191-0.607c3.961-0.652,7.927-1.279,11.898-1.863c0.464-0.068,0.972,0.164,1.459,0.258     C412.431,316.567,412.457,316.737,412.484,316.906z"/>
			<path d="M400.933,335.592c-0.867,0.48-1.38,0.866-1.956,1.067c-3.018,1.049-6.044,2.075-9.089,3.04     c-0.431,0.137-0.982-0.105-1.477-0.171c0.249-0.477,0.404-1.275,0.763-1.381c3.579-1.056,7.191-2.002,10.8-2.958     C400.113,335.15,400.31,335.322,400.933,335.592z"/>
			<path d="M399.059,331.425c-0.274,0.237-0.485,0.552-0.766,0.64c-1.715,0.534-3.439,1.043-5.178,1.489     c-0.317,0.081-0.87-0.063-1.038-0.299c-0.16-0.225-0.088-0.807,0.106-1.059C393.038,331.086,397.633,330.554,399.059,331.425z"/>
			<path d="M420.166,317.364c-1.802,0.483-3.599,0.985-5.411,1.424c-0.199,0.048-0.6-0.204-0.697-0.415     c-0.091-0.198,0.012-0.603,0.177-0.779c0.657-0.701,4.887-1.16,5.85-0.68C420.112,317.064,420.139,317.214,420.166,317.364z"/>
			<path d="M421.664,310.251c-0.728,1.351-4.82,2.419-5.694,1.859c-0.163-0.105-0.085-0.964-0.031-0.973     C417.84,310.804,419.753,310.532,421.664,310.251z"/>
			<path d="M405.233,340.714c-1.517,1.366-3.402,2.043-5.351,2.573c-0.176,0.048-0.524-0.225-0.65-0.434     c-0.065-0.108,0.133-0.529,0.298-0.597c1.812-0.743,3.641-1.444,5.466-2.157C405.075,340.305,405.154,340.51,405.233,340.714z"/>
			<path d="M404.44,333.811c1.08-1.37,4.093-2.153,5.371-1.468C408.171,333.34,406.631,334.172,404.44,333.811z"/>
		</g>
	</g>
	<g>
		<path d="M269.157,155.768c15.646-4.052,30.487-9.6,43.884-18.524c6.344-4.226,12.138-9.141,17.222-14.842    c3.341-3.746,6.017-7.941,7.935-12.589c1.903-4.611,2.497-9.416,1.843-14.356c-1.338-10.108-11.09-15.496-20.374-11.304    c-3.551,1.604-6.553,3.94-9.078,6.862c-2.236,2.587-4.461,5.202-6.47,7.965c-12.008,16.515-27.463,28.975-45.207,38.812    c-8.538,4.734-17.304,9.067-26.321,12.814c-2.771,1.151-5.552,2.219-8.375,3.235c-0.549,0.198-1.115,0.406-1.532,0.814    c-0.653,0.64-0.769,1.798-0.158,2.478c0.281,0.313,0.673,0.503,1.065,0.655c2.388,0.925,5.145,0.982,7.668,1.205    c2.51,0.222,5.029,0.343,7.549,0.37c5.002,0.054,10.004-0.262,14.969-0.867C258.915,157.869,264.142,157.066,269.157,155.768z"/>
		<path d="M226.67,140.8c10.862-3.204,20.887-8.087,30.067-14.709c5.356-3.864,10.562-7.884,14.676-13.121    c3.324-4.232,5.971-8.832,7.253-14.117c0.701-2.889,0.855-5.787-0.05-8.673c-1.413-4.509-5.633-6.109-9.7-3.703    c-2.677,1.584-4.576,3.92-6.113,6.546c-2.262,3.863-4.468,7.76-6.621,11.684c-6.24,11.373-14.504,20.965-24.954,28.676    c-2.06,1.52-4.044,3.154-5.95,4.862c-0.005,0.005-0.011,0.01-0.016,0.015c-0.942,0.872-0.239,2.483,1.041,2.575    C226.518,140.851,226.605,140.826,226.67,140.8z"/>
	</g>
	<g>
		<path d="M299.971,342.491c-15.511,4.542-30.17,10.555-43.279,19.896c-6.208,4.423-11.844,9.518-16.747,15.376    c-3.221,3.849-5.764,8.126-7.535,12.832c-1.757,4.669-2.2,9.49-1.39,14.407c1.656,10.061,11.572,15.14,20.719,10.658    c3.499-1.715,6.426-4.144,8.858-7.144c2.154-2.656,4.295-5.339,6.216-8.164c11.483-16.885,26.538-29.824,43.963-40.215    c5.516-3.289,11.135-6.409,16.868-9.305c5.602-2.83,11.359-5.773,17.315-7.789c0.439-0.149,0.891-0.296,1.255-0.582    c0.481-0.378,0.767-0.99,0.749-1.601c-0.018-0.611-0.34-1.206-0.843-1.554c-0.358-0.248-0.786-0.37-1.21-0.468    c-7.104-1.648-15.247-1.12-22.444-0.451C314.936,339.087,307.239,340.363,299.971,342.491z"/>
		<path d="M342.877,356.18c-0.051,0.008-0.102,0.016-0.152,0.025c-1.22,0.215-2.315,0.804-3.462,1.239    c-2.117,0.802-4.225,1.633-6.296,2.549c-0.684,0.303-1.365,0.614-2.04,0.937c-3.718,1.778-7.325,3.79-10.79,6.022    c-1.166,0.751-2.317,1.527-3.451,2.327c-0.578,0.407-1.151,0.821-1.719,1.241c-0.285,0.21-0.569,0.422-0.852,0.636    c-0.152,0.115-0.618,0.607-0.797,0.607c-5.232,4.03-10.309,8.212-14.256,13.576c-3.189,4.335-5.69,9.015-6.805,14.338    c-0.607,2.898-0.672,5.788,0.311,8.633c1.535,4.446,5.849,5.953,9.822,3.43c2.626-1.667,4.451-4.062,5.905-6.735    c2.139-3.932,4.221-7.897,6.25-11.887c5.879-11.563,13.837-21.411,24.039-29.447c1.348-1.062,2.672-2.163,3.943-3.318    c1.122-1.02,2.206-2.167,2.742-3.613c0.027-0.073,0.052-0.156,0.018-0.226c-0.03-0.061-0.097-0.093-0.161-0.119    C344.42,356.108,343.633,356.069,342.877,356.18z"/>
	</g>
</g>















</svg>
