<?xml version="1.0" encoding="iso-8859-1"?>
<!-- Generator: Adobe Illustrator 26.5.3, SVG Export Plug-In . SVG Version: 6.00 Build 0)  -->
<svg xmlns="http://www.w3.org/2000/svg" xmlns:xlink="http://www.w3.org/1999/xlink" version="1.1" id="Capa_1" x="0px" y="0px" viewBox="0 0 512 512" style="enable-background:new 0 0 512 512;" xml:space="preserve">
<g>
	<path d="M109.015,265.45c-28.52,0-52.829,0.013-77.137-0.017c-3.041-0.004-6.083-0.225-9.123-0.375   c-3.515-0.174-5.924-2.327-6.647-5.88c-2.423-11.901,6.14-22.666,18.243-22.769c0.508-0.004,1.015-0.008,1.523-0.008   c3.835-0.004,4.064,0.003,4.178-3.892c0.242-8.227,4.593-13.836,10.966-18.349c5.504-3.898,11.718-5.351,18.316-5.431   c1.735-0.021,2.479-0.482,2.638-2.302c0.54-6.179,1.983-12.092,4.997-17.624c3.282-6.024,7.869-10.703,13.632-14.284   c1.176-0.731,1.795-1.514,1.974-2.949c1.057-8.467,4.607-16.04,8.604-23.443c5.044-9.343,10.57-18.366,17.511-26.454   c9.927-11.566,21.768-20.676,35.339-27.569c23.539-11.956,48.458-19.408,74.588-22.98c10.07-1.377,20.175-2.425,30.325-2.476   c19.166-0.097,38.097,2.236,56.814,6.335c22.404,4.907,43.425,13.173,62.672,25.765c15.829,10.356,28.662,23.71,39.614,39.044   c10.586,14.822,16.786,31.492,21.263,48.931c0.501,1.951,0.619,4.005,0.855,6.018c0.109,0.935,0.555,1.426,1.423,1.791   c14.708,6.177,21.017,18.098,22.594,33.208c0.369,3.535,0.469,7.093,0.329,10.644c-0.059,1.506,0.493,2.251,1.921,2.791   c7.405,2.803,11.023,10.07,9,17.712c-0.465,1.755-1.368,2.353-3.229,2.428c-14.972,0.609-29.949,0.136-44.922,0.331   c-46.008,0.597-92.019,0.376-138.029,0.318c-0.761-0.001-1.523-0.027-2.283-0.07c-3.93-0.226-5.468-1.753-5.888-5.883   c-1.907-18.763,11.409-31.986,26.63-34.108c3.195-0.445,6.333-0.222,9.476,0.161c1.341,0.164,1.975-0.104,2.227-1.518   c1.554-8.718,5.517-16.146,12.121-22.097c0.868-0.783,0.697-1.457,0.254-2.338c-2.184-4.341-5.483-7.747-9.065-10.917   c-15.221-13.471-33.286-20.158-53.28-21.876c-14.812-1.272-29.538-0.598-43.98,3.434c-14.631,4.085-27.31,11.447-37.851,22.407   c-3.584,3.727-6.564,7.895-8.698,12.643c-0.428,0.951-0.53,1.574,0.527,2.178c7.24,4.134,10.215,10.961,11.713,18.706   c0.24,1.243,0.292,2.6,0.856,3.684c0.763,1.469,2.303,0.373,3.478,0.533c8.183,1.115,13.56,5.658,16.277,13.324   c1.739,4.907,2.224,9.996,1.492,15.2c-0.325,2.307-1.285,4.374-2.076,6.5c-0.478,1.284-1.86,1.137-2.994,1.143   c-8.378,0.044-16.759-0.062-25.133,0.129C156.966,265.791,130.883,265.189,109.015,265.45z M199.825,260.871c0,0.11,0,0.22,0,0.33   c1.967,0,3.936-0.06,5.9,0.021c1.38,0.057,2.039-0.327,2.205-1.848c0.453-4.133,0.323-8.198-0.403-12.305   c-1.192-6.741-7.481-13.05-15.435-12.425c-3.571,0.281-4.706-0.932-5.246-4.551c-0.591-3.962-1.374-7.848-3.098-11.526   c-4.328-9.239-16.528-13.072-25.3-7.878c-1.363,0.807-2.704,1.689-4.155,2.3c-2.262,0.954-4.185,0.026-5.004-2.282   c-0.381-1.073-0.686-2.182-0.92-3.297c-1.843-8.8-5.482-16.552-12.514-22.506c-6.252-5.294-13.184-9.149-21.412-9.924   c-16.904-1.592-32.2,9.423-36.235,25.898c-0.708,2.891-1.102,5.857-1.704,8.776c-0.558,2.706-1.723,3.799-4.423,4.243   c-0.873,0.144-1.765,0.179-2.649,0.255c-4.317,0.37-8.603,0.918-12.463,3.077c-6.495,3.632-11.509,8.349-11.828,16.456   c-0.062,1.578-0.254,3.165-0.55,4.717c-0.444,2.333-1.705,3.362-4.061,3.515c-2.024,0.131-4.056,0.408-6.073,0.326   c-6.852-0.28-14.565,7.556-13.61,14.275c0.168,1.181,0.11,2.418-0.022,3.609c-0.121,1.096,0.223,1.234,1.241,1.171   c3.035-0.187,6.064-0.451,9.116-0.449C87.397,260.878,143.611,260.871,199.825,260.871z M329.35,258.841c0,0.017,0,0.034,0,0.051   c15.796,0,31.591-0.074,47.386,0.019c19.034,0.112,38.069-0.132,57.104,0.295c12.053,0.27,24.115,0.129,36.172,0.205   c0.846,0.005,1.341-0.13,1.368-1.078c0.056-1.921,0-3.787-1.114-5.493c-1.694-2.594-3.918-4.402-6.906-5.361   c-2.91-0.934-3.753-2.293-3.841-5.369c-0.099-3.485-0.182-6.972-0.395-10.451c-0.504-8.237-3.339-15.555-8.703-21.885   c-7.799-9.203-20.148-12.153-30.908-5.152c-3.549,2.309-6.564,5.171-9.462,8.208c-3.493,3.66-6.032,3.742-9.8,0.356   c-2.925-2.629-5.758-5.363-8.731-7.936c-11.867-10.27-25.413-13.725-40.564-9.279c-10.787,3.165-19.327,9.422-24.331,19.825   c-1.322,2.748-2.303,5.627-3.009,8.608c-0.829,3.5-2.179,4.504-5.761,4.501c-2.348-0.002-4.697-0.006-7.044-0.047   c-5.784-0.1-10.754,2.009-15.277,5.466c-7.733,5.91-10.283,14.144-10.651,23.395c-0.044,1.109,0.368,1.384,1.462,1.324   c3.668-0.199,7.338-0.277,11.019-0.24C308.025,258.91,318.688,258.841,329.35,258.841z M260.817,73.851   c-14.668,0.305-26.64,1.586-38.537,3.629c-26.254,4.508-51.2,12.691-74.119,26.505c-9.519,5.738-17.978,12.769-25.333,21.131   c-7.048,8.012-12.634,16.998-17.646,26.356c-3.114,5.816-6.154,11.688-7.929,18.099c-0.127,0.459-0.555,0.965-0.14,1.424   c0.293,0.326,0.721,0.045,1.063-0.077c5.704-2.038,11.578-2.761,17.602-2.255c1.32,0.111,1.906-0.397,2.244-1.693   c1-3.827,2.642-7.406,4.631-10.816c4.717-8.089,11.055-14.815,17.838-21.173c16.124-15.113,34.659-26.232,55.566-33.324   c18.788-6.373,38.218-9.046,57.993-9.473c11.95-0.258,23.833,0.653,35.672,2.211c19.958,2.626,39.161,7.784,57.248,16.832   c11.129,5.568,21.533,12.174,30.695,20.628c12.046,11.116,21.034,24.523,28.638,38.896c4.49,8.488,7.594,17.581,10.768,26.622   c0.475,1.352,0.932,1.697,2.27,0.948c4.838-2.708,10.06-3.809,15.582-3.299c1.226,0.113,1.252-0.291,0.959-1.256   c-1.197-3.946-2.249-7.937-3.532-11.854c-4.278-13.063-9.303-25.764-17.383-37.073c-7.926-11.093-16.518-21.564-27.118-30.228   c-16.414-13.416-34.902-23.05-55.01-29.568C308.603,77.187,283.639,73.993,260.817,73.851z M256.355,97.078   c-12.022-0.046-23.943,0.868-35.775,3.078c-17.769,3.32-34.491,9.477-50.084,18.55c-14.085,8.195-26.546,18.459-37.195,30.833   c-4.783,5.557-8.694,11.702-11.684,18.42c-0.479,1.077-0.501,1.719,0.808,2.124c4.889,1.513,9.379,3.848,13.515,6.849   c1.03,0.747,1.451,0.568,1.874-0.606c1.291-3.596,3.049-6.985,5.094-10.197c6.558-10.301,14.967-18.823,24.963-25.824   c13.686-9.585,28.438-16.89,44.613-21.252c10.949-2.953,22.104-4.475,33.394-5.302c11.545-0.846,23.073-0.771,34.548,0.622   c15.034,1.826,29.702,5.316,43.984,10.421c20.319,7.263,37.936,18.438,51.48,35.475c5.019,6.314,9.585,12.97,12.806,20.421   c2.423,5.604,4.108,11.46,5.529,17.392c0.236,0.984,0.473,1.948,1.259,2.712c2.912,2.829,5.806,5.679,8.663,8.564   c0.766,0.774,1.386,0.79,2.049-0.023c2.173-2.665,4.629-5.046,7.264-7.247c0.631-0.527,0.704-1.139,0.343-1.867   c-2.539-5.13-4.162-10.626-6.365-15.893c-3.91-9.346-8.841-18.102-14.467-26.515c-4.996-7.472-10.599-14.438-17.093-20.608   c-14.62-13.891-32.071-23.056-50.999-29.501C302.68,100.146,279.726,97.195,256.355,97.078z M149.591,193.318   c0.61-0.143,0.666-0.567,0.83-0.888c3.395-6.661,7.766-12.639,12.778-18.158c7.999-8.809,17.667-15.404,28.109-20.919   c11.511-6.08,23.748-10.261,36.355-13.353c10.491-2.573,21.124-4.408,31.942-4.774c12.326-0.417,24.437,1.125,36.295,4.548   c14.476,4.178,28.368,9.691,40.568,18.729c10.325,7.649,19.661,16.27,25.003,28.35c0.474,1.072,1.207,1.267,2.248,1.306   c8.367,0.312,16.339,2.081,23.57,6.521c0.354,0.217,0.762,0.662,1.173,0.235c0.412-0.427,0.094-0.966-0.053-1.437   c-2.03-6.498-4.543-12.751-8.167-18.583c-9.396-15.12-21.624-27.266-37.048-36.194c-9.28-5.372-19.146-9.323-29.388-12.401   c-15.184-4.563-30.633-7.783-46.497-8.505c-16.055-0.73-31.977,0.702-47.594,4.511c-25.405,6.196-47.761,17.938-65.718,37.298   c-5.429,5.853-9.694,12.532-13.132,19.737c-0.277,0.579-0.64,1.113-0.045,1.723C144.375,184.71,147.442,188.717,149.591,193.318z    M151.625,198.764c0.544,2.411,1.117,4.815,1.621,7.234c0.241,1.158,0.658,1.317,1.646,0.64c5.544-3.799,11.575-4.979,18.106-3.18   c1.156,0.318,1.737,0.014,2.085-1.18c1.581-5.427,4.706-9.981,8.506-14.033c11.721-12.499,25.965-20.79,42.574-24.965   c13.971-3.512,28.132-4.365,42.478-3.048c18.18,1.67,35.049,6.995,49.959,17.713c6.623,4.761,12.747,10.126,15.825,18.061   c0.658,1.697,1.496,0.953,2.468,0.348c5.935-3.69,12.322-6.274,19.219-7.436c1.786-0.301,1.556-0.802,0.844-2.005   c-4.511-7.63-10.454-14.032-17.11-19.776c-9.569-8.258-20.533-14.13-32.309-18.623c-14.428-5.504-29.288-8.704-44.759-8.644   c-7.364,0.028-14.681,0.884-21.922,2.254c-19.655,3.717-38.392,9.846-55.627,20.313c-14.03,8.521-24.714,20.075-32.785,34.217   C152.068,197.312,151.65,197.963,151.625,198.764z"/>
	<g>
		<path d="M130.435,426.073c-0.151-2.778,0.687-5.52,2.412-7.999c0.585-0.841,1.288-1.57,2.15-2.133    c2.542-1.66,5.005-1.13,6.346,1.588c2.889,5.856,7.3,9.503,13.97,10.008c3.112,0.236,6.203,0.079,9.272-0.597    c8.724-1.923,16.906-5.404,25.164-8.671c12.272-4.855,24.489-9.894,37.507-12.502c10.548-2.113,21.162-2.903,31.707-0.233    c9.368,2.371,16.776,7.548,20.79,16.636c2.667,6.037,2.174,12.014-1.508,17.58c-1.086,1.641-2.822,2.546-4.625,3.207    c-2.923,1.071-4.883-0.038-5.342-3.139c-0.688-4.638-1.909-9.105-4.476-13.043c-5.074-7.781-12.502-11.824-21.573-13.097    c-9.017-1.266-17.682,0.542-26.257,3.039c-10.412,3.031-20.062,7.866-29.764,12.595c-7.925,3.863-15.814,7.87-24.364,10.217    c-5.572,1.529-11.221,2.636-17.091,1.975c-6.744-0.759-11.964-4.779-13.822-10.851    C130.497,429.233,130.433,427.785,130.435,426.073z"/>
		<g>
			<path d="M66.614,357.318c3.129,0.788,5.732,1.502,8.22,2.617c7.114,3.188,11.163,9.136,14.498,15.777     c3.178,6.33,4.894,13.196,7.311,19.805c1.156,3.163,2.514,6.237,4.052,9.231c0.375,0.73,0.826,1.434,1.33,2.082     c3.393,4.366,7.088,4.473,10.806,0.382c3.708-4.08,5.566-9.046,6.804-14.277c0.89-3.764,1.565-7.578,2.333-11.371     c0.207-1.025,0.218-1.958-0.601-2.825c-4.04-4.28-5.64-9.623-6.046-15.279c-0.996-13.889,2.46-26.69,10.167-38.276     c3.31-4.976,7.614-8.797,13.585-10.437c9.466-2.601,17.229,1.428,20.501,10.752c0.417,1.187,0.741,2.407,1.252,4.083     c0.415-1.202,0.686-1.998,0.965-2.791c1.023-2.9,2.299-3.72,5.292-3.432c2.334,0.225,4.669,0.441,7.005,0.647     c2.29,0.203,3.294,1.431,2.841,3.732c-0.268,1.362-0.833,2.664-1.178,4.014c-3.66,14.336-6.941,28.743-7.757,43.584     c-0.197,3.581,0.149,7.109,1.527,10.463c1.383,3.368,3.476,4.119,6.617,2.303c2.907-1.681,4.654-4.462,6.321-7.227     c3.972-6.592,7.004-13.654,10.085-20.686c0.891-2.034,1.621-4.142,2.592-6.135c3.352-6.887,3.544-14.482,5.02-21.791     c0.602-2.982,1.256-5.964,2.095-8.887c1.016-3.542,2.112-4.249,5.73-4.27c1.65-0.01,3.3-0.076,4.95-0.061     c2.328,0.021,3.251,0.881,3.303,3.202c0.023,1.001-0.108,2.037-0.361,3.007c-3.295,12.648-4.591,25.564-5.421,38.566     c-0.353,5.523-0.244,11.034-0.293,16.551c-0.018,2.07,0.439,4.025,1.597,5.787c0.777,1.183,1.733,1.352,2.93,0.659     c1.072-0.621,1.847-1.535,2.596-2.484c3.534-4.47,5.281-9.806,7.186-15.044c2.671-7.347,4.215-15.007,5.997-22.596     c0.355-1.512-0.032-3.034-0.162-4.546c-0.343-3.98-0.663-7.964-1.093-11.935c-0.219-2.015,0.153-3.92,0.715-5.805     c0.39-1.306,1.403-2.107,2.645-2.557c2.507-0.907,5.051-1.715,7.689-2.139c2.202-0.354,3.823,0.662,4.174,2.869     c0.417,2.622,0.604,5.288,0.748,7.943c0.344,6.328,0.605,12.66,0.92,19.438c1.149-4.383,1.969-8.416,3.461-12.257     c3.168-8.156,7.719-15.342,15.081-20.306c5.888-3.97,12.29-5.867,19.235-2.714c5.346,2.427,8.106,6.93,9.351,12.457     c1.572,6.98,0.551,13.881-0.812,20.76c-2.097,10.582-5.128,20.956-7.009,31.586c-0.681,3.845-0.896,7.683-0.181,11.543     c0.069,0.374,0.122,0.753,0.219,1.12c0.706,2.693,1.88,5.205,4.791,5.888c2.64,0.619,4.529-1.235,6.225-2.976     c2.929-3.006,4.762-6.702,6.386-10.514c0.075-0.175,0.122-0.363,0.207-0.532c2.729-5.385,3.463-11.066,3.486-17.104     c0.051-13.061,0.498-26.128,1.116-39.177c0.666-14.059,1.642-28.105,3.683-42.05c0.147-1,0.366-1.999,0.658-2.967     c0.502-1.666,1.611-2.705,3.388-2.916c2.771-0.328,5.537-0.747,8.317-0.931c2.897-0.192,4.594,1.583,4.628,4.512     c0.019,1.606-0.346,3.15-0.691,4.696c-1.869,8.379-2.578,16.92-3.506,25.426c-0.949,8.694-1.79,17.401-2.576,26.111     c-0.437,4.843-0.668,9.705-0.813,14.621c2.068-3.844,4.504-7.32,7.765-10.201c7.783-6.877,17.171-7.323,24.114-1.036     c3.009,2.725,5.23,6.035,6.807,9.762c1.389,3.283,1.362,3.335,4.77,2.299c4.388-1.334,8.928-1.914,13.405-2.811     c1.091-0.219,1.51-0.488,0.598-1.534c-6.413-7.355-6.756-15.525-3.12-24.179c3.053-7.268,8.226-12.402,15.589-15.283     c9.176-3.59,18.686-0.631,24.302,7.531c4.04,5.872,5.601,12.578,6.552,19.479c0.259,1.88,0.328,3.789,0.42,5.689     c0.064,1.31,0.588,1.431,1.508,0.684c3.005-2.439,6.062-4.82,8.609-7.768c0.686-0.794,1.009-1.723,1.23-2.738     c1.335-6.14,2.865-12.231,4.887-18.187c2.068-6.092,2.98-6.695,9.365-6.31c1.771,0.107,3.54,0.246,5.312,0.35     c2.66,0.157,3.915,1.834,3.054,4.415c-2.839,8.514-4.652,17.276-6.246,26.076c-1.9,10.492-3.409,21.04-2.95,31.763     c0.113,2.635,0.61,5.159,1.878,7.498c1.809,3.336,3.824,3.66,6.397,0.929c3.344-3.549,5.121-7.991,6.751-12.467     c1.931-5.305,3.75-10.655,5.189-16.12c1.104-4.191,0.924-8.56,1.703-12.803c0.677-3.69,1.458-7.349,2.772-10.867     c1.203-3.22,2.809-4.094,6.194-3.513c2.374,0.408,4.716,0.96,7.128,1.192c2.452,0.236,3.67,1.968,3.266,4.646     c-0.643,4.264-1.558,8.489-2.142,12.76c-1.127,8.236-1.917,16.516-1.715,24.837c0.105,4.311,0.794,8.589,2.053,12.741     c0.616,2.03,1.535,3.9,3.169,5.331c1.867,1.635,3.252,1.637,4.958-0.147c2.502-2.618,4.021-5.826,5.269-9.179     c2.909-7.816,3.969-15.985,4.546-24.23c0.815-11.641-2.076-22.679-5.966-33.461c-2.638-7.312-7.532-12.874-14.674-16.245     c-3.086-1.457-6.392-2.08-9.776-2.199c-2.535-0.089-5.076,0.032-7.614,0.01c-1.288-0.011-2.371-0.508-2.931-1.751     c-0.547-1.214-0.346-2.379,0.495-3.386c9.812-11.736,22.745-12.284,33.352-3.449c7.647,6.369,10.898,15.149,12.861,24.457     c3.296,15.635,2.464,31.293-0.499,46.882c-1.605,8.443-3.881,16.698-8.023,24.306c-1.885,3.462-3.991,6.805-7.22,9.222     c-5.21,3.901-11.415,3.5-16.099-1.036c-4.985-4.827-7.355-11.024-8.955-17.565c-0.706-2.886-1.075-5.855-1.671-9.203     c-0.744,1.852-1.335,3.383-1.971,4.896c-2.003,4.759-4.366,9.297-7.845,13.189c-2.448,2.738-5.349,4.695-8.993,5.33     c-4.551,0.793-8.242-0.882-11.129-4.347c-4.648-5.578-6.508-12.237-7.289-19.295c-0.831-7.51,0.161-14.935,1.024-22.366     c0.044-0.378,0.09-0.757,0.092-1.136c0.001-0.166-0.107-0.333-0.212-0.633c-2.431,1.655-4.156,3.986-6.388,5.698     c-2.032,1.559-2.72,3.337-2.934,5.911c-0.938,11.312-3.889,22.103-9.498,32.053c-2.717,4.82-6.162,9.034-11.115,11.726     c-6.467,3.515-12.688,2.606-17.987-2.479c-5.572-5.347-7.923-12.115-8.556-19.601c-0.566-6.688,0.458-13.164,2.965-19.388     c0.523-1.299,0.216-1.618-1.08-1.303c-4.256,1.035-8.453,2.268-12.621,3.615c-1.638,0.529-1.444,1.726-1.251,2.927     c0.647,4.026,0.825,8.078,0.676,12.143c-0.436,11.821-3.203,22.987-9.733,32.987c-4.11,6.294-9.301,11.42-16.687,13.788     c-10.629,3.408-19.627-2.575-20.092-13.753c-0.517-12.462,3.154-23.492,12.317-32.419c4.92-4.793,9.847-9.534,15.814-13.037     c0.717-0.421,1.173-0.952,0.995-1.852c-0.504-2.552-0.921-5.135-2.157-7.469c-2.664-5.029-6.925-6.099-11.502-2.701     c-6.018,4.468-9.611,10.419-10.853,17.896c-1.082,6.513-1.953,13.04-2.611,19.605c-0.407,4.059-4.987,6.841-8.891,5.499     c-1.486-0.511-2.185-1.671-2.486-3.115c-0.214-1.026-0.357-2.067-0.624-3.648c-1.956,4.257-4.166,7.734-6.854,10.839     c-5.336,6.162-12.765,9.761-20.063,7.041c-6.765-2.522-10.381-7.876-11.868-14.749c-1.49-6.89-0.927-13.747,0.541-20.577     c2.137-9.943,5.239-19.607,8.323-29.279c1.196-3.751,2.076-7.585,2.716-11.473c0.315-1.92,0.141-3.814-0.363-5.658     c-0.904-3.306-3.109-4.564-6.378-3.509c-3.835,1.238-6.933,3.659-9.607,6.614c-8.901,9.838-12.496,21.856-14.179,34.655     c-0.927,7.05-1.205,14.144-1.504,21.239c-0.131,3.11-0.828,3.946-3.83,4.809c-0.305,0.088-0.614,0.161-0.923,0.233     c-4.722,1.092-6.772,0.485-7.789-4.769c-1.535-7.93-2.385-15.93-3.239-23.94c-0.098-0.924-0.055-1.87-0.495-2.891     c-1.064,4.251-1.988,8.393-3.146,12.468c-1.634,5.75-3.826,11.3-6.706,16.55c-1.443,2.631-3.267,4.983-5.622,6.888     c-3.974,3.214-8.288,3.093-12.003-0.459c-3.231-3.09-4.892-7.077-5.93-11.314c-1.122-4.578-1.379-9.273-1.471-13.972     c-0.026-1.309-0.004-2.618-0.323-4c-0.733,1.792-1.406,3.611-2.21,5.37c-3.137,6.872-6.282,13.742-11,19.737     c-1.42,1.805-3.005,3.456-4.76,4.915c-6.518,5.419-14.136,3.944-18.189-3.559c-2.829-5.239-3.976-10.955-4.208-16.846     c-0.141-3.581-0.026-7.172-0.189-10.785c-2.36,4.24-4.449,8.58-7.463,12.338c-2.842,3.544-6.101,6.627-10.427,8.352     c-3.434,1.369-6.899,1.65-10.386,0.26c-1.208-0.482-1.735-0.428-1.974,1.106c-0.908,5.827-1.897,11.652-3.793,17.26     c-1.885,5.577-4.176,10.895-9.211,14.524c-8.09,5.832-17.962,4.505-24.242-3.235c-4.176-5.147-6.615-11.066-8.245-17.399     c-1.739-6.755-3.214-13.59-6.197-19.963c-1.533-3.274-3.704-6.059-6.369-8.457c-3.936-3.542-8.5-3.827-13.383-2.496     c-1.922,0.524-2.691,1.579-2.432,3.599c0.743,5.788,1.434,11.584,2.052,17.387c0.894,8.387,1.872,16.77,2.146,25.208     c0.146,4.514-3.483,6.956-7.777,5.346c-1.616-0.605-2.284-1.911-2.613-3.479c-0.941-4.478-1.408-9.023-1.881-13.565     c-1.479-14.191-2.569-28.423-4.459-42.572c-1.319-9.871-2.596-19.747-3.864-29.624c-0.746-5.811,0.055-6.971,5.7-8.509     c4.028-1.097,5.51-0.128,6.044,4.053c1.312,10.255,2.165,20.557,3.172,30.843c0.533,5.45-0.114,5.199,4.919,3.254     c12.501-4.831,22.883-12.389,27.632-25.485c3.703-10.213,3.643-20.493-2.809-29.886c-4.124-6.004-9.876-9.343-17.274-9.616     c-12.242-0.453-22.679,4.022-31.966,11.658c-6.995,5.751-12.252,12.736-14.433,21.625c-3.069,12.508-1.962,24.569,4.711,35.84     c0.742,1.253,1.615,2.428,2.418,3.646c0.98,1.487,0.904,2.928-0.451,4.098c-1.774,1.532-3.583,3.041-5.495,4.391     c-1.713,1.21-3.458,0.393-5.007-0.494c-3.766-2.157-6.482-5.328-8.052-9.343c-7.36-18.818-4.862-36.473,7.727-52.084     c12.781-15.849,29.726-24.64,50.185-26.119c5.34-0.386,10.631,0.301,15.806,1.819c8.706,2.554,13.751,8.673,16.691,16.892     c3.606,10.08,2.534,19.867-2.005,29.373C87.461,342.854,79.37,350.49,69.146,356C68.482,356.359,67.807,356.698,66.614,357.318z      M128.615,362.364c-0.057,3.207,0.324,6.353,1.361,9.381c1.673,4.884,5.479,6.229,9.686,3.356     c4.772-3.259,8.167-7.738,10.814-12.81c4.058-7.776,6.05-16.119,6.595-24.821c0.256-4.097-0.23-8.11-2.167-11.833     c-1.192-2.292-3.006-3.462-5.651-3.471c-2.159-0.008-3.995,0.73-5.587,2.061c-3.763,3.147-6.517,7.057-8.474,11.542     C131.486,344.261,128.822,353.012,128.615,362.364z M396.754,395.309c1.084,0.037,2.078-0.111,3.006-0.583     c2.609-1.329,4.566-3.36,6.232-5.723c6.514-9.241,8.57-19.885,9.737-30.814c0.125-1.171-0.267-1.459-1.408-1.058     c-4.443,1.558-9,2.701-13.724,2.758c-1.8,0.022-2.755,0.705-3.551,2.2c-3.439,6.462-5.514,13.332-6.234,20.599     c-0.322,3.252-0.058,6.467,1.5,9.443C393.265,393.951,394.452,395.467,396.754,395.309z M346.408,374.362     c0-0.761,0.019-1.523-0.007-2.284c-0.016-0.491,0.198-1.13-0.27-1.424c-0.614-0.385-1.034,0.274-1.474,0.568     c-3.931,2.622-7.397,5.791-10.495,9.334c-5.239,5.992-9.393,12.614-11.235,20.479c-0.923,3.943,0,7.572,2.207,10.861     c1.625,2.423,4.624,3.118,7.259,1.838c1.38-0.67,2.583-1.602,3.624-2.738c2.434-2.659,4.097-5.781,5.464-9.082     C345.134,393.09,346.101,383.785,346.408,374.362z M416.122,344.342c-0.384-5.053-1.186-11.001-4.31-16.362     c-3.287-5.641-8.975-7.5-14.025-4.607c-5.349,3.066-8.993,11.691-7.556,17.693c0.302,1.262,0.756,1.536,1.952,1.033     c4.483-1.887,8.737-0.711,12.823,1.258c2.365,1.14,2.827,3.352,1.452,5.601c-0.263,0.43-0.623,0.801-0.897,1.225     c-0.288,0.444-1.096,0.783-0.677,1.391c0.336,0.487,1.074,0.227,1.622,0.15c2.205-0.309,4.338-0.904,6.422-1.689     C416.223,348.795,416.226,348.804,416.122,344.342z"/>
			<path d="M216.311,306.547c0.027,3.562-2.571,6.447-5.854,6.5c-3.298,0.054-6.496-3.267-6.473-6.722     c0.023-3.391,2.645-5.927,6.131-5.931C213.516,300.391,216.286,303.141,216.311,306.547z"/>
		</g>
	</g>
</g>
<g>
</g>
<g>
</g>
<g>
</g>
<g>
</g>
<g>
</g>
<g>
</g>
<g>
</g>
<g>
</g>
<g>
</g>
<g>
</g>
<g>
</g>
<g>
</g>
<g>
</g>
<g>
</g>
<g>
</g>
</svg>
