<svg id="Layer_1" enable-background="new 0 0 512 512" viewBox="0 0 512 512" xmlns="http://www.w3.org/2000/svg"><path d="m290 181.3c9.3-.2 18.6-.2 27.8.8 1.2.1 3.6-.1 3.3 1.1-1.3 5.1 2.7 3.8 4.9 4.6 2.8 1 2.6 2.9 1.7 5.2-2.2 5.5-5.2 10.5-9 15-1.4 1.7-1.6 3.2-1.2 5.4 9.4 46.6 22.1 92.5 32.3 138.9 2.4 11-.2 21.8-6.9 31.3-1.4 1.9-3.1 3.5-5.2 4.3-9.8 3.6-17.1 10.8-25 17.1-9.1 7.3-20 11.6-30.5 16.2-6.6 2.9-14.1 1.8-21.1-.4-11.7-3.6-22.3-9.5-32.5-16.1-2.5-1.6-4.2-3.9-5.2-6.7-6.9-20.2-8.4-40.4.6-60.5 11-24.6 23.4-48.6 32.5-74 2.9-8.2 2.6-16.9 2.4-25.5-.1-2.5-2.9-2.3-4.2-3.5-8.6-7.1-7.7-16.1-5.6-25.4.6-2.9 2.4-5.4 1.2-8.6-.9-2.3 1.5-2.2 2.7-2.9 1.3-.8 3.6 0 3.9-2.6.3-2.3-1.6-2.8-2.8-3.8-1.6-1.4-5.1-2-4.5-4.5.6-2.4 3.8-2.6 6.1-3.3 10.1-2.8 20.4-1.8 30.6-2 1.4-.1 2.5-.1 3.7-.1z" fill="#ff4d3d"/><path d="m389.1 263.9c-10.3 0-20.6-.1-30.9.1-3.1 0-4.3-.8-4.2-4.1.2-8.6.2-17.1 0-25.7-.1-3 1-3.9 4-3.9 20.9.1 41.7 0 62.6.1 9.7.1 16.8 7.5 16.8 16.9 0 9.5-7.1 16.5-17 16.6-10.4.1-20.8 0-31.3 0z" fill="#ff4d3d"/><path d="m387.4 212.1c-9.7 0-19.4-.1-29.1.1-3.1.1-4.3-.7-4.2-4.1.2-8.6.2-17.1 0-25.7 0-3 1-4 4-4 19.8.1 39.7-.1 59.5.1 9.4.1 16.4 7.6 16.4 16.9-.1 9.3-7.1 16.5-16.6 16.7-10 .1-20 0-30 0z" fill="#ff4d3d"/><path d="m387.1 106.4c-9.4 0-18.8-.1-28.3.1-3.4.1-4.9-.7-4.7-4.5.3-8.4.2-16.9 0-25.3-.1-3 1-4 4-4 19.4.1 38.8-.1 58.2.1 9.6.1 16.7 7.6 16.6 17.1-.1 9.2-7.3 16.4-16.7 16.5-9.7.2-19.4 0-29.1 0z" fill="#ff4d3d"/><path d="m386 158.8c-9.1 0-18.3-.1-27.4 0-3.2.1-4.6-.6-4.5-4.2.2-8.6.2-17.1 0-25.7 0-2.8.9-3.8 3.7-3.8 18.7.1 37.4-.1 56.1.1 9.8.1 16.9 7.4 16.9 16.8 0 9.3-7.2 16.6-17 16.8-9.2.1-18.5 0-27.8 0z" fill="#ff4d3d"/><g fill="#fab03c"><path d="m210.2 176.2c0 21.4-.1 42.9.1 64.3 0 3.3-.6 4.7-4.3 5-53.2 4.6-81.8-43.7-76-79 5-29.9 29.2-59.5 66.4-59.9 3.4 0 6.9.2 10.3.1 3.3-.1 3.6 1.7 3.6 4.4-.1 19 0 38 0 57-.1 2.6-.1 5.3-.1 8.1z"/><path d="m100.3 169.1c6 0 12-.1 17.9 0 4.4.1 7.3 2.9 7.3 6.8.1 3.8-2.8 6.9-7.1 7-12.1.3-24.2.5-36.3.5-4.9 0-7.5-2.8-7.6-7.4-.1-4.7 2.8-7.5 7.8-7.6 6-.1 12 0 17.9 0 .1.3.1.5.1.7z"/><path d="m165.9 106c-.1 3-1.5 5.4-4.6 6.4-2.9 1-6 .6-7.7-2.2-6.8-11.1-13.5-22.2-20-33.5-1.9-3.4-.2-7 3.4-9 3.7-2 7.2-1.5 9.5 1.8 1.9 2.8 3.4 5.9 5.1 8.9 4.2 7.6 8.4 15.2 12.7 22.9.8 1.5 1.5 2.9 1.6 4.7z"/><path d="m141.1 285.2c-6.2.1-9.9-5.9-6.8-11.3 6.1-10.5 12.4-20.9 18.7-31.3 2.3-3.7 5.8-4.6 9.2-2.8 3.5 1.9 4.8 5.6 2.7 9.5-5.9 10.9-11.9 21.7-17.9 32.4-1.3 2.3-3.2 3.6-5.9 3.5z"/><path d="m134.5 217.4c.1 2.5-1 4.5-3.1 5.8-6.5 3.9-13 7.8-19.7 11.3-3.7 2-7.4.7-9.3-2.6-1.8-3.3-1-7 2.7-9.2 6.4-4 13-7.8 19.7-11.3 4.5-2.4 9.6 1 9.7 6z"/><path d="m134.5 134.5c0 5-5 8.6-9.6 6.3-7-3.5-13.9-7.3-20.3-11.8-3-2.2-3.9-5.2-2.1-8.7 1.7-3.2 5.2-4.6 8.8-2.9 7.3 3.4 14 7.6 20.8 11.9 1.6 1.1 2.4 3 2.4 5.2z"/><path d="m206.3 269.8c0 3.7.2 7.4-.1 11.1-.3 4.5-3.2 7.1-7.1 6.9-3.8-.2-6.4-2.7-6.5-7.1-.2-7.3-.2-14.6 0-21.9.1-4.1 3-6.9 6.7-6.9 3.7-.1 6.7 2.6 7 6.7.2 3.8 0 7.5 0 11.2z"/><path d="m206.4 82.4c0 3.3.1 6.6 0 9.9-.2 4.8-2.9 7.6-6.9 7.7-4.1 0-6.8-2.8-6.9-7.6-.1-6.9-.1-13.7 0-20.6.1-4.9 2.8-7.7 6.8-7.8 3.9 0 6.6 2.9 7 7.7 0 .4.1.9.1 1.3-.1 3.1-.1 6.2-.1 9.4z"/></g><path d="m320 182.7c1.1-4 1.9-7.1 2.7-10.5 2.4 4.4 1.8 7.2-2.7 10.5z" fill="#3981bf"/><path d="m335.7 197.7c.4 23.2.6 46.3.4 69.5 0 3.1 1.1 5.3 3.2 7.6 7.7 8.4 16.7 15.6 24.4 23.9 7.6 8.3 11.5 18.7 13.8 29.6 3 14.3 5 28.9 1 43.3-2.2 8-6.7 15.4-9.3 23.4-3.9 11.8-12.1 20.4-20.5 28.9-15.3 15.4-34.1 23.2-55.8 23.8-12.8.3-25.8 1-38.5-1.5-23.8-4.6-41.8-17.7-54.6-38.2-5.8-9.3-10.5-19.1-13.6-29.5-10.2-34.3-.2-63.6 22.9-89.3 2.9-3.2 6.4-5.9 10.3-7.7 4.6-2.1 5.8-5.4 5.8-10.3.3-36.9.7-73.8 1.4-110.7.3-19 1-38 5.6-56.7 3.5-14.2 11.1-25.3 23.4-33.1 7.4-4.7 15.2-7.1 24-5.9.7.1 1.4.2 2.1.2 21.3-.6 38 10.5 45.7 30.5 5.9 15.4 6.6 31.5 7.5 47.7.5 9.1.5 18.3.6 27.5.3 9 .2 18 .2 27zm-53.1 204.4c17 0 30.9-6 40.8-20.3 18.1-26.3 8.5-62.4-20.1-74-4.3-1.8-5.4-3.8-5.2-8.1.7-13 2.1-25.9 1.7-39-.3-10-.4-20-.2-30 .2-16.4 1.2-32.8 1-49.2-.1-10.4-.6-20.8-1.3-31.2-.6-7.9-1.4-15.6-4.2-23-1.5-4-4.2-6.9-9.2-7.1-5.5-.3-10 .9-12.3 6.2-1.2 2.7-1.9 5.7-2.8 8.5-2.2 6.6-1.4 13.3-2 20-.9 10.5-1.5 21.1-1.5 31.6 0 16.8 1 33.7.9 50.5-.1 14.3-1 28.6-.1 42.8.4 6.7.6 13.4 1.1 20.1.2 2.6-.8 3.9-3.2 4.7-4.1 1.3-7.7 3.6-11.2 6.2-17.7 13.4-25.8 37.5-19.2 57.3 7.1 22.1 23.6 34 47 34z" fill="#6ea4dd"/><path d="m145.8 166.6c-4.2-.4-4.1 3.1-4.4 6-.5 6.1-.9 12.2 1 18.3 7.1 21.9 21.9 35.6 44 41.5 2.8.7 6.5 2.2 7.5-2.1 1-4.4-3.1-4.4-5.9-5-23.2-5.1-43.7-29.7-39.3-52.3.3-2.8 1-6-2.9-6.4z"/><path d="m264 381.2c-1.2 2.7.4 4.2 2.7 5.4 5.6 2.7 11.3 4.7 16.5 4.5 18.8-.3 33.7-12.3 37.3-29 .6-2.6 1.1-5.5-2.3-6.3-3.4-.9-4.2 1.8-4.8 4.5-3.1 12.9-12.8 21.5-25.9 23.3-6.4.9-12.2-.7-17.7-3.6-2.3-1.3-4.5-1.4-5.8 1.2z"/><path d="m362.7 93.8c-2.5.2-4.2 1.4-3.9 4.1.2 2.7 2.2 3.5 4.6 3.3 15-1.3 30-.9 45-1 2.6 0 5.2-.3 5.3-3.6.1-3.2-2.4-3.8-5.1-3.8-7.1 0-14.3 0-21.4 0-8.2 0-16.3.2-24.5 1z"/><path d="m406.7 258.5c2.7 0 5.1-.4 5.2-3.7 0-2.9-2.2-3.7-4.7-3.7-14.1-.1-28.3-.3-42.4.7-2.6.2-5.1.8-4.9 4 .2 3.3 2.7 3.5 5.3 3.4 6.7-.4 13.4-.7 20.1-1v.3c7.1 0 14.3-.1 21.4 0z"/><path d="m365.9 154c6.4-.4 12.8-.7 19.3-1.1 0-.2 0-.3 0-.5h20.1c2.6 0 4.7-.7 4.7-3.7s-2.2-3.6-4.8-3.6c-13.3 0-26.6.7-39.8 1.6-2.7.2-5 .9-4.7 4.2.4 3.1 2.8 3.3 5.2 3.1z"/><path d="m359.2 204c.3 3 2.6 3.3 5.1 3.2 6.4-.4 12.8-.7 19.3-1.1 0-.1 0-.2 0-.4h19.7c2.7 0 5.2-.4 5.2-3.6s-2.5-3.7-5.2-3.7c-13.2-.1-26.3.6-39.4 1.5-2.7.1-5 .8-4.7 4.1z"/><path d="m157.1 153.3c1.3-3.1 3-5.8 4.8-8.5.5-.8.8-1.8 1.1-2.4-.1-1.9-.9-3.1-2.3-3.7-1.7-.7-3.1-.2-4.2 1.2-2.5 3.3-4.7 6.8-6.2 10.7-.8 2.2-.5 4 1.7 5 2.5 1.2 4.2 0 5.1-2.3z"/><path d="m311.1 332.2c-2.4 1.2-2.4 3.3-1.4 5.5 1.4 2.8 2.9 5.5 3.3 8.7.3 2.1 2 3.2 4.1 2.8s3-1.9 3-4c-.1-4-2-7.3-3.8-10.7-1.2-2.2-2.8-3.5-5.2-2.3z"/><path d="m166 134.1c-.3 2.4 1.3 3.6 3.7 3.9 2.4-.8 5.5-1 5.8-4.5.2-2.3-1.2-4-3.6-3.7-2.5.3-5.5.9-5.9 4.3z"/></svg>