<?xml version="1.0" encoding="UTF-8"?>
<!-- Generator: Adobe Illustrator 27.3.1, SVG Export Plug-In . SVG Version: 6.00 Build 0)  -->
<svg xmlns="http://www.w3.org/2000/svg" xmlns:xlink="http://www.w3.org/1999/xlink" version="1.1" id="Capa_1" x="0px" y="0px" viewBox="0 0 512 512" style="enable-background:new 0 0 512 512;" xml:space="preserve" width="512" height="512">
<g>
	<path style="fill:#FFFFFF;" d="M272.363,512c-4.848,0-9.803-0.16-14.733-0.477c-21.698-1.326-44.176-5.678-66.765-12.934   c-19.932-6.393-39.762-14.981-58.931-25.527c-15.727-8.626-30.816-18.479-44.836-29.273   c-38.997-30.042-62.733-71.093-65.125-112.633c-1.678-29.015,6.923-55.715,26.279-81.491c1.547-10.475,5.813-24.728,17.164-36.031   c8.736-8.701,20.637-14.492,34.429-16.758c15.937-15.082,29.188-28.305,41.228-42.56c13.919-16.469,27.799-30.169,42.235-41.667   l-13.533-3.596c-7.154-1.899-11.713-8.901-10.557-16.213c1.115-7.049,7.194-12.184,14.254-12.184c0.262,0,0.525,0.007,0.791,0.021   l56.477,3.06c4.212-1.829,8.466-3.49,12.708-4.965l98.298-75.77C344.319,1.021,347.428,0,350.566,0c1.991,0,3.993,0.411,5.877,1.25   c4.848,2.161,8.119,6.808,8.52,12.101l5.043,66.629c23.053,8.637,43.156,21.751,59.859,39.071c2.093,2.143,4.192,4.447,6.181,6.792   c0.643,0.708,1.259,1.42,1.851,2.155c54.576,65.729,67.727,161.632,33.497,244.359c-7.849,19.054-18.078,36.891-30.391,52.998   c-26.533,34.764-61.153,60.674-100.11,74.921c-5.072,1.852-10.296,3.497-15.534,4.896c-0.77,0.23-1.539,0.425-2.311,0.613   C307.06,509.899,289.966,512,272.365,512C272.363,512,272.365,512,272.363,512z"/>
	<g>
		<g>
			<path style="fill:#DBB0FF;" d="M457.347,369.168c-7.268,17.641-32.982-17.453-44.703-2.122     c-31.998,41.853-67.945-24.479-120.44-17.206c-54.815,7.595-106.207,139.128-154.015,112.902     c-15.355-8.424-29.795-17.906-42.984-28.063C63.026,409.89,38.02,373.211,35.686,332.658c-1.733-29.94,9.025-53.815,25.704-74.97     c7.052-8.881,15.138-17.304,23.779-25.487c6.811-6.45,13.67-12.852,20.481-19.278c15.933-14.994,31.624-30.229,45.752-46.956     c14.176-16.775,29.579-32.01,46.619-44.621c3.562-2.671,7.196-5.199,10.927-7.581c12.828-8.303,26.498-15.114,41.275-19.952     c3.249-1.107,6.57-2.07,9.916-2.96c6.811-1.781,13.815-3.177,21.059-4.116c23.369-3.033,46.883-1.54,68.929,4.525     c25.848,7.076,49.627,20.433,68.64,40.144c1.974,2.022,3.899,4.14,5.728,6.306c0.53,0.578,1.035,1.155,1.516,1.757     C479.031,203.247,488.418,294.078,457.347,369.168z"/>
		</g>
		<g>
			<g>
				<g>
					<path style="fill:#302945;" d="M213.837,122.216c-5.399,3.845-9.892,8.373-12.441,13.631       c-2.698,5.566-2.541,12.915,1.822,17.298c-10.665,5.34-15.445,19.969-9.99,30.576c3.853,7.492,11.637,12.282,19.696,14.737       c5.388,1.642,12.413,4.032,12.28,9.663c-0.119,5.055-6.064,7.473-10.816,9.202c-14.846,5.4-27.933,16.568-33.729,31.265       c-6.448,16.353-3.177,35.675,6.624,50.268c9.801,14.593,25.511,24.633,42.38,29.577c16.869,4.944,34.859,5.088,52.274,2.698       c12.573-1.725,25.177-4.832,36.075-11.337c25.088-14.975,37.095-46.232,35.66-75.414c-1.435-29.182-14.253-56.61-29.325-81.639       c-8.08-13.418-17.055-26.607-29.164-36.541c-5.866-4.812-12.37-8.778-18.849-12.727c-4.093-2.494-9.047-7.08-13.639-8.443       c-4.769-1.416-11.406,1.196-16.015,2.507C237.062,110.272,223.882,115.062,213.837,122.216z"/>
				</g>
			</g>
			<g>
				<g>
					<g>
						<path style="fill:#FF9191;" d="M344.223,270.367l-45.054,19.254l-5.199-17.762l6.222-19.62l-11.758,0.678l-0.096-0.337        c-9.025-1.829-35.548-7.774-43.659-16.221c-6.546-6.811-16.005-29.988-21.589-44.717c-4.26-7.894-6.667-16.943-6.667-26.546        c0-30.999,25.126-56.125,56.125-56.125c30.975,0,56.125,25.126,56.125,56.125c0,10.084-2.72,19.567-7.389,27.75        L344.223,270.367z"/>
					</g>
				</g>
				<g>
					<g>
						<g>
							<path style="fill:#302945;" d="M256.053,211.46c-0.026,0-0.051,0-0.076-0.002l-7.374-0.616         c-0.34-0.028-0.633-0.247-0.761-0.562l-10.446-25.807c-0.187-0.463,0.036-0.987,0.498-1.175         c0.458-0.188,0.987,0.038,1.175,0.498l10.238,25.292l6.821,0.569c0.497,0.042,0.866,0.479,0.824,0.975         C256.912,211.103,256.518,211.46,256.053,211.46z"/>
						</g>
					</g>
					<g>
						<g>
							<path style="fill:#302945;" d="M263.58,195.236c-1.232,0-2.569-0.195-4.063-0.588c-0.482-0.124-0.771-0.618-0.644-1.102         c0.128-0.482,0.63-0.766,1.102-0.642c1.623,0.426,3.015,0.585,4.265,0.503c1.033-0.075,2.523-0.374,3.752-1.37         c1.422-1.154,2.213-3.041,2.911-4.705c0.193-0.463,0.719-0.675,1.181-0.484c0.459,0.193,0.676,0.722,0.483,1.18         c-0.741,1.77-1.663,3.972-3.438,5.41c-1.261,1.025-2.907,1.636-4.762,1.77C264.111,195.226,263.848,195.236,263.58,195.236z"/>
						</g>
					</g>
					<g>
						<g>
							<path style="fill:#302945;" d="M232.282,206.418c-0.278,0-0.551-0.005-0.814-0.007c-0.498-0.007-0.897-0.416-0.891-0.914         c0.007-0.493,0.409-0.891,0.903-0.891c0.205-0.07,0.535,0.007,0.81,0.007c1.397,0,2.873-0.092,4.059-0.766         c1.449-0.823,2.367-2.463,3.178-3.911c0.245-0.432,0.799-0.587,1.228-0.346c0.435,0.245,0.59,0.794,0.347,1.229         c-0.879,1.57-1.974,3.525-3.861,4.597C235.676,206.305,233.866,206.418,232.282,206.418z"/>
						</g>
					</g>
					<g>
						<g>
							<path style="fill:#302945;" d="M260.832,221.338c-0.513-0.012-0.92-0.4-0.919-0.905c0.001-0.498,0.405-0.9,0.903-0.9         c0.006,0,0.01,0,0.016,0c1.847,0,3.709-0.799,4.98-2.137c1.277-1.344,1.982-3.251,1.883-5.1         c-0.026-0.496,0.356-0.921,0.853-0.947c0.483-0.094,0.922,0.355,0.95,0.853c0.123,2.334-0.765,4.741-2.376,6.438         C265.515,220.33,263.164,221.338,260.832,221.338z"/>
						</g>
					</g>
					<g>
						<g>
							<path style="fill:#302945;" d="M251.073,174.082c-0.19,0-0.383-0.061-0.546-0.186c-0.396-0.301-0.472-0.867-0.171-1.265         c2.912-3.815,7.707-6.069,12.493-5.876c0.497,0.021,0.885,0.439,0.865,0.938c-0.02,0.501-0.432,0.898-0.938,0.867         c-4.217-0.181-8.425,1.812-10.984,5.166C251.614,173.96,251.346,174.082,251.073,174.082z"/>
						</g>
					</g>
					<g>
						<g>
							<path style="fill:#302945;" d="M221.344,187.5c-0.134,0-0.269-0.031-0.399-0.094c-0.446-0.218-0.63-0.761-0.41-1.208         c1.624-3.293,5.033-5.676,8.687-6.069c0.49-0.024,0.94,0.306,0.994,0.801c0.053,0.496-0.306,0.94-0.801,0.994         c-3.053,0.329-5.903,2.32-7.26,5.072C221.997,187.315,221.677,187.5,221.344,187.5z"/>
						</g>
					</g>
				</g>
				<g>
					<g>
						<path style="fill:#DB4B3D;" d="M309.422,225.722c0,0-0.843,20.072-4.525,29.483c-3.105,7.966-9.122,14.729-10.927,16.655        l-5.535-18.941C292.791,251.016,303.092,244.687,309.422,225.722z"/>
					</g>
				</g>
			</g>
			<g>
				<g>
					<g>
						<path style="fill:#302945;" d="M261.48,104.455l-14.747,22.122c0,0,10.651,41.785,28.676,36.459        c0,0,12.29,32.773,36.46,29.905c0,0-12.699,50.388,14.748,67.184c27.447,16.796,71.28,20.892,90.125,37.279        s29.905,45.062,29.905,45.062s27.447-59.81,13.929-95.86c-13.519-36.05-98.318-25.808-104.053-44.243        c-5.735-18.435,6.145-85.619-21.302-92.173C307.771,103.636,261.48,104.455,261.48,104.455z"/>
					</g>
				</g>
				<g>
					<g>
						<path style="fill:#302945;" d="M210.559,146.177c11.787,0.091,23.822-2.71,33.501-9.436        c9.679-6.726,16.724-17.664,17.281-29.438c-17.494,2.576-34.344,9.731-46.11,22.931        C211.391,134.542,209.521,140.501,210.559,146.177z"/>
					</g>
				</g>
			</g>
			<g>
				<g>
					<g>
						<polygon style="fill:#977BFF;" points="172.778,97.431 441.92,168.914 358.183,126.762 349.859,16.773 240.465,101.097               "/>
					</g>
				</g>
				<g>
					<g>
						<path style="fill:#302945;" d="M358.015,127.648c-0.008-0.002-0.016-0.003-0.024-0.005l-117.719-25.664        c-0.487-0.107-0.795-0.586-0.69-1.073c0.107-0.489,0.595-0.76,1.075-0.691l117.719,25.664c0.487,0.107,0.795,0.586,0.69,1.073        C358.96,127.433,358.494,127.739,358.015,127.648z"/>
					</g>
				</g>
			</g>
			<g>
				<g>
					<g>
						<path style="fill:#977BFF;" d="M457.347,369.168c-7.268,17.641-16.799,34.416-28.52,49.747        c-23.971,31.408-56.486,56.558-93.598,70.132c-4.814,1.757-9.651,3.273-14.561,4.573c-0.602,0.193-1.203,0.337-1.805,0.481        c-19.832,5.102-40.409,6.667-61.011,5.343c-11.442-0.699-24.952-58.368-36.314-60.709        c-9.764-2.012-17.404,51.505-26.96,48.434c-19.591-6.282-38.58-14.633-56.39-24.428c3.634-15.042,12.756-51.336,24.38-84.236        c4.765-13.526,9.964-26.474,15.355-37.136c0.072-0.144,0.12-0.265,0.193-0.385c4.236-8.327,8.592-15.235,12.972-19.904        c1.348-1.42,2.672-2.623,4.019-3.61c1.853-1.348,3.803-2.623,5.848-3.803h0.024c30.108-17.69,78.941-19.134,78.941-19.134        l1.228-25.391c0,0,5.102-0.842,12.106,0.289h0.024c0.457,0.072,0.915,0.168,1.396,0.241c0.361,0.072,0.698,0.144,1.059,0.241        c5.15,1.131,11.047,3.369,16.655,7.702c0.241,0.168,0.457,0.337,0.698,0.529c0,0,0.072-0.289,0.241-0.842        c0.746-2.696,3.682-11.36,11.215-18.58c3.514-3.393,7.99-6.474,13.743-8.472c2.431-0.891,5.102-1.564,7.99-1.998l6.667,13.526        l5.223,10.638c0,0,32.756,2.864,58.58,24.982c0.578,0.505,1.179,1.035,1.733,1.564c0.385,0.337,0.77,0.698,1.131,1.083        c0.241,0.217,0.481,0.457,0.698,0.698c0.794,0.77,1.564,1.613,2.359,2.455l0.072,0.072c0.048,0.072,0.12,0.12,0.168,0.193        c9.338,10.445,17.305,24.862,23.394,38.171c0.096,0.168,0.168,0.337,0.217,0.505c0.072,0.096,0.096,0.193,0.144,0.289        c0,0.024,0,0.024,0,0.024C451.522,353.067,455.157,362.862,457.347,369.168z"/>
					</g>
				</g>
				<g>
					<g>
						<path style="fill:#302945;" d="M320.668,493.621c-0.602,0.193-1.203,0.337-1.805,0.481l-5.295-171.865l-1.203-38.243        l-0.168-5.824c0-0.217,0.048-0.409,0.193-0.553c0.144-0.217,0.409-0.361,0.674-0.361c0.096,0,0.193,0,0.265,0.048        c0.361,0.096,0.65,0.409,0.674,0.818l0.168,5.102l1.155,38.075v0.024L320.668,493.621z"/>
					</g>
				</g>
			</g>
			<g>
				<g>
					<g>
						<g>
							<path style="fill:#F7EDE5;" d="M67.794,301.589c-2.755-4.033-3.732-8.989-4.531-13.808c-1.777-10.72-2.979-21.662-1.6-32.44         c1.379-10.778,5.538-21.473,13.237-29.141c7.126-7.098,16.864-11.18,26.794-12.775c9.93-1.595,20.099-0.854,30.044,0.645         c19.738,2.975,40.194,9.693,52.838,25.139c10.758,13.143,14.346,31.465,10.76,48.067c-1.235,5.719-3.251,11.735-1.29,17.247         c1.183,3.328,3.702,7.141,1.566,9.954c-0.657,0.865-1.649,1.402-2.436,2.15c-5.624,5.344,2.083,16.567-3.386,22.069         c-2.286,2.3-5.911,2.413-9.153,2.353c-10.169-0.189-20.332-0.632-30.478-1.329c-1.257-0.086-2.549-0.186-3.682-0.735         c-3.276-1.587-3.793-5.911-4.353-9.508c-0.56-3.596-2.641-7.921-6.271-7.66c-1.564,0.112-2.9,1.106-4.247,1.909         c-3.319,1.979-7.228,2.956-11.088,2.77c-9.96-0.48-17.637-7.893-25.578-13.017c-4.04-2.607-8.387-5.022-13.217-5.711         C75.966,306.945,71.473,306.973,67.794,301.589z"/>
						</g>
					</g>
					<g>
						<g>
							<g>
								<g>
									<path style="fill:#302945;" d="M148.145,269.904c-5.171,3.94-8.893,9.738-10.322,16.08           c-0.776,3.443-0.805,7.332,1.271,10.186c1.425,1.959,3.699,3.186,6.063,3.711c4.104,0.912,8.508-0.179,12.027-2.48           c3.519-2.301,6.202-5.728,8.101-9.478c1.705-3.368,2.83-7.129,2.529-10.892           C166.923,265.894,155.992,263.925,148.145,269.904z"/>
								</g>
							</g>
							<g>
								<g>
									<path style="fill:#302945;" d="M188.722,272.116c-1.434-0.012-2.821,0.58-3.991,1.41c-2.559,1.816-4.181,4.738-4.927,7.786           c-0.746,3.048-0.69,6.235-0.426,9.362c0.195,2.307,0.531,4.692,1.788,6.637c1.256,1.945,3.673,3.32,5.899,2.685           c1.923-0.548,3.179-2.37,4.084-4.153c2.475-4.881,3.536-10.469,3.022-15.917           C193.872,276.772,192.625,272.151,188.722,272.116z"/>
								</g>
							</g>
							<g>
								<g>
									<path style="fill:#302945;" d="M167.241,301.48c-1.474,2.059-2.46,4.576-2.215,7.096c0.051,0.525,0.172,1.079,0.551,1.446           c0.747,0.724,2.012,0.324,2.848-0.296c0.836-0.619,1.624-1.453,2.661-1.537c1.021-0.083,1.923,0.591,2.831,1.064           c0.908,0.473,2.174,0.697,2.837-0.083c0.291-0.342,0.39-0.805,0.462-1.248c0.477-2.944,0.178-6.01-0.859-8.805           c-0.335-0.903-0.764-1.804-1.48-2.448C172.287,294.339,168.614,299.562,167.241,301.48z"/>
								</g>
							</g>
						</g>
						<g>
							<g>
								<path style="fill:#302945;" d="M135.614,309.163c-0.05,0-0.102-0.005-0.154-0.014c-0.449-0.075-11.059-1.927-14.898-5.446          c-4.004-3.669-0.368-15.03,0.06-16.314c0.159-0.472,0.665-0.736,1.142-0.571c0.472,0.157,0.729,0.668,0.571,1.14          c-1.059,3.18-3.221,11.968-0.553,14.415c3.448,3.161,13.878,4.98,13.983,4.999c0.491,0.082,0.822,0.55,0.737,1.041          C136.427,308.853,136.045,309.163,135.614,309.163z"/>
							</g>
						</g>
						<g>
							<g>
								<path style="fill:#302945;" d="M137.149,267.992c-0.221,0-0.442-0.08-0.616-0.242c-0.364-0.341-0.384-0.912-0.044-1.276          c0.547-0.585,13.527-14.29,24.781-7.53c0.428,0.256,0.567,0.811,0.309,1.238c-0.256,0.428-0.809,0.562-1.237,0.308          c-10.001-6-22.408,7.084-22.534,7.215C137.631,267.896,137.39,267.992,137.149,267.992z"/>
							</g>
						</g>
						<g>
							<g>
								<path style="fill:#302945;" d="M191.531,265.842c-0.252,0-0.501-0.103-0.679-0.308c-1.146-1.312-2.377-2-3.661-2.047          c-2.013-0.089-3.611,1.462-3.626,1.478c-0.355,0.346-0.925,0.343-1.275-0.007c-0.35-0.353-0.35-0.921,0.001-1.274          c0.086-0.085,2.111-2.01,4.946-2.002c1.807,0.061,3.481,0.956,4.973,2.663c0.328,0.376,0.29,0.945-0.085,1.274          C191.954,265.769,191.742,265.842,191.531,265.842z"/>
							</g>
						</g>
					</g>
				</g>
				<g>
					<g>
						<g>
							<path style="fill:#FF9191;" d="M190.199,423.175c-5.728-19.254-22.936-42.599-22.936-42.599s-1.757-0.866-4.693-2.07         c-6.594-2.72-19.182-7.196-31.36-7.774c0,0-15.981-13.935-22.118-17.617c-6.137-3.682-56.943-23.755-56.943-23.755         s5.223-10.854,30.397,0.481c0.241,0.12,0.481,0.217,0.722,0.337l-25.343-24.116l-0.048-0.048c0,0,0.048-0.096,0.144-0.241         c0,0,0-0.024,0-0.048c0.722-1.251,3.899-5.945,9.916-2.96c0.529,0.265,1.107,0.602,1.685,1.011         c0.144,0.096,0.313,0.193,0.457,0.313c0.289,0.217,0.602,0.433,0.915,0.698l-0.818-0.891l-1.42-1.54l-1.42-1.516         l-1.661-1.805c0,0,0.193-0.096,0.529-0.289c1.95-0.939,9.073-3.971,15.018-0.12c6.979,4.525,11.48,9.434,11.48,9.434         s0.265-0.217,0.722-0.529c2.022-1.396,7.942-4.717,13.622-0.698c4.332,3.057,12.587,11.625,20.313,18.773         c4.717,4.38,9.194,8.207,12.443,9.892c1.059,0.553,2.527,0.987,4.38,1.372c7.076,1.492,19.35,2.046,31.312,4.067         c0.818,0.12,1.613,0.265,2.431,0.433c9.579,1.757,18.7,4.597,24.573,9.699c15.548,13.526,28.664,56.534,36.871,80.289         c5.993,17.377,14.392,51.167,18.484,68.087c-21.276-1.3-42.599-5.632-63.273-12.274l0.336-7.022         C194.915,480.149,195.927,442.429,190.199,423.175z"/>
						</g>
					</g>
					<g>
						<g>
							<path style="fill:#302945;" d="M103.967,349.309c-0.219,0-0.438-0.08-0.612-0.24l-45.267-41.784         c-0.226-0.209-0.331-0.517-0.276-0.82c0.02-0.113,0.519-2.794,3.066-4.193c2.206-1.213,5.171-1.062,8.817,0.442         c0.461,0.19,0.68,0.719,0.49,1.18c-0.189,0.461-0.719,0.679-1.179,0.489c-3.102-1.281-5.54-1.467-7.239-0.538         c-1.26,0.682-1.824,1.85-2.048,2.489l44.861,41.411c0.367,0.338,0.389,0.91,0.05,1.274         C104.452,349.21,104.21,349.309,103.967,349.309z"/>
						</g>
					</g>
					<g>
						<g>
							<path style="fill:#302945;" d="M124.04,356.889c-0.201,0-0.403-0.066-0.571-0.205l-20.073-16.386l-38.388-40.635         c-0.169-0.179-0.257-0.418-0.246-0.665c0.012-0.245,0.124-0.475,0.309-0.637c0.066-0.059,6.933-5.888,16.598-0.517         c9.232,5.131,48.33,46.346,49.99,48.099c0.342,0.362,0.327,0.933-0.035,1.276c-0.361,0.338-0.932,0.329-1.276-0.035         c-0.404-0.428-40.564-42.767-49.556-47.761c-6.775-3.763-11.89-1.417-13.761-0.247l37.591,39.803l19.988,16.309         c0.385,0.315,0.443,0.884,0.128,1.269C124.561,356.776,124.301,356.889,124.04,356.889z"/>
						</g>
					</g>
				</g>
			</g>
		</g>
	</g>
	<g>
		<g>
			<g>
				<polygon style="fill:#F7EDE5;" points="410.224,202.52 412.507,165.233 414.283,202.773 423.668,195.164 418.087,204.042       438.126,206.578 418.594,209.115 424.175,216.978 414.79,211.905 412.253,244.372 410.224,212.412 400.585,216.47       406.673,209.115 382.323,205.817 406.419,204.803 400.839,196.432     "/>
			</g>
		</g>
		<g>
			<g>
				<polygon style="fill:#F7EDE5;" points="162.283,169.747 164.566,132.461 166.342,170.001 175.727,162.391 170.146,171.269       190.185,173.805 170.654,176.342 176.234,184.205 166.849,179.132 164.312,211.599 162.283,179.639 152.645,183.698       158.732,176.342 134.382,173.045 158.478,172.03 152.898,163.66     "/>
			</g>
		</g>
		<g>
			<g>
				<polygon style="fill:#F7EDE5;" points="93.753,370.693 96.036,333.406 97.811,370.946 107.196,363.337 101.616,372.215       121.654,374.751 102.123,377.288 107.703,385.151 98.319,380.078 95.782,412.545 93.753,380.585 84.114,384.643 90.202,377.288       65.851,373.99 89.948,372.975 84.368,364.605     "/>
			</g>
		</g>
	</g>
	<g>
		<g>
			<g>
				<g>
					<path style="fill:#9DD1A9;" d="M379.026,445.626l-0.034,0.005c-0.024-0.375-0.035-0.77-0.045-1.164       c-0.417-10.787-0.333-23.324,4.504-32.902c0.117-0.242,0.248-0.504,0.385-0.732c0.408-0.805,0.86-1.547,1.345-2.295       c3.518-5.358,8.921-9.461,14.912-12.778c0.205-0.118,0.411-0.237,0.602-0.336c5.175-2.81,10.734-5.043,15.872-6.985       c0.129-0.055,0.245-0.09,0.373-0.145c0.041,0.149,0.087,0.331,0.113,0.499c0.945,3.607,1.466,7.264,1.569,10.882       c0.017,0.221,0.015,0.428-0.001,0.655c0.097,5.669-0.877,11.214-3.034,16.462c-0.069,0.218-0.158,0.421-0.247,0.625       c-0.942,2.232-2.116,4.414-3.507,6.527C404.803,434.572,391.662,443.817,379.026,445.626z"/>
				</g>
			</g>
			<g>
				<g>
					<path style="fill:#302945;" d="M379.026,445.626l-0.034,0.005c-0.024-0.375-0.035-0.77-0.045-1.164       c2.098-4.308,4.365-8.522,6.817-12.662c0.245-0.417,0.503-0.854,0.762-1.291l0.014-0.019c1.356-2.228,2.717-4.423,4.17-6.58       c0.08-0.15,0.165-0.267,0.264-0.403c0.349-0.52,0.684-1.02,1.033-1.54c1.623-2.391,3.305-4.739,4.978-7.034       c0.397-0.545,0.794-1.089,1.196-1.6c0.014-0.02,0.014-0.02,0.014-0.02c0.496-0.681,0.998-1.328,1.48-1.989l2.599-3.526       l0.298-0.408l13.995-18.956c0.129-0.055,0.245-0.09,0.373-0.145c0.041,0.149,0.087,0.331,0.113,0.499l-12.345,16.734       l-1.678,2.261l-0.014,0.02l-2.855,3.876c-2.562,3.434-5.19,6.998-7.668,10.643c-0.099,0.136-0.184,0.253-0.264,0.403       c-0.284,0.389-0.548,0.792-0.812,1.195l-0.014,0.019C386.786,430.852,382.64,438.134,379.026,445.626z"/>
				</g>
			</g>
			<g>
				<g>
					<path style="fill:#302945;" d="M397.466,415.138l-0.479-0.201l-0.092-0.037c2.657-6.015,3.172-12.728,3.199-19.141       c0.205-0.118,0.411-0.237,0.602-0.336c0.018,5.94-0.382,12.17-2.499,17.894c0,0,0,0-0.014,0.02       C397.983,413.937,397.717,414.547,397.466,415.138z"/>
				</g>
			</g>
			<g>
				<g>
					<path style="fill:#302945;" d="M418.622,400.33c-3.117,0.885-6.163,2-9.111,3.306c-2.355,1.024-4.764,2.246-6.495,4.171       c-0.105,0.103-0.223,0.224-0.308,0.341l-0.433-0.345l-0.039-0.028c0.099-0.136,0.218-0.258,0.323-0.361       c0.645-0.721,1.359-1.333,2.15-1.888c1.411-0.997,2.98-1.759,4.559-2.455c3.029-1.336,6.176-2.467,9.355-3.397       C418.641,399.896,418.639,400.103,418.622,400.33z"/>
				</g>
			</g>
			<g>
				<g>
					<path style="fill:#302945;" d="M415.342,417.416c-5.431,0.628-10.76,1.687-16.006,3.165c-2.738,0.774-5.57,1.718-7.931,3.363       c-0.157,0.094-0.296,0.202-0.434,0.309l-0.26-0.338l-0.108-0.138c0.124-0.088,0.248-0.177,0.372-0.265       c0.4-0.304,0.825-0.56,1.255-0.783c2.144-1.266,4.603-2.065,6.929-2.723c5.361-1.513,10.878-2.585,16.429-3.214       C415.519,417.009,415.43,417.212,415.342,417.416z"/>
				</g>
			</g>
			<g>
				<g>
					<path style="fill:#302945;" d="M386.06,431.93l-0.295-0.126l-0.257-0.097c1.291-3.079,0.882-6.564,0.299-10.176       c-0.563-3.478-1.196-6.858-2.355-9.966c0.117-0.242,0.248-0.504,0.385-0.732c1.292,3.294,1.976,6.891,2.556,10.59       c0.515,3.175,0.894,6.251,0.148,9.072l-0.014,0.019C386.413,430.997,386.246,431.471,386.06,431.93z"/>
				</g>
			</g>
		</g>
		<g>
			<g>
				<g>
					<path style="fill:#9DD1A9;" d="M340.313,171.376l-0.034,0.005c-0.024-0.375-0.035-0.77-0.045-1.164       c-0.417-10.787-0.333-23.324,4.504-32.902c0.117-0.242,0.248-0.504,0.385-0.732c0.408-0.805,0.86-1.547,1.345-2.295       c3.518-5.358,8.921-9.461,14.912-12.778c0.205-0.118,0.411-0.237,0.602-0.336c5.175-2.81,10.733-5.042,15.872-6.985       c0.129-0.055,0.245-0.09,0.374-0.145c0.041,0.148,0.087,0.331,0.113,0.499c0.945,3.607,1.466,7.263,1.569,10.882       c0.017,0.222,0.015,0.428-0.001,0.655c0.097,5.67-0.877,11.214-3.034,16.462c-0.069,0.218-0.158,0.421-0.246,0.625       c-0.942,2.232-2.115,4.414-3.507,6.527C366.09,160.322,352.949,169.567,340.313,171.376z"/>
				</g>
			</g>
			<g>
				<g>
					<path style="fill:#302945;" d="M340.313,171.376l-0.034,0.005c-0.024-0.375-0.035-0.77-0.045-1.164       c2.098-4.308,4.365-8.523,6.817-12.662c0.245-0.417,0.503-0.854,0.762-1.291l0.014-0.02c1.356-2.228,2.717-4.423,4.17-6.58       c0.08-0.15,0.165-0.267,0.264-0.403c0.349-0.52,0.684-1.02,1.033-1.54c1.623-2.391,3.305-4.739,4.978-7.034       c0.397-0.545,0.794-1.089,1.196-1.6c0.014-0.02,0.014-0.02,0.014-0.02c0.496-0.681,0.998-1.328,1.48-1.989l2.599-3.526       l0.298-0.408l13.995-18.956c0.129-0.055,0.245-0.09,0.374-0.145c0.041,0.148,0.087,0.331,0.113,0.499l-12.345,16.733       l-1.678,2.261l-0.014,0.02l-2.855,3.876c-2.562,3.434-5.19,6.999-7.667,10.643c-0.099,0.136-0.184,0.253-0.264,0.403       c-0.284,0.389-0.548,0.792-0.811,1.195l-0.014,0.02C348.074,156.602,343.927,163.884,340.313,171.376z"/>
				</g>
			</g>
			<g>
				<g>
					<path style="fill:#302945;" d="M358.753,140.888l-0.479-0.201l-0.092-0.037c2.657-6.015,3.172-12.728,3.199-19.14       c0.205-0.118,0.411-0.237,0.602-0.336c0.018,5.94-0.383,12.17-2.499,17.894c0,0,0,0-0.014,0.02       C359.271,139.687,359.005,140.297,358.753,140.888z"/>
				</g>
			</g>
			<g>
				<g>
					<path style="fill:#302945;" d="M379.91,126.08c-3.117,0.885-6.163,2-9.111,3.306c-2.354,1.024-4.764,2.246-6.495,4.171       c-0.105,0.102-0.223,0.225-0.308,0.341l-0.433-0.345l-0.039-0.028c0.099-0.136,0.218-0.258,0.322-0.361       c0.645-0.721,1.359-1.333,2.15-1.888c1.411-0.997,2.98-1.759,4.559-2.455c3.029-1.337,6.176-2.467,9.355-3.397       C379.928,125.646,379.926,125.853,379.91,126.08z"/>
				</g>
			</g>
			<g>
				<g>
					<path style="fill:#302945;" d="M376.629,143.166c-5.431,0.628-10.76,1.688-16.006,3.165c-2.738,0.774-5.57,1.718-7.931,3.363       c-0.157,0.094-0.296,0.201-0.434,0.309l-0.26-0.338l-0.108-0.138c0.124-0.088,0.248-0.177,0.372-0.265       c0.4-0.304,0.825-0.56,1.255-0.783c2.144-1.266,4.603-2.065,6.929-2.723c5.361-1.513,10.878-2.585,16.429-3.214       C376.807,142.759,376.718,142.962,376.629,143.166z"/>
				</g>
			</g>
			<g>
				<g>
					<path style="fill:#302945;" d="M347.347,157.68l-0.295-0.126l-0.257-0.097c1.291-3.079,0.883-6.564,0.299-10.176       c-0.563-3.478-1.196-6.858-2.355-9.966c0.117-0.242,0.248-0.504,0.385-0.732c1.292,3.294,1.976,6.891,2.556,10.589       c0.515,3.175,0.894,6.251,0.148,9.072l-0.014,0.02C347.7,156.747,347.533,157.221,347.347,157.68z"/>
				</g>
			</g>
		</g>
		<g>
			<g>
				<g>
					<path style="fill:#9DD1A9;" d="M167.856,448.78l-0.007,0.033c-0.361-0.103-0.736-0.227-1.111-0.35       c-10.296-3.244-22.071-7.549-29.458-15.333c-0.189-0.192-0.391-0.404-0.56-0.609c-0.62-0.655-1.167-1.331-1.708-2.041       c-3.858-5.118-5.899-11.588-7.002-18.347c-0.042-0.233-0.084-0.466-0.113-0.68c-0.9-5.819-1.129-11.805-1.225-17.298       c-0.008-0.14-0.002-0.26-0.011-0.4c0.154,0.012,0.341,0.03,0.508,0.062c3.715,0.327,7.333,1.068,10.774,2.192       c0.214,0.058,0.408,0.13,0.616,0.221c5.37,1.82,10.262,4.606,14.475,8.406c0.182,0.139,0.343,0.291,0.505,0.443       c1.784,1.639,3.443,3.48,4.963,5.502C166.139,420.785,170.412,436.273,167.856,448.78z"/>
				</g>
			</g>
			<g>
				<g>
					<path style="fill:#302945;" d="M167.856,448.78l-0.007,0.033c-0.361-0.103-0.736-0.227-1.111-0.35       c-3.349-3.427-6.552-6.983-9.623-10.687c-0.31-0.371-0.634-0.762-0.958-1.153l-0.013-0.02       c-1.641-2.028-3.248-4.049-4.789-6.145c-0.115-0.126-0.196-0.245-0.291-0.385c-0.372-0.504-0.73-0.988-1.102-1.492       c-1.704-2.334-3.347-4.709-4.944-7.058c-0.379-0.557-0.758-1.115-1.103-1.665c-0.014-0.02-0.014-0.02-0.014-0.02       c-0.473-0.697-0.914-1.387-1.374-2.064l-2.443-3.636l-0.284-0.418l-13.128-19.566c-0.008-0.14-0.002-0.26-0.011-0.4       c0.154,0.012,0.341,0.03,0.508,0.062l11.592,17.264l1.563,2.342l0.014,0.02l2.686,3.994c2.369,3.57,4.839,7.246,7.435,10.807       c0.095,0.139,0.176,0.259,0.29,0.385c0.271,0.398,0.561,0.782,0.852,1.167l0.014,0.02       C156.563,436.493,162.021,442.852,167.856,448.78z"/>
				</g>
			</g>
			<g>
				<g>
					<path style="fill:#302945;" d="M145.369,421.141l-0.35,0.384l-0.066,0.074c-4.767-4.529-10.914-7.277-16.941-9.465       c-0.042-0.233-0.084-0.466-0.113-0.68c5.599,1.985,11.329,4.463,16.004,8.386c0,0,0,0,0.014,0.02       C144.413,420.248,144.898,420.705,145.369,421.141z"/>
				</g>
			</g>
			<g>
				<g>
					<path style="fill:#302945;" d="M138.561,396.23c-0.217,3.233-0.195,6.477,0.041,9.692c0.17,2.562,0.508,5.242,1.737,7.521       c0.061,0.133,0.136,0.286,0.217,0.405l-0.471,0.292l-0.04,0.027c-0.095-0.139-0.17-0.292-0.231-0.425       c-0.462-0.85-0.797-1.728-1.052-2.661c-0.463-1.665-0.652-3.399-0.774-5.12c-0.237-3.302-0.241-6.646-0.044-9.952       C138.159,396.067,138.353,396.139,138.561,396.23z"/>
				</g>
			</g>
			<g>
				<g>
					<path style="fill:#302945;" d="M153.541,405.079c-1.24,5.325-2.039,10.699-2.417,16.136c-0.194,2.839-0.261,5.823,0.492,8.6       c0.035,0.18,0.09,0.346,0.145,0.513l-0.406,0.131l-0.166,0.055c-0.041-0.146-0.083-0.293-0.124-0.44       c-0.151-0.479-0.249-0.966-0.314-1.445c-0.469-2.446-0.393-5.03-0.228-7.441c0.383-5.557,1.234-11.112,2.513-16.551       C153.217,404.775,153.379,404.927,153.541,405.079z"/>
				</g>
			</g>
			<g>
				<g>
					<path style="fill:#302945;" d="M157.333,437.54l-0.218,0.236l-0.178,0.209c-2.464-2.254-5.882-3.044-9.479-3.712       c-3.464-0.643-6.86-1.186-10.177-1.142c-0.189-0.192-0.391-0.404-0.56-0.609c3.537-0.105,7.153,0.463,10.831,1.163       c3.163,0.586,6.186,1.266,8.591,2.919l0.013,0.02C156.573,436.893,156.963,437.21,157.333,437.54z"/>
				</g>
			</g>
		</g>
	</g>
</g>















</svg>
