<?xml version="1.0" encoding="UTF-8"?>
<!-- Generator: Adobe Illustrator 26.5.1, SVG Export Plug-In . SVG Version: 6.00 Build 0)  -->
<svg xmlns="http://www.w3.org/2000/svg" xmlns:xlink="http://www.w3.org/1999/xlink" version="1.1" id="Capa_1" x="0px" y="0px" viewBox="0 0 512 512" style="enable-background:new 0 0 512 512;" xml:space="preserve" width="512" height="512">
<g>
	<g>
		<path style="fill:#FFFFFF;" d="M277.333,512c-0.426,0-0.855-0.022-1.282-0.062L91.315,493.954    c-3.503-0.34-6.725-2.063-8.954-4.785c-2.23-2.724-3.283-6.224-2.927-9.725l13.265-130.246l-33.157-33.155    c-2.697-2.698-4.099-6.43-3.846-10.235l2.45-36.783c0.286-4.298,2.646-8.185,6.325-10.425l46.815-28.484    c-3.705-2.194-6.191-6.116-6.465-10.576l-1.519-24.741l-20.773-2.158c-5.853-0.607-10.603-5.009-11.652-10.8    c-1.05-5.791,1.851-11.579,7.119-14.202l27.587-13.743l-0.018-31.574c-0.003-5.836,3.815-10.983,9.4-12.673    c1.266-0.383,2.556-0.566,3.83-0.566c4.346,0,8.519,2.147,11.017,5.903l14.986,22.529l17.822-4.449l6.675-22.952l-22.415-23.076    c-3.199-3.293-4.462-8.011-3.337-12.462L159.868,9.99C161.37,4.047,166.714,0,172.683,0c0.631,0,1.268,0.045,1.91,0.138    l173.883,25.212l0.949,0.129c3.344,0.456,6.388,2.175,8.507,4.802L372.33,48.13l2.605,0.086l14.99-27.788    c2.341-4.339,6.85-6.95,11.642-6.95c0.879,0,1.766,0.088,2.652,0.269c5.716,1.168,9.993,5.943,10.526,11.752l2.476,26.944    l29.162,7.466c5.454,1.396,9.427,6.092,9.902,11.702c0.475,5.61-2.652,10.905-7.794,13.199L424.54,95.491l0.721,23.621    c0.171,5.586-3.185,10.677-8.387,12.718c-1.572,0.618-3.212,0.917-4.835,0.917c-3.744,0-7.401-1.589-9.966-4.524l-4.114-4.71    l-37.993,337.505c-0.476,4.219-2.946,7.953-6.643,10.039l-69.486,39.232C281.846,511.414,279.605,512,277.333,512z"/>
	</g>
	<g>
		<polygon style="fill:#B179FF;" points="388.695,89.525 365.298,297.381 350.538,357.432 353.059,406.101 347.013,459.812     277.527,499.045 92.792,481.062 106.694,344.563 69.093,306.962 71.542,270.179 150.825,221.942 184.343,106.692 156.563,78.096     172.89,13.508 346.773,38.719 347.829,38.863   "/>
		<g>
			<polygon style="opacity:0.18;fill:#2E1144;" points="156.563,78.096 347.829,38.863 334.332,100.975    "/>
			<path style="fill:#2E1144;" d="M347.83,38.863l-1.056-0.144l-12.654,62.667l10.42,28.188l-29.413,115.25l-54.767,43.339     l-4.082,42.498l32.678,40.049l-0.48,5.282l6.185,9.961c7.759-4.729,70.648-88.571,70.648-88.571l23.386-207.858L347.83,38.863z"/>
			<path style="fill:#2E1144;" d="M338.773,405.181c-6.289,7.465-35.91,45.835-35.91,45.835l-24.304,36.433l-1.032,11.597     l69.486-39.233l6.05-53.711L338.773,405.181z"/>
			<polygon style="opacity:0.37;fill:#2E1144;" points="156.563,78.096 334.332,100.975 344.54,129.574 184.343,106.692    "/>
			<polygon style="opacity:0.25;fill:#2E1144;" points="150.825,221.942 315.127,244.824 260.36,289.788 71.542,270.179    "/>
			<polygon style="opacity:0.34;fill:#2E1144;" points="69.093,306.962 256.278,330.661 288.956,370.71 106.694,344.563    "/>
		</g>
		<g>
			<path style="fill:#FF93E2;" d="M208.672,67.821c1.315-1.085,21.577-18.008,14.153-24.531c-4.804-4.221-9.297,0.128-11.811,3.601     c-1.672-3.949-5.075-9.193-10.703-6.157c-8.698,4.693,7.256,25.726,8.294,27.079l-0.001,0.064c0,0,0.02-0.017,0.031-0.025     c0.008,0.01,0.025,0.032,0.025,0.032L208.672,67.821z"/>
			<path style="fill:#FF93E2;" d="M248.212,72.503c1.315-1.085,21.577-18.008,14.153-24.531c-4.804-4.221-9.297,0.128-11.811,3.601     c-1.672-3.949-5.075-9.193-10.703-6.157c-8.698,4.693,7.256,25.726,8.294,27.079l-0.001,0.064c0,0,0.021-0.017,0.031-0.025     c0.008,0.01,0.025,0.032,0.025,0.032L248.212,72.503z"/>
			<path style="fill:#FF93E2;" d="M287.753,77.186c1.315-1.085,21.577-18.008,14.153-24.531c-4.804-4.221-9.297,0.128-11.811,3.601     c-1.672-3.949-5.075-9.193-10.703-6.157c-8.698,4.693,7.255,25.726,8.294,27.079l-0.001,0.064c0,0,0.02-0.017,0.031-0.025     c0.008,0.01,0.025,0.032,0.025,0.032L287.753,77.186z"/>
		</g>
		<g>
			<polygon style="fill:#FF93E2;" points="365.309,297.382 361.251,333.422 361.155,334.118 284.778,417.482 285.354,411.071      288.476,375.992    "/>
			<polygon style="fill:#FFC666;" points="361.251,333.422 361.155,334.118 357.266,368.741 357.074,370.47 281.633,452.801      282.305,445.478 284.778,417.482 285.354,411.071    "/>
			<polygon style="fill:#00DBDA;" points="357.266,368.741 357.074,370.47 353.064,406.101 278.56,487.448 281.633,452.801      282.305,445.478    "/>
		</g>
		<g>
			<g>
				<polygon style="fill:#FFE7DE;" points="164.318,216.633 192.926,120.592 329.837,138.574 302.455,235.842     "/>
				<g>
					<path style="fill:#FF86B2;" d="M250.81,146.7c-28.64-4.01-55.175,15.905-59.73,44.626l36.394,5.095       c1.704-8.433,10.32-16.009,18.878-14.811c8.558,1.198,13.919,10.731,13.241,19.308l36.394,5.096       C299.496,177.147,279.451,150.71,250.81,146.7z"/>
					<path style="fill:#FFAFA0;" d="M249.902,153.189c-25.093-3.513-48.334,13.909-52.376,39.04l29.949,4.193       c1.704-8.433,10.32-16.009,18.878-14.811c8.558,1.198,13.919,10.731,13.241,19.308l29.949,4.193       C292.558,179.838,274.995,156.702,249.902,153.189z"/>
					<path style="fill:#FFC666;" d="M248.886,160.442c-21.129-2.958-40.697,11.666-44.199,32.79l22.786,3.19       c1.704-8.433,9.687-15.535,18.245-14.337c8.558,1.198,14.552,10.257,13.874,18.834l22.777,3.189       C284.805,182.834,270.015,163.4,248.886,160.442z"/>
					<path style="fill:#00DBDA;" d="M247.697,168.937c-16.477-2.307-31.752,9.036-34.577,25.475l14.354,2.01       c1.704-8.433,9.924-16.563,18.483-15.365c8.558,1.198,14.314,11.285,13.637,19.862l14.354,2.01       C275.746,186.346,264.174,171.244,247.697,168.937z"/>
					<path style="fill:#B179FF;" d="M246.613,176.678c-12.241-1.714-23.59,6.646-25.817,18.808l6.678,0.935       c1.704-8.433,9.635-14.188,18.193-12.99s14.604,8.91,13.926,17.487l6.678,0.935       C267.471,189.548,258.854,178.392,246.613,176.678z"/>
				</g>
			</g>
			<g>
				<g>
					
						<line style="fill:none;stroke:#2E1144;stroke-width:2.401;stroke-miterlimit:10;" x1="159.108" y1="230.938" x2="159.108" y2="260.363"/>
					
						<ellipse transform="matrix(0.1602 -0.9871 0.9871 0.1602 -89.326 348.3025)" style="fill:#FF93E2;" cx="160.027" cy="226.646" rx="12.874" ry="12.874"/>
				</g>
				<g>
					<path style="fill:#FF93E2;" d="M221.943,257.451c0,3.301-6.999,5.977-15.632,5.977c-8.633,0-15.632-2.676-15.632-5.977       c0-3.301,6.999-5.977,15.632-5.977C214.944,251.474,221.943,254.15,221.943,257.451z"/>
					<path style="fill:#FF93E2;" d="M265.162,257.451c0,3.301-6.999,5.977-15.632,5.977c-8.633,0-15.632-2.676-15.632-5.977       c0-3.301,6.999-5.977,15.632-5.977C258.163,251.474,265.162,254.15,265.162,257.451z"/>
				</g>
			</g>
		</g>
		<g>
			<path style="fill:#2E1144;" d="M181.147,399.738c-0.034,1.393-0.217,2.865-0.546,4.417c-0.331,1.552-0.848,3.006-1.551,4.361     c-0.705,1.358-1.618,2.523-2.741,3.505c-1.124,0.982-2.491,1.611-4.106,1.892c-1.197,0.209-2.315,0.157-3.357-0.155     c-1.041-0.31-2.018-0.802-2.937-1.475c-0.918-0.671-1.754-1.482-2.503-2.429c-0.75-0.947-1.41-1.948-1.979-3.006     c-0.571-1.055-1.041-2.122-1.413-3.198c-0.372-1.072-0.643-2.091-0.809-3.048c-0.234-1.346-0.359-2.809-0.373-4.394     c-0.014-1.585,0.101-3.175,0.346-4.774c0.245-1.602,0.635-3.161,1.171-4.687c0.535-1.529,1.243-2.912,2.118-4.16     c0.876-1.245,1.924-2.307,3.143-3.182c1.218-0.875,2.65-1.454,4.296-1.742c1.046-0.181,2.053-0.152,3.02,0.099     c0.968,0.246,1.841,0.65,2.614,1.21c0.775,0.556,1.43,1.266,1.965,2.129c0.536,0.861,0.892,1.801,1.069,2.816l0.07,0.406     c0.094,0.537,0.187,1.205,0.281,2.007c0.093,0.8,0.082,1.58-0.032,2.338c-0.116,0.76-0.367,1.444-0.754,2.047     c-0.387,0.61-1.014,0.987-1.881,1.137c-1.047,0.183-1.88,0.084-2.502-0.3c-0.621-0.384-1.031-1.133-1.223-2.239     c-0.073-0.417-0.13-0.837-0.175-1.262c-0.042-0.422-0.1-0.846-0.172-1.266c-0.11-0.628-0.3-1.093-0.569-1.4     c-0.268-0.31-0.734-0.403-1.39-0.291c-0.748,0.131-1.379,0.488-1.893,1.067c-0.516,0.584-0.93,1.304-1.242,2.159     c-0.313,0.856-0.549,1.806-0.706,2.851c-0.157,1.043-0.253,2.085-0.287,3.123c-0.035,1.039-0.016,2.028,0.055,2.971     c0.073,0.945,0.165,1.745,0.28,2.401c0.094,0.539,0.231,1.154,0.414,1.843c0.182,0.696,0.426,1.348,0.734,1.953     c0.305,0.612,0.691,1.107,1.158,1.487c0.467,0.38,1.015,0.516,1.644,0.408c1.076-0.188,1.884-0.675,2.424-1.465     c0.54-0.786,0.839-1.723,0.897-2.811c-0.43,0.014-0.857-0.012-1.284-0.077c-0.428-0.066-0.836-0.192-1.224-0.389     c-0.388-0.192-0.72-0.457-0.994-0.797c-0.274-0.333-0.455-0.757-0.544-1.266c-0.162-0.929,0.026-1.709,0.564-2.34     c0.536-0.633,1.206-1.156,2.012-1.578c0.805-0.415,1.65-0.741,2.536-0.971c0.884-0.23,1.594-0.396,2.131-0.49     c0.389-0.066,0.964-0.136,1.721-0.204c0.757-0.073,1.521-0.073,2.286-0.007c0.768,0.068,1.451,0.232,2.052,0.497     c0.6,0.267,0.952,0.685,1.05,1.25c0.198,1.139,0.062,2.171-0.409,3.097C183.138,398.739,182.318,399.382,181.147,399.738z"/>
			<path style="fill:#2E1144;" d="M201.96,408.73c-1.824,0.319-3.489,0.136-4.993-0.539c-1.504-0.678-2.832-1.709-3.982-3.095     c-1.15-1.386-2.12-3.06-2.908-5.018c-0.789-1.958-1.376-4.056-1.768-6.3c-0.365-2.091-0.504-4.258-0.415-6.493     c0.088-2.232,0.46-4.298,1.116-6.2c0.653-1.902,1.617-3.533,2.889-4.896c1.273-1.362,2.926-2.218,4.96-2.572     c1.973-0.345,3.719-0.103,5.235,0.727c1.515,0.832,2.816,2.021,3.902,3.571c1.088,1.552,1.985,3.346,2.694,5.379     c0.709,2.033,1.245,4.099,1.611,6.19c0.406,2.331,0.558,4.577,0.457,6.736c-0.102,2.16-0.485,4.115-1.151,5.862     c-0.665,1.749-1.627,3.212-2.888,4.385C205.46,407.642,203.875,408.397,201.96,408.73z M198.137,383.606     c-0.568,0.099-1.015,0.408-1.34,0.926c-0.326,0.521-0.559,1.168-0.701,1.946c-0.141,0.783-0.192,1.639-0.153,2.572     c0.039,0.936,0.141,1.864,0.301,2.79c0.182,1.046,0.432,2.08,0.748,3.105c0.318,1.022,0.684,1.93,1.099,2.718     c0.415,0.793,0.869,1.407,1.36,1.843c0.492,0.441,1.023,0.61,1.592,0.511c0.657-0.115,1.123-0.535,1.398-1.262     c0.274-0.724,0.443-1.573,0.505-2.537c0.063-0.966,0.046-1.951-0.052-2.95c-0.097-0.999-0.203-1.829-0.318-2.488     c-0.139-0.804-0.342-1.648-0.603-2.528c-0.26-0.877-0.578-1.679-0.95-2.399c-0.373-0.722-0.797-1.304-1.274-1.745     C199.273,383.669,198.736,383.503,198.137,383.606z"/>
			<path style="fill:#2E1144;" d="M157.26,447.283c-0.035,1.395-0.219,2.868-0.548,4.417c-0.332,1.555-0.849,3.008-1.551,4.364     c-0.703,1.355-1.618,2.523-2.74,3.505c-1.124,0.98-2.492,1.613-4.107,1.895c-1.197,0.209-2.315,0.155-3.357-0.157     c-1.04-0.312-2.018-0.802-2.937-1.475c-0.919-0.671-1.754-1.482-2.503-2.429c-0.752-0.95-1.41-1.951-1.98-3.008     c-0.57-1.053-1.041-2.12-1.412-3.194c-0.372-1.076-0.642-2.091-0.809-3.048c-0.234-1.348-0.359-2.811-0.373-4.396     c-0.014-1.583,0.101-3.177,0.346-4.776c0.245-1.597,0.637-3.161,1.172-4.687c0.533-1.526,1.24-2.91,2.116-4.157     c0.878-1.247,1.925-2.307,3.143-3.184c1.219-0.872,2.651-1.454,4.296-1.74c1.046-0.183,2.054-0.15,3.021,0.096     c0.968,0.249,1.84,0.652,2.613,1.21c0.776,0.558,1.43,1.271,1.966,2.131c0.537,0.861,0.892,1.798,1.069,2.816l0.07,0.403     c0.094,0.539,0.188,1.208,0.281,2.007c0.094,0.799,0.083,1.58-0.031,2.342c-0.116,0.757-0.368,1.44-0.755,2.047     c-0.386,0.607-1.015,0.985-1.881,1.137c-1.048,0.183-1.882,0.08-2.503-0.305c-0.621-0.382-1.029-1.13-1.223-2.237     c-0.073-0.42-0.13-0.839-0.172-1.261c-0.043-0.424-0.102-0.846-0.175-1.264c-0.109-0.628-0.299-1.095-0.567-1.405     c-0.27-0.307-0.734-0.401-1.39-0.286c-0.749,0.129-1.379,0.483-1.893,1.067c-0.515,0.581-0.93,1.301-1.242,2.157     c-0.314,0.858-0.549,1.805-0.706,2.851c-0.157,1.043-0.253,2.085-0.288,3.123c-0.035,1.039-0.016,2.028,0.056,2.968     c0.071,0.945,0.165,1.744,0.28,2.403c0.094,0.537,0.231,1.151,0.414,1.845c0.182,0.692,0.426,1.344,0.733,1.951     c0.306,0.612,0.693,1.104,1.16,1.484c0.467,0.382,1.015,0.518,1.644,0.408c1.076-0.188,1.884-0.673,2.424-1.461     c0.539-0.788,0.84-1.728,0.896-2.814c-0.429,0.012-0.856-0.014-1.284-0.077c-0.427-0.066-0.835-0.195-1.223-0.387     c-0.389-0.197-0.72-0.462-0.994-0.799c-0.274-0.335-0.456-0.757-0.544-1.266c-0.162-0.928,0.026-1.709,0.563-2.34     c0.537-0.633,1.209-1.158,2.014-1.576c0.805-0.417,1.648-0.743,2.534-0.973c0.884-0.23,1.594-0.394,2.133-0.488     c0.389-0.068,0.964-0.136,1.721-0.209c0.757-0.068,1.519-0.07,2.287-0.005c0.766,0.07,1.449,0.232,2.051,0.497     c0.6,0.265,0.951,0.682,1.049,1.25c0.198,1.137,0.063,2.169-0.407,3.1C159.251,446.284,158.43,446.929,157.26,447.283z"/>
			<path style="fill:#2E1144;" d="M177.306,423.504c0.1,0.567,0.06,1.097-0.115,1.59c-0.177,0.492-0.448,0.933-0.81,1.32     c-0.366,0.387-0.783,0.729-1.254,1.027c-0.473,0.298-0.94,0.532-1.402,0.706c0.528,3.391,0.969,6.671,1.322,9.846     c0.353,3.175,0.611,6.471,0.776,9.893l0.27-0.047c0.478-0.082,0.959-0.11,1.441-0.089c0.482,0.028,0.93,0.134,1.349,0.321     c0.417,0.188,0.773,0.45,1.061,0.785c0.289,0.335,0.482,0.772,0.576,1.308c0.12,0.689,0.007,1.325-0.339,1.909     c-0.345,0.584-0.838,1.118-1.478,1.597c-0.64,0.483-1.372,0.919-2.198,1.308c-0.827,0.392-1.66,0.729-2.504,1.015     c-0.843,0.286-1.65,0.523-2.416,0.722c-0.768,0.195-1.39,0.331-1.868,0.415c-0.359,0.061-0.803,0.127-1.332,0.188     c-0.529,0.061-1.038,0.056-1.526-0.014c-0.49-0.066-0.925-0.223-1.306-0.464c-0.381-0.239-0.617-0.617-0.706-1.123     c-0.109-0.628-0.079-1.212,0.09-1.749c0.168-0.537,0.427-1.039,0.777-1.498c0.352-0.462,0.767-0.858,1.25-1.189     c0.48-0.331,0.981-0.603,1.499-0.818c-0.08-1.679-0.169-3.353-0.274-5.011c-0.103-1.662-0.273-3.334-0.504-5.02     c-0.237-1.714-0.471-3.405-0.701-5.079c-0.227-1.667-0.46-3.346-0.69-5.032c-0.205,0.066-0.395,0.124-0.571,0.169     c-0.177,0.047-0.341,0.084-0.49,0.11c-0.42,0.073-0.877,0.103-1.369,0.101c-0.495-0.009-0.971-0.087-1.429-0.237     c-0.456-0.152-0.856-0.368-1.197-0.65c-0.341-0.279-0.557-0.671-0.646-1.179c-0.177-1.015,0.104-1.93,0.842-2.736     s1.665-1.491,2.784-2.056c1.118-0.565,2.278-1.02,3.481-1.367c1.203-0.349,2.178-0.591,2.925-0.72     c0.42-0.073,0.978-0.138,1.676-0.202c0.698-0.059,1.401-0.042,2.113,0.052c0.708,0.094,1.341,0.272,1.896,0.546     C176.863,422.423,177.197,422.876,177.306,423.504z"/>
			<path style="fill:#2E1144;" d="M205.614,425.643c0.36,2.063,0.204,4.002-0.465,5.813c-0.672,1.81-1.688,3.482-3.055,5.013     c0.604,0.635,1.243,1.388,1.919,2.256c0.674,0.868,1.306,1.796,1.895,2.788c0.589,0.992,1.102,1.998,1.543,3.013     c0.437,1.018,0.736,1.977,0.893,2.872c0.167,0.959,0.085,1.857-0.246,2.701c-0.332,0.844-1.05,1.36-2.156,1.552     c-0.927,0.162-1.807-0.145-2.634-0.926c-0.83-0.778-1.614-1.745-2.354-2.896c-0.739-1.149-1.437-2.326-2.095-3.538     c-0.658-1.21-1.249-2.169-1.773-2.882c-0.508,0.277-0.995,0.565-1.465,0.879c-0.469,0.312-0.953,0.621-1.456,0.926     c0.086,0.661,0.19,1.576,0.315,2.739c0.125,1.165,0.161,2.335,0.105,3.517c-0.057,1.182-0.266,2.237-0.628,3.161     c-0.363,0.926-0.992,1.468-1.889,1.625c-0.987,0.171-1.821-0.099-2.501-0.814c-0.678-0.713-1.226-1.604-1.642-2.673     c-0.416-1.067-0.742-2.171-0.972-3.32c-0.23-1.147-0.403-2.049-0.518-2.703c-0.244-1.407-0.456-2.795-0.633-4.167     c-0.178-1.372-0.388-2.757-0.633-4.164c-0.224-1.285-0.47-2.568-0.739-3.845c-0.27-1.278-0.518-2.577-0.747-3.89     c-0.053-0.3-0.118-0.682-0.201-1.147c-0.08-0.462-0.142-0.945-0.183-1.447c-0.041-0.502-0.072-0.982-0.089-1.442     c-0.018-0.457,0.023-0.832,0.127-1.13c0.189-0.68,0.766-1.395,1.728-2.15c0.964-0.75,2.042-1.454,3.236-2.113     c1.197-0.654,2.378-1.215,3.545-1.679c1.165-0.464,2.047-0.748,2.647-0.854c1.524-0.265,2.919-0.216,4.185,0.148     c1.266,0.363,2.371,0.966,3.317,1.803c0.947,0.837,1.727,1.857,2.337,3.06C204.941,422.932,205.369,424.236,205.614,425.643z      M197.426,427.718c-0.136-0.778-0.419-1.339-0.848-1.681c-0.429-0.34-1.048-0.441-1.856-0.3     c-0.598,0.103-1.184,0.314-1.761,0.631c-0.577,0.317-1.096,0.652-1.557,1.011c0.53,2.342,0.985,4.682,1.361,7.02     c0.592-0.319,1.188-0.701,1.788-1.144s1.136-0.952,1.606-1.529c0.469-0.574,0.832-1.191,1.087-1.85     C197.501,429.212,197.561,428.494,197.426,427.718z"/>
			<path style="fill:#2E1144;" d="M236.206,438.244c0.131,0.748-0.054,1.505-0.551,2.27c-0.498,0.764-1.188,1.501-2.064,2.209     c-0.879,0.706-1.881,1.367-3.007,1.979c-1.126,0.612-2.246,1.163-3.364,1.648c-1.117,0.488-2.177,0.898-3.183,1.226     s-1.808,0.546-2.406,0.652c-0.569,0.099-1.183,0.15-1.844,0.159c-0.662,0.005-1.232-0.134-1.713-0.42     c-0.271-0.138-0.551-0.504-0.839-1.102c-0.29-0.595-0.592-1.313-0.907-2.155c-0.317-0.837-0.621-1.745-0.914-2.727     c-0.295-0.98-0.562-1.944-0.803-2.889c-0.243-0.943-0.456-1.812-0.641-2.614c-0.185-0.8-0.316-1.423-0.395-1.874     c-0.13-0.746-0.266-1.655-0.406-2.722c-0.141-1.069-0.272-2.218-0.393-3.445c-0.119-1.229-0.216-2.485-0.284-3.766     c-0.07-1.283-0.107-2.502-0.108-3.655c-0.002-1.158,0.062-2.204,0.191-3.154c0.128-0.947,0.312-1.7,0.552-2.27     c0.427-0.905,1.074-1.433,1.941-1.585c0.599-0.103,1.142,0.012,1.632,0.34c0.488,0.333,0.916,0.797,1.283,1.395     c0.365,0.6,0.685,1.283,0.957,2.052c0.273,0.769,0.508,1.536,0.703,2.305c0.195,0.764,0.349,1.48,0.464,2.136     c0.114,0.659,0.205,1.182,0.272,1.569c0.407,2.333,0.757,4.652,1.053,6.962c0.294,2.305,0.644,4.622,1.05,6.955l0.305,1.749     c1.273-0.652,2.668-1.301,4.189-1.951c1.518-0.652,2.998-1.102,4.433-1.353c0.508-0.089,1.028-0.148,1.563-0.178     c0.534-0.033,1.02,0.014,1.457,0.138c0.439,0.124,0.815,0.349,1.135,0.68C235.882,437.139,236.097,437.615,236.206,438.244z"/>
			<path style="fill:#2E1144;" d="M248.112,423.181c0.084,0.481,0.166,1.135,0.25,1.967c0.083,0.832,0.148,1.73,0.193,2.694     c0.043,0.964,0.039,1.951-0.016,2.961c-0.055,1.013-0.163,1.939-0.324,2.783c-0.162,0.846-0.408,1.552-0.741,2.117     c-0.332,0.565-0.768,0.896-1.306,0.989c-0.659,0.115-1.274-0.108-1.851-0.673c-0.576-0.56-1.107-1.315-1.596-2.263     c-0.488-0.947-0.93-2.016-1.321-3.212c-0.393-1.196-0.738-2.375-1.034-3.541c-0.294-1.165-0.538-2.249-0.728-3.245     c-0.19-1.001-0.331-1.77-0.424-2.31c-0.094-0.537-0.212-1.219-0.355-2.04c-0.144-0.823-0.258-1.702-0.345-2.645     c-0.088-0.94-0.129-1.88-0.122-2.821c0.005-0.94,0.107-1.812,0.307-2.619c0.197-0.802,0.526-1.482,0.984-2.04     c0.457-0.558,1.09-0.907,1.897-1.048c0.717-0.127,1.361,0.077,1.932,0.61c0.57,0.532,1.082,1.259,1.536,2.183     c0.453,0.924,0.852,1.97,1.195,3.142c0.344,1.172,0.638,2.331,0.882,3.475c0.246,1.144,0.448,2.209,0.605,3.201     C247.885,421.837,248.014,422.616,248.112,423.181z M250.231,440.377c0.088,0.509,0.046,0.971-0.128,1.386     c-0.175,0.417-0.434,0.783-0.778,1.104c-0.345,0.321-0.73,0.582-1.158,0.781c-0.427,0.199-0.868,0.335-1.315,0.415     c-0.657,0.113-1.316,0.049-1.974-0.19c-0.658-0.239-1.052-0.734-1.182-1.48c-0.077-0.45-0.022-0.882,0.167-1.299     c0.19-0.42,0.455-0.797,0.797-1.135c0.341-0.335,0.729-0.619,1.168-0.851c0.437-0.227,0.866-0.38,1.285-0.453     c0.687-0.12,1.346-0.059,1.974,0.185C249.714,439.088,250.095,439.599,250.231,440.377z"/>
		</g>
		<g>
			<polygon style="fill:#FFC666;" points="382.882,61.986 401.765,26.985 405.094,63.222 443.296,73.003 411.239,87.299      412.232,119.792 388.269,92.372 355.262,111.448 370.401,78.783 343.887,60.694    "/>
			<polygon style="fill:#FFC666;" points="248.513,325.548 263.85,297.118 266.555,326.552 297.584,334.496 271.546,346.108      272.353,372.5 252.889,350.228 226.079,365.723 238.375,339.191 216.84,324.498    "/>
			<polygon style="fill:#FFC666;" points="119.013,162.36 118.99,122.59 139.143,152.89 177.403,143.337 155.994,171.152      172.312,199.268 138.196,186.533 118.222,219.006 116.016,183.071 84.09,179.758    "/>
		</g>
	</g>
</g>















</svg>
