<?xml version="1.0" encoding="UTF-8"?>
<!-- Generator: Adobe Illustrator 25.4.1, SVG Export Plug-In . SVG Version: 6.00 Build 0)  -->
<svg xmlns="http://www.w3.org/2000/svg" xmlns:xlink="http://www.w3.org/1999/xlink" version="1.1" id="Capa_1" x="0px" y="0px" viewBox="0 0 512.548 512.548" style="enable-background:new 0 0 512.548 512.548;" xml:space="preserve" width="512" height="512">
<g>
	<g>
		<path d="M169.019,0.229c10.21,3.658,25.169,2.367,29.059,14.851c49.795,138.492,99.32,277.084,148.885,415.657    c0.448-0.029,0.896-0.058,1.344-0.087c0-81.857,0-163.714,0-246.068c16.859,0.89,30.646-3.451,41.237-16.282    c11.788,12.775,27.235,16.215,44.146,17.352c0.029,76.777,0.165,153.261,0.526,229.998c0.11,20.41,2.967,40.211,14.659,57.931    c9.732,18.044,28.981,18.501,21.418,26.089c-20.926,18.944-57.094,16.161-77.171-2.93c-0.665-0.67-3.087-0.401-4.148,0.28    c-9.342,8.789-21.776,11.092-33.508,15.209c-10.037,0.696-19.736-1.157-29.312-4.063c-8.756-2.541-14.349-8.1-17.525-16.968    c-47.764-133.783-96.276-267.3-143.875-401.141c-0.459,0.055-0.918,0.111-1.377,0.166c0,78.785,0,157.57,0,236.505    c-17.037,1.331-32.465,4.558-44.276,17.446c-10.422-12.772-24.347-17.197-40.942-16.344c-0.12-82.143,0.078-163.715-0.955-245.772    c0.006-27.673-11.717-50.03-36.669-64.44C43.649,2.02,71.934,0.038,84.973,0.229c12.498,2.827,24.896,5.866,34.161,15.936    c4.634,1.118,8.187-5.722,12.243-6.963C143.594,4.614,155.677-1.235,169.019,0.229z"/>
		<path d="M439.509,0.229c6.341,1.622,12.932,2.629,18.938,5.073c3.731,1.914,18.773,10.215,9.581,14.119    c-47.611,20.634-36.708,105.971-10.627,139.937c13.969,18.594-51.313,28.018-66.492-5.925c-5.02,4.982-9.503,10.764-15.208,14.833    c-15.733,10.95-38.75,11.472-53.479-0.514c-1.02-1.714-1.543-5.363-0.512-6.408c12.476-12.645,15.916-29.139,19.612-45.42    c6.38-32.174,9.666-81.704-26.929-96.511c-7.822-2.987,2.091-10.537,5.627-12.3c23.22-10.363,52.622-9.533,70.731,10.205    c3.885-2.905,7.11-6.362,11.086-8.07C413.987,4.503,426.179-1.187,439.509,0.229z"/>
		<path d="M40.536,494.841c50.381-17.169,38.01-108.199,12.039-141.724c-13.773-18.752,51.352-27.937,66.509,5.91    c5.014-4.978,9.497-10.757,15.198-14.83c15.732-10.963,38.743-11.456,53.481,0.498c1.023,1.713,1.555,5.369,0.527,6.407    c-12.89,13.012-16.101,30.124-19.997,46.812c-6.721,32.11-6.369,79.916,28.791,94.96c8.932,3.384-2.457,11.23-6.461,13.146    c-23.04,10.207-51.187,7.652-69.572-10.456c-14.746,11.552-33.602,19.368-52.273,15.834    C58.498,508.946,43.469,507.415,40.536,494.841z"/>
	</g>
	<g>
		<path style="fill:#FFFFFF;" d="M112.632,312.669c0.256,0.417,0.512,0.835,0.769,1.252c1.971-1.07,4.177-1.857,5.87-3.261    c6.567-5.444,9.921-12.93,12.361-20.831c7.484-24.235,6.217-48.611,0.44-72.89c-6.319-26.557-14.858-52.582-18.267-79.829    c-4.073-32.555,0.433-63.121,19.608-90.586c0.87-1.246,1.572-2.61,2.353-3.919c-0.419-0.426-0.838-0.853-1.258-1.28    c-1.726,1.454-3.749,2.67-5.133,4.399c-18.016,22.513-25.753,48.5-25.799,77.051c-0.037,22.851,3.716,45.134,10.195,66.98    c6.812,22.971,14.252,45.866,14.4,70.118C128.286,278.87,127.878,298.012,112.632,312.669z M377.802,469.857    c0.431,0.426,0.862,0.852,1.294,1.277c1.727-1.485,3.738-2.742,5.136-4.49c18.019-22.52,25.719-48.519,25.747-77.069    c0.022-22.849-3.744-45.127-10.217-66.976c-6.759-22.815-14.155-45.548-14.354-69.641c-0.159-19.173,0.228-38.442,15.256-53.79    c-2.246,0.416-4.464,1.009-6.086,2.334c-6.736,5.504-10.186,13.11-12.678,21.179c-7.437,24.076-6.208,48.308-0.52,72.426    c6.267,26.569,14.839,52.579,18.308,79.82c4.167,32.73-0.317,63.437-19.588,91.052    C379.243,467.207,378.564,468.561,377.802,469.857z M395.241,107.256c-0.965-0.541-1.93-1.083-2.895-1.624    c3.151,3.927,5.789,8.467,9.576,11.632c5.146,4.3,11.616,1.806,12.869-4.812c0.816-4.314,0.821-9.025,0.045-13.353    c-3.191-17.791-12.513-32.9-21.979-47.856c-2.064-3.261-4.604-2.764-6.237,1.31c-5.978,14.91-11.88,29.855-17.44,44.924    c-1.295,3.511-1.697,7.587-1.524,11.357c0.429,9.38,7.229,12.585,14.965,7.32C386.876,113.259,391.037,110.226,395.241,107.256z     M119.932,399.644c-2.849-3.548-5.489-8.087-9.279-11.248c-5.148-4.294-11.579-1.784-12.867,4.838    c-0.809,4.159-0.85,8.704-0.125,12.882c3.124,17.988,12.54,33.227,22.082,48.325c2.055,3.252,4.599,2.742,6.235-1.34    c5.976-14.911,11.861-29.862,17.446-44.922c1.25-3.37,1.95-7.364,1.428-10.851c-0.495-3.31-2.196-7.209-4.68-9.262    c-3.336-2.757-7.547-0.831-10.553,1.801C125.935,393.093,122.692,396.821,119.932,399.644z M115.648,251.438    c0.108-4.812-3.223-8.597-7.725-8.778c-4.923-0.198-9.252,4.006-9.318,9.05c-0.06,4.555,3.176,7.951,7.754,8.138    C111.429,260.056,115.538,256.336,115.648,251.438z M406.025,269.771c4.943-0.033,9.062-4.391,8.923-9.443    c-0.124-4.51-3.57-7.788-8.144-7.748c-5.119,0.045-8.996,3.881-8.899,8.806C397.999,266.2,401.486,269.801,406.025,269.771z     M141.699,129.626c0.019-4.702-3.561-8.496-8.018-8.499c-4.411-0.002-8.037,3.821-8.05,8.49c-0.014,4.7,3.573,8.507,8.012,8.504    C138.065,138.118,141.68,134.306,141.699,129.626z M379.85,374.31c-4.426,0.043-8.007,3.876-7.994,8.558    c0.013,4.699,3.629,8.473,8.082,8.435c4.414-0.038,8.004-3.881,7.987-8.553C387.907,378.053,384.286,374.267,379.85,374.31z"/>
		<g>
			<path style="fill:#FFFFFF;" d="M119.932,399.644c2.761-2.823,6.003-6.551,9.687-9.776c3.006-2.632,7.217-4.558,10.553-1.801     c2.483,2.052,4.184,5.952,4.68,9.262c0.522,3.486-0.178,7.48-1.428,10.851c-5.585,15.06-11.471,30.012-17.446,44.922     c-1.636,4.082-4.179,4.592-6.235,1.34c-9.542-15.099-18.958-30.338-22.082-48.325c-0.726-4.179-0.684-8.724,0.125-12.882     c1.288-6.621,7.719-9.132,12.867-4.838C114.442,391.557,117.082,396.096,119.932,399.644z"/>
			<g>
				<path style="fill:#FFFFFF;" d="M112.632,312.669c15.246-14.657,15.654-33.799,15.539-52.797      c-0.148-24.252-7.588-47.148-14.4-70.118c-6.479-21.846-10.232-44.129-10.195-66.98c0.047-28.55,7.783-54.538,25.799-77.051      c1.383-1.729,3.407-2.945,5.133-4.399c0.419,0.427,0.838,0.853,1.258,1.28c-0.78,1.309-1.482,2.673-2.353,3.919      c-19.174,27.464-23.681,58.031-19.608,90.586c3.409,27.247,11.947,53.272,18.267,79.829c5.777,24.28,7.044,48.656-0.44,72.89      c-2.44,7.901-5.793,15.386-12.361,20.831c-1.694,1.404-3.9,2.191-5.87,3.261C113.144,313.504,112.888,313.086,112.632,312.669z"/>
				<g>
					<path style="fill:#FFFFFF;" d="M115.648,251.438c-0.11,4.898-4.219,8.617-9.29,8.41c-4.578-0.187-7.814-3.583-7.754-8.138       c0.067-5.044,4.395-9.248,9.318-9.05C112.425,242.841,115.757,246.627,115.648,251.438z"/>
					<path style="fill:#FFFFFF;" d="M141.699,129.626c-0.019,4.68-3.634,8.492-8.057,8.495c-4.439,0.003-8.025-3.804-8.012-8.504       c0.014-4.669,3.639-8.492,8.05-8.49C138.139,121.13,141.718,124.924,141.699,129.626z"/>
				</g>
			</g>
		</g>
		<g>
			<path style="fill:#FFFFFF;" d="M395.241,107.256c-4.204,2.971-8.365,6.003-12.62,8.898c-7.736,5.265-14.536,2.06-14.965-7.32     c-0.172-3.771,0.229-7.847,1.524-11.357c5.56-15.069,11.462-30.014,17.44-44.924c1.634-4.074,4.173-4.571,6.237-1.31     c9.466,14.956,18.788,30.065,21.979,47.856c0.776,4.328,0.772,9.04-0.045,13.353c-1.253,6.618-7.723,9.113-12.869,4.812     c-3.787-3.165-6.426-7.705-9.576-11.632C393.311,106.173,394.276,106.714,395.241,107.256z"/>
			<g>
				<path style="fill:#FFFFFF;" d="M377.802,469.857c0.762-1.296,1.441-2.65,2.299-3.879c19.271-27.615,23.755-58.322,19.588-91.052      c-3.468-27.241-12.041-53.252-18.308-79.82c-5.689-24.118-6.917-48.35,0.52-72.426c2.493-8.069,5.942-15.675,12.678-21.179      c1.621-1.325,3.84-1.918,6.086-2.334c-15.028,15.348-15.414,34.618-15.256,53.79c0.199,24.093,7.595,46.826,14.354,69.641      c6.473,21.849,10.239,44.127,10.217,66.976c-0.028,28.55-7.729,54.549-25.747,77.069c-1.398,1.748-3.41,3.005-5.136,4.49      C378.664,470.708,378.233,470.282,377.802,469.857z"/>
				<g>
					<path style="fill:#FFFFFF;" d="M406.025,269.771c-4.539,0.03-8.026-3.57-8.121-8.385c-0.097-4.924,3.78-8.76,8.899-8.806       c4.574-0.041,8.021,3.238,8.144,7.748C415.087,265.379,410.968,269.738,406.025,269.771z"/>
					<path style="fill:#FFFFFF;" d="M379.85,374.31c4.436-0.043,8.058,3.743,8.074,8.441c0.017,4.671-3.572,8.515-7.987,8.553       c-4.452,0.038-8.069-3.737-8.082-8.435C371.843,378.186,375.423,374.353,379.85,374.31z"/>
				</g>
			</g>
		</g>
	</g>
</g>















</svg>
