<?xml version="1.0" encoding="UTF-8"?>
<!-- Generator: Adobe Illustrator 27.2.0, SVG Export Plug-In . SVG Version: 6.00 Build 0)  -->
<svg xmlns="http://www.w3.org/2000/svg" xmlns:xlink="http://www.w3.org/1999/xlink" version="1.1" id="Capa_1" x="0px" y="0px" viewBox="0 0 512 512" style="enable-background:new 0 0 512 512;" xml:space="preserve" width="512" height="512">
<g>
	<path style="fill:#FFFFFF;" d="M121.224,469.103c-8.795,0-16.577-2.475-23.13-7.356c-35.191-26.213-62.688-102.237-63.841-105.461   c-1.818-5.081-0.353-10.738,3.655-14.299c-2.585-4.009-5.768-9.153-8.78-14.295l-2.495,0.352c-0.615,0.087-1.232,0.13-1.845,0.13   c-2.942,0-5.819-0.984-8.158-2.826c-2.827-2.226-4.622-5.51-4.969-9.09L0.062,196.536c-0.564-5.833,2.787-11.34,8.229-13.516   l84.18-33.672c1.578-0.631,3.24-0.943,4.898-0.943c2.246,0,4.484,0.574,6.489,1.706c1.316,0.744,2.476,1.698,3.446,2.809   c1.491,0.327,2.929,0.913,4.247,1.751c0.413,0.263,0.81,0.547,1.188,0.852l23.214-5.2l-4.592-45.595   c-0.658-6.53,3.586-12.55,9.958-14.124c1.057-0.262,2.121-0.388,3.168-0.388c4.384,0,8.515,2.197,10.96,5.859   c13.449-24.002,41.167-39.197,66.35-42.228c4.671-0.562,9.413-0.847,14.098-0.847c20.217,0,38.233,5.187,54.779,11.618   l10.445-15.803c2.493-3.772,6.668-5.917,11.004-5.917c1.427,0,2.872,0.232,4.28,0.716c5.685,1.951,9.331,7.5,8.866,13.492   l-1.678,21.666c4.245,1.861,8.537,3.7,12.815,5.424c4.913,1.981,9.755,3.836,14.497,5.653c8.056,3.088,15.854,6.077,23.362,9.405   c2.427-2.888,6.064-4.711,10.101-4.711c0.032,0,0.062,0,0.093,0c7.006,0.048,12.751,5.567,13.082,12.565l0.229,4.835   c17.239,11.649,29.151,26.598,37.199,46.551c10.672,26.456,11.634,56.684,2.71,85.115c-0.992,3.16-2.086,6.258-3.146,9.254   c-3.207,9.073-6.236,17.642-5.453,25.309c0.748,7.325,4.828,14.135,10.081,21.508l10.158-26.293   c1.997-5.171,6.951-8.437,12.296-8.437c0.982,0,1.978,0.111,2.971,0.34c6.396,1.476,10.732,7.429,10.176,13.968l-3.948,46.389   l31.499,8.674c6.107,1.682,10.155,7.466,9.644,13.778c-0.511,6.313-5.436,11.371-11.733,12.048l-27.485,2.96l0.844,27.42   c0.194,6.305-4.104,11.866-10.256,13.265c-0.978,0.222-1.961,0.329-2.93,0.329c-3.832,0.001-7.471-1.676-9.962-4.548   c-3.815,6.02-8.364,11.679-13.546,16.794c-1.413,1.396-2.896,2.779-4.438,4.139c1.778,9.981,3.133,18.42,4.017,24.175   c0.584,3.804-0.522,7.672-3.028,10.591c-2.505,2.919-6.16,4.6-10.008,4.6h-57.676c-4.115,0-7.919-1.913-10.381-5.053   c-2.898,0.543-5.827,1.037-8.776,1.483c-2.379,2.232-5.57,3.57-9.022,3.57H219.61c-6.008,0-11.257-4.061-12.765-9.876   c-1.665-6.416-3.166-12.289-4.494-17.574c-3.17,0.549-6.443,1.093-9.863,1.445c-0.228,0.024-0.457,0.047-0.688,0.067   C163.868,457.275,140.138,469.103,121.224,469.103z"/>
	<g>
		<path style="fill:#EBB1FF;" d="M223.371,65.298c-29.756,3.581-59.379,25.074-62.659,54.865c-1.27,11.54,1.399,23.105,2.274,34.681    c0.875,11.577-0.433,24.219-8.172,32.873c-6.478,7.244-16.264,10.396-24.362,15.769c-18.298,12.141-26.651,34.583-31.415,56.019    c-7.797,35.082-8.698,73.132,6.617,105.644c15.315,32.512,49.733,57.643,85.482,53.96c9.82-1.012,19.534-4.075,29.367-3.203    c15.003,1.33,27.522,11.436,41.094,17.967c24.575,11.825,53.198,11.94,80.207,8.163c31.353-4.385,63.291-14.45,85.818-36.692    c18.166-17.937,28.942-45.733,19.858-69.591c-7.895-20.736-29.267-35.809-31.521-57.883c-1.396-13.673,5.02-26.739,9.136-39.852    c7.765-24.74,7.343-52.184-2.358-76.231c-17.478-43.327-52.108-51.217-91.264-67.001C295.79,80.4,264.008,60.407,223.371,65.298z"/>
		<g>
			<g>
				<g>
					<polygon style="fill:#2F2444;" points="13.189,193.622 97.369,159.95 117.946,286.407 24.413,298.005 13.563,195.118      "/>
				</g>
				<g>
					<polygon style="fill:#FBEEE5;" points="14.311,193.622 104.477,164.159 110.37,211.861 20.859,237.115      "/>
				</g>
				<g>
					<polygon style="fill:#A27CFF;" points="13.189,193.622 24.787,313.344 125.429,299.127 116.075,177.16      "/>
				</g>
				<g>
					<g>
						<g>
							<g>
								<path style="fill:#2F2444;" d="M94.389,258.433l-8.594-15.672l-1.055-1.934l-6.836-12.485l-0.879-1.582l-2.594-4.77          l-1.89-3.429c-0.154-0.286-0.462-0.462-0.791-0.44c-0.33,0.044-0.594,0.242-0.703,0.55l-1.626,4.748l-1.451,4.176          l-0.593,1.714l-4.945,14.375l-0.725,2.11l-4.396,12.749c0,0,0,0,0,0.022l-1.209,3.473c-0.022,0.044-0.044,0.088-0.066,0.154          c-0.088,0.308,0.044,0.681,0.308,0.879c0.154,0.11,0.308,0.176,0.506,0.176c0.066,0,0.154-0.022,0.22-0.044          c0.022,0,0.044-0.022,0.044-0.022c0.022,0,0.044,0,0.044,0c0.418-0.088,1.978-0.264,4.286-0.505          c0.22-0.022,0.44-0.044,0.681-0.066h0.022c0.22-0.022,0.483-0.044,0.747-0.066h0.022c0.638-0.088,1.341-0.154,2.066-0.22          c0.22-0.022,0.44-0.044,0.659-0.066c0.264-0.022,0.571-0.044,0.857-0.088c1.253-0.11,2.572-0.242,3.978-0.374          c0.593-0.066,1.187-0.11,1.78-0.176c1.758-0.154,3.605-0.33,5.473-0.506c0.594-0.066,1.187-0.11,1.802-0.176          c4.902-0.462,9.913-0.923,14.221-1.297c0.264-0.022,0.527-0.198,0.637-0.44C94.521,258.961,94.521,258.675,94.389,258.433z           M80.124,259.202c-0.616,0.066-1.231,0.11-1.802,0.176c-2.616,0.242-4.924,0.44-6.946,0.637          c-0.616,0.066-1.209,0.11-1.78,0.176c-1.978,0.176-3.671,0.352-5.1,0.484c-0.352,0.044-0.681,0.088-0.989,0.11          c-0.242,0.022-0.505,0.044-0.725,0.066c-2.264,0.242-3.737,0.418-4.726,0.572l4.704-13.672l0.725-2.11l5.693-16.485          l0.593-1.714l1.561-4.572l0.659-1.89l0.813,1.473l2.44,4.484l0.879,1.583l7.891,14.397l1.055,1.934l7.275,13.254          C87.707,258.521,83.64,258.895,80.124,259.202z"/>
							</g>
							<g>
								<path style="fill:#2F2444;" d="M91.158,225.463c-0.198-0.154-0.484-0.198-0.725-0.132c-0.044,0.022-0.066,0.022-0.088,0.044          c-0.857,0.154-6.33,0.703-13.32,1.385c-0.593,0.044-1.187,0.11-1.78,0.176c-1.758,0.154-3.605,0.33-5.473,0.506          c-0.593,0.044-1.187,0.11-1.802,0.154c-4.901,0.462-9.913,0.923-14.221,1.297c-0.264,0.022-0.506,0.198-0.637,0.44          c-0.132,0.242-0.132,0.549,0,0.791l8.594,15.672l1.055,1.956l6.836,12.441l0.879,1.604l3.935,7.21l0.55,0.989          c0.132,0.264,0.418,0.418,0.725,0.418c0.022,0,0.022,0,0.044,0h0.022c0.33-0.022,0.593-0.242,0.703-0.549l3.077-8.924          l0.593-1.736l4.946-14.353l0.725-2.088l5.605-16.265c0.022-0.044,0.044-0.088,0.066-0.132          C91.553,226.034,91.443,225.683,91.158,225.463z M84.739,240.827l-0.725,2.088l-5.693,16.463l-0.594,1.736l-2.22,6.44          l-3.253-5.935l-0.879-1.605l-7.891-14.375l-1.055-1.956l-7.275-13.254c4.66-0.418,8.704-0.791,12.221-1.121          c0.615-0.044,1.231-0.11,1.802-0.154c2.616-0.242,4.924-0.462,6.946-0.637c0.616-0.066,1.209-0.11,1.78-0.176          c6.462-0.615,9.803-0.967,11.562-1.231L84.739,240.827z"/>
							</g>
						</g>
						<g>
							<path style="fill:#2F2444;" d="M107.599,239.552c-1.275-9.473-5.935-17.65-12.529-23.387         c-7.451-6.484-17.364-9.847-27.695-8.441c-13.76,1.846-24.618,11.671-28.816,24.398c-1.758,5.253-2.352,11.034-1.561,16.947         c1.033,7.649,4.242,14.617,9.254,20.178c1.385,1.561,2.901,2.989,4.572,4.308c0.571,0.462,1.165,0.901,1.758,1.297         c0.308,0.22,0.593,0.418,0.901,0.615c2.857,1.89,5.935,3.319,9.122,4.286c0.374,0.11,0.769,0.22,1.165,0.33         c2.857,0.769,5.803,1.143,8.792,1.143c0.308,0,0.616,0,0.923-0.044c0.22,0.022,0.462,0.022,0.703-0.022         c0.198,0.022,0.396,0,0.616-0.022c0.813-0.044,1.626-0.11,2.44-0.22C96.697,278.281,110.324,259.73,107.599,239.552z          M77.024,279.27c-0.418,0.066-0.835,0.11-1.253,0.132c-0.22,0.044-0.44,0.066-0.66,0.066H75.09         c-0.22,0.022-0.418,0.044-0.638,0.044h-0.022c-3.231,0.176-6.396-0.11-9.495-0.835c-0.396-0.088-0.791-0.198-1.165-0.308         c-3.275-0.901-6.418-2.33-9.32-4.242c-0.308-0.176-0.616-0.396-0.901-0.594c-0.593-0.418-1.165-0.835-1.714-1.275         c-1.758-1.407-3.363-2.945-4.792-4.616c-4.528-5.231-7.451-11.715-8.396-18.793c-0.813-6.045-0.11-11.935,1.846-17.277         c4.242-11.628,14.353-20.507,27.102-22.222c1.473-0.198,2.945-0.286,4.396-0.286c7.847,0,15.254,2.813,21.145,7.649         c6.748,5.495,11.562,13.584,12.836,23.057C108.566,259.049,95.576,276.787,77.024,279.27z"/>
						</g>
					</g>
					<g>
						<path style="fill:#2F2444;" d="M29.277,312.029c-0.141,0-0.26-0.106-0.274-0.249L17.779,193.087        c-0.014-0.151,0.097-0.285,0.248-0.299c0.142-0.024,0.284,0.096,0.299,0.248l11.224,118.693        c0.014,0.151-0.097,0.285-0.248,0.299C29.294,312.029,29.286,312.029,29.277,312.029z"/>
					</g>
				</g>
			</g>
			<g>
				<g>
					<path style="fill:#FF9393;" d="M65.193,362.355c0,0-7.67-16.836-12.721-23.944c-5.051-7.109-21.7-34.233-20.951-37.6       c0.748-3.367,22.074-46.579,22.074-46.579s3.741-0.187,3.741,4.864c0,5.051-1.263,11.551-1.263,11.551l7.436-9.868       c0,0,8.278,3.554,3.227,14.217l5.939-6.547c0,0,6.36,2.806,3.18,9.54c-3.18,6.734-14.591,23.57-14.591,23.57l16.275-18.145       c0,0,5.612,2.058,4.116,7.67c-1.497,5.612-9.166,16.088-9.166,16.088s7.857,5.051,11.972,14.217       c4.115,9.166,3.18,20.764,3.18,20.764l7.108,12.346l-25.441,14.965L65.193,362.355z"/>
				</g>
				<g>
					<path style="fill:#2F2444;" d="M37.414,297.151c-0.113,0-0.225-0.034-0.323-0.105c-0.246-0.179-0.299-0.523-0.121-0.767       l26.095-35.823c0.146-0.202,0.412-0.283,0.643-0.189c0.137,0.053,3.37,1.342,4.738,4.864c1.085,2.795,0.675,6.15-1.217,9.968       c-0.136,0.274-0.466,0.381-0.736,0.249c-0.273-0.135-0.383-0.465-0.249-0.736c1.747-3.524,2.144-6.576,1.183-9.069       c-0.927-2.405-2.911-3.645-3.74-4.074l-25.828,35.456C37.751,297.073,37.584,297.151,37.414,297.151z"/>
				</g>
				<g>
					<path style="fill:#2F2444;" d="M68.42,313.005c-0.112,0-0.224-0.034-0.322-0.104c-0.246-0.178-0.302-0.522-0.123-0.767       c0.106-0.147,10.634-14.73,12.55-20.748c1.521-4.778-1.741-6.786-2.836-7.31l-19.519,22.011       c-0.194,0.217-0.527,0.247-0.753,0.065c-0.229-0.181-0.275-0.511-0.105-0.749c0.151-0.212,15.155-21.356,18.047-27.644       c2.301-5.005-1.324-7.822-2.554-8.601l-26.828,32.424c-0.193,0.234-0.541,0.268-0.773,0.073       c-0.234-0.193-0.267-0.54-0.073-0.773l27.124-32.784c0.162-0.199,0.443-0.257,0.673-0.14c0.067,0.034,6.56,3.452,3.429,10.259       c-1.811,3.937-8.06,13.276-12.728,20.057l13.502-15.226c0.149-0.167,0.386-0.227,0.597-0.152       c0.06,0.021,5.946,2.22,3.846,8.821c-1.969,6.185-12.27,20.455-12.706,21.059C68.758,312.926,68.589,313.005,68.42,313.005z"/>
				</g>
			</g>
			<g>
				<g>
					<path style="fill:#F14537;" d="M291.197,112.6c-12.331,0.383-24.635,1.552-36.804,3.496c-6.99,1.117-14.111,2.555-20.108,6.167       c-11.869,7.149-17.008,21.739-15.961,35.115c0.298,3.806,0.968,7.874-0.897,11.248c-2.435,4.406-8.113,5.879-12.817,8.024       c-7.45,3.397-13.609,9.684-15.769,17.3c-2.16,7.616,0.093,16.44,6.301,21.64c2.691,2.254,6.236,4.115,7.103,7.434       c0.994,3.803-2.136,7.481-5.544,9.658c-4.578,2.925-9.991,4.493-14.536,7.464c-4.545,2.971-8.288,8.168-6.884,13.258       c1.184,4.29,5.771,7.648,5.366,12.068c-0.332,3.631-4.027,6.167-7.689,7.183c-3.661,1.016-7.591,1.04-11.16,2.32       c-4.98,1.786-8.88,6.099-10.01,11.069c-1.129,4.97,0.548,10.441,4.305,14.042c0.125,0-0.485,0.162-0.36,0.162h137.098       c17.053-20.323,25.576-45.755,27.076-71.771c1.5-26.016-3.419-52.023-10.544-77.172c-3.275-11.56-7.18-23.298-14.984-32.666       L291.197,112.6z"/>
				</g>
				<g>
					<g>
						<polygon style="fill:#FF9393;" points="309.883,279.49 263.307,279.49 263.021,251.861 262.735,226.166 287.199,199.526         303.706,181.546       "/>
					</g>
					<g style="opacity:0.38;">
						<path style="fill:#2F2444;" d="M289.024,216.912c-1.253,9.012-4.726,17.848-10.726,24.684        c-4.088,4.66-9.429,8.309-15.276,10.265l-0.286-25.695l24.464-26.64C289.727,204.867,289.837,211.066,289.024,216.912z"/>
					</g>
				</g>
				<g>
					<g>
						<path style="fill:#FF9393;" d="M314.552,166.778c0-25.002-20.268-45.27-45.27-45.27c-25.002,0-45.27,20.268-45.27,45.27        c0,1.861,0.146,3.684,0.365,5.486l-0.084,0.032c0,0,0,30.866,7.857,44.335c7.857,13.469,28.06,19.922,28.06,19.922        s24.412-5.612,34.794-19.361c3.86-5.112,6.594-12.978,8.507-20.844C310.373,188.412,314.552,178.093,314.552,166.778z"/>
					</g>
					<g>
						<g style="opacity:0.35;">
							<polygon style="fill:#2F2444;" points="245.899,198.439 254.223,198.299 251.23,201.385        "/>
						</g>
						<g>
							<path style="fill:#2F2444;" d="M239.131,183.894c0,2.686-1.584,4.864-3.537,4.864c-1.954,0-3.537-2.178-3.537-4.864         c0-2.686,1.584-4.864,3.537-4.864C237.547,179.031,239.131,181.208,239.131,183.894z"/>
						</g>
						<g>
							<path style="fill:#2F2444;" d="M270.966,183.894c0,2.686-1.584,4.864-3.537,4.864c-1.954,0-3.537-2.178-3.537-4.864         c0-2.686,1.584-4.864,3.537-4.864C269.382,179.031,270.966,181.208,270.966,183.894z"/>
						</g>
						<g>
							<path style="fill:#2F2444;" d="M251.137,201.467c-0.066,0-0.132-0.012-0.198-0.036l-4.864-1.871         c-0.222-0.086-0.364-0.304-0.351-0.542l1.123-21.326c0.016-0.301,0.284-0.549,0.577-0.519         c0.303,0.016,0.536,0.275,0.52,0.577l-1.101,20.927l4.492,1.727c0.283,0.109,0.424,0.427,0.316,0.71         C251.566,201.332,251.358,201.467,251.137,201.467z"/>
						</g>
						<g>
							<path style="fill:#2F2444;" d="M251.743,207.862c-1.454,0-3.013-0.273-4.658-0.817c-0.288-0.096-0.444-0.406-0.349-0.694         c0.094-0.288,0.402-0.448,0.694-0.349c2.187,0.723,4.195,0.932,5.96,0.622c2.062-0.363,3.854-1.504,4.793-3.053         c0.16-0.258,0.5-0.339,0.756-0.185c0.259,0.158,0.341,0.496,0.185,0.756c-1.102,1.816-3.174,3.148-5.542,3.564         C252.989,207.811,252.376,207.862,251.743,207.862z"/>
						</g>
						<g>
							<path style="fill:#F14537;" d="M229.305,174.107c-0.073,0-0.146-0.014-0.217-0.044c-0.279-0.12-0.408-0.443-0.289-0.722         c0.561-1.308,1.689-2.411,3.175-3.103c1.167-0.542,2.507-0.838,4.22-0.932c0.357-0.01,0.562,0.216,0.578,0.518         c0.017,0.303-0.216,0.562-0.518,0.578c-1.569,0.086-2.781,0.35-3.817,0.831c-1.24,0.579-2.173,1.48-2.627,2.54         C229.72,173.983,229.517,174.107,229.305,174.107z"/>
						</g>
						<g>
							<path style="fill:#F14537;" d="M272.088,173.033c-0.154,0-0.307-0.064-0.415-0.19c-0.901-1.04-2.25-1.797-3.798-2.129         c-1.349-0.291-2.837-0.284-4.544,0.015c-0.298,0.055-0.586-0.147-0.636-0.445c-0.053-0.299,0.147-0.584,0.445-0.637         c1.855-0.325,3.478-0.325,4.966-0.009c1.78,0.384,3.342,1.267,4.398,2.486c0.199,0.229,0.174,0.576-0.056,0.775         C272.343,172.989,272.216,173.033,272.088,173.033z"/>
						</g>
					</g>
				</g>
				<g>
					<path style="fill:#F14537;" d="M393.052,301.372H278.074c-0.814-0.372-1.182-1.059-2.065-0.914       c-7.998-9.275-7.964-24.462,0.077-33.701c5.495-6.314,13.634-9.539,20.504-14.318c3.795-2.64,7.533-6.443,7.336-11.062       c-0.168-3.941-3.226-7.199-6.608-9.23c-3.382-2.031-7.22-3.22-10.569-5.304c-9.935-6.184-13.573-20.654-7.742-30.801       c2.476-4.308,6.27-7.681,9.336-11.591c3.066-3.91,5.485-8.861,4.454-13.722c-0.821-3.871-3.729-7.02-7.065-9.149       c-3.336-2.129-7.126-3.409-10.789-4.906c-7.302-2.985-14.444-7.092-19.08-13.474c-4.636-6.382-5.803-14.525-1.825-21.337       c12.913-3.947,25.913-7.606,38.989-10.973c17.917-4.613,34.782,16.88,36.951,35.253c0.308,2.607,0.403,5.385,1.865,7.565       c2.558,3.815,7.903,4.1,12.405,5.009c8.092,1.634,15.832,7.165,18.004,15.129c2.356,8.637-2.099,17.532-6.594,25.274       c-2.576,4.435-5.154,10.283-1.951,14.288c2.599,3.25,7.448,3.17,11.609,3.139c6.052-0.046,12.316,0.696,17.537,3.757       c10.073,5.904,13.574,20.702,7.214,30.494c-2.504,3.854-6.168,6.821-8.861,10.546c-2.693,3.725-4.329,8.847-2.138,12.887       c2.206,4.066,7.262,5.436,11.04,8.104C395.435,286.094,394.184,294.952,393.052,301.372z"/>
				</g>
				<polygon style="fill:#2F2444;" points="321.56,139.97 306.14,131.64 312.12,54.445 269.516,118.898 245.62,115.69     "/>
				<g>
					<path style="fill:#F14537;" d="M224.178,148.46c8.031,1.562,16.656-0.197,23.434-4.78c6.778-4.582,11.625-11.931,13.168-19.965       c-8.024-1.559-16.461-0.057-23.068,4.756C231.106,133.285,227.007,140.791,224.178,148.46z"/>
				</g>
			</g>
			<g>
				<g>
					<path style="fill:#2F2444;" d="M423.433,445.045h-57.676l-19.013-45.081l-0.396-0.945l-9.473,46.027H220.533l-2.638-11.166       c-0.022-0.11-0.066-0.22-0.088-0.33l-8.089-34.377l-0.308-1.275c0,0-0.308,0.33-0.901,0.945       c-8.331,8.638-72.293,73.216-102.538,50.686c-32.399-24.134-59.303-99.329-59.303-99.329s5.121-4.198,12.397-0.418       c3.275,1.715,6.99,5.012,10.88,11.078c-1.604-2.747-8.308-15.056-2.967-18.529c5.715-3.693,18.793,8.66,20.2,10.001       c-1.209-1.429-13.496-16.529-0.44-23.453l0.044,0.066l28.508,38.092c0,0,38.268-43.125,64.842-66.798       c6.924-6.176,13.056-11.034,17.518-13.452c24.706-13.474,55.544-15.716,55.544-15.716l1.539-26.948c0,0,4.77,0.286,8.243,3.253       c1.033,0.923,1.956,2.044,2.572,3.495v0.022c0.33,0.681,0.572,1.407,0.725,2.22c0,0,0.725-1.539,1.934-3.517       c2.242-3.627,6.154-8.704,10.331-8.286c0.11-0.022,0.242,0,0.352,0.022c6.594,1.121,9.891,12.903,9.891,12.903       s2.967-17.035,12.309-17.035c0.571,0,1.099,0.044,1.605,0.154c2.044,0.396,3.583,1.561,4.726,3.033       c3.187,4.154,3.385,10.858,3.385,10.858l1.341,15.408v0.022l0.242,2.704c0,0,43.411,4.154,68.666,32.003       c1.011,1.077,1.978,2.198,2.901,3.363C404.288,330.133,418.905,415.592,423.433,445.045z"/>
				</g>
				<g>
					<g>
						<path style="fill:#FBEEE5;" d="M291.2,279.49c-0.813-8.067-4.902-14.199-9.759-14.199s-8.946,6.132-9.759,14.199        c-0.11,0.967-0.154,1.978-0.154,2.989c0,9.144,4.154,16.661,9.364,17.167c0.176,0.022,0.374,0.022,0.549,0.022        s0.374,0,0.55-0.022c5.209-0.505,9.363-8.023,9.363-17.167C291.354,281.468,291.31,280.457,291.2,279.49z M281.441,298.569        c-4.858,0-8.814-7.21-8.814-16.09c0-1.033,0.044-2.022,0.154-2.989c0.769-7.451,4.374-13.1,8.66-13.1s7.891,5.649,8.66,13.1        c0.11,0.967,0.154,1.956,0.154,2.989C290.255,291.36,286.298,298.569,281.441,298.569z"/>
					</g>
					<g>
						<path style="fill:#FBEEE5;" d="M281.99,299.119v145.927h-1.099V299.119c0-0.286,0.242-0.549,0.549-0.549        S281.99,298.833,281.99,299.119z"/>
					</g>
					<g>
						<path style="fill:#FBEEE5;" d="M220.775,445.045h-1.165c-3.627-13.979-9.21-35.894-10.924-45.169        c-0.066-0.33-0.11-0.681-0.176-1.033c-1.89-14.969,9.452-52.599,9.935-54.225c0.088-0.308,0.396-0.462,0.681-0.374        c0.286,0.088,0.44,0.396,0.352,0.681c-0.11,0.418-11.979,39.872-9.759,54.247c0,0.176,0.044,0.33,0.066,0.506        c1.275,7.012,4.792,21.299,8.023,33.871c0.022,0.11,0.066,0.22,0.088,0.33C218.907,437.88,219.896,441.704,220.775,445.045z"/>
					</g>
					<g>
						<path style="fill:#FBEEE5;" d="M346.898,399.107c-0.044,0.286-0.11,0.572-0.154,0.857        c-2.286,12.836-6.418,32.399-9.166,45.081h-1.121c2.813-12.946,7.1-33.278,9.364-46.115        c3.473-19.826-10.88-56.577-11.012-56.951c-0.11-0.286,0.022-0.594,0.308-0.703c0.286-0.11,0.594,0.022,0.703,0.308        C335.974,341.958,350.436,378.995,346.898,399.107z"/>
					</g>
				</g>
			</g>
		</g>
		<g>
			<polygon style="fill:#FFC945;" points="150.246,158.992 144.482,101.763 166.04,155.089 208.802,146.404 175.381,168.126      194.385,202.924 162.888,177.192 133.379,216.071 145.962,173.467 111.575,167.655    "/>
			<polygon style="fill:#FFC945;" points="440.891,330.152 461.621,276.499 456.743,333.81 498.812,345.395 459.182,349.663      460.401,389.293 443.939,352.101 400.041,373.441 430.526,341.127 402.48,320.397    "/>
			<polygon style="fill:#FBEEE5;" points="381.858,147.087 384.369,106.089 386.321,147.366 396.64,138.999 390.504,148.76      412.537,151.549 391.062,154.338 397.198,162.984 386.879,157.406 384.09,193.105 381.858,157.964 371.26,162.426      377.954,154.338 351.18,150.712 377.675,149.597 371.539,140.393    "/>
			<polygon style="fill:#FBEEE5;" points="134.625,341.56 137.135,300.562 139.088,341.839 149.407,333.472 143.271,343.234      165.304,346.023 143.829,348.812 149.965,357.458 139.646,351.88 136.857,387.579 134.625,352.437 124.027,356.9      130.721,348.812 103.947,345.186 130.442,344.07 124.306,334.867    "/>
		</g>
	</g>
</g>















</svg>
