<?xml version="1.0" encoding="UTF-8"?>
<!-- Generator: Adobe Illustrator 25.2.0, SVG Export Plug-In . SVG Version: 6.00 Build 0)  -->
<svg xmlns="http://www.w3.org/2000/svg" xmlns:xlink="http://www.w3.org/1999/xlink" version="1.1" id="Capa_1" x="0px" y="0px" viewBox="0 0 500 500" style="enable-background:new 0 0 500 500;" xml:space="preserve" width="512" height="512">
<g>
	<path d="M0.005,245.031c-0.086-11.223,2.773-21.292,10.552-29.872c13.356-14.732,26.258-29.877,39.623-44.601   c20.364-22.435,40.858-44.754,61.496-66.936c12.872-13.835,26.351-27.156,41.345-38.652c18.564-14.234,37.662-27.786,56.791-41.261   c5.881-4.143,12.365-7.69,19.018-10.427c16.175-6.656,31.673-4.702,45.864,5.626c7.248,5.275,14.161,11.005,21.329,16.394   c10.258,7.711,19.099,16.965,28.342,25.778c17.01,16.217,35.005,31.288,53.084,46.279c16.756,13.894,32.866,28.528,48.089,44.097   c14.857,15.195,29.534,30.566,44.329,45.821c6.745,6.955,13.673,13.735,20.335,20.767c2.453,2.588,4.494,5.596,6.524,8.548   c4.381,6.37,4.272,12.865,0.222,19.38c-5.585,8.985-11.766,17.515-18.971,25.289c-15.52,16.747-31.126,33.417-46.471,50.323   c-11.629,12.812-22.605,26.225-34.408,38.871c-23.371,25.04-47.065,49.783-72.783,72.476c-13.35,11.78-26.59,23.695-40.228,35.132   c-7.244,6.075-15.064,11.514-22.937,16.771c-6.656,4.445-14.135,6.809-22.299,5.304c-6.377-1.176-12.033-4.027-17.359-7.742   c-18.99-13.244-35.625-29.143-52.193-45.203c-11.02-10.682-22.999-20.371-34.453-30.612   c-16.111-14.406-32.504-28.524-48.095-43.476c-18.194-17.448-35.022-36.236-51.073-55.7c-6.622-8.03-13.553-15.804-20.178-23.832   c-8.143-9.865-13.967-20.846-15.357-33.809c-0.061-0.571-0.12-1.145-0.133-1.718C-0.01,247.042,0.005,246.036,0.005,245.031z    M6.009,245.266c0.333,2.774,0.549,5.567,1.02,8.317c1.81,10.556,7.477,19.153,14.117,27.198   c7.402,8.968,14.922,17.84,22.372,26.769c15.565,18.654,32.029,36.501,49.633,53.219c15.563,14.78,31.747,28.907,47.696,43.279   c11.788,10.621,24.009,20.793,35.373,31.847c15.417,14.997,31.204,29.474,48.871,41.806c13.552,9.46,23.186,9.139,34.736,1.139   c7.315-5.067,14.658-10.16,21.499-15.833c20.346-16.873,39.908-34.651,58.787-53.144c17.951-17.583,35.912-35.187,53.145-53.464   c22.803-24.183,44.996-48.945,67.264-73.626c10.865-12.043,21.551-24.255,29.976-38.264c3.524-5.861,3.597-11.229-0.589-16.536   c-3.331-4.224-6.647-8.5-10.373-12.363c-12.109-12.558-24.583-24.766-36.585-37.423c-21.518-22.694-44.227-44.126-67.949-64.468   c-18.314-15.705-37.05-30.919-54.402-47.716c-7.481-7.241-14.774-14.684-22.409-21.758c-8.383-7.767-17.718-14.35-27.019-20.981   c-7.371-5.254-15.531-7.716-24.361-7.987c-7.575-0.232-14.577,2.354-21.106,5.975c-5.456,3.026-10.902,6.162-15.962,9.793   c-14.464,10.381-28.634,21.17-43.1,31.547c-12.651,9.075-24.271,19.349-35.187,30.354c-13.547,13.657-26.703,27.711-39.763,41.84   c-13.499,14.604-26.722,29.464-39.986,44.283c-12.21,13.641-24.241,27.441-36.492,41.043   C8.722,227.315,6.312,235.823,6.009,245.266z"/>
	<path d="M242.086,29.506c8.931-0.032,15.363,2.513,21.579,6.094c12.736,7.338,23.78,16.86,34.522,26.708   c27.949,25.619,55.802,51.346,83.518,77.217c17.005,15.873,33.574,32.212,50.547,48.121c14.698,13.777,27.907,28.926,41.253,43.952   c1.31,1.474,1.83,3.756,2.356,5.757c0.158,0.604-0.824,1.595-1.418,2.294c-9.253,10.888-18.563,21.728-27.791,32.637   c-10.852,12.829-21.402,25.922-32.494,38.538c-32.945,37.472-67.814,73.047-105.734,105.539   c-13.631,11.68-27.423,23.174-41.26,34.609c-3.472,2.869-7.342,5.275-11.135,7.732c-6.905,4.474-14.169,4.852-21.82,1.914   c-6.457-2.479-12.183-6.123-17.56-10.345c-18.015-14.145-36.21-28.074-53.896-42.621c-28.252-23.239-54.823-48.305-80.214-74.671   c-11.004-11.427-21.038-23.533-30.499-36.196c-6.917-9.257-14.039-18.361-20.865-27.684c-2.188-2.989-3.773-6.429-5.548-9.709   c-4.507-8.326-3.846-16.497,1.245-24.261c4.799-7.32,9.589-14.682,14.921-21.612c22.229-28.895,46.509-55.978,72.175-81.879   c25.545-25.779,51.767-50.805,79.589-74.109c9.068-7.596,18.502-14.796,28.133-21.666C228.139,31.264,235.865,29.8,242.086,29.506z    M221.45,239.599c-0.095-0.919-0.176-1.476-0.207-2.035c-0.728-13.432-4.311-26.14-9.649-38.419   c-6.282-14.451-21.373-20.306-35.012-18.055c-13.849,2.285-24.785,9.952-33.204,21.067c-8.948,11.814-15.176,24.968-18.906,39.34   c-5.942,22.899-2.044,43.839,12.276,62.712c6.225,8.204,14.5,13.337,24.576,15.577c13.152,2.924,24.743,0.349,34.495-9.367   c8.003-7.974,14.228-17.078,18.206-27.663c3.916-10.422,6.006-21.253,6.882-32.324c0.129-1.623,0.722-2.168,2.271-2.712   c4.653-1.634,9.182-3.62,13.754-5.483c0.621-0.253,1.208-0.588,2.192-1.073c-0.502,1.206-0.831,1.98-1.149,2.759   c-4.056,9.922-4.252,19.72,1.186,29.222c1.114,1.947,1.258,3.796,1.055,5.94c-1.417,15.008-2.953,30.009-4.011,45.044   c-0.935,13.295,1.059,26.207,6.664,38.445c2.813,6.141,6.958,11.192,12.186,15.393c4.686,3.765,10.034,5.118,15.959,4.187   c6.955-1.093,12.357-4.819,16.789-10.088c5.616-6.677,9.584-14.298,12.423-22.501c5.448-15.744,7.944-32.009,8.295-48.628   c0.03-1.409,0.247-2.283,1.847-2.841c26.989-9.411,41.652-28.847,45.682-56.724c1.284-8.877,0.161-17.507-4.234-25.479   c-4.444-8.061-12.979-12.448-21.625-10.854c-4.494,0.829-8.866,2.329-13.278,3.578c-1.396,0.395-2.488,1.207-2.473,2.855   c0.015,1.67,1.2,2.332,2.563,2.782c5.527,1.823,9.46,5.543,11.591,10.811c1.462,3.614,2.607,7.514,2.997,11.376   c1.408,13.932-1.785,27.161-7.609,39.685c-1.79,3.85-5.065,7.067-7.926,10.342c-1.869,2.139-4.623,2.93-7.063,3.425   c-1.072-6.815-1.789-13.538-3.234-20.1c-2.947-13.382-7.868-25.933-16.763-36.657c-4.493-5.417-9.738-9.517-16.848-10.781   c-0.179-0.032-0.327-0.24-0.46-0.343c-0.024-0.196-0.067-0.338-0.056-0.475c0.442-5.562,2.283-10.212,6.355-14.484   c11.946-12.53,21.195-26.957,27.556-43.104c4.323-10.974,7.182-22.272,5.905-34.245c-0.59-5.535-2.062-10.707-6.052-14.862   c-4.593-4.783-10.732-6.063-16.47-2.758c-3.043,1.753-5.803,4.227-8.193,6.833c-4.41,4.807-7.305,10.628-9.814,16.612   c-5.186,12.372-8.365,25.347-11.18,38.4c-3.48,16.138-6.662,32.34-10.038,48.5c-0.247,1.183-0.73,2.65-1.609,3.316   c-6.198,4.688-12.747,8.84-19.987,11.762C226.009,238.353,223.784,238.876,221.45,239.599z M87.955,235.236   c0.018-7.592-5.354-13.16-12.677-13.142c-6.88,0.017-13.389,6.526-13.431,13.431c-0.046,7.619,5.935,13.983,13.154,13.998   C82.381,249.536,87.937,243.409,87.955,235.236z M403.194,245.935c6.531,0.013,12.184-5.637,12.228-12.219   c0.04-5.984-5.429-11.436-11.424-11.389c-6.758,0.052-12.009,5.222-11.973,11.788C392.061,240.641,397.052,245.923,403.194,245.935   z"/>
	<path d="M176.669,200.584c-4.668,11.513-3.104,22.507,3.174,32.637c6.43,10.376,17,14.221,28.913,15.861   c-0.246,1.919-0.429,3.809-0.739,5.677c-1.863,11.243-4.987,22.121-10.018,32.363c-1.758,3.579-3.855,7.094-6.355,10.188   c-7.334,9.077-19.818,8.854-27.19-0.209c-4.476-5.504-6.333-12.049-7.247-18.852c-2.488-18.517,0.326-36.473,6.244-54.038   c2.677-7.945,6.315-15.396,11.698-21.904C175.637,201.717,176.162,201.158,176.669,200.584z"/>
	<path d="M261.264,293.034c12.545,8.453,25.859,10.009,39.968,7.513c0.102,0.441,0.252,0.766,0.241,1.085   c-0.559,16.968-3.185,33.552-9.436,49.424c-2.379,6.041-5.59,11.635-9.868,16.564c-2.436,2.807-5.298,5.007-8.847,6.286   c-1.324,0.477-2.167,0.26-3.218-0.729c-7.532-7.092-10.864-16.015-11.611-26.096c-1.049-14.163,0.132-28.252,1.496-42.331   C260.347,301.06,260.789,297.377,261.264,293.034z"/>
	<path d="M290.621,293.195c-10.153,0.474-18.774-3.629-26.964-8.927c-0.616-0.398-0.918-1.842-0.801-2.725   c1.279-9.602,2.653-19.191,4.036-28.779c0.984-6.818,2.072-13.621,3-20.446c0.223-1.639,0.841-1.979,2.381-1.709   c4.323,0.755,7.68,3.072,10.522,6.252c5.316,5.949,9.401,12.65,12.167,20.144c3.905,10.581,6.15,21.487,6.586,32.774   c0.067,1.741-0.402,2.452-2.152,2.567C296.465,292.54,293.545,292.904,290.621,293.195z"/>
	<path d="M275.685,198.784c1.011-5.872,1.986-11.649,3.004-17.418c2.622-14.849,5.849-29.559,11.269-43.666   c2.05-5.335,4.609-10.507,7.324-15.544c2.46-4.563,4.052-4.441,6.533,0.166c3.076,5.712,2.952,11.898,2.195,18.075   c-1.254,10.235-4.849,19.735-9.517,28.855c-5.157,10.075-11.53,19.334-18.901,27.915c-0.42,0.489-0.865,0.956-1.317,1.416   C276.19,198.672,276.017,198.677,275.685,198.784z"/>
	<path d="M209.113,239.916c-17.028,0.015-30.586-17.259-25.549-32.644c0.975-2.978,2.779-5.847,4.784-8.288   c2.791-3.397,6.795-3.556,10.436-1.079c2.485,1.691,3.915,4.13,4.996,6.842c4.409,11.06,5.649,22.628,5.523,34.414   C209.301,239.364,209.204,239.566,209.113,239.916z"/>
</g>















</svg>
