<?xml version="1.0" encoding="UTF-8"?>
<!-- Generator: Adobe Illustrator 26.5.1, SVG Export Plug-In . SVG Version: 6.00 Build 0)  -->
<svg xmlns="http://www.w3.org/2000/svg" xmlns:xlink="http://www.w3.org/1999/xlink" version="1.1" id="Capa_1" x="0px" y="0px" viewBox="0 0 512 512" style="enable-background:new 0 0 512 512;" xml:space="preserve" width="512" height="512">
<g>
	<path style="fill:#FFFFFF;" d="M217.843,512c-2.479,0-4.707-0.264-6.809-0.805c-4.525-1.165-8.998-3.658-13.793-7.728H95.013   c-3.965,0-7.762-1.595-10.538-4.427c-2.776-2.83-4.296-6.659-4.218-10.622c0.132-6.666,3.049-151.715,8.97-213.111   c-17.169-7.17-26.136-25.835-30.954-35.864c-10.203-21.239-6.165-48.159,9.82-65.467c0.363-0.393,0.733-0.783,1.105-1.172   c-2.215-2.954-3.309-6.717-2.85-10.592c0.133-1.121,0.39-2.203,0.757-3.231c-0.634-1.51-1.271-3.076-1.872-4.751   c-6.988-19.448-4.008-41.318,7.778-57.076c5.442-7.277,12.491-12.099,18.71-16.353c5.268-3.604,10.242-7.008,12.383-10.775   c2.576-4.535,4.216-10.445,5.951-16.703c3.158-11.382,6.735-24.283,17.389-34.156c6.758-6.265,14.798-9.582,20.257-11.534   c15.779-5.638,31.951-6.651,44.491-6.836C195.906,0.269,199.787,0,203.743,0c1.872,0,3.801,0.06,5.731,0.179   c1.35,0.083,2.652,0.347,3.882,0.767c3.012,0.046,6.024,0.082,9.034,0.082c3.237,0,6.119-0.042,8.79-0.13   c1.701-0.18,3.185-0.289,4.631-0.341c1.316-0.048,2.647-0.073,3.981-0.073c18.197,0,33.24,4.551,44.712,13.526   c15.204,11.898,21.943,31.767,17.205,48.523c15.706,17.581,18.877,44.335,6.556,62.795c-0.414,0.62-0.838,1.223-1.267,1.808   h134.887c9.612,0,17.432,7.82,17.432,17.432v55.641c0,9.613-7.82,17.433-17.432,17.433h-6.656c-0.178,0-0.355-0.004-0.533-0.01   c-0.182,0.006-0.365,0.01-0.548,0.01h-26.262v129.226c4.302,4.673,7.413,11.041,7.45,18.143c2.35,4.281,3.969,9.471,3.799,14.992   c1.792,4.23,2.905,9.592,1.883,15.417c1.863,7.109,1.674,16.734-5.704,25.165c-1.688,1.927-4.007,3.834-7.428,6.051v63.213   c0,8.15-6.607,14.758-14.758,14.758H283.213c-2.018,0-3.942-0.406-5.694-1.139h-26.098C236.266,509.281,225.55,512,217.843,512z"/>
	<g>
		<path style="fill:#2E1144;" d="M172.127,263.314h124.895c0.923,0,3.284-0.692,4.194-0.847    c13.762-14.629,14.616-39.606,1.885-55.141c11.113-9.755,14.007-27.637,6.539-40.399c-4.817-8.231-12.982-13.871-21.071-18.923    c-2.269-1.417-4.737-3.045-5.445-5.625c-0.336-1.224-0.224-2.529,0.041-3.77c1.69-7.927,8.937-13.243,13.436-19.985    c9.959-14.923,4.693-36.742-8.966-48.374c-0.773-0.659-1.607-1.346-1.918-2.313c-0.451-1.404,0.337-2.867,0.982-4.192    c6.019-12.368,0.155-28.146-10.678-36.622c-10.833-8.476-25.327-10.826-39.073-10.329c-32.448,1.174-58.29,31.365-71.376,61.081    c-13.085,29.716-15.487,62.981-15.346,95.45c0.119,27.533,2.169,55.965,14.662,80.5"/>
		<path style="fill:#B179FF;" d="M165.103,171.877c0,0-51.274,46.15-58.556,89.843c-7.282,43.694-10.923,228.48-10.923,228.48    h191.159c0,0,8.648-161.575,4.551-180.235c-4.096-18.661-63.293-125.568-63.293-125.568L165.103,171.877z"/>
		<g>
			<rect x="283.823" y="217.572" style="fill:#2E1144;" width="109.916" height="273.767"/>
			<g>
				<g>
					<path style="fill:#FFE7DE;" d="M290.548,226.595v257.768h95.54V226.595H290.548z M384.083,482.358h-91.529V228.601h91.529       V482.358z"/>
				</g>
				<g>
					<rect x="371.355" y="226.595" style="fill:#FFE7DE;" width="2.005" height="257.768"/>
				</g>
				<g>
					<rect x="354.268" y="226.595" style="fill:#FFE7DE;" width="2.005" height="257.768"/>
				</g>
				<g>
					<rect x="337.208" y="226.595" style="fill:#FFE7DE;" width="2.005" height="225.467"/>
					<rect x="337.208" y="468.721" style="fill:#FFE7DE;" width="2.005" height="15.643"/>
				</g>
				<g>
					<rect x="320.149" y="226.595" style="fill:#FFE7DE;" width="2.005" height="257.768"/>
				</g>
				<g>
					<rect x="303.062" y="226.595" style="fill:#FFE7DE;" width="2.005" height="257.768"/>
				</g>
				<g>
					<rect x="290.548" y="244.778" style="fill:#FFE7DE;" width="2.005" height="2.006"/>
					<rect x="303.062" y="244.778" style="fill:#FFE7DE;" width="19.092" height="2.006"/>
					<rect x="337.208" y="244.778" style="fill:#FFE7DE;" width="48.88" height="2.006"/>
				</g>
				<g>
					<rect x="290.548" y="263.442" style="fill:#FFE7DE;" width="95.54" height="2.005"/>
				</g>
				<g>
					<rect x="290.548" y="282.106" style="fill:#FFE7DE;" width="95.54" height="2.006"/>
				</g>
				<g>
					<rect x="290.548" y="300.77" style="fill:#FFE7DE;" width="95.54" height="2.005"/>
				</g>
				<g>
					<rect x="290.548" y="319.435" style="fill:#FFE7DE;" width="2.005" height="2.006"/>
					<rect x="303.062" y="319.435" style="fill:#FFE7DE;" width="83.026" height="2.006"/>
				</g>
				<g>
					<rect x="290.548" y="338.099" style="fill:#FFE7DE;" width="2.005" height="2.005"/>
					<rect x="303.062" y="338.099" style="fill:#FFE7DE;" width="83.026" height="2.005"/>
				</g>
				<g>
					<rect x="290.548" y="356.763" style="fill:#FFE7DE;" width="2.005" height="2.006"/>
					<rect x="303.062" y="356.763" style="fill:#FFE7DE;" width="83.026" height="2.006"/>
				</g>
				<g>
					<rect x="290.548" y="375.4" style="fill:#FFE7DE;" width="2.005" height="2.006"/>
					<rect x="303.062" y="375.4" style="fill:#FFE7DE;" width="83.026" height="2.006"/>
				</g>
				<g>
					<rect x="290.548" y="394.064" style="fill:#FFE7DE;" width="2.005" height="2.005"/>
					<rect x="303.062" y="394.064" style="fill:#FFE7DE;" width="83.026" height="2.005"/>
				</g>
				<g>
					<rect x="290.548" y="412.728" style="fill:#FFE7DE;" width="95.54" height="2.005"/>
				</g>
				<g>
					<rect x="290.548" y="431.393" style="fill:#FFE7DE;" width="95.54" height="2.006"/>
				</g>
				<g>
					<rect x="290.548" y="450.057" style="fill:#FFE7DE;" width="31.606" height="2.005"/>
					<rect x="337.208" y="450.057" style="fill:#FFE7DE;" width="48.88" height="2.005"/>
				</g>
				<g>
					<rect x="290.548" y="468.721" style="fill:#FFE7DE;" width="2.005" height="2.005"/>
					<rect x="303.062" y="468.721" style="fill:#FFE7DE;" width="83.026" height="2.005"/>
				</g>
			</g>
		</g>
		<g>
			<g>
				<g>
					<g>
						<path style="fill:#FF93E2;" d="M276.442,102.147l0.09,30.787c0.24,5.986-2.1,11.163-5.506,15.259        c-5.881,7.067-10.906,9.866-19.685,10.457l-21.17,0.375l-3.361,0.06l0.585,12.093l0.645,13.218l7.311,29.079l-71.691-33.715        l-4.246-73.683l-3.661-22.34l0.225-0.03c-0.135-1.68-0.225-3.376-0.225-5.086c0-33.563,27.202-60.765,60.765-60.765        c33.563,0,54.598,21.32,59.714,54.493c0.57,3.736,0.285,11.298,0.165,16.609L276.442,102.147z"/>
						<g>
							<g>
								
									<ellipse transform="matrix(0.7071 -0.7071 0.7071 0.7071 -30.5306 176.2639)" style="opacity:0.44;fill:#B179FF;" cx="197.504" cy="124.986" rx="23.24" ry="23.24"/>
								<path style="opacity:0.46;fill:#B179FF;" d="M276.532,132.934c0.24,5.986-2.1,11.163-5.506,15.259          c-12.333-0.54-22.19-10.713-22.19-23.211c0-12.828,10.413-23.241,23.241-23.241c1.485,0,2.956,0.135,4.366,0.405          L276.532,132.934z"/>
							</g>
							<g>
								<path style="fill:#2E1144;" d="M213.261,104.242c0,3.522-2.855,6.378-6.378,6.378c-3.523,0-6.378-2.855-6.378-6.378          c0-3.523,2.855-6.378,6.378-6.378C210.406,97.864,213.261,100.72,213.261,104.242z"/>
								<path style="fill:#2E1144;" d="M267.223,104.242c0,3.522-2.856,6.378-6.378,6.378c-3.523,0-6.378-2.855-6.378-6.378          c0-3.523,2.855-6.378,6.378-6.378C264.367,97.864,267.223,100.72,267.223,104.242z"/>
								<g>
									<path style="fill:#2E1144;" d="M198.023,84.721c-0.368,0.48-0.675,1.026-0.638,1.595c0.052,0.805,0.799,1.487,1.672,1.827           c0.873,0.34,1.859,0.399,2.821,0.438c3.29,0.132,6.691,0.063,9.719-1.022c1.048-0.376,2.074-0.899,2.679-1.709           c0.974-1.306,0.559-3.147-0.749-4.23C209.356,78.166,200.717,81.212,198.023,84.721z"/>
									<path style="fill:#2E1144;" d="M269.471,84.551c0.368,0.48,0.675,1.026,0.638,1.595c-0.052,0.805-0.799,1.487-1.672,1.827           c-0.873,0.34-1.86,0.399-2.821,0.438c-3.29,0.132-6.691,0.063-9.719-1.022c-1.049-0.376-2.075-0.899-2.679-1.709           c-0.974-1.306-0.559-3.147,0.749-4.23C258.138,77.995,266.777,81.041,269.471,84.551z"/>
								</g>
								
									<path style="fill:none;stroke:#2E1144;stroke-width:1.7505;stroke-linecap:round;stroke-linejoin:round;stroke-miterlimit:10;" d="          M228.724,112.663c0,0,1.788,11.843,8.044,11.62c6.257-0.224,7.087-12.258,7.087-12.258"/>
							</g>
						</g>
						<path style="opacity:0.44;fill:#2E1144;" d="M226.8,159.791l0.595,11.387c-5.116,2.476-11.388,3.871-18.394,2.071        c-18.904-4.846-25.811-15.598-25.811-15.598l43.712,1.528L226.8,159.791z"/>
					</g>
					<path style="fill:#FF93E2;" d="M175.548,101.814c0,0-23.755-18.038-32.969-6.573c-9.214,11.464-6.973,32.25,19.927,35.919       L175.548,101.814z"/>
				</g>
			</g>
			<path style="fill:#2E1144;" d="M164.465,183.967c2.051-3.644,2.293-8.25,0.637-12.09c-0.369-0.857-0.839-1.741-0.72-2.666     c0.221-1.721,2.202-2.5,3.824-3.116c11.023-4.19,17.778-16.071,18.665-27.83s-3.156-23.361-8.411-33.918     c-0.344-0.69-0.703-1.444-0.552-2.201c0.239-1.202,1.577-1.772,2.7-2.264c9.987-4.372,14.36-16.52,13.997-27.416     c-0.144-4.337-0.801-8.966,1.269-12.781c2.495-4.598,8.031-6.411,12.972-8.131c7.813-2.719,15.551-6.302,21.378-12.175     c5.827-5.873,9.48-14.407,7.803-22.509c-28.482,1.778-57.877-3.45-84.752,6.151c-5.496,1.964-10.91,4.493-15.19,8.46     c-12.748,11.816-11.955,32.213-20.541,47.326c-7.104,12.505-23.493,17.159-32.106,28.676c-9.072,12.131-10.83,28.99-5.707,43.245     c1.74,4.842,4.207,9.422,5.586,14.38c1.38,4.957,1.547,10.57-1.143,14.956c-1.244,2.028-3.015,3.666-4.629,5.414     c-11.914,12.901-14.964,33.234-7.359,49.062c7.605,15.829,16.843,31.605,34.359,30.365c-1.364,0.079,10.022-25.629,10.989-27.281     c6.359-10.864,13.997-22.016,23.169-30.726C148.726,199.281,158.867,193.913,164.465,183.967z"/>
			<g>
				<path style="fill:#B179FF;" d="M150.809,78.868c0,0-2.731-66.223,58.372-62.468c0,0-27.215,8.998-36.184,26.626      c-9.899,19.457-8.875,37.208-8.875,37.208L150.809,78.868z"/>
				<g>
					<g>
						<ellipse style="fill:#FFAFA0;" cx="155.929" cy="105.153" rx="26.626" ry="33.453"/>
						<g>
							<ellipse style="fill:#B179FF;" cx="150.126" cy="105.153" rx="26.626" ry="33.453"/>
						</g>
					</g>
					
						<path style="fill:none;stroke:#2E1144;stroke-width:1.7505;stroke-linecap:round;stroke-linejoin:round;stroke-miterlimit:10;" d="       M160.708,104.811c0,13.385-5.731,24.236-12.801,24.236c-7.07,0-12.801-10.851-12.801-24.236s5.731-24.236,12.801-24.236       C154.977,80.575,160.708,91.426,160.708,104.811z"/>
				</g>
			</g>
		</g>
		<g>
			<g>
				<path style="fill:#FF93E2;" d="M168.445,439.225c0,0,30.108,54.848,46.879,59.168c22.529,5.803,148.148-64.858,148.148-64.858      l-26.171-56.665l-84.201,36.411l-3.186-8.193L168.445,439.225z"/>
				<path style="fill:#FF93E2;" d="M320.462,384.235c0,0,65.186-55.387,67.743-51.978c2.556,3.409-12.356,30.25-12.356,30.25      l19.172-6.391c0,0,8.521,5.539,5.539,14.06c0,0,6.391,6.817,3.834,14.06c0,0,5.113,5.965,1.704,13.208      c0,0,4.687,8.095-1.278,14.912c-5.965,6.817-51.247,26.643-51.247,26.643L320.462,384.235z"/>
			</g>
			
				<path style="fill:none;stroke:#2E1144;stroke-width:1.7505;stroke-linecap:round;stroke-linejoin:round;stroke-miterlimit:10;" d="     M210.773,267.637c21.847,22.757,51.886,132.901,51.886,132.901l-118.336,47.789l-30.95-83.29"/>
		</g>
		<g>
			<g>
				<g>
					<path style="fill:#B179FF;" d="M442.496,204.373h-6.656l-138.59-17.751c-1.477,0-0.228,0.567-0.228-0.91l3.641-31.405       c0-1.477-1.022,0,0.455,0l134.039-10.923h7.339c1.477,0,2.674,1.197,2.674,2.674v55.641       C445.17,203.176,443.973,204.373,442.496,204.373z"/>
					<path style="fill:#FFE7DE;" d="M434.759,204.373H279.443c-1.477,0-2.674-1.197-2.674-2.674v-55.641       c0-1.477,1.197-2.674,2.674-2.674h155.316c1.477,0,2.674,1.197,2.674,2.674v55.641       C437.433,203.176,436.236,204.373,434.759,204.373z"/>
				</g>
				<g>
					<g>
						
							<ellipse transform="matrix(0.2308 -0.973 0.973 0.2308 68.5083 433.5049)" style="fill:#FFC666;" cx="308.43" cy="173.423" rx="20.823" ry="20.823"/>
						
							<ellipse transform="matrix(0.228 -0.9737 0.9737 0.228 69.2571 434.1938)" style="fill:none;stroke:#2E1144;stroke-width:0.6117;stroke-miterlimit:10;" cx="308.431" cy="173.424" rx="18.116" ry="18.116"/>
						
							<rect x="307.077" y="160.93" style="fill:none;stroke:#2E1144;stroke-width:0.6117;stroke-miterlimit:10;" width="3.279" height="25.143"/>
					</g>
					<g>
						
							<ellipse transform="matrix(0.2308 -0.973 0.973 0.2308 105.0275 479.6991)" style="fill:#FFC666;" cx="355.906" cy="173.423" rx="20.823" ry="20.823"/>
						<path style="fill:none;stroke:#2E1144;stroke-width:0.6117;stroke-miterlimit:10;" d="M374.022,173.423        c0,10.005-8.111,18.116-18.116,18.116c-10.005,0-18.116-8.111-18.116-18.116c0-10.005,8.111-18.116,18.116-18.116        C365.911,155.308,374.022,163.418,374.022,173.423z"/>
						
							<rect x="354.553" y="160.93" style="fill:none;stroke:#2E1144;stroke-width:0.6117;stroke-miterlimit:10;" width="3.28" height="25.143"/>
					</g>
					<g>
						
							<ellipse transform="matrix(0.5293 -0.8484 0.8484 0.5293 42.7274 423.865)" style="fill:#FFC666;" cx="403.382" cy="173.423" rx="20.823" ry="20.823"/>
						
							<ellipse transform="matrix(0.9891 -0.1472 0.1472 0.9891 -21.1281 61.2455)" style="fill:none;stroke:#2E1144;stroke-width:0.6117;stroke-miterlimit:10;" cx="403.382" cy="173.424" rx="18.116" ry="18.116"/>
						
							<rect x="402.028" y="160.93" style="fill:none;stroke:#2E1144;stroke-width:0.6117;stroke-miterlimit:10;" width="3.28" height="25.143"/>
					</g>
				</g>
			</g>
			<g>
				<path style="fill:#FFC666;" d="M105.788,156.018c-3.116-4.898-4.485-10.717-5.088-16.491h-0.042      c-0.603,5.774-1.972,11.593-5.088,16.491c-3.116,4.898-8.188,8.781-13.958,9.42c9.583,3.455,18.254,14.574,18.851,24.744      l0.031,0.523l-0.003,0.837l0.036-0.286l0.01,0.176l0.001-0.263l0.027-0.214c0.597-10.17,9.598-22.06,19.181-25.515      C113.976,164.799,108.904,160.916,105.788,156.018z"/>
				<path style="fill:#FFC666;" d="M275.1,245.452c-3.116-4.898-4.485-10.717-5.088-16.491h-0.042      c-0.603,5.774-1.972,11.593-5.088,16.491c-3.116,4.898-8.188,8.781-13.958,9.421c9.583,3.455,18.254,14.574,18.851,24.743      l0.031,0.523l-0.003,0.836l0.036-0.286l0.01,0.175l0.001-0.263l0.027-0.215c0.596-10.17,9.598-22.06,19.181-25.515      C283.288,254.234,278.216,250.35,275.1,245.452z"/>
				<path style="fill:#FFC666;" d="M130.366,450.948c-3.116-4.898-4.485-10.718-5.088-16.491h-0.042      c-0.603,5.773-1.972,11.593-5.088,16.491c-3.116,4.898-8.188,8.781-13.958,9.42c9.583,3.455,18.254,14.574,18.851,24.744      l0.031,0.523l-0.004,0.836l0.036-0.286l0.01,0.175l0.001-0.263l0.027-0.214c0.597-10.17,9.598-22.06,19.181-25.515      C138.553,459.729,133.481,455.846,130.366,450.948z"/>
			</g>
		</g>
	</g>
</g>















</svg>
