<svg clip-rule="evenodd" fill-rule="evenodd" stroke-linejoin="round" stroke-miterlimit="2" viewBox="0 0 100 101" xmlns="http://www.w3.org/2000/svg" xmlns:serif="http://www.serif.com/"><path d="m59.322 40.143c-.415.82-.248 1.816.412 2.457h.001c.59.574 1.463.746 2.227.44 4.962-1.99 13.845-5.552 18.994-7.616 3.878-1.555 8.309-.647 11.263 2.306.183.184.371.371.56.561 2.088 2.088 3.194 4.963 3.042 7.912-.151 2.95-1.545 5.697-3.836 7.561-1.93 1.57-4.135 3.364-6.235 5.072-3.595 2.926-4.856 7.858-3.105 12.15.001.001.001.002.001.003 3.418 8.377.754 18.006-6.485 23.435-.397.298-.798.599-1.2.9-8.504 6.378-20.463 5.249-27.623-2.609-1.081-1.186-2.112-2.318-3.012-3.306-1.324-1.452-3.177-2.311-5.141-2.383-.567-.02-1.133-.041-1.666-.06-1.282-.047-2.553.244-3.686.844-3.105 1.642-8.275 4.377-11.877 6.283-3.714 1.964-8.181 1.86-11.799-.276 0 0-.001-.001-.002-.001-3.484-2.057-5.805-5.626-6.272-9.644-.467-4.019.973-8.024 3.892-10.825 3.407-3.269 6.952-6.671 8.815-8.458.317-.305.54-.695.64-1.124 0 0 0-.001.001-.002.532-2.276-.329-4.651-2.196-6.057-2.349-1.769-5.161-3.887-7.655-5.765-2.538-1.911-4.172-4.788-4.514-7.948-.341-3.159.64-6.319 2.711-8.729l.003-.003c3.636-4.231 9.836-5.131 14.525-2.107 2.399 1.547 5.235 3.376 7.672 4.948 1.689 1.089 3.914.822 5.298-.636v-.001c.409-.431.64-1 .648-1.594.024-1.919.06-4.762.099-7.797.06-4.781 2.38-9.251 6.255-12.053 3.875-2.801 8.847-3.603 13.406-2.162.001 0 .001 0 .002.001 4.11 1.299 7.443 4.337 9.115 8.31 1.673 3.974 1.517 8.481-.427 12.328zm35.947-37.379c1.938 1.243 3.228 3.299 3.615 5.893.425 2.844-.306 6.479-2.431 9.794-2.126 3.315-5.124 5.497-7.886 6.298-2.519.731-4.925.417-6.863-.826-1.939-1.243-3.228-3.298-3.616-5.892-.425-2.844.306-6.479 2.432-9.795 2.125-3.315 5.124-5.497 7.885-6.298 2.519-.73 4.925-.416 6.864.826zm-91.547 2.55c1.462-1.004 3.302-1.337 5.26-.836 1.91.49 4.035 1.89 5.563 4.117 1.528 2.226 2.071 4.713 1.841 6.671-.236 2.007-1.209 3.604-2.671 4.608-1.463 1.004-3.303 1.337-5.26.835-1.911-.489-4.036-1.889-5.564-4.116s-2.07-4.713-1.84-6.671c.235-2.007 1.208-3.604 2.671-4.608z"/></svg>