<?xml version="1.0" encoding="iso-8859-1"?>
<!-- Generator: Adobe Illustrator 26.5.1, SVG Export Plug-In . SVG Version: 6.00 Build 0)  -->
<svg xmlns="http://www.w3.org/2000/svg" xmlns:xlink="http://www.w3.org/1999/xlink" version="1.1" id="Capa_1" x="0px" y="0px" viewBox="0 0 512 512" style="enable-background:new 0 0 512 512;" xml:space="preserve">
<g>
	<path style="fill:#FFFFFF;" d="M255.658,511.232c-63.256-0.006-127.46-26.567-176.15-72.874   c-24.09-22.911-43.218-49.297-56.85-78.425C8.349,329.36,0.851,297.276,0.372,264.566c-2.872-56.074,10.948-108.481,39.995-151.751   c2.108-20.339,11.448-39.142,26.479-53.192c15.288-14.29,35.095-22.353,55.968-22.828c41.175-23.577,88.331-36.027,136.55-36.027   c54.365,0,105.272,15.673,148.052,45.453c2.534-3.026,6.333-4.898,10.445-4.898c1.238,0,2.471,0.169,3.667,0.503l19.348,5.414   c3.505,0.979,6.418,3.267,8.202,6.44c1.779,3.165,2.22,6.837,1.242,10.336l-4.293,15.346c0.197,0.206,0.389,0.409,0.58,0.611   c32.792,32.557,55.76,84.071,63.023,141.365c3.612,28.494,3.095,56.373-1.539,82.861c-4.956,28.332-14.408,53.576-28.096,75.039   c-12.789,22.274-28.888,42.582-47.849,60.358c-36.069,33.904-80.222,56.852-127.691,66.359   c-15.937,3.503-32.346,5.278-48.774,5.278C255.673,511.232,255.666,511.232,255.658,511.232z"/>
	<g>
		<g>
			<g>
				<g>
					<path style="fill:#6E72FF;" d="M471.494,374.167c-12.374,21.596-28.039,41.301-46.197,58.324       c-34.113,32.065-77.12,54.769-123.082,63.959C159.801,527.812,11.753,409.303,9.741,264.173       C-2.622,25.913,292.081-69.513,439.453,86.624C503.553,150.135,525.635,289.523,471.494,374.167z"/>
				</g>
			</g>
		</g>
		<g>
			<g>
				<g>
					<g>
						<path style="fill:#412945;" d="M351.757,450.742c-0.586,0.247,0.801-3.801,0.206-3.573c-0.519,0.2-3.018,4.679-3.543,4.863        c-11.76,4.176-25.043,4.876-38.186,1.199l-109.184-30.542c-33.846-9.468-53.265-44.119-42.642-76.096l81.845-246.419        c9.953-29.965,42.758-46.568,74.473-37.697l89.6,25.064l9.442-33.755c0.592-2.116,2.79-3.354,4.907-2.762l19.346,5.412        c2.124,0.594,3.354,2.79,2.762,4.906l-10.766,38.486c2.641,2.086,5.095,4.368,7.33,6.813c0.459,0.497-0.005,7.687,0.436,8.2        c0.322,0.375,1.553-5.931,1.864-5.548c11.618,14.213,16.55,33.171,11.695,51.739l-65.589,250.966        C381.032,430.059,368.105,443.847,351.757,450.742z"/>
					</g>
					<g>
						<g>
							<g>
								<path style="fill:#B5E1E8;" d="M351.757,450.742c-1.097,0.462-2.21,0.895-3.337,1.291          c12.885-24.044,30.081-90.926,46.759-155.778c8.759-34.061,17.033-66.241,24.402-91.108          c14.197-47.885,17.35-80.853,17.765-98.505c0.793,0.859,1.563,1.744,2.301,2.653c-0.672,18.423-4.207,50.746-17.776,96.534          c-7.359,24.829-15.624,56.978-24.379,91.024C381.333,359.7,364.672,424.465,351.757,450.742z"/>
							</g>
						</g>
						<g>
							<g>
								<g>
									<path style="fill:#B5E1E8;" d="M360.687,262.788l-120.404-33.68c-7.623-2.132-12.074-10.04-9.941-17.663l25.63-91.624           c2.132-7.623,10.04-12.074,17.663-9.941l120.404,33.68c7.623,2.132,12.074,10.04,9.941,17.663l-25.63,91.624           C376.218,260.469,368.31,264.92,360.687,262.788z"/>
								</g>
							</g>
							<g>
								<g>
									<path style="fill:#B5E1E8;" d="M256.682,255.256l-24.607-6.883c-4.862-1.36-9.925,1.49-11.285,6.352l-4.417,15.788           c-1.36,4.861,1.49,9.925,6.352,11.285l24.607,6.883c4.861,1.36,9.925-1.49,11.285-6.352l4.417-15.788           C264.393,261.679,261.543,256.616,256.682,255.256z M256.316,281.686c-1.006,3.596-4.745,5.701-8.341,4.695l-24.607-6.883           c-3.589-1.004-5.701-4.745-4.695-8.341l4.417-15.788c1.006-3.596,4.752-5.698,8.341-4.695l24.607,6.883           c3.596,1.006,5.701,4.745,4.695,8.341L256.316,281.686z"/>
								</g>
							</g>
							<g>
								<g>
									<path style="fill:#B5E1E8;" d="M357.708,283.516l-24.607-6.883c-4.862-1.36-9.925,1.49-11.285,6.352l-4.417,15.788           c-1.36,4.862,1.49,9.925,6.351,11.285l24.607,6.883c4.861,1.36,9.925-1.49,11.285-6.352l4.417-15.788           C365.419,289.939,362.569,284.876,357.708,283.516z M357.342,309.946c-1.006,3.596-4.752,5.698-8.341,4.695l-24.607-6.883           c-3.596-1.006-5.701-4.745-4.695-8.341l4.417-15.788c1.006-3.596,4.745-5.701,8.341-4.695l24.607,6.883           c3.589,1.004,5.701,4.745,4.695,8.341L357.342,309.946z"/>
								</g>
							</g>
							<g>
								<g>
									<g>
										<path style="fill:#B5E1E8;" d="M246.047,300.575l-21.348-5.972c-4.217-1.18-8.606,1.297-9.786,5.514l-3.833,13.703            c-1.18,4.217,1.287,8.611,5.504,9.791l21.348,5.972c4.217,1.18,8.614-1.295,9.793-5.512l3.833-13.703            C252.739,306.151,250.265,301.754,246.047,300.575z M245.732,323.513c-0.873,3.121-4.121,4.949-7.242,4.076l-21.348-5.971            c-3.113-0.871-4.941-4.119-4.068-7.24l3.833-13.703c0.873-3.121,4.119-4.941,7.232-4.07l21.348,5.971            c3.121,0.873,4.951,4.113,4.078,7.234L245.732,323.513z"/>
									</g>
								</g>
								<g>
									<g>
										<path style="fill:#B5E1E8;" d="M293.037,313.719l-21.348-5.972c-4.217-1.18-8.613,1.295-9.793,5.512l-3.833,13.703            c-1.18,4.217,1.295,8.614,5.512,9.793l21.348,5.972c4.217,1.18,8.614-1.295,9.793-5.512l3.833-13.703            C299.728,319.295,297.254,314.899,293.037,313.719z M292.714,336.655c-0.873,3.121-4.113,4.951-7.234,4.078l-21.348-5.972            c-3.121-0.873-4.941-4.119-4.068-7.24l3.833-13.703c0.873-3.121,4.111-4.944,7.232-4.07l21.348,5.972            c3.121,0.873,4.944,4.111,4.07,7.232L292.714,336.655z"/>
									</g>
								</g>
								<g>
									<g>
										<path style="fill:#B5E1E8;" d="M340.026,326.863l-21.348-5.971c-4.217-1.18-8.614,1.295-9.793,5.512l-3.833,13.703            c-1.18,4.217,1.295,8.614,5.512,9.793l21.348,5.972c4.217,1.18,8.606-1.297,9.786-5.514l3.833-13.703            C346.71,332.437,344.243,328.043,340.026,326.863z M339.704,349.799c-0.873,3.121-4.121,4.949-7.234,4.078l-21.348-5.971            c-3.121-0.873-4.949-4.121-4.076-7.242l3.833-13.703c0.873-3.121,4.119-4.941,7.24-4.068l21.348,5.972            c3.113,0.871,4.943,4.111,4.07,7.232L339.704,349.799z"/>
									</g>
								</g>
							</g>
							<g>
								<g>
									<g>
										<path style="fill:#B5E1E8;" d="M235.202,339.344l-21.348-5.971c-4.217-1.18-8.604,1.289-9.783,5.506l-3.833,13.703            c-1.182,4.225,1.287,8.611,5.504,9.791l21.348,5.972c4.217,1.18,8.611-1.287,9.793-5.512l3.833-13.703            C241.896,344.912,239.42,340.524,235.202,339.344z M234.89,362.275c-0.873,3.121-4.121,4.949-7.242,4.076l-21.348-5.972            c-3.113-0.871-4.941-4.119-4.068-7.24l3.833-13.703c0.871-3.113,4.119-4.941,7.232-4.071l21.348,5.972            c3.121,0.873,4.949,4.121,4.078,7.234L234.89,362.275z"/>
									</g>
								</g>
								<g>
									<g>
										<path style="fill:#B5E1E8;" d="M282.192,352.488l-21.348-5.971c-4.217-1.18-8.612,1.287-9.791,5.504l-3.833,13.703            c-1.182,4.225,1.295,8.614,5.512,9.793l21.348,5.972c4.217,1.18,8.612-1.287,9.793-5.512l3.833-13.703            C288.885,358.056,286.409,353.668,282.192,352.488z M281.872,375.417c-0.873,3.121-4.113,4.951-7.234,4.078l-21.348-5.972            c-3.121-0.873-4.941-4.119-4.068-7.24l3.833-13.703c0.871-3.113,4.111-4.944,7.232-4.071l21.348,5.972            c3.121,0.873,4.941,4.119,4.07,7.232L281.872,375.417z"/>
									</g>
								</g>
								<g>
									<g>
										<path style="fill:#B5E1E8;" d="M329.181,365.633l-21.348-5.972c-4.217-1.18-8.611,1.287-9.791,5.504l-3.833,13.703            c-1.182,4.225,1.295,8.614,5.512,9.793l21.348,5.972c4.217,1.18,8.604-1.289,9.786-5.514l3.833-13.703            C335.867,371.199,333.398,366.812,329.181,365.633z M328.861,388.561c-0.873,3.121-4.121,4.949-7.234,4.078l-21.348-5.972            c-3.121-0.873-4.949-4.121-4.076-7.242l3.833-13.703c0.871-3.113,4.119-4.941,7.24-4.068l21.348,5.972            c3.113,0.871,4.941,4.119,4.07,7.232L328.861,388.561z"/>
									</g>
								</g>
							</g>
							<g>
								<g>
									<g>
										<path style="fill:#B5E1E8;" d="M224.36,378.106l-21.348-5.972c-4.217-1.18-8.606,1.297-9.786,5.514l-3.833,13.703            c-1.18,4.217,1.287,8.612,5.504,9.791l21.348,5.972c4.217,1.18,8.614-1.295,9.793-5.512l3.833-13.703            C231.051,383.682,228.577,379.285,224.36,378.106z M224.045,401.044c-0.871,3.113-4.119,4.941-7.24,4.068l-21.348-5.972            c-3.113-0.871-4.941-4.119-4.071-7.232l3.833-13.703c0.873-3.121,4.121-4.949,7.234-4.078l21.348,5.972            c3.121,0.873,4.949,4.121,4.076,7.242L224.045,401.044z"/>
									</g>
								</g>
								<g>
									<g>
										<path style="fill:#B5E1E8;" d="M271.349,391.25l-21.348-5.972c-4.217-1.18-8.614,1.295-9.793,5.512l-3.833,13.703            c-1.18,4.217,1.295,8.614,5.512,9.793l21.348,5.972c4.217,1.18,8.614-1.295,9.793-5.512l3.833-13.703            C278.041,396.826,275.566,392.43,271.349,391.25z M271.027,414.186c-0.871,3.113-4.111,4.944-7.232,4.071l-21.348-5.972            c-3.121-0.873-4.941-4.119-4.07-7.232l3.833-13.703c0.873-3.121,4.113-4.951,7.234-4.078l21.348,5.972            c3.121,0.873,4.941,4.119,4.068,7.24L271.027,414.186z"/>
									</g>
								</g>
								<g>
									<g>
										<path style="fill:#B5E1E8;" d="M318.338,404.394l-21.348-5.972c-4.217-1.18-8.614,1.295-9.793,5.512l-3.833,13.703            c-1.18,4.217,1.294,8.614,5.512,9.793l21.348,5.972c4.217,1.18,8.606-1.297,9.786-5.514l3.833-13.703            C325.022,409.968,322.556,405.574,318.338,404.394z M318.016,427.33c-0.871,3.113-4.119,4.941-7.232,4.071l-21.348-5.972            c-3.121-0.873-4.949-4.121-4.078-7.234l3.833-13.703c0.873-3.121,4.121-4.949,7.242-4.076l21.348,5.972            c3.113,0.871,4.941,4.119,4.068,7.24L318.016,427.33z"/>
									</g>
								</g>
							</g>
						</g>
						<g>
							<g>
								<g>
									<path style="fill:#B5E1E8;" d="M352.518,85.592c-9.309-2.604-19.004,2.853-21.608,12.162           c-2.604,9.309,2.853,19.004,12.162,21.608c9.309,2.604,19.004-2.853,21.608-12.162           C367.284,97.891,361.827,88.196,352.518,85.592z M343.61,117.437c-8.251-2.308-13.084-10.894-10.776-19.145           c2.308-8.251,10.894-13.083,19.145-10.775c8.251,2.308,13.083,10.894,10.775,19.145           C360.447,114.912,351.861,119.745,343.61,117.437z"/>
								</g>
							</g>
							<g>
								<g>
									<g>
										<path style="fill:#B5E1E8;" d="M349.378,94.298c2.061,0.577,2.961-2.626,0.896-3.204            C348.212,90.518,347.313,93.72,349.378,94.298L349.378,94.298z"/>
									</g>
								</g>
							</g>
							<g>
								<g>
									<g>
										<path style="fill:#B5E1E8;" d="M357.319,101.223c2.061,0.577,2.961-2.626,0.896-3.204            C356.153,97.443,355.254,100.646,357.319,101.223L357.319,101.223z"/>
									</g>
								</g>
							</g>
							<g>
								<g>
									<g>
										<path style="fill:#B5E1E8;" d="M348.926,102.639c2.061,0.577,2.961-2.626,0.896-3.204            C347.761,98.858,346.861,102.061,348.926,102.639L348.926,102.639z"/>
									</g>
								</g>
							</g>
							<g>
								<g>
									<g>
										<path style="fill:#B5E1E8;" d="M340.619,97.022c2.061,0.577,2.961-2.626,0.896-3.204            C339.454,93.242,338.554,96.445,340.619,97.022L340.619,97.022z"/>
									</g>
								</g>
							</g>
							<g>
								<g>
									<g>
										<path style="fill:#B5E1E8;" d="M343.003,105.605c0.021-0.073,0.041-0.145,0.061-0.218c0.07-0.218,0.082-0.437,0.035-0.656            c-0.009-0.217-0.071-0.419-0.187-0.608c-0.101-0.197-0.242-0.355-0.423-0.475c-0.163-0.154-0.356-0.257-0.579-0.311            c-0.147-0.021-0.295-0.041-0.442-0.062c-0.293,0-0.567,0.072-0.822,0.214c-0.114,0.085-0.228,0.169-0.341,0.254            c-0.215,0.209-0.363,0.458-0.445,0.747c-0.02,0.073-0.041,0.145-0.061,0.218c-0.07,0.218-0.082,0.437-0.035,0.656            c0.009,0.217,0.071,0.419,0.187,0.608c0.101,0.197,0.242,0.355,0.423,0.475c0.163,0.154,0.356,0.257,0.579,0.311            c0.147,0.021,0.294,0.041,0.442,0.062c0.293,0,0.567-0.072,0.822-0.214c0.114-0.085,0.227-0.17,0.341-0.254            C342.773,106.143,342.921,105.894,343.003,105.605L343.003,105.605z"/>
									</g>
								</g>
							</g>
							<g>
								<g>
									<g>
										<path style="fill:#B5E1E8;" d="M347.777,113.761c0.041-0.145,0.081-0.291,0.122-0.436c0.07-0.218,0.082-0.437,0.035-0.656            c-0.009-0.217-0.072-0.419-0.187-0.608c-0.102-0.197-0.242-0.355-0.423-0.475c-0.163-0.154-0.356-0.257-0.579-0.311            c-0.147-0.021-0.295-0.041-0.442-0.062c-0.293,0-0.567,0.072-0.822,0.214c-0.114,0.085-0.227,0.169-0.341,0.254            c-0.215,0.209-0.363,0.458-0.445,0.747c-0.041,0.146-0.081,0.291-0.122,0.436c-0.07,0.218-0.082,0.437-0.035,0.656            c0.009,0.217,0.072,0.419,0.187,0.608c0.101,0.197,0.242,0.355,0.423,0.475c0.163,0.154,0.356,0.257,0.579,0.311            c0.147,0.021,0.295,0.041,0.442,0.062c0.293,0,0.567-0.072,0.822-0.214c0.114-0.085,0.227-0.17,0.341-0.254            C347.547,114.299,347.695,114.05,347.777,113.761L347.777,113.761z"/>
									</g>
								</g>
							</g>
							<g>
								<g>
									<g>
										<path style="fill:#B5E1E8;" d="M357.327,106.238c-0.073-0.02-0.146-0.041-0.218-0.061            c-0.218-0.07-0.437-0.081-0.656-0.035c-0.217,0.009-0.419,0.071-0.608,0.187c-0.197,0.101-0.355,0.242-0.475,0.423            c-0.154,0.163-0.257,0.356-0.311,0.579c-0.021,0.147-0.041,0.295-0.062,0.442c0,0.293,0.072,0.567,0.214,0.822            c0.085,0.114,0.169,0.227,0.254,0.341c0.209,0.215,0.458,0.363,0.747,0.445c0.073,0.02,0.146,0.041,0.218,0.061            c0.218,0.07,0.437,0.082,0.656,0.035c0.217-0.009,0.419-0.071,0.608-0.187c0.197-0.102,0.355-0.243,0.475-0.423            c0.154-0.163,0.257-0.356,0.311-0.579c0.021-0.147,0.041-0.295,0.062-0.442c0-0.293-0.072-0.567-0.214-0.822            c-0.085-0.114-0.17-0.227-0.254-0.341C357.865,106.468,357.616,106.32,357.327,106.238L357.327,106.238z"/>
									</g>
								</g>
							</g>
						</g>
					</g>
				</g>
				<g>
					<path style="fill:#FFFFFF;" d="M319.817,176.838c0,0-16.744-38.248-30.248-26.193c-13.505,12.055,14.818,73.807,14.818,73.807       s58.348-22.943,56.352-50.521C358.869,148.087,319.817,176.838,319.817,176.838z"/>
				</g>
			</g>
			<g>
				<g>
					<path style="fill:#F7EDE5;" d="M181.304,212.26l-0.701-26.643l-14.723,6.31l-1.007-6.845       c20.971-13.357,34.894-36.796,34.894-63.501c0-41.562-33.692-75.254-75.254-75.254c-41.562,0-75.254,33.692-75.254,75.254       c0,41.562,33.692,75.254,75.254,75.254c8.239,0,16.16-1.343,23.579-3.79l5.167,18.513l16.126-7.712l2.804,17.528l37.861-0.701       L181.304,212.26z"/>
				</g>
				<g>
					<path style="fill:#412945;" d="M109.707,125.723c0.259,0.376-0.732,1.335-2.973,2.871c-2.241,1.538-3.491,2.118-3.75,1.741       l-5.251-7.655l-4.66,3.196l5.252,7.654c0.259,0.378-0.733,1.335-2.974,2.872c-2.241,1.538-3.49,2.117-3.749,1.741       l-15.137-22.067c-0.319-0.466,0.641-1.466,2.882-3.004c2.241-1.537,3.521-2.072,3.841-1.607l5.366,7.821l4.659-3.196       l-5.32-7.755c-0.213-0.311,0.189-0.913,1.208-1.807c0.546-0.439,1.096-0.85,1.651-1.231l1.743-1.098       c1.2-0.628,1.907-0.786,2.12-0.476L109.707,125.723z"/>
					<path style="fill:#412945;" d="M126.272,121.307c-1.398,1.38-3.389,2.399-5.971,3.053s-4.983,0.326-7.202-0.984       c-2.22-1.311-3.725-3.525-4.516-6.642c-0.79-3.116-0.572-5.843,0.653-8.18c1.225-2.338,3.143-3.836,5.751-4.497       c2.608-0.661,4.791-0.507,6.55,0.463c1.758,0.97,2.879,2.407,3.362,4.31c1.071,4.224-0.818,6.952-5.67,8.183l-2.699,0.684       c0.198,0.783,0.551,1.27,1.056,1.46c0.507,0.191,1.177,0.181,2.012-0.03c1.825-0.465,3.455-1.32,4.886-2.573       c0.019-0.031,0.183,0.12,0.491,0.459c0.911,0.963,1.463,1.83,1.658,2.598C126.828,120.382,126.708,120.947,126.272,121.307z        M118.515,111.24c-0.278-1.096-0.952-1.508-2.021-1.236c-0.496,0.124-0.881,0.383-1.158,0.771       c-0.276,0.39-0.341,0.871-0.196,1.444l0.307,1.214l2.113-0.535C118.422,112.679,118.74,112.127,118.515,111.24z"/>
					<path style="fill:#412945;" d="M136.638,122.015c0.002,0.242-1.369,0.375-4.113,0.402c-2.153-0.008-3.23-0.104-3.231-0.293       l-0.255-27.483c-0.004-0.404,1.3-0.619,3.909-0.643c2.287,0.059,3.432,0.184,3.434,0.372L136.638,122.015z"/>
					<path style="fill:#412945;" d="M146.462,123.301c-0.038,0.239-1.412,0.148-4.123-0.277c-2.123-0.358-3.17-0.629-3.141-0.816       l4.24-27.156c0.062-0.399,1.382-0.396,3.961,0.007c2.247,0.432,3.356,0.742,3.327,0.927L146.462,123.301z"/>
					<path style="fill:#412945;" d="M151.04,122.091c-0.826-2.366-0.599-5.059,0.681-8.083c1.279-3.022,3.055-5.062,5.327-6.116       c2.272-1.054,4.721-1.025,7.348,0.086c2.626,1.111,4.346,2.846,5.159,5.206c0.813,2.36,0.58,5.052-0.699,8.075       c-1.279,3.024-3.049,5.065-5.309,6.125c-2.26,1.059-4.703,1.034-7.33-0.077C153.591,126.193,151.865,124.456,151.04,122.091z        M161.789,114.192c-1.4-0.593-2.583,0.253-3.547,2.532c-0.965,2.279-0.747,3.715,0.653,4.308       c1.399,0.591,2.582-0.251,3.547-2.533C163.406,116.22,163.189,114.785,161.789,114.192z"/>
				</g>
			</g>
			<g>
				<g>
					<g>
						<path style="fill:#F7EDE5;" d="M457.996,195.035l-22.436,39.964c0,0,52.584-10.517,50.481-11.218        C483.938,223.08,457.996,195.035,457.996,195.035z"/>
					</g>
				</g>
				<g>
					<g>
						<path style="fill:#F7EDE5;" d="M246.909,427.895l-43.216,15.26c0,0,46.473,26.757,45.354,24.843        C247.928,466.085,246.909,427.895,246.909,427.895z"/>
					</g>
				</g>
				<g>
					<g>
						<path style="fill:#F8BDFF;" d="M106.816,279.21l28.936,35.542c0,0,9.524-52.773,8.1-51.074        C142.427,265.378,106.816,279.21,106.816,279.21z"/>
					</g>
				</g>
				<g>
					<g>
						
							<ellipse transform="matrix(0.7071 -0.7071 0.7071 0.7071 -132.6362 103.4678)" style="fill:#FFC063;" cx="58.579" cy="211.84" rx="24.189" ry="24.189"/>
					</g>
				</g>
				<g>
					<g>
						
							<ellipse transform="matrix(0.9655 -0.2602 0.2602 0.9655 -78.1421 125.3672)" style="fill:#FFC063;" cx="434.355" cy="357.773" rx="24.189" ry="24.189"/>
					</g>
				</g>
				<g>
					<g>
						<circle style="fill:#B5E1E8;" cx="94.089" cy="380.482" r="24.189"/>
					</g>
				</g>
				<g>
					<g>
						
							<rect x="212.692" y="41.754" transform="matrix(0.866 -0.5 0.5 0.866 -0.8507 126.6085)" style="fill:#E36352;" width="46.274" height="46.274"/>
					</g>
				</g>
			</g>
		</g>
	</g>
</g>
<g>
</g>
<g>
</g>
<g>
</g>
<g>
</g>
<g>
</g>
<g>
</g>
<g>
</g>
<g>
</g>
<g>
</g>
<g>
</g>
<g>
</g>
<g>
</g>
<g>
</g>
<g>
</g>
<g>
</g>
</svg>
