<?xml version="1.0" encoding="UTF-8"?>
<!-- Generator: Adobe Illustrator 27.3.1, SVG Export Plug-In . SVG Version: 6.00 Build 0)  -->
<svg xmlns="http://www.w3.org/2000/svg" xmlns:xlink="http://www.w3.org/1999/xlink" version="1.1" id="Capa_1" x="0px" y="0px" viewBox="0 0 512 512" style="enable-background:new 0 0 512 512;" xml:space="preserve" width="512" height="512">
<g>
	<path style="fill:#FFFFFF;" d="M173.633,475.072c-60.525,0-114.944-33.336-146.929-89.569c-4.929-2.668-8.275-7.884-8.275-13.883   v-2.284c-24.576-53.851-24.569-115.697,0-166.947V109.48c0-8.713,7.063-15.778,15.778-15.778l76.514,0.002   c51.765-36.646,113.42-56.777,174.193-56.777c30.546,0,59.835,5.144,87.052,15.287c56.222,20.747,103.259,68.247,125.776,127.042   c20.747,54.17,18.783,110.335-5.447,158.605l-0.013,0.948l0.001,8.322c0,0.319-0.01,0.637-0.029,0.955l0.003,25.164   c0.019,0.318,0.027,0.592,0.027,0.91v15.222c0.028,0.7,0.03,1.391,0.004,2.089c0.026,2.311,0.026,4.595,0.026,6.827v1.432   c0.03,2.307,0.03,4.748,0.03,7.1v1.432c0.03,2.401,0.03,4.839,0.03,7.102l0.029,9.964c0.03,3.966,0.03,6.356,0.03,6.356   c0,8.713-7.065,15.778-15.778,15.778H264.156c-14.605,9.974-33.901,20.869-58.157,24.543   C195.157,474.039,184.27,475.072,173.633,475.072z"/>
	<g>
		<g>
			<path style="fill:#DBB0FF;" d="M477.638,337.272c-66.175,105.604-116.567,32.96-166.954,59.217     c-33.975,23.427-63.118,56.907-106.265,63.32C66.405,485.941-24.039,326.644,35.261,209.419     C90.715,92.724,245.251,24.799,367.508,70.363C470.434,108.346,530.379,237.376,477.638,337.272z"/>
		</g>
		<g>
			<g>
				<g>
					<g>
						<polygon style="fill:#977BFF;" points="60.579,374.984 35.259,374.984 35.259,112.844 60.579,112.844 73.213,241.425               "/>
					</g>
				</g>
				<g>
					<g>
						<g>
							<rect x="60.581" y="112.846" style="fill:#302945;" width="240.549" height="262.141"/>
						</g>
					</g>
					<g>
						<g>
							<path style="fill:#F7EDE5;" d="M110.885,363.122l0.105,2.209h8.888l2.735-2.209H110.885z M69.363,122.512v242.819h222.992         V122.512H69.363z M290.172,363.122H71.546V124.694h218.626V363.122z M110.885,363.122l0.105,2.209h8.888l2.735-2.209H110.885         z"/>
						</g>
					</g>
					<g>
						<g>
							<g>
								<g>
									<g>
										<path style="fill:#F7EDE5;" d="M181.227,148.676c-51.751,0-93.851,43.862-93.851,97.743            c0,47.438,32.581,87.067,75.68,95.902h0.026c5.864,1.21,11.939,1.841,18.144,1.841c2.998,0,5.969-0.158,8.888-0.447            c1.262-0.105,2.498-0.263,3.734-0.447c9.624-1.341,18.802-4.234,27.269-8.389c31.845-15.646,53.933-49.41,53.933-88.46            C275.052,192.538,232.952,148.676,181.227,148.676z M241.156,319.181c-0.289,0.289-0.605,0.578-0.92,0.815            c-6.995,6.101-14.857,11.15-23.377,14.884c-6.811,2.998-14.068,5.154-21.589,6.364h-0.026            c-1.288,0.21-2.577,0.368-3.866,0.526c-3.34,0.395-6.732,0.578-10.15,0.578c-5.548,0-10.992-0.526-16.277-1.499            c-43.047-8.02-75.812-47.307-75.812-94.43c0-52.882,41.311-95.928,92.089-95.928c1.63,0,3.234,0.052,4.839,0.131            c0.789,0.053,1.551,0.105,2.314,0.158c47.438,3.813,84.937,45.256,84.937,95.639            C273.316,275.503,260.826,301.589,241.156,319.181z"/>
									</g>
								</g>
							</g>
							<g>
								<g>
									<g>
										<path style="fill:#F7EDE5;" d="M265.664,225.067c-0.105-0.394-0.447-0.684-0.815-0.684l-53.697-1.052L188.38,150.78            l-0.316-0.999c-0.105-0.368-0.421-0.605-0.789-0.631c-0.342,0-0.71,0.21-0.842,0.552l-0.368,0.92l-28.821,71.657            l-59.166-1.131c-0.395-0.105-0.736,0.237-0.841,0.631c-0.105,0.394,0.026,0.815,0.368,1.025l46.623,31.818l-24.666,61.349            c-0.158,0.368-0.053,0.789,0.237,1.052c0.289,0.237,0.684,0.289,1.026,0.079l59.745-37.656l59.245,40.417            c0.131,0.105,0.289,0.158,0.421,0.132c0.026,0.026,0.026,0.026,0.053,0.026c0.21,0,0.394-0.053,0.552-0.184            c0.184-0.184,0.316-0.421,0.316-0.657c0.026-0.105,0-0.237-0.026-0.342l-20.327-64.741l44.467-28.032            C265.612,225.856,265.769,225.461,265.664,225.067z M187.144,152.673l22.168,70.632l-50.199-0.973L187.144,152.673z             M101.076,223.016l55.432,1.078l-11.597,28.847L101.076,223.016z M122.192,314.105l23.535-58.456l33.238,22.693            L122.192,314.105z M146.411,253.94l11.991-29.82l51.488,1.026l8.835,28.137l-38.103,24.008L146.411,253.94z             M238.684,316.919l-56.458-38.524l37.051-23.325L238.684,316.919z M220.251,252.309l-8.52-27.138l50.042,0.973            L220.251,252.309z"/>
									</g>
								</g>
							</g>
						</g>
						<g>
							<g>
								<g>
									<path style="fill:#F7EDE5;" d="M157.765,248.661c0,0,7.54-16.477,25.414-15.918c17.873,0.559,25.413,15.36,25.413,15.36           s-11.45,13.126-26.531,12.567C166.981,260.111,157.765,248.661,157.765,248.661z"/>
								</g>
							</g>
							<g>
								<g>
									<path style="fill:#977BFF;" d="M189.788,246.334c0,6.786-2.709,12.288-6.051,12.288s-6.051-5.501-6.051-12.288           c0-6.787,2.709-12.288,6.051-12.288S189.788,239.548,189.788,246.334z"/>
								</g>
							</g>
						</g>
					</g>
				</g>
				<g>
					<g>
						<g>
							<g>
								<path style="fill:#F7EDE5;" d="M477.676,428.692c0.03,4.009,0.03,6.356,0.03,6.356          c-30.762,0.215-76.242-16.372-74.621-52.657c-1.303-37.478,44.595-49.692,74.553-47.349          C477.189,364.639,477.683,398.931,477.676,428.692z"/>
							</g>
						</g>
					</g>
					<g>
						<g>
							<g>
								<g>
									<g>
										<g>
											<path style="fill:#302945;" d="M477.558,435.048h-81.119l-3.434-1.508l-0.8,1.508H199.93l-3.67-1.417l-0.611,1.417             h-10.02c-19.517,0-35.378-15.404-35.378-34.359c-1.382-27.01-2.567-65.197,35.381-65.797c0,0,3.896,0,10.77,0             c0.72,0,0.486,1.282,1.27,1.282c0.564,0,2.132-1.282,2.729-1.282c35.398,0,127.01-0.001,192.605-0.001             c0.677,0-0.201,1.922,0.47,1.922c0.63,0,2.81-1.922,3.434-1.922c39.431,0,68.532,0,68.532,0             c-19.341,1.091-41.533,7.59-50.856,25.569h-0.03c-4.822,9.156-5.767,19.9-4.422,30.007h0.03             C413.451,421.571,449.613,434.961,477.558,435.048z"/>
										</g>
									</g>
								</g>
							</g>
							<g style="opacity:0.34;">
								<g>
									<g>
										<g>
											<path style="fill:#977BFF;" d="M477.558,435.048h-81.119l-3.434-1.508l-0.8,1.508H199.93l-3.67-1.417l-0.611,1.417             h-10.02c-19.517,0-35.378-15.404-35.378-34.359c-1.382-27.01-2.567-65.197,35.381-65.797c0,0,3.896,0,10.77,0             c0.72,0,0.486,1.282,1.27,1.282c0.564,0,2.132-1.282,2.729-1.282c35.398,0,127.01-0.001,192.605-0.001             c0.677,0-0.201,1.922,0.47,1.922c0.63,0,2.81-1.922,3.434-1.922c39.431,0,68.532,0,68.532,0             c-19.341,1.091-41.533,7.59-50.856,25.569h-0.03c-4.822,9.156-5.767,19.9-4.422,30.007h0.03             C413.451,421.571,449.613,434.961,477.558,435.048z"/>
										</g>
									</g>
								</g>
							</g>
							<g>
								<g>
									<g>
										<path style="fill:#F7EDE5;" d="M358.758,408.105H202.771c0-2.905-2.355-5.259-5.259-5.259v-30.66            c2.904,0,5.259-2.355,5.259-5.259h155.987c0,2.905,2.355,5.259,5.259,5.259v30.66            C361.112,402.846,358.758,405.201,358.758,408.105z"/>
									</g>
								</g>
								<g>
									<g>
										<g>
											<path style="fill:#302945;" d="M225.089,376.638l-1.972,13.832l-0.894,6.258l-0.92-6.258l-1.998-13.832h-1.762             l-1.972,13.832l-0.894,6.258l-0.894-6.258l-1.972-13.832h-1.42l1.972,13.832l1.183,8.231h2.051l1.21-8.231l1.63-10.992             l1.63,10.992l1.21,8.231h1.972l1.183-8.231l1.972-13.832H225.089z"/>
										</g>
									</g>
									<g>
										<g>
											<path style="fill:#302945;" d="M231.269,376.638V398.7h1.446v-22.062H231.269z"/>
										</g>
									</g>
									<g>
										<g>
											<path style="fill:#302945;" d="M237.448,376.638v1.315h4.207V398.7h1.446v-20.748h4.207v-1.315H237.448z"/>
										</g>
									</g>
									<g>
										<g>
											<path style="fill:#302945;" d="M261.062,383.659v-2.235c0-3.182-1.736-5.101-4.76-5.101c-2.945,0-4.707,1.92-4.707,5.101             v12.491c0,3.182,1.762,5.102,4.707,5.102c3.024,0,4.76-1.92,4.76-5.102v-2.866h-1.394v2.919             c0,2.367-1.289,3.734-3.34,3.734c-2.025,0-3.287-1.367-3.287-3.734v-12.596c0-2.367,1.262-3.734,3.287-3.734             c2.051,0,3.34,1.367,3.34,3.734v2.288H261.062z"/>
										</g>
									</g>
									<g>
										<g>
											<path style="fill:#302945;" d="M274.5,376.638v9.887h-6.784v-9.887h-1.446V398.7h1.446v-10.834h6.784V398.7h1.446             v-22.062H274.5z"/>
										</g>
									</g>
									<g>
										<g>
											<path style="fill:#302945;" d="M290.961,383.659v-2.235c0-3.182-1.736-5.101-4.76-5.101c-2.919,0-4.681,1.92-4.681,5.101             v12.491c0,3.182,1.762,5.102,4.681,5.102c3.024,0,4.76-1.92,4.76-5.102v-2.866h-1.367v2.919             c0,2.367-1.315,3.734-3.34,3.734s-3.287-1.367-3.287-3.734v-12.596c0-2.367,1.262-3.734,3.287-3.734             s3.34,1.367,3.34,3.734v2.288H290.961z"/>
										</g>
									</g>
									<g>
										<g>
											<path style="fill:#302945;" d="M305.555,396.071v-4.05c0-0.578-0.053-1.104-0.131-1.551             c-0.289-1.683-1.157-2.63-2.709-2.971v-0.026c1.893-0.473,2.84-1.946,2.84-4.497v-1.367c0-3.497-1.42-4.97-4.838-4.97             h-4.523V398.7h1.446v-10.439h2.814c2.051,0,3.129,0.631,3.497,2.209c0.105,0.421,0.158,0.92,0.158,1.499v4.102             c0,1.026,0.079,1.92,0.237,2.63h1.499C305.634,398.069,305.555,397.202,305.555,396.071z M300.375,386.92h-2.735v-8.967             h3.05c2.419,0,3.418,1.104,3.418,3.787v1.473C304.109,385.841,302.926,386.92,300.375,386.92z"/>
										</g>
									</g>
									<g>
										<g>
											<path style="fill:#302945;" d="M320.045,392.337l-0.395-1.867l-2.892-13.832h-1.946l-2.866,13.832l-1.262,6.022             l-0.447,2.209h1.367l0.631-3.024l0.421-2.051h6.18l1.078,5.075h1.473L320.045,392.337z M312.918,392.337l0.368-1.867             l2.419-11.859l2.472,11.859l0.394,1.867H312.918z"/>
										</g>
									</g>
									<g>
										<g>
											<path style="fill:#302945;" d="M334.56,377.953v-1.315h-8.362V398.7h1.446v-10.571h5.68v-1.315h-5.68v-8.862H334.56z"/>
										</g>
									</g>
									<g>
										<g>
											<path style="fill:#302945;" d="M338.426,376.638v1.315h4.207V398.7h1.446v-20.748h4.207v-1.315H338.426z"/>
										</g>
									</g>
								</g>
							</g>
							<g>
								<g>
									<g>
										<g>
											<path style="fill:#DB4B3D;" d="M396.365,435.048h-4.157c-1.976-2.033-3.715-4.094-5.219-6.213             c-5.159-7.301-8.491-16.464-10.26-28.06c-0.531-3.493-0.885-6.929-1.032-10.308c-0.59-10.737,0.59-20.93,3.538-30.408             c2.919-9.391,7.695-18.01,13.798-25.168h3.892c-6.633,7.158-11.793,16.12-14.859,25.998             c-2.86,9.191-4.01,19.098-3.42,29.578c0.177,3.236,0.501,6.557,1.003,9.907c1.68,11.138,4.894,19.929,9.758,26.829             C391.324,429.923,393.594,432.5,396.365,435.048z"/>
										</g>
									</g>
								</g>
							</g>
							<g>
								<g>
									<g>
										<g>
											<path style="fill:#DB4B3D;" d="M192.911,427.203c1.887,2.72,4.216,5.326,6.957,7.845h-4.186             c-1.975-2.033-3.715-4.094-5.219-6.213c-5.13-7.301-8.49-16.464-10.259-28.06c-0.531-3.493-0.884-6.929-1.032-10.308             c-0.589-10.737,0.619-20.93,3.567-30.408c2.889-9.391,7.666-18.01,13.768-25.168h3.892             c-6.634,7.158-11.793,16.12-14.859,25.998c-2.86,9.191-4.01,19.098-3.42,29.578c0.177,3.236,0.501,6.557,1.002,9.907             C184.803,411.512,188.017,420.302,192.911,427.203z"/>
										</g>
									</g>
								</g>
							</g>
							<g>
								<g>
									<g>
										<g>
											<g>
												<g>
													<path style="fill:#302945;" d="M477.544,341.971v1.432h-45.52c0.914-0.515,1.857-0.974,2.801-1.432H477.544z"/>
												</g>
											</g>
										</g>
									</g>
									<g>
										<g>
											<g>
												<g>
													<path style="fill:#302945;" d="M477.544,350.503c-0.029,0.487-0.029,0.974-0.029,1.432h-56.812               c0.442-0.515,0.914-0.973,1.415-1.432H477.544z"/>
												</g>
											</g>
										</g>
									</g>
									<g>
										<g>
											<g>
												<g>
													<path style="fill:#302945;" d="M477.515,359.036v1.432h-62.973c0.236-0.487,0.531-0.974,0.796-1.432H477.515z"/>
												</g>
											</g>
										</g>
									</g>
									<g>
										<g>
											<g>
												<g>
													<path style="fill:#302945;" d="M477.515,367.569V369H411.21c0.147-0.487,0.265-0.974,0.413-1.431H477.515z"/>
												</g>
											</g>
										</g>
									</g>
									<g>
										<g>
											<g>
												<g>
													<path style="fill:#302945;" d="M477.544,377.533h-67.779c0.03-0.487,0.088-0.973,0.148-1.432h67.602               C477.515,376.588,477.515,377.046,477.544,377.533z"/>
												</g>
											</g>
										</g>
									</g>
									<g>
										<g>
											<g>
												<g>
													<path style="fill:#302945;" d="M477.544,384.605v1.432h-67.867c-0.03-0.458-0.06-0.945-0.06-1.432H477.544z"/>
												</g>
											</g>
										</g>
									</g>
									<g>
										<g>
											<g>
												<g>
													<path style="fill:#302945;" d="M477.558,393.13c0.03,0.487,0.03,0.945,0,1.432H410.9               c-0.118-0.458-0.206-0.945-0.295-1.432H477.558z"/>
												</g>
											</g>
										</g>
									</g>
									<g>
										<g>
											<g>
												<g>
													<path style="fill:#302945;" d="M477.588,401.662v1.432h-63.799c-0.206-0.458-0.442-0.945-0.619-1.432H477.588z"/>
												</g>
											</g>
										</g>
									</g>
									<g>
										<g>
											<g>
												<g>
													<path style="fill:#302945;" d="M477.617,410.195v1.432h-58.64c-0.353-0.458-0.707-0.945-1.061-1.432H477.617z"/>
												</g>
											</g>
										</g>
									</g>
									<g>
										<g>
											<g>
												<g>
													<path style="fill:#302945;" d="M477.647,418.728v1.432h-49.883c-0.619-0.458-1.238-0.945-1.828-1.432H477.647z"/>
												</g>
											</g>
										</g>
									</g>
									<g>
										<g>
											<g>
												<g>
													<path style="fill:#302945;" d="M477.676,427.26v1.431h-34.11c-1.179-0.43-2.359-0.916-3.508-1.431H477.676z"/>
												</g>
											</g>
										</g>
									</g>
								</g>
							</g>
						</g>
						<g style="opacity:0.4;">
							<g>
								<g>
									<path style="fill:#302945;" d="M477.706,435.048c0,0-0.059,0-0.148,0h-291.93c-19.517,0-35.378-15.404-35.378-34.359           v-10.222h327.308v2.663c0.03,0.487,0.03,0.945,0,1.432c0.03,2.405,0.03,4.782,0.03,7.101v1.432           c0.03,2.433,0.03,4.81,0.03,7.101v1.432c0.029,2.52,0.029,4.896,0.029,7.101v1.432c0,2.663,0.03,5.039,0.03,7.101v1.431           C477.706,432.7,477.706,435.048,477.706,435.048z"/>
								</g>
							</g>
						</g>
					</g>
				</g>
				<g>
					<g>
						<g>
							<path style="fill:#FFFFFF;" d="M468.733,300.113c-2.288,8.73-4.865,17.566-9.835,25.113         c-3.182,4.865-7.547,9.23-13.069,11.044c-3.655,1.21-7.573,1.236-11.413,0.894c-5.101-0.473-10.124-1.604-14.936-3.34         c-6.311-2.288-12.122-6.337-18.67-4.865c-2.262,5.759-4.549,11.518-6.837,17.25c-1.157,2.945-2.708,6.232-5.759,7.047         c-2.025,0.552-4.155-0.21-6.101-0.999c-9.204-3.682-18.144-8.362-27.926-10.072c-7.416-1.288-15.226-0.815-22.299-3.445         c-2.524-0.946-5.022-2.393-6.416-4.707c-2.945-4.917,0.21-11.097,3.287-15.909c2.919-4.576,5.917-9.046,8.835-13.622         c-4.312-2.051-8.678-4.234-12.043-7.626c-3.366-3.392-5.628-8.231-4.812-12.938c0.999-5.654,5.89-9.598,9.493-14.042         c7.547-9.362,9.756-21.905,15.462-32.528c5.18-9.651,13.411-17.645,23.193-22.562c11.044-5.575,23.64-7.179,35.973-7.521         c10.834-0.289,21.878,0.368,32.265,3.287c0.421,0.105,0.868,0.237,1.289,0.368c3.498,1.025,6.916,2.34,10.229,3.944         c5.022,2.445,9.282,6.653,12.806,11.676c0.263,0.394,0.526,0.789,0.815,1.183c4.549,6.89,7.81,15.094,9.835,22.299         C476.622,266.349,473.046,283.757,468.733,300.113z"/>
						</g>
					</g>
					<g>
						<g>
							<g>
								<g>
									<path style="fill:#302945;" d="M383.151,256.31c-3.029,3.454-4.04,8.181-4.947,12.684c-0.469,2.33-0.941,4.685-0.865,7.06           c0.141,4.435,2.351,8.823,6.006,11.338c3.656,2.515,8.708,2.976,12.633,0.907c4.757-2.507,7.169-8.071,7.722-13.42           c0.699-6.759-1.283-13.358-5.81-18.422C393.841,251.928,387.415,251.448,383.151,256.31z"/>
								</g>
							</g>
						</g>
						<g>
							<g>
								<g>
									<path style="fill:#302945;" d="M341.962,258.469c-3.609,4.362-7.378,9.083-8.123,14.903           c-0.228,1.78-0.141,3.672,0.629,5.281c1.228,2.566,4.038,3.948,6.7,3.911c2.662-0.036,5.18-1.277,7.394-2.841           c3.902-2.757,7.195-6.73,8.574-11.549c1.242-4.338,0.851-12.387-2.887-15.582           C349.893,248.869,344.57,255.317,341.962,258.469z"/>
								</g>
							</g>
						</g>
						<g>
							<g>
								<g>
									<path style="fill:#302945;" d="M356.925,277.292c-2.046,4.152-4.105,8.342-5.253,12.827           c-0.372,1.452-0.641,3.012-0.145,4.426c0.496,1.414,2.004,2.574,3.452,2.186c1.631-0.437,2.727-2.593,4.379-2.244           c0.497,0.105,0.914,0.436,1.287,0.782c0.813,0.754,1.518,1.63,2.41,2.289c0.892,0.659,2.05,1.087,3.114,0.774           c0.966-0.284,1.671-1.118,2.164-1.995c1.077-1.915,1.407-4.159,1.516-6.353c0.172-3.451-0.156-6.926-0.97-10.285           c-0.648-2.675-2.271-6.868-5.39-7.474C360.357,271.616,358.106,274.894,356.925,277.292z"/>
								</g>
							</g>
						</g>
						<g>
							<g>
								<g>
									<g>
										<path style="fill:#302945;" d="M383.32,317.328c-0.076,0-0.151-0.008-0.227-0.026c-15.326-3.604-31.039-6.234-46.7-7.819            c-0.542-0.055-0.937-0.538-0.882-1.08c0.055-0.542,0.553-0.931,1.08-0.882c15.747,1.593,31.545,4.238,46.954,7.861            c0.53,0.125,0.859,0.656,0.734,1.186C384.171,317.022,383.766,317.328,383.32,317.328z"/>
									</g>
								</g>
								<g>
									<g>
										<path style="fill:#302945;" d="M341.856,318.676c-0.105,0-0.213-0.017-0.318-0.053c-0.515-0.176-0.791-0.736-0.615-1.252            c1.786-5.239,4.051-10.348,6.732-15.184c0.264-0.477,0.863-0.647,1.34-0.385c0.476,0.265,0.648,0.864,0.385,1.34            c-2.624,4.736-4.842,9.738-6.591,14.866C342.65,318.418,342.267,318.676,341.856,318.676z"/>
									</g>
								</g>
								<g>
									<g>
										<path style="fill:#302945;" d="M355.362,320.71c-0.08,0-0.16-0.009-0.24-0.029c-0.529-0.132-0.85-0.668-0.718-1.195            c1.297-5.194,2.8-10.413,4.471-15.513c0.169-0.518,0.73-0.799,1.244-0.631c0.518,0.17,0.8,0.727,0.631,1.244            c-1.655,5.055-3.147,10.23-4.432,15.377C356.206,320.411,355.804,320.71,355.362,320.71z"/>
									</g>
								</g>
								<g>
									<g>
										<path style="fill:#302945;" d="M371.216,324.051c-0.019,0-0.038,0-0.058-0.001c-0.545-0.032-0.959-0.498-0.928-1.041            c0.303-5.217,1.007-10.457,2.092-15.572c0.112-0.534,0.639-0.885,1.169-0.76c0.533,0.113,0.873,0.636,0.76,1.168            c-1.064,5.019-1.754,10.159-2.05,15.277C372.168,323.646,371.733,324.051,371.216,324.051z"/>
									</g>
								</g>
							</g>
							<g>
								<g>
									<g>
										<path style="fill:#302945;" d="M403.488,317.437c-0.266,0-0.531-0.106-0.725-0.318c-0.369-0.401-0.343-1.025,0.058-1.393            c1.66-1.528,3.097-3.278,4.273-5.201c0.557-0.912,1.133-1.991,1.17-3.098c0.053-1.528-0.923-3.02-1.884-4.28            c-1.885-2.468-4.056-4.717-6.456-6.684c-0.421-0.345-0.483-0.967-0.138-1.388c0.347-0.419,0.968-0.479,1.388-0.138            c2.517,2.065,4.796,4.423,6.772,7.013c1.173,1.536,2.361,3.396,2.289,5.543c-0.054,1.565-0.768,2.93-1.46,4.06            c-1.27,2.079-2.825,3.971-4.62,5.624C403.968,317.351,403.727,317.437,403.488,317.437z"/>
									</g>
								</g>
							</g>
						</g>
						<g>
							<g>
								<g>
									<path style="fill:#302945;" d="M434.291,286.44c-0.091,0-0.185-0.013-0.277-0.04c-6.88-2.015-12.859-7.065-15.997-13.508           c-3.141-6.443-3.431-14.265-0.778-20.924c0.2-0.506,0.78-0.759,1.28-0.551c0.506,0.2,0.752,0.774,0.551,1.28           c-2.45,6.152-2.182,13.379,0.719,19.332c2.899,5.951,8.424,10.616,14.78,12.478c0.522,0.153,0.822,0.701,0.669,1.224           C435.112,286.161,434.719,286.44,434.291,286.44z"/>
								</g>
							</g>
						</g>
						<g>
							<g>
								<g>
									<path style="fill:#302945;" d="M404.508,243.27c-0.307,0-0.609-0.143-0.801-0.41c-2.97-4.128-8.323-6.304-13.329-5.413           c-0.525,0.095-1.046-0.262-1.143-0.799c-0.095-0.535,0.262-1.048,0.799-1.143c5.733-1.021,11.872,1.475,15.273,6.202           c0.318,0.443,0.218,1.059-0.224,1.376C404.909,243.209,404.707,243.27,404.508,243.27z"/>
								</g>
							</g>
						</g>
						<g>
							<g>
								<g>
									<path style="fill:#302945;" d="M350.523,238.677c-0.326,0-0.643-0.16-0.832-0.454c-0.294-0.459-0.159-1.068,0.299-1.362           c3.777-2.415,8.47-3.305,12.864-2.443c0.534,0.105,0.882,0.624,0.778,1.158c-0.104,0.534-0.62,0.88-1.158,0.778           c-3.91-0.774-8.07,0.023-11.421,2.169C350.888,238.627,350.704,238.677,350.523,238.677z"/>
								</g>
							</g>
						</g>
						<g>
							<g>
								<g>
									<g>
										<path style="fill:#302945;" d="M462.264,227.746c-9.966,1.657-18.381,10.019-20.064,19.985            c-0.053,0.342-0.105,0.683-0.158,1.025c-0.131,0.973-0.289,1.972-0.578,2.945c-0.526,1.657-1.473,3.077-2.393,4.47            l-0.158,0.237l-1.236,1.893l-7.126,10.86c-0.132,0.184-0.342,0.289-0.552,0.289c-0.105,0-0.237-0.026-0.342-0.105            c-0.315-0.184-0.394-0.605-0.21-0.894l6.995-10.624l0.395-0.605l1.157-1.762c0.841-1.315,1.735-2.682,2.209-4.155            c0.263-0.868,0.421-1.788,0.553-2.735c0.052-0.368,0.105-0.71,0.158-1.052c0.447-2.682,1.341-5.259,2.63-7.626            c0.394-0.736,0.815-1.446,1.288-2.13c3.813-5.706,9.861-9.914,16.619-11.202            C461.712,226.957,461.975,227.352,462.264,227.746z"/>
									</g>
								</g>
							</g>
							<g>
								<g>
									<g>
										<path style="fill:#302945;" d="M444.777,239.684c-0.053,0.342-0.342,0.552-0.657,0.552h-0.105            c-0.21-0.026-0.394-0.158-0.473-0.342c-0.079-0.105-0.105-0.263-0.079-0.421c0.421-2.498-0.868-5.023-2.104-7.442            c-0.184-0.368-0.368-0.736-0.552-1.104c-3.103-6.259-4.392-13.411-3.682-20.353c0.421,0.105,0.868,0.237,1.289,0.368            c-0.631,6.627,0.631,13.437,3.55,19.38c0.184,0.368,0.395,0.763,0.578,1.131c1.052,2.025,2.104,4.102,2.288,6.311            C444.909,238.396,444.883,239.027,444.777,239.684z"/>
									</g>
								</g>
							</g>
							<g>
								<g>
									<g>
										<path style="fill:#302945;" d="M437.59,258.483c-0.25,0-0.49-0.144-0.6-0.388c-0.149-0.331-0.001-0.72,0.33-0.869            c7.012-3.157,15.206-3.082,19.464-2.759c0.362,0.028,0.633,0.344,0.606,0.706c-0.028,0.363-0.375,0.643-0.706,0.606            c-4.136-0.316-12.078-0.39-18.825,2.646C437.773,258.464,437.682,258.483,437.59,258.483z"/>
									</g>
								</g>
							</g>
						</g>
					</g>
				</g>
				<g>
					<g>
						<g>
							<path style="fill:#9DD1A9;" d="M369.397,88.759c-4.279,17.311-11.598,33.866-21.521,48.682         c-9.161,13.678-20.472,25.82-29.561,39.546c-9.089,13.726-16.027,29.746-14.828,46.165         c15.112-6.624,25.153-21.619,32.992-36.137C352.873,156.653,364.304,122.886,369.397,88.759z"/>
						</g>
					</g>
					<g>
						<g>
							<path style="fill:#302945;" d="M303.486,223.481c-0.018,0-0.037-0.001-0.056-0.005c-0.18-0.031-0.299-0.201-0.267-0.38         c2.897-16.473,19.942-41.558,33.638-61.713c6.415-9.438,12.474-18.354,16.1-24.936c11.24-20.4,18.775-58.681,18.85-59.065         c0.033-0.178,0.2-0.307,0.385-0.259c0.179,0.035,0.294,0.207,0.26,0.385c-0.075,0.385-7.63,38.766-18.92,59.257         c-3.64,6.607-9.708,15.535-16.131,24.988c-13.662,20.103-30.663,45.122-33.536,61.456         C303.782,223.369,303.643,223.481,303.486,223.481z"/>
						</g>
					</g>
					<g>
						<g>
							<path style="fill:#9DD1A9;" d="M368.808,89.893c-1.305,30.65-14.399,59.353-25.736,87.859         c-11.336,28.506-21.253,59.21-15.86,89.41c14.551-17.75,25.123-37.776,31.524-59.817c7.404-25.494,8.75-52.296,10.049-78.812         C369.391,116.18,371.3,102.007,368.808,89.893z"/>
						</g>
					</g>
					<g style="opacity:0.39;">
						<g>
							<path style="fill:#302945;" d="M368.808,89.893c-1.305,30.65-14.399,59.353-25.736,87.859         c-11.336,28.506-21.253,59.21-15.86,89.41c14.551-17.75,25.123-37.776,31.524-59.817c7.404-25.494,8.75-52.296,10.049-78.812         C369.391,116.18,371.3,102.007,368.808,89.893z"/>
						</g>
					</g>
					<g>
						<g>
							<path style="fill:#9DD1A9;" d="M369.266,90.325c-1.206,21.984-2.411,43.967-3.616,65.951         c-0.994,18.133-1.986,36.368,0.079,54.41c2.064,18.042,7.357,36.053,17.908,50.833c-0.64-9.478,1.478-18.651,2.778-28.061         c3.264-23.629,4.887-47.667,1.832-71.324C385.059,137.454,377.412,113.84,369.266,90.325z"/>
						</g>
					</g>
					<g>
						<g>
							<g>
								<g>
									<path style="fill:#9DD1A9;" d="M369.948,90.801c7.41,17.302,15.005,34.905,27.287,49.168           c7.34,8.524,16.174,15.633,23.902,23.807c7.729,8.174,14.52,17.843,16.366,28.94c1.07,6.431,3.11,15.713,2.463,22.2           c-2.208-0.211-7.351-4.671-9.052-6.095c-6.287-5.261-12.569-10.553-18.282-16.432           c-8.705-8.958-16.036-19.249-21.659-30.403c-2.944-5.841-5.418-11.905-7.888-17.961           C376.156,127.039,371.655,109.067,369.948,90.801z"/>
								</g>
							</g>
							<g style="opacity:0.39;">
								<g>
									<path style="fill:#302945;" d="M369.948,90.801c7.41,17.302,15.005,34.905,27.287,49.168           c7.34,8.524,16.174,15.633,23.902,23.807c7.729,8.174,14.52,17.843,16.366,28.94c1.07,6.431,3.11,15.713,2.463,22.2           c-2.208-0.211-7.351-4.671-9.052-6.095c-6.287-5.261-12.569-10.553-18.282-16.432           c-8.705-8.958-16.036-19.249-21.659-30.403c-2.944-5.841-5.418-11.905-7.888-17.961           C376.156,127.039,371.655,109.067,369.948,90.801z"/>
								</g>
							</g>
						</g>
						<g>
							<g>
								<path style="fill:#302945;" d="M439.966,215.244c-0.166,0-0.308-0.123-0.326-0.292          c-2.565-22.674-20.338-43.904-36.02-62.633c-5.252-6.275-10.213-12.201-14.17-17.699          c-15.44-21.458-24.986-59.846-25.081-60.231c-0.042-0.176,0.065-0.354,0.241-0.398c0.168-0.05,0.354,0.064,0.398,0.241          c0.094,0.384,9.611,38.65,24.976,60.002c3.942,5.48,8.897,11.397,14.141,17.661c15.74,18.801,33.58,40.111,36.168,62.981          c0.021,0.181-0.109,0.343-0.289,0.363C439.99,215.243,439.978,215.244,439.966,215.244z"/>
							</g>
						</g>
					</g>
					<g>
						<g>
							<path style="fill:#302945;" d="M383.636,261.849c-0.13,0-0.253-0.077-0.304-0.205c-1.45-3.581-1.472-20.157-1.497-39.351         c-0.027-20.51-0.058-43.758-1.828-56.716c-3.383-24.788-13.527-91.44-13.628-92.11c-0.027-0.18,0.096-0.348,0.275-0.375         c0.204-0.028,0.348,0.096,0.375,0.275c0.103,0.671,10.246,67.329,13.631,92.12c1.775,13.003,1.806,36.274,1.833,56.805         c0.026,19.125,0.048,35.642,1.448,39.105c0.068,0.168-0.013,0.36-0.181,0.427         C383.719,261.841,383.677,261.849,383.636,261.849z"/>
						</g>
					</g>
				</g>
				<g>
					<g>
						<path style="fill:#302945;" d="M401.747,87.748c-10.229,1.788-20.774,3.024-31.529,3.681c-0.053,0.026-0.079,0.026-0.132,0        c-0.026,0.053-0.026,0.053-0.053,0c-0.079,0.053-0.184,0.053-0.263,0.026c-0.026,0.026-0.079,0.026-0.105,0        c-0.079,0.053-0.184,0.053-0.263,0.026c-0.053,0.026-0.105,0.026-0.158,0h-0.026c-0.026,0.053-0.079,0.053-0.105,0.026h-0.026        c-0.053,0.026-0.079,0.026-0.131,0c-0.079,0.026-0.158,0.053-0.237,0.026h-0.053c-0.053,0.026-0.079,0.026-0.132,0        c-6.022,0.368-12.096,0.552-18.25,0.552c-10.361,0-20.905-0.473-31.582-1.472c-26.454-2.498-54.118-7.941-84.542-16.803        c-0.579-0.158-1.183-0.342-1.762-0.5c-6.679-1.972-13.49-4.102-20.458-6.39c1.131-0.342,2.235-0.657,3.366-0.973        c5.838,1.893,11.57,3.681,17.224,5.338c0.5,0.158,1.026,0.315,1.525,0.447c30.556,8.914,58.325,14.41,84.831,16.909        c17.04,1.604,33.738,1.893,49.884,0.92c0.026,0,0.026,0,0.053,0c0.079,0,0.158,0,0.21-0.026c0.053,0.026,0.105,0.026,0.158,0        h0.079c0.079,0,0.132,0,0.184-0.026h0.026c0.079,0.026,0.158,0,0.237-0.026h0.026c10.072-0.605,19.88-1.709,29.478-3.313        L401.747,87.748z"/>
					</g>
				</g>
			</g>
			<g>
				<g>
					<g>
						<g>
							<polygon style="fill:#F7EDE5;" points="230.634,114.982 233.38,70.125 235.516,115.287 246.807,106.133 240.093,116.813          264.201,119.865 240.704,122.916 247.417,132.376 236.127,126.273 233.075,165.332 230.634,126.883 219.038,131.766          226.362,122.916 197.067,118.949 226.056,117.729 219.343,107.659        "/>
						</g>
					</g>
				</g>
			</g>
			<g>
				<g>
					<g>
						<g>
							<polygon style="fill:#F7EDE5;" points="106.427,371.973 109.174,327.116 111.31,372.278 122.6,363.124 115.887,373.804          139.994,376.855 116.497,379.907 123.21,389.367 111.92,383.264 108.868,422.323 106.427,383.874 94.832,388.756          102.155,379.907 72.861,375.94 101.85,374.719 95.137,364.649        "/>
						</g>
					</g>
				</g>
			</g>
			<g>
				<g>
					<g>
						<g>
							<polygon style="fill:#F7EDE5;" points="425.338,155.114 428.085,110.256 430.221,155.419 441.511,146.264 434.798,156.945          458.905,159.996 435.408,163.047 442.121,172.507 430.831,166.404 427.779,205.463 425.338,167.014 413.743,171.897          421.066,163.047 391.772,159.08 420.761,157.86 414.048,147.79        "/>
						</g>
					</g>
				</g>
			</g>
		</g>
	</g>
</g>















</svg>
