<?xml version="1.0" encoding="iso-8859-1"?>
<!-- Generator: Adobe Illustrator 26.5.3, SVG Export Plug-In . SVG Version: 6.00 Build 0)  -->
<svg xmlns="http://www.w3.org/2000/svg" xmlns:xlink="http://www.w3.org/1999/xlink" version="1.1" id="Capa_1" x="0px" y="0px" viewBox="0 0 512 512" style="enable-background:new 0 0 512 512;" xml:space="preserve">
<g>
	<g>
		<path d="M332.805,418.768c0.659-0.649,0.522-1.519,0.626-2.277c1.79-13.051,3.711-26.086,5.269-39.165    c1.55-13.016,2.915-26.055,4.79-39.03c0.44-3.041,0.921-6.089,1.636-9.073c1.121-4.677,3.88-6.284,8.648-5.565    c5.704,0.86,11.447,1.473,17.146,2.364c4.578,0.715,5.54,2.285,4.823,6.872c-2.228,14.254-4.632,28.484-6.575,42.777    c-2.23,16.41-4.443,32.822-7.221,49.147c-2.168,12.741-4.093,25.519-5.947,38.305c-1.774,12.234-3.694,24.438-6.037,36.574    c-0.416,2.154-0.975,4.283-1.538,6.404c-1.063,4.008-2.579,5.264-6.734,5.601c-3.877,0.314-7.742,0.469-11.639,0.007    c-4.834-0.574-7.707-3.65-7.214-8.515c0.822-8.109,1.69-16.214,2.777-24.298c1.522-11.313,2.799-22.659,4.209-33.987    c0.364-2.921-0.668-5.578-1.431-8.283c-3.117-11.053-6.191-22.12-9.431-33.137c-1.982-6.74-4.11-13.438-6.335-20.106    c-2.899-8.688-5.625-17.435-8.333-26.186c-1.985-6.413-4.313-12.718-6.03-19.216c-0.596-2.253-1.038-4.53-1.328-6.833    c-0.124-0.983-0.077-2.011,0.054-2.998c0.198-1.494,1.04-2.584,2.545-2.937c1.496-0.351,2.633,0.473,3.323,1.636    c0.825,1.391,1.468,2.913,2.016,4.441c7.263,20.263,13.813,40.763,20.259,61.297c2.556,8.143,4.824,16.37,7.055,24.607    C332.33,417.722,332.299,418.328,332.805,418.768z"/>
		<path d="M200.291,431.207c-0.055,9.969,0.199,18.085,1.894,26.02c1.838,8.599,4.121,17.09,9.917,24.132    c3.414,4.147,7.448,7.554,12.299,9.705c8.704,3.86,16.383,1.447,23.266-4.575c4.785-4.187,8.078-9.379,10.439-15.221    c3.368-8.334,5.863-16.949,8.168-25.62c0.465-1.751,1.197-3.288,2.39-4.614c1.221-1.358,2.749-1.052,3.32,0.678    c0.403,1.218,0.347,2.499,0.11,3.731c-2.124,11.03-4.163,22.099-8.099,32.661c-4.495,12.062-12.279,21.283-24.447,26.137    c-15.089,6.019-28.665,2.521-40.618-7.695c-11.779-10.068-18.34-23.381-21.939-38.217c-3.09-12.736-4.748-25.68-4.074-38.805    c0.814-15.843,2.916-31.516,8.363-46.509c3.541-9.746,7.723-19.248,14.787-27.1c7.3-8.113,16.08-13.67,27.003-15.622    c12.613-2.255,25.82,3.98,32.066,15.195c3.531,6.339,5.223,13.099,5.497,20.317c0.334,8.779-0.252,17.407-3.181,25.779    c-0.673,1.925-1.528,3.71-2.761,5.313c-0.79,1.026-1.842,1.613-3.125,1.087c-1.291-0.529-1.347-1.72-1.133-2.885    c0.85-4.627,1.916-9.223,2.569-13.877c1.359-9.689,0.618-19.186-3.739-28.107c-5.257-10.763-16.012-12.523-24.708-4.243    c-4.181,3.981-6.815,8.975-9.408,13.979c-4.784,9.232-8.49,18.881-10.515,29.115c-1.631,8.248-2.933,16.541-3.526,24.945    C200.73,422.295,200.276,427.667,200.291,431.207z"/>
		<path d="M132.646,489.979c-0.019,4.206-0.001,8.413-0.069,12.618c-0.067,4.093-1.198,5.351-5.219,5.957    c-5.839,0.88-11.72,1.307-17.619,1.376c-4.19,0.049-5.169-1.037-5.453-5.166c-0.797-11.577-1.48-23.158-1.812-34.76    c-0.234-8.15-0.629-16.296-0.959-24.444c-0.557-13.786-1.131-27.572-1.676-41.359c-0.361-9.148-0.649-18.298-1.032-27.445    c-0.333-7.957-0.806-15.909-1.12-23.866c-0.287-7.269-0.734-14.536-0.492-21.817c0.094-2.812,1.142-4.122,3.908-4.704    c7.551-1.589,15.213-1.538,22.865-1.347c3.091,0.077,4.329,1.552,4.449,4.692c0.156,4.074,0.263,8.15,0.352,12.226    c0.246,11.352,0.421,22.707,0.723,34.057c0.235,8.84,0.57,17.678,0.946,26.514c0.352,8.274,0.498,16.551,0.668,24.829    c0.259,12.668,0.552,25.336,0.999,37.997C132.394,473.55,132.787,481.757,132.646,489.979z"/>
	</g>
	<g>
		<g>
			<path d="M347.355,218.031c-0.315-9.869-0.48-19.97-1.958-29.988c-0.308-2.084-1.224-3.942-2.124-5.808     c-0.532-1.104-1.255-1.275-2.254-0.549c-1.222,0.886-2.499,1.688-3.952,2.155c-2.746,0.883-4.638,0.157-5.932-2.436     c-1.818-3.642-2.618-7.577-3.055-11.588c-0.299-2.743-0.539-5.493-0.739-8.245c-0.073-1-0.402-1.655-1.424-1.922     c-16.157-4.23-32.293-8.661-49.223-8.08c-9.44,0.324-18.64,1.986-26.93,6.799c-5.801,3.368-10.853,7.556-12.358,14.645     c-0.19,0.897-0.54,1.736-1.628,1.794c-1.109,0.059-1.505-0.813-1.794-1.644c-1.122-3.229-0.188-6.267,1.323-9.041     c4.115-7.558,10.856-11.971,18.661-14.991c10.943-4.233,22.289-5.117,33.88-4.124c10.735,0.921,21.195,3.204,31.547,6.093     c7.495,2.092,15.013,4.099,22.511,6.178c10.943,3.035,21.799,6.402,32.906,8.821c12.867,2.802,25.816,4.943,39,2.622     c9.901-1.743,19.197-5.255,26.992-11.74c8.224-6.842,13.687-15.348,13.482-26.555c-0.173-9.433-4.244-17.047-11.332-23.077     c-5.251-4.467-11.326-7.228-18.27-7.633c-4.909-0.286-9.596,0.993-14.078,2.893c-5.969,2.53-10.452,6.641-12.795,12.81     c-2.368,6.234,0.601,13.81,6.44,17c3.169,1.731,6.588,2.346,10.069,2.87c1.051,0.158,2.092,0.398,3.128,0.641     c0.889,0.209,1.793,0.539,1.708,1.661c-0.092,1.22-1.13,1.373-2.08,1.487c-2.018,0.242-4.009-0.183-6-0.369     c-4.822-0.451-9.354-1.775-13.205-4.906c-6.664-5.418-8.727-14.878-5.154-22.694c4.529-9.907,12.857-14.534,22.899-16.81     c11.486-2.603,21.245,1.182,30.026,8.376c5.661,4.638,9.411,10.604,11.551,17.503c2.31,7.448,2.24,14.955-0.476,22.355     c-4.538,12.364-13.385,20.518-25.187,25.773c-2.291,1.02-4.522,2.196-6.958,2.865c-0.927,0.255-1.478,0.868-1.845,1.729     c-3.279,7.689-9.367,10.958-17.452,10.991c-3.637,0.015-7.274,0.13-10.913-0.194c-3.275-0.292-6.089,1.866-7.007,5.365     c-1.166,4.444-1.576,9.01-1.938,13.58c-0.292,3.691-0.637,7.384-2.072,10.86c-0.287,0.695-0.611,1.376-0.944,2.051     c-0.789,1.598-2.073,2.574-3.859,2.561c-1.705-0.013-2.969-0.94-3.702-2.488c-0.884-1.868-1.68-3.779-2.597-5.63     c-0.431-0.869-0.831-2.181-1.939-2.048c-1.201,0.144-1.254,1.567-1.547,2.554c-1.186,3.998-1.275,8.167-1.866,12.259     c-1.138,7.873-1.746,15.865-4.817,23.336c-0.985,2.396-2.264,4.627-4.3,6.317c-2.593,2.152-5.597,1.61-7.371-1.224     c-1.743-2.785-1.831-5.962-2.255-9.053c-0.247-1.798-0.409-3.626-0.399-5.439C347.781,230.544,347.066,224.412,347.355,218.031z      M417.323,173.74c-0.42-0.428-0.797-0.24-1.14-0.164c-7.535,1.671-15.136,2.026-22.821,1.36     c-10.404-0.902-20.641-2.755-30.732-5.37c-9.955-2.58-19.853-5.382-29.769-8.113c-1.344-0.37-1.872-0.062-1.676,1.407     c0.316,2.36,0.496,4.737,0.792,7.1c0.382,3.049,0.753,6.102,1.838,9.012c0.518,1.391,1.269,1.825,2.504,0.771     c0.667-0.57,1.321-1.155,1.987-1.727c3.115-2.675,6.722-1.987,8.93,1.477c2.446,3.838,3.182,8.172,3.831,12.496     c1.677,11.182,1.955,22.473,2.297,33.753c0.152,5.014,0.233,10.032,0.466,15.043c0.099,2.123,0.489,4.234,0.785,6.345     c0.056,0.399,0.068,1.005,0.624,1.011c0.284,0.003,0.639-0.362,0.846-0.646c1.227-1.686,2.117-3.541,2.804-5.514     c2.797-8.034,3.015-16.5,4.2-24.803c0.566-3.964,0.697-8.017,2.732-11.642c1.825-3.251,5.272-3.866,8.044-1.407     c1.573,1.395,2.819,3.006,3.625,4.968c0.419,1.021,0.987,1.98,1.627,3.24c1.827-3.359,2.222-6.693,2.467-10.066     c0.354-4.878,0.648-9.763,1.927-14.52c1.495-5.563,5.422-8.679,11.193-8.778c3.325-0.057,6.652,0.022,9.977-0.044     c2.773-0.055,5.487-0.505,8.102-1.496C414.725,176.696,416.142,175.378,417.323,173.74z"/>
			<path d="M105.021,68.932c9.043-0.078,17.827,1.643,26.582,3.702c14.201,3.341,27.841,8.478,41.73,12.817     c10.606,3.314,21.284,6.385,32.413,7.463c11.174,1.082,22.115,0.284,32.355-4.716c12.142-5.929,19.838-15.373,20.819-29.147     c0.508-7.144-1.771-13.892-5.785-19.919c-5.457-8.193-13.193-12.092-22.975-11.875c-10.904,0.241-22.157,9.407-24.559,19.87     c-2.115,9.212,2.309,19.472,10.168,23.274c4.16,2.013,8.517,2.456,12.989,0.95c0.773-0.26,1.772-0.954,2.369,0.094     c0.649,1.138-0.298,1.889-1.115,2.467c-4.036,2.856-8.487,3.01-13.153,2.05c-9.282-1.911-16.043-11.002-17.649-19.783     c-2.363-12.92,4.815-24.285,15.119-30.328c8.514-4.994,17.506-6.254,26.985-3.257c7.641,2.417,13.374,7.243,17.501,14.051     c3.588,5.919,5.564,12.404,5.912,19.25c0.367,7.234-1.513,14.029-5.271,20.284c-7.773,12.939-19.657,19.373-34.132,21.92     c-12.391,2.18-24.496,0.615-36.53-2.354c-2.375-0.586-4.75-1.187-7.09-1.895c-1.261-0.382-1.655,0.136-1.981,1.229     c-1.003,3.363-1.982,6.732-3.812,9.791c-3.577,5.979-7.296,7.277-13.738,4.672c-0.175-0.071-0.353-0.135-0.518-0.224     c-4.69-2.545-5.621-1.509-7.819,2.844c-2.515,4.979-3.43,10.466-4.276,15.936c-0.873,5.642-1.754,11.282-2.633,16.923     c-0.475,3.047-1.256,6.028-2.284,8.923c-1.742,4.909-5.702,5.678-9.2,1.801c-2.617-2.901-3.608-6.566-4.379-10.267     c-1.504-7.217-1.933-14.526-1.943-21.892c-0.01-7.021-0.13-14.051-1.125-21.027c-0.035-0.248-0.077-0.496-0.128-0.742     c-1.16-5.57-1.332-5.727-6.987-6.4c-4.945-0.588-7.996-3.846-8.699-8.885c-0.484-3.47-0.112-6.891,0.116-10.323     c0.093-1.41-0.329-1.856-1.713-1.957c-9.659-0.703-19.176,0.004-28.533,2.597c-10.229,2.835-18.728,8.318-25.465,16.527     c-1.631,1.988-3.279,3.963-4.954,5.914c-0.621,0.724-1.383,1.498-2.394,0.719c-0.923-0.71-0.686-1.703-0.153-2.552     c3.899-6.212,8.59-11.767,14.3-16.367c9.495-7.65,20.716-10.674,32.606-11.828C99.002,68.97,102.009,69.002,105.021,68.932z      M116.753,81.287c-0.005,0-0.01,0-0.015,0c0,0.941-0.005,1.883,0.001,2.824c0.032,5.614,1.724,7.017,7.221,5.992     c3.632-0.678,6.54,0.737,8.245,4.063c1.273,2.484,1.962,5.147,2.314,7.909c1.068,8.358,1.096,16.761,1.166,25.168     c0.046,5.582,0.387,11.157,1.199,16.685c0.4,2.725,0.811,5.477,2.124,7.965c0.304,0.577,0.452,1.505,1.296,1.406     c0.681-0.079,0.778-0.918,0.957-1.5c0.796-2.58,1.461-5.195,1.824-7.876c1.136-8.39,2.177-16.795,3.436-25.166     c0.7-4.659,1.792-9.26,4.53-13.247c2.358-3.434,5.959-4.661,9.901-3.272c1.885,0.664,3.669,1.619,5.497,2.443     c2.467,1.112,3.245,0.893,5.03-1.146c2.206-2.52,3.26-5.63,4.51-8.631c0.934-2.244,0.774-2.436-1.526-3.196     c-11.198-3.698-22.374-7.465-33.602-11.066c-7.173-2.301-14.506-4.028-21.909-5.443c-1.504-0.287-2.297,0.069-2.213,1.759     C116.81,78.397,116.753,79.844,116.753,81.287z"/>
			<path d="M273.253,253.112c10.186-0.194,20.103,1.712,29.97,3.919c15.079,3.373,29.238,9.388,43.457,15.236     c10.555,4.341,20.925,9.193,31.873,12.491c11.549,3.479,23.288,4.895,34.949,0.606c8.858-3.258,15.493-9.19,18.3-18.405     c2.089-6.86,0.741-13.484-4.321-18.723c-8.474-8.77-20.849-6.427-26.294,3.201c-2.882,5.095-0.831,11.031,4.52,13.387     c1.256,0.553,2.618,0.862,3.92,1.317c0.635,0.222,1.488,0.388,1.362,1.282c-0.12,0.851-0.704,1.485-1.627,1.598     c-0.555,0.068-1.133,0.07-1.688,0c-10.74-1.343-15.946-12.218-10.269-21.432c4.67-7.579,12.851-11.542,21.544-9.785     c8.863,1.792,14.334,7.613,16.917,16.143c3.656,12.075-0.823,21.63-9.631,29.634c-7.618,6.923-16.963,9.432-26.988,9.979     c-12.168,0.664-23.793-1.869-35.241-5.744c-15-5.077-29.319-11.836-44.045-17.584c-12.139-4.739-24.5-8.695-37.475-10.311     c-9.646-1.201-19.288-1.332-28.709,1.712c-5.344,1.727-10.102,4.421-13.972,8.553c-0.659,0.704-1.296,1.545-2.37,0.98     c-1.168-0.614-1.1-1.779-0.795-2.826c1.015-3.472,3.677-5.598,6.457-7.568c6.163-4.365,13.248-6.15,20.573-7.238     C266.851,253.063,270.052,253.091,273.253,253.112z"/>
			<path d="M74.755,44.151c-6.547-0.396-12.946,0.559-19.055,3.204c-8.219,3.558-14.006,9.347-16.559,18.093     c-0.07,0.241-0.144,0.481-0.229,0.717c-0.361,0.999-0.629,2.324-1.961,2.155c-1.502-0.19-1.623-1.618-1.569-2.816     c0.244-5.409,2.269-10.131,5.829-14.165c4.898-5.551,11.168-8.84,18.24-10.689c13.174-3.444,26.123-1.859,38.993,1.763     c9.562,2.691,18.557,6.953,27.978,10.014c8.786,2.855,17.697,5.125,27.088,4.857c12.055-0.344,22.364-10.125,22.58-22.159     c0.122-6.823-3.093-12.18-9.47-14.986c-5.532-2.434-10.863-1.425-15.49,2.452c-2.217,1.857-3.744,4.185-3.494,7.351     c0.148,1.871,0.035,3.764,0.018,5.647c-0.009,1.017,0.02,2.172-1.312,2.353c-1.256,0.171-1.765-0.829-2.032-1.828     c-2.864-10.726,1.885-18.453,12.068-20.945c11.702-2.864,23.348,6.418,23.711,18.48c0.449,14.896-10.256,26.856-25.071,28.269     c-6.361,0.607-12.501-0.433-18.655-1.679c-8.025-1.625-15.69-4.376-23.301-7.341c-8.77-3.416-17.609-6.667-26.975-8.117     C82.358,44.203,78.604,43.925,74.755,44.151z"/>
			<path d="M450.555,214.853c-10.559,0.067-18.19-1.761-25.846-3.472c-6.176-1.38-12.318-2.989-18.756-2.677     c-3.852,0.186-7.621,0.611-11.214,2.106c-1.053,0.438-2.276,0.93-3.064-0.286c-0.807-1.246,0.057-2.27,0.923-3.132     c0.94-0.936,2.029-1.654,3.289-2.136c6.498-2.488,13.102-2.945,19.966-1.665c7.597,1.417,14.996,3.629,22.55,5.199     c5.941,1.234,11.911,2.072,17.893,0.651c6.694-1.589,11.99-5.375,14.843-11.697c3.489-7.73-1.126-15.675-8.264-17.44     c-4.242-1.049-11.911,2.145-12.719,7.993c-0.213,1.545-0.774,3.048-0.491,4.645c0.138,0.779-0.148,1.364-0.868,1.69     c-0.85,0.385-1.615,0.168-2.219-0.496c-0.762-0.837-0.999-1.879-0.919-2.977c0.517-7.1,3.356-12.637,10.844-15.129     c6.301-2.098,13.505,0.673,17.395,6.77c4.186,6.56,3.49,15.862-1.625,21.743C465.754,212.038,459.092,214.857,450.555,214.853z"/>
		</g>
		<g>
			<g>
				<path d="M322.704,75.139c-2.374,1.913-4.396,3.566-6.443,5.188c-5.259,4.168-10.503,8.358-16.042,12.153      c-0.967,0.662-1.285,1.28-1.005,2.478c0.741,3.17-0.777,6.321-3.568,7.783c-3.022,1.582-6.743,1.03-9.032-1.339      c-2.243-2.321-2.812-6.204-1.306-8.909c1.531-2.749,4.885-4.291,8.082-3.357c1.592,0.465,2.533,0.003,3.687-0.935      c7.155-5.814,14.363-11.563,21.564-17.321c2.13-1.703,2.174-1.717,0.084-3.506c-5.765-4.937-11.478-9.931-16.961-15.181      c-0.679-0.65-1.326-1.335-1.958-2.03c-1.222-1.344-2.415-2.195-4.531-1.697c-3.001,0.707-6.601-2.444-7.011-5.714      c-0.415-3.309,2.517-6.843,6.007-7.242c3.398-0.388,6.712,2.229,7.086,5.595c0.014,0.125,0.058,0.265,0.018,0.374      c-1.146,3.138,1.005,4.658,3.062,6.196c5.891,4.404,10.935,9.783,16.627,14.415c0.243,0.198,0.457,0.438,0.719,0.606      c0.347,0.222,0.677,0.754,1.121,0.414c0.219-0.168,0.227-0.679,0.24-1.037c0.139-4.012,0.295-8.023,0.379-12.037      c0.167-7.966,0.263-15.934,0.45-23.9c0.057-2.442,0.176-4.899,0.528-7.312c0.264-1.812-0.044-2.995-1.65-4.132      c-3.191-2.26-3.976-7.496-1.894-10.896c2.155-3.52,6.469-4.779,10.201-2.978c5.341,2.577,5.706,11.032,0.511,14.481      c-1.426,0.947-1.562,1.901-1.489,3.419c0.315,6.519,0.261,13.042,0.072,19.57c-0.209,7.213-0.19,14.433-0.26,21.649      c-0.004,0.356-0.112,0.868,0.336,0.976c0.621,0.15,1.021-0.391,1.435-0.742c4.211-3.566,8.455-7.094,12.593-10.743      c2.701-2.382,5.692-4.328,8.707-6.246c1.157-0.736,1.729-1.568,1.867-2.991c0.31-3.221,3.322-6.038,6.218-6.08      c3.264-0.048,6.044,2.112,6.706,5.211c1.048,4.905-3.721,9.574-8.498,8.234c-1.197-0.336-1.961-0.059-2.879,0.678      c-8.019,6.437-16.076,12.828-24.13,19.222c-2.733,2.169-2.801,2.219-0.228,4.533c6.86,6.17,13.534,12.531,19.894,19.213      c0.868,0.912,1.493,0.682,2.44,0.253c3.638-1.648,7.468-0.243,9.25,3.299c1.778,3.533,0.702,7.28-2.67,9.301      c-3.422,2.051-8.743,0.09-9.52-4.286c-0.769-4.331-3.708-6.474-6.445-9.001c-4.47-4.126-9.057-8.126-13.608-12.163      c-0.438-0.389-0.833-1.158-1.538-0.787c-0.552,0.291-0.304,1.028-0.325,1.57c-0.263,6.767-0.451,13.538-0.782,20.302      c-0.196,4.006-0.543,8.008-0.96,11.997c-0.149,1.421,0.064,2.258,1.452,3.001c3.896,2.086,5.804,6.105,4.84,9.673      c-1.242,4.596-6.889,7.727-11.505,6.378c-4.498-1.314-6.771-6.009-5.281-10.914c0.577-1.901,1.409-3.633,3.19-4.721      c0.925-0.565,1.085-1.386,1.012-2.425c-0.516-7.338,0.211-14.661,0.368-21.991C322.041,85.644,322.423,80.608,322.704,75.139z"/>
				<path d="M179.314,206.582c-0.027-5.272-0.222-10.538-0.349-15.807c-0.111-4.636,0.106-9.283,0.29-13.92      c0.059-1.496-0.394-2.387-1.694-3.198c-3.183-1.985-4.506-7.29-2.852-10.745c1.678-3.505,5.564-5.114,9.573-3.965      c4.082,1.17,6.482,6.197,4.895,10.366c-0.652,1.713-1.502,3.343-3.158,4.332c-1.121,0.67-1.13,1.709-1.072,2.8      c0.507,9.525,0.666,19.06,0.834,28.595c0.087,4.955,0.248,9.908,0.391,14.862c0.016,0.543-0.19,1.251,0.385,1.559      c0.707,0.379,1.141-0.324,1.583-0.71c5.385-4.705,10.75-9.431,16.129-14.142c0.565-0.495,1.155-0.971,1.783-1.379      c1.549-1.008,2.446-2.007,2.006-4.237c-0.692-3.507,2.351-6.719,6.021-6.944c3.716-0.228,6.864,2.623,7.007,6.346      c0.132,3.438-2.909,6.885-6.358,6.41c-2.738-0.377-4.182,0.881-5.771,2.503c-5.715,5.829-11.931,11.108-18.111,16.425      c-0.38,0.328-0.725,0.702-1.129,0.996c-0.956,0.696-0.738,1.206,0.102,1.868c3.646,2.873,7.248,5.801,10.869,8.705      c4.013,3.218,8.063,6.39,12.02,9.675c0.976,0.81,1.782,1.042,3.035,0.746c4.647-1.099,8.429,1.252,9.148,5.667      c0.529,3.251-0.89,5.756-3.481,7.596c-2.381,1.691-5.55,1.64-7.985,0.027c-2.779-1.841-3.946-4.411-3.196-7.58      c0.296-1.253-0.19-1.863-1.079-2.484c-6.995-4.893-13.713-10.145-20.254-15.628c-0.486-0.407-0.999-1.266-1.715-0.843      c-0.648,0.383-0.305,1.276-0.266,1.935c0.625,10.584,0.793,21.182,1.058,31.777c0.017,0.69,0.083,1.397-0.034,2.068      c-0.296,1.687,0.202,2.788,1.582,3.995c2.629,2.298,3.524,5.467,2.777,8.907c-0.677,3.118-2.611,5.201-5.728,6.146      c-4.045,1.227-9.211-1.344-10.984-5.512c-1.497-3.519,0.402-8.595,4.167-10.411c1.615-0.78,1.93-1.652,1.811-3.322      c-0.727-10.196-1.54-20.389-1.591-30.622c-0.005-1.04,0.23-2.563-0.646-2.943c-0.973-0.422-1.725,0.959-2.498,1.647      c-5.527,4.923-11.03,9.873-16.564,14.788c-1.027,0.912-1.702,1.859-1.778,3.338c-0.135,2.626-1.626,4.601-3.695,6.067      c-2.958,2.097-7.315,0.865-9.035-2.447c-1.372-2.644-0.94-6.051,1.05-8.278c2.071-2.318,5.087-3.027,8.034-1.662      c1.19,0.551,1.9,0.405,2.774-0.508c6.468-6.757,13.245-13.195,20.192-19.456c1.994-1.798,1.953-1.823-0.061-3.432      c-8.232-6.578-16.47-13.148-24.672-19.763c-1.049-0.846-2.021-0.957-3.294-0.638c-3.951,0.988-7.346-1.59-8.28-6.164      c-0.69-3.379,1.759-6.627,5.476-7.264c3.507-0.6,7.114,2.109,7.421,5.824c0.133,1.609,0.814,2.464,2.119,3.213      c5.262,3.02,9.658,7.157,14.19,11.122c2.454,2.147,5.009,4.177,7.52,6.258c0.232,0.192,0.468,0.535,0.796,0.329      c0.443-0.278,0.282-0.792,0.283-1.209C179.318,214.366,179.314,210.474,179.314,206.582z"/>
			</g>
			<g>
				<path d="M402.763,44.439c2.667-2.444,5.297-4.852,7.923-7.264c1.154-1.06,2.286-2.143,3.449-3.193      c0.919-0.829,2.024-1.67,3.148-0.665c1.178,1.053,0.82,2.481-0.083,3.562c-2.811,3.364-5.511,6.833-8.796,9.778      c-1.073,0.962-2.02,2.064-3.083,3.038c-1.13,1.035-1.035,1.865,0.026,2.959c3.623,3.736,7.156,7.56,10.727,11.347      c0.89,0.944,1.874,1.964,0.737,3.24c-1.11,1.246-2.492,0.778-3.545-0.115c-3.06-2.593-6.024-5.3-9.046-7.939      c-0.402-0.351-0.672-1.168-1.282-0.918c-0.629,0.258-0.54,1.074-0.545,1.686c-0.041,5.459-0.05,10.919-0.097,16.378      c-0.008,0.871-0.092,1.754-0.262,2.608c-0.197,0.988-0.871,1.49-1.907,1.428c-0.997-0.06-1.462-0.719-1.565-1.592      c-0.192-1.617-0.353-3.243-0.411-4.869c-0.171-4.764-0.279-9.529-0.429-14.294c-0.017-0.533,0.235-1.294-0.415-1.506      c-0.585-0.191-0.944,0.5-1.347,0.869c-2.683,2.455-5.306,4.979-8.05,7.363c-1.65,1.434-3.63,1.69-4.188,0.675      c-0.924-1.682,0.437-2.655,1.433-3.66c3.357-3.384,6.687-6.797,10.133-10.089c1.185-1.133,1.075-1.826-0.065-2.84      c-3.653-3.251-7.237-6.578-10.406-10.323c-0.893-1.055-1.833-2.137-0.675-3.45c1.11-1.258,2.472-0.67,3.595,0.06      c2.8,1.818,5.059,4.299,7.626,6.406c0.594,0.488,1.098,1.566,1.924,1.144c0.755-0.386,0.423-1.491,0.416-2.28      c-0.052-5.335,0.183-10.656,0.702-15.964c0.006-0.062,0.011-0.125,0.024-0.187c0.247-1.139,0.212-2.671,1.824-2.623      c1.592,0.048,1.834,1.549,1.983,2.79c0.626,5.183,0.416,10.396,0.454,15.599C402.699,42.635,402.52,43.699,402.763,44.439z"/>
				<path d="M285.542,219.466c-0.056,3.825,0.124,7.661-0.593,11.451c-0.184,0.975-0.188,2.192-1.5,2.29      c-1.426,0.107-1.621-1.161-1.896-2.175c-0.946-3.495-0.537-7.108-0.843-10.66c-0.247-2.866-0.037-5.771-0.073-8.658      c-0.009-0.722,0.364-1.741-0.356-2.096c-0.809-0.399-1.222,0.649-1.723,1.132c-2.393,2.308-4.748,4.655-7.099,7.005      c-0.762,0.761-1.588,1.428-2.541,1.924c-0.775,0.404-1.622,0.557-2.249-0.168c-0.621-0.719-0.125-1.426,0.338-2.035      c2.741-3.603,5.862-6.864,9.068-10.048c0.757-0.752,1.487-1.539,2.305-2.219c0.872-0.726,1.011-1.221-0.011-2.009      c-3.08-2.372-6.064-4.869-9.124-7.268c-1.683-1.32-3.367-2.63-4.707-4.311c-0.504-0.633-1.094-1.356-0.468-2.197      c0.637-0.858,1.547-0.687,2.405-0.371c2.452,0.901,4.467,2.529,6.562,4.014c1.996,1.415,3.943,2.899,5.932,4.326      c0.431,0.309,0.859,0.968,1.437,0.633c0.508-0.295,0.442-1.03,0.402-1.567c-0.334-4.403,0.255-8.767,0.499-13.145      c0.091-1.627,0.217-3.253,0.345-4.878c0.094-1.19,0.373-2.383,1.825-2.418c1.435-0.034,1.877,1.145,1.985,2.316      c0.206,2.245,0.365,4.501,0.406,6.755c0.067,3.639,0.014,7.281,0.035,10.922c0.003,0.469-0.204,1.11,0.396,1.331      c0.549,0.203,0.889-0.33,1.258-0.653c2.121-1.862,4.229-3.739,6.366-5.583c0.758-0.654,1.551-1.281,2.39-1.826      c0.892-0.58,1.947-0.884,2.726,0.072c0.741,0.908,0.134,1.775-0.502,2.519c-3.272,3.827-7.138,7.052-10.753,10.529      c-1.025,0.986-0.941,1.493-0.008,2.373c3.149,2.968,6.255,5.98,9.342,9.013c0.663,0.652,1.265,1.407,1.729,2.211      c0.495,0.859,0.588,1.888-0.267,2.582c-0.865,0.702-1.771,0.353-2.56-0.312c-2.493-2.102-4.972-4.222-7.491-6.292      c-0.752-0.618-1.529-1.851-2.42-1.489c-0.977,0.397-0.526,1.798-0.55,2.766C285.507,215.322,285.542,217.395,285.542,219.466z"/>
				<path d="M94.149,175.376c2.855-2.993,5.312-5.582,7.787-8.154c0.607-0.631,1.225-1.27,2.112-1.525      c0.819-0.235,1.633-0.351,2.224,0.446c0.52,0.701,0.402,1.469-0.074,2.107c-0.937,1.254-1.908,2.487-2.942,3.661      c-2.443,2.777-4.891,5.551-7.422,8.247c-0.88,0.938-0.728,1.534,0.11,2.329c3.14,2.977,6.246,5.99,9.354,9      c0.808,0.783,1.7,1.505,2.207,2.546c0.41,0.84,0.551,1.711-0.196,2.434c-0.721,0.699-1.538,0.406-2.258-0.019      c-1.135-0.669-2.177-1.467-3.16-2.357c-2.09-1.894-4.231-3.732-6.349-5.594c-0.281-0.247-0.552-0.581-0.965-0.448      c-0.447,0.143-0.395,0.593-0.417,0.956c-0.357,5.941-0.697,11.882-1.066,17.822c-0.132,2.125-0.279,4.251-0.522,6.366      c-0.097,0.845-0.303,1.867-1.508,1.803c-1.05-0.056-1.244-0.979-1.363-1.775c-0.535-3.595-0.728-7.205-0.601-10.848      c0.153-4.387,0.133-8.779,0.176-13.169c0.004-0.356,0.107-0.825-0.32-0.996c-0.427-0.171-0.669,0.241-0.915,0.5      c-2.421,2.545-4.816,5.115-7.259,7.639c-0.737,0.761-1.575,1.43-2.409,2.088c-0.527,0.416-1.157,0.545-1.726,0.052      c-0.612-0.53-0.677-1.244-0.278-1.878c0.599-0.95,1.263-1.872,1.996-2.723c2.7-3.136,5.426-6.25,8.169-9.349      c1.909-2.157,1.86-2.367-0.424-4.239c-3.15-2.582-6.568-4.836-9.494-7.69c-0.85-0.829-1.69-1.696-2.373-2.66      c-0.627-0.886-1.046-1.997-0.109-2.927c0.902-0.896,1.918-0.39,2.737,0.215c3.228,2.383,6.404,4.836,9.627,7.227      c0.876,0.65,1.705,2.086,2.715,1.642c0.89-0.392,0.283-1.94,0.383-2.972c0.66-6.751,0.062-13.546,0.678-20.3      c0.085-0.928-0.071-2.03,1.278-2.122c1.289-0.088,1.536,0.949,1.64,1.888c0.242,2.177,0.482,4.363,0.546,6.551      C93.892,164.399,94.38,169.638,94.149,175.376z"/>
			</g>
		</g>
	</g>
</g>
<g>
</g>
<g>
</g>
<g>
</g>
<g>
</g>
<g>
</g>
<g>
</g>
<g>
</g>
<g>
</g>
<g>
</g>
<g>
</g>
<g>
</g>
<g>
</g>
<g>
</g>
<g>
</g>
<g>
</g>
</svg>
