<svg id="Layer_1" enable-background="new 0 0 512 512" viewBox="0 0 512 512" xmlns="http://www.w3.org/2000/svg"><path d="m304.3 163.4c0 2.1-.8 5 .2 6.1 1.2 1.2 3.3-1.3 5.1-1.9 11.5-3.5 22.1-1.5 32.1 4.8.9.6 1.7 1.4 2.4 2.3 3 4.2 6.2 8.4 9 12.8 4.6 7.2 6.6 14.9 5.7 23.7-1.1 11.5-1.1 9 8 8.4 6-.4 11.7.3 17.4 2 1.5.5 2.8 1.2 3.9 2.4 5.7 5.8 9.7 12.4 10.9 20.8 1.2 8.2-5.7 18.3-13 21.2-6.6 2.7-13.5 3.5-20.7 3.4-24.8-.2-49.6-.1-74.5-.1-52.1 0-104.2 0-156.2 0-3.2 0-6.4.1-9.4 1.5-2.2 1-4.6.6-6.9.2-8.5-1.4-17.7-1.6-24.7-6.6-7.7-5.5-16.9-10.2-19.3-20.9-.3-1.4-1-2.9-2-3.8-3.8-3.4-4.7-7.8-5.4-12.5-.8-5.7-2.9-11.2-2.8-17 .3-14.9 5.3-28.2 14.6-39.8 4.4-5.5 7.9-12 14-15.9 8-5.1 16.9-7 26.3-4.7.4.1.8.3 1.3.4 4 1.1 4.2.9 4.8-3.1 2.3-15.3 11-26.8 22.2-36.7 8.6-7.5 17.4-14.7 27.6-20.1 2.7-1.4 5.3-3.1 8.3-4.2 16.3-5.9 33-8.2 50.3-5.4 8.4 1.3 15.6 5.3 22.9 9.3 11.9 6.5 22.7 14.4 31.1 25.1 8.5 10.7 14.7 22.6 15.8 36.7.2 3.9 1.3 7.6 1 11.6z" fill="#c6e0f7"/><g fill="#3981bf"><path d="m320.7 331.8c-6 .1-9.4-5.1-7.3-10.5 4.5-11.5 9.1-22.9 13.6-34.3 6-15 12-30 18-45.1 2.5-6.2 6-8.5 10.6-6.7 4.6 1.7 5.7 5.9 3.3 12-10.5 26.2-21 52.4-31.4 78.7-1.4 3.5-3.5 5.7-6.8 5.9z"/><path d="m294.7 239.5c-.2.6-.5 1.8-.9 2.9-10.1 25.4-20.2 50.8-30.4 76.2-1.7 4.2-5.8 6.1-9.7 4.6-4.1-1.6-5.8-5.7-4-10.1 10.1-25.5 20.3-51 30.5-76.5 1.7-4.3 5-6.1 8.8-5.2 3.5.7 5.9 3.9 5.7 8.1z"/><path d="m292.1 321.4c5.6.1 8.6 5.3 6.3 11.1-3.9 9.8-7.8 19.5-11.7 29.3-3.9 9.9-7.9 19.7-11.8 29.6-1.6 4-4.2 5.9-7.6 5.7-5.3-.3-8.4-5.2-6.3-10.6 3-7.9 6.2-15.6 9.3-23.5 4.8-12 9.6-24.1 14.4-36.1 1.5-3.9 3.9-5.6 7.4-5.5z"/><path d="m206.8 424.2c.2-.7.5-2 1-3.2 7-17.5 13.9-35 20.9-52.5.8-2.1 1.9-4 4.1-5 2.9-1.3 5.7-1.1 8.1 1 2.6 2.3 3.3 5.2 2 8.4-2.9 7.5-6 15-8.9 22.6-4.2 10.5-8.3 21-12.5 31.5-1.6 3.9-5 5.9-8.6 5.2-3.6-.6-6.1-3.7-6.1-8z"/><path d="m190.5 322.1c.1 1.4-.3 2.6-.8 3.9-5.7 14.3-11.4 28.6-17.1 42.9-1.2 3.1-3.5 4.9-6.8 5-3.2.1-5.5-1.4-6.9-4.3-1-2-.9-4.1-.1-6.1 5.8-14.6 11.6-29.2 17.5-43.8 1.4-3.5 4.9-5.3 8.3-4.6 3.3.6 5.8 3.5 5.9 7z"/><path d="m322.8 244.1c-.1.5-.2 1.5-.6 2.4-5.7 14.4-11.5 28.8-17.3 43.2-2.1 5.3-7.8 6.9-11.9 3.4-2.3-2-3.4-4.6-2.3-7.5 5.9-15.2 11.9-30.3 18-45.4 1.3-3.3 4.9-4.7 8.3-3.9 3.5.8 5.9 3.8 5.8 7.8z"/><path d="m201.4 283c-6.1 0-9.4-5.3-7.2-10.7 4.7-11.9 9.5-23.9 14.3-35.8.7-1.7 1.3-3.5 2.1-5.2 1.8-3.9 5.9-5.6 9.6-4 3.7 1.5 5.6 5.6 4 9.7-4 10.2-8.1 20.4-12.2 30.5-1.4 3.6-2.8 7.2-4.3 10.8-1.3 3.1-3.6 4.6-6.3 4.7z"/><path d="m212.9 344.2c-5.7 0-9.1-5.2-7-10.6 3.1-8.1 6.4-16 9.6-24 1.9-4.8 3.8-9.7 5.8-14.5 1.8-4.4 5.9-6.3 9.9-4.7s5.6 5.8 3.8 10.2c-5.1 12.8-10.2 25.5-15.2 38.2-1.3 3.3-3.6 5.2-6.9 5.4z"/><path d="m239.6 273c-5.7-.1-9.1-5.1-7-10.4 3.7-9.5 7.5-18.9 11.3-28.4 1.2-3.1 2.4-6.2 3.7-9.2 1.7-4.1 5.9-5.9 9.8-4.3 3.7 1.5 5.6 5.6 4 9.7-5 12.7-10 25.3-15.1 37.9-1.3 3.1-3.8 4.6-6.7 4.7z"/></g><path d="m377.1 168.3c9.4-4.6 17.9-3.8 26.4.6 1.9 1 3.4 2.4 4.5 4.2 2.6 4.2 6 8 8.1 12.6 2.3 5 2.2 10.1 1.7 15.3-.4 4.7-.2 4.8 4.5 4.5 2.8-.2 5.5-.3 8.3-.2 12.5.6 18.5 14.7 17.2 22.8-.9 5.8-7.1 12.3-15.1 13.5-9.5 1.5-19 .7-28.4.7-51.3.1-102.6.1-153.9 0-4.1 0-7.7 2.1-11.8 1.5-6.5-1-13.6-1.3-19.1-5-5.9-4-12.7-7.7-14.5-15.6-.1-.6-.4-1.3-.8-1.8-9-14.2-8.8-28.8-1.9-43.5 3.6-7.7 8.8-14.5 15.1-20.1 5.9-5.2 13.4-6.6 21.2-4.6 3.9 1 3.8 1.1 4.5-2.9 1.8-10.7 7.8-19 15.7-25.9 6.2-5.5 12.6-10.7 20-14.8 10.6-5.9 21.9-8.9 33.9-8.9 6.2 0 12.6.2 18.3 2.8 20.7 9.3 38.1 21.9 44.3 45.3 1.7 6.2 2.4 12.6 1.8 19.5z" fill="#6ea4dd"/><path d="m348.9 131.7c1.4 1.6 3.1 3.6 5.3 1.5 2.4-2.2.2-3.9-1.3-5.5-10.7-12.5-24.8-16.8-40.6-17.2-3.1-.1-6.2 0-9.2.8-15 3.9-27.4 11.7-37 23.9-2.1 2.7-3.8 5.7-5.1 8.9-.7 1.6-.4 3.1 1.3 3.9s3 0 3.8-1.6c.2-.3.3-.6.4-.9 8.3-15.8 21.8-25.5 38.8-28.5 16.6-3 31.9 1.4 43.6 14.7z"/><path d="m143.7 140.5c-1.4 2.9-2.5 5.9-3 9.2.1 1.6.8 2.8 2.5 2.9 1.9.2 2.8-1 3.2-2.7 1.3-5.9 4.3-10.9 7.6-15.7 11.6-16.6 27.1-27.7 46.9-32.6 2.1-.5 4.1-1.2 3.3-3.9-.7-2.4-2.7-2.1-4.6-1.6-12.4 2.9-23.6 8.5-33.4 16.5-9.4 7.6-17.1 16.9-22.5 27.9z"/><path d="m86.8 216.8c-3.5-19.8 4.6-33.5 23.7-39.8 1.6-.5 2.4-1.5 2.2-3.2-.3-1.7-1.5-2.5-3.1-2.3-2.7.2-5.3.8-7.7 2-14.5 7.1-21.1 19.2-21.5 31.6.1 14 3.3 24.7 8.7 32.2 1.2 1.7 2.6 3.4 4.9 1.8 2.1-1.5 1.1-3.2-.1-4.9-3.8-5.2-6-11.1-7.1-17.4z"/><path d="m218.2 220c1.2 1.7 2.7 3.4 4.9 1.8 2.3-1.6 1-3.3-.2-5.1-10-13.9-4.7-34.8 10.7-42.4 1.6-.8 3.3-1.3 4.9-2.1 1.3-.7 1.9-1.8 1.4-3.3-.4-1.3-1.4-1.9-3.1-1.9-2.4.7-4.9 1.8-7.3 3.1-21.2 12-20.2 37.4-11.3 49.9z"/><path d="m394.9 182.7c-1.7 1.6-.8 3.2.5 4.6 3.1 3.3 5.1 7.2 5.4 11.8.2 2 .8 3.6 3.1 3.4s2.7-1.9 2.5-3.9c-.5-5.8-2.9-10.8-6.8-15.1-1.3-1.5-2.9-2.5-4.7-.8z"/><path d="m359.9 145.6c-1.4.5-2.2 1.6-1.9 3.1.8 3.2 1.8 6.4 2.8 9.5.5 1.4 1.8 2 3.2 1.6 1.5-.4 2.1-1.5 2.1-3.6-.9-2.7-1.8-6-3-9.2-.4-1.4-1.7-1.9-3.2-1.4z"/><path d="m226.7 106.1c2 .1 3.1-.5 3.5-2 .4-1.6-.3-2.9-1.9-3.4-3.1-.8-6.2-1.6-9.3-2.2-1.6-.3-2.8.5-3.2 2.2-.3 1.5.3 2.7 1.8 3.2 3.1.8 6.3 1.5 9.1 2.2z"/><path d="m124.8 177.6c1.8.2 3-.8 3.1-2.6.1-2.5-1.8-2.9-3.8-3.3-1.8 0-3 .8-3.1 2.6 0 2.6 1.9 3.1 3.8 3.3z"/></svg>