<?xml version="1.0" encoding="UTF-8"?>
<!-- Generator: Adobe Illustrator 27.3.1, SVG Export Plug-In . SVG Version: 6.00 Build 0)  -->
<svg xmlns="http://www.w3.org/2000/svg" xmlns:xlink="http://www.w3.org/1999/xlink" version="1.1" id="Capa_1" x="0px" y="0px" viewBox="0 0 512 512" style="enable-background:new 0 0 512 512;" xml:space="preserve" width="512" height="512">
<g>
	<path style="fill:#FFFFFF;" d="M173.825,475.226c-58.502,0-110.866-30.598-143.668-83.948   C-6.103,332.303-9.937,258.671,20.132,199.067C65.641,103.5,174.602,36.774,285.18,36.774c30.573,0,59.886,5.148,87.125,15.303   c71.614,26.264,126.876,95.193,137.665,171.662c0.059,0.306,0.109,0.614,0.15,0.925c5.515,41.747-1.205,82.995-18.926,116.231   c-0.071,0.147-0.144,0.292-0.22,0.436c-0.943,1.794-1.936,3.505-2.964,5.241c-0.328,0.578-0.678,1.16-1.032,1.74   c-1.469,2.455-3.162,5.07-5.111,7.882c-0.055,0.081-1.195,1.687-1.195,1.687c-1.965,2.737-4.001,5.373-6.04,7.813   c-0.48,0.609-0.988,1.218-1.524,1.824c-2.183,2.569-4.457,5.039-6.762,7.344c-0.042,0.041-0.083,0.083-0.126,0.123   c-21.748,23.396-44.8,34.301-72.482,34.301c-11.532,0-22.163-1.817-32.443-3.575c-8.769-1.499-17.052-2.915-24.676-2.915   c-1.661,0-3.271,0.068-4.784,0.204c-5.028,0.441-9.533,1.681-13.762,3.786c-2.382,1.663-4.728,3.366-7.074,5.109   c-5.917,4.412-11.951,9.231-17.785,13.891c-25.199,20.128-51.254,40.939-86.984,46.37   C195.376,474.194,184.475,475.226,173.825,475.226z"/>
	<g>
		<g>
			<g>
				<path style="fill:#977BFF;" d="M449.185,296.119c-7.605,12.131,13.842,61.128,6.605,68.97c0,0.026-0.027,0.053-0.053,0.079      h-0.026c-47.076,51.155-86.89,20.183-124.73,23.578c-6.894,0.605-9.906-21.457-16.695-17.879      c-2.816,1.948-9.383,27.773-12.146,29.826c-30.604,22.815-58.339,51.445-97.995,57.365      C66.047,484.214-24.475,324.802,34.864,207.492C90.362,90.708,245.011,22.738,367.347,68.341      c67.944,24.92,118.073,89.811,127.651,159.834v0.026C498.183,251.805,455.553,284.146,449.185,296.119z"/>
			</g>
			<g>
				<g>
					<polygon style="fill:#DB4B3D;" points="278.089,329.044 243.825,370.027 410.445,370.027 378.196,330.388      "/>
				</g>
				<g>
					<g>
						<path style="fill:#F7EDE5;" d="M462.842,222.886c0,40.156-18.631,75.97-47.734,99.232        c-21.709,17.367-49.234,27.762-79.233,27.762c-70.128,0-126.993-56.865-126.993-126.993c0-32.393,12.131-61.997,32.156-84.417        c23.235-26.104,57.128-42.55,94.837-42.55C406.003,95.919,462.842,152.758,462.842,222.886z"/>
					</g>
					<g style="opacity:0.34;">
						<path style="fill:#DBB0FF;" d="M415.108,322.117c-21.709,17.367-49.234,27.762-79.233,27.762        c-70.128,0-126.993-56.865-126.993-126.993c0-32.393,12.131-61.997,32.156-84.417c-0.29,39.735,11.499,79.628,34.603,111.915        c27.156,37.998,70.049,64.839,116.363,70.891C399.661,322.275,407.424,322.749,415.108,322.117z"/>
					</g>
				</g>
				<g>
					<path style="fill:#FFFFFF;" d="M381.645,134.814c-4.31,5.19-6.081,12.061-6.627,18.785c-0.995,12.261,1.768,24.803,7.824,35.51       c4.756,8.408,11.837,15.894,20.939,19.129c9.102,3.235,20.331,1.406,26.584-5.955c2.979-3.506,4.658-7.95,5.638-12.444       c3.475-15.943-1.52-33.002-11.144-46.18C415.621,131.012,394.223,119.667,381.645,134.814z"/>
				</g>
			</g>
			<g>
				<g>
					<g>
						<path style="fill:#302945;" d="M101.373,323.942l-20.015-12.658c17.599-27.828,39.445-52.508,64.931-73.352l14.994,18.333        C137.767,275.496,117.611,298.267,101.373,323.942z"/>
					</g>
				</g>
				<g>
					<g>
						<g>
							<path style="fill:#FF9191;" d="M457.699,243.718c0,0-98.315,16.797-117.799,17.468         c-19.484,0.672-101.451-19.484-116.231-20.156c-14.781-0.672-112.2-7.39-112.2-7.39s-5.375,10.75,13.437,18.812         c18.812,8.063,42.999,9.406,49.717,10.078c6.719,0.672,12.765,14.109,12.765,14.109l-56.436,11.422         c0,0-14.109-0.672-24.859-4.703c-10.75-4.031-40.312-26.874-51.061-12.765l17.468,20.828l-7.055,5.711         c0,0,53.749,49.046,59.123,48.374c5.375-0.672,11.086-2.016,11.086-2.016s10.078,6.719,14.109,6.047         c4.031-0.672,36.64-5.089,36.64-5.089s11.398,5.424,16.101,4.753c4.703-0.672,51.397-20.156,80.959-19.484         c29.562,0.672,69.873,11.422,69.873,11.422l81.519,5.151L457.699,243.718z"/>
						</g>
						<g>
							<g>
								<path style="fill:#302945;" d="M51.897,269.472c0,0,6.719-2.463,13.661,3.359c6.943,5.823,6.943,18.588,6.943,18.588          L51.897,269.472z"/>
							</g>
							<g>
								<path style="fill:#302945;" d="M63.767,296.347c0,0,15.453,0.896,20.828,8.286c5.375,7.39,4.703,13.885,4.703,13.885          L63.767,296.347z"/>
							</g>
							<g>
								<path style="fill:#302945;" d="M89.312,308.961c0,0,15.476,0.276,21.143,7.445c5.667,7.169,5.255,13.686,5.255,13.686          L89.312,308.961z"/>
							</g>
							<g>
								<path style="fill:#302945;" d="M149.131,317.128c0,0,15.475-0.361,21.432,6.569c5.957,6.93,5.814,13.457,5.814,13.457          l-9.942-7.307L149.131,317.128z"/>
							</g>
							<g>
								<path style="fill:#302945;" d="M200.83,349.543c-0.007,0-0.015,0-0.022,0c-11.792-0.514-26.873-14.353-27.51-14.941          c-0.203-0.188-0.215-0.504-0.027-0.707c0.187-0.203,0.504-0.215,0.707-0.027c0.153,0.142,15.448,14.18,26.873,14.676          c0.276,0.013,0.49,0.246,0.478,0.522C201.317,349.333,201.096,349.543,200.83,349.543z"/>
							</g>
							<g>
								<path style="fill:#302945;" d="M101.054,300.812c-0.144,0-0.288-0.046-0.409-0.141c-0.111-0.089-11.22-8.812-19.679-10.112          c-8.226-1.271-14.096,6.386-14.154,6.464c-0.216,0.292-0.63,0.347-0.92,0.13c-0.29-0.219-0.35-0.63-0.132-0.92          c0.257-0.342,6.4-8.366,15.407-6.974c8.805,1.353,19.831,10.012,20.296,10.379c0.284,0.226,0.333,0.64,0.108,0.925          C101.44,300.726,101.248,300.812,101.054,300.812z"/>
							</g>
							<g>
								<path style="fill:#302945;" d="M140.694,322.983c-0.127,0-0.252-0.037-0.36-0.107c-0.297-0.194-29.89-19.441-37.583-21.242          c-7.276-1.713-11.468,7.43-11.51,7.522c-0.149,0.332-0.537,0.48-0.869,0.332c-0.332-0.148-0.481-0.537-0.332-0.869          c0.045-0.102,4.66-10.211,13.011-8.267c7.681,1.799,35.086,19.526,37.82,21.305l15.407-0.828          c0.365-0.008,0.673,0.26,0.691,0.622c0.019,0.362-0.258,0.672-0.622,0.691l-15.62,0.839          C140.717,322.983,140.706,322.983,140.694,322.983z"/>
							</g>
							<g>
								<path style="fill:#302945;" d="M148.934,350.545c-0.215,0-0.402-0.005-0.56-0.017c-4.754-0.341-36.691-23.517-40.316-26.159          c-0.294-0.215-0.358-0.626-0.145-0.919c0.213-0.294,0.624-0.357,0.919-0.145c14.118,10.285,36.324,25.673,39.636,25.91          c4.57,0.321,35.814-4.646,36.13-4.696c0.361-0.051,0.695,0.186,0.754,0.546c0.057,0.36-0.188,0.696-0.546,0.754          C183.557,346.018,155.111,350.545,148.934,350.545z"/>
							</g>
							<g>
								<path style="fill:#302945;" d="M207.209,329.701c-0.105,0-0.209-0.026-0.305-0.075          c-0.221-0.116-22.263-11.622-32.856-15.759c-10.112-3.951-15.935,4.591-16.177,4.958c-0.202,0.305-0.612,0.382-0.912,0.185          c-0.302-0.2-0.386-0.608-0.185-0.911c0.064-0.1,6.631-9.795,17.752-5.458c10.086,3.941,30.421,14.483,32.767,15.704          l7.988-1.956c0.36-0.082,0.709,0.13,0.795,0.482c0.087,0.353-0.13,0.709-0.482,0.795l-8.23,2.015          C207.314,329.695,207.262,329.701,207.209,329.701z"/>
							</g>
							<g>
								<path style="fill:#302945;" d="M121.321,310.666c-0.32,0-0.601-0.234-0.649-0.561c-0.054-0.359,0.194-0.694,0.554-0.747          l21.051-3.135c0.348-0.054,0.695,0.194,0.746,0.554c0.054,0.358-0.194,0.694-0.554,0.747l-21.052,3.135          C121.386,310.663,121.353,310.666,121.321,310.666z"/>
							</g>
							<g>
								<path style="fill:#302945;" d="M155.618,319.366c-0.156,0-0.311-0.054-0.436-0.164          c-8.449-7.465-16.795-15.262-24.803-23.174c-0.258-0.256-0.261-0.672-0.005-0.93c0.256-0.257,0.672-0.262,0.93-0.005          c7.991,7.896,16.318,15.676,24.749,23.123c0.272,0.24,0.298,0.657,0.058,0.929          C155.982,319.291,155.799,319.366,155.618,319.366z"/>
							</g>
							<g>
								<path style="fill:#302945;" d="M227.713,304.451c-0.045,0-0.091-0.004-0.136-0.014          c-17.382-3.65-33.038-15.026-41.881-30.429c-0.181-0.315-0.072-0.717,0.243-0.898c0.31-0.182,0.714-0.074,0.898,0.243          c8.659,15.083,23.989,26.222,41.01,29.796c0.356,0.074,0.583,0.424,0.509,0.779          C228.29,304.237,228.018,304.451,227.713,304.451z"/>
							</g>
						</g>
					</g>
					<g>
						<path style="fill:#302945;" d="M477.552,335.432v0.026c-0.842,1.605-1.737,3.131-2.658,4.684        c-0.263,0.474-0.553,0.947-0.842,1.421c-1.447,2.421-3,4.789-4.605,7.105c-0.342,0.474-0.684,0.974-1.027,1.447        c-1.736,2.421-3.578,4.816-5.5,7.105c-0.368,0.474-0.763,0.947-1.184,1.421c-1.895,2.237-3.895,4.421-6,6.526        c-42.971-6.605-100.258-15.447-110.915-17.078c-17.473-2.71-47.024-0.895-49.261-9.868c-0.605-2.474,1.895-4.895,5.868-7.131        c10.421-5.868,30.867-10.342,30.867-10.342s-42.103,0-43.892-7.605c-1.816-7.605,46.129-21.499,46.129-21.499        s-49.287-1.342-49.287-10.763c0-9.394,42.55-13.868,42.55-13.868s-19.604-5.816-31.919-12.236        c-5.447-2.816-9.473-5.763-9.736-8.368c-0.894-8.526,73.47-2.684,120.494-5.368c27.446-1.579,63.286-7.868,88.39-12.841        C499.814,264.462,494.762,303.461,477.552,335.432z"/>
					</g>
				</g>
				<g>
					<g>
						<path style="fill:#DBB0FF;" d="M256.59,364.01c-0.473,1.973-1.053,3.921-1.737,5.815c-0.158,0.474-0.316,0.947-0.5,1.421        c-3.053,8.105-7.71,15.526-13.605,21.552c-0.342,0.368-0.71,0.71-1.052,1.053c-0.342,0.316-0.658,0.632-1,0.947        c-9.026,8.394-20.841,14.157-35.104,17.157c-0.394,0.079-0.816,0.158-1.21,0.237c-0.474,0.105-0.947,0.21-1.421,0.289h-0.026        c-6.315,1.158-12.894,1.737-19.683,1.737c-8.421,0-17.183-0.895-26.262-2.658c-0.579-0.132-1.184-0.237-1.789-0.368        c-2.658-0.553-5.368-1.184-8.079-1.895c-7.71-2-14.762-4.395-21.183-7.184c-0.448-0.184-0.868-0.395-1.316-0.579        c-7.079-3.21-13.394-6.921-19.078-11.184c-0.263-0.184-0.5-0.395-0.763-0.579c-0.105-0.079-0.237-0.184-0.342-0.263        c-13.841-10.763-23.288-24.972-26.762-40.235c-0.053-0.263-0.131-0.553-0.184-0.816c-0.053-0.263-0.105-0.526-0.158-0.789        c-1.632-8.263-1.447-16.604,0.421-24.393c0.132-0.553,0.263-1.079,0.421-1.579c1-3.816,2.447-7.5,4.263-10.921l18.841,16.289        c-1.21,4.026-1.632,8.394-1.184,12.789c0.026,0.5,0.105,1.026,0.184,1.526c0.079,0.711,0.21,1.421,0.368,2.132        c2.079,9.868,8.368,19.341,17.684,26.736c0.289,0.263,0.605,0.5,0.894,0.737c0.105,0.079,0.21,0.158,0.316,0.237        c4.815,3.684,10.368,6.842,16.763,9.579c0.474,0.184,0.974,0.395,1.447,0.579c4.684,1.895,9.762,3.552,15.341,5        c3.158,0.816,6.263,1.526,9.316,2.079c0.447,0.105,0.921,0.184,1.368,0.263c6.105,1.079,11.973,1.684,17.631,1.789        c0.5,0.026,0.974,0.026,1.474,0.026c6.236,0.026,12.21-0.553,17.841-1.737c0.552-0.105,1.105-0.237,1.658-0.395        c0.526-0.105,1.052-0.237,1.552-0.368c8.421-2.21,15.526-5.842,20.657-10.605c1.947-1.789,3.684-3.842,5.21-6.079v-0.026        c0.474-0.658,0.921-1.342,1.289-2.053l0.026-0.026c2.027-3.316,3.526-7,4.474-10.841c1.816-7.473,1.316-15.447-1.158-22.578        l-0.027-0.026c-0.184-0.632-0.421-1.211-0.684-1.816v-0.026c-1.71-4.263-4.158-8.131-7.263-11.394        c-6.763-7.105-15.973-11.21-26.525-13.762c-0.605-0.158-1.211-0.29-1.816-0.421c-5.289-1.237-10.868-2.079-16.657-2.737        h-0.026c-1.236-0.158-2.5-0.289-3.763-0.421h-0.026c-2.236-0.211-4.473-0.421-6.763-0.632        c-4.921-0.447-10.236-0.921-15.762-1.658c-0.763-0.079-1.526-0.184-2.316-0.289c-17.051-2.395-35.735-7.21-50.024-20.104        h-0.026c-0.474-0.395-0.895-0.789-1.342-1.237c-0.421-0.395-0.842-0.816-1.263-1.237c-5.052-5.105-9.157-11.157-12.184-17.815        c-0.21-0.474-0.447-0.947-0.632-1.447c-3.737-8.71-5.71-18.394-5.71-28.341c0-0.447,0-0.895,0.027-1.342        c0.079-4.605,0.579-9.236,1.526-13.868c1.289-6.184,3.289-12.289,5.999-18.236c0.184-0.421,0.369-0.868,0.579-1.289        c5.736-12.184,14.394-23.709,25.63-34.051c1.263-1.158,2.526-2.263,3.789-3.342c0.342-0.29,0.71-0.579,1.052-0.868        c4.447-3.71,9.052-7,13.789-9.894c0.395-0.263,0.79-0.5,1.21-0.737c4.289-2.579,8.71-4.816,13.157-6.71l0.026-0.079        c0,0,60.918-29.13,88.68-3.579c0,0-5.368,10.078-17.026,16.999c-8.736,5.237-32.104,4.395-47.076,5.158        c-0.605,0.026-1.21,0.053-1.763,0.105c-2.342,0.132-4.447,0.342-6.184,0.632c-5.184,1.579-10.342,3.763-15.368,6.552        c-0.395,0.211-0.763,0.421-1.158,0.658c-5.947,3.395-11.71,7.605-17.104,12.552c-2.552,2.316-5.263,5.052-7.973,8.184        c-0.316,0.342-0.632,0.71-0.921,1.079c-4.631,5.5-9.131,12.078-12.341,19.657v0.026c-0.21,0.421-0.394,0.842-0.552,1.289        c-1.395,3.368-2.5,6.921-3.263,10.657c-0.553,2.658-0.895,5.368-1,8.078c-0.026,0.526-0.053,1.079-0.026,1.605        c-0.158,12.236,4.026,24.025,11.631,31.709c2.842,2.868,6.105,5.263,9.684,7.21c0.553,0.316,1.132,0.632,1.711,0.921        c7.631,3.815,16.657,5.973,26.63,7.421c0.658,0.105,1.342,0.211,2.052,0.289c2.789,0.395,5.658,0.737,8.605,1.026h0.026        c1.947,0.211,3.974,0.395,6,0.605h0.026c0.421,0.026,0.868,0.079,1.289,0.105c15.71,1.421,31.788,3.395,46.05,9.052        c0.421,0.184,0.842,0.342,1.237,0.5c7.605,3.158,14.657,7.394,20.841,13.21c0.342,0.316,0.658,0.605,0.974,0.947        c0.526,0.5,1.026,1,1.526,1.526C255.879,321.196,261.616,343.327,256.59,364.01z"/>
					</g>
					<g>
						<path style="fill:#302945;" d="M217.286,147.306c0,2.041-1.654,3.695-3.695,3.695c-2.041,0-3.695-1.654-3.695-3.695        c0-2.041,1.654-3.695,3.695-3.695C215.632,143.611,217.286,145.266,217.286,147.306z"/>
					</g>
					<g>
						<g>
							<g>
								<path style="fill:#DBB0FF;" d="M330.981,388.746c-6.894,0.605-13.71,2.368-20.499,5.947c-2.816,1.947-5.579,3.947-8.342,6          c1.789-9.342,3.211-20.288,3.868-30.656c0.447-6.684,0.552-13.131,0.263-18.789c-0.053-0.553-0.079-1.132-0.105-1.684          c-0.079-1.079-0.132-2.184-0.237-3.263c-0.053-0.71-0.105-1.395-0.158-2.079c-0.395-4.289-0.947-8.578-1.658-12.815          c-0.079-0.526-0.158-1.053-0.263-1.579c-0.026-0.158-0.053-0.316-0.079-0.447c-0.632-3.605-1.368-7.184-2.237-10.736          c-0.474-2.052-1-4.079-1.553-6.105c-0.158-0.579-0.316-1.158-0.474-1.737c-0.553-1.921-1.132-3.842-1.763-5.737          c-2.158-6.71-4.763-13.262-7.736-19.604c-1.132-2.447-2.342-4.842-3.605-7.21c-0.369-0.763-0.789-1.5-1.184-2.237          c-0.289-0.553-0.605-1.105-0.895-1.632c-1.71-3-3.473-5.947-5.368-8.842c-1.631-2.5-3.473-5.158-5.5-7.842          c-0.263-0.368-0.552-0.763-0.868-1.132c-2-2.605-4.184-5.237-6.552-7.815c-8.368-9.184-18.946-17.683-31.63-21.92          c-0.263-0.079-0.5-0.184-0.763-0.263c-0.474-0.158-0.974-0.29-1.448-0.447h-0.026c-6.947-1.921-14.367-2.053-21.92-0.737          h-0.027c-0.447,0.053-0.868,0.132-1.289,0.237c-0.105,0-0.237,0.026-0.342,0.053c-10.079,2-20.21,6.473-29.262,12.499          l-29.367-1.895l-1.842-0.132l-1.79-0.211c3.289-4.105,7.131-7.973,11.42-11.526c0.395-0.316,0.79-0.658,1.184-0.974          c0,0,0,0,0.026,0c9.315-7.5,20.552-13.552,32.34-17.446c0.447-0.158,0.895-0.289,1.342-0.421          c5.921-1.868,11.973-3.237,17.999-3.947c10.473-1.237,20.815-0.605,30.183,2.395c3.816,1.21,7.579,2.71,11.236,4.5          c0.447,0.21,0.894,0.421,1.342,0.658c0.105,0.053,0.237,0.105,0.342,0.184c6.447,3.263,12.579,7.447,18.552,12.447          c0.026,0,0.026,0.026,0.026,0.026c0.368,0.29,0.763,0.632,1.184,0.974c0.026,0.026,0.026,0.053,0.053,0.079l0.052,0.026          c3.579,3.131,7.053,6.579,10.394,10.315c0.342,0.368,0.684,0.737,1,1.105c2.447,2.763,4.842,5.684,7.132,8.789          c2.289,3,4.5,6.184,6.657,9.499c0.684,1.026,1.342,2.079,2,3.131c0.395,0.632,0.763,1.263,1.158,1.895          c1.658,2.737,3.237,5.526,4.763,8.368c0.263,0.447,0.474,0.868,0.711,1.316c0.473,0.868,0.921,1.763,1.368,2.632          c3.394,6.71,6.368,13.605,8.92,20.657c0.237,0.579,0.448,1.158,0.658,1.763c0.026,0.079,0.053,0.132,0.079,0.21          c0.184,0.447,0.342,0.921,0.473,1.368c0.289,0.789,0.553,1.579,0.816,2.395c2.632,7.921,4.789,16.052,6.394,24.288          c0.132,0.5,0.237,1.026,0.316,1.526c0.5,2.5,0.921,5,1.289,7.526c0.316,1.921,0.579,3.842,0.816,5.789          c0.421,3.5,0.763,7.026,1.026,10.552c0.026,0.184,0.026,0.395,0.026,0.605c0.053,0.421,0.053,0.842,0.079,1.263          c0.026,0.605,0.079,1.237,0.079,1.842c0.395,6.763,0.421,13.526,0.132,20.289c0,0.21-0.026,0.395-0.026,0.605          c-0.026,0.526-0.052,1.026-0.079,1.526C329.612,375.325,330.428,382.351,330.981,388.746z"/>
							</g>
						</g>
						<g>
							<g>
								<g>
									<path style="fill:#302945;" d="M170.989,160.626c-0.605,0.026-1.21,0.053-1.763,0.105c-0.21-0.21-0.394-0.395-0.605-0.605           c-2.237-2.237-4.526-4.526-7.21-6.131c-3.053-1.789-7.579-2.974-11.184-0.868c-3.895,2.289-4.921,7.473-3.921,11.394           c0.29,1.158,0.737,2.263,1.368,3.395c-0.395,0.211-0.763,0.421-1.158,0.658c-0.658-1.21-1.158-2.447-1.474-3.71           c-1.132-4.421,0.053-10.263,4.526-12.868c4.079-2.395,9.131-1.132,12.499,0.868c2.842,1.684,5.21,4.052,7.473,6.315           C170.015,159.652,170.489,160.152,170.989,160.626z"/>
								</g>
							</g>
							<g>
								<g>
									<path style="fill:#302945;" d="M133.359,155.284c-0.5,3.342-2.368,7.289-6.079,8.289c-0.552,0.158-1.158,0.237-1.763,0.237           c-1.684,0-3.526-0.553-5.552-1.658c-0.974-0.553-1.895-1.158-2.789-1.816c0.342-0.29,0.71-0.579,1.052-0.868           c0.763,0.553,1.579,1.079,2.395,1.526c2.447,1.342,4.552,1.789,6.315,1.316c3.105-0.842,4.684-4.289,5.131-7.237           c0.263-1.816,0.237-3.658-0.053-5.5c0.395-0.263,0.79-0.5,1.21-0.737C133.623,150.942,133.675,153.152,133.359,155.284z"/>
								</g>
							</g>
							<g>
								<g>
									<path style="fill:#302945;" d="M121.439,189.309c-0.316,0.342-0.632,0.71-0.921,1.079c-1.368-0.5-2.842-0.632-4.105-0.553           c-3.763,0.237-7.342,2.079-9.526,4.894c-2.289,2.895-3.052,6.947-1.947,10.315c0.658,2.026,1.921,3.71,3.237,5v0.026           c-0.21,0.421-0.394,0.842-0.552,1.289c-1.921-1.789-3.263-3.816-3.947-5.921c-1.263-3.816-0.421-8.236,2.158-11.526           c2.447-3.105,6.341-5.131,10.473-5.395C117.939,188.414,119.781,188.598,121.439,189.309z"/>
								</g>
							</g>
							<g>
								<g>
									<path style="fill:#302945;" d="M91.782,208.097c-0.342,1.658-1.184,3.158-2,4.579c-0.632,1.105-1.237,2.184-1.605,3.316           c-0.553,1.658-0.631,3.395-0.71,5.263c-0.105,2.289-0.21,4.631-1.263,6.763c-1.079,2.132-3.184,3.71-5.789,4.316           c-0.263,0.053-0.526,0.105-0.789,0.132c0-0.447,0-0.895,0.027-1.342c0.158,0,0.316-0.053,0.473-0.079           c2.211-0.5,4-1.816,4.894-3.631c0.947-1.868,1.026-3.974,1.132-6.21c0.079-1.868,0.158-3.816,0.763-5.631           c0.421-1.263,1.079-2.421,1.737-3.552c0.789-1.395,1.526-2.71,1.842-4.184c0.474-2.316-0.263-4.973-2-7.289           c-0.395-0.553-0.842-1.052-1.316-1.526c0.184-0.421,0.369-0.868,0.579-1.289c0.658,0.632,1.263,1.289,1.816,2.026           C91.52,202.387,92.309,205.413,91.782,208.097z"/>
								</g>
							</g>
							<g>
								<g>
									<path style="fill:#302945;" d="M108.44,255.594c-0.105,0.263-0.369,0.447-0.632,0.447c-0.079,0-0.132-0.026-0.211-0.026           c-4.263-1.421-7.763-4.763-9.341-8.999c-1.579-4.21-1.132-9.026,1.158-12.894c1.052-1.763,2.421-3.131,3.947-4.026           c-0.026,0.526-0.053,1.079-0.026,1.605c-1.053,0.763-2.026,1.816-2.789,3.105c-2.053,3.473-2.473,7.973-1.053,11.763           c1.421,3.789,4.684,6.921,8.526,8.184C108.361,254.858,108.545,255.252,108.44,255.594z"/>
								</g>
							</g>
							<g>
								<g>
									<path style="fill:#302945;" d="M100.756,282.54c-0.474-0.395-0.895-0.789-1.342-1.237c-0.026-0.5-0.053-1.026-0.079-1.526           c-0.132-2.789-0.289-5.684-1.316-8.315c-1.816-4.631-6.499-8.105-12.052-9.21c-0.21-0.474-0.447-0.947-0.632-1.447           c2.684,0.395,5.184,1.316,7.368,2.658c3,1.842,5.368,4.474,6.552,7.526c1.079,2.816,1.263,5.947,1.394,8.71           C100.703,280.62,100.756,281.567,100.756,282.54z"/>
								</g>
							</g>
							<g>
								<g>
									<path style="fill:#302945;" d="M155.042,279.251c-0.868,0.474-1.737,1.105-2.605,1.737           c-0.71,0.526-1.474,1.079-2.237,1.553c-2.342,1.447-5.132,2.158-7.973,2.158c-3.21,0-6.473-0.921-9.289-2.737           c-3.868-2.5-6.816-6.579-8.289-11.342c0.553,0.316,1.132,0.632,1.711,0.921c1.474,3.895,4.052,7.21,7.289,9.315           c4.894,3.158,11.262,3.395,15.867,0.579c0.711-0.447,1.447-0.974,2.132-1.5c0.447-0.316,0.895-0.658,1.342-0.974           C153.648,279.067,154.332,279.172,155.042,279.251z"/>
								</g>
							</g>
							<g>
								<g>
									<path style="fill:#302945;" d="M197.935,308.802c-0.605-0.158-1.211-0.29-1.816-0.421           c-0.184-0.289-0.395-0.553-0.605-0.816c-2.737-3.316-7.184-4.868-10.842-3.842c-0.737,0.237-1.5,0.553-2.236,0.868           c-0.974,0.421-1.947,0.842-2.974,1.053h-0.026c-0.763,0.158-1.526,0.211-2.316,0.079c-0.526-0.105-1-0.263-1.447-0.5           h-0.026c-1-0.474-1.894-1.21-2.736-1.921c-0.447-0.368-0.895-0.737-1.369-1.079c-2.71-1.921-6.552-2.658-10.526-2           c-2.789,0.447-5.473,1.526-7.894,2.71c-0.763-0.079-1.526-0.184-2.316-0.289c2.947-1.553,6.368-3.105,9.999-3.71           c4.316-0.71,8.5,0.105,11.499,2.21c0.5,0.368,0.974,0.763,1.448,1.158c1.158,0.974,2.263,1.868,3.605,2.105           c1.5,0.263,2.974-0.368,4.552-1.026c0.789-0.342,1.579-0.684,2.395-0.921c4.237-1.184,9.131,0.5,12.21,4.263           C197.04,307.355,197.514,308.065,197.935,308.802z"/>
								</g>
							</g>
							<g>
								<g>
									<path style="fill:#302945;" d="M240.091,304.697c-2.763,1.816-6.289,3.395-10.315,3.474h-0.316           c-5.289,0-10.263-2.947-12.157-7.263c-1.5-3.368-1.158-7.052-0.263-10.868c0.421,0.184,0.842,0.342,1.237,0.5           c-0.789,3.526-1.079,6.868,0.237,9.842c1.736,3.921,6.342,6.605,11.236,6.473c3.605-0.079,6.816-1.447,9.368-3.105           C239.459,304.066,239.775,304.355,240.091,304.697z"/>
								</g>
							</g>
							<g>
								<g>
									<path style="fill:#302945;" d="M235.565,365.668c-2.079,2.553-4.789,4.5-7.763,5.658c0.474-0.658,0.921-1.342,1.289-2.053           l0.026-0.026c2.053-1.079,3.921-2.579,5.421-4.421c3.579-4.342,5.263-10.368,4.605-16.526           c-0.5-4.631-2.263-8.578-4.973-11.131c-0.526-0.5-1.132-0.947-1.736-1.342l-0.027-0.026           c-0.184-0.632-0.421-1.211-0.684-1.816c1.211,0.553,2.342,1.289,3.342,2.237c2.947,2.763,4.868,7,5.394,11.921           C241.143,354.668,239.354,361.036,235.565,365.668z"/>
								</g>
							</g>
							<g>
								<g>
									<path style="fill:#302945;" d="M254.853,369.825c-0.158,0.474-0.316,0.947-0.5,1.421c-3.895,0.842-7.526,2.947-10.052,6           c-3.5,4.21-4.842,10.21-3.553,15.552c-0.342,0.368-0.71,0.71-1.052,1.053c-1.763-5.894-0.342-12.71,3.578-17.446           C246.169,372.957,250.406,370.615,254.853,369.825z"/>
								</g>
							</g>
							<g>
								<g>
									<path style="fill:#302945;" d="M201.935,388.035c-0.736,2-1.842,3.868-3.263,5.473c-2.368,2.71-5.421,4.342-8.394,4.447           c-0.105,0-0.236,0.026-0.368,0.026c-3.21,0-6.447-1.711-8.736-4.579c-0.684-0.868-1.263-1.816-1.763-2.895           c0.5,0.026,0.974,0.026,1.474,0.026c0.395,0.737,0.842,1.421,1.342,2.052c2.053,2.632,5.131,4.184,8,4.052           c2.605-0.105,5.315-1.552,7.473-4c1.105-1.263,2-2.684,2.684-4.237C200.909,388.298,201.435,388.167,201.935,388.035z"/>
								</g>
							</g>
							<g>
								<g>
									<path style="fill:#302945;" d="M202.382,412.192c-0.474,0.105-0.947,0.21-1.421,0.289h-0.026           c-1.605-2.053-4-3.658-6.71-4.395c-4.499-1.21-9.71-0.184-14.315,2.789l-0.368,0.237c-1.026,0.684-2.184,1.447-3.553,1.526           c-1.842,0.132-3.316-0.947-4.736-2c-0.447-0.316-0.895-0.658-1.342-0.921c-3.763-2.368-8.605-1.526-11.868,0.026           c-1.079,0.5-2.079,1.105-3.052,1.816c-0.579-0.132-1.184-0.237-1.789-0.368c1.342-1,2.736-1.895,4.289-2.631           c4.552-2.184,9.578-2.184,13.105,0.026c0.5,0.316,0.973,0.658,1.447,1c1.289,0.947,2.526,1.842,3.868,1.737           c1.026-0.053,1.947-0.658,2.894-1.289l0.395-0.263c4.895-3.158,10.499-4.237,15.367-2.947           C197.777,407.666,200.54,409.665,202.382,412.192z"/>
								</g>
							</g>
							<g>
								<g>
									<path style="fill:#302945;" d="M161.779,388.719c-0.763,1.289-1.632,2.421-2.631,3.395           c-2.447,2.395-5.684,3.789-8.736,3.789c-0.237,0-0.474,0-0.711-0.026c-1.816-0.132-3.684-0.737-5.684-1.816           c-5.21-2.868-8.815-7.894-9.71-13.262c0.474,0.184,0.974,0.395,1.447,0.579c1.026,4.658,4.289,9,8.894,11.526           c1.842,1,3.526,1.552,5.157,1.658c2.895,0.184,6.026-1.053,8.421-3.395c0.816-0.789,1.527-1.684,2.184-2.71           C160.858,388.561,161.332,388.64,161.779,388.719z"/>
								</g>
							</g>
							<g>
								<g>
									<path style="fill:#302945;" d="M123.939,402.113c-0.448-0.184-0.868-0.395-1.316-0.579c-0.026-1.5-0.184-3-0.448-4.447           c-0.474-2.789-1.237-4.789-2.421-6.263c-1.974-2.447-5.421-3.737-8.999-3.342c-2.395,0.237-4.868,1.237-7.21,2.868           c-0.263-0.184-0.5-0.395-0.763-0.579c-0.105-0.079-0.237-0.184-0.342-0.263c2.658-1.921,5.447-3.052,8.184-3.342           c4-0.421,7.894,1.053,10.157,3.842c1.737,2.184,2.368,4.947,2.684,6.868C123.755,398.587,123.913,400.376,123.939,402.113z           "/>
								</g>
							</g>
							<g>
								<g>
									<path style="fill:#302945;" d="M117.544,371.22c-0.395,0.184-0.816,0.316-1.237,0.395           c-0.421,0.079-0.868,0.132-1.316,0.132c-2.316,0-4.658-1.158-6-3.052c-0.474-0.658-0.842-1.421-1.184-2.131           c-0.474-0.974-0.895-1.921-1.632-2.579c-0.684-0.658-1.579-1.053-2.553-1.474c-0.316-0.132-0.658-0.263-0.974-0.421           c-3.526-1.684-6.368-4.895-7.578-8.631c-1.184-3.71-0.789-8,1.105-11.42c0.553-1.026,1.21-1.763,1.921-2.184           c0.026,0.5,0.105,1.026,0.184,1.526c-0.342,0.316-0.658,0.737-0.948,1.29c-1.71,3.131-2.105,7-1,10.394           c1.105,3.395,3.658,6.315,6.894,7.842c0.29,0.132,0.605,0.263,0.921,0.395c1.026,0.447,2.079,0.895,2.921,1.71           c0.921,0.842,1.421,1.947,1.921,3c0.342,0.684,0.658,1.342,1.079,1.921c1.316,1.842,3.763,2.816,5.999,2.395           c0.079-0.026,0.184-0.026,0.263-0.079c0.289,0.263,0.605,0.5,0.894,0.737C117.334,371.062,117.439,371.141,117.544,371.22z           "/>
								</g>
							</g>
							<g>
								<g>
									<path style="fill:#302945;" d="M81.178,335.09c0.026,5.184-2,10.342-5.5,14.184c-0.053-0.263-0.131-0.553-0.184-0.816           c-0.053-0.263-0.105-0.526-0.158-0.789c2.895-3.5,4.552-8,4.526-12.552c-0.026-4.263-1.526-8.473-4.105-11.841           c0.132-0.553,0.263-1.079,0.421-1.579C79.283,325.407,81.152,330.222,81.178,335.09z"/>
								</g>
							</g>
							<g>
								<g>
									<path style="fill:#302945;" d="M192.646,205.571c-0.316,3.684-2.027,7.21-4.737,9.736           c-2.342,2.132-5.131,3.026-7.447,2.395c-0.184-0.053-0.395-0.132-0.579-0.184c-0.447-0.158-0.842-0.289-1.237-0.263           c-0.579,0.053-1.131,0.553-1.658,1.053l-0.737,0.763c-1.342,1.342-2.737,2.737-4.368,3.816           c-2.5,1.71-5.526,2.526-8.526,2.526c-1.895,0-3.816-0.316-5.605-1c0.395-0.316,0.79-0.658,1.184-0.974c0,0,0,0,0.026,0           c4.052,1.237,8.657,0.737,12.184-1.632c1.526-1.026,2.868-2.368,4.157-3.684l0.763-0.737           c0.658-0.658,1.447-1.342,2.447-1.447c0.658-0.053,1.263,0.158,1.789,0.316c0.158,0.079,0.342,0.132,0.5,0.158           c1.894,0.526,4.21-0.237,6.21-2.079c2.369-2.184,3.895-5.184,4.289-8.342C191.751,205.834,192.199,205.702,192.646,205.571           z"/>
								</g>
							</g>
							<g>
								<g>
									<path style="fill:#302945;" d="M234.407,226.833c-0.263-0.079-0.5-0.184-0.763-0.263c-0.474-0.158-0.974-0.29-1.448-0.447           h-0.026c-1.316-1.5-2.737-2.71-3.868-3.553c-2.5-1.895-4.658-2.895-6.736-3.21c-2.868-0.421-6.026,0.553-8.447,2.579           c-1.105,0.947-2.079,2.105-2.868,3.447h-0.027c-0.553,0.079-1.079,0.184-1.631,0.29c0.947-1.842,2.21-3.473,3.684-4.737           c2.71-2.289,6.237-3.342,9.473-2.868c2.316,0.342,4.658,1.421,7.341,3.447           C230.644,222.675,232.723,224.491,234.407,226.833z"/>
								</g>
							</g>
							<g>
								<g>
									<path style="fill:#302945;" d="M285.009,234.333c-0.658,0.184-1.342,0.263-2.026,0.263h-0.368           c-4.184-0.184-7.974-3.263-9-7.315c-0.079-0.342-0.158-0.684-0.237-1.053c-0.263-1.316-0.526-2.526-1.421-3.131           c-0.421-0.263-1.026-0.395-1.842-0.421c-1.079,0-2.211,0.184-3.368,0.368c-1.447,0.211-2.947,0.474-4.5,0.289           c-3.816-0.395-7.342-3.368-8.973-7.552c-0.921-2.395-1.21-4.921-1.21-7.263c0.447,0.21,0.894,0.421,1.342,0.658           c0.026,2,0.342,4.105,1.105,6.105c1.447,3.763,4.552,6.394,7.894,6.763c1.342,0.132,2.71-0.079,4.157-0.316           c1.158-0.184,2.395-0.368,3.553-0.368c0.579,0.026,1.421,0.053,2.184,0.447c0.026-0.026,0.026,0.026,0.026,0.026           c0.132,0.026,0.237,0.079,0.342,0.158c0.368,0.237,0.684,0.553,0.895,0.895l0.052,0.026           c0.605,0.895,0.842,2.026,1.053,3.052c0.079,0.342,0.132,0.684,0.211,1c0.894,3.447,4.236,6.158,7.789,6.316           c0.448,0.026,0.895,0,1.342-0.053C284.351,233.596,284.694,233.964,285.009,234.333z"/>
								</g>
							</g>
							<g>
								<g>
									<path style="fill:#302945;" d="M285.22,276.014c-0.289-0.553-0.605-1.105-0.895-1.632           c1.053-4.052,0.948-7.578-0.237-10.657c-0.763-2-1.973-3.631-3.474-4.684c-2.131-1.474-4.736-1.763-7.158-1.342           c-0.263-0.368-0.552-0.763-0.868-1.132c2.921-0.684,6.157-0.447,8.789,1.395c1.711,1.211,3.079,3.052,3.947,5.289           C286.746,266.936,286.72,271.146,285.22,276.014z"/>
								</g>
							</g>
							<g>
								<g>
									<path style="fill:#302945;" d="M318.929,293.961c-2.289-0.158-5.5-0.763-8.052-2.868c-1.816-1.5-3-3.526-3.736-4.921           c-2.184-4.079-3.211-8.052-3.079-11.841c0.106-3.053,1.053-5.973,2.658-8.315c0.263,0.447,0.474,0.868,0.711,1.316           c-1.237,2.026-1.973,4.474-2.053,7.052c-0.132,3.552,0.868,7.289,2.921,11.157c0.684,1.316,1.789,3.184,3.394,4.526           c2.105,1.737,4.71,2.342,6.763,2.526C318.639,293.04,318.797,293.514,318.929,293.961z"/>
								</g>
							</g>
							<g>
								<g>
									<path style="fill:#302945;" d="M309.429,347.616c-0.816,1.395-1.974,2.553-3.158,3.631           c-0.053-0.553-0.079-1.132-0.105-1.684c0.816-0.816,1.552-1.658,2.105-2.605c1.658-2.816,1.474-6.631-0.474-9.289           c-0.132-0.184-0.29-0.368-0.448-0.579c-0.737-0.947-1.605-2.052-1.5-3.421c0.053-0.789,0.421-1.474,0.763-2.079l0.158-0.29           c2.105-3.973,1.763-9.157-0.869-13.262c-1.421-2.237-3.474-4.131-5.921-5.5c-0.158-0.579-0.316-1.158-0.474-1.737           c3.132,1.526,5.763,3.789,7.5,6.526c2.895,4.5,3.237,10.21,0.921,14.578l-0.158,0.316           c-0.316,0.526-0.579,1.026-0.605,1.553c-0.079,0.868,0.553,1.658,1.237,2.5c0.158,0.211,0.316,0.421,0.474,0.632           C311.113,339.959,311.324,344.353,309.429,347.616z"/>
								</g>
							</g>
							<g>
								<g>
									<path style="fill:#302945;" d="M329.875,370.641c-0.026,0.526-0.052,1.026-0.079,1.526           c-1.447-0.868-2.711-2.131-3.684-3.684c-1.526-2.447-2.263-5.526-2.131-8.947c0.184-4.973,2.211-9.842,5.605-13.499           c0.053,0.605,0.079,1.237,0.105,1.868c-2.631,3.289-4.237,7.447-4.395,11.684c-0.079,2.184,0.184,5.395,1.947,8.21           C327.954,368.957,328.849,369.931,329.875,370.641z"/>
								</g>
							</g>
						</g>
					</g>
				</g>
			</g>
		</g>
		<g>
			<g>
				<path style="fill:#FFFFFF;" d="M268.441,97.209l-13.08,4.701c-0.388,0.139-0.693,0.445-0.833,0.833l-4.701,13.08      c-0.438,1.219-2.162,1.219-2.6,0l-4.701-13.08c-0.139-0.388-0.445-0.693-0.833-0.833l-13.08-4.701      c-1.219-0.438-1.219-2.162,0-2.6l13.08-4.701c0.388-0.139,0.693-0.445,0.833-0.833l4.701-13.08c0.438-1.219,2.162-1.219,2.6,0      l4.701,13.08c0.139,0.388,0.445,0.693,0.833,0.833l13.08,4.701C269.66,95.047,269.66,96.771,268.441,97.209z"/>
			</g>
			<g>
				<path style="fill:#FFFFFF;" d="M429.911,361.697l-13.08,4.701c-0.388,0.14-0.693,0.445-0.833,0.833l-4.701,13.08      c-0.438,1.219-2.162,1.219-2.6,0l-4.701-13.08c-0.139-0.388-0.445-0.693-0.833-0.833l-13.08-4.701      c-1.219-0.438-1.219-2.162,0-2.6l13.08-4.701c0.388-0.14,0.693-0.445,0.833-0.833l4.701-13.08c0.438-1.219,2.162-1.219,2.6,0      l4.701,13.08c0.139,0.388,0.445,0.693,0.833,0.833l13.08,4.701C431.13,359.535,431.13,361.259,429.911,361.697z"/>
			</g>
			<g>
				<path style="fill:#FFFFFF;" d="M179.193,429.732l-13.08,4.701c-0.388,0.14-0.693,0.445-0.833,0.833l-4.701,13.08      c-0.438,1.219-2.162,1.219-2.6,0l-4.701-13.08c-0.139-0.388-0.445-0.693-0.833-0.833l-13.08-4.701      c-1.219-0.438-1.219-2.162,0-2.6l13.08-4.701c0.388-0.139,0.693-0.445,0.833-0.833l4.701-13.08c0.438-1.219,2.162-1.219,2.6,0      l4.701,13.08c0.14,0.388,0.445,0.693,0.833,0.833l13.08,4.701C180.412,427.57,180.412,429.294,179.193,429.732z"/>
			</g>
			<g>
				<path style="fill:#FFFFFF;" d="M67.779,264.57l-13.08,4.701c-0.388,0.139-0.693,0.445-0.833,0.833l-4.701,13.08      c-0.438,1.219-2.162,1.219-2.6,0l-4.7-13.08c-0.139-0.388-0.445-0.693-0.833-0.833l-13.08-4.701c-1.219-0.438-1.219-2.162,0-2.6      l13.08-4.701c0.388-0.139,0.693-0.445,0.833-0.833l4.7-13.08c0.438-1.219,2.162-1.219,2.6,0l4.701,13.08      c0.139,0.388,0.445,0.693,0.833,0.833l13.08,4.701C68.998,262.408,68.998,264.132,67.779,264.57z"/>
			</g>
		</g>
	</g>
</g>















</svg>
