<svg height="512pt" viewBox="-119 0 512 512" width="512pt" xmlns="http://www.w3.org/2000/svg"><path d="m137.460938 241c-8.277344 0-15 6.722656-15 15s6.722656 15 15 15c8.277343 0 15-6.722656 15-15s-6.722657-15-15-15zm0 0"/><path d="m32.460938 452h210v60h-210zm0 0"/><path d="m137.460938 301c-24.8125 0-45-20.1875-45-45 0-19.53125 12.578124-36.023438 30-42.238281v-213.761719l-122.460938 256.851562 15.058594 22.585938c28.210937 42.320312 43.621094 92.035156 46.300781 142.5625h152.203125c2.679688-50.527344 18.089844-100.242188 46.300781-142.5625l15.058594-22.589844-122.460937-256.847656v213.761719c17.421874 6.214843 30 22.707031 30 42.238281 0 24.8125-20.1875 45-45 45zm0 0"/></svg>