<?xml version="1.0" encoding="iso-8859-1"?>
<!-- Generator: Adobe Illustrator 26.5.3, SVG Export Plug-In . SVG Version: 6.00 Build 0)  -->
<svg xmlns="http://www.w3.org/2000/svg" xmlns:xlink="http://www.w3.org/1999/xlink" version="1.1" id="Capa_1" x="0px" y="0px" viewBox="0 0 512 512" style="enable-background:new 0 0 512 512;" xml:space="preserve">
<g>
	<g>
		<path d="M154.661,401.322c-0.225,9.62-0.225,19.252-0.755,28.855c-0.343,6.229-0.221,12.49-1.075,18.694    c-0.626,4.553-2.209,5.988-6.79,5.862c-2.039-0.056-4.084,0.013-6.107-0.407c-3.058-0.634-4.324-1.943-4.49-5.048    c-0.215-4.005-0.42-8.016-0.449-12.026c-0.054-7.391,0.037-14.784,0.038-22.176c0-2.675-0.123-5.349-0.114-8.024    c0.005-1.343-0.619-1.625-1.808-1.442c-7.326,1.129-14.722,1.532-22.104,2.058c-1.779,0.127-2.585,0.671-2.526,2.636    c0.296,9.867,0.469,19.737,0.684,29.606c0.057,2.614,0.03,5.222-0.382,7.817c-0.381,2.4-1.529,3.704-3.939,3.967    c-2.663,0.291-5.344,0.48-8.021,0.559c-2.681,0.079-4.202-1.195-4.719-4.049c-0.966-5.331-1.564-10.717-1.898-16.122    c-0.575-9.276-1.107-18.556-1.55-27.84c-0.343-7.188-0.48-14.385-0.784-21.575c-0.585-13.803-0.461-27.631-1.546-41.42    c-0.238-3.017-0.568-6.089-0.004-9.146c0.408-2.211,1.613-3.503,3.815-3.979c3.382-0.731,6.811-1.099,10.252-1.236    c3.404-0.135,5.045,1.31,5.248,4.689c0.444,7.373,0.774,14.753,1.1,22.133c0.415,9.414,0.816,18.828,1.154,28.244    c0.219,6.11,0.388,12.224,0.416,18.337c0.009,1.854,0.606,2.29,2.352,2.109c7.426-0.769,14.86-1.466,22.298-2.121    c1.494-0.132,2.121-0.668,2.118-2.234c-0.029-14.909-0.005-29.817,0.01-44.726c0.002-1.976,0.023-3.953,0.074-5.928    c0.316-12.106-0.161-24.221,0.413-36.324c0.06-1.275,0.109-2.542,0.5-3.777c0.566-1.788,1.723-2.996,3.532-3.443    c3.294-0.814,6.63-1.378,10.048-1.104c3.554,0.285,5.314,2.147,5.329,5.693c0.046,11.022,0.089,22.044,0.056,33.067    c-0.047,15.992,0.234,31.983,0.069,47.978C155.066,393.428,155.056,397.38,154.661,401.322z"/>
		<path d="M237.458,370.25c-0.328,16.034-1.169,30.466-3.705,44.756c-1.547,8.718-4.271,16.975-10.05,23.877    c-4.576,5.464-10.699,8.143-17.715,8.78c-12.239,1.11-22.635-5.362-27.093-15.62c-3.823-8.797-5.749-17.916-5.986-27.458    c-0.259-10.397,0.229-20.777,0.828-31.143c0.676-11.695,1.428-23.396,2.996-35.02c0.332-2.462,0.701-4.919,1.614-7.261    c0.778-1.997,2.153-2.934,4.329-3.151c4.208-0.42,8.424-0.113,12.632-0.347c2.565-0.142,4.006,1.448,3.99,4.065    c-0.027,4.416-1.219,8.695-1.604,13.076c-0.473,5.39-1.257,10.753-1.721,16.144c-1.416,16.451-2.288,32.932-2.32,49.446    c-0.015,7.557,0.719,15.022,3.697,22.1c1.37,3.257,3.482,5.77,6.884,7.031c3.008,1.115,4.872,0.517,6.887-1.976    c1.869-2.313,2.706-5.039,3.38-7.832c1.803-7.462,2.478-15.092,3.091-22.711c0.578-7.177,0.914-14.376,0.948-21.583    c0.064-13.446-0.315-26.882-0.831-40.316c-0.151-3.947-0.216-7.9-0.219-11.85c-0.002-2.983,1.068-4.381,4.003-4.954    c3.129-0.611,6.298-1.084,9.472-1.369c3.314-0.297,5.288,1.337,5.546,4.571c0.431,5.395,0.865,10.802,0.966,16.209    C237.63,355.743,237.816,363.776,237.458,370.25z"/>
		<path d="M472.634,318.673c10.144,0.181,18.838,3.555,26.307,10.027c4.684,4.059,7.355,9.401,9.276,15.155    c2.606,7.806,4.077,15.878,3.733,24.065c-0.586,13.947-5.514,26.322-14.822,36.877c-1.956,2.217-4.21,4.082-6.452,5.97    c-0.789,0.665-1.086,1.215-0.571,2.254c5.531,11.152,8.694,23.121,12.039,35.026c0.569,2.025,1.215,4.028,1.77,6.057    c0.398,1.454,0.365,2.903-1.247,3.59c-1.653,0.704-2.837-0.133-3.62-1.584c-0.514-0.953-0.983-1.934-1.409-2.929    c-5.079-11.844-9.538-23.919-13.373-36.217c-0.509-1.631-1.128-1.684-2.397-0.964c-0.885,0.502-1.814,1.071-2.788,1.244    c-3.051,0.54-3.538,2.444-3.597,5.207c-0.183,8.599-0.63,17.194-1.031,25.787c-0.241,5.153-1.467,6.489-6.596,7.509    c-2.004,0.399-3.999,0.861-6.07,0.53c-2.908-0.465-4.205-1.643-4.525-4.561c-0.27-2.464-0.356-4.955-0.397-7.436    c-0.255-15.365,0.504-30.717,0.632-46.076c0.125-14.98,0.239-29.959,0.769-44.929c0.334-9.423,0.893-18.839,1.38-28.257    c0.148-2.866,1.517-4.548,4.313-5.408C466.861,318.717,469.85,318.552,472.634,318.673z M476.423,398.985    c-0.086,3.696-0.147,7.392-0.272,11.087c-0.052,1.533,0.588,1.73,1.671,0.918c1.528-1.146,3.003-2.368,4.457-3.608    c6.369-5.433,11.039-12.146,13.354-20.113c3.078-10.592,3.15-21.5,1.87-32.416c-0.723-6.164-1.824-12.25-4.525-17.898    c-2.779-5.81-7.446-9.225-13.801-10.392c-1.248-0.229-1.664-0.096-1.568,1.35c0.522,7.823,0.502,15.658,0.331,23.495    C477.595,367.271,477.26,383.135,476.423,398.985z"/>
		<path d="M260.812,351.828c-0.456,13.121-1.55,26.216-1.377,39.361c0.091,6.94-0.45,13.886-0.653,20.831    c-0.285,9.749-0.347,19.507-1.124,29.235c-0.187,2.346-0.541,4.68-0.883,7.011c-0.205,1.395-0.711,2.757-2.409,2.713    c-1.721-0.044-2.066-1.519-2.27-2.863c-0.585-3.856-0.502-7.761-0.523-11.637c-0.155-28.761,0.927-57.501,1.697-86.245    c0.147-5.474,0.489-10.95,0.663-16.429c0.097-3.056,1.315-4.71,4.256-5.619c3.605-1.114,7.317-1.802,11.034-2.409    c2.805-0.458,4.66,0.572,5.932,3.116c1.611,3.221,2.427,6.711,3.262,10.181c6.194,25.723,12.111,51.506,17.096,77.495    c0.68,3.547,1.551,7.058,2.334,10.586c0.221-0.007,0.442-0.014,0.663-0.021c0.169-7.234,0.246-14.472,0.527-21.702    c0.541-13.948,1.177-27.893,1.814-41.837c0.41-8.975,0.776-17.955,1.385-26.917c0.415-6.096,0.947-12.194,1.86-18.245    c0.317-2.101,1.348-3.292,2.724-3.059c1.908,0.323,2.357,1.799,2.337,3.435c-0.097,7.711-0.085,15.424-0.734,23.123    c-0.418,4.952-0.464,9.929-0.751,14.893c-0.746,12.916-1.216,25.848-1.824,38.772c-0.461,9.803-0.943,19.605-1.461,29.405    c-0.36,6.808-0.776,13.613-1.209,20.417c-0.372,5.848-2.082,7.909-7.75,9.315c-1.48,0.367-3.01,0.6-4.531,0.717    c-3.182,0.245-4.753-0.834-5.711-3.873c-1.689-5.354-3.131-10.779-4.319-16.263c-2.877-13.276-6.437-26.384-9.635-39.581    c-3.438-14.189-6.738-28.411-10.1-42.618C261.03,352.686,260.918,352.258,260.812,351.828z"/>
		<path d="M323.897,376.894c0.37-15.809,0.739-31.618,1.109-47.426c0.09-3.846,1.437-5.535,5.236-6.41    c5.963-1.374,11.838-0.423,17.628,0.974c15.261,3.683,24.452,13.471,28.442,28.454c2.376,8.922,3.425,17.987,3.708,27.204    c0.293,9.542-0.164,19.027-2.356,28.296c-3.364,14.232-10.625,26.032-23.234,34.021c-7.543,4.779-15.949,7.044-24.804,7.76    c-1.548,0.125-3.066-0.196-4.551-0.536c-1.71-0.392-1.95-1.878-2.01-3.313c-0.12-2.864-0.208-5.732-0.22-8.598    C322.754,417.171,323.469,397.034,323.897,376.894z M373.518,387.339c0.009-3.006,0.116-6.949-0.157-10.902    c-0.632-9.13-1.982-18.1-5.206-26.726c-3.843-10.284-11.287-16.395-21.829-18.999c-1.117-0.276-1.567-0.236-1.529,1.187    c0.197,7.32,0.354,14.644,0.352,21.966c-0.002,13.256-0.633,26.502-0.613,39.763c0.012,7.959-0.543,15.919-0.772,23.88    c-0.207,7.197-0.531,14.385-1.232,21.553c-0.207,2.12-0.02,2.207,2.035,1.332c12.435-5.295,20.43-14.682,25.145-27.11    C372.773,405.22,373.336,396.781,373.518,387.339z"/>
		<path d="M91.098,309.08c0.766,0.018,1.54-0.029,2.296,0.068c1.159,0.149,2.13,0.624,2.163,1.988    c0.032,1.309-0.77,2.019-1.97,2.194c-3.475,0.507-6.951,1.016-10.441,1.395c-6.537,0.71-13.081,1.362-19.629,1.962    c-1.641,0.15-2.234,0.643-2.058,2.454c1.233,12.684,1.467,25.428,2.143,38.146c0.287,5.404,0.312,10.822,0.455,16.234    c0.248,9.359,0.643,18.711,1.175,28.058c0.42,7.376,0.717,14.758,1.102,22.136c0.245,4.706,0.664,9.405,0.795,14.113    c0.107,3.821-0.829,4.805-4.57,5.602c-2.688,0.573-5.398,0.991-8.134,1.275c-4.06,0.42-6.004-0.947-6.644-5.016    c-1.22-7.751-2.003-15.557-2.418-23.389c-1.021-19.282-1.883-38.572-2.952-57.851c-0.681-12.279-1.758-24.534-2.199-36.828    c-0.089-2.474-0.381-2.59-2.921-2.368c-10.747,0.939-21.498,1.83-32.248,2.73c-1.159,0.097-2.297-0.116-3.415-0.387    c-0.854-0.207-1.543-0.643-1.62-1.639c-0.08-1.037,0.432-1.679,1.374-2.047c1.929-0.753,3.973-0.954,5.998-1.192    c21.306-2.504,42.688-4.227,64.048-6.173c6.548-0.596,13.107-1.067,19.661-1.596C91.092,308.993,91.095,309.036,91.098,309.08z"/>
		<path d="M415.23,324.568c5.075,0.1,9.478,0.224,13.859,0.754c1.21,0.146,2.415,0.316,3.534,0.81    c0.922,0.408,1.665,1.049,1.576,2.167c-0.088,1.099-0.872,1.739-1.859,1.931c-1.435,0.279-2.901,0.46-4.362,0.532    c-2.613,0.129-5.232,0.206-7.847,0.185c-1.379-0.011-1.939,0.444-1.945,1.87c-0.016,3.634-0.073,7.271-0.258,10.9    c-0.701,13.746-1.326,27.499-2.262,41.23c-0.386,5.66-0.186,11.35-0.964,16.983c-0.166,1.205,0.211,1.662,1.555,1.666    c4.598,0.013,9.196,0.186,13.794,0.299c1.392,0.034,2.856,0.133,3.108,1.861c0.271,1.862-1.14,2.654-2.607,3.001    c-3.987,0.944-8.072,1.253-12.154,1.426c-3.915,0.166-3.856,0.098-4.118,4.033c-0.711,10.677-1.168,21.375-2.358,32.015    c-0.174,1.557,0.531,1.5,1.63,1.451c6.388-0.288,12.766-0.121,19.126,0.574c0.38,0.042,0.76,0.102,1.134,0.182    c1.015,0.218,1.829,0.69,1.867,1.851c0.04,1.214-0.708,1.951-1.801,2.143c-1.882,0.331-3.787,0.624-5.693,0.711    c-8.866,0.409-17.739,0.443-26.613,0.296c-1.211-0.02-2.423-0.034-3.61-0.369c-3.025-0.853-4.586-2.599-4.783-5.712    c-0.245-3.877-0.468-7.762-0.505-11.645c-0.124-13.006,0.328-26.009,1.014-38.987c1.091-20.632,1.627-41.276,2.086-61.925    c0.044-1.978,0.113-3.949,0.503-5.899c0.545-2.728,2.136-4.156,4.879-4.214C406.07,324.586,410.982,324.283,415.23,324.568z"/>
	</g>
	<g>
		<g>
			<path d="M235.309,193.87c0.525-5.61,1.963-12.279,3.72-18.865c5.654-21.188,11.483-42.325,18.642-63.074     c3.971-11.508,7.374-23.207,11.872-34.54c1.387-3.496,3.623-5.901,6.997-7.422c8.138-3.671,16.739-5.866,25.371-7.934     c10.058-2.41,20.146-4.694,30.223-7.026c2.307-0.534,4.648-0.795,7.014-0.935c5.636-0.334,8.324,3.217,6.112,8.421     c-3.116,7.331-5.993,14.762-9.672,21.856c-9.813,18.92-18.021,38.584-26.787,57.99c-1.918,4.247-3.677,8.552-5.221,12.945     c-0.199,0.567-0.781,1.189-0.242,1.767c0.446,0.478,1.103,0.08,1.637-0.029c7.379-1.514,14.742-3.108,22.133-4.555     c2.112-0.414,4.296-0.645,6.463-0.076c3.42,0.898,5.167,3.655,4.439,7.103c-0.493,2.335-1.561,4.443-2.663,6.533     c-5.682,10.779-12.02,21.187-18.079,31.752c-6.821,11.894-13.588,23.821-20.597,35.604     c-9.421,15.835-18.293,32.009-28.745,47.217c-2.346,3.413-4.77,6.793-8.035,9.443c-1.23,0.999-2.507,1.828-4.181,1.077     c-1.779-0.798-2.225-2.358-2.237-4.102c-0.041-5.614,1.503-10.969,2.784-16.358c3.441-14.48,8.786-28.37,13.308-42.515     c4.096-12.812,8.212-25.617,12.271-38.441c0.407-1.285,1.453-2.912,0.417-3.956c-1.084-1.093-2.677,0.084-3.931,0.531     c-6.886,2.451-13.177,6.149-19.6,9.561c-4.116,2.187-8.239,4.351-12.533,6.176c-0.176,0.075-0.352,0.152-0.53,0.222     C238.8,204.957,235.095,202.403,235.309,193.87z"/>
			<path d="M370.342,290.476c0.919-10.244,3.023-20.293,5.013-30.36c1.495-7.568,3.008-15.132,4.487-22.703     c0.152-0.778,0.621-1.746-0.147-2.332c-0.662-0.505-1.475,0.084-2.158,0.366c-6.27,2.59-12.12,6.013-18.096,9.179     c-4.125,2.186-8.352,4.142-12.638,5.969c-4.319,1.842-7.205,0.109-7.496-4.585c-0.258-4.152,0.365-8.284,1.106-12.353     c3.181-17.466,8.163-34.472,13.271-51.449c4.298-14.285,8.474-28.606,13.408-42.691c1.841-5.255,4.93-9.004,10.968-9.454     c6.875-0.513,13.742-1.128,20.612-1.706c2.989-0.251,5.981-0.481,8.963-0.799c1.046-0.111,2.037-0.007,3.031,0.244     c1.923,0.484,2.566,1.587,2.123,3.775c-0.588,2.903-1.969,5.518-3.128,8.207c-9.088,21.084-19.094,41.753-28.505,62.691     c-0.422,0.939-1.438,2.002-0.691,2.988c0.694,0.917,1.933,0.173,2.901,0.07c6.451-0.682,12.577-2.802,18.842-4.312     c0.93-0.224,1.866-0.438,2.81-0.592c3.931-0.641,6.434,1.789,5.972,5.756c-0.311,2.674-0.963,5.266-1.861,7.796     c-9.114,25.681-19.222,50.947-31.581,75.271c-0.664,1.306-1.338,2.609-2.081,3.87c-0.752,1.276-1.742,2.314-3.414,1.771     c-1.573-0.51-1.72-1.889-1.74-3.278C370.307,291.37,370.331,290.923,370.342,290.476z"/>
			<path d="M175.331,283.836c0.79-9.014,2.494-17.773,4.214-26.528c1.745-8.881,3.532-17.753,5.282-26.633     c0.156-0.79,0.615-1.785-0.081-2.355c-0.682-0.559-1.593,0.031-2.339,0.336c-5.925,2.417-11.428,5.675-17.06,8.667     c-4.234,2.248-8.573,4.258-12.941,6.215c-0.809,0.363-1.683,0.628-2.555,0.79c-2.867,0.531-4.861-0.892-5.379-3.775     c-0.644-3.586-0.015-7.139,0.503-10.649c2.396-16.252,7.018-31.978,11.674-47.679c4.91-16.557,9.637-33.175,15.403-49.47     c1.947-5.502,5.187-9.155,11.481-9.593c9.93-0.691,19.833-1.79,29.765-2.442c3.724-0.245,5.558,0.945,4.16,5.207     c-1.67,5.091-4.014,9.925-6.23,14.797c-8.446,18.569-16.952,37.112-25.422,55.671c-1.179,2.584-1.141,2.635,1.713,2.391     c5.828-0.499,11.382-2.266,17.007-3.71c1.854-0.476,3.712-0.961,5.595-1.291c3.803-0.666,6.313,1.791,5.869,5.67     c-0.284,2.477-0.805,4.906-1.635,7.26c-9.293,26.357-19.754,52.227-32.414,77.175c-0.49,0.965-1.053,1.895-1.614,2.822     c-0.772,1.274-1.862,1.967-3.376,1.477c-1.397-0.452-1.636-1.655-1.649-2.931C175.296,284.748,175.322,284.238,175.331,283.836z"/>
		</g>
		<g>
			<g>
				<path d="M91.15,202.969c2.262,0.077,4.923,1.9,7.296,4.205c3.641,3.536,6.643,7.58,8.892,12.122      c4.787,9.668,9.072,19.532,11.011,30.236c0.261,1.44,1.082,3.183-0.748,4.114c-1.714,0.873-2.848-0.567-3.961-1.571      c-7.48-6.753-14.78-13.684-21.06-21.602c-3.021-3.808-5.608-7.898-7.719-12.272c-1.379-2.858-2.08-5.883-1.687-9.084      C83.652,205.231,86.238,202.876,91.15,202.969z"/>
				<path d="M68.523,251.468c7.527,0.314,14.508,2.771,21.395,5.542c5.454,2.195,10.774,4.675,15.77,7.802      c1.093,0.684,1.938,1.531,1.803,2.911c-0.13,1.33-1.126,2.004-2.281,2.299c-12.19,3.118-24.442,4.943-36.823,1.097      c-4.072-1.265-7.769-3.276-10.503-6.704c-3.967-4.974-2.287-10.41,3.8-12.268C63.914,251.468,66.206,251.348,68.523,251.468z"/>
			</g>
			<g>
				<path d="M469.492,220.939c-0.136,2.742-1.836,6.139-3.926,9.386c-6.036,9.374-13.913,17.051-22.436,24.115      c-2.452,2.033-4.693,4.318-7.343,6.116c-0.886,0.601-1.797,1.081-2.824,0.427c-1.025-0.653-1.057-1.695-0.796-2.732      c3.643-14.421,9.365-27.865,18.896-39.464c2.19-2.665,4.728-5.029,8.015-6.362C465.195,209.946,469.772,213.152,469.492,220.939      z"/>
				<path d="M481.366,261.087c3.395,0.062,6.251,0.266,8.901,1.571c4.536,2.235,5.669,6.964,2.632,11.035      c-2.509,3.363-6.053,5.241-9.893,6.56c-5.824,2-11.868,2.177-17.954,1.843c-6.158-0.338-12.092-1.829-18.012-3.408      c-0.677-0.181-1.352-0.379-2.014-0.608c-1.239-0.428-2.446-0.937-2.54-2.497c-0.09-1.491,0.864-2.316,2.056-2.938      c10.642-5.553,21.744-9.765,33.703-11.443C479.438,261.035,480.664,261.109,481.366,261.087z"/>
			</g>
		</g>
	</g>
</g>
<g>
</g>
<g>
</g>
<g>
</g>
<g>
</g>
<g>
</g>
<g>
</g>
<g>
</g>
<g>
</g>
<g>
</g>
<g>
</g>
<g>
</g>
<g>
</g>
<g>
</g>
<g>
</g>
<g>
</g>
</svg>
