<svg id="Capa_1" enable-background="new 0 0 512.002 512.002" height="512" viewBox="0 0 512.002 512.002" width="512" xmlns="http://www.w3.org/2000/svg"><g><path d="m368.501 467.753v-275.253c0-15.163-12.336-27.5-27.5-27.5h-13.222c4.457-7.131 7.66-15.116 9.348-23.603 6.49 5.371 14.811 8.603 23.874 8.603 12.407 0 22.5-10.094 22.5-22.5 0-9.778-6.27-18.119-15-21.215v-8.785c0-13.874-7.579-26.003-18.809-32.489 2.404-3.58 3.809-7.884 3.809-12.511v-30c0-12.406-10.093-22.5-22.5-22.5h-90c-12.407 0-22.5 10.094-22.5 22.5v30c0 4.627 1.405 8.931 3.809 12.511-11.23 6.486-18.809 18.615-18.809 32.489v8.785c-8.73 3.096-15 11.437-15 21.215 0 12.406 10.093 22.5 22.5 22.5 9.063 0 17.384-3.232 23.874-8.603 1.693 8.512 4.908 16.518 9.385 23.664-6.445.405-12.295 3.035-16.785 7.136-4.111-4.423-9.973-7.197-16.474-7.197h-15c-4.142 0-7.5 3.357-7.5 7.5v12.5h-52.5c-12.407 0-22.5 10.094-22.5 22.5s10.093 22.5 22.5 22.5h7.5v30h-22.5c-4.142 0-7.5 3.357-7.5 7.5s3.358 7.5 7.5 7.5h7.5v229.5c0 4.143 3.358 7.5 7.5 7.5 20.678 0 37.5-16.822 37.5-37.5v-199.5h7.5c4.142 0 7.5-3.357 7.5-7.5s-3.358-7.5-7.5-7.5h-22.5v-37.5c0-4.143-3.358-7.5-7.5-7.5h-15c-4.136 0-7.5-3.364-7.5-7.5s3.364-7.5 7.5-7.5h52.5v7.5c0 12.406 10.093 22.5 22.5 22.5 2.63 0 5.154-.458 7.501-1.291v8.791c0 9.398 3.784 18.328 10.283 25-6.499 6.671-10.283 15.601-10.283 25v95c0 4.143 3.358 7.5 7.5 7.5h22.5v15h-22.5c-12.407 0-22.5 10.094-22.5 22.5 0 9.777 6.271 18.114 15 21.21v45.384l-9.872 3.29c-3.93 1.31-6.053 5.558-4.744 9.487 1.048 3.143 3.974 5.13 7.114 5.13.786 0 1.586-.125 2.373-.387l45-15c3.063-1.021 5.128-3.887 5.128-7.115v-99.499h29.999v69.5c0 28.948 23.551 52.5 52.5 52.5h45c4.142 0 7.5-3.357 7.5-7.5.001-18.109-12.904-33.262-29.999-36.747zm-210-192.753v199.5c0 9.778-6.27 18.119-15 21.215v-220.715zm60-67.5c0 4.136-3.364 7.5-7.5 7.5s-7.5-3.364-7.5-7.5v-27.5h7.5c4.136 0 7.5 3.364 7.5 7.5zm30.001 276.595-15 5v-39.095h15zm0-49.095h-22.5c-4.136 0-7.5-3.364-7.5-7.5s3.364-7.5 7.5-7.5h22.5zm92.499-255c6.893 0 12.5 5.607 12.5 12.5v145.986l-3.339-2.226c-2.52-1.68-5.802-1.68-8.32 0l-10.84 7.227-10.84-7.227c-2.52-1.68-5.801-1.68-8.321 0 0 0-1.398.932-3.339 2.226v-153.262c2.327-1.604 4.544-3.351 6.646-5.224zm12.5-82.5v15c0 4.143 3.358 7.5 7.5 7.5 4.136 0 7.5 3.364 7.5 7.5s-3.364 7.5-7.5 7.5c-12.407 0-22.5-10.094-22.5-22.5v-15c0-7.806-1.742-15.423-5.01-22.359 11.239 1.243 20.01 10.794 20.01 22.359zm-120 0v15c0 12.406-10.093 22.5-22.5 22.5-4.136 0-7.5-3.364-7.5-7.5s3.364-7.5 7.5-7.5c4.142 0 7.5-3.357 7.5-7.5v-15c0-11.565 8.772-21.116 20.011-22.359-3.269 6.936-5.011 14.553-5.011 22.359zm7.5-37.5c-4.136 0-7.5-3.364-7.5-7.5v-30c0-4.136 3.364-7.5 7.5-7.5h90c4.136 0 7.5 3.364 7.5 7.5v30c0 4.136-3.364 7.5-7.5 7.5zm82.5 37.5c0 20.678-16.822 37.5-37.5 37.5s-37.5-16.822-37.5-37.5c0-8.157 2.65-16.031 7.511-22.5h59.978c4.861 6.469 7.511 14.343 7.511 22.5zm-89.999 190c0-6.968 3.645-13.52 9.613-17.5h10.054c-2.998 5.286-4.667 11.286-4.667 17.5v27.5h-15zm59.999 87.5h-59.999v-45h59.999zm0-60h-29.999v-27.5c0-6.968 3.645-13.52 9.613-17.5h20.385v45zm0-60h-44.247c3.485-17.096 18.637-30 36.747-30 2.533 0 5.04.259 7.5.761zm0-44.454c-2.476-.356-4.978-.546-7.5-.546-23.541 0-43.511 15.575-50.151 36.961-1.516-2.903-2.347-6.135-2.347-9.461v-45c0-6.893 5.607-12.5 12.5-12.5h10.853c7.663 6.832 16.889 11.965 27.195 14.742.639.172 1.295.258 1.951.258s1.312-.086 1.951-.258c1.887-.508 3.737-1.097 5.549-1.76v17.564zm-7.5-30.855c-19.948-6.224-34.341-23.975-37.036-45.019 9.501 9.467 22.596 15.328 37.036 15.328s27.535-5.861 37.036-15.328c-2.695 21.044-17.088 38.796-37.036 45.019zm60 317.309c-20.678 0-37.5-16.822-37.5-37.5v-102.995c1.139-.751 2.496-1.655 4.16-2.765l3.339-2.227 10.84 7.227c2.52 1.68 5.801 1.68 8.32 0l10.84-7.227 7.5 5v117.987c0 4.143 3.358 7.5 7.5 7.5 9.778 0 18.12 6.27 21.215 15z"/><path d="m279.217 116.454c2.419-.812 4.709-1.991 6.784-3.474 2.075 1.482 4.365 2.662 6.784 3.474 3.926 1.319 8.178-.798 9.496-4.725s-.797-8.179-4.725-9.496c-2.171-.729-4.097-2.167-5.422-4.05-1.404-1.995-3.692-3.183-6.133-3.183s-4.729 1.188-6.133 3.184c-1.325 1.883-3.251 3.321-5.422 4.05-3.927 1.317-6.042 5.569-4.725 9.496 1.318 3.926 5.57 6.043 9.496 4.724z"/></g></svg>