<?xml version="1.0" encoding="UTF-8"?>
<!-- Generator: Adobe Illustrator 27.2.0, SVG Export Plug-In . SVG Version: 6.00 Build 0)  -->
<svg xmlns="http://www.w3.org/2000/svg" xmlns:xlink="http://www.w3.org/1999/xlink" version="1.1" id="Capa_1" x="0px" y="0px" viewBox="0 0 512 512" style="enable-background:new 0 0 512 512;" xml:space="preserve" width="512" height="512">
<g>
	<path style="fill:#FFFFFF;" d="M275.932,512c-2.83,0-5.648-0.707-8.145-2.041c-8.435-4.568-11.566-15.058-7.059-23.426   c6.14-11.356,12.614-22.932,19.639-35.103c-1.405-1.176-2.782-2.387-4.128-3.629c-2.787,2.134-5.662,4.306-8.612,6.508   c-32.928,24.545-62.033,36.615-63.255,37.117c-2.009,0.829-4.169,1.269-6.386,1.291c-0.048,0.001-0.096,0.001-0.146,0.001   c-1.393,0-3-0.202-4.334-0.546c-1.015-0.249-2.068-0.632-3.121-1.146c-0.683-0.318-1.343-0.683-1.972-1.091   c-3.778-2.463-92.039-60.214-120.164-93.527c-32.165-38.098-10.077-72.998-0.644-87.901c1.105-1.746,2.04-3.216,2.813-4.551   l0.79-1.367c6.463-11.151,11.69-20.171,10.447-38.098c-13.632-13.255-22.884-31.722-26.517-53.021   c-1.275-1.576-2.485-3.029-3.592-4.335c-6.854-0.452-13.195-4.014-17.138-9.684l-10.469-15.063c-0.98-1.086-1.814-2.29-2.486-3.579   l-3.83-5.511c-3.53-5.085-4.445-11.338-2.783-17.016l-8.365-8.958c-3.208-3.433-4.772-8.087-4.29-12.761   c0.48-4.674,2.961-8.91,6.8-11.619l41.564-29.316c2.768-1.95,6.046-2.971,9.37-2.971c1.245,0,2.495,0.143,3.728,0.433   c4.527,1.068,8.382,4.023,10.586,8.119l4.928,9.155c0.413-0.025,0.824-0.037,1.234-0.037c0.315,0,0.627,0.007,0.939,0.021   c8.598-12.552,19.013-24.555,30.778-35.442c-2.277-8.458-1.311-17.708,3.182-25.697c6.057-10.771,17.5-17.463,29.864-17.463   c5.851,0,11.648,1.52,16.766,4.397c1.119,0.628,2.195,1.315,3.224,2.053c22.695-11.396,46.674-18.683,70.556-21.446   C236.477,6.416,243.478,0,251.89,0c0.038,0,0.076,0,0.115,0c8.065,0.057,14.775,5.994,15.958,13.805   c5.526,0.332,10.991,0.922,16.34,1.766c11.313,1.783,22.355,4.747,33.014,8.851c3.768-7.864,11.586-13.29,20.797-13.764   c4.794-0.246,9.683-0.37,14.529-0.37c58.236,0,104.862,17.779,122.205,25.424c11.574,5.101,17.294,18.001,13.305,30.005   l-4.485,13.494c0.069,2.631-0.471,5.261-1.614,7.718c-0.02,0.042-0.04,0.086-0.059,0.128c1.466,3.462,1.793,7.406,0.742,11.273   l-2.45,9.005c17.926,11.662,33.043,33.713,28.937,66.726c-2.638,21.212-9.897,42.899-21.598,64.556   c13.901,46.553,12.657,94.861-3.651,136.801c-20.142,51.803-63.752,91.239-111.099,100.469c-6.766,1.319-13.694,1.988-20.592,1.988   c-0.001,0-0.003,0-0.004,0c-12.677,0-25.123-2.178-37.117-6.482c-4.478,3.266-8.563,6.669-12.207,10.17   c-4.613,8.193-8.397,15.034-11.826,21.379C288.104,508.53,282.282,512,275.932,512z"/>
	<g>
		<path style="fill:#A27CFF;" d="M282.938,31.717c-52.144-8.224-109.577,10.79-153.133,48.31    c-26.891,23.165-49.246,54.231-56.622,88.857c-7.377,34.626,2.548,72.531,29.022,90.704c12.079,8.291,26.686,12.164,41.347,14.599    c18.814,3.125,38.197,4.091,56.471,9.097c18.274,5.006,35.869,14.703,45.392,31.43c11.845,20.806,9.251,48.213,14.631,72.305    c11.107,49.738,61.165,82.693,110.885,73c43.676-8.515,81.944-46.391,99.057-90.404c17.113-44.014,14.925-92.725,0.595-134.57    c-8.559-24.992-21.228-47.856-36.063-68.811c-13.426-18.965-31.476-34.207-42.184-54.799    C370.163,68.795,329.975,39.135,282.938,31.717z"/>
		<g>
			<g>
				<g>
					<path style="fill:#2F2444;" d="M200.915,322.248c-0.439,0-0.845-0.288-0.975-0.731       c-23.333-79.753-40.164-162.025-50.025-244.53c-0.066-0.557,0.331-1.062,0.888-1.129c0.553-0.069,1.063,0.331,1.129,0.889       c9.848,82.394,26.656,164.555,49.958,244.2c0.158,0.538-0.151,1.103-0.69,1.261       C201.105,322.234,201.01,322.248,200.915,322.248z"/>
					<path style="fill:#2F2444;" d="M163.889,169.154c-0.286,0-0.571-0.12-0.771-0.354c-13.915-16.217-28.134-32.519-42.263-48.454       c-0.372-0.42-0.333-1.062,0.086-1.434c0.419-0.373,1.062-0.334,1.434,0.086c14.136,15.943,28.363,32.254,42.284,48.479       c0.366,0.426,0.316,1.066-0.109,1.433C164.358,169.074,164.123,169.154,163.889,169.154z"/>
					<path style="fill:#2F2444;" d="M158.396,131.391c-0.186,0-0.374-0.052-0.542-0.158c-0.474-0.3-0.616-0.927-0.316-1.401       c8.241-13.034,15.857-26.672,22.638-40.532c0.247-0.503,0.854-0.715,1.359-0.467c0.504,0.247,0.713,0.855,0.466,1.359       c-6.813,13.927-14.466,27.629-22.746,40.726C159.062,131.223,158.732,131.391,158.396,131.391z"/>
					<path style="fill:#2F2444;" d="M178.901,239.41c-0.075,0-0.151-0.009-0.228-0.026c-0.547-0.125-0.889-0.67-0.763-1.217       c10.233-44.668,21.378-89.785,33.126-134.1c0.144-0.542,0.7-0.861,1.242-0.722c0.542,0.145,0.866,0.7,0.722,1.243       c-11.742,44.291-22.881,89.386-33.109,134.031C179.783,239.091,179.364,239.41,178.901,239.41z"/>
					<path style="fill:#2F2444;" d="M195.708,167.583c-0.294,0-0.587-0.127-0.788-0.373c-0.355-0.435-0.29-1.075,0.145-1.43       l42.07-34.329c0.434-0.354,1.075-0.29,1.429,0.145c0.355,0.435,0.29,1.075-0.145,1.43l-42.069,34.329       C196.162,167.509,195.935,167.583,195.708,167.583z"/>
					<path style="fill:#2F2444;" d="M193.559,295.622c-0.002,0-0.004,0-0.007,0c-0.561-0.003-1.013-0.461-1.009-1.022       c0.137-20.571,5.445-42.888,15.776-66.328c9.217-20.913,21.361-40.666,33.105-59.768c0.293-0.478,0.92-0.63,1.398-0.333       c0.478,0.294,0.627,0.919,0.333,1.397c-11.709,19.044-23.816,38.736-32.978,59.523c-10.218,23.185-15.468,45.229-15.603,65.521       C194.571,295.172,194.117,295.622,193.559,295.622z"/>
					<path style="fill:#2F2444;" d="M199.106,149.695c-0.447,0-0.857-0.298-0.98-0.75c-3.659-13.459-7.927-26.933-12.684-40.047       c-0.191-0.527,0.081-1.11,0.608-1.302c0.528-0.193,1.11,0.08,1.302,0.608c4.776,13.167,9.061,26.694,12.734,40.207       c0.147,0.542-0.172,1.1-0.714,1.247C199.284,149.684,199.194,149.695,199.106,149.695z"/>
					<path style="fill:#2F2444;" d="M221.925,204.623c-0.528,0-0.974-0.408-1.013-0.943c-0.789-11.06-2.729-22.073-5.764-32.736       c-0.154-0.54,0.159-1.102,0.699-1.256c0.538-0.154,1.102,0.159,1.255,0.699c3.074,10.797,5.038,21.95,5.837,33.148       c0.04,0.56-0.382,1.046-0.941,1.086C221.974,204.623,221.95,204.623,221.925,204.623z"/>
				</g>
				
					<ellipse transform="matrix(0.2034 -0.9791 0.9791 0.2034 -18.9507 222.7878)" style="fill:#EBB1FF;" cx="127.442" cy="123.04" rx="17.986" ry="17.986"/>
				
					<ellipse transform="matrix(0.9629 -0.2698 0.2698 0.9629 -11.8619 41.8498)" style="fill:#EBB1FF;" cx="146.311" cy="64.076" rx="17.986" ry="17.986"/>
				<path style="fill:#EBB1FF;" d="M184.36,73.566c6.105,3.433,8.272,11.165,4.839,17.27c-3.433,6.105-11.165,8.272-17.27,4.839      s-8.272-11.165-4.839-17.27C170.522,72.299,178.254,70.133,184.36,73.566z"/>
				<circle style="fill:#EBB1FF;" cx="185.996" cy="112.646" r="12.682"/>
				
					<ellipse transform="matrix(0.5139 -0.8578 0.8578 0.5139 17.0368 235.0368)" style="fill:#EBB1FF;" cx="215.914" cy="102.485" rx="12.682" ry="12.682"/>
				
					<ellipse transform="matrix(0.9629 -0.2698 0.2698 0.9629 -25.6797 68.8866)" style="fill:#EBB1FF;" cx="237.756" cy="127.861" rx="12.682" ry="12.682"/>
				
					<ellipse transform="matrix(0.9897 -0.1433 0.1433 0.9897 -22.3367 32.3)" style="fill:#EBB1FF;" cx="213.076" cy="171.224" rx="15.363" ry="15.363"/>
				
					<ellipse transform="matrix(0.9986 -0.0525 0.0525 0.9986 -8.3429 13.1073)" style="fill:#EBB1FF;" cx="245.19" cy="165.274" rx="15.363" ry="15.363"/>
			</g>
			<g>
				<g>
					<polygon style="fill:#FFC945;" points="19.522,136.316 73.792,194.422 98.482,176.472 61.087,106.999      "/>
					<path style="fill:#2F2444;" d="M73.792,194.422c0,0-0.595-20.713,24.69-17.95L73.792,194.422z"/>
				</g>
				<g>
					<path style="fill:#F14537;" d="M241.379,247.767c-51.144,35.609-109.613,59.04-163.996,89.474       c2.949,14.563,10.114,29.159,19.264,40.867c9.149,11.708,20.116,21.857,31.225,31.724       c21.382,18.991,43.704,37.294,69.028,50.581c10.776-0.516,19.752-5.517,29.274-10.589       c24.849-13.237,50.576-27.222,67.108-50.012c-1.741-39.901-7.363-80.432-21.479-117.793       C266.287,267.424,255.736,253.876,241.379,247.767z"/>
					<path style="fill:#2F2444;" d="M77.426,337.163c0,0,50.189-65.509,163.953-89.396c0,0-8.733,35.58-61.355,59.455       C127.402,331.098,77.426,337.163,77.426,337.163z"/>
				</g>
				<path style="fill:#2F2444;" d="M198.981,476.55c-0.194,0-0.387-0.056-0.554-0.164c-0.895-0.582-89.769-58.607-116.589-90.378      c-24.474-28.988-8.734-53.859,0.67-68.72c1.165-1.84,2.265-3.578,3.154-5.117l0.779-1.346      c7.762-13.391,15.788-27.237,11.754-55.439c-3.792-26.504-34.41-60.468-39.626-66.089c-1.197,1.124-2.763,1.688-4.459,1.717      c-2.099-0.028-3.989-1.032-5.187-2.756l-16.781-24.149c0,0,0,0,0-0.001c-0.913-1.314-0.875-3.124,0.092-4.401      c22.293-29.431,43.005-34.233,48.822-35.004c1.33-0.184,2.618,0.351,3.44,1.409l19.691,25.36      c1.291,1.663,1.684,3.772,1.076,5.789c-0.608,2.016-2.1,3.558-4.095,4.23l-1.464,0.494c4.751,5.816,26.388,32.53,36.695,49.073      c10.382,16.661,29.389,26.857,54.965,29.485c7.697,0.791,16.666-0.719,26.159-2.316c18.989-3.195,38.624-6.502,51.207,8.065      c17.15,19.853,32.367,153.657,33.007,159.344c0.033,0.298-0.066,0.595-0.272,0.812c-0.107,0.113-11.088,11.583-42.388,34.914      c-31.333,23.355-59.43,34.996-59.71,35.111C199.243,476.525,199.112,476.55,198.981,476.55z M58.55,186.776      c0.276,0,0.541,0.111,0.733,0.312c1.497,1.56,36.705,38.521,40.924,68.011c4.134,28.898-4.072,43.056-12.007,56.746      l-0.778,1.344c-0.91,1.574-2.021,3.329-3.196,5.187c-9.106,14.389-24.347,38.472-0.834,66.322      c25.644,30.376,108.782,85.161,115.694,89.69c3.859-1.648,29.925-13.146,58.777-34.653      c28.184-21.009,39.782-32.317,41.801-34.35c-1.033-8.992-16.228-138.961-32.471-157.764c-11.835-13.7-30.897-10.493-49.332-7.39      c-9.632,1.622-18.728,3.153-26.705,2.334c-26.225-2.694-45.755-13.218-56.482-30.433      c-11.488-18.438-37.213-49.681-37.471-49.994c-0.213-0.258-0.285-0.604-0.193-0.925c0.092-0.322,0.335-0.577,0.652-0.685      l2.857-0.964c1.364-0.46,2.384-1.514,2.799-2.892s0.147-2.819-0.735-3.956l-19.692-25.36c-0.374-0.482-0.959-0.718-1.568-0.642      c-5.62,0.745-25.651,5.414-47.469,34.217c-0.443,0.586-0.461,1.414-0.043,2.016l16.781,24.149      c0.818,1.179,2.11,1.865,3.544,1.884c1.425-0.03,2.745-0.635,3.595-1.791c0.177-0.241,0.453-0.393,0.752-0.412      C58.505,186.776,58.528,186.776,58.55,186.776z"/>
				<path style="fill:#2F2444;" d="M198.982,476.551c-0.083,0-0.167-0.011-0.251-0.032c-0.544-0.138-0.873-0.69-0.735-1.234      c0.158-0.623,4.041-15.455,18.592-31.729c13.396-14.981,38.747-33.931,83.451-39.128c0.543-0.071,1.062,0.334,1.126,0.892      s-0.334,1.062-0.892,1.126c-44.071,5.125-69.01,23.746-82.17,38.465c-14.222,15.905-18.1,30.727-18.137,30.875      C199.85,476.244,199.436,476.551,198.982,476.551z"/>
				<path style="fill:#2F2444;" d="M58.55,187.792c0,0,7.711-18.556,39.437-26.3c0,0-26.119,12.602-35.325,29.311L58.55,187.792z"/>
				<path style="fill:#2F2444;" d="M37.898,171.889c-0.249,0-0.498-0.09-0.694-0.273c-0.41-0.383-0.432-1.026-0.048-1.436      C51.501,154.829,68.323,142.32,87.154,133c0.504-0.252,1.112-0.043,1.361,0.459c0.249,0.503,0.043,1.113-0.46,1.361      c-18.611,9.212-35.237,21.575-49.415,36.746C38.441,171.781,38.17,171.889,37.898,171.889z"/>
				<g>
					<path style="fill:#FFFFFF;" d="M102.538,197.991l16.626,23.191c2.286,3.189,6.976,3.337,9.459,0.299l0,0       c1.656-2.026,1.797-4.896,0.347-7.075l-15.902-23.892c-2.062-3.099-6.43-3.57-9.105-0.982l-0.725,0.701       C101.114,192.288,100.816,195.589,102.538,197.991z"/>
					<path style="fill:#FFFFFF;" d="M128.699,234.121c-0.141-3.818,2.686-7.021,6.313-7.155c3.627-0.133,6.681,2.853,6.822,6.671       s-2.686,7.021-6.313,7.155S128.839,237.939,128.699,234.121z"/>
				</g>
				<g>
					<path style="fill:#FFFFFF;" d="M282.367,383.358c-34.869,13.586-69.893,30.448-94.198,58.902       c-16.096-8.706-32.159-16.913-46.975-27.654c-14.817-10.741-28.351-23.611-37.905-39.219       c-2.986-4.879-5.604-10.103-6.56-15.742c-0.847-5-0.352-10.148,0.745-15.099c3.589-16.195,13.326-30.205,21.486-44.648       c8.159-14.443,15.058-30.879,12.152-47.21c10.83,9.389,26.437,10.144,40.758,9.548s28.457-3.809,42.789-4.064       c14.331-0.254,29.602,2.956,39.732,13.097c6.972,6.98,10.765,16.464,13.928,25.809       C277.362,323.797,280.847,355.19,282.367,383.358z"/>
					<path style="fill:#EBB1FF;" d="M184.965,426.797c-0.229,0-0.459-0.056-0.671-0.17c-1.786-0.967-3.572-1.926-5.355-2.883       c-11.663-6.263-23.722-12.739-34.755-20.737c-14.454-10.478-25.122-21.521-32.615-33.763c-2.198-3.591-4.84-8.414-5.768-13.892       c-0.676-3.989-0.465-8.367,0.647-13.383c2.498-11.269,8.453-21.362,14.212-31.123c1.398-2.371,2.845-4.822,4.211-7.24       c6.073-10.75,12.718-24.922,10.175-39.212c-0.105-0.589,0.173-1.18,0.693-1.475c0.521-0.297,1.17-0.231,1.622,0.161       c8.903,7.718,22.021,8.262,33.683,7.775c5.657-0.235,11.405-0.972,16.963-1.685c6.352-0.814,12.919-1.655,19.464-1.772       c10.441-0.174,24.943,1.668,34.817,11.553c6.377,6.385,9.633,14.96,12.185,22.496c6.438,19.02,10.371,43.147,12.022,73.762       c0.033,0.609-0.329,1.17-0.897,1.392c-27.5,10.716-58.458,25-79.558,49.7C185.764,426.625,185.368,426.797,184.965,426.797z        M138.279,267.334c1.209,13.953-5.12,27.344-10.949,37.661c-1.379,2.441-2.833,4.904-4.238,7.286       c-5.647,9.571-11.487,19.469-13.888,30.3c-1.031,4.652-1.234,8.676-0.62,12.3c0.661,3.902,2.324,7.877,5.392,12.889       c7.295,11.918,17.718,22.696,31.864,32.95c10.88,7.888,22.321,14.031,34.435,20.536c1.453,0.78,2.908,1.562,4.363,2.347       c21.233-24.36,51.713-38.583,78.98-49.26c-1.668-29.87-5.537-53.427-11.821-71.988c-2.449-7.235-5.56-15.452-11.508-21.406       c-9.172-9.183-22.874-10.902-32.77-10.725c-6.389,0.113-12.879,0.945-19.155,1.749c-5.617,0.721-11.426,1.465-17.205,1.706       C160.073,274.139,147.688,273.683,138.279,267.334z"/>
					<g>
						<path style="fill:#2F2444;" d="M168.638,392.011c-0.243,0-0.486-0.082-0.687-0.249l-35.173-29.305        c-0.106-0.089-0.194-0.196-0.259-0.318c-0.181-0.339-4.415-8.354-2.202-13.646c0.821-1.962,2.387-3.297,4.655-3.967        c3.995-1.178,8.231,1.022,11.057,5.746c3.23,5.399,4.212,13.711-1.002,19.594l24.299,20.245        c0.456,0.38,0.517,1.057,0.138,1.513C169.251,391.879,168.945,392.011,168.638,392.011z M134.317,360.943l9.058,7.547        c4.338-4.878,3.738-12.221,0.811-17.115c-1.8-3.011-5.006-5.854-8.605-4.788c-1.641,0.484-2.714,1.379-3.282,2.735        C130.828,352.839,133.173,358.729,134.317,360.943z"/>
						<path style="fill:#2F2444;" d="M176.75,376.224c-1.986,0-4.445-0.922-7.204-2.735c-4.011-2.638-8.31-6.889-12.104-11.972        c-7.061-9.458-11.899-21.502-6.956-25.192c4.942-3.691,15.115,4.373,22.176,13.829l0,0c3.794,5.084,6.649,10.413,8.037,15.009        c1.491,4.934,1.107,8.551-1.081,10.184C178.832,375.934,177.865,376.224,176.75,376.224z M153.374,337.53        c-0.662,0-1.214,0.154-1.637,0.47c-2.807,2.096-0.466,11.755,7.381,22.265c3.653,4.894,7.765,8.969,11.578,11.476        c3.415,2.245,6.283,2.969,7.671,1.93c1.389-1.037,1.512-3.991,0.33-7.903c-1.32-4.368-4.058-9.469-7.711-14.361        C164.319,342.476,157.112,337.53,153.374,337.53z"/>
						<path style="fill:#2F2444;" d="M219.771,346.182c-2.148,0-4.762-1.331-7.586-3.902c-3.549-3.232-7.129-8.104-10.082-13.719        c-2.953-5.613-4.938-11.324-5.589-16.08c-0.7-5.106,0.245-8.619,2.661-9.89c2.418-1.27,5.846-0.059,9.657,3.411        c3.549,3.232,7.129,8.104,10.082,13.719c2.953,5.613,4.938,11.324,5.59,16.08c0.7,5.106-0.245,8.619-2.662,9.89        C221.216,346.02,220.522,346.182,219.771,346.182z M201.259,304.19c-0.417,0-0.789,0.083-1.11,0.252        c-1.534,0.806-2.118,3.705-1.563,7.754c0.62,4.521,2.526,9.987,5.368,15.392c2.842,5.404,6.266,10.072,9.639,13.145        c3.022,2.753,5.741,3.914,7.275,3.106c1.534-0.806,2.118-3.705,1.563-7.754c-0.62-4.521-2.527-9.987-5.369-15.392l0,0        c-2.842-5.403-6.265-10.072-9.639-13.145C205.034,305.372,202.833,304.19,201.259,304.19z"/>
						<path style="fill:#2F2444;" d="M192.985,362.933c-0.292,0-0.581-0.121-0.788-0.358l-28.735-32.899        c-0.38-0.435-0.335-1.095,0.1-1.475c0.435-0.382,1.095-0.337,1.476,0.1l28.735,32.899c0.38,0.435,0.335,1.095-0.1,1.475        C193.475,362.848,193.229,362.933,192.985,362.933z"/>
						<path style="fill:#2F2444;" d="M199.33,356.577c-1.812,0-3.609-0.568-5.037-1.72c-0.471-0.38-0.545-1.07-0.166-1.542        c0.38-0.472,1.07-0.545,1.542-0.165c2.218,1.789,5.673,1.638,7.866-0.344c2.112-1.91,3.073-5.288,2.449-8.606        c-1.011-5.372-6.173-9.652-11.23-9.325c-1.334,0.084-2.683,0.432-4.111,0.8c-2.799,0.721-5.691,1.467-8.547,0.125        c-1.637-0.769-2.919-2.127-3.958-3.354c-2.403-2.838-3.772-5.351-4.311-7.908c-0.727-3.459,0.338-6.963,2.651-8.719        c3.343-2.537,8.011-1.076,11.267,1.137c0.5,0.34,0.631,1.021,0.291,1.522c-0.339,0.499-1.021,0.632-1.523,0.29        c-2.625-1.783-6.291-3.035-8.709-1.203c-1.907,1.448-2.294,4.319-1.831,6.521c0.46,2.188,1.68,4.394,3.838,6.943        c0.886,1.046,1.96,2.195,3.217,2.785c2.141,1.005,4.534,0.39,7.068-0.264c1.465-0.378,2.979-0.769,4.521-0.864        c6.148-0.373,12.318,4.705,13.521,11.107c0.763,4.052-0.467,8.228-3.132,10.638        C203.432,355.855,201.371,356.577,199.33,356.577z"/>
						<path style="fill:#2F2444;" d="M232.239,337.699c-0.387,0-0.753-0.23-0.909-0.61l-15.845-38.785        c-0.18-0.44-0.018-0.947,0.385-1.201s0.929-0.183,1.25,0.17l26.133,28.75l-13.366-32.973        c-0.204-0.502,0.039-1.074,0.541-1.277c0.505-0.203,1.074,0.039,1.278,0.541l15.434,38.074        c0.179,0.44,0.016,0.945-0.387,1.198c-0.403,0.254-0.928,0.183-1.249-0.17L219.4,302.699l13.747,33.647        c0.205,0.502-0.036,1.074-0.537,1.279C232.488,337.676,232.363,337.699,232.239,337.699z"/>
					</g>
					<path style="fill:#2F2444;" d="M169.088,310.591c-2.983-3.814-7.223-6.627-11.897-7.892c-4.674-1.265-9.654-1.599-14.154,0.19       c1.69-1.605,2.551-3.893,3.09-6.16c1.541-6.47,0.836-13.453-1.967-19.484c7.258,6.42,17.963,8.803,27.313,6.258       c-3.056,3.652-4.003,7.293-4.683,12.006C166.11,300.223,165.938,307.019,169.088,310.591z"/>
				</g>
			</g>
			<g>
				<g>
					<g>
						<g>
							<path style="fill:#2F2444;" d="M377.454,189.767c6.269-9.053,3.823-21.398,6.826-31.993         c3.201-11.297,12.596-20.011,23.149-25.159c10.553-5.148,22.293-7.231,33.858-9.259c1.027,6.499,2.932,13.067,2.946,19.647         c0.015,7.1-0.675,14.546-4.558,20.49c-5.535,8.473-16.07,11.884-25.788,14.712         C402.399,181.547,388.943,186.425,377.454,189.767z"/>
							<path style="fill:#2F2444;" d="M334.504,222.709c10.76-2.341,17.395-13.035,26.818-18.733         c10.048-6.075,22.862-6.036,34.089-2.6c11.227,3.436,21.232,9.924,31.07,16.332c-3.683,5.452-6.772,11.554-11.251,16.374         c-4.833,5.201-10.418,10.174-17.312,11.871c-9.828,2.418-19.857-2.275-28.891-6.839         C358.349,233.719,345.183,228.104,334.504,222.709z"/>
							<path style="fill:#2F2444;" d="M290.422,109.202c9.753,5.113,21.705,1.174,32.588,2.856         c11.604,1.793,21.403,10.05,27.805,19.893c6.401,9.843,9.907,21.24,13.335,32.47c-6.324,1.815-12.61,4.51-19.138,5.33         c-7.044,0.884-14.519,1.112-20.894-2.014c-9.087-4.456-13.763-14.494-17.759-23.792         C301.635,132.952,295.146,120.194,290.422,109.202z"/>
						</g>
						<g>
							<path style="fill:#86DFD1;" d="M388.772,230.156c6.269-9.053,3.823-21.398,6.826-31.993         c3.201-11.297,12.596-20.011,23.149-25.159c10.553-5.148,22.293-7.231,33.858-9.259c1.027,6.499,2.932,13.067,2.946,19.647         c0.015,7.1-0.675,14.546-4.558,20.49c-5.535,8.473-16.07,11.885-25.788,14.712         C413.717,221.936,400.261,226.814,388.772,230.156z"/>
							<path style="fill:#2F2444;" d="M388.639,231.324c-0.191,0-0.38-0.08-0.515-0.236c-0.244-0.284-0.211-0.712,0.073-0.955         c3.668-3.148,6.249-7.451,8.745-11.612c0.462-0.771,0.924-1.541,1.392-2.303c11.469-18.686,28.367-35.483,53.178-52.863         c0.305-0.215,0.728-0.141,0.943,0.166c0.215,0.307,0.14,0.729-0.166,0.943c-24.654,17.271-41.432,33.94-52.801,52.463         c-0.465,0.758-0.924,1.523-1.384,2.29c-2.551,4.254-5.189,8.653-9.024,11.943         C388.952,231.271,388.795,231.324,388.639,231.324z"/>
						</g>
						<g>
							<path style="fill:#86DFD1;" d="M321.508,221.011c10.239,4.052,21.708-1.13,32.707-0.61         c11.728,0.555,22.347,7.728,29.754,16.838c7.407,9.11,12.1,20.072,16.698,30.875c-6.097,2.474-12.061,5.82-18.466,7.326         c-6.911,1.625-14.32,2.643-20.99,0.209c-9.508-3.469-15.22-12.955-20.178-21.778         C335.173,243.44,327.37,231.441,321.508,221.011z"/>
							<path style="fill:#2F2444;" d="M400.349,268.143c-0.161,0-0.323-0.058-0.452-0.174         c-22.414-20.094-42.455-32.652-63.073-39.522c-0.844-0.281-1.693-0.555-2.544-0.829c-4.722-1.52-9.605-3.091-13.679-6.079         c-0.302-0.221-0.367-0.645-0.146-0.946s0.646-0.368,0.947-0.146c3.897,2.857,8.674,4.396,13.293,5.882         c0.855,0.275,1.709,0.551,2.558,0.833c20.799,6.931,40.992,19.577,63.548,39.8c0.278,0.249,0.302,0.678,0.052,0.956         C400.719,268.066,400.534,268.143,400.349,268.143z"/>
						</g>
						<g>
							<path style="fill:#86DFD1;" d="M394.489,170.815c-1.461-10.914,6.336-20.793,8.485-31.593         c2.292-11.516-2.106-23.551-9.159-32.938s-16.558-16.586-25.933-23.656c-3.872,5.319-8.559,10.3-11.566,16.152         c-3.245,6.315-6.021,13.259-5.269,20.319c1.071,10.064,8.899,17.897,16.265,24.837         C376.02,152.141,385.781,162.61,394.489,170.815z"/>
							<path style="fill:#2F2444;" d="M394.385,171.99c-0.267,0-0.519-0.159-0.627-0.421c-1.917-4.675-2.263-9.792-2.598-14.741         c-0.061-0.893-0.121-1.784-0.19-2.671c-1.692-21.667-9.043-44.146-23.134-70.746c-0.175-0.331-0.049-0.741,0.282-0.916         c0.331-0.175,0.741-0.05,0.916,0.281c14.18,26.77,21.58,49.417,23.287,71.275c0.07,0.892,0.13,1.787,0.191,2.685         c0.328,4.842,0.667,9.848,2.5,14.319c0.142,0.346-0.024,0.741-0.37,0.884C394.558,171.974,394.471,171.99,394.385,171.99z"/>
						</g>
						<g>
							<path style="fill:#86DFD1;" d="M373.354,174.756c-11.009-0.266-19.544-9.515-29.874-13.33         c-11.014-4.068-23.591-1.609-33.967,3.887c-10.376,5.496-18.975,13.756-27.426,21.907         c4.647,4.658,8.833,10.066,14.141,13.953c5.728,4.194,12.152,8.023,19.243,8.387c10.107,0.518,19.07-5.986,27.079-12.173         C352.017,190.071,363.886,182.07,373.354,174.756z"/>
							<path style="fill:#2F2444;" d="M282.634,187.425c-0.282,0-0.544-0.177-0.641-0.458c-0.122-0.354,0.067-0.739,0.421-0.86         c28.658-9.812,52.184-13.576,74.043-11.834c0.893,0.07,1.789,0.151,2.687,0.231c4.831,0.435,9.827,0.884,14.528-0.227         c0.365-0.091,0.729,0.139,0.815,0.504c0.086,0.364-0.14,0.729-0.503,0.814c-4.917,1.16-10.022,0.701-14.961,0.258         c-0.893-0.08-1.784-0.16-2.672-0.231c-21.668-1.724-45.02,2.017-73.497,11.766         C282.781,187.413,282.707,187.425,282.634,187.425z"/>
						</g>
					</g>
					<path style="fill:#FFC945;" d="M332.384,34.259l-1.864,17.695l18.134,1.52l-4.186,33.146l97.029,18.62l5.423-32.373       l20.641,6.868l6.333-19.057c1.324-3.984-0.593-8.309-4.434-10.002c-17.559-7.739-67.778-26.856-129.344-23.695       C336.097,27.187,332.805,30.258,332.384,34.259z"/>
					<path style="fill:#2F2444;" d="M405.538,312.717c-0.08,0-0.159-0.009-0.238-0.027L290.968,285.16       c-0.304-0.073-0.557-0.282-0.687-0.566c-0.458-1.003-45.62-100.918-26.689-153.052c9.934-27.357,24.846-39.443,35.607-44.766       c9.686-4.791,17.704-5.131,20.405-5.086l2.238-17.717c0.052-0.413,0.351-0.753,0.754-0.856       c0.151-0.04,15.436-3.884,40.848-2.102c23.401,1.642,60.487,8.521,104.271,31.976c0.417,0.224,0.625,0.705,0.5,1.162       l-5.927,21.777c5.918,2.103,37.068,15.205,31.968,56.209c-5.134,41.283-28.82,77.254-47.787,100.159       c-20.527,24.79-40.116,40.055-40.311,40.206C405.98,312.644,405.761,312.717,405.538,312.717z M291.929,283.301l113.367,27.297       c5.896-4.71,77.586-63.445,86.946-138.708c2.259-18.164-2.33-32.816-13.638-43.551c-8.46-8.031-17.731-10.744-17.824-10.771       c-0.535-0.153-0.848-0.708-0.702-1.244l5.966-21.923c-78.068-41.567-135.5-30.938-142.273-29.47l-2.266,17.94       c-0.068,0.541-0.554,0.931-1.094,0.886c-0.091-0.01-9.183-0.698-20.423,4.896c-10.389,5.171-24.805,16.929-34.483,43.581       C247.5,181.815,288.654,275.959,291.929,283.301z"/>
					<path style="fill:#2F2444;" d="M467.56,80.75c-0.144,0-0.289-0.031-0.428-0.096c-0.269-0.124-27.348-12.581-67.244-20.086       c-39.931-7.51-69.079-7.599-69.368-7.599c-0.561,0-1.016-0.454-1.016-1.016s0.455-1.016,1.016-1.016       c0.292,0,29.613,0.086,69.744,7.634c40.162,7.554,67.454,20.114,67.725,20.24c0.509,0.236,0.729,0.84,0.493,1.35       C468.309,80.532,467.942,80.75,467.56,80.75z"/>
					<path style="fill:#2F2444;" d="M405.539,312.717c-0.296,0-0.59-0.129-0.791-0.377c-0.134-0.165-13.861-16.65-54.112-26.807       c-40.185-10.139-58.767-0.564-58.949-0.467c-0.495,0.266-1.11,0.079-1.375-0.414c-0.265-0.494-0.082-1.108,0.412-1.375       c0.771-0.415,19.356-10.073,60.409,0.285c40.999,10.346,54.636,26.806,55.196,27.501c0.352,0.437,0.283,1.075-0.153,1.428       C405.988,312.643,405.763,312.717,405.539,312.717z"/>
				</g>
				<g>
					<path style="fill:#FFFFFF;" d="M456.435,144.826c-5.11,8.675-8.663,18.264-10.439,28.174       c-1.003,5.596-1.434,11.405-0.103,16.934c1.47,6.107,7.397,12.717,13.973,8.294c3.013-2.027,4.698-5.49,6.02-8.873       c4.265-10.908,6.129-22.545,7.195-34.154c0.493-5.374,3.073-16.57-3.51-19.302       C464.456,133.777,458.638,141.087,456.435,144.826z"/>
					<path style="fill:#FFFFFF;" d="M458.477,220.387c-1.23,5.107-6.367,8.251-11.474,7.021c-5.107-1.23-8.251-6.367-7.021-11.474       s6.367-8.251,11.474-7.021C456.564,210.143,459.707,215.28,458.477,220.387z"/>
				</g>
			</g>
			<g>
				<g>
					<path style="fill:#2F2444;" d="M277.1,495.832c-0.163,0-0.329-0.04-0.482-0.123c-0.494-0.267-0.678-0.883-0.411-1.377       c39.512-73.098,85.418-143.414,136.445-208.997c0.345-0.442,0.984-0.522,1.426-0.178c0.443,0.345,0.522,0.982,0.178,1.426       c-50.958,65.494-96.802,135.717-136.261,208.716C277.811,495.639,277.461,495.832,277.1,495.832z"/>
					<path style="fill:#2F2444;" d="M358.469,360.969c-0.024,0-0.048,0-0.073-0.002c-0.56-0.04-0.981-0.526-0.941-1.086       c1.515-21.282,2.875-42.871,4.043-64.168c0.031-0.561,0.511-0.988,1.07-0.959c0.56,0.031,0.99,0.51,0.959,1.07       c-1.168,21.308-2.53,42.908-4.045,64.201C359.443,360.561,358.997,360.969,358.469,360.969z"/>
					<path style="fill:#2F2444;" d="M381.127,330.264c-0.462,0-0.88-0.318-0.989-0.788c-0.126-0.547,0.214-1.092,0.761-1.219       c15.036-3.471,30.042-7.807,44.602-12.886c0.529-0.187,1.109,0.095,1.294,0.624c0.185,0.53-0.095,1.109-0.625,1.294       c-14.629,5.104-29.707,9.46-44.813,12.948C381.28,330.255,381.203,330.264,381.127,330.264z"/>
					<path style="fill:#2F2444;" d="M319.722,421.466c-0.336,0-0.666-0.167-0.859-0.473c-0.301-0.474-0.16-1.102,0.313-1.401       c38.696-24.554,78.354-48.783,117.87-72.017c0.484-0.284,1.106-0.123,1.391,0.361c0.284,0.483,0.123,1.106-0.361,1.391       c-39.497,23.221-79.134,47.438-117.812,71.979C320.097,421.414,319.908,421.466,319.722,421.466z"/>
					<path style="fill:#2F2444;" d="M436.241,387.425c-0.032,0-0.065-0.001-0.098-0.004l-54.05-5.191       c-0.559-0.054-0.968-0.551-0.914-1.108c0.053-0.559,0.544-0.957,1.108-0.915l54.05,5.191c0.559,0.054,0.968,0.551,0.914,1.108       C437.201,387.032,436.759,387.425,436.241,387.425z"/>
					<path style="fill:#2F2444;" d="M290.6,471.731c-0.261,0-0.521-0.1-0.72-0.298c-0.396-0.397-0.395-1.041,0.002-1.438       c14.567-14.524,34.037-26.653,57.868-36.048c21.265-8.383,43.79-13.881,65.572-19.197c0.542-0.131,1.095,0.201,1.228,0.746       c0.133,0.546-0.201,1.096-0.746,1.229c-21.716,5.3-44.172,10.781-65.309,19.113c-23.571,9.292-42.809,21.269-57.179,35.597       C291.119,471.633,290.86,471.731,290.6,471.731z"/>
					<path style="fill:#2F2444;" d="M397.188,371.91c-0.169,0-0.341-0.043-0.499-0.132c-0.489-0.276-0.661-0.896-0.384-1.385       c6.869-12.146,13.313-24.725,19.153-37.387c0.236-0.509,0.84-0.73,1.348-0.497c0.51,0.235,0.732,0.839,0.498,1.349       c-5.864,12.712-12.333,25.341-19.23,37.535C397.887,371.725,397.542,371.91,397.188,371.91z"/>
					<path style="fill:#2F2444;" d="M374.772,427.004c-0.234,0-0.469-0.08-0.661-0.244c-0.426-0.365-0.475-1.007-0.109-1.433       c7.217-8.415,13.585-17.608,18.929-27.324c0.271-0.492,0.889-0.671,1.38-0.401c0.492,0.271,0.671,0.889,0.4,1.38       c-5.41,9.839-11.859,19.147-19.167,27.668C375.343,426.884,375.058,427.004,374.772,427.004z"/>
				</g>
				
					<ellipse transform="matrix(0.9084 -0.4181 0.4181 0.9084 -93.0019 179.9734)" style="fill:#EBB1FF;" cx="364.284" cy="302.261" rx="17.986" ry="17.986"/>
				
					<ellipse transform="matrix(0.4855 -0.8742 0.8742 0.4855 -23.5602 507.2092)" style="fill:#EBB1FF;" cx="419.171" cy="273.623" rx="17.986" ry="17.986"/>
				<path style="fill:#EBB1FF;" d="M439.541,307.131c1.925,6.735-1.974,13.754-8.708,15.679c-6.735,1.925-13.754-1.974-15.679-8.709      c-1.925-6.734,1.974-13.754,8.709-15.679C430.596,296.497,437.616,300.397,439.541,307.131z"/>
				<path style="fill:#EBB1FF;" d="M425.409,332.574c1.925,6.734-1.974,13.754-8.709,15.679c-6.734,1.925-13.754-1.974-15.679-8.709      c-1.925-6.734,1.974-13.754,8.709-15.679C416.465,321.941,423.484,325.84,425.409,332.574z"/>
				<path style="fill:#EBB1FF;" d="M453.822,346.397c1.925,6.734-1.974,13.754-8.709,15.679c-6.734,1.925-13.754-1.974-15.679-8.708      c-1.925-6.735,1.974-13.755,8.709-15.679C444.877,335.763,451.897,339.662,453.822,346.397z"/>
				<path style="fill:#EBB1FF;" d="M451.498,379.797c1.925,6.735-1.974,13.754-8.709,15.679c-6.734,1.925-13.754-1.974-15.679-8.709      c-1.925-6.734,1.974-13.754,8.709-15.679C442.553,369.163,449.573,373.062,451.498,379.797z"/>
				
					<ellipse transform="matrix(0.8081 -0.5891 0.5891 0.8081 -158.6243 306.6451)" style="fill:#EBB1FF;" cx="391.26" cy="396.745" rx="15.363" ry="15.363"/>
				
					<ellipse transform="matrix(0.8081 -0.5891 0.5891 0.8081 -164.2555 326.0818)" style="fill:#EBB1FF;" cx="418.272" cy="415.105" rx="15.363" ry="15.363"/>
			</g>
		</g>
		<polygon style="fill:#FBEEE5;" points="249.965,66.881 253.059,16.344 255.465,67.225 268.185,56.911 260.622,68.943     287.781,72.381 261.31,75.819 268.873,86.477 256.153,79.601 252.715,123.605 249.965,80.288 236.901,85.789 245.152,75.819     212.148,71.35 244.808,69.975 237.244,58.63   "/>
		<polygon style="fill:#FBEEE5;" points="317.757,385.552 320.851,335.016 323.258,385.896 335.978,375.583 328.415,387.615     355.573,391.053 329.102,394.491 336.665,405.148 323.945,398.272 320.508,442.277 317.757,398.96 304.693,404.461     312.944,394.491 279.941,390.022 312.6,388.647 305.037,377.302   "/>
	</g>
</g>















</svg>
