<svg id="Layer_1" enable-background="new 0 0 512 512" viewBox="0 0 512 512" xmlns="http://www.w3.org/2000/svg"><path d="m308.6 167.6c0 1.9-.7 4.4.2 5.4 1.1 1.1 2.9-1.2 4.5-1.7 10.2-3.1 19.6-1.3 28.5 4.2.8.5 1.5 1.2 2.1 2 2.7 3.7 5.5 7.4 8 11.3 4.1 6.4 6.1 13.2 5.1 21-1.1 8.2-.8 8.3 7.1 7.5 5.3-.5 10.4.2 15.4 1.8 1.4.4 2.5 1.1 3.5 2.1 5.1 5.2 8.6 11 9.7 18.4 1.1 7.3-5.1 16.2-11.5 18.8-5.9 2.4-12 3.1-18.4 3-22-.2-44-.1-66.1-.1-46.2 0-92.4 0-138.6 0-2.9 0-5.7.1-8.4 1.3-1.9.9-4.1.6-6.1.2-7.5-1.2-15.7-1.4-22-5.9-6.8-4.9-15-9.1-17.1-18.6-.3-1.2-.9-2.6-1.8-3.4-3.4-3.1-4.2-7.2-4.9-11.4-.7-4.9-2.5-9.7-2.4-14.8.2-13.9 5.3-26.1 14-36.7 3.6-4.4 6.4-9.6 11.4-12.7 7.2-4.5 15-6.2 23.4-4.2.4.1.7.3 1.1.4 3.5 1 3.7.8 4.3-2.7 2.1-13.7 9.8-23.9 19.9-32.7 7.5-6.6 15.4-12.8 24.3-17.6 2.5-1.3 4.9-2.8 7.6-3.8 14.4-5.2 29.1-7.1 44.3-4.7 7.4 1.2 13.8 4.7 20.3 8.3 10.6 5.8 20.3 12.9 27.8 22.5 7.4 9.5 12.9 20 13.9 32.3.2 3.7 1.2 7 .9 10.5z" fill="#c6e0f7"/><g fill="#3981bf"><path d="m138.1 356.9c-1.1.5-1.6.6-1.9.9-3 2.9-6.6 2.3-10.2 1.6-1.5-.3-1.7-.6-1.2-2.1 1.3-3.9 3-7.5 7.5-8.2-.2-1.3-1-1.5-1.6-1.6-1.8-.4-1.4-1.4-1-2.6 2.4-6.8 2.4-6.8 8.9-3.6 2.4 1.2 4.8 2.6 7.3-.4-3.7-2.7-8.7-4.4-8.6-10.3 0-5.8 4.6-7.7 8.7-10.3-1.9-2.1-3.8-2.3-6-1.1-1.9 1-3.9 1.8-5.8 2.8-1.4.7-2.1.2-2.5-1.2-.3-.9-.6-1.9-1-2.7-1.2-2.4-1.9-4.6 1.8-5.2-.1-1.1-.9-1.3-1.5-1.4-4.3-1.2-4.7-5.1-6.2-8.3-.6-1.2.4-1.2 1.1-1.4 4.2-1.1 8.3-1.2 11.5 2.5 1-1.6-.9-3.5.8-4 2.4-.8 5-.9 7.5-1.2.9-.1.8 1 .8 1.6.2 2.2.4 4.5.6 6.7.2 2.3 1.2 3.8 3.8 4.2.4-4.7-.3-9.7 4.9-12.6 5.1-2.9 8.9.6 13.1 2.3.9-2.5.2-4.2-1.9-5.4-1.9-1.2-3.7-2.6-5.6-3.9-1.2-.8-1.4-1.7-.3-2.9.7-.7 1.3-1.5 1.9-2.3 1.4-2 2.8-4 5.8-.8-1.4-5.6 1.7-9.1 4.9-12.5 3.2 3.4 6.4 6.8 4.7 12 1.8.3 2.6-2.1 3.6-1.2 1.9 1.7 3.4 3.8 4.9 5.8.7.9-.5 1.4-1 1.8-1.8 1.4-3.6 2.7-5.5 3.9-2.1 1.3-2.7 2.9-1.8 5.4 4.2-1.7 8.1-5.2 13.2-2.2s4.5 7.8 4.7 12.6c2.6-.3 3.7-1.7 3.9-4.2.1-2.3.4-4.5.6-6.7.1-.7 0-1.8 1.2-1.7 2.4.3 5 .4 7.2 1.2 1.7.6-.2 2.5.5 3.7.4-.2 1-.3 1.3-.6 3-2.9 6.5-2.3 10.1-1.6 1.9.3 1.6.9 1.1 2.3-1.3 3.9-3 7.2-7.5 8.1.1.5.1.8.2.8 3 .8 2.8 2.5 1.8 4.9-2.1 5.1-2 5.1-6.9 2.7-.8-.4-1.6-.7-2.4-1.2-2.2-1.3-4.2-1.4-6.3.8 3.7 2.7 8.6 4.4 8.6 10.4 0 5.8-4.7 7.7-8.6 10.3 1.8 2.2 3.8 2.4 6 1.1.5-.3 1-.5 1.6-.8 6.2-3 7.7-2.2 8.8 4.7.1.9.1.9-2.8 2.6.1.9.9 1.1 1.5 1.2 4.2 1.2 4.8 5.1 6.2 8.3.6 1.2-.4 1.2-1.1 1.4-3.7.8-7.3 1.5-10.4-1.5-.3-.3-.8-.4-1.2-.6-.8 1.3 1.1 3.1-.7 3.7-2.4.8-5 1.2-7.5 1.1-.8-.1-.7-1.1-.8-1.7-.2-2-.4-4.1-.5-6.2-.1-2.4-.9-4.2-3.9-4.7-.4 4.6.3 9.6-4.7 12.6-5.1 3-8.9-.4-13.2-2.3-.9 2.5-.3 4.3 1.9 5.5.6.3 1.1.8 1.7 1.2 5.5 3.8 5.5 3.8 1.4 8.8-1.6 1.9-1.6 1.9-5.1-.2 1.4 5.6-1.3 9.2-4.8 12.5-3.2-3.4-6.3-6.8-4.8-11.9-1.8-.6-2.4 2.3-3.8 1-1.8-1.7-3.2-3.7-4.7-5.7-.6-.9.4-1.4 1-1.8 1.7-1.3 3.5-2.6 5.3-3.7 2.1-1.3 3-3 2.1-5.6-4.3 1.8-8.2 5.4-13.3 2.2-4.9-3-4.3-7.9-4.6-12.5-2.8.4-3.7 2.1-3.9 4.5-.2 2.2-.4 4.3-.5 6.5-.1 1.6-.9 2-2.3 1.7-.9-.2-1.7-.4-2.6-.5-2.7-.3-5.8-.1-3.5-4.8zm31-18c-8.9 3.6-9.6 4.6-9.2 12.9v.3c-.1 1.5.3 1.9 1.9 1.2 7.3-3.3 7.3-3.3 7.4-11.2-.1-.9-.1-1.9-.1-3.2zm9.1-.3v9.3c0 1.2.6 1.8 1.5 2.3 1.8 1 3.6 1.9 5.4 3 1.4.8 2.3 1 2.3-1.2-.1-2.2 0-4.3 0-6.5 0-1-.2-1.7-1.1-2.2-2.5-1.4-5.1-2.9-8.1-4.7zm0-16c3-1.8 5.5-3.2 8.1-4.7.5-.3 1.1-.6 1.1-1.3-.1-3 .4-6-.3-9-2.4.2-4.1 2-6.2 2.9-.4.2-.8.5-1.3.7-.9.4-1.3 1.1-1.3 2.1 0 2.9-.1 5.9-.1 9.3zm-9.2 0c0-3.4 0-6.2 0-9 0-1.1-.3-1.8-1.3-2.4-2.1-1.1-4.1-2.2-6.2-3.4-1.3-.7-1.7-.3-1.7 1.1 0 2.3 0 4.7-.1 7 0 .9.2 1.5 1 1.9 2.7 1.6 5.3 3.1 8.3 4.8zm31.6 8.2c-7.5-5.9-7.5-5.9-15.4-1.5-.8.4-1.5.9-2.4 1.4 2.8 1.6 5.4 3.1 8 4.6.9.5 1.6.5 2.5 0 2.4-1.6 4.8-3 7.3-4.5zm-54.2-.2c2.8 1.7 5.2 3.2 7.6 4.7.8.5 1.4.5 2.2 0 2.7-1.6 5.3-3.1 8.1-4.7-2.7-1.5-5.2-2.9-7.6-4.4-1-.6-1.8-.9-3-.1-2.2 1.5-4.6 2.9-7.3 4.5z"/><path d="m277.3 353.7c-1.3 3.2-4.3 4.9-5.9 3.8-1.8-1.3-.9-4.5 1.5-6.7-3.6-.4-2.4-3-2.2-4.7.2-1.6 1.9-.7 3-.8 1.7 0 3.6.7 4.5-1.8-1.7 0-3.3-.3-4.6-1-2.8-1.4-3.2-4.6-1.1-8.2.3-.5 1.4-.8.5-1.6-.8-.7-1.6-.5-2.3.3-.6.7-1.1 1.4-1.7 2-.8.6-.9 2.5-2.6 1.4-2.2-1.4-2.7-2.7-1.8-4.7-.5 0-1-.1-1.4-.1-1.5-.1-5.1-2.8-4.6-3.3 1.4-1.4 2.8-3.1 5.3-2.3 1.3.4 1.5.4 1.2-1.3-.3-1.6 2-2.1 3.3-2.8 1-.5 1.3.8 1.7 1.5.7 1.3 1.2 2.7 2.4 3.7.3.3 1 .4 1.4.2.6-.2.2-.7.1-1.2-1.9-6.8-.3-8.8 7.1-8.6-.5-1.9-.5-1.9-3.3-2.5-3.3-.6-3.8-2.1-2.2-5.1.7-1.3 1.6.5 2.2-.7-1.6-2.2-1.1-4.6 0-7.1 2.4 1 4.7 1.9 5.1 5 1.5-1.2 4.4-1 5.4.5.9 1.2-.5 2-.9 2.8-.8 1.6-2.7 2.9-.9 4.9 5.8-5.9 8-5.7 11.9 1.2 2.5-1.5.5-3.2.3-4.8-.1-1-1.6-2.5.1-3 1.4-.4 3.6-2.3 4.7.7.9-.2 1-1.1 1.5-1.7 1.3-1.4 3.8-2.3 4.6-1.6 1.2 1.1 1.2 3.4-.1 5.1-.4.5-.8 1.1-1.4 1.8 3.5.1 2.3 2.6 2.2 4.2-.1 2.1-1.9 1.1-3 1.1-1.7.1-3.6-.8-4.5 1.8 2.6.5 5.5.5 6.7 3.3s-.1 5.1-1.9 7.3c2.4 1.8 3.2-.6 4.2-1.7 2.3-2.4 3.2-2.3 5.2.5.8 1.2-.4 1.5-.4 2.3.2.5.7.4 1 .3 2.7-.3 3.9 1.7 5 3.4.5.7-3.5 2.4-5.5 2.1-.8-.1-1.9-.4-1.1 1 .5.9-.1 1.2-.6 1.7-2.7 2.3-3.2 2.2-4.8-.9-.2-.3-.4-.7-.6-1-.5-1.1-1.3-2.4-2.6-1.8-1.1.5.1 1.6.4 2.5 1.3 4.4-1.1 7.4-5.6 7.3-.7 0-1.4-.1-2.2-.1.2 2.1 1.7 2.3 3.2 2.6 4 .7 3.8.7 2.7 4.5-.5 1.8-1.6.6-2.5 1.2 1.7 2.3 1.1 4.7.2 7.2-2.5-.9-4.7-2-5.2-5.1-1.9 2.7-3.5.8-4.9-.1-1.9-1.2.1-2.2.5-3.1.6-1.6 2.7-2.8.8-4.8-4.4 6.3-9.5 4.9-11.7-1.2-1.6 1.4-1.5 1.4-.4 4.9.3.9 1.7 2.4-.2 2.9-1.8 0-3.9 1.8-5.2-1.6zm8.5-25.3c-1.7-5.2-2.5-5.9-6-5.8-1.2 0-1.8.2-1.3 1.7 1.2 3.6 2.4 4.3 7.3 4.1zm9.1 7c.4.8.8 1.6 1 2.4.7 3.1 3 3.1 5.4 3.2 1.1 0 1.2-.5 1-1.5-1-3.7-2.8-4.7-7.4-4.1zm-18.2 2.3c4.9 1.8 6.1 1.3 8.4-3.7-5.9-.9-5.9-.9-8.4 3.7zm13-.3c-4 4.4-4.1 4.7-1.1 9.3 4.1-3.8 4.1-3.8 1.1-9.3zm6-7.8c5.8 1.2 5.8 1.2 8.4-3.5-5.2-2.2-5.7-1.5-8.4 3.5zm-3.5-12.7c-4 3.3-4 3.6-1.3 9.3 4.2-4.2 4.2-4.3 1.3-9.3z"/><path d="m95.2 297.2c-3.7 4.1-5.1 3.9-8.8-.9-.7 1.2-.2 2.3.1 3.4.6 2-.8 3.5-2.7 2.7-1.2-.6-1.4-.3-2.1.5-.7.7-2 1.5-2.9.8-1-.7-.7-2.3-.2-3.2.6-1.1 1.1-1.6-.3-2.4-.5-.3-.6-1.7-.4-2.5.2-1 1.3-.5 2-.6s1.4 0 2.1 0c.5 0 1.1-.1 1-.7 0-.3-.4-.6-.8-.8-4.8-2.5-4.8-2.5-2.3-7.6-1.8-.8-2.4.9-3.2 1.8-1.1 1.3-2.1 1.1-2.7-.2-.7-1.6-1.6-2.7-3.2-3.3-.6-.2-1.7-.9-1.2-1.7.6-1 1.6-1.6 2.9-1.7.7 0 2 .9 1.6-1.1-.1-.7 1.4-1.3 2.3-1.6.9-.2 1 .9 1.4 1.5s.7 1.4 1.2 2c.2.2.7.3 1.1.2.6-.1.2-.6.2-.9-.7-5.2-.5-5.6 4.7-6.1.2 0 .3-.2.5-.3-.3-1.2-1.3-1.3-2.2-1.3-2.4-.1-3-1.5-1.7-3.2.9-1.2 1-2.1.9-3.5-.1-.6-.3-2.1.7-2.3 1.2-.2 2.4.5 2.9 1.6.5 1 .7 1.3 2 1 2-.5 2.8 1.3 1.9 3.2-.5.9-1.8 1.8-.5 3.3 1.2-1.5 2.4-3.2 4.6-2.9 2.1.3 2.9 2.1 4 3.9 1-1.3.5-2.3.2-3.4-.7-2.3.5-3.7 2.7-2.8 1 .4 1.2.6 1.9-.3s2.1-1.6 3.1-1c.9.5.6 2.1.2 3-.5 1.1-.7 1.6.3 2.8 1 1.1 1.1 3.1-1.6 2.8-.7-.1-1.4 0-2.1 0-.4 0-.8-.1-1 .5-.1.6.3.9.7 1.1 4.8 2.5 4.8 2.6 2.3 7.6 1.7.8 2.4-.7 3-1.6 1.7-2.2 3.1-.7 3.4.6.4 1.3.7 1.8 2 2.1.9.2 2.2 1 1.9 2.2-.2 1-1.5 1.4-2.6 1.6-.8.2-1.7-.7-2.1 1.2-.4 2-2.5 1.8-3.6-.2-.4-.7-.8-1.3-1.3-1.9-.1-.2-.5-.2-.8-.2-.6.1-.4.5-.3.9.4 5.3.4 5.3-5.1 6.5.3 1.4 1.5 1.2 2.5 1.4 1.9.2 2.8 1.4 1.4 2.9-1.1 1.3-1.1 2.4-1 3.8.1.6.3 2.1-.8 2.3-1 .2-2.2-.6-2.7-1.5-.6-1.1-.9-1.4-2.4-1.2-2 .3-2.7-1.3-1.7-3.1.6-.9 1.8-1.8.6-3.2zm.5-9.4c.2 3.4 2.4 4.1 5.3 4-.3-3.3-2.1-4.6-5.3-4zm-4.1 1.4c-2.6 3.7-2.6 3.8-.4 6.6 2.6-1.9 2.5-4.1.4-6.6zm-3.3-2.3c-.9-.2-1.8-.3-2.7-.6-2.1-.6-1.9 1.5-2.8 2.3-.4.4-.3.9.4 1 1.2.3 2.4 1.3 3.5-.1.5-.8 1.4-1.3 1.6-2.6zm7.8-3.5c2.8 1.2 4.9.9 5.9-2.3-2.9-1.9-4.5-.4-5.9 2.3zm-12.4-4.8c.7 3.9.7 3.9 5.1 3.9-.3-3.1-2.3-4-5.1-3.9zm9.7-4.1c-2.6 2-2.7 4.2-.7 6.5 2.3-1.9 3.1-4 .7-6.5z"/><path d="m242.6 393.6c4.4 1.3 4.9 2.3 2.9 6.7 1.5.6 1.9-.8 2.4-1.5 1.1-1.5 1.9-.9 2.6.2.7 1 .7 2.5 2.5 2.5.4 0 1.2 1 1.1 1.5-.1.9-1.3 1.3-2 1.4-1 .2-1.7-.4-2 1.3-.1.8-2.2 2.2-3.1-.3-.3-.9-.8-1.8-1.9-2 1 5.1.8 5.2-4.5 6.4.7 1 1.6 1.3 2.7 1.3.9 0 1.9.7 1.2 1.4-1.7 1.8-.7 4.3-1.9 6.2-1.9-.6-2.9-2.8-5.3-2.8-1.3 0-.8-1.1-.5-2 .3-.8 1.8-1.6.5-2.8-3.3 3.3-4.5 3.1-7.2-1-1.6.8-.4 2-.1 2.7.8 1.7-.2 2.5-1.3 2.2-1.5-.4-2.4.2-3.4.9-1.5 1-2.3.3-2.1-1.3.1-1.1.4-2.1-.2-3.3-.6-1.3-.3-3 2-2.6.8.1 1.8.5 2.3-.7-4.4-1.4-4.9-2.5-2.8-6.8-1.6-.5-1.8 1.1-2.7 1.7-.5.3-.6 1.4-1.6.5-1.4-1.4-2.4-3-4-4.3s1-1.9 1.8-2.1 1.2.3 1.5-1.1c.3-1.6 2.3-1.4 3.3.2.5.8.7 1.9 2 1.9-.8-4.9-.4-5.5 4.5-6-.5-1.3-1.6-1.6-2.7-1.6-.8 0-1.6-.4-1.2-1.2.8-1.8 1.1-3.6 1.6-5.5.5-2 1.6-.3 2 0 .9.7 1.4 1.9 3.1 1.6.7-.1 2.1.7 1.1 2.2-.5.7-1.4 1.5-.9 2.6.9.4.9-.5 1.2-.8 2.3-1.9 3.5-1.7 5.5.8.3.3.2 1.3 1.1.9.7-.4.3-.9.1-1.5-.8-2.8-.8-2.9 2.4-2.7 1.1.1 1.1-1.2 2-1.4.8-.1 2-1 2 .4-.1 1.9.2 3.7.5 5.6.2 1.1-.7 1.2-1.5 1.2-1.1.3-2.3-.3-3 1zm-6.5-1.7c-1.7 1.1-2.6 2.6-1.3 4.6.2.3.4.9 1 .4 1.9-1.6 1.7-3.2.3-5zm6.2 14.3c-.6-2.4-1.5-4.1-4.4-3.1.5 2.5 1.5 4 4.4 3.1zm-14.7-10.8c.5 2.5 1.5 4.1 4.4 3.2-.4-2.3-1.4-3.8-4.4-3.2zm15.6 1.8c-2-.6-3.8-.8-4.7 1.6-.3.9.3 1 .8 1.1 2.4.5 3.3-.8 3.9-2.7zm-8.6 7.2c-2 1.6-2.5 3.4-.8 5.4 2.3-1.4 2.5-3.1.8-5.4zm-7.9.1c2.1.6 3.9.8 4.8-1.6.2-.6-.1-.9-.6-1-2.4-.7-3.5.6-4.2 2.6z"/><path d="m71.9 406.9c-4.4 0-7.9-3.5-7.9-7.8-.1-4.5 3.5-8.1 8-8 4.4.1 7.8 3.6 7.8 7.9s-3.6 7.9-7.9 7.9z"/><path d="m244.5 319.7c-4.4 0-7.9-3.4-8-7.8-.1-4.5 3.6-8.1 8-8 4.3.1 7.8 3.6 7.8 8 .1 4.3-3.4 7.8-7.8 7.8z"/><path d="m136.5 397.7c0 4.4-3.5 7.9-7.8 8-4.5 0-8.1-3.6-8-8.1.1-4.4 3.6-7.8 7.9-7.8s7.8 3.5 7.9 7.9z"/><path d="m248.4 345.3c2.5 0 4.5 2 4.5 4.5s-2.1 4.5-4.6 4.4c-2.4-.1-4.3-1.9-4.3-4.3-.1-2.5 1.9-4.6 4.4-4.6z"/><path d="m169.9 414.2c-.1 2.5-2.1 4.4-4.6 4.3-2.3-.1-4.3-2.1-4.3-4.4 0-2.4 2-4.5 4.5-4.5 2.5.1 4.4 2.1 4.4 4.6z"/><path d="m106.9 335.1c0 2.5-2.1 4.5-4.5 4.5s-4.3-1.9-4.4-4.3c-.1-2.5 1.8-4.6 4.4-4.6 2.4-.1 4.4 1.9 4.5 4.4z"/></g><path d="m375.1 202.4c.2 1.6-.9 3.6.2 4.5 1.1.8 2.5-1 3.9-1.4 8.8-2.7 17.9-2.1 24.3 3.9 7.7 7.2 14.4 16 13.5 28-.2 2.2-.2 4.3-.3 6.5-.1 1.7.7 2.2 2.3 2 4.6-.3 9.1-.8 13.8.2 7.8 1.6 11 7.5 13.9 13.9.2.5.2 1.2.4 1.7 3.6 10-4.9 19.5-13.8 21.1-3.8.7-7.7 1.1-11.6 1.1-59.4-.1-118.7-.1-178.1-.1-2.1 0-4.1.1-6 1.1-1.2.6-2.5.6-3.8.5-7.2-.8-14.8-1.3-20.9-5.3-6-4-13-7.8-14.9-15.9-.2-.8-.6-1.7-1.1-2.4-7.9-12.4-8.6-25.5-3.9-39.1 3.5-10.1 10-18.4 17.4-25.6 6-5.8 14-7.2 22.3-5 3.7 1 3.9.9 4.5-2.8 1.7-10.9 7.8-19.5 15.8-26.6 6.5-5.8 13.3-11.2 20.9-15.7 8.6-5 17.8-7.5 27.3-8.7 8.9-1.1 18.1-1 26.4 2.6 18.4 7.9 34.1 19 42.8 38.1 3.4 7.3 4.1 15.4 4.7 23.4z" fill="#6ea4dd"/><path d="m246 95c7.6.7 16.7 4.8 24.6 11-8.8-2.3-16.9-6.1-24.6-11z" fill="#6ea4dd"/><path d="m141.8 174.8c-5.5-1-10.8-.5-15.8 1.9-10.9 5.3-17.3 14-19 26-1.6 11.7.8 22.5 8.4 31.8 1.1 1.4 2.5 2.1 4 .7 1.4-1.2 1-2.6-.1-3.9-5.6-6.5-7.6-14.3-7.8-23.2.1-1.3.2-3.2.5-5 2.2-15 14.5-24.9 29.1-23.3 1.7.2 3.1-.1 3.4-1.9.4-2-.9-2.8-2.7-3.1z"/><path d="m304.9 149.6c-20.8 2.5-36 13.6-46.7 31.2-.9 1.5-1.2 3.1.5 4.1 1.8 1 2.9 0 3.8-1.6 2.1-3.6 4.4-7 7.3-10 14.3-14.9 30.8-22.9 51.9-16.6.8.3 1.7.4 2.5.6 1.4 0 2.4-.6 2.7-1.9.4-1.5-.3-2.6-1.7-3-6.7-1.6-13.4-3.6-20.3-2.8z"/><path d="m173.8 135.7c-3.5 4.2-5.9 9.1-7.8 14.2-.6 1.6-.5 3 1.2 3.7s2.9-.1 3.4-1.8c5-13.9 15.5-22.9 27.3-30.7 4.1-2.7 8.6-4.8 13.2-6.4 3.7-1.3 7.4-1.8 11.3-1.9 1.7-.1 3-.7 3-2.5 0-2-1.5-2.6-3.3-2.5-.5 0-1 0-1.5 0-4.5.2-8.8 1.1-12.9 2.8-13.4 5.4-24.6 13.9-33.9 25.1z"/><path d="m237 211.6c1-.2 1.9-.4 2.8-.8.9-.5 1.4-1.4 1.2-2.5-.2-1.2-1-2-2.2-2-.8 0-1.6.1-2.3.3-15.9 3.2-26.3 16.7-26.4 36.2-.1 7.7 3.9 15.5 11.9 21.2 1.5 1.1 3.1 2.2 4.6.2 1.4-2 0-3.2-1.6-4.3-3.8-2.7-6.8-6-8.4-10.4-4.4-12.1.5-33.9 20.4-37.9z"/><path d="m398.8 248.8c2 .4 2.8-1 3.1-2.7.4-1.9.7-3.9 1-5.8-.2-8.9-7.5-18.9-15.5-21.1-1.8-.5-3.5-.6-4.1 1.5-.5 2 .8 2.8 2.5 3.3 3.1.8 5.4 2.6 7.3 5.1 3.5 4.7 5.6 9.7 3.9 15.6-.4 1.9-.4 3.6 1.8 4.1z"/><path d="m248 115.5c.8-1.8-.3-2.9-1.9-3.6-2.5-1.1-5.2-1.8-7.9-2.1-1.7-.2-3 .3-3.3 2.1s.9 2.7 2.6 2.9c2.4.2 4.6.8 6.8 1.8 1.5.6 3 .6 3.7-1.1z"/><path d="m347.5 170.2c1.1-1.2 1-2.6-.2-3.6-1.9-1.8-3.9-3.6-5.9-5.3-.5-.5-1.1-.8-1.9-.7-.9.1-1.7.5-2.1 1.4-.5 1.1-.4 2.1.5 3 1.9 1.8 3.9 3.6 5.9 5.3 1.2 1 2.5 1.1 3.7-.1z"/><path d="m266.2 125.2c.5-.9.6-2-.2-2.7-2.2-1.9-4.7-3.1-7.1-4-1.4 0-2.2.5-2.7 1.5s-.3 2.1.5 2.7c2.2 1.4 4.6 2.6 7 3.7 1 .3 2-.3 2.5-1.2z"/></svg>