<?xml version="1.0" encoding="UTF-8"?>
<!-- Generator: Adobe Illustrator 25.4.1, SVG Export Plug-In . SVG Version: 6.00 Build 0)  -->
<svg xmlns="http://www.w3.org/2000/svg" xmlns:xlink="http://www.w3.org/1999/xlink" version="1.1" id="Capa_1" x="0px" y="0px" viewBox="0 0 512 512" style="enable-background:new 0 0 512 512;" xml:space="preserve" width="512" height="512">
<g>
	<g>
		<path d="M177.229,308.851c-20.802,1.654-41.171,3.489-56.223,19.123c-18.396-15.996-40.085-20.18-64.993-15.01    c-51.099-415.624,449.883-418.242,401.555-2.09c-24.191-0.248-47.125,1.127-65.323,17.595    c-14.708-14.073-32.849-20.028-54.485-18.697c7.567-82.942,1.174-190.401-51.547-258.327    c-56.594-46.885-93.813,53.114-102.231,96.547C173.34,201.189,170.366,255.036,177.229,308.851z"/>
		<path d="M121.773,339.39c10.504-18.448,41.94-27.712,66.882-20.597c5.513,1.131,23.092,7.453,14.515,14.251    c-35.757,24.943,6.219,107.861,32.446,129.788c49.18,45.052,115.731-104.811,73.581-129.663    c-9.168-7.655,10.431-13.992,16.543-14.859c24.78-6.459,48.134,2.224,65.658,19.991c17.751-20.273,60.766-31.96,81.289-8.837    c6.582,9.243-18.753,13.402-21.019,24.198c-33.36,73.377-85.945,150.384-175.153,156.8    c-107.491,13.86-175.663-68.217-215.067-155.42c-4.441-7.585-10.78-13.661-19.624-17.134c-4.172-1.638-4.198-4.621-2.678-7.81    C59.302,305.689,103.897,318.084,121.773,339.39z"/>
	</g>
	<g>
		<g>
			<path style="fill:#FFFFFF;" d="M148.925,422.697c-13.906-9-25.507-19.985-34.155-33.543c-4.299-6.739-7.035-13.874-6.842-21.786     c0.121-4.924,3.38-9.225,8.048-10.283c5.058-1.147,9.154,0.693,11.828,4.583c2.325,3.383,4.038,7.122,6.013,10.688     c1.635-4.133,2.868-8.424,5.015-12.283c1.567-2.817,3.884-5.734,6.71-7.366c2.504-1.446,6.852-2.409,9.135-1.332     c2.342,1.105,4.549,5.012,4.398,7.572c-0.467,7.91-1.647,15.844-3.36,23.617c-2.548,11.558-5.104,22.988-1.719,34.796     c0.455,1.588-0.62,3.549-0.987,5.337C151.647,422.697,150.286,422.697,148.925,422.697z"/>
			<g>
				<path style="fill:#FFFFFF;" d="M178.531,51.934c2.224,2.667-0.081,4.102-1.706,5.917c-7.871,8.794-16.484,17.155-23.245,26.633      c-12.234,17.15-17.66,36.44-17.72,57.018c-0.009,3.004,1.012,4.276,4.065,5.34c12.214,4.257,18.629,19.062,13.354,30.154      c-2.83,5.951-9.385,7.207-13.614,1.599c-4.051-5.372-6.194-11.983-9.026-18.108c-0.717-1.55-0.865-3.324-1.412-5.56      c-6.941,2.355-11.688,6.611-15.372,11.939c-5.756,8.326-9.283,17.46-10.38,27.272c-3.61,32.301,0.139,63.796,12.856,94.198      c1.883,4.503,4.665,8.683,6.961,13.044c0.504,0.957,0.707,2.047,1.049,3.076c-0.504,0.288-1.008,0.577-1.513,0.865      c-1.651-1.758-3.51-3.386-4.92-5.296c-8.626-11.681-13.372-24.923-17.442-38.342c-7.479-24.662-11.321-49.68-6.722-75.268      c1.964-10.925,6.918-20.849,15.137-28.797c5.248-5.075,12.146-8.701,19.348-13.702c-0.18-11.982,1.109-25.495,6.295-38.486      c8.396-21.03,20.835-39.347,41.132-52.442c0.366-0.236,0.56-0.697,0.834-1.054C177.169,51.934,177.85,51.934,178.531,51.934z       M136.956,154.556c-0.126,6.885,2.874,17.319,6.139,20.7c1.029,1.066,2.635,1.981,4.114,2.207      c0.656,0.1,1.999-1.559,2.436-2.627C153.051,166.535,146.879,156.534,136.956,154.556z"/>
				<g>
					<path style="fill:#FFFFFF;" d="M133.171,235.623c-5.393-0.033-9.324-3.716-9.203-8.624c0.123-5.031,4.755-9.416,9.975-9.446       c5.156-0.029,9.565,4.189,9.54,9.127C143.457,231.684,138.874,235.658,133.171,235.623z"/>
					<path style="fill:#FFFFFF;" d="M115.575,128.299c0.026,3.973-3.107,6.946-7.297,6.925c-4.187-0.021-7.437-3.025-7.437-6.874       c0-3.756,3.359-6.907,7.402-6.943C112.414,121.369,115.549,124.317,115.575,128.299z"/>
				</g>
			</g>
		</g>
		<g>
			<path style="fill:#FFFFFF;" d="M359.227,422.697c-0.367-1.788-1.442-3.749-0.987-5.337c3.385-11.808,0.846-23.24-1.724-34.795     c-1.695-7.62-2.638-15.399-3.538-23.144c-0.416-3.581,0.801-7.578,4.903-8.341c2.995-0.557,7.093,0.451,9.669,2.116     c7.022,4.54,8.345,12.125,10.701,19.749c1.611-3.198,2.906-6.137,4.527-8.914c3.396-5.816,8.433-8.341,13.492-6.985     c5.221,1.4,8.998,5.968,7.826,12.165c-1.285,6.795-3.363,13.786-6.841,19.839c-7.981,13.886-20.039,24.647-33.945,33.647     C361.949,422.697,360.588,422.697,359.227,422.697z"/>
			<g>
				<path style="fill:#FFFFFF;" d="M335.746,51.934c10.88,7.601,20.093,16.517,27.721,27.081      c13.506,18.706,20.466,39.052,20.469,61.474c0,1.713,0,3.425,0,4.871c23.18,8.75,32.934,26.004,35.436,47.105      c3.953,33.347-3.773,65.116-17.866,95.698c-2.234,4.848-5.636,9.254-8.694,13.752c-0.881,1.295-2.446,2.195-3.697,3.276      c-0.428-0.267-0.857-0.533-1.285-0.8c0.529-1.28,0.889-2.648,1.612-3.828c12.304-20.07,17.042-42.091,19.546-64.658      c1.86-16.759,2.089-33.536-1.942-50.072c-2.297-9.422-6.463-18.222-14.199-25.077c-2.616-2.318-5.889-4.007-9.461-6.382      c-1.45,4.904-2.145,9.102-3.942,12.852c-2.088,4.359-4.494,8.874-7.937,12.325c-4.424,4.434-9.932,2.948-12.548-2.553      c-5.276-11.091,1.14-25.897,13.354-30.154c3.052-1.064,4.079-2.335,4.061-5.34c-0.177-29.451-11.878-54.615-33.066-76.29      c-2.844-2.909-6.169-5.439-8.818-8.48c-0.949-1.09-0.561-3.17-0.783-4.798C334.385,51.934,335.066,51.934,335.746,51.934z       M376.686,155.25c-10.882,1.326-16.051,8.77-14.342,17.827c0.307,1.625,1.839,3.054,2.805,4.573      c1.455-0.94,3.703-1.599,4.232-2.866C372.061,168.36,374.295,161.777,376.686,155.25z"/>
				<g>
					<path style="fill:#FFFFFF;" d="M378.721,235.614c-5.703-0.118-10.152-4.249-9.961-9.249c0.19-4.974,4.725-9.017,9.876-8.805       c5.215,0.215,9.711,4.76,9.647,9.755C388.22,232.199,384.157,235.726,378.721,235.614z"/>
					<path style="fill:#FFFFFF;" d="M403.875,121.404c4.042-0.018,7.458,3.088,7.519,6.837c0.063,3.854-3.127,6.895-7.318,6.977       c-4.192,0.082-7.386-2.85-7.418-6.81C396.624,124.436,399.73,121.423,403.875,121.404z"/>
				</g>
			</g>
		</g>
	</g>
</g>















</svg>
