<?xml version="1.0" encoding="UTF-8"?>
<!-- Generator: Adobe Illustrator 25.3.1, SVG Export Plug-In . SVG Version: 6.00 Build 0)  -->
<svg xmlns="http://www.w3.org/2000/svg" xmlns:xlink="http://www.w3.org/1999/xlink" version="1.1" id="Capa_1" x="0px" y="0px" viewBox="0 0 512.163 512.163" style="enable-background:new 0 0 512.163 512.163;" xml:space="preserve" width="512" height="512">
<g>
	<path style="fill:#FFFFFF;" d="M256.108,512.156c-104.01,0.838-201.045-65.741-238.375-162.494   c-44.161-110.825-3.21-241.018,96.465-306.574c170.591-112.606,397.038,8.468,397.908,213.069   c0.161,63.462-23.93,125.586-66.659,172.285c-0.838,1.298-1.932,2.482-3.211,3.463C394.666,482.766,325.724,512.53,256.108,512.156   z"/>
	<g>
		<g>
			<path style="fill:#564BB7;" d="M482.759,340.076c-11.077,29.933-28.055,57.661-49.888,81.013     c-0.19,0.214-0.384,0.431-0.598,0.644c-7.865,8.417-16.305,16.236-25.273,23.434c-11.967,9.542-24.739,18.005-38.336,25.181     c-5.078,2.713-10.207,5.18-15.477,7.52h-0.023c-13.639,6.023-28.039,10.841-42.751,14.235     c-50.649,11.914-105.915,6.633-152.928-14.442c-0.414-0.161-0.805-0.345-1.196-0.529c-10.9-4.898-21.364-10.555-31.322-16.972     c-0.322-0.184-0.644-0.391-0.966-0.621c-9.13-5.91-17.845-12.395-26.055-19.478c-0.299-0.23-0.621-0.506-0.92-0.805     c-4.142-3.569-8.201-7.294-12.084-11.172c-0.794-0.792-50.878-72.613-56.147-86.564c-0.161-0.368-0.299-0.736-0.414-1.104     C-35.329,166.435,110.199-11.57,293.718,16.967c0.069,0,0.115,0,0.161,0.023c44.842,6.759,85.789,26.593,119.029,55.238     C465.182,117.275,490.236,319.869,482.759,340.076z"/>
			<g style="opacity:0.54;">
				<path style="opacity:0.42;fill:#9F6DA4;" d="M497.722,256.156c-0.001,6.452-0.258,12.879-0.782,19.271      c-0.023,0.575-0.069,1.127-0.138,1.679c-4.41,53.473-27.36,104.867-63.931,143.982c-0.19,0.214-0.384,0.431-0.598,0.644      c-7.865,8.417-16.305,16.236-25.273,23.434c-11.967,9.542-24.739,18.005-38.336,25.181c-5.078,2.713-10.207,5.18-15.477,7.52      h-0.023c-13.639,6.023-28.039,10.841-42.751,14.235c-50.649,11.914-105.915,6.633-152.928-14.442      c-0.414-0.161-0.805-0.345-1.196-0.529c-10.9-4.898-21.364-10.555-31.322-16.972c-0.322-0.184-0.644-0.391-0.966-0.621      c-9.13-5.91-17.845-12.395-26.055-19.478c-0.299-0.23-0.621-0.506-0.92-0.805c-4.988-4.298-9.857-8.823-14.442-13.568      c-0.391-0.391-0.782-0.782-1.104-1.173c-0.713-0.69-1.38-1.38-2.047-2.092c-9.538-10.096-18.207-21.002-25.894-32.632      c-1.597-2.374-3.133-4.815-4.622-7.244c-0.23-0.322-0.437-0.667-0.621-1.012c-7.709-12.623-14.232-26.062-19.501-40.014      c-0.161-0.368-0.299-0.736-0.414-1.104C-1.529,261.59,13.984,167.83,67.774,103.158      c32.665,30.873,127.398-48.946,168.452-57.628c28.627-9.076,61.503-10.259,88.33,4.598h0.023      c45.379,25.389,46.768,70.649,27.619,114.547c0,0.023-0.023,0.023-0.023,0.023c-2.626,6.389-5.541,12.698-8.463,18.972      c-7.125,16.751-29.065,56.464-16.213,72.141c6.026,7.52,17.777,8.141,26.47,4.002c8.67-4.162,14.971-11.958,20.858-19.593      c6.117-7.934,12.096-15.96,18.121-23.963c0.299-0.437,0.621-0.874,0.966-1.288c21.437-28.603,43.419-57.323,71.428-79.867      C485.947,170.7,497.722,212.048,497.722,256.156z"/>
				<path style="opacity:0.57;fill:#9F6DA4;" d="M497.561,264.849c-0.138,3.542-0.322,7.083-0.621,10.579      c-0.023,0.575-0.069,1.127-0.138,1.679c-4.41,53.473-27.36,104.867-63.931,143.982c-0.19,0.214-0.384,0.431-0.598,0.644      c-7.865,8.417-16.305,16.236-25.273,23.434c-11.967,9.542-24.739,18.005-38.336,25.181c-5.078,2.713-10.207,5.18-15.477,7.52      h-0.023c-13.639,6.023-28.039,10.841-42.751,14.235c-50.649,11.914-105.915,6.633-152.928-14.442      c-0.414-0.161-0.805-0.345-1.196-0.529c-10.9-4.898-21.364-10.555-31.322-16.972c-0.322-0.184-0.644-0.391-0.966-0.621      c-9.13-5.91-17.845-12.395-26.055-19.478c-0.299-0.23-0.621-0.506-0.92-0.805c-4.988-4.298-9.857-8.823-14.442-13.568      c-0.391-0.391-0.782-0.782-1.104-1.173c-0.713-0.69-1.38-1.38-2.047-2.092c-9.538-10.096-18.207-21.002-25.894-32.632      c-1.597-2.374-3.133-4.815-4.622-7.244c-0.23-0.322-0.437-0.667-0.621-1.012c-7.709-12.623-14.232-26.062-19.501-40.014      c-0.161-0.368-0.299-0.736-0.414-1.104C14.609,303.584,10.195,262.782,15.48,223.73c0.698,0.536,1.442,1.003,2.208,1.449      c0.414,0.207,0.828,0.414,1.242,0.575c13.532,5.606,30.025-5.484,41.762-11.797c50.887-29.521,98.089-77.556,160.172-78.143      c36.112-0.302,75.326,22.357,80.925,59.999c4.048,25.572-6.991,52.248-20.973,75.291c-8.418,13.667-19.497,29.478-17.018,45.856      c0.759,4.07,2.645,7.819,6.002,10.969c11.912,11.176,31.391,3.335,44.706-6.14c24.731-17.589,46.598-39.561,73.682-53.237      c20.37-10.295,43.249-15.522,66.047-15.155C469.26,253.664,485.086,257.021,497.561,264.849z"/>
				<path style="opacity:0.42;fill:#9F6DA4;" d="M362.984,473.268c-3.22,1.61-6.485,3.128-9.797,4.599h-0.023      c-12.303,5.427-25.135,9.866-38.382,13.177c-1.449,0.368-2.898,0.736-4.369,1.058c-1.311,0.322-2.622,0.598-3.955,0.897      c-4.852,1.035-9.751,1.931-14.718,2.667c-11.82,1.771-23.917,2.691-36.22,2.691c-24.63,0-48.385-3.68-70.761-10.532      c-9.337-2.852-18.443-6.232-27.274-10.165c-0.414-0.161-0.805-0.345-1.196-0.529c-10.9-4.898-21.364-10.555-31.322-16.972      c-0.322-0.184-0.644-0.391-0.966-0.621c-9.13-5.91-17.845-12.395-26.055-19.478c-0.299-0.23-0.621-0.506-0.92-0.805      c-3.023-2.589-8.87-8.148-12.137-11.307c-1.232-1.191-2.097-2.041-2.305-2.262c-0.391-0.391-0.782-0.782-1.104-1.173      c-0.713-0.69-1.38-1.38-2.047-2.092c-0.276-0.276-0.529-0.552-0.782-0.828c-9.222-9.866-17.639-20.49-25.112-31.805      c-0.345-0.483-0.667-0.989-0.989-1.495c-1.242-1.908-2.461-3.817-3.633-5.749c-0.23-0.322-0.437-0.667-0.621-1.012      c-0.299-0.46-13.453-24.538-18.305-36.91c-0.414-1.035-0.805-2.07-1.196-3.104c-0.161-0.368-0.299-0.736-0.414-1.104      c-3.496-9.405-6.416-19.087-8.739-29.022c-0.092-0.368-0.184-0.759-0.276-1.15c-2.438-10.67-4.162-21.617-5.128-32.793      c0.46,0.322,0.943,0.644,1.449,0.966c16.282,10.279,37.715,4.714,55.33-3.059c0.069-0.023,0.161-0.069,0.23-0.092      c0.92-0.414,1.817-0.828,2.737-1.242c26.446-12.004,51.674-27.964,80.305-32.632c29.712-4.852,65.472,7.451,74.303,36.22      c4.461,14.557,1.15,29.804-5.404,43.901c-0.414,0.897-0.851,1.817-1.311,2.714c-2.852,5.68-6.186,11.153-9.705,16.282      c-12.694,18.512-28.355,35.829-34.472,57.423c-6.117,21.594,1.771,49.535,23.227,56.112c3.312,1.012,6.692,1.449,10.073,1.426      c0.391,0,0.782-0.023,1.173-0.023c10.119-0.414,20.237-4.852,28.907-10.463c5.657-3.68,10.969-7.842,16.144-12.211      c0.299-0.253,0.598-0.506,0.897-0.759c8.026-6.807,15.799-14.028,24.147-20.444c14.051-10.762,30.862-19.547,48.523-18.512      c8.693,0.506,17.639,3.702,23.158,10.441c4.691,5.703,6.209,12.533,6.393,19.892c0.184,7.336-0.92,15.178-1.495,22.882      c-0.046,0.414-0.069,0.828-0.069,1.219c-0.552,7.727-0.391,15.27,2.323,21.985c0.161,0.391,0.345,0.805,0.529,1.196      C362.018,471.543,362.478,472.417,362.984,473.268z"/>
			</g>
		</g>
		<path style="fill:#FDBC08;" d="M396.63,344.414c6.593,6.593,6.593,17.284,0,23.877c-6.594,6.594-17.284,6.594-23.878,0    c-6.594-6.593-6.594-17.284,0-23.877C379.346,337.82,390.036,337.82,396.63,344.414z"/>
		<g>
			<path style="fill:#5F2183;" d="M352.658,90.579l-42.084-16.581l16.604,42.061L299.007,80.69l-6.692,44.706L285.6,80.69     l-28.148,35.369l16.581-42.061l-42.061,16.581l35.369-28.148l-44.706-6.692l44.706-6.715l-10.602-8.44l-24.768-19.708     l42.061,16.58l-9.199-23.319c2.3,0.092,4.576,0.207,6.876,0.368c0.345,0.023,0.667,0.046,1.012,0.069l12.878,16.19l2.208-14.672     c1.978,0.253,3.955,0.552,5.91,0.874c0.069,0,0.115,0,0.161,0.023c0.161,0,0.322,0.046,0.483,0.069     c0.897,0.138,1.794,0.299,2.668,0.46l1.978,13.246l8.877-11.131c2.99,0.644,5.956,1.357,8.877,2.139l-6.186,15.684l25.135-9.912     c1.978,0.69,3.932,1.403,5.864,2.139l-22.307,17.754l-2.001,1.587l7.267,1.081l0.046,0.023l37.416,5.611l-23.917,3.587     l-20.812,3.105L352.658,90.579z"/>
			<path style="fill:#5F2183;" d="M50.021,219.798l-6.393-2.53l1.886,4.807l14.695,37.255l-26.216-32.954l-1.932-2.415l-0.437,2.92     l-6.278,41.785l-6.416-42.912l-0.276-1.794l-0.966,1.219l-2.829,3.542c0.184-1.679,0.391-3.334,0.621-4.99     c2.714-20.237,7.911-39.715,15.316-58.067l1.265,8.371l28.148-35.369l-16.581,42.061l42.061-16.58L50.32,192.294l36.059,5.404     l8.647,1.288l-13.614,2.047l-31.092,4.669l10.372,8.256l24.997,19.892L50.021,219.798z"/>
			<path style="fill:#5F2183;" d="M433.285,420.927l-0.989,0.782l-0.023,0.023l-34.357,27.343l3.381,0.506     c-10.28,7.75-21.18,14.718-32.632,20.766c-0.575,0.322-1.173,0.621-1.748,0.92c-1.311,0.69-2.622,1.357-3.932,2.001     c-3.22,1.61-6.485,3.128-9.797,4.599l1.495-3.817l-42.061,16.58l35.369-28.148l-44.706-6.715l44.706-6.692l-35.369-28.148     l42.061,16.581l-16.581-42.061l22.238,27.941l5.91,7.428l6.692-44.706l6.715,44.706l28.148-35.369l-16.581,42.061l41.647-16.42     L433.285,420.927z"/>
		</g>
		<g style="opacity:0.33;">
			<g>
				<path style="fill:#F3C7D1;" d="M407,445.166c-0.368,0.276-0.736,0.575-1.081,0.851c-8.785-2.967-19.179-3.818-30.195-2.231      c-5.703,0.805-11.36,2.139-16.949,3.702c-4.53,1.242-8.992,2.645-13.407,4.024c-6.669,2.07-13.568,4.231-20.49,5.841      c-14.649,3.426-35.484,5.289-51.444-5.312c-7.589-5.06-12.763-11.844-16.213-19.271c-8.785-18.881-6.508-41.831-5.243-50.294      c1.173-7.842,2.921-15.753,4.599-23.434c3.702-16.903,7.52-34.403,5.519-51.72c-4.415-38.037-38.911-70.784-80.259-76.165      c-36.956-4.83-77.959,11.268-107.073,42.015c-0.253,0.276-0.529,0.552-0.782,0.851c-2.139,2.277-4.3,4.645-6.393,6.968      c-13.039,14.465-26.515,29.436-45.373,30.378c-0.851,0.046-1.725,0.046-2.576,0.023c-0.092-0.368-0.184-0.759-0.276-1.15      c0.92,0.023,1.84,0.023,2.783-0.023c18.397-0.92,31.713-15.707,44.591-29.988c1.472-1.656,2.99-3.312,4.507-4.967      c0.897-0.989,1.794-1.955,2.691-2.898c29.344-31,70.761-47.236,108.062-42.36c41.831,5.473,76.763,38.658,81.248,77.177      c0.092,0.851,0.184,1.679,0.253,2.506c0.207,2.438,0.299,4.852,0.299,7.267c0.046,14.281-3.059,28.493-6.094,42.337      c-1.679,7.658-3.426,15.569-4.599,23.365c-1.242,8.302-3.473,30.816,5.013,49.351c3.38,7.359,8.463,14.097,15.96,19.064      c15.615,10.372,36.105,8.532,50.547,5.174c6.876-1.61,13.752-3.771,20.398-5.841c4.53-1.426,9.153-2.852,13.821-4.139      c5.496-1.518,11.084-2.806,16.719-3.61C387.061,441.027,397.893,441.947,407,445.166z"/>
			</g>
			<g>
				<path style="fill:#F3C7D1;" d="M368.664,470.348c-0.575,0.322-1.173,0.621-1.748,0.92c-1.748-0.253-3.518-0.437-5.289-0.598      c-24.791-2.162-49.811,4.393-74.096,10.74c-5.611,1.472-11.406,2.99-17.087,4.346c-9.406,2.3-19.409,4.323-29.045,2.024      c-12.257-2.921-23.25-13.361-28.677-27.251c-0.644-1.679-1.219-3.358-1.725-5.06c-3.61-12.326-3.358-25.112-2.645-35.208      c1.127-15.937,3.978-31.943,6.738-47.419c2.829-15.891,5.749-32.265,6.784-48.615c0.092-1.357,0.161-2.737,0.23-4.116      c1.058-24.193-4.001-42.222-15.063-53.605c-18.811-19.34-51.559-16.167-74.211-3.036c-16.144,9.382-29.551,22.997-42.521,36.174      c-5.68,5.772-11.544,11.751-17.593,17.294c-15.362,14.097-30.08,22.353-43.924,24.584c-0.161-0.368-0.299-0.736-0.414-1.104      c13.683-2.139,28.286-10.256,43.556-24.308c6.025-5.542,11.889-11.498,17.57-17.27c13.016-13.223,26.469-26.906,42.751-36.358      c23.043-13.361,56.388-16.535,75.613,3.219c11.291,11.613,16.466,29.942,15.385,54.456c-0.023,0.46-0.046,0.897-0.069,1.357      c-0.874,17.34-3.955,34.702-6.968,51.513c-2.76,15.454-5.611,31.437-6.715,47.327c-0.713,10.073-0.966,22.859,2.668,35.093      c0.483,1.564,1.012,3.128,1.61,4.669c5.289,13.545,15.983,23.71,27.895,26.561c9.383,2.23,19.225,0.23,28.493-2.024      c5.68-1.38,11.475-2.898,17.064-4.347c24.17-6.324,49.075-12.832,73.866-10.831      C363.628,469.658,366.157,469.957,368.664,470.348z"/>
			</g>
			<g>
				<path style="fill:#F3C7D1;" d="M186.001,346.533c-1.932,16.834-5.381,33.621-10.303,49.857      c-1.817,6.025-3.863,12.073-5.841,17.937c-3.886,11.475-7.911,23.342-10.326,35.392c-2.001,9.889-2.668,19.272-2.047,27.941      c-0.414-0.161-0.805-0.345-1.196-0.529c-0.552-8.601,0.138-17.868,2.116-27.642c2.438-12.119,6.462-24.031,10.349-35.53      c2.001-5.841,4.047-11.89,5.841-17.892c4.898-16.189,8.348-32.885,10.28-49.673c2.576-22.537-1.679-37.761-12.648-45.235      c-6.508-4.438-14.097-5.105-19.317-4.852c-24.515,1.127-43.257,22.192-55.215,37.945c-1.61,2.116-3.22,4.255-4.829,6.416      c-12.372,16.557-25.135,33.667-43.947,41.877c-0.23-0.322-0.437-0.667-0.621-1.012c18.627-8.026,31.345-25.066,43.648-41.555      c1.61-2.162,3.22-4.3,4.829-6.439c12.096-15.937,31.092-37.232,56.089-38.382c5.404-0.253,13.246,0.414,20.007,5.036      C184.23,307.944,188.645,323.536,186.001,346.533z"/>
			</g>
			<g>
				<path style="fill:#F3C7D1;" d="M159.991,374.75c-1.403,24.63-13.752,46.798-25.687,68.255      c-3.151,5.611-6.347,11.337-9.337,17.155c-0.322-0.184-0.644-0.391-0.966-0.621c2.99-5.772,6.163-11.498,9.291-17.11      c11.866-21.318,24.147-43.372,25.549-67.749c0.46-8.072-0.506-14.603-2.944-19.915c-3.013-6.577-8.67-11.36-14.741-12.487      c-12.05-2.254-22.445,8.716-29.068,18.328c-8.532,12.372-15.845,25.664-21.732,39.508c-0.529,1.196-1.035,2.415-1.541,3.611      c-2.691,6.462-5.427,13.039-9.383,18.697c-0.276-0.276-0.529-0.552-0.782-0.828c3.794-5.542,6.485-11.982,9.107-18.306      c0.506-1.219,1.012-2.414,1.518-3.611c5.933-13.913,13.292-27.274,21.87-39.715c6.807-9.889,17.616-21.18,30.241-18.811      c6.416,1.196,12.372,6.232,15.546,13.131C159.462,359.779,160.451,366.471,159.991,374.75z"/>
			</g>
		</g>
		<g>
			<path style="fill:#95ABD3;" d="M496.94,275.427c-0.023,0.575-0.069,1.127-0.138,1.679c-13.821-7.405-28.148-15.362-42.567-23.71     c-11.958-6.876-23.986-14.028-35.875-21.295c-8.509-5.197-17.018-10.51-25.411-15.845     c-17.018-10.808-33.644-21.824-49.236-32.586c-20.513-14.143-39.232-27.872-54.686-40.267c0.276-0.483,0.552-0.966,0.851-1.449     c14.787,11.867,33.069,25.504,54.502,40.291c15.017,10.372,31.598,21.364,49.535,32.724c8.141,5.174,16.581,10.441,25.296,15.753     c13.246,8.095,26.055,15.707,38.382,22.79C471.367,261.445,484.522,268.758,496.94,275.427z"/>
			<g>
				<path style="fill:#95ABD3;" d="M497.722,256.156c-0.001,6.452-0.258,12.879-0.782,19.271c-0.023,0.575-0.069,1.127-0.138,1.679      c-0.364,4.346-0.85,8.693-1.456,13.028c-0.303,2.163-3.635,4.323-3.997,6.479c-0.328,1.953,2.32,3.902,1.944,5.846      c-2.525,13.048-6.132,25.882-10.748,38.164c-120.798,65.391-254.166-56.095-201.129-182.204      c22.146-51.662,74.827-86.699,131.61-86.237C466.4,118.132,497.593,183.756,497.722,256.156z"/>
				<g>
					<path style="fill:#F3C7D1;" d="M457.592,253.511c-12.326-7.083-25.135-14.695-38.382-22.79       c-8.716-5.312-17.156-10.579-25.296-15.753c-17.937-11.36-34.518-22.353-49.535-32.724       c-21.433-14.787-39.715-28.424-54.502-40.291c-30.241-24.331-45.626-41.509-42.291-46.959c0.828-1.334,2.783-2,5.772-2       c9.751,0,30.494,6.899,59.378,20.007c0.414-0.414,0.851-0.828,1.288-1.242c-36.749-16.834-63.333-24.974-67.817-17.615       c-4.3,7.06,13.338,25.664,42.82,49.259c15.454,12.395,34.173,26.124,54.686,40.267c15.592,10.762,32.218,21.778,49.236,32.586       c8.394,5.335,16.903,10.647,25.411,15.845c11.889,7.267,23.917,14.419,35.875,21.295c14.419,8.348,28.746,16.304,42.567,23.71       c0.069-0.552,0.115-1.104,0.138-1.679C484.522,268.758,471.367,261.445,457.592,253.511z"/>
				</g>
			</g>
			<g>
				<path style="fill:#F3C7D1;" d="M311.885,184.904c0,6.053-4.907,10.96-10.96,10.96c-6.053,0-10.96-4.907-10.96-10.96      c0-6.053,4.907-10.96,10.96-10.96C306.977,173.944,311.885,178.851,311.885,184.904z"/>
				<circle style="fill:#F3C7D1;" cx="356.156" cy="169.599" r="6.31"/>
				<circle style="fill:#F3C7D1;" cx="356.156" cy="228.314" r="6.31"/>
				<path style="fill:#F3C7D1;" d="M495.33,290.145c-0.575,4.162-1.242,8.302-2.047,12.395c-1.104-0.253-2.139-0.805-3.013-1.656      c-2.484-2.46-2.484-6.462,0-8.923C491.651,290.582,493.513,289.961,495.33,290.145z"/>
				<path style="fill:#F3C7D1;" d="M406.122,198.898c2.464,2.464,2.464,6.46,0,8.924c-2.464,2.465-6.46,2.465-8.924,0      c-2.464-2.464-2.464-6.46,0-8.924C399.662,196.433,403.658,196.433,406.122,198.898z"/>
				<path style="fill:#F3C7D1;" d="M470.709,222.971c2.464,2.465,2.464,6.46,0,8.924c-2.464,2.464-6.46,2.464-8.924,0      c-2.464-2.464-2.464-6.46,0-8.924C464.249,220.507,468.245,220.507,470.709,222.971z"/>
				<path style="fill:#F3C7D1;" d="M395.789,166.369c1.459,1.459,1.459,3.825,0,5.284c-1.459,1.459-3.825,1.459-5.284,0      c-1.459-1.459-1.459-3.825,0-5.284C391.964,164.91,394.329,164.91,395.789,166.369z"/>
				<path style="fill:#F3C7D1;" d="M445.109,215.69c1.459,1.459,1.459,3.825,0,5.284c-1.459,1.459-3.825,1.459-5.284,0      c-1.459-1.459-1.459-3.825,0-5.284C441.284,214.231,443.65,214.231,445.109,215.69z"/>
				<path style="fill:#F3C7D1;" d="M455.443,264.659c1.459,1.459,1.459,3.825,0,5.284c-1.459,1.459-3.825,1.459-5.284,0      c-1.459-1.459-1.459-3.825,0-5.284C451.618,263.2,453.984,263.2,455.443,264.659z"/>
				<path style="fill:#F3C7D1;" d="M413.755,239.998c1.459,1.459,1.459,3.825,0,5.284c-1.459,1.459-3.825,1.459-5.284,0      c-1.459-1.459-1.459-3.825,0-5.284C409.93,238.539,412.296,238.539,413.755,239.998z"/>
				<path style="fill:#F3C7D1;" d="M413.755,261.136c1.459,1.459,1.459,3.825,0,5.284c-1.459,1.459-3.825,1.459-5.284,0      c-1.459-1.459-1.459-3.825,0-5.284C409.93,259.677,412.296,259.677,413.755,261.136z"/>
			</g>
		</g>
		<g>
			<path style="fill:#FF8933;" d="M137.777,383.42c-4.714,20.398-19.708,35.76-38.244,41.854c-0.161,0.046-0.345,0.115-0.529,0.161     c-0.184,0.069-0.368,0.138-0.552,0.184c-4.346,1.334-8.9,2.162-13.545,2.438c-0.782-0.782-1.564-1.564-2.323-2.369     c-0.391-0.391-0.782-0.782-1.104-1.173c-0.713-0.69-1.38-1.38-2.047-2.092c-9.538-10.096-18.207-21.002-25.894-32.632     c-1.597-2.374-3.133-4.815-4.622-7.244c-0.23-0.322-0.437-0.667-0.621-1.012c-7.142-11.696-13.237-24.035-18.305-36.91     c5.961-11.953,15.809-21.214,27.596-26.63c4.43-2.045,9.197-3.517,14.074-4.369c4.793-0.836,9.848-1.11,14.833-0.644     c4.838,0.404,9.905,1.502,14.488,3.151c0.368,0.115,0.713,0.253,1.058,0.391C128.624,326.572,144.331,354.973,137.777,383.42z"/>
			<path style="fill:#FDBC08;" d="M82.584,425.688c-0.391-0.391-0.782-0.782-1.104-1.173c-0.529-15.454-0.506-33.046-0.023-50.248     c0.621-21.548,1.978-43.648,3.955-61.355c0.368,0.023,0.736,0.046,1.081,0.092c-1.84,16.19-3.335,37.14-4.024,61.287     C81.963,393.745,82.055,411.154,82.584,425.688z"/>
			<g>
				<path style="fill:#F3C7D1;" d="M101.419,306.151c-1.403-18.605-3.564-28.378-6.462-29.045c-0.092-0.023-0.184-0.046-0.276-0.046      c-1.978-0.046-3.794,4.094-5.427,11.107c-1.426,6.255-2.737,14.787-3.84,24.722v0.023c-1.978,17.707-3.335,39.807-3.955,61.355      c-0.483,17.201-0.506,34.794,0.023,50.248c0.322,0.391,0.713,0.782,1.104,1.173c-0.529-14.534-0.621-31.942-0.115-51.398      c0.69-24.147,2.185-45.097,4.024-61.287v-0.023c2.461-21.893,5.588-34.932,8.141-34.863c0.621-0.023,3.771,1.449,5.749,28.102      c0.207,3.128,0.414,6.462,0.598,9.912c0,0.023,0,0.023,0,0.046c0.368,0.115,0.736,0.23,1.058,0.368v-0.023      C101.879,312.889,101.672,309.416,101.419,306.151z M99.004,425.435c-0.184,0.069-0.368,0.115-0.552,0.138      c0,0.023,0,0.023,0,0.046c-0.414,4.829-0.897,9.359-1.426,13.637c0.299,0.299,0.621,0.575,0.92,0.805      c0.575-4.599,1.104-9.566,1.587-14.787C99.372,425.32,99.188,425.389,99.004,425.435z"/>
			</g>
			<g>
				<path style="fill:#F3C7D1;" d="M71.5,310.911c-1.242-18.605-3.243-28.378-5.979-28.999c-0.069-0.023-0.161-0.023-0.23-0.046      c-1.725-0.046-3.335,3.633-4.806,10.003c-1.495,6.462-2.852,15.753-4.001,26.653c-1.817,17.569-3.105,39.347-3.702,60.55      c-0.092,3.105-0.161,6.186-0.23,9.222c0.322,0.506,0.644,1.012,0.989,1.495c0.069-3.519,0.138-7.083,0.253-10.694      c0.667-24.032,2.093-44.936,3.794-61.079v-0.023c2.346-22.054,5.289-35.208,7.658-35.116c0.552,0,3.496,1.426,5.266,28.125      c0.046,0.92,0.115,1.84,0.161,2.806c0.345-0.069,0.667-0.138,0.989-0.184C71.615,312.705,71.546,311.808,71.5,310.911z"/>
			</g>
		</g>
		<g>
			<g>
				<path style="fill:#FF5382;" d="M199.262,255.218c0,0,24.286,50.488,43.007,37.897c20.191-13.579-19.646-58.876-19.646-58.876      l1.542,13.514l-25.631-23.675l13.049,36.204L199.262,255.218z"/>
				<path style="fill:#F3C7D1;" d="M237.512,273.368c5.336,1.404,8.523,6.868,7.119,12.203c-1.404,5.336-6.868,8.523-12.203,7.119      c-5.336-1.404-8.523-6.868-7.119-12.203C226.713,275.152,232.176,271.964,237.512,273.368z"/>
			</g>
			<g>
				<path style="fill:#FF5382;" d="M181.256,324.893c0,0,24.286,50.488,43.007,37.897c20.191-13.579-19.646-58.876-19.646-58.876      l1.542,13.514l-25.631-23.675l13.049,36.204L181.256,324.893z"/>
				<path style="fill:#F3C7D1;" d="M219.506,343.043c5.336,1.404,8.523,6.868,7.119,12.203c-1.404,5.336-6.868,8.523-12.203,7.119      c-5.336-1.404-8.523-6.868-7.119-12.203C208.707,344.827,214.17,341.639,219.506,343.043z"/>
			</g>
			<g>
				<path style="fill:#FF5382;" d="M248.582,347.596c0,0,24.286,50.488,43.007,37.897c20.191-13.579-19.646-58.876-19.646-58.876      l1.542,13.514l-25.631-23.675l13.049,36.204L248.582,347.596z"/>
				<path style="fill:#F3C7D1;" d="M286.833,365.747c5.336,1.404,8.523,6.868,7.119,12.203c-1.404,5.336-6.868,8.523-12.203,7.119      c-5.336-1.404-8.523-6.868-7.119-12.203C276.033,367.53,281.497,364.343,286.833,365.747z"/>
			</g>
		</g>
		<g>
			<path style="fill:#FDBC08;" d="M224.399,428.18c6.594,6.594,6.594,17.284,0,23.878c-6.593,6.593-17.284,6.593-23.877,0     c-6.594-6.594-6.594-17.284,0-23.878C207.115,421.587,217.805,421.587,224.399,428.18z"/>
			<path style="fill:#FDBC08;" d="M134.369,221.503c6.594,6.594,6.594,17.284,0,23.878s-17.284,6.594-23.878,0     c-6.594-6.594-6.594-17.284,0-23.878C117.085,214.91,127.775,214.91,134.369,221.503z"/>
			<path style="fill:#FDBC08;" d="M391.15,68.061c6.594,6.594,6.594,17.284,0,23.878c-6.594,6.594-17.284,6.594-23.878,0     c-6.594-6.594-6.594-17.284,0-23.878C373.866,61.467,384.556,61.467,391.15,68.061z"/>
		</g>
		<g>
			<path style="fill:#9F6DA4;" d="M183.94,139.455c-2.837-5.484-6.459-10.28-10.602-14.056c-0.948-0.871-2.088-1.55-2.883-1.43     c-0.746,0.12-1.185,0.881-1.251,2.296c-0.089,1.345,0.225,3.018,0.424,4.639c0.259,1.607,0.509,3.221,0.881,4.793     c2.761,12.638,8.839,24.041,17.016,31.613c2.03,1.939,4.13,3.57,6.303,4.125c2.141,0.598,4.037-0.382,4.985-2.644     c0.982-2.271,1.074-5.523,0.823-8.608c-0.332-3.18-0.779-6.468-1.436-9.622c-2.522-12.712-7.541-24.571-14.411-34.139     c-3.444-4.648-7.283-9.546-11.493-11.346c-2.098-0.839-4.138-0.679-5.931,0.713c-1.805,1.364-3.331,3.73-4.447,6.387     c-2.316,5.424-3.128,11.817-2.857,18.17c0.268,6.375,1.522,12.747,3.368,18.809c3.746,12.174,9.383,23.445,16.32,33.01     c1.732,2.399,3.553,4.69,5.46,6.853c1.917,2.183,3.841,4.248,5.895,5.964c4.062,3.41,8.844,5.91,13.077,4.771     c2.095-0.51,3.994-1.988,5.408-4.099c1.433-2.117,2.407-4.902,3.04-7.874c0.635-2.984,0.939-6.168,1.051-9.384     c0.066-3.218-0.008-6.572-0.118-9.846c-0.286-6.588-1.072-13.125-2.143-19.58c-1.221-6.408-2.658-12.765-4.62-18.87     c-1.965-6.09-4.165-12.08-6.87-17.687c-1.251-2.884-2.788-5.53-4.196-8.282c-1.57-2.6-3.035-5.312-4.752-7.756     c-3.264-5.076-6.959-9.654-10.841-13.912c-3.877-4.282-8.032-8.147-12.502-10.988c-4.443-2.806-9.364-4.565-14.139-4.015     c-4.779,0.498-9.515,3.232-12.579,7.849c-1.489,2.346-2.518,5.083-3.006,8.153c-0.506,3.059-0.584,6.318-0.552,9.636     c0.091,6.657,0.537,13.305,1.297,19.897c3.077,26.362,11.818,51.705,25.19,72.169c0.24,0.365,0.207,0.915-0.074,1.227     c-0.277,0.308-0.694,0.267-0.936-0.083c-13.895-20.319-23.266-45.821-26.889-72.74c-0.873-6.739-1.381-13.557-1.548-20.397     c-0.064-3.421-0.034-6.959,0.515-10.522c0.519-3.559,1.77-7.095,3.574-9.972c3.709-5.711,9.176-8.876,14.695-9.571     c5.623-0.724,11.102,1.217,15.987,4.185c4.9,3.016,9.291,7.018,13.367,11.395c4.079,4.392,7.937,9.161,11.361,14.419     c1.795,2.539,3.336,5.347,4.978,8.049c1.48,2.853,3.086,5.604,4.402,8.595c2.836,5.822,5.154,12.041,7.223,18.376     c2.066,6.35,3.594,12.967,4.89,19.649c1.145,6.731,1.991,13.559,2.316,20.455c0.129,3.461,0.221,6.866,0.16,10.392     c-0.111,3.522-0.426,7.082-1.161,10.616c-0.739,3.51-1.908,7.069-3.899,10.06c-1.97,2.986-4.763,5.205-7.78,5.94     c-3.023,0.828-6.038,0.218-8.752-0.857c-2.708-1.154-5.196-2.816-7.493-4.76c-2.313-1.95-4.395-4.21-6.376-6.48     c-2-2.284-3.909-4.702-5.725-7.231c-7.274-10.108-13.138-21.893-17.078-34.809c-1.951-6.484-3.31-13.365-3.595-20.483     c-0.288-7.074,0.635-14.529,3.401-20.957c1.382-3.219,3.259-6.289,5.961-8.346c1.335-1.016,2.918-1.703,4.507-1.855     c1.593-0.167,3.171,0.148,4.601,0.746c2.859,1.243,5.206,3.37,7.295,5.64c2.037,2.304,3.988,4.67,5.772,7.272     c7.211,10.28,12.395,22.886,14.946,36.36c0.666,3.375,1.102,6.753,1.434,10.264c0.218,3.552,0.252,7.423-1.319,11.132     c-0.777,1.829-2.126,3.391-3.674,4.164c-1.568,0.809-3.257,0.795-4.722,0.397c-2.947-0.82-5.381-2.861-7.482-4.945     c-8.623-8.356-14.823-20.584-17.524-33.979c-0.364-1.666-0.603-3.375-0.847-5.074c-0.171-1.707-0.503-3.362-0.372-5.405     c0.067-0.986,0.265-2.11,0.841-3.103c0.563-0.996,1.501-1.63,2.422-1.728c1.845-0.102,3.131,0.999,4.279,2.019     c4.298,4.094,7.989,9.2,10.857,14.997c0.259,0.523,0.143,1.221-0.26,1.558C184.731,140.107,184.203,139.963,183.94,139.455z"/>
			<g>
				<path style="fill:#F3C7D1;" d="M88.409,125.031c0,4.009-3.249,7.258-7.258,7.258c-4.009,0-7.258-3.25-7.258-7.258      c0-4.009,3.25-7.258,7.258-7.258C85.16,117.773,88.409,121.022,88.409,125.031z"/>
				<path style="fill:#F3C7D1;" d="M123.546,160.662c0,4.009-3.25,7.258-7.258,7.258c-4.009,0-7.258-3.25-7.258-7.258      c0-4.009,3.25-7.258,7.258-7.258C120.296,153.404,123.546,156.654,123.546,160.662z"/>
				<circle style="fill:#F3C7D1;" cx="111.339" cy="118.597" r="7.258"/>
				<circle style="fill:#F3C7D1;" cx="199.757" cy="55.748" r="7.258"/>
				<path style="fill:#F3C7D1;" d="M259.253,140.476c0,4.009-3.25,7.258-7.258,7.258c-4.009,0-7.258-3.25-7.258-7.258      c0-4.009,3.25-7.258,7.258-7.258C256.004,133.218,259.253,136.468,259.253,140.476z"/>
				<circle style="fill:#F3C7D1;" cx="434.974" cy="384.861" r="7.258"/>
				<circle style="fill:#F3C7D1;" cx="326.938" cy="360.201" r="7.258"/>
				<path style="fill:#F3C7D1;" d="M142.535,255.496c2.835,2.834,2.835,7.43,0,10.265c-2.835,2.835-7.43,2.835-10.265,0      c-2.835-2.835-2.835-7.43,0-10.265C135.104,252.661,139.7,252.661,142.535,255.496z"/>
				<circle style="fill:#F3C7D1;" cx="157.445" cy="393.669" r="7.258"/>
				<circle style="fill:#F3C7D1;" cx="290.384" cy="457.241" r="7.258"/>
			</g>
		</g>
	</g>
</g>















</svg>
