<?xml version="1.0" encoding="UTF-8"?>
<!-- Generator: Adobe Illustrator 26.5.1, SVG Export Plug-In . SVG Version: 6.00 Build 0)  -->
<svg xmlns="http://www.w3.org/2000/svg" xmlns:xlink="http://www.w3.org/1999/xlink" version="1.1" id="Capa_1" x="0px" y="0px" viewBox="0 0 512 512" style="enable-background:new 0 0 512 512;" xml:space="preserve" width="512" height="512">
<g>
	<path style="fill:#FFFFFF;" d="M488.687,41.6H23.313C10.458,41.6,0,52.058,0,64.912v280.667c0,12.854,10.458,23.313,23.313,23.313   h41.481l-3.996,48.431l-22.169,25.186c-4.36,4.953-5.415,12.001-2.697,18.014c2.717,6.014,8.705,9.878,15.303,9.878h104.15   c6.454,0,12.336-3.698,15.134-9.514c5.459-11.348,10.33-22.469,14.177-32.366c3.965-4.799,7.65-10.708,10.989-17.641   c1.763-3.688,4.905-6.523,8.622-7.782c0.22-0.075,0.666-0.241,0.671-0.242c1.286-0.38,2.65-0.577,4.017-0.584l77.47-0.253   c1.639,0,3.247,0.269,4.782,0.801c0.087,0.031,0.465,0.171,0.567,0.209c2.615,1.006,4.838,2.728,6.445,5.002   c2.765,3.899,5.646,7.497,8.598,10.739c3.551,12.04,8.721,26.487,14.762,41.21c2.586,6.303,8.724,10.42,15.537,10.42h99.358   c6.413,0,12.265-3.652,15.085-9.411c2.818-5.759,2.112-12.622-1.822-17.686l-16.434-21.157l-1.117-53.254h56.459   c12.854,0,23.313-10.458,23.313-23.313V64.912C512,52.058,501.542,41.6,488.687,41.6z"/>
	<g>
		<g>
			<path style="fill:#2E1144;" d="M490.474,351.741H25.099c-3.6,0-6.518-2.918-6.518-6.518V64.556c0-3.599,2.918-6.517,6.518-6.517     h465.375c3.599,0,6.517,2.918,6.517,6.517v280.667C496.992,348.823,494.074,351.741,490.474,351.741z"/>
			<rect x="36.2" y="68.855" style="fill:#00DBDA;" width="443.173" height="272.07"/>
			<g>
				<g>
					<g>
						<path style="fill:#FFC666;" d="M94.262,102.967c0,11.947-9.685,21.633-21.632,21.633c-11.947,0-21.633-9.685-21.633-21.633        c0-11.947,9.685-21.632,21.633-21.632C84.577,81.335,94.262,91.02,94.262,102.967z"/>
						<circle style="fill:none;stroke:#2E1144;stroke-width:0.6355;stroke-miterlimit:10;" cx="72.63" cy="102.967" r="18.82"/>
						
							<rect x="71.223" y="89.988" style="fill:none;stroke:#2E1144;stroke-width:0.6355;stroke-miterlimit:10;" width="3.407" height="26.121"/>
					</g>
					<g>
						<path style="fill:#FFC666;" d="M143.584,102.967c0,11.947-9.685,21.633-21.632,21.633c-11.947,0-21.633-9.685-21.633-21.633        c0-11.947,9.685-21.632,21.633-21.632C133.899,81.335,143.584,91.02,143.584,102.967z"/>
						<path style="fill:none;stroke:#2E1144;stroke-width:0.6355;stroke-miterlimit:10;" d="M140.772,102.967        c0,10.394-8.426,18.82-18.82,18.82c-10.394,0-18.82-8.426-18.82-18.82c0-10.394,8.426-18.82,18.82-18.82        C132.345,84.147,140.772,92.573,140.772,102.967z"/>
						
							<rect x="120.545" y="89.988" style="fill:none;stroke:#2E1144;stroke-width:0.6355;stroke-miterlimit:10;" width="3.407" height="26.121"/>
					</g>
					<g>
						<path style="fill:#FFC666;" d="M192.906,102.967c0,11.947-9.685,21.633-21.632,21.633c-11.947,0-21.632-9.685-21.632-21.633        c0-11.947,9.685-21.632,21.632-21.632C183.221,81.335,192.906,91.02,192.906,102.967z"/>
						<path style="fill:none;stroke:#2E1144;stroke-width:0.6355;stroke-miterlimit:10;" d="M190.094,102.967        c0,10.394-8.426,18.82-18.82,18.82c-10.394,0-18.82-8.426-18.82-18.82c0-10.394,8.426-18.82,18.82-18.82        C181.667,84.147,190.094,92.573,190.094,102.967z"/>
						
							<rect x="169.867" y="89.988" style="fill:none;stroke:#2E1144;stroke-width:0.6355;stroke-miterlimit:10;" width="3.407" height="26.121"/>
					</g>
				</g>
				<g>
					<path style="fill:none;stroke:#FFE7DE;stroke-width:3.2587;stroke-miterlimit:10;" d="M452.479,120.994H312.977       c-3.599,0-6.517-2.918-6.517-6.517V87.02c0-3.599,2.918-6.517,6.517-6.517h139.502c3.599,0,6.517,2.918,6.517,6.517v27.457       C458.996,118.077,456.078,120.994,452.479,120.994z"/>
					<g>
						<rect x="313.948" y="86.327" style="fill:#FFE7DE;" width="12.064" height="28.705"/>
						<rect x="328.092" y="86.327" style="fill:#FFE7DE;" width="12.064" height="28.705"/>
						<rect x="342.236" y="86.327" style="fill:#FFE7DE;" width="12.064" height="28.705"/>
						<rect x="356.381" y="86.327" style="fill:#FFE7DE;" width="12.064" height="28.705"/>
						<rect x="370.525" y="86.327" style="fill:#FFE7DE;" width="12.064" height="28.705"/>
						<rect x="384.669" y="86.327" style="fill:#FFE7DE;" width="12.064" height="28.705"/>
						<rect x="398.814" y="86.327" style="fill:#FFE7DE;" width="12.064" height="28.705"/>
					</g>
				</g>
			</g>
			<path style="opacity:0.3;fill:#2E1144;" d="M230.675,327.425c-3.254-12.606-13.663-23.099-26.243-26.452     c-12.579-3.354-26.501,0.445-35.599,9.758c-0.923-15.624-10.175-30.513-23.775-38.26c-13.6-7.747-31.126-8.11-45.035-0.935     c-13.91,7.176-23.772,21.668-25.342,37.24c-7.028-4.931-16.996-5.249-24.324-0.775c-7.327,4.474-11.6,13.486-10.425,21.991     L230.675,327.425z"/>
			<path style="opacity:0.3;fill:#2E1144;" d="M471.801,329.663c-2.956-12.679-13.116-23.414-25.613-27.062     c-12.497-3.649-26.505-0.178-35.818,8.918c-0.555-15.642-9.454-30.744-22.868-38.809c-13.414-8.065-30.926-8.84-45.001-1.994     c-14.075,6.846-24.275,21.103-26.211,36.634c-6.91-5.095-16.868-5.648-24.299-1.347c-7.431,4.3-11.914,13.209-10.939,21.739     L471.801,329.663z"/>
			<g>
				<g>
					<path style="fill:#FFE7DE;" d="M183.449,173.452c-0.003,1.053-0.34,1.961-1.003,2.731c-0.662,0.769-1.451,1.399-2.361,1.897       c-0.825,0.502-1.666,1.023-2.535,1.592c-0.861,0.567-1.663,1.201-2.395,1.898c-0.73,0.705-1.327,1.491-1.781,2.347       c-0.462,0.866-0.696,1.838-0.699,2.932c-0.005,0.956,0.22,1.824,0.672,2.596c0.448,0.781,1.003,1.543,1.661,2.297       c0.656,0.754,1.383,1.532,2.173,2.326c0.795,0.801,1.517,1.693,2.172,2.674c0.653,0.982,1.206,2.085,1.657,3.319       c0.446,1.226,0.672,2.661,0.663,4.298c-0.005,1.135-0.248,2.425-0.734,3.855c-0.486,1.43-1.142,2.87-1.965,4.326       c-0.825,1.449-1.801,2.853-2.922,4.213c-1.12,1.359-2.305,2.572-3.563,3.633c-1.257,1.068-2.565,1.923-3.934,2.574       c-1.371,0.66-2.69,0.983-3.962,0.978c-1.412-0.011-2.663-0.401-3.752-1.179c-1.083-0.779-1.625-1.942-1.619-3.49       c0.005-1.045,0.256-2.014,0.766-2.891c0.5-0.892,1.12-1.74,1.849-2.557c0.734-0.811,1.545-1.601,2.434-2.377       c0.891-0.769,1.703-1.534,2.436-2.305c0.732-0.77,1.348-1.577,1.85-2.42c0.506-0.836,0.762-1.733,0.767-2.69       c0.005-1.32-0.46-2.672-1.384-4.066c-0.928-1.392-1.954-2.832-3.081-4.313c-1.135-1.479-2.162-3.001-3.089-4.555       c-0.923-1.547-1.383-3.118-1.377-4.715c0.009-1.953,0.542-4.011,1.598-6.164c1.054-2.16,2.41-4.128,4.053-5.922       c1.647-1.788,3.495-3.268,5.549-4.443c2.052-1.174,4.083-1.752,6.083-1.748c1.593,0.007,2.952,0.492,4.086,1.453       C182.894,170.52,183.458,171.815,183.449,173.452z"/>
					<path style="fill:#FFE7DE;" d="M222.367,174.928c-0.004,1.143-0.453,2.175-1.346,3.098c-0.888,0.93-1.962,1.743-3.216,2.447       c-1.257,0.697-2.543,1.27-3.861,1.723c-1.326,0.446-2.417,0.762-3.283,0.941c-0.379,3.501-0.678,6.991-0.898,10.469       c-0.223,3.479-0.34,6.973-0.357,10.474c-0.009,1.864,0.029,3.708,0.114,5.526c0.083,1.818,0.116,3.639,0.109,5.462       c-0.004,0.819-0.087,1.713-0.248,2.692c-0.167,0.98-0.446,1.898-0.835,2.763c-0.39,0.856-0.927,1.587-1.615,2.176       c-0.682,0.58-1.524,0.875-2.529,0.87c-1.183-0.002-2.121-0.339-2.824-1.001c-0.706-0.661-1.246-1.476-1.63-2.426       c-0.381-0.959-0.635-1.974-0.769-3.042c-0.132-1.069-0.194-2.041-0.188-2.901c-0.086-2.731-0.137-5.472-0.17-8.224       c-0.032-2.753-0.045-5.518-0.032-8.291c0.009-2.326,0.032-4.598,0.068-6.825c0.03-2.226,0.053-4.506,0.064-6.825       c-0.638,0.092-1.287,0.153-1.949,0.193c-0.66,0.048-1.328,0.066-2.012,0.064c-0.548-0.003-1.26-0.064-2.149-0.186       c-0.888-0.115-1.736-0.32-2.555-0.621c-0.82-0.301-1.524-0.712-2.113-1.24c-0.59-0.527-0.879-1.202-0.873-2.012       c0.005-1.37,0.545-2.562,1.62-3.578c1.071-1.015,2.439-1.9,4.106-2.64c1.661-0.747,3.507-1.376,5.534-1.889       c2.026-0.512,4.029-0.913,6.01-1.196c1.981-0.291,3.798-0.493,5.465-0.625c1.656-0.13,2.946-0.195,3.854-0.191       c0.864,0.007,1.781,0.041,2.763,0.117c0.976,0.069,1.896,0.273,2.761,0.587c0.864,0.331,1.575,0.804,2.146,1.45       C222.091,172.907,222.373,173.792,222.367,174.928z"/>
					<path style="fill:#FFE7DE;" d="M259.416,211.607c-0.006,0.908-0.088,1.997-0.251,3.275c-0.169,1.272-0.478,2.489-0.939,3.646       c-0.458,1.156-1.081,2.135-1.855,2.923c-0.778,0.789-1.801,1.186-3.077,1.182c-1.682-0.009-2.945-0.631-3.78-1.859       c-0.839-1.236-1.43-2.702-1.784-4.413c-0.36-1.701-0.569-3.447-0.625-5.223c-0.064-1.773-0.11-3.187-0.154-4.229       c-3.277,0.527-6.512,0.995-9.695,1.386c-0.099,1.044-0.3,2.34-0.597,3.886c-0.303,1.548-0.766,3.038-1.385,4.468       c-0.617,1.43-1.423,2.664-2.404,3.706c-0.985,1.042-2.18,1.562-3.595,1.552c-1.089-0.001-1.938-0.408-2.546-1.206       c-0.616-0.797-1.075-1.745-1.39-2.834c-0.311-1.098-0.5-2.225-0.563-3.384c-0.063-1.158-0.096-2.122-0.092-2.9       c0.012-2.594,0.231-5.149,0.651-7.672c0.425-2.524,0.908-5.039,1.467-7.54c0.277-1.315,0.649-2.863,1.116-4.629       c0.459-1.771,1.025-3.602,1.694-5.491c0.667-1.879,1.449-3.747,2.343-5.585c0.9-1.839,1.917-3.481,3.059-4.934       c1.146-1.447,2.448-2.624,3.912-3.524c1.458-0.907,3.076-1.36,4.847-1.348c1.726,0.007,3.229,0.4,4.497,1.182       c1.27,0.782,2.385,1.812,3.334,3.086c0.951,1.281,1.737,2.724,2.367,4.343c0.629,1.619,1.157,3.263,1.584,4.923       c0.421,1.662,0.779,3.291,1.067,4.88c0.29,1.597,0.542,3.008,0.761,4.234c0.584,2.966,1.069,5.956,1.465,8.984       C259.24,205.522,259.43,208.56,259.416,211.607z M246.327,194.969c0.001-0.551-0.031-1.45-0.09-2.699       c-0.068-1.254-0.209-2.507-0.43-3.756c-0.223-1.257-0.568-2.371-1.042-3.348c-0.476-0.985-1.12-1.474-1.938-1.477       c-0.458-0.001-0.887,0.298-1.303,0.91c-0.41,0.618-0.775,1.388-1.1,2.318c-0.323,0.937-0.612,1.964-0.868,3.103       c-0.255,1.139-0.476,2.23-0.665,3.271c-0.182,1.049-0.324,1.99-0.422,2.831c-0.097,0.842-0.165,1.441-0.209,1.809       c2.729-0.215,5.417-0.541,8.057-0.985L246.327,194.969z"/>
					<path style="fill:#FFE7DE;" d="M304.259,186.017c-0.014,3.137-0.756,5.957-2.224,8.446c-1.466,2.496-3.408,4.696-5.828,6.6       c0.725,1.093,1.468,2.369,2.232,3.826c0.767,1.464,1.457,3.003,2.062,4.62c0.608,1.616,1.1,3.236,1.483,4.851       c0.375,1.616,0.564,3.108,0.558,4.47c-0.005,1.459-0.37,2.762-1.074,3.922c-0.713,1.154-1.91,1.73-3.592,1.721       c-1.413-0.002-2.623-0.694-3.646-2.063c-1.014-1.371-1.919-3.003-2.705-4.891c-0.784-1.889-1.505-3.817-2.152-5.772       c-0.652-1.961-1.274-3.534-1.855-4.719c-0.825,0.267-1.622,0.567-2.394,0.91c-0.778,0.336-1.575,0.661-2.392,0.974       c-0.055,1.001-0.138,2.382-0.259,4.128c-0.121,1.754-0.379,3.493-0.777,5.218c-0.392,1.731-0.978,3.227-1.759,4.495       c-0.783,1.276-1.848,1.901-3.213,1.896c-1.503-0.005-2.66-0.62-3.478-1.853c-0.812-1.234-1.381-2.69-1.72-4.38       c-0.331-1.684-0.517-3.403-0.555-5.151c-0.037-1.756-0.055-3.128-0.05-4.133c0.009-2.139,0.063-4.241,0.166-6.315       c0.102-2.065,0.154-4.166,0.163-6.306c0.009-1.953-0.011-3.916-0.074-5.867c-0.057-1.961-0.084-3.938-0.074-5.941       c0.002-0.454,0.003-1.037,0.007-1.742c0.003-0.697,0.043-1.428,0.112-2.181c0.076-0.747,0.158-1.464,0.249-2.15       c0.097-0.679,0.256-1.228,0.488-1.633c0.455-0.953,1.497-1.856,3.114-2.713c1.62-0.858,3.395-1.608,5.334-2.261       c1.935-0.652,3.826-1.171,5.67-1.55c1.844-0.371,3.222-0.562,4.134-0.558c2.317,0.007,4.361,0.454,6.133,1.324       c1.771,0.87,3.246,2.055,4.421,3.532c1.177,1.485,2.053,3.197,2.637,5.135C303.982,181.843,304.269,183.878,304.259,186.017z        M291.632,186.914c0.004-1.183-0.266-2.08-0.806-2.701c-0.546-0.619-1.432-0.929-2.66-0.936       c-0.908-0.005-1.83,0.156-2.764,0.466c-0.934,0.318-1.79,0.673-2.563,1.081c0.165,3.594,0.214,7.169,0.153,10.714       c0.957-0.315,1.938-0.717,2.939-1.213c1.004-0.497,1.932-1.104,2.774-1.829c0.845-0.725,1.541-1.543,2.093-2.447       C291.347,189.146,291.627,188.098,291.632,186.914z"/>
					<path style="fill:#FFE7DE;" d="M343.235,175.48c-0.006,1.135-0.455,2.168-1.347,3.098c-0.888,0.929-1.961,1.743-3.218,2.439       c-1.254,0.704-2.541,1.278-3.861,1.722c-1.324,0.453-2.416,0.762-3.283,0.941c-0.38,3.501-0.679,6.991-0.898,10.469       c-0.223,3.479-0.339,6.973-0.356,10.475c-0.009,1.864,0.029,3.709,0.114,5.526c0.081,1.826,0.117,3.646,0.109,5.462       c-0.004,0.819-0.085,1.721-0.247,2.692c-0.167,0.98-0.446,1.899-0.836,2.763c-0.388,0.864-0.927,1.587-1.615,2.176       c-0.684,0.589-1.522,0.882-2.528,0.878c-1.184-0.01-2.125-0.338-2.823-1.001c-0.708-0.668-1.246-1.476-1.632-2.434       c-0.379-0.952-0.633-1.966-0.769-3.042c-0.132-1.068-0.192-2.034-0.188-2.901c-0.084-2.724-0.137-5.472-0.168-8.217       c-0.034-2.76-0.046-5.518-0.034-8.298c0.012-2.319,0.034-4.591,0.064-6.825c0.034-2.227,0.058-4.499,0.069-6.817       c-0.639,0.084-1.286,0.153-1.948,0.193c-0.662,0.041-1.33,0.058-2.014,0.056c-0.547-0.004-1.26-0.064-2.15-0.178       c-0.884-0.116-1.734-0.328-2.551-0.622c-0.821-0.301-1.526-0.719-2.113-1.24c-0.59-0.527-0.879-1.201-0.875-2.02       c0.007-1.361,0.547-2.554,1.616-3.577c1.075-1.016,2.443-1.902,4.105-2.641c1.667-0.74,3.513-1.37,5.54-1.882       c2.024-0.52,4.029-0.913,6.008-1.204c1.983-0.283,3.798-0.492,5.465-0.626c1.658-0.122,2.944-0.186,3.855-0.183       c0.862,0,1.781,0.042,2.761,0.11c0.978,0.076,1.896,0.272,2.762,0.594c0.862,0.323,1.575,0.805,2.141,1.443       C342.957,173.452,343.241,174.345,343.235,175.48z"/>
				</g>
				<path style="fill:#FFC666;" d="M102.399,198.112c-3.082-4.845-4.436-10.601-5.033-16.312h-0.041      c-0.597,5.711-1.95,11.467-5.033,16.312c-3.082,4.845-8.099,8.686-13.806,9.318c9.479,3.417,18.056,14.416,18.646,24.475      l0.031,0.517l-0.003,0.827l0.035-0.283l0.01,0.173l0.001-0.26l0.027-0.212c0.59-10.059,9.493-21.82,18.973-25.238      C110.498,206.798,105.481,202.957,102.399,198.112z"/>
				<path style="fill:#FFC666;" d="M266.029,112.136c-3.082-4.845-4.436-10.601-5.033-16.312h-0.041      c-0.597,5.711-1.951,11.467-5.033,16.312c-3.082,4.845-8.099,8.686-13.806,9.318c9.479,3.417,18.056,14.416,18.646,24.475      l0.031,0.517l-0.003,0.827l0.035-0.283l0.01,0.174l0.001-0.26l0.026-0.212c0.59-10.059,9.493-21.82,18.973-25.238      C274.128,120.822,269.111,116.981,266.029,112.136z"/>
				<path style="fill:#FFC666;" d="M426.331,231.67c-3.082-4.845-4.436-10.601-5.033-16.312h-0.041      c-0.597,5.711-1.95,11.467-5.033,16.312c-3.082,4.845-8.099,8.686-13.806,9.318c9.479,3.417,18.056,14.415,18.646,24.475      l0.03,0.517l-0.003,0.827l0.035-0.283l0.01,0.173l0.001-0.26l0.026-0.212c0.59-10.059,9.493-21.82,18.973-25.238      C434.43,240.356,429.414,236.515,426.331,231.67z"/>
			</g>
		</g>
		<g>
			<g>
				<g>
					<path style="fill:#2E1144;" d="M351.578,421.299c-0.111,0.026-0.243,0.049-0.354,0.075c-0.354,0.075-0.704,0.129-1.056,0.183       c-14.945,2.252-28.307-12.151-36.422-23.596c-3.561-5.037-8.514-8.807-14.119-10.963c-0.361-0.162-0.707-0.279-1.075-0.399       l-0.021-0.003c-3.296-1.142-6.824-1.741-10.402-1.727l-77.404,0.253c-3,0.016-5.935,0.449-8.715,1.269       c-0.447,0.125-0.877,0.274-1.309,0.444c-7.945,2.692-14.619,8.576-18.382,16.442c-5.844,12.133-15.248,25.568-27.87,23.654       c-0.23-0.035-0.439-0.067-0.663-0.143c-0.352-0.075-0.699-0.192-1.042-0.329c-20.5-8.141-15.181-103.929,31.344-122.955       c47.802-19.539,131.351-4.256,151.873,4.444C366.103,320.719,376.462,415.779,351.578,421.299z"/>
				</g>
				<g>
					<g>
						<g>
							<path style="fill:#B179FF;" d="M212,365.293c-3.936,6.748-7.275,13.8-9.987,21.098c-0.447,0.125-0.877,0.274-1.309,0.444         c2.805-7.626,6.261-15.024,10.373-22.088L212,365.293z"/>
						</g>
					</g>
					<g>
						<g>
							<path style="fill:#B179FF;" d="M299.629,386.997c-0.361-0.162-0.707-0.279-1.075-0.399l-0.021-0.003         c-0.742-7.393-2.161-14.696-4.268-21.846l1.03-0.294C297.453,371.828,298.901,379.371,299.629,386.997z"/>
						</g>
					</g>
					<g>
						<g>
							<path style="fill:#FF93E2;" d="M153.788,426.786c-0.352-0.075-0.699-0.192-1.042-0.329l0.539-13.58l1.042,0.051         L153.788,426.786z"/>
						</g>
					</g>
					<g>
						<g>
							<path style="fill:#FF93E2;" d="M351.224,421.374c-0.354,0.075-0.704,0.129-1.056,0.183         c0.062-5.772-0.371-11.534-1.307-17.222l1.034-0.186C350.832,409.837,351.286,415.602,351.224,421.374z"/>
						</g>
					</g>
				</g>
				<g>
					<path style="fill:#B179FF;" d="M365.538,386.065l-0.034,0.064c-0.767,13.278-4.558,23.106-12.37,24.822       c-0.788,0.171-1.542,0.311-2.327,0.385l-0.033-0.001c-0.36,0.054-0.687,0.077-1.013,0.067       c-14.142,0.804-26.698-12.852-34.447-23.784c-4.217-5.998-10.414-10.166-17.334-12.009c-0.356-0.076-0.744-0.186-1.133-0.263       c-2.298-0.527-4.703-0.797-7.148-0.807l-77.407,0.26c-1.891,0.007-3.755,0.178-5.558,0.513l-0.033-0.001       c-0.426,0.085-0.853,0.169-1.279,0.254l-0.033-0.001c-9.326,2.158-17.247,8.501-21.498,17.368       c-5.851,12.144-15.262,25.58-27.887,23.692c-0.616-0.117-1.197-0.298-1.776-0.544l-0.033-0.001       c-0.388-0.11-0.676-0.281-1.028-0.488c-8.487-4.956-12.047-25.964-9.336-49.42l0.005-0.163c0.003-0.098,0.04-0.227,0.042-0.325       l0.001-0.033c3.412-29.302,16.551-62.153,41.777-72.495c10.4-4.244,22.682-7.094,35.679-8.846       c0.523-0.049,1.079-0.097,1.603-0.179c1.309-0.155,2.65-0.31,3.991-0.432c0.851-0.104,1.702-0.208,2.552-0.28       c16.056-1.56,32.877-1.499,48.392-0.305c0.813,0.057,1.626,0.115,2.44,0.173c5.658,0.5,11.116,1.124,16.276,1.87l1.623,0.245       c18.563,2.788,33.228,7.249,39.335,12.197C354.434,311.422,367.182,357.001,365.538,386.065z"/>
				</g>
				<g>
					<g>
						<path style="fill:#2E1144;" d="M280.313,283.287l-8.129,12.009l-0.922,1.341c-0.205,0.32-0.536,0.473-0.927,0.46        l-32.702-1.006c-0.293-0.009-0.582-0.148-0.771-0.382l-1.321-1.573l-8.612-10.437c0.851-0.104,1.702-0.208,2.552-0.28        l8.705,10.57l31.628,0.973l8.059-11.848C278.687,283.172,279.5,283.23,280.313,283.287z"/>
					</g>
					<g>
						
							<ellipse transform="matrix(0.3721 -0.9282 0.9282 0.3721 -86.5178 486.9608)" style="fill:#FFC666;" cx="316.673" cy="307.429" rx="8.85" ry="8.85"/>
						<path style="fill:#FFC666;" d="M343.504,327.4c-0.15,4.885-4.233,8.724-9.118,8.574c-4.885-0.15-8.724-4.233-8.573-9.118        c0.15-4.886,4.232-8.724,9.118-8.574C339.815,318.432,343.654,322.515,343.504,327.4z"/>
						<path style="fill:#FFC666;" d="M327.332,347.99c-0.15,4.885-4.232,8.724-9.118,8.574c-4.885-0.15-8.724-4.233-8.573-9.118        c0.15-4.885,4.232-8.724,9.118-8.574C323.644,339.023,327.482,343.105,327.332,347.99z"/>
						<path style="fill:#FFC666;" d="M308.283,329.698c-0.15,4.885-4.233,8.724-9.118,8.574c-4.885-0.15-8.724-4.233-8.573-9.118        c0.15-4.885,4.232-8.724,9.118-8.574C304.595,320.731,308.433,324.813,308.283,329.698z"/>
					</g>
					<g>
						<polygon style="fill:#FFC666;" points="200.817,302.5 204.867,311.384 214.48,313.084 207.283,319.68 208.637,329.349         200.139,324.542 191.362,328.817 193.308,319.25 186.53,312.224 196.23,311.118       "/>
						<polygon style="fill:#FFC666;" points="171.903,322.421 175.952,331.304 185.566,333.005 178.368,339.601 179.722,349.269         171.224,344.463 162.447,348.738 164.393,339.171 157.615,332.145 167.315,331.039       "/>
						<polygon style="fill:#FFC666;" points="199.977,338.823 204.027,347.706 213.641,349.406 206.443,356.003 207.797,365.672         199.299,360.865 190.523,365.14 192.468,355.573 185.689,348.547 195.389,347.44       "/>
					</g>
					<path style="fill:#FFE7DE;" d="M269.484,334.305l-33.265-1.023c-7.196-0.221-12.85-6.234-12.628-13.43l0.196-6.376       c0.221-7.195,6.234-12.849,13.43-12.628l33.265,1.023c7.196,0.221,12.849,6.234,12.628,13.43l-0.196,6.376       C282.692,328.872,276.68,334.526,269.484,334.305z"/>
				</g>
				<g>
					<path style="fill:#2E1144;" d="M291.908,356.609c0.86,4.721-1.572,9.119-5.432,9.822c-3.86,0.703-7.686-2.555-8.546-7.276       c-0.86-4.722,1.572-9.119,5.432-9.822C287.222,348.63,291.048,351.888,291.908,356.609z"/>
				</g>
				<g>
					<g>
						<path style="fill:#2E1144;" d="M235.896,359.409c-1.395,4.592-5.568,7.391-9.322,6.251c-3.754-1.14-5.667-5.787-4.273-10.379        c1.395-4.592,5.568-7.391,9.322-6.251C235.377,350.17,237.29,354.816,235.896,359.409z"/>
					</g>
					<g>
						<path style="fill:#FFE7DE;" d="M272.809,353.815c0.634,3.482-1.16,6.725-4.007,7.244c-2.847,0.518-5.669-1.884-6.303-5.366        c-0.634-3.482,1.16-6.726,4.006-7.244C269.353,347.93,272.175,350.332,272.809,353.815z"/>
					</g>
					<g>
						<path style="fill:#FFE7DE;" d="M253.443,355.38c-1.028,3.387-4.107,5.451-6.875,4.61c-2.769-0.841-4.18-4.268-3.152-7.655        s4.107-5.451,6.875-4.61C253.061,348.566,254.471,351.993,253.443,355.38z"/>
					</g>
				</g>
				<g>
					<g>
						<path style="fill:#2E1144;" d="M352.736,377.552c-0.865,5.707-6.193,9.631-11.899,8.765        c-5.706-0.865-9.631-6.193-8.765-11.899c0.865-5.707,6.193-9.631,11.899-8.765        C349.677,366.518,353.601,371.845,352.736,377.552z"/>
					</g>
					<g>
						<path style="fill:#2E1144;" d="M178.131,377.681c-0.865,5.706-6.193,9.631-11.899,8.765        c-5.706-0.865-9.631-6.193-8.765-11.899c0.865-5.706,6.193-9.63,11.899-8.765        C175.072,366.647,178.996,371.974,178.131,377.681z"/>
					</g>
				</g>
			</g>
			<g>
				<path style="fill:#FF93E2;" d="M233.361,274.345c-0.228,2.411-0.912,5.67-2.639,8.962c-0.163,0.326-0.326,0.619-0.521,0.945      c-0.359,0.619-0.782,1.271-1.238,1.89c-2.705,3.65-6.974,7.039-13.752,8.766c-20.139,5.181-39.333,7.104-39.333,7.104      l-17.76,17.532l-16.587,16.359l-4.953,52.303c0,0,2.118-2.249,5.149-5.833c0.359-0.456,0.782-0.978,1.206-1.499      c2.151-2.64,4.627-5.866,7.071-9.385c2.705-3.943,5.377-8.245,7.463-12.579c1.401-2.9,3.389-6.615,5.833-10.591      c0.261-0.424,0.521-0.88,0.814-1.336c0.359-0.554,0.717-1.108,1.076-1.694c0.358-0.554,0.717-1.141,1.108-1.694      c1.052-1.584,2.142-3.139,3.247-4.673c1.076-1.509,2.181-2.955,3.323-4.412c0.226-0.286,0.451-0.573,0.679-0.854      c0.738-0.922,1.445-1.891,2.202-2.771c5.377-6.224,11.145-11.242,16.456-12.807c3.194-0.978,6.224-0.652,8.929,1.369      c0,0-0.097,0.228-0.195,0.652c-0.228,0.815-0.684,2.444-1.303,4.693c-1.401,5.083-3.715,13.361-6.387,22.909      c-0.163,0.489-0.293,0.977-0.424,1.466c-0.489,1.727-0.978,3.487-1.467,5.279c-5.116,18.282-11.08,39.138-14.566,50.543      c-0.293,0.978-0.586,1.89-0.847,2.737c-1.14,3.65-2.509,7.593-4.073,11.699l-0.033,0.033      c-4.041,10.689-9.287,22.616-14.664,33.793H53.022l25.842-29.361l6.648-80.556l67.814-66.185l44.906-3.715l13.769,1.85      l17.841-4.49c0.424-0.033,0.815,0,1.206,0.13C232.449,271.315,233.491,272.716,233.361,274.345z"/>
				<path style="fill:#FFE7DE;" d="M200.934,320.099c-0.771,2.813-4.07,14.677-8.099,29.061c-0.706-0.381-1.34-0.954-1.809-1.621      c-1.124-1.6-1.487-3.599-1.656-5.528c-0.361-4.152,0.095-8.376,1.294-12.382c0.763-2.552,1.885-5.093,3.674-7.092      C196.094,320.602,199.031,318.378,200.934,320.099z"/>
				
					<path style="fill:none;stroke:#2E1144;stroke-width:2.1333;stroke-linecap:round;stroke-linejoin:round;stroke-miterlimit:10;" d="      M130.556,394.681c0,0,11.95-9.621,19.882-23.944c7.932-14.323,31.416-60.632,50.691-51.299"/>
				<path style="fill:#FFE7DE;" d="M231.04,270.915c-1.168,1.92-2.979,3.56-4.875,4.806c-7.252,4.7-22.762,6.538-27.935-2.294      l31.608-2.647C230.262,270.76,230.652,270.805,231.04,270.915z"/>
			</g>
			<g>
				<path style="fill:#FF93E2;" d="M438.303,453.25h-99.359c-5.963-14.534-11.699-30.436-15.283-43.406      c-0.391-1.466-0.75-2.9-1.108-4.269c-0.782-3.128-1.76-7.3-2.868-12.188c-2.705-11.862-6.159-27.699-9.222-41.973      c-0.293-1.238-0.554-2.477-0.815-3.682c-0.13-0.554-0.228-1.108-0.358-1.662c-0.88-4.139-1.727-8.082-2.509-11.666      c-1.075-4.986-1.988-9.287-2.672-12.481c-0.521-2.574-0.913-4.432-1.108-5.344c-0.097-0.424-0.13-0.652-0.13-0.652      c0.065-0.033,0.13-0.098,0.195-0.098c6.974-4.432,15.316,1.727,22.746,10.949c2.216,2.737,4.367,5.735,6.354,8.831      c1.727,2.672,3.357,5.41,4.856,8.082c0.652,1.173,1.304,2.346,1.923,3.519c2.118,4.074,3.846,7.821,5.051,10.754      c1.336,3.292,2.998,6.583,4.79,9.744c0.522,0.945,1.075,1.923,1.662,2.835c0.717,1.271,1.499,2.509,2.281,3.682      c5.279,8.244,10.33,14.306,10.33,14.306l-1.206-35.781l-0.13-4.465L361.299,336l-4.465-4.986l-4.008-4.464l-16.489-18.445      l-7.202-8.049c0,0-19.031-3.096-38.844-9.483c-4.725-1.564-8.147-3.813-10.591-6.354c-0.359-0.359-0.652-0.684-0.978-1.043      c-4.139-4.921-5.116-10.591-5.279-14.273c-0.033-1.629,1.075-2.966,2.542-3.259c0.391-0.098,0.782-0.098,1.206-0.065l17.074,4.5      l14.308,0.095l44.579,6.485l63.611,70.226l1.695,80.817L438.303,453.25z"/>
				<path style="fill:#FFE7DE;" d="M302.997,316.58c0.597,2.854,3.161,14.899,6.298,29.504c0.727-0.336,1.396-0.87,1.904-1.506      c1.221-1.527,1.705-3.501,1.992-5.416c0.616-4.122,0.421-8.366-0.53-12.438c-0.605-2.594-1.568-5.2-3.231-7.305      C307.798,317.379,305.003,314.979,302.997,316.58z"/>
				
					<path style="fill:none;stroke:#2E1144;stroke-width:2.1333;stroke-linecap:round;stroke-linejoin:round;stroke-miterlimit:10;" d="      M368.658,395.347c0,0-11.336-10.338-18.373-25.121s-27.63-62.449-47.441-54.318"/>
				<path style="fill:#FFE7DE;" d="M275.972,265.638c1.047,1.988,2.754,3.736,4.571,5.096c6.95,5.137,22.318,7.924,28.023-0.572      l-31.386-4.585C276.758,265.531,276.366,265.552,275.972,265.638z"/>
			</g>
		</g>
	</g>
</g>















</svg>
