<?xml version="1.0" encoding="UTF-8"?>
<!-- Generator: Adobe Illustrator 25.2.0, SVG Export Plug-In . SVG Version: 6.00 Build 0)  -->
<svg xmlns="http://www.w3.org/2000/svg" xmlns:xlink="http://www.w3.org/1999/xlink" version="1.1" id="Capa_1" x="0px" y="0px" viewBox="0 0 500 500" style="enable-background:new 0 0 500 500;" xml:space="preserve" width="512" height="512">
<g>
	<path d="M258.41,23.858c89.425,6.959,172.958,59.397,206.967,154.001c6.466,17.986,11.656,36.258,13.419,55.385   c4.04,43.835-4.052,85.308-24.431,124.298c-33.335,63.778-97.51,108.482-169.138,118.064   c-79.923,10.691-159.425-19.785-210.912-81.279c-32.775-39.145-51.059-84.367-53.863-135.383   C13.965,140.931,99.147,43.298,209.762,26.373C228.092,23.568,246.512,23.005,258.41,23.858z M293.727,185.871   c-0.014-0.106-0.028-0.212-0.042-0.318c0.597-0.121,1.192-0.256,1.791-0.361c10.926-1.917,21.438-5.105,31.653-9.495   c26.317-11.308,40.263-39.325,39.858-60.5c-0.31-16.21-5.424-30.275-18.116-41.025c-8.004-6.78-17.354-10.469-27.578-12.165   c-16.657-2.762-30.937,2.772-43.853,12.793c-7.131,5.532-12.488,12.248-15.468,21.053c-3.859,11.4-2.583,22.053,3.033,32.338   c6.711,12.292,17.688,17.734,31.217,17.216c13.75-0.526,23.716-7.52,28.992-20.483c2.859-7.023,2.439-14.139-0.222-21.144   c-0.816-2.149-2.05-4.099-4.417-4.836c-0.619-0.193-1.575-0.075-2.05,0.306c-0.329,0.264-0.23,1.252-0.099,1.869   c0.531,2.509,1.327,4.973,1.704,7.502c2.282,15.325-7.544,25.807-18.83,28.471c-10.818,2.554-23.239-2.003-28.486-10.718   c-9.444-15.685-6.137-34.614,7.947-45.463c13.091-10.084,27.197-14.554,43.703-9.888c28.285,7.996,39.67,33.46,34.242,56.703   c-4.477,19.171-15.778,33.674-33.53,42.782c-12.455,6.391-25.706,10.349-39.44,12.761c-3.01,0.529-6.107,0.985-9.139,0.864   c-4.508-0.18-8.993-0.93-13.492-1.39c-37.451-3.831-74.951-5.397-112.479-1.4c-23.798,2.535-46.577,8.872-67.918,19.946   c-4.541,2.357-8.805,5.113-12.482,8.687c-1.111,1.08-2.12,2.324-2.912,3.65c-0.367,0.614-0.102,1.605-0.124,2.426   c0.768-0.2,1.639-0.234,2.289-0.63c3.372-2.051,6.522-4.538,10.05-6.251c25.637-12.448,52.816-19.092,81.191-20.883   c31.994-2.019,63.911-0.629,95.785,2.477c22.319,2.175,44.646,4.292,66.988,6.212c18.997,1.633,38.032,1.438,57.05,0.235   c8.715-0.551,17.221-2.255,24.992-6.429c7.643-4.105,13.936-9.681,17.285-17.942c2.273-5.608,2.105-11.203-1.049-16.476   c-2.161-3.614-5.57-5.233-9.711-4.956c-4.511,0.301-7.528,3.166-10.018,6.606c-0.32,0.442,0.15,1.455,0.253,2.204   c0.708-0.17,1.53-0.166,2.101-0.543c1.62-1.067,3.085-2.372,4.712-3.428c1.589-1.031,3.363-1.286,5.238-0.728   c3.274,0.973,5.356,3.943,5.589,8.102c0.297,5.307-2.245,9.417-5.672,13.089c-7.938,8.505-18.164,12.176-29.388,13.248   c-16.683,1.594-33.399,0.934-50.071-0.257c-13.156-0.94-26.275-2.384-39.411-3.608   C294.835,186.046,294.282,185.948,293.727,185.871z M192.911,328.857c0.002,0.055-0.001-0.029,0.001,0.026   c-9.146,1.657-17.91,4.288-25.966,9.01c-14.97,8.775-25.95,20.458-29.871,38.057c-3.775,16.945,0.166,31.415,12.664,43.329   c9.754,9.297,21.963,12.836,35.102,12.651c19.369-0.272,33.454-9.406,41.918-26.883c4.487-9.265,3.657-18.456-1.411-27.226   c-5.188-8.978-12.693-14.659-23.422-15.146c-14.313-0.651-29.906,10.5-30.817,29.875c-0.055,1.181,0.291,2.554,0.922,3.533   c0.42,0.652,1.78,1.177,2.535,0.995c0.711-0.171,1.368-1.265,1.712-2.093c0.424-1.021,0.427-2.209,0.737-3.288   c2.119-7.378,5.148-14.063,12-18.5c7.813-5.058,17.79-5.53,24.854-0.696c7.815,5.348,12.269,15.983,9.782,24.796   c-3.836,13.591-12.704,22.916-26.019,27.359c-13.732,4.582-26.898,1.915-38.577-6.151c-10.758-7.43-15.909-18.219-15.039-31.443   c0.228-3.474,1.11-6.956,2.092-10.317c1.994-6.824,4.216-13.634,9.058-19.08c7.408-8.332,16.142-14.911,26.643-18.879   c16.687-6.306,34.139-7.964,51.715-6.977c21.82,1.225,43.583,3.462,65.375,5.196c17.062,1.358,34.115,1.329,51.202,0.069   c22.333-1.647,43.574-6.976,63.408-17.524c0.992-0.528,1.992-1.08,2.864-1.776c0.355-0.283,0.627-1.073,0.482-1.463   c-0.132-0.356-0.875-0.662-1.355-0.673c-0.73-0.015-1.498,0.154-2.193,0.403c-1.949,0.698-3.881,1.449-5.8,2.229   c-12.893,5.24-26.045,9.449-39.966,11.067c-18.487,2.148-37.019,2.191-55.506,0.788c-30.941-2.347-61.839-5.263-92.759-7.889   c-20.09-1.706-40.166-3.717-60.382-2.663c-14.693,0.766-28.904,3.53-42.272,9.898c-6.716,3.199-13.203,6.81-18.596,12.023   c-5.952,5.753-9.115,12.807-8.359,21.147c0.486,5.355,2.782,9.96,8.097,12.236c0.108,0.046,0.221,0.082,0.337,0.108   c1.666,0.38,2.962-1.656,1.959-3.04c-0.008-0.011-0.016-0.021-0.024-0.032c-3.388-4.552-4.264-9.538-2.82-14.971   c1.569-5.898,5.355-10.101,10.262-13.488c8.849-6.107,18.558-10.218,28.984-12.723   C155.129,326.248,174.007,327.327,192.911,328.857z M187.135,253.801c-1.459,20.179,9.2,37.595,28.022,44.948   c16.053,6.271,31.656,4.362,46.223-4.494c13.886-8.442,22.724-20.796,24.745-37.068c3.425-27.58-18.989-52.386-46.824-52.084   C208.824,205.434,189.273,229.28,187.135,253.801z M375.792,271.605c2.62-0.926,5.065-1.702,7.442-2.648   c6.223-2.476,11.468-6.203,14.973-12.066c5.784-9.674,5.304-19.761,1.178-29.677c-3.015-7.247-8.627-11.96-16.754-12.995   c-2.614-0.333-5.239-0.694-7.868-0.789c-16.325-0.582-32.466,1.145-48.525,3.934c-1.942,0.337-2.857,1.358-3.088,3.191   c-0.33,2.615-0.797,5.223-0.956,7.849c-1.233,20.439-2.423,40.881-3.577,61.325c-0.176,3.13-0.154,6.276-0.119,9.413   c0.023,2.153,0.834,3.037,2.928,3.095c2.377,0.066,4.871,0.345,7.117-0.236c4.781-1.235,4.657-0.57,4.966-5.251   c0.418-6.33,0.844-12.661,1.095-18.999c0.078-1.97,0.623-2.658,2.685-2.702c6.338-0.138,12.673-0.471,19.002-0.852   c1.245-0.075,1.916,0.27,2.644,1.225c6.129,8.04,12.325,16.028,18.476,24.051c1.165,1.52,2.662,2.252,4.441,1.602   c3.414-1.249,6.796-2.606,10.105-4.109c1.824-0.828,2.151-2.651,0.975-4.277c-0.659-0.911-1.525-1.669-2.234-2.547   C385.743,283.998,380.803,277.84,375.792,271.605z M115.652,233.279c1.588-0.254,2.88-0.47,4.175-0.668   c15.751-2.409,31.506-4.788,47.247-7.255c1.962-0.308,3.855-1.066,5.773-1.636c1.264-0.376,1.874-1.3,1.751-2.565   c-0.307-3.176-0.609-6.357-1.092-9.508c-0.296-1.929-2.029-3.271-3.984-3.267c-1.88,0.004-3.777,0.045-5.637,0.292   c-15.74,2.086-31.48,4.169-47.203,6.375c-4.716,0.662-9.405,1.584-14.054,2.621c-3.154,0.703-4.208,2.266-4.332,5.503   c-0.055,1.443-0.105,2.894-0.021,4.333c1.211,20.625,2.383,41.253,3.719,61.87c0.332,5.126,1.084,10.237,1.879,15.318   c0.661,4.22,1.464,4.622,5.631,3.782c2.274-0.459,4.548-0.924,6.833-1.322c3.102-0.54,4.211-1.792,4.107-5.004   c-0.187-5.772-0.439-11.542-0.671-17.313c-0.168-4.182-0.346-8.365-0.518-12.498c0.341-0.146,0.505-0.255,0.684-0.287   c9.263-1.629,18.529-3.247,27.792-4.878c2.99-0.526,4.015-1.659,3.941-4.724c-0.071-2.945-0.256-5.896-0.584-8.823   c-0.318-2.844-1.769-3.918-4.677-3.518c-5.966,0.82-11.919,1.734-17.874,2.63c-3.509,0.528-7.013,1.096-10.69,1.673   C117.109,247.3,116.391,240.394,115.652,233.279z M103.23,162.056c0.21-0.454,0.284-0.671,0.402-0.86   c10.337-16.564,21.875-32.202,35.71-46.046c10.938-10.945,22.267-21.442,35.436-29.732c5.751-3.62,11.679-6.904,18.159-9.067   c4.979-1.662,10.061-2.402,15.327-1.49c8.583,1.486,15.029,8.637,15.917,17.302c1.221,11.925-3.709,21.028-13.657,27.53   c-4.705,3.075-10.034,3.868-15.568,2.768c-7.625-1.516-10.895-7.776-7.884-14.908c1.627-3.855,4.7-6.126,8.364-7.719   c5.688-2.473,11.64-3.448,17.838-3.034c1.608,0.107,3.581,0.697,4.226-1.652c0.422-1.538-0.682-2.66-3.496-3.399   c-10.843-2.848-20.412,0.181-28.402,7.422c-5.211,4.721-7.307,11.293-4.997,18.263c2.311,6.973,8.098,10.282,15.203,11.245   c7.329,0.993,14.74-1.188,20.639-5.648c9.02-6.818,13.865-16.059,14.046-27.729c0.107-6.894-1.487-13.392-5.998-18.809   c-6.655-7.991-15.545-9.984-25.355-8.684c-9.598,1.271-17.998,5.684-26.139,10.668c-10.887,6.665-20.531,14.871-29.717,23.664   c-11.143,10.668-21.58,21.987-30.151,34.836c-6.751,10.121-12.958,20.606-19.312,30.987c-0.407,0.665-0.361,2.284,0.105,2.643   c0.627,0.484,2.023,0.516,2.815,0.149c4.091-1.896,7.959-4.339,12.154-5.937c17.059-6.496,34.955-8.824,53.026-8.837   c16.126-0.012,32.252,1.277,48.379,1.975c10.356,0.448,20.713,0.872,31.046-0.435c4.817-0.609,9.62-1.389,13.863-3.873   c1.66-0.972,2.985-2.571,4.305-4.028c0.107-0.119,0.131-0.313,0.115-0.544c-0.058-0.82-0.904-1.435-1.671-1.14   c-0.084,0.032-0.163,0.073-0.235,0.123c-3.234,2.261-6.912,3.247-10.728,3.802c-8.492,1.235-17.034,1.195-25.57,0.715   c-14.738-0.829-29.467-1.811-44.203-2.669c-10.542-0.614-21.088-0.906-31.613,0.351c-14.41,1.72-28.536,4.469-41.485,11.474   C103.929,161.838,103.703,161.887,103.23,162.056z M365.162,378.056c0.006-0.008-0.086,0.157-0.222,0.267   c-9.303,7.487-17.112,16.41-24.786,25.491c-5.146,6.089-10.458,12.052-15.939,17.84c-5.589,5.903-11.753,11.174-19.086,14.876   c-9.941,5.018-20.243,6.211-30.749,2.274c-8.487-3.18-12.784-12.844-9.51-21.296c2.79-7.201,7.449-12.967,14.291-16.68   c5.232-2.84,10.84-4.509,16.858-3.08c9.046,2.148,12.358,11.363,7.419,18.079c-1.524,2.072-3.129,4.087-4.56,6.221   c-0.005,0.008-0.01,0.015-0.015,0.023c-0.737,1.149,0.387,2.752,1.717,2.447c0.088-0.02,0.172-0.049,0.251-0.088   c1.038-0.511,1.982-1.347,2.758-2.228c1.658-1.882,3.193-3.873,4.76-5.834c5.372-6.724,3.182-15.847-2.095-20.621   c-4.224-3.822-9.25-5.459-14.871-5.339c-15.265,0.324-28.798,10.194-33.823,24.618c-4.776,13.711,2.1,27.378,15.954,31.549   c6.849,2.062,13.833,2.431,20.879,1.138c9.406-1.726,17.416-6.288,24.675-12.312c10.108-8.388,18.71-18.229,26.922-28.402   c10.361-12.834,21.827-24.473,35.553-33.713c3.948-2.658,8.216-4.839,12.313-7.278c2.021-1.203,2.68-2.67,1.982-4.116   c-0.724-1.5-2.432-1.885-4.625-0.803c-2.474,1.22-4.825,2.689-7.292,3.924c-2.512,1.257-5.011,2.638-7.669,3.486   c-11.559,3.687-23.447,4.566-35.39,2.811c-9.68-1.423-19.277-3.469-28.864-5.461c-12.081-2.511-24.178-4.706-36.597-4.145   c-6.137,0.278-12.128,1.168-17.593,4.242c-3.355,1.888-6.099,4.423-7.974,7.795c-0.05,0.09-0.088,0.186-0.116,0.288   c-0.297,1.056,0.755,2.096,1.812,1.805c0.115-0.032,0.226-0.072,0.332-0.123c1.062-0.517,2.036-1.243,2.984-1.966   c3.645-2.78,7.786-4.556,12.298-4.784c5.81-0.294,11.732-0.62,17.458,0.155c9.692,1.31,19.297,3.337,28.887,5.31   c11.572,2.381,23.09,5.156,35.006,4.84C354.06,379.122,359.611,378.476,365.162,378.056z"/>
	<path d="M243.065,223.082c16.457,1.528,24.937,12.524,25.592,26.242c0.834,17.474-12.385,32.785-29.725,34.747   c-22.643,2.562-37.341-18.333-29.207-38.422c4.8-11.854,13.664-19.461,26.398-22.149c0.916-0.193,1.862-0.295,2.799-0.337   C240.548,223.09,242.18,223.097,243.065,223.082z"/>
	<path d="M335.943,258.467c0.122-3.53,0.222-6.968,0.364-10.405c0.203-4.894,0.467-9.787,0.634-14.682   c0.04-1.154,0.415-1.575,1.596-1.782c11.889-2.084,23.774-1.284,35.664-0.073c0.311,0.032,0.618,0.11,0.926,0.17   c4.235,0.837,7.586,2.729,8.515,7.36c0.967,4.823,0.117,9.161-3.816,12.457c-4.756,3.985-10.546,5.457-16.5,6.272   c-3.721,0.509-7.494,0.788-11.25,0.855C346.757,258.734,341.431,258.54,335.943,258.467z"/>
	<path d="M253.684,497.264c-6.746,0-13.484-0.265-20.19-0.796c-33.69-2.659-65.972-11.78-95.95-27.105   c-30.327-15.505-56.786-36.599-78.638-62.699C23.084,363.88,3.389,314.348,0.373,259.449   C-3.005,198.007,16.658,138.278,55.74,91.263c38.271-46.036,91.903-76.371,151.02-85.415c17.856-2.735,38.219-3.768,53.138-2.696   l0.453,0.035c49.24,3.888,95.64,20.441,134.182,47.869c41.268,29.369,72.34,70.651,89.86,119.383   c8.22,22.868,12.835,42.046,14.521,60.355c4.394,47.677-4.569,93.262-26.639,135.484c-17.843,34.137-44.31,64.066-76.54,86.55   c-32.181,22.451-69.454,37.028-107.79,42.155C276.59,496.502,265.126,497.264,253.684,497.264z M247.202,8.499   c-12.449,0-26.666,1.069-39.57,3.044C149.909,20.374,97.54,49.994,60.171,94.948C22.023,140.839,2.828,199.149,6.125,259.133   c2.949,53.628,22.192,102.021,57.199,143.834c21.354,25.502,47.208,46.115,76.844,61.265c29.298,14.979,60.85,23.893,93.78,26.494   c17.677,1.395,35.587,0.907,53.234-1.454c37.43-5.006,73.828-19.243,105.259-41.171c31.472-21.955,57.313-51.173,74.73-84.492   c21.547-41.224,30.296-85.733,26.008-132.288c-1.642-17.809-6.156-36.536-14.206-58.933   c-17.121-47.621-47.474-87.953-87.78-116.637C353.499,28.927,308.098,12.737,259.898,8.93l0.002,0.002l-0.309-0.024   C255.774,8.633,251.597,8.499,247.202,8.499z"/>
</g>















</svg>
