<?xml version="1.0" encoding="iso-8859-1"?>
<!-- Generator: Adobe Illustrator 26.5.1, SVG Export Plug-In . SVG Version: 6.00 Build 0)  -->
<svg xmlns="http://www.w3.org/2000/svg" xmlns:xlink="http://www.w3.org/1999/xlink" version="1.1" id="Capa_1" x="0px" y="0px" viewBox="0 0 512 512" style="enable-background:new 0 0 512 512;" xml:space="preserve">
<g>
	<path style="fill:#FFFFFF;" d="M255.674,511.247c-63.575-0.004-127.746-26.653-176.521-73.214l-25.945-5.081   c-7.528-1.483-13.027-7.858-13.38-15.506c-0.278-5.933-0.661-15.346-0.913-26.462l-0.034-1.681   c-24.566-38.279-37.87-81.343-38.506-124.736c-3.112-60.696,13.163-116.536,47.105-161.77C46.692,81.687,59.017,77.446,64.6,76.611   c1.033-0.154,2.075-0.233,3.099-0.233c0.9,0,1.791,0.059,2.672,0.176C119.016,28.306,187.545,0.753,259.394,0.753   c72.474,0,138.96,28.128,187.236,79.215c18.216,18.086,33.789,42.645,45.112,71.125c7.366,7.849,12.276,14.847,15.149,19.438   c4.029,6.438,2.743,14.65-2.915,19.531c7.439,31.363,9.766,64.093,6.726,95.086c-3.488,35.554-14.096,68.086-30.682,94.097   c-12.792,22.279-28.89,42.586-47.852,60.362c-36.068,33.903-80.227,56.852-127.695,66.361c-15.938,3.503-32.354,5.28-48.79,5.28   C255.681,511.247,255.677,511.247,255.674,511.247z"/>
	<g>
		<g>
			<g>
				<g>
					<path style="fill:#C0D48C;" d="M471.778,374.254c-12.375,21.597-28.04,41.303-46.199,58.326       c-34.114,32.067-77.123,54.772-123.088,63.962C160.07,527.906,12.016,409.392,10.004,264.255       C-2.36,25.984,292.357-69.446,439.735,86.698C503.839,150.212,525.921,289.607,471.778,374.254z"/>
				</g>
			</g>
		</g>
		<g>
			<g>
				
					<ellipse transform="matrix(0.7071 -0.7071 0.7071 0.7071 -96.7059 318.3331)" style="fill:#FFC063;" cx="335.909" cy="275.901" rx="133.793" ry="133.793"/>
			</g>
			<g>
				<g>
					<path style="fill:#E36352;" d="M66.024,86.139c-23.244,3.478,6.07,66.706,6.07,66.706l21.218-1.391       C93.312,151.454,89.277,82.669,66.024,86.139z M69.32,98.104c14.896-2.226,17.479,41.845,17.479,41.845l-13.592,0.887       C73.207,140.836,54.424,100.331,69.32,98.104z"/>
				</g>
				<g>
					<path style="fill:#412945;" d="M393.417,429.78c-3.331,15.322-17.983,27.314-71.272,31.975       c-53.28,4.661-99.238-2-128.552-10.661c-29.305-8.652-78.594-29.966-78.594-29.966l-0.278,5.939       c-0.209,4.244-4.122,7.313-8.287,6.496l-51.376-10.061c-3.139-0.617-5.461-3.296-5.609-6.496       c-0.261-5.591-0.652-15.044-0.904-26.236c-0.008-0.384,4.498-0.937,4.491-1.325c-0.01-0.481-4.533-0.798-4.543-1.284       c-0.522-26.81-0.156-62.228,4.565-78.942c5.139-18.192,11.696-31.697,16.166-39.654c3.27-5.826,4.444-12.583,3.374-19.174       L55.049,142.709c0,0,51.619-24.827,95.96-22.07c0.426,0.026,0.861,0.052,1.287,0.087c0,0,0.018-0.487,0.122-1.296       c0.531-4.113,3.287-16.575,17.201-16.027c14.131,0.565,20.105,15.035,21.601,19.409c0.261,0.783,0.383,1.244,0.383,1.244       s0.513,0.096,1.357,0.278h0.009c3.678,0.817,13.539,3.383,14.618,7.713c1.191,4.791,5.078,100.368,20.818,142.961       c0.165,0.442-1.965,0.702-1.799,1.133c0.184,0.475,2.664,1.12,2.851,1.581c1.157,2.861,2.374,5.435,3.652,7.67       c0.365,0.643,0.589,3.554,0.971,4.145c20.644,31.966,56.1,48.996,56.1,48.996s0.452,0.018,1.296,0.07       c8.713,0.496,58.897,3.939,75.298,17.914c16.053,13.67,16.714,46.967,16.679,53.976c-0.009,0.843-2.081,4.121-2.081,4.121       s2.542-2.721,3.308-2.452C387.912,413.283,396.112,417.396,393.417,429.78z"/>
				</g>
				<g>
					<g>
						<path style="fill:#F7EDE5;" d="M383.86,410.57c-0.139-0.052-0.278-0.078-0.409-0.078c-0.548-0.009-1.061,0.33-1.252,0.87        c-7.531,21.323-90.333,25.236-141.804,18.462c-17.705-2.331-34.375-6.044-50.045-10.227        c5.687-5.331,50.61-48.271,53.167-79.629c0.896-10.905-4.583-20.366-12.783-28.888c4.244-3.261,9-6.026,14.07-7.513        c15.235,16.835,31.975,30.749,44.871,36.166c0.165,0.069,0.33,0.104,0.504,0.104c0.504,0,0.991-0.304,1.2-0.8        c0.061-0.139,0.096-0.296,0.096-0.435c-0.844-0.052-1.296-0.07-1.296-0.07s-35.305-19.322-55.95-51.288        c-0.383-0.591-0.757-1.209-1.122-1.852c-1.957-2.583-3.852-5.183-5.661-7.8c0.67,0.026,1.339,0.061,2.009,0.13        c-0.357-0.878-0.704-1.783-1.052-2.713c-0.922-0.052-1.844-0.069-2.757-0.052c-3.313-4.939-6.331-9.896-8.922-14.748        c-2.87-5.374-5.331-11.183-7.452-17.209c1.948,0.565,3.835,1.383,5.617,2.496c0.609,0.382,1.409,0.2,1.791-0.409        c0.383-0.617,0.2-1.417-0.409-1.8c-2.539-1.583-5.235-2.635-8.009-3.261c-2.504-7.609-4.487-15.522-6.052-23.322        c1.896,0.87,3.713,1.983,5.435,3.391c0.557,0.452,1.383,0.365,1.835-0.191c0.461-0.557,0.374-1.374-0.183-1.835        c-2.426-1.982-5.018-3.444-7.696-4.487c-1.626-8.652-2.765-17.105-3.574-24.818c2.844,1.331,5.609,3.139,8.235,5.531        c0.53,0.478,1.356,0.443,1.844-0.087c0.487-0.53,0.443-1.357-0.087-1.844c-3.27-2.974-6.739-5.113-10.296-6.583        c-1.017-10.609-1.426-19.566-1.661-25.323c7.6,3.47,10.826,8.2,10.87,8.27c0.4,0.609,1.209,0.774,1.809,0.383        c0.6-0.4,0.774-1.209,0.382-1.809c-0.226-0.339-4.061-6.026-13.183-9.783c-0.817-18.722-2.574-30.644-2.974-33.184h-0.009        c-0.044-0.322-0.078-0.487-0.078-0.504c-0.122-0.704-0.8-1.183-1.504-1.061c-0.052,0.009-0.104,0.026-0.157,0.043        c-0.626,0.183-1.018,0.809-0.904,1.461c0.017,0.122,2.035,12.027,2.974,32.262c-3.548-1.174-7.765-2.035-12.731-2.252        c-6.887-0.322-13.322,1.182-18.844,3.33c-2.852-29.392-8.104-37.288-8.339-37.636c-0.226-0.33-0.583-0.522-0.957-0.548        c-0.287-0.026-0.591,0.043-0.852,0.217c-0.339,0.235-0.53,0.609-0.556,0.991c-0.026,0.278,0.043,0.565,0.209,0.817        c0.061,0.087,5.218,8.078,7.974,37.21c-3.296,1.461-6.2,3.104-8.592,4.635c-1.452-3.774-4.33-6.357-7.626-6.357        c-4.757,0-8.626,5.365-8.626,11.957c0,6.6,3.87,11.966,8.626,11.966c4.757,0,8.635-5.365,8.635-11.966        c0-1-0.104-1.974-0.27-2.904c2.235-1.461,4.974-3.061,8.105-4.513c0.07,0.861,0.148,1.739,0.217,2.635        c0.53,6.931,0.948,14.261,1.391,22.018c0.035,0.609,0.07,1.217,0.104,1.826c-3.235,1.339-6.139,2.783-8.557,4.104        c-1.565-2.983-4.104-4.931-6.957-4.931c-4.765,0-8.635,5.365-8.635,11.966c0,6.591,3.87,11.957,8.635,11.957        c4.757,0,8.627-5.365,8.627-11.957c0-1.644-0.235-3.2-0.67-4.618c2.183-1.209,4.8-2.531,7.722-3.783        c0.531,9.148,1.113,18.557,1.957,27.653c-2.209,1.052-4.217,2.113-5.965,3.096c-1.548-3.278-4.209-5.452-7.235-5.452        c-4.757,0-8.626,5.365-8.626,11.966c0,6.591,3.87,11.957,8.626,11.957c4.757,0,8.635-5.365,8.635-11.957        c0-1.391-0.183-2.722-0.504-3.965c1.574-0.878,3.374-1.835,5.348-2.783c1.052,10.591,2.496,20.661,4.652,29.296        c-1.426,0.861-2.704,1.678-3.818,2.417c-0.652-1.217-1.435-2.304-2.356-3.2c-2.052-2.026-4.487-2.887-6.844-2.426        c-2.357,0.461-4.287,2.165-5.435,4.817c-1.078,2.478-1.339,5.522-0.748,8.574c1.148,5.913,5.278,10.209,9.548,10.209        c0.409,0,0.809-0.043,1.209-0.122c2.357-0.452,4.287-2.165,5.435-4.809c1.078-2.479,1.348-5.531,0.748-8.583        c-0.13-0.687-0.304-1.339-0.513-1.983c1.009-0.67,2.174-1.417,3.478-2.217c1.513,5.426,3.331,10.209,5.574,14.061        c3.739,6.452,11.687,12.774,20.766,19.331c-1.469,1.061-2.8,2.096-4,3.07c-3.609-5.261-9.565-7.505-13.47-4.983        c-4,2.574-4.339,9.183-0.765,14.731c2.6,4.026,6.574,6.4,10.087,6.4c1.313,0,2.565-0.331,3.652-1.035        c3.539-2.278,4.209-7.713,1.843-12.774c1.435-1.174,3.105-2.452,4.965-3.757c1.356,0.965,2.731,1.939,4.113,2.913        c8.635,6.105,17.792,12.583,25.096,19.661c-4.6,3.861-8.487,8.131-11.426,11.766c-3.452-2.974-7.739-3.896-10.774-1.939        c-2.017,1.296-3.174,3.6-3.261,6.487c-0.078,2.704,0.809,5.626,2.496,8.244c2.6,4.026,6.574,6.4,10.087,6.4        c1.313,0,2.565-0.33,3.652-1.035c4-2.583,4.339-9.183,0.765-14.731c-0.348-0.531-0.713-1.017-1.104-1.487        c2.939-3.626,6.852-7.939,11.479-11.792c7.835,8.096,13.053,17,12.227,27.036c-2.591,31.749-52.367,77.942-52.863,78.403        c-0.217,0.2-0.33,0.452-0.374,0.722c-12.887-3.513-25.088-7.322-36.61-10.913c-13.253-4.139-25.766-8.044-37.097-10.766        c-25.227-6.052-53.384-8.305-65.48-9.044c0.018,0.878,0.035,1.748,0.052,2.609c12.105,0.748,39.914,3,64.82,8.974        c11.244,2.696,23.723,6.592,36.932,10.713c26.331,8.218,56.176,17.531,89.759,21.949c15.435,2.035,33.097,3.07,50.506,3.07        c12.94,0,25.74-0.574,37.375-1.731c23.227-2.313,51.923-7.913,56.724-21.514c0.009-0.026,0.017-0.044,0.017-0.07        C384.868,411.501,384.512,410.796,383.86,410.57z M142.974,178.258c-3.261,0-6.018-4.287-6.018-9.357s2.757-9.348,6.018-9.348        c2.322,0,4.383,2.174,5.383,5.244c-3.078,2.157-4.931,3.835-5.157,4.035c-0.531,0.487-0.565,1.313-0.078,1.843        c0.261,0.278,0.609,0.417,0.965,0.417c0.313,0,0.626-0.113,0.878-0.339c0.052-0.044,1.487-1.339,3.965-3.113        c0.044,0.417,0.07,0.835,0.07,1.261C149,173.971,146.235,178.258,142.974,178.258z M145.643,208.451        c-3.27,0-6.026-4.279-6.026-9.348c0-5.07,2.757-9.357,6.026-9.357c1.879,0,3.583,1.426,4.696,3.6        c-3.235,1.896-5.174,3.313-5.261,3.374c-0.574,0.435-0.696,1.243-0.261,1.826c0.252,0.348,0.643,0.522,1.043,0.522        c0.27,0,0.548-0.078,0.774-0.252c0.078-0.061,1.774-1.296,4.626-2.992c0.252,1.026,0.4,2.131,0.4,3.279        C151.661,204.172,148.904,208.451,145.643,208.451z M150.078,237.312c-3.261,0-6.018-4.278-6.018-9.348        c0-5.07,2.757-9.357,6.018-9.357c2.035,0,3.87,1.67,4.974,4.148c-2.913,1.73-4.748,3.035-5.07,3.261        c-0.583,0.417-0.722,1.235-0.296,1.817c0.252,0.357,0.652,0.548,1.061,0.548c0.261,0,0.531-0.078,0.757-0.243        c0.078-0.052,1.678-1.183,4.348-2.774c0.157,0.826,0.252,1.696,0.252,2.6C156.105,233.034,153.348,237.312,150.078,237.312z         M162.809,264.931c-0.8,1.835-2.052,3.009-3.539,3.296c-3.209,0.626-6.731-3.052-7.705-8.026        c-0.487-2.539-0.287-5.044,0.583-7.044c0.8-1.835,2.061-3,3.548-3.287c0.235-0.052,0.478-0.07,0.731-0.07        c1.27,0,2.591,0.617,3.783,1.792c0.791,0.774,1.469,1.73,2.009,2.817c-1.417,0.991-2.296,1.67-2.504,1.835        c-0.565,0.435-0.669,1.252-0.226,1.826c0.252,0.331,0.644,0.504,1.026,0.504c0.278,0,0.565-0.087,0.8-0.278        c0.043-0.035,0.704-0.539,1.861-1.348c0.078,0.313,0.157,0.626,0.217,0.948C163.887,260.435,163.679,262.931,162.809,264.931z         M189.34,302.575c-2.739,1.774-7.383-0.33-10.131-4.591c-2.748-4.261-2.757-9.357-0.009-11.122        c0.661-0.426,1.435-0.635,2.261-0.635c2.574,0,5.704,1.948,7.783,5.113c-2.574,2.235-4.131,3.861-4.365,4.113        c-0.496,0.522-0.47,1.348,0.052,1.844c0.252,0.235,0.574,0.357,0.896,0.357c0.348,0,0.687-0.139,0.948-0.409        c0.052-0.061,1.409-1.47,3.739-3.504C191.993,297.393,191.61,301.115,189.34,302.575z M216.133,338.542        c-2.739,1.774-7.383-0.331-10.131-4.592c-1.4-2.174-2.139-4.565-2.078-6.748c0.061-2,0.791-3.557,2.07-4.374        c0.661-0.426,1.435-0.626,2.261-0.626c1.739,0,3.722,0.896,5.47,2.435c-2.739,3.574-4.357,6.183-4.591,6.548        c-0.374,0.617-0.183,1.418,0.435,1.8c0.209,0.13,0.443,0.191,0.678,0.191c0.443,0,0.87-0.226,1.113-0.626        c0.052-0.087,1.557-2.505,4.191-5.931c0.191,0.261,0.391,0.522,0.574,0.8C218.872,331.681,218.872,336.776,216.133,338.542z         M163.661,185.989c-0.444-7.774-0.87-15.114-1.4-22.07c-0.096-1.209-0.191-2.383-0.296-3.531        c5.418-2.209,11.757-3.8,18.47-3.504c5.148,0.226,9.444,1.2,12.974,2.487c0.217,5.496,0.591,14.54,1.6,25.418        c-10.765-3.426-22.131-1.226-31.297,2.174C163.696,186.641,163.679,186.311,163.661,185.989z M163.87,189.676        c9.157-3.522,20.696-5.87,31.418-2.035c0.783,7.722,1.887,16.244,3.487,25.01c-11.122-3.07-23.479,0.383-32.984,4.557        C164.975,208.146,164.4,198.772,163.87,189.676z M166.062,220.051c9.574-4.287,22.314-8,33.27-4.47        c1.548,7.974,3.522,16.088,6.026,23.931c-12.253-1.487-25.697,4.417-34.81,9.626        C168.47,240.582,167.079,230.573,166.062,220.051z M197.532,285.001c-9.148-6.565-17.192-12.87-20.792-19.061        c-2.217-3.818-4.018-8.626-5.505-14.122c9.122-5.252,23.009-11.487,35.045-9.505c2.278,6.704,4.965,13.174,8.148,19.122        c2.409,4.513,5.183,9.113,8.217,13.714C213.046,276.088,204.237,280.505,197.532,285.001z M203.184,289.018        c-1.113-0.783-2.209-1.565-3.304-2.339c6.67-4.331,15.287-8.461,24.444-9.026c5.539,8.113,11.87,16.192,18.548,23.74        c-5.104,1.678-9.835,4.504-14.052,7.765C221.341,301.862,212.002,295.253,203.184,289.018z"/>
					</g>
				</g>
				<g>
					<g>
						<path style="fill:#F7EDE5;" d="M343.457,393.232c-2.664,1.934-5.197,4.485-5.712,7.736c-0.728,4.603,3.075,8.999,7.529,10.368        c4.454,1.37,9.284,0.387,13.712-1.064c3.319-1.088,6.736-2.578,8.73-5.445c4.11-5.91-0.267-12.638-5.82-15.591        C356.158,386.185,348.203,389.786,343.457,393.232z"/>
					</g>
					<g>
						<path style="fill:#F7EDE5;" d="M288.515,401.666c-4.376,0.306-9.04-0.785-12.998,1.109c-3.839,1.837-6.046,6.42-5.39,10.624        c0.656,4.205,3.954,7.799,7.998,9.123c4.044,1.324,8.662,0.468,12.165-1.948c2.16-1.489,3.905-3.506,5.994-5.092        c2.09-1.587,4.754-2.756,7.304-2.14c1.54,0.372,2.851,1.346,4.247,2.096c4.482,2.405,10.162,2.417,14.654,0.032        c8.021-4.26,7.826-16.81-1.109-19.768C309.634,391.81,299.751,400.88,288.515,401.666z"/>
					</g>
					<g>
						<g>
							<path style="fill:#F7EDE5;" d="M66.768,323.743c0.028,2.363,0.406,4.786-0.271,7.051c-0.618,2.066-2.056,3.789-2.847,5.795         c-1.737,4.408,0.273,9.962,4.436,12.225c4.163,2.263,9.927,0.922,12.651-2.955c2.412-3.433,2.364-8.017,1.611-12.145         c-0.288-1.581-0.666-3.153-0.745-4.758c-0.315-6.457,3.707-14.943-4.556-18.176         C69.059,307.654,66.698,317.813,66.768,323.743z"/>
						</g>
						<g>
							<path style="fill:#F7EDE5;" d="M67.138,360.714c-1.514,2.797-1.754,6.402-0.085,9.11s5.43,4.109,8.265,2.665         c1.455-0.741,2.519-2.089,3.282-3.533c1.396-2.644,1.886-5.93,0.592-8.625C76.688,355.119,69.64,356.091,67.138,360.714z"/>
						</g>
					</g>
				</g>
			</g>
			<g>
				<g>
					<g>
						<path style="fill:#412945;" d="M347.868,102.467c0,0-135.063-17.5-137.382-0.482c-2.319,17.018,36.831-1.225,60.479-0.225        c23.648,1.001,78.118,5.615,78.118,5.615L347.868,102.467z"/>
					</g>
					<g>
						<path style="fill:#412945;" d="M388.948,121.303c0,0,77.169,112.22,63.082,122.045c-14.088,9.825-15.706-33.337-27.381-53.926        c-11.675-20.589-40.622-66.961-40.622-66.961L388.948,121.303z"/>
					</g>
				</g>
				<g>
					<path style="fill:#F8BDFF;" d="M239.29,28.092c-2.68-0.305-5.172,1.399-5.921,3.989c-2.37,8.199-4.522,27.084,14.611,49.905       c28.639,34.161,52.357,41.658,63.541,43.546c23.556,3.976,31.484-7.78,45.632-1.794c15.65,6.622,9.489,33.065,39.205,52.602       c28.255,18.576,75.496,25.894,101.013,6.682c2.301-1.732,2.883-4.939,1.355-7.38c-5.8-9.267-22.469-32.023-54.254-47.579       c-12.4-6.069-25.758-10.129-39.407-12.162c-6.509-0.97-13.177-1.698-19.76-1.332c-6.476,0.36-13.087,1.678-19.459-0.205       c-7.177-2.121-9.828-7.229-13.622-13.08c-4.159-6.414-8.75-12.547-13.726-18.35c-17.573-20.489-39.951-36.878-65.228-46.512       C262.341,32.257,250.913,29.414,239.29,28.092z"/>
				</g>
				<g>
					<path style="fill:#F7EDE5;" d="M320.132,119.958c-1.035,0-2.03-0.024-2.973-0.063c-24.326-1.026-50.181-16.934-65.871-40.524       c-4.475-6.73-6.859-12.466-7.502-18.051c-1.337-11.615,5.65-20.648,16.992-21.969l0,0c2.273-0.263,4.573-0.226,6.838,0.113       c14.026,2.106,28.667,12.048,41.14,21.495c12.215,9.252,22.914,20.18,31.802,32.481c3.541,4.901,6.683,10.102,5.698,14.931       c-0.56,2.747-2.42,5.091-5.529,6.967C334.601,119.034,326.598,119.958,320.132,119.958z M261.053,41.713       c-10.11,1.177-16.099,8.947-14.904,19.333c0.598,5.198,2.861,10.603,7.12,17.007c12.522,18.828,37.163,38.333,63.989,39.465       c5.32,0.222,15.29-0.024,22.239-4.217c2.552-1.54,4-3.308,4.428-5.406c0.801-3.93-2.071-8.601-5.296-13.063       c-8.749-12.11-19.283-22.868-31.309-31.977c-12.234-9.267-26.56-19.012-40.058-21.04       C265.21,41.506,263.12,41.472,261.053,41.713L261.053,41.713z"/>
				</g>
				<g>
					<path style="fill:#F7EDE5;" d="M449.96,191.323c-11.713,0-24.072-3.032-35.757-8.775       c-13.397-6.584-24.746-16.783-32.821-29.495c-3.806-5.992-8.568-18.18-5.144-25.375c1.523-3.2,4.411-5.071,8.584-5.561       c15.942-1.865,35.524,2.007,58.187,11.519c6.568,2.756,28.598,12.847,36.329,26.958l0,0c3.08,5.622,3.506,11.222,1.267,16.643       c-5.369,13.004-24.669,14.069-30.456,14.086C450.086,191.323,450.023,191.323,449.96,191.323z M392.915,124.039       c-2.7,0-5.306,0.147-7.817,0.441c-3.353,0.392-5.548,1.773-6.713,4.22c-2.852,5.993,1.209,17.103,5.004,23.077       c7.841,12.343,18.858,22.245,31.863,28.635c11.359,5.583,23.357,8.532,34.707,8.532c0.061,0,0.12,0,0.182,0       c11.16-0.033,24.446-3.363,28.266-12.615c1.95-4.724,1.562-9.634-1.156-14.594l0,0c-5.847-10.674-21.998-20.381-35.162-25.906       C423.41,127.99,406.914,124.039,392.915,124.039z"/>
				</g>
				<g>
					<g>
						<path style="fill:#F7EDE5;" d="M246.891,37.721c-0.437,2.344-2.691,3.891-5.036,3.454c-2.344-0.437-3.891-2.692-3.454-5.036        c0.437-2.345,2.691-3.891,5.036-3.454C245.781,33.122,247.328,35.377,246.891,37.721z"/>
					</g>
					<g>
						<path style="fill:#F7EDE5;" d="M493.738,178.971c-0.437,2.345-2.691,3.891-5.036,3.454c-2.345-0.437-3.891-2.691-3.454-5.036        c0.437-2.344,2.691-3.891,5.036-3.454C492.629,174.371,494.175,176.626,493.738,178.971z"/>
					</g>
				</g>
				<g>
					<path style="fill:#F7EDE5;" d="M322.41,84.638c-1.99-1.456-4.124-2.802-6.517-3.396s-5.102-0.338-7.049,1.174       c-1.359,1.054-2.244,2.632-2.711,4.287c-0.568,2.008-0.55,4.215,0.269,6.134c1.694,3.969,6.17,5.795,9.512,8.525       c1.973,1.612,3.615,3.618,5.691,5.095c2.076,1.477,4.827,2.38,7.183,1.41c2.919-1.201,4.114-4.794,3.944-7.946       C332.355,92.917,327.718,88.521,322.41,84.638z"/>
				</g>
				<g>
					<path style="fill:#F7EDE5;" d="M446.088,149.341c-2.484,1.11-4.557,3.363-4.954,6.054c-0.38,2.578,0.79,5.175,2.461,7.174       c1.671,1.999,3.818,3.53,5.826,5.191c2.764,2.286,5.34,4.877,8.528,6.521c9.104,4.696,18.755-4.874,14.429-14.064       C468.526,152.036,454.48,145.591,446.088,149.341z"/>
				</g>
			</g>
			<g>
				<g>
					<path style="fill:#FFFFFF;" d="M283.543,223.787c3.823,0.247,6.676,0.245,8.564-0.007c1.886-0.252,3.507-1.075,4.863-2.468       c1.355-1.394,1.987-3.374,1.897-5.94c-2.39,1.028-4.328,1.64-5.817,1.839c-5.214,0.696-9.43-0.218-12.648-2.745       c-3.218-2.526-5.184-6.458-5.896-11.796c-0.714-5.337,0.333-9.886,3.141-13.647c2.807-3.76,7.041-6.02,12.701-6.776       c5.66-0.757,10.381,0.634,14.164,4.171c3.782,3.538,6.192,9.178,7.225,16.924c1.294,9.681,0.563,17.347-2.195,22.996       c-2.758,5.65-7.537,8.928-14.338,9.838c-8.441,1.128-12.85,0.276-13.229-2.554c-0.199-1.489-0.161-3.477,0.113-5.966       C282.363,225.17,282.847,223.881,283.543,223.787z M291.99,195.673c-1.591,0.213-2.751,0.886-3.482,2.019       c-0.733,1.135-0.994,2.496-0.782,4.085c0.214,1.59,0.892,2.799,2.039,3.631c1.147,0.833,2.515,1.142,4.104,0.929       c1.588-0.212,2.832-0.731,3.734-1.56c-0.457-3.425-1.111-5.851-1.959-7.281C294.797,196.069,293.578,195.46,291.99,195.673z"/>
					<path style="fill:#FFFFFF;" d="M337.168,238.1c-6.1-1.517-10.526-4.992-13.277-10.427c-2.752-5.434-3.057-12.452-0.916-21.056       c2.141-8.604,5.703-14.62,10.686-18.053c4.983-3.431,10.549-4.382,16.698-2.851c6.148,1.53,10.575,4.955,13.278,10.272       c2.702,5.318,2.96,12.377,0.77,21.174c-2.189,8.798-5.751,14.867-10.686,18.207C348.786,238.708,343.268,239.619,337.168,238.1       z M346.729,199.675c-1.871-0.465-3.714,0.198-5.527,1.993c-1.815,1.794-3.205,4.636-4.173,8.524       c-0.968,3.89-1.088,7.021-0.364,9.394c0.725,2.375,2.073,3.807,4.042,4.296c1.968,0.49,3.831-0.155,5.591-1.938       c1.76-1.78,3.123-4.615,4.091-8.505c0.968-3.889,1.068-7.038,0.3-9.448C349.921,201.58,348.601,200.142,346.729,199.675z"/>
					<path style="fill:#FFFFFF;" d="M381.834,219.989c-0.602-0.359-1.152-0.805-1.652-1.337c-0.999-1.063-1.266-1.982-0.803-2.756       l8.131-13.609c0.464-0.774,1.721-0.78,3.776-0.02c1.006,0.369,1.982,0.834,2.927,1.4c0.946,0.564,1.84,1.216,2.685,1.954       c1.642,1.449,2.233,2.56,1.77,3.334l-12.001,11.297c-0.463,0.773-1.421,0.96-2.874,0.559       C383.089,220.622,382.436,220.349,381.834,219.989z"/>
					<path style="fill:#FFFFFF;" d="M388.115,247.206c1.168,4.596,2.591,7.719,4.268,9.371c1.071,1.055,1.976,1.207,2.715,0.457       c0.527-0.535,0.283-2.145-0.728-4.829c-2.671-6.214-1.966-11.39,2.112-15.531c2.6-2.641,5.549-3.708,8.848-3.202       c3.297,0.505,6.293,2.085,8.988,4.738c2.694,2.654,4.698,5.189,6.01,7.606c1.31,2.416,1.508,4.088,0.596,5.015       c-0.774,0.786-2.177,1.443-4.209,1.973c-2.034,0.529-3.245,0.706-3.636,0.533c-0.691-2.368-1.929-4.431-3.714-6.188       c-0.963-0.949-1.78-1.084-2.447-0.406c-0.422,0.429-0.595,0.979-0.518,1.652c0.075,0.673,0.393,1.723,0.954,3.153       c0.559,1.431,0.993,2.649,1.304,3.657c0.308,1.007,0.556,2.235,0.744,3.687c0.377,3.044-0.505,5.654-2.648,7.83       c-2.813,2.856-6.035,4.235-9.665,4.139c-3.632-0.097-7.357-2.024-11.176-5.784c-2.534-2.496-4.415-5.191-5.641-8.086       c-1.227-2.895-1.102-5.092,0.375-6.591c0.982-0.999,2.261-1.815,3.832-2.448C386.052,247.32,387.263,247.071,388.115,247.206z"/>
				</g>
				<g>
					<path style="fill:#FFFFFF;" d="M276.426,289.418c4.029,1.588,7.103,2.2,9.224,1.838c1.353-0.229,1.948-0.818,1.786-1.766       c-0.116-0.676-1.438-1.356-3.967-2.039c-6.03-1.338-9.49-4.623-10.382-9.855c-0.569-3.337,0.214-6.092,2.349-8.267       c2.135-2.174,4.905-3.551,8.31-4.132c3.403-0.581,6.352-0.711,8.842-0.395c2.492,0.319,3.837,1.064,4.038,2.235       c0.168,0.993-0.093,2.384-0.786,4.173c-0.692,1.788-1.208,2.781-1.545,2.978c-2.124-0.753-4.314-0.935-6.568-0.551       c-1.218,0.208-1.754,0.741-1.608,1.597c0.092,0.541,0.408,0.963,0.946,1.264c0.54,0.304,1.488,0.629,2.848,0.976       c1.357,0.35,2.494,0.679,3.404,0.987c0.911,0.31,1.955,0.781,3.131,1.415c2.457,1.346,3.919,3.393,4.389,6.143       c0.614,3.61-0.083,6.733-2.091,9.372c-2.011,2.64-5.428,4.37-10.253,5.194c-3.202,0.546-6.203,0.501-9.003-0.136       c-2.801-0.637-4.362-1.901-4.685-3.796c-0.215-1.262-0.138-2.643,0.231-4.147C275.409,291.008,275.871,289.978,276.426,289.418       z"/>
					<path style="fill:#FFFFFF;" d="M320.481,298.852c-0.047,0.547-1.985,0.655-5.814,0.324c-4.543-0.577-6.795-1.07-6.759-1.48       l2.092-24.202l-3.486-0.302c-0.913-0.079-1.23-1.69-0.959-4.836c0.07-0.82,0.236-1.815,0.499-2.987       c0.262-1.171,0.643-1.736,1.144-1.692l3.624,0.314l0.52-6.017c0.079-0.911,2.043-1.2,5.895-0.867       c3.851,0.333,5.746,0.865,5.683,1.593l-0.378,4.376l-0.097,1.92l5.811,0.501c0.774,0.068,1.023,1.697,0.748,4.888       c-0.276,3.19-0.801,4.751-1.576,4.684l-4.854-0.42L320.481,298.852z"/>
					<path style="fill:#FFFFFF;" d="M336.82,266.868c0.182-0.469,2.225,0.051,6.129,1.562c3.903,1.511,5.837,2.505,5.8,2.98       l-1.237,16.887l10.31-13.523c0.301-0.275,1.69,0.066,4.165,1.023c5.672,2.196,8.276,3.522,7.805,3.977l-31.608,36.994       c-0.142,0.239-1.355-0.083-3.636-0.966c-2.284-0.883-4.377-1.781-6.282-2.688c-1.904-0.911-2.773-1.454-2.604-1.634       l10.768-11.285L336.82,266.868z"/>
					<path style="fill:#FFFFFF;" d="M368.378,319.863c-0.239,0.337-2.26-0.85-6.062-3.556c-2.954-2.16-4.339-3.37-4.153-3.631       l27.101-38.07c0.398-0.559,2.405,0.448,6.02,3.022c3.087,2.367,4.54,3.682,4.354,3.942L368.378,319.863z"/>
					<path style="fill:#FFFFFF;" d="M389.615,340.372c-3.167-1.067-6.236-3.31-9.205-6.73c-2.969-3.42-4.307-7.317-4.016-11.691       c0.293-4.374,2.503-8.352,6.632-11.936c4.127-3.583,8.433-5.339,12.921-5.266c4.485,0.073,8.228,1.838,11.228,5.292       c2.999,3.454,4.434,6.887,4.307,10.3c-0.127,3.412-1.452,6.213-3.974,8.402c-5.594,4.859-11.183,4.076-16.76-2.351       l-3.104-3.575c-1.036,0.899-1.507,1.807-1.408,2.722c0.097,0.914,0.626,1.924,1.585,3.03c2.1,2.418,4.646,4.236,7.643,5.452       c0.062,0.005-0.044,0.37-0.322,1.096c-0.765,2.118-1.658,3.621-2.677,4.506C391.444,340.51,390.495,340.758,389.615,340.372z        M398.966,320.894c1.452-1.26,1.562-2.598,0.332-4.015c-0.57-0.656-1.256-1.044-2.058-1.167       c-0.802-0.12-1.582,0.149-2.343,0.807l-1.606,1.396l2.43,2.798C396.709,321.854,397.791,321.914,398.966,320.894z"/>
				</g>
			</g>
		</g>
		<g>
			<g>
				<g>
					<path style="fill:#F7EDE5;" d="M139.262,72.348c-0.466,0-0.922-0.225-1.201-0.64c-0.444-0.663-0.267-1.561,0.395-2.006       l37.585-25.205c0.663-0.442,1.56-0.267,2.006,0.395c0.444,0.663,0.267,1.561-0.395,2.006l-37.585,25.205       C139.819,72.269,139.539,72.348,139.262,72.348z"/>
				</g>
				<g>
					<path style="fill:#F7EDE5;" d="M144.467,80.109c-0.466,0-0.922-0.225-1.201-0.641c-0.444-0.662-0.267-1.56,0.396-2.005       l37.585-25.204c0.66-0.443,1.56-0.268,2.005,0.396c0.444,0.662,0.267,1.56-0.396,2.005L145.27,79.865       C145.023,80.03,144.744,80.109,144.467,80.109z"/>
				</g>
				<g>
					<path style="fill:#F7EDE5;" d="M149.673,87.872c-0.466,0-0.922-0.225-1.201-0.64c-0.444-0.663-0.267-1.561,0.395-2.006       l37.585-25.205c0.662-0.442,1.561-0.266,2.006,0.395c0.444,0.663,0.267,1.561-0.395,2.006l-37.585,25.205       C150.229,87.793,149.95,87.872,149.673,87.872z"/>
				</g>
			</g>
			<g>
				<g>
					<path style="fill:#F7EDE5;" d="M288.718,170.341c-0.45,0-0.892-0.209-1.174-0.602l-26.403-36.753       c-0.466-0.648-0.318-1.551,0.33-2.016c0.647-0.465,1.551-0.318,2.016,0.33l26.403,36.753c0.466,0.648,0.318,1.551-0.33,2.016       C289.305,170.252,289.01,170.341,288.718,170.341z"/>
				</g>
				<g>
					<path style="fill:#F7EDE5;" d="M281.127,175.794c-0.45,0-0.892-0.209-1.174-0.602l-26.403-36.753       c-0.466-0.648-0.318-1.551,0.33-2.016c0.648-0.465,1.55-0.318,2.016,0.33l26.403,36.753c0.466,0.648,0.318,1.551-0.33,2.016       C281.714,175.705,281.42,175.794,281.127,175.794z"/>
				</g>
				<g>
					<path style="fill:#F7EDE5;" d="M273.537,181.246c-0.45,0-0.892-0.209-1.174-0.602l-26.403-36.753       c-0.466-0.648-0.318-1.551,0.33-2.016c0.648-0.466,1.551-0.319,2.016,0.33l26.403,36.753c0.466,0.648,0.318,1.551-0.33,2.016       C274.124,181.158,273.829,181.246,273.537,181.246z"/>
				</g>
			</g>
			<g>
				<g>
					<path style="fill:#F7EDE5;" d="M407.891,373.655c-0.531,0-1.043-0.294-1.295-0.803c-0.355-0.715-0.062-1.581,0.653-1.936       l40.546-20.098c0.715-0.357,1.581-0.062,1.936,0.653c0.355,0.715,0.062,1.581-0.653,1.936l-40.546,20.098       C408.326,373.607,408.107,373.655,407.891,373.655z"/>
				</g>
				<g>
					<path style="fill:#F7EDE5;" d="M412.042,382.028c-0.531,0-1.043-0.294-1.295-0.803c-0.355-0.715-0.062-1.581,0.653-1.936       l40.546-20.098c0.715-0.355,1.581-0.062,1.936,0.653c0.355,0.715,0.062,1.581-0.653,1.936l-40.546,20.098       C412.476,381.98,412.257,382.028,412.042,382.028z"/>
				</g>
				<g>
					<path style="fill:#F7EDE5;" d="M416.193,390.401c-0.532,0-1.043-0.295-1.295-0.803c-0.355-0.715-0.062-1.581,0.653-1.936       l40.545-20.097c0.715-0.355,1.581-0.062,1.936,0.653c0.355,0.715,0.062,1.581-0.653,1.936l-40.545,20.097       C416.628,390.353,416.409,390.401,416.193,390.401z"/>
				</g>
			</g>
			<g>
				<g>
					<path style="fill:#F7EDE5;" d="M63.71,252.656c-0.417,0-0.831-0.18-1.116-0.526l-28.777-34.924       c-0.508-0.616-0.419-1.527,0.196-2.034c0.615-0.508,1.527-0.42,2.034,0.196l28.777,34.924c0.508,0.616,0.419,1.527-0.196,2.034       C64.359,252.548,64.034,252.656,63.71,252.656z"/>
				</g>
				<g>
					<path style="fill:#F7EDE5;" d="M56.498,258.599c-0.417,0-0.831-0.18-1.116-0.526l-28.778-34.924       c-0.508-0.616-0.42-1.527,0.196-2.034c0.615-0.508,1.528-0.42,2.034,0.196l28.778,34.924c0.508,0.616,0.42,1.527-0.196,2.034       C57.147,258.491,56.821,258.599,56.498,258.599z"/>
				</g>
				<g>
					<path style="fill:#F7EDE5;" d="M49.285,264.543c-0.417,0-0.831-0.18-1.116-0.526l-28.777-34.924       c-0.508-0.616-0.42-1.527,0.196-2.034c0.615-0.508,1.527-0.42,2.034,0.196l28.777,34.924c0.508,0.616,0.42,1.527-0.196,2.034       C49.934,264.434,49.608,264.543,49.285,264.543z"/>
				</g>
			</g>
			<g>
				<path style="fill:#F7EDE5;" d="M374.461,82.559c-8.73,0-15.832-7.102-15.832-15.833c0-8.731,7.102-15.833,15.832-15.833      c8.731,0,15.833,7.102,15.833,15.833C390.294,75.457,383.191,82.559,374.461,82.559z M374.461,53.783      c-7.136,0-12.942,5.806-12.942,12.943c0,7.137,5.806,12.943,12.942,12.943c7.137,0,12.943-5.806,12.943-12.943      C387.404,59.589,381.598,53.783,374.461,53.783z"/>
			</g>
			<g>
				<path style="fill:#F7EDE5;" d="M470.379,296.529c-8.73,0-15.832-7.102-15.832-15.832c0-8.731,7.102-15.833,15.832-15.833      c8.731,0,15.833,7.102,15.833,15.833C486.211,289.427,479.109,296.529,470.379,296.529z M470.379,267.754      c-7.136,0-12.942,5.806-12.942,12.943c0,7.136,5.806,12.942,12.942,12.942c7.137,0,12.943-5.806,12.943-12.942      C483.322,273.56,477.516,267.754,470.379,267.754z"/>
			</g>
			<g>
				<path style="fill:#F7EDE5;" d="M210.666,491.723c-8.731,0-15.833-7.102-15.833-15.833c0-8.73,7.102-15.832,15.833-15.832      c8.731,0,15.833,7.102,15.833,15.832C226.499,484.621,219.396,491.723,210.666,491.723z M210.666,462.948      c-7.137,0-12.943,5.806-12.943,12.942c0,7.137,5.806,12.943,12.943,12.943s12.943-5.806,12.943-12.943      C223.609,468.754,217.803,462.948,210.666,462.948z"/>
			</g>
		</g>
	</g>
</g>
<g>
</g>
<g>
</g>
<g>
</g>
<g>
</g>
<g>
</g>
<g>
</g>
<g>
</g>
<g>
</g>
<g>
</g>
<g>
</g>
<g>
</g>
<g>
</g>
<g>
</g>
<g>
</g>
<g>
</g>
</svg>
