<svg id="Layer_1" enable-background="new 0 0 512 512" viewBox="0 0 512 512" xmlns="http://www.w3.org/2000/svg"><path d="m173.3 280.1c-3-3.9-5.9-7.6-8.8-11.4-.5-.6-.4-1.4-.4-2.2.1-2.6.3-5.1.4-7.7 0-.6.5-1.6-.2-1.9-.6-.3-1.2.5-1.8.9-1.1.8-2.1 1.6-3.1 2.4-.7.7-1.2.6-1.8-.2-2.9-3.6-5.7-7.1-8.7-10.7-.8-1-.4-1.5.4-2.1 3.1-2.7 6.6-4.8 9.9-7.1.5-.3.9-.6 1.4-1 4.6-3.3 4.7-3.5 4.3-9.1-.1-1.4-.6-1.4-1.6-.8-2.7 1.5-5.4 3-8.1 4.3-8.2 4-16.2.4-20.5-5.5-2.1-2.9-2.5-6.4-2.7-9.8-.2-2.4-.2-4.8-.2-7.1 0-1.2-.3-1.6-1.5-1-5.1 2.5-5.1 2.6-5.7 8.3-.4 4.5-.5 9-1.3 13.5-.3 1.5-.8 1.9-2.4 1.6-4.1-.8-8.2-1.4-12.3-1.9-1.7-.2-2-.9-1.6-2.5.3-1.3.4-2.7.5-4.1.1-1.2-.3-1.4-1.2-.7-2.5 1.6-5 3.2-7.4 4.8-.9.6-1.8.7-2.9.6-3.9-.5-7.8-1.1-11.8-1.5-1.4-.2-1.5-.6-1-1.8 1.5-3.6 3-7.2 4.4-10.8.4-1.1 1.1-1.8 2.1-2.3 2.5-1.3 5-2.6 7.5-3.9.4-.2 1-.2 1-.7 0-.6-.6-.8-1-.9-1.4-.6-2.8-1.2-4.2-1.7-1-.3-1.2-.8-.9-1.8 1.7-4.2 3.3-8.4 4.8-12.7.5-1.3 1.2-1.1 2.2-.8 3.6 1.3 7 3.1 10.5 4.7.7.3 1.5.7 2.2 1 6.4 2.6 3.9 2.4 10-1 1.2-.7.8-1.1-.1-1.6-3-1.7-5.9-3.6-8.7-5.6-7-5-7.6-14.2-4.4-20.4 1.2-2.4 3.2-4.2 5.4-5.6 2.5-1.7 5.2-3.3 7.8-4.9 1.1-.7.9-1 0-1.6-5-3.2-5-3.2-10.4-.7-4 1.9-8 4-12.1 5.5-1.4.5-2 .3-2.5-1.1-1.3-3.8-2.8-7.5-4.3-11.3-.9-2.3-.9-2.3 1.4-3.2l3.6-1.5c.9-.4.9-.9 0-1.3-2.6-1.3-5.1-2.7-7.7-4-1.1-.5-1.8-1.3-2.2-2.4-1.4-3.6-2.9-7.2-4.4-10.8-.5-1.2-.4-1.6 1-1.8 3.9-.5 7.8-1 11.8-1.6 1.1-.2 2.1.1 3 .7 2.3 1.5 4.6 3 7 4.5.4.3.8.8 1.3.5s.2-.9.2-1.4c-.2-1.5-.4-3-.6-4.5-.2-1 .1-1.4 1.1-1.5 4.5-.7 9-1.4 13.6-2.2 1.2-.2 1.5.4 1.7 1.4.8 4 .8 8 1.2 12 .1.6.1 1.3.2 1.9.9 7-.2 4.7 5.7 8.3 1.2.7 1.5.2 1.5-1 .1-3.6.2-7.3.6-10.9 1-9.4 12.6-15.9 21-12.3 3.4 1.4 6.6 3.1 9.7 4.9 1.3.7 1.8.6 1.7-1-.1-6.7 1.2-4.6-4.4-8.9-3.4-2.6-7.2-4.8-10.6-7.5-1.5-1.2-1.8-1.9-.4-3.5 2.8-3.1 5.3-6.3 7.9-9.6.9-1.1 1.4-1 2.4-.2 1.1 1 2.3 1.8 3.4 2.6.3.2.7.7 1.1.5.5-.3.3-.8.2-1.2-.1-2.8-.3-5.6-.4-8.5 0-1 .1-1.9.7-2.7 2.8-3.6 5.5-7.1 8.5-10.9 1.5 2 2.8 4.1 4.5 5.8 4 3.9 5.5 8.5 4.4 13.9-.2 1.1-.8 2.9.2 3.3 1.1.5 2.1-1 3.1-1.7 2.9-2.1 2.8-2.1 5.1.6 2.3 2.8 4.5 5.7 6.9 8.4 1 1.1.8 1.7-.2 2.6-3.1 2.5-6.4 4.6-9.6 6.9-.6.4-1.2 1-1.9 1.3-3.7 1.8-4.6 4.9-4.1 8.7.2 1.6.6 1.6 1.8.9 2.7-1.6 5.5-3 8.3-4.4 7.8-3.8 16-.2 20.1 5.7 2.1 2.9 2.4 6.4 2.7 9.9.1 2.4.2 4.8.2 7.1 0 1.2.3 1.7 1.5.9 5.9-3.5 4.8-1.4 5.7-8.5.5-4.5.5-9 1.3-13.5.2-1.4.8-1.7 2.1-1.5 4.2.8 8.4 1.4 12.6 2 1.4.2 1.8.6 1.5 2.1s-.4 3-.6 4.5c-.1 1.1.2 1.4 1.2.7 2.4-1.6 4.9-3.1 7.3-4.7.9-.6 1.9-.9 3-.7 3.9.6 7.8 1.1 11.8 1.6 1.2.1 1.5.5 1 1.7-1.6 3.8-3.1 7.5-4.7 11.3-.4.9-1.1 1.5-1.9 1.9-2.5 1.3-5 2.6-7.5 3.9-.4.2-1 .2-1 .7 0 .6.6.7 1.1.9 1.4.6 2.8 1.2 4.2 1.7 1 .3 1.3.8.9 1.8-1.7 4.3-3.3 8.5-4.9 12.8-.5 1.2-1.2 1-2.1.7-3.7-1.3-7.1-3.2-10.6-4.8-1.8-.8-3.7-1.6-5.5-2.4-1.2-.6-2.1-.4-3.1.3-.8.6-1.6.9-2.4 1.5-.6.4-1.8.6-1.8 1.4s1.2 1 1.9 1.4c3.6 2.2 7.4 4.2 10.3 7.5 5.5 6.2 4.8 16.6-1.6 22-2.9 2.5-6.2 4.5-9.5 6.3-1.2.7-1.5 1.1-.1 1.9 5 3.1 5 3.1 10.4.5 4-1.9 7.9-3.9 12-5.5 1.4-.5 2-.3 2.5 1.1 1.4 3.9 2.9 7.8 4.4 11.6.6 1.5.5 2.3-1.2 2.7-1.4.4-2.7 1.1-4 1.7-.9.4-.9.9 0 1.3 2.6 1.3 5.2 2.7 7.9 4 .9.5 1.6 1.2 2 2.2 1.5 3.7 3 7.3 4.5 11 .5 1.2.3 1.6-1 1.8-3.8.4-7.6 1-11.4 1.5-1.3.2-2.4 0-3.6-.8-2.1-1.4-4.2-2.8-6.3-4.1-.5-.3-1.1-1.2-1.8-.7-.5.4-.2 1.3-.1 2 .2 1.3.3 2.6.6 3.9.2 1-.1 1.4-1.1 1.5-4.5.7-9 1.4-13.6 2.2-1.3.2-1.5-.5-1.7-1.4-.8-4-.8-8.1-1.3-12.2-.1-.6-.1-1.1-.1-1.7-.9-6.9.2-4.7-5.5-8.2-1.3-.8-1.6-.4-1.7 1 0 3.7-.2 7.4-.6 11.1-1.1 9.2-12.5 15.6-20.9 12.1-3.4-1.4-6.6-3.1-9.7-4.9-1.7-.9-1.8-.9-1.9 1.1-.2 5.4-.2 5.4 4.2 8.6 3.6 2.7 7.5 5 11 7.9 1.2 1 1.5 1.6.4 3-2.7 3.1-5.3 6.4-7.8 9.7-.9 1.2-1.6 1.5-2.8.3-.9-.9-2-1.7-3.1-2.4-.4-.3-.8-.8-1.3-.4-.4.3-.2.8-.2 1.2.1 2.8.2 5.5.4 8.3.1 1.2-.2 2.2-1 3.1-2.7 3.4-5.4 6.9-8.2 10.5zm-16.7-104.5c-5.5-3.1-10.8-6.1-16.1-9.2-.7-.4-1.3-.3-1.9.1-4.5 2.7-9 5.5-13.5 8.2-1.1.7-1.2 1.2 0 1.9 4.5 2.7 9 5.4 13.5 8.2.7.4 1.2.5 1.9.1 5.3-3.2 10.6-6.2 16.1-9.3zm33.5 0c5.5 3.1 10.8 6.1 16.1 9.2.8.5 1.5.3 2.3-.2 2.6-1.6 5.1-3.1 7.7-4.7 2.2-1.4 4.6-2.6 6.6-4.2-.1-.2-.2-.3-.3-.4-4.9-3-9.7-6-14.6-9-.5-.3-1-.3-1.6 0-5.4 3.1-10.7 6.1-16.2 9.3zm-25.1-24.5h-.1c0-2.7 0-5.4 0-8.1 0-1-.3-1.8-1.2-2.3-4.4-2.3-8.7-4.8-13-7.1-2-1.1-2.2-1-2.2 1.2-.1 5-.2 10-.3 15 0 1 .4 1.5 1.1 2 4.8 2.8 9.5 5.6 14.2 8.4 1.3.8 1.6.3 1.6-1-.1-2.7-.1-5.4-.1-8.1zm16.8-.1c-.1 0-.1 0-.2 0v8.3c0 1.1.1 1.8 1.5 1 4.8-2.8 9.6-5.7 14.4-8.5.8-.5 1.1-1.1 1.1-2-.1-5.1-.2-10.1-.3-15.2-.1-1.9-.3-2-1.9-1.1-4.4 2.4-8.8 4.9-13.2 7.2-1 .6-1.4 1.3-1.4 2.4zm-.1 48.9h.2v8.3c0 1 .2 1.6 1.2 2.1 4.4 2.4 8.8 4.8 13.2 7.2 1.9 1.1 2.1.9 2.2-1.4.1-4.9.2-9.9.3-14.8 0-1-.4-1.6-1.2-2.1-4.7-2.7-9.4-5.5-14.1-8.3-1.4-.9-1.7-.3-1.7 1.1-.1 2.7-.1 5.3-.1 7.9zm-16.9.2h.2c0-2.8 0-5.5 0-8.3 0-1.2-.3-1.7-1.5-.9-4.8 2.8-9.6 5.7-14.4 8.5-.8.5-1.1 1.1-1 2 .1 5 .2 10 .3 15 .1 2.1.2 2.2 2 1.2 4.5-2.4 8.9-4.9 13.3-7.3.9-.5 1.2-1.2 1.2-2.1-.1-2.7-.1-5.4-.1-8.1z" fill="#3981bf"/><g fill="#6ea4dd"><path d="m258.7 214.6c-.4-.8-1.1-1.3-1.9-1.8-2.3-1.2-4.7-2.4-7-3.6-.4-.2-1-.2-.9-.7 0-.5.6-.6 1-.8 1.1-.5 2.3-1.1 3.5-1.4 1.6-.4 1.8-1.2 1.2-2.6-1.7-4.2-3.3-8.5-4.9-12.7-.4-1.2-1-1.2-2.1-.9-4.6 1.6-9 3.8-13.3 6-3.4 1.7-6.1 1.8-9-.6 0 0-.1-.1-.2-.1-1-.5-1.1-1 0-1.6 2.8-1.5 5.5-3.2 8-5.1 3.8-2.9 6.4-6.4 6.6-11.4.1-1.4-.4-1.8-1.8-1.8-7.1 0-14.2-.1-21.3-.1-13.5-.1-27-.1-40.5-.1-.4 0-.9.2-1.4-.4 2.9-1.3 5.3-3.2 7.9-4.8 5.2-3.1 10.5-6.1 15.6-9.4 10.4-6.7 21.2-12.8 32.1-18.8 10.6-5.8 20.7-12.2 30.8-19.3-3.1-.4-6.1-.6-9-1.3-2.6-.6-4.6 0-6.7 1.5-2 1.4-4.1 2.7-6.4 4.2.2-2 .3-3.6.6-5.2.4-2.3.4-2.2-1.8-2.6-4.3-.6-8.6-1.2-12.9-2.1-1.5-.3-1.9.1-2.1 1.4-.4 3.2-.9 6.3-1.1 9.5-.2 2.9-.5 5.9-.9 8.8-.1.5-.1 1.1-.7 1.5-1.7.9-3.3 1.9-5.2 2.9-.3-4.1-.1-8-.7-11.8-.6-4.2-2.5-7.6-5.9-10.2-1.4-1.1-1.9-.7-2.7.7-10.4 17.7-20.9 35.4-31.4 53.1-1.3 2.2-2.9 3.9-5.3 5-2 .9-3.8 2.2-5.6 3.4-4.6 2.8-9 6-13.6 8.7-5 2.9-10.3 5.5-15.4 8.3-10.5 5.8-20.5 12.3-30.7 18.5-5 3-9.9 6-15.2 8.5-1.7.8-3.6 1.4-5.3 2.9 3.3.5 6.3.8 9.2 1.4 3.8.8 6.9 0 9.9-2.4 1.4-1.1 2.8-2.2 4.6-2.9.5 1.9-.1 3.6-.5 5.2s.1 2 1.6 2.3c4.5.9 9 1.1 13.4 2.3 1.3.3 1.7-.5 1.9-1.6.8-4.6 1.2-9.3 1.3-14 .1-3.7 1.1-6.6 4.9-7.8.1 0 .2-.1.3-.2 1-.7 1.3-.4 1.4.8 0 3.4 0 6.9.5 10.3.7 4.3 2.5 7.8 6 10.4 1.3 1 1.8.7 2.6-.6 10.5-17.8 21.1-35.6 31.7-53.3.4-.6.6-1.4 1.4-1.8 0 .5.1.9.1 1.3-.1 5.5-.3 11-.3 16.5.1 11.3.8 22.5.4 33.8-.4 10.3-1.1 20.6-1.6 31-.3 6.8.4 13.7.3 20.5 0 .5.1 1 .6 1.1.6.2.6-.5.9-.8 2.1-2.7 4-5.5 6.2-8 1.8-2.1 2.8-4.3 2.6-7.2-.1-2.3-.9-4.6-.5-7.1 1.7.7 3 1.8 4.1 3 1.3 1.2 2 .9 2.9-.3 2.6-3.3 5.2-6.7 8-9.9 1.4-1.5.9-2.3-.4-3.4-3.4-2.7-7-5.2-10.7-7.5-3.3-2-5.2-4.4-4.5-8.5.2-1.3.3-1.7 1.6-.9 2.5 1.6 5.2 3 7.9 4.2 4.2 1.9 8.4 2.4 12.8.6 1.6-.7 1.7-1.2.9-2.7-9.2-16.5-18.3-33-27.4-49.5-1-1.7-1.9-3.5-2.8-5.2 30.3 15.2 58.4 34.1 88.9 50.1-1.2-4.9-2.9-8.9-4.6-12.9z"/><path d="m163.3 121.5c-1.9-1.1-3.8-2.1-5.8-3.1-5.1-2.7-10.3-4.1-15.9-1.4-1.4.7-1.8 1.2-.9 2.7 10.4 17.7 20.7 35.5 31.1 53.2.3.5.4 1.2 1.2 1.4 1.6-34.4-1.1-68.7 0-103.1-3 3.5-5.7 7-8.4 10.5-.7.9-1 2-.9 3.1.1 3 .7 5.9.5 9.1-2-1-3.4-2.4-4.9-3.6-.8-.6-1.1-.6-1.8.2-2.3 2.9-4.7 5.8-7.1 8.7-3.1 3.7-3.1 3.7.9 6.5 4 2.9 8 5.8 12 8.6.9.6 1.3 1.4 1.2 2.5-.1 1.2-.1 2.5-.1 3.8.2 1.3-.2 1.4-1.1.9z"/><path d="m87.7 136.1c.4 1 1.2 1.7 2.2 2.2 2.4 1.2 4.8 2.4 7.2 3.7.9.5 1 .8 0 1.3-1.1.5-2.2 1.2-3.5 1.4-1.8.3-2.2 1.2-1.5 2.9 1.7 4.1 3.3 8.3 4.8 12.5.4 1.2 1 1.2 2.1.8 4.6-1.6 9-3.8 13.3-6.1 3.4-1.8 6.1-1.7 9 .7 0 0 .1.1.2.1 1.1.6.9 1-.1 1.6-2.7 1.6-5.4 3.2-7.9 5.1-3.8 2.8-6.3 6.3-6.7 11.2-.1 1.4.2 1.9 1.8 1.9 20.6-.1 41.1 0 61.7 0 .4 0 .9.2 1.3-.3-5.3-3.8-11-6.6-16.6-9.7-5.8-3.2-11.8-6-17.6-9.3-6.4-3.7-12.7-7.6-18.8-11.7-9-6.1-18.4-11.4-27.7-16.9-2.6-1.6-5.3-2.9-8.3-4.5 0 .6 0 .8.1.9 1.6 4 3.3 8.1 5 12.2z"/></g><path d="m307 292.9c-1.7-.8-2.9-1.2-4-1.9-4-2.3-6-5.8-5.9-10.2.1-4.7 2.4-8.2 6.6-10.3 2.6-1.2 5.4-1.8 8.3-2 12.4-.7 24.9-1.4 37.3-2.2 8.8-.5 12.5 2.3 14.7 10.9.9 3.5 2.3 6.8.9 10.5-.7 1.8.7 2.2 1.9 2.7 4.6 1.9 9.2 3.8 13.9 5.7 9.5 3.9 16.6 15.2 15.3 25.3-1.1 9.2.5 18.3 1.3 27.4 1.1 13-4.1 22.9-13 32.2-13.4 13.8-28.5 25-45.2 34.4-8.4 4.7-16.4 5.6-24.9 1.5-9.9-4.8-19.8-9.7-29.3-15.3-9.8-5.8-15.6-15.3-21.2-24.9-.5-.8-.7-1.9-.7-2.9-.6-18.6 1.6-36.5 10.9-53.1 2.3-4 5.5-7.3 9.2-10 7.8-5.7 15.6-11.6 23.9-17.8z" fill="#3981bf"/><path d="m383.9 197.6c.7 23.1.9 46.1.7 69.2 0 3.2 1.2 5.5 3.4 7.9 7.7 8.4 16.8 15.5 24.4 24 7.4 8.2 11.4 18.5 13.6 29.2 3 14.2 5.3 28.8 1.1 43-3.8 13.1-8.2 26.8-16.2 37.6-16.9 22.8-38.9 38.7-69 39.2-13 .2-26.1 1-39-1.5-24.2-4.6-42.4-17.9-55.2-38.8-6.1-9.9-11.2-20.4-14-31.7-8.9-34.8 1.6-64 26.2-88.9 2.6-2.7 5.8-4.7 9.2-6.3 3.2-1.6 4.4-4 4.4-7.6.3-34.9.7-69.9 1.2-104.8.3-18.6.6-37.3 3.9-55.7 2.2-12.4 5.5-24.4 14.9-33.6 8.5-8.2 17.9-14.9 30.5-14.7 4 .1 8-.2 12 .1 18.5 1.4 30.9 11.9 38.7 28 5.5 11.2 6.8 23.6 7.9 35.9 1.9 23.1 1.6 46.3 1.3 69.5zm-52.6 204.5c17.9-.1 31.3-6.9 40.7-20.6 18-26.5 7.8-63.1-21-74.1-3.7-1.4-4.7-3.2-4.5-6.8.5-13.4 2.1-26.8 1.7-40.3-.3-10.1-.3-20.3-.2-30.5.2-16.3 1.1-32.6.9-48.9-.1-10.3-.5-20.6-1.3-30.8-.6-7.6-1.2-15-3.8-22.2-2.4-6.5-4.7-8-12-7.9-5.8 0-8.2 2.1-10.6 8.1-4.6 11.4-4 23.6-4.8 35.5-1.2 17.3-.6 34.6-.2 51.9.5 17.9-.4 35.8-.2 53.6.1 10.1.9 20.3 1.5 30.4.2 2.9-.7 4.5-3.5 5.4-4 1.2-7.5 3.5-10.8 6-17.9 13.5-26 37.7-19.2 57.7 7.2 21.8 23.9 33.6 47.3 33.5z" fill="#aed6f2"/><path d="m326.1 380c-2.4-.9-4.9-1.6-7.4-2.4-2.2-.7-4.1-.2-4.9 2.1s.2 3.9 2.4 4.8c5.9 2.2 11.9 4 19.1 4.2 11-.7 19.9-6.5 26.4-15.9 3.7-5.3 5-11.5 5.2-17.9.1-2.5-1.1-4.3-3.7-4.3-2.4 0-3.5 1.7-3.6 4 0 .7 0 1.4-.1 2.1-1.1 16.2-18 28.7-33.4 23.3z"/><path d="m362 343.8c1.9-.5 2.7-1.9 2.7-4.1-.6-3-1.4-6.1-3.1-9-1-1.6-2.6-2.3-4.4-1.5-2 .8-2.7 2.5-2.1 4.5.8 2.6 1.7 5.1 2.6 7.7.7 1.9 2.2 2.9 4.3 2.4z"/></svg>