<?xml version="1.0" encoding="UTF-8"?>
<!-- Generator: Adobe Illustrator 26.5.1, SVG Export Plug-In . SVG Version: 6.00 Build 0)  -->
<svg xmlns="http://www.w3.org/2000/svg" xmlns:xlink="http://www.w3.org/1999/xlink" version="1.1" id="Capa_1" x="0px" y="0px" viewBox="0 0 512 512" style="enable-background:new 0 0 512 512;" xml:space="preserve" width="512" height="512">
<g>
	<path style="fill:#FFFFFF;" d="M52.737,463.472c-6.614,0-12.311-4.666-13.613-11.152L0.271,258.713   c-0.851-4.241,0.323-8.634,3.175-11.886c2.645-3.017,6.455-4.73,10.437-4.73c0.207,0,4.367,0.145,10.238,0.343   c-2.447-2.874-3.926-6.596-3.926-10.659V178.11c0-9.077,7.385-16.462,16.463-16.462H192.39c0.272-0.149,0.546-0.296,0.818-0.436   c3.437-1.785,6.879-3.042,9.915-4.151c1.218-0.445,2.413-0.881,3.531-1.324l0.036-10.25l-0.034-1.349   c-0.207,0.009-0.415,0.014-0.622,0.014c-0.292,0-0.585-0.009-0.88-0.027c-7.332-0.459-13.036-6.551-13.015-13.897l-0.002-0.425   c-0.221-3.769-4.62-9.421-8.404-10.784c-6.075-2.192-9.838-8.282-9.079-14.695c0.76-6.413,5.843-11.457,12.261-12.167   c0.476-0.052,1.787-0.818,2.811-2.425c1.342-2.111,2.207-5.168,2.642-9.346c0.737-7.073,6.699-12.445,13.809-12.445   c3.398,0,6.541,1.227,8.979,3.279c14.121-11.337,32.294-13.972,45.178-14.937c3.34-0.249,6.842-0.377,10.408-0.377   c7.192,0,14.951,0.504,24.133,1.573c4.947-2.755,10.217-4.879,15.728-6.333c4.783-1.279,9.827-2.096,14.948-2.419   c1.74-0.126,3.704-0.197,5.704-0.197c0.984,0,1.969,0.017,2.955,0.048c8.892,0.281,18.232,1.851,27.764,4.662   c31.349,9.22,56.589,29.23,69.239,54.896c2.509,5.073,4.607,10.533,6.389,16.643c0.23,0.626,0.417,1.277,0.556,1.946   c1.175,4.282,2.154,8.736,2.976,13.547c0.567,1.394,1.209,2.657,1.913,3.762c2.186,3.439,5.477,5.866,8.385,6.187   c6.418,0.712,11.5,5.753,12.26,12.166c0.759,6.413-3.002,12.503-9.076,14.693c-2.181,0.786-4.58,2.382-6.856,4.495   c0.132,0.249,0.269,0.493,0.409,0.73c3.291,5.586,9.778,9.674,17.289,14.408c4.843,3.053,9.85,6.207,14.598,10.162   c22.237,18.568,32.954,50.006,31.868,93.448c-1.307,51.66-13.276,101.908-24.849,150.504c-1.49,6.253-7.078,10.666-13.507,10.666   h-7.59c-2.091,1.256-4.538,1.977-7.143,1.977l-109.764,0.002H52.737z"/>
	<g>
		<g>
			<g>
				<path style="fill:#2E1144;" d="M497.621,300.373c-1.264,49.96-12.896,99.016-24.477,147.634H352.592      c-29.532-114.93-53.132-238.5-71.96-355.674c5.545-13.773,18.725-23.574,33.091-27.366c4.049-1.083,8.15-1.728,12.277-1.986      c2.45-0.181,4.901-0.206,7.351-0.129c8.202,0.258,16.404,1.779,24.271,4.101c25.431,7.48,49.005,23.961,60.715,47.716      c6.99,14.134,9.492,30.022,10.859,45.704c0.877,10.111,1.444,20.685,6.603,29.403c7.66,12.999,23.368,18.519,34.948,28.165      C493.726,237.13,498.369,270.454,497.621,300.373z"/>
			</g>
			<g>
				<g>
					<path style="fill:#FFE7DE;" d="M394.152,164.854c-0.37-9.835-1.574-22.515-7.937-32.997       c-3.888-6.479-8.215-10.043-12.241-10.043c0,0,0,0-0.023,0c-3.147,0-6.016,2.106-8.492,6.271       c-1.342,2.245-2.499,4.651-3.494,7.127c-0.393,0.879-0.741,1.782-1.041,2.684c-0.208,0.463-0.347,0.902-0.509,1.365       c-0.532,1.55-1.018,3.147-1.435,4.767c-0.231,0.833-0.44,1.666-0.625,2.499c-0.532,2.106-0.949,4.258-1.296,6.41       c-1.504,8.863-1.944,18.003-1.944,26.333c0,0.486,0,0.972,0.023,1.458c0,2.314,0.046,4.559,0.092,6.711       c0.023,0.81,0.046,1.597,0.07,2.36c0.069,2.175,0.162,4.235,0.254,6.155v0.255c0.046,1.064,0.092,2.129,0.162,3.217       c0.532,10.112,1.944,21.15,7.868,30.082c2.453,3.702,5.206,5.739,8.168,6.086c0.301,0.046,0.625,0.046,0.902,0.046       c4.211,0,7.636-3.355,9.811-6.271c5.299-7.127,8.099-15.504,9.649-23.904c0.995-5.392,1.481-10.783,1.759-15.92       C394.384,181.375,394.453,173.068,394.152,164.854z M392.116,189.451c-0.278,4.697-0.694,9.649-1.55,14.578       c-1.481,8.562-4.188,17.077-9.534,24.251c-2.06,2.754-5.299,5.993-9.071,5.531c-2.43-0.255-4.744-2.036-6.896-5.299       c-5.808-8.77-7.104-19.854-7.613-29.92c-0.046-0.833-0.092-1.666-0.116-2.476c-0.023-0.555-0.046-1.111-0.069-1.689       c-0.092-1.99-0.162-4.119-0.231-6.363c-0.023-0.949-0.046-1.921-0.069-2.893c-0.046-2.036-0.069-4.165-0.069-6.34       c0.023-7.52,0.37-15.689,1.597-23.695c0.301-1.99,0.648-3.957,1.064-5.924c0.208-1.018,0.44-2.013,0.694-3.008       c0.324-1.365,0.694-2.73,1.134-4.073c0.092-0.393,0.208-0.764,0.324-1.134c0.486-1.55,1.041-3.078,1.643-4.559       c1.041-2.615,2.268-5.114,3.656-7.451c2.106-3.564,4.466-5.368,6.965-5.392c3.355,0,7.173,3.24,10.737,9.163       c6.109,10.158,7.312,22.538,7.659,32.164C392.671,173.068,392.579,181.306,392.116,189.451z"/>
				</g>
			</g>
			<g>
				<g>
					<path style="fill:#FFE7DE;" d="M479.205,317.937c-2.038,44.311-9.982,87.951-23.651,130.07h-1.857       c13.721-42.118,21.717-85.836,23.729-130.147c1.212-26.36,0-63.939-24.477-86.043c-3.353-3.018-7.17-5.803-10.884-8.46       c-8.408-6.087-17.1-12.355-20.892-22.13c-2.579-6.577-2.45-13.747-2.347-20.685c0.026-1.548,0.051-3.069,0.051-4.591       c-0.051-34.304-15.965-67.73-42.583-89.396C361.696,74.665,344.286,66.644,326,62.982c2.45-0.181,4.901-0.206,7.351-0.129       c16.017,4.23,31.131,11.761,44.079,22.31c27.005,22.001,43.176,55.943,43.228,90.789c0.026,1.522,0,3.069-0.026,4.617       c-0.129,6.758-0.232,13.773,2.192,20.015c3.611,9.259,11.71,15.114,20.273,21.304c3.766,2.734,7.634,5.52,11.065,8.615       C479.18,253.096,480.444,291.217,479.205,317.937z"/>
				</g>
			</g>
		</g>
		<g>
			<path style="fill:#B179FF;" d="M230.132,110.207c-1.141,9.414,0.403,18.942,0.13,28.421c-0.273,9.479-2.82,19.634-10.177,25.617     c-5.98,4.863-14.058,6.131-20.897,9.683c-12.845,6.672-20.378,21.64-19.651,36.095c0.243,4.84,1.109,10.337-2.09,13.977     c-3.26,3.71-8.953,3.473-13.886,3.701c-8.14,0.375-16.173,2.866-23.096,7.163c-5.062,3.142-9.657,7.416-11.897,12.936     c-3.055,7.528-1.329,16.048,0.488,23.966l173.053-0.898c0.968-17.431,5.983-34.928,7.201-52.343     c1.731-24.761-3.436-49.968-14.769-72.051c-5.936-11.567-13.749-22.499-24.465-29.861     C259.36,109.249,242.506,106.215,230.132,110.207z"/>
		</g>
		<g>
			<g>
				<path style="fill:#00DBDA;" d="M459.731,411.363c0,6.433-0.116,12.403-0.278,17.633c-0.07,2.638-0.162,5.068-0.255,7.289      c-0.231,5.415-0.486,9.487-0.648,11.732c-0.092,1.273-0.139,1.967-0.139,1.967H134.407c0,0,0.231-3.888,0.764-10.529      c0.903-11.57,2.661-31.47,5.461-53.638c2.869-22.7,6.849-47.761,12.148-68.702c5.322-21.15,12.01-38.065,20.271-44.058      c0.717-0.509,1.458-1.041,2.221-1.527c4.882-3.286,10.691-6.317,17.008-9.117c12.125-5.392,26.056-9.881,38.782-13.398      c1.134-0.324,2.268-0.648,3.402-0.949l2.36-0.601c4.119-1.088,8.053-2.06,11.663-2.939l0.347-0.069      c12.634-2.962,21.451-4.535,21.451-4.535l35.45,4.073l1.62,0.185l39.384,4.512l5.854,0.671c0,0,1.157,0.185,3.193,0.602      c11.547,2.36,51.463,12.079,71.225,37.116c1.897,2.36,3.587,4.859,5.044,7.497C451.817,330.142,459.731,389.403,459.731,411.363      z"/>
			</g>
			<g>
				<path style="fill:#2E1144;" d="M376.312,385.886v64.098h-1.782v-64.098c0-0.486,0.417-0.879,0.902-0.879      C375.918,385.006,376.312,385.4,376.312,385.886z"/>
			</g>
			<g>
				<g>
					<g>
						<g>
							<g>
								<path style="fill:#FF93E2;" d="M335.6,241.5l3.715-78.322l3.729-22.757l-0.229-0.031c0.138-1.712,0.229-3.439,0.229-5.181          c0-34.19-27.709-61.899-61.898-61.899s-55.617,21.718-60.829,55.51c-0.581,3.805-0.29,11.508-0.168,16.919l-0.046,13.434          l-0.091,31.362c-0.245,6.098,2.139,11.371,5.609,15.544c5.991,7.199,11.11,10.05,20.052,10.653l21.565,0.382l3.424,0.061          l-0.596,12.319l-0.477,9.765l-38.596,9.658c0,0,17.477,22.353,54.438,24.585c58.17,3.512,70.682-24.146,70.682-24.146          L335.6,241.5z"/>
							</g>
							<g>
								<g>
									<g style="opacity:0.44;">
										
											<ellipse transform="matrix(0.7071 -0.7071 0.7071 0.7071 -40.985 265.93)" style="fill:#B179FF;" cx="300.513" cy="182.438" rx="23.673" ry="23.673"/>
									</g>
									<g style="opacity:0.46;">
										<path style="fill:#B179FF;" d="M220.011,190.535c-0.245,6.098,2.139,11.371,5.609,15.543            c12.563-0.55,22.604-10.913,22.604-23.644c0-13.068-10.607-23.674-23.674-23.674c-1.513,0-3.011,0.138-4.448,0.413            L220.011,190.535z"/>
									</g>
								</g>
								<g>
									<g>
										<path style="fill:#2E1144;" d="M284.462,161.308c0,3.588,2.909,6.497,6.497,6.497c3.588,0,6.497-2.909,6.497-6.497            s-2.909-6.497-6.497-6.497C287.371,154.811,284.462,157.72,284.462,161.308z"/>
									</g>
									<g>
										<path style="fill:#2E1144;" d="M229.494,161.308c0,3.588,2.909,6.497,6.497,6.497c3.588,0,6.497-2.909,6.497-6.497            s-2.909-6.497-6.497-6.497C232.402,154.811,229.494,157.72,229.494,161.308z"/>
									</g>
									<g>
										<g>
											<path style="fill:#B179FF;" d="M296.034,141.752c0.375,0.489,0.688,1.045,0.65,1.625             c-0.053,0.82-0.814,1.515-1.704,1.861c-0.889,0.346-1.894,0.407-2.874,0.446c-3.352,0.135-6.815,0.065-9.901-1.041             c-1.068-0.383-2.113-0.916-2.729-1.741c-0.993-1.33-0.569-3.206,0.762-4.309             C284.489,135.074,293.289,138.177,296.034,141.752z"/>
										</g>
										<g>
											<path style="fill:#B179FF;" d="M227.204,141.249c-0.375,0.489-0.688,1.045-0.65,1.625             c0.053,0.82,0.814,1.515,1.704,1.861c0.889,0.346,1.894,0.407,2.874,0.446c3.352,0.135,6.815,0.065,9.901-1.041             c1.068-0.383,2.113-0.916,2.729-1.741c0.993-1.33,0.569-3.206-0.762-4.309             C238.748,134.571,229.948,137.674,227.204,141.249z"/>
										</g>
									</g>
									<g>
										<path style="fill:#2E1144;" d="M260.699,182.616c-0.071,0-0.142-0.002-0.215-0.005c-7.094-0.251-8.04-12.781-8.076-13.314            c-0.034-0.49,0.337-0.915,0.827-0.951c0.496,0.007,0.917,0.339,0.951,0.829c0.223,3.186,1.799,11.493,6.361,11.656            c0.047,0,0.096,0.002,0.144,0.002c5.393,0,7.122-10.971,7.139-11.082c0.073-0.486,0.525-0.825,1.015-0.748            c0.487,0.075,0.821,0.527,0.748,1.015C269.514,170.538,267.61,182.616,260.699,182.616z"/>
									</g>
								</g>
							</g>
							<g style="opacity:0.44;">
								<path style="fill:#2E1144;" d="M270.671,217.893l-0.606,11.6c5.212,2.522,11.6,3.943,18.738,2.109          c19.257-4.937,26.292-15.889,26.292-15.889l-44.528,1.557L270.671,217.893z"/>
							</g>
						</g>
						<g>
							<path style="fill:#FF93E2;" d="M322.879,158.834c0,0,24.198-18.375,33.585-6.696c9.386,11.678,7.103,32.852-20.299,36.589         L322.879,158.834z"/>
						</g>
					</g>
				</g>
				<g>
					<path style="fill:#B179FF;" d="M426.793,287.33c-9.998-13.454-27.875-21.311-43.494-27.395       c-15.619-6.084-33.817-7.227-47.246-17.259c-18.837-14.073-27.688-40.223-21.268-62.844c1.571-5.538,3.988-11.207,2.81-16.842       c-1.236-5.91-6.094-10.236-10.071-14.78c-8.902-10.169-14.283-23.363-15.031-36.856c-0.749-13.494,3.14-27.202,10.862-38.293       c14.478-0.135,30.562,2.586,41.418,12.166c10.856,9.58,17.609,23.94,17.074,38.408c-0.281,7.609-2.404,15.67,0.867,22.546       c4.006,8.425,14.347,11.51,20.955,18.094c5.734,5.712,8.443,14.303,7.023,22.271c-1.031,5.785-3.928,12.282-0.492,17.049       c2.449,3.398,7.057,4.189,11.109,5.248c15.88,4.149,29.227,16.906,34.087,32.583       C440.256,257.103,437.541,274.925,426.793,287.33z"/>
				</g>
				<g>
					<path style="fill:#B179FF;" d="M208.6,128.187h50.05c0.585,0,1.432-0.037,2.018-0.037c2.691-13.398,9.775-25.877,19.901-35.054       c7.98-7.233,17.674-12.379,25.621-19.648c-14.933-2.192-30.192-4.048-45.243-2.921c-14.545,1.089-29.926,4.203-40.339,14.415       C209.462,95.872,209.104,112.584,208.6,128.187z"/>
				</g>
			</g>
		</g>
		<g>
			<g>
				<path style="fill:#2E1144;" d="M13.46,256.38l38.853,193.606h241.678l-46.097-185.704      C247.894,264.282,12.801,256.38,13.46,256.38z"/>
			</g>
			<g>
				<rect x="52.971" y="439.449" style="fill:#2E1144;" width="295.677" height="10.536"/>
			</g>
		</g>
		<g>
			<ellipse style="fill:#FFE7DE;" cx="144.506" cy="350.548" rx="23.268" ry="35.78"/>
		</g>
		<g>
			<g>
				<path style="fill:#2E1144;" d="M335.141,210.915H280.82v-2.581h54.321c2.448,0,4.741-0.963,6.453-2.714      c1.713-1.749,2.626-4.061,2.573-6.51l-0.1-4.605l2.578-0.054l0.101,4.605c0.069,3.146-1.105,6.119-3.307,8.368      C341.237,209.675,338.29,210.915,335.141,210.915z"/>
			</g>
			<g>
				<path style="fill:#2E1144;" d="M288.723,210.283c0,3.273-3.464,5.927-7.738,5.927c-4.273,0-7.738-2.654-7.738-5.927      c0-3.273,3.464-5.927,7.738-5.927C285.258,204.356,288.723,207.01,288.723,210.283z"/>
			</g>
			<g>
				<g>
					<path style="fill:#00DBDA;" d="M295.714,71.715c13.747,3.917,23.501,16.256,29.632,29.168       c5.503,11.591,8.873,24.191,9.889,36.982l16.298,0.639c0.205-15.519-6.4-31.388-16.079-43.52       C325.775,82.852,310.891,74.962,295.714,71.715z"/>
				</g>
				<g>
					<g>
						<g>
							<path style="fill:#2E1144;" d="M316.76,164.781c-0.555,19.541,10.606,35.711,24.928,36.118         c14.322,0.407,26.382-15.104,26.937-34.645s-10.605-35.711-24.927-36.118C329.375,129.73,317.315,145.241,316.76,164.781z"/>
						</g>
						<g>
							<g>
								
									<ellipse transform="matrix(0.0284 -0.9996 0.9996 0.0284 172.8449 509.1791)" style="fill:#00DBDA;" cx="348.344" cy="165.678" rx="35.396" ry="25.943"/>
							</g>
						</g>
					</g>
					<g>
						<path style="fill:#2E1144;" d="M360.253,146.203c-0.393-0.787-0.833-1.504-1.273-2.175c-2.106-3.193-4.744-5.068-7.706-5.16        c-3.402-0.116-6.549,2.198-9.001,6.178c-0.833,1.342-1.574,2.869-2.221,4.559c-1.666,4.281-2.73,9.58-2.893,15.388        c-0.139,4.79,0.347,9.418,1.435,13.467c0.463,1.851,1.065,3.587,1.782,5.16c0.648,1.458,1.388,2.73,2.198,3.818        c2.036,2.823,4.512,4.373,7.197,4.466h0.185c1.874,0,3.679-0.717,5.345-2.106c0.602-0.486,1.18-1.064,1.735-1.736        c0.926-1.064,1.782-2.383,2.568-3.887c2.546-4.906,4.073-11.431,4.258-18.419        C364.094,158.004,362.682,151.085,360.253,146.203z M358.031,183.342c-0.347,0.648-0.694,1.273-1.064,1.828        c-0.555,0.856-1.134,1.62-1.736,2.268c-1.712,1.828-3.563,2.754-5.415,2.684c-1.944-0.069-3.818-1.18-5.438-3.24        c-0.879-1.064-1.689-2.406-2.383-4.003c-1.666-3.725-2.707-8.354-2.985-13.398c-0.093-1.458-0.116-2.939-0.07-4.443        c0.139-4.767,0.926-9.256,2.198-13.051c0.347-1.064,0.74-2.083,1.18-3.031c2.221-5.091,5.392-8.331,8.747-8.331h0.162        c2.73,0.093,5.206,2.314,7.127,5.901c0.416,0.81,0.833,1.712,1.203,2.684c1.736,4.443,2.707,10.274,2.546,16.499        C361.895,172.42,360.461,178.691,358.031,183.342z"/>
					</g>
				</g>
			</g>
		</g>
		<g>
			<g>
				<g>
					<g>
						<path style="fill:#B179FF;" d="M36.234,234.758h6.421l133.68-17.121c1.424,0,0.219,0.546,0.219-0.878l-3.512-30.292        c0-1.424,0.985,0-0.439,0L43.313,175.93h-7.079c-1.424,0-2.579,1.155-2.579,2.579v53.67        C33.655,233.603,34.809,234.758,36.234,234.758z"/>
					</g>
					<g>
						<path style="fill:#FFE7DE;" d="M43.697,234.758h149.814c1.424,0,2.579-1.155,2.579-2.579v-53.67        c0-1.424-1.155-2.579-2.579-2.579H43.697c-1.425,0-2.579,1.155-2.579,2.579v53.67        C41.118,233.603,42.273,234.758,43.697,234.758z"/>
					</g>
				</g>
			</g>
			<g>
				<path style="fill:#FF93E2;" d="M66.665,195.186c0,0-11.673-14.834-19.941-5.593c-5.903,6.597,19.418,35.178,19.418,35.178      s26.786-29.342,18.275-37.61S66.665,195.186,66.665,195.186z"/>
			</g>
			<g>
				<g>
					<rect x="93.58" y="188.113" style="fill:#FF93E2;" width="11.48" height="35.121"/>
				</g>
				<g>
					<rect x="110.162" y="188.113" style="fill:#FF93E2;" width="11.479" height="35.121"/>
				</g>
				<g>
					<rect x="126.744" y="188.113" style="fill:#FF93E2;" width="11.48" height="35.121"/>
				</g>
				<g>
					<rect x="143.325" y="188.113" style="fill:#FF93E2;" width="11.48" height="35.121"/>
				</g>
				<g>
					<rect x="159.907" y="188.113" style="fill:#FF93E2;" width="11.48" height="35.121"/>
				</g>
				<g>
					<rect x="176.489" y="188.113" style="fill:#FF93E2;" width="11.48" height="35.121"/>
				</g>
			</g>
		</g>
		<g>
			<g>
				<path style="fill:#FFC666;" d="M433.273,151.098c-4.146-6.517-5.967-14.26-6.769-21.942h-0.056      c-0.803,7.682-2.624,15.425-6.77,21.942c-4.146,6.517-10.894,11.684-18.571,12.534c12.751,4.597,24.287,19.391,25.081,32.922      l0.041,0.696l-0.004,1.113l0.047-0.381l0.014,0.234l0.001-0.35l0.036-0.286c0.794-13.531,12.77-29.352,25.521-33.948      C444.167,162.781,437.418,157.614,433.273,151.098z"/>
			</g>
			<g>
				<path style="fill:#FFC666;" d="M210.53,97.581c-2.902-4.561-4.176-9.981-4.738-15.358h-0.039      c-0.562,5.377-1.836,10.797-4.738,15.358c-2.902,4.562-7.625,8.178-12.999,8.773c8.925,3.218,17,13.573,17.555,23.043      l0.029,0.487l-0.003,0.779l0.033-0.267l0.01,0.163l0.001-0.245l0.025-0.2c0.556-9.471,8.938-20.544,17.863-23.762      C218.156,105.759,213.432,102.143,210.53,97.581z"/>
			</g>
		</g>
		<g>
			<path style="fill:#FFC666;" d="M335.211,363.625c-2.902-4.561-4.177-9.981-4.738-15.358h-0.039     c-0.562,5.377-1.836,10.797-4.738,15.358c-2.902,4.561-7.625,8.178-12.999,8.773c8.925,3.217,17,13.572,17.555,23.043     l0.029,0.487l-0.003,0.779l0.033-0.266l0.01,0.163l0.001-0.245l0.025-0.2c0.556-9.471,8.938-20.544,17.863-23.762     C342.836,371.803,338.112,368.186,335.211,363.625z"/>
		</g>
	</g>
</g>















</svg>
