<svg id="Capa_1" enable-background="new 0 0 512.002 512.002" height="512" viewBox="0 0 512.002 512.002" width="512" xmlns="http://www.w3.org/2000/svg"><g><path d="m427.886 31.416c-1.956-1.41-4.47-1.792-6.757-1.031l-45 15c-3.063 1.021-5.128 3.887-5.128 7.115v69.595l-9.87 3.291c-3.93 1.31-6.053 5.558-4.744 9.487 1.311 3.929 5.558 6.051 9.487 4.743l14.997-5.004c2.979-.993 5.13-3.798 5.13-7.112v-39.594l30-10v29.189l-9.87 3.291c-3.93 1.31-6.053 5.558-4.744 9.487 1.311 3.929 5.558 6.051 9.487 4.743l14.997-5.004c2.979-.993 5.13-3.798 5.13-7.112v-75c0-2.411-1.159-4.675-3.115-6.084zm-11.885 30.678-30 10v-14.189l30-10z"/><path d="m453.501 75c-4.142 0-7.5 3.357-7.5 7.5v54.595l-9.87 3.29c-3.93 1.31-6.053 5.558-4.744 9.487 1.311 3.93 5.557 6.052 9.487 4.743l14.999-5.005c2.978-.993 5.127-3.798 5.127-7.111v-60c.001-4.142-3.357-7.499-7.499-7.499z"/><path d="m413.501 0c-46.155 0-85.63 32.056-95.286 76.758l-28.068 14.034c-2.54 1.27-4.146 3.867-4.146 6.708s1.605 5.438 4.146 6.708l28.068 14.034c9.656 44.702 49.132 76.758 95.286 76.758 53.762 0 97.5-43.738 97.5-97.5s-43.738-97.5-97.5-97.5zm0 180c-40.143 0-74.313-28.647-81.249-68.116-.411-2.341-1.907-4.348-4.032-5.41l-17.949-8.974 17.948-8.974c2.125-1.063 3.621-3.069 4.032-5.41 6.937-39.469 41.107-68.116 81.25-68.116 45.49 0 82.5 37.009 82.5 82.5s-37.01 82.5-82.5 82.5z"/><path d="m91.001 202.5v-45c0-4.142-3.357-7.5-7.5-7.5h-75c-4.143 0-7.5 3.358-7.5 7.5s3.357 7.5 7.5 7.5h37.5v37.5c0 23.476-9.59 34.664-20.694 47.619-11.393 13.292-24.306 28.357-24.306 57.381 0 37.22 30.28 67.5 67.5 67.5s67.5-30.28 67.5-67.5c0-29.024-12.913-44.089-24.306-57.381-11.104-12.955-20.694-24.143-20.694-47.619zm-30-37.5h15v120h-15zm7.5 195c-28.948 0-52.5-23.551-52.5-52.5 0-23.476 9.59-34.664 20.694-47.619 3.086-3.601 6.283-7.335 9.306-11.439v44.058c0 4.142 3.357 7.5 7.5 7.5h30c4.143 0 7.5-3.358 7.5-7.5v-44.058c3.023 4.104 6.219 7.838 9.306 11.439 11.104 12.955 20.694 24.144 20.694 47.619 0 28.949-23.552 52.5-52.5 52.5z"/><path d="m83.501 315h-30c-4.143 0-7.5 3.358-7.5 7.5s3.357 7.5 7.5 7.5h30c4.143 0 7.5-3.358 7.5-7.5s-3.357-7.5-7.5-7.5z"/><path d="m218.5 150c28.948 0 52.5-23.551 52.5-52.5v-45c0-7.026-3.013-13.704-8.1-18.392.282-6.911-2.31-13.764-7.277-18.732-4.969-4.968-11.811-7.567-18.731-7.277-4.689-5.086-11.367-8.099-18.392-8.099s-13.703 3.013-18.392 8.1c-6.901-.284-13.764 2.309-18.73 7.277-4.969 4.968-7.561 11.821-7.278 18.732-5.087 4.688-8.1 11.365-8.1 18.391v45c0 28.949 23.552 52.5 52.5 52.5zm-37.5-97.5c0-3.563 1.847-6.781 4.94-8.606 2.878-1.698 4.285-5.095 3.451-8.331-.896-3.479.072-7.059 2.593-9.579 2.52-2.52 6.102-3.487 9.578-2.592 3.235.834 6.633-.573 8.331-3.451 1.826-3.094 5.043-4.94 8.606-4.94s6.781 1.847 8.608 4.941c1.698 2.878 5.099 4.284 8.33 3.45 3.48-.898 7.059.073 9.578 2.592 2.52 2.52 3.489 6.101 2.593 9.58-.834 3.235.573 6.632 3.451 8.33 3.094 1.825 4.941 5.043 4.941 8.606v8.308c-9.537-9.745-22.821-15.808-37.5-15.808s-27.963 6.063-37.5 15.808zm37.5 7.5c20.678 0 37.5 16.822 37.5 37.5s-16.822 37.5-37.5 37.5-37.5-16.822-37.5-37.5 16.822-37.5 37.5-37.5z"/><path d="m301.001 467.753v-275.253c0-15.164-12.337-27.5-27.5-27.5h-79.999c-7.131 0-13.635 2.729-18.527 7.197-4.111-4.423-9.973-7.197-16.474-7.197-12.406 0-22.5 10.093-22.5 22.5v20c0 12.407 10.094 22.5 22.5 22.5 2.63 0 5.153-.458 7.501-1.291v31.049c-9.693 11.989-15 26.935-15 42.405l-.001 5.335c0 1.989.79 3.897 2.196 5.304s3.314 2.197 5.304 2.197h7.5v52.5c0 9.777 6.271 18.114 15 21.21v100.384l-24.872 8.291c-3.929 1.31-6.053 5.557-4.743 9.487 1.048 3.143 3.974 5.13 7.114 5.13.786 0 1.586-.125 2.373-.387l30-10c3.063-1.021 5.128-3.887 5.128-7.115v-105.789c8.729-3.096 15-11.432 15-21.21v-8.036c2.476.356 4.979.536 7.5.536s5.024-.19 7.5-.547v100.047c0 28.949 23.552 52.5 52.5 52.5h45c4.143 0 7.5-3.358 7.5-7.5 0-18.109-12.904-33.262-30-36.747zm-135-260.253c0 4.136-3.364 7.5-7.5 7.5s-7.5-3.364-7.5-7.5v-20c0-4.136 3.364-7.5 7.5-7.5s7.5 3.364 7.5 7.5zm60 136.733c-6.633 1.344-13.595.889-20-1.375-2.295-.813-4.842-.458-6.83.947-1.988 1.406-3.17 3.689-3.17 6.124v17.571c0 4.136-3.364 7.5-7.5 7.5s-7.5-3.364-7.5-7.5v-52.5h45zm0-44.233h-59.954c.45-10.912 4.301-21.385 10.992-30h48.962zm0-45h-44.999v-62.5c0-6.893 5.607-12.5 12.5-12.5h32.499zm52.5 242c-20.678 0-37.5-16.822-37.5-37.5v-279.5h32.5c6.893 0 12.5 5.607 12.5 12.5v282c0 4.142 3.357 7.5 7.5 7.5 9.778 0 18.119 6.27 21.215 15z"/></g></svg>