<?xml version="1.0" encoding="UTF-8"?>
<!-- Generator: Adobe Illustrator 25.2.0, SVG Export Plug-In . SVG Version: 6.00 Build 0)  -->
<svg xmlns="http://www.w3.org/2000/svg" xmlns:xlink="http://www.w3.org/1999/xlink" version="1.1" id="Capa_1" x="0px" y="0px" viewBox="0 0 500 500" style="enable-background:new 0 0 500 500;" xml:space="preserve" width="512" height="512">
<g>
	<g>
		<path d="M355.039,344.299c17.904-0.208,35.465,1.94,52.602,7.064c8.18,2.445,16.162,5.51,23.262,10.427    c6.174,4.275,11.109,9.602,13.72,16.788c0.518,1.425,0.951,2.914,1.164,4.411c1.227,8.642-4.163,15.289-13.276,16.556    c-5.511,0.766-10.743-0.34-15.683-2.595c-5.133-2.343-10.161-4.943-15.102-7.671c-12.86-7.102-25.671-14.266-39.171-20.148    c-13.726-5.98-27.899-10.217-42.791-11.775c-5.153-0.539-10.383-0.328-15.573-0.551c-0.662-0.029-1.755-0.519-1.848-0.963    c-0.153-0.735,0.181-1.712,0.618-2.387c0.365-0.563,1.135-0.92,1.793-1.225c1.278-0.594,2.576-1.165,3.912-1.609    c7.434-2.473,15.115-3.874,22.874-4.652C339.35,345.184,347.204,344.837,355.039,344.299z"/>
		<path d="M297.566,368.494c14.574,0.378,28.21,3.367,40.891,10.066c6.573,3.473,12.263,8.079,16.582,14.234    c2.6,3.705,4.618,7.658,5.07,12.235c0.544,5.503-1.15,10.078-5.951,13.136c-4.804,3.061-9.787,2.826-14.361-0.261    c-2.716-1.833-5.137-4.257-7.265-6.775c-4.305-5.091-8.111-10.61-12.499-15.622c-8.085-9.234-17.405-16.945-28.883-21.73    c-0.885-0.369-1.845-0.684-2.574-1.268c-0.378-0.303-0.671-0.713-0.949-1.142c-0.355-0.549-0.22-1.279,0.302-1.671    c0.423-0.318,0.85-0.598,1.302-0.648C292.091,368.73,294.977,368.648,297.566,368.494z"/>
	</g>
	<g>
		<path d="M108.207,155.78c-18.156-0.318-35.826-2.482-52.804-8.713c-8.04-2.95-15.66-6.799-22.711-11.691    c-4.633-3.215-8.658-7.095-11.974-11.669c-3.29-4.538-5.2-9.631-5.783-15.199c-1.192-11.393,8.046-19.841,19.288-17.699    c4.301,0.819,8.193,2.583,11.719,5.112c3.122,2.239,6.239,4.511,9.159,7.002c17.454,14.888,37.609,24.441,59.576,30.529    c13.869,3.844,28.084,7.025,42.422,8.418c0.44,0.043,0.887,0.087,1.293,0.262c1.011,0.435,1.549,1.733,1.144,2.755    c-0.283,0.713-0.927,1.223-1.609,1.575c-6.129,3.166-13.413,4.902-20.123,6.315c-6.988,1.471-14.098,2.318-21.225,2.721    C113.802,155.655,110.99,155.829,108.207,155.78z"/>
		<path d="M150.692,128.265c-12.707-0.648-24.943-3.342-36.71-8.165c-6.866-2.814-13.609-5.839-19.477-10.479    c-4.743-3.75-8.842-8.08-11.63-13.517c-1.52-2.964-2.448-6.081-2.224-9.461c0.332-5.014,4.85-8.096,9.65-6.611    c3.328,1.03,6.009,3.079,8.372,5.538c3.485,3.626,6.918,7.304,10.301,11.026c9.803,10.785,21.35,19.094,34.789,24.774    c2.649,1.119,5.246,2.384,7.777,3.749c0.007,0.004,0.014,0.008,0.022,0.012c1.259,0.706,0.932,2.634-0.44,3.08    C150.878,128.287,150.713,128.315,150.692,128.265z"/>
	</g>
	<g>
		<path d="M422.616,245.311c2.882,4.856,5.651,9.574,8.47,14.262c10.425,17.342,17.2,36.064,21.203,55.845    c1.456,7.197,3.043,14.367,4.467,21.57c0.312,1.578,0.274,3.245,0.231,4.867c-0.038,1.443-1.025,2.178-2.389,2.03    c-1.276-0.138-2.556-0.48-3.77-0.91c-7.404-2.622-14.675-5.691-22.204-7.876c-21.932-6.366-44.406-8.859-67.219-8.703    c-23.179,0.158-46.213,1.952-69.044,5.981c-18.5,3.265-36.646,8.066-54.762,12.988c-19.471,5.29-38.797,11.179-58.65,14.954    c-12.68,2.411-25.458,4.21-38.406,3.996c-13.283-0.22-26.593-0.239-39.833-1.167c-13.859-0.971-27.724-2.431-41.233-6.017    c-20.413-5.42-37.283-16.532-51.198-32.239c-2.454-2.77-4.39-6.011-6.453-9.109c-0.676-1.015-1.105-2.234-1.462-3.416    c-0.94-3.106-0.064-5.44,2.74-7.092c1.994-1.175,4.091-2.175,6.163-3.214c16.503-8.273,32.555-17.297,47.287-28.504    c3.372-2.565,6.659-5.242,10.173-8.016c-0.561-0.451-1.02-0.819-1.479-1.188c-4.89-3.933-9.902-7.724-14.647-11.825    c-15.703-13.575-26.793-30.556-35.321-49.243c-3.854-8.446-6.578-17.353-5.921-26.891c0.07-1.013,0.259-2.017,0.33-3.029    c0.229-3.29,2.117-3.986,4.885-3.498c3.499,0.616,6.951,1.52,10.406,2.371c10.022,2.469,20.178,4.024,30.488,4.493    c24.66,1.122,49.188,0.019,73.485-4.619c18.511-3.533,36.628-8.675,54.795-13.597c21.803-5.907,43.914-10.224,66.248-13.585    c21.953-3.303,44.012-4.189,66.146-3.693c17.681,0.396,35.14,2.953,52.52,6.107c21.887,3.972,43.194,9.884,63.528,19.005    c12.042,5.402,23.756,11.438,34.141,19.703c12.456,9.913,22.812,21.746,31.486,35.068c0.764,1.173,1.39,2.445,1.991,3.713    c0.615,1.297-0.284,2.848-2.034,3.274c-1.361,0.331-2.79,0.445-4.196,0.515c-12.117,0.603-24.116,2.113-35.902,4.998    c-5.15,1.26-10.225,2.875-15.257,4.559c-6.16,2.063-12.24,4.366-18.353,6.569C423.593,244.916,423.128,245.111,422.616,245.311z     M494.303,222.759c-1.148-1.396-2.336-2.806-3.488-4.245c-16.187-20.237-35.756-35.997-59.832-46.074    c-18.137-7.591-36.836-13.082-56.155-16.561c-20.451-3.684-41.008-6.357-61.825-6.71c-29.592-0.501-58.87,2.587-87.822,8.372    c-19.891,3.975-39.615,8.811-59.352,13.521c-14.249,3.401-28.494,6.81-42.997,8.896c-20.152,2.898-40.418,3.538-60.763,2.773    c-16.768-0.631-33.005-3.582-48.608-9.832c-0.181-0.072-0.4-0.049-0.975-0.11c0.428,3.862,0.479,7.636,1.318,11.227    c1.977,8.464,5.513,16.322,9.769,23.919c7.843,14,16.85,27.069,28.768,37.957c5.595,5.111,11.204,10.208,16.782,15.338    c0.952,0.876,1.995,1.774,2.583,2.882c0.38,0.716,0.367,2.101-0.096,2.715c-1.17,1.554-2.711,2.824-4.072,4.238    c-6.879,7.146-14.952,12.771-23.237,18.098c-11.763,7.563-24.038,14.204-36.752,20.035c-2.128,0.976-2.314,1.161-1.022,3.104    c2.245,3.376,4.49,6.822,7.218,9.794c15.418,16.795,34.966,25.72,57.177,29.196c22.907,3.585,45.973,4.891,69.16,4.421    c12.427-0.251,24.708-1.654,36.899-3.905c17.424-3.218,34.422-8.185,51.478-12.887c24.533-6.764,49.103-13.276,74.405-16.676    c24.967-3.355,50.011-4.801,75.14-3.185c25.673,1.651,50.752,6.123,73.845,18.362c0.259,0.137,0.568,0.178,0.974,0.299    c-4.159-14.116-8.152-28.07-12.394-41.947c-3.821-12.498-9.785-24.055-16.053-35.474c-2.253-4.104-4.067-8.448-6.063-12.691    c-0.705-1.499-0.567-2.862,0.415-4.293c1.553-2.262,3.803-3.499,6.147-4.641c14.972-7.298,30.705-12.065,47.266-13.926    C479.439,223.927,486.771,223.424,494.303,222.759z"/>
		<g>
			<path d="M198.382,251.308c2.501,1.027,4.899,1.882,7.184,2.973c10.033,4.791,15.257,12.901,16.212,23.868     c1.377,15.812-5.856,27.044-18.886,35.068c-6.8,4.188-14.294,6.821-22.025,8.577c-11.562,2.626-23.202,4.914-34.821,7.285     c-1.368,0.279-2.819,0.303-4.221,0.231c-2.477-0.127-3.666-1.103-4.018-3.519c-0.91-6.256-1.686-12.532-2.523-18.799     c-3.775-28.26-6.235-56.651-8.478-85.064c-0.356-4.508-0.895-9.001-1.358-13.501c-0.331-3.212,0.729-5.331,3.57-6.844     c9.584-5.105,19.632-8.953,30.332-10.951c7.009-1.309,14.055-1.345,21.101-0.223c4.697,0.748,8.749,2.886,11.92,6.33     c10.867,11.803,15.349,25.706,13.22,41.668c-0.594,4.454-3.036,7.964-5.809,11.299     C199.353,250.224,198.898,250.72,198.382,251.308z M165.053,313.667c2.051-0.486,4.042-0.881,5.988-1.433     c4.554-1.292,9.191-2.396,13.586-4.109c2.196-0.856,4.332-2.57,5.8-4.441c3.051-3.888,4.796-8.418,4.657-13.508     c-0.065-2.372,0.038-4.753-0.122-7.117c-0.306-4.522-0.73-9.1-3.03-13.099c-2.832-4.925-6.551-9.353-12.905-8.403     c-6.486,0.97-12.826,2.915-19.188,4.423C161.601,282.093,163.319,297.804,165.053,313.667z M158.417,256.831     c3.671-1.346,7.029-2.385,10.219-3.803c2.924-1.3,5.806-2.801,8.454-4.588c3.428-2.313,5.167-5.853,5.385-9.935     c0.149-2.803,0.002-5.663-0.387-8.445c-1.092-7.814-3.624-15.141-7.964-21.789c-2.575-3.945-6.154-5.794-10.842-4.914     c-3.587,0.674-7.122,1.627-11.056,2.543C154.3,222.962,156.356,239.871,158.417,256.831z"/>
			<path d="M289.159,226.53c2.379-7.06,4.537-13.894,6.982-20.624c3.759-10.348,7.742-20.615,11.572-30.937     c1.168-3.148,3.217-5.014,6.643-5.059c6.1-0.079,12.206-0.257,18.3-0.073c3.574,0.108,4.239,1.216,3.386,4.735     c-0.918,3.786-1.97,7.544-3.108,11.27c-4.82,15.782-10.277,31.34-16.518,46.622c-1.43,3.501-2.739,7.055-3.968,10.632     c-0.352,1.025-0.373,2.225-0.294,3.327c0.965,13.589,1.983,27.174,2.965,40.761c0.114,1.577,0.169,3.166,0.119,4.745     c-0.069,2.222-0.804,3.065-3,3.374c-5.258,0.74-10.524,1.432-15.792,2.098c-2.296,0.291-4.602,0.561-6.911,0.646     c-0.676,0.025-1.784-0.462-1.989-0.988c-0.584-1.496-0.993-3.118-1.138-4.72c-1.18-13.064-2.284-26.135-3.412-39.204     c-0.005-0.056-0.023-0.114-0.014-0.169c0.669-4.361-1.575-7.355-4.379-10.373c-13.817-14.87-27.486-29.877-41.23-44.815     c-2.104-2.287-4.43-4.375-6.462-6.722c-2.466-2.847-2.152-4.369,1.015-6.378c2.624-1.665,5.261-3.309,7.904-4.942     c1.826-1.129,3.098-1.056,4.88,0.657c2.729,2.624,5.329,5.381,7.962,8.103c10.966,11.338,21.928,22.68,32.879,34.032     C286.722,223.742,287.814,225.034,289.159,226.53z"/>
		</g>
		<g>
			<path d="M362.825,311.024c-6.211,0-12.422,0.019-18.633-0.03c-0.024,0-0.048-0.001-0.073-0.002     c-1.016-0.058-1.346-1.547-0.417-1.965c0.071-0.032,0.143-0.054,0.217-0.066c3.063-0.466,6.147-0.836,9.237-1.078     c13.902-1.091,27.772-0.686,41.608,1.031c9.589,1.19,18.742,4.046,27.811,7.23c2.503,0.879,5.01,1.75,7.491,2.691     c0.905,0.343,2.254,0.64,1.772,1.998c-0.443,1.25-1.628,0.642-2.503,0.404c-6.264-1.701-12.502-3.502-18.782-5.142     c-13.977-3.648-28.257-4.775-42.642-4.955C366.215,311.119,362.825,311.061,362.825,311.024z"/>
			<path d="M392.461,299.453c9.348,0.43,18.587,1.64,27.767,3.348c1.046,0.195,2.163,0.423,3.038,0.969     c0.392,0.245,0.612,0.765,0.83,1.29c0.169,0.408,0.016,0.877-0.361,1.107c-0.426,0.26-0.851,0.506-1.25,0.469     c-4.613-0.424-9.205-1.094-13.821-1.469c-8.958-0.727-17.929-1.307-26.893-1.965c-0.897-0.066-1.808-0.167-2.67-0.406     c-0.465-0.129-1.238-0.374-1.257-0.891c-0.02-0.528,0.759-0.914,1.208-0.999c2.876-0.544,5.763-1.066,8.667-1.421     C389.278,299.296,390.879,299.453,392.461,299.453z"/>
		</g>
		<g>
			<path d="M82.315,194.939c-12.355,1.34-25.048,0.037-37.66-2.132c-4.144-0.713-8.183-2.098-12.218-3.342     c-1.205-0.372-2.967-1.02-2.439-2.705c0.543-1.733,2.255-1.059,3.526-0.757c15.522,3.681,31.31,5.039,47.207,5.489     c7.226,0.205,14.451,0.46,21.676,0.715c1.126,0.04,2.271,0.098,3.362,0.348c0.498,0.114,1.36,0.518,1.321,1.096     c-0.039,0.571-0.941,0.867-1.438,0.9c-2.928,0.197-5.864,0.338-8.798,0.374C92.164,194.98,87.474,194.939,82.315,194.939z"/>
			<path d="M92.989,199.59c0.613,0.269,0.689,1.093,0.135,1.469c-1.518,1.032-3.157,1.21-4.727,1.261     c-9.816,0.319-19.646,0.848-29.452,0.579c-4.578-0.126-9.119-1.853-13.653-2.957c-0.552-0.134-1.571-0.73-1.418-1.38     c0.143-0.611,1.203-0.622,1.776-0.577c3.148,0.247,6.281,0.734,9.432,0.899c5.072,0.266,10.154,0.471,15.231,0.471     c6.211,0,12.423-0.244,18.634-0.371C90.302,198.957,91.644,199,92.989,199.59z"/>
		</g>
		<g>
			<path d="M63.036,342.625c-0.624,0.342-1.357,0.432-2.045,0.252c-1.098-0.287-2.102-0.531-3.053-0.909     c-8.291-3.3-16.602-6.556-24.824-10.023c-4.513-1.903-8.563-4.636-11.759-8.421c-0.409-0.485-0.629-1.13-0.835-1.786     c-0.16-0.508,0.253-1.015,0.782-0.96c0.709,0.073,1.41,0.159,1.965,0.491c4.119,2.462,7.952,5.475,12.24,7.566     c8.423,4.107,17.08,7.733,25.641,11.555c0.412,0.184,0.895,0.262,1.243,0.525c0.289,0.218,0.546,0.478,0.797,0.745     C63.467,341.953,63.391,342.431,63.036,342.625L63.036,342.625z"/>
			<path d="M57.969,333.78c-0.694,0.345-1.485,0.444-2.243,0.282c-1.365-0.291-2.598-0.509-3.723-0.985     c-4.152-1.755-8.311-3.527-12.303-5.607c-1.629-0.849-2.879-2.468-4.199-3.836c-0.298-0.308-0.562-1.142-0.231-1.563     c0.33-0.421,1.158-0.338,1.579-0.151c1.751,0.778,3.415,1.749,5.156,2.55c5.062,2.331,10.155,4.596,15.212,6.937     c0.305,0.141,0.596,0.314,0.879,0.502c0.692,0.458,0.642,1.489-0.101,1.859L57.969,333.78z"/>
		</g>
		<g>
			<path d="M399.417,167.687c5.126,0.358,10.45,1.782,15.77,3.378c12.377,3.713,24.077,8.867,34.612,16.373     c5.836,4.158,11.336,8.789,16.947,13.258c0.817,0.651,2.17,1.502,1.166,2.725c-0.915,1.115-1.952,0.003-2.8-0.567     c-6.518-4.376-12.919-8.935-19.554-13.123c-8.198-5.173-16.948-9.218-26.314-11.886c-6.512-1.855-12.974-3.887-19.453-5.86     c-1.023-0.311-2.119-0.57-2.984-1.147c-0.579-0.387-1.131-1.316-1.087-1.961c0.029-0.434,1.083-0.889,1.75-1.157     C397.907,167.545,398.473,167.687,399.417,167.687z"/>
			<path d="M421.82,184.202c8.896,3.149,16.777,8.254,24.736,13.191c0.095,0.059,0.22,0.113,0.268,0.203     c0.178,0.334,0.353,0.67,0.527,1.007c0.312,0.605-0.128,1.34-0.808,1.319c-0.386-0.012-0.756-0.059-1.079-0.208     c-7.221-3.324-14.352-6.848-21.617-10.07c-3.541-1.57-7.31-2.628-10.98-3.905c-0.798-0.278-1.686-0.381-2.399-0.794     c-0.27-0.156-0.499-0.382-0.714-0.633c-0.41-0.477-0.311-1.21,0.226-1.538c0.303-0.186,0.612-0.352,0.941-0.456     c0.564-0.179,1.23-0.036,1.851-0.036C412.806,182.142,418.925,183.177,421.82,184.202z"/>
			<path d="M463.551,211.338c-0.438,0.246-0.97,0.256-1.422,0.037c-2.664-1.29-5.243-2.453-6.851-4.979     c-0.261-0.41-0.209-1.261,0.055-1.687c0.213-0.343,1.133-0.647,1.449-0.464c2.504,1.449,4.972,2.968,7.355,4.606     c0.338,0.232,0.355,1.302,0.148,1.84C464.182,210.959,463.885,211.151,463.551,211.338z"/>
		</g>
	</g>
</g>















</svg>
