<?xml version="1.0" encoding="UTF-8"?>
<!-- Generator: Adobe Illustrator 27.2.0, SVG Export Plug-In . SVG Version: 6.00 Build 0)  -->
<svg xmlns="http://www.w3.org/2000/svg" xmlns:xlink="http://www.w3.org/1999/xlink" version="1.1" id="Capa_1" x="0px" y="0px" viewBox="0 0 512 512" style="enable-background:new 0 0 512 512;" xml:space="preserve" width="512" height="512">
<g>
	<path style="fill:#FFFFFF;" d="M133.025,491.879c-5.247,0-10.228-2.843-12.829-7.641l-7.256-13.389   c-0.752-0.399-1.472-0.791-2.175-1.183c-32.98-18.356-57.872-50.499-67.881-87.132c-4.1-2.767-6.665-7.539-6.421-12.783   c0.13-2.765,1.024-5.328,2.476-7.48c-1.068-9.285-1.159-18.831-0.272-28.467L1.764,265.711c-2.19-4.04-2.349-8.876-0.429-13.052   c1.92-4.176,5.695-7.202,10.187-8.168l87.065-18.74c0.26-0.411,0.501-0.815,0.725-1.214c4.446-7.964,4.792-18.766,5.158-30.203   c0.082-2.57,0.166-5.138,0.291-7.689c-0.109-0.995-0.165-1.963-0.17-2.925c-0.014-2.8,0.377-5.589,1.166-8.307   c0.694-5.547,1.73-11.046,3.098-16.465c-8.832-5.081-14.785-14.564-14.839-25.401c-0.084-16.259,13.077-29.559,29.339-29.644   c4.071,0,8.002,0.832,11.599,2.357c10.117-12.815,22.318-23.727,35.912-32.041c13.924-8.514,29.048-14.13,46.32-17.085   c-1.748-6.589-1.167-13.519,1.708-19.796c4.787-10.459,15.317-17.218,26.823-17.218c4.256,0,8.386,0.903,12.27,2.682   c7.147,3.272,12.597,9.128,15.349,16.491c0.023,0,0.046,0,0.069,0c3.623,0,7.136,0.767,10.441,2.28   c5.518,2.526,9.683,6.815,12.135,11.893c3.057-1.305,6.393-2.014,9.83-2.014c3.623,0,7.138,0.767,10.443,2.281   c4.38,2.005,8.013,5.216,10.56,9.153c38.045,8.359,74.252,25.491,102.692,48.7c27.268,22.25,48.497,51.752,59.937,83.244   c15.339,23.597,23.123,50.824,22.524,78.861c0,0.15-0.029,0.998-0.032,1.097c-0.133,4.827-0.536,9.762-1.196,14.665   c-2.02,15.052-6.432,29.557-13.11,43.115c-0.186,0.401-0.382,0.791-0.587,1.188c-5.383,10.658-12.044,20.486-19.846,29.315   c0,0-0.677,0.77-0.759,0.862c-9.571,10.684-20.648,19.778-32.926,27.037l25.146,31.597c3.148,3.955,4.026,9.256,2.318,14.016   c-1.707,4.757-5.754,8.294-10.699,9.344c-0.609,0.131-15.186,3.192-38.129,4.575l-1.563,0.081c-0.159,0.014-0.547,0.04-0.707,0.05   c-6.491,0.352-13.137,0.53-19.751,0.53c-7.69,0-15.471-0.242-23.129-0.717l-1.604-0.116c-0.276-0.005-0.36-0.01-0.634-0.029   c-12.839-0.9-25.556-2.492-37.797-4.729l-1.039-0.202c-0.72-0.121-1.437-0.249-2.129-0.392l-0.817-0.157   c-7.091-1.389-14.186-3.043-21.205-4.94c-3.184,3.195-6.292,6.743-9.515,10.422c-6.109,6.969-12.425,14.178-20.383,20.341   c-18.119,14.04-42.383,20.864-74.178,20.864c-2.479,0-4.949-0.04-7.405-0.114c-16.168-0.48-31.317-2.261-45.099-5.302   l-18.132,5.216C135.722,491.694,134.365,491.879,133.025,491.879z"/>
	
		<rect x="58.247" y="270.767" transform="matrix(-0.3952 -0.9186 0.9186 -0.3952 -165.5599 441.3579)" style="fill:#2F2444;" width="8.537" height="8.83"/>
	<g>
		<path style="fill:#A27CFF;" d="M178.317,85.891c-33.267,20.342-55.849,57.206-58.86,96.083    c-1.286,16.605,0.551,34.357-7.567,48.899c-5.247,9.399-14.024,16.186-21.683,23.75c-27.956,27.61-41.94,68.705-36.627,107.635    c5.313,38.93,29.798,74.775,64.129,93.884c25.058,13.948,54.189,19.036,82.855,19.888c25.282,0.752,52.216-2.21,72.212-17.7    c15.166-11.748,24.965-29.709,41.167-39.981c14.546-9.222,32.366-11.092,49.059-15.335c36.833-9.361,70.357-31.715,92.53-62.58    c22.173-30.865,32.672-70.069,28.122-107.8c-5.214-43.24-29.793-82.984-63.537-110.52c-33.222-27.11-76.342-44.429-118.864-49.558    C259.433,67.512,215.931,62.891,178.317,85.891z"/>
		<g>
			<g>
				<g>
					<path style="fill:#2F2444;" d="M268.027,296.231c-0.211,0-0.422-0.079-0.585-0.236       c-49.476-47.857-95.304-100.195-136.212-155.56c-0.276-0.374-0.197-0.9,0.177-1.177c0.373-0.277,0.899-0.198,1.177,0.177       c40.854,55.289,86.62,107.557,136.028,155.35c0.334,0.322,0.343,0.855,0.02,1.189       C268.467,296.146,268.247,296.231,268.027,296.231z"/>
					<path style="fill:#2F2444;" d="M178.64,201.18c-0.095,0-0.19-0.016-0.284-0.05c-16.64-5.967-33.558-11.878-50.282-17.569       c-0.439-0.149-0.675-0.628-0.525-1.068c0.15-0.438,0.63-0.672,1.068-0.525c16.732,5.694,33.659,11.609,50.308,17.579       c0.438,0.156,0.665,0.639,0.508,1.076C179.309,200.966,178.985,201.18,178.64,201.18z"/>
					<path style="fill:#2F2444;" d="M159.213,176.24c-0.014,0-0.026,0-0.04-0.001c-0.464-0.021-0.823-0.415-0.802-0.88       c0.592-12.768,0.488-25.707-0.31-38.458c-0.029-0.464,0.323-0.863,0.787-0.893c0.468-0.029,0.864,0.323,0.893,0.787       c0.802,12.812,0.906,25.813,0.312,38.642C160.032,175.889,159.659,176.24,159.213,176.24z"/>
					<path style="fill:#2F2444;" d="M218.234,245.61c-0.362,0-0.696-0.235-0.806-0.6c-10.939-36.367-21.401-73.417-31.097-110.121       c-0.119-0.449,0.149-0.91,0.599-1.028c0.449-0.121,0.909,0.148,1.028,0.599c9.69,36.686,20.147,73.717,31.081,110.066       c0.134,0.445-0.118,0.914-0.563,1.048C218.396,245.599,218.314,245.61,218.234,245.61z"/>
					<path style="fill:#2F2444;" d="M200.904,187.01c-0.102,0-0.204-0.019-0.304-0.057c-0.434-0.168-0.649-0.655-0.481-1.089       l16.224-41.954c0.167-0.435,0.658-0.646,1.089-0.481c0.434,0.168,0.649,0.655,0.481,1.089l-16.224,41.954       C201.561,186.806,201.241,187.01,200.904,187.01z"/>
					<path style="fill:#2F2444;" d="M251.822,280.076c-0.295,0-0.581-0.155-0.735-0.431c-8.33-14.867-13.652-33.108-15.818-54.218       c-1.935-18.842-1.284-38.035-0.654-56.597c0.015-0.455,0.389-0.813,0.84-0.813c0.01,0,0.02,0,0.029,0.001       c0.465,0.016,0.829,0.404,0.812,0.869c-0.627,18.505-1.276,37.641,0.646,56.368c2.144,20.879,7.396,38.901,15.613,53.567       c0.228,0.405,0.083,0.918-0.323,1.146C252.103,280.042,251.961,280.076,251.822,280.076z"/>
					<path style="fill:#2F2444;" d="M196.022,172.738c-0.216,0-0.433-0.083-0.597-0.248c-8.15-8.192-16.743-16.145-25.541-23.637       c-0.354-0.301-0.396-0.832-0.095-1.187c0.301-0.354,0.833-0.396,1.187-0.095c8.832,7.521,17.46,15.506,25.643,23.73       c0.328,0.33,0.326,0.862-0.003,1.19C196.452,172.656,196.237,172.738,196.022,172.738z"/>
					<path style="fill:#2F2444;" d="M234.96,202.936c-0.272,0-0.539-0.132-0.701-0.374c-5.098-7.637-11.007-14.771-17.564-21.208       c-0.331-0.325-0.337-0.858-0.011-1.19c0.327-0.332,0.858-0.337,1.19-0.011c6.64,6.517,12.623,13.742,17.785,21.474       c0.258,0.387,0.153,0.91-0.232,1.168C235.282,202.89,235.12,202.936,234.96,202.936z"/>
				</g>
				
					<ellipse transform="matrix(0.9039 -0.4277 0.4277 0.9039 -65.3206 74.8472)" style="fill:#FBEEE5;" cx="133.92" cy="182.801" rx="14.9" ry="14.9"/>
				
					<ellipse transform="matrix(0.4288 -0.9034 0.9034 0.4288 -49.3493 187.1874)" style="fill:#FBEEE5;" cx="123.345" cy="132.617" rx="14.9" ry="14.9"/>
				
					<ellipse transform="matrix(0.4898 -0.8719 0.8719 0.4898 -38.2218 203.4205)" style="fill:#FBEEE5;" cx="154.682" cy="134.365" rx="10.506" ry="10.506"/>
				
					<ellipse transform="matrix(0.3249 -0.9458 0.9458 0.3249 -27.1184 264.6614)" style="fill:#FBEEE5;" cx="171.819" cy="151.325" rx="10.506" ry="10.506"/>
				
					<ellipse transform="matrix(0.9876 -0.1568 0.1568 0.9876 -18.3154 31.2897)" style="fill:#FBEEE5;" cx="189.196" cy="131.751" rx="10.506" ry="10.506"/>
				<path style="fill:#FBEEE5;" d="M215.264,130.566c5.802-0.03,10.53,4.649,10.56,10.452c0.03,5.802-4.649,10.53-10.452,10.56      c-5.802,0.03-10.53-4.649-10.56-10.452C204.783,135.324,209.462,130.596,215.264,130.566z"/>
				<path style="fill:#FBEEE5;" d="M215.252,169.678c7.029-0.036,12.756,5.632,12.792,12.661      c0.036,7.029-5.632,12.756-12.661,12.792c-7.029,0.036-12.756-5.632-12.792-12.661      C202.555,175.441,208.223,169.714,215.252,169.678z"/>
				
					<ellipse transform="matrix(0.7071 -0.7071 0.7071 0.7071 -47.5226 215.1944)" style="fill:#FBEEE5;" cx="236.001" cy="164.962" rx="12.727" ry="12.727"/>
			</g>
			<g>
				<g>
					<path style="fill:#2F2444;" d="M308.256,258.235c-0.338,0-0.657-0.205-0.785-0.539       c-24.729-64.239-44.266-131.006-58.063-198.446c-0.094-0.456,0.2-0.9,0.655-0.993c0.454-0.093,0.9,0.2,0.993,0.655       c13.78,67.35,33.289,134.026,57.985,198.179c0.167,0.435-0.049,0.921-0.482,1.088       C308.459,258.218,308.356,258.235,308.256,258.235z"/>
					<path style="fill:#2F2444;" d="M267.192,134.386c-0.214,0-0.427-0.081-0.591-0.243c-12.56-12.395-25.416-24.878-38.213-37.104       c-0.337-0.321-0.349-0.854-0.027-1.189c0.32-0.338,0.854-0.349,1.189-0.027c12.805,12.232,25.668,24.723,38.232,37.124       c0.331,0.326,0.335,0.859,0.008,1.189C267.627,134.302,267.409,134.386,267.192,134.386z"/>
					<path style="fill:#2F2444;" d="M260.068,103.585c-0.131,0-0.264-0.03-0.389-0.096c-0.412-0.215-0.571-0.724-0.356-1.136       c5.913-11.335,11.266-23.115,15.909-35.014c0.17-0.434,0.658-0.645,1.09-0.479c0.434,0.169,0.647,0.657,0.479,1.09       c-4.666,11.955-10.044,23.792-15.985,35.182C260.665,103.42,260.372,103.585,260.068,103.585z"/>
					<path style="fill:#2F2444;" d="M284.403,191.356c-0.04,0-0.08-0.003-0.12-0.009c-0.46-0.065-0.78-0.492-0.714-0.952       c5.388-37.591,11.495-75.603,18.153-112.979c0.082-0.458,0.516-0.764,0.977-0.682c0.458,0.082,0.763,0.52,0.682,0.977       c-6.656,37.358-12.761,75.351-18.146,112.922C285.176,191.054,284.815,191.356,284.403,191.356z"/>
					<path style="fill:#2F2444;" d="M293.354,130.906c-0.221,0-0.44-0.086-0.605-0.258c-0.323-0.334-0.313-0.867,0.021-1.189       l32.378-31.225c0.334-0.325,0.866-0.314,1.189,0.021c0.323,0.334,0.313,0.867-0.021,1.189l-32.378,31.225       C293.774,130.828,293.563,130.906,293.354,130.906z"/>
					<path style="fill:#2F2444;" d="M300.356,236.759c-0.436,0-0.805-0.336-0.838-0.777c-1.297-16.992,1.556-35.779,8.477-55.84       c6.179-17.906,14.849-35.042,23.233-51.612c0.21-0.414,0.716-0.581,1.131-0.371s0.581,0.716,0.371,1.131       c-8.359,16.521-17.003,33.604-23.144,51.401c-6.847,19.842-9.669,38.401-8.391,55.162c0.036,0.464-0.312,0.868-0.774,0.903       C300.399,236.758,300.378,236.759,300.356,236.759z"/>
					<path style="fill:#2F2444;" d="M294.933,115.905c-0.344,0-0.667-0.213-0.791-0.555c-3.942-10.858-8.39-21.688-13.217-32.191       c-0.194-0.423-0.009-0.922,0.413-1.116c0.428-0.196,0.923-0.009,1.116,0.413c4.847,10.545,9.312,21.419,13.27,32.32       c0.159,0.437-0.066,0.92-0.504,1.078C295.125,115.889,295.028,115.905,294.933,115.905z"/>
					<path style="fill:#2F2444;" d="M317.537,159.688c-0.408,0-0.767-0.297-0.831-0.713c-1.409-9.074-3.766-18.034-7.004-26.631       c-0.163-0.436,0.057-0.921,0.491-1.085c0.434-0.161,0.92,0.056,1.085,0.491c3.278,8.705,5.664,17.777,7.092,26.967       c0.071,0.459-0.243,0.89-0.703,0.961C317.623,159.686,317.58,159.688,317.537,159.688z"/>
				</g>
				
					<ellipse transform="matrix(0.8967 -0.4426 0.4426 0.8967 -19.5649 113.7793)" style="fill:#FBEEE5;" cx="234.011" cy="98.811" rx="14.9" ry="14.9"/>
				
					<ellipse transform="matrix(0.9957 -0.0922 0.0922 0.9957 -3.4564 22.8418)" style="fill:#FBEEE5;" cx="245.546" cy="48.839" rx="14.9" ry="14.9"/>
				<path style="fill:#FBEEE5;" d="M277.608,54.064c5.276,2.415,7.594,8.65,5.179,13.926c-2.415,5.276-8.65,7.594-13.926,5.179      c-5.276-2.416-7.594-8.65-5.179-13.926S272.333,51.649,277.608,54.064z"/>
				<path style="fill:#FBEEE5;" d="M286.012,76.663c5.276,2.415,7.594,8.65,5.179,13.926c-2.415,5.276-8.651,7.594-13.926,5.179      c-5.276-2.415-7.594-8.65-5.179-13.926C274.502,76.566,280.737,74.247,286.012,76.663z"/>
				<path style="fill:#FBEEE5;" d="M310.015,66.223c5.276,2.415,7.594,8.65,5.179,13.926c-2.415,5.276-8.65,7.594-13.926,5.179      c-5.276-2.415-7.594-8.65-5.179-13.926C298.505,66.126,304.74,63.808,310.015,66.223z"/>
				<path style="fill:#FBEEE5;" d="M329.787,85.675c5.276,2.415,7.594,8.65,5.179,13.926c-2.415,5.276-8.65,7.594-13.926,5.179      c-5.276-2.416-7.594-8.651-5.179-13.926C318.276,85.578,324.511,83.26,329.787,85.675z"/>
				<path style="fill:#FBEEE5;" d="M313.309,121.147c6.391,2.926,9.2,10.479,6.274,16.87c-2.926,6.391-10.479,9.199-16.87,6.273      c-6.391-2.926-9.199-10.479-6.273-16.87C299.366,121.03,306.919,118.221,313.309,121.147z"/>
				<path style="fill:#FBEEE5;" d="M339.414,114.033c6.391,2.926,9.199,10.479,6.273,16.87c-2.926,6.391-10.479,9.2-16.87,6.273      c-6.391-2.926-9.199-10.479-6.273-16.87C325.47,113.916,333.023,111.107,339.414,114.033z"/>
			</g>
			<g>
				<g>
					<g>
						<path style="fill:#2F2444;" d="M457.077,430.877c0,0-13.853,2.946-35.97,4.279c-0.338,0.017-0.697,0.032-1.035,0.05        l-0.021-0.003c-0.382,0.033-0.741,0.047-1.124,0.08c-11.801,0.64-25.78,0.777-41.186-0.18        c-0.353-0.026-0.707-0.053-1.039-0.077c-0.374-0.029-0.727-0.056-1.083-0.061c-11.439-0.802-23.612-2.228-36.194-4.527        c-0.348-0.068-0.716-0.138-1.064-0.206c-0.595-0.101-1.191-0.202-1.762-0.321c-0.348-0.068-0.696-0.135-1.043-0.203        c-10.923-2.139-22.155-4.95-33.482-8.613c-0.342-0.109-0.684-0.218-1.027-0.327c-0.059-0.029-0.118-0.058-0.201-0.069        c-0.322-0.106-0.643-0.212-0.962-0.339c-9.266-3.071-18.58-6.716-27.847-11.026c-0.354-0.174-0.733-0.329-1.108-0.506        c-7.917-3.73-15.789-7.958-23.568-12.719l17.087-11.392l0.023-0.018l1.8-1.207l14.69-9.804l0.989-0.644l16.513-11.028        l116.223,15.615l14.316,17.983l0.702,0.871l5.192,6.513l0.663,0.845L457.077,430.877z"/>
					</g>
					<g>
						<path style="fill:#FBEEE5;" d="M300.845,420.698c-0.322-0.106-0.643-0.212-0.962-0.339c1.939-5.996,2.286-11.386,1.072-16.105        c-0.666-2.546-1.75-4.476-3.199-5.72c-3.785-3.238-9.77-1.816-14.105,0.603c-4.563,2.557-8.534,6.013-11.615,10.196        c-0.354-0.174-0.733-0.329-1.108-0.506c2.034-3.737,3.404-7.835,4.031-12.034c0.292-2.018,0.907-8.78-3.52-11.306        c-1.461-0.847-3.376-1.125-5.99-0.889c-0.318,0.02-0.659,0.058-0.979,0.099l1.8-1.207c1.691-0.088,3.858,0.036,5.691,1.079        c4.988,2.875,4.34,10.198,4.029,12.361c-0.457,3.088-1.303,6.102-2.509,8.984c2.761-3.051,6.029-5.656,9.661-7.687        c4.631-2.59,11.086-4.074,15.306-0.484c1.598,1.39,2.786,3.482,3.507,6.245C303.227,408.905,302.874,414.505,300.845,420.698z        "/>
						<path style="fill:#FBEEE5;" d="M336.598,429.91c-0.348-0.068-0.696-0.135-1.043-0.203c-0.42-7.026-2.109-13.677-7.447-17.229        c-4.604-3.075-11.53-2.935-17.223,0.373c-3.166,1.842-6.042,4.5-8.812,8.242c-0.342-0.109-0.684-0.218-1.027-0.327        c2.892-4.02,5.94-6.865,9.31-8.826c6.033-3.493,13.397-3.617,18.33-0.329C334.447,415.451,336.204,422.531,336.598,429.91z"/>
						<path style="fill:#FBEEE5;" d="M374.239,425.856c1.24,2.959,1.96,6.037,2.463,9.169c-0.374-0.029-0.727-0.056-1.083-0.061        c-0.481-2.983-1.156-5.929-2.336-8.711c-2.185-5.143-5.88-8.894-10.164-10.288c-5.267-1.736-11.861,0.149-16.765,4.78        c-2.934,2.776-5.136,6.196-6.928,9.692c-0.348-0.068-0.716-0.138-1.064-0.206c1.856-3.655,4.15-7.294,7.274-10.233        c5.191-4.887,12.172-6.846,17.805-5.019C368.007,416.454,371.945,420.426,374.239,425.856z"/>
						<path style="fill:#FBEEE5;" d="M420.051,435.202c-0.382,0.033-0.741,0.047-1.124,0.08        c-2.578-5.658-5.697-11.346-10.418-15.591c-5.767-5.205-15.313-8.062-22.331-3.483c-5.909,3.825-7.821,11.021-8.438,18.894        c-0.353-0.026-0.707-0.053-1.039-0.077c0.635-8.165,2.645-15.621,8.902-19.693c7.475-4.853,17.531-1.885,23.598,3.59        C414.167,423.369,417.395,429.345,420.051,435.202z"/>
						<path style="fill:#FBEEE5;" d="M435.559,403.843c-4.251,1.486-8.009,4.298-10.448,7.917c-4.09,6.064-5.48,14.379-4.004,23.395        c-0.338,0.017-0.697,0.032-1.035,0.05c-1.507-9.251-0.045-17.788,4.175-24.044c2.512-3.693,6.345-6.6,10.649-8.163        L435.559,403.843z"/>
					</g>
					<g>
						<path style="fill:#FBEEE5;" d="M429.704,396.485c-20.481,6.654-43.461,8.626-67.046,5.562l-0.804-0.108        c-26.148-3.513-52.697-12.79-80.893-28.251l0.989-0.644c27.911,15.234,54.183,24.39,80.042,27.864l0.784,0.105        c23.295,3.025,45.994,1.12,66.226-5.399L429.704,396.485z"/>
					</g>
				</g>
				<g>
					<g>
						<path style="fill:#EBB1FF;" d="M496.115,286.73c-1.862,13.858-5.943,26.892-11.824,38.782c-0.15,0.337-0.318,0.65-0.489,0.984        c-4.805,9.515-10.771,18.287-17.703,26.131c-0.224,0.264-0.469,0.525-0.694,0.788c-8.595,9.594-18.599,17.802-29.656,24.315        c-0.319,0.188-0.638,0.376-0.955,0.544c-21.539,12.495-46.95,18.654-73.385,16.341c-0.542-0.031-1.081-0.082-1.637-0.157        c-1.411-0.126-2.816-0.294-4.218-0.483c-35.386-4.754-65.316-23.87-84.679-50.698c-0.229-0.325-0.479-0.652-0.706-0.997        c-13.819-19.491-22.105-42.984-22.907-67.948c-0.035-0.362-0.047-0.741-0.039-1.118c-0.154-6.508,0.188-13.117,1.083-19.778        c4.923-36.644,25.247-67.441,53.597-86.725c0.81-0.563,1.639-1.102,2.47-1.663c22.97-14.864,50.922-22.277,80.051-19.392        c0.81,0.067,1.617,0.154,2.421,0.262l0.021,0.003c0.663,0.068,1.322,0.157,1.982,0.245c10.496,1.41,20.509,4.078,29.91,7.86        c0.461,0.167,0.898,0.352,1.335,0.536c19.988,8.27,37.147,21.492,50.176,37.959c0.289,0.354,0.556,0.704,0.824,1.055        c17.027,22.022,26.748,49.675,26.122,79.024c-0.003,0.335-0.027,0.668-0.03,1.004        C497.066,277.936,496.708,282.317,496.115,286.73z"/>
						<g>
							<g>
								<path style="fill:#FBEEE5;" d="M466.1,352.628c-0.224,0.264-0.469,0.525-0.694,0.788c-1.182-1.67-2.613-3.206-4.299-4.566          c-9.649-7.72-23.399-6.314-30.743-4.781c-4.6,0.956-9.194,2.334-13.638,3.689c-5.82,1.758-11.838,3.574-17.96,4.452          c-12.803,1.849-24.2-1.446-30.497-8.8c-6.169-7.211-7.49-18.788-3.304-28.849c3.41-8.191,10.104-15.668,19.925-22.201          c8.484-5.641,17.932-9.872,27.085-13.933c7.749-3.452,15.741-6.997,23.093-11.404c8.081-4.834,13.499-9.691,17.019-15.264          c4.423-6.984,5.481-15.324,2.779-21.775c-3.369-8.052-12.464-13.641-24.403-15.098c-10.562-1.23-21.33,0.472-31.754,2.116          c-4.117,0.643-8.387,1.329-12.588,1.815c-18.915,2.182-33.336-0.952-42.834-9.324c-2.985-2.626-6.767-6.976-7.893-12.817          c-0.762-3.86-0.26-8.222,1.44-12.907c3.998-11.009,13.263-20.744,27.528-28.947c6.393-3.676,13.124-6.739,20.063-9.166          c0.81,0.067,1.617,0.154,2.421,0.262c-7.606,2.547-14.974,5.819-21.955,9.814c-14.057,8.062-23.171,17.608-27.074,28.378          c-1.637,4.525-2.111,8.681-1.409,12.365c1.079,5.561,4.698,9.721,7.573,12.228c9.252,8.171,23.411,11.228,42.029,9.069          c4.178-0.467,8.427-1.156,12.544-1.799c10.488-1.656,21.321-3.371,32.027-2.121c12.297,1.442,21.71,7.326,25.241,15.736          c2.828,6.762,1.745,15.455-2.862,22.709c-3.604,5.73-9.121,10.699-17.34,15.62c-7.42,4.44-15.435,8.003-23.204,11.452          c-9.132,4.063-18.555,8.256-26.948,13.846c-9.639,6.431-16.205,13.736-19.549,21.747c-4.033,9.703-2.78,20.851,3.136,27.755          c6.059,7.091,17.117,10.256,29.556,8.464c6.058-0.866,12.031-2.666,17.831-4.427c4.444-1.355,9.061-2.75,13.702-3.701          c7.538-1.569,21.65-3.011,31.619,4.983C463.469,349.398,464.918,350.957,466.1,352.628z"/>
							</g>
							<g>
								<path style="fill:#FBEEE5;" d="M435.75,377.731c-0.319,0.188-0.638,0.376-0.955,0.544          c-7.335-6.192-19.288-6.601-23.539-6.522c-8.206,0.136-16.498,1.226-24.534,2.288c-9.297,1.228-18.894,2.5-28.418,2.291          c-16.517-0.351-37.072-6.744-45.234-23.649c-8.139-16.923,0.012-36.968,11.04-48.419          c12.037-12.554,28.205-19.451,45.097-25.956l2.59-0.996c15.276-5.883,31.062-11.971,43.5-22.665          c2.492-2.142,5.361-5.053,5.445-8.652c0.093-3.661-2.842-6.659-5.767-8.018c-3.241-1.506-6.891-1.682-10.664-1.727          c-6.557-0.104-13.235,0.069-19.702,0.229c-9.797,0.258-19.929,0.514-29.896-0.154c-19.432-1.309-35.214-6.348-46.886-14.949          c-5.652-4.181-12.9-11.18-15.249-20.88c-2.971-12.261,2.916-24.675,9.326-33.785c0.81-0.563,1.639-1.102,2.47-1.663          c-6.828,9.097-13.909,22.274-10.774,35.187c2.262,9.415,9.322,16.242,14.844,20.301c11.5,8.473,27.105,13.425,46.346,14.75          c9.904,0.659,20.016,0.401,29.789,0.16c6.49-0.178,13.168-0.351,19.767-0.241c3.876,0.059,7.65,0.251,11.05,1.821          c3.261,1.509,6.485,4.86,6.39,9.004c-0.096,3.997-3.163,7.133-5.821,9.421c-12.578,10.801-28.452,16.919-43.793,22.815          l-2.59,0.996c-16.784,6.478-32.82,13.33-44.728,25.712c-10.785,11.21-18.77,30.795-10.841,47.249          c7.944,16.498,28.1,22.733,44.302,23.083c9.462,0.201,19.018-1.077,28.271-2.29c8.057-1.059,16.393-2.164,24.643-2.315          C415.666,370.646,428.164,371.065,435.75,377.731z"/>
							</g>
							<g>
								<path style="fill:#FBEEE5;" d="M306.424,289.166c-0.901,4.519-3.442,8.586-5.783,11.945          c-3.408,4.895-7.297,9.621-11.061,14.196c-7.152,8.696-14.481,17.621-18.705,27.97c-0.229-0.325-0.479-0.652-0.706-0.997          c4.29-10.214,11.544-19.044,18.617-27.625c3.74-4.557,7.629-9.283,11.011-14.14c2.288-3.283,4.727-7.217,5.603-11.549          c0.904-4.539-0.232-9.058-2.955-11.755c-3.742-3.715-9.881-3.805-14.175-3.563c-3.788,0.226-7.733,0.682-11.529,1.117          c-9.978,1.137-20.214,2.323-29.48-0.434c-0.035-0.362-0.047-0.741-0.039-1.118c9.169,2.849,19.426,1.665,29.407,0.508          c3.816-0.432,7.761-0.889,11.57-1.112c4.506-0.255,10.936-0.147,14.975,3.859          C306.161,279.411,307.396,284.279,306.424,289.166z"/>
							</g>
							<g>
								<path style="fill:#FBEEE5;" d="M471.094,193.578c-7.784-0.038-15.569,0.721-23.205,1.459          c-5.445,0.528-11.102,1.07-16.656,1.31c-6.189,0.281-14.257,0.331-21.85-1.907c-5.758-1.676-9.759-4.397-11.888-8.084          c-2.541-4.372-2.367-10.353,0.479-15.597c2.174-3.991,5.74-7.563,11.188-11.24c3.07-2.065,6.279-3.922,9.597-5.492          c0.461,0.167,0.898,0.352,1.335,0.536c-3.579,1.64-7.053,3.587-10.354,5.81c-5.311,3.59-8.757,7.053-10.847,10.887          c-2.675,4.91-2.861,10.511-0.511,14.585c1.994,3.438,5.785,6.005,11.281,7.604c7.454,2.177,15.414,2.155,21.52,1.863          c5.533-0.243,11.17-0.788,16.615-1.316c7.38-0.709,14.931-1.437,22.472-1.473          C470.558,192.877,470.826,193.227,471.094,193.578z"/>
							</g>
							<g>
								<path style="fill:#FBEEE5;" d="M482.712,325.237c0.533,0.093,1.046,0.183,1.579,0.275c-0.15,0.337-0.318,0.65-0.489,0.984          c-0.43-0.079-0.861-0.158-1.27-0.234c-10.037-1.705-22.114-4.944-26.485-14.916c-1.803-4.084-2.027-9.132-0.636-14.172          c4.021-14.617,18.825-22.768,31.695-24.335c3.372-0.408,6.758-0.456,10.109-0.237c-0.003,0.335-0.027,0.668-0.03,1.004          c-3.292-0.19-6.616-0.133-9.947,0.28c-12.549,1.526-26.938,9.397-30.836,23.569c-1.319,4.819-1.121,9.59,0.583,13.472          C461.164,320.453,472.941,323.589,482.712,325.237z"/>
							</g>
						</g>
					</g>
					<g>
						<path style="fill:#FBEEE5;" d="M457.234,239.517c-7.294,10.177-8.475,24.408-2.959,35.649        c1.317,2.684,3.074,5.287,5.658,6.792c4.284,2.494,10.006,1.306,13.866-1.803c3.861-3.109,6.147-7.771,7.699-12.479        c2.15-6.518,3.111-13.594,1.516-20.27c-1.275-5.337-5.097-12.509-10.497-14.754        C466.626,230.205,460.493,234.97,457.234,239.517z"/>
						
							<ellipse transform="matrix(0.6112 -0.7914 0.7914 0.6112 -64.2057 484.3948)" style="fill:#FBEEE5;" cx="460.968" cy="307.553" rx="11.51" ry="11.51"/>
					</g>
				</g>
			</g>
			<polygon style="fill:#FBEEE5;" points="14.431,257.977 132.864,476.505 300.198,428.368 184.822,221.301    "/>
			<polygon style="fill:#EBB1FF;" points="269.447,400.822 134.778,439.562 121.288,414.671 120.682,413.571 109.303,392.585      108.674,391.395 68.655,317.551 68.004,316.362 45.492,274.794 44.886,273.694 39.454,263.683 142.948,241.418 144.182,241.149      176.593,234.168 184.673,248.645 185.324,249.812 199.352,274.996 200.003,276.185 214.412,302.042 215.018,303.142      236.027,340.827 236.633,341.949 264.128,391.305 264.779,392.427    "/>
			<g>
				<g>
					<path style="fill:#2F2444;" d="M185.324,249.812c-3.658,0.628-7.474,1.549-11.492,2.738c-0.718,0.225-1.414,0.426-2.132,0.651       c-3.524,1.077-7.137,2.2-10.886,2.536c-5.207,0.471-9.831-0.741-12.973-3.434c-2.985-2.536-4.781-6.576-4.893-10.886       l1.234-0.269c0.045,4.063,1.706,7.856,4.467,10.212c3.905,3.322,9.225,3.389,12.053,3.142       c3.614-0.337,7.183-1.436,10.617-2.491c0.718-0.224,1.436-0.449,2.155-0.673c3.883-1.167,7.631-2.065,11.2-2.693       L185.324,249.812z"/>
					<path style="fill:#2F2444;" d="M215.018,303.142c-8.282,3.928-18.517,3.793-26.71-0.359c-3.03-1.549-7.07-4.309-9.18-8.731       c-2.02-4.22-1.616-9.225,1.01-12.435c1.504-1.863,3.748-3.255,6.846-4.287c3.546-1.19,7.295-1.661,10.931-2.132       c0.471-0.067,0.943-0.135,1.437-0.202l0.651,1.19c-0.651,0.09-1.279,0.157-1.93,0.247c-3.569,0.471-7.25,0.943-10.684,2.087       c-2.873,0.965-4.938,2.222-6.262,3.883c-2.334,2.85-2.671,7.317-0.853,11.11c1.953,4.107,5.768,6.689,8.619,8.148       c7.811,3.973,17.574,4.107,25.52,0.382L215.018,303.142z"/>
				</g>
				<g>
					<path style="fill:#2F2444;" d="M264.779,392.427c-1.571,1.482-3.21,2.873-4.983,4.108c-3.075,2.177-5.858,3.277-8.484,3.344       c-0.112,0.022-0.224,0.022-0.337,0.022c-4.152,0-8.148-2.648-9.786-6.509c-1.639-3.883-0.741-8.754,2.177-11.851       c0.516-0.539,1.077-1.01,1.638-1.504c1.122-0.988,2.2-1.908,2.738-3.187c0.741-1.751,0.179-4.107-1.369-5.701       c-1.706-1.751-4.108-2.402-5.836-2.626c-1.571-0.225-3.277-0.247-4.915-0.269c-4.04-0.022-8.192-0.067-11.065-2.985       c-2.11-2.177-2.918-5.656-2.087-9.09c0.651-2.648,2.132-5.207,4.691-8.035c2.581-2.85,5.589-5.319,8.866-7.317l0.606,1.122       c-3.165,1.908-6.06,4.265-8.529,7.025c-2.424,2.693-3.816,5.072-4.422,7.519c-0.718,3.008-0.045,6.038,1.773,7.901       c2.491,2.536,6.217,2.581,10.167,2.604c1.683,0.022,3.434,0.045,5.072,0.269c1.93,0.269,4.624,1.01,6.576,3.008       c1.908,1.975,2.559,4.803,1.616,7.07c-0.628,1.549-1.863,2.604-3.075,3.659c-0.516,0.449-1.055,0.92-1.526,1.414       c-2.604,2.738-3.389,7.048-1.93,10.482c1.459,3.457,5.185,5.836,8.911,5.746c2.379-0.09,4.938-1.1,7.811-3.12       c1.796-1.257,3.456-2.693,5.05-4.22L264.779,392.427z"/>
				</g>
				<g>
					<path style="fill:#2F2444;" d="M125.036,270.866c-0.247,8.888-6.644,17.754-17.148,23.702       c-4.354,2.491-9.068,4.422-13.647,6.285c-4.534,1.863-9.225,3.793-13.534,6.24c-5.117,2.895-9.225,6.509-12.053,10.459       l-0.651-1.19c2.895-3.905,7.003-7.452,12.075-10.347c4.377-2.514,9.113-4.444,13.691-6.307       c4.534-1.863,9.202-3.771,13.512-6.217c10.1-5.746,16.273-14.208,16.497-22.669c0.09-3.299-0.808-6.195-2.514-8.125       c-3.703-4.152-10.504-3.546-15.24-1.234c-3.591,1.751-6.958,4.399-10.953,8.574l-0.808,0.853       c-2.132,2.267-4.354,4.624-7.25,5.97c-3.187,1.481-7.878,1.414-10.257-1.683c-1.122-1.459-1.571-3.344-1.998-5.14       c-0.561-2.334-1.1-4.534-2.985-5.387c-1.324-0.584-2.918-0.247-4.332,0.09c-7.833,1.93-15.352,5.364-21.951,10.055l-0.606-1.1       c6.711-4.736,14.32-8.215,22.265-10.168c1.594-0.404,3.456-0.763,5.14-0.022c2.447,1.1,3.075,3.703,3.681,6.24       c0.404,1.683,0.83,3.412,1.796,4.669c1.953,2.581,5.97,2.581,8.731,1.302c2.671-1.257,4.803-3.501,6.868-5.701l0.808-0.853       c4.085-4.287,7.564-7.003,11.29-8.821c5.162-2.536,12.614-3.12,16.744,1.526C124.116,264.043,125.126,267.23,125.036,270.866z"/>
				</g>
				<g>
					<path style="fill:#2F2444;" d="M191.361,393.123c-2.245,7.07-9.202,12.883-18.629,15.532c-7.788,2.2-16.026,2.312-23.971,2.401       c-1.953,0.023-3.883,0.045-5.836,0.09c-6.936,0.18-14.657,0.808-21.637,3.524l-0.606-1.1c7.182-2.828,15.105-3.479,22.22-3.681       c1.93-0.045,3.883-0.067,5.836-0.09c7.878-0.09,16.026-0.202,23.657-2.334c9.023-2.559,15.667-8.058,17.754-14.724       c1.19-3.726,0.808-8.843-2.761-11.29c-3.546-2.424-8.664-0.965-12.143,1.548c-1.728,1.257-3.322,2.761-4.848,4.242       c-1.751,1.661-3.569,3.412-5.634,4.781c-2.918,1.953-6.329,3.165-9.808,3.501c-3.95,0.382-8.574-0.898-10.01-4.579       c-0.898-2.312-0.27-4.669,0.337-6.958c0.359-1.369,0.741-2.806,0.763-4.175c0.067-4.826-4.579-8.686-8.978-9.27       c-4.265-0.561-9.09,1.145-13.288,4.691c-3.21,2.738-5.791,6.195-8.304,9.539l-1.347,1.773       c-1.549,2.043-3.165,4.062-4.826,6.038l-0.628-1.19c1.526-1.84,3.03-3.703,4.466-5.589l1.324-1.773       c2.559-3.412,5.185-6.935,8.507-9.741c4.444-3.793,9.651-5.611,14.253-5.005c5.634,0.763,10.145,5.477,10.078,10.549       c-0.023,1.526-0.427,3.03-0.808,4.489c-0.584,2.177-1.122,4.242-0.382,6.15c1.212,3.098,5.252,4.13,8.709,3.793       c3.299-0.314,6.487-1.436,9.247-3.277c1.975-1.324,3.748-3.03,5.454-4.669c1.571-1.482,3.187-3.03,4.983-4.332       c3.569-2.581,9.247-4.534,13.579-1.571C192.192,383.225,192.663,388.971,191.361,393.123z"/>
				</g>
			</g>
			<path style="fill:#2F2444;" d="M115.672,444.593c-0.245,0-0.47-0.161-0.54-0.408c-0.084-0.298,0.089-0.608,0.387-0.693     l166.952-47.373c0.301-0.085,0.608,0.088,0.693,0.387c0.084,0.298-0.089,0.608-0.387,0.693l-166.952,47.373     C115.773,444.586,115.723,444.593,115.672,444.593z"/>
			
				<rect x="178.082" y="226.587" transform="matrix(-0.3952 -0.9186 0.9186 -0.3952 42.0732 489.023)" style="fill:#2F2444;" width="7.878" height="8.148"/>
			<g>
				
					<rect x="283.907" y="417.799" transform="matrix(0.3999 -0.9166 0.9166 0.3999 -213.9339 516.9986)" style="fill:#2F2444;" width="7.878" height="8.148"/>
				
					<rect x="133.127" y="460.778" transform="matrix(-0.9679 -0.2514 0.2514 -0.9679 152.8781 949.234)" style="fill:#2F2444;" width="7.878" height="8.148"/>
			</g>
			<g>
				<path style="fill:#FFC945;" d="M171.024,394.558c-24.874-0.264-49.345-12.584-64.372-32.408      c-7.782-10.266-13.196-23.507-9.96-35.976c2.443-9.412,9.363-16.905,16.041-23.973c-4.536,7.129-3.343,17.373,2.711,23.268      c2.127,2.072,4.877,3.657,7.844,3.793c5.482,0.25,10.178-4.663,11.349-10.023c1.171-5.361-0.407-10.938-2.506-16.008      c-2.365-5.713-5.412-11.143-9.054-16.14c-3.418-4.689-7.528-9.404-7.981-15.189c-0.618-7.894,5.745-14.479,11.993-19.344      c-4.346,8.18-1.062,17.952,3.834,25.816c3.61,5.797,9.915,10.892,16.649,9.757c5.376-0.906,9.458-5.65,11.188-10.82      c1.73-5.17,1.544-10.757,1.34-16.205c9.741,3.354,19.369,9.008,26.567,16.379c7.197,7.371,11.969,17.501,11.36,27.785      c-0.489,8.244-4.3,15.93-8.762,22.88c-1.066,1.66-2.21,3.402-2.298,5.373c-0.088,1.97,1.383,4.155,3.352,4.031      c0.574-0.036,1.119-0.259,1.642-0.498c7.66-3.5,13.101-11.418,13.623-19.824c8.488,5.59,13.581,16.863,13.088,27.014      c-0.493,10.151-5.026,19.729-10.834,28.069c-3.153,4.528-6.757,8.832-11.277,11.997      C189.595,389.19,178.427,390.374,171.024,394.558z"/>
				<path style="fill:#F14537;" d="M185.427,407.4c-16.995-8.344-33.333-18.025-48.814-28.924      c-6.233-4.388-12.39-9.032-17.263-14.893c-4.874-5.861-8.417-13.099-8.638-20.719c-0.221-7.62,3.306-15.557,9.867-19.439      c7.461-4.414,17.287-2.844,24.697,1.654c7.41,4.499,12.927,11.469,18.278,18.289c-0.948-10.271-1.525-20.394,2.301-29.973      c3.825-9.579,13.637-17.583,23.805-15.852c7.98,1.358,14.107,8.349,16.618,16.044c2.511,7.695,2.023,16.023,1.098,24.065      C204.684,361.084,194.833,385.769,185.427,407.4z"/>
			</g>
			<g>
				<path style="fill:#2F2444;" d="M147.943,444.553c-0.27,0-0.519-0.175-0.601-0.446c-0.101-0.332,0.087-0.683,0.419-0.782      l7.137-2.156l5.964-2.146c0.322-0.119,0.686,0.052,0.803,0.379c0.117,0.326-0.052,0.686-0.379,0.803l-5.994,2.155l-7.167,2.166      C148.064,444.544,148.003,444.553,147.943,444.553z"/>
				<path style="fill:#2F2444;" d="M162.001,459.14c-0.246,0-0.479-0.146-0.58-0.388l-6.654-16.088      c-0.133-0.32,0.02-0.688,0.34-0.82c0.321-0.132,0.687,0.02,0.82,0.34l6.654,16.088c0.133,0.32-0.02,0.688-0.34,0.82      C162.162,459.124,162.081,459.14,162.001,459.14z"/>
				<path style="fill:#2F2444;" d="M172.365,455.617c-0.245,0-0.478-0.145-0.578-0.384l-6.981-16.563      c-0.135-0.319,0.015-0.688,0.334-0.822s0.688,0.015,0.822,0.334l6.981,16.563c0.135,0.319-0.015,0.688-0.334,0.822      C172.529,455.602,172.446,455.617,172.365,455.617z"/>
				<path style="fill:#2F2444;" d="M179.222,453.271c-0.251,0-0.488-0.152-0.585-0.4l-6.503-16.731      c-0.126-0.323,0.034-0.687,0.357-0.812c0.324-0.126,0.687,0.034,0.812,0.357l6.503,16.731c0.126,0.323-0.034,0.687-0.357,0.812      C179.374,453.257,179.298,453.271,179.222,453.271z"/>
				<path style="fill:#2F2444;" d="M169.2,447.651c-0.265,0-0.511-0.168-0.597-0.434c-0.107-0.329,0.072-0.684,0.402-0.791      l6.698-2.185c0.331-0.108,0.685,0.072,0.791,0.402c0.107,0.329-0.072,0.684-0.402,0.791l-6.698,2.185      C169.33,447.642,169.265,447.651,169.2,447.651z"/>
				<path style="fill:#2F2444;" d="M185.595,450.77c-0.258,0-0.497-0.159-0.59-0.413l-5.685-15.621      c-0.059-0.162-0.049-0.34,0.027-0.494c0.077-0.153,0.213-0.27,0.377-0.32l6.54-2.021c0.33-0.106,0.683,0.082,0.785,0.414      c0.103,0.331-0.083,0.683-0.414,0.785l-5.91,1.827l5.256,14.443l6.133-1.853c0.333-0.104,0.682,0.087,0.782,0.419      s-0.087,0.683-0.419,0.782l-6.701,2.024C185.716,450.761,185.654,450.77,185.595,450.77z"/>
				<path style="fill:#2F2444;" d="M182.745,442.479c-0.266,0-0.513-0.17-0.598-0.437c-0.105-0.33,0.076-0.684,0.406-0.789      l5.264-1.683c0.331-0.104,0.684,0.076,0.789,0.406s-0.076,0.684-0.406,0.789l-5.264,1.683      C182.873,442.469,182.809,442.479,182.745,442.479z"/>
				<path style="fill:#2F2444;" d="M203.936,444.723c-0.258,0-0.497-0.159-0.59-0.413l-5.351-14.664      c-0.118-0.325,0.049-0.686,0.375-0.805c0.324-0.116,0.686,0.05,0.805,0.375l5.15,14.115l3.588-1.023      c0.338-0.095,0.682,0.099,0.775,0.432c0.095,0.333-0.098,0.681-0.432,0.775l-4.149,1.184      C204.051,444.715,203.992,444.723,203.936,444.723z"/>
				<path style="fill:#2F2444;" d="M226.74,437.167c-0.187,0-0.368-0.083-0.489-0.235l-10.291-12.827      c-0.217-0.271-0.174-0.665,0.097-0.882c0.269-0.218,0.665-0.174,0.882,0.097l9.021,11.244l-1.044-13.666      c-0.026-0.346,0.232-0.647,0.578-0.674c0.334-0.021,0.646,0.232,0.674,0.578l1.198,15.689c0.021,0.274-0.14,0.53-0.396,0.632      C226.896,437.152,226.817,437.167,226.74,437.167z"/>
				<path style="fill:#2F2444;" d="M234.247,435.451c-0.099,0-0.196-0.023-0.286-0.069c-0.154-0.079-0.27-0.219-0.317-0.386      l-4.397-15.32c-0.094-0.327,0.091-0.67,0.415-0.771l5.902-1.853c0.33-0.104,0.683,0.08,0.786,0.41      c0.104,0.331-0.08,0.684-0.41,0.787l-5.317,1.669l4.043,14.088l5.428-1.949c0.329-0.117,0.687,0.053,0.803,0.379      c0.117,0.326-0.053,0.686-0.379,0.803l-6.058,2.176C234.391,435.438,234.318,435.451,234.247,435.451z"/>
				<path style="fill:#2F2444;" d="M232.219,428.43c-0.25,0-0.487-0.151-0.584-0.398c-0.127-0.323,0.032-0.688,0.354-0.813      l5.098-2.001c0.321-0.131,0.688,0.032,0.813,0.354c0.127,0.323-0.032,0.688-0.354,0.813l-5.098,2.001      C232.373,428.416,232.295,428.43,232.219,428.43z"/>
				<path style="fill:#2F2444;" d="M244.784,432.728c-0.28,0-0.535-0.188-0.608-0.473l-4.087-15.966      c-0.086-0.335,0.117-0.678,0.453-0.764c0.336-0.084,0.677,0.117,0.764,0.453l4.087,15.966c0.086,0.335-0.117,0.678-0.453,0.764      C244.888,432.721,244.835,432.728,244.784,432.728z"/>
				<path style="fill:#2F2444;" d="M252.273,429.89c-0.119,0-0.241-0.034-0.348-0.106l-8.905-5.956      c-0.155-0.104-0.256-0.271-0.275-0.455c-0.02-0.186,0.044-0.369,0.174-0.503c1.142-1.18,3.836-4.617,2.609-6.346      c-1.416-1.996-4.346,0.036-4.469,0.123c-0.285,0.198-0.675,0.132-0.874-0.15c-0.2-0.283-0.134-0.674,0.148-0.874      c1.401-0.994,4.504-2.238,6.218,0.175c1.708,2.407-1.002,5.985-2.227,7.393l8.298,5.551c0.288,0.192,0.366,0.582,0.173,0.87      C252.675,429.792,252.477,429.89,252.273,429.89z"/>
				<path style="fill:#2F2444;" d="M213.024,440.632c-0.102,0-0.204-0.004-0.308-0.014c-1.656-0.145-3.151-1.476-4.102-3.65      c-1.263-2.889-1.521-6.161-0.726-9.213c0.176-0.676,0.453-1.545,1.039-2.26c0.761-0.928,1.583-1.083,2.136-1.057      c1.642,0.088,2.958,1.834,3.447,2.581c1.126,1.716,1.952,3.595,2.457,5.584c0.512,2.017,0.506,3.667-0.016,5.046      C216.378,439.172,214.865,440.632,213.024,440.632z M210.941,425.69c-0.369,0-0.711,0.197-1.042,0.601c0,0.001,0,0.001,0,0.001      c-0.432,0.525-0.651,1.227-0.795,1.779c-0.725,2.78-0.489,5.762,0.661,8.395c0.359,0.823,1.379,2.755,3.061,2.902      c1.344,0.118,2.523-1.026,2.953-2.163c0.428-1.13,0.419-2.534-0.027-4.293c-0.471-1.854-1.24-3.604-2.29-5.205      c-0.777-1.186-1.745-1.977-2.464-2.015C210.979,425.691,210.961,425.69,210.941,425.69z M209.414,425.894h0.01H209.414z"/>
				<path style="fill:#2F2444;" d="M256.367,428.424c-0.243,0-0.484-0.021-0.723-0.063c-0.342-0.062-0.568-0.388-0.508-0.729      c0.062-0.342,0.392-0.568,0.729-0.508c0.879,0.16,1.837-0.109,2.629-0.735c0.791-0.625,1.273-1.494,1.323-2.387      c0.112-2.017-1.592-3.712-3.33-4.498c-0.241-0.109-0.489-0.208-0.736-0.307c-0.562-0.225-1.142-0.456-1.68-0.809      c-2-1.308-2.769-4.061-1.714-6.137c0.528-1.04,1.52-1.843,2.72-2.204c1.152-0.347,2.36-0.233,3.318,0.312      c0.302,0.171,0.407,0.555,0.236,0.855c-0.17,0.302-0.553,0.409-0.855,0.236c-0.662-0.375-1.514-0.448-2.337-0.201      c-0.874,0.263-1.589,0.835-1.963,1.57c-0.761,1.497-0.174,3.565,1.282,4.518c0.434,0.284,0.931,0.482,1.457,0.693      c0.265,0.105,0.53,0.211,0.789,0.328c2.128,0.963,4.211,3.103,4.066,5.713c-0.07,1.251-0.726,2.454-1.799,3.302      C258.407,428.058,257.38,428.424,256.367,428.424z"/>
			</g>
			<g>
				<polygon style="fill:#2F2444;" points="394.139,155.409 396.702,113.545 398.696,155.694 409.233,147.15 402.967,157.118       425.466,159.966 403.537,162.814 409.803,171.643 399.265,165.947 396.417,202.4 394.139,166.516 383.317,171.073       390.152,162.814 362.811,159.112 389.867,157.973 383.601,148.574     "/>
				<polygon style="fill:#2F2444;" points="82.205,365.949 84.769,324.084 86.762,366.234 97.299,357.69 91.034,367.658       113.533,370.506 91.604,373.354 97.869,382.182 87.332,376.487 84.484,412.94 82.205,377.056 71.383,381.613 78.218,373.354       50.878,369.651 77.933,368.512 71.668,359.114     "/>
			</g>
		</g>
	</g>
</g>















</svg>
