<?xml version="1.0" encoding="UTF-8"?>
<!-- Generator: Adobe Illustrator 27.3.1, SVG Export Plug-In . SVG Version: 6.00 Build 0)  -->
<svg xmlns="http://www.w3.org/2000/svg" xmlns:xlink="http://www.w3.org/1999/xlink" version="1.1" id="Capa_1" x="0px" y="0px" viewBox="0 0 512 512" style="enable-background:new 0 0 512 512;" xml:space="preserve" width="512" height="512">
<g>
	<path style="fill:#FFFFFF;" d="M173.72,475.029c-58.419,0-110.707-30.55-143.457-83.82   C-63.846,238.406,77.236,65.946,237.864,41.28c94.969-18.194,199.133,20.881,245.751,108.486   c8.208,5.715,18.955,15.278,12.635,26.304c48.954,98.881-21.452,264.453-138.792,228.999c0.734,26.506-19.436,23.596-36.874,14.023   C261.839,435.562,245.963,476.9,173.72,475.029z"/>
	<g>
		<g>
			<path style="fill:#DBB0FF;" d="M477.632,334.305c-51.815,82.662-93.935,56.019-133.952,53.234     c-11.062-0.788-21.966,0.263-32.87,5.938c-9.223,6.359-18.078,13.453-26.959,20.547c-23.832,19.023-47.821,38.047-79.22,42.724     C66.712,482.866-23.649,323.69,35.602,206.554C72.834,128.201,154.813,71.84,241.68,57.152c0.21-0.026,0.447-0.079,0.657-0.105     c0.21-0.026,0.447-0.079,0.657-0.105c3.836-0.657,7.62-1.209,11.482-1.655c15.161-1.866,30.427-2.417,45.561-1.55     c23.044,1.261,45.798,5.781,67.554,13.873c5.465,2.023,10.799,4.283,16.002,6.805c23.07,11.114,43.565,26.932,60.591,45.85     C495.605,177.52,515.154,263.283,477.632,334.305z"/>
		</g>
		<g>
			<g>
				<g>
					<g>
						<g>
							<g>
								<path style="fill:#302945;" d="M411.813,318.172c-0.631-4.125-2.759-7.305-6.122-9.17          c-4.598-2.549-11.456-2.522-17.421,0.053c-3.416,1.498-6.779,3.547-9.932,6.017c0.105-1.156,0.21-2.312,0.263-3.495H161.513          c0.026,0.394,0.079,0.762,0.079,1.13c-2.155-1.419-4.388-2.654-6.648-3.652c-5.991-2.575-12.822-2.601-17.42-0.053          c-3.39,1.866-5.492,5.045-6.122,9.17c-1.34,8.881,2.128,17.552,10.037,25.093c8.75,8.303,21.625,13.795,33.054,14.688          c6.017,11.114,13.926,21.046,23.28,29.402l1.077,23.727l20.6-8.671c15.135,7.961,32.345,12.481,50.606,12.481          c4.677,0,9.275-0.289,13.795-0.867c13.374-1.682,25.986-5.833,37.39-11.929l21.362,8.986l1.077-23.543l0.079-1.471          c8.697-8.014,16.054-17.447,21.756-27.931c12.139-0.026,26.669-5.807,36.234-14.872          C409.684,335.724,413.153,327.053,411.813,318.172z M143.252,341.347c-5.071-4.808-10.799-12.665-9.249-22.781          c0.499-3.337,2.128-5.781,4.782-7.252c4.467-2.47,10.799-1.708,15.108,0.158c2.733,1.182,5.413,2.759,7.962,4.598          c1.261,13.979,5.15,27.169,11.193,39.098C162.643,353.907,151.056,348.73,143.252,341.347z M399.962,341.347          c-8.618,8.172-21.887,13.637-33.028,14.11c5.728-11.246,9.564-23.622,11.062-36.733c3.495-3.022,7.357-5.544,11.325-7.252          c4.309-1.866,10.641-2.628,15.082-0.158c2.68,1.471,4.309,3.915,4.808,7.252          C410.735,328.682,405.034,336.538,399.962,341.347z"/>
							</g>
						</g>
						<g>
							<g>
								<g>
									<g>
										<g>
											<path style="fill:#977BFF;" d="M373.825,315.603c0,0-23.07,15.923-78.353,18.55c-8.198,0.42-17.106,0.526-26.748,0.237             c-24.699-0.736-44.432-3.048-59.75-5.807c-31.005-5.57-44.011-12.98-44.011-12.98H373.825z"/>
										</g>
									</g>
								</g>
							</g>
						</g>
					</g>
					<g style="opacity:0.33;">
						<g>
							<path style="fill:#F7EDE5;" d="M444.184,120.266c-0.447,10.72-3.915,21.782-9.091,31.189         c-7.173,13.059-17.421,24.778-30.532,31.846c-19.575,10.563-42.566,9.748-64.848,5.544         c-6.385-1.209-12.691-2.706-18.866-4.257c-27.72-7.042-56.939-15.529-84.344-7.357c-10.72,3.179-21.152,9.38-26.381,19.26         c-7.83,14.819-1.209,34.342,11.85,44.878c13.059,10.51,30.874,13.348,47.585,12.165c4.914-0.342,9.775-0.998,14.609-1.892         c7.436-1.34,14.793-3.206,22.124-5.255c3.705-1.025,7.41-2.102,11.115-3.179c0,0,0,0.026,0.026,0         c5.544-1.629,11.062-3.258,16.606-4.756c3.1-0.815,6.227-1.603,9.354-2.312c7.83-1.839,15.739-3.206,23.753-3.731         c13.9-0.92,28.693,0.998,39.86,9.354c11.141,8.382,17.21,24.515,10.852,36.917c-4.546,8.855-14.031,13.952-23.28,17.683         c-17.158,6.858-35.472,10.825-53.943,11.64c-7.646,0.315-15.397,0.131-22.86,1.866c-1.813,0.42-3.626,0.999-5.386,1.708         c-2.601,1.025-5.045,2.365-7.226,4.02c-2.417,1.839-4.467,4.046-5.938,6.727c-1.997,3.652-2.811,7.777-3.757,11.824         c-8.198,0.42-17.105,0.525-26.748,0.237c-24.699-0.736-44.432-3.048-59.75-5.807c1.524-4.677,3.836-9.039,6.779-12.98         c1.025-1.393,2.155-2.733,3.337-4.02c6.91-7.462,16.159-12.77,26.197-14.478c2.917-0.499,5.964-0.762,9.039-1.077         c8.461-0.814,16.869-1.865,21.782-8.356c1.104-1.471,1.971-3.258,1.76-5.071c-0.158-1.603-1.077-2.864-2.312-3.862         c-1.603-1.261-3.784-2.076-5.781-2.628c-5.176-1.419-10.484-2.47-15.792-3.442c-7.094-1.34-14.215-2.575-21.125-4.44         c-5.15-1.366-10.169-3.074-14.951-5.439c-12.271-6.043-22.308-15.923-30.821-26.617         c-6.543-8.224-12.428-17.499-15.949-27.326c0,0-0.026,0,0-0.026c-2.759-7.672-4.073-15.66-3.127-23.805         c1.209-10.668,6.385-20.6,13.873-28.351c0,0,0-0.026,0.026-0.026c2.89-2.995,6.096-5.649,9.59-7.883         c12.507-8.066,27.904-11.062,42.724-9.853c16.448,1.366,33.37,7.594,48.925,2.128c5.833-2.049,11.745-7.226,10.563-13.269         c-0.499-2.601-2.181-4.677-4.178-6.49c0,0,0,0-0.026-0.026c-0.552-0.499-1.156-0.998-1.734-1.471         c-11.535-9.249-26.197-15.634-33.396-28.535c-6.043-10.878-5.334-24.725,0.105-35.945c15.161-1.866,30.427-2.417,45.561-1.55         c-0.867,7.515,0.604,15.082,5.728,20.468c9.827,10.405,26.722,7.383,40.779,4.572c12.218-2.444,24.62-4.151,37.048-4.362         C406.663,85.53,427.157,101.348,444.184,120.266z"/>
						</g>
					</g>
				</g>
				<g>
					<g>
						<g>
							<g>
								<path style="fill:#F7EDE5;" d="M195.144,273.575c0,0-13.864,4.025-20.573-33.543c-6.709-37.568-8.051-89.001,34.438-106.443          c42.488-17.442,79.609-26.834,107.338,7.603c27.729,34.438,29.518,77.373,26.835,96.604s-7.156,27.282-14.312,29.07          c-2.35,0.587-5.037,1.32-7.587,2.038c-4.766,1.343-7.074,6.647-4.928,11.11c1.638,3.406,2.728,6.974,1.334,8.767          c-3.131,4.025-57.247,16.548-62.614,8.497c-2.997-4.496-4.6-10.665-5.43-15.237c-0.662-3.644-3.732-6.352-7.433-6.506          L195.144,273.575z"/>
							</g>
						</g>
						<g>
							<g>
								<g>
									<g>
										<path style="fill:#302945;" d="M258.849,213.881c-6.828,7.051-10.916,16.69-11.241,26.5            c-0.086,2.607,0.133,5.372,1.619,7.515c1.617,2.331,4.462,3.51,7.253,4.019c2.263,0.412,4.609,0.462,6.856-0.033            c7.563-1.668,12.562-9.167,14.364-16.699c1.693-7.076,2.092-17.972-3.058-23.915            C270.142,206.075,262.762,209.839,258.849,213.881z"/>
									</g>
								</g>
								<g>
									<g>
										<path style="fill:#302945;" d="M306.957,215.33c-0.502,9.158,2.514,18.465,8.292,25.589            c1.535,1.893,3.382,3.71,5.743,4.313c2.569,0.656,5.298-0.255,7.58-1.604c1.85-1.095,3.537-2.496,4.819-4.221            c4.318-5.808,3.255-14.162-0.085-20.583c-3.138-6.032-9.527-13.967-16.801-15.009            C310.15,202.905,307.245,210.081,306.957,215.33z"/>
									</g>
								</g>
								<g>
									<g>
										<path style="fill:#302945;" d="M290.208,241.721c-3.342,4.413-6.047,9.307-8.004,14.485            c-0.753,1.991-1.391,4.24-0.563,6.201c0.961,2.279,3.57,3.371,6.004,3.809c0.944,0.17,1.966,0.265,2.818-0.175            c1.7-0.879,1.918-3.409,3.554-4.401c1.461-0.886,3.354-0.155,4.799,0.757c1.445,0.913,2.937,2.048,4.643,1.944            c1.6-0.098,2.962-1.331,3.632-2.788c0.669-1.457,0.761-3.108,0.742-4.711c-0.055-4.72-0.978-9.428-2.71-13.819            C301.684,234.298,295.625,234.569,290.208,241.721z"/>
									</g>
								</g>
							</g>
							<g>
								<g>
									<path style="fill:#302945;" d="M232.494,207.942c-1.77,3.076-3.366,6.171-4.823,9.302c-1.377,3.14-2.792,6.379-3.559,9.57           c-0.841,3.193-0.437,6.337,1.303,9.19c0.849,1.416,1.892,2.774,3.035,4.078c0.557,0.668,1.136,1.326,1.733,1.973           l0.903,0.978c0.161,0.198,0.27,0.415,0.324,0.653c0.069,0.22-0.004,0.559-0.254,0.597c0.385-0.308-0.072-0.774-0.34-0.958           l-1.091-0.744c-0.731-0.502-1.453-1.023-2.167-1.568c-1.394-1.12-2.73-2.372-3.85-3.87           c-1.135-1.484-1.975-3.269-2.373-5.195c-0.369-1.941-0.182-3.907,0.218-5.73c0.941-3.632,2.493-6.826,4.31-9.925           C227.684,213.211,229.925,210.39,232.494,207.942z"/>
								</g>
							</g>
							<g>
								<g>
									<path style="fill:#302945;" d="M223.722,274.265c3.339-2.966,6.802-5.821,10.713-8.119c3.947-2.268,8.067-4.22,13.001-4.61           c2.462-0.076,5.344,0.827,6.896,3.251c0.768,1.234,0.941,2.607,0.975,3.788c0.025,1.185-0.052,2.351-0.23,3.501           c-0.691,4.622-2.728,8.705-4.86,12.61c1.201-4.301,2.531-8.575,2.821-12.828c0.049-2.065,0.14-4.448-0.796-5.72           c-0.94-1.367-2.825-2.083-4.743-1.976c-1.942,0.034-4.066,0.661-6.093,1.318c-2.047,0.658-4.026,1.542-6.004,2.466           C231.477,269.855,227.65,272.124,223.722,274.265z"/>
								</g>
							</g>
							<g>
								<g>
									<path style="fill:#302945;" d="M247.273,202.248c0.059-1.921,0.794-3.81,1.9-5.427c1.095-1.639,2.599-2.988,4.279-4.026           c1.705-0.998,3.603-1.692,5.564-1.89c1.947-0.217,3.961,0.023,5.684,0.877c-3.767,0.434-6.975,1.504-9.896,3.264           C251.874,196.793,249.421,199.126,247.273,202.248z"/>
								</g>
							</g>
							<g>
								<g>
									<path style="fill:#302945;" d="M305.904,189.097c1.034-1.426,2.576-2.461,4.254-3.089c1.682-0.652,3.519-0.86,5.323-0.741           c1.8,0.166,3.581,0.664,5.139,1.574c1.557,0.886,2.915,2.155,3.707,3.729c-3.084-1.588-5.988-2.445-9.055-2.686           C312.205,187.629,309.198,188.015,305.904,189.097z"/>
								</g>
							</g>
							<g>
								<g>
									<g>
										<path style="fill:#302945;" d="M266.039,281.748c-0.289,0-0.553-0.19-0.632-0.482c-0.098-0.349,0.108-0.711,0.457-0.808            c16.226-4.498,32.983-6.936,49.804-7.239c0.352,0.033,0.662,0.282,0.668,0.644c0.006,0.364-0.282,0.662-0.645,0.669            c-16.711,0.303-33.356,2.723-49.475,7.193C266.155,281.74,266.096,281.748,266.039,281.748z"/>
									</g>
								</g>
								<g>
									<g>
										<path style="fill:#302945;" d="M281.67,284.781c-0.278,0-0.538-0.177-0.626-0.457l-3.533-11.118            c-0.11-0.347,0.081-0.716,0.427-0.826c0.35-0.11,0.715,0.085,0.825,0.426l3.533,11.118            c0.11,0.346-0.081,0.716-0.427,0.826C281.804,284.77,281.736,284.781,281.67,284.781z"/>
									</g>
								</g>
								<g>
									<g>
										<path style="fill:#302945;" d="M296.869,280.385c-0.312,0-0.589-0.223-0.645-0.541c-0.523-2.93-1.251-5.85-2.164-8.683            c-0.112-0.346,0.078-0.716,0.423-0.829c0.345-0.108,0.715,0.08,0.826,0.423c0.932,2.892,1.674,5.871,2.208,8.858            c0.064,0.357-0.174,0.698-0.531,0.762C296.947,280.383,296.907,280.385,296.869,280.385z"/>
									</g>
								</g>
								<g>
									<g>
										<path style="fill:#302945;" d="M310.316,279.71c-0.322,0-0.603-0.239-0.649-0.567c-0.42-3.007-0.993-6.03-1.702-8.986            c-0.085-0.354,0.132-0.708,0.485-0.793c0.363-0.087,0.707,0.133,0.793,0.485c0.72,2.997,1.299,6.063,1.726,9.114            c0.05,0.359-0.2,0.69-0.559,0.741C310.377,279.708,310.346,279.71,310.316,279.71z"/>
									</g>
								</g>
							</g>
						</g>
					</g>
					<g>
						<g>
							<path style="fill:#302945;" d="M242.993,56.942v80.455c0,0.342-0.315,0.657-0.657,0.657c-0.368,0-0.657-0.315-0.657-0.657         V57.152c0.21-0.026,0.447-0.079,0.657-0.105C242.547,57.021,242.783,56.969,242.993,56.942z"/>
						</g>
					</g>
				</g>
			</g>
			<g>
				<g>
					<g>
						<g>
							<g>
								<polygon style="fill:#FFA352;" points="126.084,253.894 126.223,264.969 117.939,266.134 119.493,284.559 93.724,287.289           91.899,269.889 93.826,268.177 91.578,266.577 83.76,266.962 82.689,255.618         "/>
							</g>
						</g>
						<g>
							<g>
								<path style="fill:#F7EDE5;" d="M154.646,396.761l-1.31,0.166c0,0,0,0-0.018,0l-70.303,8.354c-0.018,0-0.018,0.018-0.037,0          l-1.31,0.166l-0.037-0.498L72.5,302.92c-0.378-4.222,2.172-8.159,6.18-9.54l9.443-3.255l-0.424-5.496l-0.074-0.922          l-0.332-4.426l-0.074-0.941l-0.48-6.27l5.349-0.351l26.188-1.678l5.865-0.369l0.682,4.426l0.147,0.922l0.682,4.389          l0.147,0.922l0.756,4.869l5.938,0.616c4.232,0.439,7.615,3.717,8.186,7.934l13.891,102.512L154.646,396.761z"/>
							</g>
						</g>
						<g>
							<g>
								<path style="fill:#FFA352;" d="M98.867,379.426c-0.017-4.076-0.186-8.18-1.085-12.155          c-1.034-4.576-3.009-8.875-4.721-13.243c-3.504-8.939-5.96-18.458-5.546-28.05c0.414-9.592,3.941-19.301,10.951-25.862          C109.481,325.556,109.843,353.97,98.867,379.426z"/>
							</g>
							<g>
								<path style="fill:#9DD1A9;" d="M137.831,366.456c-1.357-4.147-5.496-6.585-8.625-9.626          c-2.124-2.064-3.845-4.503-5.428-7.006c-9.521-15.051-14.386-33.003-13.769-50.802          c13.669,14.121,23.002,30.002,28.18,48.961C139.896,354.233,139.837,360.296,137.831,366.456z"/>
							</g>
							<g>
								<path style="fill:#977BFF;" d="M142.704,378.482c-3.963-10.137-12.261-18.495-22.369-22.532          c-10.108-4.036-21.881-3.693-31.736,0.927c7.556,7.409,16.899,12.398,27.281,14.445          C124.704,373.062,134.972,373.887,142.704,378.482z"/>
							</g>
						</g>
						<g>
							<g>
								<path style="fill:#302945;" d="M81.664,405.91c-0.163,0-0.322-0.086-0.405-0.239c-0.122-0.225-0.039-0.504,0.184-0.627          c0.123-0.066,12.518-6.739,31.382-9.758c23.371-3.739,41.762,0.978,41.947,1.027c0.247,0.065,0.394,0.317,0.329,0.564          c-0.065,0.247-0.313,0.387-0.563,0.33c-0.182-0.049-18.401-4.715-41.567-1.009c-18.709,2.993-30.964,9.591-31.086,9.657          C81.815,405.892,81.739,405.91,81.664,405.91z"/>
							</g>
						</g>
						<g>
							<g>
								<polygon style="fill:#302945;" points="125.802,280.332 119.199,281.07 93.38,283.984 87.699,284.629 87.626,283.707           93.288,283.062 119.126,280.148 125.654,279.41         "/>
							</g>
						</g>
						<g>
							<g>
								<polygon style="fill:#302945;" points="124.972,275.021 118.757,275.722 92.826,278.654 87.294,279.281 87.22,278.34           92.734,277.732 118.665,274.8 118.683,274.8 124.825,274.098         "/>
							</g>
						</g>
						<g>
							<g>
								<polygon style="fill:#302945;" points="117.939,266.134 91.899,269.889 91.558,266.575         "/>
							</g>
						</g>
					</g>
				</g>
				<g>
					<g>
						<g>
							<path style="fill:#FFFFFF;" d="M130.876,314.891l-2.307-18.524c-0.253-2.031,1.208-3.875,3.242-4.094l1.022-0.11         c2.066-0.222,3.902,1.317,4.045,3.389l1.285,18.634c0.136,1.971-1.316,3.694-3.281,3.895h0         C132.901,318.284,131.122,316.867,130.876,314.891z"/>
						</g>
					</g>
					<g>
						<g>
							<path style="fill:#FFFFFF;" d="M134.535,324.905c2.274,0.07,4.061,1.971,3.991,4.245c-0.07,2.274-1.971,4.061-4.245,3.991         c-2.275-0.07-4.062-1.971-3.992-4.245C130.36,326.621,132.26,324.834,134.535,324.905z"/>
						</g>
					</g>
				</g>
			</g>
			<g>
				<g>
					<g>
						<g>
							<g>
								<polygon style="fill:#FFA352;" points="483.39,169.247 476.181,177.656 469.191,173.061 458.191,187.924 437.036,172.958           447.156,158.685 449.733,158.673 449.102,155.987 442.976,151.113 449.663,141.887         "/>
							</g>
						</g>
						<g>
							<g>
								<path style="fill:#F7EDE5;" d="M410.5,295.397l-1.093-0.74c0,0,0,0-0.014-0.012l-58.313-40.15          c-0.014-0.012-0.026,0.002-0.028-0.025l-1.093-0.74l0.301-0.398l60.516-82.651c2.504-3.42,7.018-4.693,10.94-3.083          l9.241,3.791l3.31-4.407l0.554-0.742l2.674-3.543l0.566-0.755l3.781-5.026l4.248,3.269l20.775,16.033l4.648,3.596          l-2.41,3.774l-0.498,0.79l-2.386,3.747l-0.498,0.79l-2.647,4.156l4.052,4.383c2.888,3.124,3.264,7.82,0.909,11.363          l-57.26,86.156L410.5,295.397z"/>
							</g>
						</g>
						<g>
							<g>
								<path style="fill:#FFA352;" d="M380.057,245.547c2.679-3.073,5.261-6.265,7.212-9.845c2.245-4.12,3.6-8.652,5.199-13.062          c3.271-9.027,7.712-17.797,14.357-24.727c6.645-6.93,15.705-11.892,25.301-12.19          C423.601,212.101,405.11,233.678,380.057,245.547z"/>
							</g>
							<g>
								<path style="fill:#9DD1A9;" d="M417.884,261.536c1.719-4.01,0.221-8.574-0.121-12.924c-0.232-2.952,0.087-5.921,0.55-8.846          c2.789-17.59,10.989-34.284,23.206-47.243c0.941,19.631-2.538,37.719-11.169,55.376          C427.506,253.72,423.457,258.234,417.884,261.536z"/>
							</g>
							<g>
								<path style="fill:#977BFF;" d="M413.601,273.785c3.718-10.23,3.006-21.986-1.92-31.692          c-4.926-9.706-13.994-17.222-24.445-20.261c0.783,10.553,4.504,20.469,10.949,28.862          C403.663,257.828,410.829,265.228,413.601,273.785z"/>
							</g>
						</g>
						<g>
							<g>
								<path style="fill:#302945;" d="M349.651,254.076c-0.123-0.108-0.185-0.277-0.146-0.447c0.058-0.249,0.304-0.404,0.553-0.349          c0.137,0.031,13.851,3.205,30.01,13.394c20.02,12.625,30.717,28.312,30.823,28.47c0.142,0.211,0.086,0.498-0.126,0.64          c-0.211,0.142-0.491,0.084-0.64-0.124c-0.105-0.157-10.705-15.692-30.55-28.205c-16.027-10.107-29.587-13.245-29.722-13.275          C349.776,254.162,349.707,254.125,349.651,254.076z"/>
							</g>
						</g>
						<g>
							<g>
								<polygon style="fill:#302945;" points="465.72,188.916 460.274,185.11 438.96,170.249 434.268,166.983 434.822,166.241           439.5,169.495 460.828,184.369 466.218,188.126         "/>
							</g>
						</g>
						<g>
							<g>
								<polygon style="fill:#302945;" points="468.604,184.379 463.474,180.801 442.065,165.881 437.495,162.698 438.061,161.943           442.604,165.127 464.014,180.048 464.027,180.06 469.102,183.589         "/>
							</g>
						</g>
						<g>
							<g>
								<polygon style="fill:#302945;" points="469.191,173.061 447.156,158.685 449.088,155.972         "/>
							</g>
						</g>
					</g>
				</g>
				<g>
					<g>
						<g>
							<path style="fill:#FFFFFF;" d="M446.71,218.219l10.5-15.435c1.151-1.692,3.465-2.112,5.138-0.933l0.84,0.593         c1.698,1.197,2.061,3.565,0.8,5.216l-11.34,14.842c-1.2,1.57-3.428,1.905-5.036,0.758l0,0         C445.991,222.105,445.59,219.865,446.71,218.219z"/>
						</g>
					</g>
					<g>
						<g>
							<path style="fill:#FFFFFF;" d="M442.846,228.155c1.662,1.554,1.749,4.162,0.194,5.824c-1.554,1.662-4.162,1.749-5.823,0.194         c-1.662-1.555-1.749-4.162-0.194-5.823C438.576,226.687,441.184,226.6,442.846,228.155z"/>
						</g>
					</g>
				</g>
			</g>
			<g>
				<g>
					<polygon style="fill:#F7EDE5;" points="369.284,133.101 372.028,88.279 374.163,133.406 385.444,124.258 378.736,134.93        402.824,137.979 379.346,141.028 386.054,150.481 374.773,144.382 371.723,183.411 369.284,144.992 357.698,149.871        365.015,141.028 335.744,137.065 364.71,135.845 358.003,125.783      "/>
				</g>
				<g>
					<polygon style="fill:#F7EDE5;" points="114.458,197.239 117.202,152.417 119.337,197.544 130.619,188.397 123.91,199.069        147.998,202.118 124.52,205.167 131.228,214.619 119.947,208.521 116.897,247.549 114.458,209.131 102.872,214.009        110.189,205.167 80.918,201.203 109.884,199.983 103.177,189.921      "/>
				</g>
			</g>
			<g>
				<g>
					<path style="fill:#FFFFFF;" d="M460.187,306.179l-12.043,4.328c-0.357,0.128-0.638,0.41-0.767,0.767l-4.328,12.044       c-0.403,1.122-1.99,1.122-2.394,0l-4.328-12.044c-0.128-0.357-0.41-0.639-0.767-0.767l-12.043-4.328       c-1.122-0.403-1.122-1.99,0-2.394l12.043-4.328c0.357-0.128,0.639-0.41,0.767-0.767l4.328-12.043       c0.403-1.122,1.99-1.122,2.394,0l4.328,12.043c0.128,0.357,0.41,0.639,0.767,0.767l12.043,4.328       C461.309,304.189,461.309,305.776,460.187,306.179z"/>
				</g>
				<g>
					<path style="fill:#FFFFFF;" d="M211.521,107.504l-12.043,4.328c-0.357,0.129-0.638,0.41-0.767,0.767l-4.328,12.044       c-0.403,1.122-1.99,1.122-2.394,0l-4.328-12.044c-0.128-0.357-0.41-0.638-0.767-0.767l-12.043-4.328       c-1.122-0.403-1.122-1.99,0-2.394l12.043-4.328c0.357-0.129,0.639-0.41,0.767-0.767l4.328-12.043       c0.403-1.122,1.99-1.122,2.394,0l4.328,12.043c0.129,0.357,0.41,0.638,0.767,0.767l12.043,4.328       C212.643,105.513,212.643,107.1,211.521,107.504z"/>
				</g>
			</g>
		</g>
	</g>
</g>















</svg>
