<?xml version="1.0" encoding="iso-8859-1"?>
<!-- Generator: Adobe Illustrator 26.5.1, SVG Export Plug-In . SVG Version: 6.00 Build 0)  -->
<svg xmlns="http://www.w3.org/2000/svg" xmlns:xlink="http://www.w3.org/1999/xlink" version="1.1" id="Capa_1" x="0px" y="0px" viewBox="0 0 512 512" style="enable-background:new 0 0 512 512;" xml:space="preserve">
<g>
	<path style="fill:#FFFFFF;" d="M255.661,511.232c-56.202-0.001-112.755-20.621-159.242-58.061l-0.212-0.171   c-0.719-0.581-1.437-1.164-2.147-1.753c-49.967-41.148-82.387-96.872-91.256-156.879c-0.192-1.277-0.375-2.574-0.539-3.873   c-1.122-8.566-1.757-17.3-1.882-25.921C-3.262,193.521,19.16,130.323,65.23,81.8c24.495-25.8,54.297-46.044,88.579-60.171   C186.927,7.982,223.43,0.768,259.374,0.768c72.473,0,138.959,28.127,187.236,79.21c32.793,32.558,55.759,84.071,63.02,141.365   c3.612,28.495,3.094,56.373-1.541,82.859c-4.957,28.33-14.409,53.574-28.097,75.035c-12.781,22.27-28.88,42.576-47.85,60.358   c-36.061,33.902-80.216,56.85-127.692,66.359c-15.935,3.501-32.349,5.277-48.786,5.277   C255.663,511.232,255.663,511.232,255.661,511.232z"/>
	<g>
		<g>
			<g>
				<g>
					<path style="fill:#6E72FF;" d="M471.361,374.387c-12.368,21.595-28.039,41.303-46.196,58.323       c-34.108,32.066-77.115,54.769-123.08,63.958c-71.693,15.787-144.82-6.405-200.013-50.858c-0.286-0.232,3.08-6.321,2.794-6.553       c-0.464-0.376-4.579,5.104-5.038,4.723C53.872,406.134,20.757,352.733,11.943,293.1c-0.061-0.408,4.874-6.158,5.126-6.484       c4.076-5.26-5.534,3.63-5.636,2.814c-1.079-8.236-1.695-16.587-1.811-25.034C-2.746,26.144,291.952-69.283,439.324,86.846       C503.427,150.361,525.504,289.748,471.361,374.387z"/>
				</g>
			</g>
			<g>
				<g>
					<g>
						<g>
							<g>
								
									<ellipse transform="matrix(0.7071 -0.7071 0.7071 0.7071 8.2021 214.9009)" style="fill:#FFC063;" cx="263.509" cy="97.55" rx="73.287" ry="73.287"/>
							</g>
						</g>
						<g>
							<g>
								
									<ellipse transform="matrix(0.9518 -0.3068 0.3068 0.9518 -80.0775 138.108)" style="fill:#C0D48C;" cx="399.279" cy="323.779" rx="73.287" ry="73.287"/>
							</g>
						</g>
						<g>
							<g>
								
									<ellipse transform="matrix(0.9773 -0.2118 0.2118 0.9773 -72.9464 34.4805)" style="fill:#B5E1E8;" cx="124.451" cy="357.689" rx="73.287" ry="73.287"/>
							</g>
						</g>
					</g>
					<g>
						<g>
							<g>
								<path style="fill:#F7EDE5;" d="M420.414,411.553c-0.223-0.093-0.425-0.243-0.583-0.448l-27.72-35.766          c-0.489-0.63-0.374-1.538,0.257-2.027c0.63-0.488,1.539-0.374,2.027,0.257l27.72,35.766c0.489,0.63,0.374,1.538-0.257,2.027          C421.431,411.692,420.878,411.746,420.414,411.553z"/>
							</g>
						</g>
						<g>
							<g>
								<path style="fill:#F7EDE5;" d="M413.027,417.277c-0.223-0.093-0.425-0.243-0.583-0.448l-27.721-35.766          c-0.489-0.63-0.374-1.538,0.257-2.027c0.63-0.488,1.539-0.374,2.027,0.257l27.72,35.766c0.489,0.63,0.374,1.538-0.257,2.027          C414.045,417.416,413.492,417.471,413.027,417.277z"/>
							</g>
						</g>
						<g>
							<g>
								<path style="fill:#F7EDE5;" d="M405.641,423.002c-0.223-0.093-0.425-0.243-0.583-0.448l-27.72-35.767          c-0.489-0.63-0.374-1.538,0.257-2.027c0.631-0.488,1.539-0.374,2.027,0.257l27.72,35.767          c0.489,0.63,0.374,1.538-0.257,2.027C406.658,423.142,406.105,423.196,405.641,423.002z"/>
							</g>
						</g>
					</g>
					<g>
						<g>
							<g>
								<path style="fill:#F7EDE5;" d="M305.378,44.557c-0.641-0.268-1.012-0.967-0.847-1.666c0.184-0.776,0.963-1.257,1.739-1.073          l44.033,10.427c0.775,0.185,1.257,0.962,1.073,1.739c-0.184,0.777-0.963,1.257-1.739,1.073l-44.033-10.427          C305.525,44.612,305.45,44.587,305.378,44.557z"/>
							</g>
						</g>
						<g>
							<g>
								<path style="fill:#F7EDE5;" d="M303.224,53.651c-0.641-0.268-1.012-0.967-0.847-1.665c0.184-0.776,0.962-1.257,1.739-1.073          l44.033,10.427c0.774,0.185,1.257,0.962,1.073,1.739c-0.184,0.777-0.963,1.257-1.739,1.073L303.45,53.724          C303.372,53.706,303.297,53.681,303.224,53.651z"/>
							</g>
						</g>
						<g>
							<g>
								<path style="fill:#F7EDE5;" d="M301.071,62.745c-0.641-0.268-1.013-0.967-0.847-1.665c0.184-0.777,0.963-1.257,1.739-1.073          l44.033,10.427c0.779,0.183,1.257,0.962,1.073,1.739c-0.184,0.777-0.962,1.257-1.739,1.073l-44.033-10.427          C301.219,62.8,301.143,62.775,301.071,62.745z"/>
							</g>
						</g>
					</g>
					<g>
						<g>
							<g>
								<path style="fill:#F7EDE5;" d="M28.479,210.322c-0.47-0.196-0.821-0.635-0.88-1.177c-0.087-0.793,0.486-1.507,1.279-1.593          l44.983-4.917c0.794-0.087,1.507,0.486,1.593,1.279c0.087,0.793-0.486,1.506-1.279,1.593l-44.983,4.917          C28.94,210.452,28.697,210.413,28.479,210.322z"/>
							</g>
						</g>
						<g>
							<g>
								<path style="fill:#F7EDE5;" d="M29.494,219.612c-0.47-0.196-0.821-0.635-0.88-1.177c-0.087-0.793,0.486-1.507,1.279-1.593          l44.983-4.917c0.794-0.087,1.507,0.486,1.593,1.279c0.087,0.793-0.486,1.507-1.279,1.593l-44.983,4.916          C29.956,219.742,29.712,219.703,29.494,219.612z"/>
							</g>
						</g>
						<g>
							<g>
								<path style="fill:#F7EDE5;" d="M30.509,228.902c-0.47-0.196-0.821-0.635-0.881-1.177c-0.087-0.793,0.486-1.507,1.279-1.593          l44.983-4.916c0.794-0.087,1.507,0.485,1.593,1.279c0.087,0.793-0.486,1.507-1.279,1.593l-44.983,4.916          C30.97,229.032,30.727,228.993,30.509,228.902z"/>
							</g>
						</g>
					</g>
					<g>
						<g>
							<g>
								<path style="fill:#F7EDE5;" d="M172.158,445.896c-0.473-0.198-0.826-0.641-0.882-1.187c-0.081-0.793,0.496-1.503,1.29-1.585          l45.014-4.621c0.795-0.081,1.504,0.496,1.585,1.29c0.081,0.794-0.496,1.503-1.29,1.585l-45.014,4.62          C172.613,446.025,172.373,445.986,172.158,445.896z"/>
							</g>
						</g>
						<g>
							<g>
								<path style="fill:#F7EDE5;" d="M173.112,455.193c-0.473-0.198-0.826-0.641-0.882-1.187c-0.081-0.793,0.496-1.503,1.29-1.585          l45.014-4.62c0.795-0.081,1.503,0.496,1.585,1.29c0.081,0.793-0.496,1.503-1.29,1.585l-45.014,4.62          C173.567,455.321,173.327,455.282,173.112,455.193z"/>
							</g>
						</g>
						<g>
							<g>
								<path style="fill:#F7EDE5;" d="M174.066,464.489c-0.473-0.198-0.826-0.641-0.881-1.187c-0.081-0.794,0.496-1.503,1.29-1.585          l45.015-4.62c0.794-0.081,1.503,0.496,1.585,1.29c0.081,0.793-0.496,1.503-1.29,1.585l-45.015,4.62          C174.521,464.617,174.281,464.579,174.066,464.489z"/>
							</g>
						</g>
					</g>
				</g>
				<g>
					<g>
						<path style="fill:#412945;" d="M467.525,174.789c-2.009-4.086-5.448-7.475-9.963-9.361        c-9.928-4.147-21.382,0.557-25.533,10.493c-2.785,6.666-1.58,14.028,2.528,19.387c2.001,2.631,4.703,4.783,7.956,6.142        c9.937,4.151,21.391-0.553,25.538-10.481C470.317,185.548,469.943,179.672,467.525,174.789z M443.628,198.784        c-2.435-1.017-4.508-2.551-6.13-4.419l-0.009-0.004c-4.003-4.637-5.311-11.3-2.794-17.326        c3.535-8.461,13.291-12.475,21.753-8.941c4.195,1.752,7.299,5.043,8.923,8.926c1.66,3.972,1.796,8.569,0.014,12.835        C461.851,198.317,452.089,202.319,443.628,198.784z"/>
					</g>
				</g>
				<g>
					<g>
						<path style="fill:#412945;" d="M287.593,414.753c-9.937-4.151-21.391,0.553-25.542,10.49        c-4.147,9.928,0.557,21.382,10.493,25.533c9.928,4.147,21.382-0.557,25.529-10.484        C302.225,430.354,297.521,418.9,287.593,414.753z M273.659,448.109c-8.461-3.535-12.475-13.291-8.941-21.753        c3.535-8.461,13.3-12.472,21.761-8.937s12.463,13.297,8.928,21.758C291.873,447.638,282.12,451.643,273.659,448.109z"/>
					</g>
				</g>
				<g>
					<g>
						<path style="fill:#412945;" d="M153.891,75.527c-2.026-2.746-4.786-4.985-8.146-6.389c-9.937-4.151-21.391,0.553-25.542,10.49        c-4.147,9.928,0.557,21.382,10.493,25.533c1.147,0.479,2.32,0.844,3.502,1.087c8.989,1.897,18.362-2.799,22.027-11.572        C158.97,88.108,157.839,80.871,153.891,75.527z M135.182,103.495c-1.136-0.203-2.269-0.541-3.371-1.001        c-8.47-3.538-12.476-13.291-8.941-21.753c3.535-8.461,13.291-12.476,21.762-8.937c2.986,1.248,5.417,3.276,7.161,5.747        c3.187,4.515,4.054,10.535,1.767,16.01C150.485,100.921,142.713,104.909,135.182,103.495z"/>
					</g>
				</g>
			</g>
		</g>
		<g>
			<g>
				<g>
					<g>
						<g>
							<path style="fill:#412945;" d="M119.118,164.806l-4.235-14.589c-0.96-3.308,1.014-6.753,4.353-7.596l51.425-12.992         c3.188-0.805,6.438,1.067,7.342,4.228l3.706,12.971L119.118,164.806z"/>
						</g>
						<g>
							<path style="fill:#412945;" d="M212.794,138.521l-4.236-14.589c-0.96-3.308,1.014-6.753,4.354-7.597l51.425-12.992         c3.188-0.805,6.438,1.067,7.342,4.228l3.706,12.971L212.794,138.521z"/>
						</g>
					</g>
					<g>
						<path style="fill:#412945;" d="M161.569,407.733l-12.64,3.416c-17.152,4.634-34.807-5.511-39.441-22.663L60.945,208.903        c-4.642-17.152,5.503-34.807,22.654-39.441l10.945-2.956c0.139,2.46,119.789,4.488,120.458,6.956l31.295,169.128        C247.532,347.164,158.908,404.143,161.569,407.733z"/>
					</g>
					<g>
						<path style="fill:#F8BDFF;" d="M100.02,263.433c0.048,5.432-1.657,9.613-4.585,10.268c-0.434,0.096-0.877,0.116-1.32,0.048        c-0.886-0.116-1.782-0.52-2.668-1.175c-2.755-2.071-5.317-6.579-6.569-12.127c-0.183-0.819-0.328-1.628-0.443-2.427        c-0.164-1.108-0.26-2.196-0.289-3.236c-0.173-5.702,1.551-10.143,4.575-10.827c2.177-0.501,4.575,1.06,6.608,3.93        c0.35,0.49-1.978,2.568-1.653,3.131c0.167,0.289,2.996-0.963,3.156-0.656c1.021,1.965,1.869,4.296,2.447,6.839        c0.077,0.327,0.145,0.655,0.202,0.982c0.174,0.91-1.038,3.761-0.948,4.639C98.623,263.7,100.015,262.605,100.02,263.433z"/>
					</g>
					<g>
						<path style="fill:#F8BDFF;" d="M396.606,87.763c-6.05,2.747,14.562,25.638,9.72,30.211        c-15.23,14.396-84.858,117.507-87.006,126.069c-2.147,8.563-111.893,83.155-127.845,101.655        c-9.945,11.527-48.319-23.367-51.622-8.641l-44.1-163.145c-0.669-2.469-1.069-4.946-1.208-7.406l288.631-78.021        C387.695,87.259,392.259,87.068,396.606,87.763z"/>
					</g>
					<g>
						<g>
							<path style="fill:#F7EDE5;" d="M448.504,330.172l-286.935,77.56c-2.66-3.59-4.703-7.72-5.937-12.292l-15.778-58.383         c3.303-14.726,9.736-28.618,19.681-40.145c15.952-18.499,40.18-29.574,64.599-29.548c11.127,0.017,23.106,2.026,32.721-3.573         c7.633-4.434,12.11-12.918,14.257-21.481c2.147-8.563,2.339-17.482,3.625-26.219c2.808-19.073,11.292-37.78,25.984-50.264         c14.691-12.483,35.998-17.804,54.019-10.953c0.93-20.942,10.275-41.38,25.506-55.775c4.842-4.573,10.31-8.589,16.361-11.336         c12.127,1.921,22.594,10.753,26.01,23.376l48.543,179.592C475.8,307.874,465.656,325.539,448.504,330.172z"/>
						</g>
						<g>
							<g>
								<g>
									
										<ellipse transform="matrix(0.7071 -0.7071 0.7071 0.7071 -96.8076 283.6712)" style="fill:#412945;" cx="294.018" cy="258.693" rx="77.684" ry="77.684"/>
								</g>
								<g>
									
										<ellipse transform="matrix(0.7071 -0.7071 0.7071 0.7071 -96.8076 283.6712)" style="fill:#F7EDE5;" cx="294.018" cy="258.693" rx="62.591" ry="62.591"/>
								</g>
								<g>
									
										<ellipse transform="matrix(0.5257 -0.8507 0.8507 0.5257 -80.6138 372.796)" style="fill:#412945;" cx="294.018" cy="258.693" rx="51.049" ry="51.049"/>
								</g>
								<g>
									<g>
										<path style="fill:#F7EDE5;" d="M315.491,248.458c0.832,2.581,0.579,5.385,1.108,8.045c0.788,3.961,3.748,7.723,7.741,8.33            c3.766,0.572,7.546-1.821,9.47-5.109c1.924-3.287,2.27-7.28,1.954-11.076c-0.787-9.452-5.911-20.563-14.664-25.134            c-8.104-4.232-16.353,1.054-14.392,10.651C307.889,239.944,313.725,242.984,315.491,248.458z"/>
									</g>
									<g>
										<path style="fill:#F7EDE5;" d="M307.765,280.157c-2.298,2.205-3.723,5.377-3.539,8.557            c0.184,3.18,2.087,6.275,4.975,7.617c1.414,0.657,3.006,0.892,4.56,0.778c4.562-0.334,8.716-3.956,9.555-8.453            c0.751-4.024-1.458-8.75-4.887-10.996C314.918,275.362,310.539,277.495,307.765,280.157z"/>
									</g>
								</g>
							</g>
							<g>
								<g>
									<circle style="fill:#F7EDE5;" cx="362.231" cy="239.457" r="4.439"/>
								</g>
								<g>
									<path style="fill:#F7EDE5;" d="M230.835,277.337c0,2.452-1.987,4.439-4.439,4.439c-2.452,0-4.439-1.988-4.439-4.439           s1.987-4.439,4.439-4.439C228.847,272.898,230.835,274.885,230.835,277.337z"/>
								</g>
							</g>
						</g>
						<g>
							<g>
								<path style="fill:#F7EDE5;" d="M191.261,192.31l-56.151,15.683c-1.85,0.517-3.768-0.564-4.285-2.414l-7.324-26.223          c-0.517-1.85,0.564-3.768,2.414-4.285l56.151-15.683c1.85-0.517,3.768,0.564,4.285,2.414l7.324,26.223          C194.192,189.875,193.111,191.793,191.261,192.31z"/>
							</g>
							<g>
								<path style="fill:#F7EDE5;" d="M261.03,172.741l-34.03,9.505c-1.85,0.517-3.768-0.564-4.284-2.414l-7.324-26.223          c-0.516-1.85,0.564-3.768,2.414-4.285l34.031-9.505c1.85-0.517,3.768,0.564,4.285,2.414l7.324,26.223          C263.96,170.306,262.879,172.225,261.03,172.741z"/>
							</g>
						</g>
					</g>
				</g>
				<g>
					<polygon style="fill:#FFC063;" points="183.041,320.618 172.554,277.586 201.685,306.635 237.475,290.071 219.996,318.038        250.959,340.011 205.514,337.514 194.527,370.973 187.536,340.51 151.08,344.505      "/>
				</g>
				<g>
					<g>
						
							<ellipse transform="matrix(0.9239 -0.3827 0.3827 0.9239 -37.524 163.6802)" style="fill:#FFC063;" cx="392.676" cy="176.163" rx="40.284" ry="40.285"/>
					</g>
					<g>
						<g>
							<g>
								<path style="fill:#412945;" d="M378.14,177.826c-0.031,2.881-2.341,5.191-5.16,5.161c-2.819-0.03-5.08-2.39-5.049-5.27          c0.031-2.88,2.341-5.191,5.161-5.161C375.91,172.586,378.171,174.946,378.14,177.826z"/>
							</g>
							<g>
								<path style="fill:#412945;" d="M417.867,178.252c-0.031,2.881-2.341,5.191-5.161,5.161c-2.819-0.03-5.079-2.39-5.049-5.27          c0.031-2.88,2.341-5.191,5.161-5.161C415.638,173.012,417.898,175.372,417.867,178.252z"/>
							</g>
						</g>
						<g>
							<path style="fill:#412945;" d="M394.495,194.405c-0.12,0-0.243-0.005-0.367-0.014c-6.172-0.461-8.089-11.84-8.287-13.135         c-0.109-0.712,0.379-1.377,1.091-1.486c0.707-0.112,1.377,0.379,1.486,1.091c0.424,2.752,2.418,10.67,5.903,10.93         c0.049,0.003,0.097,0.005,0.144,0.005c3.005,0,4.973-7.041,5.461-10.514c0.101-0.713,0.756-1.212,1.472-1.111         c0.713,0.101,1.211,0.759,1.111,1.472C402.325,182.972,400.549,194.405,394.495,194.405z"/>
						</g>
					</g>
				</g>
			</g>
			<g>
				<g>
					<path style="fill:#F7EDE5;" d="M106.185,374.146c-1.974-5.182-4.18-10.403-6.319-15.45       c-6.502-15.335-13.215-31.199-14.034-47.833c-0.404-8.351,0.636-17.271,3.179-27.25c0.472-1.859,2.639-5.673,5.105-9.863       c0.299-0.51,0.597-1.031,0.906-1.551c1.869-3.179,3.564-6.107,4.999-8.765c-0.01-1.657-0.193-3.429-0.539-5.25       c-1.936,4.007-4.662,8.659-6.954,12.551c-0.366,0.626-0.732,1.242-1.079,1.84c-2.572,4.402-4.681,8.13-5.24,10.326       c-2.61,10.268-3.679,19.457-3.256,28.107c0.828,17.145,7.658,33.25,14.256,48.816c2.119,5.028,4.325,10.22,6.28,15.354       c6.974,18.301,12.695,44.173,0.366,63.505c-1.194,1.869-2.533,3.631-4.026,5.298c0.742,0.616,1.493,1.223,2.244,1.83       c1.551-1.753,2.967-3.612,4.219-5.577C119.265,419.889,113.399,393.063,106.185,374.146z M88.211,255.573       c2.552-1.676,5.876-3.872,8.621-5.211c-0.472-0.905-0.973-1.734-1.503-2.475c-2.456,1.214-5.336,3.053-8.707,5.269       c-0.828,0.549-1.666,1.098-2.476,1.628c-2.485,1.589-4.778,2.967-6.155,3.304c-3.641,0.896-7.388,1.637-11.019,2.36       c-6.078,1.204-12.368,2.456-18.407,4.469c-13.35,4.469-26.026,12.897-37.132,24.514c0.154,1.223,0.328,2.447,0.51,3.67       c11.164-12.137,24.003-20.912,37.537-25.439c5.866-1.965,12.059-3.188,18.051-4.383c3.66-0.722,7.446-1.474,11.154-2.389       c1.522-0.376,3.477-1.454,5.75-2.87C85.62,257.278,86.882,256.45,88.211,255.573z"/>
				</g>
			</g>
		</g>
	</g>
</g>
<g>
</g>
<g>
</g>
<g>
</g>
<g>
</g>
<g>
</g>
<g>
</g>
<g>
</g>
<g>
</g>
<g>
</g>
<g>
</g>
<g>
</g>
<g>
</g>
<g>
</g>
<g>
</g>
<g>
</g>
</svg>
