<?xml version="1.0" encoding="UTF-8"?>
<!-- Generator: Adobe Illustrator 25.4.1, SVG Export Plug-In . SVG Version: 6.00 Build 0)  -->
<svg xmlns="http://www.w3.org/2000/svg" xmlns:xlink="http://www.w3.org/1999/xlink" version="1.1" id="Capa_1" x="0px" y="0px" viewBox="0 0 512 512" style="enable-background:new 0 0 512 512;" xml:space="preserve" width="512" height="512">
<g>
	<g>
		<path d="M93.771,27.375c14.362-26.043,62.839-19.171,81.905-2.433c48.729-32.618,117.175-31.777,168.807-6.011    c73.34,36.597,86.266,123.975,63.635,194.701c-23.225,78.662-108.279,112.502-185.404,110.435    c-0.249,2.15-0.476,4.114-0.712,6.157c-17.338,1.212-33.443,4.488-45.772,17.013c-11.042-12.617-25.698-16.841-42.956-16.019    c-0.127-80.52,0.086-160.345-1.005-240.763C132.294,63.37,119.866,41.396,93.771,27.375z M222.532,287.839    c91.907-3.232,114.025-104.8,98.524-178.447c-6.41-30.498-13.221-70.864-50.539-77.091c-15.552-2.404-30.439,2.466-37.141,13.753    c-12.24,20.468-8.757,45.519-10.343,68.362C222.524,172.344,222.572,229.839,222.532,287.839z"/>
		<path d="M93.771,494.811c48.893-17.532,38.878-82.565,24.174-121.233c-1.187-9.309-20.97-19.555-10.422-27.9    c22.843-12.655,55.921-6.372,68.717,16.105c16.752-21.525,49.296-31.022,72.109-14.036c1.074,1.676,1.632,5.257,0.553,6.273    c-25.304,30.085-30.457,74.471-18.128,110.97c5.986,25.003,37.426,27.131,29.486,34.154    c-22.402,19.265-60.517,15.596-81.955-3.625c-23.033,17.702-63.696,25.39-84.535,1.184    C93.771,496.073,93.771,495.442,93.771,494.811z"/>
	</g>
	<g>
		<path style="fill:#FFFFFF;" d="M171.963,379.715c4.372-2.955,8.663-6.022,13.135-8.839c7.923-4.99,15.004-1.905,15.497,6.999    c0.213,3.842-0.219,8.003-1.628,11.584c-5.752,14.621-11.905,29.108-18.112,43.569c-1.848,4.306-4.489,4.81-6.806,1.376    c-9.898-14.671-19.656-29.472-23.018-46.905c-0.734-3.808-0.861-7.902-0.232-11.716c1.314-7.969,8.943-10.508,15.276-4.979    c3.332,2.909,5.544,6.933,8.261,10.453C173.545,380.745,172.754,380.23,171.963,379.715z"/>
		<g>
			<g>
				<path style="fill:#FFFFFF;" d="M184.704,52.975c-3.728,6.106-7.511,12.183-11.173,18.323      c-12.221,20.488-14.275,42.726-12.519,65.504c2.195,28.474,11.533,55.551,19.04,82.99c6.866,25.1,8.81,50.33,0.473,75.529      c-2.559,7.736-6.165,15.048-13.094,20.342c-1.757,1.342-4.09,2.026-6.396,2.571c18.394-19.352,16.885-42.416,14.905-65.411      c-1.962-22.792-11.143-44.044-17.062-65.992c-6.899-25.581-9.767-51.352-5.843-77.695c3.05-20.47,12.79-37.936,25.966-54.045      c1.143-1.397,2.989-2.294,4.508-3.424C183.908,52.103,184.306,52.539,184.704,52.975z"/>
				<g>
					<path style="fill:#FFFFFF;" d="M163.803,257.289c0.005,4.813-4.173,8.517-9.529,8.45c-4.808-0.061-8.329-3.325-8.372-7.762       c-0.048-4.937,4.387-9.146,9.564-9.075C160.219,248.966,163.798,252.567,163.803,257.289z"/>
					<path style="fill:#FFFFFF;" d="M182.66,146.506c-4.659-0.017-8.408-3.759-8.378-8.361c0.03-4.572,3.855-8.307,8.486-8.284       c4.68,0.023,8.422,3.751,8.385,8.356C191.115,142.801,187.302,146.523,182.66,146.506z"/>
				</g>
			</g>
			<g>
				<path style="fill:#FFFFFF;" d="M312.34,264.609c3.633-1.797,7.419-3.371,10.871-5.432c10.868-6.488,19.066-15.573,26.374-25.235      c16.991-22.461,28.622-47.117,32.369-74.564c1.381-10.113,2.414-20.476-2.433-30.241c-1.382-2.785-3.241-5.365-5.293-8.711      c-1.328,2.752-1.971,4.708-3.131,6.346c-1.934,2.733-3.863,5.598-6.398,7.804c-4.847,4.217-10.764,4.868-14.762,2.209      c-4.218-2.805-5.675-9.091-3.11-14.596c3.933-8.442,10.69-12.732,21.25-11.419c0.833-9,0.196-17.545-2.815-25.812      c-9.036-24.805-24-45.335-48.904-58.703c-1.658-0.89-2.509-3.087-3.736-4.676c2.206,0.132,4.681-0.303,6.575,0.483      c21.849,9.057,36.632,24.8,47.277,44.281c7.674,14.044,11.815,28.768,9.353,44.716c-0.191,1.234,0.735,3.037,1.773,3.953      c8.537,7.536,12.89,16.648,13.292,27.653c1.028,28.183-8.136,53.654-23.092,77.677c-10.502,16.868-23.548,31.525-41.699,41.677      C322.059,264.281,317.833,266.76,312.34,264.609z M367.496,117.047c-7.185-4.385-17.686,2.393-17.77,10.808      c-0.019,1.864,1.39,4.413,3.013,5.408c1.323,0.812,4.299,0.339,5.936-0.543C365.034,129.294,366.422,123.269,367.496,117.047z"/>
				<g>
					<path style="fill:#FFFFFF;" d="M359.493,175.547c-0.138,5.019-3.812,8.884-8.454,8.896c-4.716,0.011-8.504-3.791-8.269-8.301       c0.238-4.558,4.514-8.2,9.386-7.992C356.591,168.339,359.608,171.38,359.493,175.547z"/>
					<path style="fill:#FFFFFF;" d="M348.031,87.938c-0.128,3.655-3.298,6.529-7.139,6.472c-3.96-0.059-7.181-3.302-7.063-7.109       c0.114-3.696,3.278-6.564,7.127-6.461C344.971,80.947,348.163,84.149,348.031,87.938z"/>
					<path style="fill:#FFFFFF;" d="M401.608,102.604c0-3.521-3.06-6.375-6.834-6.375s-6.834,2.854-6.834,6.375       c0,3.521,3.06,6.375,6.834,6.375S401.608,106.125,401.608,102.604z"/>
				</g>
			</g>
		</g>
	</g>
</g>















</svg>
