<?xml version="1.0" encoding="UTF-8"?>
<!-- Generator: Adobe Illustrator 25.3.1, SVG Export Plug-In . SVG Version: 6.00 Build 0)  -->
<svg xmlns="http://www.w3.org/2000/svg" xmlns:xlink="http://www.w3.org/1999/xlink" version="1.1" id="Capa_1" x="0px" y="0px" viewBox="0 0 512.142 512.142" style="enable-background:new 0 0 512.142 512.142;" xml:space="preserve" width="512" height="512">
<g>
	<path style="fill:#FFFFFF;" d="M256.146,512.127c-110.389,1.246-213.395-74.967-244.772-180.844   c-0.218-0.665-0.42-1.35-0.617-2.037c-0.236-0.723-0.45-1.451-0.646-2.194c-4.386-15.115-7.333-30.633-8.806-46.62   C-15.031,114.418,131.776-23.142,296.222,3.264c0.393,0.045,0.732,0.099,1.011,0.151c69.396,10.961,133.015,51.959,171.802,110.535   c47.245,69.439,56.282,162.644,23.731,239.998C454.786,448.192,357.559,513.2,256.146,512.127z"/>
	<g>
		<g>
			<path style="fill:#564BB7;" d="M498.628,256.127c1.07,117.433-88.248,222.688-205.983,239.511     C175.198,514.341,58.469,440.181,24.802,327.095c-0.207-0.621-0.391-1.265-0.575-1.909c-0.207-0.621-0.391-1.242-0.552-1.886     c-0.486-1.538-0.88-3.108-1.311-4.668c-0.7-2.617-1.356-5.247-1.967-7.889c-0.446-1.93,1.132-3.867,0.734-5.809     c-0.313-1.531-2.612-3.066-2.895-4.604c-1.29-7.005-2.263-14.071-2.91-21.161C-0.016,121.254,139.495-8.184,294.624,16.937     c0.069,0,0.115,0,0.161,0.023c30.079,4.681,58.923,15.282,84.9,30.678c30.958,18.348,60.715,63.666,60.715,63.666     c3.106,5.407,24.049,20.566,27.149,26.058c5.168,9.154,9.714,18.612,13.621,28.316c0.593,1.474-1.828,2.954-1.264,4.439     c0.523,1.377,4.033,2.758,4.53,4.144C493.78,200.307,498.616,227.955,498.628,256.127z"/>
			<path style="opacity:0.25;fill:#5F2183;" d="M498.628,256.127c1.07,117.433-88.248,222.688-205.983,239.511     C175.198,514.341,58.469,440.181,24.802,327.095c-0.207-0.621-0.391-1.265-0.575-1.909c-0.207-0.621-0.391-1.242-0.552-1.886     c-0.486-1.538-0.88-3.108-1.311-4.668c-0.696-2.598-1.347-5.21-1.954-7.834c-0.366-1.581,1.285-3.166,0.952-4.754     c-0.401-1.91-2.778-3.826-3.131-5.746c-1.287-6.995-2.258-14.05-2.904-21.129c-6.193-61.029,12.701-123.398,47.971-169.234     c8.831,7.635,21.364,8.463,32.011,4.553c0.023,0,0.046-0.023,0.069-0.023c11.567-4.254,21.41-13.177,30.839-22.146     c0-0.023,0.046-0.046,0.046-0.046c0.276-0.276,0.575-0.552,0.851-0.828c9.069-8.659,18.032-17.396,27.182-26.009l0.023-0.023     c18.075-17.133,36.565-33.621,56.342-47.166c27.455-5.26,56.314-5.745,83.961-1.311c0.069,0,0.115,0,0.161,0.023     c18.275,2.882,35.918,7.884,52.617,14.649c2.438,7.911,3.795,16.397,4.209,25.09c0.046,0.506,0.069,1.012,0.069,1.541     c1.208,27.011-7.173,53.319-18.214,77.637v0.023c-6.18,13.935-13.051,27.534-19.11,41.532c-3.058,6.968-5.91,14.028-8.417,21.272     c-1.196,3.472-2.323,7.244-2.668,10.969c-0.115,0.989-0.161,1.955-0.115,2.921c-0.21,11.113,10.491,17.449,20.375,13.43     c6.922-2.874,12.188-9.429,17.156-15.776c5.888-7.51,11.759-15.074,17.776-22.606c14.467-18.111,29.41-36.032,45.994-52.18     c12.392-12.06,20.912-19.07,35.434-28.071c4.645,5.703,12.504,8.872,16.598,14.989h0.146c3.525,5.232,7.778,9.431,10.864,14.892     c5.157,9.126,9.696,18.554,13.6,28.227c0.541,1.341-0.93,2.687-0.413,4.037c0.624,1.631,3.23,3.268,3.819,4.912     C493.803,200.44,498.616,228.022,498.628,256.127z"/>
			<path style="opacity:0.23;fill:#5F2183;" d="M498.628,256.127c1.07,117.433-88.248,222.688-205.983,239.511     C175.198,514.341,58.469,440.181,24.802,327.095c-0.207-0.621-0.391-1.265-0.575-1.909c-0.207-0.621-0.391-1.242-0.552-1.886     c-0.486-1.538-0.88-3.108-1.311-4.668c-0.691-2.583-1.339-5.179-1.943-7.786c-0.394-1.704,1.23-3.412,0.873-5.125     c-0.368-1.769-2.717-3.543-3.045-5.32c-1.296-7.028-2.274-14.118-2.923-21.231c-0.517-5.186-0.825-10.356-0.989-15.569     c36.503-1.487,53.399-43.06,71.382-69.381c17.56-26.761,39.263-52.766,68.116-67.013c0.253-0.115,0.529-0.23,0.782-0.391     c17.1-8.462,38.166-12.955,55.882-3.978c22.817,11.424,34.926,38.279,35.001,63.103c0.727,50.429-33.779,95.113-31.367,145.846     c1.168,20.529,13.529,46.568,36.864,46.178c36.875-3.333,43.913-59.245,51.674-87.917c3.878-15.408,9.045-30.947,17.868-44.269     c0.161-0.276,0.345-0.552,0.529-0.805c6.62-9.814,15.447-18.299,26.446-23.112c12.894-5.759,27.882-6.982,40.497-0.391     c6.973,3.667,12.291,9.513,17.478,15.615c7.561,8.889,15.341,19.207,27.09,21.686c12.712,2.599,25.031-4.772,33.069-14.327     c11.079-13.514,16.152-30.685,26.331-44.821C496.328,217.745,498.628,236.672,498.628,256.127z"/>
			<path style="opacity:0.31;fill:#5F2183;" d="M48.351,380.126c-6.485-10.878-12.165-22.284-16.903-34.173     c7.819-3.151,15.477-6.807,22.79-10.417c26.929-13.246,59.378-25.964,85.617-11.407c27.481,15.224,33.438,52.387,55.101,75.154     c21.019,22.077,57.515,27.412,83.984,12.28c25.618-14.672,40.727-45.028,68.416-55.284c14.028-5.197,30.172-4.323,43.556,2.392     c12.096,6.048,22.261,16.696,35.599,18.903c13.729,2.254,27.481-5.289,36.979-15.454c9.52-10.165,15.845-22.813,23.365-34.518     c0.621-0.966,1.242-1.909,1.886-2.852c-2.392,8.164-5.221,16.144-8.44,23.917c-1.587,3.863-3.266,7.658-5.059,11.406     c-2.07,4.369-4.277,8.67-6.646,12.901c-4.553,8.325-9.636,16.374-15.155,24.055c-37.278,52.042-94.655,88.699-160.794,98.61     c-11.82,1.771-23.916,2.691-36.22,2.691c-24.629,0-48.385-3.679-70.761-10.533C127.621,470.112,78.844,431.225,48.351,380.126z"/>
		</g>
		<g style="opacity:0.39;">
			<path style="fill:#F3C7D1;" d="M259.942,314.149c-33.941,0-61.552-27.612-61.552-61.555c0-33.94,27.612-61.552,61.552-61.552     c33.943,0,61.555,27.612,61.555,61.552C321.496,286.538,293.884,314.149,259.942,314.149z M259.942,192.183     c-33.312,0-60.412,27.1-60.412,60.412s27.1,60.414,60.412,60.414s60.414-27.102,60.414-60.414S293.253,192.183,259.942,192.183z"/>
			<path style="fill:#F3C7D1;" d="M259.942,345.968c-51.485,0-93.371-41.886-93.371-93.373c0-51.485,41.886-93.371,93.371-93.371     c51.487,0,93.373,41.886,93.373,93.371C353.315,304.082,311.428,345.968,259.942,345.968z M259.942,160.365     c-50.856,0-92.23,41.374-92.23,92.23s41.374,92.232,92.23,92.232s92.232-41.376,92.232-92.232S310.797,160.365,259.942,160.365z"/>
			<path style="fill:#F3C7D1;" d="M259.942,405.625c-84.381,0-153.028-68.649-153.028-153.03S175.561,99.567,259.942,99.567     s153.03,68.647,153.03,153.028S344.322,405.625,259.942,405.625z M259.942,100.708c-83.75,0-151.887,68.137-151.887,151.887     c0,83.752,68.137,151.889,151.887,151.889c83.752,0,151.889-68.137,151.889-151.889     C411.831,168.845,343.694,100.708,259.942,100.708z"/>
			<path style="fill:#F3C7D1;" d="M259.942,371.156c-65.375,0-118.559-53.187-118.559-118.562s53.185-118.559,118.559-118.559     s118.562,53.185,118.562,118.559S325.316,371.156,259.942,371.156z M259.942,135.176c-64.744,0-117.418,52.675-117.418,117.418     c0,64.746,52.675,117.421,117.418,117.421c64.746,0,117.421-52.675,117.421-117.421     C377.362,187.851,324.688,135.176,259.942,135.176z"/>
			<path style="fill:#F3C7D1;" d="M259.942,468.064c-118.809,0-215.467-96.658-215.467-215.469     c0-118.809,96.658-215.467,215.467-215.467c118.811,0,215.469,96.658,215.469,215.467     C475.411,371.406,378.753,468.064,259.942,468.064z M259.942,38.269c-118.18,0-214.326,96.146-214.326,214.326     s96.146,214.328,214.326,214.328S474.27,370.775,474.27,252.595S378.121,38.269,259.942,38.269z"/>
			<path style="fill:#F3C7D1;" d="M259.942,439.21c-102.899,0-186.613-83.716-186.613-186.615S157.042,65.982,259.942,65.982     s186.613,83.714,186.613,186.613S362.841,439.21,259.942,439.21z M259.942,67.122c-102.268,0-185.472,83.204-185.472,185.472     c0,102.271,83.204,185.475,185.472,185.475s185.472-83.204,185.472-185.475C445.414,150.326,362.21,67.122,259.942,67.122z"/>
		</g>
		<g>
			<polygon style="fill:#FDBC08;" points="352.712,251.421 296.721,262.805 335.323,304.935 283.321,281.213 289.828,337.994      261.704,288.225 233.58,337.994 240.087,281.213 188.084,304.934 226.687,262.805 170.695,251.421 226.687,240.038      188.085,197.908 240.087,221.629 233.58,164.849 261.704,214.618 289.828,164.849 283.321,221.63 335.323,197.909      296.721,240.038    "/>
			
				<ellipse transform="matrix(0.6867 -0.7269 0.7269 0.6867 -102.1797 269.8462)" style="fill:#F3C7D1;" cx="261.997" cy="253.476" rx="24.367" ry="24.367"/>
		</g>
		<g>
			<g>
				<path style="fill:#FF5382;" d="M457.579,121.205c-2.659,17.759-13.03,33.845-27.826,43.786      c-2.438,1.649-4.982,3.111-7.612,4.415c-0.023,0.023-0.046,0.046-0.069,0.046c-9.336,4.59-19.847,6.92-30.264,6.577      c-0.023,0.023-0.023,0-0.023,0c-11.6-0.251-23.028-3.715-32.816-9.889l-0.023-0.023c-11.338-7.093-20.395-17.844-25.481-30.218      v-0.023c-0.023-0.046-0.046-0.069-0.046-0.115c-2.175-5.298-3.661-10.926-4.323-16.627c-0.023-0.023-0.023-0.046,0-0.069      c-1.125-8.988-0.356-18.272,2.369-26.906c3.146-10.551,9.234-20.301,17.156-27.849h0.023c2.183-2.111,4.544-4.087,7.014-5.841      c7.129-5.128,15.339-8.854,24.238-10.74C410.938,66.147,437.543,91.326,457.579,121.205z"/>
				<g>
					<path style="fill:#FF5382;" d="M441.432,154.903c-2.403,2.626-5.017,5.056-7.801,7.262       c-11.044,8.707-24.992,13.908-40.147,13.908c-35.839,0-64.888-29.05-64.888-64.888c0-4.137,0.394-8.195,1.129-12.122       c0.788-4.176,1.983-8.221,3.533-12.069c0.933,0.841,1.865,1.681,2.81,2.508c1.733,1.51,3.493,3.007,5.266,4.478       c14.118,11.859,29.496,22.601,45.426,32.517c16.022,9.771,32.635,18.78,49.878,26.344       C438.227,153.537,439.829,154.233,441.432,154.903z"/>
					<path style="fill:#F3C7D1;" d="M457.579,121.228c-0.301,1.916-0.678,3.855-1.173,5.726c3.868,3.414,7.652,6.913,11.222,10.533       C464.501,131.921,461.166,126.494,457.579,121.228z M481.128,165.634c-26.613-1.707-51.323-15.855-74.717-27.757       c-26.065-14.327-50.95-31.052-73.153-50.892c-36.075-33.103-26.319-36.392,15.385-22.675c2.183-2.111,4.544-4.087,7.014-5.841       c-10.394-4.593-20.969-8.852-32.242-11.222c-17.582-4.304-31.163,6.862-20.259,23.526c13.52,20.37,33.923,34.558,53.535,48.454       c32.366,20.937,88.915,57.117,127.748,55.054C483.404,171.361,482.3,168.486,481.128,165.634z"/>
				</g>
			</g>
			<g>
				
					<ellipse transform="matrix(0.975 -0.222 0.222 0.975 -60.71 23.076)" style="fill:#FF8933;" cx="72.292" cy="281.589" rx="36.04" ry="36.04"/>
				<g>
					<path style="fill:#FF5382;" d="M107.028,271.972c0.524,1.907,0.893,3.854,1.107,5.816c0.827,7.768-0.853,15.864-5.336,22.99       c-10.6,16.85-32.851,21.917-49.702,11.316c-1.945-1.223-3.736-2.609-5.365-4.116c-1.731-1.606-3.279-3.364-4.629-5.231       c0.671-0.19,1.342-0.379,2.011-0.579c1.223-0.368,2.447-0.753,3.663-1.151c9.752-3.13,19.351-7.183,28.725-11.741       c9.333-4.643,18.483-9.789,27.139-15.659C105.438,273.075,106.239,272.527,107.028,271.972z"/>
					<path style="fill:#F3C7D1;" d="M129.506,253.574c-2.231-11.812-26.791-2.051-33.989,0.46c0.961,0.837,1.937,1.7,2.805,2.622       c5.381-1.453,22.103-6.287,26.125-2.415c-0.7,5.932-12.571,14.088-17.409,17.731c-0.023,0-0.023,0.023-0.046,0.023       c-13.682,9.502-28.385,17.333-43.717,23.687c-5.377,2.234-38.547,15.004-40.429,8.095c3.339-6.058,8.741-10.752,14.144-14.972       c-0.341-1.652-0.563-3.334-0.667-5.013c-6.513,4.556-13.96,9.303-18.121,16.328c0.667,3.564,1.38,7.106,2.185,10.625       c19.663,7.21,70.509-21.133,87.733-32.931c0-0.023,0.023-0.023,0.023-0.023C114.905,272.746,129.722,262.865,129.506,253.574z"/>
				</g>
			</g>
		</g>
		<g>
			<polygon style="fill:#FDBC08;" points="75.28,176.901 77.449,152.61 84.823,174.298 110.414,170.394 91.763,184.708      102.173,208.131 82.654,191.648 68.774,220.276 73.521,188.303 46.219,183.407    "/>
			<polygon style="fill:#FDBC08;" points="247.416,436.962 271.562,440.384 249.522,446.626 252.097,472.385 238.767,453.018      214.837,462.203 232.307,443.563 204.436,428.22 236.121,434.615 242.422,407.602    "/>
			<polygon style="fill:#FDBC08;" points="398.535,217.952 398.191,193.567 407.759,214.38 432.812,207.863 415.733,224.021      428.499,246.247 407.387,231.862 396.528,261.766 397.959,229.474 370.297,227.415    "/>
		</g>
		<g>
			<g>
				<path style="fill:#95ABD3;" d="M170.914,413.267c-0.063,0-0.124-0.009-0.184-0.031l-66.246-22.498      c-0.204-0.067-0.35-0.243-0.384-0.456c-0.034-0.211,0.054-0.422,0.227-0.55l52.497-38.746c0.157-0.115,0.359-0.141,0.541-0.076      c0.184,0.067,0.319,0.225,0.362,0.413l13.749,61.245c0.045,0.202-0.022,0.415-0.177,0.552      C171.191,413.215,171.054,413.267,170.914,413.267z M105.895,390.003l64.234,21.816l-13.331-59.385L105.895,390.003z"/>
				<path style="fill:#95ABD3;" d="M163.356,350.944c0,3.729-3.023,6.752-6.752,6.752c-3.729,0-6.752-3.023-6.752-6.752      c0-3.729,3.023-6.752,6.752-6.752C160.333,344.191,163.356,347.215,163.356,350.944z"/>
				<path style="fill:#95ABD3;" d="M175.98,412.008c0,3.729-3.023,6.752-6.752,6.752c-3.729,0-6.752-3.023-6.752-6.752      s3.023-6.752,6.752-6.752C172.956,405.255,175.98,408.279,175.98,412.008z"/>
				<circle style="fill:#95ABD3;" cx="105.521" cy="389.989" r="6.752"/>
			</g>
			<g>
				<path style="fill:#95ABD3;" d="M228.824,123.489H196.53c-0.362,0-0.654-0.292-0.654-0.654c0-0.362,0.292-0.654,0.654-0.654      h31.737l11.656-72.844c0.049-0.317,0.323-0.55,0.645-0.55h24.073c0.362,0,0.654,0.292,0.654,0.654      c0,0.362-0.292,0.654-0.654,0.654h-23.516l-11.656,72.844C229.419,123.256,229.145,123.489,228.824,123.489z"/>
				<path style="fill:#95ABD3;" d="M273.251,49.05c0,3.026-2.454,5.48-5.48,5.48s-5.48-2.454-5.48-5.48      c0-3.027,2.454-5.48,5.48-5.48S273.251,46.023,273.251,49.05z"/>
				<path style="fill:#95ABD3;" d="M234.89,122.248c0,3.026-2.454,5.48-5.48,5.48s-5.48-2.454-5.48-5.48      c0-3.027,2.454-5.48,5.48-5.48S234.89,119.221,234.89,122.248z"/>
				<path style="fill:#95ABD3;" d="M244.285,49.05c0,3.026-2.454,5.48-5.48,5.48s-5.48-2.454-5.48-5.48      c0-3.027,2.454-5.48,5.48-5.48S244.285,46.023,244.285,49.05z"/>
				<path style="fill:#95ABD3;" d="M202.597,122.052c0,3.027-2.453,5.48-5.48,5.48c-3.027,0-5.48-2.454-5.48-5.48      c0-3.026,2.454-5.48,5.48-5.48C200.144,116.572,202.597,119.026,202.597,122.052z"/>
			</g>
			<g>
				<g>
					<path style="fill:#95ABD3;" d="M427.933,414.417c-0.054,0-0.108-0.007-0.162-0.02l-85.76-21.896       c-0.283-0.072-0.483-0.326-0.492-0.618c-0.007-0.292,0.182-0.552,0.46-0.64l88.982-27.511c0.207-0.054,0.429-0.02,0.597,0.112       s0.261,0.339,0.247,0.555l-3.223,49.407c-0.011,0.193-0.11,0.373-0.267,0.485C428.205,414.374,428.07,414.417,427.933,414.417z        M344.578,391.806l82.755,21.131l3.108-47.676L344.578,391.806z"/>
					<path style="fill:#95ABD3;" d="M316.428,439.516c-0.155,0-0.308-0.056-0.427-0.159l-27.513-23.769       c-0.274-0.236-0.303-0.649-0.067-0.921c0.234-0.276,0.647-0.301,0.921-0.067l26.904,23.244l25.193-45.578l-15.709-51.092       c-0.106-0.344,0.088-0.71,0.433-0.815s0.707,0.09,0.815,0.433l15.79,51.357c0.052,0.168,0.034,0.353-0.054,0.508       l-25.716,46.524c-0.094,0.171-0.263,0.292-0.456,0.326C316.504,439.511,316.466,439.516,316.428,439.516z"/>
				</g>
				<circle style="fill:#95ABD3;" cx="326.486" cy="341.06" r="5.48"/>
				<path style="fill:#95ABD3;" d="M435.697,364.938c0,3.027-2.453,5.48-5.48,5.48s-5.48-2.453-5.48-5.48s2.454-5.48,5.48-5.48      S435.697,361.911,435.697,364.938z"/>
				<circle style="fill:#95ABD3;" cx="428.651" cy="412.301" r="5.48"/>
				<path style="fill:#95ABD3;" d="M321.398,437.744c0,3.027-2.454,5.48-5.48,5.48c-3.026,0-5.48-2.454-5.48-5.48      c0-3.026,2.454-5.48,5.48-5.48C318.944,432.264,321.398,434.718,321.398,437.744z"/>
				<circle style="fill:#95ABD3;" cx="290.474" cy="415.041" r="5.48"/>
				<path style="fill:#95ABD3;" d="M346.058,391.555c0,3.027-2.454,5.48-5.48,5.48c-3.026,0-5.48-2.454-5.48-5.48      c0-3.026,2.454-5.48,5.48-5.48C343.604,386.075,346.058,388.529,346.058,391.555z"/>
			</g>
		</g>
		<g>
			
				<ellipse transform="matrix(0.2298 -0.9732 0.9732 0.2298 7.5776 222.3641)" style="fill:#95ABD3;" cx="144.273" cy="106.395" rx="22.899" ry="22.899"/>
			<path style="fill:#F3C7D1;" d="M452.137,303.091c0,7.35-5.958,13.309-13.309,13.309c-7.35,0-13.309-5.958-13.309-13.309     c0-7.35,5.959-13.309,13.309-13.309C446.178,289.782,452.137,295.741,452.137,303.091z"/>
			<g>
				<circle style="fill:#F3C7D1;" cx="164.824" cy="176.657" r="5.872"/>
				<path style="fill:#F3C7D1;" d="M297.52,136.927c0,3.243-2.629,5.872-5.871,5.872c-3.243,0-5.872-2.629-5.872-5.872      s2.629-5.872,5.872-5.872C294.891,131.055,297.52,133.684,297.52,136.927z"/>
				<circle style="fill:#F3C7D1;" cx="377.079" cy="349.182" r="5.872"/>
				<circle style="fill:#F3C7D1;" cx="468.381" cy="208.559" r="5.872"/>
				<circle style="fill:#F3C7D1;" cx="68.531" cy="351.237" r="5.872"/>
				<circle style="fill:#F3C7D1;" cx="149.851" cy="298.1" r="5.872"/>
				<circle style="fill:#F3C7D1;" cx="213.557" cy="361.512" r="5.872"/>
			</g>
		</g>
		<g>
			<g>
				<g>
					<polygon style="fill:#FFFFFF;" points="209.468,55.312 194.771,60.012 190.071,74.709 185.371,60.012 170.674,55.312        185.371,50.612 190.071,35.916 194.771,50.612      "/>
				</g>
			</g>
			<g>
				<g>
					<polygon style="fill:#FFFFFF;" points="389.43,293.99 374.733,298.69 370.033,313.387 365.334,298.69 350.637,293.99        365.334,289.29 370.033,274.593 374.733,289.29      "/>
				</g>
			</g>
			<g>
				<g>
					<polygon style="fill:#FFFFFF;" points="158.092,433.732 143.395,438.432 138.695,453.129 133.995,438.432 119.299,433.732        133.995,429.032 138.695,414.335 143.395,429.032      "/>
				</g>
			</g>
		</g>
	</g>
</g>















</svg>
