<?xml version="1.0" encoding="iso-8859-1"?>
<!-- Generator: Adobe Illustrator 26.5.3, SVG Export Plug-In . SVG Version: 6.00 Build 0)  -->
<svg xmlns="http://www.w3.org/2000/svg" xmlns:xlink="http://www.w3.org/1999/xlink" version="1.1" id="Capa_1" x="0px" y="0px" viewBox="0 0 512 512" style="enable-background:new 0 0 512 512;" xml:space="preserve">
<g>
	<path d="M442.919,405.864c-0.978,2.15-1.784,3.932-2.597,5.71c-1.794,3.923-3.725,7.751-6.512,11.108   c-6.797,8.187-15.769,7.873-21.897-0.831c-3.847-5.465-5.535-11.682-6.272-18.218c-0.311-2.758-0.571-5.522-0.915-8.878   c-0.77,1.337-1.296,2.265-1.836,3.186c-3.029,5.172-6.963,9.224-12.795,11.339c-5.429,1.969-10.323,0.965-14.915-2.051   c-2.84-1.865-5.151-4.359-6.873-7.342c-0.253-0.439-0.392-1.002-1.176-1.22c-0.894,2.538-1.764,5.088-2.69,7.618   c-1.679,4.587-3.998,8.869-7.255,12.479c-8.022,8.89-18.439,7.821-24.61-2.236c-3.112-5.071-4.153-10.845-4.881-16.663   c-0.318-2.543-0.502-5.098-0.555-7.711c-2.109,3.707-4.332,7.28-6.905,10.616c-1.864,2.416-3.908,4.651-6.537,6.303   c-7.081,4.45-14.263,3.496-19.862-2.714c-0.746-0.827-1.432-1.706-2.247-2.681c-0.791,0.873-0.785,1.909-1.027,2.82   c-2.008,7.57-4.246,15.052-8.075,21.952c-2.788,5.023-6.079,9.679-10.583,13.295c-12.618,10.13-23.333,3.23-28.502-6.243   c-3.688-6.76-4.276-14.147-3.737-21.635c1.212-16.817,6.809-32.451,13.077-47.909c2.335-5.758,5.104-11.383,6.266-17.561   c0.434-2.311,0.806-4.89-1.388-6.408c-2.331-1.613-4.761-0.373-6.862,0.956c-4.614,2.917-7.725,7.151-10.206,11.936   c-5.678,10.954-8.578,22.765-10.858,34.774c-1.062,5.594-2.061,11.197-2.761,16.853c-0.341,2.755-1.285,3.605-4.032,4.102   c-0.196,0.035-0.39,0.087-0.587,0.105c-8.105,0.741-9.099-0.944-9.989-7.241c-0.064-0.452-0.188-0.895-0.397-1.861   c-0.863,1.867-1.562,3.307-2.202,4.773c-2.515,5.757-5.628,11.106-10.311,15.416c-2.22,2.043-4.678,3.744-7.516,4.739   c-6.445,2.259-12.689-0.705-16.428-7.676c-2.331-4.344-3.467-9.018-3.619-13.917c-0.516-16.703,3.928-32.366,10.106-47.653   c1.309-3.239,2.728-6.434,4.254-9.687c-2.876,1.131-5.691,2.162-8.692,2.62c-2.794,0.426-5.578,0.456-8.268-0.371   c-1.586-0.488-2.23-0.01-2.812,1.415c-3.012,7.373-6.921,14.175-13.023,19.484c-1.697,1.477-3.404,2.975-5.277,4.203   c-1.32,0.865-1.817,1.916-2.056,3.379c-1.816,11.108-4.804,21.87-9.864,31.973c-2.202,4.397-4.813,8.54-8.428,11.967   c-6.068,5.753-13.548,5.801-19.785,0.193c-3.936-3.539-6.237-8.003-7.713-12.978c-0.3-1.012-0.564-2.034-0.998-3.604   c-0.957,2.342-1.753,4.228-2.502,6.132c-2.636,6.701-5.868,13.05-10.775,18.421c-2.425,2.655-4.989,5.204-8.284,6.714   c-6.638,3.043-12.505,1.174-17.271-3.523c-5.215-5.139-7.82-11.728-9.825-18.6c-1.869-6.405-2.578-12.991-2.813-19.616   c-0.703-19.809,1.522-39.406,4.465-58.945c2.033-13.499,4.373-26.939,7.786-40.169c0.776-3.006,1.66-5.984,2.619-9.418   c-2.29,1.216-4.278,2.283-6.277,3.33c-7.257,3.802-14.737,6.933-22.968,7.949c-16.178,1.996-30.511-8.846-33.01-24.979   c-0.573-3.699-0.507-7.405-0.255-11.104c0.238-3.497,1.586-5.034,4.994-5.732c3.374-0.691,6.755-1.32,10.089-2.209   c2.36-0.63,3.94,0.698,4.072,3.26c0.147,2.84-0.314,5.69,0.196,8.53c1.057,5.878,4.424,9.948,9.743,12.461   c6.605,3.121,13.402,2.55,20.216,0.867c12.861-3.177,24.358-9.154,35.009-16.941c9.203-6.728,18.626-13.16,28.753-18.431   c8.288-4.314,16.695-8.637,26.054-9.983c10.308-1.482,19.992,0.172,27.515,8.281c3.94,4.247,5.858,9.506,6.194,15.179   c0.63,10.634-1.877,20.501-8.085,29.303c-2.57,3.645-5.793,5.236-10.414,4.326c-4.221-0.832-8.445-1.662-12.664-2.513   c-1.144-0.231-2.548-0.365-2.841-1.787c-0.302-1.462,0.379-2.699,1.5-3.675c2.999-2.608,6.192-5.048,8.752-8.083   c5.046-5.981,8.928-12.587,8.677-20.767c-0.19-6.217-3.267-10.928-8.389-14.331c-1.949-1.295-4.129-1.238-6.339-0.862   c-6.216,1.057-11.904,3.62-17.541,6.267c-13.565,6.368-25.898,14.713-37.77,23.783c-0.88,0.672-1.065,1.623-1.409,2.546   c-6.05,16.229-8.928,33.207-11.916,50.167c-2.713,15.402-5.093,30.852-6.624,46.417c-1.298,13.191-2.266,26.414-1.65,39.683   c0.274,5.914,1.224,11.729,4.059,17.069c0.566,1.067,1.237,2.03,2.132,2.845c2.334,2.127,4.902,2.23,7.344,0.225   c3.133-2.573,5.284-5.937,7.206-9.416c4.734-8.567,7.845-17.821,10.885-27.067c0.997-3.032,0.929-6.402,1.468-9.598   c0.908-5.383,2.514-10.572,4.778-15.535c0.58-1.271,0.499-2.318,0.029-3.581c-5.231-14.068-3.054-26.989,6.43-38.55   c8.53-10.397,22.776-9.169,29.695,2.376c4.326,7.218,6.118,15.184,6.927,23.431c0.537,5.473,0.563,10.961,0.244,16.895   c2.138-1.41,3.656-3.096,5.183-4.734c3.686-3.956,6.608-8.432,8.925-13.319c0.546-1.152,0.724-2.016-0.423-2.937   c-5.45-4.376-7.552-10.245-7.231-17.046c0.27-5.734,1.411-11.306,3.92-16.519c2.117-4.4,3.881-5.293,8.693-4.65   c2.428,0.324,4.861,0.606,7.295,0.88c1.823,0.206,2.622,1.088,2.569,3.023c-0.098,3.623-1.408,7.009-1.827,10.56   c-0.303,2.563-0.627,5.115-0.281,7.71c0.945,7.087,5.47,10.284,12.5,8.691c1.409-0.319,2.783-0.875,4.105-1.473   c2.039-0.922,3.813-0.61,5.574,0.7c3.543,2.637,6.246,6.095,9.217,9.29c0.996,1.071,1.062,2.398,0.489,3.724   c-1.682,3.89-3.405,7.762-5.068,11.661c-4.872,11.42-9.011,23.085-11.369,35.307c-0.831,4.307-1.044,8.677-0.306,13.044   c0.167,0.987,0.475,1.93,0.96,2.809c1.386,2.516,3.336,3.101,5.798,1.615c3.914-2.363,6.592-5.917,8.875-9.748   c2.275-3.819,3.876-7.98,5.604-12.069c0.313-0.742,0.394-1.511,0.359-2.329c-0.672-15.515-0.214-30.994,1.742-46.405   c0.864-6.804,1.669-7.449,8.491-8.414c6.722-0.951,8.494,0.786,7.823,7.515c-0.302,3.028-0.55,6.071-0.603,9.111   c-0.096,5.488-0.027,10.979-0.027,15.834c0.2-0.756,0.563-2.23,0.981-3.688c2.34-8.161,5.555-15.884,11.275-22.338   c3.266-3.686,7.112-6.515,11.855-8.046c10.038-3.24,19.329,1.881,22.017,12.046c1.431,5.409,0.456,10.672-0.685,15.919   c-1.962,9.025-5.339,17.613-8.362,26.309c-3.528,10.147-6.765,20.375-8.25,31.065c-0.507,3.649-0.448,7.295,0.668,10.827   c1.983,6.28,6.931,7.678,11.952,3.442c3.031-2.557,5.264-5.764,7.23-9.154c3.986-6.874,6.391-14.39,8.74-21.922   c0.079-0.253,0.121-0.52,0.219-0.764c1.59-3.959,1.769-7.89,1.123-12.202c-1.875-12.508,0.74-24.514,5.29-36.151   c2.237-5.72,5.15-11.06,9.609-15.398c4.267-4.151,9.126-7.191,15.35-6.709c7.651,0.592,12.396,5.088,15.116,12   c0.482,1.226,0.842,2.5,1.389,4.143c0.688-1.743,1.219-3.183,1.821-4.594c1.203-2.818,2.589-3.605,5.609-3.164   c2.948,0.43,5.89,0.9,8.831,1.375c2.431,0.393,3.344,1.905,2.554,4.553c-1.308,4.384-2.499,8.792-3.431,13.272   c-2.443,11.737-4.875,23.483-5.893,35.448c-0.431,5.063-0.936,10.173,0.284,15.225c0.155,0.644,0.303,1.292,0.512,1.919   c1.522,4.581,4.947,5.61,8.707,2.533c2.838-2.322,4.602-5.468,6.068-8.744c1.841-4.113,3.199-8.416,4.688-12.668   c0.791-2.258,0.445-4.395,0.165-6.633c-1.392-11.131,0.274-21.931,3.8-32.485c2.508-7.51,6.547-14.068,12.868-18.97   c4.957-3.845,10.457-6.4,16.959-5.056c6.112,1.264,10.555,4.728,12.933,10.622c0.317,0.786,0.636,1.572,1.181,2.92   c0.948-4.603,1.739-8.657,2.621-12.691c3.679-16.823,7.015-33.724,11.393-50.389c0.959-3.651,1.708-7.36,2.999-10.918   c1.435-3.955,2.776-4.803,6.941-4.798c2.773,0.004,5.526,0.377,8.324,0.085c2.798-0.292,4.244,1.596,3.632,4.477   c-1.215,5.711-3.194,11.209-4.784,16.815c-4.7,16.578-8.689,33.33-12.362,50.167c-4,18.335-7.128,36.809-9.34,55.434   c-0.961,8.092-1.605,16.225-0.621,24.383c0.168,1.39,0.41,2.758,1.109,3.993c1.298,2.292,3.278,2.807,5.519,1.404   c3.606-2.257,5.848-5.72,7.944-9.259c2.435-4.11,4.299-8.511,6.247-12.866c1.011-2.26,0.567-4.71,0.832-7.061   c0.625-5.552,2.174-10.77,4.938-15.609c0.641-1.122,0.712-1.977-0.068-3.064c-6.588-9.176-4.942-23.545,2.873-32.021   c3.409-3.697,7.346-6.459,12.372-7.465c6.657-1.332,12.907,1.573,17.267,8.029c3.8,5.626,5.679,11.947,6.549,18.577   c0.549,4.187,1.095,8.406,0.555,12.658c-0.047,0.37-0.192,0.902,0.262,1.055c0.597,0.201,0.937-0.377,1.304-0.721   c4.764-4.46,7.847-9.945,9.789-16.121c1.765-5.613,2.178-11.254,0.782-17.046c-1.045-4.338-3.453-7.532-7.208-9.782   c-1.483-0.889-2.899-1.83-2.588-3.818c0.321-2.046,1.946-2.648,3.734-3.01c1.751-0.354,3.471-0.884,5.232-1.171   c6.04-0.986,10.275,1.53,12.522,7.245c1.81,4.604,1.916,9.355,1.018,14.091c-2.73,14.41-9.314,26.656-21.469,35.208   c-3.154,2.219-4.491,4.566-5.179,8.126c-1.608,8.32-4.488,16.217-9.327,23.278c-2.159,3.151-4.803,5.816-8.125,7.757   c-8.7,5.084-16.554,2.925-21.509-5.874C444.672,410.721,443.957,408.457,442.919,405.864z M381.171,382.449   c0,1.06-0.101,2.132,0.018,3.178c0.475,4.196,0.593,8.5,3.606,11.951c1.974,2.261,4.533,2.926,7.317,1.872   c3.91-1.481,6.217-4.538,8.199-8.007c4.501-7.876,6.632-16.447,7.174-25.39c0.451-7.436-0.19-14.833-2.597-21.96   c-1.487-4.404-4.904-5.459-8.72-2.766c-2.365,1.67-4.206,3.85-5.611,6.359C384.511,358.482,381.887,370.214,381.171,382.449z    M329.007,358.455c0.101-4.923-0.518-9.673-3.045-13.995c-1.55-2.652-3.494-3.098-6.16-1.5c-2.286,1.37-3.769,3.476-5.179,5.658   c-4.497,6.96-6.789,14.761-8.573,22.731c-1.346,6.013-2.294,12.092-2.024,18.297c0.132,3.026,0.78,5.906,2.394,8.502   c1.933,3.11,4.457,3.697,7.588,1.834c1.862-1.108,3.249-2.681,4.477-4.435C326.292,384.392,328.222,371.584,329.007,358.455z    M142.051,357.804c0.114-3.842,0-7.675-0.446-11.493c-0.565-4.834-1.581-9.543-4.284-13.699c-3.397-5.224-8.173-5.461-12.214-0.686   c-3.03,3.582-4.764,7.729-5.616,12.31c-0.265,1.422-0.254,2.155,1.532,1.577c0.97-0.314,1.954,0.194,2.837,0.661   c1.812,0.958,3.629,1.911,5.405,2.936c3.331,1.922,3.569,2.855,1.525,6.116c-2.141,3.416-4.476,6.704-6.289,10.332   c-0.78,1.56-0.474,2.486,0.7,3.612c4.602,4.414,10.895,3.696,15.039,1.968c0.979-0.408,1.346-1.096,1.44-2.137   C142.025,365.473,142.148,361.642,142.051,357.804z M115.149,401.683c0,0.397,0,0.794,0,1.191   c-0.002,3.616,0.528,7.137,2.175,10.392c1.664,3.289,3.931,3.894,6.983,1.979c1.989-1.248,3.583-2.927,5.012-4.761   c6.774-8.693,9.652-18.853,11.091-29.552c0.203-1.508-0.358-1.67-1.679-1.206c-5.951,2.089-11.941,2.105-17.887-0.007   c-1.288-0.457-1.915-0.315-2.3,1.077C116.65,387.637,115.238,394.551,115.149,401.683z M481.616,374.214   c0-1.309,0.117-3.625-0.023-5.926c-0.35-5.772-1.28-11.455-3.564-16.806c-2.834-6.641-8.338-7.706-13.522-2.758   c-4.195,4.005-6.422,8.986-7.34,14.619c-0.109,0.672-0.473,1.577,0.222,2.029c0.592,0.384,1.212-0.311,1.806-0.555   c2.931-1.202,5.914-1.98,9.074-1.016c1.729,0.527,3.133,1.505,3.591,3.367c0.458,1.859-0.738,2.987-2.03,3.975   c-1.92,1.469-3.361,3.35-4.782,5.269c-0.916,1.238-0.561,1.794,0.826,2.203c4.5,1.327,8.961,1.305,13.486,0.061   C481.265,378.152,482.349,377.323,481.616,374.214z M456.647,401.916c-0.072,2.489,0.228,4.914,1.308,7.172   c1.053,2.204,2.712,3.408,5.309,3.454c2.458,0.043,4.112-1.239,5.713-2.757c6.925-6.56,9.685-15.149,11.676-24.101   c0.299-1.343-0.537-1.218-1.411-0.989c-5.561,1.461-11.118,1.586-16.651-0.123c-1.086-0.336-1.793-0.094-2.206,0.982   C458.361,390.833,456.819,396.219,456.647,401.916z"/>
	<g>
		<path d="M277.46,248.825c-1.926,0.46-3.508,0.857-5.098,1.213c-3.729,0.836-7.495,1.06-11.225,0.148    c-6.927-1.694-11.632-7.358-12.184-14.484c-0.237-3.065-0.234-3.046-3.357-2.592c-2.558,0.372-5.119,0.665-7.711,0.252    c-6.78-1.08-11.611-4.639-13.319-11.399c-1.001-3.961-2.263-7.044-6.584-8.494c-2.334-0.784-3.862-3.196-4.812-5.6    c-1.743-4.412-3.225-8.885-1.495-13.683c0.271-0.752-0.01-1.268-0.517-1.766c-9.135-8.981-9.616-20.076-7.35-31.618    c1.9-9.677,6.271-18.395,11.718-26.566c7.366-11.049,16.488-20.534,26.411-29.27c8.76-7.713,17.848-15.035,28.014-20.836    c16.281-9.29,33.285-16.691,52.194-18.625c5.628-0.576,11.213-0.154,16.757,1.228c7.53,1.877,11.965,6.74,14.042,13.951    c0.522,1.81,1.263,2.846,3.126,3.568c4.384,1.699,7.388,5.073,9.409,9.239c2.363,4.872,2.705,10.085,1.903,15.351    c-0.812,5.33-2.355,10.461-4.884,15.262c-0.337,0.639-1.062,1.394,0.186,1.938c7.095,3.091,9.892,9.241,11.314,16.235    c1.337,6.572-0.235,12.721-3.094,18.668c-2.955,6.147-6.957,11.56-11.292,16.762c-0.254,0.305-0.52,0.602-0.77,0.91    c-1.52,1.876-1.508,1.851,0.667,2.752c9.506,3.936,17.203,15.145,9.267,29.076c-3.084,5.414-7.087,10.046-11.754,14.141    c-2.19,1.921-4.304,3.929-6.468,5.88c-1.02,0.919-1.434,1.557,0.4,1.997c7.449,1.79,11.19,8.589,10.038,15.96    c-0.936,5.984-3.879,10.985-7.731,15.433c-7.246,8.365-14.781,16.456-23.635,23.205c-1.728,1.318-3.168,3.009-4.786,4.478    c-5.722,5.195-12.349,9.084-18.92,13.05c-0.282,0.17-0.589,0.307-0.895,0.43c-1.051,0.422-2.125,0.587-2.859-0.483    c-0.752-1.096-0.424-2.165,0.47-3.047c2.835-2.798,5.348-5.871,7.796-9.006c2.678-3.428,4.592-7.266,6.201-11.277    c0.303-0.755,0.372-1.535,0.397-2.334c0.048-1.559-0.674-2.305-2.25-2.361c-2.622-0.094-5.111,0.658-7.651,1.092    c-2.539,0.433-5.076,1.032-7.674,0.561c-3.613-0.655-5.337-2.735-5.064-6.382c0.101-1.347-0.317-1.424-1.389-1.216    c-3.877,0.751-7.651,0.256-11.317-1.118c-4.722-1.77-7.804-7.108-7.099-12.109C274.993,254.435,276.072,251.756,277.46,248.825z     M312.769,295.743c1.383-0.179,1.977-0.843,2.662-1.315c3.563-2.451,6.574-5.555,9.837-8.362    c7.531-6.476,15.146-12.853,21.389-20.682c3.327-4.172,6.613-8.387,8.187-13.518c1.993-6.495,1.006-11.422-4.409-13.768    c-3.495-1.514-6.974-2.47-10.04,1.048c-0.944,1.083-2.196,1.913-3.362,2.786c-4.131,3.093-8.09,6.468-12.962,8.403    c-1.121,0.445-2.74,1.126-3.379-0.165c-0.556-1.124,1.074-1.783,1.947-2.376c11.889-8.087,22.505-17.661,32.499-27.936    c3.886-3.996,7.253-8.433,9.508-13.614c1.652-3.795,2.322-7.601,0.364-11.498c-2.102-4.185-5.236-7.256-9.603-9.074    c-1.296-0.54-2.106-0.437-3.055,0.714c-5.227,6.342-10.696,12.474-16.532,18.264c-4.467,4.432-8.942,8.867-14.18,12.423    c-0.53,0.36-1.131,1.013-1.75,0.447c-0.683-0.625,0.036-1.24,0.416-1.708c1.209-1.491,2.391-3.021,3.754-4.365    c9.157-9.028,17.926-18.409,26.077-28.36c5.793-7.073,11.758-14.015,15.491-22.514c1.993-4.539,3.639-9.125,3.021-14.197    c-0.741-6.084-3.035-11.34-8.083-15.147c-1.114-0.84-1.71-0.689-2.5,0.482c-4.445,6.588-8.918,13.159-13.497,19.654    c-4.391,6.228-8.912,12.365-14.465,17.65c-1.837,1.749-3.871,3.216-6.118,4.385c-0.526,0.274-1.166,0.582-1.626-0.01    c-0.407-0.523,0.074-0.992,0.387-1.406c0.319-0.422,0.669-0.823,1.025-1.215c2.717-2.99,5.57-5.867,8.133-8.984    c7.461-9.072,13.94-18.859,20.311-28.702c4.559-7.042,8.165-14.54,9.514-22.971c1.193-7.459,0.068-14.122-5.92-19.34    c-0.387-0.338-0.714-0.918-1.302-0.759c-0.557,0.151-0.403,0.766-0.458,1.203c-1.129,8.904-3.835,17.291-8.005,25.245    c-5.23,9.976-10.277,20.051-17.039,29.13c-1.208,1.623-2.697,2.911-4.37,4.005c-0.423,0.277-0.909,0.661-1.42,0.133    c-0.413-0.428-0.124-0.876,0.042-1.292c0.692-1.738,1.781-3.247,2.802-4.794c7.43-11.26,13.815-23.083,18.71-35.659    c2.485-6.383,4.422-13.036,3.948-19.945c-0.744-10.83-4.984-15.142-13.431-16.848c-5.047-1.019-10.183-1.06-15.243-0.429    c-18.33,2.286-34.683,9.836-50.188,19.44c-8.469,5.245-16.125,11.582-23.574,18.178c-11.115,9.842-21.246,20.525-28.795,33.422    c-5.702,9.741-9.759,19.969-9.365,31.561c0.375,11.018,7.671,19.589,17.969,20.675c6.234,0.657,12.446,0.271,18.562-1.111    c15.516-3.504,28.95-11.182,41.358-20.855c8.594-6.7,16.403-14.244,23.607-22.409c10.268-11.638,19.301-24.114,25.19-38.596    c2.551-6.272,4.599-12.73,4.464-19.636c-0.109-5.601-2.657-9.188-7.87-11.249c-4.519-1.786-9.143-1.849-13.874-1.024    c-8.044,1.403-15.242,4.898-22.174,8.966c-12.057,7.075-22.852,15.834-32.968,25.431c-11.533,10.94-21.337,23.19-28.033,37.741    c-2.823,6.136-5.027,12.419-4.719,19.304c0.286,6.391,4.314,10.141,10.692,9.948c2.658-0.08,5.256-0.621,7.789-1.449    c10.206-3.338,19.206-8.927,27.789-15.192c10.1-7.373,18.94-16.116,27.241-25.461c7.373-8.301,14.211-16.964,19.701-26.626    c2.698-4.747,4.934-9.723,4.871-15.353c-0.043-3.776-2.51-5.856-6.233-5.428c-2.585,0.298-5.076,0.976-7.424,2.107    c-6.658,3.206-12.785,7.263-18.532,11.878c-8.647,6.943-16.666,14.545-23.613,23.219c-5.719,7.14-11.377,14.333-15.465,22.588    c-1.688,3.409-2.993,6.957-2.918,10.835c0.067,3.5,1.829,4.89,5.272,4.416c3.931-0.541,7.237-2.451,10.451-4.598    c0.662-0.442,1.388-1.022,2.144-0.321c0.853,0.79,0.257,1.598-0.248,2.29c-0.387,0.53-0.863,1.009-1.358,1.445    c-3.049,2.684-6.595,4.456-10.534,5.326c-6.487,1.434-10.81-1.936-11.085-8.58c-0.263-6.347,2.09-11.996,5.212-17.275    c12.452-21.054,28.831-38.371,49.635-51.368c5.352-3.343,10.867-6.38,17.271-7.279c6.635-0.932,11.441,2.573,12.499,9.175    c0.285,1.778,0.233,3.561-0.083,5.34c-1.375,7.713-4.834,14.551-8.94,21.096c-8.459,13.484-18.632,25.555-30.112,36.569    c-10.51,10.083-22.168,18.473-35.413,24.591c-6.007,2.775-12.229,4.722-18.947,4.589c-7.625-0.151-12.738-4.241-14.65-11.581    c-1.102-4.231-0.812-8.412,0.176-12.585c3.117-13.155,10.336-24.172,18.454-34.631c8.772-11.301,19.047-21.14,30.263-30.02    c10.022-7.934,20.568-15.009,32.517-19.698c7.293-2.862,14.747-5.158,22.814-4.121c8.097,1.041,13.966,5.95,15.533,13.245    c0.752,3.498,0.532,6.993-0.074,10.466c-2.001,11.462-6.597,21.926-12.634,31.764c-9.749,15.886-21.958,29.688-36.107,41.785    c-13.175,11.263-27.549,20.492-44.428,25.168c-10.856,3.007-21.825,4.452-32.793,0.329c-1.202-0.452-1.602-0.08-1.467,1.128    c0.258,2.317,0.859,4.55,1.6,6.753c0.904,2.684,2.727,4.515,5.297,5.587c3.812,1.59,7.788,2.065,11.881,1.531    c11.343-1.481,21.959-5.37,32.433-9.753c0.974-0.408,2.328-1.906,3.04-0.592c0.743,1.37-1.029,2.188-2.115,2.864    c-3.282,2.045-6.897,3.391-10.517,4.662c-8.297,2.915-16.413,6.458-25.287,7.436c-1.344,0.148-3.276-0.629-3.892,0.535    c-0.612,1.157,0.782,2.647,1.243,4.009c1.486,4.389,4.7,6.708,9.182,7.477c4.076,0.699,8.073,0.128,12.008-0.825    c12.43-3.008,24.145-7.908,35.537-13.638c1.538-0.774,3.083-1.535,4.641-2.268c0.477-0.224,1.114-0.426,1.45,0.099    c0.375,0.586-0.237,0.959-0.615,1.289c-1.707,1.492-3.656,2.622-5.639,3.698c-9.699,5.259-19.986,9.143-30.309,12.939    c-3.288,1.209-3.351,1.19-2.323,4.624c0.89,2.972,1.57,6.104,4.044,8.274c3.766,3.303,8.325,3.899,13.065,3.357    c7.322-0.837,14.077-3.633,20.838-6.355c5.295-2.132,10.418-4.604,15.214-7.73c0.593-0.387,1.448-1.293,2.061-0.456    c0.548,0.749-0.472,1.386-0.985,1.935c-1.226,1.314-2.658,2.385-4.183,3.336c-6.052,3.773-12.672,6.317-19.263,8.925    c-0.722,0.286-1.673,0.366-1.949,1.227c-1.307,4.074-3.379,7.983-2.83,12.476c0.317,2.594,1.46,4.603,3.912,5.813    c2.562,1.264,5.235,1.846,8.071,1.706c4.345-0.214,8.448-1.579,12.585-2.74c5.294-1.485,10.552-3.095,15.487-5.59    c0.437-0.221,1.02-0.66,1.439-0.102c0.426,0.568-0.21,0.95-0.516,1.333c-0.937,1.175-2.242,1.848-3.566,2.464    c-5.547,2.579-11.39,4.328-17.261,5.95c-1.866,0.516-1.965,1.652-1.882,3.12c0.088,1.538,0.975,2.294,2.436,2.315    c1.453,0.021,2.92-0.001,4.358-0.182c2.824-0.355,5.627-0.878,8.449-1.249c4.979-0.653,8.077,2.491,7.382,7.457    c-0.269,1.924-1.037,3.689-1.854,5.434C317.873,289.095,315.595,292.336,312.769,295.743z"/>
		<g>
			<path d="M410.285,216.132c-3.796,0.347-8.115-0.63-12.524-0.143c-7.854,0.868-12.817,5.229-15.843,12.161     c-2.578,5.906-3.403,12.225-3.982,18.574c-0.854,9.362-1.278,18.786-3.614,27.948c-2.358,9.252-6.964,17.012-15.324,22.119     c-3.447,2.106-7.117,3.555-11.27,3.254c-1.686-0.123-3.292-0.496-4.456-1.862c-0.549-0.645-0.83-1.448-0.384-2.208     c0.526-0.894,1.262-0.288,1.929-0.077c2.776,0.876,5.415,0.118,7.919-0.937c7.657-3.225,12.572-9.069,15.453-16.724     c2.171-5.768,2.754-11.847,3.32-17.921c0.836-8.963,0.842-18,2.342-26.902c1.095-6.497,3.14-12.581,7.813-17.513     c5.478-5.782,12.368-7.703,20.035-7.286c4.953,0.269,9.883,0.944,14.832,1.317c9.672,0.729,16.833-3.614,22.281-11.269     c1.728-2.428,3.537-4.819,5.046-7.381c5.599-9.508,13.64-16.441,22.883-22.178c4.227-2.624,8.488-5.16,13.163-6.919     c1.676-0.63,3.385-1.158,5.207-1.116c0.384,0.009,0.874,0.002,0.927,0.524c0.053,0.525-0.455,0.617-0.807,0.701     c-10.424,2.485-18.73,8.797-27.007,15.092c-5.366,4.08-9.009,9.641-12.377,15.388c-2.546,4.344-5.198,8.614-8.332,12.584     c-5.603,7.1-13.016,10.4-21.892,10.765C414.036,216.188,412.443,216.132,410.285,216.132z"/>
			<path d="M349.216,313.884c-4.394-0.396-8.669-0.877-12.816-2.113c-0.564-0.168-1.112-0.446-1.609-0.764     c-0.893-0.571-1.587-1.357-1.093-2.475c0.464-1.049,1.427-0.668,2.27-0.523c9.077,1.56,18.077,1.829,26.748-1.948     c13.657-5.949,22.22-16.338,26.162-30.578c1.932-6.981,2.472-14.209,3.284-21.38c0.788-6.956,2.562-13.523,7.237-19.004     c3.286-3.853,7.452-5.771,12.483-6.05c5.183-0.286,10.13,1.026,15.094,2.133c10.026,2.235,18.656-0.118,26.202-7.143     c4.747-4.42,9.167-9.208,14.312-13.193c4.071-3.153,8.359-6.007,13.714-6.19c5.062-0.173,10.055,0.524,14.718,2.652     c1.732,0.79,3.146,2.051,3.035,4.247c-0.025,0.484,0.11,1.181-0.567,1.34c-0.698,0.164-0.833-0.474-1.033-0.961     c-0.448-1.092-1.183-1.986-2.293-2.355c-7.345-2.446-14.658-3.639-21.87,0.533c-3.877,2.243-7.217,5.141-10.483,8.154     c-2.97,2.739-5.963,5.453-8.958,8.164c-8.016,7.257-17.299,9.877-27.957,7.822c-3.5-0.675-7.03-1.272-10.614-1.473     c-7.212-0.404-11.914,3.142-14.972,9.34c-2.453,4.973-3.139,10.355-3.59,15.786c-0.746,8.992-1.524,18.012-5.22,26.381     c-7.601,17.207-20.503,27.408-39.517,29.291C350.958,313.668,350.039,313.788,349.216,313.884z"/>
			<path d="M394.677,200.558c-2.827,0.164-5.538-0.388-8.141-1.455c-0.79-0.324-1.569-0.73-2.256-1.232     c-0.874-0.64-1.279-1.562-0.781-2.62c0.491-1.044,1.426-1.039,2.395-0.811c2.062,0.486,4.13,0.832,6.261,0.982     c7.674,0.54,13.553-2.867,18.552-8.232c4.431-4.755,6.77-10.706,9.206-16.579c1.523-3.673,3.029-7.334,5.198-10.701     c3.396-5.271,8.174-8.926,13.878-11.139c10.584-4.107,21.628-6.572,32.842-8.264c0.63-0.095,1.485-0.279,1.656,0.586     c0.138,0.698-0.638,0.989-1.182,1.131c-3.646,0.953-7.296,1.897-10.965,2.758c-5.479,1.286-10.922,2.706-16.286,4.408     c-8.755,2.777-14.395,8.766-17.836,17.143c-2.613,6.361-4.818,12.915-8.47,18.814c-4.815,7.775-11.33,13.215-20.511,15.018     c-0.454,0.089-0.915,0.166-1.376,0.186C396.134,200.58,395.405,200.558,394.677,200.558z"/>
			<path d="M271.453,309.736c0.031,1.215-0.129,2.392-0.664,3.486c-0.34,0.695-0.856,1.234-1.71,1.067     c-0.896-0.175-1.06-0.888-1.037-1.675c0.006-0.198,0.024-0.396,0.042-0.594c0.425-4.778-1.67-7.001-6.517-6.845     c-3.366,0.108-6.475,1.283-9.57,2.466c-5.873,2.246-11.686,4.738-18.037,5.299c-7.37,0.652-12.189-2.028-14.724-8.984     c-2.092-5.741-2.502-11.791-2.839-17.784c-0.769-13.686-7.118-24.266-17.492-32.745c-0.807-0.659-1.813-1.072-2.72-1.611     c-0.331-0.197-0.794-0.373-0.646-0.862c0.133-0.441,0.59-0.469,0.996-0.481c1.587-0.045,2.774,0.867,3.886,1.785     c8.505,7.015,14.79,15.45,16.971,26.534c1.124,5.711,1.709,11.523,3.183,17.166c0.67,2.567,1.541,5.044,2.98,7.321     c2.098,3.32,5.136,4.385,8.857,3.989c4.323-0.46,8.365-1.956,12.405-3.44c4.226-1.552,8.42-3.193,12.932-3.773     c2.887-0.372,5.709-0.225,8.335,1.117C269.554,302.945,271.494,305.738,271.453,309.736z"/>
			<path d="M175.517,206.085c-4.214,0.012-7.57,1.448-10.896,2.937c-4.773,2.137-9.507,4.35-14.602,5.672     c-5.62,1.458-10.294-0.078-14.25-4.206c-2.897-3.024-5.194-6.521-7.791-9.781c-5.043-6.332-11.097-11.515-17.848-15.915     c-1.554-1.013-3.219-1.859-5.19-1.703c-0.427,0.034-1.049,0.208-1.025-0.516c0.017-0.515,0.509-0.735,0.986-0.831     c1.577-0.318,3.018,0.131,4.4,0.829c3.451,1.743,6.437,4.156,9.45,6.538c5.595,4.423,10.375,9.621,14.679,15.282     c1.285,1.691,2.745,3.222,4.315,4.655c3.102,2.831,6.564,3.435,10.472,1.887c3.895-1.543,7.459-3.724,11.148-5.66     c3.468-1.821,6.992-3.478,10.789-4.498c5.564-1.494,10.683-0.633,15.085,3.163c5.077,4.378,8.215,9.797,8.27,16.701     c0.002,0.265,0.023,0.538-0.031,0.793c-0.265,1.249-0.12,3.009-1.869,3.043c-1.692,0.033-1.275-1.692-1.515-2.768     c-1.323-5.927-4.296-10.779-9.343-14.245C179.054,206.297,177.087,205.988,175.517,206.085z"/>
			<path d="M284.466,293.753c0.032,2.076-0.208,3.578-0.616,5.049c-0.231,0.833-0.488,1.806-1.624,1.644     c-1.004-0.143-0.987-1.081-1.094-1.874c-0.311-2.293-0.27-4.617-0.742-6.9c-1.765-8.54-7.266-12.4-15.97-11.369     c-4.46,0.528-8.935,0.939-13.457,0.338c-6.09-0.809-10.247-4.024-12.573-9.63c-1.8-4.338-3.44-8.743-5.237-13.082     c-1.888-4.558-4.406-8.747-7.764-12.39c-5.613-6.088-11.209-12.201-18.768-16.014c-0.383-0.193-1.028-0.39-0.715-0.963     c0.233-0.427,0.821-0.296,1.281-0.163c1.674,0.484,3.191,1.295,4.569,2.337c10.474,7.918,19.538,17.047,25.151,29.171     c1.5,3.241,3.003,6.488,4.894,9.537c2.349,3.788,5.66,5.721,10.167,5.856c5.306,0.16,10.566-0.822,15.871-0.479     c5.501,0.355,9.871,2.69,13.031,7.265C283.415,285.77,284.219,289.945,284.466,293.753z"/>
			<path d="M193.848,194.351c-0.079,1.049-0.042,2.023-1.077,2.325c-1.044,0.304-1.544-0.481-1.98-1.266     c-0.803-1.447-1.566-2.919-2.433-4.326c-2.089-3.389-5.115-4.592-9.011-3.818c-3.44,0.683-6.861,1.444-10.359,1.866     c-6.594,0.794-11.538-1.634-14.827-7.327c-2.152-3.725-4.004-7.625-6.163-11.345c-5.001-8.614-11.374-16.095-19.03-22.471     c-1.534-1.277-3.255-2.267-5.138-2.968c-0.515-0.192-1.45-0.293-1.211-1.005c0.274-0.818,1.108-0.341,1.713-0.182     c3.454,0.911,6.13,3.102,8.635,5.469c8.201,7.747,15.028,16.558,20.348,26.528c0.932,1.746,2.052,3.402,3.194,5.024     c2.633,3.741,6.246,4.852,10.642,3.87c3.748-0.837,7.397-2.079,11.207-2.663c6.297-0.965,10.685,1.207,13.597,6.859     C192.864,190.688,193.657,192.514,193.848,194.351z"/>
		</g>
	</g>
</g>
<g>
</g>
<g>
</g>
<g>
</g>
<g>
</g>
<g>
</g>
<g>
</g>
<g>
</g>
<g>
</g>
<g>
</g>
<g>
</g>
<g>
</g>
<g>
</g>
<g>
</g>
<g>
</g>
<g>
</g>
</svg>
