<?xml version="1.0" encoding="UTF-8"?>
<!-- Generator: Adobe Illustrator 26.5.1, SVG Export Plug-In . SVG Version: 6.00 Build 0)  -->
<svg xmlns="http://www.w3.org/2000/svg" xmlns:xlink="http://www.w3.org/1999/xlink" version="1.1" id="Capa_1" x="0px" y="0px" viewBox="0 0 512 512" style="enable-background:new 0 0 512 512;" xml:space="preserve" width="512" height="512">
<g>
	<path style="fill:#FFFFFF;" d="M151.569,494.055c-4.544,0-8.877-1.942-11.902-5.343c-3.049-3.43-4.469-8.007-3.903-12.557   c0.136-1.247,2.353-24.606-17.164-53.256c-11.419-16.757-30.281-40.217-46.923-60.916c-32.071-39.89-34.316-43.232-34.316-51.078   c0-2.105,0.206-5.182,2.518-16.881c-0.061-1.278,0.02-2.569,0.249-3.847l2.508-13.978L8.847,240.226   c-2.253-2.401-4.114-5.117-5.555-8.104c-1.148-1.846-1.908-3.909-2.229-6.061c-0.837-3.196-1.182-6.463-1.026-9.734l1.658-34.817   c0.143-2.994,0.684-5.916,1.616-8.728c0.33-5.221,3.208-9.954,7.706-12.65l0.111-0.065c2.097-2.113,4.469-3.925,7.082-5.405   l38.077-21.576c0.905-0.518,1.848-0.959,2.826-1.322c1.824-0.892,3.822-1.439,5.899-1.581c0.365-0.026,0.94-0.047,1.306-0.047   c0.618,0,1.233,0.031,1.843,0.091l0.782-8.122l-26.894-7.17c-6.845-1.828-11.663-7.953-11.82-15.038   c-0.157-7.082,4.382-13.418,11.14-15.543L79.88,72.227l6.448-40.838c1.095-6.938,6.606-12.339,13.564-13.296   c0.729-0.1,1.456-0.149,2.175-0.149c6.158,0,11.852,3.576,14.473,9.292l14.843,32.387l39.394-3.457   c0.468-0.042,0.935-0.061,1.398-0.061c4.889,0,9.463,2.25,12.453,6.004c40.12-22.081,45.085-22.08,48.827-22.08   c3.948,0,14.434,0,47.238,30.075c8.556,7.844,53.571,38.547,79.936,56.056c0.767,0.508,1.488,1.084,2.155,1.719l1.222,1.159   c1.319,0.697,2.539,1.579,3.619,2.621l19.121,18.444l0.646-0.202l6.448-40.839c1.097-6.937,6.607-12.339,13.564-13.296   c0.728-0.098,1.456-0.148,2.175-0.148c6.158,0,11.852,3.575,14.473,9.291l14.844,32.385l39.395-3.456   c0.467-0.039,0.933-0.06,1.397-0.06c6.221,0,11.932,3.642,14.519,9.394c2.78,6.183,1.343,13.446-3.581,18.102l-25.073,23.72   l11.235,29.078c0.546,1.413,0.879,2.867,1.008,4.327l24.253,9.822c4.399,1.784,7.773,5.433,9.205,9.957   c1.432,4.524,0.772,9.452-1.8,13.438l-57.602,89.305c-2.998,4.648-8.094,7.297-13.388,7.297c-1.787,0-3.598-0.303-5.358-0.933   c-7.28-2.603-31.158-11.437-41.119-18.727c-1.769-0.29-5.772-0.29-7.8-0.29l-2.168,0.003c-7.83,0-20.934,0-36.244-4.466   c-6.224-1.815-14.32-6.504-24.246-14.035c-0.839,1.947-2.074,3.743-3.681,5.262l-25.073,23.72l11.235,29.08   c2.424,6.273,0.646,13.394-4.444,17.791c-2.962,2.561-6.675,3.876-10.415,3.876c-2.687,0-5.387-0.679-7.835-2.061l-26.24-14.833   c0.293,18.851-3.76,35.286-5.99,42.84l8.61,23.997c2.33,6.496,0.214,13.752-5.244,17.975c-1.886,1.46-46.808,35.75-100.624,36.637   C151.744,494.055,151.656,494.055,151.569,494.055z"/>
	<g>
		<path style="fill:#FF93E2;" d="M495.627,240.777l-57.602,89.305c0,0-29.595-10.583-37.511-16.915    c-7.916-6.333-25.366,0.536-50.723-6.86c-26.899-7.846-104.612-95.64-104.612-95.64l14.745-15.8l1.614-1.77l18.594-19.96    l1.645-1.738l7.233-7.76l-59.166-75.029c0,0-21.14,9.002-33.277,11.113c-12.168,2.111-21.667-16.391-21.667-16.391    s52.306-29.583,58.111-29.583c5.805,0,23.778,14.248,36.474,25.889c12.665,11.61,81.889,57.583,81.889,57.583l82.944,78.723    L495.627,240.777z"/>
		<g>
			
				<path style="fill:none;stroke:#2E1144;stroke-width:2.3921;stroke-linecap:round;stroke-linejoin:round;stroke-miterlimit:10;" d="     M269.893,218.956c13.058-15.228,27.144-29.574,42.13-42.909"/>
			<g>
				<g>
					<path style="fill:#2E1144;" d="M278.301,211.35c-0.248,0.248-0.559,0.372-0.869,0.372c-0.31,0-0.59-0.124-0.838-0.342       c-5.618-5.401-11.206-10.927-16.67-16.514l1.614-1.77c5.463,5.619,11.082,11.144,16.731,16.545       C278.736,210.108,278.767,210.853,278.301,211.35z"/>
				</g>
				<g>
					<path style="fill:#2E1144;" d="M297.579,189.682c-0.248,0.217-0.528,0.31-0.838,0.31c-0.31,0-0.621-0.124-0.869-0.372       c-5.215-5.526-10.461-10.989-15.738-16.483l1.645-1.738c5.339,5.494,10.585,11.051,15.831,16.576       C298.075,188.472,298.044,189.217,297.579,189.682z"/>
				</g>
			</g>
		</g>
		<g>
			<polygon style="fill:#B179FF;" points="52.311,167.872 56.538,191.648 135.266,296.267 323.367,182.666 308.044,159.946    "/>
			<g>
				<path style="fill:#2E1144;" d="M50.726,170.514l85.069,115.714l187.045-113.072l-81.294-94.759      c-2.827-3.296-7.557-4.2-11.4-2.18L50.726,170.514z"/>
				<polygon style="fill:#B179FF;" points="301.18,174.223 296.585,176.955 145.569,238.145 74.231,176.955 70.661,171.957       234.067,86.499     "/>
				<polygon style="fill:#FFE7DE;" points="296.585,176.955 140.537,269.833 74.231,176.955 233.011,93.887     "/>
				<polygon style="opacity:0.56;fill:#FFFFFF;" points="234.067,86.499 137.908,271.961 306.459,172.627     "/>
				<g>
					<path style="fill:#2E1144;" d="M170.447,169.148c0.358,1.198,0.614,2.504,0.766,3.915c0.153,1.416,0.118,2.796-0.103,4.145       c-0.221,1.35-0.673,2.597-1.352,3.748c-0.682,1.149-1.673,2.069-2.969,2.759c-0.961,0.513-1.925,0.781-2.897,0.807       c-0.974,0.025-1.944-0.12-2.913-0.437c-0.971-0.314-1.907-0.773-2.81-1.37c-0.903-0.596-1.745-1.266-2.526-2.008       c-0.778-0.739-1.476-1.517-2.094-2.324c-0.618-0.812-1.132-1.603-1.541-2.373c-0.574-1.075-1.09-2.293-1.544-3.635       c-0.454-1.345-0.8-2.732-1.038-4.16c-0.236-1.431-0.341-2.872-0.312-4.317c0.029-1.451,0.243-2.827,0.642-4.133       c0.399-1.306,0.993-2.501,1.788-3.586c0.792-1.087,1.848-1.981,3.169-2.683c0.839-0.449,1.706-0.702,2.602-0.758       c0.891-0.064,1.745,0.039,2.561,0.295c0.814,0.26,1.572,0.682,2.268,1.266c0.696,0.587,1.263,1.284,1.697,2.101l0.172,0.324       c0.231,0.432,0.498,0.974,0.8,1.632c0.302,0.653,0.51,1.318,0.626,1.998s0.091,1.33-0.068,1.956       c-0.161,0.623-0.589,1.122-1.285,1.492c-0.841,0.449-1.578,0.596-2.215,0.439c-0.636-0.152-1.192-0.673-1.664-1.561       c-0.179-0.336-0.347-0.68-0.501-1.028c-0.156-0.348-0.323-0.692-0.502-1.028c-0.27-0.506-0.562-0.847-0.875-1.036       c-0.315-0.184-0.738-0.138-1.265,0.145c-0.6,0.319-1.037,0.798-1.313,1.438c-0.275,0.641-0.427,1.37-0.454,2.184       c-0.028,0.815,0.037,1.689,0.194,2.621c0.158,0.933,0.368,1.846,0.628,2.742c0.26,0.891,0.552,1.728,0.877,2.513       c0.325,0.781,0.627,1.436,0.909,1.964c0.228,0.432,0.518,0.918,0.866,1.458c0.349,0.537,0.739,1.023,1.17,1.455       c0.431,0.434,0.897,0.749,1.402,0.94c0.504,0.194,1.007,0.157,1.513-0.113c0.864-0.459,1.416-1.097,1.656-1.922       c0.242-0.822,0.234-1.701-0.021-2.646c-0.363,0.135-0.736,0.228-1.117,0.295c-0.38,0.066-0.763,0.069-1.149,0.012       c-0.384-0.057-0.741-0.191-1.069-0.402c-0.328-0.209-0.6-0.518-0.818-0.928c-0.395-0.744-0.454-1.46-0.173-2.148       c0.28-0.692,0.705-1.323,1.274-1.905c0.568-0.579,1.198-1.095,1.886-1.534c0.687-0.444,1.248-0.781,1.679-1.011       c0.313-0.167,0.781-0.388,1.406-0.658c0.626-0.27,1.276-0.483,1.945-0.645c0.673-0.152,1.3-0.204,1.886-0.147       c0.585,0.056,1,0.314,1.242,0.771c0.486,0.911,0.658,1.828,0.518,2.754C171.861,167.742,171.343,168.52,170.447,169.148z"/>
					<path style="fill:#2E1144;" d="M193.454,161.146c0.255,0.481,0.521,1.077,0.794,1.794c0.275,0.719,0.454,1.448,0.54,2.187       c0.086,0.739,0.037,1.429-0.147,2.067c-0.184,0.638-0.611,1.136-1.284,1.492c-0.889,0.474-1.728,0.503-2.516,0.091       c-0.79-0.41-1.522-1.016-2.192-1.814c-0.673-0.798-1.274-1.652-1.809-2.572c-0.536-0.918-0.962-1.644-1.28-2.184       c-1.575,1.21-3.145,2.368-4.71,3.48c0.247,0.579,0.509,1.316,0.787,2.214c0.28,0.901,0.459,1.814,0.538,2.742       c0.079,0.93,0.006,1.809-0.215,2.636c-0.223,0.827-0.706,1.438-1.449,1.834c-0.577,0.307-1.138,0.339-1.686,0.088       c-0.547-0.245-1.06-0.614-1.535-1.102c-0.474-0.484-0.892-1.023-1.256-1.615c-0.361-0.596-0.65-1.095-0.868-1.505       c-0.729-1.367-1.339-2.774-1.833-4.222c-0.493-1.446-0.949-2.906-1.363-4.381c-0.226-0.771-0.469-1.691-0.729-2.754       c-0.258-1.065-0.479-2.187-0.66-3.37c-0.184-1.181-0.299-2.383-0.349-3.603c-0.051-1.222,0.02-2.376,0.211-3.466       c0.19-1.087,0.542-2.077,1.055-2.963c0.511-0.891,1.236-1.586,2.172-2.084c0.911-0.486,1.811-0.705,2.702-0.653       c0.889,0.049,1.765,0.277,2.629,0.68c0.862,0.402,1.686,0.943,2.477,1.615c0.79,0.675,1.532,1.387,2.226,2.14       c0.695,0.756,1.343,1.51,1.948,2.268c0.605,0.756,1.138,1.426,1.604,2.013c1.144,1.394,2.248,2.832,3.314,4.31       C191.635,157.995,192.597,159.539,193.454,161.146z M181.843,156.098c-0.152-0.287-0.422-0.751-0.81-1.392       c-0.388-0.641-0.817-1.257-1.288-1.856c-0.473-0.596-0.972-1.085-1.5-1.468c-0.528-0.383-1.005-0.457-1.437-0.226       c-0.24,0.128-0.382,0.41-0.426,0.849c-0.044,0.439-0.018,0.95,0.075,1.529c0.097,0.587,0.237,1.21,0.423,1.88       c0.189,0.67,0.381,1.308,0.579,1.91c0.196,0.604,0.392,1.139,0.579,1.61c0.188,0.469,0.322,0.805,0.4,1.011       c1.376-0.886,2.696-1.824,3.961-2.805L181.843,156.098z"/>
					<path style="fill:#2E1144;" d="M221.169,148.184c0.261,0.665,0.485,1.33,0.671,2c0.189,0.67,0.312,1.291,0.368,1.86       c0.056,0.572,0.01,1.073-0.144,1.51c-0.153,0.434-0.421,0.756-0.806,0.96c-0.383,0.204-0.888,0.096-1.513-0.324       c-0.625-0.425-1.335-1.048-2.129-1.873c-0.793-0.822-1.63-1.787-2.508-2.889c-0.882-1.102-1.748-2.238-2.6-3.402       c-0.85-1.163-1.656-2.317-2.414-3.449c-0.761-1.136-1.411-2.133-1.959-2.982c0.344,0.989,0.719,2.101,1.129,3.328       c0.406,1.23,0.79,2.501,1.146,3.804c0.355,1.303,0.675,2.599,0.957,3.883c0.282,1.279,0.479,2.454,0.584,3.522       c0.107,1.068,0.096,1.976-0.03,2.722c-0.128,0.744-0.42,1.24-0.874,1.483c-0.41,0.216-0.965,0.16-1.667-0.177       c-0.702-0.336-1.485-0.849-2.349-1.546c-0.864-0.697-1.757-1.505-2.68-2.43c-0.925-0.925-1.829-1.87-2.712-2.833       c-0.881-0.962-1.696-1.882-2.442-2.764c-0.746-0.881-1.36-1.627-1.838-2.238c0.27,0.506,0.56,1.07,0.874,1.686       c0.315,0.618,0.542,1.06,0.682,1.323c0.066,0.123,0.269,0.52,0.615,1.198c0.347,0.682,0.733,1.507,1.16,2.479       c0.427,0.977,0.853,2.037,1.276,3.181c0.427,1.144,0.743,2.248,0.952,3.304c0.211,1.06,0.277,2.013,0.202,2.852       c-0.075,0.844-0.401,1.446-0.976,1.814c-0.596,0.042-1.193-0.113-1.792-0.456c-0.599-0.341-1.19-0.805-1.778-1.384       c-0.587-0.579-1.151-1.237-1.692-1.966c-0.542-0.727-1.051-1.451-1.527-2.167c-0.474-0.719-0.891-1.397-1.247-2.04       c-0.357-0.641-0.646-1.166-0.862-1.573c-0.385-0.722-0.826-1.649-1.323-2.786c-0.496-1.139-0.969-2.356-1.416-3.66       c-0.448-1.303-0.836-2.634-1.163-4.001c-0.326-1.367-0.52-2.644-0.582-3.829c-0.061-1.185,0.042-2.233,0.312-3.147       c0.268-0.913,0.785-1.576,1.554-1.986c0.361-0.192,0.853-0.189,1.478,0c0.628,0.191,1.318,0.508,2.079,0.95       c0.758,0.442,1.549,0.97,2.368,1.583c0.819,0.611,1.622,1.237,2.41,1.878c0.79,0.645,1.517,1.271,2.185,1.887       c0.668,0.616,1.225,1.146,1.674,1.581c-0.114-0.675-0.233-1.477-0.353-2.398c-0.122-0.92-0.228-1.887-0.322-2.904       c-0.093-1.011-0.144-2.032-0.152-3.061c-0.007-1.028,0.048-1.981,0.165-2.859c0.118-0.879,0.304-1.645,0.561-2.288       c0.257-0.648,0.625-1.097,1.106-1.352c0.839-0.447,1.727-0.518,2.658-0.216c0.933,0.304,1.868,0.849,2.808,1.627       c0.938,0.781,1.856,1.721,2.756,2.83c0.898,1.109,1.735,2.236,2.513,3.375c0.778,1.141,1.465,2.231,2.064,3.269       c0.599,1.036,1.07,1.88,1.416,2.528c0.14,0.265,0.331,0.623,0.574,1.08c0.243,0.456,0.513,0.974,0.808,1.556       c0.294,0.582,0.591,1.212,0.888,1.885S220.896,147.497,221.169,148.184z"/>
					<path style="fill:#2E1144;" d="M238.792,136.58c0.242,0.457,0.358,0.965,0.35,1.524c-0.023,0.535-0.333,1.316-0.928,2.339       c-0.593,1.026-1.298,2.074-2.117,3.139c-0.819,1.07-1.637,2.047-2.461,2.931c-0.822,0.886-1.475,1.455-1.954,1.711       c-0.336,0.179-0.776,0.312-1.313,0.398c-0.539,0.088-1.101,0.133-1.684,0.135c-0.587,0.003-1.146-0.051-1.684-0.164       c-0.54-0.113-0.969-0.272-1.291-0.469c-0.184-0.118-0.454-0.408-0.805-0.864c-0.353-0.461-0.739-1.009-1.156-1.652       c-0.42-0.638-0.854-1.323-1.305-2.054c-0.45-0.731-0.877-1.428-1.278-2.091c-0.4-0.668-0.746-1.262-1.039-1.782       c-0.293-0.52-0.502-0.901-0.632-1.141c-0.471-0.889-0.987-1.927-1.539-3.11c-0.556-1.183-1.058-2.4-1.511-3.657       c-0.452-1.252-0.799-2.501-1.044-3.743c-0.244-1.237-0.29-2.378-0.135-3.414c0.053-0.309,0.27-0.712,0.643-1.222       c0.378-0.508,0.849-1.053,1.419-1.635c0.569-0.582,1.199-1.176,1.887-1.792c0.691-0.614,1.367-1.183,2.027-1.703       c0.663-0.523,1.271-0.987,1.826-1.389c0.557-0.402,0.989-0.687,1.301-0.854c0.361-0.192,0.744-0.3,1.151-0.314       c0.409-0.015,0.795,0.047,1.163,0.189c0.369,0.145,0.707,0.344,1.011,0.594c0.304,0.255,0.552,0.562,0.744,0.92       c0.167,0.312,0.265,0.599,0.297,0.861c0.03,0.26,0.032,0.567,0.005,0.92c-0.074,0.442-0.38,1.08-0.918,1.922       c-0.538,0.842-1.144,1.713-1.821,2.612c-0.678,0.898-1.338,1.738-1.988,2.516c-0.649,0.776-1.102,1.328-1.362,1.649       c0.199,0.604,0.393,1.217,0.587,1.836c0.191,0.623,0.417,1.235,0.676,1.838c0.539-0.783,1.187-1.59,1.944-2.425       c0.757-0.835,1.555-1.475,2.397-1.922c1.703-0.908,3.003-0.523,3.899,1.158c0.216,0.408,0.33,0.81,0.342,1.203       c0.009,0.398-0.048,0.783-0.172,1.156c-0.125,0.373-0.299,0.739-0.528,1.09c-0.228,0.354-0.454,0.695-0.677,1.031       c-0.55,0.817-1.166,1.6-1.846,2.349c-0.68,0.746-1.365,1.485-2.051,2.224c0.053,0.216,0.119,0.452,0.191,0.707       c0.072,0.25,0.168,0.486,0.284,0.702c0.179,0.336,0.38,0.66,0.609,0.972c0.226,0.309,0.454,0.618,0.68,0.93       c0.238-0.25,0.616-0.65,1.136-1.205c0.52-0.557,1.073-1.127,1.654-1.713c0.58-0.589,1.154-1.132,1.719-1.635       c0.564-0.501,1.003-0.835,1.314-0.999c0.361-0.191,0.739-0.295,1.134-0.304c0.395-0.01,0.768,0.054,1.118,0.191       c0.35,0.135,0.681,0.336,0.99,0.604C238.366,135.942,238.613,136.244,238.792,136.58z"/>
					<path style="fill:#2E1144;" d="M187.145,205.33c0.361,1.193,0.616,2.499,0.768,3.91c0.152,1.416,0.115,2.796-0.103,4.146       c-0.223,1.35-0.673,2.602-1.355,3.75c-0.682,1.146-1.671,2.067-2.967,2.759c-0.961,0.51-1.927,0.781-2.899,0.805       c-0.974,0.024-1.944-0.12-2.913-0.437c-0.969-0.314-1.906-0.773-2.81-1.37c-0.902-0.596-1.744-1.264-2.523-2.008       c-0.781-0.736-1.479-1.512-2.095-2.324c-0.617-0.812-1.13-1.6-1.54-2.371c-0.574-1.077-1.09-2.29-1.545-3.638       c-0.454-1.342-0.799-2.729-1.038-4.16c-0.237-1.428-0.341-2.867-0.313-4.317c0.031-1.446,0.243-2.825,0.643-4.131       c0.398-1.306,0.994-2.504,1.787-3.588c0.792-1.085,1.851-1.981,3.171-2.683c0.839-0.447,1.706-0.699,2.599-0.758       c0.891-0.064,1.745,0.039,2.561,0.299c0.816,0.255,1.572,0.68,2.268,1.262c0.698,0.587,1.263,1.286,1.698,2.101l0.172,0.324       c0.231,0.432,0.497,0.977,0.8,1.632c0.301,0.655,0.512,1.323,0.626,1.998c0.114,0.68,0.092,1.333-0.069,1.956       c-0.161,0.626-0.588,1.122-1.285,1.492c-0.84,0.449-1.578,0.596-2.214,0.442c-0.636-0.155-1.192-0.675-1.664-1.563       c-0.179-0.336-0.346-0.677-0.502-1.023c-0.156-0.354-0.323-0.695-0.502-1.031c-0.268-0.503-0.56-0.849-0.875-1.036       c-0.314-0.184-0.735-0.14-1.264,0.142c-0.6,0.319-1.038,0.8-1.313,1.438c-0.276,0.641-0.428,1.37-0.455,2.184       c-0.027,0.815,0.038,1.691,0.195,2.621c0.158,0.935,0.368,1.851,0.63,2.742c0.259,0.891,0.55,1.73,0.876,2.513       c0.324,0.783,0.626,1.436,0.908,1.966c0.228,0.432,0.518,0.915,0.866,1.455c0.348,0.538,0.739,1.023,1.169,1.455       c0.432,0.437,0.9,0.749,1.403,0.943c0.503,0.191,1.006,0.155,1.512-0.115c0.864-0.459,1.417-1.097,1.657-1.922       c0.241-0.82,0.233-1.699-0.022-2.641c-0.362,0.13-0.734,0.223-1.114,0.292c-0.383,0.064-0.766,0.069-1.15,0.012       c-0.385-0.056-0.742-0.194-1.069-0.402c-0.329-0.211-0.6-0.52-0.818-0.93c-0.396-0.744-0.454-1.46-0.174-2.148       c0.281-0.687,0.704-1.323,1.274-1.905c0.568-0.579,1.198-1.092,1.886-1.534c0.687-0.444,1.248-0.781,1.679-1.011       c0.313-0.164,0.783-0.385,1.408-0.658c0.627-0.27,1.275-0.484,1.945-0.645c0.673-0.152,1.298-0.204,1.885-0.147       c0.587,0.059,1,0.317,1.243,0.773c0.486,0.911,0.658,1.829,0.519,2.751C188.561,203.921,188.041,204.697,187.145,205.33z"/>
					<path style="fill:#2E1144;" d="M196.066,180.462c0.243,0.456,0.356,0.915,0.344,1.387c-0.012,0.469-0.118,0.918-0.32,1.348       c-0.202,0.432-0.463,0.842-0.779,1.225c-0.32,0.388-0.653,0.717-0.997,0.994c1.397,2.739,2.688,5.41,3.874,8.011       c1.187,2.602,2.328,5.341,3.425,8.208l0.216-0.115c0.383-0.204,0.783-0.366,1.2-0.476c0.416-0.115,0.83-0.152,1.237-0.108       c0.409,0.044,0.784,0.172,1.124,0.371c0.34,0.206,0.626,0.525,0.855,0.957c0.293,0.552,0.376,1.127,0.244,1.718       c-0.13,0.596-0.402,1.186-0.812,1.772c-0.41,0.591-0.911,1.163-1.507,1.725c-0.594,0.567-1.21,1.087-1.848,1.566       c-0.638,0.479-1.257,0.908-1.854,1.289c-0.6,0.378-1.091,0.67-1.474,0.876c-0.288,0.152-0.648,0.331-1.08,0.53       c-0.435,0.199-0.869,0.336-1.306,0.417c-0.437,0.076-0.849,0.066-1.242-0.032c-0.39-0.101-0.695-0.351-0.913-0.761       c-0.269-0.506-0.405-1.009-0.412-1.512c-0.007-0.508,0.074-1.001,0.243-1.495c0.171-0.491,0.414-0.945,0.731-1.36       c0.319-0.415,0.668-0.788,1.048-1.114c-0.534-1.409-1.079-2.805-1.632-4.19c-0.552-1.384-1.163-2.764-1.831-4.136       c-0.68-1.392-1.351-2.766-2.013-4.124c-0.663-1.357-1.328-2.724-1.995-4.094c-0.157,0.113-0.301,0.216-0.439,0.302       c-0.137,0.093-0.265,0.167-0.385,0.231c-0.336,0.179-0.717,0.334-1.139,0.469c-0.422,0.13-0.85,0.196-1.281,0.196       c-0.433,0-0.832-0.071-1.2-0.214c-0.369-0.145-0.663-0.42-0.879-0.827c-0.434-0.815-0.452-1.672-0.049-2.562       c0.404-0.893,1.001-1.735,1.797-2.531c0.794-0.793,1.654-1.502,2.581-2.138c0.927-0.633,1.69-1.109,2.291-1.428       c0.335-0.179,0.793-0.388,1.371-0.636c0.577-0.245,1.181-0.427,1.81-0.55c0.63-0.118,1.219-0.14,1.77-0.061       C195.388,179.666,195.796,179.958,196.066,180.462z"/>
					<path style="fill:#2E1144;" d="M217.074,176.343c0.881,1.654,1.291,3.346,1.225,5.076c-0.064,1.73-0.464,3.436-1.198,5.122       c0.69,0.373,1.443,0.835,2.26,1.382c0.817,0.552,1.615,1.168,2.393,1.846c0.778,0.682,1.496,1.394,2.152,2.135       c0.66,0.746,1.181,1.478,1.564,2.197c0.41,0.768,0.59,1.556,0.545,2.368c-0.047,0.81-0.513,1.453-1.4,1.924       c-0.745,0.398-1.579,0.378-2.504-0.054c-0.923-0.432-1.859-1.033-2.81-1.807c-0.951-0.773-1.874-1.583-2.773-2.43       c-0.897-0.847-1.669-1.497-2.313-1.956c-0.353,0.376-0.688,0.761-1.001,1.156c-0.312,0.4-0.638,0.795-0.982,1.195       c0.258,0.54,0.601,1.289,1.035,2.243c0.432,0.957,0.789,1.946,1.071,2.967c0.282,1.019,0.398,1.976,0.347,2.864       c-0.05,0.888-0.436,1.524-1.155,1.91c-0.793,0.42-1.577,0.422-2.354,0.005c-0.778-0.417-1.492-1.021-2.145-1.814       c-0.654-0.79-1.24-1.645-1.755-2.555c-0.518-0.913-0.915-1.63-1.197-2.16c-0.601-1.129-1.167-2.253-1.702-3.367       c-0.533-1.117-1.102-2.243-1.701-3.372c-0.55-1.031-1.119-2.054-1.705-3.066c-0.585-1.011-1.16-2.044-1.723-3.102       c-0.128-0.24-0.291-0.547-0.489-0.918c-0.199-0.373-0.385-0.766-0.561-1.183c-0.174-0.415-0.334-0.815-0.476-1.2       c-0.146-0.388-0.215-0.717-0.21-0.999c-0.028-0.631,0.261-1.399,0.871-2.312c0.61-0.908,1.331-1.811,2.166-2.702       c0.835-0.889,1.684-1.699,2.548-2.42c0.864-0.722,1.535-1.21,2.015-1.465c1.225-0.653,2.425-1.001,3.605-1.046       c1.178-0.042,2.288,0.162,3.327,0.609c1.04,0.449,1.987,1.1,2.844,1.954C215.744,174.222,216.472,175.214,217.074,176.343z        M210.68,180.393c-0.331-0.623-0.728-1.021-1.188-1.193c-0.461-0.169-1.016-0.083-1.664,0.263       c-0.481,0.258-0.92,0.599-1.323,1.031c-0.405,0.429-0.751,0.861-1.043,1.296c1.105,1.843,2.145,3.709,3.117,5.591       c0.417-0.432,0.817-0.925,1.204-1.47c0.388-0.545,0.701-1.129,0.94-1.75c0.24-0.621,0.377-1.247,0.409-1.878       C211.164,181.647,211.013,181.019,210.68,180.393z"/>
					<path style="fill:#2E1144;" d="M242.949,180.491c0.322,0.599,0.376,1.296,0.166,2.086c-0.212,0.788-0.593,1.608-1.143,2.454       c-0.55,0.849-1.219,1.691-2.005,2.526c-0.788,0.837-1.589,1.618-2.404,2.342c-0.814,0.729-1.604,1.374-2.367,1.934       c-0.766,0.56-1.387,0.97-1.868,1.225c-0.455,0.243-0.965,0.461-1.524,0.65c-0.562,0.191-1.086,0.233-1.577,0.12       c-0.269-0.039-0.61-0.275-1.02-0.699c-0.414-0.43-0.871-0.955-1.375-1.578c-0.503-0.631-1.016-1.318-1.539-2.069       c-0.525-0.753-1.022-1.497-1.492-2.236c-0.469-0.734-0.894-1.419-1.274-2.045c-0.383-0.631-0.669-1.124-0.86-1.485       c-0.319-0.599-0.688-1.338-1.106-2.206c-0.417-0.871-0.849-1.814-1.297-2.823c-0.445-1.011-0.877-2.054-1.294-3.124       c-0.418-1.073-0.789-2.101-1.112-3.083c-0.323-0.982-0.563-1.895-0.718-2.739c-0.155-0.839-0.209-1.534-0.163-2.086       c0.112-0.889,0.514-1.522,1.211-1.892c0.479-0.255,0.972-0.312,1.482-0.164c0.508,0.142,1.001,0.422,1.482,0.83       c0.476,0.407,0.94,0.898,1.387,1.478c0.447,0.579,0.861,1.168,1.242,1.765c0.38,0.601,0.712,1.163,0.993,1.694       c0.282,0.528,0.506,0.947,0.67,1.257c0.999,1.875,1.945,3.75,2.837,5.631c0.895,1.88,1.84,3.758,2.837,5.628l0.747,1.404       c0.901-0.908,1.91-1.851,3.021-2.832c1.113-0.977,2.245-1.775,3.397-2.388c0.407-0.216,0.835-0.412,1.28-0.587       c0.447-0.174,0.872-0.272,1.28-0.29c0.407-0.017,0.793,0.071,1.157,0.265C242.364,179.639,242.681,179.988,242.949,180.491z"/>
				</g>
				<g>
					<path style="fill:#FFAFA0;" d="M259.63,150.983c1.973,3.148,1.398,7.062-1.283,8.742c-2.682,1.681-6.454,0.491-8.427-2.657       c-1.973-3.148-1.398-7.062,1.283-8.742C253.885,146.646,257.658,147.835,259.63,150.983z"/>
					<path style="fill:#FFAFA0;" d="M277.34,156.932c1.972,3.148,1.398,7.062-1.284,8.742c-2.682,1.68-6.454,0.491-8.427-2.657       c-1.973-3.148-1.398-7.062,1.284-8.742C271.594,152.594,275.367,153.784,277.34,156.932z"/>
					<path style="fill:#FFAFA0;" d="M274.458,175.021c1.973,3.148,1.398,7.062-1.284,8.742c-2.682,1.68-6.454,0.491-8.427-2.657       c-1.973-3.148-1.398-7.062,1.284-8.742C268.712,170.683,272.485,171.873,274.458,175.021z"/>
					<path style="fill:#FFAFA0;" d="M256.898,168.792c1.973,3.148,1.398,7.062-1.283,8.742c-2.682,1.68-6.454,0.491-8.427-2.657       c-1.973-3.148-1.398-7.062,1.284-8.742C251.153,164.454,254.926,165.644,256.898,168.792z"/>
					<path style="fill:#FFAFA0;" d="M113.57,175.021c1.973,3.148,1.398,7.062-1.284,8.742c-2.682,1.68-6.454,0.491-8.427-2.657       c-1.973-3.148-1.398-7.062,1.284-8.742C107.825,170.683,111.598,171.873,113.57,175.021z"/>
					<path style="fill:#FFAFA0;" d="M109.77,192.833c1.972,3.148,1.398,7.062-1.284,8.742c-2.682,1.68-6.454,0.491-8.427-2.657       c-1.973-3.148-1.398-7.062,1.284-8.742C104.025,188.495,107.797,189.685,109.77,192.833z"/>
					<path style="fill:#FFAFA0;" d="M128.143,199.295c1.973,3.148,1.398,7.062-1.284,8.742c-2.682,1.68-6.454,0.491-8.427-2.657       c-1.972-3.148-1.398-7.062,1.284-8.742C122.397,194.957,126.17,196.147,128.143,199.295z"/>
				</g>
			</g>
		</g>
		<g>
			<path style="fill:#FF93E2;" d="M151.123,475.921c0,0,3.942-29.335-19.805-64.195c-23.778-34.891-78.474-97.503-78.474-103.028     c0-5.556,7.916-40.448,7.916-40.448L16.369,221.5l2.39-49.915l19.743-11.827c2.266,3.383,6.829,4.625,10.989,4.625     c1.583-0.031,3.166-0.186,4.718-0.559c4.222-1.055,7.978-3.911,10.089-7.698c2.049-3.694,2.576-8.226,1.366-12.262     c0.9-0.062,1.801,0.28,2.452,0.993c3.415,3.756,10.182,12.852,5.339,21.947c-6.364,11.889-21.419,20.612-21.419,20.612     l-0.776,17.446l88.749,58.638L113.47,162.059c-0.466-1.8-1.275-5.251,0.557-5.53c8.133-1.242,29.459-0.838,45.818,32.47     c20.612,42,23.778,65.002,40.416,94.337c16.639,29.304,36.444,55.472,37.25,82.417c0.776,26.944-6.333,45.973-6.333,45.973     l11.082,30.887C242.262,442.613,200.262,475.114,151.123,475.921z"/>
			<g>
				<path style="fill:#FFE7DE;" d="M120.223,159.794c3.989,0.387,7.342,3.282,9.56,6.62c2.72,4.092,4.118,8.918,5.078,13.737      c0.82,4.115,1.329,8.49-0.137,12.421c-1.465,3.932-5.469,7.202-9.608,6.518c-0.689-0.114-1.381-0.342-1.91-0.798      c-0.75-0.647-1.072-1.648-1.356-2.597c-2.221-7.417-4.217-14.903-5.982-22.442C114.75,168.486,111.352,158.933,120.223,159.794z      "/>
				
					<path style="fill:none;stroke:#2E1144;stroke-width:2.3921;stroke-linecap:round;stroke-linejoin:round;stroke-miterlimit:10;" d="      M81.372,287.681L59.18,267.074l-38.296-40.778c-2.878-3.064-4.389-7.165-4.19-11.364l1.658-34.815      c0.253-5.32,3.217-10.139,7.851-12.765l38.079-21.578c1.233-0.699,2.792-0.487,3.764,0.544      c3.915,4.157,12.369,15.277,2.626,25.649c-12.285,13.077-18.625,15.455-18.625,15.455l-0.792,17.436"/>
				
					<path style="fill:none;stroke:#2E1144;stroke-width:2.3921;stroke-linecap:round;stroke-linejoin:round;stroke-miterlimit:10;" d="      M45.706,200.895c0,0,85.596,57.064,94.315,62.612"/>
				
					<path style="fill:none;stroke:#2E1144;stroke-width:2.3921;stroke-linecap:round;stroke-linejoin:round;stroke-miterlimit:10;" d="      M142.399,281.736c0,0-1.585-16.247-6.341-34.08c-4.756-17.833-23.777-89.559-23.777-89.559s9.115-9.907,28.928,6.34      c19.814,16.248,36.458,71.727,47.554,96.296c11.096,24.57,38.043,61.027,45.572,87.182c7.529,26.155-0.396,55.876-3.17,63.801"/>
				
					<polyline style="fill:none;stroke:#2E1144;stroke-width:2.3921;stroke-linecap:round;stroke-linejoin:round;stroke-miterlimit:10;" points="      69.747,313.175 56.538,290.983 60.237,270.376     "/>
			</g>
		</g>
		<g>
			<path style="fill:#FF93E2;" d="M414.762,197.474l-73.973,44.887l-7.916-54.944c0,0-77.139-32.749-64.443-77.139l1.77,0.621     l34.581,12.075l51.343,17.942L414.762,197.474z"/>
			<path style="fill:#FFE7DE;" d="M304.78,122.973c-1.117,3.974-4.066,7.481-8.071,8.412c-2.576,0.621-5.308,0.186-7.884-0.497     c-4.905-1.304-9.685-3.632-13.286-7.264c-3.259-3.259-5.712-8.164-5.339-12.727L304.78,122.973z"/>
			
				<path style="fill:none;stroke:#2E1144;stroke-width:2.3921;stroke-linecap:round;stroke-linejoin:round;stroke-miterlimit:10;" d="     M355.598,143.038l-87.182-33.816c0,0-14.927,25.362,27.344,57.593l43.987,24.834l8.454,42.798"/>
		</g>
		<g>
			<polygon style="fill:#FFC666;" points="93.628,82.251 101.615,31.666 121.139,74.264 171.724,69.826 138.888,100.887      153.975,139.935 113.152,116.861 81.204,154.134 85.642,107.987 45.706,97.337    "/>
			<polygon style="fill:#FFC666;" points="401.142,159.922 409.13,109.337 428.653,151.935 479.238,147.498 446.402,178.558      461.489,217.606 420.666,194.532 388.719,231.805 393.156,185.658 353.22,175.008    "/>
			<polygon style="fill:#FFC666;" points="228.364,313.679 236.351,263.095 255.875,305.692 306.459,301.255 273.624,332.315      288.71,371.363 247.888,348.289 215.94,385.562 220.377,339.415 180.442,328.765    "/>
		</g>
	</g>
</g>















</svg>
