<svg id="Capa_1" enable-background="new 0 0 512.002 512.002" height="512" viewBox="0 0 512.002 512.002" width="512" xmlns="http://www.w3.org/2000/svg"><g><path d="m147.251 400.529v-363.029c0-14.793-7.024-28.678-18.333-36.235-2.522-1.687-5.813-1.687-8.335 0-11.308 7.557-18.333 21.442-18.333 36.235v363.028c-13.813 7.976-22.5 22.778-22.5 38.972 0 4.142 3.358 7.5 7.5 7.5h30v57.5c0 4.142 3.358 7.5 7.5 7.5s7.5-3.358 7.5-7.5v-57.5h30c4.142 0 7.5-3.358 7.5-7.5.001-16.193-8.685-30.995-22.499-38.971zm-51.548 31.471c2.272-8.796 8.471-16.248 17.052-19.998 2.731-1.194 4.497-3.892 4.497-6.873v-367.629c0-7.775 2.786-15.086 7.5-20.188 4.714 5.101 7.5 12.413 7.5 20.188v367.63c0 2.981 1.765 5.679 4.497 6.873 8.581 3.75 14.779 11.202 17.052 19.998h-58.098z"/><path d="m424.751 110c-4.142 0-7.5 3.358-7.5 7.5 0 34.684-26.298 63.329-60 67.073v-27.073c0-4.142-3.358-7.5-7.5-7.5-14.585 0-27.242 8.374-33.44 20.562-4.61-3.488-10.346-5.562-16.56-5.562h-80c-6.213 0-11.95 2.074-16.56 5.562-6.198-12.187-18.855-20.562-33.44-20.562-4.142 0-7.5 3.358-7.5 7.5v30c0 18.11 12.904 33.261 30 36.745v13.255c0 10.124 4.391 19.704 11.835 26.503-7.677 11.185-11.835 24.468-11.835 38.162v5.335c0 4.142 3.358 7.5 7.5 7.5h7.5v82.5c0 9.778 6.271 18.114 15 21.21v13.29h-22.5c-4.142 0-7.5 3.358-7.5 7.5v54.594l-9.872 3.291c-3.93 1.31-6.053 5.558-4.744 9.487 1.048 3.143 3.974 5.13 7.114 5.13.786 0 1.586-.125 2.373-.387l45-15c3.063-1.021 5.128-3.887 5.128-7.115v-70.79c8.729-3.096 15-11.432 15-21.21v-37.5h15v37.5c0 9.778 6.271 18.114 15 21.21v70.79c0 3.228 2.066 6.094 5.128 7.115l45 15c.787.262 1.586.387 2.373.387 3.14 0 6.066-1.988 7.114-5.13 1.31-3.929-.814-8.177-4.744-9.487l-9.872-3.291v-54.594c0-4.142-3.358-7.5-7.5-7.5h-22.5v-13.29c8.729-3.096 15-11.432 15-21.21v-82.5h7.5c4.142 0 7.5-3.358 7.5-7.5v-5.335c0-13.694-4.158-26.977-11.835-38.162 7.444-6.799 11.835-16.379 11.835-26.503v-13.255c13.028-2.655 23.613-12.09 27.917-24.443 42.973-2.802 77.083-38.634 77.083-82.303.002-4.141-3.356-7.499-7.498-7.499zm-232.5 98.715c-8.73-3.095-15-11.437-15-21.215v-21.215c8.73 3.095 15 11.437 15 21.215zm30 275.379-15 5v-42.094h15zm-15-291.594c0-6.893 5.607-12.5 12.5-12.5h32.5v87.094l-34.364-11.455c-6.572-3.892-10.636-10.783-10.636-18.14zm22.5 212.5c-4.136 0-7.5-3.364-7.5-7.5s3.364-7.5 7.5-7.5 7.5 3.364 7.5 7.5-3.364 7.5-7.5 7.5zm7.5-28.71c-2.347-.833-4.871-1.29-7.5-1.29s-5.153.458-7.5 1.29v-16.29h15zm75 70.71v42.094l-15-5v-37.094zm-22.5-42c-4.136 0-7.5-3.364-7.5-7.5s3.364-7.5 7.5-7.5 7.5 3.364 7.5 7.5-3.364 7.5-7.5 7.5zm7.5-28.71c-2.347-.833-4.871-1.29-7.5-1.29s-5.153.458-7.5 1.29v-16.29h15zm0-31.29h-75v-30h75zm-89.955-45c.428-10.382 3.932-20.369 10.034-28.735l40.05 13.35c.77.256 1.571.385 2.372.385s1.602-.128 2.372-.385l40.05-13.35c6.102 8.366 9.606 18.353 10.034 28.735zm104.955-62.5c0 7.356-4.064 14.248-10.636 18.14l-34.364 11.455v-87.095h32.5c6.893 0 12.5 5.607 12.5 12.5zm30-50c0 9.778-6.27 18.12-15 21.215v-21.215c0-9.778 6.27-18.12 15-21.215z"/><path d="m214.751 150h90c4.142 0 7.5-3.358 7.5-7.5v-38.253c17.095-3.485 30-18.637 30-36.747v-34c0-13.351-7.182-25.8-18.743-32.491-2.324-1.345-5.189-1.345-7.514 0-9.097 5.265-15.483 14.095-17.792 24.125-8.92-11.905-21.583-20.856-36.5-24.875-1.278-.345-2.624-.345-3.902 0-29.762 8.018-50.549 35.669-50.549 67.242v75c0 4.141 3.358 7.499 7.5 7.499zm97.5-116.5c0-6.449 2.792-12.548 7.5-16.779 4.708 4.231 7.5 10.33 7.5 16.779v34c0 9.778-6.27 18.12-15 21.215zm-15 101.5h-30v-60h30zm-37.5-119.691c19.845 6.191 34.188 23.79 36.991 44.691h-73.981c2.802-20.901 17.146-38.5 36.99-44.691zm-37.5 59.691h30v60h-30z"/></g></svg>