<?xml version="1.0" encoding="UTF-8"?>
<!-- Generator: Adobe Illustrator 25.4.1, SVG Export Plug-In . SVG Version: 6.00 Build 0)  -->
<svg xmlns="http://www.w3.org/2000/svg" xmlns:xlink="http://www.w3.org/1999/xlink" version="1.1" id="Capa_1" x="0px" y="0px" viewBox="0 0 512 512" style="enable-background:new 0 0 512 512;" xml:space="preserve" width="512" height="512">
<g>
	<g>
		<path d="M176.638,286.7c-24.973,1.685-37.727,6.421-48.061,17.59c-15.586-14.757-34.104-18.542-55.314-13.814    c-0.965-9.769-2.444-19.091-2.688-28.445c-0.434-16.641-1.128-33.373,0.058-49.94c4.422-61.788,22.868-118.249,66.033-164.497    c21.399-22.928,47.144-39.078,78.35-44.733c53.584-9.71,99.45,5.322,137.051,44.8c29.25,30.709,46.926,67.674,57.218,108.392    c8.553,33.839,11.578,68.231,8.913,103.071c-0.748,9.783-1.67,19.553-2.523,29.452c-20.654-0.26-40.195,1.045-55.607,16.169    c-16.372-14.014-18.648-14.884-46.532-17.65c0.364-4.82,0.819-9.66,1.078-14.511c0.773-14.444,2.291-28.91,1.969-43.333    c-0.331-14.861-2.163-29.719-3.924-44.509c-1.982-16.65-3.562-33.458-7.212-49.772c-5.71-25.521-12.632-50.857-26.356-73.562    c-5.564-9.206-12.059-17.7-22.474-22.227c-10.797-4.693-22.79-2.644-31.372,5.621c-13.42,12.924-22.224,28.757-29.123,45.83    c-6.18,15.295-11.059,30.997-13.75,47.259c-2.521,15.238-4.304,30.598-6.42,45.904c-2.807,20.304-3.19,40.737-2.488,61.155    c0.442,12.837,2.079,25.633,3.16,38.449C176.71,284.39,176.638,285.393,176.638,286.7z"/>
		<path d="M129.32,315.02c8.969-17.031,35.357-25.61,56.656-19.253c5.035,1.503,10.03,2.79,13.513,7.193    c1.912,2.418,2.091,4.542-0.742,6.119c-8.22,4.576-10.453,12.357-11.223,20.843c-0.938,10.336,0.374,20.421,3.136,30.459    c5.167,18.776,11.451,37.071,22.568,53.233c3.987,5.796,8.628,11.36,13.857,16.039c10.901,9.756,23.216,9.493,34.569,0.149    c1.339-1.102,2.705-2.17,4.357-3.493c13.335,10.38,23.04,24.141,34.445,36.82c-11.245,4.906-22.45,8.167-34.157,9.555    c-22.812,2.704-45.364,1.977-67.379-5.413c-31.934-10.72-56.569-31.197-76.797-57.521c-11.901-15.488-21.142-32.505-29.091-50.322    c-4.512-10.112-9.687-19.946-14.939-29.703c-3.848-7.148-9.298-12.909-16.987-16.189c-3.564-1.52-3.497-4.328-2.183-7.252    c2.171-4.834,6.282-7.41,11.118-9.066c20.464-7.01,43.549-0.669,57.605,15.844C128.111,313.609,128.58,314.155,129.32,315.02z"/>
		<path d="M358.184,314.876c16.399-18.671,36.132-24.387,59.487-17.629c4.904,1.419,8.954,4.191,11.137,9.018    c1.431,3.165,1.191,5.891-2.544,7.465c-6.959,2.932-12.213,8.033-15.669,14.503c-5.227,9.789-10.07,19.815-14.496,29.993    c-10.606,24.388-24.025,46.925-42.207,66.47c-1.082,1.163-2.211,2.282-3.534,3.643c-18.362-16.705-37.91-31.432-61.428-40.651    c1.654-4.765,3.288-9.338,4.832-13.942c4.726-14.089,7.623-28.473,6.463-43.422c-0.672-8.655-2.895-16.575-11.258-21.26    c-2.843-1.593-3.032-4.232-0.607-6.002c3.523-2.571,7.318-5.098,11.389-6.525c10.359-3.632,21.033-4.008,31.65-0.921    C342.545,298.856,352.392,304.038,358.184,314.876z"/>
		<path d="M399.363,512c-22.379-1.226-43.447-5.856-61.82-19.522c-14.593-10.854-25.857-24.857-37.595-38.5    c-9.534-11.081-19.482-21.873-29.999-32.013c-5.33-5.139-12.116-8.914-18.616-12.659c-8.139-4.688-17.014-5.27-26.142-3.045    c-1.467,0.358-3.172-0.265-4.768-0.435c0.479-1.548,0.575-3.387,1.497-4.598c7.545-9.908,18.381-13.511,30.095-14.069    c25.301-1.204,46.891,8.912,66.776,23.429c16.896,12.336,30.049,28.487,44.211,43.623c7.222,7.719,14.564,15.441,22.646,22.213    c14.366,12.038,30.567,20.055,50.084,18.334c3.875-0.342,7.68-1.434,11.526-2.134c2.531-0.461,5.894-1.59,6.596,1.787    c0.384,1.847-1.408,4.828-3.091,6.303c-6.592,5.777-14.972,7.596-23.289,8.766C418.169,510.791,408.738,511.2,399.363,512z"/>
	</g>
	<g>
		<g>
			<path style="fill:#FFFFFF;" d="M157.114,386.656c-11.858-8.326-21.75-18.488-29.125-31.03     c-3.666-6.234-5.999-12.834-5.834-20.153c0.103-4.555,2.882-8.534,6.862-9.513c4.313-1.061,7.806,0.641,10.086,4.24     c1.983,3.129,3.444,6.589,5.127,9.887c1.395-3.823,2.446-7.793,4.276-11.362c1.337-2.606,3.312-5.304,5.722-6.814     c2.135-1.338,5.843-2.228,7.79-1.232c1.997,1.022,3.879,4.637,3.75,7.004c-0.398,7.317-1.404,14.657-2.865,21.848     c-2.173,10.692-4.352,21.266-1.466,32.189c0.388,1.469-0.529,3.283-0.841,4.937C159.435,386.656,158.275,386.656,157.114,386.656     z"/>
			<g>
				<path style="fill:#FFFFFF;" d="M182.359,43.67c1.897,2.467-0.069,3.795-1.455,5.474c-6.712,8.135-14.056,15.87-19.822,24.638      c-10.432,15.865-15.059,33.71-15.11,52.746c-0.007,2.779,0.863,3.956,3.466,4.94c10.415,3.938,15.886,17.634,11.387,27.895      c-2.414,5.505-8.003,6.667-11.609,1.479c-3.454-4.969-5.282-11.085-7.697-16.751c-0.611-1.434-0.737-3.075-1.204-5.144      c-5.919,2.179-9.967,6.115-13.108,11.044c-4.908,7.702-7.916,16.152-8.851,25.229c-3.079,29.881,0.118,59.016,10.962,87.14      c1.606,4.165,3.978,8.032,5.936,12.066c0.43,0.885,0.603,1.894,0.895,2.846c-0.43,0.267-0.86,0.533-1.29,0.8      c-1.408-1.626-2.993-3.132-4.196-4.899c-7.355-10.806-11.403-23.056-14.873-35.469c-6.378-22.815-9.654-45.958-5.732-69.629      c1.674-10.106,5.899-19.287,12.908-26.64c4.475-4.695,10.357-8.049,16.498-12.675c-0.154-11.084,0.945-23.585,5.368-35.602      c7.159-19.455,17.766-36.399,35.074-48.513c0.312-0.218,0.478-0.645,0.712-0.975C181.198,43.67,181.779,43.67,182.359,43.67z       M146.908,138.603c-0.107,6.369,2.451,16.021,5.235,19.149c0.877,0.986,2.247,1.832,3.508,2.042      c0.559,0.093,1.704-1.442,2.078-2.43C160.632,149.685,155.369,140.433,146.908,138.603z"/>
				<g>
					<path style="fill:#FFFFFF;" d="M143.68,213.598c-4.599-0.031-7.95-3.438-7.848-7.978c0.105-4.654,4.054-8.711,8.506-8.738       c4.397-0.027,8.156,3.875,8.135,8.443C152.451,209.953,148.543,213.63,143.68,213.598z"/>
					<path style="fill:#FFFFFF;" d="M128.676,114.314c0.022,3.676-2.65,6.426-6.223,6.406c-3.57-0.02-6.341-2.799-6.342-6.359       c0-3.474,2.864-6.39,6.312-6.423C125.98,107.903,128.654,110.63,128.676,114.314z"/>
				</g>
			</g>
		</g>
		<g>
			<path style="fill:#FFFFFF;" d="M336.441,386.656c-0.313-1.654-1.23-3.468-0.841-4.938c2.886-10.923,0.722-21.499-1.47-32.188     c-1.445-7.049-2.249-14.245-3.016-21.41c-0.355-3.312,0.683-7.01,4.181-7.716c2.554-0.515,6.048,0.417,8.245,1.958     c5.988,4.2,7.116,11.217,9.125,18.269c1.373-2.959,2.478-5.677,3.86-8.246c2.896-5.38,7.191-7.716,11.505-6.462     c4.452,1.295,7.673,5.521,6.673,11.253c-1.096,6.286-2.867,12.753-5.834,18.353c-6.806,12.846-17.087,22.8-28.945,31.126     C338.763,386.656,337.602,386.656,336.441,386.656z"/>
			<g>
				<path style="fill:#FFFFFF;" d="M316.419,43.67c9.277,7.032,17.134,15.279,23.638,25.052      c11.517,17.304,17.452,36.127,17.454,56.868c0,1.584,0,3.168,0,4.506c19.766,8.094,28.084,24.056,30.217,43.576      c3.371,30.848-3.217,60.237-15.234,88.528c-1.905,4.484-4.806,8.561-7.414,12.721c-0.751,1.198-2.086,2.031-3.153,3.031      c-0.366-0.247-0.731-0.493-1.096-0.74c0.451-1.184,0.759-2.45,1.375-3.541c10.492-18.566,14.532-38.938,16.668-59.814      c1.586-15.504,1.781-31.024-1.656-46.321c-1.959-8.716-5.511-16.857-12.108-23.199c-2.231-2.145-5.022-3.707-8.067-5.904      c-1.236,4.536-1.829,8.42-3.361,11.889c-1.781,4.032-3.832,8.209-6.768,11.402c-3.772,4.102-8.469,2.727-10.7-2.362      c-4.499-10.26,0.972-23.957,11.387-27.895c2.603-0.984,3.478-2.16,3.462-4.94c-0.151-27.244-10.128-50.523-28.196-70.574      c-2.425-2.692-5.26-5.032-7.52-7.845c-0.81-1.008-0.478-2.932-0.668-4.439C315.259,43.67,315.839,43.67,316.419,43.67z       M351.329,139.245c-9.28,1.227-13.687,8.113-12.23,16.492c0.261,1.503,1.568,2.825,2.392,4.23      c1.241-0.869,3.157-1.479,3.608-2.652C347.385,151.373,349.291,145.284,351.329,139.245z"/>
				<g>
					<path style="fill:#FFFFFF;" d="M353.065,213.588c-4.863-0.109-8.657-3.93-8.494-8.556c0.162-4.602,4.029-8.342,8.421-8.146       c4.447,0.199,8.28,4.404,8.226,9.025C361.165,210.429,357.7,213.692,353.065,213.588z"/>
					<path style="fill:#FFFFFF;" d="M374.513,107.935c3.447-0.017,6.359,2.857,6.412,6.325c0.053,3.565-2.666,6.378-6.24,6.454       c-3.575,0.076-6.298-2.636-6.326-6.3C368.331,110.74,370.979,107.952,374.513,107.935z"/>
				</g>
			</g>
		</g>
	</g>
</g>















</svg>
