<svg id="Layer_1" enable-background="new 0 0 512 512" viewBox="0 0 512 512" xmlns="http://www.w3.org/2000/svg"><g fill="#fab03c"><path d="m329.2 319.2c-4.5-1.2-6.2-4.3-6.1-8.8.1-6.1 0-12.2.1-18.3.1-4.5 2.7-7.2 6.5-7.2 3.9 0 6.4 2.6 6.5 7.1.1 6.2 0 12.4.1 18.6.1 4.4-1.7 7.3-5.9 8.6-.4 0-.8 0-1.2 0z"/><path d="m330 278.6c-42.6 1.3-67.1-36.9-66.7-66.4.3-28.6 23.3-65.5 65-65.4 38.9.1 68 28.9 67.9 66.6-.1 28.9-24.4 66.3-66.2 65.2z"/><path d="m290.8 153c-1.8-.1-3.6-1-4.8-2.9-6.1-10.1-12.2-20.3-18.3-30.5-2.1-3.5-.9-7 2.5-9.1 3.9-2.3 7.6-1.7 9.7 2 5.9 10.3 11.6 20.6 17.3 31.1 2.4 4.4-1 9.5-6.4 9.4z"/><path d="m274.6 316.4c-6.2-.1-9.6-5.8-6.7-10.7 5.9-10 11.8-19.9 17.8-29.7 2-3.4 5.7-4.3 8.9-2.5s4.3 5.5 2.4 8.9c-5.6 10.1-11.2 20.2-16.8 30.3-1.3 2.3-3.2 3.7-5.6 3.7z"/><path d="m384.9 109.2c5.9-.1 9.5 5.7 6.5 10.7-5.9 10.1-11.9 20-18 30-1.9 3.2-5.6 4-8.7 2.2-3-1.7-4.3-5.3-2.6-8.4 5.8-10.6 11.6-21.1 17.6-31.6 1.1-1.9 3-2.8 5.2-2.9z"/><path d="m235.4 219.9c-5.7 0-11.5.1-17.2 0-4.3-.1-6.8-2.7-6.8-7.1 0-4.2 2.5-7 6.7-7 11.8.1 23.7.3 35.5.6 3.6.1 6 2.9 6 6.4 0 3.6-2.5 6.5-6.2 6.5-6 .1-12 0-18.1 0 .1.2.1.4.1.6z"/><path d="m368 272.5c2.4 0 4.3 1.1 5.5 3.1l18 30c2.3 4 1.3 7.4-2.8 9.6-3.8 2.1-7.3 1.3-9.5-2.6-5.7-10.2-11.4-20.3-17-30.6-2.3-4.3.9-9.5 5.8-9.5z"/><path d="m423.7 219.3c-5.7 0-11.5.1-17.2 0-4.1-.1-6.8-2.7-6.8-6.6 0-3.7 2.6-6.4 6.6-6.4 11.3-.2 22.5-.4 33.8-.6 5.2-.1 7.8 2.3 7.8 7 0 4.8-2.5 7.1-7.9 7.2-5.4 0-10.9 0-16.3 0 0-.2 0-.4 0-.6z"/><path d="m391.3 173c.1-1.8.9-3.7 2.7-4.8 6.2-3.8 12.3-7.7 18.9-10.8 3.6-1.7 7-.7 8.7 2.3 1.8 3 1 6.5-2.3 8.7-6 4.1-12.4 7.6-18.9 10.9-4.3 2.3-9.2-1.1-9.1-6.3z"/><path d="m268.2 252.3c0 2.1-1.1 4-3.1 5.2-6 3.7-12.1 7.4-18.4 10.6-3.5 1.7-6.8.9-8.6-1.8-1.9-2.8-1.5-6.7 1.4-8.7 6.3-4.4 13-8.1 19.8-11.5 4.2-2 8.9 1.3 8.9 6.2z"/><path d="m398.4 245.6c.4.1 1.3.2 2 .6 6.5 3.5 13 6.9 19.1 11.1 3.5 2.5 4 6.8 1.3 9.7-2.1 2.2-4.6 2.8-7.3 1.5-6.8-3.2-13.3-7.2-19.6-11.3-2.5-1.6-3.2-4.7-2.1-7.4.9-2.7 3.4-4.3 6.6-4.2z"/><path d="m336.2 124c0 3.4.1 6.9 0 10.3-.2 3.8-2.8 6.3-6.4 6.4-3.6 0-6.3-2.4-6.5-6.3-.3-7-.5-14 0-20.9.3-4.4 2.9-6.9 6.5-6.9 3.6.1 6.1 2.7 6.4 7.1.1 3.5 0 6.9 0 10.3z"/><path d="m268.2 173.1c.1 4.9-4.6 8.4-8.7 6.4-7-3.3-13.8-7.1-20.1-11.6-2.7-1.9-3.2-5.4-1.6-8.2s4.9-4 7.9-2.6c7 3.2 13.4 7.3 19.9 11.4 1.8 1 2.5 2.9 2.6 4.6z"/></g><path d="m322.6 228.9v4.9c0 1.5.6 1.6 1.8.9 11.6-7 27.6-3.1 36.4 3.3 2.3 1.7 3.3 4.4 5 6.6 3.5 4.8 7.1 9.5 9.3 15.2 1.8 4.7 2.6 9.4 2.1 14.3-.3 3-.6 5.9-.4 8.9.1 1.6.7 2.1 2.3 2 5.8-.3 11.6-1 17.5-.1 10.8 1.8 15.6 9.5 19.1 18.5 1.1 3 1.9 6.3 1.5 9.6-1.3 9.8-7.2 15.9-16.2 18.8-4.9 1.5-10.1 2.9-15.5 2.2-.8-.1-1.7 0-2.6 0-76.5 0-153 0-229.5 0-3.1 0-6 .2-9 1.4-3.2 1.2-6.8.8-10 0-6.8-1.7-14.1-1.9-20.4-5.5-.6-.3-1.3-.4-1.8-.8-5-4.2-10.2-8-14.8-12.6-.9-.9-1.5-2.2-2-3.5-1.5-4.3-3-8.4-6.4-11.7-1.9-1.8-2-4.5-2.3-7-1-6.5-3.3-12.8-3.2-19.5.1-11.2 3.3-21.6 8.9-31.2 4.2-7.1 9.5-13.4 14.9-19.7 5.6-6.7 13.3-8.9 21.6-9.8 4.4-.5 8.6.5 12.7 1.7 1.4.4 2.4.3 2.5-1.6.9-11.9 6.4-21.8 14.3-30.4 9.5-10.4 20.6-19 32.7-26.4 10.9-6.7 22.8-10.1 35.1-11.7 12.9-1.6 26.1-1.4 38.1 4.2 9.6 4.5 18.9 9.7 27.3 16.4 13.6 10.9 23.7 24.2 28.4 41.2 1.9 7 2.4 14.2 2.6 21.4z" fill="#aed6f2"/><g fill="#3981bf"><path d="m128.4 309.1c-19.9 0-37.6 0-55.4 0-2.3 0-4.4-.4-6.1-1.9-2.2-2-2.9-5.1-1.8-7.9s3.6-4.4 7.1-4.4h42.3 13.5c12.9-.1 25.8-.2 38.7.8 10.8.9 21.4-.6 31.7-4.2 14.7-5.1 16.9-21.2 8.3-31.6-3.4-4.1-7.6-7-12.7-8.6-6.3-2-14 .4-18.3 5.5-3 3.6-3.2 7.4-.4 11.4s6.7 5.8 11.5 6.3c4.1.4 6.6 2.4 7.2 5.8.8 4.3-2.1 8.4-6.5 8.4-17.8 0-29.8-14.9-28.3-28.3 1.1-9.3 6.6-15.6 14.4-19.9 16.9-9.3 38.9-1.6 48.3 16.8 7.3 14.4 4.5 31-7 41-6.5 5.6-14.5 8.1-22.7 9.8-11.1 2.3-22.3 2.4-33.5 1.6-10.8-.9-21.6-.3-30.3-.6z"/><path d="m110.4 345c16.5-.5 33-.4 49.4 2.3 9.1 1.5 17.1 5.6 23.5 12.4 9.8 10.5 10.2 23.8 1 34.9-11.9 14.3-35.4 14.3-46.1-.1-5.6-7.5-4.8-17.2 1.7-23.2 6.7-6.1 17.2-6.3 24-.4 2.6 2.2 3.2 6.1 1.6 8.9-1.9 3.2-5.2 4.4-8.6 3.2-.9-.3-1.7-.9-2.5-1.4-1.6-.9-3.3-1.3-4.7.3-1.5 1.8-.6 3.4.7 4.9 1.7 1.9 3.9 3.1 6.3 3.8 6.5 1.9 13.6-.7 17.6-6.2 3.4-4.8 3.3-9.2-.4-13.7-4.7-5.8-11-8.5-18.2-9.5-17.3-2.4-34.6-2.5-52-2.2-9.8.2-19.6.3-29.4.4-3.1 0-5.4-1.3-6.7-4.1-1.3-2.7-.8-5.2 1-7.6 1.4-1.8 3.3-2.6 5.5-2.6 12.1-.1 24.2-.1 36.3-.1z"/><path d="m127.6 320.1h55.6c6 0 9.6 5.4 7.1 10.3-1.5 3-4.2 3.9-7.4 3.9-14.5 0-29 0-43.5 0-22.4 0-44.9 0-67.3 0-4.3 0-7.1-2.1-7.8-5.7-.7-3.4 1.2-6.9 4.5-8.1 1.3-.5 2.6-.4 4-.4z"/><path d="m100.6 283.1c-9.3 0-18.6.1-27.9 0-5.7-.1-9.1-5.3-6.8-10.1 1.3-2.7 3.5-4.1 6.4-4.1h56.9c4.1 0 7.1 3.2 7 7.2s-3.1 7-7.3 7c-9.3.1-18.8 0-28.3 0z"/></g><path d="m360 164.6c-9.6-6-20-9.1-33-8.9-6.6.2-14.7 1.2-22.5 3.9-1.8.6-2.9 1.8-2.1 3.7.7 1.8 2.2 1.9 3.9 1.3 4.6-1.7 9.4-2.6 14.3-3.1 14.6-1.8 28 1.1 40 10.1 4.1 3.1 7.1 7 9.9 11.1 1 1.5 2.3 2.2 3.9 1.1 1.7-1.1 1.4-2.6.4-4.2-3.7-6.2-8.7-11.1-14.8-15z"/><path d="m219.5 169.9c1.6-.4 3.2-.4 4.8-.7 1.5-.3 2.4-1.3 2.2-2.9-.2-1.5-1.2-2.4-2.8-2.3-1.3.1-2.7.2-4 .5-16.8 3.7-31.1 11.7-43 24.1-3.1 3.3-5.7 7-7.7 11.1-1.4 2.8-2.5 5.6-3.2 8.7-.1 1.5.5 2.6 2.1 3 1.9.4 2.8-.7 3.3-2.4 1.7-6 4.7-11.4 8.9-16 10.7-11.9 24.1-19.2 39.4-23.1z"/><path d="m360.6 268.9c1.8-1.1 1.5-2.6.6-4.2-9.8-17.5-35.6-22.4-50.8-9.5-1.2 1-1.7 2.2-.8 3.5.9 1.5 2.2 1.7 3.7.9.8-.4 1.5-.9 2.2-1.3 5.3-3 11-5 18.3-5.1 3.2-.1 7.2 1 11 3.1 4.8 2.7 9 6.2 11.8 11.1.9 1.6 2.2 2.6 4 1.5z"/><path d="m279.7 177c1.1-2-.2-3.2-1.8-4.1-10.2-5.9-21.1-9.3-32.4-9.9-1.4 0-2.3 0-3.2 0-1.9 0-3.3.7-3.3 2.8 0 1.9 1.4 2.6 3.1 2.6 11.9 0 22.8 3.4 33 9.3 1.9.8 3.5 1.2 4.6-.7z"/><path d="m289.7 182.2c-1.3-1-2.7-1.1-3.8.2s-.8 2.6.3 3.8c1.3 1.4 2.6 2.7 3.9 4.2.6.7 1.3 1.1 2.4 1.2.8-.1 1.6-.5 2.1-1.4.5-1 .4-2-.3-3-1.3-1.9-2.8-3.6-4.6-5z"/><path d="m380.8 201.6c1.4-.4 2-1.4 2-3.1-.5-1.8-1-4-1.8-6-.5-1.4-1.7-2.1-3.3-1.6-1.4.4-2 1.5-1.8 2.9.5 2.1 1 4.3 1.7 6.4.6 1.3 1.8 1.8 3.2 1.4z"/><path d="m360.8 274.9c-1.2.5-1.8 1.6-1.5 2.8.6 2 1.3 4 2.1 5.9.5 1.1 1.7 1.6 2.9 1.2s1.9-1.2 1.9-2.8c-.5-2.1-1.1-4.4-2.4-6.4-.6-1-1.9-1.2-3-.7z"/><path d="m381.5 206.9c-1.8 0-2.7 1.2-2.7 3 .1 1.8 1 2.9 2.8 2.8 1.7-.1 2.5-1.2 2.5-2.8 0-1.8-.8-3-2.6-3z"/></svg>