<?xml version="1.0" encoding="iso-8859-1"?>
<!-- Generator: Adobe Illustrator 26.5.1, SVG Export Plug-In . SVG Version: 6.00 Build 0)  -->
<svg xmlns="http://www.w3.org/2000/svg" xmlns:xlink="http://www.w3.org/1999/xlink" version="1.1" id="Capa_1" x="0px" y="0px" viewBox="0 0 512 512" style="enable-background:new 0 0 512 512;" xml:space="preserve">
<g>
	<path style="fill:#FFFFFF;" d="M255.665,511.232c-63.255-0.007-127.458-26.567-176.147-72.872   c-24.09-22.911-43.217-49.297-56.849-78.424C8.36,329.364,0.862,297.279,0.383,264.572C-3.26,193.52,19.162,130.321,65.233,81.797   c24.495-25.798,54.297-46.042,88.577-60.168C186.927,7.982,223.43,0.769,259.373,0.769c72.47,0,138.959,28.133,187.235,79.211   c32.792,32.556,55.759,84.07,63.022,141.362c3.612,28.495,3.095,56.372-1.539,82.86c-4.956,28.33-14.407,53.574-28.095,75.036   c-12.789,22.274-28.888,42.582-47.849,60.358c-36.066,33.902-80.219,56.849-127.688,66.358   c-15.937,3.502-32.345,5.278-48.771,5.278C255.68,511.232,255.673,511.232,255.665,511.232z"/>
	<g>
		<g>
			<g>
				<g>
					<path style="fill:#6E72FF;" d="M471.764,374.246c-12.374,21.596-28.039,41.3-46.196,58.323       c-34.112,32.065-77.118,54.768-123.079,63.957C160.077,527.888,12.032,409.382,10.021,264.254       C-2.343,26,292.354-69.424,439.723,86.71C503.822,150.219,525.903,289.604,471.764,374.246z"/>
				</g>
			</g>
		</g>
		<g>
			<g>
				<g>
					
						<ellipse transform="matrix(0.2372 -0.9715 0.9715 0.2372 -223.2616 561.0223)" style="fill:#FFC063;" cx="245.603" cy="422.674" rx="73.286" ry="73.286"/>
				</g>
				<g>
					<g>
						
							<ellipse transform="matrix(0.7071 -0.7071 0.7071 0.7071 -27.4474 157.3807)" style="fill:#F8BDFF;" cx="176.252" cy="111.822" rx="73.286" ry="73.286"/>
					</g>
				</g>
				<g>
					
						<ellipse transform="matrix(0.7071 -0.7071 0.7071 0.7071 -8.8766 333.0477)" style="fill:#B5E1E8;" cx="397.586" cy="177.239" rx="73.286" ry="73.286"/>
				</g>
				<g>
					<g>
						<g>
							<path style="fill:#412945;" d="M315.056,67.431c-0.308,0-0.619-0.098-0.881-0.301l-35.829-27.64         c-0.632-0.487-0.749-1.395-0.261-2.026c0.487-0.631,1.395-0.749,2.026-0.262l35.829,27.64         c0.632,0.487,0.749,1.395,0.262,2.026C315.916,67.237,315.488,67.431,315.056,67.431z"/>
						</g>
						<g>
							<path style="fill:#412945;" d="M309.347,74.83c-0.308,0-0.619-0.098-0.881-0.301L272.638,46.89         c-0.632-0.487-0.749-1.395-0.262-2.026c0.488-0.631,1.395-0.75,2.026-0.262l35.828,27.639         c0.632,0.487,0.749,1.395,0.262,2.026C310.208,74.636,309.78,74.83,309.347,74.83z"/>
						</g>
						<g>
							<path style="fill:#412945;" d="M303.639,82.229c-0.308,0-0.619-0.098-0.881-0.301l-35.828-27.639         c-0.632-0.487-0.749-1.395-0.262-2.026c0.487-0.631,1.396-0.75,2.026-0.261l35.828,27.639         c0.632,0.487,0.749,1.395,0.262,2.026C304.499,82.035,304.071,82.229,303.639,82.229z"/>
						</g>
					</g>
					<g>
						<g>
							<path style="fill:#412945;" d="M432.423,212.472c-0.544,0-1.065-0.308-1.31-0.833c-0.338-0.722-0.025-1.583,0.697-1.921         l40.997-19.152c0.722-0.338,1.583-0.025,1.92,0.698c0.338,0.722,0.025,1.583-0.697,1.921l-40.997,19.152         C432.836,212.429,432.628,212.472,432.423,212.472z"/>
						</g>
						<g>
							<path style="fill:#412945;" d="M436.379,220.939c-0.544,0-1.065-0.309-1.31-0.833c-0.338-0.722-0.025-1.583,0.698-1.921         l40.997-19.152c0.722-0.338,1.583-0.025,1.92,0.698c0.338,0.722,0.025,1.583-0.697,1.921l-40.997,19.152         C436.792,220.895,436.584,220.939,436.379,220.939z"/>
						</g>
						<g>
							<path style="fill:#412945;" d="M440.335,229.406c-0.544,0-1.065-0.309-1.31-0.833c-0.338-0.722-0.025-1.583,0.698-1.921         l40.997-19.153c0.722-0.338,1.583-0.024,1.92,0.698c0.338,0.722,0.025,1.583-0.697,1.921l-40.997,19.153         C440.748,229.363,440.539,229.406,440.335,229.406z"/>
						</g>
					</g>
					<g>
						<g>
							<path style="fill:#412945;" d="M233.675,453.142c-0.726,0-1.351-0.546-1.434-1.284c-0.089-0.793,0.482-1.508,1.275-1.596         l44.969-5.042c0.793-0.101,1.508,0.481,1.597,1.275c0.089,0.793-0.482,1.508-1.275,1.596l-44.969,5.042         C233.783,453.139,233.729,453.142,233.675,453.142z"/>
						</g>
						<g>
							<path style="fill:#412945;" d="M234.716,462.429c-0.726,0-1.351-0.546-1.434-1.284c-0.089-0.793,0.482-1.508,1.275-1.596         l44.969-5.042c0.791-0.104,1.508,0.482,1.597,1.275c0.089,0.793-0.482,1.508-1.275,1.596l-44.969,5.042         C234.824,462.426,234.77,462.429,234.716,462.429z"/>
						</g>
						<g>
							<path style="fill:#412945;" d="M235.758,471.716c-0.726,0-1.351-0.546-1.434-1.284c-0.089-0.793,0.482-1.508,1.275-1.596         l44.969-5.042c0.789-0.094,1.508,0.482,1.597,1.275c0.089,0.793-0.482,1.508-1.275,1.596l-44.969,5.042         C235.866,471.713,235.811,471.716,235.758,471.716z"/>
						</g>
					</g>
					<g>
						<g>
							<path style="fill:#412945;" d="M72.52,309.533c-0.354,0-0.709-0.13-0.988-0.39l-33.018-30.943         c-0.582-0.546-0.612-1.46-0.066-2.042c0.546-0.582,1.46-0.611,2.043-0.067l33.018,30.943c0.582,0.546,0.612,1.46,0.066,2.042         C73.291,309.379,72.906,309.533,72.52,309.533z"/>
						</g>
						<g>
							<path style="fill:#412945;" d="M66.13,316.351c-0.354,0-0.709-0.13-0.988-0.39l-33.018-30.942         c-0.582-0.546-0.612-1.46-0.066-2.042c0.546-0.583,1.46-0.612,2.043-0.067l33.018,30.942c0.582,0.546,0.612,1.46,0.066,2.042         C66.901,316.198,66.516,316.351,66.13,316.351z"/>
						</g>
						<g>
							<path style="fill:#412945;" d="M59.74,323.17c-0.354,0-0.709-0.13-0.988-0.39l-33.018-30.942         c-0.582-0.546-0.612-1.46-0.066-2.042c0.546-0.582,1.459-0.612,2.043-0.067l33.018,30.942         c0.582,0.546,0.612,1.46,0.066,2.042C60.51,323.017,60.126,323.17,59.74,323.17z"/>
						</g>
					</g>
				</g>
			</g>
			<g>
				<g>
					<g>
						<g>
							<rect x="173.124" y="308.683" style="fill:#412945;" width="137.851" height="24.766"/>
						</g>
						<g>
							<g>
								<path style="fill:#F8BDFF;" d="M350.194,106.345c1.83,0,3.569,0.777,4.784,2.146c6.055,6.819,25.272,29.525,43.849,62.808          c22.43,40.187,29.44,80.842,29.44,80.842l14.667,7.667c3.623,1.894,5.894,5.644,5.894,9.732v32.633          c0,5.961-4.755,10.833-10.714,10.978l-91.312,2.075l-33.489-17.757l35.397-191.123H350.194z"/>
							</g>
							<g>
								<path style="fill:#F7EDE5;" d="M349.372,315.225H110.663c-2.022,0-3.66-1.639-3.66-3.66V110.005          c0-2.022,1.639-3.66,3.66-3.66h238.709c2.022,0,3.66,1.639,3.66,3.66v201.559          C353.032,313.586,351.393,315.225,349.372,315.225z"/>
							</g>
							<g>
								<g>
									<path style="fill:#412945;" d="M326.707,288.278H129.589c-1.635,0-2.96-1.326-2.96-2.961V125.686           c0-1.635,1.325-2.961,2.96-2.961h197.118c1.635,0,2.96,1.325,2.96,2.961v159.631           C329.668,286.952,328.342,288.278,326.707,288.278z"/>
								</g>
								<g>
									<g>
										<path style="fill:#412945;" d="M135.975,309.208c-3.983,0-7.224-3.241-7.224-7.223c0-3.984,3.24-7.224,7.224-7.224            c3.983,0,7.224,3.24,7.224,7.224C143.198,305.968,139.958,309.208,135.975,309.208z M135.975,296.591            c-2.974,0-5.393,2.419-5.393,5.394c0,2.973,2.419,5.393,5.393,5.393s5.393-2.419,5.393-5.393            C141.368,299.011,138.948,296.591,135.975,296.591z"/>
									</g>
									<g>
										<path style="fill:#412945;" d="M157.47,309.208c-3.983,0-7.224-3.241-7.224-7.223c0-3.984,3.241-7.224,7.224-7.224            c3.983,0,7.224,3.24,7.224,7.224C164.694,305.968,161.453,309.208,157.47,309.208z M157.47,296.591            c-2.974,0-5.393,2.419-5.393,5.394c0,2.973,2.419,5.393,5.393,5.393s5.393-2.419,5.393-5.393            C162.863,299.011,160.444,296.591,157.47,296.591z"/>
									</g>
								</g>
							</g>
							<g>
								<g>
									<path style="fill:#412945;" d="M408.64,265.195h-41.122c-0.758,0-1.373-0.614-1.373-1.372c0-0.758,0.615-1.372,1.373-1.372           h41.122c0.758,0,1.373,0.614,1.373,1.372C410.013,264.581,409.398,265.195,408.64,265.195z"/>
								</g>
								<g>
									<path style="fill:#412945;" d="M408.64,277.111h-41.122c-0.758,0-1.373-0.614-1.373-1.372c0-0.758,0.615-1.372,1.373-1.372           h41.122c0.758,0,1.373,0.614,1.373,1.372C410.013,276.497,409.398,277.111,408.64,277.111z"/>
								</g>
								<g>
									<path style="fill:#412945;" d="M408.64,289.027h-41.122c-0.758,0-1.373-0.614-1.373-1.372c0-0.758,0.615-1.372,1.373-1.372           h41.122c0.758,0,1.373,0.614,1.373,1.372C410.013,288.413,409.398,289.027,408.64,289.027z"/>
								</g>
								<g>
									<path style="fill:#412945;" d="M408.64,300.943h-41.122c-0.758,0-1.373-0.614-1.373-1.372c0-0.758,0.615-1.372,1.373-1.372           h41.122c0.758,0,1.373,0.614,1.373,1.372C410.013,300.329,409.398,300.943,408.64,300.943z"/>
								</g>
							</g>
						</g>
						<g>
							<g>
								<g>
									<g>
										<path style="fill:#E36352;" d="M284.807,177.411c-0.039,9.769-3.879,20.335-9.662,30.727            c-10.314,2.372-25.613,17.169-41.067,20.541c-16.968,3.702-34.144-4.019-45.611-1.557            c-5.123-8.486-9.847-17.507-13.259-26.401c18.984-3.196,34.832-14.422,53.658-18.453            C246.574,178.476,267.271,181.929,284.807,177.411z"/>
									</g>
								</g>
							</g>
							<g>
								<g>
									<g>
										<path style="fill:#F8BDFF;" d="M284.807,177.411c-36.18,9.322-72.758,17.108-109.599,23.31            c-6.756-17.594-8.36-34.673,2.284-45.998c20.88-22.211,47.65,21.337,47.65,21.337s37.473-43.587,55.096-15.388            C283.446,165.814,284.836,171.462,284.807,177.411z"/>
									</g>
								</g>
							</g>
							<g>
								<g>
									<g>
										<path style="fill:#FFC063;" d="M275.145,208.137c-6.347,11.393-15.018,22.581-23.582,32.282l-21.456,12.333l-25.3-1.533            c-5.181-6.921-10.975-15.213-16.34-24.097C210.377,222.417,253.507,213.114,275.145,208.137z"/>
									</g>
								</g>
							</g>
							<g>
								<g>
									<g>
										<path style="fill:#B5E1E8;" d="M251.563,240.419c-15.631,17.711-30.882,30.454-30.882,30.454s-7.038-7.835-15.874-19.655            L251.563,240.419z"/>
									</g>
								</g>
							</g>
						</g>
						<g>
							<g>
								<path style="fill:#FFFFFF;" d="M166.789,219.136c6.837,0.068,13.505-0.459,12.884-8.311          c-9.651,5.394-20.25,1.675-22.097-9.601c-3.845-23.839,30.252-26.458,32.609-1.718c2.678,13.903,1.691,26.46-12.427,29.745          c-7.314,1.509-11.223,1.038-11.729-1.414C165.731,226.576,165.219,219.729,166.789,219.136z M172.437,194.021          c-8.29,2.652-0.431,13.742,5.474,7.616C176.758,197.458,176.522,193.673,172.437,194.021z"/>
							</g>
							<g>
								<path style="fill:#FFFFFF;" d="M216.586,225.144c-25.274,0.792-25.182-48.493,0.244-47.373          C242.059,176.759,241.849,226.418,216.586,225.144z M216.669,190.421c-8.241,0.828-8.482,21.139-0.053,21.875          C225.015,211.58,224.94,191.267,216.669,190.421z"/>
							</g>
							<g>
								<path style="fill:#FFFFFF;" d="M248.78,198.019c-1.293-0.171-3.652-1.209-3.316-2.556l2.281-13.714          c1.363-2.563,10.773-0.998,11.245,1.869c0,0.001-6.181,13.066-6.181,13.066C252.699,198.054,250.064,198.273,248.78,198.019          z"/>
							</g>
							<g>
								<path style="fill:#FFFFFF;" d="M262.542,217.96c3.209,5.216,14.28,8.761,6.893,1.338          c-14.619-14.503,3.582-26.058,17.565-15.521c5.678,2.881,0.187,7.218-2.571,8.789c-1.246-1.823-8.786-5.965-7.2-1.123          c7.785,6.146,12.435,14.932,1.906,21.241C271.314,237.345,248.547,226.517,262.542,217.96z"/>
							</g>
						</g>
						<g>
							<g>
								<polygon style="fill:#F7EDE5;" points="344.155,328.305 377.799,365.692 344.155,416.156 83.869,416.156 83.869,328.305                   "/>
							</g>
							<g>
								<rect x="344.154" y="328.309" style="fill:#F8BDFF;" width="93.926" height="87.851"/>
							</g>
						</g>
						<g>
							<g>
								<g>
									<path style="fill:#412945;" d="M275.929,365.663c-6.426,0-11.653-5.227-11.653-11.653c0-6.426,5.228-11.653,11.653-11.653           c6.425,0,11.653,5.227,11.653,11.653C287.582,360.435,282.354,365.663,275.929,365.663z M275.929,345.102           c-4.912,0-8.907,3.996-8.907,8.908c0,4.912,3.996,8.908,8.907,8.908c4.911,0,8.907-3.996,8.907-8.908           C284.836,349.098,280.84,345.102,275.929,345.102z"/>
								</g>
								<g>
									<path style="fill:#412945;" d="M309.107,365.663c-6.425,0-11.653-5.227-11.653-11.653c0-6.426,5.228-11.653,11.653-11.653           c6.426,0,11.654,5.227,11.654,11.653C320.76,360.435,315.532,365.663,309.107,365.663z M309.107,345.102           c-4.911,0-8.907,3.996-8.907,8.908c0,4.912,3.996,8.908,8.907,8.908c4.912,0,8.908-3.996,8.908-8.908           C318.014,349.098,314.019,345.102,309.107,345.102z"/>
								</g>
							</g>
							<g>
								<path style="fill:#412945;" d="M211.413,389.027h-105.55V376.47h105.55V389.027z M108.609,386.282h100.058v-7.068H108.609          V386.282z"/>
							</g>
							<g>
								<path style="fill:#412945;" d="M321.227,387.626h-57.886v-11.624h57.886V387.626z M266.087,384.881h52.395v-6.134h-52.395          V384.881z"/>
							</g>
						</g>
					</g>
					<g>
						<g>
							<g>
								<polygon style="fill:#FFC063;" points="55.801,198.476 52.873,149.296 108.2,149.296 109.664,142.271 154.453,142.271           140.282,221.896         "/>
							</g>
							<g>
								<polygon style="fill:#F7EDE5;" points="44.384,160.713 55.215,216.626 140.282,221.896 148.013,158.957         "/>
							</g>
							<g>
								<polygon style="fill:#FFC063;" points="140.282,221.896 48.719,221.896 26.817,168.91 139.233,168.91         "/>
							</g>
						</g>
						<g>
							<rect x="56.752" y="229.653" style="fill:#FFFFFF;" width="68.939" height="15.588"/>
						</g>
					</g>
				</g>
				<g>
					<polygon style="fill:#F7EDE5;" points="397.651,153.22 361.647,75.665 434.219,107.839 414.466,116.871 438.271,134.472        426.458,153.966 403.789,125.709      "/>
				</g>
			</g>
		</g>
	</g>
</g>
<g>
</g>
<g>
</g>
<g>
</g>
<g>
</g>
<g>
</g>
<g>
</g>
<g>
</g>
<g>
</g>
<g>
</g>
<g>
</g>
<g>
</g>
<g>
</g>
<g>
</g>
<g>
</g>
<g>
</g>
</svg>
