<?xml version="1.0" encoding="iso-8859-1"?>
<!-- Generator: Adobe Illustrator 26.5.3, SVG Export Plug-In . SVG Version: 6.00 Build 0)  -->
<svg xmlns="http://www.w3.org/2000/svg" xmlns:xlink="http://www.w3.org/1999/xlink" version="1.1" id="Capa_1" x="0px" y="0px" viewBox="0 0 512 512" style="enable-background:new 0 0 512 512;" xml:space="preserve">
<g>
	<g>
		<g>
			<path d="M250.294,421.375c-1.604,3.421-3.985,6.291-3.902,10.546c0.175,8.972-0.055,17.961-0.407,26.931     c-0.264,6.719-0.377,13.462-1.386,20.138c-0.578,3.825-2.241,5.284-6.065,5.136c-1.927-0.074-3.841-0.334-5.688-0.904     c-2.894-0.893-4.348-2.764-4.558-5.752c-0.639-9.083-1.023-18.174-1.253-27.28c-0.672-26.62-0.737-67.876-0.704-94.501     c0.003-2.564-0.069-5.134,0.418-7.675c0.452-2.361,1.732-3.932,4.118-4.562c3.539-0.935,7.082-1.86,10.769-1.914     c3.922-0.057,5.476,1.362,5.878,5.27c0.079,0.763,0.072,1.538,0.063,2.307c-0.12,11.091-0.271,36.816-0.364,47.907     c-0.051,6.152-0.009,12.304-0.009,18.553c0.415-0.754,0.865-1.55,1.296-2.355c11.277-21.031,22.834-41.909,34.635-62.651     c0.475-0.834,1.022-1.631,1.578-2.415c0.705-0.994,1.673-1.469,2.84-0.956c1.294,0.568,1.432,1.73,1.131,2.939     c-0.438,1.761-1.427,3.291-2.249,4.88c-7.986,15.445-16.328,30.698-24.94,45.802c-0.706,1.239-0.629,2.111,0.078,3.319     c5.092,8.7,9.475,17.771,13.796,26.869c6.521,13.733,13.013,27.48,19.511,41.224c0.356,0.753,0.71,1.514,0.973,2.302     c0.739,2.214,0.196,4.081-1.761,5.394c-3.389,2.273-7.225,3.61-11.077,4.821c-1.847,0.581-3.36-0.424-4.525-1.866     c-1.428-1.768-2.379-3.812-3.203-5.901c-7.259-18.391-16.02-36.118-23.965-54.205     C251.124,422.324,251.02,421.787,250.294,421.375z"/>
			<path d="M157.639,372.803c-0.143,8.517,3.194,15.798,7.572,22.712c4.628,7.309,10.396,13.745,15.838,20.426     c6.352,7.796,12.349,15.787,15.614,25.474c3.845,11.411,1.91,21.879-4.993,31.593c-4.118,5.794-9.535,9.826-16.281,11.993     c-10.575,3.396-19.792,0.195-28.023-6.397c-5.977-4.787-8.642-11.258-8.081-18.981c0.198-2.724,1.034-5.236,2.368-7.582     c0.41-0.721,1.014-1.379,1.658-1.91c1.188-0.979,2.612-1.584,4.008-0.587c1.454,1.038,0.852,2.433,0.287,3.778     c-2.345,5.588-2.668,11.162,0.194,16.701c4.449,8.611,18.934,14.295,27.566,4.535c3.622-4.095,4.335-9.08,3.92-14.343     c-0.708-8.994-4.966-16.532-9.784-23.82c-3.758-5.686-8.449-10.652-12.612-16.028c-5.719-7.386-10.932-15.072-13.413-24.224     c-3.834-14.143-2.863-27.862,5.427-40.208c7.194-10.713,17.927-15.354,30.673-14.12c10.064,0.974,16.166,7.442,19.389,16.725     c2.777,8,2.034,15.865-1.074,23.662c-1.864,4.677-4.05,9.09-7.731,12.623c-0.437,0.42-0.849,0.871-1.317,1.253     c-0.881,0.719-1.921,1.384-2.932,0.471c-1.025-0.926-0.662-2.105,0.005-3.156c0.91-1.436,1.921-2.816,2.735-4.303     c5.472-10.004,6.971-20.387,2.542-31.166c-2.625-6.388-8.106-10.001-13.891-9.541c-4.608,0.367-8.547,2.245-11.882,5.374     C159.913,358.929,157.48,365.385,157.639,372.803z"/>
			<path d="M325.883,419.071c2.994-11.542,5.947-23.094,8.993-34.622c2.835-10.725,5.565-21.482,8.889-32.072     c1.458-4.645,2.553-5.429,7.399-5.001c3.188,0.282,6.389,0.554,9.51,1.373c3.717,0.976,4.692,2.428,3.895,6.307     c-1.084,5.276-2.134,10.565-3.424,15.792c-4.75,19.241-9.917,38.373-15.276,57.453c-4.284,15.251-8.501,30.52-12.771,45.774     c-0.605,2.16-1.244,4.319-2.029,6.418c-1.298,3.47-3.308,4.534-6.911,3.834c-2.777-0.54-5.476-1.37-8.128-2.339     c-3.749-1.37-5.266-3.916-4.356-7.848c2.27-9.807,4.583-19.607,7.32-29.299c0.453-1.605,0.693-3.289,1.314-4.822     c2.024-4.997,1.608-9.803,0.081-14.941c-4.314-14.517-6.94-29.457-10.445-44.18c-2.168-9.107-4.427-18.198-5.992-27.437     c-0.16-0.943-0.218-1.91-0.23-2.867c-0.015-1.1,0.34-2.059,1.527-2.392c1.225-0.344,2.265-0.057,3.052,1.024     c0.965,1.325,1.431,2.859,1.926,4.384c2.998,9.227,4.775,18.764,7.124,28.156c2.943,11.764,5.042,23.71,7.693,35.537     c0.138,0.614,0.296,1.224,0.445,1.835C325.619,419.117,325.751,419.094,325.883,419.071z"/>
		</g>
		<g>
			<path d="M414.59,210.199c-2.224,1.492-4.425,3.021-6.677,4.469c-4.706,3.026-9.808,5.06-15.382,5.716     c-1.644,0.194-2.077,1.094-2.336,2.496c-2.794,15.121-6.782,29.902-12.896,44.047c-2.52,5.832-5.132,11.634-9.19,16.625     c-2.868,3.526-6.199,6.309-10.906,6.977c-4.639,0.657-8.442-1.113-11.74-4.13c-5.483-5.015-7.916-11.541-8.976-18.703     c-0.175-1.186-0.344-2.372-0.591-4.07c-0.821,1.5-1.396,2.612-2.027,3.692c-3.149,5.383-6.944,10.201-12.403,13.423     c-5.656,3.338-11.49,3.85-17.382,0.582c-3.194-1.771-5.345-4.553-7.034-7.715c-0.659-1.235-1.216-2.524-1.923-4.005     c-1.906,4.72-3.559,9.29-5.569,13.698c-4.832,10.597-12.044,19.03-22.792,24.045c-12.111,5.652-24.081,1.385-31.254-8.993     c-2.319-3.355-4.022-6.995-5.393-10.814c-0.232-0.648-0.285-1.385-0.956-2.06c-2.296,4.805-4.693,9.461-7.233,14.042     c-3.671,6.621-8.229,12.389-14.995,16.119c-8.495,4.683-17.836,3.524-24.874-3.132c-7.233-6.842-10.929-15.572-13.04-25.057     c-1.719-7.723-2.421-15.58-2.381-23.743c-0.739,0.599-0.908,1.323-1.216,1.944c-4.73,9.541-9.163,19.261-15.872,27.655     c-5.537,6.926-11.907,12.907-19.885,17.013c-14.173,7.294-28.11,5.833-40.355-4.322c-8.288-6.873-13.655-15.767-17.314-25.727     c-4.215-11.472-6.197-23.385-6.678-35.593c-0.883-22.427,1.565-44.478,7.844-66.004c5.798-19.877,15.881-37.373,30.835-51.863     c6.859-6.647,14.532-11.946,24.08-14.153c13.313-3.076,24.27,2.756,30.449,13.902c3.313,5.977,4.945,12.501,5.212,19.34     c0.534,13.648-1.104,27.002-5.589,39.944c-1.18,3.406-2.861,6.587-4.943,9.544c-1.265,1.797-3.009,2.804-5.175,2.942     c-4.83,0.307-9.62-0.147-14.342-1.148c-2.582-0.548-3.041-1.922-1.803-4.231c8.451-15.763,14.146-32.405,16.027-50.269     c0.564-5.357,0.583-10.595-1.653-15.678c-3.755-8.536-10.348-8.063-16.245-3.746c-5.233,3.831-8.813,9.053-12.131,14.522     c-7.982,13.155-11.947,27.749-15.371,42.532c-3.16,13.642-5.215,27.469-6.447,41.413c-1.534,17.363-0.988,34.602,3.39,51.579     c1.697,6.581,4.348,12.763,8.237,18.343c6.469,9.282,15.346,10.873,25.181,5.208c8.363-4.818,14.165-11.962,19.274-19.792     c5.474-8.391,9.95-17.359,14.519-26.265c1.224-2.385,1.133-4.981,1.488-7.499c3.282-23.248,8.054-46.152,16.323-68.185     c3.881-10.341,8.41-20.449,15.216-29.283c4.643-6.026,9.823-11.525,16.995-14.705c3.125-1.385,6.332-2.024,9.735-1.773     c5.155,0.381,9.737,4.43,11.468,10.033c1.918,6.208,1.291,12.443,0.333,18.685c-2.184,14.224-7.793,27.2-14.617,39.712     c-7.471,13.7-16.938,25.833-28.683,36.151c-0.193,0.169-0.348,0.401-0.566,0.518c-3.637,1.954-4.448,5.25-4.939,9.078     c-1.474,11.482-2.222,22.982-1.804,34.547c0.204,5.641,0.623,11.269,2.083,16.765c0.821,3.089,2.309,5.803,4.171,8.385     c4.444,6.163,11.69,5.601,16.261,1.314c4.915-4.611,8.888-9.949,11.974-15.922c1.678-3.246,3.118-6.615,4.698-9.912     c0.606-1.264,0.653-2.53,0.545-3.921c-1.408-18.089,1.883-35.014,12.727-49.975c2.236-3.085,5.085-5.605,8.318-7.649     c11.775-7.446,22.817-0.825,26.978,8.902c2.132,4.985,2.714,10.263,1.906,15.663c-1.833,12.254-5.78,23.55-14.864,32.47     c-4.01,3.938-8.491,7.061-14.36,7.478c-0.94,0.067-1.749,0.445-1.478,1.539c1.438,5.808,3.395,11.398,8.503,15.083     c4.6,3.318,9.538,2.438,14.299,0.39c4.351-1.872,7.468-5.324,10.437-8.916c5.41-6.546,8.515-14.269,11.589-22.043     c1.302-3.293,1.61-6.47,1.355-10.053c-1.012-14.222,1.42-27.903,8.058-40.631c3.691-7.076,9.166-12.448,16.481-15.864     c10.415-4.863,20.716-0.682,24.649,10.104c0.691,1.895,1.179,3.865,1.848,6.088c0.516-0.855,0.852-1.456,1.229-2.028     c0.98-1.484,2.338-2.374,4.141-2.44c3.284-0.121,6.545,0.092,9.735,0.938c2.204,0.584,2.976,1.657,2.709,3.932     c-0.133,1.136-0.443,2.271-0.819,3.355c-4.039,11.614-6.849,23.526-8.575,35.688c-0.869,6.123-0.992,12.272,0.295,18.376     c0.375,1.776,1.056,3.417,2.188,4.872c1.819,2.338,4.001,2.829,6.588,1.358c2.169-1.233,3.758-3.074,5.181-5.08     c4.156-5.857,7.031-12.356,9.608-19.016c4.388-11.343,6.983-23.194,10.031-34.919c0.328-1.262-0.052-1.74-1.283-1.919     c-15.436-2.241-22.589-14.71-23.733-27.913c-0.658-7.591,0.586-14.84,3.79-21.723c2.158-4.635,3.815-5.313,8.699-4.091     c3.553,0.889,7.175,1.404,10.798,1.911c0.95,0.133,1.904,0.299,2.826,0.556c1.341,0.374,1.776,1.17,1.365,2.624     c-1.656,5.856-3.57,11.653-4.015,17.793c-0.397,5.476,0.662,10.643,3.396,15.359c2.591,4.47,6.909,5.868,12.552,4.602     c5.767-1.294,10.732-4.158,15.398-7.635c3.571-2.661,5.119-2.682,8.091,0.51c3.758,4.036,7.338,8.238,11.015,12.35     c1.293,1.447,1.514,2.868,0.686,4.737c-3.2,7.213-6.929,14.179-9.843,21.527c-4.441,11.2-7.835,22.672-9.356,34.65     c-0.716,5.638-0.489,11.254,0.672,16.831c0.602,2.89,2.144,5.199,4.281,7.14c2.227,2.022,6.117,1.857,8.686-0.259     c2.198-1.81,3.517-4.249,4.729-6.719c4.568-9.311,6.692-19.075,5.278-29.477c-0.477-3.509,1.985-5.326,5.301-4.007     c3.731,1.484,5.962,5.91,5.74,10.65c-0.222,4.728-1.645,9.082-3.649,13.261c-3.243,6.763-6.418,13.552-11.868,18.988     c-11.791,11.76-27.646,8.056-34.52-6.603c-2.93-6.248-4.098-12.908-4.262-19.798c-0.479-20.195,4.35-39.136,13.303-57.121     c0.714-1.434,1.566-2.799,2.361-4.193c0.759-1.331,1.527-2.656,2.292-3.983C414.756,210.37,414.673,210.285,414.59,210.199z      M192.05,229.018c0.395,0.115,0.601-0.168,0.831-0.374c6.132-5.494,11.575-11.618,16.424-18.255     c7.758-10.62,13.842-22.164,18.605-34.408c2.963-7.617,5.476-15.353,5.29-23.67c-0.069-3.093-0.44-6.143-2.303-8.793     c-1.265-1.799-1.647-1.899-3.361-0.656c-1.722,1.249-3.253,2.707-4.579,4.369c-4.96,6.213-8.604,13.245-11.903,20.383     c-8.856,19.164-15.385,39.114-19.057,59.948C191.912,228.044,191.673,228.548,192.05,229.018z M340.028,225.527     c0.035-4.201-0.54-8.179-2.749-11.731c-1.521-2.446-3.611-3.992-6.716-3.462c-1.795,0.306-3.154,1.376-4.414,2.581     c-4.288,4.099-6.668,9.349-8.824,14.729c-3.033,7.571-4.569,15.501-5.214,23.576c-0.464,5.814-0.53,11.656,1.696,17.272     c1.936,4.885,5.806,5.974,9.835,2.615c7.489-6.244,10.837-14.713,12.776-23.911c0.488-2.316,0.782-4.677,1.076-7.029     C338.114,235.216,340.312,230.536,340.028,225.527z M245.081,269.474c0.096,1.9,0.26,3.692,0.255,5.483     c-0.005,1.581,0.794,1.995,2.183,1.894c2.893-0.211,5.522-1.162,7.828-2.896c7.297-5.489,11.696-12.933,14.504-21.479     c2.026-6.167,3.256-12.374,1.902-18.876c-0.451-2.165-1.186-4.199-2.382-6.041c-2.203-3.393-5.326-4.1-8.761-1.984     c-3.095,1.906-5.19,4.701-6.858,7.876C247.804,244.765,245.516,256.954,245.081,269.474z"/>
			<path d="M313.57,296.108c9.048,0.082,17.4,2.784,25.422,6.759c7.964,3.946,15.161,9.097,22.44,14.13     c5.077,3.51,10.271,6.908,16.56,7.786c7.154,0.999,13.877,0.248,18.994-5.69c0.5-0.58,1.022-1.159,1.413-1.811     c0.484-0.808,1.06-1.322,2.025-0.989c0.932,0.322,1.207,1.165,1.171,2.018c-0.055,1.315-0.651,2.465-1.43,3.512     c-4.066,5.456-9.719,8.249-16.233,9.418c-9.003,1.615-17.282-0.841-25.238-4.833c-8.534-4.282-16.643-9.399-25.525-12.999     c-10.965-4.445-21.848-4.753-32.521,0.842c-2.428,1.273-4.606,3.018-6.918,4.517c-3.1,2.009-5.487,0.972-6-2.701     c-0.589-4.218,0.948-7.879,3.583-11.015c5.027-5.982,11.831-8.309,19.371-8.931C311.641,296.04,312.608,296.108,313.57,296.108z"/>
		</g>
	</g>
	<g>
		<g>
			<path d="M386.122,419.082c2.752,0.144,5.063,1.191,7.078,2.88c3.646,3.055,6.497,6.717,8.331,11.141     c0.899,2.169,0.915,2.148,2.722,0.827c6.529-4.774,13.853-5.698,21.613-4.396c1.097,0.184,2.275,0.607,2.168,2.005     c-0.117,1.523-1.456,1.681-2.607,1.706c-4.92,0.105-9.724,0.719-14.207,2.916c-2.383,1.167-4.522,2.658-6.285,4.672     c-2.645,3.021-5.345,2.714-6.948-1.001c-2.107-4.883-4.736-9.368-8.439-13.219c-1.296-1.347-2.73-2.253-4.567-2.641     c-1.357-0.287-3.292-0.153-3.147-2.305c0.134-1.976,1.907-2.155,3.415-2.48C385.561,419.118,385.885,419.109,386.122,419.082z"/>
			<path d="M92.919,443.357c-5.205-0.79-9.346,1.623-12.998,5.289c-1.221,1.225-2.462,2.443-3.796,3.539     c-2.012,1.653-3.561,1.586-5.418-0.283c-2.485-2.5-4.849-5.12-7.306-7.648c-2.736-2.815-5.926-4.884-9.818-5.741     c-0.772-0.17-1.572-0.382-1.623-1.353c-0.053-1.009,0.71-1.429,1.503-1.769c1.652-0.708,3.387-0.766,5.106-0.441     c5.825,1.099,10.744,3.799,14.359,8.57c0.925,1.221,1.434,1.265,2.619,0.259c6.482-5.507,13.856-6.086,21.702-3.625     c0.91,0.285,1.735,0.771,1.589,1.865c-0.149,1.116-1.105,1.309-2.046,1.332C95.574,443.38,94.355,443.357,92.919,443.357z"/>
			<path d="M55.032,358.52c6.786,0.296,12.556,2.815,17.127,7.914c1.335,1.489,1.458,1.515,2.534-0.315     c3.999-6.801,10.165-9.848,17.818-10.333c0.51-0.032,1.031-0.028,1.536,0.038c0.963,0.127,1.766,0.549,1.842,1.629     c0.075,1.063-0.742,1.367-1.591,1.599c-2.774,0.76-5.542,1.416-8.032,3.061c-3.911,2.584-6.593,6.209-9.239,9.93     c-2.401,3.377-4.006,3.577-6.942,0.714c-2.801-2.732-5.418-5.651-9.064-7.327c-3.427-1.575-6.881-2.822-10.751-1.661     c-1.006,0.302-2.128,0.181-2.643-0.97c-0.556-1.245,0.176-2.113,1.146-2.74C50.668,358.836,52.783,358.41,55.032,358.52z"/>
			<path d="M409.227,377.681c5.955,0.008,10.322,2.213,14.462,5.029c2.358,1.604,2.316,1.579,4.155-0.517     c4.715-5.373,10.94-7.643,17.814-8.482c1.124-0.137,2.26,0.202,2.629,1.465c0.411,1.409-0.341,2.406-1.566,2.933     c-2.296,0.989-4.638,1.873-6.97,2.776c-3.913,1.516-7.256,3.698-9.613,7.328c-1.801,2.774-3.732,3.069-6.561,1.293     c-2.55-1.601-4.949-3.437-7.691-4.737c-3.483-1.65-7.042-2.343-10.813-1.135c-0.122,0.039-0.248,0.064-0.374,0.091     c-1.378,0.296-2.858,0.845-3.689-0.901c-0.562-1.179,0.369-2.761,2.106-3.651C405.273,378.07,407.587,377.623,409.227,377.681z"/>
		</g>
		<g>
			<path d="M295.791,170.551c0.496-6.296,2.135-12.048,3.444-17.864c4.325-19.217,9.657-38.18,14.507-57.264     c3.46-13.613,7.16-27.165,11.12-40.644c0.235-0.799,0.514-1.588,0.809-2.367c0.424-1.121,1.148-1.952,2.453-1.644     c1.326,0.313,1.81,1.352,1.714,2.643c-0.195,2.638-0.934,5.176-1.56,7.725c-7.577,30.838-16.117,61.423-24.18,92.133     c-1.432,5.455-3.244,10.811-4.885,16.212c-0.149,0.49-0.31,0.98-0.508,1.452c-0.329,0.784-0.706,1.646-1.755,1.442     C295.803,172.152,295.84,171.129,295.791,170.551z"/>
			<path d="M184.722,100.603c-0.201,1.453-0.267,2.854-1.883,3.178c-1.587,0.318-2.365-0.75-2.837-2.031     c-1.955-5.306-3.324-10.785-4.662-16.268c-2.754-11.278-5.656-22.525-7.697-33.964c-1.318-7.386-2.54-14.789-3.815-22.183     c-0.253-1.468-0.38-3.001,1.337-3.56c1.676-0.546,2.798,0.492,3.53,1.935c1.145,2.256,1.63,4.723,2.213,7.154     c4.851,20.212,8.655,40.649,13.038,60.962C184.296,97.452,184.484,99.114,184.722,100.603z"/>
			<path d="M254.918,39.135c-0.727,10.676-0.729,21.384-1.722,32.054c-0.908,9.757-1.344,19.556-2.098,29.329     c-0.354,4.595-0.519,9.218-1.459,13.754c-0.065,0.314-0.106,0.635-0.202,0.94c-0.47,1.494-0.912,3.162-2.953,2.904     c-1.963-0.249-2.06-1.914-1.993-3.413c0.292-6.464,0.642-12.926,0.994-19.387c0.269-4.926,0.623-9.848,0.85-14.775     c0.467-10.114,1.119-20.212,2.226-30.278c0.469-4.268,0.832-8.547,1.278-12.817c0.086-0.822,0.28-1.644,0.518-2.437     c0.326-1.085,1.033-1.791,2.25-1.695c1.201,0.095,1.772,0.895,2.036,1.991C254.948,36.568,254.9,37.851,254.918,39.135z"/>
			<path d="M385.888,70.816c-0.313,1.072-0.639,2.447-1.113,3.769c-7.389,20.589-15.437,40.923-23.714,61.168     c-1.14,2.789-2.496,5.489-4.206,7.991c-0.659,0.964-1.43,1.776-2.693,1.169c-1.161-0.558-1.077-1.634-0.795-2.68     c1.154-4.281,2.795-8.398,4.345-12.538c7.195-19.221,14.424-38.43,23.013-57.089c0.509-1.106,1.045-2.204,1.654-3.256     c0.451-0.779,1.193-1.191,2.123-0.934C385.542,68.702,385.802,69.551,385.888,70.816z"/>
			<path d="M113.163,99.073c-0.031,1.101-0.314,2.011-1.341,2.432c-1.208,0.495-2.152-0.075-2.859-0.988     c-1.421-1.837-2.388-3.944-3.419-6.01c-3.578-7.171-7.271-14.288-10.71-21.525c-3.274-6.891-6.297-13.901-9.391-20.876     c-0.384-0.866-0.6-1.829-0.75-2.77c-0.139-0.866,0.133-1.675,0.987-2.121c0.907-0.473,1.773-0.268,2.495,0.373     c0.472,0.419,0.91,0.924,1.217,1.473c8.045,14.385,16.215,28.708,22.07,44.186C112.189,95.165,112.883,97.098,113.163,99.073z"/>
			<path d="M68.134,144.023c-1.531-0.181-2.975-0.978-4.229-1.932c-9.337-7.102-19.091-13.681-27.598-21.832     c-1.667-1.597-3.389-3.138-5.052-4.739c-0.55-0.53-1.037-1.139-1.478-1.764c-0.653-0.923-0.754-1.941-0.047-2.865     c0.735-0.961,1.795-0.943,2.804-0.558c0.77,0.294,1.512,0.709,2.194,1.177c11.828,8.108,22.778,17.289,33.125,27.201     c0.896,0.858,1.648,1.819,2.071,2.975C70.4,142.983,69.623,144.011,68.134,144.023z"/>
			<path d="M399.175,152.23c0.033-0.74,0.428-1.337,0.792-1.939c3.692-6.108,8.081-11.71,12.481-17.313     c6.499-8.273,13.05-16.502,19.853-24.528c0.954-1.125,1.917-2.244,2.921-3.323c0.717-0.771,1.619-1.154,2.565-0.447     c0.878,0.656,0.768,1.59,0.285,2.429c-0.638,1.11-1.345,2.182-2.066,3.241c-7.629,11.198-16.014,21.82-24.605,32.286     c-2.319,2.825-4.558,5.716-6.84,8.571c-0.808,1.011-1.725,1.927-2.899,2.488C400.225,154.381,399.082,153.671,399.175,152.23z"/>
			<path d="M43.7,198.084c-4.538-0.651-9.108-1.938-13.718-3.034c-8.933-2.124-17.621-5.024-26.191-8.293     c-1.01-0.385-2.078-0.689-2.898-1.464c-0.7-0.661-1.074-1.434-0.804-2.414c0.269-0.977,0.942-1.448,1.922-1.636     c0.913-0.175,1.784-0.036,2.666,0.135c12.687,2.458,24.952,6.353,37.021,10.908c1.134,0.428,2.213,1.012,3.291,1.574     c1.132,0.591,2.155,1.378,1.752,2.836C46.343,198.127,45.029,198.009,43.7,198.084z"/>
			<path d="M462.244,291.167c3.69,0.647,7.201,1.703,10.578,3.08c6.822,2.782,13.572,5.744,20.348,8.637     c2.77,1.183,5.548,2.35,8.294,3.587c1.404,0.632,2.647,1.506,2.167,3.355c-0.348,1.341-1.914,1.972-3.898,1.47     c-7.103-1.798-13.862-4.598-20.695-7.184c-5.834-2.208-11.246-5.292-16.824-8.032c-0.566-0.278-1.084-0.688-1.556-1.113     c-0.815-0.733-1.303-1.676-0.855-2.75C460.26,291.13,461.382,291.326,462.244,291.167z"/>
			<path d="M473.411,148.286c0.832-0.014,1.487,0.197,1.833,0.928c0.406,0.858,0.241,1.724-0.442,2.292     c-1.477,1.225-3.019,2.379-4.589,3.485c-9.281,6.542-18.924,12.561-28.051,19.328c-1.854,1.374-3.621,2.875-5.667,3.976     c-1.105,0.595-2.296,1.236-3.289-0.023c-1.017-1.289-0.256-2.479,0.671-3.416c2.348-2.372,4.911-4.509,7.541-6.566     c9.071-7.094,18.752-13.247,28.875-18.717C471.303,149.027,472.306,148.425,473.411,148.286z"/>
			<path d="M507.021,254.595c-13.514-0.401-26.974-1.494-40.389-3.148c-1.457-0.18-2.94-0.396-4.25-1.131     c-1.053-0.591-1.952-1.389-1.589-2.756c0.351-1.323,1.527-1.201,2.54-1.14c10.993,0.663,21.991,1.263,32.937,2.55     c4.134,0.486,8.279,0.883,12.403,1.436c1.439,0.193,3.492,0.146,3.316,2.341c-0.172,2.147-2.114,1.795-3.622,1.845     C507.919,254.608,507.47,254.595,507.021,254.595z"/>
			<path d="M37.151,240.104c1.371-0.233,3.722-0.033,6.051,0.506c1.095,0.253,2.231,0.6,2.221,1.982     c-0.01,1.313-1.119,1.604-2.15,1.789c-9.899,1.783-19.759,3.831-29.865,4.164c-2.621,0.086-5.231,0.462-7.849,0.683     c-0.573,0.048-1.158,0.048-1.73-0.006c-1.283-0.123-2.507-0.478-2.635-2.007c-0.116-1.392,0.894-2.052,2.071-2.405     c3.2-0.959,6.493-1.481,9.773-2.078C20.682,241.341,28.397,240.653,37.151,240.104z"/>
			<path d="M455.422,209.569c-1.153-0.042-1.982-0.143-2.66-0.709c-1.195-0.998-0.935-2.328,0.72-3.149     c3.167-1.571,6.539-2.653,9.894-3.707c9.478-2.979,19.004-5.807,28.509-8.702c0.893-0.272,1.806-0.554,2.374,0.476     c0.517,0.937,0.311,1.867-0.354,2.684c-0.625,0.768-1.47,1.236-2.363,1.608c-11.029,4.597-22.384,8.206-33.96,11.136     C456.78,209.409,455.944,209.483,455.422,209.569z"/>
			<path d="M15.269,311.397c-1.004-0.04-1.676-0.233-2.042-0.942c-0.393-0.763-0.28-1.537,0.263-2.155     c0.457-0.521,0.995-1.036,1.602-1.349c10.312-5.314,20.595-10.698,31.779-14.035c0.978-0.292,1.986-0.507,2.995-0.661     c0.709-0.108,1.472-0.035,1.793,0.768c0.297,0.743-0.001,1.421-0.575,1.898c-0.784,0.652-1.577,1.34-2.474,1.803     c-10.261,5.296-20.924,9.702-31.565,14.154C16.404,311.147,15.703,311.273,15.269,311.397z"/>
		</g>
	</g>
</g>
<g>
</g>
<g>
</g>
<g>
</g>
<g>
</g>
<g>
</g>
<g>
</g>
<g>
</g>
<g>
</g>
<g>
</g>
<g>
</g>
<g>
</g>
<g>
</g>
<g>
</g>
<g>
</g>
<g>
</g>
</svg>
