<?xml version="1.0" encoding="UTF-8"?>
<!-- Generator: Adobe Illustrator 27.3.1, SVG Export Plug-In . SVG Version: 6.00 Build 0)  -->
<svg xmlns="http://www.w3.org/2000/svg" xmlns:xlink="http://www.w3.org/1999/xlink" version="1.1" id="Capa_1" x="0px" y="0px" viewBox="0 0 512 512" style="enable-background:new 0 0 512 512;" xml:space="preserve" width="512" height="512">
<g>
	<path style="fill:#FFFFFF;" d="M189.379,471.815C65.747,475.274-17.151,318.661,34.736,211.604   c-2.642-6.327-19.15-34.366-21.079-40.003c-2.668-7.022-16.024-24.745-13.29-32.739c9.959-52.604,4.535-42.39,55.698-44.389   c15.917-39.429,72.063-48.152,99.854-16.029c89.978-52.592,216.572-56.098,293.258,21.407   c104.749,84.606,77.101,314.559-72.425,292.843C306.589,377.572,300.99,473.379,189.379,471.815z"/>
	<g>
		<g>
			<path style="fill:#977BFF;" d="M486.508,315.177c-45.072,83.307-87.516,60.096-126.466,59.866     c-10.764-0.076-21.274,1.633-31.477,7.805c-8.545,6.734-16.682,14.157-24.844,21.579c-21.911,19.896-43.975,39.817-74.099,46.296     C97.621,484.573,0.208,335.94,50.355,218.785C80.326,143.69,151.569,85.661,230.897,63.826c1.301-0.357,2.576-0.714,3.877-1.02     c1.99-0.536,3.979-1.046,5.995-1.505c0.204-0.051,0.408-0.102,0.612-0.153c0.204-0.026,0.434-0.102,0.638-0.128     c3.673-0.893,7.295-1.658,11.02-2.321c14.564-2.755,29.334-4.234,44.051-4.336c22.038-0.204,43.975,2.678,65.223,8.953     c0.357,0.102,0.714,0.204,1.072,0.306c0.102,0.026,0.178,0.051,0.28,0.102c2.066,0.612,4.132,1.275,6.173,1.99     c0.408,0.102,0.791,0.255,1.199,0.408c0.306,0.102,0.638,0.204,0.944,0.332c0.382,0.128,0.791,0.255,1.173,0.434     c0.077,0,0.128,0.026,0.179,0.051c0.255,0.076,0.51,0.179,0.765,0.281c0.026,0,0.026,0.025,0.026,0.025     c0.153,0.025,0.281,0.076,0.408,0.153c1.607,0.561,3.214,1.199,4.795,1.837c10.789,4.387,21.12,9.795,30.864,16.095     c0.944,0.612,1.862,1.224,2.755,1.811c9.999,6.708,19.334,14.361,27.905,22.753C494.211,162.183,518.469,244.062,486.508,315.177     z"/>
		</g>
		<g>
			<g>
				<g>
					<g>
						<polygon style="fill:#FFFFFF;" points="335.545,355.357 334.27,359.081 334.015,359.795 332.484,364.259 332.229,364.973         330.699,369.437 330.444,370.176 328.913,374.615 328.658,375.329 327.102,379.818 326.873,380.507 326.414,381.834         164.262,419.176 164.492,417.722 164.619,417.034 165.308,412.774 165.436,412.085 166.15,407.8 166.252,407.137         166.966,402.852 167.068,402.188 167.782,397.903 167.884,397.214 171.864,373.161 225.276,338.853       "/>
					</g>
					<g>
						<g>
							<g>
								<polygon style="fill:#302945;" points="334.27,359.081 334.015,359.795 167.782,397.903 167.884,397.214         "/>
							</g>
						</g>
						<g>
							<g>
								<polygon style="fill:#302945;" points="332.484,364.259 332.229,364.973 166.966,402.852 167.068,402.188         "/>
							</g>
						</g>
						<g>
							<g>
								<polygon style="fill:#302945;" points="330.699,369.437 330.444,370.176 166.15,407.8 166.252,407.137         "/>
							</g>
						</g>
						<g>
							<g>
								<polygon style="fill:#302945;" points="328.913,374.615 328.658,375.329 165.308,412.774 165.436,412.085         "/>
							</g>
						</g>
						<g>
							<g>
								<polygon style="fill:#302945;" points="327.102,379.818 326.873,380.507 164.492,417.722 164.619,417.034         "/>
							</g>
						</g>
					</g>
					<g>
						<polygon style="fill:#302945;" points="190.313,105.272 24.243,109.831 17.73,141.091 164.263,419.177 175.334,391.825         335.543,355.354       "/>
					</g>
					<g style="opacity:0.2;">
						<polygon style="fill:#977BFF;" points="190.313,105.272 24.243,109.831 17.73,141.091 164.263,419.177 175.334,391.825         335.543,355.354       "/>
					</g>
					<g>
						<path style="fill:#DBB0FF;" d="M175.335,392.463c-0.227,0-0.447-0.122-0.562-0.336L23.681,110.132        c-0.167-0.311-0.05-0.698,0.26-0.864c0.308-0.16,0.697-0.05,0.863,0.261l151.092,281.995c0.167,0.311,0.05,0.698-0.26,0.864        C175.54,392.438,175.437,392.463,175.335,392.463z"/>
					</g>
					<g>
						<path style="fill:#DBB0FF;" d="M31.625,167.997c-0.03,0-0.06-0.003-0.09-0.005c-0.349-0.05-0.592-0.371-0.543-0.72        l4.776-34.301c0.05-0.349,0.385-0.566,0.72-0.546c0.349,0.05,0.592,0.371,0.543,0.72l-4.777,34.301        C32.21,167.765,31.937,167.997,31.625,167.997z"/>
					</g>
					<g>
						<path style="fill:#DBB0FF;" d="M136.259,366.846c-0.08,0-0.161-0.015-0.238-0.047c-0.328-0.13-0.486-0.503-0.354-0.829        l10.854-26.917c0.132-0.324,0.508-0.488,0.829-0.351c0.328,0.13,0.486,0.503,0.354,0.829l-10.854,26.917        C136.75,366.694,136.51,366.846,136.259,366.846z"/>
					</g>
				</g>
				<g>
					<g>
						<g>
							<path style="fill:#DBB0FF;" d="M176.313,208.227c-11.088,3.75-25.012-3.146-31.108-15.466         c-2.499-5.061-3.298-10.23-2.593-14.835c6.332,4.182,13.855,5.727,20.403,3.567c6.549-2.146,10.644-7.487,11.653-14.027         c4.407,2.898,8.21,7.032,10.705,12.038C191.458,191.689,187.404,204.519,176.313,208.227z"/>
						</g>
						<g>
							<path style="fill:#DBB0FF;" d="M156.634,168.604c-11.097,3.63-25.038-3.472-31.145-15.926         c-1.096-2.238-1.875-4.49-2.325-6.698c7.045,8.552,18.072,12.857,27.193,9.909c9.124-2.92,13.476-12.11,11.371-22.142         c1.537,1.841,2.87,3.893,3.964,6.107C171.788,152.174,167.735,165.015,156.634,168.604z"/>
						</g>
					</g>
					<g>
						<g>
							<path style="fill:#DBB0FF;" d="M203.601,262.569c11.078-3.875,24.975,2.693,31.036,14.584         c2.483,4.861,3.268,9.863,2.555,14.362c-6.307-3.876-13.809-5.156-20.342-2.816c-6.533,2.354-10.617,7.82-11.624,14.379         c-4.39-2.692-8.18-6.663-10.668-11.578C188.485,279.474,192.526,266.485,203.601,262.569z"/>
						</g>
						<g>
							<path style="fill:#DBB0FF;" d="M223.196,301.157c11.068-3.994,24.949,2.368,30.999,14.124         c1.085,2.104,1.855,4.234,2.296,6.338c-6.993-7.907-17.968-11.576-27.06-8.259c-9.089,3.345-13.429,12.688-11.342,22.501         c-1.527-1.723-2.853-3.672-3.939-5.8C208.089,318.17,212.131,305.193,223.196,301.157z"/>
						</g>
					</g>
					<g>
						<path style="fill:#DBB0FF;" d="M198.188,256.44c-10.965,3.864-24.732-2.706-30.754-14.748        c-6.026-12.082-2.018-24.962,8.957-28.694c10.979-3.691,24.761,3.064,30.776,15.015        C213.179,239.923,209.157,252.618,198.188,256.44z"/>
					</g>
				</g>
				<g>
					<path style="fill:#DBB0FF;" d="M184.452,381.174c-0.232,0-0.451-0.127-0.563-0.339L44.954,119.466       c-0.105-0.194-0.1-0.431,0.014-0.623c0.112-0.192,0.316-0.309,0.538-0.314l140.672-2.606c0.221-0.01,0.45,0.12,0.564,0.321       l133.289,233.15c0.101,0.174,0.112,0.389,0.031,0.573c-0.081,0.184-0.245,0.321-0.442,0.366l-135.027,30.826       C184.546,381.169,184.499,381.174,184.452,381.174z M46.568,119.784l138.218,260.022l133.713-30.527L185.823,117.206       L46.568,119.784z"/>
				</g>
			</g>
			<g>
				<g>
					<g>
						<g>
							<polygon style="fill:#9DD1A9;" points="241.979,300.202 233.415,333.111 253.047,381.448 276.821,394.126 287.234,365.919          267.363,315.379        "/>
						</g>
						<g>
							<g>
								<path style="fill:#302945;" d="M276.822,394.366c-0.057,0-0.113-0.02-0.159-0.06l-16.733-14.856          c-0.027-0.025-0.049-0.055-0.062-0.09l-20.263-50.385c-0.014-0.035-0.02-0.072-0.017-0.107l2.153-28.683          c0.009-0.112,0.095-0.204,0.206-0.219c0.112-0.022,0.219,0.047,0.258,0.155l34.842,93.924          c0.039,0.102,0.001,0.217-0.088,0.279C276.916,394.354,276.869,394.366,276.822,394.366z M260.289,379.129l15.975,14.184          l-34.128-91.999l-2.068,27.535L260.289,379.129z"/>
							</g>
							<g>
								<path style="fill:#302945;" d="M233.415,333.35c-0.076,0-0.151-0.035-0.197-0.102c-0.075-0.11-0.049-0.259,0.061-0.334          c0.186-0.13,18.753-12.903,34.01-17.763c0.126-0.04,0.262,0.03,0.3,0.157c0.04,0.125-0.03,0.259-0.156,0.301          c-15.189,4.837-33.698,17.571-33.883,17.698C233.51,333.337,233.463,333.35,233.415,333.35z"/>
							</g>
							<g>
								<path style="fill:#302945;" d="M253.047,381.687c-0.106,0-0.202-0.07-0.232-0.177c-0.034-0.127,0.041-0.259,0.169-0.294          c0.215-0.057,21.674-5.938,34.104-15.486c0.105-0.085,0.258-0.06,0.335,0.042c0.081,0.107,0.061,0.257-0.044,0.336          c-12.506,9.608-34.054,15.511-34.271,15.571C253.088,381.685,253.068,381.687,253.047,381.687z"/>
							</g>
							<g>
								<path style="fill:#302945;" d="M276.822,394.366c-0.015,0-0.031,0-0.047-0.005c-0.129-0.025-0.213-0.152-0.187-0.281          l4.983-24.653l-20.742-51.695l-18.965-17.287c-0.097-0.09-0.105-0.242-0.015-0.339c0.088-0.1,0.24-0.105,0.339-0.015          l19.004,17.325c0.027,0.025,0.049,0.055,0.061,0.087l20.79,51.812c0.017,0.045,0.022,0.092,0.012,0.137l-4.998,24.723          C277.033,394.289,276.934,394.366,276.822,394.366z"/>
							</g>
						</g>
					</g>
					<g>
						<g>
							<path style="fill:#F7EDE5;" d="M263.598,323.346L263.598,323.346c1.35-0.51,2.863,0.135,3.43,1.462l2.857,6.687         c0.69,1.615-0.324,3.448-2.059,3.721l-0.2,0.031c-1.246,0.196-2.461-0.498-2.924-1.671l-2.657-6.718         C261.49,325.459,262.19,323.877,263.598,323.346z"/>
						</g>
						<g>
							<path style="fill:#F7EDE5;" d="M273.961,340.956c0.87,1.351,0.48,3.152-0.872,4.022c-1.351,0.87-3.152,0.48-4.022-0.872         c-0.87-1.352-0.48-3.152,0.871-4.023C271.29,339.215,273.091,339.605,273.961,340.956z"/>
						</g>
					</g>
				</g>
				<g>
					<path style="fill:#F7EDE5;" d="M204.015,234.501c-1.964-1.02-3.979-1.939-5.994-2.882c-6.453-2.984-13.085-6.071-17.218-11.657       c-4.413-5.969-5.28-13.723-5.841-21.835c-0.281-4.336-0.536-8.698-0.791-13.06c-1.199-20.763-2.449-42.215-8.366-62.468       c-3.954-13.545-13.876-37.573-35.813-46.449c-11.989-4.847-25.967-4.158-37.42,1.862c-11.453,6.02-19.947,17.141-22.753,29.767       c-0.077,0.281,0,0.561,0.178,0.791l1.632-0.051c5.51-4.515,12.422-6.3,19.998-5.153c6.657,0.995,13.468,3.954,20.814,9.055       c14.437,9.999,24.283,23.492,27.778,38.032c1.275,5.28,1.786,10.968,2.27,16.452c0.944,10.509,1.913,21.35,8.239,29.92       c3.087,4.132,7.219,7.448,11.249,10.662c5.739,4.591,11.147,8.928,13.519,15.406c1.224,3.367,1.454,6.913,1.684,10.662       c0.179,2.398,0.332,4.898,0.791,7.321c2.347,12.677,12.626,23.926,28.16,30.838c2.576,1.148,5.229,2.168,7.805,3.137       c4.642,1.786,9.463,3.622,13.748,6.198c5.994,3.622,12.371,11.376,12.907,19.233c0.025,0.51,0.459,0.893,0.944,0.893       c0.025,0,0.025,0,0.025,0c0.536-0.026,0.944-0.434,0.944-0.944C242.787,273.858,226.615,246.208,204.015,234.501z        M228.655,279.419c-4.413-2.653-9.31-4.54-14.029-6.351c-2.551-0.969-5.178-1.99-7.703-3.087       c-14.743-6.555-24.87-17.575-27.089-29.461c-0.408-2.321-0.587-4.744-0.74-7.091c-0.229-3.724-0.485-7.576-1.811-11.198       c-2.551-6.964-8.418-11.682-14.106-16.223c-3.928-3.137-7.984-6.377-10.892-10.331c-6.02-8.137-6.912-18.238-7.882-28.925       c-0.485-5.561-0.995-11.325-2.321-16.758c-3.597-14.973-13.723-28.874-28.543-39.154c-7.601-5.255-14.692-8.341-21.63-9.387       c-1.582-0.229-3.137-0.357-4.668-0.357c-5.459,0-10.509,1.531-14.896,4.489c3.214-10.994,10.968-20.534,21.12-25.89       c10.943-5.739,24.334-6.402,35.813-1.785c21.197,8.596,30.838,32.012,34.69,45.225c5.841,20.049,7.091,41.399,8.29,62.034       c0.255,4.387,0.51,8.749,0.816,13.085c0.561,8.392,1.454,16.452,6.173,22.855c4.438,5.969,11.3,9.157,17.957,12.244       c1.99,0.918,4.005,1.862,5.918,2.857c19.641,10.178,34.308,32.701,37.011,55.708       C237.71,286.969,233.578,282.378,228.655,279.419z"/>
				</g>
				<g>
					<polygon style="fill:#F7EDE5;" points="240.809,297.387 235.467,316.279 259.346,306.945      "/>
				</g>
			</g>
		</g>
		<g>
			<g>
				<g>
					<g>
						<g>
							<path style="fill:#DBB0FF;" d="M374.122,67.244c-0.382,1.479-0.74,2.959-1.122,4.413c0,0.025-0.025,0.051-0.025,0.076         c-1.173,4.54-2.398,9.055-3.673,13.595c-0.153,0.587-0.331,1.148-0.51,1.734c0,0,0,0,0,0.026         c0,0.026-0.026,0.077-0.026,0.128c-0.026,0.025-0.026,0.076-0.051,0.127c0,0.026,0,0.051,0,0.051         c-0.102,0.332-0.204,0.663-0.306,0.995c-0.229,0.867-0.485,1.735-0.765,2.602c-0.204,0.791-0.459,1.607-0.689,2.398         c-0.026,0.025-0.026,0.051-0.026,0.051c-0.051,0.255-0.153,0.51-0.229,0.765c-0.255,0.842-0.51,1.683-0.765,2.525v0.025         c-0.74,2.398-1.505,4.795-2.296,7.193c-0.025,0.026-0.025,0.051-0.025,0.076c-0.128,0.459-0.281,0.944-0.459,1.403         c-2.602,7.958-5.433,15.866-8.494,23.646c-1.505,3.826-3.061,7.627-4.693,11.402c-7.882,18.238-17.218,35.736-28.39,51.806         c0,0.025,0,0.025-0.026,0.025c-3.29,4.795-6.785,9.438-10.458,13.953c-6.76,8.316-14.157,16.274-23.059,22.217         c-8.672,5.816-19.105,7.193-29.538,6.836c-0.281,0-0.587-0.025-0.867-0.025c0.102-0.408,0.204-0.842,0.306-1.25         c0,0,0,0,0.026-0.025c4.591-18.62,16.376-34.716,29.665-48.592c13.57-14.182,28.951-26.553,42.291-40.991         c7.295-7.907,13.927-16.401,19.845-25.38c4.158-6.3,7.958-12.83,11.351-19.564c0.026-0.025,0.026-0.051,0.026-0.051         c0.944-1.811,1.836-3.673,2.729-5.535c0.408-0.893,0.816-1.76,1.224-2.678c-0.026-0.026-0.026-0.026,0-0.026         c0.128-0.255,0.255-0.51,0.357-0.765v-0.025c0.408-0.918,0.816-1.862,1.224-2.78c0.077-0.153,0.128-0.306,0.179-0.459         c0.026-0.025,0.026-0.025,0.026-0.025c0.229-0.561,0.459-1.097,0.663-1.658l0.025-0.025c0.026-0.051,0.051-0.077,0.051-0.128         c0.025-0.025,0.051-0.051,0.025-0.076c0.051-0.051,0.077-0.128,0.077-0.178c0.102-0.179,0.179-0.383,0.23-0.561         c0.026-0.025,0.051-0.076,0.051-0.102c0.433-1.02,0.842-2.066,1.224-3.087c1.811-4.642,3.443-9.336,4.872-14.106         C374.122,67.219,374.122,67.244,374.122,67.244z"/>
						</g>
					</g>
					<g>
						<g>
							<path style="fill:#302945;" d="M374.53,67.397c-0.485,1.403-0.995,2.831-1.531,4.26c0,0.025-0.025,0.051-0.025,0.076         c-1.224,3.367-2.5,6.811-3.801,10.203c-0.382,0.969-0.74,1.939-1.122,2.882c-0.051,0.153-0.102,0.281-0.178,0.434         c0,0.076-0.025,0.128-0.077,0.204c-0.077,0.229-0.179,0.485-0.255,0.714c-0.025,0.051-0.025,0.076-0.051,0.128         c0,0.025,0,0.025,0,0.025c-0.077,0.179-0.153,0.332-0.204,0.51c-0.051,0.102-0.102,0.204-0.128,0.306         c-0.077,0.178-0.127,0.332-0.204,0.51c-0.153,0.408-0.332,0.791-0.485,1.199c0,0,0.026,0,0,0.025         c-0.332,0.816-0.638,1.581-0.969,2.398v0.026c-0.204,0.51-0.434,1.02-0.638,1.556c0,0-0.025,0-0.025,0.025         c-0.791,1.939-1.582,3.852-2.347,5.637c-1.683,3.826-3.265,7.168-4.719,9.795v0.025c-0.383,0.714-0.765,1.377-1.123,1.964         c-6.402,10.509-28.594,46.322-44.791,66.523c-14.182,17.677-49.332,54.255-53.362,58.489         c-0.255,0.255-0.383,0.383-0.408,0.408c-0.128,0.128-0.281,0.204-0.459,0.204c-0.153,0-0.306-0.077-0.433-0.179         c-0.255-0.255-0.255-0.663-0.026-0.918c0.026-0.025,0.306-0.306,0.765-0.791c0,0,0,0,0.026-0.025         c5.535-5.765,39.129-40.837,52.903-58.004c12.805-15.968,29.359-41.73,38.899-56.958c2.474-3.979,4.464-7.244,5.79-9.412         c2.142-3.494,4.744-9.106,7.448-15.636c0.765-1.811,1.53-3.673,2.296-5.586V88.39c0.102-0.332,0.229-0.663,0.357-0.969         c0-0.025,0.026-0.025,0.026-0.025c0.025-0.128,0.077-0.204,0.128-0.332c0.128-0.306,0.255-0.638,0.357-0.944         c0.128-0.281,0.23-0.536,0.332-0.816c0-0.026,0.026-0.076,0.026-0.102c0.281-0.689,0.561-1.403,0.816-2.092         c0.025-0.051,0.051-0.102,0.051-0.153c0,0,0.026,0,0.026-0.025c0-0.026,0.025-0.051,0.025-0.076         c0.153-0.383,0.306-0.791,0.434-1.173c0.025-0.026,0.051-0.077,0.051-0.102c0,0,0-0.025,0-0.051         c0.587-1.505,1.148-2.984,1.709-4.489c0.919-2.449,1.811-4.872,2.679-7.244c0-0.026,0.025-0.051,0.025-0.051         c0.332-0.944,0.663-1.888,0.995-2.806c0.255,0.076,0.51,0.179,0.765,0.281c0.026,0,0.026,0.025,0.026,0.025         C374.275,67.27,374.402,67.321,374.53,67.397z"/>
						</g>
					</g>
				</g>
				<g>
					<g>
						<path style="fill:#DBB0FF;" d="M366.579,81.465c-2.359,10.038-5.956,19.74-9.775,29.318        c-12.794,32.087-28.176,63.097-40.824,95.242c-12.648,32.145-22.608,65.808-23.874,100.328        c10.875-5.202,17.191-16.458,23.3-26.851c6.451-10.976,12.914-21.975,18.232-33.541        C356.977,195.205,357.619,136.606,366.579,81.465z"/>
					</g>
				</g>
				<g style="opacity:0.26;">
					<g>
						<path style="fill:#977BFF;" d="M366.579,81.465c-2.359,10.038-5.956,19.74-9.775,29.318        c-12.794,32.087-28.176,63.097-40.824,95.242c-12.648,32.145-22.608,65.808-23.874,100.328        c10.875-5.202,17.191-16.458,23.3-26.851c6.451-10.976,12.914-21.975,18.232-33.541        C356.977,195.205,357.619,136.606,366.579,81.465z"/>
					</g>
				</g>
				<g>
					<g>
						<path style="fill:#302945;" d="M373.152,66.887c-0.255,0.918-0.535,1.862-0.816,2.857c0,0-0.025,0.025-0.025,0.051        c-0.919,3.112-1.913,6.504-2.959,10.075c-0.434,1.479-0.893,2.984-1.352,4.54c-0.025,0.025-0.025,0.076-0.025,0.127        c-0.077,0.23-0.153,0.459-0.23,0.689c0,0,0,0,0,0.025c-0.051,0.204-0.127,0.408-0.178,0.612        c-0.025,0.051-0.025,0.128-0.051,0.204c-0.077,0.255-0.153,0.51-0.23,0.765c-0.026,0.102-0.076,0.204-0.102,0.306        c-0.051,0.204-0.128,0.408-0.204,0.638c-0.23,0.867-0.51,1.76-0.765,2.653c-0.204,0.689-0.408,1.377-0.612,2.066        c-0.434,1.428-0.868,2.882-1.301,4.336c-1.939,6.453-3.903,13.009-5.765,19.233c-1.377,4.642-2.678,9.03-3.877,13.009        c-2.27,7.601-4.055,13.646-4.923,16.682c-4.055,14.131-30.303,93.74-37.7,110.932c-5.612,13.085-14.208,37.649-18.008,48.643        c0,0,0,0,0,0.025c-1.148,3.341-1.862,5.433-1.888,5.535c-0.102,0.255-0.357,0.434-0.612,0.434        c-0.076,0-0.127-0.026-0.204-0.051c-0.332-0.102-0.51-0.459-0.408-0.791c0.026-0.077,0.561-1.658,1.454-4.26c0,0,0,0,0-0.026        c3.52-10.228,12.626-36.323,18.493-49.995c7.397-17.167,33.593-96.699,37.649-110.805c0.332-1.199,0.842-2.882,1.454-4.923        c1.709-5.867,4.387-14.82,7.371-24.768c1.633-5.433,3.392-11.3,5.152-17.192c0.459-1.53,0.918-3.086,1.378-4.617        c0.484-1.658,0.969-3.316,1.454-4.974c0.077-0.23,0.153-0.485,0.23-0.714c0.102-0.383,0.23-0.765,0.332-1.148        c0.102-0.306,0.204-0.638,0.281-0.944c0.102-0.306,0.178-0.612,0.281-0.918c0-0.025,0-0.051,0.025-0.051        c0.255-0.867,0.51-1.735,0.765-2.602c0.025-0.051,0.025-0.128,0.051-0.179c0.128-0.434,0.255-0.867,0.383-1.301        c0.127-0.434,0.255-0.842,0.357-1.25c0.051-0.076,0.051-0.153,0.077-0.23c0.714-2.398,1.403-4.719,2.066-6.938        c0.612-2.168,1.224-4.26,1.811-6.198C372.362,66.581,372.77,66.709,373.152,66.887z"/>
					</g>
				</g>
				<g>
					<g>
						<g>
							<path style="fill:#DBB0FF;" d="M368.622,73.6c-3.1,28.184-10.928,55.601-18.565,82.907         c-7.637,27.306-15.148,54.841-17.59,83.09c-2.441,28.249,0.442,57.531,12.774,83.063         c20.289-46.278,27.758-100.942,23.699-151.31c-0.765-9.495-1.972-18.954-2.574-28.461         C364.868,119.271,366.384,97.16,368.622,73.6z"/>
						</g>
					</g>
					<g>
						<g>
							<path style="fill:#302945;" d="M371.036,66.122c-0.306,2.194-0.612,4.413-0.867,6.53c-0.204,1.53-0.383,2.984-0.536,4.387         c-0.102,0.995-0.204,1.939-0.281,2.831c-0.051,0.51-0.102,0.995-0.128,1.454c-0.026,0.204-0.026,0.408-0.051,0.612         c-0.026,0.281-0.026,0.536-0.051,0.791c-0.051,0.638-0.102,1.505-0.23,2.576c-0.026,0.51-0.077,1.046-0.153,1.632         c0,0.076,0,0.179-0.025,0.281v0.127c0,0.026,0,0.051,0,0.051c-0.051,0.51-0.102,1.071-0.179,1.632         c-0.128,1.224-0.255,2.576-0.434,4.03c0,0,0,0,0,0.026c-0.408,3.648-0.892,8.009-1.479,12.83         c-0.204,1.76-0.408,3.571-0.638,5.459c-4.234,35.379-11.249,89.863-11.657,93.051c-2.908,22.498-7.601,103.56-8.341,116.518         c-0.077,1.071-0.102,1.684-0.102,1.76c-0.025,0.332-0.306,0.587-0.638,0.587c-0.025,0-0.025,0-0.051,0         c-0.332,0-0.613-0.306-0.587-0.663c0-0.051,0.026-0.459,0.077-1.199c0,0,0,0,0-0.025c0.612-11.07,5.433-94.25,8.392-117.156         c0.459-3.545,9.208-71.676,13.034-104.938c0.204-1.811,0.408-3.52,0.587-5.102c0.204-1.862,0.382-3.571,0.561-5.076         c0-0.025,0-0.051,0-0.051c0-0.204,0.026-0.357,0.051-0.536c0.051-0.485,0.102-0.944,0.128-1.377         c0.051-0.357,0.077-0.663,0.102-0.995c0.025-0.102,0.025-0.204,0.025-0.306c0.026-0.179,0.051-0.357,0.051-0.536         c0-0.025,0.025-0.051,0-0.076c0.025-0.153,0.051-0.306,0.051-0.434c0.025-0.332,0.051-0.638,0.102-0.918         c0.026-0.485,0.051-0.893,0.077-1.25c0.025-0.332,0.051-0.689,0.076-1.071c0,0,0-0.025,0-0.051         c0.051-0.612,0.102-1.25,0.178-1.939c0.383-4.005,1.021-8.979,1.735-13.876C370.245,65.816,370.627,65.969,371.036,66.122z"/>
						</g>
					</g>
				</g>
				<g>
					<g>
						<g>
							<g>
								<path style="fill:#DBB0FF;" d="M363.598,66.171c2.683,35.125,5.366,70.25,8.049,105.374          c0.989,12.951,1.987,25.96,4.913,38.615c2.926,12.655,7.88,25.041,16.049,35.14c6.357,7.859,14.449,14.099,22.461,20.262          c-4.484-25.389,1.655-50.418-2.431-75.874C405.538,145.44,370.122,110.509,363.598,66.171z"/>
							</g>
						</g>
						<g style="opacity:0.26;">
							<g>
								<path style="fill:#977BFF;" d="M363.598,66.171c2.683,35.125,5.366,70.25,8.049,105.374          c0.989,12.951,1.987,25.96,4.913,38.615c2.926,12.655,7.88,25.041,16.049,35.14c6.357,7.859,14.449,14.099,22.461,20.262          c-4.484-25.389,1.655-50.418-2.431-75.874C405.538,145.44,370.122,110.509,363.598,66.171z"/>
							</g>
						</g>
					</g>
					<g>
						<g>
							<path style="fill:#302945;" d="M415.367,266.126c-0.077,0.051-0.204,0.077-0.306,0.077c-0.204,0-0.434-0.128-0.561-0.332         c-0.179-0.332-0.383-0.74-0.561-1.173c-2.857-7.015-5.025-26.604-6.938-44.026c-0.791-7.244-1.556-14.08-2.296-19.411         c-0.714-5.102-2.219-10.101-3.698-14.82c-3.75-11.963-8.673-23.696-13.443-35.073c-5.459-12.983-11.096-26.426-15.024-40.251         c-1.683-5.943-3.137-11.989-4.438-18.034c0-0.026,0-0.026,0-0.026c-0.153-0.689-0.306-1.377-0.459-2.066         c-0.127-0.638-0.255-1.25-0.383-1.862c0-0.025,0-0.051,0-0.051c-0.102-0.434-0.204-0.867-0.281-1.301         c0-0.051-0.025-0.102-0.025-0.128c-0.026-0.178-0.076-0.332-0.102-0.485c0-0.025,0-0.025,0-0.025         c-0.025-0.102-0.051-0.204-0.051-0.281c-0.128-0.536-0.229-1.046-0.306-1.556c-0.026-0.051-0.026-0.076-0.026-0.102         c-0.025-0.025,0-0.051,0-0.051c-0.102-0.434-0.204-0.867-0.255-1.275c-0.051-0.179-0.102-0.357-0.127-0.536         c-0.689-3.469-1.327-6.912-1.99-10.33c-0.229-1.326-0.485-2.627-0.714-3.928c-0.357-1.938-0.715-3.852-1.072-5.765         c0.357,0.102,0.714,0.204,1.072,0.306c0.102,0.026,0.178,0.051,0.28,0.102c0.332,1.709,0.638,3.418,0.97,5.127         c0.765,4.158,1.556,8.366,2.372,12.601c0.077,0.357,0.153,0.74,0.23,1.097c0.025,0.204,0.076,0.383,0.102,0.561         c0,0.051,0.025,0.102,0.025,0.128c0.102,0.459,0.178,0.918,0.255,1.377c0.025,0.076,0.051,0.153,0.051,0.204         c0.025,0.102,0.051,0.179,0.051,0.255c0.025,0.051,0.025,0.102,0.025,0.153c0.026,0.025,0.026,0.025,0.026,0.025         c0,0.076,0.026,0.153,0.026,0.204c0.128,0.587,0.229,1.173,0.357,1.734c0.076,0.408,0.179,0.791,0.255,1.199         c0.026,0.204,0.077,0.434,0.128,0.638c1.531,7.295,3.214,14.59,5.255,21.732c3.903,13.774,9.515,27.166,14.948,40.123         c4.77,11.376,9.718,23.161,13.493,35.175c1.505,4.77,3.01,9.846,3.724,15.049c0.765,5.331,1.505,12.193,2.321,19.437         c1.786,16.248,3.801,34.41,6.326,42.189c0,0.026,0,0.026,0,0.026c0.332,1.02,0.663,1.862,1.02,2.5         C415.801,265.565,415.699,265.948,415.367,266.126z"/>
						</g>
					</g>
				</g>
			</g>
			<g>
				<g>
					<path style="fill:#302945;" d="M412.944,87.14c-7.652,0.434-15.305,0.638-22.983,0.638c-7.04,0-14.055-0.178-21.095-0.536       h-0.025c-0.026,0-0.051,0-0.077-0.025c0,0-0.026,0.025-0.051,0c-0.179,0-0.357,0-0.561-0.026c-0.23,0-0.459,0-0.715-0.025       c0,0,0,0-0.025,0c-0.076,0-0.153,0-0.229-0.025h-0.306c0,0,0,0-0.026,0h-0.102c-0.281-0.026-0.561-0.051-0.867-0.077       c-0.025,0.026-0.051,0.026-0.076,0c-0.025,0.026-0.051,0-0.102,0c-0.153,0-0.332,0-0.51-0.025h-0.076       c-1.939-0.102-3.903-0.229-5.867-0.383c-35.404-2.576-70.401-9.642-102.948-16.886c-8.392-1.862-16.886-3.826-25.405-5.943       c1.301-0.357,2.576-0.714,3.877-1.02c7.372,1.785,14.692,3.469,21.937,5.076c32.471,7.244,67.391,14.31,102.668,16.86       c1.887,0.128,3.775,0.255,5.662,0.357c0.204,0.025,0.408,0.025,0.612,0.051h0.357c0.153,0.025,0.281,0.025,0.434,0.051h0.025       c0.026,0,0.026,0,0.051,0c0.179,0,0.357,0.026,0.536,0.026c0.153,0,0.331,0.025,0.51,0.025c0.026,0,0.026,0,0.051,0h0.153       c0.026,0.025,0.077,0.025,0.102,0c0.102,0.025,0.229,0.025,0.332,0.025c0.229,0.026,0.459,0.026,0.689,0.026       c0.128,0.025,0.281,0.025,0.408,0.025c13.672,0.689,27.319,0.689,40.889,0C411.133,85.941,412.051,86.554,412.944,87.14z"/>
				</g>
			</g>
		</g>
		<g>
			<g>
				<g>
					<g>
						<path style="fill:#F7EDE5;" d="M431.236,368.593h-86.292c0.414-2.965,3.364-3.814,5.841-4.821        c7.776-3.629,8.841-13.539,9.055-21.171l0.026-0.025c0.424-5.634,6.959-92.406,7.219-95.347        c6.532,10.25,21.491,8.429,32.341,4.41c5.005-1.375,13.299-2.087,16.812-4.435l6.453,105.729        c0.587,1.148,1.352,2.168,2.398,2.933C430.348,357.975,433.282,363.012,431.236,368.593z"/>
					</g>
				</g>
				<g>
					<g>
						<g>
							<g>
								<path style="fill:#302945;" d="M367.073,247.213c0,0,4.545,8.677,17.973,10.123c13.429,1.446,31.195-10.123,31.195-10.123          H367.073z"/>
							</g>
						</g>
					</g>
					<g>
						<g>
							<g>
								<path style="fill:#302945;" d="M367.082,247.209v0.018c-0.018-0.018-0.018-0.018-0.018-0.018H367.082z"/>
							</g>
						</g>
					</g>
					<g>
						<g>
							<g>
								<g>
									<path style="fill:#302945;" d="M396.707,273.866c0.081,0.874,0,1.78-0.291,2.622c-0.34,1.003-1.068,1.91-2.055,2.379           c-0.955,0.518-2.233,0.501-3.172-0.146c-0.939-0.631-1.521-1.602-1.91-2.606c-1.472-4.159-0.081-8.48-0.372-12.493           c-0.113-0.971-0.194-2.088-0.615-2.8c-0.226-0.356-0.453-0.469-0.712-0.405c-0.291,0.081-0.647,0.405-0.874,0.761           c-0.469,0.744-0.599,1.764-0.825,2.816c-0.243,1.085-0.745,2.217-1.829,2.945c-0.551,0.356-1.343,0.469-1.991,0.211           c-0.664-0.259-1.117-0.809-1.392-1.343c-0.566-1.116-0.453-2.33-0.534-3.285c-0.032-0.485-0.113-0.939-0.291-1.311           c-0.145-0.324-0.453-0.631-0.793-0.777c-0.728-0.307-1.133,0.049-1.197,1.02c-0.097,1.958,0.243,4.029,0.469,6.101           c0.13,1.052,0.21,2.12,0.194,3.188c-0.016,1.068-0.081,2.201-0.55,3.285c-0.243,0.518-0.55,1.052-1.036,1.456           c-0.469,0.437-1.149,0.68-1.812,0.664c-1.343-0.097-2.266-0.971-2.945-1.861c-1.359-1.877-1.586-4.159-1.586-6.263           c-0.016-2.104,0.307-4.256,0.809-6.263c0.097-0.485,0.145-0.971,0.048-1.392c-0.113-0.405-0.388-0.809-0.728-0.955           c-0.324-0.194-0.777,0.016-1.408,0c-0.599-0.016-1.165-0.243-1.618-0.582c-0.647-0.453-1.084-1.133-1.359-1.845           l0.113-1.375c0.016,0.113,0.032,0.211,0.065,0.324c0.227,0.971,0.712,1.893,1.521,2.411           c0.388,0.275,0.841,0.437,1.294,0.437c0.372,0.032,1.004-0.292,1.667,0c0.615,0.275,0.971,0.825,1.149,1.408           c0.162,0.599,0.097,1.181,0.016,1.715c-0.469,2.039-0.695,4.061-0.647,6.117c0.065,2.007,0.372,4.094,1.505,5.648           c0.566,0.745,1.359,1.376,2.152,1.392c0.777,0.049,1.424-0.615,1.78-1.473c0.372-0.858,0.437-1.845,0.453-2.848           c0-1.003-0.097-2.023-0.227-3.042c-0.243-2.055-0.615-4.127-0.534-6.344c0.048-0.55,0.178-1.294,0.793-1.812           c0.631-0.55,1.537-0.469,2.104-0.194c0.599,0.291,1.1,0.745,1.376,1.376c0.259,0.583,0.34,1.165,0.388,1.715           c0.065,1.116-0.016,2.071,0.388,2.864c0.356,0.793,1.117,1.116,1.78,0.68c0.68-0.421,1.165-1.311,1.359-2.233           c0.243-0.971,0.356-2.088,0.987-3.14c0.34-0.501,0.777-0.971,1.489-1.197c0.356-0.097,0.809-0.048,1.132,0.146           c0.356,0.194,0.567,0.469,0.728,0.744c0.324,0.55,0.437,1.133,0.502,1.651c0.097,0.534,0.13,1.084,0.162,1.618           c0.178,4.256-1.279,8.415,0.016,12.348c0.308,0.939,0.825,1.845,1.602,2.427c0.777,0.583,1.861,0.648,2.783,0.227           c0.906-0.388,1.635-1.198,2.007-2.153C396.577,275.614,396.707,274.74,396.707,273.866z"/>
								</g>
							</g>
						</g>
						<g>
							<g>
								<g>
									<path style="fill:#302945;" d="M400.247,261.817c-0.105-1.023,0.315-2.174,1.284-2.767           c0.487-0.282,1.129-0.338,1.667-0.101c0.54,0.229,0.958,0.661,1.243,1.15c0.576,1.026,0.5,2.191,0.46,3.21           c-0.055,1.024-0.034,2.032,0.072,3.04c0.122,0.992,0.26,2.041,0.582,2.89c0.299,0.845,1.065,1.447,1.775,1.373           c0.644-0.054,1.284-0.955,1.636-1.78c0.364-0.86,0.497-1.832,0.493-2.806c0.076-1.924-0.746-4.009-0.198-6.308           c0.179-0.516,0.263-1.186,1.065-1.649c0.354-0.196,0.897-0.163,1.215,0.023c0.331,0.171,0.546,0.383,0.745,0.577           c0.384,0.39,0.709,0.764,1.034,0.948c0.281,0.181,0.653,0.166,1.019-0.018c0.755-0.354,1.069-1.3,1.182-2.287           c0.117-1.009,0.195-2.045,0.255-3.071c0.155-2.058,0.154-4.125,0.115-6.199c0.313,2.053,0.434,4.132,0.48,6.215           c0.004,1.044-0.024,2.077-0.087,3.131c-0.04,0.532-0.113,1.089-0.329,1.638c-0.204,0.543-0.617,1.085-1.167,1.391           c-0.525,0.323-1.316,0.444-1.948,0.096c-0.588-0.321-0.935-0.767-1.288-1.096c-0.171-0.166-0.344-0.309-0.477-0.371           c-0.14-0.057-0.168-0.057-0.279-0.008c-0.156,0.042-0.362,0.507-0.462,0.95c-0.44,1.814,0.344,3.836,0.34,6.043           c-0.016,1.09-0.18,2.213-0.643,3.259c-0.231,0.522-0.536,1.012-0.914,1.457c-0.377,0.436-0.942,0.891-1.669,0.96           c-1.435,0.109-2.491-1.012-2.865-2.085c-0.401-1.1-0.459-2.141-0.533-3.202c-0.056-1.058-0.019-2.126,0.093-3.166           c0.104-1.016,0.19-2.036-0.221-2.879c-0.359-0.857-1.34-1.486-2.24-1.042C400.819,259.763,400.265,260.793,400.247,261.817           z"/>
								</g>
							</g>
						</g>
					</g>
				</g>
				<g>
					<g>
						<g>
							<g>
								<path style="fill:#FFA352;" d="M390.976,247.651c-3.106-1.399-4.839-4.756-5.786-8.029          c-2.479-8.575-0.814-18.539,5.306-25.038c2.46,3.6,5.027,7.082,6.289,11.255          C398.997,233.153,396.342,242.211,390.976,247.651z"/>
							</g>
						</g>
					</g>
					<g>
						<g>
							<g>
								<path style="fill:#F7EDE5;" d="M390.922,247.663c-1.996-0.899-3.109-3.056-3.717-5.159          c-1.593-5.51-0.523-11.912,3.409-16.087c1.581,2.313,3.23,4.55,4.041,7.232C396.076,238.348,394.37,244.167,390.922,247.663          z"/>
							</g>
						</g>
					</g>
					<g>
						<g>
							<g>
								<rect x="390.219" y="235.644" style="fill:#302945;" width="0.81" height="17.079"/>
							</g>
						</g>
					</g>
				</g>
			</g>
			<g style="opacity:0.2;">
				
					<ellipse transform="matrix(0.2298 -0.9732 0.9732 0.2298 61.8805 560.3077)" style="fill:#F7EDE5;" cx="384.93" cy="241.059" rx="77.825" ry="77.825"/>
			</g>
			<g style="opacity:0.2;">
				
					<ellipse transform="matrix(0.2298 -0.9732 0.9732 0.2298 61.8805 560.3076)" style="fill:#F7EDE5;" cx="384.93" cy="241.059" rx="55.031" ry="55.031"/>
			</g>
		</g>
		<g>
			<g>
				<polygon style="fill:#F7EDE5;" points="275.41,118.022 278.074,74.51 280.147,118.318 291.098,109.438 284.586,119.798       307.97,122.757 285.178,125.718 291.69,134.894 280.739,128.974 277.778,166.861 275.41,129.565 264.162,134.302       271.266,125.718 242.851,121.869 270.97,120.685 264.458,110.918     "/>
			</g>
			<g>
				<polygon style="fill:#F7EDE5;" points="105.592,338.165 108.256,294.653 110.328,338.461 121.28,329.581 114.768,339.941       138.152,342.901 115.36,345.861 121.871,355.037 110.92,349.117 107.959,387.005 105.592,349.709 94.344,354.445       101.448,345.861 73.032,342.013 101.151,340.829 94.64,331.061     "/>
			</g>
			<g>
				<polygon style="fill:#F7EDE5;" points="452.434,252.576 455.098,209.064 457.17,252.872 468.122,243.992 461.61,254.352       484.994,257.311 462.202,260.271 468.714,269.448 457.762,263.527 454.802,301.415 452.434,264.119 441.186,268.855       448.29,260.271 419.874,256.423 447.994,255.239 441.482,245.471     "/>
			</g>
			<g>
				<g>
					<path style="fill:#FFFFFF;" d="M451.248,150.502l-11.692,4.201c-0.347,0.125-0.62,0.398-0.744,0.745l-4.202,11.692       c-0.391,1.089-1.932,1.089-2.323,0l-4.202-11.692c-0.125-0.347-0.397-0.62-0.744-0.745l-11.692-4.201       c-1.089-0.391-1.089-1.932,0-2.324l11.692-4.202c0.347-0.124,0.62-0.397,0.744-0.744l4.202-11.691       c0.391-1.089,1.932-1.089,2.323,0l4.202,11.691c0.125,0.347,0.397,0.62,0.744,0.744l11.692,4.202       C452.337,148.57,452.337,150.111,451.248,150.502z"/>
				</g>
				<g>
					<path style="fill:#FFFFFF;" d="M241.109,425.766l-11.691,4.201c-0.347,0.125-0.62,0.398-0.745,0.745l-4.202,11.692       c-0.391,1.09-1.932,1.09-2.323,0l-4.202-11.692c-0.125-0.347-0.397-0.62-0.744-0.745l-11.691-4.201       c-1.09-0.391-1.09-1.932,0-2.324l11.691-4.202c0.347-0.124,0.62-0.397,0.744-0.744l4.202-11.691c0.391-1.09,1.932-1.09,2.323,0       l4.202,11.691c0.125,0.347,0.397,0.62,0.745,0.744l11.691,4.202C242.199,423.834,242.199,425.375,241.109,425.766z"/>
				</g>
			</g>
		</g>
	</g>
</g>















</svg>
