<?xml version="1.0" encoding="UTF-8"?>
<!-- Generator: Adobe Illustrator 27.2.0, SVG Export Plug-In . SVG Version: 6.00 Build 0)  -->
<svg xmlns="http://www.w3.org/2000/svg" xmlns:xlink="http://www.w3.org/1999/xlink" version="1.1" id="Capa_1" x="0px" y="0px" viewBox="0 0 512 512" style="enable-background:new 0 0 512 512;" xml:space="preserve" width="512" height="512">
<g>
	<path style="fill:#FFFFFF;" d="M154.596,512c-4.698,0-9.059-2.438-11.518-6.441c-2.46-4.003-2.666-8.995-0.542-13.187l6.594-13.02   c-31.538-6.21-60.79-29.488-76.007-61.79c-15.217-32.304-17.825-71.668-7.749-116.992c4.542-20.44,13.415-49.496,37.925-65.76   c2.791-1.851,5.582-3.406,8.312-4.872c-0.073-0.163-0.142-0.321-0.208-0.478c-3.586-8.458-1.949-17.983,4.864-28.303   c3.763-5.699,8.111-11.24,12.97-16.533c-0.993-8.123-1.864-16.522-0.881-25.445c3.13-28.436,26.046-53.536,57.188-63.912   l0.581-81.844c0.042-5.835,3.822-10.984,9.376-12.773C196.866,0.212,198.263,0,199.642,0c4.239,0,8.332,1.998,10.925,5.555   l72.842,99.883c5.797,2.427,11.566,4.994,17.178,7.489l1.381,0.613c3.366-0.266,6.794-0.484,10.268-0.651l1.354-22.132   c0.437-7.136,6.354-12.693,13.492-12.693c0.033,0,0.064,0,0.096,0c7.182,0.051,13.072,5.707,13.41,12.88l0.993,20.992   c1.127,0.161,2.237,0.464,3.302,0.91c7.557,0.649,19.159,3.021,26.105,12.94c3.854,5.505,5.343,12.251,4.495,19.058   c2.253,1.256,4.406,2.536,6.473,3.846c1.046-3.718,3.664-6.906,7.323-8.605c1.825-0.847,3.766-1.257,5.689-1.257   c3.701,0,7.336,1.519,9.957,4.369c8.48,9.224,13.99,19.201,16.378,29.654c1.648,7.233,1.656,14.757,0.075,21.73   c0.219,0.493,0.433,0.988,0.645,1.484c1.219,0.361,2.395,0.898,3.49,1.606c12.981,8.391,21.966,24.365,22.357,39.75   c0.31,12.239-4.567,24.117-12.934,32.575c2.251,12.305-1.251,25.311-9.791,33.772c-2.086,2.066-4.477,3.888-7.15,5.448   c-1.112,4.636-1.441,8.318-1.092,11.739c0.962,9.416,7.31,18.002,14.659,27.943c6.279,8.491,12.771,17.273,16.839,27.959   c11.962,31.413-3.18,65.713-23.493,85.768c-12.537,12.38-28.441,22.275-47.382,29.497c0.115,2.079,0.215,3.972,0.303,5.655   c0.194,3.703-1.143,7.323-3.696,10.012c-2.552,2.689-6.097,4.212-9.805,4.212H154.596z"/>
	<g>
		<path style="fill:#EBB1FF;" d="M207.944,103.491c-30.504,3.671-60.87,25.704-64.233,56.243    c-1.302,11.83,1.434,23.685,2.331,35.552c0.897,11.867-0.444,24.827-8.377,33.698c-6.641,7.426-16.672,10.657-24.974,16.165    c-18.757,12.446-27.32,35.452-32.204,57.426c-7.993,35.963-8.917,74.969,6.783,108.297c15.699,33.328,50.982,59.091,87.629,55.316    c10.067-1.037,20.024-4.177,30.105-3.284c15.38,1.364,28.213,11.723,42.127,18.418c25.192,12.122,54.534,12.24,82.221,8.368    c32.14-4.495,64.88-14.812,87.974-37.614c18.622-18.387,29.669-46.882,20.357-71.339c-8.093-21.257-30.002-36.709-32.313-59.337    c-1.431-14.016,5.146-27.411,9.365-40.853c7.96-25.362,7.527-53.494-2.417-78.146c-17.917-44.415-53.416-52.503-93.556-68.683    C282.182,118.973,249.601,98.478,207.944,103.491z"/>
		<g>
			<path style="fill:#86DFD1;" d="M421.119,264.286c4.72,9.197,3.762,21.685-3.571,28.948c-3.989,3.954-9.527,6.113-15.345,7.281     c-3.989,0.801-8.095-13.629-11.945-13.507c-13.237,0.383-26.409,10.494-36.877,2.395c-3.588-2.77-6.845-5.94-9.702-9.44     c-7.228-8.901-11.949-20.553-9.98-31.857c1.933-11.078,10.625-20.692,21.459-23.741c-4.285-7.42-4.058-16.286-0.592-24.124     c3.466-7.838,9.771-14.161,16.843-19.003c5.713-3.919,12.018-7.019,17.191-11.635c5.156-4.633,9.162-11.304,8.291-18.184     c6.148,6.688,11.13,14.666,13.15,23.514c2.021,8.866,0.801,18.654-4.441,26.074c-2.142,3.031-4.877,5.609-6.863,8.744     c-1.968,3.135-3.118,7.141-1.672,10.538c2.317,5.399,10.259,6.323,15.084,2.978c4.825-3.344,7.002-9.371,7.942-15.171     c9.214,5.957,15.903,17.766,16.181,28.739C436.551,247.809,430.646,258.834,421.119,264.286z"/>
			<path style="fill:#FBEEE5;" d="M409.257,270.243c-3.832,2.787-9.945,4.267-10.172,9.005c-0.122,2.439,1.585,4.546,2.752,6.706     c2.404,4.442,2.386,9.946,0.366,14.561c-3.989,0.801-8.117,1.132-11.966,1.254c-13.237,0.383-26.388-4.267-36.856-12.367     c-3.397-6.358-4.964-13.656-5.069-20.884c-0.139-9.702,2.334-19.543,7.768-27.555c5.452-8.03,13.952-14.108,23.497-15.815     c-4.111,4.476-5.33,10.137-4.145,16.112c0.488,2.473,1.498,4.894,3.222,6.741c1.724,1.846,4.215,3.048,6.741,2.874     c4.285-0.296,7.35-4.232,9.301-8.064c1.306-2.56,2.386-5.26,3.222-8.012c5.8,4.476,11.618,8.848,14.77,15.467     C415.841,256.883,415.18,265.923,409.257,270.243z"/>
		</g>
		<g>
			<path style="fill:#2F2444;" d="M187.651,158.581c-22.869,11.645-44.044,27.682-58.184,49.099     c-3.069,4.649-5.871,10.453-3.697,15.583c2.56,6.042,10.386,7.54,16.948,7.442c25.92-0.389,50.092-12.168,73.772-22.715     c38.658-17.218,78.509-31.758,119.173-43.481c7.791-2.246,15.927-4.559,21.9-10.043c5.973-5.483,8.921-15.21,4.271-21.852     c-4.316-6.164-12.889-7.217-20.41-7.443C288.739,123.588,234.726,134.611,187.651,158.581z"/>
			<path style="fill:#2F2444;" d="M200.411,175.976c0-1.726,1.151-163.383,1.151-163.383l96.074,131.742L200.411,175.976z"/>
		</g>
		<g>
			<g>
				<g>
					<polygon style="fill:#A27CFF;" points="230.135,216.822 225.533,274.351 275.008,280.871 274.624,227.177 237.038,202.631             "/>
				</g>
				<g>
					<path style="fill:#A27CFF;" d="M340.208,209.918c-0.834,1.104-14.273,4.697-24.3,4.878c-0.248,2.839-0.496,5.746-0.811,8.607       c-0.045,0.563-0.113,1.127-0.18,1.69c-1.69,15.615-4.461,30.171-8.833,32.379c-9.554,4.777-54.506,3.199-60.409-27.151       c-14.984-8.269-25.124-24.222-25.124-42.541c0-26.859,21.766-48.625,48.602-48.625c12.753,0,24.38,4.912,33.033,12.956       c8.652,8.044,14.376,19.22,15.39,31.725c0,0,0,0.068,0,0.09c0.113,1.284,0.203,2.546,0.203,3.853       c0,2.479-0.248,4.912-0.608,7.3c-0.068,1.127-0.113,2.321-0.18,3.56C325.822,202.583,341.109,208.702,340.208,209.918z"/>
				</g>
				<g>
					<g>
						<ellipse style="fill:#2F2444;" cx="304.731" cy="198.892" rx="3.068" ry="5.465"/>
					</g>
					<g>
						<g>
							<path style="fill:#2F2444;" d="M315.097,223.403c-0.045,0.563-0.113,1.127-0.18,1.69c-0.338-0.045-0.676-0.09-1.036-0.18         c-4.326-1.014-8.269-3.447-11.086-6.895c-0.293-0.36-0.225-0.879,0.135-1.172c0.36-0.315,0.879-0.248,1.194,0.113         c2.569,3.154,6.174,5.385,10.14,6.286C314.533,223.313,314.804,223.358,315.097,223.403z"/>
						</g>
					</g>
					<g>
						<path style="fill:#2F2444;" d="M295.897,186.023c-0.062,0-0.124-0.007-0.187-0.02c-0.456-0.104-0.742-0.557-0.638-1.01        c0.957-4.247,4.449-7.761,8.689-8.742c0.443-0.114,0.908,0.178,1.013,0.632c0.106,0.456-0.177,0.909-0.633,1.014        c-3.621,0.838-6.603,3.84-7.422,7.466C296.632,185.757,296.284,186.023,295.897,186.023z"/>
					</g>
				</g>
				<g>
					<path style="fill:#2F2444;" d="M211.917,248.751c0,0,3.739-3.739-0.288-20.711c-4.027-16.971-12.369-65.296,16.108-80.541       c28.477-15.245,78.24-8.917,78.24-8.917s3.164,15.533-5.753,23.875c-8.917,8.342-23.012,10.643-23.012,10.643       s8.054,5.465,5.465,14.958c-2.589,9.492-9.205,24.162-9.205,24.162s-5.178,8.629-9.492,16.684       c-4.315,8.054-37.394,29.052-37.394,29.052L211.917,248.751z"/>
				</g>
				<g style="opacity:0.19;">
					<path style="fill:#A27CFF;" d="M211.917,248.751c0,0,3.739-3.739-0.288-20.711c-4.027-16.971-12.369-65.296,16.108-80.541       c28.477-15.245,78.24-8.917,78.24-8.917s3.164,15.533-5.753,23.875c-8.917,8.342-23.012,10.643-23.012,10.643       s8.054,5.465,5.465,14.958c-2.589,9.492-9.205,24.162-9.205,24.162s-5.178,8.629-9.492,16.684       c-4.315,8.054-37.394,29.052-37.394,29.052L211.917,248.751z"/>
				</g>
				<g>
					<path style="fill:#2F2444;" d="M209.377,238.502c-4.203-1.952-7.867-4.906-11.992-7.016c-7.894-4.039-17.42-4.764-25.835-1.967       c-8.415,2.797-15.611,9.081-19.517,17.042c-6.261,12.763-3.571,28.806,4.806,40.291c2.702,3.704,5.993,7.05,9.98,9.311       c4.376,2.482,9.429,3.567,14.449,3.894c15.865,1.033,32.055-5.628,42.599-17.526c5.488-6.192,9.539-13.924,10.118-22.178       c0.434-6.191-1.41-15.834-7.01-19.617c-2.086-1.409-3.899-0.907-6.251-0.644C216.713,240.543,213.094,240.229,209.377,238.502z       "/>
				</g>
				<g style="opacity:0.19;">
					<path style="fill:#A27CFF;" d="M209.377,238.502c-4.203-1.952-7.867-4.906-11.992-7.016c-7.894-4.039-17.42-4.764-25.835-1.967       c-8.415,2.797-15.611,9.081-19.517,17.042c-6.261,12.763-3.571,28.806,4.806,40.291c2.702,3.704,5.993,7.05,9.98,9.311       c4.376,2.482,9.429,3.567,14.449,3.894c15.865,1.033,32.055-5.628,42.599-17.526c5.488-6.192,9.539-13.924,10.118-22.178       c0.434-6.191-1.41-15.834-7.01-19.617c-2.086-1.409-3.899-0.907-6.251-0.644C216.713,240.543,213.094,240.229,209.377,238.502z       "/>
				</g>
				<g>
					<g>
						<path style="fill:#A27CFF;" d="M249.413,200.587c-5.733,3.647-8.516,10.745-6.993,17.043        c1.523,6.298,7.093,11.513,13.768,13.305c1.654,0.444,3.387,0.696,5.101,0.542        C282.762,229.551,269.682,187.693,249.413,200.587z"/>
					</g>
					<g>
						<g>
							<path style="fill:#2F2444;" d="M266.918,223.6c-0.029,0-0.057-0.002-0.086-0.004c-0.464-0.046-0.803-0.46-0.756-0.924         c0.544-5.413-2.199-10.969-6.826-13.827c-2.892-1.787-7.414-2.645-10.506-0.31c-0.375,0.28-0.903,0.205-1.184-0.167         c-0.282-0.372-0.207-0.902,0.165-1.184c3.747-2.823,8.936-1.925,12.414,0.222c5.163,3.191,8.225,9.394,7.618,15.434         C267.713,223.274,267.347,223.6,266.918,223.6z"/>
						</g>
						<g>
							<path style="fill:#2F2444;" d="M254.527,220.748c-0.095,0-0.189-0.015-0.284-0.048c-0.439-0.156-0.669-0.64-0.513-1.08         c0.8-2.244,2.457-4.185,4.547-5.329c2.091-1.14,4.62-1.49,6.943-0.942c0.454,0.106,0.736,0.561,0.63,1.014         c-0.107,0.458-0.562,0.739-1.016,0.632c-1.922-0.451-4.017-0.167-5.749,0.779c-1.731,0.946-3.103,2.555-3.764,4.414         C255.201,220.532,254.875,220.748,254.527,220.748z"/>
						</g>
					</g>
				</g>
			</g>
			<g>
				<path style="fill:#2F2444;" d="M366.245,497.554H156.514l15.142-29.9c0,0-33.956-117.371-23.028-142.112      c4.484-10.117,14.511-19.355,24.808-26.746c14.939-10.703,30.419-17.553,30.419-17.553l21.879-13.79l0.608-3.335l0.023-0.09      l1.217-6.715l0.451-2.524l1.893,0.992l4.101,2.163l27.94,14.691l0.248-0.18l1.465-1.127l11.199-8.495l3.785-2.862v12.663      c0,0,15.502,0.451,32.086,7.796c10.14,4.484,20.662,11.559,28.301,22.69c0.023,0.045,0.045,0.068,0.068,0.113      c0.315,0.451,0.608,0.946,0.901,1.465c1.352,2.276,2.614,5.205,3.808,8.652c0.068,0.158,0.135,0.315,0.18,0.473      c0.135,0.36,0.248,0.744,0.383,1.104C358.066,356.164,364.555,465.175,366.245,497.554z"/>
			</g>
			<g>
				<g>
					<path style="fill:#A27CFF;" d="M269.302,315.553c-0.031,0-0.06-0.002-0.09-0.007c-0.309-0.037-1.042-0.258-1.171-1.463       c-1.468-14.096-3.469-28.324-5.949-42.288c-0.081-0.46,0.224-0.898,0.684-0.979c0.453-0.077,0.899,0.224,0.979,0.684       c2.429,13.678,4.401,27.609,5.863,41.421c0.446,0.478,0.757,1.503,0.569,2.022       C270.062,315.287,269.669,315.553,269.302,315.553z"/>
				</g>
				<g>
					<g>
						<g>
							<g>
								<path style="fill:#A27CFF;" d="M263.981,340.798c0,0,11.506-33.079,21.286-40.558c9.78-7.479,56.091-43.722,56.091-43.722          l27.902-7.191c0,0,0.288,10.643-10.643,13.807l19.272-2.589c0,0,3.164,7.191-6.616,11.218          c-9.78,4.027-16.108,5.178-16.108,5.178l-16.684,14.095l20.135-9.205h23.012c0,0-0.575,10.355-14.095,11.793          c0,0,4.89,3.164-1.726,8.629c-6.616,5.465-35.38,17.546-35.38,17.546l-35.381,52.064          C295.047,371.863,266.57,362.947,263.981,340.798z"/>
							</g>
							<g>
								<path style="fill:#2F2444;" d="M368.204,293.797c-0.451,0-0.825-0.356-0.843-0.812c-0.019-0.466,0.344-0.858,0.81-0.878          c7.159-0.286,10.547-6.221,11.655-8.707l-21.038-0.72l-19.955,9.121c-0.382,0.178-0.843,0.042-1.067-0.319          c-0.225-0.361-0.148-0.832,0.179-1.1L355.396,276c0.055-0.046,0.116-0.084,0.179-0.114          c0.116-0.053,2.919-1.338,11.482-3.316c9.869-2.282,10.265-8.866,10.099-11.11c-7.443,0.684-20.709,1.972-22.566,2.401          c-1.702,0.394-17.896,11.42-27.704,18.279c-0.383,0.268-0.91,0.174-1.176-0.209c-0.267-0.383-0.175-0.909,0.208-1.177          c4.281-2.993,25.767-17.958,28.293-18.539c2.518-0.583,22.744-2.434,23.603-2.511c0.41-0.046,0.819,0.249,0.905,0.673          c0.021,0.106,2.022,10.764-11.28,13.838c-7.513,1.736-10.52,2.935-11.058,3.162l-12.383,10.206l14.27-6.522          c0.119-0.055,0.261-0.088,0.379-0.077l22.437,0.768c0.266,0.009,0.512,0.143,0.663,0.361          c0.153,0.218,0.194,0.495,0.111,0.746c-0.034,0.106-3.559,10.536-13.617,10.938          C368.227,293.797,368.216,293.797,368.204,293.797z"/>
							</g>
							<g>
								<path style="fill:#2F2444;" d="M329.996,321.364c-0.327,0-0.638-0.191-0.776-0.51c-0.185-0.429,0.013-0.926,0.441-1.111          c0.319-0.136,31.943-13.788,36.225-18.761c3.001-3.486,2.19-5.765,1.651-6.637l-28.472,10.712          c-0.437,0.167-0.923-0.055-1.088-0.493c-0.164-0.436,0.057-0.924,0.494-1.087l29.052-10.932          c0.3-0.115,0.647-0.044,0.88,0.178c0.037,0.037,3.688,3.642-1.237,9.363c-4.534,5.263-35.52,18.642-36.837,19.21          C330.222,321.342,330.108,321.364,329.996,321.364z"/>
							</g>
						</g>
						<g>
							<path style="fill:#2F2444;" d="M327.94,332.865c0,0-1.149,3.177-3.267,8.63c-0.248,0.699-0.541,1.42-0.811,2.186         c-8.946,23.073-31.32,78.052-55.79,116.312c-0.316,0.518-0.653,1.014-0.992,1.532c-11.041,17.034-22.487,30.531-33.28,36.029         h-25.597c-6.084-2.163-11.334-5.498-15.84-9.441c-1.6-1.397-3.109-2.862-4.507-4.394c-0.022,0-0.022-0.022-0.022-0.022         c-15.074-16.223-20.212-38.508-20.212-38.508l2.501-1.104l46.011-58.607l1.059-1.352l16.223-20.662l0.09-0.113l22.262-28.391         l0.158-0.203l16.471-20.932v-0.023l1.465-1.87l0.248,4.642v0.022l1.645,31.14l44.254-12.618l6.061-1.712L327.94,332.865z"/>
						</g>
					</g>
					<g>
						<path style="fill:#A27CFF;" d="M217.863,387.186c-0.252,0-0.502-0.112-0.668-0.326l-20.902-26.845        c-0.287-0.367-0.22-0.9,0.147-1.186c0.37-0.293,0.9-0.218,1.186,0.147l20.902,26.845c0.287,0.367,0.22,0.9-0.147,1.186        C218.227,387.129,218.043,387.186,217.863,387.186z"/>
					</g>
					<g>
						<path style="fill:#A27CFF;" d="M214.702,493.47c-23.35,0.002-39.467-17.566-39.656-17.777        c-0.312-0.348-0.284-0.882,0.063-1.193c0.345-0.315,0.88-0.286,1.194,0.062c0.218,0.242,22.088,24.024,51.482,15.289        c39.307-11.684,89.958-139.238,96.067-154.965l-47.866,13.654c-0.249,0.07-0.508,0.024-0.715-0.119        c-0.209-0.145-0.341-0.376-0.36-0.629l-2.681-35.951l-74.39,104.522c-0.271,0.378-0.798,0.469-1.178,0.198        c-0.381-0.271-0.47-0.799-0.199-1.179l75.747-106.428c0.208-0.29,0.578-0.414,0.915-0.323c0.343,0.097,0.59,0.396,0.616,0.75        l2.778,37.249l48.499-13.834c0.307-0.09,0.639,0.007,0.854,0.24c0.217,0.235,0.282,0.572,0.168,0.871        c-2.238,5.913-55.289,144.935-97.774,157.564C223.537,492.876,218.996,493.47,214.702,493.47z"/>
					</g>
				</g>
				<g>
					<path style="fill:#A27CFF;" d="M361.536,497.554h-1.96c-13.316-22.127-25.416-40.806-27.737-44.366       c-0.225-0.36-0.36-0.563-0.383-0.608c-0.135-0.18-0.18-0.383-0.135-0.586c0-0.023,0.023-0.18,0.068-0.451       c0.901-5.656,9.711-60.297,9.711-66.741c0-5.002-10.703-27.94-17.237-41.122c-0.316-0.631-0.631-1.239-0.924-1.825       c0-0.023,0-0.023,0-0.023c-0.068-0.135-0.113-0.248-0.18-0.361c-0.203-0.428-0.023-0.946,0.383-1.149       c0.158-0.068,0.315-0.09,0.451-0.09c0.293,0.045,0.563,0.203,0.698,0.473c0.045,0.113,0.18,0.383,0.383,0.789       c2.726,5.498,18.116,36.773,18.116,43.307c0,6.715-8.9,61.874-9.756,67.124C334.7,454.472,347.498,474.188,361.536,497.554z"/>
				</g>
				<g>
					<path style="fill:#A27CFF;" d="M285.943,463.202c-12.766,0-21.154-2.17-21.318-2.214c-0.45-0.121-0.717-0.583-0.597-1.034       c0.121-0.451,0.581-0.72,1.035-0.599c0.319,0.088,32.341,8.348,66.728-8.001c0.426-0.2,0.926-0.02,1.127,0.401       c0.2,0.422,0.021,0.926-0.401,1.127C315.201,461.113,298.465,463.202,285.943,463.202z"/>
				</g>
			</g>
		</g>
		<g>
			<polygon style="fill:#FBEEE5;" points="114.267,334.767 116.84,292.74 118.842,335.053 129.42,326.476 123.13,336.483      145.717,339.342 123.702,342.201 129.992,351.064 119.414,345.346 116.555,381.942 114.267,345.918 103.403,350.492      110.265,342.201 82.818,338.484 109.979,337.341 103.689,327.906    "/>
			<polygon style="fill:#FBEEE5;" points="388.56,396.795 391.133,354.767 393.135,397.081 403.713,388.503 397.423,398.51      420.01,401.369 397.995,404.228 404.285,413.091 393.707,407.373 390.848,443.969 388.56,407.945 377.696,412.519      384.558,404.228 357.111,400.511 384.272,399.368 377.982,389.933    "/>
			<polygon style="fill:#FBEEE5;" points="326.429,132.683 329.002,90.655 331.003,132.969 341.582,124.391 335.292,134.398      357.878,137.257 335.863,140.116 342.153,148.979 331.575,143.261 328.716,179.857 326.429,143.833 315.564,148.407      322.426,140.116 294.979,136.399 322.14,135.256 315.85,125.821    "/>
		</g>
	</g>
</g>















</svg>
