<?xml version="1.0" encoding="UTF-8"?>
<!-- Generator: Adobe Illustrator 25.3.1, SVG Export Plug-In . SVG Version: 6.00 Build 0)  -->
<svg xmlns="http://www.w3.org/2000/svg" xmlns:xlink="http://www.w3.org/1999/xlink" version="1.1" id="Capa_1" x="0px" y="0px" viewBox="0 0 512.141 512.141" style="enable-background:new 0 0 512.141 512.141;" xml:space="preserve" width="512" height="512">
<g>
	<path style="fill:#FFFFFF;" d="M256.146,512.126c-110.389,1.246-213.395-74.967-244.772-180.844   c-0.218-0.665-0.42-1.35-0.616-2.037c-0.236-0.723-0.45-1.451-0.646-2.194c-4.386-15.114-7.333-30.633-8.806-46.62   C-15.032,114.419,131.776-23.142,296.222,3.264c0.393,0.045,0.732,0.099,1.01,0.151c69.396,10.961,133.015,51.959,171.802,110.535   c47.244,69.439,56.282,162.644,23.731,239.998C454.786,448.192,357.558,513.2,256.146,512.126z"/>
	<g>
		<path style="fill:#5F2183;" d="M498.305,256.116c0.562,66.007-27.384,128.13-72.47,172.731c-4.28,4.234-9.724,6.444-14.306,10.357    c-6.803,5.81-12.775,12.79-20.192,17.832c-29.134,19.803-62.765,33.401-99.015,38.591    C193.443,511.361,91.226,460.71,43.773,372.663l-0.023-0.023C18.8,326.36,10.294,278,14.89,232.318    c0.123-1.221,3.255-2.441,3.397-3.658c0.147-1.264-2.696-2.525-2.529-3.784c0.706-5.326,1.589-10.611,2.646-15.848    c0.151-0.749,3.306-1.496,3.464-2.243c0.169-0.8-2.657-1.598-2.48-2.396C45.37,87.529,157.431-3.931,294.461,16.949    c44.455,6.927,86.185,26.749,119.972,55.888c6.06,18.163,2.554,16.394,14.582,34.419l8.164,1.289    c0.832,1.234,21.75,15.15,22.557,16.397C484.959,163.92,498.285,209.288,498.305,256.116z"/>
		<g>
			<g>
				<path style="fill:#F3C7D1;" d="M478.137,352.932c-0.069,0.23-0.161,0.46-0.276,0.667c-9.819-17.202-23.503-31.414-39.83-40.75      c-38.404-21.985-87.25-15.523-120.641-8.739l-4.14,0.828c-30.425,6.232-64.92,13.269-91.205-3.794      c-18.443-11.981-30.103-33.621-36.68-68.117c-0.943-4.944-1.794-10.004-2.644-14.902c-3.565-21.019-7.244-42.751-18.352-61.034      c-16.903-27.826-51.789-45.833-88.929-45.879h-0.161c-4.576,0-9.176,0.23-13.798,0.713c0.161-0.207,0.299-0.414,0.46-0.621      c4.461-0.437,8.923-0.667,13.338-0.667h0.161c17.8,0.023,35.438,4.116,51.03,11.843c16.443,8.164,29.712,20.03,38.382,34.334      c11.153,18.351,14.856,40.129,18.444,61.194c0.828,4.898,1.702,9.981,2.644,14.902c6.554,34.334,18.121,55.859,36.427,67.749      c26.078,16.949,60.436,9.912,90.768,3.725l4.139-0.851c33.484-6.784,82.467-13.269,121.055,8.808      C454.611,321.657,468.294,335.823,478.137,352.932z"/>
			</g>
			<g>
				<path style="fill:#F3C7D1;" d="M465.443,377.953c-0.138,0.253-0.276,0.506-0.437,0.759c-2.231-13.476-6.669-27.021-15.73-37.761      c-14.787-17.593-41.624-25.871-68.392-21.111c-27.228,4.852-51.007,21.341-66.53,33.322c-3.817,2.944-7.658,6.048-11.383,9.015      c-14.695,11.774-29.873,23.963-47.488,31.115c-23.549,9.59-51.168,9.291-73.843-0.759      c-23.434-10.372-41.716-30.908-48.868-54.939c-7.658-25.71-2.644-52.801,2.208-78.994c3.404-18.397,6.945-37.416,6.186-56.043      c-1.012-24.722-10.395-45.373-25.71-56.687c-13.2-9.751-31.575-13.614-56.158-11.82c-4.415,0.322-8.831,0.782-13.223,1.38      c0.115-0.207,0.23-0.414,0.368-0.621c4.254-0.575,8.532-1.012,12.832-1.334c24.699-1.794,43.188,2.116,56.526,11.935      c15.454,11.429,24.906,32.242,25.94,57.124c0.759,18.696-2.783,37.738-6.186,56.158c-4.852,26.147-9.866,53.169-2.231,78.718      c7.106,23.871,25.251,44.292,48.546,54.594c22.537,10.004,49.972,10.28,73.383,0.759c17.547-7.129,32.701-19.271,47.351-31.023      c3.725-2.99,7.589-6.071,11.406-9.038c15.569-12.004,39.439-28.562,66.783-33.414c26.929-4.829,54.019,3.542,68.944,21.295      C458.704,351.253,463.189,364.615,465.443,377.953z"/>
			</g>
			<g>
				<path style="fill:#F3C7D1;" d="M95.861,175.42c10.119,17.363,4.922,39.853,0.115,55.261      c-4.047,13.016-8.992,26.009-13.752,38.589c-7.612,19.984-15.454,40.658-19.915,61.907c-5.841,27.78-4.438,53.767,3.611,74.901      c-0.391-0.483-0.759-0.943-1.104-1.426c-7.589-20.95-8.785-46.431-3.082-73.59c4.484-21.295,12.349-41.992,19.938-61.999      c4.783-12.556,9.704-25.549,13.752-38.566c4.76-15.293,9.935-37.623-0.069-54.778c-11.061-18.972-35.714-24.193-55.054-22.721      c-1.196,0.092-2.392,0.207-3.565,0.345c0.069-0.207,0.184-0.414,0.299-0.621c1.081-0.115,2.139-0.207,3.22-0.299      C59.802,150.951,84.662,156.218,95.861,175.42z"/>
				<path style="fill:#F3C7D1;" d="M434.535,419.876c-0.138,0.161-0.276,0.322-0.437,0.483      c-6.784-19.501-19.892-34.449-35.875-40.589c-18.121-6.968-39.715-3.84-67.91,9.843c-16.236,7.888-32.012,17.248-47.304,26.308      c-10.601,6.278-21.571,12.786-32.632,18.742c-33.069,17.868-60.596,26.883-86.629,28.424      c-14.258,0.851-28.079-0.782-40.681-4.576c-0.575-0.345-1.127-0.736-1.679-1.127c13.039,4.208,27.458,6.025,42.337,5.128      c25.94-1.518,53.399-10.533,86.399-28.355c11.015-5.933,21.985-12.441,32.609-18.742c15.27-9.061,31.069-18.42,47.328-26.308      c28.355-13.752,50.064-16.903,68.369-9.866C414.505,385.427,427.659,400.352,434.535,419.876z"/>
			</g>
			<g>
				<path style="fill:#F3C7D1;" d="M62.792,205.707c2.093,18.489-5.174,36.427-12.188,53.767c-0.483,1.196-0.966,2.392-1.426,3.565      c-11.13,27.734-18.144,51.444-21.617,73.406c-0.138-0.391-0.276-0.782-0.414-1.173c3.542-21.686,10.51-45.12,21.502-72.44      c0.46-1.196,0.943-2.392,1.426-3.565c6.991-17.294,14.212-35.162,12.142-53.514c-0.759-6.715-2.783-12.096-6.002-15.96      c-7.244-8.739-20.145-9.659-29.712-6.692c-0.529,0.161-1.035,0.345-1.564,0.529c0.069-0.207,0.138-0.437,0.207-0.644      c0.391-0.161,0.805-0.299,1.196-0.414c9.75-3.036,22.905-2.093,30.333,6.853C59.94,193.38,62.01,198.854,62.792,205.707z"/>
				<path style="fill:#F3C7D1;" d="M415.792,438.204c-0.161,0.161-0.299,0.276-0.46,0.391c-4.093-7.037-9.543-12.533-15.96-16.006      c-16.949-9.176-37.646-2.691-48.454,1.978c-17.961,7.75-33.966,19.685-49.466,31.23c-3.565,2.668-7.267,5.404-10.946,8.072      c-20.444,14.856-38.888,25.802-56.503,33.46c-0.391-0.046-0.805-0.069-1.219-0.115c17.892-7.658,36.588-18.719,57.4-33.805      c3.657-2.668,7.359-5.427,10.923-8.072c15.523-11.567,31.575-23.526,49.581-31.299c10.923-4.714,31.805-11.245,48.96-1.955      C406.134,425.579,411.63,431.121,415.792,438.204z"/>
			</g>
		</g>
		<path style="fill:#1C0231;" d="M238.188,425.52"/>
		<g>
			<g>
				<g>
					<g>
						<g>
							<g>
								<polygon style="fill:#F3C7D1;" points="252.969,416.301 252.463,417.197 240.551,438.332 231.881,453.762 229.489,457.994           228.5,457.442 230.846,453.279 239.263,438.332 251.175,417.197 251.98,415.749         "/>
							</g>
							<g>
								<polygon style="fill:#F3C7D1;" points="262.444,418.416 261.041,438.332 259.891,454.636 259.5,460.109 258.35,460.017           258.741,454.475 259.891,438.332 261.294,418.347         "/>
							</g>
							<g>
								<polygon style="fill:#F3C7D1;" points="287.947,456.338 286.866,456.752 285.509,453.118 279.99,438.332 273.367,420.624           274.448,420.233 281.209,438.332 286.613,452.797         "/>
							</g>
						</g>
						<circle style="fill:#F3C7D1;" cx="229.283" cy="458.009" r="4.991"/>
						<path style="fill:#F3C7D1;" d="M263.631,459.477c0,2.756-2.235,4.991-4.991,4.991c-2.756,0-4.991-2.234-4.991-4.991        c0-2.756,2.235-4.991,4.991-4.991C261.397,454.486,263.631,456.721,263.631,459.477z"/>
						<circle style="fill:#F3C7D1;" cx="287.411" cy="457.716" r="4.991"/>
					</g>
					<polygon style="fill:#1C0231;" points="251.175,417.197 252.463,417.197 240.551,438.332 239.263,438.332      "/>
					<polygon style="fill:#1C0231;" points="261.294,418.347 262.444,418.416 261.041,438.332 259.891,438.332      "/>
					<polygon style="fill:#1C0231;" points="281.209,438.332 279.99,438.332 273.367,420.624 274.448,420.233      "/>
				</g>
				<g>
					<g>
						<g>
							<path style="fill:#F3C7D1;" d="M219.095,414.668l-20.536,4.071l-18.14,3.596c-3.364,0.667-5.623-3.352-3.306-5.88         l40.418-44.078l0.161,4.576L219.095,414.668z"/>
							<path style="fill:#1C0231;" d="M219.095,414.668l-20.536,4.071c5.956-14.12,12.349-28.056,19.133-41.785L219.095,414.668z"/>
						</g>
						<g>
							<path style="fill:#F3C7D1;" d="M315.795,417.408l20.536,4.07l20.908,4.145c2.488,0.493,4.159-2.479,2.445-4.348         l-42.325-46.158l-0.161,4.576L315.795,417.408z"/>
							<path style="fill:#1C0231;" d="M315.795,417.408l20.536,4.07c-5.956-14.12-12.349-28.056-19.133-41.785L315.795,417.408z"/>
						</g>
						<path style="fill:#F3C7D1;" d="M204.231,431.881c0,0,3.523-106.862,66.935-106.862c63.413,0,51.278,111.559,51.278,111.559        L204.231,431.881z"/>
					</g>
					<circle style="fill:#1C0231;" cx="267.056" cy="379.233" r="26.813"/>
				</g>
			</g>
			<g>
				<g>
					
						<ellipse transform="matrix(0.1585 -0.9874 0.9874 0.1585 -108.8052 307.0906)" style="fill:#95ABD3;" cx="125.748" cy="217.374" rx="80.636" ry="80.636"/>
					<g>
						<path style="fill:#95ABD3;" d="M205.924,226.059c-0.299,2.829-0.759,5.634-1.357,8.371        c-7.819,36.358-40.13,63.586-78.81,63.586c-38.52,0-70.715-26.975-78.718-63.08c-0.621-2.737-1.104-5.542-1.426-8.394        c25.296,1.196,50.662,1.541,76.027,1.357c12.97,0,25.963-0.115,38.91-0.437c12.97-0.23,25.94-0.529,38.911-1.127        C201.623,226.243,203.762,226.151,205.924,226.059z"/>
						<g>
							<path style="fill:#F3C7D1;" d="M205.142,203.154c0.23,1.311,0.437,2.622,0.598,3.932         c15.414,1.676,67.144,4.781,65.771,10.532c-3.719,3.936-24.542,4.974-33.3,6.21c-25.784,2.417-51.767,3.145-77.66,3.633         c-47.969,0.935-96.897,0.859-144.782-2.64c-0.33,2.488-0.619,4.985-0.871,7.49c48.088,4.835,97.625,5.721,145.905,4.533         c11.369-0.857,130.868-3.688,116.64-22.123C266.665,204.939,221.174,204.499,205.142,203.154z"/>
							<path style="fill:#F3C7D1;" d="M45.82,206.581c0.161-1.297,0.394-2.593,0.621-3.886c-8.802,0.407-18.238,1.07-27.044,1.677         c-0.344,1.546-0.677,3.095-0.99,4.65C27.325,208.067,36.88,207.145,45.82,206.581z"/>
						</g>
					</g>
				</g>
				<g>
					<path style="fill:#FDBC08;" d="M458.474,317.195c0,3.473-0.391,6.876-1.127,10.119c-0.115,0.483-0.23,0.966-0.345,1.449       c-1.058,4.07-2.668,7.934-4.76,11.475c-0.184,0.345-0.391,0.69-0.621,1.035c-2.369,3.863-5.312,7.336-8.716,10.28       c-0.368,0.345-0.736,0.667-1.104,0.966c-6.094,5.036-13.499,8.509-21.64,9.843c-0.368,0.069-0.736,0.138-1.127,0.161       c-2.07,0.299-4.208,0.46-6.37,0.46c-2.024,0-4.001-0.138-5.933-0.391c-0.391-0.046-0.759-0.092-1.127-0.161       c-5.703-0.874-11.038-2.806-15.822-5.588c-0.345-0.184-0.69-0.391-1.035-0.575c-3.68-2.277-7.014-5.036-9.912-8.21       c-0.253-0.276-0.529-0.575-0.759-0.874c-4.093-4.691-7.221-10.211-9.107-16.305c-0.138-0.391-0.253-0.782-0.345-1.196       c-1.15-3.955-1.748-8.164-1.748-12.487c0-2.346,0.184-4.645,0.529-6.899c0.092-0.69,0.207-1.357,0.345-2.024       c4.139-21.042,22.675-36.887,44.913-36.887c6.554,0,12.786,1.38,18.421,3.886c0.414,0.161,0.851,0.345,1.265,0.575       c7.29,3.45,13.499,8.785,18.052,15.385c0.23,0.322,0.437,0.644,0.644,0.989c1.311,1.978,2.461,4.07,3.404,6.255       c0.184,0.345,0.345,0.713,0.483,1.081C457.21,304.984,458.474,310.94,458.474,317.195z"/>
					<g>
						<path style="fill:#9F6DA4;" d="M382.079,294.819l-14.672,15.477c0.092-0.69,0.207-1.357,0.345-2.024l13.499-14.258        c3.22-3.381,6.876-7.221,11.429-9.429c4.875-2.323,10.349-2.645,15.638-2.944c3.197-0.161,6.508-0.345,9.636-0.989        c4.691-0.943,9.038-2.898,13.131-5.381c0.414,0.161,0.851,0.345,1.265,0.575c-4.392,2.737-9.038,4.898-14.166,5.933        c-3.22,0.644-6.577,0.828-9.819,1.012c-5.404,0.299-10.533,0.598-15.178,2.829        C388.817,287.736,385.391,291.324,382.079,294.819z"/>
						<path style="fill:#9F6DA4;" d="M451.047,292.221c-0.897,0.437-1.794,0.874-2.713,1.288        c-7.221,3.335-14.856,5.979-22.261,8.555c-4.669,1.61-9.521,3.289-14.189,5.128c-15.293,5.979-29.712,13.959-42.912,23.687        c-0.138-0.391-0.253-0.782-0.345-1.196c13.2-9.682,27.596-17.593,42.82-23.572c4.714-1.84,9.567-3.519,14.258-5.151        c7.359-2.553,14.971-5.174,22.146-8.486c0.874-0.391,1.725-0.805,2.553-1.242C450.633,291.554,450.84,291.876,451.047,292.221        z"/>
						<path style="fill:#9F6DA4;" d="M440.629,342.285c1.725,2.875,2.116,6.324,2.277,8.992v0.276        c-0.368,0.345-0.736,0.667-1.104,0.966c0-0.184-0.023-0.345-0.023-0.529l-0.023-0.644c-0.138-2.553-0.529-5.818-2.116-8.486        c-1.587-2.691-4.3-4.3-6.899-4.116c-1.587,0.115-3.219,0.851-5.105,2.323c-4.323,3.381-7.267,8.187-8.072,13.177        c-0.437,2.737-0.207,5.542,0.598,8.118c-0.368,0.069-0.736,0.138-1.127,0.161c-0.828-2.691-1.058-5.611-0.598-8.463        c0.828-5.266,3.932-10.349,8.486-13.89c2.069-1.633,3.909-2.461,5.726-2.576C435.685,337.363,438.812,339.226,440.629,342.285        z"/>
						<path style="fill:#9F6DA4;" d="M452.242,340.238c-0.184,0.345-0.391,0.69-0.621,1.035c-2.231-0.897-3.656-3.128-5.036-5.289        c-0.805-1.265-1.61-2.53-2.575-3.542c-3.449-3.611-9.13-3.633-13.315-2.461c-6.853,1.909-13.246,7.29-17.524,14.718        c-3.266,5.68-5.151,12.004-6.439,17.892c-0.391-0.046-0.759-0.092-1.127-0.161c1.288-6.002,3.197-12.464,6.554-18.305        c4.438-7.681,11.084-13.246,18.236-15.247c4.484-1.288,10.648-1.219,14.442,2.783c1.035,1.081,1.886,2.415,2.714,3.702        C448.908,337.524,450.242,339.571,452.242,340.238z"/>
						<path style="fill:#9F6DA4;" d="M386.334,338.766l-1.495,1.886c-1.955,2.484-3.932,4.967-6.002,7.405        c-0.253-0.276-0.529-0.575-0.759-0.874c2.001-2.369,3.932-4.806,5.864-7.244l1.495-1.886        c7.474-9.383,16.489-19.685,29.045-22.905c2.829-0.736,5.772-1.058,8.624-1.357c2.76-0.322,5.611-0.644,8.325-1.311        c8.785-2.208,16.052-8.118,23.02-14.005c0.184,0.345,0.345,0.713,0.483,1.081c-6.968,5.933-14.281,11.797-23.227,14.028        c-2.782,0.713-5.68,1.035-8.463,1.334c-2.829,0.322-5.726,0.644-8.486,1.357C402.569,319.38,393.693,329.521,386.334,338.766z        "/>
						<path style="fill:#9F6DA4;" d="M457.348,327.314c-0.115,0.483-0.23,0.966-0.345,1.449c-1.334,0.621-2.714,1.104-4.162,1.357        c-5.381,0.966-10.487-1.242-15.431-3.358c-3.657-1.587-7.451-3.197-11.337-3.542c-8.647-0.736-17.478,4.691-26.355,16.19        c-3.725,4.875-7.819,10.809-9.935,17.432c-0.345-0.184-0.69-0.391-1.035-0.575c2.208-6.692,6.324-12.648,10.073-17.547        c9.107-11.843,18.329-17.432,27.343-16.65c4.071,0.368,7.957,2.024,11.705,3.633c4.991,2.139,9.728,4.162,14.764,3.289        C454.289,328.694,455.83,328.096,457.348,327.314z"/>
					</g>
				</g>
				
					<ellipse transform="matrix(0.6035 -0.7974 0.7974 0.6035 43.0936 227.829)" style="fill:#FF5382;" cx="250.616" cy="70.586" rx="32.098" ry="32.098"/>
			</g>
		</g>
		<g>
			<path style="fill:#F3C7D1;" d="M453.606,193.008c0,3.729-2.4,6.752-5.361,6.752c-2.961,0-5.361-3.023-5.361-6.752     s2.4-6.752,5.361-6.752C451.206,186.255,453.606,189.279,453.606,193.008z"/>
			<ellipse style="fill:#F3C7D1;" cx="430.53" cy="183.613" rx="4.429" ry="5.578"/>
			<ellipse style="fill:#F3C7D1;" cx="457.102" cy="174.806" rx="4.429" ry="5.578"/>
			<path style="fill:#F3C7D1;" d="M472.487,212.09c0,3.08-1.983,5.578-4.429,5.578c-2.446,0-4.429-2.497-4.429-5.578     c0-3.081,1.983-5.578,4.429-5.578C470.504,206.512,472.487,209.01,472.487,212.09z"/>
			<ellipse style="fill:#F3C7D1;" cx="465.727" cy="237.925" rx="4.429" ry="5.578"/>
			<path style="fill:#F3C7D1;" d="M453.606,227.356c0,3.729-2.4,6.752-5.361,6.752c-2.961,0-5.361-3.023-5.361-6.752     s2.4-6.752,5.361-6.752C451.206,220.604,453.606,223.627,453.606,227.356z"/>
			<path style="fill:#F3C7D1;" d="M438.921,211.503c0,3.729-2.4,6.752-5.361,6.752c-2.961,0-5.361-3.023-5.361-6.752     s2.4-6.752,5.361-6.752C436.521,204.751,438.921,207.774,438.921,211.503z"/>
		</g>
		<g>
			<path style="fill:#F3C7D1;" d="M179.582,335.497c-3.643,0.795-7.109-0.906-7.74-3.799c-0.631-2.893,1.811-5.882,5.454-6.677     c3.643-0.795,7.109,0.906,7.74,3.798C185.667,331.712,183.226,334.702,179.582,335.497z"/>
			<path style="fill:#F3C7D1;" d="M184.786,315.275c-3.01,0.657-5.872-0.748-6.394-3.138c-0.521-2.39,1.496-4.859,4.506-5.516     c3.01-0.657,5.872,0.748,6.394,3.138C189.813,312.149,187.796,314.619,184.786,315.275z"/>
			<path style="fill:#F3C7D1;" d="M199.055,339.36c-3.01,0.657-5.872-0.748-6.394-3.138c-0.521-2.39,1.496-4.859,4.506-5.516     c3.01-0.657,5.872,0.748,6.394,3.138C204.082,336.233,202.065,338.703,199.055,339.36z"/>
			
				<ellipse transform="matrix(0.977 -0.2131 0.2131 0.977 -71.612 43.0835)" style="fill:#F3C7D1;" cx="164.019" cy="353.684" rx="5.578" ry="4.429"/>
			<path style="fill:#F3C7D1;" d="M139.225,361.241c-3.01,0.657-5.872-0.748-6.394-3.138c-0.522-2.39,1.496-4.859,4.506-5.516     c3.01-0.657,5.872,0.748,6.394,3.138C144.252,358.114,142.235,360.584,139.225,361.241z"/>
			<path style="fill:#F3C7D1;" d="M146.023,342.818c-3.644,0.795-7.109-0.906-7.74-3.798c-0.631-2.893,1.811-5.882,5.454-6.677     c3.643-0.795,7.109,0.906,7.74,3.799C152.109,339.034,149.667,342.024,146.023,342.818z"/>
			<path style="fill:#F3C7D1;" d="M158.382,325.092c-3.644,0.795-7.109-0.906-7.74-3.799c-0.631-2.893,1.811-5.882,5.454-6.677     c3.643-0.795,7.109,0.906,7.74,3.798C164.467,321.308,162.025,324.297,158.382,325.092z"/>
		</g>
		<path style="fill:#FF5382;" d="M392.315,377.08c0,5.729-4.644,10.373-10.373,10.373c-5.729,0-10.373-4.644-10.373-10.373    c0-5.729,4.644-10.373,10.373-10.373C387.671,366.707,392.315,371.351,392.315,377.08z"/>
		<path style="fill:#9F6DA4;" d="M103.436,114.036c0,5.729-4.644,10.373-10.373,10.373c-5.729,0-10.373-4.644-10.373-10.373    c0-5.729,4.644-10.373,10.373-10.373C98.792,103.663,103.436,108.307,103.436,114.036z"/>
		<path style="fill:#9F6DA4;" d="M146.886,402.915c0,5.729-4.644,10.373-10.373,10.373c-5.729,0-10.373-4.644-10.373-10.373    c0-5.729,4.644-10.373,10.373-10.373C142.241,392.541,146.886,397.186,146.886,402.915z"/>
		<g>
			<polygon style="fill:#FDBC08;" points="113.57,369.188 83.829,353.623 92.746,385.985 77.835,355.9 66.046,387.335      71.671,354.23 43.647,372.73 67.656,349.263 34.113,347.755 67.322,342.86 41.082,321.926 70.823,337.49 61.906,305.129      76.816,335.213 88.605,303.778 82.981,336.883 111.005,318.383 86.996,341.851 120.539,343.359 87.33,348.254    "/>
			<g>
				<polygon style="fill:#FF8933;" points="148.563,74.963 148.219,50.579 157.787,71.392 182.84,64.875 165.761,81.032       178.527,103.259 157.415,88.873 146.556,118.777 147.987,86.485 120.325,84.426     "/>
				<polygon style="fill:#FF8933;" points="335.94,212.309 351.41,193.457 345.291,215.532 368.638,226.716 345.164,228.043       340.578,253.261 333.729,228.649 306.139,244.49 328.066,220.741 308.26,201.321     "/>
				<path style="fill:#FF8933;" d="M431.315,409.021l-5.496,19.846c-3.243,3.243-6.6,6.347-10.027,9.337      c-0.161,0.161-0.299,0.276-0.46,0.391c-7.428,6.485-15.247,12.533-23.457,18.098l-0.138,0.069l-5.703,3.289l21.939-23.756      l-19.8-19.409l27.665,10.992L431.315,409.021z"/>
				<path style="fill:#FF8933;" d="M174.924,465.777l-23.457,1.311l-1.265,6.876c-3.335-1.61-6.623-3.312-9.865-5.082l-0.322-1.173      l-0.897,0.506c-2.76-1.518-5.473-3.105-8.164-4.737l3.404-3.679l-19.8-19.432l27.665,10.992l15.477-18.857l-6.117,22.077      L174.924,465.777z"/>
			</g>
			<g>
				<g>
					<g>
						<path style="fill:#FF5382;" d="M459.739,124.942c-28.056-4.645-56.664-6.094-85.134-4.162        c-0.598,0.023-1.196,0.069-1.794,0.138h-0.115c-10.51,0.736-21.042,1.955-31.506,3.656c-0.322,0-0.621,0.092-0.966,0.138        c3.91-3.863,7.957-7.566,12.097-11.153c1.219-1.035,2.438-2.093,3.679-3.105l1.38-1.127        c6.347-5.289,12.993-10.257,19.823-14.925c11.82-8.141,24.307-15.362,37.232-21.571c2.691,2.323,5.312,4.691,7.911,7.129        c4.439,4.208,8.739,8.578,12.855,13.108c3.082,3.381,6.071,6.853,8.946,10.395c4.645,5.703,9.015,11.613,13.108,17.731v0.023        C458.107,122.458,458.911,123.7,459.739,124.942z"/>
						<path style="fill:#FF8933;" d="M422.346,79.96c-18.19,5.335-35.737,12.694-52.065,22.1c-4.14,2.369-8.164,4.852-12.12,7.497        c-1.978,1.288-3.932,2.645-5.841,4.001c1.219-1.035,2.438-2.093,3.679-3.105l1.38-1.127        c6.347-5.289,12.993-10.257,19.823-14.925c11.82-8.141,24.307-15.362,37.232-21.571        C417.126,75.154,419.748,77.523,422.346,79.96z"/>
						<path style="fill:#564BB7;" d="M459.739,124.942c-28.056-4.645-56.664-6.094-85.134-4.162        c-0.598,0.023-1.196,0.069-1.794,0.138h-0.115c-10.51,0.736-21.042,1.955-31.506,3.656c5.841-4.323,13.683-7.497,19.869-9.889        h0.023c2.414-0.943,4.53-1.725,6.209-2.438h0.046c22.054-9.36,44.89-15.73,67.864-19.179        c3.082,3.381,6.071,6.853,8.946,10.395c4.645,5.703,9.015,11.613,13.108,17.731v0.023        C458.107,122.458,458.911,123.7,459.739,124.942z"/>
					</g>
					<polygon style="fill:#FDBC08;" points="405.813,113.974 359.821,123.641 398.272,150.665 355.373,131.438 370.628,175.898        347.226,135.123 333.423,180.065 338.465,133.332 300.882,161.572 332.402,126.712 285.411,127.459 331.403,117.792        292.953,90.768 335.851,109.995 320.596,65.535 343.999,106.31 357.802,61.368 352.76,108.102 390.343,79.862 358.822,114.722             "/>
				</g>
				<g>
					<g>
						<circle style="fill:#FDBC08;" cx="217.344" cy="145.742" r="5.872"/>
						<path style="fill:#FDBC08;" d="M261.967,145.742c0,3.243-2.629,5.872-5.871,5.872c-3.243,0-5.872-2.629-5.872-5.872        s2.629-5.872,5.872-5.872C259.339,139.87,261.967,142.499,261.967,145.742z"/>
						<path style="fill:#FDBC08;" d="M214.017,122.843c0,3.243-2.629,5.871-5.872,5.871s-5.872-2.629-5.872-5.871        c0-3.243,2.629-5.872,5.872-5.872S214.017,119.6,214.017,122.843z"/>
					</g>
					<path style="fill:#FDBC08;" d="M306.591,40.055c0,2.81-2.278,5.089-5.089,5.089c-2.81,0-5.089-2.278-5.089-5.089       c0-2.81,2.278-5.089,5.089-5.089C304.313,34.966,306.591,37.244,306.591,40.055z"/>
					<circle style="fill:#FDBC08;" cx="386.444" cy="191.54" r="5.089"/>
					<path style="fill:#FDBC08;" d="M270.97,277.655c0,2.81-2.278,5.089-5.089,5.089c-2.81,0-5.089-2.278-5.089-5.089       c0-2.81,2.278-5.089,5.089-5.089C268.692,272.567,270.97,274.845,270.97,277.655z"/>
					<path style="fill:#FDBC08;" d="M474.712,277.068c0,2.81-2.278,5.089-5.089,5.089c-2.81,0-5.089-2.278-5.089-5.089       c0-2.81,2.278-5.089,5.089-5.089C472.434,271.98,474.712,274.258,474.712,277.068z"/>
					<path style="fill:#FDBC08;" d="M338.884,277.068c0,2.81-2.278,5.089-5.089,5.089c-2.81,0-5.089-2.278-5.089-5.089       c0-2.81,2.278-5.089,5.089-5.089C336.606,271.98,338.884,274.258,338.884,277.068z"/>
					<circle style="fill:#FDBC08;" cx="444.572" cy="378.841" r="5.089"/>
					<path style="fill:#FDBC08;" d="M325.576,467.697c0,2.81-2.278,5.089-5.089,5.089c-2.81,0-5.089-2.278-5.089-5.089       c0-2.81,2.278-5.089,5.089-5.089C323.297,462.608,325.576,464.887,325.576,467.697z"/>
					<path style="fill:#FDBC08;" d="M38.654,271.98c0,2.81-2.278,5.089-5.089,5.089c-2.81,0-5.089-2.278-5.089-5.089       s2.278-5.089,5.089-5.089C36.376,266.891,38.654,269.169,38.654,271.98z"/>
					<path style="fill:#FDBC08;" d="M301.502,68.238c0,2.81-2.278,5.089-5.089,5.089c-2.81,0-5.089-2.278-5.089-5.089       c0-2.81,2.278-5.089,5.089-5.089C299.224,63.149,301.502,65.427,301.502,68.238z"/>
				</g>
			</g>
		</g>
	</g>
</g>















</svg>
