<?xml version="1.0" encoding="UTF-8"?>
<!-- Generator: Adobe Illustrator 25.2.0, SVG Export Plug-In . SVG Version: 6.00 Build 0)  -->
<svg xmlns="http://www.w3.org/2000/svg" xmlns:xlink="http://www.w3.org/1999/xlink" version="1.1" id="Capa_1" x="0px" y="0px" viewBox="0 0 500 500" style="enable-background:new 0 0 500 500;" xml:space="preserve" width="512" height="512">
<g>
	<path d="M0,201.897c0-2.436,0-4.871,0-7.307c0.064-0.46,0.163-0.919,0.186-1.381c0.851-16.634,4.277-32.756,9.824-48.427   c7.446-21.04,18.84-39.845,33.106-56.888c10.59-12.652,23.219-22.908,37.861-30.684c12.281-6.522,25.303-10.973,38.61-14.778   c13.72-3.924,27.625-4.753,41.738-3.005c14.767,1.828,28.795,6.176,42.318,12.287c13.331,6.024,25.548,13.735,36.26,23.759   c3.311,3.098,6.708,6.105,10.112,9.196c0.378-0.33,0.727-0.635,1.077-0.939c6.606-5.743,12.908-11.889,19.881-17.146   c15.72-11.853,33.499-19.554,52.541-24.339c13.416-3.371,27.032-4.614,40.826-3.066c8.93,1.002,17.507,3.542,26.052,6.199   c14.482,4.503,28.257,10.557,40.792,19.152c13.703,9.395,25.003,21.22,34.638,34.737c15.352,21.537,26.205,44.988,31.203,71.072   c2.617,13.658,3.895,27.382,2.217,41.214c-2.238,18.445-6.756,36.32-13.982,53.504c-6.202,14.747-13.815,28.683-23.166,41.647   c-12.195,16.906-27.304,30.979-43.726,43.608c-10.458,8.043-21.476,15.359-32.276,22.954c-6.431,4.523-12.917,8.969-19.395,13.426   c-6.633,4.564-13.079,9.445-19.973,13.576c-16.143,9.672-32.473,19.036-48.792,28.411c-9.923,5.701-19.282,12.245-28.733,18.664   c-7.001,4.755-13.849,9.757-21.373,13.703c-1.099,0.576-2.149,0.6-3.197-0.039c-0.599-0.365-1.185-0.758-1.738-1.188   c-8.028-6.225-15.945-12.6-24.101-18.652c-8.721-6.471-17.67-12.634-26.511-18.943c-4.268-3.045-8.377-6.339-12.806-9.125   c-6.656-4.186-13.582-7.939-20.3-12.028c-14.797-9.008-29.692-17.869-44.254-27.245c-15.278-9.836-30.143-20.285-43.933-32.198   c-12.917-11.158-24.894-23.174-34.675-37.214c-8.104-11.633-14.924-23.992-20.545-37.035C7.675,248.6,2.663,229.053,0.532,208.745   C0.293,206.469,0.175,204.18,0,201.897z M201.703,214.839c0-0.683-0.018-1.191,0.003-1.696c0.792-19.469,1.737-38.928,3.726-58.32   c0.738-7.189,0.752-7.169,5.289-12.856c4.584-5.746,9.133-11.521,13.637-17.33c0.878-1.134,1.631-2.421,2.172-3.747   c0.975-2.391,0.152-4.591-2.062-5.743c-3.892-2.024-10.886-2.191-14.444,3.216c-1.402,2.13-2.531,4.488-3.468,6.867   c-2.66,6.759-3.797,13.898-4.672,21.055c-0.345,2.818-1.306,5.154-3.014,7.37c-3.086,4.005-5.938,8.197-9.773,11.564   c-2.298,2.018-4.877,3.477-7.95,3.904c-3.062,0.426-5.646-0.445-7.164-3.248c-0.947-1.75-1.68-3.657-2.228-5.573   c-1.669-5.842-1.67-11.814-1.331-17.835c0.131-2.336,0.85-4.21,2.297-5.976c4.599-5.611,9.148-11.265,13.69-16.923   c1.11-1.383,2.287-2.754,3.133-4.295c1.096-1.998,0.173-3.701-2.056-4.229c-0.542-0.128-1.107-0.188-1.665-0.21   c-2.964-0.118-5.692,0.888-8.482,1.703c-4.137,1.208-6.871,3.817-8.478,7.747c-1.31,3.202-2.525,6.453-4.027,9.564   c-9.4,19.467-18.671,38.999-29.115,57.944c-2.131,3.866-4.705,7.313-7.908,10.305c-3.497,3.267-7.389,5.899-12.133,7.002   c-4.347,1.011-7.913-0.063-10.541-3.897c-1.67-2.437-3.111-4.997-3.361-7.926c-0.304-3.574-0.645-7.243-0.181-10.767   c1.663-12.642,6.058-24.314,13.713-34.588c2.81-3.772,6.091-7.191,9.092-10.824c0.298-0.361,0.351-1.199,0.144-1.639   c-0.301-0.64-0.862-1.235-1.453-1.647c-2.223-1.548-4.705-2.248-7.43-2.017c-3.75,0.318-7.053,1.886-10.137,3.863   c-11.529,7.387-19.785,17.501-24.598,30.321c-3.516,9.365-5.168,18.916-2.555,28.893c1.859,7.095,4.579,13.673,9.837,18.951   c5.392,5.413,11.907,7.22,19.322,5.621c6.373-1.374,11.438-5.041,15.791-9.701c5.681-6.082,10.452-12.854,14.553-20.089   c7.572-13.361,14.615-26.998,21.193-40.875c0.275-0.579,0.587-1.14,0.944-1.829c0.082,0.261,0.139,0.347,0.127,0.423   c-0.044,0.276-0.113,0.548-0.171,0.822c-1.647,7.904-2.992,15.825-2.067,23.96c0.709,6.241,2.818,11.808,7.362,16.295   c1.785,1.762,3.853,2.938,6.405,3.174c3.408,0.315,6.183-1.065,8.754-3.113c5.876-4.681,10.45-10.431,14.075-16.973   c0.279-0.503,0.58-0.994,0.87-1.491c0.153,0.465,0.08,0.822-0.001,1.177c-1.435,6.244-3.012,12.46-4.274,18.738   c-1.798,8.943-3.385,17.929-5.01,26.906c-0.194,1.07-0.682,1.437-1.702,1.628c-9.797,1.837-19.615,3.575-29.367,5.631   c-23.428,4.94-42.523,17.117-57.86,35.318c-6.77,8.035-11.249,17.279-12.83,27.698c-3.184,20.978,4.04,38.258,19.901,51.786   c12.998,11.086,28.003,14.173,44.405,8.524c8.847-3.047,15.769-8.866,21.798-15.829c9.172-10.593,16.09-22.545,20.922-35.666   c4.413-11.983,6.659-24.5,7.783-37.151c1.127-12.679,1.576-25.42,2.233-38.139c0.07-1.346,0.508-1.785,1.734-2.131   c6.118-1.73,12.254-3.421,18.288-5.418c6.898-2.283,13.64-4.965,19.353-9.681c2.483-2.049,5.06-3.983,7.778-6.114   c-0.138,0.546-0.229,0.885-0.309,1.227c-1.112,4.731-2.439,9.424-3.281,14.202c-1.165,6.604-0.376,13.113,2.387,19.238   c3.433,7.608,10.836,11.174,18.691,9.294c3.551-0.85,5.932-3.274,8.06-5.998c4.672-5.981,7.755-12.784,10.059-19.956   c3.222-10.026,4.517-20.353,4.57-30.852c0.005-1.003,0.328-1.612,1.162-2.17c1.711-1.144,3.391-2.347,4.987-3.644   c7.564-6.146,13.489-13.744,19.068-21.644c0.283-0.4,0.569-0.797,1.072-1.502c-0.062,0.83-0.087,1.248-0.126,1.664   c-0.657,7.102-0.288,14.127,1.571,21.04c0.966,3.589,2.553,6.829,5.289,9.429c3.067,2.915,6.5,3.459,10.326,1.629   c2.38-1.138,4.214-2.925,5.886-4.91c3.789-4.498,6.92-9.429,9.618-14.644c0.224-0.433,0.481-0.848,0.734-1.291   c0.436,4.328,0.805,8.558,1.298,12.773c0.804,6.872,3.032,13.218,7.336,18.716c2.865,3.66,6.365,6.508,10.989,7.606   c5.779,1.373,11.07-0.143,15.938-3.218c8.133-5.137,13.919-12.279,17.513-21.189c1.378-3.418,2.187-6.953,1.952-10.683   c-0.305-4.823-3.011-8.159-7.615-8.914c-4.727-0.776-9.316,0.324-13.838,1.571c-1.288,0.355-1.573,1.473-1.161,2.873   c0.5,1.699,1.063,3.399,1.336,5.14c1.59,10.133-4.807,19.423-14.838,21.56c-4.289,0.914-9.538,0.111-11.478-6.287   c-0.569-1.877-1.249-3.737-1.621-5.655c-1.406-7.266-1.497-14.612-0.973-21.964c0.103-1.443,0.542-2.938,1.153-4.258   c4.414-9.527,8.23-19.277,11.145-29.368c0.307-1.062,0.591-2.247,0.417-3.296c-0.149-0.897-0.777-1.994-1.53-2.462   c-2.96-1.841-7.437-0.659-9.062,2.408c-0.887,1.674-1.677,3.515-1.978,5.367c-1.504,9.237-2.825,18.502-4.234,27.755   c-0.11,0.721-0.189,1.62-0.642,2.088c-2.758,2.849-5.526,5.705-8.5,8.32c-1.051,0.924-2.649,1.468-4.072,1.678   c-3.135,0.462-5.298-1.266-7.056-3.692c-4.82-6.651-5.74-14.178-5.035-22.077c0.035-0.392,0.244-0.803,0.47-1.138   c2.827-4.185,5.724-8.324,8.489-12.549c1.122-1.715,2.029-3.582,2.919-5.435c0.687-1.433,0.9-3,0.176-4.486   c-1.278-2.624-3.681-3.457-6.358-3.688c-2.39-0.207-4.243,0.807-5.319,2.921c-0.993,1.951-2.033,3.944-2.587,6.041   c-1.731,6.552-3.238,13.164-4.842,19.75c-0.373,1.533-0.429,3.286-1.241,4.543c-2.996,4.635-6.124,9.199-9.435,13.614   c-4.513,6.018-9.66,11.453-15.88,15.779c-0.398,0.277-0.819,0.52-1.244,0.788c-0.111-0.229-0.18-0.307-0.184-0.389   c-0.037-0.795-0.062-1.591-0.093-2.386c-0.315-8.193-1.726-16.179-4.492-23.914c-2.073-5.797-5.177-10.913-9.954-14.874   c-4.059-3.366-8.696-4.625-13.916-3.446c-10.006,2.262-16.699,8.384-20.706,17.679c-5.955,13.814-1.219,30.355,11.204,37.104   c0.119,0.065,0.213,0.176,0.539,0.453c-0.805,0.998-1.451,2.196-2.436,2.954c-6.163,4.744-12.589,9.067-19.465,12.768   C220.705,209.981,211.454,212.768,201.703,214.839z M335.617,265.992c0.119,0.13,0.238,0.26,0.357,0.39   c-0.003,0.039,0.009,0.088-0.011,0.114c-0.312,0.409-0.627,0.815-0.942,1.221c-2.853,3.673-5.188,7.562-5.423,12.393   c-0.559,11.53,5.288,20.608,16.191,24.643c11.598,4.292,23.11,3.722,34.243-1.588c12.204-5.822,19.337-15.862,22.947-28.649   c2.093-7.417,2.742-14.937,0.016-22.248c-4.913-13.177-14.591-21.114-28.227-24.191c-3.222-0.727-6.557-1.018-9.858-1.314   c-7.398-0.662-14.745,0.066-21.841,2.072c-13.781,3.895-26.799,9.777-39.55,16.218c-13.189,6.662-26.771,12.345-40.986,16.348   c-6.292,1.772-12.893,1.555-19.394,0.978c-5.271-0.468-10.157-2.132-14.393-5.415c-2.855-2.213-5.344-4.705-6.243-8.393   c-0.249-1.022-0.904-1.607-2.021-1.878c-1.109-0.269-1.913,0.067-2.732,0.661c-4.564,3.31-6.619,8.145-7.93,13.354   c-1.969,7.821,2.076,18.287,12.8,20.172c7.091,1.247,14.184,1.305,21.153-0.714c12.365-3.582,24.06-8.809,35.403-14.832   c12.649-6.716,25.221-13.575,37.871-20.289c9.951-5.282,20.276-9.653,31.328-12.093c6.763-1.492,13.548-2.37,20.446-0.719   c5.531,1.325,10.516,3.71,14.696,7.552c3.777,3.472,6.658,7.657,5.847,13.042c-1.171,7.78-5.547,13.449-12.63,16.974   c-6.71,3.339-17.966-1.746-15.958-11.09c0.332-1.545-0.602-2.479-2.226-2.561c-1.213-0.061-2.443-0.1-3.648,0.026   c-7.091,0.742-13.861,2.653-20.289,5.746c-7.553,3.633-14.315,8.512-21.021,13.463c-10.131,7.481-20.049,15.255-30.741,21.951   c-12.827,8.032-26.243,14.473-41.685,15.392c-8.15,0.485-16.193,0.064-23.862-3.166c-1.965-0.828-3.267-0.306-4.043,1.69   c-1.338,3.443-1.584,7.055-0.943,10.645c0.974,5.46,4.602,8.924,9.397,11.138c6.035,2.787,12.413,3.701,19.045,2.813   c8.679-1.161,16.472-4.58,23.7-9.34c9.953-6.554,19.25-13.994,28.09-21.955c10.124-9.118,19.883-18.64,29.952-27.821   C326.673,272.931,331.234,269.559,335.617,265.992z M246.581,394.709c-0.275-0.51-0.475-0.93-0.718-1.323   c-2.627-4.251-6.067-7.659-10.766-9.476c-3.721-1.439-7.412-1.229-10.478,1.696c-2.994,2.856-3.231,6.395-2.107,10.136   c1.174,3.909,3.039,7.507,5.843,10.457c3.284,3.455,6.781,6.712,10.276,9.959c2.365,2.197,4.965,4.143,7.299,6.37   c1.107,1.056,2.112,1.161,3.246,0.448c1.423-0.895,2.868-1.811,4.102-2.94c4.871-4.456,9.718-8.941,14.464-13.53   c2.654-2.566,4.6-5.701,5.842-9.173c1.77-4.944,0.64-9.414-3.089-13.001c-3.502-3.369-7.717-2.996-11.809-1.234   c-4.489,1.934-8.07,5.049-10.667,9.234C247.551,393.084,247.102,393.847,246.581,394.709z M129.037,76.257   c0.036-5.954-4.055-9.957-10.255-10.035c-5.831-0.073-10.682,4.913-10.749,11.048c-0.061,5.582,4.319,10.086,9.837,10.114   C124.048,87.417,128.999,82.484,129.037,76.257z M362.174,76.161c-0.001,6.241,4.883,11.193,11.071,11.224   c5.515,0.028,9.942-4.437,9.934-10.017c-0.009-6.127-4.817-11.157-10.652-11.145C366.337,66.235,362.175,70.23,362.174,76.161z    M79.567,105.574c4.983-0.001,9.206-4.746,9.201-10.338c-0.005-5.207-4.201-9.427-9.357-9.409   c-5.193,0.018-9.825,4.705-9.837,9.956C69.562,100.913,74.321,105.575,79.567,105.574z M421.636,95.874   c0.036-5.246-4.555-9.979-9.746-10.046c-5.159-0.066-9.387,4.103-9.447,9.317c-0.065,5.558,4.153,10.388,9.109,10.43   C416.802,105.619,421.601,101.003,421.636,95.874z M301.131,367.604c-6.207,0.024-10.541,4.012-10.5,9.661   c0.038,5.188,4.284,9.425,9.397,9.375c5.466-0.053,10.054-4.811,10.037-10.409C310.049,371.248,306.255,367.584,301.131,367.604z    M52.169,127.201c5.081,0.009,8.981-3.743,8.959-8.619c-0.022-4.692-4.005-8.643-8.717-8.645c-4.558-0.001-8.473,4.328-8.502,9.402   C43.884,123.852,47.393,127.192,52.169,127.201z M439.084,127.201c4.769-0.025,8.269-3.391,8.217-7.904   c-0.058-5.087-3.976-9.381-8.543-9.359c-4.71,0.022-8.677,3.994-8.675,8.686C430.086,123.5,433.998,127.228,439.084,127.201z    M201.285,376.764c0.005-4.904-3.788-8.694-8.736-8.727c-4.596-0.031-8.017,3.585-8.023,8.482c-0.007,4.961,3.927,9.108,8.612,9.08   C197.634,385.573,201.28,381.619,201.285,376.764z M29.027,147.952c0.03,4.681,3.194,8.221,7.303,8.173   c4.151-0.048,7.552-3.792,7.498-8.254c-0.054-4.419-3.468-7.501-8.295-7.485C31.864,140.398,29,143.729,29.027,147.952z    M462.184,148.059c0.083-4.209-2.742-7.597-6.398-7.672c-4.793-0.098-8.292,2.974-8.401,7.377c-0.11,4.454,3.252,8.258,7.389,8.36   C458.901,156.226,462.092,152.754,462.184,148.059z M26.143,185.921c4.056,0.015,7.32-3.144,7.345-7.108   c0.025-4.023-3.486-7.909-7.282-7.833c-4.842,0.096-6.488,3.492-6.757,8.326C19.243,182.986,22.333,185.906,26.143,185.921z    M464.962,185.921c3.825,0.028,6.96-2.827,6.796-6.509c-0.213-4.773-1.789-8.266-6.647-8.433c-3.8-0.13-7.363,3.703-7.388,7.727   C457.698,182.681,460.919,185.891,464.962,185.921z M27.898,230.492c-3.268-0.009-5.945,2.647-5.915,5.869   c0.028,3.014,2.488,5.469,5.467,5.455c3.732-0.017,6.45-2.328,6.434-5.469C33.868,233.183,31.126,230.5,27.898,230.492z    M463.303,230.491c-3.227,0.013-5.966,2.702-5.975,5.866c-0.009,3.142,2.713,5.449,6.444,5.459   c2.978,0.008,5.435-2.453,5.456-5.465C469.252,233.128,466.572,230.478,463.303,230.491z M30.153,207.619   c-0.02-3.04-2.273-5.426-5.107-5.408c-2.942,0.019-5.708,2.969-5.671,6.047c0.038,3.175,2.382,5.707,5.235,5.656   C27.622,213.862,30.175,210.961,30.153,207.619z M461.059,207.645c-0.01,3.342,2.559,6.235,5.568,6.271   c2.851,0.034,5.185-2.512,5.21-5.683c0.024-3.08-2.756-6.019-5.698-6.021C463.306,202.209,461.068,204.603,461.059,207.645z"/>
	<path d="M184.68,222.729c-0.902,3.61-1.78,6.991-2.591,10.388c-3.412,14.298-7.263,28.461-12.941,42.057   c-6.363,15.237-15.248,28.651-28.486,38.841c-7.369,5.672-15.56,9.525-24.9,10.492c-2.395,0.248-4.861,0.043-7.274-0.174   c-2.579-0.232-4.714-1.487-6.776-3.097c-11.464-8.952-13.313-20.945-9.471-33.753c5.131-17.108,14.746-31.656,28.518-43.247   c7.914-6.66,17.103-10.996,27.004-13.587c9.312-2.436,18.799-4.208,28.217-6.239C178.769,223.81,181.581,223.325,184.68,222.729z"/>
	<path d="M262.191,188.672c0.548-2.147,1.071-4.082,1.525-6.034c0.199-0.856,0.392-1.752,0.349-2.619   c-0.093-1.852-1.178-2.608-2.833-1.82c-1.233,0.587-2.316,1.541-3.367,2.445c-0.876,0.754-1.609,1.673-2.503,2.622   c-1.558-2.157-2.116-4.541-2.415-6.998c-0.638-5.232,0.344-10.285,2.058-15.175c2.215-6.318,5.675-11.899,10.628-16.479   c0.72-0.666,1.463-1.323,2.27-1.876c3.231-2.212,4.555-2.004,7.132,0.885c4.251,4.766,6.243,10.591,7.822,16.601   c1.772,6.745,2.362,13.64,2.366,20.591c0,0.46-0.302,1.131-0.673,1.349c-6.298,3.703-12.997,6.19-20.381,6.504   C263.614,188.693,263.058,188.672,262.191,188.672z"/>
	<path d="M285.543,185.645c-0.56,4.017-1.085,8.04-1.69,12.05c-0.693,4.594-1.556,9.184-3.968,13.225   c-1.426,2.389-3.101,4.695-5.007,6.717c-3.356,3.561-8.038,3.064-10.759-1.009c-2.302-3.446-3.204-7.416-3.278-11.465   c-0.072-3.914,0.351-7.839,0.585-11.757c0.039-0.65,0.14-1.244,1.108-1.262c7.866-0.145,15.042-2.685,21.869-6.403   c0.196-0.107,0.408-0.186,0.613-0.277C285.193,185.524,285.368,185.585,285.543,185.645z"/>
</g>















</svg>
