<?xml version="1.0" encoding="iso-8859-1"?>
<!-- Generator: Adobe Illustrator 26.5.3, SVG Export Plug-In . SVG Version: 6.00 Build 0)  -->
<svg xmlns="http://www.w3.org/2000/svg" xmlns:xlink="http://www.w3.org/1999/xlink" version="1.1" id="Capa_1" x="0px" y="0px" viewBox="0 0 512 512" style="enable-background:new 0 0 512 512;" xml:space="preserve">
<g>
	<g>
		<path d="M71.701,390.75c-0.048-21.521,3.071-42.516,10.975-62.617c4.286-10.9,9.968-21.004,19.346-28.496    c11.269-9.003,24.89-7.851,34.678,2.772c7.795,8.46,12.5,18.576,15.907,29.384c3.577,11.347,5.383,23.029,6.322,34.861    c1.689,21.28,0.093,42.292-5.449,62.931c-3.567,13.283-8.511,25.989-17.369,36.775c-4.972,6.055-10.895,10.805-18.963,12.042    c-8.36,1.282-15.14-2.05-21.08-7.515c-6.624-6.095-10.861-13.797-14.246-21.992c-5.764-13.955-8.576-28.57-9.671-43.584    C71.797,400.455,71.808,395.608,71.701,390.75z M99.601,393.208c0.018,12.706-0.063,22.728,0.612,32.725    c0.516,7.638,0.989,15.292,2.712,22.793c1.312,5.711,2.918,11.343,5.609,16.56c2.781,5.39,8.273,6.174,12.671,2.029    c1.057-0.996,1.926-2.123,2.67-3.378c3.086-5.206,4.301-11.002,5.258-16.852c2.926-17.879,3.227-35.945,3.545-53.994    c0.223-12.667,0.026-25.334-0.647-37.998c-0.637-11.986-1.539-23.924-3.958-35.699c-1.038-5.055-2.095-10.128-4.611-14.717    c-1.607-2.932-3.295-3.497-6.422-2.52c-2.063,0.644-3.531,1.982-4.845,3.606c-3.621,4.475-5.571,9.732-6.973,15.197    c-3.508,13.676-4.314,27.703-4.967,41.714C99.741,373.737,99.417,384.816,99.601,393.208z"/>
		<path d="M244.651,431.66c-2.495,9.804-5.729,18.612-10.167,26.955c-2.973,5.591-6.661,10.566-12.553,13.373    c-8.484,4.041-16.139,1.916-23.108-3.62c-6.935-5.509-11.05-13.065-14.194-21.104c-4.595-11.748-6.683-24.059-7.715-36.61    c-0.941-11.442-1.341-22.906-0.754-34.337c1.198-23.315,5.131-46.142,14.385-67.761c4.073-9.515,10.066-17.674,18.835-23.455    c4.604-3.035,9.623-5.266,15.23-5.544c11.241-0.559,18.818,5.235,24.112,14.518c3.085,5.409,4.531,11.417,5.237,17.564    c0.913,7.951,0.871,15.896-0.767,23.776c-0.449,2.16-0.975,4.296-2.068,6.241c-0.508,0.905-1.149,1.72-2.336,1.285    c-1.11-0.407-0.999-1.42-0.851-2.329c1.028-6.301,1.75-12.632,1.469-19.024c-0.313-7.132-0.714-14.267-3.735-20.923    c-1.631-3.595-3.849-6.696-7.302-8.788c-3.895-2.36-8.011-2.218-11.72,0.464c-6.285,4.544-9.953,10.904-12.522,18.033    c-5.115,14.192-8.449,28.814-10.562,43.729c-1.735,12.246-2.861,24.539-3.336,36.909c-0.559,14.58-0.595,29.128,1.543,43.59    c1.125,7.61,2.738,15.16,7.743,21.355c2.3,2.846,5.035,5.238,9.066,5.451c6.127,0.324,9.462-3.549,12.044-8.183    c3.149-5.651,5.27-11.772,6.959-18.01c3.762-13.895,5.88-28.048,6.326-42.438c0.106-3.433-0.099-3.421-3.439-3.032    c-5.87,0.683-11.726,1.575-17.657,1.601c-1.763,0.008-3.496-0.198-5.105-0.95c-1.151-0.538-2.09-1.345-1.949-2.78    c0.13-1.322,1.127-1.928,2.257-2.284c2.919-0.919,5.984-0.958,8.982-1.382c8.715-1.232,17.497-1.764,26.274-2.305    c5.593-0.345,7.704,1.232,9.134,6.686c1.161,4.426,1.416,8.986,1.702,13.522c0.672,10.67,1.105,21.351,1.516,32.036    c0.387,10.08,0.882,20.154,0.87,30.245c-0.006,5.051-1.633,6.952-6.658,7.792c-1.869,0.312-3.748,0.576-5.628,0.808    c-3.833,0.474-6.366-1.206-7.145-4.994c-1.026-4.993-1.049-10.095-1.308-15.165c-0.174-3.407-0.349-6.816-0.418-10.227    C245.271,439.008,245.247,435.674,244.651,431.66z"/>
		<path d="M348.813,410.044c-2.454,7.781-5.134,15.35-8.635,22.61c-2.248,4.662-4.781,9.156-8.513,12.842    c-6.673,6.591-15.717,8.018-24.086,3.772c-4.341-2.202-7.872-5.347-10.794-9.244c-7.088-9.454-10.708-20.339-13.205-31.692    c-1.978-8.992-2.705-18.129-3.29-27.301c-0.576-9.03-0.763-18.075-0.286-27.077c1.24-23.396,5.136-46.322,14.51-67.971    c4.749-10.967,11.934-20.033,22.919-25.589c15.292-7.734,28.99-0.866,35.705,12.413c3.532,6.985,4.775,14.542,5.158,22.236    c0.359,7.22-0.02,14.418-2.149,21.409c-0.307,1.009-0.755,1.983-1.216,2.935c-0.419,0.867-1.079,1.572-2.147,1.286    c-1.142-0.305-1.133-1.289-1.02-2.232c0.416-3.462,1.015-6.912,1.237-10.386c0.647-10.131,0.432-20.199-3.541-29.778    c-1.448-3.492-3.647-6.484-6.904-8.551c-4.116-2.61-8.408-2.463-12.323,0.456c-6.888,5.135-10.482,12.413-13.166,20.295    c-6.869,20.176-10.229,41.021-12.031,62.181c-1.077,12.64-1.56,25.297-1.202,37.968c0.305,10.769,0.904,21.535,4.053,31.962    c1.837,6.084,4.483,11.604,10.124,15.152c3.123,1.964,7.66,1.776,10.731-0.299c5.059-3.418,7.034-8.802,9.157-14.076    c4.745-11.784,7.002-24.159,8.545-36.697c0.676-5.497,1.516-10.975,1.336-16.543c-0.099-3.044-0.229-3.112-3.347-2.73    c-6.093,0.748-12.172,1.687-18.338,1.626c-1.616-0.016-3.183-0.246-4.634-0.986c-1.062-0.541-1.924-1.293-1.873-2.614    c0.056-1.439,1.016-2.247,2.286-2.472c2.983-0.529,5.99-0.926,8.992-1.342c8.493-1.178,17.048-1.674,25.593-2.273    c6.439-0.451,8.78,1.344,10.069,7.802c1.251,6.265,1.551,12.647,1.852,19.002c0.593,12.498,1.139,24.999,1.566,37.506    c0.215,6.296,0.314,12.589,0.375,18.884c0.039,4.069-1.37,5.83-5.338,6.736c-2.36,0.539-4.77,0.921-7.178,1.18    c-3.673,0.395-5.798-1.026-6.757-4.584c-1.335-4.953-1.103-10.086-1.407-15.146C349.227,423.834,349.077,416.936,348.813,410.044z    "/>
		<path d="M34.721,456.834c0,2.21,0.021,4.42-0.007,6.629c-0.021,1.701-0.788,2.754-2.504,3.337    c-5.356,1.82-10.864,1.779-16.394,1.559c-1.596-0.064-2.551-1.016-2.744-2.595c-0.41-3.354-0.884-6.707-1.118-10.075    c-1.182-17-2.297-34.005-3.434-51.008c-1.256-18.795-2.522-37.59-3.761-56.387c-1.14-17.286-2.245-34.575-3.378-51.862    c-0.433-6.611-0.896-13.221-1.357-19.831c-0.179-2.571,0.561-3.863,3.099-4.657c4.366-1.366,8.921-1.821,13.423-2.496    c15.496-2.322,30.997-4.605,46.502-6.871c3.482-0.509,6.981-0.907,10.477-1.315c2.145-0.25,3.484,0.517,3.742,2.043    c0.26,1.538-0.718,2.76-2.809,3.2c-7.098,1.493-14.292,2.409-21.459,3.485c-8.122,1.219-16.244,2.446-24.378,3.579    c-1.494,0.208-1.906,0.722-1.834,2.238c0.942,19.712,1.82,39.427,2.702,59.142c0.555,12.41,1.119,24.819,1.6,37.231    c0.069,1.77,0.451,2.446,2.403,2.158c5.458-0.807,10.932-1.544,16.457-1.746c1.448-0.053,2.909-0.041,4.304,0.454    c1.198,0.426,2.053,1.183,2.073,2.545c0.019,1.316-0.662,2.151-1.876,2.69c-2.594,1.151-5.38,1.251-8.114,1.443    c-4.206,0.294-8.358,0.991-12.547,1.391c-1.701,0.163-2.318,0.907-2.193,2.712c0.43,6.194,0.78,12.398,0.987,18.603    c0.415,12.415,1.062,24.819,1.608,37.228c0.251,5.715,0.043,11.45,0.043,17.176C34.397,456.834,34.559,456.834,34.721,456.834z"/>
		<path d="M421.164,384.737c1.227-5.19,2.42-10.266,3.628-15.338c5.431-22.809,10.846-45.621,16.324-68.419    c0.743-3.093,1.884-6.089,2.69-9.169c0.528-2.018,1.825-3.035,3.734-3.037c6.684-0.006,13.366,0.336,19.862,2.024    c3.998,1.039,4.77,2.859,3.655,7.059c-7.689,28.967-15.365,57.937-23.062,86.901c-7.775,29.255-15.558,58.508-23.369,87.753    c-0.899,3.367-1.989,6.684-3.007,10.02c-0.588,1.927-1.871,2.823-3.921,2.701c-5.8-0.348-11.052-2.564-16.232-4.89    c-1.916-0.86-2.012-2.939-1.642-4.814c0.644-3.275,1.36-6.537,2.129-9.785c5-21.117,10.011-42.231,15.06-63.336    c0.37-1.546,0.267-2.928-0.216-4.435c-9.188-28.692-19.31-57.071-28.711-85.691c-1.492-4.541-2.991-9.08-4.506-13.613    c-1.282-3.835-1.722-7.844-2.441-11.792c-0.262-1.44-0.216-3.05,1.52-3.634c1.835-0.618,2.783,0.708,3.588,2.063    c3.866,6.506,6.261,13.622,8.607,20.76c7.224,21.986,14.463,43.968,21.69,65.953c1.161,3.532,2.272,7.081,3.451,10.607    C420.219,383.303,420.219,384.133,421.164,384.737z"/>
	</g>
	<g>
		<path d="M268.81,196.305c18.673,0,37.346-0.02,56.018,0.027c2.121,0.005,3.993-0.451,5.851-1.472    c5.318-2.923,10.613-5.88,16.157-8.39c13.105-5.934,26.419-8.297,40.412-3.25c4.36,1.573,8.936,2.428,13.562,2.808    c5.845,0.48,11.252-1.238,16.48-3.63c2.76-1.263,5.462-2.652,8.225-3.908c1.33-0.605,1.59-1.393,1.005-2.709    c-5.276-11.853-17.265-21.09-31.041-19.236c-3.942,0.53-6.248-1.735-6.214-5.961c0.06-7.382-0.291-14.719-1.875-21.952    c-0.373-1.702-0.951-3.36-1.307-5.065c-0.376-1.8-1.269-1.853-2.795-1.268c-4.858,1.862-9.272,4.525-13.59,7.352    c-7.488,4.903-14.534,10.48-22.439,14.747c-6.384,3.445-13.033,6.203-20.305,7.049c-5.997,0.698-11.461-0.753-16.104-4.728    c-1.781-1.525-2.94-3.482-3.035-5.907c-0.03-0.761,0.101-1.57,0.974-1.878c0.891-0.315,1.44,0.256,1.885,0.903    c4.887,7.112,11.853,8.148,19.569,6.466c9.588-2.09,17.898-6.952,25.908-12.412c6.957-4.743,13.681-9.857,21.115-13.86    c4.623-2.489,9.441-4.508,14.763-5.055c5.831-0.6,10.634,0.965,13.887,6.167c1.327,2.122,2.719,4.211,4.192,6.234    c3.252,4.466,7.596,6.109,12.981,4.708c4.33-1.127,8.621-2.412,12.966-3.477c3.773-0.925,7.618-1.251,11.501-0.688    c1.588,0.23,3.126,0.609,4.564,1.343c4.262,2.175,5.841,6.275,4.079,10.739c-1.872,4.744-5.575,7.898-9.629,10.639    c-6.152,4.159-13.131,6.593-19.986,9.275c-0.668,0.261-2.274,0.101-1.582,1.519c0.476,0.974,1.224,2.122,2.849,1.626    c14.218-4.336,28.634-8.143,41.335-16.342c5.534-3.572,10.684-7.506,14.132-13.273c1.913-3.2,3.04-6.668,2.692-10.4    c-0.494-5.295-3.974-8.25-8.529-10.314c-6.86-3.11-13.903-2.725-20.964-1.103c-5.098,1.172-10.127,2.646-15.185,3.996    c-2.602,0.695-5.257,0.825-7.911,0.584c-4.663-0.422-8.411-2.506-10.871-6.566c-1.138-1.878-2.11-3.862-3.067-5.841    c-3.761-7.773-10.352-10.552-18.825-9.647c-8.33,0.889-15.757,4.33-22.701,8.854c-8.092,5.273-15.425,11.541-22.939,17.575    c-7.586,6.092-15.516,11.704-24.371,15.854c-4.428,2.075-9.037,3.146-13.899,1.637c-1.665-0.517-3.34-1.102-4.462-2.571    c-0.473-0.619-0.842-1.372-0.24-2.076c0.625-0.729,1.252-0.117,1.809,0.218c3.8,2.294,7.778,2.271,11.829,0.868    c6.54-2.265,12.095-6.288,17.719-10.15c9.215-6.328,17.235-14.154,26.06-20.974c0.3-0.232,0.583-0.486,0.886-0.714    c3.188-2.395,3.188-2.394,0.009-4.999c-12.677-10.391-28.109-11.196-41.753-2.177c-6.527,4.314-8.436,3.852-12.122-3.123    c-2.305-4.36-4.535-8.762-6.693-13.197c-0.79-1.624-1.659-2.114-3.543-1.7c-4.498,0.989-9.048,0.918-13.505-0.43    c-2.131-0.645-4.083-1.65-5.64-3.29c-0.486-0.512-0.804-1.161-0.443-1.868c0.389-0.762,1.126-0.657,1.805-0.538    c0.369,0.065,0.734,0.196,1.077,0.351c7.165,3.227,14.346,2.588,21.492,0.002c11.145-4.034,21.785-9.247,32.585-14.086    c7.288-3.265,14.694-6.18,22.665-7.341c2.642-0.385,5.305-0.417,7.949-0.134c5.531,0.592,9.694,3.164,12.089,8.385    c1.423,3.103,3.089,6.078,5.55,8.546c2.979,2.988,6.506,4.588,10.733,4.805c5.1,0.261,10.149-0.464,15.227-0.629    c5.429-0.176,10.814,0.102,15.862,2.205c7.222,3.009,10.067,9.217,11.305,16.431c0.088,0.511,0.039,1.073-0.068,1.585    c-0.204,0.97-0.475,2.225-1.616,2.175c-1.322-0.058-0.761-1.385-0.844-2.198c-0.868-8.505-6.013-15.844-16.392-16.707    c-6.12-0.509-12.129,0.029-18.138,0.733c-11.381,1.332-18.743-2.257-24.372-12.253c-0.447-0.793-0.893-1.59-1.285-2.41    c-1.838-3.851-5.027-5.427-9.143-5.673c-7.237-0.433-13.971,1.648-20.628,4.042c-12.222,4.396-23.796,10.349-35.887,15.062    c-1.172,0.457-1.472,1.041-0.897,2.244c2.191,4.587,4.352,9.189,6.411,13.837c0.657,1.484,1.321,1.324,2.359,0.506    c6.454-5.085,13.775-7.893,21.997-8.288c8.296-0.398,15.899,1.865,22.976,6.072c3.015,1.792,5.772,3.939,8.137,6.532    c1.064,1.167,1.94,1.254,3.322,0.452c6.362-3.694,13.118-6.319,20.516-6.999c8.935-0.821,17.577,2.836,21.723,11.05    c0.957,1.895,1.762,3.867,2.711,5.767c2.677,5.363,6.776,7.406,12.705,6.332c6.433-1.166,12.528-3.621,18.922-4.965    c7.773-1.634,15.326-1.744,22.627,2.017c8.982,4.628,12.131,12.917,8.254,22.374c-1.905,4.648-4.868,8.592-8.781,11.73    c-13.384,10.735-28.747,17.374-45.234,21.646c-1.468,0.38-2.924,0.808-4.395,1.179c-1.017,0.256-1.142,0.702-0.62,1.617    c1.013,1.778,2.06,3.564,2.803,5.461c0.632,1.613,1.295,1.834,2.854,1.115c6.072-2.801,12.296-5.246,18.814-6.793    c15.059-3.574,29.544-2.524,43.008,5.781c4.651,2.87,8.565,6.558,11.276,11.357c6.437,11.394,4.87,23.248-4.608,32.932    c-10.92,11.158-24.085,14.16-38.87,9.621c-9.089-2.79-17.208-7.543-24.382-13.809c-1.101-0.962-1.885-0.842-2.998-0.201    c-5.524,3.178-11.065,6.327-16.629,9.434c-4.045,2.259-8.264,4.146-12.598,5.8c-11.829,4.515-23.096,2.879-33.991-2.987    c-2.805-1.51-5.586-3.072-8.322-4.705c-7.931-4.733-16.484-4.677-25.176-3.241c-9.018,1.49-17.65,4.42-26.275,7.35    c-6.933,2.355-13.993,4.282-21.39,3.731c-10.86-0.809-20.178-4.765-26.507-14.142c-2.108-3.123-2.911-6.66-2.558-10.391    c0.191-2.019-1.082-1.813-2.297-1.812c-8.426,0.007-16.851-0.01-25.277,0.049c-10.622,0.075-21.243,0.233-31.864,0.307    c-1.54,0.011-2.711,0.59-3.932,1.469c-9.068,6.528-18.977,9.695-30.217,7.323c-5.402-1.14-10.006-3.928-14.385-7.104    c-1.696-1.23-3.417-1.694-5.487-1.691c-25.732,0.041-51.464,0.034-77.196-0.007c-3.79-0.006-7.58-0.246-11.37-0.386    c-4.052-0.15-5.489-1.359-6.36-5.401c-1.18-5.474-1.049-11.012-0.723-16.551c0.129-2.194,0.404-4.381,0.64-6.568    c0.122-1.135-0.201-1.945-1.409-2.207c-2.699-0.586-5.39-0.863-8.08,0.084c-3.184,1.121-4.864,3.265-4.887,6.637    c-0.02,2.883,0.152,5.771,1.499,8.425c0.299,0.59,0.506,1.147-0.183,1.58c-0.599,0.377-1.207,0.202-1.674-0.232    c-0.379-0.352-0.745-0.793-0.931-1.267c-1.437-3.66-2.228-7.448-1.347-11.347c1.064-4.711,4.962-7.602,10.182-7.922    c6.516-0.4,11.932,2.393,17.145,5.799c5.428,3.546,10.089,8.021,14.885,12.332c0.733,0.659,1.532,1.243,2.282,1.883    c5.201,4.434,10.843,4.542,16.771,1.692c3.996-1.921,7.373-4.789,10.994-7.282c4.196-2.889,8.704-4.614,13.896-3.889    c2.901,0.405,5.546,1.558,8.062,2.991c6.299,3.587,11.801,8.252,17.352,12.857c3.443,2.857,6.987,5.586,10.599,8.239    c11.532,8.472,25.213,7.064,36.252-0.019c4.381-2.811,8.064-6.408,11.533-10.246c0.356-0.393,0.715-0.791,1.12-1.131    c0.589-0.494,1.254-1.021,2.01-0.373c0.623,0.534,0.455,1.276,0.099,1.88c-0.615,1.042-1.291,2.051-1.996,3.035    c-0.766,1.068-0.455,1.47,0.774,1.445c0.834-0.017,1.67,0.007,2.505,0.007c18.673,0.001,37.346,0.001,56.018,0.001    C268.81,196.272,268.81,196.288,268.81,196.305z M474.571,225.36c10.697-0.039,19.392-3.717,26.424-11.191    c9.707-10.319,8.753-24.557-2.023-33.78c-8.8-7.532-19.229-10.114-30.401-10.213c-9.754-0.086-19.041,2.446-28.104,5.966    c-8.362,3.248-16.209,7.612-24.488,11.021c-5.459,2.248-11.073,3.513-17.072,2.948c-5.097-0.48-10.052-1.576-14.938-2.954    c-9.29-2.62-18.378-2.236-27.525,0.814c-9.43,3.144-18.041,7.929-26.724,12.602c-7.365,3.964-14.842,7.688-22.957,9.864    c-8.109,2.174-16.186,2.413-24.059-1.121c-2.26-1.015-4.647-2.247-5.492-4.538c-1.08-2.927-3.009-3.168-5.49-2.963    c-0.83,0.069-1.671,0.052-2.504,0.013c-1.528-0.072-2.043,0.68-1.84,2.11c0.456,3.204,1.381,6.22,3.461,8.781    c4.6,5.665,10.594,8.992,17.688,10.348c7.851,1.5,15.397-0.084,22.808-2.585c9.707-3.276,19.366-6.716,29.512-8.448    c10.16-1.734,19.941-1.15,28.999,4.494c3.148,1.962,6.487,3.636,9.823,5.272c6.952,3.41,14.177,4.688,21.868,2.808    c7.034-1.72,13.257-5.159,19.491-8.636c8.011-4.468,15.689-9.546,24.304-12.896c11.935-4.641,23.851-5.557,35.833-0.248    c1.46,0.647,2.941,1.275,3.91,2.634c0.413,0.58,0.644,1.264,0.119,1.89c-0.638,0.759-1.18,0.156-1.768-0.184    c-5.197-3-10.935-4.233-16.802-4.212c-7.966,0.028-15.314,2.784-22.369,6.307c-2.156,1.077-2.183,1.424-0.314,2.892    c4.733,3.718,9.817,6.885,15.254,9.456C464.189,223.973,469.466,225.259,474.571,225.36z M395.284,143.268    c0,1.745,0.018,3.49-0.006,5.234c-0.018,1.29,0.606,1.785,1.845,1.631c1.353-0.167,2.698-0.342,4.077-0.222    c6.895,0.599,13.155,2.859,18.663,7.082c0.91,0.698,1.727,1.054,2.896,0.54c6.798-2.989,13.838-5.442,20.326-9.118    c3.601-2.04,6.874-4.507,9.081-8.085c2.357-3.82,1.01-6.978-3.349-8.077c-3.211-0.809-6.461-0.725-9.717-0.286    c-5.595,0.754-10.807,2.978-16.274,4.225c-6.048,1.38-11.245-0.12-15.574-4.55c-2.237-2.29-4.032-4.935-5.73-7.628    c-1.719-2.726-4.158-3.796-7.288-3.769c-1.767,0.016-2.265,0.569-1.758,2.345C394.402,129.342,395.148,136.267,395.284,143.268z     M145.122,195.539c-4.978-4.484-10.219-8.424-16.058-11.5c-5.562-2.93-10.965-2.357-16.106,1.193    c-2.122,1.465-4.215,2.985-6.422,4.312c-11.073,6.658-19.602,6.623-28.802-2.467c-4.27-4.219-8.803-8.138-13.817-11.464    c-2.115-1.403-2.5-1.275-2.747,1.264c-0.52,5.361-0.811,10.738-0.625,16.132c0.108,3.135,0.257,3.343,3.443,3.289    c13.424-0.226,26.849,0.056,40.278-0.331c12.586-0.363,25.19-0.072,37.787-0.094C142.999,195.872,144,196.29,145.122,195.539z     M279.647,201.98c5.994,8.21,24.73,7.05,36.381,0C303.928,201.98,291.853,201.98,279.647,201.98z"/>
		<path d="M137.768,88.805c-2.949-0.989-6.037-1.49-8.838-2.822c-3.013-1.434-5.958-3.011-8.991-4.4    c-9.707-4.448-19.944-5.806-30.44-4.404c-10.147,1.355-24.693,12.913-22.581,28.662c1.333,9.938,8.972,13.561,18.21,12.718    c4.143-0.378,7.869-2.181,11.532-4.045c1.961-0.998,3.913-2.014,5.863-3.034c8.908-4.662,17.654-3.98,26.345,0.671    c4.035,2.16,7.716,4.853,11.368,7.545c6.985,5.148,14.292,5.203,21.974,2.072c6.668-2.718,12.53-6.761,18.252-11.049    c5.708-4.278,11.374-8.653,18.173-11.144c9.691-3.551,19.406-2.541,29.116-0.038c8.615,2.221,16.877,5.483,25.236,8.468    c9.534,3.405,19.178,6.162,29.501,5.891c7.334-0.193,13.74-2.136,18.746-7.733c0.151-0.169,0.318-0.332,0.502-0.462    c0.837-0.587,1.683-1.672,2.751-0.633c0.883,0.859,0.195,1.814-0.307,2.683c-1.726,2.986-4.293,5.081-7.213,6.78    c-3.816,2.22-8,3.186-12.367,3.528c-10.858,0.85-21.098-1.781-31.117-5.553c-9.012-3.393-17.849-7.268-27.254-9.549    c-9.21-2.233-18.311-2.703-27.16,1.444c-4.632,2.171-8.734,5.183-12.788,8.259c-6.663,5.055-13.427,9.961-21.323,12.968    c-8.002,3.047-15.95,3.841-23.54-1.21c-2.905-1.933-5.718-4.006-8.569-6.019c-2.238-1.58-4.61-2.918-7.087-4.093    c-1.335-0.634-1.992-0.362-2.567,1.041c-2.352,5.737-3.711,11.7-4.415,17.841c-0.224,1.954-0.488,3.928-0.998,5.821    c-0.811,3.009-2.647,4.245-5.751,3.985c-3.173-0.266-6.332-0.701-9.502-1.013c-8.391-0.825-16.519-0.006-24.134,3.941    c-2.169,1.124-4.133,2.542-5.977,4.136c-0.965,0.834-1.034,1.656,0.075,2.393c5.972,3.97,10.854,9.239,16.382,13.739    c5.149,4.191,10.547,5.064,16.389,1.53c0.974-0.589,2.017-1.081,2.928-1.753c9.12-6.729,18.382-5.758,27.772-0.622    c5.854,3.201,10.71,7.682,15.673,12.033c5.419,4.75,10.647,9.751,17.163,13.057c5.07,2.572,10.281,4.49,16.136,3.56    c3.987-0.634,6.951-2.818,9.387-5.91c0.505-0.641,0.947-1.997,2.023-1.258c0.981,0.674,0.372,1.832-0.143,2.664    c-3.138,5.062-7.858,7.54-13.665,7.72c-9.274,0.288-17.127-3.679-24.251-9.084c-6.22-4.719-12.104-9.881-18.153-14.827    c-2.842-2.324-6.04-4.072-9.407-5.493c-6.619-2.792-12.99-2.603-19.01,1.675c-1.86,1.322-3.921,2.294-5.987,3.264    c-6.287,2.951-12.09,1.889-17.612-1.956c-3.879-2.701-7.196-6.057-10.724-9.164c-8.052-7.092-17.159-11.986-27.923-13.314    c-15.257-1.881-28.762,4.327-35.591,16.414c-7.105,12.574-1.294,26.776,10.026,33.286c6.005,3.453,12.762,4.22,19.391,5.444    c1.043,0.193,2.101,0.307,3.154,0.441c0.603,0.076,1.311,0.043,1.379,0.861c0.072,0.857-0.561,1.204-1.279,1.319    c-0.819,0.131-1.678,0.329-2.479,0.214c-6.525-0.942-13.116-1.6-19.343-3.975c-11.837-4.515-19.509-15.252-18.872-27.321    c0.523-9.911,5.5-17.837,13.29-23.66c13.691-10.235,28.598-9.944,43.874-4.003c1.484,0.577,2.455,0.488,3.607-0.679    c7.422-7.517,16.699-10.792,27.024-11.447c5.322-0.337,10.608,0.154,15.85,1.183c2.837,0.557,3.135,0.349,3.461-2.53    c0.77-6.802,1.768-13.547,4.297-19.966c0.629-1.596-0.257-1.827-1.533-1.816c-5.124,0.046-9.548,2.259-13.92,4.557    c-5.132,2.697-10.324,5.319-16.207,5.674c-14.11,0.852-21.302-6.439-22.488-18.725c-1.709-17.696,15.566-31.374,30.011-31.62    c11.473-0.196,22.543,1.465,32.595,7.521c5.447,3.282,11.513,5.044,17.491,7.018c0.647,0.214,1.186,0.039,1.763-0.138    c8.788-2.693,17.641-2.721,26.516-0.536c1.541,0.379,2.743,0.228,3.975-0.812c4.302-3.632,8.847-6.919,13.954-9.356    c0.646-0.308,1.137-0.739,1.428-1.396c1.914-4.328,4.447-8.29,7.306-12.037c0.954-1.25,0.876-1.915-0.607-2.49    c-2.19-0.85-4.302-1.918-6.524-2.667c-6.376-2.15-12.103-1.115-16.999,3.71c-1.403,1.383-2.85,2.736-4.389,3.964    c-5.025,4.011-10.525,5.195-16.585,2.534c-5.228-2.295-10.568-4.234-16.272-4.931c-1.724-0.211-3.479-0.159-5.218-0.253    c-0.501-0.027-1.191,0.081-1.253-0.646c-0.052-0.607,0.49-0.896,1.005-1.08c1.997-0.713,4.067-0.5,6.08-0.251    c5.124,0.633,10.206,1.566,15.048,3.414c6.21,2.37,11.431,0.863,15.974-3.741c0.959-0.972,1.934-1.933,2.951-2.843    c5.522-4.943,11.799-6.546,18.989-4.37c4.46,1.35,8.634,3.33,12.728,5.496c5.425,2.87,11.099,4.886,17.262,5.369    c3.391,0.265,6.666-0.008,9.629-1.893c0.639-0.407,1.329-0.986,2.01-0.207c0.601,0.688,0.228,1.467-0.213,2.095    c-1.249,1.777-3.143,2.557-5.123,3.174c-4.214,1.315-8.424,0.801-12.59-0.174c-2.357-0.551-4.654-1.365-6.968-2.095    c-0.819-0.258-1.614-0.575-2.304,0.214c-2.082,2.382-4.04,4.853-5.731,8.076c4.893-0.824,9.391-0.636,13.869,0.295    c9.455,1.964,17.838,6.255,25.77,11.611c6.355,4.291,12.02,9.539,18.635,13.453c10.047,5.945,20.776,8.688,32.478,6.665    c0.837-0.145,2.036-0.577,2.357,0.6c0.295,1.083-0.854,1.509-1.654,1.857c-4.523,1.968-9.31,2.133-14.091,1.644    c-9.833-1.006-18.583-4.801-26.464-10.71c-7.643-5.73-14.997-11.898-23.74-15.994c-5.598-2.622-11.364-4.687-17.614-5.05    c-9.786-0.568-18.085,3.122-25.618,8.971c-5.75,4.465-11.11,9.438-17.273,13.365c-7.741,4.932-16.13,7.653-25.401,7.318    c-6.471-0.234-11.895-3.254-17.266-6.418c-2.678-1.578-5.174-3.439-7.968-4.847c-5.639-2.843-11.538-4.571-17.877-4.775    c-1.024-0.033-2.76,0.291-2.772-1.081c-0.011-1.234,1.644-1.299,2.79-1.309c9.52-0.077,18.57,1.444,26.448,7.378    c3.01,2.267,3.126,2.121,5.804-0.441c1.988-1.902,4.304-3.353,6.579-4.866C136.637,89.902,137.493,89.784,137.768,88.805z     M167.354,91.385c-4.144-0.981-7.794-0.859-11.408-0.641c-8.215,0.496-15.431,3.558-21.701,8.888    c-1.129,0.96-1.051,1.462,0.378,1.942c2.694,0.905,5.448,1.39,8.269,1.148c5.916-0.508,11.372-2.454,16.472-5.473    C162.088,95.637,164.679,93.864,167.354,91.385z"/>
		<path d="M298.766,63.604c-14.768-20.83-58.852-27.279-78.927-11.715c3.45,1.025,6.784,0.991,10.131,0.673    c1.583-0.151,3.154-0.425,4.729-0.648c0.78-0.11,1.65-0.19,1.954,0.693c0.355,1.032-0.489,1.52-1.272,1.838    c-4.151,1.68-8.484,2.269-12.931,1.932c-10.499-0.796-19.521-5.252-27.893-11.319c-5.403-3.916-10.716-7.967-17.029-10.424    c-3.578-1.393-7.27-1.717-10.969-1.173c-3.972,0.585-6.855,3.007-9.029,6.347c-3.855,5.921-3.643,7.072-11.109,3.891    c-3.278-1.397-6.488-0.957-9.624,0.759c-2.812,1.538-5.53,3.17-7.817,5.438c-0.561,0.556-1.131,1.187-1.931,0.552    c-0.763-0.606-0.732-1.476-0.281-2.274c0.332-0.589,0.712-1.179,1.185-1.655c2.983-3,6.437-5.288,10.436-6.716    c3.792-1.354,7.39-0.325,10.806,1.205c1.996,0.894,2.884,0.444,3.924-1.349c5.338-9.205,13.496-12.435,23.788-9.557    c7.316,2.046,13.368,6.415,19.408,10.75c3.961,2.843,8.127,5.301,12.426,7.573c1.389,0.734,2.444,0.559,3.754-0.3    c21.363-14.002,43.88-15.934,67.451-6.277c9.724,3.983,18.082,9.888,24.807,17.997c1.101,1.328,2.131,1.087,3.389,0.48    c5.265-2.544,10.385-5.351,15.4-8.357c12.173-7.296,24.277-14.738,37.655-19.718c8.709-3.241,17.546-5.847,27.031-5.452    c9.703,0.404,16.623,4.595,20.129,13.889c0.803,2.127,1.656,4.245,2.648,6.289c2.458,5.064,6.602,7.595,12.198,7.639    c4.932,0.039,9.866-0.057,14.799-0.102c2.054-0.018,4.087,0.145,6.118,0.477c8.492,1.388,13.544,6.852,13.952,15.442    c0.343,7.23-1.985,13.898-4.807,20.41c-0.346,0.799-0.919,1.926-1.939,1.549c-1.183-0.438-0.747-1.711-0.5-2.609    c1.045-3.801,2.175-7.58,3.277-11.366c0.706-2.424,0.895-4.936,1.024-7.424c0.3-5.791-3.02-10.059-8.89-11.602    c-5.445-1.431-10.978-1.159-16.517-0.769c-3.632,0.256-7.282,0.481-10.888-0.229c-5.397-1.063-9.453-4.036-11.943-8.946    c-1.267-2.498-2.282-5.127-3.343-7.724c-2.747-6.727-7.98-9.475-14.986-9.832c-10.557-0.538-20.207,2.779-29.737,6.645    c-12.202,4.95-23.492,11.686-34.967,18.057c-6.702,3.721-13.408,7.449-20.859,9.537c-4.012,1.124-8.068,1.382-12.155,0.451    c-1.418-0.323-2.781-0.834-3.785-1.954c-0.467-0.521-0.773-1.187-0.311-1.867c0.492-0.722,1.094-0.225,1.621-0.015    C291.643,64.044,295.016,63.769,298.766,63.604z"/>
		<path d="M268.512,170.801c-0.001-6.883,5.542-12.623,12.277-12.713c6.981-0.093,12.841,5.67,12.881,12.668    c0.039,6.766-5.826,12.407-12.843,12.352C273.952,183.056,268.513,177.62,268.512,170.801z M273.626,169.93    c-0.016,4.905,3.573,8.621,8.304,8.599c4.56-0.021,8.024-3.6,8.064-8.33c0.039-4.724-3.397-8.391-7.928-8.461    C277.352,161.665,273.64,165.269,273.626,169.93z"/>
		<path d="M188.034,179.996c-6.421,0.036-11.408-4.91-11.434-11.342c-0.025-6.083,5.535-11.571,11.722-11.568    c6.389,0.003,11.493,4.995,11.555,11.302C199.938,174.661,194.533,179.959,188.034,179.996z M189.349,161.343    c-3.956,0.041-7.593,3.867-7.517,7.908c0.062,3.321,2.833,6.014,6.171,5.998c3.907-0.019,7.636-3.862,7.605-7.838    C195.581,163.905,192.899,161.306,189.349,161.343z"/>
		<path d="M265.263,136.263c1.997,0.161,3.077,1.246,3.268,3.019c0.185,1.717,0.979,1.876,2.455,1.555    c4.202-0.916,8.414-0.867,12.587,0.263c0.656,0.178,1.346,0.314,1.94,0.624c1.156,0.604,3.064,1.06,2.488,2.677    c-0.52,1.461-2.114,0.423-3.2,0.128c-4.959-1.347-9.876-1.183-14.774,0.277c-0.943,0.281-1.863,0.651-2.819,0.869    c-2.495,0.569-4.529-0.377-5.263-2.379c-0.793-2.165,0.185-5.518,1.945-6.53C264.338,136.511,264.871,136.403,265.263,136.263z"/>
		<path d="M235.41,172.648c-0.066,3.602-2.314,6.07-5.46,5.994c-3.258-0.079-5.299-2.702-5.214-6.702    c0.079-3.718,2.295-6.32,5.271-6.187C232.783,165.878,235.471,169.308,235.41,172.648z"/>
		<path d="M191.997,135.89c0.034-2.024,1.392-3.821,3.248-4.122c2.094-0.339,3.354,0.729,3.819,2.686    c0.304,1.279,1.073,1.635,2.259,1.774c2.8,0.328,5.526,0.977,8.005,2.399c1.405,0.805,2.638,1.811,3.288,3.342    c0.303,0.713,0.385,1.513-0.277,2.113c-0.661,0.599-1.495,0.569-2.083,0.016c-3.959-3.722-8.806-3.932-13.836-3.754    C193.77,140.436,191.954,138.424,191.997,135.89z"/>
		<path d="M215.533,123.552c-5.419-0.931-10.779-0.45-16.054,1.234c-0.629,0.201-1.44,0.383-1.796-0.412    c-0.335-0.748,0.265-1.277,0.793-1.705c0.406-0.329,0.859-0.652,1.346-0.823c4.909-1.729,9.909-2.698,15.118-1.609    c0.51,0.107,1.017,0.31,1.478,0.557c0.683,0.366,1.34,0.862,1.157,1.752C217.352,123.635,216.43,123.566,215.533,123.552z"/>
		<path d="M266.814,125.597c3.948,0.411,7.75,1.279,10.925,3.873c0.523,0.428,1.009,0.921,1.431,1.449    c0.544,0.679,0.941,1.528,0.261,2.261c-0.778,0.839-1.57,0.21-2.15-0.378c-2.671-2.704-6.073-3.882-9.645-4.709    c-0.876-0.203-1.782-0.281-2.675-0.404c-0.656-0.091-1.526,0.005-1.464-0.974c0.051-0.809,0.811-1.033,1.506-1.105    C265.599,125.548,266.209,125.597,266.814,125.597z"/>
	</g>
</g>
<g>
</g>
<g>
</g>
<g>
</g>
<g>
</g>
<g>
</g>
<g>
</g>
<g>
</g>
<g>
</g>
<g>
</g>
<g>
</g>
<g>
</g>
<g>
</g>
<g>
</g>
<g>
</g>
<g>
</g>
</svg>
