<?xml version="1.0" encoding="UTF-8"?>
<!-- Generator: Adobe Illustrator 26.5.1, SVG Export Plug-In . SVG Version: 6.00 Build 0)  -->
<svg xmlns="http://www.w3.org/2000/svg" xmlns:xlink="http://www.w3.org/1999/xlink" version="1.1" id="Capa_1" x="0px" y="0px" viewBox="0 0 512 512" style="enable-background:new 0 0 512 512;" xml:space="preserve" width="512" height="512">
<g>
	<path style="fill:#FFFFFF;" d="M343.464,512c-0.878,0-1.752-0.079-2.613-0.241c-0.988-0.163-1.966-0.432-2.917-0.81   c-2.41-0.962-4.473-2.515-6.023-4.46l-21.624-20.65c-37.408-1.557-117.964-8.368-181.494-37.646l-44.906,17.421   c-1.682,0.654-3.44,0.971-5.186,0.971c-3.428,0-6.805-1.228-9.468-3.565c-4.02-3.53-5.742-9.003-4.467-14.198l16.616-67.748   c1.101-4.492,4.301-8.177,8.595-9.899c1.72-0.689,3.533-1.03,5.336-1.03c2.698,0,5.378,0.76,7.715,2.251l4.929,3.143l17.681-64.952   c-0.998,0.214-2.017,0.322-3.04,0.322c-1.779,0-3.567-0.329-5.269-1.012c-2.405-0.964-4.462-2.518-6.009-4.462l-32.808-31.329   c-5.204-4.969-5.921-13.024-1.679-18.836l16.782-22.982c2.419-3.312,6.141-5.431,10.225-5.821c0.454-0.043,0.909-0.064,1.362-0.064   c3.611,0,7.11,1.363,9.776,3.849l7.947,7.402l7.831-6.697c2.136-1.827,4.743-2.97,7.483-3.325c-1.964-1.564-3.75-3.412-5.332-5.528   c-21.917-9.012-51.02-22.508-73.292-38.375c-8.648-5.974-15.906-12.221-21.405-18.448c-13.794-15.618-18.972-30.485-15.391-44.185   c2.212-8.462,8.841-19.933,27.837-26.682c6.317-2.546,13.716-4.114,22.005-4.663c0,0,1.29-0.134,1.826-0.18   c0.391-0.034,0.789-0.049,1.188-0.049c0.335,0,0.672,0.01,1.006,0.034c1.021-0.028,2.05-0.042,3.095-0.042   c28.173,0,63.194,10.129,91.798,20.564c-0.068-0.074-0.134-0.148-0.201-0.224c-2.724-3.095-3.983-7.213-3.458-11.302   c3.019-23.517,16.874-45.863,36.111-59.06c0.962-15.786,4.434-38.078,22.07-39.434C226.59,0.02,227.085,0,227.587,0   c6.937,0,16.936,3.031,33.639,25.351c6.152,0.511,12.296,1.601,18.355,3.257c0.207-0.002,0.412-0.002,0.616-0.002   c3.507,0,6.945,0.215,10.283,0.64c17.251-13.009,31.18-19.596,41.455-19.596c3.856,0,7.398,0.85,10.529,2.526   c11.707,6.272,12.188,20.442,9.576,35.318c0.128,0.089,0.256,0.177,0.383,0.267c8.325,5.824,13.788,12.804,16.238,20.746   c2.132,6.907,1.648,13.485,0.989,18.445c-0.767,5.763-2.355,11.644-4.737,17.574c2.95,4.225,5.236,9.019,6.765,14.16l2.721-11.096   c1.101-4.491,4.301-8.177,8.594-9.898c1.721-0.69,3.534-1.031,5.338-1.031c2.698,0,5.378,0.76,7.715,2.251l59.768,38.117   c4.559,2.907,7.096,8.13,6.562,13.51c-0.534,5.381-4.046,10.004-9.087,11.959l-12.641,4.904   c22.304,13.513,39.407,35.473,46.25,60.849c9.336,34.624-1.04,73.357-26.435,98.678c-1.892,1.888-3.877,3.709-5.985,5.493   c-0.376,33.312-6.272,110.622-52.496,112.603c-0.813,0.035-1.624,0.051-2.435,0.051c-7.374,0-14.866-1.405-22.444-4.197   l11.508,15.255c4.36,5.781,3.73,13.904-1.471,18.943l-32.426,31.411c-1.501,1.924-3.506,3.472-5.87,4.446   C347.102,511.654,345.277,512,343.464,512z"/>
	<g>
		<g>
			<path style="fill:#2E1144;" d="M337.058,127.959c0.22,15.563,14.548,27.571,29.346,32.399s30.771,4.743,45.824,8.703     c29.638,7.796,54.277,32.283,62.255,61.873c7.979,29.59-1.01,63.144-22.712,84.783c-22.229,22.164-54.531,30.756-85.668,34.735     c-50.275,6.425-103.269,2.663-148.32-20.557c-15.117-7.792-29.548-18.096-38.366-32.638c-5.337-8.802-8.408-18.834-10.073-28.992     c-4.809-29.34,2.235-60.451,19.212-84.859c8.672-12.467,19.944-23.498,25.186-37.751c5.727-15.569,3.809-33.917,13.066-47.683     c4.76-7.078,12.037-12.126,19.719-15.835c32.779-15.825,75.6-7.209,99.707,20.062"/>
			<g>
				<path style="fill:#B179FF;" d="M259.829,197.741c0,0-8.137,13.949,13.949,12.786c22.086-1.162,46.496-12.786,46.496-12.786      s47.077,8.137,73.231,21.504L342.94,380.237l-7.556,90.667c0,0-140.069,2.325-223.762-49.983l55.214-202.839      c0,0-151.112-51.146-124.377-98.804c26.735-47.658,173.779,23.248,173.779,23.248s37.778,30.222,39.522,36.616      C257.504,185.536,259.829,197.741,259.829,197.741z"/>
				<path style="fill:#B179FF;" d="M393.504,219.245c0,0,30.804,11.043,42.428,54.633c11.624,43.59,7.555,154.018-33.128,155.761      s-78.462-55.795-78.462-55.795L393.504,219.245z"/>
			</g>
			<g>
				<path style="fill:#FF86B2;" d="M247.089,286.385c-46.735-8.921-91.959,21.643-101.782,68.466l59.388,11.336      c3.487-13.719,18.792-29.155,32.757-26.489c13.965,2.666,21.466,22.455,19.656,36.494l59.388,11.336      C324.61,340.379,293.824,295.306,247.089,286.385z"/>
				<path style="fill:#FFAFA0;" d="M245.068,296.974c-40.947-7.816-80.555,18.921-89.243,59.885l48.871,9.328      c3.487-13.719,18.066-28.428,32.031-25.762c13.965,2.666,22.193,21.728,20.382,35.767l48.87,9.328      C312.99,344.236,286.015,304.79,245.068,296.974z"/>
				<path style="fill:#FFC666;" d="M242.809,308.808c-34.478-6.581-67.824,15.855-75.296,50.282l37.183,7.097      c3.487-13.719,18.066-28.283,32.031-25.617c13.965,2.666,22.193,21.583,20.382,35.622l37.167,7.094      C300.008,348.528,277.287,315.389,242.809,308.808z"/>
				<path style="fill:#00DBDA;" d="M240.163,322.671c-26.887-5.132-52.91,12.263-58.891,39.046l23.423,4.471      c3.487-13.719,17.484-26.83,31.45-24.164c13.965,2.666,22.774,20.13,20.963,34.169l23.423,4.471      C284.836,353.56,267.049,327.803,240.163,322.671z"/>
				<path style="fill:#2E1144;" d="M237.751,335.304c-19.975-3.813-39.305,9-43.953,28.804l10.897,2.08      c3.487-13.719,16.988-22.53,30.953-19.864c13.965,2.666,23.271,15.83,21.46,29.869l10.897,2.08      C270.977,358.149,257.727,339.116,237.751,335.304z"/>
			</g>
			<g>
				<path style="fill:#00DBDA;" d="M219.338,56.316c0,0-0.775-42.234,9.299-43.009c10.074-0.775,29.447,29.447,29.447,29.447      L219.338,56.316z"/>
				<g>
					<g>
						<g>
							<g>
								<path style="fill:#FF93E2;" d="M210.095,127.099l-0.946,30.389c-0.404,5.903,1.762,11.078,5.011,15.216          c5.609,7.139,10.491,10.043,19.141,10.871l20.887,0.96l3.316,0.153l-0.914,11.921l-1.005,13.031l0,0          c-3.208,11.393,26.523,15.501,37.372,10.768l26.311-13.552l6.243-72.618l4.236-21.951l-0.221-0.036          c0.18-1.655,0.316-3.326,0.364-5.014c0.935-33.132-25.16-60.742-58.292-61.676s-54.491,19.526-60.465,52.131          c-0.667,3.672-0.596,11.145-0.625,16.391L210.095,127.099z"/>
								<path style="fill:#2E1144;" d="M183.586,99.324l58.296,0.012c4.153-23.981,20.73-45.461,42.877-55.555          c-20.77-7.688-44.183-7.649-64.009,2.221C200.925,55.873,186.405,77.358,183.586,99.324z"/>
								<path style="fill:#2E1144;" d="M335.904,125.005c-19.258-2.389-37.437-12.564-49.543-27.731          c-12.106-15.167-17.997-35.15-16.056-54.459c3.387-1.796,8.987-0.48,12.771,0.134c14.336,2.325,14.917,1.937,24.358,2.113          c13.596,0.254,27.062,5.604,38.204,13.4c4.741,3.318,9.047,7.69,10.753,13.22c1.222,3.96,1.023,8.217,0.476,12.325          C354.877,98.953,345.921,113.734,335.904,125.005z"/>
								<g>
									<g>
										
											<ellipse transform="matrix(1 -0.01 0.01 1 -1.5009 2.8752)" style="opacity:0.44;fill:#B179FF;" cx="287.383" cy="151.842" rx="22.95" ry="22.95"/>
										<path style="opacity:0.46;fill:#B179FF;" d="M209.149,157.488c-0.404,5.903,1.762,11.078,5.011,15.216            c12.19-0.19,22.204-9.957,22.552-22.295c0.357-12.663-9.632-23.232-22.295-23.589c-1.466-0.041-2.921,0.051-4.321,0.279            L209.149,157.488z"/>
									</g>
									<g>
										<path style="fill:#2E1144;" d="M272.406,130.926c-0.098,3.477,2.641,6.376,6.119,6.474            c3.477,0.098,6.376-2.641,6.474-6.119c0.098-3.477-2.641-6.376-6.118-6.474            C275.402,124.71,272.504,127.449,272.406,130.926z"/>
										<path style="fill:#2E1144;" d="M219.137,129.424c-0.098,3.477,2.642,6.376,6.118,6.474            c3.478,0.098,6.376-2.641,6.474-6.119c0.098-3.477-2.641-6.376-6.119-6.474            C222.133,123.207,219.235,125.947,219.137,129.424z"/>
										<g>
											<path style="fill:#2E1144;" d="M287.991,112.08c0.35,0.484,0.638,1.032,0.586,1.593c-0.074,0.794-0.83,1.446-1.702,1.757             c-0.871,0.311-1.847,0.342-2.797,0.354c-3.252,0.039-6.607-0.124-9.566-1.279c-1.024-0.4-2.023-0.945-2.597-1.762             c-0.925-1.316-0.464-3.123,0.857-4.155C276.986,105.293,285.43,108.541,287.991,112.08z"/>
											<path style="fill:#2E1144;" d="M217.466,109.923c-0.377,0.464-0.695,0.994-0.674,1.557c0.029,0.796,0.748,1.491,1.6,1.85             c0.853,0.359,1.825,0.446,2.773,0.511c3.244,0.222,6.603,0.249,9.623-0.738c1.046-0.342,2.073-0.83,2.692-1.613             c0.998-1.262,0.639-3.091-0.621-4.196C228.836,103.767,220.223,106.533,217.466,109.923z"/>
										</g>
										<path style="fill:#FFE7DE;" d="M255.562,137.248c0,0,0.538,11.816-5.566,12.799c-6.104,0.983-9.215-10.516-9.215-10.516            L255.562,137.248z"/>
									</g>
								</g>
								<path style="opacity:0.44;fill:#2E1144;" d="M257.494,185.384l-0.904,11.225c4.981,2.586,11.133,4.138,18.1,2.556          c18.797-4.258,25.913-14.679,25.913-14.679l-43.193,0.292L257.494,185.384z"/>
							</g>
							<path style="fill:#FF93E2;" d="M309.702,129.579c0,0,23.952-17.145,32.729-5.571c8.777,11.574,5.985,32.03-20.671,34.903         L309.702,129.579z"/>
						</g>
					</g>
					<g>
						<path style="fill:#00DBDA;" d="M334.764,107.566c0,0,4.61-67.774-55.816-65.628c0,0,26.605,9.977,34.949,28.287        c9.21,20.211,7.686,38.369,7.686,38.369L334.764,107.566z"/>
						<g>
							<g>
								<path style="fill:#2E1144;" d="M302.692,132.68c-0.514,18.238,10.836,33.355,25.352,33.764          c14.516,0.409,26.7-14.044,27.215-32.282c0.514-18.238-10.836-33.355-25.352-33.764          C315.391,99.989,303.206,114.442,302.692,132.68z"/>
								<g>
									
										<ellipse transform="matrix(0.0282 -0.9996 0.9996 0.0282 191.7373 464.3871)" style="fill:#00DBDA;" cx="334.704" cy="133.583" rx="33.036" ry="26.294"/>
								</g>
							</g>
							
								<path style="fill:none;stroke:#2E1144;stroke-width:1.7287;stroke-linecap:round;stroke-linejoin:round;stroke-miterlimit:10;" d="         M324.268,132.951c-0.373,13.213,4.983,24.084,11.962,24.281c6.979,0.197,12.938-10.355,13.311-23.568         c0.373-13.213-4.983-24.084-11.961-24.281C330.6,109.186,324.641,119.738,324.268,132.951z"/>
						</g>
					</g>
				</g>
				<path style="fill:#00DBDA;" d="M294.119,44.692c0,0,32.16-26.735,43.009-20.923c10.849,5.812-8.524,58.12-8.524,58.12      L294.119,44.692z"/>
			</g>
			
				<path style="fill:none;stroke:#2E1144;stroke-width:1.7287;stroke-linecap:round;stroke-linejoin:round;stroke-miterlimit:10;" d="     M372,293.639c0,0,1.744-6.393-13.368,41.846c-15.111,48.24-16.274,56.376-18.017,76.718c-1.744,20.342-5.231,58.701-5.231,58.701     "/>
			<g>
				<path style="fill:#FF93E2;" d="M385.949,327.348c0,0-20.923-11.043-44.752-31.385c-23.829-20.342-62.769-66.257-71.487-66.257      c-8.718,0-59.282,2.906-59.282,2.906s-2.325,11.624,14.53,12.786l-22.086,8.718c0,0,0,11.043,12.205,11.624      c0,0-0.581,12.205,9.88,12.786c0,0,2.325,15.692,19.18,18.598c16.855,2.906,18.598,0,30.803,9.88      c12.205,9.88,74.975,97.06,74.975,97.06S412.684,373.844,385.949,327.348z"/>
				<g>
					
						<path style="fill:none;stroke:#2E1144;stroke-width:1.7287;stroke-linecap:round;stroke-linejoin:round;stroke-miterlimit:10;" d="       M245.881,262.556c-12.793,0.273-30.799,3.187-30.799,3.187c-9.561-1.616-11.723-6.67-12.133-9.561       c-0.205-1.229-0.068-2.071-0.068-2.071c5.213-5.509,34.874-11.336,44.161-13.066c0.182-0.046,0.387-0.068,0.569-0.091       c9.174-1.571,19.782,0.387,19.782,0.387"/>
					
						<path style="fill:none;stroke:#2E1144;stroke-width:1.7287;stroke-linecap:round;stroke-linejoin:round;stroke-miterlimit:10;" d="       M215.076,266.032c0,0-2.615,9.88,9.88,12.496c12.496,2.615,31.094,0.291,31.094,0.291"/>
					
						<path style="fill:none;stroke:#2E1144;stroke-width:1.7287;stroke-linecap:round;stroke-linejoin:round;stroke-miterlimit:10;" d="       M224.957,278.527c0,0-0.194,6.781,6.587,11.43c6.781,4.65,25.185,1.356,25.185,1.356"/>
				</g>
			</g>
			<g>
				<path style="fill:#2E1144;" d="M247.634,240.748c0,0.068,0,0.137-0.023,0.205c-0.182,0.023-0.387,0.046-0.569,0.091      c-4.12,0.774-12.292,2.344-20.533,4.348c-4.075,0.979-8.172,2.094-11.814,3.232c-5.554,1.753-10.062,3.642-11.814,5.486      c0,0-0.137,0.842,0.068,2.071c-0.546-0.182-1.024-0.41-1.434-0.706c-8.9-6.192,1.357-23.445,1.357-23.445l-26.009-20.051      c0,0-22.491,15.52-32.302-1.462c-11.427-19.759,17.824-39.131,17.824-39.131c17.05,0,39.518,20.146,54.246,34.1      C231.358,219.441,247.247,236.491,247.634,240.748z"/>
				<g>
					<g>
						<path style="fill:#FFE7DE;" d="M197.853,197.62l0.276-0.201c0.459-0.334,1.094-0.28,1.49,0.126l6.705,6.868        c0.418,0.428,0.435,1.106,0.039,1.554l0,0c-0.429,0.486-1.177,0.518-1.646,0.07l-6.981-6.667        C197.22,198.879,197.276,198.04,197.853,197.62z"/>
						<path style="fill:#FFE7DE;" d="M211.802,212.441l0.276-0.201c0.459-0.334,1.093-0.28,1.49,0.126l6.705,6.868        c0.418,0.428,0.435,1.106,0.039,1.555l0,0c-0.429,0.486-1.177,0.518-1.646,0.07l-6.981-6.667        C211.169,213.699,211.225,212.86,211.802,212.441z"/>
					</g>
					<g>
						<path style="fill:#B179FF;" d="M153.669,186.551L153.669,186.551c1.981-1.79,5.041-1.623,6.816,0.371l8.933,10.033        c1.768,1.985,1.59,5.029-0.398,6.794l-0.186,0.165c-2.01,1.786-5.094,1.577-6.845-0.464l-8.747-10.198        C151.544,191.272,151.733,188.299,153.669,186.551z"/>
						<path style="fill:#B179FF;" d="M226.509,245.392c-4.075,0.979-8.172,2.094-11.814,3.232l-1.434-1.115        c-2.049-1.616-2.458-4.553-0.911-6.647c1.593-2.163,4.621-2.595,6.761-1.002L226.509,245.392z"/>
					</g>
					
						<path style="fill:none;stroke:#B179FF;stroke-width:1.1382;stroke-linecap:round;stroke-linejoin:round;stroke-miterlimit:10;" d="       M161.315,175.365c0,0,26.445,24.701,43.88,40.393c17.436,15.692,30.222,28.188,30.222,28.188"/>
					<g>
						
							<line style="fill:none;stroke:#FFE7DE;stroke-width:0.8521;stroke-linecap:round;stroke-linejoin:round;stroke-miterlimit:10;" x1="191.939" y1="194.503" x2="199.771" y2="185.148"/>
						
							<line style="fill:none;stroke:#FFE7DE;stroke-width:0.8521;stroke-linecap:round;stroke-linejoin:round;stroke-miterlimit:10;" x1="195.783" y1="181.377" x2="205.21" y2="189.644"/>
					</g>
					<g>
						
							<line style="fill:none;stroke:#FFE7DE;stroke-width:0.8521;stroke-linecap:round;stroke-linejoin:round;stroke-miterlimit:10;" x1="228.652" y1="230.053" x2="236.484" y2="220.698"/>
						
							<line style="fill:none;stroke:#FFE7DE;stroke-width:0.8521;stroke-linecap:round;stroke-linejoin:round;stroke-miterlimit:10;" x1="232.495" y1="216.927" x2="241.923" y2="225.194"/>
					</g>
				</g>
			</g>
			<g>
				<path style="fill:#FF93E2;" d="M77.138,102.812c0,0,13.174,1.55,37.197,16.661s35.259,25.573,35.259,25.573      s30.997,7.749,34.097,12.011s9.687,31.385,9.687,31.385s0.775,5.037-16.661-10.462c0,0-14.917-13.561-27.704,6.974      c0,0-9.977,12.302-6.49,20.826c0,0-65.772-21.214-92.12-51.049S40.717,105.911,77.138,102.812z"/>
				
					<path style="fill:none;stroke:#2E1144;stroke-width:1.7287;stroke-linecap:round;stroke-linejoin:round;stroke-miterlimit:10;" d="      M169.743,162.869c0,0,0.387,6.199,6.974,15.111c6.587,8.912,16.274,11.333,16.274,11.333"/>
			</g>
		</g>
		<g>
			<path style="fill:#FF93E2;" d="M124.234,295.403l33.782-32.726l-16.497-21.871l-17.564,15.018l-17.315-16.13l-16.782,22.983     l34.159,32.619c0.007,0.183,0.012,0.306,0.012,0.306l0.153-0.148l0.049,0.047C124.231,295.5,124.233,295.457,124.234,295.403z"/>
			<path style="fill:#FF93E2;" d="M344.811,496.445l33.782-32.726l-16.497-21.871l-17.564,15.018l-17.315-16.13l-16.782,22.983     l34.159,32.619c0.007,0.183,0.012,0.306,0.012,0.306l0.153-0.148l0.049,0.047C344.808,496.543,344.81,496.5,344.811,496.445z"/>
			<polygon style="fill:#FFC666;" points="373.154,177.702 389.77,109.953 449.537,148.071    "/>
			<polygon style="fill:#FFC666;" points="80.136,451.185 96.752,383.436 156.519,421.554    "/>
		</g>
	</g>
</g>















</svg>
