<svg height="512pt" viewBox="-27 0 512 512" width="512pt" xmlns="http://www.w3.org/2000/svg"><path d="m453.605469 4.394531c-2.8125-2.816406-6.628907-4.394531-10.605469-4.394531-.023438 0-.046875 0-.066406 0-25.542969.117188-52.949219 6.503906-79.265625 18.476562-27.210938 12.375-52.371094 30.011719-74.773438 52.417969-22.40625 22.402344-40.042969 47.5625-52.417969 74.773438-10.992187 24.160156-17.261718 49.238281-18.304687 72.949219l92.222656-92.222657c5.855469-5.859375 15.355469-5.859375 21.210938 0 5.859375 5.855469 5.859375 15.351563 0 21.210938l-92.222657 92.222656c23.710938-1.042969 48.789063-7.3125 72.949219-18.304687 27.210938-12.375 52.371094-30.011719 74.773438-52.417969 22.40625-22.402344 40.042969-47.5625 52.417969-74.773438 11.972656-26.316406 18.359374-53.722656 18.476562-79.265625.019531-4-1.5625-7.84375-4.394531-10.671875zm0 0"/><path d="m274.933594 343h-229.867188l-41.125 44.863281c-2.535156 2.765625-3.941406 6.382813-3.941406 10.136719v69c0 24.851562 20.148438 45 45 45h230c24.851562 0 45-20.148438 45-45v-69c0-3.753906-1.40625-7.371094-3.941406-10.136719zm0 0"/><path d="m40 288h15v25h210v-25h15c8.285156 0 15-6.71875 15-15 0-8.285156-6.714844-15-15-15h-58.800781c.007812 0 .019531-.003906.023437-.011719l18.101563-18.101562c.023437-.019531.003906-.054688-.023438-.050781-2.085937.089843-4.167969.15625-6.234375.164062-.019531 0-.042968 0-.066406 0-5.964844 0-11.566406-3.550781-13.96875-9.492188-.726562-1.796874-1.042969-3.738281-1.03125-5.679687.011719-2.027344.078125-4.074219.167969-6.128906 0-.027344-.035157-.042969-.054688-.023438l-39.269531 39.269531c-.019531.019532-.007812.054688.023438.054688h-138.867188c-8.285156 0-15 6.714844-15 15s6.714844 15 15 15zm0 0"/></svg>