<?xml version="1.0" encoding="UTF-8"?>
<!-- Generator: Adobe Illustrator 27.2.0, SVG Export Plug-In . SVG Version: 6.00 Build 0)  -->
<svg xmlns="http://www.w3.org/2000/svg" xmlns:xlink="http://www.w3.org/1999/xlink" version="1.1" id="Capa_1" x="0px" y="0px" viewBox="0 0 512 512" style="enable-background:new 0 0 512 512;" xml:space="preserve" width="512" height="512">
<g>
	<path style="fill:#FFFFFF;" d="M311.044,462.337c-9.151,0-19.023-0.362-29.341-1.077c-85.029-5.886-99.184-40.612-100.518-44.552   c-0.444-1.311-0.654-2.689-0.618-4.073l1.553-61.538l-64.953-4.141c-6.327,15.284-14.041,22.749-23.426,22.749   c-0.69,0-1.385-0.044-2.069-0.134l-79.992-0.652C5.214,368.867,0,363.612,0,357.145V242.9c0-3.214,1.314-6.288,3.636-8.51   c2.196-2.101,5.114-3.266,8.14-3.266c0.174,0,0.349,0.004,0.523,0.012l97.543,4.342c2.404,0.107,4.654,0.94,6.502,2.313   c2.748,1.583,5.072,4.003,6.964,7.252c30.321-11.353,47.112-16.873,56.686-19.558c-2.498-12.221-0.512-25.256,5.856-36.113   c1.948-3.336,4.218-6.327,6.556-8.987c-0.802-2.705-0.632-5.688,0.65-8.392c1.984-4.184,6.175-6.732,10.637-6.732   c0.961,0,1.935,0.118,2.902,0.363l1.424,0.362c5.745-4.786,11.088-9.382,14.5-14.74c3.15-4.94,4.176-10.509,2.619-14.196   c-1.972-4.673-8.224-7.948-13.123-9.872c-2.264-0.891-4.628-1.699-7.132-2.554c-6.279-2.145-12.77-4.362-19.048-8.308   c-16.084-10.167-25.722-30.102-24.009-49.623c0.455-5.185,4.262-9.457,9.361-10.505c2.382-0.489,5.027-0.747,7.648-0.747   c2.054,0,3.998,0.157,5.8,0.468h167.378c1.102-2.074,2.829-3.832,5.056-4.966c1.703-0.866,3.529-1.282,5.335-1.282   c3.73,0,7.368,1.774,9.639,5.004l0.875,1.244h122.475c5.843,0,10.801,4.284,11.651,10.064c2.055,13.99,4.869,33.151,4.953,48.158   c0.083,16.162-1.303,34.728-12.223,49.92c-8.849,12.318-23.693,21.217-41.798,25.056c-5.743,1.212-11.401,1.892-16.871,2.549   c-5.242,0.629-10.193,1.224-14.949,2.237c-6.701,1.431-15.686,4.484-20.411,10.895c-1.911,2.58-2.345,5.251-1.92,6.121   c0.443,0.904,2.303,2.605,3.413,3.622l0.709,0.651c7.544,6.923,16.095,14.768,21.627,25.211c7.402,14.066,7.188,29.776-0.543,41.03   c-4.721,6.885-11.33,11.052-17.629,14.497c39.516,15.647,42.834,29.209,41.393,38.504c-2.08,13.413-16.813,21.043-46.138,23.747   l-15.345,81.013c-0.429,2.269-1.516,4.36-3.125,6.016c-2.782,2.862-19.58,17.138-77.13,17.138   C311.048,462.337,311.051,462.337,311.044,462.337z"/>
	<g>
		<g>
			<path style="fill:#EBB1FF;" d="M116.794,305.649c-4.325,30.505-14.483,54.291-22.689,53.128s-11.352-26.836-7.027-57.341     c4.325-30.505,14.483-54.291,22.689-53.128C117.973,249.472,121.119,275.144,116.794,305.649z"/>
			<rect x="16.395" y="267.838" style="fill:#FF9393;" width="122.597" height="59.795"/>
			<path style="fill:#FBEEE5;" d="M110.263,263.829c0,0,73.472-24.024,78.817-21.352c5.345,2.672,48.457,22.354,48.457,22.354     s7.015,6.013-16.702,11.024c-23.718,5.011-25.054,65.14-25.054,65.14l-83.847-5.345     C111.934,335.65,88.884,294.228,110.263,263.829z"/>
			<g>
				<path style="fill:#2F2444;" d="M222.078,324.093c-15.171,0-30.168-2.393-44.596-7.116c-0.386-0.126-0.597-0.542-0.47-0.928      c0.126-0.387,0.539-0.601,0.928-0.471c14.602,4.78,29.791,7.162,45.154,7.039c0.002,0,0.004,0,0.005,0      c0.404,0,0.733,0.326,0.736,0.731c0.003,0.406-0.324,0.738-0.73,0.741C222.762,324.092,222.419,324.093,222.078,324.093z"/>
				<path style="fill:#2F2444;" d="M174.067,320.031c-0.165,0-0.33-0.056-0.467-0.168c-0.314-0.258-0.359-0.722-0.101-1.036      c6.873-8.362,14.238-16.484,21.889-24.142c0.287-0.287,0.753-0.287,1.041,0c0.288,0.287,0.288,0.753,0,1.041      c-7.617,7.623-14.95,15.71-21.793,24.036C174.491,319.939,174.28,320.031,174.067,320.031z"/>
			</g>
			<g>
				<path style="fill:#2F2444;" d="M110.263,248.129c0,0-20.544,17.705-21.88,59.127C87.047,348.678,94.73,358.7,94.73,358.7      l-82.01-0.668V243.786L110.263,248.129z"/>
				<g>
					<path style="fill:#FBEEE5;" d="M52.139,257.482c0,3.69-1.645,6.681-3.675,6.681c-2.029,0-3.675-2.991-3.675-6.681       c0-3.69,1.645-6.681,3.675-6.681C50.493,250.801,52.139,253.793,52.139,257.482z"/>
					<path style="fill:#FBEEE5;" d="M69.843,257.482c0,3.69-1.645,6.681-3.675,6.681c-2.029,0-3.674-2.991-3.674-6.681       c0-3.69,1.645-6.681,3.674-6.681C68.198,250.801,69.843,253.793,69.843,257.482z"/>
					<path style="fill:#FBEEE5;" d="M87.548,257.482c0,3.69-1.645,6.681-3.675,6.681c-2.029,0-3.674-2.991-3.674-6.681       c0-3.69,1.645-6.681,3.674-6.681C85.903,250.801,87.548,253.793,87.548,257.482z"/>
				</g>
			</g>
			<path style="fill:#2F2444;" d="M219.5,276.551c-0.583,0-1.179-0.015-1.791-0.044c-5.673-0.274-10.749-1.19-15.227-1.998     c-8.059-1.454-14.424-2.604-20.77,0.184c-0.374,0.162-0.807-0.007-0.97-0.378c-0.164-0.372,0.006-0.807,0.378-0.97     c6.758-2.967,13.646-1.725,21.623-0.284c4.434,0.8,9.458,1.706,15.037,1.976c14.933,0.741,20.831-8.334,20.889-8.426     c0.217-0.344,0.672-0.446,1.015-0.229c0.344,0.217,0.446,0.672,0.229,1.015C239.668,267.784,233.958,276.551,219.5,276.551z"/>
		</g>
		<g>
			<path style="fill:#2F2444;" d="M371.491,356.028l22.011,14.183l-12.815,67.669c0,0-17.545,18.036-97.225,12.521     c-79.66-5.515-90.179-36.582-90.179-36.582l1.747-69.2l27.475-3.624L371.491,356.028z"/>
			<path style="fill:#EBB1FF;" d="M398.723,342.656l-5.22,27.554c-10.99,2.669-46.493,9.44-107.018,4.534     c-63.528-5.161-86.234-24.65-91.455-30.125l0.746-30.007L398.723,342.656z"/>
			
				<ellipse transform="matrix(0.1532 -0.9882 0.9882 0.1532 -53.5961 560.4728)" style="fill:#2F2444;" cx="300.239" cy="311.51" rx="29.947" ry="143.559"/>
			<g>
				
					<ellipse transform="matrix(0.1532 -0.9882 0.9882 0.1532 -41.6336 554.3582)" style="fill:#2F2444;" cx="302.652" cy="301.472" rx="12.082" ry="100.409"/>
				<path style="opacity:0.42;fill:#A27CFF;" d="M401.881,316.855c-0.393,2.453-6.869,3.788-17.683,4.043      c-18.291,0.451-48.946-2.139-83.389-7.477c-29.85-4.632-56.364-10.362-74.165-15.7c-14.896-4.455-23.688-8.635-23.217-11.638      c0.451-2.905,9.479-4.22,24.12-4.062c18.605,0.177,46.277,2.767,76.952,7.517c33.383,5.181,62.605,11.736,80.111,17.565      C395.856,310.83,402.273,314.284,401.881,316.855z"/>
			</g>
		</g>
		<g>
			<path style="fill:#A27CFF;" d="M501.166,115.085c0.078,14.955-1.276,30.832-10.009,42.98     c-8.007,11.147-21.254,17.565-34.678,20.41c-10.5,2.218-21.333,2.551-31.832,4.789c-10.48,2.237-21.058,6.771-27.437,15.426     c-3.866,5.22-5.868,12.443-3.022,18.271c1.374,2.807,3.729,5.024,6.045,7.144c7.438,6.83,15.151,13.758,19.881,22.687     c4.71,8.949,5.888,20.509,0.157,28.849c-8.596,12.541-29.36,14.013-34.757,28.222c-0.412,1.06-0.707,2.139-0.903,3.238     c-0.864,4.435-0.393,9.185-0.412,13.797c-15.975,0.393-41.39-1.531-70.514-5.593c-4.219-0.569-8.517-1.217-12.874-1.884     c-13.228-2.061-25.827-4.318-37.288-6.692c-14.366-2.944-26.965-6.045-36.876-9.008c1.335-5.103,1.629-10.46,0.903-15.7     c-0.569-4.18-1.805-8.262-3.689-12.03c-6.889-13.875-21.392-22.785-28.222-36.7c-5.691-11.559-5.201-25.965,1.315-37.072     c4.435-7.595,11.285-13.424,18.036-19.037c6.771-5.632,13.699-11.324,18.409-18.723c4.73-7.418,6.947-17.015,3.533-25.101     c-3.395-8.046-11.52-13.051-19.665-16.25c-8.125-3.199-16.819-5.22-24.218-9.872c-12.698-8.027-19.861-23.649-18.546-38.623     c2.964-0.608,6.967-0.726,9.93-0.039h311.908C498.379,82.468,501.088,101.033,501.166,115.085z"/>
			<path style="opacity:0.55;fill:#EBB1FF;" d="M286.483,105.508c-0.608,7.124-3.474,13.895-7.144,20.038     c-8.871,14.837-22.393,26.298-36.287,36.582c-8.361,6.202-17.074,12.187-23.413,20.45c-6.319,8.243-9.95,19.37-6.555,29.203     c3.807,11.01,15.053,17.447,25.71,22.137c10.676,4.671,22.314,9.047,29.104,18.507c8.164,11.363,6.987,27.103,2.1,40.193     c-1.825,4.867-4.082,9.518-6.476,14.111c-14.366-2.944-26.965-6.045-36.876-9.008c1.335-5.103,1.629-10.46,0.903-15.7     c-0.569-4.18-1.805-8.262-3.689-12.03c-6.889-13.875-21.392-22.785-28.222-36.7c-5.691-11.559-5.201-25.965,1.315-37.072     c4.435-7.595,11.285-13.424,18.036-19.037c6.771-5.632,13.699-11.324,18.409-18.723c4.73-7.418,6.947-17.015,3.533-25.101     c-3.395-8.046-11.52-13.051-19.665-16.25c-8.125-3.199-16.819-5.22-24.218-9.872c-12.698-8.027-19.861-23.649-18.546-38.623     c2.964-0.608,6.967-0.726,9.93-0.039h83.938c1.275,1.021,2.532,2.08,3.729,3.219C281.302,80.446,287.543,92.908,286.483,105.508z     "/>
			<path style="opacity:0.34;fill:#EBB1FF;" d="M501.166,115.085c0.078,14.955-1.276,30.832-10.009,42.98     c-8.007,11.147-21.254,17.565-34.678,20.41c-10.5,2.218-21.333,2.551-31.832,4.789c-10.48,2.237-21.058,6.771-27.437,15.426     c-3.866,5.22-5.868,12.443-3.022,18.271c1.374,2.807,3.729,5.024,6.045,7.144c7.438,6.83,15.151,13.758,19.881,22.687     c4.71,8.949,5.888,20.509,0.157,28.849c-8.596,12.541-29.36,14.013-34.757,28.222c-0.412,1.06-0.707,2.139-0.903,3.238     c-0.864,4.435-0.393,9.185-0.412,13.797c-15.975,0.393-41.39-1.531-70.514-5.593c5.005-9.93,15.112-17.113,25.631-21.353     c12.56-5.083,26.161-6.967,38.976-11.304c2.983-1.001,6.064-2.237,8.007-4.73c5.162-6.673-1.57-16.368-9.185-20.018     c-10.146-4.848-21.823-4.985-32.716-7.752c-12.914-3.297-25.081-10.735-32.323-21.902c-7.242-11.167-8.89-26.259-2.591-37.975     c4.494-8.36,12.403-14.346,20.626-19.076c24.218-13.954,53.676-19.998,73.085-40.115c15.642-16.211,21.529-40.645,16.662-62.507     h76.481C498.379,82.468,501.088,101.033,501.166,115.085z"/>
		</g>
		<polygon style="fill:#FFC945;" points="238.935,186.636 257.444,138.73 253.089,189.902 290.651,200.245 255.266,204.056     256.355,239.441 241.657,206.233 202.462,225.287 229.681,196.435 204.639,177.926   "/>
		<polygon style="fill:#FFC945;" points="379.944,110.929 363.355,62.326 392.89,104.34 428.321,88.138 403.651,113.789     427.216,140.208 394.62,124.2 376.821,163.981 379.147,124.384 348.065,126.285   "/>
		<polygon style="fill:#FFC945;" points="322.056,270.173 335.141,220.512 336.485,271.851 374.962,277.966 340.218,285.676     345.222,320.722 326.934,289.349 290.092,312.629 313.945,280.938 287.006,265.318   "/>
		<g>
			<polygon style="fill:#FBEEE5;" points="384.653,239.316 386.894,202.71 388.637,239.565 397.851,232.094 392.373,240.81      412.045,243.3 392.871,245.791 398.349,253.51 389.136,248.53 386.645,280.404 384.653,249.028 375.19,253.012 381.167,245.791      357.261,242.553 380.918,241.557 375.439,233.34    "/>
			<polygon style="fill:#FBEEE5;" points="291.787,114.381 294.028,77.775 295.771,114.63 304.985,107.159 299.507,115.875      319.179,118.365 300.004,120.856 305.483,128.575 296.269,123.595 293.779,155.469 291.787,124.093 282.324,128.077      288.301,120.856 264.395,117.618 288.052,116.622 282.573,108.405    "/>
		</g>
	</g>
</g>















</svg>
