<?xml version="1.0" encoding="UTF-8"?>
<!-- Generator: Adobe Illustrator 25.2.0, SVG Export Plug-In . SVG Version: 6.00 Build 0)  -->
<svg xmlns="http://www.w3.org/2000/svg" xmlns:xlink="http://www.w3.org/1999/xlink" version="1.1" id="Capa_1" x="0px" y="0px" viewBox="0 0 500 500" style="enable-background:new 0 0 500 500;" xml:space="preserve" width="512" height="512">
<g>
	<g>
		<path d="M137.126,154.975c-0.306-0.324-0.437-0.507-0.608-0.636c-5.252-3.971-9.413-9.004-13.783-13.868    c-9.627-10.714-15.075-23.403-17.882-37.299c-4.471-22.129-0.18-42.688,12.352-61.336c10.329-15.37,23.878-27.215,40.943-34.788    c17.132-7.603,34.886-8.498,53.147-5.325c17.955,3.12,32.695,11.907,45.031,24.934c6.635,7.007,11.869,15.023,13.669,24.734    c4.257,22.967-7.39,46.562-28.225,57.473c-8.929,4.675-18.739,7.47-28.785,8.253c-8.94,0.698-19.636,1.127-26.477-5.679    c-0.542-0.539-1.071-1.148-1.23-1.895c-0.25-1.177,0.639-1.75,1.478-2.325c0.496-0.34,0.983-0.692,1.462-1.056    c0.948-0.72,1.861-1.485,2.735-2.293c1.755-1.623,3.345-3.42,4.761-5.346c0.101-0.137,0.201-0.275,0.3-0.413    c0.727-1.016,1.415-2.06,2.071-3.123c10.166-16.461,14.496-34.196,11.252-53.486c-0.902-5.365-2.557-10.522-4.979-15.398    c-3.534-7.112-9.491-11.317-16.966-13.343c-5.629-1.526-10.712,0.249-15.263,3.631c-5.134,3.816-9.64,8.276-13.585,13.33    c-4.007,5.134-6.754,10.909-8.897,16.984c-4.901,13.892-7.603,28.114-5.932,42.918c0.567,5.024,1.776,9.921,4.063,14.441    c6.557,12.957,15.61,23.733,27.996,31.544c1.031,0.65,1.944,0.791,3.133,0.456c7.848-2.218,15.764-4.176,23.903-4.964    c10.173-0.985,20.233-0.287,29.885,3.242c3.3,1.207,6.514,2.991,9.331,5.095c4.546,3.394,5.385,8.144,2.964,13.293    c-1.517,3.226-3.986,5.626-6.779,7.727c-4.976,3.74-10.652,6.045-16.496,8.006c-12.829,4.305-25.941,4.716-39.22,2.898    c-8.034-1.1-15.976-2.632-23.648-5.313c-1.269-0.444-1.803,0.207-2.554,0.907c-16.352,15.222-26.195,34.479-33.593,55.092    c-7.01,19.534-11.049,39.777-12.492,60.497c-1.515,21.76,3.76,41.977,14.268,60.923c8.456,15.245,20.034,27.599,34.862,36.805    c11.303,7.018,23.779,10.931,36.753,13.441c21.88,4.235,43.584,3.407,64.621-3.924c22.289-7.768,40.308-21.527,52.603-41.947    c7.08-11.757,11.027-24.621,10.851-38.523c-0.154-12.156-4.461-22.86-12.109-32.108c-3.989-4.823-9.386-8.163-15.318-10.186    c-20.593-7.024-41.073-6.417-61.217,1.774c-15.88,6.456-30.034,15.581-41.24,28.724c-6.078,7.129-11.672,14.672-17.475,22.036    c-0.93,1.18-1.707,2.681-3.559,2.227c-1.918-0.47-2.567-2.096-2.766-3.811c-0.86-7.42-0.956-14.799,1.207-22.072    c5.062-17.023,14.185-31.738,25.809-44.952c9.14-10.39,19.43-19.591,30.851-27.417c13.276-9.097,27.703-16.015,43.378-19.627    c10.845-2.499,22.001-3.682,33.046-5.262c12.596-1.801,25.262-3.145,37.818-5.182c5.459-0.886,10.873-2.612,16.037-4.644    c13.296-5.232,25.614-12.172,35.708-22.525c10.46-10.728,16.458-23.575,18.191-38.467c1.403-12.046-1.925-22.79-9.379-32.074    c-8.99-11.198-20.601-18.093-35.334-17.835c-15.403,0.27-27.032,7.61-34.903,20.757c-3.831,6.398-3.722,13.295-0.978,20.009    c2.419,5.917,7.658,8.415,13.624,8.747c9.208,0.513,16.766-2.723,21.321-11.282c1.78-3.346,3.482-6.732,5.23-10.095    c0.333-0.64,0.602-1.382,1.112-1.842c0.423-0.381,1.305-0.746,1.733-0.555c4.402,1.967,8.1,4.743,10.456,9.127    c2.841,5.287,5.297,10.702,4.327,16.872c-1.295,8.235-5.967,14.185-13.274,18.032c-4.083,2.15-8.489,3.65-13.1,3.767    c-5.278,0.134-10.626,0.108-15.844-0.591c-9.121-1.222-15.592-6.88-20.762-14.064c-9.83-13.66-10.187-28.264-3.331-43.138    c7.151-15.514,19.51-25.273,35.844-29.602c24.105-6.389,46.696-2.946,67.199,11.783c1.359,0.976,2.632,2.074,3.991,3.051    c11.902,8.554,19.112,20.224,22.915,34.217c3.621,13.324,5.62,26.82,3.518,40.576c-1.822,11.921-5.003,23.481-11.556,33.825    c-9.478,14.962-23.228,24.234-39.74,29.888c-13.433,4.6-27.333,6.55-41.409,7.403c-18.444,1.117-36.913,1.841-55.348,3.08    c-14.431,0.97-28.796,2.788-42.9,6.085c-18.803,4.395-35.795,12.742-51.101,24.479c-4.159,3.189-8.037,6.742-12.088,10.076    c-7.735,6.365-12.981,14.494-16.871,23.599c-0.54,1.263-1.072,2.529-1.344,3.946c0.432-0.549,0.868-1.096,1.295-1.649    c16.503-21.371,38.167-34.395,64.497-39.869c37.177-4.95,68.433,5.765,92.245,35.4c10.666,13.275,16.695,28.798,19.852,45.437    c2.489,13.116,3.598,26.338,1.865,39.652c-2.153,16.547-7.265,32.198-14.84,47.033c-14.714,28.816-37.505,49.149-66.438,62.995    c-10.154,4.859-20.91,7.798-31.921,9.776c-13.406,2.408-26.853,4.691-40.507,5.075c-16.668,0.468-33.084-1.096-49.146-6.01    c-14.588-4.463-29.193-8.815-42.797-15.878c-11.531-5.987-22.528-12.758-31.971-21.834    c-15.266-14.671-25.917-32.274-33.461-51.925c-9.508-24.764-12.08-50.464-10.531-76.725c1.147-19.452,3.904-38.662,9.354-57.408    c6.526-22.446,17.624-42.649,30.806-61.781c8.055-11.69,16.666-22.923,26.867-32.894c7.152-6.99,14.823-13.218,23.519-18.166    C134.477,156.585,135.706,155.823,137.126,154.975z M221.675,448.581c-3.33-0.198-6.9-0.339-10.458-0.636    c-11.35-0.947-22.072-4.472-32.731-8.178c-7.596-2.641-15.063-5.576-21.943-9.873c-16.763-10.469-30.913-23.667-41.886-40.13    c-8.597-12.898-15.432-26.6-18.986-41.857c-4.049-17.376-5.923-34.959-6.466-52.761c-0.894-29.307,4.906-57.146,17.802-83.463    c2.001-4.084,4.721-7.814,7.093-11.717c0.866-1.425,1.733-2.853,2.494-4.335c0.136-0.264,0.149-0.649,0.075-0.932    c-0.12-0.454-0.55-0.524-0.952-0.401c-0.393,0.12-0.739,0.362-1.034,0.648c-0.275,0.267-0.5,0.573-0.736,0.874    c-0.239,0.305-0.499,0.593-0.747,0.892c-0.603,0.727-1.201,1.457-1.795,2.192c-1.185,1.467-2.348,2.952-3.476,4.462    c-1.127,1.508-2.22,3.042-3.266,4.609c-1.047,1.569-2.046,3.169-2.983,4.806c-0.664,1.16-1.297,2.338-1.894,3.534    c-2.143,4.293-4.394,8.531-6.531,12.827C77.729,260.356,70.2,293.323,72.068,328.22c0.944,17.635,4.702,34.675,11.977,50.901    c8.565,19.107,20.689,35.377,37.184,48.36c12.854,10.118,26.567,18.695,42.188,23.89c13.483,4.483,27.207,7.97,41.344,9.68    c11.603,1.404,23.072,0.227,34.489-1.806c16.659-2.967,32.747-7.774,47.352-16.472c15.556-9.265,28.699-21.043,36.361-37.977    c0.965-2.132,2.191-4.146,3.181-6.268c2.144-4.596,4.296-9.193,6.268-13.865c0.635-1.503,0.94-3.235,0.971-4.87    c0.007-0.391-0.1-0.784-0.259-1.178c-0.398-0.985-1.718-1.188-2.431-0.4c-0.256,0.283-0.484,0.579-0.656,0.906    c-4.087,7.738-7.895,15.629-12.161,23.265c-8.554,15.312-21.478,26-37.13,33.361C262.163,444.489,242.305,447.817,221.675,448.581    z M422.999,97.695c-0.336,0.439,0.172,0.929,0.535,1.322c5.026,5.438,9.447,11.34,10.403,18.886    c0.669,5.282,1.104,10.75,0.514,16.008c-2.123,18.916-9.023,35.598-23.44,48.799c-7.427,6.801-15.583,11.923-25.077,15.275    c-12.732,4.497-25.864,6.828-39.205,8.29c-12.534,1.373-25.099,2.509-37.599,4.137c-4.761,0.62-9.39,2.288-14.06,3.549    c-0.942,0.255-1.803,0.917-1.401,2.095c0.392,1.151,1.431,1.104,2.4,0.901c1.854-0.39,3.687-0.888,5.549-1.234    c10.442-1.943,20.968-1.855,31.532-1.449c19.366,0.743,38.376-1.175,57.052-6.847c18.245-5.541,38.64-23.544,45.506-40.869    c4.408-11.123,6.203-22.518,5.49-34.399c-0.655-10.903-3.964-20.765-11.186-29.128c-1.383-1.602-2.752-3.242-4.323-4.645    C424.935,97.71,423.351,97.234,422.999,97.695z M248.009,58.145c-0.44-8.76-2.679-18.287-8.158-26.834    c-3.836-5.983-9.031-10.469-15.695-13.046c-1.655-0.64-3.564-0.923-5.341-0.867c-1.888,0.059-2.314,1.458-1.052,2.868    c1.6,1.787,3.203,3.579,4.925,5.245c4.144,4.011,6.723,8.892,7.987,14.444c2.092,9.188,2.856,18.505,2.384,27.927    c-0.32,6.384-2.35,11.991-7.054,16.487c-1.37,1.309-2.663,2.698-4.001,4.041c-1.027,1.031-1.995,2.175-1.128,3.663    c0.833,1.433,2.404,1.547,3.721,0.989c1.982-0.839,3.988-1.797,5.687-3.094c2.832-2.16,5.409-4.653,8.132-6.96    c2.866-2.427,5.015-5.373,6.532-8.788C247.04,69.51,248.012,64.563,248.009,58.145z M117.277,80.586    c0.044,10.165,2.073,18.854,6.948,26.785c1.227,1.996,2.46,3.992,3.575,6.051c4.091,7.554,10.424,12.84,17.498,17.371    c0.772,0.495,1.728,0.823,2.636,0.94c0.559,0.071,1.48-0.249,1.712-0.678c0.281-0.519,0.171-1.406-0.074-2.011    c-0.235-0.577-0.825-1.036-1.322-1.475c-1.712-1.517-3.431-3.027-5.185-4.494c-4.523-3.783-7.201-8.609-8.83-14.263    c-4.202-14.579-5.141-29.369-3.762-44.419c0.741-8.088,2.265-15.889,6.253-23.061c0.134-0.241,0.301-0.508,0.308-0.767    c0.014-0.507,0.29-1.222-0.12-1.525c-0.37-0.274-0.988,0.067-1.334,0.311c-0.769,0.541-1.488,1.175-2.149,1.848    C122.44,52.392,117.856,66.155,117.277,80.586z M189.206,142.368c15.535,6.773,31.204,8.603,47.126,1.268    C220.839,136.21,205.06,138.009,189.206,142.368z"/>
	</g>
</g>















</svg>
