<?xml version="1.0" encoding="UTF-8"?>
<!-- Generator: Adobe Illustrator 27.3.1, SVG Export Plug-In . SVG Version: 6.00 Build 0)  -->
<svg xmlns="http://www.w3.org/2000/svg" xmlns:xlink="http://www.w3.org/1999/xlink" version="1.1" id="Capa_1" x="0px" y="0px" viewBox="0 0 512 512" style="enable-background:new 0 0 512 512;" xml:space="preserve" width="512" height="512">
<g>
	<path style="fill:#FFFFFF;" d="M282.458,512c-19.697,0-39.892-2.024-58.399-5.854c-11.982-2.487-23.783-5.687-35.195-9.539   c-4.8,2.943-8.851,4.219-12.997,4.219c-2.221,0-4.375-0.396-6.4-1.177c-7.691-2.986-11.18-10.016-12.9-16.241   c-19.267-9.375-36.636-20.777-51.716-33.958c-58.169-50.853-86.763-137.612-74.623-226.421c1.458-10.688,3.549-20.582,6.213-29.401   c15.951-52.649,52.38-101.286,102.577-136.964c5.729-4.083,11.656-7.998,17.601-11.623c41.133-25.303,87.998-41.069,131.912-44.365   C294.499,0.228,300.501,0,306.365,0c12.573,0,24.991,1.043,36.909,3.099c8.668,1.503,17.111,3.605,25.105,6.252   c2.72,0.878,5.71,1.945,9.033,3.227c0.565,0.218,1.115,0.443,1.665,0.668l0.669,0.272c2.253,0.91,4.478,1.857,6.681,2.854   c0.907,0.411,1.795,0.821,2.679,1.242c2.2,1.044,4.375,2.145,6.526,3.287l0.648,0.337c0.524,0.273,1.049,0.546,1.567,0.831   c2.948,1.625,5.623,3.201,8.178,4.818c0.123,0.074,0.706,0.445,0.879,0.566c6.873,4.413,13.317,9.32,19.162,14.592   c18.968,17.09,34.22,40.268,44.105,67.023c1.564,4.162,3.016,8.544,4.408,13.312c10.946,37.551,12.929,79.787,5.584,118.937   c-2.293,12.206-5.463,24.152-8.53,35.706c-4.684,17.65-9.11,34.322-10.472,51.301c-0.669,8.361-0.604,16.877-0.533,25.893   c0.112,14.441,0.229,29.375-2.81,44.516c-9.394,46.877-40.723,81.198-90.672,99.403c-1.155,0.795-2.386,1.447-3.687,1.948   c-1.777,0.678-3.603,1.059-5.476,1.152C335.288,508.284,309.248,512,282.458,512z"/>
	<g>
		<g>
			<path style="fill:#977BFF;" d="M465.813,239.144c-5.59,29.755-16.797,58.454-19.218,88.621     c-1.829,22.851,1.417,46.139-3.091,68.604c-19.115,95.396-136.667,111.626-215.472,95.319     c-40.961-8.501-80.66-25.659-112.167-53.198c-59.201-51.756-79.862-136.744-69.48-212.69c1.237-9.068,3.04-18.239,5.693-27.024     c15.947-52.631,52.297-97.251,96.736-128.835c5.384-3.839,10.949-7.522,16.694-11.026     c37.148-22.851,81.072-38.849,125.022-42.146c17.132-1.288,34.237-0.644,50.957,2.241c7.729,1.34,15.406,3.22,22.876,5.693     c12.16,3.942,9.525,19.598,20.242,26.425c6.209,3.967,21.893,18.075,27.406,23.021c18.214,16.41,35.975,17.869,44.502,40.952     c1.52,4.045,2.859,8.141,4.07,12.288C470.991,163.096,472.665,202.614,465.813,239.144z"/>
		</g>
		<g>
			<g style="opacity:0.25;">
				<path style="fill:#F7EDE5;" d="M416.015,197.874c-5.358,18.806-19.888,33.928-36.556,44.182      c-9.686,5.951-20.48,10.562-31.816,11.464c-16.797,1.314-33.258-5.539-50.081-5.358c-8.347,0.077-16.668,1.932-24.242,5.384      c-7.188,3.246-13.886,8.115-17.93,14.865c-4.07,6.775-5.101,15.638-1.417,22.593c6.492,12.237,23.34,13.757,37.071,11.902      c13.731-1.829,28.853-5.152,40.523,2.318c11.515,7.394,15.019,23.624,10.588,36.582c-4.405,12.958-15.148,22.851-26.895,29.858      c-19.733,11.773-43.383,16.848-66.208,14.169c-18.342-2.164-37.174-10.331-48.922-25.015c-5.152-6.44-9.687-13.68-7.832-22.13      c2.241-10.279,10.691-18.007,7.162-29.343c-3.555-11.438-16.591-16.281-27.179-21.846      c-20.919-10.949-37.664-31.584-39.415-55.13c-1.778-23.521,14.375-48.407,37.638-52.4c16.668-2.86,36.376,3.916,49.231-7.11      c5.668-4.869,8.579-12.778,7.419-20.146c-1.546-9.867-9.506-17.492-18.007-22.748c-8.501-5.23-18.008-8.94-25.762-15.225      c-15.56-12.597-21.82-34.572-18.214-54.28c0.103-0.515,0.206-1.03,0.335-1.546c37.148-22.851,81.072-38.849,125.022-42.146      c17.132-1.288,34.237-0.644,50.957,2.241c7.729,1.34,15.406,3.22,22.876,5.693c12.16,3.942,23.855,9.3,34.572,16.127      c-4.895,7.754-12.778,13.705-20.635,18.78c-30.373,19.579-66.594,33.696-86.122,64.121c-4.328,6.724-7.574,15.843-2.988,22.387      c4.817,6.93,15.096,6.544,23.314,4.689c14.684-3.349,28.776-9.094,43.589-11.825c14.813-2.731,31.12-2.061,43.538,6.44      C415.757,156.5,421.374,179.068,416.015,197.874z"/>
			</g>
			<g>
				<g>
					<g>
						<path style="fill:#9DD1A9;" d="M230.231,250.728c-6.939,5.484-11.88,13.444-13.715,22.096        c-1.835,8.652-0.551,17.932,3.565,25.761c6.282-5.945,11.661-12.848,13.773-21.236        C236.023,268.743,232.435,259.325,230.231,250.728z"/>
					</g>
					<g>
						<path style="fill:#9DD1A9;" d="M239.904,264.735c-1.898,8.639-0.682,17.928,3.376,25.786        c4.058,7.859,10.928,14.228,19.071,17.681c1.098-8.579,0.89-17.328-2.786-25.157        C255.794,275.011,247.053,269.993,239.904,264.735z"/>
					</g>
					<g>
						<path style="fill:#9DD1A9;" d="M233.788,293.641c-6.03,6.471-9.71,15.086-10.215,23.916        c-0.505,8.83,2.168,17.809,7.421,24.925c5.311-6.827,9.583-14.464,10.403-23.075        C242.238,310.572,237.267,301.805,233.788,293.641z"/>
					</g>
				</g>
				<g>
					<g>
						<path style="fill:#FF9191;" d="M419.673,86.866l4.843,17.518c-9.3,4.714-16.951,8.527-21.279,10.536        c-19.734,9.223-29.6,42.765-36.195,51.318c-6.569,8.553-42.739,13.808-64.456,29.6c-8.785,6.415-19.914,18.059-30.09,29.677        c-5.256,6.003-13.499,6.338-17.75,11.593c-6.363,7.832-7.857,19.656-9.429,21.743c-0.386,0.515-0.592,0.773-0.592,0.773        c-12.185-12.16-7.033-34.495-5.59-39.699c-1.159,3.607-5.23,15.741-10.202,24.577c-5.925,10.537-22.361,7.909-22.361,7.909        s7.213-16.153,7.239-16.281c0.283-2.138-2.473-4.792-4.096-22.361c-0.206-2.473,0.129-4.946,0.129-7.419        c0-22.361-7.883-59.845,1.314-71.025c9.223-11.181,30.27-46.037,37.509-55.259c7.239-9.197,73.653-5.256,119.045-24.989        c5.771-2.499,11.542-5.513,17.209-8.811L419.673,86.866z"/>
					</g>
					<g>
						<path style="fill:#302945;" d="M456.513,115.101l-47.35,31.404c-20.403-26.973,2.628-61.184,2.628-61.184        s-36.17,23.031-46.037,5.281c-9.867-17.775,15.122-32.228,15.122-32.228c-28.287,1.314-36.17-21.717-36.17-21.717        l19.656-11.953c19.218,6.209,37.226,15.998,52.194,29.497C434.77,70.61,447.986,92.019,456.513,115.101z"/>
					</g>
					<g>
						<g>
							<path style="fill:#302945;" d="M213.615,242.596c-1.236,3.658-3.143,7.239-6.312,9.429l-0.695,0.18         c0.283-2.138,2.602-19.785,3.117-38.437c3.22,2.654,4.766,7.007,5.41,11.181         C216.036,230.823,215.521,236.955,213.615,242.596z"/>
						</g>
						<g>
							<path style="fill:#302945;" d="M272.506,225.516c-13.087,14.968-24.551,29.858-27.179,33.336         c1.237-7.625,1.443-17.209,5.977-22.877C255.967,230.128,264.958,227.397,272.506,225.516z"/>
						</g>
						<g>
							<path style="fill:#302945;" d="M245.052,262.238c-0.336,0-0.672-0.131-0.923-0.39c-9.863-10.153-9.403-16.594-8.642-27.268         c0.137-1.913,0.284-3.979,0.385-6.245c0.57-12.808,20.953-36.492,34.44-52.164c2.57-2.986,4.85-5.637,6.633-7.798         c10.711-12.981,18.631-23.527,18.71-23.631c0.426-0.571,1.235-0.683,1.802-0.258c0.57,0.426,0.686,1.234,0.258,1.803         c-0.079,0.106-8.036,10.699-18.783,23.727c-1.792,2.171-4.084,4.835-6.668,7.837c-12.451,14.468-33.289,38.682-33.819,50.598         c-0.102,2.293-0.25,4.381-0.389,6.316c-0.758,10.629-1.14,15.964,7.919,25.288c0.497,0.511,0.484,1.326-0.025,1.822         C245.7,262.117,245.376,262.238,245.052,262.238z"/>
						</g>
						<g>
							<path style="fill:#302945;" d="M283.53,163.246c-0.318,0-0.637-0.117-0.885-0.352c-9.375-8.866-19.303-16.261-33.194-24.727         c-0.608-0.37-0.8-1.162-0.429-1.77c0.37-0.606,1.161-0.799,1.77-0.429c14.053,8.564,24.109,16.057,33.624,25.054         c0.516,0.489,0.54,1.304,0.05,1.821C284.213,163.112,283.871,163.246,283.53,163.246z"/>
						</g>
						<g>
							<path style="fill:#302945;" d="M207.02,253.693c-0.311,0-0.486-0.006-0.506-0.008c-0.709-0.033-1.259-0.634-1.228-1.345         c0.033-0.709,0.625-1.27,1.345-1.229c0.849,0.045,20.806,0.71,26.344-16.214c5.762-17.612,2.282-49.127,2.247-49.444         c-0.028-0.238,0.013-0.479,0.114-0.696l20.391-43.082c0.303-0.643,1.074-0.921,1.716-0.614         c0.643,0.304,0.917,1.073,0.614,1.716l-20.236,42.752c0.406,3.784,3.268,32.858-2.398,50.168         C229.786,252.922,210.407,253.693,207.02,253.693z"/>
						</g>
						<g>
							<path style="fill:#302945;" d="M250.315,203.37c-0.036,0-0.073-0.001-0.111-0.005c-0.708-0.06-1.234-0.683-1.174-1.393         l1.316-15.457c0.016-0.19,0.074-0.374,0.17-0.537l20.061-34.532c0.357-0.618,1.146-0.823,1.76-0.467         c0.615,0.357,0.825,1.145,0.467,1.76l-19.915,34.283l-1.292,15.169C251.541,202.863,250.977,203.37,250.315,203.37z"/>
						</g>
					</g>
				</g>
			</g>
			<g>
				<g>
					<g>
						<path style="fill:#302945;" d="M427.539,330.716c-20.774-22.898-57.226,1.813-69.248,23.727        c-6.647-2.834-11.284-4.044-11.284-4.044l30.27-30.244c-55.016,1.174-165.699,1.174-220.701,0l23.778,23.752l29.672,4.771        c-5.499,0.529-31.417,2.295-38.972,7.827c-11.929-22.069-48.567-47.006-69.429-24.037        c-14.638,23.356,5.797,57.82,28.828,68.759c-8.382,28.381,8.484,50.371,39.751,59.871c1.035,32.755,6.57,29.908,29.523,7.6        c23.418,4.302,46.99,5.487,60.901,5.771v0.026c-0.951,0.051,13.516,0.053,12.598,0v-0.026        c13.963-0.283,37.664-1.469,61.159-5.822c25.31,27.721,28.389,27.936,30.038-7.806c32.633-9.634,48.341-34.663,37.922-63.374        C423.328,385.607,441.57,352.635,427.539,330.716z M131.922,396.228c-19.968-10.729-38.157-38.175-26.201-60.643        c18.757-19.157,50.277,4.463,60.748,23.263C153.691,365.804,138.492,377.603,131.922,396.228z M426.921,352.408        c-2.164,16.513-12.366,31.481-26.406,40.188c-8.063-18.626-24.86-29.884-37.509-36.015        C374.887,330.978,430.668,307.011,426.921,352.408z"/>
					</g>
					<g>
						<path style="fill:#DBB0FF;" d="M310.865,365.761c1.752,4.946,2.705,10.253,2.705,15.766c0,26.148-21.202,47.35-47.35,47.35        c-26.174,0-47.376-21.202-47.376-47.35c0-5.513,0.953-10.82,2.705-15.766c6.492,18.394,24.036,31.558,44.671,31.558        C286.83,397.319,304.374,384.155,310.865,365.761z"/>
					</g>
					<g>
						<path style="fill:#DBB0FF;" d="M179.968,352.894c4.096-1.546,6.878-2.495,6.878-2.495l-6.492-6.492l95.293,7.497        L179.968,352.894z"/>
					</g>
				</g>
				<g>
					<g>
						<path style="fill:#F7EDE5;" d="M347.116,375.12c-2.399,5.99-0.94,13.004,2.439,18.502c1.785,2.905,4.081,5.494,6.751,7.614        c2.831,2.248,6.163,3.991,9.752,4.42c3.59,0.429,7.45-0.591,9.974-3.179c3.538-3.626,3.769-9.385,2.63-14.321        c-1.843-7.987-6.845-15.372-13.677-19.936C358.423,363.836,349.933,368.087,347.116,375.12z"/>
					</g>
					<g>
						
							<ellipse transform="matrix(0.2142 -0.9768 0.9768 0.2142 -110.1786 701.9777)" style="fill:#F7EDE5;" cx="381.206" cy="419.467" rx="9.866" ry="9.866"/>
					</g>
				</g>
			</g>
			<g>
				<g>
					<g>
						<path style="fill:#9DD1A9;" d="M343.145,312.418c8.735-15.262,12.235-32.883,15.329-50.193c3.094-17.31,6-34.953,13.744-50.74        c7.744-15.788,21.248-29.758,38.434-33.483c0.36,18.435-1.164,36.351-5.896,54.172c-4.732,17.821-13.838,34.903-28.073,46.623        c-5.934,4.886-12.638,8.758-18.69,13.497C351.939,297.033,345.545,305.116,343.145,312.418z"/>
					</g>
					<g>
						<path style="fill:#302945;" d="M343.385,311.911c-0.091,0-0.182-0.019-0.271-0.059c-0.322-0.15-0.463-0.532-0.314-0.855        c0.477-1.033,1.024-2.029,1.496-2.868c4.715-8.381,10.955-15.754,16.991-22.883c3.971-4.691,8.077-9.54,11.7-14.623        c8.2-11.504,14.989-25.189,22.015-44.376c6.562-17.923,11.628-33.009,15.021-48.383c0.077-0.346,0.421-0.569,0.767-0.491        c0.347,0.077,0.567,0.42,0.491,0.767c-3.409,15.445-8.49,30.578-15.068,48.549c-7.067,19.3-13.906,33.08-22.176,44.681        c-3.654,5.127-7.778,9.998-11.765,14.707c-5.996,7.083-12.197,14.408-16.852,22.683c-0.459,0.816-0.99,1.785-1.448,2.777        C343.861,311.773,343.628,311.911,343.385,311.911z"/>
					</g>
				</g>
				<g>
					<g>
						<path style="fill:#9DD1A9;" d="M343.227,313.956c1.089-17.832-11.289-33.245-18.342-49.66        c-9.265-21.564-9.274-46.926-0.023-68.497c9.923,14.03,20.538,26.797,24.467,43.526c2.767,11.78,2.294,24.07,1.21,36.122        C349.36,288.57,348.363,301.822,343.227,313.956z"/>
					</g>
					<g>
						<path style="fill:#302945;" d="M342.22,319.512c-0.047,0-0.094-0.005-0.142-0.016c-0.347-0.078-0.565-0.423-0.486-0.77        c1.911-8.439,2.123-17.007,2.096-23.528c-0.133-30.761-6.762-64.023-19.703-98.863c-0.123-0.333,0.047-0.704,0.38-0.828        c0.336-0.126,0.704,0.045,0.828,0.38c12.993,34.981,19.648,68.393,19.783,99.306c0.028,6.589-0.189,15.251-2.128,23.817        C342.781,319.309,342.515,319.512,342.22,319.512z"/>
					</g>
				</g>
				<g>
					<g>
						<path style="fill:#9DD1A9;" d="M351.59,310.214c11.045-13.086,23.535-25.33,38.689-33.303s33.324-11.318,49.661-6.186        c-5.652,16.118-21.774,26.664-37.979,32.062C385.757,308.186,368.632,309.063,351.59,310.214z"/>
					</g>
					<g>
						<path style="fill:#302945;" d="M345.122,317.752c-0.164,0-0.327-0.062-0.452-0.185c-0.254-0.25-0.257-0.658-0.008-0.911        c10.88-11.047,25.264-19.957,45.267-28.039c8.289-3.348,16.876-6.315,25.179-9.183c8.232-2.844,16.744-5.785,24.951-9.093        c0.323-0.132,0.703,0.026,0.838,0.357c0.133,0.33-0.026,0.704-0.357,0.838c-8.235,3.321-16.763,6.267-25.011,9.115        c-8.287,2.864-16.858,5.824-25.116,9.161c-19.835,8.013-34.08,16.831-44.832,27.747        C345.456,317.688,345.288,317.752,345.122,317.752z"/>
					</g>
				</g>
			</g>
			<g>
				<g>
					<g>
						<path style="fill:#9DD1A9;" d="M163.168,286.766c-8.735-15.262-12.235-32.883-15.329-50.193        c-3.093-17.311-6-34.953-13.744-50.74c-7.744-15.788-21.248-29.758-38.434-33.483c-0.36,18.435,1.164,36.351,5.896,54.172        s13.838,34.904,28.073,46.623c5.934,4.886,12.638,8.758,18.69,13.497C154.373,271.38,160.767,279.464,163.168,286.766z"/>
					</g>
					<g>
						<path style="fill:#302945;" d="M162.928,286.259c-0.243,0-0.475-0.138-0.585-0.374c-0.45-0.976-0.962-1.912-1.448-2.777        c-4.654-8.273-10.855-15.597-16.85-22.679c-3.989-4.711-8.113-9.583-11.768-14.711c-8.274-11.607-15.114-25.387-22.175-44.681        c-6.579-17.968-11.66-33.1-15.07-48.549c-0.077-0.347,0.143-0.691,0.491-0.767c0.352-0.077,0.691,0.145,0.767,0.491        c3.395,15.378,8.461,30.464,15.022,48.383c7.02,19.18,13.811,32.867,22.015,44.376c3.623,5.084,7.73,9.935,11.701,14.626        c6.035,7.129,12.276,14.5,16.989,22.88c0.499,0.889,1.025,1.852,1.496,2.868c0.148,0.323,0.007,0.706-0.314,0.855        C163.11,286.24,163.018,286.259,162.928,286.259z"/>
					</g>
				</g>
				<g>
					<g>
						<path style="fill:#9DD1A9;" d="M163.085,288.304c-1.089-17.832,11.289-33.245,18.342-49.66        c9.265-21.564,9.274-46.926,0.023-68.497c-9.923,14.03-20.538,26.797-24.467,43.526c-2.767,11.78-2.294,24.07-1.211,36.122        C156.953,262.918,157.95,276.17,163.085,288.304z"/>
					</g>
					<g>
						<path style="fill:#302945;" d="M164.091,293.859c-0.294,0-0.561-0.202-0.628-0.502c-1.94-8.568-2.155-17.228-2.127-23.817        c0.133-30.91,6.789-64.321,19.783-99.306c0.125-0.333,0.496-0.503,0.828-0.38c0.333,0.123,0.503,0.494,0.38,0.828        c-12.941,34.843-19.57,68.105-19.702,98.863c-0.028,6.521,0.185,15.087,2.094,23.528c0.079,0.347-0.138,0.692-0.486,0.77        C164.186,293.854,164.138,293.859,164.091,293.859z"/>
					</g>
				</g>
				<g>
					<g>
						<path style="fill:#9DD1A9;" d="M154.722,284.562c-11.045-13.086-23.535-25.33-38.689-33.303        c-15.155-7.973-33.324-11.318-49.661-6.186c5.651,16.118,21.774,26.663,37.979,32.062        C120.556,282.534,137.681,283.411,154.722,284.562z"/>
					</g>
					<g>
						<path style="fill:#302945;" d="M161.191,292.099c-0.166,0-0.333-0.064-0.459-0.192c-10.75-10.915-24.996-19.732-44.832-27.747        c-8.258-3.337-16.827-6.297-25.115-9.16c-8.248-2.849-16.777-5.795-25.012-9.116c-0.331-0.133-0.491-0.508-0.357-0.838        c0.133-0.332,0.509-0.49,0.838-0.357c8.206,3.309,16.72,6.249,24.953,9.093c8.302,2.868,16.889,5.834,25.177,9.183        c20.004,8.085,34.388,16.993,45.267,28.039c0.249,0.253,0.247,0.66-0.007,0.911        C161.518,292.038,161.354,292.099,161.191,292.099z"/>
					</g>
				</g>
			</g>
			<g>
				<g>
					<g>
						<g>
							<polygon style="fill:#F7EDE5;" points="173.128,113.077 175.819,69.131 177.912,113.376 188.973,104.407 182.396,114.871          206.013,117.86 182.994,120.85 189.57,130.117 178.51,124.138 175.52,162.404 173.128,124.736 161.768,129.519          168.943,120.85 140.244,116.963 168.644,115.767 162.067,105.902        "/>
						</g>
					</g>
				</g>
			</g>
			<g>
				<g>
					<g>
						<g>
							<polygon style="fill:#F7EDE5;" points="407.008,353.613 409.698,309.667 411.791,353.912 422.852,344.943 416.275,355.407          439.892,358.396 416.873,361.385 423.45,370.653 412.389,364.674 409.399,402.939 407.008,365.272 395.648,370.055          402.823,361.385 374.123,357.499 402.523,356.303 395.947,346.438        "/>
						</g>
					</g>
				</g>
			</g>
			<g>
				<g>
					<path style="fill:#FFFFFF;" d="M454.746,164.766l-12.805,4.602c-0.38,0.137-0.679,0.435-0.815,0.815l-4.602,12.806       c-0.428,1.193-2.116,1.193-2.545,0l-4.602-12.806c-0.137-0.38-0.435-0.679-0.815-0.815l-12.805-4.602       c-1.193-0.429-1.193-2.116,0-2.545l12.805-4.602c0.38-0.137,0.679-0.435,0.815-0.815l4.602-12.805       c0.429-1.193,2.117-1.193,2.545,0l4.602,12.805c0.137,0.38,0.435,0.679,0.815,0.815l12.805,4.602       C455.939,162.65,455.939,164.337,454.746,164.766z"/>
				</g>
				<g>
					<path style="fill:#FFFFFF;" d="M114.032,314.075l-12.805,4.602c-0.38,0.137-0.679,0.435-0.815,0.815l-4.602,12.806       c-0.428,1.193-2.116,1.193-2.545,0l-4.602-12.806c-0.137-0.38-0.435-0.679-0.815-0.815l-12.805-4.602       c-1.194-0.429-1.194-2.116,0-2.545l12.805-4.602c0.38-0.136,0.679-0.435,0.815-0.815l4.602-12.805       c0.429-1.193,2.117-1.193,2.545,0l4.602,12.805c0.137,0.38,0.435,0.679,0.815,0.815l12.805,4.602       C115.225,311.958,115.225,313.646,114.032,314.075z"/>
				</g>
			</g>
		</g>
	</g>
</g>















</svg>
