<?xml version="1.0" encoding="iso-8859-1"?>
<!-- Generator: Adobe Illustrator 26.5.1, SVG Export Plug-In . SVG Version: 6.00 Build 0)  -->
<svg xmlns="http://www.w3.org/2000/svg" xmlns:xlink="http://www.w3.org/1999/xlink" version="1.1" id="Capa_1" x="0px" y="0px" viewBox="0 0 519.34 519.34" style="enable-background:new 0 0 519.34 519.34;" xml:space="preserve">
<g>
	<path style="fill:#FFFFFF;" d="M259.33,518.828c-64.162-0.007-129.285-26.976-178.672-73.993   c-24.435-23.264-43.836-50.055-57.664-79.63C8.48,334.163,0.875,301.584,0.388,268.374c-3.695-72.145,19.049-136.316,65.78-185.587   c24.846-26.195,55.075-46.751,89.847-61.094C189.607,7.837,226.634,0.512,263.091,0.512c73.509,0,140.951,28.565,189.919,80.43   c33.262,33.057,56.559,85.363,63.925,143.537c3.664,28.933,3.139,57.24-1.561,84.135c-5.027,28.766-14.614,54.398-28.497,76.19   c-12.973,22.617-29.302,43.237-48.535,61.287c-36.584,34.424-81.369,57.724-129.518,67.379c-16.165,3.556-32.809,5.359-49.47,5.359   C259.345,518.828,259.338,518.828,259.33,518.828z"/>
	<g>
		<g>
			<g>
				<g>
					<path style="fill:#C0D48C;" d="M478.527,379.736c-12.551,21.928-28.441,41.936-46.858,59.22       c-34.601,32.558-78.224,55.611-124.844,64.941C162.372,535.741,12.205,415.412,10.164,268.052       C-2.376,26.131,296.546-70.761,446.027,87.775C511.045,152.262,533.443,293.792,478.527,379.736z"/>
				</g>
			</g>
		</g>
		<g>
			<g>
				<g>
					
						<rect x="337.812" y="68.26" transform="matrix(0.9932 -0.1162 0.1162 0.9932 -8.3493 42.7577)" style="fill:#FFC063;" width="49.392" height="49.442"/>
				</g>
			</g>
			<g>
				<g>
					<g>
						
							<rect x="87.112" y="352.431" transform="matrix(0.9932 -0.1162 0.1162 0.9932 -43.0718 15.5488)" style="fill:#FFC063;" width="49.392" height="49.442"/>
					</g>
				</g>
				<g>
					<g>
						<g>
							<path style="fill:#E36352;" d="M121.467,57.229l30.885,37.976c0,0,10.166-56.387,8.645-54.571         C159.477,42.448,121.467,57.229,121.467,57.229z"/>
						</g>
					</g>
					<g>
						<g>
							<path style="fill:#E36352;" d="M274.182,483.838l36.498-32.606c0,0-56.731-7.61-54.851-6.172         C257.71,446.498,274.182,483.838,274.182,483.838z"/>
						</g>
					</g>
					<g>
						<g>
							
								<rect x="426.972" y="301.344" transform="matrix(0.9932 -0.1162 0.1162 0.9932 -34.8324 54.6985)" style="fill:#FFC063;" width="49.392" height="49.442"/>
						</g>
					</g>
					<g>
						<g>
							<ellipse style="fill:#F7EDE5;" cx="63.913" cy="261.785" rx="30.683" ry="30.714"/>
						</g>
					</g>
					<g>
						<g>
							<ellipse style="fill:#F7EDE5;" cx="453.06" cy="237.813" rx="30.683" ry="30.714"/>
						</g>
					</g>
					<g>
						<g>
							<g>
								<g>
									<path style="fill:#F7EDE5;" d="M70.862,160.962c-0.472,0-0.935-0.228-1.218-0.65c-0.45-0.673-0.271-1.584,0.401-2.035           l38.121-25.591c0.673-0.451,1.582-0.272,2.034,0.401c0.45,0.673,0.271,1.584-0.401,2.035l-38.121,25.591           C71.427,160.882,71.143,160.962,70.862,160.962z"/>
								</g>
							</g>
							<g>
								<g>
									<path style="fill:#F7EDE5;" d="M76.142,168.842c-0.472,0-0.935-0.228-1.218-0.65c-0.45-0.673-0.271-1.584,0.401-2.035           l38.121-25.591c0.673-0.45,1.583-0.272,2.034,0.401c0.45,0.673,0.271,1.584-0.401,2.035l-38.121,25.591           C76.707,168.762,76.423,168.842,76.142,168.842z"/>
								</g>
							</g>
							<g>
								<g>
									<path style="fill:#F7EDE5;" d="M81.421,176.724c-0.472,0-0.935-0.228-1.219-0.65c-0.45-0.673-0.271-1.584,0.401-2.035           l38.121-25.591c0.673-0.451,1.583-0.272,2.034,0.401c0.45,0.673,0.271,1.584-0.401,2.035l-38.121,25.591           C81.986,176.643,81.703,176.724,81.421,176.724z"/>
								</g>
							</g>
						</g>
						<g>
							<g>
								<g>
									<path style="fill:#F7EDE5;" d="M152.078,459.695c-0.472,0-0.935-0.228-1.219-0.65c-0.45-0.673-0.271-1.584,0.401-2.035           l38.12-25.591c0.672-0.451,1.583-0.272,2.034,0.401c0.45,0.673,0.271,1.584-0.401,2.035l-38.12,25.591           C152.643,459.615,152.359,459.695,152.078,459.695z"/>
								</g>
							</g>
							<g>
								<g>
									<path style="fill:#F7EDE5;" d="M157.357,467.576c-0.472,0-0.935-0.228-1.218-0.65c-0.45-0.673-0.271-1.584,0.401-2.035           l38.122-25.591c0.67-0.451,1.582-0.273,2.033,0.401c0.45,0.673,0.271,1.584-0.401,2.035l-38.122,25.591           C157.922,467.496,157.638,467.576,157.357,467.576z"/>
								</g>
							</g>
							<g>
								<g>
									<path style="fill:#F7EDE5;" d="M162.637,475.457c-0.472,0-0.935-0.228-1.218-0.65c-0.45-0.673-0.271-1.584,0.401-2.035           l38.12-25.591c0.673-0.451,1.582-0.273,2.034,0.401c0.45,0.673,0.271,1.584-0.401,2.035l-38.12,25.591           C163.202,475.377,162.919,475.457,162.637,475.457z"/>
								</g>
							</g>
						</g>
						<g>
							<g>
								<g>
									<path style="fill:#F7EDE5;" d="M290.657,450.946c-0.245-0.404-0.29-0.918-0.077-1.38c0.341-0.734,1.212-1.054,1.946-0.713           l41.63,19.351c0.735,0.342,1.054,1.213,0.713,1.949c-0.341,0.734-1.212,1.053-1.946,0.713l-41.63-19.352           C291.019,451.388,290.803,451.187,290.657,450.946z"/>
								</g>
							</g>
							<g>
								<g>
									<path style="fill:#F7EDE5;" d="M286.665,459.553c-0.245-0.404-0.291-0.919-0.077-1.38c0.341-0.735,1.212-1.054,1.946-0.713           l41.63,19.351c0.735,0.342,1.053,1.212,0.713,1.949c-0.341,0.734-1.212,1.053-1.946,0.713l-41.63-19.351           C287.027,459.994,286.811,459.793,286.665,459.553z"/>
								</g>
							</g>
							<g>
								<g>
									<path style="fill:#F7EDE5;" d="M282.673,468.159c-0.245-0.404-0.29-0.918-0.077-1.38c0.341-0.734,1.212-1.054,1.946-0.713           l41.63,19.351c0.734,0.342,1.053,1.213,0.713,1.949c-0.341,0.734-1.212,1.053-1.946,0.713l-41.63-19.351           C283.035,468.601,282.819,468.4,282.673,468.159z"/>
								</g>
							</g>
						</g>
						<g>
							<g>
								<g>
									<path style="fill:#F7EDE5;" d="M259.726,30.26c-0.282-0.379-0.376-0.887-0.207-1.366c0.27-0.763,1.107-1.164,1.87-0.894           l43.276,15.313c0.761,0.269,1.163,1.106,0.893,1.872c-0.27,0.763-1.107,1.164-1.87,0.894l-43.276-15.313           C260.128,30.666,259.894,30.486,259.726,30.26z"/>
								</g>
							</g>
							<g>
								<g>
									<path style="fill:#F7EDE5;" d="M256.567,39.208c-0.282-0.379-0.376-0.887-0.207-1.366c0.27-0.763,1.107-1.164,1.87-0.894           l43.276,15.312c0.763,0.271,1.163,1.107,0.894,1.873c-0.27,0.764-1.107,1.164-1.87,0.894l-43.276-15.312           C256.969,39.613,256.736,39.433,256.567,39.208z"/>
								</g>
							</g>
							<g>
								<g>
									<path style="fill:#F7EDE5;" d="M253.408,48.154c-0.282-0.379-0.376-0.887-0.207-1.366c0.27-0.763,1.107-1.164,1.87-0.894           l43.276,15.312c0.764,0.271,1.164,1.107,0.894,1.873c-0.27,0.763-1.107,1.164-1.87,0.894L254.095,48.66           C253.81,48.559,253.576,48.38,253.408,48.154z"/>
								</g>
							</g>
						</g>
					</g>
				</g>
			</g>
			<g>
				<g>
					<g>
						<polygon style="fill:#412945;" points="440.599,114.73 396.215,253.198 157.401,267.075 139.833,256.811 140.274,99.837         143.437,100.821 142.224,98.036 423.701,97.815       "/>
					</g>
					<g>
						<path style="fill:#6E72FF;" d="M440.595,144.976l-3.048,1.389l3.048,1.262v92.522l-3.4,1.418l3.4,1.232v24.275h-283.19        v-24.275l2.172-1.212l-2.172-1.438v-92.522l3.336-1.512l-3.336-1.138v-29.234L140.278,99.84v-1.8h1.944l17.743,16.47        c0.029,0.029,0.039,0.068,0.068,0.107h280.562V144.976z"/>
					</g>
					<g>
						<g>
							<g>
								<g>
									<rect x="157.405" y="144.976" style="fill:#412945;" width="283.19" height="2.65"/>
								</g>
							</g>
							<g>
								<g>
									<rect x="157.405" y="240.149" style="fill:#412945;" width="283.19" height="2.65"/>
								</g>
							</g>
						</g>
						<g>
							<g>
								<g>
									<g>
										<ellipse style="fill:#F7EDE5;" cx="230.701" cy="192.31" rx="23.682" ry="28.416"/>
									</g>
									<g>
										<ellipse style="fill:#412945;" cx="231.602" cy="191.633" rx="11.865" ry="17.366"/>
									</g>
								</g>
								<g>
									<g>
										<ellipse style="fill:#F7EDE5;" cx="377.142" cy="192.31" rx="23.682" ry="28.416"/>
									</g>
									<g>
										<ellipse style="fill:#412945;" cx="378.043" cy="191.633" rx="11.865" ry="17.366"/>
									</g>
								</g>
							</g>
							<g>
								<path style="fill:#412945;" d="M433.315,255.157c0,2.906-1.883,5.262-4.206,5.262c-2.323,0-4.205-2.356-4.205-5.262          c0-2.906,1.883-5.262,4.205-5.262C431.432,249.894,433.315,252.25,433.315,255.157z"/>
							</g>
							<g>
								<path style="fill:#412945;" d="M433.315,130.515c0,2.906-1.883,5.262-4.206,5.262c-2.323,0-4.205-2.356-4.205-5.262          c0-2.906,1.883-5.262,4.205-5.262C431.432,125.253,433.315,127.609,433.315,130.515z"/>
							</g>
							<g>
								<path style="fill:#412945;" d="M176.255,130.515c0,2.906-1.883,5.262-4.206,5.262c-2.323,0-4.206-2.356-4.206-5.262          c0-2.906,1.883-5.262,4.206-5.262C174.372,125.253,176.255,127.609,176.255,130.515z"/>
							</g>
						</g>
					</g>
				</g>
				<g>
					<g>
						<g>
							<g>
								<polygon style="fill:#412945;" points="444.599,333.377 446.48,333.484 435.194,388.064 397.401,455.408 396.442,451.44           394.048,458.729 42.508,350.179 43.17,294.38 46.298,294.361 45.235,292.243 63.218,276.661 65.298,276.845 64.012,275.972           113.471,233.131 446.057,328.821         "/>
							</g>
							<g>
								<polygon style="fill:#F7EDE5;" points="68.189,308.907 68.639,351.757 353.411,440.615 361.071,394.607         "/>
							</g>
						</g>
						<g>
							<path style="fill:#F7EDE5;" d="M446.057,328.821l-28.711,51.286l-0.002-0.001l-101.706-29.971l16.351-29.547l-159.141-45.712         l-0.265-0.071l-23.507,26.244l-85.063-25.077l-0.794,0.689l353.683,104.24l-10.958,19.574L45.235,292.243l-2.056,1.775         l-0.009,0.362l361.882,108.594l-11.004,55.755l1.271,0.38l2.083-3.701l10.439-52.893l38.64-69.031l0.882-4.284         L446.057,328.821z M150.011,301.323l22.854-25.519l157.809,45.331l-15.901,28.743L150.011,301.323z"/>
						</g>
					</g>
					<g>
						<g>
							<path style="fill:#412945;" d="M121.63,354.393c1.88,0.948,3.295,1.56,4.245,1.836c0.949,0.277,1.8,0.203,2.554-0.221         c0.753-0.425,1.181-1.306,1.286-2.643c-1.245,0.016-2.241-0.084-2.99-0.3c-2.624-0.759-4.66-2.127-6.107-4.104         c-1.447-1.974-2.192-4.397-2.234-7.271c-0.042-2.873,0.742-4.977,2.353-6.313c1.61-1.341,3.839-1.619,6.688-0.83         c2.848,0.788,5.106,2.488,6.775,5.103c1.667,2.62,2.533,6.041,2.595,10.263c0.077,5.275-0.732,9.076-2.428,11.392         c-1.696,2.31-4.255,2.958-7.679,1.946c-4.249-1.256-6.384-2.646-6.406-4.172c-0.012-0.803,0.123-1.809,0.404-3.021         C120.965,354.847,121.28,354.292,121.63,354.393z M127.455,341.787c-0.8-0.225-1.414-0.123-1.843,0.304         c-0.43,0.428-0.638,1.07-0.625,1.93c0.012,0.859,0.279,1.623,0.799,2.293c0.519,0.67,1.179,1.118,1.979,1.347         c0.799,0.228,1.446,0.225,1.941-0.009c-0.028-1.858-0.21-3.244-0.546-4.158C128.822,342.581,128.254,342.012,127.455,341.787         z"/>
						</g>
						<g>
							<path style="fill:#412945;" d="M150.322,370.236c-3.137-0.927-5.717-2.935-7.74-6.018c-2.023-3.077-3.07-7.013-3.14-11.809         c-0.07-4.797,0.876-8.142,2.839-10.039c1.963-1.902,4.524-2.419,7.685-1.544c3.16,0.874,5.733,2.813,7.718,5.822         c1.985,3.016,3.014,7.013,3.087,11.985c0.073,4.974-0.866,8.386-2.818,10.233         C156.002,370.707,153.458,371.162,150.322,370.236z M150.006,348.663c-0.962-0.271-1.766,0.092-2.41,1.092         c-0.645,0.997-0.952,2.585-0.92,4.763c0.032,2.179,0.375,3.938,1.029,5.28c0.654,1.342,1.487,2.162,2.5,2.456         c1.012,0.294,1.828-0.054,2.448-1.045c0.62-0.99,0.914-2.582,0.882-4.769c-0.032-2.189-0.388-3.964-1.067-5.328         C151.788,349.751,150.968,348.934,150.006,348.663z"/>
						</g>
						<g>
							<path style="fill:#412945;" d="M166.75,356.553c-0.35-0.1-0.701-0.254-1.052-0.463c-0.703-0.419-1.058-0.877-1.065-1.373         L164.506,346c-0.007-0.496,0.525-0.705,1.596-0.629c0.523,0.035,1.06,0.129,1.609,0.28c0.549,0.151,1.1,0.359,1.651,0.621         c1.078,0.519,1.62,1.028,1.628,1.526l-2.121,8.117c0.007,0.497-0.35,0.754-1.071,0.77         C167.449,356.695,167.1,356.652,166.75,356.553z"/>
						</g>
						<g>
							<path style="fill:#412945;" d="M176.428,370.076c2.044,1.95,3.654,3.098,4.828,3.441c0.75,0.219,1.12,0.036,1.112-0.549         c-0.006-0.418-0.665-1.15-1.973-2.196c-3.145-2.323-4.74-5.09-4.787-8.308c-0.03-2.052,0.622-3.429,1.955-4.129         c1.333-0.702,2.943-0.788,4.83-0.256c1.886,0.532,3.489,1.206,4.807,2.023c1.318,0.818,1.983,1.591,1.993,2.317         c0.009,0.616-0.248,1.35-0.77,2.205c-0.523,0.852-0.883,1.293-1.082,1.319c-1.084-0.977-2.251-1.643-3.501-2         c-0.674-0.192-1.008-0.024-1,0.505c0.005,0.334,0.141,0.658,0.406,0.97c0.265,0.311,0.751,0.743,1.455,1.29         c0.705,0.551,1.291,1.032,1.757,1.444c0.466,0.412,0.99,0.952,1.573,1.621c1.215,1.409,1.835,2.969,1.86,4.675         c0.033,2.24-0.603,3.856-1.907,4.851c-1.305,0.993-3.294,1.094-5.968,0.303c-1.775-0.524-3.392-1.334-4.85-2.427         c-1.459-1.094-2.197-2.222-2.214-3.387c-0.011-0.776,0.145-1.545,0.47-2.306         C175.747,370.722,176.083,370.252,176.428,370.076z"/>
						</g>
						<g>
							<path style="fill:#412945;" d="M216.645,389.198c0.003,0.2-1.064-0.016-3.201-0.647c-2.136-0.631-3.207-1.074-3.211-1.329         l-0.18-12.371c-0.021-1.417-0.444-2.245-1.269-2.481c-0.425-0.122-0.982,0.03-1.673,0.452l0.198,13.579         c0.004,0.282-1.062,0.109-3.199-0.522c-2.137-0.631-3.207-1.102-3.212-1.411l-0.202-13.821l-0.937-0.268         c-0.825-0.236-1.251-1.325-1.279-3.267c-0.013-0.872,0.124-1.716,0.411-2.531c0.381-1.126,1.022-1.562,1.922-1.308         c0.899,0.253,1.771,0.766,2.616,1.539c0.845,0.773,1.359,1.423,1.54,1.953c1.526-1.116,3.233-1.41,5.119-0.878         c1.887,0.532,3.414,1.627,4.583,3.288c1.33-0.955,2.944-1.166,4.844-0.63c4.123,1.162,6.226,4.618,6.31,10.371l0.19,13.05         c0.003,0.201-1.064-0.014-3.2-0.645c-2.137-0.631-3.207-1.075-3.211-1.331l-0.182-12.443         c-0.021-1.425-0.444-2.257-1.268-2.493c-0.45-0.129-1.02,0.021-1.71,0.447L216.645,389.198z"/>
						</g>
						<g>
							<path style="fill:#412945;" d="M230.801,391.059c-1.592-2.437-2.412-5.401-2.463-8.899c-0.051-3.496,0.69-6.013,2.223-7.548         c1.532-1.539,3.623-1.937,6.272-1.191c2.648,0.747,4.762,2.335,6.34,4.769c1.578,2.436,2.393,5.423,2.445,8.957         c0.052,3.534-0.683,6.073-2.203,7.617c-1.521,1.539-3.606,1.915-6.254,1.132         C234.511,395.114,232.391,393.501,230.801,391.059z M236.957,380.645c-1.412-0.403-2.098,0.718-2.06,3.366         c0.039,2.648,0.764,4.177,2.176,4.587c1.412,0.411,2.098-0.71,2.059-3.365C239.094,382.578,238.369,381.049,236.957,380.645z         "/>
						</g>
						<g>
							<path style="fill:#412945;" d="M246.66,376.754c-0.078-0.253,1.087-0.04,3.499,0.64c2.411,0.68,3.618,1.094,3.62,1.239         l2.915,15.632l1.81-14.082c0.072-0.242,1.306-0.023,3.705,0.654c2.423,0.682,3.6,1.131,3.528,1.344l-4.972,19.948         c-0.171,0.242-1.656-0.052-4.455-0.878c-2.799-0.827-4.302-1.488-4.508-1.983L246.66,376.754z"/>
						</g>
						<g>
							<path style="fill:#412945;" d="M274.47,382.003c0.003,0.206-1.139-0.012-3.425-0.654c-2.286-0.641-3.43-1.05-3.433-1.226         l-0.092-6.34c-0.005-0.293,1.136-0.124,3.422,0.507c2.287,0.632,3.431,1.036,3.433,1.214L274.47,382.003z M274.824,406.319         c0.004,0.237-1.138,0.017-3.425-0.659c-2.287-0.674-3.431-1.114-3.435-1.321l-0.315-21.62         c-0.003-0.205,1.138,0.014,3.424,0.658c2.287,0.645,3.431,1.055,3.434,1.233L274.824,406.319z"/>
						</g>
						<g>
							<path style="fill:#412945;" d="M292.355,410.557c-1.558,0.637-3.575,0.59-6.049-0.141c-2.474-0.731-4.575-2.347-6.304-4.844         c-1.728-2.492-2.618-5.5-2.669-9.029c-0.052-3.528,0.725-6.137,2.331-7.829c1.605-1.695,3.657-2.193,6.156-1.488         c2.498,0.703,4.439,2.006,5.824,3.909c1.383,1.906,2.092,3.948,2.123,6.123c0.07,4.829-2.218,6.57-6.867,5.219l-2.586-0.752         c0.013,0.889,0.228,1.565,0.646,2.025c0.417,0.462,1.025,0.81,1.825,1.043c1.749,0.51,3.404,0.52,4.965,0.025         c0.024-0.022,0.14,0.22,0.347,0.725c0.618,1.455,0.934,2.624,0.947,3.503C293.055,409.925,292.825,410.427,292.355,410.557z          M287.481,396.302c-0.018-1.247-0.54-2.018-1.564-2.31c-0.475-0.136-0.879-0.081-1.211,0.163         c-0.332,0.245-0.494,0.693-0.484,1.345l0.02,1.378l2.024,0.582C287.091,397.699,287.496,397.312,287.481,396.302z"/>
						</g>
						<g>
							<path style="fill:#412945;" d="M297.09,405.125c2.046,2.054,3.656,3.253,4.83,3.596c0.75,0.218,1.12,0.014,1.111-0.616         c-0.007-0.449-0.665-1.223-1.975-2.318c-3.146-2.43-4.744-5.375-4.794-8.839c-0.032-2.209,0.618-3.705,1.95-4.488         c1.332-0.785,2.941-0.913,4.828-0.38c1.886,0.531,3.489,1.221,4.808,2.073c1.319,0.852,1.984,1.669,1.995,2.45         c0.01,0.663-0.246,1.458-0.767,2.39c-0.522,0.928-0.882,1.411-1.08,1.443c-1.085-1.028-2.253-1.719-3.502-2.076         c-0.674-0.192-1.007-0.004-1,0.566c0.005,0.359,0.141,0.705,0.407,1.035c0.266,0.33,0.751,0.783,1.456,1.358         c0.705,0.577,1.291,1.081,1.758,1.514c0.466,0.433,0.991,1.003,1.574,1.71c1.216,1.49,1.837,3.154,1.864,4.99         c0.035,2.409-0.599,4.162-1.902,5.264c-1.303,1.097-3.292,1.25-5.966,0.46c-1.775-0.524-3.392-1.359-4.851-2.503         c-1.46-1.145-2.199-2.343-2.217-3.596c-0.012-0.835,0.144-1.666,0.468-2.494C296.41,405.836,296.745,405.323,297.09,405.125z         "/>
						</g>
					</g>
				</g>
			</g>
		</g>
	</g>
</g>
<g>
</g>
<g>
</g>
<g>
</g>
<g>
</g>
<g>
</g>
<g>
</g>
<g>
</g>
<g>
</g>
<g>
</g>
<g>
</g>
<g>
</g>
<g>
</g>
<g>
</g>
<g>
</g>
<g>
</g>
</svg>
