<?xml version="1.0" encoding="UTF-8"?>
<!-- Generator: Adobe Illustrator 25.3.1, SVG Export Plug-In . SVG Version: 6.00 Build 0)  -->
<svg xmlns="http://www.w3.org/2000/svg" xmlns:xlink="http://www.w3.org/1999/xlink" version="1.1" id="Capa_1" x="0px" y="0px" viewBox="0 0 512 512" style="enable-background:new 0 0 512 512;" xml:space="preserve" width="512" height="512">
<g>
	<path style="fill:#FFFFFF;" d="M256.073,512c-47.204,0-92.686-12.333-131.527-35.664c-50.799-30.514-89.635-79.36-109.357-137.541   c-19.648-57.959-18.673-120.228,2.74-175.372c0.151-0.427,0.317-0.857,0.488-1.284c1.481-3.769,3.132-7.657,4.923-11.593   c0.225-0.538,0.457-1.055,0.707-1.568C65.692,58.472,156.705,0,255.968,0c2.246,0,4.471,0.026,6.719,0.1   c1.755,0.043,3.587,0.112,5.441,0.202c0.342,0.004,0.684,0.015,1.04,0.037c0.317,0.012,0.646,0.034,0.974,0.061   c5.081,0.261,10.267,0.705,15.426,1.323c0.481,0.041,0.965,0.096,1.449,0.156c3.184,0.388,6.136,0.807,8.998,1.276   c0.972,0.143,2.151,0.343,3.332,0.543c10.348,1.774,20.615,4.203,30.531,7.224c2.549,0.771,5.13,1.597,7.661,2.45   c75.505,25.703,137.449,88.944,161.7,165.059c7.985,25.058,11.894,51.344,11.617,78.125   c-0.947,92.04-52.073,179.823-130.253,223.636C343.47,501.001,300.408,512,256.073,512z"/>
	<g>
		<path style="fill:#564BB7;" d="M488.647,254.736c-0.003,22.496-3.069,44.98-9.239,66.61c-0.483,1.657-0.931,3.394-1.498,5.023    c-12.286,40.47-26.655,77.418-57.562,106.254c-8.816,8.225-18.244,15.79-28.204,22.589c-19.717,13.551-41.462,24.114-64.306,31.22    c-72.426,23.242-153.544,8.594-214.161-35.656c-2.631-1.921-3.3-7.272-5.851-9.303c-2.258-1.798-6.408-0.264-8.6-2.148    c-8.002-6.877-15.554-14.322-22.576-22.313c-0.069-0.023-0.092-0.069-0.092-0.092c-1.075-1.171-2.046-2.342-3.087-3.525    c-0.046-0.023-0.069-0.046-0.046-0.069c-7.875-9.049-15.015-18.709-21.382-28.87c-3.735-5.778-7.113-11.791-10.276-17.903h-0.023    c-88.156-170.4,48.263-375.013,242.641-352.75c66.452,7.446,128.311,44.304,167.25,98.474c2.619,3.702,4.377,9.68,6.773,13.541    c3.246,5.024,7.195,7.944,10.044,13.198c11.054,20.388,19.095,42.39,23.906,65.082    C495.884,220.727,488.675,237.728,488.647,254.736z"/>
		<g>
			<path style="opacity:0.26;fill:#1C0231;" d="M381.108,47.14c-16.755,11.942-31.709,27.677-40.736,46.265v0.023     c-19.872,38.222-0.347,81.034-4.055,121.377l-0.023,0.023c-4.137,41.462-36.196,78.22-76.195,89.282     c-28.328,8.133-59.489-1.763-87.116,9.7c-0.023,0-0.046,0.023-0.069,0.023c-0.115,0.046-0.207,0.092-0.299,0.138h-0.023     c-13.316,5.726-23.814,16.077-31.588,28.455c-20.912,33.406-17.959,74.117-22.257,111.839c-1.544-1.083-3.087-2.166-4.585-3.272     v-0.023c-10.83-7.89-21.013-16.71-30.344-26.335l-0.046-0.023c-2.401-2.48-4.828-5.021-7.119-7.603     c-0.069-0.023-0.092-0.069-0.092-0.092c-1.075-1.171-2.046-2.342-3.087-3.525c-0.046-0.023-0.069-0.046-0.046-0.069     c-7.159-8.222-13.704-16.944-19.607-26.105c-0.651-0.89-1.214-1.814-1.774-2.765c-3.735-5.778-7.113-11.791-10.276-17.903h-0.023     C7.441,301.578,5.776,219.048,36.699,153.242C93.725,25.07,258.167-29.085,381.108,47.14z"/>
			<path style="opacity:0.26;fill:#1C0231;" d="M492.647,254.736c0.152,52.847-17.51,105.534-49.744,147.436     c-8.452,11.138-12.897,21.521-23.163,31.015c-8.629,7.981-17.839,15.333-27.526,21.979c-0.023,0.023-0.046,0.046-0.069,0.046     c-19.719,13.549-41.453,24.12-64.306,31.22c-52.709,16.621-111.676,14.103-162.505-6.866     c1.628-57.955,58.266-103.673,106.031-128.406c26.156-12.861,54.465-21.025,80.297-34.537     c44.976-24.07,102.526-75.836,89.789-132.229v-0.023c-5.595-26.341-26.799-34.464-43.363-52.117     c-18.793-21.419-19.017-54.055-8.041-79.421c23.829,15.962,44.752,36.226,61.587,59.444c2.621,3.701,4.273,8.452,6.673,12.313     c0.104,0.113,0.177,0.238,0.23,0.369c3.116,4.843,7.049,8.799,9.797,13.854c11.129,20.473,19.216,42.571,24.041,65.365     C495.892,220.78,492.677,237.752,492.647,254.736z"/>
			<path style="opacity:0.25;fill:#1C0231;" d="M381.662,47.463c-0.461,0.069-0.922,0.161-1.36,0.253     c-30.031,5.517-60.058,0.357-90.18-0.784c-3.979-0.163-7.954-0.225-11.935-0.161c-1.382,0.023-2.765,0.046-4.17,0.092     c-0.23,0-0.461,0.023-0.691,0.023c-62.795,2.319-126.289,36.702-155.109,93.775c-2.586,5.044-4.865,10.238-6.935,15.506     c-0.115,0.253-0.23,0.507-0.299,0.76c-10.721,27.36-15.681,57.418-21.266,86.448c-0.046,0.184-0.069,0.346-0.115,0.507     c-2.814,14.492-5.724,28.637-10.023,42.855c-8.058,27.093-20.516,54.293-40.667,74.145c-0.682-1.441-1.371-2.856-2.004-4.308     c-0.046-0.069-0.092-0.161-0.115-0.231c-0.419-0.862-0.782-1.69-1.152-2.557c-2.791-6.284-5.385-12.685-7.603-19.193     c-1.048-2.874-1.969-5.813-2.857-8.732c-0.461-1.429-0.875-2.857-1.267-4.309c-0.977-3.269-1.792-6.522-2.581-9.838     c-0.092-0.276-0.161-0.553-0.207-0.83c-2.288-9.55-3.941-19.305-5.023-29.123c-0.161-1.267-0.276-2.557-0.392-3.825     c-0.138-1.267-0.253-2.58-0.346-3.871c0-0.092-0.023-0.207-0.023-0.299c-0.115-1.382-0.208-2.765-0.277-4.147     c-2.259-35.34,3.633-71.603,16.013-103.106c1.553-4.111,3.315-8.167,5.115-12.142c0.161-0.392,0.323-0.76,0.507-1.129     C76.093,66.482,167.271,7.136,267.91,12.441c0.23,0,0.461,0,0.714,0.023c0.23,0,0.484,0.023,0.714,0.046h0.023     c5.046,0.253,10.069,0.691,15.022,1.29c31.67,3.643,62.646,13.829,90.227,29.538c2.189,1.221,4.354,2.488,6.497,3.802     C381.293,47.233,381.477,47.348,381.662,47.463z"/>
			<path style="opacity:0.25;fill:#1C0231;" d="M493.647,254.736c0.152,52.847-17.51,105.534-49.744,147.436     c-8.457,11.144-13.907,21.531-24.179,31.029c-8.625,7.975-17.829,15.323-27.51,21.964c-0.023,0.023-0.046,0.046-0.069,0.046     c-19.719,13.549-41.453,24.12-64.306,31.22c-39.968,12.627-84.412,14.257-124.972,4.954     c-2.742-32.303,7.557-65.527,31.612-86.955c21.746-19.327,50.921-27.368,78.914-35.16c20.679-5.753,41.494-11.73,61.518-19.469     c61.17-21.744,125.919-75.981,115.963-147.23c-4.016-27.224-19.049-52.906-43.846-65.204     c-14.602-7.221-31.747-9.619-44.791-19.561c-20.28-15.518-24.76-45.001-17.603-68.476c26.095,16.417,48.9,38.002,67.002,62.947     c2.621,3.701,2.273,8.452,4.673,12.313c0.104,0.113,0.177,0.238,0.23,0.369c3.151,4.898,9.115,8.911,11.89,14.026     c11.006,20.288,19.027,42.166,23.851,64.733C495.858,220.466,493.677,237.595,493.647,254.736z"/>
		</g>
		<g>
			<g>
				<path style="fill:#95ABD3;" d="M105.521,264.228v-0.023c0-0.208,0-0.415-0.023-0.622c-0.046-1.198-0.115-2.373-0.207-3.571      c-0.046-0.76-0.115-1.521-0.185-2.258c-0.622-6.866-1.774-13.548-3.41-20.045v-0.023c-1.751-7.119-4.101-14.008-6.958-20.598      c-3.456-7.972-7.65-15.552-12.511-22.603c-3.618-5.207-7.534-10.138-11.797-14.746c-9.746-10.576-21.128-19.515-33.731-26.497      c-0.184,0.369-0.345,0.737-0.507,1.129c12.442,6.889,23.686,15.76,33.34,26.174v0.023c4.239,4.608,8.156,9.493,11.705,14.631      c5.161,7.488,9.562,15.552,13.087,24.077c2.58,6.083,4.654,12.419,6.267,18.939c1.659,6.705,2.811,13.617,3.387,20.714v0.046      c0.046,0.369,0.069,0.737,0.115,1.129c0.115,1.544,0.207,3.087,0.253,4.608c0.023,0.184,0.023,0.346,0.023,0.507      c0.346,9.839-0.392,19.515-2.143,28.847c-0.253,1.382-0.53,2.742-0.853,4.101c-0.991,4.585-2.235,9.101-3.732,13.502      c-0.115,0.438-0.253,0.875-0.415,1.313c-0.553,1.613-1.129,3.203-1.751,4.769c-0.991,2.535-2.051,4.977-3.18,7.442v0.023      c-5.645,12.211-13.11,23.432-22.096,33.317c-1.313,1.498-2.65,2.903-4.032,4.308c-0.069,0.046-0.138,0.115-0.207,0.208      c-0.76,0.737-1.498,1.497-2.281,2.189c-4.839,4.677-10.023,8.963-15.552,12.834c0.184,0.346,0.415,0.714,0.622,1.06h0.023      c3.295-2.327,6.474-4.792,9.539-7.396c2.028-1.682,3.986-3.456,5.898-5.276c5.253-5,10.069-10.391,14.423-16.175      c5.737-7.557,10.668-15.713,14.654-24.377c1.198-2.488,2.281-5.023,3.249-7.58c0.438-1.083,0.853-2.166,1.244-3.249      c0.323-0.875,0.622-1.751,0.922-2.627c1.474-4.355,2.742-8.824,3.756-13.363c0-0.023,0-0.046,0.023-0.069      c0.299-1.382,0.599-2.811,0.853-4.216v-0.023c0.023-0.069,0.023-0.115,0.046-0.185      C105.221,284.78,105.982,274.596,105.521,264.228z"/>
			</g>
			<g>
				<path style="fill:#95ABD3;" d="M92.134,260.979c-0.184-2.419-0.438-4.838-0.76-7.234v-0.046      c-0.461-3.318-1.037-6.59-1.774-9.815c0-0.138-0.046-0.276-0.092-0.415c-7.557-33.708-29.215-61.656-58.039-77.992      c-0.138,0.346-0.277,0.691-0.392,1.037c28.547,16.221,49.975,44.007,57.417,77.439c0.207,0.899,0.392,1.82,0.553,2.742      c0.783,3.848,1.359,7.788,1.751,11.774c0,0.023,0,0.023,0,0.046c0.115,0.853,0.184,1.705,0.253,2.558      c0.392,5.253,0.415,10.46,0.138,15.598c-0.023,0.276-0.023,0.576-0.046,0.853c-0.138,2.304-0.346,4.608-0.622,6.912      c-0.484,3.848-1.152,7.626-1.981,11.359v0.023c-0.576,2.558-1.221,5.069-1.958,7.557c-0.207,0.691-0.415,1.405-0.645,2.097      c-0.369,1.152-0.737,2.304-1.152,3.456c-0.276,0.852-0.599,1.705-0.921,2.535c-0.231,0.645-0.484,1.29-0.737,1.935      c-0.53,1.382-1.106,2.742-1.705,4.101c-1.935,4.424-4.124,8.733-6.59,12.857c-2.028,3.433-4.24,6.774-6.59,9.999      c-0.461,0.576-0.899,1.175-1.336,1.774c-2.373,3.064-4.885,6.036-7.511,8.87c-0.346,0.369-0.668,0.737-0.991,1.06      c-0.092,0.092-0.161,0.184-0.253,0.253c-3.364,3.502-6.912,6.797-10.691,9.884h-0.023c-0.53,0.461-1.014,0.875-1.567,1.313      h-0.046c-1.313,1.037-2.673,2.051-4.055,3.041h-0.023c0.161,0.323,0.346,0.645,0.507,0.968h0.023      c1.843-1.313,3.64-2.673,5.391-4.101c0.576-0.461,1.152-0.922,1.728-1.406c3.226-2.719,6.336-5.599,9.239-8.64      c0.184-0.161,0.346-0.323,0.507-0.484c0.369-0.392,0.737-0.783,1.106-1.175c2.35-2.557,4.585-5.161,6.705-7.88      c0.507-0.645,0.968-1.267,1.475-1.913v-0.023c2.673-3.548,5.138-7.258,7.419-11.105c2.396-4.078,4.562-8.295,6.474-12.649      v-0.023c0.622-1.406,1.221-2.788,1.797-4.217c0.23-0.645,0.484-1.267,0.714-1.912c0.553-1.475,1.083-2.949,1.567-4.447      c0.392-1.152,0.76-2.304,1.106-3.479c0.046-0.138,0.092-0.299,0.138-0.438v-0.023c0.875-2.995,1.636-6.037,2.281-9.101      c0.622-2.949,1.129-5.945,1.521-8.963c0.392-2.995,0.691-6.037,0.83-9.124c0.046-0.23,0.046-0.484,0.046-0.737      C92.572,270.841,92.503,265.933,92.134,260.979z"/>
			</g>
			<g>
				<path style="fill:#95ABD3;" d="M75.484,177.807c5.203-0.389,9.735,3.514,10.124,8.717c0.389,5.203-3.514,9.735-8.717,10.124      c-5.203,0.389-9.735-3.514-10.124-8.717S70.281,178.196,75.484,177.807z"/>
			</g>
			<g>
				<path style="fill:#95ABD3;" d="M78.425,312.521c5.203-0.388,9.736,3.514,10.124,8.717c0.389,5.203-3.514,9.735-8.717,10.124      c-5.203,0.389-9.735-3.514-10.124-8.717C69.32,317.442,73.222,312.91,78.425,312.521z"/>
			</g>
		</g>
		<g>
			<g>
				
					<ellipse transform="matrix(0.9229 -0.385 0.385 0.9229 -17.2917 143.6424)" style="fill:#95ABD3;" cx="350.076" cy="115.004" rx="23.668" ry="23.668"/>
				<path style="fill:#95ABD3;" d="M349.735,162.995c-26.524,0-48.104-21.581-48.104-48.104c0-26.526,21.58-48.106,48.104-48.106      c26.526,0,48.105,21.581,48.105,48.106C397.84,141.414,376.26,162.995,349.735,162.995z M349.735,69.461      c-25.05,0-45.43,20.379-45.43,45.43c0,25.049,20.38,45.428,45.43,45.428s45.431-20.379,45.431-45.428      C395.166,89.839,374.785,69.461,349.735,69.461z"/>
			</g>
			<g>
				<g>
					<path style="fill:#9F6DA4;" d="M497.647,254.736c0.255,67.662-28.634,133.216-78.153,178.679       c-40.251-0.393-77.927-20.904-100.434-52.533v-0.023c-19.87-27.306-27.739-63.245-21.404-96.378       c15.495-88.236,120.832-132.315,194.577-81.01C495.84,220.332,497.642,237.283,497.647,254.736z"/>
					<g style="opacity:0.37;">
						<path style="fill:#F3C7D1;" d="M465.053,233.483c-9.659,25.136-20.819,49.666-33.453,73.433        c-12.186,22.977-26.32,45.876-47.402,61.141c-1.105,0.816-2.368,1.632-3.737,1.474c-1.816-0.211-2.974-2.027-3.659-3.738        c-6.922-17.003,5.317-35.822,4.422-54.167c-4.527-1.526-8.87,2.579-11.712,6.396c-16.687,22.372-26.478,49.481-43.928,71.169        c-16.845-19.714-27.662-44.744-29.715-72.196c7.949-14.634,17.187-28.82,26.452-41.849c5.58-7.843,11.712-15.634,20.03-20.503        c3.343-1.921,8.317-3.027,10.475,0.184c0.763,1.105,0.947,2.5,1.026,3.843c0.868,14.081-7.817,28.241-3.79,41.743        c0.316,1.132,0.79,2.316,1.764,2.948c2.421,1.632,5.395-0.948,7.106-3.316c19.213-26.899,32.137-57.693,45.06-88.119        c4.317-10.186,8.738-20.477,14.002-30.215c1.132-0.026,2.264-0.053,3.422-0.053c6.948,0,13.792,0.553,20.424,1.658        c-6.185,17.608-17.634,34.163-20.109,52.824c-0.605,4.606,1.342,11.133,5.896,10.265c1.395-0.263,2.527-1.263,3.501-2.263        c11.002-11.212,14.607-30.268,29.268-35.927c1.527-0.579,3.264-0.974,4.79-0.395c2.132,0.79,3.158,3.237,3.553,5.474        C469.949,220.112,467.527,227.008,465.053,233.483z"/>
						<path style="fill:#F3C7D1;" d="M488.224,282.246c-2.857,9.769-4.977,20.299-1.936,29.976c0.346,1.083,0.784,2.258,1.774,2.834        c0.622,0.392,1.29,0.461,1.981,0.323c-4.47,17.465-10.852,34.192-18.893,49.929c-0.461-0.208-0.968-0.299-1.544-0.276        c-1.221,0.046-2.327,0.737-3.295,1.452c-6.336,4.539-10.806,11.244-14.562,18.087c-5.138,9.377-9.17,19.331-13.271,29.238        c-5.945,6.889-12.303,13.433-18.985,19.608c-4.101-0.046-8.179-0.323-12.189-0.76c1.705-14.723,6.659-28.916,12.212-42.671        c7.949-19.654,17.165-38.754,26.635-57.717c9.47-18.962,19.216-37.855,28.178-57.094        c5.184-11.106,10.092-22.303,14.539-33.731c1.728-4.447,3.387-8.94,4.977-13.456c0.576-1.659,1.129-3.571,1.659-5.599        c1.429,10.576,2.143,21.382,2.143,32.349v0.622C494.122,264.205,490.873,273.122,488.224,282.246z"/>
					</g>
				</g>
				<g>
					<g>
						<path style="fill:#FF5382;" d="M248.452,98.907c0,5.53-0.76,10.898-2.166,15.99c-6.981,25.368-30.229,44.008-57.832,44.008        c-0.484,0-0.968,0-1.452-0.023c-12.511-0.3-24.054-4.401-33.524-11.244c-1.567-1.106-3.087-2.304-4.516-3.594        c-3.364-2.926-6.382-6.221-9.009-9.839c-0.369-0.484-0.737-0.991-1.06-1.498c-4.908-7.142-8.295-15.414-9.677-24.331        c-0.207-1.244-0.369-2.465-0.484-3.732c-0.184-1.889-0.276-3.802-0.276-5.737c0-7.88,1.521-15.391,4.309-22.28        c8.801-22.096,30.436-37.717,55.689-37.717c5.484,0,10.783,0.737,15.829,2.12c4.217,1.129,8.226,2.719,12.004,4.723        c4.355,2.281,8.364,5.069,12.004,8.318c2.673,2.35,5.138,4.977,7.35,7.811c2.258,2.834,4.24,5.898,5.945,9.147        c0.968,1.797,1.82,3.686,2.558,5.599c2.512,6.175,3.986,12.88,4.263,19.884C248.429,97.294,248.452,98.1,248.452,98.907z"/>
						<path style="fill:#FDBC08;" d="M216.288,45.752c-30.943,16.658-59.652,37.303-87.554,58.892        c-0.184-1.889-0.276-3.802-0.276-5.737c0-7.88,1.521-15.391,4.309-22.28c24.008-11.52,47.855-23.386,71.518-35.598        C208.5,42.158,212.509,43.748,216.288,45.752z"/>
						<path style="fill:#FDBC08;" d="M235.642,61.881c-33.04,22.557-65.873,45.436-96.747,70.826        c-4.908-7.142-8.295-15.414-9.677-24.331c32.349-19.285,65.412-37.395,99.074-54.306        C230.965,56.42,233.43,59.047,235.642,61.881z"/>
						<path style="fill:#FDBC08;" d="M244.144,76.627c-33.224,20.276-65.043,42.809-95.18,67.417        c-3.364-2.926-6.382-6.221-9.009-9.839c33.086-22.28,67.002-43.362,101.632-63.177        C242.554,72.825,243.406,74.714,244.144,76.627z"/>
						<path style="fill:#FDBC08;" d="M248.452,98.907c0,5.53-0.76,10.898-2.166,15.99c-20.299,13.894-40.09,28.547-59.283,43.985        c-12.511-0.3-24.054-4.401-33.524-11.244c31.658-17.027,63.292-34.077,94.927-51.127        C248.429,97.294,248.452,98.1,248.452,98.907z"/>
					</g>
					<g>
						<path style="fill:#95ABD3;" d="M274.339,422.448c0,5.968-1.106,11.658-3.133,16.912        c-4.608,12.004-14.032,21.635-25.875,26.566c-5.553,2.327-11.658,3.595-18.064,3.595c-25.99,0-47.049-21.082-47.049-47.072        c0-14.516,6.567-27.51,16.912-36.127c3.341-2.811,7.12-5.161,11.175-6.912c5.806-2.58,12.212-4.009,18.962-4.009        C253.279,375.399,274.339,396.458,274.339,422.448z"/>
						<path style="fill:#F3C7D1;" d="M245.33,465.925c-5.553,2.327-11.658,3.595-18.064,3.595c-25.99,0-47.049-21.082-47.049-47.072        c0-14.516,6.567-27.51,16.912-36.127c0.023,0.369,0.023,0.737,0.023,1.083c-0.138,11.083-7.488,21.382-6.52,32.441        c0.115,1.59,0.53,3.341,1.843,4.286c2.558,1.82,5.898-0.737,7.949-3.11c3.825-4.332,7.788-8.778,12.949-11.359        c5.161-2.604,11.866-3.018,16.451,0.53c5.668,4.424,5.991,13.225,3.041,19.792c-2.926,6.589-8.318,11.682-12.88,17.257        c-1.935,2.373-3.802,5-4.147,8.041c-0.369,3.064,1.313,6.543,4.309,7.212c2.696,0.599,5.276-1.175,7.88-2.143        C234.179,458.045,241.137,460.879,245.33,465.925z"/>
						<path style="fill:#F3C7D1;" d="M274.339,422.448c0,5.968-1.106,11.658-3.133,16.912c-4.424,0.991-8.94,0.691-12.972-1.544        c-8.295-4.631-10.829-16.359-6.866-24.976c1.981-4.285,5.345-8.318,5.046-13.018c-0.484-7.534-10-11.152-17.418-9.838        c-7.396,1.336-14.078,5.668-21.543,6.636c-1.544,0.207-3.226,0.253-4.562-0.553c-1.359-0.783-2.143-2.281-2.719-3.756        c-1.82-4.562-2.373-8.87-1.866-12.903c5.806-2.58,12.212-4.009,18.962-4.009C253.279,375.399,274.339,396.458,274.339,422.448        z"/>
					</g>
				</g>
			</g>
		</g>
		<g>
			<g>
				<path style="opacity:0.24;fill:#F3C7D1;" d="M145.312,322.244c-1.542,4.255-4.802,13.153-6.382,17.442v0.023      c-5.552,15.25-31.628,86.627-37.095,101.632c-8.948-7.488-17.398-15.63-25.183-24.331c-0.069-0.023-0.092-0.069-0.092-0.092      c-1.075-1.171-2.046-2.342-3.087-3.525c-0.046-0.023-0.069-0.046-0.046-0.069c-9.242-10.631-17.462-22.09-24.653-34.192h-0.023      c-2.261-3.813-4.451-7.664-6.474-11.612h-0.023c-2.722-5.222-5.259-10.521-7.58-15.921      c20.867-17.753,46.891-39.954,67.555-57.532l1.106,0.714v0.023L145.312,322.244z"/>
				<g>
					<g>
						<g>
							<polygon style="fill:#F3C7D1;" points="144.722,331.679 139.93,340.803 139.492,341.609 132.948,354.028 72.375,311.08          76.315,307.371 92.95,291.657 102.189,298.8        "/>
							<polygon style="fill:#1C0231;" points="141.773,342.853 139.492,341.609 76.315,307.371 92.95,291.657 102.189,298.8          139.93,340.803        "/>
						</g>
						<path style="fill:#F3C7D1;" d="M228.857,248.123l-1.406,1.659l-82.739,97.185l-5.783-4.331l-6.382-4.792l-49.33-37.003        l-9.078-6.82l98.821-95.895c0.991-0.807,1.981-1.59,2.972-2.35c44.053-33.962,61.183-9.457,61.183-9.457        C238.89,233.988,228.857,248.123,228.857,248.123z"/>
					</g>
					<path style="fill:#9F6DA4;" d="M228.857,248.123l-1.406,1.659c-4.101-6.636-8.548-13.087-13.386-19.193       c-7.051-8.894-14.953-17.027-23.893-24.054c-3.71-2.926-9.677-6.474-14.239-10.76c44.053-33.962,82.324-30.598,82.324-30.598       C260.03,212.848,228.857,248.123,228.857,248.123z"/>
					<g>
						<polygon style="fill:#F3C7D1;" points="186.491,294.018 204.139,307.548 176.49,386.965 139.429,361.669       "/>
						<polygon style="fill:#F3C7D1;" points="118.177,253.249 102.838,237.149 26.833,273.13 55.946,307.274       "/>
					</g>
				</g>
			</g>
			
				<ellipse transform="matrix(0.6981 -0.716 0.716 0.6981 -134.4326 195.1158)" style="fill:#1C0231;" cx="164.136" cy="256.957" rx="20.001" ry="20.001"/>
		</g>
		<polygon style="fill:#FDBC08;" points="293.125,292.163 272.267,281.247 278.521,303.944 268.064,282.844 259.796,304.891     263.741,281.673 244.086,294.648 260.924,278.189 237.4,277.132 260.69,273.699 242.288,259.017 263.146,269.933 256.892,247.236     267.349,268.336 275.617,246.289 271.672,269.507 291.327,256.532 274.488,272.991 298.013,274.048 274.723,277.481   "/>
		<g>
			<polygon style="fill:#FDBC08;" points="114.605,158.822 93.747,147.906 100,170.603 89.543,149.503 81.275,171.55 85.22,148.332      65.566,161.307 82.404,144.849 58.879,143.791 82.17,140.358 63.767,125.676 84.625,136.592 78.372,113.896 88.829,134.995      97.097,112.949 93.152,136.166 112.806,123.191 95.968,139.65 119.493,140.708 96.202,144.14    "/>
			<path style="fill:#FDBC08;" d="M114.747,438.317l16.843-16.451l-19.654,12.972l3.94-23.225l-8.248,22.05l-10.46-21.105     l6.244,22.718l-19.138-10.032c0.732,0.754,1.469,1.504,2.211,2.247l14.462,11.541l-1.744,0.258     c4.681,4.024,9.517,7.853,14.49,11.484l-1.156-4.184l20.852,10.898L115,442.81l23.271-3.433L114.747,438.317z"/>
			<path style="fill:#FDBC08;" d="M295.144,47.14l8.801,7.028l-13.824-7.235l-7.027-3.686l0.968,3.525l5.299,19.17l-9.516-19.193     l-0.945-1.912l-0.714,1.935l-7.557,20.114l3.387-20.022l0.553-3.203l-5.184,3.41l-14.469,9.562l9.423-9.193l7.419-7.258     l-23.525-1.06l23.294-3.433l-18.41-14.677l20.852,10.921l-5.346-19.469c0.23,0,0.484,0.023,0.714,0.046h0.023l8.824,17.81     l6.198-16.52c0.369,0.023,0.737,0.069,1.106,0.115l-2.996,17.58l19.654-12.972l-16.82,16.451l23.524,1.06l-23.294,3.433     L295.144,47.14z"/>
			<path style="fill:#FDBC08;" d="M470.69,159.624l-3.802-7.695l-6.659-13.41l-2.12,5.668l-6.152,16.382l3.134-18.501l0.806-4.723     l-4.032,2.673l-15.621,10.299l12.396-12.119l4.447-4.331l-16.082-0.714l-7.442-0.346l4.631-0.691l18.663-2.742l-18.409-14.677     l20.875,10.921l-3.663-13.294c1.244,1.728,2.488,3.479,3.686,5.253c0.806,1.175,1.613,2.373,2.396,3.571     c0.346,0.507,0.691,1.037,1.014,1.544c0.161,0.23,0.3,0.484,0.461,0.714l0.323,0.507c1.774,2.742,3.479,5.553,5.115,8.387     c0.945,1.613,1.866,3.248,2.765,4.885c0.069,0.092,0.138,0.207,0.184,0.299c0.276,0.507,0.576,1.037,0.853,1.544l-0.046-0.023     l-3.963-2.074l4.839,17.603L470.69,159.624z"/>
			<path style="fill:#FDBC08;" d="M343.184,476.132l-20.875-10.898l5.829,21.105c-0.115,0.046-0.207,0.092-0.299,0.092     l-9.723-19.607l-8.272,22.05l3.94-23.225l-19.654,12.972l16.843-16.451l-23.524-1.06l23.294-3.433L292.333,443l20.851,10.921     l-6.244-22.718l10.46,21.105l8.272-22.05l-3.94,23.225l19.653-12.972l-16.843,16.451l23.525,1.06l-23.294,3.433L343.184,476.132z     "/>
		</g>
		<g>
			<g>
				<g>
					<g>
						<polygon style="fill:#FFFFFF;" points="395.053,395.495 380.328,400.203 375.619,414.928 370.91,400.203 356.185,395.495         370.91,390.786 375.619,376.061 380.328,390.786       "/>
					</g>
				</g>
			</g>
			<g>
				<g>
					<g>
						<g>
							<polygon style="fill:#FFFFFF;" points="314.362,185.973 299.637,190.682 294.928,205.407 290.219,190.682 275.494,185.973          290.219,181.264 294.928,166.539 299.637,181.264        "/>
						</g>
					</g>
					<circle style="fill:#FFFFFF;" cx="331.793" cy="186.365" r="5.294"/>
					<path style="fill:#FFFFFF;" d="M277.084,209.896c0,2.924-2.37,5.294-5.294,5.294s-5.294-2.37-5.294-5.294       c0-2.924,2.37-5.294,5.294-5.294S277.084,206.972,277.084,209.896z"/>
				</g>
				<g>
					<g>
						<g>
							<polygon style="fill:#FFFFFF;" points="154.941,184.797 140.216,189.505 135.508,204.23 130.799,189.505 116.074,184.797          130.799,180.087 135.508,165.363 140.216,180.087        "/>
						</g>
					</g>
				</g>
				<g>
					<g>
						<g>
							<polygon style="fill:#FFFFFF;" points="117.075,376.082 106.155,379.574 102.663,390.494 99.17,379.574 88.25,376.082          99.17,372.589 102.663,361.669 106.155,372.589        "/>
						</g>
					</g>
				</g>
				<path style="fill:#FFFFFF;" d="M280.614,89.301c0,2.599-2.107,4.706-4.706,4.706s-4.706-2.107-4.706-4.706      s2.107-4.706,4.706-4.706S280.614,86.702,280.614,89.301z"/>
				<path style="fill:#FFFFFF;" d="M331.205,38.71c0,2.599-2.107,4.706-4.706,4.706s-4.706-2.107-4.706-4.706      c0-2.599,2.107-4.706,4.706-4.706S331.205,36.111,331.205,38.71z"/>
				<path style="fill:#FFFFFF;" d="M351.794,52.24c0,2.599-2.107,4.706-4.706,4.706s-4.706-2.107-4.706-4.706      c0-2.599,2.107-4.706,4.706-4.706S351.794,49.641,351.794,52.24z"/>
				<path style="fill:#FFFFFF;" d="M412.386,159.305c0,2.599-2.107,4.706-4.706,4.706c-2.599,0-4.706-2.107-4.706-4.706      c0-2.599,2.107-4.706,4.706-4.706C410.279,154.599,412.386,156.706,412.386,159.305z"/>
				<g>
					<path style="fill:#FFFFFF;" d="M255.906,330.491c0,5.198-4.214,9.412-9.412,9.412c-5.198,0-9.412-4.214-9.412-9.412       c0-5.198,4.214-9.412,9.412-9.412C251.692,321.079,255.906,325.293,255.906,330.491z"/>
					<path style="fill:#FFFFFF;" d="M218.845,342.06c2.708,0,4.902,2.195,4.902,4.902c0,2.708-2.195,4.902-4.902,4.902       c-2.707,0-4.902-2.195-4.902-4.902C213.943,344.255,216.138,342.06,218.845,342.06z"/>
					<path style="fill:#FFFFFF;" d="M260.613,342.06c2.707,0,4.902,2.195,4.902,4.902c0,2.708-2.195,4.902-4.902,4.902       c-2.708,0-4.902-2.195-4.902-4.902C255.71,344.255,257.905,342.06,260.613,342.06z"/>
				</g>
			</g>
		</g>
	</g>
</g>















</svg>
