<svg id="Capa_1" enable-background="new 0 0 512.002 512.002" height="512" viewBox="0 0 512.002 512.002" width="512" xmlns="http://www.w3.org/2000/svg"><g><path d="m391.001 154.999h-15c-4.143 0-7.5 3.358-7.5 7.5s3.357 7.5 7.5 7.5h15c4.136 0 7.5 3.364 7.5 7.5s-3.364 7.5-7.5 7.5h-52.642c-1.248-11.234-10.797-20-22.358-20 4.693-6.274 7.5-14.073 7.5-22.516 0-3.861-.59-7.677-1.752-11.341l-15.694-49.532c-1.638-5.089-4.022-9.844-7.026-14.135l9.095-27.63c1.164-3.535-.441-7.389-3.77-9.053l-28.912-14.456-14.137-14.139c-2.93-2.929-7.678-2.929-10.607 0l-14.139 14.139-28.912 14.456c-3.328 1.664-4.933 5.518-3.77 9.053l9.095 27.631c-3.004 4.292-5.387 9.046-7.008 14.14-.017-.005-15.71 49.525-15.71 49.525-1.162 3.666-1.752 7.482-1.752 11.343 0 8.443 2.807 16.242 7.533 22.517-11.594-.001-21.143 8.765-22.391 19.999h-52.642c-4.136 0-7.5-3.364-7.5-7.5s3.364-7.5 7.5-7.5h15c4.143 0 7.5-3.358 7.5-7.5s-3.357-7.5-7.5-7.5h-15c-12.406 0-22.5 10.093-22.5 22.5v130c0 28.949 23.552 52.5 52.5 52.5 4.143 0 7.5-3.358 7.5-7.5v-152.5h15v7.5c0 12.407 10.094 22.5 22.5 22.5 2.629 0 5.153-.458 7.5-1.29v31.047c-8.43 10.405-13.503 22.875-14.717 36.241l-15.252 167.823c-.191 2.099.51 4.18 1.931 5.736s3.431 2.442 5.538 2.442h37.5v17.094l-24.872 8.291c-3.93 1.31-6.053 5.558-4.743 9.487 1.048 3.143 3.974 5.13 7.114 5.13.786 0 1.586-.125 2.373-.387l30-10c3.063-1.021 5.128-3.887 5.128-7.115v-22.499h45v22.5c0 3.228 2.065 6.094 5.128 7.115l30 10c.787.262 1.587.387 2.373.387 3.14 0 6.066-1.988 7.114-5.13 1.31-3.929-.813-8.177-4.743-9.487l-24.872-8.291v-17.094h37.5c2.107 0 4.117-.886 5.538-2.442s2.122-3.638 1.931-5.736l-15.251-167.823c-1.215-13.368-6.289-25.837-14.718-36.241v-31.048c2.347.833 4.871 1.29 7.5 1.29 12.406 0 22.5-10.093 22.5-22.5v-7.5h15v152.5c0 4.142 3.357 7.5 7.5 7.5 28.948 0 52.5-23.551 52.5-52.5v-130c-.001-12.407-10.095-22.501-22.501-22.501zm-247.5 189.247c-17.096-3.485-30-18.637-30-36.747v-108.79c2.347.833 4.871 1.29 7.5 1.29h22.5zm100.854-315.038c.721-.36 1.379-.834 1.949-1.405l9.696-9.697 9.696 9.697c.57.57 1.229 1.044 1.949 1.405l24.205 12.102-4.615 14.021c-8.735-6.487-19.543-10.331-31.234-10.331s-22.5 3.845-31.235 10.332l-4.615-14.021zm48.167 59.813c-13.879-3.222-24.822-14.164-28.043-28.043 13.879 3.221 24.822 14.164 28.043 28.043zm-45-28.043c-3.221 13.879-14.164 24.821-28.043 28.043 3.222-13.879 14.164-24.822 28.043-28.043zm8.479 18.54c7.86 13.041 21.23 22.4 36.859 24.844-3.234 17.411-18.526 30.638-36.859 30.638s-33.625-13.227-36.859-30.637c15.629-2.445 28.998-11.804 36.859-24.845zm-60 135.482c-4.136 0-7.5-3.364-7.5-7.5v-20c0-4.136 3.364-7.5 7.5-7.5s7.5 3.364 7.5 7.5v20c0 4.135-3.364 7.5-7.5 7.5zm-6.728 241.342 14.448-158.987c.912-10.042 4.64-19.43 10.811-27.355h18.968v134.5c.001 26.133-19.195 47.862-44.227 51.842zm104.228-246.342v45h-75v-45zm-75-15v-2.5c0-6.893 5.607-12.5 12.5-12.5h50c6.893 0 12.5 5.607 12.5 12.5v2.5zm4.861 262c15.319-12.384 25.139-31.313 25.139-52.5v-134.5h15v134.5c0 21.187 9.82 40.115 25.139 52.5zm99.366-.658c-25.031-3.98-44.227-25.708-44.227-51.842v-134.5h18.968c6.171 7.925 9.899 17.313 10.811 27.355zm-36.727-291.358h-60c-12.406 0-22.5-10.093-22.5-22.5 0-2.32.354-4.611 1.051-6.811l4.601-14.522c8.666 17.096 26.405 28.849 46.848 28.849s38.181-11.752 46.848-28.849l4.601 14.524c.697 2.198 1.051 4.489 1.051 6.809 0 12.407-10.094 22.5-22.5 22.5zm37.5 42.516c0 4.136-3.364 7.5-7.5 7.5s-7.5-3.364-7.5-7.5v-20c0-4.136 3.364-7.5 7.5-7.5s7.5 3.364 7.5 7.5zm75 100c0 18.109-12.904 33.262-30 36.747v-144.248h22.5c2.629 0 5.153-.458 7.5-1.29z"/></g></svg>