<?xml version="1.0" encoding="UTF-8"?>
<!-- Generator: Adobe Illustrator 25.4.1, SVG Export Plug-In . SVG Version: 6.00 Build 0)  -->
<svg xmlns="http://www.w3.org/2000/svg" xmlns:xlink="http://www.w3.org/1999/xlink" version="1.1" id="Capa_1" x="0px" y="0px" viewBox="0 0 512 512" style="enable-background:new 0 0 512 512;" xml:space="preserve" width="512" height="512">
<g>
	<path d="M214.069,320.58c-0.251,2.381-0.442,4.196-0.673,6.398c-16.547,1.386-32.608,4.159-45.083,16.938   c-11.097-12.561-25.369-16.638-42.198-15.825c0-5.371,0.012-10.312-0.002-15.254c-0.201-71.575-0.673-143.15-0.432-214.723   c0.065-19.172-4.653-36.228-15.346-51.99C105.34,38.761,99,33.344,91.114,29.496c-4.339-2.118-4.816-3.726-1.898-7.505   c1.3-1.684,3.027-3.257,4.895-4.249c21.642-11.492,54.364-10.59,74.193,7.58c16.927-15.721,38.329-20.447,60.044-23.299   c26.684-3.505,53.515-2.896,79.362,5.336c26.003,8.281,49.249,21.889,66.936,43.061c15.361,18.388,25.32,39.581,28.824,63.657   c4.302,29.563,4.234,58.887-3.843,87.809c-8.694,31.129-23.796,58.416-49.8,78.559c-7.863,6.091-16.466,11.228-25.206,17.123   c2.087,0.877,4.107,1.75,6.145,2.579c25.863,10.519,40.212,30.236,43.72,57.367c1.954,15.114,1.39,30.542,2.271,45.811   c0.952,16.494,1.009,33.178,3.722,49.4c3.948,23.614,17.846,39.432,41.962,44.982c0.399,0.092,0.747,0.403,2.221,1.23   c-3.129,2.317-5.538,4.786-8.462,6.146c-13.068,6.078-27.062,8.189-41.147,6.178c-10.58-1.511-20.991-4.768-31.218-8.053   c-12.501-4.014-21.012-12.936-27.383-24.244c-9.416-16.711-12.581-34.86-12.662-53.682c-0.057-13.275,0.234-26.562,0.771-39.827   c0.837-20.677-0.079-40.975-10.431-59.664c-0.378-0.683-0.712-1.391-1.088-2.076c-5.895-10.754-6.63-10.299-18.439-8.634   c-17.891,2.523-35.965,3.751-53.967,5.47C218.512,320.755,216.354,320.58,214.069,320.58z M214.093,284.895   c30.959,0.216,65.695-19.98,81.136-46.594c8.345-14.382,13.424-29.913,16.534-46.094c4.857-25.274,3.755-50.664,0.369-75.993   c-2.362-17.668-6.094-35.063-13.182-51.517c-7.273-16.883-18.041-30.077-37.659-32.801c-13.135-1.823-25.433-0.081-34.682,10.622   c-5.537,6.408-8.848,14.197-9.647,22.53c-1.28,13.353-2.267,26.785-2.375,40.191c-0.474,58.905-0.59,117.814-0.819,176.721   C213.763,282.864,213.962,283.769,214.093,284.895z"/>
	<path d="M170.199,490.503c-21.245,17.76-44.54,20.296-69.444,11.777c-4.47-1.529-8.454-5.006-12.1-8.222   c-2.126-1.875-1.765-4.368,1.716-5.544c17.595-5.948,26.08-19.466,29.522-36.693c5.791-28.975,1.028-56.893-9.886-83.87   c-2.277-5.628-6.641-10.506-10.495-15.372c-3.292-4.156-3.369-6.887,0.971-10.09c6.486-4.787,14.206-5.423,21.829-6.01   c19.679-1.514,35.478,5.286,46.091,22.056c4.647-4.571,8.759-9.737,13.909-13.471c15.878-11.513,33.308-10.618,50.965-4.876   c2.266,0.737,4.782,2.285,5.992,4.207c1.055,1.676,1.46,5.504,0.392,6.509c-13.153,12.376-16.373,29.161-20.508,45.453   c-5.556,21.891-4.925,43.629,3.115,64.925c4.887,12.943,13.52,22.243,26.671,27.086c4.156,1.53,4.72,2.901,1.992,6.395   c-1.582,2.026-3.692,4.005-5.997,5.043c-23.615,10.636-46.639,9.862-68.752-4.228C173.98,494.177,172.154,492.183,170.199,490.503z   "/>
	<g>
		<path style="fill:#FFFFFF;" d="M170.95,383.42c3.397-3.179,6.799-6.769,10.63-9.821c3.159-2.517,7.001-3.651,10.961-1.637    c4.066,2.068,5.479,6.223,4.59,9.955c-2.261,9.496-5.018,18.924-8.351,28.098c-2.92,8.04-6.797,15.743-10.471,23.491    c-0.865,1.823-2.467,4.3-4,4.51c-1.425,0.195-3.826-1.894-4.736-3.559c-6.645-12.15-13.57-24.2-19.224-36.812    c-2.371-5.289-2.216-11.847-2.541-17.864c-0.198-3.663,1.457-7.046,5.314-8.61c3.968-1.61,7.618-0.478,10.327,2.338    C166.307,376.48,168.487,380.101,170.95,383.42z"/>
		<g>
			<g>
				<path style="fill:#FFFFFF;" d="M158.438,321.453c15.584-16.696,15.967-36.78,15.071-57.091      c-0.868-19.7-6.612-38.383-12.695-56.954c-7.728-23.593-12.685-47.648-12.445-72.61c0.268-27.886,8.742-52.761,27.095-73.995      c1.324-1.532,3.249-2.543,4.895-3.797c0.398,0.397,0.797,0.794,1.195,1.192c-0.655,1.119-1.208,2.314-1.981,3.345      c-20.28,27.015-25.023,57.433-20.336,90.163c3.538,24.701,11.311,48.292,17.737,72.253c6.62,24.685,8.469,49.527,0.432,74.33      c-2.585,7.977-6.396,15.317-13.238,20.552C162.544,320.082,160.363,320.601,158.438,321.453z"/>
				<g>
					<path style="fill:#FFFFFF;" d="M151.528,269.156c-4.686-0.012-8.299-3.323-8.36-7.663c-0.068-4.817,4.378-9.078,9.415-9.024       c4.698,0.05,8.286,3.639,8.291,8.292C160.88,265.522,156.819,269.169,151.528,269.156z"/>
					<path style="fill:#FFFFFF;" d="M187.822,142.851c-0.089,4.497-3.965,8.21-8.49,8.134c-4.574-0.077-8.307-3.874-8.23-8.372       c0.076-4.457,3.974-8.185,8.499-8.128C184.17,134.542,187.911,138.35,187.822,142.851z"/>
				</g>
			</g>
			<g>
				<path style="fill:#FFFFFF;" d="M306.643,267.774c0.585-0.234,1.162-0.49,1.756-0.697c16.338-5.693,27.125-18.17,36.875-31.374      c15.7-21.262,26.658-44.818,30.35-71.251c1.446-10.352,2.517-20.898-2.33-30.827c-1.324-2.713-3.191-5.161-5.209-8.368      c-1.397,2.853-2.005,5.047-3.341,6.624c-2.775,3.276-5.549,6.793-9.035,9.166c-4.495,3.06-9.299,2.367-12.579-0.567      c-3.207-2.869-4.168-8.244-2.324-13.001c2.866-7.399,9.364-11.932,17.274-12.042c1.221-0.017,2.442-0.002,4.028-0.002      c0.826-9.248,0.066-18.026-3.106-26.442c-9.227-24.476-24.071-44.307-47.522-57c-1.72-0.931-2.776-3.089-4.141-4.677      c2.182,0.073,4.689-0.539,6.499,0.319c32.672,15.481,52.121,40.821,56.434,77.041c1.273,10.689,2.567,13.668,7.81,22.868      c3.144,5.518,5.715,12.059,6.144,18.306c1.947,28.339-7.369,53.759-21.954,77.563c-10.606,17.31-23.73,32.182-41.732,42.091      c-3.892,2.143-8.409,3.152-12.638,4.683C307.483,269.383,307.063,268.578,306.643,267.774z M361.552,121.755      c-8.27-3.18-17.094,2.056-17.528,10.139c-0.101,1.879,0.899,4.554,2.317,5.565c1.362,0.97,4.252,0.946,5.9,0.161      C358.721,134.531,360.391,128.376,361.552,121.755z"/>
				<g>
					<path style="fill:#FFFFFF;" d="M345.425,188.575c-4.486,0.086-8.321-3.449-8.364-7.708c-0.046-4.523,4.017-8.403,8.85-8.45       c4.388-0.043,7.697,2.981,7.719,7.054C353.656,184.405,349.976,188.488,345.425,188.575z"/>
					<path style="fill:#FFFFFF;" d="M335.342,99.351c-3.818-0.019-6.916-3.031-6.963-6.771c-0.048-3.773,3.071-6.778,6.935-6.68       c3.81,0.097,7.022,3.178,7.048,6.762C342.387,96.3,339.165,99.37,335.342,99.351z"/>
					<circle style="fill:#FFFFFF;" cx="387.153" cy="106.377" r="7.233"/>
				</g>
			</g>
		</g>
	</g>
</g>















</svg>
