<?xml version="1.0" encoding="UTF-8"?>
<!-- Generator: Adobe Illustrator 27.2.0, SVG Export Plug-In . SVG Version: 6.00 Build 0)  -->
<svg xmlns="http://www.w3.org/2000/svg" xmlns:xlink="http://www.w3.org/1999/xlink" version="1.1" id="Capa_1" x="0px" y="0px" viewBox="0 0 512 512" style="enable-background:new 0 0 512 512;" xml:space="preserve" width="512" height="512">
<g>
	<path style="fill:#FFFFFF;" d="M147.251,512c-7.258,0-13.432-5.292-14.544-12.463l-18.015-116.273   c-0.062-0.284-0.116-0.571-0.16-0.861l-1.734-11.268c-0.388,0.002-0.776,0.005-1.162,0.005c-3.401,0-6.735-0.126-9.906-0.374   c-50.068-3.848-60.707-36.879-62.956-50.901c-0.988-6.106,0.636-12.181,4.576-17.087c11.843-14.746,42.509-17.151,100.217-20.445   c1.934-0.11,3.875-0.22,5.818-0.333c0.367-0.971,0.679-1.916,0.939-2.84c1.829-6.442,1.007-12.976-2.034-16.297   c-3.78-4.132-11.492-5.362-20.422-6.786c-6.269-1-12.752-2.035-19.269-4.269c-22.147-7.611-36.838-29.002-34.183-49.761   c1.598-12.32,8.243-21.553,14.105-29.7c1.407-1.956,2.815-3.904,4.118-5.884c5.294-8.082,8.953-17.385,10.564-26.875   c1.515-8.921,0.206-16.579-3.336-19.508c-2.357-1.944-6.851-3.119-11.611-4.362c-2.507-0.655-5.099-1.332-7.783-2.208   c-21.168-6.949-39.175-24.347-48.192-46.545c-5.463-13.423-7.775-28.224-6.871-43.984c0.448-7.788,6.893-13.874,14.693-13.874   h240.578C282.898,3.736,288.184,0,294.29,0c0.035,0,0.07,0,0.104,0c6.078,0.042,11.308,3.775,13.507,9.105h164.161   c4.076,0,7.968,1.69,10.752,4.667c2.782,2.976,4.206,6.974,3.932,11.041c-0.897,13.298-4.75,25.912-11.143,36.48   c-8.957,14.816-22.535,27.327-39.268,36.176c-1.493,0.788-2.999,1.54-4.506,2.291c-3.419,1.704-6.65,3.314-9.076,5.141   c-2.594,1.939-3.544,3.751-3.605,4.33c-0.074,0.702,0.672,3.047,3.43,6.002c1.765,1.891,4.006,3.788,6.38,5.796   c2.581,2.183,5.25,4.442,7.898,7.148c7.894,8.073,13.087,17.658,15.024,27.728c2.77,14.516-1.452,30.411-11.288,42.539   c-6.053,7.463-14.242,13.536-23.656,17.651l-0.979,12.529c-0.599,7.665-6.995,13.571-14.671,13.571c-0.037,0-0.073,0-0.109,0   c-7.724-0.056-14.091-6.075-14.581-13.784l-0.34-5.349c-3.322,0.488-6.447,1.068-9.231,1.98c-5.314,1.725-8.613,5.234-8.652,6.995   c-0.019,0.97,0.698,3.988,7.775,10.286l1.655,1.449c6.861,5.993,15.4,13.451,18.874,25.043c1.399,4.627,1.761,9.516,1.174,14.295   c1.04,0.174,2.068,0.351,3.085,0.531c8.725,1.538,31.91,5.624,33.303,24.266c1.261,16.882-18.092,28.153-37.19,36.953   c-8.432,3.885-16.827,7.179-22.746,9.38l-3.121,16.461c-0.042,0.459-0.105,0.917-0.19,1.376l-23.909,127.914   c-1.302,6.964-7.382,12.013-14.467,12.013H147.251z"/>
	<g>
		<path style="fill:#EBB1FF;" d="M472.608,23.928c-0.711,10.548-3.753,21.095-9.051,29.852    c-7.947,13.148-19.967,23.597-33.556,30.784c-5.249,2.772-10.793,5.102-15.552,8.683c-4.759,3.557-8.781,8.659-9.395,14.57    c-0.687,6.5,2.845,12.78,7.31,17.563c4.464,4.783,9.934,8.512,14.521,13.197c5.445,5.568,9.615,12.559,11.087,20.212    c2.036,10.67-1.423,22.052-8.266,30.49c-6.844,8.438-16.827,14.031-27.399,16.582c-9.664,2.306-19.869,2.207-29.312,5.298    c-9.444,3.066-18.569,10.719-18.789,20.653c-0.172,8.634,6.255,15.87,12.706,21.61c6.475,5.715,13.736,11.455,16.214,19.721    c2.06,6.819,0.245,14.668-4.612,19.893c-6.353,6.844-14.031,10.523-22.64,14.129c-63.113,26.393-135.155,30.956-201.089,12.657    l-5.053-8.585c6.157-8.732,12.412-17.685,15.306-27.987c2.919-10.278,1.864-22.346-5.347-30.22    c-11.038-12.068-30.318-9.738-45.771-15.036c-14.276-4.906-26.271-19.01-24.357-33.973c1.447-11.161,9.738-19.967,15.919-29.361    c6.427-9.812,10.817-20.948,12.78-32.501c2.011-11.848,0.785-25.657-8.462-33.31c-6.721-5.544-15.944-6.525-24.21-9.223    C67.733,93.762,53.53,78.923,46.466,61.531c-4.832-11.872-6.549-24.774-5.813-37.603H472.608z"/>
		<g>
			<path style="fill:#FFFFFF;" d="M191.418,293.846c0,0,15.031-21.711,23.381-40.499s12.943-45.092,21.293-51.772     c0,0-3.34-22.546-16.701-47.597c-13.36-25.051-52.189-93.941-32.984-127.342c0,0,22.546-13.778,55.947,31.731     c33.401,45.509,30.479,125.672,30.479,125.672l29.643,1.253c0,0,10.02-137.362,77.24-154.063c0,0,11.69,45.927-7.098,89.348     c-18.788,43.422-42.169,73.065-42.169,73.065s30.896,53.442,28.391,66.802c-2.505,13.36-17.118,22.963-17.118,22.963     l9.603,10.438H191.418z"/>
			<g>
				<path style="fill:#EBB1FF;" d="M240.163,197.4c0,0-4.071-21.293-11.899-37.576s-41.021-77.658-30.687-103.961      c0,0,21.919,0.939,36.637,42.587c14.717,41.647,22.233,88.304,22.233,88.304L240.163,197.4z"/>
				<path style="fill:#2F2444;" d="M323.86,191.9c-0.127,0-0.256-0.026-0.38-0.082c-17.055-7.742-36.796-6.491-54.216-5.387      c-0.492,0.027-0.944-0.354-0.976-0.859c-0.032-0.508,0.353-0.944,0.86-0.977c17.633-1.119,37.619-2.385,55.093,5.547      c0.462,0.21,0.667,0.756,0.457,1.218C324.544,191.7,324.21,191.9,323.86,191.9z"/>
				<ellipse style="fill:#2F2444;" cx="277.113" cy="226.208" rx="6.889" ry="8.455"/>
				
					<ellipse transform="matrix(0.9239 -0.3827 0.3827 0.9239 -78.0722 119.7299)" style="fill:#EBB1FF;" cx="261.926" cy="256.113" rx="22.702" ry="22.702"/>
				<path style="fill:#2F2444;" d="M308.664,291.136c-16.398,0-32.721-4.485-45.199-12.485c-0.428-0.274-0.552-0.843-0.278-1.271      c0.274-0.428,0.843-0.553,1.271-0.278c12.936,8.293,30.128,12.719,47.159,12.146c12.542-0.424,22.632-2.856,30.85-7.438      c9.085-5.063,18.412-13.912,17.34-23.56c-1.527-13.744-27.804-60.241-28.069-60.71c-0.25-0.441-0.095-1.003,0.347-1.253      c0.444-0.254,1.003-0.095,1.254,0.347c1.091,1.924,26.728,47.296,28.296,61.413c1.172,10.543-8.671,20.019-18.272,25.37      c-8.479,4.727-18.842,7.235-31.683,7.668C310.674,291.119,309.668,291.136,308.664,291.136z"/>
				<g>
					<polygon style="fill:#2F2444;" points="326.693,254.808 345.272,254.599 336.087,261.071      "/>
					<g>
						<path style="fill:#2F2444;" d="M324.224,278.24c-0.608,0-1.219-0.042-1.827-0.13c-4.691-0.674-9.157-3.796-11.948-8.352        c-0.266-0.434-0.129-0.999,0.304-1.265c0.434-0.265,1-0.129,1.265,0.304c2.508,4.094,6.486,6.895,10.641,7.492        c4.521,0.643,9.2-1.557,11.13-5.244c0.625-1.193,1.038-2.6,1.301-4.425c0.339-2.349,0.345-4.73,0.019-7.08        c-0.07-0.504,0.281-0.968,0.785-1.038c0.505-0.071,0.968,0.282,1.038,0.784c0.351,2.521,0.344,5.077-0.02,7.597        c-0.294,2.038-0.769,3.632-1.493,5.016C333.403,275.752,328.885,278.24,324.224,278.24z"/>
						<path style="fill:#2F2444;" d="M345.663,276.491c-0.519,0-1.039-0.053-1.554-0.164c-3.099-0.67-5.842-3.306-7.159-6.882        c-1.108-3.008-1.199-6.143-1.2-9.635c0-0.508,0.412-0.92,0.92-0.92c0.508,0,0.92,0.412,0.92,0.92        c0,3.312,0.083,6.275,1.086,8.999c0.863,2.344,2.845,5.076,5.821,5.719c2.989,0.646,6.368-1.366,7.224-4.305        c0.143-0.488,0.655-0.771,1.141-0.626c0.488,0.142,0.768,0.652,0.626,1.14C352.504,274.115,349.126,276.491,345.663,276.491z"/>
					</g>
				</g>
			</g>
		</g>
		<g>
			<path style="fill:#2F2444;" d="M361.961,343.322l-25.666,11.064l20.777,15.09l-23.908,127.913H147.798L129.661,380.33     l22.927-13.837l-26.719-10.637c-8.389,0.785-15.846,0.858-22.444,0.343c-35.42-2.723-46.949-22.199-49.573-38.56     c-3.14-19.402,70.766-18.151,132.138-23.18c33.458-2.723,74.74-4.71,115.703-4.121c0,0,0-0.024,0.025,0     c34.193,0.491,68.166,2.772,97.208,7.898C462.8,309.496,361.961,343.322,361.961,343.322z"/>
			<path style="opacity:0.25;fill:#A27CFF;" d="M301.693,290.339c-32.893,7.334-65.002,18.176-95.589,32.305     c-18.078,8.34-35.69,17.857-54.405,24.701c-15.478,5.617-31.912,9.395-48.273,8.855c-35.42-2.723-46.949-22.199-49.573-38.56     c-3.14-19.402,70.766-18.151,132.138-23.18C219.448,291.737,260.73,289.75,301.693,290.339z"/>
			<path style="fill:#A27CFF;" d="M125.869,355.856c0,0,116.485-16.501,236.092-12.535l-4.79,25.259     c0,0-160.326,0.835-227.546,11.69L125.869,355.856z"/>
		</g>
		<g>
			<g>
				<g>
					<path style="fill:#FFFFFF;" d="M260.58,327.872c0,14.398-4.464,27.055-11.234,34.414c-0.687,0.736-1.398,1.423-2.109,2.06       c-3.483,3.042-7.457,4.759-11.676,4.759c-0.27,0-0.564,0-0.834-0.025c-0.613-0.025-1.227-0.098-1.84-0.221       c-12.559-2.183-22.346-19.697-22.346-40.988c0-22.763,11.21-41.233,25.02-41.233C249.37,286.638,260.58,305.109,260.58,327.872       z"/>
				</g>
				<g>
					<path style="fill:#2F2444;" d="M234.727,369.08c-0.613-0.025-1.227-0.098-1.84-0.221c1.423-9.002,0.932-18.372-1.374-27.178       c-0.123-0.491,0.172-0.981,0.662-1.128c0.491-0.123,0.981,0.172,1.128,0.662C235.683,350.242,236.174,359.833,234.727,369.08z"/>
				</g>
				<g>
					<path style="fill:#2F2444;" d="M249.346,362.286c-0.687,0.736-1.398,1.423-2.109,2.06c1.177-7.874,0.466-16.067-2.109-23.572       c-0.172-0.49,0.074-1.006,0.564-1.177c0.491-0.147,1.006,0.098,1.177,0.564C249.297,347.201,250.131,354.853,249.346,362.286z"/>
				</g>
			</g>
			<g>
				<g>
					<path style="fill:#FFFFFF;" d="M360.168,329.27c0,17.195-6.181,31.912-15.012,38.118c-0.76,0.54-1.545,1.006-2.355,1.398       c-2.208,1.128-4.538,1.717-6.942,1.717c-0.736,0-1.496-0.049-2.208-0.172c-0.613-0.098-1.202-0.221-1.79-0.392       c-11.529-3.238-20.335-20.212-20.335-40.669c0-22.763,10.891-41.233,24.333-41.233       C349.302,288.036,360.168,306.507,360.168,329.27z"/>
				</g>
				<g>
					<path style="fill:#2F2444;" d="M333.652,370.331c-0.613-0.098-1.202-0.221-1.79-0.392c1.84-8.487,1.79-17.318-0.147-25.78       c-0.123-0.491,0.196-0.981,0.687-1.104c0.491-0.098,0.981,0.196,1.104,0.687C335.516,352.499,335.565,361.599,333.652,370.331z       "/>
				</g>
				<g>
					<path style="fill:#2F2444;" d="M345.156,367.388c-0.76,0.54-1.545,1.006-2.355,1.398c2.723-8.095,2.6-17.097-0.417-25.118       c-0.172-0.491,0.074-1.006,0.54-1.202c0.466-0.171,1.006,0.074,1.177,0.54C347.02,350.782,347.364,359.416,345.156,367.388z"/>
				</g>
			</g>
		</g>
		<g>
			<polygon style="fill:#FBEEE5;" points="147.996,188.753 150.797,143.001 152.976,189.064 164.492,179.727 157.645,190.621      182.232,193.733 158.267,196.846 165.114,206.494 153.599,200.269 150.486,240.108 147.996,200.892 136.169,205.872      143.639,196.846 113.76,192.799 143.327,191.555 136.48,181.284    "/>
			<polygon style="fill:#FBEEE5;" points="292.039,60.576 294.84,14.824 297.019,60.887 308.535,51.55 301.687,62.444      326.275,65.556 302.31,68.669 309.157,78.317 297.641,72.092 294.529,111.93 292.039,72.715 280.212,77.694 287.681,68.669      257.803,64.622 287.37,63.377 280.523,53.106    "/>
			<polygon style="fill:#FBEEE5;" points="399.34,176.228 402.141,130.476 404.32,176.539 415.836,167.202 408.989,178.095      433.577,181.208 409.611,184.32 416.458,193.968 404.943,187.744 401.83,227.582 399.34,188.366 387.513,193.346 394.983,184.32      365.104,180.274 394.672,179.029 387.824,168.758    "/>
		</g>
	</g>
</g>















</svg>
