<?xml version="1.0" encoding="UTF-8"?>
<!-- Generator: Adobe Illustrator 25.3.1, SVG Export Plug-In . SVG Version: 6.00 Build 0)  -->
<svg xmlns="http://www.w3.org/2000/svg" xmlns:xlink="http://www.w3.org/1999/xlink" version="1.1" id="Capa_1" x="0px" y="0px" viewBox="0 0 511.412 511.412" style="enable-background:new 0 0 511.412 511.412;" xml:space="preserve" width="512" height="512">
<g>
	<path style="fill:#FFFFFF;" d="M255.788,511.363C76.165,514.149-46.391,326.815,17.286,162.259c1.624-4.29,3.426-8.488,5.42-12.896   c107.081-211.596,397.433-194.867,476.614,27.93C551.077,338.837,426.571,514.801,255.788,511.363z"/>
	<g>
		<g>
			<path style="fill:#5F2183;" d="M492.967,305.716c-16.113,77.674-70.021,143.212-145.888,172.761     c-82.942,33.603-183.72,19.319-250.782-41.535c-16.8-13.962-76.181-133.674-79.264-154.604     c-4.638-38.767-0.253-78.641,14.169-115.677c1.555-4.118,3.32-8.18,5.123-12.161c11.663-23.911,27.095-45.858,45.458-64.911     c21.565-22.53,47.246-40.802,75.387-53.904C206.171,12.8,263.093,6.74,316.41,20.433     C321.93,21.851,496.376,289.284,492.967,305.716z"/>
			<path style="opacity:0.25;fill:#9F6DA4;" d="M468.894,371.639c-1.015,1.892-2.077,3.761-3.161,5.63     c-15.299,26.237-35.051,48.458-57.804,66.318c-11.491,9.023-23.721,16.937-36.528,23.698     c-7.915,4.177-16.037,7.915-24.321,11.192c-8.261,3.3-16.706,6.138-25.268,8.515c-27.459,7.661-56.165,10.661-84.64,8.7     c-4.154-0.3-8.284-0.692-12.415-1.177c-23.421-2.815-46.543-9.045-68.534-18.829c-16.868-7.523-33.09-17.145-48.227-28.96     c-4.015-3.138-7.915-6.392-11.699-9.784c-0.508-0.439-1.015-0.9-1.523-1.361c-15.161-13.776-75.387-133.398-77.741-153.243     c-4.638-38.767-0.254-78.64,14.168-115.676c0.115-0.346,0.254-0.692,0.392-1.038c1.477-3.761,3.069-7.476,4.73-11.122     c0.162-0.392,0.323-0.762,0.508-1.131c3.346-6.669,6.923-13.153,10.73-19.406c5.123-8.399,10.661-16.407,16.591-24.021     c0.715,2.469,1.869,4.846,3.554,7.015c6.807,8.884,19.406,10.522,30.598,10.384c41.697-0.485,82.356-15.737,124.053-14.607     c33.367,0.923,66.918,13.038,90.87,36.298c23.952,23.237,37.267,57.988,31.729,90.893     c-7.269,43.151-41.859,72.803-73.541,104.762c-7.638,7.707-15.114,15.553-21.991,23.745c-1.961,2.354-3.877,4.73-5.746,7.13     c-0.415,0.531-0.808,1.038-1.2,1.569c-3.461,4.546-6.692,9.23-9.645,14.076c-4.384,7.153-8.192,16.06-4.638,23.675     c2.4,5.123,6.876,7.661,12.207,8.469c8.099,1.223,18.137-1.523,25.867-5.261c11.561-5.561,22.891-11.676,34.197-17.768     c11.399-6.184,22.776-12.345,34.405-17.929c7.222-3.508,14.561-6.784,22.014-9.715c5.654-2.215,11.399-4.223,17.26-5.976     C405.137,357.401,440.973,356.894,468.894,371.639z"/>
			<path style="opacity:0.28;fill:#9F6DA4;" d="M371.401,467.286c-7.915,4.177-16.037,7.915-24.321,11.192     c-8.261,3.3-16.706,6.138-25.268,8.515c-27.459,7.661-56.165,10.661-84.64,8.7c-4.154-0.3-8.284-0.692-12.415-1.177     c-23.421-2.815-46.543-9.045-68.534-18.829c-16.868-7.523-33.09-17.145-48.227-28.96c-4.015-3.138-7.915-6.392-11.699-9.784     c-0.508-0.439-1.015-0.9-1.523-1.361c-15.161-13.776-75.387-133.398-77.741-153.243c-4.638-38.767-0.254-78.64,14.168-115.676     c0.115-0.346,0.254-0.692,0.392-1.038c1.477-3.761,3.069-7.476,4.73-11.122c0.162-0.392,0.323-0.762,0.508-1.131     c3.346-6.669,6.923-13.153,10.73-19.406c-1.038,5.1-1.615,10.268-1.615,15.484c0.023,15.645,6.23,32.005,19.153,40.82     c16.822,11.538,39.297,7.638,59.442,4.338c33.644-5.515,70.864-7.315,99.039,11.883c21.714,14.815,34.705,41.536,32.975,67.772     c-2.215,33.575-25.844,61.288-47.835,86.763c-9.184,10.638-18.46,21.875-26.145,33.805c-4.223,6.507-7.938,13.222-10.892,20.168     c-1.523,3.53-2.838,7.107-3.9,10.753c0,0.023,0,0.023,0,0.023c-2.261,7.523-3.507,15.322-3.438,23.375     c0.069,9.184,2.4,19.129,9.576,24.829c6.392,5.053,15.16,5.699,23.283,5.423c8.584-0.277,17.076-1.292,25.498-2.769     c5.169-0.9,10.338-1.961,15.46-3.115c19.891-4.476,39.597-10.384,59.719-13.684c5.492-0.9,11.122-1.546,16.776-1.915     c9.392-0.577,18.899-0.346,28.129,0.946C352.848,460.294,362.563,462.994,371.401,467.286z"/>
			<path style="opacity:0.25;fill:#9F6DA4;" d="M497.922,250.24c-25.525,15.31-43.77,39.974-67.195,57.734     c-16.974,12.96-39.406,24.926-61.103,18.183c-0.438-0.092-0.854-0.231-1.269-0.416c-7.107-2.492-13.499-7.015-17.537-13.199     c-0.231-0.323-0.438-0.646-0.623-0.992c-11.645-20.149,3.304-44.086,13.707-62.465c0.184-0.346,0.369-0.692,0.577-1.015     c5.701-9.933,11.673-19.748,17.168-29.79c15.598-27.583,28.083-59.682,23.191-91.747c-2.334-16.971-10.36-33.371-23.514-44.582     c-0.3-0.277-0.6-0.531-0.923-0.784c-5.376-4.546-11.399-8.307-17.86-11.33c-0.416-0.185-0.808-0.392-1.223-0.554     c-29.911-13.676-63.944-10.224-95.347-3.738c-36.063,7.261-73.423,18.145-110.069,10.037     c-15.804-2.877-22.44-12.835-19.799-28.867c6.853-4.024,13.904-7.642,21.068-11.03c54.074-25.255,117.795-30.021,175.672-10.361     c9.715,3.254,19.36,7.177,28.844,11.838c0.415,0.185,0.831,0.392,1.246,0.623c29.237,14.397,56.278,35.298,77.348,60.134     c0.254,0.277,0.508,0.577,0.739,0.877c7.246,8.561,13.845,17.583,19.752,27.021c0.277,0.416,0.554,0.831,0.808,1.269     c11.349,18.285,20.224,37.995,26.329,58.68c3.525,11.73,6.081,23.767,7.776,36.02c0.069,0.415,0.115,0.831,0.162,1.223     C497.067,232.049,497.731,241.092,497.922,250.24z"/>
		</g>
		<g>
			<g>
				<path style="fill:#95ABD3;" d="M497.969,255.016c0,17.122-1.731,34.267-5.192,51.02c-18.737,12.276-40.082,20.906-63.018,24.875      c-0.392,0.069-0.785,0.138-1.177,0.185c-8.999,1.5-18.229,2.284-27.644,2.284c-12.138,0-23.975-1.292-35.374-3.738      c-0.485-0.092-0.969-0.208-1.454-0.323c-8.63-1.915-17.007-4.5-25.083-7.73c-0.438-0.162-0.877-0.323-1.315-0.531      c-10.014-4.061-19.568-9.069-28.521-14.953c-8.861-5.792-17.145-12.392-24.76-19.73c-0.3-0.254-0.577-0.531-0.854-0.808      c-9.669-9.438-18.184-20.052-25.337-31.567c-0.208-0.323-0.416-0.646-0.6-0.969c-2.215-3.6-4.269-7.292-6.207-11.053      c0-0.023-0.023-0.023-0.023-0.046c-1.177-2.285-2.285-4.592-3.346-6.923c-0.162-0.346-0.346-0.715-0.485-1.085      c-0.277-0.577-0.508-1.177-0.762-1.754c0-0.023-0.023-0.023-0.023-0.046c-7.569-17.445-12.276-36.436-13.453-56.373      c-0.046-0.439-0.069-0.9-0.092-1.361c-0.161-2.954-0.231-5.907-0.231-8.907c0-3.761,0.115-7.5,0.369-11.192      c0.023-0.461,0.069-0.923,0.092-1.384c0.9-11.976,3.023-23.583,6.299-34.728c0.185-0.623,0.369-1.246,0.554-1.846      c0.208-0.646,0.392-1.292,0.6-1.915c5.654-17.768,14.191-34.244,25.037-48.873c0.9-1.2,1.8-2.4,2.723-3.577      c0.692-0.854,1.361-1.708,2.054-2.538c12.691-15.553,28.106-28.821,45.551-38.997c5.053,1.292,10.084,2.746,15.091,4.384      c0.484,0.162,0.969,0.323,1.454,0.508c9.715,3.254,19.36,7.177,28.844,11.838c0.415,0.185,0.831,0.392,1.246,0.623      c8.284,4.084,16.453,8.723,24.483,13.915c0.346,0.231,0.692,0.461,1.061,0.692c1.569,1.015,3.161,2.077,4.73,3.161      c4.823,3.3,9.484,6.761,14.007,10.384c0.323,0.254,0.646,0.508,0.969,0.761c11.745,9.461,22.475,19.937,32.098,31.221      c0.254,0.277,0.508,0.577,0.739,0.877c7.246,8.561,13.845,17.583,19.752,27.021c0.277,0.416,0.554,0.831,0.808,1.269      c5.169,8.33,9.83,16.96,13.961,25.867c0.208,0.438,0.392,0.877,0.6,1.315c4.638,10.176,8.584,20.699,11.769,31.498      c0.161,0.485,0.3,0.969,0.438,1.454c3.277,11.261,5.723,22.821,7.338,34.567c0.069,0.415,0.115,0.831,0.162,1.223      c0.438,3.184,0.784,6.369,1.084,9.576c0.046,0.508,0.092,0.992,0.138,1.477c0.461,5.354,0.739,10.753,0.854,16.176      C497.946,251.832,497.969,253.424,497.969,255.016z"/>
			</g>
			<g>
				<path style="fill:#F3C7D1;" d="M332.842,25.325c-21.598,11.815-42.989,24.114-64.149,36.644      c0.692-0.854,1.361-1.708,2.054-2.538c20.006-11.814,40.22-23.421,60.642-34.613C331.873,24.979,332.357,25.141,332.842,25.325z      "/>
				<path style="fill:#F3C7D1;" d="M362.932,37.786c-12.853,7.223-25.568,14.699-38.12,22.429      c-27.667,17.029-54.619,35.305-80.671,54.734c-1.454,1.062-2.908,2.146-4.361,3.231c0.185-0.623,0.369-1.246,0.554-1.846      c0.738-0.554,1.477-1.107,2.238-1.638c25.937-19.383,52.727-37.612,80.256-54.619c12.807-7.915,25.752-15.553,38.859-22.914      C362.101,37.347,362.517,37.555,362.932,37.786z"/>
				<path style="fill:#F3C7D1;" d="M388.476,52.392c-8.722,5.792-17.352,11.607-25.936,17.445      c-6.092,4.153-12.161,8.284-18.207,12.415c-21.368,14.584-43.035,29.352-65.095,43.635      c-15.068,9.761-30.321,19.291-45.851,28.406c0.023-0.461,0.069-0.923,0.092-1.384c15.045-8.861,29.859-18.114,44.489-27.575      c22.291-14.422,44.166-29.329,65.718-44.051c5.838-3.992,11.722-8.007,17.63-11.999c8.63-5.884,17.329-11.746,26.098-17.583      C387.761,51.931,388.107,52.162,388.476,52.392z"/>
				<path style="fill:#F3C7D1;" d="M408.183,66.699c-8.976,5.007-17.953,10.107-26.86,15.253      c-29.213,16.868-58.034,34.428-86.371,52.589c-17.722,11.353-35.236,22.96-52.542,34.798c-3.161,2.146-6.184,4.269-9.068,6.415      c-0.046-0.439-0.069-0.9-0.092-1.361c2.723-2.007,5.561-3.992,8.515-6c17.168-11.745,34.567-23.26,52.127-34.521      c28.383-18.229,57.25-35.813,86.509-52.704c8.907-5.146,17.837-10.246,26.814-15.23      C407.537,66.192,407.86,66.445,408.183,66.699z"/>
				<path style="fill:#F3C7D1;" d="M441.019,98.797l-36.182,27.736l-69.387,53.211l-14.284,10.961      c-20.306,15.576-41.305,31.682-65.488,41.605c-2.307,0.946-4.8,1.869-7.384,2.631c-0.069,0.023-0.162,0.046-0.231,0.069      c-0.162-0.346-0.346-0.715-0.485-1.085c0.046-0.023,0.115-0.023,0.161-0.046c2.654-0.761,5.169-1.684,7.5-2.63      c24.044-9.876,44.974-25.937,65.234-41.466l14.468-11.099l69.71-53.442L440.28,97.92      C440.534,98.197,440.788,98.497,441.019,98.797z"/>
				<path style="fill:#F3C7D1;" d="M461.579,127.087c-1.546,4.869-2.769,9.876-3.992,14.814c-1.523,6.277-3.115,12.784-5.353,18.922      c-5.192,14.26-14.099,26.975-25.729,36.736c-13.291,11.145-29.006,17.676-45.62,22.129c-11.307,3.046-23.052,5.123-34.705,7.038      c-2.008,0.346-4.015,0.669-6,0.992c-25.66,4.176-52.196,8.492-74.487,21.368c-2.469,1.431-4.984,3.069-7.453,4.915      c-0.208-0.323-0.416-0.646-0.6-0.969c2.469-1.846,4.984-3.507,7.477-4.938c22.475-12.991,49.104-17.306,74.879-21.506      c2.054-0.346,4.107-0.669,6.184-1.015c11.93-1.961,23.929-4.107,35.467-7.292c16.083-4.407,31.267-10.822,44.097-21.599      c11.491-9.645,20.283-22.175,25.406-36.251c2.215-6.069,3.807-12.553,5.33-18.806c1.292-5.284,2.585-10.638,4.292-15.807      C461.048,126.233,461.325,126.649,461.579,127.087z"/>
				<path style="fill:#F3C7D1;" d="M495.846,223.011c-6.577,3.9-13.776,6.692-21.322,8.169c-5.423,1.038-11.076,1.477-16.568,1.892      c-10.591,0.808-21.575,1.661-30.69,7.084c-13.037,7.73-19.129,22.568-25.014,36.897c-1.569,3.853-3.207,7.823-4.938,11.561      c-6.715,14.514-16.291,27.344-27.69,37.543c-1.315,1.2-2.677,2.354-4.061,3.484c-0.485-0.092-0.969-0.208-1.454-0.323      c1.43-1.154,2.861-2.33,4.246-3.577c11.515-10.153,21.16-23.029,27.898-37.612c1.731-3.715,3.369-7.684,4.938-11.515      c5.954-14.514,12.115-29.536,25.475-37.451c9.368-5.561,20.468-6.415,31.221-7.246c5.446-0.415,11.076-0.831,16.407-1.869      c7.569-1.477,14.814-4.315,21.391-8.261C495.753,222.203,495.799,222.619,495.846,223.011z"/>
			</g>
			<g>
				<path style="fill:#F3C7D1;" d="M367.063,249.409c-0.831-0.508-1.685-0.969-2.585-1.338c-3.208-1.385-6.853-1.938-10.707-1.938      c-3.346,0-6.853,0.415-10.361,1.131c-13.499,2.7-26.906,9.484-30.713,11.515c-12.784,6.83-22.868,16.153-29.121,26.79      c0.277,0.277,0.554,0.554,0.854,0.808c6.138-10.568,16.107-19.821,28.798-26.583c8.93-4.753,19.799-9.184,29.86-11.237      c7.868-1.592,15.253-1.754,20.814,0.531c0.9,0.369,1.731,0.784,2.538,1.292c5.769,3.623,8.492,10.499,8.123,20.445      c-0.323,8.192-3.854,16.706-10.845,26.029c-3.992,5.353-8.538,10.291-13.522,14.699c-3.9,3.507-8.076,6.669-12.484,9.507      c0.439,0.208,0.877,0.369,1.315,0.531c4.154-2.723,8.099-5.746,11.791-9.045c5.1-4.5,9.738-9.53,13.822-14.999      c7.13-9.507,10.753-18.229,11.076-26.675C376.108,260.462,373.201,253.24,367.063,249.409z"/>
			</g>
			<g>
				<path style="fill:#F3C7D1;" d="M487.908,185.768c-0.577,0.946-1.177,1.869-1.777,2.792c-2.7,4.107-6.092,8.399-10.776,8.884      c-5.838,0.6-10.615-5.307-11.215-11.007c-0.6-5.815,1.8-11.468,4.523-17.214c2.192-4.638,4.661-9.692,7.476-14.953      c-0.208-0.438-0.392-0.877-0.6-1.315c-2.977,5.538-5.607,10.891-7.915,15.783c-2.815,5.907-5.261,11.699-4.638,17.814      c0.623,5.93,5.446,12.068,11.538,12.068c0.323,0,0.623,0,0.946-0.046c5.169-0.531,8.792-5.03,11.63-9.392      c0.416-0.646,0.854-1.292,1.246-1.961C488.208,186.737,488.069,186.252,487.908,185.768z"/>
			</g>
			<g>
				<path style="fill:#F3C7D1;" d="M497.069,234.064l-27.321,26.398c-12.138,11.745-24.691,23.883-33.413,38.697      c-1.315,2.215-2.63,4.707-3.784,7.407c-3.161,7.315-5.169,16.014-2.792,24.344c-0.392,0.069-0.785,0.138-1.177,0.185      c-2.192-7.892-0.623-16.06,2.146-23.121c1.362-3.438,3-6.623,4.615-9.392c8.792-14.953,21.414-27.16,33.621-38.951      l27.967-27.044C496.976,233.095,497.022,233.579,497.069,234.064z"/>
			</g>
			<g>
				<path style="fill:#F3C7D1;" d="M361.178,117.349c-5.238-4.777-14.376-4.523-20.606-2.838      c-14.953,4.038-29.859,11.976-43.935,21.137c-12.691,8.215-24.714,17.468-35.467,25.729l-0.739,0.554      c-9.207,7.084-17.906,15.091-19.014,25.775c-0.415,3.877,0.369,7.5,2.192,10.199c3.184,4.707,8.538,6.069,13.614,6.069      c4.223,0,8.261-0.946,10.707-1.661c22.337-6.461,41.512-19.937,60.434-34.959c2.123-1.708,4.246-3.415,6.369-5.123      c1.2-0.969,2.561-2.031,4.061-3.207c9.484-7.407,23.791-18.599,25.706-29.398C365.424,124.341,364.294,120.211,361.178,117.349z       M363.37,129.418c-1.823,10.384-15.945,21.391-25.29,28.706c-1.5,1.154-2.884,2.238-4.084,3.231      c-2.1,1.684-4.177,3.369-6.276,5.03c-18.83,14.976-37.936,28.429-60.111,34.821c-4.015,1.154-17.491,4.292-23.052-3.946      c-1.661-2.469-2.377-5.838-1.984-9.438c1.062-10.245,9.553-18.045,18.552-24.967l0.739-0.577      c10.869-8.353,23.006-17.653,35.813-25.914c13.868-8.999,28.544-16.753,43.22-20.722c2.423-0.669,5.192-1.061,7.915-1.061      c4.407,0,8.746,1.038,11.584,3.623C363.209,120.788,364.224,124.549,363.37,129.418z"/>
			</g>
		</g>
		<g>
			<path style="fill:#FF8933;" d="M166.475,346.013c0,10.43,7.078,20.411,3.871,29.779c-4.061,11.792-10.43,22.498-18.599,31.59     c-0.023,0-0.023,0-0.023,0c-6.463,7.205-16.389,3.205-24.85,8.079c-6.009,3.462-10.128,16.449-16.894,18.48     c-4.431,1.361-8.999,2.354-13.684,3c-0.277,0.069-0.554,0.092-0.831,0.138c-0.231-0.508-0.461-0.992-0.692-1.5     c-8.314-7.554-13.71-33.676-20.799-42.283c-5.839-7.089-13.573,3.49-18.544-4.19c-9.876-15.276-18.045-31.636-24.368-48.666     c-6.946-18.737-7.661-64.288-4.176-67.01c9.392-7.315,20.26-12.853,32.075-16.107c3.07-0.845,6.205,2.467,9.396,1.943     c4.651-0.764,9.421-5.178,14.28-5.219h0.739c17.053,0,32.998,4.638,46.681,12.737c3.323,1.95,4.513,8.113,7.55,10.464     s7.922,0.889,10.633,3.589c12.53,12.484,21.46,28.544,25.152,46.497C174.638,333.357,166.475,339.644,166.475,346.013z"/>
			<path style="fill:#F3C7D1;" d="M31.063,340.441c-6.946-18.737-11.676-38.259-14.03-58.103c3.069-3.207,6.369-6.184,9.853-8.907     c-0.046,18.368,1.292,36.782,3,55.104C30.256,332.503,30.648,336.472,31.063,340.441z"/>
			<path style="fill:#F3C7D1;" d="M92.005,428.543c0.738,2.4,1.731,4.73,2.769,7.038c-15.161-13.776-28.337-29.467-39.343-46.474     c-3.831-40.474-1.293-81.433,2.63-121.976c0.323-3.254,0.646-6.53,0.9-9.807c7.545-2.077,15.483-3.207,23.675-3.277     c-6.784,19.937-7.43,41.905-1.846,62.211c5.077,18.391,15.183,35.767,15.391,54.85C96.412,390.469,86.329,410.036,92.005,428.543     z"/>
			<path style="fill:#F3C7D1;" d="M137.81,393.837c-1.684,7.13,6.484,12.415,13.915,13.545     c-11.053,12.322-25.452,21.668-41.743,26.56c-0.969-8.33,1.661-16.96,5.1-24.737c4.015-9.138,9.23-17.883,11.468-27.598     c2.238-9.738,0.854-21.114-6.576-27.76c-4.2-3.761-9.761-5.561-14.238-8.976c-10.245-7.823-12.738-22.868-8.907-35.167     c3.83-12.322,12.714-22.337,21.991-31.267c3.877-3.738,7.938-7.453,11.238-11.653c6.646,3.9,12.761,8.653,18.183,14.053     c-5.353,5.4-11.376,10.199-15.437,16.614c-4.407,6.992-5.769,16.914-0.3,23.121c6.253,7.084,17.329,5.838,26.767,5.561     c4.707-0.138,9.53,0.138,14.122,1.2c1.246,6.023,1.892,12.253,1.892,18.622c0,10.43-1.731,20.468-4.938,29.836     c-9.415,3.092-19.36,5.169-27.252,11.099C140.717,388.668,138.502,390.953,137.81,393.837z"/>
		</g>
		<g>
			<g>
				<path style="opacity:0.39;fill:#F3C7D1;" d="M321.812,486.992c-27.459,7.661-56.165,10.661-84.64,8.7l0.992-22.175l2.238-50.165      l2.077-46.22l0.346-8.007l6.6-0.692l42.112-4.407l0.646,2.654l8.284,33.644l14.191,57.596L321.812,486.992z"/>
				
					<ellipse transform="matrix(0.1607 -0.987 0.987 0.1607 -139.747 573.9108)" style="fill:#F3C7D1;" cx="267.581" cy="369.125" rx="24.744" ry="24.745"/>
			</g>
			<g>
				<path style="opacity:0.39;fill:#F3C7D1;" d="M407.929,443.588c-11.491,9.023-23.721,16.937-36.528,23.698      c-7.915,4.177-16.037,7.915-24.321,11.192l-4.292-19.614l-12.092-55.196l45.758-17.468l1.246,2.284L407.929,443.588z"/>
				<path style="fill:#F3C7D1;" d="M378.521,390.943c3.516,13.206-4.34,26.762-17.546,30.278      c-13.206,3.516-26.762-4.34-30.278-17.546c-3.516-13.206,4.34-26.762,17.546-30.278      C361.45,369.881,375.006,377.737,378.521,390.943z"/>
			</g>
			<g>
				<path style="opacity:0.39;fill:#F3C7D1;" d="M224.757,494.515c-23.421-2.815-46.543-9.045-68.534-18.829l10.522-60.804      l4.938,0.116l44.028,0.969l0.3,2.631l6.692,58.034L224.757,494.515z"/>
				<path style="fill:#F3C7D1;" d="M215.839,421.124c-1.725,13.557-14.113,23.148-27.67,21.424      c-13.557-1.725-23.148-14.113-21.423-27.67c1.725-13.557,14.113-23.148,27.67-21.423      C207.972,395.179,217.563,407.567,215.839,421.124z"/>
			</g>
		</g>
		<g>
			<g>
				<path style="fill:#FF5382;" d="M146.301,68.96c0,1.131-0.069,2.238-0.231,3.323c-1.615,11.538-11.515,20.376-23.467,20.376      c-11.722,0-21.414-8.469-23.329-19.614c10.868-9.369,22.429-17.722,34.543-24.967c0.669,0.369,1.315,0.761,1.939,1.2      C142.125,53.5,146.301,60.746,146.301,68.96z"/>
			</g>
			<g>
				<path style="fill:#FF5382;" d="M157.17,35.686c-0.854,0.415-1.684,0.808-2.538,1.223c8.123,8.238,13.13,19.499,13.13,31.936      c0,2.954-0.277,5.838-0.831,8.63c-4.038,20.998-22.545,36.874-44.674,36.874c-17.63,0-32.951-10.061-40.474-24.76      c-0.692,0.669-1.338,1.361-1.984,2.054c8.168,15.091,24.137,25.383,42.458,25.383c23.514,0,43.151-16.914,47.351-39.251      c0.554-2.884,0.831-5.884,0.831-8.93C170.438,56.015,165.408,44.339,157.17,35.686z"/>
			</g>
		</g>
		<g>
			<g>
				<path style="fill:#F3C7D1;" d="M170.49,223.055c-0.007,0-0.015,0-0.023,0l-60.718-1.685c-0.311-0.009-0.59-0.192-0.723-0.474      c-0.134-0.282-0.096-0.613,0.095-0.859l39.353-50.599c0.181-0.232,0.468-0.352,0.764-0.312c0.292,0.042,0.54,0.235,0.651,0.507      l21.365,52.284c0.106,0.258,0.074,0.552-0.085,0.782C171.014,222.921,170.761,223.055,170.49,223.055z M111.424,219.764      l57.822,1.603l-20.345-49.789L111.424,219.764z"/>
				<path style="fill:#F3C7D1;" d="M149.125,170.771c-0.324,0-0.631-0.192-0.763-0.512c-0.175-0.42,0.026-0.904,0.448-1.077      l44.479-18.349l1.111-43.314c0.011-0.455,0.39-0.744,0.846-0.805c0.456,0.012,0.816,0.392,0.804,0.847l-1.124,43.851      c-0.008,0.326-0.208,0.617-0.51,0.742l-44.977,18.553C149.338,170.749,149.231,170.771,149.125,170.771z"/>
			</g>
			<path style="fill:#F3C7D1;" d="M154.266,171.169c0,2.928-2.374,5.302-5.302,5.302c-2.928,0-5.302-2.374-5.302-5.302     c0-2.928,2.374-5.302,5.302-5.302C151.892,165.866,154.266,168.24,154.266,171.169z"/>
			<path style="fill:#F3C7D1;" d="M199.435,152.708c0,2.928-2.374,5.302-5.302,5.302c-2.928,0-5.302-2.374-5.302-5.302     c0-2.928,2.374-5.302,5.302-5.302C197.061,147.406,199.435,149.78,199.435,152.708z"/>
			<circle style="fill:#F3C7D1;" cx="194.918" cy="106.754" r="5.302"/>
			<circle style="fill:#F3C7D1;" cx="171.352" cy="221.836" r="5.302"/>
			<circle style="fill:#F3C7D1;" cx="109.687" cy="219.872" r="5.302"/>
		</g>
		<g>
			<polygon style="fill:#FDBC08;" points="247.869,78.38 226.98,67.448 233.243,90.179 222.77,69.047 214.489,91.127 218.44,67.874      198.756,80.869 215.62,64.385 192.059,63.326 215.385,59.888 196.955,45.184 217.844,56.116 211.581,33.386 222.054,54.517      230.335,32.437 226.384,55.69 246.068,42.695 229.204,59.179 252.765,60.238 229.439,63.676    "/>
			<polygon style="fill:#FDBC08;" points="240.799,293.422 219.91,282.49 226.173,305.221 215.7,284.089 207.419,306.169      211.37,282.916 191.686,295.911 208.55,279.427 184.989,278.368 208.315,274.93 189.885,260.226 210.774,271.158      204.511,248.428 214.984,269.559 223.265,247.479 219.314,270.732 238.998,257.737 222.134,274.221 245.695,275.28      222.369,278.718    "/>
			<polygon style="fill:#FDBC08;" points="444.925,383.221 424.036,372.288 430.298,395.019 419.826,373.888 411.545,395.967      415.496,372.714 395.812,385.709 412.676,369.226 389.115,368.166 412.441,364.728 394.011,350.024 414.9,360.956      408.637,338.226 419.11,359.357 427.391,337.278 423.44,360.53 443.124,347.536 426.26,364.019 449.82,365.079 426.495,368.517         "/>
			<polygon style="fill:#FDBC08;" points="87.261,204.854 66.371,193.921 72.634,216.652 62.162,195.521 53.881,217.6      57.832,194.347 38.148,207.342 55.011,190.859 31.451,189.799 54.777,186.361 36.346,171.657 57.236,182.589 50.973,159.859      61.446,180.99 69.726,158.91 65.776,182.163 85.46,169.169 68.596,185.652 92.156,186.712 68.83,190.15    "/>
		</g>
		<g>
			<path style="fill:#FFFFFF;" d="M116.364,142.889c0,3.688-2.989,6.677-6.677,6.677c-3.688,0-6.677-2.989-6.677-6.677     c0-3.688,2.989-6.677,6.677-6.677C113.374,136.212,116.364,139.202,116.364,142.889z"/>
			<path style="fill:#FFFFFF;" d="M157.212,142.889c0,3.688-2.989,6.677-6.677,6.677c-3.688,0-6.677-2.989-6.677-6.677     c0-3.688,2.989-6.677,6.677-6.677C154.223,136.212,157.212,139.202,157.212,142.889z"/>
			<circle style="fill:#FFFFFF;" cx="210.236" cy="206.518" r="6.677"/>
			<circle style="fill:#FFFFFF;" cx="218.484" cy="358.52" r="6.677"/>
			<circle style="fill:#FFFFFF;" cx="328.067" cy="358.52" r="6.677"/>
			<path style="fill:#FFFFFF;" d="M300.77,324.546c0,3.688-2.99,6.677-6.677,6.677s-6.677-2.99-6.677-6.677s2.99-6.677,6.677-6.677     S300.77,320.858,300.77,324.546z"/>
			<circle style="fill:#FFFFFF;" cx="466.912" cy="294.695" r="6.677"/>
			<circle style="fill:#FFFFFF;" cx="267.384" cy="31.735" r="6.677"/>
			<path style="fill:#FFFFFF;" d="M147,441.395c0,3.688-2.989,6.677-6.677,6.677c-3.688,0-6.677-2.989-6.677-6.677     s2.989-6.677,6.677-6.677C144.01,434.718,147,437.707,147,441.395z"/>
		</g>
	</g>
</g>















</svg>
