<svg id="Capa_1" enable-background="new 0 0 512.002 512.002" height="512" viewBox="0 0 512.002 512.002" width="512" xmlns="http://www.w3.org/2000/svg"><g><path d="m203.501 37.5c0-4.143-3.358-7.5-7.5-7.5h-22.5v-22.5c0-4.143-3.358-7.5-7.5-7.5s-7.5 3.357-7.5 7.5v22.5h-22.5c-4.142 0-7.5 3.357-7.5 7.5s3.358 7.5 7.5 7.5h22.5v459.5c0 4.143 3.358 7.5 7.5 7.5s7.5-3.357 7.5-7.5v-459.5h22.5c4.142 0 7.5-3.357 7.5-7.5z"/><path d="m360.085 176.408c-11.1-20.35-21.584-39.57-21.584-78.908 0-28.948-23.551-52.5-52.5-52.5s-52.5 23.552-52.5 52.5c0 39.338-10.484 58.559-21.584 78.908-11.512 21.105-23.416 42.93-23.416 86.092 0 4.143 3.358 7.5 7.5 7.5h27.163c-2.998 5.286-4.663 11.287-4.663 17.5v177c0 4.143 3.358 7.5 7.5 7.5h22.5v17.095l-24.872 8.29c-3.93 1.31-6.053 5.558-4.744 9.487 1.048 3.143 3.974 5.13 7.114 5.13.786 0 1.586-.125 2.373-.387l30-10c3.063-1.021 5.128-3.887 5.128-7.115v-22.5h45v22.5c0 3.229 2.066 6.095 5.128 7.115l30 10c.787.262 1.586.387 2.373.387 3.14 0 6.066-1.987 7.114-5.13 1.31-3.93-.814-8.178-4.744-9.487l-24.872-8.29v-17.095h22.5c4.142 0 7.5-3.357 7.5-7.5v-177c0-6.213-1.665-12.214-4.663-17.5h27.163c4.142 0 7.5-3.357 7.5-7.5.002-43.162-11.902-64.986-23.414-86.092zm-74.084-116.408c12.242 0 23.131 5.898 29.98 15h-59.959c6.848-9.102 17.737-15 29.979-15zm-36.745 30h73.491c.494 2.424.755 4.932.755 7.5 0 20.678-16.822 37.5-37.5 37.5s-37.5-16.822-37.5-37.5c-.001-2.568.26-5.076.754-7.5zm-.755 44.192c9.537 9.745 22.821 15.808 37.5 15.808s27.963-6.063 37.5-15.808v30.808h-75zm0 45.808h75v23.617c-11.105 7.452-23.99 11.383-37.5 11.383-13.511 0-26.395-3.931-37.5-11.383zm0 41.001c11.529 5.911 24.27 8.999 37.5 8.999s25.971-3.089 37.5-9v34h-75zm60 66.499v139.5h-45v-139.5c0-6.968 3.645-13.52 9.613-17.5h25.774c5.968 3.98 9.613 10.532 9.613 17.5zm-104.867-32.5c1.248-34.366 11.081-52.396 21.451-71.408 2.843-5.213 5.71-10.471 8.416-16.082v87.49zm134.867 202h-105v-169.5c0-6.967 3.645-13.519 9.613-17.5h10.055c-2.998 5.286-4.667 11.286-4.667 17.5v147c0 4.143 3.358 7.5 7.5 7.5h60c4.142 0 7.5-3.357 7.5-7.5v-147c0-6.214-1.669-12.214-4.667-17.5h10.055c5.968 3.981 9.613 10.533 9.613 17.5v169.5zm0-202v-87.49c2.706 5.611 5.573 10.869 8.416 16.082 10.37 19.012 20.203 37.042 21.451 71.408z"/></g></svg>