<?xml version="1.0" encoding="iso-8859-1"?>
<!-- Generator: Adobe Illustrator 26.5.1, SVG Export Plug-In . SVG Version: 6.00 Build 0)  -->
<svg xmlns="http://www.w3.org/2000/svg" xmlns:xlink="http://www.w3.org/1999/xlink" version="1.1" id="Capa_1" x="0px" y="0px" viewBox="0 0 512 512" style="enable-background:new 0 0 512 512;" xml:space="preserve">
<g>
	<path style="fill:#FFFFFF;" d="M256,512c-53.297,0-104.385-16.222-147.741-46.913c-42.397-30.012-74.32-71.507-92.316-119.998   c-5.357-14.414-9.416-29.38-12.063-44.476C1.305,285.991,0,270.978,0,256c0-68.378,26.629-132.664,74.983-181.017   C123.335,26.629,187.622,0,256,0c68.378,0,132.664,26.629,181.018,74.983C485.37,123.336,512,187.622,512,256   c0,26.25-3.961,52.136-11.772,76.938c-1.766,5.621-3.751,11.241-5.898,16.698c-2.144,5.45-4.506,10.885-7.021,16.153   c-20.481,43.096-52.562,79.586-92.766,105.512C353.253,497.927,305.346,512,256,512z"/>
	<g>
		<g>
			<g>
				<path style="fill:#6E72FF;" d="M502.376,256c0,25.802-3.965,50.671-11.327,74.047c-1.708,5.438-10.332,10.842-12.405,16.112      c-2.073,5.269,2.406,10.403-0.02,15.484C439.078,444.853,354.252,502.376,256,502.376      c-105.913,0-196.225-66.839-231.035-160.635c-2.497-6.719,12.557-13.908,10.644-20.891      c-1.994-7.279-20.929-14.362-22.251-21.898C10.904,285.007,9.624,270.648,9.624,256C9.624,119.935,119.935,9.624,256,9.624      S502.376,119.935,502.376,256z"/>
			</g>
		</g>
		<g>
			<g>
				<g>
					<g>
						<path style="fill:#E36352;" d="M356.292,48.207c-83.229-30.822-175.678,11.667-206.5,94.896l-0.257,0.695l116.83,43.265        c0.078-0.238,0.161-0.464,0.248-0.698c6.928-18.709,27.715-50.423,46.415-43.498c18.709,6.928,60.495,25.357,53.567,44.066        c-0.087,0.235,62.307,60.056,62.211,60.287l22.121,8.192l0.257-0.695C482.006,171.487,439.521,79.029,356.292,48.207z"/>
					</g>
				</g>
				<g>
					<g>
						<path style="fill:#FFC063;" d="M348.1,70.327c-71.009-26.296-149.891,9.958-176.188,80.967l-0.257,0.695l94.709,35.073        c0.078-0.238,0.161-0.464,0.248-0.698c6.928-18.709,26.733-40.758,45.433-33.833c18.709,6.928,47.964,21.343,41.035,40.052        c-0.087,0.235,50.236,44.929,50.14,45.16l25.586,9.475l0.257-0.695C455.36,175.515,419.118,96.627,348.1,70.327z"/>
					</g>
				</g>
				<g>
					<g>
						<path style="fill:#C0D48C;" d="M338.628,95.904c-56.885-21.066-120.073,7.977-141.139,64.862        c-0.087,0.235-0.171,0.46-0.248,0.698l69.123,25.598c0.078-0.238-7.727-16.851-7.641-17.085        c6.928-18.709,36.341-25.354,55.041-18.429c18.709,6.928,45.998,35.35,39.069,54.059        c-0.087,0.235,28.361,23.714,28.265,23.945l22.12,8.192c0.096-0.231,0.18-0.457,0.266-0.692        C424.552,180.167,395.522,116.974,338.628,95.904z"/>
					</g>
				</g>
				<g>
					<g>
						<path style="fill:#B5E1E8;" d="M330.436,118.025c-44.665-16.541-94.286,6.268-110.827,50.933        c-0.087,0.235-0.174,0.469-0.248,0.698l47.003,17.406c0.078-0.238-5.025-13.411-4.938-13.645        c6.928-18.709,35.359-24.863,54.059-17.938c18.709,6.928,37.643,24.784,30.715,43.492c-0.087,0.235-0.518,10.335-0.614,10.566        l9.937,10.542l25.577,9.472c0.092-0.222,0.179-0.457,0.266-0.692C397.907,184.196,375.11,134.569,330.436,118.025z"/>
					</g>
				</g>
				<g>
					<g>
						<path style="fill:#412945;" d="M320.964,143.602c-30.541-11.31-64.468,4.287-75.778,34.828        c-0.087,0.235-0.17,0.46-0.248,0.698l21.426,7.934c0.078-0.238,0.161-0.464,0.248-0.698        c6.928-18.709,27.714-28.253,46.414-21.328c18.709,6.928,28.265,27.709,21.337,46.418c-0.087,0.235-0.17,0.46-0.266,0.691        l21.425,7.934c0.096-0.231,0.18-0.457,0.266-0.692C367.099,188.848,351.514,154.915,320.964,143.602z"/>
					</g>
				</g>
			</g>
			<g>
				<g>
					<g>
						<path style="fill:#F7EDE5;" d="M491.048,330.047c-1.708,5.438-3.602,10.796-5.674,16.065        c-2.073,5.269-4.325,10.449-6.75,15.531H298.596c6.429-6.958,13.955-12.973,21.221-14.503        c12.896-2.724,26.851,0.01,37.765,7.401c11.106-15.081,23.309-31.009,41.056-37.005c12.473-4.215,26.745-2.743,38.082,3.936        c11.347,6.679,19.566,18.44,21.924,31.384C466.132,341.288,477.642,331.626,491.048,330.047z"/>
					</g>
				</g>
				<g>
					<g>
						<path style="fill:#F7EDE5;" d="M312.287,105.111H77.45c6.429-6.958,13.955-12.973,21.221-14.503        c12.896-2.724,26.851,0.01,37.765,7.401c11.106-15.081,23.309-31.009,41.056-37.004c12.473-4.215,26.745-2.743,38.082,3.936        c11.347,6.679,19.566,18.44,21.924,31.384c8.248-12.742,21.394-23.184,36.571-23.05c11.02,0.096,21.539,5.919,28.641,14.33        C307.032,92.734,310.169,98.73,312.287,105.111z"/>
					</g>
				</g>
				<g>
					<g>
						<path style="fill:#F7EDE5;" d="M151.589,341.741H24.965c-5.101-13.724-9.018-28.025-11.607-42.789        c1.116-0.481,2.262-0.924,3.436-1.319c12.473-4.215,26.745-2.743,38.082,3.936c11.347,6.679,19.566,18.44,21.924,31.384        c8.248-12.742,21.394-23.184,36.571-23.05c11.02,0.096,21.539,5.919,28.641,14.33        C146.334,329.364,149.471,335.36,151.589,341.741z"/>
					</g>
				</g>
			</g>
			<g>
				<g>
					<g>
						<g>
							<g>
								<path style="fill:#B5E1E8;" d="M310.815,344.782c-0.031-0.009-0.065-0.027-0.102-0.025          c-0.369,0.389-0.596,0.659-0.563,0.676c0.322,0.154,0.76,0.196,1.277,0.158C311.365,345.214,311.188,344.92,310.815,344.782          z M251.681,366.844c0.324-0.233,0.564-0.46,0.668-0.7c0.217-0.483-0.349-0.995-1.115-1.511          C250.456,365.735,250.904,366.322,251.681,366.844z M269.686,321.969c-44.746,14.001-78.806,32.428-76.075,41.157          c2.069,6.613,24.635,5.766,54.898-1.107c-0.012,0.023-0.018,0.034-0.03,0.056c-0.442,0.79,1.451,1.68,2.754,2.556          c0.103-0.155,0.231-0.318,0.377-0.486c0.096-0.115,10.191-5.332,10.29-5.438c5.734-1.53,11.648-3.239,17.677-5.125          c7.637-2.39,14.951-4.905,21.833-7.473c1.834,0.399,7.42-1.906,9.302-1.353c1.148-1.219,3.639-3.669,3.518-3.725          c26.351-11.049,43.395-22.331,41.431-28.609C352.93,303.694,314.44,307.966,269.686,321.969z M311.427,345.591          c0.218,1.301-0.9,3.643,0.32,4.281c9.46,4.915,17.026,13.434,20.448,24.373c5.339,17.062-0.945,35.033-14.363,45.349          l2.831,9.047c18.146-12.136,26.972-35.226,20.132-57.087c-3.633-11.61-11.106-20.98-20.576-27.166          C318.743,343.415,314.043,345.443,311.427,345.591z M252.963,399.036c-2.992-9.563-2.334-19.409,1.191-28.028          c1.063-2.608-1.17-3.288-2.474-4.164c-1.84,1.303-6.562,2.506-7.021,3.906c-3.249,9.713-3.58,20.485-0.297,30.977          c7.015,22.42,28.304,36.503,50.746,35.382l-2.804-8.961C274.745,428.034,258.482,416.675,252.963,399.036z"/>
							</g>
						</g>
						<g>
							<g>
								<path style="fill:#412945;" d="M248.48,362.076l13.421-3.368c-3.152,3.536-5.969,7.93-7.746,12.3l-9.494-0.258          C245.656,367.747,246.936,364.835,248.48,362.076z"/>
							</g>
						</g>
						<g>
							<g>
								<path style="fill:#412945;" d="M320.219,344.388l-8.472,5.483c-3.243-1.704-6.725-2.966-10.336-3.762l12.988-5.105          C316.305,341.938,318.448,343.224,320.219,344.388z"/>
							</g>
						</g>
					</g>
					<g>
						<g>
							<path style="fill:#412945;" d="M329.084,320.701c1.214,3.88-20.805,14.224-49.182,23.103         c-28.377,8.879-52.365,12.931-53.579,9.05c-1.214-3.881,20.805-14.224,49.182-23.103         C303.882,320.873,327.87,316.821,329.084,320.701z"/>
						</g>
					</g>
				</g>
				<g>
					<g>
						<g>
							<polygon style="fill:#F8BDFF;" points="380.18,184.055 382.733,183.917 310.494,324.45 308.971,324.622 307.619,327.937          247.772,346.663 244.389,344.348 243.591,345.704 93.171,274.424 94.208,272.731 90.753,271.678 137.154,157.981          141.089,159.063 139.719,156.282 288.395,109.762 288.849,112.51 291.196,110.142 383.105,180.185        "/>
						</g>
					</g>
					<g>
						<g>
							<path style="fill:#F7EDE5;" d="M383.105,180.185l-66.435,52.38l-0.662,0.207l-44.591-78.721l19.78-43.91l-1.166-0.891         l-1.634,0.511l-19.486,43.251l-85.106,26.629l-44.085-23.36l-2.141,0.67l-0.424,1.03l45.183,23.942l2.717,91.426l-94.3-1.672         l-0.544,1.341l2.961,1.406l92.631,1.646l57.79,69.634l2.882,1.364l1.299-0.406c-0.051-0.163-0.137-0.316-0.257-0.458         l-58.746-70.789l125.637-39.311l-6.841,91.329c-0.012,0.174,0.002,0.339,0.053,0.503l1.29-0.404l1.585-3.083l6.686-89.137         c0-0.029-0.005-0.046-0.004-0.074l0.542-0.169c0.155-0.048,0.301-0.123,0.429-0.229l64.587-50.923l1.484-2.891         L383.105,180.185z M187.747,272.903l-2.697-90.819l84.211-26.349l44.106,77.862L187.747,272.903z"/>
						</g>
					</g>
				</g>
			</g>
			<g>
				<g>
					<g>
						<path style="fill:#F7EDE5;" d="M444.67,195.589l-10.916,2.724l-2.724,10.916c-0.526,2.106-3.519,2.106-4.045,0l-2.724-10.916        l-10.916-2.724c-2.106-0.526-2.106-3.519,0-4.045l10.916-2.724l2.724-10.916c0.526-2.106,3.519-2.106,4.045,0l2.724,10.916        l10.916,2.724C446.777,192.07,446.777,195.063,444.67,195.589z"/>
					</g>
				</g>
				<g>
					<g>
						<path style="fill:#F7EDE5;" d="M404.911,424.078l-15.951,3.981l-3.981,15.951c-0.768,3.078-5.142,3.078-5.91,0l-3.981-15.951        l-15.951-3.981c-3.078-0.768-3.078-5.142,0-5.91l15.951-3.981l3.981-15.951c0.768-3.078,5.142-3.078,5.91,0l3.981,15.951        l15.951,3.981C407.988,418.936,407.988,423.31,404.911,424.078z"/>
					</g>
				</g>
				<g>
					<g>
						<path style="fill:#F7EDE5;" d="M463.775,285.873l-11.05,2.758l-2.758,11.05c-0.532,2.132-3.562,2.132-4.094,0l-2.758-11.05        l-11.05-2.758c-2.132-0.532-2.132-3.562,0-4.094l11.05-2.758l2.758-11.05c0.532-2.132,3.562-2.132,4.094,0l2.758,11.05        l11.05,2.758C465.907,282.311,465.907,285.341,463.775,285.873z"/>
					</g>
				</g>
				<g>
					<g>
						<path style="fill:#F7EDE5;" d="M355.64,60.46l-9.478,2.365l-2.365,9.478c-0.456,1.829-3.055,1.829-3.512,0l-2.365-9.478        l-9.478-2.365c-1.829-0.456-1.829-3.055,0-3.512l9.478-2.365l2.365-9.478c0.456-1.829,3.056-1.829,3.512,0l2.365,9.478        l9.478,2.365C357.469,57.405,357.469,60.004,355.64,60.46z"/>
					</g>
				</g>
				<g>
					<g>
						<path style="fill:#F7EDE5;" d="M85.164,204.68l-15.951,3.981l-3.981,15.951c-0.768,3.078-5.142,3.078-5.91,0l-3.981-15.951        l-15.951-3.981c-3.078-0.768-3.078-5.142,0-5.91l15.951-3.981l3.981-15.951c0.768-3.078,5.142-3.078,5.91,0l3.981,15.951        l15.951,3.981C88.242,199.538,88.242,203.912,85.164,204.68z"/>
					</g>
				</g>
			</g>
			<g>
				<g>
					<path style="fill:#FFC063;" d="M86.189,376.133c1.595,4.514,3.001,7.792,4.219,9.836c1.217,2.043,2.959,3.501,5.227,4.373       c2.268,0.87,4.853,0.623,7.756-0.74c-2.356-2.242-4.012-4.168-4.974-5.782c-3.363-5.647-4.384-10.94-3.064-15.879       c1.32-4.939,4.87-9.13,10.652-12.574c5.78-3.443,11.522-4.477,17.224-3.1c5.7,1.375,10.378,5.13,14.029,11.26       c3.652,6.131,4.374,12.239,2.171,18.324c-2.206,6.084-7.501,11.626-15.891,16.622c-10.486,6.246-19.655,9.175-27.499,8.784       c-7.847-0.39-13.964-4.269-18.352-11.637c-5.446-9.143-6.636-14.626-3.57-16.451c1.614-0.961,3.915-1.896,6.91-2.804       C84.019,375.458,85.74,375.38,86.189,376.133z M122.642,372.017c-1.025-1.722-2.37-2.725-4.032-3.008       c-1.664-0.285-3.355,0.085-5.076,1.11c-1.721,1.026-2.777,2.401-3.169,4.129c-0.393,1.727-0.077,3.45,0.949,5.172       c1.025,1.72,2.233,2.895,3.628,3.523c3.71-2.21,6.176-4.154,7.401-5.83C123.567,375.436,123.667,373.737,122.642,372.017z"/>
				</g>
				<g>
					<path style="fill:#FFC063;" d="M134.352,452.207c-6.822-3.897-10.965-9.579-12.429-17.049       c-1.465-7.468,0.55-16.013,6.047-25.633c5.495-9.62,11.82-15.649,18.98-18.084c7.157-2.435,14.174-1.689,21.051,2.24       c6.875,3.927,11.036,9.547,12.481,16.861c1.445,7.313-0.643,15.89-6.262,25.728c-5.62,9.838-11.964,15.928-19.033,18.27       C148.118,456.88,141.173,456.102,134.352,452.207z M158.896,409.24c-2.093-1.196-4.535-1.023-7.325,0.519       c-2.791,1.541-5.429,4.487-7.912,8.835c-2.485,4.35-3.694,8.074-3.627,11.176c0.066,3.103,1.2,5.281,3.402,6.539       c2.202,1.258,4.662,1.114,7.383-0.432c2.721-1.545,5.323-4.491,7.808-8.84c2.484-4.348,3.673-8.103,3.568-11.262       C162.087,412.614,160.988,410.434,158.896,409.24z"/>
				</g>
				<g>
					<path style="fill:#FFC063;" d="M194.706,429.122c-0.871-0.101-1.727-0.324-2.569-0.675c-1.684-0.697-2.461-1.606-2.332-2.727       l2.271-19.68c0.129-1.119,1.559-1.772,4.29-1.962c1.335-0.097,2.685-0.069,4.054,0.089c1.367,0.158,2.721,0.441,4.061,0.848       c2.616,0.806,3.86,1.768,3.731,2.887l-7.867,19.035c-0.129,1.119-1.125,1.824-2.985,2.114       C196.461,429.199,195.576,429.223,194.706,429.122z"/>
				</g>
				<g>
					<path style="fill:#FFC063;" d="M223.843,454.716c5.6,1.938,9.837,2.598,12.715,1.981c1.837-0.393,2.617-1.232,2.341-2.518       c-0.197-0.918-2.045-1.77-5.541-2.557c-8.321-1.483-13.24-5.774-14.761-12.874c-0.97-4.529-0.058-8.342,2.736-11.437       c2.793-3.095,6.5-5.137,11.123-6.127c4.62-0.991,8.643-1.339,12.066-1.049c3.423,0.291,5.305,1.232,5.646,2.823       c0.289,1.347,0.01,3.262-0.833,5.748c-0.845,2.485-1.492,3.872-1.942,4.161c-2.947-0.905-5.95-1.03-9.01-0.375       c-1.652,0.354-2.354,1.114-2.105,2.276c0.158,0.734,0.614,1.294,1.367,1.675c0.754,0.383,2.07,0.775,3.947,1.171       c1.877,0.399,3.448,0.783,4.711,1.151c1.263,0.37,2.716,0.954,4.362,1.755c3.436,1.697,5.554,4.413,6.353,8.145       c1.049,4.898,0.275,9.208-2.319,12.932c-2.597,3.725-7.168,6.288-13.717,7.692c-4.346,0.93-8.452,1.041-12.315,0.333       c-3.865-0.708-6.072-2.348-6.624-4.918c-0.367-1.712-0.341-3.607,0.079-5.682C222.544,456.948,223.116,455.513,223.843,454.716       z"/>
				</g>
			</g>
		</g>
	</g>
</g>
<g>
</g>
<g>
</g>
<g>
</g>
<g>
</g>
<g>
</g>
<g>
</g>
<g>
</g>
<g>
</g>
<g>
</g>
<g>
</g>
<g>
</g>
<g>
</g>
<g>
</g>
<g>
</g>
<g>
</g>
</svg>
