<svg id="Layer_1" enable-background="new 0 0 512 512" viewBox="0 0 512 512" xmlns="http://www.w3.org/2000/svg"><path d="m286.4 166.1c24.9.6 45 3.9 63.9 12.2 14.1 6.2 26.7 14.8 38.7 24.4 18 14.5 32.6 32 43.8 52.1 5.5 9.9 8.7 20.9 11.2 32 2.5 11 4 22.1 3.6 33.4-.1 2.1.4 4.2.4 6.3.1 3.1-1.4 4.8-4.4 4.4-7.8-1-15.7-.8-23.5-1.2-1.6-.1-2.3-.5-2.7-2.3-6.6-36.9-27.9-63.1-60.4-80.2-32.6-17.1-66.3-17.6-100.4-3.9-22.1 8.9-37.6 24.2-46.9 46-2.4 5.7-2.2 11.9-3.4 17.8-1.3 6.2-1.1 12.5-1 18.7 0 1.8-.1 2.4-2.5 2.1-3.9-.5-8 .1-12 .3-16.3 1-32.6 2-48.9 2.6-1.7.1-3.4.3-5.1.6-2.7.4-4.3-.6-5.3-3.3-2.6-6.6-2.9-13.4-2.1-20.4 3-25 10.3-48.3 24.7-69.2 12.8-18.6 29.5-32.9 47.7-46 26.7-18.8 56.9-25.6 84.6-26.4z" fill="#3981bf"/><g><g><path d="m205.4 323.4c-4.1-4.9-8.4-9.4-11.3-15-1.8-3.7-4.2-7-6.8-10.3-4-5.1-3.9-11.4-4.1-17.6-.3-8.8 2.9-16 8.6-22.8 12.2-14.3 27.3-24 44.4-31.4 12.6-5.4 25.1-10.9 38.5-13.6 17.4-3.4 34.8-3.5 52.3.6 14.3 3.3 27.9 8.1 40.7 14.7 8.4 4.3 16.3 9.7 24.6 14.5 2.2 1.3 3.9 3.2 5.7 5 9 9.1 16.5 19.5 23.8 30 4 5.8 7 12.3 10.4 18.5 1.5 2.9 2 6 1.6 9.2-.8 6.3-1.3 12.6.7 18.8.1.4.1.8.1 1.3.4 4.6.4 4.7-4.3 4.6-3.8-.1-7.6.3-11.4-.4-1.3-.2-2-.7-2.1-2.2-1.9-17.4-9.8-32.3-20.1-46.1-18.6-25.1-43.9-39.4-74.3-45.2-25.6-4.9-49.6.3-72.9 11.2-19.2 8.9-31.3 24-39.7 42.6-2.1 4.6-2 9.7-2.8 14.6-.9 6.3-1.8 12.5-1.6 19z" fill="#db5e6e"/></g></g><g><path d="m203.4 250.9c-9.8 7.5-15.3 3.9-15.3-5-4.7 4.7-8.8 9.5-12.6 14.5-2 2.7-3.9 5.6-5.9 8.3-1.4 1.9-3.1 3.2-5.4 1.6-2.2-1.6-1.1-3.6.2-5.3 5.9-7.4 11.8-14.7 17.8-21.9 17.9-21.7 41-35.7 67.1-44.7 33.5-11.7 67.6-11.8 99.8 3.7 31.3 15 56.7 37.8 73.6 68.8 6 11 11.7 22.1 15.1 34.2 2.2 7.8 1.5 16 3.1 23.9.3 1.5-.4 1.7-1.8 1.6-3.9-.3-7.8-.4-11.7-.5-1.2 0-2.2 0-2.4-1.7-2.4-19.4-10.7-36.5-22.2-52-25.3-34.4-59-54.8-102-58.3-21.6-1.8-41.6 4-60.8 13.2-9.7 4.6-18.6 10.5-26.7 17.7-2.1 1.8-4.1 3.8-5.4 6.2-1 1.8-2.4 2.9-4.4 1.8s-1.8-2.9-.8-4.6c.3-.6.5-1 .7-1.5z" fill="#fab03c"/></g><path d="m217.8 281.4c8-4.1 15.8-3.7 22.7.8 5.4 3.5 8.3 9.5 11 15.2 1.7 3.6 1.4 7.4 1.1 11.3-.4 4.7-.4 4.7 4.1 4.5 1.5-.1 3 0 4.5-.2 11.5-.9 17.3 10.1 17.3 18.3-.1 5.6-6 11.8-12.6 12.8-3.7.6-7.3.8-11 .8-46.2-.1-92.4-.1-138.6 0-4.7 0-9.5.6-14.2.8-8.2.4-16.3-.9-23.1-6.8-4-3.5-6.7-7.5-9.4-12-4.2-6.9-5.2-14-5.5-21.5-.2-6.9 2.2-13.4 5.9-19.2 2.4-3.8 5.2-7.3 8-10.7 5.7-7.1 13.2-9 21.9-7 1.2.3 2.9 1.5 3.2-1.3 1.1-10.4 7.1-18 14.6-24.5 5.3-4.6 10.8-8.9 17-12.3 9.2-4.9 18.9-7.5 29.3-6.9 3.9.2 7.9-.1 11.7 1.3 16.1 6.1 29.8 15.3 37.8 31.2 3.5 7 4.4 14.6 4.5 22.3-.2 1-.2 1.8-.2 3.1z" fill="#aed6f2"/><path d="m106.6 283.6c-.1-2.3-1.7-3-4-2.8-17.3.3-29.6 13.8-27.8 30.8 1.1 9.9 6.1 17.3 14.6 22.3 1.8 1 3.6 1.1 4.6-1 1-1.9.1-3.2-1.7-4.1-.4-.2-.8-.4-1.1-.6-12-7.5-16-27.5-1.5-37.5 4.1-2.8 8.7-3.7 13.5-4 2.1-.1 3.6-1 3.4-3.1z"/><path d="m159.6 243.2c.3 0 1.5.1 2.7 0 1.6-.2 2.5-1.1 2.6-2.7s-.8-2.6-2.3-3c-.6-.1-1.3-.1-1.9-.2-17.8-.5-30.9 7.6-40.2 22.4-1.9 3-3 6.3-3.5 9.8-.3 2.1 0 4 2.5 4.3 2.3.2 3.1-1.3 3.3-3.4.3-2.8 1.3-5.4 2.7-7.7 7.7-12.3 18.4-19.4 34.1-19.5z"/><path d="m175.1 247c3.1 1.9 6.3 3.8 9.6 5.4 1.7.8 3.6-.9 3.6-3.1-.1-.3-.2-1.1-.6-1.4-3-2.5-6.5-4.4-10.1-5.7-1.3-.5-2.5.4-3.1 1.6-.5 1.1-.4 2.5.6 3.2z"/><path d="m193 260.7c.1 2 2.5 4.7 4.2 4.5 1.9-.2 2.9-1.3 2.8-3.2-.1-2-2.5-4.6-4.3-4.5-1.8.3-2.8 1.3-2.7 3.2z"/></svg>