<?xml version="1.0" encoding="UTF-8"?>
<!-- Generator: Adobe Illustrator 25.4.1, SVG Export Plug-In . SVG Version: 6.00 Build 0)  -->
<svg xmlns="http://www.w3.org/2000/svg" xmlns:xlink="http://www.w3.org/1999/xlink" version="1.1" id="Capa_1" x="0px" y="0px" viewBox="0 0 512 512" style="enable-background:new 0 0 512 512;" xml:space="preserve" width="512" height="512">
<g>
	<g>
		<path d="M252.44,302.337c-16.343-13.354-32.214-26.549-48.34-39.424c-12.046-9.617-24.676-18.508-36.598-28.27    c-25.798-21.123-46.771-45.943-57.138-78.35c-12.1-37.822-7.642-73.508,15.838-105.772c15.911-21.863,38.648-32.131,65.344-34.561    c20.342-1.851,40.191,1.446,60.198,4.128c15.657,2.099,31.487,3.735,47.254,3.868c8.868,0.075,17.941-2.727,26.6-5.31    c8.243-2.459,14.277-8.554,19.327-15.434c2.877-3.92,4.722-4.284,8.159-0.92c4.625,4.528,6.38,10.335,6.844,16.631    c0.831,11.267-3.355,20.794-10.248,29.343c-3.196,3.963-6.546,7.801-9.826,11.696c-0.441-0.284-0.881-0.569-1.321-0.853    c0.504,0.406,0.956,0.917,1.521,1.202c20.594,10.373,32.87,33.122,30.277,56.026c-1.3,11.476-4.406,22.251-11.287,31.766    c-6.096,8.429-14.494,13.737-23.713,17.916c-3.761,1.705-5.107,0.205-4.624-4.027c1.664-14.561-0.322-28.696-6.037-42.156    c-15.734-37.058-42.55-61.374-82.418-69.682c-14.409-3.002-29.143-3.236-43.555,1.105c-9.813,2.955-17.548,8.824-23.675,16.953    c-6.005,7.966-6.818,16.604-3.721,25.914c3.898,11.717,11.576,20.764,21.218,27.769c33.422,24.28,66.929,48.459,100.883,71.984    c23.385,16.202,44.142,34.865,60.549,58.158c3.245,4.607,5.805,9.702,8.617,14.609c1.718,2.998,0.549,4.62-2.361,6.319    c-7.97,4.652-16.017,9.294-23.403,14.788c-7.437,5.531-12.357,13.351-15.923,22.306    C299.261,294.409,276.672,289.051,252.44,302.337z"/>
		<path d="M138.01,427.816c-2.012-2.216-3.92-4.063-5.535-6.138c-9.683-12.445-14.622-26.671-15.442-42.338    c-1.154-22.062,3.664-42.556,16.642-60.731c8.526-11.939,19.415-20.774,34.011-24.117c3.291-0.754,6.841-0.639,10.251-0.477    c1.262,0.06,2.609,1.264,3.596,2.263c0.266,0.27-0.42,1.923-1.05,2.569c-14.643,15.021-21.522,33.373-21.826,53.974    c-0.374,25.357,7.11,48.224,25.156,66.671c14.537,14.86,33.174,21.501,53.271,24.514c14.456,2.167,28.434,0.4,41.306-6.825    c16.493-9.257,24.931-23.782,24.292-42.495c-0.564-16.509-7.734-30.746-18.644-43.204c-8.202-9.365-17.884-16.32-29.738-20.055    c-3.076-0.969-6.425-1.297-9.671-1.443c-4.986-0.225-7.686-3.22-5.365-7.536c2.189-4.069,5.25-8.204,8.975-10.816    c14.242-9.987,30.096-11.609,46.75-7.405c9.779,2.468,18.442,6.95,25.784,13.918c0.727,0.69,1.569,1.26,2.583,2.065    c5.11-18.189,15.765-31.495,32.667-39.227c15.666-7.166,31.79-7.909,47.942-1.443c1.699,0.68,2.915,2.566,4.355,3.893    c-1.255,1.301-2.384,2.762-3.788,3.874c-4.199,3.325-8.96,6.069-12.675,9.852c-7.119,7.249-9.771,15.863-7.693,26.313    c2.474,12.444,4.216,25.08,5.464,37.713c2.773,28.077-4.027,54.216-20.22,76.985c-17.02,23.931-41.073,38.123-70.209,42.76    c-22.313,3.552-44.05-0.901-65.758-5.749c-15.588-3.481-31.263-7.335-47.101-8.735c-18.034-1.594-35.564,2.066-50.235,13.992    c-8.863,7.205-14.588,16.152-14.448,28.115c0.014,1.21-1.141,3.43-1.795,3.446c-1.405,0.034-3.254-0.698-4.189-1.761    c-5.663-6.43-8.912-14.005-10.67-22.412c-3.38-16.163-0.261-30.894,8.904-44.472c5.354-7.933,12.52-13.167,22.117-14.756    C136.567,428.508,137.073,428.193,138.01,427.816z"/>
	</g>
	<g>
		<path style="fill:#FFFFFF;" d="M340.146,403.201c-7.924-14.012-15.857-28.019-23.748-42.05c-0.425-0.757-0.509-1.709-0.731-2.575    c-1.088-4.241-1.666-8.724,2.68-11.263c4.166-2.434,8.185-0.309,11.405,2.606c2.408,2.18,4.353,4.87,6.305,7.105    c2.684-3.346,5.302-7.146,8.475-10.407c2.783-2.861,6.338-4.809,10.515-2.607c3.925,2.069,4.467,5.773,3.991,9.683    c-1.976,16.228-8.345,31.101-14.428,46.047c-0.529,1.3-1.761,2.313-2.667,3.46C341.344,403.201,340.745,403.201,340.146,403.201z"/>
		<g>
			<path style="fill:#FFFFFF;" d="M144.191,93.214c-3.761,126.167,129.474,91.972,154.024,179.316     c-0.457,0.209-0.914,0.418-1.371,0.627c-17.443-38.984-57.383-49.171-92.888-65.885c-41.342-20.077-76.054-66.731-61.562-114.057     C142.992,93.214,143.592,93.214,144.191,93.214z"/>
			<g>
				<path style="fill:#FFFFFF;" d="M249.106,260.525c-4.992,0-9.197-4.07-9.29-8.992c-0.092-4.848,3.644-8.891,8.186-8.858      c4.585,0.033,8.971,4.872,9.046,9.981C257.114,257.105,253.662,260.525,249.106,260.525z"/>
				<path style="fill:#FFFFFF;" d="M198.631,156.645c0.014,4.346-3.237,7.652-7.546,7.675c-4.479,0.024-8.326-3.539-8.223-7.618      c0.101-4.026,4.129-7.855,8.233-7.827C195.279,148.903,198.617,152.344,198.631,156.645z"/>
			</g>
		</g>
	</g>
</g>















</svg>
