<?xml version="1.0" encoding="UTF-8"?>
<!-- Generator: Adobe Illustrator 25.2.0, SVG Export Plug-In . SVG Version: 6.00 Build 0)  -->
<svg xmlns="http://www.w3.org/2000/svg" xmlns:xlink="http://www.w3.org/1999/xlink" version="1.1" id="Capa_1" x="0px" y="0px" viewBox="0 0 500 500" style="enable-background:new 0 0 500 500;" xml:space="preserve" width="512" height="512">
<g>
	<path d="M308.118,312.664c3.222-2.453,6.246-4.714,9.226-7.031c18.574-14.444,37.108-28.94,55.729-43.324   c4.316-3.334,8.886-6.346,13.397-9.423c6.335-4.321,12.673-4.181,19.247-0.255c6.809,4.065,12.537,9.468,18.666,14.375   c2.528,2.024,4.884,4.261,7.357,6.356c2.915,2.47,3.867,5.9,4.301,9.413c0.153,1.236-0.646,2.833-1.478,3.9   c-2.393,3.073-4.965,6.015-7.573,8.911c-13.654,15.158-28.657,28.87-44.569,41.618c-14.288,11.446-28.497,22.991-42.772,34.454   c-0.974,0.782-1.176,1.362-0.605,2.528c11.19,22.854,22.581,45.599,35.13,67.751c3.218,5.681,6.077,11.572,8.952,17.439   c1.146,2.339,0.617,4.05-1.409,5.735c-1.1,0.915-2.312,1.738-3.579,2.401c-13.307,6.954-26.791,13.482-41.232,17.855   c-3.041,0.921-5.484,0.359-7.652-1.556c-2.012-1.777-3.884-3.758-5.575-5.846c-7.062-8.721-12.413-18.534-17.822-28.302   c-5.989-10.813-11.926-21.654-17.925-32.461c-0.925-1.666-2.064-3.214-3.218-4.993c-0.755,0.498-1.394,0.903-2.016,1.333   c-23.353,16.18-47.118,31.692-72.386,44.775c-16.576,8.582-33.648,15.953-51.883,20.211c-22.748,5.312-44.955,3.797-65.889-7.103   c-24.035-12.514-36.692-32.559-37.691-59.72c-0.715-19.414,4.696-37.392,13.499-54.448c9.672-18.742,22.037-35.59,36.544-50.875   c26.195-27.599,53.936-53.52,83.838-77.087c1.231-0.97,1.397-1.698,0.704-3.095c-15.194-30.607-27.487-62.371-37.503-95.014   c-4.374-14.256-7.459-28.82-8.669-43.719c-1.08-13.291,0.588-26.261,5.249-38.768c4.624-12.406,13.41-21.48,24.028-28.905   c13.061-9.133,27.686-14.517,43.283-17.384c26.878-4.941,52.962-2.364,78.129,8.461c3.358,1.445,6.65,3.082,9.85,4.851   c25.373,14.016,40.942,35.491,47.819,63.424c2.71,11.005,4.347,22.209,2.923,33.554c-2.177,17.354-6.866,33.963-15.674,49.242   c-10.378,18.002-23.854,33.536-38.718,47.864c-9.064,8.738-18.725,16.86-28.165,25.205c-0.984,0.87-1.199,1.501-0.605,2.712   c11.866,24.193,23.688,48.408,35.523,72.616C307.24,311.031,307.615,311.704,308.118,312.664z M216.344,281.908   c-0.77,0.632-1.339,1.056-1.86,1.532c-10.231,9.35-20.563,18.592-30.657,28.088c-15.017,14.128-28.647,29.555-41.6,45.57   c-7.871,9.732-13.932,20.542-17.995,32.419c-1.543,4.511-2.506,9.125-2.414,13.937c0.078,4.06,2.064,6.858,5.808,7.963   c2.459,0.726,5.235,1.047,7.77,0.738c15.452-1.886,30.055-6.772,44.115-13.288c25.271-11.711,48.363-27.02,70.904-43.226   c1.303-0.937,0.868-1.664,0.375-2.681c-10.442-21.54-20.869-43.088-31.301-64.633C218.496,286.28,217.487,284.242,216.344,281.908z    M244.806,183.435c0.449-0.309,0.864-0.536,1.211-0.841c9.358-8.252,18.965-16.246,27.992-24.846   c9.32-8.879,17.575-18.732,23.409-30.374c1.946-3.884,3.675-7.866,4.132-12.215c1.841-17.531-3.323-32.84-15.073-45.885   c-4.458-4.949-10.103-8.258-16.442-10.331c-5.622-1.839-11.378-2.977-17.304-3.093c-12.398-0.243-23.573,3.201-33.198,11.183   c-5.171,4.288-8.398,9.745-8.977,16.47c-0.363,4.223-0.507,8.52-0.167,12.736c0.738,9.158,3.536,17.864,6.601,26.471   c7.388,20.747,17.461,40.275,27.259,59.926C244.378,182.894,244.58,183.115,244.806,183.435z M238.997,14.703   c-6.71,0.034-12.003,5.329-11.992,11.998c0.012,7.824,5.276,13.752,12.221,13.761c6.911,0.009,12.491-5.753,12.484-12.891   C251.702,20.389,246.049,14.667,238.997,14.703z M296.152,371.356c0.021-6.922-5.301-12.504-11.965-12.548   c-6.841-0.045-12.522,5.812-12.533,12.923c-0.01,6.691,5.254,11.959,12.01,12.018C290.651,383.809,296.13,378.371,296.152,371.356z    M254.593,261.174c-0.028-5.705-3.61-10.568-8.827-11.984c-4.985-1.353-10.214,0.792-12.838,5.267   c-3.118,5.316-2.676,11.867,1.062,15.727c3.379,3.49,8.433,4.562,12.915,2.741C251.618,271.009,254.619,266.423,254.593,261.174z    M185.489,89.447c-0.003-6.724-5.166-11.97-11.78-11.969c-6.735,0.001-12.116,5.517-12.08,12.383   c0.036,6.831,5.376,12.357,11.939,12.353C180.221,102.211,185.492,96.565,185.489,89.447z M209.549,203.268   c6.432,0.005,11.559-4.989,11.594-11.293c0.037-6.778-5.343-12.228-12.038-12.196c-6.441,0.031-11.61,5.143-11.638,11.511   C197.438,197.855,202.892,203.262,209.549,203.268z M329.064,137.604c0-0.721-0.006-1.201,0.001-1.681   c0.088-5.976-4.342-10.151-10.361-9.759c-7.204,0.469-12.586,7.962-10.856,15.116c1.371,5.666,6.821,9.375,12.464,8.481   c5.677-0.899,9.183-5.562,8.783-11.68C329.079,137.842,329.064,137.603,329.064,137.604z M191.421,271.991   c6.404,0.029,12.059-5.369,12.129-11.576c0.069-6.108-4.991-11.085-11.289-11.103c-6.49-0.02-11.78,5.131-11.834,11.52   C180.376,267.006,185.259,271.963,191.421,271.991z M314.415,68.163c6.335,0.04,11.4-4.903,11.451-11.172   c0.051-6.325-5.04-11.454-11.382-11.467c-6.248-0.012-11.635,5.204-11.675,11.305C302.768,62.939,308.077,68.123,314.415,68.163z    M140.716,456.442c6.304-0.017,11.162-4.699,11.166-10.762c0.004-5.973-5.684-11.338-11.973-11.292   c-6.198,0.045-11.286,5.008-11.275,10.996C128.644,451.496,134.068,456.46,140.716,456.442z M323.587,400.386   c-0.028-6.15-4.889-11.049-10.923-11.008c-6.115,0.041-11.168,5.197-11.11,11.336c0.055,5.804,5.176,10.941,10.931,10.965   C318.625,411.705,323.616,406.628,323.587,400.386z M116,327.366c-6.207-0.053-11.276,4.668-11.355,10.577   c-0.08,5.953,4.794,10.842,10.858,10.891c6.31,0.051,11.622-5.049,11.717-11.246C127.311,331.542,122.791,327.424,116,327.366z    M269.963,209.825c8.356-0.03,12.975-8.036,10.027-14.176c-0.282-0.587-0.407-1.252-0.585-1.886   c-0.772-2.744-2.556-4.569-5.169-5.59c-3.922-1.531-8.815-0.293-11.998,3.126c-3.234,3.473-4.145,7.506-2.36,11.967   C261.489,207.294,265.489,209.826,269.963,209.825z M411.45,280.357c0.07-5.453-4.039-10.035-9.658-10.771   c-5.795-0.758-11.154,3.13-12.626,9.16c-1.337,5.478,0.925,9.215,6.891,11.373c0.563,0.204,1.136,0.396,1.718,0.532   C404.711,292.264,411.362,287.253,411.45,280.357z M221.976,405.307c-5.939,0.01-10.835,4.935-10.862,10.926   c-0.026,5.841,4.631,10.544,10.47,10.572c6.077,0.029,10.975-4.898,10.932-10.997C232.475,409.935,227.82,405.297,221.976,405.307z    M275.635,311.184c-5.991-0.097-10.769,4.142-10.884,9.657c-0.119,5.725,4.902,10.529,11.13,10.648   c6.049,0.116,10.891-4.288,11.003-10.006C286.999,315.566,282.331,311.292,275.635,311.184z M87.417,387.876   c-5.947-0.035-10.449,4.368-10.478,10.247c-0.028,5.597,4.389,10.104,9.978,10.18c5.852,0.08,10.627-4.545,10.693-10.358   C97.676,392.253,93.281,387.911,87.417,387.876z M344.822,317.137c-6.285,0.04-10.906,4.211-10.886,9.826   c0.02,5.661,4.796,10.288,10.588,10.255c5.73-0.032,10.341-4.615,10.34-10.278C354.862,321.406,350.453,317.102,344.822,317.137z    M347.481,442.226c-6.139-0.02-10.986,4.15-11.048,9.503c-0.064,5.473,4.525,9.993,10.125,9.971   c5.564-0.022,10.033-4.519,10.031-10.094C356.587,446.371,352.578,442.242,347.481,442.226z M140.904,319.505   c5.281,0.003,9.551-4.138,9.512-9.228c-0.036-4.785-5.074-9.523-10.156-9.552c-4.901-0.028-8.881,4.05-8.931,9.15   C131.277,315.17,135.584,319.501,140.904,319.505z M267.089,292.78c0-0.737,0.016-1.338-0.003-1.937   c-0.103-3.312-2.276-5.939-5.519-6.682c-4.701-1.077-9.557,2.432-10.299,7.442c-0.714,4.823,2.791,9.233,7.557,9.56   C262.742,301.432,268.01,298.494,267.089,292.78z M257.213,395.293c0.69-4.705-2.71-7.38-6.52-7.563   c-2.409-0.116-4.632,0.547-6.566,2.022c-3.046,2.324-4.053,6.396-2.465,9.843c1.601,3.476,5.472,5.397,9.248,4.589   c3.699-0.791,6.194-3.844,6.301-7.718C257.224,396.047,257.213,395.628,257.213,395.293z M284.435,42.743   c4.48-0.024,8.054-3.584,8.027-7.998c-0.027-4.468-3.869-8.325-8.27-8.304c-4.457,0.021-8.035,3.73-7.974,8.266   C276.279,39.229,279.897,42.767,284.435,42.743z M194.52,149.465c-4.118-0.027-7.437,3.344-7.474,7.59   c-0.038,4.379,3.42,7.954,7.754,8.02c4.223,0.064,7.659-3.197,7.731-7.338C202.607,153.381,198.841,149.494,194.52,149.465z    M191.218,38.919c-4.191-0.028-7.598,3.396-7.646,7.685c-0.047,4.191,3.287,7.574,7.48,7.589c4.251,0.015,7.648-3.385,7.647-7.654   C198.697,42.331,195.375,38.947,191.218,38.919z M232.99,234.209c3.619,0.105,6.65-2.269,7.258-5.684   c0.674-3.784-1.668-8.604-4.686-9.628c-0.338-0.115-0.691-0.202-1.044-0.259c-4.31-0.699-8.499,2.653-8.916,7.125   C225.187,230.211,228.573,234.081,232.99,234.209z M165.847,288.309c4.088,0.012,7.37-2.991,7.394-6.768   c0.023-3.595-4.205-7.749-7.896-7.759c-3.757-0.01-7.035,3.346-7.038,7.204C158.305,285.034,161.664,288.296,165.847,288.309z    M185.477,441.941c4.05,0.044,7.419-3.074,7.513-6.952c0.096-3.983-3.41-7.267-7.794-7.299c-3.917-0.028-7.022,3.009-7.053,6.898   C178.111,438.581,181.419,441.897,185.477,441.941z M374.378,309.453c4.032-0.034,7.186-3.301,7.176-7.435   c-0.009-4.099-3.086-6.811-7.668-6.759c-3.884,0.044-6.873,3.152-6.809,7.08C367.142,306.308,370.403,309.486,374.378,309.453z    M330.454,432.448c3.901,0.142,7.355-3.083,7.458-6.966c0.098-3.686-3.036-7.199-6.505-7.293c-4.027-0.109-7.472,3.064-7.625,7.023   C323.633,429.086,326.603,432.308,330.454,432.448z M315.572,341.412c-4.11,0.031-7.316,3.141-7.298,7.081   c0.018,3.8,3.085,6.813,6.913,6.791c3.914-0.022,7.401-3.636,7.338-7.603C322.468,344.112,319.441,341.384,315.572,341.412z    M187.481,124.07c-0.035-3.754-3.188-6.815-6.963-6.76c-3.584,0.052-6.425,2.892-6.411,6.406c0.015,3.66,3.206,6.616,7.124,6.599   C184.839,130.3,187.514,127.627,187.481,124.07z M95.166,425.402c-3.678-0.027-6.628,2.766-6.692,6.337   c-0.064,3.598,2.95,6.724,6.599,6.658c4.662-0.083,5.942-3.274,6.203-7.475C101.463,427.895,98.551,425.427,95.166,425.402z    M95.325,371.831c3.563-0.032,6.883-3.129,6.803-6.345c-0.068-2.728-3.593-5.464-7.019-5.447c-3.298,0.017-5.958,2.724-5.893,5.996   C89.282,369.302,91.979,371.861,95.325,371.831z M331.914,94.771c0.072-3.669-2.255-6.317-5.592-6.364   c-3.228-0.045-5.959,2.594-6.067,5.865c-0.112,3.406,2.587,6.251,5.995,6.319C329.591,100.656,331.844,98.341,331.914,94.771z    M297.214,177.996c3.128,0.111,5.593-2.153,5.687-5.224c0.106-3.471-2.673-6.603-5.932-6.684c-3.164-0.079-5.723,2.383-5.816,5.597   C291.056,175.019,293.799,177.874,297.214,177.996z"/>
	<g>
		<path d="M346.968,500c-3.922-0.63-7.136-2.648-10.001-5.253c-0.587-0.533-1.199-1.556-1.071-2.21    c0.125-0.641,1.101-1.4,1.839-1.595c7.173-1.889,14.182-4.361,21.028-7.209c6.866-2.856,13.571-6.085,20.188-9.474    c1.326-0.679,2.649-1.365,3.97-2.056c1.237-0.647,2.472-1.496,3.769-1.998c0.658-0.254,1.394-0.364,2.073-0.172    c0.279,0.079,0.551,0.213,0.737,0.435c0.244,0.29,0.31,0.697,0.258,1.072c-0.052,0.375-0.209,0.726-0.373,1.068    c-0.72,1.503-1.563,3.032-2.697,4.267c-8.625,9.389-18.532,17.007-30.639,21.405c-2.222,0.807-4.609,1.159-6.92,1.72    C348.409,500,347.688,500,346.968,500z"/>
		<path d="M358.891,53.65c0.965-1.164,2.187-1.171,3.131,0.432c0.663,1.128,1.164,2.368,1.608,3.605    c6.78,18.933,9.779,38.398,8.38,58.517c-0.985,14.171-2.782,28.192-7.349,41.711c-4.419,13.08-10.284,25.456-18.336,36.745    c-5.54,7.767-10.88,15.677-16.486,23.395c-2.175,2.994-4.645,5.835-7.317,8.395c-7.187,6.887-14.163,14.027-22.32,19.829    c-0.14,0.1-0.233,0.266-0.625,0.727c3.095,6.57,6.1,13.365,9.474,19.972c2.369,4.639,5.27,9.005,7.871,13.528    c1.133,1.97,2.219,3.982,3.129,6.061c0.988,2.256,0.483,4.34-1.263,6.107c-1.308,1.323-2.579,2.682-3.904,3.987    c-2.407,2.372-5.132,2.079-6.611-0.914c-5.629-11.393-12.409-22.191-17.246-34.004c-2.29-5.592-5.304-10.887-7.978-16.323    c-2.278-4.631-1.733-6.552,2.437-9.606c22.965-16.821,42.437-37.005,57.098-61.431c9.283-15.465,16.507-31.951,19.475-49.992    c3.321-20.192,1.992-40.051-4.052-59.604c-0.884-2.861-1.666-5.761-2.309-8.684c-0.162-0.737,0.196-1.806,0.7-2.389    C356.703,53.362,357.749,53.65,358.891,53.65z"/>
		<path d="M442.908,305.692c-2.946,5.817-6.031,11.633-9.737,16.979c-5.358,7.73-11.036,15.279-17.083,22.482    c-9.703,11.558-21.267,21.083-33.875,29.364c-3.003,1.973-5.786,4.278-8.707,6.38c-0.977,0.703-0.917,1.5-0.67,2.52    c2.388,9.844,4.846,19.673,7.062,29.556c1.747,7.79,3.604,15.516,6.588,22.956c0.946,2.359,1.251,4.98,1.785,7.495    c0.16,0.753,0.152,1.555,0.127,2.332c-0.047,1.441-0.639,2.607-2.103,3.016c-1.559,0.436-2.681-0.321-3.441-1.64    c-0.388-0.672-0.717-1.388-0.99-2.114c-6.224-16.517-15.545-31.475-23.62-47.062c-2.671-5.156-5.095-10.454-7.372-15.798    c-1.771-4.158-0.997-6.255,2.759-8.694c19.861-12.899,37.822-28.137,54.754-44.614c10.345-10.066,19.467-21.206,28.027-32.817    c1.189-1.613,2.641-3.119,4.235-4.327c1.809-1.37,3.441-0.628,4.059,1.607c0.285,1.03,0.347,2.122,0.511,3.186    C445.227,299.396,444.307,302.93,442.908,305.692z"/>
		<path d="M149.232,496.123c-5.816-0.237-11.624-0.734-17.418-1.27c-1.627-0.151-3.337-0.334-4.673-1.275    c-0.575-0.405-1.074-0.973-1.216-1.661c-0.481-2.32,3.115-2.121,4.549-1.962c21.556,2.397,41.699-2.789,61.213-11.347    c23.087-10.124,44.952-22.468,65.95-36.382c7.252-4.805,14.504-9.609,21.765-14.4c2.288-1.51,4.569-1.079,5.745,1.388    c1.693,3.55,3.733,7.485,2.029,11.371c-0.225,0.512-0.485,1.015-0.844,1.443c-1.187,1.418-3.227,2.422-4.74,3.471    c-1.829,1.266-3.657,2.533-5.489,3.795c-3.662,2.523-7.335,5.03-11.041,7.488c-7.405,4.911-14.945,9.631-22.753,13.88    c-3.837,2.088-7.738,4.062-11.707,5.887c-11.098,5.102-22.498,9.576-34.2,13.094c-12.1,3.637-24.473,6.299-37.142,6.589    C155.916,496.31,152.573,496.259,149.232,496.123z"/>
		<path d="M134.455,396.68c-0.053-1.307,0.128-2.64,0.281-3.916c0.251-2.094,0.779-4.17,1.429-6.173    c1.311-4.044,3.239-7.863,5.395-11.517c0.193-0.326,0.387-0.652,0.583-0.976c4.653-7.683,10.388-14.523,16.517-21.065    c15.053-16.068,30.034-32.203,45.083-48.276c2.128-2.273,4.392-4.435,6.738-6.483c1.961-1.712,2.878-1.5,4.656,0.39    c1.101,1.17,2.292,2.257,3.466,3.356c1.993,1.866,1.604,4.154,1.01,6.374c-0.285,1.064-0.937,2.086-1.62,2.976    c-1.606,2.093-3.238,4.179-5.021,6.12c-11.77,12.815-23.546,25.625-35.395,38.367c-8.415,9.049-17.134,17.822-25.35,27.046    c-2.481,2.786-4.703,5.788-6.874,8.818c-1.089,1.521-2.165,3.05-3.257,4.569c-0.738,1.027-1.285,2.184-2.157,3.113    c-0.63,0.671-1.423,1.22-2.323,1.416c-0.404,0.088-0.833,0.102-1.225-0.03c-0.783-0.264-1.27-1.049-1.537-1.831    C134.601,398.22,134.486,397.455,134.455,396.68z"/>
		<path d="M217.441,91.478c0.559-14.67,10.051-25.804,24.858-29.435c11.321-2.777,21.767-0.682,31.718,4.719    c2.752,1.493,5.15,3.703,7.535,5.786c1.919,1.676,2.075,4.072,0.778,5.838c-0.695,0.946-1.269,1.112-2.318,0.285    c-8.838-6.971-18.992-8.639-29.751-6.634c-10.579,1.971-17.765,11.344-18.662,21.934c-0.766,9.041,1.241,17.649,3.04,26.328    c2.619,12.634,6.961,24.677,12.587,36.275c0.032,0.065,0.06,0.14,0.084,0.22c0.343,1.128-0.326,2.33-1.428,2.748    c-0.457,0.174-0.918,0.291-1.236,0.23c-0.983-0.186-2.087-1.015-2.664-1.88c-10.405-15.616-17.895-32.552-22.288-50.784    C218.465,102.012,218.166,96.693,217.441,91.478z"/>
	</g>
</g>















</svg>
