<svg clip-rule="evenodd" fill-rule="evenodd" height="43.349mm" image-rendering="optimizeQuality" shape-rendering="geometricPrecision" text-rendering="geometricPrecision" viewBox="0 0 4335 4335" width="43.349mm" xmlns="http://www.w3.org/2000/svg"><g id="Layer_x0020_1"><g id="_669686904" fill="#211d21"><path d="m2215 829c-23 319-77 199-152 284-24 28-35 60-61 82-121-44-49-276-197-302-76-13-162 15-176 75-19 84 56 133 88 165 46 45 65 95-9 141-82 50-150-18-188 66-25 55-46 133-131 112-45-11-95-93-124-130-249-313-597-29-167 142 91 36 270 48 233 262-14 81-48 121-99 155-66 44-125 39-215 42 52 28 130 24 187 53 36 19 22 32 42 77 16 38 33 50 29 101-90 54-301 22-426 54-175 45-185 229 22 182 101-23 274-136 372-80 96 55-24 182-129 231l-47 31c135-15 241-16 344 44 64 38 56 40 87 116 14 35 57 117 46 152-13 43-88 53-120 84-38 36-10 113 19 140 42 38 109 23 138-17 33-47 1-61 65-145 87-7 366 84 128 245-223 150-45 304 60 291 80-10 104-80 116-167 14-108 4-171 129-155 418 55 311 57 383 186 12-130-25-110 144-234 141 92 75 220 143 283 48 45 138 8 151-29 40-109-174-176-129-287 27-68 70-54 131-90 78-46 163-133 247 82 35 90 78 249 207 212 46-13 95-65 79-132-27-116-289-229-303-351-7-64 51-95 108-98 65-4 116 37 172 52-58-67-161-71-162-196-3-231 98-148 117-247 20-102-116-116-63-282 42-133 198-77 252-67 118 21 188-70 142-176-43-99-182-22-258 8-112 43-141 39-218-91-19-33-36-100-15-141 12-25 79-67 100-86-55 13-97 44-152 6-196-135 168-170 216-256 44-79-86-202-172-197-184 11-59 394-336 119-71-71-80 48-183-18-24-138 111-208 149-387 37-173-150-276-225-64-58 165 41 362-129 405-85 21-152 10-202-41-60-61-27-137-58-214z"/><path d="m3626 2318c-53 33-27 136-5 180 95 197 378 201 498 86 40-39 75-76 82-155 9-103-35-119-132-107-79 10-144 24-228 14-55-7-169-46-216-18z"/><path d="m841 1892c-94-32-226-76-328-88-131-16-267 24-244 168 28 176 278 18 413-32 36-13 136-35 159-48z"/><path d="m1457 3634c48-276-262-254-283-84-14 110 30 170 114 198 103 35 153-20 170-114z"/><path d="m1453 423c-151 57-97 331 80 262 48-19 93-95 70-165-16-47-80-123-150-97z"/><path d="m2468 3522c-67 198-217 399-74 423 106 19 138-77 131-175-4-63-30-203-57-249z"/><path d="m2189 657c1-2 2-8 3-7 0 1 2-5 2-7s2-5 2-7c25-96 54-158 64-199 20-88-25-185-120-163-78 18-97 118-56 189 43 75 74 90 105 195z"/><path d="m396 2269c-66 27-92 78-70 145 18 57 81 89 154 61 141-53 61-265-84-206z"/><path d="m3478 1378c94-11 204-90 233-168 15-40 10-80-17-106-73-71-124-4-133 83-10 95-19 152-82 191z"/><path d="m3467 1514c-43 12-102 58-82 118 12 36 81 76 131 70 127-16 89-226-49-188z"/><path d="m874 2622c-76 18-155 9-231 25-54 12-162 74-99 133 56 53 163-17 189-44 45-48 83-72 141-115z"/><path d="m3539 2833c39 21 210 205 285 107 49-65-7-104-78-107-44-2-187-14-207 0z"/><path d="m2538 3498c5 30 0 76 8 100 25 77 171 12-8-100z"/><path d="m1259 2778c73 46 88-32 112-92-66 17-119 19-112 92z"/><path d="m1331 3381c32 8 69 15 77-29 11-53-25-61-70-58-28 46-29 40-7 87z"/></g></g></svg>