<?xml version="1.0" encoding="UTF-8"?>
<!-- Generator: Adobe Illustrator 27.3.1, SVG Export Plug-In . SVG Version: 6.00 Build 0)  -->
<svg xmlns="http://www.w3.org/2000/svg" xmlns:xlink="http://www.w3.org/1999/xlink" version="1.1" id="Capa_1" x="0px" y="0px" viewBox="0 0 512 512" style="enable-background:new 0 0 512 512;" xml:space="preserve" width="512" height="512">
<g>
	<path style="fill:#FFFFFF;" d="M282.699,512c-11.593,0-23.243-0.687-34.637-2.042c-0.352-0.029-0.672-0.065-0.956-0.104   c-0.638-0.063-1.277-0.14-1.913-0.22c-0.467-0.053-1.043-0.126-1.643-0.223c-6.487-0.844-13.038-1.943-19.478-3.27l-3.723-0.798   c-0.457-0.068-0.904-0.154-1.33-0.258c0,0-7.453-1.826-7.595-1.862v0.001c-5.172-1.279-10.44-2.759-16.107-4.522   c-2.278-0.697-4.625-1.469-6.97-2.269l-2.708-0.938c-13.454-4.699-26.247-10.311-38.098-16.702   c-1.675-0.911-3.245-1.767-4.815-2.677c-13.606-7.635-26.413-16.646-37.879-26.678c-58.163-50.849-86.756-137.606-74.615-226.413   c1.458-10.693,3.548-20.587,6.211-29.401C52.395,140.976,88.823,92.34,139.019,56.663c5.737-4.089,11.664-8.003,17.6-11.623   c41.134-25.302,87.999-41.069,131.912-44.364C294.5,0.228,300.5,0,306.364,0c12.574,0,24.992,1.043,36.909,3.099   c8.669,1.503,17.112,3.605,25.105,6.252c13.663,4.429,26.485,10.415,38.021,17.765c6.985,4.462,13.586,9.472,19.637,14.9   c18.997,17.117,34.248,40.294,44.133,67.049c1.565,4.162,3.018,8.546,4.409,13.315c10.945,37.548,12.927,79.784,5.584,118.933   c-2.293,12.204-5.463,24.149-8.529,35.7c-4.686,17.652-9.111,34.326-10.473,51.307c-0.671,8.364-0.604,16.879-0.535,25.896   c0.112,14.439,0.228,29.37-2.81,44.512c-11.693,58.313-57.427,97.171-128.777,109.417c-10.883,1.875-22.217,3.082-33.676,3.582   C291.174,511.908,286.916,512,282.699,512z"/>
	<g>
		<g>
			<path style="fill:#DBB0FF;" d="M465.364,238.239c-5.59,29.754-16.797,58.453-19.218,88.619     c-1.829,22.851,1.417,46.139-3.091,68.603c-11.85,59.097-61.441,87.821-116.236,97.224c-10.459,1.803-21.124,2.911-31.738,3.375     c-23.52,1.03-34.74-9.644-55.4-13.921c-12.365-2.576-31.922-3.913-43.849-8.112c-12.314-4.302-24.273-2.587-35.737-8.77     c-1.468-0.799-7.758-1.889-9.226-2.739c-12.623-7.084-24.525-15.38-35.448-24.937c-59.2-51.755-79.86-136.742-69.479-212.687     c1.236-9.068,3.04-18.239,5.693-27.024c15.946-52.631,52.296-97.25,96.734-128.833c5.384-3.839,10.949-7.523,16.693-11.026     c37.148-22.85,81.071-38.848,125.02-42.146c17.131-1.288,34.237-0.644,50.956,2.241c7.728,1.34,15.405,3.22,22.876,5.693     c12.159,3.941,23.855,9.3,34.572,16.127c6.208,3.967,12.108,8.424,17.621,13.37c18.213,16.41,31.429,37.818,39.956,60.9     c1.52,4.045,2.86,8.141,4.07,12.288C470.542,162.191,472.216,201.709,465.364,238.239z"/>
		</g>
		<g>
			<g>
				<g>
					<path style="fill:#9DD1A9;" d="M160.686,363.409c4.543,2.134,8.693,5.045,12.458,8.377c-3.611,1.032-7.38,1.356-11.132,0.699       c-8.57,11.474-24.115,16.802-38.058,13.552c-15.142-3.499-28.753-16.981-44.284-17.996c0.065-0.095,0.165-0.18,0.243-0.253       c0.01-0.035,0.023-0.013,0.023-0.013c5.665-6.356,11.285-12.687,16.962-19.02c6.018-6.728,12.146-13.577,19.894-18.143       c7.771-4.578,17.565-6.626,25.891-3.145c7.929-4.401,16.927-6.714,25.995-6.886c-2.473,2.551-4.634,5.4-6.439,8.465       c3.332-2.969,6.911-5.81,10.64-8.381c1.814,0.083,3.62,0.259,5.419,0.528c12.14,1.807,23.635,7.123,33.453,14.461       c-7.667,7.526-13.101,17.908-20.841,25.356c-3.642,3.524-7.912,6.66-12.524,8.808       C172.73,367.006,166.791,364.852,160.686,363.409z"/>
				</g>
				<g>
					<path style="fill:#302945;" d="M76.237,370.066c-0.244,0-0.477-0.14-0.586-0.376c-0.147-0.323-0.005-0.706,0.318-0.854       c0.387-0.177,39.101-17.838,70.918-26.933c31.88-9.112,64.595-6.906,64.921-6.883c0.356,0.025,0.623,0.333,0.598,0.688       c-0.026,0.356-0.367,0.634-0.688,0.597c-0.324-0.02-32.822-2.213-64.475,6.835c-31.725,9.068-70.351,26.69-70.737,26.867       C76.418,370.047,76.327,370.066,76.237,370.066z"/>
				</g>
			</g>
			<g>
				<g>
					<g>
						<path style="fill:#FF9191;" d="M376.697,354.317c-2.628,18.497-36.143,71.333-52.502,96.27        c-33.645,5.796-69.247,4.302-99.233-1.906c-12.366-2.576-24.602-5.925-36.53-10.124l51.471-57.061l38.153-41.218        c0,0-21.047-24.551-25.014-42.094c-3.941-17.544-7.445-33.31-7.445-33.31l-29.368-19.733c0,0-53.945-22.799-37.277-60.514        l85.064,46.036l-24.113-32.897c0,0-68.397-43.846-35.525-76.718l67.057,54.331c-0.979-1.623-44.31-73.394-9.609-92.484        c0,0,1.984-8.501,10.743-11.593c2.138-0.773,4.663-1.211,7.677-1.133c0,0,6.801,15.715,14.916,33.593        c8.862,19.579,19.295,41.759,24.113,48.844c9.197,13.602,22.361,24.113,23.675,33.773c1.314,9.635,3.503,46.474,10.511,74.09        C360.493,288.111,380.227,329.767,376.697,354.317z"/>
					</g>
					<g>
						<g>
							<g>
								<g>
									<g>
										<g>
											<path style="fill:#302945;" d="M312.958,260.717c-19.393,4.396-31.443,24.41-26.865,44.601             c4.03,17.777,19.606,29.859,36.508,29.508l0.01-0.002c2.3-0.045,4.63-0.324,6.956-0.852             c1.123-0.255,2.224-0.566,3.293-0.923c0.464-0.147,0.914-0.311,1.361-0.485c3.493-1.32,6.686-3.184,9.506-5.46             c10.604-8.569,16.013-23.098,12.695-37.731C351.843,269.182,332.34,256.322,312.958,260.717z M349.9,319.519             c-0.084,0.133-0.178,0.268-0.276,0.384c-2.103,2.88-4.62,5.44-7.496,7.564c-2.298,1.702-4.834,3.127-7.55,4.219             l-0.01,0.002c-0.465,0.188-0.934,0.357-1.404,0.526c-1.218,0.431-2.474,0.789-3.754,1.079             c-2.079,0.471-4.164,0.737-6.227,0.821c-16.812,0.652-32.428-11.287-36.432-28.945             c-4.493-19.817,7.331-39.457,26.359-43.771c0.611-0.139,1.216-0.255,1.824-0.362c0.3-0.047,0.59-0.092,0.881-0.137             c18.101-2.601,35.673,9.743,39.954,28.623C358.241,300.419,355.777,311.256,349.9,319.519z"/>
										</g>
									</g>
								</g>
							</g>
							<g>
								<g>
									<g>
										<g>
											<path style="fill:#302945;" d="M351.089,282.169c-0.073-0.139-0.226-0.218-0.364-0.187l-20.211,4.168l-14.697-25.253             l-0.203-0.348c-0.071-0.129-0.209-0.191-0.349-0.17c-0.128,0.029-0.248,0.139-0.268,0.279l-0.06,0.376l-4.712,29.301             l-22.268,4.603c-0.157-0.006-0.256,0.151-0.262,0.308c-0.006,0.157,0.079,0.303,0.225,0.353l20.174,7.963l-4.031,25.085             c-0.028,0.151,0.047,0.3,0.178,0.374c0.128,0.064,0.281,0.05,0.391-0.058l19.189-19.187l25.635,10.113             c0.058,0.028,0.122,0.035,0.169,0.013c0.012,0.008,0.012,0.008,0.022,0.005c0.079-0.018,0.143-0.053,0.191-0.116             c0.053-0.085,0.082-0.184,0.062-0.273c0.001-0.042-0.02-0.089-0.039-0.126l-13.117-22.534l14.282-14.282             C351.136,282.469,351.162,282.308,351.089,282.169z M315.514,261.712l14.307,24.585l-18.894,3.9L315.514,261.712z              M289.238,295.383l20.864-4.305l-1.895,11.795L289.238,295.383z M304.889,327.724l3.853-23.905l14.384,5.68             L304.889,327.724z M308.853,303.12l1.96-12.193l19.381-3.99l5.701,9.793l-12.239,12.234L308.853,303.12z              M348.782,318.882l-24.43-9.64l11.903-11.888L348.782,318.882z M336.385,296.236l-5.498-9.446l18.835-3.887             L336.385,296.236z"/>
										</g>
									</g>
								</g>
							</g>
						</g>
						<g>
							<g>
								<g>
									<g>
										<path style="fill:#302945;" d="M320.571,303.107c-4.616,0-7.93-2.578-8.09-2.704l-0.139-0.111l0.036-0.172            c0.016-0.071,1.545-7.018,8.398-8.346c6.834-1.331,11.063,3.645,11.104,3.694l0.123,0.149l-0.092,0.17            c-0.132,0.246-3.307,6.025-9.074,7.111C322.055,303.043,321.297,303.107,320.571,303.107z M312.984,300.061            c0.803,0.574,4.806,3.204,9.748,2.271c4.948-0.931,7.997-5.672,8.574-6.643c-0.744-0.792-4.587-4.479-10.42-3.353            C315.011,293.476,313.267,299,312.984,300.061z"/>
									</g>
								</g>
							</g>
							<g>
								<g>
									<g>
										<path style="fill:#302945;" d="M324.462,296.585c0.577,2.543,0.029,4.835-1.224,5.119            c-1.252,0.284-2.735-1.547-3.311-4.09c-0.577-2.543-0.029-4.835,1.224-5.119            C322.403,292.211,323.885,294.042,324.462,296.585z"/>
									</g>
								</g>
							</g>
						</g>
					</g>
					<g>
						<g>
							<path style="fill:#302945;" d="M295.163,103.761c-2.705-1.082-17.337-7.625-21.511-21.536         c-1.365-4.585-1.52-8.14-1.082-10.923c2.138-0.773,4.663-1.211,7.677-1.133C280.247,70.169,287.048,85.883,295.163,103.761z"/>
						</g>
						<g>
							<path style="fill:#302945;" d="M262.044,83.769c0,0-6.358,0.658-4.166,12.716c2.192,12.059,21.705,20.171,21.705,20.171         L262.044,83.769z"/>
						</g>
						<g>
							<path style="fill:#302945;" d="M205.04,122.356c0,0-7.67,6.241-1.973,14.47c13.812,19.951,30.037,8.331,30.037,8.331         L205.04,122.356z"/>
						</g>
						<g>
							<path style="fill:#302945;" d="M180.703,185.718c0,0-1.535,5.7,5.7,12.716c7.235,7.016,22.144,2.412,22.144,2.412         L180.703,185.718z"/>
						</g>
					</g>
					<g>
						<path style="fill:#302945;" d="M325.845,218.578c-0.537,0-1.039-0.338-1.22-0.875l-17.43-51.632l-45.998-81.559        c-0.35-0.62-0.129-1.405,0.489-1.755c0.62-0.35,1.405-0.131,1.755,0.489l46.096,81.779l17.529,51.852        c0.228,0.674-0.135,1.405-0.808,1.633C326.12,218.556,325.98,218.578,325.845,218.578z"/>
					</g>
					<g>
						<path style="fill:#302945;" d="M312.033,230.089c-0.389,0-0.774-0.175-1.026-0.508l-40.503-53.299l-65.562-53.089        c-0.553-0.448-0.639-1.259-0.191-1.811c0.449-0.552,1.258-0.64,1.811-0.191l65.684,53.187c0.081,0.065,0.153,0.14,0.215,0.221        l40.596,53.422c0.43,0.567,0.321,1.375-0.245,1.805C312.578,230.003,312.305,230.089,312.033,230.089z"/>
					</g>
					<g>
						<path style="fill:#302945;" d="M284.405,243.9c-0.211,0-0.427-0.052-0.624-0.162l-104.251-57.88        c-0.623-0.345-0.847-1.13-0.501-1.751c0.345-0.623,1.131-0.848,1.751-0.501l104.251,57.88c0.623,0.345,0.846,1.13,0.501,1.751        C285.297,243.661,284.858,243.9,284.405,243.9z"/>
					</g>
				</g>
				<g>
					<g>
						<path style="fill:#977BFF;" d="M343.77,130.943c0,0.85-0.026,1.726-0.103,2.602c-0.515,11.206-2.808,22.387-6.775,33.155        c-0.309,0.824-0.618,1.623-0.953,2.422c-3.607,9.223-8.45,18.085-14.478,26.354c-8.398,11.541-18.471,21.176-28.621,30.244        c-0.953,0.876-1.932,1.726-2.885,2.576c-1.52,1.339-3.04,2.679-4.56,4.019c-5.564,4.869-10.794,9.454-15.843,14.298        c-0.412,0.386-0.824,0.799-1.211,1.185c-0.979,0.953-1.932,1.906-2.834,2.834c-15.508,15.946-23.597,31.171-24.113,45.263        c-0.155,3.916,0.438,7.084,1.597,8.656c0.876,1.211,2.628,2.241,4.792,2.859c0.799,0.258,1.674,0.438,2.576,0.567        c0.773,0.129,1.597,0.18,2.447,0.206c1.236,0.052,2.499,0,3.787-0.129c1.7,3.169,4.689,8.527,8.424,14.298        c0.541,0.902,1.134,1.777,1.726,2.679c2.447,3.658,5.152,7.393,7.986,10.768c-6.956,1.7-14.607,3.22-22.747,3.014        c-14.246-0.386-26.56-6.312-33.773-16.255c-2.061-2.834-3.684-5.951-4.895-9.377c-0.335-0.927-0.644-1.906-0.901-2.885        c-1.288-4.689-1.829-9.866-1.623-15.508c0.464-12.984,4.328-25.684,11.67-38.359c0.412-0.747,0.876-1.494,1.34-2.241        c6.028-9.867,14.195-19.733,24.551-29.677c5.513-5.307,11.283-10.356,16.848-15.225c1.803-1.572,3.581-3.143,5.333-4.714        c0.721-0.618,1.443-1.262,2.164-1.906c9.017-8.063,17.363-16.075,24.01-25.195c0.696-0.953,1.365-1.906,1.984-2.885        c0.592-0.85,1.159-1.726,1.674-2.602c9.48-15.354,13.937-33.335,12.494-50.209c-0.052-0.927-0.155-1.855-0.283-2.782        c-0.18-1.623-0.438-3.246-0.747-4.843c-2.344-11.928-8.063-23.16-15.998-32.253c-0.541-0.644-1.108-1.288-1.7-1.906        c-6.054-6.466-13.241-11.696-21.099-15.096c-7.419-3.195-15.56-4.792-23.623-4.818c-15.07,3.014-19.708,25.066-40.858,30.064        c-9.97,2.344-18.96,1.365-26.019-0.541c-9.557-2.576-14.195-13.653-9.3-22.284c14.555-25.581,41.141-33.67,57.268-36.195        c0,0,0,0,0-0.026c0.902-0.129,1.752-0.257,2.55-0.361c1.108-0.155,2.164-0.258,3.117-0.361        c15.766-2.215,32.228-0.438,47.247,5.667c0.592,0.232,1.185,0.49,1.778,0.747c0.206,0.077,0.386,0.18,0.592,0.283        c28.466,12.546,49.926,39.75,56.083,71.153C343.332,115.692,343.976,123.317,343.77,130.943z"/>
					</g>
					<g>
						<path style="fill:#977BFF;" d="M415.438,370.55c-2.422,18.522-8.218,36.195-16.874,52.038        c-0.567,1.056-1.133,2.087-1.752,3.117c-6.286,10.949-13.988,20.995-22.876,29.806c-0.644,0.644-1.288,1.288-1.958,1.906        c-5.075,4.843-10.511,9.326-16.307,13.344c-0.412,0.283-0.799,0.567-1.211,0.799c-0.85,0.618-1.7,1.185-2.55,1.726        c-8.269,5.358-17.312,9.97-27.049,13.834c-0.927,0.361-1.829,0.721-2.782,1.056c-8.501,3.22-17.518,5.848-26.998,7.883        c-15.405,0.67-30.708,0.026-45.237-1.726h-0.026c-1.236-0.103-2.422-0.257-3.606-0.438c-6.389-0.824-12.623-1.88-18.626-3.117        l-4.328-0.927l-2.871-2.121c-2.55-0.592-2.307,0.936-4.857,0.266c-5.101-1.262-10.176-2.705-15.225-4.276        c-2.19-0.67-4.379-1.391-6.569-2.138c-0.902-0.309-1.777-0.618-2.679-0.927c-12.314-4.302-24.319-9.506-35.783-15.689        c-1.468-0.799-2.937-1.597-4.405-2.447c25.324,3.941,55.696,8.579,82.823,9.635h0.026c1.133,0.051,2.241,0.077,3.349,0.129        c5.127,0.129,10.15,0.129,14.967-0.026c10.305-0.335,22.464-1.443,35.19-4.096c0.85-0.18,1.7-0.361,2.55-0.567        c4.148-0.927,8.347-2.009,12.546-3.297c0.026,0,0.026,0,0.026,0c1.237-0.387,2.447-0.799,3.684-1.237c0.026,0,0.026,0,0.026,0        c10.768-3.607,21.434-8.553,31.197-15.328c0.077-0.052,0.155-0.103,0.232-0.155c0.979-0.67,1.932-1.365,2.859-2.061        c8.372-6.26,15.792-13.731,22.078-22.155c0.644-0.85,1.288-1.726,1.881-2.602c10.923-15.483,18.136-33.928,20.738-53.738        c0-0.103,0.026-0.18,0.026-0.283c0.103-0.773,0.206-1.726,0.309-2.782c0.67-7.574,0.824-21.846-5.745-31.79        c-0.541-0.824-1.134-1.649-1.778-2.396c-0.953-1.134-2.009-2.19-3.194-3.143c-0.85-2.988-3.478-12.237-5.925-20.326        c-0.335-1.056-0.644-2.087-0.953-3.091c-1.159-3.71-2.241-6.93-2.963-8.785c-0.258-0.644-0.515-1.34-0.799-2.035        c9.351,1.237,18.445,4.07,26.637,9.48c3.169,2.087,6.054,4.482,8.656,7.162c0.67,0.696,1.314,1.391,1.958,2.138        c6.646,7.625,11.18,17.209,13.422,28.338v0.026c0.18,0.85,0.361,1.726,0.489,2.628        C416.649,350.842,416.752,360.4,415.438,370.55z"/>
					</g>
					<g>
						<g>
							<g>
								<path style="fill:#302945;" d="M285.781,37.068c-0.258,0.67-0.567,1.34-0.902,1.984c-1.649,3.143-4.251,5.281-7.136,5.899          c-0.644,0.129-1.262,0.18-1.881,0.18c-2.834,0-5.461-1.237-8.038-2.447c-0.721-0.361-1.443-0.695-2.19-1.005          c-5.333-2.293-11.387-2.679-17.002-1.133c-0.464,0.129-0.927,0.283-1.391,0.412c-1.597,0.489-3.22,0.979-4.972,1.03          c-4.07,0.077-8.089-2.422-10.305-6.415c-0.721-1.314-1.236-2.86-1.468-4.457c0,0,0,0,0-0.026          c0.902-0.129,1.752-0.257,2.55-0.361c0.18,1.288,0.592,2.55,1.159,3.581c1.726,3.117,4.946,5.127,8.012,5.101          c1.391-0.026,2.782-0.464,4.25-0.902c0.49-0.155,0.979-0.309,1.468-0.438c6.183-1.726,12.829-1.288,18.729,1.236          c0.747,0.309,1.52,0.67,2.267,1.031c2.885,1.365,5.59,2.653,8.295,2.087c2.113-0.464,4.07-2.112,5.384-4.56          c0.309-0.593,0.567-1.185,0.799-1.829c0.592,0.232,1.185,0.49,1.778,0.747C285.394,36.862,285.575,36.965,285.781,37.068z"/>
							</g>
						</g>
						<g>
							<g>
								<path style="fill:#302945;" d="M309.342,123.273c-0.513,0-0.999-0.31-1.199-0.816c-0.26-0.662,0.065-1.41,0.727-1.67          c4.671-1.839,7.857-4.367,9.469-7.517c1.658-3.236,1.312-8.145-1.844-10.292c-0.543-0.37-1.155-0.67-1.762-0.972          c-1.499-0.747-3.2-1.594-4.05-3.367c-0.942-1.965-0.363-4.023,0.146-5.838c0.102-0.36,0.203-0.717,0.289-1.069          c1.081-4.396-0.504-9.122-3.854-11.491c-3.472-2.454-8.78-1.798-11.137,1.377c-0.423,0.57-1.228,0.689-1.803,0.265          c-0.571-0.424-0.689-1.231-0.265-1.803c3.2-4.308,10.063-5.214,14.692-1.943c4.194,2.965,6.196,8.808,4.868,14.209          c-0.093,0.38-0.2,0.764-0.309,1.151c-0.424,1.511-0.825,2.938-0.304,4.026c0.469,0.976,1.585,1.532,2.877,2.176          c0.712,0.355,1.425,0.714,2.063,1.147c4.421,3.01,4.836,9.401,2.687,13.598c-1.906,3.723-5.546,6.664-10.818,8.74          C309.659,123.244,309.5,123.273,309.342,123.273z"/>
							</g>
						</g>
						<g>
							<g>
								<path style="fill:#302945;" d="M343.77,130.943c0,0.85-0.026,1.726-0.103,2.602c-1.211,0.206-2.396,0.85-3.143,1.34          c-4.302,2.731-7.574,7.136-8.965,12.031c-1.365,4.921-0.876,10.382,1.391,14.967c0.438,0.927,1.803,3.375,3.942,4.817          c-0.309,0.824-0.618,1.623-0.953,2.422c-2.087-1.236-3.941-3.349-5.307-6.105c-2.524-5.152-3.091-11.258-1.546-16.797          c1.546-5.513,5.204-10.433,10.047-13.499C340.756,131.69,342.327,131.097,343.77,130.943z"/>
							</g>
						</g>
						<g>
							<g>
								<path style="fill:#302945;" d="M298.997,195.939c-4.354,6.492-12.056,10.408-19.811,10.408c-1.623,0-3.272-0.18-4.869-0.541          c-1.391-0.309-2.653-0.721-3.787-1.237c0.721-0.618,1.443-1.262,2.164-1.906c0.67,0.258,1.391,0.464,2.164,0.644          c8.115,1.803,17.363-1.906,22-8.81c3.838-5.719,4.457-13.525,1.829-19.914c0.592-0.85,1.159-1.726,1.674-2.602          C304.149,179.452,303.711,188.906,298.997,195.939z"/>
							</g>
						</g>
						<g>
							<g>
								<path style="fill:#302945;" d="M292.839,225.719c-0.953,0.876-1.932,1.726-2.885,2.576          c-5.333,0.206-10.588,2.267-14.529,5.899c-3.839,3.555-6.337,8.45-7.084,13.602c-0.979,0.953-1.932,1.906-2.834,2.834          c0.155-6.853,3.117-13.679,8.166-18.342C278.799,227.574,285.91,225.23,292.839,225.719z"/>
							</g>
						</g>
						<g>
							<g>
								<path style="fill:#302945;" d="M223.825,275.542c-1.571,2.37-3.066,4.637-2.911,7.084c0.103,1.623,0.902,3.143,1.752,4.766          c0.489,0.902,0.979,1.829,1.365,2.808c1.417,3.555,1.262,7.754-0.387,11.232c-1.468,3.143-3.993,5.487-6.415,7.754          c-0.979,0.902-1.958,1.803-2.859,2.782c-0.361,0.386-0.721,0.773-1.056,1.211c-0.335-0.927-0.644-1.906-0.901-2.885          c0.026-0.026,0.051-0.077,0.077-0.103c0.953-1.005,1.958-1.932,2.963-2.885c2.37-2.216,4.585-4.276,5.874-6.981          c1.34-2.834,1.468-6.26,0.309-9.171c-0.335-0.876-0.799-1.726-1.236-2.55c-0.953-1.803-1.932-3.632-2.061-5.822          c-0.206-3.323,1.597-6.028,3.349-8.656c0.412-0.618,0.824-1.236,1.185-1.855c1.34-2.216,3.426-6.595,2.318-11.181          c-0.464-1.829-1.417-3.452-2.731-4.663c0.412-0.747,0.876-1.494,1.34-2.241c0.026,0.026,0.052,0.052,0.077,0.077          c1.803,1.572,3.194,3.735,3.813,6.209c0.979,4.07,0.052,8.733-2.602,13.138          C224.701,274.254,224.263,274.898,223.825,275.542z"/>
							</g>
						</g>
						<g>
							<g>
								<path style="fill:#302945;" d="M266.743,325.03c-1.159,0-2.319-0.103-3.452-0.283c-6.853-1.108-12.649-5.693-14.71-11.644          c-0.644-1.829-0.902-3.761-0.799-5.693c0.799,0.258,1.674,0.438,2.576,0.567c-0.026,1.468,0.18,2.911,0.67,4.276          c1.726,4.998,6.827,8.991,12.675,9.944c0.438,0.077,0.876,0.129,1.314,0.155          C265.558,323.252,266.151,324.128,266.743,325.03z"/>
							</g>
						</g>
						<g>
							<g>
								<path style="fill:#302945;" d="M380.969,328.585c-0.335,1.211-0.799,2.422-1.34,3.581c-0.541-0.824-1.134-1.649-1.778-2.396          c0.232-0.618,0.438-1.237,0.618-1.88c1.572-5.59,0.438-11.85-2.962-16.307c-1.778-2.318-4.148-4.122-6.775-5.281          c-0.335-1.056-0.644-2.087-0.953-3.091c3.813,1.211,7.316,3.581,9.789,6.827          C381.433,315.111,382.747,322.221,380.969,328.585z"/>
							</g>
						</g>
						<g>
							<g>
								<path style="fill:#302945;" d="M415.181,342.161c-7.883-0.953-15.045-7.522-17.234-15.946          c-1.417-5.384-0.876-11.464,1.365-17.183c0.67,0.696,1.314,1.391,1.958,2.138c-1.674,4.869-2.009,9.918-0.824,14.401          c1.855,7.11,7.703,12.752,14.246,13.937v0.026C414.871,340.383,415.052,341.259,415.181,342.161z"/>
							</g>
						</g>
						<g>
							<g>
								<path style="fill:#302945;" d="M392.742,379.257c-0.052,4.689-1.005,11.309-5.281,16.178l-0.464,0.515          c-0.592,0.644-1.159,1.262-1.417,1.932c-0.258,0.696-0.232,1.546-0.206,2.421l0.026,0.541          c0.129,7.239-3.478,14.349-9.403,18.522c-3.761,2.653-8.295,4.019-12.855,4.019c-0.232,0-0.489,0-0.721-0.026          c0.644-0.85,1.288-1.726,1.881-2.602c3.632-0.206,7.213-1.391,10.202-3.504c5.255-3.684,8.424-9.97,8.321-16.358          l-0.026-0.515c-0.026-1.056-0.077-2.241,0.361-3.401c0.438-1.134,1.237-2.009,1.932-2.782l0.438-0.464          c3.735-4.276,4.585-10.253,4.637-14.504c0.051-3.916-0.541-6.827-1.881-9.171c-0.799-1.417-1.932-2.576-3.22-3.323          c0.103-0.773,0.206-1.726,0.309-2.782c2.061,0.953,3.916,2.654,5.152,4.843          C392.098,371.529,392.794,374.852,392.742,379.257z"/>
							</g>
						</g>
						<g>
							<g>
								<path style="fill:#302945;" d="M398.565,422.588c-0.567,1.056-1.133,2.087-1.752,3.117          c-5.719,1.803-13.834,4.92-19.141,11.129c-4.07,4.74-6.466,12.469-3.735,18.677c-0.644,0.644-1.288,1.288-1.958,1.906          c-3.426-6.621-1.932-15.637,3.735-22.258c5.771-6.75,14.427-10.047,20.429-11.928          C396.942,422.974,397.74,422.743,398.565,422.588z"/>
							</g>
						</g>
						<g>
							<g>
								<path style="fill:#302945;" d="M340.344,445.516c-1.443,9.326-7.162,17.44-14.89,20.558          c-2.885,1.185-5.848,1.649-8.707,1.649c-5.487,0-10.665-1.726-14.401-3.426c1.237-0.387,2.447-0.799,3.684-1.237          c0.026,0,0.026,0,0.026,0c5.152,1.906,12.031,3.22,18.445,0.644c6.183-2.499,10.923-8.63,12.752-15.972          c0.077-0.052,0.155-0.103,0.232-0.155C338.463,446.907,339.416,446.211,340.344,445.516z"/>
							</g>
						</g>
						<g>
							<g>
								<path style="fill:#302945;" d="M354.461,471.561c-0.85,0.618-1.7,1.185-2.55,1.726c-2.112-0.67-4.405-0.747-6.002-0.696          c-6.544,0.206-12.314,2.422-16.256,6.183c-2.447,2.319-4.096,5.281-4.792,8.347c-0.927,0.361-1.829,0.721-2.782,1.056          c0.541-4.122,2.55-8.192,5.796-11.284c4.405-4.199,10.768-6.646,17.956-6.878          C348.072,469.938,351.524,470.118,354.461,471.561z"/>
							</g>
						</g>
						<g>
							<g>
								<path style="fill:#302945;" d="M289.774,467.593c0.077,3.839-0.67,7.394-3.194,10.099c-2.679,2.911-7.11,4.276-12.829,3.967          c-1.34-0.077-2.654-0.232-3.993-0.361c-2.937-0.309-5.719-0.618-8.476-0.18c-1.288,0.206-2.525,0.541-3.839,0.927          c-1.855,0.515-3.735,1.056-5.745,1.159c-0.232,0-0.464,0.026-0.696,0.026c-3.89,0-7.96-1.674-11.567-4.74          c-2.19-1.881-4.045-4.07-5.719-6.337c1.133,0.051,2.241,0.077,3.349,0.129c1.237,1.52,2.576,2.988,4.044,4.251          c3.298,2.808,7.007,4.276,10.459,4.096c1.7-0.077,3.4-0.567,5.178-1.056c1.314-0.386,2.705-0.773,4.122-1.005          c3.091-0.489,6.183-0.155,9.171,0.18c1.262,0.129,2.55,0.258,3.838,0.335c3.426,0.18,8.089-0.206,10.82-3.143          c1.906-2.035,2.499-4.818,2.525-7.78C288.074,467.98,288.924,467.799,289.774,467.593z"/>
							</g>
						</g>
						<g>
							<g>
								<path style="fill:#302945;" d="M223.103,489.851h0.155h0.026c1.52-0.129,2.963-0.515,4.405-0.876          c1.03-0.258,2.087-0.541,3.117-0.696c5.667-0.902,11.593,1.417,15.405,5.616c0.438,0.077,0.876,0.129,1.314,0.18          c0.618,0.077,1.236,0.155,1.855,0.206c0.155,0.026,0.283,0.052,0.438,0.052c-4.173-6.131-11.979-9.789-19.398-8.604          c-1.133,0.18-2.241,0.464-3.349,0.747c-2.241,0.541-4.328,1.082-6.389,0.747c-1.597-0.258-3.117-1.056-4.714-1.906          c-0.438-0.206-0.85-0.438-1.288-0.644c-6.415-3.194-13.86-4.251-20.944-3.091c2.19,0.747,4.379,1.468,6.569,2.138          c4.586,0.129,9.145,1.237,13.241,3.246c0.412,0.206,0.824,0.438,1.237,0.644c0.258,0.129,0.489,0.258,0.747,0.386h0.026          L223.103,489.851z"/>
							</g>
						</g>
						<g>
							<g>
								<path style="fill:#302945;" d="M210.301,77.959c0,2.119-1.718,3.837-3.837,3.837s-3.837-1.718-3.837-3.837          c0-2.119,1.718-3.837,3.837-3.837S210.301,75.84,210.301,77.959z"/>
							</g>
						</g>
					</g>
				</g>
				<g>
					<path style="fill:#F7EDE5;" d="M391.382,336.578c0.868,15.522-0.835,31.406-5.42,47.083       c-21.746,74.356-99.668,117.014-174.024,95.269c-74.429-21.767-117.088-99.689-95.342-174.045       c4.585-15.677,11.709-29.975,20.803-42.584c3.164,57.704,42.104,109.729,100.783,126.889       C296.788,406.329,357.624,383.484,391.382,336.578z"/>
				</g>
			</g>
			<g>
				<g>
					<path style="fill:#9DD1A9;" d="M151.203,161.032c4.07-2.937,8.63-5.152,13.37-6.827c-0.85,3.658-2.396,7.11-4.792,10.073       c5.874,13.061,2.988,29.239-6.621,39.853c-10.408,11.541-28.801,16.9-37.225,29.986c-0.052-0.103-0.077-0.232-0.103-0.335       c-0.026-0.026,0-0.026,0-0.026c-2.808-8.038-5.616-16.024-8.398-24.061c-2.963-8.527-5.977-17.209-6.209-26.199       c-0.232-9.016,2.731-18.574,9.815-24.164c0-9.068,2.344-18.059,6.595-26.071c1.031,3.401,2.473,6.672,4.277,9.738       c-0.979-4.354-1.726-8.862-2.164-13.37c0.953-1.546,1.984-3.04,3.091-4.482c7.471-9.738,17.698-17.209,28.879-22.232       c2.859,10.356,9.3,20.145,12.056,30.527c1.314,4.895,1.984,10.15,1.623,15.225       C160.194,152.247,155.428,156.395,151.203,161.032z"/>
				</g>
				<g>
					<path style="fill:#302945;" d="M115.479,238.433c-0.018,0-0.034,0-0.052-0.003c-0.354-0.026-0.619-0.337-0.591-0.692       c0.033-0.424,3.377-42.846,10.867-75.078c7.503-32.295,25.31-59.83,25.488-60.104c0.195-0.296,0.594-0.377,0.892-0.187       c0.298,0.195,0.381,0.594,0.187,0.892c-0.179,0.272-17.863,27.624-25.312,59.692c-7.467,32.136-10.805,74.463-10.839,74.887       C116.094,238.177,115.811,238.433,115.479,238.433z"/>
				</g>
			</g>
			<g>
				<g>
					<path style="fill:#9DD1A9;" d="M388.028,134.536c-0.966,4.925-2.781,9.659-5.098,14.12c-1.879-3.252-3.109-6.829-3.383-10.629       c-13.213-5.524-22.16-19.308-22.395-33.624c-0.286-15.538,9.484-32.018,6.693-47.33c0.108,0.04,0.215,0.116,0.304,0.174       c0.036,0.001,0.018,0.019,0.018,0.019c7.542,3.95,15.049,7.863,22.572,11.831c7.989,4.202,16.122,8.482,22.434,14.888       c6.33,6.425,10.697,15.428,9.343,24.351c6.196,6.621,10.627,14.788,12.997,23.542c-3.076-1.779-6.365-3.182-9.776-4.188       c3.69,2.51,7.315,5.292,10.715,8.284c0.36,1.78,0.628,3.575,0.805,5.385c1.198,12.215-1.165,24.658-5.897,35.965       c-9.164-5.608-20.555-8.356-29.661-14.053c-4.304-2.676-8.383-6.056-11.588-10.008       C387.465,147.093,388.111,140.809,388.028,134.536z"/>
				</g>
				<g>
					<path style="fill:#302945;" d="M427.355,177.981c-0.306,0-0.579-0.22-0.633-0.532c-0.057-0.321-5.833-32.375-22.302-60.881       c-16.505-28.567-42.987-61.753-43.252-62.085c-0.221-0.278-0.177-0.683,0.101-0.906c0.281-0.219,0.683-0.176,0.906,0.101       c0.265,0.333,26.807,33.594,43.361,62.246c16.588,28.709,22.399,60.98,22.456,61.302c0.062,0.351-0.172,0.684-0.522,0.746       C427.43,177.978,427.392,177.981,427.355,177.981z"/>
				</g>
			</g>
			<g>
				<g>
					<g>
						<g>
							<g>
								<polygon style="fill:#F7EDE5;" points="81.604,251.851 84.294,207.906 86.387,252.15 97.448,243.182 90.871,253.645           114.488,256.634 91.469,259.623 98.046,268.891 86.985,262.912 83.995,301.177 81.604,263.51 70.244,268.293           77.419,259.623 48.72,255.737 77.12,254.541 70.543,244.676         "/>
							</g>
						</g>
					</g>
				</g>
				<g>
					<g>
						<g>
							<g>
								<polygon style="fill:#F7EDE5;" points="409.378,224.207 412.068,180.262 414.161,224.505 425.222,215.537 418.645,226           442.262,228.99 419.243,231.979 425.82,241.247 414.759,235.268 411.769,273.532 409.378,235.865 398.018,240.649           405.193,231.979 376.494,228.093 404.894,226.897 398.317,217.032         "/>
							</g>
						</g>
					</g>
				</g>
			</g>
			<g>
				<g>
					<path style="fill:#FFFFFF;" d="M386.557,170.986l-12.805,4.602c-0.38,0.137-0.679,0.435-0.815,0.815l-4.602,12.805       c-0.428,1.193-2.116,1.193-2.545,0l-4.602-12.805c-0.137-0.38-0.435-0.679-0.815-0.815l-12.805-4.602       c-1.193-0.429-1.193-2.116,0-2.545l12.805-4.602c0.38-0.137,0.679-0.435,0.815-0.815l4.602-12.805       c0.429-1.193,2.117-1.193,2.545,0l4.602,12.805c0.137,0.38,0.435,0.679,0.815,0.815l12.805,4.602       C387.751,168.869,387.751,170.557,386.557,170.986z"/>
				</g>
				<g>
					<path style="fill:#FFFFFF;" d="M211.599,296.614l-12.805,4.602c-0.38,0.136-0.679,0.435-0.815,0.815l-4.602,12.806       c-0.428,1.193-2.116,1.193-2.545,0l-4.602-12.806c-0.137-0.38-0.435-0.679-0.815-0.815l-12.805-4.602       c-1.193-0.429-1.193-2.116,0-2.545l12.805-4.602c0.38-0.136,0.679-0.435,0.815-0.815l4.602-12.805       c0.429-1.193,2.117-1.193,2.545,0l4.602,12.805c0.137,0.38,0.435,0.679,0.815,0.815l12.805,4.602       C212.792,294.497,212.792,296.185,211.599,296.614z"/>
				</g>
			</g>
		</g>
	</g>
</g>















</svg>
