<?xml version="1.0" encoding="iso-8859-1"?>
<!-- Generator: Adobe Illustrator 26.5.3, SVG Export Plug-In . SVG Version: 6.00 Build 0)  -->
<svg xmlns="http://www.w3.org/2000/svg" xmlns:xlink="http://www.w3.org/1999/xlink" version="1.1" id="Capa_1" x="0px" y="0px" viewBox="0 0 512 512" style="enable-background:new 0 0 512 512;" xml:space="preserve">
<g>
	<g>
		<g>
			<path d="M239.558,441.749c-0.075,11.818-2.026,24.119-6.382,35.967c-2.844,7.736-6.751,14.914-12.688,20.771     c-4.062,4.007-8.936,6.673-14.685,7.069c-5.745,0.395-10.663-1.9-14.971-5.62c-6.167-5.325-10.018-12.172-12.801-19.669     c-5.293-14.258-6.64-28.979-5.311-44.083c0.938-10.665,3.168-20.973,7.233-30.853c3.107-7.55,7.073-14.552,13.346-20.066     c8.229-7.233,19.644-7.26,27.852,0.053c6.029,5.372,9.776,12.197,12.536,19.618c3.177,8.543,4.797,17.422,5.511,26.504     C239.447,434.618,239.43,437.783,239.558,441.749z M191.56,453.703c0.118,6.147-0.192,12.301,0.445,18.442     c0.636,6.131,1.31,12.265,3.422,18.087c1.358,3.743,3.635,6.865,7.896,7.697c4.545,0.887,7.205-1.788,9.383-5.239     c4.762-7.546,6.19-16.104,7.21-24.709c0.986-8.318,1.033-16.712,1.43-25.079c0.508-10.702,0.24-21.36-1.046-31.963     c-0.795-6.557-2.208-13.028-4.697-19.245c-2.381-5.946-10.88-6.359-14.243-1.286c-4.055,6.118-6.392,12.805-7.25,20.014     C192.4,424.795,191.388,439.216,191.56,453.703z"/>
			<path d="M132.178,443.315c3.505,0.566,6.913,0.966,10.274,1.768c11.224,2.679,21.125,13.949,22.419,25.419     c1.323,11.72-3.725,20.572-12.379,27.736c-6.938,5.744-15.123,9.106-23.701,11.558c-5.475,1.565-11.04,2.488-16.776,2.127     c-2.245-0.141-3.334-1.191-3.793-3.397c-1.367-6.567-1.952-13.23-2.623-19.881c-0.787-7.794-1.55-15.592-2.202-23.398     c-0.579-6.93-0.972-13.876-1.481-20.812c-0.618-8.418-1.351-16.828-1.883-25.251c-0.387-6.133-0.938-12.253-1.342-18.382     c-0.348-5.27,1.14-7.105,6.132-8.809c8.029-2.74,16.202-3.555,24.571-1.997c12.401,2.307,21.043,11.841,21.488,24.454     c0.27,7.649-2.707,14.372-7.888,20.057C139.838,437.967,136.204,440.837,132.178,443.315z M126.209,450.25     c-1.419,0-2.838,0.018-4.257-0.004c-1.981-0.031-2.761,0.866-2.593,2.88c0.478,5.718,0.873,11.443,1.255,17.168     c0.711,10.643,1.408,21.288,2.065,31.934c0.098,1.582,0.756,2.055,2.213,1.58c3.917-1.277,7.913-2.357,11.729-3.886     c3.066-1.228,5.791-3.123,8.01-5.707c4.954-5.769,6.156-12.622,5.938-19.896C150.175,461.169,140.318,448.866,126.209,450.25z      M138.87,416.326c0.269-11.538-6.918-22.21-21.465-20.503c-2.269,0.266-2.567,0.584-2.275,2.795     c0.327,2.478,0.741,4.951,0.931,7.44c0.878,11.515,1.69,23.035,2.53,34.553c0.149,2.04,0.563,2.396,2.368,1.543     C131.419,437.21,139.17,428.819,138.87,416.326z"/>
			<path d="M360.59,507.425c-10.139,0.111-17.828-2.651-23.699-9.026c-4.501-4.887-7.308-10.897-7.763-17.699     c-0.266-3.977-0.308-7.977,0.715-11.896c0.278-1.064,0.619-2.082,1.511-2.801c0.953-0.769,2.012-1.106,3.213-0.66     c1.224,0.454,1.783,1.439,1.868,2.659c0.051,0.728-0.085,1.478-0.206,2.207c-1.436,8.643,0.257,16.548,5.697,23.496     c3.292,4.205,7.869,6.087,13,7.176c11.558,2.451,19.816-9.306,17.012-20.204c-1.309-5.087-4.04-9.24-7.318-13.145     c-4.568-5.441-9.71-10.342-14.641-15.443c-6.566-6.793-12.273-14.169-15.658-23.17c-6.162-16.388-2.091-35.815,10.122-46.512     c6.386-5.593,14.099-8.117,22.426-5.386c7.528,2.469,12.41,8.058,14.331,15.834c2.357,9.542-0.16,18.044-6.059,25.691     c-0.456,0.591-0.979,1.185-1.753,1.303c-0.988,0.151-2.1,0.409-2.848-0.493c-0.778-0.938-0.014-1.758,0.448-2.572     c4.418-7.785,5.632-15.995,2.998-24.607c-1.998-6.532-8.673-9.127-14.425-5.463c-8.333,5.308-10.066,11.207-7.654,21.204     c1.733,7.183,5.623,13.417,10.092,19.266c4.938,6.461,11.033,11.884,16.204,18.137c5.97,7.22,10.28,15.227,11.689,24.59     c1.343,8.92,0.38,17.368-5.196,24.891C378.798,502.755,369.467,507.428,360.59,507.425z"/>
			<path d="M283.669,489.053c6.628-0.247,13.236,0.392,19.856,0.468c2.824,0.032,4.327,0.885,4.089,2.283     c-0.394,2.322-2.45,2.057-4.035,2.136c-10.188,0.509-20.381,0.859-30.584,0.969c-5.606,0.061-11.207,0.19-16.792-0.424     c-2.552-0.28-3.53-1.023-3.839-3.608c-0.392-3.28-0.571-6.591-0.706-9.895c-0.59-14.511-1.131-29.024-1.691-43.537     c-0.515-13.362-1.762-26.686-2.109-40.059c-0.079-3.034-0.523-6.057-0.68-9.091c-0.178-3.456,1.224-5.058,4.721-5.604     c3.271-0.511,6.539-1.016,9.847-1.272c3.564-0.276,5.833,1.351,6.466,4.915c0.248,1.394,0.426,2.814,0.471,4.227     c0.185,5.874,0.343,11.75,0.446,17.626c0.185,10.609,0.211,21.221,0.507,31.827c0.434,15.533,1.189,31.058,1.046,46.602     c-0.017,1.826,0.553,2.534,2.441,2.47C276.635,488.969,280.154,489.053,283.669,489.053z"/>
			<path d="M295.426,453.267c-0.283-13.459,0.279-26.91,0.565-40.359c0.218-10.267-0.065-20.554,0.771-30.804     c0.116-1.422-0.397-1.743-1.672-1.767c-4.932-0.089-9.863-0.272-14.795-0.382c-1.574-0.035-3.092-0.313-4.577-0.798     c-1.07-0.349-1.725-1.075-1.724-2.238c0.001-1.164,0.671-1.885,1.729-2.242c1.682-0.569,3.449-0.669,5.196-0.809     c9.256-0.737,18.498,0.076,27.748,0.261c7.774,0.156,15.553,0.08,23.33,0.103c1.082,0.003,2.163-0.03,3.21,0.34     c1.065,0.377,1.692,1.077,1.744,2.235c0.052,1.144-0.454,1.947-1.493,2.412c-0.744,0.333-1.507,0.598-2.338,0.611     c-4.59,0.068-9.18,0.134-13.769,0.217c-0.742,0.013-1.481,0.135-2.223,0.155c-1.591,0.044-2.161,0.763-2.177,2.418     c-0.142,14.056-1.297,28.076-1.35,42.146c-0.025,6.749-0.186,13.515-0.259,20.273c-0.108,9.938-0.573,19.858-1.187,29.773     c-0.273,4.417-1.594,5.787-6.034,6.304c-1.473,0.171-2.966,0.272-4.447,0.241c-4.036-0.083-5.966-1.896-6.135-5.977     c-0.159-3.849-0.094-7.708-0.11-11.563C295.415,460.3,295.426,456.783,295.426,453.267z"/>
		</g>
		<g>
			<path d="M464.113,278.008c1.431-4.021,1.813-4.296,6.112-4.379c1.893-0.036,3.79-0.088,5.679-0.005     c2.672,0.117,3.72,1.104,4.307,3.698c0.72,3.183,0.872,6.435,1.074,9.664c0.823,13.2-0.067,26.321-2.057,39.382     c-0.448,2.939-0.693,5.909-1.179,8.841c-0.298,1.802,0.381,1.986,1.978,1.892c6.745-0.397,13.229,0.547,19.006,4.387     c4.678,3.11,6.065,7.947,3.987,13.127c-0.944,2.352-2.323,4.427-3.681,6.518c-1.743,2.684-4.771,2.59-6.045-0.337     c-2.854-6.553-8.186-10.017-14.574-12.281c-2.473-0.876-2.665-0.711-3.246,1.814c-3.342,14.507-9.137,27.892-18.873,39.272     c-5.4,6.311-11.797,11.606-20.509,12.35c-8.012,0.685-16.26-2.556-18.691-11.954c-1.756-6.787-0.845-13.01,2.123-19.075     c4.43-9.052,11.754-15.374,20.109-20.614c6.21-3.894,12.782-7.067,19.833-9.145c1.858-0.548,2.838-1.5,2.977-3.516     c0.208-3.031,0.671-6.044,0.955-9.072c0.071-0.759,0.298-1.583-0.247-2.498c-1.43,1.543-2.437,3.295-3.763,4.795     c-6.467,7.318-15.463,8.031-22.789,1.618c-1.177-1.03-1.635-0.932-2.306,0.43c-2.537,5.151-5.015,10.329-9.033,14.593     c-4.181,4.438-8.715,8.137-15.144,8.486c-10.798,0.587-17.723-6.943-18.513-17.535c-0.72-9.644,1.557-18.814,4.879-27.754     c2.849-7.666,5.865-15.27,8.814-22.899c0.639-1.652,0.992-3.375,1.247-5.113c0.154-1.051,0.436-2.286-0.682-2.968     c-1.184-0.722-2.495-0.547-3.654,0.183c-2.43,1.528-4.419,3.514-6.16,5.805c-5.954,7.837-9.164,16.907-12.128,26.142     c-2.103,6.554-2.895,13.322-4.049,20.043c-0.831,4.841-1.756,5.523-6.579,5.41c-5.136-0.12-6.685-1.495-7.369-6.614     c-0.196-1.467-0.286-2.949-0.437-4.562c-0.859,0.226-0.964,0.978-1.213,1.517c-1.856,4.021-4.913,6.933-8.606,9.196     c-4.239,2.597-9.318,1.76-13.491-2.249c-1.212-1.164-1.528-1.04-2.005,0.507c-2.584,8.384-6.94,15.575-13.878,21.178     c-8.343,6.739-20.204,3.309-23.468-6.901c-1.995-6.241-1.686-12.506-0.616-18.841c1.805-10.693,5.668-20.702,9.867-30.621     c1.18-2.786,2.326-5.629,2.699-8.689c0.327-2.679-0.402-3.51-3.041-3.412c-3.048,0.113-5.632,1.465-7.915,3.302     c-4.908,3.949-8.076,9.214-10.731,14.816c-3.847,8.118-5.512,16.951-8.284,25.422c-0.124,0.38-0.15,0.796-0.194,1.198     c-0.51,4.654-5.785,6.966-9.629,4.22c-1.36-0.971-1.622-2.464-1.763-3.944c-0.34-3.564-0.582-7.137-0.881-10.705     c-0.042-0.501,0.206-1.067-0.376-1.62c-1.656,3.373-3.199,6.727-4.931,9.981c-1.778,3.342-4.249,6.108-7.669,7.865     c-4.328,2.223-9.084,1.136-12.218-2.623c-1.429-1.715-2.641-3.557-3.791-5.998c-1.15,2.861-2.104,5.338-3.137,7.783     c-2.732,6.465-5.981,12.583-11.634,17.063c-3.327,2.637-7.005,4.421-11.342,4.204c-5.193-0.259-8.571-3.382-10.986-7.634     c-2.165-3.813-3.213-7.954-3.406-12.387c-0.498-11.452,3.342-21.781,7.845-31.991c1.687-3.826,3.882-7.448,4.862-11.573     c0.294-1.24,0.979-2.733-0.034-3.656c-1.137-1.036-2.584-0.049-3.775,0.477c-6.268,2.771-9.997,8.002-12.646,13.956     c-4.244,9.541-6.188,19.699-7.059,30.063c-0.469,5.575-6.223,8.55-11.126,5.658c-1.553-0.916-2.147-2.428-2.236-4.105     c-0.42-7.899-0.258-15.795,0.155-23.692c0.395-7.561,1.021-15.104,1.781-22.633c1.33-13.173,2.13-26.408,4.481-39.468     c1.227-6.818,2.647-8.025,9.57-7.803c0.673,0.022,1.348,0.107,2.011,0.224c3.392,0.6,4.6,2.278,4.054,5.735     c-0.601,3.802-1.286,7.591-1.901,11.391c-1.781,11.011-3.14,22.072-4.031,33.193c-0.35,4.371-0.92,8.725-1.264,13.143     c1.111-3.41,2.514-6.697,4.362-9.752c4.122-6.812,9.621-11.78,17.825-13.126c6.496-1.066,11.862,2.004,14.093,8.188     c1.787,4.953,1.034,9.862-0.163,14.77c-1.433,5.872-3.919,11.361-6.173,16.934c-2.052,5.075-4.284,10.107-4.506,15.7     c-0.11,2.775-0.039,5.563,1.188,8.132c1.601,3.35,3.845,3.774,6.573,1.269c3.534-3.245,6.024-7.273,8.355-11.404     c2.471-4.378,4.011-9.154,5.815-13.815c0.367-0.949,0.595-1.93,0.506-2.973c-1.225-14.377,0.202-28.616,2.238-42.823     c0.163-1.137,0.292-2.279,0.461-3.415c0.353-2.383,0.071-2.689-2.267-2.299c-4.144,0.691-8.294,1.085-12.509,0.736     c-5.924-0.491-11.167-2.305-15.368-6.788c-3.127-3.338-3.717-12.494-0.108-15.154c0.993-0.732,1.95-1.474,3.146-1.778     c2.867-0.728,5.778-0.724,8.641-0.092c2.666,0.588,3.36,2.208,2.209,4.706c-0.282,0.612-0.654,1.183-0.973,1.778     c-2.724,5.08-0.735,9.935,4.88,11.37c4.055,1.037,8.188,0.629,12.269-0.175c1.105-0.217,1.496-1.004,1.706-2.007     c0.746-3.574,1.393-7.175,2.314-10.704c2.274-8.712,3.093-8.011,10.803-7.584c4.174,0.231,4.59,1.01,4.628,5.212     c0.02,2.262-0.468,4.437-0.944,6.611c-0.345,1.578,0.209,1.655,1.419,1.1c4.3-1.974,8.658-3.807,13.078-5.501     c8.915-3.417,18.001-5.859,27.678-5.191c4.858,0.335,9.526,1.3,13.546,4.263c2.219,1.635,3.943,3.672,4.783,6.369     c1.808,5.805-1.507,10.04-7.603,9.663c-1.28-0.079-2.56-0.215-3.829-0.404c-2.192-0.327-3.027-1.284-3.173-3.509     c-0.37-5.658-2.218-7.542-7.888-8.25c-5.33-0.665-10.437-0.003-15.558,1.68c-7.519,2.472-14.801,5.588-22.346,7.969     c-1.308,0.413-1.932,1.201-2.116,2.611c-1.494,11.458-3.248,22.88-4.062,34.423c-0.385,5.463-0.964,10.908-0.688,16.393     c0.119,2.362,0.317,4.723,0.936,7.021c0.802,2.978,2.103,3.301,4.338,1.088c2.587-2.561,4.267-5.729,5.931-8.904     c1.036-1.976,2.093-3.945,3.034-5.967c1.46-3.137,2.512-6.321,2.365-9.926c-0.249-6.078,0.018-12.168,0.676-18.221     c0.385-3.539,1.796-5.005,5.209-5.862c1.771-0.445,3.558-0.806,5.405-0.784c3.468,0.04,5.051,1.486,4.905,4.975     c-0.21,4.992-0.587,9.98-1.013,14.96c-0.222,2.595,0.007,5.2-0.381,7.831c1.446-3.61,3.159-7.017,5.035-10.348     c3.861-6.854,9.136-12.237,16.42-15.385c5.208-2.251,10.607-2.813,15.506,0.595c5.46,3.798,6.88,9.512,6.069,15.799     c-0.975,7.565-3.717,14.657-6.319,21.767c-2.352,6.426-4.501,12.911-5.059,19.775c-0.219,2.692,0.15,5.413,1.144,7.971     c0.892,2.297,2.448,2.898,4.69,1.883c3.721-1.686,5.878-4.875,7.777-8.269c2.154-3.849,3.626-7.999,5.168-12.115     c0.268-0.715,0.39-1.4,0.118-2.164c-2.585-7.273-2.259-14.76-1.566-22.263c0.454-4.918,1.355-9.772,2.242-14.624     c0.229-1.255,0.599-2.504,1.065-3.692c0.698-1.779,2.067-2.816,3.994-3.004c1.882-0.184,3.767-0.372,5.655-0.457     c3.912-0.177,5.125,1.043,4.714,4.872c-0.475,4.433-0.993,8.865-1.645,13.275c-0.811,5.485-1.385,10.995-1.854,16.514     c-0.305,3.59,0.061,7.172,1.053,10.644c0.866,3.03,3.021,3.524,5.268,1.262c1.389-1.398,2.465-3.028,3.397-4.774     c3.486-6.527,5.67-13.345,5.566-20.87c-0.101-7.246,0.754-14.435,2.098-21.561c0.753-3.991,1.63-6.211,6.767-5.946     c1.812,0.094,3.647-0.274,5.462-0.202c3.256,0.13,4.619,1.511,4.404,4.738c-0.288,4.31-0.842,8.603-1.302,12.901     c-0.107,1.001-0.379,1.99-0.045,3.509c0.708-1.628,1.243-2.878,1.793-4.121c2.42-5.47,5.263-10.687,9.665-14.844     c4.626-4.369,9.905-7.26,16.513-5.537c5.881,1.533,10.057,5.07,11.634,11.212c1.39,5.412,0.25,10.592-1.359,15.732     c-2.527,8.074-6.416,15.629-9.02,23.68c-1.862,5.758-3.508,11.519-2.72,17.668c0.103,0.802,0.225,1.611,0.439,2.389     c1.08,3.928,3.947,5.2,7.628,3.404c3.754-1.832,6.618-4.64,8.82-8.147c1.833-2.919,3.633-5.86,5.429-8.803     c0.533-0.874,1.07-1.81,0.473-2.848c-2.742-4.767-3.038-10.048-3.112-15.329c-0.134-9.591,2.112-18.658,6.721-27.059     c2.539-4.628,5.988-8.49,10.941-10.745c5.489-2.5,10.385-1.438,14.83,2.426C462.441,276.597,463.213,277.242,464.113,278.008z      M422.923,384.249c-0.647,6.303,6.752,13.006,14.173,9.238c4.073-2.068,7.226-5.033,9.757-8.638     c7.336-10.449,10.949-22.379,13.405-34.74c0.367-1.844-0.445-1.965-1.877-1.51c-2.707,0.86-5.338,1.898-7.957,3.005     c-7.737,3.272-14.5,7.888-19.78,14.438C426.433,371.264,423.12,376.972,422.923,384.249z M445.231,311.847     c0.156,4.537,0.161,8.832,2.174,12.745c1.612,3.134,4.639,3.906,7.47,1.91c2.338-1.648,4.403-3.6,5.482-6.359     c4.239-10.841,5.222-21.86,1.843-33.131c-0.455-1.518-1.209-2.867-2.076-4.152c-1.652-2.45-4.027-2.719-6.176-0.655     c-1.871,1.797-3.268,3.965-4.266,6.354C446.533,296.096,445.506,304.038,445.231,311.847z"/>
			<path d="M159.89,274.581c0.109-3.511,2.321-4.486,5.447-4.324c1.412,0.073,2.832-0.02,4.247,0.015     c2.536,0.063,3.483,0.727,4.175,3.292c0.849,3.145,1.109,6.41,1.157,9.64c0.264,17.834-1.508,35.488-4.995,52.974     c-0.106,0.53-0.102,1.094-0.279,1.596c-0.521,1.473,0.071,2.244,1.44,2.785c3.954,1.563,7.451,3.83,10.272,7.05     c7.025,8.018,5.274,15.144-0.782,22.08c-0.776,0.889-1.811,1.166-2.955,0.848c-1.381-0.383-1.604-1.594-1.704-2.73     c-0.456-5.203-2.707-9.511-6.152-13.371c-3.224-3.612-3.799-3.665-5.603,0.762c-2.363,5.796-5.171,11.345-9.288,16.074     c-6.382,7.329-13.758,13.474-23.711,14.889c-12.7,1.805-23.726-6.353-21.724-20.948c1.32-9.629,6.872-15.946,14.929-20.427     c9.742-5.418,20.326-7.579,31.413-7.325c1.57,0.036,1.825-0.819,2.037-1.917c0.923-4.788,1.187-9.655,1.653-14.495     c0.426-4.426,0.85-8.86,0.711-13.359c-1.843,3.441-3.321,7.038-5.36,10.352c-2.011,3.268-4.517,6.064-7.53,8.416     c-8.093,6.318-16.893,2.464-21.139-4.539c-0.14-0.231-0.247-0.481-0.379-0.717c-0.194-0.345-0.322-0.836-0.809-0.79     c-0.468,0.044-0.532,0.541-0.687,0.905c-1.317,3.111-2.484,6.297-3.989,9.314c-2.257,4.523-5.265,8.452-9.57,11.325     c-6.477,4.322-14.139,2.288-17-3.81c-0.675-1.439-1.266-1.449-2.138-0.023c-2.825,4.62-5.757,9.172-10.274,12.403     c-6.923,4.951-14.403,6.23-22.472,3.341c-3.454-1.236-6.709-2.909-9.524-5.294c-1.074-0.91-1.649-0.733-2.37,0.378     c-2.719,4.192-6.24,7.619-10.297,10.508c-7.733,5.508-16.611,5.578-23.925-0.514c-2.747-2.288-3.765-5.707-4.375-9.158     c-2.158-12.213,7.699-23.633,19.906-23.083c2.334,0.105,4.577,0.688,6.596,1.814c1.823,1.017,2.262,0.363,2.793-1.396     c4.231-14.01,6.587-28.443,9.815-42.679c1.046-4.613,2.238-9.195,3.471-13.763c0.37-1.371,0.341-1.82-1.274-1.504     c-5.438,1.062-10.758,2.507-14.882,6.408c-4.273,4.042-7.457,8.752-7.115,15.066c0.091,1.685,0.263,3.531-1.744,4.348     c-2.112,0.859-3.835-0.138-5.348-1.485c-3.786-3.368-4.485-7.732-3.669-12.43c1.19-6.847,5.658-11.18,11.482-14.344     c5.627-3.057,11.748-4.376,18.07-4.91c1.952-0.165,3.905-0.366,5.861-0.418c1.459-0.039,1.972-0.961,2.379-2.091     c1.983-5.5,4.607-10.691,7.944-15.475c5.68-8.14,13.232-13.661,23.118-15.532c8.059-1.525,13.607,5.535,10.871,13.839     c-3.564,10.812-10.922,17.99-21.614,21.686c-2.118,0.732-3.145,1.75-3.639,3.957c-3.634,16.226-7.338,32.437-11.149,48.623     c-1.954,8.299-4.49,16.428-8.33,24.084c-0.549,1.094-0.447,1.854,0.453,2.667c3.844,3.471,8.201,6.091,13.33,6.886     c4.656,0.721,9.003-0.764,12.849-3.38c4.164-2.832,6.817-7.03,9.67-11.079c2.242-3.181,2.539-6.5,2.633-10.248     c0.267-10.631,3.265-20.792,6.238-30.921c0.532-1.813,1.174-3.596,1.812-5.376c0.301-0.84,0.777-1.657,1.623-2.004     c3.176-1.306,6.518-1.328,9.729-0.463c1.849,0.498,1.967,2.421,1.525,4.117c-1.024,3.925-2.178,7.817-3.165,11.751     c-2.289,9.125-4.256,18.305-4.221,27.785c0.003,0.877,0.017,1.769,0.176,2.626c0.688,3.718,3.115,4.662,6.138,2.363     c3.224-2.452,5.062-5.984,6.809-9.468c1.844-3.677,3.246-7.574,4.877-11.359c0.47-1.091,0.553-2.185,0.515-3.359     c-0.428-13.187,2.813-25.168,11.803-35.188c2.473-2.757,5.482-4.82,9.008-6.037c5.455-1.884,10.235-0.732,14.34,3.299     c0.481,0.473,0.96,0.948,1.446,1.415C159.506,274.564,159.595,274.547,159.89,274.581z M115.303,366.035     c-0.015,9.882,8.24,15.629,16.229,12.671c4.828-1.787,8.615-5.009,11.933-8.8c5.391-6.158,8.662-13.454,11.212-21.151     c0.616-1.858,0.001-2.328-1.601-2.397c-10.317-0.441-20.243,0.82-29.068,6.772C118.936,356.553,115.549,361.017,115.303,366.035z      M137.587,313.33c-0.052,2.542,0.115,5.018,1.42,7.281c1.048,1.819,2.463,2.375,4.438,1.695c2.809-0.967,4.876-2.997,6.48-5.302     c4.898-7.035,7.898-14.871,9.026-23.385c0.561-4.231,0.926-8.471-0.697-12.592c-1.531-3.885-4.992-4.902-8.306-2.394     c-2.088,1.58-3.555,3.716-4.79,5.963C140.245,293.54,138.283,303.276,137.587,313.33z M20.752,352.392     c3.59,0.001,6.259-1.746,8.493-4.405c2.626-3.126,3.931-6.889,5.282-10.638c0.268-0.743,0.417-1.499-0.418-1.962     c-2.679-1.485-5.423-2.838-8.623-2.346c-5.959,0.917-9.677,4.441-11.466,10.097C12.452,348.097,15.583,352.372,20.752,352.392z      M73.902,259.162c0.959-0.185,1.373-0.205,1.741-0.344c6.253-2.363,11.288-6.34,14.938-11.895     c1.604-2.442,3.15-5.061,3.176-8.196c0.024-2.922-1.312-4.245-4.241-4.013c-2.867,0.228-4.696,2.161-6.448,4.152     C78.025,244.596,76.842,252.021,73.902,259.162z"/>
			<path d="M346.551,275.713c-3.513-0.034-6.041-2.679-5.978-6.254c0.076-4.271,2.635-7.222,6.267-7.226     c3.735-0.005,6.707,3.124,6.617,6.965C353.372,272.845,350.294,275.749,346.551,275.713z"/>
			<path d="M112.063,276.504c-0.019,3.198-3.567,6.768-6.726,6.767c-2.78-0.001-5.474-3.235-5.435-6.526     c0.044-3.722,2.666-6.431,6.171-6.377C109.418,270.419,112.082,273.148,112.063,276.504z"/>
		</g>
	</g>
	<g>
		<g>
			<path d="M148.54,223.148c0.556-2.372,1.166-5.21,1.892-8.018c1.403-5.43,2.892-10.837,4.308-16.264     c1.654-6.343,3.291-12.692,4.887-19.05c0.543-2.165,0.217-2.418-1.94-1.966c-4.377,0.916-8.582,2.432-12.874,3.64     c-1.296,0.365-2.629,0.695-3.965,0.81c-3.492,0.301-5.35-1.916-4.536-5.334c0.489-2.055,1.533-3.898,2.428-5.783     c6.211-13.068,13.011-25.819,20.311-38.317c2.163-3.702,5.2-5.254,9.165-5.711c3.288-0.379,6.569-0.817,9.857-1.198     c1.717-0.199,3.495-0.229,4.671,1.274c1.241,1.586,0.736,3.329-0.011,4.995c-3.492,7.783-7.794,15.13-12.067,22.493     c-0.61,1.05-1.17,2.13-1.728,3.21c-0.209,0.405-0.621,0.866-0.297,1.302c0.338,0.455,0.878,0.131,1.323,0.033     c2.772-0.61,5.542-1.233,8.313-1.845c1.544-0.341,3.082-0.29,4.626,0.047c3.253,0.71,4.631,2.869,3.991,6.11     c-0.564,2.858-2.132,5.274-3.486,7.734c-6.32,11.483-12.815,22.87-19.21,34.312c-3.195,5.717-6.304,11.483-9.467,17.219     c-0.456,0.827-0.932,1.656-1.504,2.403c-0.801,1.046-1.763,2.029-3.243,1.445C148.633,226.156,148.492,224.894,148.54,223.148z      M157.648,208.34c6.18-11.512,12.562-22.868,18.793-34.306c1.616-2.968,3.168-5.971,4.739-8.963     c0.399-0.759,1.22-1.601,0.685-2.389c-0.548-0.809-1.645-0.264-2.473-0.177c-1.272,0.133-2.533,0.418-3.783,0.706     c-2.568,0.591-5.12,1.251-7.689,1.838c-1.799,0.411-3.561,0.314-4.883-1.149c-1.252-1.386-0.919-3.012-0.369-4.601     c0.11-0.319,0.224-0.639,0.358-0.948c1.779-4.105,4.158-7.882,6.432-11.715c2.792-4.708,5.496-9.464,7.972-14.348     c0.635-1.253,0.207-1.608-1.046-1.406c-2.335,0.378-4.658,0.892-7.008,1.099c-3.568,0.315-6.586,1.234-7.511,5.251     c-0.029,0.126-0.138,0.231-0.201,0.35c-6.498,12.233-13.061,24.431-18.901,37c-0.304,0.655-1.006,1.414-0.538,2.048     c0.531,0.72,1.393,0.054,2.053-0.146c5.238-1.588,10.423-3.362,15.699-4.808c4.548-1.246,6.919,1.071,6.205,5.71     c-0.982,6.376-3.04,12.467-4.893,18.614C160.05,200.107,158.86,204.227,157.648,208.34z"/>
			<path d="M280.916,147.146c-0.381,2.796-2.406,5.653-4.009,8.669c-3.457,6.502-7.31,12.777-11.146,19.061     c-0.334,0.547-0.996,1.212-0.557,1.825c0.449,0.627,1.253,0.104,1.899,0.031c1.877-0.214,3.733-0.625,5.642-0.525     c3.915,0.204,5.874,2.541,4.962,6.347c-1.362,5.683-4.022,10.884-6.441,16.161c-4.087,8.915-9.081,17.349-13.884,25.882     c-0.92,1.635-2.107,3.139-3.31,4.589c-1.009,1.215-2.391,1.934-3.958,1.113c-1.608-0.843-2.266-2.356-1.886-4.114     c0.943-4.358,1.906-8.716,3.024-13.032c1.287-4.969,2.778-9.886,3.731-14.936c0.385-2.04,0.128-2.258-1.782-1.474     c-3.374,1.386-6.713,2.858-10.077,4.27c-1.692,0.71-3.446,1.216-5.295,1.269c-3.775,0.107-5.961-2.256-5.544-6.034     c0.269-2.436,1.033-4.743,1.973-7.002c5.69-13.667,11.898-27.089,18.937-40.119c3.09-5.72,5.817-7.033,12.372-6.421     c4.03,0.376,8.092,0.396,12.138,0.608C280.336,143.45,280.97,144.086,280.916,147.146z M257.399,213.624     c0.124,0.046,0.247,0.092,0.371,0.138c1.015-1.885,2.048-3.761,3.041-5.658c4.264-8.139,8.405-16.337,11.729-24.918     c0.698-1.802,0.405-2.209-1.519-2.005c-2.349,0.249-4.691,0.584-7.026,0.947c-1.598,0.248-3.203,0.365-4.278-1.051     c-1.176-1.55-0.302-3.087,0.411-4.558c0.117-0.243,0.265-0.471,0.405-0.702c5.242-8.669,10.138-17.534,14.955-26.443     c0.253-0.467,0.796-0.971,0.534-1.455c-0.333-0.616-1.115-0.39-1.675-0.305c-2.356,0.355-4.742,0.364-7.081,0.203     c-4.848-0.334-7.665,1.819-9.631,6.189c-3.488,7.754-7.451,15.294-11.124,22.967c-2.798,5.847-5.603,11.698-7.725,17.839     c-0.184,0.533-0.687,1.181-0.085,1.68c0.463,0.384,1.044-0.009,1.524-0.212c2.3-0.976,4.593-1.968,6.875-2.985     c2.836-1.264,5.563-2.794,8.539-3.716c2.833-0.878,4.972,0.3,5.868,3.065c0.471,1.454,0.443,2.952,0.204,4.417     c-0.642,3.938-1.558,7.813-2.861,11.595C258.288,210.285,257.878,211.966,257.399,213.624z"/>
			<path d="M353.079,207.56c0.16-2.035,0.605-4.43,1.195-6.79c2.459-9.836,5.1-19.63,7.373-29.508     c1.128-4.905,1.293-4.343-3.399-2.99c-4.22,1.217-8.415,2.518-12.623,3.778c-0.323,0.097-0.656,0.164-0.987,0.234     c-5.644,1.188-8.37-1.714-6.88-7.245c1.858-6.897,5.1-13.223,8.023-19.682c1.784-3.943,3.77-7.78,5.882-11.559     c1.098-1.965,2.513-3.261,4.841-3.523c3.892-0.438,7.764-1.067,11.66-1.459c3.641-0.366,5.191,1.717,3.837,5.174     c-1.999,5.106-4.61,9.926-7.176,14.764c-0.713,1.345-2.305,3.094-1.5,4.108c0.79,0.995,2.86-0.216,4.341-0.542     c3.366-0.741,6.697-1.684,10.18-1.658c4.61,0.034,6.376,2.121,5.684,6.688c-0.348,2.296-1.378,4.382-2.181,6.527     c-4.562,12.183-10.394,23.765-16.749,35.096c-1.983,3.536-3.87,7.127-6.171,10.475c-0.584,0.85-1.221,1.626-2.256,1.945     C354.17,212.01,353.005,210.722,353.079,207.56z M359.214,200.583c0.164,0.034,0.327,0.068,0.491,0.101     c1.416-2.837,2.774-5.705,4.258-8.507c4.719-8.908,8.833-18.091,12.598-27.434c0.884-2.193,1.647-4.435,2.44-6.663     c0.883-2.478,0.49-2.995-2.174-2.943c-1.635,0.032-3.196,0.448-4.777,0.826c-3.477,0.831-6.915,1.953-10.521,2.053     c-3.103,0.086-4.542-2.016-3.548-4.981c0.798-2.378,1.848-4.642,3.1-6.818c2.191-3.809,4.02-7.802,5.931-11.754     c0.371-0.768,0.325-1.176-0.668-1.005c-2.928,0.504-5.869,0.949-8.782,1.53c-1.553,0.31-2.479,1.358-3.142,2.86     c-1.664,3.77-3.013,7.665-4.797,11.391c-2.45,5.115-4.898,10.248-6.545,15.701c-0.224,0.742-0.786,1.63-0.16,2.311     c0.717,0.781,1.658,0.171,2.472-0.049c4.896-1.322,9.638-3.117,14.448-4.703c6.341-2.091,8.797,0.222,7.724,6.811     c-0.939,5.763-2.848,11.264-4.317,16.882C361.985,191.013,360.564,195.789,359.214,200.583z"/>
			<path d="M298.041,212.956c0.729-3.852,2.294-7.603,3.863-11.331c3.275-7.781,6.62-15.537,10.9-22.84     c1.364-2.327,2.792-4.618,4.209-6.914c0.862-1.397,0.659-2.295-0.987-2.942c-2.717-1.068-5.48-1.919-8.358-2.406     c-2.602-0.44-5.191-0.938-7.622-2.019c-4.157-1.848-5.734-4.857-4.775-9.323c0.909-4.236,3.142-7.891,5.363-11.52     c2.223-3.633,4.865-6.979,7.443-10.365c0.726-0.953,1.602-1.567,2.771-0.909c1.176,0.662,1.048,1.796,0.69,2.872     c-1.194,3.588-3.788,6.366-5.599,9.599c-1.91,3.41-4.169,6.641-5.058,10.548c-0.648,2.852-0.116,4.018,2.73,4.822     c2.531,0.715,5.127,1.201,7.702,1.754c2.974,0.638,5.966,1.184,8.617,2.826c2.647,1.64,3.615,3.795,2.996,6.868     c-0.519,2.577-1.929,4.738-3.265,6.929c-6.782,11.12-11.704,23.122-16.676,35.101c-0.078,0.187-0.147,0.378-0.219,0.567     c-0.488,1.289-1.168,2.385-2.793,2.03C298.271,215.936,298.16,214.521,298.041,212.956z"/>
			<path d="M191.826,206.41c0.708-2.363,2.27-4.741,3.776-7.129c6.173-9.786,12.883-19.187,20.301-28.075     c0.345-0.414,0.663-0.858,0.938-1.321c1.467-2.473,1.413-3.148-0.746-5.034c-1.678-1.466-3.482-2.787-5.225-4.177     c-5.841-4.656-6.908-10.67-3.111-17.068c3.059-5.155,7.213-9.062,12.716-11.492c0.369-0.163,0.756-0.307,1.149-0.389     c0.701-0.145,1.402-0.102,1.719,0.666c0.278,0.674-0.126,1.196-0.642,1.562c-1.378,0.977-2.827,1.858-4.172,2.878     c-3.806,2.889-6.738,6.428-7.974,11.161c-0.617,2.361-0.083,4.39,1.714,6.102c1.129,1.076,2.282,2.104,3.582,2.974     c1.179,0.789,2.353,1.599,3.452,2.494c4.927,4.013,6.28,8.008,1.496,14.407c-4.894,6.546-10.516,12.53-15.156,19.285     c-3.136,4.566-6.295,9.115-9.453,13.665c-0.345,0.497-0.72,0.984-1.14,1.417c-0.563,0.581-1.26,0.792-2.036,0.438     C192.194,208.402,191.793,207.747,191.826,206.41z"/>
		</g>
		<g>
			<path d="M170.609,78.499c1.554,0,3.118-0.114,4.658,0.035c1.336,0.129,1.665-0.481,1.721-1.603     c0.313-6.2,2.081-11.981,5.292-17.273c4.801-7.914,11.623-12.627,21.119-12.967c4.739-0.17,9.278,0.588,13.644,2.489     c2.277,0.991,2.489,0.886,2.997-1.498c2.637-12.385,8.909-22.663,18.002-31.329c7.105-6.772,15.531-11.195,24.916-13.83     c19.934-5.595,38.303-1.763,54.779,10.264c11.239,8.205,18.971,19.307,23.01,32.788c0.971,3.242,1.901,6.491,2.268,9.868     c0.126,1.165,0.46,1.719,1.813,1.219c11.448-4.233,21.31,0.85,27.877,8.951c5.916,7.298,8.331,15.787,8.05,25.131     c-0.091,3.044-0.525,3.284,3.165,4.095c6.859,1.507,11.244,6.188,14.13,12.347c1.827,3.897,3.026,7.96,2.183,12.369     c-0.335,1.751-0.968,2.859-3.088,2.558c-1.313-0.186-2.689,0.125-4.036,0.126c-81.02,0.034-162.04,0.059-243.06,0.08     c-2.367,0.001-4.735-0.011-7.1-0.086c-3.162-0.1-4.189-0.803-4.838-3.819c-1.96-9.106-0.884-17.75,4.296-25.675     c5.118-7.83,12.202-12.661,21.523-14.109C166.156,78.285,168.383,78.464,170.609,78.499z M352.288,118.103     c0,0.007,0,0.015,0,0.023c5.139,0,10.278-0.009,15.417,0.002c8.587,0.019,17.175,0.047,25.762,0.08     c1.08,0.004,2.076,0.054,1.851-1.564c-0.802-5.763-6.029-14.812-14.043-16.173c-5.231-0.889-6.232-2.278-6.209-7.691     c0.017-4.071-0.113-8.116-1.317-12.048c-2.015-6.581-5.439-12.236-11.174-16.208c-5.51-3.816-11.36-4.039-17.546-1.506     c-4.202,1.721-6.115,0.384-6.955-4.083c-2.302-12.238-6.905-23.338-15.325-32.805c-8.938-10.05-19.92-16.228-33.025-18.738     c-6.567-1.258-13.178-1.155-19.767-0.014c-11.911,2.061-22.107,7.412-30.424,16.175c-7.443,7.843-12.517,17.049-15.369,27.502     c-1.101,4.036-2.484,4.768-6.548,3.965c-1.191-0.235-2.35-0.623-3.535-0.895c-3.613-0.83-7.178-1.993-10.98-1.473     c-9.898,1.356-15.326,7.81-18.757,16.489c-1.201,3.037-1.521,6.298-2.079,9.493c-0.706,4.042-1.917,5.084-5.923,5.597     c-2.972,0.381-5.942,0.163-8.911,0.287c-4.071,0.17-7.984,1.192-11.341,3.402c-10.282,6.77-14.378,16.603-13.595,28.692     c0.074,1.145,0.648,1.542,1.698,1.49c2.158-0.106,4.316-0.306,6.473-0.299c54.021,0.184,108.043-0.39,162.064,0.277     C325.915,118.242,339.102,118.103,352.288,118.103z"/>
			<path d="M318.815,97.163c-6.362-0.024-11.18-4.751-11.126-10.917c0.053-6.097,4.887-10.77,11.092-10.723     c6.155,0.046,10.839,4.98,10.736,11.309C329.421,92.718,324.794,97.185,318.815,97.163z M312.437,86.19     c-0.16,3.627,2.653,6.684,6.284,6.828c3.647,0.145,7.21-3.07,7.423-6.697c0.18-3.062-3.47-6.764-6.798-6.896     C315.729,79.282,312.607,82.338,312.437,86.19z"/>
			<path d="M251.144,97.187c-5.986-0.03-10.51-4.588-10.459-10.536c0.051-5.933,4.659-10.595,10.51-10.633     c5.649-0.037,10.961,5.019,10.924,10.396C262.076,92.666,257.437,97.219,251.144,97.187z M251.799,93.048     c3.688,0.024,6.681-2.944,6.713-6.658c0.034-3.785-2.814-6.714-6.555-6.744c-3.844-0.031-6.778,2.78-6.787,6.501     C245.161,90.117,247.952,93.023,251.799,93.048z"/>
			<path d="M313.402,62.983c4.048-0.19,7.441,1.309,10.76,3.028c0.524,0.271,1.004,0.706,1.381,1.166     c0.686,0.836,1.034,1.822,0.281,2.777c-0.685,0.869-1.551,0.507-2.396,0.146c-4.571-1.952-9.233-2.273-14.076-1.036     c-2.622,0.67-4.545,2.309-6.528,3.927c-1.077,0.879-2.214,1.499-3.458,0.508c-1.332-1.062-0.913-2.432-0.268-3.684     c1.189-2.306,2.989-3.972,5.429-4.917C307.442,63.768,310.398,62.835,313.402,62.983z"/>
			<path d="M276.063,70.547c-0.03,1.149-0.266,2.122-1.357,2.594c-1.048,0.454-2.015,0.182-2.806-0.569     c-0.88-0.835-1.665-1.769-2.529-2.621c-3.538-3.488-7.776-4.741-12.635-3.815c-1.987,0.378-3.957,0.863-5.911,1.387     c-1.034,0.277-1.948,0.267-2.431-0.771c-0.508-1.091,0.199-1.809,1.089-2.291c7.294-3.946,14.675-5.006,22.106-0.417     C274.012,65.542,275.937,67.508,276.063,70.547z"/>
			<path d="M284.568,103.247c-5.652-0.526-10.06-3.122-10.876-8.449c-0.188-1.224-0.121-2.42,0.191-3.609     c0.26-0.992,0.778-1.764,1.901-1.789c1.019-0.022,1.589,0.637,1.893,1.54c0.236,0.703,0.412,1.426,0.647,2.129     c0.795,2.376,2.337,4.063,4.671,5.006c2.508,1.013,4.589,0.473,6.355-1.573c1.494-1.731,2.294-3.787,2.967-5.923     c0.238-0.755,0.422-1.68,1.517-1.586c1.069,0.092,1.435,0.922,1.574,1.833C296.267,96.454,290.286,103.296,284.568,103.247z"/>
		</g>
	</g>
</g>
<g>
</g>
<g>
</g>
<g>
</g>
<g>
</g>
<g>
</g>
<g>
</g>
<g>
</g>
<g>
</g>
<g>
</g>
<g>
</g>
<g>
</g>
<g>
</g>
<g>
</g>
<g>
</g>
<g>
</g>
</svg>
