<?xml version="1.0" encoding="UTF-8"?>
<!-- Generator: Adobe Illustrator 25.4.1, SVG Export Plug-In . SVG Version: 6.00 Build 0)  -->
<svg xmlns="http://www.w3.org/2000/svg" xmlns:xlink="http://www.w3.org/1999/xlink" version="1.1" id="Capa_1" x="0px" y="0px" viewBox="0 0 512 512" style="enable-background:new 0 0 512 512;" xml:space="preserve" width="512" height="512">
<g>
	<g>
		<path d="M255.605,29.225c6.781-6.201,12.935-14.152,21.001-18.742C296.029-0.57,317.004-3.51,338.491,4.691    c4.145,1.582,8.016,4.357,11.426,7.27c4.788,4.089,4.766,5.553,0.602,10.553c-10.454,12.555-15.525,27.238-15.492,43.247    c0.024,11.969,1.056,24.12,3.316,35.868c10.65,55.37,27.369,109.193,42.87,163.304c7.479,26.107,16.32,51.824,24.538,77.719    c0.578,1.821,1.108,3.658,1.81,5.987c-17.719,3.205-31.932,10.876-38.621,27.096c-7.946-2.589-15.554-5.915-23.506-7.421    c-7.901-1.496-16.148-1.161-24.913-1.667c-1.691-6.313-3.615-13.148-5.327-20.036c-0.785-3.16-1.917-4.851-5.771-4.827    c-35.856,0.23-71.714,0.273-107.572,0.197c-3.212-0.007-4.208,1.398-4.87,4.009c-1.756,6.918-3.613,13.81-5.586,21.307    c-16.644-0.771-33.212-0.713-47.726,9.861c-3.428-8.337-8.211-15.424-15.841-19.583c-7.157-3.901-14.928-6.677-23.011-10.201    c0.959-2.97,2.152-6.796,3.427-10.594c23.782-70.855,43.662-142.831,61.476-215.381c4.654-18.953,8.752-38.158,7.344-57.924    c-1.038-14.572-5.155-28.103-14.594-39.661c-5.422-6.639-5.298-7.995,1.262-13.476c7.116-5.945,15.692-9.024,24.656-9.639    c18.339-1.258,36.266,1.011,51.424,12.529C245.935,17.88,250.762,24.235,255.605,29.225z M302.478,299.689    c-15.447-58.393-30.771-116.324-46.466-175.653c-15.699,59.348-31.026,117.29-46.464,175.653    C240.662,299.689,271.386,299.689,302.478,299.689z"/>
		<path d="M388.903,490.042c-4.846,12.44-15.282,16.89-26.026,19.584c-19.562,4.905-38.47,2.232-56.005-8.224    c-5.981-3.567-10.155-8.54-12.117-15.315c-1.562-5.395-0.646-7.324,4.926-8.095c17.521-2.425,28.126-13.447,32.29-29.342    c3.937-15.031,3.692-30.71-4.993-44.839c-4.416-7.184-11.014-10.723-19.406-11.366c-2.249-0.172-4.417-1.402-6.621-2.146    c0.827-2.306,1.074-5.125,2.581-6.829c6.732-7.613,15.747-10.813,25.598-11.148c13.021-0.442,25.636,1.409,36.588,9.372    c2.6,1.89,4.539,1.286,5.823-1.562c9.669-21.453,27.969-27.69,49.493-27.432c5.214,0.062,10.4,2.466,16.71,4.077    c-20.417,19.657-14.449,40.643-7.143,61.582c1.587,4.549,4.413,8.711,6.96,12.872c8.194,13.384,20.053,20.201,35.901,18.982    c4.754-0.366,6.827,1.309,7.685,5.835c2.199,11.606-0.741,21.631-8.766,30.174c-14.472,15.407-32.642,19.084-52.792,16.616    C408.364,501.461,397.937,498.249,388.903,490.042z"/>
		<path d="M123.38,490.558c-19.586,13.873-40.457,16.222-62.336,9.583c-11.903-3.612-21.148-11.302-27.359-22.345    c-4.276-7.602-4.313-15.621-2.044-23.65c0.469-1.661,3.394-3.893,5.027-3.768c19.659,1.504,32.017-8.05,41.125-24.654    c6.315-11.514,8.8-23.652,10.366-36.296c1.389-11.214-3.006-20.356-9.938-28.646c-0.826-0.988-1.73-1.912-2.813-3.102    c6.459-4.681,13.652-5.572,21.037-5.131c14.982,0.894,28.39,5.572,38.231,17.578c2.328,2.84,3.885,6.348,5.584,9.658    c1.473,2.868,3.154,3.921,6.122,1.877c13.209-9.093,28.004-11.029,43.338-8.41c8.224,1.405,15.872,4.952,20.628,12.574    c2.124,3.404,1.212,6.247-2.562,6.369c-8.6,0.278-16.024,2.632-21.465,9.628c-5.076,6.528-7.144,14.074-7.679,22.233    c-0.839,12.797-1.28,25.36,6.753,36.611c6.657,9.324,14.818,15.792,26.542,17.272c6.097,0.77,7.017,2.79,5.161,8.69    c-1.892,6.016-5.464,10.732-10.784,14.015c-18.629,11.496-38.697,14.294-59.574,8.252    C136.889,506.046,127.338,501.628,123.38,490.558z"/>
	</g>
	<g>
		<g>
			<path style="fill:#FFFFFF;" d="M116.983,461.441c-7.395-21.1-15.834-46.29-8.359-68.237c8.15-14.522,18.292,2.514,20.22,11.669     c8.232-7.324,29.378-15.773,25.249,4.247c-7.967,19.162-24.045,34.665-35.154,52.32     C118.287,461.441,117.635,461.441,116.983,461.441z"/>
			<g>
				<path style="fill:#FFFFFF;" d="M154.55,342.095c-2.024-1.919-4.508-3.539-5.988-5.813c-4.873-7.484-5.341-16.196-6.108-24.76      c-2.052-22.908,7.041-42.413,19.328-60.646c12.376-18.365,25.452-36.229,35.766-55.94c4.843-9.256,7.798-17.938,9.045-28.145      c0.761-6.235-2.021-12.648-5.482-17.707c-1.012-1.479-1.993-2.98-3.589-5.372c6.042,1.947,12.892,10.618,13.342,18.782      c0.937,8.917-0.503,14.782-2.482,21.695c-4.577,15.991-11.099,31.201-20.537,45.137c-11.4,16.832-23.911,32.971-32.406,51.672      c-6.41,14.11-10.199,28.599-7.008,44.029c1.139,5.509,4.072,10.648,6.187,15.956      C154.595,341.351,154.573,341.723,154.55,342.095z"/>
				<g>
					<path style="fill:#FFFFFF;" d="M170.121,292.107c4.272,0.023,7.678,3.509,7.597,7.777c-0.077,4.041-3.444,7.155-7.669,7.092       c-4.167-0.062-7.298-3.283-7.263-7.472C162.822,295.291,166,292.086,170.121,292.107z"/>
					<path style="fill:#FFFFFF;" d="M177.884,175.895c3.591,0.093,6.294,3.028,6.185,6.717c-0.119,4.027-3.289,7.164-7.126,7.053       c-3.624-0.105-6.262-2.956-6.178-6.678C170.853,179.054,174.122,175.797,177.884,175.895z"/>
				</g>
			</g>
			<g>
				<path style="fill:#FFFFFF;" d="M209.434,127.315c0,0-4.436-9.737-3.504-21.023c0.932-11.286,9.489-27.573,1.688-31.215      c-7.801-3.642-16.206,6.353-14.799,26.587S209.434,127.315,209.434,127.315z"/>
				<path style="fill:#FFFFFF;" d="M227.062,106.205c0,0,11.51-14.414,7.316-49.867c-4.194-35.453-32.896-46.9-42.519-35.28      c-9.191,11.099,5.073,24.113,19.011,33.474C224.807,63.892,230.357,90.251,227.062,106.205z"/>
			</g>
		</g>
		<g>
			<path style="fill:#FFFFFF;" d="M395.017,461.441c7.395-21.1,15.834-46.29,8.359-68.237c-8.15-14.522-18.292,2.514-20.22,11.669     c-8.232-7.324-29.379-15.773-25.249,4.247c7.967,19.162,24.045,34.665,35.154,52.32     C393.713,461.441,394.365,461.441,395.017,461.441z"/>
			<g>
				<path style="fill:#FFFFFF;" d="M357.45,342.095c2.024-1.919,4.508-3.539,5.988-5.813c4.873-7.484,5.341-16.196,6.108-24.76      c2.052-22.908-7.041-42.413-19.328-60.646c-12.375-18.365-25.452-36.229-35.766-55.94c-4.843-9.256-7.798-17.938-9.045-28.145      c-0.761-6.235,2.021-12.648,5.482-17.707c1.012-1.479,1.993-2.98,3.589-5.372c-6.042,1.947-12.892,10.618-13.342,18.782      c-0.937,8.917,0.503,14.782,2.482,21.695c4.577,15.991,11.099,31.201,20.537,45.137c11.4,16.832,23.911,32.971,32.406,51.672      c6.41,14.11,10.198,28.599,7.008,44.029c-1.139,5.509-4.072,10.648-6.186,15.956      C357.405,341.351,357.427,341.723,357.45,342.095z"/>
				<g>
					<path style="fill:#FFFFFF;" d="M341.879,292.107c-4.272,0.023-7.678,3.509-7.597,7.777c0.077,4.041,3.445,7.155,7.669,7.092       c4.167-0.062,7.298-3.283,7.263-7.472C349.178,295.291,346,292.086,341.879,292.107z"/>
					<path style="fill:#FFFFFF;" d="M334.116,175.895c-3.591,0.093-6.294,3.028-6.185,6.717c0.119,4.027,3.289,7.164,7.126,7.053       c3.624-0.105,6.262-2.956,6.178-6.678C341.147,179.054,337.878,175.797,334.116,175.895z"/>
				</g>
			</g>
			<g>
				<path style="fill:#FFFFFF;" d="M302.566,127.315c0,0,4.436-9.737,3.504-21.023c-0.932-11.286-9.488-27.573-1.688-31.215      c7.801-3.642,16.206,6.353,14.799,26.587S302.566,127.315,302.566,127.315z"/>
				<path style="fill:#FFFFFF;" d="M284.938,106.205c0,0-11.51-14.414-7.316-49.867c4.194-35.453,32.896-46.9,42.519-35.28      c9.191,11.099-5.073,24.113-19.011,33.474C287.192,63.892,281.643,90.251,284.938,106.205z"/>
			</g>
		</g>
	</g>
</g>















</svg>
