<svg id="Layer_1" enable-background="new 0 0 512 512" viewBox="0 0 512 512" xmlns="http://www.w3.org/2000/svg"><path d="m143.2 270.6c-12.4-15.9-27.5-16.4-44.3-8.3.2-10.9 2.8-21.2 6.5-31.1 12.4-32.4 34.8-55.8 65.4-71.7 10-5.2 20.5-9.2 31.7-11 1.7-.3 2.2-1.1 2.5-2.6 1-5 2.1-10 3.2-15 .4-1.7 1-3.4 1.7-5 1.2-2.4 3.1-4 5.9-3.9s4.7 1.6 5.8 4.1c2 4.3 2.9 9 3.4 13.7.6 5.8 2.9 8.2 8.9 9.3 14.6 2.8 27.7 9.5 39.7 18.2 19.4 13.9 35.6 30.9 47.2 51.9 6.1 11.2 9.4 23.3 10.2 36 .2 2.9 1 5.8.3 8.8-.4-.1-.7-.1-.9-.2-14-8.6-29.2-7.3-41.4 3.6-.9.8-1.4 1.3-2.4 0-9.2-11.3-21.2-11.9-34-8.3-4.8 1.3-9.2 3.7-12.7 7.2-1.2 1.2-1.8 1.4-3.1-.1-3.1-3.6-6.8-6.5-11.6-7.8-4.2-1.1-4.7-.7-4.7 3.5v95.3c0 2 .1 3.9 1.3 5.7.6 1 1 2.3 1.1 3.6 1.2 15.9 2.2 31.8-.3 47.7-1.7 10.3-5.1 20-13.3 27.1-13.3 11.4-32 8.1-42.1-7.2-4.9-7.4-7-15.6-7.6-24.3-.4-5.3 3.6-9.8 8.7-10.6 5.4-.8 10.4 2.4 11.7 7.7.6 2.6.8 5.4 1.4 8 .8 3.7 2.3 7.2 5 10 3.5 3.5 7.9 3.1 10.7-1 3.4-5 4.8-10.7 5.4-16.6 1.2-12 .8-24.1-.2-36.1-.4-4.3 0-8.2 3.4-11.2.9-.8.8-1.9.8-2.9 0-32 0-63.9 0-95.9 0-2.7-.8-2.8-3.1-2-3.9 1.5-6.9 4-9.5 7-1.4 1.6-2 1.3-3.4.1-7.7-7.3-17.1-10.1-27.5-9.1-8.8.7-15.1 5.7-19.8 13.4z" fill="#db5e6e"/><g fill="#3981bf"><path d="m370.3 158.1c-2.2.1-3.9-1-4.9-2.8-1.3-2.2-.9-4.4.6-6.5 7.9-11.6 15.7-23.3 23.5-34.9 4.4-6.5 8.8-13 13.2-19.5 1.5-2.2 3.5-3.3 6.2-2.7 2.4.5 3.7 2.3 4.3 4.6.5 2.3-.9 4-2.1 5.7-6.7 10-13.5 20-20.2 29.9-5.2 7.7-10.4 15.4-15.6 23.2-1.3 1.7-2.8 2.9-5 3z"/><path d="m324.3 141.9c-1.9-.1-3.7-1-4.7-2.9-1.1-2.2-.8-4.2.6-6.2 6-8.8 11.9-17.7 17.9-26.6 5.5-8.2 11-16.3 16.5-24.5 1.6-2.4 3.7-3.7 6.6-3 4.2 1 5.3 5.4 2.5 9.6-4.8 7.1-9.6 14.2-14.4 21.3-6.5 9.6-13 19.3-19.5 28.9-1.3 1.9-2.8 3.3-5.5 3.4z"/><path d="m354.3 151.1c.1 1.2-.3 2.3-1 3.3-9.1 13.5-18.2 27.1-27.4 40.6-1.9 2.8-4.5 3.6-7 2.4-2.4-1.1-3.7-3.1-3.3-5.8.1-.9.5-1.8 1-2.6 9-13.5 18.1-26.9 27.2-40.4 1.6-2.4 3.8-3.6 6.7-2.7 2.4.8 3.6 2.6 3.8 5.2z"/><path d="m306.5 172.8c.1 1.7-.8 3-1.7 4.3-7.8 11.6-15.7 23.3-23.5 34.9-2 3-4.4 4-7.2 3-3.3-1.2-4.8-5.1-2.6-8.3 8.3-12.5 16.7-24.9 25.1-37.2 1.5-2.3 4-2.7 6.5-1.7 2.2.8 3.2 2.6 3.4 5z"/><path d="m275.1 128.7c-.1 1.8-.6 3-1.4 4.2-6.3 9.3-12.5 18.6-18.8 27.8-.2.3-.4.5-.5.8-2.1 2.9-5.3 3.6-7.9 2-2.8-1.8-3.4-5-1.3-8.2 4.7-7.1 9.5-14.1 14.2-21.1 1.9-2.9 3.8-5.8 5.9-8.5 1.5-2.1 3.8-2.6 6.2-1.8 2.3.8 3.5 2.7 3.6 4.8z"/><path d="m359.9 127.2c-2.4-.1-4.1-.9-5.1-2.9-1.1-2.1-.8-4.2.5-6.2 5-7.4 10-14.9 15.1-22.4 1.5-2.2 2.9-4.4 4.4-6.5 2-2.8 5.4-3.6 8-1.8s3.3 5.1 1.3 8c-6.5 9.7-13.1 19.4-19.6 29.2-1.2 1.8-2.8 2.5-4.6 2.6z"/><path d="m314.5 69.5c0 1.2-.4 2.3-1.1 3.2-6.2 9.2-12.4 18.4-18.6 27.6-1.9 2.9-5 3.5-7.7 1.8s-3.6-5.1-1.6-8c6.1-9.3 12.4-18.4 18.6-27.6 1.6-2.4 3.9-3.2 6.6-2.3 2.4.9 3.5 2.8 3.8 5.3z"/><path d="m312.5 117.5c0 1.7-.6 2.9-1.4 4-5.7 8.4-11.3 16.8-17 25.2-2.3 3.3-5.5 4.2-8.3 2.3s-3.2-5.1-1-8.5c5.7-8.5 11.4-17 17.2-25.5 1.6-2.3 3.7-3.5 6.4-2.6s4 2.7 4.1 5.1z"/><path d="m320.1 101.9c-2.1-.1-3.9-.9-4.9-2.9-1.2-2.3-.7-4.5.6-6.5 3.4-5 6.8-10 10.2-15.1 2.1-3.1 4.2-6.3 6.3-9.4s5.3-3.9 8.1-2.1c2.7 1.8 3.3 5.2 1.2 8.3-5.5 8.2-11.1 16.5-16.6 24.7-1.2 1.8-2.8 2.9-4.9 3z"/></g><path d="m234.6 163c20.3 21.1 35.3 45.4 45.3 72.9 2.8 7.6 4.9 15.4 5.9 23.4.3 2.5.4 5 .7 7.5.2 1.5.7 2.3 2.4.8 2.1-1.8 3.1-3.7 2.5-6.5-.6-2.9-.8-5.8-1.4-8.7-5.2-23.9-15.7-45.5-29.3-65.7-8.9-13.2-19-25.6-31.4-35.8-1.7-1.4-3-2.3-3.2-5.4-.3-6.4-1.8-12.8-3.9-18.9-1.1-3.1-3.4-5.1-6.5-5.1s-5.3 2-6.5 5c-1.9 5-2.6 10.2-3.7 15.4-.4 1.8-1.6 3.7-.7 5.4 1 1.7.1 2.2-.9 3-19.7 16.6-34.6 36.9-46.5 59.6-8.9 17-14.6 34.9-17 54-.4 2.9.4 5 2.5 6.9.3-.3.5-.5.7-.8 2.9-3.5 2.2-8 2.9-12 7.4-38.7 26.6-70.9 54.6-98.2 1.4-1.4 2.9-2.6 4.6-4 .3 1.5-.5 2.5-.9 3.5-8.1 19.8-14.2 40.1-16.1 61.5-1.2 14.4-1.6 28.7.9 42.9.3 1.6.8 3.2 2.2 3.5s2-1.5 2.9-2.4c.7-.8.2-1.8 0-2.7-1.3-8.5-2-17.1-1.8-25.7.7-28.4 7.7-55.3 19.4-81.1.5-1 .7-2.2 1.7-2.9 1.1.7 1.3 1.9 1.8 2.9 10.9 21.1 16 43.8 19 67.1 1.7 13.6 1.3 27.2 1 40.8 0 1.8.7 4.3 1.8 4.2 1.7-.1 3.5-1.7 3.6-4.1 0-.7.1-1.5.1-2.2 0-6.2.2-12.4.1-18.6-.7-31.1-6.5-61-20.4-89.1-.3-.6-.9-1.2-.3-2.2 5.3 3.6 9.8 7.5 13.9 11.8z"/><path d="m206.2 357.2c0 1.2.1 1.3 1.6 1.2 4.2-.5 8.5-1.4 13 1.3 0-1.6 0-2.6 0-3.7 0-30.1 0-60.1 0-90.2 0-9.4-.5-9.8-10-8.5-.4.1-.8.2-1.2.2-2.6.2-3.3 1.4-3.3 4.1.1 31.3.1 62.6.1 93.9-.1.7-.1 1.2-.2 1.7z"/></svg>