<?xml version="1.0" encoding="UTF-8"?>
<!-- Generator: Adobe Illustrator 25.3.1, SVG Export Plug-In . SVG Version: 6.00 Build 0)  -->
<svg xmlns="http://www.w3.org/2000/svg" xmlns:xlink="http://www.w3.org/1999/xlink" version="1.1" id="Capa_1" x="0px" y="0px" viewBox="0 0 512 512" style="enable-background:new 0 0 512 512;" xml:space="preserve" width="512" height="512">
<g>
	<path style="fill:#FFFFFF;" d="M256.081,511.313C123.493,511.312,8.186,403.781,0.457,270.166C0.155,265.378,0,260.285,0,255.1   C0,173.75,40.39,94.78,106.475,47.232c150.79-108.493,372.506-16.849,402.391,166.688   c23.606,144.977-89.219,286.245-235.133,296.758C267.821,511.103,261.934,511.313,256.081,511.313z"/>
	<g>
		<g>
			<path style="fill:#564BB7;" d="M498.741,255.1c-0.036,27.161-4.378,53.233-12.953,78.269     c-2.204,6.435-279.698,199.848-388.233,104.826c-0.069-0.069-0.16-0.137-0.229-0.206     c-64.652-54.332-97.663-150.168-77.63-235.291c0.091-0.366,0.16-0.732,0.274-1.121c1.673-7.569,3.737-14.976,6.13-22.278     c3.089-9.381,6.703-18.481,10.887-27.333c20.425-43.488,37.427-55.982,75.076-83.333c45.165-36.239,73.104-52.465,132.722-55.618     c0.32-0.023,0.64-0.023,0.961-0.046c31.728-1.435,64.713,3.67,93.961,14.478h0.023C434.106,62.008,498.952,152.611,498.741,255.1     z"/>
			<path style="opacity:0.34;fill:#F3C7D1;" d="M176.832,62.764c-3.339,9.241-4.026,19.373-0.801,28.453     c0.366,1.098,0.801,2.173,1.304,3.225c2.859,6.038,7.365,11.093,12.122,15.942c2.813,2.836,5.718,5.627,8.417,8.509     c4.666,4.94,8.783,10.178,10.979,16.56c1.212,3.545,1.715,7.205,1.624,10.887c0,0.412-0.023,0.8-0.046,1.212     c0,0.023,0,0.023,0,0.023c-0.618,10.178-5.741,20.311-13.037,27.744c-10.178,10.384-23.902,16.468-37.488,21.706     c-12.466,4.803-25.274,9.172-38.06,13.655c-0.984,0.343-1.967,0.686-2.951,1.029c-14.204,4.986-28.362,10.11-41.948,16.079     c-0.526,0.229-1.052,0.457-1.578,0.686c-22.301,9.95-43.046,22.209-59.949,39.89c-0.32,0.343-0.641,0.686-0.961,1.007     c-0.297-4.712-0.435-9.469-0.435-14.273c0-18.001,1.967-35.521,5.673-52.401c0.091-0.366,0.16-0.732,0.274-1.121     c1.601-7.251,3.568-14.364,5.832-21.363c0.091-0.298,0.183-0.618,0.297-0.915c2.996-9.103,6.496-17.955,10.522-26.555     c0.114-0.252,0.229-0.503,0.366-0.778c5.558-11.802,12.054-23.101,19.373-33.783c31.427-45.814,78.179-80.283,132.867-96.019     c13.724-3.957,27.927-6.725,42.543-8.188c-5.466,2.676-10.796,5.558-16.034,8.646c-6.061,3.568-12.031,7.479-17.497,11.917     c-4.323,3.499-8.326,7.342-11.802,11.596c-1.509,1.807-2.905,3.705-4.186,5.695C180.057,55.216,178.205,58.922,176.832,62.764z"/>
			<path style="opacity:0.15;fill:#F3C7D1;" d="M366.149,231.587c-2.15,4.369-4.666,8.532-7.548,12.443     c-8.806,12.054-20.677,21.889-33.737,29.277c-29.277,16.583-65.05,21.294-97.62,12.877c-12.306-3.179-24.314-8.143-36.413-12.1     c-11.414-3.728-22.919-6.541-34.858-6.084c-16.354,0.617-31.93,7.411-45.699,16.217c-11.139,7.113-21.706,15.988-27.401,27.882     c-9.355,19.487-3.98,42.612,2.973,63.06c5.535,16.308,12.054,33.119,12.58,50.045c0.16,4.3-0.091,8.623-0.846,12.923     c0,0.023,0,0.046-0.023,0.069c-0.069-0.069-0.16-0.137-0.229-0.206C49.66,396.476,18.348,336.595,14.459,269.373     c-0.297-4.712-0.435-9.469-0.435-14.273c0-18.001,1.967-35.521,5.673-52.401c0.091-0.366,0.16-0.732,0.274-1.121     c1.601-7.251,3.568-14.364,5.832-21.363c0.091-0.298,0.183-0.618,0.297-0.915c2.996-9.103,6.496-17.955,10.522-26.555     c0.114-0.252,0.229-0.503,0.366-0.778c5.558-11.802,12.054-23.101,19.373-33.783c15.936-23.231,35.812-38.546,58.666-54.979     c22.215-15.975,47.244-33.283,74.201-41.04c13.724-3.957,27.927-6.725,42.543-8.188c0.641-0.069,1.281-0.137,1.921-0.183     c0.274-0.023,0.572-0.046,0.846-0.069c3.385-0.32,6.816-0.549,10.247-0.709c0.32-0.023,0.64-0.023,0.961-0.046     c3.523-0.16,7.068-0.229,10.636-0.229c3.865,0,7.708,0.091,11.528,0.274c0.366,0.023,0.755,0.046,1.143,0.069     c2.47,0.114,4.941,0.297,7.388,0.503c-2.036,1.052-4.048,2.15-6.015,3.34c-0.32,0.16-0.641,0.343-0.938,0.549     c-6.199,3.728-12.031,8.143-17.383,13.312c-0.16,0.137-0.32,0.274-0.48,0.435c-0.091,0.091-0.183,0.183-0.274,0.274     c-3.179,3.134-6.176,6.588-8.555,10.384c-0.206,0.32-0.435,0.686-0.617,1.029c-1.715,2.859-3.042,5.878-3.888,9.126     c-2.356,9.218-0.206,18.984,4.254,27.493c0.183,0.412,0.389,0.8,0.618,1.189c1.006,1.853,2.127,3.614,3.317,5.306     c2.31,3.271,4.895,6.29,7.685,9.103c0.252,0.252,0.526,0.526,0.8,0.778c5.352,5.261,11.459,9.721,17.978,13.701     c0.32,0.183,0.618,0.389,0.938,0.572c11.253,6.725,23.65,12.031,35.613,17.36c23.261,10.384,47.735,23.399,58.554,46.477     C376.487,191.995,374.886,213.746,366.149,231.587z"/>
			<path style="opacity:0.16;fill:#F3C7D1;" d="M498.741,255.1c0,19.625-2.333,38.7-6.747,56.953     c-1.739,7.205-3.797,14.295-6.176,21.226c-2.219,6.519-287.44,147.826-292.724,140.758     c-13.747-18.344-22.004-41.948-17.269-64.363c4.575-21.615,20.654-39.41,39.433-51.075     c18.778-11.642,40.278-18.001,61.482-24.222c31.198-9.172,62.396-18.344,93.595-27.516c21.02-6.176,42.589-12.626,59.835-26.143     c1.007-0.778,1.967-1.578,2.928-2.402c23.993-20.654,35.384-54.711,29.643-85.91c-3.34-18.092-12.168-34.881-24.588-48.444     c-0.229-0.274-0.48-0.526-0.709-0.778c-3.134-3.362-6.496-6.519-10.041-9.424c-0.572-0.48-1.144-0.938-1.738-1.395     c-2.516-1.99-5.101-3.843-7.8-5.581c-0.594-0.389-1.189-0.778-1.807-1.144c-4.254-2.63-8.692-4.94-13.289-6.907     c-0.274-0.114-0.549-0.229-0.823-0.343c-0.137-0.069-0.274-0.114-0.412-0.16c-23.216-9.607-50.022-11.574-69.876-26.921     c-5.169-4.003-9.813-8.989-12.26-15.073c-6.473-16.148,4.254-34.172,17.086-45.928c1.052-0.961,2.127-1.921,3.225-2.859h0.023     c5.695,2.081,11.276,4.369,16.766,6.862c38.449,17.475,71.545,44.693,96.088,78.499     C481.632,152.768,498.741,201.944,498.741,255.1z"/>
			<path style="fill:none;" d="M356.314,55.948c-1.99-7.342-1.739-14.616,0.183-21.638c38.449,17.475,71.545,44.693,96.088,78.499     c-14.57-5.261-29.46-9.767-44.121-14.867C386.482,90.28,362.397,78.386,356.314,55.948z"/>
		</g>
		<g>
			<g>
				<path style="fill:#95ABD3;" d="M242.797,41.882c-1.624-9.835-4.437-19.259-8.257-28.156c-0.274,0.023-0.572,0.046-0.846,0.069      c3.98,9.195,6.862,18.938,8.486,29.117c1.029,6.359,1.555,12.854,1.555,19.488c0,5.81-0.412,11.528-1.189,17.131      c-3.591,25.64-15.142,48.787-32.067,66.811c-22.415,23.925-54.277,38.883-89.569,38.883c-32.41,0-61.962-12.626-83.92-33.257      c-0.137,0.274-0.252,0.526-0.366,0.778c22.095,20.608,51.738,33.257,84.286,33.257c35.178,0,66.971-14.776,89.524-38.426      c0,0,0,0,0-0.023c17.131-18.001,28.888-41.148,32.731-66.834c0.892-5.97,1.349-12.1,1.349-18.321      C244.512,55.399,243.94,48.56,242.797,41.882z"/>
			</g>
			<g>
				<path style="fill:#95ABD3;" d="M252.106,30.788c-1.715-6.13-3.842-12.077-6.359-17.818c-0.32,0.023-0.64,0.023-0.961,0.046      c2.607,5.947,4.803,12.122,6.564,18.481c3.385,12.054,5.169,24.771,5.169,37.9c0,8.783-0.8,17.383-2.356,25.732      c-11.734,63.586-66.125,112.419-132.318,115.553c-2.242,0.114-4.506,0.16-6.793,0.16c-33.669,0-64.638-11.825-88.952-31.541      c-0.114,0.297-0.206,0.617-0.297,0.915c24.428,19.716,55.489,31.541,89.249,31.541c1.281,0,2.562-0.023,3.843-0.046      c67.749-1.807,123.832-51.143,136.069-115.804c1.624-8.577,2.47-17.452,2.47-26.509      C257.435,56.017,255.583,43.071,252.106,30.788z"/>
			</g>
			<g>
				<path style="fill:#95ABD3;" d="M270.427,16.928c-0.458-1.304-0.892-2.562-1.373-3.843c-0.389-0.023-0.778-0.046-1.143-0.069      c0.549,1.487,1.075,2.973,1.578,4.46c5.512,16.308,8.486,33.783,8.486,51.921c0,13.884-1.738,27.356-5.032,40.21      c-17.932,70.448-81.93,122.688-157.889,122.688c-13.129,0-25.869-1.555-38.106-4.506c-20.837-5.009-40.119-14.021-56.976-26.212      c-0.114,0.389-0.183,0.755-0.274,1.121c16.537,11.848,35.361,20.723,55.672,25.777c12.717,3.179,26.006,4.872,39.684,4.872      c76.326,0,140.667-52.424,158.827-123.169c3.362-13.037,5.146-26.715,5.146-40.782      C279.027,51.053,276.008,33.396,270.427,16.928z"/>
			</g>
		</g>
		<g>
			<path style="fill:#95ABD3;" d="M485.818,333.279c-2.493,7.365-5.352,14.547-8.509,21.569     c-37.214,82.341-275.89,136.39-280.647,135.177c-23.193-5.855-45.059-15.073-65.027-27.104     c-12.077-7.25-23.49-15.53-34.08-24.725c-0.069-0.069-0.16-0.137-0.229-0.206c0.229-4.3,2.595-8.555,3.098-12.786     c7.365-62.945,40.314-115.428,90.406-149.12c33.737-22.667,74.382-35.91,118.114-35.91c17.109,0,33.737,2.036,49.657,5.855     c27.264,6.542,52.47,18.344,74.496,34.286c11.688,8.463,22.507,16.115,32.228,26.751c4.14,4.483,8.074,9.172,11.802,14.021     C480.169,325.045,483.073,329.093,485.818,333.279z"/>
			<path style="fill:#F3C7D1;" d="M465.324,307.067c-0.229,0.091-0.457,0.183-0.709,0.274c-4.551,1.578-9.538,1.487-14.318,0.846     c-19.968-2.699-37.328-14.387-55.169-23.696c-17.841-9.332-38.883-16.56-57.822-9.744c-1.807,0.663-3.751,1.601-4.414,3.408     c-0.595,1.693,0.137,3.522,0.938,5.123c6.336,12.626,17.749,23.422,18.755,37.488c0.915,12.626-7.799,24.954-19.602,29.574     c-11.779,4.597-25.777,1.921-35.933-5.627c-8.874-6.564-14.867-16.262-22.85-23.879c-9.904-9.469-22.895-15.622-36.482-17.269     c-9.515-1.144-21.02,1.029-24.931,9.766c-3.431,7.663,0.8,16.697,6.633,22.736c5.81,6.015,13.243,10.43,18.435,17.017     c12.191,15.439,6.77,41.422-10.59,50.709c-16.011,8.531-35.796,3.088-53.522,6.953c-3.134,0.663-6.404,1.784-8.257,4.392     c-3.362,4.689-0.32,11.299,3.614,15.508c3.934,4.209,9.012,7.983,10.338,13.586c1.532,6.564-3.019,13.38-8.989,16.537     c-5.97,3.156-12.992,3.454-19.739,3.385c-6.313-0.069-12.717-0.457-19.076-1.235c-12.077-7.25-23.49-15.53-34.08-24.725     c-0.069-0.069-0.16-0.137-0.229-0.206c0.229-4.3,0.595-8.555,1.098-12.786c7.365-62.945,42.314-117.428,92.406-151.12     c33.737-22.667,74.382-35.91,118.114-35.91c17.109,0,33.737,2.036,49.657,5.855c27.264,6.542,52.47,18.344,74.496,34.286     C444.785,286.779,455.603,296.431,465.324,307.067z"/>
			<path style="fill:#F3C7D1;" d="M477.31,354.847c-37.214,82.341-119.121,140.141-214.774,142.542     c-2.036,0.046-4.094,0.068-6.153,0.068c-15.485,0-30.626-1.464-45.311-4.231c-4.849-0.915-9.652-1.99-14.41-3.202     c0.023-2.036,0.297-4.025,0.846-6.015c2.425-9.103,9.652-16.08,17.086-21.843c45.356-35.064,105.969-41.102,163.013-46.843     c6.13-0.618,12.923-1.578,16.857-6.313c5.627-6.747,2.31-17.063-2.562-24.359c-4.872-7.296-11.345-14.387-11.665-23.147     c-0.275-7.731,4.46-14.822,10.293-19.899c16.011-13.929,39.981-15.233,58.897-6.907     C458.44,338.677,469.052,346.11,477.31,354.847z"/>
		</g>
		<g>
			<g>
				<g>
					<g>
						<path style="fill:#FFFFFF;" d="M315.708,318.243c-94.574,32.218-151.2-60.746-151.2-60.746l127.693-22.779l82.659-67.016        C374.86,167.703,410.283,286.025,315.708,318.243z"/>
						<path style="fill:#1C0231;" d="M374.86,167.703c0,0-10.309,47.093-76.442,81.251c-66.113,34.162-133.909,8.544-133.909,8.544        L374.86,167.703z"/>
					</g>
					<g>
						<path style="fill:#FFFFFF;" d="M332.668,328.521c0,6.367-5.161,11.528-11.528,11.528c-6.366,0-11.528-5.161-11.528-11.528        c0-6.366,5.161-11.528,11.528-11.528C327.507,316.993,332.668,322.154,332.668,328.521z"/>
						<polygon style="fill:#FFFFFF;" points="328.771,436.016 326.784,435.509 343.455,370.219 320.58,326.553 322.399,325.599         345.637,369.963       "/>
						<path style="fill:#FFFFFF;" d="M294.942,449.037c0,0,11.877-20.959,34.932-19.562c23.055,1.397,27.247,18.165,27.247,18.165        L294.942,449.037z"/>
					</g>
				</g>
				<g>
					<path style="fill:#FFFFFF;" d="M288.653,251.648c-0.4,0-0.779-0.235-0.944-0.626l-23.054-54.493       c-0.221-0.521,0.023-1.124,0.544-1.345c0.521-0.226,1.124,0.023,1.345,0.544l23.054,54.493       c0.221,0.521-0.023,1.124-0.544,1.345C288.922,251.623,288.785,251.648,288.653,251.648z"/>
					<path style="fill:#FFFFFF;" d="M281.667,201.717c0,8.489-6.882,15.37-15.37,15.37c-8.489,0-15.37-6.882-15.37-15.37       c0-8.489,6.882-15.37,15.37-15.37C274.786,186.347,281.667,193.229,281.667,201.717z"/>
				</g>
			</g>
			<g>
				<g>
					<path style="fill:#FFFFFF;" d="M262.812,252.369c-33.16,0-60.138-26.978-60.138-60.139c0-33.159,26.978-60.137,60.138-60.137       c33.161,0,60.139,26.978,60.139,60.137C322.951,225.391,295.973,252.369,262.812,252.369z M262.812,133.237       c-32.53,0-58.994,26.464-58.994,58.993c0,32.531,26.464,58.995,58.994,58.995s58.995-26.464,58.995-58.995       C321.807,159.701,295.342,133.237,262.812,133.237z"/>
				</g>
				<g>
					<path style="fill:#FFFFFF;" d="M262.812,233.68c-22.856,0-41.45-18.595-41.45-41.45c0-22.855,18.594-41.45,41.45-41.45       c22.856,0,41.451,18.595,41.451,41.45C304.263,215.085,285.668,233.68,262.812,233.68z M262.812,151.924       c-22.225,0-40.306,18.081-40.306,40.306s18.081,40.306,40.306,40.306c22.226,0,40.308-18.081,40.308-40.306       S285.038,151.924,262.812,151.924z"/>
				</g>
			</g>
		</g>
		<circle style="fill:#FF5382;" cx="318.874" cy="72.319" r="24.527"/>
		<path style="fill:#95ABD3;" d="M105.137,206.051c0,9.353-7.582,16.935-16.935,16.935s-16.935-7.582-16.935-16.935    c0-9.353,7.582-16.936,16.935-16.936S105.137,196.698,105.137,206.051z"/>
		<g>
			<polygon style="fill:#FDBC08;" points="437.112,161.384 416.406,150.548 422.614,173.079 412.233,152.133 404.025,174.019      407.941,150.97 388.43,163.851 405.146,147.512 381.792,146.462 404.913,143.054 386.645,128.479 407.351,139.316      401.143,116.785 411.523,137.73 419.731,115.845 415.815,138.893 435.326,126.013 418.611,142.351 441.964,143.402      418.843,146.809    "/>
			<path style="fill:#FF8933;" d="M476.372,356.86l-24.359,23.81l11.368,0.503c-1.578,2.584-3.202,5.169-4.895,7.685l-5.993,0.892     l3.499,2.79c-1.555,2.287-3.156,4.529-4.803,6.748l-3.66-1.921l1.372,4.963c-1.807,2.356-3.66,4.689-5.558,6.976l-4.323-8.714     l-8.737,23.284c-1.715,1.784-3.477,3.545-5.261,5.261l5.261-30.924l-39.753,26.258l34.057-33.302l-47.598-2.127l47.118-6.953     L386.871,352.4l42.2,22.072l-9.607-34.881l-3.042-11.025l5.284,10.659l15.874,32.021l14.799-39.501l1.921-5.101l-0.8,4.712     l-7.182,42.246l32.022-21.134C477.721,353.956,477.058,355.419,476.372,356.86z"/>
			<polygon style="fill:#FDBC08;" points="98.403,319.059 77.697,308.223 83.904,330.754 73.524,309.808 65.316,331.694      69.232,308.645 49.721,321.526 66.436,305.187 43.083,304.137 66.204,300.729 47.935,286.154 68.641,296.991 62.433,274.46      72.814,295.406 81.022,273.52 77.106,296.568 96.617,283.688 79.901,300.027 103.255,301.077 80.134,304.484    "/>
		</g>
		<g>
			<path style="fill:#FFFFFF;" d="M464.286,235.834c0,5.483-4.445,9.928-9.928,9.928c-5.483,0-9.928-4.445-9.928-9.928     s4.445-9.928,9.928-9.928C459.841,225.906,464.286,230.351,464.286,235.834z"/>
			<path style="fill:#FFFFFF;" d="M419.903,206.635c0,4.193-3.399,7.592-7.592,7.592c-4.193,0-7.592-3.399-7.592-7.592     c0-4.193,3.399-7.592,7.592-7.592C416.504,199.043,419.903,202.442,419.903,206.635z"/>
			<path style="fill:#FFFFFF;" d="M471.002,178.896c0,4.193-3.399,7.592-7.592,7.592c-4.193,0-7.592-3.399-7.592-7.592     c0-4.193,3.399-7.592,7.592-7.592C467.603,171.304,471.002,174.703,471.002,178.896z"/>
			<path style="fill:#FFFFFF;" d="M344.569,131.885c0,4.193-3.399,7.592-7.592,7.592c-4.193,0-7.592-3.399-7.592-7.592     c0-4.193,3.399-7.592,7.592-7.592C341.171,124.294,344.569,127.692,344.569,131.885z"/>
			<path style="fill:#FFFFFF;" d="M389.244,87.211c0,4.193-3.399,7.592-7.592,7.592c-4.193,0-7.592-3.399-7.592-7.592     c0-4.193,3.399-7.592,7.592-7.592C385.845,79.619,389.244,83.018,389.244,87.211z"/>
			<path style="fill:#FFFFFF;" d="M137.256,272.625c0,4.193-3.399,7.592-7.592,7.592c-4.193,0-7.592-3.399-7.592-7.592     c0-4.193,3.399-7.592,7.592-7.592C133.857,265.033,137.256,268.432,137.256,272.625z"/>
			<path style="fill:#FFFFFF;" d="M44.695,241.966c0,4.193-3.399,7.592-7.592,7.592c-4.193,0-7.592-3.399-7.592-7.592     c0-4.193,3.399-7.592,7.592-7.592C41.296,234.374,44.695,237.773,44.695,241.966z"/>
			<path style="fill:#FFFFFF;" d="M91.122,364.31c0,4.193-3.399,7.592-7.592,7.592c-4.193,0-7.592-3.399-7.592-7.592     c0-4.193,3.399-7.592,7.592-7.592C87.723,356.718,91.122,360.117,91.122,364.31z"/>
		</g>
		<g>
			<path style="fill:#9F6DA4;" d="M209.677,76.396c0,7.594-1.052,14.959-2.973,21.958c-2.013,7.296-5.009,14.204-8.829,20.54     c-14.41,23.879-40.599,39.844-70.539,39.844c-0.663,0-1.327,0-1.99-0.023c-17.177-0.412-33.028-6.038-46.02-15.439     c-2.15-1.51-4.232-3.156-6.199-4.918c-4.621-4.025-8.76-8.554-12.351-13.518c-0.526-0.663-1.029-1.35-1.464-2.036     c-1.029-1.51-2.013-3.042-2.951-4.62c14.87-21.678,41.504-34.254,62.454-50.069c23.326-17.609,41.602-37.66,70.413-45.95     c0.229,0.252,0.458,0.526,0.686,0.778c0.732,0.869,1.464,1.761,2.173,2.653c2.264,2.813,4.3,5.81,6.153,8.943     c0.686,1.189,1.372,2.379,2.013,3.614c1.327,2.447,2.493,5.055,3.499,7.685c3.454,8.463,5.467,17.657,5.855,27.287     C209.631,74.201,209.677,75.299,209.677,76.396z"/>
			<path style="fill:#F3C7D1;" d="M192.088,25.596c-45.334,30.947-90.415,62.351-132.775,97.209c-1.029-1.51-2.013-3.042-2.951-4.62     c31.427-45.814,78.179-80.283,132.867-96.019c0.229,0.252,0.458,0.526,0.686,0.778C190.647,23.812,191.379,24.704,192.088,25.596     z"/>
			<path style="fill:#F3C7D1;" d="M203.757,45.829c-45.598,27.827-89.266,58.752-130.627,92.523     c-4.617-4.016-8.759-8.538-12.364-13.502c45.408-30.578,91.954-59.511,139.481-86.705     C201.575,40.612,202.745,43.205,203.757,45.829z"/>
			<path style="fill:#F3C7D1;" d="M209.67,76.407c0,7.589-1.043,14.957-2.973,21.945c-27.858,19.068-55.021,39.179-81.361,60.365     c-17.17-0.411-33.012-6.04-46.009-15.431c43.447-23.368,86.863-46.768,130.279-70.167C209.638,74.193,209.67,75.3,209.67,76.407z     "/>
		</g>
	</g>
</g>















</svg>
