<svg clip-rule="evenodd" fill-rule="evenodd" height="43.349mm" image-rendering="optimizeQuality" shape-rendering="geometricPrecision" text-rendering="geometricPrecision" viewBox="0 0 4335 4335" width="43.349mm" xmlns="http://www.w3.org/2000/svg"><g id="Layer_x0020_1"><g id="_437311136"><path d="m2822 875c-28 28-45 66-87 92-38 23-195 19-162-79 29-88 176-207 159-295-24-120-358-158-329 47 9 60 59 198-28 208-57 7-198-27-217-22-34 8-45 66-86 86-43 21-76 2-95-46-52-133 23-309-73-461-75-119-304-117-211 180 60 192 264 290 52 447-55 41-57 44-116 46-32 1-81-5-105-23-29-22-141-172-168-210 20 23 70 115 85 147 90 190-13 186-26 256-8 40-2 90-10 129-135 39-213-247-377-172-138 63-164 213-23 256 20 6 29 8 49 12l95 27c49 20 33 105 8 139-66 90-149 52-129 177 7 44 10 70-1 104-11 36-47 64-89 65-24 1-74-20-98-28-33-12-61-22-93-34-94-33-337-63-368 116-29 166 246 136 347 115 83-17 147-48 213-17 69 31 117 95 139 178 12 47 16 69 6 106-39 143-118 171-242 246 61-19 232-92 279-71 17 8 38 34 54 46 70 50 132 66 27 149-107 84-475 262-372 428 30 48 82 38 131 6 110-74 194-271 295-319 127-61 165 50 138 146-37 137-100 163-127 227 25-18 53-48 79-69 82-66 184-115 284-123 81-7 95-3 162 46 28 21 128 89 145 113 36 52-31 113-52 159-28 61 35 122 93 135 62 14 126-42 123-101-2-39-17-60-24-94-7-36 3-53 6-82 29-20 97-36 129-41 201-34 184 116 127 227-26 51-58 171 29 231 47 33 177 44 227-31 47-72 15-145-29-242-59-134-42-142 87-199 64-29 255-122 320-107 50 12 117 65 143 111-17-33-40-66-58-100-26-48-29-49-20-90l56-154c46-2 126 24 168 64 53 50 81 120 148 127s134-86 111-136c-51-115-286-49-287-197-1-50-2-48 30-84 69-78 64-199 186-201 103-1 219 157 317 186 66 20 132 10 168-60 25-49 19-130-50-168-123-68-476-37-485-185-2-32 9-54 35-83 84-91 190-56 280-81-53-2-102-5-153-8-55-3-90-1-140-43-26-22-87-136-93-169-16-87 132-176-67-258-66-27-79-39-116-122-26-59-13-103 15-147 60-94 248-74 280-190 12-44-13-110-59-151-95-85-196 80-248 148-91 119-119 121-269 42-41-22-98-87-96-138 0-12 18-53 24-69 5-12 10-23 15-35l13-34z"/><path d="m3645 1616c189 257 640 45 612-245-6-64-49-178-120-169-52 6-150 102-200 137-183 130-419 105-293 277z"/><path d="m264 2862c-94 57-136 128-105 218 37 108 138 123 216 43 67-69 132-199 229-306 17-19 85-80 91-95-91 38-280 49-431 141z"/><path d="m2022 4192c32 40 76 55 113 58 150 12 256-99 125-282-66-92-148-116-240-29-77 73-75 156 3 252z"/><path d="m427 949c-42 46-43 150 8 217 42 55 147 68 205 7 45-47 54-149-12-209-36-33-144-78-202-15z"/><path d="m3205 3333c1 17 13 50 18 68 16 67 21 132 25 199 5 78 9 221 122 194 55-13 86-70 88-103 7-121-168-280-253-358z"/><path d="m1275 750c-56-102-38-164-73-259s-137-155-209-78c-65 70-15 175 70 216 37 18 72 28 109 49 30 17 81 63 103 72z"/><path d="m483 3504c104 132 310-45 203-168-111-128-307 36-203 168z"/><path d="m2923 693c102-67 208-353 50-392-34-8-88 3-100 48-10 35 6 78 26 118 60 119 59 133 24 226z"/><path d="m3182 863c-20-65-91-82-145-63-36 13-57 40-68 67-86 208 268 175 213-4z"/><path d="m1154 3398c-103 97-153 110-211 165-136 131-33 267 88 129 55-63 45-116 79-199z"/><path d="m3817 2041c24 11 159 28 180 30 57 5 150 1 167-73 12-50-16-133-137-63-82 47-125 71-210 106z"/><path d="m3403 3351c25-79-137-63-148-83 0 0 66 96 66 96 24 22 70 24 82-14z"/><path d="m1665 3167c-19 44-85 79-76 126 13 66 100 44 89-31-3-17-9-35-11-52-1-15-1-29-2-44z"/><path d="m2002 3847c44 46 125-15 73-75-47-55-124 22-73 75z"/></g></g></svg>