<?xml version="1.0" encoding="UTF-8"?>
<!-- Generator: Adobe Illustrator 27.2.0, SVG Export Plug-In . SVG Version: 6.00 Build 0)  -->
<svg xmlns="http://www.w3.org/2000/svg" xmlns:xlink="http://www.w3.org/1999/xlink" version="1.1" id="Capa_1" x="0px" y="0px" viewBox="0 0 512 512" style="enable-background:new 0 0 512 512;" xml:space="preserve" width="512" height="512">
<g>
	<path style="fill:#FFFFFF;" d="M147.783,512c-6.422,0-12.228-4.381-13.796-10.873l-7.619-31.564   c-30.858-13.511-55.213-35.256-69.396-62.246c-22.162-42.174-15.579-95.343,15.651-126.426c0.528-0.525,1.066-1.05,1.605-1.572   c1.468-1.429,3.923-3.817,4.263-4.763c0.555-1.591-2.134-7.653-3.425-10.566c-5.349-12.062-9.456-24.304-12.298-36.59   c-8.488-14.889-13.289-30.109-14.279-45.273c-0.254-3.907,1.114-7.746,3.784-10.61c2.013-2.159,4.63-3.621,7.475-4.217   c0.539-3.589,1.216-7.121,2.031-10.581c-4.84-9.035-7.372-19.098-7.372-29.464c0-11.372,3.091-22.531,8.941-32.268   c0.07-0.118,0.436-0.694,0.436-0.694c0.379-0.598,0.766-1.198,1.165-1.772c6.373-9.556,15.329-17.161,25.626-21.983   c-0.338-2.594-0.511-5.21-0.518-7.838c0-0.139,0.015-0.837,0.015-0.837c0.015-0.701,0.036-1.407,0.079-2.098   c0.93-20.936,12.174-39.893,30.106-50.734c3.426-2.071,7.038-3.807,10.737-5.159c0.92-0.356,1.858-0.682,2.783-0.968   C139.767,0.993,146.145,0,152.592,0c22.118,0,42.149,11.294,53.584,30.211c3.669,6.07,6.249,12.654,7.677,19.501   c0.358-0.001,0.717-0.002,1.074-0.002c34.443,0,69.35,8.988,98.292,25.31c58.726,33.117,96.025,82.353,102.332,135.083   c1.032,8.628,1.238,17.227,1.437,25.541c0.372,15.595,0.725,30.324,6.443,42.555c3.045,6.515,7.797,12.665,12.827,19.178   c2.73,3.533,5.553,7.188,8.233,11.07c23.25,33.681,29.9,78.81,17.357,117.769c-2.651,8.231-6.233,16.092-10.579,23.277   c0.076,0.384,0.138,0.772,0.181,1.165l3.626,32.037c0.435,3.84-0.714,7.694-3.184,10.668c-2.468,2.975-6.042,4.816-9.898,5.098   l-116.057,8.462c-0.346,0.026-0.69,0.037-1.035,0.037c-3.576,0-7.034-1.35-9.671-3.801c-2.891-2.689-4.533-6.458-4.533-10.404   v-1.826l-1.765-21.173c-0.121-1.454-0.017-2.881,0.282-4.24c-8.405-2.872-16.611-4.8-24.699-4.8c-0.979,0-1.962,0.028-2.946,0.088   c-5.533,0.333-11.154,1.697-16.552,3.449l1.755,7.214c0.904,3.718,0.27,7.641-1.757,10.885c-2.028,3.244-5.277,5.533-9.014,6.351   l-105.177,22.97C149.806,511.894,148.787,512,147.783,512z"/>
	<g>
		<path style="fill:#EBB1FF;" d="M86.691,132.557c-21.85,37.861-16.444,86.342,1.275,126.304c2.989,6.742,6.368,14.236,3.941,21.2    c-1.655,4.749-5.696,8.179-9.261,11.726c-27.962,27.83-31.449,74.826-13.098,109.748c18.352,34.922,55.085,57.863,93.728,65.805    c18.181,3.737,37.236,4.465,55.196-0.219c21.137-5.512,40.444-18.358,62.248-19.672c41.079-2.474,78.503,36.47,118.582,27.128    c24.243-5.65,41.396-28.195,49.026-51.89c11.268-34.997,5.359-75.089-15.527-105.347c-7.439-10.777-16.691-20.437-22.237-32.3    c-10.372-22.188-6.207-48.107-9.116-72.425c-6.437-53.82-47.992-97.772-95.205-124.397    C236.249,48.746,130.814,56.099,86.691,132.557z"/>
		<path style="fill:#FF9393;" d="M160.492,470.814c0,0,3.627-18.134-10.881-36.268c-14.507-18.134-38.686-24.179-42.917-33.246    c-4.231-9.067-15.716-22.365-10.88-29.619c0,0-4.231-44.731,0-47.148c4.231-2.418,4.231-2.418,4.231-2.418    s-1.209-27.201,4.836-30.223c6.045-3.022,25.388-3.022,25.388-3.022s-1.102-24.797,15.635-27.039    c1.332-0.178,2.548,0.815,2.657,2.155c0.617,7.619,3.419,32.365,14.551,49.064c13.298,19.947,30.022,25.388,43.925,64.074    c13.903,38.686,19.343,70.723,19.343,71.932C226.379,450.262,160.492,470.814,160.492,470.814z"/>
		<g>
			<path style="fill:#2F2444;" d="M132.574,300.21c-2.81,0-5.613-0.931-7.831-2.683c-1.154-0.91-2.027-1.937-2.596-3.051     c-0.569-1.113-0.854-2.363-0.826-3.614c0.012-0.49,0.429-0.871,0.908-0.867c0.49,0.012,0.878,0.418,0.867,0.908     c-0.022,0.957,0.196,1.914,0.632,2.766c0.452,0.885,1.163,1.714,2.114,2.465c2.728,2.154,6.488,2.862,9.812,1.847     s6.047-3.702,7.106-7.013c0.149-0.468,0.649-0.724,1.116-0.575c0.467,0.149,0.725,0.649,0.575,1.116     c-1.234,3.856-4.406,6.987-8.279,8.17C135.004,300.036,133.788,300.21,132.574,300.21z"/>
			<path style="fill:#2F2444;" d="M95.611,369.345c-0.428,0-0.804-0.309-0.875-0.744c-0.74-4.521-6.762-43.431,4.354-47.159     c-0.452-5.111-2.005-27.688,5.489-30.386c7.622-2.744,38.596-2.195,39.91-2.168c0.379,0.007,0.711,0.254,0.828,0.614     c0.154,0.477,3.727,11.749-1.71,17.506c-4.572,4.841-14.992,7.094-18.082,7.672l0.785,5.495c0.069,0.486-0.268,0.936-0.753,1.005     c-0.486,0.069-0.936-0.269-1.005-0.753l-0.906-6.347c-0.068-0.48,0.261-0.927,0.739-1.003c0.13-0.021,13.061-2.132,17.931-7.288     c4.062-4.302,2.122-12.804,1.486-15.137c-4.587-0.064-31.894-0.349-38.622,2.073c-5.664,2.04-4.991,21.843-4.253,29.302     c0.046,0.463-0.274,0.883-0.733,0.962c-8.873,1.529-5.685,33.236-3.707,45.324c0.079,0.484-0.249,0.94-0.732,1.02     C95.707,369.341,95.659,369.345,95.611,369.345z"/>
			<path style="fill:#2F2444;" d="M143.77,341.338c-0.309,0-0.608-0.161-0.772-0.448c-0.242-0.427-0.094-0.969,0.332-1.211     c3.395-1.933,5.527-4.521,6.338-7.694c1.348-5.274-1.298-10.773-2.162-12.369L100.108,323c-0.485,0.015-0.915-0.333-0.949-0.822     c-0.035-0.489,0.333-0.914,0.822-0.949l47.955-3.425c0.346-0.012,0.645,0.138,0.818,0.418c0.181,0.292,4.408,7.227,2.635,14.191     c-0.932,3.663-3.349,6.627-7.182,8.809C144.069,341.301,143.918,341.338,143.77,341.338z"/>
			<path style="fill:#2F2444;" d="M94.605,374.181c-0.178,0-0.358-0.054-0.515-0.165c-0.399-0.284-0.492-0.839-0.207-1.238     c0.765-1.071,18.799-26.271,25.675-28.146c6.618-1.805,39.979-7.244,41.396-7.475c0.311-0.05,0.615,0.063,0.816,0.298     c0.16,0.187,3.894,4.645,2.412,11.839c-1.443,7.008-3.983,9.87-4.091,9.988c-0.328,0.364-0.891,0.39-1.254,0.061     s-0.391-0.891-0.061-1.254c0.021-0.022,2.333-2.679,3.667-9.152c1.08-5.251-0.945-8.804-1.733-9.94     c-4.387,0.718-34.604,5.69-40.687,7.349c-5.204,1.42-19.592,20.307-24.696,27.465C95.155,374.052,94.882,374.181,94.605,374.181z     "/>
			<path style="fill:#2F2444;" d="M135.057,333.241c-0.485,0-0.97-0.017-1.452-0.051c-3.427-0.242-5.93-1.314-7.441-3.187     c-1.344-1.668-1.808-3.981-1.209-6.037c0.6-2.057,2.232-3.76,4.262-4.443c0.47-0.162,0.968,0.093,1.125,0.557     c0.157,0.465-0.093,0.969-0.557,1.125c-1.488,0.502-2.686,1.751-3.125,3.258c-0.438,1.508-0.099,3.203,0.887,4.426     c1.188,1.473,3.269,2.324,6.184,2.53c5.203,0.365,12.364-1.701,15.933-6.368c0.297-0.388,0.854-0.464,1.244-0.166     c0.39,0.298,0.464,0.854,0.166,1.244C147.784,330.43,141.355,333.24,135.057,333.241z"/>
			<path style="fill:#2F2444;" d="M147.421,353.016c-1.424,0-2.682-0.205-3.842-0.617c-2.578-0.916-4.469-2.935-4.935-5.269     c-0.512-2.565,1.401-6.419,4.136-6.995c0.478-0.101,0.949,0.206,1.052,0.687c0.101,0.479-0.206,0.95-0.687,1.052     c-1.576,0.332-3.123,3.085-2.759,4.909c0.339,1.698,1.825,3.246,3.786,3.942c1.657,0.589,3.602,0.669,6.114,0.256     c4.478-0.736,8.722-2.619,12.273-5.443c0.385-0.305,0.942-0.241,1.248,0.143c0.305,0.384,0.241,0.942-0.143,1.248     c-3.789,3.012-8.315,5.02-13.09,5.805C149.433,352.921,148.389,353.016,147.421,353.016z"/>
			<path style="fill:#2F2444;" d="M140.343,403.598c-0.09,0-0.182-0.014-0.271-0.042c-0.467-0.15-0.724-0.65-0.574-1.117     l3.627-11.283c0.072-0.224,0.229-0.409,0.438-0.517c0.219-0.113,21.927-11.44,25.585-19.914     c3.009-6.968,0.009-12.141-1.099-13.699c-5.65,2.109-45.004,16.79-48.983,18.116c-2.785,0.93-8.183,13.264-10.932,20.82     c-0.168,0.46-0.675,0.701-1.138,0.53c-0.461-0.167-0.698-0.677-0.53-1.138c1.235-3.398,7.624-20.425,12.038-21.896     c4.168-1.39,49.084-18.155,49.537-18.325c0.346-0.127,0.735-0.03,0.98,0.249c0.236,0.272,5.76,6.774,1.757,16.046     c-3.697,8.562-23.193,19.097-26.073,20.617l-3.516,10.937C141.067,403.358,140.719,403.598,140.343,403.598z"/>
			<path style="fill:#2F2444;" d="M157.611,370.941c-4.627,0-9.004-2.601-10.641-6.525c-0.188-0.453,0.025-0.973,0.478-1.161     c0.45-0.188,0.974,0.024,1.161,0.478c1.547,3.711,6.093,6.001,10.569,5.315c3.955-0.601,7.778-3.278,10.491-7.346     c0.271-0.408,0.821-0.521,1.23-0.246c0.408,0.271,0.519,0.823,0.246,1.23c-2.988,4.482-7.253,7.441-11.7,8.117     C158.834,370.896,158.22,370.941,157.611,370.941z"/>
			<path style="fill:#2F2444;" d="M151.528,400.705c-0.278,0-0.552-0.13-0.725-0.374c-1.81-2.551-3.711-5.095-5.651-7.561     c-0.13-0.166-0.527-0.671-0.768-0.671c-0.004,0-0.008,0-0.012,0c-0.486,0-0.883-0.391-0.888-0.878     c-0.006-0.49,0.388-0.893,0.878-0.897c0.007,0,0.015,0,0.022,0c1.101,0,1.817,0.909,2.162,1.349     c1.958,2.489,3.877,5.057,5.703,7.631c0.284,0.399,0.19,0.954-0.21,1.237C151.885,400.652,151.706,400.705,151.528,400.705z"/>
			<path style="fill:#2F2444;" d="M188.447,406.421c-0.438,0-0.82-0.325-0.879-0.771c-0.926-7.012-1.975-13.833-4.604-20.208     c-2.886-6.998-7.475-12.41-12.92-15.24c-0.436-0.227-0.604-0.763-0.379-1.197c0.227-0.436,0.763-0.604,1.197-0.379     c5.817,3.023,10.698,8.755,13.742,16.139c2.712,6.574,3.781,13.521,4.723,20.653c0.064,0.486-0.277,0.933-0.764,0.996     C188.525,406.419,188.486,406.421,188.447,406.421z"/>
		</g>
		<g>
			<g>
				<g>
					<path style="fill:#86DFD1;" d="M127.457,285.547c0.054-8.004-6.73-14.147-12.803-19.362       c-12.855-11.038-25.076-23.018-34.601-37.031c-9.525-14.012-16.284-30.217-17.386-47.125       c-0.004-0.058,13.373,5.42,14.625,6.137C112.185,208.136,123.528,247.95,127.457,285.547z"/>
				</g>
				<g>
					<path style="fill:#86DFD1;" d="M134.44,269.495c8.886-13.1,15.951-27.405,25.398-40.107       c9.447-12.702,21.897-24.048,37.238-27.952c7.155-1.821,14.616-1.947,21.998-2.062c-2.855,16.495-11.627,30.984-24.506,41.678       c-12.879,10.694-28.619,17.523-44.81,21.777C143.087,264.581,138.012,263.593,134.44,269.495z"/>
				</g>
			</g>
			<g>
				<path style="fill:#86DFD1;" d="M129.376,288.086c1.634-21.007-7.037-41.422-8.67-62.429      c-1.961-25.224,6.791-51.107,23.658-69.965c1.335,3.367,2.08,6.796,3.414,10.163c2.371,5.98,4.752,11.993,6.128,18.277      c4.044,18.468-0.872,37.686-7.236,55.489C140.305,257.423,131.582,269.31,129.376,288.086z"/>
			</g>
			<g>
				<g>
					<g>
						<path style="fill:#A27CFF;" d="M165.327,128.083c0,12.098-4.427,23.178-11.814,31.654c-0.45,0.544-0.947,1.065-1.444,1.586        c-8.807,9.304-21.284,15.105-35.11,15.105c-26.705,0-48.344-21.639-48.344-48.344c0-9.115,2.533-17.662,6.913-24.954        c0.379-0.592,0.758-1.207,1.16-1.776c8.641-13.045,23.438-21.639,40.271-21.639c3.173,0,6.274,0.308,9.257,0.9        c0.687,0.118,1.373,0.26,2.036,0.426C149.536,86.131,165.327,105.261,165.327,128.083z"/>
					</g>
				</g>
				<g>
					<g>
						<path style="fill:#2F2444;" d="M153.513,159.737c-0.45,0.544-0.947,1.065-1.444,1.586c-3.03-0.474-6.037-1.184-9.02-2.083        c-7.694-2.32-15.507-5.99-24.598-11.577c-14.749-9.091-33.263-23.817-42.923-44.533c0.379-0.592,0.758-1.207,1.16-1.776        c6.605,14.797,17.898,26.563,29.167,35.37c0.213,0.213,0.426,0.379,0.663,0.545c0.332,0.26,0.663,0.521,1.018,0.758        c0.474,0.379,0.947,0.734,1.421,1.089c3.575,2.652,7.103,4.972,10.441,7.032c7.765,4.759,14.56,8.12,21.165,10.393        c0.568,0.213,1.113,0.403,1.681,0.568c0.45,0.166,0.876,0.284,1.326,0.426C146.86,158.529,150.199,159.264,153.513,159.737z"/>
					</g>
				</g>
				<g>
					<g>
						<path style="fill:#2F2444;" d="M128.252,81.041c-1.539,1.586-2.983,3.291-4.356,5.066c-0.379,0.474-0.734,0.947-1.065,1.444        c-3.054,4.119-5.682,8.689-7.836,13.589c-2.154,4.853-3.788,9.873-4.972,15.341c-0.237,1.137-0.473,2.273-0.687,3.433        c-0.923,5.232-1.468,10.89-1.728,17.164c0,0.237-0.024,0.473-0.024,0.71c0,0.095-0.024,0.166-0.047,0.237        c-0.118,0.355-0.45,0.616-0.852,0.616c0,0,0,0-0.024,0c-0.024,0-0.024,0-0.047,0c-0.45-0.047-0.829-0.45-0.805-0.923        c0-0.331,0.024-0.663,0.047-0.995c0.213-6.155,0.781-11.719,1.705-16.88c0.024-0.237,0.071-0.45,0.118-0.663        c1.231-6.795,3.101-12.903,5.682-18.774c3.267-7.458,7.671-14.181,12.855-19.792        C126.902,80.733,127.589,80.876,128.252,81.041z"/>
					</g>
				</g>
				<g>
					<g>
						<path style="fill:#2F2444;" d="M141.376,157.836c-0.082,0-0.167-0.012-0.251-0.037c-0.47-0.136-0.739-0.631-0.601-1.1        c7.091-24.1-0.214-52.092-18.175-69.652c-0.35-0.344-0.357-0.906-0.014-1.256c0.342-0.349,0.904-0.358,1.255-0.016        c18.418,18.008,25.907,46.712,18.637,71.423C142.114,157.586,141.76,157.836,141.376,157.836z"/>
					</g>
				</g>
				<g>
					<g>
						<path style="fill:#2F2444;" d="M108.393,120.573c-0.19,0-0.382-0.06-0.543-0.187c-0.387-0.301-0.458-0.858-0.157-1.246        c6.787-8.735,18.308-13.8,29.313-12.899c0.489,0.042,0.853,0.469,0.813,0.957c-0.038,0.49-0.469,0.874-0.956,0.814        c-10.449-0.846-21.34,3.944-27.766,12.219C108.92,120.455,108.658,120.573,108.393,120.573z"/>
					</g>
				</g>
				<g>
					<g>
						<path style="fill:#2F2444;" d="M114.432,139.483c-2.511,0-5.021-0.229-7.492-0.701c-0.482-0.09-0.799-0.555-0.706-1.038        c0.091-0.483,0.56-0.805,1.037-0.705c12.312,2.337,25.617-1.554,34.726-10.159c0.356-0.335,0.918-0.321,1.254,0.035        c0.338,0.356,0.321,0.92-0.036,1.255C135.529,135.432,124.981,139.483,114.432,139.483z"/>
					</g>
				</g>
			</g>
			<g>
				<g>
					<g>
						<path style="fill:#FFC945;" d="M240.618,101.805c4.759,11.122,5.048,23.051,1.592,33.749        c-0.199,0.678-0.451,1.352-0.704,2.026c-4.436,12.019-13.625,22.26-26.336,27.7c-24.552,10.506-52.959-0.874-63.465-25.426        c-3.586-8.38-4.619-17.234-3.462-25.661c0.115-0.693,0.221-1.408,0.368-2.089c2.812-15.393,13.035-29.115,28.51-35.737        c2.917-1.248,5.889-2.185,8.865-2.815c0.678-0.161,1.365-0.301,2.04-0.409C209.595,69.448,231.639,80.822,240.618,101.805z"/>
					</g>
				</g>
				<g>
					<g>
						<path style="fill:#2F2444;" d="M242.209,135.553c-0.199,0.678-0.451,1.352-0.704,2.026c-2.972,0.757-6.016,1.287-9.113,1.633        c-7.987,0.894-16.613,0.594-27.169-0.966c-17.137-2.555-39.951-8.81-56.981-24.055c0.115-0.693,0.221-1.408,0.368-2.089        c11.894,11.005,26.906,17.38,40.731,21.043c0.28,0.112,0.541,0.181,0.824,0.24c0.407,0.109,0.814,0.218,1.234,0.296        c0.584,0.162,1.159,0.302,1.734,0.442c4.33,1.031,8.486,1.777,12.365,2.357c9.011,1.32,16.581,1.737,23.548,1.228        c0.606-0.027,1.181-0.068,1.769-0.139c0.479-0.025,0.917-0.083,1.387-0.13C235.618,137.061,238.976,136.422,242.209,135.553z"/>
					</g>
				</g>
				<g>
					<g>
						<path style="fill:#2F2444;" d="M188.025,73.142c-0.791,2.064-1.448,4.199-2.012,6.372c-0.162,0.584-0.302,1.159-0.411,1.747        c-1.187,4.989-1.806,10.224-1.858,15.577c-0.071,5.31,0.401,10.567,1.465,16.06c0.23,1.138,0.459,2.276,0.719,3.426        c1.21,5.174,2.935,10.59,5.164,16.46c0.093,0.218,0.165,0.445,0.258,0.662c0.037,0.087,0.043,0.162,0.05,0.236        c0.031,0.373-0.172,0.743-0.541,0.901c0,0,0,0-0.022,0.009c-0.022,0.009-0.022,0.009-0.044,0.019        c-0.432,0.133-0.939-0.088-1.103-0.532c-0.13-0.305-0.239-0.619-0.348-0.933c-2.226-5.743-3.892-11.081-5.074-16.19        c-0.071-0.227-0.112-0.441-0.152-0.656c-1.541-6.731-2.225-13.083-2.162-19.496c0.07-8.142,1.473-16.056,4.032-23.254        C186.663,73.39,187.35,73.25,188.025,73.142z"/>
					</g>
				</g>
				<g>
					<g>
						<path style="fill:#2F2444;" d="M230.303,138.58c-0.075,0.032-0.158,0.055-0.245,0.065c-0.486,0.06-0.927-0.29-0.986-0.775        c-2.962-24.947-20.691-47.807-44.111-56.885c-0.457-0.179-0.685-0.693-0.507-1.149c0.177-0.456,0.69-0.685,1.148-0.509        c24.017,9.31,42.195,32.753,45.233,58.331C230.883,138.061,230.656,138.429,230.303,138.58z"/>
					</g>
				</g>
				<g>
					<g>
						<path style="fill:#2F2444;" d="M185.32,117.299c-0.174,0.075-0.374,0.095-0.573,0.042c-0.474-0.124-0.758-0.609-0.635-1.084        c2.803-10.701,11.402-19.89,21.874-23.391c0.466-0.154,0.969,0.096,1.124,0.56c0.158,0.466-0.088,0.988-0.559,1.124        c-9.939,3.333-18.067,12.022-20.72,22.157C185.758,116.983,185.564,117.195,185.32,117.299z"/>
					</g>
				</g>
				<g>
					<g>
						<path style="fill:#2F2444;" d="M198.312,132.308c-2.308,0.988-4.706,1.765-7.163,2.303c-0.479,0.107-0.953-0.196-1.058-0.676        c-0.106-0.48,0.198-0.96,0.676-1.056c12.238-2.695,22.94-11.507,27.929-23.002c0.195-0.448,0.717-0.657,1.167-0.462        c0.45,0.195,0.657,0.72,0.461,1.168C216.114,120.284,208.01,128.158,198.312,132.308z"/>
					</g>
				</g>
			</g>
			<g>
				<g>
					<g>
						<path style="fill:#F14537;" d="M194.023,38.388c6.259,10.353,8.202,22.126,6.265,33.2c-0.103,0.699-0.259,1.402-0.415,2.104        c-2.724,12.519-10.4,23.937-22.233,31.09c-22.854,13.815-52.567,6.492-66.382-16.362c-4.715-7.8-6.969-16.425-6.993-24.931        c0.018-0.703,0.024-1.425,0.074-2.12c0.647-15.634,8.864-30.644,23.269-39.352c2.715-1.641,5.528-2.982,8.387-4.019        c0.649-0.254,1.31-0.488,1.963-0.689C158.806,10.655,182.216,18.856,194.023,38.388z"/>
					</g>
				</g>
				<g>
					<g>
						<path style="fill:#2F2444;" d="M200.288,71.588c-0.103,0.699-0.259,1.402-0.415,2.104c-2.838,1.162-5.779,2.11-8.797,2.883        c-7.785,1.995-16.369,2.896-27.04,2.818c-17.326-0.15-40.788-3.174-59.771-15.905c0.018-0.703,0.024-1.425,0.074-2.12        c13.308,9.246,29.059,13.473,43.259,15.18c0.293,0.072,0.561,0.104,0.849,0.123c0.418,0.051,0.837,0.103,1.263,0.122        c0.601,0.079,1.19,0.138,1.779,0.197c4.431,0.42,8.65,0.581,12.573,0.616c9.107,0.055,16.661-0.583,23.49-2.055        c0.596-0.112,1.161-0.231,1.733-0.383c0.471-0.091,0.897-0.21,1.355-0.321C193.97,73.996,197.207,72.897,200.288,71.588z"/>
					</g>
				</g>
				<g>
					<g>
						<path style="fill:#2F2444;" d="M137.958,17.309c-0.496,2.153-0.85,4.359-1.107,6.589c-0.079,0.601-0.138,1.19-0.165,1.787        c-0.483,5.105-0.368,10.375,0.324,15.684c0.667,5.268,1.865,10.408,3.682,15.701c0.385,1.095,0.771,2.19,1.188,3.293        c1.917,4.955,4.378,10.079,7.401,15.583c0.123,0.203,0.225,0.417,0.347,0.62c0.049,0.081,0.065,0.154,0.082,0.227        c0.082,0.365-0.066,0.759-0.411,0.968c0,0,0,0-0.02,0.012c-0.02,0.012-0.02,0.012-0.041,0.024        c-0.409,0.192-0.942,0.044-1.166-0.374c-0.172-0.284-0.323-0.58-0.474-0.875c-3.002-5.378-5.394-10.433-7.274-15.328        c-0.102-0.215-0.172-0.422-0.242-0.629c-2.462-6.452-4.021-12.647-4.85-19.006c-1.062-8.072-0.772-16.104,0.762-23.589        C136.644,17.744,137.305,17.511,137.958,17.309z"/>
					</g>
				</g>
				<g>
					<g>
						<path style="fill:#2F2444;" d="M188.918,76.239c-0.07,0.042-0.148,0.076-0.234,0.098c-0.473,0.127-0.959-0.158-1.084-0.631        c-6.4-24.293-27.132-44.469-51.587-50.205c-0.478-0.114-0.775-0.591-0.661-1.067c0.112-0.476,0.588-0.774,1.066-0.663        c25.078,5.883,46.337,26.573,52.899,51.481C189.42,75.644,189.247,76.041,188.918,76.239z"/>
					</g>
				</g>
				<g>
					<g>
						<path style="fill:#2F2444;" d="M141.415,61.414c-0.162,0.098-0.358,0.146-0.562,0.121c-0.487-0.057-0.835-0.497-0.779-0.985        c1.289-10.986,8.528-21.281,18.413-26.203c0.44-0.217,0.973-0.04,1.191,0.399c0.221,0.439,0.05,0.991-0.397,1.191        c-9.38,4.681-16.222,14.415-17.441,24.821C141.805,61.04,141.641,61.277,141.415,61.414z"/>
					</g>
				</g>
				<g>
					<g>
						<path style="fill:#2F2444;" d="M156.365,74.473c-2.149,1.299-4.415,2.401-6.774,3.276c-0.459,0.172-0.971-0.062-1.142-0.523        c-0.172-0.461,0.062-0.978,0.523-1.14c11.745-4.369,21.119-14.582,24.463-26.659c0.131-0.471,0.619-0.75,1.091-0.619        c0.473,0.13,0.751,0.621,0.619,1.093C172.324,60.092,165.393,69.015,156.365,74.473z"/>
					</g>
				</g>
			</g>
			<g>
				<path style="fill:#2F2444;" d="M126.737,259.148c-0.497-21.142-1.657-42.284-3.456-63.354      c-0.545-6.534-1.16-13.069-1.847-19.579c-0.994-9.636-2.131-19.224-3.409-28.813c-0.047-0.497-0.118-0.971-0.189-1.468      c-0.047-0.237,0.047-0.473,0.189-0.639c0.142-0.189,0.331-0.308,0.568-0.355c0.497-0.071,0.947,0.284,0.994,0.758      c0.024,0.213,0.047,0.403,0.071,0.616c0.118,0.758,0.213,1.492,0.308,2.249c1.207,9.139,2.273,18.277,3.243,27.463      c0.497,4.948,0.994,9.92,1.444,14.868c2.368,26.54,3.741,53.222,4.072,79.856c0.095,6.297,0.118,12.571,0.071,18.869      l-1.776-0.047c0.024-2.486,0.024-4.972,0-7.458c0.024-0.142,0.024-0.26,0-0.402      C127.021,274.182,126.926,266.677,126.737,259.148z"/>
			</g>
			<g>
				<path style="fill:#2F2444;" d="M149.251,105.687c-0.213,1.965-0.45,3.93-0.639,5.919c-0.071,0.474-0.118,0.923-0.166,1.397      v0.024c-0.047,0.403-0.095,0.805-0.142,1.231c-0.166,1.397-0.331,2.817-0.45,4.238c0,0.071-0.024,0.142-0.024,0.213      c-1.421,12.524-2.746,25.096-4.096,37.691v0.024c-0.047,0.379-0.071,0.758-0.118,1.137c-0.071,0.592-0.118,1.207-0.189,1.799      c-0.331,3.267-0.687,6.558-1.018,9.825c-3.646,35.181-7.079,70.481-10.227,105.685c-0.166,1.586-0.308,3.196-0.426,4.782      c-0.331,3.338-0.615,6.676-0.899,10.015l-1.184-0.024l-0.592-0.024c0.142-1.752,0.308-3.551,0.473-5.327      c0-0.024,0-0.024,0-0.047c3.362-37.927,7.008-75.997,10.962-113.948c0.379-3.835,0.781-7.647,1.184-11.482      c0.024-0.355,0.071-0.734,0.118-1.113c0.024-0.237,0.047-0.474,0.071-0.71c0.9-8.618,1.823-17.188,2.77-25.806v-0.024      c0.71-6.582,1.421-13.163,2.154-19.745c0.213-1.989,0.45-3.954,0.663-5.942c0.071-0.474,0.497-0.805,0.994-0.781      C148.944,104.74,149.299,105.19,149.251,105.687z"/>
			</g>
			<g>
				<path style="fill:#2F2444;" d="M176.525,151.285c-0.781,4.143-1.776,8.239-2.888,12.311v0.024      c-2.51,8.902-5.706,17.567-8.854,26.066l-15.034,40.745l-0.024,0.071l-1.634,4.404c-1.657,4.498-3.362,9.091-5.019,13.779      c-0.024,0.047-0.047,0.095-0.047,0.142c-1.799,5.09-3.575,10.251-5.209,15.507c0,0.024,0,0.024-0.024,0.047      c-0.166,0.639-0.379,1.326-0.592,1.989c-2.297,7.624-4.333,15.436-5.753,23.32l-0.592-0.024l-1.184-0.024      c0.592-3.338,1.302-6.676,2.083-9.991c0.805-3.409,1.705-6.795,2.675-10.157c0.379-1.278,0.734-2.581,1.136-3.859      c0-0.024,0.024-0.047,0.024-0.071c3.291-10.796,7.15-21.284,10.843-31.275l7.387-20.029v-0.024l9.304-25.166      c3.173-8.57,6.416-17.378,8.902-26.35c1.089-3.883,2.012-7.813,2.746-11.767c0.095-0.474,0.544-0.781,1.042-0.71      C176.288,150.338,176.62,150.811,176.525,151.285z"/>
			</g>
		</g>
		<polygon style="fill:#2F2444;" points="147.798,498.619 139.336,463.56 242.095,430.919 252.976,475.649   "/>
		<g>
			<g>
				<path style="fill:#2F2444;" d="M332.374,325.748l-14.513,1.799L243.451,178.75c2.746-4.048,5.493-8.073,8.191-12.122      L332.374,325.748z"/>
				<path style="fill:#FBEEE5;" d="M251.642,166.628c-2.699,4.048-5.445,8.073-8.191,12.122l-28.363-56.725l11.482-4.83      L251.642,166.628z"/>
			</g>
			<g>
				<g>
					<path style="fill:#FF9393;" d="M357.347,477.06c-12.008-5.941-21.008-16.581-24.919-29.395       c-3.5-11.468-8.148-25.664-12.659-36.291c-1.043-2.457-7.366,6.4-8.362,3.929c-7.998-19.852-11.778-35.97-6.448-40.197       c0,0-4.433-26.597,8.866-29.82c0,0-58.029-26.597-33.044-47.552l12.492,6.246c0,0-13.701-23.977,2.418-28.41       c0,0,68.104,44.328,74.551,53.596c6.448,9.268,18.94,49.969,26.194,72.133c7.254,22.164,24.179,62.462,24.179,62.462       L357.347,477.06L357.347,477.06z"/>
					<path style="fill:#2F2444;" d="M313.824,346.174c-0.123,0-0.249-0.025-0.368-0.08c-1.07-0.49-26.329-12.156-35.83-26.305       c-3.246-4.836-4.429-9.464-3.516-13.756c1.254-5.891,5.998-8.925,6.199-9.051c0.268-0.17,0.604-0.182,0.884-0.034       l81.905,42.917c0.435,0.228,0.602,0.764,0.374,1.198c-0.227,0.434-0.763,0.604-1.198,0.374l-81.424-42.664       c-1.1,0.83-4.121,3.443-5.009,7.651c-0.8,3.799,0.296,7.962,3.259,12.374c9.22,13.731,34.836,25.562,35.094,25.68       c0.446,0.204,0.643,0.731,0.438,1.177C314.483,345.981,314.161,346.174,313.824,346.174z"/>
					<path style="fill:#2F2444;" d="M304.959,375.994c-0.41,0-0.778-0.285-0.867-0.702c-0.135-0.632-3.218-15.6,3.951-26.66       c7.416-11.444,36.606,4.463,37.846,5.146c0.429,0.236,0.586,0.776,0.349,1.206c-0.234,0.429-0.774,0.588-1.206,0.349       c-0.289-0.158-28.972-15.798-35.498-5.735c-6.764,10.436-3.736,25.177-3.705,25.325c0.103,0.479-0.204,0.951-0.684,1.053       C305.082,375.988,305.021,375.994,304.959,375.994z"/>
					<path style="fill:#2F2444;" d="M312.188,416.802c-1.001,0-2.526-2.026-8.867-23.655c-2.508-5.539-2.789-11.289-0.771-15.783       c1.496-3.332,4.12-5.723,7.389-6.732c7.073-2.186,31.215,7.861,32.238,8.29c0.452,0.189,0.665,0.71,0.477,1.162       c-0.189,0.454-0.709,0.667-1.162,0.477c-6.811-2.852-25.66-9.9-31.029-8.231c-2.773,0.856-5.008,2.902-6.292,5.762       c-1.815,4.045-1.526,9.286,0.793,14.379c0.018,0.038,0.032,0.078,0.044,0.118c2.854,9.738,6.301,20.331,7.466,22.339       c2.204-0.619,3.942-1.962,5.168-3.997c2.509-4.164,2.631-10.753,0.363-19.584c-0.121-0.475,0.165-0.959,0.64-1.081       c0.477-0.12,0.958,0.164,1.081,0.64c2.39,9.31,2.2,16.355-0.563,20.941c-1.063,1.767-3.079,4.051-6.64,4.902       C312.412,416.774,312.303,416.802,312.188,416.802z M312.009,415.044c-0.003,0.001-0.007,0.002-0.01,0.003L312.009,415.044z"/>
					<path style="fill:#2F2444;" d="M310.832,297.38c-0.828,0.001-1.661-0.07-2.488-0.217c-4.612-0.813-8.862-3.87-11.371-8.176       c-2.317-3.98-3.154-8.887-2.356-13.816c0.078-0.485,0.532-0.816,1.018-0.734c0.484,0.078,0.813,0.534,0.734,1.018       c-0.731,4.525,0.028,9.014,2.14,12.639c2.248,3.86,6.041,6.598,10.145,7.322c4.327,0.76,8.844-0.801,11.505-3.986       c0.315-0.376,0.876-0.425,1.251-0.112c0.376,0.314,0.427,0.875,0.112,1.251C318.971,295.619,314.958,297.38,310.832,297.38z"/>
					<path style="fill:#2F2444;" d="M298.103,318.352c-0.856,0-1.698-0.07-2.502-0.203c-4.593-0.761-8.854-3.314-11.688-7.007       c-2.834-3.694-4.199-8.47-3.746-13.104c0.048-0.488,0.478-0.841,0.971-0.797c0.487,0.048,0.845,0.482,0.797,0.971       c-0.41,4.189,0.824,8.508,3.387,11.849c2.563,3.339,6.416,5.648,10.57,6.336c3.815,0.634,8.937-0.408,11.157-4.185       c0.25-0.422,0.793-0.562,1.216-0.315c0.423,0.249,0.563,0.793,0.315,1.216C306.39,316.835,302.089,318.352,298.103,318.352z"/>
				</g>
				<polyline style="fill:#2F2444;" points="324.908,491.164 323.094,469.403 437.339,453.083 440.966,485.119 324.908,493.582           "/>
			</g>
		</g>
		<polygon style="fill:#FBEEE5;" points="284.771,129.336 287.475,85.177 289.577,129.637 300.692,120.625 294.083,131.139     317.815,134.143 294.684,137.147 301.293,146.459 290.178,140.451 287.174,178.903 284.771,141.052 273.356,145.859     280.565,137.147 251.727,133.242 280.265,132.04 273.656,122.127   "/>
		<polygon style="fill:#FBEEE5;" points="209.817,275.618 212.521,231.459 214.623,275.918 225.738,266.906 219.129,277.42     242.861,280.424 219.73,283.428 226.339,292.741 215.224,286.733 212.22,325.184 209.817,287.334 198.401,292.14 205.611,283.428     176.773,279.523 205.311,278.322 198.702,268.408   "/>
		<polygon style="fill:#FBEEE5;" points="406.874,359.034 409.577,314.875 411.68,359.335 422.795,350.323 416.186,360.837     439.918,363.841 416.787,366.845 423.396,376.157 412.281,370.149 409.277,408.601 406.874,370.75 395.458,375.557     402.668,366.845 373.829,362.94 402.368,361.738 395.759,351.825   "/>
		<g>
			<path style="fill:#FFC945;" d="M347.604,260.377c-1.331-4.984-4.22-9.571-7.199-13.781c-2.979-4.211-7.971-7.838-12.959-9.153     c0.696,0.187,4.674-2.441,5.245-2.88c7.096-5.451,8.995-14.79,9.623-23.934c1.061,5.359,3.433,10.719,6.912,14.931     s8.37,7.362,13.763,8.23C353.157,238.779,349.171,250.237,347.604,260.377z"/>
			<path style="fill:#FFC945;" d="M257.336,382.883c-1.331-4.984-4.22-9.571-7.199-13.781c-2.979-4.211-7.971-7.838-12.959-9.153     c0.696,0.187,4.674-2.441,5.245-2.88c7.096-5.451,8.995-14.79,9.623-23.934c1.061,5.359,3.433,10.719,6.912,14.931     c3.479,4.212,8.37,7.362,13.763,8.23C262.89,361.285,258.904,372.743,257.336,382.883z"/>
		</g>
	</g>
</g>















</svg>
