<?xml version="1.0" encoding="UTF-8"?>
<!-- Generator: Adobe Illustrator 27.3.1, SVG Export Plug-In . SVG Version: 6.00 Build 0)  -->
<svg xmlns="http://www.w3.org/2000/svg" xmlns:xlink="http://www.w3.org/1999/xlink" version="1.1" id="Capa_1" x="0px" y="0px" viewBox="0 0 512 512" style="enable-background:new 0 0 512 512;" xml:space="preserve" width="512" height="512">
<g>
	<path style="fill:#FFFFFF;" d="M271.981,512c-19.747,0-39.986-2.03-58.529-5.864c-13.312-2.775-26.269-6.367-38.531-10.684   c-13.352-4.664-26.144-10.274-37.988-16.664c-1.63-0.883-3.221-1.754-4.814-2.677c-13.604-7.63-26.41-16.642-37.878-26.677   C36.078,398.585,7.486,311.828,19.627,223.022c1.458-10.689,3.549-20.584,6.211-29.399   C41.789,140.975,78.217,92.338,128.412,56.662c5.727-4.082,11.654-7.996,17.6-11.623c17.507-10.769,36.141-19.881,55.359-27.066   c0.918-0.448,1.887-0.807,2.893-1.067c24.697-8.956,49.472-14.416,73.66-16.231C283.891,0.228,289.891,0,295.756,0   c12.574,0,24.991,1.043,36.909,3.099c8.669,1.503,17.112,3.605,25.104,6.252c13.664,4.429,26.486,10.416,38.019,17.765   c6.984,4.46,13.585,9.47,19.638,14.899c18.996,17.117,34.248,40.293,44.132,67.048c1.571,4.182,3.023,8.564,4.409,13.315   c4.188,14.367,7.091,29.515,8.64,45.075c14.945,30.361,22.518,62.955,22.518,96.933c0,50.187-17.27,99.042-48.714,138.034   c-12.862,56.26-58.155,93.737-127.983,105.719c-10.868,1.874-22.203,3.079-33.674,3.582c-4.216,0.184-8.513,0.279-12.769,0.279   C271.983,512,271.982,512,271.981,512z"/>
	<g>
		<g>
			<path style="fill:#DBB0FF;" d="M455.695,237.145c-5.59,29.754-16.796,58.452-19.218,88.618     c-1.829,22.85,1.417,46.138-3.091,68.602c-11.85,59.096-61.44,87.82-116.234,97.223c-10.459,1.803-21.124,2.911-31.738,3.375     c-23.52,1.03-46.834-1.005-67.494-5.281c-12.365-2.576-24.602-5.925-36.529-10.124c-12.314-4.302-24.319-9.506-35.782-15.688     c-1.468-0.799-2.937-1.597-4.405-2.447c-12.623-7.084-24.525-15.38-35.447-24.937c-59.199-51.754-79.86-136.741-69.478-212.684     c1.236-9.068,3.04-18.239,5.693-27.023c15.946-52.63,52.295-97.249,96.733-128.832c5.384-3.838,10.949-7.522,16.693-11.026     c37.148-22.85,81.07-38.848,125.019-42.145c17.131-1.288,34.237-0.644,50.956,2.241c7.728,1.34,15.405,3.22,22.876,5.693     c12.159,3.941,23.855,9.3,34.572,16.127c6.208,3.967,12.108,8.424,17.621,13.37c18.213,16.41,31.429,37.817,39.955,60.899     c1.52,4.045,2.86,8.141,4.07,12.288C460.873,161.098,462.547,200.616,455.695,237.145z"/>
		</g>
		<g>
			<g>
				<g>
					<circle style="fill:#302945;" cx="276.45" cy="263.071" r="204.555"/>
				</g>
				<g>
					<g>
						<g>
							<g>
								<g>
									<g>
										<path style="fill:#F7EDE5;" d="M243.573,104.405c-85.444,19.371-138.536,107.549-118.368,196.51            c17.757,78.324,86.384,131.557,160.851,130.013l0.043-0.01c10.135-0.198,20.4-1.43,30.647-3.753            c4.949-1.122,9.797-2.495,14.508-4.065c2.045-0.646,4.026-1.369,5.998-2.136c15.388-5.817,29.458-14.028,41.883-24.057            c46.721-37.753,70.553-101.768,55.936-166.242C414.903,141.704,328.974,85.044,243.573,104.405z M406.342,363.487            c-0.369,0.586-0.782,1.182-1.215,1.69c-9.265,12.691-20.357,23.97-33.026,33.324            c-10.123,7.499-21.299,13.776-33.263,18.588l-0.043,0.01c-2.049,0.83-4.117,1.572-6.185,2.315            c-5.366,1.901-10.898,3.475-16.542,4.755c-9.161,2.077-18.345,3.246-27.436,3.618            c-74.075,2.871-142.878-49.729-160.517-127.532c-19.794-87.311,32.301-173.848,116.138-192.855            c2.692-0.61,5.36-1.124,8.038-1.594c1.322-0.209,2.601-0.407,3.88-0.606c79.751-11.461,157.176,42.927,176.035,126.114            C443.092,279.334,432.233,327.079,406.342,363.487z"/>
									</g>
								</g>
							</g>
						</g>
						<g>
							<g>
								<g>
									<g>
										<path style="fill:#F7EDE5;" d="M411.579,198.925c-0.321-0.612-0.994-0.962-1.602-0.824l-89.051,18.363L256.17,105.201            l-0.895-1.532c-0.311-0.568-0.921-0.841-1.539-0.747c-0.564,0.128-1.094,0.613-1.183,1.227l-0.263,1.657l-20.763,129.099            l-98.111,20.28c-0.691-0.026-1.127,0.666-1.153,1.357c-0.026,0.691,0.349,1.336,0.992,1.555l88.888,35.083            l-17.761,110.524c-0.123,0.667,0.208,1.322,0.785,1.648c0.566,0.283,1.237,0.222,1.723-0.254l84.548-84.536            l112.947,44.555c0.256,0.124,0.537,0.152,0.744,0.06c0.053,0.034,0.053,0.034,0.097,0.024            c0.347-0.079,0.632-0.234,0.843-0.511c0.235-0.373,0.363-0.813,0.275-1.203c0.004-0.184-0.089-0.391-0.171-0.555            l-57.795-99.283l62.925-62.927C411.787,200.247,411.9,199.537,411.579,198.925z M254.838,108.79l63.039,108.32            l-83.247,17.184L254.838,108.79z M139.065,257.146l91.926-18.969l-8.349,51.969L139.065,257.146z M208.025,399.638            l16.977-105.325l63.373,25.027L208.025,399.638z M225.491,291.234l8.636-53.723l85.394-17.579l25.12,43.149            l-53.924,53.902L225.491,291.234z M401.415,360.679l-107.636-42.473l52.444-52.38L401.415,360.679z M346.795,260.904            l-24.225-41.617l82.986-17.125L346.795,260.904z"/>
									</g>
								</g>
							</g>
						</g>
					</g>
				</g>
				<g>
					<g>
						<path style="fill:#977BFF;" d="M403.828,271.184c-5.925,19.063-61.827,16.436-61.827,16.436s61.827,77.618,42.763,89.469        c-19.089,11.824-82.874-41.45-82.874-41.45s-27.59,79.963-50.492,88.258c-0.489,0.18-0.979,0.335-1.468,0.438        c-1.34,0.309-2.654,0.361-3.967,0.103c-20.686-4.019-10.227-86.455-7.265-107.141c0-0.026,0-0.026,0-0.026        c0.232-1.649,0.412-2.859,0.541-3.658c0.103-0.67,0.155-1.005,0.155-1.005s-39.93,27.384-61.646,31.248        c-0.438,0.077-0.876,0.155-1.288,0.206c-6.208,0.876-10.717-0.412-12.03-5.126c-4.199-14.916,39.337-57.422,65.15-81.019        c0.051-0.051,0.103-0.077,0.129-0.129c1.984-1.829,3.864-3.504,5.59-5.075c-0.129-0.026-0.283-0.026-0.412-0.051        c-12.7-1.288-24.344-4.946-34.005-10.665c-0.026,0-0.026,0-0.052-0.026c-1.468-0.85-2.885-1.752-4.225-2.705        c-10.408-7.239-18.007-17.105-21.253-29.007c-4.74-17.286,0.541-35.55,12.881-50.93c1.082-1.391,2.267-2.782,3.529-4.122        c11.85-12.984,28.93-23.52,49.204-29.085c45.52-12.494,90.01,4.946,99.309,38.925c5.59,20.351-2.731,42.042-20.068,58.813        C349.291,234.087,408.31,256.757,403.828,271.184z"/>
					</g>
					<g>
						<g>
							<g>
								<g>
									<path style="fill:#302945;" d="M236.612,252.764c-10.588,10.33-20.789,21.227-30.372,32.459           c-7.78,9.12-16.616,20.094-23.159,32.434c-2.473,4.689-5.384,10.923-5.977,17.724c-0.283,2.962-0.052,5.848,0.644,8.475           c-0.438,0.077-0.876,0.155-1.288,0.206c-0.696-2.757-0.927-5.745-0.644-8.81c0.618-7.007,3.606-13.396,6.131-18.187           c6.595-12.469,15.483-23.52,23.314-32.665c7.754-9.094,15.895-17.981,24.319-26.483c0.051-0.051,0.103-0.077,0.129-0.129           c1.726-1.726,3.452-3.452,5.178-5.126c0.026-0.026,0.026-0.026,0.051-0.052           C235.452,252.687,236.019,252.739,236.612,252.764z"/>
								</g>
							</g>
							<g>
								<g>
									<path style="fill:#302945;" d="M251.398,423.896c-0.489,0.18-0.979,0.335-1.468,0.438c-0.541-0.541-1.031-1.108-1.52-1.726           c-3.555-4.457-5.307-9.918-6.415-14.194c-3.452-13.087-3.941-26.586-4.173-39.286c-0.258-17.208,0-34.623,0.876-51.831           c0-0.026,0-0.026,0-0.026c0.052-1.236,0.103-2.447,0.18-3.684l0.361,0.026l0.902,0.026           c-0.979,18.394-1.314,37.045-1.03,55.464c0.232,12.623,0.721,26.045,4.122,39.003c1.082,4.122,2.782,9.454,6.183,13.679           C250.033,422.556,250.703,423.278,251.398,423.896z"/>
								</g>
							</g>
						</g>
						<g>
							<g>
								<path style="fill:#302945;" d="M200.829,241.971c-1.468-0.85-2.885-1.752-4.225-2.705          c-4.405-5.101-8.038-10.923-10.691-17.312c-6.26-14.89-7.213-32.279-2.679-48.946c1.262-4.637,2.937-9.222,4.998-13.679          c1.082-1.391,2.267-2.782,3.529-4.122c-3.169,5.822-5.616,11.927-7.29,18.136c-4.457,16.41-3.503,33.49,2.628,48.122          C190.37,229.27,195.085,236.226,200.829,241.971z"/>
							</g>
						</g>
						<g>
							<path style="fill:#302945;" d="M235.305,252.721c0,0,47.315,2.112,84.9-28.848c0,0-22.598,31.525-46.605,32.512         C249.593,257.371,235.305,252.721,235.305,252.721z"/>
						</g>
						<g>
							<g>
								<g>
									<g>
										<g>
											
												<ellipse transform="matrix(0.2298 -0.9732 0.9732 0.2298 -24.4267 387.8481)" style="fill:#302945;" cx="232.82" cy="209.356" rx="20.609" ry="20.609"/>
										</g>
									</g>
									<g>
										<g>
											<g>
												
													<rect x="223.084" y="207.74" transform="matrix(0.3224 -0.9466 0.9466 0.3224 -40.0282 362.1375)" style="fill:#F7EDE5;" width="19.692" height="2.575"/>
											</g>
										</g>
										<g>
											<g>
												
													<rect x="231.641" y="199.182" transform="matrix(0.323 -0.9464 0.9464 0.323 -40.1272 361.9609)" style="fill:#F7EDE5;" width="2.578" height="19.691"/>
											</g>
										</g>
									</g>
								</g>
								<g>
									<g>
										<g>
											
												<ellipse transform="matrix(0.2298 -0.9732 0.9732 0.2298 52.312 430.8774)" style="fill:#302945;" cx="298.374" cy="182.389" rx="20.609" ry="20.609"/>
										</g>
									</g>
									<g>
										<g>
											<g>
												
													<rect x="288.638" y="180.773" transform="matrix(0.3224 -0.9466 0.9466 0.3224 29.9205 405.9182)" style="fill:#F7EDE5;" width="19.691" height="2.575"/>
											</g>
										</g>
										<g>
											<g>
												
													<rect x="297.195" y="172.215" transform="matrix(0.323 -0.9464 0.9464 0.323 29.7757 405.7444)" style="fill:#F7EDE5;" width="2.578" height="19.691"/>
											</g>
										</g>
									</g>
								</g>
								<g>
									<g>
										<path style="fill:#302945;" d="M262.955,220.465c-1.327,0-2.653-0.096-3.967-0.292c-0.528-0.08-0.892-0.571-0.814-1.099            c0.078-0.526,0.576-0.891,1.098-0.813c10.313,1.54,21.374-3.555,26.91-12.388c0.284-0.45,0.879-0.589,1.332-0.304            c0.452,0.282,0.589,0.878,0.306,1.331C282.594,215.235,272.772,220.465,262.955,220.465z"/>
									</g>
									<g>
										<path style="fill:#302945;" d="M271.369,224.807c-0.388,0-0.754-0.234-0.901-0.619c-1.497-3.874-2.708-7.902-3.599-11.975            c-0.115-0.521,0.215-1.036,0.737-1.15c0.511-0.118,1.036,0.211,1.15,0.737c0.87,3.975,2.053,7.91,3.513,11.693            c0.192,0.496-0.055,1.057-0.552,1.248C271.603,224.787,271.485,224.807,271.369,224.807z"/>
									</g>
									<g>
										<path style="fill:#302945;" d="M283.148,218.465c-0.409,0-0.789-0.262-0.919-0.672c-1.074-3.343-2.833-6.536-5.086-9.233            c-0.342-0.408-0.288-1.019,0.121-1.361c0.409-0.345,1.018-0.287,1.361,0.123c2.413,2.883,4.294,6.302,5.443,9.882            c0.164,0.508-0.116,1.052-0.624,1.215C283.345,218.45,283.246,218.465,283.148,218.465z"/>
									</g>
								</g>
							</g>
							<g>
								<g>
									<path style="fill:#302945;" d="M270.64,314.244c-0.126,0-0.253-0.025-0.375-0.075c-0.492-0.206-0.722-0.772-0.516-1.265           l20.062-47.686c0.209-0.493,0.78-0.714,1.265-0.516c0.492,0.206,0.722,0.772,0.516,1.265l-20.062,47.686           C271.374,314.023,271.016,314.244,270.64,314.244z"/>
								</g>
								<g>
									<path style="fill:#302945;" d="M300.567,309.311c-0.23,0-0.459-0.081-0.644-0.246c-0.397-0.355-0.431-0.966-0.075-1.364           l30.584-34.202c0.354-0.4,0.965-0.433,1.364-0.075c0.397,0.355,0.431,0.966,0.075,1.363l-30.584,34.202           C301.096,309.203,300.832,309.311,300.567,309.311z"/>
								</g>
								<g>
									<path style="fill:#302945;" d="M307.143,276.752c-0.179,0-0.36-0.05-0.521-0.154c-0.449-0.289-0.579-0.885-0.29-1.336           l23.678-36.833c0.288-0.448,0.887-0.576,1.335-0.289c0.449,0.289,0.579,0.885,0.291,1.336l-23.678,36.833           C307.772,276.596,307.461,276.752,307.143,276.752z"/>
								</g>
								<g>
									<circle style="fill:#F7EDE5;" cx="331.316" cy="239.447" r="9.373"/>
								</g>
								<g>
									<circle style="fill:#F7EDE5;" cx="331.316" cy="273.321" r="9.373"/>
								</g>
								<g>
									<circle style="fill:#F7EDE5;" cx="290.536" cy="263.784" r="9.373"/>
								</g>
							</g>
						</g>
					</g>
				</g>
			</g>
			<g>
				<g>
					<g>
						<path style="fill:#9DD1A9;" d="M282.828,447.242c2.415-8.073,2.614-16.622,4.038-24.928        c2.022-11.794,6.592-23.134,13.245-33.077c3.677-5.497,12.193-3.373,12.888,3.204c0.879,8.328-0.877,17.052-4.53,24.71        C302.678,429.288,292.938,438.375,282.828,447.242z"/>
					</g>
					<g>
						<path style="fill:#9DD1A9;" d="M320.292,423.274c4.33-8.46,6.298-17.901,9.576-26.821c4.942-13.45,12.97-25.746,23.231-35.748        c4.435-4.323,12.041-1.349,12.009,4.844c-0.055,10.459-3.967,20.996-10.206,29.595        C345.993,407.42,333.325,415.506,320.292,423.274z"/>
					</g>
					<g>
						<path style="fill:#9DD1A9;" d="M335.156,425.026c7.233-6.165,12.658-14.138,19.094-21.13        c9.704-10.543,21.82-18.84,35.123-24.165c5.75-2.301,11.644,3.352,9.248,9.063c-4.045,9.645-11.685,17.889-20.736,23.453        C364.964,420.191,350.169,422.825,335.156,425.026z"/>
					</g>
					<g>
						<path style="fill:#9DD1A9;" d="M306.553,446.212c9.502,0.177,18.849-2.198,28.303-3.168        c14.255-1.463,28.826,0.353,42.317,5.183c5.831,2.087,6.497,10.227,0.919,12.916c-9.421,4.541-20.606,5.651-31.072,3.819        C332.078,462.347,319.253,454.514,306.553,446.212z"/>
					</g>
					<g>
						<g>
							<path style="fill:#302945;" d="M383.649,395.418c-0.278-0.399-0.825-0.495-1.225-0.218         c-25.73,17.941-54.503,33.107-77.832,44.167c20.399-19.499,37.207-42.13,49.988-67.349c0.22-0.433,0.046-0.962-0.387-1.182         c-0.434-0.218-0.964-0.046-1.182,0.388c-13.406,26.449-31.267,50.04-53.086,70.117c-0.098,0.09-0.166,0.2-0.213,0.315         c-6.225,2.895-11.973,5.462-17.092,7.685c8.882-14.041,16.285-29.048,21.987-44.654c0.167-0.457-0.068-0.962-0.525-1.129         c-0.458-0.168-0.961,0.069-1.128,0.524c-5.883,16.107-13.577,31.579-22.865,45.99c-0.084,0.13-0.116,0.274-0.125,0.418         c-12.886,5.535-21.094,8.606-21.328,8.693c-0.456,0.168-0.688,0.675-0.519,1.131c0.131,0.356,0.467,0.574,0.825,0.574         c0.101,0,0.205-0.017,0.306-0.055c0.312-0.116,14.665-5.491,35.356-14.895c14.253,1.445,28.465,4.167,42.242,8.094         c0.081,0.024,0.162,0.034,0.242,0.034c0.382,0,0.734-0.253,0.845-0.639c0.133-0.467-0.137-0.954-0.605-1.086         c-12.933-3.687-26.246-6.305-39.618-7.823c24.542-11.291,57.009-27.857,85.72-47.876         C383.829,396.365,383.926,395.817,383.649,395.418z"/>
						</g>
						<g style="opacity:0.28;">
							<path style="fill:#977BFF;" d="M383.649,395.418c-0.278-0.399-0.825-0.495-1.225-0.218         c-25.73,17.941-54.503,33.107-77.832,44.167c20.399-19.499,37.207-42.13,49.988-67.349c0.22-0.433,0.046-0.962-0.387-1.182         c-0.434-0.218-0.964-0.046-1.182,0.388c-13.406,26.449-31.267,50.04-53.086,70.117c-0.098,0.09-0.166,0.2-0.213,0.315         c-6.225,2.895-11.973,5.462-17.092,7.685c8.882-14.041,16.285-29.048,21.987-44.654c0.167-0.457-0.068-0.962-0.525-1.129         c-0.458-0.168-0.961,0.069-1.128,0.524c-5.883,16.107-13.577,31.579-22.865,45.99c-0.084,0.13-0.116,0.274-0.125,0.418         c-12.886,5.535-21.094,8.606-21.328,8.693c-0.456,0.168-0.688,0.675-0.519,1.131c0.131,0.356,0.467,0.574,0.825,0.574         c0.101,0,0.205-0.017,0.306-0.055c0.312-0.116,14.665-5.491,35.356-14.895c14.253,1.445,28.465,4.167,42.242,8.094         c0.081,0.024,0.162,0.034,0.242,0.034c0.382,0,0.734-0.253,0.845-0.639c0.133-0.467-0.137-0.954-0.605-1.086         c-12.933-3.687-26.246-6.305-39.618-7.823c24.542-11.291,57.009-27.857,85.72-47.876         C383.829,396.365,383.926,395.817,383.649,395.418z"/>
						</g>
					</g>
				</g>
				<g>
					<g>
						<path style="fill:#9DD1A9;" d="M387.231,163.472c-7.753-3.301-16.226-4.455-24.32-6.797        c-11.494-3.326-22.252-9.136-31.39-16.857c-5.052-4.268-1.99-12.493,4.623-12.449c8.374,0.057,16.848,2.776,24.049,7.262        C371.606,141.741,379.548,152.435,387.231,163.472z"/>
					</g>
					<g>
						<path style="fill:#9DD1A9;" d="M367.598,123.565c-7.924-5.248-17.085-8.259-25.584-12.512        c-12.814-6.413-24.135-15.765-32.929-27.079c-3.801-4.89,0.004-12.117,6.155-11.393c10.387,1.223,20.421,6.287,28.27,13.448        C354.714,96.254,361.335,109.745,367.598,123.565z"/>
					</g>
					<g>
						<path style="fill:#9DD1A9;" d="M370.999,108.99c-5.318-7.877-12.635-14.158-18.865-21.335        c-9.393-10.822-16.284-23.788-20.09-37.603c-1.645-5.971,4.632-11.196,10.04-8.178c9.133,5.097,16.471,13.61,20.99,23.226        C369.524,78.828,370.49,93.825,370.999,108.99z"/>
					</g>
					<g>
						<path style="fill:#9DD1A9;" d="M388.857,139.781c1.238-9.423-0.078-18.976,0.013-28.479        c0.138-14.329,3.572-28.606,9.878-41.473c2.726-5.561,10.889-5.314,12.938,0.53c3.461,9.87,3.314,21.108,0.324,31.304        C407.743,116.217,398.526,128.088,388.857,139.781z"/>
					</g>
					<g>
						<g>
							<path style="fill:#302945;" d="M346.994,57.493c-0.427,0.232-0.584,0.764-0.354,1.193         c14.954,27.573,26.811,57.86,35.195,82.279c-17.098-22.45-37.71-41.68-61.343-57.199c-0.406-0.267-0.951-0.154-1.218,0.252         c-0.265,0.407-0.154,0.953,0.254,1.218c24.785,16.276,46.234,36.661,63.748,60.586c0.079,0.108,0.18,0.187,0.29,0.247         c2.181,6.509,4.09,12.508,5.727,17.844c-12.961-10.395-27.047-19.428-41.918-26.838c-0.435-0.217-0.964-0.04-1.18,0.396         c-0.219,0.436-0.039,0.962,0.395,1.179c15.349,7.646,29.865,17.019,43.148,27.86c0.12,0.098,0.259,0.146,0.402,0.171         c4.06,13.424,6.196,21.923,6.256,22.166c0.116,0.472,0.594,0.759,1.066,0.642c0.368-0.091,0.622-0.4,0.662-0.756         c0.011-0.101,0.006-0.206-0.021-0.31c-0.08-0.323-3.819-15.187-10.852-36.799c3.029-14.002,7.321-27.822,12.762-41.074         c0.033-0.078,0.052-0.158,0.061-0.237c0.043-0.38-0.169-0.758-0.541-0.911c-0.45-0.185-0.963,0.03-1.147,0.48         c-5.109,12.44-9.198,25.377-12.2,38.496c-8.478-25.65-21.314-59.764-38-90.532C347.955,57.42,347.421,57.262,346.994,57.493z         "/>
						</g>
						<g style="opacity:0.28;">
							<path style="fill:#977BFF;" d="M346.994,57.493c-0.427,0.232-0.584,0.764-0.354,1.193         c14.954,27.573,26.811,57.86,35.195,82.279c-17.098-22.45-37.71-41.68-61.343-57.199c-0.406-0.267-0.951-0.154-1.218,0.252         c-0.265,0.407-0.154,0.953,0.254,1.218c24.785,16.276,46.234,36.661,63.748,60.586c0.079,0.108,0.18,0.187,0.29,0.247         c2.181,6.509,4.09,12.508,5.727,17.844c-12.961-10.395-27.047-19.428-41.918-26.838c-0.435-0.217-0.964-0.04-1.18,0.396         c-0.219,0.436-0.039,0.962,0.395,1.179c15.349,7.646,29.865,17.019,43.148,27.86c0.12,0.098,0.259,0.146,0.402,0.171         c4.06,13.424,6.196,21.923,6.256,22.166c0.116,0.472,0.594,0.759,1.066,0.642c0.368-0.091,0.622-0.4,0.662-0.756         c0.011-0.101,0.006-0.206-0.021-0.31c-0.08-0.323-3.819-15.187-10.852-36.799c3.029-14.002,7.321-27.822,12.762-41.074         c0.033-0.078,0.052-0.158,0.061-0.237c0.043-0.38-0.169-0.758-0.541-0.911c-0.45-0.185-0.963,0.03-1.147,0.48         c-5.109,12.44-9.198,25.377-12.2,38.496c-8.478-25.65-21.314-59.764-38-90.532C347.955,57.42,347.421,57.262,346.994,57.493z         "/>
						</g>
					</g>
				</g>
				<g>
					<g>
						<path style="fill:#9DD1A9;" d="M133.298,179.37c1.844,8.223,5.853,15.776,8.675,23.716        c4.007,11.275,5.569,23.401,4.633,35.328c-0.518,6.593-8.983,8.908-12.807,3.512c-4.842-6.833-7.579-15.301-8.139-23.766        C124.771,204.74,128.82,192.05,133.298,179.37z"/>
					</g>
					<g>
						<path style="fill:#9DD1A9;" d="M112.352,218.603c0.363,9.497,3.266,18.693,4.772,28.077        c2.271,14.148,1.286,28.799-2.769,42.543c-1.752,5.94-9.841,7.068-12.843,1.651c-5.07-9.148-6.813-20.251-5.579-30.804        C97.694,245.005,104.786,231.755,112.352,218.603z"/>
					</g>
					<g>
						<path style="fill:#9DD1A9;" d="M98.531,224.348c-3.292,8.916-4.122,18.523-6.314,27.771        c-3.305,13.943-9.812,27.107-18.809,38.26c-3.888,4.82-11.795,2.774-12.5-3.379c-1.191-10.391,1.438-21.318,6.609-30.6        C74.901,243.15,86.515,233.613,98.531,224.348z"/>
					</g>
					<g>
						<path style="fill:#9DD1A9;" d="M113.111,191.876c-8.374,4.495-15.363,11.139-23.133,16.611        c-11.716,8.251-25.313,13.796-39.442,16.185c-6.106,1.033-10.67-5.74-7.121-10.815c5.995-8.57,15.206-15.01,25.23-18.533        C82.955,190.294,97.973,190.85,113.111,191.876z"/>
					</g>
					<g>
						<g>
							<path style="fill:#302945;" d="M70.726,273.896c0.438,0.211,0.961,0.028,1.175-0.409         c13.662-28.236,31.335-55.541,46.269-76.6c-8.25,26.986-11.836,54.947-10.643,83.195c0.02,0.485,0.43,0.862,0.916,0.842         c0.485-0.022,0.863-0.431,0.841-0.917c-1.249-29.626,2.785-58.939,11.99-87.125c0.042-0.127,0.047-0.255,0.031-0.379         c4.012-5.57,7.769-10.621,11.147-15.065c-0.876,16.592,0.01,33.302,2.673,49.702c0.078,0.48,0.53,0.806,1.01,0.728         c0.482-0.077,0.804-0.53,0.727-1.009c-2.75-16.926-3.611-34.184-2.561-51.297c0.009-0.155-0.033-0.296-0.095-0.426         c8.53-11.132,14.185-17.826,14.348-18.017c0.315-0.37,0.27-0.926-0.101-1.24c-0.289-0.246-0.688-0.272-1-0.097         c-0.088,0.05-0.171,0.115-0.24,0.198c-0.216,0.254-10.103,11.965-23.547,30.289c-13.138,5.713-26.864,10.294-40.801,13.61         c-0.082,0.019-0.158,0.049-0.228,0.089c-0.333,0.187-0.517,0.58-0.424,0.971c0.113,0.473,0.586,0.764,1.059,0.651         c13.083-3.112,25.975-7.343,38.38-12.561c-15.879,21.855-36.089,52.188-51.334,83.696         C70.106,273.159,70.289,273.684,70.726,273.896z"/>
						</g>
						<g style="opacity:0.28;">
							<path style="fill:#977BFF;" d="M70.726,273.896c0.438,0.211,0.961,0.028,1.175-0.409         c13.662-28.236,31.335-55.541,46.269-76.6c-8.25,26.986-11.836,54.947-10.643,83.195c0.02,0.485,0.43,0.862,0.916,0.842         c0.485-0.022,0.863-0.431,0.841-0.917c-1.249-29.626,2.785-58.939,11.99-87.125c0.042-0.127,0.047-0.255,0.031-0.379         c4.012-5.57,7.769-10.621,11.147-15.065c-0.876,16.592,0.01,33.302,2.673,49.702c0.078,0.48,0.53,0.806,1.01,0.728         c0.482-0.077,0.804-0.53,0.727-1.009c-2.75-16.926-3.611-34.184-2.561-51.297c0.009-0.155-0.033-0.296-0.095-0.426         c8.53-11.132,14.185-17.826,14.348-18.017c0.315-0.37,0.27-0.926-0.101-1.24c-0.289-0.246-0.688-0.272-1-0.097         c-0.088,0.05-0.171,0.115-0.24,0.198c-0.216,0.254-10.103,11.965-23.547,30.289c-13.138,5.713-26.864,10.294-40.801,13.61         c-0.082,0.019-0.158,0.049-0.228,0.089c-0.333,0.187-0.517,0.58-0.424,0.971c0.113,0.473,0.586,0.764,1.059,0.651         c13.083-3.112,25.975-7.343,38.38-12.561c-15.879,21.855-36.089,52.188-51.334,83.696         C70.106,273.159,70.289,273.684,70.726,273.896z"/>
						</g>
					</g>
				</g>
			</g>
			<g>
				<g>
					<g>
						<g>
							<g>
								<polygon style="fill:#FFFFFF;" points="206.731,74.422 209.422,30.478 211.514,74.721 222.575,65.753 215.998,76.216           239.615,79.205 216.596,82.195 223.173,91.462 212.112,85.483 209.122,123.747 206.731,86.081 195.371,90.864           202.546,82.195 173.847,78.308 202.247,77.112 195.67,67.247         "/>
							</g>
						</g>
					</g>
				</g>
				<g>
					<g>
						<g>
							<g>
								<polygon style="fill:#FFFFFF;" points="123.418,385.749 126.109,341.804 128.202,386.048 139.262,377.08 132.686,387.543           156.302,390.532 133.283,393.521 139.86,402.789 128.799,396.81 125.81,435.074 123.418,397.408 112.059,402.191           119.233,393.521 90.535,389.635 118.934,388.439 112.357,378.574         "/>
							</g>
						</g>
					</g>
				</g>
				<g>
					<g>
						<g>
							<g>
								<polygon style="fill:#FFFFFF;" points="438.851,248.78 441.541,204.836 443.634,249.079 454.695,240.111 448.118,250.574           471.735,253.563 448.716,256.553 455.293,265.82 444.232,259.841 441.242,298.106 438.851,260.439 427.491,265.222           434.666,256.553 405.967,252.667 434.367,251.471 427.79,241.606         "/>
							</g>
						</g>
					</g>
				</g>
			</g>
			<g>
				<g>
					<path style="fill:#FFFFFF;" d="M129.1,149.679l-12.805,4.602c-0.38,0.137-0.679,0.435-0.815,0.815l-4.602,12.805       c-0.428,1.193-2.116,1.193-2.545,0l-4.602-12.805c-0.136-0.38-0.435-0.679-0.815-0.815l-12.805-4.602       c-1.193-0.429-1.193-2.116,0-2.545l12.805-4.602c0.38-0.137,0.679-0.435,0.815-0.815l4.602-12.805       c0.429-1.193,2.117-1.193,2.545,0l4.602,12.805c0.137,0.38,0.435,0.679,0.815,0.815l12.805,4.602       C130.293,147.562,130.293,149.25,129.1,149.679z"/>
				</g>
				<g>
					<path style="fill:#FFFFFF;" d="M260.382,457.385l-12.805,4.602c-0.38,0.137-0.679,0.435-0.815,0.815l-4.602,12.805       c-0.428,1.193-2.116,1.193-2.545,0l-4.602-12.805c-0.137-0.38-0.435-0.679-0.815-0.815l-12.805-4.602       c-1.193-0.429-1.193-2.116,0-2.545l12.805-4.602c0.38-0.137,0.679-0.435,0.815-0.815l4.602-12.805       c0.429-1.193,2.117-1.193,2.545,0l4.602,12.805c0.137,0.38,0.435,0.679,0.815,0.815l12.805,4.602       C261.575,455.269,261.575,456.957,260.382,457.385z"/>
				</g>
			</g>
		</g>
	</g>
</g>















</svg>
