<?xml version="1.0" encoding="iso-8859-1"?>
<!-- Generator: Adobe Illustrator 26.5.3, SVG Export Plug-In . SVG Version: 6.00 Build 0)  -->
<svg xmlns="http://www.w3.org/2000/svg" xmlns:xlink="http://www.w3.org/1999/xlink" version="1.1" id="Capa_1" x="0px" y="0px" viewBox="0 0 512 512" style="enable-background:new 0 0 512 512;" xml:space="preserve">
<g>
	<g>
		<g>
			<path d="M317.309,324.42c1.421-5.914,2.986-11.823,4.869-17.645c2.885-8.918,6.471-17.529,13.098-24.359     c6.706-6.911,14.775-11.009,24.759-9.861c5.848,0.673,9.957,4.118,12.856,8.993c2.596,4.367,3.813,9.18,3.988,14.295     c0.458,13.381-2.928,26.104-6.468,38.807c-2.912,10.451-5.83,20.904-7.318,31.679c-0.745,5.389-1.037,10.8,0.275,16.166     c1.733,7.087,5.534,8.529,11.523,4.358c5.672-3.95,9.192-9.659,12.416-15.543c4.15-7.574,7.021-15.671,9.297-23.987     c0.268-0.98,0.277-1.923,0.056-2.915c-2.051-9.197-2.602-18.567-2.507-27.924c0.15-14.806,1.771-29.503,4.511-44.064     c0.117-0.622,0.271-1.239,0.429-1.853c1.129-4.382,2.334-5.341,6.822-5.145c2.695,0.118,5.338-0.333,8.008-0.475     c4.72-0.251,6.425,1.577,5.468,6.24c-1.149,5.597-1.95,11.237-2.641,16.899c-1.483,12.158-3.288,24.31-3.414,36.565     c-0.103,10.055,0.32,20.151,3.859,29.799c0.981,2.673,2.587,4.823,4.707,6.638c1.792,1.534,4.67,1.354,7.014-0.42     c2.586-1.957,4.445-4.558,5.903-7.372c4.582-8.842,7.394-18.101,7.922-28.211c0.924-17.677,0.709-35.348,0.692-53.026     c-0.001-1.336-0.077-2.679,0.283-3.993c0.513-1.873,1.685-3.247,3.601-3.428c5.12-0.484,10.152-1.689,15.307-1.83     c3.632-0.099,4.845,0.772,5.672,4.273c2.469,10.448,2.673,21.074,2.22,31.722c-0.349,8.226-1.05,16.431-1.913,24.624     c-2.359,22.378-5.79,44.55-12.336,66.144c-1.778,5.864-3.407,11.774-5.512,17.535c-0.825,2.256-0.727,2.399,1.654,2.351     c12.219-0.245,24.363,0.397,36.342,3.028c5.856,1.286,11.617,2.915,17.251,4.956c5.722,2.073,7.307,5.716,4.944,11.29     c-1.546,3.647-3.587,7.025-6.1,10.097c-1.602,1.959-3.397,2.473-5.611,1.217c-14.207-8.054-30.011-10.219-45.776-12.534     c-2.784-0.409-5.618-0.514-8.384-1.006c-1.712-0.304-2.397,0.37-3.001,1.792c-3.673,8.643-8.063,16.938-13.146,24.811     c-12.234,18.948-27.893,34.195-48.445,44.077c-9.245,4.445-18.618,8.467-28.85,9.928c-13.333,1.904-26.577,1.847-39.366-3.07     c-6.826-2.625-12.529-6.743-15.686-13.657c-1.15-2.519-1.826-5.189-1.921-7.965c-0.422-12.404,4.178-22.626,13.381-30.883     c6.947-6.233,15.091-10.564,23.257-14.872c14.643-7.725,29.926-13.807,46.032-17.707c11.644-2.819,23.415-4.99,35.329-6.308     c3.565-0.395,7.174-0.041,10.751-0.6c1.853-0.289,2.812-1.075,3.38-2.867c4.345-13.717,7.791-27.656,10.548-41.772     c0.131-0.67,0.315-1.341,0.043-2.046c-0.906,0.151-1.127,0.909-1.57,1.408c-4.115,4.639-8.812,8.077-15.42,7.9     c-4.342-0.117-7.829-2.068-10.978-4.813c-3.456-3.012-5.852-6.823-7.991-10.816c-0.259-0.482-0.527-0.959-0.899-1.634     c-1.184,1.605-1.527,3.342-2.052,4.963c-2.682,8.28-5.984,16.293-10.775,23.575c-4.402,6.691-9.804,12.412-17.627,15.155     c-9.552,3.349-18.77,0.336-24.541-7.981c-5.769-8.313-7.515-17.683-6.687-27.564c1.15-13.719,5.66-26.694,9.253-39.862     c2.633-9.648,5.582-19.217,7.159-29.118c0.453-2.848,0.644-5.765-0.184-8.596c-1.088-3.722-3.954-5.05-7.576-3.635     c-3.386,1.323-6.033,3.637-8.24,6.422c-2.853,3.601-5.228,7.524-6.97,11.789c-5.407,13.24-8.855,27.026-11.265,41.085     c-1.583,9.232-2.407,18.579-4.115,27.795c-0.377,2.034-1.102,3.93-1.877,5.817c-0.754,1.837-2.335,2.554-4.174,2.795     c-1.536,0.202-3.082,0.324-4.622,0.497c-4.138,0.465-4.97,0.028-6.871-3.794c-1.892,5.305-3.947,10.378-6.288,15.327     c-3.862,8.165-8.618,15.722-15.776,21.421c-8.609,6.855-19.852,6.235-27.976-1.235c-6.837-6.287-10.09-14.324-11.31-23.268     c-1.587-11.63,0.797-22.848,4.025-33.937c2.702-9.285,6.515-18.161,9.986-27.163c2.559-6.637,5.252-13.229,6.405-20.314     c0.262-1.612,0.364-3.22,0.307-4.84c-0.148-4.209-2.278-5.686-6.319-4.323c-3.355,1.132-6.053,3.275-8.441,5.82     c-5.344,5.696-8.801,12.535-11.787,19.645c-4.937,11.76-8.211,24.002-9.88,36.616c-1.174,8.871-2.984,17.632-4.106,26.505     c-0.373,2.948-1.45,4.073-4.319,4.699c-1.307,0.285-2.627,0.522-3.952,0.705c-4.798,0.663-8.111-1.884-8.725-6.688     c-0.822-6.431-1.329-12.883-1.306-19.372c0.005-1.477,0.034-2.958-0.532-4.947c-0.552,1.847-0.989,3.243-1.387,4.65     c-3.77,13.314-8.244,26.357-14.877,38.564c-1.824,3.356-3.998,6.459-6.795,9.108c-6.285,5.953-13.586,5.261-18.631-1.731     c-3.788-5.249-5.346-11.278-6.325-17.517c-1.486-9.468-0.999-18.958-0.192-28.444c0.25-2.941,0.57-5.875,0.865-8.887     c-0.556-0.031-0.566,0.489-0.698,0.785c-3.555,8.011-7.872,15.599-12.886,22.774c-2.313,3.309-5.159,6.152-8.755,8.125     c-5.614,3.08-11.288,1.909-15.232-3.15c-4.283-5.494-5.754-12.019-6.607-18.701c-1.38-10.801-0.351-21.517,1.636-32.154     c2.019-10.808,4.436-21.525,7.935-31.969c0.291-0.868,0.644-1.714,0.966-2.571c1.205-3.202,3.341-5.046,6.923-5.216     c4.712-0.224,9.415-0.678,14.14-0.551c3.267,0.088,4.183,1.004,4.014,4.247c-0.193,3.723-2.005,7.018-2.979,10.537     c-4.602,16.625-9.96,33.049-13.263,50.02c-0.814,4.182-0.921,8.401-0.645,12.628c0.114,1.74,0.208,3.877,1.985,4.622     c1.811,0.759,3.052-1.057,4.243-2.158c2.554-2.359,4.49-5.22,6.227-8.223c7.62-13.17,13.417-27.153,18.108-41.579     c2.152-6.618,3.056-13.603,5.188-20.255c0.861-2.687,1.815-5.335,3.075-7.864c0.94-1.887,2.413-2.856,4.573-2.761     c3.657,0.161,7.326-0.145,10.977,0.306c3.014,0.373,4.18,1.824,3.721,4.897c-0.854,5.717-2.027,11.374-3.619,16.932     c-5.906,20.625-10.231,41.567-12.724,62.881c-0.884,7.559-1.671,15.122-0.346,22.708c0.309,1.77,0.3,4.103,2.268,4.67     c2.108,0.607,3.358-1.452,4.493-2.912c4.951-6.366,7.89-13.769,10.797-21.195c5.273-13.471,9.235-27.353,13.119-41.263     c0.725-2.597,0.733-5.288,0.827-7.962c0.367-10.413,1.118-20.801,2.119-31.169c0.354-3.669,1.496-4.806,5.217-5.084     c3.929-0.294,7.881-0.327,11.824-0.381c1.907-0.026,2.792,1.334,2.976,2.983c0.186,1.666,0.084,3.375-0.006,5.059     c-0.396,7.378-0.84,14.754-1.255,22.132c-0.164,2.928-0.297,5.857-0.298,8.816c1.665-5.458,3.371-10.884,5.653-16.1     c4.23-9.671,9.693-18.464,18.201-25.021c3.962-3.054,8.302-5.299,13.357-5.922c6.92-0.854,12.654,2.077,15.964,8.243     c3.168,5.9,4.011,12.253,3.547,18.843c-0.664,9.432-3.287,18.418-6.239,27.329c-3.856,11.638-7.725,23.278-9.733,35.417     c-1.282,7.75-2.058,15.518,0.424,23.217c0.481,1.491,1.166,2.872,2.044,4.155c2.573,3.758,6.355,4.588,10.309,2.275     c3.74-2.188,6.429-5.435,8.917-8.879c6.211-8.598,9.662-18.408,12.496-28.488c0.953-3.391,1.93-6.776,2.83-10.181     c1.033-3.907-0.062-7.837,0.018-11.757c0.023-1.12-0.205-2.244-0.223-3.368c-0.142-9.015-0.187-18.032-0.406-27.045     c-0.227-9.361-0.657-18.716-0.917-28.076c-0.136-4.893,0.865-6.157,5.601-7.534c2.714-0.789,5.475-1.314,8.325-1.263     c3.942,0.07,5.683,1.432,6.306,5.36c0.396,2.495,0.52,5.038,0.67,7.565C317.802,304.064,317.551,314.203,317.309,324.42z      M331.86,500.439c3.754,0.044,7.457-0.407,11.121-1.135c17.302-3.441,31.798-12.225,44.835-23.72     c6.72-5.925,11.782-13.237,16.776-20.577c5.871-8.628,11.395-17.462,15.234-27.234c0.925-2.355,0.871-2.449-1.689-2.464     c-9.52-0.054-18.993,0.765-28.423,1.903c-14.389,1.737-28.398,5.049-41.807,10.731c-12.651,5.361-24.796,11.552-34.845,21.128     c-6.171,5.88-10.823,12.453-9.927,21.799c0.658,6.865,3.594,11.817,9.596,15.102C318.709,499.244,325.167,500.314,331.86,500.439     z"/>
			<path d="M78.199,175.271c10.104-0.178,18.886,1.715,26.815,6.413c11.503,6.814,17.913,17.317,20.237,30.277     c2.451,13.67,0.156,26.914-4.454,39.843c-2.463,6.908-5.102,13.742-9.259,19.862c-0.712,1.048-1.47,2.068-2.252,3.065     c-2.422,3.084-5.155,4.939-9.538,4.521c-5.173-0.494-10.411-0.344-15.535-1.462c-0.825-0.18-1.657-0.355-2.453-0.629     c-3.177-1.092-3.682-3.399-1.205-5.639c2.507-2.267,5.1-4.437,7.609-6.701c9.549-8.617,17.596-18.294,21.239-30.944     c3.428-11.904,3.938-23.701-1.54-35.259c-3.754-7.921-11.285-12.706-18.811-11.554c-5.34,0.817-10.41,2.638-15.041,5.39     c-16.204,9.632-25.954,23.988-29.609,42.296c-2.927,14.659-0.709,29.017,4.152,43.036c5.287,15.249,13.608,28.881,22.372,42.287     c9.062,13.861,18.091,27.742,24.22,43.247c2.923,7.393,4.977,15.024,5.034,22.994c0.071,9.832-2.362,19.159-7.219,27.712     c-9.239,16.27-23.355,26.154-41.477,29.972c-9.592,2.021-19.345,1.362-28.257-3.274C4.09,430.767-4.358,409.809,2.193,389.211     c0.94-2.956,1.951-5.883,3.482-8.603c1.478-2.626,3.782-3.847,6.687-3.484c4.209,0.526,8.448,0.099,12.651,0.651     c2.227,0.292,4.494,0.273,6.738,0.452c3.041,0.243,4.424,2.027,3.695,5c-0.518,2.114-1.283,4.174-2.034,6.222     c-2.2,6.001-3.723,12.115-3.38,18.578c0.497,9.377,4.433,16.918,12.572,21.692c8.314,4.877,16.816,4.158,25.152-0.404     c13.044-7.138,16.81-18.7,15.773-32.642c-1.123-15.097-7.845-27.715-17.132-39.247c-6.901-8.569-14.398-16.595-22.006-24.527     c-8.403-8.759-16.366-17.869-22.421-28.477c-5.454-9.556-8.492-19.927-10.157-30.726c-1.073-6.96-1.997-13.954-1.712-21.024     c0.559-13.866,3.072-27.206,9.817-39.604c3.721-6.839,7.408-13.643,12.958-19.173c10.52-10.483,23.409-16.127,37.993-18.206     C73.604,175.302,76.342,175.282,78.199,175.271z"/>
		</g>
		<path d="M277.089,444.616c-0.056,4.376-1.822,7.876-4.315,11.012c-1.8,2.264-4.043,4.127-6.444,5.745    c-1.893,1.276-2.664,1.046-3.471-1.115c-0.956-2.561-1.605-5.208-3.618-7.284c-4.052-4.178-9.078-5.993-14.729-6.49    c-13.467-1.182-26.308,1.91-38.999,5.822c-12.467,3.843-24.273,9.455-36.517,13.901c-11.39,4.136-22.84,8.096-34.868,10.014    c-8.343,1.33-16.676,1.841-24.849-1.002c-5.871-2.043-10.821-5.178-12.841-11.522c-1.432-4.496-1.061-8.748,1.852-12.624    c1.696-2.256,3.484-4.448,5.623-6.28c2.886-2.472,5.411-1.709,6.585,1.876c1.015,3.101,3.151,5.358,5.715,7.124    c7.392,5.095,15.644,6.82,24.517,5.825c16.029-1.797,31.099-7.157,46.191-12.43c14.286-4.991,28.29-10.829,42.982-14.603    c7.778-1.998,15.66-3.665,23.75-3.507c6.092,0.12,12.128,0.843,17.296,4.553C274.764,436.368,277.072,439.99,277.089,444.616z"/>
	</g>
	<g>
		<path d="M308.251,235.755c0.259,3.443,0.534,6.885,0.768,10.329c0.093,1.358,0.154,2.834-1.475,3.358    c-1.692,0.544-2.696-0.544-3.293-1.923c-1.902-4.392-3.687-8.836-5.601-13.223c-1.441-3.304-3.208-6.436-5.636-9.135    c-2.3-2.557-4.007-2.427-5.835,0.485c-1.395,2.222-2.229,4.698-2.962,7.209c-2.615,8.962-3.926,18.16-5.027,27.4    c-0.291,2.445-0.738,4.872-1.152,7.301c-0.093,0.545-0.231,1.148-0.549,1.575c-0.62,0.831-1.29,1.822-2.514,1.624    c-1.195-0.194-1.462-1.333-1.556-2.277c-0.328-3.292-0.695-6.596-0.733-9.899c-0.074-6.479-0.133-12.955-0.718-19.411    c-0.331-3.653-0.927-7.262-2.171-10.738c-0.578-1.616-1.36-3.082-2.68-4.233c-1.424-1.242-2.773-1.167-4.12,0.104    c-2.269,2.142-3.371,5.003-4.706,7.708c-1.838,3.727-3.587,7.497-5.375,11.248c-0.121,0.254-0.236,0.513-0.372,0.759    c-0.661,1.199-1.365,2.491-3.014,2.111c-1.635-0.376-1.794-1.862-1.83-3.211c-0.074-2.812-0.031-5.628-0.056-8.442    c-0.042-4.944-0.425-9.879-1.829-14.62c-1.725-5.826-5.498-7.241-10.677-4.093c-5.934,3.608-10.998,8.318-15.909,13.18    c-7.205,7.134-14.2,14.485-21.902,21.103c-0.214,0.184-0.426,0.369-0.638,0.554c-1.082,0.949-2.286,1.582-3.607,0.59    c-1.371-1.03-1.217-2.482-0.569-3.831c1.312-2.732,2.873-5.329,4.547-7.857c5.209-7.867,11.034-15.326,15.6-23.617    c2.382-4.326,4.789-8.649,5.212-13.714c0.385-4.612-1.7-7.793-6.032-9.546c-4.702-1.902-9.648-2.051-14.562-1.847    c-8.37,0.348-16.75,0.799-24.948,2.78c-1.493,0.361-2.896,0.242-3.571-1.369c-0.73-1.745,0.094-3.014,1.598-3.876    c3.553-2.039,7.319-3.614,11.128-5.108c5.449-2.138,10.847-4.381,15.372-8.261c1.242-1.066,2.331-2.242,3.257-3.582    c3.167-4.576,2.503-9.186-1.752-12.729c-5.021-4.181-11.048-6.146-17.196-7.747c-10.921-2.844-21.999-4.869-33.254-5.862    c-3.055-0.27-4.484-1.305-4.494-3.173c-0.01-1.84,1.391-3.088,4.381-3.422c5.319-0.595,10.659-0.881,16.018-1.001    c7.47-0.168,14.875-1.262,22.285-2.154c3.41-0.41,6.814-1.063,10.081-2.243c4.976-1.798,5.312-3.213,1.727-7.051    c-2.185-2.34-4.698-4.261-7.401-5.927c-3.957-2.439-7.955-4.814-12.163-6.811c-0.635-0.301-1.232-0.682-1.841-1.035    c-1.415-0.82-2.293-1.957-1.741-3.655c0.535-1.648,1.919-2.248,3.504-2.153c2.599,0.157,5.184,0.535,7.782,0.721    c5.892,0.422,11.775,1.136,17.676-0.116c6.129-1.301,7.066-3.443,3.589-8.648c-4.933-7.384-11.259-13.515-17.698-19.524    c-4.737-4.42-9.644-8.658-14.473-12.98c-0.419-0.375-0.867-0.733-1.217-1.168c-1.013-1.257-1.433-2.653-0.388-4.062    c1.08-1.456,2.594-1.388,3.985-0.6c2.327,1.319,4.553,2.813,6.837,4.207c9.699,5.918,19.632,11.378,30.432,15.057    c3.389,1.155,6.805,2.319,10.508,1.981c4.663-0.426,6.724-2.538,6.608-7.256c-0.085-3.46-0.842-6.842-1.874-10.148    c-1.993-6.388-4.007-12.769-6.012-19.152c-0.085-0.269-0.184-0.534-0.256-0.806c-0.413-1.544-0.433-3.058,1.249-3.812    c1.644-0.737,2.849,0.187,3.757,1.504c1.438,2.088,2.804,4.226,4.255,6.305c4.17,5.972,8.881,11.471,14.451,16.192    c1.727,1.463,3.582,2.745,5.857,3.249c3.084,0.683,4.458,0.021,5.645-2.899c1.897-4.669,2.045-9.633,2.105-14.554    c0.111-9.229-0.365-18.445-1.239-27.632c-0.386-4.061-0.999-8.1-1.537-12.146c-0.226-1.697-0.006-3.202,1.901-3.684    c1.874-0.473,2.71,0.798,3.167,2.335c1.684,5.669,3.169,11.393,4.986,17.029c2.763,8.57,6.574,16.611,11.487,24.14    c1.426,2.186,3.001,4.269,4.941,6.03c3.167,2.874,5.268,2.55,7.4-1.22c3.201-5.66,5.72-11.622,7.65-17.834    c0.46-1.479,0.9-2.967,1.443-4.415c0.476-1.27,1.523-1.939,2.834-1.689c1.229,0.235,1.239,1.435,1.232,2.403    c-0.032,4.582,0.184,9.149,0.565,13.714c0.253,3.04,0.936,5.981,1.839,8.875c0.291,0.931,0.733,1.835,1.23,2.678    c2.482,4.212,5.124,4.772,8.997,1.82c5.619-4.282,9.758-9.927,13.97-15.484c4.724-6.233,9.045-12.752,13.422-19.23    c0.59-0.873,1.249-1.707,1.95-2.494c0.606-0.681,1.409-0.948,2.298-0.56c0.934,0.408,1.12,1.243,0.985,2.126    c-0.33,2.169-1.127,4.208-1.849,6.267c-2.959,8.443-5.981,16.87-7.49,25.733c-0.579,3.402-1.091,6.812-0.793,10.293    c0.467,5.445,3.388,8.05,8.868,7.915c6.016-0.149,11.642-1.905,17.178-4.055c2.954-1.147,5.894-2.332,8.85-3.475    c1.151-0.445,2.404-0.843,3.149,0.581c0.734,1.403-0.276,2.208-1.277,2.951c-4.931,3.657-9.658,7.548-13.792,12.111    c-1.76,1.943-3.295,4.048-4.258,6.506c-1.388,3.544-0.505,6.094,2.679,8.167c3.401,2.214,7.239,3.13,11.162,3.628    c6.855,0.87,13.748,0.942,20.658,0.818c7.173-0.129,14.351-0.372,21.527-0.032c0.703,0.033,1.401,0.144,2.103,0.197    c1.319,0.1,2.646,0.287,2.877,1.902c0.229,1.596-0.945,2.15-2.198,2.648c-4.586,1.825-9.258,3.395-13.994,4.77    c-7.246,2.103-14.368,4.551-21.259,7.636c-3.231,1.446-6.298,3.197-8.906,5.605c-3.865,3.569-3.546,6.879,0.753,9.866    c3.993,2.774,8.488,4.414,13.056,5.872c5.3,1.691,10.637,3.266,15.954,4.903c1.321,0.407,2.695,0.906,2.469,2.644    c-0.215,1.654-1.607,2.033-2.992,2.126c-3.581,0.242-7.179,0.321-10.751,0.573c-5.952,0.419-11.965,0.844-17.508,3.44    c-7.217,3.381-7.914,7.658-2.478,13.401c5.1,5.387,11.352,9.225,17.337,13.426c6.053,4.249,12.191,8.376,18.285,12.567    c0.579,0.398,1.144,0.83,1.656,1.309c0.977,0.914,1.702,1.988,1.017,3.362c-0.665,1.333-1.928,1.583-3.261,1.344    c-3.758-0.675-7.405-1.793-10.924-3.24c-9.126-3.752-18.402-7.089-27.738-10.27c-3.492-1.19-7.07-1.981-10.759-1.998    c-7.09-0.032-9.126,3.198-6.019,9.531c2.396,4.882,5.56,9.307,8.505,13.859c2.372,3.667,4.778,7.312,7.128,10.993    c0.744,1.165,1.851,2.5,0.539,3.8c-1.259,1.248-2.632,0.351-3.827-0.442c-6.043-4.009-11.965-8.211-18.442-11.523    c-2.887-1.477-5.803-2.869-9.033-3.493c-5.533-1.07-8.242,1.713-7.073,7.265c1.767,8.394,5.257,16.195,8.262,24.161    c1.964,5.206,4.022,10.376,6.039,15.561c0.539,1.385,0.918,2.844-0.65,3.748c-1.628,0.939-2.61-0.294-3.498-1.432    c-6.379-8.17-11.816-17.004-17.892-25.388c-2.399-3.31-4.85-6.586-8.003-9.243c-1.362-1.147-2.909-2.445-4.71-1.631    c-1.848,0.835-1.831,2.945-1.765,4.67c0.142,3.729,0.517,7.448,0.797,11.171C308.292,235.752,308.271,235.754,308.251,235.755z     M233.961,58.45c-0.311,0.84,0.096,1.313,0.246,1.82c1.318,4.46,2.703,8.91,2.898,13.6c0.298,7.14-4.069,12.138-11.169,12.915    c-2.414,0.264-4.774,0.021-7.132-0.493c-7.014-1.528-13.452-4.566-19.911-7.551c-0.499-0.231-0.968-0.686-1.82-0.457    c2.044,2.06,3.939,3.939,5.8,5.852c4.134,4.248,8.15,8.6,10.956,13.889c3.083,5.811,1.295,10.86-4.724,13.474    c-2.215,0.962-4.521,1.531-6.935,1.741c-3.949,0.344-7.898,0.558-11.867,0.167c2.514,1.837,5.068,3.441,7.523,5.183    c3.134,2.223,5.872,4.847,7.556,8.389c1.923,4.044,0.889,7.672-2.878,10.04c-0.89,0.559-1.839,1.049-2.811,1.45    c-5.53,2.281-11.356,3.221-17.273,3.704c-4.018,0.328-8.039,0.609-12.059,0.911c3.909,1.132,7.836,1.922,11.672,3.083    c6.83,2.068,13.616,4.232,19.138,9.049c6.157,5.37,6.856,13.141,1.859,19.635c-2.666,3.465-5.895,6.235-9.766,8.249    c-2.474,1.288-4.976,2.52-7.466,3.777c3.473,0.066,6.876-0.308,10.288-0.419c5.717-0.186,11.425-0.04,16.861,2.087    c4.4,1.722,7.417,4.738,8.635,9.416c0.984,3.782,0.232,7.438-0.904,11.001c-2.576,8.087-7.305,15.039-11.903,22.053    c-0.811,1.237-1.878,2.339-2.235,3.854c0.464-0.254,0.816-0.585,1.147-0.936c5.752-6.097,11.536-12.169,18.04-17.481    c3.44-2.81,6.995-5.476,11.48-6.493c4.139-0.939,8.166,0.651,10.406,4.258c1.464,2.357,2.299,4.948,2.867,7.669    c0.863,4.131,0.806,8.357,1.429,13.13c0.682-1.614,1.143-2.686,1.59-3.764c1.46-3.524,3.013-7.014,5.633-9.853    c3.599-3.9,8.489-3.81,11.943,0.198c2.968,3.443,3.83,7.765,4.814,12.025c0.59,2.557,0.769,5.176,1.198,7.783    c0.382-0.885,0.558-1.77,0.771-2.646c1.334-5.473,2.461-11.028,5.721-15.798c3.013-4.409,7.823-4.971,11.784-1.418    c1.802,1.616,3.253,3.523,4.452,5.605c1.288,2.235,2.461,4.536,3.684,6.809c0.178-1.978,0.015-3.904-0.107-5.832    c-0.156-2.471-0.068-4.932,0.571-7.339c1.007-3.792,4.078-5.652,7.88-4.779c1.752,0.403,3.248,1.316,4.65,2.414    c4.383,3.435,7.671,7.835,10.837,12.335c1.874,2.664,3.666,5.386,5.495,8.083c-1.182-3.9-2.72-7.593-4.085-11.349    c-1.828-5.03-3.702-10.064-3.726-15.535c-0.027-6.169,3.954-9.869,10.064-9.477c4.914,0.315,9.303,2.188,13.541,4.45    c3.386,1.806,6.644,3.851,10.506,6.109c-1.872-2.587-3.427-4.648-4.889-6.774c-3.155-4.586-6.355-9.174-7.994-14.572    c-1.251-4.12,0.005-7.884,3.222-9.876c2.619-1.622,5.491-2.365,8.639-2.309c7.124,0.126,13.644,2.668,20.271,4.803    c4.662,1.502,9.301,3.074,13.885,4.853c-1.048-0.985-2.155-1.836-3.284-2.655c-5.64-4.091-11.667-7.658-16.855-12.361    c-2.975-2.697-5.996-5.385-7.586-9.221c-1.667-4.023-0.793-7.763,2.326-10.807c2.921-2.851,6.537-4.329,10.326-5.532    c4.594-1.46,9.389-1.523,14.151-2.114c-1.703-0.671-3.426-1.203-5.15-1.738c-5.675-1.759-11.258-3.749-15.89-7.635    c-4.685-3.931-5.048-9.299-1.094-13.974c1.425-1.685,3.097-3.063,4.961-4.235c6.989-4.394,14.694-7.088,22.518-9.489    c3.273-1.004,6.581-1.899,9.873-2.843c-10.111-0.393-20.174,0.148-30.221-0.574c-5.581-0.401-11.078-1.131-16.108-3.84    c-6.236-3.359-7.998-9.111-4.649-15.342c0.632-1.175,1.413-2.271,2.137-3.395c1.71-2.655,4.193-4.648,6.54-7.384    c-1.648,0.523-2.83,0.94-4.035,1.273c-4.134,1.142-8.232,2.38-12.635,1.998c-6.662-0.579-10.605-4.031-11.618-10.475    c-0.251-1.598-0.317-3.215-0.212-4.845c0.49-7.66,2.503-14.984,4.835-22.241c0.488-1.518,0.997-3.03,1.679-5.1    c-2.953,4.039-5.552,7.546-8.099,11.091c-2.592,3.606-5.283,7.135-8.241,10.448c-2.581,2.891-5.175,5.791-8.761,7.512    c-3.609,1.732-7.572,0.91-10.141-2.131c-1.609-1.903-2.735-4.071-3.468-6.471c-1.045-3.42-1.268-6.977-1.834-10.521    c-0.641,1.004-1.085,2.023-1.544,3.036c-1.513,3.337-3.046,6.67-5.095,9.719c-2.678,3.985-7.091,5.005-11.297,2.662    c-1.995-1.111-3.684-2.611-5.071-4.411c-5.147-6.682-9.28-13.924-11.987-21.943c-0.394-1.166-0.821-2.32-1.233-3.479    c0.362,6.266,0.514,12.481,0.447,18.7c-0.053,4.944-0.478,9.856-1.893,14.622c-1.976,6.657-6.824,9.143-13.4,6.996    c-3.672-1.199-6.398-3.774-9.211-6.215C238.751,63.913,236.443,61.184,233.961,58.45z"/>
		<path d="M213.177,270.08c-2.38,0.07-5.292-0.508-7.764-2.551c-0.764-0.631-1.595-1.298-1.299-2.454    c0.303-1.181,1.378-1.302,2.351-1.441c3.751-0.535,6.892-2.166,9.615-4.831c3.252-3.183,3.279-7.074,2.522-11.013    c-1.939-10.101,3.207-14.54,9.425-17.352c2.837-1.283,5.767-2.267,8.889-2.535c1.13-0.097,2.384-0.139,2.848,1.216    c0.441,1.291-0.397,2.151-1.364,2.809c-1.57,1.068-3.187,2.069-4.782,3.101c-3.556,2.301-5.14,5.645-5.199,9.803    c-0.056,3.932,0.277,7.871-0.38,11.792C226.753,264.302,221.303,269.507,213.177,270.08z M227.957,235.696    c-3.801,1.957-6.276,4.615-5.543,9.199c0.255,1.593,0.292,3.224,0.381,4.84c0.292,5.33-1.575,9.581-6.088,12.655    c-2.233,1.521-4.68,2.485-7.649,3.504c4.199,1.12,7.722,0.796,10.8-1.657c4.16-3.315,5.561-7.95,5.887-13.047    C226.077,245.993,224.762,240.558,227.957,235.696z"/>
		<path d="M175.152,228.07c-3.984,0.216-6.915-0.325-9.863-0.388c-3.511-0.075-7.107-0.268-9.724,2.842    c-0.437,0.519-1.072,0.709-1.716,0.326c-0.723-0.429-0.786-1.097-0.579-1.843c2.313-8.351,9.01-13.257,17.563-12.887    c0.911,0.039,1.828-0.077,2.742-0.084c1.648-0.012,2.605-0.872,3.046-2.404c0.564-1.961,1.166-3.912,1.692-5.883    c1.023-3.838,3.57-5.939,7.408-6.583c5.344-0.897,10.356,0.184,15.124,2.614c0.956,0.487,1.963,1.099,1.732,2.371    c-0.252,1.383-1.527,1.212-2.544,1.357c-1.461,0.209-2.918,0.494-4.387,0.597c-4.612,0.324-7.493,2.828-9.126,7.013    c-0.793,2.032-1.587,4.068-2.485,6.055C182.111,225.42,179.085,228.154,175.152,228.07z M159.335,224.76    c3.22-0.357,6.076-0.446,8.939-0.203c9.773,0.826,11.442-0.043,15.007-9.002c2.375-5.969,6.005-10.079,13.054-10.548    c-2.866-1.182-5.427-1.37-9.169-0.887c-2.723,0.352-4.57,1.663-5.246,4.421c-0.501,2.047-0.914,4.125-1.574,6.121    c-1.177,3.557-2.785,4.725-6.514,4.883c-2.173,0.092-4.353,0.023-6.529,0.072C163.834,219.694,161.323,221.362,159.335,224.76z"/>
		<path d="M180.209,28.104c5.309-0.194,9.367,1.644,11.931,6.28c1.021,1.847,2.105,3.663,3.051,5.547    c1.102,2.195,2.881,3.396,5.21,3.891c2.202,0.467,4.45,0.766,6.606,1.387c6.005,1.73,10.114,5.407,11.384,11.747    c0.392,1.958,0.453,3.944-0.762,5.697c-1.045,1.508-2.412,1.425-3.302-0.153c-0.137-0.243-0.259-0.509-0.317-0.78    c-1.279-6.046-6.074-7.649-11.183-8.694c-2.471-0.506-5.021-0.64-7.541-0.888c-5.079-0.498-8.347-3.422-10.446-7.838    c-0.995-2.095-1.825-4.27-2.688-6.425c-0.844-2.107-1.875-4.078-3.459-5.749c-0.754-0.796-1.692-1.664-1.1-2.951    C178.144,27.979,179.365,28.247,180.209,28.104z M183.681,31.867c1.594,3.072,2.941,5.778,3.834,8.662    c1.743,5.627,5.324,8.638,11.394,8.781c5.108,0.121,10.077,1.081,14.324,4.275c0.062,0.047,0.233-0.05,0.535-0.126    c-1.765-2.491-3.978-4.245-6.871-4.973c-2.106-0.53-4.262-0.943-6.42-1.17c-3.443-0.362-5.909-1.997-7.534-5.033    c-1.193-2.23-2.407-4.455-3.732-6.608C188.051,33.79,186.549,32.253,183.681,31.867z"/>
		<path d="M380.423,163.021c-0.026-0.886,0.095-1.639,0.84-1.93c1.145-0.447,2.334-0.537,3.435,0.211    c3.493,2.373,7.262,2.362,11.133,1.239c2.16-0.627,4.293-1.347,6.436-2.032c2.213-0.707,4.437-1.351,6.765-1.577    c4.836-0.469,8.521,1.39,10.999,5.532c1.226,2.049,2.28,4.203,3.386,6.322c0.475,0.911,0.783,1.924-0.083,2.732    c-0.922,0.861-1.756,0.27-2.62-0.337c-4.471-3.142-9.419-2.839-14.414-1.824c-4.074,0.828-8.159,1.516-12.327,1.552    c-6.249,0.054-11.185-3.115-13.114-8.406C380.667,163.978,380.541,163.428,380.423,163.021z M417.284,167.557    c-1.496-3.051-3.65-4.369-6.568-4.358c-2.179,0.008-4.312,0.359-6.449,0.908c-4.341,1.114-8.36,3.442-12.984,3.479    c-1.046,0.008-2.092,0.002-3.138,0.002c0.501,0.528,1.015,0.73,1.545,0.869c3.855,1.013,7.688,0.406,11.502-0.242    C406.385,167.332,411.551,166.134,417.284,167.557z"/>
		<path d="M404.564,219.968c0.09,1.192,0.288,2.388,0.243,3.575c-0.064,1.679-1.698,2.552-2.762,1.383    c-4.085-4.49-9.7-4.682-15.051-5.664c-1.796-0.329-3.627-0.507-5.397-0.938c-6.18-1.504-9.351-5.236-9.852-11.588    c-0.194-2.455-0.016-4.918,0.286-7.363c0.094-0.763,0.29-1.532,0.793-2.155c0.615-0.762,1.409-1.188,2.405-0.995    c0.994,0.192,1.291,0.998,1.447,1.863c0.224,1.244,0.504,2.486,0.612,3.742c0.236,2.726,1.972,3.878,4.384,4.383    c2.769,0.58,5.595,0.529,8.398,0.71c2.263,0.147,4.466,0.539,6.633,1.164c4.886,1.41,7.113,4.073,7.662,9.146    c0.098,0.909,0.141,1.823,0.21,2.735C404.571,219.968,404.567,219.968,404.564,219.968z M375.958,209.245    c0.607,1.568,1.364,2.498,2.45,3.214c1.809,1.193,3.839,1.785,5.935,2.091c5.381,0.786,10.715,1.71,15.655,4.145    c1.081,0.533,1.441,0.125,1.246-0.965c-0.431-2.405-1.392-4.399-3.871-5.37c-1.918-0.751-3.878-1.238-5.915-1.507    C386.401,210.187,381.185,211.4,375.958,209.245z"/>
		<path d="M319.13,48.38c-0.961-0.043-1.928-0.361-1.648-1.572c0.988-4.27-0.429-8.203-1.553-12.174    c-0.841-2.974-1.981-5.854-2.46-8.94c-0.797-5.136,0.633-9.596,3.813-13.582c3.004-3.766,6.64-6.675,11.307-8.123    c1.265-0.392,2.594-0.496,3.431,0.775c0.822,1.248,0.004,2.302-0.773,3.223c-1.543,1.827-3.192,3.566-4.718,5.407    c-3.158,3.81-4.286,7.97-2.198,12.734c2.147,4.898,3.073,9.928,1.203,15.166c-0.843,2.361-2.01,4.494-4.061,6.039    C320.788,47.848,320.054,48.245,319.13,48.38z M327.007,8.374c-2.611,1.533-4.716,3.547-6.532,5.914    c-2.993,3.901-3.939,8.208-2.704,12.921c1.2,4.581,3.035,8.992,3.582,14.318c1.837-3.984,2.328-7.488,1.107-11.14    c-0.468-1.399-0.976-2.786-1.515-4.16c-1.686-4.304-0.921-8.315,1.579-12.027C323.89,12.171,325.504,10.31,327.007,8.374z"/>
		<path d="M143.771,129.004c-4.352,0.432-6.984-0.839-8.953-3.602c-1.367-1.918-2.187-4.072-2.942-6.276    c-0.541-1.58-0.766-3.307-1.94-4.624c-0.443-0.497-0.773-1.033-0.471-1.713c0.345-0.776,1.076-0.881,1.787-0.832    c2.476,0.172,4.906,0.576,7.002,2.032c1.5,1.042,3.009,2.088,4.401,3.266c2.986,2.529,6.305,2.803,9.907,1.753    c3.373-0.983,6.745-1.973,10.146-2.851c3.237-0.836,6.41-0.66,9.416,0.993c1.135,0.624,2.075,1.444,2.816,2.492    c0.524,0.741,0.67,1.536,0.228,2.381c-0.469,0.897-1.325,1.174-2.154,0.918c-7.562-2.337-14.217,0.688-20.923,3.453    C149.096,127.629,146.041,128.666,143.771,129.004z M151.371,123.024c-2.846,0.338-5.477-0.158-7.93-1.556    c-1.789-1.02-3.225-2.486-4.812-3.761c-1.006-0.808-2-1.66-3.615-1.938c0.974,2.822,1.928,5.3,3.319,7.575    c0.759,1.242,1.873,2.134,3.411,2.193C145.179,125.667,148.308,124.565,151.371,123.024z"/>
		<path d="M420.255,81.972c-4.499,0.058-7.245,3.129-10.212,5.783c-0.888,0.794-1.606,1.784-2.511,2.554    c-2.843,2.419-5.927,3.5-9.47,1.435c-2.122-1.237-3.967-0.577-5.892,0.646c-4.778,3.036-9.812,4.172-15.197,1.535    c-0.851-0.417-1.523-0.904-1.761-1.933c-0.361-1.565-0.096-2.556,1.769-2.369c2.01,0.201,3.54-0.761,4.913-2.025    c1.604-1.476,3.133-3.034,4.707-4.542c2.646-2.534,5.778-3.47,9.082-1.782c3.287,1.68,6.176,1.534,9.359-0.211    c4.516-2.475,9.362-3.833,14.612-3.143c1.138,0.15,2.204,0.38,3.136,1.1c0.642,0.496,1.247,1,0.968,1.91    c-0.275,0.897-1.034,1.06-1.858,1.053C421.338,81.977,420.775,81.975,420.255,81.972z M409.487,81.859    c-1.375,0.638-2.844,1.129-4.107,1.941c-3.543,2.278-7.08,2.811-10.944,0.754c-2.068-1.101-4.077-0.651-5.797,1.025    c-2.054,2.001-3.633,4.43-5.81,6.408c2.58,0.184,4.842-0.61,6.827-2.083c3.048-2.261,6.153-2.758,9.676-1.077    c2.668,1.273,4.593,0.713,6.245-1.667C406.811,85.38,407.945,83.543,409.487,81.859z"/>
		<path d="M254.416,279.574c-0.354-0.033-0.987-0.069-1.611-0.156c-1.062-0.147-2.165-0.326-2.561-1.518    c-0.387-1.165,0.323-2.013,1.047-2.809c0.708-0.78,1.437-1.541,2.136-2.329c3.095-3.49,3.746-7.399,2.126-11.771    c-0.781-2.108-1.321-4.293-1.598-6.543c-0.318-2.588,0.327-4.885,1.883-6.937c2.342-3.087,5.593-4.854,9.14-6.147    c0.636-0.232,1.416-0.412,1.932,0.311c0.448,0.629,0.05,1.192-0.235,1.761c-2.74,5.484-3.402,11.217-2.108,17.204    c0.77,3.564,0.667,7.142-0.251,10.659C263.121,275.883,259.17,279.209,254.416,279.574z M261.998,246.872    c-3.83,2.801-4.669,5.033-3.669,8.727c0.533,1.969,1.113,3.925,1.623,5.899c1.191,4.609,0.477,8.785-2.873,12.349    c-0.439,0.467-0.814,0.994-1.506,1.848c2.151-0.707,3.408-1.697,4.315-3.222c1.462-2.458,1.856-5.101,1.723-7.91    C261.337,258.807,259.317,253.064,261.998,246.872z"/>
		<path d="M179.417,165.284c0.246,2.638-0.697,3.542-2.742,2.731c-3.323-1.319-5.926-0.218-8.187,2.151    c-1.848,1.935-3.576,3.968-5.867,5.44c-3.489,2.241-6.7,2.389-9.417,0.311c-3.259-2.493-4.759-6.951-3.539-10.548    c0.348-1.027,0.805-2.035,1.985-2.269c1.185-0.235,1.71,0.718,2.308,1.515c2.562,3.419,4.707,3.706,7.926,0.969    c1.715-1.458,3.249-3.13,4.982-4.564c2.143-1.773,4.618-2.085,7.135-0.9C176.459,161.276,178.608,162.831,179.417,165.284z     M174.191,163.952c-1.431-1.337-2.907-1.612-4.547-0.484c-1.699,1.168-3.051,2.7-4.506,4.126    c-3.429,3.361-8.435,4.531-11.735,0.14c-0.105-0.14-0.331-0.188-0.644-0.356c-0.165,2.635,1.074,4.327,2.996,5.724    c1.826,1.327,3.464,0.577,5.112-0.307c1.698-0.911,3.077-2.226,4.348-3.644C167.626,166.462,170.354,164.36,174.191,163.952z"/>
		<path d="M251.189,34.05c-0.024,2.251-0.021,4.504-0.086,6.754c-0.025,0.865-0.22,1.783-1.311,1.874    c-1.085,0.09-1.49-0.798-1.62-1.626c-0.922-5.87-4.456-9.74-9.481-12.45c-3.177-1.714-5.024-4.391-6.089-7.757    c-1.08-3.415,0.096-6.214,2.238-8.765c0.651-0.775,1.505-1.354,2.6-0.988c1.003,0.335,1.272,1.258,1.446,2.173    c0.158,0.829,0.278,1.67,0.348,2.511c0.356,4.233,2.16,7.468,6.091,9.446C248.909,27.024,251.171,29.82,251.189,34.05z     M240.069,24.976c-2.4-2.788-2.805-6.297-3.458-9.838C234.1,18.152,235.605,22.374,240.069,24.976z"/>
		<path d="M320.607,240.083c0.002,0.349,0.013,0.421,0.001,0.49c-0.836,4.928,0.507,8.496,5.26,11.102    c3.177,1.742,4.324,5.431,4.195,9.175c-0.065,1.891-0.315,3.778-0.519,5.662c-0.093,0.858-0.283,1.751-1.381,1.818    c-0.969,0.059-1.393-0.683-1.516-1.466c-0.375-2.391-1.944-3.812-3.842-5.01c-1.07-0.676-2.156-1.331-3.185-2.066    c-3.701-2.645-5.326-6.213-4.766-10.767c0.423-3.438,1.75-6.65,2.438-10.024c0.189-0.926,0.716-2.167,1.864-1.94    C320.927,237.406,320.445,239.104,320.607,240.083z M327.237,261.188c0.106-2.941-0.892-4.974-2.752-6.499    c-2.215-1.815-4.878-3.061-6.761-5.632c-0.732,3.658,0.72,6.037,3.293,7.878C322.946,258.316,325.112,259.338,327.237,261.188z"/>
		<path d="M283.237,79.702c10.729-1.164,22.557,0.792,33.636,6.813c14.304,7.774,23.276,19.598,27.298,35.349    c4.45,17.427,2.786,34.261-4.853,50.443c-5.371,11.379-14.028,19.877-24.934,25.946c-10.582,5.888-21.981,9.138-34.199,8.658    c-11.779-0.464-22.671-4.082-32.846-9.936c-14.092-8.109-21.043-21.023-24.533-36.331c-2.887-12.662-2.631-25.189,1.453-37.528    c4.647-14.044,12.529-25.778,25.118-33.99c6.486-4.231,13.711-6.468,21.236-7.951C274.222,80.464,277.867,80.191,283.237,79.702z     M340.694,155.789c-4.178,3.067-8.448,4.84-12.715,6.645c-1.819,0.769-2.847,0.488-3.915-1.295    c-6.188-10.326-12.495-20.581-18.783-30.847c-1.39-2.27-1.373-2.3,1.362-2.62c10.215-1.198,20.042-3.738,29.307-8.331    c1.732-0.859,2.039-1.703,1.301-3.426c-7.735-18.077-21.24-28.68-40.745-31.434c-7.235-1.021-14.458-0.41-21.661,0.666    c-6.667,0.996-13.097,2.66-19.037,5.951c-11.091,6.145-18.749,15.329-23.792,26.834c-1.696,3.869-1.692,3.849,2.242,5.199    c1.571,0.539,3.191,0.899,3.987,2.761c3.465,8.11,8.201,15.564,12.263,23.368c3.218,6.181,6.637,12.258,10.02,18.352    c0.727,1.309,0.662,1.954-1.001,1.877c-1.475-0.069-2.957-0.065-4.425-0.204c-8.703-0.821-16.709-3.779-24.309-7.978    c-0.512-0.283-1.042-0.966-1.678-0.444c-0.414,0.34-0.103,0.94,0.036,1.398c2.961,9.718,7.108,18.876,15.231,25.327    c13.663,10.853,29.299,15.766,46.754,13.321c20.976-2.938,36.368-13.875,45.539-33.144    C338.415,164.108,339.65,160.238,340.694,155.789z"/>
		<path d="M303.528,168.209c-3.099,0.306-6.184,0.203-9.272-0.169c-3.556-0.428-6.08-2.265-7.935-5.298    c-2.153-3.521-3.501-7.359-4.838-11.218c-0.24-0.693-0.28-1.787-1.152-1.836c-0.858-0.048-1.052,1.025-1.396,1.681    c-1.962,3.734-3.248,7.804-5.683,11.309c-1.017,1.463-2.166,2.77-3.606,3.817c-2.176,1.581-2.336,1.53-3.499-0.849    c-3.027-6.199-6.012-12.419-9.12-18.578c-3.107-6.159-6.345-12.252-9.514-18.379c-0.25-0.483-0.82-0.981-0.508-1.527    c0.337-0.589,1.031-0.271,1.554-0.184c13.744,2.266,27.565,2.861,41.46,1.989c0.839-0.053,1.732,0.233,2.523,0.041    c3.478-0.843,5.206,0.858,6.987,3.696c6.248,9.954,12.841,19.692,19.268,29.536c1.721,2.636,1.662,2.669-1.361,3.546    C312.888,167.101,308.229,167.778,303.528,168.209z"/>
		<path d="M259.998,179.202c0.313,4.103-2.391,7.338-6.384,7.638c-4.329,0.325-8.283-3.158-8.538-7.522    c-0.225-3.857,2.83-7.383,6.626-7.645C255.929,171.381,259.661,174.768,259.998,179.202z M256.003,179.156    c-0.167-1.954-1.848-3.44-3.697-3.15c-1.692,0.266-2.562,1.356-2.507,3.067c0.065,1.993,1.868,3.571,3.777,3.387    C255.192,182.305,256.159,180.989,256.003,179.156z"/>
		<path d="M287.75,181.421c0.122,3.111-0.082,5.848-1.135,8.437c-1.921,4.721-7.405,5.583-10.813,1.76    c-3.061-3.434-3.933-7.376-2.833-11.794c0.316-1.267,0.722-2.589,2.391-2.434c1.511,0.14,1.799,1.419,1.943,2.638    c0.273,2.296,0.096,4.682,1.328,6.777c0.655,1.115,1.087,2.658,2.805,2.426c1.535-0.207,1.775-1.629,2.161-2.829    c0.632-1.962,0.604-4.032,0.972-6.036c0.195-1.06,0.213-2.547,1.809-2.337c1.442,0.189,1.422,1.515,1.376,2.68    C287.741,181.06,287.75,181.413,287.75,181.421z"/>
		<path d="M307.6,178.303c-0.342-4.327,2.824-8.13,7.033-8.449c4.179-0.317,7.498,2.579,7.824,6.825    c0.32,4.177-3.002,7.991-7.262,8.336C311.022,185.354,307.942,182.632,307.6,178.303z M318.919,176.362    c-0.179-1.73-1.649-2.855-3.425-2.621c-1.893,0.25-3.681,2.552-3.436,4.426c0.224,1.717,1.731,2.872,3.448,2.644    C317.398,180.559,319.121,178.314,318.919,176.362z"/>
	</g>
</g>
<g>
</g>
<g>
</g>
<g>
</g>
<g>
</g>
<g>
</g>
<g>
</g>
<g>
</g>
<g>
</g>
<g>
</g>
<g>
</g>
<g>
</g>
<g>
</g>
<g>
</g>
<g>
</g>
<g>
</g>
</svg>
