<?xml version="1.0" encoding="UTF-8"?>
<!-- Generator: Adobe Illustrator 25.2.0, SVG Export Plug-In . SVG Version: 6.00 Build 0)  -->
<svg xmlns="http://www.w3.org/2000/svg" xmlns:xlink="http://www.w3.org/1999/xlink" version="1.1" id="Capa_1" x="0px" y="0px" viewBox="0 0 499.796 499.796" style="enable-background:new 0 0 499.796 499.796;" xml:space="preserve" width="512" height="512">
<g>
	<path d="M13.451,160.331c6.286,2.951,12.302,5.994,18.49,8.636c13.733,5.863,28.215,8.669,43.022,9.941   c19.491,1.674,38.934,0.964,58.346-1.275c15.357-1.771,30.743-3.304,46.077-5.253c8.418-1.07,16.734-2.911,25.13-4.184   c21.854-3.311,43.325-8.522,64.968-12.881c25.034-5.042,50.073-10.098,75.22-14.53c17.281-3.046,34.723-5.182,52.221-6.805   c15.662-1.453,31.32-1.947,47.016-1.091c14.213,0.775,28.134,3.134,41.519,8.157c1.429,0.536,2.838,1.135,4.225,1.773   c2.466,1.136,3.782,3.072,4.102,5.794c0.934,7.942,0.159,15.85-0.479,23.75c-0.799,9.881-1.72,19.754-2.724,29.616   c-1.302,12.787-0.3,25.441,1.66,38.091c2.272,14.661,4.647,29.32,6.342,44.053c1.543,13.408,1.706,26.922-0.079,40.36   c-0.405,3.051-1.473,6.018-2.293,9.009c-0.251,0.918-0.847,1.326-1.929,1.087c-14.261-3.147-28.777-3.399-43.276-3.605   c-25.901-0.369-51.792,0.281-77.611,2.325c-30.573,2.419-60.884,6.908-91.022,12.589c-3.766,0.71-20.658,3.196-25.263,4.119   c-36.309,7.276-72.56,14.865-108.949,21.719c-25.15,4.737-50.605,7.122-76.259,6.065c-13.358-0.551-26.722-1.317-39.888-3.811   c-4.313-0.817-8.533-2.247-12.702-3.672c-5.686-1.943-9.489-5.917-11.746-11.501c-2.748-6.797-4.101-13.882-4.748-21.135   c-1.522-17.058,1.039-33.65,5.583-50.045c2.331-8.408,4.613-16.908,4.662-25.679c0.04-7.112-0.495-14.26-1.265-21.338   c-1.514-13.904-3.587-27.748-5.02-41.66c-1.291-12.53,0.154-24.777,5.579-36.343C12.719,161.845,13.089,161.087,13.451,160.331z    M185.465,243.324c0.048,8.791,0.724,15.258,2.338,21.602c3.346,13.154,9.412,24.732,19.923,33.627   c13.697,11.592,31.252,13.569,46.376,5.284c7.836-4.293,13.992-10.403,18.629-17.967c11.778-19.213,13.875-39.8,8.009-61.294   c-3.452-12.649-9.875-23.594-20.354-31.778c-10.128-7.909-21.482-11.552-34.346-8.809c-10.903,2.325-19.425,8.511-26.152,17.168   C189.756,214.195,185.727,229.291,185.465,243.324z M373.341,231.483c0.625-0.461,1.002-0.781,1.417-1.04   c3.344-2.091,5.785-4.987,7.833-8.333c8.878-14.504,3.85-33.301-3.029-41.814c-4.593-5.684-10.19-9.768-17.619-10.449   c-4.142-0.379-8.47-0.638-12.511,0.126c-12.227,2.313-24.355,5.153-36.521,7.788c-1.248,0.27-2.468,0.602-2.812,2.078   c-0.351,1.508,0.668,2.294,1.692,3.04c2.648,1.93,4.287,4.476,4.77,7.733c0.49,3.304,0.996,6.605,1.438,9.915   c1.78,13.354,3.555,26.709,5.299,40.068c1.487,11.389,3.119,22.763,4.326,34.182c0.756,7.153,0.449,14.294-3.747,20.656   c-0.399,0.605-0.723,1.752-0.42,2.225c0.628,0.982,1.517,1.992,3.07,1.394c1.103-0.425,2.309-0.577,3.426-0.974   c7.912-2.809,16.161-3.849,24.448-4.671c2.704-0.268,5.436-0.305,8.118-0.704c0.982-0.146,2.325-0.843,2.643-1.634   c0.314-0.782-0.217-2.176-0.808-2.988c-1.092-1.501-2.682-2.646-3.73-4.169c-1.523-2.212-3.351-4.472-3.998-6.983   c-2.763-10.705-5.14-21.51-7.67-32.331c7.049,0.187,12.156,3.455,15.859,9.005c1.566,2.347,2.765,4.936,4.192,7.379   c2.825,4.835,5.478,9.789,8.604,14.423c3.036,4.502,7.218,7.857,12.544,9.406c8.588,2.498,16.818,1.14,24.723-2.71   c1.402-0.683,2.944-1.504,2.826-3.455c-0.117-1.935-1.791-2.367-3.202-2.837c-4.657-1.552-8.111-4.559-10.978-8.455   c-3.036-4.126-4.755-8.862-6.605-13.541c-1.796-4.543-3.746-9-6.729-12.911c-3.447-4.519-7.844-7.643-13.466-8.872   C375.703,231.808,374.658,231.693,373.341,231.483z M113.379,285.403c0.678-0.18,0.945-0.28,1.222-0.32   c6.182-0.886,12.371-1.445,18.619-0.662c3.421,0.429,4.893-1.195,4.363-4.566c-1.247-7.936-2.469-15.876-3.697-23.814   c-0.492-3.181-2.499-4.101-5.184-2.338c-2.224,1.461-4.405,2.988-6.633,4.444c-3.059,1.999-6.425,3.228-10.169,4.019   c-0.86-10.657-1.708-21.171-2.555-31.671c1.618,0,3.356,0.02,5.093-0.004c6.869-0.095,13.685,0.145,20.34,2.198   c2.52,0.777,3.918-0.746,3.385-3.596c-1.497-8.008-1.908-16.059-1.411-24.183c0.222-3.628-1.502-4.595-4.889-3.216   c-3.917,1.595-7.83,3.532-11.934,4.273c-9.571,1.728-19.251,2.855-28.895,4.172c-4.6,0.628-9.228,1.054-13.816,1.755   c-1.04,0.159-2.281,0.862-2.86,1.705c-0.724,1.055,0.32,2.025,1.019,2.956c2.139,2.847,4.323,5.681,6.189,8.705   c0.948,1.537,1.544,3.433,1.78,5.234c0.39,2.964,0.33,5.985,0.51,8.979c1.37,22.84,2.743,45.679,4.138,68.517   c0.323,5.285-0.637,10.233-3.361,14.836c-0.825,1.394-1.395,2.964-1.903,4.513c-0.327,0.994-0.003,1.768,0.971,2.586   c1.505,1.263,3.069,1.077,4.631,0.796c9.873-1.777,19.784-3.17,29.813-3.735c1.978-0.111,3.991-0.757,5.849-1.504   c1.879-0.755,2.182-2.132,0.999-3.84c-1.092-1.577-2.485-2.944-3.598-4.508c-1.069-1.502-2.323-3.025-2.84-4.736   c-1.355-4.484-2.556-9.038-3.432-13.637C114.293,294.389,113.95,289.924,113.379,285.403z M443.225,240.064   c7.632-0.013,14.398-6.713,14.444-14.303c0.042-6.877-7.048-14.185-13.737-14.159c-7.542,0.029-14.82,7.289-14.785,14.747   C429.181,233.321,436.114,240.076,443.225,240.064z M45.81,282.932c7.179-0.026,12.348-5.014,12.342-11.911   c-0.006-6.743-5.53-12.273-12.206-12.22c-6.672,0.053-12.357,5.957-12.364,12.839C33.576,277.91,39.041,282.956,45.81,282.932z    M120.247,291.565c0.635-0.042,1.075-0.104,1.515-0.097c6.502,0.104,13.002,0.251,19.504,0.313c3.317,0.031,4.36-1.274,3.901-4.556   c-1.222-8.742-2.43-17.486-3.642-26.229c-0.241-1.736-0.42-3.484-0.752-5.202c-0.083-0.429-0.49-1.208-0.999-1.143   c-0.445,0.057-0.596,0.794-0.598,1.193c-0.012,2.319-0.135,4.663,0.151,6.953c1.019,8.134,2.13,16.258,3.349,24.364   c0.261,1.734-0.189,2.241-1.828,2.229c-6.165-0.045-12.332,0.042-18.495-0.067c-4.508-0.08-5.209,0.542-4.926,5.111   c0.028,0.452,0.098,0.901,0.134,1.352c0.444,5.554,2.518,10.535,5.436,15.193c2.554,4.076,5.25,8.064,7.779,12.155   c1.87,3.026,1.625,3.528-1.716,4.606c-0.269,0.087-0.536,0.188-0.812,0.244c-4.599,0.938-9.2,1.866-13.8,2.804   c-8.581,1.75-17.164,3.49-25.736,5.284c-0.709,0.148-1.705,0.33-2.006,1.02c-0.116,0.266-0.046,0.746,0.229,0.839   c1.498,0.506,3.033-0.177,4.518-0.44c9.184-1.624,18.369-3.244,27.533-4.981c3.94-0.747,7.879-1.592,11.724-2.715   c4.088-1.193,4.911-3.276,3.033-7.051c-1.081-2.173-2.398-4.23-3.641-6.32c-2.083-3.501-4.299-6.928-6.265-10.492   C121.417,301.55,120.315,296.783,120.247,291.565z M288.605,234.629c-0.177-0.121-0.484-0.068-0.636,0.082   c-0.299,0.294-0.192,0.833-0.169,1.243c0.123,2.269,0.281,4.536,0.471,6.8c0.537,6.404,0.388,12.858-0.72,19.188   c-2.264,12.93-7.2,24.645-16.287,34.391c-6.286,6.742-13.415,12.094-22.573,14.395c-6.512,1.636-13.057,2.03-19.711,1.443   c-0.007-0.001-0.013-0.001-0.02-0.002c-1.001-0.073-1.476,1.24-0.752,1.934c0.118,0.113,0.239,0.224,0.363,0.331   c0.233,0.2,0.635,0.226,0.968,0.284c4.542,0.802,9.102,1.143,13.679,0.339c19.049-3.349,31.768-14.901,40.057-31.68   c7.124-14.423,8.084-29.868,6.095-45.606C289.235,236.709,289.047,235.155,288.605,234.629z M383.465,229.108   c4.312-6.309,7.316-13.117,8.579-20.446c1.424-8.258-0.773-16.158-4.067-23.744c-0.112-0.258-1.404-1.779-1.895-1.52   c-0.448,0.237-0.246,1.043-0.131,1.505c0.218,0.871,0.642,1.687,0.93,2.543c2.643,7.87,4.435,15.871,2.12,24.118   c-1.599,5.697-3.234,11.451-7.03,16.227c-1.575,1.981-1.491,2.403,0.76,3.445c0.513,0.238,1.012,0.514,1.542,0.706   c6.307,2.279,10.207,6.888,12.582,12.975c0.452,1.159,0.822,2.354,1.336,3.483c2.411,5.291,4.832,10.577,7.317,15.834   c0.451,0.954,2.22,2.76,2.767,1.868c0.297-0.485-0.136-0.907-0.431-1.251c-0.322-0.375-0.516-0.839-0.705-1.291   c-0.621-1.489-1.247-2.976-1.873-4.464c-0.725-1.723-1.449-3.446-2.172-5.17c-0.722-1.724-1.443-3.449-2.16-5.175   c-0.161-0.388-0.323-0.777-0.483-1.165c-1.016-2.453-1.821-4.999-2.947-7.397c-2.023-4.307-5.24-7.482-9.652-9.363   C386.4,230.206,384.91,229.671,383.465,229.108z M373.065,290.087c-0.16-1.993-0.887-4.006-2.754-5.211   c-4.756-3.068-6.931-7.76-8.478-12.89c-1.976-6.549-3.894-13.116-5.924-19.647c-0.293-0.942-1.076-2.569-1.775-2.343   c-0.677,0.219-0.369,1.932-0.115,2.844c1.924,6.915,3.861,13.83,5.989,20.684c1.618,5.212,4.028,9.984,8.875,13.062   c0.509,0.323,0.938,0.83,1.289,1.332c2.119,3.023,0.353,7.568-3.239,8.217c-1.83,0.331-3.698,0.504-5.557,0.617   c-7.579,0.464-15.137,1.126-22.476,3.186c-3.422,0.96-6.758,2.238-10.105,3.449c-0.478,0.173-1.349,0.645-1.192,1.189   c0.161,0.556,1.135,0.419,1.684,0.379c0.776-0.057,1.545-0.321,2.3-0.55c7.659-2.317,15.465-3.869,23.441-4.559   c3.493-0.302,6.993-0.561,10.47-0.999C370.433,298.224,373.107,295.118,373.065,290.087z M117.438,237.346   c1.314,0,2.737-0.173,4.103,0.03c6.086,0.904,12.158,1.896,18.23,2.894c3.631,0.597,4.93-0.79,4.457-4.394   c-0.647-4.925-1.236-9.873-1.499-14.829c-0.266-5.023-0.098-10.068-0.143-15.104c-0.004-0.484,0.101-1.12-0.264-1.451   c-0.148-0.134-0.429-0.162-0.595-0.053c-0.706,0.464-0.744,1.599-0.76,2.406c-0.123,6.326-0.29,12.657-0.166,18.98   c0.065,3.318,0.708,6.623,1.054,9.937c0.237,2.273,0.126,2.389-2.078,2.181c-1.292-0.122-2.584-0.293-3.858-0.536   c-5.935-1.133-11.813-2.643-17.926-2.527c-2.569,0.049-3.174,0.498-3.16,3.035c0.017,2.996,0.205,5.993,0.378,8.986   c0.061,1.06,0.134,2.121,0.249,3.177c0.129,1.188,0.258,2.472,1.261,3.272c0.044,0.035,0.249,0.069,0.297,0.048   c0.211-0.093,0.422-0.272,0.444-0.501c0.037-0.385-0.016-0.678-0.035-1.012c-0.02-0.345,0.005-0.693,0.005-1.039   c-0.002-0.853-0.001-1.706,0-2.559c0.002-1.669,0.008-3.337,0.008-5.006C117.438,242.783,117.438,237.346,117.438,237.346z    M421.942,281.151c-0.059-0.257-0.397-0.44-0.661-0.435c-0.422,0.007-0.729,0.447-1.026,0.739   c-7.797,7.671-17.383,9.667-27.844,8.622c-2.445-0.244-4.825-1.118-7.248-1.639c-0.433-0.093-1.171-0.225-1.4,0.19   c-0.224,0.406,0.254,1.035,0.579,1.242c1.086,0.692,2.209,1.397,3.415,1.815c4.411,1.527,8.95,1.787,13.562,1.127   c7.327-1.048,13.751-3.985,19.077-9.159C421.079,282.991,422.159,282.11,421.942,281.151z M313.645,191.779   c-0.297-2.298-1.964-5.229-3.707-6.773c-0.57-0.505-1.363-0.821-2.101-0.632c-0.266,0.068-0.541,0.231-0.602,0.499   c-0.033,0.143,0.001,0.292,0.043,0.433c0.738,2.481,2.914,4.995,4.308,7.158c0.234,0.363,0.621,0.928,1.073,0.849   C313.118,193.234,313.759,192.664,313.645,191.779z"/>
	<path d="M215.358,155.609c-6.871,1.648-13.706,3.467-20.62,4.912c-23.533,4.916-47.305,8.381-71.222,10.649   c-22.014,2.088-44.046,1.905-65.886-2.097c-13.864-2.541-27.214-6.852-40.095-12.59c-0.344-0.154-0.669-0.351-1.471-0.776   c2.464-0.96,4.516-1.819,6.609-2.564c11.677-4.158,23.439-8.091,35.032-12.471c20.099-7.594,38.757-18.122,57.344-28.763   c16.634-9.523,32.782-19.786,47.872-31.642c3.162-2.484,6.18-5.15,9.297-7.691c1.359-1.108,2.729-2.23,4.219-3.141   c3.805-2.326,7.308-0.685,7.639,3.78c0.18,2.433-0.097,5.018-0.745,7.375c-3.242,11.783-8.395,22.75-15.255,32.829   c-5.223,7.674-10.917,15.027-16.425,22.506c-2.706,3.674-2.728,3.656,1.471,5.632c6.579,3.095,13.608,4.498,20.714,5.758   c13.492,2.392,26.945,5.004,40.413,7.534c0.368,0.069,0.716,0.244,1.074,0.369C215.334,155.348,215.346,155.479,215.358,155.609z"/>
	<path d="M492.328,338.448c-1.335,0.779-2.602,1.72-4.016,2.31c-5.746,2.398-11.552,4.653-17.308,7.026   c-20.274,8.358-40.199,17.464-59.291,28.288c-20.585,11.67-40.195,24.803-58.588,39.713c-3.563,2.888-6.965,5.974-10.46,8.947   c-1.668,1.419-3.417,2.839-5.794,1.759c-2.326-1.056-2.603-3.285-2.695-5.47c-0.285-6.722,1.237-13.164,3.215-19.516   c4.1-13.173,10.399-25.328,17.305-37.199c0.447-0.768,0.887-1.541,1.404-2.439c-9.543-3.359-19.135-5.739-28.857-7.597   c-9.728-1.86-19.483-3.58-29.221-5.453c64.297-11.149,128.987-14.976,194.1-11.094   C492.189,337.964,492.258,338.206,492.328,338.448z"/>
	<path d="M235.643,385.576c-0.604,0.225-0.812,0.28-1,0.376c-18.307,9.305-37.542,16.399-56.582,23.984   c-10.455,4.165-20.689,8.94-30.809,13.877c-7.227,3.526-14.061,7.843-19.756,13.677c-4.507,4.617-7.989,9.818-9.284,16.295   c-2.259,11.297,4.178,20.538,17.636,19.782c11.206-0.63,20.72-9.12,23.05-20.085c0.734-3.452,0.463-6.771-1.644-9.751   c-2.47-3.493-7.448-3.806-10.284-0.61c-1.578,1.779-3.036,3.664-4.566,5.485c-0.768,0.914-1.877,1.458-2.832,0.721   c-0.734-0.567-1.433-1.728-1.422-2.616c0.05-4.016,5.253-10.35,9.111-11.385c5.23-1.404,10.706,0.844,13.41,5.582   c2.777,4.864,3.008,9.997,1.403,15.273c-4.451,14.64-20.314,23.886-35.225,20.543c-9.033-2.025-15.464-10.006-16.05-19.961   c-0.382-6.482,1.332-12.448,4.575-18.012c3.158-5.42,7.42-9.848,12.427-13.571c7.223-5.371,15.037-9.734,23.42-12.975   c9.398-3.634,18.9-6.996,28.357-10.477c0.492-0.181,0.986-0.361,1.432-0.676c-5.588,1.396-11.168,2.827-16.766,4.182   c-31.194,7.556-62.836,10.661-94.9,9.433c-16.573-0.635-32.601-3.888-47.81-10.63c-3.336-1.479-6.495-3.421-9.558-5.421   c-1.141-0.745-1.97-2.174-2.586-3.461c-0.652-1.364-0.297-2.825,0.9-3.866c1.152-1.002,2.486-0.972,3.821-0.345   c0.408,0.192,0.804,0.423,1.175,0.68c13.948,9.678,29.601,14.482,46.337,16.095c17.438,1.681,34.879,1.128,52.271-0.546   c40.279-3.877,79.018-13.786,116.058-30.172c9.215-4.077,18.426-8.164,27.622-12.284c3.491-1.564,5.898-0.568,6.805,3.174   c1.185,4.894,4.028,8.533,8.034,11.392c6.832,4.876,14.535,7.263,22.826,7.9c3.712,0.285,7.234-0.48,10.408-2.471   c3.281-2.058,5.41-4.954,5.946-8.865c0.36-2.633-0.798-5.21-2.608-5.99c-1.937-0.834-4.36-0.015-6.118,2.172   c-0.594,0.739-0.93,1.684-1.516,2.432c-0.409,0.523-1.133,1.292-1.555,1.201c-0.699-0.15-1.577-0.791-1.811-1.433   c-0.28-0.766-0.132-1.802,0.123-2.632c1.397-4.545,5.371-7.45,9.746-7.233c4.447,0.221,8.089,3.473,9.003,8.344   c1.144,6.096-1.167,11.17-5.31,15.424c-4.024,4.132-9.145,6.171-14.862,6.062c-10.637-0.203-20.583-2.921-29.465-9.008   c-3.437-2.355-5.993-5.495-8.161-8.993c-0.291-0.469-0.567-0.947-1.027-1.717c-8.705,8.313-17.504,16.301-25.808,24.775   c-6.847,6.986-10.245,15.932-11.367,25.504c-1.391,11.864,6.927,19.673,17.713,18.692c9.111-0.829,16.314-4.509,19.977-13.416   c1.406-3.418,1.576-6.958,0.444-10.479c-2.238-6.963-10.355-9.313-15.73-4.603c-2.556,2.24-3.652,6.199-2.03,9.295   c0.255,0.487,0.572,0.941,0.944,1.345c0.386,0.42,0.833,0.777,1.279,1.13c0.619,0.49,1.572,1.033,1.841,1.824   c0.07,0.206,0.044,0.434-0.018,0.642c-0.211,0.704-0.828,1.241-1.525,1.474c-0.747,0.249-1.49,0.143-2.244,0   c-0.729-0.138-1.455-0.297-2.103-0.675c-5.808-3.386-7.038-10.677-2.92-16.344c6.052-8.328,18.204-8.291,24.242,0.215   c4.061,5.721,4.407,12.082,1.878,18.457c-3.861,9.732-11.507,14.752-21.558,16.62c-6.872,1.277-13.364,0.604-19.135-3.587   c-8.124-5.9-10.792-14.222-9.552-23.786c1.363-10.515,6.234-19.443,13.721-26.915C229.082,391.651,232.233,388.802,235.643,385.576   z"/>
	<path d="M212.9,129.758c5.417-2.459,10.569-4.92,15.817-7.158c14.213-6.06,29.031-10.246,43.986-13.982   c4.319-1.079,8.688-1.966,12.974-3.164c1.813-0.507,3.574-1.185,5.261-2.021c11.327-5.621,20.846-13.367,27.788-24.067   c3.273-5.044,5.766-10.408,6.445-16.455c0.718-6.387-3.26-12.931-9.151-15.211c-6.184-2.394-13.656-0.321-17.416,4.833   c-2.824,3.871-1.863,7.929,2.526,9.921c2.15,0.976,4.482,1.549,6.726,2.32c1.06,0.364,2.37,0.595,2.229,2.111   c-0.133,1.438-1.369,1.795-2.51,1.79c-4.132-0.018-8.197-0.66-11.662-3.028c-5.101-3.487-6.266-10.213-2.93-15.559   c7.248-11.615,24.239-12.081,32.462-0.887c5.074,6.908,5.894,14.457,3.108,22.41c-4.202,11.993-11.824,21.411-22.116,28.747   c-0.536,0.382-1.072,0.763-1.487,1.476c3.314-0.529,6.627-1.069,9.943-1.585c19.442-3.027,38.945-5.31,58.661-5.578   c3.169-0.043,6.442-1.201,9.453-2.387c9.381-3.694,17.501-9.231,23.703-17.324c5.378-7.016,7.048-14.958,5.69-23.583   c-0.647-4.111-2.6-7.635-5.489-10.547c-5.028-5.069-13.557-4.538-17.677,1.294c-2.187,3.094-2.258,5.604,0.314,8.043   c2.125,2.016,4.551,3.711,6.754,5.65c0.011,0.01,0.022,0.019,0.033,0.029c1.139,1.043,0.699,3.067-0.775,3.528   c-0.106,0.033-0.214,0.058-0.323,0.071c-0.932,0.114-2.11-0.191-2.894-0.731c-2.875-1.978-5.871-3.88-8.369-6.281   c-2.822-2.713-2.938-6.392-1.975-10.02c3.234-12.182,19.322-16.335,28.315-7.197c4.95,5.03,7.316,11.344,7.781,18.38   c0.914,13.828-4.583,24.725-15.425,32.967c-3.718,2.827-7.937,4.995-11.93,7.46c-0.366,0.226-0.751,0.419-1.513,0.841   c0.935,0.087,1.462,0.145,1.991,0.185c13.386,0.994,26.822,1.559,40.144,3.11c10.945,1.274,21.757,3.702,32.619,5.668   c1.211,0.219,2.493,0.558,3.502,1.212c0.716,0.464,1.434,1.556,1.427,2.362c-0.011,1.289-1.327,1.436-2.351,1.311   c-3.878-0.473-7.75-1.005-11.617-1.573c-42.97-6.316-85.964-7.083-129.05-1.016c-27.083,3.813-53.794,9.238-79.995,17.102   c-11.09,3.329-21.772,7.691-32.165,12.787c-1.515,0.743-3.108,1.495-4.744,1.765c-1.069,0.176-2.494-0.226-3.376-0.883   c-1.153-0.859-0.954-2.354-0.402-3.61c0.523-1.188,1.199-2.309,1.79-3.467c3.807-7.456,8.207-14.678,11.286-22.424   c5.897-14.831,6.087-30.089,0.944-45.245c-6.794-20.019-27.96-37.212-56.12-29.786c-4.837,1.275-9.609,3.135-14.082,5.379   c-9.4,4.715-17.569,11.179-24.591,19.029c-5.457,6.101-9.154,13.05-9.904,21.354c-0.061,0.673-0.086,1.434-0.418,1.976   c-0.402,0.655-1.072,1.49-1.704,1.562c-0.644,0.073-1.674-0.518-2.018-1.116c-0.633-1.1-1.033-2.391-1.277-3.651   c-1.69-8.714,1.012-16.448,5.687-23.648c1.298-1.999,2.804-3.857,4.477-5.555c11.93-12.109,25.942-20.641,42.739-24.053   c31.725-6.446,53.79,13.039,61.966,34.382c7.414,19.354,6.879,38.594-2.915,57.189C218.512,120.065,215.701,124.786,212.9,129.758z   "/>
	<path d="M461.246,374.168c0.087-5.753,3.5-10.523,8.635-12.327c0.799-0.281,1.616-0.518,2.434-0.739   c5.907-1.59,10.826,0.387,13.935,5.589c2.944,4.928,2.386,10.666-1.676,14.856c-7.492,7.728-17.155,4.226-21.394-1.303   C461.752,378.383,461.143,376.227,461.246,374.168z"/>
	<path d="M26.2,129.501c-0.037,6.615-5.714,12.384-12.166,12.36c-7.139-0.026-14.128-6.524-14.034-13.049   c0.094-6.493,6.611-12.948,12.997-12.874C19.947,116.019,26.239,122.483,26.2,129.501z"/>
	<path d="M446.062,398.063c-0.034,5.492-4.542,10.101-9.848,10.067c-5.367-0.035-9.788-4.266-9.711-9.294   c0.091-5.934,4.566-10.502,10.245-10.457C441.938,388.421,446.095,392.743,446.062,398.063z"/>
	<path d="M54.13,110.31c0.001,5.333-3.743,9.04-9.143,9.053c-5.379,0.012-9.702-3.838-9.698-8.638   c0.004-6.269,3.889-10.698,9.411-10.727C50.128,99.969,54.129,104.343,54.13,110.31z"/>
	<path d="M74.014,87.689c4.764,0.015,8.685,3.833,8.663,8.438c-0.02,4.326-3.843,8.014-8.285,7.995   c-4.548-0.02-8.399-3.922-8.417-8.528C65.957,91.141,69.482,87.675,74.014,87.689z"/>
	<path d="M408.051,423.386c-4.955-0.005-8.399-3.162-8.355-7.659c0.042-4.313,3.537-7.893,7.709-7.897   c4.403-0.005,8.366,3.866,8.366,8.169C415.77,420.107,412.339,423.391,408.051,423.386z"/>
	<path d="M218.536,235.597c-0.012-9.734,0.887-18.606,3.522-27.243c1.065-3.49,2.516-6.804,4.905-9.617   c3.585-4.221,7.545-4.801,11.61-1.061c2.659,2.447,4.955,5.464,6.794,8.59c4.649,7.902,6.947,16.68,8.541,25.636   c1.875,10.534,2.403,21.147,1.342,31.803c-0.686,6.898-1.915,13.715-5.076,19.962c-1.207,2.385-2.813,4.675-4.66,6.604   c-2.636,2.753-5.867,3.078-8.911,0.786c-2.306-1.737-4.428-3.921-6.075-6.293c-4.624-6.659-6.924-14.328-8.776-22.121   C219.584,253.514,218.635,244.231,218.536,235.597z M236.629,201.793c0.4-0.127,0.23-0.457,0.127-0.654   c-0.3-0.57-1.161-0.66-1.776-0.745c-1.757-0.242-3.444,0.334-4.358,1.754c-1.48,2.299-3.002,4.708-3.784,7.29   c-1.881,6.209-2.295,12.693-2.384,19.143c-0.16,11.506,0.743,22.945,2.647,34.31c1.127,6.728,3.269,13.044,6.818,18.868   c0.467,0.767,0.846,1.995,2.072,1.411c0.24-0.114-0.003-1.513-0.226-2.258c-0.273-0.913-0.784-1.752-1.149-2.641   c-1.137-2.771-2.614-5.463-3.317-8.342c-4.048-16.567-5.595-33.354-3.72-50.365c0.496-4.499,1.145-8.997,3.063-13.176   C233.33,201.694,233.249,202.61,236.629,201.793z"/>
	<path d="M348.315,228.832c-1.775-12.549-3.513-24.807-5.238-37.067c-0.299-2.128-0.494-4.272-0.828-6.394   c-0.138-0.876-0.043-1.41,0.927-1.595c2.774-0.529,5.525-1.201,8.316-1.611c3.159-0.463,5.442,1.036,7.089,3.656   c2.457,3.911,3.633,8.264,4.356,12.757c0.92,5.711,0.688,11.405-0.639,17.027c-1.283,5.432-4.531,9.272-9.713,11.432   C351.239,227.599,349.895,228.168,348.315,228.832z M348.472,188.63c2.669-0.997,4.127-1.004,6.686-0.096   c0.302,0.107,0.814,0.227,1.036-0.04c0.238-0.286,0.039-0.878-0.17-1.077c-0.476-0.453-1.078-1.022-1.663-1.063   c-1.668-0.117-3.386-0.198-5.023,0.076c-3.527,0.592-3.573,0.911-3.106,4.508c0.916,7.064,1.682,14.148,2.571,21.216   c0.374,2.969,0.855,5.929,1.417,8.868c0.088,0.46,0.748,1.336,1.33,1.177c0.535-0.146,0.573-1.069,0.518-1.567   C350.904,210.006,349.691,199.385,348.472,188.63z"/>
</g>















</svg>
