<?xml version="1.0" encoding="UTF-8"?>
<!-- Generator: Adobe Illustrator 26.5.1, SVG Export Plug-In . SVG Version: 6.00 Build 0)  -->
<svg xmlns="http://www.w3.org/2000/svg" xmlns:xlink="http://www.w3.org/1999/xlink" version="1.1" id="Capa_1" x="0px" y="0px" viewBox="0 0 512 512" style="enable-background:new 0 0 512 512;" xml:space="preserve" width="512" height="512">
<g>
	<path style="fill:#FFFFFF;" d="M511.335,341.344l-43.806-171.378c-1.973-7.718-7.576-14.061-14.988-16.974l-1.015-0.397   c-3.429-2.943-7.823-4.609-12.465-4.609c-1.6,0-3.199,0.203-4.746,0.598l-49.583,12.674l13.882-22.808   c3.557-5.845,2.201-13.424-3.162-17.673l-20.29-16.076c-2.41-1.909-5.381-2.93-8.418-2.93c-0.655,0-1.315,0.049-1.971,0.143   c-3.7,0.545-7.011,2.592-9.149,5.659l-5.569,7.987l-9.029-4.878c-2.001-1.081-4.219-1.631-6.445-1.631   c-1.568,0-3.139,0.271-4.643,0.821c-3.642,1.326-6.541,4.15-7.965,7.755l-9.878,25.011c-2.498,6.324,0.076,13.518,6.017,16.826   l23.178,12.897l-25.46,6.508c-3.712-12.713-9.774-29.042-19.32-44.536c20.562-75.311,5.358-85.534-0.462-89.445   c-3.372-2.264-7.462-3.46-11.827-3.46c-5.451,0-19.929,0-60.949,38.509c-1.022,0.962-1.992,1.884-2.906,2.758   c-4.039-0.47-8.163-0.706-12.325-0.706c-11.501,0-23.667,1.8-36.154,5.348c-20.307,5.761-36.894,15.235-49.411,28.209   c-0.467-0.033-0.942-0.066-1.426-0.099c-9.146-0.602-17.726-0.907-25.5-0.907c-24.678,0-50.592,2.42-55.678,20.387   c-3.417,12.095,3.981,25.058,24.74,43.349c10.602,9.34,22.838,18.377,31.446,24.451c0.808,9.971,2.499,20.349,5.054,31.028   l-21.048,5.379c-1.478-3.018-4.071-5.483-7.43-6.738l-24.248-9.064c-1.534-0.574-3.141-0.858-4.746-0.858   c-2.059,0-4.113,0.47-5.997,1.399c-3.354,1.655-5.874,4.62-6.968,8.197l-2.845,9.311l-10.09-1.869   c-0.821-0.152-1.647-0.227-2.469-0.227c-2.995,0-5.932,0.993-8.331,2.862c-3.058,2.383-4.95,5.962-5.197,9.829l-1.717,26.836   c-0.433,6.785,4.225,12.841,10.895,14.163l9.428,1.867l39.357,153.974c1.025,4.007,3.292,7.528,6.472,10.112l3.349,3.636   c4.691,5.086,11.349,8.005,18.267,8.005c2.073,0,4.144-0.263,6.152-0.774l233.173-59.603l1.678,21.836   c0.387,5.039,3.546,9.446,8.194,11.429c1.712,0.73,3.521,1.088,5.32,1.088c3.083,0,6.135-1.052,8.603-3.078l59.845-49.116   c1.508-1.238,2.701-2.758,3.538-4.444l81.83-20.916c5.457-1.394,10.044-4.83,12.917-9.675   C511.916,352.473,512.729,346.8,511.335,341.344z"/>
	<g>
		<g>
			<path style="fill:#FF93E2;" d="M74.3,447.196l6.066,6.581c2.813,3.051,7.073,4.313,11.094,3.285l402.183-102.804     c4.026-1.029,6.456-5.127,5.427-9.154l-43.808-171.381c-0.899-3.515-3.432-6.384-6.809-7.71l-9.914-3.893L74.3,447.196z"/>
			<path style="fill:#B179FF;" d="M485.641,346.388L80.575,449.929c-3.02,0.772-6.093-1.05-6.865-4.07L29.403,272.525     c-0.772-3.02,1.05-6.093,4.07-6.865l405.066-103.541c3.02-0.772,6.093,1.05,6.865,4.07l44.307,173.334     C490.483,342.543,488.661,345.616,485.641,346.388z"/>
			<g>
				<g>
					<path style="fill:#2E1144;" d="M42.921,277.469l40.908,160.036L478.387,336.65l-40.908-160.036L42.921,277.469z        M476.099,335.293L85.185,435.217L45.209,278.826l390.913-99.923L476.099,335.293z"/>
				</g>
				<g>
					
						<rect x="41.809" y="246.568" transform="matrix(0.9688 -0.2477 0.2477 0.9688 -53.6544 68.4982)" style="fill:#2E1144;" width="407.245" height="1.881"/>
				</g>
				<g>
					
						<rect x="46.682" y="265.632" transform="matrix(0.9689 -0.2476 0.2476 0.9689 -58.2141 70.2833)" style="fill:#2E1144;" width="407.245" height="1.881"/>
				</g>
				<g>
					
						<rect x="52.657" y="293.437" transform="matrix(0.9688 -0.2477 0.2477 0.9688 -66.0193 63.9178)" style="fill:#2E1144;" width="336.797" height="1.881"/>
					
						<rect x="404.907" y="240.268" transform="matrix(0.9689 -0.2476 0.2476 0.9689 -46.3663 113.7574)" style="fill:#2E1144;" width="48.307" height="1.881"/>
				</g>
				<g>
					
						<rect x="57.535" y="312.519" transform="matrix(0.9689 -0.2476 0.2476 0.9689 -70.5834 65.7085)" style="fill:#2E1144;" width="336.797" height="1.881"/>
					
						<rect x="409.784" y="259.35" transform="matrix(0.9689 -0.2476 0.2476 0.9689 -50.9395 115.5595)" style="fill:#2E1144;" width="48.307" height="1.881"/>
				</g>
				<g>
					
						<rect x="61.315" y="322.877" transform="matrix(0.9689 -0.2476 0.2476 0.9689 -71.9337 75.6895)" style="fill:#2E1144;" width="407.245" height="1.881"/>
				</g>
				<g>
					
						<rect x="66.193" y="341.959" transform="matrix(0.9688 -0.2477 0.2477 0.9688 -76.5206 77.5095)" style="fill:#2E1144;" width="407.245" height="1.881"/>
				</g>
				<g>
					
						<rect x="71.07" y="361.041" transform="matrix(0.9688 -0.2477 0.2477 0.9688 -81.0947 79.312)" style="fill:#2E1144;" width="407.245" height="1.881"/>
				</g>
				<g>
					
						<rect x="65.14" y="271.579" transform="matrix(0.9688 -0.2477 0.2477 0.9688 -65.4338 24.8555)" style="fill:#2E1144;" width="1.881" height="1.881"/>
					
						<rect x="72.576" y="290.829" transform="matrix(0.9688 -0.2477 0.2477 0.9688 -72.406 27.6031)" style="fill:#2E1144;" width="1.881" height="21.558"/>
					
						<rect x="89.645" y="328.053" transform="matrix(0.9688 -0.2477 0.2477 0.9688 -88.4167 33.9131)" style="fill:#2E1144;" width="1.881" height="80.663"/>
					
						<rect x="105.582" y="429.793" transform="matrix(0.9688 -0.2477 0.2477 0.9688 -103.3622 39.8029)" style="fill:#2E1144;" width="1.881" height="1.881"/>
				</g>
				<g>
					
						<rect x="108.635" y="263.087" transform="matrix(0.9688 -0.2477 0.2477 0.9688 -82.1946 37.905)" style="fill:#2E1144;" width="1.881" height="165.182"/>
				</g>
				<g>
					
						<rect x="131.891" y="257.142" transform="matrix(0.9688 -0.2477 0.2477 0.9688 -79.9979 43.479)" style="fill:#2E1144;" width="1.881" height="165.182"/>
				</g>
				<g>
					
						<rect x="155.164" y="251.193" transform="matrix(0.9688 -0.2477 0.2477 0.9688 -77.7996 49.0574)" style="fill:#2E1144;" width="1.881" height="165.182"/>
				</g>
				<g>
					
						<rect x="178.438" y="245.244" transform="matrix(0.9688 -0.2477 0.2477 0.9688 -75.6014 54.636)" style="fill:#2E1144;" width="1.881" height="165.182"/>
				</g>
				<g>
					
						<rect x="198.602" y="239.688" transform="matrix(0.9688 -0.2477 0.2477 0.9688 -70.5063 59.0678)" style="fill:#2E1144;" width="1.881" height="140.219"/>
					
						<rect x="221.914" y="400.057" transform="matrix(0.9688 -0.2477 0.2477 0.9688 -92.3729 67.6887)" style="fill:#2E1144;" width="1.881" height="1.881"/>
				</g>
				<g>
					
						<rect x="221.876" y="233.739" transform="matrix(0.9688 -0.2477 0.2477 0.9688 -68.308 64.6463)" style="fill:#2E1144;" width="1.881" height="140.219"/>
					
						<rect x="245.188" y="394.108" transform="matrix(0.9688 -0.2477 0.2477 0.9688 -90.1743 73.2676)" style="fill:#2E1144;" width="1.881" height="1.881"/>
				</g>
				<g>
					
						<rect x="245.131" y="227.795" transform="matrix(0.9688 -0.2477 0.2477 0.9688 -66.1114 70.2204)" style="fill:#2E1144;" width="1.881" height="140.219"/>
					
						<rect x="268.443" y="388.163" transform="matrix(0.9688 -0.2477 0.2477 0.9688 -87.9807 78.8459)" style="fill:#2E1144;" width="1.881" height="1.881"/>
				</g>
				<g>
					
						<rect x="268.405" y="221.846" transform="matrix(0.9688 -0.2477 0.2477 0.9688 -63.9131 75.7988)" style="fill:#2E1144;" width="1.881" height="140.219"/>
					
						<rect x="291.717" y="382.214" transform="matrix(0.9689 -0.2476 0.2476 0.9689 -85.7636 84.4016)" style="fill:#2E1144;" width="1.881" height="1.881"/>
				</g>
				<g>
					
						<rect x="291.679" y="215.897" transform="matrix(0.9688 -0.2477 0.2477 0.9688 -61.7148 81.3773)" style="fill:#2E1144;" width="1.881" height="140.219"/>
					
						<rect x="314.99" y="376.265" transform="matrix(0.9689 -0.2476 0.2476 0.9689 -83.5656 89.9794)" style="fill:#2E1144;" width="1.881" height="1.881"/>
				</g>
				<g>
					
						<rect x="314.934" y="209.952" transform="matrix(0.9688 -0.2477 0.2477 0.9688 -59.5182 86.9514)" style="fill:#2E1144;" width="1.881" height="140.219"/>
					
						<rect x="338.246" y="370.32" transform="matrix(0.9688 -0.2477 0.2477 0.9688 -81.3836 95.5745)" style="fill:#2E1144;" width="1.881" height="1.881"/>
				</g>
				<g>
					
						<rect x="341.299" y="203.614" transform="matrix(0.9688 -0.2477 0.2477 0.9688 -60.2183 93.6719)" style="fill:#2E1144;" width="1.881" height="165.182"/>
				</g>
				<g>
					
						<rect x="364.554" y="197.67" transform="matrix(0.9688 -0.2477 0.2477 0.9688 -58.0217 99.246)" style="fill:#2E1144;" width="1.881" height="165.182"/>
				</g>
				<g>
					
						<rect x="377.42" y="193.03" transform="matrix(0.9688 -0.2477 0.2477 0.9688 -46.0643 100.9784)" style="fill:#2E1144;" width="1.881" height="81.133"/>
					
						<rect x="400.08" y="289.127" transform="matrix(0.9688 -0.2477 0.2477 0.9688 -67.3141 109.3558)" style="fill:#2E1144;" width="1.881" height="66.234"/>
				</g>
				<g>
					
						<rect x="408.01" y="186.161" transform="matrix(0.9688 -0.2477 0.2477 0.9688 -50.7266 109.2606)" style="fill:#2E1144;" width="1.881" height="140.219"/>
					
						<rect x="431.322" y="346.529" transform="matrix(0.9688 -0.2477 0.2477 0.9688 -72.5911 117.8858)" style="fill:#2E1144;" width="1.881" height="1.881"/>
				</g>
				<g>
					
						<rect x="414.136" y="182.371" transform="matrix(0.9688 -0.2477 0.2477 0.9688 -32.469 108.5146)" style="fill:#2E1144;" width="1.881" height="1.881"/>
					
						<rect x="433.765" y="200.086" transform="matrix(0.9688 -0.2477 0.2477 0.9688 -50.8768 115.7688)" style="fill:#2E1144;" width="1.881" height="120.035"/>
					
						<rect x="454.578" y="340.584" transform="matrix(0.9688 -0.2477 0.2477 0.9688 -70.3914 123.4534)" style="fill:#2E1144;" width="1.881" height="1.881"/>
				</g>
			</g>
		</g>
		<g>
			<g>
				
					<path style="fill:none;stroke:#2E1144;stroke-width:6.778;stroke-linecap:round;stroke-linejoin:round;stroke-miterlimit:10;" d="      M156.928,366.039l2.865,11.82c1.8,7.425,9.378,11.897,16.748,9.883l110.37-30.163"/>
				<path style="fill:#2E1144;" d="M296.691,351.331c2.402,6.922-3.214,15.159-12.544,18.397c-9.33,3.238-18.841,0.251-21.244-6.671      c-2.402-6.922,3.214-15.159,12.544-18.397C284.777,341.421,294.289,344.408,296.691,351.331z"/>
			</g>
			<g>
				<g>
					<g>
						<g>
							<path style="fill:#00DBDA;" d="M115.722,199.565l21.561-68.81c0,0-1.766-0.192-4.807-0.482         c-2.838-0.264-6.813-0.58-11.448-0.895c-23.307-1.537-63.822-2.442-67.242,9.64         C48.979,156.029,115.722,199.565,115.722,199.565z"/>
							<path style="fill:#FF93E2;" d="M125.381,139.502c0,0-53.137-6.757-56.162-0.283c-3.025,6.474,43.725,37.417,43.725,37.417         L125.381,139.502z"/>
						</g>
						<path style="fill:#2E1144;" d="M112.956,176.638l19.52-46.365c-2.838-0.264-6.813-0.58-11.448-0.895        c-0.888,2.709-1.885,5.864-2.848,9.293C114.862,150.286,111.78,165.015,112.956,176.638z"/>
					</g>
					<g>
						<g>
							<path style="fill:#00DBDA;" d="M282.111,138.942l-59.826-37.858c0,0,1.185-1.213,3.251-3.273         c1.932-1.917,4.674-4.563,7.904-7.608c16.274-15.276,45.688-40.525,55.922-33.657         C303.765,66.224,282.111,138.942,282.111,138.942z"/>
							<path style="fill:#FF93E2;" d="M236.671,100.339c0,0,35.028-37.237,41.394-34.28c6.366,2.957-8.515,54.224-8.515,54.224         L236.671,100.339z"/>
						</g>
						<path style="fill:#2E1144;" d="M269.543,120.292l-44.008-22.48c1.932-1.917,4.674-4.563,7.904-7.608        c2.384,1.466,5.134,3.197,8.033,5.151C251.333,101.941,263.004,110.974,269.543,120.292z"/>
					</g>
					<g>
						<g>
							<g>
								<path style="fill:#00DBDA;" d="M118.834,244.511c3.245,10.722,6.674,19.309,8.865,24.45c1.249,2.918,2.112,4.72,2.319,5.163          l12.883-5.408c-0.056-0.104-0.868-1.82-2.14-4.812c-2.028-4.846-5.278-13.083-8.367-23.286          c-8.088-26.721-15.272-67.062,2.002-96.421c9.196-15.654,23.951-26.166,45.221-32.244          c6.562-1.862,12.901-3.091,19.016-3.688c15.241-1.569,29.035,0.788,41.169,7.014c45.413,23.293,55.214,92.759,55.304,93.459          l13.763-2.5c-0.376-2.775-8.684-61.904-47.437-92.459c-4.171-3.297-8.699-6.244-13.613-8.773          c-20.373-10.466-44.4-11.884-71.365-4.223c-25.013,7.097-43.308,20.262-54.321,39.025          C102.748,172.826,110.213,216.111,118.834,244.511z"/>
							</g>
							<path style="fill:#2E1144;" d="M118.834,244.511c3.245,10.722,6.674,19.309,8.865,24.45         c4.649-0.764,9.209-2.471,13.063-5.058c-2.028-4.846-5.278-13.083-8.367-23.286         C127.768,241.536,123.108,242.587,118.834,244.511z"/>
							<path style="fill:#2E1144;" d="M198.634,108.265c15.241-1.569,29.035,0.788,41.169,7.014         c45.413,23.293,55.214,92.759,55.304,93.459l13.763-2.5c-0.376-2.775-8.684-61.904-47.437-92.459         c-10.168-3.199-20.27-7.443-31.361-8.528C220.057,104.246,208.845,106.362,198.634,108.265z"/>
						</g>
						<g>
							<g>
								<path style="fill:#00DBDA;" d="M258.564,280.37c7.606,25.129,26.573,43.367,49.231,46.87l0.022-0.007          c7.599,1.16,15.583,0.691,23.729-1.745c1.947-0.582,3.866-1.257,5.706-2.03c1.41-0.583,2.78-1.215,4.117-1.878          c26.134-13.228,39.602-44.437,30.527-74.417c-9.243-30.536-38.69-49.295-68.366-45.105          c-1.779,0.249-3.558,0.579-5.332,1.009c-1.141,0.26-2.294,0.565-3.435,0.906c-9.578,2.864-17.538,7.769-23.734,14.146          c-0.028-0.012-0.028-0.012-0.022,0.007C256.199,233.298,251.406,256.723,258.564,280.37z"/>
							</g>
							<g>
								
									<ellipse transform="matrix(0.9559 -0.2936 0.2936 0.9559 -66.2647 98.8897)" style="fill:#2E1144;" cx="296.306" cy="270.197" rx="43.235" ry="58.455"/>
							</g>
							<g>
								<path style="fill:#B179FF;" d="M262.385,280.338c7.685,25.388,28.122,41.793,45.577,36.573          c17.432-5.213,25.37-30.104,17.685-55.492c-7.679-25.37-28.117-41.774-45.549-36.561          C262.644,230.078,254.706,254.968,262.385,280.338z M264.533,279.696c-7.388-24.407-0.171-48.213,16.098-53.078          c16.246-4.859,35.503,11.031,42.891,35.437c7.388,24.407,0.149,48.22-16.097,53.078          C291.155,319.998,271.921,304.102,264.533,279.696z"/>
							</g>
							<g>
								<path style="fill:#2E1144;" d="M337.252,323.458c1.41-0.583,2.78-1.215,4.117-1.878          c11.904-15.737,21.487-39.383,12.725-71.396c-8.398-30.728-30.082-43.347-50.563-48.127          c-1.779,0.249-3.558,0.579-5.332,1.009c21.119,3.822,44.844,15.608,53.646,47.75          C360.955,284.14,349.805,308.173,337.252,323.458z"/>
							</g>
						</g>
						<g>
							<g>
								<path style="fill:#2E1144;" d="M140.114,322.313c8.722,28.814-12.98,50.394,13.535,49.229          c1.595-0.053,3.189-0.186,4.762-0.394c1.69-0.223,3.379-0.526,5.064-0.929c1.074-0.241,2.182-0.531,3.256-0.853          c2.059-0.616,4.039-1.329,5.936-2.159c6.45-2.797,11.965-6.749,16.433-11.579c0.028,0.012,0.028,0.012,0.022-0.007          c13.868-14.891,18.08-38.142,10.923-61.789c-7.606-25.129-25.924-43.561-47.53-47.378l-0.022,0.007          c-5.49-0.963-11.186-0.997-16.965,0.066c-1.852,0.332,6.447,28.922,4.59,29.477c-1.835,0.549-12.987-1.322-14.715-0.584          c-1.342,0.563-3.492-24.458-4.739-23.822c-1.035,0.532-2.036,1.094-3.021,1.711          C94.982,266.972,131.42,293.591,140.114,322.313z"/>
							</g>
							<g>
								<path style="fill:#00DBDA;" d="M92.708,325.246c8.722,28.814,34.426,47.46,60.941,46.295          c1.595-0.053,3.189-0.186,4.762-0.394c0.985-0.133,1.986-0.291,2.976-0.486c0.694-0.127,1.382-0.272,2.087-0.442          c0.162-0.029,0.296-0.069,0.453-0.116c0.94-0.2,1.886-0.463,2.803-0.737c2.059-0.616,4.039-1.329,5.936-2.159          c13.263-17.375,16.814-42.408,9.129-67.796c-7.78-25.703-25.114-45.398-46.268-52.885c-1.852,0.332-3.721,0.769-5.578,1.325          c-1.835,0.549-3.664,1.197-5.393,1.936c-0.89,0.367-1.745,0.764-2.573,1.173c-0.453,0.196-0.895,0.429-1.32,0.637          c-0.274,0.143-0.548,0.285-0.817,0.446c-0.761,0.389-1.488,0.808-2.204,1.265C94.982,266.972,84.014,296.525,92.708,325.246          z"/>
							</g>
							
								<ellipse transform="matrix(0.9569 -0.2905 0.2905 0.9569 -86.8755 48.6466)" style="fill:none;stroke:#2E1144;stroke-width:2.0572;stroke-miterlimit:10;" cx="120.423" cy="316.954" rx="17.592" ry="40.013"/>
							<g>
								<path style="fill:#2E1144;" d="M167.728,310.908c4.984,18.159,2.578,39.072-6.341,59.753          c0.694-0.127,1.382-0.272,2.087-0.442c0.162-0.029,0.296-0.069,0.453-0.116c8.696-20.694,10.978-41.612,5.983-59.807          c-5.971-21.902-22.085-41.841-47.928-59.335c-0.453,0.196-0.895,0.429-1.32,0.637c-0.274,0.143-0.548,0.285-0.817,0.446          C145.694,269.395,161.785,289.179,167.728,310.908z"/>
							</g>
						</g>
					</g>
				</g>
				<g>
					<g>
						<path style="fill:#FFE7DE;" d="M108.187,274.572c-0.671,0.783-1.398,1.557-2.329,2.071c-0.93,0.514-2.108,0.732-3.054,0.345        c-0.963-0.395-1.519-1.355-1.597-2.33c-0.276-3.438,5.052-10.14,9.345-10.255C116.67,264.239,109.855,272.625,108.187,274.572        z"/>
						<path style="fill:#FFE7DE;" d="M100.076,283.503c0.384,0.888,0.126,1.918-0.136,2.876c-1.15,4.205-2.301,8.411-3.451,12.616        c-0.403,1.473-0.951,3.125-2.425,3.873c-0.253,0.129-0.556,0.225-0.814,0.134c-0.27-0.095-0.404-0.362-0.503-0.61        c-1.534-3.824-0.562-8.19,0.536-12.274c0.473-1.76,0.978-3.54,1.948-5.146C96.115,283.509,98.853,280.674,100.076,283.503z"/>
					</g>
					<g>
						<path style="fill:#FFE7DE;" d="M116.89,183.905c2.005,2.158,2.846,5.194,2.236,8.079c-0.176,0.832-0.541,1.737-1.368,2.152        c-0.662,0.331-1.483,0.254-2.11-0.065c-0.627-0.32-1.085-0.85-1.453-1.411c-1.337-2.04-1.617-4.664-0.749-7.014        C113.985,184.188,115.363,182.262,116.89,183.905z"/>
						<path style="fill:#FFE7DE;" d="M122.512,208.116c0.165,1.359,0.24,2.804-0.422,4.077c-0.662,1.273-2.299,2.271-3.715,1.857        c-0.82-0.24-1.394-0.88-1.861-1.53c-1.816-2.522-4.54-9.748-0.897-12.318C119.915,197.169,122.233,205.822,122.512,208.116z"/>
					</g>
				</g>
			</g>
		</g>
		<g>
			<path style="fill:#FF93E2;" d="M58.433,288.725l10.324-43.229l-24.248-9.064l-6.381,20.884l-21.988-4.072l-1.716,26.837     l43.781,8.67c0.099,0.142,0.164,0.238,0.164,0.238l0.047-0.196l0.063,0.012C58.481,288.804,58.46,288.769,58.433,288.725z"/>
			<path style="fill:#FF93E2;" d="M364.795,169.77l23.106-37.966l-20.29-16.076l-12.488,17.913l-19.673-10.631l-9.879,25.011     l39,21.702c0.05,0.166,0.084,0.277,0.084,0.277l0.105-0.172l0.056,0.031C364.816,169.86,364.806,169.82,364.795,169.77z"/>
		</g>
		<polygon style="fill:#2E1144;" points="172.426,209.637 188.127,145.618 244.604,181.637   "/>
		<polygon style="fill:#2E1144;" points="343.184,431.39 338.134,365.666 403.028,382.273   "/>
	</g>
</g>















</svg>
