<?xml version="1.0" encoding="iso-8859-1"?>
<!-- Generator: Adobe Illustrator 26.5.1, SVG Export Plug-In . SVG Version: 6.00 Build 0)  -->
<svg xmlns="http://www.w3.org/2000/svg" xmlns:xlink="http://www.w3.org/1999/xlink" version="1.1" id="Capa_1" x="0px" y="0px" viewBox="0 0 512 512" style="enable-background:new 0 0 512 512;" xml:space="preserve">
<g>
	<path style="fill:#FFFFFF;" d="M255.665,511.232c-63.255-0.007-127.458-26.567-176.147-72.872   c-24.09-22.911-43.217-49.297-56.849-78.424C8.36,329.364,0.862,297.279,0.383,264.572C-3.26,193.52,19.162,130.321,65.233,81.797   c24.495-25.798,54.297-46.042,88.577-60.168C186.927,7.982,223.43,0.769,259.373,0.769c72.47,0,138.959,28.133,187.235,79.211   c32.792,32.556,55.759,84.07,63.022,141.362c3.613,28.495,3.095,56.373-1.539,82.86c-4.956,28.33-14.407,53.574-28.095,75.036   c-12.789,22.274-28.888,42.582-47.849,60.358c-36.067,33.903-80.219,56.849-127.688,66.358   c-15.937,3.502-32.345,5.278-48.771,5.278C255.68,511.232,255.673,511.232,255.665,511.232z"/>
	<g>
		<g>
			<g>
				<g>
					<path style="fill:#E36352;" d="M471.764,374.246c-12.374,21.596-28.039,41.3-46.196,58.323       c-34.112,32.065-77.118,54.768-123.079,63.957C160.077,527.888,12.032,409.382,10.021,264.254       C-2.343,26,292.354-69.424,439.723,86.71C503.822,150.219,525.903,289.604,471.764,374.246z"/>
				</g>
			</g>
		</g>
		<g>
			<g>
				<g>
					<g>
						<g>
							<path style="fill:#412945;" d="M72.993,265.895c-0.242,0-0.486-0.061-0.712-0.189L32.916,243.39         c-0.694-0.393-0.938-1.275-0.544-1.969c0.394-0.694,1.275-0.938,1.97-0.544l39.365,22.317         c0.693,0.393,0.938,1.275,0.544,1.969C73.984,265.631,73.496,265.895,72.993,265.895z"/>
						</g>
					</g>
					<g>
						<g>
							<path style="fill:#412945;" d="M68.384,274.025c-0.242,0-0.486-0.061-0.712-0.189L28.308,251.52         c-0.693-0.393-0.938-1.275-0.544-1.969c0.395-0.694,1.275-0.937,1.97-0.544l39.364,22.317         c0.693,0.393,0.938,1.275,0.544,1.969C69.375,273.761,68.887,274.025,68.384,274.025z"/>
						</g>
					</g>
					<g>
						<g>
							<path style="fill:#412945;" d="M63.775,282.154c-0.242,0-0.486-0.061-0.712-0.189l-39.365-22.317         c-0.693-0.393-0.938-1.275-0.544-1.969c0.395-0.694,1.275-0.937,1.97-0.544l39.365,22.317         c0.693,0.393,0.938,1.275,0.544,1.969C64.767,281.89,64.279,282.154,63.775,282.154z"/>
						</g>
					</g>
				</g>
				<g>
					<g>
						<g>
							<path style="fill:#412945;" d="M332.118,456.369c-0.466,0-0.922-0.224-1.201-0.64c-0.444-0.663-0.267-1.56,0.395-2.005         l37.581-25.203c0.663-0.444,1.56-0.268,2.005,0.395c0.444,0.663,0.267,1.56-0.395,2.004l-37.581,25.203         C332.675,456.29,332.396,456.369,332.118,456.369z"/>
						</g>
					</g>
					<g>
						<g>
							<path style="fill:#412945;" d="M337.323,464.13c-0.466,0-0.922-0.224-1.201-0.64c-0.444-0.663-0.267-1.56,0.395-2.005         l37.582-25.203c0.663-0.444,1.56-0.268,2.005,0.395c0.444,0.663,0.267,1.56-0.395,2.004l-37.582,25.204         C337.88,464.051,337.6,464.13,337.323,464.13z"/>
						</g>
					</g>
					<g>
						<g>
							<path style="fill:#412945;" d="M342.528,471.892c-0.466,0-0.922-0.224-1.201-0.64c-0.444-0.663-0.267-1.56,0.395-2.005         l37.581-25.203c0.663-0.444,1.56-0.268,2.005,0.395c0.444,0.663,0.267,1.56-0.395,2.004l-37.581,25.203         C343.085,471.813,342.806,471.892,342.528,471.892z"/>
						</g>
					</g>
				</g>
				<g>
					<g>
						<g>
							<path style="fill:#412945;" d="M459.71,163.894c-0.309,0-0.619-0.098-0.881-0.301l-35.829-27.639         c-0.632-0.487-0.749-1.394-0.262-2.026c0.487-0.633,1.396-0.749,2.026-0.262l35.829,27.639         c0.632,0.487,0.749,1.395,0.262,2.026C460.57,163.701,460.142,163.894,459.71,163.894z"/>
						</g>
					</g>
					<g>
						<g>
							<path style="fill:#412945;" d="M454.002,171.293c-0.309,0-0.619-0.098-0.881-0.301l-35.829-27.639         c-0.632-0.487-0.749-1.395-0.262-2.026c0.486-0.632,1.396-0.748,2.026-0.262l35.829,27.639         c0.632,0.487,0.749,1.394,0.262,2.026C454.863,171.1,454.435,171.293,454.002,171.293z"/>
						</g>
					</g>
					<g>
						<g>
							<path style="fill:#412945;" d="M448.293,178.693c-0.309,0-0.619-0.098-0.881-0.301l-35.828-27.639         c-0.632-0.487-0.749-1.395-0.262-2.026c0.486-0.633,1.396-0.749,2.026-0.262l35.828,27.639         c0.632,0.487,0.749,1.395,0.261,2.026C449.154,178.499,448.726,178.693,448.293,178.693z"/>
						</g>
					</g>
				</g>
				<g>
					<g>
						<g>
							<path style="fill:#412945;" d="M182.147,49.901c-0.466,0-0.922-0.224-1.201-0.64c-0.444-0.663-0.267-1.56,0.395-2.005         l37.582-25.203c0.663-0.444,1.561-0.269,2.006,0.395c0.444,0.663,0.267,1.56-0.395,2.004l-37.582,25.204         C182.704,49.822,182.424,49.901,182.147,49.901z"/>
						</g>
					</g>
					<g>
						<g>
							<path style="fill:#412945;" d="M187.352,57.662c-0.466,0-0.922-0.224-1.201-0.64c-0.444-0.663-0.267-1.56,0.395-2.004         l37.583-25.203c0.661-0.444,1.559-0.268,2.005,0.395c0.444,0.663,0.267,1.56-0.395,2.004l-37.583,25.203         C187.909,57.583,187.63,57.662,187.352,57.662z"/>
						</g>
					</g>
					<g>
						<g>
							<path style="fill:#412945;" d="M192.557,65.424c-0.466,0-0.922-0.224-1.201-0.64c-0.444-0.663-0.267-1.56,0.395-2.004         l37.582-25.204c0.663-0.444,1.56-0.268,2.006,0.395c0.444,0.663,0.267,1.56-0.395,2.004l-37.582,25.204         C193.114,65.345,192.834,65.424,192.557,65.424z"/>
						</g>
					</g>
				</g>
				<g>
					<g>
						<path style="fill:#412945;" d="M108.446,422.116c-10.764,0-19.52-8.757-19.52-19.521c0-10.763,8.757-19.52,19.52-19.52        s19.521,8.757,19.521,19.52C127.967,413.359,119.21,422.116,108.446,422.116z M108.446,385.965        c-9.17,0-16.631,7.46-16.631,16.63s7.46,16.631,16.631,16.631s16.631-7.461,16.631-16.631S117.616,385.965,108.446,385.965z"/>
					</g>
				</g>
				<g>
					<g>
						<path style="fill:#412945;" d="M323.387,67.489c-8.73,0-15.832-7.102-15.832-15.832c0-8.73,7.102-15.832,15.832-15.832        c8.729,0,15.831,7.102,15.831,15.832C339.218,60.387,332.116,67.489,323.387,67.489z M323.387,38.716        c-7.137,0-12.942,5.806-12.942,12.942c0,7.136,5.806,12.942,12.942,12.942c7.136,0,12.941-5.806,12.941-12.942        C336.328,44.521,330.522,38.716,323.387,38.716z"/>
					</g>
				</g>
				<g>
					<g>
						<path style="fill:#412945;" d="M433.316,399.491c-7.509,0-13.619-6.109-13.619-13.619c0-7.509,6.109-13.618,13.619-13.618        s13.618,6.109,13.618,13.618C446.934,393.381,440.825,399.491,433.316,399.491z M433.316,375.144        c-5.916,0-10.729,4.813-10.729,10.728c0,5.916,4.813,10.729,10.729,10.729c5.916,0,10.728-4.813,10.728-10.729        C444.044,379.956,439.232,375.144,433.316,375.144z"/>
					</g>
				</g>
				<g>
					<g>
						<path style="fill:#412945;" d="M480.562,262.056c-8.323,0-15.094-6.771-15.094-15.094c0-8.323,6.771-15.093,15.094-15.093        c8.323,0,15.094,6.771,15.094,15.093C495.656,255.285,488.884,262.056,480.562,262.056z M480.562,234.758        c-6.729,0-12.204,5.475-12.204,12.204c0,6.729,5.475,12.204,12.204,12.204c6.729,0,12.205-5.475,12.205-12.204        C492.766,240.233,487.291,234.758,480.562,234.758z"/>
					</g>
				</g>
				<g>
					<g>
						<path style="fill:#412945;" d="M42.661,185.534c-8.526,0-15.463-6.937-15.463-15.463c0-8.526,6.937-15.463,15.463-15.463        c8.526,0,15.462,6.937,15.462,15.463C58.123,178.597,51.187,185.534,42.661,185.534z M42.661,157.498        c-6.933,0-12.573,5.64-12.573,12.573c0,6.933,5.64,12.573,12.573,12.573c6.933,0,12.573-5.64,12.573-12.573        C55.234,163.138,49.593,157.498,42.661,157.498z"/>
					</g>
				</g>
			</g>
			<g>
				<g>
					<path style="fill:#F7EDE5;" d="M392.015,74.014l-22.436,39.963c0,0,52.583-10.517,50.48-11.218       C417.956,102.058,392.015,74.014,392.015,74.014z"/>
				</g>
			</g>
			<g>
				<g>
					<path style="fill:#F7EDE5;" d="M453.989,316.006l-22.436,39.963c0,0,52.583-10.517,50.48-11.218       C479.93,344.051,453.989,316.006,453.989,316.006z"/>
				</g>
			</g>
			<g>
				<g>
					<path style="fill:#F7EDE5;" d="M247.021,436.75l-40.669,21.129c0,0,49.746,20.024,48.371,18.285       C253.348,474.424,247.021,436.75,247.021,436.75z"/>
				</g>
			</g>
			<g>
				<g>
					<path style="fill:#F7EDE5;" d="M87.168,314.278l-40.669,21.129c0,0,49.746,20.024,48.371,18.285       C93.495,351.953,87.168,314.278,87.168,314.278z"/>
				</g>
			</g>
			<g>
				<g>
					<path style="fill:#F7EDE5;" d="M114.194,97.675l42.352-17.513c0,0-47.816-24.274-46.598-22.422       C111.167,59.593,114.194,97.675,114.194,97.675z"/>
				</g>
			</g>
		</g>
		<g>
			<g>
				<path style="fill:#F8BDFF;" d="M445.109,309.291c-5.558,15.277,12.494,92.361-80.566,118.056      c-43.529,12.022-92.679,20.237-135.011,20.318c-3.264,0.011-8.956-1.324-12.134-1.414c-1.976-0.056-1.466,1.163-3.406,1.07      c-40.954-2.049-73.322-12.993-84.174-37.336c-22.92-51.389-1.387-66.667-17.362-69.45      c-21.116-3.663-70.874-32.268-31.334-100.739c0.254-0.444,6.883-1.815,7.146-2.269c0,0-6.611,0.428-7.046-0.515      c-4.851-10.481-32.821-75.325,4.153-102.725c30.355-22.503,40.283-16.673,58.335-23.618      c18.061-6.945,28.469-24.308,70.139-29.856c41.67-5.558,56.947,11.107,81.255,15.277c24.308,4.162,44.444,2.774,62.505,27.78      c16.628,23.02,10.871,63.72,9.864,70.003c-0.091,0.535-0.145,0.825-0.145,0.825s0.145,0.009,0.435,0.036      c4.207,0.326,37.998,3.228,65.37,13.836c2.276,0.879,4.497,1.813,6.664,2.802c11.134,5.095,20.563,11.678,25.45,20.137      C483.297,262.761,450.658,294.014,445.109,309.291z"/>
			</g>
			<g>
				<g>
					<path style="fill:#412945;" d="M438.871,209.341c-1.977-0.363-3.89-0.617-5.739-0.771c-9.556-0.761-17.317,1.433-23.111,6.528       c-16.102,14.162-14.216,48.27-12.847,73.176c0.082,1.478,0.163,2.91,0.236,4.307c-7.181-5.268-30.201-19.194-79.677-25.613       c-0.544-0.073-1.088-0.136-1.632-0.2c0.045-0.19,0.054-0.39,0.009-0.598c-0.082-0.372-8.024-38.125,9.828-58.117       c8.731-9.783,22.295-13.818,40.328-11.995c0.734,0.072,1.414-0.471,1.487-1.224c0-0.036,0.009-0.063,0.009-0.1       c0.009-0.317-0.1-0.617-0.29-0.861c-0.209-0.29-0.544-0.49-0.934-0.526c-18.94-1.913-33.293,2.43-42.64,12.902       c-18.124,20.318-11.315,56.322-10.508,60.211c-52.876-5.648-101.809,10.853-111.338,14.316       c-4.198-17.689-9.855-33.8-21.542-41.507c-4.152-17.272-8.35-39.675-5.141-61.68c3.327-22.802,14.507-41.942,30.654-52.505       c13.147-8.595,29.204-10.707,41.915-5.512c9.302,3.799,17.743,11.687,25.087,23.437c0.399,0.635,1.242,0.825,1.877,0.435       c0.635-0.399,0.834-1.242,0.435-1.877c-7.652-12.249-16.528-20.5-26.375-24.516c-13.518-5.522-30.545-3.319-44.426,5.757       c-16.8,10.989-28.415,30.817-31.86,54.39c-3.119,21.397,0.598,43.057,4.597,60.202c-27.082-13.536-89.243-1.732-96.052-0.39       c0.435,0.943,0.68,1.441,0.68,1.441c-0.263,0.453-0.526,0.898-0.78,1.342c0.036,0.009,0.082,0,0.127-0.009       c0.444-0.091,28.65-5.739,55.859-6.029c-9.774,2.756-20.019,9.112-28.125,22.268c-8.949,14.525-11.533,28.451-7.679,41.389       c4.76,15.994,18.632,27.417,30.019,32.785c16.048,7.553,29.294,15.975,28.85,42.722c-0.326,19.457,5.014,60.873,53.819,74.401       c5.059,0.245,10.245,0.363,15.54,0.344c-60.764-8.259-66.984-54.164-66.639-74.699c0.471-28.333-14.117-37.563-30.409-45.233       c-3.753-1.768-22.757-11.56-28.578-31.098c-3.618-12.168-1.133-25.35,7.398-39.177c9.873-16.03,24.108-23.682,42.259-22.748       c12.884,0.671,23.319,5.658,24.58,6.274c0.181,0.571,0.698,0.952,1.278,0.952c0.054,0,0.109-0.009,0.172-0.018       c10.69,7.471,15.994,23.147,20.01,40.319c-0.1,0.29-0.109,0.617,0.018,0.934c0.073,0.181,0.172,0.335,0.308,0.462       c1.025,4.497,1.986,9.094,2.929,13.654c3.481,16.791,7.09,34.145,14.488,45.387c13.391,20.364,42.477,27.463,71.599,27.463       c12.149,0,24.308-1.242,35.333-3.264c45.659-8.368,74.11-29.34,76.114-56.095c0.299-3.962,0.181-8.967-0.081-14.661       c0.127-0.354,0.109-0.734-0.054-1.079c-0.109-2.203-0.236-4.515-0.363-6.909c-1.342-24.353-3.191-57.7,11.923-70.991       c6.265-5.503,15.196-7.226,26.556-5.123c0.58,0.109,1.133-0.163,1.423-0.644c0.073-0.136,0.136-0.29,0.163-0.453       C440.095,210.184,439.614,209.477,438.871,209.341z M397.681,310.578c-1.904,25.441-29.53,45.487-73.893,53.62       c-36.647,6.728-85.924,4.724-104.175-23.02c-7.108-10.807-10.662-27.907-14.09-44.445c-0.925-4.433-1.85-8.894-2.847-13.282       c8.686-3.191,60.13-20.871,114.701-13.79c54.336,7.054,76.649,23.609,80.212,26.52       C397.854,301.82,397.972,306.725,397.681,310.578z"/>
				</g>
				<g>
					<path style="fill:#412945;" d="M334.034,281.094c-12.358-3.753-25.985-5.259-41.67-4.579       c-21.352,0.934-37.944,5.64-50.719,14.398c-0.68,0.462-1.351,0.943-2.022,1.432c-2.765,2.068-6.038,4.951-6.791,9.022       c-0.843,4.633,1.922,8.794,4.805,11.143c4.515,3.69,10.943,5.585,17.227,7.072c16.411,3.908,30.255,5.776,42.985,5.776       c2.103,0,4.18-0.055,6.238-0.154c13.981-0.698,32.785-3.899,42.94-15.241c3.055-3.418,4.696-7.317,4.624-10.998       C351.46,289.689,342.43,283.651,334.034,281.094z M345.222,308.339c-9.602,10.717-27.735,13.772-41.262,14.443       c-14.208,0.707-29.63-1.061-48.543-5.558c-5.993-1.424-12.113-3.21-16.247-6.592c-2.947-2.403-4.497-5.866-3.953-8.831       c0.598-3.237,3.445-5.712,5.857-7.507c0.635-0.481,1.288-0.934,1.94-1.387c6.193-4.252,13.337-7.516,21.542-9.828       c8.205-2.321,17.471-3.69,27.907-4.143c2.412-0.1,4.769-0.154,7.081-0.154c12.476,0,23.582,1.533,33.782,4.633       c7.235,2.203,15.74,7.607,15.903,15.604C349.293,302.074,347.87,305.392,345.222,308.339z"/>
				</g>
			</g>
			<g>
				<g>
					<path style="fill:#F7EDE5;" d="M95.724,142.08c-11.408,10.959-18.629,26.635-17.791,42.432       c0.302,5.696,1.779,11.632,5.763,15.714c0.607,0.622,1.322,1.22,2.184,1.328c2.02,0.253,3.266-2.119,3.775-4.09       c2.339-9.042,2.178-18.528,3.606-27.757c1.428-9.229,4.879-18.795,12.437-24.28c4.509-3.272,42.725-11.21,36.566-19.258       c-3.848-5.03-16.262-1.369-20.754,0.252C111.988,129.856,103.046,135.046,95.724,142.08z"/>
				</g>
				<g>
					<g>
						<g>
							<g>
								<path style="fill:#F7EDE5;" d="M321.505,126.459c-0.073,0.112-0.144,0.224-0.214,0.337c-3.705,5.987-3.8,13.903-0.35,20.022          c1.401,2.485,3.353,4.69,4.269,7.391c0.932,2.747,0.701,5.729,0.767,8.629c0.101,4.388,1.686,8.574,5.352,11.212          c3.192,2.297,7.765,2.753,11.1,0.671c2.771-1.73,4.353-4.843,5.438-7.924c3.704-10.521,2.935-22.782-1.97-32.947          c-2.748-5.694-8.922-13.59-16.044-13.057C326.376,121.054,323.419,123.527,321.505,126.459z"/>
							</g>
							<g>
								
									<ellipse transform="matrix(0.9239 -0.3827 0.3827 0.9239 -22.3584 122.6749)" style="fill:#F7EDE5;" cx="297.185" cy="117.539" rx="11.883" ry="11.883"/>
							</g>
						</g>
						<g>
							<path style="fill:#F7EDE5;" d="M117.321,278.51c0.084,3.206,0.802,6.498,2.715,9.072c2.7,3.631,7.343,5.32,10.352,8.7         c4.417,4.96,4.554,12.609,8.731,17.774c3.05,3.772,8.055,5.732,12.9,5.504c7.123-0.334,13.779-5.447,15.937-12.243         c2.159-6.796-0.326-14.813-5.95-19.196c-3.411-2.659-7.72-4.001-11.048-6.763c-4.171-3.461-6.332-8.73-9.684-12.99         C131.813,256.344,116.954,264.457,117.321,278.51z"/>
						</g>
						<g>
							<path style="fill:#F7EDE5;" d="M162.122,335.34c0.008,4.573,3.105,8.912,7.325,10.674c0.954,0.398,1.98,0.68,3.012,0.616         c0.95-0.059,1.859-0.408,2.711-0.831c1.663-0.825,3.192-1.962,4.317-3.439c1.883-2.473,2.496-5.848,1.669-8.845         C178.116,322.501,162.101,322.886,162.122,335.34z"/>
						</g>
						<g>
							<g>
								<path style="fill:#F7EDE5;" d="M424.539,243.46c0.608,5,3.791,9.522,3.787,14.559c-0.004,4.862-3.005,9.505-2.281,14.312          c0.724,4.811,5.35,8.486,10.199,8.892c4.849,0.407,9.65-2.033,12.893-5.66c3.243-3.627,5.087-8.316,6.138-13.066          c1.373-6.201,1.479-12.771-0.409-18.835c-1.914-6.147-7.814-15.78-14.949-16.635          C431.031,225.96,423.529,235.153,424.539,243.46z"/>
							</g>
							<g>
								<path style="fill:#F7EDE5;" d="M421.675,304.389c0.193,2.501,1.04,5.079,0.227,7.452c-0.477,1.392-1.475,2.532-2.213,3.805          c-1.779,3.066-1.767,7.453,0.939,9.742c2.27,1.92,5.789,1.789,8.363,0.301c2.574-1.488,4.332-4.075,5.598-6.765          c3.069-6.518,5.113-19.46-0.142-25.582C428.416,286.318,421.223,298.541,421.675,304.389z"/>
							</g>
						</g>
					</g>
					<g>
						<g>
							<path style="fill:#F7EDE5;" d="M369.36,320.246c-2.932,6.592-9.383,10.998-16.103,13.626         c-6.719,2.628-13.91,3.812-20.782,6.01c-2.722,0.87-5.498,1.97-7.423,4.081c-1.925,2.111-2.728,5.498-1.13,7.868         c1.32,1.958,3.867,2.717,6.228,2.758c9.398,0.16,16.401-8.273,24.819-12.456c3.445-1.712,7.191-2.719,10.779-4.108         c6.53-2.527,12.673-6.453,16.849-12.073c3.816-5.135,8.552-16.835,0.135-20.421         C373.611,301.643,371.77,314.828,369.36,320.246z"/>
						</g>
						<g>
							<path style="fill:#F7EDE5;" d="M303.184,349.011c-3.273-0.765-6.943-0.582-9.693,1.35c-2.751,1.932-4.168,5.915-2.523,8.846         c1.416,2.523,4.532,3.585,7.42,3.753c3.14,0.182,6.5-0.542,8.736-2.754c2.236-2.212,2.89-6.144,0.845-8.534         c-1.391-1.626-3.615-2.224-5.711-2.653"/>
						</g>
					</g>
				</g>
			</g>
		</g>
	</g>
</g>
<g>
</g>
<g>
</g>
<g>
</g>
<g>
</g>
<g>
</g>
<g>
</g>
<g>
</g>
<g>
</g>
<g>
</g>
<g>
</g>
<g>
</g>
<g>
</g>
<g>
</g>
<g>
</g>
<g>
</g>
</svg>
