<?xml version="1.0" encoding="iso-8859-1"?>
<!-- Generator: Adobe Illustrator 26.5.3, SVG Export Plug-In . SVG Version: 6.00 Build 0)  -->
<svg xmlns="http://www.w3.org/2000/svg" xmlns:xlink="http://www.w3.org/1999/xlink" version="1.1" id="Capa_1" x="0px" y="0px" viewBox="0 0 512 512" style="enable-background:new 0 0 512 512;" xml:space="preserve">
<g>
	<g>
		<path d="M129.713,365.25c1.197-5.564,2.46-11.091,4.217-16.484c3.589-11.014,8.916-20.984,18.147-28.343    c5.731-4.569,12.282-7.549,19.755-7.437c11.038,0.166,20.064,7.978,22.116,18.874c1.376,7.306,0.168,14.439-1.891,21.446    c-3.839,13.064-9.542,25.469-13.687,38.429c-2.367,7.399-4.662,14.803-5.453,22.58c-0.477,4.69-0.042,9.299,1.171,13.836    c0.383,1.434,1.096,2.733,2.013,3.922c2.05,2.659,4.296,3.27,7.376,1.85c3.941-1.816,6.818-4.914,9.439-8.229    c4.269-5.4,6.908-11.677,9.371-18.032c0.561-1.447,0.985-2.968,1.715-4.325c2.973-5.525,2.063-11.512,2.173-17.369    c0.156-8.32,2.326-16.056,6.588-23.185c0.745-1.246,0.74-2.143-0.014-3.411c-7.989-13.456-6.62-28.721,3.494-39.858    c10.361-11.409,26.28-11.102,36.266,0.624c6.526,7.662,9.313,16.848,11.018,26.48c0.774,4.372,0.994,8.807,0.973,13.251    c-0.003,0.707-0.378,1.711,0.308,2.061c0.778,0.398,1.484-0.45,2.104-0.911c5.153-3.834,9.345-8.593,13.06-13.79    c3.186-4.457,5.845-9.243,8.635-13.948c2.217-3.739,2.029-7.814,1.747-11.852c-0.231-3.307-0.848-6.591-1.381-9.871    c-0.583-3.589,0.581-5.31,4.258-5.76c3.964-0.486,7.901-0.993,11.747-2.18c3.085-0.952,4.937-0.091,6.346,2.829    c2.233,4.628,2.075,9.582,1.813,14.561c-0.851,16.158-5.981,31.464-9.306,47.128c-1.321,6.224-2.437,12.478-2.825,18.83    c-0.226,3.708,0.062,7.4,1.614,10.864c1.438,3.211,3.75,4.195,7.058,2.972c3.334-1.232,5.701-3.62,7.547-6.58    c3.653-5.86,6.348-12.166,8.857-18.582c2.962-7.575,3.448-15.712,5.614-23.464c1.074-3.844,1.554-7.814,1.941-11.795    c0.41-4.224,1.814-5.31,6.061-5.281c3.325,0.022,6.653-0.034,9.975-0.159c2.334-0.088,3.435,0.566,4.053,2.81    c0.772,2.804,0.291,5.596-0.302,8.343c-2.181,10.115-4.437,20.215-5.728,30.496c-0.941,7.493-1.669,14.989-0.219,22.506    c0.454,2.353,1.26,4.558,2.749,6.468c2.647,3.393,5.667,3.913,9.294,1.587c3.372-2.163,5.422-5.393,7.032-8.933    c4.916-10.812,7.595-22.219,8.735-33.992c0.879-9.072,0.843-18.147-0.53-27.193c-0.502-3.306,0.949-5.218,4.241-5.839    c1.159-0.218,2.346-0.427,3.518-0.414c6.804,0.072,12.854-2.414,18.788-5.368c1.449-0.722,2.204-1.758,2.477-3.384    c0.636-3.787,1.385-7.558,2.196-11.311c0.371-1.719-0.077-3.387-0.005-5.078c0.13-3.012,1.186-4.038,4.208-4.247    c2.357-0.163,4.716-0.367,7.056-0.684c4.973-0.672,7.122,0.944,7.871,5.98c0.918,6.172,0.122,12.264-1.096,18.278    c-2.127,10.501-4.724,20.903-6.604,31.458c-1.598,8.974-2.912,17.95-1.689,27.098c0.474,3.543,1.888,6.692,4.046,9.473    c2.83,3.647,6.752,4.33,10.863,2.072c3.617-1.986,5.991-5.169,8.304-8.458c6.111-8.691,8.354-18.764,10.868-28.839    c2.208-8.847,1.126-17.622,0.674-26.432c-0.386-7.52-1.191-15.015-2.31-22.473c-0.456-3.038,1.244-4.835,4.278-4.862    c4.065-0.038,8.131-0.042,12.197-0.036c3.682,0.005,4.777,0.842,5.838,4.455c1.217,4.142,1.581,8.435,1.907,12.697    c0.5,6.552,1.018,13.114,0.975,19.695c-0.128,19.555-2.082,38.944-5.391,58.206c-0.676,3.933-1.315,7.877-2.169,11.772    c-0.415,1.891,0.167,2.332,1.937,2.318c9.704-0.078,19.125,1.585,28.255,4.862c3.769,1.353,7.371,3.073,10.638,5.415    c5.028,3.604,6.341,7.362,4.71,13.288c-0.67,2.435-1.643,4.759-2.844,6.967c-1.684,3.097-4.211,3.534-6.633,0.993    c-10.134-10.633-22.959-15.8-37.023-18.605c-1.962-0.391-2.614,0.245-3.087,1.992c-2.476,9.141-5.281,18.189-9.257,26.797    c-5.847,12.66-13.457,24.006-25.426,31.766c-9.521,6.173-19.874,9.908-31.376,9.215c-7.619-0.459-14.826-2.84-20.439-8.099    c-6.29-5.893-7.123-13.708-5.541-21.778c2.159-11.018,8.363-19.626,16.879-26.606c14.104-11.559,30.732-17.751,48.157-22.136    c3.223-0.811,6.479-1.521,9.753-2.089c1.506-0.261,2.09-0.946,2.375-2.379c1.558-7.837,2.57-15.75,3.301-23.696    c0.541-5.881,0.88-11.781,1.274-17.675c0.082-1.23,0.012-2.47,0.012-4.136c-1.046,3.495-1.778,6.654-2.93,9.651    c-3.087,8.032-6.574,15.846-13.076,21.872c-7.064,6.546-15.692,7.876-24.107,3.363c-5.806-3.113-8.963-8.496-11.175-14.406    c-3.212-8.582-3.905-17.525-3.339-26.625c0.594-9.554,2.462-18.891,4.509-28.206c0.141-0.639,0.213-1.294,0.336-2.061    c-0.3,0-0.548-0.079-0.675,0.012c-5.61,4.009-12.024,5.579-18.755,6.016c-1.983,0.129-2.541,0.904-2.418,2.744    c0.353,5.303,0.931,10.591,0.859,15.923c-0.199,14.614-2.411,28.848-7.851,42.484c-2.182,5.469-5.059,10.478-9.379,14.624    c-11.196,10.742-27.573,7.487-33.728-6.787c-1.173-2.719-2.232-5.5-2.718-8.426c-0.471-2.831-0.697-5.704-1.054-8.763    c-0.88,0.573-1.083,1.445-1.424,2.169c-3.139,6.674-7.606,12.309-13.346,16.908c-10.36,8.301-20.565,4.495-26.289-5.384    c-3.935-6.792-4.336-14.325-3.915-21.945c0.611-11.055,2.99-21.797,5.799-32.461c0.033-0.124-0.034-0.274-0.094-0.682    c-2.228,3.619-4.219,7.137-6.892,10.219c-3.919,4.519-8.42,8.295-13.605,11.233c-1.638,0.928-2.38,2.098-2.67,3.978    c-1.837,11.908-4.82,23.462-11.199,33.874c-2.371,3.869-5.214,7.31-8.817,10.151c-10.42,8.215-23.422,6.258-30.85-4.772    c-1.188-1.764-2.199-3.647-3.503-5.829c-0.552,1.709-1.039,3.135-1.475,4.577c-3.322,10.989-8.216,21.047-16.842,28.967    c-6.197,5.69-13.309,8.199-21.606,6.119c-6.846-1.715-11.548-6.131-14.183-12.626c-2.751-6.781-3.254-13.873-2.719-21.128    c1.414-19.165,8.383-36.802,14.887-54.562c2.468-6.74,4.953-13.46,6.322-20.527c0.71-3.666,0.868-7.345-0.45-10.93    c-1.622-4.413-5.476-6.044-9.823-4.297c-8.265,3.321-13.67,9.636-17.914,17.124c-5.324,9.393-7.921,19.697-9.866,30.205    c-2.266,12.242-3.565,24.563-3.151,37.037c0.141,4.247-1.03,5.362-5.314,5.46c-1.478,0.034-2.957,0.043-4.436,0.055    c-4.268,0.034-6.087-1.3-7.108-5.438c-1.399-5.672-2.468-11.412-3.296-17.195c-1.918-13.407-2.788-26.884-2.687-40.427    c0.021-2.74-0.041-2.746-2.535-1.799c-11.406,4.333-22.59,9.177-33.605,14.425c-1.936,0.922-2.171,1.781-1.24,3.698    c5.494,11.309,9.241,23.167,8.625,35.856c-1.112,22.92-11.911,39.8-32.995,49.283c-18.962,8.529-35.847-5.894-36.724-24.013    c-0.493-10.194,2.955-19.303,8.207-27.855c6.745-10.983,16.166-19.332,26.422-26.838c4.592-3.361,4.564-3.201,1.396-7.826    c-5.504-8.036-12.543-14.729-18.918-22.005c-8.392-9.578-16.443-19.446-22.232-30.864c-8.858-17.473-7.333-34.745,1.902-51.565    c7.162-13.044,18.225-21.758,31.786-27.426c21.71-9.073,45.149,3.762,49.565,27.338c2.627,14.028-0.432,27.312-6.674,39.947    c-0.678,1.372-1.737,2.568-2.692,3.789c-1.68,2.15-3.726,3.107-6.594,2.484c-2.657-0.577-5.413-0.715-8.131-0.988    c-3.737-0.375-4.799-2.458-2.654-5.587c2.759-4.024,5.736-7.916,7.892-12.309c5.062-10.316,7.526-21.018,4.04-32.388    c-2.35-7.666-6.52-14.087-14.33-16.991c-7.345-2.731-14.556-1.968-21.549,1.945c-16.055,8.984-22.288,28.735-17.261,46.438    c2.399,8.447,6.647,15.908,11.616,23.045c8.326,11.959,18.14,22.787,26.407,34.785c2.682,3.892,5.204,7.9,7.657,11.942    c1.115,1.838,2.091,2.293,4.203,1.256c11.217-5.513,22.729-10.361,34.458-14.685c4.239-1.563,4.274-1.539,4.383-6.161    c0.099-4.222,0.583-8.403,1.341-12.548c0.884-4.833,2.324-6.04,7.237-6.436c2.501-0.202,4.969-0.555,7.496-0.003    c2.283,0.498,3.438,1.839,3.805,4.031c0.296,1.764,0.235,3.54,0.123,5.31C129.09,338.925,129.782,352.078,129.713,365.25z     M393.338,487.354c3.717,0.251,7.441-0.891,11.003-2.628c7.73-3.77,13.862-9.519,19.271-16.049    c10.213-12.327,15.982-26.811,20.093-42.077c0.484-1.798-0.064-2.214-1.819-2.042c-19.536,1.916-36.838,9.281-52.189,21.376    c-6.606,5.205-11.168,11.904-12.966,20.112C374.067,478.204,380.996,487.477,393.338,487.354z M62.887,406.92    c-0.227-11.597-3.613-22.345-8.89-32.587c-0.787-1.527-1.513-0.842-2.4-0.2c-7.563,5.473-14.605,11.527-20.645,18.674    c-5.291,6.262-9.576,13.123-11.953,21.043c-1.994,6.643-2.612,13.284-0.052,19.974c3.361,8.779,11.891,13.317,20.402,10.605    c6.578-2.096,11.782-6.285,15.603-11.867C60.192,424.908,63.088,416.36,62.887,406.92z M225.906,393.162    c0.017,4.607,0.271,9.183,2.441,13.377c1.941,3.753,5.008,5.242,8.748,4.37c3.863-0.901,6.335-3.655,8.548-6.659    c6.429-8.723,9.289-18.857,11.449-29.259c0.476-2.292-0.869-1.824-2.152-1.449c-7.72,2.252-15.447,2.335-23.13-0.095    c-1.62-0.512-2.264-0.026-2.72,1.463C227.263,380.863,225.867,386.884,225.906,393.162z M258.512,358.608    c0.221-2.809-0.229-6.122-0.508-9.425c-0.513-6.073-1.823-11.998-4.667-17.451c-3.655-7.007-11.027-8.114-16.776-2.682    c-5.121,4.839-6.738,11.112-7.494,17.769c-0.183,1.609,0.475,2.068,2.074,1.794c3.235-0.555,6.329,0.179,9.282,1.484    c3.22,1.423,3.553,3.999,0.778,6.084c-1.67,1.255-3.138,2.694-4.457,4.295c-1.62,1.967-1.562,2.35,0.539,3.803    c4.659,3.222,9.867,3.822,15.281,2.946c5.951-0.963,5.937-1.051,5.948-6.982C258.512,359.874,258.512,359.504,258.512,358.608z"/>
		<path d="M97.926,454.03c-0.086-3.431,0.557-6.374,2.23-9.001c2.364-3.712,10.562-6.386,14.756-4.915    c1.756,0.616,2.376,2.048,2.831,3.681c1.669,5.989,4.321,11.458,8.617,16.045c5.259,5.616,11.929,8.281,19.392,9.241    c13.12,1.687,25.354-1.84,37.359-6.522c13.016-5.077,25.518-11.348,38.449-16.627c17.947-7.326,36.411-12.757,55.799-14.397    c11.974-1.013,23.656,0.324,34.328,6.459c4.773,2.744,8.975,6.246,12.476,10.521c2.741,3.347,3.85,7.284,3.768,11.557    c-0.079,4.138-1.972,7.187-5.727,9.013c-2.298,1.118-4.372,0.706-5.906-1.32c-9.677-12.793-22.92-18.173-38.555-19.092    c-26.266-1.543-50.797,5.053-74.638,15.249c-13.928,5.957-27.866,11.905-42.544,15.855c-12.655,3.406-25.439,4.952-38.287,1.405    c-10.611-2.93-18.472-9.363-22.794-19.72C98.444,458.982,97.753,456.427,97.926,454.03z"/>
	</g>
	<g>
		<g>
			<g>
				<path d="M135.93,232.567c4.613-3.499,8.773-6.671,12.956-9.813c0.733-0.551,0.608-1.232,0.593-1.983      c-0.065-3.309,2.505-6.022,5.55-5.914c2.903,0.103,5.262,2.774,5.01,5.675c-0.263,3.026-3.08,5.184-6.39,4.616      c-1.512-0.259-2.498,0.131-3.554,1.114c-4.001,3.727-7.927,7.543-12.247,10.91c-1.084,0.845-1.101,1.584-0.088,2.505      c3.28,2.982,6.537,5.99,9.778,9.014c0.716,0.668,1.542,0.73,2.443,0.816c2.714,0.259,4.255,2.22,4.082,5.071      c-0.146,2.411-2.208,4.232-4.624,4.084c-2.443-0.15-4.423-2.219-4.176-4.811c0.143-1.501-0.345-2.315-1.432-3.141      c-2.529-1.924-4.994-3.931-7.484-5.907c-1.052-0.835-1.75-1.022-1.963,0.722c-0.777,6.378-1.631,12.747-2.463,19.119      c-0.126,0.962,0.368,1.685,0.812,2.463c1.531,2.681,0.797,5.689-1.752,7.363c-2.255,1.482-4.732,1.127-6.315-0.905      c-1.886-2.422-1.731-5.556,0.775-7.482c1.499-1.152,1.852-2.398,1.989-4.105c0.414-5.152,0.993-10.29,1.507-15.434      c0.044-0.435,0.239-0.986-0.153-1.254c-0.543-0.37-0.943,0.182-1.338,0.478c-3.254,2.437-6.462,4.94-9.956,7.031      c-0.84,0.503-0.891,1.252-1.027,2.062c-0.513,3.049-2.413,4.686-5.075,4.43c-2.553-0.246-4.792-2.882-4.731-5.573      c0.061-2.68,3.015-4.824,5.954-4.022c1.524,0.415,2.503,0.043,3.597-0.866c3.638-3.02,7.311-5.999,10.998-8.96      c1.046-0.84,1.483-1.489,0.197-2.593c-4.933-4.235-9.806-8.539-14.667-12.857c-0.884-0.786-1.739-1.134-2.97-1.067      c-2.801,0.153-5.06-1.881-5.346-4.568c-0.247-2.329,1.555-4.822,3.824-5.291c2.68-0.554,5.265,0.902,5.802,3.811      c0.369,2,1.483,2.971,2.922,4.067c3.939,3,7.719,6.202,11.324,9.604c0.454,0.428,0.912,1.155,1.666,0.793      c0.622-0.299,0.403-1.047,0.46-1.612c0.708-7.055,1.393-14.113,2.114-21.167c0.118-1.152-0.05-2.106-0.781-3.095      c-1.904-2.577-1.386-5.848,1.061-7.635c2.415-1.765,5.732-1.272,7.5,1.113c1.806,2.437,1.337,5.789-1.352,7.589      c-1.44,0.964-1.762,2.044-1.879,3.64c-0.482,6.555-0.225,13.152-1.142,19.68C135.861,230.848,135.93,231.435,135.93,232.567z"/>
				<path d="M373.574,251.825c-1.337,0.734-2.195,1.951-3.208,2.97c-2.863,2.884-5.672,5.822-8.518,8.722      c-0.906,0.923-1.477,1.909-1.596,3.28c-0.21,2.423-2.112,4.052-4.26,3.918c-2.183-0.136-3.846-2.04-3.834-4.388      c0.013-2.563,1.523-4.222,4.064-4.31c0.845-0.029,1.543-0.012,2.128-0.797c3.808-5.117,8.366-9.556,12.871-14.035      c0.988-0.982,1.135-1.529-0.042-2.596c-4.269-3.871-9.28-6.863-13.167-11.175c-0.733-0.813-1.629-0.406-2.492-0.402      c-2.013,0.008-3.608-1.46-3.914-3.523c-0.29-1.957,1.008-4.266,2.732-4.863c1.824-0.631,4.283,0.165,4.768,2.128      c0.685,2.775,2.741,4.076,4.69,5.588c3.369,2.614,6.785,5.166,10.449,7.948c0.196-2.702,0.4-5.161,0.547-7.623      c0.263-4.42,0.445-8.846,0.768-13.262c0.084-1.15-0.526-1.745-1.166-2.469c-2.015-2.277-2.096-5.12-0.25-7.006      c2.003-2.045,4.853-2.17,6.722-0.294c2.135,2.143,2.301,5.707,0.098,7.516c-1.268,1.041-1.555,2.152-1.548,3.635      c0.025,5.469-0.035,10.937-0.042,16.406c-0.001,0.564-0.215,1.288,0.39,1.628c0.638,0.358,1.091-0.264,1.533-0.604      c2.635-2.026,5.242-4.09,7.879-6.115c0.677-0.52,1.042-1.181,1.359-1.958c1.035-2.536,3.263-3.65,5.437-2.804      c2.006,0.78,3.039,2.981,2.395,5.104c-0.7,2.309-2.63,3.35-5.263,2.678c-0.892-0.228-1.512-0.16-2.206,0.451      c-3.272,2.88-6.564,5.738-9.887,8.559c-1.105,0.938-1.1,1.624-0.052,2.679c4.269,4.296,8.894,8.236,12.864,12.826      c0.649,0.75,1.5,0.865,2.322,1.16c2.333,0.836,3.282,2.753,2.552,5.108c-0.649,2.096-2.537,3.154-4.689,2.627      c-2.118-0.518-3.426-2.493-2.884-4.725c0.274-1.127,0.008-1.773-0.817-2.475c-3.206-2.728-6.362-5.516-9.553-8.262      c-0.417-0.359-0.799-1.048-1.479-0.692c-0.53,0.277-0.326,0.926-0.35,1.421c-0.342,6.856-0.644,13.714-1.041,20.567      c-0.056,0.965,0.352,1.46,0.921,2.082c1.821,1.988,1.807,4.445,0.051,6.142c-1.621,1.566-4.392,1.607-6.068,0.091      c-1.715-1.552-1.89-3.941-0.189-5.942c0.91-1.071,1.054-2.104,0.995-3.422c-0.281-6.28,0.257-12.55,0.367-18.826      C373.976,253.646,374.26,252.732,373.574,251.825z"/>
			</g>
			<g>
				<path d="M458.941,119.512c3.759-3.098,7.049-5.818,10.351-8.523c0.913-0.748,1.814-1.529,2.959-1.92      c0.919-0.314,1.772-0.203,2.416,0.574c0.594,0.716,0.56,1.578,0.087,2.282c-0.695,1.035-1.449,2.066-2.346,2.922      c-3.635,3.467-7.269,6.941-11.041,10.255c-1.503,1.32-1.415,2.254-0.181,3.615c2.58,2.845,5.098,5.75,7.559,8.699      c0.997,1.194,2.697,2.608,1.244,4.2c-1.622,1.778-2.944-0.156-4.057-1.155c-2.363-2.121-4.576-4.408-6.878-6.598      c-0.512-0.487-0.945-1.452-1.697-1.204c-0.72,0.238-0.59,1.252-0.702,1.959c-0.75,4.741-1.478,9.486-2.233,14.227      c-0.128,0.8-0.303,1.6-0.544,2.373c-0.283,0.91-0.85,1.61-1.911,1.518c-1.087-0.095-1.48-0.943-1.563-1.867      c-0.2-2.223,0.27-4.412,0.503-6.608c0.37-3.494,0.861-6.976,1.381-11.106c-2.858,2.271-5.202,4.134-7.547,5.997      c-1.1,0.874-2.194,1.76-3.495,2.327c-0.906,0.395-1.905,0.745-2.657-0.142c-0.799-0.942-0.183-1.863,0.481-2.565      c2.385-2.522,4.823-4.995,7.253-7.475c1.138-1.161,2.246-2.362,3.471-3.425c1.278-1.108,1.442-2.015,0.095-3.234      c-1.969-1.782-3.812-3.705-5.698-5.579c-1.205-1.197-2.451-2.36-3.567-3.637c-1.042-1.192-2.622-2.615-1.088-4.179      c1.453-1.482,3.092-0.156,4.338,0.818c2.791,2.184,5.463,4.52,8.191,6.785c0.497,0.413,0.897,1.256,1.583,1.05      c0.881-0.264,0.547-1.257,0.653-1.938c1.028-6.643,2.022-13.292,3.037-19.937c0.123-0.803,0.27-1.606,0.476-2.39      c0.211-0.806,0.526-1.64,1.568-1.557c1.021,0.082,1.316,0.9,1.314,1.76c-0.007,3.395,0.03,6.792-0.333,10.176      C459.899,110.324,459.453,114.64,458.941,119.512z"/>
				<path d="M70.524,156.742c-3.149,2.674-6.171,5.249-9.206,7.81c-0.847,0.715-1.715,1.419-2.812,1.723      c-0.673,0.187-1.328,0.169-1.801-0.461c-0.406-0.538-0.389-1.152-0.054-1.668c0.558-0.861,1.118-1.759,1.848-2.466      c2.969-2.877,5.958-5.737,9.036-8.496c1.185-1.062,1.015-1.652-0.131-2.56c-2.891-2.294-5.713-4.675-8.523-7.069      c-0.781-0.665-1.48-1.45-2.112-2.261c-0.767-0.986-1.757-2.147-0.633-3.339c1.16-1.229,2.525-0.457,3.601,0.327      c3.102,2.261,6.137,4.614,9.196,6.935c0.294,0.223,0.543,0.509,0.851,0.707c0.359,0.232,0.809,0.622,1.132,0.55      c0.638-0.141,0.435-0.836,0.484-1.32c0.439-4.331,0.859-8.665,1.3-12.996c0.06-0.586,0.206-1.163,0.299-1.746      c0.206-1.287,0.709-2.34,2.237-2.193c1.461,0.14,1.998,1.244,1.969,2.52c-0.085,3.761-0.289,7.519-0.404,11.279      c-0.022,0.712-0.354,1.74,0.28,2.077c0.821,0.436,1.381-0.598,1.997-1.047c2.743-1.998,5.411-4.099,8.177-6.065      c1.008-0.717,2.341-1.478,3.368-0.178c1.126,1.426-0.046,2.459-1.066,3.346c-3.789,3.294-7.58,6.586-11.41,9.831      c-1.293,1.096-1.466,1.915-0.061,3.158c3.095,2.738,6.045,5.641,9.045,8.486c0.481,0.456,0.954,0.931,1.364,1.45      c0.582,0.737,0.953,1.577,0.21,2.402c-0.726,0.804-1.647,0.661-2.412,0.099c-2.082-1.529-4.119-3.12-6.159-4.706      c-1.049-0.816-2.075-1.662-3.09-2.52c-1.076-0.909-1.462-0.602-1.552,0.726c-0.264,3.9-0.506,7.806-0.945,11.688      c-0.182,1.612,0.168,4.215-2.351,3.993c-2.264-0.2-1.622-2.617-1.647-4.209C70.479,166.065,70.524,161.579,70.524,156.742z"/>
				<path d="M234.597,245.139c3.34-3.095,6.52-6.035,9.689-8.985c0.815-0.759,1.644-1.495,2.667-1.96      c0.786-0.358,1.599-0.461,2.251,0.24c0.649,0.697,0.556,1.55,0.088,2.259c-0.525,0.793-1.17,1.524-1.847,2.196      c-3.987,3.957-7.968,7.92-12.021,11.809c-1.203,1.154-1.538,1.882,0.032,3.083c3.048,2.333,5.93,4.883,8.871,7.356      c0.62,0.522,1.229,1.066,1.784,1.656c0.701,0.745,1.186,1.638,0.399,2.56c-0.72,0.843-1.675,0.533-2.421,0.022      c-2.559-1.752-5.072-3.572-7.597-5.373c-0.421-0.3-0.806-0.65-1.224-0.953c-1.086-0.788-1.801-0.963-1.882,0.826      c-0.187,4.128-0.488,8.25-0.757,12.374c-0.144,2.21-0.294,4.42-0.492,6.625c-0.068,0.76-0.354,1.523-1.281,1.545      c-0.941,0.022-1.178-0.752-1.339-1.498c-0.303-1.401,0.024-2.789,0.079-4.186c0.231-5.83,0.376-11.663,0.542-17.495      c0.008-0.266-0.092-0.535-0.251-1.394c-2.648,2.725-4.987,5.146-7.344,7.55c-1.136,1.159-2.201,2.415-3.646,3.212      c-0.926,0.511-1.995,0.973-2.808-0.064c-0.725-0.926-0.132-1.822,0.492-2.598c2.692-3.344,5.644-6.456,8.747-9.412      c1.354-1.29,1.353-2.083-0.167-3.277c-4.298-3.376-8.4-6.998-13.008-9.977c-1.168-0.755-2.25-1.693-3.03-2.891      c-0.379-0.582-0.568-1.245-0.149-1.875c0.426-0.641,1.107-0.67,1.791-0.522c1.327,0.286,2.452,1,3.579,1.712      c4.884,3.084,9.391,6.673,13.848,10.331c0.487,0.4,0.948,1.189,1.656,0.85c0.702-0.336,0.354-1.193,0.392-1.823      c0.436-7.369,0.848-14.74,1.288-22.109c0.035-0.583,0.186-1.167,0.351-1.731c0.226-0.774,0.701-1.331,1.589-1.245      c0.902,0.088,1.268,0.781,1.304,1.548c0.082,1.77,0.117,3.547,0.064,5.318c-0.153,5.091,0.211,10.196-0.392,15.277      C234.41,244.375,234.518,244.649,234.597,245.139z"/>
			</g>
		</g>
		<g>
			<path d="M182.71,262.513c0.481-1.809,1.06-4.175,1.739-6.512c3.379-11.631,6.446-23.356,10.315-34.842     c0.259-0.768,0.571-1.524,0.927-2.251c0.313-0.64,0.841-1.064,1.609-0.876c0.754,0.184,1.117,0.799,1.071,1.496     c-0.073,1.098-0.207,2.21-0.484,3.273c-3.392,13.011-7.098,25.931-11.287,38.709c-0.295,0.901-0.731,1.775-1.225,2.586     c-0.385,0.632-0.999,1.222-1.833,0.889C182.739,264.665,182.699,263.855,182.71,262.513z"/>
			<path d="M442.228,212.679c-0.441,2.71-1.289,5.317-2.178,7.892c-3.396,9.838-6.858,19.655-10.776,29.301     c-0.415,1.023-0.9,2.029-1.465,2.976c-0.521,0.874-1.332,1.52-2.398,1.02c-0.986-0.462-0.955-1.449-0.669-2.327     c1.165-3.579,2.316-7.164,3.588-10.705c2.995-8.336,6.037-16.655,9.11-24.963c0.559-1.512,1.115-3.066,2.221-4.306     c0.46-0.515,1.043-0.881,1.767-0.563C442.147,211.32,442.243,211.985,442.228,212.679z"/>
			<path d="M322.694,249.254c0.772-2.382,1.526-4.77,2.32-7.145c2.807-8.396,5.603-16.797,8.466-25.174     c0.521-1.525,1.271-2.986,2.046-4.406c0.486-0.891,1.169-1.928,2.413-1.433c1.266,0.503,0.996,1.702,0.709,2.689     c-1.339,4.604-2.588,9.241-4.141,13.773c-2.438,7.115-4.556,14.351-7.67,21.223c-0.272,0.601-0.529,1.238-0.937,1.742     c-0.538,0.665-1.303,1.01-2.17,0.638C322.927,250.818,322.799,250.088,322.694,249.254z"/>
			<path d="M452.482,192.299c0.084-0.344,0.146-0.788,0.298-1.198c2.862-7.68,5.932-15.274,9.61-22.604     c0.617-1.229,1.245-3.181,3.125-2.419c1.969,0.798,1.143,2.697,0.641,4.077c-2.75,7.565-5.893,14.968-9.54,22.15     c-0.293,0.578-0.724,1.125-1.206,1.559c-0.589,0.532-1.36,0.597-2.073,0.23C452.674,193.752,452.539,193.08,452.482,192.299z"/>
			<path d="M286.604,242.362c0.678-1.98,1.443-4.288,2.259-6.579c1.955-5.485,3.913-10.97,5.918-16.437     c0.582-1.588,1.258-3.152,2.025-4.658c0.456-0.894,1.107-2.004,2.367-1.399c1.118,0.537,0.744,1.654,0.426,2.557     c-1.935,5.493-3.854,10.992-5.872,16.455c-1.174,3.179-2.507,6.3-3.805,9.432c-0.279,0.674-0.672,1.315-1.098,1.91     c-0.401,0.561-0.969,0.977-1.707,0.616C286.472,243.943,286.523,243.31,286.604,242.362z"/>
			<path d="M71.566,191.463c-0.089,0.321-0.205,0.902-0.409,1.45c-2.732,7.329-5.682,14.565-9.299,21.51     c-0.473,0.908-1.079,1.757-1.699,2.576c-0.36,0.475-0.902,0.835-1.547,0.521c-0.731-0.355-0.822-1.083-0.608-1.719     c0.35-1.042,0.887-2.02,1.303-3.042c2.533-6.214,5.039-12.44,7.592-18.646c0.531-1.291,1.171-2.544,1.855-3.762     c0.388-0.691,1.097-1.02,1.902-0.753C71.391,189.844,71.577,190.486,71.566,191.463z"/>
			<path d="M427.116,99.242c-0.103,0.494-0.165,1.012-0.319,1.501c-2.119,6.749-4.28,13.487-7.175,19.953     c-0.559,1.249-1.083,3.371-2.916,2.557c-1.799-0.799-0.283-2.474,0.101-3.66c2.111-6.517,4.317-13.003,6.504-19.495     c0.211-0.626,0.459-1.25,0.78-1.825c0.415-0.744,1.014-1.351,1.962-1.036C426.98,97.545,427.09,98.385,427.116,99.242z"/>
			<path d="M404.242,91.525c-2.277,5.065-4.034,10.889-7.168,16.111c-0.362,0.604-1.108,1.132-1.907,0.703     c-0.752-0.404-0.841-1.253-0.631-1.97c1.622-5.539,3.575-10.957,6.28-16.07c0.472-0.892,1.308-1.449,2.416-1.081     C404.068,89.495,404.263,90.199,404.242,91.525z"/>
			<path d="M93.952,207.873c-0.193,0.784-0.378,1.801-0.694,2.776c-1.111,3.429-2.246,6.851-3.42,10.259     c-0.284,0.824-0.699,1.618-1.158,2.361c-0.367,0.594-0.972,0.915-1.712,0.668c-0.641-0.214-0.999-0.783-0.933-1.365     c0.654-5.738,2.283-11.207,4.763-16.413c0.337-0.707,1.155-0.926,1.936-0.67C93.761,205.826,93.864,206.737,93.952,207.873z"/>
			<path d="M270.703,260.698c-0.088,0.353-0.165,0.87-0.344,1.348c-1.5,4.002-3.002,8.003-4.544,11.989     c-0.398,1.028-0.893,2.041-1.807,2.737c-0.651,0.496-1.364,1.008-2.202,0.444c-0.746-0.502-0.594-1.277-0.411-2.009     c0.107-0.429,0.217-0.862,0.383-1.27c1.827-4.507,3.665-9.01,5.503-13.513c0.111-0.272,0.229-0.546,0.379-0.798     c0.442-0.749,1.036-1.31,1.975-1.042C270.599,258.86,270.7,259.692,270.703,260.698z"/>
			<path d="M271.583,205.291c-0.982,2.897-2.092,6.255-3.269,9.591c-0.366,1.037-0.826,2.063-1.399,2.998     c-0.527,0.859-1.395,1.424-2.451,1.013c-1.13-0.439-1.22-1.519-0.885-2.441c1.535-4.23,3.148-8.432,4.779-12.627     c0.313-0.804,0.981-1.366,1.922-1.134C271.33,202.952,271.513,203.845,271.583,205.291z"/>
			<path d="M99.676,125.905c1.038-3.705,2.191-7.898,3.403-12.074c0.218-0.752,0.805-1.254,1.698-1.072     c0.85,0.173,1.217,0.808,1.307,1.586c0.058,0.504,0.034,1.042-0.079,1.536c-0.788,3.461-1.899,6.821-3.284,10.088     c-0.199,0.469-0.488,0.915-0.81,1.311c-0.377,0.464-0.858,0.88-1.52,0.648C99.691,127.68,99.745,127.023,99.676,125.905z"/>
			<path d="M67.932,114.028c-0.241,0.756-0.503,1.758-0.876,2.717c-1.153,2.96-2.351,5.904-3.883,8.694     c-0.393,0.716-0.945,1.493-1.904,1.089c-0.902-0.379-0.94-1.285-0.681-2.106c1.221-3.875,2.611-7.689,4.341-11.368     c0.363-0.772,1.011-1.324,1.969-1.043C67.759,112.264,67.911,112.993,67.932,114.028z"/>
			<path d="M45.723,197.635c0.175-0.659,0.287-1.319,0.522-1.932c1.241-3.24,2.783-6.341,4.47-9.367     c0.514-0.922,1.253-1.867,2.458-1.258c1.262,0.637,0.784,1.795,0.332,2.71c-1.729,3.5-3.514,6.973-5.309,10.44     c-0.327,0.632-0.697,1.446-1.64,1.113C45.799,199.073,45.951,198.249,45.723,197.635z"/>
			<path d="M184.347,203.117c-1.208,2.745-1.848,6.221-3.898,9.101c-0.466,0.655-1.173,1.314-2.064,0.882     c-0.939-0.454-0.72-1.462-0.452-2.165c1.16-3.033,2.417-6.03,3.674-9.024c0.308-0.734,0.902-1.232,1.756-1.003     C184.209,201.135,184.461,201.818,184.347,203.117z"/>
			<path d="M478.986,88.684c-1.078,2.523-2.075,5.404-4.815,7.141c-0.573,0.364-1.292,0.563-1.864,0.066     c-0.672-0.583-0.152-1.228,0.136-1.796c1.067-2.104,2.158-4.196,3.246-6.289c0.455-0.875,1.148-1.377,2.161-1.119     C478.688,86.901,478.974,87.568,478.986,88.684z"/>
		</g>
	</g>
	<g>
		<path d="M166.415,103.297c-1.383,0-2.766,0-4.149,0c-27.206,0.001-54.414-0.095-81.619,0.07    c-6.643,0.04-13.293,0.222-19.941,0.245c-3.445,0.012-3.993-0.514-4.022-3.986c-0.079-9.588,1.618-18.729,7.437-26.642    c6.125-8.328,14.878-11.793,24.796-12.917c6.012-0.681,11.93,0.32,17.85,1.121c3.152,0.426,3.428,0.361,4.086-2.708    c1.178-5.488,2.047-11.044,3.993-16.351c4.335-11.823,11.163-21.585,22.413-27.871c16.621-9.286,39.55-6.626,53.631,6.175    c4.929,4.481,8.891,9.677,12.281,15.341c0.889,1.486,1.45,1.449,2.566,0.287c8.101-8.434,18.003-9.853,28.791-6.973    c6.143,1.64,11.78,4.365,15.865,9.563c1.386,1.764,2.465,3.697,3.274,5.763c0.569,1.453,1.307,1.865,2.864,1.369    c17.176-5.464,34.335-5.155,51.43,0.375c1.775,0.574,2.341,0.32,2.684-1.643c2.457-14.055,16.102-29.61,34.997-29.826    c8.75-0.1,16.607,2.378,24.017,6.679c1.56,0.906,2.141,0.704,2.93-0.92c6.403-13.187,17.436-19.904,31.65-20.422    c21.132-0.769,40.888,14.821,44.194,35.171c0.134,0.826-0.151,2.475,1.678,1.655c8.45-3.788,19.94,1.315,24.976,8.283    c4.997,6.914,7.218,14.63,6.315,23.16c-0.131,1.236-0.535,2.45-0.87,3.658c-0.56,2.018-2.029,2.771-4.007,2.815    c-6.204,0.136-12.408,0.407-18.612,0.415c-34.895,0.047-69.791,0.029-104.686,0.057c-0.904,0.001-2.185-0.496-2.624,0.489    c-0.347,0.779,0.739,1.501,1.246,2.195c6.782,9.284,10.335,19.858,12.462,31.009c0.415,2.178,0.885,4.346,1.241,6.533    c0.215,1.317,0.719,1.852,2.075,1.284c15.173-6.357,36.478,4.235,43.387,22.457c2.549,6.722,3.815,13.65,4.21,20.762    c0.103,1.865,0.714,2.46,2.567,2.695c10.772,1.367,18.658,10.659,18.41,21.493c-0.096,4.214-1.807,5.938-5.954,5.94    c-18.704,0.011-37.414,0.287-56.112-0.066c-17.002-0.321-34-0.329-50.995-0.183c-68.305,0.587-136.611,0.145-204.916,0.246    c-3.172,0.005-6.347-0.221-9.516-0.414c-3.932-0.239-5.876-1.778-6.826-5.726c-1.467-6.096-1.913-12.293-0.702-18.478    c1.993-10.178,6.479-18.992,14.755-25.554c8.013-6.353,17.096-8.405,27.104-6.497c1.451,0.277,2.912,0.553,4.321,0.982    c1.898,0.578,2.455-0.1,2.517-1.986c0.255-7.768,2.705-14.79,7.6-20.872C159.994,108.422,163.074,105.887,166.415,103.297z     M206.278,185.196c22.486,0.307,50.942-0.292,79.4,0.256c17.81,0.343,35.632,0.09,53.449,0.092    c27.348,0.003,54.695,0.073,82.042-0.315c2.875-0.041,5.753,0.214,8.631,0.283c0.668,0.016,1.752,0.195,1.354-1.058    c-0.759-2.389-1.058-4.93-2.292-7.162c-2.863-5.178-6.983-8.465-13.099-8.971c-4.048-0.335-5.546-2.02-5.88-6.099    c-0.133-1.62-0.276-3.239-0.448-4.855c-1.086-10.154-3.93-19.635-11.452-26.982c-6.872-6.713-15.015-10.411-24.889-8.909    c-2.036,0.31-4.009,1.016-6.03,1.453c-3.511,0.759-5.57-0.458-6.499-3.908c-0.653-2.425-1.239-4.875-1.696-7.344    c-3.262-17.641-11.773-32.046-25.718-43.479c-18.992-15.572-40.471-21.884-64.704-18.104    c-13.496,2.105-25.387,7.774-34.764,18.022c-6.853,7.49-11.204,16.434-14.864,25.782c-1.4,3.577-2.333,7.336-4.124,10.757    c-1.187,2.267-3.017,3.138-5.52,2.639c-1.738-0.346-3.456-0.8-5.171-1.252c-5.888-1.55-11.816-2.544-17.956-2.051    c-16.025,1.287-29.468,11.888-30.357,30.027c-0.061,1.25-0.25,2.504-0.497,3.732c-0.546,2.712-1.997,3.812-4.735,3.491    c-2.052-0.24-4.084-0.66-6.122-1.017c-2.911-0.509-5.827-1.15-8.793-0.933c-8.94,0.652-16.072,4.781-21.464,11.809    c-7.475,9.743-8.741,20.886-6.914,32.646c0.225,1.451,1.023,1.957,2.454,1.883c3.687-0.19,7.379-0.411,11.069-0.416    C147.229,185.18,173.769,185.196,206.278,185.196z M95.397,64.936c-12.276,0.024-21.494,3.597-27.929,12.852    c-3.988,5.734-5.528,12.327-6.588,19.109c-0.331,2.12,0.163,2.642,2.262,2.655c14.262,0.088,28.524,0.067,42.787,0.251    c15.144,0.196,30.298,0.345,45.45-0.179c6.412-0.222,12.856-0.381,19.275,0.246c3.063,0.299,5.986-0.394,8.951-1.131    c9.429-2.344,18.633-0.838,27.72,1.979c2.856,0.885,3.015,0.863,3.859-2.069c1.066-3.704,2.5-7.269,3.906-10.844    c3.813-9.694,8.534-18.85,15.857-26.448c5.088-5.279,10.956-9.467,17.639-12.454c1.632-0.729,1.613-1.35,0.852-2.776    c-2.16-4.046-5.194-7.094-9.257-9.24c-3.517-1.858-7.224-3.098-11.124-3.592c-8.038-1.017-15.259,0.675-21.096,6.758    c-3.248,3.384-4.948,3.167-7.803-0.566c-3.723-4.867-7.215-9.909-11.843-14.039c-10.402-9.283-22.59-12.836-36.165-10.545    c-14.442,2.437-24.213,11.25-30.439,24.293c-3.019,6.325-4.691,13.053-6.328,19.811c-1.556,6.425-2.767,7.306-9.408,6.892    C101.997,65.651,98.066,64.767,95.397,64.936z M411.021,70.645c0,0.029,0,0.058,0,0.087c19.368,0,38.737,0,58.105-0.001    c1.996,0,3.992-0.017,5.988-0.01c1.052,0.004,1.666-0.409,1.718-1.543c0.388-8.54-1.363-16.487-7.771-22.518    c-5.427-5.108-11.821-7.441-19.326-4.298c-2.721,1.139-4.087,0.267-4.929-2.607c-0.332-1.135-0.721-2.255-1.013-3.4    c-3.265-12.788-11.189-21.666-23.126-26.89c-12.565-5.5-24.642-4.639-35.755,3.855c-3.947,3.017-6.605,7.101-8.926,11.448    c-1.782,3.339-3.484,3.806-6.922,2.168c-1.801-0.858-3.543-1.837-5.33-2.725c-6.864-3.413-14.108-4.962-21.718-3.751    c-14.919,2.374-22.802,12.464-27.683,25.719c-0.523,1.422-0.175,2.204,1.358,2.854c11.044,4.684,20.524,11.641,28.815,20.254    c0.954,0.991,1.944,1.384,3.308,1.382C368.884,70.635,389.952,70.645,411.021,70.645z"/>
		<path d="M341.712,143.832c-0.04,7.428-5.835,13.075-13.356,13.018c-7.339-0.056-13.063-5.699-13.029-12.844    c0.036-7.499,6.092-13.554,13.509-13.504C335.96,130.551,341.751,136.546,341.712,143.832z M337.582,143.831    c0.059-5.374-4.069-9.454-9.583-9.472c-5.028-0.017-9.263,4.146-9.259,9.099c0.005,5.11,4.347,9.646,9.328,9.746    C333.188,153.306,337.525,149.033,337.582,143.831z"/>
		<path d="M241.54,130.501c7.253,0.018,13.245,6.154,13.241,13.56c-0.003,7.219-5.846,12.828-13.322,12.79    c-7.395-0.038-13.074-5.726-13.06-13.08C228.415,136.326,234.201,130.483,241.54,130.501z M241.734,153.203    c5.088,0.054,9.53-4.398,9.632-9.654c0.095-4.949-4.021-9.075-9.172-9.195c-5.352-0.124-9.605,3.907-9.664,9.16    C232.47,148.803,236.599,153.149,241.734,153.203z"/>
		<path d="M282.182,164.414c-7.995,0.354-13.615-8.818-12.303-14.066c0.246-0.983,0.23-2.284,1.536-2.402    c1.378-0.125,1.494,1.18,1.782,2.148c1.619,5.443,5.329,8.17,10.924,8.081c4.56-0.073,7.422-2.377,9.035-6.545    c0.401-1.037,0.443-2.972,2.222-2.402c1.608,0.515,0.843,2.142,0.623,3.294C294.704,159.317,288.689,164.462,282.182,164.414z"/>
		<path d="M311.046,120.939c-0.032,2.832-2.422,5.159-5.305,5.165c-2.784,0.005-5.366-2.596-5.386-5.427    c-0.021-2.903,2.427-5.405,5.313-5.429C308.432,115.224,311.079,118.026,311.046,120.939z"/>
		<path d="M261.255,119.581c0.044-2.691,2.097-4.626,4.902-4.619c2.513,0.006,4.591,2.153,4.565,4.716    c-0.03,2.856-1.963,4.88-4.639,4.856C263.296,124.51,261.21,122.37,261.255,119.581z"/>
	</g>
</g>
<g>
</g>
<g>
</g>
<g>
</g>
<g>
</g>
<g>
</g>
<g>
</g>
<g>
</g>
<g>
</g>
<g>
</g>
<g>
</g>
<g>
</g>
<g>
</g>
<g>
</g>
<g>
</g>
<g>
</g>
</svg>
