<?xml version="1.0" encoding="UTF-8"?>
<!-- Generator: Adobe Illustrator 27.2.0, SVG Export Plug-In . SVG Version: 6.00 Build 0)  -->
<svg xmlns="http://www.w3.org/2000/svg" xmlns:xlink="http://www.w3.org/1999/xlink" version="1.1" id="Capa_1" x="0px" y="0px" viewBox="0 0 512 512" style="enable-background:new 0 0 512 512;" xml:space="preserve" width="512" height="512">
<g>
	<g>
		<path style="fill:#FFFFFF;" d="M264.581,484.18c-3.729,0-7.516-0.082-11.255-0.242c-6.108-0.281-12.223-0.777-18.222-1.473    c-8.378-0.934-16.968-2.36-25.468-4.231c-1.293-0.26-2.777-0.61-4.258-0.961c-10.106-2.429-19.65-5.322-28.565-8.647    c-1.689-0.627-3.379-1.261-5.092-1.94c-9.888-3.978-19.71-8.724-29.243-14.124c-21.586-12.274-41.544-27.826-59.338-46.231    c-18.625-19.253-34.206-41.115-45.782-64.109c-1.534,0.598-3.175,0.91-4.835,0.91c-1.727,0-3.475-0.337-5.15-1.042    c-5.915-2.489-9.207-8.85-7.823-15.116l4.047-18.332c-0.026-0.082-0.052-0.164-0.078-0.247l-11.519-1.126    c-6.323-0.619-11.324-5.626-11.936-11.949c-0.611-6.323,3.338-12.195,9.424-14.015l7-2.091    c-5.999-36.59-1.375-72.834,13.569-105.532c9.425-20.616,22.751-39.431,39.646-55.99c8.535-67.044,22.598-79.68,35.295-83.066    c2.131-0.568,4.374-0.856,6.668-0.856c13.617,0,29.78,10.157,50.528,31.848c0.147-0.036,0.285-0.067,0.409-0.094    c10.482-2.663,21.433-4.548,32.493-5.591c2.165-0.211,4.346-0.39,6.536-0.537l-1.036-13.636    c-0.501-6.596,3.924-12.556,10.383-13.984c0.962-0.213,1.926-0.316,2.877-0.316c5.433,0,10.454,3.347,12.434,8.616l7.304,19.428    c1.048,0.075,2.074,0.156,3.079,0.244c22.284,1.905,44.178,6.951,65.043,14.995c9.345,3.597,17.868,7.762,25.474,12.442    c45.463-59.367,60.886-59.365,67.674-59.365c1.374,0,2.734,0.132,4.043,0.395c15.508,3.101,24.219,22.406,31.069,68.853    c3.422,23.202,5.116,45.727,5.628,53.303c4.105,8.595,18.153,38.425,29.032,66.459c1.524-0.599,3.166-0.921,4.849-0.921    c0.928,0,1.869,0.098,2.809,0.301c6.466,1.395,10.922,7.331,10.455,13.929l-2.324,32.892l21.628,5.622    c6.177,1.606,10.34,7.377,9.917,13.745c-0.423,6.369-5.314,11.537-11.649,12.311l-18.06,2.208l0.813,18.016    c0.175,3.884-1.348,7.512-3.97,10.086c-0.225,2.039-0.505,4.086-0.85,6.227c-0.505,3.132-1.137,6.245-1.876,9.252    c-5.119,20.9-15.652,41.426-31.303,60.996c-3.688,4.673-7.859,9.473-12.344,14.202c-1.399,1.469-2.783,2.903-4.192,4.309    c-1.797,1.822-3.542,3.511-5.273,5.101c-2.676,2.522-5.646,5.138-8.709,7.667c-2.924,2.455-6.168,4.993-9.559,7.474    c-23.443,17.213-50.484,29.604-80.356,36.817c-3.673,0.9-7.458,1.731-11.205,2.455c-3.57,0.703-7.346,1.343-11.185,1.899    C289.943,483.25,277.252,484.18,264.581,484.18z"/>
	</g>
	<g>
		<g>
			<g>
				<path style="fill:#A27CFF;" d="M466.977,322.997c-0.221,2.193-0.509,4.342-0.864,6.535c-0.443,2.747-0.997,5.494-1.661,8.196      c-5.029,20.535-15.506,39.275-28.775,55.867c-3.655,4.63-7.554,9.082-11.608,13.358c-13.872,14.578-35.346-11.263-52.615-1.637      c-23.265,12.969-43.447,59.387-70.128,63.352c-15.351,2.282-30.924,3.057-46.452,2.392c-5.759-0.266-11.519-0.731-17.256-1.396      c-8.13-0.908-16.193-2.259-24.146-4.009c-1.418-0.288-53.28-73.204-54.675-73.536c-44.228-10.628-33.588,37.994-65.122,5.375      C37.786,339.721,8.39,255.611,43.124,179.608c20.69-45.256,61.538-80.256,108.61-96.316c4.718-1.617,9.525-3.057,14.376-4.298      c0.177-0.066,0.355-0.089,0.532-0.133c10.079-2.57,20.335-4.32,30.68-5.294c12.981-1.263,26.117-1.329,39.164-0.177      c21,1.794,41.778,6.579,61.427,14.155c24.81,9.547,49.997,25.94,56.664,51.68c2.747,10.566,2.016,21.775,4.807,32.364      c4.873,18.608,19.804,32.63,35.753,43.772c1.285,0.908,2.57,1.794,3.877,2.658c3.478,2.326,7.022,4.541,10.544,6.778      c12.029,7.642,24.101,15.241,33.915,25.231c1.772,1.794,3.456,3.655,5.073,5.604      C463.765,274.108,469.392,299.028,466.977,322.997z"/>
			</g>
		</g>
		<g>
			<g>
				<g>
					<path style="fill:#2F2444;" d="M79.427,171.731c0,0,4.525-117.075,29.976-123.862c25.451-6.787,82.009,73.525,82.009,73.525       s55.804-15.648,128.763-0.377c0,0,57.312-83.329,77.107-79.369c19.795,3.959,26.205,112.55,26.205,112.55       s48.451,100.107,42.23,117.64c-6.221,17.533-104.431,79.509-221.707,85.402c-112.55,5.656-221.707-41.287-209.83-80.878       C46.058,236.773,79.427,171.731,79.427,171.731z"/>
				</g>
				<g>
					<g>
						<g>
							<path style="fill:#FBEEE5;" d="M89.607,254.871c0,0,15.271-53.73,57.689-53.164c42.418,0.565,61.648,36.763,66.173,63.91         c0,0-78.05,57.123-123.862-8.484"/>
						</g>
						<g>
							<ellipse style="fill:#EBB1FF;" cx="159.173" cy="242.711" rx="9.615" ry="37.045"/>
						</g>
					</g>
					<g>
						<g>
							<path style="fill:#FBEEE5;" d="M406.897,248.084c0,0-15.271-53.73-57.689-53.164s-61.648,36.763-66.173,63.91         c0,0,78.05,57.123,123.862-8.484"/>
						</g>
						<g>
							<ellipse style="fill:#EBB1FF;" cx="337.331" cy="235.925" rx="9.615" ry="37.045"/>
						</g>
					</g>
					<g>
						<g>
							<path style="fill:#EBB1FF;" d="M255.321,288.217c-0.108,0-0.217-0.016-0.321-0.047l-15.836-4.808         c-0.586-0.178-0.916-0.796-0.738-1.382c0.177-0.585,0.798-0.917,1.381-0.738l15.424,4.683l13.751-6.601         c0.552-0.266,1.213-0.031,1.478,0.519c0.266,0.552,0.032,1.213-0.519,1.478l-14.14,6.787         C255.649,288.18,255.485,288.217,255.321,288.217z"/>
						</g>
						<g>
							<path style="fill:#EBB1FF;" d="M262.674,309.427c-0.459,0-0.888-0.287-1.047-0.745l-6.2-17.887l-4.979,17.543         c-0.168,0.589-0.781,0.93-1.368,0.763c-0.588-0.167-0.93-0.779-0.763-1.368l5.939-20.926         c0.132-0.465,0.551-0.791,1.034-0.805c0.01,0,0.021,0,0.031,0c0.471,0,0.892,0.298,1.047,0.745l7.353,21.21         c0.2,0.578-0.106,1.209-0.685,1.409C262.917,309.407,262.794,309.427,262.674,309.427z"/>
						</g>
					</g>
					<g>
						<path style="fill:#A27CFF;" d="M217.909,191.255c-1.759-3.984-2.744-8.396-2.744-13.036c0-17.803,14.43-32.233,32.233-32.233        c17.803,0,32.243,14.43,32.243,32.233c0,4.64-0.985,9.052-2.744,13.036c-5.005-11.313-16.336-19.207-29.499-19.207        S222.914,179.943,217.909,191.255z"/>
					</g>
					<g>
						<path style="fill:#EBB1FF;" d="M107.14,152.69c0,0-6.41-86.722,9.803-89.361c16.213-2.639,61.46,60.705,61.46,60.705        S126.747,132.706,107.14,152.69z"/>
					</g>
					<g>
						<path style="fill:#EBB1FF;" d="M402.906,149.667c0,0,3.644-86.882-12.645-89.004c-16.289-2.122-59.495,62.632-59.495,62.632        S382.673,130.318,402.906,149.667z"/>
					</g>
				</g>
				<g>
					<g>
						<path style="fill:#FBEEE5;" d="M411.714,183.609c-0.416,3.533,0.316,7.148,1.503,10.517c0.75,2.127,1.706,4.228,3.22,5.899        c1.514,1.671,3.662,2.876,5.916,2.838c6.169-0.102,8.473-9.602,8.107-14.368c-0.299-3.898-2.941-12.942-6.844-15.014        c-5.744-3.05-10.892,4.331-11.76,9.161C411.8,182.964,411.752,183.286,411.714,183.609z"/>
					</g>
					<g>
						<circle style="fill:#FBEEE5;" cx="430.463" cy="220.748" r="7.353"/>
					</g>
				</g>
			</g>
			<g>
				<g>
					<path style="fill:#FBEEE5;" d="M424.069,406.952c-1.307,1.373-2.614,2.725-3.943,4.054c-1.595,1.617-3.212,3.19-4.873,4.718       c-2.658,2.503-5.383,4.896-8.174,7.199c-2.902,2.437-5.892,4.763-8.949,7c-22.506,16.525-48.38,28.044-75.626,34.623       c-3.522,0.864-7.066,1.639-10.611,2.326c-3.5,0.687-7.044,1.285-10.566,1.794l25.253-101.079l46.608-10.677l34.956-7.997       L424.069,406.952z"/>
				</g>
				<g>
					<path style="fill:#FFC945;" d="M374.939,351.266c-3.911,1.62-8.447-0.263-11.701-2.97       c-8.275-6.888-11.226-18.598-10.162-29.311c1.064-10.713,5.555-20.744,9.986-30.556c7.969,7.454,14.901,15.523,19.602,25.37       c3.055,6.399,5.36,13.415,4.718,20.476C386.741,341.336,381.49,348.554,374.939,351.266z"/>
				</g>
				<g>
					<path style="fill:#FBEEE5;" d="M373.709,350.225c-2.332,0.966-5.037-0.157-6.977-1.771c-4.934-4.107-6.694-11.09-6.06-17.479       c0.634-6.388,3.313-12.37,5.955-18.221c4.752,4.445,8.886,9.256,11.689,15.128c1.821,3.816,3.196,7.999,2.814,12.21       C380.746,344.303,377.615,348.607,373.709,350.225z"/>
				</g>
				<g>
					<path style="fill:#2F2444;" d="M381.282,394.474c-0.93,0-1.605-0.375-2.05-0.752c-3.615-3.069-2.448-15.182-1.896-19.536       c-3.01,1.608-11.479,5.05-26.629,3.399c-19.091-2.082-24.451-9.305-24.67-9.611c-0.217-0.304-0.147-0.727,0.157-0.944       c0.304-0.217,0.726-0.147,0.942,0.155l0,0c0.052,0.07,5.317,7.047,23.717,9.054c18.534,2.02,26.865-3.848,26.947-3.907       c0.221-0.159,0.516-0.172,0.749-0.031c0.232,0.142,0.358,0.409,0.317,0.679c-0.69,4.603-1.812,17.118,1.241,19.71       c0.545,0.462,1.188,0.552,2.029,0.282c5.433-1.752,5.165-16.545,4.604-22.098c-0.036-0.365,0.225-0.693,0.589-0.739       c0.353-0.044,0.698,0.206,0.754,0.569c0.017,0.105,1.665,10.572,5.683,13.507c0.811,0.593,1.635,0.814,2.528,0.673       c0.74-0.117,1.307-0.504,1.732-1.185c2.634-4.222-1.196-16.829-1.235-16.956c-0.101-0.327,0.059-0.678,0.372-0.817l3.11-1.382       c0.206-0.093,0.449-0.074,0.644,0.051c0.191,0.124,0.308,0.338,0.308,0.567c0,0.074,0.035,7.405,2.692,9.75       c0.599,0.529,1.279,0.734,2.076,0.639c0.562-0.07,0.936-0.312,1.172-0.76c1.377-2.603-2-10.354-3.418-13.122       c-0.148-0.29-0.069-0.646,0.189-0.845c0.04-0.031,4.191-3.388,3.54-11.854c-0.028-0.373,0.25-0.698,0.623-0.727       c0.373-0.029,0.698,0.25,0.727,0.623c0.592,7.693-2.48,11.502-3.641,12.65c1.105,2.24,4.958,10.538,3.176,13.907       c-0.442,0.837-1.203,1.345-2.2,1.47c-1.191,0.148-2.245-0.177-3.141-0.967c-2.474-2.184-3.005-7.485-3.118-9.736l-1.647,0.732       c0.754,2.628,3.56,13.262,0.92,17.494c-0.636,1.019-1.534,1.626-2.669,1.806c-1.242,0.198-2.437-0.112-3.538-0.918       c-2.111-1.542-3.601-4.738-4.592-7.728c-0.04,6.381-1.003,15.131-5.822,16.685       C382.086,394.411,381.663,394.474,381.282,394.474z"/>
				</g>
				<g>
					<path style="fill:#2F2444;" d="M373.935,366.529c-0.348,0-0.644-0.267-0.674-0.62l-3.11-36.98       c-0.031-0.372,0.245-0.7,0.618-0.731c0.361-0.038,0.699,0.245,0.731,0.618l3.11,36.98c0.031,0.373-0.245,0.7-0.618,0.731       C373.973,366.528,373.954,366.529,373.935,366.529z"/>
				</g>
			</g>
			<g>
				<g>
					<path style="fill:#FBEEE5;" d="M213.472,465.654c-1.418-0.288-2.813-0.62-4.209-0.953c-9.127-2.193-18.098-4.873-26.826-8.13       c-1.617-0.598-3.212-1.196-4.829-1.839c-9.414-3.788-18.607-8.24-27.601-13.335c-20.49-11.652-39.607-26.604-56.332-43.905       l13.535-49.332l34.955,7.997l46.608,10.677L213.472,465.654z"/>
				</g>
				<g>
					<path style="fill:#FFC945;" d="M140.417,350.512c3.911,1.62,8.447-0.263,11.701-2.97c8.274-6.888,11.226-18.598,10.162-29.311       c-1.064-10.713-5.555-20.744-9.986-30.556c-7.969,7.454-14.902,15.523-19.602,25.37c-3.055,6.399-5.36,13.415-4.718,20.476       C128.616,340.582,133.866,347.8,140.417,350.512z"/>
				</g>
				<g>
					<path style="fill:#FBEEE5;" d="M141.648,349.47c2.332,0.966,5.037-0.157,6.977-1.771c4.934-4.107,6.694-11.09,6.06-17.479       c-0.634-6.388-3.313-12.37-5.955-18.221c-4.752,4.445-8.886,9.256-11.689,15.128c-1.821,3.816-3.197,7.999-2.814,12.21       C134.61,343.549,137.741,347.853,141.648,349.47z"/>
				</g>
				<g>
					<path style="fill:#2F2444;" d="M134.074,393.719c-0.381,0-0.804-0.062-1.271-0.213c-4.819-1.555-5.781-10.304-5.821-16.686       c-0.991,2.991-2.481,6.186-4.593,7.729c-1.101,0.805-2.287,1.117-3.538,0.917c-1.135-0.179-2.033-0.787-2.669-1.806       c-2.641-4.232,0.166-14.865,0.92-17.494l-1.647-0.732c-0.113,2.25-0.645,7.552-3.118,9.736c-0.896,0.79-1.95,1.117-3.141,0.967       c-0.997-0.125-1.758-0.633-2.2-1.47c-1.782-3.369,2.071-11.667,3.176-13.907c-1.16-1.148-4.231-4.957-3.641-12.65       c0.029-0.372,0.358-0.654,0.727-0.623c0.373,0.029,0.651,0.354,0.623,0.727c-0.65,8.465,3.5,11.823,3.542,11.855       c0.255,0.2,0.335,0.555,0.188,0.843c-1.417,2.768-4.794,10.522-3.418,13.122c0.237,0.448,0.609,0.689,1.172,0.76       c0.795,0.096,1.477-0.11,2.077-0.64c2.208-1.949,2.691-7.698,2.691-9.749c0-0.229,0.116-0.443,0.308-0.567       c0.192-0.125,0.436-0.144,0.644-0.051l3.11,1.382c0.313,0.139,0.473,0.49,0.372,0.817c-0.039,0.127-3.869,12.735-1.235,16.956       c0.425,0.681,0.991,1.068,1.731,1.185c0.887,0.141,1.716-0.079,2.528-0.673c4.018-2.935,5.667-13.401,5.684-13.507       c0.056-0.363,0.397-0.611,0.754-0.569c0.364,0.046,0.625,0.374,0.589,0.739c-0.561,5.553-0.827,20.347,4.603,22.098       c0.836,0.271,1.483,0.181,2.029-0.282c3.054-2.592,1.932-15.107,1.241-19.71c-0.041-0.27,0.085-0.536,0.317-0.678       c0.233-0.142,0.528-0.129,0.748,0.029c0.082,0.06,8.476,5.924,26.948,3.907c18.493-2.018,23.666-8.982,23.716-9.052       c0.216-0.304,0.639-0.376,0.944-0.157c0.304,0.217,0.374,0.64,0.157,0.944c-0.219,0.306-5.58,7.528-24.671,9.611       c-15.15,1.654-23.62-1.79-26.629-3.398c0.552,4.355,1.719,16.467-1.896,19.536C135.68,393.345,135.004,393.719,134.074,393.719       z"/>
				</g>
				<g>
					<path style="fill:#2F2444;" d="M141.422,365.774c-0.02,0-0.038,0-0.058-0.002c-0.373-0.031-0.65-0.358-0.618-0.731l3.11-36.98       c0.032-0.373,0.359-0.654,0.732-0.618c0.373,0.031,0.649,0.358,0.618,0.731l-3.11,36.98       C142.065,365.507,141.769,365.774,141.422,365.774z"/>
				</g>
			</g>
			<g>
				<g>
					<g>
						<polygon style="fill:#FFC945;" points="243.154,406.151 239.819,362.256 255.311,403.461 288.192,397.62 262.213,413.612         276.099,440.594 252.484,420.314 229.175,449.506 239.604,417.145 213.402,412.052       "/>
					</g>
				</g>
				<g>
					<g>
						<polygon style="fill:#FFC945;" points="218.164,89.048 214.829,45.154 230.321,86.359 263.202,80.518 237.223,96.509         251.109,123.491 227.494,103.211 204.185,132.403 214.614,100.043 188.413,94.949       "/>
					</g>
				</g>
				<g>
					<g>
						<polygon style="fill:#FFC945;" points="455.197,270.89 470.471,229.604 467.368,273.516 499.689,281.919 469.408,285.62         470.777,315.934 457.771,287.654 424.411,304.466 447.385,279.403 425.695,263.847       "/>
					</g>
				</g>
				<g>
					<g>
						<polygon style="fill:#FFC945;" points="43.334,285.759 35.873,242.374 55.183,281.934 87.366,273.017 63.012,291.388         79.381,316.94 53.958,298.978 33.507,330.239 40.837,297.039 14.272,294.44       "/>
					</g>
				</g>
			</g>
		</g>
	</g>
</g>















</svg>
