<?xml version="1.0" encoding="iso-8859-1"?>
<!-- Generator: Adobe Illustrator 26.5.1, SVG Export Plug-In . SVG Version: 6.00 Build 0)  -->
<svg xmlns="http://www.w3.org/2000/svg" xmlns:xlink="http://www.w3.org/1999/xlink" version="1.1" id="Capa_1" x="0px" y="0px" viewBox="0 0 512 512" style="enable-background:new 0 0 512 512;" xml:space="preserve">
<g>
	<path style="fill:#FFFFFF;" d="M255.665,511.232c-63.255-0.007-127.458-26.567-176.147-72.872   c-24.09-22.911-43.217-49.297-56.849-78.424C8.36,329.364,0.862,297.279,0.383,264.572C-3.26,193.52,19.162,130.321,65.233,81.797   c24.495-25.798,54.297-46.042,88.577-60.168C186.927,7.982,223.43,0.769,259.373,0.769c72.47,0,138.959,28.133,187.235,79.211   c32.792,32.556,55.759,84.07,63.022,141.362c3.613,28.495,3.095,56.373-1.539,82.86c-4.956,28.33-14.407,53.574-28.095,75.036   c-12.789,22.274-28.888,42.582-47.849,60.358c-36.067,33.903-80.219,56.849-127.688,66.358   c-15.937,3.502-32.345,5.278-48.771,5.278C255.68,511.232,255.673,511.232,255.665,511.232z"/>
	<g>
		<g>
			<g>
				<g>
					<path style="fill:#6E72FF;" d="M471.759,374.245c-8.968,15.652-19.669,30.312-31.805,43.682       c-1.933,2.14-19.857-13.427-21.868-11.357c-2.017,2.077,11.878,21.79,9.789,23.792c-0.771,0.751-1.541,1.483-2.312,2.206       c-34.108,32.065-77.115,54.768-123.079,63.957C160.072,527.887,12.026,409.383,10.023,264.255       C-2.345,26.004,292.35-69.421,439.722,86.706C503.824,150.22,525.901,289.607,471.759,374.245z"/>
				</g>
			</g>
		</g>
		<g>
			<g>
				<g>
					<g>
						
							<rect x="115.858" y="385.64" transform="matrix(0.9932 -0.1161 0.1161 0.9932 -46.2935 18.6496)" style="fill:#FFC063;" width="42.186" height="42.186"/>
					</g>
				</g>
				<g>
					<g>
						<g>
							<path style="fill:#E36352;" d="M119.952,75.071l30.448,37.4c0,0,10.022-55.532,8.523-53.744         C157.425,60.515,119.952,75.071,119.952,75.071z"/>
						</g>
					</g>
					<g>
						<g>
							<path style="fill:#E36352;" d="M279.855,486.855l35.982-32.112c0,0-55.93-7.495-54.076-6.078         C263.615,450.081,279.855,486.855,279.855,486.855z"/>
						</g>
					</g>
					<g>
						<g>
							
								<rect x="442.534" y="246.576" transform="matrix(0.959 0.2833 -0.2833 0.959 94.9938 -120.5089)" style="fill:#FFC063;" width="43.133" height="43.133"/>
						</g>
					</g>
					<g>
						<g>
							
								<ellipse transform="matrix(0.2298 -0.9732 0.9732 0.2298 -189.1355 240.7872)" style="fill:#F7EDE5;" cx="57.556" cy="239.885" rx="30.249" ry="30.249"/>
						</g>
					</g>
					<g>
						<g>
							<g>
								<g>
									<path style="fill:#F7EDE5;" d="M56.291,174.281c-0.466,0-0.922-0.224-1.201-0.64c-0.444-0.663-0.267-1.56,0.395-2.004           l37.582-25.203c0.663-0.445,1.56-0.268,2.005,0.395c0.444,0.663,0.267,1.56-0.395,2.005l-37.582,25.203           C56.848,174.202,56.568,174.281,56.291,174.281z"/>
								</g>
							</g>
							<g>
								<g>
									<path style="fill:#F7EDE5;" d="M61.496,182.043c-0.466,0-0.922-0.224-1.201-0.64c-0.444-0.663-0.267-1.56,0.395-2.005           l37.582-25.203c0.663-0.444,1.561-0.268,2.005,0.395c0.444,0.663,0.267,1.56-0.395,2.005L62.3,181.797           C62.053,181.964,61.774,182.043,61.496,182.043z"/>
								</g>
							</g>
							<g>
								<g>
									<path style="fill:#F7EDE5;" d="M66.701,189.804c-0.466,0-0.922-0.224-1.201-0.64c-0.444-0.663-0.267-1.56,0.395-2.005           l37.582-25.203c0.663-0.444,1.561-0.268,2.006,0.395c0.444,0.663,0.267,1.56-0.395,2.005l-37.582,25.204           C67.258,189.725,66.978,189.804,66.701,189.804z"/>
								</g>
							</g>
						</g>
						<g>
							<g>
								<g>
									<path style="fill:#F7EDE5;" d="M181.609,447.83c-0.466,0-0.922-0.224-1.201-0.64c-0.444-0.663-0.267-1.56,0.395-2.004           l37.581-25.204c0.662-0.444,1.561-0.268,2.005,0.395c0.444,0.663,0.267,1.56-0.395,2.005l-37.581,25.203           C182.166,447.751,181.887,447.83,181.609,447.83z"/>
								</g>
							</g>
							<g>
								<g>
									<path style="fill:#F7EDE5;" d="M186.814,455.592c-0.466,0-0.922-0.224-1.201-0.64c-0.444-0.663-0.267-1.56,0.395-2.004           l37.583-25.203c0.66-0.445,1.56-0.269,2.005,0.395c0.444,0.663,0.267,1.56-0.395,2.005l-37.583,25.203           C187.371,455.513,187.091,455.592,186.814,455.592z"/>
								</g>
							</g>
							<g>
								<g>
									<path style="fill:#F7EDE5;" d="M192.019,463.353c-0.466,0-0.922-0.224-1.201-0.64c-0.444-0.663-0.267-1.56,0.395-2.004           l37.581-25.203c0.663-0.445,1.56-0.268,2.005,0.395c0.444,0.663,0.267,1.56-0.395,2.005l-37.581,25.203           C192.576,463.274,192.297,463.353,192.019,463.353z"/>
								</g>
							</g>
						</g>
						<g>
							<g>
								<g>
									<path style="fill:#F7EDE5;" d="M340.582,406.436c-0.466,0-0.922-0.224-1.201-0.64c-0.444-0.663-0.267-1.56,0.395-2.004           l37.582-25.203c0.664-0.444,1.561-0.269,2.006,0.395c0.444,0.663,0.267,1.56-0.395,2.005l-37.582,25.203           C341.139,406.357,340.86,406.436,340.582,406.436z"/>
								</g>
							</g>
							<g>
								<g>
									<path style="fill:#F7EDE5;" d="M345.788,414.198c-0.466,0-0.922-0.224-1.201-0.64c-0.444-0.663-0.267-1.56,0.395-2.005           l37.582-25.203c0.664-0.444,1.56-0.269,2.005,0.395c0.444,0.663,0.267,1.56-0.395,2.005l-37.582,25.203           C346.345,414.119,346.065,414.198,345.788,414.198z"/>
								</g>
							</g>
							<g>
								<g>
									<path style="fill:#F7EDE5;" d="M350.993,421.959c-0.466,0-0.922-0.224-1.201-0.64c-0.444-0.663-0.267-1.56,0.395-2.005           l37.581-25.203c0.663-0.444,1.56-0.268,2.006,0.395c0.444,0.663,0.267,1.56-0.395,2.004l-37.581,25.204           C351.55,421.88,351.271,421.959,350.993,421.959z"/>
								</g>
							</g>
						</g>
						<g>
							<g>
								<g>
									<path style="fill:#F7EDE5;" d="M203.567,40.057c-0.291-0.364-0.4-0.86-0.25-1.338c0.24-0.761,1.052-1.183,1.812-0.943           l43.152,13.624c0.759,0.239,1.182,1.05,0.943,1.812c-0.24,0.761-1.052,1.183-1.812,0.943L204.26,40.532           C203.976,40.443,203.74,40.274,203.567,40.057z"/>
								</g>
							</g>
							<g>
								<g>
									<path style="fill:#F7EDE5;" d="M200.754,48.97c-0.291-0.364-0.4-0.86-0.25-1.338c0.24-0.761,1.052-1.183,1.812-0.943           l43.152,13.623c0.761,0.241,1.183,1.051,0.943,1.813c-0.24,0.761-1.052,1.183-1.812,0.943l-43.152-13.623           C201.163,49.355,200.927,49.186,200.754,48.97z"/>
								</g>
							</g>
							<g>
								<g>
									<path style="fill:#F7EDE5;" d="M197.94,57.881c-0.291-0.364-0.4-0.86-0.25-1.338c0.241-0.761,1.052-1.183,1.813-0.943           l43.152,13.623c0.762,0.241,1.184,1.051,0.943,1.813c-0.24,0.76-1.052,1.183-1.812,0.943l-43.152-13.623           C198.349,58.267,198.113,58.098,197.94,57.881z"/>
								</g>
							</g>
						</g>
					</g>
				</g>
			</g>
			<g>
				<g>
					<circle style="fill:#F7EDE5;" cx="425.463" cy="131.923" r="30.249"/>
				</g>
			</g>
		</g>
		<g>
			<g>
				<path style="fill:#B5E1E8;" d="M439.953,417.926c-3.872,4.286-7.908,8.438-12.079,12.435l-63.765,8.794l-1.291-24.831      l-0.173-3.362l-0.01-0.115l-0.135-2.581l-0.25-4.816l-0.173-3.362l-0.395-7.503l-0.173-3.362l-4.97-95.358v-0.019l-0.347-6.569      l-31.497,106.551l-0.732,2.485l-7.398,25.015l-1.214-0.434h-0.01l-97.785-34.579l-0.046-3.952l-2.381,3.104l-62.436-22.077      l-0.019-0.01l-30.996-10.961l-1.233-0.434l12.368-27.471l1.059-2.36l40.07-89.02l-7.6,12.849c-0.01,0.009-0.01,0.019-0.01,0.029      l-0.048,0.087L88.756,377.086l-13.003-11.732l-0.655-0.588l-53.69-48.44l32.691-46.388l30.592-43.412L188.044,79.867      c0.231-0.356,0.472-0.694,0.732-1.012c0-0.009,0-0.009,0-0.009c0.636-0.771,1.387-1.445,2.225-1.984      c1.185-0.761,2.543-1.262,3.988-1.435l41.784-5.028l6.502-0.78l17.203-2.071l1.291-0.154l0.983-0.838l26.739-22.934      c0.01-0.01,0.01-0.01,0.01-0.01c16.461-2.061,12.184,37.912,23.261,41.9c20.902,7.523,50.029-16.798,50.029-16.798l7.003,33.722      v0.01l0.26,1.262c0,0,0.328,0.318,0.934,0.896c3.207,3.092,14.188,13.697,24.398,24.061c9.353,9.507,18.07,18.812,19.573,21.932      c0.183,0.376,0.375,0.905,0.559,1.57v0.01c0.26,0.886,0.53,2.032,0.809,3.4c0,0.01,0,0.01,0,0.019      c0.308,1.541,0.636,3.362,0.963,5.461c6.444,40.513,17.087,180.66,21.46,240.312c0.035,0.456,0.068,0.91,0.1,1.358      c0.03,0.413,0.06,0.822,0.092,1.224C439.346,409.421,439.684,414.131,439.953,417.926z"/>
			</g>
			<g>
				<g>
					<g>
						<path style="fill:#412945;" d="M362.794,68.711c-8.069,16.363-55.028,42.329-55.028,42.329s-17.906-27.88-21.13-43.726        c-3.233-15.845,2.862-23.699,2.862-23.699C337.043,37.675,362.794,68.711,362.794,68.711z"/>
					</g>
				</g>
				<g>
					<g>
						<g>
							<path style="fill:#412945;" d="M266.141,172.201l-56.493-17.348c-0.617-0.193-1.281,0.154-1.483,0.771l-8.062,25.833         c-0.164,0.501,0.029,1.031,0.462,1.329l24.206,16.548c0.202,0.135,0.433,0.212,0.674,0.212h33.086         c0.53,0,0.992-0.357,1.137-0.867l7.272-25.015C267.114,173.039,266.767,172.394,266.141,172.201z M257.646,197.167h-31.844         l-23.175-15.845l7.455-23.859l54.248,16.664L257.646,197.167z"/>
						</g>
					</g>
					<g>
						<g>
							<circle style="fill:#412945;" cx="229.682" cy="189.274" r="3.834"/>
						</g>
					</g>
				</g>
				<g>
					<g>
						<g>
							<path style="fill:#412945;" d="M365.613,207.493l-53.478-20.102c-0.588-0.221-1.243,0.077-1.474,0.665l-9.218,23.425         c-0.183,0.472-0.038,1.021,0.366,1.329l25.323,19.544c0.173,0.145,0.405,0.221,0.636,0.241l28.299,1.637h0.067         c0.482,0,0.906-0.289,1.069-0.742l9.083-24.533C366.508,208.37,366.21,207.705,365.613,207.493z M355.354,231.901         l-27.105-1.57l-24.35-18.812l8.486-21.576l51.359,19.293L355.354,231.901z"/>
						</g>
					</g>
					<g>
						<g>
							<path style="fill:#412945;" d="M327.019,219.734c-1.251,1.62-0.951,3.947,0.669,5.198c1.62,1.251,3.947,0.951,5.198-0.669         c1.251-1.62,0.951-3.947-0.669-5.198C330.597,217.814,328.27,218.114,327.019,219.734z"/>
						</g>
					</g>
				</g>
				<g>
					<path style="fill:#412945;" d="M417.245,151.951c-0.588-0.414-1.397-0.27-1.801,0.318       c-0.279,0.395-28.058,40.417-46.831,95.859c-13.09,38.644-33.741,107.119-45.107,145.253l-96.276-36.158l0.001-0.002       l63.743-191.619l0.267-0.81l17.716-53.252l0.001-0.004c3.098,3.205,11.587,13.29,14.705,30.263       c0.08,0.436,0.378,0.801,0.789,0.967c0.156,0.062,0.32,0.094,0.483,0.094c0.267,0,0.531-0.083,0.754-0.243       c1.408-1.011,34.591-24.91,45.365-38.094c0.452-0.553,0.37-1.368-0.183-1.819c-0.552-0.453-1.368-0.37-1.819,0.183       c-9.222,11.285-36.308,31.378-43.242,36.445c-4.351-20.424-15.821-30.454-16.322-30.883c-0.113-0.097-0.241-0.173-0.38-0.227       c-13.262-5.065-33.386,7.82-39.506,12.09l-6.555-53.078c-0.088-0.71-0.738-1.211-1.441-1.125       c-0.709,0.088-1.212,0.733-1.125,1.441l6.822,55.244c0.056,0.459,0.353,0.852,0.779,1.032c0.422,0.181,0.914,0.121,1.283-0.158       c0.238-0.179,23.149-17.272,37.426-13.471c-0.111,0.121-0.197,0.275-0.249,0.438l-17.759,53.381l-0.267,0.819l-63.701,191.48       l0,0.001l-89.253-33.52c21.932-47.65,61.915-138.327,62.561-167.551c0.876-39.318-6.993-77.828-7.07-78.213       c-0.145-0.703-0.838-1.156-1.532-1.002c-0.693,0.145-1.146,0.828-1.002,1.522c0.077,0.385,7.889,38.625,7.022,77.635       c-0.636,28.473-40.821,119.612-62.59,167.002c-0.251,0.539-0.491,1.069-0.742,1.599c-7.561,16.442-12.734,27.23-12.926,27.645       c-0.308,0.636-0.039,1.416,0.607,1.724c0.183,0.087,0.366,0.125,0.559,0.125c0.482,0,0.944-0.27,1.165-0.732       c0.761-1.589,5.76-12.011,12.869-27.403l89.514,33.622l-0.001,0.004l-8.871,26.69l2.431,0.854l8.862-26.638l96.344,36.188       c-4.479,15.026-7.34,24.764-7.436,25.092c-0.202,0.693,0.193,1.406,0.876,1.608c0.125,0.039,0.25,0.048,0.366,0.048       c0.559,0,1.079-0.356,1.243-0.925c0.096-0.337,3.024-10.307,7.6-25.651c0.116-0.375,0.222-0.771,0.347-1.156       c11.308-37.96,32.142-107.061,45.3-145.927c18.648-55.077,46.225-94.809,46.504-95.204       C417.967,153.164,417.822,152.365,417.245,151.951z"/>
				</g>
				<g>
					<g>
						<g>
							<path style="fill:#412945;" d="M367.259,259.506c-0.229,0-0.419-0.179-0.43-0.41l-0.063-1.292         c-0.012-0.237,0.172-0.44,0.409-0.451c0.239-0.032,0.44,0.172,0.451,0.409l0.063,1.292c0.012,0.237-0.172,0.44-0.409,0.451         C367.273,259.506,367.265,259.506,367.259,259.506z"/>
						</g>
					</g>
					<g>
						<g>
							<path style="fill:#412945;" d="M376.111,430.525c-0.01-0.241-0.212-0.443-0.443-0.414c-0.241,0.019-0.424,0.212-0.414,0.453         l0.125,2.553c0.01,0.231,0.202,0.414,0.434,0.414c0.01,0,0.019,0,0.019,0c0.241-0.01,0.424-0.212,0.414-0.443         L376.111,430.525z M375.861,425.401c-0.01-0.241-0.231-0.443-0.443-0.405c-0.241,0.01-0.424,0.212-0.414,0.453l0.125,2.562         c0.01,0.221,0.202,0.405,0.434,0.405c0.01,0,0.01,0,0.019,0c0.241-0.01,0.424-0.221,0.414-0.453L375.861,425.401z          M375.611,420.286c-0.01-0.241-0.212-0.424-0.453-0.404c-0.231,0-0.414,0.212-0.404,0.443l0.125,2.562         c0.01,0.231,0.202,0.414,0.434,0.414c0,0,0.01,0,0.019-0.01c0.241-0.01,0.424-0.212,0.404-0.453L375.611,420.286z          M375.36,415.172c-0.01-0.241-0.231-0.443-0.453-0.414c-0.231,0.01-0.414,0.212-0.404,0.443l0.116,2.562         c0.019,0.231,0.212,0.414,0.433,0.414h0.029c0.231-0.01,0.424-0.212,0.405-0.453L375.36,415.172z M375.11,410.047         c-0.009-0.115-0.058-0.231-0.144-0.308c-0.077-0.077-0.193-0.125-0.308-0.106c-0.125,0.01-0.231,0.068-0.298,0.154         c-0.077,0.077-0.116,0.193-0.106,0.308l0.116,2.562c0.019,0.222,0.212,0.405,0.434,0.405h0.029         c0.231-0.01,0.414-0.221,0.405-0.453L375.11,410.047z M374.965,407.138l-0.048-0.934l-0.058-1.271         c-0.01-0.241-0.231-0.462-0.453-0.405c-0.241,0-0.424,0.202-0.405,0.443l0.087,1.792l0.019,0.453l0.01,0.318         c0.01,0.231,0.212,0.404,0.434,0.404h0.029c0.231-0.01,0.414-0.212,0.405-0.453L374.965,407.138z M374.609,399.809         c-0.01-0.231-0.212-0.433-0.453-0.405c-0.241,0.01-0.424,0.212-0.414,0.443l0.125,2.562c0.01,0.231,0.202,0.414,0.434,0.414         c0.01,0,0.019,0,0.019,0c0.241-0.019,0.424-0.212,0.414-0.453L374.609,399.809z M374.387,395.31l-0.029-0.616         c-0.01-0.241-0.231-0.443-0.453-0.414c-0.241,0.01-0.424,0.222-0.414,0.462l0.058,1.127l0.077,1.426         c0,0.231,0.193,0.414,0.424,0.414c0,0,0.01,0,0.019,0c0.241-0.01,0.424-0.221,0.414-0.453L374.387,395.31z M374.214,391.949         l-0.106-2.37c-0.01-0.25-0.212-0.453-0.462-0.414c-0.231,0.01-0.414,0.212-0.405,0.453l0.135,2.562         c0,0.096,0.039,0.193,0.106,0.26c0.068,0.087,0.183,0.145,0.308,0.145h0.029c0.231-0.01,0.424-0.212,0.404-0.453         L374.214,391.949z M373.858,384.455c0-0.009,0-0.019-0.01-0.029c-0.029-0.221-0.231-0.405-0.453-0.376         c-0.231,0.01-0.424,0.212-0.405,0.443l0.019,0.491l0.106,2.071c0.019,0.231,0.202,0.414,0.424,0.414         c0.01,0,0.019,0,0.029-0.01c0.231-0.01,0.424-0.202,0.405-0.443L373.858,384.455z M373.684,381.055l-0.087-1.715         c-0.01-0.241-0.202-0.443-0.453-0.414c-0.241,0.009-0.424,0.221-0.405,0.452l0.106,2.235l0.019,0.328         c0.019,0.231,0.202,0.404,0.433,0.404h0.019c0.231-0.01,0.414-0.212,0.404-0.453L373.684,381.055z M373.347,374.216         c-0.01-0.241-0.212-0.443-0.453-0.405c-0.241,0.01-0.424,0.212-0.405,0.453l0.125,2.562c0.01,0.221,0.193,0.405,0.433,0.405         h0.01c0.241-0.009,0.424-0.222,0.414-0.453L373.347,374.216z M373.097,369.101c-0.01-0.241-0.202-0.424-0.453-0.405         c-0.241,0.01-0.414,0.202-0.414,0.443l0.135,2.562c0.01,0.231,0.193,0.404,0.433,0.404c0,0,0,0,0.01,0         c0.241-0.01,0.424-0.212,0.414-0.443L373.097,369.101z M372.846,363.977c-0.01-0.231-0.212-0.434-0.453-0.405         c-0.241,0.01-0.414,0.222-0.414,0.453l0.135,2.562c0.01,0.231,0.193,0.405,0.433,0.405h0.01         c0.241-0.01,0.424-0.212,0.414-0.453L372.846,363.977z M372.596,358.862c-0.019-0.241-0.231-0.443-0.453-0.404         c-0.241,0.009-0.414,0.212-0.405,0.452l0.125,2.553c0.01,0.231,0.202,0.414,0.424,0.414h0.019         c0.251-0.019,0.424-0.221,0.414-0.462L372.596,358.862z M372.345,353.748c-0.019-0.241-0.212-0.462-0.453-0.414         c-0.241,0.019-0.424,0.212-0.405,0.453l0.116,2.562c0.019,0.222,0.212,0.405,0.433,0.405h0.029         c0.231-0.01,0.414-0.212,0.405-0.443L372.345,353.748z M372.085,348.623c-0.01-0.231-0.221-0.433-0.443-0.404         c-0.231,0.01-0.424,0.212-0.405,0.453l0.116,2.552c0.01,0.241,0.212,0.414,0.433,0.414h0.029         c0.231-0.01,0.414-0.212,0.405-0.453L372.085,348.623z M371.835,343.509c-0.01-0.241-0.202-0.443-0.443-0.414         c-0.241,0.01-0.424,0.221-0.414,0.453l0.125,2.562c0.01,0.231,0.202,0.414,0.433,0.414c0.01,0,0.019,0,0.019,0         c0.241-0.019,0.424-0.221,0.414-0.462L371.835,343.509z M371.584,338.394c-0.01-0.241-0.221-0.453-0.443-0.414         c-0.241,0.019-0.424,0.212-0.414,0.453l0.125,2.552c0.01,0.231,0.202,0.414,0.433,0.414c0.01,0,0.01,0,0.019,0         c0.241-0.01,0.424-0.212,0.414-0.443L371.584,338.394z M371.334,333.27c-0.01-0.241-0.202-0.433-0.443-0.405         c-0.241,0.01-0.424,0.212-0.414,0.453l0.125,2.552c0.01,0.241,0.202,0.414,0.433,0.414c0,0,0.01,0,0.019,0         c0.241-0.01,0.424-0.221,0.405-0.453L371.334,333.27z M371.083,328.155c-0.01-0.241-0.221-0.433-0.453-0.414         c-0.231,0.01-0.414,0.221-0.405,0.453l0.116,2.562c0.019,0.231,0.212,0.414,0.433,0.414h0.029         c0.231-0.019,0.424-0.221,0.405-0.462L371.083,328.155z M370.833,323.04c-0.01-0.241-0.212-0.453-0.453-0.414         c-0.231,0.01-0.424,0.212-0.404,0.443l0.115,2.562c0.019,0.231,0.212,0.414,0.434,0.414h0.029         c0.231-0.01,0.414-0.212,0.405-0.453L370.833,323.04z M370.583,317.916c-0.01-0.241-0.222-0.424-0.453-0.414         c-0.241,0.019-0.424,0.221-0.405,0.462l0.116,2.552c0.01,0.231,0.212,0.404,0.434,0.404h0.029         c0.231,0,0.414-0.212,0.405-0.443L370.583,317.916z M370.332,312.792c-0.01-0.231-0.212-0.424-0.453-0.405         c-0.241,0.01-0.424,0.222-0.414,0.453l0.135,2.562c0,0.231,0.193,0.405,0.424,0.405c0.01,0,0.019,0,0.019,0         c0.241-0.009,0.424-0.212,0.414-0.453L370.332,312.792z M370.082,307.677c-0.01-0.231-0.222-0.443-0.453-0.404         c-0.241,0.01-0.424,0.212-0.414,0.443l0.135,2.562c0,0.231,0.193,0.414,0.424,0.414c0,0,0.01,0,0.019,0         c0.241-0.019,0.424-0.212,0.414-0.453L370.082,307.677z M369.831,302.562c-0.01-0.241-0.212-0.453-0.462-0.414         c-0.231,0.019-0.414,0.222-0.405,0.462l0.135,2.543c0.01,0.241,0.193,0.414,0.414,0.414h0.029         c0.241,0,0.424-0.212,0.405-0.443L369.831,302.562z M369.581,297.438c-0.019-0.241-0.231-0.424-0.462-0.404         c-0.231,0.009-0.424,0.212-0.404,0.453l0.125,2.562c0.019,0.231,0.202,0.405,0.433,0.405h0.019         c0.231-0.009,0.424-0.221,0.405-0.453L369.581,297.438z M369.33,292.323c-0.019-0.231-0.212-0.443-0.462-0.405         c-0.231,0.01-0.414,0.212-0.404,0.443l0.125,2.562c0.019,0.231,0.202,0.414,0.434,0.414c0,0,0.01,0,0.019-0.009         c0.231-0.01,0.414-0.202,0.405-0.443L369.33,292.323z M369.07,287.209c-0.01-0.241-0.212-0.443-0.453-0.414         c-0.241,0.01-0.414,0.212-0.405,0.453l0.125,2.552c0.01,0.241,0.193,0.414,0.434,0.414c0.01,0,0.01,0,0.01,0         c0.241-0.01,0.424-0.212,0.414-0.453L369.07,287.209z M368.82,282.085c-0.01-0.241-0.221-0.424-0.453-0.414         c-0.241,0.019-0.414,0.221-0.414,0.462l0.135,2.562c0.01,0.222,0.202,0.404,0.434,0.404c0.01,0,0.01,0,0.01,0         c0.251-0.01,0.424-0.221,0.414-0.453L368.82,282.085z M368.57,276.97c-0.01-0.231-0.212-0.433-0.453-0.404         c-0.241,0.009-0.414,0.202-0.405,0.443l0.125,2.562c0.01,0.231,0.202,0.405,0.434,0.405c0,0,0.01,0,0.019,0         c0.241-0.01,0.414-0.203,0.404-0.443L368.57,276.97z M368.319,271.845c-0.019-0.231-0.231-0.443-0.443-0.405         c-0.25,0.01-0.424,0.212-0.414,0.453l0.125,2.552c0.01,0.241,0.202,0.414,0.424,0.414h0.029         c0.231-0.01,0.414-0.212,0.404-0.453L368.319,271.845z M368.069,266.731c-0.019-0.241-0.212-0.453-0.453-0.414         c-0.231,0.019-0.424,0.222-0.405,0.462l0.116,2.552c0.019,0.231,0.212,0.414,0.433,0.414h0.029         c0.231-0.01,0.414-0.222,0.405-0.453L368.069,266.731z M367.809,261.616c-0.01-0.241-0.222-0.434-0.443-0.414         c-0.231,0.019-0.424,0.212-0.405,0.453l0.116,2.562c0.01,0.221,0.212,0.404,0.433,0.404h0.029         c0.231-0.01,0.414-0.212,0.405-0.443L367.809,261.616z"/>
						</g>
					</g>
					<g>
						<g>
							<path style="fill:#412945;" d="M376,437.384c-0.229,0-0.419-0.179-0.43-0.41l-0.064-1.292         c-0.012-0.237,0.171-0.439,0.409-0.451c0.221-0.023,0.44,0.172,0.451,0.409l0.064,1.292c0.012,0.237-0.171,0.439-0.409,0.451         C376.014,437.384,376.007,437.384,376,437.384z"/>
						</g>
					</g>
				</g>
				<g>
					<g>
						<path style="fill:#412945;" d="M76.985,362.677c-0.202-0.135-0.472-0.077-0.597,0.125l-1.291,1.965l-0.135,0.193        c-0.125,0.202-0.067,0.472,0.135,0.597c0.067,0.048,0.154,0.068,0.231,0.068c0.145,0,0.279-0.068,0.357-0.193l0.067-0.077        l1.358-2.08C77.245,363.071,77.178,362.802,76.985,362.677z M79.817,358.352c-0.193-0.135-0.462-0.077-0.597,0.116        l-1.416,2.167c-0.135,0.202-0.067,0.462,0.125,0.597c0.067,0.048,0.154,0.068,0.231,0.068c0.145,0,0.279-0.058,0.366-0.193        l1.416-2.158C80.077,358.747,80.02,358.477,79.817,358.352z M82.659,354.017c-0.202-0.125-0.472-0.077-0.597,0.125        l-1.425,2.167c-0.125,0.192-0.067,0.462,0.135,0.587c0.067,0.058,0.154,0.077,0.231,0.077c0.135,0,0.27-0.068,0.356-0.193        l1.416-2.167C82.909,354.422,82.851,354.152,82.659,354.017z M85.49,349.692c-0.193-0.125-0.462-0.077-0.597,0.135        l-1.416,2.148c-0.135,0.212-0.067,0.472,0.125,0.607c0.068,0.039,0.154,0.067,0.231,0.067c0.144,0,0.279-0.067,0.366-0.192        l1.416-2.167C85.741,350.087,85.693,349.827,85.49,349.692z M88.332,345.368c-0.202-0.135-0.472-0.077-0.597,0.125        l-1.425,2.167c-0.125,0.203-0.077,0.463,0.125,0.597c0.077,0.039,0.154,0.067,0.241,0.067c0.135,0,0.27-0.067,0.356-0.193        l1.416-2.158C88.582,345.762,88.525,345.493,88.332,345.368z M91.164,341.043c-0.202-0.135-0.462-0.077-0.607,0.125        l-1.406,2.167c-0.135,0.193-0.077,0.462,0.116,0.588C89.343,343.98,89.42,344,89.507,344c0.145,0,0.279-0.077,0.366-0.193        l1.416-2.167C91.414,341.447,91.366,341.178,91.164,341.043z M93.996,336.718c-0.193-0.135-0.462-0.077-0.597,0.125        l-1.416,2.158c-0.125,0.202-0.077,0.472,0.125,0.597c0.077,0.048,0.154,0.067,0.241,0.067c0.135,0,0.27-0.067,0.356-0.183        l1.416-2.167C94.246,337.113,94.198,336.853,93.996,336.718z M96.837,332.393c-0.212-0.135-0.472-0.077-0.607,0.115        l-1.406,2.167c-0.135,0.203-0.086,0.462,0.116,0.597c0.077,0.048,0.154,0.077,0.241,0.077c0.135,0,0.279-0.067,0.356-0.202        l1.416-2.158C97.088,332.788,97.039,332.518,96.837,332.393z M99.669,328.068c-0.202-0.135-0.472-0.077-0.597,0.115        l-1.416,2.167c-0.125,0.193-0.077,0.462,0.125,0.597c0.077,0.048,0.154,0.077,0.241,0.077c0.135,0,0.27-0.077,0.347-0.202        l1.426-2.167C99.919,328.463,99.862,328.193,99.669,328.068z M102.501,323.734c-0.202-0.125-0.462-0.077-0.597,0.135        l-1.416,2.158c-0.125,0.202-0.077,0.472,0.125,0.597c0.077,0.048,0.154,0.067,0.231,0.067c0.145,0,0.289-0.067,0.366-0.193        l1.416-2.167C102.761,324.129,102.703,323.869,102.501,323.734z M105.333,319.409c-0.193-0.125-0.462-0.068-0.588,0.125        l-1.416,2.167c-0.135,0.202-0.077,0.462,0.116,0.597c0.077,0.039,0.164,0.067,0.241,0.067c0.145,0,0.279-0.067,0.356-0.193        l1.425-2.158C105.593,319.814,105.535,319.544,105.333,319.409z M108.174,315.094c-0.202-0.145-0.462-0.087-0.597,0.116        l-1.426,2.167c-0.125,0.193-0.067,0.462,0.135,0.588c0.067,0.058,0.154,0.077,0.231,0.077c0.135,0,0.279-0.077,0.366-0.193        l1.416-2.167C108.434,315.489,108.367,315.219,108.174,315.094z M111.006,310.759c-0.193-0.125-0.462-0.077-0.588,0.125        l-1.425,2.158c-0.125,0.202-0.067,0.472,0.125,0.597c0.077,0.058,0.154,0.077,0.241,0.077c0.135,0,0.27-0.067,0.356-0.193        l1.416-2.167C111.266,311.154,111.208,310.894,111.006,310.759z M113.847,306.434c-0.202-0.125-0.472-0.077-0.597,0.116        l-1.426,2.167c-0.125,0.202-0.067,0.462,0.135,0.597c0.067,0.048,0.154,0.077,0.231,0.077c0.135,0,0.279-0.067,0.366-0.202        l1.406-2.158C114.098,306.829,114.04,306.56,113.847,306.434z M116.679,302.11c-0.193-0.135-0.462-0.077-0.587,0.116        l-1.426,2.167c-0.135,0.202-0.077,0.472,0.125,0.597c0.067,0.048,0.154,0.077,0.231,0.077c0.145,0,0.279-0.077,0.366-0.202        l1.416-2.167C116.93,302.505,116.882,302.235,116.679,302.11z M119.521,297.775c-0.202-0.125-0.472-0.077-0.597,0.135        l-1.426,2.158c-0.125,0.202-0.067,0.472,0.135,0.597c0.067,0.048,0.154,0.067,0.231,0.067c0.135,0,0.279-0.067,0.366-0.193        l1.406-2.158C119.771,298.18,119.714,297.92,119.521,297.775z M122.353,293.46c-0.193-0.135-0.462-0.077-0.597,0.115        l-1.416,2.167c-0.135,0.202-0.077,0.462,0.116,0.597c0.077,0.048,0.154,0.068,0.241,0.068c0.144,0,0.279-0.068,0.366-0.193        l1.416-2.158C122.603,293.855,122.555,293.585,122.353,293.46z M125.194,289.135c-0.202-0.135-0.472-0.077-0.607,0.116        l-1.416,2.167c-0.125,0.193-0.077,0.462,0.125,0.597c0.077,0.048,0.154,0.067,0.241,0.067c0.135,0,0.27-0.067,0.356-0.193        l1.416-2.167C125.445,289.53,125.387,289.26,125.194,289.135z M128.026,284.801c-0.202-0.125-0.472-0.077-0.607,0.125        l-1.406,2.167c-0.135,0.193-0.077,0.462,0.116,0.588c0.077,0.058,0.154,0.077,0.241,0.077c0.145,0,0.279-0.068,0.366-0.193        l1.416-2.167C128.277,285.205,128.228,284.936,128.026,284.801z M130.868,280.476c-0.212-0.125-0.482-0.077-0.607,0.125        l-1.416,2.158c-0.125,0.212-0.077,0.472,0.125,0.607c0.077,0.039,0.154,0.068,0.241,0.068c0.135,0,0.27-0.068,0.347-0.202        l1.426-2.158C131.118,280.871,131.06,280.601,130.868,280.476z M133.69,276.151c-0.193-0.135-0.462-0.077-0.597,0.125        l-1.406,2.167c-0.135,0.193-0.077,0.462,0.116,0.597c0.077,0.039,0.154,0.067,0.241,0.067c0.144,0,0.279-0.067,0.356-0.202        l1.426-2.158C133.95,276.546,133.892,276.276,133.69,276.151z M136.531,271.817c-0.202-0.125-0.472-0.077-0.597,0.135        l-1.416,2.167c-0.135,0.193-0.077,0.462,0.125,0.587c0.068,0.058,0.154,0.068,0.231,0.068c0.145,0,0.279-0.068,0.356-0.183        l1.426-2.167C136.782,272.231,136.724,271.961,136.531,271.817z M139.363,267.501c-0.193-0.135-0.462-0.077-0.597,0.125        l-1.406,2.158c-0.145,0.202-0.077,0.472,0.115,0.597c0.068,0.048,0.154,0.068,0.231,0.068c0.145,0,0.289-0.068,0.366-0.193        l1.425-2.158C139.623,267.896,139.565,267.627,139.363,267.501z M142.205,263.176c-0.202-0.135-0.472-0.077-0.597,0.116        l-1.425,2.167c-0.125,0.193-0.068,0.462,0.135,0.597c0.067,0.048,0.154,0.067,0.231,0.067c0.135,0,0.27-0.058,0.356-0.193        l1.416-2.167C142.455,263.571,142.397,263.302,142.205,263.176z M145.036,258.842c-0.202-0.125-0.462-0.077-0.597,0.125        l-1.416,2.167c-0.135,0.193-0.077,0.462,0.125,0.597c0.067,0.048,0.154,0.068,0.231,0.068c0.144,0,0.279-0.068,0.366-0.193        l1.416-2.167C145.297,259.247,145.239,258.977,145.036,258.842z M147.868,254.517c-0.193-0.125-0.462-0.077-0.587,0.135        l-1.426,2.148c-0.125,0.212-0.067,0.482,0.125,0.607c0.077,0.039,0.164,0.068,0.241,0.068c0.135,0,0.27-0.068,0.356-0.193        l1.416-2.167C148.119,254.912,148.07,254.652,147.868,254.517z M150.71,250.192c-0.202-0.135-0.462-0.077-0.597,0.125        l-1.416,2.167c-0.135,0.193-0.087,0.462,0.125,0.597c0.067,0.039,0.145,0.068,0.231,0.068c0.135,0,0.279-0.068,0.366-0.193        l1.406-2.167C150.96,250.587,150.912,250.318,150.71,250.192z M153.542,245.868c-0.193-0.135-0.462-0.077-0.588,0.125        l-1.425,2.167c-0.125,0.193-0.077,0.462,0.125,0.588c0.077,0.058,0.154,0.077,0.241,0.077c0.135,0,0.27-0.077,0.356-0.193        l1.416-2.167C153.792,246.272,153.744,246.003,153.542,245.868z M156.383,241.543c-0.202-0.135-0.462-0.077-0.607,0.125        l-1.416,2.157c-0.125,0.202-0.077,0.472,0.125,0.597c0.077,0.048,0.154,0.077,0.241,0.077c0.135,0,0.279-0.067,0.366-0.193        l1.406-2.167C156.634,241.938,156.576,241.677,156.383,241.543z M159.215,237.218c-0.202-0.135-0.472-0.077-0.597,0.116        l-1.416,2.167c-0.135,0.202-0.077,0.462,0.116,0.597c0.077,0.048,0.164,0.077,0.241,0.077c0.144,0,0.279-0.068,0.356-0.202        l1.426-2.157C159.465,237.613,159.417,237.343,159.215,237.218z M162.047,232.893c-0.202-0.135-0.462-0.087-0.597,0.115        l-1.416,2.167c-0.125,0.193-0.077,0.462,0.125,0.597c0.077,0.048,0.154,0.077,0.241,0.077c0.135,0,0.279-0.077,0.356-0.202        l1.416-2.167C162.307,233.288,162.249,233.018,162.047,232.893z M164.879,228.559c-0.193-0.125-0.462-0.077-0.588,0.135        l-1.416,2.158c-0.135,0.202-0.077,0.472,0.115,0.597c0.077,0.048,0.154,0.067,0.241,0.067c0.145,0,0.279-0.067,0.357-0.193        l1.426-2.157C165.139,228.953,165.081,228.703,164.879,228.559z M167.72,224.243c-0.202-0.145-0.472-0.077-0.597,0.115        l-1.416,2.167c-0.135,0.202-0.077,0.462,0.125,0.597c0.067,0.048,0.154,0.067,0.231,0.067c0.144,0,0.289-0.067,0.366-0.192        l1.416-2.158C167.98,224.638,167.913,224.369,167.72,224.243z M170.552,219.919c-0.193-0.144-0.462-0.087-0.588,0.115        l-1.416,2.167c-0.144,0.193-0.077,0.462,0.116,0.588c0.067,0.058,0.154,0.077,0.231,0.077c0.154,0,0.289-0.068,0.366-0.193        l1.426-2.167C170.812,220.313,170.754,220.044,170.552,219.919z M173.393,215.584c-0.202-0.125-0.472-0.077-0.597,0.125        l-1.426,2.158c-0.125,0.202-0.067,0.472,0.135,0.597c0.067,0.058,0.154,0.077,0.231,0.077c0.135,0,0.279-0.067,0.366-0.193        l1.406-2.167C173.654,215.979,173.586,215.719,173.393,215.584z M176.225,211.259c-0.193-0.135-0.462-0.077-0.597,0.115        l-1.416,2.167c-0.135,0.212-0.068,0.462,0.125,0.607c0.068,0.038,0.154,0.067,0.231,0.067c0.145,0,0.279-0.067,0.366-0.202        l1.416-2.158C176.485,211.654,176.428,211.384,176.225,211.259z M179.067,206.935c-0.202-0.135-0.472-0.077-0.597,0.125        l-1.425,2.167c-0.125,0.193-0.068,0.462,0.135,0.588c0.068,0.048,0.154,0.077,0.231,0.077c0.135,0,0.27-0.077,0.357-0.202        l1.416-2.158C179.317,207.329,179.259,207.06,179.067,206.935z M181.899,202.6c-0.193-0.125-0.462-0.068-0.597,0.135        l-1.416,2.158c-0.135,0.202-0.077,0.472,0.116,0.597c0.077,0.048,0.154,0.067,0.241,0.067c0.145,0,0.279-0.067,0.366-0.183        l1.416-2.167C182.149,203.005,182.101,202.744,181.899,202.6z M184.74,198.285c-0.019-0.01-0.039-0.019-0.058-0.019        c-0.183-0.106-0.424-0.039-0.549,0.135l-1.416,2.167c-0.125,0.202-0.077,0.462,0.125,0.597        c0.077,0.048,0.154,0.067,0.241,0.067c0.135,0,0.27-0.067,0.356-0.193l0.578-0.867l0.01-0.019l0.01-0.019l0.819-1.252        C184.991,198.68,184.933,198.41,184.74,198.285z M186.946,194.914c-0.202-0.125-0.472-0.077-0.597,0.115l-0.79,1.214        c-0.135,0.193-0.077,0.462,0.116,0.597c0.077,0.048,0.154,0.067,0.241,0.067c0.145,0,0.279-0.067,0.366-0.193l0.78-1.204        C187.196,195.308,187.139,195.039,186.946,194.914z"/>
					</g>
				</g>
				<g>
					<g>
						<path style="fill:#412945;" d="M386.505,205.075c-0.125-0.067-0.26-0.135-0.405-0.221c-0.491-0.26-1.117-0.597-1.888-1.002        c-0.212-0.115-0.472-0.029-0.578,0.183c-0.116,0.212-0.039,0.472,0.173,0.587c0.79,0.414,1.435,0.761,1.917,1.011h0.01        c0.135,0.077,0.25,0.144,0.366,0.202c0.058,0.038,0.125,0.048,0.193,0.048c0.154,0,0.308-0.087,0.385-0.231        C386.794,205.451,386.716,205.191,386.505,205.075z M381.91,202.658c-0.703-0.376-1.474-0.771-2.302-1.195        c-0.212-0.106-0.482-0.029-0.578,0.193c-0.116,0.202-0.029,0.462,0.183,0.578c0.828,0.424,1.599,0.819,2.302,1.185        c0.067,0.029,0.135,0.048,0.193,0.048c0.164,0,0.308-0.087,0.385-0.231C382.209,203.024,382.122,202.754,381.91,202.658z         M377.296,200.288c-0.732-0.366-1.512-0.751-2.321-1.156c-0.202-0.106-0.462-0.019-0.578,0.183        c-0.106,0.221-0.019,0.482,0.202,0.578c0.799,0.404,1.57,0.8,2.312,1.165c0.058,0.038,0.125,0.048,0.183,0.048        c0.164,0,0.308-0.087,0.385-0.241C377.595,200.654,377.508,200.394,377.296,200.288z M372.654,197.977        c-0.751-0.375-1.522-0.751-2.312-1.136c-0.222-0.106-0.482-0.019-0.578,0.193c-0.106,0.212-0.019,0.462,0.193,0.568        c0.79,0.395,1.57,0.78,2.321,1.146c0.058,0.029,0.125,0.048,0.193,0.048c0.164,0,0.308-0.087,0.385-0.241        C372.962,198.333,372.875,198.073,372.654,197.977z M368.001,195.694c-0.761-0.356-1.532-0.742-2.331-1.117        c-0.221-0.106-0.472-0.01-0.578,0.212c-0.096,0.212-0.01,0.462,0.202,0.568c0.8,0.385,1.58,0.751,2.331,1.117        c0.067,0.038,0.125,0.038,0.193,0.038c0.154,0,0.308-0.087,0.385-0.241C368.309,196.06,368.213,195.8,368.001,195.694z         M363.33,193.469l-2.35-1.108c-0.202-0.106-0.462-0.01-0.568,0.202c-0.096,0.222-0.01,0.482,0.212,0.578l2.331,1.098        c0.067,0.039,0.135,0.048,0.193,0.048c0.164,0,0.318-0.087,0.385-0.25C363.638,193.815,363.542,193.565,363.33,193.469z         M358.639,191.263c-0.771-0.347-1.551-0.713-2.35-1.079c-0.221-0.096-0.472,0-0.568,0.212        c-0.096,0.212-0.01,0.472,0.212,0.568c0.79,0.376,1.58,0.732,2.34,1.088c0.068,0.019,0.125,0.039,0.183,0.039        c0.164,0,0.318-0.096,0.385-0.25C358.947,191.629,358.851,191.369,358.639,191.263z M353.929,189.115        c-0.771-0.357-1.56-0.713-2.36-1.069c-0.212-0.096-0.472,0-0.568,0.212c-0.096,0.212,0,0.472,0.212,0.568        c0.809,0.366,1.589,0.713,2.37,1.069c0.058,0.029,0.116,0.038,0.164,0.038c0.164,0,0.337-0.096,0.405-0.25        C354.247,189.462,354.15,189.202,353.929,189.115z M349.209,186.986c-0.78-0.347-1.57-0.694-2.37-1.05        c-0.221-0.096-0.472,0.01-0.568,0.231c-0.096,0.212,0.01,0.472,0.222,0.568c0.799,0.337,1.589,0.694,2.369,1.04        c0.048,0.029,0.116,0.029,0.174,0.029c0.164,0,0.318-0.087,0.395-0.25C349.527,187.333,349.421,187.083,349.209,186.986z         M344.47,184.906c-0.79-0.347-1.58-0.684-2.379-1.031c-0.222-0.096-0.472,0-0.568,0.231c-0.087,0.212,0.01,0.472,0.231,0.559        c0.799,0.347,1.58,0.684,2.369,1.031c0.058,0.019,0.116,0.038,0.173,0.038c0.164,0,0.328-0.106,0.395-0.26        C344.788,185.253,344.682,185.002,344.47,184.906z M339.712,182.864c-0.79-0.337-1.58-0.674-2.389-1.011        c-0.221-0.096-0.472,0.01-0.568,0.222c-0.087,0.231,0.01,0.472,0.241,0.568c0.799,0.337,1.589,0.674,2.379,1.012        c0.058,0.019,0.106,0.038,0.173,0.038c0.164,0,0.328-0.106,0.395-0.27C340.039,183.201,339.933,182.95,339.712,182.864z         M334.944,180.851c-0.799-0.327-1.599-0.655-2.398-0.992c-0.221-0.087-0.472,0.019-0.559,0.231        c-0.096,0.231,0,0.482,0.231,0.568c0.799,0.327,1.599,0.655,2.389,0.992c0.058,0.019,0.106,0.029,0.164,0.029        c0.173,0,0.337-0.106,0.404-0.27C335.262,181.197,335.156,180.947,334.944,180.851z M330.147,178.886        c-0.79-0.327-1.599-0.645-2.408-0.963c-0.212-0.096-0.462,0.019-0.559,0.231c-0.087,0.221,0.029,0.472,0.241,0.559        c0.799,0.327,1.609,0.645,2.398,0.973c0.058,0.019,0.116,0.029,0.164,0.029c0.173,0,0.337-0.106,0.404-0.27        C330.474,179.223,330.368,178.972,330.147,178.886z M325.34,176.959c-0.799-0.318-1.609-0.636-2.408-0.944        c-0.221-0.096-0.472,0.019-0.559,0.241c-0.087,0.221,0.019,0.472,0.241,0.559c0.809,0.318,1.609,0.636,2.399,0.944        c0.058,0.029,0.115,0.029,0.164,0.029c0.173,0,0.337-0.096,0.404-0.27C325.668,177.296,325.562,177.046,325.34,176.959z         M320.515,175.071c-0.799-0.308-1.608-0.617-2.418-0.915c-0.231-0.087-0.482,0.019-0.559,0.25        c-0.087,0.221,0.029,0.462,0.25,0.549c0.809,0.308,1.618,0.617,2.418,0.925c0.048,0.019,0.106,0.029,0.154,0.029        c0.173,0,0.337-0.096,0.395-0.27C320.842,175.409,320.736,175.158,320.515,175.071z M315.67,173.241        c-0.799-0.299-1.608-0.607-2.418-0.905c-0.231-0.077-0.482,0.029-0.559,0.26c-0.087,0.222,0.029,0.462,0.25,0.549        c0.809,0.299,1.628,0.607,2.427,0.905c0.048,0.019,0.106,0.029,0.154,0.029c0.173,0,0.337-0.115,0.395-0.289        C316.007,173.569,315.891,173.328,315.67,173.241z M310.815,171.45c-0.809-0.299-1.628-0.588-2.437-0.886        c-0.221-0.077-0.472,0.038-0.549,0.26c-0.077,0.231,0.029,0.472,0.26,0.559c0.819,0.289,1.628,0.578,2.427,0.877        c0.048,0.019,0.106,0.029,0.145,0.029c0.183,0,0.347-0.115,0.405-0.289C311.152,171.777,311.046,171.527,310.815,171.45z         M305.941,169.697c-0.809-0.289-1.628-0.568-2.447-0.857c-0.231-0.068-0.472,0.048-0.549,0.27        c-0.077,0.222,0.048,0.472,0.27,0.549c0.809,0.289,1.628,0.578,2.437,0.857c0.048,0.019,0.096,0.029,0.135,0.029        c0.183,0,0.347-0.116,0.414-0.299C306.288,170.024,306.163,169.783,305.941,169.697z M301.039,168.011        c-0.809-0.279-1.628-0.559-2.447-0.828c-0.221-0.077-0.472,0.039-0.549,0.26c-0.067,0.231,0.048,0.482,0.279,0.559        c0.819,0.26,1.638,0.539,2.447,0.828c0.039,0.01,0.096,0.01,0.135,0.01c0.183,0,0.347-0.106,0.414-0.289        C301.385,168.329,301.27,168.088,301.039,168.011z M296.136,166.364c-0.819-0.27-1.647-0.539-2.466-0.809        c-0.221-0.068-0.462,0.058-0.539,0.289c-0.068,0.221,0.048,0.462,0.27,0.53c0.828,0.27,1.647,0.539,2.456,0.809        c0.058,0.01,0.096,0.019,0.145,0.019c0.183,0,0.347-0.116,0.405-0.299C296.483,166.682,296.357,166.441,296.136,166.364z         M291.243,164.794c-0.01-0.01-0.029-0.019-0.038-0.019l-2.418-0.761l-0.058-0.019c-0.221-0.068-0.462,0.067-0.53,0.289        c-0.077,0.221,0.048,0.472,0.279,0.539l0.039,0.01l2.427,0.761c0.01,0,0.019,0.009,0.029,0.009        c0.038,0.01,0.067,0.019,0.106,0.019c0.173,0,0.347-0.125,0.405-0.308C291.551,165.102,291.445,164.871,291.243,164.794z         M286.253,163.243l-2.466-0.761c-0.231-0.068-0.472,0.058-0.539,0.279c-0.068,0.241,0.058,0.482,0.289,0.549l2.466,0.751        c0.048,0.01,0.087,0.01,0.135,0.01c0.183,0,0.356-0.106,0.405-0.299C286.619,163.551,286.494,163.311,286.253,163.243z         M281.312,161.731l-2.485-0.732c-0.222-0.067-0.462,0.058-0.539,0.279c-0.067,0.241,0.067,0.482,0.299,0.539l2.475,0.742        c0.039,0.01,0.087,0.019,0.125,0.019c0.183,0,0.356-0.125,0.414-0.308C281.659,162.039,281.534,161.798,281.312,161.731z         M276.342,160.267c-0.828-0.241-1.657-0.482-2.485-0.722c-0.231-0.067-0.462,0.067-0.53,0.289        c-0.067,0.231,0.068,0.472,0.289,0.539c0.828,0.241,1.657,0.482,2.485,0.722c0.048,0.01,0.077,0.019,0.125,0.019        c0.183,0,0.356-0.125,0.414-0.318C276.708,160.575,276.573,160.334,276.342,160.267z M271.372,158.822        c-0.838-0.231-1.666-0.462-2.495-0.693c-0.222-0.068-0.462,0.067-0.53,0.289c-0.068,0.231,0.077,0.482,0.299,0.539        c0.828,0.231,1.657,0.462,2.485,0.703c0.039,0.01,0.087,0.019,0.116,0.019c0.193,0,0.366-0.125,0.424-0.318        C271.728,159.14,271.603,158.899,271.372,158.822z M266.382,157.425l-2.485-0.684c-0.231-0.058-0.472,0.077-0.539,0.299        c-0.058,0.231,0.077,0.462,0.308,0.54l2.485,0.674c0.048,0.019,0.077,0.019,0.125,0.019c0.183,0,0.357-0.116,0.414-0.308        C266.748,157.733,266.623,157.493,266.382,157.425z M261.393,156.067l-2.495-0.674c-0.241-0.058-0.472,0.077-0.53,0.298        c-0.058,0.241,0.077,0.472,0.299,0.53l2.504,0.674c0.029,0.01,0.077,0.019,0.106,0.019c0.193,0,0.366-0.135,0.414-0.318        C261.759,156.356,261.624,156.125,261.393,156.067z M256.394,154.728l-2.504-0.655c-0.241-0.058-0.472,0.077-0.53,0.308        c-0.058,0.241,0.077,0.472,0.308,0.53l2.504,0.655c0.039,0.01,0.077,0.01,0.106,0.01c0.193,0,0.376-0.125,0.414-0.318        C256.76,155.027,256.615,154.796,256.394,154.728z M251.375,153.428l-2.504-0.636c-0.231-0.058-0.472,0.087-0.52,0.318        c-0.058,0.222,0.077,0.462,0.308,0.52l2.514,0.636c0.029,0.01,0.068,0.019,0.096,0.019c0.193,0,0.376-0.135,0.414-0.327        C251.751,153.727,251.606,153.486,251.375,153.428z M246.357,152.166c-0.848-0.212-1.676-0.414-2.504-0.616        c-0.231-0.058-0.472,0.086-0.53,0.308c-0.058,0.231,0.087,0.472,0.318,0.53c0.828,0.193,1.667,0.405,2.514,0.617        c0.029,0.01,0.067,0.01,0.096,0.01c0.202,0,0.376-0.125,0.424-0.328C246.733,152.455,246.588,152.224,246.357,152.166z         M241.329,150.933l-2.514-0.597c-0.231-0.058-0.462,0.087-0.52,0.318c-0.058,0.231,0.087,0.462,0.318,0.52l2.514,0.597        c0.038,0.01,0.067,0.01,0.106,0.01c0.193,0,0.366-0.125,0.424-0.328C241.705,151.222,241.57,150.991,241.329,150.933z         M236.291,149.739l-2.524-0.587c-0.231-0.048-0.462,0.096-0.51,0.327c-0.058,0.231,0.087,0.463,0.318,0.52l2.524,0.588        c0.038,0,0.058,0.01,0.096,0.01c0.202,0,0.366-0.145,0.424-0.337C236.667,150.028,236.523,149.787,236.291,149.739z         M231.244,148.573c-0.848-0.183-1.695-0.376-2.524-0.559c-0.231-0.048-0.462,0.096-0.51,0.327        c-0.048,0.221,0.096,0.453,0.318,0.51c0.829,0.193,1.676,0.366,2.533,0.568c0.029,0.009,0.067,0.009,0.087,0.009        c0.202,0,0.385-0.144,0.424-0.337C231.629,148.862,231.475,148.631,231.244,148.573z M226.197,147.456        c-0.867-0.193-1.705-0.376-2.533-0.549c-0.241-0.048-0.462,0.096-0.51,0.328c-0.058,0.241,0.096,0.462,0.327,0.51        c0.828,0.173,1.666,0.366,2.524,0.559h0.096c0.193,0,0.376-0.135,0.424-0.337        C226.572,147.726,226.428,147.504,226.197,147.456z M221.13,146.367c-0.867-0.183-1.714-0.366-2.533-0.53        c-0.231-0.058-0.462,0.096-0.51,0.328c-0.048,0.241,0.096,0.472,0.327,0.51c0.829,0.173,1.676,0.347,2.543,0.54        c0.029,0,0.058,0.01,0.087,0.01c0.193,0,0.376-0.145,0.414-0.347C221.516,146.647,221.371,146.416,221.13,146.367z         M216.054,145.318c-0.867-0.183-1.715-0.347-2.533-0.51c-0.231-0.048-0.462,0.106-0.51,0.337        c-0.038,0.231,0.106,0.463,0.337,0.511c0.819,0.164,1.666,0.328,2.533,0.51h0.096c0.202,0,0.385-0.135,0.414-0.337        C216.439,145.597,216.285,145.356,216.054,145.318z M210.978,144.306c-0.886-0.174-1.743-0.337-2.543-0.482        c-0.231-0.039-0.453,0.106-0.501,0.337c-0.048,0.241,0.106,0.462,0.337,0.51c0.809,0.145,1.657,0.308,2.543,0.482        c0.029,0.01,0.048,0.01,0.087,0.01c0.202,0,0.376-0.144,0.424-0.347C211.363,144.576,211.209,144.354,210.978,144.306z         M205.892,143.353c-0.934-0.173-1.782-0.328-2.552-0.472c-0.231-0.029-0.462,0.115-0.501,0.356        c-0.039,0.231,0.116,0.462,0.347,0.501c0.771,0.135,1.618,0.289,2.543,0.462h0.087c0.202,0,0.376-0.144,0.424-0.347        C206.278,143.622,206.123,143.391,205.892,143.353z M200.778,142.447c-1.666-0.298-2.562-0.424-2.562-0.424        c-0.029-0.01-0.068-0.01-0.096,0h-0.01c-0.193,0.019-0.347,0.154-0.385,0.357c-0.039,0.241,0.125,0.453,0.356,0.491        c0,0,0.019,0,0.038,0.01h0.01c0.212,0.029,1.069,0.164,2.514,0.414h0.067c0.212,0,0.385-0.145,0.424-0.356        C201.173,142.707,201.018,142.476,200.778,142.447z"/>
					</g>
				</g>
				<g>
					<g>
						<g>
							<path style="fill:#412945;" d="M312.13,151.856c-0.853,2.663-3.704,4.129-6.366,3.276c-2.663-0.853-4.129-3.704-3.276-6.366         s3.704-4.129,6.366-3.276C311.517,146.343,312.983,149.193,312.13,151.856z"/>
						</g>
					</g>
					<g>
						<g>
							<path style="fill:#412945;" d="M301.918,183.716c-0.853,2.663-3.704,4.129-6.366,3.276c-2.663-0.854-4.129-3.704-3.276-6.366         c0.853-2.663,3.704-4.129,6.366-3.276C301.304,178.203,302.771,181.053,301.918,183.716z"/>
						</g>
					</g>
					<g>
						<g>
							<path style="fill:#412945;" d="M291.347,216.694c-0.853,2.663-3.704,4.129-6.366,3.276c-2.663-0.853-4.129-3.704-3.276-6.366         c0.853-2.663,3.704-4.129,6.366-3.276C290.734,211.181,292.201,214.031,291.347,216.694z"/>
						</g>
					</g>
					<g>
						<g>
							<path style="fill:#412945;" d="M280.777,249.672c-0.853,2.663-3.704,4.129-6.366,3.276c-2.663-0.853-4.129-3.704-3.276-6.366         c0.853-2.662,3.704-4.129,6.366-3.276S281.63,247.009,280.777,249.672z"/>
						</g>
					</g>
					<g>
						<g>
							<path style="fill:#412945;" d="M270.206,282.65c-0.853,2.663-3.704,4.129-6.366,3.276c-2.663-0.853-4.129-3.704-3.276-6.366         c0.853-2.663,3.704-4.129,6.366-3.276S271.06,279.987,270.206,282.65z"/>
						</g>
					</g>
					<g>
						<g>
							<path style="fill:#412945;" d="M259.636,315.628c-0.853,2.663-3.704,4.129-6.366,3.276c-2.663-0.853-4.129-3.704-3.276-6.366         c0.853-2.663,3.704-4.129,6.366-3.276C259.022,310.115,260.489,312.965,259.636,315.628z"/>
						</g>
					</g>
					<g>
						<g>
							<path style="fill:#412945;" d="M249.065,348.606c-0.853,2.663-3.704,4.129-6.366,3.276c-2.662-0.854-4.129-3.704-3.276-6.366         c0.853-2.663,3.704-4.129,6.366-3.276C248.452,343.093,249.919,345.943,249.065,348.606z"/>
						</g>
					</g>
				</g>
				<g>
					<g>
						<g>
							<path style="fill:#412945;" d="M297.2,371.333c-0.253,0-0.507-0.073-0.731-0.227c-0.588-0.404-0.738-1.21-0.335-1.798         l41.381-60.311c0.406-0.589,1.211-0.737,1.798-0.335c0.589,0.404,0.738,1.21,0.335,1.798l-41.381,60.311         C298.016,371.137,297.611,371.333,297.2,371.333z"/>
						</g>
					</g>
					<g>
						<g>
							<path style="fill:#412945;" d="M162.495,324.669c-0.064,0-0.129-0.004-0.195-0.014c-0.706-0.107-1.192-0.765-1.086-1.472         l9.684-64.272c0.106-0.706,0.758-1.192,1.472-1.086c0.706,0.107,1.192,0.765,1.086,1.472l-9.684,64.272         C163.676,324.209,163.124,324.669,162.495,324.669z"/>
						</g>
					</g>
				</g>
			</g>
			<g>
				<g>
					<g>
						<circle style="fill:#FFC063;" cx="364.309" cy="160.066" r="18.791"/>
					</g>
					<g>
						<g>
							<g>
								<path style="fill:#412945;" d="M357.529,160.842c-0.014,1.344-1.092,2.421-2.407,2.407          c-1.315-0.014-2.369-1.115-2.355-2.458s1.092-2.421,2.407-2.407C356.489,158.397,357.543,159.498,357.529,160.842z"/>
							</g>
							<g>
								<path style="fill:#412945;" d="M376.06,161.04c-0.014,1.344-1.092,2.421-2.407,2.407c-1.315-0.014-2.369-1.115-2.355-2.458          c0.014-1.344,1.092-2.421,2.407-2.407C375.02,158.596,376.074,159.697,376.06,161.04z"/>
							</g>
						</g>
						<g>
							<path style="fill:#412945;" d="M365.158,168.575c-0.056,0-0.114-0.003-0.171-0.007c-2.878-0.215-3.773-5.523-3.865-6.126         c-0.051-0.332,0.177-0.643,0.509-0.693c0.326-0.052,0.642,0.176,0.693,0.509c0.198,1.284,1.128,4.977,2.753,5.097         c1.416,0.127,2.384-3.255,2.615-4.902c0.047-0.333,0.355-0.561,0.687-0.517c0.332,0.046,0.564,0.354,0.517,0.686         C368.809,163.241,367.982,168.575,365.158,168.575z"/>
						</g>
					</g>
				</g>
				<g>
					<g>
						<path style="fill:#FFFFFF;" d="M206.239,113.589c-0.395,6.222,4.787,9.497,10.576,7.802c-0.626,4.248-4.229,3.718-7.86,2.851        c-0.905,0.125-1.474,3.824-1.464,4.537c-0.029,1.358,1.994,2.09,6.068,2.177c7.908-0.029,9.96-6.588,10.229-14.304        C225.551,103.206,207.096,100.451,206.239,113.589z M215.014,111.576c2.215,0.308,1.878,2.35,1.984,4.71        C213.116,118.829,210.285,111.971,215.014,111.576z"/>
					</g>
					<g>
						<path style="fill:#FFFFFF;" d="M240.607,108.34c-13.389-3.699-19.438,22.501-5.905,25.159        C247.985,137.256,254.14,110.873,240.607,108.34z M236.282,126.67c-4.392-1.416-1.792-12.185,2.697-11.626        C243.275,116.498,240.838,127.315,236.282,126.67z"/>
					</g>
					<g>
						<path style="fill:#FFFFFF;" d="M256.557,114.216l-2.88,7.022c-0.347,0.674,0.78,1.512,1.454,1.763        c0.645,0.289,2.081,0.491,2.302-0.222l4.874-6.193C262.414,114.996,257.598,113.021,256.557,114.216z"/>
					</g>
					<g>
						<path style="fill:#FFFFFF;" d="M274.752,130.715c-6.155-7.311-17.241-3.381-11.231,6.117c3.024,4.845-2.427,1.608-3.506-1.551        c-8.486,2.842,2.312,11.376,7.031,9.844c6.367-2.071,4.97-7.311,1.58-11.52c-0.26-2.774,3.246,0.347,3.689,1.474        C273.972,134.578,277.421,132.94,274.752,130.715z"/>
					</g>
				</g>
			</g>
		</g>
	</g>
</g>
<g>
</g>
<g>
</g>
<g>
</g>
<g>
</g>
<g>
</g>
<g>
</g>
<g>
</g>
<g>
</g>
<g>
</g>
<g>
</g>
<g>
</g>
<g>
</g>
<g>
</g>
<g>
</g>
<g>
</g>
</svg>
