<?xml version="1.0" encoding="UTF-8"?>
<!-- Generator: Adobe Illustrator 25.4.1, SVG Export Plug-In . SVG Version: 6.00 Build 0)  -->
<svg xmlns="http://www.w3.org/2000/svg" xmlns:xlink="http://www.w3.org/1999/xlink" version="1.1" id="Capa_1" x="0px" y="0px" viewBox="0 0 512 512" style="enable-background:new 0 0 512 512;" xml:space="preserve" width="512" height="512">
<g>
	<g>
		<path d="M464.975,136.522c-1.788,6.946-2.953,14.128-5.49,20.788c-5.644,14.82-16.079,25.233-31.165,30.559    c-1.789,0.632-4.062-0.106-6.11-0.208c0.15-1.937-0.224-4.115,0.538-5.77c3.796-8.242,4.302-16.995,3.106-25.603    c-4.784-34.455-21.512-60.767-54.515-74.225c-18.442-7.521-37.432-6.916-55.892,1.546c-12.296,5.637-18.557,15.21-18.706,28.509    c-0.393,35.115-0.572,70.232-0.724,105.349c-0.174,39.985-0.228,79.97-0.333,119.956c-0.004,1.444,0,2.889,0,4.563    c-15.234,1.169-29.377,4.11-40.271,15.948c-9.542-11.634-22.255-15.783-37.427-14.951c0-5.119,0.009-9.802-0.001-14.485    c-0.148-65.664-0.293-131.329-0.462-196.994c-0.014-5.458,0.008-10.93-0.341-16.372c-0.897-13.965-6.844-24.968-19.888-31.026    c-24.47-11.365-48.533-9.464-70.76,5.172c-27.562,18.148-40.72,44.687-40.444,77.611c0.044,5.272,2.4,10.51,3.524,15.799    c0.34,1.598,0.806,4.122,0.014,4.782c-1.143,0.954-3.599,1.225-5.118,0.699c-20.191-6.987-30.895-22.133-35.706-42.184    c-0.748-3.117-1.194-6.307-1.78-9.462c0-4.133,0-8.265,0-12.398c0.246-0.818,0.608-1.62,0.72-2.456    c1.884-14.005,6.684-26.847,15.289-38.141c7.54-9.895,16.984-17.348,29.173-21.769c-2.185-1.401-3.95-2.456-5.636-3.625    C67.038,44.58,64.924,19.477,82.195,3.821c2.096-1.9,5.456-3.449,8.106-3.273c1.42,0.094,2.608,4.193,3.823,6.525    c0.331,0.636,0.456,1.408,0.551,2.134c2.61,19.877,14.962,30.533,33.465,35.331c18.427,4.778,36.897,2.052,55.365,0.269    c11.72-1.131,23.437-2.751,35.182-3.023c11.543-0.267,22.418,3.08,31.776,10.265c2.035,1.563,3.809,3.467,4.912,4.483    c5.588-3.614,10.338-7.418,15.683-9.98c9.2-4.41,19.207-5.738,29.332-4.815c15.396,1.403,30.741,3.359,46.136,4.776    c12.808,1.179,25.636,1.355,38.198-2.153c17.841-4.983,29.907-15.417,32.542-34.714c0.297-2.174,0.997-4.299,1.581-6.428    c0.866-3.156,3.142-3.777,5.857-2.781c1.622,0.595,3.174,1.601,4.51,2.719c14.986,12.541,16.553,34.029,3.31,48.361    c-3.585,3.88-7.974,7.017-11.925,10.435c22.062,8.962,34.98,25.966,41.399,48.462c1.281,4.488,1.998,9.137,2.976,13.711    C464.975,128.257,464.975,132.39,464.975,136.522z"/>
		<path d="M212.611,512c-5.812-1.486-11.878-2.368-17.352-4.661c-3.991-1.672-7.436-4.958-10.662-8.012    c-1.596-1.51-1.344-3.728,1.471-4.737c16.291-5.841,23.385-18.903,26.426-34.704c5.255-27.297,0.898-53.704-8.801-79.33    c-1.98-5.23-5.832-9.836-9.247-14.413c-2.97-3.98-3.019-6.59,0.942-9.648c5.669-4.376,12.491-5.108,19.251-5.571    c18.673-1.279,30.134,4.701,40.795,20.593c4.545-4.514,8.653-9.811,13.877-13.547c13.729-9.817,28.761-8.832,43.866-3.477    c1.978,0.702,4.117,2.189,5.159,3.925c0.94,1.568,1.433,4.921,0.492,5.871c-11.815,11.928-14.762,27.614-18.332,42.913    c-4.776,20.466-4.462,40.878,2.504,60.946c4.216,12.146,11.587,21.463,23.885,26.106c3.61,1.363,3.998,3.468,1.855,5.86    c-2.199,2.454-4.808,5.087-7.776,6.192c-6.418,2.389-13.182,3.852-19.804,5.693c-3.837,0-7.674,0-11.511,0    c-8.624-1.854-17.211-3.866-24.59-9.041c-2.943-2.064-5.649-4.465-7.867-6.236c-4.496,3.077-8.286,6.569-12.75,8.513    c-6.519,2.838-13.522,4.565-20.319,6.765C220.285,512,216.448,512,212.611,512z"/>
	</g>
	<g>
		<path style="fill:#FFFFFF;" d="M254.132,391.897c3.819-2.767,6.733-5.615,10.644-8.247c6.904-4.648,13.099-1.727,13.518,6.602    c0.181,3.597-0.203,7.49-1.435,10.843c-5.029,13.686-10.405,27.246-15.831,40.781c-1.608,4.011-3.922,4.464-5.952,1.235    c-8.638-13.739-17.215-27.584-20.073-43.917c-0.694-3.968-0.645-8.291,0.139-12.238c1.157-5.824,6.994-8.082,11.559-4.334    C250.196,385.493,254.887,392.325,254.132,391.897z"/>
		<g>
			<path style="fill:#FFFFFF;" d="M270.713,87.716c-0.716,1.2-1.36,2.451-2.159,3.594c-17.59,25.181-21.724,53.207-17.987,83.055     c3.127,24.982,10.96,48.843,16.758,73.193c5.3,22.261,6.461,44.611-0.404,66.831c-2.238,7.244-5.315,14.107-11.34,19.099     c-1.554,1.287-3.578,2.008-5.386,2.989c-0.247-0.346-0.494-0.693-0.742-1.039c1.768-2.002,3.715-3.875,5.273-6.028     c5.919-8.183,7.552-17.766,8.521-27.482c2.298-23.043-2.385-45.168-9.146-66.983c-7.448-24.03-13.06-48.357-12.937-73.724     c0.127-26.176,7.159-50.003,23.687-70.645c1.258-1.572,3.1-2.677,4.67-3.999C269.918,86.956,270.316,87.336,270.713,87.716z"/>
			<g>
				<path style="fill:#FFFFFF;" d="M244.715,271.141c4.173-0.08,7.409,3.176,7.545,7.592c0.139,4.523-3.36,8.065-8.068,8.17      c-4.188,0.092-7.404-2.888-7.562-7.009C236.452,275.259,240.176,271.228,244.715,271.141z"/>
				<path style="fill:#FFFFFF;" d="M276.157,167.445c0.012,4.293-3.273,7.807-7.334,7.847c-4.07,0.039-7.392-3.432-7.408-7.739      c-0.015-4.283,3.277-7.807,7.327-7.842C272.827,159.676,276.145,163.137,276.157,167.445z"/>
			</g>
		</g>
	</g>
</g>















</svg>
