<?xml version="1.0" encoding="UTF-8"?>
<!-- Generator: Adobe Illustrator 26.5.1, SVG Export Plug-In . SVG Version: 6.00 Build 0)  -->
<svg xmlns="http://www.w3.org/2000/svg" xmlns:xlink="http://www.w3.org/1999/xlink" version="1.1" id="Capa_1" x="0px" y="0px" viewBox="0 0 512 512" style="enable-background:new 0 0 512 512;" xml:space="preserve" width="512" height="512">
<g>
	<path style="fill:#FFFFFF;" d="M504.133,304.364c-2.926-4.214-7.729-6.727-12.859-6.727H380.51   c6.401-13.93,9.626-29.337,9.124-44.656c-0.345-10.586-2.494-21.243-6.282-31.347l9.009-8.727   c5.673-5.496,6.363-14.361,1.605-20.667l-12.037-15.959c-2.6-3.447-6.508-5.667-10.799-6.136c-0.567-0.061-1.132-0.092-1.698-0.092   c-3.71,0-7.322,1.321-10.17,3.755l-2.199,1.88l-2.413-2.247c-2.91-2.71-6.728-4.2-10.668-4.2c-0.494,0-0.991,0.023-1.488,0.071   c-0.275,0.025-0.548,0.059-0.819,0.099c-2.732-2.505-5.224-5.031-7.285-7.687l-0.022-6.644l0.067-2.8   c0.098-3.891,0.176-7.495,0.185-10.78c3.088-0.746,5.905-2.421,8.049-4.844c2.97-3.359,4.359-7.83,3.811-12.28   c-0.125-1.022-3.024-23.474-16.893-45.429c7.117-51.399,1.567-65.312-5.571-72.535C321.126,3.489,315.963,0,307.795,0   c-5.121,0-18.261,0-56.317,27.938c-7.787-2.186-16.787-3.289-26.884-3.289c-9.662,0-17.184,1.019-19.077,1.3   c-12.352,1.424-23.72,4.572-33.892,9.377c-15.569-4.583-38.868-10.516-55.12-10.516c-14.33,0-23.689,4.745-27.819,14.103   c-2.45,5.553-7.082,16.145,14.227,57.838c-1.174,0.574-2.306,1.244-3.317,2.108l-2.199,1.88l-2.412-2.247   c-2.911-2.71-6.728-4.2-10.668-4.2c-0.494,0-0.991,0.023-1.488,0.07c-4.454,0.425-8.515,2.737-11.154,6.352l-12.245,16.77   c-4.629,6.34-3.846,15.129,1.832,20.55l23.707,22.64c0.085,0.101,0.185,0.189,0.272,0.288c-3.878,8.845-6.05,18.816-6.05,29.296   c0,1.092,0.025,2.188,0.074,3.286c-2.026,1.094-4.109,2.185-6.241,3.3C61.96,202.634,50.52,208.618,40.807,218.5   c-22.393,22.755-27.383,60.512-12.157,91.783c2.446,5.056,5.378,9.933,8.718,14.495c0.512,0.699,1.075,1.349,1.684,1.944   C8.464,360.554,5.382,467.674,5.075,489.043c-0.06,4.189,1.563,8.228,4.504,11.212c2.214,2.247,5.036,3.754,8.085,4.361   C20.426,509.05,25.346,512,30.955,512h389.502c5.406,0,10.43-2.79,13.287-7.379l6.491-10.426c0.883-1.417,1.513-2.941,1.895-4.514   l63.808-170.917C507.732,313.958,507.058,308.579,504.133,304.364z"/>
	<g>
		<path style="fill:#2E1144;" d="M355.951,309.425c-10.425,12.181-24.177,21.126-38.624,28.13    c-41.398,20.017-88.528,24.732-134.502,24.709c-26.512-0.023-53.44-1.595-78.45-10.309c-17.752-6.195-34.556-16.388-46.968-30.303    c5.27-17.174,12.99-33.285,24.871-47.292c-12.806,11.164-23.207,25.033-30.442,40.381c-2.774-3.791-5.201-7.813-7.258-12.066    c-11.604-23.831-9.361-55.105,9.223-73.989c13.337-13.568,32.661-19.254,48.147-30.303c12.458-8.922,22.028-21.589,27.783-35.758    c5.016-12.274,7.836-26.766,5.848-40.034c-0.925-6.056-2.727-9.477,0.046-15.371c2.843-5.986,7.558-11.603,11.996-16.457    c18.052-19.763,44.611-32.013,71.516-31.435c37.006,0.786,72.371,25.819,85.408,60.467c6.056,16.111,7.813,34.14,17.544,48.309    c7.974,11.58,20.387,19.231,30.187,29.286c14.308,14.678,22.883,34.81,23.553,55.313    C376.499,273.182,369.265,293.846,355.951,309.425z"/>
		<g>
			<path style="fill:#FF93E2;" d="M320.62,173.225l0.13,44.579c0.348,8.668-3.041,16.163-7.973,22.094     c-8.516,10.232-15.792,14.286-28.503,15.142l-30.654,0.543l-4.866,0.087l0.847,17.51l0.934,19.139l-25.266,28.047l-67.955-34.76     l-6.148-106.691l-5.301-32.348l0.326-0.043c-0.195-2.433-0.326-4.888-0.326-7.365c0-48.598,39.387-87.986,87.985-87.986     c48.599,0,79.057,30.871,86.465,78.905c0.826,5.409,0.413,16.359,0.239,24.049L320.62,173.225z"/>
			<g>
				<g>
					
						<ellipse transform="matrix(0.7071 -0.7071 0.7071 0.7071 -85.4423 206.3127)" style="opacity:0.44;fill:#B179FF;" cx="206.32" cy="206.294" rx="33.65" ry="33.65"/>
					<path style="opacity:0.46;fill:#B179FF;" d="M320.75,217.804c0.348,8.668-3.041,16.163-7.973,22.094       c-17.858-0.782-32.131-15.511-32.131-33.608c0-18.575,15.077-33.652,33.652-33.652c2.151,0,4.28,0.196,6.322,0.587       L320.75,217.804z"/>
				</g>
				<g>
					
						<ellipse transform="matrix(0.2298 -0.9732 0.9732 0.2298 -2.1659 349.7806)" style="fill:#2E1144;" cx="219.901" cy="176.259" rx="9.235" ry="9.235"/>
					
						<ellipse transform="matrix(0.2298 -0.9732 0.9732 0.2298 58.0176 425.8258)" style="fill:#2E1144;" cx="298.036" cy="176.259" rx="9.235" ry="9.235"/>
					
						<path style="fill:none;stroke:#2E1144;stroke-width:2.5346;stroke-linecap:round;stroke-linejoin:round;stroke-miterlimit:10;" d="       M251.526,188.452c0,0,2.589,17.149,11.648,16.825c9.06-0.324,10.262-17.749,10.262-17.749"/>
					<g>
						<path style="fill:#2E1144;" d="M202.992,161.551c0,0,3.328-13.312,13.312-13.312c9.984,0,12.942,4.807,12.942,4.807        L202.992,161.551z"/>
						<path style="fill:#2E1144;" d="M314.747,158.859c0,0-5.203-12.697-15.084-11.265c-9.881,1.432-12.119,6.614-12.119,6.614        L314.747,158.859z"/>
					</g>
				</g>
			</g>
			<path style="opacity:0.44;fill:#2E1144;" d="M248.74,256.692l0.861,16.489c-7.408,3.585-16.489,5.605-26.635,2.998     c-27.373-7.017-37.373-22.585-37.373-22.585l63.294,2.213L248.74,256.692z"/>
		</g>
		<g>
			<path style="fill:#2E1144;" d="M149.447,185.136c0,0,28.03-8.424,53.176-48.361s27.364-87.269,27.364-87.269     s-91.337,1.849-95.035,32.541c-3.698,30.692,6.286,102.8,6.286,102.8"/>
		</g>
		<g>
			<g>
				<path style="fill:#00DBDA;" d="M136.663,120.806c0,0-38.184-61.942-31.82-76.367c6.364-14.425,75.094,8.485,75.094,8.485      S138.36,83.471,136.663,120.806z"/>
				<path style="fill:#FFE7DE;" d="M143.349,96.613c0,0-25.18-38.557-19.278-45.245s46.032,5.902,46.032,5.902L143.349,96.613z"/>
			</g>
			<g>
				<path style="fill:#00DBDA;" d="M312.182,99.317c0,0,13.625-71.478,2.542-82.692c-11.083-11.213-67.151,34.668-67.151,34.668      S297.302,65.033,312.182,99.317z"/>
				<path style="fill:#FFE7DE;" d="M307.55,84.598c0,0,9.801-44.995,1.904-49.144c-7.896-4.149-40.914,21.905-40.914,21.905      L307.55,84.598z"/>
			</g>
			<g>
				<path style="fill:#00DBDA;" d="M133.054,152.043c-0.238-2.004-5.536-49.445,20.475-82.267      c13.165-16.615,31.971-26.405,55.891-29.101c1.64-0.261,44.773-6.686,58.354,13.522l-7.672,5.158      c-8.561-12.737-38.604-11.19-49.458-9.518c-21.573,2.434-38.288,11.066-49.868,25.681c-23.646,29.84-18.593,74.979-18.54,75.432      L133.054,152.043z"/>
			</g>
		</g>
		<path style="fill:#2E1144;" d="M285.469,125.495c-2.498-11.21-5.735-22.355-12.47-31.523c3.758,10.037,5.518,20.812,5.171,31.523    h-24.136c-6.67-50.467-49.924-73.213-49.924-73.213s39.365-13.317,80.968,4.997c41.603,18.292,47.708,68.216,47.708,68.216    H285.469z"/>
		<path style="fill:#FF93E2;" d="M174.528,172.742c0,0-34.396-26.119-47.739-9.518c-13.342,16.6-10.096,46.698,28.854,52.009    L174.528,172.742z"/>
		<polygon style="fill:#2E1144;" points="186.626,156.021 170.496,193.398 150.824,159.562   "/>
		<path style="fill:#B179FF;" d="M156.529,276.019c0,0,42.491,23.606,61.966,21.836c19.475-1.771,32.458-23.016,31.868-21.246    c-0.59,1.77,99.146,14.164,113.9,63.737c14.754,49.573,24.196,148.129,24.196,148.129H22.564c0,0,1.771-123.342,30.688-152.85    C82.169,306.117,156.529,276.019,156.529,276.019z"/>
		<g>
			<g>
				<path style="fill:#FFE7DE;" d="M128.467,197.747c0,23.138-18.583,34.249-0.899,39.231c1.06,0.312,2.136,0.565,3.212,0.758      c1.157,0.208,2.329,0.357,3.518,0.431c0.755,0.059,1.542,0.089,2.313,0.089c1.478,0,2.923-0.089,4.337-0.283      c4.803-0.639,9.22-2.335,13.123-4.907c0.016,0.015,0.016,0.015,0.016,0c12.095-7.911,19.499-24.105,19.499-43.094      c0-20.179-8.384-37.786-21.844-45.355h-0.016c-3.421-1.918-7.164-3.197-11.179-3.688c-1.285-0.163-1.519,22.717-2.852,22.717      c-1.317,0-8.284-3.834-9.569-3.67c-0.996,0.119,2.575-18.779,1.627-18.586c-0.787,0.164-1.558,0.357-2.329,0.595      C109.787,147.057,128.467,174.683,128.467,197.747z"/>
			</g>
			<g>
				<path style="fill:#00DBDA;" d="M96.68,189.467c0,23.138,13.203,42.529,30.887,47.511c1.06,0.312,2.136,0.565,3.212,0.758      c0.675,0.119,1.365,0.223,2.056,0.297c0.482,0.059,0.964,0.104,1.462,0.134c0.113,0.015,0.209,0.015,0.321,0.015      c0.659,0.06,1.333,0.074,1.992,0.074c1.478,0,2.923-0.089,4.337-0.283c12.191-9.874,19.515-27.525,19.515-47.912      c0-20.64-7.485-38.96-19.917-49.132c-1.285-0.163-2.602-0.253-3.935-0.253c-1.317,0-2.65,0.074-3.935,0.238      c-0.659,0.074-1.301,0.178-1.927,0.297c-0.337,0.045-0.675,0.119-0.996,0.178c-0.209,0.045-0.418,0.089-0.626,0.149      c-0.578,0.119-1.14,0.268-1.703,0.446C109.787,147.057,96.68,166.403,96.68,189.467z"/>
			</g>
			
				<ellipse style="fill:none;stroke:#2E1144;stroke-width:1.4956;stroke-miterlimit:10;" cx="116.574" cy="189.465" rx="12.098" ry="30.753"/>
			<g>
				<path style="fill:#2E1144;" d="M148.914,195.43c-0.337,14.469-6.087,29.339-16.078,42.604c0.482,0.059,0.964,0.104,1.462,0.134      c0.113,0.015,0.209,0.015,0.321,0.015c9.846-13.324,15.516-28.224,15.853-42.723c0.434-17.443-6.2-35.674-19.724-54.247      c-0.337,0.045-0.675,0.119-0.996,0.178c-0.209,0.045-0.418,0.089-0.626,0.149C142.682,160.009,149.331,178.121,148.914,195.43z"/>
			</g>
		</g>
		<g>
			<g>
				<path style="fill:#2E1144;" d="M145.316,487.688l83.888-175.19h263.909l-64.523,172.829      C428.589,485.327,145.316,486.901,145.316,487.688z"/>
				
					<ellipse transform="matrix(0.2602 -0.9656 0.9656 0.2602 -134.1581 628.7457)" style="fill:#FFE7DE;" cx="343.214" cy="401.919" rx="27.54" ry="14.557"/>
			</g>
			<polygon style="fill:#2E1144;" points="428.786,485.13 22.552,488.166 32.793,495.556 422.294,495.556    "/>
		</g>
		<g>
			<g>
				<path style="fill:#FF93E2;" d="M358.658,224.752l24.65-23.879l-12.037-15.959l-12.816,10.958l-12.634-11.77l-12.246,16.77      l24.925,23.801c0.005,0.134,0.009,0.223,0.009,0.223l0.112-0.108l0.036,0.034C358.656,224.823,358.657,224.792,358.658,224.752z      "/>
				<path style="fill:#FF93E2;" d="M98.991,149.803l24.65-23.879l-12.037-15.959l-12.816,10.958l-12.634-11.77l-12.246,16.77      l24.925,23.801c0.005,0.134,0.009,0.223,0.009,0.223l0.112-0.108l0.036,0.034C98.989,149.874,98.99,149.842,98.991,149.803z"/>
			</g>
			<g>
				<path style="fill:#FFE7DE;" d="M107.054,388.48c5.106-0.301,10.212-0.744,15.317-1.59c-5.106-0.846-10.212-1.289-15.317-1.59      c-2.573-0.164-5.146-0.263-7.719-0.329c-1.367-0.035-2.669-0.587-3.636-1.554l-0.089-0.089      c-0.977-0.977-1.529-2.295-1.553-3.677c-0.057-3.389-0.167-6.778-0.383-10.167c-0.301-5.106-0.744-10.212-1.59-15.317      c-0.846,5.106-1.289,10.211-1.59,15.317c-0.205,3.214-0.312,6.428-0.372,9.642c-0.026,1.379-0.578,2.694-1.553,3.669      l-0.614,0.614c-0.968,0.968-2.272,1.52-3.641,1.554c-2.632,0.065-5.601,0.659-8.233,0.826c-5.106,0.3-9.664,0.59-14.98,1.101      c5.611,0.669,9.8,0.812,14.906,1.112c2.69,0.171,5.792,0.755,8.482,0.819c1.37,0.033,2.675,0.585,3.644,1.554l0.527,0.527      c0.952,0.952,1.499,2.23,1.548,3.575c0.068,1.88,0.16,3.761,0.279,5.641c0.3,5.106,0.745,10.212,1.596,15.317      c0.852-5.106,1.296-10.212,1.596-15.317c0.13-2.054,0.224-4.108,0.292-6.162c0.045-1.35,0.593-2.633,1.548-3.589l0,0      c0.968-0.968,2.271-1.52,3.639-1.554C101.791,388.748,104.422,388.648,107.054,388.48z"/>
				<path style="fill:#FFE7DE;" d="M348.845,284.361c5.106-0.301,10.211-0.744,15.317-1.59c-5.106-0.846-10.212-1.289-15.317-1.59      c-2.573-0.164-5.146-0.263-7.719-0.329c-1.367-0.035-2.669-0.587-3.636-1.554l-0.089-0.089      c-0.977-0.977-1.529-2.295-1.553-3.677c-0.057-3.389-0.167-6.778-0.383-10.167c-0.301-5.106-0.743-10.212-1.59-15.317      c-0.846,5.106-1.289,10.212-1.59,15.317c-0.205,3.214-0.312,6.428-0.372,9.642c-0.025,1.379-0.578,2.694-1.553,3.669      l-0.614,0.614c-0.968,0.968-2.272,1.52-3.641,1.554c-2.632,0.065-5.601,0.659-8.233,0.826c-5.106,0.3-9.664,0.59-14.98,1.101      c5.611,0.669,9.8,0.812,14.906,1.112c2.69,0.171,5.792,0.755,8.482,0.819c1.37,0.033,2.675,0.585,3.644,1.554l0.527,0.527      c0.952,0.952,1.499,2.23,1.548,3.575c0.068,1.88,0.16,3.761,0.279,5.641c0.3,5.106,0.745,10.212,1.596,15.317      c0.851-5.106,1.296-10.212,1.596-15.317c0.13-2.054,0.224-4.108,0.292-6.162c0.045-1.35,0.593-2.633,1.548-3.589l0,0      c0.968-0.968,2.271-1.52,3.639-1.554C343.583,284.629,346.214,284.529,348.845,284.361z"/>
			</g>
		</g>
	</g>
</g>















</svg>
