<?xml version="1.0" encoding="UTF-8"?>
<!-- Generator: Adobe Illustrator 27.3.1, SVG Export Plug-In . SVG Version: 6.00 Build 0)  -->
<svg xmlns="http://www.w3.org/2000/svg" xmlns:xlink="http://www.w3.org/1999/xlink" version="1.1" id="Capa_1" x="0px" y="0px" viewBox="0 0 512 512" style="enable-background:new 0 0 512 512;" xml:space="preserve" width="512" height="512">
<g>
	<path style="fill:#FFFFFF;" d="M311.325,500.185c-8.969,0-18.155-0.574-27.303-1.712c-25.365-3.088-50.596-10.364-74.947-21.618   c-3.211-1.485-6.414-3.033-9.623-4.587c-12.844-6.215-24.977-12.087-36.936-13.174c-1.634-0.155-3.299-0.228-5.165-0.228   c-1.685,0-3.57,0.061-5.757,0.186c-2.463,0.139-4.907,0.333-7.352,0.527c-5.015,0.397-10.201,0.808-15.633,0.808   c-2.249,0-4.347-0.069-6.411-0.211c-37.811-2.453-74.077-31.581-96.938-77.91C-3.225,324.525-7.851,253.773,12.564,188.154   c0.433-1.468,0.955-3.148,1.533-4.82c0.252-0.831,0.53-1.664,0.837-2.494c0.702-2.074,1.433-4.175,2.194-6.246   c0.071-0.193,0.866-2.241,0.866-2.241c0.78-2.041,1.556-4.066,2.392-6.09l0.774-1.837c0.827-2.019,1.683-3.978,2.569-5.967   l0.455-1.029L13.199,85.062c-0.701-4.617,0.523-9.319,3.385-13.008c2.862-3.689,7.113-6.044,11.757-6.512   c7.455-0.753,14.914-1.483,22.386-2.047c7.213-0.544,14.439-0.749,21.629-1.561l34.05-3.412c3.191-3.467,6.948-6.024,10.608-8.36   c17.263-11.102,36.285-20.003,56.485-26.424c0.676-0.228,1.596-0.504,2.517-0.777C198.845,16,223.004,12.263,247.8,11.859   c1.046-0.029,2.267-0.044,3.492-0.044c1.149,0,2.302,0.014,3.455,0.042c2.388,0.004,4.8,0.065,7.185,0.155   c3.458,0.118,6.977,0.298,10.495,0.54c29.046,2.12,57.448,8.642,84.56,19.399l110.084-11.872c0.609-0.067,1.219-0.099,1.828-0.099   c4.116,0,8.118,1.491,11.242,4.233c0.359,0.315,0.703,0.644,1.031,0.984c2.667,2.536,4.543,5.905,5.219,9.732   c0.459,2.603,0.338,5.218-0.329,7.694l2.288,112.824c18.392,40.089,26.294,85.233,22.869,130.823   c-6.315,83.383-47.634,156.399-107.831,190.563C376.066,492.33,345.091,500.185,311.325,500.185z"/>
	<g>
		<g>
			<path style="fill:#DBB0FF;" d="M497.388,285.916c-5.427,71.63-40.119,143.458-99.247,177.014     c-33.215,18.838-71.345,24.208-108.851,19.548c-24.037-2.927-42.221-61.766-64.298-71.966c-16.963-7.842-38.87-1.225-57.31-2.902     c-4.461-0.426-9.405,35.09-13.894,35.345c-9.092,0.511-18.184,1.762-27.248,1.137c-36.341-2.358-65.748-33.84-82.824-68.447     c-27.22-55.178-30.146-122.234-11.706-181.503c0.455-1.534,0.938-3.097,1.477-4.631c0.199-0.682,0.426-1.364,0.682-2.046     c0.682-2.017,1.392-4.063,2.131-6.08c0.256-0.625,0.483-1.25,0.739-1.904c0.739-1.932,1.478-3.864,2.273-5.796     c0.256-0.597,0.512-1.222,0.767-1.818c0.767-1.875,1.563-3.694,2.387-5.54c0.256-0.568,0.511-1.165,0.767-1.733     c0.71-1.563,1.421-3.097,2.188-4.631c5.256-10.911,11.308-21.395,18.156-31.255c6.677-9.604,14.064-18.639,22.049-27.049     c1.847-1.989,3.779-3.949,5.739-5.825c2.074-2.103,4.205-4.092,6.365-6.052c2.245-2.074,4.518-4.063,6.848-6.024     c0.938-0.796,1.847-1.563,2.813-2.302c2.444-2.046,4.944-4.006,7.473-5.91c4.716-3.552,9.547-6.933,14.491-10.087     c16.48-10.598,34.153-18.724,52.479-24.549c0.767-0.256,1.534-0.483,2.301-0.71c21.708-6.62,44.353-10.001,67.112-10.371     c2.131-0.057,4.29-0.057,6.45,0c2.245,0,4.518,0.057,6.762,0.142c3.324,0.114,6.649,0.284,9.973,0.511     c37.335,2.728,74.244,13.411,107.118,31.084c32.732,17.588,59.497,43.103,79.074,73.704     C488.153,178.202,501.508,231.078,497.388,285.916z"/>
		</g>
		<g>
			<g>
				<g>
					<g>
						<path style="fill:#F7EDE5;" d="M478.152,337.423c-57.963,40.29-192.244,16.366-202.302,14.491        c-0.398-0.057-0.597-0.085-0.597-0.085c-0.511,0.426-1.023,0.852-1.534,1.278c-0.938,0.796-1.904,1.591-2.87,2.358        c-6.421,5.143-13.07,9.717-19.861,13.78c-0.597,0.369-1.222,0.739-1.847,1.08c-37.761,22.02-79.699,28.527-112.317,29.493        c-11.792,0.369-22.39,0-31.084-0.625c-0.483-0.029-0.995-0.057-1.449-0.085c-1.563-0.114-3.04-0.256-4.461-0.369        c-0.483-0.085-0.994-0.113-1.478-0.142c-1.591-0.171-3.097-0.341-4.489-0.511c-0.511-0.028-0.995-0.085-1.449-0.142        c-1.705-0.199-3.182-0.398-4.518-0.568c-0.511-0.057-1.023-0.171-1.477-0.227c-3.58-0.511-5.569-0.909-5.569-0.909        l-8.297-54.695l-2.017-13.297l-1.932-12.701l-2.358-15.599v-0.114L33.23,82.415l2.415-0.227l1.421-0.142l4.347-0.455        l1.421-0.114l4.347-0.455l1.421-0.142l4.347-0.426l1.392-0.142l2.813-0.284l0.796,1.279l2.784-0.114        c0,0,3.694-0.739,3.722-0.739l0.455-0.085l10.825-2.188L264.94,59.23c0.057-0.028,0.085-0.028,0.142-0.028        c2.836-0.268,5.681,0.242,8.514-0.048c1.743-0.179,4.334-0.29,6.076-0.484l3.416-0.121l-0.105-1.194l189.09-20.401v0.284        l0.029,1.307v0.114L478.152,337.423z"/>
					</g>
					<g>
						<g>
							<g>
								<path style="fill:#302945;" d="M126.99,272.084c-0.709,0-1.321-0.529-1.41-1.249c-0.094-0.78,0.461-1.487,1.239-1.583          l127.948-15.565c0.792-0.08,1.487,0.46,1.583,1.239c0.094,0.78-0.461,1.487-1.239,1.581l-127.948,15.566          C127.105,272.081,127.047,272.084,126.99,272.084z"/>
							</g>
							<g>
								<path style="fill:#302945;" d="M126.317,291.351c-0.709,0-1.321-0.529-1.41-1.249c-0.094-0.78,0.461-1.487,1.239-1.583          l127.947-15.565c0.794-0.092,1.487,0.462,1.583,1.239c0.094,0.78-0.461,1.487-1.239,1.582L126.49,291.342          C126.432,291.349,126.374,291.351,126.317,291.351z"/>
							</g>
							<g>
								<path style="fill:#302945;" d="M127.9,310.555c-0.709,0-1.321-0.529-1.41-1.249c-0.094-0.78,0.461-1.487,1.239-1.583          l127.948-15.564c0.798-0.094,1.487,0.462,1.583,1.239c0.094,0.78-0.461,1.487-1.239,1.583l-127.948,15.564          C128.015,310.552,127.957,310.555,127.9,310.555z"/>
							</g>
						</g>
						<g>
							<g>
								<path style="fill:#302945;" d="M236.697,145.635c-9.12-15.144-23.611-25.856-40.773-30.118          c-17.161-4.262-34.977-1.591-50.121,7.53c-14.633,8.836-25.089,22.589-29.606,38.954c-0.199,0.597-0.369,1.193-0.511,1.818          c-4.262,17.19-1.591,34.977,7.529,50.149c7.217,11.99,17.787,21.168,30.402,26.566c0.142,0.085,0.284,0.142,0.426,0.199          c0.54,0.256,1.08,0.455,1.619,0.653c2.699,1.08,5.455,1.961,8.325,2.671c5.143,1.279,10.286,1.904,15.371,1.961          c0-0.028,0-0.028,0.028,0h0.568c0.767,0,1.534,0,2.301-0.057h0.312c28.64-1.137,54.411-20.997,61.657-50.206          C248.488,178.594,245.818,160.779,236.697,145.635z M241.47,195.073c-2.785,11.252-8.467,21.281-16.394,29.294          c-0.71,0.71-1.449,1.421-2.188,2.074c-3.125,2.87-6.535,5.427-10.229,7.643c-10.286,6.194-21.821,9.291-33.528,9.092          c0,0,0-0.028-0.028,0c-0.341,0.028-0.654,0-0.995,0c-1.08-0.028-2.159-0.085-3.239-0.199c-0.029,0-0.057,0-0.057,0          c-3.381-0.284-6.791-0.824-10.144-1.676c-1.989-0.483-3.949-1.08-5.853-1.733c-0.142-0.057-0.227-0.085-0.341-0.142h-0.028          c-0.852-0.284-1.677-0.625-2.5-0.966c-2.017-0.796-3.978-1.705-5.882-2.728c-0.852-0.454-1.676-0.909-2.5-1.421          c-8.893-5.256-16.423-12.701-21.907-21.821c-8.723-14.519-11.308-31.539-7.217-47.961c0.313-1.307,0.682-2.614,1.108-3.864          c8.24-26.169,32.277-43.558,58.815-44.239c0.511-0.028,1.051-0.028,1.591-0.028c0.568,0,1.165,0,1.733,0.028          c4.489,0.114,9.007,0.739,13.553,1.847c16.423,4.091,30.288,14.32,39.011,28.839c0.881,1.478,1.705,2.955,2.472,4.489          c0.54,1.051,1.023,2.131,1.506,3.211c3.41,7.899,5.143,16.338,5.143,24.861C243.374,184.788,242.749,189.959,241.47,195.073          z"/>
							</g>
							<g>
								<path style="fill:#302945;" d="M239.425,152.397c-0.256-0.568-0.824-0.938-1.477-0.881l-1.222,0.085l-39.665,3.069          l-15.372-38.244l-0.341-0.852c-0.227-0.568-0.824-0.966-1.449-0.909c-0.654,0.028-1.193,0.483-1.364,1.108l-0.171,0.653          l-10.598,40.517l-48.217,3.722l-2.017,0.17c-0.653,0.057-1.193,0.512-1.335,1.165c-0.142,0.625,0.142,1.279,0.682,1.591          l1.563,0.938l41,24.293l-11.877,45.49l-0.029,0.085c-0.17,0.625,0.085,1.307,0.654,1.62          c0.256,0.142,0.511,0.227,0.767,0.227c0.369,0,0.739-0.142,0.995-0.398l0.114-0.114l34.749-31.851l38.074,22.56l0.199,0.114          c0.54,0.312,1.222,0.256,1.705-0.142c0.483-0.426,0.654-1.108,0.426-1.676l-0.142-0.369l-16.877-41.966l30.033-27.589          l0.824-0.739C239.538,153.647,239.68,152.965,239.425,152.397z M180.268,120.858l13.695,34.067l-23.072,1.79          L180.268,120.858z M122.419,163.449l44.552-3.466l-6.762,25.856L122.419,163.449z M151.656,230.249l10.428-39.864          l20.06,11.905L151.656,230.249z M184.445,200.188l-21.566-12.786l7.217-27.646l25.032-1.96l9.547,23.81L184.445,200.188z           M220.842,221.782l-33.755-20.003l18.781-17.247L220.842,221.782z M207.033,179.475l-8.808-21.907l35.687-2.785          L207.033,179.475z"/>
							</g>
						</g>
						<g>
							<g>
								<path style="fill:#302945;" d="M275.85,351.914v1.79c0.028,0.597-0.455,1.08-1.051,1.08c-0.597,0-1.051-0.483-1.08-1.051          v-0.625l-1.364-293.195c-9.717,3.722-66.26,24.549-118.71,26.453c-50.945,1.818-86.66-3.438-94.218-4.66l36.88,226.538          l0.455,2.784l0.369,2.216l0.398,2.472c0,0,0,0,0,0.028l13.354,82.029c0.085,0.597-0.312,1.136-0.881,1.25h-0.17          c-0.511,0-0.966-0.369-1.051-0.881L57.097,80.568c-0.028-0.17,0-0.369,0.057-0.54l0.597-0.057l2.671-0.256          c1.08,0.17,2.586,0.369,4.489,0.653c0.426,0.057,0.852,0.114,1.335,0.171c13.951,1.904,45.461,5.2,87.314,3.694          c38.784-1.421,79.841-13.241,102.287-20.742c5.881-1.932,10.484-3.608,13.439-4.688c0.028-0.028,0.057-0.028,0.057-0.028          l3.353-0.341h0.028l0.682-0.057l0.71-0.085l0.341-0.028v0.909L275.85,351.914z"/>
							</g>
							<g>
								<g>
									<g>
										<path style="fill:#302945;" d="M105.733,399.199c-0.49-0.034-0.979-0.068-1.441-0.094L52.947,80.446l1.406-0.12            L105.733,399.199z"/>
									</g>
								</g>
								<g>
									<g>
										<path style="fill:#302945;" d="M99.82,398.726c-0.482-0.061-0.972-0.095-1.461-0.129L47.181,81.033l1.412-0.147            L99.82,398.726z"/>
									</g>
								</g>
								<g>
									<g>
										<path style="fill:#302945;" d="M93.858,398.094c-0.517-0.04-0.999-0.102-1.454-0.156L41.42,81.593l1.406-0.119            L93.858,398.094z"/>
									</g>
								</g>
								<g>
									<g>
										<path style="fill:#302945;" d="M87.889,397.373c-0.51-0.068-1.013-0.164-1.468-0.218L35.653,82.181l1.412-0.147            L87.889,397.373z"/>
									</g>
								</g>
							</g>
							<g>
								<path style="fill:#302945;" d="M273.407,58.378l-0.682,0.057h-0.028l-3.353,0.341c0,0-0.028,0-0.057,0.028l-4.205,0.398          c-0.057,0-0.085,0-0.142,0.028c-21.821,4.035-80.608,14.604-104.532,15.855c-20.457,1.051-61.23,2.358-84.671,3.097          l-15.315,1.534l-2.671,0.256c0.085,0.085,0.227,0.142,0.341,0.142c0.085,0,2.415,0.142,6.336,0.341c0.029,0,0.029,0,0.029,0          c0.568,0.029,1.165,0.057,1.79,0.085c11.365,0.568,33.158,1.449,55.832,1.449c13.411,0,27.163-0.312,39.21-1.193          c28.612-2.074,70.891-11.564,94.559-17.304c10.087-2.444,16.792-4.205,17.644-4.404c0.028,0,0.028,0,0.028,0          c0.028-0.028,0.057-0.028,0.057-0.028c0.341-0.113,0.568-0.426,0.54-0.767L273.407,58.378z M161.175,79.375          c-27.419,2.017-63.56,1.08-84.927,0.199c23.498-0.739,63.901-2.046,84.217-3.097c19.889-1.023,63.589-8.439,90.467-13.24          C226.724,68.976,187.94,77.414,161.175,79.375z"/>
							</g>
							<g>
								<path style="fill:#302945;" d="M472.185,37.267c-0.028-0.028-0.085-0.028-0.114-0.028c-0.057-0.057-0.085-0.057-0.142-0.057          c-0.085-0.028-0.17,0-0.256,0c-0.057,0.028-0.653,0.142-1.676,0.398c-0.028,0-0.057,0-0.085,0.028          c-3.75,0.881-13.07,3.04-24.833,5.626c-0.114,0.057-0.227,0.057-0.341,0.085c-20.799,4.546-49.07,10.371-67.623,12.701          c-19.975,2.529-54.724,2.557-78.42,2.188h-0.199c-8.297-0.114-15.229-0.284-19.69-0.426l-4.347,0.483l-0.341,0.028          l-0.71,0.085l-0.682,0.057c0,0.028,0,0.028,0,0.057c0,0.085,0.028,0.142,0.057,0.199c0.114,0.227,0.341,0.369,0.625,0.369          c0,0,0,0,0.028,0c0.028,0.028,0.057,0.028,0.057,0.028c0.028,0,0.028,0,0.028,0c0.199,0,0.511,0.057,0.938,0.085          c6.904,0.71,44.04,4.376,76.772,4.376c9.973,0,19.548-0.341,27.703-1.222c20.969-2.216,46.939-9.007,60.548-12.871          c0.313-0.085,27.362-7.757,32.363-10.769c0.085-0.028,0.171-0.085,0.256-0.142c0.341-0.227,0.54-0.426,0.54-0.597          C472.668,37.664,472.441,37.38,472.185,37.267z M378.791,60.935c-24.236,2.557-60.861,0.455-83.904-1.335          c23.696,0.398,61.287,0.483,82.398-2.159c25.089-3.154,67.936-12.701,86.12-16.877          C446.585,46.302,406.949,57.951,378.791,60.935z"/>
							</g>
							<g>
								<path style="fill:#302945;" d="M472.782,37.806c0.057,0.398-0.199,0.767-0.597,0.824c0,0-0.028,0-0.085,0.028          c-0.057,0-0.142,0-0.256,0.028c-2.017,0.341-12.644,2.216-26.765,4.546c-0.114,0.057-0.227,0.057-0.341,0.085          c-23.697,3.95-57.025,9.177-76.147,10.967c-18.866,1.762-48.672,3.097-69.896,3.921h-0.199          c-11.877,0.454-21.054,0.739-24.037,0.824c-0.398,0-0.71,0.028-0.881,0.028h-0.142c-0.028,0-0.028,0-0.028,0          c-0.284,0-0.511-0.142-0.625-0.369c-0.028-0.057-0.057-0.114-0.057-0.199c-0.028-0.028-0.028-0.028-0.028-0.057h0.028          l0.682-0.057l0.71-0.085l0.341-0.028l4.347-0.483l4.035-0.426h0.142c18.923-0.625,61.23-2.245,85.467-4.489          c28.697-2.642,89.558-13.184,101.464-15.258c0.029-0.028,0.057-0.028,0.085-0.028c1.193-0.199,1.904-0.341,1.961-0.341          h0.114c0.029,0,0.085,0,0.114,0.028C472.469,37.295,472.697,37.494,472.782,37.806z"/>
							</g>
						</g>
					</g>
				</g>
				<g>
					<g>
						<path style="fill:#FF9191;" d="M289.692,482.528c-24.037-2.927-48.222-11.022-70.299-21.223        c-16.963-7.842-33.252-16.85-51.693-18.526c-4.461-0.426-9.424-0.079-13.913,0.177c-4.745-12.644-9.234-25.208-12.701-33.448        c-0.653-1.534-1.25-2.955-1.818-4.234c-3.097-7.018-7.359-16.366-12.019-26.453c-0.057-0.142-0.114-0.256-0.171-0.369        c-6.791-14.661-14.434-30.828-20.571-43.785c-1.449-3.04-1.904-6.876-2.472-10.257c-0.341-2.103-0.739-4.006-1.421-5.455        c-0.625-1.335-1.449-2.358-2.273-3.182c-1.989-1.961-4.148-2.813-4.802-4.148c-0.114-0.227-0.199-0.455-0.227-0.71        c-0.171-0.938,0.142-1.932,0.881-2.586c0.227-0.199,0.455-0.369,0.739-0.54c0.369-0.256,0.796-0.483,1.25-0.682        c1.193-0.455,2.699-0.682,4.603-0.313c0.54,0.114,1.136,0.256,1.762,0.483c1.705,0.625,3.637,1.705,5.882,3.438        c3.097,2.415,6.706,6.08,10.911,11.507l0.057,0.057c0.312,0.426,0.625,0.824,0.938,1.25l-6.308-11.735l-17.929-33.471        c-0.597-1.108-0.426-2.443,0.455-3.324c3.06-3.033,11.336-8.002,24.57,6.517c0.565,0.608,1.1,1.207,1.598,1.78        c0.426,0.483,0.824,0.938,1.165,1.392c0.313,0.369,0.625,0.767,0.938,1.165c0.028,0.028,0.028,0.028,0.028,0.057        c0.483,0.625,0.995,1.279,1.506,1.961c0.085,0.114,0.171,0.256,0.256,0.369l-0.085-0.17l-13.951-28.811        c-0.199-0.426-0.284-0.881-0.284-1.335c0.028-0.824,0.426-1.648,1.108-2.159c1.193-0.881,2.898-1.989,5.058-2.841        c3.694-1.421,8.638-2.131,14.263,0.341c0,0,0,0,0.028,0c3.239,1.421,6.734,3.893,10.314,7.871        c2.415,2.699,5.228,6.62,8.268,11.337c3.125,4.83,6.45,10.513,9.888,16.593c3.04,5.484,6.166,11.28,9.206,17.105        c13.383,25.657,25.345,51.712,25.345,51.712l0.057-0.028l7.331-3.722l-24.18-51.229l-8.24-17.474l-8.155-17.247L153.276,244.2        c-0.54-1.08-0.341-2.301,0.369-3.125c0.341-0.426,0.824-0.739,1.392-0.909c0.142-0.028,0.312-0.085,0.483-0.114        c3.41-0.881,8.922-1.648,15.201,0.057c1.534,0.398,3.154,0.966,4.773,1.705c5.228,2.387,10.797,6.677,15.997,14.008        c0.369,0.54,0.767,1.08,1.165,1.648c2.841,4.148,5.995,9.376,9.319,15.229c0.029,0.057,0.085,0.114,0.114,0.199        c0.227,0.369,0.426,0.739,0.625,1.108c3.012,5.313,6.137,11.11,9.263,17.076c15.258,29.266,30.288,62.452,30.288,62.452        s0-0.114,0.028-0.312c0.256-3.836,3.211-41.54,22.049-43.671c1.591-0.199,2.927,1.051,3.012,2.642        c0.029,0.057,0.029,0.142,0.029,0.199c0,2.813-3.949,6.081-3.637,12.104c0.227,4.262,4.603,10.627,5.143,15.968        c0.426,4.347,1.023,9.007,1.762,13.809c0.994,6.478,2.33,13.269,4.035,20.031c8.211,32.419,13.525,39.665,11.11,47.422        c-2.415,7.728-12.559,17.872-12.559,17.872L289.692,482.528z"/>
					</g>
					<g>
						<path style="fill:#302945;" d="M154.746,388.936c-0.389,0-0.763-0.212-0.952-0.583L97.209,277.117        c-0.136-0.268-0.153-0.581-0.046-0.863c0.091-0.239,2.329-5.812,11.965-5.033c9.34,0.756,19.928,15.773,20.375,16.411        c0.336,0.483,0.218,1.147-0.264,1.485c-0.483,0.336-1.145,0.219-1.484-0.264c-0.103-0.149-10.457-14.832-18.799-15.509        c-6.605-0.526-8.954,2.236-9.601,3.292l56.34,110.752c0.266,0.525,0.057,1.165-0.468,1.433        C155.073,388.898,154.908,388.936,154.746,388.936z"/>
					</g>
					<g>
						<path style="fill:#302945;" d="M173.124,376.119c-0.391,0-0.767-0.215-0.953-0.587l-59.245-118.006        c-0.196-0.39-0.135-0.86,0.155-1.186c0.101-0.115,10.452-11.419,27.688-1.422c16.793,9.734,57.94,102.229,59.684,106.162        c0.239,0.537-0.004,1.167-0.542,1.405c-0.537,0.239-1.168-0.004-1.406-0.543c-0.424-0.956-42.607-95.792-58.805-105.183        c-13.803-7.998-22.406-1.472-24.526,0.495l58.899,117.319c0.265,0.526,0.053,1.167-0.473,1.43        C173.447,376.083,173.283,376.119,173.124,376.119z"/>
					</g>
					<g>
						<path style="fill:#302945;" d="M252.524,375.667c-0.305,0-0.619-0.121-0.842-0.344c-0.401-0.404-1.837-3.369-14.076-29.651        c-6.704-14.396-13.638-29.284-16.107-34.222c-0.384-0.771-0.877-1.776-1.465-2.978c-7.084-14.467-28.639-58.494-46.603-66.162        c-9.573-4.082-14.252-3.323-16.494-1.967c-1.951,1.181-2.439,3.019-2.554,3.686l53.315,112.432        c0.253,0.531,0.025,1.167-0.506,1.419c-0.53,0.251-1.168,0.025-1.419-0.506l-53.45-112.715        c-0.077-0.164-0.112-0.344-0.1-0.526c0.008-0.144,0.266-3.557,3.564-5.584c3.876-2.386,10.092-1.78,18.48,1.802        c18.693,7.977,40.511,52.541,47.681,67.184c0.586,1.196,1.075,2.195,1.458,2.962c2.483,4.964,9.423,19.866,16.133,34.276        c6.458,13.868,13.136,28.208,13.755,29.165c0.416,0.416,0.363,1.031-0.053,1.446        C253.047,375.577,252.788,375.667,252.524,375.667z"/>
					</g>
					<g>
						<path style="fill:#302945;" d="M106.512,334.68c-5.171-10.968-9.291-19.605-10.968-23.043        c-0.114-0.227-0.199-0.455-0.227-0.71c1.648-0.028,5.995,0.483,9.263,5.853C107.762,322.036,106.995,330.986,106.512,334.68z"/>
					</g>
					<g>
						<path style="fill:#302945;" d="M99.973,276.998c0,0,6.771-1.209,11.849,7.859c5.078,9.068,0.605,19.104,0.605,19.104        l-14.146-26.721L99.973,276.998z"/>
					</g>
					<g>
						<path style="fill:#302945;" d="M117.191,257.49c0,0,8.077-0.442,13.186,9.155c5.109,9.597-1.107,19.085-1.107,19.085        l-14.093-28.189L117.191,257.49z"/>
					</g>
					<g>
						<path style="fill:#302945;" d="M155.398,244.19c0,0,8.077-0.443,13.186,9.155c5.109,9.598-1.107,19.085-1.107,19.085        l-14.093-28.189L155.398,244.19z"/>
					</g>
					<g>
						<path style="fill:#302945;" d="M268.893,340.476c-2.756-2.983-7.785-9.547-7.274-17.161c0.483-6.961,3.694-9.916,5.74-11.11        c0.028,0.057,0.028,0.142,0.028,0.199C267.387,317.205,267.558,327.604,268.893,340.476z"/>
					</g>
				</g>
				<g>
					<g>
						<g>
							<g>
								<path style="fill:#9DD1A9;" d="M362.997,188.465c-10.043,14.157-28.078,22.702-42.43,32.743          c-0.011,0.015-0.011,0.015-0.022,0.03c-0.488,0.344-0.954,0.657-1.416,0.997c0.036-0.208,0.072-0.416,0.108-0.624          c0.026-0.004,0.026-0.004,0.007-0.042c1.464-8.729-1.305-17.67-4.961-25.788c-3.738-8.295-8.451-16.253-10.716-25.081          c-3.161-12.258-1.203-25.316,4.2-36.841c0.145-0.292,0.278-0.569,0.424-0.861c2.638-5.422,6.046-10.488,10.045-14.954          c5.533-6.197,12.06-11.356,19.187-15.579c0.274-0.149,0.549-0.299,0.824-0.449c8.591-4.998,18.03-8.665,27.653-11.212          c0.377-0.097,0.754-0.195,1.116-0.303c0.026-0.004,0.053-0.008,0.079-0.012c1.556,9.948,4.885,19.56,7.399,29.228          c0.074,0.313,0.16,0.611,0.238,0.95c2.074,8.1,3.499,16.285,2.774,24.714c-0.101,1.123-0.239,2.265-0.408,3.384          c-0.043,0.344-0.085,0.688-0.154,1.036c-0.658,4.137-1.702,8.225-2.818,12.283c-1.89,6.889-4.048,13.792-7.322,20.107          l-0.011,0.015c-0.212,0.383-0.398,0.762-0.626,1.134C365.217,185.104,364.166,186.816,362.997,188.465z"/>
							</g>
						</g>
						<g>
							<g>
								<path style="fill:#302945;" d="M311.149,235.851c-0.199-0.147-0.253-0.425-0.117-0.635          c12.7-19.756,22.876-41.371,32.717-62.274c2.405-5.11,4.881-10.373,6.827-15.736c3.867-10.656,5.79-22.097,7.649-33.161          c2.074-12.35,4.22-25.121,9.079-36.871c0.099-0.24,0.376-0.355,0.617-0.256c0.243,0.101,0.354,0.376,0.255,0.617          c-4.817,11.65-6.954,24.368-9.021,36.666c-1.866,11.106-3.796,22.59-7.692,33.327c-1.961,5.403-4.447,10.686-6.852,15.795          c-9.863,20.952-20.052,42.595-32.785,62.403c-0.141,0.219-0.434,0.283-0.653,0.142          C311.165,235.863,311.157,235.857,311.149,235.851z"/>
							</g>
						</g>
						<g>
							<g>
								<path style="fill:#302945;" d="M353.809,148.554c-0.11-0.01-0.208-0.036-0.284-0.092c-0.076-0.056-0.13-0.143-0.145-0.248          c-0.03-0.022-0.038-0.075-0.046-0.128c-0.261-16.572-7.845-32.186-15.911-45.621c0.274-0.149,0.549-0.299,0.824-0.449          c7.668,12.766,14.886,27.476,15.907,43.177c0.064,0.963,0.113,1.914,0.125,2.885          C354.276,148.335,354.077,148.54,353.809,148.554z"/>
							</g>
						</g>
						<g>
							<g>
								<path style="fill:#302945;" d="M374.73,120.666c-6.632,3.392-12.615,8.131-17.37,13.846          c-0.049,0.035-0.071,0.065-0.105,0.111c-0.146,0.198-0.425,0.226-0.622,0.08c-0.015-0.011-0.015-0.011-0.03-0.022          c-0.141-0.127-0.195-0.308-0.151-0.463c0.003-0.068,0.048-0.129,0.093-0.19c0.378-0.449,0.745-0.882,1.138-1.32          c4.705-5.329,10.464-9.764,16.81-12.992C374.566,120.029,374.652,120.327,374.73,120.666z"/>
							</g>
						</g>
						<g>
							<g>
								<path style="fill:#302945;" d="M376.942,149.8c-10.844,3.312-20.849,9.05-29.203,16.781c-0.06,0.05-0.12,0.1-0.18,0.149          c-0.165,0.16-0.433,0.173-0.615,0.039c-0.015-0.011-0.035-0.049-0.05-0.06c-0.065-0.071-0.118-0.158-0.119-0.252          c-0.035-0.143,0.009-0.298,0.14-0.413c0.011-0.015,0.049-0.035,0.06-0.05c0.555-0.53,1.129-1.021,1.687-1.524          c8.256-7.216,17.969-12.559,28.433-15.706C377.054,149.108,377.011,149.452,376.942,149.8z"/>
							</g>
						</g>
						<g>
							<g>
								<path style="fill:#302945;" d="M337.298,187.578c-0.083-0.014-0.167-0.029-0.242-0.085c-0.061-0.045-0.11-0.105-0.122-0.184          c-0.05-0.06-0.066-0.166-0.051-0.249c1.099-10.875-1.826-22.021-8.488-32.238c-4.914-7.59-11.837-14.621-20.628-20.964          c0.145-0.292,0.278-0.569,0.424-0.861c8.943,6.455,15.991,13.602,21.005,21.312c6.337,9.766,9.368,20.355,8.794,30.773          l0.004,0.026l-0.176,2.052C337.788,187.423,337.559,187.606,337.298,187.578z"/>
							</g>
						</g>
						<g>
							<g>
								<path style="fill:#302945;" d="M366.166,183.34c-11.936,3.234-23.592,8.952-34.323,16.852          c-0.06,0.049-0.135,0.088-0.203,0.085c-0.132,0.02-0.257-0.002-0.363-0.08c-0.03-0.022-0.076-0.056-0.095-0.094          c-0.153-0.207-0.117-0.509,0.105-0.65c0.402-0.29,0.803-0.581,1.205-0.871c10.744-7.727,22.386-13.267,34.301-16.376          C366.579,182.589,366.394,182.968,366.166,183.34z"/>
							</g>
						</g>
					</g>
					<g>
						<g>
							<g>
								<path style="fill:#9DD1A9;" d="M394.445,257.217c16.016,6.693,28.309,22.414,41.253,34.214          c0.017,0.008,0.017,0.008,0.035,0.015c0.443,0.401,0.851,0.787,1.283,1.163c-0.211,0.01-0.422,0.021-0.632,0.031          c-0.01-0.025-0.01-0.025-0.042,0.002c-8.838,0.487-16.953,5.149-24.071,10.498c-7.273,5.466-14.003,11.811-22.119,15.957          c-11.265,5.773-24.435,6.728-36.865,3.984c-0.317-0.077-0.616-0.147-0.933-0.224c-5.869-1.385-11.559-3.598-16.794-6.519          c-7.26-4.039-13.725-9.275-19.409-15.303c-0.206-0.235-0.412-0.47-0.618-0.705c-6.761-7.285-12.41-15.691-17.006-24.52          c-0.178-0.346-0.356-0.693-0.541-1.022c-0.01-0.025-0.019-0.05-0.029-0.075c9.364-3.701,18.012-9.057,26.893-13.63          c0.289-0.141,0.561-0.29,0.875-0.44c7.448-3.801,15.121-6.987,23.503-8.128c1.117-0.148,2.262-0.264,3.391-0.345          c0.345-0.034,0.69-0.068,1.045-0.077c4.181-0.265,8.398-0.144,12.602,0.055c7.136,0.333,14.344,0.924,21.224,2.732          l0.017,0.007c0.42,0.123,0.831,0.221,1.244,0.362C390.68,255.788,392.581,256.438,394.445,257.217z"/>
							</g>
						</g>
						<g style="opacity:0.34;">
							<g>
								<path style="fill:#302945;" d="M394.445,257.217c16.016,6.693,28.309,22.414,41.253,34.214          c0.017,0.008,0.017,0.008,0.035,0.015c0.443,0.401,0.851,0.787,1.283,1.163c-0.211,0.01-0.422,0.021-0.632,0.031          c-0.01-0.025-0.01-0.025-0.042,0.002c-8.838,0.487-16.953,5.149-24.071,10.498c-7.273,5.466-14.003,11.811-22.119,15.957          c-11.265,5.773-24.435,6.728-36.865,3.984c-0.317-0.077-0.616-0.147-0.933-0.224c-5.869-1.385-11.559-3.598-16.794-6.519          c-7.26-4.039-13.725-9.275-19.409-15.303c-0.206-0.235-0.412-0.47-0.618-0.705c-6.761-7.285-12.41-15.691-17.006-24.52          c-0.178-0.346-0.356-0.693-0.541-1.022c-0.01-0.025-0.019-0.05-0.029-0.075c9.364-3.701,18.012-9.057,26.893-13.63          c0.289-0.141,0.561-0.29,0.875-0.44c7.448-3.801,15.121-6.987,23.503-8.128c1.117-0.148,2.262-0.264,3.391-0.345          c0.345-0.034,0.69-0.068,1.045-0.077c4.181-0.265,8.398-0.144,12.602,0.055c7.136,0.333,14.344,0.924,21.224,2.732          l0.017,0.007c0.42,0.123,0.831,0.221,1.244,0.362C390.68,255.788,392.581,256.438,394.445,257.217z"/>
							</g>
						</g>
						<g>
							<g>
								<path style="fill:#302945;" d="M452.052,297.407c-0.099,0.226-0.359,0.34-0.594,0.253          c-22.061-8.056-45.382-13.242-67.934-18.258c-5.513-1.225-11.191-2.487-16.851-3.209          c-11.244-1.435-22.828-0.801-34.031-0.188c-12.505,0.686-25.435,1.393-37.965-0.77c-0.257-0.044-0.429-0.289-0.385-0.546          c0.045-0.259,0.289-0.428,0.546-0.385c12.423,2.145,25.3,1.439,37.752,0.758c11.245-0.616,22.873-1.252,34.203,0.194          c5.702,0.728,11.401,1.994,16.914,3.22c22.605,5.027,45.956,10.22,68.075,18.298c0.245,0.09,0.371,0.361,0.282,0.605          C452.06,297.388,452.056,297.397,452.052,297.407z"/>
							</g>
						</g>
						<g>
							<g>
								<path style="fill:#302945;" d="M357.522,274.936c0.014,0.109,0.01,0.211-0.028,0.297c-0.038,0.086-0.111,0.158-0.21,0.197          c-0.015,0.034-0.065,0.054-0.115,0.073c-16.111,3.89-29.681,14.715-41.019,25.532c-0.206-0.235-0.412-0.47-0.618-0.705          c10.772-10.281,23.541-20.551,38.636-24.991c0.925-0.274,1.843-0.531,2.787-0.755          C357.206,274.529,357.45,274.678,357.522,274.936z"/>
							</g>
						</g>
						<g>
							<g>
								<path style="fill:#302945;" d="M325.725,260.642c4.764,5.726,10.7,10.524,17.319,13.909c0.044,0.04,0.079,0.055,0.131,0.078          c0.225,0.099,0.314,0.365,0.215,0.589c-0.008,0.017-0.008,0.017-0.015,0.035c-0.093,0.165-0.258,0.258-0.419,0.249          c-0.067,0.012-0.136-0.018-0.205-0.049c-0.521-0.271-1.024-0.533-1.537-0.82c-6.232-3.422-11.822-8.067-16.363-13.551          C325.139,260.942,325.411,260.793,325.725,260.642z"/>
							</g>
						</g>
						<g>
							<g>
								<path style="fill:#302945;" d="M353.664,252.093c5.61,9.853,13.404,18.356,22.778,24.81          c0.062,0.048,0.123,0.095,0.185,0.143c0.192,0.126,0.264,0.384,0.173,0.592c-0.008,0.017-0.04,0.044-0.048,0.061          c-0.055,0.079-0.128,0.15-0.22,0.172c-0.132,0.066-0.293,0.057-0.433-0.046c-0.017-0.007-0.044-0.04-0.062-0.048          c-0.638-0.425-1.244-0.877-1.857-1.312c-8.851-6.472-16.195-14.776-21.561-24.295          C352.964,252.136,353.309,252.102,353.664,252.093z"/>
							</g>
						</g>
						<g>
							<g>
								<path style="fill:#302945;" d="M399.218,282.484c0.004,0.084,0.008,0.169-0.03,0.255c-0.03,0.069-0.078,0.131-0.153,0.16          c-0.048,0.062-0.148,0.1-0.232,0.105c-10.852,1.313-21.084,6.613-29.59,15.353c-6.327,6.46-11.668,14.756-15.928,24.724          c-0.317-0.077-0.616-0.147-0.933-0.224c4.336-10.141,9.762-18.586,16.186-25.168c8.138-8.325,17.805-13.605,28.095-15.33          l0.025-0.01l2.041-0.278C398.96,282.04,399.189,282.224,399.218,282.484z"/>
							</g>
						</g>
						<g>
							<g>
								<path style="fill:#302945;" d="M388.75,255.249c5.774,10.936,13.909,21.053,23.971,29.79          c0.061,0.048,0.115,0.113,0.127,0.18c0.048,0.124,0.055,0.251,0.001,0.372c-0.015,0.035-0.038,0.087-0.07,0.113          c-0.168,0.194-0.471,0.227-0.658,0.041c-0.371-0.328-0.743-0.657-1.114-0.985c-9.895-8.788-17.854-18.931-23.501-29.873          C387.927,255.011,388.338,255.109,388.75,255.249z"/>
							</g>
						</g>
					</g>
				</g>
			</g>
			<g>
				<g>
					<polygon style="fill:#FFFFFF;" points="360.286,408.026 362.981,364.007 365.077,408.326 376.157,399.342 369.569,409.823        393.226,412.817 370.168,415.812 376.756,425.095 365.676,419.106 362.682,457.435 360.286,419.705 348.907,424.496        356.094,415.812 327.347,411.919 355.794,410.721 349.206,400.839      "/>
				</g>
				<g>
					<polygon style="fill:#FFFFFF;" points="425.264,152.87 427.959,108.851 430.055,153.169 441.135,144.186 434.547,154.666        458.204,157.661 435.146,160.655 441.734,169.939 430.654,163.95 427.659,202.279 425.264,164.548 413.885,169.34        421.072,160.655 392.325,156.763 420.772,155.565 414.184,145.683      "/>
				</g>
				<g>
					<polygon style="fill:#FFFFFF;" points="64.453,329.005 67.149,284.985 69.245,329.304 80.324,320.321 73.737,330.801        97.393,333.796 74.335,336.79 80.923,346.073 69.844,340.084 66.849,378.414 64.453,340.683 53.074,345.474 60.261,336.79        31.514,332.897 59.962,331.7 53.374,321.818      "/>
				</g>
			</g>
		</g>
	</g>
</g>















</svg>
