<?xml version="1.0" encoding="UTF-8"?>
<!-- Generator: Adobe Illustrator 25.2.0, SVG Export Plug-In . SVG Version: 6.00 Build 0)  -->
<svg xmlns="http://www.w3.org/2000/svg" xmlns:xlink="http://www.w3.org/1999/xlink" version="1.1" id="Capa_1" x="0px" y="0px" viewBox="0 0 500 500" style="enable-background:new 0 0 500 500;" xml:space="preserve" width="512" height="512">
<g>
	<path d="M257.423,3.991c56.529,0.538,104.6,15.061,147.293,46.015c29.968,21.728,53.335,49.207,69.811,82.427   c1.967,3.967,5.186,13.271,5.386,13.709c11.588,25.358,18.264,51.976,19.71,79.793c3.557,68.42-18.067,128.239-63.142,179.411   c-37.209,42.242-83.521,70.057-138.297,83.45c-22.734,5.559-45.858,8.084-69.248,6.943c-69.876-3.41-128.465-30.736-174.203-83.978   C25.403,377.62,7.851,337.812,2.109,293.146C-5.117,236.928,6.357,184.3,34.478,135.3c19.251-33.544,45.084-61.229,76.782-83.348   c36.682-25.597,77.236-41.217,121.75-46.189C242.43,4.71,251.93,4.377,257.423,3.991z M326.013,208.13   c0.126,0.088,0.252,0.176,0.379,0.264c-0.707,1.821-1.294,3.701-2.143,5.453c-5.025,10.376-9.522,20.954-12.813,32.028   c-1.791,6.025-3.483,12.044-3.388,18.408c0.1,6.719,4.691,11.847,11.301,12.741c4.543,0.615,8.731-0.526,12.761-2.416   c3.056-1.434,3.269-2.675,1.996-5.773c-1.252-3.047-2.571-6.181-3.068-9.4c-1.006-6.507-0.261-13.052,0.786-19.521   c0.478-2.949,0.67-6.152,1.999-8.719c5.005-9.662,11.27-18.486,19.276-25.949c1.871-1.744,3.996-3.225,6.075-4.729   c0.437-0.316,1.473-0.48,1.722-0.221c0.388,0.402,0.586,1.292,0.433,1.86c-0.776,2.887-1.538,5.795-2.586,8.589   c-3.234,8.619-6.716,17.147-9.866,25.797c-1.964,5.394-3.297,10.984-3.178,16.806c0.128,6.254,3.096,10.161,9.198,11.46   c2.512,0.535,5.23,0.562,7.794,0.277c3.745-0.417,4.426-1.737,4.382-5.523c-0.057-4.861-0.053-9.743,0.331-14.583   c0.665-8.386,2.869-16.277,7.982-23.22c4.915-6.673,9.908-13.216,16.888-17.922c2.033-1.371,4.178-2.428,6.686-2.453   c2.991-0.031,4.438,1.572,3.899,4.481c-0.388,2.097-0.829,4.223-1.589,6.205c-3.813,9.951-7.774,19.845-11.614,29.785   c-3.617,9.365-6.619,18.915-8.039,28.891c-0.452,3.172-0.725,6.37-1.085,9.604c-0.438,0.109-0.903,0.222-1.367,0.34   c-7.938,2.023-16.02,3.608-23.787,6.152c-25.148,8.238-50.153,16.91-75.266,25.253c-17.588,5.843-35.302,11.313-52.879,17.187   c-5.022,1.678-9.167,1.124-13.894-1.373c-13.491-7.127-27.507-13.041-42.825-15.148c-6.678-0.919-13.347-1.528-19.914,0.563   c-7.836,2.494-14.737,6.368-19.396,13.48c-2.472,3.774-3.001,7.882-2.113,12.176c1.563,7.559,6.31,12.877,12.504,17.049   c7.254,4.887,15.522,6.235,24.027,6.541c9.161,0.331,18.188-0.845,27.115-2.807c14.485-3.183,28.483-7.908,42.184-13.535   c1.288-0.529,2.305-0.481,3.597,0.13c12.392,5.862,24.738,11.832,37.274,17.371c12.348,5.456,24.917,10.394,38.304,12.824   c9.074,1.647,18.175,2.539,27.288,0.464c15.701-3.575,28.076-11.664,35.372-26.495c3.299-6.707,4.674-13.754,3.785-21.214   c-0.948-7.955-7.797-15.062-16.508-17.088c-3.433-0.799-4.645-0.074-5.411,3.313c-1.215,5.375-3.211,10.399-6.376,14.951   c-7.527,10.825-17.911,17.684-30.265,21.732c-12.497,4.094-25.308,4.071-38.178,2.417c-13.49-1.734-26.372-5.669-38.831-11.054   c-0.463-0.2-0.913-0.428-1.584-0.744c0.77-0.352,1.252-0.579,1.739-0.794c8.673-3.835,17.407-7.54,26.009-11.529   c20.612-9.559,41.131-19.328,62.289-27.648c14.906-5.861,29.75-11.907,45.158-16.394c0.695-0.202,1.398-0.376,2.213-0.594   c0.13,0.764,0.245,1.333,0.321,1.908c1.346,10.164,6.163,17.901,15.604,22.453c8.676,4.183,17.174,4.76,25.367-1.157   c4.024-2.907,6.531-7.072,8.877-11.281c3.564-6.396,1.475-17.113-8.205-19.675c-6.035-1.597-12.044-1.845-18.164-1.375   c-1.632,0.125-3.252,0.397-5.202,0.642c0.221-2.868,0.289-5.54,0.654-8.172c1.207-8.702,3.973-16.984,6.985-25.194   c3.117-8.495,6.296-16.97,9.253-25.521c1.593-4.607,2.013-9.418,1.257-14.285c-0.601-3.867-2.475-6.782-6.122-8.457   c-6.591-3.027-12.756-2.027-18.507,2.057c-5.912,4.198-10.79,9.47-15.122,15.244c-1.851,2.468-3.495,5.092-5.396,7.885   c0.125-0.68,0.195-1.089,0.276-1.497c0.985-4.987,2.342-9.917,2.116-15.081c-0.261-5.962-4.441-9.767-10.368-9.273   c-5.473,0.456-10.13,2.981-13.984,6.624c-3.482,3.291-6.487,7.11-9.519,10.845c-1.741,2.145-3.116,4.586-4.656,6.894   c0.004-0.83,0.212-1.593,0.373-2.366c0.599-2.88,1.444-5.74,1.71-8.652c0.377-4.134-1.988-6.318-6.113-5.593   c-5.356,0.941-10.029,3.65-14.446,6.676c-5.612,3.844-11.066,7.919-16.594,11.885c-0.445,0.32-0.938,0.574-1.572,0.957   c-0.066-0.694-0.107-1.109-0.144-1.524c-0.865-9.738-4.35-18.312-11.419-25.217c-4.123-4.028-9.059-6.076-14.907-5.29   c-4.82,0.648-8.729,3.157-12.172,6.422c-5.872,5.568-8.217,12.687-8.558,20.537c-0.249,5.722,1.335,10.905,5.356,15.201   c0.287,0.306,0.271,1.19,0.05,1.635c-2.802,5.655-4.826,11.556-5.907,17.784c-0.141,0.814-0.396,1.738-0.914,2.338   c-3.181,3.689-6.297,7.457-9.757,10.872c-1.907,1.882-4.306,3.405-6.726,4.596c-3.922,1.929-7.029,0.174-7.834-4.097   c-0.862-4.572,0.191-8.952,1.446-13.296c1.383-4.787,2.851-9.55,4.203-14.346c1.811-6.427,1.41-12.707-1.351-18.833   c-1.484-3.294-3.896-5.445-7.339-6.471c-2.977-0.887-6.024-1.198-9.06-0.552c-5.499,1.17-10.965,2.494-16.444,3.753   c-0.536,0.123-1.074,0.239-1.404,0.312c0.136-2.821,0.48-5.493,0.346-8.139c-0.245-4.82-3.567-8.163-7.489-7.332   c-6.854,1.452-11.728,5.654-14.444,12.069c-1.407,3.323,0.013,6.405,3.355,7.811c1.784,0.75,3.808,1.228,5.735,1.267   c2.631,0.053,5.273-0.429,7.983-0.688c-0.051,0.22-0.086,0.473-0.17,0.708c-1.979,5.588-3.805,11.237-5.984,16.746   c-3.493,8.832-7.545,17.406-13.569,24.861c-5.49,6.794-12.132,11.617-21.293,11.908c-1.43,0.045-2.584,0.659-3.201,2.044   c-2.062,4.634-2.282,9.402-0.363,14.052c1.895,4.593,6.334,5.914,10.653,3.469c2.988-1.691,5.482-3.976,7.321-6.87   c1.981-3.116,3.9-6.281,5.671-9.521c9.928-18.157,17.369-37.35,23.631-57.028c0.263-0.827,0.456-1.54,1.526-1.798   c4.218-1.017,8.382-2.269,12.619-3.189c3.073-0.667,6.218-1.142,9.354-1.341c2.643-0.167,4.103,1.636,3.689,4.244   c-0.206,1.294-0.679,2.608-1.307,3.763c-3.199,5.884-6.481,11.724-9.747,17.572c-3.116,5.58-5.882,11.312-7.718,17.458   c-2.461,8.239-2.702,16.471,0.214,24.644c2.178,6.103,7.198,9.563,13.646,9.535c4.868-0.021,9.26-1.691,13.303-4.231   c8.915-5.6,15.181-13.588,20.116-22.733c0.227-0.42,0.498-0.815,0.668-1.092c0.92,3.437,1.545,6.886,2.778,10.101   c1.659,4.325,4.549,7.793,9.008,9.548c5.386,2.121,10.303,0.791,14.89-2.361c6.691-4.6,11.436-10.803,14.603-18.195   c4.698-10.966,7.05-22.455,7.261-34.388c0.011-0.6,0.254-1.423,0.686-1.755c7.648-5.881,15.34-11.706,23.032-17.53   C324.331,209.198,325.187,208.684,326.013,208.13z M148.261,187.341c0-0.493-0.021-0.759,0.003-1.021   c0.521-5.764,0.891-11.548,1.61-17.287c0.947-7.556,2.259-15.058,5.337-22.111c0.312-0.715,0.721-1.506,1.315-1.961   c8.175-6.25,16.225-12.681,24.65-18.577c6.022-4.215,12.785-7.103,20.413-6.721c4.143,0.207,7.984,1.466,10.353,5.211   c2.044,3.23,2.741,6.941,2.254,10.656c-0.435,3.314-1.542,6.539-2.328,9.81c-0.279,1.164-0.918,1.517-2.146,1.584   c-8.021,0.438-15.233,2.807-21.417,8.29c-4.259,3.776-5.872,8.241-5.478,13.706c0.23,3.177,1.73,5.64,4.617,6.793   c1.922,0.768,4.185,1.156,6.249,1.02c12.185-0.807,25.614-8.879,29.849-23.163c0.928-3.132,1.035-3.279,4.286-2.554   c11.181,2.493,22.384,4.909,33.484,7.73c18.111,4.602,35.874,10.571,54.337,13.799c11.466,2.004,22.921,3.741,34.658,2.823   c11.48-0.898,21.927-4.284,30.974-11.513c12.425-9.928,18.114-22.792,15.852-38.633c-2.816-19.723-18.107-31.224-36.667-31.908   c-11.514-0.425-21.431,4.509-30.133,11.876c-3.144,2.661-5.732,5.786-7.645,9.444c-1.607,3.073-2.59,6.342-2.914,9.799   c-0.547,5.834,4.177,11.599,10.828,12.81c7.21,1.313,14.19,0.421,20.763-2.994c2.012-1.046,2.152-2.289,0.283-3.585   c-3.76-2.606-5.418-6.232-4.896-10.679c1.536-13.096,13.11-19.318,23.094-17.908c6.813,0.962,11.818,5.103,16.197,10.014   c3.206,3.596,5.102,7.844,5.375,12.779c0.644,11.624-4.415,20.261-13.872,26.527c-7.078,4.69-15.189,6.61-23.4,8.041   c-15.758,2.746-31.626,2.78-47.423,0.748c-13.914-1.79-27.742-4.266-41.587-6.568c-9.934-1.652-19.824-3.568-29.752-5.261   c-3.312-0.565-6.679-0.802-9.963-1.183c0-4.164,0.36-8.248-0.07-12.247c-1.145-10.674-7.357-17.556-17.537-19.77   c-6.071-1.32-12.173-0.932-18.19,0.388c-8.568,1.88-16.522,5.408-23.915,10.021c-10.729,6.694-21.267,13.697-31.857,20.612   c-9.277,6.058-18.86,11.482-29.531,14.742c-3.723,1.137-7.492,1.858-11.406,1.406c-2.273-0.262-4.256-1.094-5.614-3.04   c-1.321-1.892-1.33-4.608,0.37-6.265c0.978-0.952,2.267-1.507,3.542-1.994c3.553-1.357,7.248-2.349,11.009-2.921   c1.886-0.287,3.772-0.421,5.674-0.535c1.281-0.077,2.683-0.515,2.388-2.103c-0.64-3.451-4.085-5.872-7.555-5.423   c-2.171,0.28-4.564,1.474-6.562,2.331c-2.141,0.919-4.221,1.982-6.203,3.208c-5.194,3.211-9.963,7.503-14.201,11.87   c-3.799,3.915-6.552,8.74-7.283,14.198c-0.998,7.448,3.495,13.841,10.889,15.168c2.332,0.419,4.814,0.391,7.184,0.147   c7.022-0.724,13.531-3.194,19.781-6.365c10.66-5.41,20.373-12.272,29.802-19.562c4.486-3.469,8.951-6.966,13.426-10.45   c-5.637,11.683-6.843,24.427-8.907,36.832c-3.974,0.561-7.863,0.952-11.686,1.685c-6.686,1.281-14.909,3.865-18.533,10.145   c-0.267,0.462-0.514,0.958-0.54,1.491c-0.027,0.533,0.22,1.113,0.708,1.329c0.473,0.21,1.019,0.037,1.504-0.144   c1.82-0.68,3.689-1.846,5.657-2.01c4.789-0.478,9.617-0.626,14.434-0.734c2.206-0.05,4.422,0.306,6.737,0.486   c-0.503,3.508-0.91,6.747-1.439,9.967c-1.69,10.302-3.133,20.656-5.223,30.877c-2.193,10.726-5.547,21.145-10.864,30.805   c-3.397,6.173-7.171,12.087-12.756,16.599c-8.848,7.147-20.713,7.47-28.83,0.424c-5.911-5.131-8.601-12.094-8.72-19.725   c-0.089-5.745,0.577-11.566,1.53-17.248c1.788-10.661,6.264-20.116,14.015-27.844c2.75-2.742,5.705-5.224,9.413-6.588   c3.759-1.383,6.671,0.278,6.964,4.29c0.204,2.789,0.102,5.702-0.475,8.429c-2.032,9.6-6.87,17.857-13.097,25.288   c-2.711,3.235-5.926,6.044-8.84,9.115c-0.487,0.513-0.979,1.522-0.782,2.041c0.201,0.532,1.234,1.021,1.925,1.052   c5.03,0.224,10.066,0.52,15.062-0.515c14.727-3.05,23.991-15.182,22.798-29.9c-1.39-17.143-17.216-28.223-33.726-23.226   c-13.74,4.159-23.471,13.369-29.664,26.118c-6.425,13.227-8.506,27.307-6.967,41.946c0.951,9.042,3.561,17.498,8.284,25.29   c3.507,5.785,8.455,9.785,14.836,11.955c10.641,3.619,21.023,2.3,31.222-1.834c10.061-4.078,17.38-11.387,23.587-20.018   c8.471-11.778,12.671-25.144,14.911-39.305c2.559-16.18,3.42-32.506,4.496-48.816c0.178-2.703,0.404-5.403,0.607-8.102   c3.243,0.239,6.225,0.524,9.214,0.664c6.542,0.308,12.43-1.544,17.392-5.84c3.865-3.346,6.271-7.578,6.58-12.798   c0.075-1.262,0.256-2.928-1.144-3.388c-0.868-0.285-2.245,0.317-3.149,0.9C167.649,185.735,158.142,186.862,148.261,187.341z    M183.079,450.131c8.18,0.003,15.879-2.387,21.539-6.505c19.688-14.326,28.209-34.621,30.672-58.05   c0.156-1.482-0.06-2.968-0.293-4.43c-0.17-1.068-0.139-2.453-1.011-3.23c-0.116-0.103-0.254-0.195-0.409-0.199   c-0.14-0.004-0.272,0.064-0.392,0.138c-1.446,0.893-1.96,2.658-2.875,3.995c-1.024,1.496-2.153,2.949-3.362,4.301   c-2.544,2.845-5.549,5.266-8.892,7.111c-6.265,3.458-12.801,6.446-19.315,9.428c-6.566,3.006-13.359,5.528-19.85,8.68   c-5.537,2.688-9.781,6.966-12.161,12.768c-3.007,7.331-2.572,14.304,2.984,20.349C173.723,448.85,179.093,449.996,183.079,450.131z    M268.198,99.861c-0.4,2.95-0.405,5.939-0.078,8.898c0.225,2.034,0.456,4.025,0.74,6.008c0.054,0.377,0.287,0.729,0.555,1.076   c0.347,0.449,0.999,0.513,1.417,0.128c0.289-0.267,0.563-0.544,0.772-0.863c0.401-0.614,0.549-1.389,0.848-2.076   c2.409-5.529,5.37-10.693,9.321-15.314c7.829-9.158,17.433-15.944,27.948-21.614c2.961-1.597,5.882-3.355,8.545-5.397   c3.969-3.044,4.963-6.996,3.424-11.769c-1.144-3.546-3.469-6.096-6.67-7.919c-3.881-2.211-8.09-2.427-12.338-1.806   c-7.412,1.083-13.506,4.727-18.436,10.269C273.887,71.13,270.183,85.223,268.198,99.861z M247.146,99.973   c0.074-0.017-0.85-10.932-1.829-16.291c-1.993-10.917-6.114-20.888-14.381-28.675c-5.759-5.425-12.19-9.75-20.397-10.267   c-7.415-0.467-13.272,2.591-17.323,8.769c-2.788,4.252-1.929,8.896,2.063,11.994c3.388,2.63,7.61,4.332,11.085,6.24   c2.013,1.106,4.071,2.126,6.174,3.05c6.544,2.873,12.385,6.794,17.845,11.306c5.121,4.232,8.822,9.452,11.061,15.71   c0.469,1.31,0.81,2.719,1.551,3.862c0.323,0.499,0.865,0.856,1.43,1.198c0.581,0.352,1.333,0.173,1.692-0.404   c0.247-0.397,0.461-0.799,0.535-1.226C246.954,103.507,246.997,101.731,247.146,99.973z M255.927,389.133   c-1.104,2.65-1.419,5.57-0.973,8.406c0.157,0.997,0.33,1.938,0.573,2.86c2.189,8.284,7.305,14.598,13.956,19.68   c7.96,6.082,17.145,8.052,26.98,7.062c4.491-0.452,8.797-1.719,12.546-4.292c4.385-3.01,6.974-8.151,6.294-13.426   c-0.719-5.579-4.596-8.345-9.614-9.464c-3.953-0.882-8.024-1.264-12.056-1.763c-6.37-0.787-12.799-1.208-19.113-2.299   c-6.17-1.066-12.261-2.687-17.21-6.973c-0.247-0.214-1.272-0.059-1.364,0.163C255.94,389.101,255.933,389.117,255.927,389.133z    M430.559,175.275c-0.456,7.52,6.024,14.188,13.896,14.153c7.846-0.034,14.894-6.643,14.943-13.913   c0.039-5.714-6.011-14.622-14.677-14.536C436.676,161.06,430.569,167.123,430.559,175.275z M135.702,103.683   c-0.137-0.897-0.22-1.807-0.42-2.69c-1.122-4.957-5.691-9.467-10.451-9.886c-3.368-0.296-6.769,0.126-9.841,1.736   c-6.485,3.4-8.783,11.09-5.071,16.951c2.216,3.5,5.392,5.792,9.431,6.742C127.594,118.474,135.654,112.084,135.702,103.683z    M356.6,411.559c0.65,1.953,1.051,4.039,2.001,5.834c2.307,4.358,7.499,6.894,11.973,6.145c5.008-0.839,9.816-5.354,10.561-10.438   c1.19-8.128-3.501-16.02-13.529-14.54C361.559,399.452,357.023,404.966,356.6,411.559z M93.695,381.035   c6.578,0.108,11.554-4.767,11.706-11.47c0.156-6.853-5.437-12.966-11.957-13.068c-6.531-0.102-11.541,5.372-11.673,12.754   C81.65,375.994,86.632,380.918,93.695,381.035z M246.915,464.659c6.477-0.051,11.648-5.376,11.576-11.923   c-0.064-5.866-4.707-10.293-10.718-10.221c-6.11,0.073-11.481,5.63-11.403,11.797C236.447,460.438,240.798,464.707,246.915,464.659   z M452.614,243.588c5.84-0.021,10.481-4.635,10.419-10.358c-0.055-5.089-5.086-9.721-10.5-9.668   c-5.447,0.054-10.022,4.959-9.993,10.714C442.568,239.816,446.672,243.609,452.614,243.588z M252.401,35.069   c0.007,4.875,1.965,8.213,5.199,9.49c3.42,1.35,7.402,0.468,9.909-2.196c3.749-3.982,2.748-9.96-2.29-13.416   c-2.654-1.821-5.516-2.432-8.477-0.817C253.793,29.739,252.543,32.422,252.401,35.069z M419.539,366.727   c-0.09-3.031-1.256-5.407-3.93-6.786c-2.57-1.326-4.977-0.769-7.153,1.045c-0.575,0.479-1.215,0.881-1.78,1.371   c-2.876,2.494-3.305,6.729-1.019,9.869c2.268,3.115,6.474,3.947,9.72,1.827C418.019,372.327,419.371,369.81,419.539,366.727z    M365.513,66.891c-0.028-4.352-3.293-7.899-7.237-7.865c-3.802,0.033-6.937,3.297-6.91,7.194c0.033,4.64,3.039,7.786,7.38,7.724   C362.639,73.889,365.539,70.865,365.513,66.891z M53.889,203.679c0.023-3.844-2.981-6.896-6.77-6.879   c-3.471,0.016-7.351,3.808-7.392,7.224c-0.042,3.499,3.549,6.898,7.322,6.93C50.763,210.985,53.866,207.685,53.889,203.679z    M162.194,78.462c4.045,0.012,7.251-3.002,7.24-6.807c-0.011-3.707-3.216-6.767-7.124-6.799c-3.848-0.032-7.332,3.341-7.298,7.068   C155.045,75.495,158.291,78.45,162.194,78.462z M438.138,126.815c-0.137-2.134-1.441-4.123-3.912-5.194   c-2.817-1.221-5.484-0.753-7.777,1.28c-1.991,1.765-2.895,3.987-2.133,6.645c0.836,2.918,5.163,5.388,8.418,4.884   C435.32,134.029,438.166,130.327,438.138,126.815z M126.837,397.459c0.034,3.279,2.909,5.935,6.379,5.892   c3.559-0.044,6.816-3.433,6.775-7.052c-0.037-3.324-2.758-5.894-6.182-5.84C130.022,390.519,126.8,393.754,126.837,397.459z    M48.375,338.709c0.01,3.384,2.832,6.636,5.749,6.625c3.039-0.012,6.774-3.761,6.801-6.828c0.03-3.344-2.892-6.234-6.275-6.208   C51.211,332.325,48.365,335.233,48.375,338.709z"/>
	<path d="M211.947,333.045c-4.533,0.789-9.048,1.696-13.601,2.343c-10.093,1.435-20.23,2.392-30.443,1.971   c-5.528-0.228-11.024-0.821-16.224-2.881c-3.478-1.378-6.626-3.264-8.804-6.471c-1.461-2.15-2.039-4.396-0.804-6.791   c0.434-0.842,1.117-1.735,1.922-2.177c6.72-3.699,13.897-4.423,21.479-3.694c12.657,1.217,23.958,6.241,35.163,11.68   c3.796,1.843,7.582,3.707,11.372,5.561C211.986,332.739,211.967,332.892,211.947,333.045z"/>
	<path d="M294.247,229.729c-0.347,8.966-2.016,17.357-5.8,25.26c-1.551,3.239-3.074,6.508-5.846,8.954   c-0.522,0.461-1.049,0.92-1.61,1.333c-3.698,2.722-7.595,1.65-9.209-2.643c-1.544-4.104-1.608-8.416-1.198-12.703   c0.346-3.622,0.999-7.215,1.508-10.821c0.113-0.797,0.282-1.379,1.341-1.392c4.49-0.056,8.643-1.454,12.592-3.468   C288.727,232.869,291.346,231.331,294.247,229.729z"/>
	<path d="M276.219,225.772c0.202-0.568,0.333-0.914,0.448-1.265c0.631-1.919-0.009-2.879-2.001-3.011   c-2.566-0.17-2.714-0.14-3.229-2.656c-1.573-7.678,0.439-14.44,5.768-20.113c2.499-2.66,5.191-2.713,7.974-0.354   c3.725,3.158,5.833,7.441,6.975,12.03c1.053,4.228,1.385,8.635,2.047,12.962c0.179,1.169-0.237,1.813-1.389,2.288   c-4.648,1.913-9.351,2.657-14.24,1.061C277.82,226.468,277.099,226.127,276.219,225.772z"/>
	<path d="M399.539,281.189c5.202-1.013,10.003-1.466,14.818-1.138c2.865,0.195,5.784,0.64,8.518,1.488   c3.659,1.135,6.577,3.935,6.169,7.584c-0.334,2.984-1.309,5.695-3.288,8.032c-4.182,4.94-8.782,5.097-15.211,1.922   c-4.183-2.066-6.959-5.707-8.7-9.98C400.846,286.648,400.338,283.997,399.539,281.189z"/>
	<path d="M194.068,216.87c-6.178-1.747-8.097-7.53-4.499-12.25c1.159-1.521,2.601-1.709,3.629-0.104   c0.914,1.426,1.722,3.193,1.772,4.835C195.047,211.8,194.416,214.27,194.068,216.87z"/>
	<path d="M209.508,150.489c-0.026,0.202,0,0.38-0.071,0.501c-4.087,6.95-9.449,12.335-17.662,14.069   c-1.385,0.292-2.876,0.221-4.305,0.129c-1.057-0.068-1.535-0.61-1.109-1.868c0.956-2.817,2.693-4.981,5.093-6.635   c5.245-3.613,10.862-6.227,17.403-6.242C209.062,150.444,209.267,150.472,209.508,150.489z"/>
</g>















</svg>
