<svg id="Capa_1" enable-background="new 0 0 512.002 512.002" height="512" viewBox="0 0 512.002 512.002" width="512" xmlns="http://www.w3.org/2000/svg"><g><path d="m208.536 119.91c8.423 17.769 26.529 30.09 47.465 30.09 20.935 0 39.041-12.321 47.465-30.09 19.532-1.275 35.035-17.561 35.035-37.41v-40c0-4.143-3.357-7.5-7.5-7.5-10.084 0-19.245 4.008-25.991 10.506-7.099-21.801-24.494-39.169-47.058-45.249-1.277-.344-2.624-.344-3.902 0-22.564 6.08-39.959 23.448-47.058 45.249-6.746-6.498-15.907-10.506-25.991-10.506-4.142 0-7.5 3.357-7.5 7.5v40c0 19.849 15.503 36.135 35.035 37.41zm99.965-22.41v-25c0-9.778 6.27-18.119 15-21.215v31.215c0 9.924-6.462 18.363-15.397 21.344.252-2.081.397-4.196.397-6.344zm-52.5-82.191c19.948 6.224 34.341 23.975 37.036 45.02-9.501-9.467-22.596-15.329-37.036-15.329s-27.535 5.862-37.036 15.328c2.695-21.044 17.088-38.796 37.036-45.019zm0 44.691c20.678 0 37.5 16.822 37.5 37.5s-16.822 37.5-37.5 37.5-37.5-16.822-37.5-37.5 16.822-37.5 37.5-37.5zm-67.5-8.715c8.73 3.096 15 11.437 15 21.215v25c0 2.148.145 4.263.397 6.344-8.935-2.981-15.397-11.42-15.397-21.344z"/><path d="m308.501 337.5v-85.91c9.35-6.819 15-17.604 15-29.09v-22.786c50.271-3.842 90-45.976 90-97.214 0-4.143-3.357-7.5-7.5-7.5s-7.5 3.357-7.5 7.5c0 43.343-33.605 78.961-76.125 82.229-3.362-11.39-13.91-19.729-26.375-19.729h-80c-12.465 0-23.013 8.339-26.375 19.729-42.52-3.268-76.125-38.886-76.125-82.229 0-4.143-3.358-7.5-7.5-7.5s-7.5 3.357-7.5 7.5c0 51.239 39.729 93.372 90 97.214v22.786c0 11.485 5.65 22.271 15 29.09v85.91c0 9.777 6.271 18.114 15 21.21v130.385l-24.872 8.29c-3.93 1.31-6.053 5.558-4.744 9.487 1.048 3.143 3.974 5.13 7.114 5.13.786 0 1.586-.125 2.373-.387l30-10c3.063-1.021 5.128-3.887 5.128-7.115v-135.797c6.612-2.346 11.817-7.691 13.949-14.4 5.631.928 11.468.928 17.102 0 2.132 6.709 7.337 12.054 13.949 14.4v135.797c0 3.229 2.065 6.095 5.128 7.115l30 10c.787.262 1.587.387 2.373.387 3.141 0 6.066-1.987 7.114-5.13 1.31-3.93-.814-8.178-4.743-9.487l-24.872-8.29v-130.385c8.73-3.096 15.001-11.433 15.001-21.21zm-93.851-96.553c-6.877-3.829-11.149-10.898-11.149-18.447v-30c0-6.893 5.607-12.5 12.5-12.5h80c6.893 0 12.5 5.607 12.5 12.5v30c0 7.55-4.272 14.618-11.148 18.447-2.378 1.324-3.852 3.832-3.852 6.553v30.986l-3.339-2.226c-2.52-1.68-5.801-1.68-8.32 0l-10.841 7.227-10.84-7.227c-2.52-1.68-5.801-1.68-8.32 0l-10.84 7.227-10.84-7.227c-2.52-1.68-5.801-1.68-8.32 0l-3.34 2.227v-30.987c0-2.721-1.474-5.229-3.851-6.553zm71.351 104.053c-4.136 0-7.5-3.364-7.5-7.5v-2.57c0-2.435-1.182-4.718-3.17-6.124-1.283-.907-2.8-1.376-4.331-1.376-.84 0-1.686.142-2.499.429-8.039 2.842-16.962 2.842-25 0-2.296-.811-4.842-.459-6.83.947s-3.17 3.689-3.17 6.124v2.57c0 4.136-3.364 7.5-7.5 7.5s-7.5-3.364-7.5-7.5v-40.986l7.5-5 10.84 7.227c1.26.84 2.71 1.26 4.16 1.26s2.9-.42 4.16-1.26l10.84-7.227 10.84 7.227c2.52 1.68 5.801 1.68 8.32 0l10.841-7.227 7.499 5v40.986c0 4.136-3.364 7.5-7.5 7.5z"/></g></svg>