<svg id="Layer_1" enable-background="new 0 0 512 512" viewBox="0 0 512 512" xmlns="http://www.w3.org/2000/svg"><g fill="#fab03c"><path d="m241.5 313.4c-43.2 1.5-68.3-37.6-67.4-67.9.9-29 24.6-64.2 65.6-64.8 44.4-.6 68.8 38.4 68 68.1-.9 29.5-25.4 65.5-66.2 64.6z"/><path d="m146.2 254.3c-5.7 0-11.4 0-17.1 0-4.6 0-7.1-2.6-7.1-7.1s2.6-7.1 7.2-7.1c11.6.1 23.3.3 34.9.6 3.8.1 6.5 2.9 6.5 6.5 0 3.7-2.7 6.4-6.5 6.5-5.9.1-11.9 0-17.8 0-.1.2-.1.4-.1.6z"/><path d="m335.8 240h16.8c4.6 0 7.1 2.6 7.1 7.1s-2.5 7.2-7.1 7.1c-11.7-.1-23.4-.3-35.1-.6-3.7-.1-6.2-2.9-6.3-6.5 0-3.7 2.6-6.5 6.5-6.5 6-.1 12 0 18 0 .1-.2.1-.4.1-.6z"/><path d="m304.2 343.9c0 3.3-2.2 6-5.7 7.1-2.8.9-5.8-.1-7.4-2.8-1.6-2.6-3-5.2-4.5-7.8-4.3-7.7-8.5-15.4-12.7-23.1-2-3.6-1-7.4 2.4-9.2 3.3-1.8 6.9-.8 9 2.7 5.9 9.8 11.8 19.7 17.7 29.5.6 1.2 1.2 2.4 1.2 3.6z"/><path d="m177.7 149.9c.1-3.1 2.5-5.7 6-6.6 2.8-.7 5.6.3 7.1 2.9 2.6 4.5 5.1 9.1 7.6 13.6 3.2 5.8 6.5 11.6 9.8 17.5 1.8 3.3.8 7.1-2.3 8.9-3.2 1.9-7 1-8.9-2.2-6-10-12-19.9-18-29.9-.9-1.4-1.4-2.7-1.3-4.2z"/><path d="m279.7 187.1c-5.2-.1-8.5-5.1-6.2-9.4 5.7-10.6 11.6-21.1 17.5-31.6 2-3.4 5.7-4.1 9.3-2 3.7 2.2 4.9 5.7 2.8 9.3-4.4 7.4-8.9 14.8-13.3 22.2-1.6 2.7-3.2 5.5-4.8 8.2-1.2 2.3-3.2 3.2-5.3 3.3z"/><path d="m209.1 313.7c0 1.1-.2 2.1-.8 3-5.7 10.3-11.4 20.6-17.2 30.9-1.3 2.4-3.4 3.8-6.2 3.6-3-.3-5.4-1.7-6.7-4.6-.9-2-.7-4 .4-5.8 6.1-10.2 12.2-20.4 18.3-30.5 1.6-2.6 4.6-3.7 7.4-2.8 2.9.9 4.7 3.4 4.8 6.2z"/><path d="m247.4 158.4c0 3.4.1 6.8 0 10.2-.2 3.6-2.8 6.1-6.3 6.1-3.5.1-6.4-2.3-6.6-5.8-.3-7.5-.6-14.9.1-22.4.5-5.2 5.8-7.7 9.9-4.9 1.8 1.2 2.7 3 2.9 5.1.4 3.9.2 7.8 0 11.7z"/><path d="m154.6 303.7c-3.1 0-5.4-1.6-6.4-4.1-1-2.6-.4-5.6 1.9-7.2 6.4-4.5 13.2-8.2 20.2-11.7 2.9-1.4 6.2-.1 7.8 2.6 1.7 2.7 1.5 6.4-1.1 8.2-6.6 4.6-13.6 8.6-20.8 12-.7.2-1.3.2-1.6.2z"/><path d="m247.4 336.2c.2 3.8.4 7.6-.1 11.4-.4 3.7-2.9 6.1-6.3 6.2s-6.2-2.2-6.5-5.9c-.6-7.4-.4-14.9-.1-22.4.2-3.6 3.1-5.9 6.5-5.9 3.5.1 6.1 2.5 6.3 6.1.4 3.5.2 7 .2 10.5z"/><path d="m153.7 190.6c2-.1 3.3.5 4.6 1.2 5.9 3.3 11.7 6.6 17.5 10.1 3.4 2.1 4.3 5.7 2.5 8.8-1.8 3.3-5.4 4.4-9 2.4-6.4-3.4-12.7-6.8-18.7-10.9-2.2-1.5-3.2-3.7-2.7-6.3.4-2.5 1.9-4.3 4.4-5.1.5-.1 1.2-.1 1.4-.2z"/><path d="m309.4 214.3c-2.7.1-5.2-1.7-6.2-4.3s-.3-5.8 2-7.2c6.6-4.2 13.2-8.4 20.3-11.6 2.9-1.3 6.2-.1 7.8 2.7 1.6 2.7 1.1 6-1.3 8.2-.8.7-1.7 1.3-2.6 1.8-5.5 3.2-11 6.3-16.5 9.5-1.1.4-2.3.8-3.5.9z"/><path d="m309.1 280.1c1.1 0 2.1.2 3.1.7 6.3 3.5 12.7 6.8 18.7 10.9 2.7 1.8 3.7 4.4 3 7.1-1 3.9-4.9 6.1-8.5 4.4-7.1-3.2-13.7-7.4-20.3-11.6-2.3-1.5-2.9-4.6-2-7.2 1-2.5 3.4-4.2 6-4.3z"/></g><path d="m297.3 321.2c-.1 2.6-.5 5.2-.4 7.8.1 1.6.6 2.1 2.2 1.9 5.8-.5 11.7-1 17.4 1 1.1.4 2.2.7 3.1 1.5 5.2 5 9 10.7 9.4 18.1.2 3.5-1 6.4-3.1 9.4-5.5 7.9-13.6 8.6-21.9 8.9-.9 0-1.8 0-2.7 0-60.5 0-120.9 0-181.4 0-2.5 0-5 .2-7.4 1.1-2.7 1-5.6.5-8.2-.1-5.3-1.2-10.8-1.4-15.7-4.2-.1-.1-.3-.1-.5-.2-5.8-4.8-13.4-7.9-15.7-16.2-.4-1.4-.8-2.9-1.9-3.9-3.2-2.8-3.8-6.5-4.4-10.3-.7-4.6-2.3-9.2-2.1-14 .3-8.6 2.8-16.7 7.1-24.1 3.4-5.7 7.7-10.7 11.9-15.8 3.8-4.6 9.1-6.4 14.7-7.4 3.6-.6 7.4-.6 11.1.8 2.8 1.1 3.1.7 3.5-2.2 1.1-8.8 5.2-16.2 11.1-22.7 7.6-8.4 16.5-15.2 26.2-21.2 8-5 16.8-7.6 25.8-8.9 10.8-1.6 22-1.7 32.1 3 13 6 25.2 13.5 34 25.2 6.3 8.3 10.9 17.5 11.8 28.2.4 4.2 1 8.4.8 12.6-.1 1.2 0 1.9 1.6 1.1 8-4.2 16-3.2 24 .2 3.3 1.4 5.8 3.7 7.8 6.7 3.1 4.7 6.7 9 8.6 14.4 1 3.2 1.4 6.2 1.2 9.3z" fill="#c6e0f7"/><path d="m403.9 296.5c-11.3 0-22.6 0-33.9 0-3.1 0-6.2.8-9.4-.1-4.3-1.2-7.6-3.4-9.7-7.4-1.2-2.2-2.1-4.5-2.7-7-1.1-5 0-9.4 2.7-13.5 2-2.9 3.6-6.3 7.3-7.5 2-.7 3.9-1 6-.4 1 .3 1.7.3 1.9-1 .4-3.6 2.2-6.5 4.6-8.9 6.9-7 14.8-11.7 25.2-11.1 9.4.6 24 10.8 23.8 24.4 0 1.7.1 2.5 2.2 1.8 5.4-1.7 10.2 1.2 13.1 7.3.9 1.8 1.4 3.7 1 5.7-.4 2.3.3 3 2.7 2.7 3.4-.5 6.2.6 8.1 3.7 2.8 4.7.5 9.9-4.9 10.9-1.8.3-3.6.3-5.3.3-10.9.1-21.8.1-32.7.1z" fill="#c6e0f7"/><path d="m251 195.3c-11.9-2.3-23.3-.8-33.9 5.4-2.5 1.4-4.8 3.1-6.5 5.4-.8 1-.9 2.2.2 3 1.1.9 2.1.6 3-.4 4.5-5.1 10.5-7.7 16.9-9.1 18.5-3.8 34.4 1.7 48 14.2 6.3 5.8 10.7 12.9 11.8 21.6.2 1.4.7 2.6 2.4 2.5 1.3-.1 1.9-1.1 1.8-2.4-.1-4.4-2.8-11.7-6.5-16.9-9.1-12.8-21.8-20.3-37.2-23.3z"/><path d="m94.7 354.7c1.6.7 3.2 1.2 4.9 1.3 1.5 0 3.2-.1 3.2-2.1.1-1.8-1.3-2.1-2.9-2.1-2.5-.1-4.7-1.3-6.8-2.4-11.3-6.5-17.1-19.2-15.5-33.4.8-7.3 3.8-13.2 10.1-17.3 1.3-.8 2.4-1.7 1.4-3.3-1.1-1.7-2.5-1-3.8-.2-5.2 3.5-8.9 8-10.6 14.1-1.5 5.3-1.8 10.7-1.1 16.2 1.7 13.6 8.4 23.6 21.1 29.2z"/><path d="m169.9 231.4c-.4.1-.9.1-1.3.2-22.5 5.1-37.7 18.3-45.6 40-.2.6-.5 1.2-.5 1.9 0 1.6.9 2.5 2.5 2.2 1.4-.2 1.5-1.5 1.9-2.6 4.2-12.1 11.3-22 22.3-29 6.4-4.1 13.1-7.5 20.8-8.5 1.4-.2 2.6-.7 2.5-2.4-.2-1.3-1.1-1.9-2.6-1.8z"/><path d="m373.3 264.8c1.6.6 2.4-.5 2.8-1.9.8-2.7 2.1-5.1 3.9-7.3 3.1-3.6 7-5.6 10.8-6 3.5.2 4.5-.3 4.5-1.8-.1-2.2-1.8-2.2-3.3-2.3-1.6-.1-3.1.1-4.6.5-7.8 2.5-12.7 7.8-15.2 15.5-.5 1.5-.5 2.8 1.1 3.3z"/><path d="m199.3 240c1.2.4 2.1-.2 2.5-1.3.4-1.2-.1-2.1-1.3-2.6-4.7-1.8-9.8-2.5-14.6-3.8-1.1 0-2 .4-2.2 1.5-.3 1.5.5 2.3 1.9 2.7 4.5 1.2 9.2 1.9 13.7 3.5z"/><path d="m295.7 246.4c-.1-1.3-.9-2.1-2.2-2-1.2.1-1.9.9-1.9 2.1.1 2.5 0 5-.3 7.5-.1 1.2.5 2.1 1.7 2.3 1.3.2 2.2-.6 2.4-1.9.2-1.5.3-3.1.4-4.6h-.1c0-1.2.1-2.3 0-3.4z"/><path d="m100 295.5h.2c1.7 0 4.1 1 4.2-1.8s-2.5-2.1-4.1-2.4c-1.7.1-4-.4-4 2.1s2.1 2.1 3.7 2.1z"/><path d="m288.9 267.9c.1 1.2.8 1.9 2 2 1.3.1 3.6-3.4 3.6-5.3 0-1.1-.8-2-1.9-2.1-1.3 0-3.8 3.6-3.7 5.4z"/><path d="m403.7 254.7c1.2-.1 1.9-.9 1.9-2 0-1.3-2.1-3.1-3.5-2.9-1.2.1-1.9.8-1.9 2.1 0 1.2 2.1 2.9 3.5 2.8z"/><path d="m209.1 242.8c0 1.3 2 3.1 3.4 2.9 1.2-.1 1.8-.9 1.9-2 0-1.4-2.1-3.2-3.4-3.1-1.2.2-1.9.9-1.9 2.2z"/></svg>