<?xml version="1.0" encoding="UTF-8"?>
<!-- Generator: Adobe Illustrator 25.2.0, SVG Export Plug-In . SVG Version: 6.00 Build 0)  -->
<svg xmlns="http://www.w3.org/2000/svg" xmlns:xlink="http://www.w3.org/1999/xlink" version="1.1" id="Capa_1" x="0px" y="0px" viewBox="0 0 499.874 499.874" style="enable-background:new 0 0 499.874 499.874;" xml:space="preserve" width="512" height="512">
<g>
	<path d="M179.385,231.036c-0.682-0.733-1.362-1.429-2.004-2.159c-15.169-17.221-25.101-36.974-28.918-59.7   c-1.837-10.939-2.905-21.915-2.13-33.027c1.75-25.103,8.928-48.462,23.581-69.023c11.6-16.277,26.085-29.513,44.867-37.36   c9.382-3.919,19.247-5.874,29.302-6.968c8.333-0.906,16.668-1.204,24.983,0.276c30.135,5.367,60.131,28.177,67.686,58.602   c3.215,12.949,3.372,26.001-1.518,38.742c-3.479,9.065-9.01,16.583-17.13,21.971c-7.326,4.861-15.279,6.517-23.687,3.103   c-10.593-4.301-13.7-14.997-8.862-24.194c3.174-6.034,7.104-11.535,11.735-16.553c10.891-11.801,22.642-35.475,13.783-51.422   c-2.277-4.099-6.15-7.05-10.092-9.591c-18.215-11.741-38.173-14.486-56.902-1.797c-10.379,7.032-18.803,15.766-25.459,26.439   c-11.726,18.806-18.266,39.277-20.864,61.155c-1.463,12.325-2.433,24.672-1.448,37.075c0.903,11.364,3.11,22.484,7.153,33.185   c1.58,4.183,3.264,8.326,4.911,12.483c0.251,0.633,0.561,1.242,0.912,2.01c0.663-0.259,1.242-0.474,1.813-0.709   c20.724-8.538,42.22-11.783,64.532-9.377c5.055,0.545,10.047,1.53,14.693,3.607c2.887,1.291,5.748,2.862,8.223,4.813   c7.39,5.826,9.427,15.796,5.153,24.195c-2.908,5.715-7.298,10.093-12.721,13.427c-10.216,6.281-21.38,9.306-33.338,9.498   c-18.812,0.302-36.878-2.992-53.915-11.222c-0.221-0.107-0.447-0.203-0.678-0.283c-0.083-0.029-0.187,0.006-0.59,0.03   c-0.672,3.371-1.478,6.8-2.026,10.269c-2.335,14.782-3.477,29.678-4.024,44.621c-0.901,24.611-1.892,49.219-2.541,73.837   c-0.461,17.461,0.211,34.892,2.987,52.194c2.156,13.435,7.008,31.617,16.859,41.582c11.992,12.13,31.965,13.116,47.567,9.834   c14.556-3.062,28.031-8.564,40.194-17.272c8.778-6.285,15.792-14.119,21.663-23.083c9.398-14.35,15.283-30.09,18.42-46.885   c3.586-19.198,4.608-38.538,2.761-57.997c-1.046-11.024-4.037-21.61-7.516-32.07c-1.455-4.374-2.982-8.724-4.555-13.318   c-0.808,0.682-1.425,1.145-1.975,1.678c-7.168,6.941-14.351,13.867-21.481,20.847c-7.506,7.35-15.728,13.821-24.306,19.844   c-6.808,4.78-14.104,8.665-22.284,10.469c-16.656,3.674-33.989-5.266-40.651-20.971c-2.999-7.07-4.934-14.417-4.107-22.234   c0.341-3.221,1.371-6.208,2.847-9.084c3.881-7.561,16.5-10.191,22.408-0.984c1.427,2.224,2.58,4.632,3.748,7.009   c1.517,3.087,2.763,6.316,4.425,9.318c1.416,2.558,3.132,4.978,4.934,7.288c4.185,5.364,9.993,7.606,16.577,8.09   c4.54,0.334,9.032-0.148,13.465-1.177c3.442-0.799,6.42-2.528,8.964-4.892c8.169-7.594,16.408-15.122,24.339-22.959   c7.85-7.757,16.019-15.089,24.983-21.541c10.917-7.858,23.149-12.235,36.406-13.843c11.677-1.416,23.267-1.013,34.603,2.484   c16.397,5.059,29.742,14.355,39.992,28.239c6.503,8.809,11.826,18.102,14.294,28.839c3.956,17.207,3.16,34.133-3.046,50.761   c-6.997,18.748-19.993,36.733-40.971,40.742c-13.209,2.524-26.009,1.673-38.289-4.23c-5.61-2.697-10.308-6.454-14.026-11.439   c-5.087-6.821-9.798-13.924-11.413-22.416c-3.89-20.454-0.28-39.117,15.082-54.08c12.276-11.958,27.275-15.636,43.864-11.485   c11.434,2.861,19.115,13.318,19.099,25.078c-0.002,1.772-0.348,3.658-1.022,5.29c-1.522,3.688-5.272,5.28-9.018,3.88   c-1.912-0.715-3.706-1.8-5.466-2.862c-6.84-4.127-14.21-6.548-22.15-7.528c-10.486-1.295-25.931,6.197-29.106,20.819   c-1.444,6.648-2.859,13.285-1.508,20.133c1.205,6.108,3.041,12.035,6.071,17.472c2.426,4.353,6.26,7.409,10.668,9.68   c10.837,5.581,22.299,7.533,34.324,5.457c30.946-5.343,43.718-38.546,42.459-67.106c-0.597-13.547-4.622-25.847-12.704-36.772   c-5.039-6.811-10.281-13.447-17.063-18.657c-12.897-9.908-27.471-14.533-43.741-13.933c-20.819,0.768-39.072,8.081-55.079,21.282   c-0.83,0.685-0.796,1.163-0.423,2.078c7.314,17.914,12.965,36.249,14.118,55.732c0.992,16.778-0.298,33.399-3.238,49.917   c-2.586,14.53-7.448,28.247-14.243,41.359c-11.613,22.41-29.561,37.333-53.077,45.954c-30.518,11.188-60.239,8.735-89.269-5.147   c-23.313-11.148-40.436-28.685-52.547-51.349c-8.431-15.778-13.817-32.535-16.208-50.236c-1.52-11.25-1.409-22.56-0.426-33.851   c1.619-18.592,5.781-36.599,13.138-53.776c8.743-20.412,21.849-37.549,39.29-51.335c1.89-1.494,3.782-2.984,5.671-4.477   C179.212,231.319,179.231,231.268,179.385,231.036z M216.194,224.603c-0.041,0.276-0.032,0.548,0.034,0.813   c0.841,3.355,5.671,7.055,8.139,9.266c4.16,3.727,8.848,7.077,14.025,9.222c9.301,3.854,18.897,6.083,29.016,5.182   c8.627-0.768,13.866-6.047,17.29-13.542c2.482-5.432,1.946-12.179-0.981-17.333c-3.458-6.09-9.174-7.683-15.773-7.958   c-9.968-0.415-19.982,0.39-29.737,2.496c-4.396,0.949-8.806,2.119-12.846,4.138C222.873,218.133,216.638,221.629,216.194,224.603z"/>
	<path d="M124.341,113.372c-0.465,7.972-2.149,15.715-3.408,23.521c-1.416,8.774-3.106,17.542-3.833,26.381   c-1.313,15.973,1.71,31.402,7.379,46.335c1.075,2.832,2.265,5.62,3.368,8.442c0.116,0.297,0.231,0.636,0.092,0.923   c-0.134,0.278-0.457,0.401-0.756,0.48c-1.881,0.496-3.903,0.182-5.717-0.52c-3.75-1.451-7.06-4.158-10.203-6.599   c-3.169-2.462-6.104-5.231-8.67-8.32c-9.488-11.419-16.698-24.202-20.561-38.596c-4.705-17.533-3.769-34.846,3.335-51.674   c2.452-5.807,5.746-11.068,10.574-15.25c2.719-2.355,5.741-4.139,9.296-4.87c8.717-1.794,16.019,2.995,18.12,12.028   C123.942,108.166,124.027,110.796,124.341,113.372z"/>
	<path d="M91.96,317.173c-0.429,0.287-0.85,0.586-1.287,0.858c-4.71,2.939-9.345,6.009-14.154,8.775   c-5.93,3.411-12.331,5.69-19.142,6.499c-9.742,1.158-18.203-1.562-24.9-8.954c-8.194-9.046-8.423-21.372-0.366-30.516   c2.209-2.507,4.829-4.856,7.693-6.543c9.977-5.874,21.054-0.68,23.678,10.892c0.279,1.23,0.33,2.528,0.343,3.795   c0.009,0.908-0.282,1.832-1.4,1.946c-1.085,0.111-1.331-0.76-1.619-1.576c-1.075-3.047-2.988-5.832-5.707-7.642   c-2.092-1.393-4.689-2.114-7.166-1.687c-2.151,0.371-4.071,1.558-5.822,2.862c-2.593,1.932-4.976,4.212-6.768,6.918   c-2.054,3.103-2.67,6.199-1.777,9.855c1.9,7.779,8.775,13.628,17.426,14.854c7.493,1.063,14.517-0.803,21.171-3.891   c9.175-4.257,17.65-9.694,25.166-16.535c1.054-0.959,2.103-1.93,3.225-2.806c1.295-1.011,2.803-0.972,3.765-0.024   c1.001,0.986,1.118,2.486,0.053,3.75c-8.029,9.522-11.249,21.144-14.271,32.818c-3.874,14.963-3.286,30.07-1.385,45.258   c2.253,17.994,8.564,34.7,16,50.998c4.669,10.234,11.699,18.973,19.875,26.709c8.003,7.571,16.129,15.016,25.512,20.896   c1.66,1.04,3.382,1.977,5.119,2.88c1.809,0.939,3.563,1.848,5.542,2.393c0.672,0.185,1.376,0.347,1.922,0.779   c0.123,0.097,0.239,0.211,0.297,0.357c0.05,0.124,0.053,0.262,0.042,0.395c-0.024,0.295-0.115,0.585-0.267,0.839   c-0.367,0.611-1.059,0.97-1.761,1.097c-0.721,0.131-1.609,0.119-2.326-0.039c-4.89-1.073-9.406-3.188-13.679-5.709   c-8.293-4.893-15.544-11.176-22.757-17.503c-13.99-12.272-23.459-27.452-30.319-44.675c-7.766-19.499-11.529-39.576-11.059-60.473   c0.363-16.131,4.313-31.483,10.758-46.227c0.206-0.471,0.386-0.955,0.579-1.432C92.117,317.301,92.039,317.237,91.96,317.173z"/>
	<path d="M318.368,171.55c3.904,0.747,7.808,1.258,11.582,2.262c9.679,2.574,17.706,7.91,24.358,15.332   c10.077,11.242,9.955,26.553,3.737,37.821c-2.962,5.369-7.547,8.479-13.473,9.44c-3.121,0.506-6.382-0.113-8.924-1.993   c-6.054-4.479-7.707-12.803-3.701-19.147c1.172-1.856,2.707-3.486,4.11-5.19c0.304-0.369,0.721-0.774,1.153-0.876   c0.123-0.029,0.276-0.039,0.439-0.038c0.867,0.006,1.625,0.695,1.643,1.562c0.001,0.061-0.001,0.119-0.009,0.171   c-0.071,0.497-0.45,0.967-0.747,1.414c-1.141,1.72-2.364,3.388-3.444,5.144c-2.703,4.391-1.318,10.039,3.057,12.792   c2.282,1.436,4.787,1.104,7.449-0.374c3.106-1.724,5.426-4.59,6.668-7.918c3.238-8.684,2.485-17.102-3.292-24.872   c-8.654-11.64-20.392-17.724-34.888-18.351c-3.236-0.14-6.486,0.075-9.73,0.089c-1.274,0.006-2.562,0.014-3.818-0.165   c-1.636-0.234-2.624-1.296-2.731-2.656c-0.101-1.283,0.677-2.436,2.212-2.953c2.885-0.971,5.811-1.818,8.703-2.769   c8.413-2.767,16.643-5.861,24.032-10.964c10.884-7.517,19.013-17.368,25.487-28.762c8.271-14.555,13.049-30.165,14.269-46.846   c0.563-7.695,0.31-15.331-2.469-22.686c-4.212-11.147-12.338-18.178-23.292-22.259c-0.735-0.274-1.51-0.468-2.202-0.824   c-1.506-0.776-1.618-2.378-0.066-3.031c1.442-0.606,3.165-1.094,4.664-0.892c2.694,0.362,5.464,0.939,7.94,2.023   c11.706,5.129,18.834,14.13,21.783,26.518c2.155,9.053,1.854,18.152,0.449,27.249c-3.632,23.508-14.145,43.701-30.052,61.137   c-8.159,8.944-18.107,15.492-29.386,19.964C319.343,171.117,318.816,171.358,318.368,171.55z"/>
	<path d="M366.397,447.597c-0.324,9.038-2.459,19.761-8.481,29.458c-2.903,4.673-6.481,8.69-11.288,11.4   c-2.15,1.211-4.527,2.285-6.93,2.736c-11.403,2.137-19.82-7.728-16.44-19.084c0.901-3.028,2.483-5.7,4.609-7.977   c3.082-3.301,6.254-6.529,9.535-9.633c4.428-4.19,8.591-8.674,12.262-13.546c1.903-2.525,3.588-5.166,5.258-7.847   c1.381-2.216,2.146-4.988,3.925-6.928c0.388-0.423,0.839-0.803,1.375-1.009c0.535-0.206,1.165-0.219,1.664,0.064   c0.34,0.193,0.597,0.505,0.81,0.834c0.813,1.255,1.02,2.737,1.392,4.154c0.457,1.736,0.944,3.451,1.291,5.214   C366.161,439.41,366.542,443.541,366.397,447.597z"/>
	<path d="M71.078,273.981c0.473-2.402,0.655-4.907,1.466-7.188c5.397-15.166,15.334-25.778,31.138-30.208   c7.286-2.042,14.592-1.65,21.801,0.59c1.926,0.598,2.319,2.406,0.783,3.718c-1.156,0.988-2.379,1.902-3.618,2.786   c-8.899,6.349-16.353,13.958-21.089,23.973c-1.533,3.242-2.959,6.555-4.771,9.638c-1.755,2.985-3.625,6.02-6.005,8.494   c-5.134,5.334-11.54,4.71-16.055-1.171C72.329,281.489,71.201,277.962,71.078,273.981z"/>
	<path d="M407.774,87.028c0.552,20.425-5.368,39.087-15.348,56.636c-4.655,8.184-11.165,14.814-18.022,21.11   c-1.792,1.645-3.679,3.184-5.611,4.66c-2.125,1.622-4.171,3.411-7.001,3.361c-0.321-0.006-0.648-0.035-0.942-0.163   c-0.294-0.129-0.553-0.372-0.63-0.683c-0.06-0.241-0.008-0.495,0.065-0.732c0.35-1.138,1.176-1.852,1.997-2.653   c0.898-0.877,1.769-1.785,2.666-2.666c1.862-1.829,3.741-3.639,5.587-5.484c2.354-2.353,4.657-4.763,6.785-7.325   c13.171-15.854,20.633-34.203,22.487-54.761c1.501-16.651-0.803-32.739-7.396-48.16c-2.84-6.644-6.88-12.462-12.028-17.508   c-3.018-2.958-6.11-5.84-9.169-8.757c-0.284-0.271-0.587-0.526-0.853-0.814c-0.778-0.844-1.61-1.729-1.051-2.986   c0.596-1.341,1.871-1.517,3.133-1.416c2.785,0.222,5.172,1.526,7.423,3.04c7.477,5.028,13.422,11.442,17.611,19.473   c5.042,9.664,7.967,19.973,9.372,30.719C407.503,76.928,407.777,86.842,407.774,87.028z"/>
	<path d="M409.667,458.933c-7.291-0.058-13.364-2.574-18.655-6.839c-6.358-5.125-11.549-11.245-14.357-19.071   c-0.555-1.547-0.926-3.237-0.971-4.873c-0.08-2.856,2.037-4.056,4.617-2.874c4.188,1.918,8.301,4.056,12.621,5.612   c5.306,1.912,10.96,2.141,16.561,2.485c2.937,0.181,5.862,0.572,8.789,0.891c0.533,0.058,1.065,0.195,1.579,0.354   c4.379,1.362,7.93,3.66,8.689,8.589c0.765,4.968-1.273,8.882-5.273,11.696C419.113,457.826,414.313,458.8,409.667,458.933z"/>
	<path d="M116.115,499.871c-0.891,0.049-1.771-0.553-2.534-0.938c-0.916-0.462-1.814-0.959-2.695-1.484   c-1.549-0.923-3.086-1.867-4.605-2.839c-3.013-1.926-5.96-3.958-8.802-6.129c-2.827-2.159-5.549-4.456-8.122-6.913   c-2.594-2.477-5.035-5.116-7.279-7.915c-1.654-2.064-3.2-4.215-4.627-6.442c-11.895-18.575-19.233-38.737-22.66-60.39   c-1.674-10.575-1.647-21.153,1.626-31.519c1.106-3.504,2.675-6.755,5.1-9.551c0.322-0.371,0.649-0.738,0.997-1.084   c0.695-0.691,1.614-1.378,2.423-0.623c0.471,0.44,0.646,1.667,0.399,2.335c-6.905,18.728-4.872,37.532-0.451,56.321   c3.543,15.061,9.953,28.94,17.88,42.164c4.946,8.251,11.421,15.111,19.026,20.923c3.479,2.658,7.014,5.243,10.545,7.832   c1.198,0.883,2.414,1.736,3.618,2.61c0.604,0.438,1.254,0.95,1.582,1.642c0.445,0.94-0.383,1.906-1.352,1.996   C116.16,499.868,116.137,499.87,116.115,499.871z"/>
	<path d="M135.312,75.136c-9.117-0.02-15.948-9.223-13.535-18.364c1.475-5.588,4.709-9.699,10.501-11.289   c5.13-1.408,10.389,0.672,13.434,5.042c3.829,5.496,4.757,11.24,1.572,17.319C144.882,72.431,140.3,75.148,135.312,75.136z"/>
	<path d="M396.155,246.29c-5.92,0.023-11.163-4.026-12.167-9.397c-1.363-7.29,4.806-14.704,12.186-14.535   c1.289,0.03,2.634,0.38,3.837,0.869c3.011,1.225,5.247,3.451,6.953,6.153c1.665,2.639,1.925,5.525,0.914,8.493   C406.083,243.142,401.719,246.268,396.155,246.29z"/>
	<path d="M174.802,29.721c0.024,6.329-5.307,11.613-11.707,11.606c-6.667-0.007-12.248-5.503-12.226-12.041   c0.021-6.524,4.597-11.278,10.892-11.317C168.86,17.925,174.778,23.258,174.802,29.721z"/>
	<path d="M436.257,255.758c-6.507-0.031-12.396-5.211-12.349-10.862c0.05-5.987,5.912-11.639,12.083-11.649   c6.331-0.011,11.695,5.425,11.673,11.83C447.645,250.709,442.222,255.787,436.257,255.758z"/>
	<path d="M386.201,198.116c-3.342-0.291-6.916-1.406-9.33-4.846c-1.683-2.398-2.083-5.059-1.305-7.865   c1.714-6.183,7.998-10.241,13.794-8.614c4.506,1.265,7.496,4.501,8.808,8.925c0.456,1.538,0.061,3.549-0.522,5.132   C396.033,195.23,391.503,198.12,386.201,198.116z"/>
	<path d="M462.163,278.202c-5.982,0.009-9.855-3.994-9.896-10.228c-0.038-5.715,4.694-10.802,10.091-10.848   c6.467-0.055,11.279,4.559,11.319,10.851C473.714,273.877,468.855,278.192,462.163,278.202z"/>
	<path d="M190.637,20.659c-6.064-0.093-10.45-3.919-11.095-9.366c-0.582-4.91,2.865-9.759,7.843-11.035   c4.788-1.227,11.364,2.071,13.22,6.63c2.385,5.857-1.662,12.508-8.278,13.588C191.65,20.587,190.961,20.625,190.637,20.659z"/>
</g>















</svg>
