<?xml version="1.0" encoding="UTF-8"?>
<!-- Generator: Adobe Illustrator 27.2.0, SVG Export Plug-In . SVG Version: 6.00 Build 0)  -->
<svg xmlns="http://www.w3.org/2000/svg" xmlns:xlink="http://www.w3.org/1999/xlink" version="1.1" id="Capa_1" x="0px" y="0px" viewBox="0 0 512 512" style="enable-background:new 0 0 512 512;" xml:space="preserve" width="512" height="512">
<g>
	<path style="fill:#FFFFFF;" d="M124.721,482.982c-1.855,0-3.731-0.383-5.514-1.181c-5.954-2.665-9.155-9.203-7.604-15.541   l5.292-21.647c-4.674-2.982-9.18-6.197-13.482-9.619l-4.969-0.598c-6.413-0.774-11.38-5.977-11.856-12.418   c-0.067-0.919-0.041-1.827,0.071-2.711c-0.001-0.002-0.002-0.004-0.004-0.007c-9.1,4.112-15.544,6.964-15.629,7.004   c-1.749,0.774-3.612,1.155-5.466,1.155c-2.705,0-5.391-0.811-7.687-2.399c-3.071-2.124-74.984-52.788-54.063-119.163   c1.509-4.785,5.546-8.341,10.484-9.234c19.752-3.585,51.277-12.64,59.503-21.553c0.56-0.605,1.115-1.245,1.667-1.92   c-10.241-17.568-14.264-40.049-11.64-65.081c4.266-40.678,28.896-86.78,74.304-98.078c7.999-1.991,16.033-2.702,23.793-3.011   l5.879-9.191c2.553-3.991,6.901-6.232,11.388-6.232c1.88,0,3.785,0.394,5.591,1.216c5.107,2.326,8.139,7.489,7.902,12.884   c3.791-0.487,7.407-1.216,10.856-2.33c15.213-4.912,27.442-17.303,40.39-30.421c12.231-12.393,24.878-25.207,41.474-33.404   c13.421-6.629,28.98-10.046,47.57-10.45c1.113-0.024,2.227-0.036,3.342-0.036c38.544,0,73.186,14.061,95.043,38.578   c27.21,30.521,31.125,76.356,9.107,106.617c-4.459,6.128-9.594,11.247-14.561,16.198c-6.518,6.497-12.674,12.634-15.512,19.569   c-1.086,2.654-1.735,5.568-1.942,8.706c5.758,5.951,9.518,14.268,13.855,23.862c4.273,9.451,9.116,20.165,15.897,27.512   c8.226,8.911,39.75,17.966,59.508,21.551c4.935,0.895,8.971,4.451,10.48,9.234c20.922,66.374-50.992,117.038-54.063,119.162   c-2.296,1.588-4.983,2.399-7.687,2.399c-1.854,0-3.715-0.38-5.465-1.154c-0.141-0.062-11.869-5.254-26.156-11.789   c-13.457,13.753-30.422,25.568-50.568,35.207l-3.095,1.465c-5.133,2.421-10.095,4.761-14.07,7.475   c1.007,3.123,0.864,6.571-0.531,9.68c-2.178,4.855-7.005,7.98-12.327,7.98H164.144c-5.557,0-10.548-3.402-12.578-8.576   c-0.196-0.499-0.361-1.005-0.495-1.515c-1.142-0.398-2.281-0.807-3.415-1.229l-11.792,17.168   C133.277,480.887,129.06,482.982,124.721,482.982z"/>
	<g>
		<g>
			<path style="fill:#A27CFF;" d="M178.666,453.368c-26.649-4.724-51.923-16.966-72.15-34.948     c-13.669-12.151-25.668-28.806-24.181-47.034c2.077-25.465,29.636-45.73,25.367-70.921     c-2.223-13.114-12.645-23.035-19.458-34.458c-10.136-16.993-12.273-37.756-10.209-57.435     c3.986-38.006,27.045-77.15,64.129-86.377c21.632-5.382,45.086-0.067,66.299-6.917c33.809-10.917,51.842-48.834,83.696-64.568     c12.909-6.376,27.484-8.744,41.879-9.056c32.451-0.703,66.408,9.797,88.008,34.025c21.6,24.228,27.365,63.431,8.268,89.677     c-9.845,13.53-25.316,23.115-31.654,38.601c-6.975,17.045-0.902,36.669,8.029,52.776c8.931,16.107,20.767,30.848,26.408,48.38     c8.17,25.395,1.911,54.055-12.788,76.318c-14.699,22.263-37.049,38.63-61.115,50.142c-11.199,5.357-23.645,10.442-29.907,21.161     c-1.15,0-5.444,2.431-6.594,2.431L178.666,453.368z"/>
			<polygon style="fill:#FFC945;" points="152.784,146.639 179.954,104.166 165.763,152.548 199.881,169.84 165.092,166.591      159.224,200.848 151.573,166.026 110.138,176.698 141.965,154.258 121.489,131.556    "/>
			<polygon style="fill:#FFC945;" points="139.988,409.334 131.31,351.05 155.961,404.573 199.298,393.608 166.153,417.46      187.29,452.148 153.809,427.345 125.499,468.564 136.307,424.354 100.835,420.077    "/>
			<polygon style="fill:#FFC945;" points="359.347,110.816 374.361,53.833 375.903,112.74 420.052,119.757 380.186,128.603      385.928,168.815 364.944,132.817 322.671,159.529 350.04,123.167 319.131,105.245    "/>
			<polygon style="fill:#FBEEE5;" points="260.368,121.957 262.47,87.634 264.104,122.191 272.743,115.186 267.607,123.358      286.052,125.693 268.073,128.028 273.21,135.266 264.571,130.596 262.236,160.483 260.368,131.063 251.496,134.799      257.099,128.028 234.685,124.993 256.866,124.059 251.729,116.354    "/>
			<polygon style="fill:#FBEEE5;" points="376.777,377.722 385.133,344.365 380.407,378.636 390.183,373.333 383.636,380.425      401.341,386.101 383.239,385.102 386.962,393.159 379.325,386.985 371.553,415.937 375.108,386.674 365.701,388.72      372.451,383.091 350.972,375.999 372.949,379.146 369.311,370.63    "/>
		</g>
		<g>
			<g>
				<g>
					<path style="fill:#EBB1FF;" d="M372.338,298.526c0,11.869-1.73,23.352-4.968,34.172c-0.129,0.497-0.276,0.975-0.423,1.454       c-6.68,21.511-19.285,40.428-35.902,54.855c-0.294,0.258-0.589,0.515-0.883,0.755c-8.244,7.029-17.463,12.955-27.418,17.555       c-0.276,0.129-0.57,0.258-0.847,0.387c-15.052,6.827-31.761,10.618-49.353,10.618c-29.295,0-56.125-10.507-76.937-27.97       c-0.239-0.202-0.478-0.405-0.717-0.607c-16.764-14.28-29.553-33.086-36.435-54.542c-0.165-0.515-0.331-1.03-0.478-1.564       c-3.423-11.096-5.245-22.892-5.245-35.11c0-35.423,15.384-67.258,39.821-89.211c0.442-0.386,0.883-0.791,1.343-1.178       c12.071-10.507,26.259-18.641,41.863-23.664c0.35-0.111,0.699-0.221,1.049-0.331c10.452-3.275,21.53-5.134,33.012-5.392       c0.313-0.018,0.607-0.018,0.92-0.018c0.607-0.018,1.196-0.018,1.803-0.018c32.81,0,62.565,13.212,84.205,34.595       c0.221,0.221,0.442,0.442,0.644,0.663c9.311,9.311,17.058,20.168,22.892,32.129c0.166,0.331,0.331,0.681,0.478,1.012       C368.198,262.698,372.338,280.124,372.338,298.526z"/>
					<g>
						<g>
							<path style="fill:#FBEEE5;" d="M360.764,247.112c-2.503-0.405-4.821-0.663-6.845-0.828         c-15.844-1.251-31.945,0.92-47.513,3.018c-6.625,0.902-13.488,1.822-20.242,2.466c-13.948,1.362-31.761,1.767-45.801-6.993         c-6.882-4.306-12.826-10.783-17.647-19.23c-6.257-10.967-9.09-22.56-8.207-33.546c0.202-2.558,0.626-5.079,1.251-7.526         c0.35-0.111,0.699-0.221,1.049-0.331c-0.699,2.576-1.159,5.226-1.38,7.931c-0.865,10.802,1.932,22.211,8.078,33.012         c4.748,8.318,10.581,14.685,17.353,18.917c13.783,8.612,31.412,8.189,45.231,6.864c6.735-0.662,13.58-1.583,20.186-2.466         c15.623-2.116,31.761-4.306,47.715-3.036c1.877,0.147,4.012,0.386,6.293,0.736         C360.451,246.431,360.616,246.781,360.764,247.112z"/>
						</g>
						<g>
							<path style="fill:#FBEEE5;" d="M367.37,332.698c-0.129,0.497-0.276,0.975-0.423,1.454c-0.626-1.73-1.325-3.441-2.098-5.134         c-9.514-20.555-31.964-34.871-54.634-34.871h-0.184c-14.316,0.055-28.375,5.226-41.956,10.213         c-16.543,6.091-33.656,12.366-51.064,9.201c-16.469-3.018-31.522-14.666-40.244-31.191         c-7.545-14.28-10.526-31.945-8.593-51.083c0.755-7.545,2.245-14.905,4.38-21.971c0.442-0.386,0.883-0.791,1.343-1.178         c-2.374,7.453-3.993,15.236-4.803,23.241c-1.914,18.954,1.031,36.453,8.483,50.549c8.612,16.286,23.407,27.768,39.6,30.712         c17.169,3.147,34.153-3.11,50.586-9.146c13.654-5.024,27.786-10.213,42.268-10.268h0.184         c23.02,0,45.801,14.537,55.462,35.405C366.302,329.974,366.854,331.317,367.37,332.698z"/>
						</g>
						<g>
							<path style="fill:#FBEEE5;" d="M337.394,213.971c-10.158,8.575-22.155,14.96-35,18.475         c-5.723,1.564-10.931,2.337-15.715,2.337c-3.938,0-7.6-0.534-11.004-1.583c-13.267-4.14-23.535-17.15-26.185-33.123         c-1.104-6.625-0.994-13.691,0.331-21.327c0.313-0.018,0.607-0.018,0.92-0.018c-1.325,7.6-1.435,14.629-0.35,21.199         c2.558,15.402,12.826,28.412,25.56,32.387c7.361,2.3,15.936,2.042,26.204-0.773c12.697-3.478,24.548-9.771,34.595-18.236         C336.97,213.529,337.191,213.75,337.394,213.971z"/>
						</g>
						<g>
							<path style="fill:#FBEEE5;" d="M331.045,389.006c-0.294,0.258-0.589,0.515-0.883,0.755c-0.202-4.122-0.791-8.189-1.877-12.2         c-4.729-17.445-19.285-32.828-37.981-40.171c-20.959-8.225-42.305-5.686-56.511-2.116         c-6.201,1.564-12.421,3.644-18.457,5.668c-13.212,4.398-26.885,8.962-40.962,8.299c-12.697-0.589-25.376-5.649-35.92-14.04         c-0.165-0.515-0.331-1.03-0.478-1.564c10.599,8.777,23.517,14.077,36.435,14.684c13.893,0.681,27.492-3.883,40.631-8.262         c6.054-2.024,12.292-4.104,18.53-5.668c14.335-3.607,35.883-6.165,57.063,2.134c18.972,7.453,33.73,23.076,38.533,40.796         C330.217,381.167,330.806,385.068,331.045,389.006z"/>
						</g>
						<g>
							<path style="fill:#FBEEE5;" d="M302.743,407.316c-0.276,0.129-0.57,0.258-0.847,0.387c-0.607-1.435-1.251-2.871-1.932-4.288         c-4.527-9.514-9.311-16.12-15.052-20.757c-6.367-5.152-14.666-8.575-26.13-10.765c-20.15-3.864-40.115-2.466-57.726,4.03         c-9.403,3.496-18.015,8.373-25.449,14.427c-0.239-0.202-0.478-0.405-0.717-0.607c7.563-6.146,16.285-11.151,25.854-14.666         c17.776-6.569,37.889-7.986,58.204-4.085c11.63,2.227,20.058,5.704,26.535,10.949c5.852,4.729,10.728,11.427,15.328,21.088         C301.492,404.445,302.136,405.862,302.743,407.316z"/>
						</g>
					</g>
				</g>
				<g>
					<g>
						<path style="fill:#FFFFFF;" d="M244.865,395.359c1.48,0,1.482-2.3,0-2.3C243.385,393.058,243.383,395.359,244.865,395.359        L244.865,395.359z"/>
					</g>
					<g>
						<path style="fill:#FFFFFF;" d="M202.581,396.611c1.48,0,1.482-2.3,0-2.3C201.101,394.311,201.098,396.611,202.581,396.611        L202.581,396.611z"/>
					</g>
					<g>
						<polygon style="fill:#FBEEE5;" points="227.012,234.324 229.113,200.001 230.748,234.557 239.387,227.552 234.25,235.724         252.696,238.059 234.717,240.394 239.854,247.632 231.215,242.963 228.88,272.849 227.012,243.43 218.139,247.166         223.743,240.394 201.328,237.359 223.509,236.425 218.372,228.72       "/>
						<polygon style="fill:#FBEEE5;" points="305.968,356.283 308.07,321.961 309.704,356.517 318.343,349.512 313.206,357.684         331.652,360.019 313.673,362.354 318.81,369.592 310.171,364.923 307.836,394.809 305.968,365.39 297.095,369.126         302.699,362.354 280.284,359.319 302.466,358.385 297.329,350.68       "/>
						<path style="fill:#FBEEE5;" d="M224.578,377.287c-0.669-2.985-2.187-5.776-4.331-7.959c-1.033-1.052-2.342-2.013-3.756-2.429        c4.117-3.138,6.999-7.855,7.912-12.951c0.487,4.772,3.804,9.98,8.247,11.787C228.366,368.7,227.218,371.96,224.578,377.287z"/>
						<path style="fill:#FBEEE5;" d="M302.334,260.535c-0.669-2.985-2.187-5.776-4.331-7.959c-1.033-1.052-2.342-2.013-3.756-2.429        c4.118-3.138,6.999-7.855,7.912-12.951c0.487,4.772,3.804,9.98,8.247,11.787C306.123,251.948,304.974,255.208,302.334,260.535        z"/>
						<g>
							<path style="fill:#FFFFFF;" d="M227.951,312.987c5.92,0,5.93-9.201,0-9.201C222.031,303.786,222.021,312.987,227.951,312.987         L227.951,312.987z"/>
						</g>
						<g>
							<path style="fill:#FFFFFF;" d="M284.017,391.292c5.92,0,5.93-9.201,0-9.201C278.097,382.091,278.087,391.292,284.017,391.292         L284.017,391.292z"/>
						</g>
						<g>
							<path style="fill:#FFFFFF;" d="M204.147,259.109c1.48,0,1.482-2.3,0-2.3C202.667,256.809,202.664,259.109,204.147,259.109         L204.147,259.109z"/>
						</g>
						<g>
							<path style="fill:#FFFFFF;" d="M258.96,231.859c1.48,0,1.482-2.3,0-2.3C257.48,229.559,257.477,231.859,258.96,231.859         L258.96,231.859z"/>
						</g>
						<g>
							<path style="fill:#FFFFFF;" d="M258.647,198.658c1.48,0,1.482-2.3,0-2.3C257.167,196.358,257.164,198.658,258.647,198.658         L258.647,198.658z"/>
						</g>
						<g>
							<path style="fill:#FFFFFF;" d="M326.928,255.977c0.065,0,0.129,0,0.194,0c1.48,0,1.482-2.3,0-2.3c-0.065,0-0.129,0-0.194,0         C325.448,253.676,325.446,255.977,326.928,255.977c0.065,0,0.129,0,0.194,0c1.48,0,1.482-2.3,0-2.3c-0.065,0-0.129,0-0.194,0         C325.448,253.676,325.446,255.977,326.928,255.977L326.928,255.977z"/>
						</g>
						<g>
							<path style="fill:#FFFFFF;" d="M192.558,317.054c1.48,0,1.482-2.3,0-2.3C191.078,314.754,191.075,317.054,192.558,317.054         L192.558,317.054z"/>
						</g>
						<g>
							<path style="fill:#FFFFFF;" d="M320.977,307.031c1.48,0,1.483-2.3,0-2.3C319.497,304.731,319.495,307.031,320.977,307.031         L320.977,307.031z"/>
						</g>
						<g>
							<path style="fill:#FFFFFF;" d="M341.023,369.988c1.48,0,1.483-2.3,0-2.3C339.543,367.688,339.54,369.988,341.023,369.988         L341.023,369.988z"/>
						</g>
						<g>
							<path style="fill:#FFFFFF;" d="M194.437,363.097c1.48,0,1.482-2.3,0-2.3C192.957,360.797,192.955,363.097,194.437,363.097         L194.437,363.097z"/>
						</g>
						<g>
							<path style="fill:#FFFFFF;" d="M279.006,357.772c1.48,0,1.482-2.3,0-2.3C277.526,355.472,277.523,357.772,279.006,357.772         L279.006,357.772z"/>
						</g>
						<g>
							<path style="fill:#FFFFFF;" d="M338.307,372.596c0,0.104,0,0.209,0,0.313c-0.006,0.158,0.027,0.306,0.099,0.443         c0.046,0.143,0.126,0.266,0.238,0.37c0.104,0.112,0.228,0.191,0.37,0.238c0.137,0.072,0.285,0.105,0.443,0.099         c0.102-0.014,0.204-0.027,0.306-0.041c0.195-0.055,0.364-0.153,0.507-0.296c0.06-0.078,0.12-0.155,0.18-0.233         c0.104-0.179,0.156-0.373,0.157-0.58c0-0.104,0-0.209,0-0.313c0.006-0.158-0.027-0.306-0.099-0.443         c-0.046-0.143-0.126-0.266-0.238-0.37c-0.104-0.112-0.227-0.191-0.37-0.238c-0.137-0.072-0.285-0.105-0.443-0.099         c-0.102,0.014-0.204,0.027-0.306,0.041c-0.195,0.055-0.364,0.153-0.508,0.296c-0.06,0.078-0.12,0.155-0.18,0.233         C338.36,372.195,338.307,372.389,338.307,372.596L338.307,372.596z"/>
						</g>
					</g>
				</g>
			</g>
			<g>
				<g>
					<path style="fill:#FF9393;" d="M17.469,309.013c0,0,51.994-9.396,67.029-25.684c15.034-16.287,20.359-41.971,29.756-51.368       c9.396-9.396,47.296-40.092,47.296-40.092l52.621-14.408c0,0,8.144,8.144-8.144,20.046       c-16.287,11.902-28.816,18.167-28.816,18.167l-24.431,20.046l74.076-24.274c0,0,3.602,17.383-5.795,25.527       c-9.396,8.144-51.368,23.805-51.368,23.805l-26.31,18.793l55.126-11.276l46.983-2.506c0,0-3.132,18.793-16.914,25.684       s-31.948,8.77-31.948,8.77l-53.874,16.914c0,0-5.011,5.011,1.253,13.155l2.506,4.385l72.04-10.649       c0,0,12.529,9.397-8.144,21.925c-20.672,12.529-55.126,21.925-67.029,30.069c-11.902,8.144-77.051,36.96-77.051,36.96       S-0.698,366.645,17.469,309.013z"/>
					<g>
						<path style="fill:#2F2444;" d="M203.583,326.483c0,0-7.307,2.679-3.276,8.708c4.031,6.029,26-2.921,29.053-13.492        L203.583,326.483z"/>
						<path style="fill:#2F2444;" d="M130.854,381.123c-0.278,0-0.541-0.169-0.648-0.444c-0.14-0.357,0.038-0.761,0.396-0.9        c0.056-0.021,5.781-2.261,19.065-8.439c3.72-1.729,10.195-4.516,17.694-7.74c19.79-8.512,46.893-20.168,51.341-24.395        c5.162-4.904,1.166-11.639,0.137-13.178c-4.008,0.322-37.282,3.078-56.519,7.159c-20.676,4.386-27.729,1.026-28.02,0.881        c-0.344-0.172-0.482-0.59-0.311-0.934c0.171-0.341,0.586-0.482,0.93-0.312c0.073,0.035,7.049,3.259,27.111-0.996        c20.479-4.345,56.732-7.188,57.097-7.217c0.235-0.02,0.471,0.087,0.613,0.279c0.065,0.09,6.553,9.024-0.08,15.326        c-4.629,4.397-31.864,16.111-51.75,24.664c-7.489,3.221-13.956,6.002-17.658,7.724c-13.333,6.202-19.091,8.452-19.147,8.475        C131.022,381.107,130.937,381.123,130.854,381.123z"/>
					</g>
					<path style="fill:#2F2444;" d="M143.714,280.266c-0.215,0.001-0.427-0.099-0.562-0.285c-0.227-0.311-0.159-0.746,0.151-0.972       c0.881-0.644,21.633-15.783,26.668-18.907c1.812-1.125,7.306-3.298,14.261-6.049c12.806-5.065,30.345-12.003,36.053-16.859       c7.457-6.345,6.783-22.023,6.492-25.894c-7.554,2.622-63.202,21.925-71.14,24.26c-8.399,2.471-39.193,18.045-39.503,18.202       c-0.343,0.173-0.762,0.036-0.936-0.307c-0.173-0.343-0.036-0.762,0.307-0.936c1.271-0.644,31.218-15.789,39.739-18.295       c8.443-2.483,71.285-24.312,71.919-24.532c0.199-0.068,0.421-0.044,0.6,0.068c0.179,0.113,0.297,0.301,0.32,0.512       c0.093,0.824,2.156,20.278-6.896,27.981c-5.884,5.005-23.547,11.992-36.443,17.093c-6.617,2.617-12.332,4.878-14.038,5.937       c-4.991,3.098-26.366,18.692-26.582,18.849C143.999,280.223,143.855,280.266,143.714,280.266z"/>
					<path style="fill:#2F2444;" d="M135.865,320.359c-0.307,0-0.587-0.204-0.671-0.513c-0.102-0.371,0.117-0.754,0.487-0.854       c3.388-0.925,58.294-19.225,58.849-19.409c0.043-0.015,0.087-0.024,0.132-0.03c0.146-0.019,14.838-1.943,31.164-8.104       c14.103-5.321,18.062-21.096,18.825-24.917c-5.971,0.321-40.426,2.174-46.107,2.459c-6.132,0.307-70.02,15.18-70.664,15.33       c-0.373,0.091-0.748-0.145-0.836-0.52c-0.087-0.375,0.146-0.749,0.52-0.836c2.638-0.614,64.655-15.052,70.91-15.365       c6.192-0.31,46.573-2.483,46.98-2.505c0.192-0.02,0.41,0.071,0.55,0.224c0.141,0.153,0.205,0.361,0.177,0.567       c-0.029,0.205-3.07,20.528-19.862,26.865c-15.909,6.003-30.29,8.022-31.411,8.173c-3.037,1.013-55.461,18.483-58.858,19.41       C135.987,320.351,135.926,320.359,135.865,320.359z"/>
					<path style="fill:#2F2444;" d="M193.889,221.391c3.758,4.228,10.53,7.37,15.711,6.373c11.15-2.144,22.815-6.608,25.399-22.113       C220.591,211.788,209.393,215.988,193.889,221.391z"/>
					<path style="fill:#2F2444;" d="M182.613,185.332c3.601,4.051,10.089,7.061,15.052,6.106       c10.683-2.055,21.859-6.331,24.335-21.186C208.196,176.132,197.468,180.156,182.613,185.332z"/>
				</g>
				<path style="fill:#2F2444;" d="M216.441,267.434c0,0-9.162,1.409-5.873,9.397c3.289,7.987,41.658,1.253,43.537-12.607      L216.441,267.434z"/>
			</g>
			<g>
				<g>
					<path style="fill:#FF9393;" d="M496.075,304.002c0,0-51.994-9.396-67.029-25.684c-15.034-16.287-20.359-41.971-29.756-51.368       c-9.397-9.396-47.296-40.092-47.296-40.092l-52.621-14.408c0,0-8.144,8.144,8.144,20.046       c16.287,11.902,28.816,18.167,28.816,18.167l24.431,20.046l-74.076-24.274c0,0-3.602,17.384,5.795,25.527       c9.396,8.144,51.368,23.805,51.368,23.805l26.31,18.793l-55.126-11.276l-46.983-2.506c0,0,3.132,18.793,16.914,25.684       c13.781,6.891,31.948,8.77,31.948,8.77l53.873,16.914c0,0,5.012,5.012-1.253,13.155l-2.506,4.385l-72.04-10.649       c0,0-13.106,10.357,8.604,20.986c22.072,10.806,54.666,22.865,66.568,31.009c11.902,8.144,77.052,36.96,77.052,36.96       S514.242,361.634,496.075,304.002z"/>
					<g>
						<path style="fill:#2F2444;" d="M309.961,321.471c0,0,7.307,2.679,3.276,8.708c-4.031,6.029-25.999-2.921-29.053-13.492        L309.961,321.471z"/>
						<path style="fill:#2F2444;" d="M382.69,376.111c-0.084,0-0.169-0.016-0.252-0.048c-0.057-0.022-5.813-2.272-19.147-8.474        c-3.705-1.723-10.179-4.508-17.676-7.732c-19.879-8.55-47.104-20.26-51.731-24.655c-6.634-6.303-0.146-15.237-0.079-15.327        c0.142-0.191,0.377-0.308,0.612-0.279c0.364,0.028,36.616,2.873,57.097,7.217c20.201,4.284,27.041,1.031,27.106,0.998        c0.347-0.172,0.762-0.032,0.934,0.311c0.172,0.344,0.033,0.762-0.311,0.934c-0.291,0.146-7.344,3.505-28.019-0.881        c-19.237-4.08-52.511-6.837-56.519-7.159c-1.029,1.539-5.026,8.273,0.137,13.178c4.447,4.226,31.54,15.878,51.322,24.387        c7.507,3.229,13.99,6.018,17.712,7.749c13.285,6.178,19.01,8.417,19.065,8.438c0.358,0.14,0.536,0.543,0.396,0.9        C383.231,375.942,382.969,376.111,382.69,376.111z"/>
					</g>
					<path style="fill:#2F2444;" d="M369.831,275.255c-0.142,0.001-0.285-0.043-0.409-0.134       c-0.216-0.156-21.591-15.752-26.582-18.85c-1.706-1.059-7.421-3.318-14.037-5.936c-12.897-5.102-30.561-12.088-36.445-17.094       c-9.053-7.703-6.989-27.157-6.896-27.981c0.023-0.211,0.142-0.398,0.32-0.512c0.18-0.112,0.4-0.137,0.6-0.068       c0.634,0.22,63.476,22.049,71.92,24.531c8.521,2.507,38.468,17.653,39.738,18.297c0.343,0.174,0.479,0.593,0.307,0.936       c-0.175,0.342-0.593,0.479-0.936,0.307c-0.31-0.157-31.104-15.732-39.502-18.204c-7.938-2.334-63.587-21.637-71.141-24.259       c-0.29,3.871-0.959,19.554,6.492,25.894c5.708,4.857,23.248,11.795,36.055,16.86c6.954,2.75,12.447,4.923,14.26,6.048       c5.035,3.124,25.787,18.265,26.668,18.908c0.311,0.227,0.378,0.661,0.151,0.972       C370.258,275.156,370.046,275.255,369.831,275.255z"/>
					<path style="fill:#2F2444;" d="M377.679,315.348c-0.061,0-0.122-0.009-0.183-0.025c-3.398-0.926-55.822-18.397-58.859-19.41       c-1.121-0.15-15.501-2.17-31.41-8.173c-16.792-6.337-19.834-26.66-19.863-26.865c-0.028-0.206,0.036-0.414,0.177-0.567       s0.338-0.232,0.55-0.224c0.407,0.021,40.789,2.196,46.979,2.505c6.256,0.313,68.273,14.751,70.911,15.365       c0.374,0.087,0.606,0.461,0.52,0.836c-0.088,0.373-0.464,0.604-0.836,0.52c-0.645-0.15-64.532-15.023-70.664-15.33       c-5.681-0.284-40.137-2.138-46.107-2.459c0.764,3.821,4.724,19.596,18.826,24.917c16.326,6.161,31.017,8.086,31.163,8.104       c0.045,0.006,0.089,0.016,0.132,0.03c0.555,0.185,55.461,18.485,58.848,19.409c0.371,0.101,0.59,0.483,0.488,0.854       C378.266,315.144,377.985,315.348,377.679,315.348z"/>
					<path style="fill:#2F2444;" d="M319.655,216.379c-3.758,4.228-10.53,7.37-15.711,6.373       c-11.15-2.145-22.815-6.608-25.399-22.113C292.954,206.777,304.151,210.976,319.655,216.379z"/>
					<path style="fill:#2F2444;" d="M330.931,180.321c-3.601,4.051-10.089,7.061-15.052,6.106       c-10.683-2.055-21.859-6.331-24.335-21.186C305.348,171.121,316.077,175.144,330.931,180.321z"/>
				</g>
				<path style="fill:#2F2444;" d="M297.104,262.422c0,0,9.162,1.409,5.873,9.397c-3.289,7.987-42.607,1.096-44.486-12.764      L297.104,262.422z"/>
			</g>
			<g>
				<g>
					<g>
						<polygon style="fill:#2F2444;" points="335.001,456.853 164.916,456.853 178.349,444.395 179.085,443.696 183.483,439.611         184.477,438.69 207.773,417.069 212.594,412.597 213.588,411.677 214.177,411.125 294.352,411.125 294.849,411.677         295.659,412.597 299.634,417.069 318.863,438.69 319.673,439.611 327.144,448.02 327.843,448.811       "/>
					</g>
					<g>
						<polygon style="fill:#2F2444;" points="307.509,417.069 199.768,417.069 201.829,412.597 202.253,411.677 202.657,410.812         303.645,410.812 304.179,411.677 304.749,412.597       "/>
					</g>
				</g>
				<g>
					<path style="fill:#FBEEE5;" d="M235.651,456.853h-0.975c-1.362-4.048-3.018-7.692-6.128-9.863       c-3.919-2.723-9.918-2.466-14.28,0.626c-2.963,2.098-5.263,5.3-6.625,9.237h-1.748c0.055-2.576-0.166-5.208-1.159-7.6       c-1.325-3.202-4.766-6.257-8.483-5.557c-1.656,0.313-3.275,1.325-5.079,3.202c-2.723,2.834-4.803,6.238-6.036,9.955h-1.288       c0.055-2.539-0.018-5.3-0.994-7.747c-0.754-1.914-2.392-3.938-4.508-4.711l0.736-0.699c2.171,0.957,3.828,2.999,4.637,5.06       c0.81,2.043,1.031,4.269,1.049,6.404c1.325-3.312,3.275-6.349,5.741-8.906c1.951-2.006,3.717-3.11,5.576-3.46       c4.196-0.773,8.023,2.558,9.495,6.091c0.994,2.392,1.251,4.987,1.251,7.508c1.435-4.048,3.809-7.361,6.901-9.532       c4.748-3.349,11.041-3.607,15.328-0.626C232.486,448.609,234.235,452.547,235.651,456.853z"/>
					<path style="fill:#FBEEE5;" d="M268.793,456.853h-0.975c-1.104-2.613-2.484-5.208-4.306-7.453       c-3.257-3.956-7.692-6.22-11.887-6.036c-6.974,0.276-11.961,6.809-14.592,13.488h-0.975       c2.705-7.066,8.005-14.095,15.531-14.408c4.49-0.202,9.201,2.19,12.623,6.367C266.198,451.24,267.633,454.056,268.793,456.853z       "/>
					<path style="fill:#FBEEE5;" d="M299.836,456.853h-1.049c-1.987-3.625-4.195-6.293-6.753-8.225       c-4.361-3.312-10.102-4.159-14.243-2.098c-3.956,1.951-6.128,6.073-6.882,10.323h-0.938c0.773-4.564,3.11-9.035,7.416-11.151       c4.527-2.227,10.489-1.38,15.218,2.19C295.364,449.989,297.72,452.878,299.836,456.853z"/>
					<path style="fill:#FBEEE5;" d="M326.187,456.853h-1.104c-2.392-3.883-5.649-7.213-9.495-9.734       c-3.055-2.024-5.668-2.76-7.968-2.227c-2.687,0.607-4.987,3.165-5.833,6.496c-0.46,1.785-0.515,3.625-0.423,5.465h-0.92       c-0.092-1.895-0.018-3.827,0.442-5.704c0.939-3.662,3.496-6.477,6.533-7.158c2.558-0.589,5.392,0.184,8.686,2.355       C320.225,449.051,323.648,452.639,326.187,456.853z"/>
					<path style="fill:#FBEEE5;" d="M327.126,456.853h-0.92c-0.331-2.963,0.018-5.999,0.939-8.833l0.699,0.791       C327.089,451.424,326.831,454.166,327.126,456.853z"/>
				</g>
				<g>
					<polygon style="fill:#FBEEE5;" points="319.673,439.611 183.483,439.611 184.477,438.69 318.863,438.69      "/>
				</g>
				<g>
					<polygon style="fill:#FBEEE5;" points="304.749,412.597 201.829,412.597 202.253,411.677 304.179,411.677      "/>
				</g>
				<g>
					<g>
						<path style="fill:#FBEEE5;" d="M217.158,422.074l-6.293,6.293l6.293,6.293l6.293-6.293L217.158,422.074z M212.171,428.367        l4.987-5.005l5.005,5.005l-5.005,4.987L212.171,428.367z"/>
					</g>
					<g>
						<path style="fill:#FBEEE5;" d="M234.142,422.074l-6.293,6.293l6.293,6.293l6.293-6.293L234.142,422.074z M229.137,428.367        l5.005-5.005l5.005,5.005l-5.005,4.987L229.137,428.367z"/>
					</g>
					<g>
						<path style="fill:#FBEEE5;" d="M251.127,422.074l-6.293,6.293l6.293,6.293l6.293-6.293L251.127,422.074z M246.122,428.367        l5.005-5.005l4.987,5.005l-4.987,4.987L246.122,428.367z"/>
					</g>
					<g>
						<path style="fill:#FBEEE5;" d="M268.112,422.074l-6.312,6.293l6.312,6.293l6.293-6.293L268.112,422.074z M263.107,428.367        l5.005-5.005l4.987,5.005l-4.987,4.987L263.107,428.367z"/>
					</g>
					<g>
						<path style="fill:#FBEEE5;" d="M285.096,422.074l-6.312,6.293l6.312,6.293l6.293-6.293L285.096,422.074z M280.091,428.367        l5.005-5.005l4.987,5.005l-4.987,4.987L280.091,428.367z"/>
					</g>
				</g>
			</g>
		</g>
	</g>
</g>















</svg>
