<?xml version="1.0" encoding="iso-8859-1"?>
<!-- Generator: Adobe Illustrator 26.5.3, SVG Export Plug-In . SVG Version: 6.00 Build 0)  -->
<svg xmlns="http://www.w3.org/2000/svg" xmlns:xlink="http://www.w3.org/1999/xlink" version="1.1" id="Capa_1" x="0px" y="0px" viewBox="0 0 512 512" style="enable-background:new 0 0 512 512;" xml:space="preserve">
<g>
	<g>
		<path d="M230.186,296.48c-0.978,0.68-1.913,1.311-2.827,1.969c-4.014,2.89-8.447,4.761-13.374,5.293    c-1.404,0.152-1.758,0.782-1.933,2.059c-1.249,9.129-2.491,18.257-5.13,27.134c-1.894,6.371-4.254,12.543-7.246,18.467    c-1.24,2.455-2.973,4.571-5.113,6.333c-4.93,4.057-10.591,3.475-14.856-1.343c-3.614-4.083-4.969-9.007-5.831-14.184    c-0.584-3.504-0.315-7.047-0.47-11.143c-1.204,2.174-2.11,3.89-3.09,5.563c-2.361,4.032-5.258,7.65-8.634,10.876    c-8.835,8.442-21.956,5.784-26.637-5.469c-3.626-8.715-3.138-17.647-0.789-26.541c2.061-7.805,5.34-15.09,10.686-21.233    c4.724-5.427,10.448-9.203,17.958-9.405c7.355-0.198,12.473,3.267,15.729,9.723c0.21,0.416,0.421,0.831,0.755,1.488    c0.812-1.301,1.477-2.831,2.938-2.723c2.613,0.193,5.391-0.453,7.802,1.084c1.82,1.16,1.851,2.998,1.756,4.913    c-0.319,6.44-2.042,12.663-2.887,19.018c-1.096,8.251-2.169,16.511-2.22,24.854c-0.017,2.812,0.39,5.589,1.38,8.24    c1.193,3.197,3.544,3.595,5.617,0.894c1.882-2.452,3.206-5.228,4.262-8.133c4.547-12.5,7.668-25.339,9.288-38.547    c0.161-1.314-0.228-1.821-1.47-2.135c-10.721-2.71-16.388-11.532-14.487-22.421c0.601-3.442,1.451-6.812,2.723-10.068    c1.52-3.89,3.361-5.021,7.501-4.626c1.834,0.175,3.679,0.305,5.491,0.617c4.454,0.764,5.307,1.901,4.82,6.354    c-0.476,4.351-0.498,8.712-0.594,13.082c-0.175,7.924,6.004,9.936,11.395,7.835c3.431-1.338,6.441-3.338,9.009-5.918    c2.125-2.135,4.352-2.574,7.049-1.347c3.436,1.563,6.558,3.657,9.697,5.709c1.493,0.976,2.026,2.449,1.512,4.298    c-1.956,7.037-4.144,14.015-5.679,21.161c-2.236,10.414-4.507,20.828-4.267,31.581c0.049,2.201,0.341,4.353,1.115,6.424    c1.672,4.478,5.715,6.001,9.939,3.722c2.196-1.185,3.987-2.847,5.536-4.796c4.982-6.271,8.165-13.537,11.501-20.72    c0.352-0.757,0.432-1.572,0.429-2.401c-0.051-15.548,2.031-30.896,4.331-46.224c0.314-2.092,0.54-4.197,0.883-6.284    c0.199-1.213-0.153-1.901-1.368-2.314c-14.575-4.947-28.319-11.888-42.509-17.762c-11.713-4.85-23.747-7.605-36.502-6.851    c-10.232,0.605-18.846,4.176-24.854,12.872c-0.581,0.841-1.253,1.62-1.892,2.421c-1.34,1.682-3.037,2.238-5.101,1.582    c-0.976-0.31-1.948-0.633-2.918-0.961c-3.475-1.176-4.562-3.617-3.184-7.056c2.039-5.088,5.933-8.492,10.526-11.056    c7.202-4.019,15.189-5.243,23.282-5.638c15.695-0.765,30.428,3.283,44.725,9.327c12.515,5.29,24.652,11.44,37.309,16.406    c0.127,0.05,0.25,0.11,0.377,0.16c3.077,1.223,3.092,1.225,3.664-2.018c0.735-4.17,1.559-8.32,2.607-12.425    c1.111-4.35,2.334-5.312,6.897-5.324c1.501-0.004,2.999-0.011,4.492,0.26c2.942,0.533,4.013,1.665,3.981,4.702    c-0.043,4.038-0.867,7.998-1.412,11.984c-0.203,1.487-0.484,2.964-0.672,4.453c-0.248,1.964,0.102,2.334,2.097,1.849    c5.886-1.432,10.614-4.345,12.638-10.449c0.655-1.975,1.924-3.061,3.975-3.312c3.993-0.488,6.029,1.217,5.948,5.225    c-0.13,6.508-3.862,10.592-9.399,13.246c-4.469,2.142-9.296,2.737-14.191,2.46c-2.037-0.115-2.75,0.625-3.014,2.549    c-1.793,13.048-3.201,26.133-4.234,39.265c-0.546,6.942-0.965,13.886-1.074,20.844c-0.036,2.304,0.213,4.646,0.632,6.915    c0.519,2.812,1.536,5.786,4.623,6.413c3.087,0.628,5.039-1.802,6.818-4.063c5.165-6.565,7.911-14.274,10.647-22.015    c0.92-2.603,1.359-5.139,1.364-7.938c0.027-15.697,3.61-30.718,9.176-45.31c4.032-10.57,8.989-20.668,15.795-29.763    c3.295-4.403,7.079-8.331,12.036-10.919c8.191-4.276,15.863-0.469,17.476,8.648c0.889,5.025,0.118,9.953-1.043,14.816    c-3.542,14.835-10.775,27.804-20.295,39.579c-4.218,5.216-8.838,10.047-14.168,14.158c-0.672,0.518-1.155,1.112-1.298,1.995    c-1.567,9.639-1.885,19.278-0.052,28.921c0.115,0.603,0.278,1.196,0.434,1.79c2.588,9.868,10.213,10.475,16.959,6.455    c6.771-4.035,11.891-9.769,15.66-16.686c3.627-6.656,7.192-13.344,10.477-20.178c0.535-1.112,0.99-2.23,0.995-3.51    c0.039-10.84,2.024-21.449,3.843-32.077c0.565-3.299,1.218-6.583,2.193-9.788c0.909-2.988,2.542-4.289,5.609-4.514    c2.041-0.15,4.086-0.314,6.131-0.341c3.722-0.049,5.902,2.315,5.335,6.026c-0.763,4.992-1.823,9.939-2.644,14.923    c-2.064,12.534-3.774,25.106-3.484,37.858c0.063,2.757,0.569,5.43,1.754,7.94c1.812,3.839,5.302,4.784,8.777,2.37    c3.643-2.53,5.986-6.137,8.025-9.951c1.609-3.01,3.057-6.105,4.597-9.152c0.911-1.803,1.268-3.676,1.264-5.717    c-0.022-11.198-0.303-22.383-1.159-33.551c-0.141-1.832-0.149-3.695,0.008-5.525c0.221-2.574,1.741-3.928,4.324-4.006    c3.208-0.097,6.418-0.149,9.627-0.155c2.632-0.005,3.704,0.835,4.285,3.45c1.143,5.146,1.602,10.385,1.931,15.633    c1.178,18.801,0.238,37.525-2.194,56.182c-0.251,1.922,0.242,2.423,2.095,2.234c7.918-0.805,15.815-0.714,23.648,0.883    c6.631,1.352,12.485,3.962,16.265,9.982c1.652,2.631,1.515,4.508-0.888,6.462c-4.344,3.533-8.752,6.993-13.391,10.136    c-2.631,1.783-4.677,1.46-6.543-1.115c-4.863-6.709-11.72-9.565-19.675-10.24c-4.553-0.386-4.455-0.26-5.615,4.195    c-4.073,15.645-9.69,30.626-19.851,43.468c-6.914,8.737-14.889,16.256-25.923,19.512c-8.653,2.553-17.269,2.974-25.284-2.133    c-5.311-3.384-8.055-8.723-9.66-14.518c-2.572-9.285-0.035-17.582,5.559-25.226c10.187-13.918,24.178-22.67,39.583-29.549    c6.053-2.703,12.268-4.998,18.597-6.968c1.215-0.378,2.06-0.877,2.165-2.314c0.516-7.075,1.089-14.146,1.634-21.219    c0.025-0.323-0.024-0.652-0.058-1.408c-1.804,2.929-3.36,5.535-4.996,8.089c-1.735,2.709-3.675,5.277-6.142,7.367    c-7.086,6.004-16.119,5.179-22.124-1.954c-2.996-3.559-5.175-7.526-6.214-12.087c-0.118-0.518-0.304-1.021-0.466-1.559    c-0.922,0.197-0.955,0.998-1.276,1.532c-4.531,7.545-8.464,15.475-13.923,22.425c-3.387,4.313-7.333,8.076-12.341,10.589    c-10.167,5.1-19.911,2.928-27.032-5.988c-3.271-4.095-5.28-8.736-6.564-13.751c-0.168-0.655-0.317-1.315-0.611-2.539    c-0.972,2.477-1.762,4.461-2.53,6.453c-2.075,5.382-4.632,10.461-8.495,14.847c-8.391,9.529-19.084,6.501-24.857-2.02    c-2.069-3.054-3.115-6.508-3.694-10.12c-0.158-0.984-0.336-1.965-0.58-3.38c-1.404,2.616-2.565,4.828-3.77,7.016    c-3.471,6.299-7.724,11.931-13.934,15.8c-5.394,3.361-11.069,4.445-16.858,1.153c-4.715-2.682-8.111-6.62-9.886-11.845    c-3.217-9.472-3.393-19.131-1.94-28.927c1.389-9.361,3.935-18.416,6.922-27.366c0.194-0.582,0.389-1.165,0.559-1.754    C230.342,296.922,230.258,296.781,230.186,296.48z M366.445,420.549c1.928,0.001,3.809-0.273,5.637-0.883    c7.731-2.583,13.73-7.611,18.513-13.961c9.221-12.241,13.229-26.626,16.246-41.357c0.251-1.226-0.243-1.483-1.32-1.204    c-1.254,0.325-2.525,0.587-3.771,0.941c-17.016,4.831-32.142,12.798-43.781,26.501c-3.974,4.678-6.251,10.1-6.332,16.261    c-0.032,2.4-0.046,4.935,1.62,7.039C356.632,418.15,360.919,420.564,366.445,420.549z M147.719,331.977    c0.042,2.63,0.184,5.232,1.037,7.704c1.398,4.053,5.167,5.424,8.896,3.326c1.864-1.049,3.452-2.423,4.822-4.071    c6.839-8.225,10.123-17.982,12.153-28.265c0.794-4.024,1.369-8.076,0.447-12.175c-0.532-2.367-1.97-3.866-4.314-4.421    c-2.568-0.609-5.019-0.3-7.161,1.342c-2.669,2.046-5.051,4.402-6.954,7.179C150.576,311.451,148.588,321.549,147.719,331.977z     M327.717,306.337c2.922-2.256,5.264-4.81,7.525-7.447c9.322-10.873,16.153-23.108,20.09-36.899    c1.219-4.27,2.029-8.636,1.83-13.12c-0.088-1.974-0.874-2.422-2.624-1.494c-0.535,0.284-1.019,0.681-1.485,1.075    c-3.084,2.604-5.102,6.023-7.073,9.45c-6.878,11.966-11.376,24.907-15.381,38.037C329.549,299.379,328.673,302.87,327.717,306.337    z"/>
		<path d="M97.259,199.598c16.025-0.087,26.3,3.263,34.768,11.085c7.68,7.094,11.943,16.234,14.052,26.332    c3.842,18.389-1.374,34.354-13.886,47.959c-6.588,7.163-15.086,11.372-24.546,13.617c-2.799,0.664-2.798,0.697-2.37,3.547    c2.331,15.525,4.07,31.12,5.749,46.726c0.875,8.137,2.218,16.223,3.368,24.33c0.174,1.226,0.289,2.438,0.043,3.663    c-0.331,1.645-1.305,2.661-2.946,3.027c-0.266,0.059-0.535,0.112-0.805,0.15c-7.721,1.091-8.696,0.397-10.408-7.327    c-4.865-21.945-8.424-44.107-11.32-66.394c-1.636-12.588-3.896-25.093-5.743-37.655c-1.419-9.654-2.657-19.335-3.922-29.011    c-0.466-3.561,0.563-5.321,3.885-6.803c1.428-0.638,2.917-1.172,4.424-1.594c3.925-1.1,5.965,0.173,6.884,4.129    c1.811,7.797,2.688,15.738,3.673,23.663c1.347,10.847,3.727,21.522,5.405,32.314c0.147,0.944,0.595,1.315,1.554,1.014    c6.475-2.036,12.881-4.188,17.716-9.342c5.409-5.765,8.625-12.612,9.635-20.396c1.275-9.825-0.121-19.466-3.938-28.503    c-5.413-12.816-14.348-22.103-28.681-24.607c-9.802-1.712-18.75,0.776-27.019,6.314c-12.569,8.417-18.494,20.343-19.409,35.16    c-0.685,11.091,0.595,21.971,3.692,32.58c1.877,6.429,4.854,12.454,8.712,17.995c2.335,3.354,2.063,5.183-1.042,7.917    c-1.023,0.901-2.032,1.82-3.006,2.773c-2.18,2.132-4.284,2.336-6.774,0.511c-2.831-2.074-4.684-4.935-6.174-8.043    c-5.027-10.486-7.569-21.566-8.21-33.166c-1.029-18.601,3.894-35.398,15.785-49.71C68.102,207.774,83.349,200.21,97.259,199.598z"/>
	</g>
	<g>
		<path d="M221.233,421.849c0-7.645,0.014-15.29-0.01-22.936c-0.006-1.874,0.848-3.111,2.677-3.249    c2.512-0.19,5.045-0.13,7.568-0.108c1.069,0.01,1.742,0.65,2.059,1.687c0.382,1.248,0.614,2.517,0.698,3.818    c0.742,11.543,0.031,23.036-1.041,34.53c-0.762,8.17-1.779,16.286-3.865,24.234c-0.955,3.638-2.19,7.171-4.328,10.329    c-6.226,9.195-17.548,10.58-25.966,3.275c-4.787-4.154-6.816-9.667-7.838-15.589c-1.975-11.45-1.42-22.976-0.606-34.499    c0.525-7.423,1.153-14.831,2.149-22.206c0.046-0.338,0.062-0.681,0.112-1.018c0.644-4.32,1.189-4.862,5.495-5.352    c1.693-0.193,3.392-0.43,5.091-0.457c1.978-0.031,2.867,0.863,2.647,2.755c-1.056,9.09-1.708,18.219-1.925,27.353    c-0.31,13.016-1.268,26.074,1.04,39.024c0.575,3.222,1.785,6.178,4.551,8.214c2.61,1.921,4.39,1.708,6.297-0.869    c1.823-2.463,2.646-5.371,3.294-8.313c1.385-6.294,1.816-12.709,2.002-19.116c0.208-7.164,0.048-14.338,0.048-21.508    C221.333,421.85,221.283,421.849,221.233,421.849z"/>
		<path d="M243.558,436.8c0-11.472,0.005-22.943-0.005-34.414c-0.002-1.773,0.004-3.541-0.262-5.311    c-0.56-3.739,1.513-6.375,5.286-6.856c9.416-1.2,20.252,4.268,25.05,12.456c5.272,8.996,7.451,18.824,8.26,29.073    c0.769,9.745-0.583,19.126-5.284,27.761c-5.7,10.47-14.173,17.344-26.315,18.999c-0.801,0.109-1.635,0.086-2.443,0.01    c-3.476-0.327-4.273-1.195-4.275-4.639c-0.007-12.359-0.003-24.719-0.003-37.078C243.565,436.8,243.561,436.8,243.558,436.8z     M272.296,438.085c0.011-8.487-0.538-16.92-2.879-25.131c-1.688-5.922-4.457-11.156-9.967-14.477    c-0.572-0.345-1.11-1.097-1.777-0.799c-0.839,0.374-0.395,1.332-0.471,2.039c-0.051,0.472-0.003,0.955-0.007,1.433    c-0.205,23.004,0.252,46.011-0.314,69.013c-0.014,0.584-0.277,1.337,0.359,1.697c0.658,0.372,1.125-0.287,1.599-0.624    c6.916-4.905,10.968-11.645,12.594-19.888C272.296,446.973,272.301,442.527,272.296,438.085z"/>
		<path d="M182.231,423.145c-0.298,10.303-1.497,20.419-6.541,29.678c-2.175,3.994-4.818,7.642-8.61,10.261    c-6.84,4.724-14.36,3.564-19.641-2.878c-5.152-6.284-7.098-13.757-7.926-21.587c-1.087-10.27,0.172-20.308,3.715-30.011    c2.177-5.962,5.115-11.489,10.303-15.461c7.002-5.36,15.344-4.23,20.789,2.739c4.029,5.156,5.95,11.16,7.045,17.478    C181.923,416.588,182.425,419.836,182.231,423.145z M152.236,437.767c0,1.501-0.01,3.003,0.002,4.504    c0.031,4.041,0.396,8.04,1.599,11.922c0.301,0.972,0.633,1.95,1.087,2.857c2.354,4.703,6.597,4.943,9.469,0.505    c2.262-3.496,3.266-7.486,4.13-11.489c2.008-9.307,2.579-18.769,2.86-28.255c0.176-5.965-0.284-11.863-2.047-17.599    c-0.771-2.506-2.017-4.717-4.823-5.332c-3.077-0.674-4.863,1.31-6.318,3.549c-1.97,3.031-2.779,6.523-3.39,10.016    C153.109,418.141,152.273,427.921,152.236,437.767z"/>
		<path d="M302.855,433.156c3.47-7.907,6.017-15.55,8.936-23.048c1.56-4.007,3.141-8.007,4.771-11.986    c0.953-2.326,2.108-2.915,4.679-2.651c2.13,0.219,4.146,0.837,6.094,1.693c2.45,1.076,3.504,3.32,2.592,5.861    c-1.961,5.462-4.132,10.85-5.997,16.343c-4.701,13.845-10.305,27.337-15.817,40.865c-1.983,4.866-4.142,9.662-6.266,14.47    c-1.009,2.285-2.441,3.01-4.916,2.71c-1.832-0.222-3.65-0.488-5.424-1.028c-3.02-0.92-3.964-2.575-2.922-5.598    c1.223-3.548,2.571-7.055,3.905-10.564c2.328-6.126,4.666-12.249,7.051-18.354c0.452-1.158,0.392-2.108-0.062-3.299    c-2.747-7.208-5.268-14.504-8.049-21.699c-2.509-6.49-4.932-13.023-8.035-19.27c-0.931-1.874-0.52-3.629,0.907-4.284    c1.502-0.689,3.015-0.021,3.845,2.015c2.627,6.449,5.184,12.927,7.706,19.418C298.171,420.717,300.408,426.715,302.855,433.156z"/>
		<path d="M79.271,440.257c-0.297,7.758,0.3,15.692,2.717,23.405c0.941,3.003,2.595,5.569,5.208,7.413    c2.112,1.492,3.336,1.335,5.295-0.349c4.349-3.74,6.35-8.806,7.935-14.07c1.022-3.396,1.758-6.877,2.657-10.31    c0.241-0.919,0.571-1.822,0.939-2.698c0.221-0.526,0.682-0.868,1.308-0.788c0.611,0.078,0.993,0.489,1.126,1.051    c0.124,0.521,0.249,1.097,0.154,1.607c-1.528,8.14-3.272,16.226-7.665,23.416c-2.345,3.837-5.499,6.911-9.936,8.086    c-6.261,1.657-10.874-1.367-14.615-5.973c-4.327-5.329-6.505-11.634-7.688-18.311c-2.702-15.239-2.16-30.299,2.607-45.106    c1.894-5.883,4.91-11.146,9.381-15.423c3.902-3.733,8.386-6.215,14.071-4.413c4.142,1.313,6.702,4.402,8.378,8.202    c3.069,6.958,3.674,14.216,2.115,21.645c-0.207,0.987-0.614,1.959-1.082,2.857c-0.478,0.917-1.198,1.896-2.386,1.482    c-1.308-0.455-0.956-1.694-0.687-2.649c0.994-3.529,1.189-7.121,1.088-10.758c-0.117-4.218-0.795-8.295-2.856-12.038    c-0.456-0.829-1.02-1.624-1.654-2.325c-2.413-2.667-4.381-2.66-6.817,0.059c-1.698,1.896-2.941,4.095-3.959,6.426    c-2.827,6.47-3.839,13.365-4.696,20.282C79.425,427.283,79.185,433.629,79.271,440.257z"/>
		<path d="M113.702,463.32c0.754-20.953,0.154-41.913,0.321-62.87c0.025-3.162,0.967-4.392,4.065-4.783    c2.363-0.299,4.763-0.439,7.144-0.417c2.584,0.025,3.666,1.01,3.745,3.584c0.224,7.292,0.228,14.591,0.438,21.884    c0.457,15.898,0.759,31.798,0.804,47.702c0.001,0.544,0.081,1.088,0.114,1.632c0.096,1.553,0.791,2.269,2.471,2.203    c3.824-0.149,7.637,0.174,11.428,0.682c0.986,0.132,2.287,0.204,2.148,1.631c-0.13,1.331-1.371,1.381-2.397,1.359    c-6.899-0.15-13.777,0.451-20.669,0.532c-1.771,0.021-3.539,0.267-5.309,0.289c-2.637,0.034-3.781-1.039-3.965-3.611    C113.805,469.87,113.583,466.601,113.702,463.32z"/>
	</g>
	<g>
		<path d="M391.237,486.24c-0.063,3.2-3.331,7.177-5.959,7.668c-2.262,0.423-3.609-0.99-4.683-2.633    c-2.687-4.114-5.258-8.304-7.932-12.427c-6.797-10.48-13.626-20.94-20.443-31.407c-0.112-0.172-0.238-0.333-0.355-0.501    c-1.553-2.221-1.705-4.127-0.197-5.088c1.855-1.182,3.218,0.069,4.457,1.301c5.039,5.012,9.576,10.473,14.188,15.868    c6.342,7.42,12.638,14.876,18.59,22.617C390.076,483.163,391.236,484.687,391.237,486.24z"/>
		<path d="M350.337,505.056c0.126,2.73-0.869,4.849-3.253,6.203c-2.706,1.537-4.937,0.652-5.568-2.363    c-0.558-2.664-0.874-5.389-1.145-8.102c-1.39-13.917-2.737-27.839-4.076-41.761c-0.098-1.014-0.085-2.05-0.005-3.066    c0.084-1.078,0.486-2.032,1.727-2.229c1.239-0.197,1.906,0.559,2.322,1.581c0.256,0.629,0.428,1.294,0.617,1.949    c4.008,13.876,6.14,28.131,8.532,42.333C349.792,501.415,350.054,503.237,350.337,505.056z"/>
		<path d="M412.612,465.21c-1.37-0.082-2.419-0.571-3.427-1.154c-9.691-5.606-18.731-12.185-27.823-18.683    c-1.235-0.883-2.1-2.1-1.299-3.689c0.783-1.552,2.303-1.749,3.72-1.254c2.957,1.031,5.901,2.139,8.744,3.449    c7.555,3.481,14.859,7.466,22.232,11.31c1.701,0.887,3.269,2.072,2.916,4.232c-0.387,2.366-1.726,4.268-3.852,5.495    C413.43,465.142,412.907,465.143,412.612,465.21z"/>
		<path d="M323.181,472.68c-1.007,6.193-2.107,12.922-3.583,19.586c-0.768,3.463-1.462,6.943-2.23,10.406    c-0.724,3.262-2.18,4.354-4.917,3.776c-3.382-0.714-4.697-2.381-3.926-5.676c1.648-7.043,3.757-13.966,5.927-20.866    c0.941-2.993,1.937-5.97,2.985-8.927c0.86-2.428,1.846-3.105,3.624-2.726C323.277,468.727,323.117,470.476,323.181,472.68z"/>
	</g>
	<g>
		<path d="M113.113,108.389c-15.64,0-31.28,0.001-46.92-0.001c-0.888,0-1.775-0.024-2.663-0.03    c-1.764-0.012-2.586-0.777-2.943-2.639c-1.631-8.509,0.061-16.63,2.96-24.506c3.347-9.093,8.695-16.869,16.901-22.332    c9.117-6.07,19.154-7.623,29.798-5.551c5.659,1.101,11.101,2.903,16.101,5.838c1.339,0.786,2.13,0.215,2.991-0.715    c2.457-2.65,4.83-5.392,7.749-7.567c15.731-11.724,34.852-6.591,42.679,11.424c1.672,3.847,2.77,7.855,3.555,11.95    c0.24,1.254,0.759,1.919,1.993,2.217c2.005,0.485,4.014,0.815,6.081,0.666c2.255-0.163,3.597-1.508,3.828-3.772    c0.26-2.538-0.562-4.85-1.423-7.163c-2.953-7.933-7.401-15.051-12.001-22.091c-1.605-2.456-3.141-4.959-4.648-7.477    c-0.608-1.016-1.098-2.202,0.026-3.168c1.05-0.902,2.212-0.486,3.228,0.173c1.911,1.239,3.406,2.943,4.877,4.644    c5.411,6.256,11.121,12.21,17.517,17.474c1.535,1.264,3.264,2.261,5.064,3.075c3.328,1.506,5.226,0.63,6.141-2.885    c0.919-3.533,1.008-7.172,0.708-10.781c-0.182-2.186-0.119-4.365-0.241-6.544c-0.078-1.394,0.182-2.669,1.792-3.018    c1.562-0.338,2.447,0.652,3.01,1.905c1.415,3.15,3.48,5.867,5.594,8.549c1.611,2.043,3.451,3.876,5.525,5.457    c3.483,2.655,5.479,2.127,7.233-1.951c1.717-3.992,2.43-8.246,3.042-12.505c1.089-7.574,1.569-15.199,1.73-22.848    c0.072-3.41,0.257-6.819,0.423-10.227c0.033-0.676,0.159-1.358,0.333-2.013c0.283-1.061,0.882-1.878,2.077-1.968    c1.232-0.092,2.123,0.477,2.559,1.63c0.337,0.89,0.64,1.804,0.844,2.733c2.536,11.503,6.089,22.673,10.913,33.428    c1.153,2.572,2.733,4.871,4.517,7.046c1.261,1.537,2.618,1.715,4.3,0.679c2.672-1.647,4.035-4.212,5.012-7.019    c2.091-6.01,3.456-12.207,4.524-18.471c0.292-1.713,0.433-3.583,2.747-3.661c1.501-0.05,2.326,1.527,2.348,4.172    c0.048,5.997-0.474,12.032,1.29,17.907c0.61,2.029,1.21,4.06,2.219,5.937c2.284,4.248,5.436,5.21,9.713,2.907    c3.09-1.663,5.789-3.861,8.277-6.32c6.277-6.205,11.813-13.056,17.345-19.91c0.643-0.797,1.293-1.591,1.983-2.346    c0.815-0.891,1.818-1.263,2.942-0.644c1.129,0.622,1.353,1.692,1.012,2.836c-0.409,1.372-0.921,2.714-1.414,4.059    c-2.798,7.634-5.509,15.292-6.656,23.394c-0.337,2.382-0.261,4.752,0.132,7.136c0.587,3.56,2.734,5.716,5.994,6.864    c4.482,1.579,9.016,1.047,13.534,0.133c5.025-1.016,9.904-2.584,14.825-3.99c0.394-0.112,0.781-0.25,1.175-0.357    c1.065-0.291,2.116-0.314,2.639,0.852c0.511,1.139-0.147,1.999-1.046,2.608c-1.411,0.958-2.891,1.813-4.316,2.752    c-5.265,3.468-10.325,7.179-13.93,12.486c-0.8,1.178-1.49,2.462-2.027,3.781c-1.454,3.571-0.414,6.642,2.938,8.556    c4.322,2.468,9.107,3.645,13.916,4.697c8.149,1.782,16.508,2.183,24.699,3.696c0.872,0.161,1.747,0.321,2.604,0.543    c0.903,0.235,1.751,0.653,1.648,1.765c-0.097,1.043-0.882,1.491-1.854,1.579c-1.426,0.128-2.854,0.271-4.284,0.311    c-7.639,0.211-15.285,0.304-22.877,1.292c-3.473,0.452-6.826,1.36-9.955,2.985c-4.387,2.278-4.821,6.381-1.131,9.744    c3.969,3.617,8.476,6.436,13.111,9.064c2.671,1.514,5.439,2.857,8.166,4.273c1.272,0.661,2.572,1.274,3.819,1.98    c1.278,0.723,2.582,1.607,2.196,3.315c-0.41,1.816-2.058,1.873-3.485,1.758c-5.248-0.425-10.501-0.443-15.758-0.382    c-2.835,0.033-5.563,0.611-8.147,1.777c-3.604,1.626-4.582,4.219-2.986,7.804c0.166,0.373,0.362,0.736,0.57,1.088    c2.078,3.519,2.071,3.486,5.988,2.487c11.579-2.953,22.007-0.029,31.729,6.327c1.598,1.045,3.162,2.166,4.609,3.407    c1,0.858,1.447,0.92,1.998-0.403c0.786-1.887,1.719-3.719,2.685-5.523c10.594-19.775,37.637-21.88,51.254-4.039    c4.762,6.24,6.836,13.455,7.91,21.037c0.535,3.78,0.91,7.602,0.794,11.426c-0.059,1.936,0.565,2.272,2.385,1.955    c8.293-1.445,16.667,3.633,18.795,11.251c1.25,4.476,0.245,8.663-1.683,12.694c-0.77,1.609-2.339,2.514-4.017,2.369    c-4.172-0.36-8.316,0.056-12.471,0.067c-25.201,0.066-50.406,0.259-75.604-0.045c-15.363-0.185-30.724-0.081-46.085-0.205    c-2.887-0.023-2.875-0.006-1.626,2.482c0.919,1.83,1.846,3.66,2.682,5.528c0.494,1.104,0.727,2.361-0.54,3.102    c-1.359,0.795-2.295-0.072-3.092-1.133c-2.219-2.949-4.656-5.711-7.184-8.398c-0.799-0.849-1.654-1.334-2.856-1.301    c-5.662,0.158-11.326,0.287-16.99,0.395c-1.381,0.026-1.577,0.636-1.224,1.844c0.439,1.504,0.745,3.049,1.056,4.587    c0.274,1.353,0.203,2.691-1.25,3.331c-1.397,0.615-2.494-0.104-3.419-1.151c-1.415-1.603-2.378-3.497-3.418-5.337    c-2.608-4.615-5.68-8.878-9.881-12.162c-4.573-3.575-6.427-2.777-7.303,2.944c-0.932,6.09,0.024,12.122,0.649,18.154    c0.654,6.311,1.466,12.605,2.173,18.911c0.143,1.279-0.058,2.595-1.46,3.063c-1.578,0.527-2.126-0.75-2.677-1.884    c-2.082-4.28-3.033-8.904-4.085-13.493c-1.55-6.76-3.938-13.202-7.18-19.33c-0.675-1.275-1.458-2.483-2.5-3.481    c-1.729-1.657-3.062-1.516-4.35,0.498c-1.115,1.744-1.665,3.727-2.178,5.717c-1.226,4.76-1.816,9.663-3.25,14.377    c-0.365,1.201-0.689,2.538-2.287,2.431c-1.696-0.113-1.907-1.532-2.036-2.855c-0.609-6.242-0.365-12.561-1.646-18.742    c-0.499-2.407-1.047-4.822-2.421-6.913c-1.549-2.356-3.139-2.543-5.209-0.638c-3.618,3.328-6.091,7.509-8.566,11.682    c-3.692,6.225-7.374,12.456-11.074,18.676c-0.452,0.761-0.95,1.504-1.509,2.189c-0.613,0.751-1.435,1.032-2.386,0.657    c-0.89-0.351-1.177-1.107-1.189-1.973c-0.028-2.078,0.63-4.041,1.141-6.016c2.208-8.53,4.22-17.098,5.174-25.874    c0.169-1.554,0.247-3.14,0.148-4.697c-0.34-5.341-4.882-8.7-10.157-7.601c-2.786,0.581-5.275,1.867-7.667,3.329    c-3.204,1.958-6.357,3.999-9.522,6.02c-1.13,0.721-2.35,1.519-3.51,0.338c-1.171-1.193-0.382-2.439,0.451-3.479    c2.431-3.035,5.339-5.651,7.624-8.826c2.131-2.963,3.992-6.055,4.953-9.587c1.458-5.355-0.574-8.184-6.115-8.491    c-7.444-0.412-14.462,1.592-21.417,3.934c-6.792,2.288-13.605,4.514-20.421,6.73c-0.996,0.324-2.207,0.973-2.999-0.208    c-0.818-1.22,0.132-2.189,0.891-3.065c3.538-4.085,8.115-6.865,12.512-9.857c4.685-3.188,9.529-6.167,13.488-10.29    c1.889-1.968,3.783-3.969,4.635-6.667c0.814-2.579,0.162-4.517-2.058-6.065c-3.157-2.202-6.812-3.15-10.494-3.887    c-4.413-0.883-8.84-1.751-13.371-1.85c-1.433-0.032-2.856-0.373-3.036-2.107c-0.181-1.739,1.13-2.297,2.541-2.665    c4.968-1.296,10.106-1.63,15.116-2.686c2.81-0.592,5.584-1.305,8.092-2.797c3.188-1.895,3.561-3.701,1.257-6.648    c-1.877-2.401-4.371-4.086-6.849-5.8c-3.855-2.667-7.895-4.011-12.773-3.916c-14.815,0.291-29.639,0.106-44.459,0.106    C113.113,108.419,113.113,108.404,113.113,108.389z M197.749,185.692c2.288-0.92,4.442-1.941,6.78-2.497    c8.347-1.984,15.253,3.442,15.382,12.012c0.078,5.228-0.786,10.328-1.791,15.421c-0.472,2.39-0.945,4.78-1.417,7.17    c2.584-3.746,4.815-7.576,7.126-11.357c2.323-3.8,4.858-7.464,8.487-10.154c3.849-2.853,8.006-1.962,10.48,2.111    c1.108,1.824,1.844,3.804,2.428,5.847c0.742,2.594,1.203,5.248,1.589,8.549c1.146-3.346,1.687-6.249,3.294-8.732    c2.361-3.647,6.574-4.232,9.827-1.36c1.727,1.525,2.88,3.465,3.863,5.496c1.413,2.919,2.722,5.889,4.075,8.837    c-0.177-3.91-0.232-7.775-0.112-11.644c0.08-2.569,0.705-5.013,1.865-7.285c1.832-3.587,5.145-4.687,8.789-2.983    c0.924,0.432,1.817,0.947,2.676,1.5c3.087,1.988,5.465,4.712,7.738,7.542c0.27,0.336,0.452,1.016,1.052,0.718    c0.505-0.25,0.309-0.844,0.251-1.305c-0.068-0.541-0.191-1.075-0.274-1.615c-0.481-3.133-0.682-6.251,0.526-9.288    c0.99-2.489,3.249-4.422,5.658-3.822c2.85,0.71,4.617-0.56,6.617-2.004c1.319-0.952,2.8-1.702,4.271-2.411    c1.088-0.524,1.604-1.042,1.563-2.445c-0.167-5.715,3.657-8.871,9.281-7.837c1.071,0.197,2.133,0.471,3.175,0.791    c2.979,0.915,2.971,0.931,3.729-2.032c1.934-7.569,4.982-14.49,11.578-19.225c1.408-1.01,1.462-1.702,0.394-3.049    c-2.121-2.677-3.637-5.746-3.112-9.258c0.718-4.802,4.279-7.154,8.471-8.518c4.108-1.337,8.382-1.826,12.728-1.365    c0.981,0.104,1.983,0.015,2.975,0.015c-1.225-1.086-2.61-1.747-3.934-2.511c-5.497-3.171-11.152-6.137-15.629-10.767    c-4.637-4.796-4.019-10.945,1.346-14.818c1.757-1.268,3.754-1.914,5.774-2.556c3.106-0.987,6.316-1.462,9.778-1.835    c-0.836-0.696-1.615-0.618-2.304-0.773c-5.264-1.186-10.565-2.253-15.396-4.804c-5.767-3.045-7.615-8.626-4.906-14.569    c2.024-4.44,5.002-8.105,8.806-11.138c0.777-0.619,1.754-1.047,2.41-2.289c-1.604,0.353-2.974,0.635-4.334,0.958    c-4.994,1.186-9.979,1.465-14.974-0.017c-5.463-1.621-8.611-5.167-9.476-10.858c-0.662-4.35-0.175-8.583,0.841-12.786    c0.843-3.488,1.827-6.941,2.849-10.791c-0.586,0.455-0.924,0.647-1.172,0.921c-2.933,3.237-5.762,6.574-8.798,9.71    c-3.656,3.777-7.392,7.532-12.391,9.567c-5.697,2.318-10.805,0.419-13.721-4.967c-1.673-3.09-2.694-6.409-3.563-9.79    c-0.12-0.466,0.081-1.118-0.684-1.413c-0.399,1.189-0.747,2.363-1.185,3.501c-1.159,3.014-2.626,5.867-4.893,8.208    c-3.641,3.76-8.479,3.777-12.12,0.035c-0.993-1.021-1.886-2.168-2.667-3.361c-2.785-4.255-4.746-8.909-6.398-13.697    c-1.428-4.139-2.804-8.296-4.309-12.758c-0.474,5.94-0.784,11.525-1.4,17.077c-0.678,6.109-1.535,12.225-4.374,17.804    c-2.634,5.176-7.236,6.344-12.135,3.209c-2.85-1.824-5.206-4.185-7.355-6.768c-0.76-0.914-1.495-1.849-2.241-2.774    c-0.166,0.054-0.332,0.108-0.497,0.162c0,0.858,0.039,1.718-0.007,2.573c-0.159,2.926-0.155,5.882-1.067,8.706    c-1.632,5.056-5.669,6.957-10.64,5.089c-3.499-1.315-6.555-3.347-9.378-5.756c-1.822-1.556-3.622-3.138-5.431-4.708    c-0.014,0.831,0.277,1.356,0.548,1.891c2.561,5.054,5.29,10.052,6.468,15.663c1.623,7.734-3.35,12.892-11.15,11.746    c-2.471-0.363-4.85-1.151-7.925-1.78c2.164,2.553,3.762,4.745,5.044,7.143c2.085,3.9,1.336,7.24-2.199,9.893    c-1.557,1.169-3.335,1.839-5.188,2.359c-5.943,1.667-11.905,1.009-17.871,0.168c-1.483-0.209-2.971-0.391-4.456-0.586    c0.855,0.904,1.788,1.452,2.759,1.92c4.185,2.016,8.314,4.145,12.258,6.596c4.001,2.487,8.013,5.012,10.661,9.094    c2.901,4.473,1.809,9.025-2.756,11.714c-1.778,1.047-3.648,1.879-5.655,2.347c-2.545,0.594-5.109,1.113-8.033,1.744    c0.814,0.178,1.266,0.282,1.72,0.376c4.429,0.922,8.783,2.038,12.571,4.687c3.867,2.704,5.163,6.723,3.526,11.152    c-0.789,2.133-2.027,3.997-3.465,5.763c-4.399,5.402-10.305,8.886-15.961,12.696c-0.858,0.578-1.697,1.184-2.544,1.777    c0.857,0.183,1.493,0,2.12-0.214c5.686-1.937,11.318-4.062,17.189-5.384c5.284-1.19,10.607-2.026,16.003-0.585    c4.593,1.227,6.909,4.15,6.92,8.883c0.003,1.152-0.107,2.322-0.323,3.454C201.658,178.924,199.822,182.336,197.749,185.692z     M388.064,205.331c0,0.027,0,0.053,0,0.079c22.326,0,44.652,0,66.978-0.001c1.912,0,3.823-0.013,5.735-0.019    c0.797-0.002,1.545-0.137,1.774-1.044c1.625-6.457,1.243-10.936-4.755-14.532c-3.224-1.932-6.611-1.811-10.113-1.207    c-4.04,0.697-5.456-0.407-5.798-4.429c-0.289-3.399-0.511-6.804-0.84-10.199c-0.645-6.644-1.893-13.126-5.624-18.846    c-5.397-8.273-12.958-12.912-22.932-12.601c-9.892,0.309-17.458,4.867-22.134,13.781c-1.077,2.052-1.993,4.188-3.026,6.264    c-1.433,2.878-3.425,3.535-6.207,1.978c-1.305-0.731-2.567-1.572-3.74-2.5c-5.865-4.64-12.405-7.777-19.903-8.392    c-9.654-0.792-17.981,1.813-23.733,10.229c-3.438,5.031-4.897,10.751-5.821,16.662c-0.925,5.914-1.074,6.072-6.955,6.042    c-11.852-0.061-19.686,6.162-25.175,16.043c-0.898,1.616-0.48,2.273,1.347,2.298c7.095,0.098,14.193,0.287,21.284,0.335    C341.636,205.43,364.85,205.331,388.064,205.331z M155.408,104.613c0.051-0.119,0.101-0.239,0.152-0.358    c-0.699-0.392-1.389-0.798-2.097-1.172c-5.435-2.869-10.929-5.614-16.609-7.978c-1.93-0.803-2.735-2.224-2.126-3.619    c0.788-1.806,2.23-1.651,3.811-1.221c9.432,2.567,18.99,4.532,28.71,5.589c4.09,0.445,8.208,0.299,12.087-1.361    c3.206-1.371,3.693-3.084,2.07-6.125c-2.59-4.856-6.822-8.108-10.983-11.428c-1.142-0.912-2.207-1.846-1.47-3.397    c0.764-1.608,2.287-1.558,3.742-1.153c1.379,0.383,2.708,0.941,4.077,1.364c0.547,0.169,1.166,0.691,1.708,0.114    c0.438-0.467,0.049-1.046-0.081-1.553c-0.907-3.52-2.199-6.898-3.964-10.076c-6.09-10.963-17.36-15.174-28.796-10.724    c-4.826,1.878-8.526,5.328-12.05,8.988c-4.302,4.467-5.789,4.815-11.308,2.183c-5.477-2.613-11.151-4.508-17.219-4.936    c-12.295-0.869-22.759,2.941-30.706,12.614c-7.576,9.221-10.112,20.24-10.892,31.811c-0.183,2.719-0.067,2.742,2.649,2.733    c28.335-0.095,56.669-0.195,85.004-0.292C152.548,104.608,153.978,104.613,155.408,104.613z M319.261,181.559    c0.002,0.023,0.004,0.047,0.007,0.07c1.015,0,2.031,0.019,3.045-0.008c0.508-0.013,0.932-0.225,1.006-0.805    c0.058-0.455-0.161-0.822-0.546-1.003c-2.504-1.183-5.134-1.846-7.868-1.151c-1.178,0.3-1.595,1.553-1.345,2.657    c0.255,1.125,1.31,0.609,2.066,0.555C316.839,181.788,318.05,181.666,319.261,181.559z"/>
		<path d="M195.134,123.409c-0.268-35.328,29.248-61.416,62.225-61.247c32.716,0.167,60.727,26.531,60.459,60.653    c-0.289,36.851-29.478,62.531-61.791,62.153C223.183,184.585,194.852,158.66,195.134,123.409z M257.389,179.651    c31.563,0.526,56.453-26.093,56.29-55.183c-0.176-31.515-25.013-56.702-55.976-57.253c-33.421-0.594-56.518,27.355-56.702,56.134    C200.814,152.684,225.528,180.499,257.389,179.651z"/>
		<path d="M284.713,139.33c5.508,0.043,9.478,4.307,9.453,10.152c-0.022,5.051-4.158,9.083-9.348,9.114    c-5.38,0.032-9.76-4.355-9.73-9.747C275.116,143.46,279.335,139.287,284.713,139.33z M278.908,148.722    c0.016,3.449,2.688,6.192,6.013,6.171c3.345-0.021,6.527-3.265,6.494-6.623c-0.028-2.901-3.152-5.762-6.314-5.781    C281.713,142.469,278.892,145.308,278.908,148.722z"/>
		<path d="M225.292,139.329c5.484,0.016,9.497,4.32,9.447,10.13c-0.044,5.085-4.134,9.091-9.327,9.136    c-5.327,0.046-9.782-4.408-9.748-9.747C215.697,143.436,219.867,139.313,225.292,139.329z M219.485,148.793    c0.038,3.357,2.798,6.122,6.098,6.112c3.298-0.011,6.495-3.358,6.403-6.703c-0.082-2.974-3.154-5.733-6.363-5.715    C222.233,142.505,219.446,145.369,219.485,148.793z"/>
		<path d="M284.633,121.491c0,1.501,0.053,3.004-0.016,4.502c-0.057,1.234-0.152,2.717-1.764,2.783    c-1.84,0.075-1.829-1.568-1.901-2.82c-0.13-2.247-0.165-4.497-0.527-6.726c-0.23-1.421-0.509-2.831-1.277-4.072    c-1.462-2.364-3.622-2.353-4.875,0.105c-1.463,2.873-2.435,5.912-2.702,9.164c-0.099,1.2,0.285,3.12-1.496,3.072    c-1.917-0.052-1.447-2.018-1.428-3.276c0.044-2.863,0.369-5.717,0.919-8.529c0.547-2.799,1.897-5.169,4.499-6.509    c3.547-1.827,7.78-0.202,9.432,3.459C284.775,115.476,284.714,118.485,284.633,121.491z"/>
		<path d="M229.613,120.469c-0.06-3.248,0.501-6.375,1.85-9.344c1.322-2.909,4.377-4.984,7.022-4.779    c3.119,0.242,5.483,2.289,6.422,5.704c1.224,4.45,0.383,8.925,0.028,13.389c-0.046,0.578-0.377,1.088-1.016,1.098    c-0.812,0.013-0.936-0.689-1.038-1.287c-0.365-2.149-0.03-4.361-0.615-6.499c-0.468-1.709-0.835-3.434-1.815-4.964    c-1.703-2.659-3.645-2.692-5.288,0.062c-1.589,2.664-2.675,5.51-2.582,8.7c0.032,1.087-0.013,2.182-0.108,3.266    c-0.055,0.628-0.338,1.23-1.09,1.28c-0.766,0.05-1.085-0.547-1.235-1.147C229.696,124.152,229.618,122.312,229.613,120.469z"/>
		<path d="M247.648,155.298c-0.021-1.51,0.104-3.002,0.572-4.448c0.286-0.884,0.691-1.704,1.787-1.673    c1.125,0.031,1.377,0.878,1.587,1.806c0.352,1.555,0.222,3.127,0.284,4.691c0.066,1.681,0.448,3.266,1.489,4.598    c1.337,1.711,3.04,1.574,4.087-0.328c1.176-2.137,1.537-4.497,1.678-6.901c0.044-0.747,0.116-1.496,0.25-2.231    c0.118-0.646,0.482-1.136,1.218-1.176c0.722-0.039,1.176,0.359,1.364,1.005c1.118,3.826,0.194,10.781-3.043,13.601    c-2.694,2.347-6.849,1.714-9.172-1.401C248.269,160.854,247.627,158.554,247.648,155.298z"/>
	</g>
</g>
<g>
</g>
<g>
</g>
<g>
</g>
<g>
</g>
<g>
</g>
<g>
</g>
<g>
</g>
<g>
</g>
<g>
</g>
<g>
</g>
<g>
</g>
<g>
</g>
<g>
</g>
<g>
</g>
<g>
</g>
</svg>
