<?xml version="1.0" encoding="UTF-8"?>
<!-- Generator: Adobe Illustrator 26.5.1, SVG Export Plug-In . SVG Version: 6.00 Build 0)  -->
<svg xmlns="http://www.w3.org/2000/svg" xmlns:xlink="http://www.w3.org/1999/xlink" version="1.1" id="Capa_1" x="0px" y="0px" viewBox="0 0 512 512" style="enable-background:new 0 0 512 512;" xml:space="preserve" width="512" height="512">
<g>
	<g>
		<path style="fill:#FFFFFF;" d="M25.467,512c-4.724,0-9.204-2.098-12.231-5.725c-3.026-3.625-4.287-8.408-3.441-13.057    c5.326-29.272,19.399-100.308,38.291-147.608c-1.79-3.682-4.533-8.362-8.611-13.309c-1.024-1.234-2.044-2.448-3.021-3.607    c-10.941-12.992-23.344-27.716-9.499-51.38c4.846-8.281,11.709-18.481,17.912-26.615c10.829-14.2,17.032-19.277,24.583-20.117    c0.762-0.086,1.523-0.127,2.285-0.127c3.59,0,7.15,0.936,10.536,2.73l14.32-8.642c-5.454-10.918-8.137-23.384-7.195-36.413    c1.987-27.475,20.192-51.259,45.501-60.805c4.581-12.886,12.698-23.796,22.902-30.862c0.276-6.033,0.863-11.991,1.758-17.797    c1.006-6.541,2.677-15.134,6.694-23.558c3.704-7.763,9.27-15.126,17.018-22.508C205.012,11.885,235.988,0,268.254,0    c0.532,0,1.289,0.026,1.816,0.08c8.334,0.835,15.483,1.685,21.806,2.59c0.577,0.003,1.155,0.008,1.744,0.023    c1.897,0.044,3.71,0.42,5.386,1.071c36.527,6.09,62.326,18.061,77.496,54.964c14.386,34.992,3.954,71.638,0.088,82.856    c28.047,10.991,46.739,39.239,44.475,70.541c-1.435,19.84-11.133,37.349-25.555,49.229l34.189,11.281    c1.523-2.52,3.73-4.592,6.398-5.95c2.262-1.154,4.743-1.737,7.234-1.737c1.714,0,3.433,0.277,5.088,0.835    c50.382,16.982,52.258,26.029,53.628,32.632c1.451,7.153,0.025,14.846-19.644,58.772c-1.082,2.419-1.942,4.325-2.44,5.476    c-5.351,23.913-8.013,43.431-7.122,52.246c0.924,9.093,6.18,38.282,14.058,78.068c0.926,4.675-0.292,9.521-3.317,13.205    c-3.026,3.684-7.542,5.818-12.309,5.818H25.467z"/>
	</g>
	<g>
		<g>
			
				<ellipse transform="matrix(0.0049 -1 1 0.0049 -32.4176 351.9449)" style="fill:#FF93E2;" cx="160.637" cy="192.262" rx="54.453" ry="54.453"/>
			
				<ellipse transform="matrix(0.7071 -0.7071 0.7071 0.7071 -42.6631 309.2005)" style="fill:#FF93E2;" cx="351.906" cy="206.099" rx="54.453" ry="54.453"/>
		</g>
		<g>
			<g>
				<g>
					<g>
						<g>
							<path style="fill:#FF93E2;" d="M358.062,161.33l-3.955,42.231c-0.463,8.241-4.358,15.029-9.571,20.195         c-9.001,8.911-16.262,12.085-28.379,11.733l-29.08-2.289l-4.617-0.363l-0.799,16.661l-0.866,18.212l0,0         c2.468,16.326-39.4,16.863-53.597,8.432l-34.074-23.317l3.936-101.604l-2.061-31.12l0.313-0.012         c0.037-2.322,0.139-4.659,0.365-7.004c4.445-46.025,45.35-79.724,91.375-75.279c46.025,4.445,72.047,36.468,74.669,82.635         c0.287,5.199-1.105,15.531-1.973,22.798L358.062,161.33z"/>
							<path style="opacity:0.44;fill:#2E1144;" d="M358.062,161.33l-3.955,42.231c-0.463,8.241-4.358,15.029-9.571,20.195         c-9.001,8.911-16.262,12.085-28.379,11.733l-29.08-2.289l-4.617-0.363l-0.799,16.661l-0.866,18.212l0,0         c2.468,16.326-39.4,16.863-53.597,8.432l-34.074-23.317l3.936-101.604l-2.061-31.12l0.313-0.012         c0.037-2.322,0.139-4.659,0.365-7.004c4.445-46.025,45.35-79.724,91.375-75.279c46.025,4.445,72.047,36.468,74.669,82.635         c0.287,5.199-1.105,15.531-1.973,22.798L358.062,161.33z"/>
							<path style="fill:#FF93E2;" d="M269.52,14.981l32.311,28.389c0,0,2.58,33.488,22.309,41.774         c19.729,8.286,19.729,8.286,19.729,8.286s1.973,34.329,17.756,44.588c0,0,15.784-38.67,1.184-74.182         C348.161,28.204,323.746,20.432,269.52,14.981z"/>
							<path style="fill:#FF93E2;" d="M213.167,131.456c15.268,2.805,31.848-7.078,36.642-21.843         c0.336-1.036,0.667-2.16,1.524-2.833c0.82-0.644,1.933-0.723,2.973-0.807c14.732-1.192,28.817-8.907,37.754-20.679         s12.583-27.412,9.772-41.923c-9.803-10.549-20.558-20.068-32.311-28.389c-26.93-0.054-54.725,9.627-74.22,28.206         c-5.447,5.191-10.39,11.044-13.629,17.835c-2.859,5.994-4.317,12.559-5.328,19.122c-1.802,11.697-2.248,23.602-1.328,35.402         c2.408,1.446,4.9,3.215,7.009,5.069C190.592,128.152,201.848,132.895,213.167,131.456z"/>
							<g>
								<g style="opacity:0.4;">
									
										<ellipse transform="matrix(0.8956 -0.4449 0.4449 0.8956 -55.2892 128.8255)" style="opacity:0.44;fill:#FF93E2;" cx="246.79" cy="182.194" rx="32.017" ry="32.017"/>
									<path style="opacity:0.46;fill:#FF93E2;" d="M354.107,203.561c-0.463,8.241-4.358,15.029-9.571,20.195           c-16.841-2.374-29.011-17.629-27.356-34.768c1.699-17.591,17.357-30.491,34.948-28.792           c2.037,0.197,4.035,0.577,5.934,1.134L354.107,203.561z"/>
								</g>
								<g>
									<path style="fill:#2E1144;" d="M271.145,155.836c-0.467,4.831-4.761,8.368-9.591,7.902c-4.83-0.467-8.368-4.76-7.901-9.591           c0.467-4.83,4.761-8.368,9.591-7.901C268.074,146.711,271.611,151.005,271.145,155.836z"/>
									<path style="fill:#2E1144;" d="M345.143,162.983c-0.467,4.831-4.761,8.368-9.591,7.902           c-4.831-0.467-8.369-4.761-7.902-9.591c0.467-4.83,4.761-8.368,9.592-7.901           C342.072,153.858,345.609,158.152,345.143,162.983z"/>
									<g>
										<path style="fill:#FF93E2;" d="M252.835,127.049c-0.569,0.609-1.062,1.317-1.087,2.103            c-0.035,1.111,0.899,2.146,2.051,2.727c1.152,0.581,2.497,0.794,3.811,0.974c4.494,0.618,9.167,0.973,13.463-0.114            c1.487-0.376,2.964-0.958,3.9-1.989c1.509-1.661,1.183-4.242-0.467-5.9C269.244,119.56,256.993,122.593,252.835,127.049z"/>
										<path style="fill:#FF93E2;" d="M350.833,136.277c0.441,0.707,0.79,1.496,0.664,2.272            c-0.178,1.098-1.293,1.934-2.535,2.284c-1.242,0.35-2.603,0.301-3.927,0.227c-4.529-0.254-9.184-0.799-13.193-2.689            c-1.388-0.654-2.726-1.508-3.447-2.699c-1.163-1.919-0.349-4.39,1.587-5.701            C336.16,125.787,347.604,131.108,350.833,136.277z"/>
									</g>
									<path style="fill:#FFE7DE;" d="M293.366,167.505c0,0-2.792,16.263,5.487,18.681c8.28,2.418,14.578-12.961,14.578-12.961           L293.366,167.505z"/>
								</g>
							</g>
							<path style="opacity:0.44;fill:#2E1144;" d="M282.353,233.803l-0.693,15.695c-7.343,2.717-16.128,3.8-25.498,0.403         c-25.282-9.15-33.328-24.808-33.328-24.808l59.74,7.886L282.353,233.803z"/>
						</g>
						<path style="fill:#FF93E2;" d="M219.75,147.511c0,0-30.186-27.882-44.34-13.381c-14.154,14.501-13.833,43.302,22.569,51.895        L219.75,147.511z"/>
					</g>
				</g>
				<g>
					<path style="fill:#00DBDA;" d="M188.871,112.698c0,0-10.991-97.79,105.412-95.028c0,0-43.668,3.157-70.5,41.563       c-17.745,25.4-16.844,57.171-16.844,57.171L188.871,112.698z"/>
					<g>
						<g>
							<path style="fill:#2E1144;" d="M228.917,153.017c-2.447,25.335-20.778,44.295-40.943,42.347         c-20.165-1.948-34.528-24.065-32.081-49.4c2.447-25.335,20.777-44.295,40.942-42.347         C217,105.564,231.364,127.682,228.917,153.017z"/>
							<g>
								
									<ellipse transform="matrix(0.0961 -0.9954 0.9954 0.0961 18.6816 318.0169)" style="fill:#00DBDA;" cx="184.447" cy="148.722" rx="46.087" ry="36.682"/>
							</g>
							<path style="fill:none;stroke:#2E1144;stroke-width:1.5455;stroke-miterlimit:10;" d="M213.028,150.561         c-2.166,22.426-17.243,39.32-33.677,37.733c-16.433-1.587-27.998-21.054-25.832-43.48         c2.166-22.426,17.243-39.32,33.676-37.733C203.628,108.668,215.194,128.134,213.028,150.561z"/>
						</g>
						<path style="fill:#2E1144;" d="M199.003,149.655c-1.773,18.355-14.113,32.182-27.564,30.883        c-13.45-1.299-22.916-17.232-21.143-35.587c1.773-18.355,14.113-32.182,27.563-30.883        C191.31,115.367,200.776,131.3,199.003,149.655z"/>
					</g>
				</g>
			</g>
		</g>
		<path style="fill:#2E1144;" d="M417.232,495.121H26.507c4.173-22.935,19.473-102.99,39.873-150.497    c6.182-14.435,12.858-25.871,19.813-31.806c12.456-10.633,27.973-19.72,43.057-27.108c0.154-0.062,0.278-0.154,0.433-0.185    c0,0,0.031,0,0.031-0.031c29.611-14.466,57.492-22.379,57.492-22.379l5.533-26.057l88.803,8.562c0-0.031,0.031,0,0.031,0    l1.144,0.124l2.04,9.551l0.556,2.535l2.133,10.015c0,0,34.742,7.14,63.241,22.255c0.278,0.124,0.587,0.278,0.865,0.464h0.031    c10.849,5.811,20.709,12.827,27.293,21.08c0.711,0.865,1.36,1.762,1.978,2.658c0,0,0.031,0,0.031,0.031    c1.113,1.576,2.071,3.215,2.905,4.884c0.247,0.495,0.495,0.989,0.711,1.484c2.256,5.069,4.327,10.107,6.275,15.146    c0.093,0.185,0.155,0.371,0.216,0.587c2.009,5.162,3.864,10.324,5.564,15.455h0.031v0.093c2.751,8.16,5.131,16.227,7.202,24.14    c1.885,7.14,3.493,14.157,4.914,20.988C418.191,442.978,417.851,480.687,417.232,495.121z"/>
		<g>
			<g>
				<g>
					<path style="fill:#FF93E2;" d="M53.677,495.121c6.058-43.057,17.495-129.294,14.373-144.934c0,0-0.402-2.102-1.669-5.564       c-1.916-5.378-5.904-14.095-13.569-23.398c-12.642-15.238-19.999-21.544-11.066-36.813       c8.933-15.269,25.778-38.42,30.508-38.946c4.729-0.525,9.489,6.336,9.489,6.336l2.751-1.669l27.757-16.753       c0,0,6.831,7.882,1.051,14.713c-5.78,6.862-8.407,11.591-8.407,11.591s0.031,0,0.093,0c0.68,0.062,4.853,0.556,8.284,2.535       c0.031,0.031,0.093,0.062,0.124,0.093c2.535,1.484,4.636,3.771,4.636,7.356c0,0,0.062,0,0.124,0.031       c0.062,0.031,0.124,0.062,0.185,0.062c1.02,0.278,4.544,1.391,7.449,4.018c0.031,0.031,0.062,0.062,0.093,0.062       c1.082,1.02,2.071,2.195,2.782,3.647c0.865,1.7,1.36,3.74,1.237,6.182c-0.031,0.587-0.093,1.175-0.186,1.824       c0,0,0,0-0.031,0.031c0,0.155-0.031,0.309-0.062,0.464c-0.433,2.164-4.235,5.594-3.957,7.696       c0.216,1.515,0.433,3.153,0.649,4.822c1.298,9.489,2.782,20.091,2.782,20.091s8.191,119.217,9.551,176.523H53.677z"/>
					<path style="opacity:0.44;fill:#2E1144;" d="M53.677,495.121c6.058-43.057,17.495-129.294,14.373-144.934       c0,0-0.402-2.102-1.669-5.564c-1.916-5.378-5.904-14.095-13.569-23.398c-12.642-15.238-19.999-21.544-11.066-36.813       c8.933-15.269,25.778-38.42,30.508-38.946c4.729-0.525,9.489,6.336,9.489,6.336l2.751-1.669l27.757-16.753       c0,0,6.831,7.882,1.051,14.713c-5.78,6.862-8.407,11.591-8.407,11.591s0.031,0,0.093,0c0.68,0.062,4.853,0.556,8.284,2.535       c0.031,0.031,0.093,0.062,0.124,0.093c2.535,1.484,4.636,3.771,4.636,7.356c0,0,0.062,0,0.124,0.031       c0.062,0.031,0.155,0.062,0.278,0.124c0.247,0.062,0.649,0.216,1.113,0.433c2.133,0.958,6.151,3.153,9.118,7.233       c0.433,0.618,0.865,1.298,1.237,2.009c0.402,0.649,0.711,1.36,1.02,2.102c0.34,0.865-0.278,2.287-1.206,3.895       c0,0.031-0.031,0.031-0.031,0.031c-1.824,3.215-4.822,7.264-4.204,9.551c0.309,1.175,0.587,2.318,0.835,3.431       c2.875,12.426,2.782,20.091,2.782,20.091s8.191,119.217,9.551,176.523H53.677z"/>
				</g>
				<g>
					
						<path style="fill:none;stroke:#2E1144;stroke-width:1.5455;stroke-linecap:round;stroke-linejoin:round;stroke-miterlimit:10;" d="       M77.523,284.674l27.358-24.991c0,0-2.499-5.261-10.785-8.812s-12.364,0.921-12.364,0.921l-21.176,28.673"/>
					
						<path style="fill:none;stroke:#2E1144;stroke-width:1.5455;stroke-linecap:round;stroke-linejoin:round;stroke-miterlimit:10;" d="       M95.675,287.568l22.36-17.888c-2.104-10.259-13.153-9.996-13.153-9.996"/>
					
						<path style="fill:none;stroke:#2E1144;stroke-width:1.5455;stroke-linecap:round;stroke-linejoin:round;stroke-miterlimit:10;" d="       M118.034,269.68c0,0,12.627,3.946,12.101,12.364s-9.996,11.575-9.996,11.575"/>
				</g>
			</g>
			
				<path style="fill:none;stroke:#2E1144;stroke-width:1.5455;stroke-linecap:round;stroke-linejoin:round;stroke-miterlimit:10;" d="     M127.636,288.555c0,0-1.973,2.17-1.578,7.004c0.395,4.834,2.861,20.716,3.354,25.254"/>
			<g>
				<g>
					<g>
						<path style="fill:#B179FF;" d="M475.872,317.527l-34.119,78.739c-2.534,5.866-9.165,8.852-15.254,6.81l-178.107-59.552        l-0.71-0.233c-0.298-0.09-0.619-0.216-0.905-0.366c-6.491-2.719-9.427-10.412-6.241-16.875l38.05-76.615        c2.447-4.938,7.783-7.579,13.09-6.698c0.613,0.088,1.214,0.238,1.833,0.453l174.88,57.692        C475.316,303.151,478.754,310.847,475.872,317.527z"/>
						<g>
							<path style="fill:#2E1144;" d="M291.679,242.747c-1.329,1.267-2.442,2.813-3.276,4.636l-3.647,7.913l-36.535,79.53         c-1.175,2.565-1.669,5.378-1.453,8.098c0.309,0.155,0.618,0.278,0.927,0.371l0.711,0.216         c-0.371-2.689,0.062-5.471,1.237-8.067l35.669-77.613l4.482-9.798c0.927-1.947,2.225-3.586,3.709-4.853         C292.884,242.963,292.297,242.839,291.679,242.747z"/>
						</g>
					</g>
					<polygon style="fill:#FFC666;" points="347.317,319.014 350.804,289.083 363.301,313.661 392.935,309.843 374.373,328.89        384.176,351.487 359.623,338.896 341.731,361.574 343.237,334.336 319.503,329.03      "/>
				</g>
				<g>
					<g>
						<path style="fill:#FF93E2;" d="M458.033,415.561c1.36,13.384,9.922,57.553,14.28,79.561h-67.29        c0.309-21.513,0.526-67.351-2.411-81.292c-3.895-18.453-0.278-15.084-15.269-23.367c-0.804-0.433-1.576-0.865-2.349-1.267        h-0.031c-0.031,0-0.031-0.031-0.062-0.031c-13.693-7.48-23.429-12.086-22.224-26.057c0,0-4.358-2.04-8.191-6.027        c-0.031-0.031-0.062-0.031-0.062-0.062c-1.638-1.731-3.153-3.771-4.204-6.213c-1.36-3.246-1.854-7.109-0.556-11.591        c0-0.062,0.031-0.093,0.031-0.093s0.309,0.062,0.896,0.185c0.185,0.031,0.402,0.062,0.649,0.124        c1.453,0.247,3.895,0.711,6.924,1.329c2.658,0.556,5.749,1.267,9.118,2.071c4.76,1.144,9.953,2.535,14.929,4.142h0.031        c1.607,0.526,3.184,1.051,4.729,1.607c0.464,0.154,0.927,0.309,1.422,0.494c2.689,0.989,5.44,1.947,8.191,2.905        c1.916,0.649,3.802,1.267,5.656,1.886c0.556,0.185,1.113,0.371,1.669,0.587c10.138,3.338,18.298,5.842,18.298,5.842        l3.276-8.469l-13.569-10.169c0,0-0.093-0.031-0.309-0.062c-1.762-0.278-10.849-1.854-20.617-5.162        c-5.718-1.916-11.684-4.42-16.536-7.635c-3.215-2.133-5.966-4.544-7.82-7.294c-0.093-0.186-0.247-0.34-0.34-0.525        c-1.422-2.256-2.225-4.729-2.225-7.418c0-0.711,0.062-1.422,0.155-2.133c0,0,1.885,0.309,4.976,0.835        c0.402,0.062,0.804,0.155,1.206,0.216c0.062,0,0.124,0.031,0.186,0.031c0.216,0.031,0.433,0.093,0.649,0.124h0.093        c0.649,0.124,1.36,0.216,2.071,0.371c0.34,0.062,0.68,0.124,1.051,0.185c0.433,0.062,0.865,0.124,1.329,0.216        c0.649,0.124,1.298,0.247,1.978,0.34c0.464,0.093,0.958,0.155,1.422,0.247c0.556,0.124,1.113,0.216,1.7,0.34        c0.618,0.093,1.267,0.216,1.947,0.309c0.031,0,0.062,0.031,0.093,0.031c0.804,0.154,1.638,0.309,2.473,0.433        c0.525,0.093,1.051,0.185,1.576,0.309c0.154,0.031,0.309,0.062,0.464,0.093c3.246,0.587,6.646,1.237,10.046,1.855        c5.007,0.958,9.953,1.947,14.342,2.875c8.16,1.7,14.589,3.245,16.32,4.234c2.287,1.298,5.749,4.327,9.087,7.542        c0.093,0.093,0.185,0.155,0.278,0.247c5.007,4.791,9.706,9.86,9.706,9.86l0.185-0.309l20.091-34.835        c0,0-14.126-4.358-20.617-13.198c-2.813-3.802-4.204-8.408-2.504-13.848c0,0,41.728,14.064,43.118,20.771        c1.36,6.707-21.451,54.771-21.76,56.317C465.42,358.564,456.209,397.51,458.033,415.561z"/>
						<path style="opacity:0.44;fill:#2E1144;" d="M458.033,415.561c1.36,13.384,9.922,57.553,14.28,79.561h-67.29        c0.309-21.513,0.526-67.351-2.411-81.292c-3.895-18.453-0.278-15.084-15.269-23.367c-0.804-0.433-1.576-0.865-2.349-1.267        h-0.031c-0.031,0-0.031-0.031-0.062-0.031c-13.693-7.48-23.429-12.086-22.224-26.057c0,0-4.358-2.04-8.191-6.027        c-0.031-0.031-0.062-0.031-0.062-0.062c-1.638-1.731-3.153-3.771-4.204-6.213c-1.36-3.246-1.854-7.109-0.556-11.591        c0-0.062,0.031-0.093,0.031-0.093s0.309,0.062,0.896,0.185c0.185,0.031,0.402,0.062,0.649,0.124        c1.453,0.247,3.895,0.711,6.924,1.329c2.658,0.556,5.749,1.267,9.118,2.071c4.76,1.144,9.953,2.535,14.929,4.142h0.031        c1.607,0.526,3.184,1.051,4.729,1.607c0.464,0.154,0.927,0.309,1.422,0.494c2.689,0.989,5.44,1.947,8.191,2.905        c1.916,0.649,3.802,1.267,5.656,1.886c0.556,0.185,1.113,0.371,1.669,0.587c10.138,3.338,18.298,5.842,18.298,5.842        l3.276-8.469l-13.569-10.169c0,0-0.093-0.031-0.309-0.062c-1.762-0.278-10.849-1.854-20.617-5.162        c-5.718-1.916-11.684-4.42-16.536-7.635c-3.215-2.133-5.966-4.544-7.82-7.294c-0.093-0.186-0.247-0.34-0.34-0.525        c-1.422-2.256-2.225-4.729-2.225-7.418c0-0.711,0.062-1.422,0.155-2.133c0,0,1.885,0.309,4.976,0.835        c0.402,0.062,0.804,0.155,1.206,0.216c0.062,0,0.124,0.031,0.186,0.031c0.216,0.031,0.433,0.093,0.649,0.124h0.093        c0.649,0.124,1.36,0.216,2.071,0.371c0.34,0.062,0.68,0.124,1.051,0.185c0.433,0.062,0.865,0.124,1.329,0.216        c0.649,0.124,1.298,0.247,1.978,0.34c0.464,0.093,0.958,0.155,1.422,0.247c0.556,0.124,1.113,0.216,1.7,0.34        c0.618,0.093,1.267,0.216,1.947,0.309c0.031,0,0.062,0.031,0.093,0.031c0.804,0.154,1.638,0.309,2.473,0.433        c0.525,0.093,1.051,0.185,1.576,0.309c0.154,0.031,0.309,0.062,0.464,0.093c3.246,0.587,6.646,1.237,10.046,1.855        c5.007,0.958,9.953,1.947,14.342,2.875c8.16,1.7,14.589,3.245,16.32,4.234c2.287,1.298,5.749,4.327,9.087,7.542        c0.093,0.093,0.185,0.155,0.278,0.247c5.007,4.791,9.706,9.86,9.706,9.86l0.185-0.309l20.091-34.835        c0,0-14.126-4.358-20.617-13.198c-2.813-3.802-4.204-8.408-2.504-13.848c0,0,41.728,14.064,43.118,20.771        c1.36,6.707-21.451,54.771-21.76,56.317C465.42,358.564,456.209,397.51,458.033,415.561z"/>
					</g>
					
						<path style="fill:none;stroke:#2E1144;stroke-width:1.5455;stroke-linecap:round;stroke-linejoin:round;stroke-miterlimit:10;" d="       M452.174,346.861c0,0-17.206-18.914-25.837-22.748c-8.631-3.834-62.116-12.693-62.116-12.693s-3.272,7.133,8.423,15.855       c11.695,8.722,39.268,14.387,39.268,14.387l21.471,14.924"/>
					
						<path style="fill:none;stroke:#2E1144;stroke-width:1.5455;stroke-linecap:round;stroke-linejoin:round;stroke-miterlimit:10;" d="       M432.126,364.381c0,0-30.586-10.811-45.155-15.807c-14.569-4.996-37.287-9.442-37.287-9.442s-5.31,11.894,8.035,20.403       c13.345,8.509,25.619,8.968,42.618,15.244c16.999,6.276,22.538,10.844,22.538,10.844"/>
				</g>
			</g>
			<g>
				<g>
					<g>
						<g>
							<path style="fill:#B179FF;" d="M166.398,482.313h8.158l169.86-21.755c1.81,0,0.279,0.694,0.279-1.116l-4.463-38.49         c0-1.81,1.252,0-0.558,0l-164.281-13.388h-8.995c-1.81,0-3.277,1.468-3.277,3.277v68.195         C163.121,480.846,164.588,482.313,166.398,482.313z"/>
						</g>
						<g>
							<path style="fill:#FFE7DE;" d="M175.881,482.313h190.36c1.81,0,3.277-1.467,3.277-3.277v-68.195         c0-1.809-1.467-3.277-3.277-3.277h-190.36c-1.81,0-3.277,1.468-3.277,3.277v68.195         C172.604,480.846,174.071,482.313,175.881,482.313z"/>
						</g>
					</g>
				</g>
				<g>
					<path style="fill:#FF93E2;" d="M205.064,432.031c0,0-14.832-18.848-25.337-7.107c-7.5,8.382,24.673,44.699,24.673,44.699       s34.036-37.283,23.221-47.789C216.806,411.328,205.064,432.031,205.064,432.031z"/>
				</g>
				<g>
					<g>
						<rect x="239.265" y="423.043" style="fill:#FF93E2;" width="14.587" height="44.627"/>
					</g>
					<g>
						<rect x="260.334" y="423.043" style="fill:#FF93E2;" width="14.587" height="44.627"/>
					</g>
					<g>
						<rect x="281.403" y="423.043" style="fill:#FF93E2;" width="14.587" height="44.627"/>
					</g>
					<g>
						<rect x="302.473" y="423.043" style="fill:#FF93E2;" width="14.587" height="44.627"/>
					</g>
					<g>
						<rect x="323.542" y="423.043" style="fill:#FF93E2;" width="14.587" height="44.627"/>
					</g>
					<g>
						<rect x="344.612" y="423.043" style="fill:#FF93E2;" width="14.587" height="44.627"/>
					</g>
				</g>
			</g>
		</g>
	</g>
</g>















</svg>
