<?xml version="1.0" encoding="UTF-8"?>
<!-- Generator: Adobe Illustrator 25.4.1, SVG Export Plug-In . SVG Version: 6.00 Build 0)  -->
<svg xmlns="http://www.w3.org/2000/svg" xmlns:xlink="http://www.w3.org/1999/xlink" version="1.1" id="Capa_1" x="0px" y="0px" viewBox="0 0 512 512" style="enable-background:new 0 0 512 512;" xml:space="preserve" width="512" height="512">
<g>
	<g>
		<path d="M251.696,511.981c-99.525-1.404-161.286-33.245-170.266-139.452c0.382-21.896-33.106-38.282-20.894-45.515    c25.162-17.119,57.631-8.322,74.916,15.811c14.471-22.147,44.788-31.285,68.544-20.024c4.534,2.251,13.43,9.223,7.049,14.134    c-38.719,27.427-28.464,105.241,18.755,117.099c77.995,24.508,126.274-60.115,71.317-115.301    c-20.186-20.507,52.646-33.428,73.946,3.984c15.068-23.874,54.586-34.622,76.02-13.894c8.025,6.836-21.002,18.627-22.422,43.831    C424.209,482.937,351.072,512.878,251.696,511.981z"/>
		<path d="M184.449,310.658c-19.036,1.719-35.602,7.885-48.558,22.846c-12.937-17.006-30.506-22.868-51.412-21.112    c-6.643-76.377,24.388-241.42-42.348-289.597c-25.391-21.371,61.011-40.231,93.023,8.087    C155.02-2.434,206.866-9.463,236.814,13.787c3.498,2.795,2.531,6.017-1.815,7.238c-47.111,11.342-47.34,61.939-47.935,101.36    C185.987,185.167,185.159,247.857,184.449,310.658z"/>
		<path d="M375.556,333.226c-12.469-15.111-28.105-22.571-47.714-20.89c-1.645-62.877-1.491-125.736-2.984-188.622    c-0.962-39.306-0.1-91.362-47.571-102.54c-4.827-1.354-5.513-4.378-1.824-7.899C306.739-8.582,354.367-3.996,376.61,31.11    c31.763-49.106,119.98-28.468,92.707-8c-65.285,48.326-36.104,211.352-41.723,287.097    C406.626,310.262,387.743,314.112,375.556,333.226z"/>
	</g>
	<g>
		<g>
			<path style="fill:#FFFFFF;" d="M135.265,369.313c2.824-3.084,5.087-6.196,7.962-8.564c6.208-5.112,13.787-2.853,15.237,5.005     c0.936,5.075,0.27,10.633-0.61,15.817c-1.952,11.498-4.577,22.879-6.719,34.347c-0.455,2.438,0.134,5.053-0.052,7.564     c-0.119,1.604-0.781,3.167-1.199,4.749c-1.549-0.537-3.566-0.628-4.573-1.683c-7.834-8.21-15.842-16.302-23.062-25.038     c-6.233-7.541-9.381-16.761-10.943-26.421c-1.584-9.797,4.566-17.231,13.261-16.165     C128.872,359.453,132.382,362.855,135.265,369.313z"/>
			<g>
				<path style="fill:#FFFFFF;" d="M145.274,37.733c-0.568,1.382-0.825,3.032-1.751,4.105      c-20.836,24.165-25.154,52.29-18.405,82.311c5.718,25.438,13.784,50.351,19.402,75.808c5.605,25.396,6.669,51.178-2.218,76.253      c-2.378,6.709-6.591,12.826-10.417,18.93c-1.241,1.98-3.932,3.05-5.96,4.536c-0.335-0.4-0.669-0.799-1.004-1.198      c1.982-2.252,4.233-4.321,5.898-6.786c6.846-10.138,10.372-21.463,11.624-33.58c2.731-26.439-2.905-51.499-11.994-76.108      c-9.044-24.486-15.341-49.654-14.721-75.964c0.567-24.049,7.283-46.082,24.093-64.163c1.385-1.489,2.996-2.767,4.503-4.144      C144.64,37.733,144.957,37.733,145.274,37.733z"/>
				<g>
					<path style="fill:#FFFFFF;" d="M114.845,248.946c-5.139,0-9.235-4.159-9.23-9.373c0.005-5.347,4.245-9.667,9.554-9.735       c5.17-0.066,9.425,4.021,9.501,9.124C124.749,244.368,120.245,248.946,114.845,248.946z"/>
					<path style="fill:#FFFFFF;" d="M144.648,114.882c-4.334-0.113-7.883-4.007-7.781-8.537c0.108-4.782,4.188-8.839,8.833-8.784       c4.612,0.054,8.276,4.061,8.02,8.769C153.462,111.076,149.296,115.003,144.648,114.882z"/>
				</g>
			</g>
		</g>
		<g>
			<path style="fill:#FFFFFF;" d="M376.704,369.332c2.094-4.958,4.843-9.42,10.607-10.342c8.501-1.361,15.095,5.937,13.34,15.469     c-1.187,6.446-3.096,12.974-5.943,18.855c-6.519,13.465-17.012,23.854-28.247,33.464c-1.062,0.908-2.832,1.443-4.2,1.321     c-0.567-0.05-1.406-2.315-1.329-3.522c0.883-13.832-3.007-26.876-6.042-40.123c-1.377-6.009-2.226-12.56-1.327-18.567     c1.212-8.099,9.166-10.312,15.48-4.93C371.871,363.37,374.118,366.464,376.704,369.332z"/>
			<g>
				<path style="fill:#FFFFFF;" d="M367.682,37.733c12.268,11.496,20.542,25.186,24.822,41.631      c7.598,29.194,2.821,57.455-5.338,85.513c-4.368,15.02-10.247,29.637-13.978,44.796c-5.136,20.872-6.847,42.134-0.682,63.241      c1.401,4.795,3.391,9.518,5.809,13.887c2.324,4.199,5.555,7.897,7.756,12.867c-2.124-1.607-4.666-2.872-6.3-4.878      c-7.753-9.515-11.944-20.685-13.974-32.651c-4.364-25.717-1.926-50.93,5-76.018c6.476-23.457,13.245-46.96,17.515-70.866      c4.786-26.794-1.15-51.855-19.53-73.051c-1.031-1.189-1.383-2.968-2.051-4.472C367.048,37.733,367.365,37.733,367.682,37.733z"/>
				<g>
					<path style="fill:#FFFFFF;" d="M396.658,229.834c5.294-0.04,9.608,4.202,9.725,9.561c0.113,5.203-3.922,9.464-9.044,9.551       c-5.404,0.092-9.988-4.402-10.001-9.806C387.325,234.018,391.476,229.873,396.658,229.834z"/>
					<path style="fill:#FFFFFF;" d="M375.142,106.709c-0.122,4.566-3.787,8.243-8.149,8.174c-4.836-0.077-8.943-4.505-8.708-9.391       c0.219-4.555,3.93-8.063,8.384-7.923C371.307,97.714,375.268,101.988,375.142,106.709z"/>
				</g>
			</g>
		</g>
	</g>
</g>















</svg>
