<?xml version="1.0" encoding="iso-8859-1"?>
<!-- Generator: Adobe Illustrator 26.5.1, SVG Export Plug-In . SVG Version: 6.00 Build 0)  -->
<svg xmlns="http://www.w3.org/2000/svg" xmlns:xlink="http://www.w3.org/1999/xlink" version="1.1" id="Capa_1" x="0px" y="0px" viewBox="0 0 512 512" style="enable-background:new 0 0 512 512;" xml:space="preserve">
<g>
	<path style="fill:#FFFFFF;" d="M256,512c-53.298,0-104.386-16.222-147.742-46.913c-42.398-30.012-74.32-71.507-92.316-119.998   c-5.356-14.411-9.416-29.375-12.063-44.475C1.305,285.99,0,270.978,0,256c0-68.378,26.629-132.664,74.983-181.017   C123.335,26.629,187.622,0,256,0s132.664,26.629,181.018,74.983C485.37,123.336,512,187.622,512,256   c0,26.25-3.961,52.136-11.773,76.938c-3.527,11.229-7.875,22.284-12.919,32.851c-20.481,43.096-52.562,79.586-92.766,105.512   C353.253,497.927,305.345,512,256,512z"/>
	<g>
		<g>
			<g>
				<g>
					<path style="fill:#E36352;" d="M501.29,257.003c0,25.802-3.965,50.671-11.327,74.048c-3.417,10.875-7.574,21.433-12.425,31.596       c-39.545,83.21-124.372,140.733-222.624,140.733c-105.913,0-196.225-66.839-231.035-160.635       c-5.101-13.724-9.018-28.025-11.607-42.789c-2.454-13.945-3.734-28.304-3.734-42.952       c0-136.065,110.311-246.376,246.376-246.376S501.29,120.938,501.29,257.003z"/>
				</g>
			</g>
			<g>
				<g>
					<g>
						<g>
							<path style="fill:#F7EDE5;" d="M453.559,213.287l-23.589,42.018c0,0,55.287-11.057,53.076-11.795         C480.834,242.773,453.559,213.287,453.559,213.287z"/>
						</g>
					</g>
					<g>
						<g>
							<path style="fill:#F7EDE5;" d="M117.997,393.901l-45.437,16.044c0,0,48.862,28.132,47.685,26.12         C119.067,434.054,117.997,393.901,117.997,393.901z"/>
						</g>
					</g>
					<g>
						<g>
							<path style="fill:#F8BDFF;" d="M237.954,112.758l30.423,37.369c0,0,10.014-55.486,8.516-53.699         C275.395,98.214,237.954,112.758,237.954,112.758z"/>
						</g>
					</g>
					<g>
						<g>
							
								<ellipse transform="matrix(0.6847 -0.7289 0.7289 0.6847 -234.9087 156.9901)" style="fill:#FFC063;" cx="63.975" cy="349.973" rx="25.432" ry="25.432"/>
						</g>
					</g>
					<g>
						<g>
							
								<ellipse transform="matrix(0.9952 -0.098 0.098 0.9952 -28.8312 45.6246)" style="fill:#FFC063;" cx="449.793" cy="316.155" rx="25.432" ry="25.432"/>
						</g>
					</g>
					<g>
						<g>
							
								<rect x="359.344" y="136.424" transform="matrix(0.866 -0.5 0.5 0.866 -28.9734 213.371)" style="fill:#B5E1E8;" width="48.653" height="48.653"/>
						</g>
					</g>
				</g>
				<g>
					<g>
						<path style="fill:#F7EDE5;" d="M60.834,159.392c4.35,2.04,6.771,5.473,7.263,10.296c1.714-1.695,3.816-2.803,6.303-3.32        c2.489-0.517,5.415,0.014,8.781,1.594c3.368,1.579,5.449,4.075,6.248,7.485c0.798,3.412,0.108,7.437-2.07,12.079        l-6.946,14.805c-0.334,0.71-0.849,1.184-1.545,1.418c-0.697,0.235-1.443,0.165-2.238-0.209l-40.149-18.834        c-0.46-0.216-0.729-0.432-0.806-0.648c-0.078-0.214-0.009-0.553,0.207-1.012l6.71-14.304        C47.184,158.959,53.265,155.841,60.834,159.392z M51.166,176.9l8.219,3.855l0.147-0.313c1.883-4.014,1.487-6.65-1.19-7.906        c-1.464-0.686-2.712-0.8-3.744-0.34c-1.032,0.46-1.97,1.589-2.813,3.387L51.166,176.9z M66.787,184.228l8.156,3.826        l0.53-1.129c0.843-1.799,1.127-3.272,0.85-4.424c-0.276-1.149-1.146-2.068-2.611-2.755c-1.463-0.688-2.669-0.78-3.618-0.282        c-0.948,0.5-1.844,1.648-2.688,3.446L66.787,184.228z"/>
					</g>
					<g>
						<path style="fill:#F7EDE5;" d="M78.152,152.444c-2.628-0.314-4.531-0.898-5.708-1.755c-1.176-0.855-1.702-1.724-1.576-2.604        c0.616-2.807,2.275-6.071,4.98-9.788c2.704-3.716,5.482-5.708,8.334-5.975c2.851-0.268,5.978,0.835,9.376,3.309l8.852,6.442        l1.386-1.905c0.462-0.634,1.196-0.857,2.201-0.669c1.006,0.189,2.162,0.759,3.469,1.71c1.308,0.952,2.358,2.217,3.152,3.794        c0.795,1.579,0.784,2.927-0.032,4.048c-1.468,2.018-3.192,3.247-5.171,3.693c-0.856,0.234-1.71,0.27-2.563,0.105        c0.916,3.295,0.055,6.755-2.581,10.377c-1.984,2.728-4.627,4.318-7.928,4.772c-3.301,0.455-6.278-0.283-8.93-2.213        c-6.088-4.431-6.482-10.29-1.182-17.572l2.243-3.081l-0.561-0.409c-0.97-0.706-1.712-1.002-2.223-0.889        c-0.512,0.113-1.189,0.75-2.031,1.908C80.626,147.161,79.458,149.395,78.152,152.444z M91.723,155.464        c0.822,0.598,1.611,0.83,2.366,0.694c0.756-0.135,1.385-0.548,1.888-1.241c0.503-0.69,0.678-1.52,0.526-2.488l-4.314-3.139        l-1.141,1.569C89.742,152.651,89.968,154.186,91.723,155.464z"/>
					</g>
					<g>
						<path style="fill:#F7EDE5;" d="M112.375,123.501c3.183,3.222,5.989,3.631,8.421,1.226c1.577-1.558,2.582-3.169,3.017-4.833        c0.493-0.487,1.731-0.038,3.716,1.346c1.985,1.384,3.278,2.379,3.878,2.986c0.602,0.609,0.917,1.093,0.948,1.452        c-0.671,2.806-2.517,5.702-5.539,8.69c-3.024,2.988-6.706,4.403-11.05,4.246c-4.343-0.156-8.439-2.181-12.287-6.076        c-3.847-3.892-5.914-8.069-6.198-12.53c-0.283-4.459,1.306-8.404,4.774-11.829c3.466-3.426,6.701-4.966,9.704-4.623        c0.654,0.07,1.328,0.459,2.027,1.163c0.698,0.708,1.419,1.7,2.163,2.977c1.487,2.687,1.916,4.667,1.288,5.937        c-0.099,0.163-0.272,0.366-0.519,0.608c-0.246,0.244-0.745,0.348-1.496,0.311c-2.548-0.015-4.208,0.359-4.98,1.122        c-0.773,0.763-1.049,1.815-0.828,3.155C109.634,120.171,110.622,121.729,112.375,123.501z"/>
					</g>
					<g>
						<path style="fill:#F7EDE5;" d="M108.339,85.232c-0.426-0.604,1.077-2.118,4.51-4.544c3.287-2.152,5.065-3.039,5.331-2.663        l15.353,21.733l-1.714-14.316c-0.137-0.752,1.268-2.167,4.211-4.247c2.943-2.079,4.962-3.223,6.059-3.432l1.118,17.195        l19.724,9.906c0.182,0.1-0.438,0.722-1.863,1.867c-1.424,1.147-2.626,2.069-3.607,2.761c-3.622,2.558-5.685,3.762-6.189,3.608        l-14.478-8.605l8.836,12.508c0.346,0.49-1.132,1.901-4.433,4.234c-3.302,2.333-5.112,3.272-5.432,2.819L108.339,85.232z"/>
					</g>
					<g>
						<path style="fill:#F7EDE5;" d="M190.439,92.581c0.216,0.511-1.464,1.521-5.04,3.028c-4.329,1.624-6.573,2.246-6.735,1.863        l-9.53-22.603l-3.256,1.373c-0.852,0.359-1.896-0.93-3.135-3.867c-0.323-0.767-0.644-1.733-0.96-2.904        c-0.318-1.168-0.243-1.851,0.226-2.049l3.384-1.428l-2.369-5.618c-0.359-0.852,1.259-2.036,4.857-3.552        c3.596-1.517,5.539-1.934,5.826-1.253l1.723,4.085l0.818,1.761l5.428-2.289c0.723-0.306,1.714,1.033,2.969,4.011        c1.257,2.98,1.522,4.623,0.799,4.928l-4.533,1.912L190.439,92.581z"/>
					</g>
					<g>
						<path style="fill:#F7EDE5;" d="M199.754,85.17c-3.58-2.383-6.06-6.306-7.44-11.771c-1.381-5.465-1.062-10.096,0.957-13.893        c2.017-3.798,5.401-6.296,10.149-7.496c4.747-1.199,8.899-0.604,12.458,1.784c3.557,2.389,6.027,6.317,7.407,11.78        c1.381,5.466,1.072,10.093-0.923,13.885c-1.997,3.792-5.369,6.288-10.116,7.486C207.498,88.144,203.334,87.553,199.754,85.17z         M206.288,63.221c-2.531,0.64-3.275,3.02-2.234,7.139c1.041,4.122,2.826,5.863,5.357,5.223c2.53-0.639,3.276-3.019,2.234-7.14        C210.604,64.323,208.818,62.582,206.288,63.221z"/>
					</g>
					<g>
						<path style="fill:#F7EDE5;" d="M247.891,68.434c3.462,0.704,6.071,1.058,7.827,1.064c1.756,0.005,3.339-0.544,4.752-1.649        c1.412-1.104,2.237-2.835,2.476-5.19c-2.313,0.641-4.161,0.958-5.546,0.954c-4.851-0.014-8.588-1.377-11.214-4.087        c-2.625-2.71-3.93-6.55-3.915-11.516c0.015-4.964,1.54-8.991,4.575-12.077c3.034-3.086,7.185-4.621,12.452-4.605        c5.266,0.016,9.406,1.877,12.421,5.581c3.014,3.705,4.511,9.161,4.489,16.367c-0.027,9.008-1.654,15.921-4.878,20.738        c-3.226,4.819-8.002,7.218-14.331,7.199c-7.854-0.024-11.776-1.353-11.768-3.985c0.004-1.386,0.287-3.197,0.848-5.437        C246.64,69.551,247.243,68.432,247.891,68.434z M259.121,43.8c-1.479-0.006-2.624,0.465-3.434,1.409        c-0.811,0.945-1.219,2.157-1.224,3.634c-0.005,1.479,0.465,2.67,1.41,3.573c0.944,0.903,2.155,1.357,3.634,1.363        c1.477,0.004,2.68-0.315,3.606-0.96c0.009-3.188-0.284-5.486-0.88-6.897C261.636,44.513,260.599,43.804,259.121,43.8z"/>
					</g>
					<g>
						<path style="fill:#F7EDE5;" d="M297.851,85.358c-5.672-1.203-9.863-4.262-12.574-9.183        c-2.711-4.918-3.218-11.379-1.523-19.377c1.696-7.999,4.785-13.659,9.268-16.983c4.482-3.322,9.581-4.379,15.298-3.166        c5.717,1.212,9.907,4.226,12.569,9.039c2.662,4.815,3.126,11.314,1.392,19.492c-1.734,8.18-4.822,13.888-9.263,17.126        C308.578,85.543,303.522,86.561,297.851,85.358z M305.426,49.636c-1.741-0.37-3.418,0.302-5.031,2.014        c-1.615,1.711-2.805,4.375-3.572,7.991c-0.767,3.616-0.777,6.506-0.032,8.67c0.745,2.166,2.033,3.441,3.863,3.83        c1.831,0.388,3.528-0.267,5.093-1.966c1.564-1.698,2.73-4.355,3.496-7.972c0.767-3.615,0.757-6.521-0.028-8.717        C308.428,51.287,307.165,50.003,305.426,49.636z"/>
					</g>
					<g>
						<path style="fill:#F7EDE5;" d="M336.84,64.383c-0.604-0.235-1.173-0.556-1.707-0.962c-1.072-0.814-1.457-1.608-1.155-2.383        l5.305-13.624c0.302-0.774,1.445-0.974,3.431-0.598c0.971,0.18,1.93,0.455,2.877,0.824c0.946,0.368,1.86,0.823,2.74,1.364        c1.716,1.066,2.425,1.985,2.123,2.759l-9.181,12.116c-0.302,0.775-1.144,1.092-2.526,0.95        C338.078,64.765,337.442,64.618,336.84,64.383z"/>
					</g>
					<g>
						<path style="fill:#F7EDE5;" d="M346.704,87.876c2.191,3.784,4.238,6.197,6.142,7.242c1.214,0.667,2.056,0.575,2.522-0.274        c0.334-0.608-0.287-1.976-1.858-4.103c-3.93-4.843-4.605-9.613-2.027-14.312c1.645-2.995,3.994-4.684,7.047-5.065        c3.054-0.379,6.109,0.27,9.167,1.948c3.057,1.678,5.471,3.425,7.243,5.24c1.77,1.814,2.367,3.248,1.789,4.302        c-0.489,0.891-1.569,1.825-3.24,2.805c-1.671,0.98-2.701,1.442-3.092,1.386c-1.209-1.928-2.825-3.447-4.85-4.558        c-1.093-0.6-1.851-0.515-2.273,0.254c-0.267,0.487-0.283,1.019-0.046,1.596c0.236,0.578,0.782,1.43,1.639,2.559        c0.855,1.129,1.547,2.101,2.075,2.917c0.526,0.816,1.056,1.844,1.587,3.084c1.1,2.607,0.971,5.145-0.384,7.615        c-1.779,3.241-4.291,5.272-7.537,6.1c-3.248,0.826-7.037,0.051-11.37-2.326c-2.876-1.578-5.222-3.498-7.037-5.758        c-1.815-2.261-2.257-4.242-1.323-5.943c0.622-1.133,1.551-2.179,2.787-3.134C344.902,88.496,345.914,87.969,346.704,87.876z"/>
					</g>
				</g>
			</g>
		</g>
		<g>
			<g>
				<g>
					<path style="fill:#F7EDE5;" d="M415.227,376.77l-15.35,3.831l-3.831,15.35c-0.739,2.962-4.948,2.962-5.687,0l-3.831-15.35       l-15.35-3.831c-2.962-0.739-2.962-4.948,0-5.687l15.35-3.831l3.831-15.35c0.739-2.962,4.948-2.962,5.687,0l3.831,15.35       l15.35,3.831C418.188,371.821,418.188,376.03,415.227,376.77z"/>
				</g>
			</g>
			<g>
				<g>
					<path style="fill:#F7EDE5;" d="M150.129,195.503l-15.951,3.981l-3.981,15.951c-0.768,3.078-5.142,3.078-5.91,0l-3.981-15.951       l-15.951-3.981c-3.078-0.768-3.078-5.142,0-5.91l15.951-3.981l3.981-15.951c0.768-3.078,5.142-3.078,5.91,0l3.981,15.951       l15.951,3.981C153.206,190.361,153.206,194.736,150.129,195.503z"/>
				</g>
			</g>
		</g>
	</g>
	<g>
		<g>
			<polygon style="fill:#FFFFFF;" points="383.002,421.174 383.002,454.364 371.512,454.364 370.745,452.511 367.962,454.364      354.882,454.364 353.191,452.191 351.882,454.364 256.702,454.364 255.425,452.574 253.712,454.364 246.122,454.364      244.362,451.979 243.122,454.364 170.572,454.364 170.572,421.174 243.122,421.174 244.447,423.723 246.122,421.174      257.212,421.174 259,422.787 260.452,421.174 351.882,421.174 353.128,423.851 354.882,421.174 369.342,421.174 370.489,422.83      372.352,421.174    "/>
			<rect x="161.894" y="419.638" style="fill:#412945;" width="69.787" height="36.766"/>
			<g>
				<g>
					<rect x="243.122" y="421.174" style="fill:#412945;" width="3" height="33.19"/>
				</g>
				<g>
					<path style="fill:#412945;" d="M260.112,448.144c-0.27,0.37-0.55,0.74-0.83,1.1c-1,1.3-1.95,2.53-2.39,3.9       c-0.12,0.38-0.18,0.8-0.19,1.22h-2.99c0-0.73,0.11-1.46,0.33-2.13c0.6-1.88,1.75-3.37,2.86-4.82c0.27-0.34,0.54-0.69,0.79-1.04       c1.41-1.92,1.99-3.49,1.78-4.82c-0.2-1.26-1.11-2.44-2.08-3.69c-1.31-1.7-2.79-3.62-2.63-6.13c0.11-1.67,0.95-3.04,1.69-4.24       c0.38-0.62,0.74-1.2,0.99-1.78c0.6-1.42,0.45-3.11-0.23-4.54h3.24c0.55,1.85,0.52,3.87-0.25,5.7c-0.33,0.8-0.77,1.51-1.19,2.19       c-0.64,1.04-1.2,1.94-1.26,2.87c-0.09,1.37,0.89,2.63,2.02,4.1c1.1,1.42,2.34,3.04,2.66,5.05       C262.782,443.244,262.022,445.554,260.112,448.144z"/>
				</g>
				<g>
					<rect x="351.882" y="421.174" style="fill:#412945;" width="3" height="33.19"/>
				</g>
				<g>
					<path style="fill:#412945;" d="M372.422,452.504c-0.28,0.66-0.58,1.28-0.91,1.86h-3.55c0.72-0.95,1.28-2.05,1.7-3.03       c1.43-3.36,2.07-7.77-0.42-10.07c-0.47-0.43-1.07-0.8-1.71-1.19c-1.16-0.72-2.47-1.54-3.27-2.96       c-1.03-1.82-0.94-4.27,0.26-6.56c0.59-1.14,1.35-2.11,2.08-3.05c0.38-0.49,0.76-0.98,1.1-1.48c0.59-0.86,1.78-2.85,1.64-4.85       h3.01c0.12,2.72-1.23,5.18-2.17,6.55c-0.39,0.55-0.8,1.09-1.21,1.62c-0.68,0.87-1.32,1.7-1.79,2.59       c-0.56,1.08-0.93,2.61-0.31,3.7c0.42,0.75,1.27,1.28,2.25,1.89c0.72,0.45,1.47,0.91,2.15,1.54       C374.362,441.904,374.792,446.934,372.422,452.504z"/>
				</g>
				<g>
					<path style="fill:#412945;" d="M306.272,426.314c-18.98,0-39.41,3.14-39.41,10.05c0,6.91,20.43,10.05,39.41,10.05       c18.99,0,39.42-3.14,39.42-10.05C345.692,429.454,325.262,426.314,306.272,426.314z M306.272,443.414       c-23.56,0-36.41-4.66-36.41-7.05c0-2.4,12.85-7.05,36.41-7.05c23.57,0,36.42,4.65,36.42,7.05       C342.692,438.754,329.842,443.414,306.272,443.414z"/>
				</g>
			</g>
		</g>
		<g>
			<polygon style="fill:#FFFFFF;" points="397.225,234.276 380.231,262.785 370.362,256.902 370.651,254.918 367.312,255.085      356.077,248.388 355.737,245.656 353.5,246.852 271.743,198.117 271.562,195.927 269.175,196.587 262.655,192.7 262.364,189.75      260.078,191.164 197.76,154.017 214.753,125.508 277.072,162.655 276.904,165.523 279.649,164.191 289.175,169.869      289.884,172.171 291.958,171.528 370.494,218.342 370.193,221.28 373.071,219.878 385.492,227.282 385.629,229.292      388.077,228.823    "/>
			
				<rect x="193.752" y="135.019" transform="matrix(0.859 0.512 -0.512 0.859 110.7899 -95.437)" style="fill:#6E72FF;" width="69.787" height="36.766"/>
			<g>
				<g>
					
						<rect x="253.269" y="176.178" transform="matrix(0.512 -0.859 0.859 0.512 -20.9326 318.5082)" style="fill:#412945;" width="33.19" height="3"/>
				</g>
				<g>
					<path style="fill:#412945;" d="M277.857,194.521c-0.421,0.18-0.851,0.354-1.276,0.52c-1.525,0.605-2.97,1.175-4.05,2.126       c-0.298,0.265-0.564,0.595-0.788,0.951l-2.568-1.531c0.374-0.627,0.842-1.198,1.374-1.661c1.478-1.308,3.229-1.999,4.925-2.676       c0.406-0.154,0.817-0.316,1.211-0.489c2.194-0.927,3.496-1.979,3.997-3.229c0.473-1.185,0.296-2.664,0.103-4.235       c-0.255-2.131-0.543-4.538,0.88-6.612c0.949-1.378,2.372-2.125,3.623-2.777c0.644-0.338,1.25-0.652,1.762-1.022       c1.242-0.912,1.979-2.441,2.127-4.018l2.783,1.659c-0.475,1.871-1.535,3.59-3.133,4.768c-0.693,0.518-1.435,0.903-2.143,1.272       c-1.082,0.566-2.024,1.052-2.552,1.82c-0.779,1.131-0.582,2.715-0.364,4.556c0.218,1.783,0.453,3.809-0.301,5.7       C282.659,191.679,280.824,193.274,277.857,194.521z"/>
				</g>
				<g>
					
						<rect x="346.691" y="231.865" transform="matrix(0.512 -0.859 0.859 0.512 -23.1783 425.9299)" style="fill:#412945;" width="33.19" height="3"/>
				</g>
				<g>
					<path style="fill:#412945;" d="M372.096,255.771c-0.578,0.424-1.154,0.803-1.734,1.132l-3.049-1.818       c1.105-0.447,2.149-1.105,3.012-1.732c2.949-2.154,5.757-5.614,4.795-8.865c-0.183-0.61-0.509-1.235-0.859-1.898       c-0.628-1.212-1.333-2.588-1.293-4.217c0.047-2.091,1.379-4.149,3.582-5.502c1.091-0.677,2.24-1.121,3.348-1.555       c0.577-0.226,1.155-0.453,1.703-0.708c0.947-0.437,2.988-1.537,3.892-3.326l2.586,1.541c-1.29,2.398-3.709,3.82-5.218,4.515       c-0.617,0.273-1.245,0.527-1.869,0.772c-1.03,0.399-2.004,0.784-2.864,1.308c-1.034,0.641-2.135,1.766-2.161,3.02       c-0.023,0.859,0.436,1.75,0.965,2.775c0.388,0.755,0.797,1.534,1.058,2.424C379.19,247.659,376.983,252.2,372.096,255.771z"/>
				</g>
				<g>
					<path style="fill:#412945;" d="M328.684,199.404c-16.303-9.718-35.46-17.481-38.998-11.546       c-3.538,5.936,12.403,19.093,28.706,28.811c16.312,9.723,35.468,17.487,39.007,11.551       C360.937,222.285,344.996,209.127,328.684,199.404z M319.929,214.092c-20.237-12.063-28.889-22.645-27.666-24.698       c1.229-2.062,14.648,0.524,34.885,12.587c20.246,12.068,28.903,22.642,27.674,24.703       C353.599,228.738,340.175,226.161,319.929,214.092z"/>
				</g>
			</g>
		</g>
		<g>
			<path style="fill:#412945;" d="M76.653,277.286l-9.401-3.408c8.866-24.459,27.385-45.787,52.145-60.053     c21.556-12.42,48.052-19.517,76.625-20.525c6.817-0.24,13.69-0.144,20.338-0.051c5.432,0.076,11.048,0.155,16.53,0.045     c26.166-0.524,51.919-5.281,76.544-14.14c8.64-3.107,17.303-6.793,25.682-10.358c11.027-4.692,22.429-9.543,34.155-13.259     c25.221-7.992,47.477-8.785,66.149-2.359c18.572,6.392,36.496,24.404,33.133,45.194c-2.318,14.333-14.451,26.63-32.455,32.896     c-7.25,2.523-14.746,4.019-21.994,5.464c-6.978,1.392-13.569,2.707-19.96,4.86l-3.193-9.477c7-2.359,14.217-3.798,21.198-5.19     c7.233-1.442,14.065-2.805,20.663-5.102c11.177-3.89,23.843-12.514,25.87-25.049c2.399-14.833-11.598-29.007-26.516-34.141     c-16.599-5.713-36.744-4.894-59.875,2.436c-11.271,3.571-22.45,8.328-33.261,12.927c-8.507,3.62-17.304,7.362-26.212,10.567     c-25.649,9.227-52.474,14.182-79.729,14.728c-5.65,0.114-11.354,0.034-16.87-0.044c-6.526-0.091-13.275-0.187-19.846,0.046     c-26.947,0.95-51.839,7.588-71.985,19.196C101.669,235.58,84.716,255.04,76.653,277.286z"/>
			<path style="fill:#FFC063;" d="M406.868,247.901c0.25,3.92-1.83,7.62-5.31,9.47l-17.89,9.47l-2.336-2.643l-0.424,4.113     l-0.69,0.36c0,0,2.61,7.6,3.89,19.04c0.062,0.525-3.169,0.453-3.116,0.998c0.049,0.504,3.383,1.623,3.426,2.142     c0.035,0.418,0.068,0.84,0.099,1.266c1.53,21.028-2.196,51.881-30.659,73.934c-0.595,0.469-4.97-0.564-5.59-0.108     c-0.504,0.371,2.75,2.23,2.23,2.598c-15.25,10.72-36.93,19.05-67.49,22.62c-90.41,10.57-133.82,3.29-154.82-14.88     c-0.345-0.297,1.221-4.417,0.889-4.721c-0.419-0.383-2.733,3.047-3.129,2.651c-6.41-6.26-10.46-13.68-13.06-22.02     c-1.26-4.03-2.47-7.99-3.63-11.83c-0.392-1.31,0.541-7.985,0.159-9.269c-0.28-0.941-1.879,3.501-2.149,2.579     c-6.12-20.72-10.44-37.18-11.9-42.79c-0.35-1.35-0.53-2.07-0.53-2.07l-3.97-0.18l-21.02-0.93c-5.31-0.23-9.5-4.56-9.56-9.87     l-0.14-10.7c-0.06-5.13,3.77-9.48,8.87-10.06l20.62-2.35l1.396,4.967l1.594-5.307l279.39-31.75l2.25,5.057l0.75-5.397l19.56-2.22     c5.68-0.64,10.75,3.6,11.11,9.31L406.868,247.901z"/>
			<g>
				<g>
					<g>
						<g>
							<path style="fill:#412945;" d="M93.944,290.943c-0.592,0.034-0.933,0.049-1.013,0.056c-0.05,0.008-0.09,0.006-0.14,0.004         c-0.769-0.034-1.393-0.652-1.429-1.424c-0.015-0.341,0.079-0.657,0.25-0.91l-0.749-0.033l-1.222-33.916l2.988-0.339         l0.688,19.199l0.108,3.008l0.411,11.369l0.034,0.812L93.944,290.943z"/>
						</g>
						<g>
							<path style="fill:#412945;" d="M383.672,266.837l-2.767,1.47l-1.102-5.674l-0.57-2.968l-2.581-13.236l-0.571-2.948         l-4.059-20.848l2.998-0.339l4.204,21.635c0,0,0,0,0,0.01l0.228,1.191l-0.001,0.01L383.672,266.837z"/>
						</g>
					</g>
					<g>
						<path style="fill:#412945;" d="M92.398,276.674c-0.729-0.032-1.344-0.592-1.424-1.34c-0.088-0.824,0.509-1.563,1.333-1.651        l285.524-30.39c0.826-0.085,1.563,0.509,1.651,1.333c0.087,0.824-0.509,1.563-1.333,1.65L92.625,276.667        C92.549,276.675,92.473,276.677,92.398,276.674z"/>
					</g>
					<g>
						<path style="fill:#412945;" d="M381.293,262.198c-0.487,0.149-0.983,0.287-1.491,0.435        c-59.585,16.811-259.958,27.055-284.434,28.252c-0.572,0.025-1.043,0.044-1.424,0.057c-0.592,0.034-0.933,0.049-1.013,0.056        c-0.05,0.008-0.09,0.006-0.14,0.004c-0.769-0.034-1.393-0.652-1.429-1.424c-0.015-0.341,0.079-0.657,0.25-0.91        c0.257-0.379,0.689-0.64,1.18-0.659c0.08-0.007,0.431-0.021,1.043-0.054c16.691-0.808,225.156-11.137,285.397-28.29        c0.405-0.112,0.811-0.235,1.206-0.347c0.801-0.235,1.632,0.222,1.867,1.013S382.084,261.963,381.293,262.198z"/>
					</g>
				</g>
				<g>
					<g>
						<path style="fill:#6E72FF;" d="M243.8,307.006c0,0-45.336-35.394-65.012-8.739c-19.676,26.655,72.501,85.335,72.501,85.335        s66.597-65.463,45.011-92.508C274.713,264.049,243.8,307.006,243.8,307.006z"/>
						<g>
							<g>
								<path style="fill:#F7EDE5;" d="M211.637,340.986c1.704-0.016,2.969-0.112,3.797-0.286c0.829-0.174,1.52-0.592,2.075-1.255          c0.554-0.663,0.77-1.561,0.646-2.696c-1.026,0.534-1.866,0.87-2.52,1.007c-2.289,0.48-4.188,0.213-5.698-0.801          c-1.51-1.014-2.511-2.693-3.003-5.036c-0.492-2.342-0.177-4.395,0.943-6.155c1.121-1.76,2.925-2.901,5.41-3.423          c2.485-0.522,4.625-0.06,6.418,1.384c1.793,1.444,3.048,3.867,3.761,7.266c0.892,4.251,0.819,7.675-0.217,10.271          c-1.038,2.596-3.048,4.207-6.034,4.833c-3.706,0.778-5.689,0.546-5.951-0.697c-0.137-0.653-0.185-1.536-0.146-2.648          C211.159,341.638,211.331,341.051,211.637,340.986z M214.457,328.241c-0.698,0.147-1.19,0.483-1.478,1.01          c-0.288,0.527-0.358,1.139-0.211,1.837c0.147,0.698,0.488,1.212,1.024,1.543c0.535,0.332,1.151,0.424,1.85,0.278          c0.697-0.146,1.232-0.418,1.604-0.815c-0.317-1.503-0.686-2.557-1.108-3.164          C215.715,328.324,215.154,328.095,214.457,328.241z"/>
							</g>
							<g>
								<path style="fill:#F7EDE5;" d="M241.101,341.083c-2.736,0.574-5.181,0.04-7.335-1.601c-2.153-1.641-3.636-4.391-4.446-8.249          c-0.81-3.858-0.55-6.956,0.781-9.296c1.33-2.339,3.373-3.797,6.131-4.376c2.757-0.579,5.192-0.066,7.304,1.539          c2.112,1.605,3.582,4.38,4.41,8.326c0.829,3.946,0.579,7.064-0.749,9.358C245.867,339.076,243.835,340.509,241.101,341.083z           M237.484,323.852c-0.839,0.176-1.449,0.8-1.826,1.869c-0.379,1.07-0.385,2.476-0.019,4.22          c0.366,1.744,0.925,3.021,1.674,3.83c0.75,0.81,1.567,1.121,2.45,0.936c0.882-0.185,1.502-0.804,1.862-1.859          c0.36-1.053,0.355-2.452-0.01-4.196c-0.366-1.744-0.937-3.023-1.71-3.84C239.13,323.997,238.321,323.676,237.484,323.852z"/>
							</g>
							<g>
								<path style="fill:#F7EDE5;" d="M255.848,322.626c-0.306,0.065-0.619,0.085-0.943,0.062          c-0.648-0.047-1.012-0.266-1.094-0.658l-1.447-6.899c-0.083-0.392,0.326-0.774,1.227-1.145          c0.439-0.184,0.899-0.325,1.378-0.426c0.479-0.1,0.969-0.158,1.466-0.171c0.975-0.022,1.503,0.163,1.585,0.555l-0.514,7.31          c0.082,0.392-0.174,0.742-0.77,1.049C256.449,322.455,256.153,322.562,255.848,322.626z"/>
							</g>
							<g>
								<path style="fill:#F7EDE5;" d="M269.206,328.698c1.99,0.697,3.497,0.938,4.522,0.723c0.653-0.137,0.933-0.435,0.837-0.892          c-0.069-0.327-0.726-0.633-1.968-0.918c-2.96-0.54-4.704-2.074-5.234-4.603c-0.339-1.613-0.008-2.968,0.99-4.066          c0.999-1.097,2.321-1.818,3.967-2.164c1.645-0.345,3.077-0.463,4.294-0.355c1.217,0.109,1.886,0.446,2.005,1.012          c0.101,0.48,0,1.162-0.305,2.044c-0.304,0.883-0.537,1.376-0.696,1.478c-1.048-0.327-2.116-0.375-3.206-0.147          c-0.589,0.123-0.841,0.393-0.753,0.806c0.054,0.262,0.217,0.461,0.484,0.598c0.267,0.137,0.735,0.279,1.403,0.422          c0.668,0.145,1.225,0.283,1.675,0.417c0.448,0.133,0.964,0.343,1.549,0.631c1.22,0.609,1.969,1.578,2.248,2.907          c0.367,1.745,0.085,3.277-0.843,4.598c-0.93,1.322-2.561,2.227-4.893,2.716c-1.548,0.325-3.008,0.359-4.382,0.101          c-1.374-0.258-2.158-0.845-2.349-1.76c-0.128-0.61-0.116-1.284,0.036-2.022C268.74,329.49,268.947,328.98,269.206,328.698z"/>
							</g>
						</g>
					</g>
					<g>
						<g>
							<g>
								<path style="fill:#412945;" d="M384.108,287.711c-2.24-0.44-4.49-0.57-6.54-0.46c-6.87,0.37-13.11,2.89-17.58,7.1          c-1.26,1.18-2.36,2.5-3.29,3.91c-0.21-0.08-0.42-0.16-0.64-0.24c-5.13-1.8-11.14-0.72-15.32,2.77          c-4.03,3.36-6.42,8.97-6.4,15c0.01,4.74,1.38,9.82,4.19,15.53c0.94,1.9,1.92,3.63,2.95,5.2c-2.1,1.12-3.96,2.69-5.35,4.6          c-2.9,3.96-3.79,9.32-2.35,14.01c1.48,4.77,5.31,8.92,10.5,11.36c1.89,0.89,3.96,1.58,6.22,2.05          c1.16-0.82,2.28-1.64,3.36-2.49c-3.16-0.38-5.9-1.14-8.3-2.27c-4.43-2.09-7.68-5.57-8.91-9.54          c-1.17-3.79-0.45-8.14,1.9-11.35c1.21-1.66,2.84-3,4.69-3.91c1.86,2.38,3.88,4.28,6.08,5.74c0.85,0.57,1.89,1.16,3.13,1.22          c1.54,0.08,2.93-0.71,3.81-2.15c1.03-1.69,1.1-3.9,0.17-5.51c-1.33-2.31-4.23-3.69-7.67-3.64c-1.51,0.01-3.02,0.26-4.46,0.7          c-1.08-1.58-2.1-3.36-3.08-5.34c-2.6-5.3-3.87-9.95-3.88-14.21c-0.02-5.16,1.97-9.91,5.32-12.7          c3.38-2.82,8.25-3.7,12.41-2.24c0.04,0.02,0.09,0.03,0.14,0.05c-1.7,3.57-2.37,7.51-1.82,11.25          c0.58,3.88,3.22,7.7,7.08,7.59c1.64-0.06,3.08-0.82,4.16-2.2c1.56-1.97,2.2-5.03,1.65-7.78c-0.83-4.11-3.42-7.8-6.91-10.1          c0.76-1.12,1.66-2.18,2.67-3.13c3.96-3.72,9.53-5.95,15.69-6.29c2.1-0.11,4.43,0.05,6.69,0.61          C384.328,289.771,384.228,288.721,384.108,287.711z M348.778,337.641c1.81-0.06,4.13,0.54,5.06,2.14          c0.38,0.66,0.32,1.69-0.14,2.44c-0.21,0.34-0.59,0.73-1.1,0.72c-0.51-0.02-1.11-0.38-1.62-0.72          c-1.68-1.12-3.26-2.54-4.73-4.29C347.078,337.741,347.928,337.641,348.778,337.641z M363.338,310.361          c0.37,1.86-0.06,4.05-1.06,5.32c-0.54,0.69-1.17,1.03-1.92,1.06c-2,0.08-3.62-2.5-4-5.03c-0.46-3.13,0.1-6.43,1.51-9.44          C360.638,304.131,362.668,307.081,363.338,310.361z"/>
							</g>
							<g>
								<path style="fill:#412945;" d="M164.318,336.821c-0.7,3.69-2.57,7.31-5.74,11.07c-4.01,4.77-9.02,8.56-13.87,12.23          c-1.47,1.12-2.95,2.24-4.39,3.38c-4.12,3.26-8.93,7.49-12.13,12.78c-0.78-0.67-1.53-1.36-2.24-2.07          c3.42-5.44,8.3-9.73,12.51-13.06c1.46-1.16,2.95-2.29,4.44-3.42c4.71-3.57,9.59-7.26,13.39-11.78          c2.82-3.35,4.48-6.52,5.08-9.68c0.7-3.7-0.24-7.41-2.46-9.7c-3.01-3.09-7.98-3.36-11.57-2.25          c-3.53,1.1-6.88,3.39-10.85,7.45c-3.08,3.14-5.88,6.59-8.33,10.26c-0.41,0.63-1.24,0.85-1.91,0.51          c-0.68-0.34-1-1.13-0.75-1.84c2.19-6.22,4.67-13.27,4.36-20.19c-0.17-3.71-1.98-7.69-5-7.78c-1.06-0.02-2.22,0.42-3.66,1.41          c-5.2,3.58-8.83,10-10.79,19.1c-0.51,2.34-0.89,4.72-1.15,7.12c-0.68-2.27-1.35-4.51-1.99-6.69          c0.06-0.36,0.13-0.71,0.21-1.06c2.12-9.87,6.16-16.92,12.02-20.94c1.96-1.35,3.72-1.98,5.44-1.94          c4.89,0.14,7.68,5.46,7.92,10.64c0.2,4.38-0.6,8.7-1.75,12.82c1.04-1.21,2.12-2.38,3.23-3.52          c2.92-2.98,6.94-6.61,12.12-8.21c5.45-1.69,11.18-0.5,14.6,3.02C163.948,327.461,165.198,332.191,164.318,336.821z"/>
							</g>
						</g>
						<g>
							<g>
								<path style="fill:#412945;" d="M332.628,286.251c-0.28-0.58-0.9-0.9-1.54-0.82l-9.54,1.31l-1.75-6.03          c-0.19-0.64-0.78-1.08-1.44-1.08h-0.01c-0.66,0-1.25,0.44-1.44,1.08l-2.02,6.94l-8.65,1.19c-0.6,0.08-1.09,0.51-1.24,1.08          c-0.17,0.58,0.03,1.2,0.5,1.57l6.71,5.39l-3.13,10.73c-0.19,0.66,0.09,1.36,0.69,1.71c0.23,0.14,0.49,0.21,0.75,0.21          c0.4,0,0.78-0.16,1.07-0.45l6.98-7.09l5.99,4.82c0.52,0.41,1.23,0.44,1.78,0.08c0.54-0.36,0.79-1.04,0.6-1.67l-2.64-9.06          l8.06-8.19C332.808,287.521,332.918,286.821,332.628,286.251z M318.358,286.491l0.19,0.66l-0.4,0.06L318.358,286.491z           M310.098,291.341l3.88-0.53l-0.86,2.95L310.098,291.341z M313.628,302.731l1.11-3.81l1.48,1.18L313.628,302.731z           M318.328,297.961l-2.68-2.16l1.58-5.44l2.17-0.3l1.53,5.25L318.328,297.961z M320.678,299.841l1.21-1.23l0.84,2.88          L320.678,299.841z M323.338,292.861l-0.94-3.21l4.74-0.65L323.338,292.861z"/>
							</g>
							<g>
								<path style="fill:#412945;" d="M207.868,369.081l-12.54-8.46l4.61-13.29c0.22-0.63,0-1.32-0.53-1.71          c-0.54-0.39-1.26-0.38-1.79,0.02l-11.58,8.72l-8.46-5.7c-0.54-0.36-1.24-0.34-1.75,0.05c-0.51,0.39-0.72,1.06-0.51,1.67          l3.24,9.62l-7.15,5.38c-0.49,0.37-0.71,1.01-0.54,1.6c0.16,0.59,0.67,1.03,1.28,1.09l9.48,1.02l3.9,11.59          c0.2,0.6,0.77,1.01,1.41,1.02c0.01,0,0.01,0,0.01,0c0.64,0,1.21-0.41,1.42-1.01l3.63-10.48l14.88,1.61          c0.68,0.07,1.33-0.33,1.56-0.98C208.678,370.191,208.448,369.471,207.868,369.081z M176.248,365.501l3.32-2.51l1,2.97          L176.248,365.501z M181.078,358.101l-1.5-4.48l3.93,2.65L181.078,358.101z M186.968,375.561l-2.06-6.11l4.03,0.43          L186.968,375.561z M189.948,366.971l-6.1-0.65l-1.76-5.23l4.05-3.05l5.6,3.78L189.948,366.971z M188.668,356.141l6.82-5.14          l-2.73,7.89L188.668,356.141z M193.008,367.301l1.3-3.74l6.87,4.62L193.008,367.301z"/>
							</g>
						</g>
					</g>
				</g>
			</g>
		</g>
	</g>
</g>
<g>
</g>
<g>
</g>
<g>
</g>
<g>
</g>
<g>
</g>
<g>
</g>
<g>
</g>
<g>
</g>
<g>
</g>
<g>
</g>
<g>
</g>
<g>
</g>
<g>
</g>
<g>
</g>
<g>
</g>
</svg>
