<svg id="Layer_1" enable-background="new 0 0 512 512" viewBox="0 0 512 512" xmlns="http://www.w3.org/2000/svg"><path d="m216.9 153c-1.9 33.7-13 63.3-37.1 87.7-11.1 11.2-23.2 20.4-38 25.8-14.1 5.1-28.8 5.6-43.6 4.1-2.8-.3-4.5.2-6.1 2.6-3.4 5.2-7.2 10.1-10.9 15.1-2.1 2.8-4.7 4.6-8.2 3.2-4.1-1.6-8.2-3.8-8.6-8.6-.4-4.2 2.6-7.3 5.8-9.6 5-3.6 9.7-7.4 13.8-12 .8-.9 1.3-1.7 1-3.1-4.1-21.2-2.2-41.6 9.5-60.2 15.8-25.2 37.7-43.1 65.8-53.2 16.2-5.8 32.8-9.2 50.1-9.3 3.3 0 5.7 2 5.9 5.5.4 4 .4 8 .6 12z" fill="#69952f"/><path d="m258 403.7c-21.7-1.8-41.4-8-56.1-25.2-6-7-9.2-15.5-11.6-24.3-.5-1.8-1.3-2.6-3-3-3.4-.8-6.7-1.7-10.1-2.6-2.4-.7-5-1.3-5.3-4.4-.2-2.8.3-5.7 2.9-7.3 2.7-1.6 5.4-.3 7.7 1.2 3.1 2.1 6.3 4 9.8 5.3.9.4 1.6.5 2.5-.1 17.6-11 35.6-11.1 54.4-3.1s32.3 21.5 42.4 38.9c2.2 3.8 3.8 7.9 5.5 11.9 1 2.4-.4 3.9-2.6 4.9-8.6 4.1-17.6 6.6-27.1 7.1-3 .3-6.2.5-9.4.7z" fill="#69952f"/><path d="m384.3 205.1c-8.2-.3-15.3-1.8-22.1-4.5-2.1-.8-3.3-.5-4.8.9-2.2 2-4.5 3.7-6.8 5.5-1.7 1.4-3.5 2.9-5.9 1.5-2.1-1.3-4-3.2-3.8-5.9.2-2.8 2.5-4 4.7-4.8 3.1-1.3 6.2-2.5 9.1-4.3.9-.5 1.5-1 1.6-2.3 1.1-15.6 7.9-28.1 20.6-37.2 20.8-14.9 43.8-18 68.3-12 2.5.6 3.1 2.5 2.6 4.6-.9 3.9-1.7 7.9-3.2 11.6-8.9 21.7-24.3 36.8-46.5 44.6-2.6.9-5.3 1.3-8 1.8-2.2.3-4.4.4-5.8.5z" fill="#69952f"/><g fill="#3981bf"><path d="m173.6 273.9c0-.9.8-1.2 1.3-1.7 6.7-5.4 13-11.3 18.8-17.6 1.3-1.4 2.7-1.9 4.6-1.9 31.3 0 62.7 0 94-.1 6.7 0 13.3-.7 20-1 14-.7 28 0 41.7 2.9 12.4 2.6 24.5 6.3 34.2 15 12.9 11.6 17.8 26.4 15.8 43.5-2.8 23.8-23 43.5-44.9 48-18.4 3.8-34.2-1.8-46.6-15.9-11.9-13.6-11.2-32.6 1.2-46.7 8.4-9.6 19.3-14.2 31.9-14.8 5.8-.3 10.4 3.9 11 9.7.6 5.5-3.4 10.8-9 11.5-3.6.5-7.2.9-10.6 2.4-3.9 1.8-7.1 4.6-9.3 8.3-4.4 7.3-2.1 14.9 5.9 20.2 10 6.7 20.2 6.7 30.4.7 11.2-6.6 18.7-16 19-29.5.3-12-5.2-20.9-16.2-26-11.8-5.5-24.5-7.1-37.3-8-12.7-.9-25.4.2-38 1.8-5.3.6-10.4-.4-15.5-.4-33.2-.1-66.4 0-99.5-.1-1 .1-2 .4-2.9-.3z"/><path d="m259.9 199.7c-8.5 0-17 0-25.5 0-2.1 0-2.5-.5-1.6-2.5 2.4-5.3 4.4-10.8 5.9-16.5.5-1.8 1.2-2.5 3.2-2.5 17.4.1 34.7-.9 52-2.7 11.4-1.2 22.1-4.3 30.4-12.9 4.7-4.9 7.9-10.4 5.2-17.3-3.4-8.9-10.1-14.2-19.6-15.4-6.4-.8-12.4.5-17.5 4.7-1.4 1.2-2.7 2.5-3.4 4.2s-.6 3.2.6 4.6 2.6 1.9 4.4 1.5c1.4-.3 2.5-.9 3.7-1.7 5.9-3.8 12-2.6 15.6 2.9 3.3 5.1 1.8 11.2-3.7 15-13.1 8.9-29.4 6.4-37.9-5.8-7.9-11.3-5.6-25.9 5.6-36 18.8-16.9 49.6-14.2 65.2 5.8 8.9 11.5 12.3 24.1 6.7 38-4.6 11.4-13.2 19.3-23.8 25.2-10.4 5.8-21.8 7.7-33.4 8.9-10.7 1.2-21.4 1.7-32.1 2.5z"/><path d="m276.9 236.4c-21.3 0-42.6 0-63.9 0-.9 0-2.1.5-2.6-.3-.6-1 .7-1.7 1.2-2.5 3.7-5.1 7.3-10.3 10.4-15.8 1.2-2.1 2.6-2.8 5-2.8 35.4.1 70.7.1 106.1.1h7.4c6.6.1 11.4 4.7 11.3 10.9-.1 6-4.9 10.5-11.4 10.5-21.1-.1-42.3-.1-63.5-.1z"/><path d="m216.6 313.2c-14.1 0-28.1 0-42.2 0-6.7 0-11.4-4.4-11.4-10.7 0-6 4.7-10.6 11.2-10.6h84.9c6 0 10.6 4.7 10.7 10.6 0 6.1-4.5 10.7-10.8 10.7-14.1 0-28.3 0-42.4 0z"/></g><path d="m80.9 289c4.8-5.6 8.6-11.8 13-17.6.6-.9.6-1.6-.2-2.1-2-1.2-1.1-2.2 0-3.4 8-8.8 16-17.5 24.1-26.3 1.9-2.1 3.6-3.5 7.2-3.7 19.6-1.3 39.2-2.5 58.9-3.2 3.8-.1 5.4-2.2 7.5-5.1-22 .9-43.5 1.9-64.9 3.7-.1-.9.4-1.2.8-1.6 7.6-8 15.4-15.9 22.9-24 2.3-2.4 4.5-3.8 8-4.2 10.1-1.1 20.1-2.6 30.2-3.6 6.2-.6 12.4-1.2 18.6-1.7 2.7-.2 2.8-2.4 2.8-3.9.1-1.9-1.8-.8-2.8-.8-11.8.9-23.5 2-35.2 3.6-4 .5-8 1-12.6 1.6.7-.9 1-1.2 1.3-1.5 5.7-5.7 11.3-11.5 17.1-17 12.4-12 24.9-23.9 37.5-35.8 1.8-1.7 1.7-3.1.3-4.7-1.8-2-2.5.4-3.4 1.1-14.2 13.3-28.4 26.7-42.2 40.3-.6.5-1 1.3-2.2 1.5.1-2 .2-4 .4-6 .9-10.3 1.8-20.6 2.6-30.9.1-.8.7-1.9-.6-2.3s-3.9 1.3-4.1 2.7c-1.1 13.4-2.3 26.8-3.3 40.2-.1 1.4-.3 2.3-1.3 3.3-7.2 7.4-14.4 14.8-21.6 22.2-.5.5-.9 1.5-2 1.3 1.3-19.3 2.6-38.6 4-58.1-4.1 1.1-5.1 3.5-5.3 7.2-1 17.5-2.3 35-3.5 52.5 0 .7-.3 1.5 0 2.2.6 1.5-.2 2.4-1.1 3.3-7.3 7.7-14.6 15.4-21.9 23.1-.5.5-.8 1.2-2 1.3-1-20.4-.5-40.8-.9-61.5-3.3 2.6-4.7 5.2-4.7 9.1.2 18.6.1 37.1 1 55.7.1 1.7-.4 2.9-1.5 4.2-3.5 3.7-6.9 7.6-10.3 11.4-2.7 3-2.8 3.1-5.1-.3-1.1-1.7-1.6-1.1-2.5-.1-3.4 4-7.2 7.5-11.6 10.4-2.3 1.5-4.2 3.3-5.9 5.5-3.3 4.3-3.1 7.6 1 11.2 1.1 1 2.3 1.8 3.6 2.5 3.9 2.5 6.8 2 9.9-1.7z"/><path d="m293.2 396.4c1.8.2 3.3-.6 4-2.2.7-1.8-1.3-1.6-2.2-2-14.5-6.3-29-12.6-43.3-19.3-.9-.4-1.9-.5-2.6-1.8 2.7-.8 5.3-1.6 7.8-2.4 6.7-2.1 13.4-4.3 20.1-6.5.6-.2 1.9 0 1.5-1.4-.6-1.8-3.1-2.9-5-2.3-9.7 3-19.4 6-29.1 9-1.7.5-3.1.4-4.7-.3-7.6-3.5-15.2-6.8-22.7-10.3-.7-.3-1.6-.4-2.2-1.4 13.1-4.8 26.2-9.1 40.1-12.5-3.6-2.5-6.6-3.4-10.6-2.2-8.1 2.5-16.3 5-24.3 7.8-4.1 1.4-8.3 4-12.4 3.9s-8.1-3-12.2-4.7c-1.4-.6-3.3-.8-2-3.3.6-1.1-.7-1.2-1.4-1.4-3-1.2-6-2.7-8.6-4.6-1.3-.9-2.6-1.5-4.1-1.9-4.1-1-5.6-.2-6.9 3.9s-.4 6.5 3.2 7.7c3.4 1.1 6.9 1.7 10.2 2.9 2.1.8 4.3-.3 6.3.5 9.9 4.1 19.7 8.3 29.5 12.5 1 .4 1.5 1 1.9 2.1 3.4 10 6.9 20.1 10.3 30.1 1.3 3.8 1.9 4.3 6.5 4.7-3.7-11.1-7.4-22-11.2-33.1.5.1.8 0 1 .1 7.7 3.6 15.4 7.1 23.1 10.7.6.3 1.1.5 1.4 1.2 1.8 3.8 3.7 7.6 5.5 11.3 1.7 3.5 3.5 7 5.2 10.6 1.1 2.4 3.4 1.6 4.8 1.1 1.7-.6 0-2-.4-2.8-2.1-4.4-4.3-8.7-6.4-13-.7-1.3-1.3-2.6-2.3-4.6 1.5.6 2.3.9 3 1.2 9.1 4 18.3 8 27.4 12 .6.2 1.2.6 1.8.7z"/><path d="m447.2 143.2c-.4-1.6-2.4-1.6-3.9-1.8-1.2-.2-2.1.5-3 1.1-11.3 6.5-22.5 13-33.8 19.4-.8.4-1.4 1.1-2.8 1.2 3.2-7.8 6.4-15.4 9.6-23.1-4.8-.4-4.9-.4-6.6 3.6-2 4.7-4.3 9.3-5.8 14.2-2.2 7.2-6.2 12.6-13.2 15.6-1.5.6-2.8 1.7-4.2 2.6-2.9 1.8-5.8 3.6-9.3 5.8 3.1-11.5 6.6-22.1 10.8-32.9-4.1 1.7-6.7 3.6-7.9 7.6-2.9 9-5.8 17.9-8.2 27-.3 1-.2 2.2-1.2 2.7-4.3 2-7.1 5.8-12.2 7.1-4.4 1.1-9.2 3.3-13.1 6.3-2.2 1.7-2.3 3.7-.4 6.5 2 2.9 4.3 3.8 6.6 2.4 1.8-1.1 3.6-2.3 5-3.8 1.9-2.1 6-2.5 5.4-6.7 0-.2.5-.5.8-.7 6.8-4.6 13.6-9.2 20.4-13.8.7-.4 1.2-.8 2.2-.5 10.5 2.9 21 5.6 31.4 8.7 3.5 1.1 5.9.2 8.4-2.7-11.8-3.2-23.4-6.3-35.1-9.4.6-1.2 1.5-1.5 2.3-2 6.5-4 13-7.9 19.4-11.9 1.6-1 3.2-1.5 5.2-1.3 8 .6 16.1 1 24.1 1.7 2.2.2 3.3-.7 4.2-2.6.8-1.7.7-2.2-1.3-2.2-6.5.1-13-.6-19.4-1.1-.6-.1-1.4.2-2.1-.8 8.4-4.7 16.6-9.4 24.9-14.1 1.2-.5 3.2-.7 2.8-2.1z"/></svg>