<?xml version="1.0" encoding="UTF-8"?>
<!-- Generator: Adobe Illustrator 25.3.1, SVG Export Plug-In . SVG Version: 6.00 Build 0)  -->
<svg xmlns="http://www.w3.org/2000/svg" xmlns:xlink="http://www.w3.org/1999/xlink" version="1.1" id="Capa_1" x="0px" y="0px" viewBox="0 0 512 512" style="enable-background:new 0 0 512 512;" xml:space="preserve" width="512" height="512">
<g>
	<path style="fill:#FFFFFF;" d="M256.011,512c-28.918,0-57.267-4.778-84.262-14.198c-38.91-13.558-74.412-36.688-102.656-66.886   c-5.441-5.799-10.675-11.94-15.545-18.236c-13.473-17.369-24.67-36.438-33.268-56.663C8.037,327.176,1.28,296.652,0.192,265.288   C0.063,262.593,0,259.583,0,255.989C0,138.132,79.777,35.981,194,7.58c1.473-0.387,3.102-0.763,4.751-1.139   c6.475-1.486,13.095-2.726,19.663-3.684c3.825-0.577,7.37-1.02,10.767-1.343C237.932,0.481,247.01,0,256.011,0   c41.927,0,83.503,10.362,120.236,29.97C432.069,59.715,474.768,108.737,496.47,168c3.61,9.897,6.616,20.008,8.943,30.073   c4.371,18.862,6.587,38.349,6.587,57.916c0,51.141-15.035,100.521-43.478,142.798c-3.397,5.085-7.202,10.313-11.284,15.498   c-35.583,45.128-85.721,77.302-141.184,90.6C296.613,509.603,276.4,512,256.011,512z"/>
	<g>
		<g>
			<path style="fill:#1C0231;" d="M498.298,255.989c0,50.029-15.171,96.529-41.137,135.121c-3.369,5.042-6.944,9.923-10.68,14.667     c-33.139,42.031-79.867,72.855-133.586,85.734c-18.219,4.423-37.264,6.738-56.835,6.738c-27.937,0-54.773-4.721-79.73-13.43     c-37.424-13.04-70.655-34.972-97.148-63.298c-5.179-5.523-10.084-11.275-14.713-17.257c-12.674-16.34-23.284-34.33-31.489-53.627     c-5.068-11.943-4.211-24.378-7.331-37.214c-3.806-15.663-11.089-31.923-11.668-48.612c-0.137-2.933-0.183-5.867-0.183-8.823     c0-113.533,78.126-208.847,183.569-235.065c1.49-0.39,2.979-0.733,4.492-1.077c6.096-1.398,12.307-2.567,18.586-3.483     c3.346-0.504,6.692-0.94,10.084-1.261c8.388-0.894,16.913-1.352,25.53-1.352c41.114,0,79.845,10.244,113.762,28.349     c52.298,27.868,119.996,149.353,122.242,159.07C496.144,218.771,498.298,237.128,498.298,255.989z"/>
			<g style="opacity:0.23;">
				<path style="fill:#5F2183;" d="M498.298,255.989c0,50.029-15.171,96.529-41.137,135.121c-3.369,5.042-6.944,9.923-10.68,14.667      c-33.139,42.031-79.867,72.855-133.586,85.734c-4.354-4.286-8.342-8.961-11.871-14.002      c-14.988-21.451-20.557-48.287-20.924-74.436c-0.39-26.676,4.331-53.421,13.819-78.378c0.435-1.192,0.894-2.383,1.375-3.575      c2.658-6.623,5.615-13.063,8.869-19.388c0.894-1.765,1.81-3.506,2.75-5.248c2.429-4.492,4.973-8.938,7.654-13.292      c3.232-5.386,6.646-10.68,10.198-15.882c5.89-8.731,12.123-17.257,18.448-25.668c15.561-20.626,32.818-46.706,22.001-70.15      c-7.792-16.959-27.661-24.774-46.156-27.341c-5.248-0.733-10.542-1.192-15.836-1.604c-13.43-1.054-26.882-1.925-39.395-6.715      c-14.576-5.569-26.309-16.134-34.674-29.243c-9.9-15.469-15.126-34.445-14.919-52.871c0.137-12.765,2.429-25.232,6.211-37.356      c3.346-0.504,6.692-0.94,10.084-1.261c8.388-0.894,16.913-1.352,25.53-1.352c41.114,0,79.845,10.244,113.762,28.349      c52.298,27.868,119.996,149.353,122.242,159.07C496.144,218.771,498.298,237.128,498.298,255.989z"/>
				<path style="fill:#5F2183;" d="M266.052,239.191c-2.223,4.812-5.065,9.304-8.525,13.338      c-8.136,9.465-19.136,15.905-29.403,22.963c-3.575,2.475-7.127,5.088-10.565,7.883c-4.125,3.3-8.136,6.807-11.963,10.519      c-6.394,6.188-12.284,12.903-17.394,20.03c-14.094,19.572-22.299,42.306-18.93,65.933c2.292,16.065,9.74,30.87,14.828,46.271      c5.088,15.4,7.654,32.887,0.458,47.416c-2.108,4.263-4.904,7.998-8.227,11.275c-37.424-13.04-70.655-34.972-97.148-63.298      c-5.179-5.523-10.084-11.275-14.713-17.257c-12.674-16.34-23.284-34.33-31.489-53.627c-4.724-11.132-2.644-25.691-5.681-37.604      c-4.197-16.464-12.706-30.604-13.318-48.222c-0.137-2.933-0.183-5.867-0.183-8.823c0-113.533,78.126-208.847,183.569-235.065      c1.49-0.39,2.979-0.733,4.492-1.077c-2.567,6.875-4.148,14.117-4.469,21.703c-0.825,21.267,8.411,41.71,20.099,59.517      c2.681,4.079,5.477,8.044,8.388,11.986c9.671,13.246,20.099,25.988,28.624,39.991c2.2,3.598,4.262,7.311,6.165,11.092      c4.515,9.03,8.09,18.517,10.061,28.349c0.527,2.612,0.939,5.271,1.214,7.952c0.115,0.779,0.184,1.559,0.252,2.338      C273.225,215.15,271.3,227.984,266.052,239.191z"/>
			</g>
			<path style="opacity:0.24;fill:#5F2183;" d="M204.037,156.115c0,2.613-0.092,5.225-0.275,7.815     c-0.458,6.165-1.49,12.261-3.117,18.174c-4.721,17.372-14.415,33.07-29.036,43.475c-18.586,13.2-42.146,16.524-63.802,23.628     c-14.163,4.652-28.67,12.238-38.272,23.17c-5.088,5.775-8.8,12.49-10.359,20.213c-3.163,15.469,3.025,30.755,9.35,45.514     c1.192,2.75,2.383,5.5,3.529,8.228c6.531,15.561,11.39,32.726,11.459,49.41c0.046,8.823-1.261,17.509-4.331,25.782     c-5.179-5.523-10.084-11.275-14.713-17.257c-12.674-16.34-23.284-34.33-31.489-53.627c-5.832-13.743-3.439-28.138-6.671-43.046     c-3.004-13.855-11.82-28.153-12.328-42.78c-0.137-2.933-0.183-5.867-0.183-8.823c0-113.533,78.126-208.847,183.569-235.065     c-6.279,7.288-10.978,15.836-13.2,25.163c-7.333,30.641,11.94,60.686,18.036,91.601     C203.396,143.716,204.014,149.904,204.037,156.115z"/>
			<path style="opacity:0.24;fill:#5F2183;" d="M498.298,255.989c0,50.029-15.171,96.529-41.137,135.121     c-3.369,5.042-6.944,9.923-10.68,14.667c-16.111-5.133-34.307-2.429-50.029-8.915c-15.974-6.577-26.974-21.863-32.864-38.089     c-9.35-25.759-7.38-53.696,0.848-80.165c4.377-14.094,10.542-27.776,17.715-40.472c7.494-13.269,16.225-26.493,22.688-40.289     c0.435-0.894,0.848-1.788,1.238-2.681c4.927-11.092,8.273-22.574,8.204-34.743c0-1.65-0.092-3.277-0.252-4.881     c-0.802-10.175-4.102-19.778-9.19-28.555c-1.329-2.337-2.819-4.629-4.423-6.852c-5.775-8.067-13.063-15.263-21.267-21.359     c-8.732-6.531-18.495-11.802-28.532-15.515c-0.023,0-0.069-0.023-0.092-0.023c-21.794-8.021-45.239-10.634-67.194-18.151     c-21.955-7.517-43.612-21.657-51.152-43.612c-0.71-2.085-1.261-4.217-1.65-6.371c8.388-0.894,16.913-1.352,25.53-1.352     c41.114,0,79.845,10.244,113.762,28.349c52.298,27.868,119.996,149.353,122.242,159.07     C496.144,218.771,498.298,237.128,498.298,255.989z"/>
		</g>
		<path style="opacity:0.09;fill:#F3C7D1;" d="M457.161,391.111c-3.369,5.042-6.944,9.923-10.68,14.667    c-33.139,42.031-79.867,72.855-133.586,85.734c-18.219,4.423-37.264,6.738-56.835,6.738c-27.937,0-54.773-4.721-79.73-13.43    c-37.424-13.04-70.655-34.972-97.148-63.298c-5.179-5.523-10.084-11.275-14.713-17.257c6.119-3.117,12.719-5.683,19.044-8.525    c9.625-4.309,18.678-9.259,24.59-17.807c13.682-19.778,3.231-48.31,13.774-69.944c6.692-13.75,20.74-22.276,34.628-28.739    c13.865-6.44,28.693-11.825,39.922-22.23c2.796-2.59,5.179-5.477,7.15-8.617c3.254-5.088,5.363-10.794,6.325-16.89    c1.008-6.417,0.092-13.178,3.163-19.136c8.273-15.996,30.526-21.153,46.866-20.855c3.552,0.069,7.219,0.344,10.794,0.963    c8.388,1.375,16.34,4.537,21.634,10.977c6.99,8.48,7.563,20.305,10.221,30.962c1.283,5.157,3.254,10.267,5.867,14.965    c3.988,7.288,9.488,13.636,16.317,17.921c2.659,1.65,5.523,3.025,8.571,3.988c6.853,2.2,14.209,2.315,21.222,3.919    c3.415,0.779,6.715,1.925,9.877,3.392c10.336,4.813,19.09,13.04,24.293,23.192c7.907,15.424,8.067,34.88,19.732,47.714    c10.909,11.963,29.174,14.919,40.197,26.79C452.6,380.523,455.328,385.633,457.161,391.111z"/>
		<g>
			<path style="fill:#FDBC08;" d="M219.383,289.937c-1.56,2.34-38.228,149.012-38.228,149.012l41.349-46.81l27.306,101.422     l26.526-101.422l44.47,72.556l-32.767-185.68L219.383,289.937z"/>
			<g>
				<g>
					<polygon style="fill:#9F6DA4;" points="307.542,259.51 332.703,344.354 294.084,346.694 293.499,265.947      "/>
					<polygon style="fill:#9F6DA4;" points="206.9,263.021 175.304,349.035 220.943,350.205 216.848,269.457      "/>
					<path style="fill:#F3C7D1;" d="M311.435,156.534l-0.069,2.085l-3.3,102.648l-1.306,40.38l-12.994,0.504l-75.123,2.91       l-12.513,0.481l-1.604-36.049l-4.652-105.168l0.298-0.573l45.969-69.98c2.292-4.492,8.663-4.698,11.23-0.344L311.435,156.534z"/>
				</g>
				<path style="fill:#9F6DA4;" d="M258.646,272.578L258.646,272.578c5.832,0,10.712,4.425,11.281,10.229l6.799,69.348l-38.228,1.56      l8.901-71.209C248.107,276.835,252.929,272.578,258.646,272.578z"/>
				<path style="fill:#9F6DA4;" d="M311.435,156.534l-0.069,2.085c-11.596,2.384-23.399,3.896-35.224,4.744      c-15.973,1.169-32.016,1.146-48.012,0.573c-8.204-0.298-18.449,0.435-27.959-0.184l48.241-95.107      c2.292-4.492,8.663-4.698,11.23-0.344L311.435,156.534z"/>
				<circle style="fill:#1C0231;" cx="255.661" cy="217.771" r="23.795"/>
			</g>
		</g>
		<polygon style="fill:#FDBC08;" points="147.881,354.602 127.134,343.744 133.355,366.319 122.953,345.332 114.73,367.261     118.653,344.167 99.104,357.072 115.852,340.702 92.453,339.65 115.619,336.235 97.315,321.632 118.062,332.489 111.841,309.914     122.243,330.901 130.467,308.972 126.543,332.066 146.092,319.161 129.344,335.531 152.743,336.583 129.577,339.998   "/>
		<polygon style="fill:#FDBC08;" points="388.853,439.607 368.107,428.749 374.326,451.324 363.925,430.337 355.701,452.266     359.625,429.172 340.076,442.078 356.824,425.707 333.425,424.655 356.591,421.241 338.287,406.637 359.034,417.495     352.813,394.92 363.215,415.906 371.438,393.978 367.515,417.071 387.064,404.166 370.316,420.536 393.715,421.589     370.549,425.003   "/>
		<polygon style="fill:#FDBC08;" points="391.194,301.542 370.447,290.684 376.667,313.259 366.266,292.272 358.042,314.201     361.966,291.107 342.417,304.013 359.165,287.642 335.765,286.59 358.932,283.176 340.627,268.572 361.374,279.43     355.154,256.854 365.555,277.841 373.779,255.913 369.855,279.006 389.404,266.101 372.656,282.471 396.056,283.523     372.889,286.938   "/>
		<g>
			<path style="fill:#564BB7;" d="M82.849,304.758c0,13.132-5.5,24.98-14.323,33.345c-8.25,7.884-19.411,12.697-31.695,12.697     c-1.306,0-2.59-0.046-3.85-0.161c-11.253-26.515-17.944-55.46-18.999-85.826c6.738-3.873,14.53-6.073,22.849-6.073     c12.788,0,24.361,5.225,32.703,13.636C77.762,280.671,82.849,292.107,82.849,304.758z"/>
			<g>
				<g>
					<g>
						<path style="fill:#95ABD3;" d="M483.608,172.73c3.369,9.236,6.211,18.723,8.457,28.44        c-12.284,5.156-25.828,8.021-40.014,8.021c-14.186,0-27.708-2.842-39.991-7.975c-2.452-1.031-0.858-4.154-3.219-5.369        c-2.406-1.238-4.767-2.567-7.081-3.988c-29.701-18.265-49.502-51.06-49.502-88.484c0-7.586,0.825-14.988,2.361-22.115        c1.077-4.95-1.502-7.763,0.263-12.415c3.644-9.694,8.709-18.701,14.942-26.745C422.12,69.968,463.005,116.467,483.608,172.73z        "/>
					</g>
					<g>
						<path style="fill:#F3C7D1;" d="M435.84,175.489c-1.504,9.155-11.51,13.842-18.681,20.055        c-2.005,1.722-3.793,3.575-5.101,5.668c-4.97-2.093-9.744-4.534-14.3-7.346c-29.689-18.267-49.504-51.074-49.504-88.48        c0-12.861,2.332-25.177,6.627-36.534c4.534-2.027,9.548-3.226,14.997-3.444c7.455-0.283,16.392,2.529,18.158,9.787        c1.504,6.104-2.834,11.88-5.929,17.352c-3.357,5.864-5.45,12.447-6.169,19.161c-0.196,1.787-0.262,3.684,0.501,5.319        c1.853,3.989,7.39,4.316,11.706,3.444c4.316-0.894,9.112-2.332,12.84-0.022c3.902,2.42,4.665,7.891,3.575,12.338        c-1.09,4.447-3.575,8.436-4.774,12.861c-0.807,3.03-0.785,6.757,1.678,8.697c2.027,1.592,4.861,1.373,7.411,1.221        c6.431-0.37,13.144,0.393,18.616,3.771C432.962,162.715,436.886,169.146,435.84,175.489z"/>
					</g>
					<g>
						<path style="fill:#F3C7D1;" d="M398.082,105.389c1.094,0.923,2.462,1.654,3.889,1.545c3.214-0.246,4.544-4.135,6.766-6.47        c3.336-3.507,9.071-3.561,12.745-6.712c10.074-8.64-4.134-21.733-14.129-17.501C397.644,80.363,388.05,96.931,398.082,105.389        z"/>
					</g>
				</g>
			</g>
			<g>
				<circle style="fill:#FF5382;" cx="113.28" cy="136.633" r="38.618"/>
				<g>
					<path style="fill:#F3C7D1;" d="M112.402,141.888c-25.398,0-63.183-1.711-63.183-6.424c0-4.715,37.785-6.426,63.183-6.426       s63.183,1.711,63.183,6.426C175.585,140.177,137.8,141.888,112.402,141.888z M112.402,130.185       c-37.994,0-61.74,3.075-62.036,5.282c0.305,2.2,24.053,5.275,62.036,5.275c37.976,0,61.721-3.072,62.036-5.277       C174.132,133.259,150.389,130.185,112.402,130.185z"/>
					<path style="fill:#F3C7D1;" d="M68.585,180.435c-0.371,0-0.66-0.096-0.86-0.296c-3.331-3.333,22.177-31.26,40.134-49.218       c11.839-11.839,23.4-22.538,32.556-30.13c14.571-12.081,16.093-10.578,16.664-10.004c3.333,3.333-22.177,31.26-40.134,49.22       C100.067,156.886,74.38,180.435,68.585,180.435z M155.951,91.512c-3.075,0-21.554,14.491-47.281,40.22       c-26.857,26.855-41.474,45.822-40.134,47.598c1.746,1.294,20.736-13.275,47.598-40.134       c26.852-26.852,41.472-45.817,40.134-47.598C156.194,91.54,156.086,91.512,155.951,91.512z"/>
				</g>
			</g>
			<g>
				<circle style="fill:#FF8933;" cx="449.533" cy="287.596" r="21.845"/>
				<circle style="fill:#564BB7;" cx="304.422" cy="55.106" r="15.603"/>
			</g>
		</g>
		<g>
			<g>
				<g>
					<g>
						<polygon style="fill:#FFFFFF;" points="380.706,354.689 366.06,359.372 361.377,374.018 356.693,359.372 342.047,354.689         356.693,350.005 361.377,335.358 366.06,350.005       "/>
					</g>
				</g>
				<g>
					<g>
						<polygon style="fill:#FFFFFF;" points="301.124,454.55 286.478,459.234 281.794,473.88 277.111,459.234 262.464,454.55         277.111,449.866 281.794,435.22 286.478,449.866       "/>
					</g>
				</g>
				<g>
					<g>
						<polygon style="fill:#FFFFFF;" points="172.401,413.982 157.755,418.665 153.071,433.311 148.388,418.665 133.741,413.982         148.388,409.297 153.071,394.651 157.755,409.297       "/>
					</g>
				</g>
				<g>
					<g>
						<polygon style="fill:#FFFFFF;" points="188.002,268.872 173.356,273.556 168.672,288.202 163.988,273.556 149.342,268.872         163.988,264.188 168.672,249.542 173.356,264.188       "/>
					</g>
				</g>
				<path style="fill:#FFFFFF;" d="M403.311,355.078c0,2.908-2.358,5.266-5.266,5.266c-2.908,0-5.266-2.358-5.266-5.266      s2.358-5.266,5.266-5.266C400.953,349.812,403.311,352.17,403.311,355.078z"/>
				<circle style="fill:#FFFFFF;" cx="338.362" cy="378.483" r="5.266"/>
			</g>
			<path style="fill:#FFFFFF;" d="M115.621,205.288c0,4.093-3.318,7.412-7.412,7.412c-4.093,0-7.412-3.318-7.412-7.412     s3.318-7.412,7.412-7.412C112.302,197.877,115.621,201.195,115.621,205.288z"/>
			<path style="fill:#FFFFFF;" d="M372.296,199.827c0,4.093-3.318,7.412-7.412,7.412s-7.412-3.318-7.412-7.412     s3.319-7.412,7.412-7.412S372.296,195.734,372.296,199.827z"/>
			<path style="fill:#FFFFFF;" d="M145.267,237.665c0,2.585-2.096,4.681-4.681,4.681c-2.585,0-4.681-2.096-4.681-4.681     c0-2.585,2.096-4.681,4.681-4.681C143.171,232.984,145.267,235.08,145.267,237.665z"/>
			<path style="fill:#FFFFFF;" d="M191.297,61.347c0,2.585-2.096,4.681-4.681,4.681s-4.681-2.096-4.681-4.681     c0-2.585,2.096-4.681,4.681-4.681S191.297,58.762,191.297,61.347z"/>
			<path style="fill:#FFFFFF;" d="M337.969,197.097c0,2.585-2.096,4.681-4.681,4.681s-4.681-2.096-4.681-4.681     s2.096-4.681,4.681-4.681S337.969,194.511,337.969,197.097z"/>
			<path style="fill:#FFFFFF;" d="M451.874,247.027c0,2.585-2.096,4.681-4.681,4.681c-2.585,0-4.681-2.096-4.681-4.681     s2.096-4.681,4.681-4.681C449.778,242.346,451.874,244.442,451.874,247.027z"/>
			<path style="fill:#FFFFFF;" d="M451.874,366.393c0,2.585-2.096,4.681-4.681,4.681c-2.585,0-4.681-2.096-4.681-4.681     s2.096-4.681,4.681-4.681C449.778,361.712,451.874,363.808,451.874,366.393z"/>
			<path style="fill:#FFFFFF;" d="M77.392,364.053c0,2.585-2.096,4.681-4.681,4.681s-4.681-2.096-4.681-4.681     s2.096-4.681,4.681-4.681S77.392,361.468,77.392,364.053z"/>
			<path style="fill:#FFFFFF;" d="M234.986,61.347c0,2.585-2.096,4.681-4.681,4.681s-4.681-2.096-4.681-4.681     c0-2.585,2.096-4.681,4.681-4.681S234.986,58.762,234.986,61.347z"/>
			<path style="fill:#FFFFFF;" d="M323.146,119.079c0,2.585-2.096,4.681-4.681,4.681s-4.681-2.096-4.681-4.681     c0-2.585,2.096-4.681,4.681-4.681S323.146,116.494,323.146,119.079z"/>
			<path style="fill:#FFFFFF;" d="M201.439,100.355c0,5.601-4.541,10.142-10.142,10.142c-5.602,0-10.142-4.541-10.142-10.142     s4.541-10.142,10.142-10.142C196.898,90.213,201.439,94.754,201.439,100.355z"/>
			<path style="fill:#FFFFFF;" d="M64.129,237.665c0,2.585-2.096,4.681-4.681,4.681c-2.585,0-4.681-2.096-4.681-4.681     c0-2.585,2.096-4.681,4.681-4.681C62.034,232.984,64.129,235.08,64.129,237.665z"/>
		</g>
	</g>
</g>















</svg>
