<?xml version="1.0" encoding="UTF-8"?>
<!-- Generator: Adobe Illustrator 27.3.1, SVG Export Plug-In . SVG Version: 6.00 Build 0)  -->
<svg xmlns="http://www.w3.org/2000/svg" xmlns:xlink="http://www.w3.org/1999/xlink" version="1.1" id="Capa_1" x="0px" y="0px" viewBox="0 0 512 512" style="enable-background:new 0 0 512 512;" xml:space="preserve" width="512" height="512">
<g>
	<path style="fill:#FFFFFF;" d="M333.33,496.079c-35.851,0-72.224-7.68-105.183-22.211c-11.48-5.062-22.507-10.935-33.172-16.612   c-16.281-8.671-31.658-16.859-48.041-22.099c-8.069-2.582-16.458-4.475-25.338-6.478c-14.229-3.21-28.94-6.529-43.132-13.001   C23.785,390.765-3.924,336.839,0.449,263.84c0.684-11.233,2.103-22.643,4.222-33.931c4.478-23.82,12.059-47.637,21.924-68.881   c5.691-12.295,12.201-24.215,19.342-35.414c7.675-12.076,16.131-23.367,25.122-33.539c0.062-0.071,1.454-1.606,1.454-1.606   c0.754-0.836,1.51-1.673,2.286-2.501c2.347-2.554,4.61-4.909,6.818-7.091c8.743-8.828,18.262-16.959,28.174-24.052   c37.264-26.755,83.979-40.904,135.071-40.904c18.887,0,38.109,1.949,57.135,5.795c16.112,3.248,32.137,7.893,47.624,13.806   c10.391,3.975,19.387,8.187,27.513,12.882c48.112,27.792,87.577,74.81,111.122,132.392c2.684,6.557,5.164,13.273,7.372,19.954   c15.435,46.33,20.163,96.054,13.301,139.972c-2.951,18.877-7.987,36.811-14.972,53.306c-3.47,8.165-7.485,15.982-11.943,23.253   c-7.444,12.358-16.283,23.596-26.21,33.299c-5.978,5.832-12.424,11.177-19.169,15.891c-21.238,14.765-47.544,24.435-76.108,27.99   c-4.296,0.572-8.962,0.991-14.132,1.268c-4.295,0.234-8.694,0.351-13.062,0.351C333.332,496.079,333.331,496.079,333.33,496.079z"/>
	<g>
		<g>
			<path style="fill:#DBB0FF;" d="M494.419,337.159c-2.68,17.149-7.234,33.83-13.922,49.626     c-3.097,7.287-6.714,14.391-10.878,21.183c-6.662,11.06-14.625,21.313-23.811,30.291c-5.335,5.205-11.06,9.967-17.201,14.26     c-20.324,14.13-44.421,22.224-69.091,25.294c-4.32,0.572-8.666,0.937-13.038,1.171c-37.499,2.03-76.768-5.413-111.118-20.558     c-27.975-12.335-53.633-29.978-82.753-39.295c-22.041-7.052-45.696-9.212-66.749-18.815     c-55.403-25.242-72.266-80.645-68.909-136.698c0.651-10.695,2.004-21.443,3.982-31.982c4.398-23.395,11.762-45.852,20.74-65.188     c5.361-11.58,11.476-22.822,18.346-33.596c7.078-11.138,14.937-21.729,23.655-31.592c1.145-1.249,2.264-2.524,3.435-3.773     c2.082-2.264,4.19-4.476,6.402-6.662c8.093-8.171,16.863-15.718,26.283-22.458c51.578-37.031,118.352-44.967,180.027-32.503     c15.484,3.123,30.629,7.547,45.15,13.09c8.64,3.305,17.253,7.182,25.268,11.814c48.116,27.792,83.638,73.801,104.482,124.78     c2.524,6.168,4.866,12.491,7,18.945C495.642,246.287,501.289,293.18,494.419,337.159z"/>
		</g>
		<g>
			<g>
				<g>
					<g>
						<ellipse style="fill:#302945;" cx="261.398" cy="271.84" rx="213.499" ry="155.791"/>
					</g>
					<g>
						<g>
							<g>
								<ellipse style="fill:#F7EDE5;" cx="262.727" cy="262.759" rx="213.499" ry="155.791"/>
							</g>
							<g>
								<path style="fill:#302945;" d="M256.969,406.803c-108.888,0-197.477-64.816-197.477-144.486s88.589-144.488,197.477-144.488          s197.476,64.818,197.476,144.488S365.857,406.803,256.969,406.803z M256.969,120.706c-107.303,0-194.6,63.527-194.6,141.612          s87.298,141.609,194.6,141.609c107.303,0,194.599-63.525,194.599-141.609S364.271,120.706,256.969,120.706z"/>
							</g>
							<g>
								<path style="fill:#302945;" d="M256.969,341.286c-59.514,0-107.933-35.426-107.933-78.968          c0-43.545,48.419-78.971,107.933-78.971s107.933,35.426,107.933,78.971C364.902,305.86,316.482,341.286,256.969,341.286z           M256.969,184.917c-58.647,0-106.36,34.722-106.36,77.4c0,42.676,47.713,77.398,106.36,77.398s106.36-34.722,106.36-77.398          C363.329,219.639,315.616,184.917,256.969,184.917z"/>
							</g>
						</g>
						<g>
							<path style="fill:#FFA352;" d="M276.368,136.149c0.811,2.47,1.201,5.096,1.074,7.819         c-0.551,11.883-10.702,20.643-22.685,19.553c-11.959-1.087-21.238-11.613-20.687-23.496c0.127-2.724,0.756-5.257,1.788-7.559         c2.753,8.384,10.371,14.837,19.613,15.678C264.714,148.983,272.888,143.965,276.368,136.149z"/>
						</g>
					</g>
				</g>
				<g>
					<g>
						<g>
							<g>
								<path style="fill:#9DD1A9;" d="M295.92,211.175c13.493,2.886,25.398,13.372,37.239,20.697          c0.014,0.003,0.014,0.003,0.029,0.007c0.404,0.249,0.78,0.49,1.173,0.721c-0.163,0.039-0.326,0.078-0.49,0.117          c-0.011-0.018-0.011-0.018-0.033,0.008c-6.834,1.674-12.493,6.504-17.272,11.724c-4.883,5.335-9.214,11.277-14.948,15.704          c-7.958,6.159-18.108,8.832-28.222,8.507c-0.259-0.014-0.503-0.025-0.762-0.039c-4.788-0.223-9.558-1.12-14.076-2.637          c-6.263-2.093-12.081-5.239-17.404-9.117c-0.195-0.153-0.391-0.307-0.586-0.461c-6.348-4.703-11.992-10.444-16.875-16.671          c-0.189-0.245-0.379-0.489-0.572-0.719c-0.011-0.018-0.022-0.036-0.034-0.054c6.775-4.261,12.749-9.712,19.019-14.585          c0.205-0.152,0.396-0.308,0.619-0.472c5.263-4.059,10.792-7.671,17.175-9.789c0.851-0.279,1.729-0.537,2.599-0.766          c0.264-0.077,0.529-0.154,0.805-0.213c3.228-0.819,6.541-1.341,9.854-1.801c5.625-0.784,11.343-1.377,16.983-0.97          l0.014,0.003c0.346,0.035,0.682,0.051,1.025,0.101C292.768,210.609,294.348,210.839,295.92,211.175z"/>
							</g>
						</g>
					</g>
					<g>
						<g>
							<g>
								<path style="fill:#302945;" d="M346.81,234.149c-0.045,0.191-0.231,0.318-0.427,0.285          c-18.416-3.067-37.396-3.707-55.752-4.327c-4.487-0.15-9.108-0.306-13.636-0.042c-8.996,0.523-17.954,2.714-26.618,4.832          c-9.67,2.365-19.669,4.81-29.776,4.953c-0.207,0.003-0.378-0.163-0.38-0.37c-0.002-0.209,0.163-0.377,0.37-0.38          c10.021-0.142,19.979-2.577,29.608-4.932c8.696-2.126,17.688-4.325,26.753-4.853c4.562-0.266,9.2-0.11,13.687,0.041          c18.398,0.62,37.403,1.261,55.867,4.336c0.204,0.034,0.343,0.228,0.309,0.432          C346.814,234.133,346.812,234.141,346.81,234.149z"/>
							</g>
						</g>
					</g>
					<g>
						<g>
							<g>
								<path style="fill:#302945;" d="M269.662,230.422c0.027,0.083,0.039,0.163,0.022,0.236c-0.017,0.073-0.063,0.139-0.136,0.184          c-0.007,0.029-0.043,0.052-0.079,0.074c-12.019,5.397-21.038,15.84-28.315,25.951c-0.195-0.153-0.391-0.307-0.586-0.461          c6.913-9.609,15.387-19.502,26.532-25.179c0.683-0.349,1.362-0.684,2.067-0.998          C269.356,230.15,269.568,230.23,269.662,230.422z"/>
							</g>
						</g>
					</g>
					<g>
						<g>
							<g>
								<path style="fill:#302945;" d="M242.726,223.906c4.56,3.777,9.9,6.657,15.567,8.334c0.041,0.025,0.07,0.032,0.114,0.042          c0.19,0.044,0.299,0.239,0.254,0.429c-0.003,0.015-0.003,0.015-0.007,0.029c-0.049,0.143-0.164,0.239-0.291,0.256          c-0.051,0.019-0.109,0.005-0.168-0.008c-0.447-0.135-0.878-0.267-1.321-0.416c-5.37-1.762-10.417-4.574-14.768-8.194          C242.312,224.225,242.503,224.069,242.726,223.906z"/>
							</g>
						</g>
					</g>
					<g>
						<g>
							<g>
								<path style="fill:#302945;" d="M263.305,213.138c5.825,6.878,13.158,12.381,21.428,16.053          c0.055,0.028,0.11,0.056,0.165,0.085c0.169,0.07,0.263,0.262,0.222,0.437c-0.004,0.015-0.025,0.041-0.028,0.055          c-0.032,0.07-0.078,0.136-0.147,0.166c-0.094,0.071-0.221,0.087-0.345,0.027c-0.015-0.003-0.041-0.025-0.055-0.028          c-0.561-0.239-1.1-0.503-1.643-0.753c-7.863-3.762-14.816-9.176-20.401-15.828          C262.765,213.274,263.029,213.197,263.305,213.138z"/>
							</g>
						</g>
					</g>
					<g>
						<g>
							<g>
								<path style="fill:#302945;" d="M303.346,230.219c0.016,0.065,0.031,0.131,0.014,0.204c-0.014,0.058-0.042,0.114-0.096,0.147          c-0.028,0.055-0.1,0.1-0.166,0.116c-8.287,2.614-15.506,8.252-20.874,16.325c-3.999,5.973-6.958,13.237-8.828,21.649          c-0.259-0.014-0.503-0.025-0.762-0.039c1.904-8.558,4.909-15.95,8.964-22.033c5.141-7.695,11.921-13.235,19.709-16.089          l0.018-0.011l1.554-0.516C303.079,229.91,303.284,230.02,303.346,230.219z"/>
							</g>
						</g>
					</g>
					<g>
						<g>
							<g>
								<path style="fill:#302945;" d="M291.182,210.471c6.111,7.7,13.948,14.415,23.088,19.77c0.055,0.028,0.107,0.071,0.126,0.122          c0.056,0.09,0.079,0.188,0.056,0.291c-0.007,0.029-0.017,0.073-0.039,0.099c-0.103,0.176-0.335,0.246-0.508,0.128          c-0.338-0.202-0.677-0.404-1.014-0.607c-9.018-5.418-16.72-12.179-22.734-19.903          C290.503,210.405,290.839,210.421,291.182,210.471z"/>
							</g>
						</g>
					</g>
				</g>
				<g>
					<g>
						<polygon style="fill:#977BFF;" points="315.345,259.607 360.965,316.444 271.496,382.914 217.352,371.334 217.394,324.343               "/>
					</g>
					<g>
						<g>
							<path style="fill:#302945;" d="M271.496,383.781c-0.234,0-0.466-0.094-0.637-0.28l-54.103-58.572         c-0.325-0.351-0.304-0.9,0.048-1.225c0.351-0.32,0.901-0.3,1.225,0.051l54.103,58.572c0.325,0.351,0.304,0.9-0.048,1.225         C271.918,383.705,271.707,383.781,271.496,383.781z"/>
						</g>
						<g>
							<path style="fill:#302945;" d="M217.352,372.201c-0.295,0-0.572-0.15-0.732-0.402c-0.174-0.275-0.18-0.623-0.015-0.905         l17.151-29.202c0.06-0.102,0.14-0.191,0.236-0.259l92.112-67.281c0.385-0.29,0.928-0.203,1.211,0.188         c0.282,0.386,0.198,0.928-0.189,1.21l-91.966,67.177l-16.205,27.588l36.911-3.421l92.379-65.66         c0.391-0.28,0.931-0.183,1.208,0.203c0.277,0.391,0.185,0.933-0.205,1.21l-92.568,65.794         c-0.125,0.089-0.269,0.142-0.422,0.158l-38.827,3.599C217.406,372.201,217.379,372.201,217.352,372.201z"/>
						</g>
					</g>
					<g>
						<g>
							<path style="fill:#F7EDE5;" d="M318.888,336.569L318.888,336.569c1.908,1.285,1.996,4.062,0.172,5.465l-25.148,19.342         c-1.725,1.327-4.236,0.695-5.127-1.29l-0.539-1.202c-0.66-1.47-0.186-3.202,1.13-4.131l25.688-18.141         C316.206,335.804,317.728,335.787,318.888,336.569z"/>
						</g>
						<g>
							<path style="fill:#F7EDE5;" d="M330.814,331.835c-0.996,1.877-3.325,2.592-5.202,1.596c-1.877-0.996-2.591-3.325-1.596-5.202         c0.996-1.877,3.325-2.591,5.202-1.596C331.095,327.629,331.81,329.958,330.814,331.835z"/>
						</g>
					</g>
				</g>
				<g>
					<g style="opacity:0.44;">
						<path style="fill:#FFFFFF;" d="M345.411,115.418c-1.691,9.576-7.078,18.034-11.919,26.491        c-4.398,7.625-5.517,19.595-5.517,29.016c-0.052-5.543-0.39-11.112-2.29-16.29c-2.238-6.063-7.13-11.58-13.506-12.673        c-9.811-1.718-17.956,6.818-26.543,11.867c-15.692,9.212-36.016,6.792-52.41-1.093c-6.688-3.201-13.324-7.651-16.238-14.443        c-4.658-10.878,1.848-23.447,10.383-31.644c8.51-8.197,19.205-14.209,26.283-23.655c7.104-9.446,9.108-24.591-0.026-32.06        c-3.695-3.019-8.509-4.242-13.22-4.892c-15.614-2.134-31.904,1.327-45.306,9.628c-18.502,11.45-31.41,31.592-51.838,39.061        c-12.777,4.658-27.09,3.669-40.127-0.286c-3.279-0.989-6.506-2.186-9.629-3.617c8.093-8.171,16.863-15.718,26.283-22.458        c51.578-37.031,118.352-44.967,180.027-32.503c-13.74,19.361-31.592,35.469-48.403,52.28        c-4.268,4.268-8.562,8.718-10.878,14.261c-2.316,5.569-2.264,12.517,1.718,17.045c5.413,6.22,15.405,5.387,23.004,2.238        c16.889-7,29.12-22.25,45.566-30.265c7.729-3.773,17.253-5.725,24.774-1.535C344.11,94.625,347.129,105.841,345.411,115.418z"/>
					</g>
					<g>
						<g>
							<g>
								<g>
									<path style="fill:#FFA352;" d="M448.984,238.611l-10.529,10.361l-1.039,0.983l-7.89,7.777l-1.011,0.983l-5.952,5.84           l-1.011,1.011l-5.588,5.475l-1.011,0.983l-3.257,3.201l-1.011,0.983l-3.65,3.594v0.028l-0.702,0.702h-0.028l-8.451,8.283           l-94.93-85.665l-17.38-15.667l8.648-7.89l0.842-0.786l8.704-7.946l1.151-1.067l4.324-3.959l1.039-0.955l12.972-11.821           l1.235-1.151l3.959-3.622l1.404-1.292l0.168-0.14l30.829,23.754l13.224,10.22l2.527,1.937l12.017,9.266l2.471,1.937           c0,0,0,0,0.028,0l6.598,5.11l0.056,0.028l2.359,1.797l0.028,0.028L448.984,238.611z"/>
								</g>
							</g>
							<g>
								<g>
									<path style="fill:#302945;" d="M407.036,279.801v0.028c0,0.168-0.056,0.337-0.197,0.477           c-0.112,0.14-0.309,0.225-0.505,0.225h-0.028c-0.168,0-0.309-0.056-0.449-0.169l-88.36-79.572l-23.108-20.806           c-0.112-0.112-0.168-0.253-0.197-0.393c-0.056-0.196,0-0.421,0.141-0.59c0.168-0.197,0.449-0.281,0.702-0.197           c0.112,0.028,0.196,0.084,0.281,0.14l24.119,21.732l87.377,78.645C406.952,279.464,407.036,279.605,407.036,279.801z"/>
								</g>
							</g>
							<g>
								<g>
									<path style="fill:#302945;" d="M372.922,224.179c-0.505,1.348-1.432,2.33-2.639,2.836           c-0.618,0.253-1.235,0.337-1.853,0.337c-1.656,0-3.285-0.702-4.745-1.488c-15.386-8.03-27.544-20.833-38.972-33.918           c-1.797-2.021-3.538-4.071-5.306-6.121c-2.274-2.639-4.549-5.307-6.851-7.918c-2.499-2.808-5.391-5.812-8.816-7.048           l1.151-1.067c3.426,1.46,6.261,4.408,8.704,7.188c2.302,2.639,4.577,5.279,6.879,7.946           c3.566,4.128,7.16,8.311,10.894,12.382c9.715,10.698,20.244,20.665,32.963,27.319c1.741,0.927,3.762,1.769,5.419,1.067           c1.067-0.421,1.6-1.32,1.853-1.994c0.477-1.348,0.365-3.06-0.281-4.352c-1.235-2.359-3.678-3.875-6.037-5.335           c-5.138-3.201-11.4-7.244-17.52-12.157c-2.162-1.741-4.324-3.594-6.402-5.531c-3.257-3.06-6.346-6.374-9.322-9.574           c-2.499-2.667-5.054-5.447-7.721-8.03c-4.745-4.605-9.883-8.844-15.106-12.887l1.039-0.955           c5.194,4.015,10.332,8.255,15.049,12.859c2.667,2.583,5.25,5.363,7.749,8.058c2.976,3.173,6.037,6.486,9.266,9.49           c2.218,2.078,4.521,4.043,6.851,5.868c5.924,4.689,11.905,8.592,16.875,11.68c2.386,1.488,5.11,3.173,6.514,5.868           C373.399,220.361,373.54,222.439,372.922,224.179z"/>
								</g>
							</g>
							<g>
								<g>
									<path style="fill:#302945;" d="M391.06,193.968c-3.369-0.702-6.767-1.32-10.08-1.91           c-6.289-1.151-12.803-2.358-19.093-4.071c-1.432-0.393-2.808-0.814-4.156-1.264c-0.028,0-0.056,0-0.056,0           c-3.032-0.983-5.896-2.078-8.536-3.341c-0.646-0.281-1.292-0.59-1.909-0.899c0,0,0,0,0-0.028           c-8.283-4.099-14.544-9.434-18.728-15.948c-2.667-4.099-4.436-8.676-5.279-13.449l1.235-1.151           c0.73,4.914,2.527,9.631,5.222,13.842c6.009,9.35,16.51,16.229,31.222,20.497c0.449,0.14,0.898,0.253,1.348,0.393           c6.233,1.713,12.719,2.892,18.98,4.015c2.443,0.449,4.886,0.898,7.356,1.376L391.06,193.968z"/>
								</g>
							</g>
							<g>
								<g>
									<path style="fill:#302945;" d="M374.601,239.868c0.112,1.516,0.983,2.948,1.825,4.128           c4.548,6.514,11.315,11.315,17.885,15.948c6.317,4.464,12.803,9.097,17.38,15.274l-1.011,0.983           c-4.464-6.093-10.922-10.641-17.183-15.106c-6.654-4.717-13.533-9.574-18.222-16.285c-0.955-1.348-1.937-3.004-2.078-4.857           c-0.253-3.847,3.229-6.879,6.57-8.058c9.266-3.257,19.177,2.302,25.803,6.738c8.48,5.672,16.51,12.101,23.95,19.093           l-1.011,0.983c-7.356-6.935-15.33-13.281-23.725-18.896c-6.374-4.296-15.864-9.631-24.54-6.598           C377.381,234.224,374.377,236.751,374.601,239.868z"/>
								</g>
							</g>
							<g>
								<g>
									<path style="fill:#302945;" d="M393.133,249.161c0.646,3.454,3.51,6.037,6.626,8.592l16.201,13.281l-1.011,0.983           L398.86,258.82c-3.313-2.723-6.374-5.503-7.104-9.406c-0.309-1.6-0.056-3.818,1.656-4.829           c0.674-0.421,1.46-0.534,1.965-0.561c3.594-0.281,6.683,1.488,8.676,3.004c1.937,1.488,3.566,3.285,5.166,5.054           c0.393,0.421,0.786,0.87,1.179,1.292c3.734,4.043,7.918,7.693,12.158,11.175l-1.011,1.011           c-4.24-3.51-8.423-7.188-12.186-11.231c-0.393-0.449-0.786-0.87-1.179-1.292c-1.544-1.713-3.145-3.482-4.998-4.914           c-2.527-1.937-5.251-2.864-7.693-2.695c-0.618,0.028-1.039,0.168-1.376,0.365           C393.105,246.382,392.88,247.898,393.133,249.161z"/>
								</g>
							</g>
							<g>
								<g>
									<path style="fill:#302945;" d="M438.45,248.965l-1.039,0.983c-6.514-5.026-13.365-9.631-20.441-13.758l-3.622-2.106           c-4.885-2.751-9.911-5.615-14.292-9.294c-4.436-3.678-9.996-9.799-11.203-17.942c-0.309-2.021-0.281-4.745,1.629-6.317           c0.87-0.73,1.937-1.011,2.78-1.179c1.853-0.393,3.65-0.449,5.419-0.281l0.056,0.028l2.358,1.797           c-2.415-0.561-4.97-0.73-7.525-0.168c-0.702,0.141-1.572,0.365-2.19,0.87c-1.404,1.151-1.404,3.397-1.151,5.054           c1.151,7.693,6.486,13.533,10.726,17.071c4.296,3.594,9.266,6.43,14.067,9.153c1.235,0.702,2.443,1.376,3.65,2.078           C424.888,239.166,431.824,243.855,438.45,248.965z"/>
								</g>
							</g>
							<g>
								<g>
									<path style="fill:#302945;" d="M376.572,182.765c-4.773-0.898-9.49-2.106-14.123-3.566           c-1.881-0.59-3.734-1.207-5.587-1.881c-6.823-2.499-16.622-6.71-22.883-14.628c-3.426-4.324-5.307-9.462-5.56-14.404           l1.404-1.292c0.028,5.391,2.162,10.866,5.279,14.825c6.009,7.637,15.555,11.736,22.238,14.179           c1.516,0.561,3.06,1.095,4.605,1.572c0,0,0,0,0,0.028c3.987,1.264,8.03,2.331,12.101,3.229L376.572,182.765z"/>
								</g>
							</g>
						</g>
						<g style="opacity:0.35;">
							<path style="fill:#302945;" d="M362.225,185.208c-0.365,0.477-0.814,0.814-1.32,1.039c-0.927,0.449-2.078,0.561-3.173,0.477         c-0.028,0-0.056,0-0.056,0c-0.253-0.028-0.477-0.056-0.702-0.084c-2.808-0.393-5.531-1.516-7.834-3.257         c-1.039-0.73-1.993-1.629-2.836-2.639c0.309,0.562,0.618,1.151,0.927,1.713c0,0.028,0,0.028,0,0.028         c2.106,4.043,4.043,8.227,4.324,12.719c0.084,1.46,0,2.976-0.73,4.212c-0.393,0.702-0.983,1.292-1.657,1.741         c-0.421,0.281-0.898,0.534-1.404,0.702c-0.786,0.337-1.629,0.533-2.471,0.618c-4.184,0.449-8.395-1.095-11.849-3.51         c-0.73-0.505-1.404-1.039-2.078-1.656c-2.527-2.106-4.661-4.689-6.655-7.357c0.028,0.646,0.028,1.32,0,1.994         c-0.028,2.948-0.589,5.98-2.864,7.693c-0.702,0.534-1.544,0.87-2.415,1.039c-0.618,0.112-1.292,0.168-1.937,0.112         c-0.73-0.028-1.488-0.197-2.19-0.449c-2.162-0.758-3.987-2.274-5.587-3.875c-2.415-2.415-4.52-5.194-6.177-8.171         c1.657,2.976,1.095,10.248-0.618,14.853l-17.38-15.667l8.648-7.89c-0.056-0.196,0-0.421,0.141-0.59         c0.168-0.197,0.449-0.281,0.702-0.197l8.704-7.946l1.151-1.067l4.324-3.959l1.039-0.955l12.972-11.821l1.235-1.151         l3.959-3.622l1.404-1.292l0.168-0.14l30.829,23.754c-1.123,0.14-2.274-0.028-3.341-0.533c1.937,2.19,3.454,4.745,4.464,7.497         c0,0,0,0,0,0.028c0.197,0.534,0.365,1.067,0.505,1.6c0.112,0.393,0.225,0.814,0.309,1.207         C363.123,182.035,363.235,183.916,362.225,185.208z"/>
						</g>
					</g>
				</g>
				<g>
					<g>
						<g>
							<g>
								<path style="fill:#9DD1A9;" d="M184.469,359.293c0,0-83.333-166.382-53.718-244.859c0,0,33.885,63.936,44.679,123.608          C186.224,297.714,184.469,359.293,184.469,359.293z"/>
							</g>
							<g>
								<g style="opacity:0.31;">
									<path style="fill:#302945;" d="M184.469,359.293c0,0-83.333-166.382-53.718-244.859c0,0,33.885,63.936,44.679,123.608           C186.224,297.714,184.469,359.293,184.469,359.293z"/>
								</g>
								<g>
									<path style="fill:#302945;" d="M190.304,391.54c-0.414,0-0.781-0.297-0.853-0.719           c-0.231-1.347-23.128-134.989-31.876-167.352c-8.76-32.412-27.478-108.066-27.666-108.826           c-0.116-0.465,0.168-0.935,0.633-1.049c0.459-0.117,0.934,0.168,1.05,0.633c0.188,0.76,18.902,76.397,27.658,108.791           c8.768,32.442,31.679,166.163,31.909,167.51c0.081,0.473-0.236,0.92-0.708,1.001           C190.402,391.537,190.352,391.54,190.304,391.54z"/>
								</g>
							</g>
						</g>
						<g>
							<g>
								<path style="fill:#9DD1A9;" d="M188.976,371.184c0,0-39.201-38.536-61.791-79.73          c-22.59-41.194-39.865-144.843-39.865-144.843s32.556,46.509,51.16,88.367C157.084,276.837,188.976,371.184,188.976,371.184          z"/>
							</g>
							<g>
								<path style="fill:#302945;" d="M195.621,388.66c-0.339,0-0.662-0.201-0.801-0.534c-0.386-0.93-38.672-93.311-50.925-120.008          c-12.258-26.707-56.907-120.193-57.357-121.134c-0.206-0.432-0.023-0.951,0.409-1.156c0.432-0.201,0.949-0.025,1.156,0.409          c0.449,0.94,45.103,94.44,57.367,121.159c12.267,26.724,50.566,119.134,50.951,120.064c0.183,0.442-0.027,0.951-0.469,1.133          C195.844,388.64,195.731,388.66,195.621,388.66z"/>
							</g>
						</g>
						<g>
							<g>
								<path style="fill:#9DD1A9;" d="M184.99,368.748c0,0-38.536-182.05,9.966-250.485c0,0,16.61,70.428,11.96,130.89          C202.265,309.615,184.99,368.748,184.99,368.748z"/>
							</g>
							<g>
								<path style="fill:#302945;" d="M185.876,393.535c-0.475,0-0.863-0.384-0.867-0.859          c-0.009-1.044-0.901-105.014-2.215-147.037c-1.316-42.114,11.178-126.653,11.304-127.502          c0.071-0.478,0.516-0.813,0.985-0.729c0.474,0.069,0.801,0.511,0.731,0.983c-0.126,0.849-12.597,85.235-11.286,127.192          c1.314,42.046,2.206,146.033,2.215,147.078c0.004,0.48-0.38,0.872-0.859,0.874          C185.881,393.535,185.878,393.535,185.876,393.535z"/>
							</g>
						</g>
						<g>
							<g>
								<g>
									<path style="fill:#302945;" d="M202.811,433.082c-0.396,0-0.754-0.275-0.845-0.676           c-20.555-91.337-43.118-183.561-67.061-274.107c-0.122-0.463,0.154-0.938,0.617-1.06c0.471-0.127,0.939,0.155,1.06,0.618           c23.947,90.567,46.515,182.811,67.076,274.168c0.104,0.468-0.189,0.93-0.656,1.037           C202.938,433.075,202.875,433.082,202.811,433.082z"/>
								</g>
								<g>
									<path style="fill:#977BFF;" d="M153.304,150.335l-0.468,0.246l0.232,0.469c2.891,5.852-1.974,12.546-8.433,11.601           l-0.523-0.077l-0.085,0.499c-1.095,6.44-8.972,8.999-13.644,4.434l-0.366-0.358l-0.366,0.358           c-4.672,4.565-12.548,2.005-13.644-4.434l-0.085-0.5l-0.522,0.077c-6.459,0.945-11.325-5.749-8.433-11.601l0.232-0.469           l-0.468-0.246c-5.778-3.034-5.778-11.307-0.001-14.341l0.469-0.246l-0.232-0.469c-2.892-5.852,1.974-12.546,8.433-11.601           l0.523,0.076l0.085-0.499c1.095-6.439,8.972-8.999,13.644-4.433l0.366,0.358l0.367-0.358           c4.672-4.565,12.548-2.006,13.644,4.434l0.085,0.5l0.522-0.077c6.459-0.945,11.325,5.749,8.433,11.601l-0.232,0.469           l0.468,0.246C159.083,139.028,159.083,147.301,153.304,150.335z"/>
								</g>
							</g>
							<g>
								<g>
									<path style="fill:#302945;" d="M191.078,430.785c-0.427,0-0.798-0.315-0.858-0.75           c-10.084-73.947-11.717-149.121-4.851-223.431c0.043-0.478,0.45-0.826,0.943-0.785c0.477,0.046,0.827,0.468,0.783,0.943           c-6.853,74.183-5.222,149.223,4.844,223.04c0.065,0.475-0.267,0.912-0.742,0.976           C191.157,430.783,191.117,430.785,191.078,430.785z"/>
								</g>
								<g>
									<path style="fill:#977BFF;" d="M210.112,207.364l-0.468,0.246l0.232,0.469c2.891,5.852-1.974,12.546-8.433,11.601           l-0.523-0.077l-0.085,0.5c-1.095,6.44-8.972,8.999-13.644,4.434l-0.366-0.357l-0.366,0.358           c-4.672,4.565-12.548,2.006-13.644-4.434l-0.085-0.5l-0.522,0.077c-6.459,0.945-11.325-5.749-8.433-11.601l0.232-0.469           l-0.468-0.246c-5.778-3.034-5.778-11.307-0.001-14.341l0.469-0.246l-0.232-0.469c-2.892-5.852,1.974-12.546,8.433-11.601           l0.523,0.076l0.085-0.499c1.095-6.439,8.972-8.999,13.644-4.433l0.366,0.357l0.367-0.358           c4.672-4.566,12.548-2.006,13.644,4.434l0.085,0.5l0.522-0.077c6.459-0.945,11.325,5.749,8.433,11.601l-0.232,0.469           l0.468,0.246C215.89,196.057,215.89,204.33,210.112,207.364z"/>
								</g>
							</g>
							<g>
								<g>
									<path style="fill:#302945;" d="M217.543,426.757c-0.3,0-0.591-0.155-0.751-0.432c-8.17-14.102-15.031-29.169-21.665-43.741           c-3.673-8.069-7.473-16.414-11.447-24.491c-18.061-36.704-41.905-73.095-77.31-117.998           c-0.296-0.376-0.231-0.92,0.145-1.217c0.374-0.295,0.917-0.234,1.217,0.145c35.483,45.001,59.386,81.487,77.503,118.303           c3.987,8.102,7.792,16.457,11.47,24.539c6.616,14.534,13.459,29.563,21.586,43.591c0.24,0.414,0.099,0.945-0.315,1.184           C217.839,426.719,217.69,426.757,217.543,426.757z"/>
								</g>
								<g>
									<path style="fill:#977BFF;" d="M126.396,238.813l-0.468,0.246l0.232,0.469c2.891,5.852-1.974,12.546-8.433,11.601           l-0.523-0.077l-0.085,0.499c-1.095,6.44-8.972,8.999-13.644,4.434l-0.366-0.357l-0.366,0.358           c-4.672,4.565-12.548,2.006-13.644-4.434l-0.085-0.5l-0.522,0.077c-6.459,0.945-11.325-5.749-8.433-11.601l0.232-0.469           l-0.468-0.246c-5.778-3.034-5.778-11.307,0-14.341l0.469-0.246l-0.232-0.469c-2.892-5.852,1.974-12.546,8.433-11.601           l0.523,0.076l0.085-0.499c1.095-6.439,8.972-8.999,13.644-4.433l0.366,0.358l0.367-0.358           c4.672-4.565,12.548-2.006,13.644,4.434l0.085,0.5l0.522-0.077c6.459-0.945,11.325,5.749,8.433,11.601l-0.232,0.469           l0.468,0.246C132.174,227.506,132.174,235.779,126.396,238.813z"/>
								</g>
							</g>
						</g>
					</g>
					<g>
						<g>
							<path style="fill:#977BFF;" d="M173.042,360.264l-0.219-2.592c7.867-0.666,15.559-2.506,22.863-5.471l0.978,2.409         C189.119,357.674,181.171,359.578,173.042,360.264z"/>
						</g>
						<g>
							<path style="fill:#977BFF;" d="M172.106,363.911l-0.218-2.592c7.867-0.666,15.559-2.506,22.863-5.471l0.978,2.409         C188.182,361.321,180.234,363.225,172.106,363.911z"/>
						</g>
						<g>
							<path style="fill:#977BFF;" d="M171.114,367.771l-0.219-2.592c7.859-0.663,15.551-2.503,22.863-5.471l0.978,2.409         C187.182,365.186,179.234,367.087,171.114,367.771z"/>
						</g>
					</g>
				</g>
				<g>
					<g>
						<g>
							<g>
								<path style="fill:#9DD1A9;" d="M414.048,388.421c-7.984,11.254-22.32,18.046-33.729,26.028          c-0.009,0.012-0.009,0.012-0.018,0.024c-0.388,0.273-0.759,0.522-1.126,0.793c0.029-0.165,0.057-0.331,0.086-0.496          c0.021-0.003,0.021-0.003,0.006-0.033c1.163-6.939-1.037-14.046-3.944-20.499c-2.971-6.594-6.718-12.92-8.518-19.938          c-2.513-9.744-0.957-20.124,3.339-29.286c0.115-0.232,0.221-0.452,0.337-0.684c2.097-4.31,4.806-8.337,7.985-11.888          c4.398-4.926,9.587-9.027,15.253-12.384c0.218-0.119,0.437-0.238,0.655-0.357c6.829-3.973,14.333-6.888,21.982-8.913          c0.299-0.077,0.599-0.155,0.887-0.241c0.021-0.003,0.042-0.006,0.063-0.01c1.237,7.908,3.883,15.549,5.882,23.234          c0.059,0.249,0.127,0.485,0.189,0.755c1.649,6.439,2.782,12.946,2.205,19.646c-0.08,0.892-0.19,1.8-0.324,2.69          c-0.034,0.273-0.068,0.547-0.122,0.824c-0.523,3.289-1.353,6.538-2.24,9.764c-1.503,5.477-3.218,10.964-5.82,15.984          l-0.009,0.012c-0.169,0.304-0.316,0.606-0.497,0.902C415.813,385.75,414.978,387.111,414.048,388.421z"/>
							</g>
						</g>
					</g>
					<g>
						<g>
							<g>
								<path style="fill:#302945;" d="M372.833,426.091c-0.158-0.117-0.201-0.338-0.093-0.505          c10.095-15.704,18.184-32.887,26.007-49.503c1.912-4.062,3.88-8.246,5.427-12.509c3.074-8.47,4.603-17.565,6.081-26.361          c1.649-9.818,3.355-19.969,7.217-29.31c0.079-0.191,0.299-0.283,0.49-0.203c0.193,0.08,0.282,0.299,0.203,0.491          c-3.829,9.261-5.528,19.371-7.171,29.147c-1.483,8.829-3.017,17.958-6.115,26.493c-1.559,4.295-3.535,8.495-5.447,12.556          c-7.841,16.655-15.94,33.86-26.062,49.606c-0.112,0.174-0.345,0.225-0.519,0.113          C372.846,426.1,372.84,426.095,372.833,426.091z"/>
							</g>
						</g>
					</g>
					<g>
						<g>
							<g>
								<path style="fill:#302945;" d="M406.745,356.695c-0.087-0.008-0.166-0.029-0.226-0.073c-0.06-0.044-0.103-0.113-0.116-0.197          c-0.024-0.018-0.031-0.06-0.037-0.102c-0.208-13.173-6.237-25.586-12.648-36.265c0.218-0.119,0.437-0.238,0.655-0.357          c6.095,10.148,11.833,21.842,12.645,34.323c0.051,0.765,0.09,1.522,0.099,2.293          C407.116,356.521,406.958,356.685,406.745,356.695z"/>
							</g>
						</g>
					</g>
					<g>
						<g>
							<g>
								<path style="fill:#302945;" d="M423.376,334.527c-5.272,2.696-10.028,6.464-13.808,11.006          c-0.039,0.028-0.057,0.051-0.083,0.088c-0.116,0.157-0.338,0.18-0.495,0.064c-0.012-0.009-0.012-0.009-0.024-0.018          c-0.112-0.101-0.155-0.245-0.12-0.368c0.003-0.054,0.038-0.103,0.074-0.151c0.301-0.357,0.592-0.701,0.904-1.049          c3.74-4.236,8.318-7.762,13.363-10.327C423.245,334.02,423.313,334.257,423.376,334.527z"/>
							</g>
						</g>
					</g>
					<g>
						<g>
							<g>
								<path style="fill:#302945;" d="M425.134,357.686c-8.62,2.633-16.573,7.194-23.214,13.34          c-0.048,0.039-0.095,0.079-0.143,0.118c-0.131,0.127-0.344,0.138-0.489,0.031c-0.012-0.009-0.028-0.039-0.039-0.048          c-0.051-0.057-0.094-0.125-0.095-0.201c-0.028-0.114,0.007-0.237,0.111-0.328c0.009-0.012,0.039-0.028,0.048-0.039          c0.441-0.421,0.897-0.812,1.341-1.212c6.563-5.736,14.284-9.983,22.602-12.485          C425.223,357.136,425.189,357.409,425.134,357.686z"/>
							</g>
						</g>
					</g>
					<g>
						<g>
							<g>
								<path style="fill:#302945;" d="M393.62,387.717c-0.066-0.012-0.132-0.023-0.193-0.068c-0.048-0.036-0.088-0.083-0.097-0.146          c-0.04-0.048-0.052-0.132-0.041-0.198c0.874-8.645-1.452-17.505-6.747-25.627c-3.907-6.034-9.41-11.622-16.398-16.665          c0.115-0.232,0.221-0.452,0.337-0.684c7.109,5.131,12.712,10.812,16.697,16.942c5.037,7.763,7.447,16.181,6.99,24.462          l0.003,0.021l-0.14,1.632C394.009,387.594,393.827,387.739,393.62,387.717z"/>
							</g>
						</g>
					</g>
					<g>
						<g>
							<g>
								<path style="fill:#302945;" d="M416.568,384.348c-9.488,2.571-18.754,7.116-27.285,13.396          c-0.048,0.039-0.108,0.07-0.161,0.067c-0.105,0.016-0.204-0.001-0.289-0.064c-0.024-0.018-0.06-0.045-0.076-0.075          c-0.121-0.164-0.093-0.405,0.083-0.517c0.319-0.231,0.639-0.462,0.958-0.692c8.541-6.142,17.796-10.546,27.267-13.018          C416.896,383.75,416.749,384.052,416.568,384.348z"/>
							</g>
						</g>
					</g>
				</g>
			</g>
			<g>
				<g>
					<g>
						<g>
							<g>
								<polygon style="fill:#FFFFFF;" points="59.013,313.078 61.731,268.687 63.845,313.38 75.018,304.321 68.374,314.89           92.231,317.91 68.978,320.93 75.622,330.291 64.449,324.252 61.429,362.905 59.013,324.855 47.538,329.687 54.785,320.93           25.795,317.004 54.483,315.796 47.84,305.831         "/>
							</g>
						</g>
					</g>
				</g>
				<g>
					<g>
						<g>
							<g>
								<polygon style="fill:#FFFFFF;" points="310.505,91.868 313.223,47.477 315.337,92.17 326.51,83.111 319.866,93.68           343.723,96.7 320.47,99.72 327.114,109.081 315.941,103.041 312.92,141.695 310.505,103.645 299.03,108.477 306.277,99.72           277.287,95.794 305.975,94.586 299.332,84.621         "/>
							</g>
						</g>
					</g>
				</g>
				<g>
					<g>
						<g>
							<g>
								<polygon style="fill:#FFFFFF;" points="331.262,416.486 333.98,372.095 336.094,416.788 347.267,407.729 340.624,418.298           364.48,421.318 341.228,424.338 347.871,433.699 336.698,427.66 333.678,466.313 331.262,428.263 319.787,433.095           327.034,424.338 298.044,420.412 326.732,419.204 320.089,409.239         "/>
							</g>
						</g>
					</g>
				</g>
				<g>
					<path style="fill:#FFFFFF;" d="M234.138,78.577l-12.935,4.648c-0.384,0.138-0.686,0.44-0.824,0.824l-4.648,12.935       c-0.433,1.205-2.138,1.205-2.571,0l-4.648-12.935c-0.138-0.384-0.44-0.686-0.824-0.824l-12.935-4.648       c-1.206-0.433-1.206-2.138,0-2.571l12.935-4.648c0.384-0.138,0.686-0.44,0.824-0.824l4.648-12.935       c0.433-1.205,2.138-1.205,2.571,0l4.648,12.935c0.138,0.384,0.44,0.686,0.824,0.824l12.935,4.648       C235.344,76.439,235.344,78.144,234.138,78.577z"/>
				</g>
				<g>
					<path style="fill:#FFFFFF;" d="M461.255,407.417l-12.935,4.648c-0.384,0.138-0.686,0.44-0.824,0.824l-4.648,12.935       c-0.433,1.205-2.138,1.205-2.571,0l-4.648-12.935c-0.138-0.384-0.44-0.686-0.824-0.824l-12.935-4.648       c-1.206-0.433-1.206-2.138,0-2.571l12.935-4.648c0.384-0.138,0.686-0.44,0.824-0.824l4.648-12.935       c0.433-1.205,2.138-1.205,2.571,0l4.648,12.935c0.138,0.384,0.44,0.686,0.824,0.824l12.935,4.648       C462.46,405.279,462.46,406.983,461.255,407.417z"/>
				</g>
			</g>
		</g>
	</g>
</g>















</svg>
