<?xml version="1.0" encoding="iso-8859-1"?>
<!-- Generator: Adobe Illustrator 26.5.1, SVG Export Plug-In . SVG Version: 6.00 Build 0)  -->
<svg xmlns="http://www.w3.org/2000/svg" xmlns:xlink="http://www.w3.org/1999/xlink" version="1.1" id="Capa_1" x="0px" y="0px" viewBox="0 0 512 512" style="enable-background:new 0 0 512 512;" xml:space="preserve">
<g>
	<path style="fill:#FFFFFF;" d="M256.459,511.949c-104.65,1.314-204.223-68.122-239.67-166.643   C-68.251,119.889,187.201-89.036,391.218,39.172c13.472-6.372,29.737-5.696,35.457,10.3c6.856,19.43,4.595,21.438,19.934,36.098   C594.023,247.693,475.65,513.237,256.459,511.949z"/>
	<g>
		<g>
			<g>
				<path style="fill:#F8BDFF;" d="M501.979,256c0,25.761-3.959,50.589-11.309,73.928c-1.951,6.198-4.141,12.299-6.572,18.275      c-0.439,1.105-6.58-0.095-7.043,0.999c-0.418,0.99,4.844,4.275,4.41,5.256c-1.018,2.354-2.095,4.699-3.2,7.014      C438.784,444.549,354.094,501.979,256,501.979c-18.42,0-36.359-2.027-53.616-5.861c-1.572-0.348-1.641-2.448-3.201-2.827      c-2.445-0.595-6.37,0.508-8.781-0.161c-48.043-13.26-90.196-40.731-121.635-77.608c-0.729-0.851,2.911-7.719,2.193-8.585      c-0.75-0.904-5.857,4.194-6.593,3.281c-12.558-15.585-23.253-32.736-31.747-51.108c-0.499-1.084,7.75-7.018,7.265-8.107      c-0.439-0.987-9.613,2.872-10.042,1.881c-1.585-3.709-3.094-7.475-4.506-11.28c-5.093-13.702-9.003-27.98-11.588-42.72      c-2.45-13.923-3.728-28.259-3.728-42.883c0-4.055,0.096-8.09,0.298-12.097c0.051-1.088,9.957-2.049,10.023-3.133      c0.07-1.157-9.699-2.437-9.61-3.593C20.34,110.123,126.486,10.021,256,10.021c70.171,0,133.482,29.393,178.296,76.523      c0.836,0.876-4.184,4.832-3.363,5.723c0.746,0.809,7.335-1.448,8.071-0.63c18.564,20.649,33.678,44.469,44.44,70.536      c0.537,1.288-6.899,2.231-6.39,3.528c0.448,1.14,8.845,2.633,9.272,3.785C496.445,196.398,501.979,225.551,501.979,256z"/>
			</g>
		</g>
		<g>
			<g>
				
					<ellipse transform="matrix(0.9239 -0.3827 0.3827 0.9239 -50.8564 194.9552)" style="fill:#F7EDE5;" cx="464.625" cy="225.314" rx="30.175" ry="30.175"/>
			</g>
		</g>
		<g>
			<g>
				<g>
					<g>
						<path style="fill:#412945;" d="M104.819,359.58c2.979,14.384-6.716,27.288-15.364,35.58c-2.172,2.076-4.449,4.103-6.649,6.063        c-5.227,4.651-10.233,9.109-14.038,14.298c-1.489-1.739-2.959-3.517-4.401-5.304c4.074-5.217,9.08-9.666,13.971-14.019        c2.152-1.912,4.382-3.901,6.457-5.89c6.082-5.823,15.912-17.391,13.433-29.364c-2.047-9.906-12.184-16.363-21.139-17.612        c-8.878-1.249-18.977,1.095-30.017,6.966c-4.948,2.633-9.772,5.746-14.451,8.811c-0.951-2.066-1.874-4.141-2.777-6.226        c4.516-2.94,9.195-5.928,14.067-8.523c12.328-6.553,23.8-9.138,34.11-7.696C91.396,338.547,102.407,347.964,104.819,359.58z"/>
					</g>
				</g>
				<g>
					<g>
						<path style="fill:#412945;" d="M154.841,224.945c-17.93,21.168-45.535,33.313-73.14,33.322        c-7.274,0-14.538-0.845-21.629-2.585c-5.294-1.307-10.483-3.065-15.499-4.775c-4.862-1.653-9.887-3.363-14.874-4.593        c-6.361-1.566-12.876-2.354-19.381-2.412c0.106-2.248,0.24-4.487,0.413-6.726c6.909,0.087,13.827,0.942,20.572,2.604        c5.275,1.307,10.445,3.065,15.441,4.756c4.872,1.662,9.916,3.382,14.932,4.612c31.612,7.764,66.991-3.709,88.024-28.547        L154.841,224.945z"/>
					</g>
				</g>
				<g>
					<g>
						<path style="fill:#412945;" d="M302.179,348.588c-17.833,5.246-34.639,14.49-48.629,26.731        c-12.001,10.521-18.891,21.293-20.447,32.006c-1.134,7.764,0.394,15.624,2.008,23.944c1.682,8.696,3.43,17.689,1.96,26.779        c-3.055,18.871-18.17,31.237-34.687,38.069c-4.036-0.894-8.033-1.893-11.982-2.988c18.91-5.275,37.041-17.651,40.029-36.157        c1.278-7.908-0.279-15.931-1.922-24.415c-1.653-8.513-3.363-17.305-2.066-26.203c1.797-12.347,9.426-24.483,22.676-36.09        c14.711-12.885,32.4-22.609,51.156-28.134L302.179,348.588z"/>
					</g>
				</g>
			</g>
			<g>
				<g>
					<g>
						<path style="fill:#412945;" d="M471.808,342.679c4.151,2.306,8.081,4.487,12.289,5.525c-0.836,2.104-1.72,4.189-2.633,6.255        c-4.66-1.316-8.859-3.642-12.914-5.9c-4.679-2.594-9.099-5.044-13.894-5.842c-14.528-2.431-27.932,11.636-32.496,26.635        c-2.585,8.475-3.382,17.247-4.237,26.529c-0.701,7.687-1.432,15.643-3.267,23.368c-4.093,17.199-17.142,35.888-36.109,36.282        c-0.202,0.01-0.394,0.01-0.596,0.01c-15.614,0-27.894-12.847-32.016-25.712c-3.824-11.953-2.806-25.934,3.017-41.557        c0.99-2.642,2.076-5.266,3.132-7.802c2.421-5.832,4.708-11.338,5.909-17.171c1.864-9.099,0.183-17.545-4.497-22.59        c-4.228-4.555-11.213-6.822-18.679-6.063c-6.121,0.624-12.587,3.094-20.351,7.783l-3.478-5.755        c8.648-5.217,16.008-7.994,23.156-8.715c9.551-0.97,18.631,2.085,24.281,8.177c6.245,6.736,8.484,17.132,6.159,28.509        c-1.326,6.476-3.853,12.539-6.284,18.4c-1.038,2.489-2.104,5.054-3.046,7.581c-5.285,14.173-6.265,26.673-2.911,37.147        c3.863,12.068,14.836,21.043,25.655,21.043h0.404c15.402-0.327,26.193-16.363,29.71-31.122        c1.73-7.264,2.431-14.97,3.113-22.417c0.846-9.215,1.72-18.746,4.497-27.884c5.342-17.526,21.187-34.447,40.039-31.314        C461.7,337.067,466.841,339.921,471.808,342.679z"/>
					</g>
				</g>
				<g>
					<g>
						<path style="fill:#412945;" d="M404.318,152.823c-9.388-11.799-7.264-28.143-0.999-39.107        c7.216-12.635,19.938-20.879,28.883-25.991c0.692-0.394,1.393-0.788,2.095-1.182c1.595,1.672,3.161,3.373,4.708,5.092        c-1.172,0.634-2.325,1.278-3.469,1.931c-8.263,4.718-19.976,12.28-26.385,23.483c-6.073,10.646-5.9,23.627,0.432,31.593        c7.504,9.426,21.792,11.107,31.881,11.549c4.41,0.192,8.974,0.25,13.375,0.317c9.493,0.134,19.169,0.269,28.605,1.662        c1.009,2.421,1.97,4.852,2.883,7.312c-10.224-1.941-21.014-2.095-31.574-2.248c-4.458-0.067-9.07-0.135-13.577-0.327        C429.761,166.41,413.533,164.402,404.318,152.823z"/>
					</g>
				</g>
			</g>
		</g>
		<g>
			<g>
				<g>
					<g>
						<path style="fill:#412945;" d="M417.115,52.195l77.048,227.218c2.046,6.033-1.184,12.577-7.217,14.622l-49.93,16.931        l-4.182-1.758l1.179,2.776l-210.147,71.259l-1.154-2.332l-1.913,3.371l-84.445,28.634L76.42,299.568L51.902,163.861        L402.493,44.978C408.526,42.932,415.069,46.162,417.115,52.195z"/>
					</g>
				</g>
				<g>
					<g>
						<path style="fill:#6E72FF;" d="M136.358,412.914l-17.707,6.004c-4.078,1.383-8.506-0.802-9.888-4.88l-79.446-234.29        c-1.383-4.078,0.802-8.505,4.881-9.888l17.707-6.004L136.358,412.914z"/>
					</g>
				</g>
				<g>
					<g>
						
							<rect x="105.464" y="120.284" transform="matrix(0.947 -0.3211 0.3211 0.947 -55.2534 99.8616)" style="fill:#FFC063;" width="339.285" height="194.297"/>
					</g>
				</g>
				<g>
					<g>
						
							<rect x="88.832" y="130.986" transform="matrix(0.947 -0.3211 0.3211 0.947 -35.933 89.0038)" style="fill:#F7EDE5;" width="326.037" height="44.894"/>
					</g>
				</g>
				<g>
					<g>
						<g>
							<path style="fill:#412945;" d="M147.181,346.961c-0.6,0-1.162-0.379-1.365-0.979l-35.689-105.246         c-0.122-0.362-0.096-0.758,0.073-1.101c0.169-0.343,0.467-0.604,0.829-0.727l304.587-103.283         c0.363-0.123,0.757-0.096,1.101,0.072c0.342,0.169,0.604,0.468,0.727,0.829l35.688,105.246         c0.255,0.754-0.148,1.572-0.903,1.827L147.643,346.884C147.49,346.936,147.334,346.961,147.181,346.961z M113.32,241.175         l34.762,102.516l301.856-102.357l-34.762-102.516L113.32,241.175z"/>
						</g>
					</g>
					<g>
						<g>
							<path style="fill:#412945;" d="M171.341,310.813c-8.211,0-15.892-5.177-18.672-13.374l-8.128-23.969         c-3.487-10.286,2.044-21.492,12.33-24.98l225.632-76.51c4.983-1.691,10.325-1.338,15.043,0.99         c4.718,2.328,8.246,6.355,9.936,11.338l8.128,23.969c1.689,4.983,1.338,10.325-0.991,15.043         c-2.328,4.718-6.355,8.247-11.338,9.937l-225.632,76.51C175.561,310.477,173.432,310.813,171.341,310.813z M388.843,173.812         c-1.818,0-3.643,0.298-5.415,0.899l-225.632,76.51c-8.78,2.977-13.502,12.543-10.524,21.324l8.128,23.968         c2.976,8.781,12.544,13.504,21.325,10.525l225.632-76.51c4.254-1.443,7.691-4.455,9.678-8.483         c1.988-4.028,2.289-8.588,0.845-12.842l-8.128-23.969c-1.442-4.254-4.454-7.691-8.482-9.679         C393.921,174.397,391.389,173.812,388.843,173.812z"/>
						</g>
					</g>
					<g>
						<g>
							<g>
								<g>
									
										<ellipse transform="matrix(0.9571 -0.2898 0.2898 0.9571 -67.5876 70.5265)" style="fill:#412945;" cx="204.32" cy="263.455" rx="20.607" ry="20.607"/>
								</g>
							</g>
							<g>
								<g>
									
										<ellipse transform="matrix(0.603 -0.7977 0.7977 0.603 -26.0841 369.8706)" style="fill:#412945;" cx="358.588" cy="211.143" rx="20.607" ry="20.607"/>
								</g>
							</g>
						</g>
						<g>
							<g>
								
									<rect x="245.948" y="229.407" transform="matrix(0.947 -0.3211 0.3211 0.947 -61.7286 104.1787)" style="fill:#412945;" width="78.013" height="19.626"/>
							</g>
						</g>
					</g>
				</g>
				<g>
					<g>
						<g>
							<g>
								<g>
									<path style="fill:#F7EDE5;" d="M162.596,368.824c-7.034,2.385-10.811,10.038-8.426,17.072           c2.382,7.025,10.038,10.811,17.072,8.426c7.025-2.382,10.808-10.047,8.426-17.072           C177.282,370.215,169.621,366.441,162.596,368.824z M170.316,391.591c-5.524,1.873-11.543-1.098-13.416-6.621           c-1.873-5.523,1.098-11.543,6.621-13.416c5.524-1.873,11.543,1.098,13.416,6.621           C178.81,383.698,175.839,389.718,170.316,391.591z"/>
								</g>
							</g>
						</g>
						<g>
							<g>
								<g>
									<path style="fill:#F7EDE5;" d="M455.331,269.559c-7.025,2.382-10.811,10.038-8.426,17.072           c2.382,7.025,10.047,10.808,17.072,8.426c7.034-2.385,10.808-10.047,8.426-17.072           C470.018,270.951,462.365,267.174,455.331,269.559z M463.051,292.327c-5.523,1.873-11.543-1.098-13.416-6.621           c-1.873-5.523,1.098-11.543,6.622-13.416c5.523-1.873,11.543,1.098,13.416,6.621           C471.546,284.434,468.575,290.454,463.051,292.327z"/>
								</g>
							</g>
						</g>
					</g>
					<g>
						<g>
							<g>
								<path style="fill:#F7EDE5;" d="M437.016,310.966l-3.003,1.018l-19.964-21.233c-0.904-0.962-2.289-1.304-3.535-0.881          l-180.145,61.086c-1.201,0.407-2.068,1.442-2.25,2.701l-4.253,29.587l-3.067,1.04l4.464-31.028          c0.34-2.348,1.941-4.27,4.179-5.029l180.146-61.086c2.311-0.784,4.882-0.144,6.56,1.631L437.016,310.966z"/>
							</g>
						</g>
					</g>
				</g>
			</g>
			<g>
				<g>
					<path style="fill:#412945;" d="M164.672,177.751c0.755,2.228,0.366,4.246-1.17,6.057c1.18,0.029,2.284,0.396,3.311,1.098       c1.026,0.703,1.831,1.917,2.416,3.641c0.585,1.724,0.411,3.305-0.523,4.744c-0.933,1.439-2.588,2.562-4.966,3.368l-7.582,2.571       c-0.366,0.124-0.707,0.102-1.026-0.065c-0.319-0.166-0.548-0.452-0.686-0.859l-6.973-20.563       c-0.08-0.236-0.095-0.404-0.045-0.504c0.05-0.1,0.191-0.191,0.427-0.271l7.327-2.484       C160.194,172.786,163.358,173.875,164.672,177.751z M155.212,180.278l1.427,4.209l0.161-0.054       c2.056-0.698,2.852-1.731,2.387-3.103c-0.254-0.749-0.638-1.228-1.15-1.437c-0.512-0.208-1.229-0.157-2.15,0.156       L155.212,180.278z M157.925,188.278l1.417,4.176l0.578-0.196c0.92-0.312,1.538-0.712,1.849-1.2       c0.312-0.488,0.342-1.106,0.087-1.856c-0.253-0.75-0.631-1.207-1.128-1.373c-0.498-0.166-1.208-0.092-2.128,0.22       L157.925,188.278z"/>
				</g>
				<g>
					<path style="fill:#412945;" d="M174.758,179.92c-0.964-0.867-1.56-1.639-1.788-2.313c-0.229-0.675-0.194-1.171,0.105-1.487       c1.04-0.949,2.625-1.786,4.756-2.508c2.132-0.723,3.805-0.735,5.021-0.036c1.215,0.697,2.154,2.021,2.816,3.97l1.721,5.077       l1.092-0.37c0.365-0.124,0.721-0.006,1.07,0.353c0.348,0.36,0.65,0.914,0.904,1.663c0.254,0.75,0.317,1.553,0.19,2.408       c-0.129,0.855-0.513,1.392-1.156,1.61c-1.157,0.392-2.194,0.398-3.112,0.016c-0.408-0.147-0.76-0.374-1.055-0.681       c-0.565,1.577-1.885,2.717-3.963,3.422c-1.564,0.531-3.069,0.42-4.518-0.331c-1.45-0.75-2.431-1.886-2.946-3.407       c-1.184-3.491,0.311-5.945,4.489-7.361l1.767-0.599l-0.109-0.321c-0.189-0.557-0.402-0.885-0.638-0.984       c-0.236-0.099-0.688-0.035-1.35,0.189C177.238,178.505,176.14,179.069,174.758,179.92z M179.332,184.96       c0.161,0.471,0.411,0.787,0.751,0.945c0.342,0.16,0.709,0.171,1.106,0.037c0.396-0.134,0.701-0.416,0.912-0.846l-0.839-2.474       l-0.899,0.305C179.335,183.276,178.991,183.954,179.332,184.96z"/>
				</g>
				<g>
					<path style="fill:#412945;" d="M199.079,175.792c0.712,2.1,1.859,2.88,3.445,2.343c1.028-0.349,1.816-0.843,2.364-1.483       c0.321-0.108,0.771,0.355,1.348,1.388c0.578,1.035,0.934,1.75,1.069,2.146c0.134,0.397,0.169,0.677,0.106,0.842       c-0.896,1.092-2.329,1.971-4.3,2.64c-1.97,0.668-3.894,0.502-5.774-0.496c-1.88-0.998-3.25-2.767-4.109-5.305       c-0.861-2.538-0.876-4.819-0.047-6.845c0.829-2.025,2.375-3.42,4.634-4.186c2.259-0.767,4.013-0.752,5.263,0.042       c0.272,0.171,0.486,0.486,0.643,0.946c0.156,0.461,0.262,1.052,0.314,1.774c0.08,1.501-0.155,2.465-0.704,2.89       c-0.079,0.051-0.197,0.103-0.358,0.157c-0.161,0.054-0.403-0.007-0.725-0.184c-1.118-0.552-1.928-0.743-2.433-0.572       c-0.503,0.17-0.849,0.574-1.04,1.212C198.585,173.739,198.687,174.636,199.079,175.792z"/>
				</g>
				<g>
					<path style="fill:#412945;" d="M205.808,157.605c-0.116-0.342,0.801-0.844,2.749-1.505c1.843-0.554,2.8-0.722,2.873-0.508       l4.183,12.337l1.187-6.959c0.04-0.372,0.897-0.841,2.567-1.408c1.671-0.567,2.778-0.823,3.323-0.769l-1.867,8.228l7.88,7.393       c0.072,0.072-0.306,0.278-1.133,0.618c-0.829,0.341-1.521,0.606-2.077,0.795c-2.056,0.697-3.192,0.975-3.407,0.832       l-5.599-6.054l2.408,7.101c0.094,0.278-0.796,0.735-2.669,1.37c-1.876,0.636-2.855,0.825-2.943,0.568L205.808,157.605z"/>
				</g>
				<g>
					<path style="fill:#412945;" d="M250.197,167.127c0.088,0.257-0.769,0.691-2.567,1.301c-2.171,0.64-3.29,0.865-3.355,0.672       l-3.857-11.374l-1.638,0.555c-0.429,0.145-0.893-0.522-1.394-2c-0.13-0.386-0.253-0.869-0.367-1.452s-0.053-0.913,0.183-0.994       l1.702-0.577l-0.958-2.827c-0.145-0.429,0.686-0.95,2.497-1.563c1.809-0.614,2.772-0.749,2.888-0.406l0.698,2.056l0.337,0.888       l2.732-0.926c0.363-0.123,0.801,0.565,1.309,2.064c0.509,1.499,0.58,2.311,0.217,2.435l-2.282,0.773L250.197,167.127z"/>
				</g>
				<g>
					<path style="fill:#412945;" d="M258.663,162.358c-1.84-1.024-3.202-2.843-4.089-5.456c-0.886-2.613-0.911-4.885-0.072-6.818       c0.837-1.932,2.391-3.283,4.662-4.052c2.271-0.77,4.319-0.641,6.15,0.387c1.828,1.028,3.187,2.848,4.072,5.461       c0.886,2.613,0.916,4.883,0.089,6.812c-0.828,1.928-2.376,3.277-4.647,4.047C262.558,163.509,260.503,163.383,258.663,162.358z        M260.999,151.392c-1.211,0.41-1.481,1.601-0.813,3.572c0.668,1.971,1.606,2.75,2.817,2.34c1.211-0.411,1.482-1.6,0.814-3.571       C263.149,151.762,262.209,150.982,260.999,151.392z"/>
				</g>
				<g>
					<path style="fill:#412945;" d="M287.435,148.483c1.716-0.224,2.979-0.474,3.794-0.75c0.814-0.276,1.461-0.782,1.939-1.517       c0.479-0.736,0.587-1.667,0.324-2.796c-0.969,0.663-1.775,1.104-2.418,1.322c-2.249,0.762-4.196,0.724-5.842-0.115       c-1.646-0.839-2.859-2.41-3.64-4.712c-0.781-2.302-0.713-4.409,0.203-6.32c0.917-1.911,2.596-3.28,5.038-4.109       c2.442-0.828,4.655-0.622,6.639,0.615c1.984,1.238,3.543,3.528,4.676,6.868c1.416,4.178,1.759,7.638,1.03,10.381       c-0.731,2.743-2.562,4.612-5.496,5.606c-3.642,1.235-5.669,1.242-6.084,0.021c-0.218-0.642-0.373-1.526-0.469-2.652       C287.032,149.198,287.134,148.584,287.435,148.483z M288.729,135.291c-0.686,0.233-1.141,0.632-1.367,1.198       c-0.226,0.566-0.222,1.192,0.01,1.878c0.233,0.686,0.639,1.162,1.22,1.431c0.58,0.269,1.212,0.288,1.899,0.055       c0.685-0.232,1.192-0.571,1.518-1.017c-0.502-1.477-1.002-2.495-1.502-3.055C290.007,135.221,289.414,135.058,288.729,135.291z       "/>
				</g>
				<g>
					<path style="fill:#412945;" d="M317.151,144.998c-2.688,0.911-5.218,0.671-7.589-0.723c-2.37-1.393-4.2-3.985-5.486-7.776       c-1.286-3.791-1.4-6.947-0.343-9.467c1.056-2.519,2.939-4.238,5.649-5.157c2.709-0.919,5.227-0.698,7.551,0.664       c2.324,1.361,4.144,3.98,5.458,7.858c1.315,3.877,1.442,7.052,0.383,9.525C321.712,142.394,319.837,144.087,317.151,144.998z        M311.409,128.065c-0.825,0.28-1.363,0.982-1.614,2.106c-0.252,1.125-0.087,2.543,0.494,4.257       c0.581,1.713,1.299,2.933,2.153,3.658c0.855,0.725,1.716,0.94,2.584,0.646c0.867-0.294,1.417-0.994,1.651-2.101       c0.234-1.105,0.06-2.516-0.521-4.229c-0.581-1.714-1.312-2.934-2.191-3.663C313.086,128.011,312.232,127.786,311.409,128.065z"/>
				</g>
				<g>
					<path style="fill:#412945;" d="M329.774,124.596c-0.3,0.102-0.614,0.161-0.943,0.177c-0.659,0.032-1.053-0.145-1.183-0.531       l-2.298-6.779c-0.131-0.385,0.234-0.82,1.098-1.304c0.42-0.238,0.867-0.437,1.337-0.597c0.471-0.16,0.958-0.277,1.457-0.351       c0.98-0.141,1.535-0.019,1.666,0.367l0.371,7.433c0.13,0.386-0.085,0.769-0.648,1.151       C330.359,124.351,330.074,124.495,329.774,124.596z"/>
				</g>
				<g>
					<path style="fill:#412945;" d="M343.98,129.094c2.091,0.461,3.64,0.521,4.647,0.179c0.642-0.218,0.888-0.552,0.736-1.001       c-0.109-0.321-0.809-0.55-2.095-0.686c-3.049-0.184-4.995-1.519-5.836-4.004c-0.538-1.585-0.369-2.991,0.504-4.219       c0.874-1.227,2.119-2.115,3.737-2.664c1.617-0.548,3.046-0.841,4.286-0.88c1.24-0.038,1.955,0.221,2.144,0.777       c0.161,0.472,0.141,1.171-0.059,2.098c-0.199,0.927-0.374,1.453-0.522,1.575c-1.096-0.202-2.179-0.121-3.25,0.242       c-0.579,0.196-0.8,0.498-0.661,0.905c0.086,0.257,0.275,0.439,0.561,0.544c0.286,0.106,0.775,0.191,1.466,0.255       c0.691,0.065,1.27,0.137,1.74,0.217c0.468,0.08,1.013,0.229,1.638,0.448c1.304,0.465,2.177,1.351,2.62,2.657       c0.582,1.714,0.484,3.293-0.291,4.738c-0.777,1.446-2.311,2.556-4.603,3.333c-1.521,0.516-2.989,0.727-4.405,0.635       c-1.417-0.093-2.278-0.59-2.582-1.489c-0.204-0.6-0.273-1.281-0.209-2.043C343.606,129.949,343.753,129.41,343.98,129.094z"/>
				</g>
			</g>
		</g>
		<g>
			<g>
				
					<rect x="251.192" y="49.416" transform="matrix(0.9932 -0.1161 0.1161 0.9932 -6.6938 32.4799)" style="fill:#B5E1E8;" width="48.574" height="48.574"/>
			</g>
		</g>
		<g>
			<g>
				<g>
					
						<rect x="87.07" y="375.453" transform="matrix(0.9932 -0.1161 0.1161 0.9932 -45.6545 15.6309)" style="fill:#B5E1E8;" width="48.574" height="48.574"/>
				</g>
			</g>
			<g>
				<g>
					<g>
						<path style="fill:#E36352;" d="M124.535,64.583l30.374,37.309c0,0,9.998-55.396,8.502-53.613S124.535,64.583,124.535,64.583z"/>
					</g>
				</g>
				<g>
					<g>
						<path style="fill:#E36352;" d="M285.028,465.546l35.894-32.034c0,0-55.793-7.476-53.943-6.064        C268.828,428.862,285.028,465.546,285.028,465.546z"/>
					</g>
				</g>
				<g>
					<g>
						
							<rect x="411.267" y="323.567" transform="matrix(0.9932 -0.1161 0.1161 0.9932 -37.4381 52.9164)" style="fill:#B5E1E8;" width="48.574" height="48.574"/>
					</g>
				</g>
				<g>
					<g>
						<circle style="fill:#F7EDE5;" cx="58.367" cy="290.816" r="30.175"/>
					</g>
				</g>
				<g>
					<g>
						<g>
							<g>
								<path style="fill:#F7EDE5;" d="M68.88,152.756c-0.465,0-0.92-0.224-1.198-0.639c-0.443-0.661-0.267-1.556,0.394-1.999          l37.49-25.142c0.661-0.443,1.556-0.267,2,0.394c0.443,0.661,0.267,1.556-0.394,2l-37.49,25.142          C69.436,152.678,69.157,152.756,68.88,152.756z"/>
							</g>
						</g>
						<g>
							<g>
								<path style="fill:#F7EDE5;" d="M74.073,160.499c-0.465,0-0.92-0.224-1.198-0.638c-0.443-0.661-0.266-1.556,0.394-2          l37.49-25.142c0.661-0.443,1.557-0.267,2.001,0.394c0.443,0.661,0.266,1.556-0.394,2l-37.49,25.142          C74.628,160.42,74.35,160.499,74.073,160.499z"/>
							</g>
						</g>
						<g>
							<g>
								<path style="fill:#F7EDE5;" d="M79.265,168.241c-0.465,0-0.919-0.224-1.198-0.639c-0.443-0.661-0.266-1.556,0.394-2          l37.49-25.142c0.661-0.443,1.557-0.267,2,0.394c0.443,0.661,0.266,1.556-0.394,1.999l-37.49,25.142          C79.82,168.162,79.542,168.241,79.265,168.241z"/>
							</g>
						</g>
					</g>
					<g>
						<g>
							<g>
								<path style="fill:#F7EDE5;" d="M148.752,446.243c-0.465,0-0.92-0.224-1.198-0.639c-0.443-0.661-0.266-1.556,0.394-1.999          l37.489-25.142c0.661-0.443,1.557-0.267,2.001,0.394c0.443,0.661,0.266,1.556-0.394,2l-37.489,25.142          C149.308,446.164,149.029,446.243,148.752,446.243z"/>
							</g>
						</g>
						<g>
							<g>
								<path style="fill:#F7EDE5;" d="M153.944,453.985c-0.464,0-0.92-0.224-1.198-0.639c-0.443-0.661-0.266-1.556,0.394-2          l37.491-25.141c0.659-0.443,1.556-0.268,2,0.394c0.443,0.661,0.266,1.556-0.394,2l-37.491,25.141          C154.5,453.906,154.221,453.985,153.944,453.985z"/>
							</g>
						</g>
						<g>
							<g>
								<path style="fill:#F7EDE5;" d="M159.137,461.728c-0.464,0-0.919-0.224-1.198-0.639c-0.443-0.661-0.266-1.556,0.394-2          l37.489-25.142c0.661-0.443,1.556-0.268,2.001,0.394c0.443,0.661,0.266,1.556-0.394,2l-37.489,25.142          C159.692,461.649,159.414,461.728,159.137,461.728z"/>
							</g>
						</g>
					</g>
					<g>
						<g>
							<g>
								<path style="fill:#F7EDE5;" d="M381.915,364.717c-0.464,0-0.919-0.224-1.198-0.638c-0.443-0.661-0.267-1.556,0.394-2          l37.49-25.142c0.662-0.443,1.557-0.268,2.001,0.394c0.443,0.661,0.266,1.556-0.394,2l-37.49,25.142          C382.47,364.638,382.192,364.717,381.915,364.717z"/>
							</g>
						</g>
						<g>
							<g>
								<path style="fill:#F7EDE5;" d="M387.108,372.459c-0.464,0-0.919-0.224-1.198-0.638c-0.443-0.661-0.266-1.556,0.394-2          l37.49-25.142c0.662-0.443,1.556-0.268,2,0.394c0.443,0.661,0.266,1.556-0.394,2l-37.49,25.142          C387.663,372.381,387.384,372.459,387.108,372.459z"/>
							</g>
						</g>
						<g>
							<g>
								<path style="fill:#F7EDE5;" d="M392.3,380.202c-0.465,0-0.92-0.224-1.198-0.638c-0.443-0.661-0.266-1.556,0.394-2          l37.489-25.142c0.661-0.443,1.556-0.267,2,0.394c0.443,0.661,0.267,1.556-0.394,1.999l-37.489,25.142          C392.856,380.123,392.577,380.202,392.3,380.202z"/>
							</g>
						</g>
					</g>
					<g>
						<g>
							<g>
								<path style="fill:#F7EDE5;" d="M217.628,53.429c-0.464,0-0.919-0.224-1.198-0.639c-0.443-0.661-0.266-1.556,0.394-2          l37.491-25.141c0.659-0.442,1.555-0.267,2,0.394c0.443,0.661,0.266,1.556-0.394,2l-37.491,25.141          C218.184,53.35,217.905,53.429,217.628,53.429z"/>
							</g>
						</g>
						<g>
							<g>
								<path style="fill:#F7EDE5;" d="M222.821,61.171c-0.465,0-0.92-0.224-1.198-0.639c-0.443-0.661-0.266-1.556,0.394-2          l37.49-25.142c0.661-0.442,1.556-0.267,2,0.394c0.443,0.661,0.267,1.556-0.394,2l-37.49,25.142          C223.376,61.093,223.098,61.171,222.821,61.171z"/>
							</g>
						</g>
						<g>
							<g>
								<path style="fill:#F7EDE5;" d="M228.013,68.914c-0.465,0-0.92-0.224-1.198-0.639c-0.443-0.661-0.267-1.556,0.394-2          l37.49-25.142c0.662-0.443,1.556-0.268,2,0.394c0.443,0.661,0.267,1.556-0.394,2l-37.49,25.142          C228.568,68.835,228.289,68.914,228.013,68.914z"/>
							</g>
						</g>
					</g>
				</g>
			</g>
		</g>
	</g>
</g>
<g>
</g>
<g>
</g>
<g>
</g>
<g>
</g>
<g>
</g>
<g>
</g>
<g>
</g>
<g>
</g>
<g>
</g>
<g>
</g>
<g>
</g>
<g>
</g>
<g>
</g>
<g>
</g>
<g>
</g>
</svg>
