<?xml version="1.0" encoding="UTF-8"?>
<!-- Generator: Adobe Illustrator 25.3.1, SVG Export Plug-In . SVG Version: 6.00 Build 0)  -->
<svg xmlns="http://www.w3.org/2000/svg" xmlns:xlink="http://www.w3.org/1999/xlink" version="1.1" id="Capa_1" x="0px" y="0px" viewBox="0 0 512 512" style="enable-background:new 0 0 512 512;" xml:space="preserve" width="512" height="512">
<g>
	<g>
		<path style="fill:#FFFFFF;" d="M256.284,512c-47.497,0-93.546-12.822-133.17-37.081C55.684,433.641,9.097,359.109,1.53,280.406    C-5.262,209.749,17.894,141.231,66.733,87.47C117.234,31.882,188.008,0,260.907,0c32.132,0,63.646,6.223,93.659,18.493    c46.927,19.184,86.597,52.489,114.719,96.316c26.989,42.056,41.624,90.753,42.32,140.825    c0.623,44.465-10.17,88.064-31.206,126.087c-17.032,30.785-40.586,58.069-68.115,78.898c-1.958,1.506-4.005,3.022-6.08,4.482    c-0.621,0.457-1.088,0.798-1.555,1.116C361.099,496.158,309.782,512,256.284,512z"/>
	</g>
	<g>
		<g>
			<g>
				<path style="fill:#5F2183;" d="M498.337,257.247c-0.048,6.495-0.272,13.002-0.814,19.466      c-9.432,129.138-124.621,229.385-253.745,221.273c-0.446-0.021-0.892-0.044-1.337-0.068      c-39.98-2.158-166.887-78.407-186.346-107.574c-0.519-0.778-1.034-1.559-1.544-2.344c-0.614-0.944,0.779-1.893,0.178-2.846      c-0.66-1.048-3.313-2.101-3.957-3.159c-1.098-1.803-2.172-3.622-3.222-5.456c-0.579-1.012,1.849-2.028,1.284-3.049      c-0.516-0.933-4.026-1.87-4.53-2.81c-6.987-13.045-12.777-26.811-17.201-41.164v-0.026c-2.154-6.83-3.993-13.792-5.517-20.885      v-0.026c-10.32-46.345-5.818-97.962,11.69-140.861v-0.026c1.524-3.835,3.152-7.592,4.886-11.322v-0.026      c7.882-16.996,17.657-33.102,29.265-47.786c18.942-24.254,42.632-44.808,69.301-60.185v-0.026      c0.368-0.21,0.762-0.42,1.156-0.631V47.69C298.871-43.366,497.835,72.309,498.337,257.247z"/>
			</g>
		</g>
		<g>
			<g>
				<g style="opacity:0.15;">
					<path style="fill:#1C0231;" d="M220.424,132.49c-0.657,8.512,1.313,17.26,6.042,24.379c0.079,0.131,0.158,0.237,0.237,0.368       c0.263,0.394,0.552,0.788,0.841,1.156c11.638,15.972,33.258,21.095,49.493,32.654c32.155,22.829,38.985,71.612,20.228,106.316       c-4.834,8.932-11.034,16.944-18.232,23.932c-1.996,1.97-4.098,3.862-6.279,5.648c-11.06,9.3-24.037,16.498-37.855,21.515       c-11.217,4.098-22.986,6.725-34.755,7.855c-28.608,2.759-60.211-1.576-83.671,15.027c-4.519,3.205-8.433,7.014-11.769,11.323       c-1.182,1.471-2.259,2.995-3.257,4.571c-0.893,1.366-1.734,2.785-2.522,4.23c-0.841,1.55-1.629,3.126-2.364,4.755       c-0.709,1.602-1.392,3.231-1.996,4.86c-0.578,1.629-1.13,3.258-1.602,4.912c-2.338,7.908-3.468,16.261-3.442,24.484       c-1.156-1.13-32.671-39.607-33.068-40.201c-0.607-0.908-1.521-1.777-2.108-2.698c-1.287-1.97-2.522-3.993-3.757-6.016       c-1.077-1.786-2.128-3.573-3.153-5.385c-1.103-1.97-2.207-3.914-3.257-5.911c-5.727-10.797-10.666-22.067-14.738-33.757       c-0.184-0.394-0.289-0.788-0.42-1.182c-0.184-0.578-0.394-1.156-0.578-1.734c-0.473-1.366-0.893-2.706-1.34-4.072v-0.026       c-2.154-6.83-3.993-13.792-5.517-20.885v-0.026c-0.788-3.573-1.471-7.172-2.075-10.824c-0.131-0.709-0.263-1.445-0.368-2.18       c-0.105-0.42-0.158-0.867-0.21-1.313c-0.026-0.237-0.079-0.499-0.105-0.736c-0.552-3.599-1.024-7.251-1.392-10.902       c-0.263-2.47-0.499-4.965-0.683-7.461c-0.263-3.441-0.447-6.909-0.526-10.403c-0.105-2.496-0.131-4.991-0.131-7.513       c0-31.629,6.095-61.84,17.181-89.529c15.762-39.496,42.234-74.635,75.816-100.72c6.436-5.018,13.109-9.72,20.044-14.055       c2.496-1.576,5.018-3.1,7.592-4.571v-0.026c0.368-0.21,0.762-0.42,1.156-0.631V47.69c3.757-2.154,7.619-4.203,11.506-6.173       c0.368-0.158,0.709-0.342,1.077-0.526c3.415-1.681,6.883-3.284,10.403-4.834c5.596-2.443,11.27-4.676,17.076-6.699       c14.291-4.965,29.212-8.643,44.607-10.85c11.322-1.655,22.908-2.496,34.677-2.496c17.522,0,34.624,1.865,51.096,5.464       c16.577,3.546,32.549,8.827,47.654,15.631c-13.844,24.694-39.983,41.98-67.698,49.388c-3.94,1.051-8.012,1.97-12.084,2.89       c-13.871,3.074-28.03,6.068-38.932,13.765c-0.447,0.289-0.867,0.604-1.287,0.92c-2.496,1.891-4.834,4.046-6.909,6.515       c-1.182,1.419-2.259,2.916-3.205,4.492c-0.237,0.394-0.473,0.788-0.683,1.209c-2.732,4.912-4.335,10.429-4.755,16.077V132.49z"/>
				</g>
				<g style="opacity:0.15;">
					<path style="fill:#1C0231;" d="M498.337,257.247c-0.359,211.567-254.971,320.166-407.845,174.145       c27.462-83.884,121.374-13.683,178.532-11.192c74.711,9.822,119.447-49.973,104.74-120.553c0,0,0,0-0.026-0.026       c-5.523-25.635-19.051-49.424-20.596-75.947c-3.109-55.977,46.973-99.741,99.117-108.233       C482.057,156.177,498.441,206.514,498.337,257.247z"/>
				</g>
			</g>
			<g style="opacity:0.19;">
				<path style="fill:#1C0231;" d="M111.245,102.542c-0.342,2.312-0.368,4.597-0.158,6.83c0.841,8.223,5.228,15.788,11.349,22.198      c2.653,2.785,5.648,5.359,8.827,7.697c1.865,1.366,3.783,2.653,5.727,3.835c1.34,0.788,2.679,1.576,4.046,2.286      c3.993,2.102,8.117,4.019,12.242,5.937c1.182,0.552,2.364,1.103,3.546,1.655c11.743,5.438,23.276,11.191,31.551,20.937      c8.196,9.641,12.189,22.303,13.398,34.887c1.576,16.419-1.392,32.496-7.723,47.418c-0.709,1.734-1.471,3.441-2.312,5.149      c-0.237,0.525-0.473,1.024-0.736,1.524c-0.735,1.471-1.497,2.942-2.312,4.387c-0.21,0.394-0.42,0.788-0.657,1.156      c-0.604,1.077-1.235,2.154-1.892,3.205c-12.715,20.964-31.918,38.749-53.512,50.859c-1.892,1.077-3.809,2.102-5.753,3.074      c-16.97,8.538-36.358,15.289-46.892,31.104c-3.94,5.911-6.2,12.505-7.277,19.414c-0.263,1.707-0.447,3.415-0.578,5.149      c-0.105,1.55-0.184,3.1-0.184,4.676c-0.026,1.76,0.026,3.52,0.158,5.307c0.079,1.786,0.237,3.546,0.447,5.333      c0.21,1.813,0.473,3.625,0.788,5.412c0.657,4.019,1.55,8.012,2.574,11.874c0.289,1.13,0.604,1.259,0.946,2.363      c-4.335-4.808-8.406-9.799-12.294-14.974c-0.496-0.647-2.424-5.884-3.842-7.959c-0.368-0.525-2.043-1.018-2.358-1.544      c-0.385-0.563-1.79-0.763-2.168-1.328c-0.627-0.937-1.244-1.878-1.851-2.828c-1.287-1.97-2.522-3.993-3.757-6.016      c-1.077-1.786-2.128-3.573-3.153-5.385c-1.103-1.97-2.207-3.914-3.257-5.911c-5.727-10.797-10.666-22.067-14.738-33.757      c-0.184-0.394-0.289-0.788-0.42-1.182c-0.184-0.578-0.394-1.156-0.578-1.734c-0.473-1.366-0.893-2.706-1.34-4.072v-0.026      c-2.154-6.83-3.993-13.792-5.517-20.885v-0.026c-0.788-3.573-1.471-7.172-2.075-10.824c-0.131-0.709-0.263-1.445-0.368-2.18      c-0.105-0.42-0.158-0.867-0.21-1.313c-0.026-0.237-0.079-0.499-0.105-0.736c-0.552-3.599-1.024-7.251-1.392-10.902      c-0.263-2.47-0.499-4.965-0.683-7.461c-0.263-3.441-0.447-6.909-0.526-10.403c-0.105-2.496-0.131-4.991-0.131-7.513      c0-31.629,6.095-61.84,17.181-89.529v-0.026c1.524-3.835,3.152-7.592,4.886-11.322v-0.026c1.025-2.207,2.075-4.387,3.126-6.541      c1.103-2.154,2.207-4.308,3.336-6.41c5.62-10.443,11.983-20.461,19.046-29.974c0.105-0.131,0.21-0.263,0.289-0.394      c1.103-1.445,2.207-2.89,3.336-4.308c0.026-0.053,0.052-0.105,0.131-0.158c12.094-15.46,26.144-29.529,41.665-41.559      c6.436-5.018,13.109-9.72,20.044-14.055c2.496-1.576,5.018-3.1,7.592-4.571v-0.026c0.368-0.21,0.762-0.42,1.156-0.631V47.69      c3.757-2.154,7.619-4.203,11.506-6.173c0.368-0.158,0.709-0.342,1.077-0.526c3.415-1.681,6.883-3.284,10.403-4.834      c5.596-2.443,11.27-4.676,17.076-6.699c14.291-4.965,29.212-8.643,44.607-10.85c-11.9,18.915-31.183,33.784-52.278,42.427      c-0.946,0.394-1.891,0.788-2.863,1.13c-0.21,0.105-0.447,0.184-0.657,0.263c-0.184,0.079-0.368,0.131-0.552,0.184      c-0.394,0.184-0.814,0.315-1.208,0.447c-2.785,1.024-5.596,1.97-8.406,2.89l-1.892,0.63c-0.998,0.315-1.996,0.657-2.995,0.998      c-0.079,0.026-0.184,0.053-0.263,0.079c-0.368,0.131-0.735,0.263-1.103,0.394c-0.237,0.053-0.447,0.131-0.683,0.21h-0.026      c-4.019,1.366-7.96,2.863-11.822,4.624c-1.13,0.526-2.18,1.051-3.284,1.655c-0.026,0-0.026,0-0.052,0      c-0.499,0.237-0.972,0.499-1.471,0.762C122.41,81.079,112.979,90.615,111.245,102.542z"/>
			</g>
			<g style="opacity:0.19;">
				<path style="fill:#1C0231;" d="M498.337,257.247c0.18,50.778-16.692,102.241-46.787,142.726      c15.611-67.844-63.972-122.343-43.95-189.96c8.859-30.302,33.856-54.008,62.707-65.649      C488.656,178.637,498.366,218.074,498.337,257.247z"/>
			</g>
		</g>
		<g>
			<g>
				<g>
					<polygon style="fill:#564BB7;" points="294.741,111.315 261.683,117.66 284.695,142.23 254.213,127.921 258.412,161.329        242.164,131.829 225.916,161.329 230.115,127.921 199.633,142.23 222.645,117.66 189.586,111.315 222.645,104.969        199.633,80.399 230.115,94.708 225.916,61.3 242.164,90.8 258.412,61.3 254.213,94.708 284.695,80.399 261.683,104.969             "/>
				</g>
			</g>
			<g>
				<g>
					<path style="fill:#564BB7;" d="M498.337,257.247c0,0.578,0,1.156-0.026,1.708c0,0.867,0,1.734-0.026,2.601       c0,0.368,0,0.762-0.026,1.13v0.026l-1.366,1.445l1.313,0.263c-0.026,0.368-0.026,0.735-0.052,1.103       c0,0.131,0,0.236-0.026,0.368c-0.026,1.392-0.079,2.785-0.158,4.177c-0.026,0.683-0.079,1.392-0.105,2.102       c-0.105,1.471-0.21,2.916-0.315,4.361c0,0.052,0,0.131-0.026,0.184l-0.63,0.131l0.578,0.604       c-0.079,0.867-0.158,1.734-0.237,2.601c-0.052,0.709-0.105,1.366-0.184,2.075c-0.026,0.237-0.052,0.473-0.079,0.709       c-0.158,1.392-0.289,2.811-0.473,4.203v0.026c-0.131,1.077-0.263,2.128-0.42,3.179l-6.673-3.126l2.968,23.565       c-0.394,1.786-0.814,3.546-1.261,5.307l-13.739-24.983l-16.261,29.501l4.203-33.389l-30.473,14.291l23.013-24.563       l-33.074-6.331l33.074-6.357l-23.013-24.563l30.473,14.291l-4.203-33.389l16.261,29.501l16.235-29.501l-4.203,33.389       l8.801-4.124C498.311,252.23,498.337,254.725,498.337,257.247z"/>
				</g>
			</g>
			<g>
				<g>
					<path style="fill:#564BB7;" d="M84.818,318.851l-30.473-14.317l4.203,33.416l-16.261-29.501l-13.844,25.141       c-0.473-1.366-0.893-2.706-1.34-4.072v-0.026l3.126-24.957l-8.643,4.046c-0.788-3.573-1.471-7.172-2.075-10.824l3.257-3.468       l-3.94-0.762c-0.552-3.599-1.024-7.251-1.392-10.902l5.333-1.025l-6.016-6.436c-0.263-3.441-0.447-6.909-0.526-10.403       l14.002,6.568l-4.177-33.416l16.235,29.501l14.895-27.032l1.366-2.47l-0.263,2.049l-3.94,31.367l30.473-14.291L61.805,281.6       l33.048,6.331l-33.048,6.357L84.818,318.851z"/>
				</g>
			</g>
		</g>
		<g style="opacity:0.19;">
			<path style="fill:#1C0231;" d="M345.891,481.49c-16.314,6.489-33.521,11.217-51.358,13.976h-0.026     c-1.182,0.21-2.338,0.368-3.546,0.499c-8.144,1.182-16.393,1.892-24.773,2.181c-0.473,0.052-0.972,0.052-1.445,0.052     c-2.496,0.105-5.018,0.158-7.513,0.158c-4.518,0-9.01-0.131-13.45-0.368c-8.223-0.473-16.314-1.34-24.274-2.601     c-0.657-0.079-1.313-0.184-1.944-0.315c-3.153-0.499-6.279-1.077-9.405-1.734c-17.549-3.625-34.388-9.142-50.334-16.392     c-0.762-0.342-1.524-0.657-2.312-1.051c-1.419-0.657-2.811-1.314-4.203-2.023c-4.624-2.233-9.168-4.65-13.582-7.172     c-3.415-1.944-6.751-3.993-10.035-6.068c-0.867-0.552-1.734-1.13-2.601-1.708c-2.995-1.944-5.99-3.993-8.88-6.095     c-3.31-2.391-6.568-4.86-9.746-7.408c-2.443-1.944-4.807-3.94-7.145-6.016c13.424-14.711,33.39-21.042,53.644-21.121     c8.722-0.026,17.47,1.077,25.798,3.179c6.016,1.524,11.874,3.441,17.601,5.727c20.753,8.091,39.983,20.202,59.555,31.051     c2.574,1.419,5.175,2.837,7.802,4.203c5.727,2.995,11.585,5.858,17.522,8.406c3.494,1.524,6.988,2.916,10.561,4.203     c14.58,5.254,29.712,8.407,45.132,7.461C339.954,482.331,342.949,481.989,345.891,481.49z"/>
		</g>
		<path style="fill:#9F6DA4;" d="M266.635,423.005c-0.026-0.473-0.053-0.919-0.079-1.392c-0.105-1.314-0.21-2.627-0.341-3.914    c-2.837-26.638-15.289-50.439-33.784-67.83c-3.546-3.336-7.329-6.436-11.322-9.273c-4.124-2.968-8.459-5.622-12.978-7.986h-0.026    c-15.053-7.828-32.155-12.268-50.281-12.268c-9.562,0-18.836,1.235-27.662,3.573c-28.871,7.513-53.092,26.638-67.383,52.067    c-0.893,1.55-1.734,3.126-2.522,4.729c-0.709,1.419-1.392,2.864-2.049,4.335c-0.709,1.602-1.366,3.205-1.996,4.834    c-0.052,0.13-0.1,0.266-0.152,0.397c41.255,61.878,110.719,103.579,186.47,107.639c8.139-10.034,14.541-21.544,18.72-34.059    c2.181-6.568,3.757-13.424,4.676-20.491c0.21-1.708,0.394-3.415,0.526-5.149c0.157-1.707,0.236-3.442,0.315-5.201    c0.026-1.209,0.053-2.443,0.053-3.678c0-0.526,0-1.025-0.026-1.55C266.792,426.183,266.74,424.581,266.635,423.005z"/>
		<g>
			<g>
				<path style="fill:#FF8933;" d="M452.391,160.31c0,13.45-5.307,25.666-13.95,34.624c-3.31,3.442-7.119,6.41-11.296,8.774      c-7.277,4.177-15.736,6.568-24.72,6.568c-27.61,0-49.966-22.382-49.966-49.966c0-6.778,1.34-13.214,3.783-19.098      c1.918-4.624,4.492-8.906,7.618-12.689c9.168-11.112,23.039-18.179,38.565-18.179C430.008,110.344,452.391,132.7,452.391,160.31      z"/>
			</g>
			<g>
				<path style="fill:#FF5382;" d="M452.391,160.31c0,13.45-5.307,25.666-13.95,34.624c-0.315-0.131-0.631-0.289-0.92-0.446      c-8.748-4.492-15.263-13.056-17.286-22.671c-1.366-6.594-0.709-13.398-0.604-20.123c0.079-6.751-0.499-13.792-4.019-19.519      c-3.363-5.438-9.273-9.195-15.631-9.93c-5.701-0.631-11.375,1.051-16.813,2.837c-5.438,1.813-10.981,3.757-16.708,3.651      c-0.867,0-1.734-0.079-2.601-0.21c9.168-11.112,23.039-18.179,38.565-18.179C430.008,110.344,452.391,132.7,452.391,160.31z"/>
			</g>
			<g>
				<path style="fill:#FF5382;" d="M427.145,203.709c-7.277,4.177-15.736,6.568-24.72,6.568c-27.61,0-49.966-22.382-49.966-49.966      c0-6.778,1.34-13.214,3.783-19.098c1.576,0.21,3.074,0.735,4.413,1.602c4.387,2.837,6.095,8.538,5.937,13.766      c-0.158,5.228-1.813,10.272-2.68,15.421c-0.919,5.28-0.919,10.981,1.55,15.736c2.47,4.781,7.908,8.301,13.161,7.172      c5.123-1.077,8.433-5.858,12.61-9.037c8.301-6.305,21.121-5.517,28.74,1.55C424.439,191.572,426.935,197.614,427.145,203.709z"/>
			</g>
			<g>
				<path style="fill:#FF5382;" d="M382.589,138.98c-2.515,2.501-4.257,5.673-5.702,8.912c-1.886,4.225-3.339,8.72-3.487,13.344      c-0.149,4.624,1.111,9.412,4.13,12.918c2.098,2.436,6.061,4.102,8.394,1.89c2.012-1.907,1.328-5.215,2.089-7.882      c0.776-2.724,3.325-4.848,6.144-5.121c2.733-0.265,5.513,1.054,8.181,0.403c3.393-0.828,5.255-4.464,6.157-7.838      c1.473-5.511,1.462-11.726-1.574-16.556C401.456,130.36,388.999,132.604,382.589,138.98z"/>
			</g>
		</g>
		<g>
			<g>
				
					<ellipse transform="matrix(0.1571 -0.9876 0.9876 0.1571 -29.159 631.8699)" style="fill:#95ABD3;" cx="355.585" cy="333.017" rx="38.008" ry="38.008"/>
			</g>
			<g>
				<path style="fill:#F3C7D1;" d="M404.789,307.581c-0.867-1.366-7.855,1.839-16.34,6.384c-3.888,2.102-8.065,4.466-12.111,6.83      c-9.667,5.622-18.573,11.139-20.622,12.426c-12.111,7.566-23.354,14.974-31.682,20.964c-0.184,0.131-0.342,0.237-0.526,0.368      c-13.503,9.694-12.846,10.771-12.4,11.48c0.131,0.21,0.42,0.315,0.867,0.315c2.312,0,8.722-3.047,16.13-7.067      c13.03-7.04,29.212-17.102,32.076-18.888c1.76-1.077,8.433-5.28,16.13-10.35c4.913-3.205,10.245-6.804,14.948-10.141      c7.618-5.438,13.608-10.271,13.608-12.005C404.868,307.765,404.841,307.66,404.789,307.581z M390.761,318.641      c-3.94,2.811-8.748,6.095-14.37,9.825c-4.991,3.284-10.639,6.909-16.892,10.823c-13.345,8.328-24.3,14.659-32.312,18.993      c-7.96,4.308-13.004,6.594-14.685,6.883c0.972-1.366,5.123-4.781,12.268-9.904c7.434-5.333,18.074-12.478,31.629-20.937      c7.434-4.624,14.107-8.643,19.965-12.058c4.86-2.785,9.116-5.175,12.767-7.145c7.697-4.151,12.636-6.384,14.291-6.673      C402.424,309.814,398.116,313.361,390.761,318.641z"/>
			</g>
		</g>
		<g>
			<g>
				<path style="fill:#1C0231;" d="M218.482,263.797c-9.454-0.716-18.908-0.897-28.361-0.912c-0.001-0.004-0.002-0.007-0.003-0.01      c3.993-3.625,7.888-7.36,11.509-11.4c0.136-0.151,0.154-0.381,0.031-0.553c-0.142-0.199-0.419-0.245-0.618-0.103      c-4.38,3.134-8.491,6.569-12.504,10.112c-0.158-0.089-0.321-0.166-0.493-0.229c-0.01-4.117-0.053-8.233-0.095-12.35      c-0.118-5.234-0.237-10.468-0.528-15.702c-0.009-0.172-0.147-0.314-0.323-0.323c-0.189-0.011-0.351,0.134-0.361,0.323      c-0.291,5.234-0.409,10.468-0.528,15.702c-0.041,4.076-0.083,8.151-0.094,12.227c-0.196,0.045-0.389,0.102-0.57,0.179      c-1.407-1.517-2.824-3.024-4.281-4.496c-2.223-2.297-4.477-4.566-6.823-6.753c-0.079-0.074-0.202-0.083-0.291-0.016      c-0.101,0.076-0.122,0.218-0.047,0.319c1.916,2.571,3.925,5.06,5.965,7.521c1.291,1.594,2.621,3.152,3.961,4.702      c-0.173,0.265-0.299,0.56-0.393,0.869c-4.086,0.028-8.172,0.072-12.257,0.213c-5.234,0.137-10.468,0.326-15.702,0.68      c-0.126,0.009-0.231,0.109-0.239,0.239c-0.01,0.142,0.098,0.264,0.239,0.274c5.234,0.354,10.468,0.542,15.702,0.68      c4.119,0.142,8.237,0.186,12.356,0.214c0.007,0.016,0.015,0.032,0.021,0.048c-3.874,3.58-7.668,7.251-11.248,11.16      c-0.132,0.144-0.149,0.366-0.029,0.53c0.136,0.187,0.398,0.227,0.585,0.091c4.311-3.153,8.403-6.55,12.415-10.036      c0.206,0.093,0.421,0.167,0.646,0.218c0.025,4.181,0.03,8.361,0.139,12.541c0.096,5.234,0.227,10.468,0.473,15.702      c0.009,0.174,0.148,0.318,0.326,0.326c0.189,0.009,0.349-0.137,0.358-0.326c0.246-5.234,0.377-10.468,0.473-15.702      c0.11-4.221,0.114-8.443,0.14-12.664c0.119-0.043,0.234-0.092,0.347-0.148c1.437,1.603,2.866,3.215,4.344,4.781      c2.219,2.3,4.435,4.603,6.799,6.774c0.15,0.138,0.382,0.156,0.553,0.031c0.194-0.142,0.236-0.415,0.094-0.609      c-1.899-2.587-3.945-5.042-5.989-7.5c-1.41-1.659-2.871-3.273-4.323-4.894c0.055-0.101,0.12-0.196,0.165-0.303      c9.486-0.013,18.973-0.194,28.46-0.912c0.125-0.009,0.228-0.108,0.237-0.237C218.73,263.931,218.623,263.807,218.482,263.797z"/>
			</g>
			<g>
				<path style="fill:#1C0231;" d="M187.051,73.504c-9.454-0.716-18.908-0.897-28.361-0.912c-0.001-0.004-0.002-0.007-0.003-0.01      c3.993-3.625,7.887-7.361,11.509-11.4c0.135-0.151,0.154-0.381,0.031-0.553c-0.142-0.199-0.419-0.245-0.618-0.103      c-4.38,3.134-8.491,6.568-12.503,10.112c-0.158-0.089-0.321-0.167-0.493-0.229c-0.01-4.117-0.053-8.233-0.095-12.35      c-0.118-5.234-0.237-10.468-0.528-15.702c-0.01-0.172-0.147-0.313-0.323-0.323c-0.189-0.011-0.351,0.134-0.361,0.323      c-0.291,5.234-0.409,10.468-0.528,15.702c-0.042,4.076-0.084,8.151-0.095,12.227c-0.196,0.045-0.388,0.102-0.57,0.179      c-1.407-1.516-2.824-3.024-4.281-4.496c-2.223-2.297-4.477-4.566-6.823-6.753c-0.079-0.074-0.202-0.083-0.292-0.016      c-0.101,0.075-0.122,0.218-0.046,0.319c1.916,2.571,3.925,5.06,5.965,7.521c1.291,1.594,2.621,3.152,3.961,4.702      c-0.173,0.265-0.299,0.559-0.394,0.868c-4.085,0.028-8.171,0.072-12.257,0.214c-5.234,0.138-10.468,0.326-15.702,0.68      c-0.127,0.009-0.231,0.109-0.239,0.239c-0.01,0.142,0.098,0.264,0.239,0.274c5.234,0.353,10.468,0.542,15.702,0.68      c4.119,0.142,8.237,0.186,12.356,0.214c0.007,0.016,0.015,0.032,0.022,0.048c-3.874,3.58-7.668,7.25-11.248,11.16      c-0.132,0.144-0.149,0.366-0.029,0.53c0.137,0.187,0.399,0.228,0.586,0.091c4.311-3.153,8.403-6.55,12.415-10.036      c0.206,0.094,0.421,0.167,0.647,0.218c0.025,4.181,0.03,8.361,0.139,12.541c0.096,5.234,0.227,10.468,0.473,15.702      c0.009,0.174,0.149,0.318,0.326,0.326c0.189,0.009,0.349-0.137,0.358-0.326c0.246-5.234,0.377-10.468,0.473-15.702      c0.11-4.222,0.114-8.443,0.14-12.665c0.12-0.043,0.234-0.092,0.347-0.148c1.437,1.603,2.866,3.215,4.344,4.781      c2.219,2.3,4.435,4.603,6.799,6.774c0.15,0.138,0.382,0.156,0.553,0.03c0.194-0.142,0.236-0.415,0.094-0.609      c-1.899-2.587-3.945-5.042-5.989-7.5c-1.41-1.659-2.871-3.273-4.323-4.894c0.055-0.101,0.119-0.196,0.164-0.303      c9.487-0.013,18.973-0.194,28.46-0.912c0.125-0.01,0.228-0.109,0.237-0.237C187.299,73.638,187.192,73.515,187.051,73.504z"/>
			</g>
			<g>
				<path style="fill:#1C0231;" d="M401.298,242.784c-8.987,3.021-17.765,6.534-26.479,10.201c-0.003-0.003-0.005-0.005-0.007-0.008      c2.267-4.894,4.4-9.851,6.164-14.982c0.066-0.192-0.007-0.411-0.187-0.521c-0.209-0.128-0.481-0.062-0.609,0.146      c-2.814,4.592-5.264,9.356-7.581,14.182c-0.18-0.02-0.36-0.029-0.543-0.019c-1.612-3.788-3.254-7.564-4.895-11.339      c-2.146-4.775-4.293-9.55-6.598-14.258c-0.076-0.155-0.257-0.231-0.423-0.172c-0.178,0.064-0.271,0.26-0.207,0.438      c1.769,4.934,3.698,9.801,5.626,14.668c1.548,3.77,3.096,7.541,4.673,11.299c-0.163,0.118-0.318,0.245-0.456,0.387      c-1.887-0.849-3.779-1.686-5.694-2.475c-2.942-1.25-5.901-2.463-8.913-3.564c-0.102-0.037-0.218,0.002-0.275,0.099      c-0.063,0.109-0.027,0.248,0.081,0.312c2.767,1.622,5.585,3.133,8.422,4.606c1.809,0.965,3.641,1.883,5.478,2.789      c-0.056,0.311-0.058,0.632-0.024,0.953c-3.752,1.617-7.499,3.247-11.207,4.968c-4.768,2.164-9.515,4.375-14.199,6.738      c-0.113,0.057-0.17,0.19-0.127,0.314c0.046,0.134,0.193,0.205,0.327,0.159c4.959-1.712,9.853-3.576,14.728-5.486      c3.849-1.472,7.66-3.035,11.465-4.612c0.013,0.012,0.026,0.023,0.038,0.035c-2.176,4.806-4.241,9.664-6.016,14.658      c-0.066,0.184,0.005,0.395,0.179,0.5c0.199,0.119,0.456,0.054,0.575-0.144c2.743-4.583,5.191-9.304,7.529-14.078      c0.226,0.006,0.453-0.01,0.681-0.051c1.651,3.841,3.282,7.689,5.01,11.497c2.126,4.784,4.284,9.554,6.548,14.279      c0.076,0.157,0.26,0.235,0.427,0.174c0.178-0.065,0.269-0.263,0.203-0.44c-1.811-4.917-3.727-9.789-5.677-14.647      c-1.542-3.931-3.181-7.822-4.801-11.72c0.093-0.087,0.18-0.176,0.262-0.271c1.948,0.917,3.891,1.845,5.862,2.713      c2.94,1.255,5.877,2.513,8.9,3.593c0.192,0.069,0.413-0.005,0.521-0.187c0.123-0.207,0.056-0.474-0.151-0.598      c-2.756-1.644-5.597-3.108-8.436-4.577c-1.945-0.979-3.919-1.897-5.887-2.825c0.012-0.115,0.033-0.228,0.034-0.343      c8.733-3.705,17.401-7.564,25.86-11.919c0.111-0.057,0.167-0.189,0.126-0.311C401.579,242.811,401.433,242.739,401.298,242.784z      "/>
			</g>
			<g>
				<path style="fill:#1C0231;" d="M413.81,426.379c-6.594-4.832-13.432-9.274-20.345-13.593c0.001-0.003,0.001-0.006,0.002-0.009      c4.575-0.834,9.128-1.793,13.62-3.1c0.168-0.049,0.286-0.209,0.274-0.391c-0.014-0.21-0.195-0.37-0.406-0.356      c-4.634,0.298-9.209,0.939-13.761,1.703c-0.075-0.137-0.159-0.268-0.256-0.392c1.868-3.018,3.714-6.051,5.559-9.084      c2.299-3.885,4.598-7.771,6.77-11.734c0.071-0.13,0.035-0.296-0.089-0.384c-0.134-0.094-0.318-0.062-0.412,0.072      c-2.598,3.699-5.071,7.476-7.542,11.254c-1.888,2.964-3.776,5.929-5.641,8.907c-0.165-0.056-0.331-0.103-0.499-0.129      c-0.339-1.751-0.689-3.501-1.085-5.242c-0.58-2.694-1.196-5.383-1.917-8.053c-0.024-0.09-0.11-0.152-0.206-0.144      c-0.108,0.009-0.189,0.104-0.18,0.212c0.231,2.756,0.567,5.493,0.939,8.224c0.218,1.755,0.482,3.502,0.756,5.247      c-0.247,0.115-0.474,0.273-0.684,0.457c-3.004-1.841-6.014-3.672-9.07-5.43c-3.894-2.284-7.811-4.532-11.804-6.659      c-0.096-0.051-0.218-0.025-0.284,0.066c-0.072,0.099-0.049,0.238,0.05,0.31c3.67,2.644,7.416,5.167,11.184,7.654      c2.95,1.981,5.945,3.89,8.947,5.788c-0.003,0.015-0.004,0.03-0.006,0.045c-4.468,0.855-8.918,1.813-13.32,3.043      c-0.163,0.045-0.276,0.2-0.263,0.375c0.015,0.199,0.188,0.348,0.387,0.333c4.592-0.344,9.136-0.965,13.662-1.688      c0.108,0.162,0.232,0.314,0.374,0.454c-1.887,3.072-3.788,6.134-5.614,9.243c-2.315,3.875-4.604,7.766-6.81,11.71      c-0.073,0.131-0.036,0.3,0.09,0.387c0.134,0.093,0.318,0.059,0.411-0.075c2.565-3.719,5.047-7.491,7.502-11.278      c2.004-3.04,3.931-6.129,5.874-9.207c0.107,0.023,0.213,0.039,0.321,0.05c0.322,1.828,0.633,3.659,1.001,5.479      c0.576,2.695,1.149,5.391,1.89,8.057c0.047,0.17,0.208,0.288,0.391,0.274c0.207-0.016,0.362-0.197,0.346-0.404      c-0.211-2.759-0.59-5.489-0.966-8.219c-0.276-1.857-0.61-3.704-0.934-5.553c0.087-0.049,0.177-0.089,0.259-0.147      c6.95,4.314,13.977,8.505,21.249,12.303c0.096,0.05,0.216,0.024,0.282-0.065C413.93,426.59,413.909,426.452,413.81,426.379z"/>
			</g>
		</g>
		<g>
			<g>
				<g>
					<g style="opacity:0.19;">
						<polygon style="fill:#F3C7D1;" points="140.404,133.411 40.106,197.753 154.912,153.597       "/>
					</g>
					<g>
						<path style="fill:#FDBC08;" d="M164.216,140.823c0,7.577-6.143,13.72-13.72,13.72c-7.577,0-13.72-6.143-13.72-13.72        c0-7.577,6.143-13.72,13.72-13.72C158.074,127.103,164.216,133.246,164.216,140.823z"/>
					</g>
				</g>
				<g>
					<g style="opacity:0.19;">
						<polygon style="fill:#F3C7D1;" points="133.094,185.422 32.797,249.764 147.603,205.608       "/>
					</g>
					<g>
						<path style="fill:#FDBC08;" d="M156.907,192.834c0,7.577-6.143,13.72-13.72,13.72s-13.72-6.143-13.72-13.72        c0-7.577,6.143-13.72,13.72-13.72S156.907,185.257,156.907,192.834z"/>
					</g>
				</g>
				<g>
					<g style="opacity:0.19;">
						<path style="fill:#F3C7D1;" d="M116.079,135.853l-1.734,0.683l-81.07,31.157c1.524-3.835,3.152-7.592,4.886-11.322v-0.026        l61.183-39.221l2.233-1.445L116.079,135.853z"/>
					</g>
					<g>
						<path style="fill:#FDBC08;" d="M125.383,123.078c0,7.577-6.143,13.72-13.72,13.72s-13.72-6.143-13.72-13.72        c0-7.577,6.143-13.72,13.72-13.72S125.383,115.501,125.383,123.078z"/>
					</g>
				</g>
			</g>
			<g>
				<g>
					<g>
						<path style="fill:#9F6DA4;" d="M235.661,254.167c-1.546-6.427-1.096-13.383,1.753-19.912        c6.965-15.964,25.545-23.256,41.508-16.29c15.948,6.958,23.24,25.538,16.275,41.502c-2.849,6.529-7.627,11.598-13.389,14.835        c-2.226-9.289-8.615-17.465-18.05-21.581C254.324,248.604,243.97,249.474,235.661,254.167z"/>
					</g>
				</g>
				<g>
					<g>
						<g>
							<polygon style="fill:#F3C7D1;" points="328.915,178.302 314.903,182.783 310.422,196.795 305.942,182.783 291.93,178.302          305.942,173.821 310.422,159.809 314.903,173.821        "/>
						</g>
					</g>
					<g>
						<g>
							<polygon style="fill:#F3C7D1;" points="237.687,334.367 223.675,338.848 219.194,352.86 214.713,338.848 200.702,334.367          214.713,329.887 219.194,315.875 223.675,329.887        "/>
						</g>
					</g>
					<g>
						<g>
							<polygon style="fill:#F3C7D1;" points="454.118,350.465 440.106,354.946 435.625,368.957 431.145,354.946 417.133,350.465          431.145,345.984 435.625,331.972 440.106,345.984        "/>
						</g>
					</g>
					<g>
						<g>
							<polygon style="fill:#F3C7D1;" points="90.126,200.222 76.114,204.702 71.634,218.714 67.153,204.702 53.141,200.222          67.153,195.741 71.634,181.729 76.114,195.741        "/>
						</g>
					</g>
				</g>
			</g>
		</g>
		<g>
			<g>
				<g>
					<path style="fill:#95ABD3;" d="M384.429,52.392c-8.748,13.95-19.834,26.296-32.706,36.489       c-5.333,4.229-10.954,8.091-16.839,11.533c-20.911,12.215-45.159,19.309-71.035,19.519h-0.026       c-0.42,0.026-0.814,0.026-1.235,0.026c-12.689,0-25.009-1.655-36.726-4.781c-6.936-1.813-13.661-4.151-20.149-6.962       c-17.942-7.75-33.994-19.046-47.26-33.022c-1.498-1.55-2.916-3.126-4.335-4.729c-0.052-0.079-0.131-0.158-0.21-0.236       c-0.736-0.893-1.498-1.76-2.207-2.653c-5.149-6.2-9.746-12.846-13.818-19.86c-0.394,0.21-0.788,0.42-1.156,0.631v0.026       c2.575,4.44,5.359,8.722,8.354,12.846c1.681,2.338,3.441,4.597,5.254,6.83c5.018,6.095,10.482,11.769,16.392,16.971       c10.902,9.615,23.249,17.627,36.673,23.643c6.988,3.126,14.265,5.727,21.778,7.724c11.953,3.179,24.484,4.886,37.409,4.886       c0.814,0,1.655,0,2.469-0.026c25.666-0.42,49.756-7.566,70.536-19.703c5.937-3.494,11.611-7.356,16.971-11.611       c12.978-10.298,24.142-22.75,32.995-36.831C385.191,52.839,384.797,52.602,384.429,52.392z"/>
				</g>
				<g>
					<path style="fill:#95ABD3;" d="M372.109,45.22c-22.461,35.57-61.814,59.502-106.683,60.448c-0.026,0-0.026,0-0.053,0       c-0.919,0.053-1.865,0.053-2.785,0.053c-8.669,0-17.128-0.867-25.324-2.47c-7.75-1.55-15.263-3.809-22.461-6.673       c-13.398-5.333-25.666-12.82-36.437-22.041c-0.604-0.552-1.209-1.077-1.813-1.602c-3.152-2.811-6.173-5.78-9.037-8.879       c-0.368-0.394-0.735-0.762-1.077-1.156c-0.079-0.105-0.184-0.184-0.237-0.289c-3.546-3.94-6.83-8.065-9.877-12.399v-0.026       c-0.447-0.631-0.867-1.182-1.287-1.813V48.32c-1.603-2.391-3.126-4.834-4.571-7.329c-0.368,0.184-0.709,0.368-1.077,0.526       c1.76,3.021,3.625,5.963,5.596,8.801c0.447,0.683,0.92,1.34,1.392,1.996c2.679,3.73,5.569,7.329,8.617,10.745       c0.158,0.21,0.341,0.394,0.499,0.578c0.394,0.446,0.788,0.867,1.182,1.287c2.574,2.758,5.228,5.412,8.012,7.934       c0.657,0.604,1.287,1.156,1.944,1.76h0.026c11.69,10.219,25.22,18.389,40.01,23.959h0.026       c6.226,2.338,12.662,4.229,19.282,5.596c8.59,1.786,17.496,2.732,26.612,2.732c2.653,0,5.307-0.079,7.934-0.237h0.052       c43.188-2.601,80.729-26.27,102.585-60.868C372.818,45.588,372.477,45.404,372.109,45.22z"/>
				</g>
				<g>
					<circle style="fill:#95ABD3;" cx="343.959" cy="95.579" r="10.284"/>
				</g>
				<g>
					<path style="fill:#95ABD3;" d="M255.87,37.002c0,3.211-2.603,5.813-5.813,5.813c-3.21,0-5.813-2.602-5.813-5.813       c0-3.211,2.603-5.813,5.813-5.813C253.267,31.189,255.87,33.791,255.87,37.002z"/>
				</g>
			</g>
			<g>
				<circle style="fill:#95ABD3;" cx="278.563" cy="327.092" r="5.813"/>
			</g>
			<g>
				<path style="fill:#95ABD3;" d="M292.76,471.858c0,3.211-2.603,5.813-5.813,5.813c-3.21,0-5.813-2.602-5.813-5.813      s2.602-5.813,5.813-5.813C290.157,466.045,292.76,468.647,292.76,471.858z"/>
			</g>
		</g>
	</g>
</g>
<path style="fill:#F3C7D1;" d="M105.121,403.599L92.8,401.077l-22.014-4.518l-12.155-2.503c1.448,2.085,2.93,4.144,4.442,6.181  l8.501,1.734l19.624,4.019l9.641,1.997l50.36,10.298l43.399,8.906l72.033,14.764l61.682,12.636l1.025-5.044l-62.182-12.741  L105.121,403.599z"/>
<path style="fill:#95ABD3;" d="M116.917,395.508l-19.755-4.046l-26.979-5.543l-11.27-2.285l-8.152-1.677  c1.233,2.026,2.49,4.036,3.781,6.022l2.374,0.489l13.424,2.758l24.458,4.992l15.526,3.205l157.148,32.181l34.677,7.119l1.024-5.044  l-35.675-7.303L116.917,395.508z"/>
<path style="fill:#F3C7D1;" d="M266.919,416.287l-72.322-14.843l-55.325-11.349l-36.332-7.434l-31.997-6.568l-7.461-1.524  l-19.188-3.924c1.064,1.988,2.154,3.96,3.273,5.914l13.393,2.738l9.405,1.944l29.318,5.99l25.193,5.175l142.463,29.186  l66.516,13.634l1.024-5.018l-46.209-9.484L266.919,416.287z"/>















</svg>
