<?xml version="1.0" encoding="UTF-8"?>
<!-- Generator: Adobe Illustrator 27.2.0, SVG Export Plug-In . SVG Version: 6.00 Build 0)  -->
<svg xmlns="http://www.w3.org/2000/svg" xmlns:xlink="http://www.w3.org/1999/xlink" version="1.1" id="Capa_1" x="0px" y="0px" viewBox="0 0 512 512" style="enable-background:new 0 0 512 512;" xml:space="preserve" width="512" height="512">
<g>
	<g>
		<path style="fill:#FFFFFF;" d="M234.006,512c-20.454,0-49.862-2.708-78.362-14.927c-12.557,9.854-19.246,11.348-24.149,11.348    c-2.474,0-4.839-0.466-7.032-1.385c-11.677-4.837-13.1-18.217-11.449-33.486c-27.401-15.084-48.679-34.94-63.341-59.128    C22.222,369.133,14.589,310.284,29.254,257c14.037-51.01,46.97-96.571,92.731-128.291c15.661-10.856,39.66-23.794,65.055-23.794    c8.231,0,16.176,1.353,23.614,4.02c4.844,1.737,9.191,3.922,13.341,6.159c-5.856-6.673-11.674-15.719-13.881-26.807    c-0.44-2.101-0.735-4.362-0.853-6.588c-0.07-1.166-0.091-2.454-0.06-4.067c0.002-0.11,0.005-0.22,0.008-0.324    c0.274-7.425,2.211-15.024,5.924-23.227C226.688,28.437,250.93,8.575,278.39,2.264C284.919,0.762,291.696,0,298.528,0    c21.864,0,42.96,7.557,59.404,21.278c5.006,4.178,6.52,11.229,3.67,17.094c-2.409,4.956-7.413,7.985-12.754,7.985    c-0.978,0-1.967-0.102-2.954-0.311c-5.177-1.101-10.483-1.659-15.774-1.659c-12.453,0-23.735,3.014-32.628,8.715    c-13.168,8.444-20.758,23.71-18.457,37.126c1.003,5.851,4.099,10.783,7.705,12.273c1.047,0.432,2.205,0.644,3.527,0.644    c2.161,0,4.72-0.564,7.605-1.677c0,0,0.754-0.299,0.788-0.313c2.965-1.197,6.254-2.979,9.775-5.293    c4.883-3.201,9.592-6.675,14.577-10.352c8.321-6.139,16.926-12.486,26.639-17.687c12.85-6.882,26.163-10.521,38.497-10.521    c6.968,0,13.643,1.152,19.837,3.425c18.434,6.781,32.731,23.878,37.323,44.624c1.752,7.851,2.148,16.166,1.172,24.69    c-0.095,0.889-0.209,1.868-0.364,2.831c-0.05,0.332-0.102,0.667-0.156,1.004c0.017,0.021,0.035,0.039,0.053,0.06    c19.466,21.609,32.803,50.519,39.637,85.923c7.331,37.974,5.519,74.977-5.239,106.998c-13.175,39.221-36.265,75.286-66.872,104.5    c-2.273,5.83-4.94,11.378-7.947,16.534c-3.97,6.809-8.566,13.11-13.659,18.727c-0.523,0.596-1.072,1.201-1.644,1.815    c2.522,17.497,1.99,33.262-10.853,38.614c-2.173,0.91-4.531,1.372-6.997,1.372c-0.001,0-0.002,0-0.004,0    c-4.957,0-11.71-1.51-24.353-11.498c-29.356,11.981-63.045,14.283-92.65,14.858c-4.348,0.09-8.663,0.146-12.94,0.164L234.006,512z    "/>
	</g>
	<g>
		<g>
			<g>
				<path style="fill:#A27CFF;" d="M339.202,463.392c58.146-28.575,104.441-80.016,125.318-142.167      c10.723-31.922,11.14-66.73,4.758-99.795c-5.567-28.841-16.596-57.299-36.255-79.124      c-19.659-21.825-48.819-36.227-78.072-33.568c-21.073,1.915-40.314,12.144-59.911,20.124      c-19.597,7.98-41.728,13.827-61.675,6.767c-10.46-3.702-19.498-10.711-29.942-14.457c-25.422-9.117-53.605,2.693-75.801,18.078      c-41.549,28.8-73.721,71.654-87.135,120.397c-13.414,48.743-7.332,103.07,18.874,146.304      c43.1,71.106,146.092,92.783,222.532,77.106C301.872,478.959,321.111,472.282,339.202,463.392z"/>
			</g>
		</g>
		<g>
			<g>
				<path style="fill:#FFFFFF;" d="M93.641,368.579c-4.944-2.662-8.611-7.304-10.963-12.403c-2.353-5.098-3.295-9.797-4.154-15.346      c-1.177,5.854-2.962,11.633-5.881,16.842c-2.919,5.209-7.025,9.84-12.195,12.827c4.766,0.784,8.644,3.447,11.584,7.28      c1.432,1.867,2.419,4.038,3.239,6.244c1.268,3.407,2.17,6.95,2.686,10.548c1.08-5.079,2.381-10.62,5.171-14.999      C85.916,375.192,88.76,370.35,93.641,368.579z"/>
			</g>
			<g>
				<g>
					<g>
						<g>
							<path style="fill:#EBB1FF;" d="M429.944,127.307c-0.083,0.765-0.165,1.529-0.289,2.273         c-1.158,7.916-3.679,15.667-7.151,22.88c-3.989,8.288-9.446,16.225-17.279,21.061c-7.193,4.465-15.791,5.973-24.203,6.945         c-13.476,1.571-27.117,1.943-40.676,1.157c-0.413,0-0.848-0.021-1.281-0.062c-8.35-0.517-16.68-1.488-24.926-2.894h-0.021         c-0.248-0.041-0.475-0.083-0.723-0.124c-0.599-0.103-1.178-0.207-1.778-0.31c0,0-0.021,0-0.041,0         c-11.43-2.067-22.942-4.733-34.393-3.038c-6.242,0.93-12.525,3.534-17.382,7.523c-0.021,0-0.021,0.021-0.021,0.021         c-0.661,0.558-1.282,1.095-1.902,1.695c-3.534,3.472-6.077,7.751-6.862,12.711c-1.674,10.376,5.147,21.041,14.716,25.422         c9.611,4.423,20.834,3.245,31.148,0.827c0.103-0.021,0.227-0.062,0.331-0.083c0.475-0.103,0.951-0.227,1.426-0.351         c9.694-2.398,19.346-5.56,29.329-5.643c10.582-0.083,22.053,4.258,26.828,13.703c4.609,9.074,1.902,20.049-1.343,29.701         c-1.075,3.224-3.534,5.126-6.655,6.325c-0.558,0.227-1.158,0.413-1.757,0.579c-5.25,1.509-11.843,1.509-17.114,2.294         c-47.807,7.048-99.933,12.401-145.569-2.873c-0.558-0.165-1.116-0.372-1.674-0.579c-3.431-1.178-6.8-2.48-10.148-3.906         c-18.519-7.937-33.711-23.294-41.441-41.895c-3.514-8.453-5.539-17.672-4.526-26.766c1.55-13.621,10.148-26.063,21.909-33.09         c11.76-7.027,26.394-8.764,39.725-5.581c17.031,4.072,31.664,15.605,48.881,18.87c2.377,0.455,4.754,0.744,7.151,0.847         c7.317,0.393,14.696-0.744,21.537-3.328c3.865-1.468,7.668-3.596,10.748-6.387c3.555-3.183,6.097-7.213,6.531-11.946         c0.93-10.024-7.813-18.147-16.142-23.831c-9.466-6.49-19.553-12.236-27.985-20.028c-7.317-6.738-13.414-15.377-15.336-25.03         c-0.31-1.488-0.517-3.018-0.599-4.568c-0.062-1.033-0.062-2.067-0.041-3.1c0,0,0,0,0-0.021         c0.227-6.159,2.108-12.236,4.671-17.899c9.818-21.785,30.217-38.485,53.511-43.838c23.273-5.353,48.923,0.765,67.276,16.08         c-19.739-4.196-42.019-1.902-59.009,8.991c-16.99,10.892-28.192,31.582-24.782,51.465         c1.653,9.652,7.213,19.243,16.266,22.984c6.965,2.873,14.489,1.86,21.661-0.909c0.331-0.124,0.661-0.248,0.992-0.393         c4.299-1.736,8.453-4.092,12.257-6.593c13.559-8.888,25.836-19.739,40.118-27.386c14.282-7.647,31.54-11.864,46.752-6.283         c14.551,5.353,25.009,19.243,28.357,34.372C430.481,113.872,430.709,120.631,429.944,127.307z"/>
						</g>
						<g>
							<g>
								<g>
									<path style="fill:#FBEEE5;" d="M277.409,164.056c-6.614,6.614-16.163,9.032-22.777,10.272           c-19.47,3.679-41.399,2.563-69.054-3.493l-0.868-0.186c-8.268-1.819-16.824-3.7-24.637-0.971           c-10.293,3.596-15.811,14.117-18.168,20.09c-5.457,13.724-5.126,28.357,0.889,39.146           c4.857,8.681,13.166,15.047,21.206,21.185c6.676,5.105,13.497,10.334,18.354,16.948c1.943,2.604,3.534,5.415,4.712,8.536           l-0.971,0.372c-1.323-3.514-3.162-6.635-5.415-9.487c-4.609-5.849-10.851-10.603-17.32-15.543           c-8.102-6.221-16.514-12.628-21.454-21.516c-6.159-11.058-6.531-26.022-0.971-40.035           c2.439-6.118,8.102-16.948,18.788-20.669c8.102-2.832,16.804-0.909,25.216,0.93l0.847,0.186           c21.909,4.795,40.18,6.49,56.446,5.126c4.196-0.351,8.247-0.889,12.195-1.633c5.787-1.096,13.869-3.1,20.09-8.082           c0.744-0.579,1.467-1.219,2.15-1.901c4.898-4.898,7.358-12.091,6.759-19.739c-0.6-7.668-4.134-14.406-9.714-18.478           c-4.506-3.307-10.004-5.022-15.336-6.676c-2.873-0.889-5.828-1.798-8.639-2.976c-13.269-5.498-23.769-16.969-28.047-30.672           c-0.041-0.124-0.083-0.269-0.103-0.393c-0.31-1.488-0.517-3.018-0.599-4.568c-0.062-1.033-0.062-2.067-0.041-3.1           c0.351,2.625,0.93,5.209,1.716,7.751c4.216,13.414,14.468,24.658,27.469,30.032c2.77,1.158,5.705,2.067,8.557,2.956           c5.415,1.674,10.996,3.41,15.646,6.8c5.829,4.258,9.508,11.265,10.128,19.243           C285.077,151.469,282.494,158.971,277.409,164.056z"/>
								</g>
							</g>
							<g>
								<g>
									<path style="fill:#FBEEE5;" d="M242.872,190.966c4.96-3.576,10.665-6.345,16.907-8.226           c-0.661,0.558-1.282,1.095-1.902,1.695c-5.27,1.819-10.107,4.299-14.385,7.379c-9.053,6.511-15.543,15.977-17.816,25.96           c-2.439,10.644-0.331,22.818,5.787,33.38c5.436,9.322,13.703,17.444,24.616,24.12l-0.537,0.868           c-11.058-6.759-19.449-15.005-24.968-24.472c-6.242-10.789-8.412-23.211-5.911-34.124           C226.998,207.315,233.633,197.642,242.872,190.966z"/>
								</g>
								<g>
									<path style="fill:#FBEEE5;" d="M336.108,162.733c-3.927,5.704-8.97,10.251-14.572,13.104           c-2.377,1.219-4.857,2.15-7.399,2.832h-0.021c-0.248-0.041-0.475-0.083-0.723-0.124c-0.599-0.103-1.178-0.207-1.778-0.31           c3.286-0.723,6.449-1.778,9.466-3.328c5.436-2.769,10.334-7.193,14.179-12.752c5.395-7.854,8.329-19.47,2.749-27.737           c-4.32-6.387-12.112-8.887-19.677-11.306c-2.356-0.765-4.795-1.55-7.069-2.439c-4.816-1.86-8.412-4.237-10.727-7.089           c0.331-0.124,0.661-0.248,0.992-0.393c2.232,2.604,5.601,4.795,10.107,6.531c2.253,0.868,4.671,1.654,7.007,2.398           c7.73,2.48,15.708,5.043,20.214,11.719C344.727,142.519,341.689,154.61,336.108,162.733z"/>
								</g>
							</g>
							<g>
								<g>
									<path style="fill:#FBEEE5;" d="M350.06,248.26c1.798,6.614,0.455,13.683-3.266,18.788c-1.096,1.53-2.398,2.873-3.906,3.968           l-0.599-0.827c1.013-0.744,1.922-1.612,2.749-2.563c4.237-4.898,5.891-12.257,4.03-19.098           c-2.005-7.358-7.627-13.848-15.46-17.837c-6.511-3.307-14.282-4.919-23.748-4.919h-0.083c-4.547,0-9.404-0.248-12.567-2.46           c0.475-0.103,0.951-0.227,1.426-0.351c2.914,1.591,7.151,1.778,11.14,1.778h0.083c9.632,0,17.548,1.653,24.203,5.043           C342.164,233.895,347.993,240.612,350.06,248.26z"/>
								</g>
								<g>
									<path style="fill:#FBEEE5;" d="M429.944,127.307c-0.083,0.765-0.165,1.529-0.289,2.273           c-5.87,8.143-15.15,14.985-27.613,20.4c-5.891,2.563-12.05,4.692-18.002,6.738c-6.407,2.212-13.021,4.485-19.284,7.296           c-10.665,4.795-18.829,10.706-24.41,17.61c-0.413,0-0.848-0.021-1.281-0.062c5.705-7.296,14.158-13.497,25.278-18.478           c6.304-2.832,12.939-5.126,19.346-7.337c5.953-2.046,12.091-4.175,17.94-6.697           C414.773,143.325,424.281,136.029,429.944,127.307z"/>
								</g>
							</g>
						</g>
					</g>
					<g>
						<g>
							<g>
								<path style="fill:#2F2444;" d="M400.683,417.057c-2.397,7.859-5.642,15.466-9.788,22.568          c-3.551,6.092-7.535,11.518-11.915,16.349c-2.001,2.271-4.128,4.416-6.309,6.435c1.73,9.644,4.272,28.173-1.136,30.427          c-4.741,1.983-16.097-6.976-23.577-13.609c-28.336,13.934-62.692,16.619-95.246,17.25c-4.29,0.09-8.526,0.144-12.726,0.162          c-2.361,0.018-4.687,0.036-7.012,0.054c-27.921,0.18-57.284-4.975-81.961-17.394c-7.499,6.615-18.782,15.52-23.505,13.537          c-5.354-2.217-2.92-20.332-1.19-30.066c-13.303-11.68-23.703-26.714-29.489-45.712c-8.382-27.507-7.661-50.669-2.361-69.758          c2.56-9.193,6.183-17.448,10.365-24.767c0.811-1.406,1.622-2.776,2.469-4.11c7.426-11.825,16.205-20.999,23.883-27.669          c1.262-1.1,2.488-2.127,3.677-3.082c8.778-7.102,15.358-10.527,15.358-10.527l-11.969-29.453H359.26l-11.969,29.453          c0,0,7.625,3.984,17.412,12.221c1.19,0.991,2.397,2.055,3.641,3.172c7.462,6.76,15.736,15.808,22.712,27.254          c0.811,1.334,1.622,2.722,2.397,4.128C405.856,346.326,412.85,377.149,400.683,417.057z"/>
							</g>
							<g>
								<g>
									<path style="fill:#2F2444;" d="M378.801,328.952l-0.805-4.718c13.755-2.346,26.057-11.407,32.106-23.642           c2.998-6.066,4.651-15.054-0.558-20.421c-2.33-2.403-5.562-3.521-7.864-4.038c-7.398-1.653-15.99,0.354-22.986,5.386           c-6.087,4.383-11.106,10.896-14.917,19.36l-4.364-1.965c4.161-9.24,9.707-16.399,16.486-21.278           c8.087-5.82,18.116-8.126,26.829-6.172c4.211,0.943,7.757,2.802,10.251,5.372c6.945,7.159,5.102,18.413,1.413,25.874           C407.678,316.297,394.04,326.352,378.801,328.952z"/>
								</g>
							</g>
							<g>
								<g>
									<path style="fill:#2F2444;" d="M121.963,328.952c-15.239-2.6-28.877-12.655-35.591-26.241           c-3.689-7.462-5.532-18.715,1.413-25.874c2.494-2.57,6.04-4.429,10.251-5.372c8.716-1.954,18.744,0.352,26.828,6.172           c6.778,4.879,12.325,12.038,16.487,21.278l-4.364,1.965c-3.812-8.464-8.832-14.977-14.918-19.36           c-6.994-5.033-15.588-7.039-22.986-5.386c-2.302,0.518-5.534,1.635-7.864,4.038c-5.209,5.367-3.556,14.355-0.558,20.421           c6.048,12.236,18.351,21.296,32.106,23.642L121.963,328.952z"/>
								</g>
							</g>
						</g>
						<g style="opacity:0.36;">
							<polygon style="fill:#A27CFF;" points="150.215,277.153 347.299,277.153 146.84,268.716        "/>
						</g>
						<g>
							<g>
								<path style="fill:#FFC945;" d="M290.872,431.917c-6.99,3.087-14.731,4.814-22.873,4.814          c-31.238,0-56.557-25.32-56.557-56.557s25.32-56.574,56.557-56.574c8.141,0,15.883,1.727,22.873,4.814          c-19.85,8.781-33.701,28.663-33.701,51.759S271.022,423.136,290.872,431.917z"/>
							</g>
							<g>
								<g>
									<path style="fill:#FBEEE5;" d="M337.792,310.279c1.31,11.328,6.272,22.205,13.968,30.619           c2.192,2.397,5.071,4.762,8.292,4.34c1.486-0.195,2.833-0.978,4.016-1.897c5.033-3.907,7.624-10.46,7.523-16.83           c-0.101-6.37-2.667-12.529-6.381-17.705c-3.809-5.311-11.455-12.349-18.405-12.829           C338.963,295.434,337.077,304.103,337.792,310.279z"/>
								</g>
								<g>
									<path style="fill:#FBEEE5;" d="M390.823,365.585c1.066,6.264-3.148,12.207-9.412,13.273           c-6.264,1.066-12.207-3.148-13.273-9.412c-1.066-6.264,3.148-12.207,9.412-13.273           C383.814,355.107,389.757,359.32,390.823,365.585z"/>
								</g>
							</g>
							<g style="opacity:0.22;">
								<path style="fill:#A27CFF;" d="M239.176,496.387c0.27,0.09,0.541,0.18,0.811,0.252c-2.361,0.018-4.687,0.036-7.012,0.054          c-27.921,0.18-57.284-4.975-81.961-17.394c-7.499,6.615-18.782,15.52-23.505,13.537c-5.354-2.217-2.92-20.332-1.19-30.066          c-13.303-11.68-23.703-26.714-29.489-45.712c-8.382-27.507-7.661-50.669-2.361-69.758          c1.352,5.498,2.902,10.923,4.632,16.313c4.344,13.465,9.968,26.804,19.287,37.457c9.301,10.635,22.802,18.314,36.934,17.899          c11.248-0.324,23.108-5.534,33.293-0.739c10.815,5.101,13.952,18.584,17.575,29.994          c4.038,12.744,10.202,24.785,18.152,35.528C228.271,489.05,232.939,494.242,239.176,496.387z"/>
							</g>
							<g style="opacity:0.22;">
								<path style="fill:#A27CFF;" d="M372.671,462.409c1.73,9.644,4.272,28.173-1.136,30.427          c-4.741,1.983-16.097-6.976-23.577-13.609c-28.336,13.934-62.692,16.619-95.246,17.25c2.758-0.757,5.444-1.947,7.895-3.407          c6.417-3.803,11.608-9.319,16.836-14.636c15.43-15.718,32.752-30.787,53.896-36.988c15.52-4.542,34.573-2.884,44.631,9.77          c1.19,1.496,2.181,3.082,3.01,4.759C376.979,458.245,374.852,460.39,372.671,462.409z"/>
							</g>
						</g>
					</g>
				</g>
				<g>
					<g>
						<g>
							<g>
								<path style="fill:#86DFD1;" d="M443.978,267.616c-6.334-5.498-14.316-8.698-22.293-11.291          c-7.977-2.593-16.167-4.699-23.678-8.431c-7.511-3.732-14.446-9.353-17.829-17.029          C404.858,229.513,431.769,246.124,443.978,267.616z"/>
							</g>
						</g>
						<g>
							<g>
								<path style="fill:#86DFD1;" d="M431.103,241.745c-9.364-8.359-18.729-16.718-28.093-25.076          c-4.434-3.958-8.921-7.977-12.176-12.949c-3.693-5.642-5.635-12.301-6.352-19.006c12.281,3.18,20.576,12.532,27.183,23.362          C418.297,218.946,425.544,230.291,431.103,241.745z"/>
							</g>
						</g>
						<g>
							<g>
								<path style="fill:#86DFD1;" d="M441.719,254.719c-11.72-19.237-14.086-43.892-6.239-65.008          C445.292,210.112,448.005,232.973,441.719,254.719z"/>
							</g>
						</g>
						<g>
							<g>
								<g>
									<path style="fill:#86DFD1;" d="M453.607,308.966c0.061,0.017,0.127,0.025,0.195,0.016c0.3-0.027,0.52-0.292,0.494-0.59           c-2.212-24.77-10.763-48.738-24.728-69.314c-0.169-0.252-0.507-0.314-0.756-0.146c-0.25,0.17-0.314,0.508-0.145,0.757           c13.86,20.423,22.348,44.212,24.543,68.799C453.232,308.721,453.394,308.907,453.607,308.966z"/>
								</g>
							</g>
							<g>
								<g>
									<path style="fill:#86DFD1;" d="M442.288,264.889c0.081,0.023,0.168,0.025,0.255,0.009c0.295-0.061,0.485-0.347,0.425-0.642           c-1.905-9.378-0.442-18.987,0.973-28.281c0.046-0.3-0.159-0.58-0.457-0.62c-0.297-0.045-0.575,0.158-0.621,0.455           c-1.362,8.951-2.906,19.095-0.963,28.661C441.942,264.679,442.097,264.836,442.288,264.889z"/>
								</g>
							</g>
						</g>
					</g>
					<g>
						<g>
							<g>
								<path style="fill:#86DFD1;" d="M62.632,290.013c6.334-5.498,14.316-8.698,22.293-11.291          c7.977-2.592,16.167-4.698,23.678-8.431c7.511-3.732,14.447-9.353,17.829-17.029          C101.751,251.91,74.84,268.521,62.632,290.013z"/>
							</g>
						</g>
						<g>
							<g>
								<path style="fill:#86DFD1;" d="M75.506,264.143c9.364-8.359,18.729-16.718,28.093-25.076          c4.434-3.958,8.921-7.977,12.176-12.949c3.693-5.642,5.634-12.301,6.352-19.006c-12.281,3.18-20.576,12.531-27.183,23.362          C88.313,241.343,81.066,252.688,75.506,264.143z"/>
							</g>
						</g>
						<g>
							<g>
								<path style="fill:#86DFD1;" d="M64.89,277.117c11.72-19.237,14.086-43.892,6.24-65.008          C61.317,232.509,58.605,255.37,64.89,277.117z"/>
							</g>
						</g>
						<g>
							<g>
								<g>
									<path style="fill:#86DFD1;" d="M53.002,331.363c-0.061,0.017-0.127,0.024-0.195,0.016c-0.3-0.027-0.52-0.292-0.494-0.59           c2.212-24.77,10.763-48.738,24.728-69.314c0.169-0.252,0.507-0.314,0.756-0.146c0.25,0.17,0.314,0.508,0.145,0.757           c-13.861,20.423-22.348,44.212-24.543,68.799C53.377,331.119,53.215,331.304,53.002,331.363z"/>
								</g>
							</g>
							<g>
								<g>
									<path style="fill:#86DFD1;" d="M64.322,287.286c-0.081,0.023-0.168,0.025-0.255,0.009           c-0.295-0.061-0.485-0.347-0.425-0.642c1.905-9.378,0.442-18.987-0.974-28.281c-0.046-0.3,0.159-0.58,0.457-0.62           c0.297-0.045,0.575,0.158,0.621,0.455c1.362,8.951,2.906,19.095,0.963,28.661           C64.668,287.077,64.512,287.233,64.322,287.286z"/>
								</g>
							</g>
						</g>
					</g>
				</g>
				<g>
					<path style="fill:#FFFFFF;" d="M385.003,127.118c-4.944-2.662-8.611-7.304-10.963-12.403       c-2.353-5.098-3.295-9.797-4.155-15.346c-1.177,5.854-2.962,11.633-5.881,16.842c-2.919,5.209-7.025,9.84-12.195,12.827       c4.766,0.784,8.644,3.447,11.584,7.28c1.432,1.867,2.419,4.038,3.239,6.244c1.268,3.407,2.169,6.95,2.685,10.548       c1.08-5.079,2.381-10.62,5.171-14.999C377.279,133.732,380.122,128.89,385.003,127.118z"/>
				</g>
				<g>
					<path style="fill:#FFFFFF;" d="M441.344,325.921c-4.944-2.662-8.61-7.304-10.963-12.403c-2.353-5.098-3.295-9.797-4.155-15.346       c-1.177,5.854-2.962,11.633-5.881,16.842c-2.919,5.209-7.025,9.84-12.195,12.827c4.767,0.784,8.644,3.448,11.584,7.28       c1.432,1.867,2.419,4.038,3.239,6.244c1.268,3.407,2.17,6.95,2.685,10.548c1.08-5.079,2.381-10.62,5.171-15       C433.619,332.534,436.463,327.692,441.344,325.921z"/>
				</g>
				<g>
					<path style="fill:#FFFFFF;" d="M189.018,172.594c-4.944-2.662-8.611-7.304-10.963-12.403       c-2.353-5.098-3.295-9.797-4.155-15.346c-1.177,5.854-2.962,11.633-5.881,16.842c-2.919,5.209-7.025,9.84-12.195,12.827       c4.766,0.784,8.644,3.448,11.584,7.28c1.432,1.867,2.419,4.038,3.239,6.244c1.268,3.407,2.17,6.95,2.686,10.548       c1.08-5.079,2.381-10.62,5.171-14.999C181.293,179.207,184.137,174.365,189.018,172.594z"/>
				</g>
			</g>
		</g>
	</g>
</g>















</svg>
