<?xml version="1.0" encoding="UTF-8"?>
<!-- Generator: Adobe Illustrator 25.2.0, SVG Export Plug-In . SVG Version: 6.00 Build 0)  -->
<svg xmlns="http://www.w3.org/2000/svg" xmlns:xlink="http://www.w3.org/1999/xlink" version="1.1" id="Capa_1" x="0px" y="0px" viewBox="0 0 499.832 499.832" style="enable-background:new 0 0 499.832 499.832;" xml:space="preserve" width="512" height="512">
<g>
	<path d="M429.602,248.792c-1.249,58.499-22.391,107.308-66.994,145.058c-25.083,21.23-54.186,34.208-86.704,39.127   c-37.549,5.68-73.383-0.335-106.906-17.955c-49.68-26.112-80.621-67.245-94.604-121.328c-4.57-17.677-6.153-35.721-5.356-53.974   c2.557-58.534,33.332-119.252,92.924-152.557c58.345-32.608,129.229-29.804,185.268,8.47c10.81,7.383,20.479,16.045,29.826,25.204   c14.353,14.064,25.251,30.431,33.925,48.379c9.064,18.755,14.662,38.563,17.01,59.253   C428.776,235.378,429.103,242.338,429.602,248.792z M247.62,252.605c0.329,16.136,7.315,33.301,21.962,46.957   c15.09,14.07,33.11,20.1,53.538,16.83c22.088-3.536,37.555-16.383,46.665-36.587c11.275-25.005,5.281-55.726-14.684-75.343   c-17.785-17.475-39.108-23.267-63.117-16.455C265.415,195.544,247.58,220.538,247.62,252.605z M194.54,207.54   c14.645,1.066,28.815,3.738,42.897,7.768c0-9.607,0-19.075,0-28.513c-36.314,9.171-72.652,8.562-109.068,0.983   c-0.147,7.814-0.298,15.841-0.452,23.996c0.575-0.132,0.977-0.206,1.369-0.318c12.812-3.659,25.899-5.184,39.199-5.134   c1.133,0.004,1.546,0.368,1.64,1.461c0.456,5.311,1.169,10.608,1.418,15.927c1.053,22.501,0.913,44.992-0.871,67.463   c-0.633,7.976-1.815,15.771-6.189,22.715c-0.128,0.203-0.159,0.468-0.323,0.974c12.839-2.878,25.567-2.75,38.371-1.146   c-0.04-0.261-0.033-0.407-0.084-0.529c-4.325-10.269-5.866-21.127-6.826-32.112c-1.921-21.992-1.447-44.039-1.518-66.073   C194.095,212.564,194.381,210.124,194.54,207.54z M169.775,143.295c0,3.711,0,7.542,0,11.514   c51.082-0.227,101.989-1.728,152.958-0.735c0-2.215,0-4.433,0-6.651c0-2.203,0-4.406,0-6.563   C271.604,142.869,220.668,142.493,169.775,143.295z M319.917,350.84c-51.1,2.01-102.071,1.632-152.94,2.433   c0,3.686,0,7.52,0,11.517c51.071-0.231,101.98-1.728,152.94-0.738C319.917,359.692,319.917,355.305,319.917,350.84z    M249.169,120.691c-0.13-0.564-4.097-14.939-8.191-20.616c-3.826-5.306-8.614-9.301-15.15-10.876   c-3.565-0.859-7.161-1.056-10.781-0.63c-9.342,1.099-17.845,6.4-20.811,17.232c-2.77,10.121,5.197,20.079,15.534,19.267   c3.535-0.277,6.54-1.758,8.187-5.164c0.27-0.559,0.56-1.444,0.354-1.873c-0.113-0.235-0.671-0.47-0.962-0.402   c-0.282,0.065-0.493,0.514-0.7,0.819c-1.573,2.325-3.865,3.266-6.56,3.271c-5.582,0.009-10.742-5.976-9.933-11.849   c0.628-4.558,2.751-8.418,6.702-11.094c4.295-2.908,9.062-3.546,14.101-3.175c7.147,0.526,12.814,3.718,16.749,9.628   c2.013,3.023,3.721,6.326,5.06,9.703c0.791,1.995,1.431,4.046,2.044,6.102c0.48,1.613,0.933,3.247,1.449,4.85   c0.443,1.377,1.08,2.811,2.206,3.766c0.193,0.164,0.419,0.318,0.672,0.318c0.31,0,0.575-0.235,0.734-0.501   c0.684-1.151,1.034-2.612,1.407-3.886c0.398-1.359,0.737-2.734,1.126-4.095c0.741-2.589,1.491-5.178,2.424-7.705   c0.195-0.529,0.398-1.055,0.61-1.577c4.047-9.949,10.965-16.705,22.025-18.498c7-1.135,12.896,1.351,16.37,6.835   c4.468,7.053-0.632,16.326-6.816,18.394c-4.025,1.346-7.679-1.654-7.019-5.838c0.23-1.46,0.653-2.891,1.009-4.329   c0.191-0.772,0.548-1.624-0.46-2.04c-0.949-0.391-1.67,0.188-2.049,0.978c-0.619,1.288-1.254,2.606-1.6,3.983   c-1.799,7.163,4.311,13.405,11.54,11.825c3.893-0.85,6.972-3.016,9.273-6.209c4.447-6.171,5.293-12.825,1.904-19.693   c-3.402-6.892-9.039-11.089-16.796-11.276c-10.363-0.25-18.865,3.897-24.916,12.472c-3.506,4.968-5.993,10.444-7.283,16.426   C250.226,117.06,249.221,120.439,249.169,120.691z M251.273,390.102c0.141,0.72,0.198,1.035,0.265,1.348   c0.068,0.317,0.145,0.633,0.218,0.949c2.163,9.393,7.824,15.559,16.999,18.541c12.345,4.013,25.408-3.394,28.559-14.521   c1.828-6.452,0.239-11.969-4.837-16.101c-1.888-1.537-4.427-2.149-6.849-1.877c-3.058,0.343-6.178,2.202-7.531,5.024   c-1.393,2.904-1.608,6.205-1.203,9.362c0.057,0.443,0.129,0.895,0.344,1.287c0.408,0.741,1.576,1.182,2.293,0.633   c0.689-0.527,0.862-1.661,0.955-2.46c0.201-1.735,0.402-3.47,0.603-5.205c0.096-0.829,0.197-1.676,0.556-2.429   c1.147-2.407,5.487-4.035,7.836-2.546c2.901,1.84,4.891,5.743,4.398,9.164c-0.997,6.912-7.203,12.918-14.429,13.962   c-6.813,0.984-15.737-3.485-19.004-9.543c-1.982-3.676-3.205-7.587-3.673-11.749c-0.154-1.372-0.467-2.744-0.88-4.063   c-0.326-1.042-1.155-1.718-2.326-1.634c-1.436,0.103-1.881,1.36-2.158,2.577c-0.163,0.714-0.31,1.433-0.537,2.13   c-1.756,5.393-4.839,10.559-8.27,15.042c-3.114,4.069-7.079,7.025-12,8.388c-5.531,1.531-10.854,1.081-15.078-3.351   c-2.866-3.008-3.266-6.821-2.007-10.546c0.724-2.142,2.272-3.82,4.303-4.792c2.077-0.994,5.049-1.723,7.117-0.365   c1.08,0.709,1.752,1.892,2.25,3.085s0.868,2.448,1.541,3.551c0.135,0.221,0.288,0.442,0.51,0.575   c0.558,0.335,1.221-0.225,1.518-0.669c0.247-0.369,0.383-0.8,0.491-1.231c1.826-7.319-4.965-13.41-12.001-12.356   c-6.421,0.963-10.798,4.755-12.49,10.854c-1.77,6.384-0.81,12.532,4.606,17.137c6.102,5.19,15.374,5.842,22.9,1.88   c6.631-3.492,11.113-8.988,14.611-15.426C249.641,393.311,250.357,391.87,251.273,390.102z M133.262,316.704   c-0.324,0.017-0.648,0.033-0.972,0.051c-7.509,0.405-13.066,5.601-13.699,13.12c-0.157,1.863,0.012,4.076,0.889,5.651   c6.148,11.034,17.63,10.643,24.079,3.898c3.835-4.011,5.038-10.514,2.907-14.983C144.082,319.443,138.862,316.383,133.262,316.704z    M376.903,316.701c-6.657-1.108-14.343,5.703-14.257,12.484c0.082,6.499,4.096,12.259,10.29,14.228   c6.208,1.973,11.252-0.035,15.575-4.577c2.941-3.09,3.828-6.684,2.861-10.779C389.697,320.965,384.828,317.153,376.903,316.701z    M100.487,220.903c0.236,2.627,0.65,7.709,1.183,12.779c0.118,1.123,0.57,2.241,1.048,3.28c0.174,0.378,0.883,0.727,1.321,0.697   c0.349-0.024,0.819-0.594,0.947-1.01c0.214-0.695,0.228-1.458,0.272-2.196c0.439-7.455,0.664-14.928,1.349-22.36   c0.82-8.894,4.006-17.228,6.712-25.664c2.047-6.38,5.115-12.214,9.043-17.632c1.822-2.513,3.465-5.157,5.17-7.754   c0.568-0.864,0.922-1.815-0.018-2.633c-0.958-0.834-1.94-0.453-2.762,0.265c-1.151,1.005-2.356,1.988-3.328,3.155   C107.767,178.217,100.419,196.945,100.487,220.903z M397.908,219.131c0.095-3.709-0.001-7.418-0.412-11.118   c-0.802-7.217-2.715-14.376-5.352-21.134c-3.575-9.162-8.733-17.652-15.123-25.121c-0.959-1.121-2.118-2.077-3.234-3.054   c-0.818-0.716-1.792-1.138-2.764-0.326c-1.022,0.853-0.601,1.842-0.009,2.741c1.707,2.596,3.5,5.137,5.143,7.772   c2.133,3.419,4.532,6.74,6.148,10.398c3.848,8.713,6.667,17.807,8.679,27.124c1.991,9.221,1.985,18.621,2.258,27.99   c0.02,0.692,0.006,1.425,0.232,2.059c0.175,0.492,0.667,1.156,1.078,1.201c0.429,0.047,1.152-0.454,1.352-0.895   c0.452-0.999,0.829-2.09,0.941-3.175C397.338,228.79,397.785,223.962,397.908,219.131z M116.151,301.778   c5.906-0.009,8.73-4.3,8.846-8.574c0.122-4.508-3.962-8.306-8.693-8.302c-4.702,0.004-8.452,3.791-8.438,8.524   C107.88,298.04,111.616,301.806,116.151,301.778z M394.01,301.778c4.532,0.048,8.285-3.703,8.319-8.317   c0.035-4.731-3.703-8.539-8.403-8.559c-4.73-0.021-8.825,3.76-8.729,8.268C385.286,297.382,388.075,301.757,394.01,301.778z    M117.501,263.639c0.007-3.977-3.437-7.191-7.693-7.181c-3.537,0.008-6.425,2.983-6.464,6.658   c-0.042,4.014,3.296,7.344,7.352,7.335C114.492,270.442,117.495,267.437,117.501,263.639z M399.456,270.45   c4.005,0.03,7.339-3.194,7.396-7.151c0.053-3.734-2.836-6.813-6.42-6.841c-4.253-0.033-7.719,3.165-7.737,7.137   C392.677,267.392,395.666,270.422,399.456,270.45z M146.819,143.602c-0.023-3.815-2.871-6.865-6.411-6.865   c-3.901,0-7.682,3.631-7.671,7.366c0.011,3.74,3.182,6.789,7.045,6.776C143.729,150.867,146.843,147.646,146.819,143.602z    M365.761,144.1c0.009-3.728-3.781-7.365-7.674-7.363c-3.539,0.002-6.386,3.054-6.407,6.869c-0.022,4.044,3.093,7.264,7.039,7.274   C362.583,150.89,365.751,147.839,365.761,144.1z"/>
	<path d="M39.687,248.197c0.429-29.729,4.388-56.84,14.04-82.956c8.166-22.094,19.674-42.202,35.896-59.422   c11.048-11.727,23.6-21.48,38.335-28.206c2.518-1.149,5.21-1.924,7.839-2.823c0.558-0.191,1.225-0.331,1.775-0.203   c0.603,0.14,1.422,0.501,1.608,0.976c0.193,0.495-0.062,1.439-0.466,1.838c-0.88,0.87-1.949,1.564-2.994,2.249   c-4.89,3.201-9.926,6.198-14.677,9.592c-14.805,10.577-26.671,23.972-36.689,39.057c-13.765,20.726-23.155,43.371-28.748,67.54   c-10.439,45.115-8.26,89.578,7.955,133.107c8.141,21.854,19.98,41.53,36.067,58.515c13.073,13.803,28.376,24.262,46.446,30.485   c2.628,0.905,3.724,2.55,3.1,4.469c-0.635,1.952-2.566,2.618-5.282,1.733c-14.07-4.588-26.686-11.829-38.176-21.08   c-17.982-14.478-31.587-32.438-41.965-52.952c-11.365-22.465-18.305-46.282-21.68-71.173c-0.723-5.331-1.271-10.693-1.671-16.058   C39.987,257.334,39.852,251.764,39.687,248.197z"/>
	<path d="M460.145,251.107c-0.499,32.992-8.105,69.076-25.929,102.682c-11.097,20.923-25.72,38.89-44.876,52.99   c-10.046,7.394-20.908,13.268-32.788,17.17c-0.955,0.314-1.982,0.544-2.979,0.563c-1.383,0.025-2.36-0.763-2.837-2.072   c-0.453-1.244-0.039-2.64,1.086-3.479c0.548-0.408,1.191-0.733,1.839-0.955c19.626-6.732,35.895-18.416,49.609-33.793   c16.236-18.205,27.751-39.146,35.589-62.166c7.604-22.331,11.241-45.326,11.642-68.896c0.551-32.403-5.368-63.533-18.047-93.345   c-9.061-21.305-21.267-40.572-37.681-57.041c-7.774-7.8-16.457-14.431-25.833-20.179c-2.215-1.358-4.403-2.758-6.585-4.169   c-0.501-0.324-1.068-0.688-1.341-1.181c-0.283-0.509-0.466-1.28-0.277-1.78c0.157-0.417,0.921-0.857,1.406-0.846   c1.096,0.024,2.219,0.207,3.273,0.523c6.817,2.045,13.011,5.421,18.975,9.207c16.793,10.662,30.396,24.581,41.483,41.019   c14.937,22.145,24.319,46.558,29.437,72.673C458.582,214.727,460.079,230.463,460.145,251.107z"/>
	<path d="M246.555,44.541c-0.011,1.487-0.183,2.993-0.541,4.511c-0.121,0.515-0.581,1.46-1.176,1.353   c-0.57-0.102-0.638-1.081-0.62-1.609c0.198-5.697-1.282-10.869-4.358-15.687c-4.407-6.902-10.721-9.33-18.609-8.435   c-7.285,0.827-13.163,4.542-18.589,9.118c-5.558,4.687-10.216,10.225-14.876,15.781c-3.271,3.899-6.822,7.586-10.476,11.133   c-3.184,3.091-6.957,5.407-11.225,6.8c-10.602,3.46-19.083-1.823-20.646-12.88c-0.904-6.389,1-11.724,6.088-15.816   c0.432-0.348,0.895-0.666,1.375-0.943c4.463-2.568,9.228-0.336,9.828,4.773c0.21,1.788-0.268,3.664-0.495,5.492   c-0.048,0.385-0.282,0.869-0.587,1.071c-0.035,0.023-0.071,0.046-0.108,0.067c-0.824,0.47-1.96-0.084-1.957-1.032   c0-0.005,0-0.01,0-0.015c0.025-1.558,0.358-3.128,0.244-4.668c-0.246-3.327-2.861-4.522-5.521-2.507   c-7.475,5.662-5.297,15.563-0.045,19.541c1.415,1.072,3.044,1.305,4.759,1.106c2.402-0.278,4.56-1.197,6.564-2.523   c4.981-3.299,8.863-7.71,12.62-12.279c3.828-4.655,7.567-9.415,11.752-13.735c5.564-5.742,11.967-10.437,19.704-12.961   c6.316-2.061,12.721-2.578,19.178-0.686c4.88,1.43,8.88,4.152,11.789,8.377C244.05,32.864,246.601,38.553,246.555,44.541z"/>
	<path d="M253.017,44.488c0.004-0.313,0.012-0.565,0.016-0.727c0.103-4.129,1.316-8.247,3.279-11.867   c3.378-6.228,9.233-11.298,16.246-12.839c7.341-1.613,14.414-0.443,21.18,2.627c7.308,3.315,13.35,8.383,18.689,14.263   c3.208,3.533,6.105,7.35,9.098,11.074c3.472,4.319,7.16,8.411,11.72,11.629c2.19,1.545,4.541,2.694,7.24,3.038   c2.321,0.295,4.283-0.342,5.948-2.023c4.13-4.171,5.711-12.38-0.182-17.846c-1.266-1.175-2.697-2.218-4.482-1.505   c-1.816,0.726-2.086,2.495-2.067,4.216c0.014,1.243,0.301,2.482,0.331,3.725c0.012,0.507-0.026,1.304-0.518,1.535   c-0.511,0.24-1.233-0.233-1.562-0.605c-1.908-2.157-1.505-8.027,0.64-10.45c2.112-2.386,5.658-2.621,8.736-0.482   c9.101,6.326,8.289,17.274,4.078,23.921c-2.799,4.419-6.814,6.698-12.034,6.325c-2.462-0.176-4.952-0.776-7.296-1.576   c-3.732-1.274-7.005-3.495-9.801-6.234c-3.573-3.499-6.944-7.209-10.327-10.896c-4.044-4.407-7.896-8.996-12.045-13.299   c-3.556-3.688-7.674-6.744-12.298-9.016c-5.764-2.833-11.777-3.892-18.097-2.158c-2.8,0.768-5.183,2.25-7.111,4.423   c-4.546,5.124-7.097,11.031-6.974,17.972c0.007,0.371,0.069,0.758-0.012,1.11c-0.123,0.534,0.008,1.444-0.531,1.566   C253.087,50.792,252.991,46.448,253.017,44.488z"/>
	<path d="M233.585,0.148c3.177-0.072,5.938,1.024,8.237,3.148c2.615,2.416,4.523,5.489,5.679,8.848   c0.584,1.696,0.981,3.452,1.228,5.227c0.26,1.872,0.575,3.88,0.276,5.761c-0.06,0.374-0.144,0.744-0.26,1.105   c-0.079,0.246-0.173,0.49-0.322,0.7c-0.253,0.357-0.662,0.599-1.097,0.647c-0.797,0.088-1.37-0.441-1.656-1.141   c-0.399-0.975-0.594-2.041-0.815-3.081c-0.848-3.983-3-7.23-5.675-10.195c-1.849-2.049-4.039-3.331-6.882-3.418   c-1.755-0.054-3.52-0.2-5.253-0.475c-2.378-0.376-3.026-2.288-1.416-4.146c1.642-1.896,3.892-2.588,6.295-2.875   C232.472,0.187,233.03,0.182,233.585,0.148z"/>
	<path d="M268.101,0.008c2.727,0.105,6.301,1.202,8.011,3.381c1.375,1.752,0.69,3.516-1.491,3.867   c-2.288,0.368-4.637,0.24-6.901,0.73c-2.127,0.46-3.892,1.633-5.368,3.201c-1.844,1.958-3.364,4.211-4.455,6.671   c-0.502,1.133-0.956,2.324-1.248,3.529c-0.295,1.217-0.511,2.429-1.186,3.509c-0.166,0.265-0.368,0.532-0.662,0.638   c-1.835,0.663-2.433-2.634-2.372-3.734c0.143-2.567,0.585-5.258,1.097-7.777c1.257-6.189,6.035-12.866,12.638-13.897   c0.583-0.091,1.175-0.138,1.765-0.124C267.986,0.004,268.043,0.006,268.101,0.008z"/>
	<path d="M276.93,51.756c-1.462-0.119-2.88-0.617-4.022-1.532c-2.005-1.606-2.932-4.571-1.866-6.908   c0.77-1.688,2.459-2.868,4.278-3.232c3.921-0.784,11.294,2.165,9.541,7.226c-0.7,2.021-2.597,3.456-4.642,4.085   C279.163,51.72,278.033,51.846,276.93,51.756z"/>
	<path d="M222.321,45.101c-0.044,4.43-3.186,7.516-6.914,7.307c-3.297-0.185-5.74-3.124-5.241-6.387   c0.336-2.193,1.414-4.024,3.167-5.375c1.762-1.358,3.752-1.597,5.751-0.591C221.337,41.185,222.282,43.16,222.321,45.101z"/>
	<path d="M279.625,248.693c0.092-10.44,1.61-22.648,5.849-34.381c2.799-7.748,6.979-14.632,13.556-19.854   c8.557-6.795,17.84-6.761,26.314,0.128c5.279,4.291,8.81,9.867,11.615,15.941c4.37,9.462,6.482,19.51,7.345,29.832   c1.286,15.376,0.034,30.49-5.107,45.147c-2.132,6.079-4.857,11.889-9.111,16.774c-2.109,2.422-4.513,4.735-7.181,6.496   c-7.087,4.678-14.394,4.547-21.569,0.006c-4.199-2.658-7.344-6.362-10.005-10.497c-4.891-7.601-7.613-16.044-9.467-24.801   C280.274,265.968,279.621,258.35,279.625,248.693z"/>
	<g>
		<path d="M246.555,455.291c-0.011-1.487-0.183-2.993-0.541-4.511c-0.121-0.515-0.581-1.46-1.176-1.353    c-0.57,0.102-0.638,1.081-0.62,1.609c0.198,5.697-1.282,10.869-4.358,15.687c-4.407,6.902-10.721,9.33-18.609,8.435    c-7.285-0.827-13.163-4.542-18.589-9.118c-5.558-4.687-10.216-10.225-14.876-15.781c-3.271-3.899-6.822-7.586-10.476-11.133    c-3.184-3.091-6.957-5.407-11.225-6.8c-10.602-3.46-19.083,1.823-20.646,12.88c-0.904,6.389,1,11.724,6.088,15.816    c0.432,0.348,0.895,0.666,1.375,0.943c4.463,2.568,9.228,0.336,9.828-4.773c0.21-1.788-0.268-3.664-0.495-5.492    c-0.048-0.385-0.282-0.869-0.587-1.071c-0.035-0.023-0.071-0.046-0.108-0.067c-0.824-0.47-1.96,0.084-1.957,1.032    c0,0.005,0,0.01,0,0.015c0.025,1.558,0.358,3.128,0.244,4.668c-0.246,3.327-2.861,4.522-5.521,2.507    c-7.475-5.662-5.297-15.563-0.045-19.541c1.415-1.072,3.044-1.305,4.759-1.106c2.402,0.278,4.56,1.197,6.564,2.523    c4.981,3.299,8.863,7.71,12.62,12.279c3.828,4.655,7.567,9.415,11.752,13.735c5.564,5.742,11.967,10.437,19.704,12.961    c6.316,2.061,12.721,2.578,19.178,0.686c4.88-1.43,8.88-4.152,11.789-8.377C244.05,466.967,246.601,461.279,246.555,455.291z"/>
		<path d="M253.017,455.344c0.004,0.313,0.012,0.565,0.016,0.727c0.103,4.129,1.316,8.247,3.279,11.867    c3.378,6.228,9.233,11.298,16.246,12.839c7.341,1.613,14.414,0.443,21.18-2.627c7.308-3.315,13.35-8.383,18.689-14.263    c3.208-3.533,6.105-7.35,9.098-11.074c3.472-4.319,7.16-8.411,11.72-11.629c2.19-1.545,4.541-2.694,7.24-3.038    c2.321-0.295,4.283,0.342,5.948,2.023c4.13,4.171,5.711,12.38-0.182,17.846c-1.266,1.175-2.697,2.218-4.482,1.505    c-1.816-0.726-2.086-2.495-2.067-4.216c0.014-1.243,0.301-2.482,0.331-3.725c0.012-0.507-0.026-1.304-0.518-1.535    c-0.511-0.24-1.233,0.233-1.562,0.605c-1.908,2.157-1.505,8.027,0.64,10.45c2.112,2.386,5.658,2.621,8.736,0.482    c9.101-6.326,8.289-17.274,4.078-23.921c-2.799-4.419-6.814-6.698-12.034-6.325c-2.462,0.176-4.952,0.776-7.296,1.576    c-3.732,1.274-7.005,3.495-9.801,6.234c-3.573,3.499-6.944,7.209-10.327,10.896c-4.044,4.406-7.896,8.996-12.045,13.299    c-3.556,3.688-7.674,6.744-12.298,9.016c-5.764,2.833-11.777,3.892-18.097,2.158c-2.8-0.768-5.183-2.25-7.111-4.423    c-4.546-5.124-7.097-11.031-6.974-17.972c0.007-0.371,0.069-0.758-0.012-1.11c-0.123-0.534,0.008-1.444-0.531-1.566    C253.087,449.04,252.991,453.384,253.017,455.344z"/>
		<path d="M233.585,499.684c3.177,0.072,5.938-1.024,8.237-3.148c2.615-2.416,4.523-5.489,5.679-8.848    c0.584-1.696,0.981-3.452,1.228-5.227c0.26-1.872,0.575-3.88,0.276-5.761c-0.06-0.374-0.144-0.744-0.26-1.105    c-0.079-0.246-0.173-0.49-0.322-0.7c-0.253-0.357-0.662-0.599-1.097-0.647c-0.797-0.088-1.37,0.441-1.656,1.141    c-0.399,0.975-0.594,2.04-0.815,3.081c-0.848,3.983-3,7.23-5.675,10.195c-1.849,2.049-4.039,3.331-6.882,3.418    c-1.755,0.054-3.52,0.2-5.253,0.475c-2.378,0.376-3.026,2.288-1.416,4.146c1.642,1.896,3.892,2.588,6.295,2.875    C232.472,499.645,233.03,499.65,233.585,499.684z"/>
		<path d="M268.101,499.824c2.727-0.105,6.301-1.202,8.011-3.381c1.375-1.752,0.69-3.516-1.491-3.867    c-2.288-0.368-4.637-0.24-6.901-0.73c-2.127-0.46-3.892-1.633-5.368-3.202c-1.844-1.958-3.364-4.211-4.455-6.671    c-0.502-1.133-0.956-2.324-1.248-3.529c-0.295-1.217-0.511-2.429-1.186-3.509c-0.166-0.265-0.368-0.532-0.662-0.638    c-1.835-0.663-2.433,2.634-2.372,3.734c0.143,2.567,0.585,5.258,1.097,7.777c1.257,6.189,6.035,12.866,12.638,13.897    c0.583,0.091,1.175,0.138,1.765,0.124C267.986,499.828,268.043,499.826,268.101,499.824z"/>
		<path d="M276.93,448.076c-1.462,0.119-2.88,0.617-4.022,1.532c-2.005,1.606-2.932,4.571-1.866,6.908    c0.77,1.688,2.459,2.868,4.278,3.232c3.921,0.784,11.294-2.165,9.541-7.226c-0.7-2.021-2.597-3.456-4.642-4.085    C279.163,448.112,278.033,447.986,276.93,448.076z"/>
		<path d="M222.321,454.731c-0.044-4.43-3.186-7.516-6.914-7.307c-3.297,0.185-5.74,3.124-5.241,6.387    c0.336,2.193,1.414,4.024,3.167,5.375c1.762,1.358,3.752,1.597,5.751,0.591C221.337,458.647,222.282,456.672,222.321,454.731z"/>
	</g>
</g>















</svg>
