<?xml version="1.0" encoding="iso-8859-1"?>
<!-- Generator: Adobe Illustrator 26.5.3, SVG Export Plug-In . SVG Version: 6.00 Build 0)  -->
<svg xmlns="http://www.w3.org/2000/svg" xmlns:xlink="http://www.w3.org/1999/xlink" version="1.1" id="Capa_1" x="0px" y="0px" viewBox="0 0 512 512" style="enable-background:new 0 0 512 512;" xml:space="preserve">
<g>
	<g>
		<path d="M55.578,433.154c0.843-3.421,1.681-6.843,2.53-10.262c3.587-14.455,7.158-28.913,10.77-43.361    c3.204-12.816,6.487-25.612,9.663-38.435c0.729-2.943,2.252-4.685,5.395-5.056c2.466-0.291,4.878-1.007,7.378-1.156    c2.878-0.171,3.926,0.47,4.885,3.241c1.269,3.665,1.836,7.499,2.598,11.285c2.621,13.008,5.03,26.054,7.007,39.176    c1.893,12.562,3.725,25.134,5.587,37.701c0.042,0.285,0.119,0.566,0.537,0.869c0.443-2.792,0.886-5.584,1.33-8.376    c3.213-20.185,6.372-40.379,9.655-60.553c3.613-22.204,7.337-44.391,11.021-66.583c0.418-2.52,0.86-5.036,1.336-7.545    c0.449-2.366,1.66-3.432,3.412-3.092c1.71,0.332,2.573,1.862,2.205,4.107c-2.487,15.187-4.993,30.37-7.493,45.555    c-3.504,21.273-6.78,42.587-10.586,63.805c-3.057,17.046-5.563,34.197-9.35,51.111c-0.354,1.58-1.08,2.783-2.536,3.474    c-4.302,2.041-8.875,2.899-13.602,2.844c-2.111-0.025-3.034-1.632-3.353-3.451c-0.679-3.863-1.38-7.735-1.77-11.633    c-1.414-14.133-3.458-28.177-5.482-42.231c-1.97-13.677-4.609-27.278-5.25-41.128c-0.01-0.222-0.084-0.442-0.466-0.702    c-0.442,1.781-0.884,3.561-1.326,5.342c-3.107,12.517-6.211,25.035-9.323,37.55c-3.158,12.698-6.298,25.401-9.504,38.087    c-0.824,3.26-1.884,6.46-2.808,9.696c-0.892,3.123-2.824,4.72-6.177,4.942c-4.866,0.323-9.715,0.207-14.566-0.052    c-2.247-0.12-3.17-1.091-3.846-3.638c-1.648-6.211-2.637-12.555-3.793-18.865c-1.729-9.435-3.493-18.863-5.239-28.295    c-2.709-14.638-5.332-29.292-8.149-43.909c-2.016-10.46-3.927-20.938-5.727-31.436c-1-5.829-1.803-11.692-2.629-17.549    c-0.308-2.187,0.817-3.749,3.015-4.224c5.113-1.106,10.255-2.072,15.436-2.815c1.046-0.15,2.08-0.386,3.115-0.604    c2.274-0.48,3.49,0.203,3.929,2.511c0.791,4.159,1.456,8.342,2.161,12.518c1.679,9.948,3.368,19.895,5.02,29.848    c1.509,9.092,2.978,18.19,4.46,27.286c1.682,10.327,3.386,20.65,5.029,30.983c1.369,8.61,2.662,17.232,3.995,25.848    c0.369,2.385,0.761,4.766,1.142,7.15C55.334,433.138,55.456,433.146,55.578,433.154z"/>
		<path d="M277.182,421.483c0.027-0.439,0.071-0.851,0.077-1.263c0.163-12.9,0.3-25.801,0.489-38.701    c0.222-15.141,0.418-30.283,0.758-45.422c0.256-11.396,0.713-22.788,1.099-34.181c0.076-2.24,0.222-4.478,0.369-6.715    c0.04-0.617,0.147-1.241,0.316-1.836c0.389-1.373,1.192-2.43,2.737-2.349c1.621,0.085,2.345,1.242,2.593,2.734    c0.506,3.035,0.429,6.106,0.247,9.143c-0.253,4.239-0.108,8.474-0.208,12.709c-0.279,11.711-0.544,23.422-0.877,35.131    c-0.323,11.396-0.798,22.789-1.067,34.186c-0.232,9.834-0.258,19.674-0.397,29.51c-0.113,7.975-0.292,15.95-0.368,23.925    c-0.021,2.191-0.983,3.599-3.005,4.193c-5.681,1.669-11.392,3.264-17.294,3.936c-3.006,0.342-4.225-0.597-5.304-3.534    c-6.965-18.954-13.167-38.17-19.577-57.313c-6.806-20.327-13.362-40.739-20.033-61.111c-1.059-3.235-2.152-6.46-3.576-9.645    c0,0.713,0,1.426,0,2.139c-0.016,22.069-0.042,44.137-0.046,66.206c-0.004,18.44,0.016,36.879,0.027,55.319    c0.001,2.245,0.013,4.495-0.482,6.7c-0.284,1.264-0.759,2.453-2.363,2.443c-1.666-0.01-2.203-1.161-2.44-2.562    c-0.639-3.773-0.581-7.604-0.453-11.381c0.262-7.728-0.636-15.44-0.042-23.171c0.329-4.284-0.138-8.594-0.177-12.89    c-0.11-12.21,0.036-24.423-0.15-36.632c-0.115-7.535,0.296-15.07-0.195-22.607c-0.206-3.157,0.191-6.348,0.177-9.522    c-0.021-5.108-0.305-10.218-0.196-15.322c0.091-4.238-0.157-8.465-0.087-12.698c0.06-3.569,1.7-5.724,5.212-6.163    c6.055-0.757,12.133-1.334,18.205-1.945c1.543-0.155,2.73,0.44,3.608,1.827c1.383,2.186,2.325,4.563,3.121,6.983    c4.541,13.792,9.025,27.604,13.516,41.413c6.592,20.269,13.177,40.541,19.76,60.813c1.829,5.631,3.641,11.268,5.465,16.9    C276.711,421.001,276.682,421.358,277.182,421.483z"/>
		<path d="M324.715,287.569c13.308-0.148,24.729,4.881,35.02,12.95c15.946,12.503,24.7,29.159,28.327,48.821    c3.396,18.415,2.157,36.636-2.692,54.582c-2.593,9.596-6.507,18.756-13.033,26.481c-5.453,6.455-12.05,11.536-19.618,15.304    c-9.214,4.587-18.966,7.126-29.262,7.692c-2.989,0.164-5.975,0.408-8.958,0.238c-4.788-0.273-7.044-2.071-7.441-6.624    c-0.447-5.116-0.01-10.21,0.197-15.311c0.21-5.165,0.508-10.328,0.664-15.494c0.418-13.761,1.228-27.505,1.636-41.268    c0.398-13.447,0.943-26.894,1.515-40.335c0.561-13.195,0.979-26.393,1.46-39.59c0.171-4.672,2.291-6.962,6.954-7.419    C321.213,287.427,322.971,287.569,324.715,287.569z M383.444,369.106c-0.223-4.163-0.501-9.5-1.389-14.804    c-3.048-18.223-10.353-34.166-24.693-46.33c-5.685-4.822-11.828-8.955-19.07-11.159c-2.15-0.654-2.122-0.637-2.199,1.636    c-0.26,7.657-0.369,15.326-0.867,22.968c-0.923,14.171-1.399,28.363-2.143,42.541c-0.313,5.971-0.4,11.958-0.844,17.918    c-0.977,13.107-1.311,26.246-2.107,39.362c-0.49,8.08-0.625,16.181-1.428,24.242c-0.119,1.197,0.138,1.756,1.501,1.567    c13.343-1.851,24.846-7.513,34.523-16.821c6.213-5.976,9.77-13.595,12.778-21.516    C382.208,396.322,382.962,383.329,383.444,369.106z"/>
		<path d="M419.209,455.595c-4.463-0.79-9.127-1.319-13.509-3.059c-2.182-0.867-2.687-2.244-1.818-4.519    c4.718-12.346,10.058-24.433,15.251-36.581c4.213-9.856,8.406-19.721,12.627-29.573c0.379-0.884,0.311-1.613-0.155-2.464    c-7.488-13.693-13.242-28.191-19.688-42.369c-5.959-13.107-10.952-26.627-17.079-39.66c-0.211-0.45-0.398-0.917-0.538-1.394    c-0.632-2.152,0.254-4.258,2.094-5.026c1.746-0.73,3.856,0.061,4.843,2.067c1.43,2.906,2.686,5.897,4.012,8.853    c6.401,14.272,12.191,28.806,18.534,43.106c3.689,8.317,7.694,16.488,11.271,24.853c0.225,0.527,0.288,1.411,1.053,1.355    c0.58-0.043,0.667-0.835,0.878-1.336c7.866-18.597,15.71-37.203,23.587-55.795c1.799-4.245,3.657-8.467,5.596-12.649    c0.648-1.399,1.582-2.677,2.48-3.944c0.644-0.909,1.642-1.407,2.756-1.342c4.99,0.293,9.945,0.953,14.655,2.655    c3.249,1.174,3.786,2.626,2.487,6.021c-1.67,4.364-3.417,8.704-5.31,12.974c-6.843,15.44-13.52,30.952-20.179,46.472    c-9.705,22.621-19.499,45.203-29.227,67.813c-2.758,6.411-5.397,12.873-8.455,19.152c-0.973,1.999-2.313,3.543-4.535,4.133    C420.361,455.466,419.859,455.496,419.209,455.595z"/>
		<path d="M156.069,406.551c0-7.169,0.095-14.34-0.018-21.508c-0.36-22.929-0.315-45.86-0.354-68.79    c-0.007-3.866,0.092-7.724,0.393-11.578c0.325-4.155,2.154-5.956,6.288-5.972c4.923-0.019,9.831-0.527,14.761-0.374    c1.815,0.056,3.425,0.508,4.89,1.573c1.151,0.837,1.853,1.988,1.702,3.348c-0.333,3.002,0.157,5.974,0.108,8.963    c-0.172,10.469-0.279,20.939-0.394,31.408c-0.328,29.725-0.397,59.452-0.385,89.178c0.002,3.99-0.012,7.975-0.337,11.955    c-0.149,1.825-0.68,3.548-1.36,5.226c-0.512,1.263-1.547,1.925-2.858,2.149c-5.743,0.98-11.536,1.046-17.328,0.779    c-2.692-0.124-4.186-1.967-4.304-4.691C156.274,434.334,155.891,420.448,156.069,406.551z"/>
	</g>
	<g>
		<path d="M298.35,247.128c-1.9-2.056-4.014-3.666-6.03-5.372c-7.051-5.966-14.737-10.871-23.547-13.84    c-1.769-0.596-3.606-0.988-5.393-1.533c-0.853-0.26-2.117-0.299-2.095-1.486c0.025-1.362,1.34-1.521,2.366-1.649    c3.682-0.462,7.203,0.351,10.614,1.637c7.42,2.796,14.089,6.885,20.209,11.904c4.58,3.757,8.941,7.762,13.26,11.808    c8.099,7.587,16.116,15.276,25.754,20.954c8.113,4.78,16.779,7.793,26.289,8.298c9.273,0.492,17.166-2.302,23.535-9.124    c3.531-3.781,5.445-8.292,5.828-13.45c0.269-3.63,0.263-3.63-3.461-3.626c-1.496,0.002-3.001,0.1-4.487-0.023    c-1.691-0.14-2.432,0.425-2.655,2.191c-0.393,3.104-1.181,6.094-3.362,8.563c-3.331,3.771-7.666,5.451-12.465,6.148    c-6.725,0.977-12.967-1.076-19.105-3.389c-7.719-2.909-14.436-7.565-20.958-12.507c-7.844-5.945-15.09-12.634-23.06-18.431    c-9.897-7.198-20.733-11.848-33.031-12.802c-0.991-0.077-1.981-0.253-2.953-0.466c-0.871-0.191-1.77-0.509-1.749-1.62    c0.019-1.015,0.76-1.52,1.646-1.801c1.319-0.418,2.69-0.559,4.059-0.543c12.564,0.144,23.548,4.763,33.664,11.875    c7.464,5.247,14.091,11.5,21.015,17.395c0.969,0.824,1.924,1.203,3.191,1.202c24.002-0.001,48.004,0.017,72.006,0.088    c1.648,0.005,2.457-0.482,2.867-2.133c1.069-4.299,1.914-8.632,2.574-13.011c0.25-1.657-0.818-2.031-1.935-2.471    c-7.538-2.97-15.055-5.994-22.624-8.885c-13.448-5.136-26.894-10.292-40.594-14.727c-8.697-2.815-17.65-4.347-26.826-4.403    c-1.457-0.009-2.003,0.037-1.169,1.785c2.458,5.152,2.501,10.341-1.219,14.954c-3.68,4.562-8.661,6.033-14.275,4.586    c-5.489-1.415-8.86-5.087-10.029-10.688c-0.345-1.654-0.079-3.339-0.143-5.166c-2.092,0.775-3.681,2.041-5.218,3.385    c-1.454,1.272-2.87,2.589-4.359,3.819c-0.703,0.581-1.621,1.364-2.478,0.535c-0.955-0.924-0.109-1.874,0.516-2.616    c3.815-4.527,8.392-7.828,14.154-9.633c9.351-2.93,18.79-4.991,28.653-4.366c8.001,0.507,15.834,2.042,23.421,4.571    c18.27,6.09,36.307,12.83,54.292,19.717c13.093,5.013,25.916,10.726,39.263,15.083c10.714,3.497,21.582,6.257,32.927,6.135    c8.741-0.094,16.536-2.854,22.521-9.609c4.215-4.757,6.119-10.477,6.88-16.665c0.9-7.316,0.125-14.624-0.988-21.784    c-2.155-13.864,0.25-26.745,6.543-39.118c2.626-5.164,5.082-10.427,6.839-15.97c1.58-4.984,1.483-9.779-2.335-13.811    c-2.298-2.427-5.176-4.069-8.331-5.212c-8.447-3.06-17.084-3.066-25.83-1.722c-7.264,1.117-14.506,2.526-21.868,2.741    c-7.589,0.221-14.829-1.406-21.715-4.699c-6.319-3.022-12.147-6.866-18.133-10.45c-3.275-1.961-6.722-3.615-10.489-4.356    c-8.715-1.714-15.501,1.496-20.696,8.442c-5.037,6.736-7.135,14.622-8.555,22.711c-1.367,7.793-0.828,15.654-0.43,23.498    c0.051,0.995,0.491,1.612,1.343,2.053c6.099,3.159,11.34,7.447,16.105,12.341c0.916,0.941,1.324,0.838,2.066-0.242    c5.552-8.082,12.059-15.323,20.294-20.708c10.294-6.731,21.628-10.44,34.031-8.909c14.926,1.842,25.902,12.654,28.215,28.279    c2.356,15.918-2.853,29.381-15.362,39.739c-7.674,6.354-16.645,9.329-26.545,9.727c-13.23,0.533-26.025-2.09-38.726-5.33    c-14.74-3.761-29.11-8.797-43.781-12.8c-9.142-2.494-18.294-4.957-27.744-5.985c-13.806-1.502-27.133-0.235-39.379,7.07    c-3.143,1.875-5.81,4.279-8.274,6.945c-0.802,0.868-1.726,1.625-2.92,0.832c-1.149-0.763-0.97-1.991-0.537-3.048    c1.135-2.776,3.021-4.987,5.424-6.77c8.194-6.082,17.617-8.887,27.557-10.233c13.946-1.888,27.556,0.134,41.085,3.487    c14.537,3.603,28.664,8.538,42.977,12.869c5.069,1.534,10.173,2.951,15.277,4.364c2.591,0.718,2.781,0.483,2.188-2.245    c-2.002-9.214-5.863-17.59-11.452-25.165c-5.761-7.809-12.648-14.404-21.091-19.293c-10.714-6.204-22.171-7.426-34.165-5.138    c-2.387,0.455-4.787,0.848-7.192,1.195c-3.041,0.439-4.768-0.673-5.165-3.707c-0.412-3.141-0.435-6.333-0.639-9.502    c-0.818-12.664-5.089-23.807-14.44-32.702c-6.417-6.103-14.114-9.342-22.907-9.67c-16.422-0.613-31.29,3.801-44.194,14.232    c-1.356,1.096-2.763,2.14-4.22,3.096c-2.573,1.688-4.659,1.249-6.423-1.279c-1.958-2.807-3.656-5.786-5.988-8.341    c-5.131-5.62-11.447-9.032-18.955-9.944c-14.363-1.745-26.199,3.432-36.271,13.482c-5.754,5.742-10.365,12.283-14.259,19.344    c-1.767,3.205-4.204,3.806-7.035,1.074c-4.395-4.242-10.093-6.218-16.273-6.71c-10.034-0.8-17.229,4.013-23.376,11.293    c-7.331,8.682-11.039,18.838-12.629,29.903c-0.7,4.87-1.247,9.761-1.895,14.639c-0.131,0.985-0.326,1.974-0.619,2.921    c-0.624,2.015-1.87,2.949-3.985,3.056c-1.431,0.073-2.868,0.034-4.297,0.133c-9.931,0.689-16.438,6.586-21.393,14.499    c-3.817,6.096-4.987,13.108-5.956,20.111c-0.581,4.202-0.923,8.425-0.78,12.673c0.064,1.91,0.227,2.026,1.95,1.266    c5.563-2.453,10.591-5.806,15.557-9.264c10.14-7.061,20.448-13.85,31.985-18.471c7.987-3.199,16.242-5.158,24.943-4.984    c9.951,0.199,18.757,3.473,26.717,9.339c7.629,5.623,12.917,13.26,18.221,20.892c1.707,2.456,3.356,4.954,4.98,7.466    c0.708,1.095,1.568,1.573,2.921,1.568c11.159-0.04,22.319-0.033,33.478,0.019c1.442,0.007,2.471-0.613,3.519-1.445    c4.684-3.718,8.964-7.934,13.932-11.301c1.609-1.091,3.268-2.081,5.193-2.49c0.993-0.211,2.115-0.351,2.652,0.748    c0.6,1.227-0.448,1.792-1.286,2.325c-5.851,3.717-11.151,8.163-16.586,12.436c-4.876,3.834-9.958,7.349-16.316,8.264    c-1.845,0.266-3.715,0.389-5.579,0.472c-0.779,0.035-1.831-0.008-1.931-1.037c-0.108-1.104,0.969-1.135,1.732-1.273    c2.267-0.408,4.564-0.674,6.75-1.453c0.564-0.201,1.12-0.428,1.613-0.918c-8.408,0-16.816,0-25.498,0    c2.533,3.328,5.253,6.081,8.398,8.438c6.387,4.786,13.392,7.747,21.528,7.015c11.259-1.013,20.9-5.423,28.419-14.053    c0.305-0.349,0.899-0.662,0.609-1.234c-0.226-0.447-0.784-0.283-1.199-0.284c-3.99-0.014-7.98,0.013-11.97-0.025    c-1.111-0.011-1.887,0.46-2.574,1.256c-1.755,2.031-3.717,3.852-5.675,5.686c-3.759,3.521-8.399,4.416-13.28,4.614    c-0.995,0.04-1.995-0.201-2.734-0.995c-0.317-0.34-0.454-0.751-0.305-1.205c0.18-0.548,0.658-0.508,1.088-0.468    c5.828,0.551,10.544-1.796,14.639-5.674c3.53-3.343,6.951-6.794,10.133-10.481c2.326-2.695,4.89-5.166,7.875-7.137    c1.301-0.86,2.704-1.601,4.377-1.122c0.514,0.147,0.931,0.438,0.913,1.029c-0.016,0.512-0.413,0.759-0.861,0.852    c-3.407,0.708-5.486,3.285-7.778,5.546c-0.885,0.873-1.685,1.837-2.489,2.788c-0.596,0.705-0.439,1.1,0.533,1.097    c3.99-0.011,7.98-0.024,11.97-0.006c1.081,0.005,1.506-0.74,1.934-1.509c1.341-2.404,2.287-4.979,3.252-7.547    c0.264-0.701,0.273-1.885,1.37-1.66c1.157,0.237,0.858,1.417,0.753,2.212c-0.439,3.309-1.538,6.425-3.186,9.318    c-7.573,13.293-19.043,20.761-34.177,22.578c-13.245,1.59-23.437-4.212-31.979-13.648c-5.799-6.407-10.026-13.96-14.938-21.013    c-4.333-6.223-9.145-11.991-15.363-16.456c-10.438-7.495-21.968-9.214-34.344-6.569c-11.147,2.382-21.057,7.572-30.659,13.464    c-7.489,4.596-14.521,9.913-22.216,14.183c-6.259,3.473-12.729,6.332-20.081,6.413c-7.201,0.079-13.022-2.936-17.313-8.491    c-9.534-12.343-10.465-25.931-4.775-40.087c4.023-10.01,10.725-17.935,20.132-23.351c6.553-3.773,13.834-5.191,21.266-5.96    c4.543-0.47,9.07-0.54,13.593,0.249c2.597,0.453,5.138,1.093,7.452,2.358c1.552,0.849,2.13,0.39,2.261-1.219    c0.055-0.68,0.24-1.348,0.346-2.025c0.425-2.699,0.412-2.692-2.07-3.685c-3.986-1.594-8.135-2.208-12.412-2.387    c-13.724-0.574-26.92,1.829-39.656,6.859c-5.764,2.277-11.218,5.129-15.94,9.234c-5.636,4.899-9.477,11.017-12.221,17.884    c-3.02,7.559-4.65,15.427-4.32,23.553c0.518,12.752,4.589,24.242,13.599,33.524c5.224,5.382,11.976,7.959,19.383,8.772    c12.256,1.346,23.408-2.363,34.181-7.632c8.474-4.144,16.185-9.579,24.183-14.528c4.716-2.919,9.437-5.802,14.571-7.991    c10.152-4.329,19.8-3.202,29.198,2.204c6.808,3.916,12.69,9.01,18.449,14.264c6.812,6.215,13.383,12.719,21.188,17.739    c9.944,6.396,20.57,10.613,32.661,10.191c6.917-0.241,13.385-2.102,19.566-5.102c9.223-4.476,16.895-10.778,22.493-19.427    c2.922-4.515,4.842-9.407,4.801-14.914c-0.006-0.806-0.228-1.983,0.971-2.112c1.087-0.117,1.337,0.982,1.601,1.785    c0.96,2.925,0.433,5.814-0.475,8.625c-0.497,1.54-0.133,1.98,1.45,1.932c2.99-0.091,5.985-0.059,8.976-0.016    c1.464,0.021,1.985-0.513,1.811-2.03c-0.514-4.48-2.881-7.581-6.792-9.643c-0.999-0.526-2.595-0.878-1.981-2.426    c0.588-1.48,2.113-1.33,3.422-0.957c4.171,1.189,6.424,4.332,7.932,8.104c1.211,3.027,1.331,6.159,0.604,9.365    c-0.974,4.29-2.586,8.32-4.562,12.228c-1.35,2.67-2.651,5.357-3.638,8.195c-1.518,4.367-1.474,8.674,0.222,12.969    c0.295,0.747,0.823,1.587-0.233,2.094c-0.982,0.471-1.707-0.143-2.156-0.957c-2.058-3.729-2.886-7.647-1.883-11.889    c1.014-4.294,3.013-8.173,4.919-12.093c1.121-2.304,2.112-4.646,2.864-7.099c0.351-1.144,0.093-1.65-1.139-1.643    c-3.678,0.019-7.356,0.026-11.034,0.002c-1.039-0.007-1.545,0.601-2.017,1.392c-7.998,13.392-19.892,21.639-34.729,25.655    c-12.188,3.299-23.96,1.302-35.319-3.865c-9.899-4.503-18.269-11.141-26.085-18.552c-4.782-4.534-4.75-4.709-11.217-4.537    c-16.703,0.443-33.407,0.109-50.11,0.236c-3.615,0.028-7.231,0.034-10.832-0.287c-2.09-0.186-3.853,0.43-5.622,1.525    c-8.211,5.082-16.938,9.019-26.331,11.368c-7.006,1.752-14.076,2.465-21.297,1.39c-12.12-1.805-21.106-8.063-27.17-18.654    c-4.825-8.427-7.618-17.459-7.989-27.17c-0.52-13.612,2.865-26.167,10.618-37.436c5.51-8.008,13.384-12.898,22.226-16.414    c9.255-3.68,18.863-5.997,28.9-7.25c-0.592-1.421-1.709-2.316-2.597-3.362c-7.208-8.497-11.624-18.227-11.866-29.413    C47.016,111.639,56.229,99.865,70.402,96c4.599-1.254,9.303-1.747,14.041-1.913c5.604-0.196,11.214-0.164,16.821-0.266    c8.502-0.155,15.638-3.126,21.704-8.979c3.727-3.596,7.184-7.439,10.684-11.249c7.918-8.618,17.168-14.982,29.053-16.71    c10.54-1.532,20.264,0.56,28.76,7.094c5.548,4.266,8.842,10.195,11.176,16.712c1.782,4.978,2.622,10.121,2.898,15.368    c0.068,1.295,0.38,2.001,1.8,2.307c11.149,2.404,19.575,8.681,25.518,18.328c0.863,1.401,1.432,1.5,2.632,0.43    c7.764-6.918,16.64-11.839,26.738-14.405c9.315-2.367,18.742-3.664,28.31-1.698c14.004,2.878,23.639,11.418,30.254,23.741    c4.586,8.541,6.235,17.811,6.646,27.373c0.035,0.809,0.05,1.621,0.031,2.431c-0.032,1.356,0.59,1.729,1.881,1.471    c2.994-0.6,5.999-1.147,9.008-1.665c8.175-1.405,16.132-0.459,23.925,2.259c2.153,0.751,2.365,0.555,2.022-1.733    c-2-13.349-0.882-26.376,4.314-38.898c2.604-6.275,6.458-11.681,12.48-15.195c8.411-4.909,16.916-4.188,25.437-0.267    c5.176,2.381,9.801,5.696,14.638,8.651c6.095,3.723,12.396,7.004,19.512,8.27c6.584,1.172,13.171,0.495,19.731-0.367    c7.715-1.013,15.367-2.738,23.208-2.351c7.774,0.384,15.191,2.046,21.591,6.84c5.678,4.253,7.664,9.979,6.436,16.817    c-0.978,5.452-3.535,10.361-5.795,15.352c-2.493,5.504-5.17,10.915-6.921,16.741c-1.902,6.331-2.071,12.721-1.445,19.229    c0.721,7.497,1.775,14.981,1.651,22.533c-0.108,6.613-1.237,13.072-4.445,18.933c-5.51,10.065-14.474,15.067-25.559,16.331    c-11.098,1.265-21.816-1.162-32.397-4.224c-9.414-2.724-18.527-6.284-27.571-10.032c-2.415-1.001-2.499-1.22-2.846,1.487    c-0.554,4.322-1.24,8.646-2.799,12.756c-1.302,3.431-2.374,4.146-5.977,4.143c-1.247-0.001-2.496,0.049-3.74-0.01    c-1.308-0.063-2.031,0.348-1.885,1.796c1.442,14.254-11.731,26.223-25.191,28.179c-8.74,1.27-17.134-0.304-25.306-3.337    c-10.436-3.874-19.423-10.099-27.729-17.378c-3.046-2.669-6.014-5.429-8.982-8.186c-0.73-0.678-1.489-1.045-2.494-1.042    c-6.546,0.018-13.092,0.038-19.638-0.02c-1.373-0.012-1.878,0.585-2.044,1.825c-0.611,4.567-1.544,9.113-1.815,13.699    c-0.29,4.9,1.207,9.469,4.107,13.513c0.433,0.604,1.372,1.208,0.463,2.052c-0.834,0.774-1.716,0.261-2.332-0.348    c-2.659-2.625-4.112-5.903-4.83-9.517c-1.009-5.081,0.161-10.039,0.895-15.026c0.651-4.422,1.651-8.824,1.018-13.351    c-0.28-2.004-1.022-3.838-1.876-5.651c-0.422-0.896-0.927-2.017,0.221-2.665c1.253-0.707,1.973,0.364,2.496,1.276    c1.455,2.533,2.139,5.307,2.247,8.212c0.04,1.065,0.208,1.792,1.536,1.779c4.987-0.048,9.974-0.03,14.961-0.047    C297.793,247.393,297.956,247.278,298.35,247.128z M426.491,215.329c0.911,0,2.534,0.068,4.15-0.011    c10.171-0.496,18.845-4.465,25.979-11.644c8.153-8.205,11.658-18.289,11.027-29.737c-0.458-8.301-3.766-15.414-10.024-21.024    c-7.654-6.86-16.726-8.41-26.527-6.842c-11.498,1.84-21.259,7.103-29.588,15.206c-4.305,4.188-7.914,8.953-11.785,13.504    c-0.717,0.843-0.127,1.357,0.347,1.924c8.478,10.173,14.11,21.665,16.12,34.827c0.183,1.2,0.674,1.807,1.962,2.034    C413.988,214.599,419.827,215.523,426.491,215.329z M66.022,132.911c-0.167,2.257,0.468,4.512,1.413,6.72    c2.387,5.584,6.419,9.904,10.774,13.946c3.423,3.177,6.917,6.268,11.286,8.201c1.71,0.757,2.212,0.299,2.626-1.366    c2.581-10.372,7.818-19.254,15.554-26.586c6.94-6.578,15.206-9.6,24.814-8.285c5.899,0.808,11.355,2.856,16.146,6.459    c1.157,0.87,1.736,0.686,2.426-0.544c2.411-4.297,5.032-8.468,8.175-12.279c4.421-5.36,9.273-10.271,15.169-14.035    c6.576-4.198,13.745-6.708,21.53-7.411c2.058-0.186,2.213-0.377,1.455-2.251c-1.05-2.598-2.107-5.197-3.28-7.741    c-2.214-4.8-5.863-7.962-10.999-9.374c-5.777-1.589-11.365-1.079-16.733,1.544c-5.663,2.768-10.024,7.143-14.096,11.804    c-4.221,4.832-8.055,9.999-12.597,14.554c-6.908,6.927-15.096,10.803-25.031,10.816c-5.895,0.007-11.672-0.875-17.462-1.75    c-6.715-1.015-13.371-1.552-19.843,1.325C70.906,119.523,65.654,125.409,66.022,132.911z M79.757,158.772    c-1.261-1.091-2.528-2.176-3.781-3.275c-5.258-4.613-9.708-9.822-12.438-16.376c-2.209-5.304-2.101-10.54-0.006-15.825    c3.847-9.709,15.406-14.45,25.211-14c7.557,0.347,14.86,2.537,22.361,3.312c7.208,0.745,14.229,0.293,20.512-3.865    c4.516-2.988,8.168-6.902,11.621-11.029c4.115-4.919,7.824-10.178,12.528-14.604c6.385-6.008,13.614-9.917,22.659-9.208    c8.508,0.668,14.894,4.535,18.246,12.712c1.301,3.173,2.579,6.351,3.576,9.633c0.28,0.923,0.829,1.412,1.786,1.187    c0.987-0.232,0.66-1.019,0.594-1.681c-0.47-4.738-1.605-9.309-3.18-13.805c-6.131-17.511-20.904-23.047-35.916-20.492    c-9.433,1.605-17.216,6.336-24.004,12.872c-4.67,4.496-8.882,9.437-13.538,13.956c-6.749,6.55-14.547,10.48-24.097,10.922    c-5.05,0.234-10.095,0.093-15.135,0.303c-6.165,0.256-12.308,0.633-18.195,2.839c-10.488,3.93-17.315,13.403-17.071,24.6    c0.263,12.042,5.654,21.89,13.971,30.294c0.789,0.797,1.826,1.411,2.973,1.453C72.159,158.832,75.891,158.667,79.757,158.772z     M73.412,172.331c-8.221,0.21-16.283,1.468-23.798,4.919c-12.144,5.577-19.437,15.347-22.711,28.064    c-2.752,10.689-1.89,21.085,4.658,30.385c4.396,6.243,10.386,9.33,18.227,7.953c1.251-0.22,1.98-0.575,1.853-2.144    c-0.795-9.784,0.367-19.397,2.825-28.867c3.598-13.86,17.453-26.659,31.886-25.344c1.367,0.124,1.86-0.63,1.952-1.903    c0.193-2.669,0.401-5.34,0.726-7.995c0.154-1.26-0.393-1.763-1.443-2.214C83.058,173.242,78.396,172.046,73.412,172.331z     M150.358,247.047c-4.556-4.033-9.007-7.384-13.934-10.092c-8.078-4.44-16.293-4.837-24.755-1.104    c-5.04,2.223-9.613,5.228-14.236,8.155c-1.367,0.865-2.883,1.57-4.199,3.042C112.322,247.047,131.097,247.047,150.358,247.047z     M329.392,251.669c0.32,0.421,0.4,0.597,0.537,0.697c1.409,1.023,2.811,2.058,4.246,3.044c7.051,4.847,14.581,8.55,23.155,9.846    c9.32,1.409,16.519-2.836,18.625-11.076c0.618-2.417,0.548-2.523-1.991-2.523c-13.695-0.001-27.39,0.007-41.085,0.012    C331.826,251.669,330.773,251.669,329.392,251.669z M308.326,209.826c-0.015-2.81-1.48-4.929-3.295-6.88    c-0.463-0.497-1.058-0.632-1.708-0.543c-3.943,0.538-7.879,1.076-11.713,2.231c-1.428,0.43-2.246,1.214-2.608,2.59    c-1.073,4.086-0.224,7.676,2.941,10.536c3.034,2.742,6.559,3.111,10.265,1.596C305.775,217.899,308.336,213.798,308.326,209.826z"/>
		<path d="M249.552,232.184c-2.432-0.119-5.1-1.11-7.645-2.491c-2.144-1.163-4.067-2.657-6.024-4.097    c-0.755-0.555-1.426-1.215-1.763-2.132c-0.327-0.888-0.321-1.738,0.451-2.392c0.731-0.62,1.512-0.435,2.249,0.035    c2.259,1.44,4.514,2.887,6.769,4.335c1.791,1.15,3.618,2.243,5.776,2.517c2.439,0.309,3.554-0.903,3.056-3.299    c-0.54-2.595-1.944-4.699-3.877-6.465c-1.196-1.092-2.457-2.112-3.634-3.223c-2.303-2.172-1.919-4.172,0.949-5.475    c2.09-0.95,4.303-1.738,5.831-3.594c0.511-0.621,1.01-1.285,1.35-2.007c0.764-1.625,0.232-2.545-1.574-2.618    c-3.031-0.122-5.932,0.59-8.763,1.62c-0.935,0.34-1.864,0.71-2.818,0.986c-1.145,0.332-2.303,0.346-2.939-0.88    c-0.665-1.283-0.032-2.324,0.977-3.093c2.315-1.764,4.987-2.837,7.767-3.556c2.464-0.638,4.967-1.13,7.567-0.577    c4.802,1.02,6.738,5.315,4.214,9.531c-1.545,2.58-3.826,4.44-6.306,6.006c-1.344,0.849-1.259,1.326-0.153,2.251    c3.218,2.691,5.314,6.072,5.999,10.262C257.776,228.508,254.699,232.206,249.552,232.184z"/>
		<path d="M194.465,223.687c-7.633-0.023-13.685-6.045-13.67-13.603c0.015-7.665,5.867-13.517,13.489-13.492    c8.026,0.026,13.898,5.941,13.889,13.99C208.165,217.904,202.091,223.71,194.465,223.687z M205.075,209.973    c0.027-4.94-4.807-9.803-9.697-9.754c-5.399,0.054-10.007,4.544-10.048,9.79c-0.045,5.729,4.163,10.14,9.699,10.166    C200.472,220.2,205.045,215.555,205.075,209.973z"/>
		<path d="M292.311,175.305c-9.723-0.825-18.131,2.008-25.707,7.629c-0.349,0.259-0.71,0.513-1.097,0.704    c-0.824,0.408-1.696,0.583-2.442-0.106c-0.765-0.706-0.597-1.595-0.212-2.421c0.733-1.57,1.966-2.779,3.348-3.703    c7.847-5.249,16.324-7.841,25.824-5.791c0.182,0.039,0.365,0.081,0.544,0.132c1.17,0.328,2.492,0.689,2.251,2.228    C294.588,175.462,293.171,175.19,292.311,175.305z"/>
		<path d="M197.446,171.577c7.738-0.055,14.547,2.588,20.058,8.378c1.053,1.106,1.901,2.316,2.092,3.867    c0.107,0.867-0.172,1.615-1.011,2.024c-0.842,0.41-1.609,0.202-2.183-0.491c-5.404-6.531-12.677-9.114-20.809-9.925    c-0.861-0.086-1.718-0.289-2.556-0.514c-0.715-0.192-1.204-0.67-1.191-1.474c0.014-0.871,0.52-1.353,1.332-1.568    C194.52,171.521,195.889,171.54,197.446,171.577z"/>
		<path d="M224.279,176.075c0.004,0.952-0.18,1.606-0.956,1.852c-0.847,0.268-1.501-0.108-1.829-0.87    c-0.883-2.053-1.75-4.115-2.52-6.211c-0.214-0.582-0.395-1.439,0.405-1.816c0.664-0.313,1.232,0.204,1.606,0.666    C222.565,171.645,223.718,173.825,224.279,176.075z"/>
		<path d="M269.503,166.869c-0.168,0.269-0.365,0.654-0.628,0.989c-1.259,1.603-2.537,3.191-3.807,4.786    c-0.598,0.751-1.357,1.224-2.238,0.626c-0.892-0.606-0.745-1.568-0.213-2.311c1.338-1.867,2.944-3.501,4.807-4.856    c0.517-0.376,1.149-0.46,1.76-0.158C269.507,166.104,269.536,166.421,269.503,166.869z"/>
		<path d="M207.952,186.131c0.535,0.083,1.527,0.18,2.49,0.405c0.817,0.191,1.261,0.786,1.185,1.657    c-0.073,0.828-0.688,1.28-1.391,1.25c-2.102-0.089-4.2-0.302-6.297-0.495c-0.451-0.041-0.87-0.287-0.951-0.766    c-0.094-0.56,0.278-0.94,0.731-1.191C204.891,186.339,206.172,186.139,207.952,186.131z"/>
		<path d="M272.376,187.372c-0.902-0.022-1.9,0.139-2.854-0.243c-0.561-0.224-0.967-0.568-0.906-1.236    c0.052-0.567,0.428-0.921,0.937-1.023c2.217-0.442,4.427-0.274,6.616,0.214c0.349,0.078,0.692,0.358,0.675,0.789    c-0.022,0.565-0.44,0.878-0.905,1.07C274.822,187.402,273.628,187.305,272.376,187.372z"/>
	</g>
</g>
<g>
</g>
<g>
</g>
<g>
</g>
<g>
</g>
<g>
</g>
<g>
</g>
<g>
</g>
<g>
</g>
<g>
</g>
<g>
</g>
<g>
</g>
<g>
</g>
<g>
</g>
<g>
</g>
<g>
</g>
</svg>
