<?xml version="1.0" encoding="UTF-8"?>
<!-- Generator: Adobe Illustrator 27.3.1, SVG Export Plug-In . SVG Version: 6.00 Build 0)  -->
<svg xmlns="http://www.w3.org/2000/svg" xmlns:xlink="http://www.w3.org/1999/xlink" version="1.1" id="Capa_1" x="0px" y="0px" viewBox="0 0 512 512" style="enable-background:new 0 0 512 512;" xml:space="preserve" width="512" height="512">
<g>
	<path style="fill:#FFFFFF;" d="M252.073,508.222c-57.828-0.003-114.406-22.033-160.038-62.168H82.64   c-27.812,0-50.468-22.503-50.716-50.259c-0.414-8.398-0.742-17.225-0.175-26.031c-12.2-22.693-21.013-46.291-26.225-70.228   c-0.245-1.021-0.464-2.017-0.681-3.041c-8.562-41.679-5.733-81.854,8.16-116.279l0.493-1.187c0.585-1.413,1.174-2.819,1.816-4.207   l0.216-0.484c0.389-0.871,0.784-1.739,1.222-2.608c25.373-54.209,78.984-94.792,147.131-111.361   c3.422-0.829,6.871-1.603,10.327-2.376c13.805-3.09,26.845-6.008,36.794-12.543c4.671-3.048,9.129-7.203,13.848-11.6   c5.124-4.774,10.421-9.711,16.791-14.094c15.253-10.587,33.73-15.976,54.863-15.976c27.418,0,52.371,9.068,68.478,16.675   c40.451,19.134,75.835,50.38,102.336,90.366c0.629,0.912,1.377,2.051,2.126,3.222c20.123,31.324,33.778,66.543,39.47,101.817   l0.145,0.911c0.122,0.751,0.241,1.505,0.34,2.281c0.967,6.433,1.67,13.043,2.091,19.644c1.403,21.51-0.082,43.262-4.416,64.625   c-0.809,4.097-1.823,8.549-3.082,13.522c-1.735,6.587-3.503,12.459-5.444,18.108c-6.549,19.264-15.831,37.907-27.573,55.366   c-0.409,0.614-0.856,1.26-1.302,1.904l-0.799,1.145c-0.662,0.949-1.329,1.904-2.012,2.829   c-40.32,56.227-104.017,95.755-174.78,108.454c-13.154,2.372-26.617,3.574-39.997,3.574   C252.079,508.222,252.077,508.222,252.073,508.222z"/>
	<g>
		<g>
			<g>
				<path style="fill:#977BFF;" d="M490.133,298.957c-0.845,4.283-1.831,8.51-2.902,12.736c-1.493,5.664-3.156,11.271-5.044,16.765      c-6.256,18.4-14.962,35.587-25.613,51.423c-0.451,0.676-0.902,1.324-1.353,1.972c-0.789,1.127-1.578,2.282-2.395,3.381H61.11      c-0.254-0.338-0.479-0.676-0.704-1.014c-18.287-27.022-31.925-57.904-38.772-89.462c-0.226-0.93-0.423-1.831-0.62-2.761      c-7.467-36.348-6.03-73.429,7.298-106.453c0.648-1.55,1.268-3.099,1.972-4.621c0.423-0.93,0.817-1.86,1.296-2.79      c24.88-53.395,78.445-88.363,135.926-102.339c18.005-4.367,37.052-7.129,52.409-17.216      c11.271-7.354,19.836-18.259,30.938-25.895c29.671-20.597,71.936-14.286,106.537,2.057      C395.994,53,428.933,83.065,452.855,119.16c0.676,0.986,1.325,1.972,1.973,2.987c18.681,29.079,31.615,61.877,37.025,95.407      c0.141,0.93,0.31,1.831,0.423,2.789c0.93,6.143,1.578,12.257,1.972,18.428C495.571,259.087,494.106,279.374,490.133,298.957z"/>
			</g>
			<g>
				<path style="fill:#302945;" d="M452.827,385.236c-38.264,53.424-99.268,90.138-164.103,101.775      C201.91,502.649,113.632,461.877,61.11,385.236H452.827z"/>
			</g>
		</g>
		<g>
			<g>
				<g>
					<path style="fill:#F7EDE5;" d="M192.33,387.856H84.44L100.163,179.6l0.169-2.17l1.014-13.187       c0.423,0.817,8.743,9.367,29.228,11.565c21.133,2.254,48.118-11.593,48.118-11.593L192.33,387.856z"/>
				</g>
				<g>
					<g>
						<path style="fill:#302945;" d="M101.332,164.222c0,0,7.151,13.652,28.28,15.928c21.129,2.276,49.083-15.928,49.083-15.928        H101.332z"/>
					</g>
					<g>
						<path style="fill:#302945;" d="M101.347,164.215v0.028c-0.028-0.028-0.028-0.028-0.028-0.028H101.347z"/>
					</g>
					<g>
						<g>
							<path style="fill:#302945;" d="M147.959,206.159c0.127,1.375,0,2.801-0.458,4.125c-0.535,1.578-1.68,3.005-3.234,3.743         c-1.502,0.815-3.514,0.789-4.991-0.229c-1.477-0.993-2.393-2.521-3.005-4.1c-2.317-6.544-0.127-13.342-0.585-19.657         c-0.178-1.528-0.306-3.285-0.968-4.405c-0.357-0.56-0.713-0.738-1.12-0.637c-0.458,0.127-1.019,0.637-1.375,1.197         c-0.738,1.171-0.942,2.775-1.298,4.43c-0.382,1.706-1.171,3.489-2.877,4.634c-0.866,0.56-2.114,0.738-3.132,0.331         c-1.044-0.407-1.757-1.273-2.19-2.113c-0.891-1.757-0.713-3.666-0.84-5.169c-0.051-0.764-0.178-1.477-0.458-2.063         c-0.229-0.509-0.713-0.993-1.248-1.222c-1.146-0.484-1.783,0.077-1.884,1.604c-0.153,3.081,0.382,6.34,0.738,9.599         c0.204,1.655,0.331,3.336,0.306,5.016c-0.025,1.681-0.127,3.463-0.866,5.169c-0.382,0.815-0.866,1.655-1.629,2.292         c-0.739,0.688-1.808,1.07-2.852,1.044c-2.114-0.153-3.565-1.528-4.634-2.928c-2.139-2.954-2.495-6.544-2.495-9.854         c-0.026-3.31,0.484-6.697,1.273-9.854c0.153-0.764,0.229-1.528,0.076-2.19c-0.178-0.636-0.611-1.273-1.146-1.502         c-0.509-0.305-1.222,0.026-2.215,0c-0.942-0.025-1.834-0.382-2.546-0.917c-1.019-0.713-1.706-1.783-2.139-2.903l0.178-2.164         c0.025,0.178,0.051,0.331,0.102,0.51c0.356,1.528,1.12,2.979,2.394,3.794c0.611,0.433,1.324,0.688,2.037,0.688         c0.586,0.051,1.579-0.458,2.623,0c0.968,0.433,1.528,1.299,1.808,2.215c0.255,0.942,0.153,1.859,0.025,2.699         c-0.738,3.208-1.095,6.391-1.018,9.625c0.102,3.157,0.586,6.442,2.368,8.886c0.891,1.171,2.139,2.164,3.386,2.19         c1.222,0.077,2.241-0.968,2.801-2.317c0.586-1.35,0.688-2.903,0.713-4.482c0-1.578-0.153-3.183-0.356-4.787         c-0.382-3.234-0.968-6.493-0.84-9.981c0.076-0.866,0.28-2.037,1.248-2.852c0.993-0.866,2.419-0.739,3.31-0.305         c0.942,0.458,1.731,1.171,2.164,2.164c0.407,0.917,0.535,1.833,0.611,2.699c0.102,1.757-0.025,3.259,0.611,4.507         c0.56,1.248,1.757,1.757,2.801,1.069c1.07-0.662,1.834-2.062,2.139-3.514c0.382-1.528,0.56-3.285,1.553-4.94         c0.535-0.789,1.222-1.527,2.343-1.884c0.56-0.153,1.273-0.076,1.783,0.229c0.56,0.305,0.891,0.738,1.146,1.171         c0.51,0.866,0.688,1.782,0.79,2.597c0.153,0.84,0.204,1.706,0.255,2.546c0.28,6.697-2.012,13.241,0.025,19.428         c0.484,1.477,1.298,2.903,2.521,3.819c1.222,0.917,2.928,1.019,4.38,0.356c1.426-0.611,2.572-1.884,3.158-3.387         C147.755,208.91,147.959,207.534,147.959,206.159z"/>
						</g>
						<g>
							<path style="fill:#302945;" d="M153.529,187.201c-0.165-1.609,0.495-3.42,2.021-4.353c0.766-0.444,1.777-0.531,2.623-0.159         c0.851,0.359,1.508,1.04,1.957,1.808c0.906,1.615,0.787,3.448,0.724,5.05c-0.087,1.612-0.054,3.198,0.114,4.783         c0.192,1.561,0.409,3.212,0.915,4.547c0.471,1.329,1.675,2.277,2.793,2.16c1.014-0.085,2.02-1.502,2.574-2.8         c0.573-1.353,0.782-2.882,0.776-4.414c0.12-3.028-1.174-6.308-0.312-9.925c0.281-0.812,0.413-1.866,1.675-2.594         c0.557-0.309,1.412-0.256,1.911,0.036c0.521,0.269,0.858,0.603,1.172,0.908c0.604,0.614,1.116,1.202,1.627,1.492         c0.442,0.285,1.027,0.26,1.604-0.029c1.188-0.557,1.682-2.045,1.86-3.598c0.185-1.588,0.307-3.218,0.402-4.832         c0.243-3.237,0.242-6.489,0.18-9.753c0.493,3.23,0.683,6.501,0.756,9.778c0.006,1.643-0.038,3.269-0.137,4.927         c-0.063,0.837-0.178,1.714-0.518,2.577c-0.322,0.855-0.971,1.707-1.836,2.189c-0.826,0.507-2.07,0.699-3.066,0.152         c-0.925-0.505-1.472-1.207-2.027-1.724c-0.269-0.261-0.542-0.486-0.75-0.583c-0.22-0.09-0.264-0.089-0.44-0.013         c-0.245,0.066-0.569,0.797-0.727,1.494c-0.693,2.854,0.542,6.036,0.535,9.508c-0.026,1.716-0.284,3.483-1.012,5.128         c-0.363,0.822-0.843,1.592-1.439,2.293c-0.594,0.686-1.482,1.403-2.627,1.51c-2.257,0.171-3.921-1.593-4.507-3.281         c-0.631-1.73-0.722-3.369-0.839-5.038c-0.088-1.664-0.03-3.346,0.146-4.982c0.164-1.599,0.298-3.204-0.348-4.529         c-0.565-1.348-2.109-2.338-3.524-1.639C154.43,183.968,153.557,185.589,153.529,187.201z"/>
						</g>
					</g>
				</g>
				<g>
					<g>
						<path style="fill:#FFA352;" d="M138.942,164.911c-4.887-2.201-7.615-7.484-9.103-12.633        c-3.901-13.493-1.281-29.171,8.348-39.396c3.871,5.664,7.909,11.143,9.895,17.709        C151.562,142.1,147.385,156.351,138.942,164.911z"/>
					</g>
					<g>
						<path style="fill:#F7EDE5;" d="M138.857,164.929c-3.14-1.414-4.892-4.808-5.849-8.117c-2.506-8.669-0.823-18.743,5.364-25.312        c2.487,3.639,5.082,7.159,6.358,11.378C146.966,150.273,144.283,159.429,138.857,164.929z"/>
					</g>
					<g>
						<rect x="137.751" y="146.019" style="fill:#302945;" width="1.274" height="26.873"/>
					</g>
				</g>
			</g>
			<g>
				<g>
					<g>
						<path style="fill:#FFA352;" d="M396.561,96.353l-14.105,77.351h-98.328l-14.082-69.739c0,0,17.249,8.004,51.167,6.482        C355.13,108.924,396.561,96.353,396.561,96.353z"/>
					</g>
					<g>
						<path style="fill:#302945;" d="M270.035,103.965c0,0,17.148,12.957,51.064,11.432c33.916-1.524,75.453-19.054,75.453-19.054        L270.035,103.965z"/>
					</g>
				</g>
				<g>
					<g>
						<g>
							<path style="fill:#F7EDE5;" d="M299.041,388.203c-36.786,0-77.196-1.556-83.412-8.138         c-10.959-11.603,1.828-164.865,4.559-183.071c3.23-21.538,35.692-29.542,43.989-31.243v-20.44         c0-1.238,1.003-2.239,2.239-2.239h133.356c1.236,0,2.239,1.001,2.239,2.239v20.44c8.297,1.701,40.758,9.705,43.989,31.243         l0,0c2.731,18.206,15.517,171.468,4.559,183.071c-8.274,8.763-77.178,8.612-117.512,7.751         C323.031,388.03,311.231,388.203,299.041,388.203z M268.654,147.551v20.053c0,1.091-0.788,2.025-1.865,2.208         c-0.39,0.065-39.026,6.856-42.174,27.847c-4.23,28.201-13.958,170.621-5.73,179.332c4.949,5.238,49.76,7.731,114.162,6.347         c64.503,1.386,109.308-1.106,114.257-6.347c8.227-8.711-1.501-151.13-5.73-179.332l0,0         c-3.149-20.991-41.784-27.782-42.174-27.847c-1.077-0.184-1.865-1.117-1.865-2.208v-20.053H268.654z"/>
						</g>
					</g>
					<g>
						<g>
							<path style="fill:#F7EDE5;" d="M414.082,146.068H256.317c-1.154,0-2.09-0.936-2.09-2.09v-15.626         c0-1.154,0.936-2.09,2.09-2.09h157.765c1.155,0,2.09,0.936,2.09,2.09v15.626         C416.172,145.133,415.236,146.068,414.082,146.068z M258.407,141.888h153.585v-11.445H258.407V141.888z"/>
						</g>
					</g>
				</g>
				<g>
					<g>
						<g>
							<path style="fill:#FFFFFF;" d="M397.68,235.517c0.198,4.367-0.691,8.61-2.961,12.434c-0.345,0.592-0.715,1.135-1.11,1.653         c-0.271,0.37-0.567,0.715-0.839,1.036c-6.439,7.302-18.281,8.931-31.012,11.768h-0.025c-0.444,0.099-0.888,0.198-1.332,0.296         c-2.492,0.567-5.033,1.184-7.549,1.924c-1.036,0.296-2.27,0.715-3.651,1.184c0.74,2.196,1.604,4.441,2.689,6.686         c6.932,14.507,33.38,42.854,33.38,42.854l-36.217,36.834c0,0-13.544-9.745-24.252-29.606         c-10.707-19.835-8.487-32.442-8.808-44.408c-0.025-0.493-0.049-0.987-0.049-1.48c-3.849,0.987-7.796,1.85-11.817,2.541         c-0.444,0.099-0.913,0.173-1.357,0.247c-11.176,1.85-22.698,2.245-33.134-0.419c-3.651-0.938-6.932-2.541-9.77-4.589         c-0.345-0.247-0.666-0.518-0.987-0.765c-4.638-3.701-7.969-8.733-9.696-14.309c0-4.959,4.638-16.464,7.426-19.647         c31.701-36.86,89.905-48.448,131.201-21.02C391.266,220.952,395.141,231.749,397.68,235.517z"/>
						</g>
						<g>
							<path style="fill:#DB4B3D;" d="M397.68,235.517c-17.886-15.247-41.768-23.339-65.329-22.549         c-27.138,0.913-53.512,13.248-72.459,32.714c-4.046,4.145-7.796,8.734-10.707,13.717c-2.196-7.105-1.752-15.074,1.924-22.327         c6.538-12.928,19.046-28.298,42.829-39.203c48.824-22.352,80.329,1.258,91.037,11.966         C392.179,217.038,397.261,226.536,397.68,235.517z"/>
						</g>
						<g>
							<g>
								<g>
									<path style="fill:#302945;" d="M363.067,216.964c-9.622,6.118-17.738,14.383-23.709,24.178           c-0.099,0.197-0.321,0.296-0.518,0.296c-0.123,0-0.222-0.024-0.321-0.099c-0.296-0.173-0.395-0.543-0.197-0.839           c5.872-9.646,13.791-17.837,23.191-24.005h0.025C362.055,216.643,362.573,216.791,363.067,216.964z"/>
								</g>
							</g>
							<g>
								<g>
									<path style="fill:#302945;" d="M387.812,228.214c-6.834,0.592-13.915,1.505-20.675,3.281           c-9.227,2.442-16.924,6.291-22.87,11.423c-0.099,0.099-0.247,0.148-0.395,0.148c-0.173,0-0.345-0.049-0.469-0.197           c-0.222-0.271-0.198-0.642,0.074-0.864c6.069-5.279,13.939-9.202,23.339-11.694c6.291-1.678,12.829-2.591,19.219-3.183           C386.628,227.474,387.245,227.844,387.812,228.214z"/>
								</g>
							</g>
							<g>
								<g>
									<path style="fill:#302945;" d="M393.61,249.604c-0.271,0.37-0.567,0.715-0.839,1.036           c-15.395-5.748-32.023-7.253-48.232-4.417c-0.345,0.074-0.666-0.148-0.716-0.493c-0.074-0.346,0.148-0.666,0.493-0.716           C360.896,242.104,377.894,243.683,393.61,249.604z"/>
								</g>
							</g>
							<g>
								<g>
									<path style="fill:#302945;" d="M361.734,262.408c-0.444,0.099-0.888,0.198-1.332,0.296           c-4.219-5.132-9.646-9.252-15.74-11.842c-0.321-0.123-0.469-0.493-0.345-0.814c0.148-0.321,0.494-0.444,0.814-0.321           C351.595,252.466,357.368,256.907,361.734,262.408z"/>
								</g>
							</g>
							<g>
								<g>
									<path style="fill:#302945;" d="M336.052,212.943c-2.911,8.783-4.367,18.133-4.318,27.336c0,0.345-0.271,0.617-0.617,0.617           c-0.345,0-0.617-0.271-0.617-0.617c-0.049-9.202,1.406-18.553,4.243-27.361           C335.188,212.918,335.608,212.918,336.052,212.943z"/>
								</g>
							</g>
							<g>
								<g>
									<path style="fill:#302945;" d="M322.853,242.844c0.074,0.321-0.123,0.666-0.444,0.74c-0.049,0.025-0.099,0.025-0.148,0.025           c-0.296,0-0.543-0.173-0.617-0.469c-2.393-9.498-6.587-18.651-12.261-26.669c0.419-0.124,0.838-0.222,1.258-0.346           C316.266,224.193,320.46,233.321,322.853,242.844z"/>
								</g>
							</g>
							<g>
								<g>
									<path style="fill:#302945;" d="M317.499,247.31c-0.123,0.123-0.296,0.198-0.444,0.198c-0.148,0-0.321-0.05-0.419-0.173           c-10.041-9.548-23.018-15.814-36.686-17.887c0.518-0.321,1.036-0.666,1.579-0.962c4.811,0.814,9.548,2.171,14.063,3.972           c8.092,3.232,15.568,7.969,21.883,13.988C317.721,246.668,317.746,247.063,317.499,247.31z"/>
								</g>
							</g>
							<g>
								<g>
									<path style="fill:#302945;" d="M313.996,252.071c-0.099,0.321-0.42,0.518-0.765,0.42           c-15.148-4.293-30.815-5.872-46.505-4.638c-3.035,0.222-6.538,0.592-10.115,1.382c0.444-0.493,0.888-1.012,1.357-1.505           c3.059-0.617,6.044-0.913,8.66-1.11c15.863-1.234,31.653,0.345,46.949,4.687           C313.897,251.405,314.094,251.726,313.996,252.071z"/>
								</g>
							</g>
							<g>
								<g>
									<path style="fill:#302945;" d="M312.516,254.44c-0.247,0.444-0.469,0.864-0.641,1.258           c-18.775,0.419-37.254,7.179-52.007,18.775c-0.345-0.247-0.666-0.518-0.987-0.765           C274.053,261.668,293.149,254.736,312.516,254.44z"/>
								</g>
							</g>
							<g>
								<g>
									<path style="fill:#302945;" d="M315.846,253.995c0,0.617,0,1.283-0.025,1.999c-5.255,6.908-9.252,14.877-11.694,23.24           c-0.444,0.099-0.913,0.173-1.357,0.247c2.615-9.227,7.056-17.961,12.977-25.411           C315.772,254.045,315.797,253.995,315.846,253.995z"/>
								</g>
							</g>
							<g>
								<path style="fill:#302945;" d="M349.892,245.311c-2.922-0.993-5.904-1.646-8.881-2.077c-2.972-0.444-5.971-0.56-8.901-0.285          c-2.923,0.275-5.828,0.896-8.45,2.097c-2.631,1.21-5.014,2.959-7.084,5.079l0.223-0.595l-0.001,0.024l-0.019,0.385          l-0.207,0.214c-1.19,1.227-2.281,2.575-3.278,4.018c-0.493,0.73-0.997,1.438-1.383,2.23          c-0.394,0.784-0.828,1.562-1.272,2.356c0.221-0.855,0.451-1.724,0.722-2.589c0.238-0.873,0.624-1.715,0.982-2.542          c0.769-1.64,1.712-3.228,2.873-4.669l-0.226,0.597l-0.001-0.024l-0.014-0.293l0.238-0.302          c1.965-2.498,4.5-4.624,7.417-6.049c2.922-1.46,6.144-2.07,9.313-2.292c3.188-0.145,6.368,0.204,9.398,1.026          C344.365,242.45,347.286,243.636,349.892,245.311z"/>
							</g>
							<g>
								<path style="fill:#302945;" d="M349.053,352.803c-0.153,0-0.303-0.058-0.42-0.165c-0.827-0.765-20.309-18.896-25.75-30.838          c-4.9-10.751-7.826-24.817-7.826-37.632c0-6.444,0.066-16.207,0.117-23.725l0.03-4.452c0.025-0.726,0.025-1.384,0.025-1.995          l0.05-4.441c0-0.341,0.275-0.63,0.616-0.63s0.616,0.264,0.616,0.605l-0.05,4.471c0,0.616,0,1.291-0.025,2.014l-0.029,4.436          c-0.052,7.515-0.118,17.275-0.118,23.717c0,12.647,2.885,26.523,7.716,37.12c4.703,10.321,20.723,25.937,24.612,29.641          c0.707-4.265,3.72-18.755,12.885-25.899c8.639-6.747,19.231-9.562,22.77-10.354c-10.126-9.348-27.958-33.628-34.275-44.684          c-6.718-11.783-6.376-26.012-6.372-26.154c0.01-0.339,0.224-0.638,0.634-0.597c0.341,0.011,0.608,0.294,0.598,0.636          c-0.004,0.138-0.333,14.031,6.209,25.505c6.473,11.326,25.084,36.603,34.93,45.185c0.179,0.157,0.252,0.402,0.189,0.63          c-0.065,0.231-0.254,0.401-0.488,0.443c-0.131,0.022-13.2,2.369-23.436,10.365c-10.184,7.936-12.575,26.078-12.597,26.259          c-0.029,0.229-0.184,0.424-0.402,0.504C349.195,352.792,349.124,352.803,349.053,352.803z"/>
							</g>
							<g>
								<g>
									<path style="fill:#302945;" d="M318.114,246.108c0.394,8.331,0.688,16.633,1.393,24.916           c0.562,8.294,1.536,16.544,2.41,24.838c-1.888-8.131-2.931-16.431-3.638-24.745           C317.715,262.793,317.488,254.431,318.114,246.108z"/>
								</g>
								<g>
									<path style="fill:#302945;" d="M323.422,244.005l2.152,23.007l2.3,22.993c-1.707-7.535-2.712-15.2-3.526-22.874           C323.676,259.442,323.195,251.727,323.422,244.005z"/>
								</g>
								<g>
									<path style="fill:#302945;" d="M329.778,242.119c0.681,7.628,1.224,15.232,2.142,22.807           c0.775,7.591,1.923,15.128,2.935,22.719c-2.021-7.394-3.24-14.978-4.16-22.582           C329.919,257.443,329.44,249.777,329.778,242.119z"/>
								</g>
								<g>
									<path style="fill:#302945;" d="M336.153,241.507c1.145,6.909,1.959,13.837,2.954,20.745           c0.852,6.928,1.886,13.826,2.588,20.794c-1.714-6.794-2.813-13.709-3.809-20.631           C337.034,255.473,336.284,248.512,336.153,241.507z"/>
								</g>
								<g>
									<path style="fill:#302945;" d="M340.518,241.688c0.891,6.48,1.759,12.919,3.11,19.282c1.21,6.39,2.895,12.665,4.569,18.989           c-2.647-5.994-4.419-12.338-5.777-18.746C341.202,254.776,340.392,248.239,340.518,241.688z"/>
								</g>
							</g>
							<g>
								<g>
									<path style="fill:#F7EDE5;" d="M292.12,206.783c-0.283,0.058-0.56-0.099-0.813-0.237c-2.326-1.266-5.275-1.31-7.637-0.113           c-2.362,1.197-4.072,3.6-4.427,6.224C284.147,211.816,288.659,210.359,292.12,206.783z"/>
								</g>
								<g>
									<path style="fill:#F7EDE5;" d="M322.151,191.822c-2.352-2.004-5.608-2.901-8.655-2.384           c-3.046,0.517-5.824,2.439-7.383,5.107C311.051,194.838,317.446,193.349,322.151,191.822z"/>
								</g>
								<g>
									<path style="fill:#F7EDE5;" d="M349.281,202.164c-1.929-2.011-4.672-3.219-7.458-3.284           c-2.786-0.065-5.582,1.014-7.603,2.933c1.985,1.364,4.398,1.913,6.766,1.474c1.005-0.186,1.972-0.538,2.973-0.747           C345.39,202.243,347.851,201.862,349.281,202.164z"/>
								</g>
								<g>
									<path style="fill:#F7EDE5;" d="M360.602,194.406c-1.076-2.838-3.615-5.076-6.566-5.785c-2.951-0.71-6.23,0.128-8.478,2.166           c1.169,2.38,4.063,3.481,6.709,3.659C354.912,194.624,357.967,194.105,360.602,194.406z"/>
								</g>
							</g>
						</g>
					</g>
					<g>
						<path style="fill:#302945;" d="M436.595,302.85c-2.551-4.21-4.366-9.183-5.208-14.033c-0.841-4.851-2.253-9.957-5.977-13.177        c-2.732-2.362-6.555-3.408-10.109-2.764c-5.763,1.043-9.95,6.011-13.002,11.01c-3.052,4.999-5.331,11.058-9.955,14.653        c6.621,1.648,13.362,3.292,20.129,4.322c-2.608,13.385-7.772,26.14-15.123,37.288l6.661,3.901        c6.65-12.758,10.636-26.684,11.904-40.724C422.833,304.144,429.76,304.215,436.595,302.85z"/>
					</g>
					<g>
						<path style="fill:#302945;" d="M236.104,297.515c2.551-4.211,4.366-9.183,5.207-14.033c0.841-4.851,2.253-9.957,5.977-13.177        c2.732-2.362,6.555-3.407,10.109-2.764c5.763,1.043,9.951,6.011,13.002,11.01c3.052,4.999,5.33,11.058,9.955,14.653        c-6.621,1.647-13.362,3.292-20.129,4.322c2.608,13.385,7.772,26.14,15.123,37.288l-6.661,3.901        c-6.65-12.758-10.636-26.684-11.904-40.725C249.866,298.809,242.939,298.88,236.104,297.515z"/>
					</g>
				</g>
				<g>
					<path style="fill:#F7EDE5;" d="M245.283,365.266c14.698,1.626,29.404,3.027,44.136,3.998c14.732,0.952,29.48,1.63,44.239,1.734       c14.757,0.252,29.521,0.074,44.229-0.924c14.706-0.983,29.353-3.041,43.711-6.593c-14.115,4.453-28.82,6.963-43.572,8.309       c-14.768,1.361-29.598,1.522-44.396,1.444c-14.801-0.291-29.6-0.937-44.343-2.26       C274.546,369.642,259.853,367.807,245.283,365.266z"/>
				</g>
				<g>
					<g>
						<path style="fill:#F7EDE5;" d="M415.243,195.388c-2.145,0.537-3.982,1.945-5.464,3.586c-5.381,5.962-6.38,14.668-5.992,22.69        c0.306,6.314,1.436,12.898,5.32,17.885c1.664,2.136,3.966,3.981,6.66,4.249c2.449,0.243,4.867-0.862,6.784-2.405        c4.4-3.541,6.581-9.271,7.035-14.901c0.454-5.63-0.621-11.258-1.691-16.803C426.765,203.83,423.276,193.374,415.243,195.388z"/>
					</g>
					<g>
						<circle style="fill:#F7EDE5;" cx="419.226" cy="266.112" r="9.717"/>
					</g>
				</g>
			</g>
			<g>
				<path style="fill:#F7EDE5;" d="M349.896,402.254h-11.722C345.134,401.832,349.896,402.254,349.896,402.254z"/>
			</g>
			<g>
				<g>
					<path style="fill:#F7EDE5;" d="M361.392,421.894c0.028,3.945,0.028,6.255,0.028,6.255c-30.32,0.11-80.512-16.542-79.016-51.818       c-1.336-36.248,49.582-49.127,79.016-46.745C360.992,358.713,361.398,392.607,361.392,421.894z"/>
				</g>
				<g>
					<g>
						<g>
							<path style="fill:#302945;" d="M361.279,428.149h-77.528l-3.282-1.484l-0.764,1.484H95.939l-3.507-1.394l-0.584,1.394h-9.576         c-18.653,0-33.812-15.159-33.812-33.812c-1.32-26.58-2.453-64.159,33.815-64.75c0,0,3.724,0,10.293,0         c0.689,0,0.464,1.262,1.214,1.262c0.539,0,2.038-1.262,2.608-1.262c33.832,0,121.388-0.001,184.08-0.001         c0.647,0-0.192,1.892,0.45,1.892c0.602,0,2.685-1.892,3.282-1.892c37.686,0,65.499,0,65.499,0         c-18.485,1.074-39.695,7.469-48.605,25.162h-0.028c-4.609,9.011-5.512,19.583-4.227,29.53h0.029         C300.009,414.887,334.571,428.064,361.279,428.149z"/>
						</g>
					</g>
					<g style="opacity:0.34;">
						<g>
							<path style="fill:#977BFF;" d="M361.279,428.149h-77.528l-3.282-1.484l-0.764,1.484H95.939l-3.507-1.394l-0.584,1.394h-9.576         c-18.653,0-33.812-15.159-33.812-33.812c-1.32-26.58-2.453-64.159,33.815-64.75c0,0,3.724,0,10.293,0         c0.689,0,0.464,1.262,1.214,1.262c0.539,0,2.038-1.262,2.608-1.262c33.832,0,121.388-0.001,184.08-0.001         c0.647,0-0.192,1.892,0.45,1.892c0.602,0,2.685-1.892,3.282-1.892c37.686,0,65.499,0,65.499,0         c-18.485,1.074-39.695,7.469-48.605,25.162h-0.028c-4.609,9.011-5.512,19.583-4.227,29.53h0.029         C300.009,414.887,334.571,428.064,361.279,428.149z"/>
						</g>
					</g>
					<g>
						<g>
							<path style="fill:#DBB0FF;" d="M283.68,428.149h-3.973c-1.888-2-3.55-4.029-4.987-6.114         c-4.931-7.185-8.115-16.202-9.806-27.613c-0.508-3.438-0.846-6.819-0.986-10.144c-0.564-10.566,0.564-20.597,3.381-29.924         c2.79-9.242,7.354-17.723,13.187-24.768h3.719c-6.34,7.044-11.271,15.864-14.201,25.585         c-2.733,9.045-3.832,18.794-3.269,29.107c0.169,3.184,0.479,6.453,0.958,9.749c1.606,10.961,4.677,19.611,9.327,26.402         C278.862,423.105,281.032,425.641,283.68,428.149z"/>
						</g>
					</g>
					<g>
						<g>
							<path style="fill:#DBB0FF;" d="M89.231,420.429c1.803,2.677,4.029,5.241,6.65,7.72h-4.001c-1.888-2-3.551-4.029-4.988-6.114         c-4.903-7.185-8.115-16.202-9.805-27.613c-0.507-3.438-0.845-6.819-0.986-10.144c-0.563-10.566,0.592-20.597,3.409-29.924         c2.762-9.242,7.326-17.723,13.159-24.768h3.719c-6.34,7.044-11.271,15.864-14.201,25.585         c-2.733,9.045-3.832,18.794-3.269,29.107c0.169,3.184,0.479,6.453,0.958,9.749C81.482,404.988,84.553,413.638,89.231,420.429         z"/>
						</g>
					</g>
					<g>
						<g>
							<g>
								
									<ellipse transform="matrix(0.7071 -0.7071 0.7071 0.7071 -215.4486 230.4044)" style="fill:#DBB0FF;" cx="170.398" cy="375.272" rx="23.741" ry="23.741"/>
							</g>
						</g>
						<g>
							<g>
								<path style="fill:#DBB0FF;" d="M139.823,375.268c0,13.103-10.623,23.753-23.753,23.753c-2.705,0-5.297-0.451-7.721-1.296          c9.327-3.212,16.005-12.06,16.005-22.457s-6.678-19.217-16.005-22.429c2.423-0.846,5.016-1.297,7.721-1.297          C129.2,351.543,139.823,362.167,139.823,375.268z"/>
							</g>
						</g>
						<g>
							<g>
								<path style="fill:#DBB0FF;" d="M203.671,375.268c0,13.103,10.622,23.753,23.753,23.753c2.705,0,5.297-0.451,7.72-1.296          c-9.327-3.212-16.004-12.06-16.004-22.457s6.678-19.217,16.004-22.429c-2.423-0.846-5.016-1.297-7.72-1.297          C214.294,351.543,203.671,362.167,203.671,375.268z"/>
							</g>
						</g>
					</g>
					<g>
						<g>
							<g>
								<g>
									<path style="fill:#302945;" d="M361.266,336.553v1.409h-43.505c0.874-0.507,1.775-0.958,2.677-1.409H361.266z"/>
								</g>
							</g>
							<g>
								<g>
									<path style="fill:#302945;" d="M361.266,344.95c-0.028,0.479-0.028,0.958-0.028,1.409h-54.297           c0.423-0.507,0.874-0.958,1.353-1.409H361.266z"/>
								</g>
							</g>
							<g>
								<g>
									<path style="fill:#302945;" d="M361.238,353.347v1.409h-60.186c0.225-0.479,0.507-0.958,0.76-1.409H361.238z"/>
								</g>
							</g>
							<g>
								<g>
									<path style="fill:#302945;" d="M361.238,361.743v1.409h-63.37c0.141-0.479,0.253-0.958,0.394-1.409H361.238z"/>
								</g>
							</g>
							<g>
								<g>
									<path style="fill:#302945;" d="M361.266,371.549h-64.779c0.028-0.479,0.085-0.958,0.141-1.409h64.61           C361.238,370.62,361.238,371.07,361.266,371.549z"/>
								</g>
							</g>
							<g>
								<g>
									<path style="fill:#302945;" d="M361.266,378.509v1.409h-64.863c-0.028-0.451-0.057-0.93-0.057-1.409H361.266z"/>
								</g>
							</g>
							<g>
								<g>
									<path style="fill:#302945;" d="M361.279,386.898c0.029,0.479,0.029,0.929,0,1.409h-63.708           c-0.113-0.451-0.197-0.93-0.282-1.409H361.279z"/>
								</g>
							</g>
							<g>
								<g>
									<path style="fill:#302945;" d="M361.308,395.295v1.409h-60.975c-0.197-0.451-0.422-0.93-0.591-1.409H361.308z"/>
								</g>
							</g>
							<g>
								<g>
									<path style="fill:#302945;" d="M361.336,403.691v1.409h-56.044c-0.338-0.451-0.676-0.93-1.014-1.409H361.336z"/>
								</g>
							</g>
							<g>
								<g>
									<path style="fill:#302945;" d="M361.364,412.088v1.409h-47.676c-0.592-0.451-1.184-0.93-1.747-1.409H361.364z"/>
								</g>
							</g>
							<g>
								<g>
									<path style="fill:#302945;" d="M361.392,420.485v1.409h-32.601c-1.127-0.423-2.254-0.902-3.353-1.409H361.392z"/>
								</g>
							</g>
						</g>
					</g>
				</g>
				<g style="opacity:0.4;">
					<path style="fill:#302945;" d="M361.421,428.149c0,0-0.056,0-0.141,0H82.271c-18.653,0-33.812-15.159-33.812-33.812v-10.059       h312.821v2.621c0.029,0.479,0.029,0.929,0,1.409c0.029,2.367,0.029,4.706,0.029,6.988v1.409       c0.028,2.395,0.028,4.734,0.028,6.988v1.409c0.028,2.48,0.028,4.818,0.028,6.988v1.409c0,2.62,0.028,4.959,0.028,6.988v1.409       C361.421,425.839,361.421,428.149,361.421,428.149z"/>
				</g>
			</g>
			<g>
				<g>
					<polygon style="fill:#FFFFFF;" points="62.513,208.864 65.186,165.211 67.264,209.161 78.252,200.252 71.719,210.646        95.179,213.615 72.313,216.585 78.846,225.791 67.858,219.852 64.889,257.862 62.513,220.446 51.229,225.197 58.355,216.585        29.847,212.725 58.058,211.537 51.525,201.737      "/>
				</g>
				<g>
					<polygon style="fill:#FFFFFF;" points="459.173,267.102 461.337,231.749 463.021,267.342 471.919,260.127 466.628,268.544        485.627,270.949 467.109,273.354 472.4,280.81 463.502,276 461.097,306.783 459.173,276.48 450.034,280.329 455.806,273.354        432.719,270.228 455.566,269.266 450.275,261.329      "/>
				</g>
				<g>
					<polygon style="fill:#FFFFFF;" points="213.85,113.272 216.191,75.039 218.011,113.532 227.635,105.729 221.913,114.832        242.459,117.433 222.433,120.034 228.155,128.096 218.532,122.895 215.931,156.186 213.85,123.415 203.967,127.576        210.209,120.034 185.241,116.653 209.949,115.612 204.227,107.029      "/>
				</g>
				<g>
					<polygon style="fill:#FFFFFF;" points="308.216,71.032 310.557,32.799 312.378,71.292 322.001,63.49 316.279,72.593        336.826,75.193 316.799,77.794 322.521,85.857 312.898,80.655 310.297,113.946 308.216,81.175 298.333,85.337 304.575,77.794        279.607,74.413 304.315,73.373 298.593,64.79      "/>
				</g>
			</g>
		</g>
	</g>
</g>















</svg>
