<?xml version="1.0" encoding="UTF-8"?>
<!-- Generator: Adobe Illustrator 25.4.1, SVG Export Plug-In . SVG Version: 6.00 Build 0)  -->
<svg xmlns="http://www.w3.org/2000/svg" xmlns:xlink="http://www.w3.org/1999/xlink" version="1.1" id="Capa_1" x="0px" y="0px" viewBox="0 0 512 512" style="enable-background:new 0 0 512 512;" xml:space="preserve" width="512" height="512">
<g>
	<g>
		<path d="M194.669,512c-2.868-0.653-5.726-1.348-8.604-1.95c-10.158-2.124-18.561-7.43-26.249-14.166    c-1.933-1.693-1.879-3.06-0.272-4.698c1.433-1.461,2.925-2.862,4.389-4.291c9.62-9.389,12.513-20.787,11.293-33.995    c-2.798-30.29-11.008-59.366-20.813-87.842c-4.853-14.095-16.831-23.664-31.082-29.278c-4.735-1.865-5.583-3.375-2.569-7.717    c6.479-9.333,16.043-13.632,26.968-14.341c15.374-0.998,28.784,4.02,39.746,15.079c0.663,0.669,1.356,1.31,2.074,1.919    c0.223,0.19,0.572,0.232,1.06,0.415c3.6-9.751,8.965-18.389,17.194-24.88c12.073-9.522,25.272-15.5,41.102-11.17    c2.063,0.564,4.898,2.044,5.346,3.662c0.401,1.447-1.65,4.054-3.222,5.49c-9.915,9.058-13.247,21.259-15.475,33.645    c-0.775,4.31,1.309,9.26,2.56,13.787c5.81,21.029,11.786,42.013,18.124,64.51c0.88-3.407,1.41-5.563,1.993-7.704    c5.949-21.844,11.996-43.663,17.755-65.557c0.758-2.883,0.708-6.329-0.085-9.207c-3.177-11.537-6.401-23.091-16.578-31.029    c-3.433-2.677-2.416-5.554,2.089-7.116c12.646-4.386,24.247-1.139,35.235,5.234c12.022,6.972,20.19,17.291,26.358,31.543    c1.339-1.953,2.386-4.214,4.063-5.812c15.752-15.005,41.206-17.359,57.804-5.177c2.934,2.153,5.283,5.328,7.313,8.418    c1.644,2.502,1.298,4.334-2.437,5.825c-16.513,6.593-29.188,17.506-33.99,35.244c-6.028,22.264-11.474,44.69-16.828,67.128    c-1.449,6.073-2.013,12.422-2.358,18.679c-0.709,12.878,3.944,23.617,13.619,32.274c5.048,4.516,4.89,4.697-0.364,9.119    c-8.514,7.167-18.259,11.572-29.302,13.095c-1.038,0.143-2.037,0.569-3.055,0.864c-5.353,0-10.706,0-16.059,0    c-2.876-0.658-5.771-1.247-8.626-1.987c-12.738-3.298-25.205-7.082-33.16-18.833c-1.01-1.492-2.246-2.83-3.363-4.221    c-0.679,0.503-0.97,0.645-1.158,0.872c-0.699,0.846-1.406,1.692-2.036,2.59c-5.812,8.292-13.582,13.847-23.331,16.556    c-6.315,1.754-12.673,3.354-19.012,5.023C205.376,512,200.023,512,194.669,512z"/>
		<path d="M77.533,0c2.45,0.405,4.899,0.815,7.35,1.214c16.18,2.628,29.697,9.919,40.043,22.803c1.16,1.444,2.478,2.76,3.814,4.238    c8.416-15.464,21.594-22.519,38.235-24.716c16.611-2.192,32.419-0.944,46.601,8.779c4.904,3.362,9.458,7.312,13.8,11.39    c3.509,3.296,2.756,6.776-1.785,8.341c-25.923,8.933-35.118,29.525-38.342,54.405c-3.199,24.692-0.572,48.836,5.453,72.93    c8.049,32.185,15.119,64.613,22.732,96.909c2.559,10.854,5.49,21.62,8.422,33.091c-16.535,5.306-27.317,16.962-35.622,31.825    c-14.33-10.075-30-14.991-48.11-12.811c-4.671-17.865-9.16-35.488-13.893-53.046c-9.399-34.866-18.682-69.767-28.495-104.518    c-7.292-25.821-15.112-51.5-23.162-77.096c-3.723-11.84-9.944-22.389-19.909-30.346c-8.116-6.48-17.266-9.38-27.616-8.516    c-0.939,0.078-1.889,0.101-2.83,0.053c-0.438-0.022-0.865-0.274-1.586-0.519c1.098-8.814,5.814-15.542,12.337-20.956    C43.506,6.37,53.445,2.194,64.514,0.831C65.721,0.682,66.896,0.283,68.086,0C71.235,0,74.384,0,77.533,0z"/>
		<path d="M444.057,0c9.383,1.862,18.69,3.732,27.003,9.038c8.984,5.734,15.703,12.966,18.188,23.585    c0.135,0.578,0.08,1.201,0.121,1.931c-4.813,0.223-9.536-0.011-14.098,0.739c-12.409,2.041-21.341,9.442-28.327,19.499    c-7.2,10.365-11.093,22.184-14.503,34.13c-14.648,51.322-29.258,102.656-43.631,154.056c-5.498,19.66-10.319,39.51-15.464,59.27    c-0.39,1.497-0.907,2.96-1.447,4.702c-17.877-2.736-33.643,2.326-48.356,12.701c-8.417-13.532-19.426-24.114-35.38-29.53    c2.176-8.611,4.477-17.054,6.431-25.577c6.434-28.053,12.765-56.13,19.09-84.209c3.97-17.624,8.845-35.118,11.516-52.94    c2.906-19.389,1.684-38.998-3.828-57.997c-5.165-17.802-15.92-30.774-33.923-37.017c-5.674-1.968-6.32-5.12-2.08-9.399    C301.122,7.087,319.87,0.106,342.352,3.199c11.612,1.598,22.703,4.047,31.34,12.567c3.638,3.589,6.686,7.775,10.236,11.965    c1.038-1.174,2.517-2.763,3.904-4.429c11.494-13.812,26.344-21.032,44.12-22.567c0.901-0.078,1.773-0.483,2.658-0.736    C437.759,0,440.908,0,444.057,0z"/>
	</g>
	<g>
		<g>
			<path style="fill:#FFFFFF;" d="M200.216,377.457c2.119-5.22,3.732-10.156,6.089-14.707c2.082-4.021,5.752-6.504,10.536-5.435     c4.868,1.089,6.372,5.376,6.114,9.485c-0.608,9.697-2.147,19.331-2.95,29.021c-0.892,10.772-1.306,21.583-2.127,32.361     c-0.142,1.861-1.274,3.647-1.949,5.468c-1.601-0.717-3.802-0.99-4.71-2.218c-10.453-14.132-21.002-28.212-30.819-42.783     c-2.53-3.755-3.432-9.144-3.597-13.834c-0.263-7.454,6.618-11.115,13.147-7.448c2.153,1.209,4.04,2.986,5.818,4.738     C197.409,373.721,198.739,375.651,200.216,377.457z"/>
			<g>
				<path style="fill:#FFFFFF;" d="M179.825,300.336c-0.335-0.632-1.027-1.31-0.954-1.89c3.572-28.192-4.327-53.472-18.087-77.84      c-11.187-19.811-21.378-40.259-30.77-60.987c-9.558-21.095-9.557-43.697-6.755-66.295c1.232-9.938,2.855-19.83,4.431-29.722      c0.235-1.474,1.19-2.833,1.812-4.245c0.376,0.088,0.751,0.177,1.127,0.265c0.221,0.783,0.752,1.623,0.619,2.339      c-6.73,36.1-1.56,70.722,13.17,104.06c7.306,16.535,14.844,32.979,22.738,49.24c11.867,24.444,17.416,50.034,15.225,77.186      c-0.216,2.672-0.948,5.303-1.441,7.952C180.568,300.379,180.197,300.358,179.825,300.336z"/>
				<g>
					<path style="fill:#FFFFFF;" d="M160.069,129.463c-0.052,4.883-3.61,8.756-8.016,8.727c-4.402-0.029-7.695-3.708-7.562-8.449       c0.135-4.829,3.892-8.704,8.257-8.518C156.985,121.404,160.117,124.929,160.069,129.463z"/>
					<path style="fill:#FFFFFF;" d="M157.259,249.172c0.105,4.424-3.438,8.254-7.783,8.414c-4.483,0.165-7.749-3.264-7.763-8.151       c-0.013-4.644,3.012-8.038,7.296-8.184C153.368,241.103,157.154,244.738,157.259,249.172z"/>
				</g>
			</g>
		</g>
		<g>
			<path style="fill:#FFFFFF;" d="M311.545,377.659c2.636-2.874,4.834-5.708,7.474-8.04c3.399-3.003,7.326-5.273,11.997-2.735     c4.39,2.385,5.19,6.658,4.456,11.036c-0.588,3.507-1.552,7.134-3.213,10.248c-8.488,15.907-19.351,30.156-31.438,43.476     c-1.004,1.106-3.232,2.269-4.278,1.855c-1.143-0.453-2.332-2.781-2.198-4.167c1.748-18.139-2.886-35.635-5.047-53.379     c-0.396-3.255-0.374-6.622-0.047-9.887c0.385-3.847,1.548-7.68,5.93-8.726c4.543-1.085,8.167,1.061,10.355,4.868     c1.931,3.359,3.146,7.137,4.592,10.763C310.687,374.37,311.012,375.863,311.545,377.659z"/>
			<g>
				<path style="fill:#FFFFFF;" d="M382.473,59.389c0.696,1.321,1.789,2.574,2.029,3.973c3.902,22.757,7.653,45.525,4.936,68.771      c-1.533,13.118-5.407,25.603-11.171,37.336c-8.521,17.345-17.721,34.36-26.79,51.431c-6.711,12.632-13.7,25.119-16.415,39.403      c-2.356,12.394-3.361,24.851-1.832,37.44c0.095,0.78-0.32,1.623-0.498,2.436c-0.448,0.052-0.896,0.103-1.343,0.155      c-0.533-2.704-1.327-5.387-1.558-8.117c-2.415-28.543,4.518-55.003,16.868-80.609c9.96-20.649,19.432-41.622,27.562-63.043      c9.815-25.861,11.881-52.903,7.599-80.331c-0.425-2.721-0.586-5.484-0.869-8.227C381.485,59.801,381.979,59.595,382.473,59.389z      "/>
				<g>
					<path style="fill:#FFFFFF;" d="M359.767,121.217c4.368,0.015,7.974,4.011,7.965,8.829c-0.009,4.713-3.468,8.289-7.878,8.144       c-4.372-0.143-7.816-4.17-7.723-9.03C352.218,124.66,355.542,121.203,359.767,121.217z"/>
					<path style="fill:#FFFFFF;" d="M370.497,249.482c-0.034,4.687-3.06,8.034-7.34,8.118c-4.504,0.088-8.34-3.874-8.206-8.475       c0.129-4.428,3.945-8.049,8.297-7.873C367.53,241.426,370.53,244.833,370.497,249.482z"/>
				</g>
			</g>
		</g>
	</g>
</g>















</svg>
