<?xml version="1.0" encoding="UTF-8"?>
<!-- Generator: Adobe Illustrator 26.5.1, SVG Export Plug-In . SVG Version: 6.00 Build 0)  -->
<svg xmlns="http://www.w3.org/2000/svg" xmlns:xlink="http://www.w3.org/1999/xlink" version="1.1" id="Capa_1" x="0px" y="0px" viewBox="0 0 512 512" style="enable-background:new 0 0 512 512;" xml:space="preserve" width="512" height="512">
<g>
	<path style="fill:#FFFFFF;" d="M379.92,471.746c-1.694,0-3.395-0.316-5.013-0.969c-2.298-0.928-4.26-2.425-5.724-4.295   L339.8,438.424h-84.524c-4.868,0-9.363-2.608-11.779-6.834s-2.383-9.425,0.088-13.618c9.789-16.619,26.836-28.671,45.603-32.244   c3.978-0.755,8.073-1.137,12.179-1.137c6.813,0,13.564,1.034,20.002,2.999c-1.774-8.34-3.152-17.553-4.125-27.594   c-0.008-0.077-0.014-0.152-0.02-0.23c-0.16-1.634-0.296-3.222-0.413-4.765c-0.338-4.151-1.967-8.086-4.705-11.295   c-2.843-3.365-6.569-5.651-10.822-6.664l-62.477-14.919c6.295,7.548,11.453,16.091,15.138,25.366   c1.661,4.178,1.144,8.908-1.381,12.629s-6.729,5.949-11.227,5.949H134.061c-11.423,11.88-23.197,17.895-35.063,17.895   c-1.577,0-3.168-0.108-4.727-0.325c0,0-0.368-0.06-0.551-0.093c-1.739-0.243-3.455-0.609-5.108-1.091   c-6.81-1.895-15.556-6.291-22.226-16.387H13.567c-4.868,0-9.364-2.608-11.779-6.834c-2.416-4.227-2.383-9.425,0.088-13.618   c9.789-16.619,26.836-28.672,45.603-32.244c2.941-0.559,5.953-0.912,8.989-1.056c2.359-40.452,17.357-85.634,18.655-89.481   c1.715-5.514,26.102-82.585,62.266-124.468l-10.88-10.39c-4.921-4.699-5.599-12.317-1.587-17.811l17.774-24.341   c2.288-3.133,5.808-5.139,9.67-5.505c0.43-0.042,0.86-0.062,1.288-0.062c3.416,0,6.724,1.29,9.247,3.641l9.478,8.828l9.398-8.036   c2.469-2.113,5.6-3.257,8.817-3.257c0.488,0,0.979,0.027,1.47,0.079c3.721,0.406,7.108,2.33,9.362,5.317l17.473,23.164   c1.014,1.345,1.742,2.822,2.192,4.357c15.631,5.214,24.234,14.349,28.942,22.347c3.236-1.166,6.544-2.074,9.904-2.714   c3.978-0.755,8.073-1.137,12.179-1.137c12.378,0,24.552,3.41,35.009,9.619c17.689-20.965,44.853-33.923,72.773-33.923   c3.682,0,7.38,0.23,10.99,0.685c33.32,4.182,62.963,27.291,75.515,58.875c0.72,1.811,1.03,3.723,0.946,5.613   c14.655,5.68,25.89,14.945,33.408,27.567c0,0,0.109,0.186,0.162,0.281c1.417,2.405,2.682,4.88,3.767,7.367   c0.081,0.168,0.158,0.338,0.232,0.51c13.595,31.728,7.714,79.237-18.505,149.514c-7.846,20.985-16.873,40.037-26.921,56.842   c16.254,10.739,29.074,26.216,36.163,44.052c1.66,4.178,1.144,8.908-1.381,12.629c-2.525,3.721-6.729,5.949-11.227,5.949h-63.144   l-29.777,28.846c-1.32,1.451-2.962,2.623-4.842,3.396c-0.289,0.119-0.581,0.228-0.874,0.327   C382.967,471.49,381.447,471.746,379.92,471.746z"/>
	<g>
		<path style="fill:#FFE7DE;" d="M453.05,132.697H225.279c7.779-13.206,21.368-22.929,36.451-25.8    c16.914-3.211,35.275,2.329,47.598,14.381c15.738-26.886,48.232-42.895,79.12-39.006    C416.916,85.845,442.491,106.128,453.05,132.697z"/>
		<path style="fill:#FFE7DE;" d="M240.593,352.082H12.821c7.779-13.206,21.368-22.929,36.451-25.8    c16.914-3.211,35.275,2.329,47.598,14.381c15.738-26.886,48.232-42.895,79.12-39.006    C204.459,305.23,230.033,325.513,240.593,352.082z"/>
		<path style="fill:#FFE7DE;" d="M482.302,424.441H254.53c7.779-13.206,21.368-22.929,36.451-25.8    c16.914-3.211,35.275,2.329,47.598,14.381c15.738-26.886,48.232-42.895,79.12-39.006    C446.168,377.589,471.742,397.872,482.302,424.441z"/>
		<g>
			<g>
				<path style="fill:#B179FF;" d="M472.957,313.794c-27.18,72.698-66.027,113.106-95.604,117.764h-0.023      c-1.9,0.294-3.754,0.452-5.563,0.452c-5.382,0.023-10.379-1.289-14.856-3.912c-17.886-10.515-24.466-44.614-26.908-69.826      v-0.023c-0.158-1.605-0.294-3.166-0.407-4.681c-0.588-7.213-3.437-13.839-7.914-19.085c-4.545-5.382-10.786-9.339-17.999-11.057      l-114.395-27.315c-3.595-0.859-7.236-1.131-10.786-0.814c-2.555,0.204-5.065,0.724-7.462,1.515      c-3.279,1.018-6.377,2.555-9.18,4.545c-0.226,0.158-0.43,0.317-0.633,0.475c-4.229,3.098-7.756,7.236-10.198,12.211      c-12.143,24.715-33.195,58.836-55.648,55.739c-0.068,0-0.136-0.023-0.204-0.045c-1.244-0.158-2.442-0.407-3.595-0.746      c-48.232-13.273-4.296-142.388-4.296-142.388s43.302-140.285,97.571-143.18c34.484-1.832,47.983,11.012,53.252,20.645      c3.799,6.897,10.402,11.826,18.022,13.839l119.799,31.702c7.643,2.012,15.715,0.859,22.522-3.143      c10.266-6.015,30.029-12.278,61.211-1.266c13.047,4.59,22.499,12.21,28.695,22.612c0.023,0.023,0.023,0.045,0.023,0.045      c1.221,2.058,2.329,4.206,3.301,6.49l0.023,0.023C504.365,203.922,496.157,251.611,472.957,313.794z"/>
				<g>
					<path style="fill:#FFE7DE;" d="M467.236,178.407c-0.005,2.559,0.531,5.105,1.435,7.499c0.728,1.928,1.948,3.969,3.965,4.394       c2.247,0.472,4.384-1.339,5.449-3.373c2.436-4.654,0.922-10.273-2.594-13.964C471.33,168.593,467.246,173.876,467.236,178.407z       "/>
					<path style="fill:#FFE7DE;" d="M473.687,195.171c-1.761,0.538-3.551,1.235-4.815,2.574c-1.028,1.089-1.622,2.518-2.032,3.958       c-0.679,2.388-0.909,4.904-0.674,7.376c0.154,1.614,0.517,3.24,1.349,4.631c0.832,1.391,2.185,2.529,3.779,2.827       c1.594,0.299,3.267-0.272,4.544-1.272c1.276-1,2.195-2.391,2.904-3.849c1.905-3.919,2.407-8.502,1.393-12.74       C479.28,195.095,477.136,194.117,473.687,195.171z"/>
				</g>
				<polygon style="fill:#2E1144;" points="381.74,172.92 380.587,177.533 358.065,267.009 202.924,224.272 194.67,221.989       225.852,130.771     "/>
				<polygon style="opacity:0.43;fill:#B179FF;" points="381.74,172.92 380.587,177.533 358.065,267.009 202.924,224.272       194.67,221.989 225.852,130.771     "/>
				<polygon style="fill:#2E1144;" points="380.587,177.533 358.065,267.009 202.924,224.272 232.591,137.51     "/>
			</g>
			<g>
				<path style="fill:#FFAFA0;" d="M261.307,177.007c-0.142,0.574-0.447,1.025-0.912,1.356c-0.464,0.331-0.978,0.57-1.541,0.72      c-0.517,0.163-1.046,0.336-1.595,0.53c-0.546,0.194-1.068,0.433-1.56,0.715c-0.492,0.287-0.923,0.636-1.285,1.042      c-0.368,0.411-0.625,0.91-0.773,1.506c-0.13,0.521-0.124,1.025,0.02,1.506c0.14,0.486,0.341,0.976,0.599,1.475      c0.257,0.499,0.55,1.02,0.875,1.559c0.327,0.543,0.602,1.126,0.828,1.749c0.225,0.623,0.38,1.298,0.46,2.032      c0.079,0.729,0.011,1.541-0.212,2.433c-0.155,0.618-0.459,1.29-0.915,2.005s-1.006,1.413-1.65,2.098      c-0.644,0.68-1.363,1.316-2.156,1.908c-0.793,0.592-1.601,1.095-2.429,1.506c-0.828,0.415-1.656,0.707-2.49,0.879      c-0.836,0.177-1.599,0.177-2.292,0.004c-0.769-0.194-1.399-0.574-1.889-1.144c-0.487-0.57-0.627-1.276-0.417-2.12      c0.142-0.57,0.409-1.064,0.804-1.475c0.392-0.42,0.844-0.799,1.35-1.148c0.509-0.344,1.057-0.667,1.645-0.972      c0.589-0.3,1.134-0.609,1.636-0.932c0.502-0.322,0.946-0.68,1.333-1.073c0.387-0.389,0.647-0.844,0.777-1.365      c0.179-0.72,0.106-1.519-0.212-2.402c-0.32-0.883-0.688-1.806-1.105-2.765c-0.422-0.958-0.778-1.925-1.076-2.897      c-0.297-0.967-0.338-1.886-0.122-2.756c0.266-1.064,0.831-2.115,1.695-3.149c0.863-1.038,1.866-1.93,3.002-2.69      c1.137-0.755,2.343-1.316,3.62-1.683c1.276-0.367,2.461-0.411,3.552-0.141c0.868,0.216,1.545,0.662,2.035,1.338      C261.395,175.333,261.53,176.115,261.307,177.007z"/>
				<path style="fill:#FFAFA0;" d="M282.34,183.009c-0.155,0.623-0.538,1.126-1.148,1.511c-0.608,0.389-1.303,0.689-2.081,0.905      c-0.778,0.212-1.557,0.353-2.336,0.424c-0.783,0.066-1.42,0.093-1.917,0.075c-0.675,1.859-1.304,3.723-1.888,5.591      c-0.586,1.868-1.116,3.758-1.593,5.666c-0.254,1.016-0.479,2.027-0.676,3.03c-0.198,1.003-0.423,2.001-0.67,2.994      c-0.112,0.446-0.276,0.923-0.495,1.435c-0.222,0.512-0.497,0.976-0.825,1.396c-0.327,0.415-0.718,0.742-1.171,0.972      c-0.449,0.225-0.948,0.274-1.496,0.137c-0.645-0.159-1.112-0.468-1.407-0.923c-0.297-0.455-0.482-0.972-0.565-1.541      c-0.079-0.574-0.083-1.161-0.013-1.762c0.071-0.601,0.167-1.139,0.285-1.608c0.318-1.502,0.656-3.003,1.006-4.509      c0.35-1.506,0.712-3.016,1.09-4.527c0.316-1.268,0.632-2.504,0.948-3.714c0.314-1.21,0.63-2.451,0.946-3.714      c-0.36-0.035-0.722-0.088-1.089-0.155c-0.367-0.062-0.733-0.141-1.106-0.234c-0.298-0.075-0.679-0.203-1.147-0.389      c-0.469-0.181-0.904-0.406-1.311-0.68c-0.407-0.274-0.736-0.592-0.987-0.958c-0.252-0.367-0.319-0.773-0.208-1.215      c0.185-0.746,0.639-1.325,1.361-1.736c0.72-0.411,1.584-0.711,2.592-0.892c1.006-0.186,2.097-0.283,3.271-0.292      c1.174-0.009,2.32,0.04,3.438,0.15c1.12,0.106,2.138,0.238,3.065,0.389c0.921,0.15,1.633,0.287,2.128,0.411      c0.47,0.119,0.966,0.261,1.492,0.433c0.523,0.168,0.998,0.402,1.428,0.689c0.427,0.296,0.752,0.649,0.977,1.078      C282.459,181.869,282.494,182.39,282.34,183.009z"/>
				<path style="fill:#FFAFA0;" d="M297.653,207.966c-0.125,0.495-0.315,1.078-0.574,1.753c-0.262,0.671-0.593,1.294-0.999,1.864      c-0.404,0.57-0.874,1.02-1.402,1.347c-0.53,0.327-1.141,0.406-1.836,0.234c-0.916-0.23-1.523-0.738-1.814-1.519      c-0.292-0.786-0.419-1.665-0.384-2.645c0.031-0.976,0.15-1.956,0.357-2.932c0.202-0.976,0.366-1.753,0.48-2.327      c-1.858-0.15-3.686-0.327-5.474-0.539c-0.193,0.557-0.476,1.237-0.845,2.04c-0.372,0.804-0.824,1.555-1.353,2.252      c-0.528,0.698-1.132,1.263-1.806,1.7c-0.677,0.437-1.398,0.561-2.169,0.367c-0.594-0.146-1.002-0.481-1.228-0.998      c-0.23-0.517-0.353-1.095-0.38-1.731c-0.023-0.64,0.024-1.281,0.145-1.921c0.12-0.64,0.231-1.17,0.337-1.594      c0.353-1.413,0.814-2.778,1.38-4.098c0.569-1.321,1.168-2.628,1.807-3.917c0.327-0.68,0.736-1.475,1.227-2.376      c0.487-0.905,1.04-1.828,1.657-2.769c0.615-0.936,1.291-1.851,2.024-2.734c0.736-0.883,1.51-1.643,2.327-2.283      c0.818-0.636,1.686-1.104,2.605-1.4c0.916-0.3,1.859-0.331,2.824-0.088c0.941,0.234,1.708,0.649,2.295,1.245      c0.589,0.596,1.059,1.307,1.407,2.129c0.348,0.826,0.584,1.718,0.711,2.685c0.127,0.967,0.195,1.934,0.206,2.897      c0.008,0.963-0.014,1.899-0.07,2.805c-0.055,0.91-0.106,1.713-0.15,2.411c-0.077,1.696-0.212,3.392-0.401,5.097      C298.369,204.623,298.067,206.305,297.653,207.966z M292.734,197.141c0.074-0.3,0.177-0.795,0.311-1.484      c0.13-0.693,0.221-1.396,0.267-2.107c0.046-0.715,0.007-1.369-0.121-1.965c-0.128-0.601-0.414-0.954-0.86-1.064      c-0.25-0.062-0.523,0.044-0.832,0.322c-0.306,0.283-0.608,0.654-0.91,1.117c-0.301,0.468-0.596,0.989-0.888,1.577      s-0.558,1.153-0.799,1.696c-0.239,0.548-0.443,1.042-0.608,1.488c-0.166,0.446-0.283,0.764-0.355,0.958      c1.517,0.247,3.027,0.428,4.527,0.539L292.734,197.141z"/>
				<path style="fill:#FFAFA0;" d="M325.532,199.994c-0.426,1.709-1.208,3.149-2.341,4.31c-1.133,1.166-2.487,2.107-4.061,2.822      c0.25,0.693,0.485,1.488,0.707,2.385c0.223,0.901,0.394,1.833,0.508,2.796c0.116,0.963,0.168,1.912,0.161,2.844      c-0.011,0.932-0.107,1.771-0.293,2.513c-0.198,0.795-0.571,1.457-1.11,1.996c-0.543,0.534-1.273,0.689-2.19,0.459      c-0.771-0.19-1.338-0.729-1.714-1.612c-0.37-0.883-0.646-1.895-0.823-3.03c-0.176-1.135-0.311-2.283-0.403-3.436      c-0.094-1.157-0.223-2.098-0.382-2.822c-0.486,0.035-0.961,0.093-1.428,0.177c-0.469,0.08-0.947,0.15-1.435,0.212      c-0.163,0.539-0.393,1.281-0.692,2.217c-0.3,0.941-0.674,1.855-1.121,2.743c-0.445,0.892-0.965,1.63-1.56,2.217      c-0.597,0.592-1.262,0.791-2.006,0.605c-0.819-0.203-1.368-0.693-1.65-1.475c-0.278-0.782-0.394-1.652-0.353-2.619      c0.044-0.963,0.172-1.926,0.385-2.884c0.214-0.963,0.388-1.714,0.525-2.261c0.29-1.166,0.601-2.305,0.934-3.423      c0.331-1.113,0.64-2.252,0.931-3.418c0.266-1.064,0.517-2.138,0.743-3.211c0.231-1.078,0.48-2.16,0.753-3.251      c0.062-0.247,0.14-0.565,0.236-0.95c0.095-0.38,0.214-0.773,0.352-1.175c0.141-0.397,0.282-0.777,0.423-1.139      c0.143-0.358,0.304-0.636,0.485-0.826c0.375-0.459,1.064-0.813,2.061-1.064c0.998-0.252,2.067-0.424,3.212-0.521      c1.143-0.097,2.244-0.128,3.3-0.088c1.055,0.044,1.833,0.124,2.33,0.247c1.263,0.314,2.319,0.83,3.169,1.541      c0.85,0.711,1.496,1.555,1.94,2.517c0.444,0.967,0.693,2.018,0.753,3.153C325.939,197.68,325.824,198.828,325.532,199.994z       M318.525,198.797c0.16-0.645,0.133-1.17-0.079-1.581c-0.215-0.411-0.657-0.698-1.326-0.866      c-0.495-0.124-1.019-0.159-1.57-0.115c-0.552,0.049-1.066,0.128-1.542,0.247c-0.39,1.983-0.84,3.939-1.347,5.865      c0.564-0.044,1.153-0.132,1.766-0.269c0.614-0.137,1.201-0.344,1.758-0.627c0.558-0.283,1.047-0.636,1.469-1.055      C318.071,199.977,318.363,199.442,318.525,198.797z"/>
				<path style="fill:#FFAFA0;" d="M348.202,199.451c-0.155,0.618-0.538,1.122-1.148,1.51c-0.608,0.389-1.303,0.689-2.081,0.901      c-0.778,0.216-1.557,0.358-2.336,0.424c-0.783,0.071-1.42,0.093-1.917,0.075c-0.675,1.859-1.304,3.723-1.888,5.591      c-0.586,1.868-1.116,3.758-1.593,5.666c-0.254,1.016-0.479,2.027-0.676,3.03c-0.2,1.007-0.423,2.005-0.67,2.994      c-0.112,0.446-0.276,0.927-0.495,1.435c-0.222,0.512-0.497,0.976-0.825,1.396c-0.327,0.42-0.718,0.742-1.172,0.972      c-0.452,0.23-0.948,0.278-1.496,0.141c-0.645-0.163-1.114-0.468-1.407-0.923c-0.297-0.459-0.482-0.972-0.565-1.546      c-0.079-0.57-0.083-1.157-0.013-1.762c0.071-0.601,0.167-1.135,0.285-1.608c0.318-1.497,0.656-3.003,1.006-4.505      c0.35-1.51,0.712-3.016,1.09-4.531c0.316-1.263,0.632-2.5,0.946-3.714c0.316-1.21,0.633-2.447,0.948-3.71      c-0.36-0.04-0.722-0.088-1.089-0.154c-0.366-0.066-0.733-0.146-1.106-0.238c-0.298-0.075-0.679-0.203-1.149-0.384      c-0.467-0.181-0.902-0.411-1.308-0.68c-0.407-0.274-0.737-0.596-0.987-0.958c-0.252-0.367-0.319-0.773-0.208-1.219      c0.185-0.742,0.639-1.321,1.359-1.736c0.722-0.411,1.587-0.711,2.592-0.892c1.008-0.181,2.099-0.278,3.274-0.287      c1.174-0.013,2.32,0.04,3.438,0.146c1.12,0.11,2.138,0.238,3.065,0.389c0.921,0.154,1.631,0.291,2.128,0.415      c0.47,0.115,0.966,0.261,1.492,0.428c0.523,0.172,0.998,0.402,1.428,0.693c0.427,0.292,0.752,0.649,0.975,1.073      C348.321,198.307,348.357,198.833,348.202,199.451z"/>
			</g>
			<g>
				<g>
					<path style="fill:#2E1144;" d="M483.607,249.44c-10.221,39.074-23.788,74.801-40.362,106.186       c-19.56,37.016-40.295,61.03-65.304,75.592c-0.203,0.113-0.384,0.226-0.588,0.339h-0.023c-1.9,0.294-3.754,0.452-5.563,0.452       c1.673-0.837,3.347-1.741,5.043-2.736c24.624-14.359,45.089-38.079,64.422-74.71c16.507-31.227,30.006-66.796,40.182-105.689       c4.907-18.813,9.814-41.064,8.954-63.517c-0.226-6.015-0.904-11.871-1.99-17.502c1.221,2.058,2.329,4.206,3.301,6.49       l0.023,0.023c0.475,3.573,0.769,7.213,0.927,10.899C493.512,208.014,488.56,230.468,483.607,249.44z"/>
				</g>
				<g>
					<path style="fill:#2E1144;" d="M171.041,296.812c-3.279,1.018-6.377,2.555-9.18,4.545c-7.372,2.487-14.223,6.49-19.967,11.826       c-7.485,6.919-13.002,15.896-18.316,24.579l-2.013,3.256c-5.789,9.339-12.776,19.853-22.883,26.614       c-1.153,0.769-2.307,1.47-3.505,2.103c-1.244-0.158-2.442-0.407-3.595-0.746c1.99-0.882,3.957-1.967,5.834-3.233       c9.723-6.512,16.575-16.801,22.228-25.914l2.012-3.256c5.404-8.819,10.989-17.909,18.7-25.077       C148.835,303.641,159.667,298.553,171.041,296.812z"/>
				</g>
			</g>
			<path style="fill:#2E1144;" d="M192.364,231.599l-13.861,63.698c-2.555,0.204-5.065,0.724-7.462,1.515     c-3.279,1.018-6.377,2.555-9.18,4.545c-0.226,0.158-0.43,0.317-0.633,0.475L192.364,231.599z"/>
			<path style="fill:#2E1144;" d="M351.711,273.182l-21.707,85.067c-0.158-1.605-0.294-3.166-0.407-4.681     c-0.588-7.213-3.437-13.839-7.914-19.085L351.711,273.182z"/>
			<g>
				
					<ellipse transform="matrix(0.4474 -0.8943 0.8943 0.4474 -86.8202 537.4504)" style="fill:#2E1144;" cx="391.518" cy="338.984" rx="34.419" ry="34.419"/>
				
					<ellipse transform="matrix(0.9995 -0.0318 0.0318 0.9995 -10.5604 12.509)" style="fill:#FFE7DE;" cx="387.728" cy="338.04" rx="34.419" ry="34.419"/>
				<path style="fill:#FF93E2;" d="M383.377,356.989c2.034-1.271,33.399-21.141,24.246-31.602      c-5.923-6.769-12.987-1.532-17.131,2.849c-1.604-5.813-5.386-13.752-13.792-10.553c-12.991,4.944,5.385,37.207,6.585,39.284      l-0.013,0.089c0,0,0.032-0.02,0.048-0.03c0.009,0.016,0.028,0.049,0.028,0.049L383.377,356.989z"/>
			</g>
			<g>
				
					<ellipse transform="matrix(0.7071 -0.7071 0.7071 0.7071 -153.1132 165.5267)" style="fill:#2E1144;" cx="123.252" cy="267.587" rx="34.419" ry="34.419"/>
				
					<ellipse transform="matrix(0.975 -0.2221 0.2221 0.975 -56.2452 33.1979)" style="fill:#FFE7DE;" cx="119.462" cy="266.643" rx="34.419" ry="34.419"/>
				<path style="fill:#FF93E2;" d="M115.111,285.592c2.033-1.271,33.399-21.141,24.246-31.602      c-5.923-6.769-12.987-1.532-17.131,2.849c-1.604-5.813-5.386-13.752-13.792-10.553c-12.991,4.944,5.385,37.207,6.585,39.283      l-0.013,0.089c0,0,0.032-0.02,0.048-0.03c0.009,0.016,0.028,0.049,0.028,0.049L115.111,285.592z"/>
			</g>
			<g>
				<circle style="fill:#2E1144;" cx="428.112" cy="221.795" r="13.279"/>
				
					<ellipse transform="matrix(0.7071 -0.7071 0.7071 0.7071 -49.0542 391.1629)" style="fill:#2E1144;" cx="447.648" cy="254.795" rx="13.564" ry="13.564"/>
				<circle style="fill:#2E1144;" cx="392.125" cy="241.232" r="13.279"/>
				
					<ellipse transform="matrix(0.1916 -0.9815 0.9815 0.1916 65.3492 626.2791)" style="fill:#2E1144;" cx="412.855" cy="273.47" rx="13.564" ry="13.564"/>
			</g>
			<g>
				<path style="fill:#FF93E2;" d="M134.855,168.512l35.246-17.42c4.399-2.174,9.697,0.129,11.107,4.83l0.489,1.631      c1.149,3.829-0.733,7.915-4.39,9.531l-35.735,15.79c-4.106,1.814-8.899-0.139-10.566-4.308l0,0      C129.47,174.723,131.146,170.345,134.855,168.512z"/>
				<path style="fill:#FF93E2;" d="M136.01,198.533l35.246-17.42c4.399-2.174,9.697,0.129,11.107,4.83l0.489,1.631      c1.149,3.829-0.733,7.915-4.39,9.531l-35.735,15.79c-4.106,1.814-8.899-0.139-10.566-4.308l0,0      C130.625,204.744,132.301,200.367,136.01,198.533z"/>
			</g>
			<g>
				<polygon style="fill:#FF93E2;" points="225.088,251.894 241.565,274.787 218.391,283.446     "/>
				<polygon style="fill:#FF93E2;" points="257.683,258.554 274.159,281.448 250.985,290.106     "/>
				<polygon style="fill:#FF93E2;" points="294.465,265.586 310.942,288.479 287.768,297.138     "/>
			</g>
		</g>
		<g>
			<path style="fill:#FFAFA0;" d="M171.543,112.409l35.779-34.66l-17.472-23.164L171.247,70.49l-18.339-17.084l-17.774,24.342     l36.179,34.547c0.008,0.194,0.013,0.324,0.013,0.324l0.162-0.157l0.052,0.05C171.54,112.512,171.541,112.466,171.543,112.409z"/>
			<path style="fill:#FFAFA0;" d="M379.382,457.652l35.779-34.66l-17.472-23.164l-18.602,15.906l-18.339-17.084l-17.774,24.342     l36.179,34.547c0.008,0.194,0.013,0.324,0.013,0.324l0.162-0.157l0.052,0.05C379.379,457.756,379.38,457.71,379.382,457.652z"/>
		</g>
	</g>
</g>















</svg>
