<svg id="Layer_1" enable-background="new 0 0 512 512" viewBox="0 0 512 512" xmlns="http://www.w3.org/2000/svg"><g fill="#fab03c"><path d="m146.3 245.1c-.2-24.2 8.6-45.4 22.8-64.3 20.4-27 48-39.8 81.8-40.1 23.4-.2 44.5 6.1 63.3 19.9 5.5 4 10.2 8.8 14.9 13.7 2 2.1 2.1 3.8.8 6.5-10.6 22.5-21.4 45-30 68.3-3.6 9.7-4.2 20.2-6.9 30.1-1.7 6.2-3.3 12.4-3.3 18.9 0 5.7-4.6 8.3-8.3 11.3-4.2 3.5-9.4 5.6-13.9 8.5-6.1 4-11.8 8.7-15.6 15.2-2.7 4.6-5.5 9.1-7.9 13.9-1.2 2.3-2.5 2.6-4.8 2.4-24.4-2.4-45.4-12.1-62.1-30-19.2-20.7-30.7-45.2-30.8-74.3z"/><path d="m102.6 235.1c9 0 18-.1 27.1 0 6.5.1 10.8 4.1 10.9 10.2.1 6.2-4.3 10.3-11 10.4-18 .3-36.1.7-54.1.9-7.4.1-11.5-4.2-11.4-11.5.1-7 4.2-11 11.6-11h27.1c-.2.4-.2.7-.2 1z"/><path d="m190.2 340.2c8.5 0 13.7 8.2 9.9 15.1-9 16.5-18.1 32.9-27.3 49.2-3.2 5.6-9.1 6.8-15.1 3.4-5.8-3.3-7.7-9-4.4-14.5 9.5-16.1 19.2-32.2 28.9-48.3 2-3.2 4.9-4.7 8-4.9z"/><path d="m351.5 92.3c0 2.4-1 4.4-2.1 6.3-9.5 15.8-18.9 31.6-28.4 47.3-2.8 4.6-8.6 6-13.5 3.4-4.9-2.7-7.2-8.5-4.5-13.4 9.2-16.8 18.5-33.5 27.9-50.1 2.4-4.2 7.3-5.8 11.8-4.3 5.3 1.7 8.9 6 8.8 10.8z"/><path d="m201.3 140.1c.1 4.6-3 8.7-7.6 10.1-4.4 1.3-9.1-.5-11.6-4.7-6.3-10.5-12.6-21-18.9-31.4-3.2-5.4-6.5-10.8-9.6-16.2-3.4-5.9-1.8-11.5 4.1-14.8 6.3-3.6 11.9-2.5 15.3 3.5 9.1 16.2 18.1 32.6 27.2 48.8.7 1.4 1.1 3 1.1 4.7z"/><path d="m154.1 307.8c-.1 3.6-1.6 6.6-4.6 8.4-9.8 6-19.5 12.1-29.9 17.1-5.7 2.7-11.1 1-13.8-3.9-2.7-4.8-1.3-10.4 3.9-13.9 9.4-6.4 19.4-11.9 29.5-17 7.1-3.5 14.9 1.6 14.9 9.3z"/><path d="m144 193.4c-2 .1-3.8-.5-5.4-1.4-9.4-5.2-18.9-10.4-28-16.2-.9-.6-1.8-1.2-2.6-1.9-3.8-3.3-4.6-8.6-2-12.9 2.5-4.1 7.4-5.9 12.1-4.2 3.9 1.4 7.5 3.6 11.1 5.7 6.8 4 13.7 8 20.4 12.2 4 2.5 5.4 7.4 4 11.6s-5.3 7.1-9.6 7.1z"/><path d="m262 104.4c0 5.3.2 10.7 0 16-.2 6.4-4.3 10.5-10.1 10.6-5.9.1-10.3-4.1-10.5-10.6-.2-10.4-.1-20.9-.1-31.3 0-1.1.2-2.1.3-3.2.8-5.4 5-9.1 10.2-9s9.3 3.9 9.9 9.3c.8 6.1.5 12.2.3 18.2z"/></g><path d="m289.1 419.8c-23.7 1.6-41.7-18.2-40.8-40 .4-8.7.4-17.7 4.9-25.6 3.6-6.4 8.6-11.9 13.7-17.2 6.3-6.6 11.8-13.9 16.6-21.7 1.2-1.9 2.3-4 3.9-5.5 4.3-4.2 6.5-9.3 7.4-15 .8-5 4.4-9.1 5.2-13.9 2.6-16 9.8-30.3 16.1-45 3.2-7.4 6.2-14.9 11.1-21.4 2.8-3.6 5.4-7.4 7.7-11.3 3.3-5.6 10.5-6 16.1-1.4 2.6 2.1 4.9 4.5 7.4 6.7 1.4 1.3 2.1 2.9 2.3 4.7.1 1.2.4 2.4.2 3.6-1.9 11.7-2.4 23.5-6.1 34.9-2.9 9-4 18.5-5.4 27.9-2.8 19.5-5.4 39-8.1 58.5-2.2 16.1-4.9 32.1-6.6 48.3-.6 5.6-3.6 8.5-7.4 11-5.9 3.8-10.7 8.6-15.4 13.7-5.6 6.2-12.8 8.8-21 8.8-.9-.1-1.8-.1-1.8-.1z" fill="#ed1c24"/><path d="m418.8 324.1c0 7.7-7.1 13.6-14.5 11.5-14.5-4.2-28.8-8.8-43.3-13.1-2-.6-2-1.5-1.5-3.1 1.8-5.8 3.6-11.6 5.3-17.4.6-2.2 1.6-2.7 3.9-2 13.8 4.3 27.7 8.4 41.5 12.7 5.3 1.7 8.6 6.2 8.6 11.4z" fill="#ed1c24"/><path d="m427.1 288.3c.1 7.9-7.1 13.8-14.6 11.6-13.7-3.9-27.2-8.3-40.9-12.4-1.6-.5-2.1-1.2-1.6-2.8 1.9-6.1 3.8-12.2 5.6-18.4.5-1.7 1.3-1.9 2.9-1.5 13.6 4.2 27.3 8.2 40.8 12.5 4.8 1.7 7.7 6.1 7.8 11z" fill="#ed1c24"/><path d="m448 217c.1 7.7-7 13.8-14.3 11.7-13.5-3.8-26.8-8.1-40.2-12.1-1.7-.5-2.3-1.3-1.7-3.1 1.9-6 3.7-12 5.5-18.1.6-1.9 1.6-2 3.2-1.5 13.2 4 26.4 8 39.5 12.1 4.9 1.5 7.9 5.9 8 11z" fill="#ed1c24"/><path d="m435.9 250.8c.1 8.8-6.9 14.7-14.5 12.6-13-3.6-25.9-7.8-38.9-11.7-1.5-.5-2.1-1.2-1.5-2.9 1.9-6 3.8-12 5.4-18.1.7-2.5 2.1-2 3.8-1.5 12.3 3.7 24.5 7.4 36.8 11.2 1.2.4 2.5.9 3.5 1.6 3.5 2.4 5.2 5.6 5.4 8.8z" fill="#ed1c24"/><path d="m222.2 364c1.1-25.3 13.3-43.5 35.3-55.6 2.1-1.2 4.6-2 7-2.4 3.6-.6 5.1-2.6 6.1-5.9 9.7-30.3 18.8-60.8 29.5-90.8 3.2-9 7-17.7 12.9-25.3 9.4-12 22.7-15.2 37.4-11.4 11.1 2.9 17.8 9.6 22.3 19.1 3.9 8.1 3.3 16.9 2 25.6-2.7 17.5-8.3 34.4-13.4 51.3-5.3 17.3-10.3 34.6-15.4 51.9-1.4 4.8 2.2 8 3.9 11.8 2.5 5.5 6.2 10.4 8.7 15.8 2.6 5.5 3.2 11.7 3 17.8-.4 11.9-2.2 23.8-8.8 34-3.6 5.5-7.9 10.6-12.6 15.3-16.5 16.4-36 23.5-59.2 17.9-7.6-1.8-15.2-4-22.4-7.1-19.9-8.6-30.7-24.3-34.6-45.2-1-5.5-1.6-11.1-1.7-16.8zm35.3 4.9c.6 11.9 5.8 22.9 18.8 28.8 13.3 6.1 26.3 6.5 38.1-3.4 17.7-14.9 17.7-40.7.3-54.2-2-1.5-2-2.8-1.3-4.8 2.9-8.8 6.8-17.2 9.2-26.2 1.9-7.1 4.1-14.1 6.3-21.1 3.7-11.5 7.7-22.9 11.2-34.5 2.1-6.9 3.6-14 5.3-21 1.2-5 1.8-10 1.5-15.1-.2-3.5-2.2-5.7-5.8-6.7-3.5-1-6.3-.5-8.6 2.3-2.6 3.2-4.9 6.7-6.4 10.7-3 8.1-6.1 16.2-8.8 24.4-4.9 15.1-8.3 30.6-13.5 45.7-3.6 10.4-6.8 21-8.8 31.9-.7 3.5-1.9 5.5-6.2 5.9-17.1 1.7-31.4 18.4-31.3 37.3z" fill="#6ea4dd"/><path d="m180.1 206.9c2.3-3.9 5.1-7.3 8.1-10.6 1.3-1.4 1.1-3.1-.3-4.4s-3-1.3-4.4 0c-3.7 3.4-6.7 7.3-9 11.7-1.2 2.3.4 4.8 3.6 4.7.5.1 1.4-.4 2-1.4z"/><path d="m201.6 179.5c-.2-1.8-1-3.3-3-3.3-2.7-.1-4.1 1.7-4.5 4.1-.4 2 .9 3.5 3 3.5 2.6 0 3.8-2 4.5-4.3z"/><path d="m273 317.1c1-.2 2-.7 3-1.1 5-2.2 7-6.6 8.4-11.3 3.6-12.5 7.1-25.1 10.7-37.7 6.3-22 14.3-43.3 24.2-63.9 3.7-7.7 8.6-14.5 15.6-19.6 7.6-5.7 15.8-7.3 24.9-4 2.1.7 4.1 1.5 6.9 2.5-.9-1.2-1.3-1.7-1.8-2.2-4.1-4.4-9.6-5.6-14.9-7.6-13.4-4.9-24.5-.8-34.2 8.3-8.4 7.9-12.6 18.6-16.3 29.2-10.1 28.4-18.8 57.1-27.8 85.8-1.8 5.7-3.4 10.8-10.6 11-.1 0-.2.1-.3.1-11 4.4-19.8 11.2-26.3 20-4.3-.9-8.4-2.5-12.3-4.7-20.1-11.3-34.7-27.7-44.3-48.6-7-15.2-8.6-31.1-5.8-47.5.3-1.5.6-3 .9-4.6-.1-1.8-1.1-3.1-3-3.3-2.3-.2-3.3 1.4-3.7 3.4-2.6 11.7-3.3 23.6-.6 35.2 7.7 33 27.1 57.1 56.9 72.9 2.5 1.3 5.2 2.3 8 3-2.3 4-4.2 8.2-5.7 12.8-6.9 20.5-3 40.5 7.4 59.2 4.1 7.3 10.1 12.9 17.6 17.6-.3-1.9-1.3-2.7-2.1-3.7-19-27.1-17.8-62.8 2.8-87 6-7.2 13.1-12.5 22.4-14.2z"/></svg>