<?xml version="1.0" encoding="iso-8859-1"?>
<!-- Generator: Adobe Illustrator 26.5.1, SVG Export Plug-In . SVG Version: 6.00 Build 0)  -->
<svg xmlns="http://www.w3.org/2000/svg" xmlns:xlink="http://www.w3.org/1999/xlink" version="1.1" id="Capa_1" x="0px" y="0px" viewBox="0 0 512 512" style="enable-background:new 0 0 512 512;" xml:space="preserve">
<g>
	<path style="fill:#FFFFFF;" d="M256,512c-53.298,0-104.386-16.222-147.742-46.913c-42.398-30.012-74.32-71.507-92.316-119.998   c-5.356-14.411-9.416-29.375-12.063-44.475C1.306,285.99,0,270.978,0,256c0-68.378,26.629-132.664,74.983-181.017   C123.336,26.629,187.622,0,256,0s132.664,26.629,181.018,74.983C485.37,123.336,512,187.622,512,256   c0,26.25-3.961,52.136-11.773,76.938c-3.527,11.229-7.875,22.284-12.919,32.851c-20.481,43.096-52.562,79.586-92.766,105.512   C353.253,497.927,305.345,512,256,512z"/>
	<g>
		<g>
			<path style="fill:#E36352;" d="M502.11,257.003c0,25.802-3.965,50.671-11.327,74.048c-3.417,10.875-7.574,21.433-12.425,31.596     c-39.545,83.21-124.372,140.733-222.624,140.733c-105.913,0-196.225-66.839-231.035-160.635     c-5.101-13.724-9.018-28.025-11.607-42.789c-2.454-13.945-3.734-28.304-3.734-42.952c0-136.065,110.311-246.376,246.376-246.376     c74.259,0,140.858,32.857,186.023,84.836c0.51,0.582-1.97,1.027-1.467,1.617c0.437,0.513,3.857,1.17,4.287,1.684h0.01     C480.484,141.572,502.11,196.766,502.11,257.003z"/>
		</g>
	</g>
	<g>
		<g>
			<circle style="fill:#FFC063;" cx="267" cy="415.298" r="76.085"/>
		</g>
	</g>
	<g>
		<g>
			<circle style="fill:#F7EDE5;" cx="123" cy="148.745" r="76.085"/>
		</g>
	</g>
	<g>
		<g>
			
				<ellipse transform="matrix(0.2298 -0.9732 0.9732 0.2298 137.9448 489.7239)" style="fill:#B5E1E8;" cx="378.369" cy="157.712" rx="73.225" ry="73.225"/>
		</g>
	</g>
	<g>
		<g>
			<g>
				<g>
					<path style="fill:#F7EDE5;" d="M444.577,98.764c-7.093-2.531-15.543-0.789-21.048,4.34c-5.293,4.928-7.68,12.261-9.672,19.354       c-0.539,1.944-1.078,3.898-1.607,5.842c-2.377,8.739-4.841,17.776-8.652,26.197c-5.36,11.818-12.887,20.74-21.76,25.792       c-4.591,2.618-9.72,4.244-15.023,4.899c-10.567,1.318-21.837-1.222-31.028-7.449c-12.81-8.681-21.375-24.32-22.366-40.825       c-0.616-10.298,1.501-20.605,3.542-30.576c2.291-11.135,4.648-22.655,3.06-33.896c-1.01-7.131-3.58-13.098-7.439-17.246       c-4.013-4.312-9.913-7.333-17.545-8.979c-13.964-3.003-28.497-0.173-38.862,7.574c-11.876,8.864-17.362,20.932-15.062,33.107       c0.135,0.674-0.308,1.328-0.991,1.453c-0.693,0.125-1.328-0.318-1.453-0.991c-2.493-13.137,3.34-26.1,16.014-35.561       c10.933-8.171,26.226-11.164,40.883-8.007c8.133,1.752,14.475,5.014,18.844,9.711c4.206,4.523,6.997,10.952,8.075,18.594       c1.655,11.664-0.751,23.396-3.08,34.743c-2.011,9.807-4.09,19.951-3.493,29.931c0.943,15.745,9.095,30.662,21.279,38.92       c13.031,8.825,30.479,9.807,43.414,2.444c8.411-4.793,15.581-13.32,20.721-24.666c3.734-8.229,6.169-17.169,8.517-25.812       c0.539-1.963,1.068-3.917,1.617-5.861c2.088-7.439,4.61-15.139,10.365-20.509c5.245-4.879,12.877-7.025,19.931-5.822       C442.71,96.551,443.653,97.658,444.577,98.764z"/>
				</g>
			</g>
		</g>
		<g>
			<g>
				<g>
					<g>
						<g>
							<path style="fill:#412945;" d="M375.201,229.054c-0.056-0.492-0.103-0.983-0.164-1.476         c-9.309-75.032-77.682-128.312-152.714-119.002c-75.033,9.309-128.754,74.121-119.444,149.153         c0.001,0.005,0.001,0.01,0.002,0.016c0.337,2.698-1.417,5.241-4.074,5.821c-25.811,5.632-43.534,30.125-40.218,56.857         l5.48,44.169c3.515,28.331,29.331,48.447,57.661,44.932l19.039-2.362l180.012-126.47         c28.331-3.515,124.023,65.428,120.508,37.098l-5.48-44.168c-3.515-28.331-29.331-48.448-57.661-44.932L375.201,229.054z"/>
						</g>
					</g>
				</g>
				<g>
					<g>
						<g>
							<path style="fill:#F8BDFF;" d="M247.054,128.624c-11.686,1.45-22.373-6.878-23.823-18.565         c-1.45-11.686,6.878-22.374,18.564-23.824c11.687-1.45,22.374,6.878,23.824,18.564         C267.068,116.487,258.741,127.174,247.054,128.624z M242.081,88.544c-10.413,1.292-17.834,10.815-16.542,21.229         c1.292,10.414,10.815,17.834,21.228,16.542c10.414-1.292,17.835-10.815,16.543-21.229         C262.018,94.673,252.495,87.252,242.081,88.544z"/>
						</g>
					</g>
				</g>
				<g>
					<g>
						<g>
							<path style="fill:#F8BDFF;" d="M444.879,272.759l13.72,32.329c9.909,13.319-6.91,26.944-16.244,40.584         c-6.904,10.089-3.747,21.823-13.689,24.931c-2.925,0.918-5.976,1.585-9.123,1.976l-44.293,5.495l-97.537-10.911         l-102.534,35.733l-30.264,3.755c-24.485,3.038-47.09-11.574-55.039-33.888c-1.256-3.509,25.435-10.006,24.958-13.854         l14.872-44.138c-2.984-24.047-26.728-29.453-5.085-37.772c1.111-0.427,9.485-34.492,9.485-34.492         c-1.287-19.882-6.595-31.364,0.05-49.026c17.335-46.125,59.055-81.297,111.35-87.786c4.74-0.588,9.453-0.954,14.122-1.111         c29.672-0.994,37.211,29.42,60.12,43.971c23.392,14.858,61.942,14.148,71.397,41.74c2.879,8.41,4.955,17.333,6.119,26.713         l0.153,1.231c0.535,4.379,4.532,7.493,8.91,6.95c3.509-0.435,6.893-0.496,10.153-0.228         C439.546,226.922,449.303,267.082,444.879,272.759z"/>
						</g>
					</g>
				</g>
				<g>
					<g>
						<g>
							<g>
								<path style="fill:#6E72FF;" d="M391.145,190.297c-6.116,1.025-12.406-2.821-16.6-7.59c-4.539-5.156-7.66-11.489-12.55-16.32          c-1.131-1.118-2.776-2.219-4.212-1.517c-0.744,0.366-1.196,1.125-1.574,1.86c-5.102,9.892-4.815,23.03-13.436,30.069          c-4.087,3.336-9.556,4.592-14.83,4.473c-4.687-0.114-9.408-1.263-13.395-3.737c-9.553-5.956-13.14-18.31-12.935-29.563          c0.123-6.563,1.25-13.165,0.234-19.649c-1.007-6.478-4.824-13.122-11.121-14.943c-6.937-2.007-14.376,2.338-21.462,0.959          c-8.191-1.593-13.238-10.781-12.591-19.105c0.32-4.22,1.357-7.701,2.953-10.649          C319.598,102.575,372.43,135.682,391.145,190.297z"/>
							</g>
						</g>
					</g>
					<g>
						<g>
							<g>
								<path style="fill:#6E72FF;" d="M458.993,270.741l5.48,44.17c3.125,25.186-12.421,48.383-35.807,55.691          c-4.466-5.134-6.645-12.185-5.923-18.955c0.768-7.284,4.834-14.125,10.771-18.417c3.814-2.763,8.274-4.472,12.47-6.618          c4.194-2.153,8.305-4.922,10.598-9.042c2.286-4.12,2.215-9.854-1.244-13.05c-2.957-2.735-7.368-2.961-11.125-4.402          c-8.098-3.113-12.906-12.955-10.379-21.246c1.154-3.8,3.644-7.531,2.743-11.396c-0.912-3.95-4.918-6.195-8.159-8.637          c-6.79-5.104-11.438-12.965-12.63-21.373c-0.587-4.162-0.335-8.428,0.691-12.501          C439.546,226.922,455.913,245.917,458.993,270.741z"/>
							</g>
						</g>
					</g>
					<g>
						<g>
							<g>
								<path style="fill:#6E72FF;" d="M375.25,378.073l-200.071,24.823c1.893-2.313,3.574-4.827,5.086-7.374          c4.086-6.867,7.363-14.275,12.38-20.499c5.018-6.217,12.332-11.258,20.319-11.053c5.08,0.135,9.839,2.342,14.71,3.816          c4.863,1.475,10.468,2.124,14.764-0.597c5.636-3.567,6.674-11.134,8.739-17.477c4.614-14.199,17.831-25.567,32.722-26.711          c14.883-1.143,30.256,8.896,34.025,23.345c1.181,4.542,1.281,9.319,2.628,13.816c1.347,4.498,4.383,8.942,8.953,10.008          c4.112,0.959,8.267-1.002,12.168-2.627c8.59-3.566,19.142-5.422,26.699,0C371.881,370.061,374.175,373.878,375.25,378.073z"/>
							</g>
						</g>
					</g>
					<g>
						<g>
							<g>
								<path style="fill:#6E72FF;" d="M166.659,313.129c-0.303,7.757-2.935,15.264-6.359,22.237          c-5.401,11.007-12.972,21.151-22.967,28.251c-12.058,8.552-27.433,12.28-42.069,10.189          c-1.814-0.259-3.607-0.607-5.388-1.043c-1.256-3.509-2.144-7.204-2.621-11.051l-5.48-44.169          c-2.984-24.047,11.064-46.285,32.707-54.603c1.111-0.427,2.235-0.816,3.379-1.169c4.96-1.522,8.23-6.217,7.884-11.393          l-0.01-0.085c-1.287-19.882,1.777-39.147,8.422-56.81c2.054,1.003,3.917,2.413,5.351,4.149          c4.744,5.74,5.696,13.732,5.306,21.165c-0.47,8.872-2.583,17.659-6.202,25.773c-2.445,5.484-5.667,11.251-4.407,17.127          c1.548,7.247,9.022,11.249,14.887,15.764C160.01,285.857,167.203,299.373,166.659,313.129z"/>
							</g>
						</g>
					</g>
				</g>
			</g>
			<g>
				<g>
					<g>
						<path style="fill:#412945;" d="M345.169,272.28l-156.774,19.451c-13.01,1.614-24.865-7.624-26.479-20.634l-8.78-70.769        c-1.614-13.01,7.624-24.865,20.634-26.479l156.774-19.451c13.01-1.614,24.865,7.624,26.479,20.634l8.78,70.769        C367.417,258.811,358.179,270.666,345.169,272.28z"/>
					</g>
				</g>
			</g>
			<g>
				<g>
					<g>
						<g>
							<path style="fill:#412945;" d="M158.682,365.016c-15.153,1.88-29.01-8.918-30.89-24.072         c-1.88-15.153,8.918-29.01,24.071-30.89c15.153-1.88,29.011,8.918,30.891,24.071         C184.633,349.278,173.835,363.135,158.682,365.016z M152.149,312.362c-13.88,1.722-23.771,14.415-22.049,28.295         c1.722,13.88,14.415,23.772,28.295,22.05c13.88-1.722,23.772-14.416,22.049-28.296         C178.722,320.531,166.029,310.64,152.149,312.362z"/>
						</g>
					</g>
				</g>
				<g>
					<g>
						<g>
							<path style="fill:#412945;" d="M410.948,333.717c-15.153,1.88-29.011-8.918-30.891-24.072         c-1.88-15.153,8.918-29.01,24.072-30.89c15.153-1.88,29.011,8.918,30.891,24.071         C436.9,317.979,426.101,331.837,410.948,333.717z M404.415,281.063c-13.88,1.722-23.772,14.416-22.05,28.296         c1.722,13.88,14.415,23.772,28.296,22.049c13.88-1.722,23.772-14.415,22.049-28.296         C430.989,289.233,418.296,279.341,404.415,281.063z"/>
						</g>
					</g>
				</g>
			</g>
			<g>
				<g>
					<g>
						<g>
							
								<ellipse transform="matrix(0.9924 -0.1231 0.1231 0.9924 -38.8458 31.9837)" style="fill:#F7EDE5;" cx="239.358" cy="330.294" rx="11.879" ry="17.818"/>
						</g>
					</g>
				</g>
				<g>
					<g>
						<g>
							<path style="fill:#F7EDE5;" d="M295.941,323.274c1.212,9.766-3.084,18.337-9.594,19.145         c-6.51,0.808-12.77-6.454-13.982-16.22c-1.212-9.766,3.084-18.337,9.594-19.145         C288.47,306.246,294.729,313.508,295.941,323.274z"/>
						</g>
					</g>
				</g>
				<g>
					<g>
						<g>
							<path style="fill:#F7EDE5;" d="M340.736,317.716c1.212,9.766-3.084,18.337-9.594,19.145         c-6.51,0.808-12.77-6.454-13.982-16.22c-1.212-9.766,3.084-18.337,9.594-19.145         C333.264,300.689,339.525,307.95,340.736,317.716z"/>
						</g>
					</g>
				</g>
			</g>
		</g>
		<g>
			<g>
				<g>
					<path style="fill:#F7EDE5;" d="M304.525,221.686c-0.217-0.193-0.506-0.283-0.794-0.247l-9.252,1.148       c-0.66-2.639-8.137-30.038-32.606-28.735c1.241-0.501,2.35-1.017,3.328-1.556c2.038-1.123,4.769-3.121,6.203-6.258       c1.692-3.7,1.224-7.566,0.495-11.873c-0.05-0.291-0.224-0.546-0.478-0.697c-0.254-0.151-0.563-0.184-0.841-0.089       c-4.847,1.645-8.828,4.358-11.513,7.847c-3.082,4.006-4.336,9.073-3.355,13.555c-21.244,5.305-20.586,30.264-20.245,35.128       l-10.275,1.275c-0.292,0.036-0.553,0.198-0.716,0.443c-0.163,0.245-0.211,0.548-0.131,0.831l4.33,15.378       c0.135,0.48,0.601,0.789,1.095,0.727l6.291-0.781l11.92,22.772c0.195,0.373,0.601,0.585,1.018,0.534l44.295-5.496       c0.466-0.058,0.83-0.43,0.879-0.897l2.839-27.243l6.871-0.852c0.502-0.062,0.88-0.487,0.885-0.993l0.097-13.159       C304.865,222.156,304.742,221.879,304.525,221.686z M260.665,182.455c2.234-2.902,5.481-5.224,9.44-6.759       c0.547,3.492,0.77,6.646-0.536,9.502c-1.205,2.636-3.57,4.354-5.341,5.33c-1.758,0.969-3.967,1.869-6.731,2.741       C257.042,189.639,258.189,185.673,260.665,182.455z M259.756,196.059c24.389-3.026,31.785,23.072,32.709,26.777l-55.004,6.824       C237.057,224.604,236.193,198.982,259.756,196.059z M292.249,263.689l-42.806,5.311l-11.277-21.544l56.784-9.688       L292.249,263.689z M302.755,234.706l-6.789,0.842c-0.009,0.001-0.016,0.006-0.025,0.008c-0.007,0.001-0.013-0.002-0.021-0.001       l-59.437,10.141l-6.103,0.757l-3.777-13.414l76.233-9.458L302.755,234.706z"/>
				</g>
			</g>
			<g>
				<g>
					<path style="fill:#F7EDE5;" d="M249.926,213.734c-1.647,0.204-2.792,1.895-2.559,3.777c0.233,1.882,1.758,3.242,3.404,3.037       c1.647-0.204,2.792-1.895,2.559-3.777C253.096,214.89,251.572,213.53,249.926,213.734z"/>
				</g>
			</g>
			<g>
				<g>
					<path style="fill:#F7EDE5;" d="M275.566,210.553c-1.647,0.204-2.792,1.895-2.559,3.777c0.234,1.882,1.758,3.242,3.404,3.037       c1.647-0.204,2.792-1.895,2.559-3.777C278.737,211.708,277.212,210.348,275.566,210.553z"/>
				</g>
			</g>
			<g>
				<g>
					<path style="fill:#F7EDE5;" d="M266.681,214.718c-0.553-0.024-1.026,0.408-1.051,0.964c-0.074,1.701-0.681,4.182-1.628,4.414       c-0.781,0.198-2.086-1.924-2.651-3.532c-0.185-0.525-0.751-0.801-1.286-0.618c-0.525,0.184-0.802,0.759-0.618,1.284       c0.315,0.899,1.977,5.223,4.728,4.881c0.101-0.013,0.204-0.031,0.308-0.057c2.789-0.684,3.124-5.358,3.162-6.288       C267.669,215.211,267.237,214.742,266.681,214.718z"/>
				</g>
			</g>
		</g>
	</g>
	<g>
		<g>
			<g>
				<g>
					<path style="fill:#412945;" d="M72.084,249.61c-0.242,0-0.486-0.061-0.711-0.188l-39.332-22.298       c-0.694-0.393-0.937-1.274-0.543-1.967c0.394-0.693,1.273-0.938,1.968-0.544l39.332,22.298       c0.693,0.393,0.937,1.274,0.543,1.967C73.075,249.346,72.587,249.61,72.084,249.61z"/>
				</g>
			</g>
			<g>
				<g>
					<path style="fill:#412945;" d="M67.479,257.733c-0.242,0-0.486-0.061-0.711-0.189l-39.331-22.298       c-0.693-0.393-0.937-1.274-0.543-1.968c0.395-0.694,1.274-0.936,1.968-0.544l39.331,22.298       c0.693,0.393,0.937,1.274,0.543,1.968C68.47,257.469,67.982,257.733,67.479,257.733z"/>
				</g>
			</g>
			<g>
				<g>
					<path style="fill:#412945;" d="M62.875,265.855c-0.242,0-0.486-0.061-0.711-0.188l-39.332-22.298       c-0.693-0.393-0.937-1.274-0.543-1.967c0.395-0.694,1.274-0.937,1.968-0.544l39.332,22.298       c0.693,0.393,0.937,1.274,0.543,1.968C63.865,265.592,63.377,265.855,62.875,265.855z"/>
				</g>
			</g>
		</g>
		<g>
			<g>
				<g>
					<path style="fill:#412945;" d="M299.739,447.454c-0.465,0-0.921-0.224-1.2-0.64c-0.444-0.662-0.267-1.559,0.395-2.003       l37.55-25.182c0.663-0.443,1.558-0.268,2.004,0.395c0.444,0.662,0.267,1.559-0.395,2.003l-37.55,25.182       C300.296,447.375,300.017,447.454,299.739,447.454z"/>
				</g>
			</g>
			<g>
				<g>
					<path style="fill:#412945;" d="M304.94,455.21c-0.465,0-0.921-0.224-1.2-0.639c-0.444-0.662-0.267-1.559,0.395-2.003       l37.551-25.182c0.663-0.444,1.559-0.268,2.004,0.395c0.444,0.662,0.267,1.559-0.395,2.003l-37.551,25.182       C305.496,455.131,305.217,455.21,304.94,455.21z"/>
				</g>
			</g>
			<g>
				<g>
					<path style="fill:#412945;" d="M310.141,462.965c-0.465,0-0.921-0.224-1.2-0.639c-0.444-0.662-0.267-1.559,0.395-2.003       l37.55-25.182c0.663-0.444,1.558-0.267,2.004,0.395c0.444,0.662,0.267,1.559-0.395,2.003l-37.55,25.182       C310.697,462.886,310.418,462.965,310.141,462.965z"/>
				</g>
			</g>
		</g>
		<g>
			<g>
				<g>
					<path style="fill:#412945;" d="M461.435,196.354c-0.308,0-0.618-0.098-0.881-0.301l-35.799-27.616       c-0.632-0.487-0.748-1.393-0.261-2.024c0.487-0.632,1.395-0.748,2.025-0.261l35.799,27.616       c0.632,0.487,0.748,1.393,0.261,2.024C462.295,196.161,461.867,196.354,461.435,196.354z"/>
				</g>
			</g>
			<g>
				<g>
					<path style="fill:#412945;" d="M455.732,203.747c-0.308,0-0.618-0.098-0.881-0.301l-35.799-27.616       c-0.632-0.487-0.748-1.393-0.261-2.025c0.486-0.632,1.395-0.748,2.025-0.261l35.799,27.616       c0.632,0.487,0.748,1.393,0.261,2.024C456.592,203.554,456.164,203.747,455.732,203.747z"/>
				</g>
			</g>
			<g>
				<g>
					<path style="fill:#412945;" d="M450.028,211.141c-0.308,0-0.618-0.098-0.881-0.301l-35.798-27.616       c-0.632-0.487-0.748-1.393-0.261-2.024c0.486-0.632,1.395-0.749,2.024-0.261l35.798,27.616       c0.632,0.487,0.748,1.393,0.261,2.024C450.888,210.947,450.46,211.141,450.028,211.141z"/>
				</g>
			</g>
		</g>
		<g>
			<g>
				<g>
					<path style="fill:#412945;" d="M168.323,60.494c-0.465,0-0.921-0.224-1.2-0.639c-0.443-0.662-0.267-1.559,0.395-2.003       l37.551-25.182c0.663-0.444,1.559-0.268,2.004,0.395c0.444,0.662,0.267,1.559-0.395,2.003l-37.551,25.182       C168.879,60.415,168.6,60.494,168.323,60.494z"/>
				</g>
			</g>
			<g>
				<g>
					<path style="fill:#412945;" d="M173.524,68.249c-0.465,0-0.921-0.224-1.2-0.64c-0.444-0.662-0.267-1.559,0.395-2.003       l37.552-25.182c0.661-0.443,1.557-0.268,2.003,0.395c0.444,0.662,0.267,1.559-0.395,2.003l-37.552,25.182       C174.08,68.17,173.801,68.249,173.524,68.249z"/>
				</g>
			</g>
			<g>
				<g>
					<path style="fill:#412945;" d="M178.724,76.004c-0.465,0-0.921-0.224-1.2-0.64c-0.444-0.662-0.267-1.559,0.395-2.003       L215.47,48.18c0.663-0.444,1.558-0.268,2.004,0.395c0.444,0.662,0.267,1.559-0.395,2.003l-37.551,25.182       C179.281,75.925,179.001,76.004,178.724,76.004z"/>
				</g>
			</g>
		</g>
		<g>
			<g>
				<path style="fill:#412945;" d="M150.217,455.494c-10.755,0-19.504-8.749-19.504-19.504c0-10.754,8.749-19.504,19.504-19.504      s19.505,8.75,19.505,19.504C169.721,446.745,160.971,455.494,150.217,455.494z M150.217,419.374      c-9.163,0-16.617,7.454-16.617,16.617s7.454,16.617,16.617,16.617c9.163,0,16.617-7.454,16.617-16.617      S159.379,419.374,150.217,419.374z"/>
			</g>
		</g>
		<g>
			<g>
				<path style="fill:#412945;" d="M352.2,82.491c-8.723,0-15.819-7.096-15.819-15.819c0-8.722,7.096-15.818,15.819-15.818      c8.722,0,15.818,7.096,15.818,15.818C368.017,75.394,360.922,82.491,352.2,82.491z M352.2,53.741      c-7.131,0-12.931,5.801-12.931,12.931c0,7.13,5.801,12.931,12.931,12.931c7.13,0,12.93-5.801,12.93-12.931      C365.13,59.542,359.329,53.741,352.2,53.741z"/>
			</g>
		</g>
		<g>
			<g>
				<path style="fill:#412945;" d="M417.07,412.739c-7.503,0-13.607-6.104-13.607-13.607c0-7.503,6.104-13.607,13.607-13.607      c7.503,0,13.606,6.104,13.606,13.607C430.676,406.635,424.573,412.739,417.07,412.739z M417.07,388.413      c-5.911,0-10.72,4.809-10.72,10.719c0,5.911,4.809,10.72,10.72,10.72c5.911,0,10.719-4.809,10.719-10.72      C427.789,393.221,422.981,388.413,417.07,388.413z"/>
			</g>
		</g>
		<g>
			<g>
				<path style="fill:#412945;" d="M476.78,252.775c-8.316,0-15.081-6.765-15.081-15.081c0-8.316,6.765-15.081,15.081-15.081      s15.082,6.765,15.082,15.081C491.862,246.009,485.095,252.775,476.78,252.775z M476.78,225.5      c-6.724,0-12.194,5.47-12.194,12.194c0,6.724,5.47,12.194,12.194,12.194s12.195-5.47,12.195-12.194      C488.974,230.97,483.503,225.5,476.78,225.5z"/>
			</g>
		</g>
		<g>
			<g>
				<path style="fill:#412945;" d="M73.184,153.258c-8.519,0-15.45-6.931-15.45-15.45c0-8.519,6.931-15.45,15.45-15.45      c8.519,0,15.449,6.931,15.449,15.45C88.633,146.327,81.703,153.258,73.184,153.258z M73.184,125.246      c-6.928,0-12.563,5.635-12.563,12.562c0,6.927,5.635,12.562,12.563,12.562c6.927,0,12.562-5.635,12.562-12.562      C85.746,130.881,80.11,125.246,73.184,125.246z"/>
			</g>
		</g>
	</g>
</g>
<g>
</g>
<g>
</g>
<g>
</g>
<g>
</g>
<g>
</g>
<g>
</g>
<g>
</g>
<g>
</g>
<g>
</g>
<g>
</g>
<g>
</g>
<g>
</g>
<g>
</g>
<g>
</g>
<g>
</g>
</svg>
