<?xml version="1.0" encoding="UTF-8"?>
<!-- Generator: Adobe Illustrator 25.2.0, SVG Export Plug-In . SVG Version: 6.00 Build 0)  -->
<svg xmlns="http://www.w3.org/2000/svg" xmlns:xlink="http://www.w3.org/1999/xlink" version="1.1" id="Capa_1" x="0px" y="0px" viewBox="0 0 499.827 499.827" style="enable-background:new 0 0 499.827 499.827;" xml:space="preserve" width="512" height="512">
<g>
	<path d="M489.74,419.471c-0.061,2.06-0.314,4.125-0.578,6.192c-0.724,5.656-1.36,11.333-3.066,16.789   c-0.086,0.274-0.173,0.547-0.263,0.819c-1.266,3.839-2.96,7.537-5.081,10.98c-2.088,3.389-4.583,6.52-7.397,9.334   c-2.921,2.92-6.176,5.495-9.64,7.74c-2.088,1.354-4.252,2.589-6.47,3.719c-6.001,3.056-12.387,4.996-19.004,6.099   c-26.641,4.445-51.342-0.799-74.324-14.853c-14.04-8.586-26.34-19.236-36.994-31.664c-8.612-10.045-16.538-20.678-24.766-31.052   c-0.543-0.685-1.072-1.381-1.813-2.335c-0.821,1.182-1.558,2.19-2.24,3.235c-7.059,10.804-14.461,21.355-22.989,31.07   c-12.407,14.134-26.363,26.343-43.402,34.668c-13.816,6.751-28.404,11.223-43.381,14.534c-19.295,4.267-38.774,5.215-58.389,3.082   c-8.648-0.94-17.104-2.893-25.15-6.308c-8.194-3.477-15.289-8.445-20.389-15.875c-0.594-0.865-1.144-1.76-1.57-2.721   c-0.379-0.856-0.735-1.765-0.81-2.708c-0.025-0.318-0.003-0.644,0.107-0.943c0.322-0.87,1.396-1.333,2.274-1.143   c0.222,0.048,0.434,0.136,0.625,0.259c0.134,0.086,0.245,0.18,0.318,0.28c8.725,12.08,20.823,18.535,35.152,21.417   c22.304,4.486,44.544,3.738,66.698-0.897c15.358-3.214,30.256-7.889,44.298-15.039c14.727-7.499,27.077-18.01,38.205-30.077   c10.246-11.11,19.518-22.932,26.672-36.317c1.982-3.709,4.996-4.155,7.94-1.175c1.27,1.285,2.343,2.77,3.457,4.202   c10.512,13.507,20.947,27.076,33.261,39.049c12.545,12.199,26.363,22.675,42.608,29.366c22.314,9.192,45.221,10.54,68.219,2.75   c15.734-5.33,26.475-16.241,31.684-32.025c1.766-5.349,2.719-11,3.19-16.605c0.207-2.465,0.289-4.94,0.244-7.413   c-0.021-1.193-0.156-2.407-0.123-3.594c0.015-0.535-0.122-1.776,0.456-2.083c1.016-0.539,1.664,2.337,1.81,2.902   C489.661,415.239,489.803,417.352,489.74,419.471z"/>
	<path d="M234.581,230.239c2.551,4.227,4.849,8.384,7.472,12.324c14.064,21.124,28.173,42.218,42.348,63.268   c4.156,6.171,8.576,12.164,12.88,18.235c0.233,0.328,0.518,0.619,0.862,1.027c0.313-0.209,0.61-0.364,0.856-0.578   c20.363-17.755,41.961-33.861,64.805-48.278c9.113-5.751,18.231-11.534,28.498-15.15c10.882-3.833,21.926-5.444,33.335-2.714   c17.521,4.192,33.78,18.754,36.051,40.686c1.515,14.635-2.169,27.961-10.19,40.043c-1.991,2.998-4.22,5.832-6.562,8.563   c-2.229,2.6-4.486,5.412-7.134,7.598c0.166-0.137,2.508,1.824,2.751,2.028c0.987,0.83,1.914,1.729,2.801,2.664   c1.77,1.865,3.379,3.872,5.029,5.842c2.223,2.653,4.321,5.405,6.298,8.247c3.98,5.749,7.366,11.912,9.975,18.403   c1.066,2.652,1.989,5.354,2.804,8.093c3.923,13.401,3.33,26.52-3.634,38.978c-2.976,5.324-7.213,9.302-12.609,12.132   c-11.224,5.887-23.078,7.229-35.514,5.458c-16.661-2.372-31.496-9.172-45.585-18.012c-13.685-8.588-25.83-19.076-37.419-30.224   c-12.334-11.866-24.463-23.947-36.682-35.933c-0.407-0.399-0.823-0.788-1.301-1.244c-0.387,0.444-0.713,0.773-0.988,1.14   c-9.703,12.919-20.65,24.744-31.898,36.306c-23.728,24.391-52.25,40.186-85.52,47.158c-21.56,4.519-42.913,3.628-63.257-5.482   c-30.83-13.806-46.866-38.364-48.863-71.621c-1.934-32.204,8.547-60.601,29.143-85.42c9.493-11.439,20.06-21.662,31.908-30.593   c13.854-10.443,27.674-20.931,41.62-31.25c4.846-3.585,10.023-6.722,15.049-10.065c0.484-0.322,0.963-0.649,1.597-1.078   c-0.353-0.639-0.675-1.237-1.011-1.826c-11.877-20.841-23.158-41.992-31.88-64.379c-4.872-12.505-9.227-25.227-11.313-38.557   c-2.093-13.376-3.106-26.84-0.535-40.251c3.471-18.109,12.785-32.415,28.614-42.216c14.45-8.947,29.981-14.773,47.11-15.276   c13.968-0.409,27.499,2.39,40.735,6.738c13.188,4.332,25.501,10.428,36.61,18.743c17.728,13.268,27.794,30.999,30.961,52.962   c3.584,24.853-3.816,46.602-17.458,66.877c-13.99,20.792-31.887,37.704-51.805,52.637c-5.721,4.289-11.519,8.476-17.28,12.712   C235.791,229.298,235.339,229.658,234.581,230.239z M202.782,252.839c-0.631,0.422-1.139,0.712-1.59,1.072   c-9.163,7.309-18.384,14.546-27.45,21.973c-4.529,3.71-8.822,7.713-13.133,11.68c-7.926,7.292-14.504,15.771-21.253,24.116   c-4.642,5.739-8.829,11.752-11.828,18.449c-3.396,7.583-6.517,15.316-9.262,23.156c-3.202,9.146-3.469,18.585-1.529,28.107   c2.342,11.493,8.968,20.039,17.713,27.499c7.571,6.459,16.039,8.856,25.728,7.957c9.564-0.888,18.575-3.873,27.412-7.365   c14.716-5.814,27.916-14.343,40.691-23.523c15.457-11.108,29.35-24.088,43.424-36.842c0.165-0.15,0.286-0.348,0.576-0.708   C245.54,319.227,223.793,286.423,202.782,252.839z M218.667,198.643c0.232-0.096,0.413-0.128,0.539-0.23   c0.82-0.663,1.643-1.324,2.437-2.017c10.173-8.882,19.661-18.451,28.391-28.749c14.577-17.199,24.519-36.763,29.597-58.758   c3.465-15.011,3.298-29.736-3.31-44.016c-3.746-8.096-8.463-15.443-15.787-20.737c-6.078-4.393-12.883-7.405-20.053-9.571   c-13.651-4.124-26.785-3.465-39.309,3.985c-8.829,5.252-14.672,12.529-16.781,22.727c-1.372,6.634-2.059,13.316-2.082,20.071   c-0.058,17.464,3.472,34.373,8.448,50.975c6.819,22.753,16.871,44.195,27.363,65.433   C218.272,198.063,218.479,198.34,218.667,198.643z M315.343,346.764c0.356,0.469,0.553,0.76,0.782,1.024   c1.96,2.257,3.915,4.518,5.891,6.76c13.686,15.525,28.977,29.355,44.972,42.428c12.732,10.406,26.15,19.836,40.618,27.696   c7.976,4.333,16.317,7.618,25.448,8.709c9.57,1.143,16.463-5.78,17.673-12.86c0.691-4.047,1.038-8.343,0.48-12.38   c-2.369-17.175-9.786-31.999-21.814-44.508c-0.686-0.714-1.198-0.857-2.088-0.326c-2.011,1.199-4.055,2.361-6.163,3.379   c-15.198,7.34-30.939,9.078-47.147,4.014c-9.31-2.908-16.239-8.698-19.762-18.082c-1.703-4.536-1.285-8.83,1.245-12.964   c2.771-4.527,6.622-7.685,11.63-9.443c7.001-2.458,14.156-2.485,21.351-1.214c12.722,2.248,24.25,7.426,34.991,14.486   c0.764,0.502,1.539,0.987,2.38,1.524c0.784-1.045,1.512-1.893,2.101-2.828c0.967-1.535,1.958-3.071,2.741-4.702   c5.869-12.228,7.49-25.029,5.117-38.37c-1.071-6.02-3.028-11.61-7.835-15.699c-1.282-1.09-2.956-1.954-4.589-2.354   c-5.67-1.388-11.312-0.588-16.856,0.865c-16.237,4.253-30.503,12.543-44.126,22.002c-15.574,10.814-29.191,23.878-42.204,37.595   C318.568,343.211,317.009,344.952,315.343,346.764z M417.012,353.661c-0.223-0.266-0.31-0.431-0.446-0.522   c-8.185-5.548-17.115-9.42-26.741-11.613c-1.957-0.446-4.086-0.466-6.094-0.265c-2.094,0.21-2.86,1.463-2.514,3.451   c0.709,4.082,2.771,7.382,6.309,9.514c2.344,1.413,4.873,2.611,7.455,3.518C403.043,360.576,410.235,358.393,417.012,353.661z"/>
	<path d="M76.703,123.314c0.382-8.162,0.391-16.506,1.245-24.761c1.385-13.404,4.312-26.527,10.193-38.749   c9.863-20.497,25.393-34.397,47.786-39.993c4.83-1.207,9.722-1.525,14.639-0.553c0.962,0.19,1.981,0.461,2.776,0.991   c0.511,0.341,0.927,1.244,0.88,1.855c-0.032,0.411-0.919,1.016-1.476,1.082c-3.022,0.358-6.13,0.253-9.08,0.897   c-13.475,2.941-24.963,9.419-34.457,19.522c-12.898,13.726-20.253,30.193-23.829,48.4c-4.684,23.845-3.254,47.422,3.89,70.697   c2.621,8.541,6.075,16.715,9.558,24.903c0.801,1.884,1.524,3.806,2.175,5.747c0.391,1.163,0.432,2.438-0.91,3.049   c-1.383,0.63-2.349-0.145-3.044-1.317c-0.239-0.402-0.482-0.811-0.65-1.244c-4.782-12.326-10.804-24.182-14.099-37.07   c-0.986-3.856-1.754-7.77-2.792-11.612c-2.376-8.793-5.896-17.15-9.938-25.294c-3.109-6.265-6.591-12.287-11.361-17.48   c-2.76-3.004-5.799-5.627-9.474-7.462c-11.555-5.771-23.959,1.297-24.982,14.154c-0.607,7.621,1.757,13.722,8.476,17.787   c2.561,1.549,5.192,2.207,7.882,0.258c2.23-1.616,3.686-5.573,2.866-8.376c-0.271-0.926-1.033-1.847-1.816-2.452   c-1.289-0.995-2.838-1.649-4.151-2.618c-0.087-0.064-0.162-0.144-0.229-0.236c-0.608-0.837-0.141-2.133,0.881-2.29   c0.083-0.013,0.165-0.016,0.245-0.007c4.678,0.503,7.869,4.08,7.962,8.786c0.132,6.727-4.06,12.224-10.1,12.733   c-2.132,0.18-4.508-0.217-6.493-1.033c-8.819-3.626-13.267-10.508-14.239-19.872c-1.38-13.289,6.982-24.817,19.8-26.899   c6.227-1.011,12.128,0.229,17.548,3.545c4.783,2.927,8.521,6.93,11.829,11.392c5.067,6.835,8.59,14.492,11.921,22.254   C76.355,122.568,76.595,123.076,76.703,123.314z"/>
	<path d="M80.162,227.26c-1.355-0.681-2.376-1.201-3.402-1.71c-8.424-4.175-16.123-9.297-22.306-16.528   c-9.709-11.354-11.909-28.749-5.037-41.689c1.085-2.043,2.626-3.863,4.095-5.674c0.666-0.821,1.658-1.848,2.842-0.941   c1.246,0.955,0.5,2.111-0.157,3.111c-2.98,4.529-4.928,9.43-5.499,14.855c-1.177,11.182,1.81,20.991,9.552,29.258   c8.392,8.962,18.887,14.355,30.535,17.58c2.751,0.761,5.828,0.288,8.742,0.538c1.382,0.119,2.777,0.477,4.086,0.951   c1.859,0.673,2.729,2.182,2.44,3.794c-0.277,1.542-1.705,2.656-3.646,2.704c-1.107,0.027-2.273,0.062-3.319-0.236   c-3.895-1.111-7.751-0.802-11.651-0.068c-11.316,2.131-22.099,5.564-30.97,13.286c-8.36,7.278-13.918,16.285-15.578,27.38   c-1.655,11.061,7.33,21.522,18.535,21.763c6.2,0.133,10.422-3.178,13.413-8.185c2.83-4.737,3.203-9.799,0.52-14.737   c-0.859-1.582-2.273-3.013-3.748-4.077c-2.702-1.948-6.249-0.634-7.176,2.581c-0.938,3.256-1.228,6.539,0.321,9.788   c0.004,0.007,0.007,0.015,0.011,0.022c0.593,1.296-0.719,2.693-2.101,2.344c-0.304-0.077-0.583-0.187-0.819-0.359   c-0.877-0.638-1.54-1.783-1.927-2.842c-1.36-3.719-1.269-7.533,0.145-11.187c2.243-5.795,8.159-7.501,13.235-3.876   c4.227,3.018,6.468,7.288,7.412,12.334c2.301,12.3-7.402,25.447-19.497,25.936c-10.826,0.438-19.174-4.342-24.834-13.476   c-5.356-8.643-4.471-17.749-0.916-26.729c6.196-15.649,17.554-26.052,33.251-31.78c3.954-1.443,8.065-2.457,12.103-3.671   C79.13,227.627,79.438,227.509,80.162,227.26z"/>
	<path d="M376.886,198.398c1.078-0.567,2.154-1.14,3.236-1.699c9.786-5.058,20.113-8.121,31.199-7.928   c10.986,0.192,20.296,4.036,26.643,13.45c3.837,5.691,5.034,11.928,2.959,18.6c-2.409,7.745-12.025,13.338-19.321,11.289   c-5.745-1.613-9.825-8.116-8.503-13.603c0.176-0.729,0.458-1.461,0.834-2.109c1.818-3.134,4.577-5.309,7.635-7.096   c0.072-0.042,0.152-0.072,0.238-0.091c1.145-0.255,2.029,1.221,1.248,2.12c-1.443,1.611-3.154,2.994-4.506,4.672   c-3.609,4.477-1.526,10.551,4.057,12.145c2.125,0.607,4.168,0.397,6.167-0.499c6.599-2.96,9.547-9.367,7.286-16.254   c-2.198-6.692-7.135-10.757-13.535-13.082c-7.536-2.738-15.226-2.166-22.888-0.475c-13.366,2.95-24.774,9.715-35.32,18.169   c-12.549,10.06-23.094,21.934-32.017,35.277c-8.977,13.425-16.529,27.651-23.49,42.196c-1.254,2.621-1.976,5.498-2.928,8.262   c-0.228,0.663-0.249,1.449-0.629,1.996c-0.07,0.101-0.146,0.198-0.227,0.292c-0.854,0.993-2.545,0.842-2.962-0.4   c-0.031-0.093-0.053-0.186-0.062-0.281c-0.459-4.48,0.615-8.737,2.344-12.828c5.531-13.093,12.344-25.515,19.839-37.571   c9.242-14.867,20.092-28.41,33.245-40.032c2.195-1.94,4.329-3.992,6.729-5.648c4.542-3.135,7.642-7.397,10.119-12.172   c3.456-6.663,5.881-13.658,6.218-21.244c0.117-2.629-0.208-5.157-1.948-7.299c-1.565-1.927-3.301-2.429-5.625-1.628   c-4.138,1.427-7.284,6.76-6.267,10.624c0.333,1.266,1.017,2.757,2.419,3.088c1.482,0.35,2.831-0.759,4.003-1.495   c0.129-0.081,0.263-0.164,0.415-0.182c0.286-0.035,0.55,0.173,0.706,0.415c0.322,0.498,0.322,1.15,0.142,1.715   c-0.602,1.885-2.5,3.344-4.458,3.497c-1.944,0.152-4.118-0.535-5.454-1.996c-1.762-1.927-2.731-4.209-2.777-6.848   c-0.101-5.78,4.222-11.776,9.744-13.524c3.672-1.162,6.824-0.329,9.428,2.492c3.302,3.577,4.118,7.909,3.706,12.583   c-0.691,7.845-3.22,15.082-7.251,21.819c-0.208,0.349-0.411,0.701-0.616,1.052C376.736,198.241,376.811,198.319,376.886,198.398z"/>
	<path d="M314.073,54.27c0.083-0.145,0.235-0.26,0.4-0.303c0.268-0.07,0.552,0.008,0.804,0.121c1.028,0.461,1.97,1.109,2.743,1.936   c4.249,4.544,8.242,9.289,11.122,14.872c6.409,12.422,10.186,25.565,10.511,39.569c0.213,9.166-1.828,18.065-4.474,26.753   c-5.861,19.24-15.775,36.185-29.292,51.117c-13.276,14.667-27.737,27.942-44.018,39.21c-2.939,2.034-5.748,4.254-8.67,6.313   c-1.092,0.769-2.299,1.413-3.532,1.926c-0.472,0.197-1.453,0.062-1.677-0.273c-0.251-0.374-0.108-1.31,0.218-1.717   c1.021-1.275,2.101-2.546,3.352-3.586c4.596-3.821,9.15-7.708,13.939-11.275c8.578-6.389,16.676-13.316,24.166-20.935   c8.425-8.57,16.785-17.211,23.877-26.966c8.211-11.295,14.429-23.614,17.99-37.104c1.71-6.477,2.921-13.198,3.355-19.874   c0.704-10.819-1.62-21.358-5.141-31.551c-1.534-4.442-3.152-8.869-5.229-13.091c-2.187-4.446-5.017-8.522-8.303-12.214   c-0.647-0.727-1.294-1.454-1.941-2.181c-0.117-0.131-0.239-0.274-0.264-0.448C313.996,54.463,314.021,54.361,314.073,54.27z"/>
	<path d="M138.921,214.68c-8.648-0.148-15.623-5.617-17.073-13.478c-1.722-9.342,5.074-18.445,14.797-19.767   c4.528-0.616,8.729,0.327,12.563,2.845c5.859,3.847,9.054,9.064,7.549,16.201c-1.593,7.558-6.763,11.779-14.021,13.662   C141.502,214.463,140.195,214.508,138.921,214.68z"/>
	<path d="M304.376,444.658c-1.209,3.92-2.231,7.524-3.429,11.068c-3.83,11.333-9.737,21.418-18.266,29.843   c-4.159,4.108-8.91,7.573-14.205,10.05c-7.324,3.425-14.44,4.754-22.289,4.006c-1.908-0.182-6.233-0.648-5.533-3.543   c0.379-1.567,1.718-1.359,2.88-1.247c12.361,1.187,23.018-3.148,32.353-10.713c10.147-8.224,17.209-18.836,21.404-31.197   c1.798-5.3,2.892-10.839,4.297-16.271c0.147-0.566,0.188-1.161,0.357-1.718c0.801-2.649,3.692-3.346,5.471-1.207   c0.874,1.052,1.504,2.384,1.966,3.687c1.371,3.863,2.541,7.797,3.903,11.663c2.559,7.265,5.908,14.04,12.076,19.038   c5.257,4.26,11.55,6.071,17.924,7.685c3.487,0.883,7.025,1.257,10.624,0.669c0.005-0.001,0.01-0.002,0.015-0.002   c0.898-0.133,1.587,0.829,1.313,1.695c-0.045,0.141-0.102,0.273-0.179,0.393c-1.093,1.692-2.88,2.109-4.732,2.251   c-4.451,0.341-8.756-0.526-12.991-1.753c-5.918-1.715-11.802-3.585-16.794-7.368c-7.113-5.391-11.497-12.698-14.331-21.027   C305.573,448.785,305.049,446.872,304.376,444.658z"/>
	<path d="M28.712,367.066c0.054-12.327,2.151-24.154,9.165-34.632c1.46-2.18,3.161-4.216,4.903-6.185   c1.137-1.285,2.618-2.236,4.475-2.023c0.502,0.057,1.185,0.416,1.37,0.824c0.185,0.41,0.029,1.201-0.28,1.574   c-5.036,6.081-7.888,13.25-10.137,20.665c-3.677,12.124-3.456,24.459-2.043,36.93c1.924,16.98,8.904,31.772,18.624,45.502   c1.049,1.482,2.142,2.948,3.01,4.533c0.04,0.073,0.071,0.151,0.094,0.233c0.334,1.177-0.881,2.247-2.06,1.923   c-0.129-0.035-0.25-0.084-0.36-0.15c-0.87-0.525-1.529-1.432-2.21-2.234c-13.11-15.444-21.537-32.961-23.574-53.304   c-0.309-3.09-0.698-6.172-0.956-9.266C28.611,370.003,28.712,368.531,28.712,367.066z"/>
	<path d="M355.803,99.92c-0.662-0.385-0.56-1.436-0.724-2.18c-7.407-33.428-27.381-57.289-56.967-73.264   c-4.032-2.177-8.195-4.115-12.472-5.759c-4.263-1.639-8.641-2.984-13.097-3.989c-4.484-1.011-9.047-1.676-13.635-1.969   c-1.677-0.107-3.35-0.121-5.027-0.096c-1.649,0.024-3.33-0.06-4.9-0.611c-0.447-0.157-0.936-0.414-1.038-0.877   c-0.112-0.508,0.295-1.085,0.701-1.356c0.572-0.382,1.298-0.497,1.959-0.628c5.754-1.141,11.551-0.918,17.336-0.26   c15.374,1.75,29.222,7.496,41.769,16.387c15.615,11.065,28.6,24.536,37.471,41.706c3.829,7.411,5.698,15.455,7.897,23.396   c0.653,2.357,1.054,4.789,1.481,7.202c0.123,0.696,0.366,1.627-0.115,2.173C356.299,99.958,355.99,100.029,355.803,99.92z"/>
	<path d="M383.859,136.183c-7.85,0.016-14.337-6.669-14.319-14.754c0.015-6.945,5.509-12.641,12.3-12.458   c8.433,0.227,14.117,6.769,14.279,15.02C396.255,130.941,390.859,136.169,383.859,136.183z"/>
	<path d="M415.231,133.198c7.592,0.119,14.37,6.939,14.263,14.351c-0.102,7.061-5.863,12.5-13.073,12.342   c-7.607-0.167-14.145-6.885-13.978-14.363C402.597,138.682,408.395,133.091,415.231,133.198z"/>
	<path d="M117.139,166.229c-6.623-0.008-12.664-4.444-14.393-10.571c-2.391-8.471,4.429-16.253,13.107-14.837   c5.363,0.875,9.681,3.402,12.078,8.546C131.833,157.742,126.392,166.24,117.139,166.229z"/>
	<path d="M397.708,235.265c-0.054,6.519-5.367,11.843-11.738,11.764c-7.044-0.088-13.382-6.014-13.279-12.415   c0.112-6.967,6.486-13.049,13.634-12.926C393.964,221.819,397.086,227.33,397.708,235.265z"/>
	<path d="M369.509,77.057c-0.349,0.011-0.587-1.367-0.681-1.851c-2.137-10.958-7.069-20.628-13.461-29.67   c-8.072-11.42-17.735-21.176-29.441-28.888c-9.727-6.408-20.198-10.872-31.822-12.311c-2.781-0.344-5.615-0.236-8.416-0.45   c-0.645-0.049-1.254-0.57-1.879-0.874c0.48-0.599,0.838-1.465,1.461-1.752c2.901-1.335,6.028-1.388,9.138-1.154   c9.637,0.725,18.563,3.862,26.943,8.494c17.112,9.459,30.863,22.434,40.184,39.744c3.69,6.853,6.682,14.068,8.473,21.696   C370.516,72.207,371.479,77.069,369.509,77.057z"/>
	<path d="M344.807,154.607c0.411,0.983-0.915,4.008-1.903,5.703c-3.329,5.707-6.799,11.339-10.402,16.877   c-12.72,19.553-29.387,35.33-47.576,49.673c-8.003,6.311-16.046,12.601-23.157,19.963c-0.774,0.801-1.655,2.029-2.906,1.216   c-0.283-0.184,0.183-2.013,0.696-2.843c2.837-4.591,6.717-8.272,10.793-11.723c8.544-7.233,17.329-14.189,25.706-21.607   c10.131-8.97,20.394-17.877,28.808-28.558c6.848-8.694,13.343-17.673,18.28-27.655c0.18-0.363,0.404-0.708,0.645-1.034   c0.086-0.116,0.267-0.212,0.43-0.222C344.428,154.386,344.715,154.421,344.807,154.607z"/>
	<path d="M122.936,111.352c-0.017,6.15-5.727,11.44-11.837,10.744c-5.049-0.575-9.017-2.9-10.784-7.973   c-1.672-4.803-0.518-9.005,3.086-12.514c3.062-2.982,7.126-3.606,11.026-1.827C120.319,102.468,122.95,106.046,122.936,111.352z"/>
	<path d="M32.622,429.683c-0.821,0.575-1.896,0.648-2.831,0.286c-1.039-0.402-2.031-0.78-2.769-1.441   c-2.203-1.975-4.406-4.065-6.107-6.464c-4.582-6.463-6.908-13.88-8.411-21.586c-0.739-3.788-1.531-7.566-2.286-11.35   c-0.09-0.449-0.162-1.192-0.138-1.65c0.063-1.21,0.382-2.401,1.771-2.584c1.418-0.187,1.504,1.217,1.78,2.183   c1.877,6.58,3.521,13.234,5.64,19.734c2.207,6.77,5.351,13.117,10.477,18.261c0.782,0.786,1.73,1.413,2.473,2.23   c0.461,0.506,1.086,1.394,0.915,1.816C33.045,429.337,32.86,429.516,32.622,429.683z"/>
	<path d="M169.583,303.007c-0.173,0.155-0.362,0.295-0.518,0.466c-14.564,15.882-26.661,33.26-32.949,54.18   c-2.951,9.818-3.663,19.647-0.566,29.585c2.574,8.261,7.632,14.042,16.188,16.237c3.096,0.794,6.311,1.129,9.471,1.676   c0.007,0.001,0.015,0.003,0.022,0.004c1.261,0.202,1.423,1.939,0.191,2.276c-0.368,0.101-0.737,0.155-1.053,0.172   c-2.255,0.118-4.555-0.004-6.796-0.318c-11.559-1.62-19.002-8.145-23.066-19.031c-4.012-10.746-3.363-21.389-0.059-32.061   c3.679-11.884,9.029-22.974,16.001-33.298c7.745-11.468,16.714-21.852,26.779-31.348c8.738-8.243,17.251-16.725,25.878-25.086   c0.845-0.819,1.681-2.238,3.057-1.362c1.456,0.927,1.138,2.569,0.4,3.78c-2.007,3.294-4.022,6.609-6.346,9.679   c-4.668,6.168-9.555,12.169-14.33,18.256c-7.533,9.603-14.013,19.787-17.592,31.603c-1.974,6.519-2.395,12.961,0.122,19.462   c3.121,8.059,11.844,12.904,19.755,10.833c9.032-2.365,15.024-12.942,12.34-21.857c-0.298-0.99-0.75-1.998-1.372-2.815   c-1.341-1.76-3.83-2.38-5.874-1.586c-3.479,1.352-4.292,6.338-3.935,9.595c0.117,1.069,0.494,3.221-0.985,3.55   c-1.083,0.242-2.319-1.12-2.578-2.049c-0.184-0.659-0.191-1.352-0.188-2.036c0.016-3.197,0.168-7.04,2.21-9.68   c1.751-2.263,4.707-3.486,7.529-3.472c3.366,0.017,6.405,2.226,7.716,5.925c2.958,8.347,0.581,18.293-7.687,24.826   c-7.133,5.636-16.574,5.683-24.167,0.232c-8.739-6.274-12.583-17.32-9.961-28.814c2.071-9.078,6.045-17.335,11.037-25.138   c0.472-0.738,0.96-1.465,1.441-2.197C169.66,303.133,169.621,303.07,169.583,303.007z"/>
	<path d="M192.93,81.001c0.294,11.441,2.477,22.589,5.091,33.665c1.497,6.341,3.056,12.669,4.83,18.939   c1.761,6.222,4.094,12.226,6.009,18.386c0.12,0.385,0.231,0.793,0.144,1.187c-0.088,0.394-0.444,0.757-0.845,0.71   c-0.291-0.034-0.517-0.264-0.709-0.486c-1.934-2.241-2.835-5.197-3.947-7.893c-1.269-3.078-2.511-6.168-3.652-9.296   c-4.948-13.565-8.666-27.475-10.945-41.736c-1.279-8.005-2.177-16.119-0.17-24.115c3.861-15.38,13.205-26.028,28.699-30.023   c3.878-1,7.89-1.509,11.897-1.36c3.751,0.139,7.47,0.86,11.001,2.134c3.585,1.293,6.954,3.139,10.045,5.362   c2.085,1.5,4.086,3.106,5.928,4.9c0.784,0.763,2.455,2.229,1.941,3.479c-0.289,0.703-1.056,1.186-1.812,0.913   c-0.092-0.033-0.178-0.075-0.257-0.128c-3.21-2.153-6.249-4.569-9.505-6.645c-15.974-10.186-35.946-6.618-47.344,8.498   c-3.727,4.943-5.375,10.752-6.029,16.841C193.062,76.543,193.047,78.777,192.93,81.001z"/>
	<path d="M332.017,343.343c-0.103-0.634,0.497-1.211,0.882-1.711c17.392-22.617,39.59-38.894,65.899-49.641   c6.554-2.677,13.446-4.141,20.612-3.298c3.987,0.469,7.359,2.321,10.083,5.237c1.645,1.761,1.284,5.105,0.213,5.454   c-0.309,0.052-0.405-0.609-0.51-0.925c-1.236-3.718-4.383-5.012-7.716-5.917c-4.262-1.157-8.509-0.496-12.668,0.638   c-11.401,3.108-21.826,8.402-31.927,14.407c-14.277,8.486-26.671,19.255-38.035,31.286c-1.363,1.443-2.877,2.751-4.393,4.036   c-0.529,0.448-1.215,1.067-1.922,0.948C332.296,343.816,332.056,343.583,332.017,343.343z"/>
	<path d="M392.462,386.285c-7.589,0.008-15.247-1.502-22.251-3.972c-4.028-1.42-7.668-3.48-10.908-6.24   c-1.021-0.87-2.027-1.803-2.823-2.869c-0.08-0.107-0.14-0.228-0.188-0.359c-0.349-0.969,0.586-2.021,1.555-1.671   c0.086,0.031,0.167,0.07,0.241,0.12c5.316,3.54,11.032,6.11,17.251,7.612c9.571,2.311,19.257,2.899,28.933,1.239   c7.204-1.237,13.329-5.261,19.523-8.935c0.75-0.445,1.494-0.919,2.294-1.254c0.371-0.155,1.111-0.172,1.255,0.04   c0.248,0.364,0.246,0.968,0.183,1.449c-0.05,0.379-0.299,0.766-0.548,1.079c-0.434,0.547-0.868,1.134-1.421,1.544   c-5.4,3.999-11.164,7.654-17.572,9.802C403.008,385.537,397.752,386.28,392.462,386.285z"/>
</g>















</svg>
