<?xml version="1.0" encoding="UTF-8"?>
<!-- Generator: Adobe Illustrator 26.5.1, SVG Export Plug-In . SVG Version: 6.00 Build 0)  -->
<svg xmlns="http://www.w3.org/2000/svg" xmlns:xlink="http://www.w3.org/1999/xlink" version="1.1" id="Capa_1" x="0px" y="0px" viewBox="0 0 512 512" style="enable-background:new 0 0 512 512;" xml:space="preserve" width="512" height="512">
<g>
	<path style="fill:#FFFFFF;" d="M81.672,512c-19.623,0-37.25-10.585-46.002-27.626c-7.953-15.489-6.512-32.21,4.008-47.333   c9.371-28.649,30.603-62.342,50.258-91.669c8.365-12.48,16.734-23.576,24.981-33.131L95.05,293.271   c-4.969-4.747-5.655-12.438-1.603-17.988l17.949-24.582c2.31-3.164,5.865-5.189,9.765-5.559c0.073-0.007,0.145-0.013,0.217-0.02   c-66.01-77.102-87.66-132.786-66.175-169.715c12.181-20.934,30.348-31.998,52.54-31.998c17.206,0,36.918,6.739,58.726,20.055   c-1.252-4.415-1.898-9.004-1.898-13.618C164.57,22.361,186.931,0,214.415,0c25.631,0,46.807,19.449,49.546,44.363   c1.454,0.346,2.902,0.714,4.346,1.104c23.021-30.148,46.669-45.418,70.383-45.418c13.834,0,27.195,5.198,39.716,15.448   c29.911,24.49,32.04,75.686,6.346,156.088l7.302,6.801l9.49-8.117c2.494-2.132,5.655-3.287,8.904-3.287   c0.493,0,0.989,0.027,1.485,0.08c3.756,0.41,7.177,2.352,9.452,5.369l17.643,23.391c4.164,5.521,3.561,13.279-1.405,18.091   l-35.549,34.438c-1.326,1.461-2.973,2.645-4.862,3.427c-0.331,0.138-0.665,0.261-1.001,0.372c-1.436,0.484-2.943,0.736-4.46,0.736   c-1.685,0-3.377-0.31-4.989-0.952c-2.349-0.934-4.356-2.455-5.85-4.362l-17.848-17.045c-4.014,9.791-8.321,19.85-12.894,30.119   c37.367,16.815,90.184,46.274,105.984,83.722c17.601,41.723,36.373,112.639,17.149,139.547   c-8.934,16.396-26.221,26.529-45.42,26.529c-0.001,0-0.001,0-0.002,0c-7.255,0-14.538-1.518-21.198-4.404H106.188l-1.339,0.649   C97.675,510.163,89.656,512,81.672,512z"/>
	<g>
		<path style="fill:#FFC666;" d="M369.64,25.136c-63.059-51.63-120.691,72.88-136.692,111.749    c-30.001-32.073-125.547-125.06-165.991-55.548c-48.291,83.001,209.415,294.694,209.415,294.694l-1.492-9.987l1.798,8.459    C276.678,374.503,443.939,85.971,369.64,25.136z"/>
		<g>
			
				<ellipse transform="matrix(0.7071 -0.7071 0.7071 0.7071 28.2089 165.8713)" style="fill:#B179FF;" cx="214.329" cy="48.885" rx="36.145" ry="36.145"/>
			
				<ellipse transform="matrix(0.1602 -0.9871 0.9871 0.1602 215.5197 403.551)" style="fill:#B179FF;" cx="344.918" cy="75.119" rx="36.145" ry="36.145"/>
			<g>
				<path style="fill:#FF93E2;" d="M347.752,170.815c-2.069-7.745-9.222-13.86-17.195-14.7c-2.34-0.246-4.541-0.077-6.623,0.37      l2.586-15.783l-0.276-0.037c0.166-2.059,0.276-4.137,0.276-6.233c0-41.134-33.337-74.471-74.471-74.471      s-66.913,26.129-73.184,66.785c-0.699,4.579-0.349,13.846-0.202,20.355l-0.055,16.163l-0.11,37.732      c-0.294,7.337,2.574,13.68,6.748,18.701c7.208,8.661,13.366,12.091,24.125,12.816l25.945,0.46l4.119,0.074l-0.717,14.82      l-0.791,16.2l21.385,23.739l57.517-29.421l3.165-54.93c0.327,0.064,0.654,0.137,0.98,0.192      c3.434,0.576,6.992,0.757,10.374-0.071c9.869-2.414,15.899-12.91,16.96-23.014C348.651,177.307,348.596,173.977,347.752,170.815      z"/>
				<g>
					<g>
						<g style="opacity:0.72;">
							
								<ellipse transform="matrix(0.3827 -0.9239 0.9239 0.3827 -6.7176 372.4555)" style="opacity:0.52;fill:#B179FF;" cx="275.351" cy="191.255" rx="28.482" ry="28.482"/>
							<path style="opacity:0.52;fill:#B179FF;" d="M178.498,200.996c-0.294,7.337,2.574,13.681,6.748,18.7         c15.115-0.662,27.196-13.129,27.196-28.446c0-15.722-12.761-28.483-28.483-28.483c-1.82,0-3.622,0.165-5.351,0.496         L178.498,200.996z"/>
						</g>
						<g>
							<circle style="fill:#2E1144;" cx="263.856" cy="165.832" r="7.817"/>
							<circle style="fill:#2E1144;" cx="197.723" cy="165.832" r="7.817"/>
							
								<path style="fill:none;stroke:#2E1144;stroke-width:2.1453;stroke-linecap:round;stroke-linejoin:round;stroke-miterlimit:10;" d="         M237.088,176.152c0,0-2.191,14.515-9.859,14.241c-7.668-0.274-8.685-15.023-8.685-15.023"/>
							<g>
								<path style="fill:#B179FF;" d="M278.168,153.383c0,0-2.817-11.268-11.267-11.268s-10.954,4.069-10.954,4.069          L278.168,153.383z"/>
								<path style="fill:#B179FF;" d="M183.579,151.105c0,0,4.404-10.747,12.767-9.535c8.363,1.212,10.258,5.598,10.258,5.598          L183.579,151.105z"/>
							</g>
						</g>
					</g>
					<path style="opacity:0.44;fill:#2E1144;" d="M239.447,233.911l-0.729,13.956c6.27,3.034,13.956,4.744,22.544,2.538       c23.169-5.939,31.632-19.116,31.632-19.116l-53.572,1.873L239.447,233.911z"/>
				</g>
				<path style="fill:#B179FF;" d="M338.96,159.788c-2.337-2.476-5.866-3.773-9.251-3.4c-4.494,0.495-8.31,3.747-10.638,7.622      c-2.328,3.876-3.443,8.122-4.492,12.52c-4.663-2.308-8.081-6.681-10.045-11.499c-1.964-4.818-2.597-10.077-2.773-15.277      c-7.621-3.39-13.887-9.725-17.194-17.382c-3.307-7.658-3.622-16.562-0.865-24.434c-6.783-4.756-10.035-13.442-9.898-21.725      c0.138-8.283,3.232-16.242,7.017-23.611c0,0,63.806,18.639,66.138,36.129C349.291,116.22,338.96,159.788,338.96,159.788z"/>
				<path style="fill:#B179FF;" d="M227.75,127.193c7.082-1.431,12.913-6.692,16.698-12.847c3.784-6.154,5.815-13.198,7.82-20.139      c0.364-1.261,0.798-2.62,1.876-3.37c1.049-0.729,2.426-0.686,3.703-0.724c9.401-0.277,18.246-7.112,20.885-16.139      c1.032-3.531,1.429-7.694,4.399-9.864c-20.579-8.813-44.358-12.849-66.625-10.532c-8.225,0.856-16.468,2.519-23.908,6.129      c-11.217,5.442-20.052,15.127-25.813,26.183c-5.762,11.056-8.614,23.442-9.825,35.85c-0.54,5.535,8.925,6.823,14.459,7.363      c8.618,0.84,17.416-0.215,25.591-3.069c0.734-0.256,1.485-0.531,2.262-0.513c0.995,0.023,1.909,0.52,2.791,0.981      c3.852,2.012,8.018,3.593,12.357,3.827C218.761,130.565,224.615,130.201,227.75,127.193z"/>
				<g>
					
						<path style="fill:none;stroke:#2E1144;stroke-width:1.7582;stroke-linecap:round;stroke-linejoin:round;stroke-miterlimit:10;" d="       M321.465,191.075c0.733-5.463,2.147-10.834,4.198-15.951c0.855-2.134,1.837-4.249,3.291-6.029       c1.949-2.386,4.727-4.081,7.741-4.724"/>
					
						<path style="fill:none;stroke:#2E1144;stroke-width:1.7582;stroke-linecap:round;stroke-linejoin:round;stroke-miterlimit:10;" d="       M324.416,179.106c1.27-2.262,3.4-4.131,5.941-4.65c2.541-0.519,5.447,0.53,6.722,2.789c0.41,0.727,0.645,1.543,0.759,2.37       c0.418,3.025-0.768,6.068-2.432,8.628c-0.215,0.331-0.631,0.697-0.945,0.457"/>
				</g>
			</g>
		</g>
		<path style="fill:#2E1144;" d="M410.804,491.38H93.072c0,0,17.764-140.336,37.31-172.577    c23.313-38.475,93.847-54.207,93.847-54.207l1.758-21.578l95.605-2.923l3.493,26.236c0,0,67.063,19.82,82.795,79.872    C423.614,406.256,410.804,491.38,410.804,491.38z"/>
		<path style="fill:#2E1144;" d="M319.073,261.676c0,0,103.384,37.311,124.371,87.06c20.988,49.748,31.669,109.923,18.166,126.864    c-13.503,16.94-36.822,18.495-36.822,18.495l-71.513-13.214L319.073,261.676z"/>
		<path style="fill:#2E1144;" d="M161.86,289.076c0,0-23.902,8.162-60.631,62.963C64.501,406.84,28.355,468.637,61.003,488.458    c32.647,19.822,71.708-17.49,71.708-17.49L161.86,289.076z"/>
		<g>
			<g>
				<path style="fill:#B179FF;" d="M270.011,456.262c-3.768-4.864-8.426-8.905-13.563-11.965c3.174-6.256,4.658-13.084,4.202-19.728      c-0.16-2.238-0.731-6.439-2.786-10.184c1.187-3.859,1.119-7.923,0.845-10.618c-0.205-1.941-0.525-3.905-0.845-5.777      c-0.639-4.041-1.279-7.878-0.845-11.737l-2.283-0.251c-0.434,4.179,0.228,8.334,0.89,12.353c0.297,1.85,0.617,3.767,0.799,5.64      c0.206,2.032,0.297,4.932-0.251,7.832c-1.142-1.37-2.557-2.58-4.316-3.448c-3.288-1.667-7.695-1.187-10.96,1.165      c-2.58,1.895-3.836,4.567-3.425,7.375c0.411,2.74,2.329,4.932,5.252,6.005c3.699,1.393,8.06,0.708,10.823-1.69      c1.37-1.164,2.398-2.534,3.151-3.996c1.187,2.854,1.553,5.8,1.667,7.489c0.434,6.188-0.959,12.581-3.905,18.45      c-10.641-5.686-23.062-7.284-33.84-3.631c-5.48,1.872-9.499,4.681-11.919,8.38c-3.06,4.658-3.105,10.618-0.091,14.5      c2.694,3.493,7.649,5.252,13.952,4.932c10.138-0.479,20.208-5.503,27.583-13.792c2.009-2.283,3.768-4.704,5.229-7.261      c4.864,2.9,9.27,6.736,12.833,11.348c7.101,9.225,11.052,20.984,11.554,33.725h2.283      C281.542,478.137,277.432,465.852,270.011,456.262z M252.064,419.522c-2.124,1.827-5.64,2.352-8.54,1.279      c-1.256-0.479-3.402-1.644-3.79-4.224c-0.388-2.626,1.416-4.384,2.512-5.183c1.553-1.119,3.471-1.712,5.32-1.712      c1.165,0,2.306,0.251,3.288,0.731c1.986,1.005,3.448,2.512,4.521,4.224C254.69,416.463,253.639,418.152,252.064,419.522z       M248.433,452.038c-6.964,7.832-16.44,12.604-25.985,13.061c-3.197,0.137-9.042-0.183-12.033-4.065      c-2.694-3.493-1.941-8.608,0.206-11.851c2.124-3.265,5.754-5.777,10.732-7.467c3.676-1.256,7.581-1.849,11.508-1.849      c6.964,0,14.089,1.872,20.528,5.297C251.995,447.585,250.351,449.891,248.433,452.038z"/>
			</g>
			<g>
				<g>
					<path style="fill:#B179FF;" d="M321.798,410.914c-12.833,1.553-29.547-21.761-29.547-21.761l-67.245,0.388       c0,0-3.745,10.047-9.933,20.528c-9.202,15.641-33.246,6.279-29.41-11.463c1.804-8.357,3.996-17.102,6.553-24.66       c0.228-0.662,0.457-1.324,0.685-1.987c0.251-0.708,0.503-1.393,0.777-2.078c3.311-8.768,7.17-15.253,11.485-16.532       c15.573-4.612,89.805-9.659,103.026-2.283c3.083,1.735,6.142,5.8,8.882,11.074c0.114,0.228,0.251,0.457,0.365,0.708       c0.502,0.936,0.982,1.941,1.438,2.969C326.821,383.445,330.954,409.795,321.798,410.914z"/>
					<path style="opacity:0.29;fill:#2E1144;" d="M321.798,410.914c-12.833,1.553-29.547-21.761-29.547-21.761l-67.245,0.388       c0,0-3.745,10.047-9.933,20.528c-9.202,15.641-33.246,6.279-29.41-11.463c1.804-8.357,3.996-17.102,6.553-24.66       c0.228-0.662,0.457-1.324,0.685-1.987c0.251-0.708,0.503-1.393,0.777-2.078c4.247,4.384,11.508,5.777,17.924,6.393       c28.428,2.717,57.267,2.124,85.307-3.311c6.097-1.187,12.444-2.74,17.057-6.919c1.256-1.142,2.306-2.466,3.105-3.905       c0.114,0.228,0.251,0.457,0.365,0.708c0.502,0.936,0.982,1.941,1.438,2.969C326.821,383.445,330.954,409.795,321.798,410.914z"/>
					<g>
						<ellipse style="fill:#2E1144;" cx="224.725" cy="383.715" rx="9.814" ry="2.721"/>
						<ellipse style="fill:#2E1144;" cx="289.049" cy="383.715" rx="9.814" ry="2.721"/>
					</g>
				</g>
				<g>
					<ellipse style="fill:#2E1144;" cx="246.393" cy="370.549" rx="6.121" ry="2.769"/>
					<ellipse style="fill:#2E1144;" cx="267.672" cy="370.549" rx="6.121" ry="2.769"/>
				</g>
				<g>
					<path style="fill:#FFE7DE;" d="M229.591,367.948c0,1.137-2.911,2.059-6.503,2.059c-3.591,0-6.503-0.922-6.503-2.059       c0-1.137,2.911-2.059,6.503-2.059C226.68,365.889,229.591,366.811,229.591,367.948z"/>
					<path style="fill:#FFE7DE;" d="M241.729,361.554c0,1.137-2.911,2.059-6.503,2.059s-6.503-0.922-6.503-2.059       c0-1.137,2.911-2.059,6.503-2.059S241.729,360.416,241.729,361.554z"/>
					<path style="fill:#FFE7DE;" d="M231.542,356.243c0,1.137-2.911,2.059-6.503,2.059c-3.591,0-6.503-0.922-6.503-2.059       c0-1.137,2.911-2.059,6.503-2.059C228.631,354.184,231.542,355.106,231.542,356.243z"/>
					<path style="fill:#FFE7DE;" d="M220.921,361.879c0,1.137-2.911,2.059-6.503,2.059c-3.591,0-6.503-0.922-6.503-2.059       c0-1.137,2.911-2.059,6.503-2.059C218.01,359.82,220.921,360.742,220.921,361.879z"/>
				</g>
				<g>
					<path style="fill:#FFE7DE;" d="M296.635,366.199c0,1.137-2.911,2.059-6.503,2.059c-3.591,0-6.503-0.922-6.503-2.059       c0-1.137,2.911-2.059,6.503-2.059C293.724,364.14,296.635,365.062,296.635,366.199z"/>
					<path style="fill:#FFE7DE;" d="M308.773,359.805c0,1.137-2.911,2.059-6.503,2.059c-3.591,0-6.503-0.922-6.503-2.059       c0-1.137,2.911-2.059,6.503-2.059C305.862,357.746,308.773,358.668,308.773,359.805z"/>
					<path style="fill:#FFE7DE;" d="M298.586,354.494c0,1.137-2.911,2.059-6.503,2.059c-3.591,0-6.503-0.922-6.503-2.059       c0-1.137,2.911-2.059,6.503-2.059C295.674,352.435,298.586,353.357,298.586,354.494z"/>
					<path style="fill:#FFE7DE;" d="M287.965,360.13c0,1.137-2.911,2.059-6.503,2.059c-3.591,0-6.503-0.922-6.503-2.059       c0-1.137,2.911-2.059,6.503-2.059C285.054,358.071,287.965,358.993,287.965,360.13z"/>
				</g>
			</g>
			<g>
				<path style="fill:#FF93E2;" d="M56.572,436.958l103.896-35.325c0,0,51.429-47.792,49.351-40.52      c-2.078,7.273-18.701,34.805-14.546,38.442c4.156,3.636,51.429-12.987,52.987-9.351c1.558,3.636-21.299,19.221-21.299,19.221      s6.234,7.792,3.636,15.065c-1.974,5.528-89.772,48.566-131.795,68.902c-18.626,9.014-41.581,2.167-51.034-16.239      C42.109,466.132,41.818,452.335,56.572,436.958z"/>
				<path style="fill:#FF93E2;" d="M452.808,435.404l-103.896-35.325c0,0-51.429-47.792-49.351-40.52      c2.078,7.273,18.701,34.805,14.546,38.442c-4.156,3.636-51.429-12.987-52.987-9.351c-1.558,3.636,21.299,19.221,21.299,19.221      s-6.234,7.792-3.636,15.065c1.974,5.528,89.772,48.566,131.795,68.902c18.626,9.014,41.581,2.167,51.034-16.239      C467.27,464.578,467.561,450.78,452.808,435.404z"/>
			</g>
		</g>
		<g>
			<path style="fill:#B179FF;" d="M141.19,317.4l36.129-35l-17.643-23.391l-18.784,16.062l-18.519-17.251l-17.949,24.58     l36.533,34.886c0.008,0.196,0.013,0.327,0.013,0.327l0.163-0.158l0.053,0.05C141.187,317.504,141.189,317.458,141.19,317.4z"/>
			<path style="fill:#B179FF;" d="M391.876,238.113l36.129-35l-17.643-23.391l-18.784,16.062l-18.518-17.251l-17.949,24.58     l36.533,34.886c0.008,0.196,0.013,0.327,0.013,0.327l0.163-0.158l0.053,0.05C391.873,238.217,391.874,238.171,391.876,238.113z"/>
			<path style="fill:#B179FF;" d="M377.884,389.302l36.129-35l-17.643-23.391l-18.784,16.062l-18.518-17.251l-17.949,24.58     l36.533,34.886c0.008,0.196,0.013,0.327,0.013,0.327l0.164-0.158l0.053,0.05C377.881,389.406,377.882,389.36,377.884,389.302z"/>
		</g>
		<g>
			<path style="fill:#FFE7DE;" d="M149.35,167.699c5.044-0.297,10.088-0.734,15.131-1.57c-5.044-0.836-10.088-1.273-15.131-1.571     c-2.542-0.162-5.084-0.26-7.626-0.325c-1.35-0.035-2.637-0.58-3.592-1.535l-0.088-0.088c-0.965-0.965-1.511-2.267-1.534-3.632     c-0.056-3.348-0.165-6.696-0.378-10.044c-0.297-5.044-0.735-10.088-1.571-15.131c-0.836,5.044-1.273,10.088-1.57,15.131     c-0.202,3.175-0.308,6.35-0.367,9.525c-0.025,1.362-0.571,2.661-1.534,3.624l-0.606,0.606c-0.956,0.956-2.245,1.502-3.597,1.535     c-2.6,0.064-5.533,0.651-8.133,0.816c-5.044,0.296-9.546,0.583-14.798,1.088c5.543,0.661,9.681,0.803,14.725,1.098     c2.658,0.169,5.721,0.745,8.379,0.809c1.353,0.032,2.643,0.578,3.6,1.535l0.521,0.521c0.941,0.941,1.481,2.203,1.53,3.532     c0.068,1.857,0.158,3.715,0.276,5.573c0.296,5.044,0.736,10.088,1.577,15.132c0.841-5.044,1.281-10.088,1.577-15.132     c0.129-2.029,0.221-4.058,0.288-6.088c0.044-1.334,0.586-2.601,1.53-3.545l0,0c0.956-0.956,2.243-1.502,3.595-1.535     C144.152,167.963,146.751,167.864,149.35,167.699z"/>
			<path style="fill:#FFE7DE;" d="M309.986,301.287c5.044-0.297,10.088-0.735,15.131-1.571c-5.044-0.836-10.088-1.273-15.131-1.571     c-2.542-0.162-5.084-0.26-7.625-0.325c-1.351-0.035-2.637-0.58-3.592-1.536l-0.088-0.088c-0.965-0.965-1.511-2.267-1.534-3.632     c-0.056-3.348-0.165-6.696-0.378-10.044c-0.297-5.044-0.735-10.088-1.571-15.131c-0.836,5.044-1.273,10.088-1.57,15.131     c-0.202,3.175-0.308,6.35-0.367,9.525c-0.025,1.362-0.571,2.661-1.534,3.624l-0.606,0.606c-0.956,0.956-2.245,1.502-3.597,1.535     c-2.6,0.064-5.533,0.651-8.133,0.816c-5.044,0.296-9.547,0.583-14.798,1.088c5.543,0.661,9.682,0.803,14.725,1.099     c2.658,0.169,5.721,0.745,8.379,0.809c1.353,0.032,2.643,0.578,3.6,1.535l0.521,0.521c0.94,0.94,1.481,2.203,1.53,3.532     c0.068,1.857,0.158,3.715,0.276,5.573c0.296,5.044,0.736,10.088,1.577,15.131c0.841-5.044,1.281-10.088,1.577-15.131     c0.129-2.029,0.221-4.058,0.288-6.088c0.044-1.334,0.586-2.601,1.53-3.545l0,0c0.956-0.956,2.243-1.502,3.595-1.535     C304.787,301.552,307.386,301.453,309.986,301.287z"/>
		</g>
	</g>
</g>















</svg>
