<?xml version="1.0" encoding="UTF-8"?>
<!-- Generator: Adobe Illustrator 25.4.1, SVG Export Plug-In . SVG Version: 6.00 Build 0)  -->
<svg xmlns="http://www.w3.org/2000/svg" xmlns:xlink="http://www.w3.org/1999/xlink" version="1.1" id="Capa_1" x="0px" y="0px" viewBox="0 0 512 512" style="enable-background:new 0 0 512 512;" xml:space="preserve" width="512" height="512">
<g>
	<g>
		<path d="M512,69.835c-1.72,0.519-3.522,1.681-5.147,1.457c-18.04-2.486-29.4,7.28-36.595,21.33    c-9.432,18.419-14.52,38.446-19.582,58.516c-9.282,36.809-18.925,73.521-28.589,110.225c-3.695,14.031-7.855,27.93-11.82,41.884    c-0.249,0.876-0.636,1.709-1.071,2.859c-14.105-2.121-27.042,1.104-39.175,9.477c-7.562-12.972-17.237-23.527-31.776-28.679    c3.067-11.547,6.219-22.663,8.962-33.887c7.561-30.946,15.547-61.799,22.169-92.964c3.617-17.022,5.781-34.53,3.665-52.176    c-1.016-8.467-3.382-16.451-7.743-23.716c-6.301-10.497-15.737-15.708-27.246-17.466c-1.378-0.211-2.671-1.03-4.003-1.567    c0.625-1.513,0.947-3.292,1.923-4.499c8.114-10.034,19.11-14.849,31.048-17.123c18.427-3.511,34.863,1.492,48.982,14.358    c1.909,1.739,3.448,3.918,5.379,6.148c7.782-10.661,18.385-17.149,30.508-20.874c14.438-4.436,28.735-3.398,42.506,2.997    c8.726,4.052,14.789,10.819,17.605,20.487C512,67.694,512,68.764,512,69.835z"/>
		<path d="M182.921,457.275c-16.322,16.32-35.757,15.898-55.841,12.141c-0.5-0.094-0.973-0.341-1.463-0.5    c-8.166-2.66-8.755-5.127-3.258-11.713c6.582-7.886,9.153-17.565,8.444-27.601c-1.7-24.033-5.89-47.696-16.239-69.461    c-6.16-12.955-16.027-22.872-29.255-28.317c-3.388-1.394-3.533-3.231-2.486-6.089c1.698-4.635,4.931-7.878,9.109-9.911    c16.255-7.91,31.685-5.69,46.342,4.513c1.595,1.11,3.047,2.443,4.98,4.008c0.571-1.458,1.074-2.725,1.564-3.997    c7.489-19.432,27.951-31.711,47.052-28.231c0.631,0.115,1.273,0.204,1.884,0.396c6.508,2.047,7.118,3.684,2.918,9.125    c-6.497,8.417-7.848,18.292-6.869,28.421c1.416,14.652,5.241,28.8,10.142,43.069c0.494-0.654,0.918-0.968,1.001-1.36    c9.488-45.124,18.984-90.246,28.389-135.389c2.086-10.012,1.082-19.988-1.548-29.731c-1.463-5.42-4.636-9.783-9.596-12.502    c-6.88-3.772-7.044-6.921-0.657-11.766c9.503-7.21,26.527-6.316,35.348,1.864c0.95,0.881,1.86,1.807,3.136,3.051    c4.8-6.061,11.138-9.008,18.423-9.567c8.17-0.627,15.983,0.686,22.111,6.941c3.777,3.856,3.405,6.114-1.36,8.543    c-7.398,3.771-10.719,10.164-12.413,18.181c-2.857,13.523-0.189,26.517,2.592,39.608c8.531,40.146,16.929,80.322,25.394,120.483    c0.099,0.47,0.41,0.891,1.689,1.482c2.51-9.991,5.16-19.947,7.485-29.984c1.87-8.071,2.884-16.241,1.783-24.615    c-0.918-6.981-3.506-13.034-7.862-18.383c-2.585-3.174-2.247-4.519,1.433-6.269c6.779-3.223,13.83-2.814,20.752-0.937    c15.202,4.122,25.735,13.919,31.541,29.155c0.233,0.613,0.474,1.223,0.736,1.823c0.042,0.096,0.218,0.128-0.089-0.765    c6.868-3.396,13.499-7.533,20.661-10.005c9.514-3.284,19.292-2.519,28.635,1.647c4.976,2.219,9.184,5.371,11.328,10.83    c1.164,2.964,1.112,4.839-2.464,6.412c-16.261,7.153-26.978,20.09-33.041,37.023c-6.875,19.2-11.029,39.166-12.335,59.605    c-0.736,11.519,2.126,22.245,10.273,30.881c3.116,3.303,2.797,6.154-1.356,7.766c-4.99,1.936-10.305,3.599-15.576,3.999    c-16.655,1.263-32.804-0.089-45.187-13.827c-13.217,14.744-29.081,16.684-46.49,11.761c-1.577-0.446-3.128-1.263-4.487-2.222    c-3.06-2.16-4.069-4.917-2.09-8.585c3.206-5.942,5.948-12.176,9.43-17.931c4.769-7.885,4.71-16.633,3.099-24.825    c-10.094-51.316-20.741-102.515-31.214-153.751c-0.317-1.553-0.731-3.085-1.835-4.787c-0.899,3.837-1.858,7.66-2.687,11.513    c-6.035,28.039-12.15,56.06-18.025,84.135c-3.885,18.565-7.701,37.157-10.957,55.849c-1.245,7.149-1.075,14.609-1.071,21.927    c0.001,2.508,1.171,5.168,2.308,7.494c3.143,6.427,6.601,12.686,9.838,19.064c2.941,5.794,1.747,8.966-4.147,11.54    C218.078,474.075,193.992,472.715,182.921,457.275z"/>
		<path d="M141.825,315.628c-12.199-8.425-25.136-11.645-39.878-9.428c-3.821-13.802-7.643-27.358-11.323-40.954    c-5.148-19.021-10.299-38.043-15.255-57.12c-7.535-29.003-14.578-58.149-22.521-87.029c-2.734-9.942-6.972-19.57-11.538-28.798    c-5.92-11.965-14.967-20.343-28.69-21.276c-2.916-0.198-5.882,0.194-8.811,0.474c-3.229,0.308-4.137-1.362-3.711-4.335    c0.923-6.436,4.301-11.416,8.951-15.436c10.139-8.766,22.23-11.268,34.982-11.031c18.814,0.349,34.162,8.415,46.553,23.212    c9.302-12.571,22.072-19.268,37.005-20.945c18.599-2.089,35.11,3.207,48.249,17.705c1.016,1.121,1.28,2.98,1.893,4.497    c-1.341,0.526-2.644,1.333-4.029,1.535c-14.416,2.096-24.645,9.933-30.465,23.862c-4.945,11.835-5.77,24.284-4.936,36.96    c2.2,33.433,10.882,65.484,19.204,97.615c5.275,20.368,10.489,40.752,15.878,61.7C159.36,292.035,149.413,302.257,141.825,315.628    z"/>
	</g>
	<g>
		<g>
			<path style="fill:#FFFFFF;" d="M163.387,399.601c-10.088-9.756-18.748-20.781-26.035-32.891     c-2.394-3.978-3.926-8.634-5.22-13.176c-1.032-3.62-0.072-7.256,3.099-9.623c3.088-2.306,6.468-1.841,9.362,0.261     c3.008,2.185,5.651,4.914,8.67,7.598c0.255-0.819,0.443-1.925,0.922-2.871c1.654-3.264,3.024-6.798,5.225-9.619     c2.718-3.485,7.257-4.179,10.464-2.383c3.758,2.104,4.47,5.812,3.908,9.638c-1.587,10.799-3.65,21.523-5.138,32.335     c-0.686,4.987-0.354,10.118-0.721,15.166c-0.137,1.882-0.948,3.711-1.451,5.565C165.444,399.601,164.416,399.601,163.387,399.601     z"/>
			<g>
				<path style="fill:#FFFFFF;" d="M98.592,97.408c-0.526,6.899-0.793,13.832-1.634,20.689c-1.545,12.6,0.698,24.754,3.64,36.803      c5.621,23.023,14.846,44.626,24.326,66.141c6.212,14.098,11.546,28.588,12.721,44.248c0.498,6.643,0.333,13.357,0.147,20.029      c-0.052,1.861-1.255,3.687-2.688,5.198c0.202-4.053,0.578-8.106,0.574-12.158c-0.01-11.214-2.193-22.056-6.718-32.181      c-5.733-12.828-11.91-25.446-18.103-38.045c-9.766-19.87-15.611-40.734-17.236-63.118c-1.174-16.171,0.546-31.876,3.429-47.607      C97.563,97.408,98.077,97.408,98.592,97.408z"/>
				<g>
					<path style="fill:#FFFFFF;" d="M118.826,247.182c0.066,4.737-3.423,8.472-7.901,8.457c-4.281-0.014-7.632-3.359-7.734-7.721       c-0.112-4.781,3.607-8.743,8.177-8.713C115.544,239.233,118.763,242.676,118.826,247.182z"/>
					<path style="fill:#FFFFFF;" d="M125.364,153.715c-0.04,4.206-3.385,7.635-7.357,7.542c-3.864-0.091-7.093-3.434-7.12-7.371       c-0.028-4.118,3.308-7.473,7.41-7.45C122.335,146.457,125.403,149.617,125.364,153.715z"/>
				</g>
			</g>
		</g>
		<g>
			<path style="fill:#FFFFFF;" d="M345.433,399.601c-0.507-1.452-1.529-2.941-1.439-4.352c0.809-12.579-1.982-24.663-4.312-36.829     c-0.8-4.176-1.404-8.427-1.657-12.672c-0.211-3.533,0.44-7.086,4.014-8.83c3.634-1.774,7.462-1.27,9.867,1.837     c2.971,3.837,5.045,8.426,7.591,12.837c1.598-1.706,3.526-4.198,5.866-6.158c3.235-2.71,6.947-4.195,11.004-1.762     c3.151,1.889,4.185,5.871,3.229,11.061c-1.714,9.311-7.413,16.38-12.747,23.455c-5.659,7.507-12.185,14.306-18.332,21.414     C347.49,399.601,346.462,399.601,345.433,399.601z"/>
			<g>
				<path style="fill:#FFFFFF;" d="M414.857,97.408c7.964,38.176,3.805,74.747-13.274,109.658      c-6.344,12.968-12.768,25.909-18.629,39.115c-5.342,12.039-7.407,24.906-6.663,38.189c0.115,2.047,0.514,4.076,0.782,6.114      c-0.416,0.112-0.833,0.224-1.249,0.336c-0.618-2.501-1.599-4.972-1.798-7.508c-1.708-21.809,3.954-42.057,12.596-61.562      c8.822-19.91,17.377-39.907,23.207-61.043c3.234-11.725,5.764-23.598,5.58-35.838c-0.102-6.767-1.193-13.515-1.773-20.278      c-0.205-2.385-0.22-4.788-0.322-7.183C413.829,97.408,414.343,97.408,414.857,97.408z"/>
				<g>
					<path style="fill:#FFFFFF;" d="M393.082,247.341c-0.009-4.687,3.332-8.22,7.688-8.128c4.423,0.093,7.972,3.91,7.947,8.546       c-0.023,4.374-3.31,7.79-7.582,7.88C396.644,255.733,393.091,252.072,393.082,247.341z"/>
					<path style="fill:#FFFFFF;" d="M393.495,146.44c4.093-0.092,7.489,3.215,7.522,7.327c0.032,3.946-3.129,7.323-7.004,7.483       c-3.973,0.164-7.36-3.197-7.472-7.416C386.433,149.752,389.462,146.531,393.495,146.44z"/>
				</g>
			</g>
		</g>
	</g>
</g>















</svg>
