<?xml version="1.0" encoding="UTF-8"?>
<!-- Generator: Adobe Illustrator 25.3.1, SVG Export Plug-In . SVG Version: 6.00 Build 0)  -->
<svg xmlns="http://www.w3.org/2000/svg" xmlns:xlink="http://www.w3.org/1999/xlink" version="1.1" id="Capa_1" x="0px" y="0px" viewBox="0 0 512 512" style="enable-background:new 0 0 512 512;" xml:space="preserve" width="512" height="512">
<g>
	<path style="fill:#FFFFFF;" d="M254.474,511.839c-16.736,0-33.545-1.71-49.959-5.086c-60.323-12.404-114.425-46.961-152.342-97.306   C14.24,359.088-4.024,297.528,0.744,236.112C6.753,158.722,48.83,86.664,113.299,43.353c20.036-13.485,41.811-24.042,64.709-31.367   c5.684-1.814,11.455-3.438,17.167-4.831l1.455-0.338c18.782-4.417,38.228-6.655,57.804-6.655   c69.517,0,136.718,27.851,184.368,76.411c46.158,47.037,72.837,112.375,73.195,179.26c0.058,11.408-0.666,22.843-2.156,33.996   c-8.19,61.294-39.204,117.761-87.325,158.998C375.101,489.461,315.422,511.839,254.474,511.839z"/>
	<g>
		<g>
			<path style="fill:#1C0231;" d="M496.909,256.073c0,5.128-0.154,10.205-0.487,15.23c-0.077,1.513-0.179,3-0.308,4.513     c-2.179,26.743-8.718,52.255-18.948,75.793c-3.59,8.333-7.641,16.435-12.154,24.23c-4.205,7.359-8.795,14.461-13.769,21.307     c-1.667,2.282-3.359,4.538-5.102,6.769c-0.077,0.103-0.154,0.205-0.231,0.308c-2.308,2.974-4.667,5.871-7.128,8.692     c-2.128,2.487-4.308,4.923-6.564,7.308c-1.282,1.359-2.59,2.718-3.897,4.051v0.026c-0.667,0.667-1.308,1.333-1.974,2     c-2.231,2.231-4.513,4.436-6.82,6.564c-14.23,13.179-30.102,24.666-47.23,34.076c-8.846,4.923-17.999,9.231-27.435,12.974     c-19.538,7.744-40.358,13-62.024,15.359c-3.821,0.436-7.667,0.769-11.538,1c-0.41,0.026-0.821,0.051-1.257,0.077     c-4.564,0.256-9.154,0.384-13.769,0.384c-21.102,0-41.563-2.718-61.101-7.846c-0.59-0.128-1.18-0.307-1.769-0.461     c-5.102-1.359-10.128-2.897-15.102-4.615c-0.949-0.308-1.872-0.641-2.795-0.974c-1.41-0.487-2.82-1-4.179-1.538     c-0.564-0.179-1.128-0.41-1.667-0.641c-1.564-0.59-3.102-1.205-4.641-1.846c-2.179-0.897-4.359-1.821-6.512-2.769     c-0.333-0.128-0.667-0.282-1-0.436c-0.872-0.385-1.769-0.795-2.615-1.231c-4.231-1.974-8.385-4.051-12.461-6.23     c-4.077-2.205-8.103-4.513-12.025-6.949c-1.026-0.59-2.025-1.231-3.026-1.872c-7.051-4.487-13.846-9.333-20.384-14.513     c-1.077-0.846-2.128-1.692-3.179-2.59c-3.564-2.898-7.026-5.923-10.41-9.051c-1.282-1.18-2.564-2.385-3.82-3.59     c-3.923-3.718-7.718-7.641-11.384-11.667c-9.025-9.923-17.23-20.589-24.512-31.897c-4.564-7.077-8.744-14.436-12.564-22.025     c-2.667-5.308-5.128-10.718-7.41-16.23c-0.308-0.744-0.615-1.513-0.923-2.282c-4.513-11.231-8.205-22.897-10.974-34.897     c-0.154-0.692-0.308-1.359-0.462-2.026c-0.923-4.179-1.744-8.41-2.461-12.666c-0.949-5.59-1.692-11.256-2.205-16.974     c-0.051-0.487-0.103-0.949-0.128-1.436c-0.641-7.051-0.949-14.205-0.949-21.41c0-4.615,0.128-9.205,0.41-13.743     c0.051-1.282,0.128-2.564,0.231-3.846c0.046-0.602,0.536-1.187,0.583-1.776c0.031-0.389-0.383-0.785-0.352-1.173     c0.333-3.846,0.744-7.667,1.256-11.461c0.436-3.308,0.949-6.615,1.487-9.872c0.103-0.538,0.179-1.051,0.308-1.59     c0.743-4.077,1.59-8.128,2.538-12.128c0.051-0.257,0.128-0.513,0.179-0.744c1.615-6.769,3.538-13.436,5.718-19.974     c0.077-0.231,0.154-0.462,0.231-0.692h0.025c3.359-10,7.359-19.666,11.974-28.999c0.128-0.308,0.282-0.615,0.436-0.897     c3.231-6.538,6.769-12.872,10.564-19.051c2.769-4.538,5.718-8.974,8.795-13.307c6.179-8.718,12.923-16.974,20.179-24.769     c0.205-0.205,0.385-0.436,0.59-0.641c12.384-13.205,26.256-24.999,41.332-35.127c18.589-12.512,39.025-22.512,60.819-29.487     c5.307-1.692,10.666-3.205,16.128-4.538c0.436-0.102,0.897-0.205,1.333-0.308c8.82-2.103,17.82-3.718,26.974-4.795     c7.179-0.872,14.461-1.436,21.82-1.641c0.385,0,0.795-0.026,1.205-0.026c0.949-0.026,1.897-0.051,2.846-0.026     c0.795-0.051,1.615-0.051,2.41-0.051h0.641c13.282,0,26.307,1.077,38.974,3.154c10.513,1.718,20.794,4.103,30.794,7.128     c0.667,0.205,1.333,0.41,2,0.615c11.743,3.667,23.076,8.205,33.973,13.538c0.744,0.359,1.487,0.744,2.205,1.128     c12,6,23.435,13,34.179,20.897c0.256,0.179,0.513,0.359,0.769,0.564c1.615,1.205,3.205,2.41,4.795,3.641     c16.41,12.743,31.102,27.589,43.691,44.127c19.795,25.871,34.41,55.896,42.358,88.536c2.948,11.974,4.974,24.307,6.025,36.896     C496.627,242.381,496.909,249.176,496.909,256.073z"/>
			<g>
				<path style="opacity:0.3;fill:#564BB7;" d="M468.858,349.097c-0.615,8.974-1.897,17.923-3.846,26.743      c-4.205,7.359-8.795,14.461-13.769,21.307c-1.667,2.282-3.359,4.538-5.102,6.769c-0.077,0.103-0.154,0.205-0.231,0.308      c-2.308,2.974-4.667,5.871-7.128,8.692c-2.128,2.487-4.308,4.923-6.564,7.308c-1.282,1.359-2.59,2.718-3.897,4.051v0.026      c-0.667,0.667-1.308,1.333-1.974,2c-2.231,2.231-4.513,4.436-6.82,6.564c-14.23,13.179-30.102,24.666-47.23,34.076      c-8.846,4.923-17.999,9.231-27.435,12.974c-19.538,7.744-40.358,13-62.024,15.359c-26.794-8.846-51.794-25.051-79.921-25.487      c-13.154-0.205-26.051,3.205-37.897,9.025c-2.179-0.897-4.359-1.821-6.512-2.769c-0.333-0.128-0.667-0.282-1-0.436      c-0.872-0.385-1.769-0.795-2.615-1.231c-4.231-1.974-8.385-4.051-12.461-6.23c-4.077-2.205-8.103-4.513-12.025-6.949      c-1.026-0.59-2.025-1.231-3.026-1.872c-7.051-4.487-13.846-9.333-20.384-14.513c-1.077-0.846-2.128-1.692-3.179-2.59      c-3.564-2.898-7.026-5.923-10.41-9.051c-1.282-1.18-2.564-2.385-3.82-3.59c4.102-2.282,8.333-4.282,12.692-6.025      c4.154-1.693,8.41-3.103,12.743-4.257c0.359-0.077,0.692-0.154,1.026-0.256c2.564-0.641,5.128-1.205,7.743-1.641      c5.795-0.974,11.538-1.462,17.307-1.539c2.564-0.051,5.154,0,7.743,0.128c3.949,0.154,7.871,0.487,11.82,0.974      c41.204,4.949,82.306,24.384,124.023,20.307c28.512-2.769,55.229-16.794,75.614-37.076l0.359-0.359      c4.051-4.051,7.846-8.359,11.359-12.872c2.282-2.923,4.436-5.923,6.461-9c0.898-1.307,1.769-2.641,2.615-4      c15.384-24.769,23.794-53.768,26.179-82.921c3.949-48.024-7.282-98.869,11.974-143.073c6.41-14.666,16.307-27.461,28.41-37.768      c19.795,25.871,34.41,55.896,42.358,88.536c-14.359,17.897-20.436,42.204-21.743,65.511      C466.654,292.483,470.807,320.867,468.858,349.097z"/>
				<path style="opacity:0.16;fill:#564BB7;" d="M403.962,66.078c-8.923,4.949-17.589,10.307-25.871,16.282      c-1.128,0.82-2.231,1.641-3.333,2.461c-0.539,0.385-1.051,0.795-1.564,1.179c-8.692,6.692-16.897,14.128-24.204,22.307      c-0.487,0.513-0.974,1.051-1.436,1.59c-11.82,13.538-21.205,29.025-26.461,46.178c-7.077,23.076-6.282,47.665-1.539,71.486      c0.128,0.744,0.282,1.513,0.436,2.256c1.231,5.82,2.692,11.615,4.307,17.307c1.59,5.538,3.308,11.051,5.051,16.564      c0.231,0.667,0.436,1.359,0.641,2.026c4.41,13.871,8.692,27.769,10.384,42.178c3.154,26.794-3.436,55.127-20.461,76.075      c-17,20.948-44.82,33.435-71.511,29.512c-33.794-4.974-59.383-33.332-91.69-44.46c-2.513-0.872-5.051-1.615-7.641-2.256      c-2.051-0.538-4.102-0.974-6.179-1.333c-11.205-2.051-22.718-2.179-34.076-0.641c-2.179,0.282-4.359,0.641-6.513,1.051      c-6.769,1.308-13.436,3.179-19.871,5.564c-10.128,3.769-19.717,8.743-28.743,14.615c-4.564-7.077-8.744-14.436-12.564-22.025      c-2.667-5.308-5.128-10.718-7.41-16.23c-0.308-0.744-0.615-1.513-0.923-2.282c-4.513-11.23-8.205-22.897-10.974-34.897      c-0.154-0.692-0.308-1.359-0.462-2.025c-0.923-4.179-1.743-8.41-2.461-12.666c5.436-3.743,11-7.282,16.743-10.59      c0.513-0.308,1.026-0.59,1.564-0.872c0.513-0.307,1.051-0.615,1.564-0.897c37.563-20.743,83.998-29.769,123.766-13.615      c5.154,2.077,10.23,4.59,15.333,7.154c0.462,0.231,0.923,0.462,1.41,0.718c16.436,8.307,32.82,16.974,50.537,14.128      c14.692-2.333,27.666-13.307,32.435-27.41c5-14.794,1.231-30.717-3.308-45.922c-0.102-0.41-0.231-0.82-0.359-1.231      c-0.59-2-1.205-3.974-1.795-5.949c-7.487-24.589-13.615-49.922-13.564-75.614c0.077-36.204,13.589-71.819,36.179-100.023      c0.282-0.359,0.538-0.692,0.82-1.026c4.641-5.718,9.667-11.128,15.025-16.179c10.513,1.718,20.794,4.102,30.794,7.128      c0.667,0.205,1.333,0.41,2,0.615c11.743,3.667,23.076,8.205,33.973,13.538c0.744,0.359,1.487,0.744,2.205,1.128      c12,6,23.435,13,34.179,20.897c0.257,0.179,0.513,0.359,0.769,0.564C400.783,63.642,402.373,64.847,403.962,66.078z"/>
				<path style="opacity:0.23;fill:#564BB7;" d="M221.198,187.767c2.461,18.153-0.231,37.922-11.923,51.153      c-0.257,0.308-0.539,0.641-0.846,0.949c-1.359,1.462-2.82,2.821-4.436,4.103c-6.461,5.102-13.897,7.949-21.846,9.179      c-0.205,0.051-0.436,0.077-0.667,0.103c-14.872,2.179-31.384-1.18-46.153-5.59c-3.205-0.948-6.385-1.948-9.564-3.025      c-0.205-0.026-0.41-0.103-0.615-0.18c-14.692-4.769-29.128-10.307-43.23-16.589c-0.179-0.077-0.384-0.154-0.59-0.256      c-2.385-1.051-4.769-2.154-7.154-3.256c-5.231-2.462-10.513-5.026-15.871-7.256c-0.051,0-0.103-0.026-0.154-0.051      c-0.154-0.077-0.333-0.128-0.487-0.205c-0.846-0.359-1.718-0.692-2.59-1.026c-7.795-2.974-15.82-5.051-24.128-4.846      c-3.872,0.103-7.667,0.692-11.41,1.641c0.743-4.077,1.59-8.128,2.538-12.128c0.051-0.257,0.128-0.513,0.179-0.744      c1.615-6.769,3.538-13.436,5.718-19.974c0.077-0.231,0.154-0.462,0.231-0.692h0.025c3.359-10,7.359-19.666,11.974-28.999      c0.128-0.308,0.282-0.615,0.436-0.897c3.231-6.538,6.769-12.872,10.564-19.051c3.436,1.718,6.718,3.692,9.769,5.949      c0.872,0.641,1.718,1.308,2.564,1.974c0.179,0.129,0.359,0.282,0.539,0.436c12.666,10.128,23.717,23.564,39.486,26.589      c15.615,2.974,32.128-6.154,39.999-19.974c2.615-4.59,4.359-9.615,5.308-14.769c0.051-0.231,0.077-0.462,0.128-0.692      c1.718-10.179,0.436-20.974-3.256-30.692c-3.82-10.077-9.974-19.128-15.666-28.333c-0.103-0.205-0.231-0.385-0.333-0.564      c-2.769-4.487-5.41-9.025-7.641-13.769c18.589-12.512,39.025-22.512,60.819-29.487c5.307-1.692,10.666-3.205,16.128-4.538      c0.436-0.102,0.897-0.205,1.333-0.308c8.82-2.103,17.82-3.718,26.974-4.795c-5.077,7.974-9.641,16.282-13.461,24.922      c-0.667,1.487-1.282,2.974-1.872,4.461c-2.923,7.077-5.308,14.384-7.102,21.82c-0.051,0.205-0.103,0.41-0.154,0.616      c-3.743,15.717-4.846,32.025-2.384,47.947c0.307,1.975,0.667,3.923,1.077,5.872c0.179,0.897,0.359,1.769,0.539,2.641      c0.897,3.949,1.974,7.846,3.102,11.743c0.077,0.231,0.154,0.487,0.231,0.744c4.385,14.641,9.974,29.025,12.948,44.025      c0.256,1.308,0.487,2.615,0.667,3.949c0,0.051,0,0.077,0,0.077c0.103,0.59,0.205,1.154,0.256,1.744      C221.223,187.742,221.223,187.742,221.198,187.767z"/>
			</g>
		</g>
		<g>
			<g>
				<g style="opacity:0.19;">
					<polygon style="fill:#F3C7D1;" points="399.307,340.901 473.014,250.933 379.753,326.537      "/>
				</g>
				<g>
					<path style="fill:#FDBC08;" d="M374.967,341.2c-2.284-7.034,1.566-14.588,8.6-16.873c7.034-2.285,14.588,1.565,16.873,8.6       c2.284,7.034-1.566,14.588-8.6,16.873C384.806,352.084,377.252,348.234,374.967,341.2z"/>
				</g>
			</g>
			<g>
				<g style="opacity:0.19;">
					<polygon style="fill:#F3C7D1;" points="390.411,290.415 464.118,200.448 370.857,276.052      "/>
				</g>
				<g>
					<path style="fill:#FDBC08;" d="M366.071,290.715c-2.285-7.034,1.565-14.588,8.599-16.873       c7.034-2.285,14.588,1.565,16.873,8.599c2.284,7.034-1.566,14.588-8.6,16.873C375.91,301.599,368.355,297.748,366.071,290.715z       "/>
				</g>
			</g>
			<g>
				<g style="opacity:0.19;">
					<path style="fill:#F3C7D1;" d="M496.422,271.304c-0.077,1.513-0.179,3-0.308,4.513L468.833,310.2l-26.461,33.333       c0,0,0.026,0,0,0.026l-0.051,0.077l-1.615,2.026l-19.564-14.359l1.333-1.077V330.2c0.026-0.026,0.051-0.026,0.077-0.051       l45.64-36.358L496.422,271.304z"/>
				</g>
				<g>
					<path style="fill:#FDBC08;" d="M416.366,345.964c-2.285-7.034,1.565-14.588,8.599-16.873c7.034-2.284,14.588,1.566,16.873,8.6       c2.285,7.034-1.566,14.588-8.6,16.873C426.205,356.848,418.65,352.998,416.366,345.964z"/>
				</g>
			</g>
		</g>
		<g>
			<g>
				<g>
					<g>
						<path style="fill:#564BB7;" d="M317.939,162.435c-9.179,27.999-32.076,49.973-58.332,56.024        c-0.231,0.051-0.436,0.103-0.667,0.128c-3.41,0.769-6.948,1.308-10.384,1.846c-10.077,1.59-20.512,3.205-27.922,9.949        c-4.692,4.307-7.589,10.205-10.41,15.923c-1.513,3.102-3.077,6.307-4.948,9.256c-5.641,9-14.23,16.359-25.999,22.23        c-6.641,3.359-14.333,6.231-23.076,8.666c-18.692,5.205-38.153,7.743-57.691,7.743c-21.205,0-42.486-3-62.87-8.897        c-6.41-1.846-12.743-3.974-18.948-6.384c-0.051-0.487-0.102-0.949-0.128-1.436c6.743,2.667,13.641,4.974,20.64,6.948        c38.563,10.872,80.306,11.436,118.638,0.795c8.308-2.308,15.641-5,22.025-8.154c11.974-5.846,20.666-13.205,26.333-22.204        c1.821-2.898,3.384-6.077,4.897-9.128c2.846-5.82,5.821-11.846,10.692-16.282c7.692-7.026,18.307-8.692,28.564-10.282        c3.41-0.539,6.897-1.077,10.23-1.821c0.257-0.051,0.487-0.103,0.718-0.154c25.845-5.949,48.383-27.589,57.434-55.178        c8.205-24.999,6.077-53.896-6-81.357c-7.384-16.82-18.154-32.102-31.333-44.896c-7.923-7.743-16.718-14.589-26.179-20.307        c0.795-0.051,1.615-0.051,2.41-0.051c8.846,5.564,17.102,12.051,24.589,19.333c13.333,12.948,24.23,28.384,31.691,45.409        C324.093,107.923,326.247,137.128,317.939,162.435z"/>
					</g>
					<g>
						<path style="fill:#564BB7;" d="M348.99,108.308c-1.615-29.23-8.974-56.922-20.948-81.998c-0.667-0.205-1.333-0.41-2-0.615        c12.487,25.666,20.076,54.127,21.512,84.203c0.179,3.513,0.256,7.026,0.256,10.564c0,38.922-10.282,75.46-28.256,107.1        c-37.435,65.844-108.228,110.356-189.2,110.356c-39.691,0-76.947-10.692-108.997-29.358c0.154,0.667,0.308,1.333,0.462,2.025        c32.025,18.359,69.075,28.846,108.536,28.846c80.947,0,151.765-44.127,189.636-109.613        c18.666-32.204,29.333-69.537,29.333-109.356C349.323,116.384,349.22,112.333,348.99,108.308z"/>
					</g>
					<g>
						<path style="fill:#564BB7;" d="M374.758,84.821c-2.154-15.102-5.718-29.769-10.538-43.845        c-0.718-0.385-1.461-0.769-2.205-1.128c5.179,14.794,8.948,30.23,11.179,46.153c1.615,11.256,2.436,22.769,2.436,34.461        c0,53.409-17.179,102.895-46.281,143.227c-42.281,58.614-109.792,97.869-186.457,101.741        c-4.154,0.205-8.333,0.308-12.538,0.308c-7.256,0-14.436-0.308-21.538-0.949c-26.794-2.333-52.383-9-76.024-19.307        c0.308,0.769,0.615,1.538,0.923,2.282c21.487,9.179,44.512,15.384,68.588,18.076c9.205,1.077,18.564,1.615,28.051,1.615        c6.307,0,12.538-0.231,18.717-0.692c74.255-5.589,139.458-44.153,180.919-101.049c29.794-40.794,47.358-90.998,47.358-145.253        C377.348,108.359,376.476,96.462,374.758,84.821z"/>
					</g>
				</g>
				<g>
					<path style="fill:#FF5382;" d="M330.671,103.763c0,6.327-5.129,11.456-11.456,11.456c-6.327,0-11.456-5.129-11.456-11.456       c0-6.327,5.129-11.456,11.456-11.456C325.542,92.307,330.671,97.436,330.671,103.763z"/>
					<path style="fill:#FF5382;" d="M178.792,339.436c0,6.327-5.129,11.456-11.456,11.456c-6.327,0-11.456-5.129-11.456-11.456       c0-6.327,5.129-11.456,11.456-11.456C173.663,327.98,178.792,333.109,178.792,339.436z"/>
					<path style="fill:#FF5382;" d="M354.238,243.858c0,6.327-5.129,11.456-11.456,11.456c-6.327,0-11.456-5.129-11.456-11.456       c0-6.327,5.129-11.456,11.456-11.456C349.109,232.401,354.238,237.53,354.238,243.858z"/>
				</g>
			</g>
			<g>
				<g>
					<g>
						<path style="fill:#5F2183;" d="M251.889,194.28v0.051c-3.59,10.744-8.436,20.974-14.461,30.461        c-0.667,1.077-1.359,2.128-2.025,3.154c-8.179,12.153-18.256,23.025-29.948,32.153c-0.231,0.179-0.487,0.385-0.744,0.564        c-6.795,5.256-14.179,9.897-21.999,13.846c-0.205,0.103-0.41,0.205-0.641,0.333c-1.461,0.718-2.948,1.436-4.461,2.103        c-9.59,4.359-19.871,7.692-30.692,9.82c-8.744,1.718-17.461,2.564-26.076,2.615c-0.231,0.026-0.436,0-0.692,0        c-21.333,0.051-41.948-4.897-60.46-13.871c-0.205-0.077-0.385-0.179-0.564-0.282c-0.513-0.256-1.026-0.487-1.513-0.769        c-0.026,0-0.026,0-0.026,0c-5.154-2.59-10.128-5.513-14.897-8.718c-0.179-0.128-0.359-0.256-0.538-0.359        c-9.615-6.538-18.41-14.282-26.128-23.051c0.051-1.282,0.128-2.564,0.231-3.846c0.043-0.563,0.873-1.113,0.916-1.665        c0.034-0.428-0.719-0.858-0.686-1.284c0.333-3.846,0.744-7.667,1.256-11.461c0.436-3.308,0.949-6.615,1.487-9.872        c0.103-0.538,0.179-1.051,0.308-1.59c0.743-4.077,1.59-8.128,2.538-12.128c0.051-0.257,0.128-0.513,0.179-0.744        c1.615-6.769,3.538-13.436,5.718-19.974c0.077-0.231,0.154-0.462,0.231-0.692h0.025c3.359-10,7.359-19.666,11.974-28.999        c0.128-0.308,0.282-0.615,0.436-0.897c3.231-6.538,6.769-12.872,10.564-19.051c2.769-4.538,5.718-8.974,8.795-13.307        c6.179-8.718,12.923-16.974,20.179-24.769c0.205-0.205,0.385-0.436,0.59-0.641c12.384-13.205,26.256-24.999,41.332-35.127        c18.589-12.512,39.025-22.512,60.819-29.487c10.487,5.333,20.282,11.974,29.102,19.743        c13.692,12.077,25.102,26.922,33.204,43.896c0.41,0.769,0.769,1.564,1.102,2.359c0.718,1.487,1.385,2.949,2,4.487v0.026        c3.487,8.384,6.179,17.23,8,26.486C261.12,148.178,259.222,172.28,251.889,194.28z"/>
					</g>
					<g>
						<g>
							<path style="fill:#F3C7D1;" d="M86.304,201.357c0.051,1.974-0.026,4.077-0.231,6.256c-0.615,6.897-2.103,13.666-4.154,20.256         c-4.615,14.795-12.102,28.743-18.948,41.512c-0.667,1.23-1.333,2.487-2,3.743c-0.436,0.795-0.846,1.59-1.282,2.385         c-0.205-0.077-0.385-0.179-0.564-0.282c0.308-0.59,0.615-1.154,0.923-1.743c0.795-1.487,1.59-2.948,2.359-4.384         c6.846-12.769,14.307-26.718,18.923-41.486c2.025-6.538,3.513-13.256,4.103-20.076c0.179-2.025,0.256-3.974,0.205-5.821         c0-0.974-0.026-1.923-0.128-2.846c-0.461-6.487-2.359-11.743-5.641-15.641c-8.487-10.128-23.871-9.282-32.307-7.872         c-5.205,0.897-10.59,2.205-15.769,3.487c-1.256,0.308-2.538,0.615-3.82,0.923c0.077-0.231,0.154-0.462,0.231-0.692h0.025         c1.128-0.282,2.282-0.564,3.41-0.846c5.205-1.282,10.564-2.615,15.82-3.513c8.564-1.41,24.205-2.282,32.897,8.102         c3.333,3.949,5.282,9.179,5.795,15.666C86.252,199.408,86.304,200.383,86.304,201.357z"/>
						</g>
						<g>
							<path style="fill:#F3C7D1;" d="M167.712,193.229c-4.59,8.744-11.923,15.615-19,22.282c-4.179,3.949-8.487,8-12.179,12.384         c-4.359,5.102-7.974,10.743-10.769,16.743c-2.564,5.41-4.461,11.128-5.641,17.025c-0.154,0.769-0.308,1.564-0.436,2.333         c-1.538,9.077-1.103,17.795,1.154,25.384c-0.231,0.026-0.436,0-0.692,0c-2.205-7.641-2.641-16.384-1.077-25.487         c0.128-0.744,0.256-1.513,0.41-2.256c1.205-5.949,3.102-11.718,5.667-17.179c2.82-6.102,6.513-11.846,10.872-16.999         c3.769-4.41,8.051-8.461,12.23-12.41c7.051-6.641,14.359-13.487,18.897-22.128c6.641-12.615,6.666-28.64,0.256-41.973         c-0.359-0.769-0.769-1.513-1.154-2.256c-0.333-0.564-0.641-1.128-0.974-1.667c-4.025-6.718-9.692-12.41-16.41-16.692         c-6.718-4.308-14.513-7.205-22.718-8.256c-19.794-2.59-39.589,5.41-54.614,12.718c-2.513,1.205-5,2.462-7.461,3.692         c-1.205,0.615-2.385,1.205-3.564,1.821c-6.641,3.359-13.384,6.795-20.307,9.769c0.128-0.308,0.282-0.615,0.436-0.897         c6.692-2.897,13.179-6.205,19.564-9.436c1.102-0.564,2.205-1.128,3.333-1.692c2.538-1.282,5.128-2.59,7.692-3.82         c15.128-7.359,35.025-15.41,54.999-12.82c8.231,1.077,16,3.949,22.769,8.231c6.872,4.359,12.692,10.179,16.846,17.076         c0.333,0.538,0.641,1.077,0.923,1.641c0.41,0.718,0.795,1.462,1.154,2.231C174.455,164.076,174.455,180.383,167.712,193.229z         "/>
						</g>
						<g>
							<path style="fill:#F3C7D1;" d="M250.454,188.742c-1.821,6.692-4.128,13.692-6.949,21.076c-1.923,5-3.974,10.025-6.077,14.974         c-0.667,1.077-1.359,2.128-2.025,3.154c2.59-6.051,5.154-12.231,7.513-18.384c2.949-7.769,5.359-15.102,7.231-22.102         c5.256-19.615,6.282-36.512,3.282-51.999c-1.564-8.128-4.308-16.102-8.154-23.82c-1.846-3.667-3.923-7.256-6.256-10.769         c-0.307-0.461-0.615-0.897-0.948-1.359c-0.436-0.692-0.923-1.384-1.41-2.051c-8.692-12.102-19.718-21.923-31.897-28.486         c-2.692-1.462-5.436-2.744-8.205-3.872c-18.128-7.308-38.127-7.487-54.922-0.487c-4,1.667-7.846,3.743-11.564,6         c-3.077,1.821-6.077,3.795-9.051,5.718c-2.769,1.82-5.666,3.692-8.564,5.436c-7.769,4.692-19.512,10.872-32.025,10.307         c-0.077,0-0.179,0-0.256-0.026c0.205-0.205,0.385-0.436,0.59-0.641c12.23,0.462,23.717-5.564,31.333-10.179         c2.897-1.769,5.769-3.641,8.59-5.436c2.949-1.923,5.949-3.897,9.051-5.743c3.744-2.256,7.615-4.333,11.641-6.025         c16.974-7.051,37.153-6.897,55.409,0.487c2.744,1.103,5.461,2.385,8.128,3.846c12.307,6.59,23.487,16.512,32.256,28.692         c0.487,0.667,0.974,1.359,1.436,2.051c0.333,0.462,0.641,0.923,0.949,1.384c2.179,3.307,4.154,6.692,5.897,10.102         c4.077,8.025,6.974,16.307,8.59,24.743C257.145,151.23,256.017,168.537,250.454,188.742z"/>
						</g>
						<g>
							<path style="fill:#F3C7D1;" d="M224.058,147.315c2.361,20.911-2.453,40.019-7.567,60.257         c-1.274,5.085-2.593,10.335-3.787,15.561c-2.811,12.416-5.436,24.718-7.261,36.966c-0.227,0.175-0.474,0.38-0.726,0.561         c1.831-12.485,4.517-25.007,7.359-37.665c1.194-5.226,2.513-10.476,3.807-15.591c5.079-20.153,9.878-39.205,7.537-60.016         c-1.006-9.105-3.394-13.94-7.038-14.399c-8.626-1.074-22.364,22.219-26.061,31.987c-4.935,13.043-7.739,27.888-8.615,45.359         c-0.683,13.54-0.144,27.31,0.361,40.642c0.292,7.73,0.613,15.61,0.653,23.52c-0.212,0.12-0.428,0.215-0.64,0.335         c-0.059-8.01-0.35-16.002-0.662-23.832c-0.505-13.332-1.023-27.132-0.345-40.697c0.862-17.547,3.706-32.452,8.656-45.55         c3.611-9.542,15.838-30.552,24.87-32.328c0.629-0.124,1.253-0.142,1.866-0.08         C220.454,132.841,223.013,137.878,224.058,147.315z"/>
						</g>
						<g>
							<path style="fill:#F3C7D1;" d="M58.304,216.972v0.128c0.026,1.103,0.026,2.282-0.026,3.513         c-0.667,14.513-5.897,29.615-15.589,45.127c-0.179-0.128-0.359-0.256-0.538-0.359c9.641-15.41,14.846-30.41,15.487-44.794         c0.051-1.154,0.051-2.231,0.026-3.282v-0.462c-0.026-0.795-0.077-1.564-0.18-2.308c-0.436-4.128-1.615-7.333-3.59-9.871         c-2.897-3.743-7.282-5.487-10.436-6.282c-6.718-1.744-14.205-0.923-21.384,2.103c0.051-0.257,0.128-0.513,0.179-0.744         c7.179-2.974,14.666-3.744,21.384-2c3.256,0.846,7.743,2.641,10.769,6.538c2.025,2.564,3.231,5.795,3.692,9.923         C58.202,215.074,58.279,215.997,58.304,216.972z"/>
						</g>
					</g>
				</g>
				<g>
					<path style="fill:#F3C7D1;" d="M293.068,37.207c-0.154-0.769-0.436-1.461-0.82-2.103c-1.513-2.41-4.641-3.641-9.102-3.82       h-0.026c-12.564-0.487-35.871,7.179-64.665,19.999l1.795,1.974c22.23-9.846,40.076-16.077,52.23-18.487       c3.308-0.641,6.205-1,8.641-1.077c1.103-0.025,2.128,0,3.051,0.077c2.949,0.257,4.948,1.154,5.897,2.667       c3.897,6.282-9.82,23.794-37.794,47.999c-2.256,1.949-4.59,3.949-7.051,6c-2.564,2.154-5.256,4.359-8.051,6.615       c-0.179,0.128-0.333,0.282-0.513,0.41c-9.872,7.948-20.948,16.435-33.204,25.333c-11.282,8.205-23.538,16.769-36.691,25.563       c-0.154,0.103-0.333,0.231-0.513,0.333c-12.897,8.641-26.692,17.538-41.255,26.563c-13.076,8.128-26.102,15.897-38.845,23.23       c-0.231,0.154-0.436,0.257-0.641,0.385c-9.307,5.359-18.461,10.487-27.409,15.333c-0.205,0.103-0.41,0.231-0.615,0.333       c-0.795,0.436-1.615,0.872-2.41,1.282c-13.41,7.23-26.358,13.846-38.589,19.717c-0.077,0.974-0.154,1.949-0.231,2.949       c13.077-6.256,26.974-13.359,41.409-21.179c0.154-0.077,0.333-0.154,0.487-0.256c0.051-0.026,0.103-0.051,0.154-0.077       c8.923-4.82,18.051-9.923,27.333-15.256c0.205-0.102,0.436-0.231,0.667-0.359c13.128-7.538,26.538-15.564,40.05-23.922       c13.871-8.615,27.691-17.513,41.05-26.487c0.179-0.103,0.359-0.231,0.513-0.359c12.487-8.384,24.615-16.82,36.076-25.153       c12.23-8.846,23.692-17.563,34.076-25.922c0.179-0.128,0.359-0.282,0.538-0.41c2.641-2.128,5.23-4.231,7.718-6.308       c1.487-1.231,2.923-2.461,4.359-3.667C278.017,65.924,294.94,46.745,293.068,37.207z"/>
				</g>
			</g>
		</g>
		<polygon style="fill:#564BB7;" points="456.719,146.916 423.151,153.36 446.517,178.309 415.566,163.779 419.829,197.701     403.332,167.747 386.834,197.701 391.097,163.779 360.145,178.308 383.512,153.36 349.944,146.916 383.512,140.473     360.145,115.524 391.097,130.054 386.834,96.132 403.332,126.086 419.829,96.132 415.566,130.054 446.518,115.525     423.151,140.473   "/>
		<g>
			<path style="fill:#FF8933;" d="M481.584,227.576c-9.891-0.749-19.782-0.939-29.674-0.954c-0.001-0.003-0.002-0.007-0.003-0.01     c4.177-3.793,8.252-7.701,12.042-11.928c0.142-0.158,0.161-0.399,0.032-0.579c-0.149-0.208-0.438-0.256-0.646-0.107     c-4.582,3.279-8.883,6.873-13.082,10.58c-0.165-0.093-0.335-0.174-0.515-0.24c-0.011-4.307-0.055-8.614-0.099-12.922     c-0.124-5.476-0.248-10.952-0.552-16.428c-0.01-0.18-0.154-0.328-0.338-0.338c-0.198-0.011-0.367,0.141-0.378,0.338     c-0.304,5.476-0.428,10.952-0.552,16.428c-0.044,4.264-0.087,8.529-0.099,12.792c-0.205,0.048-0.406,0.107-0.597,0.188     c-1.472-1.586-2.955-3.164-4.479-4.704c-2.326-2.403-4.684-4.777-7.138-7.065c-0.083-0.077-0.212-0.087-0.305-0.017     c-0.106,0.079-0.128,0.228-0.049,0.334c2.005,2.69,4.106,5.294,6.241,7.869c1.35,1.668,2.742,3.298,4.143,4.92     c-0.181,0.277-0.313,0.586-0.411,0.909c-4.275,0.03-8.55,0.076-12.824,0.224c-5.476,0.144-10.952,0.341-16.428,0.711     c-0.133,0.009-0.241,0.114-0.25,0.25c-0.01,0.148,0.102,0.276,0.25,0.287c5.476,0.37,10.952,0.567,16.428,0.711     c4.309,0.149,8.618,0.195,12.928,0.224c0.007,0.017,0.015,0.033,0.023,0.05c-4.054,3.746-8.023,7.586-11.768,11.676     c-0.138,0.151-0.156,0.383-0.031,0.555c0.143,0.196,0.417,0.238,0.613,0.095c4.51-3.299,8.792-6.852,12.99-10.501     c0.215,0.098,0.441,0.175,0.677,0.228c0.026,4.374,0.031,8.747,0.145,13.121c0.1,5.476,0.237,10.952,0.495,16.428     c0.009,0.182,0.155,0.332,0.341,0.341c0.198,0.009,0.366-0.143,0.375-0.341c0.257-5.476,0.394-10.952,0.495-16.428     c0.115-4.417,0.119-8.833,0.146-13.25c0.125-0.045,0.245-0.096,0.363-0.154c1.504,1.677,2.998,3.363,4.545,5.002     c2.322,2.406,4.64,4.816,7.113,7.088c0.157,0.144,0.4,0.163,0.578,0.032c0.203-0.149,0.247-0.434,0.098-0.637     c-1.987-2.707-4.128-5.275-6.266-7.847c-1.476-1.736-3.004-3.424-4.523-5.12c0.058-0.106,0.125-0.206,0.172-0.317     c9.926-0.014,19.851-0.203,29.777-0.954c0.13-0.01,0.238-0.114,0.248-0.248C481.843,227.717,481.732,227.588,481.584,227.576z"/>
			<g>
				<path style="fill:#FF8933;" d="M319.791,289.183c-10.786-0.816-21.572-1.024-32.357-1.04c-0.001-0.004-0.002-0.008-0.004-0.011      c4.556-4.137,8.999-8.398,13.131-13.007c0.155-0.173,0.175-0.435,0.034-0.631c-0.162-0.227-0.478-0.279-0.705-0.117      c-4.997,3.575-9.687,7.494-14.265,11.536c-0.18-0.101-0.366-0.19-0.562-0.261c-0.012-4.697-0.06-9.394-0.108-14.09      c-0.135-5.971-0.27-11.943-0.602-17.914c-0.011-0.196-0.168-0.357-0.369-0.368c-0.216-0.012-0.4,0.153-0.412,0.368      c-0.332,5.972-0.467,11.943-0.602,17.914c-0.048,4.65-0.095,9.3-0.108,13.95c-0.224,0.052-0.443,0.116-0.651,0.204      c-1.605-1.73-3.222-3.45-4.884-5.13c-2.536-2.62-5.107-5.209-7.784-7.704c-0.09-0.084-0.231-0.095-0.333-0.018      c-0.115,0.086-0.139,0.249-0.053,0.364c2.187,2.934,4.478,5.773,6.805,8.581c1.472,1.818,2.99,3.596,4.518,5.365      c-0.197,0.302-0.341,0.638-0.449,0.991c-4.662,0.032-9.323,0.083-13.984,0.244c-5.972,0.157-11.943,0.372-17.914,0.775      c-0.144,0.01-0.263,0.125-0.273,0.273c-0.011,0.162,0.112,0.302,0.273,0.313c5.971,0.403,11.943,0.618,17.914,0.776      c4.699,0.163,9.398,0.212,14.097,0.244c0.008,0.019,0.016,0.036,0.025,0.054c-4.421,4.084-8.749,8.272-12.833,12.732      c-0.151,0.165-0.17,0.418-0.033,0.605c0.156,0.213,0.455,0.259,0.668,0.104c4.918-3.598,9.587-7.473,14.164-11.451      c0.235,0.107,0.481,0.191,0.738,0.249c0.029,4.77,0.034,9.539,0.159,14.308c0.109,5.972,0.259,11.943,0.54,17.914      c0.01,0.199,0.169,0.363,0.372,0.372c0.215,0.01,0.399-0.156,0.409-0.372c0.281-5.971,0.43-11.943,0.539-17.914      c0.126-4.816,0.13-9.633,0.16-14.449c0.136-0.049,0.267-0.105,0.396-0.168c1.64,1.829,3.269,3.668,4.956,5.455      c2.532,2.624,5.06,5.252,7.757,7.729c0.171,0.158,0.436,0.177,0.631,0.035c0.221-0.162,0.269-0.474,0.107-0.695      c-2.166-2.952-4.501-5.752-6.832-8.557c-1.609-1.893-3.275-3.734-4.932-5.584c0.063-0.115,0.136-0.224,0.188-0.346      c10.823-0.015,21.647-0.222,32.47-1.041c0.142-0.011,0.26-0.124,0.271-0.271C320.074,289.337,319.953,289.196,319.791,289.183z"/>
				<path style="fill:#FF8933;" d="M225.98,63.864c-9.891-0.749-19.782-0.939-29.673-0.954c-0.001-0.003-0.002-0.007-0.003-0.01      c4.177-3.793,8.253-7.701,12.042-11.928c0.142-0.158,0.16-0.399,0.032-0.579c-0.149-0.208-0.438-0.256-0.647-0.107      c-4.582,3.279-8.883,6.873-13.082,10.58c-0.165-0.093-0.335-0.174-0.515-0.24c-0.011-4.307-0.055-8.614-0.099-12.922      c-0.124-5.476-0.248-10.952-0.552-16.428c-0.01-0.18-0.154-0.328-0.338-0.338c-0.198-0.011-0.367,0.141-0.378,0.338      c-0.304,5.476-0.428,10.952-0.552,16.428c-0.044,4.264-0.087,8.529-0.099,12.792c-0.205,0.048-0.406,0.107-0.597,0.188      c-1.472-1.586-2.955-3.164-4.479-4.704c-2.326-2.403-4.684-4.777-7.138-7.065c-0.083-0.077-0.211-0.087-0.305-0.017      c-0.106,0.079-0.128,0.228-0.049,0.334c2.005,2.69,4.106,5.294,6.241,7.869c1.35,1.668,2.742,3.298,4.143,4.92      c-0.181,0.277-0.313,0.585-0.412,0.909c-4.275,0.03-8.55,0.076-12.824,0.224c-5.476,0.144-10.953,0.341-16.428,0.711      c-0.132,0.009-0.241,0.114-0.25,0.25c-0.01,0.148,0.102,0.276,0.25,0.287c5.476,0.37,10.952,0.567,16.428,0.711      c4.309,0.149,8.618,0.195,12.927,0.224c0.007,0.017,0.015,0.033,0.023,0.05c-4.054,3.746-8.023,7.586-11.768,11.676      c-0.138,0.151-0.156,0.383-0.031,0.555c0.143,0.196,0.417,0.238,0.613,0.095c4.51-3.299,8.792-6.852,12.989-10.501      c0.215,0.098,0.441,0.175,0.677,0.228c0.026,4.374,0.031,8.747,0.145,13.121c0.1,5.476,0.237,10.952,0.495,16.428      c0.009,0.182,0.155,0.332,0.341,0.341c0.198,0.009,0.366-0.143,0.375-0.341c0.257-5.476,0.394-10.952,0.495-16.428      c0.115-4.417,0.119-8.833,0.146-13.25c0.125-0.045,0.245-0.096,0.363-0.154c1.504,1.677,2.998,3.363,4.545,5.002      c2.322,2.406,4.64,4.816,7.113,7.088c0.157,0.144,0.4,0.163,0.578,0.032c0.203-0.149,0.247-0.434,0.098-0.637      c-1.987-2.707-4.128-5.275-6.266-7.847c-1.475-1.736-3.004-3.424-4.523-5.12c0.058-0.106,0.125-0.206,0.172-0.317      c9.926-0.014,19.851-0.203,29.776-0.954c0.13-0.01,0.238-0.114,0.248-0.248C226.24,64.005,226.129,63.876,225.98,63.864z"/>
				<path style="fill:#FF8933;" d="M90.686,287.804c-9.891-0.749-19.782-0.939-29.673-0.954c-0.001-0.004-0.002-0.007-0.003-0.01      c4.177-3.793,8.252-7.701,12.042-11.928c0.142-0.158,0.161-0.399,0.032-0.579c-0.149-0.208-0.438-0.256-0.646-0.107      c-4.582,3.279-8.883,6.873-13.082,10.58c-0.165-0.093-0.335-0.174-0.515-0.24c-0.011-4.307-0.055-8.614-0.099-12.922      c-0.124-5.476-0.248-10.952-0.552-16.428c-0.01-0.18-0.154-0.328-0.338-0.338c-0.198-0.011-0.367,0.14-0.378,0.338      c-0.304,5.476-0.428,10.952-0.552,16.428c-0.044,4.264-0.087,8.529-0.099,12.793c-0.205,0.047-0.407,0.106-0.597,0.187      c-1.472-1.586-2.955-3.164-4.479-4.704c-2.326-2.403-4.684-4.777-7.138-7.065c-0.083-0.077-0.211-0.087-0.305-0.017      c-0.106,0.079-0.128,0.228-0.049,0.334c2.005,2.69,4.107,5.295,6.241,7.869c1.35,1.668,2.742,3.298,4.143,4.92      c-0.181,0.277-0.313,0.585-0.411,0.909c-4.275,0.03-8.55,0.076-12.824,0.224c-5.476,0.144-10.952,0.341-16.428,0.711      c-0.132,0.009-0.241,0.114-0.25,0.25c-0.01,0.148,0.102,0.276,0.25,0.287c5.476,0.37,10.952,0.567,16.428,0.711      c4.309,0.149,8.618,0.195,12.928,0.224c0.007,0.017,0.015,0.033,0.023,0.05c-4.054,3.746-8.023,7.586-11.769,11.676      c-0.138,0.151-0.156,0.383-0.03,0.555c0.143,0.195,0.417,0.238,0.613,0.095c4.51-3.299,8.792-6.853,12.989-10.501      c0.215,0.098,0.441,0.175,0.677,0.228c0.026,4.374,0.031,8.747,0.145,13.121c0.1,5.476,0.237,10.952,0.495,16.428      c0.009,0.182,0.155,0.332,0.341,0.341c0.198,0.009,0.366-0.144,0.375-0.341c0.257-5.476,0.394-10.952,0.495-16.428      c0.115-4.417,0.119-8.834,0.147-13.251c0.125-0.045,0.245-0.096,0.363-0.154c1.504,1.677,2.998,3.363,4.545,5.002      c2.322,2.407,4.64,4.816,7.113,7.088c0.157,0.144,0.4,0.163,0.578,0.032c0.203-0.149,0.247-0.435,0.097-0.638      c-1.987-2.707-4.128-5.275-6.265-7.847c-1.476-1.735-3.004-3.424-4.523-5.12c0.058-0.105,0.125-0.205,0.172-0.317      c9.926-0.014,19.851-0.203,29.776-0.954c0.131-0.01,0.238-0.114,0.248-0.248C90.946,287.945,90.835,287.815,90.686,287.804z"/>
			</g>
		</g>
		<g>
			<g>
				<path style="fill:#564BB7;" d="M329.577,395.399c0,13.359-4.487,25.692-12.051,35.538c-8.179,10.718-20.025,18.512-33.64,21.538      c-4.128,0.923-8.41,1.41-12.794,1.41c-4.898,0-9.641-0.59-14.205-1.744c-8.051-2-15.461-5.692-21.82-10.692      c-10.897-8.512-18.718-20.846-21.41-34.999c-0.692-3.564-1.051-7.282-1.051-11.051c0-9.923,2.487-19.256,6.846-27.435      c5.641-10.59,14.436-19.23,25.153-24.692c7.949-4.051,16.974-6.333,26.487-6.333c0.974,0,1.923,0.026,2.872,0.077      c2.59,0.128,5.128,0.41,7.615,0.872c13.872,2.513,26.051,9.897,34.666,20.359C324.577,368.323,329.577,381.271,329.577,395.399z      "/>
				<g style="opacity:0.23;">
					<path style="fill:#F3C7D1;" d="M244.604,343.272c-3.231,9.949-5.282,20.384-6.513,30.768       c-2.641,22.359-1.795,44.948-3.026,67.409c-10.897-8.512-18.718-20.846-21.41-34.999c0.949-12.948,2.897-25.82,5.795-38.486       C225.092,357.374,233.887,348.733,244.604,343.272z"/>
					<path style="fill:#F3C7D1;" d="M272.603,398.168c0.103,18.512,8.795,36.179,11.282,54.306c-4.128,0.923-8.41,1.41-12.794,1.41       c-4.898,0-9.641-0.59-14.205-1.744c0.282-18.743-4.436-37.537-2.051-56.152c2.615-20.512,13.692-39.204,19.128-58.973       c2.59,0.128,5.128,0.41,7.615,0.872c0.077,1.231,0.231,2.461,0.41,3.667c1.359,9.23,4.641,18.179,5.077,27.487       c0.462,9.307-2.795,19.717-11.051,24.076c-1.026,0.564-2.179,1.051-2.795,2.025       C272.655,396.014,272.603,397.143,272.603,398.168z"/>
					<path style="fill:#F3C7D1;" d="M329.577,395.399c0,13.359-4.487,25.692-12.051,35.538c-4.103-4.128-11.769,0.179-17.282-2.128       c-5.308-2.256-6.205-9.41-5.436-15.128c2.564-19.615,14.359-37.025,21.435-55.434       C324.577,368.323,329.577,381.271,329.577,395.399z"/>
				</g>
			</g>
			<g>
				<path style="fill:#564BB7;" d="M432.757,393.609l18.487,3.538c-1.667,2.282-3.359,4.538-5.102,6.769l-13.384,2.564l6.026,6.436      c-2.128,2.487-4.308,4.923-6.564,7.308l-7.051-3.308l1.179,9.384c-2.231,2.231-4.513,4.436-6.82,6.564l-6.59-11.974      l-16.512,29.948l4.282-33.922l-30.948,14.512l23.359-24.948l-32.82-6.282l-0.744-0.154l1.102-0.205l32.461-6.231l-14.641-15.641      l-8.718-9.307l11.333,5.308l19.615,9.205l-4.282-33.922l16.512,29.974l16.487-29.974l-4.256,33.922l30.948-14.512      L432.757,393.609z"/>
				<polygon style="fill:#564BB7;" points="456.719,146.916 423.151,153.36 446.517,178.309 415.566,163.779 419.829,197.701       403.332,167.747 386.834,197.701 391.097,163.779 360.145,178.308 383.512,153.36 349.944,146.916 383.512,140.473       360.145,115.524 391.097,130.054 386.834,96.132 403.332,126.086 419.829,96.132 415.566,130.054 446.518,115.525       423.151,140.473     "/>
				<path style="fill:#564BB7;" d="M171.558,468.094l-30.948-14.512l1.821,14.564c-4.077-2.205-8.103-4.513-12.025-6.949      l-2.025-3.667l-1,1.795c-7.051-4.487-13.846-9.333-20.384-14.513l1.564-1.667l-4.743-0.923      c-3.564-2.898-7.026-5.923-10.41-9.051l15.153-2.898l-6.282-6.718l-17.076-18.23l29.82,13.974l1.128,0.539l-0.103-0.795      l-4.154-33.127l16.487,29.948l16.487-29.948l-3.769,29.948l-0.487,3.974l8.231-3.846l22.717-10.666l-10.897,11.641      L148.2,430.274l33.563,6.436l-33.563,6.436L171.558,468.094z"/>
			</g>
		</g>
		<g>
			<g>
				<g>
					<polygon style="fill:#F3C7D1;" points="315.115,162.79 301.439,167.163 297.066,180.839 292.692,167.163 279.016,162.79        292.692,158.417 297.066,144.741 301.439,158.417      "/>
				</g>
			</g>
			<g>
				<g>
					<polygon style="fill:#F3C7D1;" points="352.639,453.027 338.963,457.4 334.59,471.076 330.216,457.4 316.541,453.027        330.216,448.654 334.59,434.978 338.963,448.654      "/>
				</g>
			</g>
			<g>
				<g>
					<polygon style="fill:#F3C7D1;" points="125.694,337.809 112.018,342.182 107.645,355.858 103.272,342.182 89.596,337.809        103.272,333.435 107.645,319.759 112.018,333.435      "/>
				</g>
			</g>
		</g>
	</g>
</g>















</svg>
