<?xml version="1.0" encoding="UTF-8"?>
<!-- Generator: Adobe Illustrator 27.3.1, SVG Export Plug-In . SVG Version: 6.00 Build 0)  -->
<svg xmlns="http://www.w3.org/2000/svg" xmlns:xlink="http://www.w3.org/1999/xlink" version="1.1" id="Capa_1" x="0px" y="0px" viewBox="0 0 512 512" style="enable-background:new 0 0 512 512;" xml:space="preserve" width="512" height="512">
<g>
	<path style="fill:#FFFFFF;" d="M310.323,505.358c-33.683,0-68.897-8.049-101.838-23.275c-3.205-1.481-6.404-3.028-9.606-4.578   c-12.81-6.2-24.91-12.057-36.837-13.139c-1.613-0.149-3.295-0.221-5.172-0.221c-4.088,0-8.395,0.343-12.955,0.703   c-5.022,0.398-10.216,0.808-15.657,0.808c-2.26,0-4.366-0.069-6.439-0.213c-37.718-2.447-73.893-31.501-96.698-77.717   c-19.903-40.37-28.23-87.12-24.083-135.201c0.075-1.066,0.199-2.389,0.325-3.715c1.983-19.857,6.073-39.354,12.175-58.117   L4.26,170.089c-1.852-4.113-1.994-8.794-0.396-13.009c1.598-4.218,4.806-7.628,8.918-9.48l25.736-11.589   c2.477-4.069,5.056-8.035,7.696-11.841c12.324-17.77,27.098-33.968,43.907-48.142c3.41-2.89,7.008-5.763,10.968-8.755   c5.23-3.939,10.46-7.578,15.569-10.836c17.205-11.066,36.179-19.947,56.338-26.356c0.727-0.244,1.669-0.527,2.613-0.807   c5.735-1.748,11.797-3.342,18.005-4.733c14.468-11.575,32.418-17.899,51.057-17.899c16.733,0,32.637,4.953,46.29,14.371   c32.959,4.699,65.527,15.344,94.465,30.904c25.758,13.845,48.413,32.384,67.404,55.147l47.99,17.513   c8.823,3.222,13.365,12.984,10.144,21.806l-14.317,39.235c11.38,33.55,15.954,70.174,13.24,106.348   c-2.697,35.404-12.035,70.221-27.009,100.724c-0.455,0.994-0.935,1.965-1.42,2.931c-19.284,38.144-46.645,68.021-79.148,86.444   c-1.752,0.98-3.413,1.899-5.101,2.762c-0.891,0.476-1.993,1.049-3.138,1.581c-25.254,12.574-53.429,18.952-83.738,18.952   C310.328,505.358,310.328,505.358,310.323,505.358z"/>
	<g>
		<g>
			<path style="fill:#DBB0FF;" d="M493.894,291.263C491.4,324,482.812,356.85,468.47,385.986c-0.397,0.879-0.822,1.729-1.247,2.579     c-16.836,33.303-41.183,61.618-72.332,79.276c-1.474,0.822-2.948,1.644-4.45,2.409c-0.907,0.482-1.814,0.964-2.749,1.389     c-53.002,26.501-117.086,20.549-171.108-4.422c-16.921-7.823-33.643-17.544-52.038-19.217     c-13.491-1.247-27.068,1.984-40.588,1.049c-36.251-2.353-65.586-33.757-82.62-68.279c-18.99-38.518-26.132-82.819-22.391-126.212     c0.085-1.19,0.198-2.381,0.312-3.571c3.458-34.607,13.803-68.534,30.526-98.323c0.454-0.822,0.907-1.644,1.389-2.466     c3.118-5.413,6.434-10.657,9.977-15.759c11.677-16.836,25.537-31.886,40.899-44.839c3.345-2.834,6.774-5.555,10.26-8.191     c4.705-3.543,9.523-6.916,14.455-10.062c16.439-10.572,34.069-18.678,52.35-24.489c0.765-0.255,1.531-0.482,2.296-0.708     c64.566-19.699,137.351-10.714,196.929,21.314C456.849,109.668,500.923,197.589,493.894,291.263z"/>
		</g>
		<g>
			<g>
				<g>
					<g>
						<g>
							
								<rect x="74.253" y="116.032" transform="matrix(0.9118 -0.4106 0.4106 0.9118 -94.6168 88.3642)" style="fill:#302945;" width="168.322" height="296.859"/>
						</g>
						<g style="opacity:0.23;">
							
								<rect x="74.253" y="116.032" transform="matrix(0.9118 -0.4106 0.4106 0.9118 -94.6168 88.3642)" style="fill:#977BFF;" width="168.322" height="296.859"/>
						</g>
					</g>
					<g>
						<path style="fill:#FFA352;" d="M151.887,415.754l-0.461-1.024c-0.534-1.187-1.499-2.095-2.715-2.557        c-1.214-0.46-2.534-0.421-3.724,0.113l-1.024,0.462L36.44,173.97l1.026-0.462c2.447-1.104,3.542-3.991,2.44-6.438        l-0.462-1.024l123.671-55.69l0.461,1.024c1.1,2.45,3.986,3.54,6.441,2.441l1.024-0.462l107.522,238.778l-1.026,0.462        c-2.447,1.105-3.542,3.991-2.44,6.441l0.462,1.027l-1.025,0.46L151.887,415.754z M146.983,409.607        c0.852,0,1.705,0.155,2.526,0.465c1.423,0.54,2.609,1.497,3.425,2.746l119.733-53.916c-0.803-2.956,0.397-6.126,2.959-7.808        L169.877,116.251c-2.958,0.8-6.127-0.398-7.81-2.959L42.334,167.208c0.804,2.956-0.397,6.125-2.959,7.805l105.75,234.842        C145.734,409.69,146.358,409.607,146.983,409.607z"/>
					</g>
					<g>
						<g>
							<path style="fill:#FFA352;" d="M124.765,219.638c-14.372,0-28.122-8.265-34.395-22.196         c-2.765-6.145-3.835-12.887-3.09-19.497l0.176-1.561l1.279,0.908c10.303,7.318,23.876,8.633,35.412,3.438         c11.53-5.19,19.545-16.228,20.92-28.805l0.171-1.564l1.283,0.908c5.435,3.85,9.766,9.12,12.526,15.248h0.001         c8.525,18.935,0.057,41.275-18.877,49.803C135.168,218.572,129.925,219.638,124.765,219.638z M88.978,179.694         c-0.39,5.782,0.664,11.625,3.079,16.99c8.106,18.002,29.344,26.06,47.355,17.947c18.002-8.107,26.054-29.351,17.947-47.356         h0.001c-2.411-5.347-6.08-10.011-10.662-13.571c-1.92,12.566-10.154,23.474-21.793,28.714         C113.256,187.66,99.639,186.597,88.978,179.694z"/>
						</g>
						<g>
							<path style="fill:#FFA352;" d="M175.355,371.662l-1.283-0.908c-5.435-3.85-9.766-9.12-12.526-15.248l0,0         c-8.525-18.935-0.058-41.275,18.877-49.803c9.169-4.13,19.397-4.431,28.807-0.872c9.409,3.568,16.865,10.582,20.993,19.749         c2.767,6.142,3.835,12.884,3.09,19.497l-0.176,1.561l-1.279-0.908c-10.304-7.319-23.876-8.636-35.413-3.438         c-11.53,5.19-19.546,16.228-20.92,28.806L175.355,371.662z M163.234,354.747c2.408,5.348,6.076,10.012,10.659,13.571         c1.919-12.566,10.154-23.474,21.794-28.714c11.649-5.245,25.268-4.179,35.926,2.724c0.392-5.785-0.663-11.625-3.079-16.989         c-8.106-18.003-29.349-26.054-47.353-17.947C163.177,315.498,155.126,336.742,163.234,354.747L163.234,354.747z"/>
						</g>
						<g>
							<path style="fill:#FFA352;" d="M158.615,299.555c-13.783,0-26.971-7.927-32.988-21.288         c-3.961-8.796-4.259-18.608-0.84-27.629c3.42-9.023,10.147-16.173,18.945-20.134c18.156-8.171,39.585-0.053,47.763,18.105         l0,0c3.961,8.796,4.259,18.608,0.84,27.629c-3.42,9.023-10.147,16.173-18.945,20.134         C168.593,298.531,163.564,299.555,158.615,299.555z M158.51,229.173c-4.697,0-9.466,0.969-14.02,3.02         c-17.229,7.756-24.933,28.086-17.175,45.316c7.757,17.227,28.083,24.933,45.316,17.175         c17.229-7.756,24.933-28.086,17.175-45.316C184.099,236.694,171.585,229.173,158.51,229.173z"/>
						</g>
					</g>
					<g>
						<g>
							<path style="fill:#FFA352;" d="M58.82,185.064l-12.49-4.736l4.735-12.489l12.49,4.733L58.82,185.064z M48.261,179.459         l9.689,3.673l3.672-9.69l-9.689-3.67L48.261,179.459z"/>
						</g>
						<g>
							<path style="fill:#FFA352;" d="M164.712,137.378l-12.489-4.736l4.734-12.489l12.489,4.736L164.712,137.378z M154.156,131.774         l9.688,3.673l3.672-9.688l-9.688-3.673L154.156,131.774z"/>
						</g>
					</g>
					<g>
						<g>
							<path style="fill:#FFA352;" d="M156.911,402.897l-12.49-4.733l4.734-12.489l12.49,4.733L156.911,402.897z M146.353,397.295         l9.689,3.67l3.672-9.688l-9.689-3.67L146.353,397.295z"/>
						</g>
						<g>
							<path style="fill:#FFA352;" d="M262.805,355.215l-12.49-4.736l4.734-12.489l12.49,4.736L262.805,355.215z M252.247,349.61         l9.689,3.673l3.672-9.688l-9.689-3.673L252.247,349.61z"/>
						</g>
					</g>
				</g>
				<g>
					<g>
						<g>
							
								<rect x="180.347" y="99.71" transform="matrix(0.9963 -0.0856 0.0856 0.9963 -20.2702 23.553)" style="fill:#302945;" width="168.322" height="296.859"/>
						</g>
						<g style="opacity:0.35;">
							
								<rect x="180.347" y="99.71" transform="matrix(0.9963 -0.0856 0.0856 0.9963 -20.2702 23.553)" style="fill:#977BFF;" width="168.322" height="296.859"/>
						</g>
					</g>
					<g>
						<path style="fill:#FFA352;" d="M208.268,388.74l-0.097-1.118c-0.231-2.677-2.574-4.695-5.268-4.434l-1.12,0.094        l-22.417-260.91l1.121-0.097c1.295-0.11,2.47-0.72,3.308-1.713c0.839-0.996,1.239-2.258,1.126-3.554l-0.097-1.121l1.12-0.094        l134.012-11.515l0.097,1.118c0.112,1.298,0.721,2.472,1.716,3.31c0.995,0.839,2.262,1.221,3.553,1.127l1.12-0.097l0.097,1.118        l22.319,259.792l-1.118,0.094c-2.675,0.233-4.664,2.596-4.435,5.27l0.096,1.121l-1.118,0.094L208.268,388.74z M203.838,380.94        c3.056,0.221,5.648,2.402,6.388,5.375l130.83-11.238c0.221-3.056,2.404-5.649,5.377-6.391L324.387,112.08        c-1.489-0.105-2.902-0.675-4.066-1.655c-1.164-0.98-1.967-2.275-2.324-3.723L187.168,117.94        c-0.105,1.489-0.674,2.904-1.654,4.069c-0.98,1.162-2.275,1.965-3.724,2.322L203.838,380.94z"/>
					</g>
					<g>
						<g>
							<path style="fill:#FFA352;" d="M259.943,196.811c-8.849,0-17.331-3.083-24.185-8.854         c-7.699-6.48-12.411-15.564-13.272-25.581c-0.579-6.712,0.645-13.43,3.536-19.423l0.681-1.414l0.908,1.282         c7.302,10.313,19.667,16.045,32.278,14.966c12.597-1.082,23.816-8.843,29.277-20.255l0.678-1.42l0.91,1.281         c3.856,5.431,6.198,11.838,6.772,18.534l0,0c0.861,10.02-2.23,19.777-8.704,27.471c-6.477,7.697-15.565,12.411-25.593,13.272         C262.131,196.764,261.034,196.811,259.943,196.811z M227.047,145.167c-2.284,5.328-3.222,11.19-2.717,17.047         c0.818,9.527,5.3,18.166,12.62,24.327c7.32,6.161,16.592,9.112,26.122,8.284c9.534-0.819,18.177-5.3,24.335-12.622         c6.156-7.316,9.095-16.591,8.276-26.118l0,0c-0.502-5.849-2.419-11.462-5.566-16.336         c-5.972,11.221-17.352,18.786-30.07,19.879C247.32,160.709,234.822,155.204,227.047,145.167z"/>
						</g>
						<g>
							<path style="fill:#FFA352;" d="M245.007,354.902l-0.911-1.281c-3.855-5.43-6.197-11.838-6.771-18.534l0,0         c-0.861-10.02,2.229-19.777,8.704-27.471c6.477-7.698,15.565-12.411,25.593-13.272c10.02-0.858,19.774,2.231,27.471,8.713         c7.699,6.48,12.413,15.564,13.273,25.581c0.577,6.712-0.646,13.43-3.537,19.423l-0.681,1.414l-0.908-1.282         c-7.302-10.31-19.648-16.029-32.278-14.966c-12.595,1.082-23.815,8.843-29.277,20.256L245.007,354.902z M274.906,296.051         c-1.038,0-2.08,0.044-3.126,0.135c-9.534,0.819-18.177,5.301-24.335,12.622c-6.156,7.316-9.095,16.591-8.276,26.118l0,0         c0.502,5.849,2.419,11.462,5.566,16.336c5.973-11.221,17.353-18.786,30.07-19.879c12.723-1.102,25.224,4.423,33,14.462         c2.282-5.328,3.222-11.188,2.718-17.047c-0.819-9.527-5.301-18.166-12.62-24.327         C291.386,298.985,283.319,296.051,274.906,296.051z"/>
						</g>
						<g>
							<path style="fill:#FFA352;" d="M264.924,283.344c-8.49,0-16.628-2.959-23.199-8.489c-7.381-6.214-11.899-14.927-12.725-24.54         s2.141-18.971,8.353-26.35c6.214-7.382,14.929-11.902,24.54-12.727c19.851-1.688,37.372,13.051,39.077,32.891         c1.705,19.846-13.052,37.375-32.893,39.08C267.022,283.299,265.97,283.344,264.924,283.344z M265.01,212.953         c-0.98,0-1.965,0.042-2.959,0.127c-9.119,0.783-17.388,5.071-23.282,12.074c-5.894,7.003-8.709,15.882-7.926,25         c0.783,9.12,5.071,17.39,12.073,23.286c7.004,5.893,15.895,8.708,25.003,7.924c18.826-1.616,32.825-18.249,31.208-37.076         C297.595,226.458,282.589,212.953,265.01,212.953z"/>
						</g>
					</g>
					<g>
						<g>
							<path style="fill:#FFA352;" d="M196.813,140.246l-10.22-8.6l8.604-10.219l10.218,8.603L196.813,140.246z M188.704,131.464         l7.926,6.673l6.672-7.924l-7.926-6.676L188.704,131.464z"/>
						</g>
						<g>
							<path style="fill:#FFA352;" d="M312.521,130.307l-10.219-8.6l8.601-10.219l10.221,8.6L312.521,130.307z M304.413,121.524         l7.924,6.673l6.673-7.927l-7.926-6.674L304.413,121.524z"/>
						</g>
					</g>
					<g>
						<g>
							<path style="fill:#FFA352;" d="M217.263,378.274l-10.22-8.603l8.604-10.216l10.218,8.6L217.263,378.274z M209.155,369.489         l7.926,6.676l6.672-7.927l-7.926-6.673L209.155,369.489z"/>
						</g>
						<g>
							<path style="fill:#FFA352;" d="M332.971,368.332l-10.219-8.6l8.601-10.219l10.219,8.6L332.971,368.332z M324.864,359.549         l7.924,6.673l6.672-7.927l-7.925-6.674L324.864,359.549z"/>
						</g>
					</g>
				</g>
				<g>
					<g>
						<g>
							
								<rect x="281.85" y="103.28" transform="matrix(0.9394 0.3428 -0.3428 0.9394 108.4641 -110.2178)" style="fill:#302945;" width="168.322" height="296.859"/>
						</g>
						<g style="opacity:0.45;">
							
								<rect x="281.85" y="103.28" transform="matrix(0.9394 0.3428 -0.3428 0.9394 108.4641 -110.2178)" style="fill:#977BFF;" width="168.322" height="296.859"/>
						</g>
					</g>
					<g>
						<path style="fill:#FFA352;" d="M383.105,401.945l-1.055-0.387L255.694,355.45l0.385-1.055c0.92-2.524-0.383-5.325-2.905-6.247        l-1.056-0.385l89.771-246.005l1.054,0.387c2.526,0.913,5.324-0.382,6.245-2.904l0.386-1.057l1.055,0.387l126.356,46.108        l-0.385,1.055c-0.446,1.22-0.39,2.543,0.159,3.723c0.55,1.179,1.524,2.073,2.746,2.521l1.056,0.385L390.79,398.369        l-1.055-0.387c-2.519-0.911-5.325,0.385-6.244,2.906L383.105,401.945z M258.493,354.08l123.355,45.012        c1.491-2.68,4.563-4.113,7.572-3.521l88.29-241.95c-1.307-0.722-2.347-1.835-2.988-3.214        c-0.642-1.381-0.823-2.893-0.537-4.357l-123.354-45.011c-1.49,2.676-4.567,4.088-7.571,3.521l-88.29,241.947        C257.647,347.996,259.077,351.071,258.493,354.08z"/>
					</g>
					<g>
						<g>
							<path style="fill:#FFA352;" d="M399.507,206.811c-4.355,0-8.723-0.764-12.937-2.303c-9.445-3.446-16.985-10.368-21.23-19.491         c-4.245-9.123-4.685-19.351-1.237-28.797c2.308-6.327,6.251-11.899,11.402-16.115l1.214-0.994l0.282,1.545         c2.268,12.433,11.062,22.852,22.947,27.189c11.88,4.337,25.325,2.032,35.091-6.012l1.214-0.999l0.284,1.547         c1.205,6.546,0.624,13.344-1.68,19.66l0,0c-3.447,9.447-10.367,16.989-19.483,21.232         C410.319,205.629,404.923,206.811,399.507,206.811z M375.5,142.546c-4.319,3.867-7.644,8.785-9.659,14.31         c-3.277,8.982-2.859,18.705,1.176,27.38c4.035,8.674,11.206,15.257,20.186,18.534c8.991,3.28,18.718,2.865,27.388-1.173         c8.669-4.036,15.249-11.207,18.527-20.192c2.012-5.511,2.642-11.412,1.846-17.158c-10.151,7.656-23.664,9.707-35.65,5.337         C387.315,165.204,378.312,154.93,375.5,142.546z"/>
						</g>
						<g>
							<path style="fill:#FFA352;" d="M362.816,361.996l-0.282-1.545c-2.268-12.431-11.061-22.849-22.947-27.189         c-11.883-4.335-25.325-2.029-35.091,6.012l-1.214,0.999l-0.284-1.547c-1.204-6.549-0.623-13.347,1.68-19.66l0,0         c7.117-19.505,28.783-29.586,48.287-22.467c19.507,7.119,29.585,28.781,22.467,48.289         c-2.308,6.328-6.251,11.899-11.402,16.115L362.816,361.996z M327.357,329.258c4.335,0,8.691,0.745,12.864,2.267         c12.002,4.382,21.004,14.653,23.815,27.037c4.319-3.867,7.644-8.785,9.659-14.31c6.767-18.548-2.815-39.143-21.363-45.914         c-18.55-6.767-39.148,2.818-45.915,21.365c-2.011,5.511-2.642,11.409-1.846,17.158         C311.186,331.87,319.233,329.258,327.357,329.258z"/>
						</g>
						<g>
							<path style="fill:#FFA352;" d="M366.852,287.216c-4.175,0-8.362-0.731-12.402-2.206c-9.064-3.308-16.296-9.945-20.366-18.694         c-4.07-8.747-4.491-18.553-1.183-27.618c6.827-18.705,27.603-28.379,46.311-21.548c9.064,3.308,16.296,9.945,20.366,18.694         c4.07,8.746,4.49,18.556,1.182,27.618c-3.306,9.062-9.945,16.294-18.692,20.366         C377.22,286.084,372.044,287.216,366.852,287.216z M366.866,216.809c-13.992,0-27.159,8.636-32.227,22.525         c-3.138,8.597-2.739,17.903,1.122,26.201c3.861,8.301,10.724,14.6,19.323,17.737c8.601,3.139,17.908,2.743,26.204-1.124         c8.298-3.861,14.597-10.723,17.734-19.323l0,0c3.139-8.597,2.74-17.903-1.122-26.201         c-3.861-8.301-10.723-14.598-19.321-17.737C374.715,217.479,370.757,216.809,366.866,216.809z"/>
						</g>
					</g>
					<g>
						<g>
							<path style="fill:#FFA352;" d="M350.164,125.33l-5.635-12.11l12.11-5.638l5.635,12.113L350.164,125.33z M346.519,113.946         l4.371,9.391l9.394-4.368l-4.371-9.394L346.519,113.946z"/>
						</g>
						<g>
							<path style="fill:#FFA352;" d="M459.261,165.141l-5.635-12.11l12.111-5.638l5.634,12.113L459.261,165.141z M455.615,153.756         l4.371,9.391l9.394-4.368l-4.369-9.394L455.615,153.756z"/>
						</g>
					</g>
					<g>
						<g>
							<path style="fill:#FFA352;" d="M268.268,349.757l-5.635-12.11l12.109-5.638l5.635,12.112L268.268,349.757z M264.622,338.372         l4.371,9.392l9.394-4.368l-4.371-9.394L264.622,338.372z"/>
						</g>
						<g>
							<path style="fill:#FFA352;" d="M377.364,389.567l-5.635-12.11l12.111-5.638l5.634,12.112L377.364,389.567z M373.719,378.183         l4.371,9.391l9.394-4.368l-4.369-9.394L373.719,378.183z"/>
						</g>
					</g>
				</g>
			</g>
			<g>
				<g>
					<g>
						<circle style="fill:#F7EDE5;" cx="309.139" cy="422.582" r="64.779"/>
					</g>
					<g>
						<path style="fill:#302945;" d="M309.138,474.223c-28.475,0-51.642-23.168-51.642-51.641c0-28.476,23.167-51.643,51.642-51.643        c28.475,0,51.642,23.168,51.642,51.643C360.78,451.056,337.613,474.223,309.138,474.223z M309.138,372.528        c-27.6,0-50.053,22.453-50.053,50.055c0,27.599,22.453,50.052,50.053,50.052c27.6,0,50.053-22.453,50.053-50.052        C359.192,394.981,336.738,372.528,309.138,372.528z"/>
					</g>
				</g>
				<g>
					
						<rect x="304.598" y="413.169" transform="matrix(0.7072 -0.707 0.707 0.7072 -200.7173 343.9464)" style="fill:#302945;" width="20.557" height="2.247"/>
				</g>
				<g>
					<g>
						<path style="fill:#FFA352;" d="M311.732,417.473c0.921-9.385,2.038-19.293,7.7-26.835c3.621-4.823,8.979-8.314,14.854-9.677        c7.399-1.717,15.118-0.119,22.544,1.479c-0.476,4.969-1.476,8.9-1.953,13.869c-0.388,4.047-0.832,8.263-3.012,11.694        c-3.196,5.03-9.361,7.232-15.188,8.478C329.155,418.09,319.41,417.925,311.732,417.473z"/>
					</g>
					<g>
						<path style="fill:#FFFFFF;" d="M314.112,415.241c0.657-6.696,1.454-13.765,5.493-19.146c2.584-3.441,6.406-5.932,10.598-6.905        c5.279-1.225,10.786-0.085,16.085,1.055c-0.34,3.545-1.053,6.349-1.393,9.895c-0.277,2.887-0.594,5.895-2.149,8.343        c-2.28,3.588-6.679,5.16-10.837,6.049C326.543,415.681,319.59,415.563,314.112,415.241z"/>
					</g>
				</g>
			</g>
			<g>
				<g>
					<g>
						<circle style="fill:#F7EDE5;" cx="245.635" cy="88.998" r="64.778"/>
					</g>
					<g>
						<path style="fill:#302945;" d="M245.636,140.639c-28.475,0-51.642-23.167-51.642-51.641c0-28.476,23.167-51.643,51.642-51.643        c28.475,0,51.642,23.167,51.642,51.643C297.278,117.472,274.111,140.639,245.636,140.639z M245.636,38.944        c-27.6,0-50.053,22.453-50.053,50.055c0,27.599,22.453,50.052,50.053,50.052s50.053-22.453,50.053-50.052        C295.689,61.397,273.236,38.944,245.636,38.944z"/>
					</g>
				</g>
				<g>
					
						<rect x="241.094" y="79.585" transform="matrix(0.7071 -0.7071 0.7071 0.7071 16.5521 201.3797)" style="fill:#302945;" width="20.558" height="2.247"/>
				</g>
				<g>
					<g>
						<path style="fill:#FFA352;" d="M248.228,83.889c0.921-9.385,2.038-19.294,7.7-26.835c3.621-4.823,8.979-8.314,14.854-9.677        c7.399-1.717,15.118-0.119,22.544,1.479c-0.476,4.969-1.476,8.899-1.953,13.869c-0.388,4.047-0.832,8.263-3.012,11.694        c-3.196,5.03-9.361,7.232-15.188,8.479C265.652,84.506,255.907,84.341,248.228,83.889z"/>
					</g>
					<g>
						<path style="fill:#FFFFFF;" d="M250.609,81.657c0.657-6.696,1.454-13.766,5.494-19.146c2.584-3.441,6.406-5.931,10.598-6.905        c5.279-1.225,10.786-0.085,16.085,1.055c-0.34,3.545-1.053,6.35-1.393,9.895c-0.277,2.887-0.594,5.896-2.149,8.344        c-2.28,3.588-6.679,5.16-10.836,6.049C263.04,82.097,256.087,81.979,250.609,81.657z"/>
					</g>
				</g>
			</g>
			<g>
				<g>
					<polygon style="fill:#FFFFFF;" points="109.258,137.616 111.748,96.956 113.684,137.893 123.919,129.595 117.833,139.276        139.685,142.042 118.386,144.808 124.472,153.383 114.237,147.851 111.471,183.256 109.258,148.404 98.748,152.83        105.386,144.808 78.832,141.212 105.109,140.106 99.024,130.978      "/>
				</g>
				<g>
					<polygon style="fill:#FFFFFF;" points="432.639,332.14 435.128,291.479 437.064,332.417 447.299,324.119 441.213,333.8        463.065,336.565 441.766,339.332 447.852,347.906 437.617,342.374 434.851,377.779 432.639,342.927 422.128,347.353        428.766,339.332 402.212,335.736 428.49,334.629 422.404,325.501      "/>
				</g>
			</g>
			<g>
				<g>
					<g>
						<g>
							<polygon style="fill:#FFA352;" points="324.951,243.232 379.57,195.868 434.615,232.138 381.703,278.223        "/>
						</g>
						<g>
							<g>
								<path style="fill:#F7EDE5;" d="M381.703,278.973c-0.405,0-0.739-0.324-0.749-0.731l-2.133-82.356          c-0.011-0.412,0.316-0.758,0.73-0.77c0.007,0,0.014,0,0.019,0c0.406,0,0.739,0.324,0.749,0.731l2.133,82.356          c0.011,0.412-0.315,0.758-0.729,0.77C381.715,278.973,381.708,278.973,381.703,278.973z"/>
							</g>
							<g>
								<path style="fill:#F7EDE5;" d="M381.569,260.877c-0.072,0-0.144-0.011-0.215-0.033l-56.617-16.895          c-0.302-0.088-0.515-0.357-0.533-0.673c-0.019-0.313,0.161-0.606,0.448-0.731l55.087-23.912          c0.147-0.066,0.311-0.08,0.47-0.041l54.577,12.818c0.305,0.069,0.531,0.324,0.572,0.634c0.04,0.31-0.118,0.612-0.393,0.756          l-53.047,27.989C381.809,260.846,381.689,260.877,381.569,260.877z M327.134,243.101l54.356,16.22l51.005-26.912          l-52.387-12.303L327.134,243.101z"/>
							</g>
						</g>
					</g>
					<g>
						<g>
							<path style="fill:#302945;" d="M62.614,372.818c-4.588,0-9.36-0.952-13.462-3.758c-6.128-4.193-9.595-12.013-9.045-20.408         c0.428-6.53,3.106-13.43,8.188-21.094c5.045-7.609,11.527-14.913,19.82-22.334c31.488-28.163,74.372-43.739,117.313-43.218         c2.004-1.688,4.055-3.341,6.152-4.943c14.241-10.892,36.954-24.144,64.28-25.434c8.172-0.379,42.695-0.108,49.508,8.362         c1.168,1.45,1.521,3.075,1.049,4.827c-4.04,15.005-35.134,22.899-45.709,24.482c-14.152,2.115-28.561-0.158-42.496-2.353         c-5.545-0.875-11.281-1.78-16.908-2.391c-5.086-0.554-10.198-0.869-15.305-0.952c-15.679,13.311-28.613,29.096-40.321,44.361         l-3.183,4.16c-18.232,23.868-37.087,48.549-65.771,58.184C73.225,371.482,68.049,372.818,62.614,372.818z M183.199,263.578         c-41.791,0-83.365,15.406-114.026,42.831c-8.19,7.327-14.587,14.531-19.555,22.027c-4.924,7.426-7.517,14.075-7.927,20.322         c-0.512,7.836,2.692,15.116,8.359,18.991c8.391,5.749,19.996,3.125,26.168,1.054c28.224-9.477,46.928-33.962,65.015-57.641         l3.186-4.166c11.417-14.883,24.002-30.27,39.168-43.415C183.458,263.581,183.328,263.578,183.199,263.578z M187.849,262.056         c4.552,0.122,9.092,0.429,13.626,0.922c5.666,0.615,11.419,1.522,16.984,2.4c13.817,2.178,28.108,4.437,42.013,2.35         c12.963-1.94,40.876-10.191,44.411-23.325c0.338-1.251,0.091-2.369-0.753-3.416c-5.866-7.293-37.834-8.276-48.196-7.769         l-0.037-0.794l0.037,0.794c-26.916,1.268-49.329,14.354-63.392,25.108C190.951,259.542,189.387,260.785,187.849,262.056z"/>
						</g>
						<g>
							<path style="fill:#302945;" d="M315.641,254.034c-5.43,0-9.848-4.418-9.848-9.848s4.418-9.848,9.848-9.848         c5.431,0,9.848,4.417,9.848,9.848S321.072,254.034,315.641,254.034z M315.641,235.927c-4.555,0-8.259,3.706-8.259,8.259         c0,4.553,3.705,8.259,8.259,8.259c4.555,0,8.26-3.706,8.26-8.259C323.901,239.633,320.196,235.927,315.641,235.927z"/>
						</g>
					</g>
				</g>
				<g>
					<g>
						<g>
							<g>
								<path style="fill:#9DD1A9;" d="M104.872,217.546c7.997,8,11.514,20.522,16.395,30.84c0.008,0.009,0.008,0.009,0.017,0.018          c0.167,0.351,0.318,0.685,0.486,1.019c-0.13-0.046-0.259-0.092-0.389-0.138c0-0.018,0-0.018-0.026-0.009          c-5.448-1.895-11.495-1.094-17.11,0.367c-5.738,1.494-11.366,3.652-17.285,4.142c-8.221,0.69-16.396-1.995-23.209-6.727          c-0.172-0.125-0.335-0.241-0.507-0.366c-3.195-2.288-6.077-5.032-8.509-8.089c-3.376-4.232-5.977-8.99-7.911-14.031          c-0.066-0.193-0.132-0.385-0.198-0.578c-2.271-6.066-3.595-12.531-4.179-18.992c-0.021-0.253-0.043-0.506-0.073-0.75          c0-0.018,0.001-0.035,0.001-0.052c6.561,0.088,13.101-0.999,19.587-1.557c0.209-0.014,0.41-0.036,0.636-0.049          c5.431-0.447,10.845-0.467,16.181,0.921c0.71,0.187,1.429,0.401,2.129,0.632c0.216,0.065,0.433,0.13,0.649,0.213          c2.586,0.875,5.098,1.993,7.583,3.153c4.219,1.968,8.418,4.109,12.117,6.903l0.008,0.009          c0.223,0.178,0.446,0.339,0.66,0.526C102.956,215.752,103.941,216.614,104.872,217.546z"/>
							</g>
						</g>
						<g>
							<g>
								<path style="fill:#302945;" d="M129.646,256.038c-0.116,0.112-0.301,0.116-0.421,0.006          c-11.303-10.319-24.077-19.221-36.429-27.829c-3.02-2.104-6.13-4.271-9.363-6.107c-6.423-3.65-13.563-6.136-20.468-8.54          c-7.708-2.683-15.677-5.459-22.695-9.865c-0.144-0.09-0.187-0.28-0.097-0.424c0.091-0.145,0.28-0.186,0.424-0.096          c6.958,4.369,14.895,7.133,22.569,9.805c6.931,2.413,14.098,4.909,20.569,8.587c3.257,1.851,6.379,4.025,9.398,6.129          c12.382,8.628,25.172,17.54,36.505,27.887c0.126,0.115,0.135,0.309,0.02,0.435          C129.655,256.028,129.65,256.033,129.646,256.038z"/>
							</g>
						</g>
						<g>
							<g>
								<path style="fill:#302945;" d="M78.227,219.084c-0.019,0.069-0.046,0.13-0.09,0.172c-0.044,0.043-0.106,0.068-0.175,0.066          c-0.018,0.017-0.053,0.016-0.087,0.016c-10.675-1.645-21.536,1.52-31.049,5.233c-0.066-0.193-0.132-0.385-0.198-0.578          c9.04-3.53,19.28-6.559,29.478-5.497c0.626,0.064,1.242,0.136,1.867,0.235C78.137,218.76,78.248,218.91,78.227,219.084z"/>
							</g>
						</g>
						<g>
							<g>
								<path style="fill:#302945;" d="M62.599,202.593c1.454,4.632,3.844,8.993,6.996,12.673c0.017,0.035,0.034,0.053,0.06,0.079          c0.111,0.115,0.099,0.298-0.016,0.409c-0.009,0.008-0.009,0.008-0.018,0.017c-0.097,0.076-0.219,0.092-0.314,0.046          c-0.043-0.009-0.077-0.045-0.112-0.08c-0.247-0.292-0.485-0.575-0.723-0.875c-2.909-3.606-5.129-7.79-6.508-12.22          C62.172,202.629,62.373,202.606,62.599,202.593z"/>
							</g>
						</g>
						<g>
							<g>
								<path style="fill:#302945;" d="M81.558,204.358c0.942,7.329,3.534,14.384,7.587,20.596c0.025,0.044,0.05,0.088,0.076,0.132          c0.085,0.123,0.064,0.297-0.042,0.4c-0.009,0.008-0.035,0.017-0.044,0.025c-0.053,0.034-0.114,0.059-0.175,0.049          c-0.096,0.007-0.191-0.039-0.25-0.135c-0.008-0.009-0.017-0.035-0.025-0.044c-0.279-0.414-0.533-0.837-0.795-1.251          c-3.733-6.093-6.103-12.918-6.981-19.984C81.125,204.211,81.342,204.276,81.558,204.358z"/>
							</g>
						</g>
						<g>
							<g>
								<path style="fill:#302945;" d="M101.493,233.959c-0.018,0.052-0.037,0.104-0.081,0.147          c-0.035,0.034-0.079,0.059-0.132,0.058c-0.044,0.025-0.114,0.024-0.166,0.006c-6.867-1.895-14.347-1.235-21.639,1.928          c-5.414,2.327-10.687,6.006-15.724,10.96c-0.172-0.125-0.335-0.241-0.507-0.366c5.125-5.039,10.487-8.786,15.989-11.164          c6.967-3.003,14.102-3.792,20.732-2.284l0.018,0l1.299,0.338C101.447,233.627,101.539,233.794,101.493,233.959z"/>
							</g>
						</g>
						<g>
							<g>
								<path style="fill:#302945;" d="M101.927,214.949c0.773,8.022,3.171,16.135,7.073,23.894c0.025,0.044,0.042,0.097,0.032,0.14          c-0.001,0.087-0.029,0.165-0.091,0.224c-0.018,0.017-0.044,0.043-0.071,0.051c-0.149,0.075-0.34,0.02-0.406-0.138          c-0.143-0.29-0.285-0.58-0.428-0.87c-3.789-7.748-6.075-15.833-6.77-23.827          C101.489,214.601,101.713,214.762,101.927,214.949z"/>
							</g>
						</g>
					</g>
					<g>
						<g>
							<g>
								<path style="fill:#9DD1A9;" d="M184.277,433.786c-10.859,3.17-23.53,0.239-34.925-0.438          c-0.012,0.003-0.012,0.003-0.024,0.007c-0.389-0.022-0.753-0.05-1.127-0.064c0.103-0.091,0.206-0.183,0.308-0.275          c0.015,0.009,0.015,0.009,0.021-0.018c4.279-3.868,6.482-9.555,7.898-15.182c1.446-5.75,2.258-11.723,4.672-17.149          c3.344-7.542,9.627-13.421,17.051-17.123c0.192-0.09,0.372-0.178,0.565-0.268c3.542-1.703,7.332-2.912,11.182-3.577          c5.334-0.928,10.756-0.923,16.106-0.196c0.201,0.034,0.402,0.069,0.602,0.104c6.411,0.922,12.717,2.867,18.664,5.459          c0.232,0.103,0.464,0.205,0.693,0.296c0.015,0.008,0.03,0.017,0.045,0.026c-3.229,5.712-5.417,11.97-8.045,17.926          c-0.089,0.19-0.165,0.377-0.263,0.582c-2.217,4.978-4.801,9.736-8.581,13.748c-0.505,0.533-1.038,1.06-1.577,1.564          c-0.161,0.159-0.322,0.317-0.498,0.467c-2.01,1.848-4.197,3.514-6.409,5.135c-3.753,2.755-7.648,5.408-11.875,7.31          l-0.012,0.004c-0.263,0.11-0.512,0.228-0.779,0.326C186.771,432.968,185.541,433.417,184.277,433.786z"/>
							</g>
						</g>
						<g>
							<g>
								<path style="fill:#302945;" d="M138.617,437.02c-0.042-0.155,0.042-0.319,0.197-0.372          c14.481-4.956,28.425-11.882,41.909-18.58c3.296-1.638,6.69-3.325,9.855-5.277c6.286-3.879,11.898-8.947,17.324-13.847          c6.056-5.471,12.319-11.127,19.556-15.164c0.148-0.082,0.336-0.029,0.418,0.119c0.083,0.15,0.029,0.335-0.119,0.419          c-7.175,4.003-13.412,9.636-19.443,15.083c-5.447,4.919-11.079,10.005-17.413,13.914c-3.188,1.967-6.595,3.66-9.891,5.298          c-13.516,6.714-27.477,13.649-41.996,18.618c-0.161,0.055-0.336-0.031-0.391-0.191          C138.62,437.033,138.619,437.026,138.617,437.02z"/>
							</g>
						</g>
						<g>
							<g>
								<path style="fill:#302945;" d="M195.73,409.679c-0.052-0.05-0.092-0.103-0.108-0.162c-0.016-0.06-0.009-0.125,0.026-0.186          c-0.006-0.024,0.011-0.054,0.028-0.085c6.571-8.572,9.013-19.617,10.328-29.744c0.201,0.034,0.402,0.069,0.602,0.104          c-1.247,9.624-3.511,20.06-9.341,28.494c-0.357,0.518-0.717,1.024-1.103,1.525          C196.057,409.756,195.872,409.78,195.73,409.679z"/>
							</g>
						</g>
						<g>
							<g>
								<path style="fill:#302945;" d="M217.701,403.896c-4.761-0.95-9.734-0.95-14.476,0.046c-0.039-0.002-0.063,0.004-0.098,0.014          c-0.154,0.042-0.309-0.056-0.351-0.211c-0.003-0.012-0.003-0.012-0.007-0.024c-0.02-0.122,0.025-0.236,0.11-0.298          c0.029-0.034,0.076-0.047,0.124-0.06c0.375-0.076,0.738-0.149,1.115-0.214c4.56-0.819,9.296-0.755,13.844,0.164          C217.875,403.504,217.798,403.691,217.701,403.896z"/>
							</g>
						</g>
						<g>
							<g>
								<path style="fill:#302945;" d="M207.044,419.675c-6.88-2.695-14.313-3.811-21.708-3.241          c-0.051,0.001-0.102,0.002-0.152,0.003c-0.149,0.015-0.291-0.086-0.33-0.229c-0.003-0.012,0.002-0.039-0.001-0.051          c-0.004-0.063,0.003-0.128,0.041-0.177c0.04-0.088,0.125-0.149,0.239-0.154c0.012-0.003,0.039,0.002,0.051-0.001          c0.497-0.046,0.99-0.065,1.479-0.096c7.137-0.347,14.262,0.853,20.881,3.479          C207.381,419.366,207.22,419.525,207.044,419.675z"/>
							</g>
						</g>
						<g>
							<g>
								<path style="fill:#302945;" d="M171.506,422.937c-0.037-0.041-0.073-0.082-0.089-0.142          c-0.013-0.047-0.014-0.098,0.012-0.143c-0.001-0.051,0.033-0.111,0.075-0.148c4.961-5.111,7.976-11.989,8.706-19.904          c0.56-5.866-0.132-12.259-2.057-19.056c0.192-0.09,0.372-0.178,0.565-0.268c1.957,6.916,2.667,13.419,2.109,19.386          c-0.714,7.553-3.449,14.189-7.957,19.28l-0.008,0.015l-0.92,0.977C171.819,423.055,171.628,423.057,171.506,422.937z"/>
							</g>
						</g>
						<g>
							<g>
								<path style="fill:#302945;" d="M187.969,432.451c-7.406-3.176-15.674-4.971-24.354-5.276          c-0.051,0.001-0.105-0.01-0.138-0.039c-0.076-0.043-0.131-0.105-0.153-0.188c-0.007-0.024-0.016-0.059-0.011-0.086          c0.005-0.167,0.146-0.307,0.316-0.29c0.323,0.014,0.646,0.029,0.968,0.043c8.615,0.399,16.805,2.279,24.15,5.511          C188.485,432.234,188.236,432.353,187.969,432.451z"/>
							</g>
						</g>
					</g>
					<g>
						<g>
							<g>
								<path style="fill:#9DD1A9;" d="M367.014,147.155c-6.323-9.38-7.385-22.342-10.206-33.402          c-0.007-0.011-0.007-0.011-0.013-0.021c-0.097-0.377-0.181-0.733-0.282-1.093c0.119,0.07,0.237,0.14,0.356,0.21          c-0.004,0.017-0.004,0.017,0.024,0.014c4.986,2.9,11.074,3.269,16.865,2.906c5.917-0.371,11.854-1.415,17.758-0.765          c8.201,0.892,15.713,5.089,21.498,11.034c0.145,0.156,0.283,0.301,0.427,0.456c2.699,2.856,5.005,6.099,6.808,9.564          c2.506,4.799,4.151,9.965,5.086,15.283c0.028,0.202,0.056,0.403,0.084,0.605c1.072,6.388,1.137,12.987,0.477,19.44          c-0.027,0.252-0.055,0.505-0.072,0.75c-0.004,0.017-0.007,0.034-0.011,0.051c-6.423-1.339-13.05-1.52-19.524-2.211          c-0.208-0.027-0.409-0.043-0.634-0.073c-5.416-0.598-10.735-1.612-15.707-3.993c-0.661-0.32-1.326-0.667-1.97-1.027          c-0.2-0.105-0.4-0.21-0.596-0.332c-2.371-1.353-4.624-2.929-6.841-4.543c-3.766-2.737-7.479-5.641-10.577-9.089l-0.007-0.01          c-0.185-0.218-0.373-0.418-0.548-0.643C368.552,149.282,367.75,148.247,367.014,147.155z"/>
							</g>
						</g>
						<g>
							<g>
								<path style="fill:#302945;" d="M350.044,104.642c0.135-0.088,0.317-0.056,0.414,0.075          c9.126,12.287,19.965,23.463,30.447,34.272c2.563,2.642,5.202,5.362,8.025,7.783c5.608,4.809,12.142,8.613,18.461,12.291          c7.054,4.105,14.347,8.351,20.394,14.016c0.124,0.116,0.13,0.311,0.014,0.435c-0.117,0.125-0.311,0.13-0.435,0.014          c-5.996-5.617-13.259-9.845-20.282-13.933c-6.343-3.692-12.901-7.51-18.552-12.355c-2.844-2.438-5.493-5.169-8.055-7.811          c-10.507-10.833-21.361-22.023-30.51-34.343c-0.101-0.137-0.073-0.329,0.064-0.431          C350.033,104.649,350.038,104.645,350.044,104.642z"/>
							</g>
						</g>
						<g>
							<g>
								<path style="fill:#302945;" d="M393.462,150.732c0.031-0.065,0.07-0.118,0.121-0.152c0.052-0.033,0.117-0.046,0.185-0.032          c0.021-0.013,0.055-0.006,0.089,0.001c10.164,3.652,21.43,2.619,31.477,0.791c0.028,0.202,0.056,0.403,0.084,0.605          c-9.547,1.739-20.177,2.757-29.986-0.231c-0.602-0.182-1.193-0.371-1.788-0.587          C393.488,151.067,393.409,150.898,393.462,150.732z"/>
							</g>
						</g>
						<g>
							<g>
								<path style="fill:#302945;" d="M405.655,169.902c-0.543-4.824-2.056-9.562-4.448-13.776          c-0.01-0.038-0.023-0.058-0.043-0.089c-0.087-0.134-0.04-0.311,0.094-0.398c0.01-0.007,0.01-0.007,0.021-0.013          c0.11-0.056,0.233-0.048,0.317,0.014c0.041,0.018,0.067,0.059,0.094,0.1c0.186,0.334,0.367,0.657,0.543,0.997          c2.167,4.095,3.547,8.626,4.055,13.238C406.081,169.949,405.88,169.933,405.655,169.902z"/>
							</g>
						</g>
						<g>
							<g>
								<path style="fill:#302945;" d="M387.382,164.551c0.475-7.374-0.723-14.794-3.516-21.665          c-0.016-0.048-0.033-0.096-0.049-0.144c-0.06-0.137-0.006-0.304,0.118-0.384c0.01-0.007,0.038-0.01,0.048-0.016          c0.058-0.023,0.123-0.036,0.181-0.014c0.096,0.011,0.18,0.074,0.219,0.18c0.007,0.01,0.01,0.038,0.016,0.048          c0.195,0.46,0.363,0.923,0.541,1.38c2.501,6.693,3.525,13.845,3.037,20.949          C387.778,164.778,387.578,164.673,387.382,164.551z"/>
							</g>
						</g>
						<g>
							<g>
								<path style="fill:#302945;" d="M373.465,131.689c0.028-0.047,0.056-0.095,0.107-0.128c0.041-0.027,0.089-0.043,0.14-0.032          c0.048-0.016,0.116-0.002,0.164,0.026c6.379,3.171,13.847,3.951,21.609,2.239c5.759-1.251,11.638-3.855,17.527-7.756          c0.145,0.156,0.283,0.301,0.427,0.456c-5.993,3.968-11.972,6.622-17.826,7.906c-7.412,1.617-14.566,1.03-20.787-1.716          l-0.017-0.003l-1.211-0.58C373.446,132.023,373.387,131.841,373.465,131.689z"/>
							</g>
						</g>
						<g>
							<g>
								<path style="fill:#302945;" d="M369.409,150.266c0.773-8.022-0.032-16.444-2.381-24.805          c-0.016-0.048-0.022-0.103-0.005-0.143c0.018-0.085,0.06-0.156,0.132-0.203c0.021-0.014,0.052-0.033,0.079-0.037          c0.161-0.046,0.337,0.045,0.373,0.213c0.084,0.312,0.169,0.623,0.254,0.935c2.24,8.329,2.941,16.701,2.096,24.682          C369.772,150.691,369.584,150.49,369.409,150.266z"/>
							</g>
						</g>
					</g>
				</g>
			</g>
		</g>
	</g>
</g>















</svg>
