<?xml version="1.0" encoding="iso-8859-1"?>
<!-- Generator: Adobe Illustrator 26.5.3, SVG Export Plug-In . SVG Version: 6.00 Build 0)  -->
<svg xmlns="http://www.w3.org/2000/svg" xmlns:xlink="http://www.w3.org/1999/xlink" version="1.1" id="Capa_1" x="0px" y="0px" viewBox="0 0 512 512" style="enable-background:new 0 0 512 512;" xml:space="preserve">
<g>
	<g>
		<path d="M464.283,352.529c-2.685,2.864-4.629,6.066-7.036,8.934c-6.39,7.614-16.778,8.396-24.176,1.788    c-2.945-2.631-5.164-5.769-6.843-9.322c-0.316-0.668-0.457-1.461-1.272-2.062c-1.947,3.863-3.801,7.71-5.804,11.476    c-3.24,6.09-7.04,11.833-12.186,16.471c-5.548,5.001-11.896,7.662-19.47,4.962c-4.679-1.668-8.275-4.717-10.804-8.991    c-3.73-6.302-5.326-13.199-5.523-20.45c-0.081-2.97-0.191-5.951,0.02-9.039c-1.371,2.546-2.725,5.101-4.117,7.635    c-2.962,5.391-6.59,10.234-11.391,14.167c-10.835,8.877-22.9,6.039-30.831-3.899c-1.948-2.441-3.599-5.092-4.84-7.979    c-0.212-0.494-0.27-1.273-0.845-1.327c-0.785-0.075-0.831,0.813-1.055,1.335c-2.649,6.185-5.426,12.311-9.008,18.022    c-2.859,4.559-6.208,8.691-10.985,11.423c-7.211,4.123-15.272,2.607-20.532-3.83c-5.145-6.297-7.31-13.738-8.378-21.615    c-0.847-6.25-1.354-12.522-1.578-18.965c-1.32,2.761-2.559,5.563-3.974,8.274c-4.167,7.983-9.126,15.378-16.269,21.063    c-2.298,1.829-4.866,3.168-7.726,3.94c-4.417,1.193-8.263-0.011-11.564-2.931c-6.201-5.486-8.811-12.795-10.028-20.706    c-1.166-7.578-1.121-15.184-0.144-22.786c0.077-0.604,0.251-1.225-0.136-2.042c-2.09,2.388-3.995,4.808-6.241,6.925    c-2.379,2.243-4.805,4.414-7.598,6.114c-1.542,0.939-1.993,2.167-2.087,3.941c-0.696,13.147-3.281,25.843-9.727,37.491    c-2.295,4.148-5.217,7.769-9.286,10.463c-10.746,7.113-21.379,2.776-27.644-5.104c-3.755-4.724-5.872-10.165-7.095-16.008    c-0.169-0.808-0.346-1.615-0.557-2.603c-0.835,0.503-0.875,1.318-1.149,1.951c-3.36,7.754-6.384,15.679-11.745,22.388    c-2.038,2.55-4.116,5.035-6.747,7.024c-10.3,7.789-20.669,5.973-28.985-3.338c-5.805-6.5-8.761-14.539-11.064-22.819    c-0.185-0.664-0.332-1.337-0.622-2.511c-1.479,3.255-2.817,6.084-4.057,8.956c-3.076,7.122-7.103,13.684-12.198,19.494    c-6.123,6.982-13.833,11.364-23.236,11.922c-7.613,0.452-14.329-2.404-20.103-7.187c-9.247-7.659-15.275-17.662-19.739-28.631    c-4.587-11.272-6.709-23.085-7.525-35.215c-1.851-27.498,3.124-53.861,13.17-79.32c4.922-12.475,11.924-23.792,21.622-33.229    c5.799-5.644,12.39-9.974,20.48-11.701c12.007-2.563,23.511,3.55,28.142,14.957c2.404,5.922,2.811,12.077,2.589,18.359    c-0.346,9.789-2.268,19.247-5.803,28.375c-1.155,2.984-2.665,5.786-4.569,8.371c-1.238,1.681-2.855,2.35-4.898,1.963    c-3.881-0.734-7.771-1.424-11.634-2.242c-2.966-0.628-3.44-1.794-1.875-4.397c6.428-10.688,10.803-22.145,12.944-34.441    c0.898-5.156,1.118-10.341,0.276-15.516c-1.181-7.26-6.73-9.78-13.034-5.942c-3.915,2.383-7.018,5.648-9.506,9.459    c-7.064,10.822-11.301,22.83-14.283,35.285c-3.591,15.001-5.356,30.286-6.347,45.658c-1.009,15.665-0.731,31.32,1.357,46.879    c1.322,9.847,3.675,19.474,8.466,28.34c2.147,3.974,5,7.318,8.57,10.044c4.411,3.369,12.417,2.886,16.908-0.651    c7.609-5.995,12.155-14.087,16.06-22.67c1.523-3.346,2.651-6.857,4.133-10.208c2.445-5.531,2.513-11.224,1.989-17.076    c-0.489-5.467,0.068-10.952,0.356-16.406c0.614-11.625,1.999-23.182,4.015-34.656c2.336-13.294,5.61-26.301,11.663-38.462    c4.048-8.133,9.134-15.424,17.314-19.925c6.987-3.844,15.356-2.912,20.067,5.304c3.08,5.37,4.372,11.215,4.702,17.292    c0.845,15.554-3.137,30.12-9.671,44.02c-6.234,13.261-14.188,25.464-24.908,35.562c-2.838,2.673-3.776,5.25-3.66,8.947    c0.344,10.965,0.761,21.893,4.164,32.452c1.11,3.443,2.497,6.768,4.698,9.68c2.184,2.89,4.852,3.69,8.24,2.442    c6.201-2.284,10.271-7.009,13.479-12.451c4.59-7.784,7.939-16.177,10.937-24.673c1.165-3.301,0.779-6.992,1.536-10.457    c1.101-5.037,2.576-9.937,5.02-14.489c0.706-1.315,0.628-2.315-0.04-3.639c-5.139-10.197-5.123-20.229,1.874-29.565    c9.462-12.623,27.073-12.205,36.43,0.511c5.773,7.844,8.484,16.729,9.764,26.193c0.214,1.578,0.312,3.172,0.515,4.752    c0.284,2.216,0.621,2.379,2.321,1.08c4.605-3.52,8.385-7.813,11.953-12.366c3.1-3.956,4.582-8.376,5.48-13.235    c1.235-6.682,3.158-13.212,5.665-19.545c1.593-4.025,3.627-5.095,7.893-4.795c2.82,0.199,5.669,0.001,8.504-0.025    c4.037-0.038,5.748,1.942,4.875,5.944c-1.21,5.552-2.576,11.069-3.886,16.599c-2.845,12.012-5.42,24.084-6.523,36.393    c-0.592,6.603-1.137,13.285,0.981,19.787c1.285,3.945,3.276,4.643,6.685,2.347c5.052-3.402,8.088-8.486,11.148-13.526    c4.579-7.543,8.222-15.552,11.675-23.656c0.852-2.001,1.327-4.06,1.668-6.193c1.631-10.201,3.411-20.372,6.947-30.135    c0.403-1.112,0.904-2.173,1.668-3.096c1.355-1.64,3.022-2.303,5.161-1.896c2.857,0.544,5.718,1.07,8.639,1.21    c4.328,0.208,5.714,2.064,4.534,6.291c-1.061,3.804-2.228,7.575-3.096,11.434c-3.042,13.538-5.266,27.214-6.539,41.023    c-0.718,7.785-1.298,15.623,0.278,23.408c0.581,2.868,1.319,5.671,2.927,8.168c1.622,2.518,3.528,3.081,6.211,1.682    c2.939-1.532,5.347-3.729,7.259-6.418c5.554-7.809,9.114-16.624,12.663-25.435c0.248-0.615,0.33-1.371,0.25-2.033    c-1.065-8.761,0.226-17.288,2.601-25.686c2.771-9.799,6.391-19.223,12.992-27.188c3.995-4.82,8.741-8.674,14.692-10.897    c13.294-4.967,25.743,1.128,29.941,14.711c0.564,1.826,0.965,3.702,1.534,5.914c1.529-6.42,2.915-12.471,4.415-18.494    c3.015-12.105,5.967-24.229,9.678-36.148c1.071-3.439,2.01-6.933,3.797-10.099c1.531-2.713,3.138-3.449,6.185-3.063    c3.091,0.392,6.207,0.61,9.281,1.103c4.494,0.722,5.821,2.925,4.309,7.226c-3.403,9.679-6.63,19.413-9.392,29.296    c-6.511,23.298-12.774,46.661-16.816,70.544c-1.167,6.897-2.178,13.829-1.915,20.871c0.12,3.219,0.499,6.411,1.989,9.281    c2.781,5.355,7.006,7.366,12.28,3.252c5.971-4.657,10.195-10.721,13.849-17.221c2.139-3.804,4.066-7.727,6.111-11.585    c0.577-1.09,0.759-2.203,0.529-3.413c-1.93-10.135-1.189-20.294-0.196-30.444c0.838-8.564,2.272-17.032,4.399-25.376    c0.137-0.537,0.269-1.076,0.414-1.611c1.454-5.36,2.919-6.492,8.462-6.667c2.699-0.086,5.399-0.001,8.1-0.284    c2.681-0.281,4.389,1.4,4.44,4.283c0.09,5.091-0.916,10.073-1.857,15.032c-2.688,14.162-3.773,28.43-3.1,42.822    c0.194,4.147,0.555,8.301,1.689,12.331c1.789,6.36,5.277,7.288,9.848,2.567c3.491-3.606,5.877-8.059,8.949-11.974    c3.426-4.367,3.402-9.559,4.145-14.549c1.902-12.764,2.606-25.627,2.591-38.526c-0.003-2.073-0.316-4.144-0.353-6.219    c-0.049-2.753,0.977-4.003,3.683-4.358c4.507-0.59,8.993-0.112,13.452,0.573c1.701,0.261,2.582,1.499,3.027,3.078    c1.78,6.321,2.564,12.786,2.296,19.325c-0.598,14.57-2.822,28.949-5.616,43.235c-3.565,18.225-8.839,35.931-16.699,52.801    c-0.743,1.595-0.492,2.073,1.245,2.361c9.405,1.563,18.525,4.126,27.214,8.116c3.347,1.537,6.578,3.281,9.543,5.473    c3.258,2.41,4.086,5.186,2.526,8.943c-1.751,4.215-4.483,7.819-7.658,11.039c-2.103,2.133-4.307,2.106-6.42,0.038    c-9.32-9.123-20.737-14.4-32.973-18.247c-1.489-0.468-2.211-0.157-2.976,1.185c-6.43,11.275-14.332,21.378-23.849,30.25    c-9.355,8.72-20.276,14.656-32.229,18.885c-9.202,3.256-18.703,4.437-28.424,4.154c-9.08-0.265-17.412-2.958-25.232-7.499    c-3.526-2.048-6.732-4.355-8.884-7.926c-4.13-6.852-3.861-13.881-0.699-20.909c3.582-7.961,9.715-13.489,17.264-17.674    c12.653-7.014,26.329-10.892,40.429-13.551c16.052-3.027,32.239-4.502,48.576-4.179c1.591,0.031,2.521-0.379,3.141-1.968    c5.583-14.311,9.663-29.056,12.874-44.056C464.274,353.486,464.25,353.002,464.283,352.529z M374.649,462.977    c7.105,0.071,13.868-1.604,20.413-4.234c9.887-3.972,18.552-9.891,26.542-16.865c8.872-7.743,15.91-16.944,21.673-27.168    c0.742-1.316,0.666-2.018-1.066-2.098c-2.212-0.101-4.415-0.449-6.627-0.498c-13.823-0.306-27.628-1.382-41.28,2.528    c-9.737,2.789-19.596,5.041-28.5,10.106c-5.616,3.195-10.748,6.941-13.731,12.893c-4.562,9.103-2.011,16.902,6.944,21.689    C363.905,461.943,369.149,462.99,374.649,462.977z M371.979,312.685c-0.202-2.872-0.275-5.369-0.578-7.839    c-0.431-3.518-1.161-6.967-3.285-9.949c-2.821-3.962-6.713-4.454-10.443-1.249c-4.752,4.084-8.322,9.073-10.966,14.717    c-4.652,9.929-7.786,20.318-8.543,31.282c-0.438,6.349,0.423,12.631,3.646,18.275c2.361,4.133,5.568,4.91,9.868,2.784    c3.921-1.939,6.741-5.102,9.034-8.68C368.459,339.936,370.884,326.312,371.979,312.685z M105.166,339.227    c0.751-0.554,1.128-0.747,1.394-1.041c2.457-2.726,5.017-5.371,7.318-8.225c11.231-13.927,18.797-29.658,22.927-47.058    c1.646-6.932,2.155-13.953,1.794-21.051c-0.199-3.908-1.451-7.453-3.724-10.639c-2.219-3.112-4.324-3.444-7.329-1.023    c-2.344,1.888-4.147,4.273-5.707,6.823c-6.468,10.571-9.688,22.318-12.173,34.293c-2.029,9.777-2.992,19.712-3.68,29.663    C105.577,326.887,105.444,332.825,105.166,339.227z M166.142,365.427c-0.311,4.901,0.362,9.986,3.111,14.51    c3.823,6.29,9.715,7.361,15.209,2.056c2.06-1.99,3.6-4.376,4.883-6.939c4.612-9.221,6.492-19.086,7.009-29.287    c0.073-1.449-0.096-2.074-1.771-1.293c-7.571,3.531-15.368,3.858-23.272,1.257c-1.507-0.496-2.128-0.127-2.512,1.343    C167.254,352.99,165.936,358.932,166.142,365.427z M174.91,316.716c3.026,0.005,5.763,0.747,8.087,2.777    c1.961,1.713,1.99,2.671-0.064,4.28c-3.265,2.559-5.792,5.724-7.967,9.232c-0.878,1.416-0.63,2.3,0.578,3.346    c5.939,5.141,12.88,4.977,19.492,2.197c1.192-0.501,1.397-1.399,1.312-2.522c-0.31-4.075-0.559-8.164-1.416-12.166    c-1.144-5.337-2.988-10.394-6.625-14.611c-1.949-2.259-4.33-3.777-7.431-3.373c-4.605,0.6-9.346,5.252-10.268,9.788    c-0.227,1.119,0.009,1.597,1.212,1.416C172.844,316.926,173.879,316.835,174.91,316.716z"/>
		<path d="M291.394,434.896c0.005,10.207-4.812,17.128-13.761,20.086c-3.149,1.041-4.748,0.264-5.544-2.991    c-1.716-7.019-4.312-13.608-9.02-19.2c-7.856-9.333-17.935-14.803-29.814-17.232c-14.162-2.896-27.8-1.135-41.185,4.045    c-12.581,4.869-24.389,11.3-36.275,17.568c-20.285,10.696-41.626,18.516-63.854,24.006c-12.075,2.982-24.065,3.573-35.955-1.038    c-6.143-2.382-11.255-5.896-14.595-11.706c-5.483-9.538-2.533-22.125,6.615-28.179c2.463-1.63,3.993-1.496,6.071,0.626    c3.293,3.363,6.05,7.219,9.711,10.252c7.454,6.175,16.01,9.079,25.65,9.344c12.644,0.348,24.828-1.967,36.766-5.858    c14.18-4.621,27.817-10.663,41.695-16.073c18.592-7.248,37.155-14.63,56.761-18.815c11.958-2.553,24.023-2.893,35.832,0.39    c13.353,3.712,23.948,11.15,29.108,24.708C290.864,428.149,291.554,431.619,291.394,434.896z"/>
	</g>
	<g>
		<path d="M372.446,104.719c-14.836-0.001-29.673,0.011-44.509-0.016c-2.005-0.004-4.008-0.234-6.015-0.3    c-0.573-0.019-1.378-0.352-1.672,0.351c-0.217,0.518,0.404,0.973,0.715,1.415c4.501,6.398,8.006,13.3,10.307,20.777    c1.818,5.905,3.056,11.948,3.851,18.079c0.327,2.52,0.538,2.637,3.044,2.114c8.754-1.829,15.669,1.617,21.34,7.878    c7.286,8.045,9.882,17.934,10.422,28.51c0.102,2.003-0.374,4.256,0.399,5.944c0.815,1.782,3.446,1.25,5.205,1.982    c2.59,1.077,5.025,2.408,7.117,4.235c4.832,4.221,8.294,9.449,10.731,15.361c0.313,0.76,0.47,1.6,0.593,2.419    c0.566,3.754-0.504,4.858-4.235,4.961c-14.968,0.413-29.941,0.153-44.909,0.401c-35.144,0.583-70.289,0.108-105.434,0.26    c-11.647,0.051-23.298,0.183-34.941-0.025c-29.737-0.531-59.475-0.225-89.212-0.372c-5.19-0.026-10.378-0.404-15.569-0.55    c-1.396-0.039-2.263-0.601-2.567-1.926c-3.484-15.193-1.232-29.232,9.569-40.894c7.401-7.992,17.333-10.317,27.944-9.689    c4.679,0.277,4.67,0.499,6.062-4.067c3.872-12.699,11.595-21.777,24.521-25.846c7.172-2.257,14.512-1.908,21.841-0.942    c3.842,0.507,3.832,0.575,5.194-3.131c0.335-0.911,0.619-1.847,1.036-2.719c0.816-1.708,0.222-2.157-1.529-2.123    c-8.729,0.174-17.467,0.562-26.187,0.322c-14.973-0.412-29.945-0.353-44.909-0.141c-14.485,0.205-28.973-0.047-43.451,0.379    c-5.406,0.159-10.806,0.187-16.209,0.213c-3.861,0.019-5.602-1.924-5.113-5.8C58,104.946,68.96,91.68,86.403,88.678    c4.621-0.795,9.267-0.469,13.875-0.003c1.962,0.199,2.621-0.461,2.922-2.186c1.233-7.074,3.31-13.881,6.613-20.282    c7.252-14.052,18.807-22.23,34.39-24.213c17.925-2.281,34.205,6.325,42.654,21.786c1.295,2.37,2.526,4.792,3.546,7.288    c0.682,1.668,1.135,1.876,2.449,0.523c6.278-6.46,14.027-8.768,22.786-7.339c10.037,1.637,16.76,7.297,19.307,17.326    c0.538,2.118,1.244,2.081,2.946,1.344c16.706-7.235,33.718-8.417,51.058-2.393c0.863,0.3,1.887,1.048,1.94-0.816    c0.429-15.116,12.813-26.419,27.056-28.373c9.382-1.287,18.074,0.609,26.175,5.318c1.712,0.995,2.487,0.673,3.408-0.9    c5.962-10.184,14.897-15.474,26.684-15.505c8.366-0.022,15.403,3.604,21.597,9.002c6.78,5.908,10.538,13.573,12.961,22.074    c1.469,5.152,0.297,4.747,6.13,4.349c7.912-0.54,14.409,2.835,19.792,8.443c3.824,3.984,5.81,8.885,6.68,14.281    c0.668,4.142-0.766,5.819-4.921,5.923C415.119,104.86,393.782,104.673,372.446,104.719z M101.248,206.164    c0,2.416,0.061,4.29-0.018,6.158c-0.069,1.62,0.564,2.199,2.199,2.141c4.013-0.143,8.035-0.287,12.044-0.31    c30.081-0.176,60.164-0.236,90.245-0.341c46.58-0.164,93.163-0.478,139.743,0.206c13.581,0.199,27.168-0.215,40.747,0.388    c2.464,0.109,2.795-0.416,1.613-2.576c-4.342-7.935-9.534-14.868-19.381-16.336c-2.135-0.318-3.308-1.843-3.683-3.992    c-0.386-2.208-0.17-4.427-0.235-6.64c-0.234-7.929-2.251-15.32-6.547-22.04c-5.401-8.448-12-11.242-21.742-9.197    c-4.047,0.85-5.781-0.343-6.299-4.643c-2.041-16.92-7.711-32.236-19.212-45.167c-14.56-16.37-32.724-22.636-54.189-19.538    c-15.584,2.249-28.486,9.931-39.844,20.517c-9.189,8.565-15.079,19.238-19.684,30.729c-1.999,4.986-3.766,6.045-9.057,5.34    c-3.227-0.43-6.47-0.641-9.731-0.757c-15.498-0.554-26.442,8.553-31.482,21.871c-0.785,2.074-1.439,4.2-2.279,6.25    c-1.044,2.546-2.44,3.262-5.191,3.194c-3.938-0.098-7.848-0.641-11.822-0.187c-9.343,1.066-16.494,5.349-20.982,13.732    C102.827,191.75,100.633,198.898,101.248,206.164z M193.372,122.898c1.91,0.852,2.724-0.272,3.441-1.807    c6.526-13.978,17.211-24.143,29.969-32.327c4.814-3.088,4.831-2.915,2.601-8.135c-5.531-12.947-20.742-13.346-28.751-8.603    c-2.804,1.661-4.702,4.284-7.252,6.18c-2.353,1.75-4.468,1.353-5.925-1.169c-1.176-2.037-2.252-4.14-3.261-6.266    c-6.283-13.239-16.541-21.343-31.181-22.827c-17.709-1.795-32.443,6.991-40.063,23.071c-2.544,5.369-3.885,11.086-5.093,16.868    c-1.136,5.434-3.283,6.887-8.81,6.337c-2.905-0.289-5.815-0.42-8.721-0.263c-9.898,0.534-17.482,5.08-23.039,13.255    c-2.779,4.089-4.246,8.68-5.763,13.291c-0.525,1.597-0.181,2.045,1.509,2.058c10.113,0.075,20.229,0.205,30.34,0.265    C126.705,123.02,160.039,122.898,193.372,122.898z M359.974,99.317c13.024,0.029,26.046,0.013,39.07,0.264    c11.565,0.223,23.137-0.09,34.702,0.433c2.87,0.13,2.973-0.13,2.149-2.946c-3.096-10.577-12.186-16.725-23.142-15.653    c-5.347,0.523-6.768-0.424-8.302-5.534c-0.159-0.531-0.329-1.059-0.472-1.594c-2.546-9.553-7.366-17.524-15.639-23.283    c-9.876-6.875-22.175-6.391-31.298,1.444c-2.497,2.145-4.272,4.895-6.252,7.472c-2.367,3.081-3.607,3.434-7.091,1.896    c-1.204-0.531-2.383-1.121-3.56-1.71c-5.608-2.808-11.464-4.224-17.817-4.113c-14.698,0.256-25.861,10.435-27.163,25.075    c-0.127,1.422,0.243,2.381,1.579,3.025c1.432,0.691,2.824,1.481,4.175,2.321c5.333,3.317,10.053,7.353,14.095,12.172    c0.722,0.861,1.479,1.512,2.801,1.438c5.319-0.3,10.643-0.61,15.969-0.676C342.509,99.238,351.242,99.317,359.974,99.317z"/>
		<path d="M235.73,177.237c-0.051,6.284-5.106,11.169-11.524,11.137c-6.633-0.034-11.931-5.316-11.914-11.878    c0.017-6.261,5.323-11.507,11.605-11.473C230.468,165.058,235.784,170.546,235.73,177.237z M224.779,168.816    c-4.516-0.016-8.022,3.413-8.131,7.951c-0.099,4.121,3.427,7.723,7.596,7.76c4.446,0.04,7.945-3.497,7.987-8.074    C232.272,171.942,229.237,168.832,224.779,168.816z"/>
		<path d="M296.032,188.372c-6.507,0.022-11.499-4.906-11.5-11.352c0-6.597,5.486-12.054,12.058-11.992    c6.136,0.058,11.394,5.363,11.384,11.486C307.962,183.082,302.657,188.35,296.032,188.372z M288.036,176.211    c-0.005,4.743,3.403,8.312,7.944,8.32c4.159,0.008,7.692-3.567,7.633-7.721c-0.066-4.555-3.569-8.018-8.09-7.995    C291.105,168.838,288.04,171.865,288.036,176.211z"/>
		<path d="M260.472,200.075c-7.736,0.418-14.05-8.959-12.902-15.072c0.126-0.673,0.332-1.346,0.609-1.971    c0.289-0.652,0.77-1.177,1.585-1.124c0.712,0.047,1.128,0.529,1.342,1.14c0.342,0.977,0.624,1.976,0.91,2.971    c0.797,2.769,1.912,5.308,4.294,7.163c4.055,3.158,9.137,2.213,11.653-2.245c1.068-1.893,1.717-3.917,2.052-6.062    c0.188-1.204,0.196-2.768,1.913-2.71c1.542,0.052,1.59,1.485,1.728,2.661C274.391,191.078,269.24,200.343,260.472,200.075z"/>
		<path d="M245.239,153.947c-0.119,2.622-2.32,4.719-4.874,4.642c-2.756-0.082-4.918-2.447-4.763-5.209    c0.141-2.511,2.471-4.612,5.03-4.534C243.305,148.928,245.363,151.206,245.239,153.947z"/>
		<path d="M279.577,150.459c2.57,0.021,4.667,2.143,4.6,4.655c-0.067,2.498-2.233,4.554-4.769,4.527    c-2.612-0.028-4.646-2.075-4.606-4.634C274.84,152.606,277.114,150.44,279.577,150.459z"/>
	</g>
</g>
<g>
</g>
<g>
</g>
<g>
</g>
<g>
</g>
<g>
</g>
<g>
</g>
<g>
</g>
<g>
</g>
<g>
</g>
<g>
</g>
<g>
</g>
<g>
</g>
<g>
</g>
<g>
</g>
<g>
</g>
</svg>
