<svg id="Capa_1" enable-background="new 0 0 512.002 512.002" height="512" viewBox="0 0 512.002 512.002" width="512" xmlns="http://www.w3.org/2000/svg"><g><circle cx="301.001" cy="100" r="7.5"/><circle cx="271.001" cy="100" r="7.5"/><path d="m338.501 382.5v-130.911c9.351-6.82 15-17.604 15-29.089v-22.786c50.271-3.842 90-45.976 90-97.214 0-4.143-3.357-7.5-7.5-7.5s-7.5 3.357-7.5 7.5c0 43.343-33.605 78.961-76.125 82.229-1.801-6.101-5.661-11.324-10.777-14.861 7.317-6.848 11.903-16.58 11.903-27.369 0-3.861-.59-7.678-1.752-11.342l-15.7-49.532c-6.943-21.906-27.056-36.625-50.049-36.625-22.992 0-43.106 14.719-50.049 36.625l-15.698 49.531c-1.163 3.666-1.752 7.482-1.752 11.344 0 10.788 4.586 20.521 11.902 27.369-5.191 3.589-9.089 8.915-10.854 15.131h-46.048v-162.5c0-4.143-3.358-7.5-7.5-7.5s-7.5 3.357-7.5 7.5v7.5h-15v-22.5c0-4.143-3.358-7.5-7.5-7.5-37.22 0-67.5 30.28-67.5 67.5s30.28 67.5 67.5 67.5c4.142 0 7.5-3.357 7.5-7.5v-22.5h15v50h-7.5c-12.407 0-22.5 10.094-22.5 22.5s10.093 22.5 22.5 22.5h7.5v304.5c0 4.143 3.358 7.5 7.5 7.5s7.5-3.357 7.5-7.5v-304.5h45v22.5c0 11.485 5.649 22.27 15 29.089v130.911c0 9.777 6.271 18.114 15 21.21v85.385l-24.872 8.29c-3.93 1.31-6.053 5.558-4.744 9.487 1.048 3.143 3.974 5.13 7.114 5.13.786 0 1.586-.125 2.373-.387l30-10c3.063-1.021 5.128-3.887 5.128-7.115v-90.79c8.729-3.096 15-11.433 15-21.21v-25.365l4.146 2.073c1.056.528 2.205.792 3.354.792s2.299-.264 3.354-.792l4.146-2.073v25.365c0 9.777 6.271 18.114 15 21.21v90.79c0 3.229 2.065 6.095 5.128 7.115l30 10c.787.262 1.587.387 2.373.387 3.14 0 6.066-1.987 7.114-5.13 1.31-3.93-.813-8.178-4.743-9.487l-24.872-8.29v-85.385c8.729-3.096 15-11.433 15-21.21zm-180-197.5h-7.5c-4.136 0-7.5-3.364-7.5-7.5s3.364-7.5 7.5-7.5h7.5zm0-95h-22.5c-4.142 0-7.5 3.357-7.5 7.5v21.966c-25.409-3.65-45-25.563-45-51.966s19.591-48.315 45-51.966v21.966c0 4.143 3.358 7.5 7.5 7.5h22.5zm165 210h-15v-15h15zm-88.949-164.311 15.699-49.532c4.958-15.645 19.325-26.157 35.75-26.157s30.792 10.512 35.75 26.156l15.699 49.535c.697 2.197 1.051 4.488 1.051 6.809 0 12.406-10.094 22.5-22.5 22.5h-60c-12.407 0-22.5-10.094-22.5-22.5 0-2.32.353-4.611 1.051-6.811zm103.726 54.501c-12.888 15.8-31.782 24.81-52.277 24.81s-39.39-9.01-52.277-24.811c1.088-5.791 6.175-10.189 12.277-10.189h80c6.103 0 11.189 4.398 12.277 10.19zm-93.628 50.758c-6.877-3.831-11.149-10.899-11.149-18.448v-11.313c14.603 12.113 32.956 18.813 52.5 18.813s37.897-6.7 52.5-18.814v11.314c0 7.548-4.272 14.617-11.149 18.448-2.377 1.323-3.851 3.831-3.851 6.552v22.5h-75v-22.5c0-2.721-1.474-5.229-3.851-6.552zm48.851 44.052v15h-15v-15zm-30 0v15h-15v-15zm0 97.5c0 4.136-3.364 7.5-7.5 7.5s-7.5-3.364-7.5-7.5v-32.865l7.5-3.75 7.5 3.75zm22.5-38.385-26.646-13.323c-2.111-1.057-4.597-1.057-6.708 0l-4.146 2.073v-17.865h75v17.865l-4.146-2.073c-2.111-1.057-4.598-1.057-6.709 0zm30 45.885c-4.136 0-7.5-3.364-7.5-7.5v-32.865l7.5-3.75 7.5 3.75v32.865c0 4.136-3.364 7.5-7.5 7.5z"/></g></svg>