<svg height="512pt" viewBox="-82 0 511 512" width="512pt" xmlns="http://www.w3.org/2000/svg"><path d="m105.5 150h105c16.542969 0 30-13.457031 30-30 0-7.734375-2.941406-15.082031-8.28125-20.6875 0 0-36.511719-38.3125-36.667969-38.453125-9.539062-9.773437-22.84375-15.859375-37.550781-15.859375-14.933594 0-28.421875 6.277344-37.992188 16.324219-.496093.472656-36.222656 37.988281-36.222656 37.988281-5.34375 5.605469-8.285156 12.953125-8.285156 20.6875 0 16.542969 13.457031 30 30 30zm15-52.5c0-7.039062 1.953125-13.628906 5.339844-19.261719l28.378906 16.570313c1.167969.679687 2.472656 1.019531 3.78125 1.019531s2.613281-.339844 3.78125-1.019531l28.378906-16.570313c3.386719 5.632813 5.339844 12.222657 5.339844 19.261719 0 20.675781-16.824219 37.5-37.5 37.5-20.679688 0-37.5-16.820312-37.5-37.5zm105 22.5c0 8.269531-6.730469 15-15 15h-15.808594c9.582032-9.375 15.589844-22.375 15.789063-36.761719l10.875 11.417969c2.671875 2.808594 4.144531 6.480469 4.144531 10.34375zm-45.777344-53.035156-21.722656 12.679687-21.722656-12.683593c6.132812-4.375 13.628906-6.960938 21.722656-6.960938s15.589844 2.585938 21.722656 6.964844zm-85.078125 42.691406c3.09375-3.25 6.902344-7.25 10.875-11.421875.199219 14.386719 6.207031 27.386719 15.789063 36.765625h-15.808594c-8.269531 0-15-6.730469-15-15 0-3.863281 1.472656-7.539062 4.144531-10.34375zm0 0"/><path d="m343.753906 112.976562c-16.191406-9.367187-26.253906-26.792968-26.253906-45.476562s10.0625-36.109375 26.253906-45.476562c2.316406-1.339844 3.746094-3.816407 3.746094-6.492188s-1.425781-5.152344-3.742188-6.492188c-10.21875-5.914062-21.890624-9.039062-33.757812-9.039062-37.21875 0-67.5 30.28125-67.5 67.5s30.28125 67.5 67.5 67.5c11.867188 0 23.539062-3.125 33.757812-9.039062 2.316407-1.339844 3.742188-3.816407 3.742188-6.492188s-1.429688-5.152344-3.746094-6.492188zm-33.753906 7.023438c-28.949219 0-52.5-23.550781-52.5-52.5s23.550781-52.5 52.5-52.5c5.109375 0 10.171875.742188 15.019531 2.1875-14.136719 12.675781-22.519531 30.96875-22.519531 50.3125s8.382812 37.636719 22.519531 50.3125c-4.847656 1.445312-9.910156 2.1875-15.019531 2.1875zm0 0"/><path d="m285.355469 467.722656c-.359375-8.40625-1.382813-16.773437-3.054688-24.957031l-.03125-.136719-57.367187-255.835937c-2.671875-12.621094-13.988282-21.78125-26.902344-21.78125h-80c-12.914062 0-24.230469 9.160156-26.882812 21.691406l-57.386719 255.925781c-.011719.046875-.019531.089844-.03125.136719-1.671875 8.179687-2.695313 16.546875-3.054688 24.957031-17.167969 3.429688-30.144531 18.617188-30.144531 36.777344 0 4.140625 3.359375 7.5 7.5 7.5h120c4.140625 0 7.5-3.359375 7.5-7.5v-7.5h45v7.5c0 4.140625 3.355469 7.5 7.5 7.5h120c4.144531 0 7.5-3.359375 7.5-7.5 0-18.160156-12.976562-33.347656-30.144531-36.777344zm-104.855469-212.710937h-45v-45.011719c6.496094 0 12.613281 3.183594 16.363281 8.519531 1.402344 2 3.691407 3.191407 6.132813 3.191407 2.445312 0 4.734375-1.1875 6.136718-3.183594 3.753907-5.332032 9.871094-8.515625 16.367188-8.515625zm0 15v149.988281h-45v-149.988281zm-45-90h45v15c-8.308594 0-16.257812 2.96875-22.496094 8.199219-6.238281-5.238282-14.191406-8.210938-22.503906-8.210938zm-15 316.988281h-103.714844c3.09375-8.730469 11.4375-15 21.214844-15 4.140625 0 7.5-3.359375 7.5-7.5 0-9.648438.96875-19.292969 2.882812-28.65625l57.386719-255.941406c1.214844-5.730469 6.359375-9.890625 12.230469-9.890625h2.5zm15-15v-47h45v47zm60 15v-316.988281h2.5c5.871094 0 11.015625 4.160156 12.246094 9.976562l57.371094 255.855469c1.914062 9.367188 2.882812 19.007812 2.882812 28.65625 0 4.140625 3.355469 7.5 7.5 7.5 9.777344 0 18.117188 6.269531 21.214844 15zm0 0"/></svg>