<?xml version="1.0" encoding="UTF-8"?>
<!-- Generator: Adobe Illustrator 26.5.1, SVG Export Plug-In . SVG Version: 6.00 Build 0)  -->
<svg xmlns="http://www.w3.org/2000/svg" xmlns:xlink="http://www.w3.org/1999/xlink" version="1.1" id="Capa_1" x="0px" y="0px" viewBox="0 0 512 512" style="enable-background:new 0 0 512 512;" xml:space="preserve" width="512" height="512">
<g>
	<path style="fill:#FFFFFF;" d="M311.167,441.939c-1.566,0-3.139-0.29-4.638-0.891c-2.116-0.849-3.927-2.216-5.288-3.927   l-8.307-7.933c-1.008,0.253-2.038,0.378-3.066,0.378c-2.455,0-4.899-0.714-7.013-2.126l-48.881-32.641h-132.78   c-5.002,0-9.533-2.953-11.552-7.529c-2.019-4.577-1.147-9.913,2.225-13.608c7.939-8.701,17.896-15.303,28.795-19.092   c7.316-2.535,15.025-3.819,22.924-3.819c8.659,0,17.193,1.553,25.141,4.538c0.798-0.824,1.614-1.632,2.449-2.425l-21.282-14.212   c-1.757-1.173-3.193-2.769-4.173-4.641c0,0-4.904-9.366-4.95-9.458l-0.265-0.536l-0.291,0.282   c-1.199,1.311-2.681,2.378-4.377,3.094c-0.326,0.138-0.655,0.262-0.988,0.371c-1.318,0.445-2.704,0.675-4.098,0.675   c-1.557,0-3.122-0.287-4.613-0.881c-2.121-0.845-3.938-2.212-5.303-3.924l-28.872-27.571c-4.58-4.373-5.212-11.463-1.478-16.577   l14.763-20.219c0.633-0.867,1.367-1.641,2.18-2.31l-38.15-77.346H12.626c-5.002,0-9.532-2.953-11.552-7.529   c-2.019-4.577-1.147-9.914,2.225-13.608c7.939-8.701,17.897-15.303,28.797-19.092c7.302-2.531,14.998-3.812,22.885-3.812   c8.642,0,17.205,1.56,25.177,4.554c16.948-17.526,41.324-27.782,66.793-27.782c11.412,0,22.358,2.082,32.538,6.187   c0.384,0.154,0.776,0.316,1.174,0.485l72.413-16.81c0.13-2.364,0.926-4.711,2.411-6.746l14.764-20.218   c2.129-2.915,5.405-4.78,8.999-5.123c0.4-0.038,0.8-0.057,1.199-0.057c3.178,0,6.258,1.201,8.606,3.388l6.985,6.507l6.886-5.888   c2.299-1.964,5.212-3.029,8.206-3.029c0.455,0,0.911,0.025,1.369,0.074c3.462,0.378,6.614,2.168,8.712,4.949l14.512,19.24   c3.838,5.088,3.282,12.238-1.295,16.673l-15.365,14.885l33.896,59.817c11.3-4.587,23.424-6.976,35.651-6.976   c11.409,0,22.352,2.081,32.528,6.185c21.388,8.602,37.533,25.408,43.177,44.952c1.1,3.812,0.345,7.92-2.04,11.092   c-2.386,3.171-6.123,5.037-10.091,5.037h-43.388l95.745,42.988c6.285,2.822,9.148,10.161,6.433,16.493l-3.937,9.184   c-1.153,2.691-3.206,4.897-5.806,6.241l-147.734,76.383c0.697,4.004-0.559,8.244-3.654,11.242l-29.222,28.31   c-1.244,1.357-2.791,2.45-4.56,3.164c-0.235,0.095-0.473,0.182-0.711,0.262C314.007,441.699,312.591,441.939,311.167,441.939z"/>
	<g>
		<g>
			<path style="fill:#FFE7DE;" d="M211.453,166.865H13.544c6.424-7.041,14.595-12.539,23.614-15.674     c15.417-5.345,33.07-3.752,47.28,4.24c20.428-27.083,59.768-38.004,91.246-25.31     C192.104,136.724,206.571,149.957,211.453,166.865z"/>
			<path style="fill:#FFE7DE;" d="M453.102,234.221H255.194c6.424-7.041,14.595-12.54,23.614-15.674     c15.417-5.345,33.07-3.752,47.28,4.24c20.428-27.083,59.768-38.004,91.246-25.31C433.753,204.08,448.22,217.313,453.102,234.221z     "/>
			<path style="fill:#FFE7DE;" d="M300.021,382.053H102.112c6.424-7.041,14.595-12.539,23.614-15.674     c15.418-5.345,33.07-3.752,47.28,4.24c20.428-27.083,59.768-38.004,91.246-25.31     C280.672,351.912,295.139,365.146,300.021,382.053z"/>
		</g>
		<g>
			<g>
				<polygon style="fill:#B179FF;" points="153.013,318.848 157.824,328.033 290.785,416.82 496.351,310.538 500.288,301.353           "/>
				<polygon style="fill:#2E1144;" points="73.192,157.02 153.013,318.848 290.348,408.073 500.288,301.353 371.7,243.62       293.628,105.847     "/>
				<polygon style="fill:#B179FF;" points="86.969,162.268 161.104,315.787 362.515,242.964 289.036,115.032     "/>
				<g>
					<g>
						<path style="fill:#B179FF;" d="M427.412,277.145l-10.484-4.908l-1.542-0.719l-14.364-6.732l-1.567-0.745l-14.981-7.015        l-1.593-0.745l-13.542-6.347c-0.154-0.077-0.334-0.077-0.488-0.026l-16.189,6.064l-1.593,0.617l-24.488,9.173l-1.567,0.591        l-24.462,9.173h-0.026l-1.516,0.591l-24.488,9.173l-1.516,0.565l-24.462,9.199h-0.026l-1.465,0.565h-0.026l-24.437,9.173        h-0.026l-1.465,0.539l-24.437,9.173l-1.465,0.565l-19.554,7.323c-0.308,0.103-0.463,0.411-0.411,0.72        c0.026,0.231,0.18,0.385,0.386,0.488c0.565,0.334,6.45,4.163,14.672,9.533c0.437,0.308,0.874,0.591,1.336,0.874        c4.471,2.955,9.585,6.296,14.852,9.79c0.411,0.257,0.848,0.54,1.285,0.848c5.73,3.751,11.64,7.632,17.139,11.255        c0.437,0.283,0.848,0.565,1.259,0.822c4.137,2.724,7.991,5.268,11.357,7.478c0.103,0.077,0.206,0.128,0.334,0.128        c0.103,0,0.18-0.026,0.283-0.077l16.188-7.349l1.362-0.617l24.411-11.075h0.026l1.336-0.642l24.359-11.049l1.388-0.642h0.026        l24.334-11.024l1.387-0.668h0.026l24.257-10.998l1.439-0.668l24.205-10.972h0.026l1.439-0.668L408.5,286.91l1.49-0.668        l17.422-7.914c0.231-0.103,0.36-0.334,0.36-0.591C427.772,277.479,427.644,277.248,427.412,277.145z M408.552,285.496        l-1.465,0.668h-0.026l-24.103,10.946l-1.465,0.642l-24.154,10.998h-0.026l-1.439,0.642l-24.205,10.998l-1.439,0.642        l-24.283,11.023h-0.026l-1.362,0.642l-24.334,11.049l-1.362,0.617L254.48,355.44l-1.362,0.617l-15.186,6.886        c-3.674-2.415-7.118-4.702-10.381-6.835c-0.411-0.283-0.848-0.565-1.259-0.822c-6.501-4.291-12.18-8.017-17.088-11.255        c-0.437-0.283-0.874-0.565-1.285-0.848c-5.987-3.957-10.869-7.143-14.826-9.739c-0.463-0.308-0.899-0.591-1.336-0.874        c-8.891-5.833-12.771-8.325-14.467-9.405l19.195-7.195l1.439-0.565l24.514-9.173l1.439-0.565h0.026l24.488-9.173l1.49-0.565        l24.514-9.225l1.516-0.565l24.514-9.199l1.542-0.565l24.514-9.199l1.568-0.591l24.539-9.199l1.567-0.617h0.026l14.878-5.576        l12.206,5.73l1.593,0.745l15.006,7.041l1.567,0.745l14.39,6.758l1.542,0.719l10.253,4.805L408.552,285.496z"/>
					</g>
					<g>
						<path style="fill:#B179FF;" d="M384.475,257.025l-1.619,0.642l-15.366,6.141l-1.542,0.617h-0.026l-24.283,9.713l-1.542,0.617        l-24.308,9.687l-1.516,0.617l-24.334,9.713l-1.465,0.591l-24.385,9.713l-1.465,0.591l-24.334,9.739h-0.025l-1.413,0.565        l-24.385,9.739l-1.439,0.565l-17.936,7.169l-1.465,0.565c-0.462-0.283-0.899-0.565-1.336-0.874l1.465-0.565l18.013-7.195        l1.439-0.565l24.334-9.713l1.439-0.591l24.308-9.687h0.026l1.439-0.591l24.334-9.713l1.49-0.591l24.283-9.713l1.516-0.591        l24.257-9.687l1.542-0.617l24.257-9.687l1.567-0.617l15.263-6.09l1.619-0.642L384.475,257.025z"/>
					</g>
					<g>
						<path style="fill:#B179FF;" d="M416.929,272.237l-1.567,0.694l-16.625,7.375l-1.516,0.642l-24.103,10.69l-1.465,0.642        l-24.154,10.715l-1.465,0.642l-24.206,10.715l-1.413,0.642h-0.026l-24.257,10.741l-1.413,0.617l-24.283,10.767l-1.388,0.617        l-24.334,10.767h-0.026l-1.362,0.617l-15.777,6.989l-1.387,0.617c-0.411-0.257-0.822-0.54-1.259-0.822l1.387-0.617        l15.829-7.015l1.388-0.617l24.308-10.767l1.362-0.617l24.257-10.741l1.413-0.617l24.231-10.741l1.413-0.642h0.025        l24.154-10.689l1.465-0.642l24.103-10.689l1.465-0.642h0.026l24.051-10.664l1.49-0.668l16.548-7.323l1.567-0.694        L416.929,272.237z"/>
					</g>
					<g>
						<path style="fill:#B179FF;" d="M401.023,264.786l-1.593,0.668l-16.188,6.681l-1.516,0.642l-24.411,10.073l-1.516,0.617        l-24.437,10.098l-1.465,0.617l-24.462,10.098l-1.465,0.617l-24.488,10.098l-1.439,0.617l-24.488,10.098l-1.413,0.591        l-24.514,10.124l-1.413,0.591l-17.011,7.015l-1.439,0.617c-0.437-0.309-0.874-0.591-1.285-0.848l1.439-0.617l17.062-7.041        l1.413-0.591l24.488-10.098l1.413-0.591l24.437-10.098l1.439-0.591l24.437-10.124h0.026l1.465-0.591l24.385-10.098h0.026        l1.465-0.617H330l24.36-10.073l1.516-0.617l24.36-10.073l1.542-0.617h0.026l16.06-6.655l1.593-0.668L401.023,264.786z"/>
					</g>
					<g>
						<g>
							<polygon style="fill:#B179FF;" points="255.688,356.288 254.326,356.905 253.118,356.057 243.328,349.119 242.12,348.271          226.215,337.016 224.981,336.143 211.029,326.275 209.769,325.376 196.485,315.971 195.2,315.072 196.665,314.507          197.924,315.406 211.208,324.811 212.468,325.71 226.395,335.552 227.628,336.425 243.508,347.654 244.69,348.502          244.716,348.502 254.48,355.44        "/>
						</g>
						<g>
							<polygon style="fill:#B179FF;" points="281.461,344.571 280.124,345.213 280.099,345.213 278.865,344.365 269.05,337.736          267.816,336.888 252.142,326.301 250.883,325.453 236.853,315.971 235.542,315.098 222.437,306.233 221.101,305.333          222.566,304.794 222.592,304.794 223.876,305.667 223.902,305.667 236.981,314.507 238.266,315.406 238.292,315.406          252.296,324.862 253.555,325.71 269.178,336.271 270.437,337.119 280.227,343.749        "/>
						</g>
						<g>
							<polygon style="fill:#B179FF;" points="307.208,332.879 305.82,333.522 304.561,332.699 294.72,326.352 293.435,325.53          278.043,315.612 276.733,314.764 262.626,305.667 261.315,304.82 261.289,304.82 248.39,296.494 247.054,295.62          248.519,295.055 248.544,295.055 249.881,295.929 262.754,304.228 264.09,305.076 278.172,314.173 279.482,314.995          294.848,324.914 296.133,325.736 305.923,332.057 305.949,332.057        "/>
						</g>
						<g>
							<polygon style="fill:#B179FF;" points="332.955,321.188 331.567,321.856 330.231,321.034 320.415,314.995 320.39,314.995          319.079,314.173 303.97,304.897 302.634,304.049 302.608,304.049 288.476,295.363 287.088,294.516 274.394,286.704          273.007,285.856 274.523,285.291 275.91,286.139 288.578,293.924 289.94,294.772 304.099,303.458 305.435,304.28          320.493,313.53 320.518,313.53 321.829,314.353 331.67,320.391        "/>
						</g>
						<g>
							<polygon style="fill:#B179FF;" points="358.676,309.522 357.237,310.19 355.875,309.393 346.034,303.638 344.672,302.841          329.897,294.182 328.51,293.359 328.484,293.359 314.274,285.06 312.861,284.212 300.424,276.94 299.011,276.117          300.527,275.526 300.553,275.526 301.966,276.374 314.377,283.621 315.79,284.443 329.974,292.743 330,292.743          331.362,293.565 346.137,302.199 347.499,302.995 357.314,308.751 357.34,308.751        "/>
						</g>
						<g>
							<polygon style="fill:#B179FF;" points="384.346,297.882 382.907,298.55 382.882,298.55 381.494,297.753 371.653,292.28          370.239,291.509 355.798,283.466 354.359,282.67 340.098,274.756 338.634,273.933 326.48,267.175 325.015,266.353          326.582,265.762 328.047,266.584 340.175,273.317 341.64,274.139 355.875,282.053 357.314,282.85 371.704,290.867          371.73,290.867 373.117,291.638 382.959,297.111        "/>
						</g>
						<g>
							<polygon style="fill:#B179FF;" points="409.991,286.241 408.5,286.91 407.087,286.164 407.061,286.164 397.22,280.948          395.781,280.203 381.725,272.777 380.235,271.98 365.948,264.426 365.923,264.426 364.432,263.629 352.586,257.385          351.07,256.589 352.663,255.972 354.154,256.769 354.18,256.769 366,263.013 367.49,263.809 381.777,271.364          381.803,271.364 383.241,272.135 397.271,279.535 398.736,280.306 408.552,285.496        "/>
						</g>
					</g>
				</g>
				<polygon style="fill:#B179FF;" points="302.157,343.669 388.101,303.65 423.529,318.411 323.151,368.6     "/>
			</g>
			<g>
				<g>
					<path style="fill:#FF93E2;" d="M177.892,198.463c0.071,1.192,0.021,2.466-0.149,3.815c-0.172,1.349-0.508,2.629-1.013,3.837       c-0.503,1.208-1.198,2.274-2.088,3.19c-0.89,0.919-2.013,1.558-3.373,1.914c-1.006,0.264-1.967,0.301-2.878,0.11       c-0.91-0.192-1.782-0.54-2.615-1.05c-0.833-0.508-1.604-1.139-2.313-1.897c-0.711-0.754-1.346-1.562-1.909-2.425       c-0.561-0.861-1.041-1.739-1.436-2.631c-0.395-0.891-0.698-1.741-0.908-2.544c-0.298-1.134-0.511-2.377-0.636-3.73       c-0.126-1.352-0.143-2.721-0.048-4.106c0.094-1.382,0.316-2.744,0.665-4.087c0.346-1.341,0.85-2.576,1.51-3.706       c0.659-1.128,1.479-2.11,2.457-2.944c0.978-0.834,2.159-1.436,3.544-1.8c0.882-0.23,1.745-0.274,2.589-0.132       c0.845,0.141,1.617,0.423,2.32,0.844c0.703,0.422,1.313,0.982,1.833,1.678c0.52,0.699,0.89,1.478,1.115,2.332l0.089,0.339       c0.119,0.454,0.247,1.017,0.384,1.695c0.138,0.676,0.185,1.344,0.142,2.002c-0.043,0.657-0.208,1.258-0.495,1.803       c-0.288,0.548-0.795,0.915-1.527,1.108c-0.882,0.231-1.6,0.206-2.159-0.079c-0.559-0.284-0.961-0.891-1.205-1.824       c-0.092-0.352-0.173-0.706-0.239-1.066c-0.067-0.361-0.147-0.715-0.239-1.069c-0.138-0.528-0.334-0.915-0.587-1.157       c-0.253-0.245-0.656-0.294-1.21-0.149c-0.63,0.165-1.143,0.517-1.541,1.05c-0.397,0.537-0.699,1.181-0.905,1.933       c-0.207,0.757-0.338,1.582-0.398,2.488c-0.06,0.903-0.066,1.799-0.02,2.687c0.045,0.892,0.132,1.736,0.261,2.537       c0.129,0.798,0.267,1.477,0.412,2.031c0.118,0.454,0.281,0.97,0.486,1.548c0.207,0.579,0.46,1.116,0.767,1.615       c0.306,0.498,0.672,0.892,1.097,1.184c0.427,0.293,0.905,0.37,1.433,0.231c0.906-0.237,1.562-0.713,1.968-1.423       c0.405-0.713,0.593-1.535,0.563-2.472c-0.366,0.043-0.733,0.052-1.103,0.029c-0.369-0.025-0.727-0.104-1.073-0.245       c-0.346-0.135-0.648-0.339-0.907-0.609c-0.258-0.266-0.444-0.616-0.555-1.043c-0.205-0.781-0.102-1.46,0.312-2.041       c0.413-0.579,0.948-1.075,1.606-1.491c0.659-0.414,1.357-0.751,2.095-1.013c0.74-0.26,1.335-0.451,1.788-0.57       c0.327-0.085,0.813-0.185,1.455-0.3c0.642-0.116,1.293-0.173,1.953-0.17c0.661,0.002,1.257,0.094,1.789,0.277       c0.532,0.183,0.861,0.515,0.986,0.994c0.251,0.956,0.21,1.846-0.125,2.675C179.52,197.467,178.866,198.073,177.892,198.463z"/>
					<path style="fill:#FF93E2;" d="M204.953,195.08c0.133,0.503,0.246,1.119,0.342,1.846c0.098,0.729,0.104,1.447,0.021,2.157       c-0.084,0.707-0.282,1.336-0.594,1.891c-0.312,0.552-0.822,0.921-1.527,1.106c-0.931,0.243-1.718,0.088-2.363-0.47       c-0.643-0.558-1.189-1.283-1.638-2.173c-0.449-0.893-0.822-1.825-1.117-2.797c-0.295-0.971-0.531-1.744-0.708-2.316       c-1.734,0.777-3.453,1.512-5.155,2.199c0.101,0.594,0.183,1.341,0.244,2.236c0.061,0.9,0.025,1.792-0.107,2.675       c-0.132,0.883-0.393,1.682-0.782,2.404c-0.389,0.721-0.975,1.185-1.754,1.389c-0.604,0.158-1.134,0.061-1.591-0.291       c-0.454-0.35-0.851-0.807-1.185-1.365c-0.335-0.558-0.605-1.153-0.811-1.784c-0.206-0.631-0.366-1.163-0.479-1.593       c-0.376-1.434-0.633-2.88-0.774-4.336c-0.14-1.457-0.24-2.918-0.301-4.38c-0.041-0.77-0.064-1.679-0.07-2.727       c-0.006-1.049,0.037-2.142,0.129-3.283c0.09-1.139,0.248-2.283,0.471-3.433c0.222-1.148,0.545-2.208,0.962-3.18       c0.417-0.968,0.964-1.813,1.638-2.528c0.673-0.714,1.5-1.202,2.483-1.459c0.958-0.251,1.843-0.253,2.661-0.01       c0.817,0.245,1.582,0.647,2.296,1.215c0.715,0.565,1.365,1.249,1.952,2.051c0.586,0.799,1.119,1.631,1.6,2.487       c0.48,0.855,0.918,1.703,1.312,2.541c0.395,0.837,0.744,1.582,1.048,2.227c0.756,1.55,1.468,3.134,2.134,4.749       C203.955,191.741,204.51,193.393,204.953,195.08z M195.258,187.815c-0.08-0.302-0.23-0.794-0.45-1.48       c-0.218-0.68-0.483-1.351-0.789-2.013c-0.307-0.658-0.664-1.223-1.071-1.694c-0.407-0.473-0.836-0.649-1.29-0.531       c-0.252,0.067-0.447,0.299-0.583,0.7c-0.139,0.399-0.228,0.88-0.269,1.442c-0.041,0.562-0.047,1.177-0.02,1.841       c0.027,0.667,0.066,1.303,0.117,1.909c0.05,0.603,0.113,1.148,0.184,1.626c0.071,0.48,0.12,0.822,0.149,1.031       c1.478-0.524,2.913-1.1,4.309-1.734L195.258,187.815z"/>
					<path style="fill:#FF93E2;" d="M237.491,188.117c0.098,0.678,0.157,1.347,0.184,2.012c0.027,0.666,0.004,1.271-0.068,1.815       c-0.074,0.544-0.228,1.003-0.469,1.373c-0.238,0.372-0.559,0.613-0.962,0.718c-0.403,0.106-0.849-0.107-1.337-0.64       c-0.49-0.53-1.013-1.265-1.569-2.211c-0.557-0.943-1.125-2.026-1.7-3.248c-0.577-1.222-1.132-2.467-1.668-3.738       c-0.535-1.274-1.032-2.521-1.487-3.748c-0.456-1.224-0.845-2.294-1.164-3.207c0.1,0.998,0.204,2.115,0.313,3.35       c0.109,1.236,0.185,2.501,0.228,3.794c0.043,1.295,0.054,2.569,0.035,3.826c-0.021,1.258-0.1,2.394-0.236,3.411       c-0.136,1.017-0.345,1.861-0.629,2.526c-0.284,0.668-0.664,1.062-1.141,1.187c-0.428,0.112-0.933-0.063-1.513-0.53       c-0.579-0.467-1.195-1.119-1.845-1.958c-0.651-0.837-1.305-1.791-1.961-2.858c-0.655-1.065-1.288-2.143-1.897-3.234       c-0.61-1.092-1.165-2.13-1.666-3.117c-0.501-0.983-0.905-1.813-1.218-2.485c0.139,0.528,0.288,1.114,0.442,1.76       c0.155,0.644,0.271,1.107,0.343,1.384c0.033,0.125,0.136,0.542,0.308,1.253c0.172,0.706,0.349,1.563,0.531,2.563       c0.182,1.002,0.344,2.082,0.487,3.244c0.143,1.161,0.194,2.254,0.157,3.288c-0.039,1.034-0.187,1.934-0.444,2.699       c-0.257,0.766-0.694,1.256-1.307,1.475c-0.563-0.097-1.085-0.368-1.568-0.822c-0.482-0.453-0.932-1.011-1.35-1.683       c-0.418-0.671-0.799-1.406-1.143-2.205c-0.345-0.796-0.658-1.582-0.941-2.355c-0.284-0.772-0.522-1.498-0.712-2.175       c-0.19-0.675-0.342-1.228-0.454-1.655c-0.198-0.754-0.403-1.717-0.615-2.887c-0.214-1.167-0.383-2.408-0.512-3.72       c-0.13-1.311-0.195-2.638-0.197-3.984c-0.002-1.345,0.097-2.576,0.303-3.692c0.204-1.115,0.531-2.07,0.984-2.864       c0.451-0.788,1.08-1.292,1.886-1.503c0.378-0.099,0.836,0.009,1.377,0.325c0.543,0.316,1.116,0.766,1.725,1.346       c0.609,0.578,1.228,1.246,1.855,1.993c0.629,0.751,1.239,1.514,1.831,2.287c0.593,0.774,1.132,1.518,1.617,2.238       c0.485,0.721,0.888,1.336,1.209,1.843c0.043-0.657,0.108-1.429,0.2-2.314c0.09-0.883,0.206-1.809,0.343-2.772       c0.136-0.965,0.314-1.928,0.534-2.885c0.218-0.958,0.481-1.835,0.783-2.628c0.304-0.793,0.647-1.461,1.03-2.005       c0.38-0.544,0.824-0.884,1.328-1.016c0.88-0.231,1.722-0.101,2.524,0.388c0.799,0.49,1.552,1.2,2.254,2.134       c0.703,0.932,1.348,2.014,1.94,3.245c0.592,1.23,1.124,2.463,1.597,3.697c0.471,1.236,0.871,2.403,1.2,3.501       c0.329,1.097,0.582,1.986,0.76,2.667c0.072,0.277,0.171,0.653,0.296,1.132c0.125,0.479,0.261,1.021,0.407,1.629       c0.146,0.608,0.284,1.257,0.411,1.95C237.273,186.723,237.389,187.42,237.491,188.117z"/>
					<path style="fill:#FF93E2;" d="M260.332,180.19c0.125,0.479,0.121,0.978-0.011,1.496c-0.139,0.495-0.599,1.154-1.378,1.976       c-0.781,0.826-1.669,1.643-2.667,2.456c-0.998,0.814-1.977,1.543-2.938,2.186c-0.964,0.641-1.695,1.028-2.199,1.161       c-0.354,0.093-0.789,0.119-1.311,0.08c-0.522-0.039-1.054-0.118-1.597-0.247c-0.545-0.124-1.056-0.301-1.531-0.527       c-0.477-0.222-0.843-0.464-1.097-0.72c-0.148-0.148-0.335-0.479-0.561-0.984c-0.228-0.505-0.465-1.102-0.712-1.79       c-0.248-0.689-0.5-1.421-0.759-2.202c-0.259-0.78-0.501-1.525-0.725-2.232c-0.227-0.707-0.419-1.338-0.576-1.887       c-0.159-0.552-0.27-0.954-0.336-1.204c-0.245-0.931-0.493-2.01-0.747-3.235c-0.256-1.225-0.453-2.47-0.597-3.738       c-0.146-1.268-0.194-2.507-0.148-3.714c0.046-1.212,0.257-2.281,0.631-3.214c0.116-0.274,0.407-0.605,0.869-0.995       c0.462-0.39,1.021-0.793,1.681-1.21c0.658-0.414,1.375-0.829,2.154-1.251c0.779-0.419,1.533-0.797,2.265-1.139       c0.732-0.337,1.4-0.635,2.007-0.889c0.605-0.253,1.073-0.424,1.4-0.51c0.377-0.099,0.759-0.109,1.141-0.036       c0.383,0.075,0.731,0.219,1.043,0.431c0.312,0.217,0.582,0.476,0.809,0.779c0.227,0.303,0.39,0.642,0.49,1.02       c0.085,0.329,0.115,0.616,0.086,0.867c-0.029,0.249-0.096,0.536-0.199,0.858c-0.165,0.395-0.592,0.922-1.279,1.587       c-0.686,0.663-1.444,1.34-2.272,2.029c-0.829,0.688-1.632,1.322-2.408,1.902c-0.776,0.581-1.32,0.992-1.634,1.236       c0.052,0.606,0.098,1.22,0.14,1.839c0.042,0.622,0.117,1.241,0.225,1.859c0.674-0.608,1.457-1.217,2.347-1.826       c0.89-0.609,1.775-1.031,2.656-1.261c1.787-0.47,2.912,0.176,3.374,1.939c0.112,0.427,0.128,0.827,0.051,1.199       c-0.079,0.368-0.217,0.713-0.414,1.036c-0.198,0.32-0.443,0.619-0.732,0.897c-0.292,0.279-0.577,0.549-0.857,0.811       c-0.695,0.639-1.441,1.233-2.24,1.778c-0.798,0.548-1.598,1.087-2.4,1.62c0.002,0.213,0.01,0.448,0.023,0.7       c0.012,0.253,0.047,0.49,0.107,0.716c0.092,0.355,0.21,0.7,0.354,1.039c0.143,0.34,0.286,0.678,0.427,1.018       c0.276-0.18,0.718-0.472,1.326-0.872c0.607-0.403,1.247-0.813,1.917-1.23c0.67-0.417,1.326-0.798,1.963-1.141       c0.637-0.34,1.118-0.555,1.445-0.64c0.378-0.1,0.753-0.11,1.122-0.033c0.37,0.078,0.704,0.22,1.001,0.425       c0.294,0.206,0.559,0.463,0.789,0.781C260.077,179.505,260.24,179.839,260.332,180.19z"/>
					<path style="fill:#FF93E2;" d="M280.673,159.963c0.456,1.737,0.461,3.401,0.021,5c-0.444,1.595-1.193,3.098-2.25,4.505       c0.561,0.498,1.161,1.094,1.8,1.786c0.64,0.695,1.246,1.443,1.821,2.249c0.575,0.805,1.087,1.625,1.535,2.462       c0.448,0.839,0.771,1.634,0.969,2.39c0.212,0.806,0.206,1.58-0.015,2.324c-0.223,0.743-0.799,1.239-1.73,1.484       c-0.78,0.204-1.554,0.003-2.317-0.603c-0.765-0.607-1.504-1.375-2.219-2.304c-0.715-0.93-1.397-1.887-2.046-2.875       c-0.649-0.984-1.224-1.763-1.723-2.332c-0.413,0.268-0.809,0.555-1.187,0.856c-0.379,0.301-0.772,0.6-1.179,0.893       c0.12,0.562,0.275,1.336,0.466,2.322c0.193,0.984,0.306,1.985,0.343,2.996c0.037,1.014-0.066,1.931-0.31,2.746       c-0.242,0.816-0.742,1.326-1.496,1.524c-0.83,0.218-1.562,0.045-2.193-0.516c-0.632-0.56-1.165-1.281-1.599-2.165       c-0.432-0.881-0.789-1.804-1.069-2.766c-0.28-0.963-0.491-1.72-0.637-2.275c-0.31-1.184-0.59-2.353-0.84-3.513       c-0.251-1.158-0.53-2.329-0.841-3.511c-0.284-1.083-0.586-2.162-0.908-3.235c-0.323-1.073-0.627-2.162-0.919-3.272       c-0.066-0.251-0.15-0.571-0.253-0.962c-0.102-0.391-0.189-0.797-0.26-1.223c-0.071-0.425-0.133-0.835-0.18-1.225       c-0.049-0.391-0.041-0.716,0.027-0.977c0.113-0.595,0.553-1.248,1.321-1.962c0.769-0.711,1.64-1.389,2.614-2.037       c0.974-0.646,1.944-1.208,2.907-1.691c0.965-0.479,1.697-0.787,2.2-0.92c1.284-0.337,2.482-0.394,3.587-0.174       c1.108,0.221,2.095,0.654,2.965,1.302c0.871,0.646,1.609,1.462,2.217,2.446C279.903,157.696,280.363,158.779,280.673,159.963z        M273.826,162.323c-0.172-0.654-0.452-1.111-0.845-1.374c-0.39-0.259-0.927-0.301-1.607-0.123       c-0.504,0.132-0.99,0.354-1.461,0.667c-0.469,0.312-0.888,0.635-1.257,0.975c0.623,1.964,1.179,3.928,1.668,5.9       c0.483-0.316,0.966-0.684,1.447-1.107c0.481-0.42,0.902-0.895,1.262-1.421c0.36-0.524,0.626-1.079,0.795-1.663       C273.998,163.598,273.997,162.977,273.826,162.323z"/>
					<path style="fill:#FF93E2;" d="M207.288,228.639c0.071,1.194,0.021,2.465-0.15,3.814c-0.171,1.35-0.508,2.63-1.012,3.838       c-0.503,1.21-1.198,2.274-2.089,3.192c-0.888,0.919-2.012,1.559-3.372,1.915c-1.007,0.264-1.966,0.298-2.877,0.109       c-0.912-0.193-1.784-0.543-2.616-1.051c-0.833-0.507-1.603-1.139-2.314-1.895c-0.71-0.756-1.346-1.565-1.907-2.425       c-0.563-0.861-1.041-1.74-1.437-2.632c-0.395-0.89-0.699-1.739-0.91-2.544c-0.297-1.132-0.509-2.376-0.635-3.73       c-0.127-1.351-0.142-2.72-0.047-4.104c0.095-1.382,0.317-2.745,0.664-4.089c0.347-1.343,0.851-2.577,1.509-3.705       c0.659-1.129,1.479-2.113,2.457-2.946c0.978-0.834,2.159-1.434,3.545-1.798c0.881-0.231,1.745-0.275,2.589-0.134       c0.843,0.143,1.616,0.423,2.318,0.845c0.703,0.422,1.314,0.98,1.833,1.679c0.52,0.698,0.892,1.475,1.116,2.329l0.09,0.341       c0.118,0.452,0.245,1.018,0.384,1.697c0.136,0.676,0.184,1.344,0.14,2.001c-0.043,0.658-0.208,1.259-0.495,1.804       c-0.286,0.548-0.795,0.915-1.526,1.107c-0.882,0.232-1.6,0.206-2.159-0.079c-0.559-0.286-0.96-0.892-1.204-1.823       c-0.092-0.351-0.174-0.708-0.24-1.069c-0.068-0.358-0.147-0.712-0.24-1.065c-0.139-0.53-0.334-0.917-0.586-1.158       c-0.253-0.243-0.657-0.294-1.209-0.149c-0.631,0.167-1.145,0.518-1.541,1.05c-0.399,0.535-0.7,1.182-0.906,1.934       c-0.206,0.754-0.339,1.582-0.397,2.485c-0.06,0.905-0.068,1.801-0.023,2.69c0.046,0.891,0.133,1.736,0.261,2.536       c0.13,0.799,0.267,1.476,0.413,2.031c0.119,0.452,0.28,0.97,0.487,1.547c0.206,0.578,0.46,1.118,0.767,1.615       c0.306,0.497,0.672,0.894,1.097,1.184c0.425,0.293,0.904,0.369,1.432,0.23c0.906-0.237,1.562-0.71,1.968-1.423       c0.405-0.712,0.593-1.534,0.564-2.469c-0.366,0.043-0.734,0.051-1.104,0.028c-0.369-0.024-0.728-0.106-1.073-0.244       c-0.346-0.138-0.647-0.339-0.907-0.61c-0.258-0.268-0.444-0.617-0.556-1.044c-0.206-0.781-0.101-1.461,0.312-2.041       c0.414-0.577,0.949-1.075,1.607-1.49c0.659-0.414,1.357-0.753,2.096-1.015c0.739-0.259,1.334-0.448,1.787-0.567       c0.327-0.086,0.813-0.187,1.455-0.302c0.642-0.114,1.294-0.171,1.953-0.171c0.66,0.003,1.256,0.097,1.788,0.279       c0.534,0.184,0.862,0.513,0.988,0.992c0.251,0.958,0.209,1.849-0.125,2.677C208.918,227.643,208.263,228.25,207.288,228.639z"/>
					<path style="fill:#FF93E2;" d="M222.708,206.876c0.125,0.479,0.129,0.935,0.016,1.369c-0.116,0.435-0.315,0.831-0.598,1.187       c-0.284,0.358-0.617,0.68-0.998,0.967c-0.381,0.291-0.763,0.523-1.148,0.705c0.697,2.86,1.309,5.631,1.839,8.319       c0.529,2.686,0.988,5.485,1.375,8.397l0.227-0.06c0.403-0.106,0.811-0.164,1.225-0.179c0.412-0.016,0.805,0.043,1.177,0.175       c0.37,0.134,0.691,0.331,0.963,0.595c0.271,0.265,0.467,0.625,0.585,1.077c0.153,0.582,0.103,1.131-0.15,1.654       c-0.254,0.525-0.637,1.014-1.149,1.471c-0.514,0.457-1.108,0.884-1.785,1.276c-0.678,0.394-1.367,0.741-2.067,1.045       c-0.701,0.305-1.371,0.569-2.011,0.791c-0.643,0.222-1.164,0.387-1.567,0.493c-0.302,0.078-0.677,0.162-1.123,0.253       c-0.449,0.09-0.884,0.123-1.307,0.101c-0.423-0.025-0.808-0.126-1.15-0.304c-0.341-0.177-0.57-0.481-0.682-0.91       c-0.139-0.528-0.155-1.028-0.05-1.498c0.107-0.474,0.29-0.918,0.558-1.34c0.266-0.418,0.593-0.785,0.981-1.105       c0.387-0.318,0.795-0.585,1.221-0.806c-0.185-1.429-0.384-2.851-0.592-4.264c-0.21-1.41-0.474-2.828-0.793-4.251       c-0.326-1.447-0.647-2.879-0.964-4.289c-0.316-1.411-0.633-2.826-0.953-4.251c-0.169,0.073-0.328,0.135-0.475,0.186       c-0.148,0.052-0.286,0.094-0.411,0.127c-0.352,0.092-0.74,0.155-1.163,0.185c-0.422,0.03-0.834-0.003-1.236-0.098       c-0.403-0.097-0.759-0.254-1.072-0.468c-0.31-0.214-0.523-0.535-0.635-0.965c-0.224-0.853-0.051-1.653,0.52-2.397       c0.573-0.741,1.317-1.394,2.233-1.957c0.914-0.563,1.873-1.035,2.876-1.418c1.003-0.384,1.819-0.662,2.448-0.827       c0.353-0.092,0.825-0.187,1.418-0.29c0.592-0.101,1.195-0.136,1.806-0.11c0.612,0.028,1.167,0.138,1.662,0.331       C222.253,205.987,222.569,206.348,222.708,206.876z"/>
					<path style="fill:#FF93E2;" d="M247.048,206.669c0.456,1.739,0.46,3.404,0.021,5c-0.444,1.595-1.194,3.098-2.25,4.507       c0.561,0.498,1.161,1.092,1.8,1.786c0.64,0.695,1.245,1.443,1.821,2.248c0.574,0.805,1.086,1.626,1.535,2.464       c0.447,0.835,0.771,1.634,0.968,2.388c0.212,0.808,0.208,1.582-0.014,2.323c-0.224,0.746-0.799,1.242-1.73,1.487       c-0.78,0.204-1.554,0.002-2.318-0.605c-0.765-0.605-1.503-1.374-2.217-2.303c-0.715-0.93-1.397-1.889-2.047-2.876       c-0.649-0.985-1.223-1.763-1.722-2.333c-0.413,0.271-0.81,0.557-1.187,0.859c-0.379,0.301-0.772,0.599-1.178,0.893       c0.12,0.561,0.274,1.334,0.467,2.32c0.192,0.984,0.305,1.984,0.342,2.998c0.038,1.013-0.065,1.928-0.309,2.746       c-0.243,0.815-0.742,1.323-1.496,1.522c-0.83,0.218-1.562,0.047-2.194-0.515c-0.632-0.561-1.164-1.282-1.598-2.164       c-0.432-0.882-0.789-1.804-1.069-2.766c-0.279-0.963-0.491-1.722-0.637-2.277c-0.31-1.182-0.591-2.352-0.84-3.512       c-0.251-1.157-0.53-2.329-0.84-3.513c-0.284-1.083-0.586-2.159-0.908-3.233c-0.323-1.073-0.628-2.161-0.919-3.271       c-0.066-0.251-0.15-0.573-0.253-0.962c-0.103-0.393-0.189-0.798-0.26-1.226c-0.071-0.424-0.133-0.832-0.18-1.224       c-0.049-0.391-0.041-0.716,0.027-0.976c0.113-0.594,0.553-1.247,1.321-1.96c0.768-0.711,1.64-1.39,2.613-2.037       c0.975-0.646,1.945-1.21,2.907-1.691c0.965-0.482,1.698-0.79,2.201-0.922c1.284-0.337,2.48-0.395,3.586-0.175       c1.108,0.224,2.096,0.656,2.965,1.303c0.87,0.647,1.609,1.462,2.217,2.448C246.277,204.402,246.738,205.487,247.048,206.669z        M240.201,209.029c-0.172-0.653-0.453-1.111-0.845-1.371c-0.391-0.26-0.927-0.303-1.607-0.125       c-0.503,0.133-0.991,0.357-1.461,0.667c-0.469,0.311-0.888,0.637-1.258,0.975c0.623,1.964,1.18,3.93,1.669,5.901       c0.483-0.318,0.965-0.685,1.447-1.106c0.481-0.423,0.902-0.896,1.262-1.421c0.36-0.527,0.625-1.08,0.795-1.663       C240.373,210.304,240.372,209.684,240.201,209.029z"/>
					<path style="fill:#FF93E2;" d="M274.094,215.235c0.165,0.631,0.062,1.291-0.309,1.979c-0.37,0.69-0.906,1.367-1.605,2.036       c-0.699,0.667-1.509,1.305-2.425,1.907c-0.919,0.606-1.837,1.155-2.756,1.65c-0.919,0.498-1.798,0.922-2.633,1.277       c-0.835,0.353-1.505,0.597-2.009,0.729c-0.478,0.125-1,0.216-1.564,0.267c-0.564,0.056-1.062-0.022-1.494-0.231       c-0.241-0.1-0.507-0.393-0.796-0.881c-0.29-0.491-0.6-1.08-0.929-1.776c-0.331-0.693-0.658-1.449-0.978-2.267       c-0.323-0.816-0.621-1.618-0.894-2.41c-0.275-0.789-0.52-1.518-0.736-2.187c-0.216-0.67-0.373-1.193-0.473-1.571       c-0.164-0.631-0.346-1.396-0.543-2.301c-0.196-0.903-0.39-1.876-0.584-2.915c-0.191-1.039-0.364-2.103-0.515-3.195       c-0.152-1.091-0.269-2.128-0.353-3.117c-0.084-0.987-0.107-1.89-0.065-2.709c0.04-0.817,0.145-1.475,0.309-1.977       c0.299-0.806,0.814-1.305,1.543-1.496c0.503-0.133,0.976-0.072,1.419,0.175c0.441,0.247,0.841,0.614,1.197,1.098       c0.355,0.484,0.676,1.045,0.966,1.684c0.288,0.638,0.543,1.278,0.764,1.918c0.224,0.642,0.407,1.24,0.551,1.793       c0.146,0.555,0.262,0.997,0.347,1.321c0.516,1.965,0.98,3.92,1.397,5.868c0.417,1.951,0.884,3.907,1.4,5.869l0.386,1.473       c1.04-0.648,2.187-1.307,3.438-1.972c1.252-0.662,2.483-1.156,3.689-1.473c0.429-0.112,0.87-0.2,1.323-0.266       c0.454-0.064,0.873-0.06,1.256,0.015c0.382,0.073,0.723,0.241,1.019,0.499C273.737,214.315,273.955,214.707,274.094,215.235z"/>
				</g>
				<g>
					<polygon style="fill:#FFE7DE;" points="202.851,254.379 208.682,260.166 216.754,258.643 213.052,265.977 216.995,273.184        208.876,271.93 203.24,277.906 201.925,269.797 194.499,266.284 201.804,262.527      "/>
					<polygon style="fill:#FFE7DE;" points="242.977,240.603 248.808,246.39 256.881,244.867 253.179,252.201 257.121,259.408        249.003,258.154 243.367,264.13 242.051,256.021 234.625,252.508 241.931,248.751      "/>
					<polygon style="fill:#FFE7DE;" points="283.104,226.827 288.934,232.614 297.007,231.092 293.305,238.425 297.248,245.632        289.129,244.378 283.493,250.355 282.177,242.246 274.752,238.732 282.057,234.975      "/>
				</g>
			</g>
		</g>
		<g>
			<path style="fill:#FF93E2;" d="M296.842,131.575l29.718-28.789l-14.513-19.24l-15.451,13.212l-15.232-14.19l-14.763,20.218     l30.05,28.695c0.006,0.161,0.01,0.269,0.01,0.269l0.135-0.13l0.043,0.041C296.84,131.661,296.841,131.624,296.842,131.575z"/>
			<path style="fill:#FF93E2;" d="M312.26,429.099l29.718-28.789l-14.512-19.24l-15.451,13.211l-15.232-14.19l-14.763,20.218     l30.05,28.695c0.006,0.161,0.01,0.269,0.01,0.269l0.135-0.13l0.043,0.041C312.257,429.185,312.258,429.147,312.26,429.099z"/>
			<path style="fill:#FF93E2;" d="M131.843,315.601l29.718-28.789l-14.512-19.24l-15.451,13.211l-15.232-14.19l-14.763,20.218     l30.05,28.695c0.007,0.161,0.011,0.269,0.011,0.269l0.135-0.13l0.043,0.041C131.84,315.686,131.841,315.649,131.843,315.601z"/>
		</g>
	</g>
</g>















</svg>
