<svg id="Layer_1" height="512" viewBox="0 0 512 512" width="512" xmlns="http://www.w3.org/2000/svg"><g><g><path d="m62.7294922 2.2641602h-31.7558594c-15.9760742 0-28.9736328 12.9975586-28.9736328 28.9736328v450.0522461c0 15.9765625 12.9975586 28.9741211 28.9736328 28.9741211h31.7558594z"/><path d="m324.9492188 2.2641602h-246.2197266v508h246.2197266c15.9760742 0 28.9736328-12.9975586 28.9736328-28.9741211v-450.0522461c0-15.9760742-12.9975586-28.9736328-28.9736328-28.9736328z"/></g><g><path d="m392.4140625 433.4194336c0 14.4296875 5.2436523 28.3481445 14.7646484 39.190918l17.3710938 19.7824707v9.8713379c0 4.418457 3.581543 8 8 8s8-3.581543 8-8v-9.8718262l17.3706055-19.7819824c9.5209961-10.8427734 14.7646484-24.7612305 14.7646484-39.190918v-340.0878906h-80.2709961z"/><path d="m488.1455078 61.3457031h-15.4604492v-30.1079101c0-15.9760742-12.9975586-28.9736328-28.9736328-28.9736328h-22.3232422c-15.9765625 0-28.9741211 12.9975586-28.9741211 28.9736328v46.09375h86.4541016c.0946045 0 .1865234.0109863.2802734.0141602h8.9970703c3.2280273 0 5.8544922 2.6264648 5.8544922 5.8544922v78.9794922c0 4.418457 3.581543 8 8 8s8-3.581543 8-8v-78.9794923c0-12.0507812-9.8037109-21.8544922-21.8544922-21.8544922z"/></g></g></svg>