<?xml version="1.0" encoding="UTF-8"?>
<!-- Generator: Adobe Illustrator 25.2.0, SVG Export Plug-In . SVG Version: 6.00 Build 0)  -->
<svg xmlns="http://www.w3.org/2000/svg" xmlns:xlink="http://www.w3.org/1999/xlink" version="1.1" id="Capa_1" x="0px" y="0px" viewBox="0 0 500 500" style="enable-background:new 0 0 500 500;" xml:space="preserve" width="512" height="512">
<g>
	<g>
		<path d="M364.976,267.216c2.601-1.123,4.904-2.638,6.92-4.592c16.829-16.316,15.457-36.891,9.371-50.678    c-7.575-17.162-28.478-31.527-50.39-30.637c-8.055,0.327-15.948,1.406-23.587,4.001c-14.985,5.09-28.921,12.191-40.549,23.046    c-6.71,6.264-12.678,13.323-19.004,20.001c-1.331,1.405-2.766,2.713-4.158,4.06c-0.859,0.832-1.777,0.939-2.844,0.333    c-2.258-1.282-3.745-3.26-4.901-5.485c-4.049-7.799-5.983-16.135-5.557-24.89c1.012-20.778,9.703-37.89,25.691-51.044    c15.265-12.56,33.114-18.853,52.781-20.12c14.174-0.913,27.963,0.986,41.429,5.5c19.632,6.58,34.863,18.966,46.929,35.493    c9.92,13.588,15.385,28.898,15.899,45.666c0.6,19.604-6.326,36.393-20.679,49.941c-7.246,6.84-15.505,12.103-24.893,15.505    c-1.2,0.435-1.242,1.132-1.241,2.139c0.013,16.421-2.649,32.377-8.54,47.732c-4.191,10.925-9.956,20.904-18.31,29.236    c-3.578,3.568-7.543,6.641-12.055,8.942c-11.367,5.797-22.588,5.478-33.56-1.039c-6.49-3.855-11.563-9.236-15.749-15.441    c-1.914-2.836-3.507-5.889-5.242-8.846c-0.244-0.415-0.469-0.841-0.78-1.401c-0.327,0.51-0.572,0.865-0.787,1.236    c-0.923,1.591-1.871,3.168-2.749,4.783c-8.993,16.529-22.969,26.829-40.636,32.503c-11.775,3.782-23.578,4.421-35.441,0.323    c-11.225-3.877-19.986-10.856-26.532-20.721c-7.474-11.266-11.359-23.713-12.969-37.082c-1.784-14.815-2.159-29.652-1.709-44.528    c1.125-37.233,2.211-74.467,3.549-111.693c0.484-13.462,1.641-26.899,2.488-40.347c0.015-0.239,0.002-0.479,0.002-0.917    c-0.599,0.217-1.097,0.381-1.583,0.575c-12.187,4.859-24.315,9.873-36.573,14.546c-16.659,6.351-33.891,10.492-51.637,12.32    c-10.907,1.123-21.672,0.131-31.718-4.411c-19.134-8.65-30.217-23.469-32.251-44.522C0.96,81.342,18.084,59.124,39.825,47.91    c10.377-5.353,22.439-7.853,33.917-5.706c15.944,2.983,31.271,15.186,37.343,30.309c1.098,2.734,0.006,4.72-2.853,5.379    c-3.196,0.736-6.458,1.233-9.599,2.149c-8.354,2.436-15.221,6.79-20.117,14.376c-6.321,9.795-0.802,26.46,13.893,27.952    c6.738,0.684,13.297-0.287,19.823-1.712c15.363-3.355,30.056-8.785,44.476-14.91c27.315-11.603,54.484-23.549,81.795-35.159    c23.062-9.804,46.349-19.056,70.379-26.272c20.558-6.173,41.533-10.198,63.006-11.1c22.897-0.961,45.294,1.942,66.727,10.356    c13.572,5.328,25.48,13.28,34.855,24.611c8.384,10.133,13.737,21.724,14.745,34.905c1.616,21.116-7.595,36.957-25.528,47.325    c-15.567,9-32.565,11.233-50.177,6.894c-11.82-2.912-21.329-9.496-28.958-18.89c-4.606-5.672-8.197-11.834-9.403-19.195    c-0.413-2.516-0.552-5.102-0.124-7.627c0.434-2.561,1.046-5.139,3.199-6.815c1.583-1.232,3.55-1.745,5.45-2.264    c6.148-1.68,11.681-4.68,16.944-8.223c3.106-2.091,6.147-4.335,8.653-7.117c3.131-3.475,5.558-8.042,5.227-12.842    c-0.242-4.58-2.792-8.522-6.785-10.761c-3.491-1.957-7.359-2.677-11.246-3.29c-8.412-1.329-16.763-0.457-25.102,0.75    c-24.616,3.565-48.527,10.075-72.391,16.917c-26.602,7.627-52.438,17.403-78.381,26.905c-3.826,1.402-7.675,2.744-11.516,4.105    c-0.626,0.222-1.092,0.398-1.116,1.284c-0.392,14.513-0.846,29.025-1.261,43.537c-1.142,39.918-2.885,79.828-2.212,119.776    c0.298,17.699,0.976,35.394,1.602,53.086c0.229,6.473,1.249,12.864,3.033,19.11c0.3,1.05,0.654,2.087,1.025,3.115    c3.844,10.642,11.987,14.054,22.359,12.583c6.465-0.917,11.873-4.161,16.224-9.04c6.995-7.844,12.66-16.583,17.233-26.032    c0.255-0.527,0.331-1.259,0.205-1.833c-2.56-11.637-3.478-23.411-2.738-35.287c1.272-20.437,6.013-39.881,17.009-57.449    c4.425-7.07,9.821-13.255,16.74-18.017c14.77-10.166,31.798-8.99,44.966,3.211c7.957,7.373,13.339,16.499,17.412,26.443    c2.875,7.02,4.761,14.325,5.963,21.811c0.079,0.491,0.159,0.982,0.254,1.47C364.801,266.865,364.882,266.992,364.976,267.216z     M306.556,266.874c-0.124,0.358-0.174,0.447-0.186,0.542c-2.901,22.859-3.084,45.696,0.623,68.492    c0.919,5.651,2.179,11.236,4.533,16.482c0.863,1.922,2.022,3.772,3.348,5.411c1.42,1.755,3.117,1.799,4.824,0.298    c1.104-0.97,2.178-2.103,2.88-3.375c1.458-2.644,2.936-5.334,3.923-8.174c6.627-19.07,8.214-38.894,8.519-58.889    c0.006-0.376-0.589-1.029-0.99-1.106c-11.711-2.262-20.151-9.171-26.756-18.716C307.085,267.565,306.878,267.305,306.556,266.874z     M334.344,269.339c0.058-0.497,0.113-0.692,0.099-0.883c-0.738-10.432-1.947-20.789-5.046-30.832    c-1.043-3.38-2.288-6.687-4.473-9.533c-2.383-3.104-5.257-3.035-7.565,0.153c-0.32,0.442-0.667,0.888-0.873,1.386    c-1.572,3.803-3.172,7.596-4.614,11.448c-0.315,0.842-0.224,1.96,0.013,2.863c2.003,7.65,6.914,13.448,12.319,18.872    C327.032,265.653,330.547,267.525,334.344,269.339z"/>
		<path d="M442.461,407.53c-0.366,2.527-0.752,5.427-1.229,8.313c-0.127,0.768-0.463,1.524-0.82,2.227    c-1.169,2.299-3.052,3.066-5.468,2.178c-1.349-0.496-2.669-1.094-3.95-1.749c-14.128-7.23-29.099-9.133-44.52-6.134    c-11.105,2.159-22.054,5.156-33.018,7.99c-15.73,4.065-31.568,7.362-47.886,7.694c-7.521,0.153-15.027,0.018-22.314-2.223    c-4.788-1.472-9.32-3.497-13.291-6.585c-3.881-3.018-7.113-6.629-8.197-11.57c-0.966-4.405-0.408-8.703,2.085-12.607    c1.407-2.203,3.227-2.664,5.271-1.056c5.941,4.671,12.853,6.316,20.189,6.668c9.002,0.432,17.698-1.4,26.343-3.63    c10.588-2.731,20.569-7.053,30.561-11.388c12.359-5.362,24.778-10.619,37.966-13.657c4.979-1.147,10.032-2.107,15.105-2.674    c7.371-0.825,14.582,0.14,21.44,3.172c9.712,4.293,15.693,11.906,19.247,21.651c0.712,1.953,1.33,3.969,1.702,6.008    C442.096,402.445,442.186,404.793,442.461,407.53z"/>
	</g>
	<g>
		<path d="M72.649,246.552c-8.17-0.069-18.537-0.663-28.544-3.912c-7.659-2.486-14.847-5.96-21.341-10.779    c-4.488-3.331-8.216-7.376-11.108-12.144c-5.033-8.297-4.696-16.896,0.84-24.452c4.766-6.506,12.277-9.395,20.011-7.017    c4.764,1.464,9.295,3.735,13.841,5.837c2.7,1.248,5.302,2.75,7.819,4.342c18.91,11.965,39.495,19.751,61.219,24.752    c2.9,0.668,5.768,1.494,8.617,2.359c2.006,0.609,3.051,3.033,1.934,4.786c-0.942,1.479-2.139,2.892-3.502,3.987    c-5.279,4.244-11.422,6.771-17.888,8.591C94.973,245.596,87.121,246.566,72.649,246.552z"/>
		<path d="M27.935,371.924c0.133-5.421,1.544-10.156,3.695-14.69c2.337-4.927,5.268-9.498,8.979-13.484    c15.847-17.028,34.824-29.017,57.385-35.017c8.877-2.361,17.979-3.296,27.171-3.245c1.56,0.009,2.383,1.28,1.469,2.66    c-1.08,1.632-2.348,3.233-3.842,4.477c-2.208,1.838-4.659,3.392-7.056,4.992c-13.33,8.895-24.015,20.468-33.622,33.136    c-5.587,7.367-11.021,14.857-16.794,22.075c-2.963,3.705-6.396,7.066-9.863,10.32c-1.665,1.563-3.792,2.763-5.9,3.701    c-9.932,4.424-20.171-1.509-21.418-12.307C28.025,373.555,27.983,372.561,27.935,371.924z"/>
		<path d="M30.503,267.964c6.497-0.43,13.015-0.336,19.497,0.271c8.744,0.818,17.643,1.655,26.548,2.419    c13.369,1.148,26.749,2.162,40.123,3.256c1.681,0.138,3.376,0.297,5.014,0.667c0.612,0.138,1.45,0.851,1.536,1.403    c0.156,1.005,0.219,2.283-1.179,2.725c-1.183,0.373-2.387,0.679-3.576,1.032c-14.443,4.291-28.437,9.824-42.524,15.127    c-11.948,4.497-24.14,8.331-36.833,10.281c-7.248,1.113-14.451,1.378-21.568-0.759c-5.441-1.634-10.288-4.273-13.912-8.769    c-5.18-6.426-4.814-13.651,1.102-19.374c1.688-1.633,3.719-2.991,5.781-4.137c3.686-2.049,7.736-3.17,11.926-3.537    C25.108,268.336,27.783,268.144,30.503,267.964z"/>
	</g>
	<g>
		<path d="M460.34,319.881c-2.481,8.336-7.107,15.633-11.211,23.176c-1.802,3.313-3.884,6.476-5.898,9.669    c-0.524,0.831-1.211,1.583-1.93,2.259c-0.767,0.721-1.751,1.127-2.691,0.361c-0.927-0.755-0.529-1.708-0.064-2.569    c1.323-2.449,2.618-4.913,4.001-7.327c8.224-14.347,12.844-29.868,15.385-46.13c1.924-12.32,3.078-24.669,2.58-37.14    c-0.625-15.64-3.068-30.973-8.33-45.754c-1.527-4.292-3.488-8.46-5.599-12.502c-1.342-2.569-3.323-4.804-5.03-7.18    c-0.434-0.604-0.994-1.13-1.354-1.771c-0.923-1.645-0.055-3.238,1.831-3.179c1.103,0.035,2.255,0.387,3.276,0.84    c2.542,1.128,4.283,3.195,5.815,5.429c3.651,5.324,6.377,11.119,8.574,17.169c4.845,13.337,7.182,27.178,8.093,41.28    c0.234,3.613,0.035,7.254,0.035,10.882C467.952,267.396,465.437,302.754,460.34,319.881z"/>
		<path d="M499.989,272.936c0.094,20.102-3.794,39.42-11.528,57.966c-3.601,8.635-9.208,15.993-14.932,23.268    c-0.483,0.613-1.12,1.14-1.774,1.574c-0.89,0.59-2.052,0.83-2.669-0.128c-0.352-0.545-0.161-1.716,0.195-2.388    c0.904-1.708,1.996-3.322,3.086-4.923c10.505-15.417,15.744-32.781,18.764-50.943c3.872-23.289,2.451-46.269-4.251-68.917    c-1.776-6.003-4.283-11.651-7.838-16.826c-0.726-1.057-1.349-2.213-1.829-3.4c-0.2-0.494-0.107-1.391,0.229-1.738    c0.344-0.355,1.296-0.537,1.729-0.311c1.302,0.68,2.628,1.442,3.681,2.449c3.616,3.458,6.184,7.652,7.911,12.325    c5.117,13.85,8.158,28.144,8.978,42.898c0.108,1.936,0.183,3.875,0.243,5.813C500.017,270.747,499.989,271.842,499.989,272.936z"/>
	</g>
	<g>
		<path d="M218.495,441.35c-5.339-0.442-12.691-0.58-19.878-1.742c-16.288-2.634-31.534-8.524-46.039-16.279    c-14.256-7.621-27.173-17.082-38.29-28.892c-4.617-4.905-8.893-10.072-11.632-16.307c-0.713-1.624-1.204-3.368-1.583-5.104    c-0.025-0.114-0.03-0.232-0.02-0.354c0.092-1.137,1.626-1.662,2.336-0.745c9.476,12.681,21.242,22.965,33.906,32.275    c13.963,10.265,29.336,17.804,45.61,23.717c5.323,1.934,10.751,3.582,16.256,4.917c5.495,1.333,11.065,2.353,16.676,3.051    c2.962,0.369,5.931,0.696,8.91,0.906c2.913,0.206,5.803,0.184,8.718,0.222c1.781,0.023,3.568,0.139,5.317,0.491    c0.393,0.079,0.79,0.172,1.139,0.371s0.646,0.519,0.73,0.911c0.09,0.42-0.079,0.866-0.364,1.188    c-0.285,0.322-0.671,0.536-1.067,0.703c-2.63,1.109-5.772,0.677-8.547,0.684c-2.49,0.007-4.979-0.002-7.469-0.007    C221.651,441.353,220.041,441.478,218.495,441.35z"/>
		<path d="M195.967,466.961c-14.799-0.24-29.435-1.721-43.635-5.957c-21.021-6.27-40.058-16.176-55.835-31.745    c-4.226-4.171-8.167-8.605-11.217-13.699c-1.484-2.479-2.337-5.337-3.453-8.033c-0.157-0.888,0.007-1.482,0.09-1.71    c0.419-1.157,1.898-1.645,2.793-0.801c0.074,0.07,0.141,0.145,0.2,0.226c15.713,21.748,37.004,36.167,61.204,46.821    c11.724,5.161,24.13,7.599,36.68,9.568c2.679,0.42,5.373,0.743,8.072,0.995c2.709,0.252,5.424,0.433,8.14,0.571    c2.718,0.138,5.438,0.234,8.158,0.315c2.037,0.061,4.073,0.032,6.107-0.098c0.476-0.03,0.966-0.064,1.421,0.083    c0.202,0.066,0.406,0.179,0.496,0.372c0.051,0.111,0.059,0.237,0.054,0.359c-0.009,0.234-0.065,0.468-0.181,0.67    c-0.174,0.303-0.471,0.514-0.775,0.685c-1.118,0.629-2.423,0.834-3.687,0.905c-1.309,0.074-2.642,0.114-3.95,0.131    c-1.374,0.018-2.751,0.096-4.125,0.138c-1.196,0.037-2.393,0.073-3.589,0.109C197.946,466.898,196.957,466.929,195.967,466.961z"/>
	</g>
</g>















</svg>
