<?xml version="1.0" encoding="iso-8859-1"?>
<!-- Generator: Adobe Illustrator 26.5.1, SVG Export Plug-In . SVG Version: 6.00 Build 0)  -->
<svg xmlns="http://www.w3.org/2000/svg" xmlns:xlink="http://www.w3.org/1999/xlink" version="1.1" id="Capa_1" x="0px" y="0px" viewBox="0 0 512 512" style="enable-background:new 0 0 512 512;" xml:space="preserve">
<g>
	<path style="fill:#FFFFFF;" d="M256,512c-53.298,0-104.386-16.222-147.742-46.913c-42.398-30.012-74.32-71.507-92.316-119.998   c-5.356-14.411-9.416-29.375-12.063-44.475C1.306,285.99,0,270.978,0,256c0-68.378,26.629-132.664,74.983-181.017   C123.336,26.629,187.622,0,256,0s132.664,26.629,181.018,74.983C485.37,123.336,512,187.622,512,256   c0,26.25-3.961,52.136-11.773,76.938c-3.527,11.229-7.875,22.284-12.919,32.851c-20.481,43.096-52.562,79.586-92.766,105.512   C353.253,497.927,305.345,512,256,512z"/>
	<g>
		<g>
			<g>
				<g>
					<path style="fill:#E36352;" d="M500.144,258.15c0,25.802-3.965,50.671-11.328,74.048c-3.417,10.875-7.574,21.433-12.425,31.596       c-2.714,5.707-5.649,11.308-8.787,16.765c-1.865,3.259-8.099,4.076-10.032,6.574c-33.169,42.856-72.375-18.763-134.983-4.095       c-14.018,3.284-67.697,49.38-82.074,50.155c-67.744,3.651-84.162,25.543-132.685-21.815       c-0.48-0.469-12.956-12.632-13.433-13.105c-5.611-5.563-25.065,23.419-30.127,17.337       c-17.631-21.192-31.769-45.397-41.537-71.719c-5.101-13.724-9.018-28.025-11.607-42.789       c-2.454-13.945-3.734-28.304-3.734-42.952c0-136.065,110.311-246.376,246.376-246.376S500.144,122.085,500.144,258.15z"/>
				</g>
			</g>
		</g>
		<g>
			<g>
				<g>
					
						<rect x="300.927" y="41.441" transform="matrix(0.9932 -0.1161 0.1161 0.9932 -5.4358 38.204)" style="fill:#B5E1E8;" width="48.653" height="48.653"/>
				</g>
			</g>
		</g>
		<g>
			<g>
				<g>
					<g>
						
							<rect x="83.464" y="377.832" transform="matrix(0.9932 -0.1161 0.1161 0.9932 -45.9586 15.2328)" style="fill:#B5E1E8;" width="48.653" height="48.653"/>
					</g>
				</g>
			</g>
			<g>
				<g>
					<g>
						<path style="fill:#F8BDFF;" d="M82.087,98.69l30.423,37.369c0,0,10.014-55.486,8.516-53.699        C119.528,84.146,82.087,98.69,82.087,98.69z"/>
					</g>
				</g>
			</g>
			<g>
				<g>
					<g>
						
							<rect x="428.825" y="191.208" transform="matrix(0.9932 -0.1161 0.1161 0.9932 -21.9582 54.0658)" style="fill:#6E72FF;" width="48.653" height="48.653"/>
					</g>
				</g>
			</g>
			<g>
				<g>
					<g>
						
							<ellipse transform="matrix(0.4618 -0.887 0.887 0.4618 -198.4064 171.2893)" style="fill:#F7EDE5;" cx="41.946" cy="249.139" rx="21.82" ry="21.82"/>
					</g>
				</g>
			</g>
			<g>
				<g>
					<g>
						<g>
							<path style="fill:#F7EDE5;" d="M39.691,178.366c-0.465,0-0.922-0.224-1.2-0.639c-0.444-0.662-0.267-1.559,0.395-2.003         l37.551-25.182c0.662-0.446,1.559-0.268,2.003,0.395c0.444,0.662,0.267,1.559-0.395,2.003l-37.551,25.182         C40.247,178.287,39.967,178.366,39.691,178.366z"/>
						</g>
					</g>
				</g>
				<g>
					<g>
						<g>
							<path style="fill:#F7EDE5;" d="M44.891,186.121c-0.465,0-0.922-0.224-1.2-0.64c-0.444-0.662-0.267-1.559,0.395-2.003         l37.551-25.182c0.662-0.445,1.559-0.268,2.003,0.395c0.444,0.662,0.267,1.559-0.395,2.003l-37.551,25.182         C45.447,186.042,45.168,186.121,44.891,186.121z"/>
						</g>
					</g>
				</g>
				<g>
					<g>
						<g>
							<path style="fill:#F7EDE5;" d="M50.092,193.876c-0.465,0-0.922-0.224-1.2-0.64c-0.444-0.662-0.267-1.559,0.395-2.003         l37.551-25.182c0.661-0.446,1.559-0.267,2.003,0.395c0.444,0.662,0.267,1.559-0.395,2.003l-37.551,25.182         C50.648,193.796,50.368,193.876,50.092,193.876z"/>
						</g>
					</g>
				</g>
			</g>
			<g>
				<g>
					<g>
						<g>
							<path style="fill:#F7EDE5;" d="M440.111,308.184c-0.465,0-0.922-0.224-1.2-0.64c-0.444-0.662-0.267-1.559,0.395-2.003         l37.551-25.182c0.662-0.446,1.559-0.268,2.003,0.395c0.444,0.662,0.267,1.559-0.395,2.003l-37.551,25.182         C440.667,308.105,440.387,308.184,440.111,308.184z"/>
						</g>
					</g>
				</g>
				<g>
					<g>
						<g>
							<path style="fill:#F7EDE5;" d="M445.312,315.939c-0.465,0-0.922-0.224-1.2-0.64c-0.444-0.662-0.267-1.559,0.395-2.003         l37.551-25.182c0.662-0.446,1.559-0.268,2.003,0.395c0.444,0.662,0.267,1.559-0.395,2.003l-37.551,25.182         C445.867,315.86,445.588,315.939,445.312,315.939z"/>
						</g>
					</g>
				</g>
				<g>
					<g>
						<g>
							<path style="fill:#F7EDE5;" d="M450.512,323.695c-0.465,0-0.922-0.224-1.2-0.64c-0.444-0.662-0.267-1.559,0.395-2.003         l37.551-25.182c0.662-0.445,1.558-0.268,2.003,0.395c0.444,0.662,0.267,1.559-0.395,2.003l-37.551,25.182         C451.068,323.616,450.789,323.695,450.512,323.695z"/>
						</g>
					</g>
				</g>
			</g>
			<g>
				<g>
					<g>
						<g>
							<path style="fill:#F7EDE5;" d="M59.148,367.041c-0.559,0-1.091-0.326-1.326-0.871l-17.935-41.503         c-0.316-0.732,0.021-1.582,0.752-1.898c0.731-0.317,1.582,0.02,1.898,0.752l17.935,41.503         c0.316,0.732-0.021,1.582-0.752,1.898C59.533,367.003,59.339,367.041,59.148,367.041z"/>
						</g>
					</g>
				</g>
				<g>
					<g>
						<g>
							<path style="fill:#F7EDE5;" d="M67.719,363.337c-0.559,0-1.091-0.326-1.326-0.871l-17.935-41.503         c-0.316-0.732,0.021-1.582,0.752-1.898c0.731-0.317,1.582,0.021,1.898,0.753l17.935,41.503         c0.316,0.732-0.021,1.582-0.752,1.898C68.105,363.299,67.91,363.337,67.719,363.337z"/>
						</g>
					</g>
				</g>
				<g>
					<g>
						<g>
							<path style="fill:#F7EDE5;" d="M76.29,359.634c-0.559,0-1.091-0.326-1.326-0.871L57.03,317.259         c-0.316-0.732,0.021-1.582,0.752-1.898c0.733-0.317,1.582,0.021,1.898,0.752l17.934,41.503         c0.316,0.732-0.021,1.582-0.752,1.898C76.676,359.595,76.481,359.634,76.29,359.634z"/>
						</g>
					</g>
				</g>
			</g>
			<g>
				<g>
					<g>
						<g>
							<path style="fill:#F7EDE5;" d="M390.821,132.583c-0.71,0-1.33-0.525-1.428-1.249c-0.108-0.79,0.445-1.518,1.235-1.626         l44.798-6.109c0.791-0.109,1.518,0.446,1.625,1.235c0.108,0.79-0.445,1.518-1.235,1.625l-44.799,6.109         C390.952,132.579,390.886,132.583,390.821,132.583z"/>
						</g>
					</g>
				</g>
				<g>
					<g>
						<g>
							<path style="fill:#F7EDE5;" d="M392.083,141.834c-0.711,0-1.33-0.525-1.429-1.249c-0.108-0.79,0.445-1.518,1.235-1.626         l44.798-6.108c0.789-0.107,1.517,0.445,1.625,1.235c0.108,0.79-0.445,1.518-1.235,1.626l-44.798,6.108         C392.214,141.83,392.148,141.834,392.083,141.834z"/>
						</g>
					</g>
				</g>
				<g>
					<g>
						<g>
							<path style="fill:#F7EDE5;" d="M393.344,151.086c-0.711,0-1.33-0.525-1.429-1.249c-0.108-0.79,0.445-1.518,1.235-1.625         l44.799-6.108c0.791-0.11,1.518,0.446,1.625,1.235c0.108,0.79-0.445,1.518-1.236,1.626l-44.798,6.108         C393.475,151.082,393.409,151.086,393.344,151.086z"/>
						</g>
					</g>
				</g>
			</g>
		</g>
		<g>
			<g>
				<g>
					<g>
						<path style="fill:#FFC063;" d="M174.732,86.137c0,0-33.943,25.553-33.801,56.611c0.142,31.058,11.098,42.719,11.098,42.719        s-17.432,9.046-16.923,35.203c0.509,26.157,22.443,42.581,22.443,42.581s-48.609,23.964-46.392,73.411        c2.217,49.447,31.512,53.115,31.512,53.115l212.027-47.722L255.745,57.204L174.732,86.137z"/>
					</g>
				</g>
			</g>
			<g>
				<g>
					<g>
						<g>
							<path style="fill:#F7EDE5;" d="M467.605,380.558c-5.909,10.327-12.55,20.172-19.854,29.478         c-14.272,18.209-31.057,34.358-49.824,47.928c-0.039,0.029-0.067,0.048-0.106,0.077         c-38.991,29.288-96.159-7.598-144.688-6.039c-38.177,1.227-68.297,45.839-102.949,29.752         c-12.713-5.9-13.72-31.106-25.153-39.008c-12.021-8.306-19.632-22.903-29.978-33.172c4.34-21.837-4.403-22.973,3.421-45.031         c3.263-9.201,7.747-17.044,12.944-23.723c8.315-10.683,18.478-18.411,28.458-23.983c0.423-0.231,0.837-0.452,1.261-0.683         l0.029-0.01c3.965-2.146,8.851,38.323,12.614,36.792c3.137-1.261,5.2-44.607,8.04-45.512l0.029-0.01         c8.229-2.618,14.859-3.801,18.064-4.283h0.029c1.338-0.202,2.079-0.27,2.079-0.27s13.397-2.445,33.521-5.659         c0.828-0.125,1.665-0.26,2.521-0.395c21.365-3.378,49.612-7.507,77.378-10.529c9.172-1.001,18.295-1.877,27.111-2.579         c0.962-0.067,1.906-0.144,2.858-0.212c2.955-0.221,5.871-0.414,8.739-0.587c10.846-0.654,20.98-0.953,29.844-0.751         c1.934,0.038,3.802,0.106,5.611,0.202c9.268,0.472,16.775,1.607,21.731,3.609c0.193,0.077,0.375,0.144,0.558,0.231         c33.434,14.475,62.162,62.172,64.78,66.637c0.125,0.202,0.192,0.308,0.192,0.308s-0.135,0.847-0.135,0.857l-0.096,0.616         L467.605,380.558z"/>
						</g>
					</g>
				</g>
				<g>
					<g>
						<g>
							<path style="fill:#412945;" d="M397.927,457.965c-9.893,7.151-20.326,13.579-31.24,19.219         c-28.478,14.715-60.199,24.031-93.796,26.611c-0.077,0-0.154,0.01-0.231,0.019c-5.851,0.395-11.308,0.626-16.226,0.693         c-0.886,0.019-1.781,0.019-2.666,0.019c-36.995,0-72.094-8.152-103.584-22.771c-12.713-5.9-24.84-12.848-36.273-20.749         c1.79-6.516,21.276-115.809,21.276-115.809s5.527-28.811,5.95-29.042c0,0,7.921-3.965,11.684-5.495         c3.138-1.261,6.159-2.329,8.999-3.234l0.029-0.01c0.116,9.865,1.078,47.678,8.373,76.155         c2.772,10.817,6.448,20.287,11.347,26.36c10.692,13.272,32.395,20.653,56.436,23.03c0.837,0.077,1.675,0.154,2.512,0.231         c12.338,1.03,25.196,0.77,37.428-0.664c0.837-0.096,1.675-0.193,2.502-0.308c6.602-0.866,12.992-2.069,18.998-3.609         c19.672-5.043,37.216-41.547,49.997-77.493c1.01-2.858,1.992-5.707,2.945-8.546c0.298-0.866,0.587-1.723,0.866-2.589         c0.125-0.356,0.241-0.703,0.356-1.059c0.991-3.003,1.944-5.977,2.858-8.902c3.657-11.722,6.718-22.636,9.056-31.5         c1.482-5.601,2.676-10.375,3.561-14.013c0.183-0.77,0.356-1.492,0.52-2.156c9.268,0.472,16.775,1.607,21.731,3.609         l-10.75,68.571l-7.863,72.729L397.927,457.965z"/>
						</g>
					</g>
				</g>
			</g>
			<g>
				<g>
					<g>
						<g>
							<path style="fill:#FF9582;" d="M379.821,289.476c0,0-34,23.757-74.847,37.1c-1.078,0.354-2.166,0.697-3.253,1.04         c-8.833,2.737-17.954,4.95-27.08,6.314c-15.967,2.387-30.96,0.513-44.093-3.258c-1.011-0.288-2.012-0.585-2.992-0.899         c-28.664-9.024-47.782-26.589-47.782-26.589l33.939-10.926l1.985,2.321l0.398-3.089l20.826-6.704l-0.038-0.138l8.083-6.402         l-9.654-0.21l-0.653-2.751l12.902-16.992l-16.882,0.249L228.179,248l77.9-66.462l14.207,69.825l2.208,10.878l0.163,0.784         l7.947,3.683l2.267,1.048L379.821,289.476z"/>
						</g>
					</g>
				</g>
				<g>
					<g>
						<g>
							<polygon style="fill:#412945;" points="299.96,232.665 234.661,275.285 230.682,258.542        "/>
						</g>
					</g>
				</g>
			</g>
			<g>
				<g>
					<g>
						<g>
							<g>
								<path style="fill:#412945;" d="M332.872,267.755l-27.897,58.821l-42.529,89.691l-0.412,0.867          c-0.208,0.457-0.673,0.741-1.182,0.713l-0.029-0.002c-0.49-0.037-0.91-0.348-1.079-0.804l-0.37-0.993l-31.816-86.274          l-13.843-37.515l2.383-0.768l14.452,39.182l30.499,82.72l40.673-85.777l28.883-60.909L332.872,267.755z"/>
							</g>
						</g>
					</g>
				</g>
				<g>
					<g>
						<g>
							<g>
								<path style="fill:#FFC063;" d="M280.446,432.22c-2.233-8.248-9.201-14.696-17.997-15.957          c-0.491-0.067-1.001-0.125-1.501-0.164c-0.52-0.039-1.049-0.058-1.578-0.048c-10.23-0.048-19.084,7.074-21.365,16.909          c-0.26,1.078-0.433,2.194-0.52,3.33c-0.895,12.03,8.171,22.559,20.201,23.454c12.04,0.905,22.559-8.152,23.463-20.191          C281.341,437.013,281.081,434.54,280.446,432.22z M278.656,439.371c-0.789,10.663-10.115,18.69-20.778,17.891          c-10.673-0.799-18.7-10.124-17.901-20.788c0.087-1.126,0.26-2.223,0.539-3.282c2.233-8.979,10.702-15.322,20.249-14.609          c8.286,0.616,14.985,6.4,17.179,13.945C278.579,434.694,278.829,436.994,278.656,439.371z"/>
							</g>
						</g>
					</g>
				</g>
			</g>
			<g>
				<g>
					<g>
						<polygon style="fill:#6E72FF;" points="322.495,262.241 236.885,284.648 235.314,278.036 320.287,251.363       "/>
					</g>
				</g>
			</g>
			<g>
				<g>
					<g>
						<g>
							<path style="fill:#FF9582;" d="M303.476,222.907c-11.077,16.419-60.227,34.435-88.599,38.227         c-12.771,1.704-22.549-12.81-28.439-22.674c-0.366-0.606,21.236-26.121,20.909-26.689         c-5.928-10.134-33.266,3.707-37.732-7.727c-4.591-11.732-8.238-23.829-10.538-35.657c-1.232-6.352-1.607-12.867-1.126-19.316         c3.003-40.123,37.957-70.217,78.09-67.224c35.416,2.647,62.999,30.2,66.926,64.221         C304.111,152.247,313.938,207.412,303.476,222.907z"/>
						</g>
					</g>
				</g>
				<g>
					<g>
						<g>
							<g>
								<path style="fill:#E36352;" d="M213.982,215.207c0,13.031-10.558,23.589-23.589,23.589c-1.347,0-2.675-0.116-3.955-0.337          c-0.366-0.606-0.712-1.193-1.039-1.761c-5.928-10.134-11.318-21.221-15.783-32.654c3.975-7.391,11.79-12.425,20.778-12.425          C203.424,191.619,213.982,202.186,213.982,215.207z"/>
							</g>
						</g>
					</g>
					<g>
						<g>
							<g>
								
									<ellipse transform="matrix(0.5298 -0.8481 0.8481 0.5298 -35.3134 316.9687)" style="fill:#E36352;" cx="268.209" cy="190.333" rx="23.589" ry="23.589"/>
							</g>
						</g>
					</g>
				</g>
				<g>
					<g>
						<g>
							<g>
								<g>
									<g>
										<g>
											<path style="fill:#412945;" d="M197.052,181.762c1.235,5.007-0.471,9.733-3.809,10.556             c-3.338,0.823-7.045-2.569-8.279-7.576c-1.234-5.007,0.471-9.733,3.809-10.556             C192.111,173.363,195.818,176.755,197.052,181.762z"/>
										</g>
									</g>
								</g>
								<g>
									<g>
										<g>
											<path style="fill:#412945;" d="M247.828,164.932c1.235,5.007-0.471,9.733-3.809,10.556             c-3.338,0.823-7.045-2.569-8.279-7.576c-1.235-5.007,0.471-9.733,3.809-10.556             C242.887,156.533,246.594,159.925,247.828,164.932z"/>
										</g>
									</g>
								</g>
								<g style="opacity:0.59;">
									<g>
										<g>
											<path style="fill:#F8BDFF;" d="M270.836,174.76l42.62-22.32l-1.339-2.558l-42.345,22.176             c-3.472-6.212-12.878-9.381-22.839-7.199c-9.548,2.091-16.581,8.435-17.639,15.206             c-3.724-0.877-7.658-0.794-11.353,0.343c-3.844,1.182-7.261,3.453-9.891,6.443c-4.101-5.119-12.68-7.561-21.728-5.579             c-11.467,2.512-19.315,11.157-17.529,19.31c1.786,8.153,12.529,12.726,23.996,10.214             c11.467-2.512,19.315-11.157,17.529-19.309c-0.156-0.714-0.404-1.389-0.692-2.045c2.354-2.926,5.6-5.178,9.164-6.274             c3.346-1.028,7.026-1.037,10.434-0.129c0.042,0.377,0.097,0.754,0.179,1.13c1.786,8.153,12.529,12.726,23.996,10.214             c11.467-2.512,19.315-11.157,17.529-19.31C270.905,174.965,270.863,174.866,270.836,174.76z"/>
										</g>
									</g>
								</g>
							</g>
							<g>
								<g>
									<g>
										<path style="fill:#412945;" d="M229.271,217.524c-5.54,0-10.049-3.386-10.301-3.579c-0.547-0.418-0.651-1.201-0.233-1.748            c0.417-0.547,1.198-0.65,1.746-0.234l0,0c0.07,0.054,7.144,5.333,13.618,1.863c6.403-3.432,4.905-11.738,4.837-12.09            c-0.128-0.676,0.314-1.329,0.99-1.459c0.674-0.132,1.328,0.311,1.459,0.986c0.082,0.425,1.926,10.453-6.108,14.76            C233.243,217.116,231.194,217.524,229.271,217.524z"/>
									</g>
								</g>
							</g>
							<g>
								<g>
									<g>
										<g>
											<path style="fill:#FFC063;" d="M175.59,170.974c-0.097,0-0.195-0.011-0.293-0.035c-0.67-0.161-1.081-0.835-0.92-1.504             c1.61-6.676,6.907-12.246,13.493-14.19c0.665-0.195,1.354,0.183,1.549,0.843c0.195,0.66-0.183,1.354-0.843,1.549             c-5.748,1.696-10.37,6.557-11.775,12.383C176.663,170.59,176.153,170.974,175.59,170.974z"/>
										</g>
									</g>
								</g>
								<g>
									<g>
										<g>
											<path style="fill:#FFC063;" d="M228.735,147.927c-0.428,0-0.846-0.222-1.078-0.619c-0.347-0.595-0.146-1.359,0.449-1.705             c5.455-3.183,12.294-3.9,18.29-1.919c0.654,0.216,1.009,0.921,0.793,1.575c-0.215,0.654-0.919,1.011-1.575,0.793             c-5.327-1.758-11.404-1.122-16.251,1.705C229.165,147.872,228.949,147.927,228.735,147.927z"/>
										</g>
									</g>
								</g>
							</g>
						</g>
					</g>
				</g>
			</g>
			<g>
				<g>
					<g>
						<path style="fill:#FFC063;" d="M456.753,354.609c0,0-2.495-91.851-42.901-111.626c0,0,6.315-77.884-65.12-78.292        c0,0,24.287-47.964-10.885-85.086c-14.699-15.519-35.148-21.13-51.961-22.857c0.676-10.502-1.006-18.525-11.629-20.83        c-16.64-3.611-22.278,16.733-22.278,16.733s1.71-22.87-12.886-21.004c-5.013,0.641-7.891,5.899-9.508,12.527        c-4.47-5.935-9.695-10.003-15.252-8.652c-4.404,1.07-6.506,4.993-7.237,10.139c-3.243-3.938-7.173-6.216-11.87-5.137        c-5.783,1.329-8.308,6.413-9.084,12.67c-4.149-3.267-9.016-4.936-13.765-1.483c-11.986,8.714-0.435,25.594-0.435,25.594        l0.108,0.218c-0.418,0.209-0.854,0.445-1.298,0.709l-2.965-4.687c0,0-7.8-7.729-18.598,1.567        c-10.798,9.295,1.29,38.782,1.29,38.782l11.141-7.299l4.265-4.018c4.37,7.72,12.753,10.062,19.2,7.661        c4.658-1.735,7.536-7.099,8.48-12.826c1.839,2.988,4.386,5.038,7.486,5.806c8.548,2.118,20.978-10.341,20.978-10.341        s7.615,7.282,16.713,7.163c1.51-0.02,2.962-0.211,4.361-0.533c3.405,4.076,7.325,8.089,10.721,9.796        c8.074,4.049,18.706,6.813,18.706,6.813s-4.855,18.862,0.372,34.53c5.237,15.669,18.595,21.589,18.595,21.589        s-19.412,15.805-14.125,37.384c5.286,21.589,26.342,36.471,26.342,36.471s-8.767,24.968-8.448,47.169        c0.309,22.201,33.18,57.182,33.18,57.182l28.286,0.918c-4.545-13.687-8.49-27.927-5.969-42.022        c2.754,15.059,8.282,29.417,16.318,42.362l45.346,1.47c3.718-13.069,4.354-27.006,1.8-40.341        c6.062,13.028,10.101,26.639,11.871,40.784L456.753,354.609z"/>
					</g>
				</g>
			</g>
			<g>
				<g>
					<g>
						<g>
							<path style="fill:#FFFFFF;" d="M179.713,75.545c-0.298,3.992-3.777,6.986-7.769,6.688s-6.987-3.777-6.688-7.769         c0.299-3.992,3.777-6.987,7.769-6.688C177.017,68.074,180.011,71.552,179.713,75.545z"/>
						</g>
					</g>
				</g>
				<g>
					<g>
						<g>
							<path style="fill:#FFFFFF;" d="M215.176,56.019c-0.298,3.992-3.777,6.987-7.769,6.688c-3.992-0.298-6.986-3.777-6.688-7.769         c0.298-3.992,3.777-6.987,7.769-6.688C212.48,48.549,215.475,52.027,215.176,56.019z"/>
						</g>
					</g>
				</g>
				<g>
					<g>
						<g>
							<path style="fill:#FFFFFF;" d="M258.484,55.725c-0.299,3.992-3.777,6.987-7.769,6.688c-3.992-0.299-6.987-3.777-6.688-7.769         c0.298-3.992,3.777-6.987,7.769-6.688C255.788,48.254,258.782,51.733,258.484,55.725z"/>
						</g>
					</g>
				</g>
			</g>
			<g>
				<g>
					<g>
						<g>
							<path style="fill:#FF9582;" d="M159.548,289.274c-1.588,5.168-4.081,13.069-6.727,21.385         c-3.955,12.453-8.248,25.831-10.336,32.346c-0.818,2.531-1.299,4.033-1.299,4.033l2.839,42.432l0.847,12.684l5.312,79.601         c-12.713-5.9-24.84-12.848-36.273-20.749c-12.021-8.306-23.281-17.651-33.627-27.919         c-5.611-5.563-10.952-11.395-16.014-17.477L85,327.318c0,0-12.521-55.849-10.827-62.913         c1.877-7.805,8.642-10.529,11.905-11.414c1.088-0.289,1.79-0.375,1.79-0.375s-3.898-8.575,5.755-14.35         c6.968-4.158,12.839,2.935,12.839,2.935s0.058-0.558,0.173-1.578c1.116-9.961,7.516-63.894,15.524-63.288         c8.517,0.635,6.852,57.571,6.727,61.411c0,0.135,0,0.202,0,0.202l5.37,0.645c0,0,0.019-0.096,0.038-0.298         c0.164-1.03,0.722-4.735,1.617-9.768c1.906-10.692,5.293-27.429,9.422-37.572c1.549-3.773,3.186-6.641,4.899-7.93         c0.587-0.452,1.184-0.712,1.79-0.76c9.663-0.76,1.857,74.057,1.857,74.057s1.569,2.541,3.224,6.583         c0.067,0.154,0.125,0.318,0.193,0.481C159.856,269.824,162.474,279.756,159.548,289.274z"/>
						</g>
					</g>
				</g>
				<g>
					<g>
						<g>
							<g>
								<path style="fill:#412945;" d="M153.697,265.406c-0.058-0.058-0.125-0.106-0.202-0.144l-35.946-20.182          c-0.452-0.25-1.001-0.202-1.395,0.125c-0.125,0.096-1.088,0.895-2.262,2.223c-0.029-0.038-0.038-0.087-0.058-0.115          l-0.318-0.404c-1.27-1.636-3.734-4.773-6.881-7.285c-3.811-3.022-8.633-5.12-13.599-2.454          c-6.833,3.657-7.054,10.471-6.698,13.82c-0.077,0.039-0.164,0.067-0.231,0.125c-0.52,0.452-0.577,1.242-0.125,1.761          c0.029,0.038,0.067,0.077,0.096,0.115c0.943,1.088,1.944,2.252,2.964,3.494c1.482,2.05,3.628,4.86,6.179,7.776          c6.41,8.46,12.165,17.343,11.587,20.595c-0.077,0.404-0.231,0.539-0.395,0.626c-4.013,2.223-17.42-9.499-25.658-18.536          c-0.462-0.5-1.251-0.539-1.761-0.077c-0.51,0.462-0.539,1.251-0.077,1.761c3.137,3.445,17.699,18.94,25.946,19.556          c1.03,0.077,1.954-0.077,2.752-0.52c0.885-0.491,1.453-1.309,1.646-2.377c0.462-2.598-1.626-7.093-4.658-11.982          c3.157,2.406,6.429,4.186,9.557,4.629c0.25,0.029,0.491,0.058,0.731,0.077c2.55,0.193,4.812-0.539,6.756-2.165          c0.202,0.144,0.404,0.298,0.606,0.443c-2.117,1.415-6.265,5.399-10.23,16.236c-0.241,0.645,0.096,1.357,0.741,1.598          c0.106,0.039,0.221,0.067,0.337,0.077c0.539,0.039,1.068-0.289,1.261-0.818c4.87-13.31,9.922-15.398,10.057-15.447          c0.039-0.01,0.067-0.039,0.096-0.058c2.993,2.021,5.293,3.291,5.534,3.426c0.164,0.087,0.337,0.135,0.51,0.154          c0.472,0.029,0.943-0.202,1.184-0.645c0.337-0.606,0.115-1.367-0.491-1.694c-0.154-0.087-15.283-8.45-18.844-16.861          c-2.81-6.641,2.772-12.733,4.697-14.561l34.204,19.2l0.962,0.539c0.597,0.337,1.357,0.125,1.694-0.472          C154.265,266.436,154.14,265.782,153.697,265.406z M110.11,263.231c1.703,4.023,5.601,7.911,9.499,11.039          c-1.472,1.078-3.147,1.463-5.101,1.193c-5.707-0.799-12.28-6.968-17.342-12.781c-2.204-2.897-4.331-5.524-6.015-7.555          c-1.097-1.511-1.848-2.618-2.127-3.022c-0.308-1.318-1.771-9.008,5.187-12.742c6.477-3.465,12.993,3.522,17.343,9.085          l0.318,0.404c0.154,0.192,0.356,0.308,0.568,0.385C110.023,252.558,107.742,257.621,110.11,263.231z"/>
							</g>
						</g>
					</g>
					<g>
						<g>
							<g>
								<path style="fill:#412945;" d="M116.944,239.042l27.634,2.805c0.011,0.001,0.022,0.002,0.033,0.003          c0.672,0.05,1.264-0.443,1.333-1.117c0.07-0.685-0.43-1.297-1.115-1.366l-27.634-2.805c-0.679-0.082-1.297,0.43-1.366,1.115          C115.759,238.361,116.259,238.972,116.944,239.042z"/>
							</g>
						</g>
					</g>
				</g>
			</g>
			<g>
				<g>
					<g>
						<path style="fill:#412945;" d="M358.266,355.894c-0.244,0.426-0.39-0.077-0.015-0.059        C358.25,355.854,358.258,355.874,358.266,355.894z"/>
					</g>
				</g>
			</g>
		</g>
	</g>
</g>
<g>
</g>
<g>
</g>
<g>
</g>
<g>
</g>
<g>
</g>
<g>
</g>
<g>
</g>
<g>
</g>
<g>
</g>
<g>
</g>
<g>
</g>
<g>
</g>
<g>
</g>
<g>
</g>
<g>
</g>
</svg>
