<?xml version="1.0" encoding="UTF-8"?>
<!-- Generator: Adobe Illustrator 25.4.1, SVG Export Plug-In . SVG Version: 6.00 Build 0)  -->
<svg xmlns="http://www.w3.org/2000/svg" xmlns:xlink="http://www.w3.org/1999/xlink" version="1.1" id="Capa_1" x="0px" y="0px" viewBox="0 0 512 512" style="enable-background:new 0 0 512 512;" xml:space="preserve" width="512" height="512">
<g>
	<g>
		<path d="M10.892,464.542c2.944-0.832,5.893-2.403,8.831-2.378c24.798,0.206,45.169-11.653,64.62-25.699    c21.327-15.402,39.402-34.45,54.554-56.324c23.371-33.74,46.266-67.838,69.528-101.661c2.313-3.363,2.405-5.604,0.194-9.042    c-14.731-22.912-29.236-45.98-43.587-68.639c6.007-6.65,12.445-12.658,17.528-19.724c4.999-6.949,8.624-14.971,12.84-22.501    c11.917,8.062,31.577,8.54,49.323-2.982c8.488,13.092,16.992,26.208,25.722,39.673c2.729-3.998,5.393-7.947,8.102-11.861    c19.567-28.267,38.031-57.28,54.3-87.754c3.151-5.903,5.904-12.057,8.538-18.235c6.613-15.512,1.988-28.869-7.89-40.905    c-4.825-5.879-10.932-9.731-18.402-11.355c-2.859-0.622-5.424-2.714-8.123-4.137c1.72-3.185,2.719-7.333,5.271-9.404    c23.763-19.28,62.054-14.547,76.917,14.12c0.497,0.959,1.029,1.898,1.659,3.057c10.001-11.132,22.109-18.317,36.064-21.593    c14.305-3.358,28.763-4.464,42.896,1.338c10.88,4.466,18.792,12.458,24.561,22.868c2.441,4.404,1.405,6.451-3.515,6.425    c-29.692-0.159-53.718,14.237-76.283,32.218c-23.956,19.089-42.482,43.295-59.589,68.897    c-19.533,29.234-39.451,58.189-59.336,87.166c-1.883,2.744-1.993,4.506-0.13,7.326c13.375,20.258,26.557,40.654,39.507,60.555    c-6.478,5.991-13.485,11.131-18.784,17.753c-5.185,6.479-8.63,14.47-12.958,22.004c-16.766-6.543-33.846-3.921-50.693,5.257    c-6.113-9.612-12.35-19.421-18.917-29.747c-6.506,9.483-13.022,18.356-18.9,27.667c-16.613,26.317-34.03,52.156-47.115,80.692    c-9.434,20.574-4.684,40.352,12.858,52.548c4.501,3.129,10.269,4.304,15.49,6.275c4.328,1.633,5.329,3.319,2.726,7.205    c-2.182,3.257-5.035,6.517-8.318,8.401c-17.504,10.044-35.486,11.793-53.753,1.97c-8.856-4.763-12.987-9.212-20.752-22.443    c-6.2,7.889-14.273,12.974-22.937,16.968c-16.411,7.564-33.54,9.594-50.987,5.037c-14.377-3.756-23.963-14.047-31.061-27.144    C10.892,465.804,10.892,465.173,10.892,464.542z"/>
		<path d="M391.955,479.869c-8.924,22.695-26.686,30.604-48.367,31.971c-10.09,0.636-20.006-0.551-29.331-4.733    c-2.736-1.227-5.126-3.68-7.187-6.035c-1.744-1.992-1.292-4.346,0.914-6.144c13.225-10.78,14.192-24.879,10.427-40.525    c-3.746-15.568-11.607-28.995-19.582-42.373c-4.943-8.291-10.621-16.116-15.396-24.505c-9.415-16.54-23.37-22.212-42.544-19.571    c1.292-3.614,1.848-6.989,3.528-9.572c10.252-15.765,25.328-20.845,42.659-19.172c6.724,0.649,13.253,3.506,20.223,5.456    c0.444-1.719,0.965-4.802,2.028-7.667c6.359-17.125,17.509-29.645,33.698-37.033c6.309-2.879,12.894-3.191,19.435-0.575    c0.934,0.373,1.722,1.141,1.715,1.137c-2.102,6.159-5.043,11.728-5.686,17.572c-0.568,5.162-0.043,11.606,2.528,15.804    c15.778,25.763,31.539,51.605,48.76,76.32c14.29,20.508,30.288,39.842,49.715,55.503c10.612,8.555,22.534,14.575,35.928,17.187    c2.149,0.419,5.309,2.355,5.62,4.062c0.398,2.179-1.007,5.521-2.701,7.18c-11.609,11.363-26.303,14.339-41.298,13.511    c-20.097-1.109-38.691-8.29-55.597-19.775C398.067,485.598,395.138,482.589,391.955,479.869z"/>
		<path d="M132.475,192.769c10.355-14.497,9.027-28.782,0.398-42.585c-14.605-23.361-28.966-46.947-44.747-69.435    c-14.07-20.051-32.085-35.975-54.116-46.404c-3.596-1.702-4.604-5.404-2.058-8.516c1.807-2.208,4.174-4.337,6.716-5.409    C64.318,9.608,89.549,8.683,113.74,24.84c3.275,2.187,6.126,5.065,9.16,7.612c7.95-17.807,22.599-25.522,40.213-27.791    c14.301-1.842,28.023,1.355,40.742,8.524c1.664,0.938,2.795,2.902,4.172,4.391c-1.366,1.002-2.64,2.19-4.112,2.975    c-10.56,5.631-14.788,15.29-15.64,26.933c-0.703,9.602,2.085,18.543,6.71,26.583c7.602,13.214,15.191,26.535,23.997,38.872    c8.59,12.035,21.303,15.121,35.259,13.044c0.427-0.063,0.876,0.038,2.654,0.138c-1.294,3.457-1.926,6.85-3.648,9.463    c-10.343,15.686-25.431,20.715-42.76,18.965c-6.699-0.676-13.197-3.525-20.088-5.469c-0.381,1.612-0.739,4.448-1.713,7.032    c-6.653,17.635-17.716,31.056-34.943,38.074C146.794,197.014,139.637,197.268,132.475,192.769z"/>
	</g>
	<g>
		<path style="fill:#FFFFFF;" d="M202.656,178.669c1.518,2.046,2.747,3.05,3.144,4.334c6.372,20.597,18.721,36.772,34.145,50.767    c7.181,6.516,14.357,13.066,21.157,20.003c11.999,12.241,22.243,25.832,26.562,43.173c1.197,4.804,1.391,9.928,1.596,14.925    c0.074,1.804-1.169,3.667-1.81,5.503c-0.45-0.105-0.901-0.209-1.352-0.313c-0.656-3.122-1.261-6.257-1.977-9.364    c-4.288-18.597-16.72-31.342-29.265-43.964c-10.102-10.164-20.452-20.062-30.474-30.31c-12.947-13.24-18.399-30.353-22.25-48.207    c-0.196-0.909-0.187-1.884-0.148-2.823C202.016,181.647,202.239,180.91,202.656,178.669z"/>
		<g>
			<g>
				<path style="fill:#FFFFFF;" d="M329.439,380.669c0.656-4.903,0.791-10.144,2.14-15.02c2.16-7.803,8.269-9.096,13.738-3.205      c5.469,5.891,8.203,13.491,9.042,21.242c1.401,12.94,1.688,26.022,2.143,39.055c0.151,4.331-2.136,5.372-5.411,2.967      c-11.723-8.611-23.544-17.086-35.078-25.965c-3.183-2.451-5.894-5.854-8.098-9.319c-2.224-3.496-2.06-7.682,0.546-11.073      c2.603-3.387,6.471-4.225,10.293-3.125C322.462,377.295,325.953,379.184,329.439,380.669z"/>
				<path style="fill:#FFFFFF;" d="M371.009,464.253c-5.693,0.062-10.076-4.132-10.164-9.726      c-0.093-5.891,4.872-11.115,10.663-11.221c5.467-0.099,10.276,4.788,10.249,10.417      C381.729,459.405,376.845,464.19,371.009,464.253z"/>
			</g>
			<g>
				<path style="fill:#FFFFFF;" d="M170.817,126.793c-0.53,4.732-0.451,9.74-1.83,14.265c-0.879,2.885-3.613,6.589-6.072,7.118      c-2.496,0.537-6.376-1.681-8.421-3.914c-5.368-5.863-7.878-13.583-8.654-21.395c-1.24-12.491-1.503-25.093-1.981-37.656      c-0.055-1.456,0.859-3.283,1.898-4.304c0.474-0.466,2.549,0.307,3.552,1.036c11.765,8.549,23.565,17.055,35.115,25.912      c3.075,2.358,5.719,5.601,7.865,8.924c2.351,3.64,2.35,7.962-0.43,11.478c-2.752,3.481-6.745,4.222-10.747,2.942      C177.575,130.067,174.229,128.282,170.817,126.793z"/>
				<path style="fill:#FFFFFF;" d="M131.416,49.532c5.259-0.116,9.762,4.25,9.825,9.526c0.064,5.325-4.302,10.044-9.344,10.099      c-5.102,0.056-9.554-4.811-9.572-10.465C122.309,53.732,126.367,49.643,131.416,49.532z"/>
			</g>
		</g>
	</g>
</g>















</svg>
