<svg id="Layer_1" enable-background="new 0 0 512 512" viewBox="0 0 512 512" xmlns="http://www.w3.org/2000/svg"><g fill="#3981bf"><path d="m368.2 318.7c-3.2 0-5.2-3.1-3.9-6.5 2.1-5.7 4.4-11.3 6.6-16.9 4-10.3 8.1-20.6 12.1-30.9.1-.2.2-.4.3-.6 1.3-3.1 3.5-4.3 6-3.3 2.6 1 3.5 3.4 2.3 6.5-2.7 6.9-5.4 13.8-8.1 20.7-3.5 9-7.1 18.1-10.6 27.1-.9 2.2-2.1 3.8-4.7 3.9z"/><path d="m330.3 314c-3.8 0-5.8-3.1-4.5-6.5 3.2-8.3 6.5-16.5 9.7-24.8 2.8-7.1 5.6-14.2 8.4-21.3.8-2.1 2.3-3.3 4.5-3.2 1.8 0 3.2 1 3.9 2.7.6 1.3.4 2.6-.2 3.9-6 15.3-12 30.5-18 45.8-.7 2.1-2.1 3.2-3.8 3.4z"/><path d="m355.8 317.2c-.3.8-.6 1.9-1 2.9-4.5 11.4-8.9 22.8-13.4 34.2-1.3 3.3-3.6 4.6-6.2 3.7s-3.4-3.5-2.1-6.9c4.6-11.7 9.2-23.4 13.7-35 1-2.5 2.6-3.8 5.3-3.3 2.3.3 3.3 1.8 3.7 4.4z"/><path d="m305 379.8c-3.6 0-5.5-3.2-4.1-6.8 2-5.4 4.2-10.7 6.3-16.1 2-5.2 4-10.3 6.1-15.5 1.3-3.3 3.6-4.5 6.3-3.4 2.4 1 3.2 3.5 2 6.7-4.1 10.4-8.2 20.8-12.2 31.2-1 2.2-2.2 3.7-4.4 3.9z"/><path d="m275.1 344.7c-3.5-.1-5.2-3.3-3.8-7 2.4-6.1 4.8-12.2 7.2-18.4.9-2.2 1.7-4.5 2.6-6.7 1.2-3 3.6-4.3 6.1-3.2 2.4 1 3.4 3.4 2.3 6.3-3.3 8.6-6.7 17.1-10.1 25.7-.7 2-2.2 3.1-4.3 3.3z"/><path d="m354.8 296.5c-3.1.1-5.4-2.8-4.3-5.7 3.4-9.1 6.9-18.1 10.6-27.1 1-2.5 3.3-3.1 5.8-2.3 2.2.8 3.4 3.3 2.4 5.7-3.4 8.9-6.9 17.7-10.4 26.5-.7 1.8-2.1 2.8-4.1 2.9z"/><path d="m310.5 260.5c-.2.6-.4 1.6-.7 2.4-3 7.8-6.1 15.6-9.2 23.3-1.2 3-3.6 4.2-6.1 3.2-2.3-.9-3.3-3.5-2.2-6.3 3.1-8 6.2-16 9.4-23.9 1-2.4 2.7-3.8 5.3-3.3 2.1.5 3.2 2.1 3.5 4.6z"/><path d="m303.5 326.6c-3.4.1-5.3-3.1-4-6.7 1.9-5.1 4-10.1 5.9-15.2 1-2.6 2-5.3 3.1-7.9s3.5-3.6 5.9-2.7 3.4 3.3 2.4 6c-3 7.9-6.2 15.8-9.3 23.6-.6 1.8-2 2.8-4 2.9z"/><path d="m319.6 283.5c-3.2 0-5.5-2.8-4.4-5.8 2.9-7.8 6-15.6 9.1-23.3 1-2.5 3.3-3.3 5.7-2.4 2.6 1 3.4 3.2 2.5 5.7-2.9 7.8-6.1 15.5-9.2 23.3-.6 1.7-2.1 2.4-3.7 2.5z"/></g><path d="m381.1 266.1c-13.1-.1-25 2.2-37.1 1.7-11.8-.5-23.7-.5-35.4-1.4-12.8-1-24.6-5.5-35.1-12.4-7.6-5-12.9-12.5-16-21.3-4.2-11.7.2-29.1 12.2-37.2 8.1-5.4 16.6-9.3 26.2-10.5 2.7-.3 3.7-1.5 4.3-3.9 2.9-11.5 7.6-22.3 16.5-30.5 12.9-12 28.5-14.7 44.8-9.4 18 5.8 29.9 19.2 37.7 36.1 2.8 6.1 5.9 9.8 13.3 8.9 4.4-.5 9 .7 13.3 2 11.1 3.4 18.2 10.5 21.1 21.9 6 23.3-12.3 47.3-34.2 51.9-7.4 1.5-14.7 3-22.2 4.1-3.5.5-7-.3-9.4 0z" fill="#aed6f2"/><path d="m203.1 257v72.6c0 3.9 0 4-4.1 3.9-28.1-.9-49.2-13.6-63.5-37.9-10.3-17.5-14.3-36.3-8.9-55.8 8.5-30.5 27.3-51.4 59.3-58.3 4.4-1 8.9-1.1 13.4-1.3 2.8-.1 3.8.7 3.8 3.7-.1 24.3 0 48.7 0 73.1z" fill="#fab03c"/><path d="m92.2 249.2c6.7 0 13.4-.1 20.1 0 4.8.1 7.9 3 8 7.4.1 4.5-3.1 7.7-8 7.8-13.4.3-26.7.5-40.1.7-3.2 0-5.8-1.2-7.2-4.2s-1.4-6.1.4-9c1.6-2.5 4.1-3.4 7-3.4h19.7c.1.3.1.5.1.7z" fill="#fab03c"/><path d="m137.5 377.4c-6.6.1-11-6.5-7.7-12.2 6.9-11.9 14.1-23.7 21.2-35.5 2.1-3.5 6.3-4.4 9.9-2.4 3.5 2 5.1 6.2 3.2 9.7-6.7 12.3-13.5 24.5-20.4 36.7-1.3 2.4-3.5 3.6-6.2 3.7z" fill="#fab03c"/><path d="m164.8 179.8c0 3.2-2.1 6-5.3 7-3.1 1-6.7.1-8.4-2.7-7.3-12-14.5-24-21.6-36.1-2.4-4.1-.9-8 3.5-10.5 4.1-2.3 8.2-1.4 10.7 2.4 1.8 2.9 3.5 6 5.2 9 4.9 8.8 9.7 17.6 14.5 26.4.9 1.5 1.4 2.9 1.4 4.5z" fill="#fab03c"/><path d="m101.3 191.4c2 0 3.7.8 5.3 1.7 6.5 3.7 12.9 7.3 19.3 11.2 4.2 2.6 5.4 6.8 3.4 10.4-2.1 3.8-6.5 5.1-10.9 2.7-7.2-4-14.6-7.7-21.4-12.5-3-2.1-3.9-5.5-2.7-8.6 1.1-3 3.8-4.9 7-4.9z" fill="#fab03c"/><path d="m101.1 322.3c-3.1-.2-5.4-1.5-6.7-4.4-1.2-2.9-.8-5.6 1.3-7.9 1.1-1.1 2.3-2.1 3.7-2.9 6.3-3.7 12.6-7.4 19.1-10.9 4.2-2.3 8.5-1.1 10.6 2.6 2.1 3.8 1 7.9-3.1 10.5-6.7 4.1-13.4 8.2-20.4 11.8-1.3.6-2.8 1.2-4.5 1.2z" fill="#fab03c"/><path d="m203.1 153.3c0 5.6-.1 11.3 0 16.9.1 2.6-1.2 3-3.3 2.5-3-.8-5.3-3.2-5.5-6.5-.4-8.7-.6-17.3 0-26 .2-2.2 1.2-4 2.9-5.3 1.4-1.1 3.2-2.1 4.9-1.3s.9 2.6.9 4c.1 5.3.1 10.5.1 15.7z" fill="#fab03c"/><path d="m203.1 360.8c0 5.5-.1 11.1 0 16.6.1 2.9-1.3 3.2-3.5 2.5-2.9-1-4.9-2.9-5.2-6-.8-8.9-.5-17.8-.1-26.6.1-2.2 1.3-4 3.1-5.2 1.4-1 3.1-1.8 4.7-1.1 1.8.7.9 2.6 1 3.9.1 5.3 0 10.6 0 15.9z" fill="#fab03c"/><path d="m238.6 383c0-42.4 0-84.8 0-127.2 0-24.7 0-49.4 0-74.1 0-17.9 0-35.8 0-53.7 0-4.8-3.5-8.3-8-8.3s-7.9 3.4-8.1 8.2v3.5 215.1 37.1c0 5.8 4.2 9.5 9.4 8.7 4.2-.8 6.7-4.1 6.7-9.3z"/><path d="m200.6 313.7c-2.7-.2-5.4-.8-8-1.4-14.9-3.3-27.8-9.8-36.1-23.4-1.1-1.8-2.5-3.1-4.6-1.7s-1.4 3.1-.3 4.9c3.7 6.2 8.6 11.2 14.6 15.3 10.6 7.3 22.4 10.6 34.9 12.2 2.6.3 2.5-1 2.4-2.8.5-2.1-.6-2.9-2.9-3.1z"/><path d="m299.5 199c-15.4 1.2-28.4 8.6-28.6 28 0 5.6 1.4 10.8 4.7 15.3 1.2 1.7 2.7 2.9 4.7 1.4s1.2-3.1 0-4.9c-8.2-11.6-2.7-28 10.7-32.5 2.9-1 5.9-1.3 8.9-1.7 1.8-.3 2.8-1.4 2.5-3.3 0-1.6-1.3-2.5-2.9-2.3z"/><path d="m327.4 154.8c-9.6 5.9-14.4 14.8-16.3 25.6-.1 1.8.6 3.2 2.5 3.5 2.2.3 3.1-1.1 3.4-3.1 1.5-8.9 5.6-16.1 13.4-20.9 1.7-1 2.4-2.5 1.3-4.2-1-1.9-2.7-1.9-4.3-.9z"/><path d="m139.2 265.6c.8 4.2 1.8 8.3 3.9 12.1.8 1.5 2.2 1.9 3.8 1.1 1.4-.7 2.1-2 1.4-3.4-1.6-3.5-2.5-7.2-3.5-11-.4-1.5-1.6-2.2-3.1-2-1.6.3-2.4 1.5-2.5 3.2z"/><path d="m146 245c.7-2.4 1.4-4.8 1.9-7.2.3-1.5-.3-2.7-1.8-3.2-1.6-.6-3 0-3.6 1.5-.9 2.5-1.5 5.2-2.1 7.3 0 2.2.8 3.4 2.5 3.6 1.5.2 2.7-.6 3.1-2z"/><path d="m350.9 150.9c-2.6-.4-5.2-.3-7.8.1-1.5.3-2.3 1.4-2.2 3 .1 1.5 1.1 2.5 2.7 2.6 1.1.1 2.3 0 3.4 0v-.1c1.3 0 2.5.2 3.7 0 1.5-.2 2.4-1.3 2.3-2.9 0-1.4-.7-2.4-2.1-2.7z"/></svg>