<?xml version="1.0" encoding="UTF-8"?>
<!-- Generator: Adobe Illustrator 25.3.1, SVG Export Plug-In . SVG Version: 6.00 Build 0)  -->
<svg xmlns="http://www.w3.org/2000/svg" xmlns:xlink="http://www.w3.org/1999/xlink" version="1.1" id="Capa_1" x="0px" y="0px" viewBox="0 0 511.823 511.823" style="enable-background:new 0 0 511.823 511.823;" xml:space="preserve" width="512" height="512">
<g>
	<g>
		<path style="fill:#FFFFFF;" d="M255.856,511.82C8.005,508.877-93.501,197.297,104.858,49.077    C229.48-43.916,414.969,0.165,484.103,139.772c42.017,81.213,35.805,183.613-15.923,259.131    C420.782,469.287,340.854,512.293,255.856,511.82z"/>
		<path style="fill:#5F2183;" d="M429.883,422.618c-43.979,46.13-106.052,74.86-174.841,74.86    c-133.468,0-241.647-108.18-241.647-241.647c0-27.535,4.613-53.994,13.098-78.661c6.166-17.95,14.389-34.921,24.38-50.672    c7.003-10.995,14.843-21.416,23.496-31.12c10.828-12.238,22.922-23.352,36.044-33.176c0.693-0.526,1.386-1.028,2.103-1.554    c5.258-3.848,10.66-7.481,16.229-10.876c36.737-22.587,79.999-35.613,126.297-35.613c85.783,0,161.122,44.696,204.002,112.075    C463.178,132.713,435.213,417.073,429.883,422.618z"/>
		<path style="opacity:0.37;fill:#564BB7;" d="M444.965,405.265c-4.732,6.023-9.752,11.807-15.082,17.353    c-43.979,46.13-106.052,74.86-174.841,74.86c-133.468,0-241.647-108.18-241.647-241.647c0-27.535,4.613-53.994,13.098-78.661    c8.987-3.633,18.357-5.33,27.821-3.203c7.505,1.697,13.911,5.617,19.146,10.947c2.151,2.199,4.111,4.613,5.88,7.242    c2.844,4.207,5.163,8.915,6.931,13.815c1.315,3.681,2.343,7.457,3.036,11.282c0.478,2.534,0.813,5.091,0.98,7.601    c0.024,0.191,0.024,0.359,0.048,0.55c0.55,8.342-0.024,16.66-1.076,24.953c-0.741,6.119-1.769,12.214-2.772,18.333    c-0.717,4.302-1.434,8.629-2.032,12.955c-0.502,3.537-0.932,7.075-1.267,10.612c-0.12,1.267-0.215,2.534-0.263,3.824    c-0.239,4.207-0.239,8.509,0.096,12.787c1.147,14.963,6.167,29.399,18.165,37.717c16.397,11.377,39.127,6.477,56.862-2.701    c17.018-8.82,32.028-21.01,48.306-31.12c16.277-10.087,34.681-18.261,53.827-17.616c7.41,0.263,14.915,2.127,21.631,5.378    c1.697,0.837,3.346,1.745,4.924,2.749c8.366,5.258,14.963,12.907,17.711,22.396c2.749,9.513,1.53,19.074-1.1,28.682    c-2.94,10.78-7.601,21.583-10.278,32.363c-4.948,20.006-0.335,45.389,18.5,53.707c14.748,6.501,31.766-0.048,46.107-7.386    c10.302-5.258,20.46-10.995,30.905-15.942c9.107-4.302,18.38-7.983,28.156-10.278C425.868,404.692,435.62,404.046,444.965,405.265    z"/>
		<path style="opacity:0.12;fill:#1C0231;" d="M487.725,321.322c-6.095,3.968-12.501,7.481-19.146,10.493    c-4.111,1.841-8.318,3.514-12.596,4.972c-7.434,2.534-15.321,4.422-23.185,5.043c-8.7,0.693-17.377-0.167-25.432-3.466    c-22.014-8.963-33.104-33.439-35.016-57.603c-0.287-3.585-0.358-7.171-0.239-10.708c0.215-6.573,0.932-13.098,1.936-19.599    c3.179-20.436,9.202-40.538,11.186-61.165c0.741-7.625,0.741-15.536-0.12-23.328c-1.291-11.688-4.542-23.065-10.35-32.626    c-4.111-6.812-9.489-12.692-16.325-17.138c-26.602-17.233-63.865-4.446-85.449,18.787c-21.583,23.209-32.124,54.233-45.389,83.011    c-6.238,13.528-13.409,27.057-24.427,37.096c-10.995,10.063-26.579,16.182-41.016,12.548c-5.904-1.482-11.21-4.47-15.871-8.342    c-0.884-0.741-1.745-1.506-2.605-2.318c-3.872-3.657-7.219-7.935-10.039-12.429c-0.454-0.717-0.908-1.458-1.339-2.199    c-4.732-8.103-8.103-16.827-10.923-25.814c-0.741-2.223-1.41-4.494-2.055-6.764c-0.86-2.916-1.673-5.856-2.462-8.796    c-0.932-3.346-1.864-6.716-2.821-10.039c-0.908-3.227-1.864-6.43-2.892-9.609c-3.92-12.094-9.489-24.38-17.377-34.275    c-0.741-0.956-1.53-1.864-2.342-2.773c-5.569-6.262-12.19-11.329-20.078-14.484c-3.346-1.339-6.836-2.271-10.349-2.797    c-0.717-0.12-1.434-0.215-2.151-0.263c-2.653-0.287-5.306-0.359-7.983-0.239c7.003-10.995,14.843-21.416,23.496-31.12    c10.828-12.238,22.922-23.352,36.044-33.176c0.693-0.526,1.386-1.028,2.103-1.554c5.258-3.848,10.66-7.481,16.229-10.876    c36.737-22.587,79.999-35.613,126.297-35.613c85.783,0,161.122,44.696,204.002,112.075    C463.178,132.713,490.068,312.933,487.725,321.322z"/>
	</g>
	<g>
		<g>
			<path style="fill:#FF8933;" d="M196.952,222.349c-3.079-0.965-5.861-2.926-7.874-5.466c-7.842-9.894-2.379-24.315,0.802-35.029     c3.435-11.569,7.494-22.956,11.747-34.248c1.281-3.401,2.584-6.793,3.916-10.174c0.397-1.01,0.592-2.708,1.509-3.791     c0,0.001-0.5,30.752-0.5,30.752l21.251-35.502l-4,38.252c0,0,15.5-14.75,15.501-14.751c-0.146,1.687-1.55,7.319-1.949,9.033     c-1.581,6.781-3.346,13.53-5.503,20.148c-4.075,12.496-7.444,26.71-17.661,35.804c-3.754,3.342-8.568,5.836-13.589,5.619     C199.359,222.943,198.133,222.719,196.952,222.349z"/>
			<path style="fill:#FDBC08;" d="M215.552,206.895c0,7.456-6.045,13.501-13.501,13.501c-7.456,0-13.501-6.045-13.501-13.501     s6.045-13.501,13.501-13.501C209.508,193.394,215.552,199.439,215.552,206.895z"/>
		</g>
		<g>
			<g>
				<polygon style="opacity:0.33;fill:#F3C7D1;" points="120.443,363.719 163.254,438.729 107.897,374.006     "/>
				<path style="fill:#F3C7D1;" d="M110.417,376.366c-3.932-2.657-4.966-7.998-2.309-11.93c2.656-3.932,7.998-4.966,11.93-2.309      c3.932,2.656,4.966,7.998,2.309,11.93C119.69,377.989,114.349,379.023,110.417,376.366z"/>
			</g>
			<g>
				<polygon style="opacity:0.33;fill:#F3C7D1;" points="121.459,327.865 164.27,402.875 108.913,338.152     "/>
				
					<ellipse transform="matrix(0.9818 -0.1901 0.1901 0.9818 -61.2448 28.1693)" style="fill:#F3C7D1;" cx="116.243" cy="333.394" rx="8.592" ry="8.592"/>
			</g>
			<g>
				<polygon style="opacity:0.33;fill:#F3C7D1;" points="85.992,356.243 128.802,431.253 73.445,366.53     "/>
				<path style="fill:#F3C7D1;" d="M75.965,368.891c-3.932-2.657-4.966-7.998-2.309-11.93c2.657-3.932,7.998-4.966,11.93-2.309      c3.932,2.656,4.966,7.998,2.309,11.93C85.238,370.514,79.897,371.547,75.965,368.891z"/>
			</g>
		</g>
	</g>
	<g>
		<g>
			<g>
				<polygon style="fill:#564BB7;" points="322.176,414.186 279.968,422.288 309.349,453.659 270.431,435.389 275.792,478.043       255.048,440.379 234.304,478.043 239.665,435.389 200.746,453.658 230.127,422.288 187.92,414.186 230.127,406.085       200.746,374.715 239.665,392.984 234.304,350.33 255.048,387.995 275.792,350.33 270.431,392.984 309.35,374.715       279.968,406.085     "/>
			</g>
			<g>
				<path style="fill:#564BB7;" d="M165.338,129.008l-38.936-18.285l5.378,42.665l-20.747-37.669l-17.257,31.335l-3.49,6.334      l1.147-9.107l4.207-33.558l-34.634,16.277l-4.278,2.008l2.127-2.271l27.248-29.112l-11.736-2.247      c10.828-12.238,22.922-23.352,36.044-33.176l0.621,1.123l1.482-2.677c5.258-3.848,10.66-7.481,16.229-10.876l-2.342,18.548      l38.936-18.261L135.939,81.42l42.21,8.103l-42.21,8.103L165.338,129.008z"/>
			</g>
		</g>
		<g>
			<g>
				<path style="fill:#FF5382;" d="M496.641,249.33c0.048,2.151,0.072,4.326,0.072,6.501c0,6.238-0.239,12.429-0.717,18.548      c-0.526,7.171-1.386,14.222-2.557,21.201c-1.434,8.748-3.37,17.353-5.713,25.742c-0.454,1.625-0.932,3.227-1.434,4.828      c-1.745,5.784-3.705,11.473-5.88,17.042c-6.525,16.899-14.939,32.889-24.93,47.684c-3.346,4.924-6.836,9.728-10.517,14.389      c-4.732,6.023-9.752,11.807-15.082,17.353h-0.908c-14.006,0-27.559-1.912-40.394-5.521      c-30.953-8.629-57.818-26.961-77.155-51.508c-2.868-3.609-5.569-7.362-8.079-11.234c-9.848-15.106-16.994-32.1-20.866-50.337      c-0.239-1.171-0.478-2.318-0.669-3.49c-1.577-8.413-2.438-17.042-2.534-25.862c-0.024-0.574-0.024-1.171-0.024-1.745      c0-10.23,1.028-20.221,2.964-29.877c0.645-3.155,1.386-6.286,2.247-9.37c3.992-14.771,10.182-28.61,18.213-41.207      c17.018-26.65,42.234-47.541,72.088-59.133c16.803-6.549,35.088-10.134,54.209-10.134c10.302,0,20.365,1.028,30.069,3.036      c4.135,6.477,7.959,13.17,11.473,20.054c11.521,22.587,19.576,47.254,23.472,73.259      C495.469,229.3,496.354,239.243,496.641,249.33z"/>
				<path style="fill:#FF8933;" d="M493.988,219.548C454,229.85,414.012,240.152,374.049,250.453      c-23.376,6.023-46.752,12.046-70.104,18.07c-8.198,2.103-16.421,4.231-24.667,6.143c-0.024-0.574-0.024-1.171-0.024-1.745      c0-10.23,1.028-20.221,2.964-29.877c25.001-9.25,51.771-15.082,77.537-23.185c4.039-1.291,2.486-7.338-1.649-6.477      c-14.676,2.988-29.232,6.43-43.549,10.804c-10.015,3.083-19.982,6.644-30.092,9.489c3.992-14.771,10.182-28.61,18.213-41.207      c2.916-0.956,5.115-1.673,6.262-2.103c25.049-9.154,50.457-17.305,76.175-24.404c9.943-2.773,19.934-5.378,29.949-7.816      c18.357-4.47,36.857-8.437,55.452-11.855C482.037,168.876,490.091,193.543,493.988,219.548z"/>
				<path style="fill:#FF8933;" d="M439.826,295.723c0.048,1.339,0.741,2.605,1.601,3.633c4.708,5.713,13.457,5.426,20.747,4.087      c10.445-1.936,20.866-5.067,31.264-7.864c-1.434,8.748-3.37,17.353-5.713,25.742c-0.454,1.625-0.932,3.227-1.434,4.828      c-5.88,1.96-11.784,3.848-17.711,5.664c-11.831,3.609-23.782,6.932-35.781,10.015c-33.415,8.605-67.379,15.273-101.392,20.986      c-6.621,1.123-13.289,2.199-19.982,2.773c-2.868-3.609-5.569-7.362-8.079-11.234c-9.848-15.106-16.994-32.1-20.866-50.337      c1.41-0.215,2.844-0.454,4.254-0.741c11.521-2.079,22.922-5.306,34.204-8.461c17.114-4.78,34.251-9.465,51.413-14.054      c38.434-10.278,77.012-20.078,115.685-29.375c2.868-0.693,5.736-1.362,8.604-2.056c0.048,2.151,0.072,4.326,0.072,6.501      c0,6.238-0.239,12.429-0.717,18.548c-16.707,4.207-33.319,8.7-49.333,14.7C443.459,290.274,439.73,292.329,439.826,295.723z"/>
				<path style="fill:#FF8933;" d="M455.482,390.876c0.502-2.725,0.598-5.306-1.482-7.386c-1.362-1.362-3.298-2.08-5.211-2.127      c-13.576-0.359-26.483,4.613-39.605,7.744c-8.796,2.103-18.237,3.298-26.985,1.625c-5.067-0.98-6.334-7.625-2.031-10.493      c4.948-3.275,10.66-5.641,16.229-7.816c27.63-10.828,55.715-20.269,84.015-29.232      C473.886,360.091,465.473,376.081,455.482,390.876z"/>
			</g>
			<g>
				<path style="fill:#9F6DA4;" d="M147.631,246.366c0,3.394-0.263,6.717-0.789,9.967c-0.645,3.968-1.649,7.816-2.988,11.497      c-1.028,2.82-2.271,5.545-3.681,8.151c-10.54,19.599-31.263,32.937-55.093,32.937c-8.677,0-16.97-1.769-24.475-4.995      c-7.003-2.964-13.337-7.171-18.739-12.381c-3.681-3.49-6.931-7.433-9.656-11.76c-3.37-5.282-5.952-11.114-7.601-17.353      c-1.362-5.115-2.079-10.517-2.079-16.062c0-1.147,0.024-2.27,0.095-3.394c0.168-3.203,0.574-6.358,1.219-9.417      c1.386-6.621,3.8-12.859,7.099-18.524c3.752-6.453,8.629-12.19,14.365-16.922c10.804-8.939,24.667-14.293,39.773-14.293      c7.386,0,14.484,1.291,21.057,3.657c7.529,2.677,14.389,6.764,20.269,11.951c2.414,2.127,4.685,4.422,6.716,6.907      c1.578,1.865,3.035,3.848,4.35,5.904c5.258,8.007,8.7,17.305,9.776,27.32C147.511,241.801,147.631,244.071,147.631,246.366z"/>
				<path style="opacity:0.37;fill:#F3C7D1;" d="M143.854,267.83c-1.028,2.82-2.271,5.545-3.681,8.151l-79.569,27.941      c-7.003-2.964-13.337-7.171-18.739-12.381L143.854,267.83z"/>
				<path style="opacity:0.37;fill:#F3C7D1;" d="M137.472,212.234L22.624,242.972c0.168-3.203,0.574-6.358,1.219-9.417      l109.279-27.224C134.7,208.195,136.158,210.179,137.472,212.234z"/>
				<path style="opacity:0.37;fill:#F3C7D1;" d="M147.631,246.366c0,3.394-0.263,6.717-0.789,9.967L32.209,279.781      c-3.37-5.282-5.952-11.114-7.601-17.353l122.64-22.874C147.511,241.801,147.631,244.071,147.631,246.366z"/>
				<path style="opacity:0.37;fill:#F3C7D1;" d="M126.406,199.423l-95.464,15.608c3.752-6.453,8.629-12.19,14.365-16.922      l60.83-10.636C113.667,190.149,120.526,194.236,126.406,199.423z"/>
			</g>
		</g>
		<g>
			
				<ellipse transform="matrix(0.5348 -0.845 0.845 0.5348 69.0519 267.0211)" style="fill:#FDBC08;" cx="277.024" cy="70.8" rx="36.31" ry="36.31"/>
			<path style="fill:#F3C7D1;" d="M314.697,104.67l-78.389-67.955c-0.634-0.55-0.703-1.518-0.153-2.152l0,0     c0.55-0.634,1.518-0.703,2.152-0.153l78.389,67.955c0.634,0.549,0.703,1.518,0.153,2.152l0,0     C316.299,105.151,315.331,105.22,314.697,104.67z"/>
		</g>
	</g>
	<g>
		<path style="fill:#FFFFFF;" d="M243.809,295.494c-7.776-0.589-15.553-0.738-23.33-0.75c-0.001-0.003-0.002-0.005-0.003-0.008    c3.284-2.982,6.488-6.055,9.467-9.378c0.112-0.124,0.126-0.314,0.025-0.455c-0.117-0.164-0.344-0.201-0.508-0.084    c-3.603,2.578-6.984,5.403-10.285,8.318c-0.13-0.073-0.264-0.137-0.405-0.188c-0.009-3.386-0.044-6.773-0.078-10.159    c-0.097-4.305-0.195-8.611-0.434-12.916c-0.008-0.141-0.121-0.257-0.266-0.266c-0.156-0.008-0.288,0.11-0.297,0.266    c-0.239,4.305-0.337,8.611-0.434,12.916c-0.034,3.353-0.069,6.705-0.078,10.058c-0.161,0.037-0.319,0.084-0.469,0.147    c-1.158-1.247-2.323-2.488-3.521-3.699c-1.828-1.889-3.683-3.756-5.612-5.555c-0.065-0.061-0.166-0.068-0.24-0.013    c-0.083,0.062-0.1,0.18-0.038,0.262c1.577,2.115,3.229,4.163,4.907,6.187c1.062,1.311,2.156,2.593,3.258,3.868    c-0.142,0.218-0.246,0.46-0.323,0.715c-3.361,0.023-6.722,0.06-10.083,0.176c-4.305,0.113-8.611,0.268-12.916,0.559    c-0.104,0.007-0.19,0.09-0.197,0.197c-0.008,0.117,0.08,0.217,0.197,0.225c4.305,0.291,8.611,0.446,12.916,0.559    c3.388,0.117,6.776,0.153,10.164,0.176c0.006,0.013,0.012,0.026,0.018,0.039c-3.187,2.945-6.308,5.964-9.252,9.18    c-0.109,0.119-0.123,0.301-0.024,0.436c0.112,0.154,0.328,0.187,0.482,0.075c3.546-2.594,6.912-5.388,10.213-8.256    c0.169,0.077,0.347,0.137,0.532,0.18c0.021,3.439,0.025,6.877,0.114,10.316c0.079,4.306,0.187,8.611,0.389,12.916    c0.007,0.143,0.122,0.261,0.268,0.268c0.156,0.007,0.288-0.113,0.295-0.268c0.202-4.305,0.31-8.611,0.389-12.916    c0.09-3.472,0.093-6.945,0.115-10.417c0.098-0.036,0.193-0.076,0.286-0.122c1.182,1.319,2.357,2.644,3.573,3.933    c1.826,1.892,3.648,3.787,5.593,5.572c0.124,0.114,0.314,0.128,0.455,0.025c0.16-0.117,0.194-0.342,0.077-0.501    c-1.562-2.128-3.246-4.148-4.926-6.17c-1.16-1.364-2.361-2.692-3.556-4.026c0.046-0.083,0.098-0.162,0.135-0.25    c7.804-0.011,15.607-0.159,23.411-0.75c0.103-0.008,0.187-0.089,0.195-0.195C244.013,295.604,243.926,295.502,243.809,295.494z"/>
	</g>
	<g>
		<path style="fill:#FFFFFF;" d="M393.558,89.378c-6.888-0.521-13.777-0.654-20.665-0.664c-0.001-0.002-0.002-0.005-0.003-0.007    c2.909-2.642,5.748-5.363,8.386-8.307c0.099-0.11,0.112-0.278,0.022-0.403c-0.104-0.145-0.305-0.179-0.45-0.075    c-3.191,2.284-6.187,4.786-9.111,7.368c-0.115-0.065-0.234-0.121-0.359-0.167c-0.008-3-0.038-5.999-0.069-8.999    c-0.086-3.814-0.173-7.627-0.384-11.441c-0.007-0.125-0.107-0.228-0.235-0.235c-0.138-0.008-0.255,0.098-0.263,0.235    c-0.212,3.814-0.298,7.628-0.385,11.441c-0.03,2.97-0.061,5.94-0.069,8.909c-0.143,0.033-0.283,0.074-0.416,0.131    c-1.025-1.105-2.057-2.204-3.119-3.276c-1.62-1.674-3.262-3.327-4.971-4.92c-0.058-0.054-0.147-0.06-0.213-0.012    c-0.073,0.055-0.088,0.159-0.034,0.233c1.397,1.874,2.86,3.687,4.346,5.48c0.941,1.161,1.91,2.297,2.886,3.426    c-0.126,0.193-0.218,0.408-0.287,0.633c-2.977,0.02-5.954,0.053-8.931,0.155c-3.814,0.1-7.628,0.238-11.441,0.495    c-0.092,0.006-0.168,0.08-0.174,0.174c-0.007,0.103,0.071,0.192,0.174,0.2c3.814,0.258,7.627,0.395,11.441,0.495    c3.001,0.104,6.002,0.136,9.003,0.156c0.005,0.012,0.011,0.023,0.016,0.035c-2.823,2.609-5.588,5.283-8.196,8.132    c-0.097,0.105-0.109,0.267-0.022,0.386c0.1,0.136,0.291,0.166,0.427,0.066c3.141-2.297,6.123-4.772,9.046-7.313    c0.15,0.068,0.307,0.122,0.471,0.159c0.018,3.046,0.022,6.092,0.102,9.138c0.07,3.814,0.165,7.627,0.345,11.441    c0.006,0.127,0.108,0.232,0.237,0.238c0.138,0.007,0.255-0.1,0.261-0.238c0.179-3.814,0.275-7.627,0.345-11.441    c0.08-3.076,0.083-6.152,0.102-9.228c0.087-0.032,0.17-0.067,0.253-0.108c1.047,1.168,2.088,2.342,3.165,3.483    c1.617,1.676,3.232,3.354,4.954,4.936c0.109,0.101,0.278,0.114,0.403,0.022c0.141-0.104,0.172-0.302,0.068-0.444    c-1.384-1.885-2.875-3.674-4.363-5.465c-1.028-1.209-2.092-2.384-3.15-3.566c0.04-0.073,0.087-0.143,0.12-0.221    c6.912-0.01,13.825-0.141,20.737-0.664c0.091-0.007,0.166-0.079,0.173-0.173C393.738,89.476,393.661,89.386,393.558,89.378z"/>
	</g>
	<g>
		<path style="fill:#FFFFFF;" d="M213.956,60.865c-6.032-0.457-12.064-0.572-18.095-0.582c-0.001-0.002-0.002-0.004-0.002-0.006    c2.547-2.313,5.033-4.696,7.343-7.274c0.087-0.097,0.098-0.244,0.02-0.353c-0.091-0.127-0.267-0.156-0.394-0.065    c-2.794,2-5.417,4.191-7.978,6.452c-0.101-0.056-0.205-0.106-0.314-0.146c-0.007-2.627-0.034-5.253-0.06-7.88    c-0.076-3.339-0.151-6.679-0.337-10.018c-0.006-0.11-0.094-0.2-0.206-0.206c-0.12-0.007-0.223,0.086-0.23,0.206    c-0.186,3.339-0.261,6.679-0.337,10.018c-0.027,2.601-0.053,5.201-0.06,7.801c-0.125,0.029-0.248,0.065-0.364,0.114    c-0.898-0.967-1.802-1.93-2.731-2.869c-1.418-1.465-2.856-2.913-4.353-4.309c-0.051-0.047-0.129-0.053-0.186-0.01    c-0.064,0.048-0.077,0.139-0.03,0.203c1.223,1.641,2.504,3.229,3.806,4.799c0.823,1.017,1.672,2.011,2.527,3    c-0.11,0.169-0.191,0.357-0.251,0.554c-2.607,0.018-5.214,0.046-7.821,0.136c-3.339,0.088-6.679,0.208-10.018,0.434    c-0.081,0.005-0.147,0.07-0.152,0.153c-0.006,0.09,0.062,0.169,0.152,0.175c3.339,0.226,6.679,0.346,10.018,0.434    c2.628,0.091,5.256,0.119,7.883,0.136c0.005,0.011,0.01,0.02,0.014,0.03c-2.472,2.284-4.893,4.626-7.177,7.121    c-0.084,0.092-0.095,0.234-0.019,0.338c0.087,0.119,0.255,0.145,0.374,0.058c2.75-2.012,5.361-4.179,7.921-6.404    c0.131,0.06,0.269,0.107,0.413,0.139c0.016,2.667,0.019,5.334,0.089,8.001c0.061,3.34,0.145,6.679,0.302,10.018    c0.005,0.111,0.095,0.203,0.208,0.208c0.121,0.006,0.223-0.088,0.229-0.208c0.157-3.34,0.24-6.679,0.302-10.018    c0.07-2.693,0.072-5.387,0.089-8.08c0.076-0.027,0.149-0.059,0.222-0.094c0.917,1.023,1.828,2.051,2.771,3.05    c1.416,1.467,2.83,2.937,4.338,4.322c0.096,0.088,0.244,0.1,0.353,0.02c0.124-0.091,0.151-0.265,0.06-0.389    c-1.212-1.651-2.517-3.217-3.821-4.785c-0.9-1.058-1.832-2.088-2.758-3.123c0.035-0.064,0.076-0.125,0.105-0.194    c6.053-0.008,12.106-0.124,18.158-0.582c0.08-0.006,0.145-0.069,0.151-0.151C214.114,60.95,214.046,60.871,213.956,60.865z"/>
	</g>
	<g>
		<path style="fill:#FDBC08;" d="M136.658,181.678c0,2.865-2.322,5.187-5.187,5.187s-5.187-2.323-5.187-5.187    c0-2.865,2.322-5.187,5.187-5.187S136.658,178.813,136.658,181.678z"/>
		<path style="fill:#FDBC08;" d="M136.353,157.573c0,2.865-2.323,5.187-5.187,5.187c-2.865,0-5.187-2.323-5.187-5.187    c0-2.865,2.323-5.187,5.187-5.187C134.03,152.386,136.353,154.708,136.353,157.573z"/>
		<path style="fill:#FDBC08;" d="M171.443,163.981c0,3.202-2.596,5.797-5.797,5.797c-3.202,0-5.798-2.595-5.798-5.797    s2.596-5.797,5.798-5.797C168.847,158.183,171.443,160.779,171.443,163.981z"/>
	</g>
	<g>
		<path style="fill:#F3C7D1;" d="M231.858,106.922c0,2.359-1.913,4.272-4.272,4.272c-2.359,0-4.272-1.913-4.272-4.272    c0-2.359,1.913-4.272,4.272-4.272C229.946,102.65,231.858,104.562,231.858,106.922z"/>
		<path style="fill:#F3C7D1;" d="M343.536,54.439c0,2.359-1.913,4.272-4.272,4.272c-2.359,0-4.272-1.912-4.272-4.272    s1.913-4.272,4.272-4.272C341.623,50.167,343.536,52.08,343.536,54.439z"/>
		<path style="fill:#F3C7D1;" d="M343.536,122.178c0,2.359-1.913,4.272-4.272,4.272c-2.359,0-4.272-1.913-4.272-4.272    c0-2.359,1.913-4.272,4.272-4.272C341.623,117.906,343.536,119.819,343.536,122.178z"/>
		<circle style="fill:#F3C7D1;" cx="423.479" cy="98.378" r="4.272"/>
		<path style="fill:#F3C7D1;" d="M55.494,152.691c0,2.359-1.913,4.272-4.272,4.272c-2.359,0-4.272-1.912-4.272-4.272    s1.913-4.272,4.272-4.272C53.581,148.419,55.494,150.332,55.494,152.691z"/>
		<circle style="fill:#F3C7D1;" cx="179.681" cy="451.412" r="4.272"/>
		<path style="fill:#F3C7D1;" d="M165.95,259.486c0,2.359-1.912,4.272-4.272,4.272s-4.272-1.913-4.272-4.272    c0-2.359,1.912-4.272,4.272-4.272S165.95,257.127,165.95,259.486z"/>
		<path style="fill:#F3C7D1;" d="M253.828,240.568c0,2.359-1.913,4.272-4.272,4.272c-2.359,0-4.272-1.913-4.272-4.272    c0-2.359,1.913-4.272,4.272-4.272C251.915,236.296,253.828,238.209,253.828,240.568z"/>
		<g>
			<path style="fill:#FDBC08;" d="M303.564,154.522c0,2.865-2.322,5.187-5.187,5.187s-5.187-2.323-5.187-5.187     c0-2.865,2.322-5.187,5.187-5.187S303.564,151.657,303.564,154.522z"/>
			<path style="fill:#FF8933;" d="M264.812,182.593c0,2.696-2.186,4.882-4.882,4.882s-4.882-2.186-4.882-4.882     c0-2.696,2.186-4.882,4.882-4.882S264.812,179.897,264.812,182.593z"/>
			<path style="fill:#FF8933;" d="M266.643,149.029c0,2.696-2.186,4.882-4.882,4.882c-2.696,0-4.882-2.186-4.882-4.882     c0-2.696,2.186-4.882,4.882-4.882C264.457,144.147,266.643,146.333,266.643,149.029z"/>
			<circle style="fill:#F3C7D1;" cx="279.458" cy="140.486" r="4.272"/>
			<path style="fill:#F3C7D1;" d="M283.12,164.286c0,2.359-1.913,4.272-4.272,4.272c-2.359,0-4.272-1.913-4.272-4.272     c0-2.359,1.913-4.272,4.272-4.272C281.207,160.014,283.12,161.927,283.12,164.286z"/>
		</g>
		<g>
			<path style="fill:#FDBC08;" d="M380.662,440.986c-1.055,2.664-4.069,3.968-6.732,2.914c-2.664-1.055-3.968-4.069-2.914-6.732     c1.054-2.664,4.069-3.968,6.732-2.914C380.412,435.309,381.717,438.323,380.662,440.986z"/>
			<path style="fill:#FF8933;" d="M334.299,452.824c-0.992,2.507-3.829,3.735-6.336,2.742c-2.507-0.992-3.735-3.829-2.742-6.336     c0.992-2.507,3.829-3.735,6.336-2.742C334.064,447.48,335.291,450.317,334.299,452.824z"/>
			<path style="fill:#FF8933;" d="M348.355,422.29c-0.992,2.507-3.829,3.735-6.336,2.742c-2.507-0.992-3.735-3.829-2.742-6.336     c0.992-2.507,3.829-3.735,6.336-2.742C348.12,416.946,349.348,419.783,348.355,422.29z"/>
			<path style="fill:#F3C7D1;" d="M367.388,420.636c-0.868,2.194-3.351,3.268-5.544,2.4c-2.194-0.868-3.268-3.351-2.4-5.544     c0.868-2.194,3.351-3.268,5.544-2.4C367.182,415.96,368.256,418.442,367.388,420.636z"/>
			<path style="fill:#F3C7D1;" d="M358.06,442.54c-0.868,2.193-3.351,3.268-5.544,2.4c-2.193-0.868-3.268-3.351-2.4-5.544     s3.351-3.268,5.544-2.4S358.928,440.347,358.06,442.54z"/>
		</g>
		<g>
			<path style="fill:#FDBC08;" d="M164.994,336.335c-2.404,1.559-5.616,0.874-7.175-1.529c-1.559-2.403-0.875-5.616,1.529-7.175     c2.404-1.559,5.616-0.874,7.175,1.529C168.082,331.564,167.398,334.776,164.994,336.335z"/>
			<path style="fill:#FDBC08;" d="M185.051,322.961c-2.404,1.559-5.616,0.874-7.175-1.529c-1.559-2.404-0.874-5.616,1.529-7.175     c2.404-1.559,5.616-0.875,7.175,1.529C188.139,318.19,187.455,321.402,185.051,322.961z"/>
			<path style="fill:#FDBC08;" d="M198.771,355.887c-2.686,1.742-6.276,0.977-8.019-1.709c-1.742-2.686-0.977-6.276,1.709-8.019     c2.686-1.742,6.276-0.977,8.019,1.709C202.222,350.555,201.457,354.145,198.771,355.887z"/>
		</g>
	</g>
</g>















</svg>
