<?xml version="1.0" encoding="UTF-8"?>
<!-- Generator: Adobe Illustrator 27.3.1, SVG Export Plug-In . SVG Version: 6.00 Build 0)  -->
<svg xmlns="http://www.w3.org/2000/svg" xmlns:xlink="http://www.w3.org/1999/xlink" version="1.1" id="Capa_1" x="0px" y="0px" viewBox="0 0 512 512" style="enable-background:new 0 0 512 512;" xml:space="preserve" width="512" height="512">
<g>
	<path style="fill:#FFFFFF;" d="M184.314,470.927c-12.724,0-25.419-1.438-37.729-4.277c-39.953-9.207-77.152-32.9-104.742-66.718   c-23.992-29.407-38.683-64.461-41.367-98.706c-2.872-36.631,7.259-75.915,29.301-113.604c2.164-3.702,4.59-7.576,7.364-11.754   l-3.255-67.859c-0.232-4.839,2.097-9.444,6.131-12.124c36.286-24.105,76.788-36.327,120.381-36.327   c8.844,0,17.81,0.522,26.701,1.553c0.603-0.22,1.207-0.435,1.816-0.641c35.009-11.864,76.128-18.399,115.784-18.399   c12.453,0,24.741,0.651,36.549,1.936c30.241-2.549,58.152-2.934,72.214-2.934c5.568,0,8.757,0.061,8.757,0.061   c6.264,0.12,11.659,4.456,13.122,10.548l6.072,25.285c19.87,12.934,35.739,29.241,47.227,48.545   c29.648,49.815,31.177,119.057,3.994,173.039c-0.366,1.186-0.894,2.328-1.578,3.39c-0.232,0.361-0.479,0.708-0.742,1.043   c-18.335,33.873-46.13,57.529-80.514,68.487c-9.31,2.966-18.699,4.838-27.779,6.648c-11.246,2.241-21.868,4.358-31.544,8.328   c-16.816,6.893-30.987,19.407-45.99,32.653c-10.772,9.51-21.911,19.346-34.541,27.452c-24.844,15.946-54.454,24.376-85.629,24.376   C184.317,470.927,184.315,470.927,184.314,470.927z"/>
	<g>
		<g>
			<g>
				<path style="fill:#977BFF;" d="M181.917,77.934C123.993,100.302,72.96,141.308,41.636,194.871      c-18.644,31.881-30.347,68.761-27.46,105.581c2.614,33.345,17.166,65.164,38.31,91.08c24.736,30.319,59.039,53.22,97.169,62.007      s79.905,2.867,112.834-18.27c28.991-18.609,50.87-48.189,82.744-61.259c19.234-7.887,40.558-9.042,60.365-15.355      c89.764-28.607,115.993-150.527,71.193-225.806C423.67,43.59,279.375,44.638,193.31,73.806      C189.485,75.102,185.686,76.478,181.917,77.934z"/>
			</g>
			<g>
				<g>
					<g>
						<g>
							<path style="fill:#F7EDE5;" d="M479.461,294.79l-1.776,0.342l-2.482,0.471c-0.021-0.021-0.064-0.021-0.085,0         c-0.022,0-0.022,0-0.043,0l-2.524,0.513c-0.021,0-0.043,0-0.064,0.021l-2.246,0.471c-0.022-0.021-0.022-0.021-0.043,0         c-0.021-0.021-0.021-0.021-0.043,0c-0.021-0.021-0.021-0.021-0.043,0l-6.161,1.177c-0.043,0-0.064,0-0.107,0.021         l-180.274,34.87l-0.963-1.112l-0.77-0.877l-2.61-2.995l-0.727-0.834l-3.38-3.893l-0.727-0.834l-2.781-3.209l-0.727-0.834         l-0.663-0.749l-0.171-0.214l-0.342-0.385l-0.021-0.021l-0.278-0.342l-0.342-0.385l-0.064-0.064l-0.107,0.022l-0.941,0.15         l-0.299,0.043l-0.449,0.086l-0.407,0.064l-0.171,0.022l-2.439,0.406l-1.305,0.214L68.662,348.614l-2.588,0.428l-1.733,0.278         l-1.776,0.3l-1.027,0.171l-0.963,0.15l-1.305,0.214c-0.021,0-0.021,0-0.021,0l-0.107-2.118L47.611,107.649         c87.688-58.252,176.68-24.965,186.906-20.815c0.642,0.257,0.984,0.406,0.984,0.406c0.235-0.257,0.492-0.513,0.749-0.727         c34.955-34.185,185.686-31.318,185.686-31.318l54.444,226.717l0.235,1.048l2.139,8.856l0.257,1.07l0.128,0.556v0.021         L479.461,294.79z"/>
						</g>
						<g>
							<g>
								<g>
									<g>
										<path style="fill:#302945;" d="M270.05,315.755c0.021,0.193,0,0.385-0.043,0.556c-0.021,0-0.021,0-0.021,0            c0,0.064-0.043,0.107-0.064,0.15c-0.064,0.107-0.128,0.193-0.235,0.257l-0.278-0.342l-0.342-0.385            c-0.064-0.021-0.107-0.043-0.171-0.043l-0.941,0.15l-0.299,0.043l-0.449,0.086c-0.128-0.064-0.278-0.128-0.428-0.214            c-1.241-0.577-3.166-1.412-5.712-2.417c-0.021,0-0.064-0.021-0.085-0.021c-15.937-6.204-56.369-18.055-113.23-7.338            c-63.065,11.873-82.168,35.619-86.447,42.443c-0.321,0.535-0.578,0.963-0.727,1.262l-1.305,0.214            c-0.021,0-0.021,0-0.021,0l-0.107-2.118c3.893-6.717,22.312-31.49,88.222-43.919            c66.509-12.515,110.877,5.584,120.29,9.948L234.432,87.412c-0.021-0.214,0-0.406,0.086-0.578            c0.128-0.342,0.449-0.578,0.834-0.642c0.342-0.043,0.684,0.086,0.898,0.321c0.15,0.15,0.257,0.342,0.299,0.578            l33.287,227.23L270.05,315.755z"/>
									</g>
								</g>
								<g>
									<g>
										<path style="fill:#302945;" d="M479.461,294.79l-1.776,0.342c-1.283-0.577-3.508-1.561-6.632-2.738            c-1.048-0.385-2.225-0.792-3.487-1.219c-8.814-3.016-22.505-6.653-40.025-8.257c-2.289-0.214-4.642-0.385-7.06-0.513            c-13.221-0.706-28.345-0.214-44.988,2.524c-58.166,9.541-99.582,28.837-105.336,31.618c0,0,0,0-0.021,0            c-0.193,0.086-0.321,0.15-0.428,0.193l-0.021-0.021l-0.278-0.342l-0.342-0.385c-0.064-0.021-0.107-0.043-0.171-0.043            l-0.941,0.15c-0.043-0.15-0.021-0.299,0.022-0.428v-0.021c0.064-0.278,0.257-0.535,0.535-0.685            c0.043-0.022,0.492-0.235,1.326-0.642c7.723-3.658,48.625-22.227,105.315-31.511c22.655-3.701,42.528-3.359,58.701-1.327            c1.968,0.214,3.893,0.492,5.755,0.792c16.665,2.567,28.794,6.717,35.191,9.284c1.155,0.471,2.118,0.877,2.888,1.241            c0.599,0.257,1.091,0.47,1.455,0.642v0.021L479.461,294.79z"/>
									</g>
								</g>
								<g>
									<g>
										<g>
											<path style="fill:#302945;" d="M439.607,282.276c-3.979,0.128-8.001,0.342-12.065,0.642             c-16.066,1.091-32.709,3.273-49.844,6.525c-37.95,7.188-74.788,18.868-106.085,29.479l-0.727-0.834             c31.404-10.696,68.434-22.419,106.62-29.671c14.697-2.781,29.03-4.792,42.978-6.011c4.514-0.385,8.964-0.706,13.37-0.92             C435.82,281.698,437.746,281.977,439.607,282.276z"/>
										</g>
									</g>
									<g>
										<g>
											<path style="fill:#302945;" d="M477.685,292.801c-2.203-0.15-4.428-0.3-6.632-0.407             c-66.723-3.573-133.938,6.867-195.933,30.57l-0.727-0.834c61.118-23.425,127.349-33.971,193.174-30.955             c2.417,0.107,4.813,0.235,7.231,0.385C475.953,292.031,476.915,292.437,477.685,292.801z"/>
										</g>
									</g>
									<g>
										<g>
											<path style="fill:#302945;" d="M475.075,295.603l-2.524,0.513c-0.021,0-0.043,0-0.064,0.021l-2.246,0.471             c-0.022-0.021-0.022-0.021-0.043,0c-0.021-0.021-0.021-0.021-0.043,0c-0.021-0.021-0.021-0.021-0.043,0             c-1.433-0.043-2.845-0.021-4.257,0h-0.021c-63.364,0.299-127.135,10.889-186.606,31.083l-0.727-0.834             C341.073,305.529,408.417,294.855,475.075,295.603z"/>
										</g>
									</g>
								</g>
								<g>
									<g>
										<path style="fill:#302945;" d="M472.487,296.138l-2.246,0.471c-0.022-0.021-0.022-0.021-0.043,0            c-0.021-0.021-0.021-0.021-0.043,0c-0.021-0.021-0.021-0.021-0.043,0l-6.161,1.177c-0.043,0-0.064,0-0.107,0.021            c-56.112,4.45-114.514,15.339-181.237,33.758l-0.77-0.877c67.835-18.718,127.071-29.735,183.996-34.078h0.021            C468.059,296.438,470.262,296.267,472.487,296.138z"/>
									</g>
								</g>
							</g>
							<g>
								<g>
									<path style="fill:#302945;" d="M268.895,315.948l-0.941,0.15l-0.299,0.043l-0.449,0.086l-0.407,0.064l-0.171,0.022           c-0.086-0.022-0.15-0.043-0.235-0.064c-0.535-0.171-1.091-0.342-1.626-0.513c-34.057-10.161-70.424-12.472-105.486-6.61           c-35.126,5.861-68.841,19.874-97.742,40.667l-0.963,0.15l-1.305,0.214c0.663-0.513,1.348-1.006,2.033-1.476           c28.965-20.729,62.658-34.72,97.806-40.581c33.821-5.648,68.841-3.744,101.871,5.476c0.021,0,0.064,0.021,0.085,0.021           c2.31,0.642,4.621,1.326,6.91,2.054v0.021C268.296,315.755,268.596,315.841,268.895,315.948z"/>
								</g>
								<g>
									<path style="fill:#302945;" d="M270.179,316.589c0.022,0.107,0.043,0.214,0,0.321c-0.021,0.086-0.064,0.15-0.128,0.214           l-0.342-0.385l-0.021-0.021l-0.278-0.342l-0.342-0.385c0.257,0.085,0.535,0.171,0.791,0.257           c0.043,0.021,0.086,0.043,0.128,0.064c0,0,0,0,0.021,0c0.064,0.064,0.129,0.15,0.15,0.235           C270.157,316.546,270.179,316.546,270.179,316.589z"/>
								</g>
							</g>
							<g>
								<g>
									<path style="fill:#302945;" d="M267.654,316.14l-0.449,0.086l-0.407,0.064l-0.171,0.022l-2.439,0.406           c-5.712-0.77-11.445-1.391-17.178-1.84c-60.198-4.942-121.423,6.118-176.103,31.832c-1.604,0.749-3.23,1.519-4.835,2.332           l-1.733,0.278l-1.776,0.3c62.081-31.19,133.318-43.127,202.201-33.886c0.663,0.086,1.348,0.171,2.011,0.278           C267.077,316.033,267.355,316.076,267.654,316.14z"/>
								</g>
								<g>
									<path style="fill:#302945;" d="M270.371,317.06c-0.021,0.107-0.064,0.214-0.15,0.278l-0.171-0.214l-0.342-0.385           l-0.021-0.021l-0.278-0.342c0.171,0.022,0.342,0.064,0.513,0.086h0.021c0.085,0.021,0.15,0.043,0.193,0.085           c0.021,0,0.021,0,0.021,0s0.021,0,0.021,0.043C270.328,316.675,270.393,316.846,270.371,317.06z"/>
								</g>
							</g>
							<g>
								<g>
									<path style="fill:#302945;" d="M266.799,316.29l-0.171,0.022l-2.439,0.406l-1.305,0.214           c-27.425-2.631-57.182-0.749-90.725,5.712c-31.639,6.097-67.621,14.975-98.726,24.366c-1.754,0.535-3.316,1.07-4.771,1.604           l-2.588,0.428l-1.733,0.278c1.968-0.92,4.086-1.776,6.567-2.61c0.706-0.235,1.455-0.471,2.225-0.706           c31.147-9.391,67.151-18.269,98.833-24.387c27.233-5.263,51.984-7.487,75.045-6.739c6.589,0.214,13.049,0.663,19.382,1.369           C266.52,316.247,266.67,316.268,266.799,316.29z"/>
								</g>
							</g>
						</g>
						<g>
							<g>
								<g>
									<path style="fill:#302945;" d="M268.996,151.505c-0.221,0-0.428-0.139-0.505-0.36c-0.098-0.279,0.05-0.584,0.329-0.681           c0.772-0.27,78.13-26.923,150.234-21.876c0.295,0.02,0.517,0.276,0.496,0.57c-0.02,0.295-0.283,0.512-0.57,0.496           c-71.871-5.038-149.038,21.55-149.808,21.82C269.114,151.495,269.054,151.505,268.996,151.505z"/>
								</g>
								<g>
									<path style="fill:#302945;" d="M271.314,163.125c-0.221,0-0.428-0.139-0.505-0.359c-0.097-0.279,0.051-0.584,0.329-0.681           c0.773-0.27,78.132-26.925,150.233-21.876c0.295,0.02,0.517,0.275,0.496,0.57c-0.02,0.295-0.27,0.514-0.57,0.496           c-71.891-5.034-149.037,21.55-149.807,21.82C271.431,163.115,271.372,163.125,271.314,163.125z"/>
								</g>
								<g>
									<path style="fill:#302945;" d="M273.631,174.744c-0.221,0-0.428-0.139-0.505-0.36c-0.097-0.279,0.05-0.584,0.329-0.681           c0.773-0.27,78.131-26.927,150.233-21.876c0.295,0.02,0.518,0.276,0.496,0.57c-0.02,0.295-0.285,0.518-0.57,0.496           c-71.886-5.028-149.035,21.55-149.807,21.82C273.749,174.734,273.689,174.744,273.631,174.744z"/>
								</g>
								<g>
									<path style="fill:#302945;" d="M275.949,186.363c-0.221,0-0.428-0.139-0.505-0.36c-0.097-0.279,0.05-0.583,0.329-0.681           c0.773-0.27,78.132-26.928,150.233-21.876c0.295,0.02,0.518,0.275,0.496,0.57c-0.02,0.295-0.272,0.522-0.57,0.496           c-71.894-5.037-149.036,21.55-149.807,21.82C276.066,186.353,276.007,186.363,275.949,186.363z"/>
								</g>
								<g>
									<path style="fill:#302945;" d="M278.265,197.982c-0.221,0-0.428-0.139-0.505-0.36c-0.097-0.279,0.05-0.584,0.329-0.681           c0.772-0.27,78.123-26.93,150.233-21.876c0.295,0.02,0.517,0.276,0.496,0.57c-0.02,0.294-0.284,0.525-0.57,0.496           c-71.889-5.038-149.036,21.55-149.807,21.82C278.383,197.972,278.323,197.982,278.265,197.982z"/>
								</g>
								<g>
									<path style="fill:#302945;" d="M280.582,209.601c-0.221,0-0.428-0.139-0.505-0.36c-0.097-0.279,0.05-0.584,0.329-0.681           c0.773-0.269,78.134-26.931,150.233-21.876c0.295,0.02,0.518,0.275,0.496,0.57c-0.02,0.295-0.272,0.529-0.57,0.496           c-71.885-5.035-149.036,21.55-149.807,21.82C280.7,209.591,280.641,209.601,280.582,209.601z"/>
								</g>
								<g>
									<path style="fill:#302945;" d="M282.9,221.219c-0.221,0-0.428-0.139-0.505-0.359c-0.097-0.279,0.05-0.584,0.329-0.681           c0.773-0.269,78.135-26.919,150.233-21.876c0.295,0.02,0.517,0.276,0.496,0.57c-0.02,0.295-0.287,0.506-0.57,0.496           c-71.894-5.033-149.035,21.551-149.807,21.82C283.018,221.209,282.958,221.219,282.9,221.219z"/>
								</g>
								<g>
									<path style="fill:#302945;" d="M285.216,232.838c-0.221,0-0.428-0.139-0.505-0.36c-0.097-0.279,0.05-0.584,0.329-0.681           c0.772-0.271,78.126-26.934,150.233-21.876c0.295,0.02,0.518,0.276,0.496,0.57c-0.02,0.295-0.273,0.511-0.57,0.496           c-71.889-5.032-149.037,21.55-149.807,21.82C285.334,232.828,285.275,232.838,285.216,232.838z"/>
								</g>
								<g>
									<path style="fill:#302945;" d="M287.534,244.457c-0.221,0-0.428-0.139-0.505-0.36c-0.098-0.279,0.05-0.584,0.329-0.681           c0.772-0.27,78.127-26.936,150.233-21.876c0.295,0.02,0.517,0.275,0.496,0.57c-0.02,0.295-0.287,0.514-0.57,0.496           c-71.885-5.042-149.037,21.55-149.807,21.82C287.651,244.447,287.592,244.457,287.534,244.457z"/>
								</g>
								<g>
									<path style="fill:#302945;" d="M289.851,256.076c-0.221,0-0.428-0.139-0.505-0.36c-0.098-0.279,0.05-0.584,0.329-0.681           c0.773-0.27,78.138-26.923,150.233-21.876c0.295,0.02,0.517,0.276,0.496,0.57c-0.019,0.294-0.274,0.517-0.57,0.496           c-71.894-5.029-149.035,21.55-149.807,21.82C289.969,256.066,289.91,256.076,289.851,256.076z"/>
								</g>
								<g>
									<path style="fill:#302945;" d="M292.169,267.695c-0.221,0-0.428-0.139-0.505-0.36c-0.098-0.279,0.05-0.584,0.329-0.681           c0.773-0.27,78.14-26.925,150.233-21.876c0.295,0.02,0.517,0.275,0.496,0.57c-0.02,0.295-0.289,0.522-0.57,0.496           c-71.891-5.04-149.037,21.55-149.807,21.82C292.286,267.685,292.227,267.695,292.169,267.695z"/>
								</g>
								<g>
									<path style="fill:#302945;" d="M294.485,279.315c-0.221,0-0.428-0.139-0.505-0.36c-0.097-0.279,0.05-0.584,0.329-0.681           c0.773-0.27,78.131-26.928,150.233-21.876c0.295,0.02,0.518,0.276,0.496,0.57c-0.019,0.294-0.276,0.524-0.57,0.496           c-71.875-5.023-149.035,21.55-149.807,21.82C294.603,279.305,294.543,279.315,294.485,279.315z"/>
								</g>
							</g>
							<g>
								<g>
									<path style="fill:#302945;" d="M332.719,128.928c-15.956,0-28.937-12.98-28.937-28.936s12.981-28.937,28.937-28.937           c15.956,0,28.936,12.981,28.936,28.937S348.675,128.928,332.719,128.928z M332.719,72.125           c-15.367,0-27.868,12.502-27.868,27.868c0,15.366,12.501,27.867,27.868,27.867c15.366,0,27.867-12.502,27.867-27.867           C360.586,84.626,348.084,72.125,332.719,72.125z"/>
								</g>
								<g>
									<path style="fill:#302945;" d="M320.521,126.38c-0.084,0-0.169-0.019-0.247-0.061c-0.207-0.107-0.32-0.338-0.279-0.568           l3.196-17.97l-19.065-7.29c-0.219-0.084-0.358-0.302-0.342-0.539c0.017-0.235,0.186-0.431,0.417-0.483l21.318-4.777           l4.125-23.197c0.04-0.226,0.222-0.402,0.45-0.436c0.222-0.035,0.45,0.084,0.555,0.29l9.979,19.958l18.01-4.036           c0.222-0.057,0.47,0.056,0.586,0.264c0.114,0.209,0.077,0.468-0.092,0.636l-13.402,13.339l8.588,17.174           c0.099,0.198,0.066,0.436-0.082,0.599c-0.148,0.162-0.379,0.217-0.588,0.14l-18.725-7.16l-14.024,13.958           C320.795,126.328,320.659,126.38,320.521,126.38z M324.207,108.171l-2.863,16.102l12.482-12.424L324.207,108.171z            M335.753,111.44l16.992,6.497l-7.815-15.63L335.753,111.44z M324.398,107.099l10.26,3.923l9.768-9.723l-4.382-8.764           l-13.598,3.047L324.398,107.099z M306.164,100.127l17.216,6.582l1.935-10.873L306.164,100.127z M341.12,92.294l4.105,8.21           l11.84-11.784L341.12,92.294z M330.414,73.274l-3.765,21.167l12.902-2.891L330.414,73.274z"/>
								</g>
							</g>
						</g>
					</g>
					<g>
						<g>
							<g>
								<g>
									<path style="fill:#9DD1A9;" d="M149.557,264.411c-0.213-22.106-15.21-41.285-19.863-62.897           c-3.151-14.635-1.435-29.891,1.584-44.553c3.699-17.966,9.507-35.869,20.334-50.676           c10.049,27.578,17.379,56.973,13.686,86.091C162.255,216.377,151.964,240.338,149.557,264.411z"/>
								</g>
								<g style="opacity:0.41;">
									<path style="fill:#302945;" d="M149.557,264.411c-0.213-22.106-15.21-41.285-19.863-62.897           c-3.151-14.635-1.435-29.891,1.584-44.553c3.699-17.966,9.507-35.869,20.334-50.676           c10.049,27.578,17.379,56.973,13.686,86.091C162.255,216.377,151.964,240.338,149.557,264.411z"/>
								</g>
								<g>
									<path style="fill:#302945;" d="M148.329,284.975c-0.017,0-0.032-0.001-0.049-0.002c-0.308-0.027-0.537-0.298-0.51-0.606           c0.022-0.258,2.23-25.964,3.721-42.148c0.302-3.281,0.821-7.906,1.423-13.26c2.374-21.145,6.346-56.535,4.293-75.711           c-2.545-23.758-6.114-46.648-6.149-46.876c-0.048-0.305,0.161-0.591,0.467-0.64c0.294-0.055,0.59,0.16,0.64,0.467           c0.036,0.229,3.608,23.142,6.156,46.93c2.067,19.297-1.915,54.764-4.293,75.954c-0.6,5.348-1.119,9.969-1.42,13.239           c-1.491,16.18-3.699,41.884-3.721,42.142C148.862,284.754,148.616,284.975,148.329,284.975z"/>
								</g>
							</g>
							<g>
								<g>
									<path style="fill:#9DD1A9;" d="M144.995,268.486c11.232-19.042,8.289-43.209,15.463-64.121           c4.858-14.16,14.204-26.34,24.359-37.338c12.444-13.477,26.662-25.81,43.579-32.901           c-5.632,28.807-14.532,57.765-32.729,80.796C180.67,233.905,159.486,249.112,144.995,268.486z"/>
								</g>
								<g style="opacity:0.41;">
									<path style="fill:#302945;" d="M144.995,268.486c11.232-19.042,8.289-43.209,15.463-64.121           c4.858-14.16,14.204-26.34,24.359-37.338c12.444-13.477,26.662-25.81,43.579-32.901           c-5.632,28.807-14.532,57.765-32.729,80.796C180.67,233.905,159.486,249.112,144.995,268.486z"/>
								</g>
								<g>
									<path style="fill:#302945;" d="M133.615,285.543c-0.114,0-0.23-0.035-0.329-0.106c-0.25-0.183-0.306-0.532-0.124-0.783           c0.152-0.209,15.316-21.084,24.949-34.174c1.955-2.657,4.791-6.353,8.074-10.633c12.947-16.88,34.617-45.132,42.757-62.61           c10.088-21.662,18.85-43.107,18.938-43.321c0.117-0.288,0.441-0.422,0.73-0.307c0.286,0.117,0.423,0.444,0.307,0.73           c-0.087,0.214-8.86,21.683-18.96,43.37c-8.191,17.59-29.908,45.903-42.883,62.819c-3.28,4.275-6.111,7.969-8.059,10.615           c-9.632,13.088-24.793,33.96-24.946,34.17C133.959,285.462,133.787,285.543,133.615,285.543z"/>
								</g>
							</g>
							<g>
								<g>
									<path style="fill:#9DD1A9;" d="M151.983,267.708c-11.172-19.077-33.718-28.264-48.498-44.705           c-10.008-11.133-16.102-25.224-20.77-39.448c-5.72-17.429-9.579-35.85-7.543-54.08           c22.427,18.936,43.397,40.799,54.666,67.902C139.127,219.717,142.107,245.623,151.983,267.708z"/>
								</g>
								<g style="opacity:0.41;">
									<path style="fill:#302945;" d="M151.983,267.708c-11.172-19.077-33.718-28.264-48.498-44.705           c-10.008-11.133-16.102-25.224-20.77-39.448c-5.72-17.429-9.579-35.85-7.543-54.08           c22.427,18.936,43.397,40.799,54.666,67.902C139.127,219.717,142.107,245.623,151.983,267.708z"/>
								</g>
								<g>
									<path style="fill:#302945;" d="M160.86,286.237c-0.21,0-0.413-0.12-0.507-0.325c-0.11-0.234-10.97-23.639-17.722-38.423           c-1.369-2.999-3.218-7.272-5.359-12.22c-8.449-19.526-22.59-52.206-33.902-67.823           c-14.017-19.351-28.49-37.439-28.634-37.62c-0.194-0.242-0.154-0.595,0.086-0.787c0.242-0.194,0.591-0.155,0.787,0.086           c0.145,0.181,14.634,18.29,28.668,37.665c11.384,15.716,25.555,48.468,34.022,68.035c2.139,4.943,3.986,9.212,5.351,12.199           c6.75,14.782,17.609,38.183,17.718,38.418c0.131,0.28,0.009,0.613-0.272,0.743           C161.019,286.22,160.94,286.237,160.86,286.237z"/>
								</g>
							</g>
							<g>
								<g>
									<path style="fill:#9DD1A9;" d="M151.4,268.586c-7.154-20.918-27.422-34.406-38.636-53.459           c-7.593-12.901-10.763-27.923-12.508-42.791c-2.139-18.218-2.256-37.039,3.365-54.5           c18.213,23.018,34.414,48.617,40.067,77.419C148.347,218.996,146.115,244.978,151.4,268.586z"/>
								</g>
								<g>
									<path style="fill:#302945;" d="M156.525,288.522c-0.254,0-0.484-0.172-0.544-0.43c-0.061-0.252-6.05-25.349-9.724-41.181           c-0.746-3.211-1.708-7.768-2.822-13.044c-4.396-20.816-11.754-55.655-19.733-73.21           c-9.889-21.752-20.473-42.359-20.58-42.564c-0.141-0.276-0.033-0.613,0.242-0.755c0.277-0.137,0.613-0.03,0.755,0.242           c0.105,0.206,10.701,20.835,20.602,42.613c8.03,17.667,15.404,52.582,19.809,73.443c1.113,5.269,2.074,9.821,2.817,13.021           c3.674,15.828,9.662,40.922,9.721,41.174c0.072,0.301-0.113,0.603-0.414,0.674           C156.612,288.518,156.568,288.522,156.525,288.522z"/>
								</g>
							</g>
							<g>
								<g>
									<path style="fill:#9DD1A9;" d="M145.999,269.284c8.222-20.522,1.658-43.966,5.586-65.722           c2.66-14.732,10.056-28.185,18.431-40.593c10.262-15.204,22.45-29.546,38.1-39.114c-1.21,29.327-5.627,59.298-20.13,84.816           C176.032,229.705,157.392,247.942,145.999,269.284z"/>
								</g>
								<g>
									<path style="fill:#302945;" d="M137.245,287.874c-0.087,0-0.175-0.02-0.257-0.063c-0.276-0.141-0.383-0.479-0.241-0.754           c0.119-0.231,11.95-23.159,19.491-37.557c1.529-2.92,3.771-6.999,6.368-11.724c10.247-18.645,27.395-49.854,32.799-68.366           c6.695-22.938,12.113-45.462,12.167-45.687c0.072-0.3,0.361-0.49,0.676-0.413c0.3,0.072,0.486,0.374,0.413,0.675           c-0.054,0.225-5.477,22.774-12.18,45.738c-5.438,18.631-22.624,49.905-32.893,68.592           c-2.593,4.719-4.832,8.794-6.357,11.704c-7.539,14.394-19.37,37.321-19.489,37.55           C137.644,287.763,137.448,287.874,137.245,287.874z"/>
								</g>
							</g>
							<g>
								<path style="fill:#FFFFFF;" d="M174.255,239.326c-0.016,0-0.031,0-0.047-0.001l-55.761-2.287          c-0.576-0.023-1.041-0.48-1.072-1.056c-0.033-0.576,0.377-1.082,0.948-1.169l56.658-8.699l-71.528-1.989          c-0.588-0.017-1.063-0.486-1.088-1.073c-0.025-0.588,0.41-1.096,0.995-1.16l75.875-8.458l-83.914-0.7          c-0.572-0.004-1.048-0.44-1.105-1.009c-0.057-0.569,0.325-1.089,0.884-1.207L203.13,187.8l-121.852-4.523          c-0.618-0.022-1.101-0.542-1.078-1.16s0.572-1.12,1.16-1.078l130.967,4.861c0.566,0.021,1.026,0.46,1.074,1.024          c0.048,0.563-0.332,1.075-0.885,1.191l-106.829,22.464l92.309,0.771c0.592,0.006,1.079,0.47,1.11,1.063          c0.03,0.591-0.406,1.104-0.995,1.171l-78.492,8.749l67.819,1.886c0.579,0.017,1.051,0.472,1.086,1.051          c0.036,0.578-0.375,1.089-0.948,1.176l-57.498,8.829l44.221,1.813c0.618,0.026,1.099,0.547,1.073,1.165          C175.349,238.854,174.852,239.326,174.255,239.326z"/>
							</g>
						</g>
						<g>
							<g>
								<path style="fill:#302945;" d="M145.181,260.213c-0.277,0-0.518-0.206-0.554-0.488c-0.039-0.307,0.177-0.588,0.484-0.627          l9.627-1.239c0.294-0.048,0.587,0.176,0.627,0.484c0.039,0.307-0.177,0.588-0.484,0.627l-9.627,1.239          C145.229,260.212,145.206,260.213,145.181,260.213z"/>
							</g>
							<g>
								<path style="fill:#302945;" d="M154.839,262.003c-0.011,0-0.024,0-0.036-0.001l-9.686-0.625          c-0.309-0.02-0.543-0.287-0.523-0.595c0.019-0.309,0.249-0.58,0.595-0.523l9.686,0.625c0.309,0.02,0.543,0.287,0.523,0.595          C155.378,261.775,155.132,262.003,154.839,262.003z"/>
							</g>
							<g>
								<path style="fill:#302945;" d="M154.839,264.099c-0.011,0-0.024,0-0.036-0.001l-9.686-0.625          c-0.309-0.02-0.543-0.287-0.523-0.595c0.019-0.309,0.249-0.575,0.595-0.523l9.686,0.625c0.309,0.02,0.543,0.287,0.523,0.595          C155.378,263.872,155.132,264.099,154.839,264.099z"/>
							</g>
							<g>
								<path style="fill:#302945;" d="M154.839,265.911c-0.011,0-0.024,0-0.036-0.001l-9.686-0.625          c-0.309-0.02-0.543-0.287-0.523-0.595c0.019-0.308,0.249-0.558,0.595-0.523l9.686,0.625c0.309,0.02,0.543,0.287,0.523,0.595          C155.378,265.683,155.132,265.911,154.839,265.911z"/>
							</g>
						</g>
					</g>
				</g>
				<g>
					<g>
						<g>
							<g>
								<polygon style="fill:#FFA352;" points="301.711,399.178 287.947,399.775 286.181,389.521 263.333,392.159 258.951,360.227           280.515,357.29 282.716,359.621 284.62,356.765 283.841,347.06 297.903,345.293         "/>
							</g>
							<g>
								<path style="fill:#302945;" d="M125.189,440.749c-0.12,0-0.239-0.038-0.337-0.11c-0.124-0.09-0.207-0.226-0.23-0.379          l-13.601-90.411c-0.024-0.153,0.017-0.309,0.111-0.432c0.093-0.123,0.233-0.204,0.388-0.222l136.018-16.403          c0.258-0.033,0.511,0.12,0.605,0.365l7.443,19.59l21.963-2.353c0.158-0.017,0.305,0.028,0.424,0.125          c0.119,0.098,0.194,0.237,0.208,0.391l4.4,46.406c0.028,0.295-0.174,0.562-0.466,0.617l-18.767,3.521l-1.167,15.96          c-0.02,0.264-0.217,0.48-0.478,0.524l-136.419,22.803C125.252,440.746,125.221,440.749,125.189,440.749z M112.243,350.262          l13.427,89.251l135.399-22.633l1.166-15.951c0.019-0.26,0.211-0.474,0.467-0.522l18.687-3.505l-4.296-45.307l-21.825,2.339          c-0.272,0.02-0.504-0.123-0.598-0.366l-7.441-19.584L112.243,350.262z"/>
							</g>
							<g>
								<path style="fill:#302945;" d="M125.189,440.749c-0.068,0-0.138-0.012-0.206-0.038c-0.296-0.114-0.442-0.446-0.329-0.741          c0.119-0.308,11.795-31.134,5.764-53.82c-6.041-22.721-19.102-35.848-19.233-35.978c-0.225-0.223-0.227-0.586-0.004-0.811          c0.223-0.225,0.586-0.227,0.811-0.004c0.133,0.132,13.415,13.479,19.536,36.497c6.126,23.048-5.682,54.215-5.802,54.528          C125.637,440.609,125.42,440.749,125.189,440.749z"/>
							</g>
							<g>
								<path style="fill:#302945;" d="M270.074,404.877c-0.28,0-0.525-0.206-0.567-0.492l-8.054-55.787          c-0.045-0.314,0.172-0.604,0.486-0.65c0.302-0.041,0.604,0.171,0.65,0.486l8.054,55.787c0.045,0.314-0.173,0.604-0.486,0.65          C270.128,404.875,270.102,404.877,270.074,404.877z"/>
							</g>
							<g>
								<path style="fill:#302945;" d="M276.809,404.877c-0.28,0-0.525-0.206-0.567-0.492l-8.052-55.787          c-0.045-0.314,0.172-0.604,0.486-0.65c0.306-0.041,0.604,0.171,0.65,0.486l8.052,55.787c0.045,0.314-0.173,0.604-0.486,0.65          C276.864,404.875,276.837,404.877,276.809,404.877z"/>
							</g>
							<g>
								<polygon style="fill:#302945;" points="286.181,389.521 280.515,357.29 284.621,356.74         "/>
							</g>
						</g>
						<g>
							<g>
								<path style="fill:#9DD1A9;" d="M171.857,370.773c5.773-6.202,11.588-12.441,18.39-17.492          c3.234-2.402,6.695-4.532,10.438-6.021c7.4-2.944,15.637-3.263,23.527-2.183c7.891,1.081,15.527,3.503,23.117,5.915          c-3.277,9.809-11.002,18.219-20.423,22.485c-6.811,3.084-14.439,4.078-21.907,3.717c-7.468-0.361-14.814-2.033-22.003-4.09          C179.173,372.009,175.822,370.452,171.857,370.773z"/>
							</g>
							<g>
								<path style="fill:#302945;" d="M168.703,372.654c-0.168,0-0.334-0.084-0.43-0.237c-0.15-0.238-0.078-0.551,0.159-0.701          c0.225-0.142,22.737-14.277,37.528-17.888c14.774-3.609,41.109-3.346,41.375-3.345c0.281,0.003,0.506,0.234,0.503,0.514          c-0.003,0.281-0.229,0.556-0.514,0.503c-0.262-0.007-26.471-0.262-41.122,3.315c-14.632,3.572-37.004,17.619-37.228,17.76          C168.89,372.629,168.796,372.654,168.703,372.654z"/>
							</g>
						</g>
						<g>
							<g>
								<path style="fill:#9DD1A9;" d="M171.907,365.539c8.473,0.064,17.001,0.133,25.322,1.732          c3.956,0.76,7.865,1.872,11.492,3.624c7.171,3.465,12.974,9.319,17.51,15.865c4.537,6.546,7.912,13.811,11.264,21.036          c-9.444,4.214-20.863,4.205-30.375,0.145c-6.876-2.936-12.765-7.885-17.546-13.634c-4.781-5.748-8.514-12.293-11.857-18.981          C175.94,371.767,174.824,368.245,171.907,365.539z"/>
							</g>
							<g style="opacity:0.27;">
								<path style="fill:#302945;" d="M171.907,365.539c8.473,0.064,17.001,0.133,25.322,1.732          c3.956,0.76,7.865,1.872,11.492,3.624c7.171,3.465,12.974,9.319,17.51,15.865c4.537,6.546,7.912,13.811,11.264,21.036          c-9.444,4.214-20.863,4.205-30.375,0.145c-6.876-2.936-12.765-7.885-17.546-13.634c-4.781-5.748-8.514-12.293-11.857-18.981          C175.94,371.767,174.824,368.245,171.907,365.539z"/>
							</g>
							<g>
								<path style="fill:#302945;" d="M237.495,408.305c-0.139,0-0.278-0.057-0.379-0.169c-0.176-0.196-17.7-19.689-30.236-28.069          c-12.522-8.368-37.995-15.365-38.25-15.434c-0.271-0.074-0.431-0.353-0.357-0.624c0.075-0.27,0.353-0.428,0.624-0.357          c0.258,0.07,25.889,7.109,38.548,15.57c12.644,8.45,30.253,28.037,30.429,28.234c0.187,0.21,0.17,0.531-0.039,0.718          C237.737,408.262,237.616,408.305,237.495,408.305z"/>
							</g>
						</g>
						<g>
							<g>
								<path style="fill:#9DD1A9;" d="M163.88,352.255c2.587,8.068,5.186,16.191,6.267,24.595c0.514,3.995,0.68,8.056,0.148,12.049          c-1.051,7.895-4.799,15.236-9.6,21.591c-4.801,6.355-10.648,11.831-16.463,17.273c-6.954-7.655-10.514-18.505-9.628-28.809          c0.64-7.449,3.502-14.59,7.469-20.927c3.967-6.338,9.017-11.929,14.326-17.194          C159.225,358.032,162.222,355.871,163.88,352.255z"/>
							</g>
							<g>
								<path style="fill:#302945;" d="M144.233,428.272c-0.086,0-0.174-0.022-0.253-0.068c-0.244-0.14-0.327-0.45-0.187-0.693          c0.131-0.228,13.172-22.965,17.215-37.493c4.037-14.509,2.723-40.893,2.71-41.157c-0.014-0.281,0.201-0.52,0.481-0.534          c0.296-0.027,0.521,0.201,0.534,0.48c0.015,0.267,1.336,26.815-2.745,41.484c-4.076,14.651-17.181,37.498-17.314,37.726          C144.579,428.18,144.409,428.272,144.233,428.272z"/>
							</g>
						</g>
					</g>
					<g>
						<g>
							<path style="fill:#FFFFFF;" d="M226.059,407.474l22.942-3.578c2.515-0.392,4.864,1.353,5.214,3.874l0.176,1.266         c0.355,2.56-1.487,4.902-4.059,5.159l-23.118,2.312c-2.445,0.244-4.643-1.495-4.968-3.931v0         C221.919,410.122,223.612,407.855,226.059,407.474z"/>
						</g>
						<g>
							<path style="fill:#FFFFFF;" d="M213.75,412.406c0,2.83-2.294,5.125-5.125,5.125c-2.83,0-5.125-2.294-5.125-5.125         c0-2.83,2.294-5.125,5.125-5.125C211.456,407.282,213.75,409.576,213.75,412.406z"/>
						</g>
					</g>
				</g>
				<g>
					<g>
						<g>
							<polygon style="fill:#DBB0FF;" points="386.65,314.267 388.826,278.728 390.518,314.509 399.464,307.256 394.145,315.718          413.244,318.135 394.628,320.553 399.947,328.048 391.002,323.212 388.584,354.158 386.65,323.696 377.463,327.564          383.265,320.553 360.056,317.41 383.023,316.443 377.705,308.465        "/>
						</g>
					</g>
					<g>
						<g>
							<polygon style="fill:#DBB0FF;" points="44.604,278.345 46.78,242.805 48.472,278.586 57.418,271.334 52.099,279.795          71.198,282.213 52.582,284.631 57.901,292.125 48.956,287.29 46.538,318.236 44.604,287.773 35.417,291.642 41.219,284.631          18.01,281.488 40.977,280.521 35.659,272.542        "/>
						</g>
					</g>
					<g>
						<g>
							<polygon style="fill:#DBB0FF;" points="458.217,158.51 460.393,122.97 462.085,158.752 471.031,151.499 465.712,159.961          484.811,162.378 466.195,164.796 471.514,172.29 462.569,167.455 460.151,198.401 458.217,167.939 449.03,171.807          454.832,164.796 431.623,161.653 454.59,160.686 449.272,152.707        "/>
						</g>
					</g>
				</g>
			</g>
		</g>
		<g>
			<g>
				<path style="fill:#FFFFFF;" d="M106.943,378.544l-11.403,4.098c-0.338,0.122-0.604,0.388-0.726,0.726l-4.098,11.403      c-0.382,1.063-1.884,1.063-2.266,0l-4.097-11.403c-0.122-0.338-0.388-0.604-0.726-0.726l-11.403-4.098      c-1.063-0.382-1.063-1.885,0-2.266l11.403-4.098c0.338-0.122,0.604-0.388,0.726-0.726l4.097-11.403      c0.382-1.062,1.885-1.062,2.266,0l4.098,11.403c0.121,0.338,0.388,0.604,0.726,0.726l11.403,4.098      C108.005,376.66,108.005,378.163,106.943,378.544z"/>
			</g>
			<g>
				<path style="fill:#FFFFFF;" d="M345.221,348.714l-11.403,4.097c-0.338,0.122-0.604,0.388-0.726,0.726l-4.098,11.403      c-0.382,1.062-1.884,1.062-2.266,0l-4.098-11.403c-0.121-0.338-0.388-0.604-0.726-0.726l-11.403-4.097      c-1.063-0.382-1.063-1.885,0-2.267l11.403-4.098c0.338-0.121,0.604-0.388,0.726-0.726l4.098-11.403      c0.382-1.063,1.884-1.063,2.266,0l4.098,11.403c0.122,0.338,0.388,0.604,0.726,0.726l11.403,4.098      C346.283,346.83,346.283,348.332,345.221,348.714z"/>
			</g>
			<g>
				<path style="fill:#FFFFFF;" d="M284.309,80.075l-11.403,4.098c-0.338,0.121-0.604,0.388-0.726,0.726l-4.098,11.403      c-0.382,1.063-1.884,1.063-2.266,0l-4.098-11.403c-0.121-0.338-0.388-0.604-0.726-0.726l-11.403-4.098      c-1.062-0.382-1.062-1.884,0-2.266l11.403-4.098c0.338-0.122,0.604-0.388,0.726-0.726l4.098-11.403      c0.382-1.062,1.884-1.062,2.266,0l4.098,11.403c0.122,0.338,0.388,0.604,0.726,0.726l11.403,4.098      C285.371,78.191,285.371,79.693,284.309,80.075z"/>
			</g>
		</g>
	</g>
</g>















</svg>
