<?xml version="1.0" encoding="iso-8859-1"?>
<!-- Generator: Adobe Illustrator 26.5.3, SVG Export Plug-In . SVG Version: 6.00 Build 0)  -->
<svg xmlns="http://www.w3.org/2000/svg" xmlns:xlink="http://www.w3.org/1999/xlink" version="1.1" id="Capa_1" x="0px" y="0px" viewBox="0 0 512 512" style="enable-background:new 0 0 512 512;" xml:space="preserve">
<g>
	<path d="M317.22,392.026c-0.522,0.707-1.099,1.381-1.558,2.127c-3.808,6.18-9.05,10.774-15.557,13.9   c-1.67,0.802-2.301,1.959-2.658,3.696c-2.446,11.9-6.09,23.368-13.391,33.288c-3.726,5.063-8.654,8.453-15.168,8.996   c-2.721,0.227-5.337-0.18-7.84-1.268c-2.219-0.966-2.258-0.982-2.646,1.483c-1.326,8.433-2.696,16.857-5.59,24.935   c-2.768,7.724-5.918,15.238-11.265,21.642c-8.883,10.638-22.246,10.505-31.074-0.211c-7.377-8.955-10.733-19.533-13.006-30.618   c-1.822-8.883-2.132-17.899-2.455-26.914c-0.098-2.741-0.222-3.026-2.988-3.168c-3.984-0.204-7.876,0.557-11.692,1.58   c-3.743,1.004-7.414,2.278-11.139,3.354c-1.391,0.402-2.033,1.059-2.168,2.619c-0.946,10.907-1.035,21.812-0.303,32.734   c0.254,3.786-0.392,4.487-3.96,5.942c-2.739,1.116-5.387,2.458-8.072,3.706c-3.689,1.715-6.149,0.389-6.847-3.648   c-0.327-1.892-0.283-3.794-0.32-5.696c-0.174-8.879-0.215-17.756,0.222-26.63c0.095-1.931-1.107-1.134-1.947-0.85   c-6.015,2.034-12.078,3.892-18.287,5.253c-8.826,1.934-17.693,2.935-26.601,0.676c-12.139-3.079-19.675-11.083-23.52-22.723   c-1.144-3.462-0.892-7.093,0.199-10.629c0.715-2.319,2.223-3.579,4.625-3.609c5.006-0.061,10.016-0.146,15.019-0.021   c3.1,0.077,4.812,2.901,3.82,5.871c-0.535,1.603-1.195,3.178-1.569,4.818c-1.629,7.143,1.967,13.461,8.936,15.822   c4.711,1.596,9.579,1.66,14.443,1.201c8.261-0.781,16.074-3.608,24.099-5.476c1.231-0.287,1.391-1.148,1.498-2.209   c0.773-7.64,1.569-15.278,2.398-22.912c2.092-19.276,4.789-38.463,8.238-57.549c2.018-11.166,4.029-22.352,5.156-33.647   c1.089-10.92,1.307-21.844-2.786-32.352c-0.846-2.172-1.829-4.28-3.201-6.183c-2.366-3.282-4.646-3.96-8.203-2.005   c-4.942,2.716-8.47,6.948-11.54,11.566c-9.253,13.917-14.454,29.338-16.057,45.863c-1.097,11.307,0.065,22.446,6.175,32.486   c2.696,4.429,6.079,8.289,10.204,11.474c3.733,2.882,3.618,5.268-0.549,7.509c-4.812,2.588-9.798,4.831-15.487,4.086   c-7.441-0.974-11.776-5.794-14.797-12.191c-2.873-6.084-4.37-12.564-4.759-19.198c-1.489-25.402,4.882-48.763,19.022-69.914   c5.148-7.701,11.557-14.25,19.84-18.66c11.88-6.325,23.165-3.941,30.383,7.673c4.795,7.714,6.682,16.382,7.735,25.278   c1.813,15.321,0.307,30.54-1.45,45.743c-2.663,23.045-6.993,45.854-9.824,68.876c-0.292,2.378-0.526,4.764-0.871,7.134   c-0.246,1.693,0.224,2.144,1.942,1.651c5.228-1.502,10.519-2.666,16.018-2.583c2.409,0.036,4.812,0.116,7.127,0.773   c1.462,0.414,1.848-0.075,1.971-1.441c0.406-4.497,0.301-9.012,0.525-13.517c0.706-14.155,2.054-28.239,3.794-42.297   c2.304-18.617,5.207-37.138,9.01-55.506c2.374-11.462,5.197-22.827,9.261-33.827c1.5-4.06,3.612-5.046,7.94-4.382   c2.505,0.384,5.018,0.728,7.513,1.171c1.946,0.345,2.771,1.393,2.648,3.561c-0.298,5.228-1.995,10.09-3.565,14.98   c-6.636,20.673-10.988,41.833-13.959,63.319c-1.844,13.335-3.431,26.696-4.472,40.109c-1.096,14.125-1.916,28.289-1.304,42.462   c0.448,10.372,2.151,20.606,4.742,30.666c1.333,5.175,3.642,9.92,6.957,14.14c4.139,5.269,8.949,5.587,13.948,1.077   c2.817-2.542,4.342-5.868,5.964-9.148c4.426-8.951,6.523-18.591,8.309-28.32c0.064-0.347,0.066-0.709,0.164-1.044   c1.607-5.482,1.873-10.728-2.614-15.157c-7.417-13.703-7.311-27.642-1.302-41.763c0.276-0.648,0.489-1.369,0.924-1.897   c3.086-3.745,1.929-7.238,0.241-11.33c-5.061-12.268-5.041-24.619,1.32-36.54c3.607-6.759,8.816-11.776,16.744-12.966   c9.009-1.352,16.191,2.252,21.757,9.058c5.911,7.228,8.195,15.984,9.419,25.026c1.292,9.541,1.343,19.111,0.18,28.679   c-0.066,0.544-0.316,1.24,0.209,1.586c0.618,0.407,1.194-0.175,1.737-0.454c5.426-2.79,9.013-7.489,12.904-11.986   c4.176-4.827,5.367-10.385,6.068-16.445c1.756-15.192,3.854-30.346,6.457-45.421c0.241-1.396-0.082-2.182-1.209-2.999   c-9.319-6.751-18.679-13.434-29.603-17.442c-5.881-2.158-11.912-3.411-18.243-2.641c-5.962,0.726-10.496,3.829-14.236,8.318   c-0.947,1.137-1.841,2.319-2.797,3.449c-1.992,2.354-4.197,2.784-6.986,1.401c-5.497-2.725-7.757-9.203-5.242-15.223   c1.999-4.785,5.556-8.1,10.189-10.27c8.005-3.749,16.315-3.909,24.822-2.097c12.371,2.636,22.904,8.924,32.867,16.359   c3.503,2.614,6.921,5.341,10.362,8.036c2.082,1.631,2.257,1.61,2.755-1.078c1.659-8.949,3.698-17.812,6.033-26.605   c2.529-9.523,3.225-8.264,10.135-9.029c2.311-0.256,4.613-0.635,6.931-0.76c2.871-0.155,4.19,1.244,3.925,4.141   c-0.303,3.316-1.419,6.469-2.276,9.662c-3.202,11.938-4.763,24.206-7.384,36.259c-0.242,1.115-0.103,2.086,1.023,2.728   c9.186,5.238,18.218,10.822,28.786,12.984c17.251,3.53,33.333-8.976,34.224-26.581c0.09-1.776-0.204-3.51-0.396-5.262   c-0.46-4.191,1.324-5.789,5.475-4.929c5.736,1.188,9.26,5.051,11.305,10.176c4.052,10.155,2.34,19.584-4.691,27.859   c-6.653,7.831-15.61,11.184-25.605,11.794c-13.597,0.829-26.001-3.426-37.888-9.545c-4.139-2.131-8.22-4.372-12.109-6.935   c-1.345-0.887-2.052-0.948-2.273,0.931c-1.559,13.225-3.156,26.446-4.755,39.667c-1.634,13.506-2.665,27.067-3.237,40.649   c-0.673,15.992-0.909,32.006-0.441,48.009c0.225,7.68,1.293,15.306,3.296,22.765c0.717,2.67,1.685,5.232,3.063,7.632   c0.671,1.169,1.452,2.253,2.509,3.111c3.792,3.081,6.69,2.744,9.823-0.98c4.667-5.548,6.592-12.246,7.971-19.118   c2.18-10.862,2.618-21.814,1.027-32.809c-0.211-1.461-0.523-2.914-0.885-4.346c-0.764-3.022,0.403-5.27,3.353-6.314   c8.186-2.899,17.477,3.522,17.579,12.188c0.16,13.593-2.475,26.596-9.546,38.291c-4.512,7.462-9.643,14.644-17.134,19.578   c-9.369,6.171-20.654,4.407-28.024-4.119c-7.665-8.868-11.042-19.565-13.06-30.767c-1.79-9.941-2.277-20.041-2.107-30.121   c0.257-15.22,1.263-30.408,3.095-45.531c0.225-1.857,0.373-3.723,0.557-5.584C317.503,392.147,317.361,392.086,317.22,392.026z    M294.769,386.896c0.151-4.986-0.352-9.819-0.902-14.65c-0.65-5.698-2.281-11.028-5.748-15.686   c-2.993-4.021-7.23-5.415-10.851-3.555c-2.093,1.076-3.911,2.489-5.311,4.421c-4.724,6.521-5.734,13.943-5.32,21.717   c0.083,1.552,1.118,1.343,2.132,1.132c2.923-0.607,5.846-0.852,8.814-0.273c1.76,0.343,3.309,0.938,3.841,2.831   c0.507,1.803-0.448,3.124-1.693,4.271c-2.078,1.915-3.887,4.074-5.769,6.174c-1.346,1.502-1.491,2.727,0.056,4.103   c4.994,4.442,10.696,6.872,17.503,6.479c1.662-0.096,2.213-0.877,2.343-2.329C294.3,396.623,294.969,391.73,294.769,386.896z    M261.468,427.707c0.344,4.556,0.403,9.551,3.216,13.894c2.141,3.306,5.418,4.214,9.021,2.707c2.451-1.025,4.562-2.525,6.326-4.496   c6.998-7.822,9.469-17.628,11.974-27.416c0.225-0.881-0.126-1.158-0.99-1.042c-1.605,0.215-3.213,0.49-4.827,0.549   c-6.348,0.233-12.294-1.336-17.923-4.2c-1.004-0.511-1.839-1.04-2.449,0.553C263.456,414.412,261.649,420.682,261.468,427.707z"/>
	<g>
		<g>
			<path d="M391.173,262.531c-6.498,0.03-10.643-2.737-12.696-7.814c-0.475-1.175-0.985-2.356-1.272-3.583     c-0.957-4.095-3.513-6.792-7.176-8.625c-6.094-3.049-10.516-7.683-13.291-13.934c-1.162-2.619-1.734-5.355-2.115-8.15     c-0.135-0.987-0.086-2.102,1.09-2.476c1.115-0.354,1.597,0.534,2.075,1.364c2.978,5.163,7.538,8.022,13.305,9.168     c3.107,0.617,6.216,1.215,9.209,2.337c5.013,1.879,7.202,5.581,7.278,10.762c0.025,1.689-0.056,3.382,0.27,5.06     c0.697,3.588,2.773,5.735,6.404,6.37c1.658,0.29,3.356,0.364,5.039,0.504c1.292,0.108,2.624,0.188,3.167,1.628     c0.579,1.534-0.385,2.582-1.411,3.47C397.925,261.313,394.202,262.417,391.173,262.531z M393.706,257.297     c-5.138-1.195-8.772-3.51-10.236-8.398c-0.701-2.342-0.598-4.738-0.65-7.129c-0.095-4.373-1.045-5.634-5.124-7.195     c-5.401-2.066-11.561-1.735-16.469-5.438c0.148,0.717,0.393,1.217,0.672,1.697c2.345,4.041,6.11,6.37,10.187,8.233     c4.359,1.993,7.365,5.068,8.681,9.746c0.399,1.417,0.925,2.822,1.58,4.139C384.518,257.319,388.552,258.943,393.706,257.297z"/>
			<path d="M155.02,213.391c1.918,0.122,4.588,0.279,7.256,0.471c0.778,0.056,1.602,0.18,1.912,1.056     c0.303,0.856-0.247,1.483-0.738,2.084c-1.53,1.872-3.573,2.937-5.835,3.631c-7.261,2.225-12.62,6.667-15.878,13.574     c-1.262,2.676-2.524,5.353-3.807,8.019c-3.751,7.8-8.819,10.656-17.503,9.91c-2.46-0.211-4.918-0.33-7.36,0.264     c-2.285,0.556-3.985,1.672-4.594,4.121c-0.217,0.871-0.643,1.717-1.112,2.49c-0.43,0.708-1.173,1.032-2.018,0.766     c-0.867-0.273-1.35-1.062-1.12-1.814c1.879-6.14,1.964-12.894,6.233-18.224c3.572-4.46,8.378-6.222,13.892-6.517     c1.827-0.098,3.655-0.202,5.478-0.365c2.596-0.232,4.482-1.598,5.707-3.851c1.211-2.226,2.392-4.471,3.506-6.748     C142.148,215.903,147.321,213.119,155.02,213.391z M157.244,217.082c-6.032-0.491-11.112,1.073-14.355,6.517     c-0.755,1.267-1.373,2.617-2.018,3.946c-2.536,5.22-6.133,8.92-12.435,8.899c-1.544-0.005-3.095,0.123-4.633,0.284     c-7.913,0.831-10.993,4.55-13.442,11.519c-0.292,0.829-0.271,1.541,0.894,1.087c3.83-1.493,7.808-0.923,11.719-0.775     c5.221,0.197,8.895-2.025,11.501-6.4c2.023-3.396,3.561-7.033,5.367-10.537c2.433-4.72,5.614-8.725,10.308-11.44     C152.417,218.869,154.863,218.058,157.244,217.082z"/>
			<path d="M139.127,178.79c-4.47-0.645-8.841-0.616-13.031,1.434c-2.694,1.318-5.072,3.092-7.325,4.986     c-5.455,4.585-11.448,5.749-18.163,3.433c-1.064-0.367-2.17-0.615-3.265-0.886c-3.819-0.947-7.538-0.929-11.053,1.14     c-0.873,0.514-1.88,0.969-2.723,0.109c-0.902-0.921-0.484-1.943,0.166-2.876c0.645-0.925,1.271-1.864,1.904-2.797     c4.823-7.103,11.475-9.86,19.92-8.432c1.315,0.222,2.664,0.228,3.992,0.381c3.262,0.377,6.089-0.682,8.206-3.058     c6.219-6.981,13.5-7.665,21.658-4.051c1.803,0.799,3.668,1.457,5.504,2.179c1.717,0.676,3.456,1.14,5.344,1.059     c1.789-0.077,2.167,0.642,1.193,2.169c-0.843,1.321-1.946,2.39-3.371,3.123C145.266,178.154,142.309,178.936,139.127,178.79z      M145.846,174.101c-3.865-1.285-7.183-2.383-10.498-3.493c-4.938-1.653-9.319-0.884-12.916,3.047     c-4.626,5.055-10.29,6.358-16.912,5.272c-4.83-0.792-9.61-0.431-13.447,3.292c-0.299,0.29-0.776,0.527-0.695,0.988     c0.096,0.548,0.642,0.46,1.038,0.437c3.945-0.226,7.687,0.87,11.43,1.831c4.252,1.091,8.076,0.439,11.558-2.247     c1.003-0.774,2.112-1.419,3.075-2.237c6.152-5.224,13.077-7.538,21.163-5.928C141.555,175.445,143.466,174.916,145.846,174.101z"/>
			<path d="M191.995,62.134c-0.021,0.285-0.16,1.13-1.061,1.543c-0.974,0.446-1.822,0.116-2.468-0.638     c-4.424-5.167-10.09-8.134-16.584-9.96c-5.238-1.472-8.854-4.992-10.875-10.159c-1.391-3.557-2.208-7.285-3.534-10.854     c-1.19-3.203-2.633-6.239-5.449-8.391c-0.764-0.584-1.02-1.393-0.554-2.249c0.502-0.921,1.42-0.842,2.252-0.606     c7.092,2.015,12.835,5.73,15.956,12.733c0.516,1.158,1.132,2.272,1.645,3.432c1.677,3.791,4.376,6.164,8.546,7.134     c6.219,1.447,9.663,5.74,10.921,11.867C191.174,57.848,191.944,59.623,191.995,62.134z M159.991,26.801     c2.051,3.809,3.304,7.915,4.592,11.981c1.696,5.352,5.243,8.64,10.433,10.408c3.976,1.355,7.518,3.488,10.754,6.154     c0.388,0.319,0.65,0.939,1.449,0.766c-0.48-2.048-1.41-3.795-2.734-5.391c-1.836-2.213-4.417-2.965-6.999-3.628     c-3.758-0.964-6.324-3.2-7.928-6.68c-1.031-2.236-2.103-4.456-3.251-6.634C164.817,30.955,162.995,28.393,159.991,26.801z"/>
			<path d="M379.426,179.061c4.575-0.051,7.368,1.137,9.798,3.239c0.745,0.644,1.536,1.288,2.101,2.078     c3.2,4.477,7.659,4.992,12.613,4.216c2.587-0.406,5.195-0.377,7.778,0.14c5.083,1.017,9.641,6.565,9.64,11.727     c0,1.49-1.296,2.521-2.567,1.715c-3.823-2.427-7.729-1.373-11.677-0.695c-3.118,0.535-6.228,1.249-9.431,0.775     c-5.414-0.801-9.433-3.842-12.767-7.972c-1.725-2.137-3.353-4.349-5.256-6.345c-1.349-1.415-2.854-2.204-4.857-2.059     c-0.899,0.065-1.82-0.121-2.728-0.226c-0.753-0.087-1.628-0.023-1.902-0.993c-0.281-0.996,0.397-1.591,1.044-2.137     C373.963,180.205,377.178,179.147,379.426,179.061z M380.257,183.541c4.014,3.253,6.467,7.379,9.885,10.647     c3.361,3.214,7.238,4.778,11.914,4.26c4.849-0.538,9.624-1.923,14.794-0.978c-1.015-2.687-2.542-4.227-5.046-4.796     c-2.595-0.59-5.214-0.66-7.768-0.082c-6.898,1.56-12.539-0.136-16.726-6.011c-0.203-0.285-0.445-0.553-0.711-0.781     C384.918,184.36,383.176,183.059,380.257,183.541z"/>
			<path d="M389.995,147.075c-1.795-0.081-3.484,0.504-5.222,0.766c-0.813,0.122-1.772,0.332-2.328-0.531     c-0.614-0.955,0.025-1.757,0.564-2.494c3.334-4.563,9.993-6.635,15.342-4.758c2,0.702,3.899,1.646,5.701,2.756     c2.737,1.685,5.615,2.085,8.718,1.257c2.654-0.708,5.337-1.282,8.071-1.643c4.594-0.607,8.347,0.799,11.174,4.48     c1.071,1.394,2.021,2.885,2.975,4.365c0.446,0.691,0.543,1.47-0.038,2.168c-0.517,0.622-1.229,0.705-1.932,0.454     c-4.551-1.629-8.886-0.673-13.167,1.042c-0.523,0.209-1.075,0.344-1.598,0.554c-5.883,2.37-11.103,1.552-15.77-2.94     C399.037,149.228,394.882,147.246,389.995,147.075z M429.517,149.89c-1.707-3.118-4.496-4.431-7.915-3.981     c-2.798,0.368-5.555,0.947-8.234,1.86c-3.954,1.348-7.752,1.173-11.367-1.094c-1.133-0.711-2.313-1.35-3.496-1.975     c-1.947-1.029-3.971-1.759-6.284-1.275c5.535,1.023,9.92,4.146,14.217,7.496c2.667,2.08,5.647,2.557,8.964,1.457     C419.866,150.897,424.299,149.1,429.517,149.89z"/>
			<path d="M307.549,40.282c-0.064-6.899,2.521-11.397,7.83-13.931c5.31-2.535,8.541-6.411,9.81-12.142     c1.289-5.825,4.841-10.079,9.848-13.183c0.536-0.332,1.104-0.633,1.691-0.859c0.692-0.267,1.413-0.251,1.965,0.327     c0.636,0.666,0.559,1.499,0.089,2.146c-3.274,4.503-3.247,9.777-3.592,14.973c-0.191,2.884-0.466,5.745-1.54,8.486     c-1.606,4.098-4.489,6.983-8.397,8.806c-6.47,3.018-10.783,7.778-12.477,14.79c-0.082,0.34-0.223,0.668-0.351,0.996     c-0.302,0.778-0.486,1.752-1.635,1.572c-1.009-0.159-1.491-0.839-1.723-1.865C308.238,46.746,307.676,43.065,307.549,40.282z      M311.953,44.248c0.825-1.368,1.5-2.576,2.259-3.728c2.279-3.457,5.559-5.743,9.117-7.696c5.488-3.013,8.027-7.852,8.704-13.906     c0.36-3.217,0.881-6.418,1.398-9.616c0.201-1.242,0.59-2.453,0.977-4.015c-4.158,2.463-5.966,6.078-6.675,10.083     c-1.188,6.709-4.307,11.902-10.081,15.64C313.001,34.022,311.52,38.651,311.953,44.248z"/>
			<path d="M392.561,93.475c1.646-0.079,3.242,0.286,4.816,0.63c3.947,0.863,7.391-0.085,10.472-2.608     c1.8-1.474,3.587-2.963,5.418-4.397c4.018-3.146,8.553-3.689,13.4-2.583c0.866,0.198,1.664,0.47,1.744,1.532     c0.074,0.997-0.687,1.281-1.416,1.59c-2.13,0.904-3.811,2.369-5.217,4.183c-2.416,3.118-4.618,6.399-7.315,9.304     c-4.791,5.16-10.471,7.179-17.369,5.179c-1.962-0.569-3.941-1.096-5.868-1.77c-3.491-1.22-7.002-1.492-10.605-0.592     c-0.67,0.167-1.407,0.255-2.085,0.165c-1.773-0.234-2.409-1.359-1.713-3.015c1.006-2.393,2.896-3.954,5.13-5.125     C385.273,94.231,388.869,93.633,392.561,93.475z M384.105,99.644c4.561,0.472,8.844,1.928,13.161,3.155     c6.027,1.713,10.862,0.06,15.011-4.477c3.266-3.571,5.959-7.612,9.498-11.053c-0.977-0.476-1.773-0.171-2.583-0.023     c-4.085,0.749-6.731,3.737-9.52,6.353c-4.034,3.783-8.583,5.171-13.961,4.036C391.6,96.766,387.82,97.95,384.105,99.644z"/>
			<path d="M119.301,67.745c6.859-0.711,11.688,3.355,15.648,8.538c3.3,4.319,7.226,6.178,12.683,5.977     c7.235-0.267,11.835,3.323,13.328,9.563c0.682,2.847-0.356,3.943-3.237,3.738c-3.083-0.22-5.742-1.28-8.022-3.345     c-2.511-2.273-5.54-3.288-8.852-3.553c-2.244-0.18-4.491-0.362-6.74-0.419c-5.108-0.13-8.865-2.409-11.312-6.881     c-1.048-1.915-2.059-3.853-3.176-5.727c-1.117-1.875-2.284-3.727-4.482-4.588c-0.803-0.315-1.15-1.022-0.997-1.894     c0.157-0.893,0.783-1.342,1.627-1.393C116.818,67.697,117.877,67.745,119.301,67.745z M140.799,84.925     c-3.462-0.86-5.578-3.395-7.693-5.944c-1.3-1.567-2.584-3.154-3.974-4.64c-1.79-1.912-4.054-2.984-6.648-3.343     c-0.9-0.125-1.487,0.019-0.825,1.091c1.736,2.809,3.382,5.679,5.237,8.406c1.364,2.004,3.143,3.695,5.712,3.983     C135.303,84.78,138.003,85.174,140.799,84.925z M143.542,85.393c3.573,0.474,6.395,2.434,9.13,4.572     c1.174,0.917,2.411,1.723,3.939,1.913c0.403,0.05,0.86,0.329,1.199-0.041c0.353-0.385,0.036-0.799-0.14-1.161     c-1.257-2.598-3.097-4.472-6.06-5.081C148.952,85.049,146.275,85.418,143.542,85.393z"/>
			<path d="M103.78,107.532c2.348-0.033,4.313,0.713,6.183,1.74c1.109,0.61,2.224,1.237,3.236,1.991     c3.078,2.292,6.386,3.131,10.138,1.974c5.138-1.585,8.913,0.251,12.112,4.424c2.322,3.03,4.376,6.441,7.984,8.288     c0.457,0.234,0.811,0.586,0.596,1.187c-0.271,0.759-0.89,1.1-1.619,1.172c-2.782,0.276-5.488-0.09-8.049-1.226     c-1.608-0.713-3.162-1.55-4.546-2.661c-2.312-1.856-4.921-2.321-7.758-1.621c-1.844,0.455-3.674,0.968-5.513,1.445     c-3.492,0.906-6.607,0.207-9.101-2.434c-2.026-2.146-3.874-4.458-5.816-6.684c-1.04-1.191-2.252-2.102-3.867-2.409     c-0.974-0.185-1.692-0.74-1.751-1.826c-0.06-1.099,0.643-1.679,1.568-1.992C99.646,108.201,101.711,107.466,103.78,107.532z      M104.158,111.551c2.479,2.816,4.582,5.263,6.753,7.649c1.382,1.519,3.164,2.033,5.184,1.685     c0.831-0.143,1.667-0.283,2.482-0.497c5.186-1.362,10.017-0.862,14.4,2.505c1.166,0.896,2.444,1.718,4.432,2.353     c-1.391-1.9-2.531-3.244-3.433-4.732c-2.28-3.763-5.429-4.868-9.539-3.411c-0.396,0.14-0.814,0.223-1.225,0.32     c-3.74,0.884-7.26,0.518-10.47-1.775c-1.431-1.022-2.889-2.008-4.373-2.95C107.248,111.987,106.053,111.422,104.158,111.551z"/>
			<path d="M371.939,67.409c-2.631-0.254-5.568-0.573-8.512-0.812c-4.454-0.361-8.543,0.53-11.971,3.624     c-0.673,0.608-1.482,1.301-2.444,0.723c-1.097-0.659-0.649-1.756-0.422-2.683c1.687-6.876,6.433-10.883,13.567-10.529     c5.162,0.257,8.81-1.62,11.74-5.581c1.301-1.759,2.904-3.251,4.464-4.781c4.56-4.471,10.092-5.193,16.074-4.257     c0.657,0.103,1.263,0.294,1.451,1.02c0.189,0.73-0.232,1.262-0.786,1.589c-4.316,2.546-6.386,6.812-8.512,11.036     c-1.207,2.399-2.559,4.684-4.451,6.636C379.417,66.198,376.087,67.394,371.939,67.409z M354.282,64.874     c4.413-1.545,8.889-1.168,13.362-0.608c5.647,0.707,10.514-0.381,13.7-5.646c2.713-4.482,4.942-9.296,9.302-13.055     c-2.088-0.211-3.665-0.154-5.241,0.276c-4.669,1.274-7.621,4.676-10.212,8.411c-3.347,4.826-7.416,7.923-13.716,7.326     C358.668,61.312,356.182,62.604,354.282,64.874z"/>
			<path d="M228.891,39.702c-0.314,3.178-1.454,6.23-3.764,8.78c-0.582,0.643-1.322,1.143-2.25,0.789     c-0.769-0.293-0.932-1.017-0.909-1.752c0.194-6.255-2.477-11.324-6.594-15.756c-3.404-3.664-4.834-8.022-4.828-12.936     c0.002-1.903,0.031-3.807,0.003-5.709c-0.029-1.953-0.532-3.756-1.83-5.282c-0.618-0.727-1.198-1.556-0.354-2.422     c0.877-0.9,1.757-0.342,2.664,0.169c5.964,3.363,8.603,8.631,8.98,15.288c0.205,3.621,1.899,6.597,4.452,9.09     C227.148,32.585,228.744,35.689,228.891,39.702z M214.177,11.827c0,3.077-0.094,5.79,0.026,8.493     c0.128,2.895,1.121,5.535,3.111,7.684c4.001,4.319,7.318,8.96,7.472,15.618c1.956-4.711,0.951-8.451-2.133-11.539     c-3.426-3.431-5.099-7.458-5.428-12.239C217.034,17.082,216.675,14.258,214.177,11.827z"/>
			<path d="M185.762,275.719c-0.743,0-1.095,0.005-1.447-0.001c-0.862-0.015-1.764-0.018-2.047-1.072     c-0.257-0.955,0.217-1.641,1.007-2.116c1.648-0.993,3.007-2.32,4.32-3.699c2.071-2.176,2.774-4.699,1.798-7.584     c-0.563-1.664-1.09-3.362-1.868-4.928c-1.92-3.865-0.77-7.031,1.866-10.046c2.349-2.687,5.724-3.503,8.716-5.004     c1.084-0.544,2.143,0.607,1.799,1.995c-0.283,1.144-0.765,2.285-1.38,3.292c-1.944,3.187-2.136,6.449-0.869,9.922     c0.821,2.251,1.327,4.584,1.322,7.02c-0.014,6.241-3.31,10.399-9.418,11.689C188.188,275.475,186.777,275.58,185.762,275.719z      M195.273,246.171c-4.945,2.217-6.256,5.423-4.355,9.732c0.255,0.579,0.495,1.165,0.748,1.745     c2.047,4.702,2.098,9.146-1.678,13.105c-0.171,0.18-0.262,0.435-0.438,0.737c3.232-0.454,5.578-2.953,6.202-6.356     c0.541-2.951-0.217-5.735-1.016-8.504C193.757,253.237,193.29,249.883,195.273,246.171z"/>
			<path d="M268.016,33.222c0.214-3.143,1.244-6.365,2.258-9.587c0.959-3.047,1.924-6.073,0.294-9.211     c-0.351-0.675-0.235-1.415,0.404-1.91c0.692-0.536,1.457-0.466,2.164,0.004c5.487,3.644,8.324,7.809,6.409,15.659     c-0.63,2.583-1.761,5.044-2.663,7.561c-0.971,2.71-1.347,5.461-0.514,8.278c0.386,1.307,0.136,2.516-1.073,3.08     c-1.251,0.584-1.878-0.589-2.449-1.465c-1.576-2.417-3.178-4.82-4.125-7.585C268.215,36.56,267.957,35.051,268.016,33.222z      M272.893,39.033c0.977-4.183,2.577-7.545,3.629-11.099c0.587-1.982,0.746-4.008,0.422-6.044     c-0.203-1.276-0.482-2.565-1.795-3.701c-0.711,4.836-2.728,8.99-3.657,13.457C270.987,34.069,271.247,36.351,272.893,39.033z"/>
			<path d="M322.654,244.446c-0.023-1.579,0.195-3.123,0.887-4.53c0.732-1.489,2.479-1.622,3.098-0.172     c0.834,1.955,2.415,2.618,4.221,3.117c2.442,0.674,4.912,1.271,7.065,2.704c3.979,2.647,5.458,6.602,4.134,11.173     c-0.509,1.756-1.068,3.497-1.636,5.235c-0.385,1.18-1.122,2.044-2.475,1.785c-1.286-0.246-1.524-1.259-1.448-2.436     c0.129-2.02-1.15-3.3-2.618-4.298c-1.623-1.104-3.414-1.956-5.113-2.952C325.085,251.911,322.609,248.973,322.654,244.446z      M339.203,253.501c0.029-2.635-2.234-5.076-5.603-6.028c-2.156-0.609-4.317-1.202-6.475-1.806     c-0.326-0.091-0.669-0.353-0.976-0.063c-0.365,0.345-0.215,0.793-0.046,1.174c0.861,1.941,2.282,3.332,4.201,4.232     c2.285,1.072,4.593,2.094,6.645,3.607c0.508,0.374,0.907,1.341,1.71,0.834C339.284,255.058,339.158,254.198,339.203,253.501z"/>
		</g>
		<g>
			<path d="M129.911,143.414c6.89,0.409,13.778,0.865,20.671,1.212c5.636,0.284,11.283,0.541,16.788-1.185     c1.9-0.596,3.698-1.355,5.24-2.662c3.022-2.561,3.472-5.144,1.419-8.575c-2.079-3.475-5.29-5.816-8.373-8.275     c-5.023-4.006-10.358-7.572-15.736-11.074c-0.473-0.308-0.948-0.614-1.402-0.947c-0.923-0.677-2.003-1.423-1.546-2.716     c0.506-1.431,1.902-1.275,3.083-1.091c5.362,0.834,10.704,1.804,16.076,2.561c3.494,0.492,7.023,0.582,10.518-0.184     c1.774-0.388,3.287-1.282,4.628-2.443c1.306-1.131,1.859-2.558,1.542-4.351c-0.441-2.494-1.563-4.676-2.894-6.759     c-6.661-10.423-15.143-19.269-24.129-27.661c-2.57-2.399-4.975-4.986-7.925-6.983c-1.404-0.95-1.961-2.456-0.957-4.074     c0.831-1.339,2.504-1.34,4.309-0.13c8.316,5.575,16.002,12.04,24.488,17.374c6.565,4.126,13.073,8.362,20.38,11.132     c0.198,0.075,0.396,0.148,0.597,0.217c5.892,2.013,8.434,0.228,8.467-5.963c0.048-8.86-2.52-17.251-4.636-25.722     c-0.41-1.641-0.917-3.261-1.263-4.915c-0.241-1.155-0.103-2.323,1.146-2.896c1.184-0.543,2.237-0.08,3.059,0.792     c0.572,0.607,1.013,1.344,1.469,2.05c4.808,7.44,10.167,14.393,17.387,19.702c1.537,1.13,3.14,2.131,5.024,2.638     c2.479,0.668,4.447-0.115,6.023-2.009c3.272-3.935,4.481-8.737,5.532-13.573c1.608-7.395,1.826-14.958,2.59-22.455     c0.657-6.448,1.223-12.907,1.945-19.348c0.291-2.594-0.055-5.23,0.601-7.789c0.284-1.109,0.51-2.289,1.984-2.369     c1.532-0.083,2.055,1.026,2.407,2.223c1.417,4.815,1.968,9.807,2.986,14.703c2.491,11.971,5.631,23.738,11.442,34.614     c1.603,3,3.463,5.813,6.148,7.985c3.605,2.916,6.823,2.546,9.606-1.202c1.815-2.445,3.169-5.164,4.36-7.961     c3.434-8.061,5.827-16.477,8.483-24.804c0.448-1.404,0.603-3.502,2.755-3.029c2.036,0.447,1.482,2.332,1.378,3.875     c-0.655,9.752-2.063,19.524,0.679,29.201c0.578,2.04,1.137,4.078,2.284,5.893c2.102,3.327,5.623,4.391,9.184,2.711     c2.903-1.369,5.394-3.335,7.628-5.613c9.391-9.577,17.897-19.926,26.384-30.292c1.383-1.689,2.875-3.291,4.365-4.889     c0.527-0.565,1.21-1.1,2.05-0.597c0.839,0.502,0.72,1.362,0.433,2.081c-0.835,2.094-1.79,4.139-2.643,6.226     c-4.079,9.978-8.63,19.784-11.382,30.256c-1.076,4.093-1.184,8.211,0.329,12.271c1.678,4.501,5.071,6.597,9.695,6.913     c4.792,0.327,9.383-0.757,13.931-2.11c3.716-1.105,7.436-2.197,11.172-3.232c1.256-0.348,2.779-0.96,3.472,0.795     c0.63,1.596-0.739,2.238-1.823,2.887c-3.992,2.39-8.048,4.674-11.794,7.456c-3.181,2.362-6.198,4.898-8.666,8.02     c-2.76,3.49-2.569,7.33,0.603,10.453c3.788,3.729,8.593,5.613,13.582,6.989c6.826,1.883,13.877,2.388,20.896,3.027     c5.191,0.473,10.394,0.829,15.574,1.395c1.077,0.118,2.976-0.327,2.997,1.492c0.018,1.548-1.636,1.695-2.859,1.986     c-4.886,1.165-9.898,1.425-14.856,2.08c-8.014,1.058-15.822,2.87-22.998,6.752c-4.605,2.491-6.648,6.736-4.968,10.386     c1.104,2.397,2.997,4.244,4.996,5.943c4.284,3.64,9.207,6.236,14.223,8.681c1.711,0.834,3.432,1.655,5.096,2.575     c1.235,0.683,2.656,1.46,2.009,3.229c-0.604,1.651-2.133,1.351-3.455,1.181c-3.284-0.424-6.554-0.958-9.842-1.347     c-4.376-0.518-8.748-0.363-13.021,0.739c-6.904,1.781-9.021,6.519-5.792,12.844c2.599,5.09,6.398,9.275,10.451,13.203     c6.579,6.377,13.305,12.603,19.919,18.945c1.176,1.127,2.93,2.457,1.691,4.286c-1.355,2-3.256,0.603-4.744-0.112     c-8.133-3.908-16.131-8.109-24.629-11.21c-5.103-1.862-10.252-3.562-15.655-4.374c-6.435-0.968-9.794,2.439-8.475,8.869     c1.285,6.264,4.153,11.965,6.671,17.784c0.643,1.487,1.236,2.996,1.837,4.501c0.453,1.132,0.538,2.257-0.568,3.053     c-1.197,0.862-2.3,0.342-3.246-0.513c-1.255-1.135-2.417-2.372-3.678-3.499c-3.548-3.172-7.437-5.817-11.919-7.511     c-0.725-0.274-1.453-0.588-2.209-0.72c-4.864-0.848-8.51,0.073-8.853,6.198c-0.417,7.458,0.772,14.755,2.061,22.029     c1.229,6.939,2.772,13.822,4.144,20.736c0.27,1.361,0.828,3.074-0.657,3.867c-1.641,0.877-2.798-0.721-3.658-1.78     c-3.568-4.389-6.411-9.271-9.177-14.19c-3.456-6.148-6.978-12.254-11.218-17.908c-1.411-1.882-3.064-3.519-5.191-4.577     c-2.377-1.182-3.811-0.613-4.448,1.959c-1.195,4.819-1.558,9.736-1.185,14.687c0.324,4.295,0.28,8.593,0.278,12.892     c0,1.127-0.352,2.131-1.592,2.447c-1.299,0.331-2.177-0.339-2.793-1.4c-2.098-3.612-3.471-7.554-5.165-11.351     c-1.736-3.891-3.749-7.597-7.289-10.206c-2.674-1.971-4.31-1.648-5.669,1.363c-2.225,4.927-3.068,10.258-4.122,15.499     c-2.098,10.434-3.987,20.911-5.971,31.368c-0.184,0.968-0.417,1.928-0.662,2.883c-0.288,1.12-0.886,1.952-2.179,1.899     c-1.262-0.052-1.956-0.871-2.088-2.014c-0.299-2.586-0.579-5.183-0.682-7.782c-0.444-11.122-0.594-22.266-2.66-33.256     c-0.854-4.544-2.309-8.876-4.916-12.738c-2.697-3.994-5.857-4.658-9.987-2.15c-2.211,1.343-3.896,3.248-5.332,5.359     c-2.736,4.022-5.418,8.081-8.119,12.126c-0.729,1.091-1.524,2.244-3.039,1.587c-1.613-0.699-1.318-2.189-0.983-3.495     c1.244-4.847,2.63-9.659,3.807-14.522c0.829-3.427,1.269-6.904,0.743-10.471c-0.655-4.452-3.46-6.547-7.897-5.606     c-4.279,0.907-8.034,3.022-11.695,5.296c-8.273,5.141-15.966,11.121-23.975,16.645c-2.38,1.641-4.743,3.307-7.153,4.903     c-1.079,0.714-2.412,1.406-3.453,0.206c-1.155-1.332-0.106-2.504,0.845-3.483c6.833-7.035,13.419-14.291,19.436-22.039     c3.249-4.184,6.21-8.563,7.892-13.671c2.3-6.982-1.296-12.345-8.667-13.122c-4.188-0.441-8.293,0.014-12.402,0.635     c-3.275,0.495-6.541,1.059-9.806,1.62c-1.428,0.245-2.819,0.254-3.282-1.414c-0.451-1.621,0.696-2.441,2.002-3.029     c5.725-2.576,11.455-5.147,16.459-9.03c2.61-2.025,4.629-4.533,5.843-7.635c1.491-3.812,0.731-7.201-2.211-10.049     c-4.229-4.093-9.354-6.768-14.664-9.087c-10.611-4.636-21.51-8.469-32.739-11.334c-0.614-0.157-1.232-0.31-1.83-0.518     c-1.327-0.462-2.229-1.286-1.982-2.823c0.233-1.451,1.218-2.237,2.624-2.328c1.544-0.1,3.1-0.023,4.651-0.023     C129.906,143.54,129.909,143.477,129.911,143.414z M309.168,261.044c0.123-0.087,0.246-0.174,0.369-0.261     c-0.015-0.207,0.007-0.426-0.051-0.62c-2.61-8.829-4.014-17.874-4.768-27.027c-0.327-3.966-0.172-7.906,1.442-11.638     c1.423-3.291,3.978-5.013,7.539-5.266c2.28-0.162,4.494,0.127,6.665,0.867c3.843,1.311,7.307,3.316,10.619,5.624     c0.458,0.319,0.853,0.886,1.627,0.825c-0.328-1.708-1.107-3.063-1.693-4.49c-1.816-4.428-3.966-8.748-3.941-13.717     c0.037-7.512,5.128-11.894,12.571-10.871c6.055,0.832,11.804,2.718,17.487,4.851c5.128,1.925,10.089,4.247,15.095,6.675     c0.049-0.796-0.476-1.008-0.814-1.288c-4.129-3.427-7.98-7.155-11.748-10.964c-4.516-4.566-8.974-9.19-11.689-15.156     c-3.229-7.096-0.208-14.39,7.151-16.935c4.456-1.541,9.082-1.899,13.772-1.456c0.911,0.086,1.826,0.137,2.74,0.203     c-5.442-3.22-10.636-6.444-14.808-11.068c-3.761-4.168-4.043-9.643-0.79-14.186c2.314-3.232,5.595-5.067,9.168-6.532     c5.812-2.384,11.864-3.838,18.666-4.751c-6.445-0.514-12.283-0.99-18-2.286c-6.678-1.514-12.996-3.817-17.906-8.921     c-2.818-2.929-3.686-6.389-2.929-10.334c0.785-4.086,3.722-6.704,6.457-9.434c1.941-1.938,4.242-3.477,6.353-5.29     c-3.1,0.681-6.123,1.327-9.194,1.684c-11.328,1.317-19.609-4.301-18.697-18.443c0.407-6.315,2.624-12.242,5.042-18.056     c1.277-3.072,2.559-6.142,3.839-9.213c-6.164,6.6-11.931,13.433-17.974,20.025c-3.079,3.359-6.428,6.341-10.408,8.551     c-6.64,3.687-13.163,1.586-16.447-5.224c-1.234-2.56-1.887-5.296-2.561-8.041c-0.751-3.062-0.577-6.243-1.369-9.331     c-0.461,0.833-0.732,1.689-1.038,2.532c-1.808,4.977-3.641,9.952-6.995,14.156c-4.165,5.222-9.203,5.937-14.655,2.16     c-1.991-1.379-3.637-3.109-5.161-4.972c-5.25-6.413-8.16-13.944-10.452-21.778c-1.788-6.111-3.209-12.309-4.443-18.568     c-0.555,4.994-0.976,9.974-1.413,14.953c-0.64,7.299-1.083,14.63-2.877,21.771c-1.222,4.865-2.621,9.667-5.816,13.719     c-3.089,3.918-7.36,5.261-12.045,3.549c-3.277-1.198-6.153-3.129-8.734-5.448c-3.436-3.087-6.567-6.483-9.652-10.302     c-0.21,1.466,0.286,2.438,0.545,3.434c1.548,5.95,2.901,11.918,2.613,18.137c-0.337,7.296-4.956,10.895-12.041,9.34     c-2.356-0.517-4.582-1.371-6.761-2.398c-6.269-2.956-12.092-6.67-17.893-10.426c-0.65-0.421-1.315-0.817-1.973-1.224     c2.266,3.212,4.76,6.084,7.087,9.086c3.068,3.956,6.114,7.965,7.856,12.727c2.512,6.869-0.291,12.338-7.297,14.531     c-1.909,0.597-3.858,0.757-5.843,0.81c-4.607,0.123-9.172-0.356-13.742-0.997c2.516,2.047,5.101,3.877,7.591,5.826     c3.947,3.089,7.825,6.255,10.463,10.647c2.541,4.231,2.069,8.683-1.333,12.207c-1.439,1.49-3.089,2.667-4.957,3.555     c-4.493,2.136-9.313,2.86-14.194,2.864c-5.456,0.005-10.912-0.375-16.922-0.609c5.778,2.142,11.147,3.834,16.327,6.035     c6.768,2.876,13.398,5.963,19.062,10.791c5.091,4.34,6.541,9.743,4.182,15.976c-1.389,3.669-3.812,6.577-6.87,8.948     c-1.794,1.391-3.729,2.599-5.966,4.142c1.146-0.094,1.844-0.122,2.534-0.212c3.826-0.498,7.602-0.266,11.302,0.836     c7.382,2.199,10.808,7.888,9.317,15.455c-1.029,5.221-3.569,9.758-6.459,14.138c-1.873,2.84-4.142,5.387-6.104,8.172     c3.381-2.106,6.604-4.375,9.92-6.497c5.001-3.201,10.108-6.206,16.115-7.169c6.209-0.994,11.216,2.424,12.499,8.549     c0.319,1.521,0.413,3.061,0.481,4.617c0.142,3.263-0.615,6.425-0.992,9.651c1.848-2.504,3.823-4.772,6.276-6.617     c5.641-4.241,11.935-3.411,16.107,2.229c2.808,3.796,4.598,8.08,5.669,12.655c1.711,7.303,2.42,14.73,2.62,22.215     c0.025,0.938-0.133,1.927,0.543,2.894c1.182-7.367,2.4-14.595,3.927-21.765c0.823-3.866,1.715-7.731,3.618-11.239     c2.51-4.625,6.565-5.638,11.014-2.847c2.362,1.483,4.263,3.434,5.91,5.678c2.126,2.898,3.541,6.173,5.137,9.403     c0.095-1.367,0.017-2.683-0.086-3.997c-0.388-4.947-0.309-9.881,0.935-14.704c1.47-5.703,5.798-7.544,11.056-4.868     c3.104,1.58,5.438,4.044,7.429,6.787c4.147,5.714,7.679,11.818,10.993,18.049C307.279,257.795,308.242,259.409,309.168,261.044z"/>
			<path d="M262.09,217.232c-37.122,0.03-67.549-30.432-67.555-67.675c-0.007-38.562,30.737-67.695,67.592-67.711     c37.32-0.016,67.626,29.955,67.819,66.541C330.161,189.103,297.826,217.336,262.09,217.232z M200.476,149.532     c-0.539,33.524,26.911,61.416,59.974,62.673c37.604,1.431,65.314-28.793,65.576-61.229c0.292-36.171-27.452-64.496-62.696-64.469     C226.21,86.537,199.873,117.64,200.476,149.532z"/>
			<g>
				<path d="M294.865,187.242c-7.136-0.029-12.765-5.436-12.755-12.25c0.011-7.013,6.006-12.977,12.99-12.922      c6.877,0.053,12.432,5.795,12.321,12.735C307.308,181.885,301.871,187.271,294.865,187.242z M302.907,174.539      c0.028-5.018-3.873-8.925-8.933-8.948c-5.062-0.022-8.741,3.544-8.786,8.518c-0.046,5.081,4.074,9.432,8.889,9.388      C298.9,183.455,302.88,179.416,302.907,174.539z"/>
				<path d="M230.265,187.243c-6.779-0.068-12.28-5.697-12.256-12.541c0.025-7.071,5.702-12.742,12.641-12.628      c6.86,0.113,12.715,6.124,12.679,13.014C243.293,181.924,237.496,187.316,230.265,187.243z M231.742,165.595      c-5.02-0.085-9.104,3.662-9.206,8.447c-0.113,5.309,3.604,9.259,8.756,9.307c4.949,0.046,8.88-3.889,8.953-8.962      C240.317,169.38,236.739,165.68,231.742,165.595z"/>
				<path d="M269.974,179.885c-0.536,4.425-0.768,9.433-2.482,14.193c-0.143,0.397-0.271,0.803-0.455,1.182      c-1.119,2.299-2.546,4.385-5.357,4.524c-2.924,0.145-4.964-1.677-6.245-4.014c-3.159-5.76-3.499-11.931-1.992-18.242      c0.243-1.019,0.615-2.214,1.959-2.125c1.376,0.091,1.398,1.333,1.592,2.38c0.58,3.126-0.059,6.335,0.71,9.455      c0.54,2.191,1.024,4.389,2.128,6.386c0.441,0.799,0.842,1.776,1.879,1.824c1.205,0.056,1.595-1.068,1.998-1.92      c1.628-3.439,1.775-7.209,2.312-10.89c0.244-1.669,0.466-3.342,0.735-5.007c0.163-1.007,0.442-2.069,1.744-1.968      c1.288,0.1,1.389,1.206,1.468,2.211C270.006,178.362,269.974,178.858,269.974,179.885z"/>
				<path d="M309.551,141.862c0.031-5.918,1.907-11.344,4.446-16.589c0.31-0.641,0.73-1.258,1.568-1.216      c0.808,0.041,0.87,0.727,1.12,1.321c2.09,4.957,3.651,10.049,4.33,15.407c0.348,2.749-0.145,5.34-1.191,7.839      c-0.82,1.961-2.279,3.254-4.495,3.312c-2.179,0.057-3.503-1.322-4.423-3.091C309.773,146.667,309.52,144.285,309.551,141.862z       M315.229,131.006c-1.725,4.595-3.102,9.181-2.428,14.073c0.212,1.537,0.593,3.448,2.371,3.547      c1.64,0.092,2.026-1.801,2.297-3.134C318.503,140.412,317.106,135.663,315.229,131.006z"/>
				<path d="M214.625,142.801c0.09,2.945-0.364,5.781-1.757,8.398c-1.25,2.348-3.152,3.46-5.267,3.109      c-2.367-0.393-3.345-2.147-3.916-4.222c-0.572-2.081-0.481-4.205-0.15-6.298c0.748-4.73,2.694-9.038,4.933-13.213      c1.084-2.022,2.195-1.999,3.299,0.005C213.859,134.38,214.521,138.531,214.625,142.801z M209.757,136.41      c-1.267,1.957-2.183,3.975-2.734,6.154c-0.557,2.204-0.779,4.423-0.24,6.653c0.195,0.805,0.472,1.731,1.541,1.736      c0.879,0.004,1.396-0.679,1.66-1.417C211.552,145.16,211.269,140.793,209.757,136.41z"/>
				<path d="M303.258,152.233c-0.008,0.757-0.256,1.392-0.982,1.725c-0.854,0.392-1.561,0.036-2.016-0.651      c-0.58-0.875-1.05-1.827-1.518-2.77c-3.681-7.407-12.667-9.383-19.264-4.271c-1.611,1.249-2.689,2.843-3.611,4.607      c-0.469,0.898-0.883,2.242-2.254,1.579c-1.198-0.58-0.773-1.804-0.489-2.83c1.66-5.988,6.797-10.005,13.222-10.32      c2.403-0.118,4.777,0,7.086,0.812C298.676,141.955,303.273,147.598,303.258,152.233z"/>
				<path d="M238.151,138.442c5.564,0.338,10.374,3.189,13.137,9.155c0.518,1.117,0.988,2.416-0.292,3.23      c-1.344,0.855-2.228-0.243-2.929-1.238c-2.027-2.874-4.322-5.369-7.902-6.305c-4.899-1.281-10.594,1.11-13.861,5.872      c-0.278,0.406-0.512,0.841-0.782,1.253c-0.565,0.862-1.049,2.141-2.36,1.483c-1.195-0.6-0.743-1.819-0.459-2.839      C224.32,143.238,230.898,138.45,238.151,138.442z"/>
				<path d="M268.256,101.894c0.01,2.544-0.475,4.424-1.509,6.159c-1.105,1.854-2.732,2.847-4.887,2.687      c-2.049-0.152-3.26-1.497-3.988-3.309c-1.081-2.693-1.166-5.452-0.547-8.272c0.638-2.906,1.595-5.687,3.154-8.226      c1.169-1.903,2.172-1.986,3.558-0.234C266.744,94.123,267.829,98.162,268.256,101.894z M262.698,93.64      c-2.236,3.78-2.937,7.339-2.234,11.113c0.207,1.11,0.652,2.561,2.107,2.534c1.264-0.023,1.774-1.282,2.087-2.371      C265.789,100.995,264.183,97.578,262.698,93.64z"/>
				<path d="M231.84,129.247c-1.398,0.047-2.803,0.019-4.176-0.355c-0.774-0.211-1.552-0.475-1.502-1.468      c0.05-1.009,0.896-1.199,1.662-1.283c2.441-0.269,4.894-0.44,7.335-0.712c4.408-0.491,8.373-2.314,12.322-4.175      c0.509-0.24,1.011-0.496,1.529-0.713c0.791-0.332,1.719-0.733,2.277,0.183c0.631,1.036-0.203,1.712-0.988,2.22      C244.677,126.58,238.806,129.512,231.84,129.247z"/>
				<path d="M298.164,131.847c-2.856,0.017-5.586-0.644-8.224-1.659c-3.48-1.34-6.846-2.937-10.068-4.825      c-0.749-0.439-1.577-0.975-1.167-1.966c0.485-1.172,1.567-0.767,2.373-0.449c2.354,0.927,4.65,2,6.994,2.951      c3.791,1.538,7.635,2.881,11.813,2.851c0.551-0.004,1.11,0.154,1.654,0.286c0.509,0.124,0.894,0.434,0.961,0.991      c0.079,0.648-0.277,1.058-0.82,1.335C300.565,131.93,299.359,131.844,298.164,131.847z"/>
			</g>
		</g>
	</g>
</g>
<g>
</g>
<g>
</g>
<g>
</g>
<g>
</g>
<g>
</g>
<g>
</g>
<g>
</g>
<g>
</g>
<g>
</g>
<g>
</g>
<g>
</g>
<g>
</g>
<g>
</g>
<g>
</g>
<g>
</g>
</svg>
