<?xml version="1.0" encoding="UTF-8"?>
<!-- Generator: Adobe Illustrator 27.2.0, SVG Export Plug-In . SVG Version: 6.00 Build 0)  -->
<svg xmlns="http://www.w3.org/2000/svg" xmlns:xlink="http://www.w3.org/1999/xlink" version="1.1" id="Capa_1" x="0px" y="0px" viewBox="0 0 512 512" style="enable-background:new 0 0 512 512;" xml:space="preserve" width="512" height="512">
<g>
	<g>
		<path style="fill:#FFFFFF;" d="M255.19,512c-4.719,0-9.372-0.301-13.83-0.894c-10.532-1.404-20.419-4.574-29.498-9.449    c-4.706,2.282-9.213,3.402-13.631,3.402c-4.607,0-8.886-1.225-12.717-3.645c-11.403-7.205-16.262-23.044-15.224-49.742    c-4.446-13.233-6.033-27.752-4.592-42.18c1.205-12.035,4.233-24.177,7.162-35.918c2.014-8.073,3.971-15.921,5.264-23.357    c-24.119,11.157-42.694,16.816-55.303,16.816c-18.001,0-25.21-11.154-25.955-21.592c-0.66-9.231,2.759-23.316,30.263-57.065    c-1.277-0.354-2.562-0.707-3.849-1.061c-22.557-6.201-48.125-13.229-64.139-32.928c-16.676-20.483-19.97-52.101-8.803-84.57    c8.903-25.805,26.131-51.478,51.209-76.321c6.489-6.422,13.489-12.73,20.806-18.752l0.384-0.313    c1.275-1.038,2.57-2.089,3.885-3.101c6.891-5.481,14.457-10.933,22.325-16.079c1.469-0.971,2.993-1.956,4.542-2.918    c25.317-15.965,52.752-28.053,79.969-35.284c0.588-3.53,2.364-6.959,6.338-9.489c2.227-1.417,4.799-2.166,7.437-2.166    c3.254,0,5.941,1.016,8.18,2.575c1.568-3.322,4.269-6.104,8.825-7.423C265.424,0.204,266.857,0,268.091,0    c7.199,0,11.15,4.375,13.438,9.444c0.429-0.02,0.856-0.038,1.284-0.055c2.476-4.822,6.533-9.156,13.57-9.156    c0.198,0,0.433,0.005,0.632,0.015c3.891,0.174,7.564,2.008,10.07,5.031c1.278,1.542,2.145,3.215,2.708,4.975    c12.826,1.376,24.973,4.147,36.245,8.278c16.76,6.147,32.505,16.423,46.948,30.625c6.845,0.184,12.418,5.617,12.744,12.488    l0.074,1.552c9.673,11.766,18.638,25.47,26.726,40.85c3.565,2.357,5.879,6.395,5.886,10.921c0,0.281-0.008,0.559-0.025,0.834    c4.748,10.066,9.107,20.685,12.991,31.657c5.924,16.757,10.327,34.145,13.091,51.7c0.101,0.474,0.179,0.952,0.232,1.435    c1.783,11.501,2.889,23.22,3.289,34.846c0.065,1.373,0.113,2.928,0.137,4.484c0.637,30.784-3.497,61.59-12.289,91.499    c-12.985,44.185-39.479,87.825-73.061,120.552c-0.961,19.283-4.433,53.121-27.733,53.69l-0.595,0.009    c-8.859-0.002-17.225-4.638-25.369-14.11c-4.175,2.218-8.359,4.262-12.518,6.113C295.539,507.046,274.314,512,255.19,512z"/>
	</g>
	<g>
		<g>
			<path style="fill:#A27CFF;" d="M443.094,327.851c-18.948,64.473-68.319,129.645-132.027,157.969     c-22.555,10.053-46.617,15.277-68.144,12.414c-41.612-5.551-68.713-43.535-64.342-87.311     c3.169-31.646,20.697-66.724,11.299-94.196c-7.868-23.014-32.455-33.242-56.234-39.973c-23.8-6.71-49.677-12.283-64.495-30.51     c-14.556-17.878-15.583-45.852-6.578-72.035c9.026-26.161,27.122-50.551,48.038-71.27c6.338-6.272,13.004-12.261,19.91-17.943     c1.29-1.049,2.601-2.12,3.934-3.147c6.928-5.507,14.118-10.665,21.505-15.495c1.421-0.94,2.841-1.858,4.284-2.754     c58.572-36.935,128.049-52.081,181.114-32.63c49.174,18.031,80.536,73.084,97.496,120.99c5.617,15.889,9.9,32.63,12.589,49.939     c0.044,0.109,0.066,0.24,0.066,0.371c1.727,11.015,2.819,22.292,3.213,33.744c0.065,1.399,0.109,2.819,0.131,4.24     C455.442,268.755,451.792,298.259,443.094,327.851z"/>
		</g>
		<g>
			<g>
				<g>
					<path style="fill:#2F2444;" d="M224.389,150.409l-34.291-14.534l3.256,37.11l-19.189-31.93l-19.211,31.93l3.256-37.11       l-34.291,14.534l24.412-28.106l-36.28-8.392l36.28-8.414l-17.812-20.5c1.29-1.049,2.601-2.12,3.934-3.147l23.757,10.075       l-2.251-25.571c1.421-0.94,2.841-1.858,4.284-2.754l13.922,23.145l19.189-31.909l-3.256,37.088l34.291-14.534l-24.412,28.106       l36.279,8.414l-36.279,8.392L224.389,150.409z"/>
				</g>
				<g>
					<path style="fill:#2F2444;" d="M452.054,274.655l-34.291-14.534l3.256,37.11l-19.189-31.931l-19.211,31.931l3.257-37.11       l-34.291,14.534l24.412-28.106l-36.279-8.392l36.279-8.414l-24.412-28.106l34.291,14.534l-3.257-37.088l19.211,31.93       l19.189-31.93l-3.256,37.088l32.859-13.651h0.093l-2.418,2.604l-20.656,24.619l27.079,6.272       c0.065,1.399,0.109,2.819,0.131,4.24l-27.21,6.294L452.054,274.655z"/>
				</g>
			</g>
			<g>
				<g>
					<polygon style="fill:#FBEEE5;" points="389.554,109.94 392.466,62.391 394.73,110.264 406.698,100.56 399.582,111.881        425.136,115.116 400.229,118.351 407.345,128.378 395.377,121.909 392.142,163.312 389.554,122.555 377.263,127.731        385.026,118.351 353.973,114.145 384.702,112.852 377.586,102.177      "/>
				</g>
				<g>
					<polygon style="fill:#FBEEE5;" points="284.649,435.071 287.561,387.522 289.825,435.394 301.793,425.69 294.677,437.012        320.231,440.246 295.324,443.481 302.44,453.508 290.472,447.039 287.237,488.443 284.649,447.686 272.358,452.862        280.121,443.481 249.068,439.276 279.797,437.982 272.681,427.308      "/>
				</g>
				<g>
					<polygon style="fill:#FBEEE5;" points="141.768,196.568 144.679,149.019 146.943,196.892 158.912,187.188 151.795,198.509        177.349,201.744 152.442,204.979 159.558,215.006 147.59,208.537 144.356,249.94 141.768,209.184 129.476,214.359        137.239,204.979 106.187,200.773 136.916,199.48 129.8,188.805      "/>
				</g>
			</g>
			<g>
				<g>
					<g>
						<g>
							<path style="fill:#2F2444;" d="M263.041,60.043c0,0-20.46-38.688-16.368-41.292c4.092-2.604,18.972,39.432,18.972,39.432         L263.041,60.043z"/>
						</g>
						<g>
							<path style="fill:#2F2444;" d="M271.804,57.5c0,0-8.744-42.883-4.084-44.23c4.66-1.347,7.107,43.178,7.107,43.178         L271.804,57.5z"/>
						</g>
						<g>
							<path style="fill:#2F2444;" d="M285.936,56.676c0,0,5.473-43.422,10.318-43.203c4.845,0.219-7.118,43.176-7.118,43.176         L285.936,56.676z"/>
						</g>
					</g>
					<g>
						<path style="fill:#EBB1FF;" d="M430.44,343.871c-19.626,14.293-51.622-10.447-63.664-20.915        c-1.093-0.94-2.011-1.77-2.732-2.448c-1.333-1.202-2.054-1.923-2.054-1.923s5.835,45.24,7.562,89.584        c0.022,0.743,0.066,1.464,0.087,2.207c1.486,41.7-0.787,81.957-15.08,82.307c-15.758,0.393-32.127-33.198-44.082-64.888        c-0.262-0.699-0.525-1.399-0.787-2.12c-10.141-27.406-16.894-52.78-16.894-52.78s-17.484,32.805-38.618,63.992        c-0.393,0.612-0.809,1.202-1.224,1.814c-21.528,31.493-46.508,60.648-60.605,51.753c-11.168-7.059-10.84-35.274-6.338-66.833        c0.109-0.743,0.219-1.486,0.328-2.251c7.038-47.732,23.123-102.042,23.123-102.042s-6.469,3.737-16.107,8.786        c-0.634,0.328-1.289,0.677-1.945,1.005c-28.281,14.643-80.012,38.181-81.629,15.517        c-1.158-16.217,31.908-55.228,64.036-89.038c0.787-0.852,1.595-1.683,2.404-2.535c19.67-20.588,38.64-38.946,48.759-48.606        c0.371-0.328,0.721-0.656,1.049-0.983v-0.022c4.131-3.912,6.513-6.141,6.513-6.141l96.709-10.403        c0,0,4.546,5.027,11.693,13.266c0.765,0.874,1.574,1.792,2.382,2.732c6.447,7.453,14.599,17.025,23.385,27.69        c0.546,0.699,1.137,1.399,1.705,2.098C402.99,274.94,445.695,332.79,430.44,343.871z"/>
					</g>
					<g>
						<path style="fill:#2F2444;" d="M343.325,202.905c-5.289,8.786-12.96,16.238-21.899,21.331        c-15.801,8.982-35.034,10.928-52.824,7.278c-13.55-2.798-27.384-9.179-36.979-19.342c-2.623-2.775-4.415-5.704-5.595-8.698        v-0.022c4.131-3.912,6.513-6.141,6.513-6.141l96.709-10.403C329.25,186.907,334.802,193.048,343.325,202.905z"/>
					</g>
					<g>
						<path style="fill:#EBB1FF;" d="M381.331,135.941c0,44.585-45.787,80.711-102.304,80.711        c-32.127,0-60.801-11.693-79.531-29.963c-1.224-1.202-2.404-2.426-3.54-3.672c-12.086-13.244-19.211-29.505-19.211-47.076        c0-34.509,27.428-63.948,66.002-75.51c2.841-0.852,5.748-1.617,8.699-2.251c8.786-1.945,18.03-2.972,27.581-2.972        C335.545,55.208,381.331,91.356,381.331,135.941z"/>
					</g>
					<g>
						<g>
							<g>
								<path style="fill:#2F2444;" d="M251.446,58.18c-21.549,10.556-39.492,28.696-49.546,50.485          c-0.459,1.005-0.918,2.033-1.333,3.038c-1.442,3.409-2.688,6.884-3.715,10.425c-0.612,2.12-1.158,4.24-1.617,6.382          c-0.197,0.831-0.35,1.683-0.503,2.513c-3.541,18.49-1.705,37.941,4.764,55.665c-1.224-1.202-2.404-2.426-3.54-3.672          c-5.224-16.391-6.622-34.029-3.65-50.944c0.153-0.874,0.306-1.727,0.503-2.579c0.525-2.688,1.18-5.354,1.945-7.977          c0.809-2.754,1.727-5.464,2.776-8.13v-0.022c0.415-1.093,0.874-2.164,1.333-3.235c8.873-20.588,24.609-38.181,43.885-49.699          C245.589,59.579,248.495,58.814,251.446,58.18z"/>
							</g>
						</g>
						<g>
							<g>
								<path style="fill:#2F2444;" d="M193.355,328.113c-0.634,0.328-1.289,0.677-1.945,1.005          c-4.655-7.715-8.458-15.889-11.321-24.368c-0.24-0.721-0.481-1.421-0.699-2.142c-1.574-4.917-2.841-9.944-3.781-15.036          c-0.153-0.787-0.306-1.552-0.415-2.339c-1.639-9.769-2.12-19.713-1.377-29.636c0.787-0.852,1.595-1.683,2.404-2.535          c-1.005,10.272-0.656,20.631,0.962,30.794c0.109,0.787,0.24,1.574,0.393,2.36c0.918,5.114,2.142,10.185,3.715,15.146          c0.219,0.721,0.459,1.443,0.699,2.164C184.831,312.093,188.634,320.355,193.355,328.113z"/>
							</g>
						</g>
						<g>
							<g>
								<path style="fill:#2F2444;" d="M254.178,436.886c-0.393,0.612-0.809,1.202-1.224,1.814          c-8.043-5.311-16.96-9.376-26.292-12.064c-0.699-0.219-1.421-0.415-2.142-0.59c-5.267-1.399-10.622-2.382-16.042-2.885          c-0.721-0.087-1.464-0.131-2.207-0.197c-6.775-0.503-13.572-0.306-20.26,0.656c0.109-0.743,0.219-1.486,0.328-2.251          c6.753-0.918,13.638-1.093,20.478-0.546c0.721,0.044,1.442,0.109,2.186,0.197c5.311,0.525,10.6,1.464,15.779,2.841          c0.699,0.175,1.421,0.371,2.12,0.59C236.563,427.205,245.829,431.379,254.178,436.886z"/>
							</g>
						</g>
						<g>
							<g>
								<path style="fill:#2F2444;" d="M369.639,410.376c-2.251-0.131-4.415-0.109-6.382-0.022          c-4.48,0.197-8.939,0.678-13.353,1.464c-0.699,0.131-1.421,0.262-2.142,0.415c-5.005,1.005-9.944,2.382-14.752,4.13          c-0.677,0.241-1.377,0.503-2.054,0.765c-7.19,2.776-14.075,6.36-20.478,10.665c-0.262-0.699-0.525-1.399-0.787-2.12          c6.469-4.305,13.419-7.868,20.675-10.665c0.678-0.262,1.377-0.503,2.054-0.743c4.83-1.748,9.791-3.147,14.84-4.152          c0.721-0.153,1.443-0.284,2.164-0.415c4.546-0.809,9.135-1.333,13.747-1.53c1.945-0.087,4.109-0.131,6.382,0          C369.573,408.912,369.617,409.633,369.639,410.376z"/>
							</g>
						</g>
						<g>
							<g>
								<path style="fill:#2F2444;" d="M362.448,279.726c-0.131,14.512,1.311,29.046,4.327,43.23          c-1.093-0.94-2.011-1.77-2.732-2.448c-2.797-14.206-4.043-28.696-3.759-43.186c0.022-1.027,0.044-2.054,0.087-3.082          c0.219-6.688,0.787-13.353,1.705-19.976c0.087-0.896,0.219-1.77,0.371-2.644v-0.022c1.027-7.081,2.448-14.097,4.262-21.003          c0.546,0.699,1.137,1.399,1.705,2.098c-1.727,6.863-3.081,13.812-4.065,20.828c-0.131,0.94-0.24,1.879-0.35,2.819          c-0.852,6.688-1.355,13.419-1.508,20.15C362.47,277.562,362.448,278.655,362.448,279.726z"/>
							</g>
						</g>
						<g>
							<g>
								<path style="fill:#2F2444;" d="M158.716,299.988c-0.319,0-0.635-0.139-0.852-0.407c-0.379-0.47-0.305-1.157,0.164-1.537          c9.566-7.725,19.729-14.905,30.208-21.341c0.512-0.314,1.186-0.156,1.504,0.36c0.316,0.514,0.155,1.188-0.36,1.504          c-10.399,6.386-20.485,13.511-29.979,21.179C159.199,299.909,158.957,299.988,158.716,299.988z"/>
							</g>
						</g>
						<g>
							<g>
								<path style="fill:#2F2444;" d="M169.816,312.192c-0.312,0-0.621-0.132-0.837-0.388c-0.389-0.462-0.33-1.151,0.131-1.54          c7.857-6.617,16.597-12.092,25.979-16.272c0.556-0.25,1.196,0.002,1.443,0.553c0.247,0.552-0.002,1.197-0.553,1.443          c-9.195,4.098-17.761,9.462-25.46,15.947C170.314,312.108,170.064,312.192,169.816,312.192z"/>
							</g>
						</g>
						<g>
							<g>
								<path style="fill:#2F2444;" d="M203.275,443.358c-0.065,0-0.132-0.005-0.198-0.018c-0.593-0.109-0.986-0.679-0.877-1.272          c2.007-10.915,4.577-21.859,7.638-32.531c0.166-0.582,0.777-0.912,1.351-0.749c0.581,0.166,0.916,0.771,0.749,1.351          c-3.04,10.604-5.594,21.48-7.589,32.324C204.252,442.99,203.793,443.358,203.275,443.358z"/>
							</g>
						</g>
						<g>
							<g>
								<path style="fill:#2F2444;" d="M224.009,444.487c-0.027,0-0.052-0.001-0.079-0.003c-0.602-0.043-1.055-0.566-1.012-1.167          c0.709-9.879,1.775-19.863,3.167-29.675c0.085-0.597,0.636-1.008,1.236-0.928c0.598,0.085,1.013,0.638,0.928,1.236          c-1.386,9.762-2.446,19.696-3.152,29.524C225.057,444.047,224.577,444.487,224.009,444.487z"/>
							</g>
						</g>
						<g>
							<g>
								<path style="fill:#2F2444;" d="M335.038,432.764c-0.534,0-1.001-0.392-1.08-0.935c-1.463-10.028-4.084-19.893-7.789-29.32          c-0.221-0.562,0.055-1.196,0.617-1.417c0.558-0.217,1.195,0.055,1.417,0.617c3.767,9.584,6.431,19.611,7.917,29.804          c0.087,0.598-0.327,1.152-0.923,1.239C335.144,432.761,335.09,432.764,335.038,432.764z"/>
							</g>
						</g>
						<g>
							<g>
								<path style="fill:#2F2444;" d="M352.397,428.285c-0.495,0-0.944-0.339-1.063-0.843l-6.687-28.46          c-0.138-0.587,0.226-1.175,0.814-1.314c0.586-0.133,1.175,0.225,1.314,0.814l6.687,28.46          c0.138,0.587-0.226,1.175-0.814,1.314C352.564,428.275,352.481,428.285,352.397,428.285z"/>
							</g>
						</g>
						<g>
							<g>
								<path style="fill:#2F2444;" d="M374.029,294.418c-0.361,0-0.713-0.178-0.922-0.505c-6.226-9.741-13.833-18.497-22.61-26.024          c-0.458-0.393-0.51-1.082-0.117-1.541c0.394-0.459,1.084-0.51,1.541-0.117c8.939,7.666,16.686,16.585,23.028,26.507          c0.324,0.508,0.176,1.184-0.333,1.509C374.435,294.362,374.231,294.418,374.029,294.418z"/>
							</g>
						</g>
						<g>
							<g>
								<path style="fill:#2F2444;" d="M373.478,268.741c-0.383,0-0.755-0.202-0.955-0.561          c-4.435-7.957-10.653-15.021-17.984-20.429c-0.486-0.359-0.589-1.043-0.23-1.528c0.359-0.485,1.044-0.589,1.528-0.23          c7.58,5.593,14.009,12.897,18.594,21.125c0.294,0.527,0.104,1.192-0.423,1.485          C373.841,268.696,373.658,268.741,373.478,268.741z"/>
							</g>
						</g>
						<g>
							<g>
								<path style="fill:#2F2444;" d="M188.778,119.675c-0.29,0-0.581-0.115-0.796-0.344c-0.413-0.44-0.393-1.131,0.047-1.545          c5.648-5.312,12.579-9.229,20.043-11.326c0.586-0.16,1.184,0.175,1.348,0.757c0.163,0.582-0.176,1.185-0.757,1.348          c-7.126,2.002-13.744,5.741-19.136,10.813C189.316,119.577,189.047,119.675,188.778,119.675z"/>
							</g>
						</g>
						<g>
							<g>
								<path style="fill:#2F2444;" d="M183.757,136.386c-0.372,0-0.735-0.19-0.94-0.534c-0.308-0.518-0.139-1.189,0.38-1.498          c5.526-3.294,11.447-5.915,17.6-7.791c0.579-0.173,1.189,0.149,1.365,0.727c0.175,0.577-0.149,1.189-0.727,1.365          c-5.986,1.824-11.745,4.373-17.12,7.578C184.14,136.337,183.947,136.386,183.757,136.386z"/>
							</g>
						</g>
					</g>
					<g>
						<g>
							<g>
								<path style="fill:#A27CFF;" d="M281.637,141.514c0,12.851-8.476,23.725-20.129,27.364c-0.021,0.021-0.042,0.021-0.063,0.021          c-2.671,0.82-5.511,1.262-8.455,1.262c-1.725,0-3.407-0.147-5.027-0.463c-13.419-2.356-23.62-14.092-23.62-28.184          c0-14.092,10.201-25.828,23.62-28.184c1.62-0.315,3.302-0.463,5.027-0.463c2.945,0,5.784,0.442,8.455,1.262          c0.021,0,0.042,0,0.063,0.021C273.16,117.789,281.637,128.663,281.637,141.514z"/>
							</g>
							<g>
								<g>
									<path style="fill:#2F2444;" d="M228.55,141.514c0-15.354,12.494-27.848,27.847-27.848c1.725,0,3.407,0.168,5.048,0.463           c-2.671-0.82-5.511-1.262-8.455-1.262c-1.725,0-3.407,0.147-5.027,0.463c-12.136,3.618-20.991,14.891-20.991,28.184           c0,13.314,8.855,24.566,20.991,28.184c1.62,0.316,3.302,0.463,5.027,0.463c2.945,0,5.784-0.442,8.455-1.262           c-1.641,0.294-3.323,0.463-5.048,0.463C241.043,169.362,228.55,156.868,228.55,141.514z"/>
								</g>
							</g>
						</g>
						<g>
							<g>
								<g>
									
										<rect x="255.969" y="128.681" transform="matrix(0.6693 -0.743 0.743 0.6693 -20.5528 237.9265)" style="fill:#2F2444;" width="2.103" height="26.744"/>
								</g>
							</g>
							<g>
								<g>
									
										<rect x="243.648" y="141.001" transform="matrix(0.669 -0.7433 0.7433 0.669 -20.508 238.0551)" style="fill:#2F2444;" width="26.744" height="2.103"/>
								</g>
							</g>
						</g>
					</g>
					<g>
						<g>
							<g>
								<path style="fill:#A27CFF;" d="M372.822,141.514c0,12.851-8.476,23.725-20.129,27.364c-0.021,0.021-0.042,0.021-0.063,0.021          c-2.671,0.82-5.511,1.262-8.455,1.262c-1.725,0-3.407-0.147-5.027-0.463c-13.419-2.356-23.62-14.092-23.62-28.184          c0-14.092,10.201-25.828,23.62-28.184c1.62-0.315,3.302-0.463,5.027-0.463c2.945,0,5.784,0.442,8.455,1.262          c0.021,0,0.042,0,0.063,0.021C364.346,117.789,372.822,128.663,372.822,141.514z"/>
							</g>
							<g>
								<g>
									<path style="fill:#2F2444;" d="M319.735,141.514c0-15.354,12.494-27.848,27.848-27.848c1.725,0,3.407,0.168,5.048,0.463           c-2.671-0.82-5.511-1.262-8.455-1.262c-1.725,0-3.407,0.147-5.027,0.463c-12.136,3.618-20.991,14.891-20.991,28.184           c0,13.314,8.855,24.566,20.991,28.184c1.62,0.316,3.302,0.463,5.027,0.463c2.945,0,5.784-0.442,8.455-1.262           c-1.641,0.294-3.323,0.463-5.048,0.463C332.229,169.362,319.735,156.868,319.735,141.514z"/>
								</g>
							</g>
						</g>
						<g>
							<g>
								<g>
									
										<rect x="347.154" y="128.681" transform="matrix(0.6693 -0.743 0.743 0.6693 9.5987 305.6735)" style="fill:#2F2444;" width="2.103" height="26.744"/>
								</g>
							</g>
							<g>
								<g>
									
										<rect x="334.834" y="141.001" transform="matrix(0.669 -0.7432 0.7432 0.669 9.6698 305.8197)" style="fill:#2F2444;" width="26.744" height="2.103"/>
								</g>
							</g>
						</g>
					</g>
					<g>
						<path style="fill:#2F2444;" d="M292.337,174.411c-0.323,0-0.642-0.142-0.858-0.415c-0.375-0.473-0.294-1.16,0.179-1.535        l6.473-5.119c3.602-2.846,8.79-2.798,12.337,0.111l5.438,4.462c0.466,0.383,0.534,1.071,0.151,1.539        c-0.383,0.464-1.069,0.535-1.539,0.152l-5.437-4.462c-2.76-2.266-6.796-2.301-9.596-0.087l-6.473,5.119        C292.813,174.335,292.574,174.411,292.337,174.411z"/>
					</g>
				</g>
				<g>
					<g>
						<g>
							<path style="fill:#2F2444;" d="M286.477,262.041c7.617-5.356,15.363-10.51,23.128-15.634         c7.762-5.128,15.63-10.089,23.439-15.142c7.904-4.903,15.758-9.886,23.71-14.715l11.951-7.206         c4.026-2.334,8.013-4.732,12.074-7.011c-3.797,2.697-7.669,5.275-11.501,7.916l-11.625,7.721         c-7.765,5.123-15.629,10.091-23.441,15.139c-7.907,4.898-15.757,9.888-23.712,14.711         C302.548,252.649,294.577,257.446,286.477,262.041z"/>
						</g>
						<g>
							<circle style="fill:#FBEEE5;" cx="383.198" cy="199.544" r="14.88"/>
						</g>
					</g>
					<g>
						<g>
							<path style="fill:#2F2444;" d="M287.459,271.632c9.301-0.458,18.602-0.678,27.903-0.86         c9.301-0.188,18.602-0.179,27.903-0.278c9.301,0.078,18.603,0.061,27.904,0.227l13.952,0.293         c4.651,0.178,9.301,0.28,13.952,0.524c-4.65,0.252-9.301,0.362-13.951,0.547l-13.952,0.317         c-9.301,0.182-18.602,0.181-27.904,0.275c-9.301-0.083-18.603-0.059-27.904-0.231         C306.062,272.279,296.76,272.075,287.459,271.632z"/>
						</g>
						<g>
							
								<ellipse transform="matrix(0.8125 -0.583 0.583 0.8125 -82.1849 285.4289)" style="fill:#FBEEE5;" cx="402.608" cy="270.471" rx="14.88" ry="14.88"/>
						</g>
					</g>
					<g>
						<g>
							<path style="fill:#2F2444;" d="M284.361,270.46c4.752,7.139,9.314,14.393,13.847,21.663         c4.537,7.268,8.918,14.629,13.385,21.939c4.326,7.394,8.727,14.743,12.983,22.18c4.254,7.437,8.481,14.891,12.514,22.46         c-4.755-7.138-9.316-14.391-13.851-21.661c-4.532-7.271-8.92-14.628-13.382-21.941c-4.321-7.397-8.729-14.743-12.98-22.182         C292.623,285.482,288.397,278.028,284.361,270.46z"/>
						</g>
						<g>
							<path style="fill:#FBEEE5;" d="M339.103,374.595c-7.711-0.295-13.729-6.617-13.442-14.12         c0.287-7.503,6.771-13.346,14.482-13.051c7.711,0.295,13.729,6.617,13.442,14.12         C353.298,369.047,346.814,374.891,339.103,374.595z"/>
						</g>
					</g>
				</g>
			</g>
		</g>
	</g>
</g>















</svg>
