<?xml version="1.0" encoding="UTF-8"?>
<!-- Generator: Adobe Illustrator 26.5.1, SVG Export Plug-In . SVG Version: 6.00 Build 0)  -->
<svg xmlns="http://www.w3.org/2000/svg" xmlns:xlink="http://www.w3.org/1999/xlink" version="1.1" id="Capa_1" x="0px" y="0px" viewBox="0 0 512 512" style="enable-background:new 0 0 512 512;" xml:space="preserve" width="512" height="512">
<g>
	<path style="fill:#FFFFFF;" d="M72.668,474.138c-4.592,0-8.922-2.132-11.722-5.771l-4.836-6.285   c-3.967-5.156-4.099-12.3-0.325-17.599l47.87-67.211c1.125-1.58,2.534-2.901,4.128-3.912c-7.489-0.075-13.752-5.745-14.555-13.207   l-6.154-57.229C10.727,216.995-15.04,155.687,8.3,115.57c12.64-21.725,31.506-33.209,54.556-33.209   c39.492,0,84.811,34.582,117.304,65.339h9.495c24.911-52.037,63.176-109.839,110.222-109.839c14.372,0,28.243,5.391,41.227,16.021   c21.311,17.45,28.956,48.968,22.809,93.818h127.057c4.176,0,8.159,1.766,10.962,4.861c2.803,3.097,4.168,7.234,3.755,11.39   l-17.031,171.557c3.953,5.864,3.205,13.758-1.864,18.773l-0.571,5.751c-0.751,7.565-7.116,13.329-14.718,13.329h-4.405   l-4.237,4.105l46.508,67.177c3.807,5.499,3.449,12.868-0.87,17.974l-5.319,6.285c-2.81,3.321-6.94,5.236-11.29,5.236H72.668z"/>
	<g>
		<path style="fill:#FFC666;" d="M332.384,63.986c-64.719-52.99-123.869,74.798-140.29,114.691    C161.302,145.76,63.241,50.324,21.732,121.666c-49.563,85.187,214.929,302.453,214.929,302.453l-1.531-10.25l1.845,8.681    C236.975,422.551,408.639,126.423,332.384,63.986z"/>
		<g>
			<polygon style="fill:#2E1144;" points="116.35,384.51 449.988,382.576 497.858,451.722 68.481,451.722    "/>
			<g>
				<g>
					<g>
						<path style="fill:#B179FF;" d="M483.097,448.075l-8.447-12.802l-0.625-0.947l-7.689-11.628l-0.625-0.947l-7.67-11.628        l-0.625-0.947l-7.689-11.628l-0.625-0.947l-6.553-9.924c-0.095-0.151-0.227-0.208-0.398-0.227l-16.798,0.095h-1.08        l-27.082,0.151h-1.042l-27.176,0.151h-1.004l-27.271,0.152l-0.947,0.019l-27.366,0.133l-0.947,0.019l-27.385,0.152h-0.947        l-27.461,0.151h-0.966l-27.48,0.151h-0.966l-27.499,0.152l-1.023,0.019l-27.499,0.133l-1.08,0.019l-27.498,0.151h-1.098        l-13.901,0.076c-0.152,0-0.303,0.076-0.398,0.189l-5.871,8.238l-0.663,0.947l-8.276,11.628l-0.682,0.947l-8.276,11.628        l-0.682,0.947l-8.276,11.628l-0.663,0.947l-9.109,12.783c-0.114,0.152-0.132,0.341-0.038,0.492        c0.076,0.17,0.246,0.265,0.417,0.265h398.577c0.17,0,0.341-0.095,0.417-0.246C483.21,448.416,483.191,448.226,483.097,448.075        z M85.031,447.867l8.977-12.594l0.663-0.947l8.295-11.628l0.663-0.947l8.295-11.628l0.682-0.947l8.276-11.628l0.682-0.947        l5.322-7.481l13.067-0.076h1.098l27.612-0.151h1.079l27.593-0.152l1.023-0.019h0.019l27.593-0.151h0.966l27.593-0.152h0.947        l27.574-0.151h0.947l27.498-0.152h0.019l0.947-0.019l27.461-0.151h0.966l27.385-0.152h1.004l27.29-0.151h1.042l27.195-0.151        h1.079l16.003-0.095l6.079,9.204l0.625,0.947l7.689,11.628l0.625,0.947l7.67,11.628l0.625,0.947l7.689,11.628l0.625,0.947        l8.314,12.594H85.031z"/>
					</g>
				</g>
				<g>
					<g>
						<polygon style="fill:#B179FF;" points="449.727,397.547 119.707,397.547 120.37,396.6 449.102,396.6       "/>
					</g>
				</g>
				<g>
					<g>
						<polygon style="fill:#B179FF;" points="407.551,410.122 110.749,410.122 111.431,409.175 407.135,409.175       "/>
						<polygon style="fill:#B179FF;" points="458.041,410.122 437.663,410.122 437.133,409.175 457.416,409.175       "/>
					</g>
				</g>
				<g>
					<g>
						<polygon style="fill:#B179FF;" points="466.336,422.697 101.791,422.697 102.473,421.75 465.711,421.75       "/>
					</g>
				</g>
				<g>
					<g>
						<polygon style="fill:#B179FF;" points="474.65,435.273 92.852,435.273 93.515,434.326 474.025,434.326       "/>
					</g>
				</g>
				<g>
					<g>
						<polygon style="fill:#B179FF;" points="127.415,409.175 128.532,409.175 127.926,410.122 120.692,421.75 120.105,422.697         112.87,434.326 112.283,435.273 104.443,447.867 103.856,448.813 102.757,448.813 103.344,447.867 111.185,435.273         111.772,434.326 119.006,422.697 119.593,421.75 126.828,410.122       "/>
						<polygon style="fill:#B179FF;" points="141.638,388.097 141.051,389.044 136.354,396.6 135.767,397.547 134.649,397.547         135.255,396.6 139.952,389.044 140.539,388.097       "/>
					</g>
					<g>
						<polygon style="fill:#B179FF;" points="170.216,387.927 169.742,388.892 169.723,388.892 165.803,396.6 165.311,397.547         159.383,409.175 158.909,410.122 152.982,421.75 152.489,422.697 146.562,434.326 146.069,435.273 139.649,447.867         139.176,448.813 138.115,448.813 138.608,447.867 145.028,435.273 145.501,434.326 151.429,422.697 151.921,421.75         157.83,410.122 158.322,409.175 164.25,397.547 164.723,396.6 168.663,388.892 169.136,387.946       "/>
					</g>
					<g>
						<polygon style="fill:#B179FF;" points="198.737,387.775 198.377,388.722 198.358,388.722 195.252,396.6 194.873,397.547         190.271,409.175 189.893,410.122 185.291,421.75 184.912,422.697 180.31,434.326 179.931,435.273 174.931,447.867         174.571,448.813 173.549,448.813 173.928,447.867 178.908,435.273 179.287,434.326 183.889,422.697 184.268,421.75         188.87,410.122 189.249,409.175 193.851,397.547 194.23,396.6 197.335,388.741 197.714,387.794       "/>
					</g>
					<g>
						<polygon style="fill:#B179FF;" points="227.201,387.623 226.936,388.57 224.682,396.6 224.417,397.547 221.16,409.175         220.895,410.122 217.637,421.75 217.372,422.697 214.096,434.326 213.831,435.273 210.308,447.867 210.043,448.813         209.058,448.813 209.323,447.867 212.865,435.273 213.13,434.326 216.387,422.697 216.653,421.75 219.91,410.122         220.175,409.175 223.451,397.547 223.717,396.6 225.97,388.57 226.235,387.623       "/>
					</g>
					<g>
						<polygon style="fill:#B179FF;" points="244.776,447.867 245.742,447.867 245.59,448.813 244.624,448.813       "/>
						<polygon style="fill:#B179FF;" points="255.647,387.472 255.476,388.419 254.151,396.6 253.98,397.547 252.086,409.175         251.916,410.122 250.022,421.75 249.87,422.697 247.958,434.326 247.806,435.273 246.84,435.273 247.011,434.326         248.905,422.697 249.056,421.75 250.969,410.122 251.12,409.175 253.033,397.547 253.185,396.6 254.529,388.419         254.681,387.472       "/>
					</g>
					<g>
						<polygon style="fill:#B179FF;" points="280.304,447.867 281.27,447.867 281.213,448.813 280.267,448.813       "/>
						<polygon style="fill:#B179FF;" points="284.054,387.321 283.997,388.267 283.619,396.6 283.581,397.547 283.051,409.175         282.994,410.122 282.463,421.75 282.426,422.697 281.876,434.326 281.838,435.273 280.892,435.273 280.929,434.326         281.479,422.697 281.517,421.75 282.047,410.122 282.085,409.175 282.634,397.547 282.672,396.6 283.051,388.267         283.107,387.321       "/>
					</g>
					<g>
						<polygon style="fill:#B179FF;" points="315.946,435.273 314.981,435.273 314.924,434.326 314.053,422.697 313.996,421.75         313.125,410.122 313.068,409.175 312.197,397.547 312.14,396.6 311.515,388.116 311.496,388.116 311.439,387.169         312.386,387.15 312.462,388.097 313.087,396.6 313.162,397.547 314.015,409.175 314.09,410.122 314.943,421.75         315.019,422.697 315.871,434.326       "/>
						<polygon style="fill:#B179FF;" points="316.95,448.813 315.984,448.813 315.928,447.867 316.874,447.867       "/>
					</g>
					<g>
						<polygon style="fill:#B179FF;" points="349.941,434.326 350.13,435.273 349.145,435.273 348.956,434.326 346.702,422.697         346.513,421.75 344.24,410.122 344.07,409.175 341.797,397.547 341.608,396.6 339.922,387.946 339.752,387.018         340.699,386.999 340.888,387.946 342.574,396.6 342.763,397.547 345.036,409.175 345.225,410.122 347.479,421.75         347.668,422.697       "/>
						<polygon style="fill:#B179FF;" points="352.763,448.813 351.778,448.813 351.607,447.867 352.573,447.867       "/>
					</g>
					<g>
						<polygon style="fill:#B179FF;" points="388.651,448.813 387.666,448.813 387.363,447.867 383.348,435.273 383.064,434.326         379.352,422.697 379.068,421.75 375.356,410.122 375.072,409.175 371.36,397.547 371.076,396.6 368.273,387.794         367.97,386.847 368.974,386.847 369.277,387.794 372.061,396.6 372.364,397.547 376.057,409.175 376.36,410.122         380.053,421.75 380.356,422.697 384.049,434.326 384.352,435.273 388.367,447.867       "/>
					</g>
					<g>
						<polygon style="fill:#B179FF;" points="407.135,409.175 407.551,410.122 406.51,410.122 406.093,409.175 400.961,397.547         400.525,396.6 396.567,387.642 396.15,386.696 397.192,386.696 397.609,387.642 401.567,396.6 401.984,397.547       "/>
						<polygon style="fill:#B179FF;" points="424.634,448.813 423.611,448.813 423.195,447.867 417.627,435.273 417.21,434.326         412.078,422.697 411.661,421.75 412.684,421.75 413.1,422.697 418.233,434.326 418.649,435.273 424.217,447.867       "/>
					</g>
					<g>
						<polygon style="fill:#B179FF;" points="460.73,448.813 459.632,448.813 459.102,447.867 451.943,435.273 451.413,434.326         444.803,422.697 444.273,421.75 437.663,410.122 437.133,409.175 430.524,397.547 429.974,396.6 424.804,387.491         424.274,386.544 425.353,386.544 425.884,387.491 431.073,396.6 431.603,397.547 438.213,409.175 438.743,410.122         445.352,421.75 445.883,422.697 452.492,434.326 453.041,435.273 460.181,447.867       "/>
					</g>
				</g>
			</g>
			<polygon style="fill:#B179FF;" points="68.481,451.722 73.316,458.007 492.539,458.007 497.858,451.722    "/>
		</g>
		<g>
			<polygon style="fill:#2E1144;" points="260.256,350.944 237.546,372.032 358.398,372.032 346.231,353.377    "/>
			<g>
				<polygon style="fill:#B179FF;" points="472.153,357.23 462.935,357.23 130.802,327.028 195.279,216.631 482.75,161.149       491.619,161.149     "/>
				<path style="fill:#2E1144;" d="M463.028,357.23H108.583L88.368,169.273c-0.466-4.335,2.847-8.124,7.105-8.124h387.021      L463.028,357.23z"/>
				<g>
					<polygon style="fill:#FF93E2;" points="463.037,170.591 455.817,241.449 426.95,334.233 350.588,343.137 125.975,343.137        106.962,170.591      "/>
					<g>
						<path style="fill:#FFE7DE;" d="M329.199,216.776H234.91c3.061-3.354,6.954-5.974,11.251-7.468        c7.345-2.546,15.756-1.787,22.526,2.02c9.733-12.903,28.475-18.106,43.472-12.059        C319.98,202.416,326.873,208.72,329.199,216.776z"/>
						<path style="fill:#FFE7DE;" d="M447.82,238.067h-94.289c3.061-3.354,6.953-5.974,11.251-7.468        c7.345-2.546,15.756-1.787,22.525,2.02c9.733-12.903,28.475-18.106,43.472-12.059        C438.602,223.707,445.494,230.011,447.82,238.067z"/>
					</g>
					<g>
						<polygon style="fill:#B179FF;" points="178.748,285.24 216.059,285.24 216.059,343.137 126.832,343.137 126.832,247.524         170.624,247.524 170.624,316.881 178.748,316.881       "/>
						<rect x="234.715" y="244.689" style="fill:#B179FF;" width="45.007" height="98.448"/>
						<rect x="290.682" y="209.808" style="fill:#B179FF;" width="50.272" height="133.329"/>
						<polygon style="fill:#B179FF;" points="455.817,241.449 445.477,343.137 350.699,343.137 350.699,269.42 379.48,269.42         379.48,283.215 399.351,283.215 399.351,324.576 407.88,324.576 407.88,241.449       "/>
					</g>
					<g>
						<circle style="fill:#FFC666;" cx="130.685" cy="190.146" r="9.936"/>
						<circle style="fill:#FFC666;" cx="157.856" cy="190.146" r="9.936"/>
						<circle style="fill:#FFC666;" cx="185.028" cy="190.146" r="9.936"/>
					</g>
					<g>
						<rect x="132.104" y="255.337" style="fill:#FFC666;" width="5.475" height="19.77"/>
						<rect x="157.349" y="280.582" style="fill:#FFC666;" width="5.475" height="19.77"/>
						<rect x="186.549" y="293.661" style="fill:#FFC666;" width="5.475" height="19.77"/>
						<rect x="206.471" y="313.583" style="fill:#FFC666;" width="5.475" height="19.77"/>
						<rect x="247.076" y="272.978" style="fill:#FFC666;" width="5.475" height="19.77"/>
						<rect x="313.078" y="272.978" style="fill:#FFC666;" width="5.475" height="19.77"/>
						<rect x="324.636" y="221.271" style="fill:#FFC666;" width="5.475" height="19.77"/>
						<rect x="387.597" y="286.209" style="fill:#FFC666;" width="5.475" height="19.77"/>
						<rect x="436.566" y="286.209" style="fill:#FFC666;" width="5.475" height="19.77"/>
						<rect x="421.663" y="249.102" style="fill:#FFC666;" width="5.475" height="19.77"/>
						<rect x="358.246" y="315.56" style="fill:#FFC666;" width="5.475" height="19.77"/>
						<rect x="135.602" y="315.408" style="fill:#FFC666;" width="5.475" height="19.77"/>
					</g>
					<g>
						<path style="fill:#2E1144;" d="M182.557,268.91c-0.273,1.372-0.708,2.797-1.302,4.275c-0.594,1.478-1.356,2.827-2.286,4.045        c-0.93,1.219-2.034,2.217-3.315,2.995c-1.279,0.778-2.743,1.165-4.388,1.165c-1.219,0-2.317-0.244-3.292-0.731        c-0.976-0.489-1.86-1.143-2.652-1.967c-0.793-0.822-1.478-1.767-2.057-2.833c-0.579-1.066-1.059-2.173-1.44-3.315        c-0.382-1.143-0.663-2.279-0.846-3.406c-0.183-1.127-0.274-2.178-0.274-3.155c0-1.371,0.129-2.841,0.389-4.411        c0.259-1.57,0.648-3.123,1.165-4.663c0.519-1.538,1.174-3.017,1.967-4.434c0.792-1.418,1.728-2.667,2.812-3.749        c1.081-1.081,2.3-1.95,3.656-2.606c1.357-0.655,2.872-0.982,4.549-0.982c1.066,0,2.058,0.205,2.972,0.616        c0.915,0.412,1.707,0.96,2.377,1.646c0.671,0.685,1.196,1.501,1.578,2.446c0.38,0.945,0.57,1.935,0.57,2.972v0.41        c0,0.549-0.023,1.228-0.069,2.035c-0.046,0.808-0.19,1.577-0.433,2.309c-0.244,0.731-0.61,1.364-1.098,1.897        c-0.488,0.533-1.174,0.8-2.057,0.8c-1.068,0-1.874-0.244-2.423-0.732c-0.549-0.487-0.823-1.295-0.823-2.423        c0-0.426,0.016-0.853,0.046-1.281c0.03-0.426,0.046-0.852,0.046-1.279c0-0.64-0.107-1.135-0.32-1.486        c-0.213-0.349-0.656-0.525-1.325-0.525c-0.763,0-1.448,0.244-2.057,0.731c-0.61,0.489-1.143,1.128-1.601,1.921        c-0.457,0.792-0.853,1.691-1.188,2.697c-0.336,1.005-0.61,2.018-0.823,3.039c-0.214,1.022-0.366,2.005-0.457,2.949        c-0.091,0.945-0.137,1.754-0.137,2.423c0,0.549,0.03,1.182,0.092,1.898c0.061,0.716,0.19,1.402,0.389,2.057        c0.197,0.656,0.495,1.211,0.892,1.668c0.395,0.457,0.914,0.686,1.554,0.686c1.098,0,1.981-0.343,2.652-1.029        c0.67-0.686,1.126-1.561,1.371-2.629c-0.426-0.06-0.845-0.16-1.257-0.297c-0.412-0.137-0.793-0.335-1.143-0.593        c-0.35-0.259-0.632-0.579-0.845-0.96c-0.214-0.38-0.32-0.831-0.32-1.348c0-0.945,0.32-1.684,0.959-2.218        c0.64-0.532,1.395-0.936,2.264-1.211c0.868-0.274,1.76-0.449,2.674-0.526c0.913-0.076,1.645-0.114,2.194-0.114        c0.395,0,0.975,0.031,1.737,0.091c0.762,0.061,1.515,0.191,2.263,0.389c0.746,0.199,1.395,0.48,1.943,0.846        c0.549,0.365,0.823,0.838,0.823,1.417c0,1.159-0.313,2.157-0.938,2.995C184.698,268.264,183.776,268.759,182.557,268.91z"/>
						<path style="fill:#2E1144;" d="M214.211,273.117c0,0.609-0.053,1.341-0.159,2.194c-0.107,0.853-0.313,1.668-0.618,2.446        c-0.306,0.778-0.716,1.432-1.235,1.966s-1.204,0.8-2.057,0.8c-1.128,0-1.974-0.412-2.537-1.235        c-0.564-0.822-0.968-1.805-1.211-2.949c-0.244-1.142-0.389-2.309-0.435-3.497c-0.046-1.189-0.084-2.133-0.114-2.835        c-2.194,0.366-4.359,0.686-6.492,0.959c-0.061,0.702-0.19,1.571-0.389,2.606c-0.199,1.037-0.502,2.035-0.914,2.995        c-0.412,0.96-0.945,1.791-1.601,2.491c-0.655,0.702-1.455,1.052-2.4,1.052c-0.731,0-1.302-0.266-1.714-0.8        c-0.412-0.533-0.725-1.165-0.938-1.897c-0.213-0.732-0.343-1.485-0.388-2.263c-0.046-0.778-0.069-1.425-0.069-1.943        c0-1.738,0.136-3.452,0.41-5.143c0.275-1.692,0.595-3.376,0.961-5.052c0.183-0.885,0.426-1.921,0.732-3.109        c0.305-1.189,0.678-2.416,1.119-3.681c0.442-1.264,0.96-2.514,1.555-3.748c0.593-1.235,1.272-2.339,2.034-3.315        c0.762-0.975,1.63-1.767,2.606-2.377c0.975-0.609,2.057-0.915,3.246-0.915c1.158,0,2.163,0.26,3.016,0.777        c0.853,0.519,1.601,1.205,2.241,2.057c0.639,0.853,1.172,1.821,1.6,2.903c0.426,1.082,0.785,2.18,1.075,3.292        c0.289,1.112,0.532,2.201,0.731,3.268c0.199,1.068,0.373,2.012,0.526,2.835c0.396,1.982,0.732,3.985,1.006,6.012        C214.075,269.04,214.211,271.075,214.211,273.117z M205.388,262.008c0-0.366-0.023-0.968-0.069-1.805        c-0.046-0.838-0.146-1.677-0.297-2.514c-0.153-0.838-0.389-1.585-0.709-2.24c-0.32-0.656-0.753-0.983-1.302-0.983        c-0.306,0-0.595,0.206-0.869,0.617c-0.274,0.41-0.519,0.929-0.732,1.554c-0.213,0.625-0.403,1.319-0.57,2.08        c-0.169,0.762-0.313,1.494-0.435,2.194c-0.123,0.702-0.214,1.334-0.274,1.898c-0.061,0.563-0.107,0.968-0.137,1.211        c1.828-0.152,3.626-0.38,5.395-0.686V262.008z"/>
						<path style="fill:#2E1144;" d="M253.133,274.9c-0.091,0.793-0.221,1.57-0.389,2.331c-0.167,0.762-0.373,1.44-0.616,2.034        c-0.244,0.595-0.557,1.066-0.938,1.418c-0.382,0.349-0.816,0.525-1.302,0.525c-0.489,0-0.93-0.373-1.326-1.119        c-0.396-0.746-0.77-1.737-1.119-2.972c-0.352-1.234-0.672-2.629-0.96-4.183c-0.29-1.555-0.549-3.132-0.778-4.731        c-0.229-1.601-0.419-3.162-0.572-4.687c-0.153-1.524-0.273-2.849-0.365-3.977c-0.183,1.159-0.397,2.453-0.64,3.885        c-0.244,1.434-0.534,2.889-0.869,4.367c-0.336,1.478-0.702,2.926-1.097,4.343c-0.397,1.417-0.823,2.683-1.281,3.795        c-0.457,1.112-0.945,2.004-1.462,2.673c-0.519,0.672-1.068,1.006-1.647,1.006c-0.519,0-1.036-0.35-1.554-1.051        c-0.519-0.702-1.022-1.624-1.509-2.766c-0.487-1.143-0.945-2.416-1.371-3.818c-0.427-1.401-0.823-2.812-1.189-4.228        c-0.365-1.418-0.685-2.759-0.959-4.024c-0.274-1.264-0.489-2.323-0.64-3.176c0,0.639-0.007,1.348-0.023,2.126        c-0.016,0.776-0.023,1.334-0.023,1.668c0,0.153-0.007,0.656-0.023,1.508c-0.016,0.855-0.069,1.875-0.16,3.063        c-0.091,1.189-0.229,2.461-0.412,3.818c-0.183,1.357-0.45,2.613-0.799,3.771c-0.351,1.159-0.786,2.134-1.304,2.926        c-0.519,0.792-1.158,1.219-1.92,1.281c-0.61-0.274-1.121-0.74-1.532-1.395c-0.411-0.655-0.754-1.424-1.028-2.309        c-0.274-0.883-0.487-1.828-0.64-2.834c-0.153-1.005-0.275-1.988-0.366-2.949c-0.092-0.959-0.145-1.851-0.16-2.674        c-0.016-0.822-0.023-1.492-0.023-2.011c0-0.913,0.053-2.064,0.16-3.451c0.107-1.387,0.282-2.842,0.526-4.367        c0.243-1.524,0.563-3.048,0.96-4.571c0.396-1.524,0.875-2.887,1.44-4.091c0.563-1.204,1.219-2.187,1.965-2.949        c0.747-0.762,1.608-1.143,2.583-1.143c0.457,0,0.945,0.26,1.464,0.778c0.518,0.519,1.035,1.196,1.554,2.034        c0.518,0.839,1.021,1.775,1.509,2.812c0.486,1.036,0.952,2.08,1.394,3.132c0.442,1.051,0.83,2.057,1.166,3.018        c0.335,0.959,0.609,1.775,0.822,2.446c0.244-0.732,0.549-1.585,0.915-2.56c0.366-0.975,0.769-1.99,1.211-3.04        c0.442-1.052,0.93-2.087,1.464-3.109c0.533-1.021,1.089-1.935,1.668-2.743c0.579-0.806,1.166-1.462,1.761-1.965        c0.593-0.503,1.195-0.755,1.805-0.755c1.066,0,1.981,0.397,2.743,1.189c0.761,0.792,1.401,1.821,1.92,3.086        c0.518,1.265,0.929,2.682,1.235,4.251c0.303,1.57,0.54,3.125,0.708,4.663c0.167,1.539,0.274,2.979,0.32,4.32        c0.046,1.342,0.069,2.423,0.069,3.246c0,0.336,0,0.793,0,1.372c0,0.579-0.007,1.234-0.023,1.966        c-0.016,0.732-0.053,1.508-0.114,2.331S253.225,274.076,253.133,274.9z"/>
						<path style="fill:#2E1144;" d="M281.359,272.705c0,0.579-0.153,1.142-0.457,1.691c-0.306,0.519-1.022,1.128-2.148,1.828        c-1.128,0.702-2.377,1.365-3.749,1.99c-1.371,0.625-2.697,1.158-3.977,1.6c-1.281,0.442-2.225,0.663-2.834,0.663        c-0.427,0-0.93-0.1-1.509-0.297c-0.579-0.199-1.158-0.449-1.737-0.755c-0.579-0.305-1.105-0.655-1.577-1.051        c-0.473-0.396-0.816-0.777-1.029-1.143c-0.122-0.213-0.236-0.64-0.343-1.279c-0.107-0.64-0.199-1.387-0.274-2.241        c-0.076-0.852-0.144-1.76-0.206-2.72c-0.061-0.959-0.114-1.874-0.16-2.742c-0.044-0.869-0.076-1.638-0.09-2.31        c-0.017-0.669-0.023-1.158-0.023-1.462c0-1.126,0.037-2.423,0.113-3.885c0.076-1.464,0.222-2.933,0.435-4.413        c0.213-1.478,0.526-2.895,0.938-4.251c0.412-1.357,0.968-2.507,1.668-3.452c0.213-0.274,0.64-0.563,1.281-0.868        c0.64-0.305,1.394-0.595,2.263-0.869c0.869-0.274,1.805-0.533,2.812-0.778c1.005-0.243,1.973-0.449,2.903-0.617        c0.929-0.166,1.774-0.303,2.537-0.41c0.761-0.107,1.341-0.16,1.737-0.16c0.457,0,0.892,0.099,1.303,0.297        c0.41,0.199,0.761,0.465,1.051,0.799c0.289,0.336,0.518,0.709,0.686,1.121c0.167,0.412,0.251,0.845,0.251,1.302        c0,0.397-0.054,0.732-0.16,1.006c-0.107,0.274-0.267,0.579-0.48,0.915c-0.305,0.396-0.945,0.868-1.92,1.417        c-0.976,0.549-2.034,1.09-3.178,1.622c-1.143,0.534-2.24,1.015-3.292,1.441c-1.051,0.427-1.791,0.732-2.217,0.913        c-0.122,0.702-0.252,1.411-0.389,2.127c-0.137,0.716-0.236,1.44-0.297,2.171c0.945-0.487,2.012-0.945,3.2-1.372        c1.189-0.426,2.316-0.639,3.383-0.639c2.163,0,3.246,1.066,3.246,3.199c0,0.519-0.1,0.976-0.297,1.372        c-0.199,0.396-0.457,0.747-0.777,1.051c-0.32,0.306-0.686,0.572-1.098,0.8c-0.41,0.229-0.815,0.45-1.211,0.663        c-0.976,0.519-1.997,0.968-3.063,1.348c-1.068,0.382-2.134,0.755-3.2,1.121c-0.061,0.244-0.122,0.51-0.183,0.8        c-0.061,0.289-0.092,0.57-0.092,0.845c0,0.427,0.03,0.853,0.092,1.281c0.061,0.427,0.122,0.853,0.183,1.28        c0.366-0.122,0.952-0.32,1.761-0.595c0.806-0.273,1.652-0.548,2.537-0.822c0.883-0.274,1.737-0.51,2.56-0.709        c0.822-0.197,1.432-0.297,1.828-0.297c0.457,0,0.884,0.1,1.28,0.297c0.396,0.199,0.732,0.457,1.006,0.777        c0.274,0.32,0.495,0.693,0.663,1.119C281.275,271.852,281.359,272.278,281.359,272.705z"/>
						<path style="fill:#2E1144;" d="M314.265,281.391c-1.858,0-3.474-0.465-4.846-1.394c-1.371-0.929-2.507-2.178-3.405-3.749        c-0.9-1.568-1.571-3.389-2.012-5.462s-0.662-4.252-0.662-6.538c0-2.133,0.235-4.297,0.708-6.491        c0.473-2.195,1.196-4.175,2.173-5.943c0.975-1.767,2.209-3.215,3.702-4.343c1.492-1.128,3.276-1.692,5.349-1.692        c2.011,0,3.695,0.542,5.052,1.624c1.355,1.082,2.439,2.484,3.246,4.205c0.806,1.722,1.387,3.651,1.737,5.783        c0.35,2.133,0.526,4.267,0.526,6.4c0,2.377-0.237,4.625-0.709,6.744c-0.473,2.118-1.188,3.985-2.148,5.599        c-0.961,1.616-2.164,2.896-3.612,3.841C317.914,280.919,316.216,281.391,314.265,281.391z M314.813,255.881        c-0.579,0-1.074,0.229-1.485,0.686c-0.412,0.457-0.755,1.059-1.029,1.805c-0.274,0.747-0.473,1.585-0.595,2.514        c-0.122,0.93-0.183,1.868-0.183,2.812c0,1.068,0.069,2.134,0.206,3.2c0.137,1.068,0.343,2.027,0.617,2.88        c0.275,0.853,0.618,1.539,1.029,2.057c0.412,0.519,0.906,0.778,1.485,0.778c0.67,0,1.204-0.336,1.601-1.006        c0.395-0.669,0.708-1.478,0.936-2.423c0.229-0.944,0.38-1.92,0.457-2.926c0.076-1.005,0.114-1.843,0.114-2.514        c0-0.822-0.054-1.691-0.16-2.606c-0.107-0.914-0.282-1.76-0.526-2.537c-0.244-0.776-0.565-1.424-0.959-1.943        C315.926,256.141,315.423,255.881,314.813,255.881z"/>
						<path style="fill:#2E1144;" d="M355.108,249.619c0,1.096-0.137,2.324-0.412,3.679c-0.274,1.357-0.617,2.736-1.029,4.138        c-0.41,1.402-0.853,2.766-1.325,4.091c-0.473,1.326-0.892,2.523-1.258,3.589c-0.244,0.67-0.51,1.501-0.799,2.491        c-0.29,0.991-0.626,2.034-1.006,3.132c-0.382,1.096-0.8,2.194-1.257,3.291c-0.457,1.098-0.961,2.08-1.509,2.949        c-0.549,0.869-1.151,1.578-1.806,2.126c-0.656,0.549-1.365,0.823-2.125,0.823c-0.64,0-1.258-0.289-1.852-0.869        c-0.593-0.578-1.158-1.318-1.691-2.217c-0.533-0.898-1.036-1.904-1.508-3.017c-0.473-1.112-0.899-2.201-1.281-3.268        c-0.382-1.066-0.702-2.058-0.959-2.972c-0.26-0.915-0.45-1.615-0.572-2.103c-0.61-2.377-1.189-4.778-1.737-7.201        c-0.549-2.423-0.823-4.853-0.823-7.291c0-0.609,0.03-1.241,0.091-1.897c0.06-0.655,0.213-1.258,0.457-1.805        c0.243-0.549,0.586-0.998,1.028-1.349c0.442-0.35,1.059-0.526,1.851-0.526c0.67,0,1.288,0.374,1.852,1.121        c0.563,0.747,1.074,1.714,1.531,2.903c0.457,1.188,0.876,2.514,1.258,3.977c0.38,1.464,0.738,2.903,1.074,4.321        c0.336,1.417,0.655,2.743,0.961,3.977c0.304,1.235,0.609,2.217,0.915,2.949c0.182-0.609,0.449-1.501,0.799-2.674        c0.35-1.174,0.762-2.461,1.235-3.864c0.472-1.401,0.989-2.841,1.554-4.32c0.563-1.478,1.158-2.819,1.783-4.022        c0.625-1.204,1.272-2.187,1.944-2.949c0.669-0.762,1.355-1.143,2.057-1.143c0.518,0,0.944,0.123,1.279,0.366        c0.336,0.244,0.595,0.565,0.777,0.961c0.183,0.396,0.312,0.822,0.389,1.279C355.069,248.75,355.108,249.192,355.108,249.619z"/>
						<path style="fill:#2E1144;" d="M380.407,272.705c0,0.579-0.153,1.142-0.457,1.691c-0.306,0.519-1.022,1.128-2.148,1.828        c-1.128,0.702-2.377,1.365-3.749,1.99c-1.371,0.625-2.697,1.158-3.977,1.6c-1.281,0.442-2.225,0.663-2.835,0.663        c-0.427,0-0.93-0.1-1.509-0.297c-0.579-0.199-1.158-0.449-1.737-0.755c-0.579-0.305-1.105-0.655-1.577-1.051        c-0.473-0.396-0.816-0.777-1.029-1.143c-0.122-0.213-0.236-0.64-0.343-1.279c-0.107-0.64-0.199-1.387-0.274-2.241        c-0.076-0.852-0.144-1.76-0.206-2.72c-0.061-0.959-0.114-1.874-0.16-2.742c-0.045-0.869-0.076-1.638-0.09-2.31        c-0.017-0.669-0.023-1.158-0.023-1.462c0-1.126,0.037-2.423,0.113-3.885c0.076-1.464,0.221-2.933,0.435-4.413        c0.213-1.478,0.526-2.895,0.938-4.251c0.412-1.357,0.968-2.507,1.668-3.452c0.213-0.274,0.64-0.563,1.281-0.868        c0.64-0.305,1.394-0.595,2.263-0.869c0.869-0.274,1.805-0.533,2.812-0.778c1.005-0.243,1.973-0.449,2.903-0.617        c0.929-0.166,1.774-0.303,2.537-0.41c0.761-0.107,1.341-0.16,1.737-0.16c0.457,0,0.892,0.099,1.303,0.297        c0.41,0.199,0.761,0.465,1.051,0.799c0.289,0.336,0.518,0.709,0.686,1.121c0.167,0.412,0.252,0.845,0.252,1.302        c0,0.397-0.054,0.732-0.16,1.006c-0.107,0.274-0.267,0.579-0.48,0.915c-0.305,0.396-0.945,0.868-1.92,1.417        c-0.976,0.549-2.034,1.09-3.178,1.622c-1.143,0.534-2.24,1.015-3.292,1.441c-1.051,0.427-1.791,0.732-2.217,0.913        c-0.122,0.702-0.251,1.411-0.389,2.127c-0.137,0.716-0.236,1.44-0.297,2.171c0.945-0.487,2.012-0.945,3.2-1.372        c1.189-0.426,2.316-0.639,3.383-0.639c2.163,0,3.246,1.066,3.246,3.199c0,0.519-0.1,0.976-0.297,1.372        c-0.199,0.396-0.457,0.747-0.778,1.051c-0.32,0.306-0.686,0.572-1.098,0.8c-0.41,0.229-0.815,0.45-1.211,0.663        c-0.976,0.519-1.997,0.968-3.063,1.348c-1.068,0.382-2.134,0.755-3.2,1.121c-0.061,0.244-0.122,0.51-0.183,0.8        c-0.061,0.289-0.091,0.57-0.091,0.845c0,0.427,0.03,0.853,0.091,1.281c0.061,0.427,0.122,0.853,0.183,1.28        c0.366-0.122,0.952-0.32,1.761-0.595c0.806-0.273,1.652-0.548,2.537-0.822c0.883-0.274,1.737-0.51,2.56-0.709        c0.822-0.197,1.432-0.297,1.828-0.297c0.457,0,0.883,0.1,1.279,0.297c0.396,0.199,0.732,0.457,1.006,0.777        c0.275,0.32,0.495,0.693,0.663,1.119C380.322,271.852,380.407,272.278,380.407,272.705z"/>
						<path style="fill:#2E1144;" d="M409.455,255.836c0,2.104-0.489,3.994-1.464,5.669c-0.975,1.677-2.27,3.155-3.885,4.434        c0.487,0.732,0.989,1.585,1.508,2.56c0.519,0.976,0.983,2.005,1.395,3.086c0.412,1.082,0.746,2.164,1.005,3.246        c0.259,1.082,0.389,2.08,0.389,2.995c0,0.975-0.236,1.851-0.709,2.629c-0.472,0.776-1.272,1.165-2.4,1.165        c-0.945,0-1.76-0.456-2.446-1.371c-0.685-0.915-1.295-2.004-1.828-3.269c-0.533-1.264-1.022-2.552-1.462-3.862        c-0.443-1.311-0.862-2.361-1.258-3.155c-0.549,0.183-1.082,0.389-1.6,0.617c-0.519,0.229-1.052,0.45-1.601,0.662        c-0.03,0.672-0.084,1.594-0.16,2.766c-0.076,1.174-0.244,2.34-0.502,3.498c-0.26,1.159-0.649,2.164-1.166,3.017        c-0.519,0.852-1.234,1.279-2.148,1.279c-1.006,0-1.783-0.412-2.331-1.234c-0.549-0.823-0.938-1.798-1.166-2.926        c-0.229-1.128-0.359-2.278-0.389-3.452c-0.03-1.172-0.046-2.094-0.046-2.766c0-1.432,0.03-2.842,0.091-4.228        c0.061-1.387,0.092-2.796,0.092-4.228c0-1.311-0.023-2.621-0.069-3.932c-0.046-1.31-0.069-2.636-0.069-3.977        c0-0.305,0-0.693,0-1.166c0-0.472,0.023-0.96,0.069-1.462c0.046-0.503,0.099-0.983,0.16-1.441        c0.061-0.457,0.167-0.822,0.32-1.096c0.305-0.64,0.998-1.249,2.08-1.829c1.082-0.578,2.27-1.089,3.566-1.531        c1.295-0.442,2.56-0.792,3.795-1.052c1.234-0.258,2.156-0.388,2.765-0.388c1.555,0,2.926,0.289,4.115,0.868        c1.188,0.58,2.178,1.365,2.972,2.354c0.792,0.991,1.387,2.134,1.783,3.429C409.256,253.041,409.455,254.403,409.455,255.836z         M400.997,256.476c0-0.792-0.183-1.394-0.549-1.805c-0.366-0.412-0.959-0.617-1.783-0.617c-0.61,0-1.228,0.107-1.851,0.32        c-0.626,0.213-1.196,0.457-1.715,0.732c0.122,2.407,0.167,4.8,0.137,7.177c0.64-0.213,1.295-0.487,1.967-0.823        c0.669-0.335,1.287-0.746,1.851-1.234c0.563-0.487,1.028-1.036,1.394-1.647C400.814,257.97,400.997,257.269,400.997,256.476z"/>
					</g>
				</g>
				<circle style="fill:#FFE7DE;" cx="296.958" cy="349.93" r="3.65"/>
			</g>
		</g>
		<path style="fill:#FFE7DE;" d="M86.926,261.653l27.555-26.694l-13.456-17.84l-14.326,12.25l-14.124-13.157l-13.689,18.747    l27.863,26.607c0.006,0.149,0.01,0.249,0.01,0.249l0.125-0.121l0.04,0.038C86.924,261.733,86.925,261.698,86.926,261.653z"/>
		<path style="fill:#FFE7DE;" d="M449.482,369.122l27.555-26.694l-13.456-17.84l-14.326,12.25l-14.124-13.157l-13.689,18.747    l27.863,26.607c0.006,0.149,0.01,0.249,0.01,0.249l0.125-0.121l0.04,0.038C449.48,369.202,449.481,369.167,449.482,369.122z"/>
	</g>
</g>















</svg>
