<?xml version="1.0" encoding="iso-8859-1"?>
<!-- Generator: Adobe Illustrator 26.5.3, SVG Export Plug-In . SVG Version: 6.00 Build 0)  -->
<svg xmlns="http://www.w3.org/2000/svg" xmlns:xlink="http://www.w3.org/1999/xlink" version="1.1" id="Capa_1" x="0px" y="0px" viewBox="0 0 512 512" style="enable-background:new 0 0 512 512;" xml:space="preserve">
<g>
	<g>
		<path d="M321.632,374.601c0.279-13.95,0.333-27.91,0.894-41.849c0.727-18.087,1.073-36.181,1.521-54.273    c0.08-3.237,0.363-6.469,0.555-9.704c0.257-4.314,1.687-6.116,5.986-6.524c12.277-1.164,24.261,0.047,35.546,5.4    c21.063,9.992,32.947,27.221,37.975,49.434c5.779,25.532,1.542,49.887-10.701,72.705c-13.003,24.235-33.894,37.543-60.907,41.538    c-1.711,0.253-3.452,0.334-5.182,0.409c-3.808,0.166-5.953-1.714-6.206-5.572c-0.202-3.081-0.341-6.176-0.29-9.262    c0.233-14.102,0.543-28.203,0.825-42.304C321.642,374.601,321.637,374.601,321.632,374.601z M388.233,342.804    c0.375-6.353-0.176-12.44-0.534-18.533c-0.913-15.545-5.65-29.697-15.458-41.95c-5.604-7-12.756-11.374-21.78-12.488    c-1.867-0.231-2.892,0.128-2.849,2.263c0.028,1.421-0.318,2.845-0.37,4.272c-0.483,13.256-0.463,26.526-1.235,39.776    c-0.605,10.382-0.514,20.789-1.036,31.183c-0.666,13.245-0.725,26.518-1.345,39.771c-0.517,11.065-0.8,22.142-1.293,33.209    c-0.128,2.862-0.238,2.95,2.494,1.972c16.292-5.829,27.414-17.251,34.327-32.762C385.788,374.633,388.18,358.788,388.233,342.804z    "/>
		<path d="M271.16,268.161c9.414,0.158,10.464,1.056,11.082,8.419c0.296,3.524,0.299,7.076,0.366,10.616    c0.32,16.879,0.62,33.759,0.919,50.638c0.212,11.982,0.345,23.965,0.629,35.945c0.315,13.262,0.498,26.523,0.625,39.788    c0.133,13.866,0.776,27.727,0.447,41.597c-0.049,2.065,0.702,2.644,2.633,2.5c9.39-0.702,18.78-1.436,28.18-1.965    c7.669-0.431,15.327-1.18,23.021-1.079c0.603,0.008,1.212-0.014,1.807,0.064c1.134,0.149,2.427,0.298,2.581,1.72    c0.17,1.574-1.105,1.98-2.33,2.242c-6.068,1.296-12.259,1.535-18.414,2.007c-14.648,1.123-29.306,2.116-43.961,3.141    c-5.711,0.399-11.423,0.839-17.142,1.074c-3.346,0.137-4.009-0.749-4.179-4.123c-0.737-14.686-0.716-29.389-0.982-44.084    c-0.263-14.547-0.315-29.097-0.613-43.643c-0.342-16.656-0.701-33.311-0.802-49.971c-0.087-14.172-0.302-28.344-0.466-42.516    c-0.027-2.336-0.206-4.677-0.089-7.005c0.167-3.31,1.275-4.553,4.51-4.792C263.714,268.385,268.461,268.28,271.16,268.161z"/>
		<path d="M60.361,377.932c0.475-23.914,4.222-44.449,12.196-64.134c5.362-13.237,12.383-25.395,23.226-35.015    c4.336-3.847,9.019-7.119,14.606-8.848c12.937-4.003,25.302,2.504,29.289,15.541c2.773,9.066,3.429,18.352,2.542,27.811    c-0.806,8.607-2.193,17.058-5.155,25.204c-0.911,2.506-2.073,4.895-3.585,7.102c-0.437,0.638-0.891,1.257-1.579,1.655    c-0.652,0.377-1.323,0.516-1.954,0.005c-0.57-0.461-0.569-1.111-0.346-1.731c0.283-0.789,0.613-1.564,0.97-2.323    c4.351-9.245,6.237-19.084,7.245-29.174c0.637-6.368,0.783-12.704-0.167-19.036c-0.578-3.848-1.906-7.481-4.02-10.733    c-3.729-5.734-9.976-6.884-15.713-3.199c-5.908,3.795-9.887,9.268-13.176,15.242c-6.153,11.177-10,23.248-12.948,35.598    c-3.398,14.235-5.487,28.686-6.894,43.256c-0.984,10.19-1.314,20.375-0.877,30.587c0.428,10.006,2.145,19.761,6.54,28.858    c2.091,4.328,4.918,8.208,9.077,10.781c7.401,4.579,16.067,3.4,22.8-2.737c5.293-4.825,8.62-10.949,11.824-17.186    c4.365-8.497,7.255-17.577,10.5-26.517c0.048-0.132,0.072-0.272,0.127-0.4c0.549-1.268,0.953-3.002,2.788-2.448    c1.682,0.508,1.278,2.218,0.98,3.445c-1.852,7.631-4.387,15.06-7.551,22.228c-3.561,8.067-7.488,15.966-13.4,22.682    c-5.091,5.783-10.974,10.2-18.858,11.211c-6.778,0.87-13.065-0.759-18.947-4.087c-10.211-5.779-17.168-14.426-21.681-25.098    c-4.403-10.411-6.552-21.359-7.325-32.609C60.47,387.65,60.222,381.436,60.361,377.932z"/>
		<path d="M237.773,362.593c-0.536,21.311-4.086,41.997-13.075,61.499c-3.825,8.299-8.692,15.911-16.246,21.389    c-8.988,6.518-19.55,5.715-27.682-1.922c-7.147-6.713-11.258-15.209-14.301-24.311c-4.388-13.125-6.189-26.68-6.721-40.468    c-0.711-18.456,1.211-36.603,6.141-54.391c3.262-11.769,7.686-23.057,15.597-32.621c3.949-4.775,8.539-8.755,14.633-10.588    c8.437-2.537,15.43,0.245,21.469,6.083c6.581,6.362,10.29,14.451,13.187,22.929c3.775,11.046,5.716,22.462,6.541,34.098    C237.747,350.389,237.906,356.481,237.773,362.593z M219.013,368.111c0.659-12.986-0.642-27.925-2.03-42.862    c-0.951-10.229-2.305-20.37-5.754-30.125c-0.883-2.497-2.29-4.568-4.259-6.284c-3.423-2.983-6.697-3.067-10.102-0.051    c-3.664,3.246-6.38,7.202-8.143,11.792c-5.283,13.753-7.063,28.198-7.944,42.731c-1.108,18.296-0.811,36.615,0.649,54.897    c0.72,9.014,1.476,18.024,4.023,26.779c1.196,4.111,2.911,7.915,5.525,11.301c1.742,2.257,3.909,4.033,6.64,4.887    c3.708,1.159,7.623-0.708,10.189-4.963c4.116-6.826,5.966-14.474,7.444-22.183C218.028,399.544,218.702,384.862,219.013,368.111z"/>
	</g>
	<g>
		<path d="M174.859,256.059c-1.459-0.329-2.929-0.616-4.372-1.001c-1.123-0.299-1.827,0.272-2.615,0.919    c-3.847,3.156-7.684,6.328-11.628,9.36c-1.138,0.875-2.709,2.855-3.995,1.27c-1.358-1.674,0.926-2.841,2.04-3.871    c2.655-2.456,5.462-4.747,8.189-7.126c0.613-0.534,1.646-1.008,1.565-1.8c-0.096-0.941-1.352-0.685-2.031-1.083    c-3.716-2.181-6.587-1.004-9.549,1.786c-2.33,2.195-5.261,3.762-7.977,5.528c-0.86,0.559-2.014,1.214-2.852,0.119    c-0.909-1.188,0.02-2.128,0.915-2.866c2.851-2.35,5.708-4.695,8.618-6.971c1.048-0.819,1.113-1.331-0.175-1.826    c-0.211-0.081-0.44-0.15-0.614-0.286c-3.712-2.888-6.93-2.283-10.201,0.974c-2.008,2-4.548,3.471-6.878,5.14    c-0.731,0.524-1.52,1-2.344,1.352c-0.985,0.422-2.168,0.766-2.841-0.382c-0.654-1.116,0.352-1.775,1.112-2.395    c3.388-2.766,6.731-5.589,10.195-8.257c1.497-1.153,1.186-1.819-0.219-2.557c-0.066-0.035-0.129-0.078-0.192-0.119    c-3.403-2.186-3.371-2.139-6.723,0.126c-3.122,2.11-6.198,4.302-9.563,6.028c-0.536,0.275-1.063,0.594-1.633,0.767    c-0.806,0.245-1.718,0.424-2.167-0.561c-0.398-0.874,0.265-1.405,0.887-1.857c2.379-1.73,4.775-3.435,7.151-5.167    c1.158-0.844,2.317-1.69,3.415-2.608c0.493-0.412,1.632-0.663,0.896-1.672c-0.546-0.747-1.206-0.208-1.806,0.104    c-4.155,2.164-8.487,3.912-12.899,5.472c-0.852,0.301-1.707,0.608-2.582,0.832c-1.102,0.283-2.403,0.661-2.883-0.807    c-0.437-1.337,0.783-1.809,1.726-2.251c3.14-1.472,6.302-2.899,9.453-4.349c0.548-0.252,1.161-0.438,1.609-0.815    c0.741-0.622,2.727-0.59,1.939-2.021c-0.699-1.27-2.211-1.875-3.928-0.887c-2.942,1.693-6.078,3.01-9.272,4.163    c-1.06,0.383-2.148,0.725-3.252,0.943c-0.96,0.189-2.101,0.309-2.488-0.913c-0.399-1.263,0.659-1.654,1.556-2.095    c2.977-1.462,5.969-2.895,8.895-4.455c0.742-0.395,2.306-0.657,1.657-1.928c-0.589-1.155-1.698-2.112-3.366-1.516    c-2.839,1.014-5.703,1.962-8.573,2.887c-1,0.322-2.041,0.53-3.075,0.726c-1.106,0.209-2.236,0.155-2.581-1.152    c-0.324-1.226,0.675-1.727,1.599-2.115c2.989-1.255,5.994-2.471,8.987-3.717c1.102-0.459,2.186-0.962,3.503-1.544    c-2.392-0.048-4.503-0.07-6.613-0.136c-7.608-0.241-15.237,0.074-22.82-0.88c-2.18-0.274-4.32-0.692-6.403-1.371    c-3.554-1.158-5.737-3.655-5.531-7.381c0.59-10.675,3.937-20.315,12.228-27.528c3.392-2.951,7.762-4.318,12.196-5.078    c1.895-0.325,2.463-1.066,2.283-3.014c-0.262-2.842-0.156-5.723-0.128-8.586c0.027-2.879,0.054-2.916-2.83-2.971    c-21.87-0.415-43.74-0.81-65.609-1.237c-8.672-0.169-17.344-0.399-26.015-0.619c-0.9-0.023-1.807-0.116-2.693-0.273    c-2.519-0.448-3.985-2.132-3.442-4.625c2.296-10.547,5.182-20.861,13.743-28.384c6.757-5.938,14.444-8.537,23.424-6.438    c3.314,0.774,3.449,0.697,4.579-2.503c2.725-7.713,5.897-15.161,11.274-21.511c8.916-10.528,26.686-17.633,42.183-9.49    c4.472,2.35,4.524,2.155,7.296-2.23c7.41-11.721,17.799-19.099,31.596-21.324c14.168-2.284,29.14,5.641,35.401,18.61    c0.126,0.26,0.311,0.491,0.576,0.902c3.807-4.445,7.774-8.541,12.345-12.008c8.926-6.771,18.954-10.81,30.173-10.618    c11.531,0.197,21.771,3.987,29.084,13.556c1.375,1.799,1.948,0.774,2.743-0.381c3.604-5.242,7.665-10.086,12.652-14.074    c10.776-8.614,23.367-12.778,36.832-14.309c11.876-1.35,23.66-0.292,35.119,3.292c12.267,3.837,22.876,10.184,30.142,21.121    c5.569,8.383,7.841,17.567,5.547,27.563c-0.432,1.884-0.009,2.693,1.902,2.788c1.872,0.093,3.824,1.548,5.478,0.72    c1.576-0.788,1.472-3.154,2.341-4.723c5.758-10.399,14.895-15.805,26.366-17.321c13.792-1.823,26.198,1.599,36.72,10.944    c4.372,3.883,7.786,8.594,11.015,13.433c2.308,3.458,2.311,3.53,6.105,1.877c9.503-4.141,19.069-5.277,28.976-1.291    c9.173,3.691,15.371,10.43,19.98,18.853c5.814,10.626,8.246,22.118,8.292,34.152c0.018,4.73-0.564,5.21-5.213,5.124    c-28.507-0.529-57.013-1.06-85.52-1.587c-2.757-0.051-2.705-0.06-1.722,2.513c1.595,4.172,1.98,8.54,1.404,12.915    c-0.245,1.856,0.399,2.405,1.934,2.805c4.165,1.087,8.246,2.439,12.158,4.25c6.58,3.045,9.49,8.633,8.479,15.831    c-1.082,7.7-2.755,15.285-4.285,22.896c-1.295,6.439-4.361,8.415-10.881,7.352c-13.317-2.171-26.574-4.735-40.001-6.184    c-17.858-1.926-35.758-2.9-53.728-2.329c-5.121,0.163-10.248,0.061-15.375,0.166c-15.975,0.328-31.928,1.116-47.891,1.732    c-9.334,0.36-18.681,0.498-28.027,0.596c-10.189,0.107-20.338-0.186-30.474-1.156c-1.424-0.136-2.901-0.182-4.241-0.618    c-2.171-0.706-3.279,0.22-4.398,1.942c-4.726,7.268-9.556,14.469-14.364,21.683c-2.295,3.444-4.785,6.512-8.351,9    c-3.381,2.359-6.252,5.614-9.524,8.276c-2.046,1.665-4.123,3.293-6.241,4.863c-0.988,0.732-2.299,2.043-3.341,0.763    c-1.166-1.433,0.546-2.396,1.481-3.26c3.102-2.865,6.249-5.682,9.417-8.475c0.618-0.545,1.405-0.896,2.114-1.337    C175.227,256.589,175.043,256.324,174.859,256.059z M104.774,172.3c0.209,6.096-1.27,6.243,5.411,5.81    c6.785-0.441,13.539,0.605,20.312,0.875c2.708,0.108,5.406,0.432,8.113,0.582c10.223,0.568,20.43,1.776,30.695,0.818    c1.93-0.18,3.571-0.778,5.048-2.17c2.19-2.064,4.568-3.935,6.929-5.808c5.87-4.658,11.991-8.906,19.202-11.286    c11.865-3.915,23.116-1.426,33.999,3.566c8.635,3.961,15.692,10.386,23.376,15.816c2.1,1.484,4.079,2.07,6.495,1.672    c0.519-0.085,1.047-0.142,1.572-0.167c11.898-0.562,23.733-1.863,35.562-3.176c16.104-1.788,32.062-4.68,48.193-6.317    c14.477-1.47,28.872-1.457,43.238,1.037c7.363,1.278,14.611,3.046,21.825,4.958c1.578,0.418,2.299,0.141,2.142-1.603    c-0.195-2.175-0.24-4.368-0.526-6.529c-0.708-5.341-3.911-8.851-8.584-11.129c-3.362-1.639-6.994-2.338-10.701-2.636    c-4.338-0.348-5.304-1.547-4.598-5.762c0.949-5.66,1.784-11.322,0.861-17.083c-1.778-11.107-9.194-22.749-22.923-25.686    c-2.505-0.536-5.013-1.08-7.487-1.742c-3.39-0.907-3.647-1.374-2.89-4.77c1.178-5.283,1.674-10.543,0.176-15.877    c-3.057-10.885-10.23-18.419-19.916-23.464c-16.838-8.77-34.757-10.422-53.219-6.681c-11.035,2.236-21.07,6.669-29.68,14.136    c-4.076,3.535-7.363,7.75-10.933,11.729c-2.793,3.113-4.589,2.885-6.953-0.594c-6.732-9.906-16.408-13.466-27.957-12.833    c-7.479,0.41-14.277,2.942-20.518,7.016c-13.007,8.491-22.614,19.58-26.632,34.935c-0.534,2.041-1.102,4.08-1.798,6.07    c-1.052,3.009-3.152,4.281-6.294,3.931c-1.047-0.116-2.089-0.312-3.122-0.524c-6.724-1.381-13.184-0.836-19.289,2.536    c-4.653,2.57-8.872,5.716-12.618,9.477C109.797,142.963,105.989,157.546,104.774,172.3z M52.128,160.054c0-0.005,0-0.009,0-0.014    c15.228,0.305,30.455,0.611,45.683,0.914c3.436,0.068,3.42,0.062,4.064-3.243c2.819-14.463,8.555-27.251,20.508-36.652    c9.757-7.674,20.381-11.246,32.708-7.704c1.827,0.525,2.375-0.292,2.825-1.836c1.964-6.74,4.029-13.466,7.846-19.439    c1.147-1.795,1.07-3.295,0.156-5.022c-5.621-10.62-14.626-16.389-26.43-16.393c-11.314-0.004-21.114,4.583-28.541,13.439    c-2.613,3.115-4.924,6.481-7.478,9.648c-1.691,2.097-3.77,2.588-6.284,1.662C96.06,95,94.98,94.443,93.911,93.887    c-6.704-3.488-13.642-3.898-20.824-1.717c-9.426,2.862-16.334,8.75-21.183,17.249c-2.632,4.613-4.1,9.721-6.419,14.458    c-1.934,3.95-3.64,4.924-7.983,4.094c-10.411-1.989-18.237,2.297-24.582,10.02c-4.612,5.613-6.266,12.625-8.58,19.311    c-0.553,1.598-0.129,1.833,1.425,1.859C21.22,159.413,36.674,159.745,52.128,160.054z M460.413,159.158    c0.001-0.031,0.001-0.061,0.002-0.092c14.703,0.294,29.407,0.592,44.11,0.881c2.844,0.056,3.05-0.092,2.879-2.856    c-0.635-10.26-2.73-20.137-7.549-29.344c-5.169-9.875-12.876-16.327-23.97-18.522c-6.743-1.334-13.002,0.29-19.188,2.729    c-6.072,2.394-7.82,1.869-11.709-3.397c-2.463-3.335-4.68-6.874-7.527-9.896c-9.906-10.515-22.175-14.485-36.325-12.417    c-10.698,1.564-18.682,7.222-23.618,16.987c-0.664,1.314-0.727,2.14,0.849,2.816c5.158,2.209,8.932,6.142,12.22,10.498    c7.361,9.752,9.287,20.743,6.869,32.577c-0.41,2.005,0.02,2.905,2.16,3.136c4.393,0.474,8.684,1.577,12.294,4.185    c2.101,1.518,4.178,1.893,6.654,1.925C432.515,158.549,446.464,158.878,460.413,159.158z M380.159,218.791    c1.271,0.35,2.342-0.622,3.289-2.404c1.978-3.723,4.196-7.322,6.82-10.644c6.038-7.641,12.396-14.971,20.238-20.863    c0.403-0.303,1.017-0.534,0.859-1.178c-0.128-0.522-0.707-0.481-1.129-0.593c-8.239-2.171-16.549-3.966-25.013-5.044    c-2.183-0.278-3.831,0.318-5.559,1.646c-12.873,9.899-22.969,22.323-32.394,35.368c-0.333,0.461-0.986,0.922-0.67,1.56    c0.319,0.644,1.079,0.385,1.648,0.398C358.642,217.27,369.039,217.381,380.159,218.791z M375.398,177.752    c-0.494-0.78-1.086-0.63-1.572-0.646c-9.661-0.321-19.281,0.305-28.883,1.31c-1.273,0.133-2.225,0.794-3.117,1.666    c-2.804,2.742-5.664,5.428-8.47,8.168c-8.241,8.045-15.555,16.806-21.097,26.978c-1.039,1.907-0.411,2.18,1.319,2.108    c2.635-0.11,5.27-0.216,7.907-0.25c5.803-0.075,11.608-0.115,17.412-0.139c1.049-0.005,1.853-0.188,2.416-1.242    c2.565-4.806,5.799-9.165,9.102-13.482c4.96-6.484,10.336-12.566,16.471-17.979C369.573,181.871,372.549,179.877,375.398,177.752z     M335.264,179.891c-1.159-0.023-1.76-0.109-2.34-0.036c-10.235,1.296-20.468,2.614-30.702,3.917    c-0.944,0.12-1.73,0.505-2.347,1.219c-6.743,7.804-13.845,15.316-19.428,24.061c-2.09,3.273-4.303,6.467-6.625,9.944    c10.43-0.488,20.48-0.961,30.532-1.422c0.885-0.041,1.32-0.558,1.668-1.29c4.649-9.778,11.49-17.984,18.605-26.002    C327.816,186.689,331.414,183.518,335.264,179.891z M293.864,185.215c-1.497-0.644-2.695-0.34-3.866-0.248    c-7.058,0.554-14.111,1.185-21.174,1.672c-1.498,0.104-2.543,0.747-3.55,1.697c-2.302,2.173-4.601,4.349-6.934,6.488    c-7.568,6.94-15.023,13.981-20.454,22.834c-0.416,0.678-1.341,1.326-0.932,2.164c0.429,0.878,1.502,0.479,2.277,0.46    c9.261-0.224,18.521-0.516,27.782-0.723c1.496-0.033,2.051-0.913,2.66-2.024c3.881-7.09,8.409-13.758,13.385-20.117    C286.351,193.212,290.003,189.306,293.864,185.215z M227.602,190.983c-0.136-0.222-0.292-0.562-0.522-0.842    c-1.484-1.801-2.956-3.612-4.483-5.376c-6.274-7.247-14.546-11.288-23.314-14.555c-1.285-0.479-2.309-0.199-3.428,0.377    c-6.129,3.159-11.578,7.298-16.967,11.549c-1.587,1.252-1.011,1.768,0.359,2.457c2.557,1.285,5.076,2.636,7.434,4.28    c7.741,5.399,14.951,11.431,21.654,18.07c0.936,0.927,1.631,1.713,2.815,0.163c4.375-5.725,9.624-10.566,15.409-14.841    C226.969,191.963,227.49,191.726,227.602,190.983z M411.485,222.803c0.998,0.234,1.705-0.112,2.25-1.014    c5.703-9.445,13.163-17.382,21.262-24.776c2.571-2.347,2.493-3.369-0.269-5.438c-0.656-0.491-1.408-0.863-2.142-1.239    c-4.593-2.347-9.572-3.595-14.466-5.091c-1.158-0.354-1.987-0.164-2.824,0.707c-1.356,1.411-2.808,2.73-4.222,4.085    c-8.676,8.322-16.398,17.426-22.749,27.664c-0.737,1.189-0.626,1.76,0.803,1.92c1.271,0.142,2.547,0.257,3.813,0.442    C399.124,220.966,405.304,221.888,411.485,222.803z M190.066,235.414c1.008,0.142,1.501-0.561,1.971-1.248    c1.32-1.929,2.606-3.882,3.924-5.813c2.698-3.951,2.703-3.948-1.624-5.543c-0.283-0.104-0.565-0.212-0.844-0.326    c-12.511-5.131-24.256-11.501-33.879-21.225c-1.217-1.23-2.024-1.249-3.372-0.198c-4.695,3.661-9.468,7.227-14.276,10.74    c-1.255,0.917-0.884,1.439,0.048,2.196c3.109,2.525,6.43,4.748,9.803,6.889c9.384,5.956,19.672,9.774,30.312,12.77    C184.749,234.392,187.375,235.035,190.066,235.414z M178.106,250.732c1.393,0.171,2.583-0.355,3.46-1.338    c2.513-2.821,4.538-6.003,6.53-9.202c0.669-1.074,0.047-1.214-0.843-1.389c-1.995-0.391-3.985-0.825-5.953-1.337    c-15.87-4.133-31.3-9.146-42.892-21.725c-0.594-0.645-1.158-0.86-1.958-0.335c-3.854,2.528-7.994,4.527-12.157,6.477    c-1.28,0.599-1.129,1.166-0.136,1.891c2.557,1.866,5.101,3.749,7.649,5.626c10.978,8.085,22.47,15.202,35.715,19.04    C171.002,249.448,174.499,250.344,178.106,250.732z M174.396,186.166c-0.336,0.161-0.643,0.24-0.862,0.424    c-3.923,3.297-7.842,6.598-11.744,9.921c-1.036,0.882-0.219,1.404,0.459,1.925c1.735,1.331,3.585,2.538,5.181,4.019    c9.165,8.513,20.276,13.432,31.877,17.488c1.178,0.412,1.94,0.294,2.685-0.774c1.378-1.977,2.865-3.878,4.34-5.786    c0.723-0.935,0.759-1.621-0.25-2.468c-9.873-8.289-19.638-16.713-30.354-23.934C175.302,186.693,174.849,186.442,174.396,186.166z     M107.978,215.759c0.075,0.213,0.15,0.426,0.225,0.638c2.538,0.051,5.124-0.192,7.606,0.208    c7.435,1.198,13.413-1.677,19.198-5.922c8.209-6.023,16.148-12.366,23.803-19.064c2.28-1.995,4.853-3.716,6.755-6.123    c-0.565-0.633-1.129-0.477-1.619-0.425c-5.496,0.58-10.993,0.088-16.484-0.039c-2.316-0.054-4.242,0.176-5.746,2.193    c-0.698,0.936-1.798,1.597-2.783,2.288c-8.651,6.072-16.701,12.863-24.323,20.178C112.451,211.767,110.192,213.74,107.978,215.759    z M138.311,185.004c-0.379-0.607-0.788-0.518-1.141-0.535c-5.637-0.281-11.285-0.413-16.906-0.876    c-3.366-0.277-5.898,0.649-8.549,2.855c-9.381,7.804-17.769,16.451-24.598,26.594c-1.008,1.498-0.836,1.996,0.934,2.192    c4.189,0.463,8.375,0.892,12.592,1.039c1.554,0.054,2.633-0.403,3.73-1.566c7.382-7.824,14.538-15.883,23.275-22.313    C131.134,189.828,134.621,187.267,138.311,185.004z M260.18,187.097c-2.723,0.358-5.274,0.93-7.883,1.157    c-8.572,0.748-16.132,4.102-23.128,8.919c-7.817,5.382-13.738,12.578-19.276,20.145c-0.865,1.182-0.436,1.551,0.802,1.657    c6.449,0.552,12.895,1.139,19.374,1.216c1.169,0.014,1.755-0.534,2.216-1.526c1.21-2.601,2.702-5.048,4.316-7.414    c4.494-6.584,10.223-12.036,16.049-17.392C255.135,191.577,257.669,189.35,260.18,187.097z M204.239,167.391    c0.329,0.218,0.491,0.391,0.686,0.446c11.27,3.166,19.682,10.102,25.986,19.776c0.841,1.291,1.646,1.195,2.805,0.579    c5.336-2.833,11.094-4.195,17.062-4.807c0.709-0.073,1.496-0.012,2.164-0.747c-1.919-1.256-3.813-2.438-5.648-3.707    c-6.127-4.237-12.154-8.575-19.417-10.861C220.071,165.614,212.316,164.868,204.239,167.391z M107.17,184.124    c-0.85-0.174-1.136-0.301-1.41-0.279c-6.341,0.508-12.541,1.667-17.047,6.607c-5.356,5.872-7.846,13.081-8.653,20.913    c-0.008,0.074,0.009,0.15,0.012,0.225c0.045,1.117,0.624,1.874,1.676,2.146c1.189,0.308,1.251-0.829,1.64-1.478    c3.836-6.407,8.023-12.543,13.108-18.058C99.71,190.714,103.261,187.598,107.17,184.124z M437.457,200.778    c-1.883,1.689-3.552,3.16-5.192,4.664c-5.363,4.919-9.708,10.699-13.943,16.567c-0.568,0.787-1.584,1.865,0.407,2.233    c3.924,0.725,7.852,1.431,11.784,2.108c1.845,0.318,2.844-0.538,3.107-2.377c0.278-1.938,0.61-3.868,0.931-5.8    C435.5,212.467,436.826,206.822,437.457,200.778z"/>
		<path d="M218.781,152.674c-6.587-0.146-11.671-5.221-11.513-11.494c0.17-6.784,6.124-12.383,12.954-12.184    c6.541,0.19,11.702,5.446,11.564,11.777C231.634,147.698,226.023,152.834,218.781,152.674z M221.229,134.016    c-4.791-0.114-8.728,3.234-8.829,7.508c-0.093,3.928,3.273,7.251,7.391,7.298c4.101,0.046,8.53-4.181,8.527-8.139    C228.314,136.923,225.328,134.114,221.229,134.016z"/>
		<path d="M322.516,154.75c-6.703-0.129-11.861-5.254-11.634-11.559c0.241-6.694,6.078-12.254,12.732-12.127    c6.699,0.128,11.902,5.297,11.791,11.714C335.284,149.7,329.7,154.887,322.516,154.75z M323.332,150.897    c4.306,0.109,8.489-3.796,8.591-8.021c0.087-3.583-3.19-6.858-6.949-6.947c-4.577-0.108-8.77,3.436-8.955,7.568    C315.848,147.321,319.28,150.794,323.332,150.897z"/>
		<path d="M280.038,167.829c-3.388-0.197-7.019-1.547-9.78-4.824c-0.649-0.77-1.156-1.581-1.238-2.602    c-0.058-0.715,0.096-1.381,0.767-1.754c0.589-0.327,1.173-0.133,1.696,0.23c0.308,0.214,0.636,0.419,0.891,0.689    c6.099,6.426,15.79,3.489,20.226-3.084c0.839-1.244,1.492-2.614,2.239-3.921c0.578-1.012,1.235-2.096,2.61-1.543    c1.328,0.534,1.172,1.786,0.947,2.927C296.736,162.369,289.628,167.979,280.038,167.829z"/>
		<path d="M231.033,111.898c6.378,0.154,11.234,2.184,15.101,6.441c0.932,1.026,1.632,2.179,1.751,3.588    c0.066,0.778-0.13,1.528-0.851,1.969c-0.778,0.476-1.444,0.066-2.066-0.394c-0.241-0.178-0.474-0.378-0.672-0.603    c-5.702-6.451-12.803-7.284-20.634-5.122c-1.45,0.4-2.856,0.96-4.302,1.377c-1.086,0.313-2.396,0.712-2.975-0.633    c-0.518-1.204,0.537-1.98,1.461-2.474C222.178,113.731,226.536,111.447,231.033,111.898z"/>
		<path d="M314.413,114.551c4.37,0.143,8.681,1.469,12.408,4.487c1.02,0.826,1.811,1.815,2.296,3.03    c0.374,0.939,0.69,1.974-0.365,2.639c-0.976,0.615-1.749-0.103-2.341-0.785c-2.28-2.626-5.191-4.031-8.555-4.67    c-5.99-1.137-11.342,0.434-16.283,3.77c-0.936,0.632-1.82,1.344-2.712,2.038c-0.824,0.641-1.733,1.163-2.618,0.299    c-0.885-0.864-0.392-1.875,0.202-2.67c1.457-1.947,3.21-3.648,5.299-4.867C305.523,115.619,309.632,114.465,314.413,114.551z"/>
		<path d="M319.751,110.288c-8.417-0.484-15.385-4.034-21.931-8.637c-0.42-0.295-0.768-0.728-1.065-1.155    c-0.445-0.64-0.745-1.376-0.172-2.079c0.591-0.726,1.325-0.515,2.042-0.143c2.003,1.037,3.999,2.087,6.016,3.094    c5.712,2.852,11.625,4.96,18.137,4.791c0.075-0.002,0.152-0.005,0.225,0.01c1.342,0.275,3.291,0,3.36,1.89    c0.073,2.007-1.874,1.742-3.233,1.916C321.94,110.128,320.739,110.2,319.751,110.288z"/>
		<path d="M225.315,108.533c-1.239-0.124-2.458-0.042-3.58-0.617c-0.638-0.327-1.137-0.772-1.132-1.547    c0.005-0.882,0.571-1.376,1.335-1.621c0.494-0.158,1.03-0.235,1.551-0.256c7.67-0.301,14.203-3.659,20.514-7.616    c0.383-0.24,0.716-0.572,1.118-0.764c0.961-0.459,2.025-1.693,3.005-0.587c1.094,1.235,0.044,2.527-0.901,3.306    C240.832,104.108,233.712,107.797,225.315,108.533z"/>
	</g>
</g>
<g>
</g>
<g>
</g>
<g>
</g>
<g>
</g>
<g>
</g>
<g>
</g>
<g>
</g>
<g>
</g>
<g>
</g>
<g>
</g>
<g>
</g>
<g>
</g>
<g>
</g>
<g>
</g>
<g>
</g>
</svg>
