<?xml version="1.0" encoding="UTF-8"?>
<!-- Generator: Adobe Illustrator 27.3.1, SVG Export Plug-In . SVG Version: 6.00 Build 0)  -->
<svg xmlns="http://www.w3.org/2000/svg" xmlns:xlink="http://www.w3.org/1999/xlink" version="1.1" id="Capa_1" x="0px" y="0px" viewBox="0 0 512 512" style="enable-background:new 0 0 512 512;" xml:space="preserve" width="512" height="512">
<g>
	<path style="fill:#FFFFFF;" d="M300.239,488.637c-46.264,0-86.059-15.014-112.61-42.373   c-62.857-19.992-101.771-55.261-106.2-95.809c-7.031-3.71-14.502-7.994-21.616-12.994C24.677,312.798,2.977,273.69,0.286,230.169   c-2.473-39.983,11.165-82.415,38.401-119.477c23.373-31.82,55.36-57.186,90.063-71.424c25.744-10.553,54.484-15.904,85.426-15.904   c13.486,0,27.319,1.04,41.113,3.089c54.208,8.085,104.731,30.598,146.117,65.105c9.738,8.11,18.925,16.875,27.3,26.047   c2.711,2.94,5.492,6.12,8.216,9.396c21.921,26.31,40.701,59.739,52.871,94.12c11.06,31.139,16.447,62.713,15.646,91.58   c4.356,9.739,6.561,19.798,6.561,29.957c0,27.43-15.467,52.927-44.76,73.838c-2.382,2.799-4.853,5.505-7.363,8.063   c-38.561,39.51-99.746,64.077-159.636,64.077C300.238,488.637,300.243,488.637,300.239,488.637z"/>
	<g>
		<g>
			<g>
				<path style="fill:#977BFF;" d="M490,314.691c-1.541,32.128-11.442,63.144-33.239,89.413c0,0,0,0.025-0.025,0.025      c-2.45,2.955-5.052,5.86-7.83,8.689c-63.574,65.14-193.929,84.487-253.083,19.07c-1.465-1.616-2.905-3.283-4.269-5.001      c-2.324-2.905-4.471-5.91-6.516-8.992c-9.093-13.589-16.291-28.364-27.733-40.337c-12.073-12.629-28.011-21.267-44.479-29.425      c-5.557-2.753-11.214-5.456-16.771-8.259c-9.648-4.824-19.095-9.901-27.683-15.938c-32.027-22.479-50.793-58.244-53.117-95.828      c-2.324-37.584,11.265-76.607,35.487-109.568c20.686-28.162,49.556-52.41,83.603-66.378      c37.584-15.407,79.638-17.63,118.56-11.846c52.662,7.855,100.652,30.082,138.64,61.755c9.219,7.678,17.857,15.912,25.813,24.626      c2.677,2.905,5.254,5.86,7.754,8.865c19.802,23.768,38.114,55.239,50.238,89.488C485.606,253.921,491.415,284.786,490,314.691z"/>
			</g>
			<g>
				<g>
					<g>
						<g>
							<polygon style="fill:#DBB0FF;" points="62.258,128.41 49.184,211.944 109.676,326.697 171.624,352.202 190.432,279.843          128.804,159.701        "/>
						</g>
						<g>
							<g>
								<path style="fill:#302945;" d="M171.624,352.797c-0.122,0-0.244-0.038-0.349-0.114l-45.061-32.628          c-0.075-0.054-0.136-0.125-0.179-0.206l-62.56-119.665c-0.042-0.081-0.065-0.17-0.068-0.261l-1.745-71.499          c-0.006-0.28,0.183-0.527,0.454-0.593c0.277-0.063,0.554,0.067,0.677,0.317L172.159,351.94          c0.12,0.245,0.057,0.541-0.152,0.717C171.896,352.75,171.761,352.797,171.624,352.797z M127.025,319.174l43.017,31.148          L62.919,131.119l1.676,68.636L127.025,319.174z"/>
							</g>
							<g>
								<path style="fill:#302945;" d="M49.184,212.54c-0.169,0-0.336-0.072-0.454-0.21c-0.212-0.252-0.183-0.626,0.068-0.84          c0.428-0.364,43.221-36.547,79.77-52.336c0.3-0.13,0.651,0.007,0.782,0.311c0.131,0.301-0.009,0.651-0.311,0.782          c-36.383,15.718-79.044,51.788-79.469,52.151C49.458,212.493,49.321,212.54,49.184,212.54z"/>
							</g>
							<g>
								<path style="fill:#302945;" d="M109.676,327.292c-0.239,0-0.466-0.147-0.556-0.383c-0.117-0.307,0.037-0.651,0.344-0.768          c0.519-0.197,52.161-20.035,80.56-46.731c0.239-0.224,0.614-0.216,0.842,0.026c0.224,0.241,0.213,0.617-0.026,0.842          c-28.573,26.857-80.431,46.777-80.952,46.975C109.817,327.28,109.746,327.292,109.676,327.292z"/>
							</g>
							<g>
								<path style="fill:#302945;" d="M171.625,352.797c-0.021,0-0.041-0.001-0.06-0.004c-0.328-0.032-0.566-0.324-0.533-0.651          l6.253-62.222l-64.069-122.79l-51.18-38.095c-0.264-0.196-0.318-0.569-0.122-0.833c0.195-0.265,0.571-0.321,0.832-0.122          l51.29,38.176c0.073,0.053,0.131,0.122,0.173,0.202l64.215,123.069c0.053,0.102,0.077,0.22,0.064,0.334l-6.271,62.398          C172.185,352.567,171.926,352.797,171.625,352.797z"/>
							</g>
						</g>
					</g>
					<g>
						<g>
							<path style="fill:#F7EDE5;" d="M121.453,180.339L121.453,180.339c3.215-1.594,7.116-0.372,8.846,2.772l8.718,15.839         c2.106,3.826,0.048,8.612-4.178,9.715l-0.487,0.127c-3.034,0.792-6.211-0.626-7.648-3.413l-8.23-15.966         C116.759,186.087,118.101,182.002,121.453,180.339z"/>
						</g>
						<g>
							<path style="fill:#F7EDE5;" d="M151.437,221.355c2.486,3.129,1.965,7.681-1.165,10.167         c-3.129,2.486-7.681,1.965-10.167-1.165c-2.486-3.129-1.964-7.681,1.164-10.167         C144.399,217.705,148.951,218.226,151.437,221.355z"/>
						</g>
					</g>
				</g>
				<g>
					<g>
						<g>
							<g>
								<ellipse style="fill:#F7EDE5;" cx="296.347" cy="341.532" rx="200.343" ry="104.442"/>
							</g>
							<g>
								<path style="fill:#302945;" d="M296.348,438.573c-102.065,0-185.099-43.533-185.099-97.041          c0-53.509,83.035-97.041,185.099-97.041c102.063,0,185.098,43.533,185.098,97.041          C481.446,395.041,398.411,438.573,296.348,438.573z M296.348,246.772c-100.807,0-182.818,42.509-182.818,94.76          s82.011,94.76,182.818,94.76c100.805,0,182.817-42.509,182.817-94.76S397.153,246.772,296.348,246.772z"/>
							</g>
							<g>
								<path style="fill:#302945;" d="M296.348,394.569c-55.784,0-101.167-23.793-101.167-53.038s45.383-53.038,101.167-53.038          c55.783,0,101.166,23.793,101.166,53.038S352.131,394.569,296.348,394.569z M296.348,289.74          c-55.096,0-99.921,23.234-99.921,51.792c0,28.558,44.825,51.792,99.921,51.792s99.92-23.234,99.92-51.792          C396.267,312.974,351.444,289.74,296.348,289.74z"/>
							</g>
						</g>
						<g>
							<path style="fill:#FFA352;" d="M448.828,357.86c-2.258,0.867-4.699,1.346-7.276,1.346c-11.246,0-20.37-9.124-20.37-20.392         c0-11.245,9.124-20.392,20.37-20.392c2.577,0,5.018,0.479,7.276,1.346c-7.664,2.943-13.093,10.356-13.093,19.047         C435.735,347.504,441.164,354.94,448.828,357.86z"/>
						</g>
						<g>
							<path style="fill:#FFA352;" d="M314.552,256.949c0.761,1.656,1.127,3.416,1.008,5.242         c-0.517,7.967-10.042,13.839-21.287,13.108c-11.222-0.729-19.93-7.785-19.412-15.752c0.119-1.826,0.709-3.524,1.678-5.068         c2.584,5.62,9.732,9.947,18.404,10.51C303.615,265.553,311.285,262.19,314.552,256.949z"/>
						</g>
						<g>
							<path style="fill:#FFA352;" d="M275.266,421.41c-0.761-1.656-1.127-3.416-1.008-5.242         c0.518-7.966,10.042-13.839,21.287-13.108c11.222,0.729,19.93,7.786,19.412,15.752c-0.119,1.826-0.709,3.524-1.678,5.068         c-2.584-5.62-9.732-9.947-18.404-10.51C286.203,412.806,278.532,416.17,275.266,421.41z"/>
						</g>
						<g>
							<path style="fill:#FFA352;" d="M146.294,319.766c2.258-0.867,4.699-1.346,7.277-1.346c11.245,0,20.369,9.124,20.369,20.392         c0,11.246-9.124,20.392-20.369,20.392c-2.578,0-5.018-0.479-7.277-1.346c7.664-2.942,13.093-10.356,13.093-19.047         C159.387,330.122,153.958,322.686,146.294,319.766z"/>
						</g>
					</g>
					<g>
						<g style="opacity:0.42;">
							<path style="fill:#F7EDE5;" d="M466.208,265.06c4.142,6.769,4.092,14.902,1.92,22.707c0,0,0,0,0,0.025         c-1.187,4.243-3.031,8.411-5.153,12.174c-0.101,0.177-0.202,0.354-0.328,0.53c-3.991,6.971-8.966,13.361-14.725,18.969         c-0.505,0.48-1.01,0.985-1.515,1.44c-2.046,1.894-4.168,3.713-6.39,5.405c-5.784,4.445-12.098,8.184-18.792,11.063         c-1.718,0.758-3.486,1.465-5.279,2.096c-6.188,2.198-12.604,3.561-19.12,4.142c-3.309,0.354-6.643,0.455-10.002,0.379         c-1.92-0.051-3.864-0.152-5.784-0.328c-0.581-0.025-1.162-0.101-1.743-0.152c-8.234-0.884-16.367-2.879-24.096-5.86         c-0.177-0.076-0.328-0.126-0.505-0.202c4.748-0.808,9.421-2.324,13.74-4.546c2.627-1.313,5.102-2.879,7.375-4.698         c3.637-2.804,6.769-6.188,9.194-10.053c0.152-0.278,0.328-0.556,0.505-0.859c1.086-1.844,1.995-3.814,2.703-5.885         c4.849-14.043-1.743-31.901-15.66-37.053c-7.628-2.804-16.039-1.768-24.146-1.339c-8.588,0.48-17.327,0.177-25.536-2.324         c-3.031-0.934-6.011-2.197-8.764-3.789c-2.172-1.263-4.218-2.702-6.062-4.344c-2.172-1.945-4.092-4.142-5.632-6.643         c-1.97-3.157-3.258-6.643-3.89-10.28c-0.505-2.778-0.606-5.658-0.379-8.537c0.556-6.971,3.208-13.892,7.451-19.474         c8.234-10.836,21.57-16.998,35.033-18.969c19.979-2.879,41.625,2.374,59.709-6.567c5.38-2.652,10.507-7.047,11.492-12.982         c0.909-5.506-1.995-10.962-5.733-15.079c-3.763-4.092-8.386-7.35-12.099-11.492c-10.229-11.417-12.149-29.021-6.264-43.191         c1.061-2.551,2.324-4.976,3.814-7.274c9.219,7.678,17.857,15.912,25.813,24.626c2.677,2.905,5.254,5.86,7.754,8.865         c19.802,23.768,38.114,55.239,50.238,89.488c-8.032,2.804-16.569,4.117-25.081,3.688         c-13.488-0.682-26.394-5.355-39.478-8.638c-25.334-6.365-53.647-7.173-76.026,6.264c-4.37,2.652-8.764,7.249-9.396,11.846         c-0.227,1.717,0.051,3.435,1.061,5.052c1.263,2.071,3.41,3.334,5.708,4.193c0.935,0.354,1.894,0.657,2.829,0.909         c9.396,2.602,18.969,3.662,28.668,3.89c10.836,0.253,21.798-0.505,32.785-1.212c13.462-0.859,26.925-1.617,40.236-0.278         C447.946,251.9,460.297,255.361,466.208,265.06z"/>
						</g>
						<g>
							<g>
								<g>
									<g>
										<g>
											<path style="fill:#9DD1A9;" d="M387.733,356.801l-25.505,8.042l-2.403,0.765l-31.806,10.061l-2.403,0.765l-3.5,1.079             l-2.403,0.765l-36.498,11.538l-2.483,0.774l-16.896,5.34l-2.428,0.76l-45.47,14.371l-0.193,0.063             c0,0-1.394-1.115-3.567-3.32c-1.431-1.432-3.225-3.353-5.165-5.69c-0.265-0.339-0.555-0.683-0.864-1.056             c-2.602-3.249-5.43-7.267-8.066-11.967c-0.205-0.378-0.435-0.761-0.616-1.134c-1.389-2.507-2.686-5.201-3.839-8.097             c-0.176-0.398-0.326-0.79-0.452-1.177c-1.692-4.273-3.075-8.919-3.975-13.904c-0.096-0.407-0.167-0.809-0.239-1.21             c-0.594-3.477-0.949-7.111-1.035-10.921c-0.04-1.917-0.017-3.77,0.046-5.562c0.013-0.436,0.026-0.872,0.064-1.302             c0.277-5.308,0.984-9.959,1.98-14.009c0.098-0.47,0.215-0.91,0.356-1.345c1.237-4.593,2.845-8.361,4.547-11.464             c0.256-0.488,0.532-0.947,0.803-1.381c5.009-8.35,10.598-11.163,10.598-11.163l44.163-4.349l4.501-0.433l8.427-0.83             l2.711-0.262l34.289-3.381l0.025,0.005l3.108-0.309l2.132-0.203l2.528-0.249l21.673-2.13l2.632-0.253l5.691-0.573             l2.503-0.254l42.21-4.135l0.201,3.008l0.1,1.259l0.634,8.877l0.1,1.259l0.346,4.921l0.075,1.254l0.685,9.377l0.075,1.254             l0.585,8.118l0.1,1.259l0.853,12.043l0.075,1.254l0.382,5.368l0.095,1.284L387.733,356.801z"/>
										</g>
										<g style="opacity:0.35;">
											<path style="fill:#302945;" d="M387.733,356.801l-25.505,8.042l-2.403,0.765l-31.806,10.061l-2.403,0.765l-3.5,1.079             l-2.403,0.765l-36.498,11.538l-2.483,0.774l-16.896,5.34l-2.428,0.76l-45.47,14.371l-0.193,0.063             c0,0-1.394-1.115-3.567-3.32c-1.431-1.432-3.225-3.353-5.165-5.69c-0.265-0.339-0.555-0.683-0.864-1.056             c-2.602-3.249-5.43-7.267-8.066-11.967c-0.205-0.378-0.435-0.761-0.616-1.134c-1.389-2.507-2.686-5.201-3.839-8.097             c-0.176-0.398-0.326-0.79-0.452-1.177c-1.692-4.273-3.075-8.919-3.975-13.904c-0.096-0.407-0.167-0.809-0.239-1.21             c-0.594-3.477-0.949-7.111-1.035-10.921c-0.04-1.917-0.017-3.77,0.046-5.562c0.013-0.436,0.026-0.872,0.064-1.302             c0.277-5.308,0.984-9.959,1.98-14.009c0.098-0.47,0.215-0.91,0.356-1.345c1.237-4.593,2.845-8.361,4.547-11.464             c0.256-0.488,0.532-0.947,0.803-1.381c5.009-8.35,10.598-11.163,10.598-11.163l44.163-4.349l4.501-0.433l8.427-0.83             l2.711-0.262l34.289-3.381l0.025,0.005l3.108-0.309l2.132-0.203l2.528-0.249l21.673-2.13l2.632-0.253l5.691-0.573             l2.503-0.254l42.21-4.135l0.201,3.008l0.1,1.259l0.634,8.877l0.1,1.259l0.346,4.921l0.075,1.254l0.685,9.377l0.075,1.254             l0.585,8.118l0.1,1.259l0.853,12.043l0.075,1.254l0.382,5.368l0.095,1.284L387.733,356.801z"/>
										</g>
									</g>
									<g style="opacity:0.45;">
										<path style="fill:#302945;" d="M387.733,356.801c0,0-1.488-2.398-3.51-6.327c-0.181-0.373-0.361-0.746-0.561-1.148            c-0.747-1.496-1.532-3.181-2.361-5.03c-0.156-0.368-0.307-0.76-0.482-1.158c-1.442-3.369-2.851-7.144-3.981-11.145            c-0.151-0.393-0.252-0.775-0.348-1.181c-0.739-2.656-1.352-5.414-1.758-8.181c-0.041-0.422-0.113-0.823-0.154-1.244            c-0.289-2.459-0.45-4.917-0.357-7.349c0.026-0.871,0.067-1.689,0.132-2.5c0.013-0.436,0.046-0.842,0.108-1.267            c0.163-2.03,0.415-3.861,0.734-5.523c0.068-0.45,0.16-0.895,0.247-1.316c0.908-4.249,2.188-7.31,3.418-9.506l0.025,0.005            c0.286-0.508,0.567-0.991,0.858-1.395c1.723-2.583,3.171-3.469,3.171-3.469l0.201,3.008l0.1,1.259l0.634,8.877l0.1,1.259            l0.346,4.921l0.075,1.254l0.685,9.377l0.075,1.254l0.585,8.118l0.1,1.259l0.853,12.043l0.075,1.254l0.382,5.368            l0.095,1.284L387.733,356.801z"/>
									</g>
								</g>
								<g>
									<g>
										<path style="fill:#302945;" d="M379.742,292.534c-0.29,0.404-0.571,0.887-0.858,1.395l-0.025-0.005l-183.941,25.04            c0.256-0.488,0.532-0.947,0.803-1.381L379.742,292.534z"/>
									</g>
									<g>
										<path style="fill:#302945;" d="M375.194,304.746l-185.179,27.027c0.098-0.47,0.215-0.91,0.356-1.345l185.07-26.998            C375.354,303.851,375.262,304.296,375.194,304.746z"/>
									</g>
									<g>
										<path style="fill:#302945;" d="M374.352,311.536l-186.381,35.548c0.013-0.436,0.026-0.872,0.064-1.302l186.425-35.513            C374.398,310.694,374.365,311.101,374.352,311.536z"/>
									</g>
									<g>
										<path style="fill:#302945;" d="M374.732,322.63l-185.533,42.147c-0.096-0.407-0.167-0.809-0.239-1.21l185.617-42.182            C374.619,321.807,374.69,322.209,374.732,322.63z"/>
									</g>
									<g>
										<path style="fill:#302945;" d="M384.223,350.474l-177.21,51.64c-0.265-0.339-0.555-0.683-0.864-1.056l177.513-51.732            C383.861,349.729,384.042,350.102,384.223,350.474z"/>
									</g>
									<g>
										<path style="fill:#302945;" d="M376.838,331.993l-183.211,47.866c-0.176-0.398-0.326-0.79-0.452-1.177l183.315-47.87            C376.586,331.219,376.687,331.601,376.838,331.993z"/>
									</g>
									<g>
										<path style="fill:#302945;" d="M381.301,344.296L198.082,389.09c-0.205-0.378-0.435-0.761-0.616-1.134l183.353-44.819            C380.994,343.536,381.145,343.928,381.301,344.296z"/>
									</g>
								</g>
							</g>
							<g>
								<g>
									<g>
										<path style="fill:#F7EDE5;" d="M254.984,301.639c-3.593,2.891-6.994,5.978-10.233,9.277            c-0.464,0.497-0.943,0.939-1.383,1.441l-0.005,0.025c-3.529,3.704-6.793,7.618-9.815,11.738            c-0.355,0.468-0.715,0.961-1.076,1.453c-3.028,4.273-5.81,8.725-8.286,13.319c-0.256,0.488-0.507,0.952-0.733,1.421            c-2.874,5.517-5.348,11.221-7.312,17.081c-0.172,0.454-0.319,0.914-0.466,1.374c-0.786,2.417-1.497,4.849-2.109,7.301            c-0.684,2.67-1.217,5.242-1.651,7.706l-0.005,0.025c-0.068,0.45-0.135,0.9-0.198,1.326l-0.005,0.025            c-0.54,3.344-0.81,6.513-0.872,9.544c0.017,0.416,0.004,0.852-0.004,1.263l-0.005,0.025            c0.013,0.931,0.041,1.788,0.089,2.675c0.187,3.573,0.721,7.089,1.493,10.577c0.096,0.407,0.192,0.814,0.288,1.221            c0.855,3.583,1.979,7.118,3.241,10.605l-0.193,0.063c0,0-1.394-1.115-3.567-3.32c-0.707-2.185-1.355-4.409-1.898-6.637            c-0.096-0.407-0.192-0.814-0.288-1.221c-0.816-3.652-1.413-7.361-1.603-11.167c-0.029-0.728-0.059-1.457-0.063-2.18            l0.005-0.025c-0.012-0.441-0.034-0.833-0.02-1.268c0.007-3.017,0.248-6.165,0.728-9.471c0.068-0.45,0.135-0.9,0.203-1.351            c0.442-2.875,1.069-5.892,1.879-9.051c0.525-2.032,1.094-4.029,1.713-6.016c0.123-0.465,0.269-0.924,0.441-1.379            c1.886-5.851,4.261-11.575,7.035-17.113c0.231-0.494,0.482-0.958,0.734-1.421c2.382-4.639,5.07-9.137,8.024-13.425            c0.33-0.473,0.666-0.971,0.996-1.444c2.913-4.09,6.023-8.01,9.374-11.726c0.439-0.502,0.899-0.974,1.358-1.447            l0.005-0.025c3.036-3.317,6.283-6.409,9.683-9.366L254.984,301.639z"/>
									</g>
								</g>
								<g>
									<g>
										<path style="fill:#F7EDE5;" d="M263.835,395.931l-2.428,0.76c-0.853-3.221-1.592-6.496-2.257-9.755l0.005-0.025            c-0.091-0.432-0.192-0.814-0.263-1.216c-0.711-3.656-1.314-7.341-1.787-11.025c-0.042-0.421-0.108-0.848-0.154-1.244            c-0.402-3.282-0.7-6.569-0.919-9.865c-0.017-0.416-0.053-0.862-0.07-1.279c-0.237-4.202-0.345-8.404-0.27-12.619            c-0.017-0.416-0.004-0.852,0.004-1.263c0.095-4.804,0.397-9.617,0.903-14.413c0.038-0.431,0.1-0.856,0.138-1.287            c0.418-3.628,0.94-7.26,1.591-10.891c0.062-0.426,0.13-0.876,0.223-1.321c0.63-3.532,1.384-7.039,2.281-10.49            c0.092-0.445,0.209-0.885,0.327-1.325c0.678-2.645,1.431-5.275,2.252-7.865l2.711-0.262            c-0.841,2.56-1.583,5.14-2.281,7.755c-0.117,0.44-0.234,0.88-0.327,1.325c-0.902,3.476-1.681,6.977-2.355,10.474            c-0.092,0.445-0.155,0.871-0.247,1.316c-0.64,3.582-1.182,7.184-1.595,10.787c-0.062,0.426-0.1,0.856-0.138,1.287            c-0.525,4.766-0.847,9.549-0.967,14.348c-0.013,0.436-0.021,0.847-0.029,1.258c-0.07,4.19,0.018,8.362,0.26,12.539            c0.012,0.441,0.029,0.857,0.07,1.279c0.189,3.315,0.506,6.632,0.884,9.909c0.066,0.426,0.108,0.848,0.154,1.244            c0.478,3.659,1.066,7.289,1.788,10.896l-0.005,0.025c0.066,0.426,0.138,0.828,0.234,1.235            C262.233,389.485,262.982,392.71,263.835,395.931z"/>
									</g>
								</g>
								<g>
									<g>
										<path style="fill:#F7EDE5;" d="M282.413,380.131c0.155,3.231,0.414,6.458,0.801,9.685l-2.483,0.774            c-0.387-3.228-0.671-6.459-0.821-9.715c-0.041-0.421-0.053-0.862-0.04-1.298c-0.183-3.469-0.207-6.957-0.127-10.448            c0.013-0.436,0.021-0.847,0.034-1.283l0.005-0.025c0.12-3.561,0.369-7.121,0.772-10.674            c0.038-0.431,0.076-0.861,0.143-1.312l0.005-0.025c0.466-4.108,1.11-8.205,1.952-12.261            c0.068-0.45,0.16-0.895,0.253-1.341c1-4.694,2.198-9.346,3.639-13.923c0.142-0.435,0.289-0.895,0.436-1.354            c1.074-3.311,2.272-6.596,3.564-9.837c0.197-0.449,0.363-0.879,0.564-1.353l0.005-0.025            c1.487-3.561,3.123-7.091,4.892-10.516c0.226-0.469,0.453-0.938,0.699-1.377c1.166-2.26,2.425-4.475,3.705-6.66            l0.025,0.005l3.108-0.309c-1.324,2.15-2.578,4.34-3.788,6.566c-0.251,0.464-0.497,0.903-0.723,1.372            c-1.823,3.439-3.478,6.939-4.99,10.495c-0.221,0.444-0.398,0.923-0.57,1.378c-1.361,3.2-2.573,6.431-3.667,9.712            l-0.005,0.025c-0.147,0.459-0.284,0.87-0.431,1.329c-1.485,4.542-2.732,9.184-3.727,13.853            c-0.117,0.44-0.215,0.91-0.307,1.355c-0.837,4.031-1.506,8.123-2.016,12.196c-0.043,0.455-0.1,0.856-0.143,1.312            l-0.005,0.025c-0.402,3.553-0.681,7.133-0.806,10.719c-0.038,0.431-0.051,0.867-0.064,1.302            c-0.1,3.462-0.095,6.919,0.068,10.358C282.355,379.293,282.371,379.71,282.413,380.131z"/>
									</g>
									<g>
										<path style="fill:#F7EDE5;" d="M322.115,377.513l-2.403,0.765c-0.981-2.732-1.882-5.473-2.704-8.223            c-0.151-0.392-0.277-0.779-0.398-1.192c-0.857-2.706-1.63-5.446-2.382-8.156c-0.096-0.407-0.217-0.819-0.313-1.226            c-0.931-3.469-1.787-6.923-2.54-10.382c-0.096-0.407-0.192-0.814-0.264-1.216c-0.777-3.463-1.431-6.901-2.005-10.348            c-0.096-0.407-0.162-0.833-0.209-1.23c-0.694-3.988-1.259-7.975-1.696-11.961c-0.066-0.426-0.113-0.823-0.13-1.239            c-0.351-2.782-0.603-5.543-0.776-8.313c-0.066-0.426-0.083-0.843-0.125-1.264c-0.209-3.217-0.364-6.447-0.42-9.658            c-0.042-0.421-0.058-0.838-0.045-1.273c-0.055-1.972-0.055-3.958-0.031-5.94l2.528-0.249            c-0.019,1.957-0.009,3.893,0.022,5.86c0.017,0.416,0.028,0.857,0.045,1.273c0.056,3.211,0.216,6.417,0.425,9.633            c0.042,0.421,0.058,0.838,0.1,1.259c0.208,2.726,0.441,5.457,0.748,8.204c0.047,0.396,0.088,0.818,0.13,1.239            c0.472,3.941,1.017,7.898,1.686,11.881c0.071,0.402,0.143,0.804,0.209,1.23c0.579,3.422,1.238,6.835,1.971,10.263            c0.101,0.382,0.197,0.789,0.269,1.191l-0.005,0.025c0.777,3.463,1.629,6.942,2.584,10.417            c0.096,0.407,0.197,0.789,0.318,1.201c0.708,2.675,1.491,5.366,2.324,8.067c0.126,0.387,0.246,0.799,0.367,1.211            C320.253,372.07,321.154,374.811,322.115,377.513z"/>
									</g>
								</g>
								<g>
									<g>
										<path style="fill:#F7EDE5;" d="M328.018,375.669l-2.403,0.765c-0.475-2.807-0.865-5.648-1.196-8.529            c-0.042-0.421-0.078-0.867-0.12-1.289c-0.287-2.717-0.495-5.443-0.638-8.233c-0.017-0.416-0.058-0.837-0.05-1.249            l0.005-0.025c-0.172-3.647-0.248-7.378-0.156-11.177c-0.017-0.416-0.004-0.852,0.009-1.288            c0.012-0.926,0.029-1.877,0.07-2.823c0.093-2.56,0.24-5.135,0.457-7.67c0.013-0.436,0.026-0.872,0.089-1.297            c0.297-4.04,0.712-8.029,1.247-11.969c0.038-0.431,0.076-0.862,0.163-1.282c0.336-2.613,0.697-5.221,1.097-7.769            c0.092-0.445,0.16-0.896,0.248-1.316c0.529-3.295,1.103-6.555,1.741-9.751c0.068-0.45,0.16-0.895,0.247-1.316            c0.34-1.761,0.694-3.467,1.048-5.174l2.632-0.253c-0.344,1.657-0.693,3.339-1.028,5.075l-0.272,1.311            c-0.633,3.171-1.206,6.431-1.76,9.721c-0.087,0.421-0.155,0.871-0.223,1.321c-0.419,2.518-0.795,5.072-1.151,7.655            c-0.038,0.431-0.1,0.856-0.163,1.282c-0.504,3.92-0.939,7.879-1.256,11.89c-0.038,0.431-0.076,0.861-0.089,1.297            c-0.238,2.762-0.402,5.54-0.492,8.333c-0.015,0.694-0.055,1.382-0.045,2.08c-0.038,0.431-0.046,0.842-0.034,1.283            c-0.092,3.799-0.051,7.574,0.116,11.246c0.017,0.416,0.034,0.832,0.05,1.248c0.124,2.76,0.331,5.486,0.604,8.148            c0.041,0.422,0.083,0.843,0.124,1.264C327.198,370.056,327.563,372.892,328.018,375.669z"/>
									</g>
								</g>
								<g>
									<g>
										<path style="fill:#F7EDE5;" d="M362.228,364.843l-2.403,0.765c-1.003-2.375-1.977-4.77-2.92-7.184            c-0.175-0.398-0.326-0.79-0.452-1.178c-0.832-2.081-1.634-4.183-2.381-6.298c-0.176-0.397-0.326-0.79-0.427-1.172            c-1.346-3.581-2.563-7.162-3.726-10.757c-0.151-0.392-0.277-0.78-0.403-1.167c-0.964-2.935-1.894-5.914-2.749-8.877            c-0.126-0.387-0.247-0.799-0.348-1.181c-1.035-3.465-1.995-6.915-2.847-10.394c-0.151-0.392-0.247-0.799-0.323-1.176            c-0.578-2.184-1.127-4.387-1.626-6.58c-0.121-0.412-0.217-0.819-0.283-1.245c-0.716-3.012-1.397-6.069-1.979-9.104            c-0.121-0.412-0.192-0.814-0.263-1.215c-0.326-1.538-0.627-3.071-0.898-4.624l2.503-0.254            c0.281,1.503,0.562,3.006,0.893,4.519c0.066,0.427,0.137,0.828,0.258,1.241c0.582,3.036,1.268,6.067,1.984,9.079            c0.066,0.427,0.162,0.833,0.283,1.245c0.504,2.168,1.019,4.288,1.603,6.447c0.072,0.402,0.173,0.784,0.318,1.201            c0.857,3.454,1.817,6.904,2.813,10.309c0.121,0.412,0.247,0.799,0.373,1.187c0.86,2.939,1.77,5.888,2.715,8.792            c0.126,0.387,0.252,0.775,0.403,1.167c1.187,3.6,2.424,7.21,3.746,10.786c0.126,0.387,0.271,0.805,0.422,1.197            c0.758,2.066,1.54,4.138,2.352,6.189c0.151,0.393,0.301,0.785,0.452,1.177            C360.266,360.127,361.22,362.492,362.228,364.843z"/>
									</g>
								</g>
							</g>
						</g>
					</g>
				</g>
				<g>
					<g>
						<path style="fill:#F7EDE5;" d="M308.391,136.208c0.241,14.501-2.016,29.212-8.092,42.389        c-2.347,5.084-5.325,9.988-9.597,13.628c-4.272,3.61-10.018,5.806-15.554,4.874c-4.934-0.843-9.717-4.062-14.591-2.828        c-6.739,1.715-9.417,10.349-9.898,17.299l-0.843-0.12c-1.053,5.325-4.121,19.555-6.919,20.488        c-2.918,0.963-3.219-16.517-3.249-21.992l-0.963-0.12c-1.685,2.497-5.235,7.16-8.063,6.739        c-2.948-0.451-2.948-5.836-2.798-8.333l-0.391-0.06c-0.993,2.346-3.49,7.371-6.408,7.822        c-3.129,0.451-3.099-6.589-2.948-9.206l-0.391-0.06c-1.083,2.226-4.091,7.732-6.859,7.732c-2.648,0-2.798-6.258-2.738-9.146        l-0.511-0.06c-1.715,4.152-7.01,16.577-8.454,15.915c-1.354-0.602-0.12-12.094,0.481-17.088l-1.354-0.211        c1.234-5.896,1.534-12.003,0.812-18.02c-0.271-2.136-0.692-4.363-1.986-6.107c-2.226-3.039-6.438-3.791-10.199-3.58        c-3.76,0.18-7.551,1.053-11.221,0.331c-4.934-0.993-8.965-4.783-11.252-9.266c-2.287-4.482-3.038-9.567-3.309-14.591        c-1.444-25.753,9.236-51.896,28.25-69.315c10.499-9.567,24.459-16.998,38.448-20.728c0.542-0.12,1.083-0.271,1.655-0.391        c1.625-0.421,3.249-0.752,4.874-1.053c8.725-1.595,17.87-1.504,26.504,0.512c1.895,0.451,3.761,0.993,5.596,1.625        c0.572,0.181,1.113,0.391,1.655,0.632c0.03,0,0.03,0,0.03,0c6.348,2.407,12.214,6.017,17.178,10.951        C301.291,90.84,308,114.065,308.391,136.208z"/>
					</g>
					<g>
						<g>
							<path style="fill:#302945;" d="M206.072,111.538c-5.149-2.985-11.853-3.144-17.082-0.303         c-6.276,3.41-9.781,10.371-11.73,17.243c-1.931,6.808-2.71,13.989-1.795,21.006c0.553,4.238,1.749,8.457,4.055,12.055         c2.306,3.599,5.806,6.54,9.939,7.627c6.133,1.613,12.847-1.134,17.165-5.779c4.318-4.644,6.534-10.895,7.603-17.146         C216.215,134.62,218.18,118.556,206.072,111.538z"/>
						</g>
						<g>
							<path style="fill:#302945;" d="M289.029,120.371c-5.148-2.984-11.853-3.144-17.082-0.302         c-6.276,3.41-9.781,10.371-11.73,17.243c-1.93,6.808-2.71,13.989-1.795,21.006c0.553,4.238,1.748,8.456,4.055,12.055         c2.306,3.598,5.805,6.54,9.939,7.627c6.133,1.613,12.847-1.135,17.165-5.779c4.318-4.644,6.534-10.895,7.603-17.146         C299.172,143.454,301.136,127.39,289.029,120.371z"/>
						</g>
						<g>
							<path style="fill:#302945;" d="M231.159,174.65c-1.108-0.592-2.062-1.455-3.208-1.97c-2.917-1.313-6.505-0.013-8.673,2.339         c-2.168,2.352-3.183,5.532-3.878,8.655c-0.609,2.74-0.997,5.717,0.183,8.264c1.18,2.547,4.489,4.273,6.907,2.847         c1.371-0.809,2.242-2.453,3.789-2.828c2.413-0.586,4.193,2.177,6.421,3.273c1.929,0.949,4.323,0.573,6.157-0.551         c1.833-1.124,3.179-2.898,4.249-4.764c1.299-2.266,2.264-4.766,2.457-7.371c0.192-2.605-0.442-5.323-2.058-7.374         c-0.742-0.941-1.701-1.742-2.837-2.126C236.787,171.733,234.984,176.693,231.159,174.65z"/>
						</g>
					</g>
					<g>
						<g>
							<g>
								<path style="fill:#302945;" d="M246.868,106.334c0.12,0.391-0.12,0.812-0.511,0.932c-0.09,0-0.151,0.03-0.211,0.03          c-0.331,0-0.632-0.241-0.722-0.572c-3.369-12.214-6.799-24.85-12.756-36.252c-0.421-0.842-0.872-1.685-1.324-2.497          c-0.03-0.03-0.03-0.09-0.09-0.12c0-0.03,0-0.03,0-0.06c-0.993-1.715-2.106-3.55-3.46-5.205          c0.542-0.12,1.083-0.271,1.655-0.391c1.234,1.655,2.286,3.399,3.219,5.054c1.384,2.467,2.617,4.964,3.76,7.521          c0.301,0.632,0.572,1.264,0.843,1.895C241.363,86.267,244.161,96.436,246.868,106.334z"/>
							</g>
						</g>
						<g>
							<g>
								<path style="fill:#302945;" d="M210.837,93.458c-0.27,0-0.532-0.147-0.667-0.404c-0.192-0.369-0.05-0.823,0.319-1.015          c1.887-0.985,3.313-2.773,4.69-4.502l0.574-0.718c2.557-3.16,5.46-6.052,8.629-8.598l1.003-0.793          c1.448-1.138,2.947-2.316,4.091-3.736c1.526-1.896,2.17-4.028,1.766-5.849c-0.09-0.405,0.166-0.808,0.571-0.897          c0.391-0.084,0.807,0.164,0.898,0.571c0.504,2.27-0.248,4.864-2.063,7.119c-1.251,1.554-2.819,2.785-4.335,3.975          l-0.989,0.783c-3.086,2.48-5.913,5.296-8.402,8.372l-0.567,0.709c-1.476,1.851-3.001,3.765-5.171,4.899          C211.074,93.431,210.955,93.458,210.837,93.458z"/>
							</g>
						</g>
						<g>
							<g>
								<path style="fill:#302945;" d="M268.078,63.914c-6.227,4.723-12.666,9.266-19.194,13.538          c-1.083,0.692-2.407,1.564-4.001,1.685h-0.271c-1.264,0-2.437-0.481-3.4-0.872l-3.941-1.595l-1.143-0.451          c-0.391-0.15-0.572-0.572-0.421-0.962c0.12-0.301,0.391-0.482,0.722-0.482c0.09,0,0.181,0.03,0.271,0.06l5.084,2.046          c0.933,0.361,1.986,0.812,3.008,0.752c1.113-0.09,2.136-0.692,3.279-1.444c6.228-4.062,12.365-8.393,18.352-12.906          C266.995,63.463,267.536,63.673,268.078,63.914z"/>
							</g>
						</g>
					</g>
				</g>
				<g>
					<g>
						<g>
							<polygon style="fill:#FFFFFF;" points="126.552,105.733 128.948,66.602 130.811,105.999 140.661,98.013 134.804,107.33          155.834,109.992 135.337,112.654 141.193,120.906 131.344,115.582 128.682,149.655 126.552,116.114 116.437,120.373          122.825,112.654 97.271,109.193 122.559,108.128 116.703,99.344        "/>
						</g>
					</g>
					<g>
						<g>
							<polygon style="fill:#FFFFFF;" points="361.616,173.71 364.011,134.58 365.875,173.976 375.724,165.991 369.868,175.307          390.897,177.969 370.4,180.631 376.256,188.883 366.407,183.559 363.745,217.632 361.616,184.092 351.5,188.351          357.889,180.631 332.334,177.171 357.623,176.106 351.766,167.322        "/>
						</g>
					</g>
				</g>
			</g>
		</g>
		<g>
			<g>
				<path style="fill:#FFFFFF;" d="M358.45,105.398l-12.555,4.512c-0.373,0.134-0.666,0.427-0.799,0.799l-4.512,12.555      c-0.42,1.17-2.075,1.17-2.495,0l-4.512-12.555c-0.134-0.373-0.427-0.666-0.799-0.799l-12.555-4.512      c-1.17-0.42-1.17-2.075,0-2.495l12.555-4.512c0.373-0.134,0.666-0.427,0.799-0.799l4.512-12.555c0.42-1.17,2.075-1.17,2.495,0      l4.512,12.555c0.134,0.372,0.427,0.665,0.799,0.799l12.555,4.512C359.62,103.323,359.62,104.978,358.45,105.398z"/>
			</g>
			<g>
				<path style="fill:#FFFFFF;" d="M369.843,439.445l-12.555,4.512c-0.372,0.134-0.665,0.427-0.799,0.799l-4.511,12.555      c-0.421,1.17-2.075,1.17-2.496,0l-4.512-12.555c-0.134-0.372-0.427-0.666-0.799-0.799l-12.555-4.512      c-1.17-0.421-1.17-2.075,0-2.495l12.555-4.512c0.372-0.134,0.666-0.427,0.799-0.799l4.512-12.555c0.42-1.17,2.075-1.17,2.496,0      l4.511,12.555c0.134,0.372,0.427,0.666,0.799,0.799l12.555,4.512C371.013,437.37,371.013,439.025,369.843,439.445z"/>
			</g>
			<g>
				<path style="fill:#FFFFFF;" d="M96.199,270.487l-12.555,4.512c-0.372,0.134-0.665,0.427-0.799,0.799l-4.512,12.555      c-0.42,1.17-2.075,1.17-2.495,0l-4.512-12.555c-0.134-0.372-0.427-0.665-0.799-0.799l-12.555-4.512      c-1.17-0.42-1.17-2.075,0-2.495l12.555-4.512c0.373-0.134,0.666-0.427,0.799-0.799l4.512-12.555c0.42-1.17,2.075-1.17,2.495,0      l4.512,12.555c0.134,0.372,0.427,0.665,0.799,0.799l12.555,4.512C97.369,268.412,97.369,270.067,96.199,270.487z"/>
			</g>
		</g>
	</g>
</g>















</svg>
