<svg height="512pt" viewBox="-46 0 512 512" width="512pt" xmlns="http://www.w3.org/2000/svg"><path d="m420 102.5c0-4.144531-3.355469-7.5-7.5-7.5s-7.5 3.355469-7.5 7.5c0 43.34375-33.605469 78.960938-76.125 82.230469-3.363281-11.390625-13.910156-19.730469-26.375-19.730469h-80c-12.464844 0-23.011719 8.339844-26.375 19.730469-42.519531-3.269531-76.125-38.886719-76.125-82.230469 0-4.144531-3.359375-7.5-7.5-7.5s-7.5 3.355469-7.5 7.5c0 51.238281 39.730469 93.371094 90 97.214844v22.214844c0 .332031.023438.660156.066406.992187 1.441406 10.800781 6.816406 20.855469 14.933594 28.117187v171.714844c-17.09375 3.484375-30 18.636719-30 36.746094 0 4.140625 3.359375 7.5 7.5 7.5h30c53.761719 0 97.5-43.738281 97.5-97.5v-118.460938c8.117188-7.261718 13.492188-17.316406 14.933594-28.117187.046875-.328125.066406-.660156.066406-.992187v-22.214844c50.269531-3.84375 90-45.976563 90-97.214844zm-120 182.5h-75v-15h75zm-82.5 167h-21.214844c3.09375-8.730469 11.4375-15 21.214844-15 4.144531 0 7.5-3.355469 7.5-7.5v-129.5h75v69.5c0 45.488281-37.011719 82.5-82.5 82.5zm97.5-230.597656c-1.1875 7.941406-5.542969 15.246094-12.003906 20.101562-1.886719 1.417969-2.996094 3.636719-2.996094 5.996094v7.5h-75v-7.5c0-2.359375-1.109375-4.578125-2.996094-5.996094-6.460937-4.855468-10.816406-12.160156-12.003906-20.101562v-28.902344c0-6.894531 5.605469-12.5 12.5-12.5h80c6.894531 0 12.5 5.605469 12.5 12.5zm0 0"/><path d="m210 97.5c0 28.949219 23.550781 52.5 52.5 52.5s52.5-23.550781 52.5-52.5c0-19.078125-10.230469-35.804688-25.492188-45 15.261719-9.195312 25.492188-25.921875 25.492188-45 0-4.144531-3.355469-7.5-7.5-7.5-19.074219 0-35.804688 10.226562-45 25.480469-9.195312-15.253907-25.925781-25.480469-45-25.480469-4.144531 0-7.5 3.355469-7.5 7.5 0 19.078125 10.230469 35.804688 25.492188 45-15.261719 9.195312-25.492188 25.921875-25.492188 45zm52.5 37.5c-20.679688 0-37.5-16.820312-37.5-37.5 0-2.566406.261719-5.074219.753906-7.5h73.492188c.492187 2.425781.753906 4.933594.753906 7.5 0 20.679688-16.820312 37.5-37.5 37.5zm36.535156-119.035156c-3.214844 13.894531-14.175781 24.855468-28.070312 28.070312 3.214844-13.894531 14.175781-24.855468 28.070312-28.070312zm-45 28.070312c-13.894531-3.214844-24.855468-14.175781-28.070312-28.070312 13.894531 3.214844 24.855468 14.175781 28.070312 28.070312zm38.445313 30.964844h-59.960938c6.847657-9.101562 17.738281-15 29.980469-15s23.132812 5.898438 29.980469 15zm0 0"/><path d="m240 202.5c0 4.140625-3.359375 7.5-7.5 7.5s-7.5-3.359375-7.5-7.5 3.359375-7.5 7.5-7.5 7.5 3.359375 7.5 7.5zm0 0"/><path d="m300 202.5c0 4.140625-3.359375 7.5-7.5 7.5s-7.5-3.359375-7.5-7.5 3.359375-7.5 7.5-7.5 7.5 3.359375 7.5 7.5zm0 0"/><path d="m157.5 452h-38.253906c-2.992188-14.671875-14.574219-26.253906-29.246094-29.246094v-8.253906c0-4.144531-3.359375-7.5-7.5-7.5s-7.5 3.355469-7.5 7.5v8.253906c-14.671875 2.992188-26.253906 14.574219-29.246094 29.246094h-2.042968c-3.097657-8.730469-11.433594-15-21.210938-15-12.40625 0-22.5 10.09375-22.5 22.5 0 28.949219 23.550781 52.5 52.5 52.5h30c26.402344 0 48.316406-19.59375 51.964844-45h23.035156c4.140625 0 7.5-3.355469 7.5-7.5s-3.359375-7.5-7.5-7.5zm-75-15c9.777344 0 18.113281 6.269531 21.210938 15h-42.421876c3.097657-8.730469 11.433594-15 21.210938-15zm-67.5 22.5c0-4.136719 3.363281-7.5 7.5-7.5s7.5 3.363281 7.5 7.5c0 14.300781 5.753906 27.277344 15.0625 36.757812-17.128906-3.460937-30.0625-18.625-30.0625-36.757812zm67.5 37.5c-18.109375 0-33.261719-12.902344-36.746094-30h73.492188c-3.484375 17.097656-18.636719 30-36.746094 30zm0 0"/></svg>