<?xml version="1.0" encoding="UTF-8"?>
<!-- Generator: Adobe Illustrator 25.4.1, SVG Export Plug-In . SVG Version: 6.00 Build 0)  -->
<svg xmlns="http://www.w3.org/2000/svg" xmlns:xlink="http://www.w3.org/1999/xlink" version="1.1" id="Capa_1" x="0px" y="0px" viewBox="0 0 512 512" style="enable-background:new 0 0 512 512;" xml:space="preserve" width="512" height="512">
<g>
	<g>
		<path d="M112.413,32.453c2.476-4.049,4.455-7.839,6.945-11.264c12.217-16.805,34.251-24.724,54.488-19.691    c8.388,2.086,16.446,4.956,23.186,10.592c1.453,1.215,2.979,2.47,4.041,4.001c6.642,9.571,5.454,12.992-4.51,14.25    c-17.721,2.236-34.95,21.94-36.114,44.637c-0.378,7.382,2.373,15.264,5.102,22.385c4.741,12.367,9.895,24.677,16.092,36.378    c15.381,29.041,31.446,57.726,47.25,86.547c0.442,0.806,1.043,1.525,2.389,3.466c15.958-23.047,31.517-45.519,46.34-66.927    c9.269,2.62,17.877,6.144,26.793,7.268c9.09,1.146,18.392-0.446,26.505-6.381c6.093,17.502,16.942,31.183,31.63,42.191    c-30.962,46.467-61.796,92.743-92.628,139.014c-17.335-9.053-35.149-11.635-54.602-4.702    c-4.104-17.697-16.755-29.375-32.351-39.494c2.967-4.396,6.006-8.923,9.07-13.432c3.644-5.363,7.198-10.792,11.018-16.03    c1.742-2.388,1.692-4.202,0.212-6.768c-17.141-29.703-34.186-59.461-51.168-89.253c-8.755-15.359-17.121-30.939-26.038-46.203    C107.626,91.479,82.358,66.333,51.719,46.38c-8.743-5.693-20.524-8.211-37.115-8.178c0.333-1.858,0.351-3.708,0.999-5.306    c7.93-19.551,25.688-29.656,46.71-27.728C83.054,7.071,99.356,16.35,112.413,32.453z"/>
		<path d="M151.659,300.976c6.582-4.299,13.68-4.427,20.291-1.996c20.591,7.573,33.915,22.117,39.848,43.178    c0.255,0.906,0.385,1.846,0.633,2.754c0.077,0.281,0.351,0.51,0.636,0.902c14.771-8.93,30.286-9.027,46.078-3.213    c8.443,3.108,15.212,8.578,19.802,16.318c1.49,2.513,2.064,5.56,3.318,9.098c-10.239-1.636-19.222-1.319-27.125,3.03    c-5.251,2.89-10.563,6.9-13.914,11.728c-10.53,15.168-20.311,30.859-30.058,46.545c-6.751,10.865-10.911,22.872-12.232,35.519    c-1.085,10.375,1.413,20.01,9.78,27.432c6.769,6.005,5.787,11.24-2.77,14.725c-11.573,4.713-23.65,5.753-36.053,4.539    c-15.463-1.513-29.159-6.56-39.08-18.996c-2.987-3.744-5.092-8.181-7.704-12.469c-15.993,15.507-36.381,22.599-57.792,26.484    c-19.543,3.547-38.462,1.078-54.097-12.792c-1.659-1.472-2.688-4.747-2.356-6.938c0.228-1.5,3.179-3.338,5.166-3.716    c19.397-3.689,35.526-13.251,49.574-26.619c23.524-22.386,43.581-47.495,60.734-75.013c9.273-14.877,19.171-29.416,29.557-43.551    c7.333-9.981,6.184-25.432-0.334-33.995C152.911,303.079,152.395,302.129,151.659,300.976z"/>
		<path d="M406.822,31.652c3.373-2.502,7.195-5.887,11.513-8.448c24.714-14.659,50.239-13.263,76.072-3.27    c1.605,0.621,3.11,1.613,4.501,2.645c6.22,4.613,5.595,9.222-1.321,12.537c-22.074,10.582-40.521,25.949-54.715,45.453    c-17.191,23.622-32.879,48.328-48.929,72.752c-2.339,3.559-3.787,8.051-4.416,12.291c-1.786,12.046-0.635,15.827,6.54,27.027    c-6.452,4.438-13.613,4.45-20.323,2.025c-20.879-7.548-33.95-22.467-39.83-43.657c-0.288-1.037-0.592-2.069-0.899-3.14    c-30.28,14.051-69.41,1.659-68.511-21.172c6.423-0.468,12.893-0.393,19.143-1.521c10.07-1.817,17.688-8.024,23.132-16.227    c8.114-12.226,15.898-24.713,23.01-37.533c5.731-10.33,7.963-21.594,4.118-33.323c-2.787-8.501-7.781-15.052-16.497-18.373    c-1.003-0.382-2.573-1.9-2.426-2.21c0.682-1.432,1.612-3.1,2.932-3.827c12.961-7.142,26.886-10.389,41.714-9.419    c13.455,0.88,25.518,5.418,35.27,14.772C400.691,22.67,403.48,27.332,406.822,31.652z"/>
	</g>
	<g>
		<path style="fill:#FFFFFF;" d="M318.899,177.774c0,1.815,0.33,3.701-0.051,5.434c-4.113,18.737-10.815,36.225-25.14,49.911    c-8.23,7.863-16.588,15.597-24.706,23.571c-7.885,7.745-15.763,15.52-23.234,23.652c-8.827,9.607-13.044,21.404-14.815,34.163    c-0.442,0.164-0.883,0.328-1.325,0.492c-0.79-1.81-2.163-3.585-2.274-5.435c-0.64-10.677,2.208-20.629,7.525-29.813    c6.756-11.669,14.83-22.316,25.133-31.262c9.082-7.885,17.849-16.127,26.724-24.246c12.857-11.763,22.165-25.807,27.698-42.307    c0.58-1.73,1.897-3.218,2.872-4.819C317.837,177.335,318.368,177.555,318.899,177.774z"/>
		<g>
			<g>
				<path style="fill:#FFFFFF;" d="M184.529,378.627c4.188-1.721,7.841-3.607,11.719-4.711c4.015-1.143,8.09-0.343,10.86,2.995      c2.924,3.524,2.92,7.787,0.526,11.489c-2.016,3.118-4.493,6.234-7.469,8.4c-12.533,9.125-25.315,17.914-38.041,26.777      c-3.023,2.105-5.339,1.138-5.384-2.554c-0.198-16.513-1.012-33.165,4.943-49.005c1.674-4.454,4.261-8.891,7.482-12.379      c5.04-5.46,10.98-3.873,13.546,3.103c0.91,2.474,1.461,5.136,1.753,7.759C184.758,373.144,184.529,375.845,184.529,378.627z"/>
				<path style="fill:#FFFFFF;" d="M141.398,461.944c-6.137-0.101-11.24-4.925-11.221-10.605c0.02-5.642,5.1-10.49,10.841-10.343      c6.101,0.156,11.268,5.396,11.133,11.29C152.023,457.871,147.378,462.043,141.398,461.944z"/>
			</g>
			<g>
				<path style="fill:#FFFFFF;" d="M351.57,124.532c-3.538,1.431-7.212,3.324-11.115,4.383c-4.016,1.09-8.083,0.243-10.805-3.16      c-2.721-3.403-2.879-7.59-0.534-11.082c2.324-3.462,5.176-6.86,8.523-9.312c12.122-8.881,24.543-17.36,36.864-25.973      c3.129-2.188,5.534-1.448,5.593,2.087c0.284,16.832,1.09,33.81-5.107,49.914c-1.752,4.553-4.698,9.006-8.148,12.477      c-4.509,4.535-10.408,2.996-12.339-3.107C352.835,135.488,352.472,129.811,351.57,124.532z"/>
				<path style="fill:#FFFFFF;" d="M393.296,47.082c5.306,0.138,9.551,4.25,9.506,9.208c-0.051,5.669-4.74,10.505-10.103,10.422      c-5.303-0.082-9.865-4.819-9.773-10.148C383.017,51.29,387.777,46.938,393.296,47.082z"/>
			</g>
		</g>
	</g>
</g>















</svg>
