<?xml version="1.0" encoding="UTF-8"?>
<!-- Generator: Adobe Illustrator 25.2.0, SVG Export Plug-In . SVG Version: 6.00 Build 0)  -->
<svg xmlns="http://www.w3.org/2000/svg" xmlns:xlink="http://www.w3.org/1999/xlink" version="1.1" id="Capa_1" x="0px" y="0px" viewBox="0 0 500 500" style="enable-background:new 0 0 500 500;" xml:space="preserve" width="512" height="512">
<g>
	<g>
		<path d="M411.085,114.763c6.493-0.047,9.616,4.047,8.024,9.793c-0.679,2.45-2.06,4.498-3.93,6.138    c-1.676,1.47-3.453,2.893-5.378,4.002c-9.456,5.449-19.349,10.022-29.356,14.351c-0.834,0.361-1.748,0.636-2.647,0.729    c-1.267,0.13-1.699-0.636-1.278-1.848c1.812-5.208,4.796-9.752,7.998-14.167c3.657-5.042,7.843-9.587,12.743-13.466    C401.49,116.948,406.2,114.925,411.085,114.763z"/>
		<path d="M351.407,141.097c0.078-7.486,1.794-14.71,3.759-21.871c0.984-3.588,2.228-7.117,3.565-10.592    c0.937-2.435,2.485-4.545,4.564-6.199c4.016-3.196,9.08-2.462,11.894,1.842c2.604,3.983,2.678,8.367,1.565,12.823    c-0.811,3.246-2.498,6.097-4.452,8.764c-4.889,6.675-10.137,13.045-16.337,18.57c-0.651,0.58-1.372,1.1-2.121,1.548    c-1.216,0.729-2.212,0.33-2.401-1.076C351.274,143.657,351.407,142.368,351.407,141.097z"/>
		<path d="M196.344,124.318c2.502-0.031,5.029,0.527,7.182,1.548c9.614,4.559,18.193,15.695,19.687,26.3    c0.182,1.293,0.355,2.588-0.586,3.776c-0.68,0.859-1.475,1.125-2.423,0.82c-0.91-0.292-1.851-0.634-2.628-1.172    c-5.468-3.784-11.426-6.517-17.754-8.493c-4.146-1.295-8.043-3.108-11.368-5.938c-4.049-3.447-4.739-9.47-0.934-13.384    C189.813,125.415,193.056,124.358,196.344,124.318z"/>
		<path d="M294.872,141.744c-0.001,0.482-0.02,0.97-0.093,1.446c-0.419,2.699-1.5,3.067-3.681,1.405    c-3.121-2.378-5.593-5.351-7.824-8.513c-4.668-6.615-8.158-13.843-10.719-21.513c-0.919-2.751-1.204-5.577-0.429-8.44    c1.486-5.49,7.14-8.022,12.209-5.429c2.589,1.324,4.458,3.378,5.819,5.929c2.192,4.108,3.117,8.568,3.642,13.132    c0.261,2.27,0.449,4.55,0.614,6.829c0.165,2.279,0.262,4.564,0.388,6.846C294.825,133.437,294.88,138.975,294.872,141.744z"/>
		<path d="M259.004,143.86c-0.011,0.175-0.022,0.351-0.032,0.526c-0.146,2.441-1.377,3.239-3.685,2.202    c-1.268-0.57-2.475-1.347-3.58-2.199c-6.067-4.677-11.713-9.829-16.942-15.424c-2.42-2.59-4.374-5.514-5.38-8.964    c-2.175-7.464,2.888-12.956,10.482-11.318c4.74,1.022,8.193,3.912,10.674,7.977c2.789,4.569,4.745,9.511,6.079,14.681    c0.855,3.313,1.528,6.674,2.233,10.024c0.17,0.808,0.141,1.659,0.204,2.49C259.04,143.857,259.022,143.858,259.004,143.86z"/>
		<path d="M312.727,122.574c-0.116-1.732-0.133-3.473-0.048-5.207c0.142-2.89,0.312-6.463,0.629-10.022    c0.221-2.482,1.326-4.724,3.022-6.615c3.695-4.12,9.044-4.025,12.574,0.224c1.811,2.179,2.571,4.77,2.901,7.515    c0.531,4.418-0.303,8.667-1.706,12.827c-2.343,6.944-5.658,13.43-9.417,19.696c-0.845,1.409-1.714,2.815-3.662,3.109    c-1.354,0.204-1.956-0.345-2.159-1.469c-0.476-2.635-0.99-5.274-1.246-7.935C313.26,130.991,313.042,127.271,312.727,122.574z"/>
	</g>
	<g>
		<path d="M74.536,385.238c-6.391,0.033-9.498-4.007-7.972-9.694c0.709-2.644,2.22-4.814,4.263-6.529    c1.876-1.574,3.836-3.161,6.008-4.247c9.43-4.713,18.945-9.254,28.446-13.825c0.777-0.374,1.659-0.617,2.516-0.715    c1.359-0.155,1.812,0.595,1.367,1.87c-1.877,5.377-4.985,10.049-8.316,14.59c-3.579,4.88-7.676,9.27-12.436,13.035    C84.184,383.068,79.471,385.085,74.536,385.238z"/>
		<path d="M134.312,358.861c-0.086,7.488-1.809,14.711-3.766,21.873c-0.981,3.589-2.222,7.119-3.561,10.593    c-0.971,2.52-2.571,4.7-4.754,6.375c-3.871,2.969-8.769,2.289-11.545-1.729c-2.803-4.057-2.871-8.563-1.712-13.158    c0.796-3.156,2.432-5.934,4.326-8.535c4.898-6.725,10.179-13.123,16.403-18.686c0.65-0.581,1.369-1.103,2.116-1.554    c1.273-0.768,2.269-0.346,2.462,1.142C134.437,356.389,134.312,357.633,134.312,358.861z"/>
		<path d="M289.346,375.569c-1.408,0.046-2.801-0.094-4.081-0.413c-0.548-0.137-1.089-0.301-1.621-0.492    c-4.309-1.548-8.075-4.603-11.165-7.921c-4.385-4.708-8.106-10.571-9.607-16.884c-0.159-0.67-0.29-1.346-0.386-2.028    c-0.175-1.247-0.353-2.501,0.508-3.67c0.713-0.967,1.568-1.258,2.631-0.888c0.863,0.301,1.76,0.622,2.502,1.137    c5.465,3.787,11.427,6.516,17.753,8.495c4.23,1.324,8.214,3.167,11.564,6.114c2.238,1.968,3.583,4.87,3.278,7.873    C300.141,372.613,294.635,375.398,289.346,375.569z"/>
		<path d="M190.822,366.191c0-2.469-0.012-5.282,0.01-8.095c0.005-0.61,0.095-1.226,0.216-1.826c0.41-2.033,1.451-2.404,3.151-1.164    c3.607,2.632,6.372,6.056,8.852,9.693c4.206,6.168,7.409,12.861,9.874,19.9c1.03,2.94,1.488,5.963,0.671,9.07    c-1.48,5.626-7.231,8.18-12.375,5.457c-2.615-1.384-4.469-3.507-5.818-6.111c-2.437-4.704-3.257-9.82-3.739-15    C191.306,374.264,191.113,370.398,190.822,366.191z"/>
		<path d="M247.29,391.564c-4.272-0.175-8.273-2.792-11.3-6.99c-2.671-3.704-4.489-7.883-5.77-12.227    c-0.936-3.175-1.713-6.395-2.441-9.623c-0.575-2.548-1.265-5.114-1.057-7.753c0.04-0.513,0.138-1.071,0.525-1.411    c0.301-0.265,0.722-0.344,1.123-0.363c2.211-0.1,4.31,1.216,5.896,2.634c5.497,4.917,11.041,9.792,16.345,14.912    c3.127,3.019,5.429,6.702,6.108,11.146C257.564,387.425,253.952,391.574,247.29,391.564z"/>
		<path d="M172.377,392.72c-0.224,2.481-1.346,4.718-3.054,6.599c-3.681,4.053-8.972,3.96-12.488-0.222    c-1.855-2.206-2.621-4.84-2.951-7.632c-0.446-3.775,0.088-7.46,1.186-11.063c2.359-7.743,6.012-14.892,10.197-21.78    c0.738-1.214,1.527-2.45,3.222-2.651c1.588-0.189,2.109-0.034,2.383,1.591c0.568,3.376,1.1,6.765,1.439,10.17    c0.353,3.539,0.461,7.102,0.677,10.655C173.073,378.394,172.806,387.963,172.377,392.72z"/>
	</g>
	<g>
		<path d="M164.366,202.887c2.118-0.259,4.149-0.539,6.187-0.751c27.306-2.844,54.013-8.85,80.706-15.023    c25.105-5.805,50.39-10.761,76.041-13.499c17.952-1.916,35.952-2.881,53.98-0.937c9.883,1.066,19.735,2.321,29.283,5.283    c4.336,1.345,8.033,3.727,11.412,6.668c1.692,1.473,2.432,3.435,2.396,5.629c-0.139,8.485-0.335,16.97-0.508,25.455    c-0.01,0.475-0.001,0.95-0.001,1.366c0.163,0.104,0.236,0.192,0.302,0.187c10.847-0.825,21.502,0.774,32.113,2.676    c10.812,1.937,21.621,3.939,32.093,7.372c2.419,0.793,4.803,1.701,7.174,2.629c0.934,0.365,1.839,0.857,2.67,1.419    c2.042,1.381,2.384,3.437,0.763,5.304c-0.908,1.046-2.023,1.975-3.195,2.718c-4.307,2.729-8.676,5.36-13.022,8.025    c-13.731,8.422-26.363,18.277-38.119,29.27c-0.798,0.746-1.555,1.566-2.183,2.456c-1.017,1.44-0.991,2.176,0.093,3.573    c2.857,3.682,5.783,7.31,8.635,10.996c7.866,10.164,14.865,20.924,21.788,31.736c1.493,2.332,3.034,4.634,4.52,6.97    c0.565,0.888,1.092,1.809,1.544,2.759c1.553,3.259,0.108,5.887-3.51,5.842c-2.782-0.035-5.609-0.498-8.326-1.146    c-28.809-6.876-58.045-9.835-87.625-9.695c-10.465,0.05-20.93,0.226-31.395,0.203c-2.035-0.005-4.107-0.348-6.13-0.576    c-1.349-0.152-2.771-0.573-3.608-1.642c-0.73-0.933-0.88-2.182-0.975-3.363c-0.149-1.851-0.668-22.25-0.39-22.263    c-0.695,0.032-1.296,0.045-1.895,0.089c-20.499,1.5-40.89,3.934-61.039,7.992c-17.917,3.608-35.719,7.781-53.607,11.537    c-18.322,3.848-36.648,7.696-55.292,9.764c-20.271,2.249-40.473,1.573-60.66-1.008c-6.81-0.871-13.587-1.804-20.14-3.986    c-3.15-1.048-5.992-2.476-8.082-5.124c-0.308-0.39-0.531-0.934-0.576-1.427c-0.222-2.406-0.464-4.816-0.527-7.229    c-0.231-8.836-0.394-17.673-0.581-26.51c-0.011-0.521-0.002-1.043-0.002-1.482c-0.201-0.129-0.286-0.227-0.342-0.213    c-6.745,1.733-13.607,1.53-20.458,1.115c-11.513-0.697-22.952-2.005-34.148-4.912c-4.69-1.218-9.25-2.85-13.482-5.235    c-1.665-0.938-3.289-2.079-4.635-3.425c-2.358-2.357-2.096-5.118,0.54-7.138c1.319-1.011,2.782-1.844,4.218-2.692    c10.683-6.308,20.78-13.372,29.212-22.589c3.123-3.414,5.976-7.023,8.319-11.038c1.464-2.51,1.418-4.694-0.179-7.223    c-4.175-6.612-8.354-13.242-12.08-20.11c-4.659-8.59-8.354-17.632-10.789-27.133c-0.423-1.65-0.698-3.372-0.765-5.071    c-0.121-3.085,1.801-4.664,4.835-4.03c10.427,2.178,20.923,3.912,31.563,4.551c14.108,0.847,28.236,0.71,42.322-0.226    c4.814-0.32,9.624-0.701,14.431-1.109c4.808-0.408,9.614-0.844,14.421-1.273c4.718-0.421,9.453-0.804,14.161-1.253    c2.387-0.228,4.836-0.184,7.233-0.261c2.411-0.078,4.823-0.147,7.235-0.207c0.887-0.022,1.774-0.043,2.661-0.062    c0.78-0.017,1.541-0.201,2.327-0.071c1.021,0.169,1.636,0.925,1.878,1.901c0.252,1.017,0.354,2.079,0.439,3.127    c0.851,10.444,0.957,20.905,0.722,31.374C164.313,202.198,164.343,202.453,164.366,202.887z M79.09,320.271    c-0.035-0.026,0.027,0.048,0.104,0.074c9.072,3.047,18.35,5.034,27.881,6.102c16.95,1.898,33.894,2.92,50.941,1.529    c20.824-1.699,41.255-5.784,61.643-10.076c17.884-3.765,35.645-8.124,53.549-11.789c25.373-5.194,51.021-8.271,76.942-8.931    c14.849-0.378,29.661-0.19,44.241,2.986c6.429,1.4,12.733,3.375,19.095,5.081c1.112,0.298,2.235,0.557,3.368,0.838    c0-2.616-0.04-4.983,0.006-7.349c0.401-20.575,0.723-41.152,1.259-61.723c0.417-15.999,1.112-31.99,1.649-47.986    c0.013-0.381-0.279-0.902-0.594-1.144c-3.237-2.488-6.793-4.333-10.755-5.429c-7.741-2.141-15.651-3.28-23.607-4.183    c-22.923-2.602-45.759-1.352-68.533,1.697c-23.196,3.106-46.104,7.798-68.92,12.947c-22.726,5.129-45.438,10.248-68.635,12.952    c-19.938,2.324-39.868,4.286-59.981,3.558c-8.659-0.313-17.333-0.387-25.89-1.92c-4.696-0.842-9.346-1.943-14.008-2.926    C79.418,242.943,79.675,281.567,79.09,320.271z M154.482,169.239c0.02-0.039,0.083-0.098,0.003-0.151    c-0.377-0.245-0.867-0.194-1.313-0.134c-22.347,3.003-44.553,6.082-67.146,6.415c-2.054,0.03-4.109,0.042-6.164,0.035    c-15.463-0.055-30.846-0.832-46.065-3.766c-2.83-0.545-5.679-0.996-8.906-1.557c0.617,2.549,1.025,4.833,1.725,7.023    c4.318,13.512,10.05,26.346,18.389,37.917c1.283,1.781,2.45,3.648,3.628,5.503c1.817,2.862,2.016,5.896,0.572,8.929    c-0.94,1.975-2.02,3.912-3.265,5.708c-4.575,6.6-10.37,12.034-16.598,17.039c-6.019,4.837-12.577,8.837-19.304,12.588    c-1.608,0.897-3.163,1.905-4.668,2.968c-1.453,1.025-1.466,1.467-0.007,2.545c1.229,0.908,2.524,1.821,3.929,2.381    c3.992,1.59,7.959,3.4,12.108,4.413c16.997,4.15,34.272,5.944,51.777,5.321c0.43-0.015,0.857-0.105,1.396-0.175    c0-0.601,0.003-1.119,0-1.637c-0.159-25.322-0.323-50.645-0.474-75.968c-0.017-2.887,0.517-3.745,3.249-4.661    c3.538-1.186,7.125-2.231,10.701-3.303c20.66-6.193,41.036-13.508,60.106-23.682C150.038,171.985,153.418,171.293,154.482,169.239    z M495.05,234.458c-9.698-5.73-59.108-14.719-71.29-13.029c-0.041,0.752-0.097,1.53-0.125,2.31    c-0.815,22.804-1.598,45.608-2.462,68.41c-0.181,4.784-0.613,9.56-1.032,14.331c-0.163,1.858-1.6,3.087-3.396,3.312    c-3.002,0.376-6.001,0.77-9,1.175c-19.089,2.579-37.503,7.695-55.395,14.768c-0.402,0.159-0.793,0.348-1.008,0.443    c10.228-0.134,20.555-0.333,30.882-0.391c30.293-0.171,60.199,3.04,89.621,10.407c1.112,0.278,2.257,0.422,3.718,0.689    c-0.444-0.801-0.668-1.269-0.948-1.701c-1.719-2.656-3.464-5.295-5.177-7.955c-7.781-12.086-15.527-24.196-24.596-35.387    c-1.937-2.391-3.871-4.785-5.756-7.217c-1.645-2.122-1.861-4.477-0.551-6.793c0.788-1.394,1.777-2.746,2.93-3.852    c8.673-8.321,17.824-16.101,27.734-22.899c7.533-5.167,15.37-9.892,23.07-14.816C493.147,235.704,494.015,235.131,495.05,234.458z    "/>
		<g>
			<g>
				<path d="M155.369,260.557c-1.038,4.147-1.935,8.077-3.011,11.957c-2.489,8.977-5.043,17.937-7.627,26.888      c-0.473,1.639-1.064,3.283-1.889,4.765c-0.486,0.873-1.44,1.829-2.355,2.056c-2.806,0.696-5.688,1.1-8.554,1.526      c-0.868,0.129-1.989,0.299-2.319-0.911c-0.323-1.183,0.456-1.981,1.407-2.405c1.596-0.713,3.269-1.254,5.132-1.95      c-7.514-18.662-11.366-38.459-17.044-57.867c-0.986,0.248-1.985,0.566-3.008,0.737c-0.852,0.143-1.802,0.336-2.58,0.094      c-0.62-0.193-1.344-0.949-1.469-1.567c-0.109-0.539,0.396-1.582,0.898-1.808c2.481-1.118,4.967-2.254,7.573-3.058      c1.3-0.401,2.627-0.718,3.975-0.905c1.194-0.166,2.651-0.448,3.786,0.075c0.468,0.216,0.869,0.575,1.134,1.017      c0.103,0.172,0.188,0.361,0.202,0.561c0.09,1.306-1.868,1.864-2.773,2.217c-0.257,0.1-3.243,1.173-3.237,1.192      c1.875,6.084,3.802,12,5.517,17.977c2.63,9.165,5.085,18.38,7.677,27.556c0.882,3.121,1.953,6.189,3.029,9.565      c0.328-1.245,0.589-2.261,0.865-3.273c3.603-13.228,7.207-26.456,10.811-39.683c0.34-1.248,0.912-2.327,2.294-2.632      c1.455-0.321,2.543,0.445,3.243,1.555c2.556,4.046,5.093,8.108,7.499,12.245c4.66,8.016,9.226,16.088,13.834,24.134      c0.124,0.217,0.28,0.415,0.501,0.738c1.063-18.455,2.117-36.755,3.179-55.194c-1.013,0-2.226,0.047-3.433-0.014      c-1.089-0.055-2.241-0.045-3.234-0.415c-0.655-0.244-1.475-1.095-1.495-1.7c-0.02-0.591,0.782-1.603,1.392-1.756      c3.418-0.859,6.878-1.615,10.398-1.894c1.762-0.14,3.534-0.159,5.298-0.029c1.33,0.098,2.868,0.266,3.014,1.909      c0.119,1.339-0.828,1.992-1.954,2.295c-1.439,0.388-2.903,0.724-4.377,0.934c-1.014,0.145-1.376,0.486-1.362,1.572      c0.212,16.772-0.852,33.488-2.259,50.188c-0.162,1.923-0.449,3.835-0.696,5.902c1.016-0.182,2.019-0.4,3.034-0.531      c0.867-0.111,1.781-0.287,2.611-0.12c0.579,0.116,1.398,0.703,1.482,1.189c0.098,0.569-0.315,1.544-0.806,1.832      c-1.159,0.679-2.466,1.153-3.764,1.537c-7.65,2.268-8.216,1.747-11.968-4.391c-6.164-10.084-11.84-20.465-17.723-30.72      C155.984,261.546,155.732,261.153,155.369,260.557z"/>
				<path d="M372,270.003c1.058,0.096,2.103,0.183,3.147,0.289c0.848,0.086,1.756,0.414,1.601,1.346      c-0.327,1.967-3.357,2.027-4.852,2.139c-1.966,0.147-3.952,0.023-5.885-0.369c-0.789-0.16-1.584-0.236-1.948-1.051      c-0.269-0.602-0.118-1.362,0.445-1.739c0.07-0.047,0.144-0.086,0.221-0.116c0.84-0.318,1.806-0.302,2.718-0.428      c0.295-0.041,0.59-0.085,0.918-0.133c-0.496-9.129,0.378-18.139,1.189-27.317c-12.34,0.237-24.572,0.473-36.909,0.71      c-0.406,8.276-0.817,16.642-1.237,25.198c0.675,0,1.501-0.057,2.315,0.014c1.02,0.089,1.944,0.437,2.052,1.65      c0.099,1.11-0.612,1.702-1.567,1.997c-3.329,1.031-6.739,1.275-10.165,0.72c-0.611-0.099-1.39-0.835-1.585-1.441      c-0.296-0.917,0.48-1.541,1.335-1.814c0.917-0.292,1.862-0.516,2.81-0.69c0.623-0.114,0.852-0.334,0.869-1.02      c0.269-10.944,0.589-21.887,0.866-32.831c0.178-7.033,0.281-14.067,0.467-21.1c0.06-2.274,0.276-4.544,0.426-6.902      c-0.016,0.249-4.2-0.611-4.556-0.82c-0.341-0.2-0.655-0.466-0.837-0.817c-0.182-0.351-0.214-0.795-0.015-1.136      c0.218-0.373,0.654-0.556,1.07-0.672c2.67-0.748,5.743-0.862,8.498-1.112c1.436-0.13,2.901-0.03,4.346,0.072      c0.944,0.067,1.892,0.356,1.97,1.547c0.078,1.19-0.798,1.577-1.747,1.78c-1.542,0.328-3.096,0.602-4.508,0.873      c-0.216,11.02-0.431,21.977-0.649,33.059c0.858-0.057,1.631-0.131,2.406-0.158c10.984-0.384,21.968-0.785,32.953-1.109      c1.325-0.039,1.771-0.38,1.83-1.754c0.254-5.886,0.591-11.769,0.993-17.647c0.222-3.24,0.635-6.466,0.979-9.86      c-0.034,0.34-3.761-0.653-4.075-0.889c-0.678-0.509-1.061-1.509-0.621-2.233c0.4-0.66,1.264-0.832,2.028-0.942      c3.54-0.509,6.756-0.69,10.274-0.044c0.816,0.15,1.56,0.462,1.567,1.475c0.008,0.995-0.724,1.343-1.518,1.558      c-0.93,0.252-1.869,0.478-2.814,0.665c-0.579,0.115-1.01,0.6-1.035,1.19c-0.505,12.077-0.909,24.16-1.627,36.224      C373.676,254.214,372.74,262.035,372,270.003z"/>
				<path d="M274.809,214.411c-8.043,1.292-15.927,2.558-23.699,3.807c-0.214,0.119,0.324,3.245,0.353,3.545      c0.168,1.731,0.724,3.943-0.309,5.483c-0.237,0.354-0.57,0.682-0.991,0.75c-0.471,0.076-0.937-0.197-1.26-0.548      c-1.067-1.16-1.258-3.097-1.539-4.578c-0.342-1.803-0.561-3.629-0.653-5.462c-0.086-1.705,0.216-2.974,1.987-3.513      c4.427-1.35,8.945-2.017,13.497-2.762c4.791-0.784,9.582-1.564,14.374-2.341c7.763-1.258,15.527-2.51,23.291-3.768      c0.174-0.028,0.348-0.051,0.523-0.072c4.546-0.55,5.811,0.266,6.75,4.715c0.434,2.056,0.634,4.176,0.747,6.278      c0.039,0.736-0.31,1.688-0.82,2.213c-0.825,0.849-2.21,0.273-2.728-1.196c-0.842-2.393-1.509-4.847-2.271-7.343      c-7.559,1.333-15.283,2.695-22.817,4.023c0.722,4.317,1.582,8.532,2.108,12.789c1.32,10.691,2.512,21.399,3.707,32.105      c0.414,3.71,0.685,7.436,1.023,11.155c0.023,0.256,0.061,0.51,0.103,0.853c1.402-0.164,2.739-0.353,4.083-0.467      c1.14-0.096,2.327-0.031,2.638,1.358c0.286,1.275-0.628,1.93-1.645,2.375c-4.183,1.828-8.608,2.43-13.126,2.458      c-0.92,0.006-1.939-0.154-2.104-1.362c-0.153-1.128,0.615-1.709,1.532-2.022c1.652-0.565,3.335-1.039,4.936-1.53      c-0.741-3.566-1.708-7.049-2.154-10.597c-1.027-8.156-1.737-16.351-2.698-24.516c-0.74-6.286-1.671-12.549-2.509-18.823      C275.008,216.467,274.927,215.507,274.809,214.411z"/>
				<path d="M228.284,286.553c-0.989-5.572-2.078-10.862-2.847-16.198c-1.929-13.395-3.713-26.811-5.557-40.219      c-0.053-0.387-0.132-0.771-0.227-1.316c-0.82,0.082-1.595,0.254-2.36,0.214c-1.212-0.063-2.497-0.051-3.605-0.464      c-1.727-0.645-1.784-2.607-0.22-3.613c0.365-0.235,0.781-0.404,1.193-0.548c1.915-0.668,3.78-1.395,5.756-1.884      c2.028-0.502,4.097-0.844,6.179-1.018c0.678-0.057,1.472-0.23,2.119,0.046c0.523,0.223,0.953,0.727,1.066,1.291      c0.288,1.057-0.269,1.818-1.108,2.316c-1.467,0.871-2.987,1.654-4.346,2.398c0.744,3.833,1.619,7.548,2.168,11.311      c1.825,12.523,3.524,25.064,5.293,37.595c0.411,2.908,0.908,5.803,1.373,8.749c1.518-0.127,3.033-0.273,4.55-0.375      c0.743-0.05,1.549-0.194,2.222,0.024c0.663,0.215,1.462,0.718,1.721,1.307c0.494,1.118-0.596,1.675-1.432,2.024      c-1.094,0.457-2.226,0.82-3.373,1.117c-3.064,0.793-6.214,1.061-9.326,1.589c-0.905,0.154-1.86,0.223-2.718-0.101      c-0.257-0.097-0.51-0.236-0.671-0.459c-0.44-0.608,0.222-1.546,0.67-1.96c0.601-0.556,1.387-0.865,2.11-1.224      C227.457,286.887,228.022,286.667,228.284,286.553z"/>
			</g>
			<path d="M395.49,248.987c-3.486,0-6.432-2.908-6.44-6.357c-0.008-3.307,2.905-6.128,6.33-6.131     c3.278-0.003,6.149,3.088,6.184,6.658C401.595,246.36,398.859,248.987,395.49,248.987z"/>
			<path d="M108.532,276.303c-0.029,3.208-2.935,6.158-6.036,6.131c-2.994-0.027-5.575-2.617-5.543-5.562     c0.041-3.854,2.624-6.687,6.038-6.625C106.023,270.303,108.561,273.077,108.532,276.303z"/>
		</g>
	</g>
</g>















</svg>
