<svg id="Layer_1" enable-background="new 0 0 512 512" viewBox="0 0 512 512" xmlns="http://www.w3.org/2000/svg"><path d="m448 183v.8c-3.1 7.9-7.1 10.7-15.2 10.7-37.6 0-75.2-.1-112.8-.2-1.3 0-2.7-.3-3.7.2-5.6 2.8-10.7 0-15.5-1.7-5.2-1.9-9.1-5.7-11.9-11.3-2.4-4.8-4-9.6-4.5-14.7-.8-7.9 3-14.6 7.4-20.9 5.1-7.4 11.5-11.4 20.8-9 1.6.4 1.9-.6 1.9-1.9-.1-3.3 1.3-6.1 3-8.7 6.6-10 15.9-16.8 26.8-21.2 2.3-.9 5-1.1 7.2-2.6h15.9c5 2.4 10.1 4.4 14.8 7.5 7.9 5.2 14 11.7 17.2 20.7 1.8 4.9 1.6 10.1 2.3 15.2 4.9-1.9 9.8-2.3 14.5-.3 7.4 3 12.7 12.8 11.7 21-.4 3-.1 4.6 3.8 4 5.3-.8 10.2-.1 13.5 5.4 1.2 2.3.9 5.1 2.8 7z" fill="#a9b5b4"/><path d="m101.9 401.6c-.7-.2-1.3 0-1.7.5-4.6 4.9-10.3 3.4-15.9 2.8-1.9-.2-2.8-.9-1.7-2.9.5-1 1-2.1 1.3-3.1 1.1-4.5 3.7-7.6 8.2-9 .8-.3 1.5-.9 2.2-1.3-.1-.4-.2-.7-.3-.8-4.6-2.4-4.6-2.4-2.6-7.6 2.8-7.5 2.8-7.5 10.2-4.1l4.5 2.1c4.5 2.1 4.5 2.1 9-1.5-5.9-4.1-13.2-6.8-13.1-15.9.1-8.9 7.2-11.7 13.1-15.7-2.7-2.9-5.3-3.8-8.8-1.7-2.9 1.7-6.2 2.9-9.2 4.4-2.1 1-3.3.6-3.9-1.8-.3-1.3-1-2.6-1.5-3.9-2.1-5.6-2.1-5.6 2.7-8.5-.2-.9-.9-1.2-1.6-1.4-6.7-1.7-8.1-7.6-10.3-12.9-.9-2.3.7-2.1 2-2.4 6.2-1.1 12.3-1.8 16.9 3.7.5-.7.8-.9.8-1-1.2-4.5.9-5.6 5-6.1 8.3-1 8.3-1.2 9 7.4.1 1.8.3 3.5.4 5.3.1.6.1 1.3.2 1.9.4 2.8 3 3.8 4.9 3.9 1.6.1.8-2.5.8-3.8.2-3.8.2-7.6 2.4-10.9 3.4-5.2 9.8-7.3 15.7-5.1 3 1.2 5.9 2.8 9.1 4.3.8-3.4.9-6.1-2.6-8.1-3-1.8-5.8-4.1-8.7-6.1-1.8-1.2-2.4-2.4-.6-4.1 1-1 1.8-2.1 2.6-3.2 3.8-4.8 3.8-4.8 9.8-1.6-3-8.6 2-13.9 6.9-19.3 4.6 5.4 10.1 10.4 7 18.6 2.8.5 3.8-3.3 6-2 1.7 1.1 2.8 3.2 4.2 4.9 4.1 5 4.1 5-1.2 8.7-1.8 1.2-3.5 2.4-5.3 3.7-4 2.9-4 3-3.3 8.5 2.8-1.3 5.4-2.8 8.1-3.9 9.1-3.8 17.6 1.3 18.8 11.1.3 2.2.3 4.5.3 6.8 0 2 .7 2 2.3 1.3 2.4-1.1 3.8-2.6 3.8-5.4.1-3.7.6-7.3.9-10.9.2-2 1-3 3.2-2.5 1.2.3 2.5.4 3.7.6 6.3 1.1 6.3 1.1 7 6.9.5-.2 1.1-.3 1.4-.6 4.7-4.6 10.3-3.6 16-2.9 2.6.4 2.9 1.3 1.7 3.4-.5.9-.9 1.8-1.2 2.8-1.1 4.3-3.6 7.4-7.9 8.8-.9.3-1.7 1-2.6 1.6 4.9 3.5 4.9 3.5 2.7 9.4-2.5 6.5-2.5 6.5-8.8 3.4-1.7-.8-3.4-1.6-5.2-2.4-4.6-2.2-4.6-2.2-9.3 1.3 5.8 4.1 13.2 6.8 13.2 15.9-.1 9-7.3 11.6-13.1 15.7 2.7 3 5.5 3.7 9 1.6 2.9-1.7 6.2-2.9 9.2-4.3 1.7-.8 2.8-.5 3.4 1.4.8 2.5 1.7 5 2.9 7.4 1 2.1 1 3.5-1.6 4.1-.8.2-1.6.7-2.3 1.1.1 1.1.8 1.5 1.5 1.6 6.6 1.6 8.1 7.3 10.2 12.5.7 1.9 0 2.6-1.7 2.8-5.4.6-11 2.3-15.6-2.5-.5-.5-1.2-1-2-.7-.5 5.7-.5 5.8-6.5 6.7-7.4 1.1-6.9 2.2-7.6-6.1-.2-2.3-.4-4.5-.6-6.8-.1-.9-.1-1.8-.4-2.6-.9-2.1-3-3.1-4.8-3.1-1.5.1-.7 2.3-.7 3.6-.2 3.7-.1 7.4-2 10.7-3.1 5.3-10 7.8-15.8 5.6-3.1-1.2-6.1-2.8-9.3-4.4-1.1 3.6-.5 6.3 3 8.4 3 1.8 5.8 4.1 8.7 6.1 1.6 1.1 1.9 2.1.4 3.6-1.5 1.7-3 3.5-4.2 5.3-1.8 2.6-3.7 3.6-6.1.8-.3-.3-.9-.4-2.4-1.2 3.2 8.8-2.1 13.9-6.8 19.5-4.7-5.4-10-10.4-7.1-18.6-2.8-.6-3.7 3.4-6.1 1.7-1.6-1.1-2.6-3-3.9-4.6-4.1-5.1-4.1-5.1 1.2-8.9 1.7-1.2 3.4-2.6 5.3-3.7 3.4-1.9 4.5-4.6 3-8.5-2.5 1.3-4.8 2.6-7.3 3.7-9.6 4.2-18.3-.9-19.5-11.3-.1-1.3 0-2.6-.2-3.8-.3-1.4 1.1-4.1-1-4s-4.7 1.3-4.9 4.4c-.2 3.3-.5 6.5-.8 9.8-.4 5.3-.6 5.4-5.6 4.6-.6-.1-1.2-.2-1.9-.3-6.2-1.2-6.2-1.2-6.7-6.9zm13.6-40.9c4.4 2.7 8.3 5 12.1 7.4 1 .6 1.8.4 2.8-.1 4.1-2.4 8.3-4.7 12.7-7.2-4.5-2.6-8.8-5-13-7.4-.8-.5-1.6-.5-2.5 0-3.7 2.3-7.6 4.6-12.1 7.3zm55.6 0c4.5 2.5 8.5 4.8 12.5 7.1.9.5 1.7 1 2.8.3 4-2.4 7.9-4.8 12.4-7.5-4.3-2.6-8.2-4.9-12-7.3-1.2-.7-2-.5-3.1.2-4.1 2.4-8.2 4.7-12.6 7.2zm-7 20.6h.1v6c0 1.3.5 2.1 1.6 2.7 3.2 1.7 6.4 3.5 9.6 5.3 1.5.9 2.4 1 2.6-1.2 1.3-12.1 1.2-12.3-9.1-18.4-.8-.5-1.5-.9-2.3-1.4-1.7-1.2-2.7-1.2-2.6 1.4.2 1.8.1 3.7.1 5.6zm-14-41.2c-.1-2-.1-4-.1-6 0-1.2-.4-2.1-1.6-2.7-3.2-1.7-6.4-3.4-9.6-5.3-2-1.2-2.5-.4-2.7 1.7-.9 11.9-1 11.9 9.4 18.2.6.4 1.3.8 1.9 1.2 1.7 1.2 2.7 1.1 2.6-1.3.1-2 .1-3.9.1-5.8zm-.1 33.3c-13.1 5.3-14.3 7.1-13.8 19.8v.8c-.1 1.9.4 2.6 2.4 1.5 3.3-1.9 6.6-3.6 10-5.4 1-.5 1.4-1.3 1.4-2.4 0-4.7 0-9.4 0-14.3zm14.2-25.3c13.9-6.1 14.1-6.5 13.8-19.9 0-.3 0-.5 0-.8.1-1.9-.4-2.7-2.4-1.5-3.3 1.9-6.6 3.6-10 5.4-1 .5-1.5 1.3-1.4 2.4z" fill="#3981bf"/><path d="m409.9 391.3c-.9 18.8-6.8 35.1-24.2 45.1-21.9 12.5-54.6 5.2-69-15.4-8.2-11.7-9.6-25.1-8.3-38.8 1.8-19.3 9.9-36.3 19.1-53 8.9-16.2 19-31.5 28.6-47.3 2.5-4.1 5.7-4 7.4.4 5.4 13.8 14.6 25.3 22.1 37.9 11.7 19.5 20.6 40.2 24.1 62.9.2 1 .3 2 .3 3 0 1.7-.1 3.4-.1 5.2z" fill="#aed6f2"/><g fill="#fab03c"><path d="m150.1 99c29.7-1 48.1 25.8 48.1 47.7.1 21.8-18.1 48.6-49 48.2-29.7-.4-47.6-26.1-47.6-48.1.2-22.5 18.7-48.9 48.5-47.8z"/><path d="m81.3 152c-3.9 0-7.8.1-11.7 0-3.7-.1-5.6-2-5.5-5.3.1-3.2 2-5.1 5.7-5.1 7.9.1 15.9.3 23.8.4 3.2.1 5.6 1.4 5.5 4.8-.1 3.3-2.4 4.7-5.7 4.7-4 0-8.1 0-12.1 0z"/><path d="m218.3 151.6c-4 0-8.1 0-12.1 0-3.1 0-5.2-1.6-5.2-4.8-.1-3 2-4.6 4.8-4.7 8.4-.2 16.9-.4 25.3-.4 3.1 0 4.8 1.9 4.8 5.1 0 3.1-1.6 5.1-4.8 5.2-4.3.1-8.6 0-12.9 0 .1-.2.1-.3.1-.4z"/><path d="m195.7 216.6c0 2.8-1.5 4.2-3.6 5.1-2.3 1-4.4.4-5.6-1.7-4.4-7.6-8.7-15.3-12.8-23.1-1.2-2.2-.5-4.4 1.8-5.9 2.2-1.3 4.5-1.2 5.8.8 4.9 7.8 9.5 15.7 14.2 23.6.1.4.1 1 .2 1.2z"/><path d="m110.1 222.1c-4.3 0-7.1-3.9-5.1-7.4 4.2-7.6 8.8-15 13.4-22.4 1.4-2.3 3.8-2.8 6.3-1.3 2.5 1.6 2.9 3.9 1.7 6.2-4 7.4-8.1 14.8-12.3 22.2-1 1.6-2.4 2.6-4 2.7z"/><path d="m190.1 71.5c4.1 0 6.8 3.9 4.9 7.3-4.2 7.6-8.8 15-13.3 22.4-1.3 2.2-3.6 2.8-6 1.5-2.5-1.3-3.4-3.7-2.1-6.1 4.1-7.8 8.5-15.5 12.8-23.1.8-1.4 2.3-1.9 3.7-2z"/><path d="m109.9 71.5c1.9.1 3.3 1.1 4.2 2.7 4 7.3 8.1 14.5 12.1 21.8 1.4 2.5 1 5-1.6 6.5s-5 .7-6.5-1.8c-4.3-7.1-8.7-14.2-12.8-21.4-2.3-3.8.2-7.9 4.6-7.8z"/><path d="m105.3 175.3c0 1.8-.8 3.2-2.3 4.1-4.3 2.6-8.7 5.1-13.1 7.5-2.6 1.4-5.1 1.1-6.5-1.6-1.4-2.5-.7-4.9 1.9-6.5 4.4-2.6 8.8-5.3 13.4-7.7 3-1.6 6.5.8 6.6 4.2z"/><path d="m217.4 182.9c.1 3.2-2.9 5.6-5.9 4.5-5.5-2.1-10.6-5.3-15.4-8.8-1.9-1.4-1.9-3.8-.6-5.8 1.2-1.8 3.1-2.9 5.2-1.9 5.1 2.5 10.1 5.2 14.7 8.5 1.4.8 1.9 2 2 3.5z"/><path d="m87.6 105.9c.8.3 2.1.5 3.1 1.1 4 2.2 7.9 4.5 11.8 6.8 2.6 1.6 3.7 3.9 2.1 6.7-1.6 2.7-4.1 3.1-6.8 1.5-4.3-2.5-8.7-5-13-7.7-2.1-1.3-2.5-3.4-1.7-5.7.6-1.8 2.2-2.5 4.5-2.7z"/><path d="m217.4 110.6c0 1.5-.7 3-2.2 3.9-4.6 2.7-9.1 5.5-13.7 8-2.3 1.2-4.5.4-5.9-1.8s-1.2-4.6.9-6.1c4.6-3.1 9.3-6.1 14.4-8.2 3.4-1.4 6.4.7 6.5 4.2z"/><path d="m154.6 82.5c0 2.5.1 5 0 7.5-.2 2.8-2 4.4-4.7 4.3-2.6 0-4.3-1.6-4.4-4.2-.2-5.3-.2-10.6 0-15.8.1-2.7 1.6-4.6 4.5-4.6 3.1 0 4.5 1.9 4.7 4.8 0 2.7-.1 5.3-.1 8z"/><path d="m154.6 211.8c0 2.6.2 5.3 0 7.9s-1.9 4.1-4.5 4.2c-2.6 0-4.3-1.5-4.6-4.1-.6-5.5-.4-11 0-16.6.2-2.6 2-4 4.7-3.9s4.2 1.7 4.4 4.3 0 5.4 0 8.2z"/></g><path d="m433.6 242.9c-54.2 0-108.4 0-162.6.1-3.5 0-4.4-.9-4.4-4.4.1-32.7.1-65.5.1-98.2 0-21.7 0-43.5 0-65.2 0-6.6-3.6-10.6-9.6-10.9-7-.3-11 3.8-11.1 11.3 0 54.3 0 108.7.1 163 0 3.5-.9 4.4-4.4 4.4-37.5-.1-75-.1-112.6-.1-17.1 0-34.1 0-51.2 0-6.3 0-10.2 3.6-10.5 9.5-.4 6.9 3.8 11.1 11.3 11.1 54.2 0 108.4.1 162.6-.1 3.8 0 4.8.8 4.8 4.7-.1 54.2-.1 108.4-.1 162.6 0 7.2 3.7 11.3 10.3 11.3s10.3-4.1 10.3-11.3c0-27 0-54.1 0-81.1 0-27.3.1-54.6-.1-81.9 0-3.5.9-4.4 4.4-4.4 36.1.1 72.3.1 108.4.1h55c6.8 0 10.7-3.6 10.9-9.9.3-6.8-3.9-10.6-11.6-10.6z"/><path d="m343.8 422.8c-9.7-4.5-15-12.2-17.3-22.5-3.1-14-2.2-27.6 4.3-40.6 1.2-2.4 1.6-4.8-1.4-6-2.8-1.1-4 1-5.1 3.2-7.8 15.6-8.4 31.8-3.8 48.3 2.9 10.7 9.4 18.6 19.3 23.5.9.4 1.9.8 2.6 1.1 2.1.2 3.5-.5 4.1-2.3.8-2.5-.6-3.7-2.7-4.7z"/><path d="m319.3 151.6c2.7-.8 5.8-1.7 6.1-5.7 1-11.8 7.1-19.7 18.3-23.6 2.4-.8 4.3-2.1 3.3-4.9s-3.2-2.6-5.6-1.8c-12.4 4.4-20.1 12.8-22.5 25.7-.4 2.2-1.2 3.4-3.6 4-9 2.5-15.8 11.8-15.9 21.8.1 2.9.8 6.2 2.5 9.3 1.1 2 2.8 3 5 1.8 2-1.1 2.1-2.9 1.3-4.9-4-10.2.3-18.4 11.1-21.7z"/><path d="m136.8 118.7c1-.6 2-1 3-1.6 1.7-1.1 2.4-2.7 1.4-4.6-1-1.8-2.6-2.4-4.5-1.6-1.4.6-2.7 1.3-4 2.1-13.2 8.1-19.4 20.1-19.8 35.4.2 1.8.2 3.5.5 5.3.3 2 1.6 3.2 3.7 3 2.2-.2 3.3-1.7 3.2-3.9 0-.6-.1-1.3-.2-1.9-.6-13.9 4.5-24.9 16.7-32.2z"/><path d="m358.7 115.1c-2.2 0-3.6 1-3.8 3-.3 2 .8 3.4 2.8 3.8 2.6.6 5.1 1.3 7.5 2.3 1.9.8 3.6.2 4.4-1.6.9-1.8.4-3.5-1.4-4.5-3-1.8-6.3-2.5-9.5-3z"/><path d="m333.6 345c1.2.7 2.6.8 3.5-.2 2.7-3 4.4-6.6 6-9.9-.1-1.8-.6-2.9-1.8-3.5-1.3-.7-2.9-.8-3.8.4-2.4 2.9-4.4 6.1-5.6 9.7-.5 1.4.3 2.7 1.7 3.5z"/><path d="m151.7 108.3c-2.4-.2-4.4.6-4.5 3.3-.1 3.2 2.3 3.7 4.9 3.8 2.4.1 4.5-.6 4.6-3.3-.1-3.1-2.4-3.8-5-3.8z"/><path d="m347.7 316.1c-3.2-.4-3.9 2-4.7 4.4-.1 2.2.8 3.8 3.1 4 3.2.3 4-2.2 4.4-4.6.4-2.1-.7-3.6-2.8-3.8z"/></svg>