<?xml version="1.0" encoding="UTF-8"?>
<!-- Generator: Adobe Illustrator 27.2.0, SVG Export Plug-In . SVG Version: 6.00 Build 0)  -->
<svg xmlns="http://www.w3.org/2000/svg" xmlns:xlink="http://www.w3.org/1999/xlink" version="1.1" id="Capa_1" x="0px" y="0px" viewBox="0 0 512 512" style="enable-background:new 0 0 512 512;" xml:space="preserve" width="512" height="512">
<g>
	<g>
		<path style="fill:#FFFFFF;" d="M249.667,512c-18.408,0-36.787-1.97-54.627-5.849c-1.871-0.404-3.749-0.836-5.626-1.292    c-8.321-2-16.477-4.42-24.214-7.179c-0.915-0.306-1.823-0.613-2.708-0.942c-11.923-4.365-23.543-9.706-34.489-15.859    c-0.053-0.026-0.491-0.269-0.506-0.278c-0.204-0.11-0.409-0.232-0.615-0.364c-10.789-6.137-21.104-13.193-30.557-20.917    c-0.01-0.008-0.041-0.033-0.075-0.062c-0.534-0.421-1.067-0.86-1.601-1.3c-4.938-4.114-9.574-8.344-13.901-12.673    c-2.669-2.645-5.322-5.446-7.84-8.281c-0.859-0.955-1.766-1.995-2.649-3.058c-6.67-7.817-12.547-16.176-17.346-24.702    c-1.477-2.576-2.972-5.422-4.393-8.37c-0.636-1.321-1.238-2.626-1.815-3.93c-2.466-5.555-4.553-11.319-6.198-17.116    c-0.763-2.58-1.495-5.421-2.197-8.546c-2.541-11.592-3.711-23.9-3.49-36.647c0,0,0.001-0.366,0.002-0.451    c0.272-14.428,2.205-29.397,5.911-45.761c3.954-17.431,12.463-32.147,20.692-46.379c7.062-12.214,13.732-23.751,17.09-36.185    c2.351-8.701,3.105-18.043,3.904-27.935c0.635-7.87,1.292-16.008,2.809-24.224c6.813-37.116,30.987-72.009,66.323-95.717    c5.839-3.909,12.026-7.6,18.473-11.023V13.55c0-7.483,6.067-13.55,13.55-13.55H400.77c7.483,0,13.55,6.067,13.55,13.55v73.181    c10.067,10.817,19.083,22.701,26.847,35.394c2.061,3.37,3.914,6.55,5.663,9.724c0.139,0.254,0.27,0.512,0.394,0.773    c2.499,4.637,4.814,9.31,6.885,13.9c2.134,4.709,4.093,9.454,5.816,14.086c0.723,1.952,1.418,3.916,2.087,5.879    c1.289,3.773,2.533,7.788,3.699,11.934c0.275,0.974,0.528,1.932,0.781,2.915c1.6,5.892,3.121,12.37,4.473,19.078    c0.617,3.093,1.207,6.188,1.728,9.284c8.854,52.075,4.634,105.824-12.208,155.41c-13.449,39.614-33.203,71.183-58.714,93.829    c-17.906,15.922-40.259,28.792-66.431,38.247C308.135,507.016,279.31,512,249.673,512C249.67,512,249.671,512,249.667,512z"/>
	</g>
	<g>
		<g>
			<path style="fill:#86DFD1;" d="M447.85,360.52c-11.247,33.131-28.727,64.838-54.879,88.055     c-17.932,15.944-39.477,27.485-62.038,35.637c-42.254,15.267-89.003,17.999-132.816,8.469c-1.784-0.384-1.919-8.897-3.681-9.327     c-7.792-1.874-17.097,3.974-24.617,1.287c-0.813-0.271-1.626-0.542-2.417-0.836c-4.958-1.815-3.134-17.229-7.948-19.383     c-6.228-2.787-19.041,7.571-24.98,4.217c-4.775-2.697-1.792-19.895-6.349-22.957c-5.29-3.555-18.078,6.962-23.032,2.915     c-0.045-0.023-0.09-0.068-0.135-0.113c-0.519-0.406-1.039-0.836-1.558-1.265c-4.472-3.726,1.159-16.743-2.951-20.854     c-2.507-2.484-14.867,4.051-17.216,1.409c-0.353-0.393,1.902-5.235,1.552-5.637c-0.435-0.499-3.475,3.44-3.9,2.927     c-6.03-7.069-11.427-14.634-15.967-22.697c-0.703-1.227,6.303-7.998,5.644-9.253c-0.675-1.285-9.013,2.945-9.641,1.642     c-0.565-1.174-1.107-2.349-1.626-3.523c-2.236-5.036-4.088-10.163-5.556-15.335c-0.415-1.404,8.05-3.673,7.693-5.08     c-0.303-1.197-9.434-1.53-9.703-2.734c-2.417-11.021-3.365-22.268-3.162-33.56v-0.316c0.271-14.409,2.371-28.862,5.578-43.022     c6.752-29.766,29.721-52.666,37.647-82.025c4.675-17.299,3.704-35.615,6.956-53.23c6.549-35.683,30.421-66.713,60.548-86.926     c7.588-5.081,15.831-9.779,24.481-13.957c2.642-1.287,5.33-2.529,8.04-3.704c11.857-5.149,24.345-9.35,36.88-12.286     c10.705-2.484,21.432-4.065,31.888-4.539c35.479-1.604,69.016,7.566,98.127,24.458c12.241,7.091,23.713,15.56,34.215,25.181     c2.755,2.507,5.42,5.104,8.04,7.769c10.931,11.157,20.619,23.6,28.84,37.038c0.948,1.536-3.704,10.614-2.8,12.173     c0.858,1.491,7.317-4.494,8.153-2.981v0.045c2.417,4.449,4.698,9.011,6.798,13.663c0.971,2.123-4.314,9.892-3.41,12.037     c0.926,2.258,8.017-1.107,8.875,1.197c0.678,1.829,1.333,3.681,1.965,5.533c1.265,3.704-6.617,6.527-5.556,10.298     c0.249,0.881,9.508,2.665,9.734,3.546c1.649,6.075,3.072,12.218,4.314,18.383c0.587,2.936,1.152,5.894,1.649,8.853     C467.95,261.263,464.02,312.913,447.85,360.52z"/>
		</g>
		<g>
			<g>
				<path style="fill:#A27CFF;" d="M433.645,200.738l3.365,38.348l-19.829-32.995l-19.851,32.995l3.365-38.348l-35.434,15.018      l25.226-29.043l-37.489-8.672l37.489-8.695l-25.226-29.043l35.434,15.018l-3.365-38.325l19.851,32.995l12.625-21.026      c1.852,3.026,3.636,6.075,5.352,9.192v0.045l-1.513,17.119l8.311-3.455c1.965,4.336,3.794,8.74,5.465,13.234l-3.568,4.246      l5.533,1.287c1.265,3.704,2.417,7.453,3.478,11.224c0.249,0.881,0.474,1.739,0.7,2.62l-9.711,2.236l14.025,16.147      c0.587,2.936,1.152,5.894,1.649,8.853L433.645,200.738z"/>
			</g>
			<g>
				<path style="fill:#A27CFF;" d="M151.956,409.482l-35.434-15.018l3.365,38.347l-19.829-32.995l-16.825,27.959      c-0.79-0.881-1.581-1.784-2.349-2.71l2.688-30.601l-18.654,7.904c-1.423-2.484-2.755-5.036-3.997-7.611l12.444-14.318      l-19.625-4.539c-0.768-2.597-1.423-5.194-2.01-7.814l21.635-5.014l-24.797-28.546v-0.316l35.005,14.838l-3.365-38.325      l19.851,32.995l19.829-32.995l-3.365,38.325l33.944-14.115h0.113l-2.507,2.688l-21.342,25.452l27.981,6.482      c0.068,1.445,0.113,2.913,0.135,4.381l-28.117,6.504L151.956,409.482z"/>
			</g>
			<g>
				<g>
					<g>
						<rect x="183.769" y="13.32" style="fill:#FBEEE5;" width="217.198" height="394.978"/>
					</g>
					<g>
						<g>
							<path style="fill:#2F2444;" d="M224.134,366.075h-13.325c-0.384,0-0.678,0.316-0.678,0.678c0,0.406,0.294,0.723,0.678,0.723         h5.985v17.751c0,0.384,0.294,0.677,0.677,0.677c0.361,0,0.678-0.293,0.678-0.677v-17.751h5.985         c0.361,0,0.678-0.316,0.678-0.723C224.811,366.392,224.495,366.075,224.134,366.075z"/>
						</g>
						<g>
							<path style="fill:#2F2444;" d="M242.291,366.075c-0.361,0-0.677,0.316-0.677,0.678v8.559h-10.185v-8.559         c0-0.361-0.316-0.678-0.723-0.678c-0.361,0-0.678,0.316-0.678,0.678v18.474c0,0.384,0.316,0.677,0.678,0.677         c0.406,0,0.723-0.293,0.723-0.677v-8.559h10.185v8.559c0,0.384,0.316,0.677,0.677,0.677c0.407,0,0.723-0.293,0.723-0.677         v-18.474C243.014,366.392,242.698,366.075,242.291,366.075z"/>
						</g>
						<g>
							<path style="fill:#2F2444;" d="M261.013,384.526h-9.485v-7.814h8.288c0.384,0,0.7-0.316,0.7-0.678         c0-0.406-0.316-0.723-0.7-0.723h-8.288v-7.837h9.485c0.406,0,0.678-0.316,0.678-0.723c0-0.361-0.271-0.678-0.678-0.678         h-10.208c-0.361,0-0.678,0.316-0.678,0.678v18.474c0,0.384,0.294,0.655,0.632,0.677h10.253c0.406,0,0.678-0.293,0.678-0.677         C261.691,384.843,261.42,384.526,261.013,384.526z"/>
						</g>
						<g>
							<path style="fill:#2F2444;" d="M291.998,366.504c-0.045-0.09-0.113-0.135-0.181-0.226c-0.316-0.203-0.768-0.135-0.971,0.158         l-7.024,9.779l-7.069-9.779c-0.158-0.226-0.452-0.316-0.7-0.248c-0.09,0-0.181,0.045-0.248,0.09         c-0.045,0.023-0.068,0.023-0.068,0.045c-0.158,0.113-0.294,0.316-0.294,0.542v18.361c0,0.384,0.316,0.677,0.723,0.677         c0.361,0,0.677-0.293,0.677-0.677v-16.283l6.346,8.785c0.136,0.226,0.339,0.316,0.587,0.316h0.068         c0.203,0,0.429-0.09,0.565-0.316l6.346-8.808v16.306c0,0.384,0.294,0.677,0.677,0.677c0.384,0,0.677-0.293,0.677-0.677         v-18.361C292.111,366.753,292.066,366.617,291.998,366.504z"/>
						</g>
						<g>
							<path style="fill:#2F2444;" d="M306.814,365.804c-5.352,0-9.553,4.494-9.576,10.05c0.023,5.556,4.223,10.05,9.576,10.05         c5.307,0,9.463-4.494,9.485-10.05C316.276,370.298,312.121,365.804,306.814,365.804z M306.814,384.526         c-4.517,0-8.198-3.817-8.198-8.672c0-4.901,3.681-8.65,8.198-8.65c4.359,0,8.04,3.749,8.085,8.65         C314.853,380.71,311.172,384.526,306.814,384.526z"/>
						</g>
						<g>
							<path style="fill:#2F2444;" d="M330.639,365.804c-5.375,0-9.553,4.494-9.598,10.05c0.045,5.556,4.223,10.05,9.598,10.05         c5.285,0,9.463-4.494,9.485-10.05C340.102,370.298,335.924,365.804,330.639,365.804z M330.639,384.526         c-4.517,0-8.198-3.817-8.198-8.672c0-4.901,3.681-8.65,8.198-8.65c4.359,0,8.04,3.749,8.062,8.65         C338.679,380.71,334.998,384.526,330.639,384.526z"/>
						</g>
						<g>
							<path style="fill:#2F2444;" d="M359.298,366.279c-0.361,0-0.677,0.316-0.677,0.678v16.147l-12.015-16.667         c-0.203-0.294-0.655-0.361-0.971-0.158c-0.248,0.203-0.339,0.474-0.248,0.768v18.18c0,0.384,0.316,0.677,0.677,0.677         c0.361,0,0.678-0.293,0.678-0.677v-16.238l11.902,16.554c0.023,0.068,0.09,0.09,0.113,0.113         c0.135,0.181,0.316,0.248,0.542,0.248c0.384,0,0.7-0.293,0.7-0.677v-18.27C359.999,366.595,359.682,366.279,359.298,366.279z         "/>
						</g>
					</g>
					<g>
						<g>
							<path style="fill:#2F2444;" d="M392.923,394.851H191.813c-0.653,0-1.181-0.528-1.181-1.181V27.949         c0-0.653,0.528-1.181,1.181-1.181h201.109c0.653,0,1.181,0.528,1.181,1.181v365.721         C394.104,394.322,393.576,394.851,392.923,394.851z M192.995,392.488h198.747V29.13H192.995V392.488z"/>
						</g>
						<g>
							<path style="fill:#2F2444;" d="M392.519,60.15H192.205c-0.653,0-1.181-0.528-1.181-1.181c0-0.653,0.528-1.181,1.181-1.181         h200.314c0.653,0,1.181,0.528,1.181,1.181C393.7,59.622,393.172,60.15,392.519,60.15z"/>
						</g>
						<g>
							<path style="fill:#2F2444;" d="M297.194,89.121c-15.622,0-28.331-12.71-28.331-28.332c0-0.646,0.024-1.292,0.074-1.914         c0.05-0.613,0.561-1.086,1.178-1.086h54.161c0.616,0,1.128,0.473,1.178,1.086c0.05,0.622,0.074,1.268,0.074,1.914         C325.526,76.411,312.816,89.121,297.194,89.121z M271.233,60.15c-0.006,0.213-0.009,0.426-0.009,0.639         c0,14.32,11.65,25.97,25.969,25.97c14.32,0,25.97-11.65,25.97-25.97c0-0.213-0.003-0.426-0.009-0.639H271.233z"/>
						</g>
						<g>
							<path style="fill:#2F2444;" d="M391.917,361.214H192.216c-0.653,0-1.181-0.528-1.181-1.181c0-0.653,0.528-1.181,1.181-1.181         h199.701c0.653,0,1.181,0.528,1.181,1.181C393.098,360.686,392.57,361.214,391.917,361.214z"/>
						</g>
						<g>
							<path style="fill:#2F2444;" d="M317.695,272.388c-43.728,0-79.303-35.575-79.303-79.303         c0-43.741,35.575-79.327,79.303-79.327c13.026,0,25.949,3.227,37.373,9.331c0.385,0.205,0.624,0.605,0.624,1.042         c0.001,0.436-0.239,0.836-0.624,1.042c-25.107,13.435-40.705,39.457-40.705,67.912c0,28.441,15.598,54.453,40.705,67.887         c0.385,0.206,0.625,0.606,0.624,1.042c0,0.437-0.239,0.837-0.624,1.042C343.644,269.161,330.721,272.388,317.695,272.388z          M317.695,116.12c-42.425,0-76.941,34.526-76.941,76.965c0,42.425,34.515,76.941,76.941,76.941         c11.903,0,23.717-2.778,34.309-8.048C327.27,247.849,312,221.656,312,193.085c0-28.585,15.27-54.788,40.004-68.917         C341.412,118.898,329.597,116.12,317.695,116.12z"/>
						</g>
						<g>
							<path style="fill:#2F2444;" d="M277,361.782c-0.043,0-0.087-0.003-0.131-0.008c-0.648-0.072-1.116-0.655-1.044-1.305         c0.832-7.536-3.495-15.449-10.29-18.815c-6.794-3.365-15.711-2.014-21.201,3.216c-0.366,0.35-0.916,0.427-1.365,0.19         c-0.449-0.236-0.697-0.733-0.616-1.234c1.04-6.444-2.063-13.421-7.546-16.966c-5.482-3.545-13.117-3.513-18.568,0.079         c-0.39,0.256-0.893,0.26-1.286,0.01c-0.393-0.251-0.602-0.709-0.534-1.17c0.88-5.955,0.932-14.294-3.82-20.199         c-2.359-2.933-6.239-4.843-10.125-4.984c-3.001-0.111-5.677,0.891-7.474,2.82c-0.445,0.478-1.192,0.501-1.671,0.059         c-0.476-0.445-0.503-1.193-0.059-1.671c2.273-2.438,5.581-3.711,9.289-3.57c4.552,0.167,9.104,2.414,11.881,5.864         c4.669,5.804,5.197,13.527,4.604,19.677c5.963-2.864,13.479-2.5,19.045,1.099c5.442,3.519,8.825,10.006,8.823,16.475         c6.19-4.354,14.876-5.181,21.672-1.813c7.653,3.791,12.526,12.703,11.589,21.192         C278.107,361.334,277.595,361.782,277,361.782z"/>
						</g>
						<g>
							<path style="fill:#2F2444;" d="M302.029,359.388c-0.041,0-0.082-0.002-0.122-0.007c-0.65-0.067-1.121-0.648-1.054-1.297         c0.489-4.713,3.221-9.132,7.497-12.122c3.741-2.617,8.103-3.748,12.214-3.217c-0.922-7.458,2.929-15.469,9.784-19.986         c6.214-4.095,14.388-5.323,22.598-3.434c1.559-7.922,6.557-14.972,13.561-19.038c7.378-4.283,16.532-4.989,24.477-1.888         c0.609,0.237,0.909,0.922,0.672,1.529c-0.237,0.61-0.921,0.911-1.529,0.672c-7.177-2.795-15.771-2.134-22.433,1.731         c-6.663,3.867-11.503,11.002-12.631,18.621c-0.05,0.333-0.239,0.63-0.521,0.815c-0.283,0.186-0.633,0.239-0.955,0.153         c-7.857-2.116-16.059-1.062-21.941,2.812c-6.482,4.27-10.046,12.356-8.476,19.226c0.093,0.401-0.031,0.82-0.325,1.108         c-0.292,0.288-0.715,0.405-1.115,0.301c-3.929-0.987-8.313-0.067-12.027,2.53c-3.714,2.598-6.084,6.399-6.501,10.428         C303.141,358.935,302.627,359.388,302.029,359.388z"/>
						</g>
						<g>
							<path style="fill:#2F2444;" d="M196.89,133.088c-1.463,0-2.928-0.109-4.383-0.332c-0.645-0.098-1.088-0.701-0.989-1.346         c0.099-0.646,0.7-1.097,1.347-0.989c9.702,1.48,19.916-2.532,26.009-10.232c6.092-7.701,7.652-18.561,3.973-27.666         c-0.157-0.386-0.097-0.826,0.156-1.158c0.253-0.332,0.666-0.506,1.075-0.458c8.133,0.94,16.77-2.096,22.525-7.929         c5.756-5.83,8.682-14.501,7.633-22.627c-0.083-0.647,0.374-1.239,1.021-1.323c0.647-0.085,1.24,0.376,1.323,1.021         c1.138,8.831-2.04,18.254-8.296,24.59c-5.81,5.889-14.307,9.145-22.599,8.768c3.127,9.49,1.262,20.386-4.959,28.249         C215.029,128.855,206.014,133.088,196.89,133.088z"/>
						</g>
						<g>
							<path style="fill:#2F2444;" d="M391.071,129.727c-0.123,0-0.25-0.02-0.374-0.062c-17.554-5.859-30.053-23.865-29.611-42.318         c-7.46,1.268-15.595-1.118-21.108-6.298c-5.891-5.537-8.785-14.257-7.374-22.217c0.114-0.642,0.734-1.064,1.37-0.957         c0.643,0.114,1.071,0.727,0.957,1.37c-1.276,7.194,1.34,15.078,6.666,20.082c5.326,5.004,13.354,7.129,20.458,5.41         c0.365-0.092,0.751,0.003,1.038,0.243c0.288,0.242,0.443,0.605,0.419,0.98c-1.134,17.945,10.875,35.771,27.933,41.465         c0.62,0.206,0.954,0.876,0.747,1.494C392.027,129.413,391.566,129.727,391.071,129.727z"/>
						</g>
						<g>
							<path style="fill:#2F2444;" d="M362.493,199.834c-0.616,0-1.135-0.478-1.178-1.1c-0.236-3.423-1.852-6.966-4.548-9.975         c-2.246-2.508-5.174-4.68-9.216-6.839l-0.898-0.485c-2.135-1.16-3.98-2.162-6.25-2.339c-0.579-0.044-1.04-0.504-1.086-1.084         c-0.046-0.579,0.335-1.106,0.901-1.243c5.003-1.206,9.581-5.034,12.557-10.498c2.901-5.329,4.006-11.411,4.704-16.658         c0.076-0.572,0.555-1.006,1.131-1.025c0.595,0.032,1.084,0.381,1.198,0.946c1.044,5.148,2.325,8.773,4.419,12.515         c2.498,4.46,6.637,8.284,12.303,11.364c0.429,0.234,0.671,0.708,0.607,1.193c-0.064,0.484-0.42,0.88-0.897,0.993         c-0.995,0.238-2.347,1.117-3.616,2.352c-5.935,5.771-9.281,13.49-8.951,20.647c0.03,0.646-0.465,1.197-1.112,1.234         C362.539,199.834,362.516,199.834,362.493,199.834z M344.497,177.719c1.123,0.464,2.189,1.044,3.286,1.641l0.882,0.476         c4.292,2.293,7.426,4.627,9.862,7.346c1.377,1.537,2.505,3.206,3.353,4.938c1.238-5.729,4.385-11.282,9.096-15.863         c0.545-0.53,1.405-1.295,2.413-1.93c-5.045-3.088-8.815-6.823-11.225-11.125c-1.372-2.45-2.413-4.845-3.266-7.591         c-0.787,3.922-1.988,8.008-4.048,11.789C352.298,172.088,348.643,175.696,344.497,177.719z"/>
						</g>
						<g>
							<path style="fill:#2F2444;" d="M238.193,303.315c-0.008,0-0.017,0-0.025,0c-0.608-0.012-1.106-0.485-1.152-1.091         c-0.816-10.663-8.583-19.797-18.467-21.718c-0.572-0.111-0.977-0.622-0.956-1.204c0.022-0.581,0.463-1.061,1.042-1.129         c2.159-0.257,4.362-1.306,6.735-3.209c6.591-5.281,10.399-13.801,9.939-22.236c-0.034-0.632,0.436-1.179,1.065-1.239         c0.636-0.067,1.197,0.385,1.285,1.011c0.731,5.203,2.858,10.024,6.323,14.33c3.506,4.358,8.537,7.052,13.461,7.208         c0.539,0.018,0.998,0.397,1.116,0.924c0.117,0.526-0.137,1.065-0.617,1.31c-9.545,4.861-17.357,15.797-18.574,26.001         C239.296,302.87,238.791,303.315,238.193,303.315z M222.928,279.324c7.258,2.821,13.012,9.222,15.367,16.989         c2.601-7.984,8.454-15.714,15.56-20.389c-4.395-1.049-8.606-3.747-11.714-7.611c-2.149-2.672-3.821-5.529-5.004-8.547         c-1.344,6.632-4.991,12.798-10.288,17.043C225.515,277.876,224.214,278.712,222.928,279.324z"/>
						</g>
						<g>
							<path style="fill:#2F2444;" d="M278.906,115.719c-0.379,0-0.751-0.183-0.979-0.521c-4.619-6.828-9.425-13.666-14.283-20.323         c-0.384-0.528-0.269-1.267,0.259-1.652c0.525-0.385,1.265-0.268,1.651,0.258c4.873,6.68,9.694,13.541,14.329,20.394         c0.366,0.54,0.224,1.275-0.316,1.64C279.364,115.652,279.134,115.719,278.906,115.719z"/>
						</g>
						<g>
							<path style="fill:#2F2444;" d="M299.199,111.838c-0.611,0-1.129-0.471-1.177-1.09l-1.182-15.286         c-0.051-0.651,0.436-1.22,1.086-1.269c0.669-0.057,1.22,0.436,1.269,1.086l1.182,15.286c0.051,0.651-0.436,1.22-1.086,1.269         C299.26,111.837,299.229,111.838,299.199,111.838z"/>
						</g>
						<g>
							<path style="fill:#2F2444;" d="M318.871,109.001c-0.194,0-0.392-0.049-0.574-0.15c-0.57-0.318-0.775-1.037-0.458-1.607         c3.328-5.976,7.046-11.808,11.055-17.336c0.382-0.528,1.122-0.645,1.65-0.262c0.528,0.383,0.646,1.121,0.262,1.65         c-3.952,5.452-7.62,11.205-10.903,17.098C319.688,108.781,319.286,109.001,318.871,109.001z"/>
						</g>
						<g>
							<path style="fill:#2F2444;" d="M276.252,320.175c-0.182,0-0.366-0.043-0.539-0.131c-0.58-0.299-0.808-1.011-0.511-1.591         l11.604-22.555c0.299-0.581,1.01-0.808,1.591-0.51c0.58,0.299,0.808,1.011,0.511,1.591l-11.604,22.555         C277.094,319.94,276.681,320.175,276.252,320.175z"/>
						</g>
						<g>
							<path style="fill:#2F2444;" d="M299.643,321.396c-0.023,0-0.048,0-0.071-0.001c-0.652-0.039-1.148-0.598-1.111-1.249         c0.431-7.303,0.546-14.712,0.342-22.02c-0.019-0.653,0.496-1.195,1.148-1.214c0.59-0.011,1.195,0.494,1.214,1.148         c0.206,7.377,0.09,14.855-0.344,22.225C300.784,320.911,300.264,321.396,299.643,321.396z"/>
						</g>
						<g>
							<path style="fill:#2F2444;" d="M322.419,316.227c-0.428,0-0.84-0.233-1.051-0.64c-3.176-6.137-6.579-12.265-10.115-18.214         c-0.333-0.56-0.149-1.286,0.412-1.619c0.558-0.335,1.286-0.148,1.619,0.412c3.56,5.988,6.986,12.156,10.184,18.335         c0.3,0.579,0.073,1.292-0.507,1.592C322.787,316.184,322.602,316.227,322.419,316.227z"/>
						</g>
						<g>
							<g>
								<path style="fill:#2F2444;" d="M373.429,257.455c-0.02,0-0.04,0-0.06-0.001c-0.557-0.028-1.019-0.442-1.107-0.993          c-0.998-6.232-6.842-11.58-13.028-11.922c-0.608-0.034-1.09-0.523-1.116-1.13c-0.025-0.608,0.415-1.135,1.017-1.22          c2.004-0.281,3.858-0.99,5.365-2.052c4.076-2.875,5.711-8.144,7.158-13.75c0.141-0.549,0.674-0.92,1.222-0.883          c0.568,0.038,1.028,0.474,1.095,1.039c0.375,3.136,1.265,5.752,2.884,8.48c1.673,2.821,4.373,4.681,7.047,4.855          c0.518,0.033,0.953,0.4,1.073,0.904c0.12,0.504-0.102,1.028-0.548,1.291c-2.459,1.455-5.603,4.039-6.695,6.278          c-1.393,2.861-2.517,5.782-3.165,8.226C374.433,257.096,373.962,257.455,373.429,257.455z M363.957,243.183          c4.164,1.611,7.697,4.979,9.513,9.112c0.603-1.62,1.329-3.312,2.142-4.979c1.016-2.084,3.172-4.149,5.288-5.723          c-2.4-0.933-4.561-2.813-6.075-5.365c-0.93-1.568-1.642-3.102-2.171-4.7c-1.381,4.268-3.274,8.058-6.792,10.54          C365.268,242.486,364.63,242.86,363.957,243.183z"/>
							</g>
							<g>
								<path style="fill:#2F2444;" d="M222.359,189.57c-0.016,0-0.032,0-0.048,0c-0.58-0.024-1.057-0.465-1.125-1.042          c-0.28-2.36-1.029-4.53-2.164-6.276c-1.962-3.013-4.948-5.232-7.793-5.793c-0.587-0.115-0.995-0.651-0.949-1.247          c0.044-0.596,0.527-1.065,1.124-1.092c2.61-0.119,5.243-1.793,7.045-4.477c1.708-2.546,2.556-5.68,3.218-8.687          c0.133-0.612,0.717-1.009,1.343-0.913c0.619,0.102,1.051,0.667,0.986,1.291c-0.499,4.719,2.479,9.729,6.928,11.656          c0.39,0.169,0.661,0.536,0.706,0.96c0.044,0.423-0.143,0.839-0.49,1.086c-5.128,3.651-7.039,10.719-7.623,13.588          C223.405,189.177,222.918,189.57,222.359,189.57z M215.291,175.503c2.183,1.229,4.193,3.125,5.712,5.46          c0.556,0.855,1.031,1.791,1.421,2.789c1.083-3.064,2.906-6.749,5.894-9.468c-2.702-1.679-4.797-4.34-5.894-7.318          c-0.524,1.392-1.173,2.742-2.012,3.994C219.042,173,217.25,174.567,215.291,175.503z"/>
							</g>
						</g>
					</g>
				</g>
				<g>
					<g>
						<g>
							<path style="fill:#FF9393;" d="M105.094,448.597c4.864,3.974,18.372-4.348,23.561-0.849         c4.601,3.103,0.85,18.079,5.675,20.809c5.577,3.155,19.052-7.174,24.885-4.52c5.227,2.379,2.789,17.791,8.188,19.768         c0.79,0.294,1.603,0.565,2.416,0.836c3.669,1.311,16.217-2.831,19.956-1.719c3.925,1.167-0.956,7.58,3.034,8.54         c3.749-4.607,7.633-9.372,11.563-14.228c19.332-23.916,39.861-49.978,53.208-68.926c3.952-5.578,7.249-10.547,9.711-14.634         c2.123-3.478,3.613-6.324,4.381-8.424c1.807-4.946,3.026-9.621,3.771-14.228c0.271-1.604,0.474-3.23,0.61-4.833         c0.203-2.055,0.316-4.11,0.316-6.165c0.045-2.416-0.023-4.856-0.203-7.362v-0.023c-0.813-12.489-3.884-26.017-6.978-44.061         c-2.01-11.721-2.123-24.255-1.423-35.615c0.429-6.64,1.107-12.85,1.875-18.293c1.671-12.082,3.681-20.28,3.681-20.28         c-0.474-0.09-0.949-0.158-1.423-0.203h-0.023c-6.685-0.79-12.15,1.581-16.667,5.804c-6.414,5.985-10.84,15.673-13.867,25.226         c-3.659,11.608-5.239,23.058-5.736,27.462v0.023c-0.135,1.197-0.203,1.875-0.203,1.875s-0.023-0.068-0.045-0.181         c-0.09-0.452-0.361-1.694-0.723-3.501c-0.926-4.517-2.529-12.512-3.749-19.987c-0.203-1.084-0.384-2.168-0.542-3.207         c-0.023-0.113-0.023-0.226-0.045-0.339c-0.745-4.855-1.287-9.146-1.287-11.744c0-1.242,0.135-2.688,0.339-4.359         c0-0.023,0-0.045,0-0.068c1.287-10.389,5.465-30.285,0.452-76.605c-0.023-0.294-0.068-0.587-0.113-0.881v-0.023         c-0.023-0.248-0.045-0.474-0.068-0.723c-0.452-4.02-1.016-7.679-1.716-10.998c-0.023-0.113-0.045-0.248-0.068-0.361         c-3.794-17.977-10.705-26.31-16.238-30.195c-1.152-0.813-2.236-1.423-3.207-1.897c-3.049-1.423-5.149-1.468-5.149-1.468         l-0.497,3.229l-1.829,11.947l-0.023,0.113l-0.316,2.055l-0.632,4.088c-1.22-8.582-3.613-14.183-6.391-17.796         c-0.181-0.271-0.384-0.519-0.61-0.768c-0.361-0.452-0.745-0.858-1.129-1.242c-2.055-2.033-4.201-3.162-6.165-3.771         c-0.655-0.203-1.287-0.361-1.874-0.452c-3.049-0.519-5.262,0.113-5.262,0.113l-2.462,23.916         c-0.068-0.316-0.158-0.632-0.226-0.926v-0.045c-1.807-6.775-4.426-10.773-7.227-12.986l-0.023-0.023         c-2.733-2.168-5.646-2.688-8.085-2.529c-3.162,0.203-5.556,1.491-5.872,1.649c-0.023,0.023-0.023,0.023-0.023,0.023         s-0.023,0.226-0.068,0.655l-3.839,41.057l-4.088,43.632c-0.158,1.716-0.316,3.523-0.497,5.443         c-0.045,0.474-0.09,0.949-0.135,1.423c-0.136,1.468-0.294,2.958-0.429,4.494l-4.133,44.264l-0.565-1.332         c0-0.023,0-0.023,0-0.045l-10.14-25c0,0,9.056-24.729,11.54-42.051c1.807-12.67-6.12-20.054-10.479-23.103         c-1.603-1.107-2.71-1.626-2.71-1.626l-10.163,28.253L99.38,264.899c0,0,9.056,20.596,22.245,51.92         c13.189,31.324,8.243,69.265,4.133,85.751c-0.949,3.749-5.239,8.763-11.314,14.273c-6.549,5.962-15.176,12.512-23.916,18.632         c2.279,2.279,10.367-4.589,12.757-2.431c1.921,1.734-1.876,12.514,0.116,14.174c0.52,0.429,1.039,0.858,1.558,1.265         L105.094,448.597z"/>
						</g>
						<g>
							<path style="fill:#2F2444;" d="M138.944,291.656c-0.047,0-0.097-0.002-0.146-0.009c-0.665-0.079-1.138-0.683-1.057-1.346         c0.069-0.581,7.018-58.317,8.237-78.248c1.225-19.995,7.363-76.977,7.425-77.551c0.051-0.468,0.368-0.865,0.814-1.016         c0.364-0.125,8.951-2.973,15.681,1.375c4.214,2.72,6.686,7.597,7.35,14.494c0.064,0.665-0.423,1.257-1.089,1.321         c-0.686,0.037-1.257-0.424-1.321-1.09c-0.589-6.122-2.693-10.393-6.254-12.691c-4.723-3.05-10.791-1.865-12.859-1.327         c-0.755,7.043-6.187,57.995-7.329,76.631c-1.224,20.002-8.18,77.807-8.251,78.389         C140.071,291.205,139.548,291.656,138.944,291.656z"/>
						</g>
						<g>
							<path style="fill:#2F2444;" d="M164.089,284.237c-0.036,0-0.074-0.001-0.111-0.006c-0.666-0.061-1.157-0.65-1.095-1.315         l14.427-157.461c0.052-0.576,0.505-1.034,1.08-1.094c0.196-0.014,18.981-1.698,23.676,22.198         c0.129,0.656-0.298,1.294-0.954,1.422c-0.655,0.133-1.294-0.299-1.421-0.954c-3.704-18.852-16.384-20.285-20.065-20.295         l-14.331,156.405C165.235,283.765,164.707,284.237,164.089,284.237z"/>
						</g>
						<g>
							<path style="fill:#2F2444;" d="M240.757,313.916c-0.524,0-1.006-0.341-1.161-0.868l-5.358-18.138         c-0.051-0.192-4.176-15.998-5.815-33.619c-0.607-6.518-0.163-15.874,0.35-26.707c0.927-19.567,2.081-43.918-1.58-69.275         c-2.958-20.496-9.526-29.226-14.516-32.939c-3.608-2.686-6.808-3.131-8.323-3.169l-14.328,151.053         c-0.064,0.664-0.631,1.145-1.32,1.091c-0.665-0.063-1.154-0.654-1.091-1.32l14.427-152.103         c0.053-0.554,0.476-1.001,1.027-1.083c0.213-0.032,5.26-0.723,11.054,3.588c7.793,5.8,12.998,17.42,15.468,34.535         c3.693,25.586,2.534,50.066,1.602,69.736c-0.509,10.742-0.948,20.019-0.358,26.367c1.621,17.424,5.696,33.037,5.736,33.193         l5.348,18.102c0.19,0.642-0.176,1.314-0.818,1.504C240.985,313.9,240.871,313.916,240.757,313.916z"/>
						</g>
						<g>
							<path style="fill:#2F2444;" d="M129.772,176.781l-11.129,34.007c0,0,6.763-2.338,10.82-11.13         C135.027,187.601,129.772,176.781,129.772,176.781z"/>
						</g>
						<g>
							<path style="fill:#2F2444;" d="M153.731,125.771l-4.019,50.701c0,0,9.893,0,12.057-17.312         C163.933,141.846,162.078,128.553,153.731,125.771z"/>
						</g>
						<g>
							<path style="fill:#2F2444;" d="M178.309,117.114l-4.019,50.701c0,0,9.893,0,12.057-17.312         C188.511,133.19,186.656,119.897,178.309,117.114z"/>
						</g>
						<g>
							<path style="fill:#2F2444;" d="M203.041,116.341l-4.019,50.701c0,0,9.893,0,12.057-17.313         C213.243,132.417,211.388,119.124,203.041,116.341z"/>
						</g>
						<g>
							<path style="fill:#2F2444;" d="M274.558,231.501c0,0-12.778,11.027-12.16,24.529c0.618,13.502,5.565,17.103,5.565,17.103         L274.558,231.501z"/>
						</g>
					</g>
					<g>
						<path style="fill:#2F2444;" d="M115.867,431.84l-10.908,16.644c-0.519-0.406-1.039-0.836-1.558-1.265        c-4.472-3.726-8.763-7.633-12.873-11.744c-2.507-2.484-4.946-5.059-7.295-7.701c-0.248-0.271-0.497-0.565-0.723-0.836        l24.684-16.757c0,0,4.314,2.258,7.249,6.662C116.86,420.435,118.351,425.448,115.867,431.84z"/>
					</g>
					<g>
						<path style="fill:#2F2444;" d="M167.403,483.805c-22.516-8.243-43.677-19.987-62.309-35.208        c4.223-4.878,21.116-23.148,32.408-16.147c12.986,8.04-2.484,35.254-2.484,35.254s25.971-24.12,38.348-15.47        C182.286,458.489,173.139,475.088,167.403,483.805z"/>
					</g>
					<g>
						<path style="fill:#2F2444;" d="M207.377,479.447l-9.26,13.234c-1.784-0.384-3.546-0.79-5.307-1.219        c-7.792-1.875-15.47-4.133-22.99-6.82c8.469-5.646,23.668-13.663,34.553-7.408        C205.412,477.843,206.428,478.566,207.377,479.447z"/>
					</g>
				</g>
			</g>
			<g>
				<g>
					<g>
						<path style="fill:#FFFFFF;" d="M436.417,303.137c-4.722-2.543-8.225-6.977-10.472-11.847s-3.147-9.358-3.968-14.658        c-1.124,5.592-2.829,11.112-5.618,16.088c-2.788,4.975-6.71,9.399-11.648,12.252c4.553,0.749,8.257,3.293,11.065,6.954        c1.368,1.784,2.31,3.857,3.094,5.964c1.211,3.254,2.072,6.639,2.565,10.076c1.032-4.851,2.275-10.144,4.939-14.328        C429.039,309.454,431.755,304.829,436.417,303.137z"/>
					</g>
				</g>
				<g>
					<g>
						<path style="fill:#FFFFFF;" d="M306.68,457.669c-4.722-2.543-8.225-6.977-10.472-11.847s-3.147-9.358-3.968-14.658        c-1.124,5.592-2.829,11.112-5.618,16.088c-2.788,4.975-6.71,9.399-11.649,12.252c4.553,0.749,8.257,3.293,11.065,6.954        c1.368,1.784,2.31,3.857,3.094,5.964c1.211,3.254,2.072,6.638,2.565,10.076c1.032-4.851,2.275-10.145,4.939-14.328        C299.302,463.986,302.018,459.361,306.68,457.669z"/>
					</g>
				</g>
				<g>
					<g>
						<path style="fill:#FFFFFF;" d="M150.418,130.154c-4.722-2.543-8.225-6.977-10.472-11.847        c-2.247-4.87-3.147-9.358-3.968-14.658c-1.124,5.591-2.829,11.112-5.618,16.088c-2.789,4.975-6.71,9.399-11.649,12.252        c4.553,0.749,8.257,3.293,11.065,6.954c1.368,1.784,2.31,3.857,3.094,5.964c1.211,3.254,2.072,6.638,2.565,10.076        c1.032-4.851,2.275-10.145,4.939-14.328C143.04,136.471,145.756,131.846,150.418,130.154z"/>
					</g>
				</g>
			</g>
		</g>
	</g>
</g>















</svg>
