<?xml version="1.0" encoding="UTF-8"?>
<!-- Generator: Adobe Illustrator 25.3.1, SVG Export Plug-In . SVG Version: 6.00 Build 0)  -->
<svg xmlns="http://www.w3.org/2000/svg" xmlns:xlink="http://www.w3.org/1999/xlink" version="1.1" id="Capa_1" x="0px" y="0px" viewBox="0 0 511.823 511.823" style="enable-background:new 0 0 511.823 511.823;" xml:space="preserve" width="512" height="512">
<g>
	<path style="fill:#FFFFFF;" d="M255.856,511.82C8.005,508.877-93.501,197.297,104.858,49.077   C229.48-43.916,414.969,0.165,484.103,139.772c42.017,81.213,35.805,183.613-15.923,259.131   C420.782,469.287,340.854,512.293,255.856,511.82z"/>
	<g>
		<path style="fill:#5F2183;" d="M498.706,254.721c0.111,49.874-15.698,99.549-44.696,140.016    c-22.751,31.097-49.702,54.594-78.885,71.113c-19.503,11.039-61.469-9.785-61.469-9.785s-37.992,40.41-57.332,40.218    C134.798,495.079,17.45,402.856,15.388,254.72C15.379,203.2,31.591,153.986,61.18,113.156c4.723-6.518,14.778-9.17,20.172-15.235    c8.533-9.64,12.877-22.246,22.858-30.408c3.362-2.749,6.797-5.408,10.299-7.973c17.97-13.117,37.475-23.659,58.487-31.455    c6.167-2.295,293.394,105.742,295.832,110.211c10.944,19.659,19.011,41.097,23.985,63.261c0.867,3.865-1.359,7.752-0.681,11.656    c0.467,2.691,3.89,5.389,4.266,8.094C497.942,232.385,498.719,243.565,498.706,254.721z"/>
		<g>
			<g>
				<polygon style="fill:#564BB7;" points="130.341,336.679 101.029,342.305 121.433,364.09 94.406,351.403 98.129,381.024       83.723,354.868 69.317,381.024 73.04,351.403 46.013,364.09 66.417,342.305 37.105,336.679 66.417,331.052 46.013,309.267       73.04,321.954 69.317,292.333 83.723,318.489 98.129,292.333 94.406,321.954 121.433,309.268 101.029,331.052     "/>
			</g>
			<g>
				<path style="fill:#564BB7;" d="M475.043,355.037l2.414-1.147c-5.641,12.572-12.357,24.571-19.982,35.877      c-1.147,1.673-2.295,3.322-3.466,4.971l1.625-12.955l-24.547,11.521l18.524-19.791l-26.627-5.091l26.627-5.115l-18.524-19.791      l24.547,11.521l-3.37-26.914l13.074,23.758l13.074-23.758L475.043,355.037z"/>
			</g>
		</g>
		<g>
			<path style="fill:#9F6DA4;" d="M468.828,138.296c-6.932,20.03-17.807,38.219-31.694,53.636     c-8.7,9.704-18.619,18.332-29.495,25.646c-9.824,6.597-20.436,12.142-31.67,16.397c-17.472,6.693-36.45,10.349-56.289,10.349     c-66.781,0-123.883-41.469-146.948-100.077c-7.027-17.879-10.899-37.383-10.899-57.771c0-1.506,0.024-3.012,0.072-4.494     c0.526-19.002,4.398-37.167,11.09-53.899c6.167-2.295,12.477-4.35,18.907-6.119c8.246-2.343,16.683-4.207,25.264-5.641     c12.955-2.151,26.268-3.275,39.868-3.275c52.895,0,101.821,16.994,141.594,45.796c24.738,17.926,45.963,40.442,62.408,66.28     C463.785,129.428,466.391,133.826,468.828,138.296z"/>
			<path style="opacity:0.71;fill:#95ABD3;" d="M375.97,233.974c-17.472,6.693-36.45,10.349-56.289,10.349     c-66.781,0-123.883-41.469-146.948-100.077c18.429,13.385,40.514,21.774,63.22,23.663c31.813,2.677,65.658-6.597,94.794,6.501     c11.138,4.996,20.843,13.122,27.702,23.233C366.027,208.782,369.995,221.904,375.97,233.974z"/>
			<path style="opacity:0.31;fill:#95ABD3;" d="M468.828,138.296c-6.932,20.03-17.807,38.219-31.694,53.636     c-8.7,9.704-18.619,18.332-29.495,25.646c-7.099-4.207-13.242-10.158-17.544-17.137c-14.174-23.065-10.589-53.158-21.798-77.8     c-9.632-21.177-29.925-36.546-52.369-42.736c-22.42-6.167-46.68-3.729-68.574,4.183c-16.827,6.095-33.439,15.488-51.293,14.126     c-12.787-0.98-24.619-7.553-34.155-16.229c0.526-19.002,4.398-37.167,11.09-53.899c6.167-2.295,12.477-4.35,18.907-6.119     c8.246-2.343,16.683-4.207,25.264-5.641c12.955-2.151,26.268-3.275,39.868-3.275c52.895,0,101.821,16.994,141.594,45.796     c24.738,17.926,45.963,40.442,62.408,66.28C463.785,129.428,466.391,133.826,468.828,138.296z"/>
			<path style="opacity:0.47;fill:#95ABD3;" d="M191.903,21.966c8.246-2.343,16.683-4.207,25.264-5.641     c-5.545,3.107-11.425,5.306-17.855,5.832C196.802,22.372,194.317,22.3,191.903,21.966z"/>
			<path style="opacity:0.47;fill:#95ABD3;" d="M461.036,125.126c2.749,4.302,5.354,8.7,7.792,13.17     c-6.932,20.03-17.807,38.219-31.694,53.636c-7.218-0.765-14.174-3.012-20.268-6.932c-22.061-14.174-26.866-44.505-24.404-70.606     c1.721-18.5,5.975-37.167,6.167-55.548C423.367,76.772,444.592,99.288,461.036,125.126z"/>
		</g>
		<g>
			
				<ellipse transform="matrix(0.6056 -0.7957 0.7957 0.6056 -166.2662 306.1038)" style="fill:#FF8933;" cx="225.696" cy="320.798" rx="45.345" ry="45.345"/>
			<path style="fill:#FDBC08;" d="M182.03,332.222c-4.92,3.233-9.774,6.548-14.546,9.948c-4.768,3.395-9.469,6.9-13.812,10.69     c-2.158,1.883-4.269,3.868-5.898,5.974c-0.795,1.015-1.469,2.21-1.55,2.894c-0.04,0.359,0.047,0.279,0.049,0.27     c-0.101-0.135,0.024-0.026,0.457,0.056c0.853,0.168,2.225,0.072,3.511-0.122c1.32-0.203,2.678-0.508,4.037-0.86     c2.722-0.71,5.454-1.612,8.168-2.578c10.884-3.873,21.583-8.645,32.228-13.452c10.671-4.782,21.192-9.933,31.76-14.98     c10.598-5.073,20.867-10.383,31.011-16.184c5.058-2.895,10.056-5.898,14.967-9.022c4.933-3.088,9.789-6.296,14.454-9.714     c2.331-1.709,4.607-3.478,6.778-5.33c2.172-1.833,4.279-3.771,5.943-5.845c0.808-1.014,1.515-2.155,1.709-2.982     c0.1-0.421,0.073-0.602,0.011-0.733c-0.079-0.192-0.33-0.455-0.741-0.647c-0.834-0.414-2.164-0.566-3.482-0.546     c-1.338,0.01-2.734,0.158-4.13,0.381c-5.616,0.92-11.203,2.773-16.726,4.661c-5.512,1.963-10.994,4.085-16.402,6.4     c5.113-2.915,10.346-5.635,15.725-8.081c5.38-2.454,10.872-4.682,16.774-6.148c1.482-0.353,3.001-0.638,4.597-0.774     c1.598-0.093,3.29-0.132,5.18,0.599c0.935,0.379,1.924,1.031,2.598,2.111c0.732,1.126,0.811,2.513,0.62,3.521     c-0.397,2.071-1.328,3.472-2.228,4.822c-3.778,5.175-8.39,8.973-13.021,12.76c-9.319,7.463-19.207,14.005-29.335,20.145     c-5.07,3.058-10.173,6.071-15.41,8.858c-5.244,2.813-10.528,5.434-15.794,8.064c-10.534,5.291-21.263,10.182-32.062,14.952     c-5.396,2.395-10.882,4.599-16.395,6.758c-5.528,2.122-11.078,4.226-16.817,5.933c-2.869,0.858-5.767,1.657-8.767,2.28     c-1.503,0.308-3.029,0.574-4.624,0.737c-1.619,0.126-3.231,0.275-5.258-0.194c-0.969-0.254-2.316-0.738-3.256-2.113     c-0.856-1.219-0.958-2.877-0.656-3.943c0.596-2.197,1.71-3.458,2.753-4.702c2.154-2.397,4.509-4.28,6.904-6.098     C161.056,342.972,171.4,337.314,182.03,332.222z"/>
		</g>
		<g>
			<path style="fill:#F3C7D1;" d="M103.877,211.447c-3.187,25.184-26.193,43.021-51.376,39.833     c-7.144-0.904-13.703-3.408-19.345-7.106c16.136-5.458,28.569-19.733,30.852-37.773c2.283-18.04-6.201-34.962-20.469-44.268     c6.385-2.176,13.361-2.967,20.505-2.062C89.228,163.257,107.065,186.263,103.877,211.447z"/>
			<path style="fill:#FF5382;" d="M87.717,127.157c17.759,0,32.148-14.389,32.148-32.148c0-11.696-6.266-21.931-15.607-27.536     c-9.999,8.172-19.35,17.14-27.897,26.795c-5.386,6.057-10.43,12.359-15.147,18.866C66.982,121.592,76.706,127.157,87.717,127.157     z"/>
			<g>
				<g>
					<path style="fill:#FF5382;" d="M411.321,284.598h-0.024c-42.664,22.563-79.784,55.572-107.008,95.416       c-23.789,34.824-39.964,74.756-47.356,116.265c33.793,0.251,67.893-6.538,99.915-21.125c6.038-2.914,11.948-6.026,17.712-9.237       c2.438-55.237,16.397-109.877,41.016-159.521c5.33-10.78,11.162-21.297,17.496-31.55c0.167-0.311,0.359-0.598,0.55-0.908       c-5.426,2.295-10.756,4.78-16.014,7.409C415.504,282.399,413.4,283.475,411.321,284.598z"/>
					<path style="fill:#FF8933;" d="M411.297,284.598c-42.664,22.563-79.784,55.572-107.008,95.416       c-23.597,34.543-40.68,75.094-48.171,116.26c10.908,0.117,21.85-0.501,32.746-1.876c4.777-36.698,16.761-73.551,33.59-106.449       c20.795-40.657,50.982-77.227,88.771-102.467c2.103-1.434,4.23-2.797,6.382-4.135c-2.104,1.052-4.207,2.128-6.286,3.251       H411.297z"/>
					<path style="fill:#564BB7;" d="M410.15,295.641l-0.024,0.024c-53.067,52.164-83.87,122.293-88.169,192.142       c18.201-5.005,36.034-12.269,53.102-21.923c2.613-54.759,16.116-110.286,40.516-159.487c5.33-10.78,11.162-21.297,17.496-31.55       C423.869,280.368,415.193,290.693,410.15,295.641z"/>
				</g>
				<polygon style="fill:#FDBC08;" points="430.35,251.65 452.319,235.567 449.376,262.634 474.288,273.619 449.376,284.603       452.319,311.671 430.35,295.588 408.38,311.671 411.324,284.603 386.411,273.619 411.324,262.634 408.38,235.567     "/>
			</g>
		</g>
		<g>
			<g>
				<path style="fill:#9F6DA4;" d="M167.042,423.121h-47.039c1.793-11.401,11.616-20.126,23.519-20.126      c5.115,0,9.872,1.602,13.744,4.374C162.405,411.003,166.038,416.644,167.042,423.121z"/>
				<path style="fill:#9F6DA4;" d="M205.106,423.121H158.02c1.028-6.501,4.661-12.142,9.824-15.751      c3.872-2.773,8.605-4.374,13.72-4.374c5.115,0,9.871,1.602,13.744,4.374C200.446,411.003,204.079,416.644,205.106,423.121z"/>
				<path style="fill:#9F6DA4;" d="M241.089,423.121h-47.039c1.004-6.501,4.637-12.142,9.8-15.751      c3.872-2.773,8.605-4.374,13.72-4.374C229.473,402.996,239.321,411.72,241.089,423.121z"/>
			</g>
			<g>
				<path style="fill:#9F6DA4;" d="M480.409,221.431h-47.039c1.793-11.401,11.616-20.125,23.519-20.125      c5.115,0,9.871,1.601,13.744,4.374C475.772,209.313,479.406,214.954,480.409,221.431z"/>
				<path style="fill:#9F6DA4;" d="M496.411,221.426h-25.025c0.621-3.944,2.199-7.577,4.517-10.612      c1.482-1.984,3.275-3.705,5.306-5.139c3.323-2.39,7.29-3.896,11.569-4.278c1.267,5.617,2.342,11.282,3.203,17.042      C496.124,219.442,496.268,220.422,496.411,221.426z"/>
			</g>
			<g>
				<path style="fill:#9F6DA4;" d="M205.793,220.211h-47.039c1.793-11.401,11.616-20.126,23.519-20.126      c5.115,0,9.871,1.602,13.744,4.374C201.156,208.092,204.789,213.733,205.793,220.211z"/>
				<path style="fill:#9F6DA4;" d="M243.858,220.211h-47.087c1.028-6.502,4.661-12.142,9.823-15.752      c3.872-2.772,8.605-4.374,13.72-4.374c5.115,0,9.871,1.602,13.744,4.374C239.197,208.092,242.83,213.733,243.858,220.211z"/>
				<path style="fill:#9F6DA4;" d="M279.841,220.211h-47.039c1.004-6.502,4.637-12.142,9.8-15.752      c3.872-2.772,8.604-4.374,13.72-4.374C268.224,200.085,278.072,208.809,279.841,220.211z"/>
			</g>
		</g>
		<g>
			<g>
				<path style="fill:#FFFFFF;" d="M169.017,276.527c-6.888-0.522-13.777-0.654-20.665-0.664c-0.001-0.002-0.002-0.005-0.002-0.007      c2.909-2.642,5.747-5.363,8.386-8.307c0.099-0.11,0.112-0.278,0.022-0.403c-0.103-0.145-0.305-0.178-0.45-0.075      c-3.191,2.284-6.187,4.786-9.111,7.368c-0.115-0.065-0.234-0.121-0.359-0.167c-0.008-2.999-0.038-5.999-0.069-8.999      c-0.086-3.814-0.173-7.627-0.384-11.441c-0.007-0.125-0.107-0.228-0.235-0.235c-0.138-0.008-0.256,0.098-0.263,0.235      c-0.212,3.814-0.298,7.628-0.384,11.441c-0.03,2.97-0.061,5.94-0.069,8.909c-0.143,0.033-0.283,0.074-0.416,0.13      c-1.025-1.105-2.058-2.204-3.119-3.276c-1.62-1.674-3.262-3.327-4.971-4.92c-0.058-0.054-0.147-0.06-0.213-0.012      c-0.073,0.055-0.088,0.159-0.034,0.233c1.397,1.873,2.86,3.687,4.346,5.48c0.941,1.161,1.91,2.297,2.886,3.426      c-0.126,0.193-0.218,0.408-0.287,0.633c-2.977,0.021-5.954,0.053-8.931,0.156c-3.814,0.1-7.628,0.238-11.441,0.495      c-0.092,0.006-0.168,0.08-0.174,0.174c-0.007,0.103,0.071,0.192,0.174,0.2c3.814,0.258,7.627,0.395,11.441,0.495      c3.001,0.104,6.002,0.136,9.003,0.156c0.005,0.012,0.011,0.023,0.016,0.035c-2.823,2.609-5.588,5.283-8.196,8.132      c-0.096,0.105-0.109,0.267-0.021,0.386c0.1,0.136,0.291,0.166,0.427,0.066c3.141-2.298,6.123-4.772,9.046-7.313      c0.15,0.068,0.307,0.122,0.471,0.159c0.018,3.046,0.022,6.092,0.102,9.138c0.07,3.814,0.165,7.628,0.344,11.441      c0.006,0.127,0.108,0.232,0.238,0.238c0.138,0.006,0.255-0.1,0.261-0.238c0.179-3.814,0.275-7.627,0.345-11.441      c0.08-3.076,0.083-6.152,0.102-9.228c0.087-0.032,0.171-0.067,0.253-0.108c1.047,1.168,2.088,2.342,3.165,3.484      c1.617,1.676,3.232,3.354,4.954,4.936c0.109,0.101,0.278,0.114,0.403,0.022c0.141-0.104,0.172-0.302,0.068-0.444      c-1.384-1.885-2.875-3.674-4.364-5.465c-1.028-1.208-2.092-2.384-3.15-3.566c0.04-0.073,0.087-0.143,0.12-0.221      c6.912-0.01,13.825-0.141,20.737-0.664c0.091-0.007,0.166-0.079,0.173-0.173C169.198,276.625,169.12,276.535,169.017,276.527z"/>
			</g>
			<g>
				<path style="fill:#FFFFFF;" d="M366.528,276.527c-6.888-0.522-13.777-0.654-20.665-0.664c0-0.002-0.002-0.005-0.002-0.007      c2.909-2.642,5.747-5.363,8.386-8.307c0.099-0.11,0.112-0.278,0.022-0.403c-0.103-0.145-0.305-0.178-0.45-0.075      c-3.191,2.284-6.187,4.786-9.111,7.368c-0.115-0.065-0.234-0.121-0.359-0.167c-0.008-2.999-0.038-5.999-0.069-8.999      c-0.086-3.814-0.173-7.627-0.384-11.441c-0.007-0.125-0.107-0.228-0.235-0.235c-0.138-0.008-0.256,0.098-0.263,0.235      c-0.212,3.814-0.298,7.628-0.384,11.441c-0.03,2.97-0.061,5.94-0.069,8.909c-0.143,0.033-0.283,0.074-0.416,0.13      c-1.025-1.105-2.058-2.204-3.119-3.276c-1.62-1.674-3.262-3.327-4.971-4.92c-0.058-0.054-0.147-0.06-0.213-0.012      c-0.073,0.055-0.088,0.159-0.034,0.233c1.397,1.873,2.86,3.687,4.346,5.48c0.941,1.161,1.91,2.297,2.886,3.426      c-0.126,0.193-0.218,0.408-0.287,0.633c-2.977,0.021-5.954,0.053-8.931,0.156c-3.814,0.1-7.628,0.238-11.441,0.495      c-0.092,0.006-0.168,0.08-0.174,0.174c-0.007,0.103,0.071,0.192,0.174,0.2c3.814,0.258,7.627,0.395,11.441,0.495      c3.001,0.104,6.002,0.136,9.003,0.156c0.005,0.012,0.011,0.023,0.016,0.035c-2.823,2.609-5.588,5.283-8.196,8.132      c-0.096,0.105-0.109,0.267-0.021,0.386c0.1,0.136,0.291,0.166,0.427,0.066c3.141-2.298,6.123-4.772,9.046-7.313      c0.15,0.068,0.307,0.122,0.471,0.159c0.018,3.046,0.022,6.092,0.102,9.138c0.07,3.814,0.165,7.628,0.344,11.441      c0.006,0.127,0.108,0.232,0.238,0.238c0.138,0.006,0.255-0.1,0.261-0.238c0.179-3.814,0.275-7.627,0.345-11.441      c0.08-3.076,0.083-6.152,0.102-9.228c0.087-0.032,0.171-0.067,0.253-0.108c1.047,1.168,2.088,2.342,3.165,3.484      c1.617,1.676,3.232,3.354,4.954,4.936c0.109,0.101,0.278,0.114,0.403,0.022c0.142-0.104,0.172-0.302,0.068-0.444      c-1.384-1.885-2.875-3.674-4.363-5.465c-1.028-1.208-2.092-2.384-3.15-3.566c0.04-0.073,0.087-0.143,0.12-0.221      c6.912-0.01,13.825-0.141,20.737-0.664c0.091-0.007,0.166-0.079,0.173-0.173C366.709,276.625,366.631,276.535,366.528,276.527z"/>
			</g>
			<g>
				<path style="fill:#FFFFFF;" d="M442.071,136.778c-6.888-0.521-13.777-0.654-20.665-0.664c-0.001-0.002-0.002-0.005-0.002-0.007      c2.909-2.642,5.747-5.363,8.386-8.307c0.099-0.11,0.112-0.278,0.022-0.403c-0.104-0.145-0.305-0.178-0.45-0.075      c-3.191,2.284-6.187,4.786-9.111,7.368c-0.115-0.065-0.234-0.121-0.359-0.167c-0.008-3-0.038-5.999-0.069-8.999      c-0.086-3.814-0.173-7.628-0.385-11.441c-0.007-0.125-0.107-0.228-0.235-0.235c-0.138-0.008-0.255,0.098-0.263,0.235      c-0.212,3.814-0.298,7.627-0.384,11.441c-0.03,2.97-0.061,5.94-0.069,8.909c-0.143,0.033-0.283,0.074-0.416,0.131      c-1.025-1.105-2.058-2.204-3.119-3.276c-1.62-1.674-3.262-3.327-4.971-4.92c-0.058-0.054-0.147-0.06-0.213-0.012      c-0.073,0.055-0.089,0.159-0.034,0.232c1.397,1.874,2.86,3.687,4.346,5.48c0.94,1.161,1.91,2.297,2.886,3.426      c-0.126,0.193-0.218,0.408-0.287,0.633c-2.977,0.021-5.954,0.053-8.931,0.156c-3.814,0.1-7.628,0.237-11.441,0.495      c-0.092,0.006-0.168,0.08-0.174,0.174c-0.007,0.103,0.071,0.193,0.174,0.2c3.814,0.258,7.627,0.395,11.441,0.495      c3.001,0.104,6.002,0.136,9.003,0.156c0.005,0.012,0.011,0.023,0.016,0.035c-2.823,2.609-5.588,5.283-8.196,8.132      c-0.096,0.105-0.109,0.267-0.021,0.386c0.1,0.136,0.291,0.166,0.427,0.066c3.141-2.298,6.123-4.773,9.046-7.313      c0.15,0.068,0.307,0.122,0.471,0.159c0.018,3.046,0.022,6.092,0.102,9.138c0.07,3.814,0.165,7.627,0.344,11.441      c0.006,0.127,0.108,0.231,0.238,0.238c0.138,0.006,0.255-0.1,0.261-0.238c0.179-3.814,0.275-7.628,0.345-11.441      c0.08-3.076,0.083-6.152,0.102-9.228c0.087-0.032,0.171-0.067,0.253-0.108c1.047,1.168,2.088,2.342,3.165,3.484      c1.617,1.676,3.232,3.354,4.954,4.936c0.109,0.101,0.278,0.114,0.403,0.022c0.142-0.104,0.172-0.303,0.068-0.444      c-1.384-1.885-2.875-3.674-4.364-5.465c-1.028-1.208-2.092-2.384-3.15-3.566c0.04-0.074,0.087-0.143,0.12-0.221      c6.913-0.01,13.825-0.141,20.737-0.664c0.091-0.007,0.166-0.079,0.173-0.173C442.252,136.876,442.175,136.786,442.071,136.778z"/>
			</g>
			<g>
				<path style="fill:#FFFFFF;" d="M206.522,116.521c-6.888-0.522-13.777-0.654-20.665-0.664c0-0.002-0.002-0.005-0.002-0.007      c2.909-2.642,5.747-5.363,8.386-8.307c0.099-0.11,0.112-0.278,0.022-0.403c-0.104-0.145-0.305-0.178-0.45-0.075      c-3.191,2.284-6.187,4.786-9.111,7.368c-0.115-0.064-0.234-0.121-0.359-0.167c-0.008-2.999-0.038-5.999-0.069-8.999      c-0.086-3.814-0.173-7.627-0.384-11.441c-0.007-0.125-0.107-0.228-0.235-0.235c-0.138-0.008-0.256,0.098-0.263,0.235      c-0.212,3.814-0.298,7.627-0.384,11.441c-0.03,2.97-0.061,5.94-0.069,8.909c-0.143,0.033-0.283,0.074-0.416,0.131      c-1.025-1.105-2.058-2.204-3.119-3.276c-1.62-1.674-3.262-3.327-4.971-4.92c-0.058-0.054-0.147-0.06-0.213-0.012      c-0.073,0.055-0.088,0.159-0.034,0.233c1.397,1.873,2.86,3.687,4.346,5.48c0.941,1.161,1.91,2.297,2.886,3.426      c-0.126,0.193-0.218,0.408-0.287,0.633c-2.977,0.021-5.954,0.053-8.931,0.156c-3.814,0.1-7.628,0.238-11.441,0.495      c-0.092,0.006-0.168,0.08-0.174,0.174c-0.007,0.103,0.071,0.193,0.174,0.2c3.814,0.258,7.627,0.395,11.441,0.495      c3.001,0.104,6.002,0.136,9.003,0.156c0.005,0.012,0.011,0.023,0.016,0.035c-2.823,2.609-5.588,5.283-8.196,8.132      c-0.096,0.105-0.109,0.267-0.021,0.386c0.1,0.136,0.291,0.166,0.427,0.066c3.141-2.298,6.123-4.772,9.046-7.313      c0.15,0.068,0.307,0.122,0.471,0.159c0.018,3.046,0.022,6.092,0.102,9.138c0.07,3.814,0.165,7.628,0.344,11.441      c0.006,0.127,0.108,0.232,0.238,0.238c0.138,0.006,0.255-0.1,0.261-0.238c0.179-3.814,0.275-7.627,0.345-11.441      c0.08-3.076,0.083-6.152,0.102-9.228c0.087-0.032,0.171-0.067,0.253-0.108c1.047,1.168,2.088,2.342,3.165,3.484      c1.617,1.676,3.232,3.354,4.954,4.936c0.109,0.101,0.278,0.114,0.403,0.022c0.141-0.104,0.172-0.302,0.068-0.444      c-1.384-1.885-2.875-3.674-4.364-5.465c-1.028-1.208-2.092-2.384-3.15-3.566c0.04-0.073,0.087-0.143,0.12-0.221      c6.912-0.01,13.825-0.141,20.737-0.664c0.091-0.007,0.166-0.079,0.173-0.173C206.703,116.619,206.625,116.529,206.522,116.521z"/>
			</g>
			<g>
				<path style="fill:#FFFFFF;" d="M313.39,424.777c-6.888-0.522-13.777-0.654-20.665-0.664c-0.001-0.002-0.002-0.005-0.002-0.007      c2.909-2.642,5.747-5.363,8.386-8.307c0.099-0.11,0.112-0.278,0.022-0.403c-0.104-0.145-0.305-0.178-0.45-0.075      c-3.191,2.284-6.187,4.786-9.111,7.368c-0.115-0.064-0.234-0.121-0.359-0.167c-0.008-3-0.038-5.999-0.069-8.999      c-0.086-3.814-0.172-7.627-0.384-11.441c-0.007-0.125-0.107-0.228-0.235-0.235c-0.138-0.008-0.255,0.098-0.263,0.235      c-0.212,3.814-0.298,7.627-0.384,11.441c-0.03,2.97-0.061,5.94-0.069,8.909c-0.143,0.033-0.283,0.074-0.415,0.13      c-1.025-1.105-2.058-2.204-3.119-3.276c-1.62-1.674-3.262-3.327-4.971-4.92c-0.058-0.054-0.147-0.06-0.213-0.012      c-0.073,0.055-0.089,0.159-0.034,0.233c1.397,1.873,2.86,3.687,4.346,5.48c0.94,1.161,1.91,2.297,2.886,3.426      c-0.126,0.193-0.218,0.408-0.287,0.633c-2.977,0.021-5.954,0.053-8.931,0.156c-3.814,0.1-7.628,0.237-11.441,0.495      c-0.092,0.006-0.168,0.08-0.174,0.174c-0.007,0.103,0.071,0.193,0.174,0.2c3.814,0.258,7.628,0.395,11.441,0.495      c3.001,0.104,6.002,0.136,9.003,0.156c0.005,0.012,0.011,0.023,0.016,0.035c-2.823,2.609-5.588,5.283-8.196,8.132      c-0.096,0.105-0.109,0.267-0.021,0.386c0.099,0.136,0.29,0.166,0.427,0.066c3.141-2.298,6.123-4.772,9.046-7.313      c0.15,0.068,0.307,0.122,0.471,0.159c0.018,3.046,0.022,6.092,0.102,9.138c0.07,3.814,0.165,7.628,0.344,11.441      c0.006,0.127,0.108,0.232,0.238,0.238c0.138,0.006,0.255-0.1,0.261-0.238c0.179-3.814,0.275-7.627,0.345-11.441      c0.08-3.076,0.083-6.152,0.102-9.228c0.087-0.032,0.171-0.067,0.253-0.108c1.047,1.168,2.088,2.342,3.165,3.484      c1.617,1.676,3.232,3.354,4.954,4.936c0.109,0.101,0.278,0.114,0.403,0.022c0.141-0.104,0.172-0.302,0.068-0.444      c-1.384-1.885-2.875-3.674-4.364-5.465c-1.028-1.208-2.092-2.384-3.15-3.566c0.04-0.073,0.087-0.143,0.12-0.221      c6.912-0.009,13.825-0.141,20.737-0.664c0.091-0.007,0.166-0.079,0.173-0.173C313.571,424.875,313.494,424.785,313.39,424.777z"/>
			</g>
		</g>
		<g>
			<path style="fill:#FDBC08;" d="M165.396,167.23c0,2.865-2.323,5.187-5.187,5.187c-2.865,0-5.187-2.322-5.187-5.187     s2.323-5.187,5.187-5.187C163.073,162.043,165.396,164.365,165.396,167.23z"/>
			<path style="fill:#FF8933;" d="M126.645,195.302c0,2.696-2.186,4.882-4.882,4.882c-2.696,0-4.882-2.186-4.882-4.882     s2.186-4.882,4.882-4.882C124.459,190.42,126.645,192.606,126.645,195.302z"/>
			<path style="fill:#FF8933;" d="M128.475,161.738c0,2.696-2.186,4.882-4.882,4.882c-2.696,0-4.882-2.186-4.882-4.882     c0-2.696,2.186-4.882,4.882-4.882C126.29,156.856,128.475,159.042,128.475,161.738z"/>
			<path style="fill:#F3C7D1;" d="M145.563,153.194c0,2.359-1.913,4.272-4.272,4.272c-2.359,0-4.272-1.913-4.272-4.272     c0-2.359,1.913-4.272,4.272-4.272C143.65,148.923,145.563,150.835,145.563,153.194z"/>
			<path style="fill:#F3C7D1;" d="M144.952,176.994c0,2.359-1.913,4.272-4.272,4.272c-2.359,0-4.272-1.913-4.272-4.272     c0-2.359,1.913-4.272,4.272-4.272C143.04,172.723,144.952,174.635,144.952,176.994z"/>
			<path style="fill:#F3C7D1;" d="M229.575,236.19c0,2.359-1.912,4.272-4.272,4.272c-2.359,0-4.272-1.913-4.272-4.272     c0-2.359,1.912-4.272,4.272-4.272C227.662,231.918,229.575,233.83,229.575,236.19z"/>
			<path style="fill:#F3C7D1;" d="M483.442,250.429c0,2.359-1.913,4.272-4.272,4.272c-2.359,0-4.272-1.913-4.272-4.272     c0-2.359,1.913-4.272,4.272-4.272C481.53,246.157,483.442,248.07,483.442,250.429z"/>
			<path style="fill:#F3C7D1;" d="M420.789,338.103c0,2.359-1.912,4.272-4.272,4.272s-4.272-1.913-4.272-4.272     c0-2.359,1.912-4.272,4.272-4.272S420.789,335.743,420.789,338.103z"/>
			<g>
				<path style="fill:#F3C7D1;" d="M223.879,447.949c0,2.359-1.912,4.272-4.272,4.272c-2.359,0-4.272-1.913-4.272-4.272      c0-2.359,1.913-4.272,4.272-4.272C221.967,443.677,223.879,445.59,223.879,447.949z"/>
				<path style="fill:#F3C7D1;" d="M197.028,434.117c0,2.359-1.913,4.272-4.272,4.272c-2.359,0-4.272-1.912-4.272-4.272      s1.913-4.272,4.272-4.272C195.115,429.845,197.028,431.757,197.028,434.117z"/>
				<path style="fill:#F3C7D1;" d="M178.11,447.949c0,2.359-1.913,4.272-4.272,4.272c-2.359,0-4.272-1.913-4.272-4.272      c0-2.359,1.913-4.272,4.272-4.272C176.197,443.677,178.11,445.59,178.11,447.949z"/>
			</g>
			<path style="fill:#F3C7D1;" d="M48.735,270.568c0,2.359-1.913,4.272-4.272,4.272c-2.359,0-4.272-1.913-4.272-4.272     c0-2.359,1.913-4.272,4.272-4.272C46.822,266.296,48.735,268.208,48.735,270.568z"/>
		</g>
		<g>
			<path style="fill:#FDBC08;" d="M319.933,377.458c-2.394,1.574-5.61,0.911-7.185-1.483c-1.574-2.393-0.911-5.61,1.483-7.184     c2.393-1.574,5.61-0.911,7.184,1.483C322.99,372.667,322.327,375.884,319.933,377.458z"/>
			<path style="fill:#FF8933;" d="M275.183,360.513c-2.253,1.482-5.28,0.857-6.762-1.395c-1.482-2.253-0.857-5.28,1.395-6.762     c2.253-1.482,5.28-0.857,6.762,1.395C278.06,356.004,277.436,359.031,275.183,360.513z"/>
			<path style="fill:#FF8933;" d="M304.23,343.595c-2.253,1.482-5.28,0.857-6.762-1.395c-1.482-2.253-0.857-5.28,1.395-6.762     c2.253-1.482,5.28-0.857,6.762,1.395C307.107,339.086,306.482,342.113,304.23,343.595z"/>
			<path style="fill:#F3C7D1;" d="M320.759,353.175c-1.971,1.297-4.62,0.75-5.917-1.221c-1.297-1.971-0.75-4.62,1.221-5.917     c1.971-1.297,4.62-0.75,5.917,1.221C323.276,349.229,322.73,351.878,320.759,353.175z"/>
			<path style="fill:#F3C7D1;" d="M300.54,365.745c-1.971,1.297-4.62,0.75-5.917-1.221c-1.297-1.971-0.75-4.62,1.221-5.917     s4.62-0.75,5.917,1.221C303.058,361.8,302.511,364.449,300.54,365.745z"/>
		</g>
		<g>
			<path style="fill:#FF8933;" d="M394.26,432.65c-2.253,1.482-5.28,0.857-6.762-1.395c-1.482-2.253-0.857-5.28,1.395-6.762     c2.253-1.482,5.28-0.857,6.762,1.395C397.137,428.141,396.512,431.168,394.26,432.65z"/>
			<path style="fill:#FF8933;" d="M423.306,415.733c-2.253,1.482-5.28,0.857-6.762-1.395c-1.482-2.253-0.857-5.28,1.395-6.762     c2.252-1.482,5.28-0.857,6.762,1.395S425.559,414.251,423.306,415.733z"/>
		</g>
	</g>
</g>















</svg>
