<?xml version="1.0" encoding="iso-8859-1"?>
<!-- Generator: Adobe Illustrator 26.5.1, SVG Export Plug-In . SVG Version: 6.00 Build 0)  -->
<svg xmlns="http://www.w3.org/2000/svg" xmlns:xlink="http://www.w3.org/1999/xlink" version="1.1" id="Capa_1" x="0px" y="0px" viewBox="0 0 512 512" style="enable-background:new 0 0 512 512;" xml:space="preserve">
<g>
	<path style="fill:#FFFFFF;" d="M256,512c-53.298,0-104.386-16.222-147.742-46.913c-42.398-30.012-74.32-71.507-92.316-119.998   c-5.356-14.411-9.416-29.375-12.063-44.475C1.305,285.99,0,270.978,0,256c0-68.378,26.629-132.664,74.983-181.017   C123.335,26.629,187.622,0,256,0s132.664,26.629,181.018,74.983C485.37,123.336,512,187.622,512,256   c0,26.25-3.961,52.136-11.773,76.938c-3.527,11.229-7.875,22.284-12.919,32.851c-20.481,43.096-52.562,79.586-92.766,105.512   C353.253,497.927,305.345,512,256,512z"/>
	<g>
		<g>
			<g>
				<g>
					<path style="fill:#6E72FF;" d="M503.502,258.15c0,5.611-0.193,11.183-0.558,16.707c-0.361,5.381-3.102,0.185-3.803,5.469       c-0.758,5.708,0.496,21.888-0.643,27.465c-1.694,8.296-3.811,16.438-6.323,24.407c-3.417,10.875-7.574,21.433-12.425,31.596       c-20.624,43.395-53.558,79.793-94.287,104.7c-2.983,1.829-15.25,0.814-18.316,2.512c-1.919,1.063,5.389,4.878,3.437,5.89       c-33.963,17.66-72.546,27.631-113.458,27.631c-21.693,0-42.74-2.801-62.787-8.075c-1.302-0.341,7.423-9.848,6.128-10.211       c-2.649-0.743-15.306,7.622-17.918,6.794c-52.441-16.64-97.29-50.353-127.99-94.614c-1.493-2.147-1.332-18.592-2.753-20.789       c-1.088-1.682-3.774,10.894-4.821,9.182c-8.286-13.503-15.302-27.862-20.894-42.923c-3.012-8.103-5.611-16.399-7.757-24.878       v-0.01c-0.144-0.549,7.724-9.123,7.589-9.682c-0.135-0.558-8.282,6.92-8.407,6.361c-1.165-4.812-2.175-9.672-3.032-14.58       c-1.877-10.692-3.08-21.635-3.513-32.76c-0.038-0.558,8.337-6.296,8.317-6.854c-0.019-0.558-8.433,4.063-8.433,3.505       c-0.077-2.271-0.106-4.552-0.106-6.843c0-12.79,0.982-25.359,2.858-37.62c0.087-0.549,5.348-3.296,5.435-3.845       c0.087-0.549-4.992,1.102-4.905,0.553c2.175-13.002,5.361-25.658,9.499-37.89c0.154-0.471,7.447-0.115,7.611-0.587       c0.164-0.462-6.822-1.752-6.648-2.214C58.264,80.586,149.664,11.774,257.126,11.774       C393.191,11.774,503.502,122.085,503.502,258.15z"/>
				</g>
			</g>
		</g>
		<g>
			<g>
				<g>
					<g>
						<g>
							<g>
								<g>
									
										<ellipse transform="matrix(0.7071 -0.7071 0.7071 0.7071 -15.8121 174.0468)" style="fill:#FFC063;" cx="202.187" cy="106.11" rx="73.225" ry="73.225"/>
								</g>
							</g>
						</g>
						<g>
							<g>
								<g>
									
										<ellipse transform="matrix(0.7071 -0.7071 0.7071 0.7071 -64.1356 369.9403)" style="fill:#F8BDFF;" cx="414.49" cy="262.389" rx="73.225" ry="73.225"/>
								</g>
							</g>
						</g>
						<g>
							<g>
								<g>
									
										<ellipse transform="matrix(0.2228 -0.9749 0.9749 0.2228 -254.0864 480.3094)" style="fill:#F8BDFF;" cx="174.175" cy="399.501" rx="73.225" ry="73.225"/>
								</g>
							</g>
						</g>
					</g>
					<g>
						<g>
							<g>
								<g>
									<path style="fill:#F7EDE5;" d="M473.953,169.23c-0.241,0-0.486-0.061-0.711-0.189l-39.331-22.298           c-0.694-0.393-0.937-1.274-0.544-1.967c0.393-0.693,1.275-0.938,1.968-0.544l39.331,22.298           c0.694,0.393,0.937,1.274,0.544,1.968C474.944,168.967,474.455,169.23,473.953,169.23z"/>
								</g>
							</g>
						</g>
						<g>
							<g>
								<g>
									<path style="fill:#F7EDE5;" d="M469.348,177.353c-0.241,0-0.486-0.061-0.711-0.188l-39.332-22.298           c-0.694-0.393-0.937-1.274-0.544-1.967c0.393-0.693,1.275-0.938,1.968-0.544l39.332,22.298           c0.694,0.393,0.937,1.274,0.544,1.968C470.339,177.089,469.851,177.353,469.348,177.353z"/>
								</g>
							</g>
						</g>
						<g>
							<g>
								<g>
									<path style="fill:#F7EDE5;" d="M464.743,185.476c-0.241,0-0.486-0.061-0.711-0.189L424.7,162.989           c-0.694-0.393-0.937-1.274-0.544-1.968c0.393-0.693,1.275-0.938,1.968-0.544l39.332,22.298           c0.694,0.393,0.937,1.274,0.544,1.968C465.734,185.212,465.245,185.476,464.743,185.476z"/>
								</g>
							</g>
						</g>
					</g>
					<g>
						<g>
							<g>
								<g>
									<path style="fill:#F7EDE5;" d="M216.996,47.14c-0.694,0-1.306-0.502-1.422-1.209c-0.13-0.787,0.403-1.529,1.19-1.659           l44.612-7.346c0.786-0.128,1.529,0.403,1.659,1.19c0.13,0.787-0.403,1.53-1.19,1.659l-44.612,7.346           C217.153,47.134,217.074,47.14,216.996,47.14z"/>
								</g>
							</g>
						</g>
						<g>
							<g>
								<g>
									<path style="fill:#F7EDE5;" d="M218.513,56.353c-0.694,0-1.306-0.502-1.422-1.209c-0.13-0.787,0.403-1.53,1.19-1.659           l44.612-7.346c0.785-0.127,1.529,0.403,1.659,1.19c0.13,0.787-0.403,1.53-1.19,1.659l-44.612,7.346           C218.67,56.347,218.591,56.353,218.513,56.353z"/>
								</g>
							</g>
						</g>
						<g>
							<g>
								<g>
									<path style="fill:#F7EDE5;" d="M220.03,65.567c-0.694,0-1.306-0.502-1.422-1.209c-0.13-0.787,0.403-1.53,1.19-1.659           l44.612-7.346c0.789-0.132,1.529,0.403,1.659,1.19c0.13,0.787-0.403,1.53-1.19,1.659l-44.612,7.346           C220.187,65.561,220.108,65.567,220.03,65.567z"/>
								</g>
							</g>
						</g>
					</g>
					<g>
						<g>
							<g>
								<g>
									<path style="fill:#F7EDE5;" d="M68.546,372.465c-0.509,0-1.002-0.269-1.265-0.746c-0.385-0.698-0.132-1.576,0.566-1.961           l39.578-21.858c0.699-0.386,1.577-0.133,1.962,0.566c0.385,0.698,0.132,1.576-0.566,1.961l-39.578,21.858           C69.021,372.407,68.782,372.465,68.546,372.465z"/>
								</g>
							</g>
						</g>
						<g>
							<g>
								<g>
									<path style="fill:#F7EDE5;" d="M73.06,380.639c-0.509,0-1.002-0.269-1.265-0.746c-0.385-0.698-0.132-1.576,0.566-1.962           l39.578-21.858c0.699-0.386,1.576-0.132,1.961,0.566c0.385,0.698,0.132,1.576-0.566,1.962l-39.578,21.858           C73.535,380.581,73.296,380.639,73.06,380.639z"/>
								</g>
							</g>
						</g>
						<g>
							<g>
								<g>
									<path style="fill:#F7EDE5;" d="M77.573,388.813c-0.509,0-1.002-0.269-1.265-0.746c-0.385-0.698-0.132-1.576,0.566-1.962           l39.578-21.858c0.699-0.386,1.576-0.133,1.962,0.566c0.385,0.698,0.132,1.576-0.566,1.961L78.27,388.633           C78.048,388.755,77.809,388.813,77.573,388.813z"/>
								</g>
							</g>
						</g>
					</g>
					<g>
						<g>
							<g>
								<g>
									<path style="fill:#F7EDE5;" d="M257.733,470.76c-0.512,0-1.008-0.273-1.27-0.755c-0.381-0.7-0.122-1.577,0.579-1.958           l39.721-21.597c0.702-0.381,1.577-0.122,1.958,0.579c0.381,0.7,0.122,1.577-0.579,1.958l-39.721,21.597           C258.202,470.703,257.965,470.76,257.733,470.76z"/>
								</g>
							</g>
						</g>
						<g>
							<g>
								<g>
									<path style="fill:#F7EDE5;" d="M262.193,478.963c-0.512,0-1.008-0.273-1.27-0.755c-0.381-0.7-0.122-1.577,0.579-1.958           l39.721-21.597c0.702-0.38,1.577-0.122,1.958,0.579c0.381,0.7,0.122,1.577-0.579,1.958l-39.721,21.597           C262.662,478.906,262.425,478.963,262.193,478.963z"/>
								</g>
							</g>
						</g>
						<g>
							<g>
								<g>
									<path style="fill:#F7EDE5;" d="M266.653,487.166c-0.512,0-1.008-0.273-1.27-0.755c-0.381-0.7-0.122-1.577,0.579-1.958           l39.721-21.597c0.701-0.38,1.577-0.121,1.958,0.579c0.381,0.7,0.122,1.577-0.579,1.958l-39.721,21.597           C267.122,487.109,266.885,487.166,266.653,487.166z"/>
								</g>
							</g>
						</g>
					</g>
				</g>
				<g>
					<g>
						<g>
							<path style="fill:#412945;" d="M483.301,287.484c-3.426-2.993-7.901-4.793-12.79-4.793c-10.75,0-19.498,8.748-19.498,19.508         c0,7.218,3.946,13.541,9.797,16.9c2.858,1.655,6.179,2.599,9.701,2.599c10.76,0,19.508-8.748,19.508-19.498         C490.019,296.329,487.411,291.055,483.301,287.484z M470.511,318.81c-2.637,0-5.139-0.616-7.353-1.713h-0.01         c-5.476-2.733-9.249-8.373-9.249-14.898c0-9.162,7.449-16.621,16.611-16.621c4.543,0,8.671,1.838,11.664,4.793         c3.06,3.022,4.956,7.208,4.956,11.828C487.131,311.361,479.673,318.81,470.511,318.81z"/>
						</g>
					</g>
				</g>
				<g>
					<g>
						<g>
							<path style="fill:#412945;" d="M164.841,431.104c-10.76,0-19.508,8.748-19.508,19.508c0,10.75,8.748,19.498,19.508,19.498         c10.75,0,19.498-8.748,19.498-19.498C184.339,439.852,175.591,431.104,164.841,431.104z M164.841,467.223         c-9.162,0-16.621-7.449-16.621-16.611c0-9.162,7.459-16.621,16.621-16.621c9.162,0,16.611,7.459,16.611,16.621         C181.452,459.774,174.003,467.223,164.841,467.223z"/>
						</g>
					</g>
				</g>
				<g>
					<g>
						<g>
							<path style="fill:#412945;" d="M135.497,75.841c-2.926-1.752-6.333-2.753-9.97-2.753c-10.76,0-19.508,8.748-19.508,19.508         c0,10.75,8.748,19.498,19.508,19.498c1.241,0,2.464-0.116,3.647-0.346c9.018-1.713,15.851-9.653,15.851-19.152         C145.025,85.485,141.195,79.248,135.497,75.841z M129.02,108.833c-1.126,0.25-2.3,0.375-3.493,0.375         c-9.172,0-16.621-7.449-16.621-16.611c0-9.162,7.449-16.621,16.621-16.621c3.234,0,6.256,0.934,8.816,2.541         c4.677,2.935,7.796,8.152,7.796,14.08C142.138,100.566,136.508,107.235,129.02,108.833z"/>
						</g>
					</g>
				</g>
			</g>
			<g>
				<g>
					<g>
						<g>
							<g>
								<path style="fill:#412945;" d="M132.485,265.743l2.762,0.914c-4.148,12.482-12.608,22.049-22.174,30.624          c-4.052,3.628-8.315,7.074-12.53,10.49c-6.246,5.053-12.694,10.288-18.209,15.899c-19.19,19.547-29.036,47.273-27.775,74.75          c-2.637-3.792-5.159-7.661-7.574-11.607c1.598-25.513,11.972-50.324,29.863-68.543c5.803-5.919,12.434-11.289,18.844-16.486          c5.476-4.437,10.827-8.777,15.63-13.368c6.217-5.938,11.501-12.29,14.908-19.797c0.443-0.991,0.857-2.002,1.232-3.032          c0.173-0.452,0.327-0.905,0.481-1.357l1.453,0.481L132.485,265.743z"/>
							</g>
						</g>
					</g>
					<g>
						<g>
							<g>
								<path style="fill:#412945;" d="M385.463,468.493c-4.851,2.974-9.807,5.774-14.879,8.402          c-16.852-0.577-32.857-5.765-45.531-15.552c-4.899-3.782-9.393-8.229-13.743-12.531          c-9.027-8.931-17.545-17.362-28.824-19.575c-19.623-3.85-37.13,13.753-43.741,21.5c-3.484,4.081-6.843,8.498-10.086,12.771          c-7.93,10.452-16.13,21.26-27.371,28.863c-2.204,1.492-4.523,2.858-6.949,4.081c-3.965-1.039-7.901-2.185-11.79-3.417          c5.236-1.742,10.076-4.09,14.426-7.035c10.182-6.901,17.65-16.727,25.552-27.14c3.311-4.36,6.737-8.873,10.355-13.118          c15.841-18.555,34.464-27.313,51.085-24.06c13.56,2.666,23.319,12.319,32.76,21.654c4.177,4.138,8.508,8.421,13.031,11.915          C344.763,466.838,365.012,471.246,385.463,468.493z"/>
							</g>
						</g>
					</g>
					<g>
						<g>
							<g>
								<path style="fill:#412945;" d="M498.497,307.791c0.385-15.004-1.607-30.325-7.362-44.944          c-13.156-33.434-46.272-59.842-84.374-67.272c-3.715-0.722-7.584-1.299-11.318-1.867          c-8.084-1.213-16.419-2.454-24.378-5.293c-0.789-0.27-1.569-0.568-2.348-0.876c-2.57-1.03-5.245-2.377-7.863-4.032          c-1.068-0.664-2.127-1.386-3.157-2.165c-7.709-5.726-14.205-14.186-14.715-24.859l7.69-0.366          c0.491,10.404,8.902,18.257,17.198,22.568c0.27,0.135,0.529,0.269,0.789,0.395c0.982,0.491,1.963,0.924,2.916,1.309          c7.824,3.128,16.168,4.379,25.013,5.707c3.811,0.577,7.767,1.164,11.645,1.925c19.643,3.83,38.381,12.405,54.203,24.811          c16.361,12.819,28.757,29.142,35.869,47.196c1.925,4.889,3.455,9.845,4.639,14.831          C502.193,286.05,500.692,297.05,498.497,307.791z"/>
							</g>
						</g>
					</g>
				</g>
				<g>
					<g>
						<g>
							<g>
								<g>
									<path style="fill:#412945;" d="M427.771,409.02l-169.095-9.682c-4.523-0.26-8.431-2.926-10.413-6.785l-3.05-6.064           l0.22,6.766l-53.471,13.291L189.468,401l-0.316,6.249l-28.295,7.035c-12.81,3.186-25.677-4.985-28.237-17.939           l-24.57-124.516l2.206-1.403l-2.677-0.955l-0.404-2.079l-0.395-2.332c-0.019,0.019-0.507,0.285-0.545,0.323           c-0.452,0.366-0.263,1.653-0.715,1.903c-7.258,4.016-13.256-1.62-17.008-7.622c-8.86-14.173-11.607-31.48-14.215-47.657           c-2.607-16.169-7.298-34.072-4.101-50.411c1.558-7.544,6.188-13.719,14.306-14.197c0.36-0.02-1.49,2.689-0.478,2.622           c0.464-0.031,3.065-2.538,3.558-2.567c1.471-0.089,3.522-0.453,4.017-0.411c0.366-0.847-3.237-1.26-2.775-2.059           c2.916-5.072,7.747-9.037,13.781-10.721l1.819-0.51l5.132,0.694l-0.589-1.965l15.408-4.311l4.67,1.851l-0.869-2.919           l189.142-52.961c7.815-2.185,15.793-0.087,21.462,4.879l0.029-0.01l3.428,7.01l-0.628-7.732l36.109-9.278l2.476,3.904           l0.325-4.616l9.845-2.531c5.178-1.328,10.442,1.8,11.732,6.987l17.419,69.678c1.299,5.178-1.857,10.413-7.045,11.684           l-10.885,2.666l-3.009-7.272l0.209,7.965l-30.056,7.372l-3.684-6.826l0.778,7.529l-0.606,0.154l3.301,12.819l-6.707,2.987           l7.429-0.187l13.599,52.807l0.443,1.723l37.495,4.023c3.282,0.115,6.246,1.492,8.411,3.667           c2.108,2.108,3.455,4.947,3.638,8.123l8.152,144.159C441.398,403.284,435.229,409.443,427.771,409.02z"/>
								</g>
							</g>
						</g>
						<g>
							<g>
								<g>
									<path style="fill:#F7EDE5;" d="M233.128,350.268c-5.9,0-11.159-4.004-12.586-9.983l-13.162-55.138           c-1.552-6.502,2.035-13.071,8.344-15.279l7.251-2.539l0.954,2.725l-7.251,2.539c-4.907,1.718-7.697,6.828-6.49,11.884           l13.162,55.138c1.276,5.346,6.491,8.664,11.877,7.549l3.28-0.679l0.584,2.827l-3.28,0.679           C234.91,350.178,234.011,350.268,233.128,350.268z"/>
								</g>
							</g>
						</g>
						<g>
							<g>
								<g>
									<path style="fill:#F7EDE5;" d="M254.614,161.322c-0.337-1.039-0.674-2.069-1.01-3.08c-0.78-2.406-1.521-4.677-2.127-6.506           c-0.433-1.309-0.789-2.387-1.049-3.147c-0.5-1.453-0.799-2.339-2.021-2.137l-1.222,0.193v0.241           c-2.579,0.847-12.762,3.869-50.671,14.475c-7.266,2.031-11.972,8.642-11.78,15.88c0.029,1.136,0.173,2.281,0.452,3.426           c1.039,4.283,3.696,7.872,7.487,10.105c2.522,1.492,5.312,2.242,8.152,2.242c1.444,0,2.887-0.193,4.312-0.587           l38.419-10.577c4.292-1.184,7.805-3.984,9.913-7.901C255.577,170.042,255.981,165.557,254.614,161.322z M250.928,172.582           c-1.732,3.215-4.62,5.515-8.132,6.487l-38.419,10.577c-3.493,0.962-7.122,0.481-10.24-1.357           c-3.109-1.838-5.293-4.783-6.14-8.296c-0.173-0.702-0.279-1.405-0.337-2.098c-0.5-6.208,3.426-12.02,9.624-13.753           c9.191-2.57,22.376-6.275,33.059-9.316c5.726-1.636,10.201-2.926,13.31-3.84c1.857-0.548,3.176-0.943,4.119-1.251           c0.491,1.453,1.492,4.494,3.513,10.702c0.183,0.568,0.375,1.155,0.577,1.78           C252.997,165.692,252.66,169.368,250.928,172.582z"/>
								</g>
							</g>
						</g>
						<g>
							<g>
								<g>
									<path style="fill:#F7EDE5;" d="M363.838,207.96l-1.203-5.861c-0.337-1.626-1.338-3.041-2.743-3.907           c-1.415-0.857-3.137-1.097-4.725-0.654l-20.278,5.678c-3.137,0.876-4.976,4.042-4.186,7.208l1.28,5.101           c0.674,2.704,3.118,4.533,5.803,4.533c0.462,0,0.934-0.058,1.405-0.173l19.325-4.706l0.876-0.212           c2.656-0.645,4.466-2.955,4.562-5.563C363.972,208.932,363.934,208.451,363.838,207.96z M338.642,217.623           c-1.944,0.472-3.917-0.722-4.398-2.666l-1.28-5.101c-0.481-1.925,0.645-3.859,2.56-4.398l20.268-5.678           c0.991-0.27,2.012-0.125,2.887,0.404c0.866,0.529,1.463,1.376,1.665,2.377l1.203,5.871           c0.404,1.925-0.789,3.811-2.704,4.273L338.642,217.623z"/>
								</g>
							</g>
						</g>
						<g>
							<g>
								<g>
									<g>
										<g>
											<path style="fill:#6E72FF;" d="M368.727,164.848l-2.906,0.702l-1.396-4.485c-5.765-14.657-19.2-26.264-38.458-33.03             c-22.029-7.728-49.728-8.383-77.993-1.848c-55.069,12.742-95.375,38.073-100.264,41.239             c11.799,54.655,36.812,196.62,44.251,239.119l-2.81,0.703c-8.527-48.659-41.191-233.884-48.784-257.944             c-3.676-11.645-10.009-17.843-15.995-21.134l3.802-1.068c5.765,3.85,11.481,10.355,14.946,21.327             c0.962,3.051,2.31,8.575,3.936,15.995c7.901-5.005,47.341-28.795,100.263-41.047c28.795-6.66,57.061-5.977,79.601,1.934             c14.581,5.12,25.975,12.954,33.453,22.78l-21.568-69.081l2.801-0.722l25.533,81.805             C367.755,161.643,368.284,163.231,368.727,164.848z"/>
										</g>
									</g>
								</g>
								<g>
									<g>
										<g>
											<path style="fill:#6E72FF;" d="M225.511,263.6c5.919,36.119,15.841,91.438,22.722,128.962l-2.801,0.693             c-3.821-20.865-15.033-82.459-21.981-124.564c-0.164-0.193-0.289-0.414-0.327-0.674             c-0.048-0.308-0.298-2.021-0.539-4.562c-3.118-19.152-5.158-33.338-4.879-36.1c0.231-2.31,0.712-7.122,80.284-29.748             c28.41-8.075,57.013-15.581,70.525-19.085l0.722,2.801c-13.31,3.446-41.278,10.779-69.255,18.719             c-71.555,20.307-78.879,26.312-79.418,27.679c-0.164,1.646,0.635,8.152,2.108,17.882             c1.059-8.488,4.042-16.592,11.337-18.517c9.075-2.406,59.977-0.058,103.43,3.147c9.162,0.674,27.284,2.079,45.397,3.898             c16.268,1.618,32.537,3.568,42.29,5.611c1.721,0.361,3.194,1.53,3.855,3.16c0.167,0.412,0.204,0.641,0.204,0.641             c-23.04-6.689-177.958-18.035-194.435-13.666C223.808,232.774,224.664,254.515,225.511,263.6z"/>
										</g>
									</g>
								</g>
								<g>
									<g>
										<g>
											<polygon style="fill:#6E72FF;" points="401.584,156.783 398.783,157.476 377.716,69.011 380.516,68.299            "/>
										</g>
									</g>
								</g>
							</g>
							<g>
								<g>
									<g>
										<g>
											<path style="fill:#6E72FF;" d="M136.816,262.744c-8.739,7.228-21.029,8.854-28.766,9.085l-0.472-2.358             c7.41-0.202,19.469-1.694,27.756-8.546c6.689-5.524,6.284-28.266-1.078-60.833c-6.554-29.017-16.034-55.05-20.769-61.171             c-2.31-2.974-5.226-4.697-8.681-5.13c-0.125-0.019-0.26-0.029-0.385-0.038l4.543-1.27             c2.435,1.001,4.562,2.676,6.361,4.995C125.161,150.181,154.755,247.903,136.816,262.744z"/>
										</g>
									</g>
								</g>
								<g>
									<g>
										<g>
											<path style="fill:#6E72FF;" d="M115.922,178.982l-0.385-1.511c-6.564-25.889-19.489-31.48-26.716-32.491             c-0.462,0.799-0.876,1.626-1.241,2.473c-1.02-0.087-2.06-0.115-3.08-0.058c-3.416,3.118-7.824,10.086-8.036,25.398             c-0.058,3.956,0.135,7.911,0.395,11.857c0.346,5.236,0.857,10.452,1.501,15.649c0.722,5.842,1.598,11.674,2.675,17.458             c1.088,5.832,2.358,11.635,3.936,17.352c1.434,5.207,3.109,10.365,5.264,15.312c1.752,4.004,3.83,7.988,6.679,11.337             c2.069,2.435,4.773,4.581,7.959,5.284c0.27,0.058,0.539,0.106,0.809,0.144c0.491,0.058,0.972,0.087,1.463,0.077             c5.62-0.125,11.116-4.899,13.868-9.326C131.628,240.904,122.553,205.112,115.922,178.982z M119.03,256.697             c-2.791,4.475-5.669,7.844-12.251,8.363c-19.171-0.934-28.295-68.822-27.977-92.227             c0.298-21.702,9.345-25.273,10.211-25.561c6.564,1.001,18.084,6.4,24.262,30.778l0.385,1.511             C120.185,205.285,129.116,240.509,119.03,256.697z"/>
										</g>
									</g>
								</g>
							</g>
						</g>
						<g>
							<g>
								<g>
									<g>
										<path style="fill:#F7EDE5;" d="M82.177,179.87c0.364,2.287,0.791,4.637,2.047,6.583c1.256,1.945,3.553,3.402,5.83,2.978            c1.681-0.312,3.065-1.595,3.857-3.111c0.792-1.516,1.065-3.247,1.193-4.952c0.388-5.172,0.152-18.542-7.2-19.545            C79.948,160.739,81.479,175.487,82.177,179.87z"/>
									</g>
								</g>
							</g>
							<g>
								<g>
									<g>
										<path style="fill:#F7EDE5;" d="M90.933,226.264c1.623,2.523,4.308,4.964,7.244,4.345c1.369-0.288,2.528-1.22,3.408-2.309            c3.376-4.177,2.983-10.187,1.994-15.466c-0.855-4.566-6.191-25.486-15.107-16.629c-3.004,2.984-2.334,10.525-2.135,14.371            C86.62,216.075,87.926,221.592,90.933,226.264z"/>
									</g>
								</g>
							</g>
						</g>
					</g>
					<g>
						<g>
							<g>
								<g>
									<path style="fill:#E36352;" d="M393.211,288.786c-0.038,9.672-3.84,20.133-9.566,30.422           c-10.211,2.349-25.359,16.999-40.659,20.337c-16.8,3.665-33.806-3.979-45.158-1.541           c-5.072-8.402-9.749-17.333-13.127-26.139c18.796-3.164,34.486-14.279,53.126-18.27           C355.357,289.842,375.848,293.26,393.211,288.786z"/>
								</g>
							</g>
						</g>
						<g>
							<g>
								<g>
									<path style="fill:#F8BDFF;" d="M393.211,288.786c-35.821,9.229-72.036,16.938-108.511,23.078           c-6.689-17.42-8.277-34.329,2.262-45.541c20.672-21.991,47.177,21.125,47.177,21.125s37.101-43.154,54.549-15.235           C391.863,277.305,393.24,282.897,393.211,288.786z"/>
								</g>
							</g>
						</g>
						<g>
							<g>
								<g>
									<path style="fill:#FFC063;" d="M383.644,319.208c-6.284,11.279-14.869,22.357-23.348,31.961l-21.243,12.21l-25.049-1.518           c-5.13-6.852-10.866-15.062-16.178-23.858C319.519,333.346,362.221,324.136,383.644,319.208z"/>
								</g>
							</g>
						</g>
						<g>
							<g>
								<g>
									<path style="fill:#FFC063;" d="M396.55,315.955c0,0.009,0,0.009-0.01,0.019C396.55,315.926,396.55,315.917,396.55,315.955z           "/>
								</g>
							</g>
						</g>
						<g>
							<g>
								<g>
									<path style="fill:#B5E1E8;" d="M360.296,351.17c-15.475,17.535-30.576,30.152-30.576,30.152s-6.968-7.757-15.716-19.46           L360.296,351.17z"/>
								</g>
							</g>
						</g>
					</g>
				</g>
				<g>
					<g>
						<g>
							<g>
								<path style="fill:#F7EDE5;" d="M57.667,181.446c-0.077,0.751-0.702,1.299-1.434,1.299c-0.048,0-0.106,0-0.154-0.01          l-32.443-3.388c0.154-0.471,0.308-0.934,0.471-1.405c0.164-0.462,0.318-0.933,0.491-1.395l31.779,3.32          C57.177,179.945,57.744,180.657,57.667,181.446z"/>
							</g>
						</g>
					</g>
					<g>
						<g>
							<g>
								<path style="fill:#F7EDE5;" d="M58.957,203.293l-45.349,17.237c0.087-0.549,0.173-1.087,0.26-1.636          c0.087-0.549,0.183-1.107,0.269-1.655l43.789-16.65c0.741-0.279,1.578,0.096,1.867,0.837          C60.073,202.176,59.698,203.004,58.957,203.293z"/>
							</g>
						</g>
					</g>
					<g>
						<g>
							<g>
								<path style="fill:#F7EDE5;" d="M67.32,232.646l-56.349,35.696c-0.038-0.558-0.058-1.116-0.077-1.675          c-0.019-0.558-0.038-1.116-0.038-1.675l54.924-34.781c0.674-0.433,1.559-0.231,1.992,0.443          C68.196,231.328,67.994,232.223,67.32,232.646z"/>
							</g>
						</g>
					</g>
					<g>
						<g>
							<g>
								<path style="fill:#F7EDE5;" d="M76.434,258.227l-58.101,60.776c-0.144-0.549-0.289-1.097-0.424-1.655          c-0.135-0.558-0.269-1.107-0.395-1.665l56.84-59.448c0.549-0.577,1.463-0.597,2.04-0.048          C76.973,256.735,76.992,257.65,76.434,258.227z"/>
							</g>
						</g>
					</g>
				</g>
			</g>
		</g>
	</g>
</g>
<g>
</g>
<g>
</g>
<g>
</g>
<g>
</g>
<g>
</g>
<g>
</g>
<g>
</g>
<g>
</g>
<g>
</g>
<g>
</g>
<g>
</g>
<g>
</g>
<g>
</g>
<g>
</g>
<g>
</g>
</svg>
