<?xml version="1.0" encoding="UTF-8"?>
<!-- Generator: Adobe Illustrator 25.2.0, SVG Export Plug-In . SVG Version: 6.00 Build 0)  -->
<svg xmlns="http://www.w3.org/2000/svg" xmlns:xlink="http://www.w3.org/1999/xlink" version="1.1" id="Capa_1" x="0px" y="0px" viewBox="0 0 500 500" style="enable-background:new 0 0 500 500;" xml:space="preserve" width="512" height="512">
<g>
	<path d="M203.359,238.806c10.713,0.701,19.466,5.736,27.672,11.812c9.028,6.685,16.328,14.926,21.383,25.077   c5.315,10.673,8.196,21.908,8.702,33.832c0.78,18.36-5.869,33.726-18.448,46.752c-8.005,8.289-17.872,13.719-28.498,17.791   c-17.217,6.597-34.94,11.458-53.017,15.079c-9.009,1.805-18.017,3.546-27.219,3.983c-1.497,0.071-3.012,0.043-4.503-0.106   c-1.456-0.145-2.526-0.958-2.921-2.442c-0.449-1.689-1.04-3.367-1.244-5.088c-0.595-5.031-1.087-10.076-1.504-15.125   c-0.25-3.023,0.578-4.233,3.472-5.119c4.401-1.348,8.843-2.564,13.336-3.856c-3.504-61.474-7.022-123.191-10.53-184.729   c-4.259,0.178-8.303,0.4-12.35,0.499c-2.99,0.074-4.037-0.789-4.39-3.743c-1.009-8.464-2.086-16.927-1.576-25.491   c0.088-1.468,0.626-2.612,1.746-3.501c0.706-0.56,1.399-1.172,2.189-1.587c8.478-4.462,17.366-7.895,26.783-9.659   c11.079-2.076,22.207-1.717,33.176,0.817c8.705,2.011,17.257,4.562,24.781,9.703c4.144,2.831,7.824,6.18,10.849,10.134   c8.469,11.068,14.062,23.337,14.725,37.48c0.394,8.409-1.191,16.432-4.8,24.094c-4.193,8.901-9.867,16.619-17.437,22.924   C203.633,238.425,203.559,238.556,203.359,238.806z M175.613,361.097c0.41-0.066,0.748-0.095,1.074-0.175   c15.425-3.776,26.929-12.776,34.748-26.467c5.656-9.904,7.054-20.773,6.495-31.984c-0.372-7.472-2.584-14.376-6.624-20.671   c-4.526-7.053-10.969-10.874-19.382-11.098c-6.91-0.183-13.678,0.98-20.41,2.43c-1.596,0.344-2.069,1.04-1.896,2.671   c0.812,7.68,1.499,15.374,2.245,23.061c1.736,17.882,2.854,35.801,3.293,53.763C175.225,355.422,175.454,358.214,175.613,361.097z    M167.437,225.87c4.46-0.79,8.774-1.987,12.253-4.774c10.839-8.682,15.481-19.89,12.444-33.669   c-2.551-11.576-12.853-20.826-27.186-16.631c-1.18,0.346-1.525,0.794-1.395,2.082c0.629,6.232,1.208,12.472,1.637,18.721   c0.766,11.149,1.412,22.307,2.112,33.461C167.316,225.296,167.379,225.529,167.437,225.87z"/>
	<path d="M342.496,336.275c4.431-0.462,8.661-1.011,12.907-1.32c5.635-0.41,7.018,0.744,7.621,6.303   c0.313,2.885,0.509,5.808,0.434,8.705c-0.109,4.238-1.682,6.008-5.866,6.35c-12.651,1.036-25.315,1.912-37.974,2.848   c-5.204,0.385-10.405,0.825-15.615,1.112c-1.785,0.098-3.618-0.035-5.381-0.343c-2.541-0.445-4.207-2.086-4.913-4.555   c-1.345-4.711-1.187-9.538-0.84-14.348c0.134-1.862,1.249-3.135,3.187-3.517c5.115-1.008,10.222-2.06,15.351-2.992   c1.058-0.192,1.47-0.532,1.429-1.601c-0.229-5.865-0.363-11.735-0.64-17.598c-0.327-6.914-0.763-13.823-1.169-20.733   c-0.023-0.386-0.184-0.773-0.325-1.142c-17.328-45.602-34.672-91.197-51.966-136.811c-1.382-3.644-2.414-7.421-3.584-11.059   c-4.512,1.005-9.144,2.083-13.799,3.048c-1.462,0.303-2.984,0.392-4.482,0.423c-1.43,0.031-2.581-0.651-2.986-2.078   c-1.724-6.072-3.47-12.139-5.035-18.253c-0.675-2.637,0.685-3.947,3.328-4.366c4.253-0.674,8.45-1.692,12.687-2.476   c11.14-2.062,22.288-4.081,33.437-6.099c0.984-0.178,2.023-0.416,2.978-0.263c0.718,0.115,1.612,0.662,1.958,1.28   c0.926,1.653,1.713,3.408,2.357,5.193c10.856,30.092,21.718,60.182,32.495,90.302c3.446,9.631,6.649,19.349,9.966,29.026   c0.061,0.179,0.165,0.344,0.419,0.859c0.638-3.182,1.173-6.042,1.788-8.884c4.459-20.626,8.783-41.278,14.097-61.713   c5.071-19.504,9.777-39.102,14.653-58.656c0.242-0.971,0.607-1.911,0.873-2.877c0.742-2.692,2.446-4.088,5.28-4.271   c4.806-0.31,9.602-0.782,14.406-1.118c7.558-0.529,15.12-1.003,22.68-1.496c4.214-0.275,5.91,1.216,5.754,5.457   c-0.223,6.066-0.607,12.127-1.01,18.184c-0.191,2.875-1.367,4.108-4.257,4.592c-5.498,0.922-11.017,1.644-16.728,1.092   c-0.831,3.16-1.629,6.249-2.457,9.329c-13.038,48.522-26.478,96.929-41.367,144.923c-0.475,1.531-1.007,3.044-1.483,4.575   c-0.132,0.423-0.231,0.881-0.221,1.32c0.172,7.12,0.25,14.245,0.583,21.357C341.414,321.436,342.011,328.876,342.496,336.275z"/>
	<g>
		<path d="M459.448,233.438c-10.407-0.71-23.052-1.675-35.479-4.448c-2.003-0.447-4.004-0.959-5.942-1.628    c-2.028-0.7-2.105-2.135-0.552-3.561c5.974-5.489,13.431-8.32,20.663-11.48c11.097-4.849,22.527-8.744,34.547-10.647    c6.21-0.983,12.293-0.859,18.046,2.142c3.528,1.84,6.357,4.358,8.054,8.015c2.128,4.586,1.43,8.789-1.834,12.579    c-2.978,3.459-6.981,5.167-11.264,6.258C477.826,232.671,469.837,233.694,459.448,233.438z"/>
		<path d="M484.134,306.065c-7.797-0.349-14.692-2.399-21.288-5.481c-9.824-4.589-18.686-10.743-27.353-17.178    c-6.444-4.784-12.813-9.671-19.131-14.619c-1.8-1.41-3.376-3.132-4.903-4.846c-0.441-0.495-0.703-1.66-0.42-2.168    c0.398-0.715,1.363-1.513,2.119-1.549c1.727-0.082,3.521,0.089,5.208,0.491c8.343,1.989,16.675,4.029,24.984,6.16    c10.256,2.629,20.445,5.492,30.261,9.528c5.406,2.223,10.622,4.77,15.025,8.716c2.54,2.277,4.634,4.862,5.639,8.201    c1.774,5.898-1.287,11.123-7.316,12.397C485.885,305.944,484.774,305.989,484.134,306.065z"/>
		<path d="M484.038,139.095c-0.125,2.892-1.45,5.902-3.453,8.604c-4.934,6.656-11.189,11.928-18.066,16.41    c-13.832,9.015-28.634,16.152-44.027,22.08c-1.4,0.539-2.835,1.043-4.3,1.335c-0.725,0.145-1.862,0.028-2.249-0.439    c-0.383-0.461-0.362-1.712,0.007-2.27c2.124-3.222,4.293-6.426,6.65-9.479c10.405-13.483,22.387-25.444,35.515-36.257    c5.035-4.147,10.546-7.551,17.105-8.734c1.799-0.324,3.71-0.409,5.523-0.199C481.389,130.682,484.063,133.883,484.038,139.095z"/>
	</g>
	<g>
		<path d="M58.488,274.982c5.265-0.04,10.639,0.042,15.932,0.429c2.701,0.197,5.421,0.43,8.097,0.854    c1.304,0.206,4.597,1.415,3.408,3.266c-0.024,0.036-0.048,0.072-0.071,0.108c-1.292,1.824-3.393,3.357-5.105,4.766    c-1.886,1.552-3.856,3.001-5.88,4.368c-4.055,2.74-8.32,5.153-12.63,7.466c-0.172,0.092-0.344,0.184-0.516,0.276    c-6.782,3.624-13.71,6.903-20.948,9.521c-1.529,0.553-3.067,1.078-4.616,1.574c-3.648,1.168-7.489,1.881-11.296,2.368    c-4.263,0.545-8.461-0.338-12.206-2.446c-2.096-1.179-4.131-2.736-5.683-4.558c-4.115-4.829-3.895-10.625,0.239-15.458    c2.203-2.575,4.982-4.346,8.075-5.622c8.549-3.525,17.436-5.703,26.666-6.3C47.456,275.238,52.972,275.024,58.488,274.982z"/>
		<path d="M12.856,206.032c9.442,0.178,17.643,2.476,25.597,5.858c11.614,4.938,22.423,11.379,33.263,17.761    c3.584,2.11,7.138,4.279,10.626,6.543c1.543,1.001,2.944,2.245,4.31,3.488c1.404,1.278,0.856,3.348-1.049,3.873    c-1.043,0.287-2.202,0.421-3.272,0.299c-20.271-2.312-40.593-4.327-60.346-9.812c-4.898-1.36-9.61-3.203-13.86-6.063    c-3.483-2.344-6.435-5.154-7.681-9.327c-1.759-5.893,1.83-11.183,8.347-12.272C10.367,206.115,11.983,206.102,12.856,206.032z"/>
		<path d="M37.822,380.038c-4.837-0.108-9.049-2.982-8.905-8.828c0.088-3.574,1.454-6.737,3.351-9.687    c4.273-6.646,9.647-12.33,15.726-17.311c12.377-10.142,25.831-18.674,39.946-26.177c1.589-0.844,3.232-1.619,4.922-2.224    c0.636-0.228,1.872-0.14,2.133,0.261c0.398,0.612,0.509,1.783,0.181,2.433c-1.718,3.399-3.498,6.778-5.467,10.036    C81.09,342.8,70.725,356.305,58.99,368.146c-1.26,1.271-2.558,2.505-3.914,3.675c-3.751,3.236-7.988,5.998-12.7,7.53    C40.872,379.84,39.317,380.071,37.822,380.038z"/>
	</g>
	<g>
		<path d="M60.01,169.61c0.575-10.935,3.291-21.381,7.422-31.475c8.98-21.938,22.953-40.276,40.701-55.8    c27.22-23.807,58.829-38.336,94.479-44.065c27.13-4.36,53.911-2.906,80.201,5.435c14.419,4.574,27.769,11.277,40.007,20.172    c1.538,1.118,3.002,2.356,4.387,3.658c1.399,1.316,1.591,2.991,0.681,4.187c-0.948,1.247-2.608,1.399-4.341,0.352    c-0.858-0.518-1.699-1.073-2.502-1.672c-17.729-13.244-37.736-21.057-59.401-24.911c-54.149-9.632-115.049,8.642-154.962,46.537    c-21.909,20.802-36.374,45.809-42.45,75.525c-0.381,1.864-0.791,3.734-1.38,5.539c-0.03,0.091-0.071,0.177-0.122,0.261    c-0.572,0.945-2.039,0.794-2.524-0.198c-0.063-0.129-0.112-0.261-0.142-0.397C59.846,171.753,60.01,170.664,60.01,169.61z"/>
		<path d="M206.482,26.678c-34.702,0.961-66.319,11.545-94.952,30.947c-22.888,15.509-41.088,35.29-53.148,60.411    c-4.891,10.187-8.083,20.929-10.68,31.879c-0.265,1.117-0.571,2.254-1.08,3.271c-0.042,0.084-0.094,0.163-0.153,0.238    c-0.643,0.813-1.992,0.693-2.494-0.214c-0.084-0.151-0.139-0.305-0.149-0.461c-0.121-1.84-0.111-3.719,0.122-5.548    c1.53-11.975,5.487-23.204,10.852-33.941c11.432-22.878,27.784-41.631,48.28-56.803c30.974-22.929,65.748-34.902,104.291-35.809    c3.352-0.079,6.721,0.147,10.065,0.431c0.935,0.079,2.082,0.657,2.658,1.381c1.397,1.759-0.1,4.103-2.626,4.17    c-3.058,0.081-6.12,0.037-9.18,0.046C207.686,26.68,207.084,26.678,206.482,26.678z"/>
	</g>
	<g>
		<path d="M275.94,464.1c-23.697-0.083-48.519-5.139-71.625-17.235c-6.201-3.246-11.984-7.3-17.894-11.083    c-1.506-0.963-2.836-2.239-4.118-3.503c-1.287-1.27-1.378-2.941-0.437-4.081c0.91-1.101,2.457-1.31,3.975-0.44    c0.999,0.572,1.961,1.221,2.885,1.91c17.225,12.856,36.634,20.593,57.645,24.54c54.651,10.267,116.23-7.893,156.601-46.202    c21.915-20.796,36.387-45.8,42.472-75.513c0.372-1.816,0.798-3.624,1.29-5.411c0.233-0.847,0.587-2.037,1.689-1.674    c0.588,0.194,1.255,1.386,1.206,2.08c-0.334,4.742-0.472,9.544-1.37,14.193c-3.932,20.346-13.257,38.223-26.067,54.278    c-21.976,27.542-50.103,46.419-83.279,57.881C318.897,460.755,298.408,464.086,275.94,464.1z"/>
		<path d="M303.228,473.319c52.112-0.934,104.757-27.957,134.959-69.287c11.381-15.575,18.95-32.858,23.219-51.633    c0.41-1.804,0.896-3.606,1.56-5.327c0.036-0.094,0.085-0.183,0.143-0.269c0.656-0.965,2.233-0.776,2.682,0.301    c0.066,0.157,0.101,0.313,0.092,0.465c-0.215,3.592-0.353,7.23-1.061,10.743c-3.33,16.519-10.355,31.484-19.81,45.323    c-20.243,29.629-47.609,50.284-80.782,63.427c-19.868,7.872-40.538,12.022-61.937,12.296c-3.266,0.042-6.547-0.119-9.8-0.425    c-0.743-0.07-1.473-0.307-2.088-0.732c-2.661-1.839-1.022-4.767,1.837-4.831c3.31-0.075,6.622-0.04,9.933-0.052    C302.525,473.318,302.876,473.319,303.228,473.319z"/>
	</g>
	<g>
		<path d="M415.085,122.197c-0.183,4.61-0.274,9.225-0.584,13.827c-0.181,2.682-1.281,3.923-3.947,4.385    c-3.302,0.573-6.658,0.83-9.991,1.219c-1.593,0.186-3.199,0.297-4.773,0.585c-0.452,0.083-1.102,0.618-1.171,1.028    c-2.252,13.423-7.788,25.91-11.126,39.006c-7.715,30.269-17.015,60.073-25.911,89.997c-2.412,8.116-4.906,16.218-6.945,24.43    c-0.755,3.042-0.421,6.382-0.393,9.585c0.061,7.072,0.253,14.143,0.364,21.216c0.013,0.846,0.01,1.752-0.273,2.524    c-0.043,0.117-0.102,0.227-0.175,0.333c-0.587,0.862-1.964,0.895-2.518,0.012c-0.047-0.075-0.084-0.152-0.109-0.233    c-0.318-1.032-0.35-2.171-0.382-3.269c-0.234-7.972-0.437-15.946-0.654-23.919c-0.161-5.932,1.716-11.481,3.349-17.046    c4.641-15.819,9.444-31.591,14.126-47.398c4.283-14.459,8.859-28.846,12.458-43.484c3.048-12.396,6.856-24.584,10.842-36.711    c1.582-4.812,2.465-9.848,3.675-14.781c0.853-3.476,1.409-3.96,4.897-4.407c4.424-0.568,8.855-1.086,13.268-1.73    c2.229-0.325,2.483-0.766,2.586-2.947c0-1.038,0.099-2.086,0.148-3.123c0.05-1.051,0.1-2.103,0.151-3.154    c0.101-2.103,0.203-4.205,0.305-6.308c0.102-2.103,0.204-4.205,0.306-6.308c0.051-1.051,0.102-2.103,0.153-3.154    c0.031-0.634,0.06-1.269,0.087-1.903c0.023-0.531-0.033-1.158,0.302-1.611c0.219-0.305,0.618-0.426,0.98-0.436    c0.493-0.013,0.973,0.239,1.167,0.706c0.194,0.481,0.093,1.088,0.094,1.639C415.397,114.576,415.188,122.197,415.085,122.197z"/>
		<path d="M372.577,339.495c-0.946,6.522-1.819,12.437-2.653,18.489c-0.156,1.131-0.256,2.27-0.365,3.407    c-0.277,2.901-1.153,3.846-3.972,3.977c-16.99,0.788-33.983,1.517-50.969,2.383c-4.146,0.211-8.272,0.84-12.403,1.319    c-0.973,0.113-2.048,0.401-2.432-0.784c-0.415-1.281,0.678-1.732,1.611-2.14c3.746-1.64,7.759-2.077,11.759-2.264    c10.626-0.499,21.259-0.809,31.889-1.217c6.318-0.242,12.634-0.551,18.952-0.768c1.162-0.04,1.547-0.367,1.726-1.598    c0.962-6.637,2.059-13.254,3.13-19.875c0.098-0.607,0.344-1.578,0.55-2.158c0.339-0.954,0.857-1.997,2.015-1.532    c0.243,0.098,0.447,0.293,0.624,0.521C372.526,337.882,372.691,338.709,372.577,339.495z"/>
		<path d="M327.435,221.304c-0.02,0.463-0.604,1.037-1.031,1.125c-0.432,0.089-1.187-0.283-1.442-0.682    c-0.531-0.833-0.904-1.792-1.206-2.743c-3.16-9.933-6.176-19.914-9.459-29.805c-5.116-15.414-10.432-30.762-15.617-46.153    c-2.368-7.03-4.633-14.094-6.926-21.149c-0.231-0.711-0.445-1.464-0.453-2.199c-0.005-0.511,0.036-1.351,0.552-1.54    c0.519-0.19,1.111,0.423,1.419,0.824c0.447,0.581,0.725,1.317,0.968,2.024c7.811,22.706,15.695,45.386,23.368,68.138    c3.251,9.64,6.059,19.429,9.056,29.154C326.944,219.203,327.492,219.995,327.435,221.304z"/>
	</g>
	<g>
		<path d="M270.454,306.765c-0.464,15.256-1.906,27.667-7.215,39.303c-5.44,11.923-13.165,22.059-24.204,29.314    c-8.851,5.817-18.58,9.77-28.708,12.877c-14.668,4.498-29.69,7.263-44.819,9.455c-6.729,0.975-13.575,1.144-20.368,1.672    c-0.298,0.023-0.622,0.046-0.896-0.046c-0.286-0.097-0.736-0.198-0.785-0.507c-0.051-0.319,0.351-0.66,0.604-0.738    c1.094-0.339,2.206-0.647,3.333-0.851c14.547-2.624,29.186-4.822,43.615-7.979c9.953-2.177,19.733-5.339,29.378-8.675    c10.003-3.461,19.019-8.933,26.38-16.622c8.228-8.594,13.804-18.82,16.649-30.401c3.512-14.293,4.542-28.784,1.557-43.256    c-2.066-10.013-5.951-19.382-11.96-27.849c-5.419-7.636-12.141-13.851-19.452-19.545c-0.752-0.586-2.244-1.151-1.37-2.391    c0.838-1.189,2.127-0.446,3.09,0.184c5.814,3.806,11.199,8.102,15.748,13.419c8.868,10.363,14.673,22.275,17.405,35.55    C269.763,296.126,270.009,302.795,270.454,306.765z"/>
		<path d="M234.121,194.197c-0.049,9.648-2.453,19.804-6.696,28.471c-2.687,5.489-6.472,10.532-11.456,14.069    c-0.294,0.209-0.622,0.421-0.982,0.4c-0.681-0.04-1.034-0.929-0.799-1.57c0.764-2.086,3.827-4.369,5.229-6.157    c1.771-2.26,3.348-4.663,4.555-7.273c2.55-5.514,4.629-11.7,5.817-17.664c2.184-10.972,0.548-21.568-4.007-31.71    c-1.991-4.432-4.277-8.731-6.425-13.093c-0.221-0.449-0.481-0.894-0.605-1.372c-0.31-1.198,0.518-2.049,1.571-1.448    c1.126,0.643,2.238,1.574,2.943,2.65c3.84,5.861,6.788,12.157,8.695,18.914C233.469,183.756,234.147,189.008,234.121,194.197z"/>
		<path d="M189.64,274.057c3.626,0.02,7.253,0.807,10.539,2.347c0.088,0.041,0.176,0.083,0.263,0.127    c1.407,0.7,0.399,2.826-1.05,2.215c-0.656-0.277-1.322-0.611-1.915-0.725c-1.623-0.312-3.283-0.543-4.934-0.64    c-3.609-0.211-7.232,0.244-10.696,1.268c-1.146,0.339-1.604,0.758-1.416,2.079c2.575,18.104,3.134,36.359,4.036,54.589    c0.213,4.307,0.518,8.611,0.728,12.918c0.054,1.094,0.041,2.23-0.209,3.283c-0.127,0.533-0.802,1.198-1.319,1.288    c-0.369,0.064-1.174-0.663-1.286-1.152c-0.359-1.555-0.587-3.158-0.685-4.753c-0.743-12.114-1.338-24.237-2.188-36.344    c-0.687-9.803-1.653-19.588-2.517-29.379c-0.174-1.967-0.278-3.934,1.727-4.911c3.11-1.517,7.093-2.176,10.536-2.209    C189.384,274.057,189.512,274.056,189.64,274.057z"/>
		<path d="M171.461,177.443c0.24,2.58,0.458,4.96,0.684,7.34c0.676,7.133,1.36,14.265,2.031,21.398    c0.268,2.843,0.57,5.686,0.738,8.535c0.071,1.202,0.644,3.06-1.176,3.206c-1.804,0.145-1.569-1.808-1.701-2.985    c-0.569-5.076-0.999-10.169-1.508-15.252c-0.734-7.327-1.474-14.653-2.252-21.976c-0.273-2.566,0.614-3.756,3.154-3.392    c1.404,0.202,2.793,0.498,4.17,0.839c1.197,0.296,2.399,0.583,3.56,1.005c1.011,0.367,2.427,0.831,2.964,1.85    c0.443,0.841-0.403,1.819-1.294,1.668c-0.036-0.006-0.071-0.013-0.106-0.022c-2.616-0.644-5.21-1.376-7.817-2.056    C172.529,177.501,172.121,177.511,171.461,177.443z"/>
	</g>
</g>















</svg>
