<svg id="Layer_1" enable-background="new 0 0 512 512" viewBox="0 0 512 512" xmlns="http://www.w3.org/2000/svg"><g fill="#3981bf"><path d="m254.5 164c-.2.5-.4 1.3-.7 2-4.5 11.6-9.1 23.1-13.6 34.7-1 2.6-2.7 3.6-4.7 2.8-1.9-.8-2.4-2.6-1.4-5.1 4.6-11.7 9.2-23.4 13.8-35.2.7-1.8 1.8-3.1 4-2.7 1.6.3 2.5 1.5 2.6 3.5z"/><path d="m208.6 200.3c-2.6 0-4.1-2.3-3.2-4.8 2.3-6.1 4.8-12.2 7.2-18.3 2.1-5.3 4.1-10.5 6.2-15.7.9-2.3 3-3.1 4.8-2 1.6 1 2 2.4 1.4 4.2-4.5 11.4-9 22.9-13.5 34.3-.6 1.3-1.6 2.1-2.9 2.3z"/><path d="m227.5 202.7c-.2.5-.3 1.2-.6 1.8-3.3 8.6-6.7 17.1-10.1 25.7-.9 2.3-2.6 3.2-4.5 2.6-1.9-.7-2.6-2.5-1.7-4.8 3.4-8.8 6.9-17.6 10.3-26.3.7-1.9 2-2.7 4-2.3 1.8.3 2.5 1.5 2.6 3.3z"/><path d="m202.7 221.4c-.2.5-.4 1.3-.7 2-2.9 7.5-5.9 15-8.8 22.4-1 2.5-2.6 3.5-4.5 2.8-2.1-.7-2.7-2.5-1.6-5.2 3-7.7 6-15.4 9-23.1.7-1.9 2-2.9 4.1-2.4 1.7.4 2.4 1.6 2.5 3.5z"/><path d="m167.9 222.9c-2.1-.1-3.8-2.1-3-4.2 2.5-6.8 5.2-13.6 7.9-20.3.7-1.7 2.3-2.3 4.1-1.6 1.7.6 2.5 2.4 1.8 4.4-1.2 3.4-2.6 6.8-4 10.1-1.2 3-2.4 6-3.6 9.1-.5 1.5-1.6 2.4-3.2 2.5z"/><path d="m226.8 187.3c-2.2 0-3.9-2-3.2-4.1 2.5-6.8 5.2-13.5 7.9-20.2.7-1.7 2.8-2.4 4.3-1.6 1.6.8 2.4 2.3 1.8 4-2.6 6.7-5.2 13.4-7.9 20-.5 1.3-1.6 1.9-2.9 1.9z"/><path d="m194.1 160.6c-.1.5-.3 1.1-.5 1.7-2.3 5.8-4.5 11.5-6.8 17.2-1 2.4-2.7 3.3-4.6 2.5-1.8-.7-2.4-2.6-1.5-4.9 2.3-5.8 4.6-11.6 6.8-17.5.7-1.7 1.9-2.7 3.7-2.4s2.7 1.6 2.9 3.4z"/><path d="m188.6 209.5c-2.2 0-3.6-2.3-2.7-4.9 1.4-3.8 2.9-7.5 4.4-11.2.8-1.9 1.5-3.9 2.3-5.8.9-2 2.7-2.9 4.5-2.1 1.7.7 2.4 2.4 1.7 4.5-2.2 5.8-4.5 11.5-6.8 17.3-.6 1.4-1.6 2.2-3.4 2.2z"/><path d="m210.5 157.8c-.1.3-.2.9-.4 1.4-2 5.2-4 10.3-6.1 15.5-1.1 2.7-2.7 3.6-4.7 2.7-1.9-.8-2.4-2.6-1.4-5.1 2-5.2 4.1-10.5 6.2-15.7.7-1.8 2-2.7 4-2.3 1.6.3 2.4 1.5 2.4 3.5z"/></g><path d="m201 317c-8.9-10.9-15.8-12.2-32.7-6.3 0-4.8.8-9.4 2-13.9 7.6-28.5 25.5-48.5 51.2-62 7.3-3.8 15-6.7 23.2-8 1.2-.2 1.7-.7 1.9-1.9.8-3.9 1.6-7.9 2.5-11.8.9-4 2.9-6 5.4-6 2.6 0 4.5 2.1 5.4 6 .9 3.8 1.7 7.6 2.4 11.3.2 1.1.6 1.6 1.7 1.8 14.5 2.5 27.1 9.1 38.4 18.1 11 8.8 20.5 19.1 27.9 31.2 5.6 9.2 8.6 19.3 9.4 30.1.1 2.1.7 4.1.3 6.2-.7.3-1-.3-1.4-.5-9.3-5.9-21.6-4.7-29.7 2.9-.6.5-.9 1.4-1.9.3-7.8-8.1-18-9.9-28.3-4.9-2.3 1.1-4.6 2.3-6.3 4.2-.9 1-1.3.7-2.1-.2-2.3-2.6-5.1-4.8-8.6-5.7-3.1-.9-3.5-.5-3.5 2.5v58.8 9.3c0 2.5-.3 5.1 1.3 7.4.3.5.4 1.2.5 1.8.9 11.7 1.5 23.3-.2 35-.8 5.3-2.5 10.4-5.4 15-8.2 13.1-25.3 13.8-34.5 1.5-4.3-5.8-6.2-12.4-6.7-19.5-.3-4.1 2.9-7.5 6.9-7.9 4.2-.4 7.7 2.4 8.4 6.6.4 2.8.7 5.5 1.8 8.1.7 1.5 1.4 2.9 2.6 4.1 2.6 2.7 5.9 2.5 8.1-.6 2.4-3.5 3.5-7.6 3.9-11.8.8-8.6.7-17.2 0-25.8-.3-3.6-.6-7.2 2.6-9.9.6-.5.4-1.3.4-2 0-23.6 0-47.2 0-70.9 0-1.7-.3-2.2-2.1-1.5-2.8 1.1-5.1 2.9-7.1 5.1-1 1.2-1.5 1.2-2.6.2-4.8-4.7-10.7-6.7-17.3-6.8-7.2-.2-12.8 3-16.9 8.9-.3.6-.6 1-.9 1.5z" fill="#fab03c"/><path d="m296.5 114.2c7.2-3.5 14.6-3.4 20.2 1.6 5.8 5.1 10.5 11.7 9.8 20.4-.5 5.9-.5 5.9 5.3 5.6 2.9-.2 5.8 0 8.4 1.1 3.9 1.7 6 5.2 7.5 9 3.5 9.1-3.5 16.2-11.3 17-2.4.2-4.7.5-7.1.4-42.4 0-84.8 0-127.3-.1-3 0-5.7 1.6-8.7 1-4.7-.8-9.8-.9-13.8-3.6-4.2-3-9.3-5.6-10.7-11.3-.2-.7-.5-1.5-1-2.1-4.3-5.2-4.4-11.6-4.7-17.8-.3-6.1 1.9-11.9 5.3-17.1 3-4.5 5.9-9.3 10.3-12.5 4.3-3.2 9.4-4.2 14.7-2.8 3.1.8 3 .9 3.5-2.3 1.2-7.4 5.3-13.2 10.6-18.1 4.8-4.4 10-8.5 15.7-11.9 5.5-3.3 11.4-5 17.4-6 7.2-1.2 14.7-1.3 21.5 1.6 12.9 5.5 24.1 13.4 30.3 26.6 2.8 5.9 3.6 12.3 3.7 18.8.2.8 0 1.6.4 2.5z" fill="#a9b5b4"/><path d="m307.2 303.5c-6.7-23.9-18-45.4-33.3-64.9-2.8-3.5-6-6.7-9.3-9.7-1.2-1.1-2.1-1.9-2.2-4.1-.3-4.8-1.4-9.7-3.1-14.4-.8-2.2-2.5-3.5-4.7-3.6-2.3 0-3.9 1.4-4.8 3.7-1.4 3.7-1.8 7.6-2.8 11.4-.5 1.8-.1 3.9-1.9 5.2-6.2 4.6-11.6 10.1-16.6 15.9-16.9 19.7-26.8 42.5-29.9 68.3-.3 2.5.7 4.2 2.3 6 1.7-3 3.7-5.3 6.4-7.1 8-5.4 20.1-4.1 28.1 3.1.6.5 1.1 1.9 2.1 1.2 1-.6 1.5-1.6 1.4-2.9-1.1-12.3-.3-24.4 1.6-36.6 1.9-12.6 4-25.1 9.3-36.8 1.2-2.6 2.3-5.2 3.9-7.6.9.4 1 1.3 1.3 1.9 1.9 4.1 3.6 8.4 4.8 12.8 5.8 21.4 8.5 43.3 9 65.4 0 .5-.1.9 0 1.4.3 1.6 2.3 2.9 3.1 2.1 4.2-4 9.4-6.3 15.1-6.9 7.4-.8 14.2.6 19.3 6.7.4.5.6 1.7 1.6 1.2.9-.4 1.1-1.4.9-2.4-.2-3.1-.7-6.2-1.6-9.3z"/><path d="m252 306.7c-.7 0-1.4.2-2 .4-1.7.3-2.5 1.1-2.4 3.1.1 23.3.1 46.6.1 69.9v1.2c-.1 1 .3 1.4 1.3 1.2 3.1-.8 6.1-.3 9.4 1 0-1.1 0-1.9 0-2.8 0-22.7 0-45.4 0-68-.1-5.9-.5-6.3-6.4-6z"/><path d="m208.1 106.6c1.4.2 2.2-.6 2.5-1.9.2-.8.3-1.7.6-2.5 6.2-16.5 26.2-26.4 43-21.4 2.1.6 4.2 1.7 6.2 2.5 1.2.5 2.4.3 2.9-1 .6-1.4 0-2.4-1.3-3-5.4-2.6-11-4.2-17-4-19.2.3-32 11.2-38.2 26.1-.3.8-.6 1.6-.7 2.4-.1 1.5.6 2.6 2 2.8z"/><path d="m182.9 153.8c2.2-1.3.7-2.9-.1-4.4-7.8-14.1-1.7-27.6 13.9-30.7 1.3-.3 2.2-.9 2.1-2.3-.1-1.5-1.2-2.1-2.6-2-.4 0-.8.1-1.2.1-11.7 1.4-19.6 10.5-19.7 22.6 0 5.1 1.2 9.8 3.6 14.2.9 1.6 1.7 3.8 4 2.5z"/><path d="m191.4 263.5c-1.2 0-1.7.9-2.3 1.7-3.3 4.7-6.3 9.6-8.6 14.8-2.1 4.7-3.5 9.6-4.6 14.6-.3 1.4 0 2.5 1.5 2.9s2.3-.5 2.7-1.9c.1-.2.1-.5.2-.7 1.7-8.1 4.8-15.6 9.3-22.6 1.2-1.8 2.4-3.6 3.6-5.4.5-.8.7-1.6.2-2.4-.5-.6-1.2-1-2-1z"/><path d="m273.6 93.5c.6.7 1.5.7 2.4.3.8-.4 1.1-1 1.1-2 0-.2-.1-.5-.2-.8-1.9-2.6-4.2-4.9-7.1-6.5-.9-.5-1.8-.1-2.4.8-.6.8-.6 1.9.2 2.5 2 1.8 4.1 3.6 6 5.7z"/><path d="m202.6 256.2c-.1-1.7-2-2.7-3.4-1.5-1.3 1.1-2.5 2.4-3.4 3.7-1 1.5.2 3.3 1.9 3.2 1.4 0 5-4.1 4.9-5.4z"/><path d="m277.3 97.4c.2 2 1.4 3.8 2.9 5.1 1.2 1 3.1-.1 3.2-2-.6-1.7-1.4-3.7-3.1-4.9-1.3-.8-3.2.3-3 1.8z"/></svg>