<?xml version="1.0" encoding="UTF-8"?>
<!-- Generator: Adobe Illustrator 27.3.1, SVG Export Plug-In . SVG Version: 6.00 Build 0)  -->
<svg xmlns="http://www.w3.org/2000/svg" xmlns:xlink="http://www.w3.org/1999/xlink" version="1.1" id="Capa_1" x="0px" y="0px" viewBox="0 0 512 512" style="enable-background:new 0 0 512 512;" xml:space="preserve" width="512" height="512">
<g>
	<path style="fill:#FFFFFF;" d="M163.183,476.661c-25.143,0-50.01-6.738-71.913-19.485c-34.617-20.144-62.325-55.043-78.019-98.27   C-0.227,321.8-3.558,281.121,3.876,244.361c7.509-37.096,26.351-73.849,54.644-106.713c-1.719-3.872-3.014-7.827-3.871-11.837   c-4.324-20.293,3.067-42.006,18.391-54.04c9.032-7.097,20.382-10.85,32.815-10.85c7.611,0,15.467,1.418,22.887,4.075   c0.755-6.815,2.43-12.163,3.065-14.015c2.101-6.122,7.858-10.235,14.332-10.235h76.683c4.652-0.946,8.835-1.698,12.745-2.293   c3.959-0.621,8.145-1.168,12.372-1.613c9.373-0.996,19.218-1.502,29.249-1.502c19.283,0,38.866,1.819,58.23,5.408h77.431   c6.467,0,12.222,4.105,14.327,10.221c0.586,1.7,2.143,6.628,2.95,12.998c6.482-1.991,13.222-3.044,19.782-3.044   c12.431,0,23.781,3.751,32.826,10.846c15.345,12.073,22.721,33.792,18.371,54.057c-1.287,6.069-3.645,12.129-6.934,17.882   c4.403,8.559,8.002,17.498,10.734,26.678c0,0,0.046,0.157,0.068,0.236c1.227,4.133,2.279,8.294,3.128,12.367   c11.591,54.716-3.177,122.107-37.634,171.635c-26.382,37.922-61.778,61.881-99.666,67.465c-2.689,0.399-5.147,0.69-7.493,0.883   c-3.698,0.321-7.614,0.478-11.909,0.478h-0.471c-5.371,0-10.543-0.212-15.543-0.417c-4.903-0.2-9.533-0.39-14.142-0.39   c-6.511,0-11.782,0.395-16.589,1.238c-15.232,2.681-30.203,10.785-44.231,18.854c-2.139,1.231-4.276,2.476-6.416,3.724   c-3.28,1.911-6.566,3.825-9.864,5.689c-8.765,5.001-19.303,10.733-30.611,15.11C197.452,473.495,180.508,476.661,163.183,476.661z"/>
	<g>
		<g>
			<g>
				<path style="fill:#9DD1A9;" d="M434.684,97.632c25.858,19.121,46.149,44.576,55.887,77.286c0,0,0.021,0.014,0.007,0.035      c1.097,3.678,2.067,7.454,2.876,11.335c18.861,89.03-37.435,208.16-124.675,221.02c-2.157,0.32-4.343,0.592-6.529,0.772      c-3.705,0.319-7.396,0.435-11.095,0.425c-16.348,0.015-32.63-2.204-48.938,0.661c-17.205,3.026-33.237,11.481-49.164,20.644      c-5.375,3.092-10.763,6.295-16.18,9.358c-9.369,5.344-18.835,10.379-28.623,14.168c-36.475,14.147-76.633,9.891-109.173-9.046      c-32.54-18.937-57.441-51.904-71.398-90.347c-11.93-32.838-16.06-70.306-8.768-106.371      c8.058-39.805,29.562-76.006,55.984-105.157c35.773-39.425,80.902-66.986,128.331-80.984c11.503-3.402,23.146-6.012,34.81-7.788      c3.902-0.613,7.79-1.115,11.677-1.525c30.757-3.267,67.093-1.018,102.303,7.919C381.715,67.542,410.604,79.85,434.684,97.632z"/>
			</g>
			<g>
				<g>
					<g>
						<path style="fill:#302945;" d="M473.569,83.899c-14.468-11.35-35.104-8.621-49.137-0.871        c-10.799,5.962-19.627,14.835-27.4,23.915c-9.447-5.457-16.005-7.91-16.005-7.91s12.496,0.779,26.552-8.576        c14.055-9.378,5.457-34.348,5.457-34.348H146.327c0,0-8.575,24.97,5.457,34.348c14.055,9.355,26.552,8.576,26.552,8.576        s-7.566,2.82-18.137,9.171c-8.048-9.515-17.174-18.939-28.478-25.176c-14.055-7.75-34.691-10.479-49.137,0.871        c-10.891,8.553-16.073,24.213-12.932,38.956c2.774,12.978,11.625,25.222,24.259,33.568c4.035,2.66,8.415,4.953,13.184,6.902        c-0.757,1.49-1.49,3.004-2.201,4.563c-7.635,16.624-12.221,36.709-10.868,60.716c5.274,92.61,78.807,125.651,184.876,125.078        h1.559c69.819,0.367,125.536-13.803,156.971-49.962c16.326-18.756,26.093-43.45,27.904-75.115        c1.513-26.804-4.379-48.724-13.666-66.425c3.76-1.697,7.292-3.6,10.547-5.755c12.657-8.346,21.507-20.59,24.259-33.568        C489.642,108.112,484.437,92.451,473.569,83.899z M96.457,152.594c-11.671-7.704-19.787-18.893-22.31-30.679        c-2.798-13.092,1.72-26.918,11.258-34.393c12.817-10.066,31.39-7.498,44.092-0.482c10.456,5.778,19.1,14.606,26.758,23.617        c-14.766,9.447-33.82,25.13-46.981,48.609C104.619,157.386,100.332,155.162,96.457,152.594z M482.007,121.915        c-2.522,11.786-10.662,22.975-22.31,30.679c-3.164,2.087-6.581,3.921-10.249,5.549c-13.78-23.961-33.637-39.667-48.426-48.793        c7.383-8.575,15.683-16.83,25.612-22.31c12.726-7.016,31.298-9.584,44.115,0.482        C480.264,94.996,484.804,108.822,482.007,121.915z"/>
					</g>
					<g style="opacity:0.18;">
						<path style="fill:#DBB0FF;" d="M437.433,303.718c-31.436,36.159-87.153,50.329-156.971,49.962h-1.559        C172.833,354.254,99.3,321.213,94.026,228.603c-1.353-24.007,3.233-44.092,10.868-60.716        c8.277,17.976,16.761,36.044,28.684,51.842c12.198,16.119,28.455,29.877,47.876,35.425c22.677,6.489,49.16,1.972,68.191,15.89        c13.093,9.584,19.604,26.001,32.055,36.388c13.345,11.12,31.665,13.872,48.999,14.491        C367.018,323.231,403.59,316.902,437.433,303.718z"/>
					</g>
					<g>
						<g>
							<g>
								<g>
									<path style="fill:#DBB0FF;" d="M285.135,253.393c-24.647,0-44.699-20.053-44.699-44.7s20.052-44.699,44.699-44.699           s44.698,20.053,44.698,44.699S309.782,253.393,285.135,253.393z M285.135,166.287c-23.383,0-42.406,19.024-42.406,42.406           c0,23.382,19.023,42.406,42.406,42.406c23.382,0,42.405-19.024,42.405-42.406           C327.54,185.312,308.517,166.287,285.135,166.287z"/>
								</g>
							</g>
						</g>
						<g>
							<g>
								<g>
									<path style="fill:#DBB0FF;" d="M185.468,253.41c-4.999,0-9.891-0.821-14.541-2.441l-3.125-1.088l3.128-1.08           c17.099-5.889,28.588-22.011,28.588-40.113c0-18.075-11.489-34.174-28.588-40.061l-3.127-1.078l3.123-1.09           c4.646-1.62,9.539-2.444,14.541-2.444c24.659,0,44.722,20.04,44.722,44.672C230.19,233.348,210.127,253.41,185.468,253.41z            M174.813,249.758c3.453,0.903,7.024,1.359,10.655,1.359c23.395,0,42.428-19.034,42.428-42.428           c0-23.367-19.033-42.379-42.428-42.379c-3.634,0-7.205,0.456-10.656,1.361c16.281,7.009,27.001,23.091,27.001,41.017           C201.813,226.64,191.092,242.744,174.813,249.758z"/>
								</g>
							</g>
						</g>
						<g>
							<g>
								<g>
									<path style="fill:#DBB0FF;" d="M389.749,253.41c-24.66,0-44.723-20.062-44.723-44.722           c0-24.632,20.062-44.672,44.723-44.672c5.001,0,9.894,0.824,14.541,2.444l3.123,1.09l-3.127,1.078           c-17.099,5.887-28.588,21.986-28.588,40.061c0,18.102,11.489,34.223,28.588,40.113l3.128,1.08l-3.125,1.088           C399.64,252.589,394.748,253.41,389.749,253.41z M389.749,166.31c-23.395,0-42.429,19.012-42.429,42.379           c0,23.394,19.034,42.428,42.429,42.428c3.632,0,7.203-0.456,10.655-1.359c-16.279-7.014-27-23.118-27-41.069           c0-17.927,10.721-34.009,27.001-41.017C396.954,166.766,393.383,166.31,389.749,166.31z"/>
								</g>
							</g>
						</g>
					</g>
					<g>
						<g>
							<g>
								<path style="fill:#DBB0FF;" d="M151.791,60.005h254.462c0,0-43.711,16.392-121.377,17.172          C207.211,77.958,151.791,60.005,151.791,60.005z"/>
							</g>
						</g>
					</g>
				</g>
				<g>
					<g>
						<path style="fill:#F7EDE5;" d="M231.199,308.725c-2.528,42.186-57.372,104.631-57.372,104.631H95.867        c0,0-54.844-62.445-57.372-104.631c-2.528-42.186,47.672-50.63,47.672-50.63v-6.145l3.083-2.189l-3.083-2.076l-3.52-0.843        c-6.61-1.685-11.253-5.734-11.253-12.129v-0.066c0-6.395,5.189-11.567,11.567-11.567h103.772        c6.378,0,11.567,5.172,11.567,11.567v0.066c0,6.395-3.85,10.295-10.46,12.691l-4.312,1.272v9.419        C183.527,258.095,233.727,266.539,231.199,308.725z"/>
					</g>
					<g>
						<g>
							<path style="fill:#302945;" d="M78.43,226.873c0,0,13.782,11.25,55.409,10.688c41.627-0.562,55.971-10.969,55.971-10.969         L78.43,226.873z"/>
						</g>
						<g>
							<path style="fill:#302945;" d="M141.225,250.114l-55.058,1.768v-4.181C90.43,248.131,117.827,250.791,141.225,250.114z"/>
						</g>
					</g>
					<g>
						<g>
							<g>
								<g>
									<path style="fill:#DBB0FF;" d="M147.196,292.152l-0.275,0.145l0.136,0.275c1.697,3.435-1.159,7.364-4.95,6.809           l-0.307-0.045l-0.05,0.293c-0.643,3.78-5.266,5.282-8.008,2.602l-0.215-0.21l-0.215,0.21           c-2.742,2.679-7.365,1.177-8.008-2.602l-0.05-0.294l-0.307,0.045c-3.791,0.555-6.647-3.374-4.95-6.809l0.136-0.275           l-0.275-0.144c-3.392-1.781-3.392-6.636,0-8.417l0.275-0.144l-0.136-0.275c-1.697-3.435,1.159-7.364,4.95-6.809           l0.307,0.045l0.05-0.293c0.643-3.78,5.266-5.282,8.008-2.602l0.215,0.21l0.215-0.21c2.742-2.68,7.365-1.177,8.008,2.602           l0.05,0.293l0.307-0.045c3.791-0.555,6.647,3.374,4.95,6.809l-0.136,0.275l0.275,0.145           C150.587,285.516,150.587,290.371,147.196,292.152z"/>
								</g>
								<g>
									<path style="fill:#DBB0FF;" d="M179.871,339.405l-0.275,0.144l0.136,0.276c1.697,3.435-1.159,7.364-4.95,6.809           l-0.307-0.045l-0.05,0.293c-0.643,3.779-5.266,5.282-8.008,2.602l-0.215-0.21l-0.215,0.21           c-2.742,2.68-7.365,1.177-8.008-2.602l-0.05-0.293l-0.307,0.045c-3.791,0.555-6.647-3.374-4.95-6.809l0.136-0.275           l-0.275-0.144c-3.392-1.781-3.392-6.636,0-8.417l0.275-0.144l-0.136-0.275c-1.697-3.435,1.159-7.364,4.95-6.809           l0.307,0.045l0.05-0.293c0.643-3.78,5.266-5.282,8.008-2.602l0.215,0.21l0.215-0.21c2.742-2.679,7.365-1.177,8.008,2.602           l0.05,0.294l0.307-0.045c3.791-0.555,6.647,3.374,4.95,6.809l-0.136,0.275l0.275,0.145           C183.262,332.769,183.262,337.625,179.871,339.405z"/>
								</g>
								<g>
									<path style="fill:#DBB0FF;" d="M120.553,325.581l-0.275,0.144l0.136,0.276c1.697,3.435-1.159,7.364-4.95,6.809           l-0.307-0.045l-0.05,0.293c-0.643,3.779-5.266,5.282-8.008,2.602l-0.215-0.21l-0.215,0.21           c-2.742,2.68-7.365,1.177-8.008-2.602l-0.05-0.293l-0.307,0.045c-3.791,0.555-6.647-3.374-4.95-6.809l0.136-0.275           l-0.275-0.144c-3.392-1.781-3.392-6.636,0-8.417l0.275-0.144l-0.136-0.275c-1.697-3.435,1.159-7.364,4.95-6.809           l0.307,0.045l0.05-0.293c0.643-3.78,5.266-5.282,8.008-2.602l0.215,0.21l0.215-0.21c2.742-2.68,7.365-1.177,8.008,2.602           l0.05,0.294l0.307-0.045c3.791-0.555,6.647,3.374,4.95,6.809l-0.136,0.275l0.275,0.144           C123.944,318.945,123.944,323.8,120.553,325.581z"/>
								</g>
								<g>
									<path style="fill:#302945;" d="M128.407,392.481c-0.032,0-0.064-0.005-0.098-0.01c-0.301-0.052-0.502-0.34-0.449-0.641           c6.014-34.275,7.877-69.258,5.535-103.977c-0.021-0.306,0.21-0.57,0.516-0.589c0.291-0.015,0.568,0.21,0.589,0.515           c2.348,34.808,0.481,69.879-5.55,104.243C128.904,392.291,128.671,392.481,128.407,392.481z"/>
								</g>
								<g>
									<path style="fill:#302945;" d="M130.887,374.899c-0.261,0-0.495-0.188-0.544-0.456c-3.001-16.395-9.96-29.72-17.327-43.824           c-1.457-2.792-2.937-5.625-4.416-8.535c-0.139-0.274-0.031-0.607,0.243-0.745c0.268-0.143,0.604-0.032,0.743,0.242           c1.477,2.908,2.956,5.736,4.411,8.526c7.407,14.181,14.404,27.577,17.436,44.14c0.054,0.301-0.144,0.59-0.445,0.644           C130.954,374.894,130.92,374.899,130.887,374.899z"/>
								</g>
								<g>
									<path style="fill:#302945;" d="M130.605,378.764c-0.065,0-0.133-0.012-0.197-0.037c-0.286-0.111-0.429-0.429-0.319-0.715           c7.064-18.474,18.723-34.309,33.716-45.794c0.24-0.185,0.589-0.143,0.776,0.101c0.186,0.244,0.141,0.592-0.102,0.777           c-14.83,11.362-26.365,27.029-33.356,45.311C131.038,378.628,130.829,378.764,130.605,378.764z"/>
								</g>
							</g>
							<g>
								<g>
									<path style="fill:#9DD1A9;" d="M120.915,399.085c-0.808-3.669-3.537-6.615-6.497-8.929           c-4.551-3.558-9.844-6.056-14.5-9.475c-8.941-6.565-15.199-16.357-18.742-26.868c-3.543-10.512-4.516-21.743-4.266-32.833           c10.718,13.273,22.939,24.261,33.478,37.678c2.907,3.701,5.673,7.598,7.307,12.011           C120.935,379.418,119.921,389.808,120.915,399.085z"/>
								</g>
								<g>
									<path style="fill:#302945;" d="M120.915,399.64c-0.265,0-0.501-0.192-0.545-0.464c-0.031-0.185-3.048-18.361-4.715-23.917           c-1.811-6.04-9.904-18.047-21.332-28.405c-12.021-10.893-17.87-25.522-17.928-25.671c-0.112-0.284,0.028-0.604,0.312-0.718           c0.287-0.114,0.607,0.025,0.719,0.313c0.057,0.143,5.818,14.541,17.642,25.256c11.576,10.491,19.794,22.723,21.648,28.904           c1.688,5.625,4.623,23.305,4.747,24.055c0.051,0.303-0.154,0.587-0.456,0.639           C120.976,399.637,120.945,399.64,120.915,399.64z"/>
								</g>
							</g>
							<g>
								<g>
									<path style="fill:#9DD1A9;" d="M121.837,401.099c2.132-3.093,5.771-4.793,9.384-5.821c5.556-1.58,11.4-1.898,17.002-3.31           c10.757-2.71,20.244-9.42,27.488-17.82c7.245-8.4,12.379-18.437,16.329-28.803c-14.932,8.253-30.393,13.824-45.212,22.278           c-4.088,2.332-8.118,4.899-11.296,8.37C129.232,382.875,126.255,392.881,121.837,401.099z"/>
								</g>
								<g>
									<path style="fill:#302945;" d="M121.837,401.655c-0.1,0-0.2-0.027-0.29-0.084c-0.26-0.158-0.342-0.501-0.182-0.76           c0.398-0.649,9.782-15.922,13.465-20.494c4.048-5.026,16.271-13.258,30.948-18.612           c14.989-5.467,25.753-16.632,25.86-16.743c0.212-0.22,0.564-0.229,0.783-0.017c0.221,0.21,0.229,0.56,0.018,0.782           c-0.108,0.113-11.041,11.46-26.282,17.019c-14.49,5.285-26.511,13.354-30.465,18.267           c-3.64,4.518-13.288,20.218-13.384,20.376C122.204,401.561,122.023,401.655,121.837,401.655z"/>
								</g>
							</g>
						</g>
						<g>
							<g>
								<path style="fill:#FFFFFF;" d="M192.706,316.139c1.187,2.708,3.184,5.282,6.015,6.134c2.522,0.759,5.341-0.009,7.445-1.593          s3.563-3.894,4.579-6.324c2.731-6.534,2.74-27.56-8.185-27.911C190.733,286.066,189.558,308.959,192.706,316.139z"/>
							</g>
							<g>
								<path style="fill:#FFFFFF;" d="M190.735,334.515c-2.89,2.12-4.865,5.251-6.501,8.44c-3.05,5.944-5.167,12.366-6.25,18.958          c-0.672,4.093-0.523,9.146,3.025,11.295c2.779,1.682,6.494,0.677,9.075-1.294c2.587-1.975,4.419-4.77,5.973-7.629          c3.116-5.735,5.315-11.968,6.487-18.389c0.615-3.369,1.519-9.777-1.276-12.521          C198.612,330.767,193.304,332.631,190.735,334.515z"/>
							</g>
						</g>
					</g>
				</g>
				<g>
					<g>
						<path style="fill:#DBB0FF;" d="M363.177,293.257c0,0-28.158-5.152-63.311,5.48c-35.128,10.657-51.467,25.481-51.467,25.481        s-0.429-56.745,43.84-65.331C336.509,250.275,363.177,293.257,363.177,293.257z"/>
					</g>
					<g>
						<path style="fill:#F7EDE5;" d="M363.177,293.257c0,0-28.158-8.25-63.311,2.382c-35.128,10.657-51.467,28.579-51.467,28.579        s23.138,6.763,53.506-0.076c2.181,26.146,8.477,51.949,18.666,76.129c7.531-1.093,14.058-5.738,19.228-11.323        c-12.68-20.667-22.463-43.751-28.129-67.483C339.208,312.448,363.177,293.257,363.177,293.257z"/>
					</g>
					<g>
						<g>
							<path style="fill:#302945;" d="M294.177,314.959c-0.075,0-0.15-0.015-0.223-0.042c-0.326-0.123-0.49-0.486-0.368-0.811         c0.165-0.439,4.267-10.745,24.715-9.004c0.348,0.03,0.605,0.335,0.576,0.683c-0.03,0.348-0.35,0.629-0.682,0.575         c-19.432-1.64-23.389,8.094-23.428,8.193C294.672,314.803,294.431,314.959,294.177,314.959z"/>
						</g>
						<g>
							<path style="fill:#302945;" d="M320.57,400.903c-0.231,0-0.454-0.128-0.565-0.348c-7.625-15.199-13.779-42.465-16.996-62.917         c-2.989-19.002-1.52-29.74-1.506-29.846c0.05-0.345,0.376-0.592,0.714-0.535c0.345,0.049,0.586,0.368,0.536,0.713         c-0.015,0.106-1.452,10.681,1.503,29.471c3.201,20.358,9.316,47.479,16.877,62.547c0.155,0.313,0.03,0.691-0.281,0.848         C320.763,400.88,320.666,400.903,320.57,400.903z"/>
						</g>
						<g>
							<path style="fill:#302945;" d="M339.799,389.578c-0.215,0-0.424-0.108-0.541-0.308c-0.128-0.212-12.819-21.542-21.764-45.977         c-8.968-24.506-8.291-37.128-8.258-37.654c0.021-0.35,0.322-0.671,0.67-0.589c0.348,0.02,0.612,0.321,0.591,0.668         c-0.007,0.126-0.679,12.923,8.184,37.141c8.902,24.319,21.535,45.553,21.66,45.765c0.18,0.298,0.081,0.686-0.217,0.866         C340.021,389.548,339.91,389.578,339.799,389.578z"/>
						</g>
					</g>
					<g>
						<g>
							<path style="fill:#F7EDE5;" d="M263.912,271.106c-0.765,0.862-1.41,1.876-1.604,3.012c-0.194,1.136,0.134,2.406,1.028,3.133         c1.256,1.021,3.108,0.693,4.643,0.179c2.086-0.699,4.116-1.661,5.779-3.101c2.563-2.219,5.119-6.243,0.436-6.86         C270.42,266.971,266.474,268.219,263.912,271.106z"/>
						</g>
						<g>
							<path style="fill:#F7EDE5;" d="M279.871,284.486c-0.765,0.862-1.41,1.876-1.604,3.012c-0.194,1.136,0.134,2.406,1.028,3.133         c1.256,1.021,3.108,0.693,4.643,0.179c2.086-0.699,4.116-1.661,5.779-3.101c2.563-2.219,5.119-6.243,0.436-6.86         C286.378,280.35,282.432,281.598,279.871,284.486z"/>
						</g>
						<g>
							<path style="fill:#F7EDE5;" d="M296.43,265.585c-0.816,0.51-1.572,1.17-1.995,2.035c-0.423,0.864-0.46,1.959,0.085,2.752         c0.766,1.114,2.326,1.288,3.677,1.238c1.836-0.068,3.689-0.361,5.361-1.123c2.576-1.174,5.572-3.795,1.966-5.393         C302.618,263.805,299.162,263.876,296.43,265.585z"/>
						</g>
						<g>
							<path style="fill:#F7EDE5;" d="M289.982,254.946c-0.816,0.51-1.572,1.17-1.995,2.035c-0.423,0.864-0.46,1.959,0.085,2.753         c0.766,1.114,2.326,1.288,3.677,1.237c1.836-0.068,3.689-0.361,5.361-1.122c2.576-1.174,5.573-3.795,1.966-5.394         C296.17,253.166,292.715,253.237,289.982,254.946z"/>
						</g>
						<g>
							<path style="fill:#F7EDE5;" d="M317.058,272.515c-0.932,0.24-1.852,0.641-2.516,1.338c-0.664,0.696-1.03,1.729-0.75,2.65         c0.394,1.294,1.829,1.93,3.133,2.29c1.771,0.489,3.626,0.769,5.45,0.548c2.811-0.342,6.458-1.937,3.502-4.549         C323.495,272.686,320.179,271.71,317.058,272.515z"/>
						</g>
						<g>
							<path style="fill:#F7EDE5;" d="M335.244,267.357c-0.832,0.257-1.659,0.661-2.273,1.325c-0.614,0.664-0.978,1.624-0.768,2.454         c0.295,1.167,1.535,1.691,2.671,1.968c1.543,0.376,3.167,0.557,4.785,0.281c2.493-0.426,5.774-2.032,3.273-4.302         C340.915,267.253,338.03,266.494,335.244,267.357z"/>
						</g>
						<g>
							<path style="fill:#F7EDE5;" d="M256.88,291.491c-0.459,0.74-0.818,1.587-0.846,2.491c-0.028,0.904,0.327,1.867,1.03,2.356         c0.989,0.687,2.269,0.269,3.307-0.266c1.411-0.728,2.756-1.657,3.796-2.927c1.602-1.957,3.025-5.322-0.352-5.395         C261.092,287.693,258.416,289.013,256.88,291.491z"/>
						</g>
						<g>
							<path style="fill:#F7EDE5;" d="M317.058,256.718c-0.932,0.24-1.852,0.641-2.516,1.338c-0.664,0.696-1.03,1.729-0.75,2.65         c0.394,1.294,1.829,1.93,3.133,2.29c1.771,0.489,3.626,0.769,5.45,0.548c2.811-0.342,6.458-1.937,3.502-4.549         C323.495,256.888,320.179,255.913,317.058,256.718z"/>
						</g>
					</g>
				</g>
				<g>
					<g>
						<path style="fill:#DBB0FF;" d="M349.951,215.561c0,0,28.158-5.152,63.311,5.48c35.128,10.657,51.467,25.481,51.467,25.481        s0.429-56.745-43.84-65.331C376.619,172.58,349.951,215.561,349.951,215.561z"/>
					</g>
					<g>
						<path style="fill:#F7EDE5;" d="M349.951,215.561c0,0,28.158-8.683,63.311,1.949c35.128,10.657,51.467,29.012,51.467,29.012        s-23.138,6.763-53.506-0.077c-2.182,26.146-8.477,51.949-18.666,76.129c-7.531-1.094-14.058-5.738-19.228-11.323        c12.68-20.667,22.463-43.751,28.129-67.483C373.92,234.752,349.951,215.561,349.951,215.561z"/>
					</g>
					<g>
						<g>
							<path style="fill:#302945;" d="M418.951,237.264c-0.254,0-0.495-0.155-0.591-0.407c-0.037-0.099-3.994-9.838-23.428-8.193         c-0.323,0.03-0.652-0.229-0.682-0.575c-0.03-0.348,0.228-0.654,0.576-0.683c20.447-1.746,24.55,8.565,24.715,9.004         c0.122,0.326-0.042,0.688-0.367,0.811C419.102,237.249,419.025,237.264,418.951,237.264z"/>
						</g>
						<g>
							<path style="fill:#302945;" d="M392.558,323.206c-0.096,0-0.192-0.022-0.284-0.067c-0.311-0.158-0.436-0.535-0.281-0.848         c7.56-15.066,13.675-42.186,16.877-62.545c2.956-18.79,1.518-29.367,1.503-29.473c-0.049-0.345,0.191-0.663,0.536-0.713         c0.343-0.052,0.665,0.188,0.714,0.535c0.015,0.106,1.483,10.846-1.506,29.848c-3.217,20.45-9.371,47.718-16.996,62.915         C393.012,323.077,392.789,323.206,392.558,323.206z"/>
						</g>
						<g>
							<path style="fill:#302945;" d="M373.329,311.883c-0.111,0-0.222-0.03-0.324-0.089c-0.298-0.18-0.397-0.567-0.217-0.866         c0.126-0.212,12.759-21.446,21.66-45.767c8.863-24.215,8.191-37.015,8.184-37.141c-0.021-0.348,0.243-0.649,0.591-0.668         c0.345-0.079,0.647,0.239,0.67,0.589c0.033,0.525,0.71,13.15-8.258,37.654c-8.945,24.437-21.636,45.767-21.764,45.979         C373.753,311.775,373.544,311.883,373.329,311.883z"/>
						</g>
					</g>
					<g>
						<g>
							<path style="fill:#F7EDE5;" d="M449.216,193.411c0.765,0.862,1.41,1.875,1.604,3.011c0.194,1.136-0.134,2.407-1.028,3.133         c-1.256,1.021-3.107,0.693-4.643,0.179c-2.086-0.699-4.116-1.661-5.779-3.101c-2.563-2.219-5.119-6.243-0.436-6.861         C442.709,189.275,446.655,190.524,449.216,193.411z"/>
						</g>
						<g>
							<path style="fill:#F7EDE5;" d="M433.258,206.79c0.765,0.862,1.41,1.876,1.604,3.012c0.194,1.136-0.134,2.407-1.028,3.133         c-1.256,1.021-3.108,0.693-4.643,0.179c-2.086-0.699-4.116-1.661-5.779-3.101c-2.563-2.219-5.119-6.243-0.436-6.86         C426.75,202.655,430.697,203.903,433.258,206.79z"/>
						</g>
						<g>
							<path style="fill:#F7EDE5;" d="M416.699,187.889c0.816,0.51,1.572,1.171,1.995,2.035c0.423,0.864,0.46,1.959-0.085,2.753         c-0.766,1.114-2.326,1.288-3.677,1.238c-1.836-0.068-3.689-0.361-5.361-1.123c-2.576-1.174-5.573-3.795-1.966-5.394         C410.511,186.11,413.966,186.18,416.699,187.889z"/>
						</g>
						<g>
							<path style="fill:#F7EDE5;" d="M423.146,177.251c0.816,0.51,1.572,1.17,1.995,2.034c0.423,0.864,0.46,1.96-0.085,2.753         c-0.766,1.114-2.326,1.288-3.677,1.238c-1.836-0.068-3.689-0.361-5.361-1.123c-2.576-1.174-5.573-3.795-1.966-5.394         C416.958,175.471,420.414,175.541,423.146,177.251z"/>
						</g>
						<g>
							<path style="fill:#F7EDE5;" d="M396.07,194.819c0.932,0.24,1.852,0.641,2.516,1.338c0.664,0.696,1.03,1.729,0.75,2.65         c-0.394,1.294-1.829,1.93-3.133,2.29c-1.771,0.489-3.626,0.769-5.45,0.548c-2.811-0.342-6.458-1.937-3.502-4.549         C389.633,194.99,392.949,194.014,396.07,194.819z"/>
						</g>
						<g>
							<path style="fill:#F7EDE5;" d="M377.884,189.662c0.832,0.258,1.659,0.662,2.273,1.325c0.614,0.664,0.978,1.623,0.768,2.454         c-0.295,1.167-1.535,1.691-2.671,1.968c-1.543,0.376-3.167,0.557-4.785,0.281c-2.493-0.426-5.775-2.032-3.273-4.303         C372.213,189.558,375.098,188.799,377.884,189.662z"/>
						</g>
						<g>
							<path style="fill:#F7EDE5;" d="M456.248,213.796c0.459,0.74,0.818,1.588,0.846,2.492c0.028,0.904-0.327,1.867-1.03,2.356         c-0.989,0.687-2.269,0.269-3.307-0.267c-1.411-0.728-2.756-1.657-3.796-2.927c-1.602-1.957-3.025-5.322,0.353-5.394         C452.036,209.998,454.712,211.318,456.248,213.796z"/>
						</g>
						<g>
							<path style="fill:#F7EDE5;" d="M396.07,179.022c0.932,0.24,1.852,0.641,2.516,1.338c0.664,0.697,1.03,1.729,0.75,2.65         c-0.394,1.293-1.829,1.93-3.133,2.29c-1.771,0.489-3.626,0.769-5.45,0.547c-2.811-0.342-6.458-1.937-3.502-4.549         C389.633,179.193,392.949,178.217,396.07,179.022z"/>
						</g>
					</g>
				</g>
			</g>
			<g>
				<g>
					<g>
						<polygon style="fill:#FFFFFF;" points="401.424,339.658 403.819,300.534 405.683,339.924 415.53,331.94 409.675,341.255         430.701,343.916 410.207,346.578 416.062,354.829 406.215,349.506 403.553,383.573 401.424,350.038 391.31,354.296         397.698,346.578 372.147,343.118 397.432,342.053 391.576,333.27       "/>
					</g>
				</g>
				<g>
					<g>
						<polygon style="fill:#FFFFFF;" points="105.716,151.588 108.112,112.463 109.975,151.854 119.823,143.869 113.967,153.185         134.993,155.846 114.499,158.508 120.355,166.758 110.507,161.435 107.845,195.502 105.716,161.967 95.603,166.226         101.99,158.508 76.44,155.048 101.724,153.983 95.869,145.2       "/>
					</g>
				</g>
			</g>
		</g>
		<g>
			<g>
				<path style="fill:#FFFFFF;" d="M325.213,78.558l-12.553,4.511c-0.372,0.134-0.665,0.427-0.799,0.799l-4.511,12.553      c-0.421,1.17-2.075,1.17-2.495,0l-4.511-12.553c-0.134-0.372-0.427-0.665-0.799-0.799l-12.553-4.511      c-1.17-0.421-1.17-2.075,0-2.495l12.553-4.511c0.372-0.134,0.665-0.427,0.799-0.799l4.511-12.553c0.421-1.17,2.075-1.17,2.495,0      l4.511,12.553c0.134,0.372,0.427,0.666,0.799,0.799l12.553,4.511C326.383,76.483,326.383,78.137,325.213,78.558z"/>
			</g>
			<g>
				<path style="fill:#FFFFFF;" d="M271.052,390.26l-12.553,4.511c-0.372,0.134-0.665,0.427-0.799,0.799l-4.511,12.553      c-0.42,1.17-2.075,1.17-2.495,0l-4.511-12.553c-0.134-0.372-0.427-0.665-0.799-0.799l-12.553-4.511      c-1.17-0.421-1.17-2.075,0-2.495l12.553-4.511c0.372-0.134,0.665-0.427,0.799-0.799l4.511-12.553c0.42-1.17,2.075-1.17,2.495,0      l4.511,12.553c0.134,0.372,0.427,0.665,0.799,0.799l12.553,4.511C272.222,388.185,272.222,389.839,271.052,390.26z"/>
			</g>
			<g>
				<path style="fill:#FFFFFF;" d="M74.181,233.474l-12.553,4.511c-0.373,0.134-0.665,0.427-0.799,0.799l-4.511,12.553      c-0.42,1.17-2.075,1.17-2.495,0l-4.511-12.553c-0.134-0.372-0.427-0.665-0.799-0.799l-12.553-4.511      c-1.17-0.42-1.17-2.075,0-2.495l12.553-4.511c0.373-0.134,0.666-0.427,0.799-0.799l4.511-12.553c0.42-1.17,2.075-1.17,2.495,0      l4.511,12.553c0.134,0.372,0.427,0.665,0.799,0.799l12.553,4.511C75.351,231.4,75.351,233.054,74.181,233.474z"/>
			</g>
		</g>
	</g>
</g>















</svg>
