<?xml version="1.0" encoding="iso-8859-1"?>
<!-- Generator: Adobe Illustrator 26.5.1, SVG Export Plug-In . SVG Version: 6.00 Build 0)  -->
<svg xmlns="http://www.w3.org/2000/svg" xmlns:xlink="http://www.w3.org/1999/xlink" version="1.1" id="Capa_1" x="0px" y="0px" viewBox="0 0 512 512" style="enable-background:new 0 0 512 512;" xml:space="preserve">
<g>
	<path style="fill:#FFFFFF;" d="M252.578,508.578c-64.796,0-126.396-24.497-173.452-68.978c-6.563-6.2-12.861-12.826-18.716-19.692   c-19.329-22.633-34.363-48.209-44.68-76.011c-5.285-14.214-9.29-28.98-11.903-43.88C1.288,285.59,0,270.778,0,256   c0-67.464,26.274-130.891,73.98-178.598c47.707-47.707,111.134-73.98,178.598-73.98c35.344,0,69.539,7.163,101.636,21.292   c29.224,12.863,55.394,30.885,77.875,53.618c5.91-1.496,11.666-2.251,17.172-2.251c17.849,0,42.536,8.087,58.784,46.616   c8.182,19.4,3.653,39.852-13.457,60.853c7.015,23.452,10.567,47.797,10.567,72.451c0,25.9-3.908,51.439-11.615,75.91   c-3.476,11.071-7.766,21.978-12.745,32.411c-8.764,18.448-19.796,35.837-32.782,51.669c-9.363,11.442-19.837,22.157-31.127,31.837   C371.187,487.003,312.835,508.578,252.578,508.578z"/>
	<g>
		<g>
			<g>
				<path style="fill:#B5E1E8;" d="M493.188,254.485c0,25.457-3.912,49.993-11.176,73.058c-3.371,10.73-7.473,21.146-12.258,31.174      c-8.498,17.889-19.124,34.582-31.553,49.737c-4.75,5.805-15.05,9.008-20.311,14.343c-4.782,4.849-4.484,11.873-9.656,16.308      c-42.511,36.443-97.746,58.463-158.127,58.463c-64.635,0-123.393-25.229-166.93-66.382c-2.991-2.826,10.023-19.236,7.182-22.208      c-3.184-3.329-22.204,6.762-25.195,3.255c-18.335-21.469-32.997-46.186-43.005-73.153c-5.033-13.54-8.897-27.651-11.451-42.217      c-2.421-13.759-3.684-27.926-3.684-42.378c0-134.246,108.836-243.083,243.083-243.083      C384.352,11.402,493.188,120.239,493.188,254.485z"/>
			</g>
		</g>
		<g>
			<g>
				<g>
					<g>
						<g>
							<path style="fill:#E36352;" d="M354.33,251.988l-0.613-0.213l-19.885-6.858c-0.576-0.195-1.189-0.638-1.823-1.247         c-2.804-2.675-5.979-8.505-7.501-10.506c-19.625-25.952-37.271-54.731-47.238-85.857         c-12.776-39.9-6.809-83.209,34.592-103.607c0.246-0.111,0.489-0.232,0.738-0.351c1.473-0.694,2.922-1.299,4.35-1.822         c41.066-15.078,63.718,38.724,70.193,71.434c0,0,75.113-72.641,109.599,9.138C524.168,187.13,354.33,251.988,354.33,251.988z         "/>
						</g>
					</g>
				</g>
				<g>
					<g>
						<g>
							<polygon style="fill:#FFFFFF;" points="284.787,403.638 363.763,181.655 370.604,184.147 293.979,408.745        "/>
						</g>
					</g>
				</g>
				<g style="opacity:0.42;">
					<g style="opacity:0.33;">
						<g>
							<g>
								<path style="fill:#412945;" d="M354.33,251.988l-0.613-0.213l-19.885-6.858c-0.576-0.195-1.189-0.638-1.823-1.247          L316.951,41.527c41.066-15.078,63.718,38.724,70.193,71.434c0,0,75.113-72.641,109.599,9.138          C524.168,187.13,354.33,251.988,354.33,251.988z"/>
							</g>
						</g>
					</g>
				</g>
				<g>
					<g>
						<g>
							<g>
								<g>
									<path style="fill:#F7EDE5;" d="M461.064,106.142l11.808,0.085c2.336,0.017,4.479,1.267,5.665,3.279           c3.123,5.295,8.583,16.314,7.756,27.48c-0.217,2.929-2.379,5.348-5.255,5.945l-17.288,3.586           c-4.432,0.919-8.478-2.786-7.911-7.277c0.883-6.987,1.342-16.685-1.157-24.576           C453.338,110.418,456.609,106.11,461.064,106.142z"/>
								</g>
							</g>
						</g>
						<g>
							<g>
								<g>
									<path style="fill:#F7EDE5;" d="M469.433,170.381c-2.128,4.411-7.43,6.262-11.841,4.133s-6.262-7.43-4.133-11.841           c2.128-4.411,7.43-6.262,11.841-4.133C469.711,160.668,471.561,165.97,469.433,170.381z"/>
								</g>
							</g>
						</g>
					</g>
					<g>
						<g>
							<g>
								<path style="fill:#F7EDE5;" d="M288.25,136.844l2.554-0.891c2.952-1.03,6.188,0.469,7.311,3.387l13.159,34.202          c1.069,2.779-0.144,5.915-2.804,7.251l-2.715,1.364c-2.822,1.418-6.254,0.314-7.724-2.481          c-3.89-7.394-10.832-21.952-13.569-36.31C283.927,140.559,285.552,137.786,288.25,136.844z"/>
							</g>
						</g>
					</g>
				</g>
			</g>
			<g>
				<g>
					<g>
						<g>
							<g>
								<polygon style="fill:#FFFFFF;" points="201.119,411.9 142.131,177.902 149.65,175.774 212.277,400.574         "/>
							</g>
						</g>
					</g>
					<g>
						<g>
							<g>
								<path style="fill:#F8BDFF;" d="M216.804,130.428c1.365,4.209-0.935,8.719-5.144,10.084l-1.337,0.434          c4.908,35.193-15.943,69.909-50.915,81.254c-32.759,10.628-67.5-2.609-85.491-30.095c-0.526-0.802,7.863-5.914,7.367-6.739          c-0.66-1.098-10.192,2.081-10.795,0.943l-4.796,1.556c-2.105,0.683-4.286,0.452-6.107-0.485          c-1.827-0.925-3.295-2.555-3.977-4.659c-1.362-4.2,0.938-8.71,5.147-10.075l3.757-1.219          c-0.376-1.334,9.919-6.421,9.619-7.759c-0.329-1.47-11.245,0.809-11.482-0.66c-5.787-35.747,15.168-71.345,50.673-82.863          c38.296-12.424,79.338,7.773,93.101,45.245l0.298-0.097c2.104-0.683,4.286-0.452,6.107,0.485          C214.657,126.702,216.122,128.324,216.804,130.428z"/>
							</g>
						</g>
						<g>
							<g>
								<path style="fill:#412945;" d="M206.425,125.39L64.514,171.427c-0.788-2.799-1.411-5.611-1.863-8.42L206.425,125.39z"/>
							</g>
						</g>
						<g>
							<g>
								<path style="fill:#412945;" d="M210.324,140.946l-136.406,51.16c-1.225-1.869-2.371-3.803-3.427-5.796L210.324,140.946z"/>
							</g>
						</g>
					</g>
				</g>
				<g>
					<g>
						<g>
							<path style="fill:#F7EDE5;" d="M137.202,93.639c0.245,3.513,3.426,6.432,6.92,6.868c3.495,0.436,7.048-1.333,9.258-4.075         c3.962-4.916,2.665-13.552-4.34-14.942C142.998,80.291,136.815,88.094,137.202,93.639z"/>
						</g>
					</g>
					<g>
						<g>
							<path style="fill:#F7EDE5;" d="M160.37,99.529c0.905,3.551,3.803,6.266,6.934,8.17c3.132,1.903,6.604,3.202,9.702,5.16         c3.326,2.102,6.189,4.943,9.739,6.64c1.535,0.734,3.387,1.228,4.9,0.45c1.813-0.932,2.364-3.282,2.262-5.318         c-0.304-6.037-4.44-11.193-8.973-15.193c-4.412-3.893-9.594-7.256-15.389-8.598C163.97,89.55,158.764,93.225,160.37,99.529z"/>
						</g>
					</g>
				</g>
			</g>
			<g>
				<g>
					<g>
						<g>
							<path style="fill:#E36352;" d="M252.612,265.718c-78.537-3.532-146.286,50.686-162.172,125.112         c-1.804,8.47-2.944,17.215-3.342,26.16l-0.038,0.722l23.254,1.044l26.891,1.215l17.937,0.807h0.009l3.124,0.142l2.184,0.095         l26.882,1.206l22.514,1.016c0-0.247,0.019-0.484,0.028-0.722c0.009-0.304,0.029-0.617,0.048-0.921         c0.218-3.779,0.76-8.1,1.624-12.619c1.424-7.473,3.732-15.487,6.951-22.447c1.035-2.231,2.156-4.349,3.371-6.314         c4.748-7.663,10.92-12.876,18.545-12.534c7.226,0.323,17.842,1.168,28.344,3.095c18.079,3.295,35.798,9.771,35.237,22.21         c0,0.086,10.037,5.052,22.846,11.366c0.532,0.256,1.063,0.522,1.605,0.788c8.033,3.96,16.997,8.365,25.201,12.401         c14.699,7.236,26.938,13.284,26.938,13.388l23.254,1.044l0.029-0.731c0.019-0.437,0.038-0.874,0.057-1.31v-0.009         C407.131,343.011,339.647,269.639,252.612,265.718z"/>
						</g>
					</g>
					<g>
						<g>
							<path style="fill:#FFC063;" d="M377.895,396.232c-12.382-58.967-63.344-104.431-126.337-107.26         c-63.619-2.868-118.949,38.703-135.965,97.262c-2.953,10.141-4.757,20.785-5.251,31.8l-0.028,0.722v0.009l26.891,1.206         l17.937,0.807h0.009l3.124,0.142l2.184,0.095l26.882,1.206l22.514,1.016c0-0.247,0.019-0.484,0.028-0.722         c0.009-0.304,0.029-0.617,0.048-0.921c0.247-3.95,0.921-8.147,2.013-12.335c2.782-10.72,8.242-21.327,15.933-27.299         c0.01,0,0.01-0.009,0.01-0.009c4.197-3.267,9.059-5.137,14.509-4.89c4.738,0.209,10.189,0.655,15.715,1.472         c17.396,2.564,35.57,8.897,34.896,23.824c0,0.057,3.039,1.443,7.767,3.57c4.425,1.994,10.331,4.634,16.588,7.435         c4.311,1.918,8.793,3.922,13.075,5.83c12.477,5.583,23.264,10.407,23.264,10.521l26.891,1.215l0.038-0.731         C381.152,418.537,380.183,407.152,377.895,396.232z"/>
						</g>
					</g>
					<g>
						<g>
							<path style="fill:#C0D48C;" d="M353.653,417.54c-0.494-8.451-1.975-16.665-4.32-24.508         c-12.838-42.919-51.684-75.052-98.98-77.179c-52.101-2.345-97.252,32.503-109.786,81.062         c-1.852,7.169-2.991,14.633-3.342,22.324c-0.01,0.247-0.019,0.484-0.019,0.731l17.937,0.807h0.009l3.124,0.142l2.184,0.095         l26.882,1.206l22.514,1.016c0,0,0-0.01-0.01-0.019c-0.37-0.636-12.306-13.474-12.306-13.73         c0.095-2.155,0.494-4.254,1.139-6.286c3.181-9.913,12.477-18.155,23.197-22.988c7.122-3.209,14.86-4.909,21.849-4.596         c4.273,0.19,9.239,1.215,14.386,2.915c18.488,6.077,39.273,20.747,38.58,36.13c0,0.066,2.716,1.206,6.599,2.801         c2.279,0.94,4.966,2.032,7.739,3.172c9.192,3.741,19.418,7.891,19.418,8.033l23.254,1.044         c0.019-0.247,0.029-0.484,0.038-0.731C353.909,425.127,353.881,421.31,353.653,417.54z"/>
						</g>
					</g>
					<g>
						<g>
							<path style="fill:#B5E1E8;" d="M330.437,419.192c-0.266-4.795-0.94-9.495-1.985-14.053c-0.133-0.589-0.266-1.168-0.408-1.738         v-0.01c-8.916-35.541-40.261-62.556-78.736-64.293c-46.224-2.079-85.487,33.13-88.706,79.021         c-0.048,0.722-0.095,1.443-0.123,2.165c-0.009,0.247-0.019,0.494-0.019,0.731l26.882,1.206l22.514,1.016         c0,0,0-0.01-0.01-0.019c-0.266-0.57-8.726-11.053-8.726-11.319c0.114-2.611,0.655-5.128,1.548-7.53         c2.697-7.217,8.593-13.37,15.838-17.842c2.944-1.814,6.115-3.352,9.372-4.567c0.01,0,0.01-0.009,0.01-0.009         c6.143-2.279,12.629-3.428,18.63-3.162c19.665,0.893,42.824,11.974,41.941,31.639c0,0.285,2.602,9.799,2.602,10.113         l12.505,6.922l1.947,0.085l24.935,1.121c0.028-0.237,0.038-0.484,0.047-0.731         C330.627,424.994,330.608,422.069,330.437,419.192z"/>
						</g>
					</g>
					<g>
						<g>
							<path style="fill:#6E72FF;" d="M303.289,417.464c-0.446-3.969-1.301-7.834-2.516-11.537         c-5.175-15.696-16.864-28.543-32.009-35.152c-6.362-2.782-13.322-4.463-20.671-4.795         c-25.334-1.139-47.61,14.11-56.583,36.377c-2.402,5.935-3.846,12.382-4.149,19.143c-0.01,0.247-0.019,0.475-0.019,0.722v0.01         l22.514,1.007c0-0.247,0.019-0.484,0.028-0.722c0.009-0.304,0.029-0.617,0.048-0.921c0.294-4.15,1.291-8.09,2.867-11.717         c5.735-13.132,19.114-22.048,34.288-21.365c18.041,0.807,32.341,14.889,33.899,32.398c0.142,1.576,0.18,3.181,0.105,4.805         c-0.009,0.247-0.019,0.484-0.038,0.731l19.361,0.874l3.153,0.142c0.019-0.247,0.038-0.484,0.048-0.731         C303.755,423.589,303.641,420.493,303.289,417.464z"/>
						</g>
					</g>
				</g>
				<g>
					<g>
						<path style="fill:#F7EDE5;" d="M438.2,408.453c-9.068,11.081-19.105,21.336-29.967,30.651l-162.647-3.903        c6.504-6.713,14.063-12.467,21.27-13.806c4.653-0.864,9.429-1.016,14.129-0.484c6.827,0.75,13.503,2.934,19.428,6.409        c1.206,0.703,2.374,1.462,3.513,2.269c0.522-0.684,1.054-1.358,1.586-2.042c1.804-2.307,3.637-4.634,5.517-6.913        c2.051-2.488,4.15-4.928,6.333-7.273c2.991-3.238,6.134-6.286,9.486-9.011c0.399-0.332,0.798-0.646,1.196-0.949v-0.01        c5.194-4.064,10.882-7.34,17.253-9.324c1.329-0.418,2.668-0.76,4.036-1.035c9.533-2.013,19.712-0.864,28.562,3.2        c1.681,0.769,3.304,1.633,4.871,2.611c11.034,6.856,18.867,18.649,20.89,31.477c0.086-0.133,0.181-0.256,0.275-0.389v-0.009        C411.974,418.309,424.251,408.88,438.2,408.453z"/>
					</g>
				</g>
				<g>
					<g>
						<path style="fill:#F7EDE5;" d="M229.405,434.689l-146.229-3.504c-6.343-5.992-12.353-12.316-18.013-18.953        c7.34-8.631,15.459-16.56,25.277-21.403c2.25-1.121,4.596-2.079,7.046-2.839c5.84-1.814,12.031-2.383,18.108-1.757        c6.837,0.703,13.521,2.906,19.371,6.542c1.975,1.225,3.855,2.611,5.602,4.14c7.16,6.201,12.354,14.661,14.576,23.862h0.009        c0.275,1.149,0.513,2.307,0.693,3.475c0.769-1.13,1.586-2.25,2.431-3.333c0.75-0.959,1.529-1.889,2.326-2.801        c8.061-9.125,18.896-15.791,30.908-15.762c0.323,0,0.627,0.009,0.95,0.019c2.098,0.066,4.178,0.351,6.219,0.826        c1.348,0.304,2.687,0.693,3.988,1.168c3.133,1.13,6.125,2.697,8.888,4.605c0.133,0.095,0.256,0.18,0.389,0.285        c0.285,0.199,0.579,0.408,0.854,0.617c2.82,2.108,5.375,4.586,7.568,7.311C224.515,422.354,227.468,428.346,229.405,434.689z"/>
					</g>
				</g>
			</g>
			<g>
				<g>
					<path style="fill:#FFFFFF;" d="M188.682,349.814c3.688-0.813,6.39-1.597,8.108-2.353c1.718-0.755,3.027-1.978,3.929-3.669       c0.901-1.69,0.958-3.738,0.171-6.143c-1.982,1.627-3.65,2.738-5.005,3.335c-4.747,2.087-8.989,2.375-12.729,0.863       c-3.738-1.512-6.676-4.696-8.812-9.556c-2.137-4.858-2.391-9.453-0.762-13.783c1.628-4.329,5.02-7.628,10.172-9.894       c5.154-2.265,10.005-2.241,14.556,0.073c4.55,2.314,8.376,6.996,11.476,14.047c3.876,8.814,5.282,16.274,4.217,22.378       c-1.066,6.105-4.694,10.518-10.885,13.241c-7.684,3.379-12.093,3.78-13.226,1.204c-0.596-1.356-1.105-3.248-1.526-5.68       C187.943,351.447,188.048,350.093,188.682,349.814z M188.984,320.878c-1.447,0.637-2.361,1.592-2.745,2.866       c-0.383,1.274-0.257,2.634,0.379,4.081c0.636,1.447,1.611,2.406,2.925,2.88c1.313,0.475,2.695,0.393,4.141-0.243       c1.446-0.636,2.481-1.468,3.108-2.5c-1.372-3.118-2.655-5.236-3.849-6.357C191.75,320.484,190.43,320.242,188.984,320.878z"/>
				</g>
				<g>
					<path style="fill:#FFFFFF;" d="M243.383,348.688c-6.193,0.232-11.334-1.847-15.427-6.24       c-4.094-4.392-6.304-10.955-6.633-19.688c-0.327-8.734,1.397-15.406,5.179-20.021c3.779-4.612,8.789-7.037,15.031-7.272       c6.242-0.235,11.37,1.796,15.386,6.093c4.015,4.296,6.191,10.91,6.526,19.84c0.335,8.931-1.377,15.653-5.135,20.167       C254.551,346.082,249.574,348.455,243.383,348.688z M241.919,309.683c-1.901,0.071-3.464,1.205-4.69,3.399       c-1.227,2.196-1.766,5.268-1.618,9.215c0.148,3.948,0.89,6.946,2.227,8.995c1.338,2.05,3.005,3.037,5.004,2.962       c1.998-0.075,3.586-1.196,4.765-3.365c1.179-2.168,1.694-5.226,1.545-9.175c-0.147-3.947-0.916-6.957-2.303-9.03       C245.462,310.613,243.817,309.612,241.919,309.683z"/>
				</g>
				<g>
					<path style="fill:#FFFFFF;" d="M280.721,319.308c-0.669-0.176-1.312-0.447-1.931-0.814c-1.237-0.733-1.741-1.53-1.515-2.39       l3.974-15.114c0.225-0.859,1.415-1.209,3.57-1.052c1.052,0.073,2.104,0.247,3.155,0.523c1.05,0.276,2.076,0.649,3.077,1.116       c1.952,0.923,2.816,1.813,2.591,2.672l-8.272,13.983c-0.227,0.86-1.083,1.298-2.569,1.316       C282.082,319.564,281.388,319.484,280.721,319.308z"/>
				</g>
				<g>
					<path style="fill:#FFFFFF;" d="M294.118,343.361c2.366,4.033,4.568,6.6,6.609,7.706c1.303,0.705,2.201,0.602,2.694-0.311       c0.353-0.651-0.318-2.109-2.01-4.373c-4.228-5.154-4.98-10.247-2.252-15.284c1.74-3.213,4.241-5.031,7.502-5.456       c3.261-0.424,6.531,0.252,9.81,2.027c3.278,1.775,5.869,3.628,7.773,5.556c1.902,1.929,2.548,3.458,1.937,4.586       c-0.517,0.956-1.665,1.962-3.446,3.019c-1.779,1.057-2.878,1.558-3.296,1.5c-1.303-2.053-3.04-3.667-5.211-4.842       c-1.171-0.634-1.982-0.539-2.428,0.286c-0.282,0.521-0.296,1.09-0.04,1.705c0.257,0.617,0.845,1.525,1.767,2.725       c0.922,1.202,1.666,2.237,2.236,3.105c0.566,0.869,1.139,1.964,1.715,3.287c1.191,2.779,1.069,5.492-0.364,8.141       c-1.88,3.474-4.554,5.661-8.018,6.565c-3.466,0.902-7.521,0.096-12.167-2.418c-3.084-1.67-5.602-3.707-7.556-6.113       c-1.955-2.406-2.438-4.52-1.449-6.344c0.657-1.216,1.645-2.338,2.959-3.367C292.196,344.034,293.274,343.466,294.118,343.361z"/>
				</g>
			</g>
		</g>
		<g>
			<g>
				<g>
					<g>
						<path style="fill:#F7EDE5;" d="M444.596,223.966l-23.274,41.457c0,0,54.548-10.91,52.366-11.637        C471.506,253.059,444.596,223.966,444.596,223.966z"/>
					</g>
				</g>
				<g>
					<g>
						<path style="fill:#6E72FF;" d="M84.955,307.9l-44.83,15.83c0,0,48.209,27.756,47.048,25.771        C86.012,347.516,84.955,307.9,84.955,307.9z"/>
					</g>
				</g>
				<g>
					<g>
						<path style="fill:#6E72FF;" d="M188.443,50.566l30.016,36.869c0,0,9.88-54.744,8.402-52.981        C225.383,36.216,188.443,50.566,188.443,50.566z"/>
					</g>
				</g>
				<g>
					<g>
						<circle style="fill:#FFC063;" cx="52.538" cy="226.908" r="25.092"/>
					</g>
				</g>
				<g>
					<g>
						
							<rect x="411.586" y="316.367" transform="matrix(0.866 -0.5 0.5 0.866 -111.8262 263.3931)" style="fill:#FFC063;" width="48.002" height="48.002"/>
					</g>
				</g>
				<g>
					<g>
						
							<rect x="227.098" y="191.656" transform="matrix(0.866 -0.5 0.5 0.866 -74.1878 154.4421)" style="fill:#F7EDE5;" width="48.002" height="48.002"/>
					</g>
				</g>
			</g>
			<g>
				<g>
					<path style="fill:#412945;" d="M232.911,90.507c-10.611,0-19.244-8.632-19.244-19.243c0-10.611,8.633-19.243,19.244-19.243       c10.611,0,19.243,8.633,19.243,19.243C252.154,81.875,243.522,90.507,232.911,90.507z M232.911,54.869       c-9.04,0-16.395,7.355-16.395,16.395s7.355,16.395,16.395,16.395s16.394-7.355,16.394-16.395S241.951,54.869,232.911,54.869z"/>
				</g>
			</g>
			<g>
				<g>
					<path style="fill:#412945;" d="M415.768,291.789c-10.611,0-19.244-8.633-19.244-19.243c0-10.61,8.633-19.243,19.244-19.243       c10.611,0,19.243,8.633,19.243,19.243C435.011,283.157,426.379,291.789,415.768,291.789z M415.768,256.152       c-9.04,0-16.395,7.354-16.395,16.394s7.355,16.395,16.395,16.395c9.04,0,16.394-7.355,16.394-16.395       S424.808,256.152,415.768,256.152z"/>
				</g>
			</g>
			<g>
				<g>
					<path style="fill:#412945;" d="M235.456,487.618c-10.611,0-19.244-8.633-19.244-19.243c0-10.611,8.633-19.243,19.244-19.243       c10.611,0,19.243,8.633,19.243,19.243C254.699,478.985,246.067,487.618,235.456,487.618z M235.456,451.979       c-9.04,0-16.395,7.355-16.395,16.395s7.355,16.395,16.395,16.395s16.394-7.355,16.394-16.395S244.496,451.979,235.456,451.979z       "/>
				</g>
			</g>
			<g>
				<g>
					<path style="fill:#412945;" d="M70.599,276.213c-10.611,0-19.244-8.633-19.244-19.243c0-10.611,8.633-19.243,19.244-19.243       c10.611,0,19.243,8.633,19.243,19.243C89.843,267.58,81.21,276.213,70.599,276.213z M70.599,240.575       c-9.04,0-16.395,7.355-16.395,16.395c0,9.04,7.355,16.394,16.395,16.394s16.394-7.354,16.394-16.394       C86.994,247.93,79.64,240.575,70.599,240.575z"/>
				</g>
			</g>
		</g>
	</g>
</g>
<g>
</g>
<g>
</g>
<g>
</g>
<g>
</g>
<g>
</g>
<g>
</g>
<g>
</g>
<g>
</g>
<g>
</g>
<g>
</g>
<g>
</g>
<g>
</g>
<g>
</g>
<g>
</g>
<g>
</g>
</svg>
