<?xml version="1.0" encoding="UTF-8"?>
<!-- Generator: Adobe Illustrator 26.5.1, SVG Export Plug-In . SVG Version: 6.00 Build 0)  -->
<svg xmlns="http://www.w3.org/2000/svg" xmlns:xlink="http://www.w3.org/1999/xlink" version="1.1" id="Capa_1" x="0px" y="0px" viewBox="0 0 512 512" style="enable-background:new 0 0 512 512;" xml:space="preserve" width="512" height="512">
<g>
	<path style="fill:#FFFFFF;" d="M53.241,512c-7.614,0-13.883-5.986-14.234-13.593c-0.529-11.455-0.724-49.826,18.969-62.67   c4.942-3.224,8.958-5.573,12.258-7.282c1.488-18.018,5.844-40.832,17.959-51.4c1.779-16.87,2.499-32.112,2.144-45.424   c-0.571-21.696-6.589-48.274-13.008-73.767l-1.846-7.305c-2.848-11.241-5.096-20.119-6.085-26.355   c-0.311-2.008-0.488-3.799-0.535-5.371c-0.262-6.788,2.211-10.982,4.894-13.514c1.766-8.467,6.818-16.089,14.318-20.977   l7.149-4.664c-1.553-6.293-2.972-12.455-4.244-18.433l-42.003-40.108c-5.168-4.935-5.881-12.936-1.667-18.708L69.204,72.44   c2.403-3.291,6.099-5.396,10.155-5.782c0.452-0.044,0.905-0.065,1.354-0.065c1.218,0,2.422,0.157,3.587,0.459   c3.717-24.353,13.306-42.176,28.656-53.17C125.818,4.671,139.173,0,152.652,0c33.188,0,64.253,27.535,92.474,81.907L357.47,8.625   c5.398-3.518,11.64-5.375,18.057-5.375c11.242,0,21.61,5.618,27.734,15.028l37.948,58.17c5.948,5.686,11.064,12.786,15.226,21.136   c0.952,1.911,1.798,3.917,2.611,6.206l8.713,13.355c4.83,7.391,6.486,16.234,4.658,24.892c-1.824,8.637-6.899,16.053-14.29,20.883   l-4.168,2.718c-7.677,18.471-20.491,39.133-38.196,61.585l0.638,0.846c4.331,5.742,3.704,13.811-1.461,18.816l-43.433,42.075   c-0.62,0.691-1.309,1.32-2.057,1.881c-2.531,1.978-5.629,3.017-8.77,3.017c-1.73,0-3.474-0.315-5.146-0.963   c-47.691,46.389-99.358,87.367-127.892,109.095c2.689,3.664,3.857,7.837,3.857,11.877c0,6.489-0.555,20.85-0.931,29.832   c9.961,8.129,25.893,25.66,25.342,54.323c-0.15,7.762-6.484,13.975-14.247,13.975H53.241z"/>
	<g>
		<path style="fill:#FFC666;" d="M442.914,102.684c-39.188-78.624-150.863,18.332-183.769,49.479    C243.818,107.374,190.96-26.266,120.484,24.21c-84.152,60.271,75.697,382.268,75.697,382.268L199.127,396l-1.969,9.111    C197.157,405.111,489.087,195.324,442.914,102.684z"/>
		<path style="fill:#2E1144;" d="M422.223,135.508l-23.41,47.329L232.63,291.23l-71.236,10.791    c-8.728,5.688-11.84-7.13-17.528-15.858l-27.126-70.528c-5.688-8.704-8.728-0.989,0-6.677l9.58-34.31l188.298-122.81l44.171-2.299    c8.728-5.688,22.297-3.279,27.961,5.425l42.985,64.686C435.423,128.353,430.927,129.819,422.223,135.508z"/>
		<g>
			<path style="fill:#B179FF;" d="M449.564,149.737l-50.752,33.099c-0.49-0.392-0.981-0.809-1.471-1.25     c-16.206-14.392-27.926-36.139-23.782-57.421c-9.66-2.059-18.315-8.483-23.096-17.138c-4.781-8.655-5.615-19.394-2.231-28.686     c-11.94-1.716-22.973-8.728-29.618-18.781c-1.594-2.427-2.942-5.026-3.996-7.723l49.869-32.535     c8.728-5.688,20.399-3.212,26.062,5.492l64.507,98.881C460.745,132.379,458.268,144.049,449.564,149.737z"/>
			<path style="fill:#B179FF;" d="M232.63,291.23l-52.468,34.227c-8.728,5.688-20.399,3.236-26.087-5.492l-64.482-98.881     c-5.688-8.704-3.236-20.374,5.492-26.063l31.236-20.374c0.833,0.637,1.643,1.373,2.427,2.133     c9.709,9.513,12.161,24.15,12.406,37.709c12.798-2.55,26.823,2.305,35.306,12.235c8.459,9.93,11.033,24.567,6.473,36.801     c17.212-5.32,38.591,1.128,46.51,17.285C231.061,284.095,232.066,287.601,232.63,291.23z"/>
		</g>
		<g>
			<g>
				<g>
					
						<ellipse transform="matrix(0.4518 -0.8921 0.8921 0.4518 -162.536 314.7465)" style="fill:#2E1144;" cx="174.828" cy="289.622" rx="17.093" ry="17.093"/>
					
						<ellipse transform="matrix(0.1519 -0.9884 0.9884 0.1519 -140.4075 417.7206)" style="fill:#FFE7DE;" cx="173.199" cy="290.675" rx="17.093" ry="17.093"/>
					<path style="fill:#FF93E2;" d="M178.588,298.686c0.23-1.169,3.681-19.282-3.219-19.518c-4.464-0.152-4.965,4.186-4.785,7.175       c-2.651-1.393-6.812-2.718-8.508,1.414c-2.62,6.387,15.312,10.683,16.472,10.954l0.028,0.035c0,0,0.004-0.018,0.005-0.027       c0.009,0.002,0.027,0.006,0.027,0.006L178.588,298.686z"/>
				</g>
				<g>
					<path style="fill:#2E1144;" d="M160.835,240.026c5.124,7.929,2.849,18.51-5.08,23.634c-7.929,5.124-18.51,2.849-23.634-5.08       c-5.123-7.929-2.849-18.51,5.08-23.634C145.13,229.823,155.711,232.097,160.835,240.026z"/>
					
						<ellipse transform="matrix(0.2427 -0.9701 0.9701 0.2427 -133.1784 330.1057)" style="fill:#FFE7DE;" cx="144.849" cy="250.356" rx="17.093" ry="17.093"/>
					<path style="fill:#FF93E2;" d="M150.238,258.367c0.23-1.169,3.681-19.282-3.218-19.518c-4.464-0.152-4.965,4.186-4.785,7.175       c-2.651-1.393-6.812-2.718-8.508,1.414c-2.62,6.387,15.312,10.683,16.472,10.954l0.028,0.035c0,0,0.004-0.018,0.005-0.027       c0.009,0.002,0.027,0.006,0.027,0.006L150.238,258.367z"/>
				</g>
				<g>
					<path style="fill:#2E1144;" d="M137.792,205.855c5.124,7.929,2.849,18.51-5.08,23.634c-7.929,5.123-18.51,2.849-23.634-5.08       c-5.124-7.929-2.849-18.51,5.08-23.634C122.087,195.652,132.668,197.926,137.792,205.855z"/>
					<path style="fill:#FFE7DE;" d="M136.163,206.908c5.124,7.929,2.849,18.51-5.08,23.634c-7.929,5.124-18.51,2.849-23.634-5.08       c-5.124-7.929-2.849-18.51,5.08-23.634C120.458,196.705,131.039,198.979,136.163,206.908z"/>
					<path style="fill:#FF93E2;" d="M127.195,224.197c0.23-1.169,3.681-19.282-3.219-19.518c-4.464-0.152-4.965,4.186-4.785,7.175       c-2.651-1.393-6.812-2.718-8.508,1.414c-2.62,6.387,15.312,10.683,16.472,10.954l0.028,0.035c0,0,0.004-0.018,0.005-0.027       c0.009,0.002,0.027,0.006,0.027,0.006L127.195,224.197z"/>
				</g>
			</g>
			<g>
				
					<rect x="359.444" y="43.305" transform="matrix(0.8484 -0.5294 0.5294 0.8484 28.7932 201.8953)" style="fill:#FFE7DE;" width="14.762" height="14.762"/>
				
					<rect x="375.451" y="68.954" transform="matrix(0.8484 -0.5294 0.5294 0.8484 17.641 214.2578)" style="fill:#FFE7DE;" width="14.762" height="14.762"/>
				
					<rect x="352.704" y="65.079" transform="matrix(0.8484 -0.5294 0.5294 0.8484 16.2429 201.6277)" style="fill:#FFE7DE;" width="14.762" height="14.762"/>
				
					<rect x="381.604" y="47.044" transform="matrix(0.8484 -0.5294 0.5294 0.8484 30.1744 214.1943)" style="fill:#FFE7DE;" width="14.762" height="14.762"/>
			</g>
			<g>
				<path style="fill:#2E1144;" d="M434.368,109.22c7.414,11.473,4.123,26.784-7.35,34.198c-11.473,7.414-26.784,4.123-34.198-7.35      c-7.414-11.473-4.123-26.784,7.35-34.198C411.644,94.456,426.955,97.747,434.368,109.22z"/>
				<path style="fill:#FFE7DE;" d="M432.011,110.743c7.414,11.473,4.123,26.784-7.35,34.198c-11.473,7.414-26.784,4.123-34.198-7.35      c-7.414-11.473-4.123-26.784,7.35-34.198C409.287,95.979,424.597,99.27,432.011,110.743z"/>
				<path style="fill:#FF93E2;" d="M419.035,135.759c0.333-1.691,5.326-27.901-4.657-28.242c-6.46-0.22-7.185,6.057-6.924,10.383      c-3.837-2.015-9.858-3.933-12.311,2.046c-3.791,9.241,22.156,15.458,23.834,15.85l0.04,0.051c0,0,0.005-0.027,0.008-0.04      c0.013,0.003,0.039,0.009,0.039,0.009L419.035,135.759z"/>
			</g>
		</g>
		<g>
			<g>
				<g>
					<path style="fill:#FF93E2;" d="M215.222,370.668c-5.639,21.281-15.005,18.781-16.893,26.921       c-1.888,8.14-5.639,35.061-5.639,35.061L92.534,433.9l0.638-2.501c0,0,11.891-54.479,10.641-101.406       c-0.637-24.199-7.601-53.694-13.436-76.864c-0.245-0.981-0.49-1.962-0.735-2.918c-3.187-12.627-5.933-23.145-6.939-29.495       c-0.221-1.422-0.343-2.648-0.368-3.629c-0.074-1.692,0.172-2.697,0.809-2.918c5.639-1.863,18.781,1.888,29.421,20.669       c8.875,15.667,13.828,30.476,15.226,34.938c0.27,0.883,0.417,1.373,0.417,1.373s38.199,23.145,45.088,50.703l1.4,2.181       l41.002-22.066C215.698,301.969,220.861,349.387,215.222,370.668z"/>
				</g>
				<g>
					<path style="fill:#2E1144;" d="M96.261,240.037c-1.152,7.159-4.021,11.156-5.884,13.092c-0.245-0.981-0.49-1.962-0.735-2.918       c1.52-1.961,3.359-5.32,4.193-10.567c1.054-6.595-6.375-14.564-11.131-18.928c-0.221-1.422-0.343-2.648-0.368-3.629       C86.92,220.962,97.683,231.137,96.261,240.037z"/>
				</g>
				<g>
					<path style="fill:#2E1144;" d="M177.657,337.764c-0.565,0-1.074-0.393-1.197-0.97c-5.971-27.827-25.542-52.929-51.073-65.514       c-0.607-0.299-0.857-1.034-0.558-1.64c0.302-0.606,1.034-0.857,1.642-0.558c26.187,12.905,46.261,38.654,52.386,67.199       c0.142,0.661-0.279,1.312-0.941,1.456C177.829,337.755,177.742,337.764,177.657,337.764z"/>
				</g>
			</g>
			<path style="fill:#00DBDA;" d="M99.63,398.214c0,0,14.815,13.146,46.74,16.276c31.925,3.13,48.201-0.626,48.201-0.626     l2.504-10.016c0,0,19.406-0.626,19.406,8.764c0,9.39-1.252,36.933-1.252,36.933s26.292,14.398,25.666,46.949H52.472     c0,0-1.878-40.689,12.52-50.079c14.398-9.39,18.154-9.39,18.154-9.39s1.878-48.827,17.528-52.583L99.63,398.214z"/>
			
				<path style="fill:none;stroke:#2E1144;stroke-width:2.4518;stroke-linecap:round;stroke-linejoin:round;stroke-miterlimit:10;" d="     M95.874,396.754c0,0,15.858,17.528,54.67,19.197c38.811,1.669,55.922-4.173,55.922-4.173"/>
		</g>
		<g>
			<polygon style="opacity:0.28;fill:#B179FF;" points="375.888,160.55 215.222,265.609 210.637,268.625 153.878,186.416      316.628,82.509 318.81,85.378    "/>
			<polygon style="fill:#FFE7DE;" points="375.888,160.55 215.222,265.609 160.547,186.416 318.81,85.378    "/>
		</g>
		<g>
			<path style="fill:#2E1144;" d="M208.148,208.131c0.544,0.828,0.899,1.765,1.062,2.801c0.163,1.037,0.154,2.071-0.026,3.103     c-0.182,1.032-0.523,2.004-1.026,2.914c-0.502,0.915-1.146,1.659-1.93,2.239c0.166,0.29,0.384,0.649,0.655,1.075     c0.268,0.428,0.532,0.888,0.79,1.382c0.255,0.491,0.492,0.996,0.711,1.511c0.218,0.52,0.366,1.015,0.447,1.489     c0.081,0.474,0.071,0.912-0.031,1.31c-0.103,0.395-0.339,0.716-0.709,0.96c-0.431,0.283-0.865,0.361-1.305,0.244     c-0.443-0.12-0.858-0.333-1.251-0.649c-0.393-0.314-0.757-0.675-1.091-1.082c-0.334-0.409-0.609-0.761-0.826-1.058     c-0.324-0.429-0.631-0.852-0.921-1.279c-0.29-0.424-0.582-0.86-0.874-1.307c-0.132-0.201-0.376-0.572-0.734-1.118     c-0.359-0.548-0.764-1.173-1.215-1.877c-0.451-0.704-0.919-1.441-1.403-2.217c-0.484-0.771-0.924-1.492-1.324-2.167     c-0.396-0.673-0.728-1.255-0.994-1.741c-0.263-0.489-0.389-0.788-0.378-0.905c0.006-0.024,0.029-0.091,0.069-0.196     c0.042-0.103,0.092-0.211,0.15-0.328c0.056-0.113,0.109-0.218,0.154-0.314c0.047-0.098,0.08-0.165,0.102-0.199     c0.445-0.864,0.995-1.722,1.648-2.569c0.654-0.848,1.397-1.542,2.227-2.088c0.709-0.465,1.444-0.745,2.207-0.838     c0.764-0.093,1.504-0.038,2.22,0.163c0.713,0.201,1.384,0.544,2.008,1.027C207.184,206.898,207.713,207.468,208.148,208.131z      M204.505,211.279c-0.204-0.306-0.452-0.529-0.749-0.663c-0.298-0.136-0.617-0.093-0.955,0.129     c-0.292,0.191-0.546,0.441-0.763,0.749c-0.217,0.304-0.407,0.601-0.573,0.883c0.4,0.51,0.785,1.006,1.156,1.489     c0.371,0.481,0.719,1.003,1.042,1.563c0.165-0.287,0.34-0.608,0.528-0.958c0.186-0.354,0.336-0.711,0.451-1.073     c0.115-0.361,0.174-0.723,0.177-1.089C204.82,211.945,204.716,211.603,204.505,211.279z"/>
			<path style="fill:#2E1144;" d="M222.477,199.063c0.697,1.061,1.075,2.174,1.138,3.345c0.064,1.171-0.102,2.344-0.494,3.525     c0.488,0.208,1.025,0.469,1.61,0.792c0.583,0.321,1.16,0.687,1.725,1.097c0.565,0.41,1.093,0.845,1.58,1.305     c0.491,0.46,0.886,0.922,1.188,1.382c0.323,0.493,0.493,1.013,0.512,1.561c0.019,0.551-0.255,1.01-0.824,1.384     c-0.478,0.314-1.039,0.352-1.69,0.117c-0.648-0.232-1.316-0.582-2.004-1.044c-0.687-0.462-1.36-0.951-2.018-1.468     c-0.656-0.512-1.214-0.905-1.677-1.173c-0.217,0.273-0.418,0.556-0.603,0.84c-0.187,0.287-0.382,0.577-0.588,0.867     c0.206,0.347,0.484,0.828,0.834,1.449c0.351,0.615,0.651,1.259,0.905,1.93c0.253,0.67,0.388,1.307,0.408,1.908     c0.022,0.601-0.199,1.056-0.661,1.358c-0.506,0.333-1.036,0.383-1.584,0.151c-0.551-0.235-1.069-0.599-1.557-1.092     c-0.488-0.493-0.936-1.03-1.338-1.614c-0.405-0.584-0.717-1.044-0.939-1.382c-0.474-0.723-0.927-1.444-1.354-2.165     c-0.429-0.721-0.879-1.441-1.353-2.164c-0.436-0.661-0.88-1.315-1.336-1.961c-0.458-0.646-0.909-1.307-1.353-1.985     c-0.101-0.153-0.23-0.35-0.385-0.589c-0.157-0.237-0.307-0.491-0.45-0.761c-0.144-0.271-0.275-0.529-0.395-0.781     c-0.121-0.249-0.188-0.469-0.203-0.661c-0.056-0.421,0.092-0.958,0.447-1.611c0.354-0.646,0.785-1.3,1.292-1.954     c0.508-0.651,1.031-1.245,1.567-1.784c0.538-0.541,0.96-0.91,1.268-1.113c0.784-0.515,1.572-0.821,2.363-0.924     c0.792-0.101,1.553-0.034,2.281,0.206c0.728,0.239,1.407,0.618,2.034,1.14C221.451,197.715,222.003,198.34,222.477,199.063z      M218.42,202.186c-0.262-0.402-0.553-0.642-0.875-0.73c-0.321-0.086-0.688,0.007-1.104,0.28     c-0.309,0.201-0.584,0.457-0.828,0.773c-0.244,0.316-0.452,0.627-0.625,0.936c0.86,1.176,1.675,2.366,2.447,3.579     c0.253-0.321,0.492-0.675,0.72-1.068c0.226-0.39,0.402-0.802,0.525-1.235c0.125-0.433,0.177-0.862,0.158-1.293     C218.822,203.002,218.682,202.585,218.42,202.186z"/>
			<path style="fill:#2E1144;" d="M241.292,198.901c0.191,0.292,0.302,0.627,0.33,1.003c0.017,0.364-0.144,0.907-0.48,1.635     c-0.336,0.728-0.747,1.477-1.234,2.243c-0.485,0.771-0.978,1.477-1.477,2.126c-0.499,0.646-0.904,1.07-1.211,1.271     c-0.215,0.141-0.502,0.259-0.86,0.352c-0.358,0.091-0.733,0.156-1.126,0.194c-0.393,0.036-0.775,0.036-1.143-0.01     c-0.371-0.043-0.669-0.122-0.898-0.237c-0.132-0.067-0.332-0.244-0.596-0.534c-0.268-0.287-0.56-0.632-0.881-1.039     c-0.321-0.405-0.656-0.84-1.006-1.305c-0.348-0.464-0.676-0.905-0.988-1.331c-0.31-0.424-0.581-0.802-0.811-1.133     c-0.229-0.335-0.394-0.577-0.496-0.733c-0.372-0.567-0.783-1.238-1.229-1.999c-0.444-0.764-0.858-1.554-1.24-2.37     c-0.382-0.814-0.693-1.638-0.935-2.459c-0.239-0.819-0.341-1.583-0.299-2.291c0.016-0.211,0.137-0.498,0.357-0.862     c0.224-0.366,0.508-0.764,0.855-1.188c0.35-0.426,0.736-0.867,1.162-1.324c0.427-0.455,0.846-0.881,1.262-1.271     c0.413-0.393,0.795-0.742,1.145-1.049c0.348-0.304,0.624-0.524,0.824-0.654c0.231-0.151,0.484-0.247,0.757-0.283     c0.273-0.036,0.537-0.019,0.795,0.055s0.496,0.187,0.717,0.338c0.219,0.151,0.407,0.345,0.558,0.575     c0.132,0.201,0.215,0.388,0.253,0.563c0.036,0.175,0.057,0.381,0.06,0.618c-0.023,0.302-0.19,0.752-0.5,1.353     c-0.31,0.599-0.666,1.223-1.066,1.872c-0.401,0.646-0.796,1.252-1.185,1.815c-0.389,0.563-0.662,0.962-0.816,1.192     c0.171,0.395,0.34,0.797,0.508,1.204c0.169,0.407,0.358,0.804,0.569,1.192c0.316-0.555,0.703-1.142,1.161-1.748     c0.46-0.613,0.958-1.092,1.496-1.446c1.092-0.716,1.991-0.536,2.697,0.541c0.171,0.261,0.273,0.527,0.304,0.79     c0.031,0.268,0.016,0.529-0.044,0.79c-0.061,0.259-0.157,0.515-0.29,0.769c-0.132,0.247-0.262,0.493-0.39,0.733     c-0.321,0.587-0.688,1.149-1.099,1.698c-0.414,0.544-0.828,1.087-1.246,1.621c0.05,0.144,0.108,0.299,0.172,0.464     c0.066,0.168,0.143,0.321,0.233,0.457c0.144,0.218,0.298,0.421,0.471,0.618c0.172,0.194,0.344,0.388,0.516,0.584     c0.146-0.182,0.376-0.477,0.692-0.881c0.316-0.407,0.652-0.826,1.008-1.257c0.354-0.429,0.709-0.831,1.058-1.204     c0.35-0.371,0.624-0.622,0.824-0.754c0.231-0.151,0.48-0.242,0.746-0.275c0.266-0.031,0.52-0.01,0.764,0.06     c0.244,0.069,0.48,0.187,0.705,0.345C240.967,198.496,241.15,198.685,241.292,198.901z"/>
			<path style="fill:#2E1144;" d="M243.76,179.293c0.232,0.354,0.323,0.737,0.271,1.145c-0.051,0.407-0.175,0.8-0.372,1.168     c-0.165,0.352-0.332,0.718-0.498,1.101c-0.166,0.385-0.293,0.778-0.384,1.178c-0.089,0.4-0.115,0.792-0.078,1.188     c0.038,0.395,0.178,0.776,0.42,1.145c0.211,0.323,0.481,0.565,0.806,0.725c0.324,0.158,0.682,0.295,1.074,0.402     c0.389,0.11,0.807,0.206,1.252,0.299c0.445,0.093,0.888,0.232,1.328,0.417c0.439,0.184,0.874,0.433,1.299,0.747     c0.426,0.316,0.822,0.749,1.185,1.303c0.251,0.385,0.455,0.871,0.613,1.46c0.156,0.594,0.257,1.226,0.304,1.899     c0.044,0.673,0.03,1.365-0.043,2.074c-0.075,0.709-0.205,1.384-0.391,2.023c-0.186,0.639-0.436,1.221-0.751,1.745     c-0.315,0.527-0.689,0.929-1.12,1.211c-0.477,0.314-0.984,0.46-1.525,0.441c-0.541-0.017-0.983-0.29-1.325-0.812     c-0.232-0.354-0.363-0.738-0.389-1.147c-0.029-0.414-0.01-0.838,0.055-1.274c0.064-0.441,0.16-0.888,0.29-1.346     c0.128-0.46,0.23-0.898,0.305-1.322c0.073-0.424,0.103-0.831,0.084-1.228c-0.018-0.398-0.132-0.757-0.344-1.077     c-0.293-0.448-0.749-0.802-1.373-1.063c-0.622-0.263-1.289-0.517-2.004-0.766c-0.711-0.244-1.397-0.529-2.056-0.845     c-0.657-0.316-1.164-0.742-1.517-1.281c-0.435-0.663-0.713-1.473-0.839-2.438c-0.125-0.963-0.11-1.927,0.046-2.9     c0.154-0.972,0.448-1.882,0.877-2.739c0.429-0.852,0.983-1.501,1.659-1.944c0.539-0.354,1.107-0.496,1.701-0.426     C242.917,178.429,243.397,178.74,243.76,179.293z"/>
			<path style="fill:#2E1144;" d="M254.476,172.266c0.232,0.354,0.322,0.738,0.272,1.145c-0.053,0.407-0.176,0.797-0.373,1.169     c-0.165,0.35-0.332,0.718-0.498,1.101c-0.167,0.385-0.293,0.776-0.383,1.178c-0.09,0.397-0.116,0.793-0.079,1.188     c0.038,0.393,0.177,0.773,0.421,1.142c0.211,0.323,0.48,0.565,0.805,0.728c0.326,0.158,0.682,0.292,1.074,0.4     c0.389,0.11,0.806,0.208,1.253,0.302c0.444,0.091,0.887,0.232,1.327,0.417c0.439,0.184,0.874,0.433,1.3,0.747     c0.426,0.316,0.821,0.749,1.184,1.303c0.251,0.385,0.456,0.872,0.612,1.461c0.157,0.591,0.258,1.223,0.304,1.899     c0.046,0.673,0.031,1.365-0.042,2.074c-0.075,0.709-0.205,1.384-0.391,2.021c-0.186,0.639-0.436,1.223-0.752,1.748     c-0.314,0.524-0.687,0.929-1.118,1.212c-0.478,0.311-0.985,0.46-1.525,0.441c-0.542-0.019-0.984-0.29-1.327-0.812     c-0.232-0.354-0.361-0.737-0.389-1.149c-0.029-0.412-0.01-0.836,0.055-1.271c0.064-0.443,0.16-0.891,0.29-1.348     c0.128-0.457,0.229-0.898,0.305-1.319c0.074-0.424,0.103-0.831,0.084-1.231c-0.017-0.395-0.132-0.754-0.344-1.075     c-0.293-0.448-0.751-0.802-1.373-1.066c-0.622-0.261-1.29-0.515-2.004-0.764c-0.711-0.247-1.397-0.529-2.055-0.848     c-0.657-0.314-1.164-0.74-1.517-1.279c-0.435-0.663-0.714-1.473-0.839-2.437c-0.124-0.962-0.11-1.93,0.044-2.899     c0.156-0.972,0.448-1.884,0.879-2.739c0.429-0.855,0.983-1.501,1.659-1.947c0.539-0.352,1.106-0.496,1.702-0.424     C253.633,171.402,254.113,171.713,254.476,172.266z"/>
			<path style="fill:#2E1144;" d="M273.116,160.041c0.232,0.354,0.323,0.738,0.272,1.145c-0.053,0.407-0.176,0.797-0.372,1.168     c-0.166,0.35-0.332,0.718-0.499,1.101c-0.166,0.385-0.293,0.776-0.383,1.178c-0.09,0.398-0.116,0.793-0.078,1.188     c0.037,0.393,0.177,0.773,0.42,1.142c0.211,0.323,0.48,0.565,0.806,0.728c0.324,0.158,0.682,0.292,1.073,0.4     c0.389,0.11,0.807,0.208,1.254,0.302c0.444,0.091,0.887,0.232,1.326,0.417c0.441,0.184,0.874,0.433,1.3,0.747     c0.426,0.316,0.822,0.749,1.185,1.302c0.251,0.385,0.455,0.872,0.612,1.461c0.156,0.591,0.257,1.223,0.304,1.899     c0.044,0.673,0.03,1.365-0.042,2.074c-0.075,0.709-0.206,1.384-0.393,2.021c-0.184,0.639-0.436,1.223-0.751,1.748     c-0.315,0.524-0.688,0.929-1.119,1.212c-0.476,0.311-0.984,0.46-1.525,0.441c-0.541-0.019-0.983-0.29-1.325-0.812     c-0.232-0.354-0.363-0.738-0.389-1.149c-0.029-0.412-0.011-0.836,0.055-1.271c0.062-0.443,0.16-0.891,0.289-1.348     c0.128-0.457,0.23-0.898,0.305-1.319c0.074-0.424,0.103-0.831,0.085-1.231c-0.018-0.395-0.132-0.754-0.344-1.075     c-0.293-0.448-0.751-0.802-1.374-1.065c-0.622-0.261-1.289-0.515-2.003-0.764c-0.712-0.247-1.398-0.529-2.055-0.848     c-0.659-0.314-1.164-0.74-1.518-1.279c-0.433-0.663-0.714-1.473-0.838-2.437c-0.126-0.963-0.11-1.93,0.044-2.9     c0.156-0.972,0.448-1.884,0.878-2.739c0.428-0.855,0.983-1.501,1.659-1.947c0.539-0.352,1.107-0.496,1.702-0.424     C272.273,159.176,272.753,159.488,273.116,160.041z"/>
			<path style="fill:#2E1144;" d="M286.566,151.847c0.251,0.385,0.332,0.833,0.24,1.346c-0.095,0.512-0.273,1.027-0.541,1.542     c-0.266,0.517-0.572,0.998-0.917,1.441c-0.347,0.448-0.645,0.797-0.897,1.053c0.655,1.264,1.333,2.507,2.035,3.73     c0.703,1.221,1.444,2.426,2.22,3.608c0.413,0.632,0.837,1.245,1.271,1.839c0.435,0.596,0.854,1.202,1.258,1.817     c0.181,0.278,0.353,0.599,0.517,0.965c0.162,0.366,0.274,0.738,0.335,1.116c0.061,0.376,0.042,0.742-0.059,1.092     c-0.101,0.352-0.32,0.637-0.657,0.86c-0.4,0.263-0.792,0.362-1.177,0.295c-0.384-0.065-0.748-0.22-1.091-0.455     c-0.342-0.237-0.656-0.522-0.939-0.852c-0.284-0.333-0.522-0.644-0.714-0.936c-0.636-0.903-1.267-1.812-1.892-2.734     c-0.626-0.92-1.247-1.851-1.863-2.789c-0.515-0.785-1.015-1.556-1.501-2.313c-0.487-0.761-0.988-1.532-1.503-2.315     c-0.195,0.172-0.4,0.338-0.612,0.5c-0.213,0.16-0.436,0.316-0.667,0.467c-0.184,0.122-0.439,0.261-0.765,0.419     c-0.323,0.158-0.657,0.278-1.001,0.362c-0.341,0.081-0.67,0.101-0.988,0.053c-0.315-0.045-0.564-0.206-0.747-0.486     c-0.302-0.46-0.385-0.982-0.251-1.566c0.134-0.582,0.4-1.183,0.794-1.805c0.395-0.622,0.878-1.247,1.446-1.872     c0.567-0.627,1.155-1.207,1.759-1.745c0.603-0.541,1.171-1.018,1.701-1.432c0.532-0.414,0.952-0.723,1.259-0.924     c0.292-0.192,0.609-0.386,0.958-0.577c0.345-0.196,0.699-0.335,1.062-0.417c0.363-0.084,0.711-0.084,1.045,0.007     C286.021,151.227,286.312,151.464,286.566,151.847z"/>
			<path style="fill:#2E1144;" d="M307.247,155.937c0.202,0.309,0.417,0.697,0.645,1.161c0.23,0.467,0.395,0.948,0.499,1.441     c0.104,0.493,0.113,0.96,0.028,1.401c-0.085,0.441-0.344,0.802-0.775,1.085c-0.569,0.374-1.131,0.445-1.689,0.218     c-0.555-0.23-1.086-0.591-1.586-1.089c-0.502-0.496-0.96-1.034-1.377-1.621c-0.418-0.587-0.749-1.049-0.997-1.391     c-0.987,0.91-1.973,1.786-2.958,2.634c0.2,0.371,0.423,0.852,0.667,1.441c0.243,0.591,0.419,1.195,0.529,1.815     c0.11,0.62,0.115,1.216,0.017,1.789c-0.098,0.57-0.385,1.01-0.863,1.324c-0.369,0.242-0.746,0.297-1.129,0.165     c-0.383-0.134-0.753-0.35-1.101-0.649c-0.352-0.299-0.666-0.637-0.946-1.015c-0.28-0.378-0.506-0.694-0.678-0.955     c-0.576-0.879-1.074-1.789-1.494-2.732c-0.423-0.946-0.818-1.904-1.189-2.868c-0.201-0.508-0.42-1.111-0.66-1.812     c-0.239-0.699-0.457-1.441-0.652-2.227c-0.196-0.785-0.348-1.587-0.457-2.406c-0.109-0.821-0.133-1.604-0.071-2.346     c0.062-0.745,0.238-1.434,0.528-2.062c0.291-0.632,0.736-1.145,1.336-1.537c0.584-0.383,1.178-0.584,1.78-0.608     c0.603-0.019,1.207,0.079,1.812,0.297c0.606,0.218,1.195,0.532,1.768,0.939c0.572,0.402,1.117,0.838,1.63,1.302     c0.516,0.467,1,0.936,1.453,1.41c0.453,0.474,0.854,0.891,1.202,1.255c0.857,0.872,1.689,1.769,2.499,2.701     C305.829,153.928,306.573,154.91,307.247,155.937z M299.117,153.253c-0.122-0.187-0.333-0.481-0.633-0.888     c-0.301-0.409-0.628-0.797-0.98-1.171c-0.357-0.374-0.722-0.673-1.1-0.895c-0.378-0.225-0.708-0.247-0.984-0.065     c-0.153,0.101-0.231,0.299-0.233,0.599c-0.002,0.297,0.046,0.642,0.145,1.025c0.099,0.388,0.232,0.8,0.401,1.24     c0.166,0.441,0.335,0.855,0.505,1.25c0.171,0.395,0.335,0.745,0.491,1.049c0.156,0.309,0.266,0.524,0.333,0.658     c0.872-0.685,1.705-1.391,2.495-2.133L299.117,153.253z"/>
			<path style="fill:#2E1144;" d="M316.649,137.299c0.697,1.061,1.076,2.174,1.139,3.345c0.063,1.171-0.102,2.344-0.493,3.524     c0.488,0.208,1.025,0.469,1.609,0.792c0.584,0.321,1.161,0.687,1.725,1.097c0.566,0.41,1.094,0.845,1.581,1.305     c0.49,0.46,0.886,0.922,1.188,1.382c0.323,0.493,0.493,1.013,0.512,1.561c0.019,0.551-0.256,1.01-0.825,1.384     c-0.477,0.314-1.039,0.352-1.689,0.117c-0.648-0.232-1.316-0.582-2.004-1.044c-0.688-0.462-1.36-0.951-2.018-1.468     c-0.656-0.515-1.215-0.905-1.678-1.173c-0.216,0.273-0.417,0.555-0.603,0.84c-0.186,0.287-0.381,0.577-0.587,0.864     c0.206,0.35,0.484,0.831,0.833,1.451c0.351,0.615,0.651,1.259,0.905,1.93c0.253,0.67,0.388,1.307,0.409,1.908     c0.022,0.601-0.199,1.056-0.661,1.358c-0.508,0.333-1.037,0.383-1.585,0.151c-0.551-0.235-1.068-0.599-1.556-1.092     c-0.489-0.496-0.936-1.03-1.339-1.614c-0.405-0.584-0.718-1.044-0.939-1.382c-0.474-0.723-0.927-1.444-1.354-2.164     c-0.429-0.721-0.879-1.441-1.353-2.165c-0.436-0.661-0.88-1.314-1.337-1.961c-0.458-0.649-0.907-1.307-1.352-1.985     c-0.101-0.153-0.23-0.35-0.385-0.589c-0.157-0.237-0.308-0.493-0.451-0.761c-0.142-0.271-0.275-0.532-0.395-0.781     c-0.12-0.249-0.187-0.469-0.202-0.661c-0.057-0.421,0.092-0.958,0.445-1.611c0.355-0.646,0.785-1.3,1.292-1.954     c0.508-0.651,1.032-1.245,1.567-1.784c0.539-0.541,0.96-0.912,1.268-1.113c0.785-0.515,1.573-0.821,2.364-0.924     c0.791-0.101,1.553-0.033,2.281,0.204c0.728,0.242,1.405,0.62,2.034,1.142C315.623,135.951,316.175,136.576,316.649,137.299z      M312.592,140.422c-0.261-0.402-0.553-0.644-0.874-0.73c-0.321-0.089-0.69,0.007-1.105,0.278     c-0.308,0.204-0.584,0.46-0.827,0.773c-0.245,0.318-0.452,0.63-0.625,0.936c0.858,1.178,1.674,2.368,2.447,3.579     c0.251-0.318,0.492-0.675,0.718-1.066c0.228-0.39,0.402-0.802,0.527-1.235c0.123-0.433,0.176-0.864,0.158-1.293     C312.994,141.236,312.856,140.821,312.592,140.422z"/>
			<path style="fill:#2E1144;" d="M327.435,125.04c0.254,0.385,0.333,0.836,0.239,1.348c-0.093,0.512-0.272,1.027-0.539,1.542     c-0.267,0.517-0.573,0.998-0.919,1.441c-0.345,0.448-0.644,0.797-0.896,1.051c0.655,1.267,1.333,2.507,2.035,3.73     s1.444,2.428,2.219,3.611c0.413,0.632,0.837,1.245,1.271,1.839c0.435,0.596,0.854,1.2,1.258,1.815     c0.181,0.278,0.353,0.601,0.516,0.967c0.163,0.364,0.275,0.738,0.336,1.113c0.061,0.378,0.042,0.745-0.059,1.094     c-0.101,0.352-0.32,0.637-0.657,0.86c-0.4,0.261-0.792,0.361-1.177,0.294c-0.385-0.065-0.749-0.22-1.092-0.455     c-0.341-0.237-0.655-0.522-0.937-0.855c-0.284-0.33-0.522-0.642-0.714-0.934c-0.636-0.903-1.265-1.815-1.892-2.737     c-0.626-0.917-1.247-1.848-1.863-2.787c-0.515-0.785-1.015-1.556-1.502-2.313c-0.486-0.761-0.986-1.535-1.501-2.318     c-0.195,0.175-0.4,0.34-0.612,0.503c-0.213,0.161-0.436,0.316-0.667,0.467c-0.184,0.122-0.438,0.261-0.765,0.419     c-0.324,0.158-0.657,0.278-1.001,0.362c-0.341,0.081-0.67,0.098-0.988,0.053c-0.315-0.046-0.564-0.206-0.747-0.486     c-0.302-0.46-0.385-0.982-0.251-1.566c0.134-0.582,0.4-1.185,0.795-1.805c0.395-0.622,0.876-1.247,1.445-1.872     c0.569-0.627,1.155-1.207,1.759-1.748c0.603-0.539,1.171-1.015,1.701-1.429c0.532-0.414,0.952-0.723,1.259-0.924     c0.292-0.194,0.609-0.385,0.957-0.577c0.346-0.196,0.7-0.335,1.063-0.417c0.363-0.086,0.711-0.084,1.045,0.005     C326.891,124.423,327.183,124.657,327.435,125.04z"/>
		</g>
		<g>
			<path style="fill:#FFE7DE;" d="M102.9,152.272l44.076-42.699l-21.524-28.536l-22.916,19.595L79.944,79.586l-21.896,29.987     l44.569,42.559c0.01,0.239,0.016,0.399,0.016,0.399l0.2-0.193l0.064,0.061C102.896,152.399,102.897,152.343,102.9,152.272z"/>
			<path style="fill:#FFE7DE;" d="M360.181,278.095l44.077-42.699l-21.524-28.536l-22.916,19.595l-22.592-21.046l-21.896,29.987     l44.569,42.559c0.01,0.239,0.016,0.399,0.016,0.399l0.2-0.193l0.064,0.061C360.178,278.223,360.179,278.167,360.181,278.095z"/>
			<path style="fill:#FFE7DE;" d="M217.035,367.69l30.745-29.784l-15.014-19.905l-15.985,13.668l-15.759-14.68l-15.273,20.917     l31.088,29.687c0.007,0.167,0.011,0.278,0.011,0.278l0.139-0.135l0.045,0.043C217.033,367.779,217.034,367.74,217.035,367.69z"/>
		</g>
	</g>
</g>















</svg>
