<?xml version="1.0" encoding="UTF-8"?>
<!-- Generator: Adobe Illustrator 27.2.0, SVG Export Plug-In . SVG Version: 6.00 Build 0)  -->
<svg xmlns="http://www.w3.org/2000/svg" xmlns:xlink="http://www.w3.org/1999/xlink" version="1.1" id="Capa_1" x="0px" y="0px" viewBox="0 0 512 512" style="enable-background:new 0 0 512 512;" xml:space="preserve" width="512" height="512">
<g>
	<g>
		<path style="fill:#FFFFFF;" d="M219.085,502.327c-0.407,0.035-0.821,0.066-1.239,0.082c-8.013,0.624-16.119,0.941-24.102,0.941    c-2.413,0-4.826-0.028-7.237-0.087c-38.473-0.953-75.198-9.325-106.218-24.213c-8.91-4.271-17.336-9.061-25.038-14.241    c-17.122-11.525-30.563-24.751-39.96-39.314c-29.076-45.152-15.619-103.669,31.295-136.129    c10.973-7.591,23.342-13.723,35.303-19.652c20.173-10,39.226-19.448,47.671-33.651c8.396-14.106,6.204-32.762-7.326-62.384    c-1.087-2.367-2.21-4.768-3.334-7.178c-10.918-23.378-23.293-49.877-18.187-77.41c5.3-28.632,29.501-53.982,64.736-67.808    c21.448-8.385,46.613-12.634,74.814-12.634c8.374,0,17.076,0.382,25.864,1.135c10.284,0.887,20.585,2.26,30.624,4.084l1.573,0.288    c1.422,0.26,2.854,0.522,4.286,0.824c9.85,1.959,19.828,4.426,29.506,7.301c1.72,0.48,3.633,1.072,5.546,1.667    c28.628,8.967,55.224,21.337,79.078,36.775c2.007,1.294,4.06,2.659,6.125,4.068l30.963-40.627    c2.777-3.644,7.058-5.695,11.498-5.695c1.241,0,2.493,0.16,3.729,0.491l9.051,2.416c3.941,1.005,7.344,3.644,9.267,7.349    c2.486,4.791,2.109,10.567-0.996,14.981l-32.334,45.943c0.733,0.684,2.886,2.726,2.886,2.726c1.999,1.928,4.05,3.991,6.257,6.293    l0.999,1.045c2.044,2.16,4.018,4.331,5.867,6.451l0.848,0.987c2.175,2.524,4.046,4.78,5.717,6.899    c11.916,15.068,21.038,31.049,27.102,47.489c24.251,65.789-10.287,141.366-33.033,180.562    c-9.844,16.965-21.269,33.048-33.966,47.813c-0.356,0.473-0.74,0.927-1.149,1.36c-8.51,9.833-17.561,19.128-26.908,27.632    c-1.094,1.028-2.366,2.167-3.665,3.306c-25.32,22.49-54.143,41.027-85.601,55.037c-25.864,11.518-55.228,19.634-84.916,23.467    c-5.019,0.656-10.118,1.193-15.137,1.593"/>
	</g>
	<g>
		<g>
			<path style="fill:#86DFD1;" d="M458.885,333.631c-9.325,16.071-20.312,31.637-32.938,46.238     c-0.048,0.121-0.145,0.241-0.265,0.337c-8.024,9.301-16.698,18.288-26.047,26.794c-1.132,1.06-2.289,2.096-3.47,3.132     c-23.493,20.866-50.889,38.865-81.947,52.696c-24.673,10.987-52.334,18.65-80.887,22.336c-4.795,0.626-1.76-7.309-6.604-6.923     c-0.361,0.024-6.382-1.846-6.767-1.846c-10.024,0.795-21.918-1.912-31.99-2.153c-35.01-0.867-61.654-5.911-92.279-20.609     c-8.144-3.903-24.399,2.857-31.676-2.034c-14.674-9.879-27.203-21.71-35.877-35.155C3.079,377.531,15.633,327.63,55.51,300.041     c28.842-19.951,70.815-30.287,87.175-57.804c13.71-23.035,4.723-50.985-6.602-75.779c-11.373-24.77-25.179-50.479-20.456-75.947     c4.626-24.986,27.372-45.828,55.804-56.984c28.408-11.108,61.828-13.325,94.163-10.554c9.783,0.843,19.589,2.145,29.275,3.903     c1.807,0.337,3.638,0.651,5.47,1.036c9.566,1.904,19.035,4.241,28.36,7.012c1.807,0.506,3.59,1.06,5.373,1.614     c27.155,8.506,52.84,20.432,75.513,35.106c0,0,18.505,25.868,20.144,27.217c1.325,1.036,36.238,22.925,36.238,22.925     c10.746,13.589,19.228,28.191,24.89,43.539C510.833,219.518,487.004,285.176,458.885,333.631z"/>
		</g>
		<g>
			<g>
				<path style="fill:#A27CFF;" d="M352.963,113.765l-0.121-0.024C352.795,112.729,352.915,113.524,352.963,113.765z"/>
			</g>
			<g>
				<path style="fill:#A27CFF;" d="M352.963,113.765l0.048,0.024C353.036,113.861,353.012,113.837,352.963,113.765z"/>
			</g>
			<g>
				<path style="fill:#FBEEE5;" d="M484.184,154.437l-37.42-15.638l3.807,40.865L429.2,144.582l-20.963,35.323l3.373-40.913      l-36.142,15.252h-0.12l2.651-2.891l22.625-27.275l-47.612-10.288c0.024-0.072,0.024-0.217,0.024-0.458l47.491-7.783      l-27.059-30.841l37.877,15.83l-1.759-18.89c22.191,14.312,41.467,31.251,56.382,50.142l-8.409,2l26.625,30.311L484.184,154.437      L484.184,154.437z"/>
			</g>
			<g>
				<polygon style="fill:#FFC945;" points="279.764,401.917 273.77,339.15 297.099,397.728 344.023,388.45 307.265,412.072       327.899,450.326 293.518,421.939 260.949,464.391 274.986,417.76 237.323,411.193     "/>
			</g>
			<g>
				<g>
					<g>
						<path style="fill:#FF9393;" d="M198.02,250.108l158.309-25.018c0,0,6.972,7.382-0.82,21.327l4.101,0.41        c0,0,7.177,24.402-15.79,37.937s-54.342,22.352-54.342,22.352l20.917,83.256c0,0-6.972,13.124-26.248,2.051        s-43.473-61.929-43.473-61.929l-48.395,16.815L198.02,250.108z"/>
					</g>
					<g>
						<polygon style="fill:#2F2444;" points="436.898,88.675 226.718,387.307 211.972,365.14 424.73,85.904       "/>
					</g>
					<g>
						<g>
							<path style="fill:#2F2444;" d="M212.372,321.531c-0.599,0-1.135-0.417-1.264-1.026c-0.146-0.699,0.301-1.384,0.999-1.53         c1.141-0.24,114.326-24.095,131.088-35.486c20.422-13.876,16.566-31.658,15.448-35.46l-3.264-0.327         c-0.711-0.071-1.228-0.704-1.158-1.414c0.071-0.711,0.701-1.233,1.414-1.155l4.101,0.41c0.485,0.047,0.9,0.365,1.077,0.819         c0.087,0.223,8.392,22.58-16.166,39.265c-17.179,11.676-127.328,34.895-132.008,35.876         C212.55,321.522,212.461,321.531,212.372,321.531z"/>
						</g>
						<g>
							<path style="fill:#2F2444;" d="M219.96,290.773c-0.606,0-1.147-0.428-1.267-1.045c-0.135-0.701,0.322-1.379,1.022-1.515         c0.824-0.16,82.597-16.043,100.492-20.895c18.149-4.922,28.054-11.167,34.188-21.556c4.914-8.32,2.225-16.636,1.159-19.241         l-93.25,14.711c-0.698,0.122-1.366-0.369-1.478-1.073c-0.111-0.706,0.371-1.367,1.075-1.478l94.225-14.866         c0.554-0.089,1.09,0.186,1.345,0.675c0.24,0.456,5.797,11.327-0.851,22.584c-6.428,10.887-17.117,17.685-35.739,22.737         c-17.985,4.875-99.85,20.777-100.675,20.937C220.124,290.766,220.041,290.773,219.96,290.773z"/>
						</g>
						<g>
							<path style="fill:#2F2444;" d="M326.874,242.338c-12.271,0-19.877-8.52-20.22-8.911c-0.469-0.536-0.415-1.353,0.12-1.821         c0.538-0.475,1.353-0.417,1.822,0.118c0.081,0.094,8.364,9.325,21.03,7.873c12.887-1.464,25.621-15.238,25.748-15.377         c0.481-0.532,1.299-0.562,1.825-0.082s0.564,1.296,0.082,1.824c-0.546,0.598-13.506,14.629-27.363,16.205         C328.875,242.284,327.859,242.338,326.874,242.338z"/>
						</g>
					</g>
					<g>
						<path style="fill:#FF9393;" d="M221.807,482.855c2.265-4.482,2.61-6.967,6.417-14.22c0.048-0.048,0.072-0.12,0.12-0.193        c1.759-3.349,3.638-6.915,5.59-10.578c7.614-14.336,16.288-30.456,23.228-43.202c1.735-3.205,3.349-6.192,4.819-8.867        c3.373-6.168,5.951-10.819,7.204-12.963c0.867-1.494,2.699-4.53,5.229-8.65c0.94-1.566,2.024-3.301,3.156-5.18        c1.446-2.337,3.012-4.891,4.723-7.614c0.072-0.145,0.169-0.289,0.265-0.434c0.747-1.229,1.542-2.506,2.337-3.831        c4.265-6.867,9.06-14.602,13.999-22.529c1.181-1.928,2.385-3.855,3.59-5.807c0.024-0.048,0.072-0.121,0.096-0.169        c3.132-5.012,6.289-10.072,9.349-14.987c7.831-12.553,15.156-24.312,20.457-32.769c0,0,0-0.024,0.024-0.024        c0.265-0.482,0.554-0.916,0.819-1.349c3.759-6.024,6.337-10.144,7.06-11.325c0.169-0.241,0.241-0.361,0.241-0.361        c-0.434-0.771-0.916-1.47-1.397-2.12c-0.024-0.048-0.048-0.072-0.072-0.12c-7.18-9.686-19.228-8.168-32.721-1.373        l-0.024,0.024c-1.422,0.675-2.819,1.446-4.265,2.265c-0.072,0.024-0.121,0.048-0.169,0.096        c-14.529,8.289-30.215,21.71-43.058,33.275c-5.783,5.156-10.939,9.927-15.18,13.71l-0.024,0.024        c-2.024,1.807-3.831,3.373-5.397,4.65c-20.312,16.626-28.721,0.627-28.721,0.627l0.385-1.807l4.795-21.902l0.024-0.169        l6.482-29.661l1.976-2.409l0.024-0.024l2.482-3.012l0.048-0.048l15.156-18.481l17.035-10.698l1.132-0.723l0.096-0.072        c0,0,0.024-0.024,0.072-0.048l28.528-17.902c0.024,0,0.048,0,0.048-0.024l1.084-0.675c0,0,0.265-0.072,0.747-0.217        c0.048-0.024,0.096-0.024,0.121-0.048c2.265-0.699,8.795-2.699,16.77-5.71c0.048-0.024,0.096-0.024,0.145-0.048        c10.048-3.783,22.312-9.06,31.034-15.059c0.024,0,0.024-0.024,0.048-0.024c2.795-1.928,5.229-3.927,7.108-5.976        c4.313-4.699,7.06-9.951,8.819-14.939c0-0.024,0-0.024,0-0.024c2.554-7.301,2.964-14.023,2.964-17.541        c0-0.41,0-0.771-0.024-1.084c-0.024-0.482-0.048-0.964-0.072-1.47c0,0-110.74,35.058-119.342,39.371        c-8.602,4.313-21.541,18.457-47.371,39.371s-43.058,24.601-51.057,33.227c-7.999,8.602-11.686,55.973-23.372,98.428        c-4.819,17.517-11.541,35.371-17.782,50.286c-8.843,21.204-16.674,36.456-16.674,36.456s66.65,18.344,106.117,29.114        L221.807,482.855z"/>
					</g>
					<g>
						<g>
							<path style="fill:#2F2444;" d="M209.504,326.044c-0.109,0-0.22-0.014-0.331-0.042c-0.689-0.181-1.101-0.889-0.92-1.579         l13.944-52.908c0.065-0.245,0.199-0.464,0.387-0.633l35.681-31.989c1.144-0.875,26.349-19.968,44.46-24.083         c20.6-4.683,54.816-18.142,52.518-55.67c-0.044-0.713,0.499-1.325,1.211-1.369c0.685-0.059,1.325,0.496,1.368,1.21         c2.414,39.437-33.126,53.484-54.525,58.348c-17.562,3.993-43.131,23.361-43.387,23.556l-35.313,31.665l-13.845,52.534         C210.599,325.661,210.076,326.044,209.504,326.044z"/>
						</g>
						<g>
							<path style="fill:#2F2444;" d="M223.036,479.021c-0.224,0-0.449-0.057-0.655-0.179c-0.614-0.362-0.819-1.155-0.457-1.769         c0.094-0.16,9.553-16.222,20.891-37.277l0.698-1.297c12.313-22.871,41.147-76.428,60.489-104.234         c17.783-25.563,32.719-51.766,35.24-56.232c-2.755-4.242-6.45-6.64-11.273-7.323c-23.22-3.235-63.89,34.432-81.256,50.538         c-3.453,3.202-5.948,5.516-7.296,6.57c-9.857,7.713-43.641-3.019-45.074-3.478c-0.679-0.219-1.053-0.946-0.834-1.626         c0.218-0.68,0.945-1.054,1.625-0.835c9.403,3.021,35.4,9.615,42.691,3.906c1.262-0.988,3.725-3.273,7.132-6.433         c17.633-16.353,58.922-54.658,83.373-51.199c5.796,0.819,10.345,3.908,13.52,9.179c0.239,0.395,0.247,0.889,0.021,1.294         c-0.16,0.287-16.251,29.088-35.749,57.117c-19.257,27.683-48.042,81.149-60.334,103.98l-0.698,1.297         c-11.364,21.104-20.847,37.206-20.941,37.366C223.909,478.795,223.479,479.021,223.036,479.021z"/>
						</g>
						<g>
							<path style="fill:#2F2444;" d="M321.156,183.014c-9.283,0-15.63-5.793-15.949-6.09c-0.522-0.487-0.551-1.301-0.066-1.824         c0.482-0.525,1.301-0.555,1.825-0.068c0.084,0.075,8.564,7.753,19.688,4.626c11.506-3.247,27.542-20.382,27.703-20.556         c0.486-0.52,1.302-0.548,1.826-0.066c0.522,0.485,0.552,1.304,0.066,1.826c-0.675,0.727-16.69,17.838-28.894,21.281         C325.18,182.757,323.103,183.014,321.156,183.014z"/>
						</g>
						<g>
							<path style="fill:#2F2444;" d="M311.931,324.915c-0.634,0-1.187-0.466-1.278-1.111         c-5.017-35.427,29.347-46.924,29.694-47.037c0.68-0.221,1.406,0.155,1.626,0.833c0.219,0.68-0.154,1.407-0.833,1.626         c-1.334,0.433-32.636,10.967-27.929,44.216c0.1,0.706-0.392,1.36-1.098,1.461         C312.052,324.91,311.991,324.915,311.931,324.915z"/>
						</g>
					</g>
					<g>
						<polygon style="fill:#FBEEE5;" points="475.257,34.172 436.898,88.675 424.73,85.904 466.029,31.714 475.233,34.172       "/>
					</g>
				</g>
				<g>
					<path style="fill:#A27CFF;" d="M244.777,460.925l-11.445,24.239c-4.795,0.626-9.59,1.132-14.433,1.518       c-0.361,0.024-0.747,0.072-1.132,0.072c-10.024,0.795-20.144,1.084-30.215,0.843c-35.01-0.867-69.682-8.096-100.307-22.794       c-8.144-3.903-15.951-8.313-23.227-13.204l16.698-39.901c0,0,9.879,1.422,16.891,8.048c4.964,4.674,8.457,11.951,6.096,23.131       c0,0,10.65-24.625,30.336-14.77c19.686,9.831,9.855,37.733,9.855,37.733s21.324-33.637,39.371-22.143       c18.047,11.469,7.373,41.01,7.373,41.01s23.589-26.456,43.299-26.842c0.145-0.024,0.265-0.024,0.41-0.024       C238.03,457.816,241.573,458.732,244.777,460.925z"/>
				</g>
			</g>
			<g>
				<polygon style="fill:#FFC945;" points="217.372,91.048 240.096,32.233 234.749,95.058 280.865,107.756 237.422,112.435       238.759,155.878 220.713,115.109 172.592,138.501 206.009,103.078 175.265,80.354     "/>
			</g>
			<g>
				<polygon style="fill:#FFC945;" points="405.878,277.033 399.884,214.266 423.213,272.844 470.137,263.566 433.379,287.189       454.013,325.442 419.632,297.056 387.063,339.507 401.1,292.876 363.437,286.31     "/>
			</g>
			<g>
				<g>
					<g>
						<path style="fill:#FFFFFF;" d="M452.807,213.066c-5.038-2.713-8.775-7.444-11.173-12.64        c-2.397-5.196-3.358-9.984-4.234-15.639c-1.199,5.966-3.019,11.856-5.994,17.164c-2.975,5.308-7.159,10.028-12.428,13.072        c4.857,0.799,8.809,3.514,11.806,7.42c1.46,1.903,2.465,4.115,3.301,6.363c1.292,3.472,2.211,7.083,2.737,10.75        c1.101-5.176,2.427-10.823,5.27-15.286C444.935,219.806,447.833,214.872,452.807,213.066z"/>
					</g>
				</g>
				<g>
					<g>
						<path style="fill:#FFFFFF;" d="M353.146,387.371c-5.038-2.713-8.775-7.444-11.173-12.64        c-2.397-5.196-3.358-9.984-4.234-15.639c-1.199,5.966-3.019,11.856-5.994,17.164c-2.975,5.308-7.159,10.028-12.428,13.072        c4.857,0.799,8.809,3.513,11.805,7.419c1.46,1.903,2.465,4.115,3.302,6.363c1.292,3.472,2.211,7.083,2.737,10.75        c1.101-5.176,2.427-10.823,5.27-15.286C345.274,394.111,348.172,389.176,353.146,387.371z"/>
					</g>
				</g>
				<g>
					<g>
						<path style="fill:#FFFFFF;" d="M102.149,343.487c-5.038-2.713-8.775-7.444-11.173-12.64        c-2.397-5.196-3.358-9.984-4.234-15.639c-1.199,5.966-3.019,11.856-5.994,17.164c-2.975,5.308-7.159,10.028-12.428,13.072        c4.858,0.799,8.809,3.514,11.806,7.42c1.46,1.903,2.465,4.115,3.301,6.363c1.292,3.472,2.211,7.083,2.737,10.75        c1.101-5.176,2.427-10.823,5.27-15.286C94.277,350.227,97.175,345.292,102.149,343.487z"/>
					</g>
				</g>
			</g>
		</g>
	</g>
</g>
</svg>
