<svg height="512pt" viewBox="-108 0 512 512.001" width="512pt" xmlns="http://www.w3.org/2000/svg"><path d="m225 257.5v-2.386719c39.226562-3.785156 70-36.925781 70-77.128906 0-4.144531-3.355469-7.5-7.5-7.5s-7.5 3.355469-7.5 7.5c0 31.921875-24.0625 58.3125-55 62.03125v-12.515625c0-4.144531-3.355469-7.5-7.5-7.5h-44.371094c14.320313-11.917969 21.871094-28.246094 21.871094-47.53125v-20c0-28.949219-23.550781-52.5-52.5-52.5s-52.5 23.550781-52.5 52.5v20c0 19.285156 7.550781 35.613281 21.871094 47.53125h-44.371094c-4.140625 0-7.5 3.355469-7.5 7.5v12.46875h-37.5c-4.136719 0-7.5-3.363281-7.5-7.5s3.363281-7.5 7.5-7.5h15c4.140625 0 7.5-3.359375 7.5-7.5v-22.46875h22.5c4.140625 0 7.5-3.355469 7.5-7.5s-3.359375-7.5-7.5-7.5h-7.5v-157.5c0-1.988281-.789062-3.894531-2.195312-5.304688l-15-15c-2.929688-2.925781-7.679688-2.925781-10.605469 0l-15 15c-1.410157 1.40625-2.199219 3.316407-2.199219 5.304688v157.5h-7.5c-4.140625 0-7.5 3.355469-7.5 7.5s3.359375 7.5 7.5 7.5h22.5v14.96875h-7.5c-12.40625 0-22.5 10.09375-22.5 22.5s10.09375 22.5 22.5 22.5h37.5v2.53125c0 12.40625 10.09375 22.5 22.5 22.5 2.628906 0 5.152344-.457031 7.5-1.289062v26.050781c-9.691406 11.992187-14.996094 26.90625-14.996094 42.3125l-.003906 35.425781c0 1.988281.789062 3.894531 2.195312 5.304688 1.40625 1.40625 3.316407 2.195312 5.304688 2.195312h22.5v42h-22.5c-4.140625 0-7.5 3.355469-7.5 7.5v54.59375l-9.871094 3.289062c-3.929687 1.3125-6.054687 5.558594-4.746094 9.488282 1.050782 3.144531 3.976563 5.128906 7.117188 5.128906.785156 0 1.585938-.125 2.371094-.386719l45-15c3.0625-1.019531 5.128906-3.886719 5.128906-7.113281v-99.5h45v99.5c0 3.226562 2.0625 6.09375 5.128906 7.113281l45 15c.785156.261719 1.585938.386719 2.371094.386719 3.140625 0 6.066406-1.984375 7.113281-5.128906 1.3125-3.929688-.8125-8.179688-4.742187-9.488282l-9.871094-3.289062v-54.59375c0-4.144531-3.359375-7.5-7.5-7.5h-22.5v-42h22.5c4.140625 0 7.5-3.359375 7.5-7.5v-35.425781c0-15.40625-5.308594-30.320313-14.996094-42.316407v-26.046874c2.34375.832031 4.867188 1.289062 7.496094 1.289062 12.40625 0 22.5-10.09375 22.5-22.5zm-195-231.894531 7.5-7.5 7.5 7.5v154.394531h-15zm60 463.488281v-42.09375h15v37.09375zm105-42.09375v42.09375l-15-5v-37.09375zm-15-189.53125v.085938l.003906 45.929687-37.503906 25-37.5-25v-68.484375h16.277344c-.824219 2.335938-1.277344 4.851562-1.277344 7.46875 0 5.757812 2.175781 11.015625 5.746094 15-3.570313 3.984375-5.746094 9.242188-5.746094 15 0 12.40625 10.09375 22.5 22.5 22.5s22.5-10.09375 22.5-22.5c0-5.757812-2.179688-11.015625-5.75-15 3.570312-3.984375 5.75-9.242188 5.75-15 0-2.617188-.453125-5.128906-1.28125-7.46875h16.28125zm-30 14.996094c0 4.136718-3.363281 7.5-7.5 7.5s-7.5-3.363282-7.5-7.5c0-4.132813 3.363281-7.5 7.5-7.5s7.5 3.367187 7.5 7.5zm0-30c0 4.136718-3.363281 7.5-7.5 7.5s-7.5-3.363282-7.5-7.5c0-3.917969 3.027344-7.140625 6.863281-7.464844h1.273438c3.835937.324219 6.863281 3.546875 6.863281 7.464844zm-7.5-127.5c20.679688 0 37.5 16.824218 37.5 37.5v2.5h-15.140625c-5.652344-6.320313-13.746094-10-22.359375-10s-16.707031 3.675781-22.359375 10h-15.140625v-2.5c0-20.675782 16.820312-37.5 37.5-37.5zm-37.5 57.5v-2.5h18.792969c2.5 0 4.839843-1.246094 6.230469-3.324219 2.796874-4.179687 7.460937-6.675781 12.476562-6.675781s9.679688 2.496094 12.476562 6.675781c1.394532 2.078125 3.730469 3.324219 6.234376 3.324219h18.789062v2.5c0 34.15625-29.898438 45.03125-37.472656 47.238281-3.203125-.957031-10.726563-3.589844-18.136719-8.941406-12.867187-9.292969-19.390625-22.175781-19.390625-38.296875zm-22.5 92.535156c-4.136719 0-7.5-3.363281-7.5-7.5v-22.5h15v22.5c0 4.132812-3.363281 7.5-7.5 7.5zm112.5 110h-105l.003906-27.925781c0-10.546875 3.214844-20.796875 9.132813-29.46875l39.203125 26.132812c1.257812.839844 2.707031 1.261719 4.160156 1.261719 1.449219 0 2.898438-.421875 4.160156-1.261719l39.203125-26.132812c5.921875 8.671875 9.136719 18.921875 9.136719 29.46875zm0-117.46875v-22.53125h15v22.5c0 4.136719-3.363281 7.5-7.5 7.5-4.125 0-7.480469-3.347656-7.5-7.46875zm0 0"/></svg>