<?xml version="1.0" encoding="iso-8859-1"?>
<!-- Generator: Adobe Illustrator 26.5.3, SVG Export Plug-In . SVG Version: 6.00 Build 0)  -->
<svg xmlns="http://www.w3.org/2000/svg" xmlns:xlink="http://www.w3.org/1999/xlink" version="1.1" id="Capa_1" x="0px" y="0px" viewBox="0 0 512 512" style="enable-background:new 0 0 512 512;" xml:space="preserve">
<g>
	<g>
		<path d="M417.649,420.352c0.288-5.797,0.615-11.592,0.855-17.39c0.586-14.155,1.066-28.314,1.713-42.465    c0.481-10.529,0.85-21.06,1.236-31.592c0.566-15.456,1.328-30.905,2.016-46.357c0.021-0.474,0.101-0.957,0.229-1.414    c0.311-1.106,1.017-1.775,2.219-1.757c1.261,0.018,1.915,0.83,1.995,1.944c0.128,1.771,0.256,3.579,0.042,5.329    c-0.542,4.431-0.369,8.888-0.618,13.328c-0.629,11.204-0.869,22.43-1.414,33.64c-0.591,12.165-1.157,24.33-1.666,36.499    c-0.406,9.708-0.871,19.412-1.203,29.124c-0.332,9.71-0.777,19.417-1.228,29.122c-0.23,4.973-1.329,5.995-6.268,6.495    c-4.424,0.448-8.803,1.324-13.277,1.295c-2.842-0.018-3.31-0.292-4.052-3.001c-4.415-16.121-7.956-32.455-11.828-48.707    c-4.809-20.184-9.543-40.385-14.314-60.578c-1.364-5.774-2.745-11.544-4.429-17.278c-0.139,2.967-0.38,5.932-0.401,8.9    c-0.117,17.052-0.473,34.102-0.624,51.154c-0.084,9.514-0.001,19.041-0.377,28.547c-0.312,7.876-0.014,15.756-0.404,23.615    c-0.319,6.427-0.013,12.875-0.729,19.282c-0.061,0.542-0.123,1.092-0.27,1.615c-0.283,1.01-0.898,1.743-2.028,1.693    c-1.167-0.051-1.679-0.899-1.773-1.928c-0.205-2.248-0.458-4.505-0.446-6.757c0.106-19.998,0.086-39.999,0.484-59.992    c0.195-9.793,0.014-19.591,0.388-29.373c0.44-11.506,0.179-23.01,0.368-34.513c0.099-6.018,0.204-12.036,0.328-18.054    c0.072-3.463,0.979-4.588,4.409-5.411c5.008-1.201,10.115-1.741,15.235-2.158c1.986-0.162,3.37,1.139,4.046,3.897    c1.549,6.318,3.009,12.658,4.52,18.986c5.106,21.382,10.253,42.754,15.317,64.146c3.801,16.06,7.497,32.144,11.242,48.217    c0.151,0.646,0.314,1.289,0.471,1.934C417.493,420.376,417.571,420.364,417.649,420.352z"/>
		<path d="M506.804,343.18c0.174-7.897,0.025-15.776-2.837-23.294c-1.637-4.301-3.401-8.536-7.171-11.54    c-4.607-3.67-9.822-3.511-14.122,0.523c-3.453,3.24-5.424,7.397-6.857,11.778c-2.778,8.493-4.153,17.301-5.375,26.122    c-1.879,13.565-2.691,27.231-3.787,40.871c-0.746,9.285-1.333,18.576-1.109,27.893c0.137,5.685,0.65,11.342,2.141,16.872    c0.506,1.878,1.275,3.628,2.289,5.254c3.39,5.437,10.657,6.268,15.244,1.78c2.104-2.059,3.428-4.591,4.403-7.333    c2.198-6.182,3.096-12.612,3.75-19.102c1.332-13.223,1.745-26.506,2.67-39.754c0.135-1.937-0.97-1.994-2.246-2.052    c-3.762-0.173-7.525-0.311-11.287-0.46c-1.308-0.052-2.592-0.229-3.83-0.676c-0.997-0.36-1.622-1.047-1.657-2.122    c-0.035-1.107,0.649-1.754,1.608-2.15c0.969-0.4,1.993-0.452,3.026-0.477c8.656-0.211,17.221,0.757,25.756,2.048    c3.03,0.458,4.209,2.173,3.979,5.169c-0.549,7.163-0.902,14.343-1.585,21.492c-1.147,12.008-2.533,24.002-7.002,35.344    c-2.393,6.073-5.709,11.633-11.352,15.259c-8.335,5.356-16.994,5.456-25.756,0.968c-7.989-4.092-12.866-10.978-16.336-18.895    c-4.558-10.398-6.629-21.388-7.122-32.728c-0.774-17.808,0.69-35.44,4.222-52.873c2.395-11.822,6.964-22.764,14.815-32.142    c5.465-6.528,12.387-10.585,20.878-10.892c9.719-0.351,17.452,4.042,22.527,12.283c7.312,11.875,8.424,24.963,6.466,38.48    c-0.197,1.362-0.59,2.683-1.36,3.847c-0.438,0.662-1.039,1.119-1.903,0.903c-0.919-0.229-1.071-0.977-1.074-1.764    C506.797,348.934,506.804,346.057,506.804,343.18z"/>
		<path d="M124.213,343.412c-0.292,13.593-4.062,25.366-13.105,35.063c-3.271,3.508-7.03,6.516-11.298,8.814    c-0.518,0.279-1.347,0.466-1.353,1.117c-0.006,0.745,0.896,0.709,1.421,0.938c6.398,2.788,10.035,8.05,12.742,14.153    c3.23,7.282,4.405,15.096,5.863,22.831c0.786,4.172,1.427,8.371,2.152,12.555c0.549,3.168,1.855,6.006,3.83,8.539    c2.928,3.755,6.495,4.946,11.086,3.719c1.666-0.445,3.223-1.135,4.732-1.961c0.674-0.369,1.452-0.609,2.117-0.014    c0.685,0.613,0.698,1.432,0.461,2.277c-0.293,1.044-0.981,1.782-1.803,2.43c-6.703,5.286-14.672,4.757-20.493-1.473    c-2.934-3.141-4.969-6.844-6.342-10.934c-2.845-8.474-4.247-17.283-6.152-25.976c-1.123-5.123-2.788-10.06-6.097-14.237    c-4.425-5.585-10.226-7.49-17.171-6.149c-1.242,0.24-1.678,0.87-1.576,2.148c0.921,11.466,1.714,22.94,2.232,34.432    c0.161,3.562-1.067,5.54-4.483,6.336c-3.591,0.837-7.161,1.932-10.913,1.794c-2.811-0.103-3.403-0.68-3.937-3.439    c-0.824-4.256-0.874-8.585-1.125-12.883c-0.956-16.403-1.754-32.814-2.629-49.222c-0.806-15.108-1.596-30.217-2.475-45.321    c-0.457-7.86-0.934-15.718-1.063-23.591c-0.064-3.905,0.752-5.06,4.372-6.51c21.3-8.533,42.839,0.164,53.543,18.673    C121.429,325.61,124.115,334.459,124.213,343.412z M80.96,302.15c-1.096,0-2.193,0.031-3.287-0.008    c-1.407-0.05-1.962,0.452-1.746,1.965c2.827,19.808,3.883,39.773,5.177,59.715c0.483,7.445,0.834,14.897,1.28,22.345    c0.169,2.828,0.316,2.97,2.865,2.033c11.882-4.365,19.845-12.594,23.066-24.83c4.114-15.629,2.571-31.014-3.699-45.828    c-3.122-7.378-7.883-13.361-16.507-14.826C85.742,302.312,83.369,302.008,80.96,302.15z"/>
		<path d="M0.045,304.225c-0.211-9.283,0.064-9.853,6.62-11.02c16.849-3,33.687-6.076,50.624-8.557    c0.473-0.069,0.958-0.173,1.426-0.134c1.052,0.088,1.83,0.632,2.063,1.694c0.238,1.086-0.266,1.95-1.256,2.313    c-1.214,0.446-2.489,0.765-3.763,0.997c-10.239,1.862-20.476,3.731-30.733,5.489c-1.802,0.309-2.492,0.844-2.118,2.784    c0.934,4.848,1.097,9.793,1.404,14.703c0.801,12.837,1.446,25.684,2.086,38.53c0.08,1.604,0.738,2.003,2.178,1.82    c6.247-0.793,12.509-1.401,18.805-1.667c2.332-0.099,3.575,0.554,3.718,2.209c0.149,1.72-0.904,2.599-3.135,2.989    c-6.479,1.131-13.016,1.777-19.549,2.448c-1.48,0.152-1.59,0.97-1.528,2.098c0.264,4.851,0.503,9.704,0.778,14.554    c0.484,8.541,1.032,17.079,1.474,25.622c0.615,11.891,1.165,23.785,1.719,35.678c0.076,1.64,0.06,3.289-0.001,4.93    c-0.096,2.587-1.107,3.806-3.694,4.077c-3.876,0.407-7.768,0.788-11.661,0.881c-4.291,0.102-5.563-1.228-6.041-5.488    c-1.383-12.315-2.132-24.681-2.96-37.04c-1.199-17.887-2.403-35.773-3.554-53.662c-0.782-12.158-1.469-24.322-2.218-36.482    C0.486,310.097,0.184,306.207,0.045,304.225z"/>
		<path d="M195.762,387.773c-0.537-18.481-1.214-37.718-0.838-56.967c0.111-5.677,0.482-11.35,0.752-17.024    c0.136-2.861,1.904-4.401,4.393-5.353c3.983-1.522,8.236-1.546,12.356-1.742c7.242-0.345,14.493-0.966,21.763-0.588    c1.443,0.075,2.875,0.18,4.272,0.534c1.208,0.307,2.213,0.981,2.24,2.339c0.028,1.447-0.962,2.317-2.275,2.515    c-3.38,0.51-6.776,0.948-10.179,1.271c-2.86,0.271-5.738,0.365-8.61,0.484c-1.739,0.072-2.529,0.707-2.476,2.641    c0.202,7.382,0.463,14.775,0.276,22.153c-0.147,5.811-0.084,11.627-0.093,17.429c-0.008,5.389,0.047,10.812-0.009,16.194    c-0.088,8.422,0.064,16.849-0.178,25.268c-0.105,3.631,0.525,7.24,0.14,10.87c-0.135,1.27,0.779,1.389,1.751,1.427    c2.804,0.109,5.605-0.28,8.414,0.035c3.264,0.366,6.541,0.61,9.807,0.963c1.402,0.151,2.85,0.461,2.897,2.28    c0.046,1.752-1.167,2.752-2.684,2.85c-4.568,0.294-9.106,1.2-13.711,0.789c-1.78-0.159-3.719-0.573-5.29,0.115    c-2.082,0.913-0.917,3.182-0.979,4.768c-0.273,7.036-0.245,14.083-0.364,21.126c-0.028,1.645,1.02,1.688,2.188,1.667    c6.641-0.119,13.283-0.257,19.924-0.339c1.223-0.015,2.46,0.132,3.671,0.327c1.304,0.21,2.409,0.83,2.442,2.335    c0.034,1.559-1.174,2.104-2.423,2.338c-1.677,0.314-3.382,0.557-5.085,0.642c-11.01,0.551-22.021,1.159-33.053,0.934    c-4.036-0.082-5.685-1.4-6.668-5.341c-0.379-1.521-0.666-3.1-0.715-4.662c-0.312-9.923-1.48-19.808-1.336-29.748    C196.187,403.041,195.449,395.795,195.762,387.773z"/>
		<path d="M163.9,430.678c-6.71,0.129-13.418,0.119-20.122-0.273c-4.638-0.271-6.57-1.801-6.885-6.416    c-0.854-12.503-1.086-25.025-0.569-37.553c0.023-0.547,0.069-1.094,0.076-1.641c0.177-13.624,0.323-27.249,0.532-40.873    c0.256-16.629,0.85-33.244,2.399-49.811c0.235-2.51,1.531-4.092,3.893-5.029c3.414-1.354,7.022-1.328,10.536-1.385    c8.546-0.139,17.111-0.724,25.647,0.284c1.082,0.128,2.178,0.299,3.212,0.626c1.025,0.324,1.829,1.049,1.821,2.231    c-0.008,1.284-0.856,2.088-2.02,2.249c-2.569,0.357-5.171,0.48-7.745,0.808c-3.821,0.487-7.658,0.375-11.488,0.381    c-1.759,0.003-2.37,0.628-2.421,2.405c-0.346,11.971-0.768,23.94-1.206,35.908c-0.386,10.531-0.774,21.063-1.258,31.59    c-0.352,7.658-0.694,15.314-0.791,22.98c-0.04,3.113-0.048,3.2,2.962,3.117c5.935-0.164,11.7,1.194,17.546,1.82    c1.101,0.118,2.004,0.6,2.121,1.852c0.116,1.239-0.495,2.092-1.589,2.621c-1.017,0.491-2.118,0.537-3.215,0.542    c-5.194,0.024-10.392,0.564-15.58-0.063c-1.914-0.231-2.61,0.413-2.68,2.443c-0.257,7.451-0.729,14.894-1.102,22.341    c-0.15,3-0.129,2.991,2.788,3.054c6.769,0.146,13.537,0.307,20.306,0.45c1.243,0.026,2.463,0.137,3.609,0.66    c0.892,0.407,1.422,1.096,1.388,2.087c-0.034,0.992-0.602,1.665-1.535,1.974c-1.309,0.434-2.667,0.616-4.044,0.618    C173.625,430.683,168.762,430.678,163.9,430.678z"/>
		<path d="M296.275,290.074c7.879,0,15.757-0.003,23.636,0.002c1.375,0.001,2.751,0.063,4.013,0.692    c2.021,1.007,2.504,2.389,1.602,4.592c-3.999,9.761-7.982,19.527-12.015,29.274c-12.15,29.364-24.31,58.723-36.49,88.075    c-2.231,5.376-4.558,10.713-6.867,16.057c-0.928,2.149-0.86,2.346,1.476,2.318c10.203-0.124,20.405-0.284,30.607-0.424    c0.956-0.013,1.918-0.056,2.851,0.258c0.787,0.265,1.299,0.759,1.383,1.605c0.094,0.944-0.396,1.558-1.202,1.956    c-0.699,0.345-1.459,0.332-2.213,0.348c-7.325,0.159-14.65,0.296-21.974,0.489c-8.142,0.214-16.283,0.498-24.425,0.706    c-1.292,0.033-2.602-0.098-3.884-0.284c-2.439-0.352-3.247-1.69-2.336-4.123c1.393-3.718,2.899-7.396,4.421-11.064    c7.321-17.651,14.58-35.328,22.02-52.929c9.92-23.467,19.533-47.065,29.764-70.401c0.898-2.047,0.858-2.143-1.414-2.141    c-10.204,0.008-20.41-0.109-30.61,0.341c-1.719,0.076-3.428-0.11-5.094-0.525c-1.13-0.282-2.032-0.892-2.004-2.245    c0.025-1.225,0.832-1.803,1.872-2.164c1.255-0.436,2.562-0.429,3.863-0.43c7.673-0.007,15.346-0.003,23.02-0.003    C296.275,290.059,296.275,290.066,296.275,290.074z"/>
		<path d="M344.633,354.333c0,14.857-0.242,29.719,0.075,44.568c0.266,12.463,0.096,24.922,0.266,37.381    c0.031,2.264-0.09,4.512-0.358,6.758c-0.365,3.056-2.157,4.651-5.28,4.439c-3.493-0.237-6.915-0.942-10.279-1.916    c-1.552-0.449-2.421-1.478-2.621-3.072c-0.136-1.086-0.346-2.173-0.368-3.263c-0.156-7.802-0.526-15.611-0.344-23.407    c0.29-12.464,0.295-24.929,0.092-37.384c-0.166-10.205,0.461-20.404,0.023-30.595c-0.327-7.608,0.074-15.193,0.149-22.788    c0.042-4.188,0.82-4.911,4.931-4.966c2.669-0.036,5.337-0.106,7.984,0.412c2.53,0.495,3.744,1.529,4.214,4.098    c0.332,1.811,0.517,3.664,0.582,5.504c0.286,8.073,0.572,16.148,0.388,24.23C344.27,354.333,344.451,354.333,344.633,354.333z"/>
	</g>
	<g>
		<path d="M202.785,205.842c-4.324,3.229-8.61,6.51-12.983,9.671c-3.214,2.323-6.528,4.51-9.826,6.715    c-1.314,0.879-2.712,0.914-4.044-0.016c-1.461-1.021-2.206-2.42-2.012-4.224c0.265-2.463,1.697-4.267,3.398-5.927    c2.96-2.887,6.467-5.05,9.774-7.481c2.518-1.851,4.985-3.771,7.918-5.998c-4.209-0.332-7.856-0.657-11.508-0.901    c-6.718-0.449-13.301-1.739-19.863-3.151c-1.6-0.345-3.2-0.822-4.383-2.102c-1.568-1.697-1.271-3.66,0.752-4.781    c1.295-0.717,2.725-0.907,4.177-0.896c7.2,0.056,14.357,0.73,21.506,1.515c6.329,0.695,12.66,1.378,18.986,2.095    c1.008,0.114,1.854-0.071,2.695-0.666c6.593-4.665,13.21-9.296,19.81-13.952c0.538-0.379,1.365-0.703,1.231-1.481    c-0.117-0.677-0.955-0.686-1.524-0.835c-8.234-2.158-15.967-5.73-23.979-8.513c-2.514-0.874-4.942-2.027-7.339-3.195    c-1.332-0.649-2.79-1.415-2.786-3.235c0.004-1.757,1.255-2.715,2.642-3.372c9.338-4.421,18.05-10.139,27.909-13.486    c0.618-0.21,1.595-0.23,1.702-0.935c0.129-0.853-0.9-1.082-1.465-1.526c-6.247-4.907-12.543-9.752-18.737-14.725    c-1.636-1.313-3.24-1.704-5.294-1.44c-13.31,1.712-26.655,3.096-40.058,3.87c-1.522,0.088-3.016-0.114-4.463-0.562    c-1.465-0.454-2.619-1.287-2.68-2.989c-0.06-1.651,0.903-2.698,2.314-3.322c2.719-1.202,5.653-1.587,8.535-2.191    c9.088-1.907,18.319-2.364,27.549-2.86c0.322-0.017,0.699,0.048,1.017-0.537c-1.667-1.3-3.368-2.624-5.066-3.952    c-5.448-4.26-10.93-8.478-16.325-12.803c-2.593-2.079-2.621-5.132-0.212-6.788c1.431-0.984,3.018-0.754,4.556-0.313    c2.345,0.672,4.349,2.01,6.253,3.476c4.503,3.468,8.963,6.992,13.458,10.47c0.57,0.441,1.183,1.354,1.884,0.964    c0.825-0.46,0.104-1.364-0.048-2.04c-2.176-9.641-3.59-19.385-4.01-29.266c-0.055-1.303,0.033-2.596,0.344-3.876    c0.354-1.461,1.158-2.54,2.643-2.828c1.449-0.282,2.508,0.619,3.303,1.681c1.085,1.449,1.552,3.179,1.934,4.934    c2.799,12.859,4.59,25.888,6.579,38.884c0.164,1.073,0.455,1.973,1.343,2.647c6.162,4.683,12.316,9.376,18.477,14.059    c0.208,0.158,0.464,0.254,0.865,0.469c0.396-1.875-0.039-3.601-0.095-5.334c-0.193-6.022-0.307-12.046-0.448-18.069    c-0.006-0.274-0.014-0.551,0.023-0.821c0.208-1.497,0.302-3.103,1.943-3.819c1.621-0.707,2.941,0.145,4.126,1.121    c5.764,4.744,11.503,9.517,17.252,14.279c0.259,0.215,0.52,0.426,0.871,0.714c0.592-0.709,0.372-1.477,0.375-2.164    c0.02-4.933-0.057-9.867,0.035-14.799c0.033-1.779-0.515-3.071-1.756-4.354c-8.856-9.155-17.804-18.228-26.002-27.994    c-1.227-1.462-2.56-2.874-3.115-4.786c-0.378-1.301-0.582-2.596,0.542-3.634c1.219-1.127,2.622-1.036,4.021-0.368    c1.876,0.895,3.397,2.286,4.971,3.608c7.266,6.103,13.565,13.142,19.757,20.289c0.251,0.29,0.386,0.746,0.934,0.757    c0.499-0.655,0.244-1.431,0.245-2.143c0.011-6.166-0.009-12.333-0.028-18.499c-0.006-2.006,0.285-3.969,0.933-5.86    c0.923-2.692,2.812-4.048,4.988-3.675c2.004,0.344,3.222,2.007,3.278,4.827c0.168,8.489,0.532,16.978,0.22,25.471    c-0.02,0.533-0.003,1.067-0.003,1.879c1.505-0.95,2.299-2.218,3.208-3.33c6.17-7.549,12.951-14.499,20.371-20.817    c1.137-0.968,2.437-1.776,3.75-2.497c1.28-0.703,2.695-0.736,3.855,0.268c1.192,1.032,1.159,2.424,0.657,3.794    c-1.144,3.117-3.563,5.333-5.662,7.748c-7.686,8.842-15.876,17.216-24.059,25.592c-1.456,1.49-2.081,3.004-2.033,5.085    c0.123,5.403,0.041,10.81,0.041,16.664c2.416-1.99,4.492-3.691,6.56-5.404c4.008-3.32,7.993-6.667,12.025-9.957    c1.414-1.154,2.879-2.685,4.916-1.786c2.139,0.945,1.976,3.115,1.976,5.012c0,6.572-0.297,13.135-0.655,19.696    c-0.063,1.154-0.009,2.315-0.009,3.975c2.426-1.8,4.595-3.376,6.726-5c3.486-2.657,6.923-5.378,10.433-8.002    c1.235-0.923,1.904-1.998,2.117-3.55c1.59-11.532,3.39-23.033,5.615-34.462c0.47-2.415,0.913-4.85,1.825-7.155    c0.433-1.093,1.034-2.087,1.993-2.82c1.849-1.413,3.712-0.9,4.598,1.324c1.053,2.644,0.698,5.399,0.515,8.127    c-0.617,9.178-2.104,18.224-4.178,27.179c-0.074,0.321-0.18,0.668,0.28,1.12c3.147-2.435,6.321-4.889,9.494-7.346    c2.057-1.593,4.094-3.215,6.174-4.778c1.591-1.195,3.272-2.255,5.123-3.019c2.774-1.145,5.403-0.562,6.598,1.468    c1.115,1.893,0.423,4.118-2.026,6.026c-6.372,4.965-12.785,9.877-19.164,14.833c-0.563,0.437-1.349,0.693-1.625,1.757    c2.704,0.162,5.336,0.317,7.968,0.478c9.309,0.57,18.549,1.623,27.57,4.11c0.844,0.233,1.705,0.592,2.413,1.096    c2.157,1.535,1.898,4.3-0.483,5.469c-2.113,1.037-4.387,0.955-6.654,0.818c-13.264-0.8-26.456-2.337-39.643-3.911    c-1.387-0.166-2.519,0.149-3.617,1.017c-6.069,4.799-12.17,9.558-18.259,14.33c-1.478,1.158-1.491,1.57,0.373,2.214    c8.93,3.083,16.795,8.338,25.294,12.294c1.859,0.865,4.055,1.76,3.912,4.236c-0.135,2.355-2.361,2.982-4.195,3.727    c-8.434,3.426-16.859,6.88-25.505,9.754c-1.604,0.533-3.354,0.606-5.1,1.628c2.635,1.836,5.141,3.577,7.641,5.326    c4.204,2.943,8.421,5.868,12.595,8.853c1.158,0.828,2.314,0.888,3.677,0.732c12.921-1.486,25.818-3.243,38.847-3.565    c1.521-0.038,3.018,0.006,4.429,0.646c1.185,0.538,2.125,1.334,2.193,2.731c0.067,1.373-0.699,2.293-1.844,2.976    c-1.986,1.185-4.216,1.594-6.422,2.075c-8.725,1.901-17.585,2.71-26.479,3.244c-0.471,0.028-0.942,0.073-1.667,0.13    c0.922,1.377,2.247,1.981,3.312,2.828c2.787,2.215,5.68,4.29,8.675,6.229c2.768,1.792,5.165,4.046,7.243,6.618    c0.835,1.033,1.385,2.221,1.549,3.536c0.243,1.955-0.529,3.486-2.175,4.546c-1.547,0.996-2.966,0.548-4.398-0.38    c-7.073-4.585-13.75-9.719-20.522-14.723c-0.636-0.469-1.286-0.919-2.22-1.586c0.945,4.775,1.81,9.122,2.665,13.47    c1.378,7.007,2.033,14.09,2.191,21.222c0.026,1.166-0.002,2.339-0.433,3.447c-0.478,1.228-1.3,2.148-2.664,2.277    c-1.327,0.126-2.395-0.471-3.131-1.592c-0.995-1.514-1.5-3.214-1.884-4.966c-2.726-12.456-4.626-25.053-6.36-37.674    c-0.378-2.753-1.263-4.804-3.754-6.369c-3.231-2.029-6.178-4.512-9.589-7.053c0,2.257-0.06,4.178,0.011,6.093    c0.247,6.702,0.704,13.398,0.602,20.111c-0.008,0.543-0.098,1.093-0.219,1.625c-0.627,2.752-2.583,3.659-4.878,1.978    c-2.978-2.181-5.759-4.63-8.611-6.981c-3.434-2.831-6.853-5.68-10.28-8.519c-0.302-0.25-0.574-0.683-1.04-0.429    c-0.427,0.232-0.339,0.718-0.344,1.113c-0.08,5.96-0.153,11.919-0.215,17.879c-0.011,1.058,0.69,1.747,1.357,2.446    c5.252,5.494,10.507,10.985,15.75,16.488c4.395,4.612,8.675,9.328,12.668,14.297c0.916,1.14,1.612,2.395,1.866,3.843    c0.448,2.557-1.53,4.3-4.001,3.501c-2.283-0.739-3.951-2.429-5.725-3.924c-7.783-6.557-14.618-14.025-20.988-21.936    c-0.21-0.26-0.441-0.503-0.682-0.777c-0.742,0.464-0.433,1.141-0.444,1.676c-0.145,6.777,0.07,13.561-0.446,20.33    c-0.161,2.115-0.234,4.237-0.422,6.349c-0.266,3.001-3.552,4.557-6.139,2.916c-1.381-0.876-2.331-2.122-2.739-3.719    c-0.818-3.203-1.192-6.452-0.931-9.763c0.398-5.054,0.261-10.113,0.255-15.344c-1.033,0.279-1.394,1.069-1.87,1.647    c-6.201,7.533-13.061,14.4-20.625,20.564c-1.068,0.871-2.187,1.668-3.536,2.039c-2.3,0.633-4.175-0.967-3.865-3.331    c0.21-1.606,1.007-2.964,2.012-4.213c5.242-6.52,11.022-12.556,16.762-18.627c3.199-3.382,6.34-6.829,9.708-10.036    c1.572-1.497,1.988-3.203,2.065-5.127c0.222-5.541,0.383-11.084,0.556-16.627c0.008-0.251-0.094-0.506-0.204-1.054    c-3.383,2.742-6.612,5.336-9.813,7.962c-2.488,2.041-4.918,4.153-7.419,6.178c-1.421,1.151-2.881,2.666-4.925,1.628    c-1.975-1.003-1.873-3.073-1.826-4.9c0.187-7.389,0.464-14.776,0.708-22.164c0.007-0.205,0.031-0.412,0.014-0.616    c-0.042-0.522,0.261-1.189-0.32-1.508c-0.585-0.322-1.02,0.249-1.433,0.555c-3.854,2.852-7.68,5.741-11.54,8.584    c-0.908,0.669-1.26,1.527-1.42,2.601c-1.733,11.581-3.332,23.184-5.615,34.676c-0.534,2.687-0.983,5.401-1.908,7.987    c-0.983,2.75-2.671,4.162-4.413,3.867c-1.709-0.289-2.907-2.241-2.903-5.124c0.013-10.396,1.649-20.593,3.928-30.703    c0.312-1.385,0.621-2.771,0.932-4.157C203.089,206.006,202.937,205.924,202.785,205.842z M205.559,157.379    c0.226,0.583,0.677,0.613,1.046,0.757c6.623,2.586,13.259,5.138,19.865,7.766c2.411,0.959,4.755,2.087,7.121,3.159    c0.817,0.37,1.534,0.383,2.286-0.205c3.826-2.993,7.655-5.985,11.527-8.919c1.266-0.959,1.315-1.57-0.03-2.571    c-4.667-3.473-9.295-7.002-13.834-10.64c-1.456-1.167-2.734-1.3-4.272-0.429c-5.314,3.007-11.015,5.176-16.573,7.658    C210.283,155.033,207.781,155.938,205.559,157.379z M306.864,157.587c-0.914-0.509-1.31-0.759-1.731-0.96    c-7.337-3.502-15.01-6.272-22.173-10.154c-1.11-0.602-1.93-0.105-2.783,0.558c-4.372,3.397-8.761,6.771-13.138,10.161    c-1.772,1.372-1.786,1.651-0.046,2.991c3.247,2.502,6.558,4.925,9.753,7.491c0.997,0.801,1.848,0.853,2.983,0.505    c4.187-1.286,8.05-3.374,12.196-4.787C296.818,161.724,301.576,159.663,306.864,157.587z M278.87,206.487    c0-1.059,0.016-1.591-0.002-2.122c-0.242-7.036-0.546-14.071-0.692-21.109c-0.034-1.61-0.532-2.69-1.789-3.635    c-4.375-3.288-8.695-6.649-13.058-9.954c-0.511-0.387-1.017-1.166-1.751-0.789c-0.697,0.358-0.496,1.213-0.499,1.878    c-0.023,5.818,0.004,11.636-0.064,17.453c-0.016,1.364,0.478,2.288,1.466,3.186c3.595,3.265,7.113,6.616,10.676,9.917    C274.904,202.933,276.69,204.515,278.87,206.487z M278.869,113.097c-0.371,0.074-0.536,0.056-0.616,0.13    c-5.479,5.056-10.947,10.123-16.427,15.178c-0.607,0.56-0.793,1.232-0.791,2.023c0.01,5.611,0.001,11.222,0.013,16.833    c0.001,0.459-0.172,1.036,0.286,1.336c0.53,0.348,0.875-0.206,1.227-0.47c4.765-3.566,9.518-7.147,14.273-10.726    c0.806-0.607,1.26-1.363,1.302-2.426c0.219-5.599,0.501-11.195,0.724-16.793C278.926,116.504,278.869,114.822,278.869,113.097z     M235.25,205.942c-0.031,0.016,0.174-0.043,0.315-0.172c4.978-4.601,9.947-9.211,14.926-13.811    c0.584-0.54,0.936-1.149,0.935-1.967c-0.006-6.37-0.003-12.741,0.003-19.111c0.001-1.362-0.535-1.359-1.464-0.642    c-4.391,3.389-8.776,6.786-13.204,10.126c-0.993,0.749-1.312,1.631-1.306,2.815c0.01,1.913-0.105,3.831-0.154,5.741    C235.158,194.585,235.25,200.257,235.25,205.942z M234.984,112.882c-0.142,0.465-0.252,0.651-0.246,0.832    c0.246,7.037,0.51,14.073,0.751,21.11c0.038,1.104,0.736,1.7,1.518,2.292c4.255,3.22,8.501,6.452,12.753,9.677    c0.368,0.279,0.69,0.806,1.212,0.606c0.564-0.217,0.372-0.827,0.376-1.276c0.043-5.476,0.056-10.951,0.104-16.427    c0.01-1.192-0.486-2.044-1.351-2.843c-3.719-3.437-7.38-6.937-11.082-10.392C237.743,115.27,236.409,114.143,234.984,112.882z"/>
		<g>
			<g>
				<path d="M416.22,141.886c-4.352,3.099-8.106,6.385-11.907,9.614c-0.644,0.547-0.48,1.058-0.182,1.626      c1.42,2.707-0.935,5.546-3.148,6.058c-2.507,0.581-5.085-1.113-5.654-3.814c-0.517-2.456,1.408-5.069,4.129-5.392      c1.165-0.138,2.057-0.51,2.857-1.364c3.655-3.903,7.585-7.526,11.641-11c1.398-1.197,1.256-1.844,0.001-3.006      c-3.215-2.977-6.333-6.063-9.406-9.187c-1.036-1.053-2.002-1.555-3.568-1.364c-2.535,0.309-4.471-1.039-5.338-3.289      c-0.81-2.102-0.189-4.489,1.547-5.951c1.623-1.367,4.05-1.547,5.962-0.401c1.929,1.156,2.639,2.961,2.33,5.087      c-0.196,1.351,0.278,2.109,1.284,2.939c2.746,2.262,5.366,4.677,8.059,7.004c0.436,0.377,0.793,1.213,1.455,0.893      c0.548-0.264,0.501-1.089,0.519-1.691c0.074-2.465,0.138-4.93,0.141-7.396c0.01-8.357-0.023-16.714,0-25.07      c0.004-1.297-0.253-2.273-1.322-3.218c-2.375-2.101-2.573-5.38-0.714-7.787c1.742-2.255,4.684-2.89,7.184-1.552      c2.428,1.301,3.6,4.809,2.526,7.533c-0.259,0.658-0.628,1.308-1.222,1.61c-1.867,0.95-2.03,2.521-1.893,4.342      c0.699,9.301,0.255,18.619,0.39,27.929c0.028,1.908-0.605,3.79-0.121,6.114c2.807-2.366,5.434-4.592,8.075-6.8      c0.892-0.746,1.801-1.474,2.735-2.166c1.629-1.207,3.24-2.178,3.495-4.672c0.243-2.372,3.088-3.928,5.28-3.52      c2.611,0.486,4.255,2.576,4.02,5.115c-0.22,2.379-2.56,4.777-5.071,4.425c-2.412-0.338-3.661,0.841-5.087,2.26      c-3.45,3.431-7.136,6.604-10.941,9.632c-1.093,0.87-1.284,1.392-0.107,2.469c4.444,4.067,8.809,8.224,13.108,12.445      c0.99,0.971,1.849,0.8,2.956,0.545c2.15-0.495,4.172,0.37,5.149,2.07c1.111,1.933,0.885,3.952-0.638,5.699      c-2.365,2.711-6.15,1.859-7.561-1.952c-0.692-1.869-1.888-3.103-3.258-4.322c-3.579-3.187-7.162-6.369-10.758-9.536      c-0.439-0.387-0.812-1.188-1.465-0.902c-0.588,0.257-0.5,1.076-0.507,1.682c-0.054,5.068-0.028,10.139-0.141,15.205      c-0.18,8.073-0.521,16.141-1.427,24.171c-0.139,1.235,0.05,1.993,1.366,2.536c2.219,0.915,3.493,3.169,3.269,5.214      c-0.24,2.195-2.377,4.373-4.747,4.839c-2.195,0.431-4.233-0.454-5.284-2.297c-1.209-2.119-1.093-5.149,0.6-6.691      c1.156-1.054,1.317-2.059,1.324-3.536c0.066-13.351-0.367-26.706,0.237-40.053C416.404,142.753,416.317,142.494,416.22,141.886z      "/>
				<path d="M90.234,202.131c0.536-2.129-0.142-4.002-0.114-5.89c0.139-9.446-0.288-18.9,0.398-28.338      c0.116-1.6-0.212-2.782-1.651-3.859c-2.484-1.859-2.539-5.525-0.408-8.082c1.914-2.296,5.381-2.565,7.749-0.602      c2.459,2.039,3.095,5.64,0.867,7.83c-1.879,1.847-2.016,3.813-1.999,6.114c0.069,9.726,0.055,19.452,0.084,29.178      c0.003,1.018-0.263,2.486,0.562,2.882c0.98,0.471,1.575-0.996,2.319-1.613c2.582-2.14,5.036-4.437,7.652-6.533      c1.108-0.887,0.836-1.871,0.797-2.947c-0.108-2.964,1.678-5.133,4.441-5.455c2.825-0.329,5.212,1.495,5.752,4.397      c0.617,3.313-2.305,6.432-5.8,5.937c-1.446-0.205-2.274,0.255-3.205,1.183c-3.248,3.239-6.379,6.604-9.902,9.555      c-1.182,0.99-1.234,1.583,0.051,2.652c4.211,3.502,8.189,7.272,11.934,11.272c0.892,0.953,1.912,1.137,3.089,1.31      c2.233,0.329,3.906,2.386,3.929,4.618c0.022,2.128-1.738,4.192-3.94,4.623c-2.161,0.422-4.266-0.786-5.095-2.884      c-0.404-1.022-0.345-2.036,0.055-3.005c0.44-1.067,0.156-1.784-0.722-2.484c-3.371-2.69-6.7-5.435-10.055-8.146      c-0.345-0.279-0.7-0.864-1.194-0.465c-0.229,0.185-0.207,0.761-0.191,1.155c0.528,13.621,0.273,27.245,0.14,40.868      c-0.01,1.021,0.528,1.456,1.093,2.034c1.873,1.914,2.271,4.289,1.133,6.601c-0.944,1.918-2.74,2.945-4.854,2.776      c-2.47-0.198-4.548-1.925-5.188-4.312c-0.623-2.324,0.555-4.73,3.029-5.846c0.994-0.449,1.563-0.88,1.433-2.093      c-1.325-12.336-1.556-24.72-1.56-37.114c0-1.483,0.578-3.737-0.501-4.251c-1.2-0.572-2.292,1.502-3.393,2.427      c-3.667,3.084-7.19,6.338-10.799,9.491c-0.747,0.653-0.759,1.572-1.136,2.355c-0.9,1.87-1.85,3.797-4.325,3.854      c-2.061,0.047-3.49-1.024-4.336-2.885c-0.79-1.737-0.505-3.404,0.607-4.841c1.189-1.537,2.91-2.155,4.769-1.585      c1.468,0.45,2.361,0.043,3.409-0.975c4.174-4.053,8.426-8.026,12.701-11.972c1.028-0.949,1.239-1.494-0.031-2.485      c-4.319-3.371-8.46-6.96-12.271-10.908c-0.897-0.929-1.813-1.193-3.113-0.999c-2.417,0.36-4.746-1.149-5.555-3.339      c-0.726-1.968,0-4.18,1.784-5.437c2.809-1.978,6.754-0.352,7.408,3.27c0.307,1.7,1.15,2.595,2.458,3.484      c3.577,2.429,6.67,5.461,9.96,8.247C89,201.324,89.571,201.665,90.234,202.131z"/>
			</g>
			<g>
				<path d="M397.647,242.617c-3.393,2.69-6.334,5.023-9.276,7.352c-0.322,0.255-0.632,0.538-0.989,0.732      c-0.856,0.463-1.825,0.959-2.639,0.111c-0.851-0.888-0.259-1.868,0.35-2.586c2.622-3.092,5.794-5.619,8.816-8.289      c3.062-2.704,3.168-2.699-0.167-5.062c-2.756-1.953-5.118-4.326-7.563-6.618c-0.446-0.418-0.847-0.898-1.2-1.399      c-0.447-0.634-0.795-1.352-0.173-2.061c0.603-0.686,1.368-0.549,2.071-0.176c2.907,1.541,5.688,3.287,8.327,5.254      c0.219,0.163,0.405,0.373,0.631,0.525c0.551,0.37,1.038,1.15,1.742,0.874c0.776-0.304,0.433-1.196,0.485-1.842      c0.366-4.499,0.693-9.001,1.079-13.498c0.109-1.277,0.107-2.876,1.894-2.907c1.834-0.032,2.147,1.608,2.204,2.941      c0.176,4.092,0.919,8.171,0.351,12.286c-0.111,0.803-0.245,1.626,0.135,2.674c2.039-1.433,4.008-2.834,5.995-4.209      c0.956-0.661,1.914-1.331,2.927-1.895c0.941-0.524,2.017-0.773,2.797,0.223c0.738,0.942,0.175,1.842-0.478,2.582      c-2.456,2.785-5.339,5.103-8.238,7.395c-2.426,1.918-2.42,1.902-0.074,3.751c2.957,2.331,5.866,4.723,8.511,7.414      c0.431,0.438,0.848,0.899,1.211,1.393c0.526,0.714,1.212,1.522,0.38,2.364c-0.807,0.816-1.712,0.229-2.417-0.273      c-2.899-2.065-5.754-4.19-8.624-6.295c-2.041-1.496-2.225-1.467-2.406,0.994c-0.302,4.092-0.446,8.195-0.708,12.29      c-0.074,1.154-0.269,2.309-0.52,3.439c-0.222,1.003-0.783,1.77-1.973,1.712c-1.083-0.053-1.568-0.806-1.755-1.725      c-0.492-2.419-0.663-4.879-0.697-7.341C397.614,249.543,397.647,246.337,397.647,242.617z"/>
				<path d="M112.815,109.32c-0.134,2.189-0.337,4.342-0.382,6.499c-0.068,3.225-0.512,6.411-0.844,9.609      c-0.122,1.176-0.291,2.455-1.882,2.467c-1.511,0.011-1.963-1.155-2.062-2.364c-0.34-4.152-0.911-8.299-0.501-12.483      c0.06-0.613,0.128-1.227,0.138-1.841c0.007-0.387,0.139-0.899-0.346-1.08c-0.45-0.168-0.752,0.238-1.032,0.514      c-1.919,1.895-4.315,3.131-6.466,4.706c-0.546,0.4-1.171,0.712-1.797,0.978c-0.812,0.345-1.635,0.336-2.248-0.407      c-0.63-0.765-0.433-1.607,0.127-2.261c0.887-1.036,1.838-2.034,2.865-2.931c2.112-1.845,4.261-3.652,6.456-5.398      c1.207-0.961,1.371-1.66-0.01-2.646c-3.407-2.432-6.457-5.297-9.455-8.205c-0.942-0.914-2.478-2.08-1.356-3.405      c1.099-1.299,2.365,0.203,3.352,0.89c2.752,1.917,5.437,3.932,8.123,5.942c1.223,0.915,1.88,0.959,1.959-0.854      c0.185-4.236,0.447-8.47,0.717-12.702c0.07-1.088,0.227-2.179,0.452-3.246c0.22-1.045,0.648-2.025,1.976-1.959      c1.273,0.064,1.781,1.02,1.913,2.073c0.282,2.237,0.517,4.488,0.599,6.739c0.1,2.736,0.01,5.478,0.031,8.217      c0.004,0.517-0.199,1.214,0.422,1.468c0.609,0.249,0.947-0.397,1.355-0.723c2.246-1.796,4.479-3.608,6.727-5.402      c0.588-0.469,1.174-0.963,1.828-1.323c0.846-0.465,1.838-0.91,2.623-0.001c0.716,0.828,0.196,1.714-0.33,2.438      c-1.299,1.787-3.059,3.128-4.667,4.609c-1.812,1.669-3.648,3.317-5.544,4.888c-1.285,1.065-1.578,1.816,0.064,2.893      c3.155,2.069,5.904,4.656,8.602,7.285c0.392,0.382,0.796,0.761,1.126,1.194c0.612,0.801,1.512,1.652,0.561,2.692      c-0.828,0.906-1.793,0.359-2.612-0.155c-2.837-1.78-5.844-3.302-8.397-5.522C114.353,110.037,113.828,109.45,112.815,109.32z"/>
			</g>
		</g>
	</g>
</g>
<g>
</g>
<g>
</g>
<g>
</g>
<g>
</g>
<g>
</g>
<g>
</g>
<g>
</g>
<g>
</g>
<g>
</g>
<g>
</g>
<g>
</g>
<g>
</g>
<g>
</g>
<g>
</g>
<g>
</g>
</svg>
