<?xml version="1.0" encoding="UTF-8"?>
<!-- Generator: Adobe Illustrator 25.4.1, SVG Export Plug-In . SVG Version: 6.00 Build 0)  -->
<svg xmlns="http://www.w3.org/2000/svg" xmlns:xlink="http://www.w3.org/1999/xlink" version="1.1" id="Capa_1" x="0px" y="0px" viewBox="0 0 512 512" style="enable-background:new 0 0 512 512;" xml:space="preserve" width="512" height="512">
<g>
	<g>
		<path d="M469.68,52.526c-4.365,0.845-8.709,1.812-13.097,2.512c-16.065,2.562-29.988,9.237-39.44,22.601    c-13.856,19.59-27.406,39.421-40.308,59.637c-20.315,31.833-40.013,64.054-59.915,96.146    c-16.122,25.998-32.188,52.03-48.188,78.102c-1.533,2.498-3.132,3.435-6.239,3.517c-15.002,0.397-30.081,0.71-43.878,7.695    c-3.01-4.74-5.47-9.583-8.856-13.673c-3.412-4.121-7.744-7.492-11.877-11.385c50.028-79.527,100.183-159.257,150.848-239.795    c-7.59-0.936-14.33-1.88-21.096-2.583c-25.319-2.628-49.854,2.096-74.256,7.952c-25.971,6.232-48.796,18.228-67.162,37.595    c-16.095,16.972-26.809,36.701-26.661,60.706c0.034,5.529,2.211,11.064,3.559,16.558c0.483,1.969,1.627,3.776,2.119,5.744    c0.98,3.916-0.836,6.332-4.865,6.453c-2.034,0.061-4.133-0.147-6.118-0.597c-21.681-4.915-37.919-22.307-41.934-44.79    c-3.714-20.792,2.301-39.048,15.13-55.302c8.483-10.747,19.021-19.085,32.456-24.374c-1.686-1.03-3.016-2.038-4.5-2.719    c-12.769-5.867-16.906-21.526-14.263-33.341C144.169,15.641,152.425,6.358,165.286,1c5.28-2.2,7.253-0.864,6.251,4.952    c-1.058,6.143-0.439,11.89,2.332,17.447c6.161,12.352,16.922,17.629,30.057,19.437c13.014,1.791,25.423-1.825,38.027-3.844    c19.466-3.117,38.876-6.807,58.455-8.93c21.487-2.33,42.58,0.401,62.521,9.525c10.975-13.188,26.096-17.564,42.306-18.571    c8.86-0.55,17.969-0.026,26.734,1.408c17.687,2.892,28.86,14.75,37.71,29.225C469.68,51.941,469.68,52.234,469.68,52.526z"/>
		<path d="M212.918,331.672c15.572-7.253,31.395-10.4,48.013-10.038c14.033,0.306,23.954,7.956,32.828,17.516    c0.949,1.023,1.314,3.493,0.737,4.738c-0.567,1.222-2.691,2.472-4.115,2.454c-20.119-0.266-34.657,10.058-47.814,23.744    c-19.869,20.667-35.527,44.316-50.56,68.454c-0.376,0.603-0.649,1.268-1.051,2.064c14.324,8.252,29.437,13.165,45.831,15.057    c40.62,4.687,79.474-1.775,115.988-19.306c26.992-12.959,47.03-33.488,57.076-62.285c4.964-14.23,6.09-28.473-0.665-42.668    c-1.056-2.219-1.561-6.475-0.323-7.574c1.883-1.672,5.721-2.366,8.37-1.807c16.381,3.46,29.312,12.063,37.213,26.995    c12.885,24.352,8.891,53.328-10.065,75.129c-8.491,9.765-18.397,17.652-31.09,22.622c1.696,1.034,3.04,2.049,4.536,2.736    c12.724,5.842,16.889,21.525,14.228,33.357c-3.087,13.726-11.51,23.041-24.585,28.323c-4.625,1.868-6.69,0.574-5.891-4.286    c1.052-6.399,0.704-12.453-2.252-18.321c-6.212-12.329-16.954-17.608-30.09-19.401c-13.013-1.776-25.42,1.853-38.029,3.851    c-20.487,3.247-40.903,7.625-61.527,9.161c-31.053,2.313-61.975-0.453-90.928-12.844c-7.027-3.007-10.602-1.621-15.849,2.138    c-26.308,18.844-55.487,22.917-86.546,15.147c-12.039-3.012-22.445-9.128-29.25-19.756c-2.356-3.679-3.66-8.238-4.53-12.576    c-0.939-4.686,0.657-5.828,5.45-4.642c13.807,3.417,27.267,2.226,40.105-3.593c5.267-2.388,10.428-5.553,14.745-9.359    c17.699-15.604,29.439-35.567,40.172-56.114c7.782-14.899,15.674-29.793,19.066-46.506c2.313-11.398,3.682-22.737,0.751-34.264    c-1.189-4.677,0.924-7.623,5.628-6.979c6.163,0.844,12.601,2.025,18.126,4.683c13.203,6.352,22.199,16.634,25.518,31.207    C212.327,329.558,212.573,330.376,212.918,331.672z"/>
	</g>
	<g>
		<path style="fill:#FFFFFF;" d="M191.34,361.1c3.187-1.555,6.453-3.787,10.058-4.699c2.693-0.681,6.411-0.568,8.62,0.827    c3.192,2.015,2.042,5.85,0.626,8.787c-1.445,2.998-3.102,6.029-5.273,8.528c-10.554,12.143-22.81,22.365-36.713,30.564    c-1.503,0.886-3.715,0.591-5.599,0.843c0.046-1.763-0.215-3.598,0.186-5.278c2.833-11.878,5.672-23.759,8.789-35.566    c1.257-4.759,2.939-9.457,4.942-13.959c1.666-3.744,4.812-5.999,9.259-5.041c4.214,0.907,4.526,4.631,5.032,7.884    C191.636,356.359,191.34,358.829,191.34,361.1z"/>
		<g>
			<path style="fill:#FFFFFF;" d="M370.371,81.221c-0.306,21.2-7.42,40.592-16.257,59.512     c-13.927,29.816-35.068,54.154-58.83,76.603c-13.325,12.589-26.755,25.174-38.943,38.809     c-11.918,13.332-19.096,29.356-20.847,47.422c-0.102,1.053-1.154,2.016-1.764,3.02c-0.657-1.014-1.929-2.065-1.87-3.037     c0.372-6.079,0.557-12.231,1.696-18.191c4.671-24.437,18.421-43.59,36.42-60.178c11.664-10.75,23.329-21.5,34.91-32.337     c21.919-20.51,39.087-44.407,51.675-71.542c6.617-14.264,9.393-29.384,10.25-44.935c0.048-0.875-0.165-1.832,0.129-2.607     c0.302-0.796,1.079-1.416,1.647-2.113c0.595,0.708,1.635,1.377,1.702,2.131C370.507,76.242,370.371,78.738,370.371,81.221z"/>
			<g>
				<path style="fill:#FFFFFF;" d="M271.168,273.923c-0.092,4.43-3.495,7.737-7.852,7.631c-4.126-0.101-7.298-3.319-7.138-7.242      c0.165-4.057,3.987-7.491,8.239-7.403C268.399,266.992,271.25,269.954,271.168,273.923z"/>
				<path style="fill:#FFFFFF;" d="M328.772,143.908c-0.083,3.891-3.481,7.217-7.423,7.264c-3.95,0.047-7.113-2.994-7.108-6.834      c0.004-4.069,3.455-7.176,7.895-7.109C326.023,137.286,328.852,140.134,328.772,143.908z"/>
			</g>
		</g>
	</g>
</g>















</svg>
