<svg id="Capa_1" enable-background="new 0 0 512 512" height="512" viewBox="0 0 512 512" width="512" xmlns="http://www.w3.org/2000/svg"><path d="m376.335 442.168c0-5.523-4.477-10-10-10h-335.672c-8.284 0-15 6.716-15 15v35.832c0 16.017 12.984 29.001 29.001 29.001h360.669c-16.015 0-28.998-12.983-28.998-28.998z"/><path d="m481.337 28.667c-8.284 0-15 6.716-15 15v66.166h15c8.284 0 15-6.716 15-15v-51.166s-.033-1.424-.5-3.783c-1.679-6.449-7.525-11.217-14.5-11.217z"/><path d="m221.149 123.079c-2.639 4.644-5.7 8.935-9.234 12.461-3.487 3.479-7.722 6.499-12.304 9.107 4.484 2.638 8.693 5.722 12.304 9.325 3.64 3.632 6.752 7.871 9.411 12.385 2.626-4.63 5.662-8.898 9.157-12.385 3.502-3.494 7.788-6.527 12.438-9.149-4.587-2.639-8.859-5.713-12.438-9.283-3.592-3.584-6.682-7.864-9.334-12.461z"/><path d="m465.332 0-349.669.013c-22.091.001-39.999 17.91-39.999 40.001v362.152h315.671c8.285 0 15 6.716 15 15l.042 53.493c0 8.077 6.207 15.027 14.275 15.407 8.614.406 15.726-6.458 15.726-14.983l-.042-442.073c0-16.015 12.98-29.002 28.996-29.01zm-159.662 72.524c2.79-2.789 6.66-4.39 10.61-4.39 3.94 0 7.81 1.601 10.6 4.39 2.8 2.801 4.4 6.66 4.4 10.61s-1.6 7.811-4.4 10.61c-2.79 2.79-6.66 4.39-10.6 4.39-3.95 0-7.82-1.6-10.61-4.39-2.79-2.8-4.39-6.66-4.39-10.61s1.6-7.809 4.39-10.61zm-115.26 264.351c-2.79 2.79-6.66 4.39-10.61 4.39-3.94 0-7.81-1.6-10.6-4.39s-4.4-6.66-4.4-10.61 1.61-7.819 4.4-10.609 6.66-4.391 10.6-4.391c3.95 0 7.82 1.601 10.61 4.391s4.39 6.659 4.39 10.609-1.6 7.819-4.39 10.61zm45.622-119.739c-1.114 7.343-7.43 12.757-14.828 12.757-.099 0-.196-.001-.294-.003-7.524-.146-13.777-5.837-14.617-13.315-.873-7.558-5.613-31.434-15.567-41.366-9.963-9.94-33.913-14.673-41.517-15.548-7.489-.861-13.187-7.147-13.296-14.686-.109-7.537 5.38-13.986 12.841-15.064 11.924-1.749 33.881-7.535 41.972-15.607 8.083-8.065 13.878-29.958 15.631-41.862 1.085-7.365 7.407-12.822 14.839-12.822.042 0 .082 0 .123.001 7.486.061 13.782 5.622 14.753 13.045 1.551 11.617 7.16 33.217 15.601 41.639 8.448 8.429 30.113 14.03 41.784 15.581 7.41.985 12.974 7.277 13.033 14.752s-5.385 13.854-12.777 14.956c-12.919 1.953-34.494 8.087-42.04 15.616-7.542 7.524-13.687 29.047-15.641 41.926zm95.577 113.8c-5.087.784-11.451 2.851-13.253 4.293-1.441 1.795-3.506 8.131-4.29 13.194-1.133 7.324-7.443 12.725-14.823 12.725-.106 0-.21-.001-.316-.003-7.516-.157-13.757-5.833-14.596-13.304-.578-4.8-2.665-11.078-4.208-12.617-1.548-1.544-7.857-3.634-12.738-4.219-7.501-.839-13.182-7.116-13.303-14.663-.121-7.546 5.412-14.004 12.882-15.083 5.041-.756 11.393-2.821 13.156-4.275 1.555-1.877 3.638-8.715 4.273-13.095 1.071-7.379 7.397-12.846 14.843-12.846h.107c7.492.053 13.796 5.625 14.768 13.054.674 4.904 2.785 11.319 4.256 12.905 1.713 1.58 8.557 3.657 12.938 4.228 7.42.967 12.992 7.254 13.061 14.736.067 7.472-5.373 13.853-12.757 14.97zm40.241-94.271c-2.79 2.79-6.66 4.39-10.61 4.39s-7.81-1.6-10.6-4.39c-2.8-2.79-4.4-6.66-4.4-10.61 0-3.939 1.6-7.81 4.4-10.609 2.79-2.79 6.66-4.391 10.6-4.391 3.95 0 7.82 1.601 10.61 4.391 2.79 2.8 4.39 6.67 4.39 10.609 0 3.949-1.6 7.819-4.39 10.61z"/></svg>