<svg id="Layer_1" enable-background="new 0 0 100 100" viewBox="0 0 100 100" xmlns="http://www.w3.org/2000/svg"><path d="m94.4809036 28.6179428-42.9391784 21.9881325c-.9680176.495697-2.1153374.495697-3.0833549 0l-42.9393078-21.9881306c-1.5318055-.784399-1.5318055-2.9736423 0-3.7580414l42.9393077-21.9881312c.9680176-.4956968 2.1153374-.4956961 3.0833549.0000019l42.9391785 21.9881306c1.5317993.7843997 1.5317993 2.9736392 0 3.7580382z"/><path d="m94.4798737 51.877491-42.9388047 21.9866295c-.9710693.4960709-2.1110535.4960709-3.082119 0l-42.9388699-21.9866295c-1.5410273-.7810783-1.5410273-2.976593 0-3.7576714l12.0963554-6.1959343 27.9503174 14.3235016c1.3722343.6966171 2.9026947 1.0660896 4.4332237 1.0660896 1.5305252 0 3.0610504-.3694725 4.4332237-1.0660896l27.9503136-14.3235016 12.0963593 6.1959343c1.5410924.7810784 1.5410924 2.9765931.0000005 3.7576714z"/><path d="m94.4798737 75.1413345-42.9388047 21.9865647c-.9710693.4961319-2.1110535.4961319-3.082119 0l-42.9388699-21.9865647c-1.5410273-.7916489-1.5410273-2.976593 0-3.7682343l12.0963554-6.1959381 27.9608803 14.3235016c1.3616714.6966171 2.8921318 1.0660248 4.4226608 1.0660248 1.5305252 0 3.0610504-.3694077 4.422657-1.0660248l27.9608803-14.3235016 12.0963593 6.1959381c1.5410924.7916413 1.5410924 2.9765855.0000005 3.7682343z"/></svg>