<?xml version="1.0" encoding="iso-8859-1"?>
<!-- Generator: Adobe Illustrator 26.5.3, SVG Export Plug-In . SVG Version: 6.00 Build 0)  -->
<svg xmlns="http://www.w3.org/2000/svg" xmlns:xlink="http://www.w3.org/1999/xlink" version="1.1" id="Capa_1" x="0px" y="0px" viewBox="0 0 512 512" style="enable-background:new 0 0 512 512;" xml:space="preserve">
<g>
	<g>
		<path d="M361.757,410.383c-2.175,4.744-4.152,9.575-7.182,13.869c-3.297,4.673-6.803,9.15-11.74,12.236    c-8.397,5.25-17.462,3.616-23.534-4.23c-5.921-7.65-8.682-16.52-8.878-25.999c-0.526-25.442,5.148-49.586,16.105-72.519    c0.278-0.582,0.876-1.112,0.521-1.904c-0.877-0.212-1.466,0.38-2.087,0.76c-6.879,4.2-14.342,6.694-22.336,7.546    c-1.634,0.174-2.166,0.756-2.309,2.392c-2.388,27.288-7.169,54.111-15.876,80.149c-1.443,4.316-3.306,8.431-5.819,12.264    c-4.965,7.573-13.397,8.759-20.147,2.716c-3.057-2.737-5.003-6.209-6.399-10.011c-2.741-7.463-3.595-15.232-3.927-23.225    c-0.701,1.856-1.411,3.709-2.103,5.568c-3.2,8.596-6.62,17.087-12.286,24.434c-2.47,3.202-5.288,6.065-9.321,7.247    c-4.849,1.421-9.337,0.301-13.375-2.489c-7.29-5.036-11.167-12.436-13.345-20.711c-5.797-22.03-3.701-43.607,4.325-64.741    c2.551-6.718,5.662-13.151,10.453-18.616c3.433-3.916,7.425-7.077,12.201-9.291c11.009-5.103,22.515,0.681,27.358,10.152    c1.298,2.537,2.119,5.256,3.085,8.465c0.714-1.999,1.304-3.525,1.806-5.079c0.97-3.005,3.013-4.472,6.154-4.642    c3.476-0.188,6.927,0.031,10.349,0.542c3.129,0.467,4.371,2.641,3.697,6.468c-0.774,4.392-1.615,8.777-2.585,13.129    c-3.566,16.006-6.234,32.16-7.783,48.48c-0.682,7.185-1.159,14.421-0.095,21.633c0.339,2.299,1.043,4.497,2.236,6.509    c1.194,2.015,2.141,2.227,4.149,0.988c1.429-0.882,2.309-2.225,3.082-3.662c3.755-6.98,5.674-14.611,7.751-22.168    c5.807-21.127,8.313-42.865,11.774-64.426c0.24-1.495,0.024-2.155-1.656-2.49c-11.349-2.266-17.72-9.878-20.418-20.511    c-3.666-14.451,0.642-27.208,9.812-38.513c3.604-4.443,5.919-4.758,11.004-2.141c2.736,1.408,5.525,2.732,8.019,4.554    c2.857,2.087,3.108,3.359,1.335,6.43c-3.928,6.805-7.78,13.642-9.662,21.371c-0.768,3.151-1.182,6.345-1.154,9.594    c0.025,2.938,0.954,5.58,2.516,8.036c2.092,3.288,5.174,4.433,8.91,4.113c6.36-0.544,12.302-2.49,18.098-5.127    c4.017-1.828,7.784-3.972,11.275-6.657c1.431-1.1,3.109-1.264,4.829-0.673c4.888,1.681,8.636,4.971,11.965,8.746    c1.601,1.816,0.853,3.953-0.01,5.889c-2.883,6.467-5.547,13.017-7.885,19.703c-5.168,14.774-9.427,29.768-11.197,45.378    c-0.793,6.993-0.87,13.964,0.796,20.863c0.582,2.41,1.425,4.701,3.052,6.649c2.322,2.78,5.387,3.211,8.322,1.02    c4.359-3.253,7.287-7.693,9.813-12.381c2.995-5.56,5.294-11.451,7.613-17.313c1.297-3.279,0.803-6.865,0.842-10.285    c0.155-13.771,0.988-27.512,1.654-41.258c0.412-8.514,1.267-17.005,2.565-25.452c0.789-5.133,3.283-8.246,8.446-9.268    c2.714-0.537,5.385-1.316,8.162-1.466c3.808-0.205,5.391,1.256,5.299,5.151c-0.078,3.301-0.409,6.597-0.668,9.891    c-0.422,5.358-0.878,10.714-1.08,16.159c0.866-2.149,1.651-4.335,2.612-6.441c3.444-7.548,7.895-14.278,15.421-18.416    c10.31-5.669,24.426-3.916,29.591,10.922c2.823,8.11,2.328,16.354,1.115,24.638c-0.111,0.759-0.206,1.521-0.282,2.284    c-0.01,0.105,0.136,0.225,0.318,0.503c2.368-4.126,4.436-8.322,7.076-12.173c5.962-8.696,12.887-16.291,23.113-20.08    c4.691-1.738,9.494-2.568,14.486-1.681c8.401,1.492,14.697,9.101,15.047,18.054c0.31,7.921-1.71,15.38-4.282,22.757    c-5.068,14.54-11.502,28.534-17.07,42.873c-4.907,12.635-9.234,25.457-11.645,38.843c-1.456,8.086-1.733,16.201-0.201,24.309    c0.976,5.168,3.055,9.807,6.811,13.617c2.828,2.869,6.273,3.627,9.98,2.644c4.196-1.113,7.677-3.443,10.064-7.218    c6.55-10.358,8.798-21.69,7.587-33.772c-0.489-4.877-2.884-8.851-6.329-12.256c-3.027-2.992-2.714-5.601,0.966-7.802    c2.437-1.458,4.782-3.1,7.528-3.987c5.79-1.871,10.022,0.2,12.05,5.905c2.378,6.689,2.124,13.527,0.638,20.27    c-3.056,13.866-7.781,27.048-17.017,38.192c-3.907,4.714-8.625,8.355-14.344,10.552c-11.147,4.282-20.964,1.79-29.639-6.094    c-7.658-6.959-10.995-15.951-12.087-25.953c-1.882-17.231,1.35-33.844,6.16-50.267c4.3-14.681,10.891-28.42,17.209-42.276    c4.273-9.372,8.924-18.608,10.91-28.847c0.444-2.291,0.512-4.592-0.001-6.874c-0.655-2.913-1.873-3.695-4.787-3.281    c-3.07,0.436-5.674,1.854-8.085,3.707c-7.422,5.707-12.51,13.289-17.007,21.317c-5.805,10.363-10.763,21.132-14.215,32.502    c-2.887,9.509-4.313,19.354-5.714,29.179c-0.401,2.816-0.641,5.654-1.021,8.473c-0.453,3.366-1.652,4.843-4.95,5.044    c-4.752,0.29-9.534,0.275-14.296,0.152c-2.425-0.063-3.863-1.667-4.357-4.349c-1.043-5.671-0.381-11.333,0.148-17.006    c1.874-20.103,7.688-39.356,12.545-58.821c1.842-7.382,3.684-14.795,3.527-22.5c-0.039-1.91,0.19-4.1-1.659-5.261    c-2.024-1.271-3.707,0.412-5.22,1.436c-6.463,4.37-10.644,10.524-13.521,17.685c-4.57,11.377-6.43,23.398-8.599,35.356    c-2.257,12.449-3.125,25.007-3.373,37.635c-0.092,4.683-0.451,9.367-0.853,14.036c-0.383,4.448-1.926,5.924-6.314,6.495    c-0.687,0.089-1.376,0.152-2.063,0.243c-5.12,0.679-7.906-1.346-8.724-6.505C362.493,423.531,362.116,417.007,361.757,410.383z     M214.027,398.809c0,1.539-0.062,3.08,0.01,4.616c0.348,7.408,1.089,14.745,4.48,21.514c2.815,5.619,6.994,6.227,11.269,1.596    c2.568-2.782,4.623-5.939,6.266-9.364c3.277-6.835,5.383-14.079,7.329-21.358c3.615-13.53,6.875-27.124,6.614-41.297    c-0.097-5.279-1.291-10.193-3.782-14.82c-2.777-5.159-7.617-5.873-12.042-1.966c-4.214,3.72-6.736,8.571-9.244,13.399    C217.172,366.061,214.396,382.171,214.027,398.809z"/>
		<path d="M112.628,422.992c-1.271,6.199-2.518,12.352-4.294,18.365c-2.619,8.869-5.571,17.651-10.856,25.35    c-8.942,13.026-23.417,14.392-34.693,3.262c-8.287-8.18-12.604-18.435-14.69-29.729c-2.781-15.053-2.127-30.145-0.659-45.277    c2.455-25.298,7.848-50.14,11.439-75.258c2.002-14.003,4.407-27.963,5.261-42.109c0.167-2.764-0.136-5.541-0.921-8.217    c-1.045-3.563-3.972-5.684-7.701-5.836c-5.204-0.212-9.67,1.8-13.671,4.789c-7.702,5.755-12.653,13.575-15.833,22.516    c-3.832,10.774-4.462,21.787-1.644,32.906c1.676,6.613,4.56,12.569,10.046,16.963c1.639,1.313,3.392,2.359,5.408,3.004    c2.682,0.858,3.045,2.213,1.174,4.386c-2.913,3.385-6.76,5.033-11.089,5.553c-11.196,1.346-21.179-5.059-25.961-16.588    c-5.192-12.517-4.945-25.281-1.087-37.978c4.818-15.857,13.955-28.729,28.143-37.589c8.154-5.093,17.079-7.897,26.823-6.337    c11.159,1.786,18.651,8.156,22.449,18.841c2.632,7.406,3.606,15.104,3.876,22.889c0.487,14.021-1,27.953-2.065,41.906    c-1.456,19.096-3.757,38.104-5.77,57.142c-1.214,11.482-2.067,22.967-1.867,34.529c0.146,8.396,1.44,16.543,4.479,24.373    c1.09,2.809,2.64,5.394,4.847,7.506c3.36,3.215,6.812,2.976,9.66-0.701c3.205-4.139,5.049-8.97,6.755-13.836    c4.679-13.344,7.061-27.209,9.351-41.108c1.528-9.276,0.739-18.578,0.852-27.868c0.219-18.074,0.786-36.127,2.865-54.096    c0.503-4.345,1.103-8.694,2.513-12.882c0.825-2.45,2.397-3.805,4.99-4.13c4.818-0.605,9.673-0.157,14.507-0.646    c2.575-0.26,4.145,2.216,3.842,5.451c-0.402,4.285-0.886,8.563-1.381,12.838c-1.293,11.147-2.299,22.318-3.201,33.505    c-1.238,15.352-1.6,30.725-1.21,46.101c0.354,13.977,0.584,28.005,4.422,41.633c1.026,3.642,2.175,7.221,4.242,10.431    c0.624,0.969,1.233,1.954,1.943,2.859c3.961,5.046,7.19,4.97,10.919-0.178c3.675-5.073,5.746-10.89,7.496-16.783    c3.088-10.395,5.951-20.859,7.815-31.565c1.256-7.214,1.621-14.517,2.043-21.8c0.422-7.288,0.647-14.593,0.577-21.906    c-0.226-23.44-2.544-46.65-7.107-69.65c-2.507-12.637-5.94-24.982-10.653-36.974c-1.684-4.285-0.424-6.788,3.96-8.046    c4.369-1.254,8.767-2.409,13.345-2.483c4.707-0.077,6.834,1.556,7.786,6.136c2.79,13.417,4.691,26.956,5.785,40.625    c0.854,10.666,1.147,21.36,1.118,32.029c-0.036,13.366-0.719,26.732-1.97,40.067c-1.972,21.033-5.529,41.777-10.7,62.243    c-2.582,10.221-5.48,20.361-10.314,29.814c-2.077,4.062-4.56,7.849-7.787,11.104c-6.11,6.165-13.62,6.766-20.601,1.662    c-8.537-6.242-13.044-15.17-16.392-24.82c-2.831-8.16-4.699-16.567-6.006-25.101C113.174,423.87,113.356,423.339,112.628,422.992z    "/>
		<path d="M221.132,459.658c11.39-0.035,21.492,2.244,31.528,5.029c14.698,4.079,28.867,9.684,43.221,14.761    c10.702,3.786,21.599,6.971,33.127,6.102c17.199-1.298,31.798-7.946,42.614-21.79c1.984-2.539,3.612-5.351,4.741-8.413    c0.724-1.964,1.79-3.704,4.12-3.855c2.472-0.159,4.255,1.212,5.511,3.194c1.748,2.759,2.255,5.828,2.032,9.071    c-0.664,9.636-5.297,17.257-12.246,23.547c-11.158,10.099-24.742,12.382-39.155,11.549c-17.313-1-33.594-6.569-50.027-11.457    c-12.158-3.616-24.189-7.737-36.777-9.707c-9.174-1.436-18.364-1.785-27.541,0.086c-8.201,1.672-15.162,5.37-20.321,12.152    c-1.064,1.398-2.372,2.62-3.635,3.854c-1.737,1.696-3.682,1.691-5.703,0.506c-1.082-0.634-1.94-1.512-2.666-2.518    c-4.353-6.035-3.744-15.393,1.141-21.01c5.893-6.777,13.728-9.309,22.194-10.568C216.181,459.76,219.098,459.533,221.132,459.658z    "/>
	</g>
	<g>
		<path d="M445.364,237.561c-11.637,0-20.003,0.111-28.365-0.019c-42.232-0.658-84.466-0.123-126.698-0.268    c-3.131-0.011-6.262,0.265-9.393,0.257c-1.81-0.005-2.297,0.528-1.867,2.361c1.85,7.889,4.571,15.5,7.16,23.156    c0.579,1.714,1.071,3.463,1.491,5.222c0.334,1.399,0.447,2.92-1.187,3.604c-1.545,0.647-2.532-0.448-3.242-1.607    c-2.585-4.217-5.088-8.484-7.651-12.715c-4.872-8.042-9.522-16.24-16.068-23.121c-1.924-2.023-3.94-3.933-6.311-5.441    c-4.485-2.852-7.612-1.789-9.348,3.283c-1.547,4.52-1.979,9.249-2.405,13.968c-0.313,3.464-0.512,6.938-0.837,10.401    c-0.125,1.334-0.389,2.73-2.159,2.849c-1.703,0.114-2.253-1.122-2.66-2.441c-1.682-5.458-3.306-10.934-5.036-16.377    c-1.038-3.265-2.328-6.428-4.71-9.006c-2.769-2.997-4.757-2.901-7.427,0.189c-4.081,4.723-6.27,10.497-9.039,15.951    c-3.69,7.267-6.658,14.888-10.755,21.955c-0.28,0.482-0.51,0.996-0.824,1.453c-0.643,0.938-1.526,1.494-2.679,1.144    c-1.124-0.341-1.32-1.318-1.324-2.355c-0.017-4.055,0.672-8.047,1.101-12.06c0.998-9.34,2.686-18.619,2.371-28.074    c-0.086-2.589-0.298-5.147-0.95-7.653c-1.042-4.007-3.632-5.656-7.657-4.76c-5.328,1.185-9.494,4.541-13.819,7.584    c-3.874,2.726-7.751,5.449-11.631,8.167c-0.284,0.199-0.594,0.369-0.908,0.516c-0.883,0.413-1.827,0.988-2.704,0.131    c-0.924-0.904-0.531-1.914,0.046-2.858c1.67-2.735,3.308-5.491,5.026-8.197c1.871-2.947,3.601-5.966,4.981-9.174    c2.349-5.459,0.466-8.369-5.547-8.673c-5.263-0.266-10.432,0.371-15.553,1.52c-8.911,1.999-17.693,4.477-26.424,7.14    c-0.597,0.182-1.208,0.378-1.824,0.427c-0.986,0.078-1.779-0.32-2.174-1.284c-0.396-0.967-0.147-1.836,0.674-2.414    c0.964-0.678,1.99-1.287,3.045-1.814c7.415-3.704,15.019-7.032,22.222-11.161c3.288-1.885,6.414-3.979,8.663-7.1    c2.947-4.089,2.221-7.528-2.067-10.24c-3.79-2.397-8.063-3.409-12.387-4.212c-4.245-0.788-8.516-1.436-12.772-2.167    c-1.027-0.176-2.051-0.399-3.055-0.677c-0.711-0.197-1.265-0.648-1.225-1.483c0.04-0.856,0.688-1.191,1.395-1.326    c2.463-0.47,4.939-0.87,7.401-1.34c5.803-1.109,11.76-1.75,16.753-5.385c0.338-0.246,0.695-0.468,1.018-0.732    c3.474-2.833,3.393-5.923-0.185-8.593c-3.439-2.566-7.314-4.319-11.217-5.997c-10.286-4.423-21.03-7.348-31.971-9.606    c-1.368-0.282-2.679-0.694-2.548-2.451c0.132-1.778,1.404-2.282,2.95-2.257c6.143,0.1,12.195,1.116,18.281,1.815    c6.492,0.745,12.984,1.68,19.551,1.078c1.174-0.108,2.356-0.278,3.497-0.568c3.858-0.979,4.64-3.101,2.409-6.446    c-1.094-1.641-2.558-2.945-4.049-4.203c-4.589-3.873-9.495-7.308-14.591-10.479c-0.414-0.258-0.838-0.5-1.253-0.757    c-1.224-0.759-2.149-1.739-1.424-3.256c0.699-1.463,2.067-1.559,3.427-1.106c2.113,0.705,4.208,1.476,6.28,2.294    c4.738,1.871,9.485,3.694,14.606,4.228c0.76,0.079,1.527,0.161,2.289,0.145c2.383-0.05,3.452-1.284,3.066-3.633    c-0.424-2.583-1.531-4.925-2.912-7.116c-5.29-8.392-12.347-15.24-19.427-22.059c-1.958-1.885-4.068-3.594-6.226-5.254    c-1.75-1.347-2.059-2.929-1.032-4.11c1.06-1.218,2.665-0.89,4.398,0.495c9.068,7.249,18.651,13.672,29.538,17.929    c1.503,0.588,3.08,0.843,4.705,0.842c3.477-0.003,4.691-1.425,3.885-4.859c-0.814-3.47-2.114-6.782-3.722-9.964    c-1.006-1.99-2.104-3.933-3.084-5.935c-0.506-1.033-1.339-2.265-0.205-3.254c1.17-1.021,2.435-0.214,3.413,0.552    c1.973,1.543,3.904,3.152,5.737,4.858c2.096,1.951,4.2,3.883,6.631,5.407c3.174,1.991,4.816,1.217,5.083-2.529    c0.264-3.7-0.266-7.38-0.915-11.011c-1.856-10.393-5.018-20.416-8.782-30.261c-0.174-0.455-0.357-0.911-0.474-1.382    c-0.277-1.114-0.081-2.119,0.976-2.724c1.13-0.646,2.138-0.306,3.028,0.566c0.564,0.553,0.848,1.258,1.188,1.947    c5.087,10.302,9.61,20.91,16.259,30.37c1.277,1.817,2.758,3.5,4.237,5.163c0.662,0.744,1.399,1.803,2.592,1.368    c1.024-0.373,1.103-1.511,1.282-2.475c0.733-3.947,0.557-7.926,0.231-11.879c-0.406-4.923-0.812-9.855-1.874-14.703    c-0.297-1.353-0.218-2.766,1.438-3.255c1.654-0.488,2.594,0.424,3.217,1.888c0.933,2.191,1.446,4.509,2.183,6.757    c1.807,5.513,3.964,10.881,7.639,15.457c1.943,2.419,2.884,2.187,3.844-0.756c0.498-1.526,0.788-3.1,0.805-4.716    c0.143-13.466-0.534-26.869-3.073-40.13c-0.157-0.819-0.301-1.652-0.331-2.482c-0.043-1.223,0.426-2.197,1.703-2.556    c1.348-0.379,2.336,0.19,2.955,1.355c0.355,0.668,0.571,1.418,0.784,2.15c2.699,9.302,5.405,18.605,9.082,27.582    c2.44,5.957,5.409,11.628,9.646,16.542c0.815,0.945,1.685,1.872,2.658,2.646c3.389,2.698,5.415,2.486,8.09-0.975    c2.673-3.457,4.352-7.445,5.699-11.572c1.795-5.501,3.241-11.1,4.623-16.715c0.116-0.473,0.245-0.944,0.384-1.411    c0.321-1.073,1.021-1.611,2.168-1.556c1.17,0.056,1.779,0.765,2.001,1.801c0.356,1.651,0.195,3.327,0.083,4.996    c-0.401,5.983-0.654,11.967,0.154,17.937c0.376,2.774,1.132,5.466,2.168,8.057c1.727,4.321,4.976,5.624,9.274,3.843    c3.942-1.634,7.11-4.355,10.138-7.258c8.377-8.03,15.654-17.016,22.722-26.184c1.403-1.82,2.919-3.552,4.378-5.329    c0.832-1.013,1.781-2.046,3.153-1.146c1.505,0.988,0.854,2.338,0.107,3.486c-5.423,8.34-9.458,17.365-13.115,26.571    c-1.725,4.342-3.107,8.797-3.866,13.432c-0.435,2.661-0.311,5.273,0.303,7.88c0.811,3.442,3.039,5.382,6.453,6.009    c5.689,1.045,11.084-0.502,16.418-2.099c5.871-1.758,11.662-3.78,17.488-5.687c0.463-0.152,0.916-0.347,1.389-0.455    c1.128-0.257,2.137-0.106,2.547,1.152c0.379,1.164-0.305,1.906-1.273,2.309c-2.58,1.073-5.078,2.3-7.46,3.756    c-5.313,3.247-10.398,6.76-14.134,11.893c-1.572,2.16-2.857,4.433-3.589,7.027c-0.735,2.609,0.075,4.659,2.055,6.332    c2.623,2.216,5.791,3.307,9.033,4.18c9.106,2.453,18.463,3.547,27.746,5.034c6.672,1.069,13.363,2.032,19.967,3.478    c1.205,0.264,3.055,0.135,3.09,1.879c0.039,1.969-1.861,1.441-3.051,1.651c-4.622,0.814-9.299,0.629-13.964,0.717    c-8.506,0.16-16.97,0.832-25.327,2.497c-3.671,0.731-7.083,2.148-9.938,4.616c-3.506,3.031-3.655,6.6-0.493,10.015    c3.388,3.658,7.393,6.558,11.589,9.204c3.534,2.229,7.088,4.427,10.62,6.66c1.03,0.651,2.096,1.43,1.432,2.845    c-0.61,1.299-1.824,0.975-2.941,0.743c-6.638-1.379-13.323-2.086-20.117-1.556c-2.208,0.173-4.243,0.764-6.163,1.8    c-4.151,2.239-5.385,5.967-3.476,10.255c0.605,1.359,1.43,1.917,2.955,1.426c6.793-2.188,13.501-1.41,20.104,0.824    c1.573,0.532,2.249,0.29,2.99-1.279c6.41-13.584,17.308-20.731,32.212-20.415c13.118,0.278,23.318,6.451,29.542,18.351    c0.943,1.802,1.496,1.984,3.244,0.74c8.148-5.796,16.642-5.014,25.069-0.65c10.616,5.497,16.061,14.669,18.027,26.163    c0.387,2.262,0.649,4.554,0.8,6.843c0.095,1.45,0.615,2.046,2.072,1.774c10.745-2.004,19.937,6.507,22.486,15.266    c1.128,3.877,2.179,7.77,1.724,11.911c-0.224,2.045-1.246,2.663-3.155,2.73C466.476,237.606,454.284,237.61,445.364,237.561z     M136.104,171.773c0.749,0.143,1.5,0.279,2.248,0.429c4.936,0.987,9.811,2.151,14.048,5.07c5.836,4.021,6.853,9.809,2.699,15.523    c-2.335,3.212-5.45,5.56-8.785,7.623c-1.813,1.122-3.699,2.129-5.551,3.187c5.337-1.149,10.623-2.254,16.024-2.724    c4.122-0.359,8.217-0.433,12.153,1.154c3.714,1.498,5.309,3.922,5.288,7.892c-0.014,2.676-1.139,4.994-2.225,7.334    c-1.252,2.697-2.959,5.137-4.41,7.747c0.429-0.157,0.742-0.408,1.061-0.65c4.77-3.631,9.558-7.231,15.096-9.665    c8.844-3.887,15.293-0.264,16.816,9.28c1.245,7.802,0.628,15.549-0.248,23.308c-0.423,3.751-0.927,7.492-1.395,11.238    c0.543-0.41,0.782-0.892,1.004-1.382c3.014-6.665,5.96-13.362,9.063-19.986c1.725-3.683,4.067-6.991,7.154-9.692    c3.837-3.358,8.146-3.081,11.683,0.584c3.911,4.053,5.798,9.117,7.367,14.356c0.443,1.477,0.866,2.961,1.447,4.951    c0.615-1.769,0.462-3.034,0.572-4.265c0.451-5.077,1.012-10.126,3.256-14.813c2.412-5.039,7.424-6.812,12.415-4.281    c2.492,1.264,4.791,2.832,6.809,4.798c4.822,4.695,8.9,9.972,12.419,15.696c1.734,2.82,3.495,5.624,5.244,8.435    c0.177-0.92-0.011-1.701-0.265-2.459c-1.176-3.504-2.303-7.03-3.005-10.656c-0.351-1.811-1.054-2.598-3.002-2.628    c-3.062-0.048-4.04-0.943-4.799-3.917c-0.867-3.398-1.1-6.827-0.665-10.347c1.275-10.309,7.8-18.089,17.505-20.701    c3.496-0.941,7.045-0.799,10.595-0.577c0.986,0.062,1.517-0.054,1.663-1.23c0.711-5.739,2.149-7.287,7.837-8.279    c1.467-0.256,2.355-0.824,2.948-2.197c1.988-4.603,5.221-8.233,9.306-11.049c1.376-0.949,1.352-1.675,0.735-3.043    c-3.144-6.979-0.96-12.904,5.904-16.39c4.596-2.335,9.498-2.517,14.484-2.072c1.336,0.119,2.659,0.326,4.391,0.114    c-1.794-1.13-3.229-1.981-4.609-2.913c-3.986-2.692-8.019-5.356-10.991-9.235c-3.209-4.189-3.226-8.765-0.032-12.915    c3.228-4.193,7.888-6.11,12.774-7.421c5.667-1.52,11.519-1.89,17.368-2.31c-5.198-0.924-10.422-1.696-15.611-2.65    c-5.892-1.083-11.792-2.187-17.152-5.102c-6.098-3.316-7.887-7.826-5.572-14.325c1.579-4.434,4.395-8.035,7.743-11.269    c0.628-0.606,1.479-1.045,1.751-2c-0.688-0.398-1.257,0.04-1.822,0.189c-3.639,0.964-7.295,1.748-11.054,2.176    c-9.704,1.103-15.793-4.122-15.956-13.811c-0.098-5.848,1.744-11.254,3.672-16.635c1.117-3.117,2.435-6.162,3.663-9.239    c-4.164,4.353-8.026,8.921-12.414,12.975c-4.093,3.782-8.219,7.573-13.778,9.192c-6.071,1.769-10.942-0.581-13.386-6.407    c-1.983-4.725-3.042-9.652-3.474-14.787c-0.523,1.068-0.889,2.165-1.296,3.246c-1.7,4.519-3.58,8.945-7.081,12.432    c-3.283,3.271-6.974,3.668-11.045,1.438c-4.502-2.465-7.503-6.373-10.305-10.465c-3.029-4.423-5.16-9.332-7.349-14.364    c-0.489,0.875-0.273,1.64-0.278,2.366c-0.027,4.251,0.016,8.503-0.035,12.753c-0.037,3.036-0.556,5.895-2.644,8.36    c-2.316,2.734-4.793,3.169-7.621,0.989c-2.381-1.835-3.895-4.334-5.233-6.958c-0.553-1.083-1.086-2.177-1.628-3.265    c-0.294,0.826-0.216,1.508-0.156,2.192c0.326,3.766,0.22,7.506-0.551,11.223c-1.34,6.46-6.744,6.233-10.141,2.955    c-2.11-2.036-4.088-4.187-5.656-6.683c-1.922-3.059-3.84-6.121-5.76-9.181c0.986,4.901,2.065,9.723,2.437,14.663    c0.235,3.122,0.58,6.271-0.61,9.296c-1.163,2.957-3.371,4.144-6.469,3.564c-3.212-0.601-5.652-2.598-8.157-4.483    c-0.559-0.42-0.979-1.116-1.913-1.132c1.021,3.416,2.546,6.514,2.856,9.961c0.316,3.524-1.443,6.076-4.798,7.062    c-3.179,0.934-6.219,0.248-9.22-0.73c-4.493-1.464-8.656-3.672-12.846-5.903c0.597,0.986,1.316,1.81,2.015,2.651    c3.607,4.338,7.344,8.585,9.715,13.794c1.045,2.296,1.928,4.637,1.976,7.202c0.064,3.377-1.496,5.414-4.754,6.135    c-3.044,0.674-6.084,0.534-9.119-0.148c-1.023-0.23-2.027-0.756-3.472-0.5c2.706,2.339,5.251,4.377,7.451,6.789    c5.31,5.819,3.382,12.24-4.23,13.935c-2.245,0.5-4.524,0.748-6.838,0.787c-3.332,0.056-6.649-0.207-10.135-0.449    c0.584,0.799,1.338,0.798,1.953,1.044c6.145,2.464,12.365,4.785,17.817,8.654c2.609,1.851,4.839,4.085,5.116,7.519    c0.324,4.031-1.96,6.679-5.015,8.803C145.178,169.271,140.66,170.466,136.104,171.773z M378.162,233.316    c29.837,0.143,63.987-0.32,98.136,0.107c1.19,0.015,1.246-0.393,1.084-1.336c-0.495-2.891-1.114-5.767-2.166-8.492    c-2.375-6.151-8.894-12.743-17.739-11.264c-5.399,0.902-6.605-0.457-6.963-6.03c-0.453-7.05-1.873-13.844-5.939-19.777    c-4.355-6.355-10.246-10.647-17.935-11.939c-5.308-0.893-10.232,0.169-14.372,3.987c-2.651,2.445-4.281,2.198-6.331-0.681    c-0.807-1.134-1.568-2.304-2.295-3.491c-3.27-5.334-7.353-9.696-13.235-12.312c-14.42-6.413-29.536-0.903-36.687,9.672    c-1.452,2.147-2.699,4.382-3.893,6.668c-1.49,2.852-2.709,3.367-5.756,2.582c-1.619-0.417-3.236-0.846-4.856-1.257    c-3.978-1.01-8.036-1.16-12.033-0.447c-6.646,1.185-11.794,4.831-15.514,10.43c-2.695,4.056-4.492,8.465-4.974,13.38    c-0.365,3.724-1.535,4.658-5.323,4.386c-2.221-0.159-4.428-0.501-6.646-0.712c-4.768-0.453-9.504-0.509-13.832,1.987    c-8.558,4.935-11.549,12.733-11.373,22.184c0.034,1.816,0.716,2.389,2.506,2.387C305.967,233.305,339.908,233.316,378.162,233.316    z M300.002,200.165c0,0.277,0.002,0.553,0,0.83c-0.01,1.011,0.263,1.795,1.467,1.829c1.245,0.035,0.912-0.968,1.052-1.636    c0.156-0.745,0.292-1.497,0.373-2.253c0.074-0.701,0.765-1.668-0.16-2.044c-1.034-0.42-1.783,0.481-2.364,1.27    C299.94,198.742,299.987,199.472,300.002,200.165z"/>
		<path d="M170.232,149.141c0.106-15.386,4.604-29.389,13.747-41.749c11.624-15.714,27.307-24.917,46.708-27.009    c34.07-3.674,64.672,20.276,68.959,54.399c2.95,23.483-4.04,43.917-21.144,60.334c-23.35,22.412-59.387,24.801-84.655,4.541    c-13.529-10.847-20.884-25.269-23.149-42.377C170.34,154.579,170.231,151.87,170.232,149.141z M238.667,84.078    c-1.045,0-2.091-0.021-3.136,0.006c-1.114,0.028-2.234,0.033-3.338,0.165c-16.132,1.923-29.503,9.129-40.331,21.158    c-11.006,12.227-16.56,26.657-16.774,43.027c-0.141,10.839,2.531,21.073,7.817,30.632c11.325,20.482,34.412,32.424,57.503,29.46    c16.02-2.056,29.513-9.194,39.927-21.472c16.13-19.017,20.859-40.575,12.529-64.37C284.745,99.498,263.09,83.669,238.667,84.078z"/>
		<path d="M344.149,199.526c5.406,0.021,10.269,4.866,10.19,10.15c-0.076,5.005-4.784,9.486-9.896,9.419    c-5.497-0.072-9.811-4.428-9.782-9.875C334.689,203.883,338.974,199.506,344.149,199.526z M344.764,215.332    c3.419-0.023,6.182-3.002,6.111-6.587c-0.065-3.272-2.645-5.829-5.87-5.816c-3.545,0.013-6.427,2.863-6.416,6.342    C338.599,212.569,341.437,215.355,344.764,215.332z"/>
		<path d="M420.868,209.461c-0.065,5.419-4.489,9.671-10,9.612c-5.036-0.054-9.716-4.612-9.662-9.413    c0.061-5.41,4.819-10.137,10.206-10.138C416.638,199.521,420.933,204.035,420.868,209.461z M416.939,209.044    c-0.055-3.333-3.012-6.152-6.417-6.115c-3.354,0.036-5.906,2.654-5.873,6.027c0.036,3.649,2.805,6.445,6.318,6.38    C414.205,215.276,416.993,212.339,416.939,209.044z"/>
		<path d="M386.984,209.858c-0.421,3.102-0.411,6.21-1.659,9.076c-1.505,3.457-3.826,6.031-7.797,6.451    c-3.727,0.395-6.459-1.511-8.489-4.368c-2.407-3.387-3.393-7.156-2.052-11.271c0.374-1.145,0.874-2.357,2.388-2.171    c1.535,0.189,1.714,1.485,1.719,2.697c0.01,2.717,0.667,5.229,2.102,7.541c2.374,3.825,5.661,3.789,7.941-0.051    c1.536-2.587,1.868-5.512,2.542-8.348c0.248-1.042,0.292-2.499,1.887-2.21C386.97,207.459,386.777,208.871,386.984,209.858z"/>
		<path d="M362.113,183.063c3.194,0.033,5.604,1.398,7.154,4.221c0.981,1.787,1.62,3.695,1.888,5.71    c0.109,0.825,0.141,1.782-0.972,2.002c-0.98,0.194-1.291-0.623-1.611-1.322c-0.462-1.009-0.802-2.087-1.367-3.031    c-1.826-3.05-4.528-3.742-7.643-1.96c-2.293,1.313-4.056,3.119-4.987,5.676c-0.335,0.919-0.549,2.35-1.906,2.051    c-1.333-0.293-1.254-1.711-1.232-2.8C351.548,188.094,356.73,183.004,362.113,183.063z"/>
		<path d="M392.852,184.214c4.143-0.002,7.523,2.615,8.524,6.624c0.387,1.551,0.749,3.114,0.737,4.725    c-0.007,0.945-0.189,1.92-1.308,2.078c-1.118,0.158-1.282-0.809-1.508-1.625c-0.371-1.339-0.712-2.69-1.156-4.006    c-1.189-3.524-4.166-4.645-7.459-2.86c-2.412,1.308-3.619,3.571-4.723,5.918c-0.435,0.926-0.694,2.226-2.063,1.902    c-1.419-0.337-1.255-1.658-1.16-2.768C383.223,188.474,387.548,184.217,392.852,184.214z"/>
		<path d="M193.7,170.406c0.054-5.298,4.453-9.523,9.901-9.51c5.344,0.012,9.824,4.654,9.82,10.173    c-0.004,5.317-4.414,9.624-9.826,9.595C197.942,180.632,193.641,176.174,193.7,170.406z M204.504,164.808    c-3.419-0.084-6.008,2.322-6.124,5.692c-0.115,3.353,2.414,6.176,5.608,6.258c3.243,0.083,6.272-2.881,6.339-6.201    C210.393,167.329,207.924,164.892,204.504,164.808z"/>
		<path d="M276.594,170.879c-0.048,5.462-4.439,9.79-9.927,9.784c-5.38-0.006-9.823-4.377-9.796-9.639    c0.028-5.629,4.61-10.226,10.092-10.126C272.495,160.999,276.643,165.298,276.594,170.879z M265.983,164.806    c-3.474,0.003-5.97,2.294-6.015,5.522c-0.047,3.353,3.051,6.49,6.343,6.426c3.095-0.061,5.646-2.824,5.606-6.073    C271.875,167.249,269.403,164.803,265.983,164.806z"/>
		<path d="M209.265,153.538c-7.12-0.047-13.326-7.828-11.63-14.599c0.196-0.782,0.251-1.869,1.335-1.849    c1.152,0.021,1.002,1.146,1.141,1.923c0.739,4.135,2.605,7.544,6.603,9.252c2.88,1.231,6.674-0.331,8.963-3.307    c1.34-1.741,2.093-3.756,2.812-5.798c0.268-0.763,0.76-1.38,1.697-1.23c0.979,0.156,1.086,0.974,1.149,1.746    c0.48,5.869-3.387,11.633-8.983,13.413C211.348,153.409,210.32,153.565,209.265,153.538z"/>
		<path d="M260.56,153.544c-3.821-0.398-7.456-2.382-9.497-6.692c-0.957-2.021-1.315-4.255-1.651-6.456    c-0.143-0.936-0.212-2.122,1.024-2.429c1.263-0.314,1.656,0.76,1.982,1.693c0.737,2.113,1.533,4.187,3.085,5.869    c4.173,4.522,9.075,4.247,12.7-0.703c1.301-1.777,2.137-3.729,2.423-5.922c0.094-0.724,0.007-1.721,1.021-1.81    c1.119-0.098,1.238,0.946,1.446,1.726C274.885,145.535,268.534,153.496,260.56,153.544z"/>
		<path d="M240.301,181.102c-0.062,2.323-0.352,4.38-1.011,6.376c-0.894,2.71-2.701,4.381-5.597,4.548    c-3.11,0.18-5.633-1.07-7.083-3.854c-1.541-2.959-1.543-6.158-0.751-9.355c0.205-0.829,0.559-1.688,1.593-1.653    c1.208,0.041,1.342,1.081,1.436,1.969c0.197,1.866,0.299,3.748,0.901,5.539c0.562,1.67,1.469,3.034,3.489,3.049    c2.032,0.016,2.634-1.48,3.171-3.051c0.614-1.8,0.742-3.658,0.843-5.541c0.052-0.963-0.04-2.353,1.461-2.32    c1.319,0.029,1.213,1.33,1.393,2.232C240.295,179.786,240.266,180.564,240.301,181.102z"/>
	</g>
</g>
<g>
</g>
<g>
</g>
<g>
</g>
<g>
</g>
<g>
</g>
<g>
</g>
<g>
</g>
<g>
</g>
<g>
</g>
<g>
</g>
<g>
</g>
<g>
</g>
<g>
</g>
<g>
</g>
<g>
</g>
</svg>
