<?xml version="1.0" encoding="UTF-8"?>
<!-- Generator: Adobe Illustrator 25.4.1, SVG Export Plug-In . SVG Version: 6.00 Build 0)  -->
<svg xmlns="http://www.w3.org/2000/svg" xmlns:xlink="http://www.w3.org/1999/xlink" version="1.1" id="Capa_1" x="0px" y="0px" viewBox="0 0 512 512" style="enable-background:new 0 0 512 512;" xml:space="preserve" width="512" height="512">
<g>
	<g>
		<g>
			<path d="M395.012,162.17c-0.446,4.466-0.836,8.939-1.347,13.398c-2.519,21.979-10.655,41.995-21.292,61.247     c-15.406,27.883-39.349,45.152-68.738,56.256c-17.579,6.642-35.535,10.994-54.345,11.573c-5.904,0.182-11.832,0.046-17.735-0.239     c-12.669-0.612-23.054,3.123-32.508,12.099c-6.939-8.961-16.63-12.049-27.946-12.246c-0.255-3.057-0.665-6.003-0.718-8.956     c-0.191-10.556-0.364-21.115-0.34-31.672c0.015-6.821,2.627-8.493,8.807-5.671c12.027,5.492,24.785,6.642,37.696,5.856     c8.787-0.535,17.774-1.222,26.205-3.523c35.1-9.581,57.407-32.919,70.098-66.085c6.728-17.583,10.544-35.775,10.506-54.584     c-0.03-15.111-1.346-30.218-6.668-44.512c-9.092-24.418-25.393-42.116-51.247-49.108c-17.697-4.785-34.669-0.327-50.342,8.188     c-21.495,11.678-37.982,28.493-49.729,49.913c-5.893,10.744-8.362,22.372-9.103,34.303c-0.53,8.534,0.374,17.151,0.519,25.733     c0.028,1.663-0.496,3.335-0.766,5.004c-1.654-0.428-3.505-0.517-4.934-1.334c-19.309-11.03-31.087-27.121-33.481-49.445     c-0.054-0.503-0.405-0.975-0.617-1.461c0-4.389,0-8.779,0-13.168c0.246-1.185,0.561-2.36,0.728-3.555     c1.225-8.774,3.712-17.148,8.256-24.814c9.34-15.758,23.317-25.244,41.105-29.511c-0.2-0.257-0.319-0.553-0.534-0.662     c-0.982-0.497-1.969-0.998-2.994-1.396c-12.014-4.664-18.152-14.372-21.886-25.802c-1.673-5.122-1.495-10.597,1.128-15.595     c0.861-1.642,2.075-3.785,4.275-1.194c9.967,11.74,23.675,15.205,38.003,14.888c14.844-0.329,29.646-2.694,44.457-4.259     c15.71-1.66,31.458-2.633,47.091,0.164c24.881,4.451,46.875,15.37,66.403,31.052c27.121,21.779,44.879,49.182,49.721,84     c0.863,6.206,1.52,12.439,2.272,18.66C395.012,151.197,395.012,156.684,395.012,162.17z"/>
			<path d="M193.42,391.127c-9.392,13.306-28.432,19.283-44.099,13.674c-5.979-2.141-9.974-6.26-12.101-12.146     c-1.142-3.159-0.342-5.499,3.352-5.954c11.421-1.408,17.649-9.449,23.329-18.045c3.585-5.426,2.315-11.602,0.877-17.175     c-1.622-6.283-4.414-12.33-7.227-18.231c-2.181-4.576-6.141-7.613-10.914-9.635c-4.772-2.022-5.595-5.794-1.288-8.553     c4.283-2.743,9.323-5.04,14.307-5.841c10.638-1.71,21.349-1.534,30.206,6.035c2.253,1.926,3.872,4.586,5.757,6.929     c0.982,1.22,1.907,2.485,3.058,3.991c1.053-1.426,1.913-2.34,2.486-3.406c8.833-16.43,35.501-17.21,48.189-9.917     c1.298,0.746,2.554,1.684,3.57,2.772c2.929,3.139,2.518,6.518-1.499,7.689c-12.695,3.699-20.698,25.723-19.413,35.177     c1.459,10.735,7.057,19.892,18.204,24.167c1.929,0.74,3.952,1.238,5.875,1.99c3.461,1.352,4.464,3.954,2.782,7.249     c-0.554,1.085-1.318,2.101-2.145,3.006c-12.657,13.851-35.932,17.057-51.611,6.727     C200.824,398.804,197.369,394.73,193.42,391.127z"/>
		</g>
		<path d="M195.782,512c-26.569,0.029-47.913-21.526-47.769-48.24c0.139-25.781,21.673-47.35,47.139-47.215    c27.097,0.144,48.667,21.602,48.801,48.549C244.082,490.98,222.525,511.971,195.782,512z"/>
	</g>
	<g>
		<path style="fill:#FFFFFF;" d="M183.123,339.538c3.064-7,7.424-7.746,13.068-2.141c1.241,1.233,2.176,2.768,3.181,4.072    c2.57-2.214,5.064-4.823,8.001-6.775c3.789-2.519,7.129-1.001,7.143,3.46c0.013,3.99-0.499,8.303-2.087,11.907    c-3.083,6.998-7.037,13.623-10.749,20.338c-0.623,1.128-1.844,1.93-2.789,2.883c-0.553,0-1.107,0-1.66,0    c-1.123-1.693-2.48-3.278-3.33-5.097c-3.674-7.865-7.199-15.799-10.779-23.708C183.123,342.83,183.123,341.184,183.123,339.538z"/>
		<g>
			<g>
				<path style="fill:#FFFFFF;" d="M357.626,121.043c-3.118-3.522-2.66-10.378,0.288-13.623c2.512-2.765,6.418-2.986,10.174-0.575      c4.59,2.947,7.296,9.862,5.777,16.108c-1.761,7.241-5.901,12.593-13.6,14.479c-6.993,1.713-12.347-1.069-16.937-6.063      c-6.805-7.404-8.212-16.814-10.097-26.09c-2.451-12.059-4.535-24.227-7.753-36.088c-2.662-9.813-7.836-18.516-17.282-23.699      c-3.27-1.794-6.888-2.966-10.347-4.423c0.035-0.358,0.07-0.715,0.106-1.073c2.183,0.121,4.459-0.111,6.534,0.423      c11.166,2.877,19.3,9.553,24.784,19.626c6.36,11.684,8.676,24.456,10.805,37.328c1.139,6.888,2.257,13.814,4.052,20.548      c0.996,3.737,2.985,7.371,5.204,10.592c3.298,4.788,7.39,6.031,12.176,4.587c4.902-1.479,8.706-6.023,9.154-11.057      c0.408-4.581-0.408-8.818-4.376-11.742c-3.293-2.426-6.135-1.396-7.168,2.56C358.482,115.306,358.196,117.84,357.626,121.043z"/>
				<path style="fill:#FFFFFF;" d="M357.635,186.884c0.567,3.195,0.849,5.734,1.49,8.18c1.033,3.939,3.903,4.963,7.185,2.519      c4.259-3.171,5.125-7.81,4.201-12.556c-0.96-4.931-3.799-8.7-9.022-10.257c-4.717-1.406-8.357,0.201-11.467,3.627      c-4.54,5-6.267,11.183-7.45,17.571c-1.996,10.776-3.45,21.679-6.059,32.305c-1.712,6.976-4.565,13.797-7.781,20.261      c-4.964,9.978-13.423,16.159-24.268,18.961c-2.024,0.523-4.236,0.334-6.361,0.473c-0.103-0.347-0.207-0.693-0.31-1.04      c0.817-0.449,1.584-1.104,2.459-1.316c8.986-2.168,15.539-7.536,20.064-15.321c6.674-11.482,9.287-24.214,11.311-37.136      c1.185-7.569,2.576-15.124,4.31-22.586c1.587-6.831,5.083-12.724,10.737-17.142c6.813-5.324,16.633-4.373,22.451,2.109      c6.169,6.873,6.695,17.745,1.147,23.679c-3.542,3.788-8.642,4.577-11.791,1.825      C355.052,198.043,354.276,190.586,357.635,186.884z"/>
			</g>
			<path style="fill:#FFFFFF;" d="M372.087,146.941c4.713-0.05,8.585,3.516,8.697,8.012c0.116,4.67-3.733,8.572-8.534,8.651     c-4.697,0.077-8.283-3.475-8.322-8.244C363.889,150.564,367.352,146.991,372.087,146.941z"/>
		</g>
	</g>
</g>















</svg>
