<?xml version="1.0" encoding="UTF-8"?>
<!-- Generator: Adobe Illustrator 27.2.0, SVG Export Plug-In . SVG Version: 6.00 Build 0)  -->
<svg xmlns="http://www.w3.org/2000/svg" xmlns:xlink="http://www.w3.org/1999/xlink" version="1.1" id="Capa_1" x="0px" y="0px" viewBox="0 0 512 512" style="enable-background:new 0 0 512 512;" xml:space="preserve" width="512" height="512">
<g>
	<g>
		<path style="fill:#FFFFFF;" d="M297.809,493.847c-22.973,0-45.569-3.09-67.16-9.184c-23.156-6.56-45.263-16.592-65.758-29.836    l-5.581-1.329c-15.621-3.727-33.326-7.953-51.823-11.23c-8.733-1.545-18.213-3.038-28.859-4.546    c-1.218,0.327-2.479,0.497-3.753,0.497c-2.611,0-5.134-0.689-7.343-1.981c-15.125-1.959-31.317-3.74-47.284-5.202    c-1.629,0.617-3.374,0.939-5.156,0.939c-2.926,0-5.723-0.857-8.103-2.454c-3.77-2.321-6.306-6.246-6.817-10.764    c-1.394-12.492,5.22-38.386,40.206-47.134c4.559-1.14,9.43-2.077,14.582-2.811l-0.795-1.582c-3.099-2.628-4.849-6.32-5.114-10.134    l-20.372-40.463c-2.695-2.243-4.472-5.344-5.045-8.835c-0.632-3.849,0.275-7.715,2.553-10.882    c1.005-1.377,9.85-12.826,26.837-12.826c1.4,0,2.812,0.079,4.231,0.24c-3.488-29.483-1.507-59.698,5.823-88.501    c-0.903-1.815-1.399-3.844-1.403-5.948c-0.008-4.76,2.512-9.147,6.583-11.551c5.624-16.655,12.989-32.416,21.932-46.927    c40.455-65.624,122.84-113.25,195.896-113.25c42.094,0,79.326,15.447,107.67,44.67c28.675,29.591,42.85,66.649,56.557,102.487    l1.748,4.566c1.85,4.834,4.215,9.755,7.311,15.188c5.658,1.207,11.087,3.167,16.209,5.854c4.412,2.315,7.175,6.887,7.17,11.869    c-0.003,4.071-1.854,7.865-4.941,10.376c7.083,10.328,14.118,21.088,19.498,33.125c13.648,30.514,17.978,65.336,12.187,98.049    c-0.112,0.649-0.231,1.299-0.367,1.938c-0.07,0.442-0.156,0.885-0.259,1.325c-0.048,0.272-0.252,1.343-0.273,1.447    c-8.532,41.188-32.462,76.471-69.201,102.03c-6.644,4.655-13.865,9.055-21.43,13.055c-36.657,19.436-78.215,29.716-120.153,29.716    C297.808,493.847,297.812,493.847,297.809,493.847z"/>
	</g>
	<g>
		<g>
			<path style="fill:#A27CFF;" d="M496.412,340.022c-0.112,0.647-0.223,1.294-0.379,1.919c-0.022,0.312-0.089,0.625-0.178,0.915     c-0.067,0.491-104.174,9.489-104.263,9.98c-8.235,39.747,72.528,62.818,40.258,85.269c-6.338,4.441-13.033,8.503-20.041,12.207     c-53.873,28.566-118.749,36.042-177.42,19.483c-22.696-6.427-44.344-16.448-64.027-29.436     c-23.745-15.644-44.634-35.596-61.037-58.716c-0.625-0.826-1.227-1.674-1.785-2.522c-4.508-6.517-8.659-13.256-12.431-20.242     c-8.681-16.113-15.198-33.23-19.527-50.86c-0.335-1.317-0.625-2.634-0.915-3.928c-0.848-3.705-1.607-7.409-2.232-11.136     c-9.306-53.382,0.625-110.045,29.258-156.509c54.096-87.75,199.001-152.425,282.555-66.281     c27.919,28.811,41.331,65.79,55.413,102.524c10.779,28.164,33.275,49.678,45.527,77.083     C497.684,277.713,501.745,309.894,496.412,340.022z"/>
		</g>
		<g>
			<g>
				<g>
					<polygon style="fill:#2F2444;" points="231.44,286.375 208.035,318.938 324.551,318.938 301.146,287.392      "/>
				</g>
				<g>
					<circle style="fill:#EBB1FF;" cx="272.314" cy="178" r="120.417"/>
				</g>
				<g>
					<g>
						<path style="fill:#FBEEE5;" d="M184.121,191.229c0,0,24.762-49.863,80.052-50.202c55.29-0.339,88.193,46.81,88.193,46.81        s-34.938,43.757-83.444,43.757C220.416,231.594,184.121,191.229,184.121,191.229z"/>
					</g>
					<g>
						<g>
							
								<ellipse transform="matrix(0.7071 -0.7071 0.7071 0.7071 -53.4591 246.6114)" style="fill:#A27CFF;" cx="270.957" cy="187.837" rx="40.026" ry="40.026"/>
						</g>
						<g>
							
								<ellipse transform="matrix(0.7071 -0.7071 0.7071 0.7071 -53.4591 246.6114)" style="fill:#2F2444;" cx="270.957" cy="187.837" rx="18.317" ry="18.317"/>
						</g>
					</g>
					<g>
						<path style="fill:#2F2444;" d="M332.329,153.156c-0.226,0-0.454-0.072-0.647-0.218        c-69.862-53.376-123.069-2.508-123.599-1.988c-0.422,0.412-1.097,0.403-1.51-0.013c-0.414-0.423-0.408-1.098,0.013-1.512        c0.543-0.53,55.074-52.676,126.393,1.813c0.47,0.36,0.559,1.029,0.201,1.499C332.969,153.012,332.651,153.156,332.329,153.156        z"/>
					</g>
					<g>
						<path style="fill:#2F2444;" d="M265.05,246.89c-18.315,0-39.855-5.69-63.557-22.476c-0.482-0.34-0.595-1.007-0.254-1.489        c0.34-0.482,1.009-0.597,1.49-0.255c71.698,50.782,123.079-1.948,123.589-2.487c0.405-0.429,1.083-0.449,1.51-0.041        c0.428,0.405,0.447,1.081,0.041,1.51C327.517,222.025,303.33,246.89,265.05,246.89z"/>
					</g>
					<g>
						<g>
							<path style="fill:#2F2444;" d="M247.892,123.438c-0.353,0-0.697-0.174-0.901-0.493l-17.978-28.153         c-0.318-0.497-0.172-1.157,0.325-1.476c0.499-0.318,1.158-0.17,1.475,0.325l17.978,28.153         c0.318,0.497,0.172,1.157-0.325,1.475C248.287,123.384,248.088,123.438,247.892,123.438z"/>
						</g>
						<g>
							<path style="fill:#2F2444;" d="M269.6,120.047c-0.591,0-1.069-0.477-1.069-1.068V78.614c0-0.591,0.478-1.068,1.069-1.068         s1.069,0.477,1.069,1.068v40.365C270.669,119.57,270.19,120.047,269.6,120.047z"/>
						</g>
						<g>
							<path style="fill:#2F2444;" d="M289.612,122.082c-0.156,0-0.315-0.033-0.465-0.107c-0.531-0.257-0.753-0.896-0.495-1.428         l16.621-34.26c0.255-0.532,0.894-0.761,1.427-0.495c0.531,0.257,0.753,0.896,0.495,1.428l-16.621,34.26         C290.39,121.862,290.008,122.082,289.612,122.082z"/>
						</g>
					</g>
				</g>
				<g>
					<g>
						<path style="fill:#FBEEE5;" d="M338.201,112.971c-0.865,4.532-0.385,9.661,0.74,13.06        c2.083,6.295,13.503,25.934,21.394,14.706c3.973-5.653,4.196-16.219,1.917-22.562c-2.09-5.819-6.721-14.461-13.739-14.909        C342.272,102.867,339.249,107.481,338.201,112.971z"/>
					</g>
					<g>
						<path style="fill:#FBEEE5;" d="M376.272,160.195c0.663,4.987-2.842,9.567-7.828,10.23s-9.567-2.842-10.23-7.828        s2.841-9.567,7.828-10.23C371.028,151.704,375.608,155.209,376.272,160.195z"/>
					</g>
				</g>
			</g>
			<g>
				<g>
					<g>
						<g>
							<path style="fill:#FF9393;" d="M495.854,342.857c-0.067,0.491-0.178,1.004-0.268,1.495         c-8.235,39.747-31.467,71.303-63.738,93.754c-23.835-8.838-62.577-21.313-94.579-22.406         c-50.146-1.696-119.664,27.361-130.488,30.195c-5.49,1.451-18.768-1.361-36.421-5.535         c-17.095-4.039-38.274-9.329-60.435-13.256c-11.225-1.986-22.786-3.727-33.788-5.245c-1.049-0.134-2.098-0.268-3.147-0.402         c-26.178-3.482-48.785-5.512-55.904-6.137c-0.446-0.022-0.848-0.045-1.161-0.089c-0.759-0.067-1.16-0.089-1.16-0.089         c-0.022-0.312-0.045-0.625-0.022-0.937c-1.161-36.086,61.55-34.971,61.55-34.971l-0.402-0.781l-11.694-23.254l-1.16-2.276         l-24.37-48.405l-0.067-0.156h-0.022l-0.446-0.915c0.402-0.491,0.826-0.96,1.25-1.406c9.753-9.998,24.393-3.705,24.393-3.705         c0.179-0.134,0.357-0.29,0.536-0.424c2.745-2.143,5.445-3.772,8.123-4.954c34.257-14.908,61.974,45.951,68.826,54.364         c7.409,9.128,35.328,23.366,35.328,23.366l1.004-0.937l9.775-9.306l0.625-0.58c0,0-0.268-0.112-0.759-0.29         c-2.209-0.893-9.016-3.705-17.251-7.699c-0.045-0.022-0.089-0.022-0.134-0.067c-3.571-1.719-7.387-3.66-11.225-5.758         c-0.067-0.045-0.134-0.067-0.201-0.112c-4.954-2.723-9.909-5.713-14.305-8.86c-17.675-12.542-11.404-34.77-11.404-34.77         l0.558,0.067l2.544,0.29l45.326,5.356l-0.111-0.625l-0.647-4.062l-0.402-2.455l-6.516-40.081l-0.29-1.785         c0.424-0.156,0.87-0.29,1.295-0.402c2.745-0.848,5.267-1.227,7.61-1.227c3.281,3.526,14.484,15.265,23.812,21.469         c0.937,2.366,1.741,4.664,2.41,6.784c0.223,0.692,0.424,1.384,0.625,2.031c0.781,2.611,1.361,4.754,1.852,6.093         c2.009,5.602,5.959,13.435,8.146,17.63c0.603,1.16,1.071,2.031,1.317,2.499c0.156,0.268,0.223,0.402,0.223,0.402         c9.775,1.741,27.405-0.469,46.888-3.705c0.156-0.045,0.335-0.067,0.513-0.067c24.638-4.106,52.177-9.775,70.544-11.047         c6.896-0.469,13.413,0.067,19.84,1.361c14.193,2.834,27.986,9.328,44.567,16.648c12.007,5.311,25.464,11.069,41.577,16.18         C467.601,341.026,484.517,342.901,495.854,342.857z"/>
						</g>
					</g>
					<g style="opacity:0.32;">
						<g>
							<path style="fill:#2F2444;" d="M495.854,342.857c-0.067,0.491-0.178,1.004-0.268,1.495         c-8.235,39.747-31.467,71.303-63.738,93.754c-23.835-8.838-62.577-21.313-94.579-22.406         c-50.146-1.696-119.664,27.361-130.488,30.195c-5.49,1.451-18.768-1.361-36.421-5.535         c-17.095-4.039-38.274-9.329-60.435-13.256c-11.225-1.986-22.786-3.727-33.788-5.245c-1.049-0.134-2.098-0.268-3.147-0.402         c-26.178-3.482-48.785-5.512-55.904-6.137c-0.446-0.022-0.848-0.045-1.161-0.089c-0.759-0.067-1.16-0.089-1.16-0.089         c-0.022-0.312-0.045-0.625-0.022-0.937c-1.161-36.086,61.55-34.971,61.55-34.971l-0.402-0.781l-11.694-23.254l-1.16-2.276         l-24.37-48.405l-0.067-0.156h-0.022l-0.446-0.915c0.402-0.491,0.826-0.96,1.25-1.406c9.753-9.998,24.393-3.705,24.393-3.705         c0.179-0.134,0.357-0.29,0.536-0.424c2.745-2.143,5.445-3.772,8.123-4.954c34.257-14.908,61.974,45.951,68.826,54.364         c7.409,9.128,35.328,23.366,35.328,23.366l1.004-0.937l9.775-9.306l0.625-0.58c0,0-0.268-0.112-0.759-0.29         c-2.209-0.893-9.016-3.705-17.251-7.699c-0.045-0.022-0.089-0.022-0.134-0.067c-3.571-1.719-7.387-3.66-11.225-5.758         c-0.067-0.045-0.134-0.067-0.201-0.112c-4.954-2.723-9.909-5.713-14.305-8.86c-17.675-12.542-11.404-34.77-11.404-34.77         l0.558,0.067l2.544,0.29l45.326,5.356l-0.111-0.625l-0.647-4.062l-0.402-2.455l-6.516-40.081l-0.29-1.785         c0.424-0.156,0.87-0.29,1.295-0.402c2.745-0.848,5.267-1.227,7.61-1.227c3.281,3.526,14.484,15.265,23.812,21.469         c0.937,2.366,1.741,4.664,2.41,6.784c0.223,0.692,0.424,1.384,0.625,2.031c0.781,2.611,1.361,4.754,1.852,6.093         c2.009,5.602,5.959,13.435,8.146,17.63c0.603,1.16,1.071,2.031,1.317,2.499c0.156,0.268,0.223,0.402,0.223,0.402         c9.775,1.741,27.405-0.469,46.888-3.705c0.156-0.045,0.335-0.067,0.513-0.067c24.638-4.106,52.177-9.775,70.544-11.047         c6.896-0.469,13.413,0.067,19.84,1.361c14.193,2.834,27.986,9.328,44.567,16.648c12.007,5.311,25.464,11.069,41.577,16.18         C467.601,341.026,484.517,342.901,495.854,342.857z"/>
						</g>
					</g>
				</g>
				<g>
					<g>
						<path style="fill:#2F2444;" d="M14.763,416.332c-0.6,0-1.117-0.451-1.187-1.061c-0.027-0.244-2.401-24.499,30.149-32.636        c32.292-8.072,73.223-3.038,97.682-0.026c24.142,2.973,32.712,3.544,52.218-4.104c19.215-7.536,24.964-9.097,25.199-9.16        c0.634-0.164,1.292,0.209,1.464,0.848c0.171,0.639-0.208,1.295-0.846,1.465c-0.058,0.015-5.918,1.615-24.943,9.075        c-19.984,7.837-29.323,7.212-53.384,4.252c-24.292-2.99-64.947-7.994-96.81-0.026c-30.449,7.611-28.451,29.132-28.351,30.045        c0.072,0.656-0.4,1.247-1.056,1.321C14.853,416.327,14.808,416.332,14.763,416.332z"/>
					</g>
				</g>
				<g>
					<g>
						<path style="fill:#2F2444;" d="M150.197,385.613c-12.797-6.776-26.021-13.778-36.796-25.706        c-3.597-3.984-7.639-10.435-12.32-17.904c-9.145-14.593-20.526-32.754-33.709-39.968c-18.989-10.391-28.183,1.99-28.273,2.116        c-0.387,0.538-1.132,0.66-1.671,0.275c-0.536-0.386-0.659-1.133-0.273-1.669c0.105-0.144,10.545-14.21,31.366-2.822        c13.731,7.515,25.295,25.97,34.588,40.798c4.621,7.375,8.612,13.743,12.068,17.57c10.492,11.616,23.526,18.516,36.13,25.189        L150.197,385.613z"/>
					</g>
				</g>
				<g>
					<g>
						<path style="fill:#2F2444;" d="M168.018,386.622c-0.233,0-0.469-0.068-0.674-0.209c-0.546-0.373-0.685-1.118-0.312-1.663        c2.466-3.6,4.957-7.186,7.473-10.753c4.244-6.015,8.2-11.307,13.638-15.123c0.542-0.386,1.287-0.253,1.667,0.292        c0.379,0.54,0.248,1.286-0.292,1.665c-5.124,3.596-8.944,8.715-13.058,14.545c-2.51,3.557-4.994,7.133-7.454,10.725        C168.775,386.441,168.4,386.622,168.018,386.622z"/>
					</g>
				</g>
				<g>
					<g>
						<path style="fill:#2F2444;" d="M496.032,341.941c-0.022,0.312-0.089,0.625-0.178,0.915c-0.067,0.491-0.178,1.004-0.268,1.495        c-17.407,0.357-37.738-4.932-57.622-11.069c-12.185-3.772-25.888-9.395-39.122-14.841        c-20.799-8.57-40.438-16.649-54.074-17.787c-10.467-0.87-30.708,2.433-52.11,5.936c-8.079,1.317-16.492,2.7-24.794,3.928        c-0.178,0-0.357,0.022-0.513,0.067c-16.715,2.433-32.873,4.196-44.679,3.459c-0.803-0.044-1.607-0.112-2.432-0.156        c-8.19-0.558-17.988-1.562-27.986-2.723c-1.183-0.134-2.366-0.268-3.548-0.402c-22.496-2.7-45.259-6.07-52.601-7.186        c-0.625-0.089-1.138-0.156-1.54-0.223c-0.156,0.379-0.357,0.915-0.558,1.54c-1.696,5.289-3.905,18.657,10.891,31.266        c4.508,3.861,9.038,7.074,13.524,9.775c0.067,0.045,0.134,0.067,0.201,0.112c3.772,2.254,7.521,4.151,11.225,5.758        c0.045,0.044,0.089,0.044,0.134,0.067c10.601,4.664,20.911,7.119,30.507,9.418l0.312,0.067        c4.731,1.138,11.382,2.388,19.081,3.839c20.777,3.95,46.643,8.837,56.507,15.309c0.558,0.379,0.714,1.116,0.335,1.674        c-0.223,0.335-0.603,0.536-0.982,0.536c-0.246,0-0.469-0.067-0.67-0.201c-9.462-6.226-36.153-11.27-55.636-14.952        c-7.722-1.473-14.394-2.723-19.193-3.883l-0.312-0.067c-3.459-0.826-7.008-1.674-10.623-2.633        c-0.647-0.156-1.294-0.335-1.942-0.536c-0.312-0.067-0.625-0.156-0.96-0.268c-13.703-3.839-28.365-9.641-43.072-22.183        c-20.041-17.139-10.645-36.31-10.556-36.511c0.089-0.156,0.201-0.29,0.357-0.402c0.245-0.201,0.558-0.29,0.893-0.223        c0.044,0,0.536,0.089,1.406,0.223c5.289,0.803,24.749,3.705,45.594,6.316c13.167,1.652,26.87,3.191,37.894,3.995        c1.339,0.112,2.633,0.201,3.883,0.268c17.519,1.071,45.125-3.437,69.45-7.431c21.581-3.526,41.934-6.851,52.713-5.959        c3.995,0.335,8.458,1.228,13.279,2.566c12.118,3.303,26.513,9.217,41.51,15.376c1.027,0.424,2.031,0.848,3.057,1.272        c12.23,5.021,24.727,10.065,35.863,13.502C458.584,337.143,478.893,342.432,496.032,341.941z"/>
					</g>
				</g>
				<g>
					<g>
						<path style="fill:#2F2444;" d="M162.545,321.134c-0.732,0-1.462-0.017-2.193-0.052c-6.661-0.314-12.393-1.972-17.034-4.93        c-5.507-3.509-9.227-8.818-10.204-14.565c-0.111-0.652,0.327-1.268,0.979-1.38c0.657-0.124,1.27,0.327,1.381,0.979        c0.851,5.006,4.264,9.847,9.131,12.948c4.285,2.731,9.621,4.263,15.862,4.559c10.75,0.501,21.841-2.947,30.409-9.472        c0.523-0.397,1.276-0.299,1.677,0.227c0.4,0.527,0.299,1.277-0.228,1.678C183.897,317.544,173.155,321.134,162.545,321.134z"/>
					</g>
				</g>
				<g>
					<g>
						<path style="fill:#2F2444;" d="M74.976,422.848c-0.293,0-0.586-0.107-0.816-0.323c-6.012-5.61-15.809-12.695-28.351-14.574        c-11.186-1.672-22.337,1.436-29.818,8.338c-0.485,0.449-1.242,0.421-1.69-0.07c-0.448-0.486-0.417-1.242,0.069-1.691        c8.008-7.388,19.89-10.727,31.795-8.944c10.407,1.561,20.652,6.813,29.628,15.193c0.484,0.451,0.509,1.207,0.059,1.691        C75.614,422.719,75.295,422.848,74.976,422.848z"/>
					</g>
				</g>
				<g>
					<g>
						<path style="fill:#2F2444;" d="M63.693,355.317c-0.249,0-0.498-0.076-0.713-0.235c-0.531-0.395-0.641-1.144-0.246-1.676        c4.52-6.078,3.95-14.345,2.676-20.207c-1.614-7.427-4.733-13.955-9.019-18.878c-4.795-5.505-11.289-9.138-17.819-9.964        c-0.656-0.083-1.12-0.682-1.036-1.338c0.083-0.654,0.682-1.122,1.337-1.037c7.104,0.9,14.146,4.825,19.323,10.766        c4.552,5.228,7.855,12.124,9.553,19.941c1.38,6.349,1.963,15.345-3.095,22.147C64.42,355.15,64.059,355.317,63.693,355.317z"/>
					</g>
				</g>
				<g>
					<g>
						<path style="fill:#2F2444;" d="M180.363,303.341c-0.344,0-0.686-0.148-0.923-0.434c-0.421-0.508-0.35-1.262,0.159-1.685        c5.79-4.795,8.627-13.412,7.06-21.445c-1.449-7.436-6.352-14.423-13.449-19.168c-0.549-0.366-0.697-1.109-0.33-1.659        c0.369-0.547,1.115-0.695,1.66-0.329c7.625,5.095,12.898,12.638,14.469,20.698c1.757,9.005-1.338,18.327-7.884,23.747        C180.902,303.252,180.631,303.341,180.363,303.341z"/>
					</g>
				</g>
			</g>
		</g>
		<g>
			<path style="fill:#2F2444;" d="M469.463,291.014c-7.039,3.69-15.051,5.774-23.558,5.774c-28.103,0-50.892-22.772-50.892-50.875     c0-28.119,22.789-50.892,50.892-50.892c8.508,0,16.52,2.084,23.558,5.774c-16.247,8.49-27.334,25.506-27.334,45.118     C442.129,265.525,453.216,282.523,469.463,291.014z"/>
		</g>
		<g>
			<path style="fill:#2F2444;" d="M75.167,278.098c7.039,3.69,15.051,5.774,23.558,5.774c28.103,0,50.892-22.773,50.892-50.875     c0-28.12-22.789-50.892-50.892-50.892c-8.508,0-16.52,2.084-23.558,5.774c16.247,8.49,27.334,25.506,27.334,45.118     S91.414,269.608,75.167,278.098z"/>
		</g>
		<g>
			<g>
				<g>
					<path style="fill:#FFFFFF;" d="M370.03,83.202c-4.667-2.513-8.128-6.895-10.348-11.707c-2.221-4.812-3.11-9.247-3.922-14.485       c-1.111,5.526-2.796,10.981-5.552,15.898c-2.755,4.916-6.631,9.288-11.511,12.107c4.499,0.74,8.159,3.254,10.934,6.872       c1.352,1.763,2.283,3.811,3.058,5.894c1.196,3.216,2.048,6.56,2.535,9.957c1.02-4.794,2.248-10.025,4.881-14.158       C362.739,89.445,365.423,84.874,370.03,83.202z"/>
				</g>
			</g>
			<g>
				<g>
					<path style="fill:#FFFFFF;" d="M423.021,324.226c-4.667-2.513-8.128-6.895-10.348-11.707c-2.22-4.812-3.11-9.247-3.922-14.485       c-1.111,5.525-2.796,10.981-5.552,15.897c-2.755,4.917-6.631,9.288-11.511,12.107c4.499,0.74,8.159,3.254,10.935,6.872       c1.352,1.763,2.283,3.811,3.058,5.893c1.196,3.216,2.048,6.56,2.535,9.957c1.02-4.794,2.248-10.025,4.881-14.158       C415.73,330.468,418.414,325.898,423.021,324.226z"/>
				</g>
			</g>
			<g>
				<g>
					<path style="fill:#FFFFFF;" d="M162.055,140.751c-4.666-2.513-8.128-6.895-10.348-11.707c-2.221-4.813-3.11-9.248-3.922-14.485       c-1.111,5.526-2.796,10.981-5.552,15.898c-2.756,4.916-6.631,9.288-11.511,12.107c4.499,0.74,8.159,3.254,10.935,6.872       c1.352,1.763,2.283,3.811,3.058,5.894c1.197,3.216,2.048,6.56,2.535,9.957c1.02-4.794,2.248-10.025,4.881-14.158       C154.764,146.994,157.448,142.423,162.055,140.751z"/>
				</g>
			</g>
			<g>
				<g>
					<path style="fill:#FFFFFF;" d="M301.655,447.871c-4.666-2.513-8.128-6.895-10.348-11.707c-2.221-4.812-3.11-9.247-3.922-14.485       c-1.111,5.525-2.796,10.981-5.552,15.897c-2.755,4.916-6.63,9.288-11.511,12.107c4.499,0.74,8.159,3.254,10.934,6.872       c1.352,1.763,2.283,3.811,3.058,5.893c1.196,3.216,2.048,6.56,2.535,9.957c1.02-4.794,2.248-10.025,4.881-14.158       C294.364,454.114,297.048,449.543,301.655,447.871z"/>
				</g>
			</g>
		</g>
	</g>
</g>















</svg>
