<?xml version="1.0" encoding="UTF-8"?>
<!-- Generator: Adobe Illustrator 25.3.1, SVG Export Plug-In . SVG Version: 6.00 Build 0)  -->
<svg xmlns="http://www.w3.org/2000/svg" xmlns:xlink="http://www.w3.org/1999/xlink" version="1.1" id="Capa_1" x="0px" y="0px" viewBox="0 0 511.823 511.823" style="enable-background:new 0 0 511.823 511.823;" xml:space="preserve" width="512" height="512">
<g>
	<path style="fill:#FFFFFF;" d="M255.856,511.82C8.005,508.877-93.501,197.298,104.858,49.077   c124.623-92.993,310.11-48.912,379.245,90.695c42.017,81.213,35.805,183.612-15.924,259.132   C420.782,469.287,340.854,512.293,255.856,511.82z"/>
	<g>
		<path style="fill:#1C0231;" d="M493.983,291.176c-0.159,1.047-0.319,2.095-0.501,3.142c-1.435,8.744-3.37,17.351-5.715,25.731    c-0.456,1.617-0.934,3.233-1.435,4.827c-1.753,5.784-3.712,11.477-5.898,17.033c-1.526,4.008-3.165,7.947-4.941,11.818    c-1.184,2.618-2.414,5.26-3.689,7.833c-0.478,1.002-0.979,2.004-1.503,2.983c-0.159,0.319-0.319,0.66-0.524,0.979    c-3.279,6.444-312.916,110.028-320.066,106.567c-10.816-5.237-21.154-11.271-30.991-18.012    c-11.659-7.97-22.611-16.964-32.676-26.824c-2.619-2.573-5.192-5.214-7.697-7.901c-1.936-2.049-3.803-4.122-5.647-6.239    c-5.807-6.695-11.272-13.685-16.327-20.995c-1.275-1.822-2.528-3.689-3.757-5.556c-14.118-21.632-24.888-45.655-31.515-71.363    c-0.911-3.529-1.753-7.105-2.482-10.68c-2.004-9.427-3.415-19.059-4.281-28.851c-0.592-6.968-0.911-13.981-0.911-21.109    c0-11.226,0.774-22.27,2.277-33.109c2.118-15.689,5.807-30.945,10.816-45.564c1.776-5.169,3.734-10.27,5.852-15.279    c5.214-12.365,11.431-24.183,18.536-35.386c2.732-4.304,5.601-8.471,8.584-12.592c1.981-2.733,4.008-5.397,6.103-8.038    c0.228-0.296,0.455-0.592,0.706-0.888c2.596-3.256,5.305-6.467,8.106-9.586c3.211-3.643,6.535-7.173,9.973-10.634    c5.761-5.715,11.818-11.203,18.126-16.327c2.437-2.004,4.896-3.939,7.423-5.807c0.159-0.137,0.342-0.273,0.524-0.41    c0.683-0.546,1.366-1.047,2.095-1.571c5.26-3.848,10.657-7.469,16.236-10.862c2.915-1.799,5.875-3.529,8.858-5.192    c10.657-5.943,21.814-11.112,33.405-15.393c0.159-0.068,0.342-0.114,0.501-0.182c5.989-2.232,12.137-4.213,18.399-5.943    c5.715-1.639,11.545-3.006,17.442-4.19c2.573-0.524,5.192-1.002,7.81-1.434c6.148-1.025,12.41-1.822,18.718-2.368    c6.968-0.615,14.027-0.911,21.154-0.911c4.121,0,8.243,0.114,12.319,0.319c43.515,2.163,84.001,15.849,118.431,38.073    c3.689,2.368,7.286,4.828,10.839,7.4c5.511,3.985,10.862,8.198,16.008,12.661c6.763,5.829,13.23,12.023,19.31,18.581    c8.448,9.085,16.236,18.832,23.203,29.147c1.343,1.936,2.619,3.917,3.894,5.898c2.755,4.304,5.351,8.698,7.787,13.161    c0.66,1.139,1.275,2.277,1.89,3.438c0.615,1.139,1.207,2.3,1.799,3.439c1.07,2.118,2.118,4.235,3.12,6.376    c1.844,3.871,3.575,7.788,5.192,11.773c0.342,0.797,0.66,1.594,0.979,2.414c0.592,1.503,1.161,2.983,1.731,4.486    c0.137,0.387,0.296,0.797,0.433,1.207c0.524,1.412,1.025,2.846,1.526,4.281c0.182,0.478,0.342,0.956,0.501,1.435    c0.569,1.708,1.139,3.438,1.685,5.192c1.958,6.262,3.666,12.615,5.101,19.059c1.275,5.624,2.345,11.294,3.211,17.055    c0.137,1.002,0.273,1.981,0.433,2.983c0.205,1.503,0.387,3.006,0.569,4.509C495.532,230.013,494.894,285.21,493.983,291.176z"/>
		<g>
			<g style="opacity:0.53;">
				<path style="fill:#F3C7D1;" d="M327.096,93.333c-34.497,0-62.563-28.066-62.563-62.564c0-5.998,0.854-11.935,2.538-17.649      l0.075-0.25l0.26,0.013c42.194,2.098,83.205,15.28,118.597,38.126l0.219,0.141l-0.087,0.246      C377.413,76.479,353.687,93.333,327.096,93.333z M267.634,13.557c-1.619,5.577-2.441,11.366-2.441,17.212      c0,34.133,27.77,61.902,61.903,61.902c26.222,0,49.63-16.564,58.328-41.248C350.254,28.774,309.532,15.685,267.634,13.557z"/>
				<path style="fill:#F3C7D1;" d="M327.096,125.804c-52.402,0-95.034-42.633-95.034-95.035c0-5.709,0.515-11.436,1.53-17.023      l0.046-0.248l0.25-0.023c6.862-0.604,13.987-0.912,21.184-0.912c3.973,0,8.123,0.107,12.335,0.319      c42.194,2.098,83.205,15.28,118.597,38.126c3.636,2.336,7.287,4.829,10.852,7.41c5.641,4.08,11.035,8.345,16.029,12.678      l0.191,0.165l-0.109,0.228c-7.599,16.01-19.506,29.564-34.433,39.196C363.205,120.576,345.418,125.804,327.096,125.804z       M234.198,14.112c-0.979,5.47-1.475,11.072-1.475,16.657c0,52.037,42.335,94.373,94.374,94.373      c36.164,0,69.563-21.074,85.165-53.709c-4.927-4.264-10.24-8.461-15.793-12.477c-3.556-2.575-7.196-5.062-10.825-7.391      c-35.294-22.782-76.193-35.929-118.269-38.02c-4.203-0.212-8.341-0.319-12.303-0.319      C247.982,13.225,240.961,13.524,234.198,14.112z"/>
				<path style="fill:#F3C7D1;" d="M326.677,186.88c-85.978,0-155.924-69.937-155.924-155.902c0-1.046,0-2.034,0.046-3.043      l0.009-0.219l0.205-0.077c5.921-2.206,12.121-4.208,18.427-5.951c5.398-1.548,11.112-2.921,17.466-4.196      c2.5-0.509,5.131-0.993,7.82-1.437c6.192-1.032,12.501-1.832,18.743-2.372c6.862-0.604,13.987-0.912,21.184-0.912      c3.973,0,8.123,0.107,12.335,0.319c42.194,2.098,83.205,15.28,118.597,38.126c3.636,2.336,7.287,4.829,10.853,7.41      c5.641,4.08,11.035,8.345,16.029,12.678c6.887,5.934,13.391,12.195,19.337,18.607c8.539,9.184,16.357,19.004,23.235,29.186      l0.125,0.188l-0.128,0.186C425.902,161.681,377.918,186.88,326.677,186.88z M171.45,28.184c-0.036,0.92-0.036,1.833-0.036,2.795      c0,85.6,69.652,155.239,155.263,155.239c50.948,0,98.663-25.017,127.685-66.936c-6.827-10.086-14.579-19.815-23.046-28.918      c-5.928-6.395-12.414-12.637-19.283-18.556c-4.981-4.321-10.358-8.575-15.984-12.642c-3.556-2.575-7.196-5.062-10.825-7.391      c-35.294-22.782-76.191-35.929-118.269-38.02c-4.203-0.212-8.341-0.319-12.303-0.319c-7.176,0-14.283,0.306-21.124,0.909      c-6.229,0.54-12.517,1.335-18.693,2.365c-2.682,0.443-5.307,0.925-7.797,1.432c-6.338,1.273-12.036,2.641-17.418,4.184      C183.402,24.044,177.292,26.014,171.45,28.184z"/>
				<path style="fill:#F3C7D1;" d="M327.096,151.512c-66.577,0-120.741-54.166-120.741-120.743c0-4.295,0.237-8.734,0.706-13.195      l0.025-0.242l0.239-0.048c2.5-0.509,5.131-0.993,7.82-1.437c6.192-1.032,12.501-1.832,18.743-2.372      c6.862-0.604,13.987-0.912,21.184-0.912c3.973,0,8.123,0.107,12.335,0.319c42.194,2.098,83.205,15.28,118.597,38.126      c3.636,2.336,7.287,4.829,10.852,7.41c5.641,4.08,11.035,8.345,16.029,12.678c6.887,5.934,13.391,12.195,19.337,18.607      l0.164,0.178l-0.118,0.211C410.847,127.977,370.547,151.512,327.096,151.512z M207.696,17.884      c-0.451,4.356-0.681,8.691-0.681,12.884c0,66.213,53.869,120.081,120.081,120.081c43.13,0,83.141-23.321,104.475-60.874      c-5.883-6.332-12.314-12.514-19.119-18.379c-4.981-4.321-10.358-8.575-15.984-12.642c-3.556-2.575-7.196-5.062-10.825-7.391      c-35.294-22.782-76.191-35.929-118.269-38.02c-4.203-0.212-8.341-0.319-12.303-0.319c-7.176,0-14.283,0.306-21.124,0.909      c-6.229,0.54-12.517,1.335-18.693,2.365C212.657,16.929,210.116,17.395,207.696,17.884z"/>
				<path style="fill:#F3C7D1;" d="M326.86,250.54c-53.315,0-104.723-19.335-144.759-54.445      c-39.667-34.789-65.497-82.57-72.732-134.543l-0.025-0.179l0.137-0.118c0.166-0.141,0.353-0.282,0.542-0.423      c0.706-0.565,1.425-1.09,2.099-1.574c5.309-3.886,10.78-7.546,16.255-10.876c2.837-1.75,5.821-3.498,8.87-5.197      c10.777-6.01,22.033-11.197,33.452-15.415c0.071-0.032,0.166-0.063,0.26-0.094c0.077-0.025,0.153-0.05,0.225-0.081      c5.935-2.213,12.134-4.215,18.44-5.958c5.398-1.548,11.112-2.921,17.466-4.196c2.5-0.509,5.131-0.993,7.82-1.437      c6.192-1.032,12.501-1.832,18.743-2.372c6.862-0.604,13.987-0.912,21.184-0.912c3.973,0,8.123,0.107,12.335,0.319      c42.194,2.098,83.205,15.28,118.597,38.126c3.636,2.336,7.287,4.829,10.853,7.41c5.641,4.08,11.035,8.345,16.029,12.678      c6.887,5.934,13.391,12.195,19.337,18.607c8.539,9.184,16.357,19.004,23.235,29.186c1.302,1.879,2.563,3.835,3.784,5.727      l0.114,0.176c2.718,4.248,5.343,8.683,7.8,13.184c1.366,2.396,2.634,4.824,3.693,6.883c1.248,2.468,2.24,4.496,3.126,6.387      c4.738,9.982,8.797,20.354,12.061,30.827l0.057,0.187l-0.134,0.141c-20.287,21.259-44.17,37.98-70.989,49.701      C386.973,244.389,357.41,250.54,326.86,250.54z M110.049,61.645c15.032,107.326,108.209,188.233,216.811,188.233      c60.359,0,116.552-24.02,158.248-67.636c-3.246-10.381-7.274-20.66-11.97-30.556c-0.883-1.886-1.874-3.909-3.117-6.369      c-1.054-2.05-2.32-4.47-3.681-6.862c-2.452-4.492-5.068-8.914-7.779-13.147l-0.112-0.175c-1.218-1.887-2.475-3.839-3.777-5.712      c-6.859-10.158-14.654-19.95-23.173-29.11c-5.928-6.395-12.414-12.637-19.283-18.556c-4.981-4.321-10.358-8.575-15.984-12.642      c-3.556-2.575-7.196-5.062-10.825-7.391c-35.294-22.782-76.191-35.929-118.269-38.02c-4.203-0.212-8.341-0.319-12.303-0.319      c-7.176,0-14.283,0.306-21.124,0.909c-6.229,0.54-12.517,1.335-18.693,2.365c-2.682,0.443-5.307,0.925-7.797,1.432      c-6.338,1.273-12.036,2.641-17.418,4.184c-6.29,1.738-12.471,3.735-18.374,5.935c-0.073,0.032-0.168,0.063-0.262,0.094      c-0.077,0.025-0.153,0.05-0.225,0.081c-11.401,4.213-22.625,9.384-33.373,15.378c-3.042,1.695-6.017,3.439-8.847,5.185      c-5.462,3.322-10.916,6.97-16.212,10.847c-0.669,0.48-1.382,1.001-2.083,1.562C110.295,61.455,110.168,61.551,110.049,61.645z"/>
				<path style="fill:#F3C7D1;" d="M326.803,221.261c-48.614,0-94.879-18.329-130.271-51.608      c-35.235-33.132-56.368-77.879-59.512-125.994l-0.014-0.209l0.182-0.101c10.777-6.01,22.033-11.197,33.452-15.415      c0.071-0.031,0.166-0.063,0.26-0.094c0.077-0.025,0.153-0.051,0.225-0.081c5.935-2.213,12.134-4.215,18.44-5.958      c5.398-1.548,11.112-2.921,17.466-4.196c2.5-0.509,5.131-0.993,7.82-1.437c6.192-1.032,12.501-1.832,18.743-2.372      c6.862-0.604,13.987-0.912,21.184-0.912c3.973,0,8.123,0.107,12.335,0.319c42.194,2.098,83.205,15.28,118.597,38.126      c3.636,2.336,7.287,4.829,10.852,7.41c5.641,4.08,11.035,8.345,16.029,12.678c6.887,5.934,13.462,12.129,19.337,18.607      c8.391,9.252,16.284,19.038,23.235,29.186c1.292,1.886,2.563,3.835,3.784,5.727l0.114,0.176c2.718,4.248,5.343,8.683,7.8,13.184      c1.366,2.396,2.634,4.825,3.693,6.883c1.248,2.468,2.24,4.496,3.126,6.387l0.089,0.189l-0.134,0.162      C437.375,195.986,383.857,221.261,326.803,221.261z M137.694,43.825c6.582,99.147,89.609,176.774,189.109,176.774      c56.785,0,110.055-25.124,146.187-68.941c-0.858-1.83-1.824-3.8-3.026-6.178c-1.054-2.05-2.32-4.47-3.681-6.862      c-2.452-4.492-5.068-8.914-7.779-13.147l-0.112-0.175c-1.218-1.887-2.475-3.839-3.777-5.712      c-6.859-10.158-14.654-19.95-23.173-29.11c-5.928-6.395-12.414-12.637-19.283-18.556c-4.981-4.321-10.358-8.575-15.984-12.642      c-3.556-2.575-7.196-5.062-10.825-7.391c-35.294-22.782-76.193-35.929-118.269-38.02c-4.203-0.212-8.341-0.319-12.303-0.319      c-7.176,0-14.283,0.306-21.124,0.909c-6.229,0.54-12.517,1.335-18.693,2.365c-2.682,0.443-5.307,0.925-7.797,1.432      c-6.338,1.273-12.036,2.641-17.418,4.184c-6.29,1.738-12.471,3.735-18.374,5.935c-0.073,0.032-0.168,0.063-0.262,0.094      c-0.077,0.025-0.153,0.05-0.225,0.081C159.547,32.737,148.387,37.874,137.694,43.825z"/>
			</g>
			<g>
				<g>
					<path style="fill:#95ABD3;" d="M317.396,90.271c0,5.617-4.554,10.171-10.171,10.171c-5.617,0-10.171-4.554-10.171-10.171       c0-5.617,4.554-10.171,10.171-10.171C312.843,80.1,317.396,84.654,317.396,90.271z"/>
					<path style="fill:#95ABD3;" d="M265.072,205.385c0,5.617-4.554,10.171-10.171,10.171c-5.617,0-10.171-4.554-10.171-10.171       s4.554-10.171,10.171-10.171C260.518,195.214,265.072,199.767,265.072,205.385z"/>
					<path style="fill:#95ABD3;" d="M420.588,119.34c0,5.617-4.554,10.171-10.171,10.171c-5.617,0-10.171-4.554-10.171-10.171       c0-5.617,4.554-10.171,10.171-10.171C416.035,109.169,420.588,113.723,420.588,119.34z"/>
				</g>
				<g>
					<g>
						<path style="fill:#FDBC08;" d="M322.738,220.403c-3.757,0.018-6.817-3.012-6.834-6.769c-0.018-3.757,3.012-6.816,6.769-6.835        c3.757-0.018,6.816,3.013,6.834,6.769C329.525,217.324,326.495,220.384,322.738,220.403z"/>
						<path style="fill:#FF8933;" d="M285.684,169.767c-3.536,0.017-6.416-2.835-6.433-6.371c-0.017-3.536,2.835-6.415,6.371-6.433        c3.536-0.017,6.416,2.835,6.433,6.371C292.072,166.87,289.219,169.75,285.684,169.767z"/>
						<path style="fill:#FF8933;" d="M329.707,171.955c-3.536,0.017-6.416-2.835-6.433-6.371c-0.017-3.536,2.835-6.415,6.371-6.433        c3.536-0.017,6.416,2.835,6.433,6.371S333.242,171.938,329.707,171.955z"/>
						<path style="fill:#F3C7D1;" d="M341.018,194.307c-3.094,0.015-5.614-2.481-5.629-5.574c-0.015-3.094,2.481-5.614,5.574-5.629        c3.094-0.015,5.614,2.481,5.629,5.574S344.111,194.292,341.018,194.307z"/>
						<path style="fill:#F3C7D1;" d="M309.806,193.657c-3.094,0.015-5.613-2.481-5.628-5.574s2.481-5.614,5.574-5.629        c3.094-0.015,5.614,2.481,5.629,5.574C315.395,191.122,312.899,193.642,309.806,193.657z"/>
					</g>
					<g>
						<path style="fill:#FDBC08;" d="M147.76,267.999c-1.83,3.281-5.973,4.457-9.254,2.628c-3.281-1.83-4.457-5.973-2.628-9.254        c1.83-3.281,5.973-4.457,9.254-2.628C148.413,260.575,149.589,264.718,147.76,267.999z"/>
						<path style="fill:#FF8933;" d="M85.451,275.397c-1.722,3.088-5.621,4.195-8.709,2.473c-3.088-1.722-4.195-5.621-2.473-8.709        c1.722-3.088,5.621-4.195,8.709-2.473C86.066,268.409,87.174,272.309,85.451,275.397z"/>
						<path style="fill:#FF8933;" d="M108.985,238.128c-1.722,3.088-5.622,4.195-8.709,2.473c-3.088-1.722-4.195-5.621-2.473-8.709        c1.722-3.088,5.622-4.195,8.709-2.473C109.6,231.141,110.708,235.04,108.985,238.128z"/>
						<path style="fill:#F3C7D1;" d="M134.011,239.257c-1.507,2.702-4.919,3.671-7.621,2.164c-2.702-1.507-3.671-4.919-2.164-7.62        c1.507-2.702,4.919-3.671,7.621-2.164C134.549,233.143,135.518,236.555,134.011,239.257z"/>
						<path style="fill:#F3C7D1;" d="M118.111,266.123c-1.507,2.702-4.919,3.671-7.621,2.164c-2.702-1.507-3.671-4.919-2.164-7.621        c1.507-2.702,4.919-3.671,7.621-2.164C118.649,260.01,119.618,263.422,118.111,266.123z"/>
					</g>
				</g>
			</g>
		</g>
		<g>
			<g>
				<path style="fill:#5F2183;" d="M469.778,365.523c-3.279,6.444-6.922,12.683-10.793,18.786c-1.116,1.776-2.3,3.552-3.461,5.306      c-1.161,1.662-2.3,3.302-3.484,4.964c-1.457,2.072-2.96,4.099-4.509,6.125c-0.82,1.093-1.662,2.186-2.528,3.279      c-2.027,2.618-4.144,5.146-6.285,7.651c-2.824,3.325-5.761,6.558-8.812,9.723c-9.86,10.338-20.608,19.788-32.152,28.259      c-8.015,5.875-16.418,11.271-25.162,16.144c-16.509,9.199-34.224,16.531-52.806,21.678c-10.406,2.892-21.086,5.123-31.993,6.581      c-10.702,1.457-21.632,2.186-32.722,2.186h-0.114c-0.774,0-1.526,0-2.3-0.023c-0.25,0-0.524,0-0.774-0.023      c-1.799,0-3.552-0.045-5.351-0.114c-26.209-0.911-51.348-5.989-74.779-14.596c-7.537-2.755-14.892-5.898-22.042-9.359      c-0.159-1.639-0.319-3.325-0.432-4.987c-0.319-4.258-0.478-8.539-0.478-12.888c0-9.382,0.752-18.581,2.186-27.553      c3.12-19.583,9.518-38.073,18.649-54.9c29.306-54.058,86.575-90.787,152.405-90.787c8.994,0,17.807,0.683,26.437,2.004      c12.501,1.913,24.57,5.169,36.046,9.609c6.535,2.528,12.911,5.442,19.036,8.721c14.778,7.879,28.281,17.852,40.099,29.534      c3.439,3.37,6.717,6.877,9.814,10.52c6.239,7.241,11.864,14.96,16.828,23.181C470.23,364.717,469.963,365.209,469.778,365.523z"/>
				<g style="opacity:0.33;">
					<path style="fill:#95ABD3;" d="M443.66,330.842c-4.167,3.666-8.63,7.013-13.23,10.019       c-17.647,11.545-37.754,18.74-57.952,24.843c-73.322,22.111-151.449,31.333-221.491,60.957       c3.12-19.583,9.518-38.073,18.649-54.9c20.539-7.355,40.486-16.759,59.75-26.847c39.667-20.767,77.808-44.767,119.091-61.936       c12.501,1.913,24.57,5.169,36.046,9.609c-25.959,12.592-52.965,23.363-76.692,39.735c-2.892,1.981-6.034,4.668-5.898,8.175       c0.228,4.896,6.49,6.968,11.363,6.581c7.993-0.66,15.393-4.349,22.475-8.106c22.794-12.091,44.95-25.663,67.789-37.663       C418.339,309.188,431.842,319.161,443.66,330.842z"/>
					<path style="fill:#95ABD3;" d="M469.778,365.523c-27.439,13.412-53.625,29.283-78.195,47.432       c-35.887,26.505-72.092,59.272-116.677,60.775c-15.553,0.524-30.946-2.937-46.475-3.507       c-19.423-0.729-38.961,3.211-56.676,11.226c-7.537-2.755-14.892-5.898-22.042-9.359c-0.159-1.639-0.319-3.325-0.432-4.987       c33.678-12.683,65.033-33.337,100.738-37.549c14.437-1.708,29.078-0.615,43.538-2.095       c37.139-3.757,70.476-23.887,100.943-45.428c19.446-13.776,38.596-28.464,58.976-40.669       c6.239,7.241,11.864,14.96,16.828,23.181C470.195,364.76,470.079,365.084,469.778,365.523z"/>
					<path style="fill:#95ABD3;" d="M397.754,449.615c-8.015,5.875-16.418,11.271-25.162,16.144       c-16.509,9.199-34.224,16.531-52.806,21.678c-10.406,2.892-21.086,5.123-31.993,6.581c-10.702,1.457-21.632,2.186-32.722,2.186       h-0.114c-0.774,0-1.526,0-2.3-0.023c-0.25,0-0.524,0-0.774-0.023C301.092,482.541,349.753,467.012,397.754,449.615z"/>
					<path style="fill:#95ABD3;" d="M453.474,341.363c6.239,7.241,11.864,14.96,16.828,23.181c-0.107,0.217-0.218,0.477-0.524,0.979       "/>
				</g>
			</g>
			<g>
				
					<ellipse transform="matrix(0.9974 -0.072 0.072 0.9974 -10.721 10.7026)" style="fill:#FF5382;" cx="142.995" cy="153.963" rx="43.533" ry="43.533"/>
				<path style="fill:#9F6DA4;" d="M105.18,132.837c-5.548-1.079-11.106-2.058-16.665-2.923c-5.552-0.866-11.132-1.612-16.657-1.922      c-2.745-0.154-5.526-0.206-8.059,0.148c-1.227,0.163-2.492,0.533-3.006,0.949c-0.268,0.22-0.155,0.223-0.147,0.219      c0.021-0.16,0.034-0.001,0.276,0.345c0.473,0.687,1.479,1.542,2.493,2.271c1.043,0.746,2.181,1.447,3.35,2.117      c2.346,1.338,4.827,2.551,7.339,3.708c10.074,4.64,20.623,8.538,31.16,12.377c10.537,3.873,21.219,7.391,31.863,11.013      c10.682,3.624,21.297,6.864,32.156,9.684c5.416,1.404,10.863,2.693,16.332,3.842c5.459,1.188,10.947,2.242,16.444,3.022      c2.747,0.39,5.497,0.701,8.231,0.886c2.722,0.198,5.468,0.28,8.003-0.029c1.235-0.155,2.486-0.464,3.174-0.902      c0.351-0.222,0.454-0.364,0.499-0.497c0.075-0.185,0.078-0.534-0.075-0.942c-0.295-0.844-1.106-1.84-2.026-2.71      c-0.926-0.891-1.983-1.726-3.092-2.509c-4.474-3.135-9.556-5.61-14.616-8.017c-5.103-2.349-10.292-4.569-15.559-6.606      c5.467,1.427,10.886,3.069,16.221,4.997c5.342,1.923,10.608,4.077,15.646,7.028c1.255,0.752,2.49,1.574,3.677,2.552      c1.16,1.008,2.348,2.116,3.156,3.886c0.388,0.887,0.63,1.998,0.368,3.192c-0.252,1.264-1.128,2.27-1.936,2.835      c-1.662,1.156-3.241,1.494-4.765,1.818c-6.066,1.021-11.781,0.536-17.502,0.031c-11.407-1.125-22.587-3.263-33.662-5.839      c-5.534-1.3-11.06-2.653-16.526-4.252c-5.489-1.585-10.876-3.329-16.258-5.055c-10.784-3.431-21.434-7.269-32.052-11.235      c-5.313-1.974-10.559-4.14-15.794-6.355c-5.221-2.251-10.444-4.528-15.531-7.205c-2.546-1.335-5.072-2.73-7.551-4.315      c-1.239-0.796-2.466-1.637-3.671-2.596c-1.196-0.999-2.404-1.978-3.482-3.66c-0.495-0.824-1.095-2.06-0.819-3.635      c0.23-1.412,1.272-2.619,2.194-3.149c1.883-1.109,3.494-1.228,5.045-1.383c3.087-0.202,5.968,0.085,8.832,0.442      C83.563,126.153,94.463,129.205,105.18,132.837z"/>
				<path style="fill:#9F6DA4;" d="M99.898,150.653c-5.457,1.472-10.879,3.038-16.251,4.706c-5.367,1.665-10.706,3.45-15.804,5.603      c-2.533,1.069-5.053,2.246-7.172,3.678c-1.03,0.687-2.003,1.575-2.282,2.174c-0.144,0.315-0.041,0.269-0.036,0.261      c-0.052-0.153,0.03-0.016,0.4,0.188c0.728,0.409,2.007,0.734,3.238,0.943c1.265,0.211,2.595,0.341,3.94,0.427      c2.695,0.169,5.457,0.167,8.222,0.101c11.088-0.265,22.276-1.406,33.428-2.594c11.167-1.158,22.307-2.698,33.459-4.128      c11.187-1.445,22.145-3.206,33.137-5.451c5.482-1.122,10.94-2.361,16.357-3.735c5.425-1.335,10.817-2.803,16.096-4.52      c2.639-0.859,5.246-1.789,7.781-2.826c2.531-1.019,5.034-2.155,7.174-3.547c1.041-0.682,2.028-1.51,2.453-2.207      c0.218-0.354,0.247-0.527,0.23-0.665c-0.014-0.199-0.164-0.514-0.482-0.812c-0.636-0.628-1.803-1.166-3.011-1.543      c-1.223-0.393-2.54-0.677-3.881-0.893c-5.397-0.847-11.049-0.833-16.652-0.77c-5.616,0.135-11.252,0.425-16.879,0.913      c5.538-1.124,11.126-2.033,16.765-2.649c5.643-0.624,11.32-1.006,17.142-0.572c1.458,0.123,2.928,0.318,4.424,0.674      c1.485,0.395,3.039,0.867,4.544,2.101c0.739,0.625,1.445,1.517,1.735,2.705c0.329,1.246-0.015,2.535-0.491,3.397      c-0.983,1.77-2.253,2.768-3.479,3.729c-4.998,3.585-10.344,5.664-15.704,7.728c-10.738,4.009-21.719,7.006-32.798,9.566      c-5.542,1.267-11.099,2.483-16.712,3.453c-5.626,0.992-11.231,1.796-16.824,2.614c-11.194,1.664-22.446,2.903-33.726,4.012      c-5.64,0.565-11.303,0.928-16.979,1.242c-5.679,0.276-11.371,0.529-17.117,0.363c-2.874-0.078-5.756-0.22-8.679-0.553      c-1.463-0.17-2.935-0.386-4.438-0.716c-1.514-0.371-3.029-0.718-4.737-1.755c-0.808-0.522-1.89-1.368-2.335-2.904      c-0.414-1.369-0.01-2.912,0.585-3.793c1.203-1.824,2.598-2.64,3.922-3.462c2.683-1.539,5.397-2.549,8.126-3.488      C77.544,154.161,88.675,152.107,99.898,150.653z"/>
			</g>
		</g>
		<g>
			<g>
				<path style="opacity:0.33;fill:#F3C7D1;" d="M102.622,359.238l-2.96,7.332l-21.313,52.783c-1.936-2.049-3.803-4.122-5.647-6.239      l11.454-57.929l0.182,0.045L102.622,359.238z"/>
				<path style="fill:#F3C7D1;" d="M83.82,359.199c-0.409-5.516,3.731-10.318,9.247-10.727c5.515-0.409,10.318,3.731,10.727,9.247      c0.409,5.516-3.731,10.318-9.247,10.727C89.031,368.854,84.229,364.714,83.82,359.199z"/>
			</g>
			<g>
				<polygon style="opacity:0.33;fill:#F3C7D1;" points="136.166,334.28 98.453,427.609 117.695,330.229     "/>
				<path style="fill:#F3C7D1;" d="M117.355,334.239c-0.409-5.516,3.731-10.318,9.247-10.727c5.515-0.409,10.318,3.731,10.727,9.247      c0.409,5.515-3.731,10.318-9.247,10.727C122.566,343.895,117.764,339.755,117.355,334.239z"/>
			</g>
			<g>
				<path style="opacity:0.33;fill:#F3C7D1;" d="M84.587,322.326l-2.96,7.309l-25.253,62.483c-1.275-1.822-2.528-3.689-3.757-5.556      l13.503-68.29l0.182,0.045L84.587,322.326z"/>
				<path style="fill:#F3C7D1;" d="M65.782,322.282c-0.409-5.515,3.731-10.318,9.247-10.727c5.516-0.409,10.318,3.731,10.727,9.247      c0.409,5.515-3.731,10.318-9.247,10.727C70.993,331.937,66.191,327.797,65.782,322.282z"/>
			</g>
		</g>
		<g>
			<g>
				<path style="fill:#FF5382;" d="M496.739,254.56v0.41c0,6.102-0.228,12.159-0.706,18.125c-0.456,6.103-1.139,12.114-2.049,18.08      c-18.194-21.792-40.099-40.486-64.578-55.014c-2.596-1.548-5.237-3.051-7.901-4.509c-0.956-0.524-1.936-1.047-2.915-1.548      c-5.715-3.029-11.567-5.829-17.533-8.402c-0.205-0.114-0.41-0.182-0.615-0.273c3.643-0.774,7.287-1.435,10.953-1.981      c1.48-0.205,2.937-0.41,4.417-0.592h0.023c1.799-0.228,3.62-0.433,5.419-0.592c6.945-0.683,13.936-0.956,20.926-0.843      c17.898,0.273,35.75,3.074,52.851,8.357c0.501,4.235,0.911,8.494,1.184,12.774c0.228,3.165,0.364,6.33,0.456,9.495      C496.716,250.211,496.739,252.374,496.739,254.56z"/>
				<path style="fill:#FF8933;" d="M496.215,238.553c-18.399-9.336-38.437-15.78-58.84-18.24      c-5.146-0.592-10.315-0.956-15.461-1.047c-1.913-0.023-3.802-0.023-5.715,0.023c-1.617,0.023-3.211,0.091-4.804,0.159      c1.48-0.205,2.937-0.41,4.417-0.592h0.023c1.799-0.228,3.62-0.433,5.419-0.592c6.945-0.683,13.936-0.956,20.926-0.843      c17.898,0.273,35.75,3.074,52.851,8.357C495.532,230.013,495.941,234.272,496.215,238.553z"/>
				<path style="fill:#564BB7;" d="M496.739,254.97c0,6.102-0.228,12.159-0.706,18.125c-0.456,6.103-1.139,12.114-2.049,18.08      c-18.194-21.792-40.099-40.486-64.578-55.014c-2.596-1.548-5.237-3.051-7.901-4.509c-0.956-0.524-1.936-1.047-2.915-1.548      c-5.715-3.029-11.567-5.829-17.533-8.402c0.66-0.045,1.321-0.068,2.004-0.068c6.308,0,13.412,1.844,17.374,2.505      c2.323,0.387,4.623,0.82,6.9,1.298c0.182,0.023,0.364,0.068,0.546,0.114C453.064,230.788,476.472,240.943,496.739,254.97z"/>
			</g>
			<polygon style="fill:#FDBC08;" points="390.986,204.336 367.168,203.845 382.87,221.762 370.535,242.143 393.902,237.503      405.386,258.376 413.051,235.82 436.87,236.311 421.168,218.394 433.502,198.012 410.135,202.652 398.651,181.78    "/>
		</g>
		<g>
			<g>
				<path style="fill:#9F6DA4;" d="M212.673,260.9H167.86c1.708-10.862,11.067-19.173,22.406-19.173      c4.873,0,9.404,1.526,13.093,4.167C208.255,249.356,211.716,254.73,212.673,260.9z"/>
				<path style="fill:#9F6DA4;" d="M248.936,260.9h-44.858c0.979-6.194,4.44-11.568,9.359-15.006      c3.689-2.642,8.198-4.167,13.07-4.167c4.873,0,9.404,1.526,13.093,4.167C244.496,249.356,247.957,254.73,248.936,260.9z"/>
				<path style="fill:#9F6DA4;" d="M283.216,260.9h-44.813c0.956-6.194,4.417-11.568,9.336-15.006      c3.689-2.642,8.198-4.167,13.07-4.167C272.15,241.727,281.531,250.039,283.216,260.9z"/>
			</g>
			<g>
				<path style="fill:#9F6DA4;" d="M200.463,61.487h-44.813c1.708-10.862,11.067-19.173,22.406-19.173      c4.873,0,9.404,1.526,13.093,4.167C196.046,49.942,199.507,55.316,200.463,61.487z"/>
				<path style="fill:#9F6DA4;" d="M236.727,61.487h-44.858c0.979-6.194,4.44-11.568,9.359-15.006      c3.689-2.641,8.197-4.167,13.071-4.167c4.873,0,9.404,1.526,13.093,4.167C232.287,49.942,235.748,55.316,236.727,61.487z"/>
				<path style="fill:#9F6DA4;" d="M271.007,61.487h-44.813c0.957-6.194,4.418-11.568,9.336-15.006      c3.689-2.641,8.198-4.167,13.07-4.167C259.941,42.313,269.322,50.625,271.007,61.487z"/>
			</g>
			<g>
				<path style="fill:#9F6DA4;" d="M435.342,159.159h-44.813c1.708-10.862,11.067-19.173,22.406-19.173      c4.873,0,9.404,1.526,13.093,4.167C430.924,147.614,434.385,152.988,435.342,159.159z"/>
				<path style="fill:#9F6DA4;" d="M471.605,159.159h-44.858c0.979-6.194,4.44-11.568,9.359-15.006      c3.689-2.641,8.198-4.167,13.07-4.167s9.404,1.526,13.093,4.167C467.165,147.614,470.626,152.988,471.605,159.159z"/>
				<path style="fill:#9F6DA4;" d="M477.201,159.151h-16.122c0.66-4.281,2.528-8.175,5.237-11.294      c1.139-1.321,2.437-2.505,3.871-3.552c0.114,0.228,0.251,0.478,0.364,0.706c1.07,2.118,2.118,4.235,3.12,6.376      C474.879,153.959,476.063,156.532,477.201,159.151z"/>
			</g>
		</g>
		<g>
			<g>
				<path style="fill:#FFFFFF;" d="M212.486,95.594c-6.888-0.521-13.777-0.654-20.666-0.664c-0.001-0.002-0.002-0.005-0.002-0.007      c2.909-2.642,5.747-5.363,8.386-8.307c0.099-0.11,0.112-0.278,0.022-0.403c-0.104-0.145-0.305-0.179-0.45-0.075      c-3.191,2.284-6.187,4.786-9.111,7.368c-0.115-0.065-0.234-0.121-0.359-0.167c-0.008-3-0.038-5.999-0.069-8.999      c-0.086-3.814-0.173-7.628-0.384-11.441c-0.007-0.125-0.107-0.228-0.235-0.235c-0.138-0.008-0.255,0.098-0.263,0.235      c-0.212,3.814-0.298,7.627-0.384,11.441c-0.03,2.97-0.061,5.939-0.069,8.909c-0.143,0.033-0.283,0.074-0.416,0.13      c-1.025-1.105-2.058-2.203-3.119-3.276c-1.62-1.674-3.262-3.327-4.971-4.92c-0.058-0.054-0.147-0.061-0.213-0.012      c-0.073,0.055-0.089,0.159-0.034,0.233c1.397,1.874,2.86,3.687,4.346,5.48c0.94,1.161,1.91,2.297,2.886,3.426      c-0.126,0.193-0.218,0.408-0.287,0.633c-2.977,0.021-5.954,0.052-8.931,0.155c-3.814,0.1-7.628,0.238-11.441,0.495      c-0.092,0.006-0.168,0.079-0.174,0.174c-0.007,0.103,0.071,0.193,0.174,0.2c3.814,0.258,7.628,0.395,11.441,0.495      c3.001,0.104,6.002,0.136,9.003,0.156c0.005,0.012,0.011,0.023,0.016,0.035c-2.823,2.609-5.588,5.283-8.196,8.132      c-0.096,0.105-0.109,0.267-0.021,0.386c0.1,0.136,0.29,0.166,0.427,0.066c3.141-2.297,6.123-4.772,9.046-7.313      c0.15,0.068,0.307,0.122,0.471,0.159c0.018,3.046,0.022,6.092,0.101,9.138c0.07,3.814,0.165,7.627,0.345,11.441      c0.006,0.127,0.108,0.231,0.238,0.238c0.138,0.007,0.255-0.1,0.261-0.238c0.179-3.814,0.275-7.627,0.345-11.441      c0.08-3.076,0.083-6.152,0.102-9.228c0.087-0.031,0.171-0.067,0.253-0.108c1.047,1.168,2.088,2.342,3.165,3.484      c1.617,1.676,3.232,3.354,4.954,4.936c0.109,0.101,0.278,0.114,0.403,0.022c0.141-0.104,0.172-0.303,0.068-0.444      c-1.384-1.885-2.875-3.674-4.364-5.465c-1.028-1.209-2.092-2.384-3.15-3.566c0.04-0.073,0.087-0.143,0.12-0.221      c6.912-0.009,13.825-0.141,20.737-0.664c0.091-0.007,0.166-0.079,0.173-0.173C212.666,95.692,212.589,95.601,212.486,95.594z"/>
			</g>
			<g>
				<path style="fill:#FFFFFF;" d="M201.442,308.706c-6.888-0.521-13.777-0.654-20.665-0.664c-0.001-0.002-0.002-0.005-0.002-0.007      c2.909-2.642,5.747-5.363,8.386-8.307c0.099-0.11,0.112-0.278,0.022-0.403c-0.103-0.145-0.305-0.178-0.45-0.075      c-3.191,2.284-6.187,4.786-9.111,7.368c-0.115-0.065-0.234-0.121-0.359-0.167c-0.007-3-0.038-5.999-0.069-8.999      c-0.086-3.814-0.173-7.627-0.384-11.441c-0.007-0.125-0.107-0.228-0.235-0.235c-0.138-0.007-0.255,0.098-0.263,0.235      c-0.212,3.814-0.298,7.628-0.384,11.441c-0.03,2.97-0.061,5.94-0.069,8.909c-0.143,0.033-0.283,0.074-0.416,0.131      c-1.025-1.105-2.058-2.204-3.119-3.276c-1.62-1.674-3.262-3.327-4.971-4.921c-0.058-0.054-0.147-0.061-0.213-0.012      c-0.073,0.055-0.089,0.159-0.034,0.232c1.397,1.874,2.86,3.687,4.346,5.48c0.94,1.161,1.91,2.297,2.886,3.426      c-0.126,0.193-0.218,0.408-0.287,0.633c-2.977,0.021-5.954,0.053-8.931,0.155c-3.814,0.1-7.628,0.238-11.441,0.495      c-0.092,0.006-0.168,0.08-0.174,0.174c-0.007,0.103,0.071,0.193,0.174,0.2c3.813,0.258,7.627,0.395,11.441,0.495      c3.001,0.104,6.002,0.136,9.003,0.156c0.005,0.012,0.011,0.023,0.016,0.035c-2.823,2.609-5.588,5.283-8.196,8.132      c-0.096,0.105-0.109,0.267-0.021,0.386c0.1,0.136,0.291,0.166,0.427,0.066c3.141-2.298,6.123-4.772,9.046-7.313      c0.15,0.068,0.307,0.122,0.471,0.159c0.018,3.046,0.022,6.092,0.101,9.138c0.07,3.814,0.165,7.627,0.345,11.441      c0.006,0.127,0.108,0.231,0.238,0.238c0.138,0.007,0.255-0.1,0.261-0.238c0.179-3.814,0.275-7.627,0.345-11.441      c0.08-3.076,0.083-6.152,0.102-9.228c0.087-0.032,0.171-0.068,0.253-0.108c1.047,1.168,2.088,2.342,3.165,3.484      c1.617,1.676,3.232,3.354,4.954,4.936c0.11,0.101,0.278,0.114,0.403,0.022c0.142-0.104,0.172-0.302,0.068-0.444      c-1.384-1.885-2.875-3.674-4.363-5.465c-1.028-1.208-2.092-2.384-3.15-3.566c0.04-0.073,0.087-0.143,0.12-0.221      c6.912-0.01,13.825-0.141,20.737-0.664c0.091-0.007,0.166-0.079,0.173-0.173C201.623,308.804,201.546,308.714,201.442,308.706z"/>
			</g>
			<g>
				<path style="fill:#FFFFFF;" d="M454.414,283.941c-6.888-0.521-13.777-0.654-20.665-0.664c-0.001-0.002-0.002-0.005-0.002-0.007      c2.909-2.642,5.747-5.363,8.386-8.307c0.099-0.11,0.112-0.278,0.022-0.403c-0.104-0.145-0.305-0.178-0.45-0.075      c-3.191,2.284-6.187,4.786-9.111,7.368c-0.115-0.065-0.234-0.121-0.359-0.167c-0.007-3-0.038-5.999-0.069-8.999      c-0.086-3.814-0.173-7.628-0.384-11.441c-0.007-0.125-0.107-0.228-0.235-0.235c-0.138-0.007-0.255,0.098-0.263,0.235      c-0.212,3.814-0.298,7.628-0.384,11.441c-0.03,2.97-0.061,5.939-0.069,8.909c-0.143,0.033-0.283,0.074-0.415,0.131      c-1.025-1.105-2.058-2.204-3.119-3.276c-1.62-1.674-3.262-3.327-4.971-4.92c-0.058-0.054-0.147-0.061-0.213-0.012      c-0.073,0.055-0.089,0.159-0.034,0.233c1.397,1.874,2.86,3.687,4.346,5.48c0.94,1.161,1.909,2.297,2.886,3.426      c-0.126,0.193-0.218,0.408-0.287,0.633c-2.977,0.021-5.954,0.052-8.931,0.155c-3.814,0.1-7.628,0.238-11.441,0.495      c-0.092,0.006-0.168,0.08-0.174,0.174c-0.007,0.103,0.071,0.193,0.174,0.2c3.813,0.258,7.627,0.395,11.441,0.495      c3.001,0.104,6.002,0.136,9.003,0.156c0.005,0.012,0.011,0.023,0.016,0.035c-2.823,2.609-5.588,5.283-8.196,8.132      c-0.096,0.105-0.109,0.267-0.021,0.386c0.1,0.136,0.291,0.166,0.427,0.066c3.141-2.298,6.123-4.773,9.046-7.313      c0.15,0.068,0.307,0.122,0.471,0.159c0.018,3.046,0.022,6.092,0.101,9.138c0.07,3.814,0.165,7.627,0.345,11.441      c0.006,0.127,0.108,0.231,0.238,0.238c0.138,0.007,0.255-0.1,0.261-0.238c0.179-3.814,0.275-7.627,0.345-11.441      c0.08-3.076,0.083-6.152,0.102-9.228c0.087-0.031,0.171-0.067,0.253-0.108c1.047,1.168,2.088,2.342,3.165,3.484      c1.617,1.676,3.232,3.354,4.954,4.936c0.11,0.101,0.278,0.114,0.403,0.022c0.142-0.104,0.172-0.302,0.068-0.444      c-1.384-1.885-2.875-3.674-4.363-5.465c-1.028-1.208-2.092-2.384-3.15-3.566c0.04-0.073,0.087-0.143,0.12-0.221      c6.912-0.01,13.825-0.142,20.737-0.665c0.091-0.007,0.166-0.079,0.173-0.173C454.594,284.038,454.517,283.948,454.414,283.941z"/>
			</g>
			<g>
				<path style="fill:#FFFFFF;" d="M307.988,430.367c-6.888-0.521-13.777-0.654-20.666-0.664c-0.001-0.002-0.002-0.005-0.002-0.007      c2.909-2.642,5.747-5.363,8.386-8.307c0.099-0.11,0.112-0.278,0.022-0.403c-0.104-0.145-0.305-0.179-0.45-0.075      c-3.191,2.284-6.187,4.786-9.111,7.368c-0.115-0.064-0.234-0.121-0.359-0.167c-0.008-3-0.038-5.999-0.069-8.999      c-0.086-3.814-0.173-7.627-0.384-11.441c-0.007-0.125-0.107-0.228-0.235-0.235c-0.138-0.008-0.255,0.098-0.263,0.235      c-0.212,3.814-0.298,7.627-0.384,11.441c-0.03,2.97-0.061,5.94-0.069,8.909c-0.143,0.033-0.283,0.074-0.416,0.13      c-1.025-1.105-2.058-2.204-3.119-3.276c-1.62-1.674-3.262-3.327-4.971-4.921c-0.058-0.054-0.147-0.06-0.213-0.012      c-0.073,0.055-0.089,0.159-0.034,0.233c1.397,1.873,2.86,3.687,4.346,5.48c0.94,1.161,1.91,2.297,2.886,3.426      c-0.126,0.193-0.218,0.408-0.287,0.633c-2.977,0.021-5.954,0.053-8.931,0.156c-3.814,0.1-7.628,0.238-11.441,0.495      c-0.092,0.006-0.168,0.079-0.174,0.174c-0.007,0.103,0.071,0.193,0.174,0.2c3.814,0.258,7.628,0.395,11.441,0.495      c3.001,0.104,6.002,0.136,9.003,0.156c0.005,0.012,0.011,0.023,0.016,0.035c-2.823,2.609-5.588,5.283-8.196,8.132      c-0.096,0.105-0.109,0.267-0.021,0.386c0.1,0.136,0.29,0.166,0.427,0.066c3.141-2.297,6.123-4.772,9.046-7.313      c0.15,0.068,0.307,0.121,0.471,0.159c0.018,3.046,0.022,6.092,0.101,9.138c0.07,3.814,0.165,7.628,0.345,11.441      c0.006,0.127,0.108,0.231,0.238,0.238c0.138,0.007,0.255-0.1,0.261-0.238c0.179-3.814,0.275-7.628,0.345-11.441      c0.08-3.076,0.083-6.152,0.102-9.228c0.087-0.031,0.171-0.067,0.253-0.108c1.047,1.168,2.088,2.342,3.165,3.484      c1.617,1.676,3.232,3.354,4.954,4.936c0.109,0.101,0.278,0.114,0.403,0.022c0.141-0.104,0.172-0.303,0.068-0.444      c-1.384-1.885-2.875-3.674-4.364-5.465c-1.028-1.209-2.092-2.385-3.15-3.566c0.04-0.073,0.087-0.143,0.12-0.221      c6.912-0.009,13.825-0.141,20.737-0.664c0.091-0.007,0.166-0.079,0.173-0.173C308.168,430.465,308.091,430.375,307.988,430.367z      "/>
			</g>
			<g>
				<path style="fill:#FFFFFF;" d="M73.027,213.012c-6.888-0.521-13.777-0.654-20.666-0.664c-0.001-0.002-0.002-0.005-0.002-0.007      c2.909-2.642,5.747-5.363,8.386-8.307c0.099-0.11,0.112-0.278,0.022-0.403c-0.104-0.145-0.305-0.179-0.45-0.075      c-3.191,2.284-6.187,4.786-9.111,7.368c-0.115-0.064-0.234-0.121-0.359-0.167c-0.008-3-0.038-5.999-0.069-8.999      c-0.086-3.814-0.173-7.627-0.384-11.441c-0.007-0.125-0.107-0.228-0.235-0.235c-0.138-0.008-0.255,0.098-0.263,0.235      c-0.212,3.814-0.298,7.627-0.384,11.441c-0.03,2.97-0.061,5.94-0.069,8.909c-0.143,0.033-0.283,0.074-0.416,0.13      c-1.025-1.105-2.058-2.204-3.119-3.276c-1.62-1.674-3.262-3.327-4.971-4.921c-0.058-0.054-0.147-0.06-0.213-0.012      c-0.073,0.055-0.089,0.159-0.034,0.233c1.397,1.873,2.86,3.687,4.346,5.48c0.94,1.161,1.91,2.297,2.886,3.426      c-0.126,0.193-0.218,0.408-0.287,0.633c-2.977,0.021-5.954,0.052-8.931,0.155c-3.814,0.1-7.628,0.238-11.441,0.495      c-0.092,0.006-0.168,0.079-0.174,0.174c-0.007,0.103,0.071,0.193,0.174,0.2c3.814,0.258,7.628,0.395,11.441,0.495      c3.001,0.104,6.002,0.136,9.003,0.156c0.005,0.012,0.011,0.023,0.016,0.035c-2.823,2.609-5.587,5.283-8.196,8.132      c-0.096,0.105-0.109,0.267-0.021,0.386c0.1,0.136,0.29,0.166,0.427,0.066c3.141-2.297,6.123-4.772,9.046-7.313      c0.15,0.068,0.307,0.122,0.471,0.159c0.018,3.046,0.022,6.092,0.101,9.138c0.07,3.814,0.166,7.628,0.345,11.441      c0.006,0.127,0.108,0.231,0.238,0.238c0.138,0.007,0.255-0.1,0.261-0.238c0.179-3.814,0.275-7.628,0.345-11.441      c0.08-3.076,0.083-6.152,0.102-9.228c0.087-0.031,0.171-0.067,0.253-0.108c1.047,1.168,2.088,2.342,3.165,3.484      c1.617,1.676,3.232,3.354,4.954,4.936c0.109,0.101,0.278,0.114,0.403,0.022c0.141-0.104,0.172-0.303,0.068-0.444      c-1.384-1.885-2.875-3.674-4.364-5.465c-1.028-1.209-2.092-2.384-3.15-3.566c0.04-0.073,0.087-0.143,0.12-0.221      c6.913-0.009,13.825-0.141,20.737-0.664c0.091-0.007,0.166-0.079,0.173-0.173C73.208,213.11,73.131,213.02,73.027,213.012z"/>
			</g>
		</g>
	</g>
</g>















</svg>
