<?xml version="1.0" encoding="UTF-8"?>
<!-- Generator: Adobe Illustrator 26.5.1, SVG Export Plug-In . SVG Version: 6.00 Build 0)  -->
<svg xmlns="http://www.w3.org/2000/svg" xmlns:xlink="http://www.w3.org/1999/xlink" version="1.1" id="Capa_1" x="0px" y="0px" viewBox="0 0 512 512" style="enable-background:new 0 0 512 512;" xml:space="preserve" width="512" height="512">
<g>
	<path style="fill:#FFFFFF;" d="M488.436,292.34c-2.811-15.694-27.875-14.808-39.373-18.018   c-5.819-10.851-10.546-35.779-27.137-34.418c-14.764-1.348-21.25,20.481-27.448,30.05l-18.046-58.564   c4.42-0.153,38.85-36.422,42.854-39.483c5.7-5.523,6.391-14.426,1.612-20.762c-6.175-6.095-18.307-30.28-28.713-30.086   c0.143-0.359,0.301-0.714,0.421-1.079c20.217-11.617,45.273-54.852,7.73-59.255c-4.846-15.579-28.74-23.51-43.231-18.349   c-1.073-12.64-13.745-22.787-26.211-18.771c-5.183-9.478-17.679-11.995-26.747-6.838c-7.115-10.524-21.583-12.612-33.421-11.111   c-22.273-17.216-81.346,7.854-47.382,35.174c-0.029,0.469-0.049,0.933-0.076,1.401c-3.284-1.751-7.048-2.414-10.807-2.222   c0.729-23.14-22.346-45.855-39.593-21.568c-14.427-8.944-32.371-0.534-42.666,11.217c-14.143-3.005-29.541,6.582-36.505,18.613   c-30.098-5.341-37.153,31.442-38.242,53.67c-10.179,6.384-34.385,12.469-32.708,28.364c-1.212,15.902,23.295,21.31,33.629,27.29   c2.842,13.412,1.757,41.21,21.807,40.681l30.706,107.042l-2.352,2.009c-24.989-29.203-35.508,0.406-50.496,19.306   c-4.65,6.368-3.864,15.195,1.84,20.64l35.953,34.335c10.995,13.888,26.111,0.502,34.34-9.062l5.57,19.418l-9.783,17.747   c-11.814,2.2-36.578-1.027-40.844,14.387c-6.95,14.35,13.852,28.357,21.263,37.715c-1.196,10.363-10.809,31.42-1.814,40.43   c11.108,15.715,32.968-0.721,45.316-5.706c6.461,2.989,23.907,16.253,31.346,15.424c16.959,0.167,20.796-18.141,16.946-31.484   c27.93-7.332,130.714-34.587,160.437-42.38c44.08-11.745,89.938-18.17,66.163-76.321c11.079,6.655,28.644,19.91,39.79,6.017   c8.899-8.049,1.547-29.854,1.285-39.812C472.12,319.291,494.03,307.294,488.436,292.34z"/>
	<g>
		<g>
			<g>
				<g>
					<g>
						<path style="fill:#2E1144;" d="M95.528,136.204l95.688,328.684l205.063-54.183c11.906-3.146,18.802-15.568,15.176-27.337        L322.774,95.556c-3.423-11.108-14.023-16.269-25.262-13.306L95.528,136.204z"/>
						<path style="fill:#B179FF;" d="M383.025,414.19h-0.027c-1.951,1.328-4.145,2.33-6.556,2.98l-25.087,6.638l-2.926,0.759        l-118.692,31.373l-2.709,0.704l-55.648,14.711L76.392,140.23l200.322-52.803c1.246-0.325,2.493-0.542,3.739-0.623h0.027        c9.97-0.84,19.425,5.337,22.46,15.199l88.674,287.831C394.512,399.207,390.719,409.015,383.025,414.19z"/>
					</g>
					<g>
						<polygon style="fill:#FF93E2;" points="212.319,218.915 156.755,324.453 148.113,326.783 99.671,154.529 285.065,109.583         287.477,117.873       "/>
						<polygon style="fill:#2E1144;" points="333.48,276.96 156.755,324.453 110.752,160.76 287.477,117.873       "/>
					</g>
					<g>
						<g>
							<g>
								
									<ellipse transform="matrix(0.092 -0.9958 0.9958 0.092 -190.7887 512.3721)" style="fill:#2E1144;" cx="185.554" cy="360.801" rx="15.026" ry="15.026"/>
								
									<ellipse transform="matrix(0.3929 -0.9196 0.9196 0.3929 -222.9572 386.3019)" style="fill:#FF93E2;" cx="181.092" cy="362.01" rx="15.026" ry="15.026"/>
							</g>
							<g>
								
									<ellipse transform="matrix(0.311 -0.9504 0.9504 0.311 -165.4364 464.9746)" style="fill:#2E1144;" cx="237.989" cy="346.594" rx="15.026" ry="15.026"/>
								<path style="fill:#FFE7DE;" d="M248.03,343.874c2.17,8.01-2.564,16.263-10.574,18.433          c-8.01,2.17-16.263-2.564-18.433-10.574c-2.17-8.01,2.564-16.263,10.574-18.433          C237.607,331.13,245.86,335.864,248.03,343.874z"/>
							</g>
						</g>
						<g>
							<g>
								
									<ellipse transform="matrix(0.9453 -0.3263 0.3263 0.9453 -122.1792 87.0129)" style="fill:#2E1144;" cx="198.25" cy="407.658" rx="15.026" ry="15.026"/>
								
									<ellipse transform="matrix(0.9994 -0.0343 0.0343 0.9994 -13.904 6.8843)" style="fill:#FFE7DE;" cx="193.787" cy="408.867" rx="15.026" ry="15.026"/>
							</g>
							<g>
								
									<ellipse transform="matrix(0.699 -0.7151 0.7151 0.699 -205.9118 297.7117)" style="fill:#2E1144;" cx="250.685" cy="393.451" rx="15.026" ry="15.026"/>
								
									<ellipse transform="matrix(0.311 -0.9504 0.9504 0.311 -205.446 505.9151)" style="fill:#FF93E2;" cx="246.223" cy="394.66" rx="15.026" ry="15.026"/>
							</g>
						</g>
					</g>
					<g>
						<g>
							<path style="fill:#2E1144;" d="M322.536,327.614l-16.07,4.58c-1.439,0.41-2.938-0.424-3.348-1.863l-4.58-16.069         c-0.41-1.439,0.424-2.938,1.863-3.348l16.07-4.58c1.439-0.41,2.938,0.424,3.348,1.863l4.58,16.069         C324.809,325.705,323.975,327.204,322.536,327.614z"/>
							<path style="fill:#FFE7DE;" d="M319.203,328.564l-16.07,4.58c-1.439,0.41-2.938-0.424-3.348-1.863l-4.58-16.07         c-0.41-1.439,0.424-2.938,1.863-3.348l16.07-4.58c1.439-0.41,2.938,0.424,3.348,1.863l4.58,16.069         C321.476,326.655,320.642,328.154,319.203,328.564z"/>
						</g>
						<g>
							<path style="fill:#2E1144;" d="M333.912,367.528l-16.069,4.58c-1.439,0.41-2.938-0.424-3.348-1.863l-4.58-16.07         c-0.41-1.439,0.424-2.938,1.863-3.348l16.07-4.58c1.439-0.41,2.938,0.424,3.348,1.863l4.58,16.069         C336.185,365.619,335.351,367.118,333.912,367.528z"/>
							<path style="fill:#FFE7DE;" d="M330.579,368.478l-16.069,4.58c-1.439,0.41-2.938-0.424-3.348-1.863l-4.58-16.069         c-0.41-1.439,0.424-2.938,1.863-3.348l16.07-4.58c1.439-0.41,2.938,0.424,3.348,1.863l4.58,16.069         C332.852,366.569,332.018,368.068,330.579,368.478z"/>
						</g>
						<g>
							<path style="fill:#2E1144;" d="M296.245,357.765l-16.069,4.58c-1.439,0.41-2.938-0.424-3.348-1.863l-4.58-16.07         c-0.41-1.439,0.424-2.938,1.863-3.348l16.07-4.58c1.439-0.41,2.938,0.424,3.348,1.863l4.58,16.07         C298.518,355.856,297.684,357.355,296.245,357.765z"/>
							<path style="fill:#FFE7DE;" d="M292.912,358.715l-16.069,4.58c-1.439,0.41-2.938-0.424-3.348-1.863l-4.58-16.069         c-0.41-1.439,0.424-2.938,1.863-3.348l16.07-4.58c1.439-0.41,2.938,0.424,3.348,1.863l4.58,16.069         C295.185,356.806,294.35,358.305,292.912,358.715z"/>
						</g>
						<g>
							<path style="fill:#2E1144;" d="M360.439,339.468l-16.069,4.58c-1.439,0.41-2.938-0.424-3.348-1.863l-4.58-16.07         c-0.41-1.439,0.424-2.938,1.863-3.348l16.07-4.58c1.439-0.41,2.938,0.424,3.348,1.863l4.58,16.069         C362.712,337.559,361.878,339.058,360.439,339.468z"/>
							<path style="fill:#FFE7DE;" d="M357.106,340.418l-16.069,4.58c-1.439,0.41-2.938-0.424-3.348-1.863l-4.58-16.069         c-0.41-1.439,0.424-2.938,1.863-3.348l16.069-4.58c1.439-0.41,2.938,0.424,3.348,1.863l4.58,16.07         C359.379,338.509,358.545,340.008,357.106,340.418z"/>
						</g>
					</g>
					<g>
						<path style="fill:#FFE7DE;" d="M351.354,423.807l-2.926,0.759l-0.894-1.002l-11.514-12.95l-106.528,28.556l0.217,15.524v0.027        l0.027,1.219l-2.709,0.704l-0.027-1.219l-0.244-17.258c0-0.623,0.406-1.165,1.003-1.328l108.37-29.07        c0.488-0.108,1.029,0.027,1.355,0.433l12.977,14.603L351.354,423.807z"/>
					</g>
					<g>
						<path style="fill:#FFE7DE;" d="M278.721,171.322l-76.803,20.087c-0.212-5.571,1.227-11.149,4.754-15.387        c2.629-3.16,6.932-5.519,10.826-4.156c3.107,1.094,4.978,4.206,6.61,7.065c-1.385-8.243-0.19-16.9,3.347-24.476        c1.309-2.798,2.986-5.531,5.414-7.448c2.429-1.936,5.701-2.991,8.691-2.199c3.529,0.946,5.963,4.155,7.648,7.391        c2.294,4.397,3.733,9.246,4.203,14.187c0.575-5.008,1.576-10.222,4.729-14.151c3.153-3.93,9.07-6.062,13.412-3.49        c3.985,2.332,5.21,7.442,5.902,12.005C277.982,164.262,278.411,167.786,278.721,171.322z"/>
						<path style="fill:#FFE7DE;" d="M233.522,232.738l-76.803,20.087c-0.212-5.571,1.227-11.149,4.754-15.387        c2.629-3.16,6.932-5.519,10.826-4.156c3.107,1.094,4.978,4.206,6.61,7.065c-1.385-8.243-0.19-16.9,3.347-24.475        c1.309-2.798,2.986-5.531,5.414-7.448c2.429-1.936,5.701-2.991,8.691-2.199c3.529,0.946,5.963,4.155,7.648,7.391        c2.294,4.397,3.733,9.246,4.203,14.187c0.575-5.008,1.576-10.222,4.729-14.151c3.153-3.93,9.071-6.062,13.413-3.49        c3.985,2.332,5.21,7.442,5.902,12.005C232.783,225.678,233.212,229.202,233.522,232.738z"/>
						<path style="fill:#FFE7DE;" d="M300.795,259.467l-76.803,20.087c-0.212-5.571,1.227-11.149,4.754-15.387        c2.629-3.16,6.932-5.519,10.826-4.156c3.107,1.094,4.978,4.206,6.61,7.065c-1.385-8.243-0.19-16.9,3.347-24.475        c1.309-2.798,2.986-5.531,5.414-7.448c2.429-1.936,5.701-2.991,8.691-2.199c3.529,0.946,5.963,4.155,7.648,7.391        c2.294,4.397,3.733,9.246,4.203,14.187c0.575-5.008,1.576-10.222,4.729-14.151c3.153-3.93,9.07-6.062,13.412-3.49        c3.985,2.332,5.21,7.442,5.902,12.005C300.056,252.406,300.485,255.931,300.795,259.467z"/>
					</g>
				</g>
				<path style="fill:#FFC666;" d="M77.664,77.949l22.981,22.808c0.633,0.628,1.534,0.905,2.411,0.739l31.817-6.001      c2.207-0.416,3.933,1.879,2.921,3.883l-14.591,28.904c-0.402,0.796-0.386,1.739,0.042,2.521l15.539,28.406      c1.078,1.97-0.571,4.321-2.791,3.978l-31.998-4.945c-0.881-0.136-1.773,0.17-2.385,0.819l-22.214,23.556      c-1.541,1.634-4.286,0.792-4.645-1.425l-5.185-31.96c-0.143-0.88-0.71-1.634-1.516-2.015l-29.268-13.847      c-2.03-0.96-2.077-3.831-0.08-4.858l28.793-14.808c0.793-0.408,1.335-1.18,1.448-2.064l4.125-32.114      C73.354,77.3,76.07,76.368,77.664,77.949z"/>
				<path style="fill:#FFC666;" d="M423.177,258.157l12.999,29.654c0.358,0.817,1.095,1.405,1.971,1.573l31.798,6.103      c2.205,0.423,2.968,3.191,1.291,4.684l-24.186,21.526c-0.666,0.593-0.998,1.475-0.887,2.36l4.022,32.127      c0.279,2.228-2.118,3.809-4.056,2.675l-27.947-16.35c-0.77-0.45-1.712-0.493-2.519-0.114l-29.312,13.753      c-2.033,0.954-4.277-0.837-3.798-3.031l6.914-31.631c0.19-0.871-0.06-1.78-0.67-2.431l-22.137-23.628      c-1.535-1.639-0.525-4.326,1.709-4.548l32.22-3.199c0.887-0.088,1.674-0.607,2.105-1.388l15.63-28.355      C419.407,255.97,422.276,256.1,423.177,258.157z"/>
				<path style="fill:#FFC666;" d="M153.677,396.07l12.999,29.654c0.358,0.817,1.095,1.405,1.971,1.573l31.798,6.103      c2.205,0.423,2.968,3.192,1.29,4.684l-24.186,21.526c-0.666,0.593-0.998,1.476-0.887,2.36l4.022,32.127      c0.279,2.228-2.118,3.809-4.056,2.675l-27.947-16.35c-0.77-0.45-1.712-0.493-2.519-0.114l-29.312,13.753      c-2.033,0.954-4.277-0.838-3.798-3.031l6.914-31.631c0.19-0.871-0.06-1.78-0.67-2.431l-22.138-23.628      c-1.535-1.639-0.525-4.326,1.709-4.548l32.219-3.199c0.887-0.088,1.674-0.607,2.105-1.388l15.63-28.355      C149.907,393.884,152.775,394.014,153.677,396.07z"/>
			</g>
			<g>
				<path style="fill:#2E1144;" d="M108.803,87.898c0.769,1.8,1.395,3.788,1.877,5.964c0.483,2.178,0.671,4.336,0.563,6.48      c-0.109,2.142-0.595,4.168-1.459,6.079c-0.863,1.908-2.244,3.515-4.144,4.814c-1.408,0.963-2.867,1.553-4.379,1.76      c-1.513,0.207-3.051,0.15-4.616-0.172c-1.565-0.321-3.104-0.871-4.616-1.644c-1.512-0.773-2.94-1.668-4.284-2.687      c-1.347-1.017-2.569-2.106-3.671-3.262c-1.104-1.158-2.043-2.299-2.813-3.426c-1.085-1.582-2.1-3.382-3.042-5.399      c-0.943-2.017-1.723-4.118-2.342-6.305c-0.619-2.187-1.034-4.412-1.24-6.673c-0.204-2.265-0.112-4.447,0.281-6.552      c0.392-2.106,1.113-4.072,2.161-5.899c1.045-1.831,2.536-3.409,4.473-4.735c1.231-0.846,2.537-1.393,3.918-1.64      c1.382-0.248,2.73-0.24,4.047,0.022c1.315,0.26,2.567,0.786,3.753,1.575c1.187,0.789,2.192,1.782,3.012,2.978l0.326,0.476      c0.434,0.633,0.945,1.434,1.529,2.401c0.588,0.969,1.029,1.971,1.325,3.008c0.296,1.037,0.377,2.058,0.236,3.057      c-0.143,1.004-0.723,1.854-1.743,2.552c-1.234,0.844-2.357,1.201-3.376,1.073s-1.974-0.843-2.868-2.147      c-0.338-0.493-0.658-0.995-0.961-1.515c-0.302-0.514-0.623-1.019-0.96-1.512c-0.506-0.739-1.021-1.225-1.543-1.463      c-0.523-0.235-1.173-0.086-1.946,0.444c-0.879,0.604-1.479,1.427-1.796,2.471c-0.318,1.048-0.427,2.206-0.328,3.482      c0.101,1.28,0.352,2.63,0.762,4.055c0.408,1.426,0.895,2.814,1.455,4.159c0.562,1.351,1.164,2.604,1.805,3.768      c0.64,1.161,1.228,2.132,1.759,2.902c0.432,0.634,0.968,1.34,1.605,2.12c0.638,0.78,1.328,1.468,2.077,2.069      c0.746,0.597,1.528,1.005,2.35,1.22c0.817,0.212,1.595,0.068,2.334-0.438c1.27-0.869,2.016-1.962,2.247-3.287      c0.232-1.321,0.068-2.694-0.495-4.116c-0.541,0.267-1.104,0.483-1.686,0.65c-0.582,0.167-1.18,0.242-1.79,0.218      c-0.612-0.022-1.188-0.168-1.735-0.44c-0.549-0.27-1.027-0.703-1.437-1.302c-0.746-1.09-0.963-2.198-0.646-3.32      c0.318-1.119,0.87-2.184,1.656-3.187c0.785-1.006,1.676-1.911,2.67-2.724c0.995-0.81,1.81-1.432,2.443-1.867      c0.458-0.313,1.149-0.736,2.077-1.269c0.928-0.531,1.901-0.979,2.921-1.341c1.017-0.361,1.987-0.547,2.911-0.559      s1.613,0.316,2.072,0.982c0.916,1.339,1.344,2.737,1.286,4.2C110.763,85.456,110.09,86.756,108.803,87.898z"/>
				<path style="fill:#2E1144;" d="M126.764,47.169c0.357,0.726,0.512,1.458,0.469,2.191c-0.045,0.734-0.234,1.434-0.575,2.097      c-0.34,0.668-0.768,1.292-1.288,1.879c-0.521,0.59-1.058,1.09-1.614,1.505c2.043,4.365,3.927,8.618,5.649,12.763      c1.719,4.144,3.364,8.492,4.932,13.043l0.343-0.168c0.613-0.3,1.249-0.528,1.91-0.688c0.66-0.154,1.306-0.187,1.946-0.099      c0.638,0.093,1.219,0.306,1.739,0.643c0.523,0.34,0.953,0.853,1.291,1.542c0.431,0.881,0.528,1.783,0.292,2.705      c-0.234,0.925-0.691,1.837-1.366,2.738c-0.676,0.898-1.492,1.776-2.453,2.626c-0.961,0.85-1.955,1.633-2.981,2.35      c-1.026,0.717-2.02,1.358-2.975,1.924c-0.96,0.563-1.745,0.997-2.358,1.297c-0.459,0.224-1.034,0.483-1.724,0.772      c-0.689,0.291-1.376,0.485-2.063,0.584c-0.689,0.1-1.336,0.061-1.944-0.114c-0.609-0.175-1.072-0.589-1.391-1.243      c-0.396-0.804-0.584-1.6-0.568-2.393c0.016-0.791,0.169-1.568,0.461-2.329c0.294-0.756,0.699-1.455,1.22-2.092      c0.519-0.632,1.087-1.198,1.7-1.689c-0.765-2.237-1.542-4.455-2.335-6.656c-0.794-2.201-1.679-4.391-2.652-6.575      c-0.993-2.219-1.974-4.411-2.937-6.574c-0.965-2.162-1.936-4.336-2.908-6.52c-0.25,0.171-0.484,0.321-0.705,0.453      c-0.221,0.132-0.426,0.247-0.619,0.338c-0.537,0.265-1.139,0.49-1.807,0.674c-0.67,0.185-1.343,0.265-2.019,0.242      c-0.677-0.025-1.301-0.16-1.871-0.402c-0.569-0.242-1.016-0.689-1.333-1.34c-0.637-1.302-0.618-2.642,0.058-4.022      c0.68-1.376,1.663-2.667,2.952-3.865c1.285-1.202,2.671-2.272,4.159-3.214c1.484-0.943,2.706-1.648,3.665-2.12      c0.536-0.259,1.263-0.57,2.182-0.925c0.918-0.355,1.875-0.608,2.867-0.762c0.994-0.158,1.918-0.159,2.776-0.007      C125.743,45.886,126.369,46.365,126.764,47.169z"/>
				<path style="fill:#2E1144;" d="M170.735,42.311c0.894,2.805,1.046,5.53,0.459,8.181c-0.588,2.652-1.686,5.172-3.296,7.563      c0.959,0.768,1.992,1.691,3.097,2.77c1.105,1.085,2.164,2.258,3.171,3.525c1.009,1.266,1.915,2.567,2.72,3.898      c0.806,1.334,1.402,2.611,1.792,3.826c0.414,1.305,0.471,2.573,0.171,3.807c-0.3,1.238-1.202,2.097-2.705,2.574      c-1.261,0.404-2.541,0.14-3.843-0.785c-1.303-0.93-2.579-2.124-3.827-3.585c-1.25-1.46-2.445-2.969-3.592-4.527      c-1.145-1.559-2.152-2.783-3.016-3.671c-0.654,0.475-1.281,0.977-1.871,1.502c-0.597,0.523-1.211,1.047-1.852,1.564      c0.241,0.906,0.566,2.16,0.962,3.755c0.397,1.597,0.669,3.224,0.816,4.879c0.146,1.653,0.054,3.16-0.272,4.518      c-0.329,1.357-1.104,2.23-2.322,2.617c-1.34,0.428-2.551,0.209-3.633-0.654c-1.082-0.862-2.013-1.999-2.797-3.405      c-0.784-1.406-1.446-2.886-1.986-4.439c-0.539-1.551-0.952-2.775-1.235-3.667c-0.609-1.908-1.167-3.802-1.674-5.678      c-0.511-1.873-1.068-3.765-1.676-5.676c-0.558-1.747-1.145-3.484-1.763-5.213c-0.618-1.729-1.211-3.483-1.78-5.273      c-0.13-0.406-0.296-0.927-0.497-1.556c-0.2-0.627-0.376-1.29-0.53-1.979c-0.154-0.692-0.287-1.355-0.398-1.988      c-0.113-0.632-0.128-1.17-0.04-1.599c0.133-0.984,0.798-2.091,1.996-3.322c1.195-1.233,2.565-2.416,4.104-3.559      c1.539-1.137,3.076-2.143,4.613-3.015c1.534-0.868,2.708-1.434,3.521-1.692c2.073-0.662,4.024-0.856,5.856-0.592      c1.83,0.27,3.484,0.895,4.963,1.877c1.477,0.985,2.756,2.256,3.834,3.816C169.282,38.667,170.125,40.4,170.735,42.311z       M159.731,46.759c-0.335-1.056-0.837-1.781-1.498-2.174c-0.663-0.392-1.543-0.417-2.64-0.066      c-0.813,0.258-1.591,0.666-2.334,1.215c-0.742,0.548-1.4,1.118-1.973,1.701c1.185,3.161,2.261,6.33,3.232,9.513      c0.766-0.555,1.521-1.2,2.273-1.933c0.751-0.73,1.398-1.54,1.941-2.432c0.546-0.887,0.933-1.821,1.162-2.786      C160.124,48.828,160.068,47.814,159.731,46.759z"/>
				<path style="fill:#2E1144;" d="M216.731,59.916c0.152,1.058-0.137,2.11-0.87,3.164c-0.73,1.055-1.73,2.059-2.992,3.016      c-1.263,0.958-2.698,1.843-4.304,2.657c-1.607,0.811-3.203,1.537-4.794,2.175c-1.587,0.638-3.094,1.17-4.519,1.591      c-1.429,0.418-2.563,0.69-3.408,0.812c-0.802,0.116-1.666,0.164-2.594,0.147c-0.93-0.016-1.725-0.236-2.39-0.657      c-0.376-0.206-0.752-0.733-1.134-1.582c-0.381-0.85-0.775-1.869-1.182-3.061c-0.409-1.191-0.801-2.481-1.173-3.872      c-0.372-1.387-0.71-2.753-1.009-4.089c-0.301-1.335-0.563-2.57-0.79-3.698c-0.228-1.131-0.388-2.014-0.48-2.646      c-0.152-1.055-0.303-2.337-0.457-3.847c-0.151-1.505-0.288-3.122-0.408-4.852c-0.12-1.727-0.202-3.495-0.246-5.295      c-0.044-1.805-0.045-3.518,0.004-5.141c0.045-1.624,0.178-3.097,0.397-4.419c0.219-1.328,0.508-2.38,0.871-3.164      c0.636-1.254,1.568-1.973,2.793-2.146c0.843-0.124,1.603,0.058,2.275,0.544c0.673,0.486,1.255,1.153,1.743,2.009      c0.49,0.858,0.911,1.831,1.263,2.923c0.35,1.089,0.646,2.178,0.89,3.266c0.241,1.086,0.43,2.09,0.566,3.021      c0.132,0.93,0.238,1.668,0.318,2.216c0.473,3.293,0.87,6.563,1.188,9.814c0.317,3.254,0.713,6.522,1.187,9.817l0.356,2.468      c1.812-0.865,3.802-1.72,5.963-2.57c2.162-0.851,4.255-1.422,6.282-1.714c0.718-0.1,1.452-0.163,2.204-0.189      c0.749-0.019,1.429,0.066,2.04,0.257c0.609,0.195,1.131,0.526,1.567,1.004C216.321,58.351,216.603,59.03,216.731,59.916z"/>
				<g>
					<path style="fill:#2E1144;" d="M261.148,22.196c-0.068,1.064-0.545,2.008-1.427,2.83c-0.887,0.818-1.935,1.522-3.146,2.108       c-1.214,0.587-2.451,1.051-3.71,1.401c-1.264,0.347-2.304,0.581-3.121,0.7c-0.548,3.259-1.019,6.507-1.417,9.748       c-0.397,3.247-0.699,6.507-0.904,9.785c-0.113,1.744-0.178,3.472-0.199,5.181c-0.024,1.705-0.089,3.412-0.196,5.115       c-0.048,0.767-0.175,1.603-0.382,2.508s-0.516,1.753-0.929,2.536c-0.414,0.787-0.955,1.435-1.63,1.95       c-0.671,0.513-1.478,0.74-2.413,0.682c-1.109-0.068-1.974-0.435-2.592-1.096c-0.622-0.656-1.085-1.443-1.388-2.36       c-0.307-0.918-0.493-1.878-0.557-2.888c-0.066-1.008-0.071-1.916-0.02-2.726c0.075-2.562,0.173-5.128,0.294-7.707       c0.12-2.576,0.26-5.164,0.425-7.762c0.137-2.17,0.281-4.297,0.434-6.379c0.152-2.088,0.297-4.215,0.434-6.385       c-0.6,0.048-1.212,0.073-1.831,0.078c-0.621,0.004-1.249-0.015-1.887-0.057c-0.512-0.032-1.178-0.126-2.001-0.284       c-0.824-0.158-1.612-0.403-2.359-0.728c-0.748-0.322-1.385-0.747-1.906-1.272c-0.522-0.524-0.76-1.172-0.713-1.936       c0.081-1.278,0.653-2.361,1.713-3.261c1.062-0.892,2.389-1.643,3.987-2.246c1.6-0.604,3.359-1.092,5.286-1.461       c1.923-0.373,3.822-0.637,5.692-0.797c1.869-0.159,3.583-0.253,5.144-0.284c1.562-0.028,2.768-0.018,3.619,0.038       c0.81,0.051,1.671,0.137,2.58,0.257c0.91,0.12,1.763,0.358,2.552,0.706c0.788,0.349,1.431,0.839,1.926,1.467       C261.002,20.287,261.213,21.133,261.148,22.196z"/>
					<path style="fill:#2E1144;" d="M290.048,28.055c-0.153,0.798-0.469,1.476-0.946,2.034c-0.478,0.562-1.051,1.003-1.723,1.328       c-0.672,0.33-1.392,0.571-2.158,0.728c-0.77,0.156-1.5,0.229-2.196,0.228c-0.996,4.714-2.051,9.247-3.173,13.59       c-1.122,4.344-2.426,8.806-3.918,13.385l0.379,0.073c0.668,0.128,1.314,0.328,1.936,0.601c0.62,0.271,1.158,0.635,1.614,1.094       c0.454,0.454,0.787,0.977,1.001,1.559c0.213,0.585,0.247,1.253,0.1,2.008c-0.184,0.963-0.65,1.741-1.394,2.336       c-0.746,0.596-1.657,1.049-2.738,1.362c-1.083,0.314-2.263,0.519-3.543,0.619c-1.277,0.101-2.543,0.128-3.794,0.085       c-1.251-0.049-2.428-0.135-3.533-0.261c-1.105-0.124-1.992-0.251-2.664-0.38c-0.503-0.099-1.115-0.239-1.839-0.421       c-0.726-0.184-1.393-0.44-2-0.777c-0.61-0.336-1.106-0.756-1.484-1.263c-0.38-0.508-0.501-1.116-0.364-1.828       c0.17-0.881,0.499-1.631,0.988-2.255c0.49-0.621,1.08-1.146,1.772-1.58c0.688-0.431,1.432-0.743,2.232-0.938       c0.797-0.196,1.589-0.303,2.377-0.322c0.736-2.247,1.449-4.49,2.143-6.724c0.692-2.233,1.303-4.515,1.84-6.846       c0.545-2.37,1.082-4.707,1.613-7.017c0.533-2.311,1.067-4.625,1.603-6.958c-0.301-0.011-0.58-0.035-0.836-0.062       c-0.255-0.026-0.488-0.06-0.695-0.101c-0.587-0.113-1.204-0.297-1.848-0.551c-0.648-0.258-1.232-0.597-1.758-1.024       c-0.527-0.427-0.943-0.909-1.251-1.446c-0.309-0.537-0.396-1.162-0.259-1.876c0.276-1.421,1.097-2.479,2.47-3.169       c1.369-0.693,2.932-1.131,4.682-1.314c1.753-0.184,3.503-0.205,5.257-0.063c1.752,0.143,3.153,0.316,4.203,0.519       c0.584,0.112,1.351,0.302,2.299,0.574c0.945,0.268,1.862,0.64,2.748,1.113c0.888,0.477,1.626,1.032,2.221,1.667       C290.004,26.418,290.218,27.177,290.048,28.055z"/>
					<path style="fill:#2E1144;" d="M330.612,80.665c-0.52,0.992-1.083,1.938-1.685,2.847c-0.603,0.91-1.216,1.69-1.833,2.343       c-0.621,0.652-1.266,1.112-1.94,1.376c-0.674,0.264-1.332,0.274-1.965,0.026c-0.637-0.243-1.024-0.956-1.162-2.13       c-0.14-1.175-0.129-2.658,0.04-4.445c0.167-1.786,0.454-3.768,0.862-5.943c0.407-2.174,0.868-4.364,1.379-6.565       c0.51-2.206,1.05-4.341,1.623-6.406c0.572-2.065,1.084-3.857,1.533-5.374c-0.822,1.421-1.758,3.001-2.798,4.747       c-1.042,1.747-2.157,3.5-3.341,5.257c-1.185,1.76-2.395,3.465-3.627,5.114c-1.236,1.648-2.431,3.084-3.589,4.302       c-1.159,1.221-2.247,2.14-3.262,2.751c-1.014,0.614-1.901,0.773-2.657,0.479c-0.676-0.263-1.174-0.98-1.496-2.155       c-0.321-1.178-0.512-2.637-0.568-4.372c-0.06-1.74-0.012-3.629,0.141-5.676c0.15-2.045,0.347-4.084,0.585-6.121       c0.239-2.034,0.501-3.945,0.782-5.735c0.282-1.787,0.541-3.276,0.773-4.469c-0.326,0.834-0.692,1.756-1.107,2.762       c-0.412,1.007-0.703,1.73-0.871,2.168c-0.079,0.198-0.343,0.85-0.793,1.955c-0.453,1.107-1.036,2.412-1.759,3.915       c-0.719,1.507-1.542,3.096-2.466,4.775c-0.926,1.677-1.909,3.181-2.951,4.515c-1.044,1.335-2.105,2.388-3.18,3.161       c-1.076,0.77-2.129,1.003-3.154,0.698c-0.657-0.665-1.086-1.531-1.292-2.595c-0.205-1.062-0.264-2.236-0.175-3.53       c0.088-1.294,0.287-2.633,0.597-4.024c0.309-1.387,0.649-2.733,1.015-4.032c0.366-1.299,0.746-2.488,1.143-3.569       c0.395-1.083,0.725-1.961,0.986-2.637c0.464-1.196,1.113-2.668,1.954-4.421c0.841-1.759,1.805-3.57,2.896-5.433       c1.087-1.864,2.275-3.691,3.564-5.481c1.286-1.789,2.602-3.327,3.948-4.61c1.344-1.285,2.695-2.236,4.055-2.853       c1.361-0.615,2.677-0.679,3.949-0.185c0.596,0.229,1.102,0.815,1.517,1.754c0.411,0.938,0.746,2.085,0.999,3.44       c0.251,1.354,0.433,2.835,0.546,4.432c0.111,1.598,0.192,3.196,0.236,4.792c0.044,1.595,0.043,3.102-0.003,4.528       c-0.049,1.419-0.106,2.624-0.164,3.606c0.688-0.832,1.517-1.791,2.488-2.878c0.971-1.087,2.008-2.204,3.116-3.355       c1.109-1.146,2.269-2.253,3.48-3.318c1.212-1.063,2.402-1.972,3.567-2.734c1.163-0.761,2.259-1.321,3.29-1.674       c1.029-0.355,1.943-0.381,2.738-0.072c1.391,0.538,2.384,1.518,2.978,2.938c0.593,1.418,0.909,3.085,0.945,4.997       c0.038,1.914-0.144,3.969-0.539,6.174c-0.397,2.201-0.874,4.35-1.433,6.442c-0.56,2.093-1.147,4.025-1.768,5.797       c-0.618,1.776-1.137,3.197-1.551,4.273c-0.17,0.436-0.401,1.033-0.695,1.787c-0.292,0.756-0.634,1.605-1.023,2.555       c-0.391,0.945-0.832,1.939-1.327,2.982C331.662,78.604,331.148,79.64,330.612,80.665z"/>
					<path style="fill:#2E1144;" d="M365.156,98.551c-0.432,0.686-1.036,1.236-1.805,1.657c-0.749,0.386-2.052,0.57-3.911,0.555       c-1.859-0.015-3.832-0.168-5.92-0.455c-2.088-0.288-4.056-0.649-5.902-1.084c-1.843-0.436-3.127-0.882-3.848-1.337       c-0.504-0.32-1.026-0.814-1.56-1.479c-0.539-0.671-1.035-1.401-1.491-2.195c-0.457-0.794-0.816-1.6-1.078-2.423       c-0.263-0.819-0.382-1.529-0.359-2.119c0.014-0.344,0.197-0.935,0.552-1.771c0.35-0.839,0.8-1.788,1.35-2.856       c0.549-1.065,1.146-2.189,1.793-3.369c0.646-1.182,1.267-2.302,1.863-3.364c0.595-1.059,1.135-1.992,1.62-2.799       c0.482-0.802,0.84-1.384,1.068-1.743c0.844-1.336,1.858-2.84,3.043-4.512c1.186-1.673,2.457-3.302,3.816-4.891       c1.358-1.588,2.787-3.031,4.291-4.325c1.499-1.297,3.018-2.241,4.556-2.833c0.456-0.166,1.177-0.188,2.163-0.071       c0.984,0.119,2.092,0.341,3.324,0.667c1.234,0.324,2.535,0.722,3.906,1.183c1.372,0.469,2.671,0.948,3.896,1.445       c1.224,0.498,2.326,0.968,3.309,1.415c0.979,0.44,1.704,0.813,2.175,1.11c0.539,0.341,0.979,0.785,1.318,1.325       c0.337,0.541,0.552,1.12,0.643,1.734c0.092,0.61,0.082,1.223-0.027,1.837c-0.11,0.611-0.336,1.188-0.676,1.729       c-0.296,0.47-0.611,0.826-0.943,1.068c-0.33,0.244-0.749,0.486-1.251,0.723c-0.658,0.24-1.768,0.32-3.33,0.239       c-1.566-0.082-3.222-0.233-4.972-0.46c-1.751-0.224-3.409-0.477-4.971-0.76c-1.563-0.281-2.665-0.474-3.307-0.579       c-0.669,0.741-1.351,1.478-2.048,2.227c-0.699,0.744-1.359,1.524-1.978,2.343c1.482,0.132,3.087,0.389,4.811,0.776       c1.724,0.383,3.217,0.975,4.48,1.774c2.559,1.619,3.04,3.69,1.442,6.213c-0.387,0.613-0.846,1.078-1.376,1.398       c-0.533,0.322-1.099,0.542-1.707,0.662c-0.608,0.12-1.237,0.164-1.896,0.124c-0.658-0.037-1.302-0.076-1.929-0.122       c-1.542-0.116-3.085-0.349-4.632-0.698c-1.547-0.346-3.086-0.702-4.622-1.069c-0.256,0.24-0.526,0.512-0.815,0.81       c-0.288,0.297-0.534,0.608-0.74,0.929c-0.321,0.507-0.603,1.034-0.849,1.584c-0.25,0.549-0.496,1.102-0.744,1.65       c0.524,0.128,1.366,0.334,2.527,0.615c1.159,0.278,2.364,0.587,3.616,0.924c1.251,0.338,2.436,0.699,3.559,1.081       c1.121,0.382,1.916,0.719,2.385,1.017c0.542,0.342,0.97,0.778,1.292,1.311c0.317,0.529,0.521,1.084,0.606,1.669       c0.085,0.582,0.067,1.191-0.054,1.819C365.697,97.479,365.477,98.046,365.156,98.551z"/>
					<path style="fill:#2E1144;" d="M375.838,117.06c-0.462,0.558-0.993,0.938-1.594,1.131c-0.605,0.195-1.233,0.253-1.89,0.183       c-0.659-0.075-1.29-0.248-1.891-0.521c-0.602-0.275-1.151-0.616-1.646-1.023c-0.725-0.597-1.259-1.356-1.606-2.275       c-0.348-0.924-0.181-1.794,0.497-2.617c0.406-0.494,0.919-0.831,1.537-1.013c0.618-0.179,1.265-0.244,1.936-0.188       s1.331,0.213,1.977,0.469c0.647,0.256,1.198,0.571,1.66,0.95c0.758,0.623,1.292,1.384,1.607,2.28       C376.739,115.329,376.543,116.201,375.838,117.06z M392.229,99.062c-0.434,0.531-1.055,1.218-1.866,2.069       c-0.814,0.851-1.711,1.742-2.697,2.67c-0.987,0.925-2.043,1.826-3.17,2.693c-1.129,0.865-2.217,1.601-3.265,2.202       c-1.048,0.604-2.024,0.984-2.933,1.149c-0.908,0.162-1.658,0.001-2.252-0.489c-0.725-0.594-1.051-1.46-0.978-2.586       c0.072-1.128,0.39-2.385,0.952-3.773c0.563-1.388,1.3-2.837,2.215-4.352c0.914-1.514,1.857-2.96,2.828-4.342       c0.973-1.38,1.905-2.631,2.796-3.746c0.891-1.118,1.581-1.972,2.07-2.563c0.488-0.594,1.104-1.343,1.851-2.25       c0.746-0.903,1.58-1.832,2.504-2.784c0.921-0.955,1.885-1.857,2.895-2.713c1.006-0.854,2.031-1.545,3.07-2.07       c1.04-0.526,2.066-0.799,3.081-0.821c1.012-0.023,1.963,0.332,2.853,1.065c0.789,0.652,1.161,1.524,1.116,2.619       c-0.046,1.096-0.352,2.305-0.92,3.633c-0.569,1.326-1.32,2.71-2.256,4.148c-0.936,1.442-1.904,2.813-2.898,4.123       c-0.994,1.307-1.948,2.499-2.858,3.57C393.457,97.589,392.746,98.439,392.229,99.062z"/>
				</g>
			</g>
		</g>
		<g>
			<path style="fill:#FF93E2;" d="M370.106,197.374l37.006-35.849l-18.071-23.958l-19.24,16.451l-18.968-17.669l-18.384,25.176     l37.419,35.732c0.008,0.201,0.013,0.335,0.013,0.335l0.168-0.162l0.054,0.051C370.103,197.48,370.104,197.433,370.106,197.374z"/>
			<path style="fill:#FF93E2;" d="M105.16,372.666l37.006-35.849l-18.071-23.958l-19.24,16.451L85.887,311.64l-18.384,25.176     l37.419,35.732c0.008,0.201,0.013,0.335,0.013,0.335l0.168-0.162l0.054,0.052C105.157,372.772,105.159,372.725,105.16,372.666z"/>
		</g>
	</g>
</g>















</svg>
