<?xml version="1.0" encoding="UTF-8"?>
<!-- Generator: Adobe Illustrator 27.3.1, SVG Export Plug-In . SVG Version: 6.00 Build 0)  -->
<svg xmlns="http://www.w3.org/2000/svg" xmlns:xlink="http://www.w3.org/1999/xlink" version="1.1" id="Capa_1" x="0px" y="0px" viewBox="0 0 512 512" style="enable-background:new 0 0 512 512;" xml:space="preserve" width="512" height="512">
<g>
	<path style="fill:#FFFFFF;" d="M311.098,471.016c-3.439,0-6.887-0.116-10.252-0.342c-20.949-1.417-40.098-7.179-56.912-17.126   c-2.263-1.33-4.317-2.621-6.236-3.927c-3.117-2.12-6.277-4.481-9.665-7.218c-4.035-3.264-7.872-6.642-11.582-9.906   c-7.66-6.743-14.907-13.122-22.984-17.779l-86.125,5.266c-0.307,0.017-0.613,0.027-0.918,0.027   c-7.761,0-14.279-6.044-14.759-13.898l-1.046-17.085c-37.011-13.823-66.147-42.913-80.485-80.668   c-13.909-36.584-13.491-80.119,1.18-122.579c12.265-35.572,33.981-67.802,61.291-91.035l-0.994-16.187   c-0.241-3.918,1.085-7.772,3.686-10.713c2.602-2.94,6.264-4.728,10.183-4.968l45.497-2.787   c18.099-7.25,37.578-12.516,57.942-15.663c14.78-2.285,29.855-3.444,44.804-3.444c37.855,0,76.008,7.537,110.333,21.794   c11.128,4.615,21.992,9.984,32.3,15.964l63.979,10.889c3.87,0.659,7.32,2.828,9.59,6.03c2.271,3.203,3.176,7.175,2.518,11.046   l-5.223,30.686c5.958,6.69,11.603,13.601,16.84,20.612c20.49,27.367,34.662,55.801,42.111,84.496   c9.317,35.874,7.455,70.162-5.531,101.916c-0.064,0.176-0.132,0.347-0.202,0.518c-1.724,4.16-3.463,7.926-5.318,11.506   c-15.846,31.048-43.004,59.825-76.432,80.945C384.388,459.072,346.174,471.016,311.098,471.016   C311.096,471.016,311.099,471.016,311.098,471.016z"/>
	<g>
		<g>
			<g>
				<path style="fill:#9DD1A9;" d="M487.725,339.898c0,0,0,0,0,0.025c-1.431,3.454-3.01,6.932-4.786,10.361      c-15.171,29.726-40.975,56.146-71.195,75.24c-16.696,10.556-59.973-32.596-78.324-27.189      c-18.66,5.498-12.406,59.454-30.614,58.223c-17.885-1.209-35.03-6.019-50.374-15.097c-1.85-1.086-3.676-2.22-5.452-3.429      c-3.01-2.048-5.871-4.218-8.683-6.488c-12.409-10.04-23.411-21.733-37.546-29.603c-14.925-8.264-32.292-11.693-50.029-14.53      c-5.97-0.962-12.038-1.85-18.033-2.837c-10.386-1.702-20.673-3.7-30.442-6.858c-36.387-11.668-64.263-39.594-77.312-73.958      c-13.074-34.388-11.718-74.722,1.332-112.49c11.126-32.267,31.034-63.251,58.737-86.144      c30.565-25.261,69.147-39.544,107.137-45.416c51.385-7.943,102.598-1.135,147.2,17.392c10.83,4.49,21.265,9.67,31.231,15.492      c3.33,1.924,6.587,3.947,9.794,6.02c25.36,16.429,51.558,40.457,72.798,68.9c17.934,23.954,32.292,51.04,39.643,79.36      C500.701,277.264,500.454,309.062,487.725,339.898z"/>
			</g>
			<g>
				<g>
					<g>
						<g>
							<g>
								<g>
									<g>
										
											<rect x="229.901" y="87.223" transform="matrix(0.9858 0.1678 -0.1678 0.9858 46.2882 -50.4132)" style="fill:#977BFF;" width="183.117" height="322.952"/>
									</g>
								</g>
							</g>
							<g>
								<g>
									<g>
										<path style="fill:#302945;" d="M364.49,367.014c-0.053,0-0.107-0.005-0.161-0.014l-125.614-20.739            c-0.258-0.043-0.488-0.187-0.641-0.399c-0.151-0.214-0.211-0.481-0.166-0.738l38.39-219.409            c0.045-0.257,0.191-0.485,0.404-0.636c0.213-0.149,0.477-0.21,0.735-0.16l127.175,22.699            c0.257,0.045,0.485,0.192,0.634,0.406c0.149,0.214,0.206,0.48,0.159,0.738l-39.951,217.449            C365.367,366.682,364.956,367.014,364.49,367.014z M240.013,344.486l123.685,20.421l39.599-215.53l-125.235-22.354            L240.013,344.486z"/>
									</g>
								</g>
								<g>
									<g>
										<path style="fill:#302945;" d="M304.539,356.609c-0.052,0-0.106-0.004-0.159-0.013c-0.421-0.068-0.749-0.401-0.812-0.823            L282.402,214.09c-0.042-0.282,0.042-0.571,0.229-0.787l57.752-66.803c0.233-0.268,0.591-0.388,0.944-0.318            c0.349,0.075,0.63,0.329,0.735,0.672l26.431,85.578c0.077,0.243,0.053,0.507-0.064,0.737l-63.016,122.908            C305.243,356.406,304.904,356.609,304.539,356.609z M284.41,214.246l20.649,138.218l61.44-119.836l-25.79-83.505            L284.41,214.246z"/>
									</g>
								</g>
								<g>
									<g>
										<path style="fill:#302945;" d="M305.025,356.736c-0.055,0-0.112-0.004-0.167-0.014c-0.535-0.092-0.893-0.6-0.802-1.134            l37.399-217.593c0.093-0.535,0.615-0.886,1.133-0.801c0.535,0.092,0.893,0.6,0.802,1.135l-37.399,217.593            C305.91,356.4,305.495,356.736,305.025,356.736z"/>
									</g>
								</g>
							</g>
							<g>
								<g>
									<path style="fill:#302945;" d="M223.764,381.347l0.204-1.204c0.49-2.882-1.426-5.647-4.334-6.111l-1.205-0.207           l47.802-280.85l1.207,0.205c1.394,0.238,2.798-0.082,3.952-0.899c1.156-0.819,1.922-2.039,2.159-3.434l0.204-1.207           l1.205,0.207l144.254,24.552l-0.204,1.204c-0.237,1.397,0.083,2.8,0.901,3.955c0.818,1.155,2.047,1.904,3.432,2.159           l1.205,0.204l-0.204,1.204l-47.6,279.646l-1.203-0.207c-2.88-0.487-5.621,1.457-6.112,4.335l-0.206,1.207l-1.203-0.207           L223.764,381.347z M221.234,371.923c3.157,1.069,5.29,4.075,5.255,7.408l140.828,23.973c1.069-3.157,4.078-5.29,7.41-5.258           l47.015-276.217c-1.539-0.518-2.871-1.505-3.828-2.856c-0.957-1.35-1.448-2.934-1.428-4.556L275.66,90.445           c-0.518,1.539-1.504,2.873-2.855,3.832c-1.35,0.956-2.933,1.446-4.557,1.426L221.234,371.923z"/>
								</g>
							</g>
							<g>
								<g>
									<g>
										<path style="fill:#302945;" d="M279.71,116.571l-8.407-11.852l11.856-8.405l8.404,11.854L279.71,116.571z             M273.576,105.105l6.519,9.196l9.194-6.518l-6.518-9.198L273.576,105.105z"/>
									</g>
								</g>
								<g>
									<g>
										<path style="fill:#302945;" d="M404.26,137.772l-8.406-11.852l11.853-8.406l8.408,11.852L404.26,137.772z             M398.128,126.306l6.518,9.195l9.196-6.52l-6.519-9.196L398.128,126.306z"/>
									</g>
								</g>
							</g>
							<g>
								<g>
									<g>
										<path style="fill:#302945;" d="M236.1,372.79l-8.407-11.855l11.855-8.402l8.405,11.851L236.1,372.79z M229.967,361.321            l6.518,9.199l9.195-6.521l-6.519-9.196L229.967,361.321z"/>
									</g>
								</g>
								<g>
									<g>
										<path style="fill:#302945;" d="M360.651,393.988l-8.406-11.852l11.853-8.405l8.406,11.851L360.651,393.988z             M354.518,382.522l6.517,9.195l9.195-6.521l-6.517-9.195L354.518,382.522z"/>
									</g>
								</g>
							</g>
						</g>
					</g>
					<g>
						<g>
							<g>
								<g>
									<polygon style="fill:#F7EDE5;" points="276.081,115.743 293.142,394.503 107.401,405.862 90.049,122.288 96.425,112.096            101.891,121.871 193.279,197.414 264.218,116.164 269.186,103.491          "/>
								</g>
							</g>
							<g>
								<g>
									<g>
										<polygon style="fill:#302945;" points="264.218,116.164 268.94,211.854 264.408,216.619 269.394,220.939 269.399,220.96             276.129,357.671 114.061,367.584 103.354,151.631 110.207,146.202 102.9,142.26 101.891,121.871 188.872,104.064                       "/>
									</g>
								</g>
								<g>
									<g>
										<g>
											<path style="fill:#F7EDE5;" d="M258.462,284.659c-5.472,6.691-12.253,12.497-20.239,16.991             c-34.333,19.321-77.829,7.167-97.16-27.184c-19.321-34.333-7.138-77.82,27.195-97.141             c7.986-4.494,16.468-7.278,25.027-8.483c-18.074,22.062-21.782,53.803-6.955,80.15             C201.167,275.357,230.224,288.659,258.462,284.659z"/>
										</g>
									</g>
									<g>
										<g>
											<path style="fill:#F7EDE5;" d="M201.996,145.053l-98.641,6.578l-0.454-9.371c2.889-1.467,5.942-2.423,9.215-2.529             c7.041-0.262,13.503,3.394,20.006,6.096c0.852,0.35,1.766,0.686,2.685,0.669c1.174-0.055,2.259-0.682,3.26-1.29             C157.361,133.965,182.654,133.898,201.996,145.053z"/>
										</g>
										<g>
											<path style="fill:#F7EDE5;" d="M268.94,211.854l0.454,9.085l-62.807,4.2c6.326-6.141,13.611-12.506,22.439-12.834             c7.02-0.257,13.508,3.415,20.006,6.096c0.856,0.371,1.749,0.712,2.69,0.69c1.175-0.055,2.234-0.698,3.261-1.29             C259.374,215.234,264.057,213.259,268.94,211.854z"/>
										</g>
										<g>
											<path style="fill:#F7EDE5;" d="M129.376,343.131c6.332-6.151,13.628-12.512,22.45-12.833             c7.027-0.256,13.5,3.402,19.995,6.097c0.862,0.358,1.763,0.706,2.697,0.673c1.179-0.043,2.241-0.684,3.26-1.279             c19.278-11.253,44.588-11.315,63.921-0.157L129.376,343.131z"/>
										</g>
									</g>
								</g>
							</g>
							<g>
								<polygon style="fill:#DBB0FF;" points="273.085,66.925 276.081,115.743 264.218,116.164 101.891,121.871 90.049,122.288           87.349,78.305         "/>
							</g>
							<g>
								<path style="fill:#302945;" d="M182.942,116.928c-7.705,0-14.698-5.29-16.526-13.11c-2.132-9.111,3.547-18.258,12.66-20.39          c9.124-2.134,18.263,3.551,20.392,12.662c2.131,9.111-3.549,18.258-12.661,20.39          C185.512,116.783,184.216,116.928,182.942,116.928z M182.94,83.921c-1.204,0-2.427,0.137-3.65,0.422          c-8.608,2.014-13.972,10.655-11.959,19.261c2.014,8.61,10.659,13.968,19.261,11.961c8.606-2.014,13.971-10.655,11.96-19.263          C196.824,88.918,190.219,83.921,182.94,83.921z"/>
							</g>
						</g>
						<g>
							<path style="fill:#302945;" d="M109.566,398.253l-0.03-0.54L91.894,82.948l0.535-0.031l175.262-9.762l0.033,0.532         l18.569,313.375L109.566,398.253z M93.024,83.955l17.551,313.161l174.585-11.055L266.686,74.282L93.024,83.955z"/>
						</g>
						<g>
							<g>
								<path style="fill:#302945;" d="M167.986,388.909l-1.282-16.596l-3.354,0.258l-0.082-1.058l7.868-0.607l0.082,1.058          l-3.355,0.258l1.282,16.596L167.986,388.909z"/>
							</g>
							<g>
								<path style="fill:#302945;" d="M174.387,388.415l-1.363-17.654l1.16-0.091l0.612,7.918l5.422-0.417l-0.612-7.919l1.16-0.092          l1.363,17.654l-1.16,0.091l-0.67-8.678l-5.422,0.417l0.67,8.678L174.387,388.415z"/>
							</g>
							<g>
								<path style="fill:#302945;" d="M184.847,387.606l-1.363-17.654l6.911-0.532l0.082,1.057l-5.751,0.443l0.53,6.861          l4.766-0.368l0.082,1.057l-4.766,0.369l0.588,7.617l5.75-0.443l0.082,1.06L184.847,387.606z"/>
							</g>
							<g>
								<path style="fill:#302945;" d="M197.901,386.599l-1.363-17.654l1.816-0.14l4.52,15.153l2.139-15.669l1.815-0.14          l1.364,17.654l-1.16,0.089l-1.241-16.064l-2.265,16.336l-1.035,0.079l-4.746-15.794l1.241,16.064L197.901,386.599z"/>
							</g>
							<g>
								<path style="fill:#302945;" d="M209.653,371.966c-0.212-2.751,1.058-4.37,3.555-4.563c2.497-0.193,4.002,1.214,4.215,3.966          l0.743,9.632c0.212,2.749-1.059,4.368-3.556,4.56c-2.497,0.193-4-1.212-4.212-3.963L209.653,371.966z M216.255,371.381          c-0.163-2.096-1.149-3.057-2.966-2.918c-1.815,0.14-2.644,1.241-2.481,3.337l0.755,9.786          c0.161,2.093,1.149,3.057,2.964,2.917c1.816-0.14,2.644-1.243,2.482-3.337L216.255,371.381z"/>
							</g>
							<g>
								<path style="fill:#302945;" d="M219.735,371.188c-0.212-2.751,1.058-4.37,3.555-4.563s4.002,1.212,4.215,3.963l0.743,9.632          c0.212,2.751-1.059,4.37-3.556,4.563c-2.497,0.193-4-1.214-4.212-3.963L219.735,371.188z M226.338,370.603          c-0.162-2.096-1.15-3.057-2.967-2.917c-1.815,0.14-2.644,1.241-2.481,3.337l0.755,9.786          c0.162,2.094,1.149,3.057,2.964,2.918c1.816-0.14,2.645-1.243,2.484-3.337L226.338,370.603z"/>
							</g>
							<g>
								<path style="fill:#302945;" d="M231.073,384.038l-1.363-17.654l1.614-0.125l6.329,14.276l-1.134-14.676l1.109-0.087          l1.364,17.654l-1.286,0.099l-6.742-15.363l1.219,15.789L231.073,384.038z"/>
							</g>
						</g>
					</g>
				</g>
				<g>
					<g>
						<path style="fill:#FF9191;" d="M411.744,425.524c-33.673,21.289-72.823,33.476-108.938,31.034        c-9.72-13.321-21.783-28.295-27.234-28.986c-9.917-1.258-35.375-11.175-40.951-24.817        c-3.355-8.215-21.018-50.596-34.586-83.184c-0.197-0.444-0.345-0.888-0.518-1.357c-2.196-6.587-1.11-14.357-3.306-19.562        c-3.33-7.968-8.773-12.717-10.648-15.775c-0.148-0.247-1.22-0.979-1.319-1.201c-0.543-1.283-0.516-1.18-0.516-1.18        s1.061-0.863,2.911-1.9c5.501-3.034,15.878-7.405,27.004,6.262l0.84,0.21c1.209,1.431,2.749,6.233,3.884,8.083        c0,0-17.716-44.503-5.258-55.012c4.736-3.996,8.93-5.625,12.236-6.143c0.543-0.074,1.061-0.099,1.554-0.148        c0.469-0.049,0.937-0.049,1.357-0.024c2.393,0.049,4.046,0.641,4.761,0.962c0.271,0.148,0.419,0.222,0.419,0.222        s-14.283-50.867,5.353-55.999c0.197-0.099,0.37-0.123,0.567-0.173l20.352,43.27c-0.518-1.85-14.357-50.473,4.268-60.414        c0.049-0.025,0.099-0.049,0.148-0.074l36.954,66.557c0,0,37.324,28.863,42.899,41.271c5.6,12.433,22.202,74.476,28.394,93.101        C376.591,373.202,398.25,405.863,411.744,425.524z"/>
					</g>
					<g style="opacity:0.26;">
						<path style="fill:#302945;" d="M411.744,425.524c-33.673,21.289-72.823,33.476-108.938,31.034        c-9.72-13.321-21.783-28.295-27.234-28.986c-9.917-1.258-35.375-11.175-40.951-24.817        c-3.355-8.215-21.018-50.596-34.586-83.184c-0.197-0.444-0.345-0.888-0.518-1.357c-2.196-6.587-1.11-14.357-3.306-19.562        c-3.33-7.968-8.773-12.717-10.648-15.775c-0.148-0.247-1.22-0.979-1.319-1.201c-0.543-1.283-0.516-1.18-0.516-1.18        s1.061-0.863,2.911-1.9c5.501-3.034,15.878-7.405,27.004,6.262l0.84,0.21c1.209,1.431,2.749,6.233,3.884,8.083        c0,0-17.716-44.503-5.258-55.012c4.736-3.996,8.93-5.625,12.236-6.143c0.543-0.074,1.061-0.099,1.554-0.148        c0.469-0.049,0.937-0.049,1.357-0.024c2.393,0.049,4.046,0.641,4.761,0.962c0.271,0.148,0.419,0.222,0.419,0.222        s-14.283-50.867,5.353-55.999c0.197-0.099,0.37-0.123,0.567-0.173l20.352,43.27c-0.518-1.85-14.357-50.473,4.268-60.414        c0.049-0.025,0.099-0.049,0.148-0.074l36.954,66.557c0,0,37.324,28.863,42.899,41.271c5.6,12.433,22.202,74.476,28.394,93.101        C376.591,373.202,398.25,405.863,411.744,425.524z"/>
					</g>
					<g>
						<path style="fill:#DBB0FF;" d="M263.815,160.701c0,0-5.841,3.344-3.322,17.792c2.52,14.448,14.109,22.692,23.129,18.048        L263.815,160.701z"/>
					</g>
					<g>
						<path style="fill:#DBB0FF;" d="M238.218,177.839c0,0-6.051,2.948-4.499,17.531c1.551,14.583,12.567,23.582,21.875,19.548        L238.218,177.839z"/>
					</g>
					<g>
						<g>
							<path style="fill:#302945;" d="M247.528,352.044c-0.334,0-0.655-0.183-0.815-0.501c-0.18-0.357-18.144-35.977-30.721-61.441         c-3.468-7.02-8.055-11.315-13.635-12.766c-8.977-2.339-17.657,3.541-17.745,3.599c-0.412,0.294-0.982,0.183-1.268-0.231         c-0.286-0.414-0.182-0.98,0.232-1.267c0.378-0.265,9.418-6.413,19.226-3.869c6.121,1.585,11.109,6.203,14.824,13.724         c12.574,25.459,30.535,61.075,30.716,61.432c0.226,0.448,0.046,0.997-0.404,1.224         C247.806,352.013,247.665,352.044,247.528,352.044z"/>
						</g>
						<g>
							<path style="fill:#302945;" d="M217.739,292.47c-0.38,0-0.734-0.238-0.863-0.617c-0.589-1.725-14.342-42.368-7.015-52.561         c7.373-10.26,21.676-8.304,22.284-8.21c0.497,0.072,0.842,0.535,0.77,1.031c-0.072,0.501-0.531,0.853-1.033,0.771         c-0.136-0.014-13.821-1.879-20.541,7.473c-6.783,9.434,7.12,50.494,7.261,50.909c0.163,0.477-0.092,0.995-0.568,1.156         C217.935,292.456,217.836,292.47,217.739,292.47z"/>
						</g>
						<g>
							<path style="fill:#302945;" d="M266.144,321.948c-0.352,0-0.688-0.205-0.836-0.549c-0.09-0.207-9.068-20.969-14.291-34.792         c-0.737-1.954-1.651-4.291-2.691-6.945c-6.561-16.767-17.54-44.828-21.559-70.808c-1.946-12.592-0.697-21.985,3.715-27.921         c3.512-4.727,7.742-5.367,7.92-5.394c0.389-0.046,0.783,0.157,0.953,0.518c0.382,0.819,38.212,81.979,44.317,91.747         c6.152,9.846,18.22,32.72,18.34,32.951c0.235,0.443,0.065,0.995-0.381,1.231c-0.448,0.229-0.999,0.063-1.231-0.383         c-0.122-0.229-12.157-23.043-18.275-32.831c-5.936-9.499-40.182-82.851-44.108-91.268c-1.191,0.361-3.833,1.47-6.117,4.575         c-2.801,3.806-5.652,11.491-3.332,26.495c3.987,25.782,14.922,53.727,21.454,70.422c1.043,2.664,1.96,5.006,2.699,6.965         c5.207,13.782,14.168,34.508,14.257,34.715c0.2,0.46-0.012,0.997-0.473,1.197         C266.389,321.924,266.266,321.948,266.144,321.948z"/>
						</g>
						<g>
							<path style="fill:#302945;" d="M333.788,285.643c-0.308,0-0.609-0.154-0.781-0.438c-0.124-0.205-12.527-20.689-21.434-37.273         c-8.892-16.56-48.004-87.093-48.398-87.804c-0.243-0.438-0.084-0.995,0.355-1.238c0.437-0.243,0.995-0.087,1.24,0.356         c0.394,0.708,39.512,71.251,48.41,87.823c8.883,16.543,21.261,36.986,21.385,37.191c0.261,0.431,0.124,0.99-0.307,1.253         C334.112,285.602,333.948,285.643,333.788,285.643z"/>
						</g>
					</g>
					<g>
						<path style="fill:#DBB0FF;" d="M184.225,281.617c0,0,11.803,4.919,16.458,15.779c4.654,10.86-0.816,21.815-0.816,21.815        L184.225,281.617z"/>
					</g>
				</g>
				<g>
					<g>
						<g>
							<polygon style="fill:#FFFFFF;" points="60.697,205.467 63.037,167.249 64.857,205.727 74.476,197.927 68.756,207.027          89.296,209.627 69.276,212.227 74.996,220.286 65.377,215.087 62.777,248.365 60.697,215.606 50.817,219.766 57.057,212.227          32.098,208.847 56.797,207.807 51.077,199.227        "/>
						</g>
					</g>
					<g>
						<g>
							<polygon style="fill:#FFFFFF;" points="317.403,118.512 319.743,80.293 321.563,118.772 331.182,110.972 325.462,120.072          346.002,122.671 325.982,125.271 331.702,133.331 322.083,128.131 319.483,161.41 317.403,128.651 307.523,132.811          313.763,125.271 288.804,121.891 313.503,120.851 307.783,112.272        "/>
						</g>
					</g>
					<g>
						<g>
							<polygon style="fill:#FFFFFF;" points="433.694,311.116 436.034,272.897 437.854,311.376 447.473,303.576 441.753,312.676          462.293,315.276 442.273,317.876 447.993,325.935 438.374,320.736 435.774,354.014 433.694,321.255 423.814,325.415          430.054,317.876 405.095,314.496 429.794,313.456 424.074,304.876        "/>
						</g>
					</g>
				</g>
			</g>
		</g>
		<g>
			<g>
				<path style="fill:#FFFFFF;" d="M446.878,206.777l-12.262,4.407c-0.364,0.131-0.65,0.417-0.781,0.781l-4.407,12.262      c-0.41,1.143-2.027,1.143-2.437,0l-4.406-12.262c-0.131-0.364-0.417-0.65-0.781-0.781l-12.262-4.407      c-1.143-0.411-1.143-2.027,0-2.437l12.262-4.407c0.364-0.131,0.65-0.417,0.781-0.781l4.406-12.262      c0.41-1.143,2.027-1.143,2.437,0l4.407,12.262c0.131,0.364,0.417,0.65,0.781,0.781l12.262,4.407      C448.02,204.751,448.02,206.367,446.878,206.777z"/>
			</g>
			<g>
				<path style="fill:#FFFFFF;" d="M113.694,318.977l-12.262,4.407c-0.364,0.13-0.65,0.417-0.781,0.78l-4.406,12.262      c-0.411,1.143-2.027,1.143-2.437,0L89.4,324.164c-0.131-0.364-0.417-0.65-0.781-0.78l-12.262-4.407      c-1.143-0.411-1.143-2.026,0-2.437l12.262-4.406c0.364-0.131,0.65-0.417,0.781-0.781l4.407-12.262      c0.41-1.143,2.026-1.143,2.437,0l4.406,12.262c0.131,0.364,0.417,0.65,0.781,0.781l12.262,4.406      C114.837,316.95,114.837,318.566,113.694,318.977z"/>
			</g>
		</g>
	</g>
</g>















</svg>
