<?xml version="1.0" encoding="UTF-8"?>
<!-- Generator: Adobe Illustrator 25.2.0, SVG Export Plug-In . SVG Version: 6.00 Build 0)  -->
<svg xmlns="http://www.w3.org/2000/svg" xmlns:xlink="http://www.w3.org/1999/xlink" version="1.1" id="Capa_1" x="0px" y="0px" viewBox="0 0 500 500" style="enable-background:new 0 0 500 500;" xml:space="preserve" width="512" height="512">
<g>
	<path d="M397.253,296.557c-1.077-5.045-2.372-9.811-3.053-14.663c-0.682-4.854-0.75-9.795-1.095-14.822   c-0.306,0.495-0.675,1.026-0.979,1.592c-6.482,12.083-15.364,21.99-26.813,29.566c-5.223,3.456-10.772,6.063-17.078,6.909   c-15.695,2.106-27.759-6.346-30.939-21.871c-0.621-3.031-0.872-6.139-1.325-9.437c-0.324,0.5-0.585,0.841-0.783,1.216   c-5.381,10.189-12.424,19.165-20.572,27.217c-5.538,5.473-12.118,9.224-20.185,9.888c-7.281,0.599-13.12-2.617-16.068-9.313   c-3.701-8.405-3.833-17.083-1.79-25.89c3.679-15.859,9.456-31.01,15.754-45.967c4.027-9.563,8.114-19.09,10.282-29.292   c0.394-1.855,0.647-3.786,0.615-5.676c-0.047-2.763-1.282-3.535-3.929-2.851c-7.729,1.999-14.049,6.507-20.056,11.467   c-12.238,10.104-20.869,23.009-28.267,36.852c-4.311,8.068-6.772,16.863-9.892,25.383c-3.5,9.558-6.351,19.354-9.496,29.043   c-1.054,3.248-2.053,6.518-3.252,9.712c-0.561,1.493-1.388,2.952-2.386,4.191c-0.587,0.728-1.716,1.329-2.653,1.413   c-5.709,0.511-11.427,1.053-17.152,1.192c-3.969,0.096-5.751-2.355-4.619-6.238c2.868-9.837,5.762-19.674,8.991-29.396   c7.778-23.415,15.252-46.938,24.257-69.93c1.312-3.349,2.392-6.847,2.151-10.485c-0.013-0.2-0.038-0.418-0.179-0.56   c-0.299-0.301-0.801-0.034-1.124,0.241c-3.585,3.057-6.997,6.657-9.984,10.297c-11.983,14.602-21.004,31.061-29.526,47.81   c-5.856,11.508-11.574,23.086-17.413,34.603c-3.212,6.335-7.246,12.13-11.947,17.453c-2.942,3.331-6.407,5.868-10.863,6.775   c-7.483,1.523-14.937-1.896-18.843-8.769c-3.804-6.693-5.514-13.964-5.609-21.636c-0.007-0.579-0.01-1.158-0.035-1.736   c-0.004-0.085-0.121-0.164-0.314-0.41c-0.396,0.524-0.763,1.008-1.129,1.493c-6.457,8.553-13.559,16.449-22.518,22.511   c-4.619,3.125-9.559,5.431-15.062,6.447c-11.704,2.163-20.294-2.926-26.933-11.964c-6.406-8.721-8.398-18.688-7.297-29.341   c1.466-14.187,5.639-27.549,12.46-40.064c5.813-10.664,12.203-20.901,21.091-29.399c7.661-7.325,16.219-12.917,26.77-14.955   c10.818-2.09,20.204,0.671,27.952,8.606c3.255,3.334,4.893,7.538,6.206,11.899c0.178,0.594,0.346,1.19,0.623,2.143   c0.349-0.732,0.591-1.149,0.753-1.595c1.067-2.94,2.141-5.878,3.164-8.834c0.656-1.894,1.884-3.047,3.915-3.165   c3.757-0.218,7.516-0.476,11.277-0.55c5.211-0.102,8.01,3.8,6.883,8.774c-1.618,7.142-3.839,14.074-6.655,20.824   c-7.339,17.595-12.468,35.87-16.62,54.434c-1.056,4.72-1.454,9.519-0.245,14.303c0.269,1.062,0.623,2.113,1.042,3.126   c1.094,2.643,2.368,3.367,4.862,1.993c2.389-1.316,4.638-3.06,6.572-4.993c5.46-5.457,9.462-11.966,12.957-18.813   c7.161-14.028,14.37-28.03,21.549-42.049c5.756-11.24,12.981-21.535,20.686-31.473c2.702-3.485,6.123-6.471,9.502-9.349   c1.803-1.536,4.114-2.641,6.371-3.45c10.693-3.83,19.632,1.872,20.797,13.161c0.691,6.698-0.719,13.142-2.525,19.526   c-0.156,0.551-0.323,1.099-0.294,1.776c0.483-0.715,0.972-1.425,1.446-2.145c7.383-11.215,16.416-20.846,27.675-28.225   c8.192-5.368,17.244-7.637,27.004-6.104c6.291,0.988,10.752,4.562,13.312,10.474c3.29,7.602,3.078,15.367,1.051,23.169   c-2.95,11.357-7.276,22.209-12.095,32.898c-4.616,10.24-8.951,20.608-13.273,30.977c-1.841,4.417-2.879,9.049-2.379,13.913   c0.382,3.723,1.975,5.081,5.448,3.661c3.215-1.315,6.306-3.185,9.05-5.326c2.668-2.081,5.018-4.659,7.17-7.296   c5.506-6.747,10.327-13.978,14.218-21.785c0.598-1.2,0.787-2.653,0.947-4.014c1.736-14.721,5.721-28.74,13.167-41.634   c3.36-5.817,6.782-11.62,10.555-17.171c6.858-10.091,16.014-17.311,27.865-20.748c4.599-1.334,9.346-1.764,14.121-1.169   c8.439,1.052,14.851,5.331,19.18,12.598c3.316,5.566,5.734,11.503,6.442,18.026c0.03,0.278,0.119,0.55,0.292,1.324   c0.442-0.97,0.705-1.548,0.968-2.125c14.014-30.778,28.024-61.557,42.047-92.332c1.007-2.209,2.035-4.414,3.185-6.551   c0.349-0.648,1.061-1.271,1.748-1.526c1.009-0.374,2.154-0.601,3.225-0.55c3.181,0.154,6.354,0.474,9.529,0.733   c0.288,0.024,0.576,0.067,0.86,0.124c3.856,0.769,5.07,2.373,3.898,6.1c-1.907,6.065-3.85,12.148-6.298,18.007   c-5.891,14.102-12.436,27.937-18.079,42.134c-10.246,25.775-19.643,51.868-27.173,78.593c-2.055,7.293-4.335,14.537-6.014,21.918   c-0.876,3.85-0.682,7.945-0.937,11.931c-0.043,0.67,0.091,1.352,0.158,2.227c1.128-0.243,2.074-0.427,3.009-0.652   c10.135-2.439,20.234-5.038,30.412-7.282c9.153-2.018,18.259-1.571,27.319,1.092c8.115,2.385,14.273,9.458,15.621,17.794   c1.588,9.825-3.477,18.361-11.748,23.425c-11.719,7.174-25.336,8.167-38.536,5.415c-12.398-2.585-23.304-7.938-32.359-16.866   c-0.77-0.759-1.375-0.759-2.278-0.346c-27.071,12.392-54.341,24.367-81.165,37.272c-18.856,9.071-37.987,17.466-57.2,25.693   c-12.028,5.15-24.297,9.739-36.456,14.585c-0.248,0.099-0.472,0.257-0.926,0.508c0.708,0.318,1.21,0.572,1.731,0.774   c6.255,2.423,12.5,4.871,18.772,7.249c11.583,4.392,23.189,8.725,34.766,13.132c1.354,0.515,2.468,0.442,3.79-0.164   c19.437-8.914,39.017-17.505,59.23-24.53c15.229-5.293,30.915-7.581,47.049-6.195c8.373,0.719,16.253,2.863,23.374,7.593   c7.772,5.162,11.8,12.388,13.188,21.488c1.139,7.468-1.539,13.694-5.615,19.497c-8.122,11.565-19.357,18.244-33.146,21.089   c-18.958,3.912-37.97,3.963-57.078,1.551c-13.471-1.701-26.746-4.383-39.894-7.744c-0.82-0.21-1.904-0.235-2.622,0.13   c-10.794,5.486-21.547,11.05-32.307,16.602c-0.394,0.203-0.758,0.467-1.295,0.801c0.503,0.259,0.834,0.469,1.193,0.609   c11.906,4.621,24.068,8.492,36.662,10.569c5.117,0.844,10.506,0.374,15.745,0.062c7.652-0.457,15.154-1.987,22.501-4.202   c3.859-1.163,7.422-2.916,10.647-5.367c3.329-2.53,5.828-1.615,6.918,2.453c3.491,13.024-2.89,24.887-15.978,29.341   c-8.517,2.899-17.371,3.361-26.281,2.919c-12.819-0.636-24.948-4.248-36.913-8.614c-11.925-4.351-23.037-10.307-33.877-16.819   c-1.18-0.709-2.106-0.719-3.362-0.196c-19.014,7.92-38.579,13.891-59.106,16.313c-14.267,1.684-28.309,1.12-41.973-4.017   c-9.612-3.614-16.554-10.051-21.241-19.013c-7.004-13.389-2.977-28.002,9.827-36.028c7.168-4.493,15.148-6.321,23.459-6.727   c10.887-0.532,21.381,1.83,31.432,5.673c13.031,4.982,25.842,10.542,38.718,15.925c1.509,0.631,2.699,0.7,4.209-0.068   c9.554-4.857,19.164-9.605,28.754-14.392c0.462-0.23,0.907-0.493,1.621-0.883c-0.59-0.325-0.981-0.595-1.409-0.769   c-18.039-7.356-35.408-16.14-52.874-24.72c-0.839-0.412-2.055-0.659-2.895-0.381c-18.085,5.999-36.664,9.924-55.379,13.266   c-13.188,2.355-26.463,4.06-39.855,4.699c-18.483,0.883-36.719-0.796-54.558-5.811c-9.137-2.569-17.349-7.142-24.824-12.937   c-5.249-4.069-9.19-9.33-12.16-15.24c-4.484-8.922-2.245-17.15,3.163-24.802c3.444-4.874,8.264-9.208,13.421-12.072   c16.01-8.89,33.15-10.077,51.182-7.921c19.854,2.373,38.96,7.73,57.905,13.727c17.221,5.451,34.27,11.445,51.421,17.122   c0.992,0.329,2.32,0.247,3.313-0.122c16.555-6.161,33.104-12.341,49.61-18.633c25.765-9.82,51.494-19.738,77.245-29.595   c24.941-9.547,49.89-19.073,74.842-28.593C393.961,297.59,395.68,297.083,397.253,296.557z M157.537,386.038   c0.007-0.228,0.013-0.456,0.02-0.684c-5.656-2.34-11.266-4.796-16.974-7.001c-26.775-10.343-55.412-17.401-83.822-21.251   c-2.357-0.319-4.722-0.58-7.097-0.717c-7.931-0.458-16.23,0.556-22.953,4.788c-7.623,4.799-14.101,16.16-8.012,24.507   c3.385,4.641,7.913,7.742,13.064,10.05c7.054,3.16,14.536,4.687,22.154,5.549c17.133,1.939,34.186,0.63,51.043-2.379   c12.177-2.174,24.168-5.41,36.206-8.321C146.668,389.25,152.083,387.563,157.537,386.038z M402.227,217.95   c0.368-9.48-2.54-20.738-10.843-26.375c-1.248-0.847-2.693-1.535-4.2-1.454c-1.287,0.069-2.479,0.691-3.554,1.402   c-4.767,3.151-8.349,8.11-11.311,12.906c-2.849,4.613-5.653,9.235-8.156,14.049c-2.073,3.986-3.974,8.061-5.657,12.227   c-4.988,12.345-10.486,24.515-13.498,37.549c-1.154,4.994-2.079,10.121-2.324,15.225c-0.292,6.091,5.499,11.212,11.414,10.615   c1.921-0.194,3.951-0.682,5.629-1.593c3.136-1.702,6.257-3.558,9.019-5.8c8.844-7.174,16.364-15.43,21.385-25.877   c3.828-7.964,7.01-16.08,9.306-24.624C401.138,229.874,402.011,223.514,402.227,217.95z M124.468,218.109   c0.146-4.673-0.68-9.805-2.412-14.156c-1.047-2.63-2.7-5.1-5.075-6.641c-0.511-0.331-1.074-0.624-1.682-0.656   c-0.742-0.039-1.443,0.312-2.091,0.676c-7.521,4.229-12.924,11.235-17.643,18.283c-5.028,7.511-9.314,15.614-13.158,23.786   c-6.195,13.172-10.992,26.988-14.355,41.149c-1.245,5.244-2.363,10.529-1.518,15.989c0.671,4.341,2.66,6.036,6.94,5.047   c2.932-0.677,6.029-1.712,8.413-3.459c4.27-3.129,8.471-6.551,11.971-10.497c10.983-12.382,19.489-26.289,24.731-42.113   C121.551,236.576,124.144,227.594,124.468,218.109z M330.683,428.047c0.419,0.163,0.673,0.283,0.941,0.363   c11.905,3.539,24.026,6.053,36.349,7.583c10.033,1.245,20.08,1.945,30.12,0.078c6.234-1.159,12.319-2.8,17.751-6.234   c3.58-2.263,6.633-5.09,8.48-8.979c2.83-5.964-0.19-13.24-6.405-15.256c-2.241-0.727-4.608-1.169-6.953-1.454   c-10.2-1.241-20.048,0.809-29.874,3.252c-17.63,4.385-33.629,12.749-49.985,20.253C331.009,427.697,330.94,427.804,330.683,428.047   z M208.792,453.46c-0.269-0.33-0.352-0.503-0.49-0.589c-1.722-1.068-3.435-2.151-5.183-3.176   c-13.978-8.195-28.731-14.183-45.01-15.871c-6.964-0.722-13.859-0.976-20.597,1.51c-5.064,1.869-9.248,4.736-11.898,9.577   c-1.623,2.965-2.052,6.146-0.857,9.226c2.065,5.325,5.472,9.357,11.246,11.235c8.365,2.722,16.906,2.835,25.467,2.065   c12.263-1.103,23.962-4.673,35.419-9.04C200.875,456.877,204.774,455.134,208.792,453.46z M422.373,307.364   c0.745,0.895,1.163,1.446,1.631,1.949c10.021,10.771,22.581,15.653,37.1,16.278c7.236,0.312,12.647-3.228,17.579-7.744   c2.711-2.482,3.989-5.958,4.412-9.613c0.563-4.854-3.077-9.572-8.565-11.204c-4.229-1.257-8.547-1.327-12.917-0.912   c-8.193,0.779-16.047,2.971-23.784,5.626C432.749,303.49,427.728,305.411,422.373,307.364z"/>
	<path d="M228.06,79.461c-3.615-2.255-6.917-4.516-10.401-6.45c-11.393-6.323-22.857-12.517-34.277-18.791   c-1.183-0.65-2.167-0.605-3.403-0.035c-11.782,5.43-23.497,11.037-35.961,14.803c-8.072,2.439-16.295,4.086-24.761,4.244   c-5.949,0.111-11.817-0.521-17.494-2.355c-6.689-2.162-11.46-6.228-12.783-13.5c-0.872-4.794,0.438-9.103,3.192-12.973   c5.603-7.874,13.246-12.579,22.7-14.531c8.801-1.817,17.411-0.608,26.013,1.246c13.803,2.974,27.076,7.616,40.124,12.915   c2.104,0.854,3.721,0.682,5.688-0.273c21.313-10.352,42.702-20.552,64.875-28.965c15.181-5.76,30.625-10.699,46.725-13.25   c10.88-1.724,21.779-2.285,32.692-0.212c14.059,2.67,21.831,11.453,22.753,25.778c0.111,1.733,0.217,3.48,0.114,5.208   c-0.143,2.39-1.998,3.699-4.124,2.684c-15.131-7.224-31.464-7.765-47.718-8.636c-27.978-1.5-55.07,3.036-81.42,12.346   c-8.569,3.027-17.114,6.122-25.669,9.191c-0.531,0.19-1.045,0.427-1.861,0.763c0.784,0.386,1.31,0.674,1.858,0.912   c13.172,5.713,26.319,11.485,39.537,17.09c4.041,1.714,8.264,3.006,12.438,4.388c0.618,0.205,1.473-0.044,2.142-0.291   c14.434-5.317,29.146-9.648,44.334-12.186c18.11-3.026,36.241-3.173,54.265,0.57c8.064,1.675,15.608,4.876,22.134,10.028   c4.523,3.571,7.531,8.284,9.212,13.811c2.901,9.538,3.448,19.033-0.894,28.316c-2.422,5.178-5.492,9.913-10.065,13.547   c-3.849,3.059-8.272,4.424-13.045,5.225c-11.777,1.975-23.079,0.14-34.414-3.168c-13.451-3.925-26.025-9.663-38.168-16.521   c-12.913-7.293-25.876-14.499-38.798-21.776c-0.944-0.532-1.686-0.675-2.716-0.157c-18.753,9.428-36.996,19.749-54.632,31.136   c-0.427,0.276-0.829,0.592-1.519,1.088c3.372,0.799,6.442,1.581,9.536,2.252c23.541,5.108,47.047,10.383,70.643,15.223   c17.055,3.498,34.305,5.643,51.787,5.202c21.383-0.539,41.782-5.032,60.853-14.977c11.122-5.8,20.061-14.056,27.405-24.134   c0.478-0.656,0.957-1.31,1.451-1.954c2.179-2.844,4.622-3.154,7.458-0.888c2.864,2.287,4.243,5.429,4.972,8.918   c1.12,5.364,0.575,10.605-1.218,15.741c-3.323,9.521-9.336,17.026-17.516,22.764c-9.333,6.546-19.439,11.45-30.735,13.633   c-9.088,1.757-18.109,4.004-27.268,5.22c-9.358,1.242-18.874,1.232-28.275,0.104c-25.34-3.041-49.886-9.567-74.12-17.368   c-21.994-7.08-43.984-14.175-65.959-21.31c-1.299-0.422-2.25-0.226-3.385,0.451c-18.563,11.08-37.295,21.847-57.299,30.189   c-12.757,5.32-26.015,8.191-39.881,8.405c-11.139,0.172-20.607-3.763-28.854-10.973c-8.77-7.667-10.647-18.544-4.971-28.745   c3.493-6.279,8.572-11.038,14.669-14.749c9.631-5.863,20.195-8.231,31.36-8.301c10.24-0.064,20.352,1.347,30.428,2.914   c14.305,2.225,28.571,4.699,42.862,7.011c0.785,0.127,1.761-0.059,2.465-0.439c4.993-2.694,10.001-5.369,14.886-8.249   c16.385-9.661,33.211-18.465,50.509-26.371C226.946,80.055,227.346,79.828,228.06,79.461z M263.29,77.342   c0.047,0.213,0.093,0.425,0.14,0.638c0.499,0.271,0.993,0.553,1.498,0.812c11.568,5.92,23.685,10.546,35.801,15.174   c9.554,3.65,19.359,6.349,29.505,7.739c8.327,1.141,16.529,1.037,24.376-2.514c5.512-2.494,9.383-6.501,11.163-12.333   c1.043-3.417,0.593-6.657-1.837-9.428c-3.749-4.275-8.417-7.174-13.695-9.222c-11.8-4.58-24.105-5.525-36.573-5.042   c-10.039,0.389-19.682,2.907-29.101,6.247C277.435,71.944,270.38,74.692,263.29,77.342z M147.574,121.451   c-1.145-0.324-1.849-0.542-2.563-0.724c-12.305-3.141-24.778-5.377-37.38-6.916c-10.246-1.251-20.473-2.265-30.818-0.823   c-10.793,1.504-20.185,5.694-28.03,13.33c-1.459,1.42-1.869,2.822-1.443,4.794c1.214,5.618,5.132,8.427,10.247,9.664   c9.215,2.229,18.569,1.892,27.782,0.149c19.611-3.71,38.727-9.179,57.073-17.153C144.023,123.086,145.583,122.353,147.574,121.451z    M173.581,49.803c-0.618-0.33-1.041-0.619-1.508-0.795c-5.631-2.123-11.185-4.497-16.922-6.281   c-10.588-3.294-21.073-2.478-31.248,1.864c-1.495,0.638-3.009,1.622-4.062,2.838c-3.904,4.507-3.381,13.291,5.713,14.798   c5.773,0.957,11.552,0.441,17.02-1.32c10.074-3.244,19.987-6.988,29.964-10.532C172.841,50.267,173.11,50.065,173.581,49.803z"/>
</g>















</svg>
