<svg id="Layer_1" enable-background="new 0 0 512 512" viewBox="0 0 512 512" xmlns="http://www.w3.org/2000/svg"><g fill="#3981bf"><path d="m253.8 327.2c.1 20.3-.4 40.7-8.6 59.6-8.8 20.4-22.9 36.1-45.7 40.9-20.9 4.5-39.8-1.1-56.7-13.9-12-9-20.6-20.5-24.8-34.8-2.5-8.5-3-17.2-1.4-26.1 5-27.8 20.3-49.4 40.4-68 18.6-17.3 38.5-32.9 59.2-47.6 5.6-4 10.9-8.5 16.4-12.6 4.6-3.3 8-1.7 8.5 4 .4 3.9.3 7.8.6 11.8 1 13.9 4.7 27.4 7.5 41 3.1 15 4.3 30.3 4.6 45.7z"/><path d="m413.3 220.4c.5 23.6-.1 40.4-5.9 56.2-7.6 20.7-21 36.1-43.7 40.4-18.9 3.5-35.7-2.3-50.4-14.4-13.7-11.2-21.8-25.7-21.8-43.5 0-11.3 3.4-22.3 8.6-32.5 9.8-19.2 24.8-34.1 41.1-47.8 16.7-14.1 34.7-26.6 51.9-40.2.1-.1.2-.1.3-.2 2.1-1.2 3.9-3.6 6.7-2 2.6 1.4 2.5 4.2 2.5 6.7-.2 12.4 2.5 24.3 5.2 36.3 3.5 15.7 5.6 31.7 5.5 41z"/><path d="m311.2 125.9c.2 13.3-.3 23.7-3.7 33.5-4.9 14.1-13.8 24.7-28.9 28.3-20.9 5-46.2-11.3-50-32.2-2.1-11.5 1.2-22.1 6.6-32.1 7.4-13.7 18.8-23.9 30.7-33.4 10.4-8.3 21.1-16.3 31.7-24.3 4-3 6.4-2.1 6.3 2.8-.1 11.9 3.5 23.2 5.5 34.7 1.3 8.5 1.9 17 1.8 22.7z"/><path d="m182.1 182.4c0 11.7-.5 23.4-5.2 34.3-5.5 12.7-14.4 22.5-28.6 24.8-17.8 2.9-32.2-4-42.7-18.5-11.2-15.5-7.5-31.2.8-46.5 7.4-13.6 18.8-23.5 30.6-33 10.3-8.3 20.8-16.2 31.4-24.1 3.9-3 6.4-2 6.3 2.8-.2 11.9 3.5 23.2 5.4 34.7 1.4 8.4 1.9 16.9 2 25.5z"/><path d="m342.7 397.4c.6 10.3-.1 18.9-2.3 27.3-3.3 12.3-13.5 22-26 23.2-16.8 1.6-33-11.9-34.8-26.6-1.3-11.1 3-20.3 9.1-29 6.8-9.8 16.3-16.8 25.5-24.2 5.8-4.7 11.9-9.1 17.9-13.6 1.1-.9 2.3-1.9 3.8-1.1 1.4.7 1.1 2.3 1.1 3.5.3 9.2 2.9 18 4.4 26.9.9 5 1.3 10 1.3 13.6z"/></g><path d="m149.2 386.5c-1.1-1.9-2.5-3.5-4.8-2.1s-1.6 3.4-.4 5.3c8.7 14.3 21.4 21.5 38.2 21.6 5.6 0 11.1-1 16.4-2.9 11.2-3.9 19.3-11.9 26.6-20.9 7.7-9.6 11.6-20.9 14.1-32.8.4-2-.2-3.7-2.3-4.1-2.2-.4-3.3.9-3.7 2.9-.2 1.2-.5 2.3-.7 3.5-3.6 15.7-11.6 28.7-24.1 39-15.3 12.5-44.9 14.8-59.3-9.5z"/><path d="m351.7 299.7c16 .2 31.7-10.4 37.5-25.2.8-2 .6-3.6-1.4-4.5-1.9-.8-3.2.1-4.1 1.8-1.5 3-3.2 5.9-5.2 8.5-14.3 18.8-44.3 18.2-55.4-5.3-1.5-3.1-2.7-6.3-3.6-9.7-.5-1.8-1.7-2.9-3.7-2.5-1.9.5-2.5 1.9-2.2 3.8 2.6 18.3 19.4 32.9 38.1 33.1z"/><path d="m269.1 178.2c5 0 11-1.4 16.3-5.3 1.8-1.3 3.3-2.8 1.8-5s-3.4-1.5-5.2-.1c-.4.3-.8.6-1.2.8-9.7 6.2-21.6 4.2-28.7-4.7-2.1-2.6-3.8-5.5-5.1-8.6-.8-1.8-2.2-2.6-4-1.8-1.7.7-2.1 2.1-1.7 3.9 2.6 10.9 15.1 20.8 27.8 20.8z"/><path d="m294.1 428.7c-1.5 1.6-1.1 3.3.4 4.7 4 3.8 8.6 6.2 11.5 6.2 13.9 0 26.6-10.4 28.9-21.4.4-1.9-.1-3.4-1.9-4-1.9-.6-3.3.4-3.8 2.2-1 3.1-2.4 5.9-4.4 8.5-7.6 9.5-16.9 10.9-26.2 3.9-1.5-1.1-3.1-1.5-4.5-.1z"/><path d="m129.2 225.8c3.7 2.2 7.7 3.8 12.6 3.8 6.2-.2 11.8-2.9 16.5-7.8 1.5-1.6 3.2-3.3 1.1-5.5-2.1-2.1-3.8-.6-5.4 1.1-3.1 3.3-6.8 5.5-11.4 6-3.9.4-7.2-1-10.4-2.9-1.9-1.1-3.7-1.2-4.8 1-1.1 2 .1 3.3 1.8 4.3z"/><path d="m234.5 316.1c.1 6.8.2 13.6-.5 20.3-.2 2 .4 3.7 2.7 3.9 2.2.2 3.2-1.2 3.4-3.3.3-3.9.5-7.8.7-11.7-.1 0-.1 0-.2 0 0-3.1 0-6.2 0-9.3 0-2-.6-3.6-2.9-3.7-2.5 0-3.2 1.7-3.2 3.8z"/><path d="m292.6 158.8c1.6.8 3.1.3 4-1.2 3.5-6 4.3-12.8 5.9-19.2-.1-1.9-.9-3.2-2.7-3.4-2-.2-3 1-3.4 2.9-1.3 5.8-2.2 11.7-5.1 17-.9 1.5-.3 3.1 1.3 3.9z"/><path d="m391.9 260c1.5.6 3 .1 3.6-1.4 1.7-3.9 2.7-8 3.6-12 0-1.8-.7-3-2.3-3.4s-2.9.2-3.4 1.8c-1.2 3.8-2.4 7.7-3.4 11.6-.4 1.6.4 2.8 1.9 3.4z"/><path d="m164.3 205.4c2 .9 3.4-.1 4.2-2 1.3-3 2-6.1 2.4-9.7.1-1.5-.4-3.2-2.6-3.5s-3.3 1-3.5 3.1c-.3 2.7-1 5.3-2 7.9-.6 1.7-.4 3.4 1.5 4.2z"/><path d="m398.2 232.3c3 .1 3.1-2.3 3.3-4.5 0-.6.1-1.2.1-1.8.2-2.1-.3-4-2.7-4.2-2.7-.2-3.3 1.7-3.4 3.9 0 .6-.1 1.2-.1 1.8-.2 2.4-.1 4.7 2.8 4.8z"/><path d="m235.6 299.9c2 0 2.9-1.3 2.9-3.3-.3-2.2-.2-4.8-3.4-4.9-2 0-3.1 1.4-2.9 3.3.2 2.2.2 4.8 3.4 4.9z"/></svg>