<svg id="Layer_1" enable-background="new 0 0 512 512" viewBox="0 0 512 512" xmlns="http://www.w3.org/2000/svg"><path d="m256.8 248.3c9.6-5.2 18.7-4.1 27.7.4 2.2 1.1 4 2.6 5.3 4.8 1.3 2.1 2.8 4.2 4.3 6.2 5.1 6.7 7.5 14.1 6.3 22.6-.9 6.2-.6 6.2 5.6 5.8 2.8-.2 5.7-.2 8.5-.1 13.1.6 19.6 16 18.1 24.5-1.1 6.7-7.8 13.1-15.9 14.5-5 .9-9.9.8-14.9.8-60.1 0-120.3 0-180.4 0-2.8 0-5.6 0-8.3 1.2-1.5.6-3.1.5-4.7.3-7-.9-14.6-1.2-20.5-5.2-6.2-4.2-13.5-8-15.5-16.4-.3-1.1-.8-2.2-1.5-3.1-6.9-9.6-7.8-20.6-6.2-31.7 2.1-15 10.9-26.7 21.7-36.5 5.8-5.3 13.7-6.4 21.6-4.3 4.4 1.2 4.4 1.3 5.1-3.1 1.6-10.7 7.4-19.2 15.1-26.2 6.7-6.2 13.8-12 21.8-16.9 7.6-4.7 15.8-7.3 24.3-9 11.1-2.2 22.6-2.6 33.1 1.9 21.2 9 39.1 22.1 46.7 45.3 2.2 6.7 2.9 13.7 2.9 20.8-.2.9-.2 1.9-.2 3.4z" fill="#c6e0f7"/><g fill="#3981bf"><path d="m310.8 224.3c9.9 0 19.9.6 29.8-.2 11.9-1 23.6 1 35.3 1.3 12.2.3 24.3-.7 36-4.4 9.5-3 16.7-8.3 18.3-18.9 1.6-10.9-2.9-19.2-11.2-25.7-7.9-6.2-16.6-8.4-26.1-3.5-.4.2-.8.4-1.1.6-4.3 2.9-8.4 6.2-7.9 11.9.5 6.2 4.6 10.1 10.2 12.5 2.2.9 4.6 1.2 7 1.5 5.1.6 8.5 4.7 8 9.5-.5 4.9-4.7 8.3-10 7.8-13.5-1.2-23.9-7.4-29.9-19.8-6.4-13.2-1.9-27.5 11-36.5 15.2-10.7 33.8-9.7 49.6 2.4 15.7 12.1 21.9 31.2 15.8 49.2-4 11.7-12.2 19.3-23.5 23.8-13.9 5.6-28.6 7.7-43.4 6.9-27-1.4-54-.9-81-1.1-1.8 0-3.2-.5-4.6-1.6-4.7-3.7-9.9-6.6-15.7-8.4-1.8-.6-3.8-4.9-3.1-6.6.6-1.3 1.8-.7 2.8-.7z"/><path d="m335.3 285.6c14.8.7 29.6.4 43.6 6.1 7.1 2.9 13.2 7.2 18.2 13 10.1 11.8 10.8 26.1 1.7 39-12.9 18.3-40.6 20.6-55.8 4.6-6.8-7.2-8.5-16.7-4.4-24.9 4-8 12.5-12.6 21.5-11.6 4.5.5 8.5 2.3 12 5 3.5 2.8 4.2 7.8 1.7 11.6-2.5 3.7-7.4 4.9-11.4 2.7-1.1-.6-2.2-1.3-3.3-1.8-1.7-.7-3.4-.3-4.5 1.2-1.2 1.6-.8 3.2.3 4.6 2.4 3.3 5.8 5 9.7 6 7.7 1.8 16.2-1.6 20.6-8.2 3.9-5.9 3.7-11-.7-16.4-3.9-4.8-8.9-7.9-14.7-9.8-7.5-2.5-15.2-2.8-22.9-3.3-3.1-.2-4.6-.9-4.9-4.3-.7-5-3.3-9.4-6.7-13.5z"/><path d="m353 255h43c4.6 0 7.8 2.5 8.9 6.5 1 3.7-.6 7.7-4 9.7-1.5.9-3.1 1.2-4.8 1.2-27 0-54 0-81 0-1.9 0-2.8-.6-3.1-2.5-.7-4.2-2.1-8.3-4.2-12.1-1.4-2.5-.6-2.9 1.9-2.9 14.4.2 28.9.1 43.3.1z"/><path d="m259 193.4c1-1 2-.7 2.9-.7h67.2c5.1 0 8.6 2.7 9.5 7 1 5.3-2.7 10.4-8.2 10.4-19.8.1-39.6 0-59.4 0-1 0-1.9 0-2.4-1-2.8-5.6-6-10.7-9.6-15.7z"/></g><path d="m189.2 193.2c2.2.1 5.2 1.1 5.3-2.4.1-3.4-3.1-2.9-5.3-2.9-25.4-.2-43.8 11.7-56.9 32.8-2.1 3.4-3.4 7.2-4.2 11.1-.4 1.9-.1 3.5 2 3.9 1.9.4 2.9-.9 3.2-2.6.8-3.9 2.2-7.7 4.4-11 11.4-17.7 27.4-27.8 48.7-28.8.9-.1 1.8-.1 2.8-.1z"/><path d="m100.9 246.8c-.8-.1-1.7.1-2.5.2-13.5 2.7-22.5 14.6-22.6 30.9.1 5.5 1.2 11.7 3.8 17.5 1.7 3.8 4 7.1 7.4 9.5 1.4 1 2.8.9 3.9-.5 1-1.3.7-2.7-.5-3.6-6.7-5.4-8.3-13.1-9-21-1.2-13 5.4-25.6 19.2-27.8.4-.1.8-.2 1.2-.4 1-.6 1.4-1.6 1.2-2.7-.3-1.2-1-2-2.1-2.1z"/><path d="m266.2 260c-.5 2.1.7 3 2.6 3.4 5.6 1.2 9.7 4.6 12.8 9.4 2.9 4.5 4.3 9.5 4.3 14.9 0 1.8.6 3.2 2.6 3.3 2.1.1 2.8-1.4 2.8-3.4 0-.3 0-.6 0-1.3-.3-7.2-2.7-14-7.7-19.8-3.6-4.2-8.1-7.2-13.7-8.3-1.6-.3-3.2-.1-3.7 1.8z"/><path d="m207.3 194.9c-1.7-.2-2.9.2-3.3 1.6-.5 1.5 0 2.8 1.4 3.4 5.3 2.2 9.8 5.6 14.3 9 1.5 1.1 2.9 1.3 4.1-.2s.6-2.9-.9-4c-4-3.1-8-6-12.5-8.3-1.1-.6-2.2-1.1-3.1-1.5z"/><path d="m232.8 217.2c-1.2 1-1.5 2.3-.5 3.6 3.3 4.3 5.7 8.9 6.6 14.3.2 1.4 1.4 2.1 2.9 1.9 1.6-.2 2.3-1.3 2.3-2.8-.9-6.5-3.7-12-7.8-16.8-1-1.1-2.4-1.1-3.5-.2z"/></svg>