<svg id="Glyph" enable-background="new 0 0 32 32" height="512" viewBox="0 0 32 32" width="512" xmlns="http://www.w3.org/2000/svg"><path d="m19 20v6.286c0 .633-.765.949-1.212.502l-5.288-5.288-7.5 7.5-2.782.987c-.127.045-.25-.078-.205-.205l.987-2.782 7.5-7.5-5.288-5.288c-.447-.447-.13-1.212.502-1.212h6.286z"/><path d="m29.561 11.561c-.293.293-.677.439-1.061.439s-.768-.146-1.061-.439l-.888-.888-6.292 7.773-6.704-6.704 7.773-6.292-.888-.888c-.586-.585-.586-1.536 0-2.121.586-.586 1.535-.586 2.121 0l7 7c.585.584.585 1.534 0 2.12z"/></svg>