<?xml version="1.0" encoding="UTF-8"?>
<!-- Generator: Adobe Illustrator 25.3.1, SVG Export Plug-In . SVG Version: 6.00 Build 0)  -->
<svg xmlns="http://www.w3.org/2000/svg" xmlns:xlink="http://www.w3.org/1999/xlink" version="1.1" id="Capa_1" x="0px" y="0px" viewBox="0 0 512.095 512.095" style="enable-background:new 0 0 512.095 512.095;" xml:space="preserve" width="512" height="512">
<g>
	<path style="fill:#FFFFFF;" d="M255.897,512.074c-36.102,0.011-71.011-7.399-103.71-21.899   c-23.738-10.519-45.839-24.657-65.246-41.795c-0.33-0.274-0.621-0.537-0.875-0.778c-0.7-0.6-1.384-1.205-2.068-1.838   c-0.215-0.186-0.434-0.384-0.648-0.585C-78.992,295.9,9.973,25.416,229.089,1.474C401.176-16.88,542.025,139.028,506.534,308.233   C483.946,424.618,374.571,513.698,255.897,512.074z"/>
	<g>
		<path style="fill:#564BB7;" d="M483.786,292.473c-0.653,4.326-7.678,66.467-21.062,88.593    c-42.449,70.275-119.573,117.253-207.648,117.253c-34.202,0-66.738-7.075-96.231-19.872c-0.699-0.293-4.176-8.746-4.176-8.746    s-6.527,3.789-7.09,3.518c-4.732-2.321-9.373-4.799-13.902-7.435c-3.83-2.208-9.886-13.034-9.886-13.034    s-12.353-1.521-14.132-2.851c-4.979-3.74-9.801-7.661-14.443-11.761c-0.113-0.113,2.383-5.834,2.248-5.97    c-1.42-1.284-8.512,0.314-9.886-1.015c-29.764-28.435-52.295-64.372-64.552-104.77c-2.294-7.531,2.754-16.423,1.199-24.246    c-1.682-8.467-9.901-15.887-10.662-24.647c-0.653-7.12-0.969-14.352-0.969-21.652c0-81.608,40.309-153.798,102.112-197.757    c20.436-14.51,43.192-18.956,67.639-26.617c15.164-4.777,31.003-8.089,47.316-9.779c8.337-0.879,16.831-1.329,25.415-1.329    c16.042,0,31.724-5.445,46.887-2.449c25.055,4.889,48.712,13.654,70.342,25.663c1.302,0.699-1.222,2.791,0.067,3.532    c1.456,0.837,6.723,0.327,8.157,1.199c60.541,36.681,103.756,99.115,114.436,172.116    C496.657,231.977,483.944,291.459,483.786,292.473z"/>
		<g style="opacity:0.39;">
			<path style="fill:#F3C7D1;" d="M258.516,319.554c-33.473,0-60.707-27.233-60.707-60.707s27.233-60.707,60.707-60.707     s60.707,27.233,60.707,60.707S291.99,319.554,258.516,319.554z M258.516,199.267c-32.852,0-59.58,26.728-59.58,59.58     s26.728,59.58,59.58,59.58s59.58-26.728,59.58-59.58S291.369,199.267,258.516,199.267z"/>
			<path style="fill:#F3C7D1;" d="M258.516,350.933c-50.776,0-92.086-41.31-92.086-92.086c0-50.777,41.31-92.087,92.086-92.087     c50.777,0,92.087,41.31,92.087,92.087C350.603,309.623,309.293,350.933,258.516,350.933z M258.516,167.887     c-50.154,0-90.959,40.805-90.959,90.96c0,50.154,40.805,90.959,90.959,90.959c50.156,0,90.96-40.805,90.96-90.959     C349.477,208.692,308.672,167.887,258.516,167.887z"/>
			<path style="fill:#F3C7D1;" d="M258.516,409.77c-83.219,0-150.923-67.703-150.923-150.923s67.703-150.923,150.923-150.923     s150.923,67.703,150.923,150.923S341.736,409.77,258.516,409.77z M258.516,109.051c-82.598,0-149.796,67.198-149.796,149.796     s67.198,149.796,149.796,149.796s149.796-67.198,149.796-149.796S341.115,109.051,258.516,109.051z"/>
			<path style="fill:#F3C7D1;" d="M258.516,375.775c-64.475,0-116.928-52.453-116.928-116.927     c0-64.475,52.453-116.928,116.928-116.928s116.928,52.453,116.928,116.928C375.445,323.321,322.992,375.775,258.516,375.775z      M258.516,143.045c-63.854,0-115.802,51.948-115.802,115.802c0,63.853,51.948,115.801,115.802,115.801     S374.318,322.7,374.318,258.847C374.318,194.993,322.37,143.045,258.516,143.045z"/>
			<path style="fill:#F3C7D1;" d="M258.516,471.351c-117.174,0-212.502-95.33-212.502-212.503     c0-117.175,95.328-212.503,212.502-212.503c117.175,0,212.503,95.328,212.503,212.503     C471.02,376.021,375.691,471.351,258.516,471.351z M258.516,47.47c-116.553,0-211.376,94.823-211.376,211.377     c0,116.553,94.823,211.377,211.376,211.377c116.554,0,211.377-94.824,211.377-211.377     C469.893,142.294,375.07,47.47,258.516,47.47z"/>
			<path style="fill:#F3C7D1;" d="M258.516,442.893c-101.484,0-184.046-82.562-184.046-184.046S157.033,74.802,258.516,74.802     s184.046,82.562,184.046,184.046S360,442.893,258.516,442.893z M258.516,75.928c-100.862,0-182.919,82.057-182.919,182.919     s82.057,182.919,182.919,182.919s182.919-82.057,182.919-182.919S359.379,75.928,258.516,75.928z"/>
		</g>
		<g>
			<path style="fill:#95ABD3;" d="M66.535,331.61l-33.797-13.339l13.316,33.82l-22.621-28.435l-0.406,2.726     c-4.777-15.682-7.998-32.04-9.463-48.893l4.484-29.899l5.385,35.937l22.621-28.434l-13.316,33.819l33.797-13.339l-28.434,22.621     l35.937,5.408l-35.937,5.385L66.535,331.61z"/>
			<polygon style="fill:#95ABD3;" points="390.053,379.528 354.122,384.915 382.549,407.541 348.742,394.21 362.073,428.017      339.448,399.59 334.061,435.52 328.673,399.59 306.047,428.017 319.379,394.209 285.572,407.54 313.999,384.915 278.068,379.528      313.999,374.141 285.572,351.515 319.379,364.846 306.048,331.039 328.673,359.466 334.061,323.535 339.448,359.466      362.074,331.039 348.742,364.846 382.549,351.515 354.122,374.141    "/>
			<polygon style="fill:#95ABD3;" points="471.357,171.665 435.426,177.053 463.853,199.678 430.046,186.347 443.377,220.154      420.752,191.727 415.365,227.658 409.977,191.727 387.352,220.154 400.683,186.347 366.876,199.678 395.303,177.053      359.372,171.665 395.303,166.278 366.876,143.652 400.683,156.984 387.352,123.177 409.977,151.604 415.365,115.673      420.752,151.604 443.378,123.177 430.047,156.984 463.854,143.653 435.426,166.278    "/>
		</g>
		<g>
			<g>
				<path style="fill:#FF8933;" d="M375.123,124.278L269.249,90.751l56.193,95.803l-80.932-76.066l9.058,110.696l-39.813-103.711      l-39.813,103.711l9.035-110.696l-80.932,76.043l56.216-95.78L52.363,124.278l92.198-61.893l-29.854-4.303      c20.436-14.51,43.192-25.956,67.639-33.617c15.164-4.777,31.003-8.089,47.316-9.779c8.337-0.879,16.831-1.329,25.415-1.329      c16.042,0,31.724,1.555,46.887,4.551l-19.039,12.775l89.381,12.888c2.772,1.487,5.52,3.087,8.224,4.732l-97.605,14.082      L375.123,124.278z"/>
				<path style="fill:#F3C7D1;" d="M255.167,53.439c0,23.297-18.881,42.178-42.178,42.178c-23.297,0-42.201-18.881-42.201-42.178      c0-11.221,4.393-21.427,11.558-28.975c15.164-4.777,31.003-8.089,47.316-9.779C244.667,21.152,255.167,36.068,255.167,53.439z"/>
			</g>
			<path style="fill:#FDBC08;" d="M132.633,248.379c-2.837,22.413-23.311,38.287-45.724,35.45     c-6.358-0.805-12.196-3.033-17.216-6.324c14.361-4.858,25.425-17.562,27.457-33.617c2.032-16.055-5.519-31.115-18.217-39.397     c5.683-1.937,11.891-2.641,18.249-1.836C119.596,205.491,135.47,225.965,132.633,248.379z"/>
			<g>
				<g>
					<g>
						<path style="fill:#FF8933;" d="M168.692,412.272c-0.338,6.264-0.856,12.527-1.51,18.746c-0.27,2.456-0.563,4.934-0.879,7.39        c-0.225,1.757-0.45,3.537-0.721,5.295c-1.668,11.671-3.898,23.275-6.737,34.743c-0.699-0.293-1.397-0.586-2.073-0.901        c-0.092-0.034-0.067-0.693-0.155-0.733c-0.086-0.039-0.285,0.541-0.363,0.508c-2.186-0.969-4.326-1.96-6.444-2.997        c-0.097-0.048-0.102-0.669-0.199-0.717c-0.083-0.042-0.259,0.489-0.342,0.447c-0.563-0.27-1.127-0.563-1.69-0.834        c-1.036-5.137-2.321-10.207-3.808-15.231c-3.357,2.591-6.737,5.205-10.094,7.796c-3.83-2.208-7.593-4.529-11.266-6.939        c-0.089-0.063,0.382-0.518,0.293-0.575c-0.069-0.045-0.697,0.309-0.766,0.26c-2.163-1.42-4.304-2.862-6.399-4.348        c-0.088-0.063,0.368-0.751,0.28-0.814c-0.069-0.049-0.684,0.526-0.753,0.476c-1.825-1.284-3.627-2.614-5.407-3.943        l6.759-15.208c-7.075,1.149-14.127,2.298-21.202,3.447c-0.113-0.113-0.248-0.203-0.36-0.315        c-0.076-0.057,1.44-0.687,1.371-0.751c-0.096-0.087-1.775,0.391-1.867,0.3c-0.744-0.631-1.465-1.262-2.186-1.938        c-0.085-0.071,2.82-2.151,2.728-2.235c-0.054-0.049-3.106,1.902-3.156,1.852c-1.42-1.284-2.794-2.569-4.168-3.898        c11.333-6.534,22.802-12.865,34.338-18.994c4.867-2.591,10.139-4.912,15.276-7.413c4.258-2.05,8.449-4.213,12.234-6.76        c1.622-1.081,3.312-2.343,5.047-3.312c0,0,0,0.022,0.023,0c3.74-2.096,7.638-2.884,11.311,2.073        c0.586,0.811,1.081,1.667,1.442,2.569C168.985,403.237,168.94,407.901,168.692,412.272z"/>
					</g>
					<g>
						<path style="fill:#FFFFFF;" d="M139.514,406.751c-16.2,8.765-32.062,18.363-47.338,28.682        c-0.135-0.113-0.293-0.248-0.428-0.383c15.276-10.319,31.116-19.918,47.315-28.682c3.538-1.938,7.12-3.83,10.702-5.678        l0.271,0.496C146.521,402.989,143.006,404.859,139.514,406.751z"/>
						<path style="fill:#FFFFFF;" d="M125.004,439.827l-9.463,14.353c-0.158-0.113-0.316-0.225-0.473-0.338l9.463-14.33        c1.69-2.569,0.991-5.182-0.248-6.782c-1.217-1.622-3.56-2.974-6.489-2.028c-8.72,2.884-16.132,5.182-22.937,7.12        c-0.18-0.135-0.338-0.293-0.496-0.451c6.894-1.96,14.397-4.281,23.252-7.188c2.636-0.878,5.43-0.022,7.12,2.186        C126.423,434.578,126.536,437.507,125.004,439.827z"/>
						<path style="fill:#FFFFFF;" d="M149.383,447.848c0.834,8.517,0.631,17.281,0.451,25.776c0,0.225,0,0.473-0.022,0.698        c-0.18-0.09-0.361-0.18-0.541-0.27v-0.451c0.18-8.472,0.383-17.214-0.451-25.685c-0.203-2.276-1.6-4.101-3.718-4.934        c-2.096-0.834-4.349-0.428-6.039,1.081l-16.651,14.78c-0.158-0.113-0.315-0.203-0.473-0.316l16.763-14.893        c1.825-1.645,4.303-2.073,6.602-1.172C147.58,443.342,149.157,445.415,149.383,447.848z"/>
						<path style="fill:#FFFFFF;" d="M174.482,406.233c-1.983,8.539-4.01,17.169-6.083,25.843        c-0.924,3.875-1.848,7.751-2.816,11.626c-2.771,11.288-5.678,22.599-8.81,33.842c-0.18-0.068-0.36-0.158-0.518-0.225        c3.582-12.933,6.895-25.956,10.049-38.911c0.541-2.253,1.082-4.506,1.622-6.737c2.05-8.585,4.033-17.101,5.993-25.551        L174.482,406.233z"/>
					</g>
					<g>
						<g>
							<g>
								<polygon style="fill:#F3C7D1;" points="170.789,434.182 132.748,400.854 150.692,393.112 174.165,387.836 182.686,392.106           179.502,403.351         "/>
							</g>
							<g>
								<path style="fill:#1C0231;" d="M179.502,403.351c-9.491-3.135-19.471-6.216-28.81-10.238l20.08-8.668l11.913,7.662          L179.502,403.351z"/>
							</g>
						</g>
						<g>
							<g>
								<path style="fill:#F3C7D1;" d="M170.438,358.243l-28.252-7.585l-32.001-8.571c-3.213-0.861-3.594-5.266-0.577-6.666          l65.279-30.296l10.382-3.331l1.09-0.399L170.438,358.243z"/>
							</g>
							<g>
								<path style="fill:#1C0231;" d="M170.438,358.243l-28.252-7.585c9.326-14.773,19.523-28.991,30.517-42.551          c0.551-0.681,1.298-1.739,2.183-2.981l10.382-3.331l1.09-0.239L170.438,358.243z"/>
							</g>
						</g>
						<g>
							<g>
								<path style="fill:#F3C7D1;" d="M214.505,379.345l15.1,25.054l16.513,27.434c1.909,3.172,6.739,2.224,7.308-1.434          l10.895-70.014l1.764-11.311l1.04-1.433L214.505,379.345z"/>
							</g>
							<g>
								<path style="fill:#1C0231;" d="M214.505,379.345l15.1,25.054c11.618-13.047,22.463-26.777,32.455-41.092          c0.502-0.718,1.313-1.729,2.262-2.922l1.764-11.311l1.04-1.433L214.505,379.345z"/>
							</g>
						</g>
						<g>
							<g>
								<g>
									<path style="fill:#F3C7D1;" d="M264.176,363.173l-58.891,43.16c-7.881,5.944-18.783,5.836-26.516-0.307l-19.745-15.596           c-7.443-5.876-10.187-15.9-6.814-24.766l24.472-61.783l10.889-4.186l1.317-0.502l10.536-4.07l1.284-0.489l8.023-3.095           l53.087-13.416c4.152-1.525,8.415,1.942,7.751,6.287l-0.127,46.359l-1.595,9.772l-0.815,4.987l-0.181,1.257           L264.176,363.173z"/>
								</g>
							</g>
							<g>
								<g>
									<path style="fill:#95ABD3;" d="M269.443,330.769c-7.115-2.343-13.859-6.185-20.421-9.946           c-14.417-8.292-29.333-17.054-40.291-29.285l62.233-23.992c4.152-1.525,8.415,1.942,7.751,6.287L269.443,330.769z"/>
								</g>
							</g>
							<g>
								<g>
									<path style="fill:#1C0231;" d="M267.645,341.788l-0.068-0.031c-29.267-13.119-54.175-33.706-68.152-46.635l1.284-0.489           c13.975,12.873,38.439,32.988,67.14,45.909L267.645,341.788z"/>
								</g>
							</g>
							<g>
								<g>
									<path style="fill:#1C0231;" d="M266.852,346.785c-5.095-1.792-10.089-3.812-14.955-5.994           c-29.403-13.18-53.604-32.057-64.326-41.097l1.317-0.502c12.699,10.663,42.882,33.861,78.145,46.336L266.852,346.785z"/>
								</g>
							</g>
							<g>
								<g>
									<path style="fill:#1C0231;" d="M207.693,339.406c-10.77-4.822-23.455,0-28.277,10.792c-4.844,10.77,0,23.455,10.77,28.277           c10.77,4.844,23.455,0,28.299-10.77C223.308,356.935,218.486,344.25,207.693,339.406z M217.337,367.187           c-4.551,10.139-16.493,14.713-26.632,10.162c-10.161-4.551-14.713-16.516-10.161-26.655           c4.551-10.139,16.493-14.69,26.654-10.139C217.337,345.106,221.888,357.048,217.337,367.187z"/>
								</g>
							</g>
						</g>
					</g>
				</g>
				<g>
					<g>
						<path style="fill:#FF5382;" d="M497.535,255.838c0,11.401-0.788,22.599-2.321,33.571c-0.135,1.014-0.27,2.05-0.428,3.064        c-0.653,4.326-1.419,8.607-2.321,12.843c-0.203,1.059-0.428,2.095-0.676,3.132c-5.745,26.023-15.682,50.492-29.065,72.618        c-2.749,0.586-5.565,1.036-8.404,1.352c-42.764,4.777-81.833-21.495-94.676-60.834c-0.338-1.014-0.631-2.005-0.924-3.042        c-0.834-2.884-1.532-5.836-2.073-8.832c-0.18-0.991-0.338-2.005-0.473-3.019c-0.158-0.969-0.271-1.938-0.383-2.929        c-5.475-48.938,29.741-93.054,78.657-98.529c22.216-2.478,43.44,3.425,60.519,15.186        C496.657,231.977,497.535,243.806,497.535,255.838z"/>
					</g>
					<g>
						<path style="fill:#F3C7D1;" d="M356.67,309.71c21.134-3.763,50.876-8.111,88.12-12.302c18.543-2.05,35.239-3.673,49.997-4.934        c0.158-1.014,0.293-2.05,0.428-3.064c-24.018,2.028-45.536,4.371-50.763,4.98c-33.278,3.763-64.574,8.043-88.255,12.302        h-0.023c-0.518,0.09-0.924,0.158-1.465,0.248c-38.371,6.849-38.078,9.779-37.852,11.739c0.068,0.586,0.586,1.082,1.532,1.555        c4.89,2.321,21.518,2.366,41.255,1.352h0.023c34.698-1.712,79.107-6.624,86.971-7.503c4.822-0.496,23.207-2.636,44.612-5.565        c0.18-0.022,0.36-0.045,0.541-0.067c0.248-1.037,0.473-2.073,0.676-3.132c-13.744,1.87-29.178,3.808-46.144,5.745        c-36.658,4.123-66.264,6.421-87.601,7.48c-21.202,1.059-34.18,0.789-38.033-0.293c3.447-1.915,15.682-4.934,35.96-8.539        H356.67z"/>
					</g>
				</g>
			</g>
		</g>
		<g>
			<g>
				<path style="fill:#FFFFFF;" d="M348.276,238.358c-9.007-0.682-18.015-0.855-27.022-0.869c-0.001-0.003-0.002-0.006-0.003-0.009      c3.804-3.454,7.515-7.013,10.966-10.862c0.129-0.144,0.146-0.363,0.029-0.527c-0.135-0.19-0.399-0.233-0.589-0.098      c-4.173,2.986-8.09,6.259-11.913,9.635c-0.151-0.084-0.306-0.158-0.47-0.218c-0.01-3.922-0.05-7.844-0.09-11.767      c-0.113-4.987-0.225-9.974-0.503-14.96c-0.009-0.164-0.14-0.299-0.308-0.308c-0.18-0.01-0.334,0.128-0.344,0.308      c-0.277,4.987-0.39,9.974-0.502,14.96c-0.04,3.883-0.08,7.766-0.09,11.65c-0.187,0.043-0.37,0.097-0.544,0.171      c-1.341-1.445-2.691-2.881-4.079-4.284c-2.118-2.188-4.265-4.35-6.5-6.434c-0.075-0.07-0.193-0.079-0.278-0.015      c-0.096,0.072-0.116,0.208-0.044,0.304c1.826,2.45,3.74,4.821,5.683,7.166c1.23,1.519,2.497,3.003,3.774,4.48      c-0.165,0.253-0.285,0.533-0.375,0.828c-3.893,0.027-7.786,0.069-11.679,0.203c-4.987,0.131-9.974,0.311-14.96,0.648      c-0.121,0.008-0.22,0.104-0.228,0.228c-0.009,0.135,0.093,0.252,0.228,0.261c4.987,0.337,9.974,0.516,14.96,0.648      c3.924,0.136,7.848,0.177,11.772,0.204c0.007,0.016,0.014,0.03,0.021,0.045c-3.692,3.411-7.306,6.908-10.717,10.633      c-0.126,0.137-0.142,0.349-0.028,0.505c0.13,0.178,0.38,0.217,0.558,0.087c4.107-3.004,8.006-6.241,11.829-9.562      c0.196,0.089,0.401,0.159,0.616,0.208c0.024,3.983,0.029,7.965,0.133,11.948c0.091,4.987,0.216,9.974,0.45,14.961      c0.008,0.166,0.142,0.303,0.311,0.311c0.18,0.008,0.333-0.131,0.341-0.311c0.234-4.987,0.359-9.974,0.451-14.961      c0.105-4.022,0.108-8.044,0.133-12.066c0.114-0.041,0.223-0.088,0.331-0.141c1.37,1.527,2.73,3.063,4.139,4.555      c2.115,2.192,4.226,4.386,6.478,6.454c0.143,0.132,0.364,0.149,0.527,0.029c0.185-0.136,0.225-0.396,0.089-0.58      c-1.809-2.465-3.759-4.804-5.706-7.146c-1.344-1.58-2.735-3.118-4.119-4.663c0.053-0.096,0.114-0.187,0.157-0.289      c9.038-0.012,18.077-0.185,27.116-0.869c0.119-0.009,0.217-0.103,0.226-0.226C348.512,238.486,348.411,238.368,348.276,238.358z      "/>
			</g>
			<g>
				<path style="fill:#FFFFFF;" d="M398.899,79.585c-9.007-0.682-18.015-0.855-27.022-0.869c-0.001-0.003-0.002-0.006-0.003-0.009      c3.804-3.454,7.515-7.013,10.966-10.862c0.129-0.144,0.146-0.364,0.029-0.527c-0.135-0.19-0.399-0.233-0.589-0.098      c-4.173,2.986-8.09,6.258-11.913,9.634c-0.15-0.084-0.306-0.158-0.47-0.218c-0.01-3.922-0.05-7.845-0.09-11.767      c-0.113-4.987-0.225-9.974-0.502-14.96c-0.009-0.164-0.14-0.298-0.308-0.308c-0.18-0.01-0.334,0.128-0.344,0.308      c-0.277,4.987-0.39,9.974-0.502,14.96c-0.04,3.883-0.08,7.766-0.09,11.65c-0.187,0.043-0.37,0.097-0.544,0.171      c-1.341-1.445-2.691-2.881-4.079-4.284c-2.118-2.189-4.265-4.35-6.5-6.434c-0.076-0.07-0.193-0.079-0.278-0.015      c-0.096,0.072-0.116,0.208-0.044,0.304c1.826,2.45,3.74,4.821,5.683,7.166c1.23,1.519,2.497,3.003,3.774,4.48      c-0.165,0.253-0.285,0.533-0.375,0.828c-3.893,0.027-7.786,0.069-11.679,0.203c-4.987,0.131-9.974,0.311-14.96,0.648      c-0.121,0.008-0.22,0.104-0.228,0.228c-0.009,0.135,0.093,0.252,0.228,0.261c4.987,0.337,9.974,0.516,14.96,0.648      c3.924,0.136,7.848,0.177,11.772,0.204c0.007,0.016,0.014,0.03,0.021,0.045c-3.692,3.411-7.306,6.908-10.717,10.633      c-0.126,0.137-0.142,0.349-0.028,0.505c0.13,0.178,0.38,0.217,0.558,0.086c4.107-3.004,8.006-6.241,11.829-9.562      c0.196,0.089,0.401,0.159,0.616,0.208c0.024,3.983,0.029,7.965,0.133,11.949c0.091,4.987,0.216,9.973,0.451,14.96      c0.008,0.166,0.142,0.303,0.311,0.311c0.18,0.008,0.333-0.131,0.342-0.311c0.234-4.987,0.359-9.974,0.451-14.96      c0.105-4.022,0.108-8.044,0.133-12.066c0.114-0.041,0.223-0.088,0.331-0.141c1.369,1.527,2.73,3.063,4.138,4.555      c2.115,2.191,4.226,4.386,6.478,6.454c0.143,0.132,0.364,0.149,0.527,0.029c0.185-0.136,0.225-0.396,0.089-0.58      c-1.809-2.465-3.759-4.804-5.706-7.146c-1.344-1.58-2.735-3.118-4.119-4.663c0.053-0.096,0.114-0.187,0.157-0.289      c9.039-0.012,18.077-0.185,27.116-0.869c0.119-0.009,0.217-0.103,0.226-0.226C399.135,79.713,399.034,79.595,398.899,79.585z"/>
			</g>
			<g>
				<path style="fill:#FFFFFF;" d="M122.29,374.05c-7.864-0.595-15.729-0.746-23.593-0.758c-0.001-0.002-0.002-0.005-0.003-0.008      c3.322-3.016,6.562-6.123,9.574-9.484c0.113-0.126,0.128-0.318,0.025-0.461c-0.118-0.165-0.349-0.204-0.514-0.085      c-3.644,2.607-7.063,5.464-10.402,8.412c-0.131-0.074-0.267-0.138-0.41-0.191c-0.009-3.425-0.044-6.849-0.079-10.274      c-0.098-4.354-0.197-8.708-0.439-13.062c-0.008-0.143-0.122-0.261-0.269-0.269c-0.157-0.009-0.292,0.111-0.3,0.269      c-0.242,4.354-0.34,8.708-0.439,13.062c-0.035,3.391-0.07,6.781-0.079,10.172c-0.163,0.038-0.323,0.085-0.474,0.149      c-1.171-1.261-2.349-2.516-3.561-3.74c-1.849-1.911-3.724-3.798-5.676-5.617c-0.066-0.062-0.168-0.069-0.243-0.014      c-0.084,0.063-0.101,0.181-0.039,0.266c1.595,2.139,3.265,4.21,4.962,6.257c1.074,1.326,2.18,2.622,3.295,3.912      c-0.144,0.221-0.249,0.466-0.327,0.723c-3.399,0.024-6.798,0.06-10.197,0.177c-4.354,0.115-8.708,0.271-13.062,0.565      c-0.105,0.007-0.192,0.091-0.199,0.199c-0.008,0.118,0.081,0.22,0.199,0.228c4.354,0.294,8.708,0.451,13.062,0.566      c3.426,0.119,6.852,0.155,10.279,0.178c0.006,0.014,0.012,0.026,0.018,0.04c-3.223,2.978-6.379,6.032-9.357,9.284      c-0.11,0.12-0.124,0.305-0.025,0.441c0.114,0.155,0.332,0.189,0.487,0.075c3.586-2.623,6.99-5.449,10.328-8.349      c0.171,0.078,0.35,0.139,0.538,0.182c0.021,3.477,0.025,6.955,0.116,10.433c0.08,4.354,0.189,8.708,0.393,13.062      c0.007,0.145,0.124,0.264,0.271,0.271c0.157,0.007,0.291-0.114,0.298-0.271c0.205-4.354,0.314-8.708,0.394-13.062      c0.092-3.512,0.095-7.023,0.116-10.535c0.1-0.036,0.195-0.077,0.289-0.123c1.196,1.334,2.384,2.674,3.613,3.977      c1.846,1.913,3.69,3.83,5.656,5.635c0.125,0.115,0.318,0.13,0.46,0.025c0.161-0.118,0.196-0.345,0.078-0.507      c-1.58-2.152-3.282-4.195-4.982-6.239c-1.173-1.38-2.388-2.722-3.596-4.071c0.046-0.084,0.099-0.163,0.137-0.252      c7.892-0.011,15.784-0.161,23.675-0.759c0.104-0.008,0.189-0.09,0.198-0.197C122.496,374.162,122.408,374.059,122.29,374.05z"/>
			</g>
			<g>
				<path style="fill:#FFFFFF;" d="M293.905,463.821c-8.428-0.638-16.857-0.8-25.286-0.813c-0.001-0.003-0.002-0.006-0.003-0.009      c3.56-3.232,7.032-6.562,10.261-10.164c0.121-0.135,0.137-0.34,0.027-0.494c-0.127-0.177-0.374-0.218-0.551-0.091      c-3.905,2.794-7.57,5.856-11.148,9.015c-0.141-0.079-0.286-0.148-0.439-0.204c-0.009-3.67-0.047-7.34-0.084-11.011      c-0.106-4.666-0.211-9.333-0.471-13.999c-0.008-0.153-0.131-0.279-0.288-0.288c-0.169-0.009-0.313,0.12-0.322,0.288      c-0.259,4.666-0.365,9.333-0.47,13.999c-0.037,3.634-0.074,7.268-0.084,10.901c-0.175,0.041-0.346,0.091-0.509,0.16      c-1.254-1.352-2.518-2.696-3.817-4.008c-1.982-2.048-3.991-4.071-6.083-6.021c-0.071-0.066-0.18-0.074-0.26-0.014      c-0.09,0.067-0.108,0.195-0.042,0.285c1.709,2.292,3.5,4.512,5.318,6.706c1.151,1.421,2.337,2.81,3.531,4.192      c-0.154,0.236-0.267,0.499-0.351,0.775c-3.643,0.025-7.286,0.064-10.928,0.19c-4.666,0.123-9.333,0.291-13.999,0.606      c-0.113,0.007-0.206,0.097-0.213,0.213c-0.009,0.126,0.087,0.236,0.213,0.244c4.666,0.315,9.333,0.483,13.999,0.606      c3.672,0.127,7.344,0.166,11.016,0.191c0.006,0.015,0.013,0.028,0.02,0.043c-3.455,3.192-6.837,6.464-10.028,9.95      c-0.118,0.128-0.133,0.326-0.026,0.473c0.122,0.167,0.356,0.203,0.522,0.081c3.843-2.811,7.492-5.84,11.069-8.948      c0.183,0.083,0.375,0.149,0.576,0.195c0.023,3.727,0.027,7.454,0.124,11.181c0.085,4.667,0.202,9.333,0.422,13.999      c0.008,0.155,0.133,0.283,0.291,0.291c0.168,0.008,0.311-0.122,0.319-0.291c0.22-4.667,0.336-9.333,0.422-13.999      c0.098-3.764,0.101-7.527,0.124-11.291c0.107-0.039,0.209-0.082,0.31-0.132c1.281,1.429,2.555,2.866,3.872,4.262      c1.979,2.051,3.954,4.104,6.062,6.04c0.134,0.124,0.34,0.139,0.493,0.027c0.173-0.127,0.21-0.37,0.083-0.543      c-1.693-2.307-3.518-4.495-5.339-6.687c-1.257-1.479-2.559-2.918-3.854-4.364c0.049-0.09,0.106-0.175,0.147-0.27      c8.458-0.012,16.916-0.173,25.374-0.813c0.111-0.008,0.203-0.097,0.211-0.212C294.126,463.941,294.032,463.831,293.905,463.821z      "/>
			</g>
			<g>
				<path style="fill:#FFFFFF;" d="M103.475,158.629c-9.007-0.682-18.015-0.855-27.022-0.869c-0.001-0.003-0.002-0.006-0.003-0.01      c3.804-3.454,7.515-7.013,10.966-10.862c0.129-0.144,0.146-0.363,0.029-0.527c-0.135-0.19-0.399-0.233-0.589-0.098      c-4.173,2.986-8.09,6.259-11.913,9.635c-0.15-0.084-0.305-0.158-0.469-0.218c-0.01-3.922-0.05-7.844-0.091-11.767      c-0.113-4.987-0.225-9.973-0.502-14.96c-0.009-0.164-0.14-0.299-0.308-0.308c-0.18-0.01-0.334,0.128-0.344,0.308      c-0.277,4.987-0.39,9.974-0.503,14.96c-0.04,3.883-0.079,7.767-0.09,11.65c-0.187,0.043-0.37,0.097-0.543,0.171      c-1.341-1.445-2.691-2.881-4.079-4.284c-2.118-2.188-4.265-4.35-6.5-6.434c-0.075-0.07-0.192-0.079-0.278-0.015      c-0.096,0.072-0.116,0.208-0.045,0.304c1.826,2.45,3.74,4.821,5.683,7.166c1.23,1.519,2.497,3.003,3.773,4.48      c-0.165,0.253-0.285,0.533-0.375,0.828c-3.893,0.027-7.786,0.069-11.679,0.203c-4.987,0.131-9.974,0.311-14.96,0.648      c-0.121,0.008-0.22,0.104-0.228,0.228c-0.009,0.135,0.093,0.252,0.228,0.261c4.987,0.337,9.974,0.516,14.96,0.648      c3.924,0.136,7.848,0.177,11.772,0.204c0.007,0.016,0.014,0.03,0.021,0.045c-3.692,3.411-7.306,6.908-10.717,10.633      c-0.126,0.137-0.142,0.349-0.028,0.505c0.13,0.178,0.38,0.217,0.558,0.087c4.107-3.004,8.006-6.241,11.829-9.562      c0.196,0.089,0.401,0.159,0.616,0.208c0.024,3.983,0.029,7.965,0.133,11.948c0.091,4.987,0.216,9.974,0.451,14.961      c0.008,0.166,0.141,0.303,0.31,0.311c0.18,0.008,0.333-0.131,0.342-0.311c0.234-4.987,0.359-9.974,0.451-14.961      c0.105-4.022,0.108-8.044,0.133-12.066c0.114-0.041,0.223-0.088,0.331-0.141c1.369,1.527,2.73,3.063,4.138,4.555      c2.115,2.192,4.226,4.386,6.478,6.454c0.143,0.132,0.364,0.149,0.527,0.029c0.185-0.136,0.225-0.396,0.089-0.58      c-1.809-2.465-3.759-4.804-5.706-7.146c-1.344-1.58-2.735-3.118-4.119-4.663c0.053-0.096,0.114-0.187,0.157-0.289      c9.039-0.012,18.077-0.185,27.116-0.869c0.119-0.009,0.217-0.103,0.226-0.226C103.711,158.757,103.61,158.639,103.475,158.629z"/>
			</g>
		</g>
		<g>
			<g>
				<polygon style="fill:#F3C7D1;" points="179.734,262.449 167.148,266.474 163.124,279.06 159.099,266.474 146.513,262.449       159.099,258.424 163.124,245.839 167.148,258.424     "/>
			</g>
		</g>
		<g>
			<g>
				<polygon style="fill:#F3C7D1;" points="295.554,169.256 282.968,173.281 278.943,185.867 274.919,173.281 262.333,169.256       274.919,165.231 278.943,152.646 282.968,165.231     "/>
			</g>
		</g>
		<g>
			<g>
				<polygon style="fill:#F3C7D1;" points="436.686,400.129 424.1,404.154 420.075,416.74 416.05,404.154 403.465,400.129       416.05,396.105 420.075,383.519 424.1,396.105     "/>
			</g>
		</g>
		<g>
			<path style="fill:#FDBC08;" d="M139.729,182.679c0,2.753-2.232,4.986-4.986,4.986c-2.753,0-4.986-2.232-4.986-4.986     c0-2.754,2.232-4.986,4.986-4.986C137.497,177.693,139.729,179.925,139.729,182.679z"/>
			<g>
				<path style="fill:#FDBC08;" d="M233.593,240.877c0,2.754-2.232,4.986-4.986,4.986c-2.754,0-4.986-2.232-4.986-4.986      c0-2.753,2.232-4.986,4.986-4.986C231.361,235.891,233.593,238.123,233.593,240.877z"/>
				<circle style="fill:#FDBC08;" cx="263.411" cy="232.535" r="4.986"/>
			</g>
			<circle style="fill:#FDBC08;" cx="251.906" cy="255.546" r="4.986"/>
			<circle style="fill:#FDBC08;" cx="307.707" cy="299.266" r="4.986"/>
			<path style="fill:#FDBC08;" d="M338.579,458.615c0,2.753-2.232,4.986-4.986,4.986c-2.754,0-4.986-2.232-4.986-4.986     s2.232-4.986,4.986-4.986C336.347,453.629,338.579,455.861,338.579,458.615z"/>
			<path style="fill:#FDBC08;" d="M378.848,439.055c0,2.754-2.232,4.986-4.986,4.986c-2.753,0-4.986-2.232-4.986-4.986     c0-2.753,2.232-4.986,4.986-4.986C376.616,434.07,378.848,436.302,378.848,439.055z"/>
			<path style="fill:#FDBC08;" d="M210.487,449.41c0,2.754-2.232,4.986-4.986,4.986c-2.753,0-4.986-2.232-4.986-4.986     c0-2.753,2.232-4.986,4.986-4.986C208.255,444.425,210.487,446.657,210.487,449.41z"/>
			<circle style="fill:#FDBC08;" cx="100.515" cy="309.909" r="4.986"/>
			<circle style="fill:#FDBC08;" cx="50.755" cy="215.853" r="4.986"/>
			<g>
				<path style="fill:#FDBC08;" d="M338.867,137.329c0,2.753-2.232,4.986-4.986,4.986c-2.754,0-4.986-2.232-4.986-4.986      c0-2.754,2.232-4.986,4.986-4.986C336.635,132.343,338.867,134.575,338.867,137.329z"/>
				<path style="fill:#FDBC08;" d="M409.337,101.375c0,2.753-2.232,4.986-4.986,4.986c-2.754,0-4.986-2.232-4.986-4.986      s2.232-4.986,4.986-4.986C407.105,96.389,409.337,98.621,409.337,101.375z"/>
				<path style="fill:#FDBC08;" d="M338.867,162.928c0,2.754-2.232,4.986-4.986,4.986c-2.754,0-4.986-2.232-4.986-4.986      c0-2.753,2.232-4.986,4.986-4.986C336.635,157.943,338.867,160.175,338.867,162.928z"/>
				<path style="fill:#FDBC08;" d="M360.871,153.005c0,2.753-2.232,4.986-4.986,4.986c-2.754,0-4.986-2.232-4.986-4.986      c0-2.754,2.232-4.986,4.986-4.986C358.639,148.019,360.871,150.251,360.871,153.005z"/>
			</g>
			<circle style="fill:#FDBC08;" cx="160.631" cy="174.05" r="4.986"/>
			<circle style="fill:#FDBC08;" cx="154.303" cy="217.195" r="4.986"/>
		</g>
	</g>
</g>















</svg>
