<?xml version="1.0" encoding="iso-8859-1"?>
<!-- Generator: Adobe Illustrator 26.5.1, SVG Export Plug-In . SVG Version: 6.00 Build 0)  -->
<svg xmlns="http://www.w3.org/2000/svg" xmlns:xlink="http://www.w3.org/1999/xlink" version="1.1" id="Capa_1" x="0px" y="0px" viewBox="0 0 512 512" style="enable-background:new 0 0 512 512;" xml:space="preserve">
<g>
	<path style="fill:#FFFFFF;" d="M256,512c-53.298,0-104.386-16.222-147.742-46.913c-42.398-30.012-74.32-71.507-92.316-119.998   c-5.356-14.411-9.416-29.375-12.063-44.475C1.306,285.99,0,270.978,0,256c0-68.378,26.629-132.664,74.983-181.017   C123.336,26.629,187.622,0,256,0s132.664,26.629,181.018,74.983C485.37,123.336,512,187.622,512,256   c0,26.25-3.961,52.136-11.773,76.938c-3.527,11.229-7.875,22.284-12.919,32.851c-20.481,43.096-52.562,79.586-92.766,105.512   C353.253,497.927,305.345,512,256,512z"/>
	<g>
		<g>
			<g>
				<g>
					<path style="fill:#6E72FF;" d="M471.098,374.385c-0.568,0.982-98.919-72.123-158.561-53.863       c-4.829,1.478-11.765,176.282-12.362,176.397c-0.116,0.019-0.241,0.048-0.356,0.067c-24.869,4.754-50.709,5.611-76.675,1.925       c-0.173-0.029-0.346-0.048-0.52-0.077c-0.885-0.125-25.92-235.379-30.982-236.794       c-73.826-18.728-132.829,157.28-162.394,88.958c-11.741-27.121-18.613-56.416-19.508-86.51       C8.123,165.928,50.575,95.634,111.178,54.404c3.008-2.047,10.74,7.133,13.792,6.145c42.144-13.641,83.796,56.68,134,57.99       c46.673,1.217,97.898-93.177,137.109-67.686c15.601,10.134,30.075,22.212,43,36.235c1.155,1.242,2.281,2.493,3.397,3.763       c34.878,39.584,57.754,93.979,59.794,163.455C503.012,297.922,491.444,338.863,471.098,374.385z"/>
				</g>
			</g>
		</g>
		<g>
			<g>
				<g>
					<path style="fill:#F7EDE5;" d="M457.305,160.771l-23.589,42.018c0,0,55.287-11.057,53.076-11.795       C484.58,190.257,457.305,160.771,457.305,160.771z"/>
				</g>
			</g>
			<g>
				<g>
					<path style="fill:#F7EDE5;" d="M257.917,441.19l-45.437,16.045c0,0,48.862,28.132,47.685,26.12       C258.988,481.343,257.917,441.19,257.917,441.19z"/>
				</g>
			</g>
			<g>
				<g>
					<path style="fill:#F8BDFF;" d="M75.805,114.516l30.423,37.369c0,0,10.014-55.486,8.516-53.699       C113.246,99.972,75.805,114.516,75.805,114.516z"/>
				</g>
			</g>
			<g>
				<g>
					<circle style="fill:#FFC063;" cx="49.454" cy="242.842" r="25.432"/>
				</g>
			</g>
			<g>
				<g>
					
						<ellipse transform="matrix(0.9929 -0.1189 0.1189 0.9929 -34.3516 56.9442)" style="fill:#FFC063;" cx="460.176" cy="316.435" rx="25.432" ry="25.432"/>
				</g>
			</g>
			<g>
				<g>
					
						<rect x="353.339" y="76.322" transform="matrix(0.866 -0.5 0.5 0.866 0.2734 202.3172)" style="fill:#E36352;" width="48.653" height="48.653"/>
				</g>
			</g>
		</g>
		<g>
			<g>
				<g>
					<path style="fill:#F7EDE5;" d="M396.079,50.853l-27.929,90.784l-6.958,22.607H154.785l-8.97-22.607l-34.637-87.232       C194.33-2.175,311.637-4.043,396.079,50.853z"/>
				</g>
			</g>
			<g>
				<g>
					<g>
						<path style="fill:#B5E1E8;" d="M471.098,374.385c-36.052,62.97-99.696,108.925-171.279,122.601l-18.121-57.935l-42.376-0.665        l-16.178,60.526c-10.009-1.415-20.037-3.513-30.037-6.313C119.281,473.869,58.813,419.32,29.248,350.999l106.866-175.947        l-6.881-33.415h251.611l-9.826,33.415L471.098,374.385z"/>
					</g>
				</g>
				<g>
					<g>
						<path style="fill:#412945;" d="M371.018,173.608H136.114c-0.797,0-1.444,0.646-1.444,1.444s0.646,1.444,1.444,1.444h124.938        l-1.321,261.527c-33.294-0.07-65.447-0.409-66.076-0.416c-0.005,0-0.01,0-0.016,0c-0.79,0-1.435,0.636-1.443,1.428        c-0.008,0.798,0.631,1.451,1.428,1.46c2.83,0.03,41.501,0.439,77.511,0.439c28.022,0,54.436-0.248,61.068-1.113        c0.791-0.103,1.348-0.827,1.245-1.618c-0.103-0.789-0.831-1.354-1.618-1.244c-7.093,0.925-38.266,1.121-69.212,1.071        l1.321-261.533h107.078c0.797,0,1.444-0.646,1.444-1.444S371.815,173.608,371.018,173.608z"/>
					</g>
					<g>
						<path style="fill:#412945;" d="M222.23,239.735c-0.019-0.789-0.654-1.415-1.444-1.415H118.165        c-0.674,0-1.251,0.462-1.405,1.116L92.921,341.394c-0.144,0.626,0.135,1.261,0.683,1.578l59.592,34.435        c0.221,0.125,0.472,0.193,0.722,0.193c0.221,0,0.443-0.058,0.645-0.154l68.851-34.425c0.5-0.25,0.808-0.77,0.799-1.328        L222.23,239.735z M119.31,241.208h100.061l0.356,18.286l0,0.008l-104.195-1.319c-0.067-0.001-0.131,0.009-0.196,0.016        L119.31,241.208z M153.966,374.51l-57.985-33.501l18.738-80.178l0.001-0.003c0.223,0.148,0.488,0.237,0.776,0.241        l104.289,1.32v0.001l1.53,78.455L153.966,374.51z"/>
					</g>
					<g>
						<path style="fill:#412945;" d="M409.562,329.489l-2.185-9.557l-13.05-57.061l-3.359-14.686l-3.311-14.475        c-0.154-0.674-0.76-1.136-1.453-1.126l-5.024,0.164l-4.437,0.154l-0.914,0.029l-4.302,0.144l-6.025,0.202l-3.917,0.125        l-4.475,0.154l-4.437,0.144l-12.165,0.414l-3.368,0.106l-15.302,0.51l-24.041,0.809l-14.792,0.491        c-0.395,0.01-0.76,0.183-1.03,0.472c-0.26,0.289-0.395,0.674-0.366,1.068l7.257,104.912c0.039,0.549,0.375,1.03,0.885,1.241        l8.046,3.349l24.041,9.99l34.781,14.465c0.183,0.077,0.366,0.106,0.558,0.106c0.318,0,0.635-0.106,0.895-0.308l22.28-17.651        l4.254-3.368l6.361-5.043l3.359-2.656l13.05-10.336l1.675-1.328C409.485,330.596,409.687,330.028,409.562,329.489z         M297.798,238.417l24.041-0.799l15.302-0.51l3.368-0.116l10.587-0.346l2.695-0.096l1.116-0.029l2.435-0.087l6.053-0.202        l10.24-0.337l5.515-0.183l3.792-0.135l2.165-0.067l5.043,22.058l0.001,0.004l-103.989,3.9l-1.569-22.613L297.798,238.417z         M394.327,338.921l-3.359,2.666l-11.01,8.719l-4.254,3.368l-18.757,14.859l-35.109-14.6l-24.041-9.999l-6.111-2.541        l-5.332-77.031l-0.001-0.008l104.46-3.918l0.154,0.692l3.359,14.686l12.223,53.423L394.327,338.921z"/>
					</g>
				</g>
			</g>
		</g>
		<g>
			<g>
				<g>
					<path style="fill:#412945;" d="M468.606,268.713c-4.725,3.368-9.605,7.074-12.81,11.972c-2.377,3.628-3.186,7.497-3.032,11.424       c0.231,5.649,2.464,11.414,4.947,16.698c5.004,10.663,7.257,21.298,6.756,32.693c-0.202,4.947-0.934,10.028-2.185,15.322       c-1.097,4.668-2.598,9.489-4.494,14.513c-8.527,22.549-27.236,45.955-54.578,45.955c-1.049,0-2.098-0.039-3.166-0.106       c-5.543-0.356-10.288-1.79-14.099-4.254c-7.18-4.639-11.741-13.589-12.203-23.935c-0.241-5.408,0.539-10.673,1.713-15.812       c0.77-3.417,1.713-6.775,2.647-10.096l4.629,1.299c-0.818,2.897-1.646,5.842-2.348,8.796       c-1.213,5.159-2.06,10.375-1.829,15.601c0.385,8.796,4.129,16.313,9.999,20.105c3.118,2.011,7.093,3.185,11.809,3.493       c26.437,1.732,44.684-20.952,52.923-42.75c2.656-7.016,4.494-13.541,5.524-19.729c0.462-2.743,0.751-5.419,0.885-8.046       c0.568-10.798-1.549-20.788-6.342-31.009c-2.358-5.024-4.648-10.827-5.245-16.794c-0.539-5.361,0.289-10.846,3.667-16.005       c3.667-5.592,8.941-9.615,14.032-13.252c17.006-12.145,22.597-33.588,14.253-54.616c-2.252-5.688-5.216-10.721-8.7-15.216       c-6.169-7.959-13.974-14.205-22.395-19.335c-7.574-4.62-15.639-8.334-23.473-11.578c-8.97-3.715-21.26-8.796-25.331-19.874       c-3.445-9.345,0.433-19.393,4.283-26.168c1.511-2.656,3.205-5.216,5.062-7.651c0.347-0.462,0.703-0.924,1.068-1.376       c7.516-9.403,17.448-16.948,28.506-21.895c1.155,1.242,2.281,2.493,3.397,3.763c-14.08,5.929-26.36,16.342-33.848,29.527       c-3.349,5.899-6.756,14.532-3.956,22.135c3.099,8.412,12.098,12.723,22.655,17.092c7.997,3.311,16.226,7.102,23.993,11.828       c9.557,5.784,18.401,12.983,25.205,22.386c3.157,4.36,5.871,9.201,8.007,14.59C493.725,231.564,487.469,255.23,468.606,268.713       z"/>
				</g>
			</g>
			<g>
				<g>
					<g>
						<g>
							<g>
								<rect x="426.241" y="206.178" style="fill:#412945;" width="12.597" height="26.338"/>
							</g>
						</g>
					</g>
					<g>
						<g>
							<g>
								<rect x="426.241" y="244.35" style="fill:#412945;" width="12.597" height="26.338"/>
							</g>
						</g>
					</g>
					<g>
						<g>
							<g>
								<rect x="426.241" y="332.145" style="fill:#412945;" width="12.597" height="26.338"/>
							</g>
						</g>
					</g>
				</g>
				<g>
					<g>
						<g>
							<polygon style="fill:#E36352;" points="430.055,185.378 430.055,373.184 410.746,373.184 409.228,366.472 407.382,373.184          321.839,373.184 306.148,362.13 304.182,197.661 321.839,185.378 407.382,185.378 408.614,190.904 410.746,185.378                 "/>
						</g>
					</g>
				</g>
				<g>
					<g>
						<g>
							<rect x="297.798" y="185.378" style="fill:#412945;" width="24.04" height="187.805"/>
						</g>
					</g>
				</g>
				<g>
					<g>
						<g>
							<g>
								<rect x="407.382" y="185.378" style="fill:#412945;" width="3.364" height="187.805"/>
							</g>
						</g>
					</g>
					<g>
						<g>
							<g>
								<path style="fill:#412945;" d="M337.141,203.356v150.318h57.186V203.356H337.141z M390.969,350.306H340.51V206.715h50.459          V350.306z"/>
							</g>
						</g>
					</g>
					<g>
						<g>
							<g>
								<g>
									<g>
										<path style="fill:#412945;" d="M382.942,235.577c-0.491-1.001-1.087-1.944-1.761-2.829            c-3.205-4.177-8.257-6.881-13.916-6.881c-6.073,0-11.443,3.109-14.59,7.834c-0.606,0.924-1.145,1.906-1.578,2.945            c-0.866,2.079-1.347,4.36-1.347,6.746c0,6.612,3.676,12.377,9.085,15.36c2.502,1.376,5.38,2.165,8.431,2.165            c3.522,0,6.804-1.039,9.557-2.849c4.793-3.118,7.969-8.527,7.969-14.677C384.79,240.582,384.126,237.935,382.942,235.577z             M379.035,251.236v0.01c-0.626,0.953-1.367,1.819-2.194,2.57c-1.251,1.155-2.695,2.079-4.302,2.714h-0.01            c-1.03,0.423-2.108,0.722-3.243,0.885h-0.01c-0.654,0.096-1.328,0.144-2.011,0.144c-2.165,0-4.215-0.5-6.053-1.367h-0.01            c-1.02-0.491-1.963-1.087-2.829-1.8l-0.01-0.009c-1.626-1.309-2.945-2.964-3.85-4.87c-0.491-1.01-0.866-2.069-1.088-3.195            v-0.01c-0.212-0.943-0.318-1.915-0.318-2.916c0-1.848,0.366-3.618,1.011-5.235c0.231-0.568,0.491-1.116,0.789-1.636            c0.26-0.481,0.549-0.933,0.866-1.367c0.404-0.568,0.847-1.097,1.338-1.598c0.885-0.933,1.915-1.742,3.041-2.396            c0.972-0.568,2.011-1.03,3.118-1.357h0.01c1.27-0.366,2.599-0.568,3.984-0.568c2.185,0,4.235,0.491,6.092,1.376h0.01            c1.02,0.491,1.973,1.097,2.829,1.819c0.193,0.154,0.375,0.308,0.549,0.472c0.924,0.818,1.732,1.761,2.406,2.81            c0.135,0.202,0.27,0.414,0.395,0.635v0.01c0.597,1.03,1.068,2.127,1.386,3.32v0.019c0.327,1.174,0.491,2.416,0.491,3.695            C381.421,246.298,380.546,248.993,379.035,251.236z"/>
									</g>
								</g>
							</g>
							<g>
								<g>
									<g>
										<polygon style="fill:#412945;" points="371.609,238.637 364.69,238.252 359.646,230.37 362.479,228.556 366.596,234.989             369.983,235.177 374.311,229.322 377.016,231.322           "/>
									</g>
								</g>
							</g>
							<g>
								<g>
									<g>
										<polygon style="fill:#412945;" points="378.435,254.899 372.221,250.648 372.584,243.028 380.224,235.694 382.553,238.12             375.88,244.527 375.67,248.932 380.335,252.123           "/>
									</g>
								</g>
							</g>
							<g>
								<g>
									<g>
										<polygon style="fill:#412945;" points="369.476,258.018 367.267,250.899 364.815,250.899 361.021,256.463             358.242,254.568 363.036,247.535 369.745,247.535 372.689,257.021           "/>
									</g>
								</g>
							</g>
							<g>
								<g>
									<g>
										<polygon style="fill:#412945;" points="354.315,249.603 352.923,246.54 358.306,244.094 358.467,241.673 353.134,237.355             355.25,234.74 361.94,240.156 361.529,246.324           "/>
									</g>
								</g>
							</g>
						</g>
						<g>
							<g>
								<g>
									<g>
										<path style="fill:#412945;" d="M367.264,292.87c-9.653,0-17.516,7.853-17.516,17.525c0,9.653,7.863,17.516,17.516,17.516            c9.663,0,17.525-7.863,17.525-17.516C384.79,300.723,376.927,292.87,367.264,292.87z M379.044,318.229            c-0.625,0.953-1.367,1.819-2.204,2.579c-1.251,1.155-2.695,2.079-4.302,2.714h-0.01c-1.03,0.414-2.108,0.722-3.243,0.876            h-0.01c-0.654,0.096-1.328,0.144-2.011,0.144c-2.165,0-4.215-0.491-6.063-1.357h-0.01c-1.02-0.491-1.973-1.097-2.829-1.79            l-0.01-0.01c-1.617-1.328-2.935-2.974-3.84-4.879c-0.491-1.001-0.866-2.079-1.097-3.195            c-0.202-0.943-0.308-1.925-0.308-2.916c0-1.857,0.366-3.628,1.011-5.236v-0.019c0.433-1.068,0.982-2.069,1.655-2.993            c1.155-1.626,2.656-2.993,4.379-3.984c0.972-0.578,2.021-1.04,3.128-1.357h0.01c1.27-0.375,2.589-0.577,3.975-0.577            c2.185,0,4.235,0.491,6.092,1.376h0.01c1.02,0.5,1.973,1.107,2.829,1.809c1.347,1.088,2.483,2.425,3.349,3.927            c0.597,1.039,1.068,2.156,1.386,3.33v0.01c0.327,1.184,0.491,2.425,0.491,3.715            C381.421,313.282,380.546,315.986,379.044,318.229z"/>
									</g>
								</g>
							</g>
							<g>
								<g>
									<g>
										<polygon style="fill:#412945;" points="371.609,305.628 364.69,305.243 359.646,297.361 362.479,295.548 366.596,301.98             369.983,302.168 374.311,296.314 377.016,298.314           "/>
									</g>
								</g>
							</g>
							<g>
								<g>
									<g>
										<polygon style="fill:#412945;" points="378.435,321.892 372.221,317.638 372.584,310.021 380.224,302.685             382.554,305.112 375.88,311.518 375.67,315.924 380.335,319.115           "/>
									</g>
								</g>
							</g>
							<g>
								<g>
									<g>
										<polygon style="fill:#412945;" points="369.476,325.009 367.267,317.89 364.815,317.89 361.021,323.454 358.242,321.56             363.036,314.526 369.745,314.526 372.689,324.013           "/>
									</g>
								</g>
							</g>
							<g>
								<g>
									<g>
										<polygon style="fill:#412945;" points="354.315,316.594 352.923,313.532 358.306,311.086 358.467,308.665             353.134,304.346 355.25,301.731 361.94,307.147 361.529,313.315           "/>
									</g>
								</g>
							</g>
						</g>
					</g>
				</g>
				<g>
					<g>
						<g>
							<g>
								<rect x="416.889" y="197.972" style="fill:#F7EDE5;" width="8.589" height="34.927"/>
							</g>
						</g>
					</g>
					<g>
						<g>
							<g>
								<rect x="416.889" y="331.668" style="fill:#F7EDE5;" width="8.589" height="22.903"/>
							</g>
						</g>
					</g>
				</g>
			</g>
		</g>
	</g>
</g>
<g>
</g>
<g>
</g>
<g>
</g>
<g>
</g>
<g>
</g>
<g>
</g>
<g>
</g>
<g>
</g>
<g>
</g>
<g>
</g>
<g>
</g>
<g>
</g>
<g>
</g>
<g>
</g>
<g>
</g>
</svg>
