<svg id="Capa_1" enable-background="new 0 0 511.916 511.916" height="512" viewBox="0 0 511.916 511.916" width="512" xmlns="http://www.w3.org/2000/svg"><g><path d="m507.084 331.481c-2.91-1.109-6.2-.302-8.27 2.022l-21.233 23.852-42.957-73.799c-.041-.089-.083-.179-.128-.267-1.277-2.523-3.864-4.113-6.692-4.113h-55.354l31.474-85.392c2.063-5.594-3.863-12.603-10.423-9.286l-177.874 89.979v-97.83c.001-1.147-.264-2.317-.778-3.345l-33.219-70.713 22.066-55.013c2.712-6.761-5.269-13.109-11.247-8.947l-189.319 131.848c-5.895 4.105-2.897 13.654 4.286 13.654h105.354l-20.749 73.069c-2.648 9.328 11.781 13.427 14.43 4.098l19.438-68.452 33.623 42.84c3.933 3.826 7.867 3.826 11.8 0l29.315-37.352v254.105l-123.172-89.032 18.149-63.912c2.649-9.329-11.779-13.425-14.43-4.098l-19.583 68.963c-.861 3.033.266 6.28 2.821 8.127l139.223 100.634c1.252.938 2.807 1.493 4.492 1.493h87.002c2.4.017 4.738-1.173 6.138-3.111l77.04-104.818 87.277 65.489c1.766 1.349 4.11 1.845 6.255 1.348l34.252-7.848c3.408-.781 5.825-3.813 5.825-7.311v-79.874c0-3.111-1.923-5.901-4.832-7.008zm-123.83-124.989-37.79 102.528c-3.354 9.099 10.72 14.285 14.074 5.188l7.383-20.031h46.027l-92.367 125.721 24.883-67.51c3.354-9.099-10.72-14.286-14.074-5.188l-37.13 100.738-76.18-157.892zm-100.015 253.123h-67.612v-140.135zm-86.922-290.484h-41.377l19.058-47.512zm-15.881-103.856-41.658 103.856h-107.469zm-15.024 153.633-27.295-34.777h54.589zm261.64 81.456 40.036 68.78-16.123 18.112c-1.89 2.123-2.417 5.13-1.363 7.77l3.654 9.146-66.065-49.573zm69.864 112.024-22.192 5.085-9.472-23.707 31.664-35.57z"/></g></svg>