<?xml version="1.0" encoding="UTF-8"?>
<!-- Generator: Adobe Illustrator 26.5.1, SVG Export Plug-In . SVG Version: 6.00 Build 0)  -->
<svg xmlns="http://www.w3.org/2000/svg" xmlns:xlink="http://www.w3.org/1999/xlink" version="1.1" id="Capa_1" x="0px" y="0px" viewBox="0 0 512 512" style="enable-background:new 0 0 512 512;" xml:space="preserve" width="512" height="512">
<g>
	<path style="fill:#FFFFFF;" d="M291.879,512c-8.794,0-17.74-0.877-26.589-2.608c-3.924-0.767-7.862-1.715-11.7-2.818   c-0.904-0.245-1.958-0.571-3.012-0.9c-30.188-9.35-53.989-27.886-65.512-50.563c-4.825-0.218-9.599-0.569-14.273-1.045   c-14.579-1.484-32.831-5.053-44.659-19.606c-12.361-15.212-12.869-38.872-1.236-57.534c5.99-9.61,6.984-11.413,6.984-11.413   c-2.632,3.071-6.419,4.731-10.289,4.731c-1.782,0-3.584-0.353-5.299-1.08c-5.436-2.313-8.746-7.882-8.18-13.761l2.507-26.061   l-21.349-5.692c-5.822-1.554-9.919-6.764-10.052-12.789c-0.133-6.023,3.727-11.411,9.474-13.219l5.794-1.342l0.876-6.551   c-16.595,5.456-31.242,10.786-51.004,17.969c-1.463,0.532-2.997,0.778-4.525,0.778c-2.025,0-4.044-0.454-5.902-1.354   c-3.259-1.579-5.751-4.394-6.919-7.822c-7.038-20.653-0.117-44.675,16.832-58.418c6.135-4.975,13.456-8.467,21.321-10.256   c-2.175-40.562,9.006-80.738,32.088-114.469c25.935-37.9,64.778-64.444,109.373-74.743c13.482-3.114,27.28-4.693,41.007-4.693   c26.484,0,52.546,5.852,76.416,16.897l29.864-9.401l5.179-32.804c0.931-5.901,5.618-10.494,11.536-11.308   C371.251,0.042,371.869,0,372.481,0c5.237,0,10.08,3.041,12.308,7.903l11.88,25.92l31.574-2.77   c0.398-0.035,0.795-0.052,1.189-0.052c5.291,0,10.148,3.097,12.348,7.991c2.364,5.257,1.142,11.434-3.046,15.395l-20.071,18.986   l8.979,23.243c1.597,4.135,1.049,8.701-1.293,12.287c26.072,5.821,48.999,23.59,60.126,47.813   c1.589,3.457,1.649,7.422,0.169,10.926c-1.48,3.504-4.366,6.224-7.952,7.495c-30.238,10.718-59.952,20.248-88.81,29.414   l0.463,39.527c0.036,3.083-0.98,6.086-2.882,8.513l-24.816,31.671l8.791,19.18l31.575-2.769c0.398-0.035,0.795-0.053,1.189-0.053   c5.291,0,10.148,3.098,12.348,7.99c2.364,5.258,1.142,11.436-3.046,15.395l-20.072,18.988l8.981,23.243   c2.061,5.335,0.549,11.391-3.78,15.13c-2.519,2.178-5.677,3.296-8.857,3.296c-2.285,0-4.581-0.578-6.662-1.753l-23.464-13.263   l-10.776,12.573c24.369,18.872,37.669,45.376,32.576,71.439C374.736,488.009,337.905,512,291.879,512z"/>
	<g>
		<g>
			<path style="fill:none;stroke:#2E1144;stroke-width:2.8236;stroke-miterlimit:10;" d="M233.865,281.036     c1.55,27.037-13.071,54.384-36.416,68.111c-10.207,6.002-24.009,9.174-33.353,1.901c-6.92-5.386-9.092-16.063-4.689-23.648     c4.403-7.585,14.894-10.976,22.839-7.265c7.945,3.712,12.066,14.083,8.694,22.179c-3.388,8.134-12.242,12.25-20.134,16.169     c-12.806,6.36-25.369,14.474-32.932,26.608c-7.564,12.134-8.868,29.092,0.15,40.188c8.068,9.927,21.84,12.865,34.567,14.161     c25.225,2.57,50.849,1.188,75.651-4.08"/>
			<g>
				<path style="fill:#B179FF;" d="M368.437,451.316c-6.72,34.391-51.615,54.551-100.264,45.036      c-3.614-0.706-7.116-1.553-10.56-2.541c-0.932-0.254-1.835-0.536-2.739-0.819c-39.558-12.254-66.241-42.184-63.191-72.001      c0.085-0.932,0.198-1.864,0.367-2.795c0.057-0.452,0.141-0.875,0.226-1.327c5.76-29.45,39.501-48.452,79.624-47.323      c0.932,0.028,1.892,0.057,2.852,0.113c5.816,0.282,11.774,1.017,17.789,2.174C341.19,381.348,375.157,416.925,368.437,451.316z"/>
				<g>
					<g>
						<g>
							<path style="fill:#2E1144;" d="M257.613,493.81c-0.932-0.254-1.835-0.536-2.739-0.819         c8.697-19.963,14.485-41.083,17.252-62.598c0.141-0.932,0.254-1.863,0.339-2.795c2.259-19.257,2.09-38.796-0.564-58.052         c0.932,0.028,1.892,0.057,2.852,0.113C280.484,411.701,274.441,454.958,257.613,493.81z"/>
						</g>
						<g>
							<path style="fill:#2E1144;" d="M272.945,427.655l-0.311,2.795l-0.508-0.057l-80.443-9.402         c0.085-0.932,0.198-1.864,0.367-2.795l80.415,9.403L272.945,427.655z"/>
						</g>
					</g>
					<path style="fill:#FF93E2;" d="M311,442.019c0,0-20.185,9.372-15.86,18.744c4.325,9.372,51.905-18.744,51.905-18.744       s-43.254-36.045-50.464-28.836C289.372,420.392,311,442.019,311,442.019z"/>
				</g>
			</g>
		</g>
		<g>
			<path style="fill:#FF86B2;" d="M234.387,158.064c47.646-11.623,68.638,39.601,71.598,47.19l107.141-24.745     C390.516,90.132,300.234,34.036,209.96,54.885S63.147,165.739,82.458,256.878l109.187-25.217     C192.357,220.575,186.741,169.687,234.387,158.064z"/>
			<path style="fill:#FFAFA0;" d="M214.684,75.338c-79.093,18.267-128.637,97.038-111.91,176.849l94.398-21.802     c-22.335-26.019,10.24-62.3,37.216-68.53c26.975-6.23,74.52,9.12,64.026,45.148l94.398-21.802     C372.846,106.139,293.776,57.071,214.684,75.338z"/>
			<path style="fill:#FFC666;" d="M219.963,98.197c-66.598,15.381-108.366,81.568-94.614,148.775l71.822-16.588     c-17.618-26.019,10.24-62.3,37.216-68.53c26.975-6.23,72.315,14.592,64.026,45.148l71.791-16.581     C353.092,123.991,286.561,82.816,219.963,98.197z"/>
			<path style="fill:#00DBDA;" d="M226.147,124.974c-51.934,11.994-84.62,63.443-74.22,115.86l45.244-10.449     c-15.576-26.019,10.24-62.3,37.216-68.53c26.975-6.23,70.535,17.557,64.026,45.148l45.244-10.449     C330.018,144.885,278.082,112.98,226.147,124.974z"/>
			<path style="fill:#B179FF;" d="M231.783,149.376c-38.584,8.911-62.947,46.935-55.66,85.87l21.049-4.861     c-4.572-27.182,12.552-53.493,39.527-59.723c26.975-6.23,53.903,9.907,61.714,36.341l21.048-4.861     C308.937,163.954,270.367,140.465,231.783,149.376z"/>
		</g>
		<g>
			<path style="fill:#FFE7DE;" d="M234.387,231.109c-12.709-27.667-44.411-45.281-74.616-41.456     c-30.205,3.825-56.517,28.784-61.928,58.746c-13.816-8.218-32.695-6.849-45.181,3.275s-17.727,28.313-12.542,43.529     C106.304,271.745,168.202,254.569,234.387,231.109z"/>
			<path style="fill:#FFE7DE;" d="M474.45,162.623c-12.709-27.667-44.411-45.281-74.616-41.456     c-30.205,3.825-56.517,28.784-61.928,58.746c-13.816-8.218-32.695-6.849-45.181,3.275     c-12.486,10.124-17.727,28.313-12.542,43.529C346.367,203.259,408.265,186.082,474.45,162.623z"/>
		</g>
		<g>
			<polygon style="fill:#FF93E2;" points="255.009,185.856 196.375,144.524 139.664,222.383 143.509,273.327 276.156,373.293      377.083,244.49 376.362,182.973 302.829,128.184    "/>
			<g>
				<path style="fill:#2E1144;" d="M210.771,246.117c-0.047,1.563-0.259,3.212-0.642,4.955c-0.381,1.737-0.968,3.364-1.768,4.881      c-0.797,1.517-1.831,2.821-3.094,3.915c-1.268,1.095-2.807,1.795-4.621,2.098c-1.343,0.229-2.597,0.163-3.761-0.193      c-1.166-0.358-2.261-0.915-3.289-1.674c-1.026-0.758-1.955-1.674-2.793-2.741c-0.835-1.067-1.572-2.198-2.2-3.386      c-0.634-1.188-1.153-2.388-1.566-3.596c-0.411-1.208-0.706-2.349-0.888-3.425c-0.254-1.511-0.383-3.157-0.391-4.933      c-0.006-1.778,0.135-3.563,0.419-5.358c0.287-1.79,0.733-3.54,1.343-5.25c0.609-1.71,1.412-3.259,2.402-4.652      c0.993-1.393,2.173-2.575,3.546-3.551c1.373-0.973,2.984-1.616,4.831-1.927c1.175-0.199,2.305-0.154,3.389,0.127      c1.084,0.284,2.057,0.742,2.926,1.373c0.866,0.632,1.594,1.434,2.192,2.402c0.593,0.971,0.99,2.027,1.18,3.168l0.077,0.452      c0.102,0.607,0.204,1.357,0.301,2.256c0.099,0.899,0.085,1.773-0.05,2.625c-0.132,0.852-0.419,1.616-0.855,2.294      c-0.438,0.678-1.144,1.1-2.118,1.263c-1.177,0.199-2.112,0.08-2.807-0.356c-0.695-0.436-1.147-1.274-1.357-2.518      c-0.077-0.469-0.143-0.94-0.188-1.417c-0.047-0.477-0.107-0.949-0.187-1.42c-0.119-0.706-0.328-1.23-0.629-1.577      c-0.301-0.345-0.822-0.455-1.558-0.331c-0.841,0.141-1.552,0.538-2.131,1.186c-0.582,0.651-1.051,1.456-1.406,2.413      c-0.359,0.96-0.626,2.024-0.808,3.193c-0.185,1.172-0.298,2.338-0.345,3.505c-0.044,1.164-0.03,2.275,0.044,3.334      c0.077,1.056,0.176,1.955,0.301,2.694c0.102,0.604,0.251,1.296,0.455,2.073c0.199,0.778,0.469,1.511,0.808,2.195      c0.339,0.687,0.772,1.244,1.293,1.674c0.521,0.43,1.133,0.585,1.839,0.466c1.208-0.204,2.12-0.747,2.73-1.624      c0.612-0.88,0.954-1.933,1.023-3.152c-0.48,0.011-0.96-0.022-1.439-0.094c-0.48-0.077-0.937-0.221-1.37-0.441      c-0.436-0.223-0.805-0.521-1.109-0.904c-0.306-0.378-0.507-0.852-0.604-1.426c-0.174-1.04,0.039-1.914,0.645-2.622      c0.607-0.706,1.362-1.29,2.269-1.754c0.904-0.463,1.856-0.825,2.848-1.078c0.995-0.251,1.792-0.43,2.396-0.532      c0.438-0.074,1.081-0.149,1.933-0.221c0.849-0.074,1.707-0.074,2.564,0.008c0.86,0.077,1.627,0.27,2.3,0.571      c0.673,0.298,1.062,0.769,1.169,1.409c0.215,1.274,0.058,2.432-0.474,3.472C213.01,245.006,212.086,245.725,210.771,246.117z"/>
				<path style="fill:#2E1144;" d="M241.273,245.742c0.116,0.673,0.19,1.486,0.232,2.449c0.041,0.96-0.033,1.897-0.226,2.81      c-0.19,0.913-0.524,1.712-0.993,2.393c-0.474,0.684-1.18,1.108-2.12,1.266c-1.244,0.21-2.25-0.088-3.025-0.891      c-0.775-0.802-1.401-1.809-1.881-3.025c-0.482-1.213-0.857-2.471-1.128-3.769c-0.273-1.304-0.491-2.335-0.653-3.105      c-2.352,0.813-4.677,1.566-6.976,2.264c0.063,0.786,0.083,1.767,0.055,2.945c-0.025,1.18-0.176,2.336-0.449,3.472      c-0.276,1.133-0.709,2.148-1.301,3.041c-0.593,0.893-1.409,1.428-2.449,1.602c-0.808,0.138-1.486-0.05-2.038-0.562      c-0.554-0.51-1.017-1.15-1.384-1.916c-0.372-0.766-0.656-1.572-0.849-2.421c-0.196-0.849-0.342-1.558-0.439-2.129      c-0.323-1.914-0.488-3.827-0.502-5.741c-0.011-1.916,0.03-3.83,0.121-5.746c0.036-1.009,0.113-2.195,0.229-3.562      c0.116-1.365,0.298-2.785,0.551-4.263c0.251-1.475,0.59-2.948,1.015-4.42c0.425-1.47,0.968-2.812,1.627-4.029      c0.659-1.216,1.467-2.25,2.429-3.105c0.962-0.852,2.098-1.39,3.405-1.61c1.277-0.215,2.435-0.116,3.472,0.298      c1.034,0.411,1.985,1.029,2.851,1.85c0.863,0.822,1.63,1.787,2.3,2.901c0.673,1.114,1.271,2.255,1.795,3.427      c0.527,1.172,0.998,2.327,1.415,3.466c0.416,1.139,0.783,2.148,1.106,3.025c0.805,2.112,1.544,4.257,2.222,6.438      C240.366,241.278,240.895,243.492,241.273,245.742z M229.488,235.14c-0.069-0.403-0.204-1.062-0.411-1.977      c-0.207-0.916-0.472-1.82-0.794-2.716c-0.325-0.893-0.723-1.674-1.197-2.335c-0.474-0.662-1.015-0.943-1.618-0.841      c-0.336,0.055-0.618,0.336-0.841,0.841c-0.229,0.505-0.4,1.12-0.518,1.848c-0.119,0.731-0.201,1.53-0.245,2.399      c-0.041,0.871-0.066,1.704-0.069,2.498c-0.003,0.797,0.011,1.508,0.05,2.143c0.036,0.634,0.061,1.086,0.074,1.359      c1.985-0.507,3.926-1.092,5.815-1.757L229.488,235.14z"/>
				<path style="fill:#2E1144;" d="M279.338,241.347c0.047,0.893,0.044,1.773,0.003,2.641c-0.044,0.871-0.143,1.657-0.303,2.358      c-0.157,0.7-0.414,1.277-0.767,1.734c-0.356,0.455-0.802,0.731-1.34,0.822c-0.538,0.091-1.092-0.237-1.668-0.987      c-0.576-0.75-1.172-1.77-1.787-3.066c-0.615-1.296-1.227-2.774-1.834-4.431c-0.609-1.66-1.186-3.35-1.737-5.071      c-0.549-1.721-1.048-3.405-1.5-5.057c-0.449-1.649-0.83-3.088-1.141-4.315c0.014,1.312,0.019,2.779,0.016,4.404      c-0.003,1.624-0.052,3.279-0.146,4.972c-0.094,1.69-0.229,3.353-0.403,4.988c-0.174,1.635-0.405,3.107-0.706,4.42      c-0.295,1.31-0.67,2.382-1.117,3.218c-0.444,0.836-0.987,1.307-1.624,1.415c-0.571,0.097-1.208-0.196-1.908-0.871      c-0.703-0.675-1.425-1.596-2.175-2.768c-0.75-1.169-1.489-2.484-2.22-3.951c-0.731-1.464-1.431-2.945-2.096-4.439      c-0.667-1.492-1.268-2.909-1.806-4.252c-0.538-1.343-0.968-2.471-1.296-3.383c0.119,0.706,0.243,1.486,0.369,2.346      c0.13,0.86,0.223,1.473,0.287,1.845c0.027,0.168,0.11,0.722,0.254,1.665c0.141,0.943,0.273,2.076,0.394,3.405      c0.118,1.326,0.201,2.752,0.254,4.282c0.052,1.53-0.011,2.964-0.182,4.304c-0.171,1.34-0.469,2.496-0.891,3.463      c-0.425,0.973-1.05,1.561-1.878,1.77c-0.722-0.19-1.37-0.607-1.947-1.252c-0.574-0.645-1.095-1.431-1.563-2.352      c-0.466-0.924-0.877-1.927-1.23-3.006c-0.356-1.081-0.673-2.142-0.951-3.182c-0.278-1.04-0.502-2.013-0.673-2.917      c-0.171-0.905-0.303-1.641-0.4-2.212c-0.171-1.009-0.325-2.286-0.463-3.833c-0.141-1.55-0.218-3.185-0.232-4.908      c-0.016-1.726,0.055-3.463,0.21-5.217c0.152-1.751,0.427-3.345,0.824-4.776c0.4-1.431,0.938-2.636,1.619-3.615      c0.681-0.979,1.558-1.558,2.633-1.737c0.505-0.085,1.089,0.108,1.757,0.582c0.667,0.477,1.365,1.128,2.093,1.955      c0.725,0.827,1.453,1.768,2.184,2.818c0.728,1.051,1.434,2.115,2.118,3.19c0.681,1.078,1.296,2.112,1.845,3.108      c0.546,0.995,1.001,1.845,1.362,2.542c0.132-0.849,0.309-1.847,0.532-2.989c0.22-1.144,0.477-2.335,0.769-3.574      c0.292-1.244,0.637-2.476,1.034-3.698c0.397-1.224,0.841-2.338,1.332-3.334c0.485-0.998,1.009-1.828,1.572-2.493      c0.562-0.665,1.177-1.053,1.85-1.169c1.175-0.196,2.255,0.072,3.243,0.802c0.987,0.731,1.883,1.745,2.688,3.041      c0.808,1.299,1.525,2.785,2.151,4.459c0.626,1.671,1.177,3.342,1.646,5.005c0.472,1.665,0.858,3.234,1.155,4.701      c0.3,1.47,0.527,2.658,0.678,3.562c0.063,0.372,0.146,0.874,0.254,1.514c0.11,0.637,0.223,1.362,0.342,2.17      c0.119,0.808,0.221,1.671,0.306,2.589C279.214,239.502,279.286,240.423,279.338,241.347z"/>
				<path style="fill:#2E1144;" d="M304.872,234.558c0.107,0.637,0.044,1.285-0.19,1.947c-0.24,0.629-0.915,1.434-2.027,2.416      c-1.114,0.982-2.369,1.944-3.761,2.887c-1.398,0.943-2.76,1.779-4.086,2.501c-1.329,0.725-2.33,1.144-3,1.257      c-0.471,0.08-1.042,0.063-1.718-0.047c-0.676-0.11-1.359-0.278-2.054-0.51c-0.695-0.226-1.34-0.513-1.933-0.866      c-0.596-0.347-1.045-0.703-1.346-1.067c-0.174-0.212-0.38-0.662-0.618-1.346c-0.234-0.686-0.474-1.492-0.717-2.418      c-0.243-0.926-0.485-1.914-0.731-2.959c-0.245-1.048-0.474-2.043-0.687-2.995c-0.212-0.949-0.389-1.79-0.529-2.526      c-0.143-0.736-0.24-1.271-0.298-1.608c-0.21-1.241-0.408-2.677-0.596-4.304c-0.188-1.627-0.3-3.273-0.339-4.941      c-0.041-1.668,0.041-3.287,0.243-4.859c0.201-1.569,0.598-2.942,1.197-4.114c0.185-0.342,0.601-0.739,1.249-1.194      c0.648-0.455,1.426-0.915,2.333-1.379c0.907-0.463,1.889-0.921,2.953-1.379c1.062-0.455,2.093-0.86,3.085-1.219      c0.993-0.356,1.897-0.665,2.719-0.924c0.819-0.259,1.448-0.427,1.883-0.499c0.505-0.085,1.001-0.058,1.492,0.085      s0.927,0.372,1.307,0.687c0.38,0.314,0.7,0.684,0.965,1.106c0.259,0.422,0.433,0.885,0.518,1.39      c0.074,0.436,0.077,0.813,0.011,1.139c-0.066,0.32-0.188,0.687-0.361,1.095c-0.262,0.493-0.88,1.133-1.85,1.919      c-0.973,0.786-2.04,1.58-3.201,2.38c-1.161,0.8-2.28,1.533-3.358,2.195c-1.081,0.667-1.839,1.142-2.272,1.42      c-0.006,0.797-0.017,1.602-0.036,2.415c-0.017,0.816,0.008,1.632,0.077,2.449c0.949-0.711,2.04-1.415,3.27-2.107      c1.23-0.689,2.435-1.136,3.609-1.332c2.385-0.403,3.775,0.571,4.172,2.923c0.096,0.571,0.072,1.095-0.072,1.566      c-0.146,0.474-0.367,0.907-0.662,1.304c-0.298,0.394-0.651,0.756-1.062,1.084c-0.411,0.328-0.816,0.648-1.21,0.954      c-0.979,0.755-2.021,1.439-3.127,2.057c-1.103,0.62-2.209,1.227-3.317,1.828c-0.022,0.281-0.039,0.585-0.052,0.915      s0.005,0.648,0.055,0.949c0.08,0.471,0.193,0.935,0.339,1.395c0.146,0.458,0.292,0.918,0.439,1.376      c0.38-0.201,0.99-0.529,1.831-0.982c0.838-0.452,1.718-0.913,2.642-1.379c0.921-0.466,1.82-0.885,2.688-1.257      c0.871-0.37,1.525-0.593,1.961-0.667c0.505-0.085,0.993-0.052,1.467,0.091c0.471,0.146,0.891,0.37,1.252,0.67      c0.361,0.303,0.673,0.67,0.938,1.111C304.621,233.631,304.792,234.086,304.872,234.558z"/>
				<path style="fill:#2E1144;" d="M328.588,211.443c0.392,2.316,0.204,4.489-0.56,6.518s-1.914,3.896-3.455,5.609      c0.67,0.714,1.384,1.561,2.134,2.54c0.753,0.979,1.456,2.027,2.112,3.143c0.654,1.114,1.224,2.244,1.71,3.389      c0.485,1.144,0.816,2.22,0.984,3.229c0.182,1.073,0.083,2.082-0.292,3.025c-0.375,0.946-1.186,1.522-2.429,1.732      c-1.04,0.176-2.024-0.177-2.948-1.059c-0.926-0.88-1.8-1.966-2.622-3.262c-0.822-1.293-1.599-2.622-2.33-3.984      c-0.731-1.362-1.387-2.443-1.972-3.243c-0.571,0.303-1.119,0.631-1.649,0.976c-0.529,0.35-1.075,0.692-1.641,1.031      c0.091,0.742,0.204,1.77,0.339,3.077c0.132,1.307,0.165,2.622,0.097,3.946c-0.072,1.324-0.314,2.504-0.725,3.54      c-0.414,1.037-1.122,1.641-2.132,1.812c-1.108,0.185-2.04-0.124-2.799-0.926c-0.756-0.805-1.365-1.809-1.825-3.008      c-0.463-1.2-0.819-2.446-1.07-3.734c-0.254-1.285-0.441-2.3-0.565-3.039c-0.265-1.577-0.494-3.135-0.684-4.677      c-0.19-1.539-0.419-3.096-0.687-4.676c-0.243-1.442-0.51-2.881-0.805-4.321c-0.292-1.434-0.562-2.89-0.813-4.368      c-0.055-0.336-0.13-0.764-0.215-1.285c-0.088-0.521-0.154-1.062-0.199-1.624c-0.041-0.562-0.074-1.103-0.091-1.619      c-0.017-0.516,0.033-0.938,0.149-1.268c0.218-0.761,0.869-1.561,1.952-2.402c1.086-0.838,2.3-1.621,3.645-2.349      c1.346-0.728,2.675-1.348,3.987-1.861c1.312-0.516,2.302-0.83,2.975-0.943c1.712-0.29,3.276-0.223,4.696,0.193      c1.415,0.416,2.653,1.097,3.711,2.04c1.056,0.946,1.925,2.096,2.6,3.449C327.852,208.399,328.323,209.865,328.588,211.443z       M319.389,213.718c-0.149-0.874-0.46-1.503-0.943-1.886c-0.477-0.386-1.172-0.502-2.079-0.35      c-0.67,0.113-1.329,0.345-1.98,0.698c-0.648,0.35-1.233,0.725-1.754,1.125c0.582,2.63,1.078,5.256,1.486,7.881      c0.665-0.353,1.335-0.778,2.013-1.271c0.676-0.493,1.279-1.062,1.812-1.704c0.529-0.643,0.94-1.332,1.23-2.071      C319.464,215.397,319.536,214.592,319.389,213.718z"/>
				<path style="fill:#2E1144;" d="M249.043,288.297c-0.047,1.561-0.262,3.212-0.643,4.952c-0.381,1.737-0.971,3.367-1.768,4.88      c-0.8,1.517-1.831,2.821-3.096,3.915c-1.266,1.095-2.807,1.795-4.621,2.101c-1.343,0.226-2.595,0.16-3.761-0.196      c-1.166-0.356-2.261-0.913-3.287-1.674c-1.026-0.758-1.958-1.671-2.793-2.741c-0.838-1.067-1.572-2.198-2.203-3.383      c-0.632-1.191-1.153-2.388-1.564-3.596c-0.411-1.211-0.709-2.352-0.888-3.427c-0.256-1.511-0.386-3.154-0.392-4.933      c-0.006-1.776,0.132-3.563,0.419-5.355c0.284-1.792,0.731-3.54,1.34-5.25s1.412-3.259,2.404-4.655      c0.99-1.392,2.173-2.575,3.543-3.549c1.373-0.973,2.984-1.619,4.831-1.93c1.177-0.199,2.305-0.154,3.389,0.13      c1.084,0.284,2.06,0.739,2.926,1.37c0.866,0.632,1.597,1.434,2.192,2.402c0.596,0.973,0.99,2.027,1.183,3.171l0.074,0.452      c0.102,0.604,0.204,1.357,0.303,2.253c0.099,0.899,0.083,1.776-0.05,2.628c-0.135,0.849-0.419,1.616-0.858,2.291      c-0.438,0.681-1.144,1.103-2.118,1.266c-1.175,0.198-2.109,0.077-2.804-0.356c-0.698-0.436-1.15-1.277-1.359-2.517      c-0.08-0.471-0.141-0.943-0.185-1.417c-0.047-0.477-0.11-0.951-0.19-1.42c-0.118-0.706-0.328-1.233-0.626-1.577      c-0.3-0.347-0.822-0.458-1.561-0.334c-0.838,0.141-1.55,0.538-2.129,1.186c-0.585,0.654-1.053,1.456-1.409,2.415      c-0.356,0.957-0.626,2.021-0.808,3.19c-0.185,1.172-0.295,2.341-0.342,3.505c-0.047,1.166-0.03,2.278,0.044,3.334      c0.074,1.059,0.177,1.958,0.301,2.697c0.102,0.604,0.251,1.296,0.452,2.074c0.199,0.778,0.469,1.508,0.808,2.192      c0.342,0.689,0.772,1.244,1.293,1.674c0.521,0.43,1.136,0.585,1.842,0.466c1.208-0.204,2.118-0.745,2.73-1.624      c0.609-0.88,0.951-1.93,1.023-3.152c-0.482,0.011-0.962-0.019-1.442-0.094c-0.477-0.074-0.935-0.221-1.368-0.441      c-0.436-0.221-0.805-0.521-1.111-0.902c-0.306-0.381-0.507-0.855-0.604-1.428c-0.174-1.039,0.041-1.914,0.648-2.62      c0.607-0.706,1.362-1.293,2.267-1.756c0.907-0.463,1.858-0.822,2.851-1.075c0.993-0.254,1.792-0.433,2.396-0.535      c0.436-0.072,1.081-0.146,1.93-0.221c0.849-0.075,1.707-0.072,2.567,0.008c0.857,0.08,1.624,0.27,2.297,0.571      c0.673,0.301,1.062,0.772,1.172,1.409c0.215,1.277,0.055,2.435-0.477,3.474C251.282,287.185,250.356,287.902,249.043,288.297z"/>
				<path style="fill:#2E1144;" d="M266.522,262.606c0.108,0.64,0.061,1.233-0.141,1.784c-0.201,0.554-0.507,1.045-0.915,1.478      c-0.411,0.43-0.882,0.813-1.412,1.144c-0.532,0.331-1.059,0.593-1.58,0.783c0.571,3.808,1.048,7.489,1.423,11.054      c0.375,3.562,0.645,7.266,0.811,11.104l0.303-0.05c0.535-0.091,1.075-0.121,1.613-0.091c0.543,0.03,1.048,0.152,1.517,0.367      c0.466,0.215,0.86,0.51,1.186,0.888c0.32,0.378,0.535,0.868,0.637,1.472c0.13,0.775-0.003,1.486-0.394,2.137      c-0.389,0.656-0.946,1.249-1.665,1.784c-0.723,0.535-1.547,1.023-2.476,1.453c-0.929,0.433-1.867,0.808-2.815,1.125      c-0.949,0.314-1.856,0.579-2.716,0.791c-0.863,0.215-1.563,0.367-2.098,0.458c-0.403,0.069-0.902,0.135-1.495,0.201      c-0.593,0.066-1.166,0.058-1.712-0.022c-0.551-0.08-1.037-0.257-1.461-0.529c-0.427-0.276-0.689-0.695-0.786-1.268      c-0.119-0.703-0.08-1.359,0.11-1.961c0.193-0.604,0.485-1.161,0.882-1.676c0.397-0.518,0.869-0.957,1.409-1.326      c0.54-0.367,1.106-0.67,1.688-0.907c-0.077-1.883-0.168-3.761-0.276-5.625c-0.107-1.864-0.284-3.742-0.535-5.636      c-0.256-1.925-0.507-3.824-0.753-5.699c-0.248-1.875-0.496-3.758-0.747-5.65c-0.229,0.072-0.444,0.132-0.642,0.185      c-0.199,0.05-0.383,0.091-0.549,0.119c-0.471,0.08-0.984,0.113-1.536,0.102c-0.554-0.008-1.089-0.099-1.602-0.273      c-0.513-0.171-0.96-0.414-1.34-0.733c-0.383-0.314-0.62-0.758-0.717-1.329c-0.193-1.142,0.127-2.162,0.96-3.061      c0.835-0.902,1.878-1.665,3.138-2.291c1.257-0.626,2.564-1.13,3.915-1.514c1.351-0.386,2.446-0.648,3.287-0.789      c0.469-0.08,1.097-0.149,1.881-0.212c0.783-0.063,1.572-0.041,2.369,0.066c0.797,0.107,1.503,0.317,2.126,0.626      C266.034,261.393,266.404,261.903,266.522,262.606z"/>
				<path style="fill:#2E1144;" d="M293.112,266.053c0.389,2.316,0.204,4.489-0.56,6.516c-0.764,2.029-1.916,3.899-3.458,5.609      c0.673,0.714,1.384,1.563,2.137,2.542c0.75,0.979,1.456,2.024,2.109,3.141c0.654,1.117,1.224,2.247,1.712,3.389      c0.482,1.144,0.813,2.22,0.984,3.229c0.179,1.075,0.083,2.082-0.295,3.028c-0.375,0.943-1.186,1.522-2.427,1.729      c-1.042,0.176-2.024-0.177-2.95-1.056c-0.926-0.88-1.801-1.966-2.622-3.262c-0.824-1.293-1.599-2.622-2.33-3.984      c-0.731-1.362-1.387-2.443-1.969-3.243c-0.574,0.303-1.122,0.629-1.649,0.976c-0.53,0.35-1.075,0.692-1.641,1.029      c0.088,0.744,0.204,1.77,0.336,3.077c0.135,1.31,0.165,2.622,0.096,3.946c-0.072,1.326-0.312,2.506-0.725,3.543      c-0.414,1.037-1.122,1.641-2.129,1.809c-1.108,0.188-2.043-0.121-2.799-0.926c-0.758-0.805-1.368-1.806-1.828-3.008      c-0.461-1.2-0.819-2.443-1.07-3.731c-0.251-1.288-0.438-2.3-0.562-3.039c-0.267-1.58-0.496-3.138-0.687-4.677      c-0.19-1.539-0.419-3.099-0.684-4.676c-0.243-1.445-0.513-2.884-0.805-4.321c-0.295-1.434-0.568-2.892-0.816-4.37      c-0.055-0.334-0.127-0.764-0.215-1.282c-0.088-0.521-0.154-1.064-0.196-1.627c-0.044-0.562-0.074-1.1-0.091-1.616      c-0.019-0.516,0.03-0.938,0.146-1.268c0.218-0.761,0.869-1.561,1.955-2.402c1.084-0.838,2.297-1.621,3.645-2.349      c1.343-0.728,2.675-1.348,3.984-1.864c1.312-0.516,2.302-0.827,2.975-0.94c1.712-0.289,3.278-0.226,4.696,0.19      c1.417,0.416,2.655,1.1,3.711,2.043c1.056,0.946,1.925,2.093,2.6,3.447C292.373,263.006,292.844,264.473,293.112,266.053z       M283.91,268.325c-0.149-0.871-0.461-1.5-0.94-1.886c-0.48-0.386-1.175-0.502-2.079-0.35c-0.673,0.116-1.332,0.348-1.98,0.698      c-0.651,0.353-1.235,0.725-1.754,1.125c0.579,2.63,1.075,5.258,1.483,7.883c0.665-0.353,1.337-0.777,2.013-1.274      c0.678-0.491,1.279-1.059,1.812-1.701c0.529-0.643,0.94-1.332,1.23-2.074C283.985,270.007,284.056,269.199,283.91,268.325z"/>
				<path style="fill:#2E1144;" d="M322.196,281.251c0.141,0.838-0.069,1.685-0.634,2.539c-0.562,0.855-1.34,1.677-2.33,2.465      c-0.99,0.789-2.118,1.522-3.383,2.203c-1.268,0.678-2.529,1.288-3.786,1.831c-1.255,0.538-2.449,0.987-3.579,1.351      c-1.131,0.364-2.032,0.604-2.702,0.717c-0.637,0.108-1.326,0.163-2.071,0.165c-0.742,0.006-1.381-0.154-1.919-0.48      c-0.303-0.154-0.615-0.568-0.938-1.241c-0.317-0.67-0.654-1.478-1.004-2.421c-0.347-0.94-0.684-1.963-1.009-3.069      c-0.323-1.1-0.618-2.181-0.882-3.243c-0.265-1.059-0.499-2.04-0.7-2.937c-0.204-0.899-0.348-1.602-0.433-2.104      c-0.141-0.841-0.289-1.861-0.438-3.061c-0.152-1.199-0.29-2.49-0.419-3.866c-0.13-1.379-0.226-2.785-0.298-4.224      c-0.069-1.439-0.099-2.807-0.094-4.103c0.005-1.296,0.08-2.473,0.232-3.535c0.149-1.062,0.358-1.908,0.634-2.545      c0.485-1.012,1.213-1.602,2.189-1.765c0.67-0.113,1.28,0.016,1.825,0.391c0.546,0.372,1.026,0.896,1.431,1.572      c0.408,0.673,0.761,1.442,1.062,2.308c0.301,0.863,0.56,1.726,0.775,2.589c0.215,0.863,0.383,1.66,0.51,2.399      c0.124,0.739,0.223,1.329,0.295,1.762c0.441,2.622,0.819,5.228,1.133,7.814c0.317,2.589,0.695,5.195,1.136,7.814l0.331,1.963      c1.434-0.722,3.005-1.448,4.715-2.167c1.707-0.72,3.367-1.216,4.98-1.486c0.571-0.097,1.155-0.16,1.757-0.193      c0.598-0.03,1.142,0.025,1.632,0.165c0.491,0.141,0.913,0.4,1.271,0.769C321.841,280.005,322.078,280.546,322.196,281.251z"/>
			</g>
		</g>
		<g>
			<polygon style="fill:#FFC666;" points="366.269,54.891 372.757,13.8 388.617,48.403 429.709,44.799 403.036,70.03      415.291,101.75 382.129,83.007 356.177,113.285 359.781,75.798 327.34,67.147    "/>
			<polygon style="fill:#FFC666;" points="131.974,298.559 138.462,257.467 154.322,292.07 195.414,288.466 168.74,313.698      180.996,345.418 147.834,326.674 121.881,356.952 125.486,319.465 93.045,310.814    "/>
		</g>
		<polygon style="fill:#FFC666;" points="341.037,324.511 347.526,283.419 363.386,318.023 404.477,314.418 377.804,339.65     390.059,371.37 356.897,352.627 330.945,382.905 334.549,345.418 302.108,336.767   "/>
	</g>
</g>















</svg>
