<?xml version="1.0" encoding="UTF-8"?>
<!-- Generator: Adobe Illustrator 27.2.0, SVG Export Plug-In . SVG Version: 6.00 Build 0)  -->
<svg xmlns="http://www.w3.org/2000/svg" xmlns:xlink="http://www.w3.org/1999/xlink" version="1.1" id="Capa_1" x="0px" y="0px" viewBox="0 0 512 512" style="enable-background:new 0 0 512 512;" xml:space="preserve" width="512" height="512">
<g>
	<g>
		<path style="fill:#FFFFFF;" d="M255.06,512c-1.774,0-3.553-0.359-5.227-1.087c-2.053-0.891-3.81-2.277-5.143-3.996    c-1.926,1.679-4.354,2.806-7.052,3.129l-9.306,1.115c-0.522,0.064-1.043,0.094-1.562,0.094c-3.403,0-6.699-1.324-9.163-3.731    c-2.84-2.772-4.275-6.68-3.899-10.631l3.793-39.898c-13.35-0.222-27.008-2.977-39.614-8.002    c-18.577-7.404-36.087-19.631-52.163-36.404c-1.343,0.444-2.726,0.658-4.098,0.66c-4.068,0-8.039-1.894-10.581-5.354    c-3.012-4.1-3.326-9.459-1.083-13.796c-0.042-0.056-0.083-0.111-0.125-0.165c-21.619-28.502-35.256-59.936-39.438-90.904    c-1.525-11.297-1.914-23.02-1.178-35.73c-18.123-34.46-28.817-67.134-32.206-78.243l-0.351-0.675    c-1.651-3.226-1.948-6.936-0.818-10.416c1.13-3.48,3.548-6.31,6.811-7.966c1.907-0.97,4.048-1.482,6.189-1.482    c4.203,0,8.069,1.887,10.628,5.064c4.434,3.207,12.944,9.447,23.631,17.689c1.561-5.621,3.165-10.917,4.828-15.949    c-2.643-18.718-3.658-32.194-3.916-36.035c-0.895-5.221,1.342-10.423,5.516-13.418c0.366-3.881,2.45-7.438,5.737-9.651    c2.201-1.482,4.758-2.236,7.327-2.236c1.883,0,3.773,0.405,5.535,1.225c0.45,0.209,3.009,1.429,7.145,3.945    c13.283-18.697,31.001-34.876,51.384-46.897c0.246-0.145,0.493-0.29,0.742-0.435c0.159-15.325,4.451-30.189,12.606-43.436    c6.494-10.552,14.985-19.362,25.236-26.184C207.443,0.735,209.978,0,212.514,0c2.381,0,4.764,0.646,6.875,1.945    c4.36,2.682,6.762,7.655,6.154,12.739c-1.301,10.843,0.459,21.746,4.989,31.563c2.001-0.97,4.025-1.99,6.098-3.037    c7.749-3.908,15.761-7.949,24.964-10.524c12.401-3.472,25.586-5.232,39.189-5.232c31.759,0,64.11,9.475,91.094,26.68    c30.821,19.651,55.752,49.986,70.379,85.579c6.944,8.98,12.316,23.09,10.774,35.655c0.072,0.331,0.14,0.664,0.204,0.997    c9.228,48.06,0.553,99.33-24.426,144.367c-0.638,1.149-1.288,2.288-1.952,3.419c5.253,3.404,7.373,10.052,5.049,15.875    c-2.018,5.057-6.899,8.258-12.18,8.258c-0.83,0-1.668-0.079-2.507-0.241l-6.672-1.296c-4.895,5.446-10.04,10.109-15.38,13.94    l-0.302,1.1c-1.575,5.73-6.783,9.642-12.644,9.642c-0.33,0-0.662-0.013-0.996-0.036c-1.539-0.117-3.005-0.498-4.352-1.098    c-4.444,1.557-8.964,2.601-13.525,3.125c-2.646,0.303-5.46,0.448-8.603,0.448c-3.014,0-5.934-0.13-8.757-0.258    c-2.649-0.12-5.152-0.233-7.573-0.233c-2.201,0-4.087,0.098-5.766,0.297c-9.182,1.089-18.496,5.905-28.431,14.71    c-0.721,1.183-1.446,2.364-2.198,3.532c-1.318,2.029-2.659,3.977-4.008,5.931c0,0-1.506,2.185-1.601,2.313l-5.431,7.349    c-0.138,0.186-0.279,0.367-0.426,0.545c-0.67,0.814-1.334,1.632-1.999,2.452c-1.308,1.612-2.619,3.225-3.965,4.803    c-0.07,0.083-3.892,4.346-3.892,4.346c-2.437,2.862-5.83,4.628-9.552,4.989c-1.623,1.706-3.364,3.47-5.217,5.245l25.881,24.921    c5.028,4.841,5.386,12.771,0.815,18.046l-9.679,11.167c-0.51,0.589-1.067,1.125-1.664,1.608c-0.067,0.997-0.251,1.995-0.551,2.969    c-1.121,3.641-3.769,6.614-7.256,8.147l-9.306,4.094c-1.716,0.754-3.51,1.113-5.277,1.113c-2.063,0-4.089-0.489-5.911-1.405    c-1.041,2.311-2.753,4.327-5.009,5.736l-5.956,3.722C259.899,511.327,257.485,512,255.06,512z"/>
	</g>
	<g>
		<g>
			<path style="fill:#A27CFF;" d="M123.844,127.923c-17.543,25.572-26.944,55.815-33.925,86.03     c-6.556,28.379-11.21,57.72-7.313,86.584c4.168,30.868,18.065,59.914,36.889,84.73c16.42,21.647,37.214,40.74,62.453,50.8     c25.239,10.06,55.321,10.075,78.499-4.101c16.696-10.212,28.472-26.57,41.463-41.209c12.991-14.639,28.957-28.545,48.392-30.851     c10.192-1.209,20.557,0.906,30.754-0.26c24.819-2.84,43.365-24.169,55.482-46.015c22.681-40.893,31.832-89.606,23.014-135.529     c-8.818-45.923-36.095-88.501-75.525-113.64c-34.329-21.888-80.024-30.981-119.692-19.876     c-13.192,3.693-24.555,11.363-37.177,16.459c-18.454,7.451-37.263,11.534-54.628,21.775     C153.329,94.141,136.469,109.52,123.844,127.923z"/>
		</g>
		<g>
			<g>
				<polygon style="fill:#FFC945;" points="282.452,199.168 279.16,155.833 294.454,196.513 326.915,190.746 301.268,206.534       314.976,233.171 291.663,213.15 268.652,241.969 278.948,210.022 253.081,204.993     "/>
			</g>
			<g>
				<polygon style="fill:#FFC945;" points="400.497,310.524 427.409,276.399 411.129,316.694 438.925,334.423 409.361,328.682       401.419,357.568 397.812,327.05 361.366,332.685 390.57,316.14 374.935,294.929     "/>
			</g>
			<g>
				<g>
					<path style="fill:#FFC945;" d="M322.842,80.782c-1.204,9.986-4.538,19.891-10.155,29.017       c-20.782,33.764-65.011,44.291-98.776,23.509c-33.78-20.792-44.307-65.021-23.524-98.785       c5.617-9.126,12.958-16.565,21.331-22.138c-3.231,26.955,9.041,54.603,33.679,69.768       C270.036,97.318,300.232,95.809,322.842,80.782z"/>
				</g>
			</g>
			<g>
				<g>
					<g>
						<g>
							<g>
								<path style="fill:#2F2444;" d="M238.393,409.347c0,0-74.646-219.123-52.008-312.309c0,0,32.995,29.083,50.235,96.494          S238.393,409.347,238.393,409.347z"/>
							</g>
							<g>
								<g>
									<path style="fill:#86DFD1;" d="M47.788,181.178c0,0,22.195,79.066,66.044,130.541           c43.849,51.474,125.34,97.587,125.34,97.587s-41.563-86.595-79.12-130.939S47.788,181.178,47.788,181.178z"/>
								</g>
								<g style="opacity:0.3;">
									<path style="fill:#2F2444;" d="M47.788,181.178c0,0,22.195,79.066,66.044,130.541           c43.849,51.474,125.34,97.587,125.34,97.587s-41.563-86.595-79.12-130.939S47.788,181.178,47.788,181.178z"/>
								</g>
							</g>
							<g>
								<path style="fill:#FBEEE5;" d="M234.998,407.997c-0.091,0-0.183-0.023-0.268-0.07          c-55.023-31.001-102.86-81.999-150.545-160.493c-12.97-21.35-25.291-43.467-36.621-65.738          c-0.137-0.269-0.03-0.599,0.239-0.735c0.269-0.138,0.598-0.03,0.735,0.239c11.318,22.247,23.626,44.34,36.581,65.667          c47.583,78.327,95.294,129.203,150.147,160.108c0.263,0.148,0.356,0.482,0.208,0.745          C235.375,407.897,235.189,407.997,234.998,407.997z"/>
							</g>
							<g>
								<path style="fill:#2F2444;" d="M240.335,411.057c0,0-133.785-188.914-138.534-284.693c0,0,39.894,18.519,75.563,78.261          C213.033,264.368,240.335,411.057,240.335,411.057z"/>
							</g>
							<g>
								<g>
									<path style="fill:#86DFD1;" d="M229.698,113.246c0,0-31.268,75.937-28.476,143.498           c2.792,67.561,38.527,154.107,38.527,154.107s20.659-93.804,18.426-151.874           C255.941,200.909,229.698,113.246,229.698,113.246z"/>
								</g>
								<g style="opacity:0.3;">
									<path style="fill:#2F2444;" d="M229.698,113.246c0,0-31.268,75.937-28.476,143.498           c2.792,67.561,38.527,154.107,38.527,154.107s20.659-93.804,18.426-151.874           C255.941,200.909,229.698,113.246,229.698,113.246z"/>
								</g>
							</g>
							<g>
								<path style="fill:#FBEEE5;" d="M241.117,408.668c-0.007,0-0.014,0-0.021,0c-0.302-0.011-0.538-0.265-0.526-0.566          c3.501-94.648,5.514-195.206-11.263-292.61c-0.051-0.297,0.148-0.58,0.446-0.631c0.294-0.057,0.581,0.148,0.631,0.446          c16.795,97.508,14.781,198.13,11.278,292.836C241.652,408.436,241.41,408.668,241.117,408.668z"/>
							</g>
							<g>
								<path style="fill:#86DFD1;" d="M239.749,410.852c0,0-78.17-58.628-108.322-122.839          C101.276,223.801,96.25,136.697,96.25,136.697s34.06,30.151,60.303,76.495S239.749,410.852,239.749,410.852z"/>
							</g>
							<g>
								<path style="fill:#86DFD1;" d="M239.749,410.852c0,0-105.53-206.035-96.596-301.514c0,0,36.852,24.009,63.653,88.221          C233.607,261.77,239.749,410.852,239.749,410.852z"/>
							</g>
							<g>
								<path style="fill:#FBEEE5;" d="M240.254,409.288c-0.269,0-0.503-0.199-0.541-0.473          C221.755,277.9,191.807,185.943,142.61,110.65c-0.166-0.252-0.094-0.591,0.159-0.756c0.251-0.166,0.592-0.094,0.756,0.159          c27.009,41.335,48.245,88.196,64.92,143.26c13.58,44.841,24.162,95.658,32.351,155.355c0.041,0.299-0.168,0.575-0.467,0.616          C240.304,409.286,240.279,409.288,240.254,409.288z"/>
							</g>
							<g>
								<path style="fill:#FBEEE5;" d="M239.802,410.587c-0.164,0-0.326-0.073-0.434-0.213          c-35.544-46.134-80.171-108.066-110.027-178.062c-13.658-32.019-24.014-65.019-33.171-95.911          c-0.085-0.29,0.08-0.594,0.369-0.68c0.288-0.087,0.593,0.079,0.68,0.369c9.147,30.86,19.493,63.824,33.128,95.793          c29.808,69.882,74.383,131.741,109.888,177.824c0.184,0.239,0.14,0.583-0.1,0.767          C240.036,410.55,239.918,410.587,239.802,410.587z"/>
							</g>
						</g>
						<g>
							<polygon style="fill:#86DFD1;" points="234.537,407.315 225.976,497.397 235.282,496.281 236.771,408.432 254.266,498.142          260.222,494.419 239.376,409.549 278.089,488.091 287.395,483.997 240.865,409.549 292.234,474.691 301.913,463.524          241.61,405.454        "/>
						</g>
					</g>
					<g>
						<g>
							<path style="fill:#2F2444;" d="M228.303,411.667c-0.413,0-0.808-0.235-0.993-0.635c-0.254-0.548-0.015-1.198,0.533-1.451         l18.705-8.655c0.546-0.253,1.197-0.015,1.451,0.533c0.254,0.548,0.015,1.198-0.533,1.451l-18.705,8.655         C228.613,411.634,228.456,411.667,228.303,411.667z"/>
						</g>
						<g>
							<path style="fill:#2F2444;" d="M229.141,413.9c-0.425,0-0.829-0.249-1.006-0.665c-0.237-0.555,0.021-1.198,0.577-1.435         l18.984-8.096c0.554-0.236,1.198,0.021,1.435,0.577c0.237,0.555-0.021,1.198-0.577,1.434l-18.984,8.096         C229.429,413.872,229.284,413.9,229.141,413.9z"/>
						</g>
					</g>
					<g>
						<g>
							<path style="fill:#2F2444;" d="M152.645,352.573c-0.321,0-0.635-0.142-0.847-0.402c-0.304-0.372-0.33-0.899-0.063-1.298         l36.922-55.383L85.047,274.008c-0.469-0.097-0.82-0.488-0.866-0.965c-0.046-0.477,0.223-0.928,0.664-1.114l166.391-69.981         c0.444-0.188,0.959-0.061,1.267,0.312c0.308,0.372,0.334,0.901,0.067,1.303l-60.296,90.444l65.564,13.594         c0.472,0.098,0.823,0.492,0.867,0.971c0.044,0.479-0.23,0.931-0.676,1.112l-104.972,42.808         C152.923,352.547,152.783,352.573,152.645,352.573z M190.966,295.969l-35.435,53.152l98.35-40.107L190.966,295.969z          M88.937,272.581l101.028,20.948l58.771-88.156L88.937,272.581z"/>
						</g>
						<g>
							<g>
								<path style="fill:#2F2444;" d="M241.982,403.57c-0.244,0-0.488-0.081-0.688-0.243c-2.04-1.399-59.175-33.871-89.19-50.896          c-0.525-0.298-0.71-0.965-0.412-1.491c0.298-0.525,0.965-0.71,1.491-0.412c33.135,18.795,88.833,50.436,89.571,51.175          c0.427,0.427,0.427,1.119,0,1.546C242.542,403.463,242.262,403.57,241.982,403.57z"/>
							</g>
							<g>
								<path style="fill:#2F2444;" d="M232.677,409.154c-0.088,0-0.178-0.011-0.267-0.033c-0.586-0.147-0.941-0.741-0.795-1.327          l24.94-99.388c0.147-0.586,0.736-0.942,1.327-0.794c0.585,0.147,0.941,0.741,0.794,1.327l-24.94,99.388          C233.612,408.823,233.166,409.154,232.677,409.154z"/>
							</g>
						</g>
					</g>
				</g>
				<g>
					<g>
						<g>
							<path style="fill:#FBEEE5;" d="M367.246,216.457c-1.727,11.681-3.917,23.3-6.448,34.826         c-2.534,11.55-5.659,22.949-8.964,34.278c-6.547,22.548-14.194,45.043-24.263,66.814         c-5.078,10.856-10.807,21.484-17.376,31.693c-1.66,2.556-3.404,5.03-5.13,7.553l-5.432,7.348         c-1.939,2.354-3.838,4.76-5.821,7.084l-3.071,3.426l-0.774,0.862c-0.228,0.299-0.543,0.539-1.151,0.505         c-5.461-0.969-10.825-6.346-12.415-11.548c-0.134-0.583,0.048-0.888,0.294-1.138l0.713-0.752l2.791-3.087l5.305-6.4         l5.016-6.698c1.58-2.307,3.226-4.583,4.763-6.92c6.213-9.315,11.702-19.198,16.74-29.401         c10.115-20.352,18.092-41.979,25.89-63.842c3.88-10.875,7.352-21.875,10.646-32.947c3.291-11.048,6.224-22.238,8.766-33.504         c2.35-9.997,4.378-20.06,6.11-30.187c1.634-9.575,2.996-19.233,4.128-28.922c0.378-3.175,0.712-6.379,1.02-9.563         c0.083-0.625,0.643-1.115,1.294-1.051c0.578,0.077,1.011,0.535,1.053,1.106c0.158,2.87,0.243,5.753,0.328,8.637         c0.195,9.278-0.013,18.573-0.57,27.844C370.014,193.827,368.802,205.177,367.246,216.457z"/>
						</g>
						<g>
							<path style="fill:#2F2444;" d="M363.432,184.425c1.634-9.575,2.996-19.233,4.128-28.922l3.695-0.871         c0.195,9.278-0.013,18.573-0.57,27.844L363.432,184.425z"/>
						</g>
						<g>
							<g>
								<path style="fill:#F14537;" d="M458.581,176.183L280.61,152.376c-2.428-0.374-3.955-0.76-6.068-2.012          c1.379-10.857,11.34-18.528,21.288-23.09c9.948-4.563,20.967-7.499,29.139-14.778c4.681-4.17,8.133-9.529,12.46-14.066          c13.934-14.609,37.366-19.152,55.751-10.81c7.487,3.397,11.398,8.437,15.79,15.387c4.393,6.95,8.097,14.431,13.655,20.489          c7.2,7.849,17.011,12.772,25.022,19.791C455.659,150.305,461.691,165.996,458.581,176.183z"/>
							</g>
							<g>
								<g>
									<path style="fill:#FBEEE5;" d="M352.503,94.525c-0.381-1.957-1.35-3.826-2.866-5.121c-1.515-1.295-3.593-1.969-5.556-1.623           c-2.348,0.414-4.28,2.212-5.376,4.329c-1.096,2.118-1.466,4.532-1.661,6.908c1.731,2.287,5.522,2.39,8.269,1.564           C348.06,99.755,350.304,96.366,352.503,94.525z"/>
								</g>
								<g>
									<path style="fill:#FBEEE5;" d="M364.147,95.259c-1.99,1.118-4.035,2.998-3.694,5.254c0.29,1.92,2.205,3.149,4.043,3.776           c2.646,0.903,5.533,1.091,8.274,0.539c1.609-0.324,3.294-1.001,4.115-2.422c1.189-2.057,0.025-4.757-1.733-6.355           C371.647,92.867,368.016,93.085,364.147,95.259z"/>
								</g>
								<g>
									<path style="fill:#FBEEE5;" d="M370.109,83.799c-0.493-1.833-2.195-3.213-4.063-3.55c-1.868-0.337-3.835,0.284-5.338,1.442           c-1.503,1.158-2.572,2.812-3.266,4.579c0.437,1.287,1.734,2.006,3.059,2.307C364.052,89.382,368.047,86.801,370.109,83.799           z"/>
								</g>
								<g>
									<path style="fill:#FBEEE5;" d="M396.042,90.095c0.205-1.516-0.089-3.119-0.941-4.39c-0.852-1.271-2.284-2.171-3.812-2.251           c-1.528-0.08-3.102,0.72-3.826,2.068c-0.96,1.787,0.662,3.706,2.329,4.862C391.461,91.54,394.688,91.605,396.042,90.095z"/>
								</g>
								<g>
									<path style="fill:#FBEEE5;" d="M389.657,97.447c-1.287,0.826-2.106,2.337-2.095,3.867c0.009,1.178,0.509,2.363,1.413,3.118           c0.624,0.521,1.411,0.824,2.216,0.939c2.098,0.301,4.392-0.814,5.233-2.759C398.197,98.511,393.077,95.251,389.657,97.447z           "/>
								</g>
								<g>
									<path style="fill:#FBEEE5;" d="M344.475,113.632c-0.565,2.247,0.899,4.812,3.124,5.456c2.225,0.644,4.84-0.754,5.529-2.965           c0.314-1.008,0.259-2.104-0.006-3.126C351.948,108.477,345.491,109.592,344.475,113.632z"/>
								</g>
								<g>
									<path style="fill:#FBEEE5;" d="M383.137,113.882c1.211,0.192,2.38,0.781,3.6,0.655c1.31-0.135,2.45-1.081,3.766-1.119           c1.116-0.033,2.18,0.627,2.824,1.539c0.644,0.912,0.913,2.045,0.97,3.16c0.093,1.811-0.403,3.744-1.739,4.97           c-0.842,0.773-1.948,1.206-3.065,1.449c-4.147,0.901-8.317-0.858-11.07-3.956           C375.447,117.23,379.015,113.227,383.137,113.882z"/>
								</g>
								<g>
									<path style="fill:#FBEEE5;" d="M418.071,118.29c1.3-2.014,1.218-4.662,0.458-6.935c-0.553-1.655-1.505-3.267-3.023-4.127           c-1.518-0.861-3.674-0.737-4.772,0.618c-1.178,1.452-1.253,3.63-0.592,5.379c0.661,1.749,2.043,3.155,3.623,4.155           C415.106,118.229,416.632,118.961,418.071,118.29z"/>
								</g>
							</g>
						</g>
					</g>
					<g>
						<path style="fill:#FBEEE5;" d="M319.55,363.757l-0.003,0.023c-0.409,3.406-3.512,5.84-6.921,5.454        c-3.429-0.411-5.862-3.515-5.454-6.921c0.028-0.208,0.059-0.439,0.11-0.644c5.389-24.092,5.831-49.575,1.215-74.37        c-1.095-5.891-2.477-11.749-4.176-17.532c-0.413-1.491-0.855-2.939-1.317-4.414c-0.2-0.615,0.147-1.275,0.759-1.452        c0.566-0.183,1.186,0.112,1.421,0.638c0.411,0.973,0.846,1.949,1.231,2.943c2.26,5.458,4.27,11.024,5.983,16.691        C320.186,309.555,322.755,336.806,319.55,363.757z"/>
					</g>
					<g>
						<path style="fill:#2F2444;" d="M312.399,284.171l-3.903,3.127c-1.095-5.891-2.477-11.749-4.176-17.532l2.095-2.286        C308.675,272.938,310.685,278.504,312.399,284.171z"/>
					</g>
					<g>
						<path style="fill:#F14537;" d="M334.218,257.01c-16.547,12.394-35.3,21.835-55.112,27.744        c7.084-8.716,0.109-22.599,5.125-32.648c4.272-8.56,14.541-13.271,24.042-12.151        C317.774,241.074,329.232,248.844,334.218,257.01z"/>
					</g>
					<g>
						<path style="fill:#FBEEE5;" d="M410.954,243.091c-1.228,5.486-2.962,10.88-5.051,16.11c-1.931,4.756-4.177,9.399-6.684,13.89        c-2.41,4.292-5.037,8.437-7.879,12.435c-3.422,4.815-7.149,9.449-11.083,13.866c-14.475,16.167-31.77,29.485-49.277,41.739        c-2.909,2.035-6.889,1.338-8.924-1.571c-2.039-2.886-1.339-6.888,1.57-8.924c0.131-0.1,0.309-0.194,0.44-0.294        c18.125-10.547,35.679-21.923,50.751-36.221c3.181-3.012,6.238-6.157,9.126-9.443c3.989-4.481,7.706-9.21,11.054-14.177        c2.348-3.476,4.501-7.072,6.458-10.789c2.924-5.494,5.365-11.242,7.248-17.228c0.199-0.609,0.833-0.948,1.465-0.746        C410.736,241.909,411.078,242.519,410.954,243.091z"/>
					</g>
					<g>
						<path style="fill:#2F2444;" d="M405.904,259.201c-1.931,4.756-4.177,9.399-6.684,13.89c-2.41,4.292-5.037,8.437-7.879,12.435        l-7.396-0.848c3.989-4.481,7.706-9.21,11.054-14.177c2.348-3.476,4.501-7.072,6.458-10.789L405.904,259.201z"/>
					</g>
					<g>
						<path style="fill:#F14537;" d="M443.735,268.899c1.665-9.145,3.337-18.429,2.464-27.684        c-0.873-9.254-4.634-18.638-12.01-24.295c-9.38-7.192-23.298-6.82-33.316-0.547c-4.863,3.046-9.088,7.369-14.602,8.957        c-4.247,1.223-8.801,0.672-13.157,1.419c-9.433,1.618-17.3,9.956-18.367,19.467c17.703,13.491,38.226,22.222,60.21,25.706        C422.151,273.064,436.608,270.412,443.735,268.899z"/>
					</g>
				</g>
			</g>
			<g>
				<polygon style="fill:#FFC945;" points="151.689,366.679 167.351,326.14 163.666,369.443 195.452,378.195 165.509,381.42       166.43,411.364 153.992,383.263 120.824,399.386 143.857,374.971 122.666,359.308     "/>
			</g>
			<g>
				<polygon style="fill:#FBEEE5;" points="415.281,186.291 417.457,150.751 419.149,186.533 428.094,179.28 422.775,187.741       441.875,190.159 423.259,192.577 428.578,200.072 419.633,195.236 417.215,226.182 415.281,195.72 406.094,199.588       411.896,192.577 388.687,189.434 411.654,188.467 406.335,180.489     "/>
			</g>
			<g>
				<polygon style="fill:#FBEEE5;" points="253.729,306.105 255.905,270.565 257.597,306.347 266.542,299.094 261.223,307.555       280.323,309.973 261.707,312.391 267.026,319.885 258.081,315.05 255.663,345.996 253.729,315.534 244.542,319.402       250.344,312.391 227.135,309.248 250.102,308.281 244.783,300.303     "/>
			</g>
		</g>
	</g>
</g>















</svg>
