<?xml version="1.0" encoding="UTF-8"?>
<!-- Generator: Adobe Illustrator 25.4.1, SVG Export Plug-In . SVG Version: 6.00 Build 0)  -->
<svg xmlns="http://www.w3.org/2000/svg" xmlns:xlink="http://www.w3.org/1999/xlink" version="1.1" id="Capa_1" x="0px" y="0px" viewBox="0 0 512 512" style="enable-background:new 0 0 512 512;" xml:space="preserve" width="512" height="512">
<g>
	<g>
		<g>
			<path d="M332.42,16.435c-23.808,13.667-34.357,34.8-34.814,61.004c-1.194,45.354-0.787,90.32-0.882,135.786     c-16.159,0.362-30.498,2.398-41.732,14.108c-10.664-10.74-23.515-14.5-38.748-12.741     c-6.578-53.046,20.625-170.247-32.895-196.065C173.341,5.151,213.541-0.86,222.595,0.099     c11.842,2.656,23.585,5.511,32.364,14.972c0.481,0.501,2.654-0.022,3.631-0.672C277.431-1.246,319.168-8.791,332.42,16.435z"/>
			<path d="M179.58,366.762c20.957-10.441,32.892-32.652,33.465-55.271c-2.888-25.763,3.324-59.728-24.503-73.895     c12.762-24.435,52.439-26.017,65.934-0.569c12.883-25.35,55.204-23.461,65.788,0.543c-37.465,24.305-31.423,106.304,8.309,127.05     c6.914,3.962-2.334,9.945-5.89,12.236c-19.524,9.672-47.946,8.514-65.252-8.28c-0.669-0.649-3.184-0.555-3.908,0.143     c-19.622,18.3-57.386,20.425-73.945-0.142C179.58,367.972,179.58,367.367,179.58,366.762z"/>
		</g>
		<path d="M200.088,461.358c-1.588-68.619,103.622-71.39,105.745-1.305C306.861,528.048,201.606,530.128,200.088,461.358z"/>
	</g>
	<g>
		<path style="fill:#FFFFFF;" d="M253.676,267.911c3.646-3.993,6.778-8.501,13.099-8.014c4.274,0.33,6.455,2.207,6.476,6.507    c0.011,2.228-0.242,4.571-0.952,6.671c-4.633,13.713-9.413,27.378-14.18,41.046c-0.395,1.131-0.916,2.266-1.609,3.238    c-1.549,2.172-3.219,2.234-4.525-0.219c-1.204-2.261-2.358-4.569-3.286-6.951c-3.88-9.962-8.012-19.849-11.33-29.995    c-1.491-4.559-1.926-9.71-1.577-14.501c0.171-2.347,2.902-5.85,5.068-6.364c2.522-0.598,6.004,1.023,8.483,2.592    C251.216,263.105,252.169,265.721,253.676,267.911z"/>
		<g>
			<path style="fill:#FFFFFF;" d="M254.239,205.631c1.429-4.192,3.232-8.299,4.219-12.59c3.384-14.706,1.662-29.439-0.502-44.097     c-2.955-20.015-6.6-39.938-9.135-60.002c-2.471-19.552-2.732-39.13,5.099-57.883c0.696-1.667,1.663-3.222,3.455-4.533     c0.051,0.664,0.342,1.424,0.117,1.977c-7.821,19.163-6.336,38.677-2.22,58.266c5.507,26.202,10.506,52.485,10.684,79.367     c0.073,11.05-1.541,21.974-5.632,32.348c-1.131,2.867-3.148,5.389-4.759,8.07C255.124,206.246,254.681,205.938,254.239,205.631z"/>
			<g>
				<path style="fill:#FFFFFF;" d="M230.784,158.217c0.129-4.675,3.678-8.326,7.985-8.214c4.464,0.116,8.055,4.097,7.97,8.836      c-0.083,4.631-3.649,8.259-8.01,8.15C234.191,166.876,230.653,162.97,230.784,158.217z"/>
				<path style="fill:#FFFFFF;" d="M281.216,62.587c0.117,4.012-3.266,7.545-7.394,7.721c-4.408,0.188-7.981-3.098-8.073-7.423      c-0.089-4.204,3.095-7.611,7.248-7.753C277.248,54.986,281.096,58.477,281.216,62.587z"/>
			</g>
		</g>
	</g>
</g>















</svg>
