<?xml version="1.0" encoding="UTF-8"?>
<!-- Generator: Adobe Illustrator 25.2.0, SVG Export Plug-In . SVG Version: 6.00 Build 0)  -->
<svg xmlns="http://www.w3.org/2000/svg" xmlns:xlink="http://www.w3.org/1999/xlink" version="1.1" id="Capa_1" x="0px" y="0px" viewBox="0 0 500 500" style="enable-background:new 0 0 500 500;" xml:space="preserve" width="512" height="512">
<g>
	<path d="M317.907,312.21c-2.896,0.607-5.825,1.372-8.801,1.821c-20.762,3.134-35.366-12.553-38.074-27.524   c-2.981-16.48,4.721-39.057,20.152-49.298c9.473-6.287,19.683-8.174,30.735-6.504c13.282,2.006,25.027,7.364,34.972,16.418   c2.396,2.182,4.596,4.683,6.445,7.344c8.208,11.81,13.645,24.734,15.828,39.06c1.924,12.625,2.408,25.248,0.453,37.839   c-2.118,13.641-7.28,26.131-14.61,37.923c-8.942,14.385-20.893,25.535-35.031,34.384c-10.294,6.442-21.719,10.394-33.598,13.024   c-6.717,1.487-13.484,1.981-20.323,1.743c-12.328-0.429-24.543-1.634-36.37-5.451c-37.335-12.05-65.463-44.48-73.227-81.293   c-3.936-18.659-3.542-37.188-0.137-55.813c6.316-34.542,24.338-61.986,51.135-83.984c8.673-7.12,18.392-12.586,29.567-14.962   c1.534-0.326,3.082-0.59,4.64-0.885c-0.06-0.175-0.063-0.323-0.131-0.365c-15.17-9.418-22.907-23.671-25.598-40.758   c-3.52-22.346,2.555-41.968,18.88-57.827c12.723-12.36,28.428-15.666,45.563-12.929c11.709,1.87,22.138,6.614,30.416,15.32   c7.916,8.325,12.088,18.332,13.289,29.784c1.126,10.734-1.168,20.601-6.775,29.624c-7.18,11.553-17.716,17.504-31.42,16.455   c-8.654-0.662-15.753-4.769-19.956-12.703c-4.549-8.588-4.276-21.535,5.006-29.869c0.777-0.698,1.616-1.357,2.513-1.887   c3.218-1.9,5.873-1.223,7.934,1.887c3.424,5.166,8.233,8.13,14.435,8.252c3.283,0.064,6.679-0.234,9.849-1.048   c5.877-1.508,8.637-5.079,9.155-11.146c0.494-5.775-0.545-11.338-3.341-16.409c-4.573-8.296-11.201-14.426-20.084-17.932   c-4.316-1.704-8.641-1.555-12.954,0.193c-13.867,5.622-22.624,16.266-28.247,29.588c-7.529,17.837-7.471,35.981-0.876,54.144   c2.505,6.898,6.891,12.397,12.56,16.929c0.645,0.516,1.551,0.861,2.377,0.969c5.783,0.757,11.573,1.452,17.368,2.113   c1.171,0.134,2.285,0.229,2.479,1.662c0.184,1.362-0.55,2.296-1.776,2.665c-1.215,0.365-2.51,0.691-3.763,0.664   c-4.489-0.095-8.992-0.163-13.454-0.61c-2.513-0.252-4.654,0.185-6.877,1.266c-9.576,4.658-17.167,11.684-23.509,20.037   c-13.742,18.099-23.112,38.345-28.338,60.423c-2.281,9.638-3.922,19.438-5.579,29.21c-2.277,13.435-0.063,26.472,3.831,39.367   c5.266,17.434,13.978,32.843,26.847,45.731c11.092,11.108,24.298,18.302,40.034,20.631c15.901,2.353,30.648-1.071,44.55-8.595   c15.074-8.158,27.611-19.071,35.841-34.414c0.91-1.696,1.781-3.421,2.81-5.044c8.431-13.299,10.599-28.03,9.523-43.348   c-0.493-7.018-1.642-14.024-2.976-20.942c-2.212-11.469-7.534-21.712-14.839-30.593c-9.237-11.229-21.849-16.802-36.192-18.508   c-11.718-1.394-21.603,2.518-29.93,10.625c-6.306,6.139-10.123,13.703-11.597,22.313c-0.662,3.866-0.929,7.922-0.572,11.818   c1.497,16.31,17.574,30.089,37.998,22.815c0.928-0.33,1.782-0.865,2.681-1.28c3.864-1.786,5.535-4.562,5.059-9.014   c-0.852-7.959-5.237-13.143-13.236-14.472c-2.558-0.425-5.316,0.013-7.935,0.389c-2.673,0.385-4.226-0.866-3.882-3.56   c1.037-8.114,7.454-15.055,15.391-16.664c2.711-0.55,5.371-0.378,7.89,0.754c9.827,4.417,15.694,11.655,16.067,22.765   c0.453,13.514-5.535,24.109-15.246,32.823c-8.976,8.055-19.701,11.9-31.734,12.582c-7.098,0.403-14.158,0.663-21.032-1.307   c-11.681-3.348-21.244-9.776-27.828-20.196c-6.331-10.02-10.604-20.811-11.38-32.729c-1.195-18.339,6.04-42.488,30.052-54.5   c13-6.503,26.714-10.324,41.194-11.576c14.752-1.277,29.378,0.236,44.032,1.569c9.933,0.904,19.895,2.034,29.847,2.063   c16.87,0.049,32.382-4.811,45.707-15.472c12.425-9.941,19.771-22.897,20.639-38.845c0.761-13.973-3.765-26.487-14.461-35.771   c-11.972-10.392-25.989-12.612-40.752-6.797c-9.587,3.776-14.303,11.729-15.76,21.73c-0.313,2.15,0.082,4.172,1.076,6.1   c2.887,5.603,6.689,10.208,12.842,12.505c3.016,1.126,5.929,1.384,9.052,0.476c10.012-2.911,14.226-11.192,10.626-21.083   c-0.199-0.548-0.462-1.084-0.573-1.65c-0.326-1.664,0.832-2.855,2.527-2.654c6.936,0.822,14.029,6.996,15.965,13.868   c1.109,3.938,0.688,7.762-0.925,11.454c-4.121,9.435-11.73,14.347-21.577,15.793c-12.591,1.849-22.993-2.974-30.465-12.723   c-7.533-9.829-8.484-21.219-3.599-32.681c5.693-13.358,16.51-19.686,30.564-20.784c24.188-1.891,43.915,12.584,50.092,36.588   c5.101,19.824-0.45,37.083-13.346,52.21c-9.737,11.421-22.576,17.931-36.91,21.942c-12.513,3.501-25.154,3.3-37.882,2.274   c-12.333-0.995-24.645-2.342-36.994-3.036c-16.934-0.952-33.588,0.729-49.541,7.006c-2.17,0.854-4.312,1.787-6.428,2.768   c-15.1,7.008-24.193,18.725-27.625,34.995c-2.417,11.46-0.584,22.382,3.704,33.052c0.63,1.567,1.435,3.063,2.156,4.593   c8.771,18.611,27.161,26.475,45.514,24.605c9.901-1.009,19.01-4.12,26.908-10.355c0.411-0.325,0.823-0.649,1.223-0.987   C317.903,312.317,317.913,312.194,317.907,312.21z"/>
	<path d="M473.888,249.287c-0.408,55.765-13.16,103.836-41.168,147.425c-23.367,36.368-54.149,64.668-93.329,83.347   c-64.224,30.618-138.28,25.767-199.338-13.101c-39.328-25.035-68.162-59.346-88.032-101.328   c-14.878-31.436-23.319-64.581-25.371-99.285c-3.462-58.561,9.7-113.057,41.198-162.703c23.962-37.77,55.986-66.734,96.921-85.329   c33.192-15.078,67.98-21.333,104.276-16.935c57.944,7.02,105.39,33.318,142.099,78.791c1.681,2.083,3.151,4.344,4.619,6.587   c0.614,0.939,1.465,2.152,0.273,3.145c-1.227,1.022-2.187-0.118-2.987-0.908c-1.867-1.845-3.676-3.751-5.466-5.673   c-18.745-20.132-39.604-37.61-63.955-50.642c-30.399-16.268-62.785-24.64-97.349-23.827c-48.233,1.135-90.66,17.714-127.392,48.804   C85.303,86.082,62.19,121.679,48.027,163.173c-25.481,74.654-15.94,159.23,25.346,225.175   c20.801,33.224,47.753,60.163,82.179,79.221c35.759,19.796,74.041,28.353,114.827,24.326c38.524-3.803,72.937-18.198,103.439-41.86   c33.357-25.879,57.114-59.059,73.1-97.925c14.019-34.082,20.534-69.631,19.878-106.462c-0.137-7.692-0.921-15.373-1.403-23.059   c-0.04-0.639-0.127-1.29-0.048-1.917c0.219-1.728,1.379-2.871,2.926-2.989c1.569-0.119,2.938,0.78,3.383,2.453   c0.327,1.23,0.479,2.523,0.565,3.798C472.886,233.77,473.518,243.608,473.888,249.287z"/>
	<path d="M437.187,240.874c-0.559-8.207-1.125-16.412-1.668-24.62c-0.081-1.215-0.347-2.533,0.012-3.626   c0.288-0.875,1.327-1.954,2.157-2.072c0.834-0.119,2.006,0.663,2.683,1.378c0.529,0.559,0.637,1.606,0.745,2.46   c9.268,73.389-16.377,145.782-66.858,193.911c-25.693,24.496-55.679,41.361-90.575,48.662   c-53.76,11.247-102.09-1.178-144.745-35.222c-33.794-26.972-55.359-62.282-67.292-103.596c-8.24-28.527-10.737-57.642-7.817-87.186   c4.514-45.669,20.375-87.009,48.556-123.256c24.869-31.987,56.409-55.067,95.497-66.685c39.875-11.852,79.056-8.662,117.186,7.713   c16.318,7.007,31.169,16.439,44.332,28.38c3.87,3.511,7.233,7.587,10.747,11.478c0.72,0.797,1.837,1.955,0.746,2.994   c-0.365,0.348-2.054-0.262-2.828-0.846c-5.309-4.007-10.504-8.167-15.797-12.196c-20.871-15.89-43.926-27.097-69.725-32.388   c-26.513-5.438-52.695-3.803-78.609,3.655c-36.255,10.435-66.112,30.679-90.599,59.132c-25.764,29.937-41.575,64.582-48.393,103.36   c-7.419,42.2-3.681,83.402,12.121,123.314c12.546,31.687,31.399,58.991,58.106,80.414c35.92,28.814,76.914,41.382,122.832,36.651   c31.365-3.232,59.419-15.202,84.47-34.151c32.759-24.779,55.397-57.072,69.684-95.37   C432.03,296.695,436.944,268.658,437.187,240.874z"/>
	<path d="M178.576,160.96c-2.342-1.494-4.893-2.737-6.983-4.521c-9.742-8.313-14.315-19.151-14.445-31.782   c-0.131-12.707,4.243-23.88,12.689-33.396c3.614-4.072,7.565-7.81,12.246-10.644c4.218-2.554,8.73-4.188,13.8-3.388   c0.573,0.09,1.143,0.243,1.693,0.429c1.639,0.554,2.929,1.511,3.266,3.315c0.34,1.821-0.561,3.149-1.919,4.225   c-0.548,0.434-1.122,0.839-1.707,1.222c-11.222,7.332-17.576,17.585-18.719,31.014c-0.721,8.471-0.324,16.781,3.043,24.747   c0.863,2.043,2.138,3.686,3.878,5.07c6.116,4.864,12.863,8.648,19.935,11.903c0.733,0.338,1.507,0.696,2.09,1.232   c1.431,1.317,1.668,3.539,0.444,5.078c-0.737,0.926-2.053,1.58-3.241,1.55c-0.651-0.017-1.287-0.23-1.936-0.286   c-0.652-0.057-1.298-0.115-1.953-0.119c-1.291-0.01-2.58,0.116-3.849,0.347c-2.528,0.46-4.959,1.325-7.337,2.281   c-1.794,0.722-3.565,1.5-5.361,2.217c-7.243,2.891-13.818,7.037-19.657,12.261c-12.346,11.043-23.541,23.125-31.028,38.032   c-8.99,17.898-12.002,36.8-7.592,56.589c0.303,1.357,0.844,2.661,1.253,3.996c0.434,1.413,0.331,2.738-1.105,3.493   c-2.95,1.551-6.429-4.342-7.938-6.151c-2.579-3.089-5.041-6.288-7.126-9.735c-12.799-21.155-6.385-48.017,6.652-67.568   c5.053-7.578,11.449-14.19,18.732-19.647c5.551-4.16,11.281-8.096,17.084-11.898c7.206-4.721,15.225-7.565,23.592-9.471   C177.622,161.23,178.158,161.07,178.576,160.96z"/>
	<path d="M125.211,340.581c-0.834-7.135-0.742-14.345,0.172-21.47c0.405-3.16,0.833-6.456,1.271-9.752   c0.098-0.733,0.293-1.623,0.779-2.09c0.546-0.525,1.462-0.793,2.244-0.864c0.215-0.019,0.756,1.063,0.767,1.646   c0.39,20.84,7.152,39.681,18.707,56.724c7.01,10.34,16.082,18.925,26.499,25.958c2.853,1.926,5.78,3.744,8.629,5.675   c2.17,1.471,4.353,3.114,3.658,6.172c-0.716,3.15-3.435,3.953-6.154,4.322c-9.242,1.253-17.677-0.682-25.291-6.288   c-11.592-8.535-19.331-19.906-24.956-32.94c-3.724-8.628-5.225-17.759-6.314-26.987   C125.219,340.653,125.215,340.617,125.211,340.581z"/>
	<path d="M402.917,239.746c7.189-0.762,14.514,6.669,14.133,14.571c-0.397,8.214-7.556,14.698-15.948,14.316   c-8.136-0.37-14.232-6.923-13.919-14.966C387.499,245.496,394.378,239.41,402.917,239.746z"/>
	<path d="M127.806,163.586c-5.1-0.292-8.86-2.52-11.228-6.861c-0.499-0.914-0.721-2.154-0.613-3.196   c0.576-5.566,3.477-9.809,8.302-12.411c5.64-3.041,11.649-0.327,14.231,6.025c2.76,6.789-1.296,14.575-8.428,16.145   C129.278,163.463,128.456,163.504,127.806,163.586z"/>
	<path d="M345.613,173.227c-0.22,4.596-2.161,8.374-6.525,10.601c-5.567,2.842-11.728,0.159-13.575-5.815   c-1.437-4.647,0.131-10.053,3.929-13.119c3.037-2.451,6.469-3.32,10.105-1.546C343.509,165.281,345.449,168.637,345.613,173.227z"/>
</g>















</svg>
