<?xml version="1.0" encoding="UTF-8"?>
<!-- Generator: Adobe Illustrator 27.3.1, SVG Export Plug-In . SVG Version: 6.00 Build 0)  -->
<svg xmlns="http://www.w3.org/2000/svg" xmlns:xlink="http://www.w3.org/1999/xlink" version="1.1" id="Capa_1" x="0px" y="0px" viewBox="0 0 512 512" style="enable-background:new 0 0 512 512;" xml:space="preserve" width="512" height="512">
<g>
	<g>
		<path style="fill:#FFFFFF;" d="M290.115,512c-10.437,0-21.245-0.581-32.124-1.732c-42.065-4.469-79.024-16.198-109.857-34.865    c-28.169-17.049-51.12-40.524-65.63-66.905h-8.08c-1.773,0.476-3.398,0.624-4.729,0.624c-7.771,0-14.613-5.127-16.795-12.583    c-3.231-11.043-0.357-23.119,7.499-31.521c1.527-1.632,3.217-3.093,5.033-4.363c-0.275-1.233-0.551-2.503-0.83-3.814    c-0.612-2.911-1.194-5.785-1.773-8.659c-1.037-5.129-2.015-9.974-3.126-14.811l-0.327-1.393    c-1.896-8.137-3.788-14.574-5.97-20.302c-3.643-9.57-8.727-18.87-14.109-28.713c-6.406-11.718-13.029-23.834-17.65-37.32    c-13.904-40.569-7.079-89.579,18.723-134.494c0.178-0.326,0.81-1.43,0.94-1.648l1.44-2.412    c16.905-27.906,39.554-52.095,65.59-70.105c0.5-0.363,1.008-0.709,1.517-1.048c0,0,0.54-0.369,0.629-0.429    c8.963-6.05,18.401-11.434,28.046-16.007c22.305-10.552,45.992-16.888,70.414-18.838C214.412,0.222,220.017,0,225.597,0    c22.583,0,45.754,3.582,68.866,10.647l1.483,0.462c17.387,5.437,34.413,12.733,50.63,21.693l0.198,0.107    c0.729,0.394,1.465,0.805,2.19,1.246c23.415,13.169,45.197,29.965,63.014,48.591c11.542,12.082,22.172,25.445,31.608,39.733    c0.222,0.302,0.434,0.611,0.638,0.927l1.413,2.209c2.496,3.827,5.059,8.018,7.739,12.675c0.103,0.178,0.416,0.732,0.416,0.732    l0.739,1.216c0.202,0.339,0.393,0.683,0.573,1.033c12.891,22.911,23.132,47.891,30.446,74.27c0.194,0.644,0.363,1.286,0.524,1.931    c0.276,0.957,0.533,1.898,0.788,2.861c12.593,47.964,13.945,95.313,3.915,136.959c-1.166,4.825-2.505,9.667-3.98,14.404    c-16.829,53.726-53.683,97.583-101.125,120.354C358.08,505.287,325.928,512,290.116,512C290.115,512,290.116,512,290.115,512z"/>
	</g>
	<g>
		<g>
			<path style="fill:#977BFF;" d="M474.583,355.587H82.537c-1.662-7.904-3.15-15.866-4.958-23.741     c-0.117-0.525-0.233-0.991-0.35-1.487c-1.779-7.642-3.85-15.166-6.65-22.516c-8.604-22.604-23.712-42.582-31.557-65.477     c-13.475-39.315-3.733-83.502,17.441-120.28c0.233-0.438,0.496-0.846,0.729-1.283c0.467-0.787,0.962-1.604,1.429-2.392     c15.283-25.228,35.961-47.715,60.694-64.777c0.583-0.437,1.196-0.816,1.779-1.225c8.166-5.512,16.77-10.442,25.753-14.7     c20.095-9.508,42.028-15.429,64.311-17.208c26.482-2.129,53.344,1.429,79.01,9.275c0.467,0.146,0.933,0.292,1.4,0.438     c16.42,5.133,32.374,12.017,47.365,20.299c0.642,0.35,1.312,0.7,1.954,1.109c22.37,12.541,42.582,28.174,59.265,45.615     c11.258,11.783,21.291,24.528,30.128,38.003h0.029c0.467,0.729,0.933,1.458,1.4,2.188c2.567,3.937,4.988,7.933,7.321,11.987     c0,0.029,0,0.059,0,0.059c0.438,0.729,0.875,1.429,1.312,2.158v0.029c12.687,22.428,22.399,46.49,29.224,71.164     c0.146,0.467,0.263,0.933,0.379,1.4v0.029c0.292,0.992,0.554,1.954,0.817,2.946C481.729,268.964,484.733,313.442,474.583,355.587     z"/>
		</g>
		<g>
			<g>
				<g>
					<path style="fill:#F7EDE5;" d="M98.461,311.05c-4.083,7.991-10.937,14.845-20.883,20.795c-0.117-0.525-0.233-0.991-0.35-1.487       c9.479-5.746,16.012-12.337,19.92-19.979c5.425-10.616,5.017-26.453-5.075-34.649c-3.442-2.8-6.679-5.804-6.971-8.837       c-0.146-1.225,0.204-2.333,1.021-3.296c0.583-0.729,1.341-1.196,2.071-1.663l0.263-0.146       c10.179-6.446,15.779-19.22,13.62-31.091c-2.158-11.841-11.929-21.816-23.712-24.266c-0.671-0.146-1.371-0.262-2.1-0.408       c-4.987-0.933-10.646-1.983-12.366-6.854c-0.671-1.896-0.467-3.937-0.204-5.512c1.021-6.038,3.821-11.52,6.533-16.858       c2.187-4.258,4.433-8.692,5.716-13.3c3.063-11.083,0.35-23.42-7.087-32.17c-3.383-3.996-7.67-7.146-12.395-9.246       c0.233-0.438,0.496-0.846,0.729-1.283c4.871,2.187,9.275,5.454,12.774,9.566c7.758,9.129,10.587,21.962,7.379,33.512       c-1.312,4.783-3.587,9.245-5.804,13.591c-2.683,5.22-5.425,10.616-6.387,16.42c-0.233,1.4-0.438,3.208,0.146,4.812       c1.429,4.054,6.416,4.987,11.258,5.891c0.7,0.146,1.4,0.262,2.1,0.408c12.366,2.566,22.575,13.037,24.849,25.433       c2.246,12.424-3.617,25.841-14.291,32.578l-0.233,0.146c-0.671,0.438-1.283,0.817-1.721,1.342       c-0.554,0.7-0.787,1.429-0.729,2.246c0.291,2.858,4.462,6.241,6.475,7.875C104.061,283.576,104.061,300.084,98.461,311.05z"/>
				</g>
			</g>
			<g>
				<g>
					<path style="fill:#F7EDE5;" d="M431.709,137.427c-5.571-2.771-13.241-2.742-19.337-2.333       c-3.383,0.233-7.233,0.466-10.762-0.934c-7.058-2.829-9.391-10.879-10.062-14.204c-0.642-3.063-0.846-6.241-1.05-9.275       c-0.175-2.684-0.35-5.425-0.817-8.079c-2.683-15.604-16.012-28.67-31.674-31.062c-6.475-0.992-13.27-0.292-19.862,0.379       c-8.779,0.904-17.849,1.838-26.278-1.254c-11.491-4.2-20.241-16.158-21.816-29.749c-0.438-3.617-0.379-7.35,0.117-11.142       c0.467,0.146,0.933,0.292,1.4,0.438c-0.438,3.587-0.496,7.117-0.088,10.529c1.517,13.067,9.916,24.558,20.883,28.582       c8.108,2.946,16.624,2.071,25.636,1.167c6.679-0.7,13.562-1.4,20.241-0.379c16.245,2.479,30.099,16.041,32.899,32.228       c0.467,2.742,0.642,5.542,0.817,8.225c0.204,3.004,0.408,6.125,1.021,9.1c0.612,3.092,2.771,10.587,9.187,13.154       c3.208,1.283,6.883,1.021,10.121,0.817c5.571-0.379,12.425-0.438,17.995,1.604h0.029       C430.776,135.969,431.243,136.698,431.709,137.427z"/>
				</g>
				<g>
					<path style="fill:#F7EDE5;" d="M469.946,224.224v0.029c-0.525,0.262-1.079,0.496-1.633,0.729       c-3.208,1.312-7.145,2.217-11.141,2.217c-4.462,0-9.012-1.109-12.862-4.054c-3.383-2.566-6.067-6.417-8.429-12.075       c-5.979-14.349-6.446-30.974-1.283-45.615c0.35-1.05,0.729-2.071,1.137-3.121c1.575-4.316,3.237-8.691,3.296-12.862       c0.438,0.729,0.875,1.429,1.312,2.158v0.029c-0.467,3.704-1.867,7.466-3.237,11.17c-0.408,1.05-0.788,2.071-1.137,3.091       c-5.046,14.32-4.579,30.566,1.254,44.565c2.246,5.425,4.783,9.07,7.962,11.492c6.825,5.191,16.158,4.258,22.574,1.662       c0.613-0.262,1.225-0.525,1.808-0.817C469.712,223.291,469.829,223.757,469.946,224.224z"/>
				</g>
			</g>
		</g>
		<g>
			<path style="fill:#302945;" d="M474.583,355.587c-1.079,4.462-2.304,8.896-3.675,13.3c-14.408,45.994-46.84,88.11-91.989,109.78     c-36.224,17.383-78.252,20.824-118.267,16.595c-36.224-3.85-72.039-13.912-102.634-32.432     c-30.595-18.52-55.765-45.907-67.694-78.573c-3.412-9.304-5.716-18.958-7.787-28.67H474.583z"/>
		</g>
		<g>
			<g>
				<g>
					<g>
						<g>
							<g>
								<path style="fill:#9DD1A9;" d="M245.507,61.528c-1.131,27.071,16.019,51.489,20.354,78.235          c2.935,18.111-0.124,36.676-4.742,54.433c-5.659,21.758-13.894,43.305-28.078,60.747          c-10.565-34.387-17.685-70.827-11.333-106.236C226.942,119.522,241.045,90.841,245.507,61.528z"/>
							</g>
						</g>
						<g style="opacity:0.41;">
							<g>
								<path style="fill:#302945;" d="M245.507,61.528c-1.131,27.071,16.019,51.489,20.354,78.235          c2.935,18.111-0.124,36.676-4.742,54.433c-5.659,21.758-13.894,43.305-28.078,60.747          c-10.565-34.387-17.685-70.827-11.333-106.236C226.942,119.522,241.045,90.841,245.507,61.528z"/>
							</g>
						</g>
						<g>
							<g>
								<path style="fill:#302945;" d="M233.039,255.63c-0.346,0-0.645-0.262-0.681-0.615c-0.03-0.282-2.961-28.553-4.581-57.83          c-1.316-23.748,5.789-66.903,10.034-92.687c1.072-6.514,1.999-12.138,2.573-16.124c2.841-19.711,7.162-51.032,7.206-51.346          c0.051-0.375,0.39-0.652,0.773-0.585c0.376,0.051,0.638,0.397,0.585,0.774c-0.043,0.313-4.365,31.638-7.206,51.355          c-0.577,3.999-1.504,9.63-2.578,16.149c-4.235,25.729-11.325,68.792-10.019,92.388c1.619,29.244,4.547,57.483,4.576,57.765          c0.04,0.377-0.233,0.715-0.611,0.753C233.087,255.628,233.063,255.63,233.039,255.63z"/>
							</g>
						</g>
					</g>
					<g>
						<g>
							<g>
								<path style="fill:#9DD1A9;" d="M251.347,56.828c-14.946,22.6-12.866,52.366-22.962,77.509          c-6.837,17.026-19.043,31.345-32.165,44.168c-16.08,15.712-34.257,29.913-55.41,37.527          c8.707-34.904,21.422-69.788,45.144-96.832C205.506,96.909,232.392,79.628,251.347,56.828z"/>
							</g>
						</g>
						<g style="opacity:0.41;">
							<g>
								<path style="fill:#302945;" d="M251.347,56.828c-14.946,22.6-12.866,52.366-22.962,77.509          c-6.837,17.026-19.043,31.345-32.165,44.168c-16.08,15.712-34.257,29.913-55.41,37.527          c8.707-34.904,21.422-69.788,45.144-96.832C205.506,96.909,232.392,79.628,251.347,56.828z"/>
							</g>
						</g>
						<g>
							<g>
								<path style="fill:#302945;" d="M140.809,216.719c-0.098,0-0.198-0.021-0.292-0.066c-0.343-0.161-0.49-0.57-0.329-0.913          c0.119-0.256,12.207-25.983,25.934-51.892c11.138-21.02,39.508-54.314,56.458-74.207c4.277-5.019,7.971-9.354,10.518-12.467          c12.612-15.415,32.483-40.007,32.682-40.254c0.241-0.295,0.674-0.339,0.966-0.103c0.294,0.238,0.34,0.671,0.103,0.965          c-0.199,0.246-20.074,24.842-32.688,40.259c-2.556,3.125-6.255,7.464-10.535,12.488          c-16.914,19.851-45.223,53.072-56.289,73.961c-13.711,25.877-25.785,51.576-25.906,51.832          C141.313,216.572,141.067,216.719,140.809,216.719z"/>
							</g>
						</g>
					</g>
					<g>
						<g>
							<g>
								<path style="fill:#9DD1A9;" d="M242.745,57.339c12.474,24.053,39.492,36.717,56.547,57.77          c11.549,14.257,18.121,31.887,22.939,49.59c5.904,21.692,9.468,44.482,5.829,66.668          c-26.259-24.588-50.549-52.669-62.637-86.552C255.461,116.889,253.443,84.993,242.745,57.339z"/>
							</g>
						</g>
						<g style="opacity:0.41;">
							<g>
								<path style="fill:#302945;" d="M242.745,57.339c12.474,24.053,39.492,36.717,56.547,57.77          c11.549,14.257,18.121,31.887,22.939,49.59c5.904,21.692,9.468,44.482,5.829,66.668          c-26.259-24.588-50.549-52.669-62.637-86.552C255.461,116.889,253.443,84.993,242.745,57.339z"/>
							</g>
						</g>
						<g>
							<g>
								<path style="fill:#302945;" d="M328.06,232.055c-0.212,0-0.423-0.1-0.557-0.285c-0.167-0.231-16.76-23.308-32.717-47.906          c-12.945-19.952-28.229-60.928-37.36-85.411c-2.307-6.186-4.299-11.528-5.782-15.273          c-7.331-18.516-19.15-47.841-19.268-48.136c-0.142-0.352,0.029-0.75,0.38-0.893c0.354-0.142,0.752,0.028,0.893,0.38          c0.118,0.293,11.938,29.624,19.271,48.145c1.488,3.757,3.482,9.106,5.792,15.298c9.113,24.43,24.362,65.318,37.225,85.145          c15.94,24.567,32.515,47.619,32.68,47.849c0.222,0.308,0.152,0.738-0.155,0.958          C328.339,232.012,328.199,232.055,328.06,232.055z"/>
							</g>
						</g>
					</g>
					<g>
						<g>
							<g>
								<path style="fill:#9DD1A9;" d="M243.514,56.301c7.44,26.054,31.399,43.839,43.925,67.865          c8.482,16.269,11.416,34.854,12.616,53.162c1.471,22.434,0.43,45.477-7.549,66.495          c-20.843-29.321-39.063-61.672-44.168-97.282C244.13,117.191,248.497,85.53,243.514,56.301z"/>
							</g>
						</g>
						<g>
							<g>
								<path style="fill:#302945;" d="M292.507,244.51c-0.26,0-0.511-0.151-0.625-0.404c-0.117-0.258-11.79-26.175-22.535-53.455          c-8.718-22.131-15.546-65.334-19.626-91.147c-1.03-6.517-1.92-12.145-2.626-16.107c-3.503-19.604-9.251-50.695-9.309-51.007          c-0.068-0.373,0.178-0.732,0.55-0.8c0.372-0.057,0.732,0.175,0.801,0.55c0.057,0.312,5.807,31.407,9.309,51.016          c0.711,3.976,1.601,9.61,2.632,16.134c4.07,25.758,10.883,68.868,19.546,90.858c10.734,27.249,22.393,53.137,22.509,53.396          c0.157,0.345,0.003,0.752-0.343,0.907C292.698,244.49,292.602,244.51,292.507,244.51z"/>
							</g>
						</g>
					</g>
					<g>
						<g>
							<g>
								<path style="fill:#9DD1A9;" d="M250.169,55.787c-11.355,24.601-4.796,53.71-10.973,80.091          c-4.183,17.864-14.082,33.865-25.114,48.525c-13.518,17.964-29.338,34.751-49.096,45.477          c3.327-35.819,10.619-72.225,29.977-102.547C210.918,102.341,234.88,81.192,250.169,55.787z"/>
							</g>
						</g>
						<g>
							<g>
								<path style="fill:#302945;" d="M164.985,230.566c-0.064,0-0.13-0.008-0.194-0.028c-0.365-0.107-0.573-0.488-0.464-0.852          c0.08-0.272,8.137-27.53,17.787-55.219c7.825-22.455,30.828-59.65,44.57-81.873c3.473-5.617,6.474-10.467,8.523-13.935          c10.135-17.145,26.058-44.46,26.218-44.735c0.188-0.329,0.611-0.439,0.939-0.246c0.328,0.191,0.437,0.611,0.247,0.938          c-0.16,0.273-16.084,27.594-26.221,44.741c-2.056,3.479-5.06,8.335-8.538,13.959c-13.713,22.175-36.665,59.29-44.442,81.604          c-9.637,27.655-17.686,54.882-17.767,55.153C165.554,230.373,165.281,230.566,164.985,230.566z"/>
							</g>
						</g>
					</g>
				</g>
				<g>
					<g>
						<path style="fill:#302945;" d="M340.887,51.621c-29.487,7.554-60.811,12.104-93.418,13.416        c-0.233,0.029-0.467,0.029-0.7,0.029h-0.029c-0.292,0.029-0.554,0.029-0.817,0.029c-0.146,0.029-0.292,0.029-0.437,0.029        h-0.292c-0.058,0.029-0.117,0.029-0.146,0c-0.059,0.029-0.117,0.029-0.175,0c-0.029,0.029-0.058,0.029-0.088,0        c-0.029,0.029-0.058,0-0.058,0c-0.029,0.029-0.059,0.029-0.059,0.029h-0.204c-0.146,0.029-0.291,0.029-0.437,0        c-0.029,0.029-0.087,0.029-0.117,0c-0.029,0.029-0.058,0.029-0.087,0c-0.058,0.029-0.116,0.029-0.175,0.029        c-0.175,0.029-0.321,0.029-0.496,0c-0.087,0.029-0.175,0.029-0.262,0h-0.029c-5.308,0.204-10.646,0.292-16.012,0.292        c-1.546,0-3.092,0-4.638-0.029c-35.699-0.321-70.289-4.317-102.896-11.812c0.583-0.437,1.196-0.816,1.779-1.225        c32.053,7.262,66.09,11.141,101.147,11.462c7.146,0.059,14.233-0.029,21.262-0.262c0.117,0,0.233,0,0.35-0.029h0.029        c0.088,0.029,0.146,0.029,0.204,0c0.029,0.029,0.058,0.029,0.058,0.029c0.029,0,0.059,0,0.059-0.029        c0.117,0.029,0.233,0.029,0.35,0c0.116,0,0.233,0,0.35-0.029c0.029,0.029,0.058,0.029,0.087,0        c0.059,0.029,0.117,0.029,0.146,0h0.029c0.058,0.029,0.088,0.029,0.117,0c0.029,0,0.029,0,0.029,0h0.088        c0.029,0,0.058,0,0.058,0c0.087,0,0.175,0,0.262-0.029c0.088,0.029,0.175,0.029,0.262,0c0.029,0.029,0.058,0.029,0.087,0        c0.117,0,0.233,0,0.35-0.029c0.292,0.029,0.554,0,0.817-0.029c0.117,0.029,0.204,0.029,0.292,0c0.029,0,0.029,0,0.029,0        c31.878-1.312,62.502-5.687,91.376-12.95C339.575,50.863,340.246,51.213,340.887,51.621z"/>
					</g>
				</g>
			</g>
			<g>
				<g>
					<g>
						<polygon style="fill:#DBB0FF;" points="404.804,443.436 279.092,443.436 299.395,425.899 318.936,423.922 375.874,418.138         379.568,418.042       "/>
					</g>
					<g>
						<path style="fill:#302945;" d="M379.568,418.042c-12.791,5.877-27.405,7.952-41.611,9.303        c-12.76,1.194-26.273,2.074-38.562-1.446l11.251-9.742l66.533-0.535L379.568,418.042z"/>
					</g>
				</g>
				<g>
					<g>
						<path style="fill:#302945;" d="M475.423,278.407c0,3.677-6.865,30.012-16.167,33.061        c-15.524,5.122-40.754-13.769-73.261-11.945c-12.771,0.717-6.547-38.146-20.722-38.146c-10.023,0-39.649,39.056-49.022,38.689        c-37.591-1.473-70.157,7.241-87.464,1.53c-9.302-3.049-13.368-19.511-13.368-23.188c0-12.257,58.205-22.188,129.986-22.188        C417.218,256.219,475.423,266.151,475.423,278.407z"/>
					</g>
					<g style="opacity:0.42;">
						<path style="fill:#977BFF;" d="M460.872,288.621c-21.622,7.134-65.213,12.006-115.467,12.006        c-50.222,0-93.812-4.871-115.435-12.006c10.214-9.334,57.985-16.343,115.435-16.343        C402.855,272.279,450.658,279.287,460.872,288.621z"/>
					</g>
					<g>
						<path style="fill:#DBB0FF;" d="M338.994,421.53c-128.918,0-123.575-143.123-123.575-143.123        c0,3.677,5.249,7.165,14.551,10.214c21.622,7.134,65.213,12.006,115.435,12.006c50.254,0,93.844-4.871,115.467-12.006        c9.302-3.049,14.551-6.537,14.551-10.214C475.423,278.407,478.629,421.53,338.994,421.53z"/>
					</g>
					<g>
						<g>
							<path style="fill:#302945;" d="M344.072,380.31c-15.809,0-28.67-12.861-28.67-28.67c0-15.809,12.861-28.67,28.67-28.67         c15.809,0,28.67,12.861,28.67,28.67C372.742,367.449,359.881,380.31,344.072,380.31z M344.072,324.542         c-14.942,0-27.098,12.156-27.098,27.098c0,14.942,12.156,27.098,27.098,27.098c14.941,0,27.098-12.156,27.098-27.098         C371.17,336.698,359.014,324.542,344.072,324.542z"/>
						</g>
						<g>
							<path style="fill:#302945;" d="M281.826,380.319c-3.304,0-6.537-0.554-9.613-1.645c-0.312-0.111-0.521-0.407-0.523-0.739         c0-0.333,0.208-0.63,0.521-0.741c10.761-3.854,17.991-14.121,17.991-25.551c0-11.43-7.23-21.698-17.991-25.551         c-0.313-0.111-0.521-0.407-0.521-0.741c0.002-0.332,0.211-0.628,0.523-0.739c3.073-1.091,6.307-1.643,9.613-1.643         c15.796,0,28.649,12.864,28.649,28.674C310.475,367.455,297.622,380.319,281.826,380.319z M274.818,377.837         c2.271,0.605,4.62,0.91,7.008,0.91c14.93,0,27.076-12.159,27.076-27.103c0-14.945-12.146-27.102-27.076-27.102         c-2.39,0-4.738,0.305-7.008,0.908c10.228,4.593,16.957,14.852,16.957,26.194         C291.775,362.985,285.046,373.244,274.818,377.837z"/>
						</g>
						<g>
							<path style="fill:#302945;" d="M405.413,380.319c-15.796,0-28.649-12.864-28.649-28.676         c0-15.811,12.853-28.674,28.649-28.674c3.306,0,6.54,0.552,9.613,1.643c0.313,0.111,0.523,0.407,0.524,0.739         c0,0.333-0.208,0.63-0.521,0.741c-10.762,3.853-17.992,14.121-17.992,25.551c0,11.43,7.23,21.698,17.992,25.551         c0.313,0.111,0.521,0.407,0.521,0.741c-0.001,0.332-0.211,0.628-0.524,0.739         C411.949,379.765,408.715,380.319,405.413,380.319z M405.413,324.541c-14.93,0-27.076,12.158-27.076,27.102         c0,14.944,12.146,27.103,27.076,27.103c2.387,0,4.737-0.305,7.01-0.91c-10.229-4.593-16.958-14.852-16.958-26.194         c0-11.342,6.729-21.601,16.958-26.194C410.151,324.846,407.801,324.541,405.413,324.541z"/>
						</g>
					</g>
				</g>
				<g>
					<g>
						<path style="fill:#F7EDE5;" d="M424.729,186.135l-31.365,91.141l-0.566,1.603l-2.954,8.58l-0.534,1.603l-3.614,10.465        c-12.665,0.723-26.211,1.1-40.291,1.1c-10.151,0-20.051-0.189-29.542-0.566l10.371-16.657l0.88-1.383l6.16-9.931l0.88-1.383        l55.659-89.381c0,0,1.135,4.811,12.889,7.482C414.488,191.48,424.729,186.135,424.729,186.135z"/>
					</g>
					<g>
						<g>
							<path style="fill:#302945;" d="M389.844,287.458l-0.534,1.603c-3.866,0.22-7.732,0.314-11.628,0.314         c-17.286,0-34.634-1.98-51.448-5.971l0.88-1.383C347.574,286.799,368.819,288.621,389.844,287.458z"/>
						</g>
					</g>
					<g>
						<g>
							<path style="fill:#302945;" d="M393.364,277.276l-0.566,1.603c-2.577,0.126-5.154,0.189-7.7,0.189         c-18.699,0-36.676-3.237-51.824-6.977l0.88-1.383C351.345,274.887,372.088,278.439,393.364,277.276z"/>
						</g>
					</g>
					<g>
						<g>
							<path style="fill:#302945;" d="M389.813,181.326c0,0,0.806,7.488,12.575,10.163s22.342-5.354,22.342-5.354L389.813,181.326z"/>
						</g>
					</g>
				</g>
			</g>
			<g>
				<g>
					<path style="fill:#F7EDE5;" d="M223.608,380.331c-1.865-0.512-3.9-0.549-5.571-1.524c-3.089-1.803-3.705-6.044-3.164-9.58       c0.54-3.536,1.886-7.04,1.407-10.584c-0.383-2.832-1.984-5.479-4.315-7.132c-1.475-1.046-3.204-1.698-4.657-2.776       c-1.389-1.031-2.426-2.393-3.201-3.923l-8.634-141.591c0,0-23.932,11.443-41.919,9.525c-17.436-1.871-23.555-8.805-23.915-9.5       l-0.863,11.224l-0.144,1.847l-8.653,114.614c-0.011,0.015-0.022,0.029-0.033,0.044c-0.016,0.376-0.039,0.753-0.056,1.129       l-0.572,7.584c-0.306,2.5-0.76,4.972-1.546,7.366c-1.691,5.156-5.041,10.014-9.968,12.288       c-2.374,1.095-5.202,1.687-6.732,3.806c-2.549,3.53-0.215,9.596-3.752,12.137c-2.507,1.801-5.917,0.29-8.931-0.377       c-5.128-1.136-10.799,0.621-14.387,4.457c-3.588,3.836-4.962,9.612-3.486,14.653c0.578,0,0.756-0.622,1.334-0.622h43.413       l-0.013,0.18h91.832l-0.011-0.18h25.145C233.622,387.847,229.129,381.844,223.608,380.331z"/>
				</g>
				<g>
					<g>
						<g>
							<path style="fill:#302945;" d="M129.626,203.227c0,0,6.087,11.62,24.071,13.557c17.984,1.937,41.778-13.557,41.778-13.557         H129.626z"/>
						</g>
					</g>
					<g>
						<g>
							<path style="fill:#302945;" d="M129.639,203.22v0.024c-0.024-0.024-0.024-0.024-0.024-0.024H129.639z"/>
						</g>
					</g>
					<g>
						<g>
							<g>
								<path style="fill:#302945;" d="M169.313,238.922c0.108,1.17,0,2.384-0.39,3.511c-0.455,1.344-1.43,2.557-2.752,3.186          c-1.279,0.693-2.991,0.672-4.248-0.195c-1.257-0.845-2.037-2.146-2.557-3.489c-1.972-5.57-0.108-11.357-0.498-16.731          c-0.152-1.301-0.26-2.796-0.824-3.75c-0.303-0.477-0.607-0.628-0.954-0.542c-0.39,0.108-0.867,0.542-1.171,1.019          c-0.628,0.997-0.802,2.362-1.105,3.771c-0.325,1.452-0.997,2.969-2.449,3.945c-0.737,0.477-1.799,0.629-2.666,0.282          c-0.889-0.347-1.495-1.084-1.864-1.799c-0.759-1.495-0.607-3.121-0.715-4.399c-0.043-0.65-0.152-1.257-0.39-1.756          c-0.195-0.433-0.607-0.845-1.062-1.04c-0.975-0.412-1.517,0.065-1.604,1.366c-0.13,2.622,0.325,5.396,0.628,8.171          c0.173,1.409,0.282,2.839,0.26,4.269c-0.021,1.431-0.108,2.948-0.737,4.4c-0.325,0.694-0.737,1.409-1.387,1.951          c-0.629,0.585-1.539,0.91-2.427,0.889c-1.799-0.13-3.034-1.3-3.944-2.492c-1.82-2.514-2.124-5.57-2.124-8.387          c-0.022-2.818,0.412-5.7,1.084-8.388c0.13-0.65,0.195-1.3,0.065-1.864c-0.152-0.542-0.52-1.084-0.975-1.279          c-0.433-0.26-1.04,0.022-1.885,0c-0.802-0.022-1.56-0.325-2.167-0.78c-0.867-0.607-1.452-1.517-1.82-2.471l0.152-1.842          c0.022,0.152,0.043,0.282,0.087,0.434c0.303,1.3,0.954,2.536,2.038,3.229c0.52,0.368,1.127,0.585,1.734,0.585          c0.499,0.043,1.344-0.39,2.233,0c0.823,0.369,1.3,1.105,1.539,1.886c0.217,0.802,0.13,1.582,0.021,2.297          c-0.628,2.731-0.932,5.44-0.867,8.192c0.087,2.687,0.498,5.483,2.016,7.564c0.759,0.997,1.821,1.842,2.882,1.864          c1.04,0.065,1.907-0.824,2.384-1.972c0.499-1.149,0.585-2.471,0.607-3.815c0-1.343-0.13-2.709-0.303-4.074          c-0.325-2.752-0.824-5.527-0.715-8.496c0.065-0.737,0.238-1.734,1.062-2.427c0.846-0.737,2.059-0.629,2.818-0.26          c0.802,0.39,1.474,0.997,1.842,1.842c0.347,0.78,0.455,1.56,0.52,2.297c0.087,1.495-0.021,2.774,0.52,3.836          c0.477,1.062,1.496,1.495,2.384,0.91c0.91-0.563,1.561-1.755,1.821-2.991c0.325-1.3,0.477-2.796,1.322-4.205          c0.455-0.672,1.04-1.3,1.994-1.604c0.477-0.13,1.083-0.065,1.517,0.195c0.477,0.26,0.759,0.628,0.975,0.997          c0.434,0.737,0.585,1.517,0.672,2.211c0.13,0.715,0.174,1.452,0.217,2.167c0.238,5.7-1.712,11.27,0.022,16.536          c0.412,1.257,1.105,2.471,2.145,3.251c1.041,0.78,2.492,0.867,3.728,0.304c1.214-0.52,2.189-1.604,2.688-2.883          C169.14,241.262,169.313,240.092,169.313,238.922z"/>
							</g>
						</g>
						<g>
							<g>
								<path style="fill:#302945;" d="M174.055,222.785c-0.14-1.369,0.421-2.911,1.72-3.705c0.652-0.378,1.512-0.452,2.233-0.135          c0.724,0.306,1.283,0.886,1.666,1.539c0.771,1.375,0.67,2.934,0.616,4.299c-0.074,1.372-0.046,2.722,0.097,4.072          c0.164,1.329,0.348,2.734,0.779,3.87c0.401,1.131,1.426,1.938,2.377,1.838c0.863-0.072,1.719-1.279,2.191-2.383          c0.487-1.152,0.665-2.453,0.66-3.758c0.102-2.577-0.999-5.369-0.266-8.448c0.239-0.691,0.352-1.588,1.426-2.208          c0.474-0.262,1.202-0.218,1.627,0.031c0.444,0.229,0.731,0.514,0.997,0.773c0.514,0.523,0.95,1.023,1.385,1.27          c0.376,0.242,0.874,0.222,1.365-0.025c1.012-0.474,1.432-1.741,1.583-3.062c0.157-1.351,0.261-2.739,0.342-4.113          c0.207-2.756,0.206-5.524,0.153-8.302c0.42,2.749,0.581,5.533,0.643,8.323c0.005,1.399-0.032,2.782-0.117,4.194          c-0.054,0.712-0.151,1.459-0.441,2.194c-0.274,0.728-0.827,1.453-1.562,1.863c-0.703,0.432-1.762,0.595-2.61,0.129          c-0.788-0.43-1.253-1.027-1.725-1.467c-0.229-0.222-0.461-0.414-0.639-0.497c-0.187-0.076-0.225-0.076-0.374-0.011          c-0.208,0.057-0.484,0.679-0.619,1.272c-0.59,2.429,0.462,5.137,0.455,8.092c-0.022,1.46-0.242,2.964-0.861,4.365          c-0.309,0.7-0.718,1.355-1.225,1.952c-0.505,0.584-1.262,1.194-2.236,1.285c-1.921,0.146-3.337-1.356-3.836-2.793          c-0.537-1.472-0.615-2.867-0.714-4.288c-0.075-1.416-0.026-2.848,0.124-4.24c0.14-1.361,0.254-2.727-0.296-3.855          c-0.481-1.147-1.795-1.99-3-1.395C174.822,220.033,174.078,221.413,174.055,222.785z"/>
							</g>
						</g>
					</g>
				</g>
				<g>
					<g>
						<g>
							<path style="fill:#FFA352;" d="M161.638,203.812c-4.16-1.874-6.481-6.37-7.748-10.753c-3.32-11.484-1.09-24.829,7.105-33.532         c3.295,4.821,6.732,9.484,8.423,15.073C172.38,184.396,168.825,196.526,161.638,203.812z"/>
						</g>
					</g>
					<g>
						<g>
							<path style="fill:#F7EDE5;" d="M161.567,203.828c-2.673-1.204-4.164-4.093-4.978-6.909         c-2.133-7.379-0.701-15.953,4.565-21.545c2.117,3.097,4.325,6.094,5.411,9.685         C168.468,191.353,166.184,199.147,161.567,203.828z"/>
						</g>
					</g>
					<g>
						<g>
							<rect x="160.625" y="187.732" style="fill:#302945;" width="1.084" height="22.873"/>
						</g>
					</g>
				</g>
			</g>
		</g>
		<g>
			<g>
				<g>
					<polygon style="fill:#F7EDE5;" points="118.791,113.402 121.557,68.217 123.709,113.71 135.082,104.488 128.32,115.247        152.603,118.32 128.935,121.394 135.697,130.923 124.324,124.776 121.25,164.12 118.791,125.39 107.111,130.308        114.488,121.394 84.979,117.398 114.18,116.169 107.418,106.025      "/>
				</g>
			</g>
			<g>
				<g>
					<polygon style="fill:#F7EDE5;" points="364.065,142.059 366.832,96.874 368.983,142.366 380.357,133.145 373.594,143.903        397.877,146.977 374.209,150.051 380.971,159.579 369.598,153.432 366.524,192.776 364.065,154.046 352.385,158.965        359.762,150.051 330.253,146.055 359.454,144.825 352.692,134.682      "/>
				</g>
			</g>
			<g>
				<g>
					<polygon style="fill:#F7EDE5;" points="253.111,422.795 255.878,377.61 258.03,423.102 269.403,413.881 262.64,424.639        286.923,427.712 263.255,430.787 270.017,440.315 258.644,434.168 255.57,473.512 253.111,434.782 241.431,439.701        248.808,430.787 219.299,426.791 248.5,425.561 241.738,415.417      "/>
				</g>
			</g>
		</g>
	</g>
</g>















</svg>
