<?xml version="1.0" encoding="iso-8859-1"?>
<!-- Generator: Adobe Illustrator 26.5.3, SVG Export Plug-In . SVG Version: 6.00 Build 0)  -->
<svg xmlns="http://www.w3.org/2000/svg" xmlns:xlink="http://www.w3.org/1999/xlink" version="1.1" id="Capa_1" x="0px" y="0px" viewBox="0 0 512 512" style="enable-background:new 0 0 512 512;" xml:space="preserve">
<g>
	<g>
		<g>
			<path d="M286.436,363.263c-1.663,4.202-3.048,8.037-4.684,11.761c-2.867,6.523-6.524,12.551-11.371,17.851     c-5.06,5.533-12.82,7.984-19.06,5.673c-4.234-1.568-7.315-4.56-9.388-8.487c-3.799-7.195-4.638-14.943-4.179-22.971     c1.046-18.274,6.24-35.466,13.311-52.188c0.481-1.138,1.124-2.214,1.761-3.278c0.649-1.085,0.28-1.426-0.855-1.41     c-2.412,0.034-4.824,0.032-7.236,0.053c-2.123,0.019-4.254,0.009-6.329-0.458c-1.552-0.349-2.174,0.169-2.6,1.696     c-2.622,9.41-6.31,18.385-11.565,26.647c-3.067,4.821-6.584,9.321-10.923,13.083c-1.169,1.014-1.547,2.077-1.663,3.566     c-0.887,11.328-2.509,22.525-6.935,33.104c-1.976,4.723-4.219,9.317-7.944,13.009c-8.212,8.139-20.238,7.513-27.556-1.466     c-2.082-2.554-3.74-5.37-5.257-8.862c-1.783,5.548-3.784,10.448-6.302,15.134c-2.326,4.328-4.975,8.391-8.242,12.1     c-6.029,6.846-17.66,10.911-27.197,1.191c-5.183-5.282-7.79-11.747-9.611-18.66c-1.796-6.816-2.358-13.816-2.699-20.826     c-0.921-18.923,1.583-37.605,4.067-56.285c0.434-3.259,0.775-6.538,1.409-9.759c0.424-2.153-0.305-2.934-2.355-3.086     c-5.355-0.395-10.051-2.507-14.129-5.911c-9.915-8.276-12.425-25.859,2.023-34.384c2.057-1.214,4.361-1.735,6.674-2.001     c2.95-0.339,4.899,2.053,4.084,4.903c-0.358,1.251-1.031,2.412-1.564,3.612c-3.023,6.806-3.414,13.284,2.367,18.992     c0.363,0.358,0.687,0.781,1.107,1.053c3.116,2.013,4.259,2.756,5.143-1.799c1.516-7.811,2.948-15.662,5.533-23.225     c1.788-5.231,2.866-5.86,8.339-5.449c2.619,0.197,5.26,0.075,7.89,0.159c3.669,0.118,4.56,1.583,3.647,5.114     c-1.95,7.546-3.724,15.139-5.643,23.013c3.252-0.846,5.895-2.217,8.574-3.446c15.413-7.067,30.494-14.8,45.532-22.631     c14.834-7.725,29.685-15.464,45.714-20.57c10.445-3.328,21.042-5.033,31.959-2.997c6.46,1.205,12.648,3.328,17.779,7.564     c10.857,8.964,10.238,24.758-2.331,32.605c-0.556,0.347-1.152,0.639-1.755,0.897c-4.601,1.968-6.933,0.792-7.313-4.141     c-0.868-11.272-7.37-17.559-17.724-20.46c-6.387-1.79-12.943-2.069-19.555-1.646c-17.304,1.107-32.595,8.258-47.637,15.993     c-16.701,8.588-32.677,18.514-49.405,27.064c-0.325,0.166-0.645,0.344-0.974,0.502c-5.614,2.699-5.643,2.694-6.713,8.889     c-2.202,12.745-3.747,25.575-5.022,38.442c-1.167,11.784-1.981,23.592-1.594,35.431c0.245,7.502,0.399,15.057,2.49,22.373     c0.465,1.627,1.14,3.169,2.028,4.599c2.571,4.137,7.176,5.053,11.174,2.244c4.014-2.821,6.602-6.839,8.729-11.089     c3.633-7.261,6.651-14.789,8.744-22.662c0.249-0.936,0.38-1.862,0.299-2.814c-0.8-9.453,0.954-18.484,4.689-27.131     c0.88-2.037,0.779-3.503-0.465-5.387c-8.165-12.366-7.619-28.432,1.565-39.689c7.727-9.471,21.365-12.517,31.986-1.523     c6.622,6.854,9.452,15.498,11.092,24.608c0.814,4.525,1.463,9.089,1.428,13.715c-0.004,0.544-0.272,1.324,0.393,1.576     c0.639,0.241,0.997-0.478,1.373-0.883c4.055-4.364,7.417-9.232,10.107-14.53c3.014-5.936,5.579-12.063,7.412-18.488     c0.498-1.744,0.393-2.736-1.529-3.54c-4.907-2.053-8.797-5.452-11.701-9.913c-4.339-6.667-2.142-16.372,4.578-20.45     c4.388-2.662,9.345-1.596,12.399,2.518c2.561,3.45,3.394,7.4,3.611,11.535c0.192,3.65,0.243,7.323-0.478,10.925     c-0.367,1.832,0.376,2.439,1.998,2.45c4.165,0.029,8.336,0.178,12.493,0.006c3.405-0.141,6.135,0.95,8.413,3.408     c2.432,2.624,4.9,5.214,7.338,7.832c1.818,1.952,1.473,4.123,0.616,6.352c-2.44,6.344-4.744,12.741-6.714,19.246     c-3.502,11.561-6.578,23.221-6.494,35.434c0.024,3.427,0.292,6.869,1.299,10.185c1.252,4.124,3.86,5.126,7.509,2.805     c2.956-1.881,5.047-4.613,6.917-7.525c6.54-10.19,10.653-21.438,14.089-32.94c0.849-2.842,0.139-5.956,0.074-8.947     c-0.19-8.834-0.765-17.684,0.166-26.497c0.679-6.434,7.617-10.243,13.74-7.757c2.036,0.827,2.691,2.525,2.666,4.601     c-0.032,2.631-0.035,5.263-0.041,7.894c-0.006,2.625-0.001,5.251,0.344,7.97c0.755-2.064,1.52-4.124,2.263-6.191     c2-5.564,4.808-10.625,8.928-14.939c4.914-5.145,12.035-6.669,18.489-3.74c4.866,2.208,7.074,6.568,8.745,11.267     c1.604,4.508,2.059,9.245,2.856,14.12c0.428-1.004,0.837-2.016,1.286-3.011c2.659-5.897,5.664-11.509,10.875-15.688     c7.138-5.726,16.375-6.3,22.796-0.916c4.876,4.088,6.322,9.878,6.747,15.903c0.539,7.64-1.512,14.939-3.489,22.201     c-2.61,9.586-6.183,18.893-8.339,28.614c-1.552,7-2.963,14.019-2.661,21.251c0.134,3.201,0.789,6.241,2.922,8.773     c2.251,2.672,5.199,3.208,8.25,1.518c2.093-1.16,3.692-2.862,5.053-4.784c4.47-6.311,6.603-13.636,8.978-20.853     c0.291-0.885-0.024-1.725-0.387-2.542c-4.751-10.698-4.976-21.924-4.025-33.329c0.894-10.723,2.48-21.324,4.993-31.786     c0.53-2.206,1.193-4.364,1.994-6.489c0.922-2.444,2.678-3.543,5.223-3.53c3.508,0.017,7.012,0.007,10.52-0.192     c2.999-0.17,4.363,1.767,3.743,5.217c-0.852,4.746-1.789,9.477-2.718,14.208c-1.972,10.035-4.162,20.038-5.204,30.224     c-0.862,8.427-1.806,16.901,1.136,25.171c0.341,0.958,0.733,1.919,1.253,2.789c2.073,3.466,5.687,4.254,9,1.937     c2.299-1.608,4.101-3.742,5.765-5.97c3.38-4.527,6.314-9.321,8.225-14.669c1.121-3.138,1.013-6.481,1.327-9.735     c1.392-14.404,2.094-28.842,1.844-43.322c-0.079-4.594,1.504-5.866,6.003-5.388c2.83,0.301,5.68,0.421,8.523,0.58     c3.332,0.187,4.495,1.069,4.966,4.351c0.393,2.741,0.678,5.521,0.697,8.286c0.071,10.301,0.26,20.605-0.363,30.9     c-0.636,10.529-2.501,20.875-4.426,31.224c-3.257,17.51-7.89,34.611-14.626,51.12c-3.793,9.296-8.562,18.084-13.822,26.617     c-0.69,1.12-1.388,2.237-2.135,3.319c-0.91,1.318-0.338,1.651,0.969,1.576c4.386-0.254,8.731-0.823,12.973-1.975     c14.805-4.02,26.918-12.162,36.457-24.124c4.814-6.037,7.829-12.985,9.777-20.417c1.068-4.073,3.579-5.132,7.431-3.461     c5.537,2.403,8.76,11.079,7.579,16.391c-2.298,10.335-8.248,18.203-16.064,24.972c-8.324,7.208-18.274,11.104-28.529,14.481     c-11.715,3.857-23.642,4.368-35.728,2.418c-1.589-0.256-2.541,0.162-3.554,1.382c-11.246,13.533-24.47,24.674-40.215,32.651     c-10.147,5.141-20.882,8.063-32.305,8.91c-11.512,0.853-22.375-0.9-32.286-6.762c-12.451-7.364-20.746-17.907-21.604-32.82     c-0.703-12.208,5.943-25.388,19.627-30.847c11.747-4.686,23.801-5.582,36.169-3.412c12.291,2.157,24.022,6.247,35.752,10.343     c7.104,2.48,14.244,4.861,21.328,7.397c1.934,0.692,3.026,0.27,4.156-1.45c9.029-13.744,15.435-28.64,20.012-44.396     c3.163-10.891,5.671-21.924,7.816-33.05c0.053-0.276,0.044-0.565,0.088-1.201c-1.908,2.683-3.552,5.14-5.341,7.485     c-7.997,10.481-21.26,9.082-27.541,1.899c-0.181-0.207-0.443-0.344-0.847-0.649c-0.839,2.762-1.61,5.393-2.438,8.007     c-1.618,5.112-4.05,9.826-6.742,14.462c-6.501,11.196-25.146,12.871-32.906-1.854c-4.017-7.624-4.719-15.791-4.132-24.082     c1.081-15.27,5.017-29.924,10.295-44.251c2.046-5.555,3.865-11.19,5.035-17.011c0.349-1.738,0.421-3.492,0.251-5.238     c-0.269-2.776-2.754-4.382-5.313-3.387c-4.607,1.79-7.927,5.097-10.536,9.206c-4.846,7.634-7.337,16.219-9.841,24.769     c-3.026,10.332-3.976,21.091-6.151,31.602c-0.98,4.738-2.297,5.996-7.074,6.594c-1.746,0.219-3.485,0.382-5.243,0.314     c-2.881-0.112-4.132-1.326-4.126-4.233c0.01-4.839,0.925-9.592,1.527-14.372c1.887-14.995,4.406-29.928,4.249-45.117     c-0.026-2.496-0.145-4.984-0.901-7.367c-0.577-1.818-1.304-3.694-3.451-4.186c-2.371-0.544-4.201,0.436-5.814,2.207     c-5.236,5.752-7.824,12.842-9.814,20.096c-3.488,12.717-5.352,25.727-5.848,38.917c-0.057,1.525-0.233,3.032-0.145,4.581     c0.149,2.614-1.574,4.36-4.214,4.659c-5.423,0.613-7.746-1.102-8.63-6.461C287.278,369.383,286.915,366.561,286.436,363.263z      M332.138,502.307c6.337,0.069,12.194-1.047,17.911-2.964c8.735-2.929,16.629-7.445,24.078-12.804     c8.455-6.083,16.076-13.06,22.812-21.011c1.016-1.199,0.902-1.768-0.585-2.308c-2.263-0.822-4.489-1.754-6.697-2.717     c-12.39-5.406-24.873-10.492-38.106-13.588c-11.243-2.63-22.508-3.297-33.899-1.461c-12.803,2.064-22.2,14.376-20.228,26.686     C299.955,487.946,313.767,502.837,332.138,502.307z M180.235,376.027c0,1.022-0.068,2.049,0.012,3.064     c0.381,4.842,1.063,9.614,4.259,13.558c2.256,2.784,5.46,3.16,8.345,1.088c2.635-1.893,4.325-4.528,5.635-7.409     c3.91-8.597,5.763-17.735,6.921-27.038c0.278-2.233,0.024-2.362-1.998-1.538c-6.225,2.536-12.59,3.734-19.234,1.888     c-1.715-0.477-2.216,0.416-2.488,1.823C180.755,366.275,180.203,371.123,180.235,376.027z M196.682,351.42     c2.686,0.121,5.139-0.522,7.557-1.405c1.499-0.548,2.158-1.475,2.036-3.138c-0.415-5.667-0.579-11.352-1.695-16.955     c-0.688-3.455-1.586-6.828-3.249-9.944c-3.176-5.95-8.615-7.148-13.788-2.87c-4.944,4.089-6.78,9.664-6.958,15.91     c-0.038,1.326,0.588,1.375,1.658,1.116c2.13-0.515,4.305-0.837,6.501-0.602c1.402,0.15,2.756,0.522,3.367,2.039     c0.608,1.511-0.09,2.657-1.004,3.786c-1.661,2.054-2.8,4.423-4.042,6.737c-0.844,1.573-0.293,2.417,1.122,3.105     C190.903,350.519,193.659,351.643,196.682,351.42z M227.453,290.859c0.037,3.865,1.644,7.04,4.298,9.75     c0.294,0.3,0.566,0.779,1.057,0.644c0.484-0.133,0.569-0.663,0.562-1.081c-0.07-4.229-0.22-8.459-1.454-12.544     c-0.264-0.873-0.786-1.881-1.856-1.967c-1.145-0.092-1.487,1.009-1.956,1.803C227.488,288.509,227.434,289.681,227.453,290.859z"/>
			<path d="M85.058,292.876c0.085,4.799-0.808,12.37-3.639,19.633c-0.265,0.681-0.504,1.373-0.801,2.039     c-2.404,5.392-4.988,6.7-10.797,5.423c-1.854-0.408-3.71-0.841-5.524-1.394c-2.122-0.648-2.782-2.166-1.677-4.081     c4.874-8.445,7.43-17.601,8.373-27.233c0.846-8.635-0.735-16.898-4.431-24.712c-1.355-2.866-3.465-5.279-6.266-6.881     c-5.485-3.138-11.082-2.256-16.482,2.517c-6.919,6.116-10.121,13.996-10.622,23.041c-0.774,13.972,4.057,26.394,10.843,38.247     c6.251,10.92,13.79,21.011,20.401,31.699c8.08,13.062,14.742,26.731,18.214,41.804c3.989,17.32,1.302,33.298-9.921,47.338     c-6.805,8.513-15.562,13.844-26.79,14.242c-9.677,0.343-17.405-3.762-23.158-11.205c-12.52-16.2-13.321-41.026-0.741-57.493     c1.322-1.73,2.951-3.237,4.522-4.76c1.825-1.769,3.933-2.061,6.253-0.952c2.937,1.403,5.511,3.307,7.797,5.597     c2.066,2.071,2.116,3.965,0.185,6.158c-1.496,1.699-3.116,3.29-4.587,5.009c-5.403,6.316-9.624,13.323-10.976,21.617     c-1.376,8.441,0.296,16.352,5.903,23.046c5.827,6.956,19.581,10.378,27.951-0.945c4.888-6.612,6.213-14.237,6.464-22.148     c0.421-13.241-3.268-25.563-8.767-37.426c-4.627-9.982-10.794-19.054-16.799-28.225c-7.769-11.865-15.551-23.742-19.981-37.386     c-5.149-15.858-5.511-31.672,1.575-47.046c6.397-13.881,17.337-21.334,32.854-21.305c10.766,0.02,18.62,5.116,23.906,14.38     C83.38,270.306,85.013,279.93,85.058,292.876z"/>
		</g>
		<path d="M97.101,448.382c-0.046-2.9,0.897-5.978,2.157-8.946c1.052-2.476,3.643-3.265,6.056-1.825    c1.618,0.966,2.993,2.331,4.569,3.378c8.162,5.421,17.258,7.963,26.926,9.081c18.42,2.13,35.466-2.379,52.086-9.826    c13.288-5.954,25.964-13.086,38.995-19.53c14.812-7.325,30.1-13.276,46.674-15.138c9.683-1.088,19.4-1.717,28.873,1.445    c4.505,1.504,8.939,3.24,12.971,5.809c2.849,1.815,5.144,4.12,5.694,7.663c0.161,1.032,0.166,2.139-0.879,2.735    c-0.967,0.551-1.908,0.01-2.614-0.607c-11.835-10.359-25.953-10.711-40.393-8.946c-18.298,2.236-35.191,8.928-51.539,17.132    c-14.174,7.113-27.733,15.376-41.9,22.504c-12.431,6.255-25.159,11.794-38.681,15.217c-10.16,2.572-20.472,3.651-30.736,0.522    c-6.461-1.97-11.879-5.591-15.63-11.367C97.98,454.987,97.071,452.008,97.101,448.382z"/>
	</g>
	<g>
		<g>
			<g>
				<path d="M163.993,213.811c-1.866,0.273-4.606,0.705-7.355,1.068c-2.255,0.298-4.52,0.442-6.699-0.442      c-2.502-1.016-3.517-2.984-2.936-5.62c0.349-1.585,1.042-3.036,1.767-4.471c5.93-11.732,11.908-23.438,18.138-35.015      c1.667-3.097,3.68-4.91,7.481-4.893c3.919,0.018,7.832-0.819,11.785-0.723c0.8,0.019,1.614,0.034,2.395,0.185      c3.077,0.597,4.143,2.376,2.912,5.241c-1.035,2.408-2.33,4.71-3.592,7.014c-3.44,6.275-6.931,12.521-10.387,18.787      c-1.581,2.867-1.531,2.839,1.617,3.017c2.689,0.152,5.411,0.16,8.044,0.836c3.603,0.926,4.745,3.003,3.67,6.512      c-0.953,3.11-2.742,5.811-4.37,8.563c-5.205,8.799-10.523,17.532-15.839,26.265c-0.755,1.24-1.705,2.37-2.634,3.493      c-0.981,1.186-2.179,2.076-3.806,1.355c-1.639-0.726-1.733-2.289-1.553-3.755c0.391-3.188,0.845-6.373,1.429-9.53      c0.942-5.098,2.018-10.171,3.019-15.258C167.605,213.764,167.483,213.635,163.993,213.811z M168.268,235.377      c0.188,0.038,0.376,0.075,0.564,0.113c0.232-0.366,0.469-0.729,0.697-1.098c5.441-8.838,10.543-17.873,15.705-26.874      c2.727-4.755,2.555-5.099-3.024-5.154c-2.485-0.024-4.975,0.069-7.454-0.063c-3.286-0.175-4.426-1.994-3.202-5.019      c0.573-1.417,1.291-2.782,2.031-4.123c4.309-7.804,8.63-15.601,12.984-23.38c0.831-1.484,0.62-2.131-1.177-1.949      c-3.703,0.374-7.406,0.752-11.112,1.088c-1.415,0.128-2.15,0.899-2.726,2.154c-1.065,2.322-2.248,4.595-3.482,6.833      c-5.22,9.475-10.285,19.03-14.83,28.849c-0.449,0.971-1.619,2.092-0.677,3.184c0.812,0.943,2.165,0.596,3.331,0.408      c3.388-0.547,6.779-1.081,10.17-1.611c5.087-0.795,7.265,1.294,6.413,6.356c-0.582,3.456-1.429,6.866-2.147,10.299      C169.638,228.718,168.956,232.048,168.268,235.377z"/>
				<path d="M333.655,158.053c3.901,0.061,4.885,1.649,3.445,5.391c-1.561,4.054-4.125,7.538-6.472,11.149      c-2.703,4.158-2.645,4.16,2.156,4.501c1.374,0.098,2.761,0.342,4.089,0.709c4.246,1.174,5.529,3.858,3.635,7.798      c-1.644,3.42-3.464,6.757-5.231,10.117c-5.746,10.926-11.716,21.723-18.78,31.87c-1.416,2.035-2.998,3.957-4.552,5.892      c-1.061,1.321-2.382,2.366-4.151,1.508c-1.65-0.801-1.412-2.379-1.1-3.854c1.921-9.088,4.686-17.932,7.68-26.714      c1.06-3.108,1.888-6.293,2.913-9.414c0.516-1.57,0.073-2.118-1.555-2.122c-4.601-0.012-9.173,0.692-13.783,0.461      c-1.985-0.099-3.937-0.337-5.806-0.991c-2.98-1.042-4.262-3.392-3.32-6.403c3.155-10.088,7.61-19.58,13.282-28.503      c0.779-1.226,1.816-1.85,3.252-1.849C311.621,157.601,327.821,157.962,333.655,158.053z M312.295,227.921      c0.123,0.057,0.246,0.114,0.368,0.171c0.287-0.403,0.584-0.8,0.859-1.211c8.631-12.887,15.703-26.661,22.916-40.353      c1.133-2.151,0.879-2.581-1.604-2.857c-2.535-0.282-5.095-0.328-7.636-0.563c-2.939-0.271-4.125-1.937-3.428-4.819      c0.237-0.982,0.626-1.951,1.089-2.851c2.109-4.093,4.786-7.844,7.176-11.768c0.326-0.535,1.013-1.044,0.565-1.736      c-0.35-0.54-1.068-0.354-1.635-0.352c-5.769,0.022-11.541,0.19-17.305,0.036c-4.2-0.066-6.384,5.093-6.915,6.051      c-3.436,6.208-6.421,12.611-8.585,19.387c-0.616,1.93-0.2,2.756,1.922,3.04c5.259,0.704,10.483,0.174,15.73-0.023      c6.719-0.252,8.01,1.527,6.14,7.934c-1.801,6.169-3.88,12.247-5.979,18.32C314.65,220.158,313.515,224.054,312.295,227.921z"/>
				<path d="M254.149,159.683c6.188-0.593,6.886,2,4.477,6.825c-1.337,2.679-2.732,5.329-4.121,7.982      c-1.347,2.574-1.22,2.851,1.593,2.816c1.766-0.022,3.505,0.13,5.214,0.54c3.521,0.846,4.787,3.107,3.207,6.382      c-1.678,3.478-3.673,6.81-5.635,10.144c-4.182,7.108-8.008,14.445-13.229,20.895c-0.641,0.792-1.301,1.584-2.046,2.275      c-0.977,0.907-2.137,1.305-3.409,0.596c-1.188-0.662-1.441-1.83-1.292-3.032c0.243-1.955,0.548-3.909,0.961-5.834      c1.087-5.069,2.192-10.135,3.404-15.174c0.421-1.752,0.061-2.294-1.761-1.912c-1.782,0.374-3.614,0.504-5.413,0.809      c-5.27,0.893-7.383-1.44-5.522-6.38c2.214-5.879,4.899-11.563,7.684-17.195c0.841-1.702,1.749-3.371,2.61-5.063      c1.269-2.495,3.372-3.791,6.079-4.093C249.342,159.994,251.749,159.87,254.149,159.683z M254.311,164.553      c-2.881,0.036-5.397,0.354-7.911,0.782c-1.145,0.195-1.732,0.766-2.172,1.837c-1.165,2.835-2.49,5.604-3.722,8.412      c-1.614,3.678-3.199,7.369-4.801,11.052c-0.578,1.328-0.587,2.082,1.265,1.613c1.979-0.5,3.997-0.881,6.017-1.186      c3.959-0.598,6.075,1.502,5.438,5.44c-0.326,2.014-0.894,3.989-1.344,5.984c-0.787,3.487-1.567,6.976-2.35,10.464      c5.805-7.941,10.089-16.671,14.929-25.076c0.751-1.303,0.113-1.696-1.136-1.684c-1.242,0.012-2.491-0.091-3.725,0.004      c-7.691,0.586-7.511-3.828-5.231-8.396C251.066,170.801,252.625,167.835,254.311,164.553z"/>
			</g>
			<g>
				<path d="M429.601,149.343c-0.255,5.029-0.684,9.673-2.761,13.987c-1.672,3.473-4.115,5.984-8.048,6.773      c-3.22,0.646-6.004-0.584-7.524-3.51c-2.135-4.109-1.839-8.398-0.387-12.563c2.402-6.891,6.364-12.948,10.681-18.776      c0.301-0.406,0.682-0.768,1.079-1.082c2.506-1.981,4.032-1.551,5.044,1.467C429.212,140.2,429.141,144.988,429.601,149.343z       M423.754,140.141c-3.751,6.013-8.02,11.722-9.275,18.889c-0.28,1.597-0.152,3.212,0.523,4.73      c0.886,1.993,2.064,2.427,4.034,1.554c1.874-0.83,2.954-2.372,3.648-4.18C425.305,154.307,424.62,147.271,423.754,140.141z"/>
				<path d="M401.235,221.776c-0.062,6.397-0.599,12.688-4.186,18.277c-1.367,2.131-3.105,3.861-5.492,4.835      c-3.742,1.528-6.991,0.279-8.748-3.373c-1.214-2.524-1.546-5.262-0.957-7.912c2.008-9.041,6.324-16.723,13.97-22.246      c2.302-1.663,3.604-1.187,4.524,1.536C401.321,215.779,401.239,218.784,401.235,221.776z M397.123,221.555      c-0.086-0.961-0.165-2.344-0.354-3.712c-0.083-0.597,0.294-1.519-0.517-1.719c-0.641-0.158-1.133,0.584-1.577,1.033      c-4.723,4.773-7.964,10.39-9.462,16.959c-0.415,1.817-0.251,3.625,0.464,5.367c1.043,2.542,2.68,3.065,5.003,1.552      c1.575-1.025,2.608-2.521,3.451-4.162C396.535,232.19,396.838,227.092,397.123,221.555z"/>
				<path d="M416.528,83.32c0.055,5.223-0.581,9.825-2.269,14.247c-0.788,2.064-1.824,3.99-3.53,5.461      c-3.726,3.214-8.647,2.145-10.745-2.287c-1.925-4.067-0.985-8.05,0.525-11.893c2.248-5.721,5.254-11.064,8.799-16.098      c0.986-1.399,2.079-2.457,3.972-2.063c1.849,0.385,2.014,1.98,2.296,3.364C416.232,77.271,416.695,80.524,416.528,83.32z       M411.717,76.644c-3.467,6.016-7.309,11.813-8.629,18.754c-0.247,1.299-0.146,2.627,0.408,3.869      c0.871,1.953,2.486,2.418,4.258,1.232c1.139-0.762,1.891-1.889,2.339-3.108C412.561,90.677,412.928,83.763,411.717,76.644z"/>
				<path d="M374.056,197.847c0.01,6.372-0.438,12.111-3.978,17.078c-2.021,2.835-4.731,4.538-8.318,4.526      c-3.277-0.011-5.556-1.772-6.391-4.939c-0.532-2.017-0.548-4.077,0.028-6.074c2.447-8.473,7.595-15.042,14.507-20.339      c1.49-1.142,2.453-0.754,3.163,0.977C374.304,192.101,373.954,195.259,374.056,197.847z M369.643,193.746      c-5.373,4.252-9.04,9.561-10.781,16.111c-0.237,0.893-0.217,1.895-0.122,2.827c0.269,2.653,2.211,3.788,4.701,2.79      c1.97-0.79,3.043-2.444,3.878-4.266C369.864,205.651,369.351,199.672,369.643,193.746z"/>
				<path d="M347.74,239.837c0.042,5.704-0.267,10.523-2.297,15.016c-1.921,4.25-4.984,7.236-9.881,7.601      c-3.102,0.231-5.086-1.282-6.195-4.187c-1.046-2.741-0.625-5.481-0.077-8.208c1.593-7.923,6.479-13.775,12.254-18.981      c2.145-1.934,4.462-1.153,5.504,1.582C348.041,235.262,347.682,237.997,347.74,239.837z M343.221,234.933      c-3.173,3.358-6.361,6.649-8.479,10.765c-1.455,2.828-2.15,5.885-2.3,9.048c-0.072,1.524,0.365,2.955,1.82,3.722      c1.358,0.716,2.559-0.035,3.664-0.752c1.83-1.188,3.194-2.802,3.83-4.907C343.508,247.018,343.868,241.087,343.221,234.933z"/>
				<path d="M124.416,96.893c-0.575,7.267-1.905,14.324-6.269,20.425c-1.761,2.462-3.758,4.667-6.918,5.366      c-3.038,0.673-5.537-0.685-6.562-3.62c-1.047-3.001-0.243-5.803,1.158-8.423c3.529-6.603,8.544-11.944,14.426-16.508      c0.286-0.222,0.607-0.405,0.927-0.58c2.088-1.14,2.946-0.724,3.228,1.593C124.475,95.72,124.416,96.31,124.416,96.893z       M119.592,99.842c-4.442,3.94-8.444,8.138-10.734,13.658c-1.027,2.475-0.935,5.006,0.334,5.432      c2.24,0.752,3.578-0.912,4.662-2.401C117.451,111.587,119.016,105.884,119.592,99.842z"/>
				<path d="M100.85,187.009c-0.048,5.055-0.959,9.685-2.832,14.116c-1.104,2.613-2.774,4.806-5.045,6.51      c-2.64,1.981-5.677,2.343-7.773,0.985c-2.074-1.343-3.105-4.333-2.374-7.48c0.919-3.954,2.596-7.619,4.929-10.929      c2.444-3.468,5.199-6.695,8.374-9.535c1.694-1.515,2.289-1.344,3.636,0.453C101.198,183.04,100.677,185.183,100.85,187.009z       M96.388,185.826c-2.88,2.63-5.223,5.611-7.152,8.865c-1.445,2.437-2.71,5.021-3.114,7.898      c-0.159,1.132-0.001,2.276,1.021,2.921c0.962,0.606,1.992,0.202,2.88-0.377c1.116-0.729,2.015-1.694,2.684-2.843      C95.665,197.215,96.163,191.574,96.388,185.826z"/>
				<path d="M286.324,206.714c-0.15,5.637-1.47,10.976-4.258,15.902c-1.403,2.48-3.342,4.425-6.071,5.449      c-2.872,1.078-5.157,0.149-6.58-2.563c-1.673-3.189-1.455-6.414,0.085-9.481c2.65-5.276,6.183-9.895,11.003-13.419      c0.525-0.383,1.117-0.706,1.722-0.942c2.155-0.84,3.84,0.154,4.084,2.426C286.401,204.953,286.324,205.837,286.324,206.714z       M282.419,205.821c-3.27,2.514-5.322,5.316-7.288,8.191c-1.28,1.873-2.481,3.81-2.783,6.108      c-0.211,1.604-0.342,3.516,1.401,4.225c1.528,0.622,2.638-0.782,3.579-1.911c0.372-0.446,0.743-0.91,1.018-1.418      C280.81,216.456,281.924,211.532,282.419,205.821z"/>
				<path d="M220.593,212.712c-0.247,5.703-1.15,12.003-5.465,17.259c-0.593,0.722-1.304,1.394-2.08,1.908      c-2.197,1.455-4.597,2.665-7.088,0.915c-2.468-1.734-3.431-4.42-2.892-7.331c1.092-5.894,4.156-10.833,8.061-15.277      c1.586-1.805,3.24-3.553,4.917-5.276c1.569-1.613,2.83-1.361,3.823,0.76C220.799,207.659,220.529,209.811,220.593,212.712z       M216.759,209.337c-3.216,3.439-5.965,6.391-7.784,10.083c-1.025,2.079-2.376,4.046-2.504,6.456      c-0.085,1.599-0.272,3.519,1.543,4.177c1.76,0.638,3.021-0.842,3.945-2.111C215.863,222.583,216.337,216.316,216.759,209.337z"/>
				<path d="M220.035,172.868c0.049,4.983-0.77,9.303-3.056,13.288c-0.773,1.348-1.71,2.546-2.856,3.58      c-2.204,1.988-5.008,2.458-7.272,1.247c-2.37-1.268-3.769-3.965-3.254-6.858c0.81-4.548,2.816-8.612,5.773-12.128      c1.874-2.229,3.988-4.271,6.11-6.273c1.789-1.687,3.301-1.147,3.956,1.292C219.991,169.078,220.131,171.188,220.035,172.868z       M215.26,171.856c-2.032,1.844-3.71,3.84-4.96,6.147c-1.105,2.039-2.34,4.056-2.506,6.454c-0.086,1.238-0.162,2.633,1.298,3.159      c1.396,0.503,2.372-0.411,3.112-1.46C215.245,181.843,215.796,176.977,215.26,171.856z"/>
				<path d="M121.664,182.925c0.701-5.251,3.08-10.173,6.846-14.426c1.35-1.524,2.834-2.946,4.367-4.289      c2.049-1.794,4.288-0.997,4.829,1.709c0.57,2.847-0.083,5.664-0.527,8.454c-0.637,4.003-2.037,7.758-4.347,11.12      c-0.572,0.832-1.255,1.633-2.032,2.271c-1.826,1.496-3.897,2.524-6.234,1.331C122.295,187.935,121.688,185.755,121.664,182.925z       M133.018,169.084c-1.112,1.229-2.33,2.38-3.316,3.703c-2.248,3.018-3.877,6.351-4.334,10.132      c-0.122,1.012-0.45,2.454,0.894,2.855c1.314,0.391,2.024-0.849,2.728-1.771c0.131-0.172,0.204-0.386,0.314-0.575      C131.855,179.049,132.726,174.199,133.018,169.084z"/>
				<path d="M84.867,156.263c0.188-3.438,1.351-6.537,3.309-9.347c2.057-2.95,4.616-5.432,7.393-7.686      c1.583-1.285,2.759-0.951,3.106,1.066c1.234,7.178,0.234,13.928-4.523,19.73c-1.847,2.252-4.174,2.906-6.195,1.995      C85.48,160.906,84.77,158.794,84.867,156.263z M95.429,144.431c-1.615,1.249-2.531,2.466-3.445,3.681      c-1.937,2.577-3.076,5.448-3.106,8.703c-0.006,0.65-0.022,1.409,0.716,1.697c0.733,0.286,1.245-0.3,1.691-0.751      c0.456-0.461,0.866-0.997,1.18-1.565C94.414,152.675,95.041,148.82,95.429,144.431z"/>
				<path d="M124.993,214.558c-0.116,3.676-0.606,7.284-1.743,10.778c-1.041,3.2-2.974,5.699-6.193,6.94      c-2.639,1.017-4.757-0.008-5.783-2.646c-0.862-2.216-0.738-4.478,0.006-6.658c1.82-5.333,4.811-9.979,8.817-13.917      c2.138-2.101,4.053-1.392,4.594,1.583C124.924,211.921,124.9,213.25,124.993,214.558z M120.939,213.218      c-2.705,3.671-5.891,6.969-7.074,11.495c-0.322,1.232-0.426,2.427,0.037,3.642c0.499,1.311,1.289,1.676,2.526,0.875      c1.608-1.043,2.589-2.563,3.168-4.323C120.837,221.131,120.922,217.196,120.939,213.218z"/>
				<path d="M366.164,165.781c-0.211,3.997-0.952,8.424-3.548,12.343c-1.521,2.295-3.78,3.308-5.94,2.669      c-2.016-0.596-3.403-2.637-3.452-5.32c-0.077-4.233,1.823-7.799,4.225-11.052c1.417-1.919,3.282-3.516,4.995-5.208      c1.229-1.215,2.197-0.787,2.913,0.626C366.218,161.54,366.124,163.379,366.164,165.781z M362.456,164.242      c-2.209,2.225-3.397,4.352-4.486,6.547c-0.722,1.456-1.229,2.965-1.08,4.627c0.066,0.738,0.096,1.53,1.006,1.732      c0.758,0.168,1.245-0.35,1.604-0.914C361.718,172.749,362.135,168.838,362.456,164.242z"/>
				<path d="M381.943,76.541c0.086,2.492-0.06,4.959-0.999,7.306c-1.247,3.117-3.891,4.649-6.681,3.909      c-2.778-0.737-4.233-3.337-3.56-6.775c0.836-4.27,2.714-8.124,5.209-11.665c0.819-1.162,1.937-2.117,3.497-1.765      c1.476,0.334,1.554,1.758,1.892,2.932C381.872,72.464,381.966,74.497,381.943,76.541z M377.619,74.624      c-1.453,2.204-2.575,4.514-3.082,7.064c-0.175,0.88-0.387,2.094,0.868,2.35c1.174,0.24,1.547-0.88,1.865-1.752      C378.184,79.785,377.793,77.214,377.619,74.624z"/>
				<path d="M78.687,109.844c0.168-1.477,0.546-2.904,1.352-4.133c2.457-3.745,5.619-6.691,9.896-8.263      c2.431-0.893,3.83,0.204,3.28,2.718c-1.152,5.271-4.092,9.456-8.329,12.712c-1.313,1.009-2.92,1.473-4.512,0.543      C79.043,112.642,78.704,111.293,78.687,109.844z M88.886,102.342c-2.826,1.791-5.287,3.89-6.496,7.125      c-0.142,0.38-0.422,0.893,0.079,1.151c0.233,0.12,0.731-0.039,0.986-0.233C86.162,108.328,87.866,105.578,88.886,102.342z"/>
			</g>
		</g>
		<g>
			<path d="M173.885,86.117c-0.811-0.584-1.488-0.408-2.12-0.406c-12.059,0.023-24.123-0.152-36.175,0.148     c-17.463,0.434-34.924,0.165-52.385,0.258c-4.572,0.024-5.635-0.977-5.723-5.689c-0.147-7.919,2.425-15.055,7.383-21.087     c8.303-10.099,19.112-15.36,32.309-15.328c1.671,0.004,3.368,0.182,5.004,0.519c1.592,0.328,2.254-0.144,2.531-1.73     c1.83-10.501,7.168-18.984,14.933-26.139c17.558-16.179,44.446-14.626,59.854,3.583c3.333,3.939,5.662,8.514,7.535,13.293     c0.677,1.726,1.237,1.867,2.765,0.803c8.314-5.786,18.816-6.104,26.344-0.921c2.262,1.557,4.111,3.535,5.435,5.925     c0.851,1.537,1.684,1.634,3.136,0.754c10.65-6.449,22.26-9.514,34.672-9.258c7.334,0.151,14.54,1.42,21.449,3.994     c1.69,0.63,2.342,0.642,2.558-1.51c1.381-13.768,12.4-24.754,27.043-27.07c8.941-1.414,17.104,1.069,24.771,5.423     c1.997,1.134,3.062,1.007,4.497-0.842c9.137-11.771,30.286-17.116,44.889,0.54c3.743,4.526,6.012,9.811,7.994,15.254     c1.271,3.491,1.228,3.386,4.59,3.003c8.255-0.94,16.828,4.38,20.291,12.464c1.763,4.115,2.876,8.432,2.762,12.981     c-0.076,3.001-1.277,4.284-4.309,4.288c-17.979,0.021-35.962,0.27-53.934-0.071c-15.784-0.3-31.562-0.08-47.342-0.208     c-0.928-0.007-2.646-0.475-1.403,1.578c4.835,7.989,6.916,16.818,7.999,25.974c0.422,3.563-0.09,3.219,3.277,2.361     c10.582-2.695,21.35,1.465,27.342,10.562c4.189,6.359,5.854,13.519,6.427,20.937c0.32,4.137,0.581,7.031,5.897,8.406     c7.818,2.023,11.049,8.802,12.083,16.448c0.427,3.155-1.215,4.783-4.421,4.82c-5.627,0.066-11.254,0.09-16.882,0.089     c-80.83-0.024-161.661-0.049-242.492-0.098c-7.464-0.005-7.996-0.306-9.009-8.072c-1.773-13.597,4.952-24.624,18.365-30.956     c5.978-2.823,12.254-4.345,18.826-4.497c2.522-0.058,3.75-0.951,4.438-3.424C166.821,96.988,169.265,91.058,173.885,86.117z      M259.779,145.289c0-0.017,0-0.033,0-0.05c41.803,0,83.606,0,125.409,0.001c1.389,0,2.777-0.005,4.165,0.013     c1.303,0.017,1.69-0.525,1.266-1.785c-1.868-5.558-5.4-9.286-11.341-10.352c-4.932-0.885-6.071-2.238-6.221-7.317     c-0.165-5.589-1.107-11.064-3.049-16.306c-2.886-7.792-8.124-13.081-16.526-14.713c-4.006-0.778-7.82,0.271-11.638,1.355     c-3.579,1.016-5.697-0.488-6.071-4.137c-0.179-1.744-0.308-3.494-0.535-5.232c-1.3-9.941-4.049-19.305-10.924-26.99     c-15.404-17.221-34.509-24.854-57.387-20.743c-20.79,3.736-34.978,15.947-42.076,36.035c-0.802,2.27-1.319,4.64-2.079,6.926     c-1.55,4.662-3.626,5.725-8.314,4.451c-3.876-1.053-7.621-2.526-11.567-3.374c-11.674-2.51-23.042,2.835-28.526,13.42     c-1.725,3.329-3.084,6.788-4.148,10.36c-1.074,3.605-3.374,5.367-7.128,5.707c-5.671,0.513-11.343,1.107-16.648,3.495     c-8.628,3.884-15.241,9.477-16.937,19.4c-0.41,2.397-0.102,4.828-0.359,7.211c-0.237,2.197,0.484,2.674,2.594,2.671     C174.419,145.274,217.099,145.289,259.779,145.289z M117.552,49.272c-15.036-0.155-31.405,9.689-34.958,27.325     c-0.877,4.351-1.024,4.281,3.313,4.271c7.595-0.017,15.188,0.151,22.782,0.253c22.425,0.301,44.857-0.077,67.28,0.542     c2.051,0.057,3.842-0.351,5.621-1.381c6.011-3.481,12.495-4.797,19.397-3.881c4.659,0.618,9.152,1.912,13.518,3.61     c1.76,0.685,2.784,0.433,3.093-1.557c0.089-0.575,0.3-1.129,0.432-1.698c2.939-12.7,9.622-23.09,19.516-31.461     c1.202-1.017,1.113-1.739,0.294-2.908c-5.475-7.815-15.503-8.953-23.131-5.161c-1.367,0.68-2.603,1.621-3.922,2.402     c-3.604,2.133-5.484,1.61-7.444-2.07c-1.407-2.643-2.654-5.382-4.2-7.94c-7.396-12.239-18.46-18.503-32.596-18.191     c-13.146,0.291-22.885,7.478-30.527,17.74c-3.686,4.949-5.78,10.599-7.202,16.561c-0.809,3.392-2.195,4.281-5.703,3.963     C121.152,49.514,119.201,49.214,117.552,49.272z M409.293,54.96c7.601,0,15.203-0.002,22.804,0.001     c3.757,0.001,3.826-0.01,3.08-3.758c-1.028-5.161-2.595-10.041-7.12-13.399c-3.843-2.852-8.174-3.229-12.721-2.954     c-3.91,0.237-4.772-0.357-6.232-4.052c-1.666-4.216-3.283-8.458-5.851-12.233c-7.69-11.304-18.475-15.708-30.605-10.831     c-4.321,1.737-7.651,4.817-10.673,8.225c-1.946,2.195-4.065,2.575-6.663,1.382c-2.855-1.311-5.716-2.622-8.642-3.762     c-5.109-1.99-10.41-3.051-15.89-2.136c-12.572,2.099-20.631,10.25-23.116,22.867c-0.485,2.459,0.123,3.7,2.262,4.864     c6.792,3.698,12.834,8.416,17.87,14.308c1.18,1.381,2.362,1.84,4.114,1.834c20.751-0.075,41.504,0.107,62.254-0.34     C399.205,54.866,404.25,54.959,409.293,54.96z"/>
			<path d="M311.145,125.258c-5.774,0.014-10.487-4.422-10.478-9.865c0.009-5.772,5.508-11.289,11.268-11.304     c5.765-0.015,10.547,4.673,10.594,10.388C322.576,120.162,317.211,125.243,311.145,125.258z M317.754,113.986     c0.038-3.559-2.563-6.13-6.246-6.173c-4.033-0.047-7.227,2.973-7.279,6.885c-0.051,3.798,2.488,6.434,6.196,6.432     C314.528,121.127,317.71,118.025,317.754,113.986z"/>
			<path d="M243.73,125.258c-6.136-0.031-11.438-5.065-11.362-10.788c0.076-5.692,4.862-10.38,10.601-10.384     c5.702-0.004,11.357,5.69,11.251,11.326C254.115,120.955,249.499,125.287,243.73,125.258z M250.661,114.88     c0.026-3.995-2.954-6.961-7.094-7.061c-3.646-0.088-6.418,2.494-6.432,5.992c-0.016,4.163,3.195,7.349,7.378,7.319     C248.177,121.104,250.638,118.603,250.661,114.88z"/>
			<path d="M263.344,122.205c-0.005-1.331,0.222-2.616,0.845-3.803c0.317-0.603,0.776-1.111,1.528-1.04     c0.666,0.062,0.957,0.624,1.169,1.174c0.55,1.428,1.053,2.873,1.605,4.299c0.982,2.533,2.899,4.174,5.293,5.257     c3.285,1.486,7.11-0.176,8.78-3.917c0.796-1.782,1.218-3.73,1.821-5.599c0.191-0.593,0.539-1.083,1.238-1.018     c0.793,0.073,1.05,0.657,1.145,1.371c0.668,5.021-3.876,12.375-8.637,14.106C269.454,136.192,263.454,128.255,263.344,122.205z"/>
			<path d="M288.484,89.276c-0.871-0.019-1.507-0.209-1.762-0.919c-0.307-0.852,0.197-1.445,0.886-1.768     c5.472-2.564,11.02-4.94,16.88-6.497c0.674-0.179,1.362-0.132,1.721,0.557c0.429,0.824-0.112,1.405-0.716,1.84     c-0.646,0.465-1.342,0.876-2.057,1.227c-4.388,2.153-9.005,3.717-13.633,5.25C289.323,89.125,288.816,89.199,288.484,89.276z"/>
			<path d="M267.965,89.401c-0.753-0.077-1.726-0.589-2.622-1.217c-2.922-2.048-5.821-4.128-8.716-6.213     c-0.409-0.294-0.798-0.649-1.104-1.047c-0.551-0.716-0.994-1.535-0.271-2.367c0.664-0.763,1.496-0.47,2.189-0.032     c2.645,1.673,5.3,3.336,7.872,5.117c1.49,1.032,2.85,2.259,4.225,3.449c0.528,0.456,0.737,1.101,0.33,1.773     C269.518,89.439,268.949,89.522,267.965,89.401z"/>
			<path d="M300.258,95.714c-0.031,2.2-2.018,4.019-4.364,3.997c-2.255-0.022-4.1-1.993-4.019-4.293     c0.078-2.211,1.937-4.038,4.084-4.014C298.353,91.43,300.291,93.373,300.258,95.714z"/>
			<path d="M258.197,98.524c-2.376-0.003-3.991-1.602-4.023-3.984c-0.032-2.353,1.812-4.186,4.161-4.138     c2.29,0.047,4.068,1.792,4.089,4.013C262.446,96.696,260.563,98.527,258.197,98.524z"/>
		</g>
	</g>
</g>
<g>
</g>
<g>
</g>
<g>
</g>
<g>
</g>
<g>
</g>
<g>
</g>
<g>
</g>
<g>
</g>
<g>
</g>
<g>
</g>
<g>
</g>
<g>
</g>
<g>
</g>
<g>
</g>
<g>
</g>
</svg>
