<svg id="Layer_6" height="512" viewBox="0 0 64 64" width="512" xmlns="http://www.w3.org/2000/svg"><path d="m23.87 25.31-1.03 6.69-.96 6.28-2.42 15.72h25.08l-2.42-15.72-.96-6.28-1.03-6.69c-.36-2.35.34-4.8 1.96-6.89 1.25-1.61 1.91-3.49 1.91-5.42 0-5.51-5.38-10-12-10s-12 4.49-12 10c0 1.93.66 3.81 1.91 5.42 1.62 2.09 2.32 4.54 1.96 6.89zm8.13-20.31c5.51 0 10 3.59 10 8 0 1.48-.52 2.93-1.49 4.19-1.96 2.54-2.8 5.53-2.35 8.43l.98 6.38h-14.28l.98-6.38c.45-2.9-.39-5.89-2.35-8.43-.97-1.26-1.49-2.71-1.49-4.19 0-4.41 4.49-8 10-8z"/><path d="m55 56h-46c-1.1 0-2 .9-2 2s.9 2 2 2h46c1.1 0 2-.9 2-2s-.9-2-2-2z"/><path d="m10.75 54h6.69l3.38-22h-8.29c-2.4 0-4.27 2.11-3.97 4.5z"/><path d="m46.56 54h6.69l2.19-17.5c.3-2.39-1.57-4.5-3.97-4.5h-8.29z"/></svg>