<svg id="Capa_1" enable-background="new 0 0 512 512" height="512" viewBox="0 0 512 512" width="512" xmlns="http://www.w3.org/2000/svg"><path d="m465.878 107.95c-4.997-17.173-20.876-29.758-39.64-29.758h-36.477-69.8v30h20.875c-2.452 4.849-4.226 10.132-5.171 15.747l-18.791 111.559h-10.519v-108.496c0-50.885-41.398-92.284-92.283-92.284h-187.769v30h39.572c10.512 0 19.063 8.552 19.063 19.063v47.863h54.572c10.512 0 19.063 8.552 19.063 19.063v47.863h54.572c10.512 0 19.063 8.552 19.063 19.063v17.863h-18.085c-51.338 0-93.104 41.767-93.104 93.105v38.463c0 8.912-7.251 16.163-16.163 16.163s-16.162-7.25-16.162-16.163v-75.331c0-36.479-29.679-66.158-66.158-66.158h-22.536v141.488c0 57.818 47.039 104.857 104.857 104.857 33.305 0 63.031-15.611 82.253-39.897l2.537 45.256h74.351l3.852-113.532h67.579c1.806 0 3.598-.057 5.379-.159l6.373 113.691h74.374l6.31-195.497c.438-3.654.669-7.37.669-11.14v-73.554h38.896c24.576 0 44.57-19.994 44.57-44.57v-44.568zm-252.732 60.621h-24.572v-17.863c0-27.054-22.01-49.063-49.063-49.063h-24.572v-17.863c0-6.757-1.374-13.2-3.855-19.063h102.989c34.343 0 62.283 27.94 62.283 62.284v108.495h-14.146v-17.863c0-27.054-22.01-49.064-49.064-49.064zm21.852 278.711h-16.985l-4.683-83.532h24.504zm140.548 0-5.067-90.388c9.33-3.805 17.909-9.08 25.447-15.539l-3.418 105.926h-16.962zm106.454-294.761c0 8.034-6.536 14.57-14.57 14.57h-80.117v30h11.221v73.554c0 34.796-28.309 63.105-63.104 63.105h-155.715v33.315c0 41.276-33.581 74.857-74.857 74.857s-74.858-33.581-74.858-74.857v-110.714c16.369 3.449 28.695 18.004 28.695 35.383v75.331c0 25.454 20.708 46.163 46.162 46.163s46.163-20.708 46.163-46.163v-38.463c0-34.796 28.309-63.105 63.104-63.105h128.118l23.006-136.576c2.022-12.012 12.332-20.729 24.513-20.729h36.477c6.217 0 11.274 5.058 11.274 11.275v18.482h44.488z"/></svg>