<?xml version="1.0" encoding="UTF-8"?>
<!-- Generator: Adobe Illustrator 25.4.1, SVG Export Plug-In . SVG Version: 6.00 Build 0)  -->
<svg xmlns="http://www.w3.org/2000/svg" xmlns:xlink="http://www.w3.org/1999/xlink" version="1.1" id="Capa_1" x="0px" y="0px" viewBox="0 0 512 512" style="enable-background:new 0 0 512 512;" xml:space="preserve" width="512" height="512">
<g>
	<g>
		<path d="M264.22,0c3.43,0.563,6.863,1.112,10.29,1.691c38.441,6.493,68.584,24.828,88.629,59.345    c15.21,26.191,18.314,54.239,15.514,83.271c-3.922,40.663-24.539,71.791-57.478,95.207c-1.816,1.291-3.783,2.376-5.719,3.49    c-1.772,1.02-3.595,1.949-6.264,3.386c47.998,8.66,78.066,36.686,93.224,80.65c-10.254,5.751-20.228,11.345-30.553,17.136    c-13.424-13.983-31.228-15.348-49.552-12.358c-3.943-7.956-7.054-15.854-11.503-22.908c-13.727-21.764-34.377-31.491-59.553-32.64    c-15.208-0.694-30.306,0.116-45.177,3.646c-1.395,0.331-2.786,0.696-4.149,1.139c-8.691,2.828-8.686,2.837-8.685,11.822    c0.002,12.755,0,25.51,0,38.537c-16.726,1.18-30.265,8.439-41.741,19.837c-9.493-16.005-24.916-20.593-42.614-21.312    c0-2.142,0-4.035,0-5.928c-0.001-78.285,0.042-156.57-0.045-234.855c-0.014-12.881,0.599-25.778-3.329-38.448    c-3.32-10.71-10.338-18.064-18.858-24.572c-2.417-1.847-4.412-4.247-6.601-6.393c2.691-2.524,4.959-6.027,8.146-7.399    c12.965-5.584,26.77-5.627,40.505-4.22c12.705,1.302,24.794,4.717,34.313,13.817c18.865-13.069,40.403-16.25,61.726-20.047    C229.555,1.037,234.44,0.619,239.29,0C247.6,0,255.91,0,264.22,0z M193.228,242.622c3.526,0,6.4,0.2,9.237-0.039    c7.151-0.602,14.334-1.082,21.417-2.176c36.753-5.676,59.863-26.975,67.708-62.346c7.254-32.712,5.429-64.854-8.199-95.625    c-9.4-21.224-26.092-34.67-48.797-40.276c-12.39-3.059-24.669-1.75-37.012,0.715c-3.445,0.688-4.327,1.72-4.323,5.087    c0.064,62.785,0.004,125.57-0.03,188.355C193.227,238.208,193.228,240.098,193.228,242.622z"/>
		<path d="M432.018,339.353c-0.464,0.636-0.819,1.403-1.407,1.888c-16.399,13.533-20.837,32.742-24.209,52.185    c-6.171,35.583-24.263,63.635-52.516,85.55c-23.498,18.226-50.597,27.192-79.703,31.207c-32.268,4.451-63.614,0.561-94.291-9.836    c-3.76-1.274-7.277-3.272-11.047-4.507c-1.461-0.478-3.841-0.398-4.904,0.496c-16.998,14.295-37.028,16.049-57.888,14.074    c-5.348-0.507-10.645-1.882-15.867-3.239c-2.243-0.583-4.41-1.898-6.303-3.298c-5.187-3.836-5.277-6.215,0.175-9.594    c17.467-10.824,24.607-26.951,24.481-46.831c-0.112-17.719-0.151-35.45-0.848-53.151c-0.493-12.537-2.832-24.776-11.298-34.864    c-1.537-1.832-3.062-3.704-4.803-5.332c-5.738-5.365-5.764-6.055-0.281-11.985c4.37-4.726,10.09-7.398,16.139-7.247    c7.501,0.187,15.172,1.334,22.38,3.417c8.59,2.483,14.842,8.462,18.511,16.85c1.292,2.953,2.544,3.385,5.067,0.6    c9.225-10.184,20.664-16.849,34.145-19.681c8.451-1.776,22.198,4.051,26.521,11.177c0.575,0.948,0.045,3.539-0.86,4.266    c-13.868,11.148-18.524,26.404-18.937,43.233c-0.584,23.782-0.504,47.58-0.91,71.368c-0.06,3.505,1.661,4.611,4.399,5.717    c21.101,8.526,42.308,7.791,63.694,1.164c18.379-5.695,35.031-14.138,46.41-30.278c4.465-6.333,8.471-13.251,11.239-20.459    c4.999-13.017,10.332-26.154,9.461-40.578c-0.815-13.497-6.732-24.482-17.511-32.542c-3.445-2.576-3.277-4.363-0.326-6.552    c11.427-8.473,24.357-10.158,37.526-6.169c6.955,2.107,13.354,6.453,19.55,10.486c3.22,2.096,5.16,2.515,8.291,0.021    c10.461-8.333,21.596-15.087,35.713-15.34c7.742-0.139,14.469,1.587,20.209,6.823    C432.018,338.714,432.018,339.034,432.018,339.353z"/>
	</g>
	<g>
		<g>
			<path style="fill:#FFFFFF;" d="M345.65,433.647c4.613-19.531-5.582-38.128-3.085-57.322c3.596-15.084,20.586-8.442,21.785,3.713     c6.848-5.405,20.356-17.816,23.476-5.021C393.443,398.06,363.361,435.025,345.65,433.647z"/>
			<path style="fill:#FFFFFF;" d="M143.833,379.035c4.131-2.997,8.179-6.119,12.412-8.965c7.465-5.021,14.137-1.837,14.613,7.188     c0.197,3.741-0.151,7.799-1.431,11.279c-5.5,14.964-11.352,29.801-17.272,44.606c-1.729,4.325-4.243,4.798-6.443,1.292     c-9.336-14.878-18.621-29.865-21.704-47.549c-0.749-4.295-0.692-8.977,0.162-13.248c1.259-6.295,7.582-8.72,12.519-4.652     c3.777,3.112,6.426,7.595,9.576,11.468C145.455,379.981,144.644,379.508,143.833,379.035z"/>
		</g>
		<path style="fill:#FFFFFF;" d="M338.441,107.968c-1.501,2.271-2.242,4.159-3.605,5.31c-3.819,3.224-7.495,7.102-11.961,8.964    c-6.981,2.911-12.75-2.791-11.239-10.24c1.574-7.76,7.493-13.266,15.346-14.21c2.045-0.246,4.109-0.336,6.459-0.521    c2.748-8.604,1.05-17.246-0.488-25.799c-3.186-17.718-12.982-30.994-28.177-40.35c-9.043-5.568-18.532-7.542-28.6-2.613    c-0.404,0.198-0.917,0.236-1.378,0.231c-0.286-0.003-0.569-0.229-1.353-0.575c3.722-5.405,9.433-6.212,14.975-6.947    c10.714-1.421,20.184,1.95,28.686,8.317c15.268,11.434,23.157,27.053,24.72,45.744c0.645,7.708-0.409,15.553-0.576,23.338    c-0.024,1.132,0.239,2.606,0.957,3.367c9.605,10.173,10.641,22.638,8.91,35.447c-2.856,21.129-11.945,39.404-27.831,53.746    c-5.361,4.84-12.018,8.286-18.272,12.055c-1.247,0.752-3.355,0.076-5.066,0.058c0.99-1.26,1.721-2.972,3.009-3.711    c18.264-10.471,29.481-26.584,36.322-45.939c4.307-12.186,6.308-24.785,2.446-37.601    C340.965,113.52,339.747,111.139,338.441,107.968z M332.114,103.176c-8.974-2.462-16.645,4.088-17.017,10.13    c-0.119,1.924,0.682,4.619,2.054,5.69c1.058,0.826,3.989,0.204,5.529-0.712C328.25,114.969,330.24,109.244,332.114,103.176z"/>
		<g>
			<path style="fill:#FFFFFF;" d="M139.578,309.795c14.578-18.106,17.895-39.21,15.943-61.384     c-0.848-9.638-2.849-19.261-5.228-28.662c-6.065-23.971-13.519-47.623-18.748-71.764c-4.749-21.927-5.964-44.291,1.187-66.262     c4.758-14.619,11.932-27.798,22.852-38.759c1.172-1.177,2.695-2.004,4.056-2.994c0.462,0.442,0.925,0.884,1.387,1.325     c-1.66,2.334-3.163,4.802-5.007,6.98c-11.499,13.576-18.582,29.354-19.376,46.916c-0.643,14.228-0.054,28.9,2.769,42.811     c4.783,23.57,11.528,46.758,17.874,69.99c7.138,26.13,9.022,52.288,0.21,78.251c-2.599,7.657-7.637,14.523-11.88,21.557     c-0.945,1.567-3.25,2.314-4.929,3.438C140.318,310.757,139.948,310.276,139.578,309.795z"/>
			<g>
				<path style="fill:#FFFFFF;" d="M133.039,257.433c-4.547-0.053-8.01-3.654-8-8.319c0.01-4.887,3.963-9.117,8.542-9.141      c4.629-0.024,8.393,3.913,8.282,8.661C141.747,253.561,137.809,257.488,133.039,257.433z"/>
				<path style="fill:#FFFFFF;" d="M168.44,116.804c-0.007,4.496-3.486,7.972-7.876,7.869c-4.431-0.104-8.08-3.848-8.188-8.402      c-0.11-4.632,3.224-8.243,7.531-8.155C164.371,108.208,168.447,112.357,168.44,116.804z"/>
			</g>
		</g>
	</g>
</g>















</svg>
