<svg id="Layer_1" enable-background="new 0 0 512 512" viewBox="0 0 512 512" xmlns="http://www.w3.org/2000/svg"><g fill="#6ea4dd"><path d="m169.1 197c25 0 50.1 1.2 74.9-.4 20.7-1.3 41 2.2 61.5 2.6 22.7.4 45-1.6 66.9-8 43.9-12.7 43.4-57.8 17.4-80.3-12.7-11-26.9-17.6-44.2-12.8-8.4 2.3-15.6 6.8-20.9 13.9-4.9 6.4-5.5 13.3-2 20.4 5.4 10.8 14.6 16.3 26.3 17.9 2.1.3 4.3.4 6.3.9 8 1.9 13.2 9.4 12.3 17.6-.8 7.7-7.3 14.3-15.1 14.2-35.4-.3-59.4-25.3-63.6-50.7-3.5-21.3 4.8-38.3 21.1-51.3 30.3-24.2 69.6-22.3 100.1 4.7 21 18.6 32.3 41.8 29.4 70.2-3.3 33.1-22.5 53.9-53.3 64.7-26.5 9.3-54 12.3-81.8 10.8-70.1-3.8-140.2-1-210.3-1.9-1.7 0-3.4.1-5.1 0-9-.5-15.7-7.5-15.6-16.4s6.9-15.9 16.1-16c17.9-.1 35.8 0 53.7 0 8.6-.1 17.2-.1 25.9-.1z"/><path d="m177.1 309.7c34.7-.2 69.3.7 103.7 5 24.1 3 45.6 11.7 62.3 30 16.3 17.9 21.8 38.2 12.6 61.3-17.7 44.5-79.6 56.4-111.8 21.6-17.6-19.1-15.8-45.2 4.5-60.4 16.7-12.4 38-8.2 51.1 3.3 5.9 5.2 6.4 14.7 1.8 21-4.9 6.7-14.1 8.6-21.3 4.4-2.1-1.2-3.9-2.8-6.4-3.4-3.2-.8-5.9 0-8 2.6s-1.5 5.3.1 7.9c1.9 3.1 4.6 5.4 7.6 7.3 17.2 10.8 41.7 4.1 51.1-14 4.7-9 4.2-17.5-1.8-25.6-7.6-10.4-17.9-16.9-30-20.6-15.5-4.7-31.6-5.2-47.6-6.4-41.4-3.1-82.9-1.4-124.3-.7-8.2.1-16.5.2-24.7.1-10.3-.1-17.5-6.8-17.5-16.3s7.4-16.1 17.6-16.1h80.9c.1-.2.1-.6.1-1z"/><path d="m216.3 254.3h126.5c10.3 0 17.6 6.9 17.6 16.3-.1 9.5-7.3 16.1-17.7 16.1-84.6 0-169.2 0-253.8 0-9.6 0-16.8-6.9-16.9-16.1-.1-9.4 7.1-16.3 17-16.4 42.4.1 84.9.1 127.3.1z"/><path d="m156 138.1h63c10.2 0 17.5 7 17.4 16.4-.1 9.2-7.4 15.9-17.4 15.9-42.2 0-84.3.1-126.5 0-10.3 0-17.7-6.9-17.6-16.2 0-9.4 7.4-16.2 17.7-16.2 21.1.1 42.2.1 63.4.1z"/></g><path d="m103.1 218.6h60v1.5h59.6c2.7 0 5.5-.1 5.6-3.6s-2.8-3.7-5.5-3.8c-39.9-.7-79.7-1.4-119.6-1.4-2.6 0-5.1.3-5.2 3.6 0 3.3 2.5 3.7 5.1 3.7z"/><path d="m210 276.3c0-3-2.3-3.5-4.8-3.6-34.4-.9-68.9-1.7-103.3-2.6-2.7-.1-5.6-.1-5.7 3.4s2.6 3.7 5.4 3.8c17.2.4 34.3.8 51.5 1.2v1.3h51.9c2.6.1 5.1-.3 5-3.5z"/><path d="m255.8 329c13.3 1.3 26.3 4.2 39.1 8 2.5.7 4.7.7 5.5-2.2.8-2.8-1-4.1-3.5-4.8-1-.3-1.9-.6-2.9-.8-22.1-6.6-44.7-9-67.6-9.1-1.1 0-2.3 0-3.4 0-6.8.2-13.6.5-20.4.8-2.4.1-4.2 1.2-4 3.9s2.1 3.5 4.5 3.4c.8 0 1.7-.1 2.5-.2 16.8-1.1 33.5-.6 50.2 1z"/><path d="m179.6 325.9c-.1-3.5-2.8-3.6-5.6-3.5-14.7.7-29.5 1.2-44.2 2-10.2.5-20.4 1.4-30.5 2.2-3.8.3-5.5 3-3.7 5.6 1.3 1.9 3.1 1.6 5 1.5 12-.8 24-1.6 33-2.2 15.7-.7 28.3-1.2 40.9-1.8 2.5-.2 5.2-.6 5.1-3.8z"/><path d="m90.3 156.2c-.2 3 1.9 3.8 4.5 3.9 15.3.5 30.7.6 46-.2 2.6-.1 5.1-.7 5-3.9-.2-3.2-2.7-3.4-5.3-3.4-7.4.1-14.8 0-22.1 0v.2c-7.8 0-15.6 0-23.4 0-2.6 0-4.5.7-4.7 3.4z"/><path d="m242.9 216.3c.1 2.2 1.5 3.5 3.6 3.4 5.5-.2 11-.5 16.6-.9 2.1-.2 3.4-1.5 3.3-3.7-.1-2.4-1.7-3.5-4-3.4-2.4.1-4.8.2-7.2.4v.1c-2.8.1-5.7.2-8.5.4-2.5.1-3.9 1.3-3.8 3.7z"/><path d="m159.2 152.4c-1.9.2-3 1.6-3 3.5.1 2.2 1.4 3.4 3.5 3.5 1.5.1 3.1 0 3.4 0 3.2-.3 5.2-.3 7.2-.6 1.9-.3 3-1.6 3-3.5 0-2-1.1-3.4-3.1-3.4-3.7 0-7.4.2-11 .5z"/><path d="m229.2 277.8h3v-.1c1.4-.1 2.8-.1 4.2-.2 2.3-.1 3.9-1.3 3.8-3.6-.1-2.6-1.8-3.6-4.3-3.5-2.3.1-4.5.2-6.8.2-2.4.1-4.2 1.1-4.2 3.7.1 2.5 1.9 3.5 4.3 3.5z"/><path d="m318.5 343.2c-.1-2.6-7.2-7.7-9.7-7-2.4.6-3.6 3.5-2 5.4 1.9 2.3 4.5 4 7.2 5.2 2.3.9 4.6-1.1 4.5-3.6z"/><path d="m292.9 210c-.7 0-1.4 0-2.1.1-2.7.1-5.5.4-5.4 3.8.1 3.5 2.8 3.7 6.2 3.4h1.5c2.7 0 5-.8 4.8-4-.3-2.9-2.5-3.4-5-3.3z"/></svg>