<svg id="Capa_1" enable-background="new 0 0 512 512" height="512" viewBox="0 0 512 512" width="512" xmlns="http://www.w3.org/2000/svg"><g><g><g><g><g><path d="m502 266.171h-26.909c-5.523 0-10-4.477-10-10s4.477-10 10-10h26.909c5.523 0 10 4.477 10 10s-4.477 10-10 10z"/></g></g><g><g><path d="m413.497 110.135c-2.559 0-5.117-.976-7.07-2.928-3.906-3.905-3.907-10.236-.002-14.142l19.027-19.033c3.905-3.906 10.237-3.907 14.142-.002 3.906 3.905 3.907 10.236.002 14.142l-19.027 19.033c-1.952 1.953-4.512 2.93-7.072 2.93z"/></g></g><g><g><path d="m432.524 441.241c-2.56 0-5.119-.977-7.072-2.93l-19.027-19.033c-3.904-3.906-3.903-10.237.002-14.142s10.236-3.904 14.142.002l19.027 19.033c3.904 3.906 3.903 10.237-.002 14.142-1.952 1.952-4.511 2.928-7.07 2.928z"/></g></g></g><g><g><g><path d="m36.909 266.171h-26.909c-5.523 0-10-4.477-10-10s4.477-10 10-10h26.909c5.523 0 10 4.477 10 10s-4.477 10-10 10z"/></g></g><g><g><path d="m79.476 441.241c-2.559 0-5.117-.976-7.07-2.928-3.906-3.905-3.907-10.236-.002-14.142l19.027-19.033c3.905-3.906 10.237-3.907 14.142-.002 3.906 3.905 3.907 10.236.002 14.142l-19.027 19.033c-1.953 1.953-4.513 2.93-7.072 2.93z"/></g></g><g><g><path d="m98.503 110.135c-2.56 0-5.119-.977-7.072-2.93l-19.028-19.034c-3.904-3.906-3.903-10.237.002-14.142s10.236-3.904 14.142.002l19.027 19.033c3.904 3.906 3.903 10.237-.002 14.142-1.951 1.953-4.51 2.929-7.069 2.929z"/></g></g></g><g><path d="m433.646 358.376v-204.41c0-5.901-5.102-8.718-5.107-8.721 0 0-167.463-94.744-167.464-94.744l-.002-.001c-2.933-1.658-6.509-1.663-9.468-.051-.172.094-.344.189-.514.285h-.001l-167.627 94.51c-.005.003-5.107 2.863-5.107 8.721v204.41c0 5.433 5.012 8.667 5.04 8.683.016.009 167.694 94.549 167.694 94.549s.001 0 .002.001c3.092 1.524 6.727 1.524 9.819 0l.002-.001 167.646-94.521c.014-.008 5.087-2.553 5.087-8.71zm-177.646 12.503-96.302-54.297v-120.822l96.302-54.297 100.084 56.428c.012.007.038.022.076.046 3.02 1.834 6.805 1.821 9.839.011.002-.001.003-.002.003-.002l47.643-26.862v170.174l-42.554-23.993v-39.07c0-5.326-4.019-9.977-9.335-10.321-5.824-.377-10.665 4.235-10.665 9.978v39.412zm-116.302-176.484v123.554l-41.343 23.31v-170.175zm221.393-16.64-95.091-53.613v-47.578l137.284 77.402zm-115.091-101.191v47.578l-95.091 53.614-42.193-23.789zm-95.091 258.023 95.091 53.614v47.578l-137.284-77.402zm115.091 101.192v-47.578l95.091-53.614 42.193 23.789z"/><g><path d="m361.09 242.171c-4.168 0-8.011-2.705-9.405-6.632-1.376-3.875-.213-8.326 2.936-10.99 3.284-2.778 8.092-3.123 11.745-.864 3.511 2.171 5.322 6.391 4.533 10.436-.899 4.616-5.116 8.05-9.809 8.05z"/></g></g></g></g></svg>