<?xml version="1.0" encoding="UTF-8"?>
<!-- Generator: Adobe Illustrator 25.4.1, SVG Export Plug-In . SVG Version: 6.00 Build 0)  -->
<svg xmlns="http://www.w3.org/2000/svg" xmlns:xlink="http://www.w3.org/1999/xlink" version="1.1" id="Capa_1" x="0px" y="0px" viewBox="0 0 512 512" style="enable-background:new 0 0 512 512;" xml:space="preserve" width="512" height="512">
<g>
	<g>
		<path d="M418.286,103.961c-2.732,9.822-4.467,20.065-8.412,29.373c-7.252,17.111-20.673,27.955-39.387,33.589    c0.196-3.117,0.363-5.79,0.532-8.463c1.041-16.515,1.784-33.014-4.215-48.912c-8.737-23.152-23.678-40.193-48.105-47.135    c-21.651-6.153-41.619-0.449-60.4,10.438c-21.243,12.314-33.574,31.998-43.073,53.77c-10.958,25.116-17.706,51.261-18.57,78.791    c-0.83,26.458-2.252,52.909-2.456,79.37c-0.095,12.378,2.064,24.774,3.211,37.161c0.113,1.222,0.29,2.437,0.482,4.032    c-12.647,4.561-21.892,13.341-29.458,23.828c-15.826-15.673-34.661-19.932-56.849-16.064c-1.922-9.77-4.537-19.68-5.726-29.759    c-3.182-26.985-3.802-54.119-0.981-81.148c5.133-49.189,18.76-95.736,48.537-135.933c29.733-40.139,69.242-66.134,118.64-76.139    c20.519-4.156,41.092-3.778,61.744-0.87c11.995,1.689,24.049,3.044,36.115,4.118c8.514,0.757,16.781-1.133,24.417-4.88    c2.903-1.424,5.46-3.923,7.613-6.417c2.953-3.421,5.489-3.786,8.304-0.034c6.516,8.686,7.15,18.655,5.797,28.954    c-1.62,12.339-7.341,22.334-18.004,30.1c11.431,5.578,16.226,15.389,18.965,26.597c0.435,1.779,0.853,3.562,1.279,5.342    C418.286,97.099,418.286,100.53,418.286,103.961z"/>
		<path d="M93.714,355.646c5.997-13.465,17.291-19.954,33.287-18.983c14.385,0.874,27.478,4.963,37.873,15.601    c0.853,0.873,1.976,1.481,3.324,2.469c1.725-1.867,3.44-3.617,5.038-5.468c10.544-12.219,23.047-20.8,39.799-21.479    c10.658-0.432,20.161,3.348,29.168,8.484c3.281,1.871,2.883,5.109-0.729,6.099c-18.838,5.163-30.896,32.013-20.986,52.942    c14.381,30.374,36.927,50.293,70.523,55.716c25.952,4.189,47.195-5.288,63.285-25.757c11.714-14.902,17.564-32.115,17.249-51.199    c-0.125-7.615-0.617-15.223-0.909-22.835c-0.071-1.842-0.01-3.69-0.01-6.382c9.031,3.522,17.458,6.817,24.29,13.186    c13.357,12.453,20.283,28.068,22.54,45.977c0.171,1.355,0.549,2.684,0.83,4.025c0,3.431,0,6.861,0,10.292    c-0.686,2.84-1.243,5.719-2.082,8.513c-2.987,9.944-7.889,18.516-18.186,23.411c10.698,7.786,16.413,17.789,18.031,30.13    c1.35,10.301,0.714,20.273-5.814,28.956c-2.812,3.74-5.35,3.361-8.305-0.068c-2.151-2.496-4.716-4.988-7.621-6.411    c-7.64-3.741-15.922-5.721-24.422-4.857c-17,1.729-33.98,3.735-50.91,6.048c-14.615,1.997-29.221,2.127-43.743,0.079    c-27.896-3.935-52.882-14.677-75.874-31.248c-27.912-20.117-49.714-45.053-65.476-75.481c-3.364-6.494-6.389-13.221-10.353-19.333    c-6.989-10.775-15.864-19.197-29.818-19.621C93.714,357.517,93.714,356.582,93.714,355.646z"/>
	</g>
	<g>
		<g>
			<path style="fill:#FFFFFF;" d="M191.9,426.653c-13.105-9.198-24.492-20.161-32.905-33.822c-2.677-4.346-4.814-9.548-5.36-14.558     c-0.787-7.226,5.362-11.452,12.011-8.431c4.499,2.043,8.239,5.758,12.252,8.677c1.233-2.124,2.717-5.192,4.693-7.902     c1.332-1.827,3.154-3.506,5.113-4.628c6.481-3.711,12.152-0.747,11.623,6.64c-0.676,9.42-2.899,18.721-3.815,28.136     c-0.642,6.605-0.105,13.318-0.328,19.975c-0.066,1.985-0.92,3.943-1.413,5.914C193.147,426.653,192.523,426.653,191.9,426.653z"/>
			<path style="fill:#FFFFFF;" d="M391.467,92.426c-0.303,2.92-0.553,7.591-1.378,12.158c-0.323,1.789-1.935,3.346-2.961,5.008     c-0.824-1.68-1.956-3.28-2.419-5.055c-2.306-8.826-3.721-17.956-6.794-26.495c-4.562-12.675-12.823-22.666-25.145-28.888     c-3.192-1.612-6.303-3.405-9.347-5.284c-5.828-3.597-6.131-9.459-0.694-13.726c3.964-3.111,8.54-3.717,13.275-2.338     c9.03,2.631,16.041,8.211,21.379,15.782C387.321,57.68,391.039,73.692,391.467,92.426z"/>
		</g>
		<g>
			<path style="fill:#FFFFFF;" d="M303.218,23.509c1.264,1.144,2.528,2.289,3.792,3.434c-1.426,0.7-2.789,1.807-4.287,2.04     c-60.493,9.382-105.821,39.72-132.805,95.648c-7.011,14.532-12.383,29.55-14.837,45.53c-0.512,3.336-0.623,6.734-0.828,9.059     c4.971,0.781,9.599,0.861,13.666,2.412c2.134,0.814,3.907,3.991,4.757,6.473c2.109,6.154-2.143,14.41-8.244,17.04     c-5.952,2.565-8.736,0.564-16.105-11.67c-7.807,12.695-9.373,26.932-10.966,41.175c-1.636,14.629,1.464,28.452,6.745,41.982     c5.248,13.447,15.428,23.386,24.835,34.002c-5.512,1.238-9.014-1.372-12.32-4.091c-8.213-6.754-14.188-15.199-18.448-24.93     c-11.856-27.085-11.668-54.376,0.54-80.969c4.717-10.276,9.061-19.728,9.948-31.488c1.711-22.703,11.629-43.036,22.859-62.635     c25.855-45.122,65.397-70.577,115.629-80.73c4.695-0.949,9.465-1.529,14.2-2.281C301.971,23.509,302.595,23.509,303.218,23.509z      M168.216,190.675c-1.25-1.649-2.487-4.796-4.669-5.727c-2.138-0.913-5.876-0.375-7.696,1.064     c-1.231,0.974-0.472,4.613-0.373,7.051c0.042,1.033,0.422,2.265,1.089,3.018c1.539,1.737,3.436,4.583,5.022,4.478     c1.823-0.121,3.653-2.792,5.113-4.645C167.485,194.92,167.498,193.319,168.216,190.675z"/>
			<g>
				<path style="fill:#FFFFFF;" d="M165.434,250.891c0.081,4.453-3.317,8.171-7.632,8.352c-4.482,0.188-8.203-3.451-8.322-8.137      c-0.119-4.7,3.37-8.559,7.832-8.661C161.636,242.345,165.348,246.206,165.434,250.891z"/>
				<path style="fill:#FFFFFF;" d="M138.46,172.942c0.086,3.438-2.92,6.543-6.451,6.665c-3.577,0.124-6.633-2.806-6.5-6.428      c0.142-3.864,2.414-5.976,6.122-6.374C135.18,166.423,138.372,169.427,138.46,172.942z"/>
				<path style="fill:#FFFFFF;" d="M200.468,115.005c-0.05,3.462-2.735,6.214-6.134,6.287c-3.636,0.078-6.468-2.851-6.294-6.51      c0.161-3.39,3.016-6.1,6.383-6.062C197.868,108.76,200.519,111.516,200.468,115.005z"/>
			</g>
		</g>
	</g>
</g>















</svg>
