<?xml version="1.0" encoding="UTF-8"?>
<!-- Generator: Adobe Illustrator 25.4.1, SVG Export Plug-In . SVG Version: 6.00 Build 0)  -->
<svg xmlns="http://www.w3.org/2000/svg" xmlns:xlink="http://www.w3.org/1999/xlink" version="1.1" id="Capa_1" x="0px" y="0px" viewBox="0 0 512 512" style="enable-background:new 0 0 512 512;" xml:space="preserve" width="512" height="512">
<g>
	<g>
		<path d="M230.227,0c10.032,1.24,20.112,2.182,30.089,3.768c66.302,10.535,112.666,47.191,140.853,107.66    c16.398,35.178,24.507,72.427,27.322,110.865c2.604,35.558,2.128,71.076-4.863,106.243c-0.342,1.72-0.808,3.417-1.272,5.358    c-21.759-0.157-39.599,9.665-57.113,21.467c-8.17-14.395-20.958-22.69-37.486-26.28c0.685-6.731,1.332-13.409,2.05-20.079    c2.691-25.01,3.754-50.138,2.538-75.212c-1.921-39.588-6.51-78.899-18.988-116.791c-9.487-28.808-28.385-50.098-54.381-65.268    c-11.215-6.544-23.809-8.541-36.403-10.516c-13.302-2.086-26.586-2.274-39.899-0.304c-1.4,0.207-2.766,0.647-4.5,1.064    c0,95.348,0,190.571,0,286.168c-16.845,1.23-30.547,8.417-42.167,20.031c-9.569-16.065-25.058-20.717-42.989-21.495    c0-2.022,0-3.905,0-5.787c-0.001-79.69,0.029-159.38-0.034-239.07c-0.009-12.03,0.363-24.061-3.133-35.887    c-3.243-10.97-10.322-18.623-19.07-25.294c-2.529-1.929-4.542-4.535-6.791-6.83c2.788-2.492,5.176-5.925,8.435-7.309    c12.775-5.425,26.391-5.519,39.897-4.213c11.941,1.155,23.451,4.142,33.12,12.011c0.925,0.753,3.154,0.986,4.159,0.4    c17.814-10.397,37.53-12.796,57.556-14.007c1.258-0.076,2.497-0.455,3.745-0.693C217.343,0,223.785,0,230.227,0z"/>
		<path d="M210.901,512c-8.126-0.909-16.303-1.505-24.368-2.798c-12.886-2.066-25.637-4.713-36.941-11.906    c-1.208-0.768-3.852-0.759-4.987,0.058c-16.372,11.792-34.942,12.965-54.034,11.277c-5.394-0.477-10.747-1.826-16.009-3.196    c-2.413-0.628-4.758-2.009-6.793-3.51c-5.193-3.833-5.252-6.238,0.276-9.663c17.617-10.914,24.75-27.195,24.62-47.22    c-0.116-17.857-0.151-35.726-0.859-53.564c-0.501-12.635-2.878-24.966-11.424-35.123c-1.552-1.844-3.096-3.723-4.854-5.361    c-5.748-5.353-5.784-5.847-0.502-11.726c4.58-5.098,10.569-7.436,17.107-7.758c8.357-0.411,16.571,0.549,24.337,4.357    c7.065,3.464,12.628,8.28,15.93,15.418c1.639,3.542,2.687,4.487,5.875,1.011c8.989-9.803,20.029-16.642,33.177-19.112    c11.018-2.07,20.114,2.411,27.304,10.662c0.695,0.797,0.25,3.858-0.683,4.612c-13.943,11.277-18.594,26.664-19.011,43.614    c-0.59,23.967-0.52,47.95-0.907,71.924c-0.052,3.24,1.398,4.462,4.048,5.552c10.085,4.148,20.568,3.109,30.967,2.398    c6.079-0.416,12.144-1.455,18.14-2.604c35.7-6.843,59.926-27.564,72.586-61.418c4.442-11.88,4.643-24.592,3.378-37.215    c-0.899-8.973-5.085-16.069-12.115-21.693c-5.682-4.545-5.4-6.604,0.917-10.055c16.569-9.054,40.333-5.669,54.657,7.939    c3.255,3.092,6.232,6.504,9.115,9.953c3.953,4.728,5.571,5.147,10.973,1.682c13.658-8.758,28.045-15.738,44.322-17.93    c11.767-1.585,22.579,0.905,32.97,8.549c-1.676,1.474-2.71,2.964-4.115,3.529c-10.698,4.299-18.028,12.428-23.859,21.792    c-10.457,16.792-19.863,34.249-30.582,50.865c-20.446,31.693-48.575,54.669-82.879,70.088    c-22.782,10.241-47.114,13.783-71.745,15.826c-1.579,0.131-3.139,0.492-4.707,0.746C223.785,512,217.343,512,210.901,512z"/>
	</g>
	<g>
		<g>
			<path style="fill:#FFFFFF;" d="M351.52,385.845c4.707-2.582,9.076-5.695,13.933-7.486c8.551-3.153,13.828,2.024,11.838,11.058     c-0.309,1.404-0.535,2.896-1.19,4.143c-10.622,20.223-27.042,33.989-47.961,42.593c-3.258,1.34-5.377-0.659-4.375-4.187     c3.71-13.062,2.923-26.417,3.24-39.741c0.132-5.527,1.18-11.172,2.76-16.482c1.315-4.418,4.423-7.881,9.848-7.753     c4.58,0.107,7.998,2.85,9.843,8.501C350.445,379.514,350.852,382.725,351.52,385.845z"/>
			<path style="fill:#FFFFFF;" d="M138.852,382.878c4.163-3.016,8.254-6.138,12.505-9.025c7.541-5.122,14.349-2.026,14.809,7.022     c0.208,4.076-0.262,8.484-1.656,12.29c-5.413,14.78-11.226,29.418-17.097,44.025c-1.913,4.761-4.707,5.135-7.014,0.759     c-6.801-12.902-13.667-25.819-19.435-39.193c-2.315-5.369-2.228-11.926-2.491-17.975c-0.179-4.102,1.379-8.052,5.969-9.497     c4.493-1.414,7.943,0.734,10.537,4.035c2.322,2.956,4.088,6.349,6.099,9.549C140.337,384.205,139.595,383.541,138.852,382.878z"/>
		</g>
		<g>
			<path style="fill:#FFFFFF;" d="M151.03,43.543c-0.905,2.298-1.305,5.007-2.792,6.83c-15.237,18.669-20.281,40.421-19.895,63.928     c0.368,22.415,5.674,43.889,11.527,65.373c6.256,22.961,12.186,46.117,12.47,70.131c0.248,20.953-1.942,41.512-14.764,59.247     c-2.382,3.295-4.499,7.332-10.132,8.364c0.67-1.461,0.833-2.206,1.27-2.715c10.703-12.469,14.859-27.314,16.6-43.323     c2.7-24.824-4.178-48.139-10.207-71.648c-4.591-17.898-9.963-35.657-13.37-53.782c-3.752-19.959-5.303-40.29,1.451-60.141     c5.446-16.005,13.337-30.59,25.91-42.264C149.742,43.543,150.386,43.543,151.03,43.543z"/>
			<g>
				<path style="fill:#FFFFFF;" d="M121.879,241.038c5.066-0.005,9.424,4.479,9.346,9.617c-0.078,5.122-4.482,9.427-9.594,9.378      c-5.025-0.048-9.078-4.217-9.021-9.277C112.67,245.416,116.842,241.042,121.879,241.038z"/>
				<path style="fill:#FFFFFF;" d="M159.842,127.947c-0.012,4.802-3.7,8.498-8.52,8.538c-4.892,0.041-8.904-3.888-8.949-8.765      c-0.047-5.015,4.246-9.382,9.099-9.257C155.93,118.578,159.854,123.025,159.842,127.947z"/>
			</g>
		</g>
		<g>
			<path style="fill:#FFFFFF;" d="M385.421,235.062c4.005-14.836,5.595-29.622,5.128-44.593     c-1.142-36.591-13.461-69.425-34.158-99.284c-7.881-11.369-18.634-19.906-29.333-28.464c-2.082-1.666-6.155-2.342-4.763-6.656     c2.672,0.95,5.655,1.419,7.968,2.921c33.853,21.998,52.377,54.354,62.191,92.547c7.225,28.115,6.182,55.978-2.334,83.659     c-0.416,1.353-0.658,3.465,0.074,4.359c10.306,12.575,9.579,26.853,6.06,41.247c-3.059,12.513-8.849,23.758-19.355,31.854     c-2.247,1.731-5.137,2.626-8.094,3.241c16.525-10.902,23.397-26.766,24.661-45.537c0.601-8.921-0.326-17.652-7.451-24.31     c-3.454,3.705-6.464,7.442-9.987,10.607c-7.992,7.181-18.117,6.908-23.316-0.318c-4.614-6.413-1.266-17.367,6.999-22.416     c6.637-4.055,13.594-4.551,20.725-1.266C382.017,233.381,383.571,234.166,385.421,235.062z M382.901,243.648     c-8.2-5.426-14.931-5.124-19.955,0.031c-3.396,3.484-4.193,7.586-1.999,10.288c2.344,2.887,7.211,3.547,10.849,0.626     C375.697,251.461,378.986,247.568,382.901,243.648z"/>
			<g>
				<path style="fill:#FFFFFF;" d="M361.242,198.479c-5.06-0.297-9.141-4.645-8.978-9.565c0.176-5.28,4.992-9.875,10.127-9.662      c5.095,0.212,9.058,4.822,8.773,10.207C370.88,194.842,366.537,198.789,361.242,198.479z"/>
				<path style="fill:#FFFFFF;" d="M358.772,290.521c3.84,0.086,6.724,2.963,6.729,6.713c0.006,4.019-3.473,7.277-7.529,7.052      c-3.803-0.211-6.523-3.182-6.414-7.006C351.673,293.265,354.699,290.43,358.772,290.521z"/>
				<path style="fill:#FFFFFF;" d="M350.176,133.456c3.685,0.072,6.748,3.275,6.608,6.912c-0.134,3.495-3.157,6.357-6.665,6.313      c-3.714-0.047-6.723-3.216-6.578-6.929C343.681,136.171,346.616,133.387,350.176,133.456z"/>
				<path style="fill:#FFFFFF;" d="M418.007,231.001c-0.008,3.704-2.695,6.445-6.281,6.406c-3.635-0.039-6.693-3.205-6.424-6.9      c0.268-3.68,2.349-5.89,6.075-6.146C415.015,224.111,418.015,227.232,418.007,231.001z"/>
			</g>
		</g>
	</g>
</g>















</svg>
