<svg id="Layer_1" enable-background="new 0 0 512 512" viewBox="0 0 512 512" xmlns="http://www.w3.org/2000/svg"><g fill="#3981bf"><path d="m268.6 358.1c-1.6 5.2-3 10.6-9.6 11.6.8 2.3 4 1.4 3.6 3.3-.6 2.9-2 5.7-3.2 8.4-.5 1.1-1.4.3-2.1 0-2.4-1.1-4.9-2.1-7.3-3.3-2.6-1.4-4.8-1.2-6.9 1.2 4.4 3.4 10.2 5.4 10.1 12.6-.1 7-5.8 8.9-10.2 12.1 2.1 2.4 4.4 2.9 7.1 1.2.5-.3 1-.5 1.6-.7 7.6-3.6 7.5-3.6 10.4 4.1.7 2 .6 3-1.5 3.5-.7.2-1.3.5-1.8 1.5 5 1.2 7.6 4.6 9.1 9.4.7 2.3.6 2.8-1.9 3.3-4.7.9-8.9.6-12.4-3-1.4 1.6.6 4-1.2 4.6-2.8.9-5.9 1.1-8.9 1.5-.9.1-.8-.9-.9-1.6-.3-2.8-.6-5.5-.7-8.3-.2-2.9-1.4-4.8-4.7-5.3-.2 5.7.5 11.6-5.6 15-6 3.3-10.6-.6-15.6-2.8-1 2.9-.3 4.9 2.2 6.4 2.4 1.4 4.6 3.2 6.9 4.8 1.3.9 1.6 1.8.3 3-1 1-1.9 2.1-2.6 3.3-1.6 2.6-3.4 4.2-5.8 1.1-1.1.5-.9 1.3-.8 1.9 1.2 4.8-2 7.8-4.5 11.1-1.2 1.5-1.9 1-2.9-.2-3.6-4.3-3.8-4.6-4.5-12.5-1-.5-1.5.4-2.1.9-1.1 1-2 1.1-2.8-.3-.1-.1-.1-.2-.2-.3-5.6-6.6-5.6-6.6 1.4-11.4 2.6-1.8 5.6-3.3 3.9-7.6-5 2.3-9.7 6.2-15.8 2.6-5.9-3.5-5.1-9.3-5.4-14.9-3.1.4-4.4 2.1-4.6 4.9 0 .7-.1 1.4-.1 2.1-.3 8.5-.3 8.5-8.4 7.2-2.4-.4-2.4-.4-3.1-5.3-3.8 4.2-8.4 4.1-13.2 3.1-1.7-.3-2.1-.8-1.5-2.5 1.7-4.8 3.6-9.2 10-10.3-6.1-1.3-4-4.5-2.8-7.6 1.9-4.8 1.8-4.8 6.4-2.6 1.5.7 2.9 1.4 4.4 2.1 3.7 1.7 3.7 1.7 7.1-1.1-2-1.4-4.1-2.6-6-4.1-5.7-4.4-5.7-12-.1-16.5 1-.8 2.2-1.4 3.1-2.2s3.2-.9 2.4-2.3-2.8-2.5-4.9-1.5c-2.7 1.3-5.5 2.5-8.2 3.8-1.8.9-3 .7-3.5-1.5-.3-1.1-.7-2.2-1.3-3.2-1.5-2.9-1.9-5.3 2.7-6.2-6.3-2-8.6-6.8-9.8-12.4 5.3-1.6 10.6-2.5 14.9 2.1 1.6-1.6-.7-4 1.4-4.6 2.8-.8 5.7-1 8.6-1.4 1.1-.1 1.1 1 1.2 1.8.2 2.5.5 5.1.7 7.6.2 2.9 1.2 5.1 4.7 5.7.4-5.5-.5-11.5 5.6-15 6-3.4 10.6.5 15.6 2.7 1.1-3 .3-5.1-2.3-6.5-.7-.4-1.4-.9-2-1.4-6.9-4.8-6.9-6.3-.4-11.9.7-.6.7-.6 5 1.5-2.1-6.5 1.8-10.5 5.5-14.7 3.8 4 7.5 8.1 5.7 14.2 2.1.4 2.9-2.7 4.5-1.3 2.2 2.1 4 4.6 5.7 7 .5.7-.6 1.4-1.2 1.8-2 1.4-4 2.8-6 4.2-.8.5-1.5 1.1-2.2 1.7-1.7 1.2-1.5 3.2-.8 4.4.9 1.6 2.1-.3 3-.7 2.5-1.2 5-2.6 7.9-2.6 4.7-.1 9.2 3.7 10 8.6.4 2.5.4 5.1.6 7.8 3.2-.4 4.5-2.3 4.6-5.4.1-2.7.5-5.3.7-8 .1-.8.1-1.9 1.2-1.7 2.9.3 5.8.6 8.6 1.4 1.9.6 0 2.7 1.1 4.5 4.1-4.1 9.4-3.8 14.8-1.9zm-63.9 24.2c0-4.1 0-7.6 0-11.2 0-1-.4-1.7-1.3-2.2-2.5-1.4-5.1-2.8-7.6-4.2-1.5-.9-1.9-.4-2.1 1.2-.9 9.4-.9 9.4 7.1 14.1 1.1.7 2.2 1.3 3.9 2.3zm10.9 19v10.8c0 1.3.5 2.2 1.6 2.8 2.4 1.2 4.7 2.5 7 3.8 1.6.9 2.3.7 2.3-1.3 0-2.8 0-5.6 0-8.3 0-.8-.1-1.6-1-2-3.1-1.9-6.3-3.8-9.9-5.8zm-10.9-.1c-3.7 2.1-6.9 4-10.2 5.9-.8.4-.7 1.1-.7 1.8v8.7c0 2 .9 1.8 2.2 1 2.4-1.4 4.9-2.7 7.3-4 .9-.5 1.4-1.1 1.4-2.2 0-3.5 0-7 0-11.2zm10.9-19.4c10.3-3.9 11.3-5.4 10.9-15.1 0-.2 0-.5 0-.7.1-2-.7-2-2.3-1.2-8.5 4.1-8.5 4.1-8.6 13.6zm-37.8 9.9c3.5 2.1 6.5 3.9 9.5 5.8.7.4 1.4.2 2-.1 3.2-1.8 6.4-3.7 9.9-5.7-3.5-2-6.6-3.7-9.7-5.5-.9-.5-1.6-.6-2.6 0-2.8 1.8-5.7 3.5-9.1 5.5zm43.3 0c3.5 2 6.6 3.8 9.7 5.6.6.3 1.3.7 2 .3 3.1-1.8 6.2-3.7 9.5-5.7-9.3-6.9-9.3-6.9-18.6-1.7-.7.4-1.4.8-2.6 1.5z"/><path d="m103.8 356.3c-.1.6-.2 1.1-.1 1.5.4 3.1-1.6 6.2-3.6 6.3-2.1.1-4-3-3.8-6.1.1-1.2.1-1.8-1.7-1.4-2.5.5-3-2.4-4.2-3.9-.9-1.1 1.1-1.5 1.8-2.3 1.6-1.7 5.3-2 4.3-5.8-9.1 5-13.4 1.5-13.3-7.6-3.5.6-2.5 3.6-3.2 5.7-.4 1.2 1.1 3.8-1.4 3.4-1.8-.4-6.2 1.6-5-4-2.5 2.4-5.1 2.9-8 2.3-1.7-.3-1.8-.8-1.3-2.3.8-2.7 2.4-4.7 5.2-5.6-1.7-1.7-1.7-5.7 0-7 1.3-1 2.3.4 3.4.7 2.1.5 4.1 3 6.5.5-8.8-5.8-7.6-10.8 0-15.3-1.8-2.5-3.7-.9-5.5 0-4.4 2.1-4.1 2-5.9-2.2-.9-2.3.8-2.4 1.9-3.6-3.1-.8-4.6-2.9-5.6-5.7-.7-1.9-.1-1.9 1.5-2.2 2.9-.6 5.4-.1 8.1 2.8-1.8-6 2.6-4 4.3-4.4 2.9-.8 1.6 2 1.9 3.2.5 2.2-.2 5 3.1 5.9 1.5-10.7 3.6-11.9 13.3-7.6 1.1-2.3-.6-3.3-2-4.4-1.5-1.1-3.2-1.8-4.5-3.5 2.2-1 2-5.4 5.9-3.9.1 0 .5-.5.5-.8-.8-3.4 1.9-5.3 3.7-7.8 1.7 2.4 4.5 4 3.7 7.6-.1.6 0 1.2.9 1 3.3-1.1 3.6 2.2 4.9 3.7 1 1.1-.8 1.5-1.5 2.1-1.7 1.7-5.2 2.1-4.7 6 3.3-.8 6.1-3.7 9.8-1.6 3.8 2.1 3.2 5.8 3.6 9.2 3.8-.8 2.7-3.9 3.2-6.2.3-1.3-.6-3.8 1.9-2.9 1.6.6 5.7-1.6 4.5 3.8 2.7-2.1 5.2-2.7 8.2-2.1 1.4.3 1.7.6 1.3 1.9-.9 2.7-2.2 5-5.4 5.8 1.8 1.7 1.7 5.5.2 7.1-.9.9-1.5.1-2.2-.1-1.7-.7-3.4-1.5-5.1-2.2-1-.4-1.9 0-2.4.8-.4.7.3 1 .7 1.3 7.1 6 7 8.5-.7 13.8-.2.1-.3.3-.4.6 2.4 2.5 4.4 0 6.5-.5 1.2-.3 2.8-2.5 3.7-.1.7 1.8 3.5 4.2-.7 6.1 2.9 1.2 4.7 3.1 5.5 5.9.4 1.5.3 2.1-1.4 2.2-2.7.2-5.3.6-7.4-2.1-.3 2.5-4.3 4.7-6.2 4-1-.4-.7-1.4-.8-2.1-.2-1.7-.4-3.5-.6-5.2-.1-1.1-.9-1.8-1.8-1.8-1.4 0-1 1.3-.9 2.1.1 2.8-.5 5.3-3.2 6.8-1.8 1-3.7 1.3-5.6.3-1.3-.7-2.7-1.2-4.1-1.9-1.1 3.4 1.9 3.9 3.4 5.4.9.9 3.5 1.3 2.5 2.9-1.3 1.9-2.1 5.3-5.7 3.5zm-13.9-16.2c7-2.7 7.5-3.6 6.3-10.5-6.7 2.6-6.7 2.6-6.3 10.5zm13.5-23.4c6.4-2 7.5-3.7 6.1-10.3-6.7 2.7-6.9 3-6.1 10.3zm-7 0c.5-8.5 1.4-6.9-6.3-10.3-.9 7.1-.3 8.1 6.3 10.3zm13.4 23.4c.6-7.6-.1-8.8-6.5-10.5 0 8.6-1.5 6.6 6.5 10.5zm-29.7-16.9c6.6 4.4 6.6 4.4 12.7-.1-8-4.6-4.9-4.7-12.7.1zm39.5 0c-7.7-4.9-4.9-4.6-12.6-.1 6.2 4.4 6.2 4.4 12.6.1z"/><path d="m331.8 367.6c-6.2 3.6-11.1 2.6-11.3-6.6-2.6.7-2.4 2.7-2.6 4.7-.1 1.1 1 3.2-1.4 3.1-1.9 0-4.3.2-4.4-3.1-2.5 1.8-6.1 3.1-7.5.8-1.2-1.9 1-5.1 4.7-6-3.6-1.8-1.5-3.8-.8-5.3.9-2 2.3-.3 3.5 0 .5.2 1.1.5 1.6.7 1.2.6 2.6 1.2 3.3-.2.7-1.3-1.1-1.4-1.8-1.9-3.9-3.1-4-7.2 0-10 .7-.5 1.3-.9 2-1.4-1.7-1.5-1.7-1.5-5.2 0-1 .4-2.4 2.1-3.2.4-.6-1.4-2.9-3-.6-4.9 1.1-.9.1-1.1-.5-1.3-2.6-1.1-3-3.5-3.8-6 2.5-.1 4.9-1.2 7.1.8.7.6 1.1.3 1.3-.6.6-2.4 2.7-1.7 4.2-1.7 2.2 0 1.2 1.8 1.3 2.9.2 1.8 0 3.8 2.5 4.8.7-2.8 0-6.1 3.2-7.8 3.1-1.6 5.5 0 8.1 1.2 1-3-1.7-3.4-3.1-4.8-.7-.7-2.7-.6-1.6-2.4.8-1.4 1.7-3.2 3.5-3.1.9 0 1.5.6 1.4-.7-.4-2.8 1.5-4.5 3.1-6.3 2.2 1.9 3.7 4.1 3.2 7.3 3-1.3 3.9 1.1 4.9 2.7 1.2 2-1.3 1.9-2.1 2.7-1.2 1.3-3.5 1.7-2.6 4.5 2.6-1.1 5-2.8 8-1.2 3.2 1.7 2.9 4.7 3.1 7.8 2.9-.7 2.5-2.9 2.7-4.9.1-1-.7-2.7 1.2-2.7 1.5 0 3.7-.9 4.4 1.5.3 1.2.5 1.4 1.5.7.6-.4 1.2-.9 1.8-.9 1.7 0 4.1-.7 4.7.7.6 1.5-.7 3.5-2 4.8-.8.8-3.8.8-.8 2.9.3.2-.8 2.9-1.6 4.3-.8 1.3-1.8-.2-2.7-.4-1-.2-2-.7-2.8-1.3-1-.7-2-.3-2.4.4-.8 1.2.8 1.4 1.3 1.8 4.4 3.3 4.5 7 .1 10.4-.6.5-2.2.5-1.6 1.7.6 1.3 1.9.8 3 .4.7-.3 1.4-.8 2.2-1.1 1.1-.3 2.6-1.8 3.2.1.6 1.6 2.9 3.6-.6 5.2 3.1 1.2 5.7 3.9 4.5 6.1-1.4 2.5-4.9 1.1-7.6-.7-.1 3-2.3 3-4.2 3.1-2.7 0-1.4-2.1-1.6-3.4-.3-1.8 0-3.8-2.6-4.6-.4 3 .1 6.1-3 7.9s-5.5-.2-8.1-1.2c-1.2 3.2 1.8 3.4 3 4.8.6.7 2.4 1.1 1.9 2-.9 1.4-1.6 3.9-3.7 3.5-1.5-.3-1.5.1-1.4 1.2.2 2.6-1.4 5.4-3.2 5.4-1.7 0-3.3-2.9-3.1-5.5 0-.4.5-1.6-.9-1.2-2.9.9-3-2-4.1-3.2-.8-.8.8-1.3 1.3-1.8 1.4-1.5 4.4-1.7 3.7-5.1zm20.2-18.6c-5.3-3.8-5.3-3.8-10.7 0 6.4 3.8 4.1 4.2 10.7 0zm-23.2 0c-5.2-3.9-5.6-3.9-10.6-.1 5 3.7 5 3.7 10.6.1zm-2.1 14.3c5.6-1.9 6.4-3.4 4.6-8.7-5.5 2.7-5.6 2.9-4.6 8.7zm5-20.1c.8-6.5.2-7.5-5.3-8.6-.2 6.4-.2 6.4 5.3 8.6zm6.5 11.4c-.3 6.9 0 7.5 5.3 8.6.5-6.4.5-6.4-5.3-8.6zm5.4-20.1c-5.5 1.6-6.3 2.9-5 8.7 6.1-3.1 5.2-1.4 5-8.7z"/><path d="m393.8 316.2c0-6.4 5.1-11.5 11.5-11.6 6.5 0 11.7 5.3 11.6 11.8-.1 6.4-5.3 11.4-11.7 11.4-6.3 0-11.4-5.2-11.4-11.6z"/><path d="m282.2 320.6c-.1 6.3-5.3 11.5-11.6 11.5-6.5 0-11.7-5.4-11.6-11.9.2-6.4 5.4-11.4 11.8-11.3 6.2.1 11.4 5.4 11.4 11.7z"/><path d="m124.5 402.7c0 6.3-5.2 11.5-11.6 11.5s-11.5-5.1-11.6-11.5c-.1-6.5 5.2-11.8 11.7-11.7 6.4.1 11.5 5.3 11.5 11.7z"/><path d="m298.8 422.9c-6.4 0-11.6-5-11.6-11.4-.1-6.4 5-11.6 11.4-11.7 6.5-.1 11.8 5.1 11.8 11.6-.1 6.4-5.2 11.5-11.6 11.5z"/><path d="m79 398.2c-.1 3.8-2.5 6.4-5.8 6.3-3.1-.1-5.5-2.6-5.5-6 0-3.9 2.3-6.5 5.7-6.5 3.3 0 5.7 2.6 5.6 6.2z"/><path d="m169.8 323.5c0 3-2.4 5.6-5.4 5.7-3.1.1-5.6-2.3-5.7-5.4-.1-3.2 2.4-5.9 5.6-5.8 3 0 5.5 2.4 5.5 5.5z"/><path d="m368.9 314.4c-3 0-5.6-2.4-5.6-5.5-.1-3.1 2.3-5.6 5.4-5.7 3.2-.1 5.8 2.4 5.8 5.6-.1 3.1-2.5 5.5-5.6 5.6z"/><path d="m282.7 390.2c-3 0-5.5-2.5-5.5-5.6 0-3.2 2.6-5.7 5.8-5.6 3 .1 5.4 2.7 5.4 5.7-.1 3.1-2.7 5.5-5.7 5.5z"/></g><path d="m321.1 288.6c-12.6-1.7-25 1.8-37.5 2.4-18.3.9-36.5.3-54.7-.2-13.7-.4-27.4-.5-41.1-1.9-16.5-1.7-32-6.5-46.9-13.7-8.8-4.3-17.7-8.1-24.6-15.5-11.2-12.1-21.6-24.8-23.8-41.8-3.1-24.4 4.2-44.9 24.7-59.9 15.3-11.2 32.3-17.7 51-20.1 2.9-.4 4.1-1.5 4.7-4.4 4-17.2 10.7-33.2 21.1-47.5 12.7-17.4 29.6-28.1 51.1-31.5 18.8-3 36.9-1.4 54 7.3 12.2 6.2 22.7 14.9 32.4 24.5 11.8 11.7 19.9 25.9 27.1 40.7 1.9 3.9 4.1 7.5 6.1 11.4.9 1.8 2.4 1.5 3.9 1.5 12-.2 23.9.8 35.6 3.7 17.3 4.2 29 15.1 37.7 29.9 1.5 2.5 2 5.5 2.5 8.3 1.1 6.5 4.2 12.6 3.5 19.4-1.4 15.4-5.1 30.4-13.6 43.1-8.4 12.6-19.8 22.6-33.6 29.7-10.7 5.5-22.2 7.3-33.7 9.8-15.1 3.4-30.4 5.6-45.9 4.8z" fill="#c6e0f7"/><path d="m243 74.6c10.6-2.4 21.2-2 31.7.8 21.5 5.8 38.4 18.2 52.3 35.2.7.9 1.4 1.8 2.3 2.6 1 .8 2.1.8 3.2.1 1-.6 1.4-1.5 1.4-2.6 0-1-.6-1.7-1.2-2.4-13.3-16.6-29.3-29.5-49.6-36.5-13.6-4.7-27.4-6.2-41.5-3-2.1.5-4.4 1.1-3.7 3.9.6 2.9 2.9 2.4 5.1 1.9z"/><path d="m110.2 227.7c2.5-.6 2.4-2.6 2-4.7-3.6-17.1.4-31.9 12.7-44.6 10.7-11 23.7-17.2 38.7-19.8 2.1-.4 4.1-1 3.7-3.6-.4-2.7-2.5-2.7-4.6-2.3-17.6 3.1-32.7 10.8-44.7 24.4-8.7 10-13 21.6-13 34.8 0 4.2.3 8.4 1.4 12.4.4 2 1.2 4 3.8 3.4z"/><path d="m380.5 160.3c1.2 0 2.3.1 3.5.1 12.7-.3 23.5 4.8 33.2 12.5 6.5 5.1 10.5 11.7 11.2 20.1.2 2.1.6 4.2 3.3 4 2.9-.2 2.9-2.4 2.7-4.7-.9-8.7-4.5-16.2-11-21.9-10.8-9.5-23-16.1-38-16-1.6 0-3.3 0-4.9 0-1.9 0-3.2.9-3.2 2.9 0 2.1 1.3 3 3.2 3z"/><path d="m426.7 212.7c-.4 4.1-1.5 7.9-3.2 11.6-.8 1.8-.6 3.5 1.4 4.3s3.3-.2 4.1-2.1c1.9-4.2 3.2-8.7 3.6-13.3.2-2-.4-3.6-2.6-3.8-2.2-.1-3.1 1.3-3.3 3.3z"/><path d="m346.1 139.9c.9 1.7 2.4 2.3 4.1 1.4 1.8-.9 2-2.5 1.2-4.2-1.5-3-3.1-6-4.7-8.9-.5-1-1.4-1.6-2.5-1.6-2.3-.1-3.8 2-2.7 4.3 1.4 3.1 3 6 4.6 9z"/></svg>