<svg id="Capa_1" enable-background="new 0 0 510 510" height="512" viewBox="0 0 510 510" width="512" xmlns="http://www.w3.org/2000/svg"><g><path d="m396.213 0h-282.426l-113.787 113.787v282.427l113.787 113.786h282.427l113.786-113.787v-282.426zm12.838 132.838-31.889-31.889 19.393-58.18 70.676 70.676zm-55.264 257.162h-197.574l-36.213-36.213v-197.574l36.213-36.213h197.573l36.214 36.213v197.573zm-4.598-300h-188.378l-20-60h228.377zm-216.351 10.949-31.889 31.889-58.18-19.393 70.676-70.676zm-42.838 59.862v188.377l-60 20v-228.377zm10.949 216.351 31.889 31.889-19.393 58.18-70.676-70.676zm59.862 42.838h188.377l20 60h-228.377zm216.351-10.949 31.889-31.889 58.18 19.393-70.676 70.676zm42.838-59.862v-188.378l60-20v228.377z"/></g></svg>