<svg id="Layer_1" enable-background="new 0 0 512.003 512.003" height="512" viewBox="0 0 512.003 512.003" width="512" xmlns="http://www.w3.org/2000/svg"><g><path d="m448.899 126.7-87.294-120.5c-2.821-3.895-7.339-6.2-12.147-6.2h-183.832c-4.721 0-9.167 2.223-12 6l-90.375 120.5c-1.947 2.597-3 5.755-3 9v241c0 3.245 1.053 6.403 3 9l90.375 120.5c2.827 3.77 7.261 5.99 11.972 5.998.007 0 .009.005.016.005.028 0 .057-.003.085-.003h177.596c4.636 0 9.012-2.144 11.853-5.808l93.456-120.5c2.04-2.63 3.147-5.864 3.147-9.192v-241c0-3.16-.998-6.24-2.852-8.8zm-102.716 342.102-24.497-50.001 40.349-52.024 50 17.117zm-246.445-84.653 50-16.667 38.326 51.101-25 50zm-9.487-227.837 50 16.667v166.043l-50 16.667zm72.813-112.896 25 50-38.326 51.101-50-16.667zm249.437 84.177-50 16.208-36.339-50.163 25.52-50zm-115.75 274.407h-83.625l-42.875-57.167v-177.666l42.875-57.167h87.843l40.782 56.295v177.684zm2.69-322h-84.544l-25-50h135.064zm-84.544 352h79.849l24.497 50h-129.346zm156.854-93.606v-166.056l50-16.207v199.38z"/></g></svg>