<svg id="Layer_1" enable-background="new 0 0 100 100" viewBox="0 0 100 100" xmlns="http://www.w3.org/2000/svg"><g><path d="m93.6073532 68.5164185c-4.6656723-6.095417-12.8106995-8.0452843-20.0639267-5.532547l-5.4577179 1.9866791c-3.0815582 1.1209946-6.4884796-.4666824-7.6106606-3.548233l-8.9572754-24.6108322-19.2872962-34.3114854h-.0427475c-3.6052361 3.7227974-4.6597328 9.2292109-2.6837387 14.0207539l16.946743 41.0897064 9.6412735 9.128273 6.679657 18.5866776c3.2798576 9.0130844 13.0291939 14.2475662 22.1859779 11.3940201 11.5780716-3.6076146 16.6641159-17.7328664 8.6497116-28.2030125zm-43.6072006-14.3603821c-2.2954254 0-4.1562309-1.8608055-4.1562309-4.1562347 0-2.2954254 1.8608055-4.1562309 4.1562309-4.1562309 2.2954292 0 4.1562347 1.8608055 4.1562347 4.1562309 0 2.2954292-1.8608055 4.1562347-4.1562347 4.1562347zm33.743866 36.7090378c-6.1631088 2.2431793-12.9769516-.9345627-15.2201309-7.0976639s.9345627-12.9769363 7.0976562-15.2201157 12.9769516.9345474 15.2201233 7.0976562c2.2431793 6.1619111-.9345474 12.976944-7.0976486 15.2201234z"/><path d="m67.8125839 2.5h-.0427551l-19.2872925 34.3102989-8.9572754 24.6108322c-1.1209946 3.0815544-4.5291061 4.670414-7.6106567 3.5482368l-5.4577293-1.9866829c-7.2532196-2.5127373-15.3982468-.5616837-20.0639153 5.5325432-8.0144043 10.4701385-2.9295509 24.5953979 8.6485262 28.2030106 9.1567726 2.8523636 18.9061089-2.3809357 22.1859703-11.3940201l6.6796608-18.5866699 9.6412735-9.1282768 17.0108681-41.4055786c1.9320592-4.7036677.8490591-10.1079583-2.7466746-13.7036934zm-36.3361645 81.2674103c-2.2431793 6.1631012-9.0570278 9.3408432-15.2201271 7.0976639s-9.3408356-9.0570221-7.0976562-15.2201233c2.2431774-6.1631088 9.0570221-9.3408432 15.2201233-7.0976562s9.3408375 9.057022 7.09766 15.2201156zm18.5237332-30.7988701c-1.6399307 0-2.9687347-1.328804-2.9687347-2.9687386 0-1.6399307 1.328804-2.9687347 2.9687347-2.9687347s2.9687386 1.328804 2.9687386 2.9687347c-.0000001 1.6399346-1.3288079 2.9687386-2.9687386 2.9687386z"/></g></svg>