<?xml version="1.0" encoding="UTF-8"?>
<!-- Generator: Adobe Illustrator 25.4.1, SVG Export Plug-In . SVG Version: 6.00 Build 0)  -->
<svg xmlns="http://www.w3.org/2000/svg" xmlns:xlink="http://www.w3.org/1999/xlink" version="1.1" id="Capa_1" x="0px" y="0px" viewBox="0 0 512 512" style="enable-background:new 0 0 512 512;" xml:space="preserve" width="512" height="512">
<g>
	<g>
		<path d="M393.246,0c27.355,17.776,7.942,58.036-17.75,67.579c46.925,27.039,25.158,112.66-32.04,102.622    c-9.999-1.338-12.181-1.282-6.152-12.657c36.494-68.333-47.078-130.713-110.051-102.304c-9.365,3.232-15.39,8.207-14.953,19.594    c0.637,54.145,0.241,108.281,0.256,162.435c82.863,11.895,62.91-63.962,80.602-50.281c26.283,13.706,17.879,51.03-1.262,66.578    c19.641,16.454,27.228,54.916,0.012,67.523c-4.825,2.198-7.029,0.952-7.572-4.444c-3.015-36.178-38.784-52.52-71.637-47.803    c0,19.694,0,38.194,0,56.762c-14.972,1.306-29.003,3.36-38.227,16.362c-11.318-12.112-25.098-17.083-41.747-15.958    c-0.006-77.832,0.021-155.602-0.052-233.428c2.789-25.674-5.681-49.102-27.262-63.905c19.966-19.81,60.6-14.241,80.382,3.581    C267.755-18.242,335.192,72.349,390.523,0C391.431,0,392.338,0,393.246,0z"/>
		<path d="M390.523,512c-28.466-41.97-72.977-29.681-114.099-18.674c-29.066,5.133-57.514,3.586-84.29-10.604    c-1.06-0.561-3.418-0.323-4.199,0.484c-15.626,16.146-35.471,18.157-56.211,16.715c-7.365-0.248-36.274-6.009-22.082-15.821    c15.067-8.878,19.834-23.074,21.122-39.229c0.724-31.194,4.962-70.198-18.606-94.262c-20.582-19.131,45.44-32.423,61.795-1.353    c13.054-18.666,39.947-24.998,59.515-13.215c3.29,2.384,10.667,7.73,5.178,11.717c-28.137,24.292-22.1,67.715-20.813,101.243    c22.648,24.568,76.035,14.913,100.535-4.781c28.934-21.001,35.169-63.818,16.858-93.784c-2.818-4.847-1.817-6.983,3.736-8.053    c59.471-14.755,84.914,73.561,36.725,102.119c25.235,8.966,45.182,50.727,17.559,67.497C392.338,512,391.431,512,390.523,512z"/>
	</g>
	<g>
		<path style="fill:#FFFFFF;" d="M168.907,373.907c46.09-36.234,16.019,32.699,7.873,51.229    c-5.994,14.851-26.673-37.442-26.648-43.796c-3.539-22.512,10.573-24.422,21.082-6.079    C170.445,374.81,169.676,374.359,168.907,373.907z"/>
		<g>
			<path style="fill:#FFFFFF;" d="M186.594,55.099c-65.479,82.735,42.011,179.682-15.678,259.747     c-0.578-0.354-1.156-0.707-1.734-1.061c52.338-81.973-63.657-171.881,15.596-258.686     C185.383,55.099,185.989,55.099,186.594,55.099z"/>
			<g>
				<path style="fill:#FFFFFF;" d="M158.645,248.223c11.628,0.031,11.274,18.355-0.226,17.902      C147.504,266.088,147.283,247.689,158.645,248.223z"/>
				<path style="fill:#FFFFFF;" d="M194.339,134.223c0.292,10.429-16.175,10.496-16.289,0.108      C177.496,123.057,194.302,123.317,194.339,134.223z"/>
			</g>
		</g>
	</g>
</g>















</svg>
