<svg id="Layer_3" height="512" viewBox="0 0 32 32" width="512" xmlns="http://www.w3.org/2000/svg" data-name="Layer 3"><g fill="rgb(0,0,0)"><path d="m24.51717 9a.2.2 0 0 0 .14142-.34143l-5.31714-5.3172a.2.2 0 0 0 -.34145.14139v4.51724a1 1 0 0 0 1 1z"/><path d="m25 11h-5a3 3 0 0 1 -3-3v-4.99746a.99714.99714 0 0 0 -.99609-1c-2.34233-.00116-8.00391-.00254-8.00391-.00254a2 2 0 0 0 -2 2v24a2 2 0 0 0 2 2h16a2 2 0 0 0 2-2v-16a1.00005 1.00005 0 0 0 -1-1zm-5.46435 11.1211a.99989.99989 0 1 1 -1.41407 1.41406l-2.12158-2.12125-2.12158 2.12122a.99989.99989 0 0 1 -1.41406-1.41406l2.12148-2.12107-2.12146-2.12109a.99989.99989 0 0 1 1.41406-1.41406l2.12156 2.12115 2.12158-2.12121a.99989.99989 0 0 1 1.41407 1.41406l-2.12144 2.12115z"/></g></svg>