<?xml version="1.0" encoding="UTF-8"?>
<!-- Generator: Adobe Illustrator 25.4.1, SVG Export Plug-In . SVG Version: 6.00 Build 0)  -->
<svg xmlns="http://www.w3.org/2000/svg" xmlns:xlink="http://www.w3.org/1999/xlink" version="1.1" id="Capa_1" x="0px" y="0px" viewBox="0 0 512 512" style="enable-background:new 0 0 512 512;" xml:space="preserve" width="512" height="512">
<g>
	<g>
		<path d="M396.35,0c27.967,18.174,8.12,59.334-18.147,69.091c47.975,27.644,25.721,115.181-32.757,104.918    c-10.223-1.367-12.454-1.311-6.29-12.94c37.31-69.862-48.131-133.637-112.513-104.593c-9.575,3.304-15.734,8.391-15.287,20.032    c0.652,55.356,0.246,110.703,0.262,166.07c84.717,12.161,64.318-65.393,82.406-51.406c26.871,14.013,18.279,52.172-1.29,68.068    c20.081,16.823,27.838,56.145,0.013,69.034c-4.933,2.247-7.186,0.973-7.742-4.543c-3.082-36.987-39.652-53.695-73.24-48.873    c0,20.134,0,39.048,0,58.032c-15.307,1.335-29.652,3.435-39.083,16.728c-11.571-12.383-25.659-17.465-42.68-16.314    c-0.007-79.574,0.021-159.083-0.053-238.65c2.851-26.248-5.808-50.201-27.871-65.335c20.413-20.253,61.956-14.56,82.181,3.661    C268.052-18.65,336.997,73.968,393.566,0C394.494,0,395.422,0,396.35,0z"/>
		<path d="M172.102,356.911c19.152-23.739,47.821-25.076,66.372-8.458c2.277,1.795,2.99,4.822-0.174,7.067    c-15.634,11.091-18.395,28.332-20.732,45.294c-2.7,32.765-8.826,75.291,23.518,95.58c3.376,2.219,2.52,4.536,0.128,6.791    c-19.084,13.034-46.055,9.711-66.954,2.242c-19.921,5.117-39.83,9.448-60.292,2.982c-38.724-19.427,32.207,6.58,12.141-112.717    c-1.043-33.046-32.981-40.902-16.847-50.584C128.679,330.65,158.461,337.352,172.102,356.911z"/>
	</g>
	<g>
		<path style="fill:#FFFFFF;" d="M169.394,384.656c47.122-37.044,16.377,33.431,8.049,52.375    c-6.128,15.183-27.27-38.28-27.244-44.776c-3.618-23.016,10.81-24.969,21.554-6.215    C170.966,385.579,170.18,385.118,169.394,384.656z"/>
		<g>
			<path style="fill:#FFFFFF;" d="M187.476,58.716c-66.944,84.586,42.951,183.702-16.029,265.559     c-0.591-0.362-1.182-0.723-1.772-1.085c53.509-83.807-65.081-175.727,15.945-264.474     C186.238,58.716,186.857,58.716,187.476,58.716z"/>
			<g>
				<path style="fill:#FFFFFF;" d="M158.902,256.16c11.888,0.031,11.526,18.766-0.231,18.302      C147.512,274.425,147.286,255.615,158.902,256.16z"/>
				<path style="fill:#FFFFFF;" d="M195.394,139.61c0.299,10.663-16.536,10.731-16.653,0.11      C178.175,128.193,195.357,128.46,195.394,139.61z"/>
			</g>
		</g>
	</g>
</g>















</svg>
