<svg id="Layer_1" enable-background="new 0 0 512 512" viewBox="0 0 512 512" xmlns="http://www.w3.org/2000/svg"><g><path d="m286.6 313.3c14.6-.4 29.1-.2 43.4.6 7.9.4 15.9 1.2 23.8 2.6 3.6.7 4.5 2.5 2.9 6.6-2.4 5.9-5.4 11.5-8.9 16.8-8.7 13-17 26.3-25.2 39.6-5.5 9-11.4 17.7-17.4 26.4-7.1 10.2-13.7 20.9-20.6 31.3-2.5 3.7-5.3 7.2-7.9 10.8-.3-.1-.6-.2-.9-.2.3-5.2.3-10.5 1-15.7 3.1-22.9 6.7-45.8 11.9-68.3.9-3.8 1.2-7.7 1.9-11.5.4-2.3-1-1.7-2.2-1.5-13.3 1.6-26.6 3.2-39.9 4.9-9.8 1.2-19.5 2.4-29.3 3.6-.7.1-1.4.3-2.3-.2.4-1.5.8-3.1 1.4-4.6 4.9-12.2 9.3-24.7 15-36.6 5.9-12.4 11-25.1 16.7-37.6 7.3-15.9 13.4-32.3 19.9-48.6.8-2.1 2-4 2.7-6.2 1.5-4.8 2.1-5.5 7.2-5.4 5.2.1 10.4 0 15.6-.6 2.2-.3 4.5-.6 6.6-1.2 4.3-1.3 8.6-1.5 13-1.9 10.5-.9 21.1-.3 31.6-.9 2-.1 2.3.8 2.1 2.3-.4 3.8-2.9 6.5-4.9 9.4-7.2 10.2-15.1 19.9-21.9 30.4-8.2 12.5-17.3 24.4-25.1 37.1-3.6 5.8-6.7 12.2-10.2 18.6z" fill="#fab03c"/><g fill="#3981bf"><path d="m203.5 271.6c1.8.1 3.7.3 5.5.3 2.3 0 2.2.9 1.3 2.6-11 21.3-21.9 42.6-32.8 63.9-2 3.9-6 5.2-9.6 3.2-3.4-1.8-4.5-5.7-2.5-9.6 10-19.6 20.1-39.2 30.1-58.8.8-1.6 1.7-2.1 3.4-1.9 1.5.3 3.1.2 4.6.3z"/><path d="m209.7 350.2c.1 1.5-.5 2.8-1.2 4.1-8.9 17.4-17.8 34.8-26.7 52.2-2.2 4.2-6 5.7-9.6 3.8-3.6-1.8-4.7-5.9-2.6-10 8.9-17.5 17.9-35 26.9-52.5 1.9-3.7 4.9-5.1 8.3-4.2 2.9.9 4.9 3.5 4.9 6.6z"/><path d="m123 438.9c-5 .1-8.3-5-6.1-9.8 1.7-3.7 3.7-7.3 5.6-11 6.2-12.1 12.4-24.3 18.6-36.4.2-.5.5-.9.7-1.4 2.1-3.5 5.8-4.8 9.2-3 3.5 1.8 4.7 5.7 2.8 9.5-4.5 9-9.1 17.9-13.7 26.8-3.5 6.9-7.1 13.8-10.7 20.8-1.3 2.8-3.3 4.5-6.4 4.5z"/><path d="m110.1 334.7c.1 1.5-.5 2.8-1.1 4.1-6.4 12.5-12.8 25-19.2 37.4-2.2 4.2-6 5.7-9.6 3.8s-4.7-5.8-2.5-10c6.5-12.7 13-25.4 19.5-38 1.7-3.2 4.7-4.6 7.9-3.8 2.9.8 4.9 3.4 5 6.5z"/><path d="m122.4 350.9c0-1.3.3-2.4.8-3.5 6-11.6 11.9-23.3 18-34.9 2-3.8 6.7-4.7 10-2.3 3 2.2 3.6 5.5 1.7 9.3-5.1 10-10.2 20-15.4 30-.9 1.8-1.8 3.7-2.9 5.4-1.8 2.5-4.4 3.2-7.3 2.4-3-.8-4.9-3.4-4.9-6.4z"/><path d="m231.3 272.9c1.5.1 3.1.1 4.6.2 3.1.2 3.6.9 2.2 3.8-6.6 13.1-13.3 26.1-20 39.1-1.8 3.5-5.9 4.6-9.2 2.9s-4.6-5.6-2.8-9.2c5.1-10.2 10.3-20.3 15.5-30.4.1-.3.3-.5.4-.8 2.9-5.9 2.9-5.9 9.3-5.6z"/><path d="m124 300.3c-5.2 0-8.7-5-6.6-9.5 3.8-7.9 8-15.7 11.9-23.5.6-1.1 1.3-1.4 2.5-1.3 3.5.4 7.1.8 10.7 1.2 1.5.1 2 .6 1.2 2.1-4.7 9.2-9.4 18.4-14.2 27.5-1.2 2.4-3.3 3.3-5.5 3.5z"/><path d="m168.5 269.6c1.9.1 3.9.3 5.8.4s2 .8 1.2 2.3c-3.2 6.2-6.3 12.4-9.6 18.5-1.8 3.4-5.6 4.5-8.9 2.9-3.4-1.7-4.9-5.5-3.2-9.1 2.2-4.6 4.7-9.1 6.9-13.7.7-1.4 1.6-2 3.2-1.7 1.6.2 3.1.3 4.6.4z"/></g><path d="m404.1 205.8c5.4-.7 10.9.4 16.3 2 3.3 1 5 3.8 7.1 6.1 4.4 4.9 6.6 10.7 7.8 17.1 1.6 8.7-5.7 18.5-12.7 21.5-6.2 2.7-12.8 4-19.7 3.6-1-.1-2 0-3.1 0-77.6 0-155.1 0-232.7 0-2.8 0-5.5.3-8.1 1.3-3.4 1.3-7 .8-10.3.1-7.1-1.6-15-1.5-21.1-5.8-7.8-5.6-17.1-10-20-20.6-.7-2.5-1.9-4.7-3.8-6.6-2.4-2.2-3.1-5.2-3.6-8.3-1-6.8-3.4-13.3-3.3-20.3.1-11.8 3.6-22.6 9.7-32.6 4.2-6.8 9.4-12.9 14.5-19.1 4.9-6 11.6-8.3 18.7-9.5 4.6-.8 9.5-.9 14.2 1 3.7 1.4 4.1.9 4.6-2.9 1.3-11.1 6.5-20.4 13.9-28.6 10-11.1 21.7-20 34.5-27.8 10.1-6.2 21.1-9.2 32.3-11 12.8-2.1 26.1-2.2 38.2 2.9 24 10.2 44.6 24.7 56 49.4 2.8 6.1 4.5 12.5 5.2 19.2.6 5.7 1.5 11.4 1 17.1-.1 1.8.4 2.1 2.1 1.1 4.3-2.6 9.2-3.6 14.1-3.5 7.7.1 14.9 2.2 21.5 6.4 2.6 1.7 3.8 4.5 5.6 6.9 3.8 5.1 7.6 10.1 9.9 16.2 1.8 4.7 2.5 9.5 2.1 14.4-.3 3-.6 5.9-.4 8.9.1 1.6.7 2.2 2.3 2 2.2-.4 4.6-.4 7.2-.6z" fill="#a9b5b4"/><path d="m242.4 332.2c-.1-1.1.5-1.8.9-2.6 11.3-22.1 22.7-44.1 34-66.2.3-.6.7-1.2 1-1.9.5-1.3.3-2.5-.9-3.2-1.3-.8-2.6-.6-3.5.7-.6.8-1.1 1.8-1.5 2.7-11.9 23.1-23.8 46.3-35.6 69.5-.7 1.4-2 2.9-.8 4.5 1.3 1.7 3.1 2.4 5.4 2.2 11.5-1.2 23.1-1.5 34.7-1.9 13.5-.4 27-.5 40.6 0 2.9.1 3 1 1.8 3.2-1.4 2.4-2.6 4.9-3.9 7.3-1.7 3.2-3.4 6.3-4.9 9.5-.7 1.5-.4 2.9 1.3 3.6 1.6.7 2.7 0 3.5-1.5 3.2-6.2 6.6-12.3 9.6-18.6 2.7-5.6 1.2-8-4.9-8.6-1-.1-2-.2-3.1-.2-15.3-.5-30.5-.4-45.8.2-9.5.3-18.7.8-27.9 1.3z"/><path d="m181.2 119.3c-.8 1.2-1.4 2.5-2.1 3.8-.9 1.6-1.1 3.3.8 4.2 1.9 1 2.9-.2 3.9-1.8 11.7-20 28.8-32 52.1-34.8 6.6-.8 13.3-.9 19.9-.1 1.8.2 3.1-.5 3.3-2.3.2-2.1-1.4-2.8-3.2-2.9-30.1-3.3-56.7 7.1-74.7 33.9z"/><path d="m134.3 230.7c1.6 1.2 3.4 2.1 4.8 0 1.3-1.9-.2-3.1-1.7-4.2-19.7-14.6-21-43.7-2.7-59.9 2.1-1.8 4.4-3.3 6.8-4.7 1.6-.8 2.4-2.1 1.5-3.8-1-1.9-2.6-1.7-4.2-.8-13.8 8.2-21.7 20.1-22.7 34.6.7 16.8 6.1 29.4 18.2 38.8z"/><path d="m349.8 169.6c6.1-1.2 11.3.5 15.7 5 2 2.1 3.8 4.3 5.3 6.7.9 1.3 2.2 1.6 3.5.8s1.6-2 1-3.5c-3.2-7.8-13.5-14.8-22.7-14.7-.7.1-2.2.2-3.8.5-1.8.3-3.7.8-3.3 3.2.4 2.5 2.3 2.4 4.3 2z"/><path d="m300.4 385c1.3.5 2.6 0 3.1-1.2 1.7-4.3 3.4-8.6 4.9-12.9.5-1.3-.2-2.4-1.5-3s-2.6-.2-3.1 1c-1.8 4.3-3.4 8.7-5 12.9-.2 1.7.3 2.8 1.6 3.2z"/><path d="m272 91.5c-.6 1.5 0 2.7 1.4 3.3 3.8 1.5 7.4 3.3 10.9 5.6 1.2.8 2.6.4 3.4-.9.7-1.2.5-2.4-.6-3.3-3.7-2.8-7.8-4.8-12-6.2-1.5-.3-2.6.2-3.1 1.5z"/><path d="m298.2 390.3c-1-.6-2.1-.7-2.8.2-2 2.2-3.3 4.9-4 7.8-.3 1.1.4 2 1.5 2.4.9.4 2 .4 2.6-.3 1.9-2.3 2.8-5.2 4-7.4-.1-1.4-.5-2.2-1.3-2.7z"/></g></svg>