<svg id="Capa_1" enable-background="new 0 0 512 512" height="512" viewBox="0 0 512 512" width="512" xmlns="http://www.w3.org/2000/svg"><g><g><g><path d="m368.63 298.46-.01-.05c-.03-.18-.07-.35-.12-.53l-21.27-80.23-.01-.01c-.14-.53-.33-1.05-.55-1.54-.24-.51-.52-1-.84-1.47l-81.67-119.52c-1.98-2.82-5.07-4.22-8.16-4.22-3 0-5.99 1.32-8 3.99l-.04.05-.01.02-.06.08v.01l-.15.21-81.57 119.37v.01c-.32.47-.6.96-.84 1.47-.23.52-.43 1.05-.57 1.6l-21.25 80.13c-.26.98-.37 2-.31 3 .03.96.21 1.92.53 2.84l23.91 69.12c.38 1.1.95 2.12 1.67 3.01.72.9 1.61 1.67 2.61 2.28l51.65 31.18 27.26 16.45c1.59.96 3.38 1.44 5.17 1.44 1.73 0 3.44-.44 4.99-1.33l79.09-47.74c1-.61 1.89-1.38 2.61-2.28.72-.89 1.29-1.91 1.67-3.01l23.91-69.12c.32-.92.5-1.88.53-2.84.01-.02.01-.03.01-.05.03-.77-.02-1.55-.18-2.32z" fill="#fb946d"/><path d="m368.81 300.78c0 .02 0 .03-.01.05-.03.96-.21 1.92-.53 2.84l-23.91 69.12c-.38 1.1-.95 2.12-1.67 3.01-.72.9-1.61 1.67-2.61 2.28l-79.09 47.74c-1.55.89-3.26 1.33-4.99 1.33-1.79 0-3.58-.48-5.17-1.44l-6.49-3.92 72.41-43.71c1-.61 1.89-1.38 2.61-2.28.72-.89 1.29-1.91 1.67-3.01l23.91-69.12c.32-.92.5-1.88.53-2.84.01-.02.01-.03.01-.05.03-.77-.02-1.55-.18-2.32l-.01-.05c-.03-.18-.07-.35-.12-.53l-21.27-80.23-.01-.01c-.14-.53-.33-1.05-.55-1.54-.24-.51-.52-1-.84-1.47l-78.17-114.39 3.41-4.99.15-.21v-.01l.06-.08.01-.02.04-.05c2.01-2.67 5-3.99 8-3.99 3.09 0 6.18 1.4 8.16 4.22l81.67 119.52c.32.47.6.96.84 1.47.22.49.41 1.01.55 1.54l.01.01 21.27 80.23c.05.18.09.35.12.53l.01.05c.16.77.21 1.55.18 2.32z" fill="#fc7d4b"/><path d="m256 369.18v57.97c-1.79 0-3.58-.48-5.17-1.44l-6.49-3.92-20.77-12.53-51.65-31.18c-1-.61-1.89-1.38-2.61-2.28l40.65-34.4z" fill="#fb6a3b"/><path d="m256 90.89v82.78l-43.69 63.93-46.98-21.5-.13-.06.97-1.41v-.01l71.09-104.02 7.07-10.36 3.41-4.99.15-.21v-.01l.06-.08.01-.02.04-.05c2.01-2.67 5-3.99 8-3.99z" fill="#fcac8d"/><path d="m256 90.89v26.43l-11.67-17.08 3.41-4.99.15-.21v-.01l.06-.08.01-.02.04-.05c2.01-2.67 5-3.99 8-3.99z" fill="#fb946d"/><path d="m209.96 341.4-40.65 34.4c-.72-.89-1.29-1.91-1.67-3.01l-23.91-69.12c-.32-.92-.5-1.88-.53-2.84l52.31.1z" fill="#fcac8d"/><path d="m342.69 375.8c-.72.9-1.61 1.67-2.61 2.28l-79.09 47.74c-1.55.89-3.26 1.33-4.99 1.33v-57.97l46.04-27.78z" fill="#fc7d4b"/><path d="m299.69 237.6-43.69-63.93-43.69 63.93-16.8 63.33 14.45 40.47 46.04 27.78 46.04-27.78 14.45-40.47z" fill="#ffdccf"/><path d="m316.49 300.93-14.45 40.47-46.04 27.78-16.5-9.96 26.487-15.978c1.975-1.191 3.477-3.028 4.252-5.2l12.207-34.187c.68-1.905.767-3.972.248-5.927l-15.564-58.668c-.291-1.099-.768-2.139-1.409-3.078l-26.221-38.372 16.5-24.14 43.69 63.93z" fill="#ffc5b0"/></g></g><path d="m368.81 300.78c0 .02 0 .03-.01.05l-52.31.1-16.8-63.33 46.98-21.5c.22.49.41 1.01.55 1.54l.01.01 21.27 80.23c.05.18.09.35.12.53l.01.05c.16.77.21 1.55.18 2.32z" fill="#fc7d4b"/><path d="m368.81 300.78c0 .02 0 .03-.01.05l-23.33.04v-.04c.01-.02.01-.03.01-.05.03-.77-.02-1.55-.18-2.32l-.01-.05c-.03-.18-.07-.35-.12-.53l-19.17-72.32 20.67-9.46c.22.49.41 1.01.55 1.54l.01.01 21.27 80.23c.05.18.09.35.12.53l.01.05c.16.77.21 1.55.18 2.32z" fill="#fb6a3b"/><path d="m342.69 375.8c-.72.9-1.61 1.67-2.61 2.28l-79.09 47.74c-1.55.89-3.26 1.33-4.99 1.33v-12.4l60.75-36.67c1-.61 1.89-1.38 2.61-2.28.72-.89 1.29-1.91 1.67-3.01l4.1-11.85z" fill="#fb6a3b"/><path d="m256 414.75v12.4c-1.79 0-3.58-.48-5.17-1.44l-6.49-3.92z" fill="#fb5532"/><g><path d="m376.279 301.46c.012-.132.021-.263.025-.395.054-1.407-.055-2.784-.314-4.047-.067-.371-.15-.736-.24-1.06l-21.27-80.23c-.038-.141-.079-.281-.125-.42-.225-.77-.51-1.538-.848-2.29-.018-.038-.034-.076-.053-.113-.407-.866-.888-1.707-1.433-2.507l-24.231-35.462c-2.336-3.419-7.004-4.299-10.424-1.961-3.42 2.337-4.298 7.004-1.961 10.424l20.176 29.527-33.267 15.224-38.814-56.799v-63.914l33.296 48.728c2.335 3.418 7.002 4.298 10.424 1.961 3.42-2.337 4.298-7.004 1.961-10.424l-38.883-56.903c-3.259-4.639-8.604-7.409-14.298-7.409-5.51 0-10.573 2.504-13.913 6.875-.095.12-.187.243-.274.37-.069.096-.136.192-.2.291-.021.031-.043.062-.064.093l-81.57 119.37c-.071.104-.139.209-.204.316-.459.703-.872 1.442-1.229 2.2-.024.052-.049.104-.071.156-.428.964-.748 1.874-.963 2.716l-21.251 80.131c-.461 1.74-.646 3.511-.552 5.265.063 1.686.38 3.354.935 4.948l23.908 69.117c.663 1.921 1.649 3.698 2.902 5.246 1.26 1.575 2.794 2.92 4.591 4.017l34.37 20.749c1.212.732 2.549 1.08 3.869 1.08 2.54 0 5.019-1.292 6.428-3.625 2.141-3.546 1.001-8.156-2.545-10.297l-28.524-17.219 29.052-24.586 37.805 22.811v42.13l-10.09-6.089c-3.544-2.139-8.156-1.001-10.296 2.546-2.141 3.546-1.001 8.156 2.546 10.296l16.293 9.833c2.73 1.648 5.858 2.52 9.047 2.52 3.057 0 6.073-.804 8.724-2.326.048-.027.096-.055.143-.083l79.121-47.759c1.766-1.078 3.3-2.423 4.531-3.963 1.283-1.584 2.27-3.363 2.929-5.277l23.905-69.105c.528-1.518.838-3.089.926-4.677zm-16.74-8.115-37.281.077-13.698-51.633 33.274-15.228zm-189.371-66.783 33.272 15.227-13.698 51.633-37.284-.077zm-16.884 81.785 36.937.076 10.929 30.607-28.817 24.386zm50.072-7.745 15.873-59.833 7.896-11.555c2.337-3.419 1.459-8.086-1.961-10.424-3.419-2.335-8.086-1.459-10.424 1.961l-5.057 7.4-33.272-15.227 72.089-105.492v63.919l-15.259 22.327c-2.337 3.42-1.459 8.087 1.961 10.424 3.418 2.337 8.086 1.459 10.424-1.96l10.374-15.18 36.771 53.806 15.873 59.833-12.768 35.758-39.876 24.061-39.876-24.061zm60.144 114.942v-42.131l37.805-22.811 29.052 24.586zm76.166-52.128-28.816-24.386 10.929-30.607 36.937-.076z"/><path d="m256 36.33c4.143 0 7.5-3.358 7.5-7.5v-21.33c0-4.142-3.357-7.5-7.5-7.5s-7.5 3.358-7.5 7.5v21.33c0 4.142 3.357 7.5 7.5 7.5z"/><path d="m256 475.67c-4.143 0-7.5 3.358-7.5 7.5v21.33c0 4.142 3.357 7.5 7.5 7.5s7.5-3.358 7.5-7.5v-21.33c0-4.142-3.357-7.5-7.5-7.5z"/><path d="m383.646 34.094c-3.587-2.065-8.174-.83-10.24 2.761l-10.636 18.489c-2.065 3.59-.829 8.175 2.762 10.241 1.178.678 2.464 1 3.732 1 2.596 0 5.12-1.35 6.508-3.762l10.636-18.489c2.066-3.589.829-8.174-2.762-10.24z"/><path d="m146.468 446.415c-3.587-2.066-8.174-.829-10.24 2.761l-10.636 18.489c-2.065 3.59-.829 8.175 2.762 10.241 1.178.678 2.464 1 3.732 1 2.596 0 5.12-1.35 6.508-3.762l10.636-18.489c2.065-3.59.829-8.175-2.762-10.24z"/><path d="m453.675 151.548c1.252 0 2.521-.314 3.689-.976l18.56-10.512c3.604-2.041 4.871-6.618 2.83-10.222-2.043-3.604-6.617-4.872-10.223-2.83l-18.56 10.512c-3.604 2.041-4.871 6.618-2.83 10.222 1.381 2.437 3.921 3.806 6.534 3.806z"/><path d="m54.636 361.428-18.56 10.512c-3.604 2.041-4.871 6.618-2.83 10.222 1.381 2.437 3.92 3.805 6.533 3.805 1.252 0 2.521-.314 3.689-.976l18.56-10.512c3.604-2.041 4.871-6.618 2.83-10.222-2.043-3.604-6.618-4.871-10.222-2.829z"/><path d="m136.228 62.824c1.388 2.412 3.911 3.762 6.508 3.762 1.269 0 2.555-.323 3.732-1 3.591-2.065 4.827-6.65 2.762-10.241l-10.636-18.489c-2.066-3.591-6.652-4.827-10.24-2.761-3.591 2.065-4.827 6.65-2.762 10.241z"/><path d="m375.772 449.176c-2.066-3.591-6.653-4.827-10.24-2.761-3.591 2.065-4.827 6.65-2.762 10.241l10.636 18.489c1.388 2.412 3.911 3.762 6.508 3.762 1.269 0 2.555-.323 3.732-1 3.591-2.065 4.827-6.65 2.762-10.241z"/><path d="m62.028 137.521-18.56-10.512c-3.605-2.042-8.181-.775-10.223 2.83-2.041 3.604-.774 8.181 2.83 10.222l18.56 10.512c1.168.662 2.437.976 3.689.976 2.613 0 5.152-1.369 6.533-3.805 2.042-3.606.776-8.182-2.829-10.223z"/><path d="m475.924 371.939-18.56-10.512c-3.605-2.042-8.181-.775-10.223 2.83-2.041 3.604-.774 8.181 2.83 10.222l18.56 10.512c1.168.662 2.437.976 3.689.976 2.613 0 5.152-1.369 6.533-3.805 2.042-3.605.775-8.182-2.829-10.223z"/><path d="m504.5 248.5h-21.33c-4.143 0-7.5 3.358-7.5 7.5s3.357 7.5 7.5 7.5h21.33c4.143 0 7.5-3.358 7.5-7.5s-3.357-7.5-7.5-7.5z"/><path d="m36.33 256c0-4.142-3.357-7.5-7.5-7.5h-21.33c-4.143 0-7.5 3.358-7.5 7.5s3.357 7.5 7.5 7.5h21.33c4.143 0 7.5-3.358 7.5-7.5z"/></g></g></svg>