<?xml version="1.0" encoding="iso-8859-1"?>
<!-- Generator: Adobe Illustrator 19.0.0, SVG Export Plug-In . SVG Version: 6.00 Build 0)  -->
<svg version="1.1" id="Capa_1" xmlns="http://www.w3.org/2000/svg" xmlns:xlink="http://www.w3.org/1999/xlink" x="0px" y="0px"
	 viewBox="0 0 511.999 511.999" style="enable-background:new 0 0 511.999 511.999;" xml:space="preserve">
<g>
	<g>
		<path d="M489.237,22.762L236.466,0L0,235.839l23.411,252.749l252.749,23.411l235.839-236.465L489.237,22.762z M442.147,48.641
			L414.56,76.228l-140.64-12.793l-10.324-30.873L442.147,48.641z M418.771,241.705L242.326,418.152l-136.101-12.38l-12.379-136.1
			L270.293,93.227l136.1,12.379L418.771,241.705z M235.55,43.279l10.592,31.676L75.554,245.542l-32.132-10.644L235.55,43.279z
			 M32.635,262.925l31.423,10.409l12.79,140.605l-27.664,27.664L32.635,262.925z M70.396,462.814l27.664-27.663l140.606,12.79
			l10.409,31.423L70.396,462.814z M277.101,468.577l-10.644-32.133l170.587-170.587l31.676,10.592L277.101,468.577z
			 M448.564,238.081L435.772,97.438l27.588-27.587l16.078,178.553L448.564,238.081z"/>
	</g>
</g>
<g>
</g>
<g>
</g>
<g>
</g>
<g>
</g>
<g>
</g>
<g>
</g>
<g>
</g>
<g>
</g>
<g>
</g>
<g>
</g>
<g>
</g>
<g>
</g>
<g>
</g>
<g>
</g>
<g>
</g>
</svg>
