<svg id="Layer_1" enable-background="new 0 0 100 100" viewBox="0 0 100 100" xmlns="http://www.w3.org/2000/svg"><path d="m16.98629 7.971169c-1.5439453-1.8858509-3.6474867-3.0464034-5.9582205-3.0464034-4.7044444 0-8.5280704 4.642211-8.5280704 10.3621225v11.0977936l17.056076.0207443v-11.1081657c-.0414248-2.8599558-1.0258379-5.4504862-2.5697851-7.3260913z"/><path d="m84.6613159 17.0691433v57.2299805h-39.4071846c-.7771606 0-1.4196091.6322021-1.4196091 1.4197311v7.211998c0 6.6938934-4.5282402 12.1443787-10.1030693 12.1443787-6.2483273 0-11.3361645-6.103302-11.3361645-13.6054688v-66.203619c-.0206814-3.3573179-1.1812973-6.6110392-3.2951469-9.2119427-.3315964-.4041381-.6942444-.7771592-1.0776386-1.129436h56.6082878c5.5333328.0000005 10.0305252 5.4504867 10.0305252 12.1443782z"/><path d="m97.5 77.1279678v5.802887c0 6.6938934-4.4971848 12.1443787-10.0305939 12.1443787h-46.1736145c3.4920311-3.056778 5.4608574-7.5021667 5.3779449-12.1443787v-5.802887z"/></svg>