<?xml version="1.0" encoding="UTF-8"?>
<!-- Generator: Adobe Illustrator 25.4.1, SVG Export Plug-In . SVG Version: 6.00 Build 0)  -->
<svg xmlns="http://www.w3.org/2000/svg" xmlns:xlink="http://www.w3.org/1999/xlink" version="1.1" id="Capa_1" x="0px" y="0px" viewBox="0 0 512 512" style="enable-background:new 0 0 512 512;" xml:space="preserve" width="512" height="512">
<g>
	<g>
		<path d="M398.628,0c18.816,17.53,12.379,47.616-1.889,65.834c34.061,34.242,13.707,93.821-26.971,112.756    c-4.31,2.422-5.546,1.537-5.561-3.619C367.065,66.563,261.2,1.424,206.397,116.148c-26.125,62.089-21.9,131.01-19.666,197.031    c-13.936,3.72-27.028,9.325-36.203,22.25c-15.238-11.337-31.75-15.034-50.731-8.098C69.065,202.237,119.95,33.744,260.876,7.286    C305.691-7.913,362.007,34.859,395.837,0C396.767,0,397.698,0,398.628,0z"/>
		<path d="M152.712,347.013c11.383-29.645,81.39-29.436,70.098-10.574c-45.668,39.459,14.214,104.792,62.973,99.585    c50.438,2.289,59.476-45.046,52.081-85.412c-7.299-38.465-55.877-34.411-81.007-16.155    c-20.722-55.849,69.653-89.106,103.423-46.838c17.332-26.42,58.877-31.101,73.826-1.828c2.094,3.751,0.849,6.309-3.056,6.421    c-22.391,0.643-30.733,11.925-31.992,33.073c-2.09,35.091-2.899,70.265-3.832,105.415c-0.36,20.799-0.076,47.908,25.03,52.884    c31.656,13.448-57.769,55.458-78.532,2.016c-34.968,20.15-79.079,20.743-116.785,8.533    c-53.527-20.06-83.758-70.458-115.748-114.442c-6.136-8.006-14.68-10.865-24.677-10.179    C58.858,373.687,102.026,302.418,152.712,347.013z"/>
	</g>
	<g>
		<path style="fill:#FFFFFF;" d="M177.995,418.617c-16.244-12.15-33.994-27.361-38.057-48.12    c-0.015-16.62,17.554-6.652,24.132,0.244c2.115-9.103,20.731-23.057,21.314-5.858c-3.413,17.793-3.081,36.047-5.528,53.734    C179.236,418.617,178.615,418.617,177.995,418.617z"/>
		<path style="fill:#FFFFFF;" d="M379.088,114.219c-8.153,17.221,0.504-29.291-20.917-49.24    c-5.681-9.681-26.621-16.224-22.448-28.987c5.935-12.986,24.018-4.835,30.421,4.027    C383.258,55.509,382.843,102.732,379.088,114.219z"/>
		<g>
			<path style="fill:#FFFFFF;" d="M283.124,25.08c6.469,2.356,23.84-0.099,25.135,7.789     c-81.297-17.949-128.88,56.806-148.987,124.481c3.016,31.415,3.198,62-8.602,92.083c-4.953,12.949-9.29,28.208-21.247,36.493     c19.27-36.501,28.351-74.639,23.313-116.816c-37.562,36.581-42.254-43.36,0.805-18.07     C170.063,90.043,211.726,21.635,283.124,25.08z M141.204,155.525c-14.932,3.704-12.477,20.503,0.028,15.422     C149.616,165.173,150.52,160.561,141.204,155.525z"/>
			<g>
				<path style="fill:#FFFFFF;" d="M124.387,216.118c12.03,0.348,11.01,19.611-0.929,18.589      C110.549,233.835,112.183,215.892,124.387,216.118z"/>
				<path style="fill:#FFFFFF;" d="M145.458,114.386c8.566-0.324,9.456,13.993,0.476,14.073      C136.731,129.022,136.497,114.411,145.458,114.386z"/>
			</g>
		</g>
	</g>
</g>















</svg>
