<svg id="Layer_1" enable-background="new 0 0 512 512" viewBox="0 0 512 512" xmlns="http://www.w3.org/2000/svg"><g fill="#fab03c"><path d="m180.4 291.2c-42.6 1.1-65.5-37.2-65.5-64.9 0-27.1 21.9-65 64-64.9 37.7 0 66.5 28.2 66.9 64.6.4 28.4-23.2 66.4-65.4 65.2z"/><path d="m87.4 233.3c-5.4 0-10.8.1-16.3 0-4.9-.1-7.2-2.4-7.1-7 0-4.4 2.3-6.9 6.9-6.9 11.5.1 22.9.3 34.4.6 3.7.1 6.3 2.9 6.3 6.4s-2.5 6.2-6.4 6.3c-5.9.2-11.8 0-17.7 0-.1.2-.1.4-.1.6z"/><path d="m272.8 232.7c-5.5 0-11.1.1-16.6 0-4.2-.1-6.7-2.6-6.7-6.3s2.6-6.4 6.6-6.5c11.2-.3 22.4-.5 33.6-.5 5.6 0 8.7 4.2 7 9.5-1 3.1-3.3 4.5-6.5 4.5-5.8 0-11.6 0-17.4 0 0-.3 0-.5 0-.7z"/><path d="m142.6 285.2c4.8-.1 8 4.8 5.8 9.4-2.3 4.6-5 9-7.5 13.6-3 5.4-5.9 10.8-8.9 16.2-2.4 4.2-5.8 5.2-9.6 3-4-2.3-5-5.7-2.5-10 5.6-9.6 11.4-19 17.1-28.5 1.3-2.3 3-3.5 5.6-3.7z"/><path d="m242.4 320.9c-.1 4.1-2.4 6.1-5.5 7.2-2.9 1-5.6.2-7.1-2.4-5.9-10.4-11.7-20.8-17.4-31.3-1.7-3.1-.3-6.5 2.7-8.2 3.1-1.8 6.5-1 8.6 2.4 5.4 8.7 10.6 17.5 15.9 26.2.6 1.1 1.3 2.1 1.8 3.2.5 1 .8 2.2 1 2.9z"/><path d="m149.3 160.6c-.3 3.3-1.6 5.6-4.6 6.5-3.2.9-5.8-.1-7.6-3-3.6-6-7.2-12.1-10.8-18.1-2.3-3.8-4.7-7.5-6.8-11.4-2.1-3.8-1-7 2.6-9.1 3.9-2.3 7.2-1.6 9.4 2.3 5.6 9.8 11.1 19.8 16.5 29.7.7 1.1 1 2.3 1.3 3.1z"/><path d="m242.4 131.3c-.1 1.5-.7 2.9-1.4 4.1-5.7 9.5-11.4 19-17.1 28.5-2.1 3.5-5.7 4.4-8.9 2.6-3.1-1.7-4.2-5.3-2.4-8.6 5.5-10.2 11.2-20.3 16.9-30.4 1.6-2.9 4.3-4.1 7.5-3 3.1 1.2 5.3 3.2 5.4 6.8z"/><path d="m186.7 314c0 3.7.2 7.4-.1 11.1-.3 3.5-2.8 5.7-6 5.8-3.4.1-6.1-2.1-6.4-5.8-.6-7.4-.4-14.8 0-22.1.2-3.4 3-5.5 6.3-5.5 3.4 0 5.9 2.1 6.2 5.6s0 7.2 0 10.9z"/><path d="m186.8 139.3c0 3.3.2 6.7 0 10-.3 3.9-2.9 6.2-6.5 6.1-3.4-.1-6.1-2.4-6.2-6.1-.2-7-.2-14 .1-21 .2-4.1 2.7-6.4 6.3-6.4 3.5 0 5.8 2.2 6.3 6.3.2 1.8.2 3.7.3 5.5v5.5c-.2.1-.2.1-.3.1z"/><path d="m119.8 187.7c-.1 4.6-4.6 7.8-8.9 5.7-6.6-3.2-13.1-6.8-19.1-11.1-3-2.1-3.5-5.6-1.7-8.5 1.7-2.7 4.7-3.7 8.1-2.2 6.6 3 12.7 7 18.9 10.8 1.9 1.2 2.7 3.1 2.7 5.3z"/><path d="m271.8 177.4c-.1 2-1 3.8-2.8 5.1-6 4.1-12.4 7.6-18.8 10.9-3.2 1.7-6.7.3-8.3-2.6-1.5-2.8-1-6.5 1.8-8.2 6.2-3.9 12.4-8 19.2-11 4.4-1.9 8.8 1 8.9 5.8z"/><path d="m95.4 281.8c-2.8-.3-4.8-1.5-5.8-4.1-1-2.7-.5-5.3 1.8-7 6.3-4.6 13.1-8.3 20.1-11.7 2.9-1.4 5.6-.2 7.4 2.5 1.7 2.7 1.8 5.9-.7 7.7-6.6 4.9-13.8 9-21.4 12.3-.5.3-1.1.3-1.4.3z"/><path d="m247.7 258.6c.7.2 1.8.3 2.7.9 5.9 3.3 11.8 6.6 17.6 10.2 3.9 2.4 4.7 5.9 2.8 9.1s-5.2 4-9.3 1.8c-6-3.2-11.8-6.7-17.6-10.1-2.8-1.7-3.4-4.5-2.5-7.4s3-4.3 6.3-4.5z"/></g><path d="m350.3 293c12.7-7 24.5-5.4 36.2.7 1.3.7 2.8 1.4 3.6 2.5 4.9 7.1 10.6 13.6 14 21.7 2.5 6 2.3 12 1.9 18.2-.6 9.9-.6 7.5 7.6 7.3 3.1-.1 6.2-.3 9.2-.2 17.2.3 25.8 19.7 24.1 31.1-1.3 8.4-9.8 16.8-19.8 18.4-5.7.9-11.4 1.3-17.2 1.3-70.4-.1-140.8-.2-211.2 0-20.7 0-40.6-3.5-59.7-11.2-10.7-4.3-18.8-11.8-24.2-22-5.3-10.1-10.2-20.4-9.4-32.3 1-13.3 6.1-25.1 14.4-35.4 4.4-5.6 8-12.2 14.1-16.1 8.3-5.3 17.5-7.9 27.4-5 .6.2 1.2.4 1.7.6 2.7.9 4.1.4 4.4-3 1-11.6 6.6-21.1 14.2-29.5 9.9-10.9 21.4-19.9 34.1-27.4 13.8-8.2 28.9-12.2 44.7-12.3 10-.1 20.4.1 29.7 4.7 16.3 8.1 32 17.3 43.4 32 8.5 11 14.5 23.1 15.9 37.3.7 6 1.4 12 .9 18.6z" fill="#c6e0f7"/><path d="m408.3 156c3.1-.7 6-1.9 9.1-1.2 7.5 1.8 13.8 9.7 13.8 17.4 0 5.3 0 5.3 5 5.3 6.6 0 9.6 2.3 11.4 8.7 1.4 5-.9 9.5-5.7 11.1-2.1.7-4.3 1.2-6.5 1.2-32.7 0-65.5-.2-98.2 0-5.4 0-10.8 1.3-15.9-1-4.9-2.2-8.5-5.5-11.1-10.6-3-5.6-4.5-11.4-3.3-17.3 1.8-9.2 6.2-17.1 15.2-21.3 2.2-1 4.7-1.4 7.2-.5 1.4.5 2.6.5 3-1.4 1.7-9.1 8.3-14.7 15.1-19.8 9.5-7.2 20.5-10.6 32-7.3 13.2 3.8 23.5 11.7 27.7 25.7.8 3.4 1 7.1 1.2 11z" fill="#c6e0f7"/><path d="m186.4 265c-.6 1.1-1.1 2.2-1.6 3.4-.7 1.8-.1 3.2 1.6 4s3.1.2 4.1-1.4c.4-.7.7-1.6 1.1-2.3 11.8-21.1 29-35.5 52.5-41.5 17.7-4.5 34.6-1.2 49.7 9.3 1.9 1.3 3.9 2 5.4-.4 1.4-2.2 0-3.6-1.8-4.9-11.6-7.9-24.4-12.4-38.7-12.3-32.6 1.9-56 18.4-72.3 46.1z"/><path d="m142.2 265c1.4 1.8 3.1 2.7 5.1 1.1 1.8-1.5 1.3-3.2 0-4.9-2.1-2.6-4-5.4-5.6-8.3-12-21.9-8.2-48.2 9.2-63.9 2.7-2.4 5.7-4.4 8.8-6.2 1.8-1 2.4-2.6 1.4-4.4s-2.7-2-4.5-1c-.7.3-1.3.7-1.9 1.1-17.6 10.9-25.5 27.2-26.3 46.8.3 15.2 4.8 28.2 13.8 39.7z"/><path d="m134.2 359.6c1.8-1.1 1.9-2.7.9-4.5-.4-.6-.8-1.2-1.2-1.9-8-15-8.1-29.7 1.6-44.1 3.5-5.2 8.2-8.5 14.5-9.2 1.6-.2 3.2-.4 4.8-.8 1.8-.4 2.7-1.7 2.4-3.6-.3-1.7-1.5-2.7-3.2-2.5-7.6.7-15 2.1-20.4 8.3-7.6 8.7-11.7 18.8-11.9 28.1 0 8.5 1.4 14.5 3.6 20.4 1.2 3 2.5 5.9 4.4 8.6 1.2 1.6 2.7 2.3 4.5 1.2z"/><path d="m342.6 156.1c2.1.4 3.3-.8 3.7-2.7.9-3.8 2.3-7.3 4.6-10.4 4.7-6.6 10.8-11.1 19.2-12 7.7-.8 13.8 1.6 18.4 8 1.1 1.5 2.7 1.8 4.3.7 1.7-1.2 1.8-2.9.6-4.5-3-4.1-6.6-7.3-11.4-9.1-17.1-6.2-39.9 8.1-41.8 26.3 0 .1 0 .2-.1.5-.1 1.5.6 2.9 2.5 3.2z"/><path d="m323.2 158.9c-2.2-1.4-3.7-.1-4.9 1.7-2.6 3.8-3.6 8-3.6 13 .2 4 .9 8.2 3.5 11.8 1.3 1.8 3 2.8 5 1.3 1.9-1.4 1.4-3.1.3-4.9-3.6-5.9-3.4-11.9.1-17.7 1.2-2 1.7-3.8-.4-5.2z"/><path d="m309.6 248c-1.2.9-1.8 2.3-.9 3.6 2.9 4.5 6 9 9.1 13.4.8 1.1 2.1 1.3 3.4.8s1.9-1.5 2-2.9c0-.3 0-.7-.2-1-2.8-4.9-5.9-9.7-9.6-13.9-1.1-1.1-2.6-1-3.8 0z"/><path d="m180 179.2c2.2-.3 4.4-.4 6-.5 1.6.2 2.6.2 3.6.3 2.1.3 3.8-.4 4.1-2.7s-1.3-3.3-3.3-3.6c-3.8-.6-7.6-.4-11.4.2-2.1.4-3.5 1.4-3.2 3.7.4 2.4 2.1 2.8 4.2 2.6z"/><path d="m417.8 174.2c.5 1.8 2 2.4 3.8 1.9 1.7-.5 2.3-1.8 2.2-3.8-.8-4.1-2.9-7.7-6.7-10.2-1.6-1-3.1-.8-4.2.7-1 1.4-1 2.9.3 4 2.3 2 3.8 4.4 4.6 7.4z"/><path d="m206.4 187.4c1.9-.2 2.9-1.3 2.9-3.2s-4.2-5.3-6.6-5.3c-1.6.2-2.7 1.1-2.8 3-.2 2 4.3 5.7 6.5 5.5z"/><path d="m397.1 157.3c2 .1 3-1.4 3-3.6-.6-2.2 0-5.5-3.8-5.6-2-.1-3.2 1.4-2.9 3.5.3 2.4-.1 5.6 3.7 5.7z"/></svg>