<svg id="Capa_1" enable-background="new 0 0 512 512" height="512" viewBox="0 0 512 512" width="512" xmlns="http://www.w3.org/2000/svg"><path d="m195 241c8.27 0 15 6.73 15 15s-6.73 15-15 15-15-6.73-15-15 6.73-15 15-15z"/><path d="m210 182.5v31.08c-4.69-1.67-9.74-2.58-15-2.58-24.81 0-45 20.19-45 45s20.19 45 45 45c5.26 0 10.31-.91 15-2.58v31.08c-4.91 1-9.93 1.5-15 1.5-41.35 0-75-33.65-75-75s33.65-75 75-75c5.07 0 10.09.5 15 1.5z"/><path d="m90 256c0 57.9 47.1 105 105 105 5.05 0 10.06-.35 15-1.07v91.07h-45c-8.28 0-15-6.72-15-15v-21.24c-12.27-3.49-24.1-8.43-35.37-14.76l-15.09 15.1c-5.86 5.86-15.35 5.86-21.21 0l-42.43-42.43c-5.862-5.862-5.839-15.371 0-21.21l15.1-15.1c-6.34-11.26-11.27-23.09-14.76-35.36h-21.24c-8.28 0-15-6.72-15-15v-60c0-8.28 6.72-15 15-15h21.24c3.49-12.27 8.42-24.1 14.76-35.37l-15.1-15.09c-5.839-5.839-5.862-15.348 0-21.21l42.43-42.43c5.86-5.86 15.35-5.86 21.21 0l15.1 15.1c11.26-6.34 23.09-11.27 35.36-14.76v-21.24c0-8.28 6.72-15 15-15h45v91.07c-4.94-.72-9.95-1.07-15-1.07-57.9 0-105 47.1-105 105z"/><path d="m422 69.78v81.22h81.22zm-137 81.22h62c8.28 0 15 6.72 15 15s-6.72 15-15 15h-62c-8.28 0-15-6.72-15-15s6.72-15 15-15zm152 210h-152c-8.28 0-15-6.72-15-15s6.72-15 15-15h152c8.28 0 15 6.72 15 15s-6.72 15-15 15zm0-60h-152c-8.28 0-15-6.72-15-15s6.72-15 15-15h152c8.28 0 15 6.72 15 15s-6.72 15-15 15zm0-60h-152c-8.28 0-15-6.72-15-15s6.72-15 15-15h152c8.28 0 15 6.72 15 15s-6.72 15-15 15zm-30-60c-8.28 0-15-6.72-15-15v-105h-152v390h257c8.28 0 15-6.72 15-15v-255z"/></svg>