<?xml version="1.0" encoding="UTF-8"?>
<!-- Generator: Adobe Illustrator 25.4.1, SVG Export Plug-In . SVG Version: 6.00 Build 0)  -->
<svg xmlns="http://www.w3.org/2000/svg" xmlns:xlink="http://www.w3.org/1999/xlink" version="1.1" id="Capa_1" x="0px" y="0px" viewBox="0 0 512 512" style="enable-background:new 0 0 512 512;" xml:space="preserve" width="512" height="512">
<g>
	<g>
		<path d="M103.562,0.322c4.181,0,8.362,0,12.542,0c12.484,2.826,24.863,5.857,34.117,15.916c0.507,0.532,2.798-0.023,3.828-0.715    c20.653-17.145,56.708-21.924,76.525-1.435c1.733,2.132,1.132,4.249-1.683,5.818c-22.189,12.366-32.549,33.206-33.263,56.75    c-1.29,58.389-1.944,117.076-0.789,175.403c40.973,0,81.71,0,122.621,0c0.361-57.823,0.394-115.677-0.912-173.48    c-0.64-24.382-10.691-45.772-33.44-58.67C272.223,6.9,315.35-1.814,324.501,0.322c12.484,2.823,24.863,5.858,34.117,15.916    c0.507,0.532,2.798-0.023,3.828-0.714c19.862-16.63,63.861-24.651,77.831,2.165c-22.692,12.754-36.234,36.77-36.869,62.906    c-0.209,82.371-0.679,164.62-0.827,247.006c-16.757-1.012-30.394,3.679-39.781,14.991c-14.386-9.73-27.831-14.773-45.074-16.996    c0-10.284,0-20.827,0-31.439c-41.414,0-82.296,0-123.704,0c0,10.99,0,21.547,0,32.275c-16.633,1.299-32.04,4.524-43.833,17.394    c-10.408-12.758-24.318-17.174-40.888-16.324c-0.12-82.038,0.078-163.504-0.953-245.456c0.006-27.637-11.702-49.965-36.622-64.357    C74.512,3.96,92.508,3.566,103.562,0.322z"/>
		<path d="M71.724,494.298c47.638-19.307,36.318-84.689,22.995-123.612c-1.136-9.533-19.944-19.898-9.914-28.448    c22.019-12.967,53.226-6.387,65.366,16.421c15.356-21.543,46.961-31.792,68.592-14.311c1.021,1.708,1.553,5.36,0.526,6.396    c-24.289,31.067-28.86,76.135-17.243,113.148c5.435,25.155,35.579,27.767,28.048,34.824    c-20.927,19.615-58.023,15.804-77.957-3.696C131.551,512.803,86.735,521.979,71.724,494.298z"/>
		<path d="M311.958,511.664c-6.507-0.507-40.523-10.482-28.484-19.168c14.731-5.493,22.711-16.814,27.371-31.343    c10.385-36.618,5.251-77.682-16.75-108.41c-3.258-4.311-3.283-7.175,1.039-10.506c22.016-12.962,53.225-6.388,65.363,16.422    c15.097-20.399,39.346-28.839,62.973-18.588c4.25,1.072,8.346,6.847,6.143,10.674c-27.572,34.475-40.576,124.674,10.663,143.553    c-13.583,26.382-61.588,20.562-79.622,0.299C347.19,505.983,329.427,512.315,311.958,511.664z"/>
	</g>
	<g>
		<g>
			<path style="fill:#FFFFFF;" d="M149.487,388.547c48.906-38.562,16.809,34.981,8.226,54.561c-1.645,4.131-4.196,4.719-6.21,1.53     c-11.022-18.217-24.852-38.271-22.187-60.677c4.395-16.002,18.107-2.424,22.415,6.275     C150.983,389.672,150.235,389.11,149.487,388.547z"/>
			<g>
				<path style="fill:#FFFFFF;" d="M139.136,326.345c54.209-74.509-62.195-187.622,21.145-272.359      c0.438,0.392,0.876,0.784,1.313,1.176C91.84,140.614,210.606,269.66,139.136,326.345z"/>
				<g>
					<path style="fill:#FFFFFF;" d="M141.56,263.733c0.436,10.476-17.158,11.734-17.033,0.661       C124.235,253.278,141.709,251.755,141.56,263.733z"/>
					<path style="fill:#FFFFFF;" d="M159.332,133.737c10.455-0.475,10.815,16.811,0.44,16.978       C149.339,151.191,148.968,133.904,159.332,133.737z"/>
				</g>
			</g>
		</g>
		<g>
			<path style="fill:#FFFFFF;" d="M360.558,390.743c4.04-12.292,21.27-22.675,22.558-3.619c3.294,6.628-23.172,74.463-28.979,55.676     c-6.146-19.173-18.951-37.618-18.388-58.177C338.887,368.597,356.297,382.369,360.558,390.743z"/>
			<g>
				<path style="fill:#FFFFFF;" d="M372.828,326.308c-50.942-40.469-6.273-122.856-0.985-175.878      c7.324-35.405-3.547-66.535-21.218-96.781c85.512,79.343-33.296,208.588,23.2,271.39      C373.492,325.462,373.16,325.885,372.828,326.308z"/>
				<g>
					<path style="fill:#FFFFFF;" d="M387.472,264.453c0.051,11.065-17.545,9.695-17.03-0.78       C370.371,251.704,387.841,253.339,387.472,264.453z"/>
					<path style="fill:#FFFFFF;" d="M352.414,150.714c-10.381,0.083-10.379-17.214,0.072-16.978       C362.864,133.652,362.84,150.951,352.414,150.714z"/>
				</g>
			</g>
		</g>
	</g>
</g>















</svg>
