<?xml version="1.0" encoding="UTF-8"?>
<!-- Generator: Adobe Illustrator 25.4.1, SVG Export Plug-In . SVG Version: 6.00 Build 0)  -->
<svg xmlns="http://www.w3.org/2000/svg" xmlns:xlink="http://www.w3.org/1999/xlink" version="1.1" id="Capa_1" x="0px" y="0px" viewBox="0 0 512 512" style="enable-background:new 0 0 512 512;" xml:space="preserve" width="512" height="512">
<g>
	<g>
		<path d="M336.123,17.458c-25.106,14.529-36.476,36.999-36.687,64.858c-1.304,81.338-0.673,162.658-1.138,244.02    c-16.509,1.362-32.116,4.462-43.884,17.436c-10.5-12.553-24.112-17.319-40.823-16.177c-0.104-78.77-0.365-157.37-0.601-236.12    c2.062-28.905-11.198-59.598-37.114-74.017c5.082-16.723,29.717-16.954,44.406-17.376c12.491,2.825,24.877,5.861,34.137,15.925    c0.507,0.532,2.8-0.023,3.83-0.715C278.122-1.348,322.146-9.374,336.123,17.458z"/>
		<path d="M175.877,494.337c47.663-19.318,36.339-84.732,23.01-123.676c-1.136-9.538-19.948-19.911-9.926-28.465    c22.815-12.825,51.591-6.975,65.458,16.379c15.279-21.489,46.954-31.747,68.572-14.282c1.025,1.709,1.566,5.365,0.541,6.399    c-28.97,38.347-39.665,120.54,12.591,143.646c-13.835,26.758-60.923,19.899-79.789,0.723    C235.794,512.824,190.899,522.054,175.877,494.337z"/>
	</g>
	<g>
		<path style="fill:#FFFFFF;" d="M252.594,384.887c4.164-3.017,8.247-6.154,12.509-9.025c7.526-5.067,14.281-1.882,14.737,7.197    c0.197,3.921-0.221,8.165-1.564,11.82c-5.482,14.92-11.343,29.703-17.259,44.459c-1.753,4.372-4.276,4.866-6.489,1.346    c-9.417-14.978-18.768-30.071-21.883-47.877c-0.757-4.326-0.703-9.039,0.151-13.341c1.261-6.349,7.625-8.811,12.601-4.725    c3.811,3.13,6.484,7.645,9.664,11.544C254.239,385.82,253.416,385.353,252.594,384.887z"/>
		<g>
			<path style="fill:#FFFFFF;" d="M271.114,45.283c-0.781,1.309-1.483,2.672-2.353,3.918     c-19.177,27.452-23.683,58.005-19.609,90.545c3.409,27.235,11.949,53.248,18.269,79.793c5.778,24.269,7.044,48.634-0.44,72.858     c-2.44,7.898-5.795,15.379-12.363,20.821c-1.694,1.403-3.9,2.189-5.871,3.258c-0.27-0.378-0.539-0.755-0.809-1.133     c1.928-2.182,4.05-4.224,5.748-6.572c6.453-8.92,8.233-19.368,9.289-29.961c2.505-25.121-2.6-49.241-9.971-73.023     c-8.119-26.197-14.238-52.718-14.103-80.372c0.139-28.537,7.805-54.513,25.823-77.016c1.372-1.713,3.379-2.919,5.091-4.36     C270.248,44.454,270.681,44.869,271.114,45.283z"/>
			<g>
				<path style="fill:#FFFFFF;" d="M242.772,245.249c4.549-0.087,8.077,3.463,8.225,8.277c0.152,4.931-3.663,8.793-8.796,8.906      c-4.565,0.101-8.072-3.149-8.244-7.641C233.764,249.738,237.824,245.343,242.772,245.249z"/>
				<path style="fill:#FFFFFF;" d="M277.049,132.202c0.013,4.68-3.568,8.511-7.995,8.554c-4.437,0.043-8.059-3.741-8.075-8.437      c-0.017-4.669,3.573-8.511,7.988-8.549C273.42,123.733,277.037,127.506,277.049,132.202z"/>
			</g>
		</g>
	</g>
</g>















</svg>
