<svg id="Layer_1" enable-background="new 0 0 512 512" viewBox="0 0 512 512" xmlns="http://www.w3.org/2000/svg"><path d="m260.1 308.9c-9.4-1.4-20.8 2-32.4 2.4-14.9.5-29.8.1-44.6-.3-12.1-.3-24.2-.4-36.2-1.7-14-1.6-27.3-5.6-40-11.8-7.6-3.7-15.5-7.1-21.4-13.5-9.3-10-17.5-20.4-20.3-34-4.6-21.7 4.8-43 24.2-56.2 12.1-8.2 25.4-13.1 39.9-14.9 3.2-.4 4.6-1.6 5.4-4.9 4.2-17.5 11.4-33.7 23.8-47.2 10.3-11.2 23.1-17.7 38.1-20.2 16.4-2.7 32.2-1.3 47 6.3 10.6 5.5 19.7 13.2 28.2 21.4 8.2 7.9 13.7 17.6 19.3 27.3 3.1 5.3 5.8 10.9 8.5 16.4.9 1.9 2.1 2.5 4.2 2.4 12.4-.3 24.6.7 36.4 5 9.4 3.4 16.8 9.2 22.4 17.5 10 14.7 11.4 30.5 6.5 47.3-8.2 28.2-27 44.9-55 52.1-11.8 3-23.9 4.9-35.9 6.4-5.2.7-10.5.2-18.1.2z" fill="#c6e0f7"/><path d="m243.9 282.7c13.2 0 25.9-.1 38.7 0 9.4.1 18.7 1.6 28 2.8 3.6.5 4.4 2.6 2.7 6.8-2.5 6-5.6 11.7-9.2 17.1-8.3 12.4-16.3 25.1-24.1 37.9-6.8 11.1-14.7 21.7-21.6 32.8s-14.5 21.7-21.9 32.6c-.6.9-1.4 1.7-2.6 3.2-.1-6.9.2-13 1-19 3-21.7 6.6-43.3 11.4-64.7.8-3.5 1-7.1 1.8-10.6.6-2.5-.2-2.5-2.3-2.3-13.9 1.8-27.8 3.4-41.6 5.1-8.7 1.1-17.3 2-26 3.2-2.4.3-3.1-.3-2.1-2.6 5-12.9 9.7-25.9 15.7-38.5 6-12.5 11.1-25.4 16.9-38 8-17.7 14.8-36 22.1-54 1.6-3.9 3.5-5 8.9-4.5 7.5.7 14.7-.3 21.9-2.2 2.4-.6 4.8-1.1 7.3-1.2 11.6-.4 23.2-.7 34.8-1 1.7-.1 2.2.6 2.1 2.1-.2 1.8-.8 3.4-1.8 5-6.1 9.1-13.1 17.6-19.3 26.6-10.3 15.2-21.3 29.9-30.8 45.6-3.8 5.5-6.6 11.4-10 17.8z" fill="#fab03c"/><path d="m368.8 171.6c10.9-5.8 20.8-4.3 30.6 1.1 1.2.7 2.2 1.5 3 2.7 1.8 2.7 3.7 5.4 5.6 8 5.3 7.1 7.6 15 6.4 23.9-.8 6.1-.5 6.2 5.6 5.5 3-.3 6-.3 9-.1 13.1 1 19 14.8 18.9 23.5-.1 6.9-7.2 15-16 16.7-7.2 1.4-14.4 1-21.7 1-61 0-122 .1-183.1-.1-4.5 0-8.6 2.4-13.2 1.6-7.1-1.3-14.9-1.4-20.8-5.6-6.3-4.5-14.1-8.4-15.9-17.3-.2-1-.7-1.9-1.2-2.7-8.2-12.8-9-26.4-4.7-40.6 3.5-11.7 11-21 19.5-29.3 6.4-6.2 15-7.6 23.8-5.4 4.5 1.1 4.4 1.3 5.1-3.3 1.3-8.7 5.6-16 11.4-22.4 7.6-8.4 16.4-15.4 26-21.4 11.3-7.1 23.6-10.8 36.7-11.1 11.3-.3 22.3 1 32.6 7.2 10.1 6 19.9 12.1 27.5 21.1 7.7 9.3 13 19.6 14.3 31.9.5 4.8 1 9.7.6 15.1z" fill="#3981bf"/><path d="m257.4 348.2c6.2-13.9 12.4-27.8 18.5-41.7 2.3-5.3 1.2-7.1-4.5-6.9-15.8.7-31.4 2.7-47.1 4.4-7.9.9-15.7 1.7-23.6 2.6-.3-1.7.6-2.7 1.1-3.8 5.8-12.5 11.6-25 17.4-37.4.4-.9.9-1.8 1.2-2.8.6-1.6.1-2.9-1.4-3.6-1.6-.7-2.8-.1-3.7 1.3-.4.7-.7 1.4-1 2.1-6.9 14.7-13.7 29.4-20.6 44.1-.8 1.7-1.5 3.3-.2 5 1.2 1.6 2.9 1.3 4.6 1.1 22.9-2.4 45.8-5.5 68.8-7.2 2.8-.2 3.3.3 2.1 2.9-5.7 12.4-11.2 24.9-16.7 37.4-.9 2-1.5 4 1.1 5.1 2.2 1 3.2-.8 4-2.6z"/><path d="m105.3 276.5c1.9.7 3.7.9 4.6-1.2s-.4-3.3-2.3-4.1c-3.5-1.4-6.6-3.2-9.6-5.4-14.7-10.8-18.5-30.8-8.8-46.1 5.1-8 12-13.9 20.7-17.5 5.6-2.3 11.3-4.4 17.3-5.1 2-.3 3.2-1.2 2.9-3.3-.3-1.9-1.7-2.5-3.5-2.4-.6 0-1.1.1-1.7.2-9.3 1.9-18.3 4.7-26.1 10.1-12.4 8.6-20.3 20.1-20.8 32.8.1 20.7 10.7 35.9 27.3 42z"/><path d="m313.2 116.7c.7-2.3-1-3.2-2.8-3.8-5.7-1.9-11.5-2.7-17.5-2.8-3.3.3-6.7.4-10 .9-24.5 3.9-39 19.7-48.8 41.1-.8 1.7-.7 3.4 1.2 4.3 2.1.9 3.3-.3 4.1-2.2 2.3-5.4 5.3-10.3 8.8-15.1 14.2-19.7 37.2-27.6 60.5-20.8 2 .6 3.8.8 4.5-1.6z"/><path d="m200.9 232.7c1.9-2 .4-3.6-1.2-5-5.6-5.2-9.3-11.4-10.7-18.9-2.4-12.3 2.5-21.8 13.9-26.9.4-.2.8-.3 1.2-.6 1.1-.8 1.6-1.9 1.1-3.2s-1.5-1.9-3.1-1.9c-.6.2-1.3.4-2 .7-9.3 3.7-14.9 10.6-16.7 20.3-2.5 13.8 2.5 25.2 12.4 34.8 1.4 1.3 3.1 2.8 5.1.7z"/><path d="m170.7 131c-1.4 1.2-2.7 2.4-4 3.6-12.5 12.2-19.9 26.8-21.6 44.3-.1 2 .4 3.7 2.7 3.8s2.9-1.6 3.1-3.6c1.2-12.6 5.8-23.8 13.7-33.7 2.9-3.7 6.2-7 9.8-10.1 1.5-1.3 1.9-2.8.5-4.4-1.3-1.4-2.8-1.1-4.2.1z"/><path d="m387.9 184.4c-1.9-.9-3.8-1.3-4.8 1-.9 2.1.4 3.3 2.3 4.1 7 3.2 11 8.9 13.1 16.1 1 3.4 1.4 6.8 1.3 10.3 0 2 .8 3.4 2.8 3.4 2.1 0 2.8-1.5 2.9-3.4 0-.7 0-1.3 0-2s-.1-1.3-.1-2c-1.3-12.1-6-21.9-17.5-27.5z"/><path d="m326.6 129.2c7.7 3.8 13.5 9.4 16.7 17.5.7 1.7 2 2.9 3.9 2.1 2.1-.9 2.1-2.6 1.3-4.5-3.9-9.2-10.4-15.7-19.2-20.1-.6-.3-1.2-.5-1.7-.7-1.6 0-2.6.7-3 2-.6 1.8.4 3 2 3.7z"/><path d="m247.5 361c-2.1 4.8-4.2 9.6-6.2 14.4-.8 2.1.5 4 2.8 4 1-.1 1.9-.6 2.4-1.8 2.1-4.8 4.2-9.6 6.2-14.4.7-1.7.2-3.1-1.6-3.8-1.6-.5-3 .1-3.6 1.6z"/><path d="m204.9 126.5c1.2.1 1.7.2 2.3.2 2 .3 3.8 0 4.1-2.2.4-2.5-1.4-3.2-3.5-3.5-2.7-.3-5.3-.4-8 .1-1.8.3-2.9 1.3-2.6 3.2.2 1.9 1.5 2.6 3.3 2.5 1.7-.1 3.4-.2 4.4-.3z"/><path d="m184.5 130.6c1.9-.6 3.8-1.4 5.6-2.2 1-.5 1.4-1.4 1.4-2.6-.2-1.6-1.1-2.7-2.8-2.6-2.5.2-4.8 1.2-6.7 2.8-.9.8-1.1 2-.5 3.1.6 1.2 1.7 1.9 3 1.5z"/><path d="m351.6 165.3c2.1 0 2.9-1.4 2.9-3.1-.2-2.1-.7-3.8-3-3.8-2.1 0-2.9 1.3-2.8 3.3 0 1.9.6 3.6 2.9 3.6z"/></svg>