<svg id="Layer_1" viewBox="0 0 64 64" xmlns="http://www.w3.org/2000/svg" data-name="Layer 1"><path d="m29.79 44.546c-.162-.55-.42-.756-1.143-1.271-.729-.52-1.729-1.231-2.827-2.747-.903-1.249-1.371-2.339-1.713-3.135-.016-.035-.03-.071-.047-.107-.16.394-.344.904-.525 1.405-.217.601-.471 1.303-.782 2.108-1.673 4.283-2.5 6.401-4.184 7.613-1.549 1.117-2.954 1.08-4.187 1.051-.907-.022-1.688-.042-2.495.396-1.311.708-2.204 2.385-2.666 4.99h20.192c-.911-1.273-1.398-2.573-1.43-3.886-.04-1.655.627-2.89 1.162-3.883.575-1.065.889-1.708.645-2.535z"/><path d="m18.306 23.399c.122-1.052.501-1.734.777-2.232.284-.511.297-.583.242-.759-.224-.72-1.498-1.373-2.611-1.327-.085.003-.349.012-2.229.889-1.244.58-2.527 1.178-2.873 1.482.035.133.243.405.429.649.471.617 1.115 1.462 1.367 2.799.239 1.267-.048 2.08-.301 2.797-.203.579-.38 1.078-.337 1.92.082 1.65.929 3.121 1.509 3.713.02-.086.038-.173.055-.25.208-.975.522-2.447 1.844-3.531.972-.798 1.942-.938 2.651-1.041.466-.067.668-.108.714-.188.089-.155-.146-.634-.374-1.098-.446-.907-1.058-2.148-.863-3.823z"/><path d="m40.859 24.463c-.037 1.104-.083 2.477-1.25 3.629-.99.971-2.134 1.147-3.052 1.29-.964.149-1.533.262-2.052.857-.599.688-.795 1.629-.772 2.125.166-.084.363-.198.525-.292.952-.549 2.253-1.296 3.883-1.021 1.491.259 2.247 1.213 2.913 2.055.434.548.844 1.066 1.449 1.383 1.093.575 2.691.397 4.748-.51v-13.545c-3.175.033-5.234.68-5.965 1.908-.378.624-.401 1.317-.428 2.121z"/><path d="m59.999 49.908v-.002c-.005-2.725-2.415-4.941-5.378-4.941s-5.363 2.22-5.363 4.95c0 .552-.447 1-1 1-.279 0-.53-.115-.711-.298-.182-.181-.295-.432-.295-.709v-13.768c-1.202.454-2.289.688-3.263.688-.893 0-1.694-.19-2.414-.569-.98-.512-1.569-1.256-2.089-1.913-.605-.764-.981-1.203-1.685-1.325-.917-.159-1.78.342-2.544.782-.817.471-1.835 1.057-2.752.356-.428-.331-.688-.861-.754-1.539-.12-1.217.381-2.703 1.246-3.697 1.023-1.175 2.26-1.366 3.253-1.52.797-.124 1.427-.221 1.955-.739.57-.562.618-1.197.654-2.27.031-.947.067-2.021.712-3.084 1.131-1.901 3.663-2.842 7.68-2.875v-4.349c0-.014.007-.025.008-.039 0-.054.007-.106.009-.16h-43.268v40.96h3.204c.555-3.429 1.802-5.707 3.732-6.749 1.274-.692 2.451-.662 3.495-.637 1.095.027 1.966.049 2.969-.674 1.205-.868 1.96-2.801 3.465-6.654.328-.848.577-1.536.789-2.124.763-2.111 1.183-3.274 2.405-3.291h.023c1.053 0 1.464.958 1.862 1.883.305.71.722 1.683 1.495 2.751.905 1.25 1.682 1.803 2.367 2.291.79.563 1.536 1.095 1.901 2.335.488 1.656-.198 2.927-.804 4.049-.488.905-.949 1.761-.922 2.884.031 1.275.724 2.597 2.045 3.935h22.592s0 0 0 0c2.966 0 5.379-2.214 5.379-4.935 0-.002 0-.003 0-.004v-.002zm-38.72-20.595c-.538.939-1.478 1.075-2.164 1.174-.58.084-1.128.163-1.669.607-.78.64-.98 1.576-1.156 2.403-.179.833-.399 1.869-1.459 2.062-.081.015-.173.024-.274.024-.348 0-.808-.114-1.332-.53-1.131-.896-2.336-3.017-2.452-5.338-.062-1.235.222-2.039.449-2.685.217-.617.36-1.024.222-1.762-.165-.872-.586-1.423-.992-1.957-.488-.64-1.095-1.436-.745-2.526.302-.938 1.365-1.433 3.934-2.63 2.093-.976 2.549-1.059 3.007-1.075 1.818-.05 4.034.945 4.589 2.732.318 1.023-.082 1.744-.404 2.324-.237.429-.463.833-.539 1.492-.126 1.089.279 1.913.671 2.709.438.889.934 1.896.316 2.974z"/><path d="m49.367 13.1c-.073.319-.109.647-.109.985 0 .01-.006.019-.006.029v31.06c1.344-1.356 3.251-2.209 5.369-2.209s4.031.852 5.378 2.207v-31.084s0-.003 0-.004c0-2.72-2.413-4.934-5.379-4.934-2.544 0-4.754 1.661-5.254 3.949z"/></svg>