<svg id="Layer_1" enable-background="new 0 0 512 512" viewBox="0 0 512 512" xmlns="http://www.w3.org/2000/svg"><g fill="#fab03c"><path d="m165.4 144c36.4-1.2 57.3 31.8 57 56.6-.4 32-25.4 56.4-58.1 56.4-37 0-56-33.2-55.9-56.7.1-24.6 20.5-57.3 57-56.3z"/><path d="m118 289.3c-4.7 0-8-4.5-5.8-8.6 5.1-9 10.5-17.9 16-26.6 1.6-2.6 4.3-3.2 7.1-1.5 2.7 1.6 3.8 4.2 2.4 6.9-4.9 9.3-10.1 18.4-15.2 27.5-1 1.5-2.6 2.3-4.5 2.3z"/><path d="m198.4 149.1c-4.2 0-7-4.1-5-7.9 4.8-9.2 9.9-18.2 15.1-27.1 1.7-2.9 4.5-3.2 7.4-1.7 3 1.6 4.4 4 3 7.3-.9 2.1-2.1 4-3.3 6-4 6.7-8.1 13.3-12.1 20-1.2 2-2.7 3.5-5.1 3.4z"/><path d="m198.4 251.7c2 .1 3.6 1.2 4.8 3 5 8.4 10.2 16.7 15.1 25.2 2.1 3.6 1.1 6.7-2.2 8.5s-6.2 1.1-8.4-2.7c-4.8-8.4-9.5-16.8-14.1-25.3-2.2-4.2.3-8.7 4.8-8.7z"/><path d="m138.2 143.3c-.1 2.8-1.3 4.7-3.7 5.5-2.4.9-4.8.5-6.1-1.7-5.5-8.9-11-17.9-16.2-27-1.7-3-.5-5.8 2.5-7.5s6-1.6 7.8 1.5c5.2 8.9 10.1 18 15.1 27.1.4.7.4 1.5.6 2.1z"/><path d="m84.8 194.9c4.8 0 9.7-.1 14.5 0 3.8.1 6.1 2.3 6 5.6-.1 3.6-2.3 5.4-5.7 5.5-9.9.2-19.9.4-29.8.4-3.8 0-5.7-2.2-5.8-5.8-.1-3.8 1.9-6 5.9-6.1 5-.2 9.9 0 14.9 0z"/><path d="m246 194.4c4.8 0 9.7-.1 14.5 0 4.4.1 6.3 2.1 6.3 6.1 0 3.9-1.9 5.9-6.1 5.9-9.8 0-19.6-.2-29.4-.4-3.4-.1-5.6-1.9-5.8-5.4-.2-3.2 2.3-5.5 6-5.6 4.8-.1 9.7 0 14.5 0 0-.3 0-.4 0-.6z"/><path d="m112.6 166.8c0 4-3.9 6.8-7.6 5-5.8-2.8-11.4-6-16.7-9.7-2.5-1.8-3.2-4.4-1.6-7.1 1.5-2.7 4.1-3.5 6.9-2.3 5.9 2.6 11.3 6.1 16.8 9.5 1.6 1.1 2.2 2.7 2.2 4.6z"/><path d="m170.9 276.5c0 3.2.2 6.5-.1 9.7-.2 3.2-2.1 5.3-5.5 5.2-3.3 0-5.3-2.1-5.4-5.3-.2-6.2-.2-12.4 0-18.5.1-3.4 2.2-5.2 5.5-5.2 3.1 0 5.1 1.8 5.4 4.9.3 3 .1 6.1.1 9.2z"/><path d="m224.8 172.4c-3.4-.1-5.2-1.2-6.1-3.6s-.6-4.7 1.6-6.2c5.6-3.7 11.3-7.3 17.4-10 2.3-1 4.6-.3 6.1 1.7s1.9 4.6.1 6.3c-5.7 5.5-12.9 8.4-19.1 11.8z"/><path d="m218.3 234.1c0-4.1 4.2-6.9 8-5 5.4 2.8 10.5 5.9 15.7 9 2.9 1.8 3.9 4.5 2.3 7.6-1.7 3.1-4.5 3.7-7.6 2-5.3-2.9-10.5-6-15.7-9-1.9-.9-2.7-2.5-2.7-4.6z"/><path d="m171 124.4c0 3 .1 5.9 0 8.9-.2 3.3-2.1 5.2-5.4 5.2-3.6 0-5.5-2-5.5-5.5-.1-5.9-.1-11.8 0-17.7.1-3.4 1.9-5.7 5.4-5.8 3.6 0 5.3 2.3 5.5 5.7.1 3-.1 6.1 0 9.2z"/><path d="m107 228.6c2.4 0 4.2 1.1 5.1 3.3 1 2.5.8 5-1.5 6.5-5.6 3.7-11.3 7.3-17.5 9.9-2.6 1.1-4.8 0-6.3-2.2-1.5-2.3-1.4-5 .7-6.6 5.6-4.4 11.9-7.7 18.3-10.8.4-.1.8-.1 1.2-.1z"/></g><path d="m274.7 341.5c-1.4-10.8 3-21 5-31.7.9-4.7 5-7.9 7.2-12 6.7-13.1 14.6-25.7 17.2-40.4.6-3.5-.4-7.2-.4-10.8-.1-7.5-.6-15.1-.6-22.6 0-11.3 1.1-22.5 1.8-33.8.1-1.9.7-3.8.5-5.6-.7-9.9 1.4-19.5 3.3-29.1 1.7-8.4 6.2-15.6 10.9-22.6 1.8-2.6 4.9-1.7 7.5-2.1 3.2-.5 10.6 4.5 12.3 6.8 7.2 9.9 6.3 21.9 8.4 33 7.1 36.4 13.4 72.9 20 109.4 3.8 21.1 7.7 42.3 11.6 63.4 1.6 9-5 21.7-13.2 25.5-6.8 3.1-13 7.5-20.2 9.8-1.6.5-3.2 1.6-4.3 2.9-4.2 4.7-9.6 6-15.6 5.9-5.4-.1-10.9-.8-16.3 1.5-2.5 1.1-5-.7-6.9-2.4-7.6-6.8-15.1-13.7-22.6-20.7-3.7-3.5-5.3-8.1-5.5-13.1-.3-3.6-.1-7.3-.1-11.3z" fill="#db5e6e"/><path d="m367.3 210.1c0 16.3.6 32.5-.2 48.8-.4 8.4 3.5 13.5 9 18.4 9.7 8.6 19.2 17.3 22.7 30.4 3.5 13 5.8 26.2 2.4 39.4-2.8 10.6-6.4 21.6-12.9 30.2-13.7 18.3-31.4 31.1-55.8 31.2-9.1 0-18.3.5-27.4-.8-16.9-2.4-31-10-41.2-23.6-12.4-16.5-20.8-34.7-18.9-56 1.3-14.7 6.8-27.9 15.6-39.6 3.9-5.2 8.6-9.7 14.4-12.7 2.9-1.5 3.9-3.6 3.9-6.7.3-28.1.6-56.2 1.1-84.2.3-16.6.5-33.3 4.5-49.7 2.6-10.6 7.9-19.3 17-25.5 6.3-4.3 13-6.8 20.9-5.9 3.4.4 6.9-.7 10.4.2 12.4 3.1 21.4 10.5 26.7 22 3.9 8.3 5.1 17.2 6 26.2 1.7 19.2 1.4 38.6 1.8 57.9zm-28.4 16.1c0-10.3.3-20.7-.1-31-.3-8-.5-16.1-1.1-24.1-.4-5.8-1.1-11.4-3-16.9-1.9-5.2-3.7-6.4-9.3-6.4-4.7 0-6.8 1.5-8.6 6.3-2.1 5.7-2.5 11.6-3.1 17.7-1.5 15.1-1.7 30.3-1.1 45.4.9 24.3-1.3 48.6 1.2 72.8.3 2.8-.9 4-3.4 5-20 8.1-30.4 32.7-22.5 52.7 8 20.3 30.6 29.9 51.8 22 14.8-5.5 24.4-20.1 24.7-37.3.2-15.7-9.1-29.9-23.8-35.5-3-1.2-4-2.6-3.6-5.5.2-1.9 0-3.8.2-5.6 2.2-19.9 0-39.8 1.7-59.6z" fill="#3981bf"/><path d="m409.7 262.2c-8.2 0-16.4-.1-24.6.1-2.8.1-3.7-.9-3.6-3.7.2-6.7.1-13.4 0-20.1 0-2.2.6-3.1 2.9-3.1 16.9.1 33.8-.1 50.7.1 7.3.1 12.8 6.1 12.8 13.4s-5.7 13.2-13.4 13.3c-8.2.1-16.5 0-24.8 0z" fill="#db5e6e"/><path d="m408.3 194.1h22.6c8.6.1 14.4 5.7 14.3 13.6-.1 7.7-5.9 13.2-14.2 13.2-15.2.1-30.4 0-45.5.1-2.9 0-4-.7-3.9-3.8.2-6.6.2-13.1 0-19.7-.1-2.7.8-3.5 3.5-3.4 7.6.1 15.4 0 23.2 0z" fill="#db5e6e"/><path d="m407.6 136.9c-7.4 0-14.8-.1-22.1.1-2.8.1-4.1-.5-4-3.7.2-6.6.2-13.1 0-19.7-.1-2.6.9-3.5 3.5-3.4 15.3.1 30.6 0 45.9.1 7.9 0 13.6 5.9 13.5 13.5-.1 7.4-5.7 13.1-13.4 13.2-7.8 0-15.6-.1-23.4-.1z" fill="#db5e6e"/><path d="m407.1 178.5c-7.4 0-14.8-.1-22.1 0-2.6 0-3.5-.7-3.5-3.4.2-6.7.1-13.4 0-20.1 0-2.3.5-3.4 3.1-3.4 15 .1 30.1-.1 45.1.1 7.4.1 13 5.9 13.1 13.1.1 7.4-5.5 13.3-13.1 13.5-7.6.3-15.1.2-22.6.2z" fill="#db5e6e"/><path d="m164.2 153.6c-3.4 0-6.7.5-9.9 1.5-25.3 7.2-33.9 30.7-33.6 47.8v2.8c.8 13.6 5.3 25.5 15.5 34.8 1.8 1.6 3.8 2.5 5.6.3 1.8-2.1.7-3.8-1.1-5.5-13.4-13.2-16.1-29.3-11.1-46.5 4.9-17 16.6-26.9 34.7-28.3 2.2-.2 3.6-1.3 3.6-3.5.1-2.3-1.5-3.4-3.7-3.4z"/><path d="m318.4 358.8c0 2 1.4 3.1 3.4 3.3 20.1 1.9 34.2-13.2 33.8-30.2-.1-.6-.1-2.4-.4-4.1-.3-2.1-1.5-3.5-3.8-3.3s-3.2 1.8-3 4c0 .7.2 1.3.3 2 1.2 13.2-8.6 24.3-21.8 24.7-1.6.1-3.2 0-4.8 0-2.3.2-3.7 1.4-3.7 3.6z"/><path d="m421.3 215.6c2.3 0 4-.9 4.1-3.4 0-2.3-1.5-3.4-3.7-3.4-10.6-.1-21.2-.7-31.8-.1-2.3.1-4.1.9-4 3.5 0 2.8 2 3.4 4.5 3.4 5-.1 9.9 0 14.9 0z"/><path d="m389.7 173.7c5-.1 9.9 0 14.9 0 0-.3 0-.5 0-.8h16.1c2.3 0 4.1-.9 4.1-3.4s-1.7-3.4-4.1-3.4c-10.5.1-20.9 0-31.4.8-2.3.2-4.1.9-4 3.5 0 2.8 2 3.3 4.4 3.3z"/><path d="m422 124.5c-10.6.2-21.3.3-31.9.5-2.4 0-4.4.9-4.3 3.7s2.2 3.3 4.6 3.2c5.1-.1 10.2 0 15.3 0 0-.2 0-.3 0-.5h16.1c2.5 0 4.4-.9 4.3-3.6.1-2.5-1.8-3.3-4.1-3.3z"/><path d="m392 258c9.3 0 18.5 0 27.8-.1 2.4 0 4.4-.9 4.2-3.7-.1-2.5-2-3.2-4.2-3.2-4.4 0-8.9 0-13.3 0-4.8 0-9.7 0-14.5 0-2.3 0-4.1 1-4.1 3.5.1 2.5 1.8 3.5 4.1 3.5z"/><path d="m190.8 163.1c-3.3-2.3-6.9-4.1-10.8-5.3-2.3-.7-4.1-.3-4.8 2.1-.7 2.2.5 3.7 2.5 4.3 3.4 1.1 6.4 2.7 9.4 4.6.6.4 1.5.6 1.9.7 1.8-.1 2.9-.9 3.4-2.3.5-1.7-.1-3.1-1.6-4.1z"/><path d="m197.7 171.8c-1.6.2-2.7 1.2-3 3s3.6 7.5 5.5 7.9c1.8.4 3.2-.3 4-1.9 1.1-2.6-3.4-9.1-6.5-9z"/><path d="m350.6 317.7c.1-2.4-2.8-5.9-4.8-5.8s-3.2 1.2-3.4 3.2c-.2 2.3 2.7 5.7 4.8 5.6 2 0 3.1-1.1 3.4-3z"/></svg>