<svg id="Layer_1" enable-background="new 0 0 100 100" viewBox="0 0 100 100" xmlns="http://www.w3.org/2000/svg"><path d="m63.5714264 12.6785717c0-5.6214561-4.556942-10.1785717-10.1785698-10.1785717h-40.714283c-5.6214561 0-10.1785719 4.5571156-10.1785719 10.1785717v40.7142868c0 5.6216278 4.5571156 10.1785736 10.1785707 10.1785736h3.3928576v-33.9285755c0-7.4952946 6.0761318-13.5714283 13.5714283-13.5714283h33.928566v-3.3928566z"/><path d="m46.6071434 36.4285698c-5.6216278 0-10.1785698 4.5569458-10.1785698 10.1785736v40.714283c0 5.6216278 4.556942 10.1785736 10.1785698 10.1785736h40.714283c5.6216278 0 10.1785736-4.5569458 10.1785736-10.1785736v-40.714283c0-5.6216278-4.5569458-10.1785736-10.1785736-10.1785736z"/><path d="m80.5357132 29.6428566c0-5.6214542-4.5569458-10.1785717-10.1785736-10.1785717h-40.7142811c-5.6214561 0-10.1785717 4.5571175-10.1785717 10.1785717v40.714283c0 5.6216278 4.5571156 10.1785736 10.1785717 10.1785736h3.3928547v-33.9285698c0-7.4951591 6.0762711-13.5714302 13.5714302-13.5714302h33.9285698z"/></svg>