<svg id="Capa_1" enable-background="new 0 0 354.053 354.053" height="512" viewBox="0 0 354.053 354.053" width="512" xmlns="http://www.w3.org/2000/svg"><path d="m61.959 236.035c0 65.075 52.943 118.018 118.018 118.018s118.018-52.943 118.018-118.018c0-47.284-27.663-89.28-70.811-108.092v-39.43c9.76 0 17.703-7.943 17.703-17.703s-7.943-17.703-17.703-17.703h-10.344l7.016-31.564c1.168-5.269-.1-10.71-3.476-14.917-3.375-4.207-8.415-6.626-13.808-6.626h-53.191c-5.393 0-10.433 2.413-13.808 6.627s-4.644 9.648-3.476 14.917l7.016 31.564h-10.343c-9.76 0-17.703 7.943-17.703 17.703s7.943 17.703 17.703 17.703v39.43c-43.147 18.811-70.811 60.807-70.811 108.091zm118.018 106.216c-58.566 0-106.216-47.65-106.216-106.216 0-.466.047-.921.053-1.381l13.79-6.438c28.118-13.124 61.056-11.884 88.118 3.34 16.534 9.306 34.792 13.967 53.078 13.967 17.278 0 34.579-4.166 50.453-12.522l6.697-3.523c.13 2.172.242 4.355.242 6.556.001 58.567-47.649 106.217-106.215 106.217zm104.445-125.305-10.669 5.612c-15.03 7.907-31.487 11.566-47.844 11.076l2.703-2.679c11.265-11.141 26.654-17 42.28-16.092 5.842.342 9.719.59 13.365 1.21.053.295.112.584.165.873zm-136.794-197.963c-.389-1.758.03-3.57 1.157-4.974 1.121-1.404 2.797-2.207 4.597-2.207h53.191c1.8 0 3.476.803 4.597 2.207 1.127 1.404 1.552 3.216 1.157 4.974l-7.583 34.125h-49.538zm-20.759 51.828c0-3.251 2.644-5.901 5.901-5.901h94.414c3.257 0 5.901 2.649 5.901 5.901 0 3.251-2.644 5.901-5.901 5.901h-94.414c-3.258-.001-5.901-2.65-5.901-5.901zm69.512 17.702-3.541 17.703h-25.734l-3.541-17.703zm-55.533 48.842c2.248-.891 3.723-3.063 3.723-5.482v-43.36h6.963l4.951 24.76c.555 2.762 2.974 4.744 5.789 4.744h35.405c2.815 0 5.234-1.983 5.783-4.744l4.957-24.76h6.963v43.36c0 2.419 1.475 4.591 3.723 5.482 30.342 12.05 52.671 36.603 62.107 66.426-2.95-.301-6.048-.49-9.636-.696-18.901-1.168-37.618 5.983-51.267 19.485l-9.512 9.412c-10.12-1.935-20.016-5.488-29.298-10.71-30.366-17.083-67.329-18.476-98.893-3.747l-7.783 3.635c5.234-37.501 29.965-69.484 66.025-83.805z"/><path d="m256.688 106.216c0 13.017 10.586 23.604 23.604 23.604 13.017 0 23.604-10.586 23.604-23.604s-10.586-23.604-23.604-23.604-23.604 10.586-23.604 23.604zm23.604-11.802c6.509 0 11.802 5.293 11.802 11.802s-5.293 11.802-11.802 11.802-11.802-5.293-11.802-11.802 5.293-11.802 11.802-11.802z"/><path d="m292.094 29.504c0 16.269 13.236 29.504 29.504 29.504 16.269 0 29.504-13.236 29.504-29.504s-13.235-29.504-29.504-29.504-29.504 13.236-29.504 29.504zm29.504-17.702c9.76 0 17.703 7.943 17.703 17.703s-7.943 17.703-17.703 17.703-17.703-7.943-17.703-17.703 7.943-17.703 17.703-17.703z"/><path d="m73.761 53.108c-13.017 0-23.604 10.586-23.604 23.604s10.586 23.604 23.604 23.604 23.604-10.586 23.604-23.604-10.587-23.604-23.604-23.604zm0 35.405c-6.509 0-11.802-5.293-11.802-11.802s5.293-11.802 11.802-11.802 11.802 5.293 11.802 11.802-5.293 11.802-11.802 11.802z"/><path d="m38.356 165.225c0-9.76-7.943-17.703-17.703-17.703s-17.703 7.943-17.703 17.703 7.943 17.703 17.703 17.703 17.703-7.943 17.703-17.703zm-23.604 0c0-3.251 2.644-5.901 5.901-5.901s5.901 2.649 5.901 5.901-2.644 5.901-5.901 5.901-5.901-2.65-5.901-5.901z"/><path d="m104.233 202.99c10.037-22.966 29.617-39.949 53.716-46.599l-3.145-11.377c-27.539 7.606-49.91 27.014-61.375 53.25z"/><circle cx="156.373" cy="247.837" r="5.901"/><circle cx="244.886" cy="277.341" r="5.901"/><circle cx="191.779" cy="318.647" r="5.901"/><circle cx="103.265" cy="277.341" r="5.901"/></svg>