<svg id="Capa_1" enable-background="new 0 0 446.046 446.046" height="512" viewBox="0 0 446.046 446.046" width="512" xmlns="http://www.w3.org/2000/svg"><g><g id="download_1_"><path id="Combined-Shape_10_" d="m251.8 151.073 107.914.007c3.843 0 7.508 1.536 10.195 4.235l.858.942 71.943 86.331c2.18 2.615 3.274 5.776 3.333 8.934l.002.277v115.109l-.037 1.268c-.632 10.91-9.368 19.646-20.278 20.278l-1.268.037h-402.879l-1.268-.037c-10.91-.632-19.646-9.368-20.278-20.278l-.037-1.267.002-115.284c.031-2.822.891-5.653 2.614-8.099l.719-.937 71.943-86.331c2.46-2.952 5.987-4.784 9.78-5.121l1.273-.056 107.914-.007v28.777l-101.18.007-53.957 64.741 83.195.007c3.689 0 6.73 2.777 7.146 6.355l.048.839v21.583l.037 1.268c.632 10.91 9.368 19.646 20.278 20.278l1.268.037h143.886l1.268-.037c10.91-.632 19.646-9.368 20.278-20.278l.037-1.268v-21.583l.048-.839c.384-3.303 3.004-5.923 6.307-6.307l.839-.048 83.18-.007-53.95-64.741-101.173-.008zm-28.777-93.519c7.585 0 13.8 6.321 14.349 14.339l.039 1.156v151.203l18.603-18.599c5.323-5.323 13.78-5.604 19.433-.841l.915.841c5.323 5.323 5.604 13.78.841 19.433l-.841.915-43.166 43.166c-5.323 5.323-13.78 5.604-19.433.841l-.915-.841-43.166-43.166c-5.619-5.619-5.619-14.729 0-20.349 5.323-5.323 13.78-5.604 19.433-.841l.915.841 18.603 18.599v-151.201c.001-8.558 6.443-15.496 14.39-15.496z"/></g></g></svg>