<?xml version="1.0" encoding="iso-8859-1"?>
<!-- Generator: Adobe Illustrator 19.0.0, SVG Export Plug-In . SVG Version: 6.00 Build 0)  -->
<svg version="1.1" id="Capa_1" xmlns="http://www.w3.org/2000/svg" xmlns:xlink="http://www.w3.org/1999/xlink" x="0px" y="0px"
	 viewBox="0 0 512.001 512.001" style="enable-background:new 0 0 512.001 512.001;" xml:space="preserve">
<path style="fill:#303C42;" d="M508.875,493.792c-23.583-23.583-29.917-69.645-37.25-122.987
	c-9.845-71.755-22.178-160.342-83.729-231.609l32.521-32.521h48.917c4.438,0,8.417-2.759,9.979-6.915l32-85.332
	c1.479-3.917,0.521-8.333-2.438-11.292c-2.958-2.958-7.333-3.938-11.292-2.448l-85.333,32c-4.167,1.563-6.917,5.542-6.917,9.99
	v48.915l-32.492,32.491c-70.917-61.465-159.729-73.832-231.654-83.708C87.855,33.042,41.792,26.709,18.209,3.136
	c-4.167-4.167-10.917-4.167-15.083,0C1.042,5.219,0,7.949,0,10.678c0,1.457,0.346,2.893,0.94,4.251l-0.044,0.02l146.417,334.659
	L134.25,362.67H74.667c-2.833,0-5.542,1.125-7.542,3.125l-64,63.999c-3.042,3.052-3.958,7.635-2.312,11.625
	c1.646,3.99,5.542,6.583,9.854,6.583H64v53.332c0,4.313,2.604,8.208,6.583,9.854c1.313,0.552,2.708,0.813,4.083,0.813
	c2.771,0,5.5-1.083,7.542-3.125l64-63.999c2-2,3.125-4.708,3.125-7.542v-59.582l13.063-13.063l334.667,146.414l0.02-0.044
	c1.358,0.594,2.794,0.94,4.251,0.94c2.729,0,5.458-1.042,7.542-3.125c2.083-2.083,3.125-4.813,3.125-7.542
	S510.959,495.876,508.875,493.792z M37.474,45.337c32.203,20.561,70.09,34.087,109.651,48.07
	c58.176,20.557,118.109,42.089,168.092,88.293L163.507,333.411L37.474,45.337z M178.59,348.494l151.711-151.711
	c46.204,49.983,67.736,109.905,88.283,168.072c13.991,39.57,27.521,77.465,48.083,109.673L178.59,348.494z"/>
<path style="fill:#9E5F2C;" d="M454.271,400.48c-5.354-13.844-10.417-28.177-15.563-42.729
	c-12.788-36.16-26.738-75.172-47.488-112.453l15.783-39.445c27.56,54.146,36.031,113.572,43.497,167.857
	C451.75,382.844,452.979,391.792,454.271,400.48z"/>
<path style="fill:#C38355;" d="M393.4,182.469l-16.013,40.018c-9.273-14.122-19.917-27.757-32.007-40.784l27.18-27.18
	C380.313,163.575,387.244,172.893,393.4,182.469z"/>
<polygon style="fill:#E4E1DC;" points="426.667,50.063 483.105,28.896 461.938,85.334 426.667,85.334 "/>
<polygon style="opacity:0.2;fill:#FFFFFF;enable-background:new    ;" points="426.667,50.063 483.105,28.896 426.667,85.334 "/>
<path style="fill:#C38355;" d="M330.297,166.62c-13.975-12.969-28.676-24.197-43.888-33.956l42.906-14.307
	c9.678,6.21,19.089,13.197,28.206,21.039L330.297,166.62z"/>
<path style="fill:#9E5F2C;" d="M138.292,61.501c53.806,7.395,112.661,15.829,166.249,42.638l-42.479,14.164
	c-35.875-19.354-73.146-32.757-107.811-45.01c-14.563-5.146-28.896-10.208-42.729-15.573
	C120.209,59.011,129.146,60.24,138.292,61.501z"/>
<g>
	<path style="fill:#BEB7B3;" d="M74.667,426.667h-38.25l10.667-10.667H96v48.917l-10.667,10.667v-38.25
		C85.334,431.438,80.563,426.667,74.667,426.667z"/>
	<path style="fill:#BEB7B3;" d="M128,432.917l-10.667,10.667v-38.25c0-5.896-4.771-10.667-10.667-10.667h-38.25l10.667-10.667H128
		V432.917z"/>
</g>
<polygon style="opacity:0.1;enable-background:new    ;" points="483.105,28.896 461.938,85.334 426.667,85.334 "/>
<linearGradient id="SVGID_1_" gradientUnits="userSpaceOnUse" x1="-48.84" y1="640.3911" x2="-20.2324" y2="627.0473" gradientTransform="matrix(21.3333 0 0 -21.3333 998.4919 13763.0869)">
	<stop  offset="0" style="stop-color:#FFFFFF;stop-opacity:0.2"/>
	<stop  offset="1" style="stop-color:#FFFFFF;stop-opacity:0"/>
</linearGradient>
<path style="fill:url(#SVGID_1_);" d="M508.875,493.792c-23.583-23.583-29.917-69.645-37.25-122.987
	c-9.845-71.755-22.178-160.342-83.729-231.609l32.521-32.521h48.917c4.438,0,8.417-2.759,9.979-6.915l32-85.332
	c1.479-3.917,0.521-8.333-2.438-11.292c-2.958-2.958-7.333-3.938-11.292-2.448l-85.333,32c-4.167,1.563-6.917,5.542-6.917,9.99
	v48.915l-32.492,32.491c-70.917-61.465-159.729-73.832-231.654-83.708C87.855,33.042,41.792,26.709,18.209,3.136
	c-4.167-4.167-10.917-4.167-15.083,0C1.042,5.219,0,7.949,0,10.678c0,1.457,0.346,2.893,0.94,4.251l-0.044,0.02l146.417,334.659
	L134.25,362.67H74.667c-2.833,0-5.542,1.125-7.542,3.125l-64,63.999c-3.042,3.052-3.958,7.635-2.312,11.625
	c1.646,3.99,5.542,6.583,9.854,6.583H64v53.332c0,4.313,2.604,8.208,6.583,9.854c1.313,0.552,2.708,0.813,4.083,0.813
	c2.771,0,5.5-1.083,7.542-3.125l64-63.999c2-2,3.125-4.708,3.125-7.542v-59.582l13.063-13.063l334.667,146.414l0.02-0.044
	c1.358,0.594,2.794,0.94,4.251,0.94c2.729,0,5.458-1.042,7.542-3.125c2.083-2.083,3.125-4.813,3.125-7.542
	S510.959,495.876,508.875,493.792z M37.474,45.337c32.203,20.561,70.09,34.087,109.651,48.07
	c58.176,20.557,118.109,42.089,168.092,88.293L163.507,333.411L37.474,45.337z M178.59,348.494l151.711-151.711
	c46.204,49.983,67.736,109.905,88.283,168.072c13.991,39.57,27.521,77.465,48.083,109.673L178.59,348.494z"/>
<g>
</g>
<g>
</g>
<g>
</g>
<g>
</g>
<g>
</g>
<g>
</g>
<g>
</g>
<g>
</g>
<g>
</g>
<g>
</g>
<g>
</g>
<g>
</g>
<g>
</g>
<g>
</g>
<g>
</g>
</svg>
