<svg id="Capa_1" enable-background="new 0 0 512.46 512.46" viewBox="0 0 512.46 512.46" xmlns="http://www.w3.org/2000/svg"><g><path d="m265.644 284.382c-2.699-4.565-7.608-7.366-12.912-7.366l-97.484-.001v-112.327c0-6.822-4.604-12.785-11.203-14.512-6.594-1.725-13.533 1.217-16.875 7.165l-115.24 205.136c-2.608 4.644-2.559 10.323.131 14.921 2.689 4.598 7.615 7.424 12.942 7.426l99.882.034v112.332c0 6.847 4.637 12.825 11.269 14.528 1.242.319 2.495.473 3.733.473 5.371-.001 10.46-2.897 13.142-7.772l112.847-205.174c2.555-4.646 2.467-10.298-.232-14.863z"/><path d="m512.01 219.788c0-23.087-8.93-44.85-25.146-61.28-12.925-13.096-29.296-21.612-47.094-24.688-6.626-43.702-44.449-77.304-89.972-77.304-17.141 0-33.515 4.69-47.706 13.471-10.279-21.3-26.431-38.948-46.087-51.179-19.094-11.881-41.494-18.651-65.061-18.651-68.011 0-123.342 55.331-123.342 123.341 0 3.723.168 7.445.501 11.147-16.369 3.655-31.362 11.976-43.319 24.234-15.982 16.385-24.784 38.016-24.784 60.909 0 23.225 9.121 44.358 23.967 60.011l77.047-137.151c7.958-14.163 22.991-22.961 39.236-22.961 3.837 0 7.668.493 11.385 1.465 19.792 5.18 33.612 23.082 33.612 43.536v82.328l67.484.001c15.835 0 30.678 8.467 38.736 22.098 6.814 11.523 8.033 25.51 3.643 37.945h32.504c3.115-6.461 7.456-13.958 13.505-22.755 8.472-12.318 16.822-22.167 17.174-22.58 6.645-7.828 16.37-12.33 26.666-12.33 10.295 0 20.02 4.501 26.683 12.349.341.4 8.702 10.266 17.156 22.56 5.55 8.071 9.66 15.045 12.707 21.133 40.128-7.842 70.505-43.262 70.505-85.649z"/><path d="m388.772 281.16c-.952-1.122-2.342-1.765-3.812-1.765s-2.86.643-3.812 1.764c-.313.369-7.758 9.164-15.309 20.144-15.88 23.092-15.88 32.055-15.88 35 0 19.299 15.701 35 35 35s35-15.701 35-35c0-2.945 0-11.908-15.881-35.001-7.549-10.979-14.993-19.775-15.306-20.142z"/><path d="m388.772 422.16c-.952-1.122-2.342-1.765-3.812-1.765s-2.86.643-3.812 1.764c-.313.369-7.758 9.164-15.309 20.144-15.88 23.092-15.88 32.055-15.88 35 0 19.299 15.701 35 35 35s35-15.701 35-35c0-2.945 0-11.908-15.881-35.001-7.549-10.979-14.993-19.775-15.306-20.142z"/><path d="m496.579 374.302c-7.55-10.98-14.994-19.775-15.307-20.143-.952-1.122-2.342-1.765-3.812-1.765s-2.86.643-3.812 1.764c-.313.369-7.758 9.164-15.309 20.144-15.88 23.092-15.88 32.055-15.88 35 0 19.299 15.701 35 35 35s35-15.701 35-35c.001-2.944.001-11.907-15.88-35z"/><path d="m296.272 354.16c-.952-1.122-2.342-1.765-3.812-1.765s-2.86.643-3.812 1.764c-.313.369-7.758 9.164-15.309 20.144-15.88 23.092-15.88 32.055-15.88 35 0 19.299 15.701 35 35 35s35-15.701 35-35c0-2.945 0-11.908-15.881-35.001-7.549-10.979-14.993-19.775-15.306-20.142z"/></g><g/><g/><g/><g/><g/><g/><g/><g/><g/><g/><g/><g/><g/><g/><g/></svg>