<svg id="Layer_1" enable-background="new 0 0 512.016 512.016" height="512" viewBox="0 0 512.016 512.016" width="512" xmlns="http://www.w3.org/2000/svg"><g><path d="m185.039 70.175-57.036-35.876 2.552 67.332 36.406 1.38c.356-.208.713-.415 1.071-.621z"/><path d="m78.95 255.335-19.363-30.783-59.587 31.456 59.587 31.456 19.363-30.783c-.002-.449-.002-.898 0-1.346z"/><path d="m130.556 410.385-2.552 67.332 57.036-35.876-17.006-32.215c-.358-.206-.715-.413-1.071-.621z"/><path d="m326.976 441.841 57.036 35.876-2.552-67.332-36.406-1.38c-.356.208-.713.415-1.071.621z"/><path d="m452.428 224.552-19.363 30.783c.003.448.003.897 0 1.346l19.363 30.783 59.587-31.456z"/><path d="m381.46 101.631 2.552-67.332-57.036 35.876 17.006 32.215c.358.206.715.413 1.071.621z"/><path d="m256.008 78.948c15.433 0 30.412 1.986 44.693 5.713l-44.693-84.661-44.693 84.662c14.281-3.728 29.259-5.714 44.693-5.714z"/><path d="m130.103 131.635-95.804-3.631 50.973 81.035c8.156-29.615 23.829-56.146 44.831-77.404z"/><path d="m85.272 302.976-50.973 81.035 95.804-3.631c-21.002-21.257-36.675-47.789-44.831-77.404z"/><path d="m256.008 433.067c-15.433 0-30.411-1.986-44.693-5.713l44.693 84.662 44.693-84.662c-14.282 3.728-29.26 5.713-44.693 5.713z"/><path d="m381.913 380.38 95.804 3.631-50.973-81.035c-8.156 29.615-23.83 56.147-44.831 77.404z"/><path d="m426.744 209.039 50.973-81.035-95.804 3.631c21.001 21.258 36.675 47.789 44.831 77.404z"/><path d="m403.067 256.008c0-81.089-65.971-147.06-147.06-147.06-194.827 7.393-194.773 286.755.002 294.119 81.088 0 147.058-65.97 147.058-147.059z"/></g></svg>