<svg id="Weather_13" viewBox="0 0 512 512" xmlns="http://www.w3.org/2000/svg" data-name="Weather 13"><path d="m228.2872 394.1739c5.2852 9.9999 11.3254 23.8574 11.3254 34.9609 0 8.3545-6.9536 15.1157-15.3773 14.7989-8.1069-.3049-14.4621-7.6074-14.2275-15.7166.3168-10.948 6.1784-24.3331 11.3212-34.0608 1.4772-2.7941 5.4813-2.7767 6.9582.0176zm90.2896 114.821c17.475.3205 31.2511-14.6099 30.6825-32.0786-.8084-24.8331-16.8295-56.0221-26.7198-73.0238-1.5181-2.6096-5.286-2.6008-6.8034.0092-10.1487 17.4561-26.7508 49.8491-26.7508 74.9451 0 16.4389 13.2231 29.8478 29.5915 30.148zm91.9741-67.399c7.5481-.6707 13.0707-7.4103 12.8496-14.985-.3023-10.3521-5.749-22.9714-10.6411-32.309-1.4776-2.8203-5.5044-2.8375-6.9824-.0174-5.0359 9.6092-10.6634 22.7005-10.6634 33.2186 0 8.2274 7.0581 14.8373 15.4374 14.0928zm57.9814-225.0848c-.0061-.0045-.0126-.0091-.0187-.0136-9.5672-7.1277-20.8583-11.7157-32.6516-13.2682v-.0015c-1.6851-.2284-3.2159-1.2989-3.9945-2.8277-.0676-.1326-.1296-.2677-.1851-.4059-7.4802-18.4718-25.1951-30.4078-45.1312-30.4078-8.9192 0-17.659 2.4425-25.2753 7.0627l-.001-.002c-1.1597.7009-2.5771.9409-3.9133.6247-1.666-.3933-3.0642-1.6211-3.6778-3.2129-11.4061-29.6913-40.4424-49.64-72.254-49.64-41.7957 0-75.7543 32.6904-77.3108 74.4236-.0918 2.446-1.9196 4.5068-4.2693 4.95v.001c-13.9832 2.6018-26.726 9.3216-36.8513 19.4344-12.4831 12.4962-19.7823 29.0651-20.5482 46.6494-.0454 1.0372-.0681 2.0734-.0681 3.107.0005 5.1214.5612 10.1939 1.6735 15.1202 7.1837 32.0662 36.5538 55.3342 69.8382 55.3342h212.6176c18.8172 0 36.4978-7.3244 49.7852-20.6243 13.3035-13.2909 20.6279-30.9715 20.6279-49.7887 0-22.4683-10.3472-43.0654-28.3924-56.5146zm-82.993-116.2007c-.0676-.1321-.1291-.2667-.1845-.4044-9.7255-23.9966-32.7464-39.502-58.6495-39.502-11.6148 0-22.9659 3.1691-32.8256 9.1643-1.2651.7674-2.8635.9676-4.2789.5299-1.5142-.4684-2.7253-1.5813-3.3228-3.0531-14.7152-38.3447-52.1277-64.0451-93.1333-64.0451-53.8487 0-97.6034 42.1194-99.6233 95.889-.0792 2.5312-1.9564 4.6162-4.3908 5.0105-18.018 3.3702-34.4204 12.0308-47.4405 25.0509-16.106 16.1196-25.5269 37.5043-26.5268 60.2131-1.0811 24.6949 7.8336 48.2312 25.1023 66.2718 17.4235 18.203 41.8719 28.643 67.0766 28.643h18.3252c3.7588 0 6.6925-3.1694 6.4969-6.9231-.1337-2.5646-.1441-5.1443-.0303-7.7292.8784-20.168 9.2465-39.1692 23.5629-53.5008 9.6181-9.6054 21.2969-16.5407 34.1407-20.3346 2.5044-.7398 4.3232-2.8669 4.6659-5.4557 2.8657-21.651 13.6822-41.4382 30.8465-55.778 14.2287-11.8874 31.9939-18.9484 50.4995-20.0918 20.081-1.2407 39.5195 4.2299 55.7994 15.6202 11.2329 7.8594 20.3585 18.0803 26.819 29.9507 1.5151 2.7839 4.8535 4.0879 7.831 3.0015 6.4597-2.3568 13.3115-3.5776 20.2526-3.5776 22.1334 0 42.0082 12.1382 52.1597 31.3854.9013 1.7089 2.4954 2.9523 4.3866 3.3474 5.5098 1.151 10.8857 2.8821 16.029 5.1531 4.3036 1.9003 9.2188-1.1244 9.2242-5.8289 0-.0347 0-.0694 0-.1041 0-45.3944-33.8799-84.1179-78.8084-90.0738l.0005-.0015c-1.6861-.2299-3.2255-1.2999-4.0035-2.8272zm-269.9288 324.0446c13.3962-.7118 23.3972-12.4682 22.9546-25.876-.6418-19.444-12.6188-43.6992-20.8556-58.1935-1.5093-2.6559-5.3356-2.6412-6.8448.0148-8.4659 14.8991-20.8745 40.0973-20.8745 59.7887 0 13.8369 11.6242 25.0097 25.6202 24.266z"/></svg>