<svg id="Weather_12" viewBox="0 0 512 512" xmlns="http://www.w3.org/2000/svg" data-name="Weather 12"><path d="m83.956 467.9313c0-23.1583 15.4769-53.161 24.771-69.0895 1.0662-1.8274 3.7021-1.8293 4.7684-.002 9.0577 15.523 23.9894 44.4155 24.7429 67.3119.4935 14.9967-10.7234 28.1334-25.7087 28.8995-15.615.7983-28.5736-11.6761-28.5736-27.12zm191.2902-97.464c-3.4019-1.7026-5.0062-5.6698-3.7441-9.2585l10.5655-30.0432c.4991-1.4192-.5539-2.9057-2.0583-2.9057h-42.4045c-.5664 0-1.1107.2203-1.5177.6143l-48.7434 47.1913c-1.0729 1.0387-.8087 2.8241.5191 3.5075l50.2669 25.8749c2.3913 1.2313 3.503 4.0421 2.601 6.576l-33.4886 94.0491c-.7736 2.1724 1.9131 3.9034 3.5715 2.301l113.7992-109.949c1.0821-1.0455.8061-2.8468-.5395-3.5203l-48.8271-24.4376zm145.8124-255.6985v-.0016c-1.7809-.2433-3.4039-1.3881-4.202-3.0132-.0566-.1148-.1086-.2318-.1568-.3503-10.9197-26.9365-36.7586-44.342-65.8268-44.342-13.0451 0-25.786 3.5581-36.8457 10.2904-1.3157.7976-2.9749 1.009-4.4464.5559-1.5963-.4903-2.8659-1.6645-3.4836-3.2198-16.4685-42.9021-58.3789-71.6882-104.3119-71.6882-60.3122 0-109.3193 47.1738-111.5785 107.4042-.0839 2.6398-2.0509 4.813-4.5985 5.2168-20.1833 3.7789-38.5615 13.4866-53.1525 28.0782-18.0495 18.063-28.6037 42.022-29.717 67.4624-1.2156 27.6738 8.7696 54.0472 28.1159 74.2619 19.5215 20.3977 46.9147 32.0967 75.1565 32.0967h301.5307c27.1966 0 52.7681-10.5935 72.0033-29.8297 19.2267-19.2262 29.815-44.792 29.815-71.9881 0-50.8609-37.9616-94.2527-88.3018-100.9336zm-20.8926 335.7688c12.9371-.7153 22.6473-12.0349 22.2655-24.9861-.5801-19.6753-13.0917-44.4579-21.208-58.5547-1.0633-1.8469-3.722-1.8441-4.7853.0028-8.3103 14.4345-21.2267 40.0696-21.2267 59.9548 0 13.4662 11.3277 24.3367 24.9545 23.5833z"/></svg>