<svg id="Capa_1" enable-background="new 0 0 512 512" height="512" viewBox="0 0 512 512" width="512" xmlns="http://www.w3.org/2000/svg"><g><g><path d="m248.694 23.677-101.94 225.724c-1.895 4.195-1.895 9.002 0 13.197l101.94 225.724c2.84 6.289 11.771 6.289 14.611 0l101.94-225.724c1.895-4.195 1.895-9.002 0-13.197l-101.94-225.724c-2.84-6.29-11.771-6.29-14.611 0z" fill="#d6bdef"/><path d="m145.371 255.645c-.052 2.37.386 4.745 1.383 6.953l101.94 225.724c1.312 2.904 3.928 4.404 6.638 4.626v-295.733z" fill="#aa91f0"/><path d="m145.371 255.645 70.548-15.677 80.161 32.064 70.548-15.678c.053-2.369-.386-4.745-1.384-6.953l-101.939-225.725c-2.84-6.289-11.771-6.289-14.611 0l-101.94 225.724c-.897 1.987-1.335 4.113-1.383 6.245z" fill="#ead1ff"/><path d="m253.978 19.232-38.059 220.735 80.161 32.064-38.307-252.832c-1.251-.277-2.551-.283-3.795.033z" fill="#d6bdef"/><g fill="#c3aff0"><path d="m296.08 272.032-80.161-32.064 38.308 252.832c1.252.277 2.552.283 3.796-.034z"/><path d="m248.694 23.676-101.94 225.724c-.897 1.986-1.336 4.113-1.383 6.244l70.548-15.677 39.45-220.923c-2.723.211-5.357 1.715-6.675 4.632z"/></g></g><g><path d="m262.835 4.413c-1.213-2.686-3.887-4.413-6.835-4.413s-5.622 1.727-6.835 4.413l-112.226 248.5c-.886 1.962-.886 4.211 0 6.174l112.226 248.5c1.213 2.687 3.888 4.413 6.835 4.413s5.622-1.727 6.835-4.413l112.226-248.5c.886-1.962.886-4.211 0-6.174zm33.88 259.795-72.373-28.949 31.181-180.846 27.069 178.663c.621 4.096 4.439 6.913 8.539 6.292 4.095-.621 6.912-4.444 6.292-8.539l-25.852-170.627 86.022 190.477zm-9.057 12.533-31.179 180.847-31.181-205.791zm-78.275-43.003-52.605 11.689 81.831-181.196zm.324 15.293 30.724 202.771-86.025-190.482zm92.91 29.231 52.604-11.69-81.827 181.19z"/><path d="m111.194 256c0-4.142-3.358-7.5-7.5-7.5h-64.129c-4.142 0-7.5 3.358-7.5 7.5s3.358 7.5 7.5 7.5h64.129c4.142 0 7.5-3.358 7.5-7.5z"/><path d="m123.08 209.211-32.064-16.032c-3.703-1.853-8.209-.351-10.062 3.354s-.351 8.21 3.354 10.062l32.064 16.032c1.077.539 2.221.793 3.348.793 2.751 0 5.4-1.52 6.714-4.147 1.852-3.704.351-8.21-3.354-10.062z"/><path d="m116.372 289.373-32.064 16.032c-3.705 1.852-5.207 6.357-3.354 10.062 1.314 2.628 3.962 4.147 6.714 4.147 1.127 0 2.271-.255 3.348-.793l32.064-16.032c3.705-1.852 5.207-6.357 3.354-10.062-1.852-3.705-6.356-5.208-10.062-3.354z"/><path d="m472.435 248.5h-64.129c-4.142 0-7.5 3.358-7.5 7.5s3.358 7.5 7.5 7.5h64.129c4.142 0 7.5-3.358 7.5-7.5s-3.358-7.5-7.5-7.5z"/><path d="m427.692 305.405-32.064-16.032c-3.703-1.852-8.209-.351-10.062 3.354s-.351 8.21 3.354 10.062l32.064 16.032c1.077.539 2.221.793 3.348.793 2.751 0 5.4-1.52 6.714-4.147 1.853-3.705.351-8.21-3.354-10.062z"/><path d="m392.28 223.421c1.127 0 2.271-.255 3.348-.793l32.064-16.032c3.705-1.852 5.207-6.357 3.354-10.062-1.852-3.705-6.356-5.208-10.062-3.354l-32.064 16.032c-3.705 1.852-5.207 6.357-3.354 10.062 1.314 2.628 3.962 4.147 6.714 4.147z"/></g></g></svg>