<svg id="Weather_14" viewBox="0 0 512 512" xmlns="http://www.w3.org/2000/svg" data-name="Weather 14"><path d="m496.8159 205.9735c0 27.5448-11.1693 52.4979-29.219 70.5477-18.0497 18.0497-43.0029 29.219-70.5477 29.219h-280.8197c-56.6503 0-102.7879-46.3591-100.9948-102.9809.8319-26.2685 11.8232-49.9884 29.1682-67.3334 12.8407-12.8406 29.1858-22.2058 47.4724-26.5324 2.8104-.6649 4.8624-3.0377 5.0967-5.9162 4.556-55.9766 51.4249-99.9773 108.5712-99.9773 43.947 0 81.8257 26.0189 99.0425 63.502 1.5287 3.3281 5.4777 4.7931 8.7738 3.1966 9.3564-4.5316 19.8521-7.068 30.9396-7.068 28.5958 0 53.2524 16.8833 64.5324 41.2323.9106 1.9657 2.7111 3.3743 4.8476 3.7326 47.1859 7.9137 83.1368 48.9484 83.1368 98.378zm-243.3277 160.0566c-8.8044 13.8761-37.7847 62.291-38.746 99.7946-.5924 23.1139 17.7172 42.943 40.8375 43.1732 22.9926.229 41.7033-18.3407 41.7033-41.2806 0-37.7494-29.8173-87.5767-38.7705-101.6873-1.1695-1.8432-3.8548-1.8432-5.0244 0zm104.485-28.4824c-6.5505 10.5225-23.6284 40.0774-24.4273 63.3854-.5227 15.2493 11.409 28.494 26.6665 28.6529 15.0341.1566 27.2706-11.9835 27.2706-26.9816 0-23.5478-17.7511-54.2859-24.458-65.0592-1.1648-1.8711-3.8871-1.8685-5.0518.0025zm-214.5831 15.7974c-7.0835 11.3131-26.7036 44.9058-27.7105 71.4024-.6656 17.5167 13.0546 32.5579 30.5829 32.3599 16.5589-.1871 29.9248-13.6687 29.9248-30.272 0-26.791-20.4798-61.8777-27.7507-73.4902-1.1684-1.8661-3.878-1.8661-5.0464 0z"/></svg>