<svg id="Weather_8" viewBox="0 0 512 512" xmlns="http://www.w3.org/2000/svg" data-name="Weather 8"><path d="m429.7139 163.6997c0 17.501-6.7899 34.3571-18.7773 46.969-.9154.9631-2.2878 1.3249-3.5824 1.0258-1.6707-.3859-3.3586-.7324-5.0581-1.0381-1.2168-.2189-2.2428-1.0073-2.7779-2.1218-12.7795-26.6159-39.486-43.5547-69.3409-43.5547-10.9264 0-21.3717 2.2342-31.1666 6.6555-1.8746.8462-4.0694.055-4.9661-1.796-.0066-.0135-.0131-.0271-.0197-.0406-.2086-.4302-.3384-.8865-.3726-1.3634-.1093-1.524-.1647-3.1105-.1647-4.7358 0-37.5579 30.5553-68.1131 68.1131-68.1131s68.1131 30.5553 68.1131 68.1131zm54.1316-5.499h-25.744c-1.2121 0-2.1984.9863-2.1984 2.1984v6.6038c0 1.2121.9863 2.1984 2.1984 2.1984h25.744c1.2121 0 2.1984-.9863 2.1984-2.1984v-6.6038c0-1.2121-.9863-2.1984-2.1984-2.1984zm-332.8904 180.6934c10.5129-10.5044 23.3877-17.9563 37.5508-21.7915 1.6163-.4377 2.8135-1.8203 2.9999-3.4844 2.1707-19.3791 10.5002-37.6576 23.8428-52.0635 14.8039-15.9853 34.8189-26.2043 56.3577-28.7764 10.0779-1.194 20.5203-.7165 30.4902 1.4325 20.8596 4.5213 39.6151 16.3267 52.8171 33.2422 3.5822 4.5873 6.7094 9.4828 9.3494 14.6296.9979 1.9455 3.3113 2.8072 5.3366 1.9833l.0367-.0149c7.3803-3.0052 15.1962-4.5299 23.2254-4.5299 23.5808 0 44.7123 13.1951 55.1177 34.0073.5777 1.1554 1.692 1.935 2.9601 2.1808 7.578 1.4692 14.9304 3.9859 21.8236 7.4563 2.6776 1.348 5.8876-.4501 6.038-3.4441.0809-1.6099.1215-3.2216.1215-4.8323 0-24.015-8.9378-46.9671-25.1672-64.6305-8.2264-8.9701-17.9301-16.1925-28.8464-21.4702-5.0266-2.4283-10.2463-4.4079-15.5123-5.8822l-.0045-.0015c-.0055-.0015-.0106-.003-.0161-.0045-.0333-.0096-.0661-.0187-.0993-.0282-4.1548-1.1753-8.4563-2.0718-12.8127-2.6719-.0938-.0131-.1871-.0257-.2809-.0383l-.1603-.0212.0005-.002c-1.1839-.1634-2.3204-.7417-3.1408-1.607-.4477-.4699-.8032-1.02-1.0473-1.6226-10.2397-25.2725-34.4811-41.6027-61.7579-41.6027-12.2379 0-23.7846 3.2462-34.3182 9.6483l-.0005-.001c-1.2116.7331-2.7243.9555-4.0948.5884-1.5646-.42-2.8307-1.5172-3.4731-3.0102-.0272-.0625-.0529-.1261-.0776-.1901-1.249-3.2517-2.6512-6.4238-4.1674-9.4279-.0328-.064-.0635-.1291-.0933-.1946-17.9906-35.5556-53.946-57.6364-93.8843-57.6364-56.628 0-102.6441 44.2852-104.7745 100.8305-.0746 2.5357-1.9438 4.6262-4.3711 5.0286-18.9547 3.5371-36.2176 12.6464-49.9289 26.3475-16.9393 16.96-26.8497 39.4532-27.901 63.3341-1.1492 26.2531 8.4416 51.2607 26.989 70.314 18.6013 19.1087 44.3839 29.5227 71.0513 29.5227h21.7572c2.2088 0 3.9075-1.9087 3.7011-4.1078-.3571-3.8038-.4526-7.6489-.2837-11.5048.9257-21.1026 9.679-40.974 24.6478-55.9533zm274.3494-245.7626c0 .3398.0837.9943.6444 1.5545l4.6696 4.6696c.5602.5602 1.2142.6444 1.5545.6444.3398 0 .9938-.0837 1.554-.6439v-.0005l18.2039-18.2034c.8572-.8572.8572-2.2518 0-3.109l-4.6696-4.6696c-.4286-.4286-.9913-.6429-1.5545-.6429s-1.1259.2143-1.5545.6429l-18.2034 18.2034c-.5607.5602-.6444 1.2147-.6444 1.5545zm-146.2497-19.7579c-.5602-.5607-1.2142-.6444-1.5545-.6444-.3398 0-.9938.0837-1.554.6439l-4.6706 4.6701c-.8567.8572-.8567 2.2518.0005 3.1095l18.2039 18.2029c.5602.5607 1.2142.6444 1.554.6444s.9943-.0842 1.5545-.6444l4.6696-4.6696c.8572-.8572.8572-2.2518 0-3.109zm79.2468-34.113c-1.2121 0-2.1984.9863-2.1984 2.1984v25.744c0 1.2121.9863 2.1984 2.1984 2.1984h6.6038c1.2121 0 2.1984-.9863 2.1984-2.1984v-25.744c0-1.2121-.9863-2.1984-2.1984-2.1984zm-146.476 433.4788h223.0515c19.8093 0 38.4221-7.7136 52.4087-21.7198 14.0047-13.9851 21.7143-32.5938 21.7143-52.4046 0-23.658-10.8992-45.3496-29.9028-59.5121-10.0789-7.5018-21.9643-12.3292-34.3712-13.9629v-.001c-1.6992-.2299-3.2431-1.313-4.0166-2.8599-.0605-.121-.1165-.2451-.1674-.3701-7.8916-19.477-26.5679-32.0614-47.5803-32.0614-6.6875 0-13.1929 1.2686-19.3353 3.7696-2.5171 1.0226-4.9782 2.2579-7.3193 3.6737l-.0015-.002c-1.0548.6363-2.3265.8975-3.5548.6978-1.6725-.2733-3.1156-1.3463-3.8593-2.87-.0655-.1341-.1256-.2713-.179-.4114-2.8862-7.5028-6.8695-14.5336-11.8386-20.8979-11.7201-15.0157-28.3614-25.4934-46.8592-29.5029-8.8526-1.909-18.1504-2.3335-27.0882-1.2716-39.3468 4.6978-70.131 38.117-71.6058 77.7387-.0872 2.4505-1.9155 4.5208-4.2682 4.9646l.0005.002c-14.7258 2.7379-28.1415 9.8121-38.7962 20.4582-13.137 13.146-20.8203 30.586-21.6331 49.103-.0479 1.0921-.0711 2.1823-.0711 3.2704.002 5.3891.594 10.7288 1.7668 15.9152 7.5673 33.7586 38.4801 58.2546 73.5063 58.2546z"/></svg>