<svg id="Weather_26" viewBox="0 0 512 512" xmlns="http://www.w3.org/2000/svg" data-name="Weather 26"><path d="m291.5699 79.0995c1.4189.4407 3.0193.238 4.2884-.5284 10.5322-6.4047 22.078-9.6519 34.3165-9.6519 27.278 0 51.5206 16.3288 61.7619 41.5985.06.1482.1266.2935.2002.4346.7826 1.5117 2.3169 2.5705 3.9919 2.7995l-.0005.002c47.2584 6.2645 82.8955 46.9967 82.8955 94.7448v.1134c-.006 5.094-5.3094 8.433-9.9676 6.3714-5.3848-2.3831-11.0133-4.2001-16.7824-5.4088-2.0778-.4354-3.8351-1.7828-4.8259-3.6603-10.608-20.1026-31.3701-32.781-54.4907-32.781-7.2483 0-14.4035 1.2744-21.1492 3.7343-3.2679 1.1917-6.8975-.2577-8.5623-3.3119-6.7576-12.3967-16.2953-23.0733-28.0303-31.284-15.4484-10.8096-33.6161-16.5224-52.5382-16.5224-23.9007 0-46.5288 9.1386-63.7168 25.7326-15.0451 14.5261-24.5341 33.4079-27.2311 53.8787-.3671 2.7862-2.3262 5.0672-5.0218 5.8619-13.4512 3.9654-25.6826 11.224-35.7533 21.2812-14.9745 14.9906-23.7268 34.8641-24.645 55.9588-.1207 2.7385-.1081 5.4713.0368 8.1876.2155 4.0405-3.0169 7.4262-7.0632 7.4262h-19.2352c-26.5096 0-52.224-10.981-70.5506-30.1264-18.164-18.9769-27.5415-43.7343-26.4045-69.711 1.0513-23.8861 10.9613-46.3796 27.9028-63.3356 13.6952-13.6947 30.9483-22.8051 49.9026-26.3498 2.4379-.3933 4.3182-2.4808 4.3973-5.016 2.1193-56.5498 48.1338-100.8388 104.7652-100.8388 43.272 0 82.7165 27.0274 98.1796 67.322.594 1.4834 1.8076 2.6058 3.3299 3.0788zm187.5235 153.6231c-10.0734-7.5039-21.959-12.3333-34.373-13.967l.0005-.001c-1.6992-.2309-3.2422-1.3191-4.0156-2.866-.0605-.122-.1165-.2451-.1674-.3711-7.8861-19.4742-26.5625-32.0576-47.5806-32.0576-9.4033 0-18.6175 2.5746-26.6467 7.4454l-.001-.001c-1.1597.7009-2.5791.9419-3.9158.6252-1.7118-.4044-3.0783-1.6105-3.6919-3.2452-12.0101-31.2296-42.5575-52.2084-76.0244-52.2084-43.983 0-79.7194 34.4022-81.3571 78.3192-.0918 2.4465-1.9216 4.5088-4.2718 4.9525v.002c-14.7198 2.7379-28.1342 9.8122-38.7925 20.4574-13.1411 13.1542-20.8245 30.5963-21.6302 49.1074-.0479 1.0922-.0721 2.1823-.0716 3.2714 0 5.3922.5904 10.7319 1.7613 15.9163 7.5624 33.7538 38.4774 58.247 73.5124 58.247h223.0507c19.808 0 38.4199-7.7106 52.4071-21.7109 14.0038-13.9902 21.7144-32.6021 21.7144-52.4111 0-23.6582-10.9003-45.3469-29.9066-59.5045zm-122.6788 250.8628v-28.987c0-1.8658-.9954-3.5899-2.6112-4.5228l-25.1031-14.4935c-1.6158-.9329-3.6066-.9329-5.2225 0l-25.1036 14.4935c-1.6158.9329-2.6112 2.657-2.6112 4.5228v28.987c0 1.8658.9954 3.5899 2.6112 4.5228l25.1036 14.4935c1.6158.9329 3.6066.9329 5.2225 0l25.1031-14.4935c1.6158-.9329 2.6112-2.657 2.6112-4.5228zm-116.6669-46.1003v-17.513c0-1.8657-.9953-3.5898-2.6111-4.5227l-15.1669-8.7572c-1.6159-.933-3.6068-.933-5.2227 0l-15.1669 8.7572c-1.6158.9329-2.6111 2.657-2.6111 4.5227v17.513c0 1.8658.9954 3.5899 2.6113 4.5228l15.1669 8.7565c1.6158.9329 3.6066.9329 5.2224 0l15.1669-8.7565c1.6158-.9329 2.6113-2.657 2.6113-4.5228zm-113.5206-14.9059v-28.987c0-1.8658-.9954-3.5899-2.6112-4.5228l-25.1036-14.4935c-1.6158-.9329-3.6066-.9329-5.2225 0l-25.1031 14.4935c-1.6158.9329-2.6112 2.657-2.6112 4.5228v28.987c0 1.8658.9954 3.5899 2.6112 4.5228l25.1031 14.4935c1.6158.9329 3.6066.9329 5.2225 0l25.1036-14.4935c1.6158-.9329 2.6112-2.657 2.6112-4.5228zm327.0652 14.9059v-17.513c0-1.8657-.9953-3.5898-2.6111-4.5227l-15.1669-8.7572c-1.6159-.933-3.6068-.933-5.2227 0l-15.1669 8.7572c-1.6158.9329-2.6111 2.657-2.6111 4.5227v17.513c0 1.8658.9954 3.5899 2.6113 4.5228l15.1669 8.7565c1.6158.9329 3.6066.9329 5.2224 0l15.1669-8.7565c1.6158-.9329 2.6113-2.657 2.6113-4.5228z"/></svg>