<?xml version="1.0" encoding="iso-8859-1"?>
<!-- Generator: Adobe Illustrator 19.0.0, SVG Export Plug-In . SVG Version: 6.00 Build 0)  -->
<svg version="1.1" id="Capa_1" xmlns="http://www.w3.org/2000/svg" xmlns:xlink="http://www.w3.org/1999/xlink" x="0px" y="0px"
	 viewBox="0 0 512.001 512.001" style="enable-background:new 0 0 512.001 512.001;" xml:space="preserve">
<path style="fill:#A7B7C6;" d="M332.901,179.108c-44.956-44.956-65.363-105.156-61.246-163.961c0.301-4.294-3.495-7.724-7.752-7.085
	c-43.062,6.464-84.508,26.26-117.662,59.414s-52.95,74.6-59.414,117.662c-0.639,4.257,2.791,8.052,7.085,7.752
	c58.805-4.118,119.005,16.289,163.961,61.246s65.363,105.156,61.246,163.961c-0.301,4.294,3.495,7.724,7.752,7.085
	c43.063-6.464,84.508-26.26,117.662-59.414s52.95-74.6,59.414-117.662c0.639-4.257-2.791-8.052-7.085-7.752
	C438.058,244.47,377.858,224.064,332.901,179.108z"/>
<g>
	<path style="fill:#BBC6D4;" d="M174.953,96.187c27.678-27.678,61.137-46.038,96.49-55.112c-0.452-8.638-0.391-17.297,0.213-25.928
		c0.301-4.294-3.495-7.724-7.752-7.085c-43.062,6.464-84.508,26.26-117.662,59.414s-52.95,74.6-59.414,117.662
		c-0.639,4.257,2.791,8.052,7.085,7.752c8.631-0.604,17.29-0.665,25.928-0.213C128.914,157.323,147.275,123.865,174.953,96.187z"/>
	<path style="fill:#BBC6D4;" d="M361.612,207.819c38.359,38.359,87.815,58.829,138.033,61.458
		c1.795-6.994,3.234-14.061,4.302-21.172c0.639-4.257-2.791-8.052-7.085-7.752c-52.469,3.674-106.038-12.194-148.91-47.586
		C352.227,197.944,356.768,202.975,361.612,207.819z"/>
	<path style="fill:#BBC6D4;" d="M286.585,282.845c-4.844-4.844-9.875-9.386-15.051-13.66c35.392,42.871,51.26,96.441,47.586,148.91
		c-0.301,4.294,3.495,7.724,7.752,7.085c7.112-1.068,14.178-2.507,21.172-4.302C345.414,370.66,324.944,321.204,286.585,282.845z"/>
</g>
<path style="fill:#CC8B6A;" d="M16.135,495.873L16.135,495.873c-10.88-10.88-10.88-28.518,0-39.398L336.681,135.93
	c7.232-7.232,18.956-7.232,26.188,0l13.21,13.21c7.232,7.232,7.232,18.956,0,26.188L55.532,495.873
	C44.653,506.753,27.014,506.753,16.135,495.873z"/>
<path style="fill:#AD755C;" d="M376.078,149.14l-13.21-13.21c-7.125-7.125-18.6-7.215-25.854-0.302
	c0.109,0.104,0.226,0.194,0.333,0.302l13.21,13.21c7.232,7.232,7.232,18.956,0,26.188L30.011,495.873
	c-2.094,2.094-4.44,3.781-6.938,5.069c10.482,5.404,23.674,3.717,32.459-5.069l320.546-320.546
	C383.31,168.096,383.31,156.371,376.078,149.14z"/>
<rect x="267.268" y="142.51" transform="matrix(-0.7071 -0.7071 0.7071 -0.7071 350.4531 578.9254)" style="fill:#96ABBC;" width="55.715" height="148.743"/>
<path style="fill:#8A9FAD;" d="M328.015,144.596l-13.115,13.115l0,0c14.515,14.515,14.515,38.049,0,52.564l-65.778,65.778
	l13.115,13.116l105.174-105.174L328.015,144.596z"/>
<path d="M508.08,237.072c-3.032-3.283-7.324-4.989-11.775-4.675c-46.449,3.256-92.345-9.437-130.191-35.826l6.938-6.938
	c0.003-0.003,0.005-0.006,0.007-0.008l8.658-8.658c5.004-5.004,7.76-11.658,7.76-18.733c0-7.077-2.756-13.731-7.76-18.732
	l-13.211-13.212c-10.33-10.329-27.136-10.329-37.466,0l-8.666,8.666l0,0l-5.2,5.2l-1.743,1.743
	c-26.391-37.849-39.076-83.727-35.823-130.195c0.312-4.451-1.392-8.743-4.675-11.775c-3.308-3.055-7.763-4.42-12.216-3.753
	c-46.536,6.985-88.764,28.307-122.118,61.661c-33.355,33.355-54.677,75.582-61.662,122.118c-0.669,4.456,0.699,8.909,3.754,12.216
	c3.033,3.284,7.332,4.994,11.775,4.675c46.474-3.248,92.347,9.431,130.195,35.823L50.579,410.753c-3.115,3.115-3.115,8.165,0,11.28
	c1.557,1.557,3.598,2.336,5.64,2.336s4.082-0.779,5.64-2.336L222.841,261.05l28.118,28.118L49.893,490.234
	c-7.753,7.753-20.367,7.753-28.119,0c-3.756-3.755-5.824-8.748-5.824-14.059c0-5.311,2.068-10.304,5.824-14.058l18.018-18.018
	c3.115-3.115,3.115-8.165,0-11.28c-3.114-3.113-8.165-3.113-11.279,0l-18.018,18.018C3.728,457.605,0,466.603,0,476.175
	s3.728,18.569,10.496,25.338c6.986,6.985,16.162,10.478,25.338,10.478c9.177,0,18.352-3.493,25.338-10.478l209.037-209.037l0,0
	l5.134-5.134c26.393,37.849,39.076,83.722,35.822,130.196c-0.312,4.45,1.392,8.741,4.674,11.774
	c2.756,2.546,6.308,3.921,9.997,3.921c0.736,0,1.479-0.055,2.221-0.166c46.535-6.985,88.763-28.307,122.118-61.661
	s54.677-75.581,61.662-122.118C512.503,244.832,511.135,240.379,508.08,237.072z M357.229,141.569l13.211,13.212
	c1.991,1.991,3.087,4.638,3.087,7.454c0,2.815-1.097,5.464-3.088,7.454l-3.026,3.026l-28.118-28.118l3.026-3.026
	C346.43,137.459,353.12,137.46,357.229,141.569z M94.945,184.827c6.703-42.548,26.369-81.145,56.937-111.713
	c30.565-30.565,69.167-50.232,111.712-56.936c-3.171,50.52,11.127,100.313,40.405,141.155L236.1,225.232
	C195.256,195.952,145.471,181.652,94.945,184.827z M438.894,360.126c-30.567,30.568-69.167,50.234-111.713,56.937
	c3.174-50.528-11.124-100.311-40.405-141.156l27.131-27.131c3.115-3.115,3.115-8.165,0-11.28c-3.114-3.113-8.165-3.113-11.279,0
	l-31.348,31.348c-0.474,0.378-0.89,0.8-1.254,1.254l-7.789,7.789l-28.119-28.118l93.897-93.897l28.118,28.118L353,187.124
	c-0.004,0.004-0.008,0.009-0.013,0.014l-20.561,20.56c-3.115,3.114-3.115,8.165,0,11.279c3.114,3.115,8.165,3.114,11.279,0.001
	l10.969-10.969c40.84,29.276,90.649,43.572,141.157,40.403C489.128,290.962,469.46,329.559,438.894,360.126z"/>
<path d="M459.754,266.161c-4.155-1.458-8.709,0.722-10.171,4.877c-8.139,23.127-21.123,43.712-38.595,61.185
	c-17.663,17.663-38.497,30.735-61.923,38.852c-4.162,1.442-6.367,5.986-4.925,10.147c1.142,3.298,4.231,5.367,7.535,5.367
	c0.866,0,1.747-0.142,2.612-0.441c25.723-8.913,48.595-23.261,67.979-42.646c19.172-19.173,33.425-41.772,42.363-67.17
	C466.092,272.177,463.909,267.623,459.754,266.161z"/>
<path d="M235.676,47.378c-25.397,8.937-47.995,23.19-67.168,42.362c-20.396,20.396-35.18,44.574-43.942,71.864
	c-1.346,4.194,0.962,8.686,5.156,10.032c0.811,0.261,1.631,0.384,2.44,0.384c3.372,0,6.506-2.156,7.592-5.539
	c7.979-24.852,21.447-46.876,40.034-65.461c17.471-17.471,38.057-30.456,61.184-38.594c4.155-1.462,6.338-6.016,4.876-10.171
	C244.384,48.1,239.833,45.92,235.676,47.378z"/>
<g>
</g>
<g>
</g>
<g>
</g>
<g>
</g>
<g>
</g>
<g>
</g>
<g>
</g>
<g>
</g>
<g>
</g>
<g>
</g>
<g>
</g>
<g>
</g>
<g>
</g>
<g>
</g>
<g>
</g>
</svg>
