<svg viewBox="0 0 64 64" xmlns="http://www.w3.org/2000/svg"><g id="Tornado_Warning" data-name="Tornado Warning"><path d="m58.59 17.78c-.22-1.56-1.81-3.13-4.34-3.81 0 0 3.66-1.86 3.05-4.6-.83-3.73-11.61-4.52-24.09-1.75-3.07.68-5.97 1.46-8.58 2.32l2 3.38a59.71024 59.71024 0 0 1 7.75-2.17c8.31-1.75995 15.38-1.68 15.78.2.39 1.87-6.02 4.82-14.34 6.59-2.07.44-4.06.76-5.88.97l1.84 3.1a.18853.18853 0 0 1 -.02-.08.99342.99342 0 0 1 .84-1.13 62.23616 62.23616 0 0 0 6.43-1.31 59.00366 59.00366 0 0 0 8.21-2.7.99926.99926 0 0 1 .78 1.84 61.6924 61.6924 0 0 1 -8.49 2.8 66.33319 66.33319 0 0 1 -6.64 1.35c-.05 0-.1.01-.15.01a.97446.97446 0 0 1 -.64-.24l.97 1.64a3.61411 3.61411 0 0 1 -3.11 5.45h-10.73a11.0352 11.0352 0 0 0 5.01.93 6.93934 6.93934 0 0 0 -.1 1.11c.12 2.32 4.26 2.62 4.26 2.62-1.41 1.05-2.16 2.23-1.98 3.34.25 1.61 2.37 2.73 5.4 3.13 0 0-1.38 1.54-1.08 2.67.43 1.61 3.42 2.61 7.56 2.48a2.47415 2.47415 0 0 0 -.18 2.55 6.90433 6.90433 0 0 0 2.14 1.6 4.55452 4.55452 0 0 1 1.73 2.08 4.80368 4.80368 0 0 1 -.31 3.14 4.94282 4.94282 0 0 0 .03 2.67c.02.07.36 1.02.38 1.02.29-.19.59-.37.87994-.57a21.25483 21.25483 0 0 0 7.77-9.22c.65-1.54.89-3.14-.06-4.44a4.43276 4.43276 0 0 0 -2.39-1.55 8.64156 8.64156 0 0 0 1.29-.96 2.19169 2.19169 0 0 0 .69-2.68c-.69-1.06-2.01-1.6-3.07-2.2a7.75676 7.75676 0 0 0 1.82-2.71 1.94173 1.94173 0 0 0 -.5-1.65c-.07-.09-.48-.49-.65-.7 4.44-1.47 6.57-3.78 6.26-5.72a2.90222 2.90222 0 0 0 -1.51-1.93c4.62006-1.99 6.39006-3.82 5.97006-6.87zm-8.25-.34a1 1 0 1 1 0-2 1 1 0 0 1 0 2z"/><path d="m31.35 25.21-3.61-6.09-3-5.06-2.05-3.45-2.85-4.8a1.60291 1.60291 0 0 0 -2.76 0l-11.5 19.4a1.61221 1.61221 0 0 0 1.38 2.43h23a1.61326 1.61326 0 0 0 1.39-2.43zm-12.88723-1.42722a.99817.99817 0 1 1 .99817-.99817.99818.99818 0 0 1 -.99817.99817zm1.00012-4.44049a1 1 0 0 1 -2 0v-7.125a1 1 0 1 1 2 0z"/></g></svg>