<svg id="Capa_1" enable-background="new 0 0 512.002 512.002" height="512" viewBox="0 0 512.002 512.002" width="512" xmlns="http://www.w3.org/2000/svg"><g><path d="m371.288 461.608c-5.353-11.552-16.071-19.534-28.674-21.351l-27.517-3.967c-13.213-1.905-24.089-11.439-27.706-24.29-3.539-12.567-5.334-25.562-5.334-38.621v-50.974c0-4.143-3.357-7.5-7.5-7.5s-7.5 3.357-7.5 7.5v50.974c0 14.434 1.983 28.796 5.895 42.687 5.224 18.554 20.927 32.32 40.005 35.07l27.517 3.967c7.562 1.091 13.993 5.88 17.205 12.811l13.406 29.077-22.702-24.643c-3.304-3.587-7.995-5.644-12.872-5.644h-42.457c-4.859 0-9.534 1.78-13.164 5.014-6.683 5.954-8.535 15.693-4.505 23.682l.68 1.351c.08.135-.065.304-.238.229l-15.887-8.963c-7.542-4.255-14.014-10.349-18.714-17.622-.914-1.414-1.977-2.713-3.157-3.888v-103.439c0-4.143-3.358-7.5-7.5-7.5s-7.5 3.357-7.5 7.5v96.604c-5.501-.382-11.04 1.177-15.533 4.442-7.885 5.729-17.189 9.146-26.907 9.881l-43.477 3.287c-3.634.274-7.038 1.649-9.843 3.973l-18.365 15.213 9.558-20.39c1.62-3.457 4.678-5.953 8.388-6.848l24.766-5.971c9.038-2.179 17.398-6.098 24.849-11.647 3.322-2.474 4.009-7.173 1.535-10.495-2.474-3.321-7.173-4.008-10.495-1.534-5.818 4.333-12.346 7.393-19.404 9.095l-24.766 5.971c-8.164 1.969-14.89 7.458-18.455 15.062l-9.944 21.215c-2.16 4.607-1.819 9.922.911 14.217s7.398 6.858 12.487 6.858c3.438 0 6.791-1.208 9.438-3.4l19.067-15.794c.4-.332.886-.528 1.405-.567l43.477-3.287c12.494-.944 24.456-5.337 34.594-12.703 1.93-1.403 4.285-1.934 6.63-1.498 2.345.438 4.349 1.781 5.644 3.785 6.013 9.304 14.292 17.1 23.941 22.544l15.885 8.962c2.27 1.281 4.849 1.959 7.457 1.959 5.308 0 10.137-2.698 12.92-7.218 2.782-4.52 3.018-10.047.628-14.785l-.681-1.352c-.975-1.933-.527-4.289 1.089-5.729.879-.783 2.011-1.214 3.187-1.214h42.457c.697 0 1.367.294 1.839.807l22.702 24.643c2.838 3.081 6.867 4.848 11.055 4.848 5.156 0 9.892-2.594 12.667-6.939s3.139-9.731.971-14.409z"/><path d="m147.322 245.803c5.477 8.526 13.139 15.476 22.158 20.097l16.848 8.633c4.195 2.149 6.8 6.412 6.8 11.125v85.357c.013 13.994-2.437 30.034-7.279 43.988-1.418 3.892.587 8.196 4.479 9.614.848.309 1.715.455 2.567.455 3.062 0 5.938-1.89 7.047-4.935 5.046-14.322 8.277-32.852 8.186-49.123v-85.357c0-10.367-5.732-19.745-14.959-24.475l-16.849-8.633c-6.667-3.416-12.33-8.552-16.378-14.854l-36.324-56.548c-1.617-2.519-3.866-4.59-6.501-5.99l-55.432-29.475 59.704 20.308c.003.001.005.002.008.003h.001c6.422 2.184 11.915 6.246 15.885 11.746l37.095 51.388c3.961 5.487 9.782 9.31 16.391 10.763l23.636 5.198c.005.001.009.002.014.003l11.789 2.593c6.191 1.36 12.713.53 18.366-2.343l55.833-28.376c5.77-2.931 10.338-7.827 12.863-13.787l10.556-24.914c4.58-10.812 1.788-23.347-6.948-31.191l-49.948-44.848c-4.589-4.119-8.384-8.97-11.279-14.415l-28.704-53.978c-.019-.037-.052-.098-.016-.201s.098-.132.137-.148c.111-.048.242-.013.31.087l34.37 49.919c3.128 4.543 6.989 8.476 11.477 11.688l32.009 22.912c3.3 2.361 7.878 1.672 10.334-1.558l21.732-28.562c2.508-3.296 1.869-8.002-1.428-10.51-3.296-2.508-8.002-1.869-10.51 1.428l-17.322 22.763-26.086-18.672c-3.07-2.197-5.712-4.888-7.852-7.996-6.729-9.773-6.926-22.534-.501-32.51l15.897-24.687c2.242-3.482 1.237-8.123-2.245-10.366s-8.124-1.238-10.366 2.245l-15.897 24.686c-2.676 4.155-4.587 8.63-5.746 13.242l-15.512-22.529c-4.172-6.059-12.074-8.279-18.787-5.274-3.844 1.718-6.833 4.986-8.2 8.968-1.368 3.982-1.019 8.398.958 12.117l28.704 53.979c3.724 7.001 8.603 13.237 14.502 18.534l16.136 14.488-11.681 15.391c-4.954 6.528-9.009 13.655-12.117 21.158-3.805-10.189-10.429-19.105-19.331-25.782l-12.398-9.299c-15.386-11.552-22.036-31-16.942-49.554l4.975-18.121c1.097-3.994-1.252-8.121-5.247-9.218-3.994-1.095-8.122 1.253-9.218 5.247l-4.975 18.121c-2.7 9.833-2.899 19.856-.865 29.321l-10.981-8.236c-.615-.461-.979-1.166-.999-1.934l-2.122-80.226c-.219-8.267-6.868-14.742-15.137-14.742-7.9 0-14.534 6.172-15.103 14.052l-3.174 43.956c-6.74-8.384-15.935-14.872-26.819-18.332l-13.018-4.139-11.416-30.653c-1.445-3.882-5.763-5.856-9.646-4.411-3.882 1.445-5.857 5.764-4.411 9.646l7.316 19.648-25.558-8.125c-3.946-1.251-8.165.929-9.42 4.875-1.255 3.947.928 8.165 4.875 9.42l56.731 18.036c18.22 5.792 29.983 23.155 28.606 42.225-.893 12.364 4.368 24.35 14.074 32.062l10.65 8.462c3.242 2.577 7.961 2.036 10.538-1.206 2.577-3.243 2.037-7.961-1.207-10.538l-10.65-8.462c-5.823-4.627-8.98-11.818-8.444-19.237l5.932-82.144c.011-.152.28-.146.284.007l2.122 80.227c.143 5.376 2.692 10.31 6.994 13.536l43.253 32.44c.006.004.011.009.017.013.001.001.003.002.004.003l12.377 9.282c9.033 6.774 14.911 16.658 16.552 27.845 1.715 11.506 5.728 38.657 7.411 49.874l-7.099 3.608c-2.57 1.307-5.535 1.684-8.348 1.065l-6.111-1.344c-.171-11.254-.541-35.575-.709-46.603-.171-11.279-5.335-21.772-14.167-28.79l-12.367-9.826c-3.243-2.579-7.962-2.038-10.538 1.206-2.577 3.243-2.037 7.961 1.207 10.538l12.367 9.826c5.299 4.21 8.397 10.507 8.5 17.274l.13 8.579-51.35-15.31-6.947-9.623c-5.803-8.039-13.832-13.976-23.218-17.168-18.62-6.333-32.262-21.966-36.253-40.865-.007-.035-.015-.07-.022-.105-.474-2.266-.818-4.576-1.006-6.926l-2.022-25.26c-.331-4.129-3.95-7.225-8.075-6.877-4.129.33-7.208 3.945-6.877 8.074l1.65 20.614-44.89-18.827c-3.82-1.601-8.215.197-9.817 4.016-1.602 3.82.196 8.215 4.016 9.816l53.262 22.335c1.932 7.173 4.979 13.918 8.96 20.031l-21.402-7.279c-7.442-2.528-15.477 1.235-18.3 8.584-2.58 6.088.198 14.956 6.792 18.524l57.833 30.752c.377.2.687.486.921.852l14.06 21.889c-12.471-3.827-26.149-3.798-39.275.68l-54.228-36.541c-3.435-2.314-8.096-1.406-10.411 2.028-2.314 3.436-1.406 8.097 2.029 10.411l45.116 30.401-18.934 6.848c-3.896 1.408-5.911 5.708-4.502 9.604 1.409 3.895 5.709 5.912 9.604 4.502l35.29-12.764c21.526-7.787 45.203.229 57.576 19.491zm110.075-35.248c-2.359-20.594 3.361-41.68 15.915-58.221l10.931-14.404 22.613 20.303c3.971 3.566 5.239 9.264 3.158 14.179l-10.556 24.914c-1.148 2.709-3.224 4.934-5.847 6.266l-34.634 17.602zm-49.415-.938.285 18.761-14.276-3.14c-3.004-.66-5.65-2.397-7.45-4.892l-15.75-21.819z"/><path d="m487.012 151.439-52.167-5.884-5.977-7.347c-5.915-7.27-14.247-11.9-23.193-13.335 1.221-1.57 2.374-3.204 3.439-4.912l5.156-8.271 36.997-1.62c4.138-.182 7.346-3.684 7.165-7.821-.182-4.139-3.72-7.343-7.821-7.165l-26.718 1.17 8.134-13.05c2.19-3.516 1.117-8.142-2.397-10.333-3.515-2.188-8.142-1.118-10.333 2.397l-22.912 36.759c-5.744 9.216-14.697 15.793-25.211 18.521l-16.17 4.19c-2.775.718-5.747.051-7.946-1.789-3.523-2.945-4.234-8.032-1.655-11.832l15.403-22.686c5.62-8.278 8.443-17.928 8.181-27.924 0-.006.001-.011.001-.017 0-11.559 6.885-21.922 17.538-26.403 10.486-4.41 31.704-13.334 42.044-17.683 3.818-1.605 5.612-6.003 4.006-9.82-1.605-3.819-6.005-5.611-9.82-4.006l-13.625 5.73-2.418-12.257c-.802-4.063-4.747-6.708-8.81-5.907-4.064.802-6.709 4.746-5.907 8.81l3.017 15.292-14.303 6.014c-4.784 2.012-9.065 4.807-12.73 8.194l-.372-11.802c-.244-7.779-6.283-14.064-14.048-14.622-7.892-.575-14.947 5.129-16.065 12.962l-3.492 24.502c-.585 4.101 2.266 7.899 6.366 8.483 4.104.586 7.898-2.267 8.483-6.366l3.492-24.501c.01-.071.07-.114.144-.119.07.005.126.062.128.133l1.374 43.603c.217 6.901-1.718 13.568-5.596 19.279l-15.403 22.686c-6.925 10.2-5.015 23.856 4.442 31.765 5.904 4.938 13.881 6.735 21.331 4.803l16.159-4.187h.002c.002 0 .004-.001.006-.001l19.203-4.976c8.495-2.199 17.56.775 23.098 7.582l30.505 37.495-35.173-29.914c-4.251-3.616-10.026-4.993-15.448-3.68l-36.919 8.921c-9.064 2.19-16.339 8.745-19.458 17.534l-11.057 31.162c-.002.004-.003.009-.005.013 0 .001-.001.003-.001.004-2.898 8.167-8.143 15.165-15.169 20.238l-36.05 26.037c-7.138 5.154-11.399 13.489-11.399 22.294v9.627c0 4.143 3.357 7.5 7.5 7.5s7.5-3.357 7.5-7.5v-9.627c0-4.002 1.937-7.791 5.182-10.134l36.05-26.037c9.505-6.864 16.601-16.332 20.522-27.38.001-.002.002-.003.002-.005 2.906-8.192 11.521-13.074 20.04-11.347l11.729 2.371 16.741 44.923c1.125 3.019 3.987 4.883 7.029 4.883.87 0 1.755-.152 2.618-.474 3.881-1.447 5.855-5.766 4.409-9.647l-13.485-36.186 12.896 2.606c4.064.823 8.017-1.806 8.838-5.866.82-4.06-1.806-8.016-5.865-8.837l-41.938-8.477c-4.699-.948-9.411-.807-13.858.249l1.908-5.376c1.417-3.995 4.724-6.974 8.845-7.97l36.92-8.921c.774-.187 1.598.009 2.205.525l36.281 30.857c5.647 4.805 14.063 4.687 19.578-.274 5.893-5.306 6.59-14.28 1.585-20.433l-11.923-14.656 36.964 4.169c.286.032.569.048.851.048 3.765 0 7.011-2.83 7.443-6.66.464-4.116-2.496-7.829-6.613-8.294z"/><path d="m237.057 289.002v30c0 4.143 3.358 7.5 7.5 7.5s7.5-3.357 7.5-7.5v-30c0-4.143-3.358-7.5-7.5-7.5s-7.5 3.357-7.5 7.5z"/></g></svg>