<svg id="Layer_1" enable-background="new 0 0 450 450" height="512" viewBox="0 0 450 450" width="512" xmlns="http://www.w3.org/2000/svg"><g><g><g><g id="XMLID_1_"><path d="m390.54 147.56c0 6.14-5 11.13-11.13 11.13h-23.8c-1.83 0-3.51 1.02-4.38 2.63-.87 1.62-.78 3.58.24 5.11 1.21 1.83 1.86 3.95 1.86 6.13 0 6.13-5 11.13-11.13 11.13h-51.09c-6.13 0-11.13-5-11.13-11.13 0-6.14 5-11.13 11.13-11.13h23.8c1.83 0 3.51-1.02 4.39-2.63.87-1.62.77-3.58-.25-5.11-1.21-1.83-1.86-3.94-1.86-6.13 0-6.13 5-11.13 11.13-11.13h51.09c6.13 0 11.13 5 11.13 11.13z"/><path d="m244.06 140.04c0 3.4-2.77 6.18-6.17 6.18-9.17 0-18.33-.01-27.5-.02s-18.33-.02-27.51-.02c-9.78 0-17.75 7.96-17.75 17.76 0 9.78 7.96 17.75 17.75 17.75h45.93c3.17 0 5.74 2.58 5.74 5.74 0 3.17-2.58 5.74-5.74 5.74h-21.72c-.28 0-.57.02-.85.07-10.6 1.84-12.13 10.72-13.15 16.6-1.19 6.87-1.75 7.05-4.92 6.92-.07 0-.13-.01-.2-.01h-107.75c-4.04 0-7.32-3.27-7.32-7.32 0-4.03 3.27-7.32 7.32-7.32 9.36 0 18.74.02 28.13.04 9.37.01 18.72.03 28.02.03 8.66 0 15.7-7.04 15.7-15.7 0-8.65-7.04-15.69-15.7-15.69h-59.22c-4.01 0-7.27-3.26-7.27-7.28 0-4 3.25-7.27 7.27-7.27h30.55c8.47 0 15.36-6.89 15.36-15.36s-6.89-15.36-15.36-15.36l-34.97-.01c-4.33 0-7.85-3.51-7.85-7.84s3.52-7.85 7.85-7.85h109.28c2.7 0 6.77 0 7.6.82.93.9 1.6 4.36 2.01 10.31.39 12.96 11.82 12.92 17.3 12.9h28.97c3.4.01 6.17 2.78 6.17 6.19z"/><path d="m183.92 264.37c0 6.14-4.99 11.13-11.13 11.13h-23.79c-1.83 0-3.52 1.02-4.39 2.63-.87 1.62-.77 3.58.25 5.11 1.21 1.83 1.85 3.95 1.85 6.13 0 6.13-4.99 11.13-11.12 11.13h-51.09c-6.14 0-11.13-5-11.13-11.13 0-6.14 4.99-11.13 11.13-11.13h23.79c1.84 0 3.52-1.02 4.39-2.63.87-1.62.78-3.58-.25-5.11-1.21-1.83-1.85-3.94-1.85-6.13 0-6.13 4.99-11.13 11.13-11.13h51.08c6.14 0 11.13 5 11.13 11.13z"/><path d="m440 269.77c0 4.66-3.79 8.45-8.45 8.45-11.04 0-22.07-.01-33.11-.03-11.04-.01-22.08-.02-33.13-.02-11.22 0-20.36 9.14-20.36 20.37 0 11.22 9.14 20.36 20.36 20.36h55.29c4.38 0 7.93 3.55 7.93 7.93 0 4.37-3.55 7.92-7.93 7.92h-26.14c-.29 0-.58.02-.86.07-12.05 2.09-13.83 12.36-15.01 19.16-1.42 8.24-2.27 9.37-6.95 9.17h-129.91c-5.42 0-9.82-4.41-9.82-9.82 0-5.42 4.4-9.83 9.82-9.83 11.26 0 22.56.03 33.86.05 11.28.02 22.55.04 33.73.04 9.86 0 17.89-8.02 17.89-17.88s-8.02-17.89-17.89-17.89h-71.3c-5.38 0-9.76-4.38-9.76-9.76s4.38-9.76 9.76-9.76h36.78c9.64 0 17.48-7.84 17.48-17.48s-7.84-17.47-17.48-17.47l-42.1-.01c-5.76 0-10.46-4.7-10.46-10.47s4.7-10.46 10.46-10.46h131.57c4.85 0 8.66.09 9.87 1.26 1.94 1.88 2.51 9.93 2.73 13.09.42 14.64 13.06 14.6 19.81 14.57h34.87c4.66-.01 8.45 3.78 8.45 8.44z"/><path d="m342.99 103.06c0 2.75-2.23 4.98-4.98 4.98h-100.55c-2.75 0-4.98-2.23-4.98-4.98s2.23-4.98 4.98-4.98h100.55c2.75 0 4.98 2.23 4.98 4.98z"/><path d="m293.78 69.9c0 2.75-2.22 4.98-4.98 4.98h-100.54c-2.75 0-4.98-2.23-4.98-4.98s2.23-4.98 4.98-4.98h100.54c2.76 0 4.98 2.23 4.98 4.98z"/><path d="m169.71 346.94c0 2.75-2.23 4.98-4.98 4.98h-100.55c-2.75 0-4.98-2.23-4.98-4.98s2.23-4.98 4.98-4.98h100.55c2.75.01 4.98 2.24 4.98 4.98z"/><path d="m120.5 380.1c0 2.75-2.22 4.98-4.98 4.98h-100.54c-2.75 0-4.98-2.23-4.98-4.98s2.23-4.98 4.98-4.98h100.54c2.76 0 4.98 2.23 4.98 4.98z"/></g></g></g></g></svg>