<?xml version="1.0" encoding="UTF-8"?>
<svg xmlns="http://www.w3.org/2000/svg" viewBox="0 0 512 512" width="512" height="512"><g id="Layer_7" data-name="Layer 7"><path d="M485.961,238.891a55.75,55.75,0,0,0-16-56,55.759,55.759,0,0,0-11.6-51.483,56.129,56.129,0,0,0-28.223-17.542,55.851,55.851,0,0,0-73.968-38.2A56.05,56.05,0,0,0,306.58,40.059a55.93,55.93,0,0,0-101.16,0,56.05,56.05,0,0,0-49.586,35.605,55.918,55.918,0,0,0-73.969,38.2A55.968,55.968,0,0,0,40,168a55.406,55.406,0,0,0,2.039,14.891,55.75,55.75,0,0,0-16,56A55.4,55.4,0,0,0,8,280a56,56,0,0,0,102.67,30.953,79.85,79.85,0,0,0,72.475,13.614l16.112,22.556A89.393,89.393,0,0,1,216,399.37,90.449,90.449,0,0,1,198.021,453.3L169.6,491.2A8,8,0,0,0,176,504h56a8,8,0,0,0,2.971-.572l36.092-14.437,20.5,13.665A8,8,0,0,0,296,504h40a8,8,0,0,0,6.4-12.8l-28.421-37.9A90.449,90.449,0,0,1,296,399.37a89.393,89.393,0,0,1,16.743-52.247l16.111-22.556a79.852,79.852,0,0,0,72.476-13.614,55.985,55.985,0,1,0,84.631-72.062ZM299.724,337.823A105.3,105.3,0,0,0,280,399.37,106.554,106.554,0,0,0,301.178,462.9L320,488H298.422l-21.984-14.656a8,8,0,0,0-7.409-.772L230.459,488H192l18.822-25.1A106.554,106.554,0,0,0,232,399.37a105.3,105.3,0,0,0-19.724-61.547l-14-19.6a80.132,80.132,0,0,0,18.549-13.965c.974.4,1.953.778,2.935,1.148l29.089,58.177a8,8,0,0,0,14.31,0L292.244,305.4c.981-.369,1.96-.747,2.934-1.147a80.125,80.125,0,0,0,18.549,13.965ZM240.346,310.8a103,103,0,0,0,31.308,0L256,342.111ZM448,320a39.869,39.869,0,0,1-37.013-24.861,8,8,0,0,0-13.137-2.546,63.872,63.872,0,0,1-94.574-3.162,8,8,0,0,0-9.532-2.036,87.083,87.083,0,0,1-75.489,0,8,8,0,0,0-9.532,2.036,63.872,63.872,0,0,1-94.574,3.162,8,8,0,0,0-13.137,2.546A39.983,39.983,0,1,1,40.141,247.96a8,8,0,0,0,2.66-9.34,39.784,39.784,0,0,1,13.34-46.66,8,8,0,0,0,2.66-9.34,39.867,39.867,0,0,1,31.046-54.09,8,8,0,0,0,6.683-6.683,39.87,39.87,0,0,1,60.185-28.008A8,8,0,0,0,168.73,88.5,40,40,0,0,1,208,56c.476,0,.941.038,1.409.07l.877.056a8.026,8.026,0,0,0,8-5.341,39.939,39.939,0,0,1,75.422,0,7.992,7.992,0,0,0,8,5.341l.874-.056c.468-.032.935-.07,1.411-.07a40,40,0,0,1,39.269,32.5,7.961,7.961,0,0,0,.554,1.756A15.99,15.99,0,0,1,312,88H296a32,32,0,0,0,63.808,3.478,39.835,39.835,0,0,1,55.661,30.369,8,8,0,0,0,6.683,6.683A39.867,39.867,0,0,1,453.2,182.62a8,8,0,0,0,2.66,9.34,39.784,39.784,0,0,1,13.34,46.66,8,8,0,0,0,2.66,9.34A39.957,39.957,0,0,1,448,320Z"/><path d="M360,224a24.028,24.028,0,0,1-24-24,8,8,0,0,0-16,0,16,16,0,0,1-32,0H272a31.985,31.985,0,0,0,54.857,22.374A39.991,39.991,0,0,0,400,200H384A24.028,24.028,0,0,1,360,224Z"/><path d="M184,192a24.028,24.028,0,0,1-24-24H144a40,40,0,0,0,80,0H208A24.028,24.028,0,0,1,184,192Z"/><path d="M96,256a16.019,16.019,0,0,1-16-16H64a32,32,0,0,0,64,0H112A16.019,16.019,0,0,1,96,256Z"/></g></svg>
