<?xml version="1.0" encoding="iso-8859-1"?>
<!-- Generator: Adobe Illustrator 19.0.0, SVG Export Plug-In . SVG Version: 6.00 Build 0)  -->
<svg version="1.1" id="Capa_1" xmlns="http://www.w3.org/2000/svg" xmlns:xlink="http://www.w3.org/1999/xlink" x="0px" y="0px"
	 viewBox="0 0 511.989 511.989" style="enable-background:new 0 0 511.989 511.989;" xml:space="preserve">
<g>
	<g>
		<path d="M511.634,390.173c-0.077-0.239-0.205-0.461-0.299-0.7c-0.285-0.722-0.667-1.403-1.135-2.022
			c-0.102-0.137-0.128-0.307-0.247-0.444c-0.12-0.137-0.273-0.188-0.401-0.307c-0.128-0.119-0.316-0.435-0.521-0.614l-59.733-51.2
			c-2.296-2.121-5.567-2.817-8.527-1.815c-2.96,1.002-5.136,3.543-5.671,6.622c-0.535,3.079,0.656,6.205,3.105,8.147l42.223,36.156
			H297.815c-3.452-16.744-16.536-29.828-33.28-33.28v-34.987c9.975,0,19.678-0.35,29.013-1.058
			c22.699-1.801,46.199-5.12,64.171-17.143c20.548-13.833,22.468-41.19,22.34-52.318c-1.087-29.41-8.065-58.303-20.523-84.966
			c-15.087-1.143-26.735-18.816-26.735-41.37c0-23.296,12.399-41.549,28.228-41.549c4.713,0,8.533,3.82,8.533,8.533
			c0,4.713-3.82,8.533-8.533,8.533c-4.446,0-11.162,9.762-11.162,24.482c0,14.72,6.716,24.491,11.162,24.491
			s11.153-9.762,11.153-24.491c0.043-0.288,0.103-0.573,0.179-0.853c-0.016-0.284-0.016-0.569,0-0.853
			c4.267-20.48,20.386-32.427,44.373-33.101c-6.829-12.057-20.465-18.562-34.133-16.282c-0.31,0.017-0.62,0.017-0.93,0
			c-0.334,0.087-0.673,0.152-1.015,0.196c-0.256,0-0.495-0.128-0.751-0.145c-0.505-0.053-1.005-0.15-1.493-0.29
			c-0.546-0.147-1.075-0.35-1.579-0.606c-0.492-0.254-0.956-0.56-1.382-0.913c-0.297-0.156-0.582-0.332-0.853-0.529
			c-0.162-0.162-0.222-0.384-0.367-0.555c-0.362-0.432-0.677-0.901-0.939-1.399c-0.289-0.495-0.527-1.018-0.708-1.562
			c-0.068-0.213-0.222-0.367-0.273-0.589c-0.017-0.31-0.017-0.62,0-0.93c-0.075-0.566-0.092-1.138-0.051-1.707
			c0.051-0.534,0.151-1.063,0.299-1.579c0.14-0.516,0.331-1.016,0.572-1.493c0.266-0.516,0.587-1.002,0.956-1.451
			c0.196-0.247,0.29-0.546,0.512-0.777l9.771-9.83c4.883-4.817,4.936-12.679,0.119-17.562c-4.816-4.883-12.679-4.936-17.562-0.12
			c-3.332,3.331-8.734,3.331-12.066,0c-2.847-2.88-3.241-7.378-0.939-10.709c-0.204-1.648-0.924-3.189-2.056-4.403
			c-1.976-1.961-4.835-2.745-7.535-2.065c-3.68,1.236-6.092,4.766-5.905,8.644c0,0.188-0.102,0.341-0.111,0.529l2.44,2.458
			c2.874,3.388,2.667,8.415-0.476,11.555s-8.169,3.344-11.556,0.468l-6.485-6.519c-4.423-4.465-11.506-4.863-16.401-0.922
			c-2.763,2.232-4.453,5.529-4.65,9.076c-0.197,3.547,1.117,7.011,3.617,9.535l5.973,5.973c4.949-2.712,10.361-4.477,15.957-5.205
			c4.638-0.523,8.836,2.778,9.421,7.409s-2.657,8.873-7.28,9.521c-32.649,4.122-45.158,63.053-49.024,88.201
			c-2.736,17.677-17.952,30.72-35.84,30.72c-4.886-0.007-9.723-0.967-14.242-2.825c-13.608-6.066-22.287-19.663-22.059-34.56
			v-23.953c-0.84-25.83-9.522-50.793-24.892-71.569c-4.861-6.837-13.361-10.073-21.538-8.201
			c-6.002,1.474-10.998,5.615-13.56,11.238c-2.624,5.657-2.52,12.203,0.282,17.775c0.128,0.265,0.239,0.521,0.341,0.794l2.79,7.373
			l18.611,16.384c3.401,3.146,3.67,8.431,0.607,11.906c-3.063,3.476-8.34,3.872-11.888,0.894l-18.594-16.375
			c-0.933-0.544-1.753-1.262-2.415-2.116l-8.115-7.151c-4.234-3.739-9.843-5.53-15.46-4.938c-5.617,0.592-10.729,3.513-14.091,8.053
			c-3.634,4.858-4.937,11.073-3.562,16.981s5.29,10.909,10.696,13.662l34.731,17.485c2.724,1.372,4.509,4.093,4.683,7.138
			c0.174,3.045-1.29,5.951-3.84,7.625c-2.55,1.673-5.799,1.859-8.523,0.487L101.548,130l-5.666,14.507
			c-5.274,13.937,0.339,29.641,13.252,37.077l26.453,15.846c4.046,2.418,5.366,7.658,2.948,11.703
			c-2.418,4.046-7.658,5.366-11.703,2.948l-15.351-9.25l-0.247,1.254c-2.658,13.253,0.039,27.019,7.501,38.289
			c11.359,17.207,25.381,32.499,41.54,45.303c9.617,7.528,20.195,13.741,31.454,18.475c12.982,5.06,26.721,7.907,40.644,8.422
			c5.086,0.347,10.118,0.614,15.095,0.802v35.336c-16.744,3.452-29.828,16.536-33.28,33.28h-74.121l-31.633-31.633
			c-0.794-0.791-1.737-1.417-2.773-1.843c-1.034-0.429-2.141-0.652-3.26-0.657H8.535c-3.451,0.001-6.562,2.08-7.882,5.268
			c-1.32,3.188-0.591,6.858,1.849,9.298l28.1,28.1l-28.1,28.1c-2.442,2.44-3.173,6.112-1.852,9.301
			c1.322,3.188,4.434,5.266,7.885,5.265h93.867c1.119-0.005,2.226-0.229,3.26-0.657c1.036-0.426,1.979-1.053,2.773-1.843
			l31.633-31.633h74.121c3.452,16.744,16.536,29.828,33.28,33.28v60.587c0,4.713,3.82,8.533,8.533,8.533
			c4.713,0,8.533-3.82,8.533-8.533v-60.587c16.744-3.452,29.828-16.536,33.28-33.28h182.613l-42.223,36.19
			c-2.449,1.942-3.64,5.067-3.105,8.147c0.535,3.079,2.711,5.62,5.671,6.622c2.96,1.002,6.232,0.306,8.527-1.815l59.733-51.2
			c0.154-0.128,0.213-0.316,0.358-0.452c0.52-0.509,0.973-1.083,1.348-1.707c0.177-0.276,0.339-0.561,0.486-0.853
			c0.068-0.171,0.196-0.299,0.256-0.469c0.194-0.589,0.317-1.199,0.367-1.818c0-0.205,0.111-0.393,0.128-0.597
			C512.03,392.118,511.914,391.125,511.634,390.173z M98.868,418.128H29.134l19.567-19.567c3.331-3.332,3.331-8.734,0-12.066
			l-19.567-19.567h69.734l25.6,25.6L98.868,418.128z M256.001,418.128c-14.138,0-25.6-11.462-25.6-25.6
			c0-14.138,11.461-25.6,25.6-25.6c14.138,0,25.6,11.462,25.6,25.6C281.601,406.667,270.14,418.128,256.001,418.128z"/>
	</g>
</g>
<g>
</g>
<g>
</g>
<g>
</g>
<g>
</g>
<g>
</g>
<g>
</g>
<g>
</g>
<g>
</g>
<g>
</g>
<g>
</g>
<g>
</g>
<g>
</g>
<g>
</g>
<g>
</g>
<g>
</g>
</svg>
