<svg id="Layer_1" enable-background="new 0 0 491.5 491.5" viewBox="0 0 491.5 491.5" xmlns="http://www.w3.org/2000/svg"><g><path d="m243.9 293.4c-2-.1-3.7-1.5-4.2-3.3-3.9-12.3-15.6-20.3-28.5-19.3-1.8.1-3.5-.8-4.5-2.3-5-8.4-14.1-13.6-23.9-13.6-8.3 0-16.1 3.7-21.4 10-5.3 6.4-7.5 14.7-6 22.9.3 1.4-.1 2.9-1.1 4-.9 1.1-2.3 1.7-3.8 1.7-.3 0-.6 0-.9 0-7.3 0-14.1 2.8-19.3 7.8-5.4 5.3-8.4 12.4-8.4 20 0 15.3 12.5 27.8 27.8 27.8h92.3c15.3 0 27.8-12.5 27.8-27.8-.1-14.7-11.4-26.9-25.9-27.9z"/><path d="m241.9 239.2c-13.2 0-25 7.8-30.3 19.7.6.7 1.2 1.5 1.7 2.2 15.1.1 28.6 9.2 34.4 23.1 7.6 1.2 14.4 4.6 19.7 9.6 5-5.9 7.8-13.5 7.8-21.4 0-18.3-14.9-33.2-33.3-33.2z"/><path d="m319.1 66c-2.8-1.6-5.3-3.7-7.2-6.3l-37.5 42.7c2.7 1.8 5.2 3.8 7.5 6.1z"/><path d="m209.6 108.4c2.3-2.2 4.8-4.3 7.5-6.1l-37.5-42.7c-1.9 2.6-4.4 4.8-7.2 6.3z"/><path d="m330 59.2c7.1 0 12.9-5.8 12.9-12.9s-5.8-12.9-12.9-12.9-12.9 5.8-12.9 12.9 5.8 12.9 12.9 12.9z"/><path d="m204.4 137.5h82.8c-3.7-19.6-21-34.3-41.4-34.3-20.5 0-37.7 14.7-41.4 34.3z"/><path d="m161.5 59.2c7.1 0 12.9-5.8 12.9-12.9s-5.8-12.9-12.9-12.9-12.9 5.8-12.9 12.9 5.8 12.9 12.9 12.9z"/><path d="m400.7 193c-8.4 0-15.3 6.9-15.3 15.3s6.9 15.3 15.3 15.3 15.3-6.9 15.3-15.3c0-8.5-6.9-15.3-15.3-15.3z"/><path d="m422.7 147.1h-60.4v276.2h60.5c9 0 16.4-7.3 16.4-16.4v-243.5c-.1-9-7.5-16.3-16.5-16.3zm-5.2 240h-33.6c-2.6 0-4.8-2.1-4.8-4.8s2.1-4.8 4.8-4.8h33.6c2.7 0 4.8 2.2 4.8 4.8s-2.2 4.8-4.8 4.8zm0-27.6h-33.6c-2.6 0-4.8-2.2-4.8-4.8 0-2.7 2.1-4.8 4.8-4.8h33.6c2.7 0 4.8 2.2 4.8 4.8s-2.2 4.8-4.8 4.8zm0-27.6h-33.6c-2.6 0-4.8-2.1-4.8-4.8 0-2.6 2.1-4.8 4.8-4.8h33.6c2.7 0 4.8 2.2 4.8 4.8s-2.2 4.8-4.8 4.8zm-16.8-33.6c-13.7 0-24.9-11.2-24.9-24.9s11.2-24.9 24.9-24.9 24.9 11.2 24.9 24.9-11.2 24.9-24.9 24.9zm0-65.1c-13.7 0-24.9-11.2-24.9-24.9s11.2-24.9 24.9-24.9 24.9 11.2 24.9 24.9-11.2 24.9-24.9 24.9z"/><path d="m304.7 187.9h-204.2c-4 0-7.2 3.2-7.2 7.2v180.2c0 4 3.2 7.2 7.2 7.2h204.2c4 0 7.2-3.2 7.2-7.2v-180.2c0-4-3.3-7.2-7.2-7.2zm-7.1 89.3h-13.1c-1 8.9-4.8 17.4-10.9 24.1 3.6 5.8 5.8 12.6 5.8 19.9 0 20.6-16.8 37.4-37.4 37.4h-92.3c-20.6 0-37.4-16.8-37.4-37.4 0-10.2 4-19.7 11.4-26.8 6-5.8 13.6-9.4 21.7-10.3-.3-9.2 2.7-18.2 8.6-25.3 7.1-8.6 17.6-13.5 28.7-13.5 7.8 0 15.3 2.5 21.5 6.9 1.2-2.2 2.6-4.4 4.2-6.3l-9.3-9.3c-1.9-1.9-1.9-4.9 0-6.8s4.9-1.9 6.8 0l9.3 9.3c6.2-4.9 13.8-8.2 21.9-9.1v-13.1c0-2.7 2.1-4.8 4.8-4.8s4.8 2.2 4.8 4.8v13.1c8.2.9 15.7 4.2 21.9 9.1l9.3-9.3c1.9-1.9 4.9-1.9 6.8 0s1.9 4.9 0 6.8l-9.3 9.3c4.9 6.1 8.2 13.7 9.1 21.9h13.1c2.6 0 4.8 2.2 4.8 4.8 0 2.5-2.1 4.6-4.8 4.6z"/><path d="m400.7 258.1c-8.4 0-15.3 6.9-15.3 15.3s6.9 15.3 15.3 15.3 15.3-6.9 15.3-15.3c0-8.5-6.9-15.3-15.3-15.3z"/><path d="m352.7 147.1h-60c-74.6 0-149.2 0-223.8 0-9 0-16.4 7.3-16.4 16.4v243.5c0 9 7.3 16.4 16.4 16.4h283.9zm-48 245h-204.2c-9.3 0-16.8-7.5-16.8-16.8v-180.2c0-9.3 7.5-16.8 16.8-16.8h204.2c9.3 0 16.8 7.5 16.8 16.8v180.2c0 9.3-7.6 16.8-16.8 16.8z"/><path d="m329 432.9 7.6 21.4c.8 2.4 2.9 3.8 5.4 3.8h43.2c3.2 0 5.7-2.6 5.7-5.7v-19.5h-33.5z"/><path d="m100.6 432.9v19.4c0 3.2 2.6 5.8 5.8 5.8h43.2c2.5 0 4.6-1.5 5.4-3.8l7.6-21.4z"/></g></svg>