<svg id="Capa_1" enable-background="new 0 0 512 512" viewBox="0 0 512 512" xmlns="http://www.w3.org/2000/svg"><g><path d="m482 482h-45.846v30h75.846v-75.846h-30z"/><path d="m30 30h45.846v-30h-75.846v75.846h30z"/><path d="m436.154 0v30h45.846v45.846h30v-75.846z"/><path d="m30 436.154h-30v75.846h75.846v-30h-45.846z"/><path d="m61.952 435.381h388.095v-17.847c0-34.498-19.95-65.883-51.186-80.525l-71.289-33.417c-9.381-3.21-16.68-10.685-19.667-20.14l-3.394-8.815c31.024-17.069 52.054-50.061 52.054-87.972v-42.669c0-55.422-44.929-100.351-100.351-100.351-55.422 0-100.351 44.928-100.351 100.351l.03 43.873c.44 37.235 21.147 69.583 51.615 86.534l-3.506 9.605c-3.12 9.134-10.287 16.313-19.417 19.446l-71.483 33.546c-31.217 14.65-51.152 46.025-51.152 80.509v17.872zm208.655-189.771h-30v-29.494h30zm-57.109-116.581c0-23.941 19.478-43.42 43.419-43.42s43.419 19.479 43.419 43.42v.922c0 19.29-12.646 35.683-30.082 41.324v18.48h-30v-46.385h16.663c7.399 0 13.419-6.02 13.419-13.419v-.922c0-7.399-6.02-13.42-13.419-13.42s-13.419 6.021-13.419 13.42v.94h-30z"/></g><g/><g/><g/><g/><g/><g/><g/><g/><g/><g/><g/><g/><g/><g/><g/></svg>