<svg id="Layer_1" enable-background="new 0 0 100 100" viewBox="0 0 100 100" xmlns="http://www.w3.org/2000/svg"><g><path d="m13.0555563 97.5h73.8888855c5.8296747 0 10.5555582-4.7258835 10.5555582-10.5555573v-73.8888845c0-5.8296719-4.7258835-10.5555553-10.5555573-10.5555553h-73.8888864c-5.8296714 0-10.5555553 4.7258835-10.5555553 10.5555553v73.8888855c.0000004 5.8296728 4.7258839 10.5555563 10.5555553 10.5555563zm-3.5185185-84.4444418c0-1.943224 1.5752945-3.5185184 3.5185184-3.5185184h73.8888855c1.943222 0 3.5185165 1.5752945 3.5185165 3.5185184v37.2611084l-11.5759266-11.5759249c-1.3684235-1.3796883-3.5962067-1.3888245-4.9758911-.020401-.0068283.0067711-.0136337.0135727-.020401.020401l-25.6499978 25.6499977-15.0944442-15.0944442c-1.3684216-1.3796883-3.5962067-1.3888206-4.9758949-.020401-.0068283.0067711-.0136299.0135727-.0204029.020401l-18.6129619 18.6129608z"/><circle cx="50" cy="28.889" r="12.315"/></g></svg>