<svg clip-rule="evenodd" fill-rule="evenodd" stroke-linejoin="round" stroke-miterlimit="2" viewBox="0 0 96 96" xmlns="http://www.w3.org/2000/svg"><g transform="translate(-3072 -32)"><path d="m3091.64 127.468c.77.709 1.95.709 2.72 0 0 0 7.03-6.499 12.65-15.567 3.84-6.191 6.99-13.567 6.99-20.901 0-11.59-9.41-21-21-21s-21 9.41-21 21c0 7.334 3.15 14.71 6.99 20.901 5.62 9.068 12.65 15.567 12.65 15.567zm19.91-3.468h-8c-1.1 0-2 .896-2 2s.9 2 2 2h8c1.11 0 2-.896 2-2s-.89-2-2-2zm16 0c-2.75 0-5.44 0-8 0-1.1 0-2 .896-2 2s.9 2 2 2h8c1.11 0 2-.896 2-2s-.89-2-2-2zm16 0c-2.59 0-5.29 0-8 0-1.1 0-2 .896-2 2s.9 2 2 2h8c1.11 0 2-.896 2-2s-.89-2-2-2zm14.47-2.054c-1.9 1.22-4.14 1.958-6.54 2.045-1.1.04-1.97.968-1.92 2.071.04 1.104.96 1.967 2.07 1.927 3.14-.114 6.07-1.082 8.55-2.677.93-.597 1.2-1.835.6-2.764s-1.83-1.198-2.76-.602zm5.95-11.804c.02.284.03.57.03.858 0 2.107-.5 4.097-1.39 5.857-.5.985-.1 2.189.88 2.687.99.498 2.19.103 2.69-.882 1.16-2.303 1.82-4.906 1.82-7.662 0-.375-.01-.748-.04-1.117-.07-1.102-1.02-1.938-2.12-1.866-1.1.071-1.94 1.024-1.87 2.125zm-7.45-10.916c2.11.991 3.91 2.535 5.22 4.444.62.911 1.87 1.144 2.78.521s1.14-1.869.52-2.78c-1.71-2.494-4.06-4.51-6.82-5.806-1-.469-2.19-.039-2.66.96s-.04 2.191.96 2.661zm-63.52-17.226c4.97 0 9 4.033 9 9s-4.03 9-9 9-9-4.033-9-9 4.03-9 9-9zm31.81 13.607c2.07 1.544 4.59 2.393 7.19 2.393h1.58c1.1 0 2-.896 2-2s-.9-2-2-2h-1.58c-1.74 0-3.42-.566-4.79-1.596-.88-.661-2.14-.481-2.8.403s-.48 2.138.4 2.8zm16.77 2.393h8c1.1 0 2-.896 2-2s-.9-2-2-2h-8c-1.11 0-2 .896-2 2s.89 2 2 2zm-18.98-19.467c-1.63 2.051-2.6 4.646-2.6 7.467 0 .517.03 1.03.1 1.536.14 1.095 1.14 1.869 2.24 1.728 1.09-.142 1.87-1.145 1.73-2.24-.05-.338-.07-.68-.07-1.024 0-1.881.65-3.612 1.74-4.979.68-.864.54-2.124-.33-2.81-.86-.687-2.12-.543-2.81.322zm16.4-4.55s-3.31.003-7.01.007c-.4 0-.8.021-1.19.06-1.1.109-1.9 1.09-1.79 2.188s1.09 1.901 2.19 1.792c.26-.026.53-.04.8-.04 3.69-.004 7-.007 7-.007 1.11-.001 2-.898 2-2.002s-.9-1.999-2-1.998zm10.64 3.499c.76.691 1.92.691 2.68 0 0 0 5.59-5.055 10.06-12.109 3.07-4.854 5.58-10.642 5.58-16.392 0-9.372-7.61-16.981-16.98-16.981s-16.98 7.609-16.98 16.981c0 5.75 2.51 11.538 5.58 16.392 4.47 7.054 10.06 12.109 10.06 12.109zm1.34-35.482c3.87 0 7 3.137 7 7s-3.13 7-7 7c-3.86 0-7-3.137-7-7s3.14-7 7-7z"/></g></svg>