<svg id="Layer_1" height="512" viewBox="0 0 64 64" width="512" xmlns="http://www.w3.org/2000/svg"><circle cx="10.5" cy="5.5" r="2.5"/><circle cx="4.5" cy="47.5" r="2.5"/><circle cx="53.5" cy="58.5" r="2.5"/><circle cx="59.5" cy="16.5" r="2.5"/><circle cx="58.5" cy="50.5" r="1.5"/><circle cx="5.5" cy="13.5" r="1.5"/><path d="m32 16.91c-8.271 0-15 6.771-15 15.093s6.729 15.093 15 15.093 15-6.771 15-15.093-6.729-15.093-15-15.093zm10.496 18.409c-.165.527-.726.82-1.253.656-.526-.165-.82-.726-.655-1.253.273-.875.412-1.79.412-2.719 0-4.995-4.037-9.058-9-9.058s-9 4.063-9 9.058 4.037 9.058 9 9.058c1.582 0 3.137-.419 4.496-1.211.48-.277 1.09-.116 1.368.361.277.477.116 1.089-.36 1.368-1.666.97-3.568 1.483-5.504 1.483-6.065 0-11-4.96-11-11.058s4.935-11.058 11-11.058 11 4.96 11 11.058c0 1.132-.169 2.247-.504 3.316zm-10.496-6.339c-.553 0-1-.448-1-1s.447-1 1-1c2.757 0 5 2.253 5 5.023s-2.243 5.023-5 5.023-5-2.253-5-5.023c0-.552.447-1 1-1s1 .448 1 1c0 1.667 1.346 3.023 3 3.023s3-1.356 3-3.023-1.346-3.023-3-3.023z"/><path d="m45.419 12.276c6.194-7.268 18.581-5.638 18.581-5.638-10.725-10.808-56.774-12.012-56.774 24.326 0 14.535 11.355 20.765 11.355 20.765-5.162 7.268-18.581 5.638-18.581 5.638 10.725 10.808 56.774 12.013 56.774-24.43 0-14.432-11.355-20.661-11.355-20.661zm-1.963-6.602c.552 0 1 .448 1 1s-.448 1-1 1-1-.448-1-1 .448-1 1-1zm-22.913 52.652c-.552 0-1-.448-1-1s.448-1 1-1 1 .448 1 1-.448 1-1 1zm4.556-.183c-.033.003-.067.005-.101.005-.508 0-.942-.384-.994-.9-.055-.549.346-1.04.896-1.095 6.19-.623 14.479-4.298 18.94-11.909-3.064 2.997-7.238 4.852-11.84 4.852-9.374 0-17-7.668-17-17.093 0-17.415 14.293-25.174 23.9-26.14.543-.049 1.04.346 1.095.895s-.346 1.04-.896 1.095c-6.19.623-14.479 4.298-18.94 11.909 3.064-2.997 7.238-4.852 11.84-4.852 9.374 0 17 7.668 17 17.093 0 17.415-14.293 25.174-23.9 26.14z"/></svg>