<svg id="Layer_1" viewBox="0 0 64 64" xmlns="http://www.w3.org/2000/svg" data-name="Layer 1"><path d="m59.839 21.645c0-.676-.55-1.226-1.226-1.226h-5.655v10.581h5.655c.676 0 1.226-.55 1.226-1.226z"/><path d="m59.839 54.936v-8.129c0-.676-.55-1.226-1.226-1.226h-48c-.677 0-1.227.55-1.227 1.226v8.129c0 .676.55 1.226 1.227 1.226h48c.676 0 1.226-.55 1.226-1.226zm-42.807-.919c0 .552-.447 1-1 1s-1-.448-1-1v-6.291c0-.552.447-1 1-1s1 .448 1 1zm3.517 0c0 .552-.447 1-1 1s-1-.448-1-1v-6.291c0-.552.447-1 1-1s1 .448 1 1zm3.516 0c0 .552-.447 1-1 1s-1-.448-1-1v-6.291c0-.552.447-1 1-1s1 .448 1 1z"/><path d="m53.387 7.839h-48c-.676 0-1.226.55-1.226 1.226v8.129c0 .676.55 1.226 1.226 1.226h48c.677 0 1.227-.55 1.227-1.226v-8.13c0-.676-.55-1.226-1.227-1.226zm-7.921 6.29h-28.187c-.553 0-1-.448-1-1s.447-1 1-1h28.187c.553 0 1 .448 1 1s-.447 1-1 1z"/><path d="m18.279 20.419h32.679v10.581h-32.679z"/><path d="m4.161 42.355c0 .676.55 1.226 1.226 1.226h48c.677 0 1.227-.55 1.227-1.226v-8.129c0-.676-.55-1.226-1.227-1.226h-48c-.676 0-1.226.55-1.226 1.226zm44.193-6.821c0-.552.447-1 1-1s1 .448 1 1v5.513c0 .552-.447 1-1 1s-1-.448-1-1zm-3.669 0c0-.552.447-1 1-1s1 .448 1 1v5.513c0 .552-.447 1-1 1s-1-.448-1-1zm-3.669 0c0-.552.447-1 1-1s1 .448 1 1v5.513c0 .552-.447 1-1 1s-1-.448-1-1z"/><path d="m9.387 21.645v8.129c0 .676.55 1.226 1.227 1.226h5.666v-10.581h-5.666c-.677 0-1.227.55-1.227 1.226z"/></svg>