<?xml version="1.0" encoding="UTF-8"?>
<svg xmlns="http://www.w3.org/2000/svg" id="Layer_3" data-name="Layer 3" viewBox="0 0 64 64" width="512" height="512"><path d="M52,51.764,52.382,51H16a5,5,0,0,0,0,10H52.382L52,60.236A9.452,9.452,0,0,1,51.5,59H16a3,3,0,0,1,0-6H51.5A9.452,9.452,0,0,1,52,51.764Z"/><path d="M31,7a1,1,0,0,0-1,1v2a1,1,0,0,0,2,0V8A1,1,0,0,0,31,7Z"/><path d="M19,49H53V17H19Zm2-29a1,1,0,0,1,1-1H50a1,1,0,0,1,1,1V46a1,1,0,0,1-1,1H22a1,1,0,0,1-1-1Z"/><path d="M49,21H23V45H49Zm-7.8,1.4,1.6,1.2-3,4-1.6-1.2ZM45,29v2H40V29ZM26.6,40.8l-1.2-1.6,4-3,1.2,1.6ZM34,43H32V38h2Zm-.562-10.557a2.95,2.95,0,0,0,.073.557,5.938,5.938,0,0,0-5.022,0,2.95,2.95,0,0,0,.073-.557A3.777,3.777,0,0,0,26,29.124a3.778,3.778,0,0,0,2.562-3.32A3.13,3.13,0,0,0,27.95,24a5.868,5.868,0,0,0,6.1,0,3.13,3.13,0,0,0-.612,1.8A3.778,3.778,0,0,0,36,29.124,3.777,3.777,0,0,0,33.438,32.443Zm11,9a2.95,2.95,0,0,0,.073.557,5.938,5.938,0,0,0-5.022,0,2.95,2.95,0,0,0,.073-.557A3.777,3.777,0,0,0,37,38.124a3.778,3.778,0,0,0,2.562-3.32A3.13,3.13,0,0,0,38.95,33a5.868,5.868,0,0,0,6.1,0,3.13,3.13,0,0,0-.612,1.8A3.778,3.778,0,0,0,47,38.124,3.777,3.777,0,0,0,44.438,41.443Z"/><path d="M16,55a1,1,0,0,0,0,2H51.059a8.5,8.5,0,0,1,0-2Z"/><path d="M17,49V3H16a5.006,5.006,0,0,0-5,5V51.105A6.98,6.98,0,0,1,16,49Z"/><path d="M19,3V15H53V3Zm5,8a1,1,0,0,0,1-1h2a3,3,0,0,1-6,0V8a3,3,0,0,1,6,0H25a1,1,0,0,0-2,0v2A1,1,0,0,0,24,11Zm10-1a3,3,0,0,1-6,0V8a3,3,0,0,1,6,0Zm7,3H39V10.236l-.1.211a1.042,1.042,0,0,1-1.79,0l-.1-.211V13H35V6a1,1,0,0,1,1.9-.447L38,7.764l1.1-2.211A1,1,0,0,1,41,6Zm3,0H42V5h2Zm4-2a1,1,0,0,0,1-1h2a3,3,0,0,1-6,0V8a3,3,0,0,1,6,0H49a1,1,0,0,0-2,0v2A1,1,0,0,0,48,11Z"/></svg>
