<svg id="Layer_1" viewBox="0 0 48 48" xmlns="http://www.w3.org/2000/svg"><path d="m11 38h29c1.105 0 2-.895 2-2v-32c0-1.105-.895-2-2-2h-30c-2.209 0-4 1.791-4 4v35c0 2.761 2.239 5 5 5h30c.553 0 1-.448 1-1s-.447-1-1-1h-30c-1.657 0-3-1.343-3-3s1.343-3 3-3zm1.75-18h.222l2.554-5.5h-.026c-.553 0-1-.448-1-1s.447-1 1-1h2.419c.941 0 1.872-.151 2.765-.449.913-.304 1.858-.476 2.816-.528v-1.523c0-.552.447-1 1-1s1 .448 1 1v1.523c.958.052 1.903.224 2.816.528.893.298 1.823.449 2.765.449h2.419c.553 0 1 .448 1 1s-.447 1-1 1h-.026l2.554 5.5h.222c.276 0 .5.224.5.5 0 1.381-1.119 2.5-2.5 2.5h-4.5c-1.381 0-2.5-1.119-2.5-2.5 0-.276.224-.5.5-.5h.222l2.564-5.522c-.97-.049-1.928-.221-2.853-.529-.707-.236-1.442-.352-2.184-.402v12.453h3.5c1.381 0 2.5 1.119 2.5 2.5 0 .276-.224.5-.5.5h-13c-.276 0-.5-.224-.5-.5 0-1.381 1.119-2.5 2.5-2.5h3.5v-12.453c-.742.049-1.476.166-2.184.402-.925.308-1.882.48-2.853.529l2.564 5.522h.222c.276 0 .5.224.5.5 0 1.381-1.119 2.5-2.5 2.5h-4.5c-1.381 0-2.5-1.119-2.5-2.5 0-.276.224-.5.5-.5z"/><path d="m17 16.075-1.822 3.925h3.644z"/><path d="m33.822 20-1.822-3.925-1.822 3.925z"/><path d="m28 42h-14c-.553 0-1-.448-1-1s.447-1 1-1h14c.553 0 1 .448 1 1s-.447 1-1 1z"/><path d="m35 42h-3c-.553 0-1-.448-1-1s.447-1 1-1h3c.553 0 1 .448 1 1s-.447 1-1 1z"/></svg>