<svg id="Layer_1" viewBox="0 0 512 512" xmlns="http://www.w3.org/2000/svg" data-name="Layer 1"><path d="m457.483 36.951v66.929h-38.589c-7.873 0-14.278-6.405-14.278-14.277v-28.771c0-6.627-5.373-12-12-12h-28.771c-7.889 0-14.306-6.405-14.306-14.277v-26.555h78.965c15.979 0 28.979 12.987 28.979 28.951zm-38.589 90.929h38.589v162.064h-38.589c-21.106 0-38.278 17.171-38.278 38.277v16.772h-16.771c-21.122 0-38.306 17.171-38.306 38.277v26.629h24v-26.629c0-7.873 6.417-14.277 14.306-14.277h28.771c6.627 0 12-5.373 12-12v-28.772c0-7.873 6.405-14.277 14.278-14.277h38.589v90.976c0 11.7-6.974 21.796-16.979 26.368v48.713h4.979c6.628 0 12 5.373 12 12s-5.372 12-12 12h-343.929c-25.937 0-47.037-21.113-47.037-47.065v-408.277c0-22.419 18.252-40.659 40.688-40.659h5.489v401.921c.287-.005.572-.022.86-.022h23.14v-95.956h26.589c7.873 0 14.278 6.405 14.278 14.277v28.772c0 6.627 5.373 12 12 12h28.771c7.888 0 14.306 6.405 14.306 14.277v26.629h24v-26.629c0-21.106-17.184-38.277-38.306-38.277h-16.771v-16.772c0-21.106-17.172-38.277-38.278-38.277h-26.589v-162.063h26.589c21.106 0 38.278-17.171 38.278-38.277v-16.771h16.771c21.122 0 38.306-17.171 38.306-38.277v-26.555h80.901v26.554c0 21.106 17.184 38.277 38.306 38.277h16.771v16.771c0 21.106 17.172 38.277 38.278 38.277zm-317.34 306.019c-12.703 0-23.037 10.334-23.037 23.036s10.334 23.065 23.037 23.065h314.95v-11.065h-312.456c-6.627 0-12-5.373-12-12s5.373-12 12-12h312.456v-11.036zm255.119-218.798c0-7.438-4.368-13.935-11.096-16.537-20.293-7.918-36.803-25.919-44.173-48.177-2.389-7.162-8.945-11.974-16.316-11.974s-13.927 4.812-16.315 11.974c-.003.008-.005.016-.008.024-7.362 22.233-23.872 40.234-44.132 48.14-6.761 2.615-11.129 9.111-11.129 16.549s4.368 13.907 11.096 16.509c20.293 7.918 36.803 25.918 44.173 48.175 2.388 7.163 8.944 11.975 16.315 11.975s13.929-4.812 16.324-11.998c7.362-22.233 23.872-40.234 44.132-48.139 6.761-2.615 11.129-9.1 11.129-16.521zm-191.112-125.499v-28.771c0-6.627 5.373-12 12-12h28.771c7.888 0 14.306-6.405 14.306-14.277v-26.554h-95.944v95.88h26.589c7.873 0 14.278-6.405 14.278-14.277zm119.528 83.795c-9.098 17.747-22.791 32.213-39.504 41.692 16.72 9.484 30.407 23.945 39.502 41.686 9.094-17.743 22.788-32.208 39.505-41.689-16.72-9.485-30.409-23.948-39.503-41.688z"/></svg>