<svg id="Glyph" enable-background="new 0 0 32 32" viewBox="0 0 32 32" xmlns="http://www.w3.org/2000/svg"><path d="m14.88 15.869.73-1.461c.161-.321.619-.321.78 0l.73 1.461c.145.29-.066.631-.39.631h-1.46c-.324-.001-.535-.342-.39-.631z"/><path d="m11 12.5c0-1.105.678-2 2-2 1.105 0 2 .671 2 2 0 .667-.863 2.001-2.333 2-.853 0-1.667-.66-1.667-2z"/><path d="m17 12.5c0-1.329.895-2 2-2 1.322 0 2 .895 2 2 0 1.34-.814 2-1.667 2-1.47.001-2.333-1.333-2.333-2z"/><path d="m28 24v-21c0-.55-.45-1-1-1h-19.5c-1.93 0-3.5 1.57-3.5 3.5v21c0 1.93 1.57 3.5 3.5 3.5h19.5c.38 0 .73-.22.9-.57.17-.34.12-.75-.12-1.05-1.04-1.3-1.04-2.46 0-3.76.14-.18.22-.4.22-.62zm-12-18c4.667 0 7 2.917 7 6.417 0 1.899-.821 3.417-1.458 4.083-.323.337-1.167 1.167-1.167 1.167l-.517 2.068c-.039.156-.179.265-.34.265h-1.038c-.081 0-.147-.066-.147-.147v-1.449c0-.085-.069-.154-.154-.154h-1.151c-.085 0-.154.069-.154.154v1.449c0 .081-.066.147-.147.147h-1.455c-.081 0-.147-.066-.147-.147v-1.449c0-.085-.069-.154-.154-.154h-1.151c-.085 0-.154.069-.154.154v1.449c0 .081-.066.147-.147.147h-1.038c-.161 0-.301-.109-.34-.265l-.517-2.068s-.844-.829-1.167-1.167c-.636-.667-1.457-2.184-1.457-4.083 0-3.5 2.333-6.417 7-6.417zm9.27 22h-17.77c-.83 0-1.5-.67-1.5-1.5s.67-1.5 1.5-1.5h17.77c-.37 1-.37 2 0 3z"/></svg>