<svg id="Capa_1" enable-background="new 0 0 612.127 612.127" height="512" viewBox="0 0 612.127 612.127" width="512" xmlns="http://www.w3.org/2000/svg"><g><path d="m103.843 12.942c-13.055 4.616-21.804 16.934-21.862 30.781v492.172c6.447-4.946 13.915-8.393 21.862-10.089z"/><path d="m114.774 612.127h371.649c6.037 0 10.931-4.894 10.931-10.931v-43.723h-54.654c-7.775-.023-14.949-4.189-18.823-10.931h-309.103c-18.111 0-32.793 14.682-32.793 32.793 0 18.11 14.682 32.792 32.793 32.792zm262.34-43.723h54.654c6.037 0 10.931 4.894 10.931 10.931s-4.894 10.931-10.931 10.931h-54.654c-6.037 0-10.931-4.894-10.931-10.931s4.894-10.931 10.931-10.931zm-218.617 0h174.893c6.037 0 10.931 4.894 10.931 10.931s-4.894 10.931-10.931 10.931h-174.893c-6.037 0-10.931-4.894-10.931-10.931s4.894-10.931 10.931-10.931z"/><path d="m442.699 0v17.336l70.11 70.11h17.336v-76.515c.001-6.037-4.893-10.931-10.93-10.931z"/><path d="m169.428 262.34c0 84.517 68.515 153.032 153.032 153.032s153.032-68.515 153.032-153.032-68.515-153.032-153.032-153.032c-84.48.091-152.942 68.553-153.032 153.032zm176.162-114.774 17.314 49.189h55.288c13.505-.039 24.484 10.877 24.522 24.382.022 7.666-3.553 14.899-9.656 19.538l-43.046 33.263 22.867 65.093c4.455 12.806-2.314 26.799-15.121 31.254-2.589.901-5.311 1.362-8.053 1.363-5.38-.011-10.607-1.789-14.877-5.061l-52.368-40.487-52.315 40.444c-10.718 8.256-26.099 6.261-34.355-4.457-5.051-6.557-6.449-15.221-3.717-23.034l22.867-65.082-43.111-33.317c-10.74-8.187-12.809-23.531-4.622-34.271 4.648-6.097 11.887-9.661 19.553-9.628h55.255l17.282-49.189c4.51-12.774 18.521-19.474 31.296-14.964 6.994 2.469 12.495 7.97 14.964 14.964z"/><path d="m340.343 312.283 47.801 36.935c.904.782 2.245.782 3.148 0 .994-.611 1.389-1.858.929-2.929l-20.463-58.261z"/><path d="m252.699 346.267c-.462 1.075-.066 2.326.929 2.94.914.809 2.289.809 3.203 0l47.746-36.892-31.415-24.266z"/><path d="m274.364 218.617h-47.604c-1.159-.081-2.213.67-2.514 1.793-.436 1.043-.063 2.249.885 2.864l37.438 28.923z"/><path d="m319.957 154.792-14.746 41.964h34.498l-14.746-41.974c-.494-1.381-2.014-2.101-3.395-1.607-.754.268-1.345.862-1.611 1.617z"/><path d="m530.146 524.68v-76.516h-17.336l-70.11 70.11v17.336h76.516c6.036.001 10.93-4.893 10.93-10.93z"/><path d="m125.705 10.931v513.75h295.133v-6.405c.019-5.794 2.32-11.347 6.405-15.456l70.11-70.11c4.109-4.085 9.662-6.386 15.456-6.405h6.405v-316.997h-6.405c-5.794-.019-11.347-2.32-15.456-6.405l-70.11-70.11c-4.085-4.109-6.386-9.662-6.405-15.456v-6.405h-295.133zm371.648 251.409c0 96.591-78.302 174.893-174.893 174.893s-174.894-78.302-174.894-174.893 78.303-174.893 174.894-174.893c96.543.114 174.779 78.35 174.893 174.893z"/><path d="m419.744 223.328c.985-.612 1.386-1.844.951-2.919-.301-1.122-1.355-1.874-2.514-1.793h-47.626l11.794 33.58z"/><path d="m280.792 266.275 41.668 32.203 41.668-32.203-16.746-47.658h-49.844z"/></g></svg>