<svg id="Layer_1" height="512" viewBox="0 0 64 64" width="512" xmlns="http://www.w3.org/2000/svg"><path d="m58 50.5c0-.69-.28-1.32-.73-1.77s-1.08-.73-1.77-.73h-41.5c-4.42 0-8 3.58-8 8 0 2.21.9 4.21 2.34 5.66 1.45 1.44 3.45 2.34 5.66 2.34h41.5c1.38 0 2.5-1.12 2.5-2.5 0-.69-.25-1.32-.75-1.77s-1.25-.73-2.25-.73h-41c-1.66 0-3-1.34-3-3 0-.83.34-1.58.88-2.12s1.29-.88 2.12-.88h41c2 0 3-1.12 3-2.5z"/><path d="m13.294 55.294c-.11.11-.294.348-.294.706 0 .551.449 1 1 1h41v-2h-41c-.358 0-.596.184-.706.294z"/><path d="m35 27c0-2.142-.833-4.148-2.345-5.65-1.507-1.517-3.514-2.35-5.655-2.35h-7v3c0 4.411 3.589 8 8 8h5.046l-9.422-7.206c-.439-.335-.522-.963-.187-1.402.336-.438.964-.522 1.402-.187l10.162 7.771v-1.976z"/><path d="m39.35 21.345c-1.517 1.507-2.35 3.514-2.35 5.655v1.976l10.162-7.771c.438-.335 1.067-.251 1.402.187s.252 1.066-.187 1.402l-9.422 7.206h5.046c4.411 0 8-3.589 8-8v-3h-7c-2.142 0-4.148.833-5.65 2.345z"/><path d="m35 32h2v8h-2z"/><path d="m55.5 0h-40.5v30c0 .552-.448 1-1 1s-1-.448-1-1v-29.931c-1.809.227-3.433 1.052-4.66 2.271-1.44 1.45-2.34 3.45-2.34 5.66v42.025c1.637-2.186 4.141-3.678 7-3.965v-8.06c0-.552.448-1 1-1s1 .448 1 1v8h40.5c.905 0 1.767.264 2.5.754v-44.254c0-1.38-1.12-2.5-2.5-2.5zm-41.5 35c-.552 0-1-.448-1-1s.448-1 1-1 1 .448 1 1-.448 1-1 1zm12-29h20c1.067 0 2.071.417 2.827 1.173s1.173 1.76 1.173 2.827c0 2.206-1.794 4-4 4h-7c-.552 0-1-.448-1-1s.448-1 1-1h7c1.103 0 2-.897 2-2 0-.533-.208-1.035-.587-1.413s-.88-.587-1.413-.587h-20c-1.103 0-2 .897-2 2 0 .533.208 1.035.587 1.413s.88.587 1.413.587h7c.552 0 1 .448 1 1s-.448 1-1 1h-7c-1.067 0-2.071-.417-2.827-1.173s-1.173-1.76-1.173-2.827c0-2.206 1.794-4 4-4zm28 16c0 5.514-4.486 10-10 10h-5v9c0 .552-.448 1-1 1h-4c-.552 0-1-.448-1-1v-9h-5c-5.514 0-10-4.486-10-10v-4c0-.552.448-1 1-1h8c2.678 0 5.189 1.042 7.069 2.936.807.801 1.448 1.723 1.931 2.72.483-.998 1.126-1.921 1.935-2.725 1.875-1.888 4.386-2.931 7.064-2.931h8c.552 0 1 .448 1 1v4z"/></svg>