<svg id="Capa_1" enable-background="new 0 0 512 512" viewBox="0 0 512 512" xmlns="http://www.w3.org/2000/svg"><g><path d="m98 420.84v-420.84h-2c-31.98 0-58 26.02-58 58v396c0 31.98 26.02 58 58 58h2v-48.84c-9.22-2.62-16-11.11-16-21.16s6.78-18.54 16-21.16z"/><path d="m306.89 266.66c-.58-1.13-.89-2.39-.89-3.66v-55h-48v55c0 1.27-.3 2.53-.89 3.66l-40.74 79.13c-1.62 3.15-.37 5.84.25 6.85s2.43 3.35 5.98 3.35h118.81c3.55 0 5.36-2.35 5.98-3.35s1.87-3.7.25-6.85z"/><circle cx="221" cy="161" r="10"/><circle cx="314" cy="58" r="10"/><circle cx="344" cy="134" r="10"/><path d="m474 396v-372c0-13.23-10.77-24-24-24h-336v420h324v44h-324v48h336c13.23 0 24-10.77 24-24 0-11.87-8.66-21.75-20-23.66v-44.68c11.34-1.91 20-11.79 20-23.66zm-112.96-35.02c-4.21 6.9-11.55 11.02-19.64 11.02h-118.81c-8.08 0-15.43-4.12-19.64-11.02s-4.51-15.32-.81-22.5l39.86-77.42v-61.06c0-4.42 3.58-8 8-8h64c4.42 0 8 3.58 8 8v61.06l39.85 77.41c3.71 7.19 3.4 15.6-.81 22.51zm-17.04-200.98c-13.24 0-24.2-9.95-25.79-22.77l-16.04-4.66c-3.82 9.61-13.21 16.43-24.17 16.43-4.97 0-9.61-1.4-13.56-3.83l-17.67 12.43c.15 1.11.23 2.24.23 3.39 0 14.34-11.66 26-26 26s-26-11.66-26-26 11.66-26 26-26c7.35 0 14 3.07 18.73 8l14.26-10.03c-1.28-3.07-1.99-6.44-1.99-9.97 0-14.34 11.66-26 26-26 2.04 0 4.02.24 5.93.69l10.38-22.75c-3.93-4.54-6.31-10.46-6.31-16.93 0-14.34 11.66-26 26-26s26 11.66 26 26-11.66 26-26 26c-2.04 0-4.02-.24-5.93-.69l-10.38 22.75c2.49 2.89 4.36 6.34 5.39 10.12l18.15 5.27c4.44-8.01 12.98-13.45 22.77-13.45 14.34 0 26 11.66 26 26s-11.66 26-26 26z"/><path d="m278 113c-5.51 0-10 4.49-10 10 0 2.03.61 3.93 1.66 5.51.71.51 1.35 1.14 1.88 1.89.11.15.2.3.29.46 1.7 1.34 3.84 2.15 6.17 2.15 5.51 0 10-4.49 10-10s-4.49-10.01-10-10.01z"/></g></svg>