<svg id="Layer_3" height="512" viewBox="0 0 64 64" width="512" xmlns="http://www.w3.org/2000/svg" data-name="Layer 3"><path d="m12 3.1a5.009 5.009 0 0 0 -4 4.9v44.54a5.969 5.969 0 0 1 4-1.54z"/><path d="m8 57a4 4 0 0 0 4 4h43a1 1 0 0 0 1-1v-2h-43v-2h43v-3h-44a4 4 0 0 0 -4 4z"/><path d="m36 9h-18v26h34v-26h-2v19a1 1 0 0 1 -1.707.707l-5.293-5.293-5.293 5.293a1 1 0 0 1 -1.707-.707z"/><path d="m54 3h-4v4h3a1 1 0 0 1 1 1v28a1 1 0 0 1 -1 1h-36a1 1 0 0 1 -1-1v-28a1 1 0 0 1 1-1h19v-4h-22v48h42v-46a2 2 0 0 0 -2-2zm0 43a1 1 0 0 1 -1 1h-36a1 1 0 0 1 -1-1v-6a1 1 0 0 1 1-1h36a1 1 0 0 1 1 1z"/><path d="m43.707 21.293 4.293 4.292v-22.585h-10v22.586l4.293-4.293a1 1 0 0 1 1.414 0z"/><path d="m18 41h34v4h-34z"/></svg>