<svg clip-rule="evenodd" fill-rule="evenodd" height="64" stroke-linejoin="round" stroke-miterlimit="2" width="64" xmlns="http://www.w3.org/2000/svg" xmlns:serif="http://www.serif.com/"><g transform="translate(-160 -240)"><path d="m195 300.764v-4.57c-2.043.307-4.043.31-6 .01v4.568c1.852.479 4.209.449 6-.008zm26-51.739c0-.121-.064-.233-.168-.295s-.233-.065-.339-.008c-3.024 1.612-23.493 12.525-23.493 12.525v38.691c5.683-3.029 23.47-12.513 23.47-12.513.326-.174.53-.513.53-.883v-37.515c0-.001 0-.001 0-.002zm-34 12.222s-20.469-10.913-23.493-12.525c-.107-.058-.236-.055-.34.008-.104.062-.168.174-.168.295.001.001.001.001.001.002v37.515c0 .37.204.709.53.883 0 0 17.79 9.476 23.47 12.512zm8 32.922v-32.26c-1.989.387-3.989.393-6 .001v32.267c1.952.336 3.952.331 6-.008zm-2-2.169v-3c0-.552-.448-1-1-1s-1 .448-1 1v3c0 .552.448 1 1 1s1-.448 1-1zm-2-25.676v19.676c0 .552.448 1 1 1s1-.448 1-1v-19.676c0-.551-.448-1-1-1s-1 .449-1 1zm8.532-1.239c-.327.173-.532.513-.532.883v6.133c0 .35.184.675.484.856.301.181.674.192.984.027l16-8.47c.327-.173.532-.513.532-.884v-6.132c0-.351-.184-.676-.484-.857-.301-.181-.674-.191-.984-.027zm1.468 1.485 14-7.411v3.869s-14 7.412-14 7.412zm-31.902-17.134c6.949 3.705 19.275 10.276 19.277 10.276.973.263 1.943.419 2.909.47-.019-.019-.037-.039-.055-.061-7.394-8.958-15.25-12.367-19.39-13.617-.532-.135-1.095-.045-1.559.248-.464.292-.787.763-.895 1.3-.158.734-.287 1.384-.287 1.384zm46.622-.436s-.252-.582-.532-1.227c-.419-.967-1.512-1.447-2.507-1.102-7.62 2.638-14.509 5.498-19.854 13.374-.036.054-.072.099-.109.136.973-.052 1.943-.21 2.911-.47zm-37.101-1.85 1.531.834c2.846 1.646 6.008 3.931 9.192 7.096 1.115 1.109 1.723 1.682 2.611 2.69-2.925-10.307-10.974-14.649-10.974-14.649-.269-.146-.59-.161-.871-.04s-.492.364-.571.659zm13.446 10.581c.827-1.209 1.718-2.31 3.398-3.92 3.633-3.483 7.726-5.635 12.132-7.391.597-.238 1.368-.529 1.718-.661l-.327-1.926c-.049-.291-.224-.545-.478-.694-.253-.15-.56-.18-.838-.083 0 0-12.393 4.386-15.605 14.675z"/></g></svg>