<svg id="Glyph" height="512" viewBox="0 0 24 24" width="512" xmlns="http://www.w3.org/2000/svg"><path d="m21.833 7.5161-2.4312 13.7876c-.1499.8481-.8906 1.4463-1.7236 1.4463-.1001 0-.2017-.0083-.3037-.0264l-13.7876-2.4312c-.9502-.168-1.5869-1.0776-1.4199-2.0273l2.4312-13.7876c.0815-.4604.3374-.8618.7202-1.1294.3828-.269.8486-.3706 1.3076-.29l6.0259 1.0624c.014.4857.1021.9614.2787 1.4093l-.8403 1.1201c-.7437.9922-.542 2.4053.4521 3.1519.3926.2935.8584.4482 1.3477.4482.7041 0 1.377-.3359 1.8003-.8999l.8379-1.1162c.1206.0107.2412.0161.3623.0161 1.7703 0 3.2883-1.0897 3.9263-2.6323.7171.319 1.1578 1.0919 1.0161 1.8984zm-4.9424-6.2661c-1.5166 0-2.75 1.2334-2.75 2.75 0 .6248.2173 1.1947.5695 1.6569l-1.4196 1.8929c-.2485.3315-.1812.8018.1499 1.0503.1353.1011.293.1499.4497.1499.228 0 .4531-.1035.6006-.2998l1.4172-1.8896c.3062.1179.6354.1895.9827.1895 1.5166 0 2.75-1.2334 2.75-2.75s-1.2334-2.75-2.75-2.75z"/></svg>