<svg height="512" viewBox="0 0 60 60" width="512" xmlns="http://www.w3.org/2000/svg"><g id="a"><g><path d="m14.4 56.19c.1.54.63.89 1.17.79l5.93-1.17-7.36-.93z"/><path d="m57.91 47.65-5.38-27.44-3.83 30.27 8.42-1.65c.27-.05.49-.2.64-.42s.2-.49.15-.76z"/><path d="m51.42 10.75c-.17-.21-.4-.35-.67-.38l-11.75-1.49v7.12c0 3.31-2.69 6-6 6s-6-2.69-6-6v-3c0-.55.45-1 1-1s1 .45 1 1v3c0 2.21 1.79 4 4 4s4-1.79 4-4v-7.37l-28.26-3.57c-.04-.01-.08-.01-.12-.01-.22 0-.44.07-.61.21-.22.16-.35.4-.38.66l-5.62 44.4c-.04.27.04.53.2.74s.4.35.67.38l25.11 3.18 16.89 2.14c.27.03.53-.04.74-.21.21-.16.34-.39.38-.66l5.62-44.4c.03-.27-.04-.53-.2-.74z"/><path d="m28 7c.55 0 1-.45 1-1 0-2.21 1.79-4 4-4 1.92 0 3.52 1.35 3.91 3.16l-4.48.88 4.57.58 2 .25 11.19 1.41-.9-4.55c-.05-.26-.2-.48-.42-.63s-.48-.2-.75-.15l-9.24 1.82c-.57-2.72-2.99-4.77-5.88-4.77-3.31 0-6 2.69-6 6 0 .55.45 1 1 1z"/></g></g></svg>