<svg id="Layer_1" enable-background="new 0 0 64 64" viewBox="0 0 64 64" xmlns="http://www.w3.org/2000/svg"><path d="m61.93893 21.49727-6.06717 40.19194c-.23047 1.48484-1.61281 2.50875-3.09765 2.27843l-40.16631-6.04155c-1.0239-.15359-1.8175-.84484-2.15031-1.7664h21.7087c1.43359 0 2.73921-.56328 3.76311-1.56171l13.1584-13.18388c.99844-.97281 1.56156-2.35531 1.56156-3.73765v-20.63355l8.9856 1.35687c1.48485.23032 2.50891 1.61281 2.30407 3.0975zm-27.34072 20.01917v10.77763l12.21106-12.21122h-10.77747c-.7936 0-1.43359.64-1.43359 1.43359zm10.75201-33.99664h-13.79841v3.94233c0 2.15046-1.7664 3.91671-3.94249 3.91671h-5.09436c-2.15031 0-3.91671-1.76625-3.91671-3.91671v-3.94233h-13.82403c-1.51031 0-2.73921 1.22875-2.73921 2.73906v40.60162c0 1.51031 1.2289 2.73921 2.73921 2.73921h27.264v-12.08325c0-2.20156 1.79203-3.99358 3.99358-3.99358h12.05747v-27.264c0-1.51031-1.22875-2.73906-2.73905-2.73906zm-16.36739 3.93527v-10.08429c0-.75706-.61372-1.37078-1.37078-1.37078h-5.09145c-.75706 0-1.37078.61372-1.37078 1.37078v10.08429c0 .75706.61372 1.37078 1.37078 1.37078h5.09146c.75705 0 1.37077-.61372 1.37077-1.37078z"/></svg>