<svg enable-background="new 0 0 492 492" height="512" viewBox="0 0 492 492" width="512" xmlns="http://www.w3.org/2000/svg"><g id="Layer_1"><g><g clip-rule="evenodd" fill="rgb(0,0,0)" fill-rule="evenodd"><path d="m286.987 258.638h143.593v-34.218h-84.387c-5.856 0-11.673-.383-17.291-1.14-.016-.002-.032-.005-.048-.007-.018-.003-.035-.005-.052-.008-3.522-.482-6.986-1.107-10.303-1.86-30.835-6.986-55.361 2.918-71.28 13.366 3.917 6.255 14.354 17.854 39.768 23.867z"/><path d="m240.612 239.474c-9.241 7.106-15.628 14.297-18.744 18.136 12.54 10.212 29.819 12.04 51.518 5.465-9.079-3.249-16.804-7.524-23.056-12.776-4.682-3.934-7.752-7.776-9.718-10.825z"/><path d="m292.275 177.946c-13.875-6.011-30.884-4.66-50.554 4.016 0 0-.001 0-.001.001-5.44 2.4-11.08 5.373-16.764 8.835-9.267 5.651-15.733 14.579-18.205 25.139-2.438 10.412-.653 21.099 5.026 30.092 1.328 2.102 2.764 4.06 4.289 5.86 4.021-4.889 11.968-13.567 23.516-21.72l.048-.033c.013-.009.026-.018.039-.027 10.754-7.577 22.22-12.99 34.082-16.086 15.053-3.93 30.712-4.105 46.54-.519.937.213 1.89.411 2.85.602-7.595-18.415-17.957-30.568-30.866-36.16z"/><path d="m151.251 239.846c1.606 7.014 3.444 13.289 5.461 18.649.36.953 1.554 4.304 1.876 5.243 4.593 13.399 24.13 57.107 82.655 57.126.682-.02 15.072-.535 32.44-7.988 21.678-9.302 38.345-24.807 49.621-46.136h-36.015c-16.801 6.753-31.844 9.401-44.718 7.87-11.344-1.348-21.111-5.913-29.027-13.566-3.173-3.065-6.072-6.661-8.617-10.688-6.847-10.844-9.001-23.723-6.064-36.266 2.971-12.69 10.74-23.419 21.877-30.21 3.266-1.989 6.522-3.827 9.743-5.5-5.632-2.18-13.861-4.712-23.185-5.512-1.969-.169-3.899-.253-5.787-.253-15.82 0-28.78 5.921-38.588 17.649-7.211 8.624-11.648 19.167-12.833 30.494-.002.018-.004.037-.006.055-.66 6.364-.268 12.768 1.167 19.033z"/><path d="m61.94 258.638h86.21c-1.76-5.059-3.37-10.755-4.796-16.983-1.3-5.678-1.846-11.456-1.637-17.235h-79.777z"/></g></g></g></svg>