<svg id="Capa_1" enable-background="new 0 0 512 512" height="512" viewBox="0 0 512 512" width="512" xmlns="http://www.w3.org/2000/svg"><g><path d="m128.5 437c12.426 0 22.5-10.074 22.5-22.5v-234.5c0-33.138-26.863-60-60-60h-15v30c16.538 0 30 13.462 30 30v234.5c0 12.426 10.074 22.5 22.5 22.5z"/><path d="m256 180c-8.276 0-15 6.724-15 15v30c0 8.276 6.724 15 15 15s15-6.724 15-15v-30c0-8.276-6.724-15-15-15z"/><path d="m436 270v144.5c0 28.945-23.555 52.5-52.5 52.5s-52.5-23.555-52.5-52.5c0-5.444 0-252.503 0-249.5 0-19.085-7.354-36.312-19.092-49.548l20.764-27.695c4.239 1.327 8.657 2.243 13.328 2.243 24.814 0 45-20.186 45-45s-20.186-45-45-45-45 20.186-45 45c0 9.212 2.802 17.772 7.57 24.911l-20.605 27.486c-9.729-4.61-20.484-7.397-31.965-7.397s-22.236 2.787-31.965 7.397l-20.605-27.486c4.768-7.139 7.57-15.699 7.57-24.911 0-24.814-20.186-45-45-45s-45 20.186-45 45 20.186 45 45 45c4.671 0 9.089-.916 13.328-2.243l20.764 27.695c-11.738 13.236-19.092 30.463-19.092 49.548 0 4.526 0 254.076 0 249.5 0 28.945-23.555 52.5-52.5 52.5s-52.5-23.555-52.5-52.5v-144.5c0-32.168-26.373-60-60-60h-16v30c16.5 0 31 13.5 31 30v137c0 58.295 48.032 105 105 105h240c56.968 0 105-46.705 105-105v-137c0-16.5 14.5-30 31-30v-30h-16c-33.627 0-60 27.832-60 60zm-135-45c0 24.814-20.186 45-45 45s-45-20.186-45-45v-30c0-24.814 20.186-45 45-45s45 20.186 45 45z"/><path d="m361 180v234.5c0 12.426 10.074 22.5 22.5 22.5s22.5-10.074 22.5-22.5v-234.5c0-16.538 13.462-30 30-30v-30h-15c-33.137 0-60 26.862-60 60z"/></g></svg>