<svg fill="none" height="24" viewBox="0 0 24 24" width="24" xmlns="http://www.w3.org/2000/svg"><path clip-rule="evenodd" d="m12 1.25c-5.93706 0-10.75 4.81294-10.75 10.75 0 5.9371 4.81294 10.75 10.75 10.75 5.9371 0 10.75-4.8129 10.75-10.75 0-5.93706-4.8129-10.75-10.75-10.75zm-.0085 5c-1.7959 0-3.25353 1.45407-3.25353 3.25 0 1.7959 1.45763 3.25 3.25353 3.25s3.2536-1.4541 3.2536-3.25c0-1.79593-1.4577-3.25-3.2536-3.25zm.0085 8c-2.14584 0-4.09526.8416-5.51943 2.209-.1473.1414-.23057.3368-.23057.541s.08327.3996.23057.541c1.42417 1.3674 3.37359 2.209 5.51943 2.209 2.1458 0 4.0953-.8416 5.5194-2.209.1473-.1414.2306-.3368.2306-.541s-.0833-.3996-.2306-.541c-1.4241-1.3674-3.3736-2.209-5.5194-2.209z" fill="rgb(0,0,0)" fill-rule="evenodd"/></svg>