<svg id="Layer_1" viewBox="0 0 512 512" xmlns="http://www.w3.org/2000/svg" data-name="Layer 1"><path d="m480.235 295.764c-47.263 0-70.976 57.258-37.558 90.675a15.767 15.767 0 0 1 0 22.3l-33.941 33.942a15.77 15.77 0 0 1 -22.3 0c-33.417-33.418-90.675-9.705-90.675 37.558a15.764 15.764 0 0 1 -15.761 15.761h-48a15.764 15.764 0 0 1 -15.765-15.765c0-47.321-57.215-71.018-90.675-37.558a15.769 15.769 0 0 1 -22.3 0l-33.937-33.942a15.769 15.769 0 0 1 0-22.3c33.418-33.417 9.705-90.675-37.558-90.675a15.764 15.764 0 0 1 -15.765-15.76v-48a15.764 15.764 0 0 1 15.765-15.765c47.263 0 70.976-57.258 37.558-90.675a15.769 15.769 0 0 1 0-22.3l33.942-33.942a15.767 15.767 0 0 1 22.3 0c33.417 33.418 90.675 9.705 90.675-37.558a15.764 15.764 0 0 1 15.76-15.76h48a15.764 15.764 0 0 1 15.765 15.765c0 47.263 57.258 70.976 90.675 37.558a15.768 15.768 0 0 1 22.3 0l33.941 33.942a15.767 15.767 0 0 1 0 22.3c-33.418 33.417-9.705 90.675 37.558 90.675a15.764 15.764 0 0 1 15.761 15.76v48a15.764 15.764 0 0 1 -15.765 15.765zm-77.27-39.809a146.965 146.965 0 1 0 -146.965 147.01 146.966 146.966 0 0 0 146.965-147.01zm-196.683-44.755a49.721 49.721 0 1 0 49.718-49.715 49.719 49.719 0 0 0 -49.718 49.715zm49.718 78.373a107.576 107.576 0 0 0 -95.815 58.62 132.961 132.961 0 0 0 191.624 0 107.563 107.563 0 0 0 -95.809-58.62z" fill-rule="evenodd"/></svg>