<?xml version="1.0" encoding="iso-8859-1"?>
<!-- Generator: Adobe Illustrator 19.0.0, SVG Export Plug-In . SVG Version: 6.00 Build 0)  -->
<svg version="1.1" id="Capa_1" xmlns="http://www.w3.org/2000/svg" xmlns:xlink="http://www.w3.org/1999/xlink" x="0px" y="0px"
	 viewBox="0 0 512 512" style="enable-background:new 0 0 512 512;" xml:space="preserve">
<g>
	<g>
		<path d="M497,60h-76.518C413.513,25.809,383.216,0,347,0s-66.513,25.809-73.482,60H15C6.709,60,0,66.709,0,75s6.709,15,15,15
			h258.518c6.969,34.191,37.266,60,73.482,60s66.513-25.809,73.482-60H497c8.291,0,15-6.709,15-15S505.291,60,497,60z"/>
	</g>
</g>
<g>
	<g>
		<path d="M497,241H239.482c-6.969-34.191-37.266-60-73.482-60s-66.513,25.809-73.482,60H15c-8.291,0-15,6.709-15,15s6.709,15,15,15
			h77.518c6.969,34.191,37.266,60,73.482,60s66.513-25.809,73.482-60H497c8.291,0,15-6.709,15-15C512,247.709,505.291,241,497,241z"
			/>
	</g>
</g>
<g>
	<g>
		<path d="M497,422h-76.518c-6.969-34.191-37.266-60-73.482-60s-66.513,25.809-73.482,60H15c-8.291,0-15,6.709-15,15
			c0,8.291,6.709,15,15,15h258.518c6.969,34.191,37.266,60,73.482,60s66.513-25.809,73.482-60H497c8.291,0,15-6.709,15-15
			C512,428.709,505.291,422,497,422z"/>
	</g>
</g>
<g>
</g>
<g>
</g>
<g>
</g>
<g>
</g>
<g>
</g>
<g>
</g>
<g>
</g>
<g>
</g>
<g>
</g>
<g>
</g>
<g>
</g>
<g>
</g>
<g>
</g>
<g>
</g>
<g>
</g>
</svg>
