<svg id="Layer_1" enable-background="new 0 0 66 66" height="512" viewBox="0 0 66 66" width="512" xmlns="http://www.w3.org/2000/svg"><g><path d="m37.01 38.76h-11.88c-1.45 0-2.63 1.18-2.63 2.63s1.18 2.63 2.63 2.63h1.66l-2.03 13.33c-.47 3.79 2.48 7.14 6.3 7.14s6.78-3.35 6.3-7.14l-2.03-13.33h1.66c1.45 0 2.63-1.18 2.63-2.63s-1.15-2.63-2.61-2.63zm-5.94 23.21c-1.92 0-3.48-1.56-3.48-3.48s1.56-3.49 3.48-3.49 3.48 1.56 3.48 3.48-1.56 3.49-3.48 3.49z"/><circle cx="31.07" cy="58.49" r="1.48"/><path d="m25.73 28.57c.53-.52.86-1.26.86-2.06v-4.7-.65c0-1.64 1.33-2.97 2.97-2.97.82 0 1.57.33 2.1.87s.87 1.28.87 2.1v.65.33c0 1.76 1.42 3.18 3.17 3.18.88 0 1.67-.35 2.25-.94.57-.57.93-1.36.93-2.24v-.33h9.46c1.58 0 2.86-1.28 2.86-2.86v-14.59c0-1.58-1.28-2.86-2.86-2.86h-9.46-28.88c-1.58 0-2.86 1.28-2.86 2.86v14.59l-.02 13.87c0 1.98 1.59 3.57 3.57 3.57h.09c2.05 0 3.69-1.64 3.69-3.67v-10.62c0-.1 0-.19.02-.29.14-1.59 1.48-2.84 3.11-2.84h.01c1.63 0 2.97 1.25 3.11 2.84.02.1.02.19.02.29v4.41c0 1.61 1.31 2.92 2.92 2.92.81 0 1.54-.32 2.07-.86z"/><path d="m53.19 9.79v3.83c3.66.42 6.51 3.53 6.51 7.3 0 4.05-3.3 7.35-7.35 7.35h-14.61c-4.7 0-8.53 3.8-8.58 8.49h3.82c.05-2.58 2.16-4.67 4.75-4.67h14.62c6.16 0 11.17-5.01 11.17-11.17.01-5.88-4.56-10.7-10.33-11.13z"/><path d="m2.47 11.66c0 1.05.85 1.91 1.91 1.91h.75v-3.82h-.75c-1.05 0-1.91.85-1.91 1.91z"/></g></svg>