<svg id="Capa_1" enable-background="new 0 0 512.018 512.018" height="512" viewBox="0 0 512.018 512.018" width="512" xmlns="http://www.w3.org/2000/svg"><g><g id="Page-1"><g id="_x30_01---Paint-Splat" transform="translate(-1)"><path id="Shape" d="m320.965 472.612c.363-10.436-2.361-20.748-7.83-29.643-14.883-21.778-41.419-19.677-51.447 4.679-7.554 15.19-6.044 33.32 3.919 47.051 5.061 6.493 12.175 11.078 20.18 13.003 24.135 5.712 34.895-14.345 35.178-35.09z"/><path id="Shape_1_" d="m454.173 166.242c-14.693.498-29.248 3.014-43.255 7.477-13.515 3.469-30.19 8.386-44.138 4.414-25.865-7.398-6.223-43.185 2.86-56.152 9.94-14.186 22.325-27.498 28.169-44.076 4.685-12.525.258-26.631-10.743-34.233-5.534-3.268-12.173-4.102-18.344-2.304-16.154 4.89-25.75 23.834-35.663 36.273-7.601 9.551-26.906 33.324-41.551 25.229-4.052-2.938-6.572-7.539-6.868-12.535-1.086-6.462-1.359-13.109-2.136-19.633-.436-5.333-1.852-10.54-4.175-15.36-2.383-4.87-6.623-8.579-11.767-10.293-8.828-2.542-14.874 3.761-18.732 10.84-6.156 14.096-11.139 28.676-14.901 43.591-3.628 10.452-8.986 24.717-19.306 30.446-13.4 7.389-22.66-9.128-27.171-19.112-4.552-12.165-9.723-24.089-15.492-35.725-7.283-12.526-19.041-24.947-34.489-25.838-18.105-1.042-32.079 14.124-36.573 30.349-3.089 14.602-.78 29.828 6.497 42.858 13.427 27.533 38.188 42.77 57.953 64.989 13.241 14.883-23.958 9.446-30.093 8.448-33.598-5.5-74.381-22.828-98.869 10.699-6.194 7.356-7.923 17.488-4.52 26.483 2.739 5.104 7.223 9.052 12.632 11.123 13.789 5.826 29.405 3.372 43.891 3.01h1.457c15.362-.77 30.758.537 45.771 3.884 9.922 2.578 22.431 7.68 24.082 19.147.221 1.643.221 3.309 0 4.952-.071.6-.185 1.192-.309 1.766-3.778 18.194-26.271 25.282-42.231 28.504-18.606 2.848-37.42 4.114-56.241 3.787-18.282.547-41.807 2.039-52.966 18.644-4.098 6.374-6.166 13.841-5.932 21.416.028 5.954 2.453 11.647 6.727 15.793 3.078 2.613 6.8 4.354 10.778 5.041 3.967.678 8 .877 12.014.591 11.917-.538 23.676-2.728 35.487-4.273 12.765-1.668 25.6-2.79 38.391-4.149 9.754-1.033 19.827-2.066 29.696-2.225 10.593-.168 25.344 1.059 31.108 11.476 2.745 6.051 2.71 13-.097 19.023-4.868 11.024-11.593 21.131-19.88 29.881-7.518 7.161-13.684 15.617-18.202 24.964-5.289 13.585 1.243 28.908 14.707 34.498 11.541 2.483 23.596.354 33.589-5.932 10.161-6.092 19.224-13.851 26.809-22.952 11.405-12.526 19.844-27.366 31.779-39.433 11.046-11.159 24.295-19.896 38.903-25.653 15.869-7.528 34.367-7.096 49.867 1.165 8.069 5.337 14.661 12.624 19.165 21.186 14.892 25.265 24.576 62.137 59.63 64.715 14.225.676 28.069-4.721 38.082-14.848 9.887-9.71 18.114-25.715 12.8-39.592-5.226-13.647-20.498-20.595-33.218-25.6-16.137-5.308-31.453-12.843-45.506-22.387-9.228-6.859-16.087-16.425-19.624-27.365-1.491-4.393-1.623-9.134-.38-13.603 3.293-10.434 14.892-11.935 24.302-10.761s18.741 3.09 28.16 4.414c12.526 1.766 27.251 3.275 35.09-9.004 3.377-5.515 4.236-12.209 2.363-18.398-1.874-6.189-6.302-11.283-12.17-13.999-5.692-2.346-11.873-3.256-17.999-2.648-3.796.265-7.574.883-11.37.812-7.726.666-14.766-4.451-16.516-12.006-.557-6.115 1.086-12.229 4.634-17.24 9.613-14.168 28.16-14.398 43.591-15.289 18.079-1.042 35.54-3.655 45.436-20.798 3.971-7.113 5.809-15.219 5.297-23.349-1.194-16.419-14.859-24.77-30.29-25.123zm-184.373-39.503c-6.547 17.495-18.842 32.248-34.869 41.843-8.527 4.784-18.136 7.306-27.913 7.327-6.451.01-12.856-1.089-18.935-3.249-4.593-1.641-6.986-6.693-5.345-11.286s6.693-6.986 11.286-5.345c10.71 3.728 22.507 2.667 32.38-2.913 12.589-7.665 22.17-19.415 27.145-33.289 1.909-4.488 7.094-6.578 11.582-4.67 4.487 1.909 6.578 7.094 4.669 11.582z"/><circle id="Oval" cx="199.639" cy="25.398" r="22.069"/><circle id="Oval_1_" cx="27.501" cy="137.826" r="26.483"/><circle id="Oval_2_" cx="490.949" cy="345.274" r="22.069"/></g></g></g></svg>