<svg clip-rule="evenodd" fill-rule="evenodd" height="512" image-rendering="optimizeQuality" shape-rendering="geometricPrecision" text-rendering="geometricPrecision" viewBox="0 0 43.3492 43.3492" width="512" xmlns="http://www.w3.org/2000/svg"><g id="Layer_x0020_1"><g id="_768437744"><path id="_768437360" d="m37.6887 37.6887h-32.0282v-7.2365-24.7917h32.0282v18.5478zm-32.7617-36.2085c-1.3956 0-3.3146-1.2635-4.7103-1.2635 0 1.3957 1.2635 3.3146 1.2635 4.7103 0 1.3956-1.4802 2.7912-1.4802 4.1869 0 1.3956 1.4802 2.7912 1.4802 4.1869 0 1.3956-1.4802 2.7912-1.4802 4.1869 0 1.3956 1.4802 2.7912 1.4802 4.1869 0 1.3956-1.4802 2.7913-1.4802 4.1869s1.4802 2.7912 1.4802 4.1869c0 1.3956-1.4802 2.7912-1.4802 4.1869 0 1.3956 1.4802 2.7913 1.4802 4.1869s-1.2635 3.3146-1.2635 4.7103c1.3957 0 3.3147-1.2635 4.7103-1.2635s2.7913 1.4802 4.1869 1.4802c1.3957 0 2.7913-1.4802 4.1869-1.4802 1.3957 0 2.7913 1.4802 4.1869 1.4802s2.7913-1.4802 4.1869-1.4802c1.3957 0 2.7913 1.4802 4.1869 1.4802 1.3957 0 2.7913-1.4802 4.1869-1.4802 1.3957 0 2.7913 1.4802 4.1869 1.4802 1.3957 0 2.7913-1.4802 4.1869-1.4802 1.3957 0 3.3146 1.2635 4.7103 1.2635 0-1.3957-1.2635-3.3147-1.2635-4.7103s1.4803-2.7913 1.4803-4.1869c0-1.3957-1.4803-2.7913-1.4803-4.1869 0-1.3957 1.4803-2.7913 1.4803-4.1869s-1.4803-2.7913-1.4803-4.1869c0-1.3957 1.4803-2.7913 1.4803-4.1869 0-1.3957-1.4803-2.7913-1.4803-4.1869 0-1.3957 1.4803-2.7913 1.4803-4.1869 0-1.3957-1.4803-2.7913-1.4803-4.1869 0-1.3957 1.2635-3.3146 1.2635-4.7103-1.3957 0-3.3146 1.2635-4.7103 1.2635-1.3956 0-2.7912-1.4803-4.1869-1.4803-1.3956 0-2.7912 1.4803-4.1869 1.4803-1.3956 0-2.7912-1.4803-4.1869-1.4803-1.3956 0-2.7912 1.4803-4.1869 1.4803-1.3956 0-2.7913-1.4803-4.1869-1.4803s-2.7912 1.4803-4.1869 1.4803c-1.3956 0-2.7912-1.4803-4.1869-1.4803-1.3956 0-2.7913 1.4803-4.1869 1.4803z"/><path id="_768437600" d="m22.2634 28.0865-8.2468-8.7804-7.582 10.7187v6.8898h30.48v-12.9935l-8.321-9.3304-8.7224 9.8209 2.9546 3.1458c.1461.1553.1387.3996-.0166.5457-.1553.1462-.3997.1387-.5458-.0166z"/><circle id="_768437216" cx="18.512" cy="14.343" r="2.697"/></g></g></svg>