<svg id="Icons" height="512" viewBox="0 0 60 60" width="512" xmlns="http://www.w3.org/2000/svg"><path d="m27.628 38.977.001-.001-5.773-5.668-8.47 8.688 5.772 5.668z"/><path d="m57.855 2.135a.4.4 0 0 0 -.567-.033 212.286 212.286 0 0 0 -25.559 22.5l-7.762 7.971 4.343 4.258 7.759-7.967a212.506 212.506 0 0 0 21.831-26.149.413.413 0 0 0 -.045-.58z"/><path d="m15.6 54.22a6.2 6.2 0 0 0 1.652-5.62l-4.752-4.668a6.145 6.145 0 0 0 -5.555 1.787c-1.727 1.773-1.85 3.457-1.994 5.407-.147 2.007-.312 4.256-2.405 6.5 3.012.629 8.741 1.024 13.054-3.406z"/></svg>