<svg height="511pt" viewBox="-16 0 511 511.9991" width="511pt" xmlns="http://www.w3.org/2000/svg"><path d="m274.164062 355.835938c5.171876 5.972656 14.074219 6.871093 20.316407 2.167968 12.902343-9.667968 125.996093-96.382812 125.996093-161.988281 0-26.03125-7.277343-46.449219-21.648437-60.671875-26.394531-26.132812-70.191406-26.589844-108.875-26.328125-27.011719.222656-55.046875.542969-64.785156-9.109375-1.890625-1.859375-4.382813-5.300781-4.382813-13.488281.675782-8.234375 21.914063-36.707031 45.453125-60.9375 4.671875-4.804688 5.59375-12.128907 2.242188-17.941407-3.339844-5.816406-10.152344-8.761718-16.625-7.0625-5.378907 1.335938-131.363281 34.96875-131.363281 133.488282 0 81.0625 76.066406 85.996094 131.609374 89.617187 54.492188 3.542969 78.382813 7.675781 78.382813 32.429688 0 14.660156-28.871094 52.628906-55.605469 79.390625-5.566406 5.566406-5.871094 14.484375-.714844 20.433594zm0 0"/><path d="m260.117188 378.15625c-17.8125-8.757812-25.605469-13.929688-25.605469-26.554688 0-12.296874 25.496093-45.332031 33.457031-57.273437 3.96875-5.945313 3.175781-13.871094-1.875-18.925781-5.085938-5.066406-13.023438-5.871094-18.925781-1.875-93.660157 62.445312-131.082031 100.542968-129.136719 131.507812 1.566406 24.871094 25.195312 36.664063 48.046875 48.046875 26.820313 13.386719 44.410156 24.597657 44.410156 43.917969 0 6.0625 3.648438 11.539062 9.257813 13.855469 5.527344 2.304687 12.015625 1.078125 16.347656-3.253907 44.878906-44.878906 61.710938-73.152343 58.078125-95.140624-3.164063-19.070313-20.289063-27.523438-34.054687-34.304688zm0 0"/><path d="m420.476562 60.019531h15c8.292969 0 15-6.707031 15-15 0-8.289062-6.707031-14.996093-15-14.996093h-15v-15c0-8.292969-6.707031-15.0000005-14.996093-15.0000005-8.292969 0-15 6.7070315-15 15.0000005v15h-15c-8.289063 0-15 6.707031-15 14.996093 0 8.292969 6.710937 15 15 15h15v15c0 8.289063 6.707031 15 15 15 8.289062 0 14.996093-6.710937 14.996093-15zm0 0"/><path d="m120.492188 15.023438c0 8.285156-6.714844 15-14.996094 15-8.285156 0-15-6.714844-15-15 0-8.285157 6.714844-15.0000005 15-15.0000005 8.28125 0 14.996094 6.7148435 14.996094 15.0000005zm0 0"/><path d="m480.476562 256.011719c0 8.28125-6.714843 15-15 15-8.285156 0-15-6.71875-15-15 0-8.285157 6.714844-15 15-15 8.285157 0 15 6.714843 15 15zm0 0"/><path d="m90.496094 436c0 8.285156-6.714844 15-15 15s-15-6.714844-15-15c0-8.28125 6.714844-14.996094 15-14.996094s15 6.714844 15 14.996094zm0 0"/><path d="m165.492188 286.007812c8.289062 0 15-6.707031 15-14.996093 0-8.292969-6.710938-15-15-15-33.089844 0-59.996094-26.910157-59.996094-59.996094 0-8.292969-6.710938-15-15-15-8.292969 0-15 6.707031-15 15 0 33.085937-26.90625 59.996094-59.996094 59.996094-8.292969 0-15 6.707031-15 15 0 8.289062 6.707031 14.996093 15 14.996093 33.089844 0 59.996094 26.910157 59.996094 60 0 8.289063 6.707031 14.996094 15 14.996094 8.289062 0 15-6.707031 15-14.996094 0-33.089843 26.90625-60 59.996094-60zm-74.996094 10.296876c-6.664063-10.015626-15.277344-18.628907-25.296875-25.292969 10.019531-6.667969 18.632812-15.277344 25.296875-25.296875 6.664062 10.019531 15.277344 18.628906 25.296875 25.296875-10.019531 6.664062-18.632813 15.277343-25.296875 25.292969zm0 0"/><path d="m465.476562 391.003906c-24.8125 0-45-20.183594-45-44.996094 0-8.292968-6.707031-15-14.996093-15-8.292969 0-15 6.707032-15 15 0 24.8125-20.1875 44.996094-45 44.996094-8.289063 0-14.996094 6.707032-14.996094 15 0 8.289063 6.707031 15 14.996094 15 24.8125 0 45 20.183594 45 44.996094 0 8.289062 6.707031 15 15 15 8.289062 0 14.996093-6.710938 14.996093-15 0-24.8125 20.1875-44.996094 45-44.996094 8.289063 0 15-6.710937 15-15 0-8.292968-6.710937-15-15-15zm-59.996093 30.042969c-4.277344-5.699219-9.347657-10.765625-15.042969-15.042969 5.695312-4.277344 10.765625-9.347656 15.042969-15.042968 4.273437 5.695312 9.34375 10.765624 15.042969 15.042968-5.699219 4.277344-10.769532 9.34375-15.042969 15.042969zm0 0"/></svg>