<svg id="Layer_1" enable-background="new 0 0 100 100" viewBox="0 0 100 100" xmlns="http://www.w3.org/2000/svg"><g><path d="m92.6772919 60.6175232c.0175934.1146164.0264206.2292328.0264206.3437958 0 .1146202-.0088272.2292366-.0264206.3350296-.0176544.0528946-.0088272.0970192-.0176544.1499138-.0528946.2556572-.1498642.5025406-.2821274.72295-.0176544.0352478-.0264206.0704918-.044075.0969658-.1410904.211586-.2997742.3967476-.4937134.5554352-.026474.0264244-.0617218.0617218-.096962.0881424-.1939926.1498642-.4143982.2733078-.643631.3615036-.0352478.0175934-.0793228.0175934-.114624.035244-.096962.0352478-.1939316.0617218-.2909012.0881424-9.0896683 1.7897491-12.5633163 6.2155838-14.2648697 18.223465 0 .017601-.0176544.0352478-.0176544.0616684-.0440674.264534-.1322632.5201874-.2556534.7582474-.0176468.0352478-.0441208.0617218-.0617218.0969696-.1322632.2292328-.3086014.4408188-.5025406.617157-.0176468.0088272-.0352936.0175934-.0528946.0352478-.2028122.167511-.4408188.3086014-.6876984.405571-.0088272.0088272-.0264206.0175934-.0352478.0175934-.2821274.1058502-.573082.1587448-.8728104.1587448h-.0088272c-.2997818 0-.590683-.0528946-.8639832-.1587448-.0176544 0-.0353012-.0175934-.0529556-.0175934-.237999-.0969696-.4672394-.23806-.6699982-.405571-.0176468-.0176544-.0441208-.0264206-.0617218-.044075-.193985-.1763382-.3703232-.379097-.502533-.6083298-.0176544-.0352478-.044075-.0617218-.0617218-.0969696-.1234436-.23806-.211586-.4937134-.255661-.7582474 0-.0264206-.0176468-.0440674-.0176468-.0616684-.3262024-2.4950409-.855217-4.9636154-1.586937-7.3705215l-.0176468-.0617218c-2.1071243-6.5505524-5.7658844-9.4334641-12.669117-10.7912216-.0969658-.0264206-.1851616-.0528946-.2821274-.0881424-.0352478-.0176506-.079319-.0176506-.1146164-.035244-.2292366-.0881958-.449646-.2116394-.6435776-.3615036-.0352478-.0264206-.070549-.061718-.105793-.0881424-.1851654-.1586876-.3526764-.3438492-.48489-.5554352-.0176506-.0352974-.0353012-.061718-.0528946-.0969658-.132267-.2292328-.2292366-.4849434-.2909584-.749424-.0088234-.0440712-.0088234-.0969658-.0088234-.1498642-.0440712-.2204094-.0440712-.440815 0-.6612244.0088234-.0528984 0-.105793.0088234-.1498642v-.0088272c.0352478-.132267.070549-.2644768.1234436-.3879204.1146164-.3262024.3085518-.6259804.5466118-.8728104l.0175934-.0176506c.097023-.0969696.202816-.1851654.3174324-.2644806.0175934-.0176506.035244-.0353012.0528946-.0440712.141037-.0970192.2821312-.1763382.4319954-.23806h.0264206c.1410904-.0617218.299778-.105793.4496422-.132267h.0088234c6.8944054-1.3577003 10.5531654-4.2406693 12.6602898-10.773571.0176544-.0440712.026474-.0881958.044075-.132267.7229462-2.3892021 1.2431335-4.8401794 1.5693359-7.3175735.0088272-.0528984.0264206-.0881424.0352478-.1410408.0176468-.0881958.0353012-.167511.0617218-.2557068.026474-.079319.0528946-.1498642.0793686-.2204094.0352478-.079319.0704956-.1498642.1057892-.2204094.044075-.0705452.0793228-.141037.1322174-.211586.0441208-.061718.097023-.132267.1410904-.1939316.0528946-.0617218.0969696-.1146164.1498642-.1675148.0617218-.0617218.1322632-.1234398.2027588-.1851616.0617218-.0352478.1146164-.0793724.167511-.1146164.0793762-.0528984.1587448-.105793.2468872-.1498642.0528946-.0353012.1057892-.0617218.167511-.0793724.0881424-.0440712.1763382-.0793152.2733078-.105793.0705414-.0176468.1322632-.035244.2027588-.0528946.0617218-.0088234.1322632-.035244.167511-.035244h.1146164c.1586914-.0176506.3173752-.0176506.4848938 0 .0352936 0 .0528946-.0088272.1057892 0 .0617218.0088234.1058426.0264206.167511.035244.070549.0176506.1322708.0352478.2028122.0528946.0969696.0264778.1939392.0617218.2909012.105793.0441284.026474.097023.0440712.1499176.0705452.0881424.0528984.185112.105793.2733078.1675148.0440674.0352478.0881424.0705452.1322098.105793.0793762.0617218.1499176.1234398.2204132.2027588.0441208.0440712.0881958.0881958.1322632.1410904.0617218.0704918.1146164.1410408.1675186.2204094.0440674.0617218.0793152.1233902.1146164.185112.0440674.0793686.0793152.1586876.1146164.2380562.0264206.0705452.0528946.1410408.0793152.211586.026474.0881958.0441284.1763382.0617218.2644806.0088272.0441246.0353012.0881958.0353012.132267 1.7015533 11.9990616 5.1663742 16.4337196 14.2648697 18.2234116.1675186.026474.3262024.0793724.4848938.1499176.2909546.114563.5554352.2909012.7758408.5113106l.0264206.0176506c.0881958.0969658.1763382.2027588.2557144.3085518.0175934.026474.0352402.0441246.0528946.0705452.0881424.132267.167511.2821312.2380066.4319916.0617218.1499176.1057892.3086052.1410904.47612v.00877c.0088272.0441246.0088272.097023.0088272.1410942v.0088232z"/><path d="m34.0715904 81.4091797v.0088272c0 .1146164-.0176506.2292328-.0352478.3438492-.0088234.017601-.0088234.044075-.0088234.0704956 0 .026474 0 .0528946-.0088272.0793686-.0528946.2468338-.141037.4937134-.273304.7229538-.0176506.0264206-.026474.0617142-.0528946.096962-.132267.2027588-.2909546.3967514-.48489.5554352-.0353012.0264206-.0617218.0528946-.105793.0793152-.1939888.1587448-.405571.282135-.6348076.3615036-.0440674.0176544-.0793152.0264206-.1146164.044075-.0969658.0352402-.1939316.0617218-.2909546.0881958-5.7129879 1.110817-7.7848129 3.8086166-8.8780327 11.4876938-.0088253.026474-.0264759.044075-.0264759.0617218-.0440712.2644806-.132267.520134-.2556553.758194-.0176487.0353012-.0352993.070549-.0617199.1057892-.132267.2292404-.2997799.4319992-.5025406.6083374-.0088234.0176468-.0352459.026474-.0440693.0352936-.211586.1762848-.4408188.3085556-.6877041.4055252l-.0440712.026474c-.273304.096962-.5642586.1586838-.8639851.1498642h-.0176506c-.2909546.0088196-.5818558-.044075-.863987-.1498642-.0088253-.0088272-.026474-.026474-.0440712-.026474-.2468834-.0969696-.4761181-.2292404-.6788769-.4055252-.0176506-.0088196-.0352993-.0176468-.0528965-.0352936-.2028122-.1763382-.3702717-.379097-.5025387-.6083374-.0176506-.0352402-.0440712-.070488-.0617218-.1057892-.1234417-.23806-.2115841-.4937134-.2556553-.758194 0-.0176468-.0176487-.0352478-.0176487-.0617218-1.0932217-7.6790771-3.173871-10.3680573-8.8869133-11.4876938-.0969667-.026474-.1939344-.0529556-.2821302-.0881958-.0440712-.0176544-.0793171-.0264206-.1233883-.044075-.2292337-.0881424-.4408178-.2027588-.6348057-.3615036-.0352468-.0264206-.0705462-.0528946-.105792-.0793152-.1851635-.1586838-.3526764-.3526764-.48489-.5554352-.0176497-.0352478-.0352459-.0705414-.052896-.096962-.132267-.23806-.2292337-.4848938-.2909551-.7494278-.0176494-.0528946-.0176494-.0969696-.0176494-.1498642-.0175962-.1057892-.0264215-.2204056-.0264215-.335022 0-.1057968.0088253-.2204132.0264215-.3350296.0176497-.0440674.0088248-.0969696.0176497-.141037v-.0088272c.026475-.1322632.0705462-.2556534.1146173-.379097.2997799-.8199158 1.0050783-1.4194183 1.86024-1.586937 3.817502-.7582474 6.0127687-2.2129135 7.3705235-5.395607.0087719-.0176544.0264206-.0441284.0352459-.070549.7405453-1.9396133 1.2342587-3.9585342 1.4723186-6.0215912.0088253-.044075.026474-.0881424.0352993-.1322098.0175972-.0881958.0352459-.1763382.0704918-.264534.0176506-.0704956.0440712-.1410446.0705471-.211586.0352459-.0793152.0705452-.1586914.1146164-.23806.0352459-.0616684.0793171-.1233902.1146164-.185112.0528965-.0793686.105793-.1498642.1675148-.2204056.0440693-.0528946.0881405-.0969696.1322117-.1410904.0705471-.0704956.1410923-.1410446.2204094-.2027588.0441246-.0352478.0881958-.070549.132267-.1057968.0881424-.0617218.1763382-.1146164.2733059-.167511.0528965-.0264206.1057911-.044075.1586876-.070549.0881958-.0440674.1851635-.0793152.2821312-.1057892.0617199-.0175934.141037-.0352478.2027588-.0528946.0617199-.0088272.132267-.0352478.1675129-.0352478h.1146164c.0793724-.0088272.1586895-.0088272.23806-.0088272.0793171 0 .1675129 0 .24683.0088272h.1057911c.0529499.0088272.1058464.0176468.1587429.0352478.0704918.0176468.1410389.0353012.2115841.0528946.0969677.026474.1851101.0617218.2821293.1057892.0528965.026474.105793.0441284.1586895.070549.0881424.0528946.1763382.1057892.2644806.167511.0440712.0352478.0881405.070549.132267.1057968.0793171.0617142.1586876.1322632.2291794.2027588.0441246.0441208.0881958.0881958.1234417.1410904.0617218.0705414.1234417.141037.1675129.2204056.0440712.0617218.0705471.1057968.1146183.185112.0440712.0705414.0881424.167511.1146164.23806.0264206.0705414.0528965.1234436.0793705.211586.0264225.0881958.0440712.1763382.0616684.264534.0088253.0440674.0352993.0881348.0352993.1322098.5466099 3.8439255 1.3400517 6.435936 2.7066307 8.1992111 1.3665257 1.7809219 3.314909 2.7331009 6.1714573 3.2885361.8551598.1675186 1.5516357.7670212 1.8514137 1.5781097.0528984.1234436.0969696.255661.1234436.3879242v.0088272c.0088234.0528946.0088234.0969696.0088234.1498642.017597.1146165.0352476.2204057.0352476.3350221z"/><path d="m58.7518768 33.5424423c-12.0607834 2.3804321-16.6453056 8.2080345-18.8934669 24.0069504 0 .026474-.0175972.0441246-.0175972.0705452-.0441246.2644806-.132267.5201874-.2557106.758194-.0175934.0353012-.0440712.0617218-.061718.0970192-.1322136.2291832-.3085518.4319954-.5025406.6083336-.0175972.0175972-.0352478.0264206-.0528984.0440712-.2027588.167511-.4319916.2997246-.6788216.4055176-.0176506 0-.0353012.0176506-.0440712.0176506-.1675148.0617218-.343853.105793-.5201912.132267-.1146164.0175972-.2292328.0264206-.3526726.0264206h-.0087738c-.1146164 0-.2292328-.0088234-.3438492-.0264206-.1851654-.026474-.3526764-.0705452-.5201912-.132267-.0175972-.0088272-.035244-.0176506-.0440712-.0176506-.2468834-.105793-.4760628-.2380066-.6877022-.4055176-.00877-.0176506-.0264206-.0353012-.0440712-.0528984-.1939316-.1763344-.3702698-.379097-.5025368-.6083298-.0175972-.0353012-.0440712-.0705452-.0616684-.105793-.1234436-.2380562-.2116394-.4937134-.2468834-.7582474-.0088272-.0175972-.0264778-.0352478-.0264778-.0616684-.440815-3.4912987-1.2078362-6.9297028-2.2745819-10.279911-.0705452-.1498642-.132267-.3085518-.1675148-.4672394-2.8388958-7.9347305-7.6525974-11.5318222-16.4513683-13.2598495-.0969667-.0175972-.1939344-.0528946-.2821302-.0881424-.0440712-.0088234-.0793171-.0176506-.114563-.0353012-.238059-.0881386-.4496431-.2115822-.643631-.3614464-.0352468-.0264206-.0704927-.0528946-.105793-.0793686-.1851091-.1674614-.352622-.352623-.484889-.564209-.0176497-.026474-.0352459-.0617218-.0528955-.0970192-.132267-.2291794-.2292347-.4760647-.2909555-.7405453-.0088253-.0528965-.0088253-.105793-.0088253-.1498642-.0440712-.2204075-.0440712-.4496422 0-.6700516.0088253-.0528965 0-.0969677.0088253-.1498623v-.0088253c.2204094-.9874287.996254-1.7544479 1.9836826-1.9660873 12.0519581-2.3803749 16.6453018-8.2080345 18.8934669-23.989296 0-.0440712.0176506-.0881958.026474-.132267.0176506-.0969672.0440712-.1939344.0705452-.2644801.0175972-.079371.0440712-.1410923.079319-.2204094.035244-.0793707.0705452-.149863.105793-.229234.0352974-.0617211.0793686-.132267.1234398-.1939342.0440712-.0705459.0969696-.1410921.1498642-.211638.0440712-.052896.0969658-.105792.1410904-.1498632.0704918-.0705459.1410408-.1322131.211586-.1939342.0528946-.0352998.0969658-.0705459.1498642-.105792.0793686-.0617211.167511-.1146171.2556534-.158742.0529518-.0264211.1058464-.052896.1675148-.0793171.0881958-.0440712.1763382-.0705462.273304-.105792.0705452-.0176501.1499176-.0353.2116394-.052896.061718-.008826.1322098-.035301.167511-.035301h.3437996c.0881958 0 .1763382 0 .264534.0088251.0264206 0 .0440712-.0088251.0969658 0 .0440712.0088248.0969658.026475.141037.0352998.0793724.0175962.1586876.0352461.23806.0617211.0881424.0264211.1675148.052896.24683.0881422.0705452.0264211.132267.0617211.1939888.096967.0793152.0440712.1586876.088196.23806.1410921.0528946.0352461.1057892.0793171.167511.1233883.0616684.052896.1322136.105792.1939354.1675131.0528946.052896.0969658.105792.1498642.1675131.0528946.0617208.1057892.132267.1499138.2028129.0440712.0616672.079319.1322131.1233902.2027593.0353012.0705459.0793724.149863.105793.2204089.026474.0705462.0528946.132267.0793686.2204094.0264778.0881419.0440712.1763382.070549.2644801 0 .0440712.0264206.0881958.0264206.132267 2.2481613 15.7900877 6.841507 21.6265182 18.8846931 23.9981232.3349724.0705471.6435776.1939888.9257088.379097.105793.0793724.2027588.1586895.2997246.2468853.0264778.0264206.0440712.0440712.070549.0617199.0881424.0881424.167511.1851101.2380562.2909012.0264244.0264759.0528984.0528965.0704918.0881958.097023.1322136.1763382.2733059.23806.4319935.0617218.1498642.1146164.3085518.1410942.4760647v.0088253c.0175934.0440712.0175934.0969677.0175934.1410923.0176506.1146164.0264778.2291794.0264778.3350258 0 .114563-.0088272.2291813-.0264778.3349724-.0175934.0529499-.0088234.0970211-.0175934.1499176-.0529518.2644787-.1499176.520134-.2909546.7493706-.0176506.026474-.0264778.061718-.0528984.0969658-.132267.2028122-.2909546.3967476-.48489.5554352-.0352974.026474-.061718.0528946-.0970192.0881958-.1939354.1498642-.4143448.273304-.6435776.3614464-.0352478.0088272-.0793724.0176506-.1146164.0264778-.0969697.0440661-.1939355.0704905-.2909547.0881373z"/></g></svg>