<svg id="Layer_1" height="512" viewBox="0 0 24 24" width="512" xmlns="http://www.w3.org/2000/svg" data-name="Layer 1"><path d="m22 12.75a.75.75 0 0 1 -.75-.75 9.25 9.25 0 0 0 -15.791-6.541 9.427 9.427 0 0 0 -.862.993.75.75 0 0 1 -1.2-.9 11.235 11.235 0 0 1 1-1.15 10.75 10.75 0 0 1 18.353 7.598.75.75 0 0 1 -.75.75z"/><path d="m12 22.75a10.748 10.748 0 0 1 -10.75-10.75.75.75 0 0 1 1.5 0 9.25 9.25 0 0 0 15.791 6.541 9.331 9.331 0 0 0 .861-.992.751.751 0 0 1 1.2.9 11.087 11.087 0 0 1 -1 1.151 10.684 10.684 0 0 1 -7.602 3.15z"/><path d="m20.485 21.235a.75.75 0 0 1 -.75-.75v-2.078h-2.079a.75.75 0 0 1 0-1.5h2.829a.75.75 0 0 1 .75.75v2.828a.75.75 0 0 1 -.75.75z"/><path d="m6.343 7.093h-2.828a.75.75 0 0 1 -.75-.75v-2.828a.75.75 0 0 1 1.5 0v2.078h2.078a.75.75 0 0 1 0 1.5z"/><path d="m16.946 11.531 1.408-2.347-6.854-4.116-1.414 2.347a3.709 3.709 0 0 0 .069 3.3.2.2 0 0 1 -.157.26 3.707 3.707 0 0 0 -2.944 1.493l-1.408 2.348 6.859 4.116 1.409-2.347a3.712 3.712 0 0 0 -.068-3.3.2.2 0 0 1 .156-.26 3.709 3.709 0 0 0 2.944-1.494z"/><rect height="2" rx="1" transform="matrix(.857 .514 -.514 .857 5.677 -6.785)" width="10" x="10.087" y="5.855"/><rect height="2" rx="1" transform="matrix(.857 .514 -.514 .857 10.091 -2.142)" width="10" x="3.913" y="16.145"/></svg>