<svg id="Layer_1" enable-background="new 0 0 100 100" viewBox="0 0 100 100" xmlns="http://www.w3.org/2000/svg"><path d="m62.1997032 46.5898438 12.1036568-9.9903145c2.6896973-2.2093964 4.2266693-5.4754601 4.2266693-9.029705v-16.0401183h1.7290955c2.0172729 0 3.6503067-1.6330318 3.6503067-3.6503072v-1.7290916c0-2.0172749-1.6330262-3.6503072-3.6503067-3.6503072h-60.4221936c-2.0172749 0-3.6503067 1.6330323-3.6503067 3.6503072v1.6330318c0 2.0172753 1.6330318 3.6503072 3.6503067 3.6503072h1.7290916v16.0401154c0 3.4581852 1.536972 6.7242508 4.2266712 9.0297089l12.103653 9.9903145c.8645477.6724243 1.2487869 1.6330338 1.2487869 2.6897011v1.4409103c0 1.0566635-.4803047 2.0172729-1.2487869 2.6896973l-12.1997127 10.1824349c-2.6896992 2.2093964-4.2266693 5.4754562-4.2266693 9.0297089v16.0401154h-1.7290936c-2.0172749 0-3.6503067 1.6330261-3.6503067 3.6503067v1.6330338c0 2.0172729 1.6330318 3.6503067 3.6503067 3.6503067h60.422184c2.0172729 0 3.6503143-1.6330261 3.6503143-3.6503067v-1.6330338c0-2.0172729-1.6330338-3.6503067-3.6503143-3.6503067h-1.7290954v-16.0401154c0-3.4581833-1.5369644-6.7242508-4.2266693-9.0297089l-12.0075874-9.9903145c-.8645477-.6724243-1.2487869-1.6330338-1.2487869-2.6897011v-1.4409103c-.0000001-1.152729.4803046-2.1133346 1.2487868-2.7857589zm-3.6503029 11.3351631 12.1036453 9.9903145c1.3448486 1.1527252 2.1133347 2.785759 2.1133347 4.5148468v10.9272079c0 2.8237839-2.2891235 5.1129074-5.1129074 5.1129074h-35.3069649c-2.8237782 0-5.1129036-2.2891235-5.1129036-5.1129074v-10.8311386c0-1.7290955.768486-3.4581833 2.1133366-4.5148468l12.1036472-9.9903183c2.1133385-1.7290916 3.3621254-4.4187927 3.3621254-7.2045555v-1.4409103c0-2.7857628-1.2487869-5.3793983-3.3621254-7.2045517l-12.1036472-9.9903184c-1.3448486-1.152729-2.1133366-2.7857609-2.1133366-4.5148525v-11.0232735c0-2.8237791 2.2891254-5.1129045 5.1129036-5.1129045h35.3069649c2.8237839 0 5.1129074 2.2891254 5.1129074 5.1129045v10.9272118c0 1.7290916-.768486 3.4581852-2.1133347 4.5148525l-12.1036453 10.0863762c-2.1133385 1.7290916-3.3621254 4.4187889-3.3621254 7.2045517v1.4409103c0 2.6897011 1.1527253 5.3794022 3.3621254 7.1084939z"/><path d="m67.771225 80.4555283v2.4015198c0 1.5369644-1.2487946 2.785759-2.785759 2.785759h-29.9709396c-1.536972 0-2.7857628-1.2487946-2.7857628-2.785759v-2.4015198c0-2.3054581 1.0566673-4.5148468 2.7857628-5.9557648l9.894249-8.2612152c2.4015198-2.0172729 7.6848602-2.0172729 10.1824379 0l9.8942604 8.2612152c1.8251418 1.440918 2.7857513 3.6503143 2.7857513 5.9557648z"/></svg>