<svg viewBox="0 0 64 64" xmlns="http://www.w3.org/2000/svg"><g id="Ice_Berg" data-name="Ice Berg"><path d="m39.37 41h3.95l-1.84 1.01a.9988.9988 0 0 1 -1.15-.14z"/><path d="m28.33 46h3.34l-1.07.8a1.0286 1.0286 0 0 1 -.6.2.977.977 0 0 1 -.59-.2z"/><path d="m10.26 30h-4.01l4.95-6.6a.925.925 0 0 1 .55-.36z"/><path d="m33.8 30h-21.49l1.35-6.29 2.07 1.04 11.86-14.4 5.07 12.04-1.98.66a1.035 1.035 0 0 0 -.63.63.9976.9976 0 0 0 .12.87z"/><path d="m44.07 30h-7.87l-3.64-5.47 1.76-.58a.9832.9832 0 0 0 .59-.54.97.97 0 0 0 .01-.8l-5.28-12.55 8.43 10.38.95 4.76a.9563.9563 0 0 0 .31.54z"/><path d="m57.75 30h-10.7l-6.13-5.52-.94-4.68a.9991.9991 0 0 0 -.2-.43l-.86-1.05.76-1.13.49-.74a.9582.9582 0 0 1 .71-.44.9679.9679 0 0 1 .48.06.9973.9973 0 0 1 .31.19l9.02 8.12.42-.83a1.0135 1.0135 0 0 1 .8-.55.9864.9864 0 0 1 .89.4z"/><path d="m60 32a1.0029 1.0029 0 0 1 -1 1h-.65l-5.72 4.65a.9988.9988 0 0 1 -1.4-.15l-.48-.57-3.78 2.07h-10.97a1 1 0 0 0 0 2h2.39l-4.03 3h-8.74l-4.07-3h6.45a1 1 0 0 0 0-2h-9.16l-3.03-2.24-3.52 1.07a1.0447 1.0447 0 0 1 -.92-.18l-5.72-4.65h-.65a1 1 0 0 1 0-2h54a1.0029 1.0029 0 0 1 1 1z"/><path d="m21.55 41h-11.55a1 1 0 0 1 0-2h8.84z"/><path d="m38.93 40.6.44.4h-.98z"/><path d="m55 40a1.0029 1.0029 0 0 1 -1 1h-10.68l3.65-2h7.03a1.0029 1.0029 0 0 1 1 1z"/><path d="m25.62 44 2.71 2h-7.93a1 1 0 0 1 0-2z"/><path d="m45 45a1.0029 1.0029 0 0 1 -1 1h-12.33l2.69-2h9.64a1.0029 1.0029 0 0 1 1 1z"/><path d="m32 51h-9.6a1 1 0 0 1 0-2h9.6a1 1 0 0 1 0 2z"/><path d="m40 51h-4.6a1 1 0 1 1 0-2h4.6a1 1 0 0 1 0 2z"/><path d="m34 56h-4.6a1 1 0 0 1 0-2h4.6a1 1 0 0 1 0 2z"/><circle cx="22" cy="8" r="1"/><circle cx="14" cy="15" r="1"/><circle cx="55" cy="7" r="1"/><circle cx="56" cy="19" r="1"/><circle cx="45" cy="8" r="1"/><circle cx="48" cy="16" r="1"/><circle cx="7" cy="21" r="1"/><circle cx="39" cy="12" r="1"/><circle cx="6" cy="6" r="1"/></g></svg>