<svg id="Layer_1" viewBox="0 0 64 64" xmlns="http://www.w3.org/2000/svg" data-name="Layer 1"><path d="m61 44.938h-58c-.553 0-1-.448-1-1s.447-1 1-1h58c.553 0 1 .448 1 1s-.447 1-1 1z"/><path d="m41.998 8.572c-.553 0-1-.448-1-1v-2.424c0-.552.447-1 1-1s1 .448 1 1v2.424c0 .552-.447 1-1 1z"/><path d="m47.511 10.867c-.256 0-.512-.098-.707-.293-.391-.391-.391-1.023 0-1.414l1.714-1.714c.391-.391 1.023-.391 1.414 0s.391 1.023 0 1.414l-1.714 1.714c-.195.195-.451.293-.707.293z"/><path d="m52.209 16.388h-2.424c-.553 0-1-.448-1-1s.447-1 1-1h2.424c.553 0 1 .448 1 1s-.447 1-1 1z"/><path d="m49.204 23.614c-.256 0-.512-.098-.707-.293l-1.714-1.713c-.391-.39-.391-1.023 0-1.414s1.023-.391 1.414 0l1.714 1.713c.391.39.391 1.023 0 1.414-.195.195-.451.293-.707.293z"/><path d="m41.969 26.599c-.553 0-1-.448-1-1v-2.423c0-.552.447-1 1-1s1 .448 1 1v2.423c0 .552-.447 1-1 1z"/><path d="m34.742 23.594c-.256 0-.512-.098-.707-.293-.391-.391-.391-1.024 0-1.414l1.714-1.713c.391-.391 1.023-.391 1.414 0s.391 1.024 0 1.414l-1.714 1.713c-.195.195-.451.293-.707.293z"/><path d="m34.182 16.359h-2.424c-.553 0-1-.448-1-1s.447-1 1-1h2.424c.553 0 1 .448 1 1s-.447 1-1 1z"/><path d="m36.477 10.846c-.256 0-.512-.098-.707-.293l-1.713-1.713c-.391-.391-.391-1.024 0-1.414.391-.391 1.023-.391 1.414 0l1.713 1.713c.391.391.391 1.024 0 1.414-.195.195-.451.293-.707.293z"/><path d="m23.117 52.778c-1.831 0-3.662-.559-5.089-1.677-2.164-1.694-5.55-1.692-7.714 0l-.235.185c-.437.341-1.064.262-1.404-.171-.34-.435-.263-1.063.172-1.404l.235-.184c2.854-2.235 7.326-2.235 10.179 0 2.165 1.694 5.553 1.694 7.712 0 2.855-2.235 7.326-2.237 10.18 0 2.164 1.693 5.55 1.694 7.714 0 2.854-2.235 7.324-2.235 10.178 0l.177.138c.435.34.512.968.172 1.403s-.967.513-1.404.172l-.177-.138c-2.162-1.693-5.549-1.694-7.713 0-2.853 2.236-7.324 2.237-10.179 0-2.163-1.692-5.549-1.694-7.714 0-1.426 1.118-3.257 1.677-5.089 1.677z"/><path d="m23.117 59.363c-1.831 0-3.662-.559-5.089-1.677-2.163-1.692-5.549-1.693-7.714 0l-.235.185c-.437.341-1.064.262-1.404-.171-.34-.435-.263-1.063.172-1.404l.235-.184c2.854-2.235 7.326-2.235 10.179 0 2.165 1.694 5.553 1.693 7.712 0 2.855-2.235 7.326-2.237 10.18 0 2.166 1.695 5.552 1.693 7.714 0 2.854-2.235 7.324-2.236 10.178 0l.177.138c.435.34.512.968.172 1.403-.34.434-.967.513-1.404.172l-.177-.138c-2.162-1.693-5.549-1.694-7.713 0-2.853 2.235-7.324 2.236-10.179 0-2.163-1.692-5.549-1.693-7.714 0-1.426 1.118-3.257 1.677-5.089 1.677z"/><path d="m44.088 42.938h12.653l-10.874-11.813-6.023 5.66z"/><path d="m21.936 34.78c-.178.226-.445.364-.732.378-.304.016-.568-.095-.769-.301l-4.355-4.476-7.682 12.556h33.261l-12.195-17.678-7.527 9.521z"/><path d="m41.983 11.291c-2.251 0-4.083 1.832-4.083 4.083s1.832 4.083 4.083 4.083 4.083-1.832 4.083-4.083-1.832-4.083-4.083-4.083z"/></svg>