<svg id="Icons" viewBox="0 0 64 64" xmlns="http://www.w3.org/2000/svg"><path d="m44.57 41.52-2.92-4.53c-1.15-.03-2.32.35-3.17 1.08l-.18.15c-.53.46-1.22 1.04-1.98 1.04-.22 0-.44-.05-.66-.16-.43-.21-.68-.59-.9-.92-.17-.25-.32-.49-.5-.54-.22-.06-.47.11-.86.41-.38.29-.8.62-1.35.67-.98.1-1.73-.7-2.01-1.5-.15-.45-.2-.89-.25-1.32-.03-.25-.05-.5-.1-.74-.05-.23-.13-.45-.23-.67l-4.44 7.68s0 0 0 .01l-5.42 9.37-.62 1.07h32.74l-7.16-11.1s0 0 0-.01z"/><path d="m23.94 41.97-1.57-2.04c-.58.4-1.23.64-1.87.87-1.64.57-2.99.63-4.19.22-1.72-.58-3.26.15-4.28.63-.5.23-.84.4-1.16.4-.04 0-.07 0-.11 0-.46-.05-.84-.32-1.14-.78l-8.62 11.36h16.77l6.16-10.66z"/><path d="m53.77 44.21c-.64.25-1.32.37-2.01.37-1.17 0-2.34-.36-3.3-1.05-.11-.08-.22-.17-.33-.25-.42-.33-.82-.64-1.21-.62-.1 0-.21.03-.32.08l6.38 9.89h10.02l-7.12-9.87c-.6.65-1.32 1.15-2.11 1.45z"/><path d="m30.84 35.79c.04.39.08.75.2 1.08.15.42.55.86.91.8.25-.03.53-.24.82-.46.38-.29.84-.64 1.4-.64.12 0 .25.02.38.05.55.15.85.61 1.09.98.16.24.31.47.48.55.37.19.88-.21 1.49-.74l.18-.16c.89-.76 2.01-1.22 3.18-1.32l-4.21-6.53c-.5-.77-1.33-1.19-2.25-1.19-.91.02-1.72.51-2.18 1.29l-2.26 3.92c.31.47.53.99.64 1.53.06.28.09.56.12.84z"/><path d="m46.94 41.61c.75 0 1.32.45 1.83.84.1.08.2.15.3.23 1.23.87 2.93 1.09 4.32.55.7-.27 1.35-.73 1.86-1.34l-2.69-3.72c-.47-.65-1.19-1.04-1.99-1.07-.8-.02-1.55.29-2.07.9l-2.84 3.29.36.56c.24-.12.53-.22.86-.23h.05z"/><path d="m10.87 40.99c.09-.01.43-.17.7-.3 1.1-.52 2.95-1.39 5.07-.67.97.33 2.1.27 3.44-.2.62-.22 1.17-.42 1.64-.72l-3.21-4.18c-.49-.64-1.24-1-2.05-1-.82 0-1.57.37-2.07 1.02l-4.09 5.4c.17.41.36.62.57.65z"/><path d="m28.79 19.79c0-4.64-3.78-8.42-8.42-8.42s-8.42 3.78-8.42 8.42 3.78 8.42 8.42 8.42 8.42-3.78 8.42-8.42z"/><path d="m50.37 26.94c-.19.14-.44.14-.62 0-1.14-.85-3.72-2.01-6.31-2.36 2 1.62 4.27 3.56 5.5 5.66.48.83 1.77.83 2.25 0 1.23-2.1 3.5-4.04 5.5-5.66-2.59.35-5.17 1.52-6.31 2.36z"/><path d="m43.31 18.63c.46 0 .88-.25 1.12-.66 1.23-2.1 3.5-4.04 5.5-5.66-2.59.35-5.17 1.52-6.31 2.36-.19.14-.44.14-.62 0-1.14-.85-3.72-2.01-6.31-2.36 2 1.62 4.27 3.56 5.5 5.66.24.41.66.66 1.12.66z"/></svg>