<svg id="Layer_1" viewBox="0 0 1000 1000" xmlns="http://www.w3.org/2000/svg" data-name="Layer 1"><circle cx="500" cy="366.67" r="70.33"/><path d="m500 273.59a15 15 0 0 1 -15-15v-29a15 15 0 1 1 30 0v29a15 15 0 0 1 -15 15z"/><path d="m576.42 305.25a15 15 0 0 1 -10.61-25.61l20.54-20.53a15 15 0 0 1 21.21 21.21l-20.56 20.53a15 15 0 0 1 -10.58 4.4z"/><path d="m637.11 381.67h-29a15 15 0 0 1 0-30h29a15 15 0 0 1 0 30z"/><path d="m597 478.62a14.91 14.91 0 0 1 -10.6-4.39l-20.54-20.54a15 15 0 0 1 21.14-21.21l20.56 20.52a15 15 0 0 1 -10.56 25.62z"/><path d="m500 518.78a15 15 0 0 1 -15-15v-29a15 15 0 0 1 30 0v29a15 15 0 0 1 -15 15z"/><path d="m403.05 478.62a15 15 0 0 1 -10.61-25.62l20.56-20.52a15 15 0 0 1 21.22 21.21l-20.54 20.54a15 15 0 0 1 -10.63 4.39z"/><path d="m391.92 381.67h-29a15 15 0 0 1 0-30h29a15 15 0 0 1 0 30z"/><path d="m423.58 305.25a15 15 0 0 1 -10.61-4.4l-20.53-20.53a15 15 0 0 1 21.21-21.21l20.54 20.53a15 15 0 0 1 -10.61 25.61z"/><path d="m542.44 824h-254.71l119.35-163.06 46.71 56.36v.06l77.9 94 .07.08z"/><path d="m723.85 708.36v115.64h-155.21l-21.54-25.44-72.69-87.72 125.44-151.37z"/><path d="m712 187.82a298.9 298.9 0 0 0 -212-87.82c-165.6 0-299.85 134.25-299.85 299.85v500.15h599.7v-500.15a298.91 298.91 0 0 0 -87.85-212.03zm31.85 656.18h-487.7v-444.15a243.85 243.85 0 1 1 487.7 0z"/></svg>