<?xml version="1.0" encoding="UTF-8"?>
<svg xmlns="http://www.w3.org/2000/svg" viewBox="0 0 512 512" width="512" height="512"><g id="solid"><path d="M376,204a8,8,0,0,1-8,8h-6a10,10,0,0,0,0,20h30V200c0-4.041-.188-8.038-.535-11.99A16.017,16.017,0,0,0,376,204Z"/><path d="M120,400v48H392V400H120Zm56,32H144a8,8,0,0,1,0-16h32a8,8,0,0,1,0,16Zm48,0H208a8,8,0,0,1,0-16h16a8,8,0,0,1,0,16Zm128-16h16a8,8,0,0,1,0,16H352a8,8,0,0,1,0-16Zm-96,0h64a8,8,0,0,1,0,16H256a8,8,0,0,1,0-16Z"/><polygon points="120 325.928 120 356.686 139.426 337.26 120 325.928"/><path d="M276.37,329.144l-63.078-36.8a6.006,6.006,0,0,0-7.267.94L120,379.314V384H228.37Z"/><path d="M168,248a16.019,16.019,0,0,0-16-16h-1.007a8,8,0,0,1-7.746-6,24.089,24.089,0,0,0-20.88-17.883c-.791-.078-1.58-.109-2.367-.11V264h32A16.019,16.019,0,0,0,168,248Z"/><path d="M256,152a24,24,0,0,0-16.971,40.97h0A24,24,0,1,0,256,152Z"/><path d="M341.669,278.813,249.63,384H392V308.117l-42.329-30.235A5.978,5.978,0,0,0,341.669,278.813Z"/><path d="M256,32C163.364,32,88,107.364,88,200V480H424V200C424,107.364,348.636,32,256,32ZM408,456a8,8,0,0,1-8,8H112a8,8,0,0,1-8-8V200c0-83.813,68.187-152,152-152s152,68.187,152,152Z"/><path d="M256,64C183.7,64,124.4,120.721,120.242,192q1.846.012,3.7.193a40.178,40.178,0,0,1,32.876,24.167A32,32,0,0,1,152,280H120v27.4l31.125,18.157,43.587-43.587a22.016,22.016,0,0,1,26.642-3.447L287.1,316.88l42.527-48.6a21.925,21.925,0,0,1,29.344-3.416L392,288.455V248H362a26,26,0,0,1-.993-51.981,32.077,32.077,0,0,1,28.117-23.889C376.23,110.462,321.441,64,256,64Zm33.941,66.746,11.313-11.314a8,8,0,0,1,11.315,11.312l-11.314,11.315a8,8,0,1,1-11.314-11.313ZM248,104a8,8,0,0,1,16,0v16a8,8,0,0,1-16,0Zm-48.568,15.431a8,8,0,0,1,11.314,0l11.313,11.314a8,8,0,0,1-11.314,11.313l-11.314-11.315A8,8,0,0,1,199.432,119.431ZM184,184a8,8,0,0,1,0-16h16a8,8,0,0,1,0,16Zm38.059,37.254-11.313,11.314a8,8,0,0,1-11.315-11.312l11.314-11.315a8,8,0,1,1,11.314,11.313ZM264,248a8,8,0,0,1-16,0V232a8,8,0,0,1,16,0Zm20.284-43.716A40,40,0,1,1,296,176,39.737,39.737,0,0,1,284.284,204.284Zm28.284,28.285a8,8,0,0,1-11.314,0l-11.313-11.314a8,8,0,1,1,11.314-11.313l11.314,11.315A8,8,0,0,1,312.568,232.569ZM328,184H312a8,8,0,0,1,0-16h16a8,8,0,0,1,0,16Z"/></g></svg>
