<svg id="Layer_1" viewBox="0 0 64 64" xmlns="http://www.w3.org/2000/svg" data-name="Layer 1"><path d="m41.934 32.178 2.244 4.131 2.379-1.45-2.215-4.41z"/><path d="m37.018 41.479-3.055 4.096c-.204.272-.535.41-.871.4-.34-.024-.644-.219-.808-.518l-1.351-2.463-4.615 4.616h14.82l-2.383-4.253-1.737-1.879z"/><path d="m17.686 35.893 2.149-3.437-2.401-2.961-2.841 4.108z"/><path d="m26.785 25.117 1.963 2.328 1.865-2.557c.193-.266.503-.434.836-.41.329.009.633.18.812.457l2.853 4.417 1.961-1.942-5.445-10.036-4.844 7.743z"/><path d="m59.057 47.611-3.838-5.372-3.484 1.069c-.463.141-.968-.071-1.187-.507l-3.089-6.149-3.138 1.912c-.158.096-.339.146-.521.146-.087 0-.175-.012-.261-.034-.265-.071-.488-.248-.618-.489l-4.856-8.943-2.42 2.396c-.188.187-.441.29-.703.29-.036 0-.072-.002-.108-.006-.3-.033-.568-.199-.731-.452l-2.73-4.229-1.759 2.411c-.181.248-.466.399-.772.41-.316.008-.602-.12-.8-.355l-2.369-2.811-6.864 10.972c-.147.236-.388.4-.661.452-.276.052-.558-.012-.781-.179l-3.91-2.895-8.548 12.363h18.581l6.973-6.974c.223-.222.54-.326.849-.283.312.045.584.233.735.51l1.243 2.268 2.843-3.812c.178-.238.452-.386.749-.401.298-.02.584.103.787.32l2.635 2.849c.053.058.1.121.138.189l2.989 5.334zm-34.94-11.963-4.032 6.157c-.192.293-.512.452-.838.452-.188 0-.378-.053-.547-.163-.462-.303-.591-.923-.289-1.385l4.032-6.157c.304-.462.922-.59 1.385-.289.462.303.591.923.289 1.385zm1.926-2.939-.269.41c-.192.293-.512.452-.838.452-.188 0-.378-.053-.547-.163-.462-.303-.591-.923-.289-1.385l.269-.41c.304-.461.923-.591 1.385-.289s.591.922.289 1.384z"/></svg>