<svg height="512" viewBox="0 0 512 512" width="512" xmlns="http://www.w3.org/2000/svg"><path d="m228.847 240.645a8 8 0 0 1 8.8 1.7l18.343 18.344 18.343-18.344a8 8 0 0 1 8.8-1.7l24.011 10.268-51.157-69.427-51.157 69.427z"/><path d="m153.594 320.454 45.258 75.43a8 8 0 0 1 -6.86 12.116h-7.355l15.355 19.193 15.355-19.193h-7.355a8 8 0 0 1 -6.86-12.116l48-80a8 8 0 0 1 13.72 0l48 80a8 8 0 0 1 -6.86 12.116h-7.355l15.355 19.193 15.355-19.193h-7.355a8 8 0 0 1 -6.86-12.116l45.258-75.43-32.52-44.133-44.048-18.838-20.173 20.174a8 8 0 0 1 -11.314 0l-20.173-20.174-44.048 18.838z"/><path d="m101.647 274.343 18.343 18.344 18.343-18.344a8 8 0 0 1 8.816-1.693l14.9 6.4-42.055-57.5-42.042 57.485 14.883-6.387a8 8 0 0 1 8.812 1.695z"/><path d="m421.845 168a16.01 16.01 0 0 0 -13.853-8h-8a8 8 0 0 1 -8-8 24 24 0 1 0 -48 0 8 8 0 0 1 -8 8h-8a16.008 16.008 0 0 0 -13.852 8z"/><path d="m89.031 403.941a8 8 0 0 1 .1-8.057l64.824-102.892-8.143-3.5-20.166 20.166a8 8 0 0 1 -11.314 0l-20.167-20.17-34.765 14.921-16.152 22.064a223.044 223.044 0 0 0 54.352 87.919c.113.113.229.221.343.334l5.389-6.726h-7.34a8 8 0 0 1 -6.961-4.059z"/><path d="m199.992 128h-8a8 8 0 0 1 -8-8 24 24 0 1 0 -48 0 8 8 0 0 1 -8 8h-8a16.008 16.008 0 0 0 -13.852 8h107.705a16.01 16.01 0 0 0 -13.853-8z"/><path d="m219.243 204.388 30.309-41.133a8 8 0 0 1 12.881 0l30.3 41.121a63.994 63.994 0 0 0 18.636-20.376h-7.377a8 8 0 0 1 -8-8 32.052 32.052 0 0 1 23.619-30.879 63.739 63.739 0 0 0 -63.619-57.121 64.506 64.506 0 0 0 -50.339 24.512 32.045 32.045 0 0 1 26.339 31.488 8 8 0 0 1 -8 8h-32a63.946 63.946 0 0 0 27.251 52.388z"/><path d="m414.384 97.608a224 224 0 0 0 -382.392 158.392 225.731 225.731 0 0 0 5.78 50.863l75.761-103.586a8 8 0 0 1 12.914 0l46.633 63.761 36.673-49.77a79.937 79.937 0 0 1 -33.763-65.268h-80a8 8 0 0 1 -8-8 32.036 32.036 0 0 1 32-32h.8a39.992 39.992 0 0 1 74.073-11.557 80.537 80.537 0 0 1 61.129-28.443 80.015 80.015 0 0 1 77.436 59.9 39.988 39.988 0 0 1 73.76 12.1h.8a32.036 32.036 0 0 1 32 32 8 8 0 0 1 -8 8h-102.733a80.032 80.032 0 0 1 -27.031 33.257l36.676 49.778 46.631-63.758a8 8 0 0 1 12.915 0l75.763 103.591a225.718 225.718 0 0 0 5.783-50.868 222.535 222.535 0 0 0 -65.608-158.392z"/><path d="m168.782 436.534a8 8 0 0 1 7.21-4.534h7.355l-21.6-27a8 8 0 0 1 6.247-13h9.871l-33.871-56.451-33.872 56.451h9.87a8 8 0 0 1 6.243 13l-16.535 20.644a222.164 222.164 0 0 0 80.139 44.467l-20.094-25.111a8 8 0 0 1 -.963-8.466z"/><path d="m373.647 274.343 18.343 18.344 18.343-18.344a8 8 0 0 1 8.812-1.695l14.883 6.387-42.038-57.483-42.056 57.5 14.9-6.4a8 8 0 0 1 8.813 1.691z"/><path d="m384.783 396.531a8 8 0 0 1 7.209-4.531h9.871l-33.871-56.451-33.87 56.451h9.87a8 8 0 0 1 6.247 13l-21.6 27h7.355a8 8 0 0 1 6.25 12.994l-20.066 25.106a222.154 222.154 0 0 0 80.077-44.43l-16.514-20.68a8 8 0 0 1 -.958-8.459z"/><path d="m417.815 289.488-20.168 20.169a8 8 0 0 1 -11.314 0l-20.165-20.166-8.141 3.5 64.825 102.894a8 8 0 0 1 -6.86 12.115h-7.374l5.394 6.755c.123-.123.25-.241.372-.363a223.05 223.05 0 0 0 54.351-87.914l-16.15-22.069z"/><path d="m199.855 457.023 6.606-9.023h-13.824z"/><path d="m312.13 457.046 7.229-9.046h-13.845z"/><path d="m282.618 436.379a8 8 0 0 1 7.134-4.379h5.595l-21.6-27a8 8 0 0 1 6.247-13h9.871l-33.871-56.451-33.872 56.451h9.87a8 8 0 0 1 6.247 13l-21.6 27h5.595a8 8 0 0 1 6.455 12.726l-21.88 29.886a227.19 227.19 0 0 0 98.352 0l-21.861-29.889a8 8 0 0 1 -.682-8.344z"/></svg>