<svg id="Solid" height="512" viewBox="0 0 512 512" width="512" xmlns="http://www.w3.org/2000/svg"><g id="_10_copy_5" data-name="10 copy 5"><g><path d="m360 104h64a16 16 0 1 0 -5.36-31.082 8 8 0 0 1 -10.666-7.982c.016-.31.026-.622.026-.936a16 16 0 0 0 -32 0c0 .314.01.626.026.936a8 8 0 0 1 -10.666 7.982 16 16 0 1 0 -5.36 31.082z"/><path d="m32 416h64v16h-64z"/><path d="m144 416h224v16h-224z"/><path d="m112 416h16v16h-16z"/><path d="m416 416h64v16h-64z"/><path d="m384 416h16v16h-16z"/><path d="m104 448h104v16h-104z"/><path d="m304 448h104v16h-104z"/><path d="m224 448h64v16h-64z"/><path d="m200 480h112v16h-112z"/><path d="m168 480h16v16h-16z"/><path d="m328 480h16v16h-16z"/><path d="m432 464h16v16h-16z"/><path d="m64 464h16v16h-16z"/><path d="m139.471 216 69.669-116.116a8 8 0 0 1 6.86-3.884h11.664a92.012 92.012 0 1 0 -88.193 120zm-43.471-88a23.9 23.9 0 0 1 16 6.127 23.987 23.987 0 0 1 40 17.873h-16a8 8 0 0 0 -16 0h-16a8 8 0 0 0 -16 0h-16a24.027 24.027 0 0 1 24-24z"/><path d="m196.505 152.04q1.724-.04 3.5-.04c11.7 0 15.981 1.309 22.534 3.624 1.18.416 2.459.868 3.941 1.351 4.525 1.473 6.894 5.627 13.7 18.535.39.742.822 1.559 1.269 2.4.084-.143.166-.283.246-.417 1.618-2.741 3.29-5.576 4.765-7.719 5.156-7.492 10.079-7.021 13.3-5.3a126.458 126.458 0 0 1 12.1 7.528c9.872 6.7 17.67 12 40.143 12a102.9 102.9 0 0 0 21.447-2.031l-41.979-69.971h-70.942z"/><path d="m416 264a8 8 0 0 1 -8 8h-18a22.025 22.025 0 0 0 -22 22v2h84.509a7.979 7.979 0 0 1 1.9-.641 31.839 31.839 0 0 0 25.554-32.93 32.33 32.33 0 0 0 -29.645-30.348 32 32 0 0 0 -34.318 31.919z"/><path d="m449.871 376-38.4-64h-51.471a8 8 0 0 1 -8-8v-10a38.067 38.067 0 0 1 26.868-36.336l-36.8-61.33a114.385 114.385 0 0 1 -30.068 3.666c-27.393 0-38.443-7.5-49.131-14.762-1.722-1.17-3.4-2.306-5.132-3.413-.787 1.293-1.6 2.668-2.268 3.8-1.662 2.815-3.38 5.726-4.919 7.956-2.991 4.336-6.167 6.515-9.479 6.515a8.537 8.537 0 0 1 -3.519-.8c-3.664-1.642-5.551-4.985-11.532-16.326-1.843-3.5-4.762-9.033-6.35-11.4-.877-.3-1.692-.587-2.466-.861-5.104-1.803-7.67-2.709-17.204-2.709a114.659 114.659 0 0 0 -13.52.746l-124.351 207.254h-38.129v16h464v-16zm-129.871-160h16v16h-16zm-72 112h16v16h-16zm-96-40h16v16h-16z"/></g></g></svg>