<svg id="Layer_4" viewBox="0 0 64 64" xmlns="http://www.w3.org/2000/svg" data-name="Layer 4"><path d="m32 2.39c-16.33 0-29.61 13.28-29.61 29.61s13.28 29.61 29.61 29.61 29.61-13.28 29.61-29.61-13.28-29.61-29.61-29.61zm-8.51 50.44-2.03-1.54v-1.73l.82.62c.18.14.4.2.61.2.3 0 .6-.13.79-.39.34-.44.25-1.07-.19-1.41l-2.03-1.53v-1.74l.82.63c.18.13.4.2.61.2.3 0 .6-.14.79-.4.34-.44.25-1.07-.19-1.4l-2.43-1.84c-.36-.27-.85-.27-1.21 0l-2.43 1.84c-.44.33-.52.96-.19 1.4s.96.53 1.4.2l.83-.63v1.73l-2.04 1.54c-.44.34-.52.97-.19 1.41s.96.52 1.4.19l.83-.63v1.74l-2.04 1.54c-.44.33-.52.96-.19 1.4s.96.53 1.4.19l.83-.63v2.79c-7.47-3.81-12.98-10.94-14.58-19.42.05-.06.1-.12.14-.19l14.05-24.91 7.64 13.09s.02.03.04.07c.03.05.06.1.06.1l2.82 4.84c.28.48.89.64 1.37.36s.64-.89.36-1.37l-2.57-4.41 5.24-8.97 8.1 13.83.26.44 1.57 2.67c.19.32.52.49.87.49.17 0 .34-.04.5-.13.48-.28.64-.9.36-1.37l-1.4-2.39 5.21-8.93 8.71 15.47c-3.18-.28-11.38-.39-18.57 4.67.07-.36-.07-.75-.38-.99l-2.03-1.54v-1.73l.82.62c.18.14.4.21.61.21.3 0 .6-.14.79-.4.34-.44.25-1.07-.19-1.4l-2.03-1.54v-1.73l.82.62c.18.14.4.2.61.2.3 0 .6-.13.79-.39.34-.44.25-1.07-.19-1.4l-2.43-1.84c-.36-.27-.85-.27-1.21 0l-2.43 1.84c-.44.33-.52.96-.19 1.4s.96.52 1.4.19l.83-.63v1.74l-2.04 1.54c-.44.33-.52.96-.19 1.4s.96.53 1.4.19l.83-.63v1.74l-2.04 1.54c-.44.34-.52.96-.19 1.4s.96.53 1.4.2l.83-.63v3.72c0 .09.01.17.03.25-.74.84-1.44 1.76-2.11 2.77-.25.38-.49.75-.72 1.11-.38.6-.75 1.17-1.14 1.73-.05-.08-.11-.14-.19-.2l-2.03-1.54v-1.73l.82.62c.19.14.4.2.61.2.3 0 .6-.13.8-.39.33-.44.24-1.07-.2-1.4l-2.03-1.54v-1.73l.82.62c.19.13.4.2.61.2.3 0 .6-.14.8-.4.33-.44.24-1.06-.2-1.4l-2.43-1.84c-.36-.27-.85-.27-1.21 0l-2.43 1.84c-.44.34-.52.96-.19 1.4s.96.53 1.4.2l.83-.63v1.74l-2.04 1.54c-.44.33-.52.96-.19 1.4s.96.52 1.4.19l.83-.63v1.74l-2.04 1.54c-.44.33-.52.96-.19 1.4s.96.53 1.4.19l.83-.63v3.44c-1.4.9-3.19 1.71-5.61 2.46v-2.94l.82.62c.18.14.4.21.61.21.3 0 .6-.14.79-.4.34-.44.25-1.07-.19-1.4zm5.58-.11v-1.87l.82.62c.08.06.16.1.24.13-.32.39-.67.76-1.06 1.12zm8.16-10.28v-1.93l.82.62c.15.11.33.17.5.19-.45.35-.88.73-1.32 1.12zm13.15-24.56c-.17-.31-.5-.51-.86-.51h-.01c-.35 0-.68.19-.86.49l-5.53 9.46-8.23-14.04c-.18-.31-.51-.49-.87-.49-.35 0-.68.18-.86.49l-5.53 9.47-7.71-13.21c-.18-.31-.53-.48-.87-.49-.36 0-.69.19-.87.51l-13.72 24.33c-.05-.62-.07-1.25-.07-1.89 0-15.22 12.39-27.61 27.61-27.61s27.61 12.39 27.61 27.61c0 .71-.03 1.41-.09 2.1z"/></svg>