<svg id="Capa_1" enable-background="new 0 0 512 512" height="512" viewBox="0 0 512 512" width="512" xmlns="http://www.w3.org/2000/svg"><path d="m243.127 224.627 26.409 22.71 13.217-4.544-6.5-10.755c0-.001-.001-.001-.001-.002l-40.221-66.558-39.841 65.93 32.879-9.784c4.892-1.458 10.188-.325 14.058 3.003z"/><path d="m307.37 225.525 10.711 17.725c.017.028.034.055.05.083l26.724 44.223c8.244-9.433 15.015-20.184 19.948-31.893l-40.166-52.869z"/><path d="m298.625 269.059-27.47 9.445c-1.593.548-3.24.815-4.875.815-3.537 0-7.02-1.251-9.782-3.627l-26.722-22.979-56.648 16.857-8.826 14.605c21.651 26.715 54.712 43.825 91.698 43.825 24.444 0 47.176-7.472 66.032-20.251-.128-.191-.257-.381-.377-.58z"/><path d="m256 0c-115.794 0-210 94.206-210 210 0 93.36 61.521 175.213 150.442 201.428l46.14 92.28c2.541 5.082 7.735 8.292 13.417 8.292s10.876-3.21 13.416-8.292l46.141-92.28c88.923-26.214 150.444-108.067 150.444-201.428 0-115.794-94.206-210-210-210zm0 358c-50.134 0-94.518-25.062-121.303-63.31-.59-.709-1.111-1.462-1.555-2.255-15.87-23.575-25.142-51.942-25.142-82.435 0-81.607 66.393-148 148-148s148 66.393 148 148-66.393 148-148 148z"/><path d="m256 92c-65.065 0-118 52.935-118 118 0 15.911 3.173 31.093 8.907 44.957l76.286-126.239c2.716-4.495 7.586-7.242 12.838-7.242s10.122 2.747 12.838 7.242l41.809 69.186 22.015-28.978c2.837-3.733 7.256-5.926 11.944-5.926s9.107 2.192 11.944 5.926l37.152 48.901c.17-2.588.266-5.196.266-7.827.001-65.065-52.934-118-117.999-118z"/></svg>