<svg clip-rule="evenodd" fill-rule="evenodd" height="512" image-rendering="optimizeQuality" shape-rendering="geometricPrecision" text-rendering="geometricPrecision" viewBox="0 0 1707 1707" width="512" xmlns="http://www.w3.org/2000/svg"><g id="Layer_x0020_1"><g id="_545241736"><path d="m199 1342 443-665 16 112c1 7 5 12 11 15s13 3 18 0l191-102 153 202c3 5 9 8 16 8 1 0 2-1 3-1 7-1 13-6 15-12l66-186 457 685c-4-1-7-1-10-2-70-21-211-12-294-5-25-17-54-32-82-42-54-19-110-20-161 8-86 47-160 32-250 9-63-16-130-33-193-6-93 40-192 20-287 1-37-8-75-15-112-19zm475-713 59-88c37-56 87-86 142-86 54 0 104 30 141 86l87 131-62 178-141-186c-6-7-17-10-26-5l-181 96-16-118c0-3-1-5-3-8z"/><path d="m1602 1479c-15 0-30-2-46-7-73-21-285 1-287 1-6 1-11-1-15-4-1-1-100-83-175-42-118 64-223 38-307 17-56-14-104-26-142-10-116 49-232 26-335 5-102-20-190-38-264 10-9 6-22 4-28-6-6-9-3-21 6-27 88-57 188-37 294-16 102 20 207 42 311-3 51-21 107-7 167 8 82 20 175 44 279-13 87-48 186 20 213 41 41-4 222-20 294 1 64 19 104-20 105-22 8-8 20-8 28 0 8 7 9 20 1 28-2 2-38 39-99 39z"/><path d="m577 702c-8-29-13-61-13-92 0-178 145-322 322-322 178 0 323 144 323 322 0 40-7 79-22 116l-39-60-99-147c-40-60-100-104-174-104-75 0-135 44-175 104z"/><path d="m886 182c-11 0-20-9-20-20v-130c0-12 9-20 20-20s20 8 20 20v130c0 11-9 20-20 20z"/><path d="m1111 242c-4 0-7-1-10-3-10-5-13-17-8-27l65-113c6-10 18-13 28-7 9 5 13 17 7 27l-65 113c-4 6-11 10-17 10z"/><path d="m1275 406c-7 0-14-3-18-10-5-9-2-22 8-27l113-65c9-6 21-3 27 7 5 9 2 22-7 27l-113 65c-4 2-7 3-10 3z"/><path d="m1465 630h-130c-11 0-20-9-20-20s9-20 20-20h130c11 0 20 9 20 20s-9 20-20 20z"/><path d="m438 630h-130c-11 0-20-9-20-20s9-20 20-20h130c11 0 20 9 20 20s-9 20-20 20z"/><path d="m498 406c-3 0-7-1-10-3l-113-65c-9-5-13-18-7-27 5-10 18-13 27-7l113 65c10 5 13 18 8 27-4 7-11 10-18 10z"/><path d="m662 242c-7 0-13-4-17-10l-65-113c-6-10-2-22 7-27 10-6 22-3 27 7l66 113c5 10 2 22-8 27-3 2-6 3-10 3z"/><path d="m122 895c-2 0-4-1-5-1-11-3-17-14-14-25 5-15-33-36-60-44-11-4-17-15-13-25 3-11 14-17 25-14 10 4 104 34 86 94-2 9-10 15-19 15z"/><path d="m125 895c-9 0-17-6-19-15-18-60 76-90 86-94 11-3 22 3 25 14 4 10-2 21-13 25-27 8-65 29-60 44 3 11-3 22-14 25-1 0-3 1-5 1z"/><path d="m292 1000c-2 0-4-1-5-1-11-3-17-14-14-25 5-16-36-37-60-44-11-4-17-15-13-25 3-11 14-17 25-14 10 4 104 34 86 94-2 9-10 15-19 15z"/><path d="m295 1000c-9 0-17-6-19-15-18-60 75-90 86-94 11-3 22 3 25 13 3 11-2 22-13 26-27 8-65 29-60 44 3 11-3 22-14 25-2 0-3 1-5 1z"/><path d="m305 833c-2 0-4 0-6-1-11-3-17-14-13-25 4-15-33-36-61-44-10-3-16-15-13-25 3-11 15-17 25-13 11 3 105 34 87 94-3 8-11 14-19 14z"/><path d="m307 833c-8 0-16-6-19-14-18-60 76-91 87-94 10-4 21 2 25 13 3 10-3 22-13 25-28 8-65 29-61 44 4 11-3 22-13 25-2 1-4 1-6 1z"/><path d="m1458 1586h-1209c-11 0-20-9-20-20s9-20 20-20h1209c11 0 20 9 20 20s-9 20-20 20z"/><path d="m1629 1695h-1551c-11 0-20-9-20-20s9-20 20-20h1551c11 0 20 9 20 20s-9 20-20 20z"/></g></g></svg>