<?xml version="1.0" encoding="UTF-8"?>
<svg xmlns="http://www.w3.org/2000/svg" viewBox="0 0 64 64" width="512" height="512"><g id="Icon"><path d="M30.37158,2.05176a24.99946,24.99946,0,0,0-16.04931,42.626c3.74646,4.13233,11.08007,11.77259,15.49316,16.45411a3.00826,3.00826,0,0,0,2.17676.93945,2.96711,2.96711,0,0,0,2.17627-.93994c5.03869-5.33026,14.53143-15.27387,14.43408-15.44629A25.0285,25.0285,0,0,0,57,27C57.26257,12.97089,44.40674.8125,30.37158,2.05176ZM32,47A20,20,0,1,1,52,27,20.02292,20.02292,0,0,1,32,47Zm6-27a1,1,0,1,1,1,1A1.001,1.001,0,0,1,38,20Zm5.28485,21.003A17.80806,17.80806,0,0,1,28.6897,44.68152l3.30914-5.32294,5.12177-2.3537.895.82227a1.00361,1.00361,0,0,0,.96973.21973l2.389-.73188ZM24.87549,20.65723a3,3,0,0,1,5.269.20117L35.018,30.71375l.04547-.07313A3.02939,3.02939,0,0,1,37.729,29.22656a2.96784,2.96784,0,0,1,2.5459,1.61817l4.5437,8.77093a17.99956,17.99956,0,1,0-28.71069-4.18329Zm11.2959,3.585-.707.707a.99989.99989,0,1,1-1.41407-1.41406l.707-.707a.9999.9999,0,0,1,1.41407,1.41407ZM40,26a1,1,0,0,1-2,0V25a1,1,0,0,1,2,0Zm3.94971-1.05078a.99965.99965,0,0,1-1.41407,0l-.707-.707a.9999.9999,0,0,1,1.41407-1.41407l.707.707A.99964.99964,0,0,1,43.94971,24.94922ZM45,19a1,1,0,0,1,0,2H44a1,1,0,0,1,0-2Zm-3.17139-3.24219.707-.707a.99989.99989,0,1,1,1.41407,1.41406l-.707.707a.9999.9999,0,0,1-1.41407-1.41407ZM38,14a1,1,0,0,1,2,0v1a1,1,0,0,1-2,0Zm1,3a3,3,0,1,1-3,3A3.00328,3.00328,0,0,1,39,17Zm-4.94971-1.94922a.99965.99965,0,0,1,1.41407,0l.707.707a.9999.9999,0,0,1-1.41407,1.41407l-.707-.707A.99964.99964,0,0,1,34.05029,15.05078ZM33,19h1a1,1,0,0,1,0,2H33a1,1,0,0,1,0-2ZM26.64282,44.18555a18.06235,18.06235,0,0,1-9.34625-6.8368l2.96423-4.99523,5.80561-2.96485.87207.80176a1.00176,1.00176,0,0,0,.96972.21973l4.10633-1.25794,1.76074,3.56049Zm1.70874-22.44043,2.76471,5.59063-3.24615.99433-.96241-.88477a1.001,1.001,0,0,0-1.13134-.15429l-3.60352,1.84027,4.42236-7.45258a1,1,0,0,1,1.75635.06641Zm8.53858,13.165L33.914,36.278l2.84772-4.58075a.96012.96012,0,0,1,.88867-.47168.982.982,0,0,1,.84863.53906l1.94013,3.74512-1.49188.457-.96289-.88477A1.00157,1.00157,0,0,0,36.89014,34.91016Z"/></g></svg>
