<svg id="Layer_1" enable-background="new 0 0 491.5 491.5" viewBox="0 0 491.5 491.5" xmlns="http://www.w3.org/2000/svg"><g><path d="m93.7 452.3c0 4.7 3.8 8.6 8.5 8.6h36.1c4.1 0 7.4-2.7 8.3-6.7l5.2-23h-58.1z"/><path d="m314.3 39.3c2.1-1.6 2.4-4.7.8-6.7-.9-1.2-2.3-1.8-3.8-1.8-1 0-2.1.3-2.9 1l-67.1 53.1c3.1 1.4 6.1 3.2 9 5.1z"/><path d="m120.1 39.3 64.1 50.7c2.8-2 5.8-3.7 9-5.1l-67.2-53.2c-2.1-1.6-5.1-1.3-6.7.8-1.7 2.1-1.3 5.1.8 6.8z"/><path d="m173 118.1h88.4c-7.6-17.3-24.9-28.9-44.2-28.9s-36.6 11.6-44.2 28.9z"/><path d="m339.7 431.2 5.2 23c.9 4 4.2 6.7 8.3 6.7h36.1c4.7 0 8.5-3.8 8.5-8.5v-21.1z"/><path d="m324 172.9h-213.6c-7.6 0-13.8 6.2-13.8 13.8v175.8c0 7.6 6.2 13.8 13.8 13.8h213.6c7.6 0 13.8-6.2 13.8-13.8v-175.8c0-7.6-6.2-13.8-13.8-13.8z"/><path d="m418.7 127.7c-115.3 0-230.6 0-346 0-11.9 0-21.6 9.7-21.6 21.6v250.7c0 11.9 9.7 21.6 21.6 21.6h346c11.9 0 21.6-9.7 21.6-21.6v-250.7c0-11.9-9.7-21.6-21.6-21.6zm-24.8 35.6c14.7 0 26.6 11.9 26.6 26.6s-11.9 26.6-26.6 26.6c-14.7 0-26.6-11.9-26.6-26.6s11.9-26.6 26.6-26.6zm0 69.9c14.7 0 26.6 11.9 26.6 26.6s-11.9 26.6-26.6 26.6c-14.7 0-26.6-11.9-26.6-26.6 0-14.6 11.9-26.6 26.6-26.6zm0 69.9c14.7 0 26.6 11.9 26.6 26.6s-11.9 26.6-26.6 26.6c-14.7 0-26.6-11.9-26.6-26.6 0-14.6 11.9-26.6 26.6-26.6zm-69.9 82.9h-213.6c-12.9 0-23.4-10.5-23.4-23.4v-175.8c0-12.9 10.5-23.4 23.4-23.4h213.6c12.9 0 23.4 10.5 23.4 23.4v175.8c0 12.9-10.5 23.4-23.4 23.4zm91.9 0h-44c-2.7 0-4.8-2.1-4.8-4.8s2.1-4.8 4.8-4.8h44c2.6 0 4.8 2.1 4.8 4.8 0 2.6-2.2 4.8-4.8 4.8z"/><path d="m393.9 206.9c9.4 0 17-7.6 17-17s-7.6-17-17-17-17 7.6-17 17 7.6 17 17 17z"/><path d="m393.9 276.8c9.4 0 17-7.6 17-17s-7.6-17-17-17-17 7.6-17 17 7.6 17 17 17z"/><path d="m393.9 346.8c9.4 0 17-7.6 17-17s-7.6-17-17-17-17 7.6-17 17c0 9.3 7.6 17 17 17z"/></g></svg>