<svg id="Layer_1" enable-background="new 0 0 491.5 491.5" viewBox="0 0 491.5 491.5" xmlns="http://www.w3.org/2000/svg"><g><path d="m409.3 266.5c-8.9-13.1-9.5-25.9-2.1-40.4 20.1-38.8 18.9-79.6-3.3-115-33.9-53.9-96.3-75.6-155-75.6-15.6 0-31 1.5-45.4 4.4-59.5 11.9-127.8 52.3-141 130.1-7.8 45.9.1 89.8 24.2 134.2 7.6 14.1 14.1 25.1 19.4 34 24.4 41.4 24.5 43.4 2.5 111.1-1.1 3.3 1.4 6.7 4.9 6.7h151.6c3.1 0 4.1-2.2 4.2-2.2 11.6-16.9 30.3-22.6 57.2-17.2 39.3 7.8 54.2 3.7 59.8-1.1 5.8-5 3.8-12.4 1.8-19-2.5-8-5.9-19.1 6.7-29.5 8.9-7.4 7.6-12.2 7.2-13.8-1.5-5.6.3-11.4 4.8-15.2 6-4.9-6.7-18.9.2-29.9 6.2-9.9 22.2-5.3 24.5-11.6 1.5-4.2.7-16.3-22.2-50zm-110.9-175.5h40.9c2.7 0 4.8 2.1 4.8 4.8v40.9c0 2.6-2.1 4.8-4.8 4.8s-4.8-2.1-4.8-4.8v-36.1h-36.1c-6.3 0-6.3-9.6 0-9.6zm-150.9 4.8c0-2.6 2.1-4.8 4.8-4.8h40.9c6.3 0 6.3 9.6 0 9.6h-36.1v36.1c0 2.6-2.2 4.8-4.8 4.8-2.7 0-4.8-2.1-4.8-4.8zm45.6 199h-40.9c-2.7 0-4.8-2.1-4.8-4.8v-40.9c0-6.3 9.6-6.3 9.6 0v36.1h36.1c6.4 0 6.4 9.6 0 9.6zm146.2 0h-40.9c-6.3 0-6.3-9.6 0-9.6h36.1v-36.1c0-6.3 9.6-6.3 9.6 0v40.9c0 2.7-2.2 4.8-4.8 4.8zm39.1-98.6c-33.2 35-81.6 55.1-132.6 55.1-51.1 0-99.4-20.1-132.6-55.1-1.8-1.9-1.8-4.8 0-6.6 69.8-73.4 195.4-73.5 265.3 0 1.7 1.9 1.7 4.8-.1 6.6z"/><path d="m245.8 144.1c-26.9 0-48.8 21.9-48.8 48.8s21.9 48.8 48.8 48.8 48.8-21.9 48.8-48.8-21.9-48.8-48.8-48.8zm0 76.4c-15.3 0-27.9-12.6-27.6-28 .1-3 2.7-5.1 5.5-4.7 6.9 1.1 11.7-6.8 7.8-12.5-1.7-2.4-.8-5.7 1.8-7 18.2-9.3 40.2 3.9 40.2 24.6-.1 15.3-12.5 27.7-27.7 27.6z"/><path d="m241.8 175.3c2.7 9.8-3.7 19.9-13.6 21.8 1.9 7.9 9 13.8 17.5 13.8 9.9 0 18-8.1 18-18 .1-11.5-10.6-20-21.9-17.6z"/><path d="m282.9 237.9c32.6-6.8 62.4-22.3 85.3-45-22.8-22.7-52.6-38.3-85.3-45 28.3 23.4 28.3 66.6 0 90z"/><path d="m208.6 147.9c-32.6 6.8-62.4 22.3-85.3 45 22.8 22.7 52.6 38.3 85.3 45-28.3-23.4-28.3-66.6 0-90z"/></g></svg>