<svg id="Layer_1" enable-background="new 0 0 491.5 491.5" viewBox="0 0 491.5 491.5" xmlns="http://www.w3.org/2000/svg"><g><path d="m211 107.7h69.4c-15-27.2-54.2-27.2-69.4 0z"/><path d="m214.5 88.7c2.6-2.1 5.3-3.9 8.2-5.4l-49.8-51.2c-1.8-1.9-4.9-1.9-6.8-.1s-1.9 4.9-.1 6.8z"/><path d="m325.5 38.9c1.8-1.9 1.8-4.9-.1-6.8-1.9-1.8-4.9-1.8-6.8.1l-49.8 51.2c2.9 1.5 5.6 3.3 8.2 5.4z"/><path d="m322.3 460.8h55v-27.1h-65.2z"/><path d="m428.9 117.3c-123.2 0-246.3 0-369.5 0-8.1 0-14.6 6.6-14.6 14.6v274.3c0 9.9 8 17.9 17.9 17.9h123.6.2 118.7.2 123.6c9.9 0 17.9-8 17.9-17.9v-271c-.1-9.9-8.2-17.9-18-17.9zm-20.5 273.2h-325.2c-2.7 0-4.8-2.1-4.8-4.8v-230c0-2.7 2.1-4.8 4.8-4.8h325.2c2.7 0 4.8 2.1 4.8 4.8v230c0 2.6-2.2 4.8-4.8 4.8z"/><path d="m88 380.9h315.6v-220.4h-315.6zm232.2-137c0-7.4 5.8-13.4 12.9-13.4h18.2c9.2 0 16 10.7 9.3 13.9-2.4 1.1-5.3.1-6.4-2.3-.6-1.2-1.7-2-2.9-2h-18.2c-4.1 0-3.3 5.7-3.3 8.8 0 2 1.5 3.8 3.3 3.8h18.2c7.1 0 12.9 6 12.9 13.4v5c0 7.4-5.8 13.4-12.9 13.4h-18.3c-9.2 0-16-10.7-9.3-13.9 2.4-1.1 5.3-.1 6.4 2.3.6 1.2 1.7 2 2.9 2h18.2c4.1 0 3.3-5.7 3.3-8.8 0-2-1.5-3.8-3.3-3.8h-18.2c-7.1 0-12.9-6-12.9-13.4zm-65.6-10 10 30.4 10-30.4c1.4-4.4 7.7-4.4 9.1 0l10 30.4 10-30.4c2-6 11.1-3 9.1 3l-14.5 44.2c-.6 2-2.5 3.3-4.6 3.3-2.1 0-3.9-1.3-4.6-3.3l-10-30.4-10 30.4c-1.4 4.4-7.7 4.4-9.1 0l-14.5-44.2c-2-6 7.1-9 9.1-3zm-65.7 1.5c0-2.7 2.1-4.8 4.8-4.8h34.4c6.3 0 6.3 9.6 0 9.6h-29.6v12.5h29.6c6.3 0 6.3 9.6 0 9.6h-29.6v12.5h29.6c6.3 0 6.3 9.6 0 9.6h-34.4c-2.7 0-4.8-2.1-4.8-4.8zm-61.5 0c0-4.6 5.8-6.5 8.6-2.9l25.8 33.2v-30.2c0-6.3 9.6-6.3 9.6 0v44.2c0 2.7-2.2 4.8-4.8 4.8-1.5 0-2.9-.7-3.8-1.9l-25.8-33.2v30.2c0 6.3-9.6 6.3-9.6 0zm0 65.7h236.8c6.3 0 6.3 9.6 0 9.6h-236.8c-6.4 0-6.4-9.6 0-9.6z"/><path d="m114.2 460.8h55l10.2-27.1h-65.2z"/></g></svg>