<svg clip-rule="evenodd" fill-rule="evenodd" height="512" image-rendering="optimizeQuality" shape-rendering="geometricPrecision" text-rendering="geometricPrecision" viewBox="0 0 1.70666 1.70666" width="512" xmlns="http://www.w3.org/2000/svg"><g id="Layer_x0020_1"><path d="m.469634.992307c.0112992-.0306457.0355748-.0969409.042122-.102823l.0539843-.0483701.00758268-.104728c.00064961-.00916142.00748031-.016689.0165236-.0182559l.0765512-.0132717c.0059252.00411811.0143819.00911024.0189173.011685.0188543.0107126.0484606.0250591.0719016.0647874.00521654.00884252.0364449.0568583.0615079.0568583.020126 0 .0276732-.0267244.010311-.0371417-.0508976-.0305472-.0277835-.0679606-.120496-.117441l-.00139764-.00075591.113512-.226602c.00530315-.0105748.0186102-.0142756.0286142-.00790551l.207909.132504c-.00787402.00438189-.0176693.00990157-.019815.0110394-.0949016.0501417-.0707283.0873858-.122142.118283-.0173268.0104134-.00981102.0371496.0103071.0371496.00351575 0 .00705906-.00091732.0102795-.00285433.0644606-.0386732.0349331-.0706142.116587-.115256.00344488-.00188583.0202638-.0113937.0285669-.0158937l.0867835.26035c-.0594409.00634252-.100217.0253819-.132209.0259331-.0261102.00044488-.0257598.0399921.00033071.0399921.0471535 0 .0906732-.0333228.184705-.0277165l.0182874.0804331h-.769224z"/><path d="m.146402.992307.0582835-.104283c.00868504-.0155551.0890591-.0351378.0968425-.0422244.00543307-.00494094.0345984-.0739094.0548583-.111472.00643701.00394882.0124449.00761417.0132323.00822441.0125039.00973228.0371181.0182874.0537126.0464488.00464961.00788976.0264606.0412362.0467795.0412362.020126 0 .0276575-.026748.0103031-.0371575-.0324488-.0194646-.0165866-.0459685-.0854016-.0809961-.00055512-.00027953-.00633071-.00357874-.0126102-.00715748.123457-.0742874.116201-.137386.18676-.0220354-.0200118.00877559-.0340945.0280512-.0357283.0506063l-.00641732.0886142-.0419488.0375866c-.014563.0130472-.0289921.0548858-.0361614.0736969-.00725984.0190551-.0140433.0383346-.0213661.0573386l-.00057874.0015748h-.280559z"/><path d="m1.27987.992307-.0219331-.0964646c-.00711024-.0312756-.0316969-.0415984-.0574488-.0504055l-.0677126-.20315c.040563-.0336496.0530197-.0384291.102201.0423268.0113268.0186024.0252638.0414961.0440945.0704724l.0958661.0367244c-.00761811.00430709-.0148425.00841339-.0162362.00916535-.0622717.0335906-.0481142.0589961-.0797323.0780236-.0173268.0104291-.00981496.0371378.0103071.0371378.00351181 0 .00705118-.0009252.0102795-.00285433.0449449-.0269606.0249724-.0478031.077248-.0766142.00175984-.0009685.0140787-.008.0237362-.0134488l.0283937.0968622c.0556654.00494488.0874409.0420236.0959921.0722244h-.245055z"/><path d="m.838535 1.5794c-.0075315 0-.0144921-.00429921-.0178661-.0110512l-.121709-.242953-.109098-.0189134c-.00903543-.00157087-.0158701-.00909449-.0165236-.0182559l-.00758268-.104728c-.00229921-.0046811-.0549094-.0446929-.0592992-.0560748l-.0366457-.0951339h.770083c-.00390551.0208268-.0123189.0499331-.0209409.0876378-.00359055.0157008-.0272559.0195827-.0501339.0278386l-.0929291.278791c-.00144094.00434252-.00434252.00807874-.00821654.0105354l-.218398.139185c-.00324803.00205512-.00697638.00312205-.0107402.00312205z"/><path d="m.508413 1.4043c-.0264449 0-.0632205-.0487559-.135965-.0905118-.0143465-.00823228-.0636575-.128417-.0709055-.135008-.00779921-.00709449-.0881535-.026626-.0968425-.0421929l-.0582874-.104295h.280563l.00057874.0015748.0415787.107937c.00854724.0221811.0375354.0422677.0578386.0598701l.00647638.0894449c.00163386.0225551.0157244.0418228.0357323.0506024-.0269606.0442165-.0384291.0625787-.0607677.0625787z"/><path d="m1.17314 1.40431c-.0113976 0-.0250472-.00903543-.0405394-.0214016l.0679055-.203724c.0257323-.00879921.0502953-.0191102.057437-.0503425.00637402-.0278661.0143976-.055689.0201614-.0835945.00087795-.00425591.00169685-.00859449.00235827-.0129606h.244445c-.00861811.0301929-.0405787.067248-.0959961.072185l-.0327362.111709c-.00174803.00598031-.00620866.0107992-.0120236.0130354l-.105102.0402638c-.018811.0289764-.0327559.0518701-.0440945.0704724-.0277008.0455118-.039185.0643583-.061815.0643583z"/><path d="m.172197.650949c-.028252 0-.0552559-.012063-.074185-.0327126-.127445-.00345669-.12935-.194606-.00214961-.200791.0214134-.078374.123075-.100421.174898-.0369134.0404961-.00549606.0800945.0140197.100469.0490787.115835.0257441.0971732.198528-.0219921.198528-.00648425 0-.0129134-.0006063-.0192165-.00184646-.029626.0219094-.0714055.0255354-.104268.00919291-.0159409.0100512-.0345079.0154646-.0535551.0154646z"/><path d="m1.42884.67489c-.0282559 0-.0552559-.012063-.074185-.0327244-.127445-.00345669-.129346-.19461-.0021378-.200791.0214291-.0784134.123122-.100425.174894-.0369291.0405079-.00549606.0801063.0140315.100472.0490906.115858.0257362.097189.198528-.0219803.198528-.00648425 0-.0129134-.00061024-.0192126-.00183071-.0296614.0219055-.0713661.0255315-.104283.00919291-.015937.0100315-.0345157.0154646-.0535669.0154646z"/><path d="m.704902.59802c-.111071-.108929-.0414685-.320602.133634-.320602.12724 0 .210346.120705.182441.232929l-.150213-.0957323c-.0299331-.0190787-.0699764-.00801181-.0858701.0237205l-.0799921.159685z"/><path d="m.838535.245953c-.0110354 0-.0199921-.00895669-.0199921-.0199921v-.0787087c0-.0263189.0399843-.0263189.0399843 0v.0787087c0 .0110394-.00895669.0199921-.0199921.0199921z"/><path d="m.95813.278016c-.0151575 0-.0250669-.0165354-.0172953-.0299882l.0393622-.0681732c.0131457-.0227559.0477953-.00281496.034622.0199961l-.0393622.0681693c-.00370866.00639764-.0104252.00999606-.0173268.00999606z"/><path d="m1.04571.365563c-.0202874 0-.0276929-.0271102-.0100118-.0373189l.0681693-.0393465c.0227913-.013185.0427756.0214685.0199921.034626-.0126457.00730315-.0676024.0420394-.0781496.0420394z"/><path d="m1.15646.485177h-.0787087c-.0263189 0-.026311-.0399882 0-.0399882h.0787087c.026315 0 .0263228.0399882 0 .0399882z"/><path d="m.599311.485177h-.0787047c-.0263228 0-.0263228-.0399882 0-.0399882h.0787047c.026311 0 .0263346.0399882 0 .0399882z"/><path d="m.631343.365563c-.0105748 0-.0654606-.0347165-.0781417-.0420236-.0227874-.0131417-.00281496-.0477953.0199961-.034626l.0681693.0393465c.017685.0101969.0102953.0373031-.0100236.0373031z"/><path d="m.718949.278016c-.00691339 0-.0136299-.00358268-.0173425-.00999606l-.0393622-.0681693c-.0131417-.0227913.0214528-.0428071.034626-.0199961l.0393583.0681732c.00775591.0134488-.00213386.0299882-.0172795.0299882z"/><path d="m.563217.64415c-.020315 0-.0277047-.0271181-.0100315-.0373189l.0681732-.0393465c.0227992-.0131654.0427717.0214685.0199921.034622-.0126142.00728346-.067626.0420433-.0781339.0420433z"/></g></svg>