<svg clip-rule="evenodd" fill-rule="evenodd" height="512" image-rendering="optimizeQuality" shape-rendering="geometricPrecision" text-rendering="geometricPrecision" viewBox="0 0 1.70666 1.70666" width="512" xmlns="http://www.w3.org/2000/svg"><g id="Layer_x0020_1"><path d="m.371327 1.45134c-.0248425 0-.0480157-.00931496-.0655748-.0257165-.0184252.0163858-.042378.0257165-.0676654.0257165-.0275039 0-.0532362-.0109685-.0720433-.0297992-.0179094.0186614-.0429921.0297992-.0695945.0297992-.0530866 0-.0962756-.043185-.0962756-.0962835 0-.0468504.033622-.0859843.0780118-.0945354.00741339-.0384803.037811-.0688622.0762756-.0762795.00855512-.044378.0476969-.0780118.0945394-.0780118.0468661 0 .0860079.0336654.0945472.0780551.0214803.00420866.0411024.015689.0553071.032437.00588583-.00111024.0118858-.00167717.0179528-.00167717.0530866 0 .0962756.043185.0962756.0962835 0 .0377559-.0221654.0718583-.0559764.0874528-.0163268.0322008-.0491102.0525591-.0857795.0525591z"/><path d="m.11498 1.12474c.0337717-.149244.112295-.28528.226768-.390295.139902-.128331.321587-.199028.511587-.199028.356961 0 .662232.251917.73861.590933-.033689-.0282835-.0733307-.0477756-.113768-.0574488-.093315-.261906-.341827-.439882-.624843-.439882-.281693 0-.530681.177709-.624421.438705-.0329646.00491732-.0868425.0365-.113933.0570157zm.156469-.0566417c.0916181-.238043.321921-.399087.581886-.399087.258654 0 .486614.158154.579614.393213-.0192638-.00105906-.0382598.00024016-.0564449.00396457-.0889606-.20587-.293398-.343575-.523169-.343575-.235331 0-.440508.14089-.526972.352134-.016248-.00392126-.0332165-.00585433-.0505079-.00583858-.00146063-.00029528-.00292913-.00056299-.00440551-.00081102zm.0926181.0201299c.0808189-.195417.27111-.325622.489268-.325622.21226 0 .401283.12637.484839.315713-.0300157.0132362-.0560236.034685-.0747874.0649685-.0615276-.168697-.224083-.287075-.410051-.287075-.192417 0-.358756.12561-.415512.302898-.0177992-.0327598-.043563-.0561457-.0737559-.0708819z"/><path d="m1.56472 1.45134c-.0248386 0-.0480157-.00931496-.0655709-.0257165-.0184291.0163858-.0423819.0257165-.0676654.0257165-.0275079 0-.0532402-.0109685-.0720433-.0297992-.0178976.0186614-.0429961.0297992-.0695827.0297992-.0530866 0-.0962835-.043185-.0962835-.0962835 0-.0468504.0336299-.0859843.0780236-.0945354.00741732-.0384803.037815-.0688622.0762795-.0762795.00853937-.044378.047685-.0780118.0945354-.0780118.0468543 0 .0859843.0336654.0945394.0780551.0214961.00420866.0411142.015689.0553071.032437.00588583-.00111024.0118858-.00167717.0179528-.00167717.0530866 0 .0962835.043185.0962835.0962835 0 .0377559-.0221614.0718583-.0559724.0874528-.0163465.0322008-.0491181.0525591-.0858031.0525591z"/><path d="m.249307.597169c-.0694961 0-.126039-.0565433-.126039-.126059 0-.0695118.0565433-.126039.126039-.126039.0695 0 .126059.0565433.126059.126039 0 .0695-.0565433.126059-.126059.126059z"/><path d="m.249307.324681c-.0110354 0-.0199961-.00896063-.0199961-.0199961v-.0293701c0-.0110354.00896063-.0199961.0199961-.0199961.0110394 0 .0199961.00896063.0199961.0199961v.0293701c0 .0110591-.00894094.0199961-.0199961.0199961z"/><path d="m.332516.346984c-.00338976 0-.00683465-.00087402-.00998425-.0026811-.00955118-.00552756-.0128307-.0177441-.00731496-.027311l.014689-.025437c.00551181-.00957087.0177362-.0128346.027311-.0073189.00955512.00552756.0128346.0177441.0073189.027311l-.0146929.0254409c-.00369291.00641339-.0104252.00999606-.0173268.00999606z"/><path d="m.393457.407902c-.00691732 0-.0136339-.00358268-.0173465-.0100118-.00550787-.00955512-.00224803-.0217874.0073189-.027315l.025437-.014689c.00956693-.00552756.0218031-.00225197.027311.00731496.00551181.00955512.00225197.0217874-.00731496.027315l-.025437.014689c-.00313386.00183465-.00657874.00269685-.0099685.00269685z"/><path d="m.445114.491106h-.0293661c-.0110394 0-.0199961-.00895669-.0199961-.0199961 0-.0110354.00895669-.0199961.0199961-.0199961h.0293661c.0110394 0 .0199961.00896063.0199961.0199961 0 .0110394-.00895669.0199961-.0199961.0199961z"/><path d="m.418858.58902c-.00338976 0-.00683071-.00087795-.00997244-.0026811l-.025437-.0146929c-.00956693-.00550787-.0128425-.0177441-.00731496-.027311.00550787-.00956693.0177441-.0128583.027311-.00731496l.025437.014689c.00956693.00551181.0128425.0177441.0073189.027311-.00370866.00641339-.0104291.01-.0173425.01z"/><path d="m.347232.660685c-.00691732 0-.0136378-.00358661-.0173465-.0100157l-.014689-.025437c-.00551181-.00955118-.00225197-.0217874.00731496-.027311.00955118-.00551181.0217992-.00225197.027311.00731496l.014689.025437c.00551181.00955512.00225197.0217874-.00731496.027315-.00313386.0018189-.0065748.00269685-.00996457.00269685z"/><path d="m.249307.686898c-.0110354 0-.0199961-.00895669-.0199961-.0199961v-.0293661c0-.0110394.00896063-.0199961.0199961-.0199961.0110394 0 .0199961.00895669.0199961.0199961v.0293661c0 .0110551-.00894094.0199961-.0199961.0199961z"/><path d="m.151398.660685c-.00338976 0-.00683465-.00087795-.00997244-.0026811-.00956693-.00551181-.0128425-.0177441-.00731496-.027315l.014689-.025437c.00551181-.00956693.0177441-.0128583.027311-.00731496.00956693.00550787.0128425.0177441.0073189.027311l-.0146929.025437c-.00370472.00641339-.0104213.01-.0173386.01z"/><path d="m.0797756.58902c-.00691732 0-.0136378-.00358661-.0173465-.0100157-.00551181-.00955118-.00225197-.0217835.00731496-.027311l.0254409-.014689c.00956693-.00552756.0217835-.00225197.027311.00731496.00550787.00955118.00225197.0217874-.0073189.027311l-.025437.0146929c-.00313386.0018189-.0065748.00269685-.00996457.00269685z"/><path d="m.0828976.491106h-.0293701c-.0110354 0-.0199961-.00895669-.0199961-.0199961 0-.0110354.00896063-.0199961.0199961-.0199961h.0293701c.0110354 0 .0199961.00896063.0199961.0199961 0 .0110394-.00895276.0199961-.0199961.0199961z"/><path d="m.105169.407902c-.00338976 0-.00683071-.00087795-.0099685-.0026811l-.0254409-.014689c-.00956693-.00551181-.0128425-.0177441-.00731496-.027315.00551181-.00958268.0177441-.0128425.027311-.00731496l.025437.014689c.00957087.00551181.0128425.0177441.0073189.027315-.00370472.00641339-.0104252.00999606-.0173425.00999606z"/><path d="m.16613.346984c-.00691732 0-.0136378-.00358268-.0173465-.00999606l-.014689-.0254409c-.00551181-.00956693-.00225197-.0217835.00731496-.027311.00955118-.00550787.0217874-.00225197.027311.0073189l.0146929.025437c.00550787.00956693.00224803.0217835-.0073189.027311-.00314961.00182283-.0065748.0026811-.00996457.0026811z"/><path d="m1.42474.684791c-.00849606 0-.016063-.00537795-.0188701-.0133898-.00802756-.0229567-.0560039-.0375472-.0779685-.0410197-.0109016-.00172441-.0183583-.0119567-.016622-.022874.00170472-.0109252.0119803-.0184094.0228543-.0166378.00733465.00115748.0598386.0103189.0906063.0392835.0307874-.0289528.0832756-.0381181.0906063-.0392835.0108189-.00177559.0211181.00569685.0228583.0166063.00173622.0109016-.00569685.0211339-.0165787.0228819-.0220118.00352756-.0700276.0182165-.078.0410236-.00280315.0080315-.0103701.0134094-.0188858.0134094z"/><path d="m1.25792.571059c-.00849606 0-.016063-.00537402-.0188701-.0133858-.00802756-.0229567-.0560039-.0375472-.0779685-.0410236-.0109016-.00172047-.0183583-.0119528-.016622-.0228701.00170472-.0109173.0120118-.0183701.0228583-.0166378.00733071.00115354.0598346.0103189.0906024.0392835.0307874-.0289528.0832756-.0381181.0906063-.0392835.0108425-.00172047.021122.00570472.0228583.0166063.00173622.0109016-.00569685.0211339-.0165787.0228819-.0220118.00352756-.0700276.0182165-.078.0410197-.0028189.00805118-.0103858.0134094-.0188858.0134094z"/><path d="m1.52945.543181c-.00849606 0-.0160669-.00537402-.018874-.0133898-.00802362-.0229528-.0560039-.0375433-.0779685-.0410197-.0109016-.00172047-.0183583-.0119567-.016622-.0228701.00170866-.0109173.0119843-.0183701.0228583-.0166378.00733071.00115354.0598346.0103189.0906063.0392835.0307874-.0289567.0832717-.0381181.0906063-.0392835.010815-.00176378.0211181.00570472.0228543.0166063.00173622.0108976-.00569291.0211339-.0165787.0228819-.0220118.00352756-.0700276.0182165-.078.0410197-.00280315.00803543-.0103701.0134094-.0188819.0134094z"/><path d="m.710992 1.26755c-.00849606 0-.016063-.00537402-.018874-.0134016-.00802362-.0229409-.0560039-.0375433-.0779646-.0410039-.0109173-.00173622-.0183583-.0119724-.0166378-.0228701.00172047-.0109173.0119134-.0183346.0228701-.0166378.00733465.00116535.0598346.0103346.0906063.0392835.0307874-.0289567.0832913-.0381181.0906063-.0392835.011-.00170472.0211181.00572047.0228583.0166063.00173622.0108976-.00570866.0211339-.0165984.0228819-.0219921.00354331-.0700118.0182165-.078.0410197-.00279921.0080315-.0103858.0134055-.0188661.0134055z"/><path d="m.815673 1.12593c-.00849606 0-.016063-.00537402-.0188701-.0134016-.00798425-.0227953-.0560039-.0374606-.078-.0410039-.0108858-.00174803-.0183189-.0119803-.0165945-.0228819.00173622-.0108858.0118701-.0184094.0228543-.0165945.00733071.00115354.0598346.0103189.0906063.0392677.0307874-.0289567.0832756-.0381181.0906063-.0392677.0107992-.00184646.0211181.00570472.0228543.0165945.00174016.0109016-.00569291.0211339-.0165787.0228819-.0220118.00354331-.0700118.0182165-.0780079.0410039-.00279921.00802756-.0103661.0134016-.0188701.0134016z"/></g></svg>