<svg clip-rule="evenodd" fill-rule="evenodd" height="512" image-rendering="optimizeQuality" shape-rendering="geometricPrecision" text-rendering="geometricPrecision" viewBox="0 0 1707 1707" width="512" xmlns="http://www.w3.org/2000/svg"><g id="Layer_x0020_1"><g id="_478461512"><path d="m1205 1077h-703c-110 0-199-89-199-198 0-111 91-201 202-199 30-75 103-125 185-125 5 0 9 0 14 1 38-43 92-68 149-68 58 0 112 25 150 68 4-1 9-1 14-1 82 0 154 50 184 125 111-2 203 88 203 199 0 109-89 198-199 198z"/><path d="m1508 905h-66c1-9 2-17 2-26 0-124-96-227-217-238-41-76-120-125-208-126-27-26-59-45-94-56l-34-38c-2-2-4-4-6-6 31-21 69-33 108-33 4 0 9 1 14 1 38-43 91-68 149-68s112 25 149 68c5 0 10-1 14-1 83 0 155 50 185 125 111-2 203 88 203 199 0 110-90 199-199 199z"/><path d="m264 905h-65c-110 0-199-89-199-199 0-111 91-201 203-199 30-75 102-125 184-125 5 0 10 1 14 1 38-43 92-68 150-68 57 0 111 25 149 68 62-4 121 21 161 65-2 0-5 0-8 0-62 0-121 24-166 67-88 1-167 50-207 126-122 11-217 113-217 238 0 9 0 17 1 26z"/><path d="m20 1145c-11 0-20-9-20-20v-124c0-11 9-20 20-20s20 9 20 20v124c0 11-9 20-20 20z"/><path d="m153 1200c-11 0-20-9-20-20v-124c0-11 9-20 20-20s20 9 20 20v124c0 11-9 20-20 20z"/><path d="m1687 1145c-12 0-20-9-20-20v-124c0-11 9-20 20-20s20 9 20 20v124c0 11-9 20-20 20z"/><path d="m1553 1200c-11 0-20-9-20-20v-124c0-11 9-20 20-20s20 9 20 20v124c0 11-9 20-20 20z"/><path d="m1341 1334c-11 0-20-9-20-20v-130c0-11 9-20 20-20s20 9 20 20v130c0 11-9 20-20 20z"/><path d="m1202 1391c-11 0-20-9-20-20v-130c0-11 9-20 20-20s20 9 20 20v130c0 11-9 20-20 20z"/><path d="m1062 1334c-11 0-20-9-20-20v-130c0-11 9-20 20-20s20 9 20 20v130c0 11-9 20-20 20z"/><path d="m923 1391c-11 0-20-9-20-20v-130c0-11 9-20 20-20s20 9 20 20v130c0 11-9 20-20 20z"/><path d="m784 1334c-11 0-20-9-20-20v-130c0-11 9-20 20-20s20 9 20 20v130c0 11-9 20-20 20z"/><path d="m644 1391c-11 0-20-9-20-20v-130c0-11 9-20 20-20s20 9 20 20v130c0 11-9 20-20 20z"/><path d="m505 1334c-11 0-20-9-20-20v-130c0-11 9-20 20-20s20 9 20 20v130c0 11-9 20-20 20z"/><path d="m366 1391c-11 0-20-9-20-20v-130c0-11 9-20 20-20s20 9 20 20v130c0 11-9 20-20 20z"/></g></g></svg>