<svg clip-rule="evenodd" fill-rule="evenodd" height="512" image-rendering="optimizeQuality" shape-rendering="geometricPrecision" text-rendering="geometricPrecision" viewBox="0 0 1707 1707" width="512" xmlns="http://www.w3.org/2000/svg"><g id="Layer_x0020_1"><g id="_493345048"><path d="m981 1707h-293c-6 0-11-3-15-6-3-4-6-9-5-15l5-389c0-4 1-8 3-11l170-239-91-165c-3-7-3-16 2-22l257-329c6-8 17-10 25-6 9 5 13 15 10 24l-94 287 72 206c2 5 2 11-1 16l-77 141 51 482c1 2 1 4 1 6 0 11-9 20-20 20z"/><path d="m773 892c-4 0-8-1-12-4-17-12-68-44-99-46-52-3-109-105-125-136-28-65-82-156-115-160-62-8-207-72-213-74-11-5-15-16-11-27 5-10 16-14 27-10 1 1 146 64 202 71 67 9 134 153 146 182 28 53 72 113 91 114 48 3 113 49 121 54 9 6 11 19 4 28-4 5-10 8-16 8z"/><path d="m285 701c-63 0-97-38-127-71-29-33-52-59-98-51-11 2-21-5-23-16s5-21 16-23c67-12 103 28 135 63 44 49 83 92 214 19 47-26 121-6 129-3 11 3 17 14 14 24-3 11-14 17-25 14-18-5-71-15-98 0-57 32-102 44-137 44z"/><path d="m202 1005c-6 0-12-3-16-7-6-9-5-22 3-29 31-24 94-19 156-14 8 1 16 2 23 2 34 3 44-14 77-76 6-13 14-26 22-41 45-80 117-85 149-77 10 3 17 14 14 25-3 10-14 17-25 14-3-1-63-15-103 57-8 15-15 28-22 41-32 61-54 102-115 97-7 0-15-1-23-2-44-3-110-9-127 5-4 3-9 5-13 5z"/><path d="m266 876c-6 0-13-3-16-9-7-9-5-21 4-27 16-12 98-68 144-39 33 21 89 29 89 29 11 1 19 12 17 23-1 10-12 18-22 16-3 0-65-9-105-34-17-11-69 15-100 37-3 2-7 4-11 4z"/><path d="m881 753c-9 0-18-7-19-17l-15-97c0-2-6-48-33-58-45-16-110-55-148-196-1-5-23-91-126-94-11 0-20-9-20-20 1-11 9-20 21-20 108 3 154 83 164 124 33 121 83 154 123 169 51 19 58 87 59 90l14 96c2 11-6 21-17 23-1 0-2 0-3 0z"/><path d="m701 448c-6 0-12-2-16-7-3-5-35-40-92-13-77 36-141-32-159-53-17-4-66-11-98 5-10 5-22 1-27-9s-1-22 9-27c53-26 129-8 132-7 4 1 8 4 11 8 1 1 56 74 115 47 70-33 123 1 141 24 6 9 5 21-4 28-3 3-8 4-12 4z"/><path d="m721 492c-3 0-7-1-10-3-9-5-13-17-7-27 7-13 16-26 24-39 45-72 70-118 20-176-46-54-10-125-8-128 5-9 17-13 27-8s13 17 8 27c0 0-25 50 3 83 72 83 25 157-17 223-7 13-15 25-23 38-3 6-10 10-17 10z"/><path d="m934 856c-7 0-13-3-17-8-6-9-4-22 5-28 7-6 72-51 121-54 19-1 63-61 91-115 12-28 79-172 146-181 56-7 201-70 202-71 10-4 22 0 26 10 5 11 0 22-10 27-6 2-151 66-213 74-33 4-87 95-115 158-17 33-74 135-125 138-31 2-83 34-100 46-3 3-7 4-11 4z"/><path d="m1421 665c-35 0-79-12-136-44-27-15-80-5-99 0-10 3-21-3-24-14s3-22 14-25c8-2 82-22 128 4 132 73 170 30 215-19 31-35 67-75 135-63 10 1 18 12 16 23s-12 18-23 16c-46-8-69 18-98 50-30 33-65 72-128 72z"/><path d="m1505 969c-5 0-9-2-13-5-18-14-83-9-127-5-8 1-16 1-23 2-61 5-83-36-116-97-6-13-13-26-21-41-41-72-101-58-104-57-10 2-21-4-24-15-3-10 4-21 14-24 32-9 104-3 149 77 8 15 15 28 22 41 33 62 43 78 77 76 7 0 15-1 23-2 61-5 125-10 155 14 9 7 10 20 3 28-4 5-10 8-15 8z"/><path d="m1441 840c-4 0-8-2-12-4-31-22-82-48-99-37-40 25-102 34-105 34-11 2-21-6-23-17-1-11 6-21 17-22 1 0 57-9 90-29 46-29 128 27 144 38 9 7 11 19 4 28-4 6-10 9-16 9z"/><path d="m1030 563c-9 0-17-6-19-16-11-46-14-122 83-231 3-3 63-69 9-157-6-9-3-21 6-27 10-6 22-3 28 6 57 92 16 174-14 205-83 94-83 154-73 195 2 11-5 22-15 24-2 1-3 1-5 1z"/><path d="m1077 389c-3 0-5 0-7-1-10-4-16-15-12-25 1-5 14-51-40-85-72-44-51-135-43-162-7-16-27-60-58-79-10-5-13-18-7-27 6-10 18-13 27-7 51 30 77 103 78 106 2 5 2 9 0 14 0 1-31 87 24 121 66 41 66 104 57 131-3 9-11 14-19 14z"/><path d="m1051 430c-10 0-19-8-20-19s8-20 19-21c15-1 31-1 46-2 84-1 137-6 158-79 20-68 99-76 102-77 11-1 21 7 22 18s-7 21-18 22c0 0-55 6-67 48-31 105-119 107-197 108-14 1-29 1-44 2z"/><path d="m1253 1707h-838c-11 0-20-9-20-20s9-20 20-20h838c11 0 20 9 20 20s-9 20-20 20z"/></g></g></svg>